{
  "header": {
    "keySignatures": [],
    "meta": [],
    "name": "",
    "ppq": 96,
    "tempos": [
      {
        "bpm": 150,
        "ticks": 0
      }
    ],
    "timeSignatures": [
      {
        "ticks": 0,
        "timeSignature": [
          4,
          4
        ],
        "measures": 0
      }
    ]
  },
  "tracks": [
    {
      "channel": 0,
      "controlChanges": {},
      "pitchBends": [],
      "instrument": {
        "family": "piano",
        "number": 0,
        "name": "acoustic grand piano"
      },
      "name": "",
      "notes": [],
      "endOfTrackTicks": 0
    },
    {
      "channel": 0,
      "controlChanges": {
        "6": [
          {
            "number": 6,
            "ticks": 0,
            "time": 0,
            "value": 0.09448818897637795
          }
        ],
        "7": [
          {
            "number": 7,
            "ticks": 0,
            "time": 0,
            "value": 0.6771653543307087
          },
          {
            "number": 7,
            "ticks": 0,
            "time": 0,
            "value": 0.6771653543307087
          }
        ],
        "10": [
          {
            "number": 10,
            "ticks": 0,
            "time": 0,
            "value": 0.6456692913385826
          },
          {
            "number": 10,
            "ticks": 0,
            "time": 0,
            "value": 0.6456692913385826
          }
        ],
        "100": [
          {
            "number": 100,
            "ticks": 0,
            "time": 0,
            "value": 0
          }
        ],
        "101": [
          {
            "number": 101,
            "ticks": 0,
            "time": 0,
            "value": 0
          }
        ]
      },
      "pitchBends": [
        {
          "ticks": 0,
          "time": 0,
          "value": 0
        },
        {
          "ticks": 0,
          "time": 0,
          "value": 0
        }
      ],
      "instrument": {
        "family": "piano",
        "number": 0,
        "name": "acoustic grand piano"
      },
      "name": "24 Hour Cinderella",
      "notes": [],
      "endOfTrackTicks": 25715
    },
    {
      "channel": 12,
      "controlChanges": {
        "6": [
          {
            "number": 6,
            "ticks": 0,
            "time": 0,
            "value": 0.09448818897637795
          },
          {
            "number": 6,
            "ticks": 0,
            "time": 0,
            "value": 0.09448818897637795
          },
          {
            "number": 6,
            "ticks": 25714,
            "time": 107.14166666666668,
            "value": 0.09448818897637795
          },
          {
            "number": 6,
            "ticks": 25715,
            "time": 107.14583333333333,
            "value": 0.09448818897637795
          }
        ],
        "7": [
          {
            "number": 7,
            "ticks": 0,
            "time": 0,
            "value": 0.6771653543307087
          },
          {
            "number": 7,
            "ticks": 0,
            "time": 0,
            "value": 0.6771653543307087
          },
          {
            "number": 7,
            "ticks": 25714,
            "time": 107.14166666666668,
            "value": 0.6771653543307087
          },
          {
            "number": 7,
            "ticks": 25715,
            "time": 107.14583333333333,
            "value": 0.6771653543307087
          }
        ],
        "10": [
          {
            "number": 10,
            "ticks": 0,
            "time": 0,
            "value": 0.6456692913385826
          },
          {
            "number": 10,
            "ticks": 0,
            "time": 0,
            "value": 0.6456692913385826
          },
          {
            "number": 10,
            "ticks": 25714,
            "time": 107.14166666666668,
            "value": 0.6456692913385826
          },
          {
            "number": 10,
            "ticks": 25715,
            "time": 107.14583333333333,
            "value": 0.6456692913385826
          }
        ],
        "91": [
          {
            "number": 91,
            "ticks": 0,
            "time": 0,
            "value": 0.1968503937007874
          },
          {
            "number": 91,
            "ticks": 0,
            "time": 0,
            "value": 0.1968503937007874
          },
          {
            "number": 91,
            "ticks": 0,
            "time": 0,
            "value": 0.1968503937007874
          },
          {
            "number": 91,
            "ticks": 25714,
            "time": 107.14166666666668,
            "value": 0.1968503937007874
          },
          {
            "number": 91,
            "ticks": 25715,
            "time": 107.14583333333333,
            "value": 0.1968503937007874
          }
        ],
        "93": [
          {
            "number": 93,
            "ticks": 0,
            "time": 0,
            "value": 0.11023622047244094
          },
          {
            "number": 93,
            "ticks": 0,
            "time": 0,
            "value": 0.11023622047244094
          },
          {
            "number": 93,
            "ticks": 0,
            "time": 0,
            "value": 0.11023622047244094
          },
          {
            "number": 93,
            "ticks": 25714,
            "time": 107.14166666666668,
            "value": 0.11023622047244094
          },
          {
            "number": 93,
            "ticks": 25715,
            "time": 107.14583333333333,
            "value": 0.11023622047244094
          }
        ],
        "100": [
          {
            "number": 100,
            "ticks": 0,
            "time": 0,
            "value": 0
          },
          {
            "number": 100,
            "ticks": 0,
            "time": 0,
            "value": 0
          },
          {
            "number": 100,
            "ticks": 25714,
            "time": 107.14166666666668,
            "value": 0
          },
          {
            "number": 100,
            "ticks": 25715,
            "time": 107.14583333333333,
            "value": 0
          }
        ],
        "101": [
          {
            "number": 101,
            "ticks": 0,
            "time": 0,
            "value": 0
          },
          {
            "number": 101,
            "ticks": 0,
            "time": 0,
            "value": 0
          },
          {
            "number": 101,
            "ticks": 25714,
            "time": 107.14166666666668,
            "value": 0
          },
          {
            "number": 101,
            "ticks": 25715,
            "time": 107.14583333333333,
            "value": 0
          }
        ]
      },
      "pitchBends": [
        {
          "ticks": 0,
          "time": 0,
          "value": 0
        },
        {
          "ticks": 0,
          "time": 0,
          "value": 0
        },
        {
          "ticks": 25714,
          "time": 107.14166666666668,
          "value": 0
        },
        {
          "ticks": 25715,
          "time": 107.14583333333333,
          "value": 0
        }
      ],
      "instrument": {
        "family": "guitar",
        "number": 30,
        "name": "distortion guitar"
      },
      "name": "",
      "notes": [
        {
          "duration": 0.5,
          "durationTicks": 120,
          "midi": 57,
          "name": "A3",
          "ticks": 384,
          "time": 1.6,
          "velocity": 0.968503937007874
        },
        {
          "duration": 0.5,
          "durationTicks": 120,
          "midi": 50,
          "name": "D3",
          "ticks": 384,
          "time": 1.6,
          "velocity": 0.9291338582677166
        },
        {
          "duration": 0.5,
          "durationTicks": 120,
          "midi": 49,
          "name": "C#3",
          "ticks": 528,
          "time": 2.2,
          "velocity": 0.9291338582677166
        },
        {
          "duration": 0.5,
          "durationTicks": 120,
          "midi": 57,
          "name": "A3",
          "ticks": 528,
          "time": 2.2,
          "velocity": 0.968503937007874
        },
        {
          "duration": 0.5499999999999998,
          "durationTicks": 132,
          "midi": 54,
          "name": "F#3",
          "ticks": 672,
          "time": 2.8000000000000003,
          "velocity": 0.968503937007874
        },
        {
          "duration": 0.5499999999999998,
          "durationTicks": 132,
          "midi": 47,
          "name": "B2",
          "ticks": 672,
          "time": 2.8000000000000003,
          "velocity": 0.9291338582677166
        },
        {
          "duration": 0.1499999999999999,
          "durationTicks": 36,
          "midi": 57,
          "name": "A3",
          "ticks": 816,
          "time": 3.4000000000000004,
          "velocity": 0.968503937007874
        },
        {
          "duration": 0.1499999999999999,
          "durationTicks": 36,
          "midi": 50,
          "name": "D3",
          "ticks": 816,
          "time": 3.4000000000000004,
          "velocity": 0.9291338582677166
        },
        {
          "duration": 0.1499999999999999,
          "durationTicks": 36,
          "midi": 50,
          "name": "D3",
          "ticks": 864,
          "time": 3.6,
          "velocity": 0.9291338582677166
        },
        {
          "duration": 0.1499999999999999,
          "durationTicks": 36,
          "midi": 57,
          "name": "A3",
          "ticks": 864,
          "time": 3.6,
          "velocity": 0.968503937007874
        },
        {
          "duration": 0.1499999999999999,
          "durationTicks": 36,
          "midi": 50,
          "name": "D3",
          "ticks": 912,
          "time": 3.8000000000000003,
          "velocity": 0.9291338582677166
        },
        {
          "duration": 0.1499999999999999,
          "durationTicks": 36,
          "midi": 57,
          "name": "A3",
          "ticks": 912,
          "time": 3.8000000000000003,
          "velocity": 0.968503937007874
        },
        {
          "duration": 0.15000000000000036,
          "durationTicks": 36,
          "midi": 50,
          "name": "D3",
          "ticks": 960,
          "time": 4,
          "velocity": 0.9291338582677166
        },
        {
          "duration": 0.15000000000000036,
          "durationTicks": 36,
          "midi": 57,
          "name": "A3",
          "ticks": 960,
          "time": 4,
          "velocity": 0.968503937007874
        },
        {
          "duration": 0.25,
          "durationTicks": 60,
          "midi": 57,
          "name": "A3",
          "ticks": 1008,
          "time": 4.2,
          "velocity": 0.968503937007874
        },
        {
          "duration": 0.25,
          "durationTicks": 60,
          "midi": 50,
          "name": "D3",
          "ticks": 1008,
          "time": 4.2,
          "velocity": 0.9291338582677166
        },
        {
          "duration": 0.34999999999999964,
          "durationTicks": 84,
          "midi": 59,
          "name": "B3",
          "ticks": 1104,
          "time": 4.6000000000000005,
          "velocity": 0.968503937007874
        },
        {
          "duration": 0.34999999999999964,
          "durationTicks": 84,
          "midi": 52,
          "name": "E3",
          "ticks": 1104,
          "time": 4.6000000000000005,
          "velocity": 0.9291338582677166
        },
        {
          "duration": 0.15000000000000036,
          "durationTicks": 36,
          "midi": 59,
          "name": "B3",
          "ticks": 1200,
          "time": 5,
          "velocity": 0.968503937007874
        },
        {
          "duration": 0.15000000000000036,
          "durationTicks": 36,
          "midi": 52,
          "name": "E3",
          "ticks": 1200,
          "time": 5,
          "velocity": 0.9291338582677166
        },
        {
          "duration": 0.15000000000000036,
          "durationTicks": 36,
          "midi": 52,
          "name": "E3",
          "ticks": 1248,
          "time": 5.2,
          "velocity": 0.9291338582677166
        },
        {
          "duration": 0.15000000000000036,
          "durationTicks": 36,
          "midi": 59,
          "name": "B3",
          "ticks": 1248,
          "time": 5.2,
          "velocity": 0.968503937007874
        },
        {
          "duration": 0.2999999999999998,
          "durationTicks": 72,
          "midi": 52,
          "name": "E3",
          "ticks": 1536,
          "time": 6.4,
          "velocity": 0.9291338582677166
        },
        {
          "duration": 0.2999999999999998,
          "durationTicks": 72,
          "midi": 57,
          "name": "A3",
          "ticks": 1536,
          "time": 6.4,
          "velocity": 0.968503937007874
        },
        {
          "duration": 0.10000000000000053,
          "durationTicks": 24,
          "midi": 57,
          "name": "A3",
          "ticks": 1608,
          "time": 6.7,
          "velocity": 0.968503937007874
        },
        {
          "duration": 0.10000000000000053,
          "durationTicks": 24,
          "midi": 52,
          "name": "E3",
          "ticks": 1608,
          "time": 6.7,
          "velocity": 0.9291338582677166
        },
        {
          "duration": 0.025000000000000355,
          "durationTicks": 6,
          "midi": 57,
          "name": "A3",
          "ticks": 1716,
          "time": 7.15,
          "velocity": 0.968503937007874
        },
        {
          "duration": 0.025000000000000355,
          "durationTicks": 6,
          "midi": 52,
          "name": "E3",
          "ticks": 1716,
          "time": 7.15,
          "velocity": 0.9291338582677166
        },
        {
          "duration": 0.025000000000000355,
          "durationTicks": 6,
          "midi": 52,
          "name": "E3",
          "ticks": 1740,
          "time": 7.25,
          "velocity": 0.9291338582677166
        },
        {
          "duration": 0.025000000000000355,
          "durationTicks": 6,
          "midi": 57,
          "name": "A3",
          "ticks": 1740,
          "time": 7.25,
          "velocity": 0.968503937007874
        },
        {
          "duration": 0.25,
          "durationTicks": 60,
          "midi": 57,
          "name": "A3",
          "ticks": 1764,
          "time": 7.3500000000000005,
          "velocity": 0.968503937007874
        },
        {
          "duration": 0.25,
          "durationTicks": 60,
          "midi": 52,
          "name": "E3",
          "ticks": 1764,
          "time": 7.3500000000000005,
          "velocity": 0.9291338582677166
        },
        {
          "duration": 0.024999999999999467,
          "durationTicks": 6,
          "midi": 52,
          "name": "E3",
          "ticks": 1872,
          "time": 7.800000000000001,
          "velocity": 0.9291338582677166
        },
        {
          "duration": 0.024999999999999467,
          "durationTicks": 6,
          "midi": 57,
          "name": "A3",
          "ticks": 1872,
          "time": 7.800000000000001,
          "velocity": 0.968503937007874
        },
        {
          "duration": 0.025000000000000355,
          "durationTicks": 6,
          "midi": 52,
          "name": "E3",
          "ticks": 1896,
          "time": 7.9,
          "velocity": 0.9291338582677166
        },
        {
          "duration": 0.025000000000000355,
          "durationTicks": 6,
          "midi": 57,
          "name": "A3",
          "ticks": 1896,
          "time": 7.9,
          "velocity": 0.968503937007874
        },
        {
          "duration": 0.375,
          "durationTicks": 90,
          "midi": 52,
          "name": "E3",
          "ticks": 1920,
          "time": 8,
          "velocity": 0.9291338582677166
        },
        {
          "duration": 0.375,
          "durationTicks": 90,
          "midi": 56,
          "name": "G#3",
          "ticks": 1920,
          "time": 8,
          "velocity": 0.9291338582677166
        },
        {
          "duration": 0.40000000000000036,
          "durationTicks": 96,
          "midi": 52,
          "name": "E3",
          "ticks": 2064,
          "time": 8.6,
          "velocity": 0.9291338582677166
        },
        {
          "duration": 0.40000000000000036,
          "durationTicks": 96,
          "midi": 56,
          "name": "G#3",
          "ticks": 2064,
          "time": 8.6,
          "velocity": 0.968503937007874
        },
        {
          "duration": 0.20000000000000107,
          "durationTicks": 48,
          "midi": 52,
          "name": "E3",
          "ticks": 2160,
          "time": 9,
          "velocity": 0.9291338582677166
        },
        {
          "duration": 0.20000000000000107,
          "durationTicks": 48,
          "midi": 56,
          "name": "G#3",
          "ticks": 2160,
          "time": 9,
          "velocity": 0.968503937007874
        },
        {
          "duration": 0.1999999999999993,
          "durationTicks": 48,
          "midi": 52,
          "name": "E3",
          "ticks": 2208,
          "time": 9.200000000000001,
          "velocity": 0.9291338582677166
        },
        {
          "duration": 0.1999999999999993,
          "durationTicks": 48,
          "midi": 56,
          "name": "G#3",
          "ticks": 2208,
          "time": 9.200000000000001,
          "velocity": 0.968503937007874
        },
        {
          "duration": 0.29999999999999893,
          "durationTicks": 72,
          "midi": 57,
          "name": "A3",
          "ticks": 2304,
          "time": 9.600000000000001,
          "velocity": 0.968503937007874
        },
        {
          "duration": 0.29999999999999893,
          "durationTicks": 72,
          "midi": 52,
          "name": "E3",
          "ticks": 2304,
          "time": 9.600000000000001,
          "velocity": 0.9291338582677166
        },
        {
          "duration": 0.09999999999999964,
          "durationTicks": 24,
          "midi": 57,
          "name": "A3",
          "ticks": 2376,
          "time": 9.9,
          "velocity": 0.968503937007874
        },
        {
          "duration": 0.09999999999999964,
          "durationTicks": 24,
          "midi": 52,
          "name": "E3",
          "ticks": 2376,
          "time": 9.9,
          "velocity": 0.9291338582677166
        },
        {
          "duration": 0.02499999999999858,
          "durationTicks": 6,
          "midi": 52,
          "name": "E3",
          "ticks": 2484,
          "time": 10.350000000000001,
          "velocity": 0.9291338582677166
        },
        {
          "duration": 0.02499999999999858,
          "durationTicks": 6,
          "midi": 57,
          "name": "A3",
          "ticks": 2484,
          "time": 10.350000000000001,
          "velocity": 0.968503937007874
        },
        {
          "duration": 0.025000000000000355,
          "durationTicks": 6,
          "midi": 57,
          "name": "A3",
          "ticks": 2508,
          "time": 10.450000000000001,
          "velocity": 0.968503937007874
        },
        {
          "duration": 0.025000000000000355,
          "durationTicks": 6,
          "midi": 52,
          "name": "E3",
          "ticks": 2508,
          "time": 10.450000000000001,
          "velocity": 0.9291338582677166
        },
        {
          "duration": 0.25,
          "durationTicks": 60,
          "midi": 57,
          "name": "A3",
          "ticks": 2532,
          "time": 10.55,
          "velocity": 0.968503937007874
        },
        {
          "duration": 0.25,
          "durationTicks": 60,
          "midi": 52,
          "name": "E3",
          "ticks": 2532,
          "time": 10.55,
          "velocity": 0.9291338582677166
        },
        {
          "duration": 0.025000000000000355,
          "durationTicks": 6,
          "midi": 52,
          "name": "E3",
          "ticks": 2640,
          "time": 11,
          "velocity": 0.9291338582677166
        },
        {
          "duration": 0.025000000000000355,
          "durationTicks": 6,
          "midi": 57,
          "name": "A3",
          "ticks": 2640,
          "time": 11,
          "velocity": 0.968503937007874
        },
        {
          "duration": 0.02499999999999858,
          "durationTicks": 6,
          "midi": 52,
          "name": "E3",
          "ticks": 2664,
          "time": 11.100000000000001,
          "velocity": 0.9291338582677166
        },
        {
          "duration": 0.02499999999999858,
          "durationTicks": 6,
          "midi": 57,
          "name": "A3",
          "ticks": 2664,
          "time": 11.100000000000001,
          "velocity": 0.968503937007874
        },
        {
          "duration": 0.375,
          "durationTicks": 90,
          "midi": 52,
          "name": "E3",
          "ticks": 2688,
          "time": 11.200000000000001,
          "velocity": 0.9291338582677166
        },
        {
          "duration": 0.375,
          "durationTicks": 90,
          "midi": 56,
          "name": "G#3",
          "ticks": 2688,
          "time": 11.200000000000001,
          "velocity": 0.968503937007874
        },
        {
          "duration": 0.40000000000000036,
          "durationTicks": 96,
          "midi": 52,
          "name": "E3",
          "ticks": 2832,
          "time": 11.8,
          "velocity": 0.9291338582677166
        },
        {
          "duration": 0.40000000000000036,
          "durationTicks": 96,
          "midi": 56,
          "name": "G#3",
          "ticks": 2832,
          "time": 11.8,
          "velocity": 0.968503937007874
        },
        {
          "duration": 0.1999999999999993,
          "durationTicks": 48,
          "midi": 52,
          "name": "E3",
          "ticks": 2928,
          "time": 12.200000000000001,
          "velocity": 0.9291338582677166
        },
        {
          "duration": 0.1999999999999993,
          "durationTicks": 48,
          "midi": 56,
          "name": "G#3",
          "ticks": 2928,
          "time": 12.200000000000001,
          "velocity": 0.968503937007874
        },
        {
          "duration": 0.20000000000000107,
          "durationTicks": 48,
          "midi": 56,
          "name": "G#3",
          "ticks": 2976,
          "time": 12.4,
          "velocity": 0.968503937007874
        },
        {
          "duration": 0.20000000000000107,
          "durationTicks": 48,
          "midi": 52,
          "name": "E3",
          "ticks": 2976,
          "time": 12.4,
          "velocity": 0.9291338582677166
        },
        {
          "duration": 0.025000000000000355,
          "durationTicks": 6,
          "midi": 56,
          "name": "G#3",
          "ticks": 3048,
          "time": 12.700000000000001,
          "velocity": 0.968503937007874
        },
        {
          "duration": 0.025000000000000355,
          "durationTicks": 6,
          "midi": 52,
          "name": "E3",
          "ticks": 3048,
          "time": 12.700000000000001,
          "velocity": 0.9291338582677166
        },
        {
          "duration": 0.1999999999999993,
          "durationTicks": 48,
          "midi": 50,
          "name": "D3",
          "ticks": 3072,
          "time": 12.8,
          "velocity": 0.9291338582677166
        },
        {
          "duration": 0.1999999999999993,
          "durationTicks": 48,
          "midi": 57,
          "name": "A3",
          "ticks": 3072,
          "time": 12.8,
          "velocity": 0.968503937007874
        },
        {
          "duration": 0.20000000000000107,
          "durationTicks": 48,
          "midi": 57,
          "name": "A3",
          "ticks": 3120,
          "time": 13,
          "velocity": 0.968503937007874
        },
        {
          "duration": 0.20000000000000107,
          "durationTicks": 48,
          "midi": 50,
          "name": "D3",
          "ticks": 3120,
          "time": 13,
          "velocity": 0.9291338582677166
        },
        {
          "duration": 0.025000000000000355,
          "durationTicks": 6,
          "midi": 59,
          "name": "B3",
          "ticks": 3192,
          "time": 13.3,
          "velocity": 0.952755905511811
        },
        {
          "duration": 0.025000000000000355,
          "durationTicks": 6,
          "midi": 50,
          "name": "D3",
          "ticks": 3192,
          "time": 13.3,
          "velocity": 0.9291338582677166
        },
        {
          "duration": 0.025000000000000355,
          "durationTicks": 6,
          "midi": 59,
          "name": "B3",
          "ticks": 3216,
          "time": 13.4,
          "velocity": 0.952755905511811
        },
        {
          "duration": 0.025000000000000355,
          "durationTicks": 6,
          "midi": 50,
          "name": "D3",
          "ticks": 3216,
          "time": 13.4,
          "velocity": 0.9291338582677166
        },
        {
          "duration": 0.025000000000000355,
          "durationTicks": 6,
          "midi": 50,
          "name": "D3",
          "ticks": 3240,
          "time": 13.5,
          "velocity": 0.9291338582677166
        },
        {
          "duration": 0.025000000000000355,
          "durationTicks": 6,
          "midi": 59,
          "name": "B3",
          "ticks": 3240,
          "time": 13.5,
          "velocity": 0.952755905511811
        },
        {
          "duration": 0.1999999999999993,
          "durationTicks": 48,
          "midi": 59,
          "name": "B3",
          "ticks": 3264,
          "time": 13.600000000000001,
          "velocity": 0.952755905511811
        },
        {
          "duration": 0.1999999999999993,
          "durationTicks": 48,
          "midi": 52,
          "name": "E3",
          "ticks": 3264,
          "time": 13.600000000000001,
          "velocity": 0.9291338582677166
        },
        {
          "duration": 0.1999999999999993,
          "durationTicks": 48,
          "midi": 52,
          "name": "E3",
          "ticks": 3312,
          "time": 13.8,
          "velocity": 0.9291338582677166
        },
        {
          "duration": 0.1999999999999993,
          "durationTicks": 48,
          "midi": 59,
          "name": "B3",
          "ticks": 3312,
          "time": 13.8,
          "velocity": 0.952755905511811
        },
        {
          "duration": 0.02499999999999858,
          "durationTicks": 6,
          "midi": 59,
          "name": "B3",
          "ticks": 3384,
          "time": 14.100000000000001,
          "velocity": 0.952755905511811
        },
        {
          "duration": 0.02499999999999858,
          "durationTicks": 6,
          "midi": 50,
          "name": "D3",
          "ticks": 3384,
          "time": 14.100000000000001,
          "velocity": 0.9291338582677166
        },
        {
          "duration": 0.025000000000000355,
          "durationTicks": 6,
          "midi": 50,
          "name": "D3",
          "ticks": 3408,
          "time": 14.200000000000001,
          "velocity": 0.9291338582677166
        },
        {
          "duration": 0.025000000000000355,
          "durationTicks": 6,
          "midi": 59,
          "name": "B3",
          "ticks": 3408,
          "time": 14.200000000000001,
          "velocity": 0.952755905511811
        },
        {
          "duration": 0.025000000000000355,
          "durationTicks": 6,
          "midi": 50,
          "name": "D3",
          "ticks": 3432,
          "time": 14.3,
          "velocity": 0.9291338582677166
        },
        {
          "duration": 0.025000000000000355,
          "durationTicks": 6,
          "midi": 59,
          "name": "B3",
          "ticks": 3432,
          "time": 14.3,
          "velocity": 0.952755905511811
        },
        {
          "duration": 0.20000000000000107,
          "durationTicks": 48,
          "midi": 57,
          "name": "A3",
          "ticks": 3456,
          "time": 14.4,
          "velocity": 0.952755905511811
        },
        {
          "duration": 0.20000000000000107,
          "durationTicks": 48,
          "midi": 52,
          "name": "E3",
          "ticks": 3456,
          "time": 14.4,
          "velocity": 0.9291338582677166
        },
        {
          "duration": 0.1999999999999993,
          "durationTicks": 48,
          "midi": 57,
          "name": "A3",
          "ticks": 3504,
          "time": 14.600000000000001,
          "velocity": 0.952755905511811
        },
        {
          "duration": 0.1999999999999993,
          "durationTicks": 48,
          "midi": 52,
          "name": "E3",
          "ticks": 3504,
          "time": 14.600000000000001,
          "velocity": 0.9291338582677166
        },
        {
          "duration": 0.025000000000000355,
          "durationTicks": 6,
          "midi": 52,
          "name": "E3",
          "ticks": 3570,
          "time": 14.875,
          "velocity": 0.9291338582677166
        },
        {
          "duration": 0.025000000000000355,
          "durationTicks": 6,
          "midi": 56,
          "name": "G#3",
          "ticks": 3576,
          "time": 14.9,
          "velocity": 0.952755905511811
        },
        {
          "duration": 0.40000000000000036,
          "durationTicks": 96,
          "midi": 54,
          "name": "F#3",
          "ticks": 3600,
          "time": 15,
          "velocity": 0.952755905511811
        },
        {
          "duration": 0.40000000000000036,
          "durationTicks": 96,
          "midi": 49,
          "name": "C#3",
          "ticks": 3600,
          "time": 15,
          "velocity": 0.9291338582677166
        },
        {
          "duration": 0.20000000000000107,
          "durationTicks": 48,
          "midi": 49,
          "name": "C#3",
          "ticks": 3696,
          "time": 15.4,
          "velocity": 0.9291338582677166
        },
        {
          "duration": 0.20000000000000107,
          "durationTicks": 48,
          "midi": 54,
          "name": "F#3",
          "ticks": 3696,
          "time": 15.4,
          "velocity": 0.952755905511811
        },
        {
          "duration": 0.1999999999999993,
          "durationTicks": 48,
          "midi": 54,
          "name": "F#3",
          "ticks": 3744,
          "time": 15.600000000000001,
          "velocity": 0.952755905511811
        },
        {
          "duration": 0.1999999999999993,
          "durationTicks": 48,
          "midi": 49,
          "name": "C#3",
          "ticks": 3744,
          "time": 15.600000000000001,
          "velocity": 0.9291338582677166
        },
        {
          "duration": 0.1999999999999993,
          "durationTicks": 48,
          "midi": 50,
          "name": "D3",
          "ticks": 3840,
          "time": 16,
          "velocity": 0.952755905511811
        },
        {
          "duration": 0.1999999999999993,
          "durationTicks": 48,
          "midi": 57,
          "name": "A3",
          "ticks": 3840,
          "time": 16,
          "velocity": 0.952755905511811
        },
        {
          "duration": 0.20000000000000284,
          "durationTicks": 48,
          "midi": 50,
          "name": "D3",
          "ticks": 3888,
          "time": 16.2,
          "velocity": 0.952755905511811
        },
        {
          "duration": 0.20000000000000284,
          "durationTicks": 48,
          "midi": 57,
          "name": "A3",
          "ticks": 3888,
          "time": 16.2,
          "velocity": 0.952755905511811
        },
        {
          "duration": 0.09999999999999787,
          "durationTicks": 24,
          "midi": 50,
          "name": "D3",
          "ticks": 3936,
          "time": 16.400000000000002,
          "velocity": 0.952755905511811
        },
        {
          "duration": 0.09999999999999787,
          "durationTicks": 24,
          "midi": 57,
          "name": "A3",
          "ticks": 3936,
          "time": 16.400000000000002,
          "velocity": 0.952755905511811
        },
        {
          "duration": 0.09999999999999787,
          "durationTicks": 24,
          "midi": 50,
          "name": "D3",
          "ticks": 3984,
          "time": 16.6,
          "velocity": 0.952755905511811
        },
        {
          "duration": 0.09999999999999787,
          "durationTicks": 24,
          "midi": 57,
          "name": "A3",
          "ticks": 3984,
          "time": 16.6,
          "velocity": 0.952755905511811
        },
        {
          "duration": 0.10000000000000142,
          "durationTicks": 24,
          "midi": 50,
          "name": "D3",
          "ticks": 4032,
          "time": 16.8,
          "velocity": 0.952755905511811
        },
        {
          "duration": 0.10000000000000142,
          "durationTicks": 24,
          "midi": 57,
          "name": "A3",
          "ticks": 4032,
          "time": 16.8,
          "velocity": 0.952755905511811
        },
        {
          "duration": 0.10000000000000142,
          "durationTicks": 24,
          "midi": 57,
          "name": "A3",
          "ticks": 4080,
          "time": 17,
          "velocity": 0.952755905511811
        },
        {
          "duration": 0.10000000000000142,
          "durationTicks": 24,
          "midi": 50,
          "name": "D3",
          "ticks": 4080,
          "time": 17,
          "velocity": 0.952755905511811
        },
        {
          "duration": 0.27500000000000213,
          "durationTicks": 66,
          "midi": 50,
          "name": "D3",
          "ticks": 4128,
          "time": 17.2,
          "velocity": 0.952755905511811
        },
        {
          "duration": 0.27500000000000213,
          "durationTicks": 66,
          "midi": 57,
          "name": "A3",
          "ticks": 4128,
          "time": 17.2,
          "velocity": 0.952755905511811
        },
        {
          "duration": 0.1750000000000007,
          "durationTicks": 42,
          "midi": 52,
          "name": "E3",
          "ticks": 4224,
          "time": 17.6,
          "velocity": 0.952755905511811
        },
        {
          "duration": 0.1750000000000007,
          "durationTicks": 42,
          "midi": 59,
          "name": "B3",
          "ticks": 4224,
          "time": 17.6,
          "velocity": 0.952755905511811
        },
        {
          "duration": 0.1750000000000007,
          "durationTicks": 42,
          "midi": 52,
          "name": "E3",
          "ticks": 4272,
          "time": 17.8,
          "velocity": 0.952755905511811
        },
        {
          "duration": 0.1750000000000007,
          "durationTicks": 42,
          "midi": 59,
          "name": "B3",
          "ticks": 4272,
          "time": 17.8,
          "velocity": 0.952755905511811
        },
        {
          "duration": 0.5,
          "durationTicks": 120,
          "midi": 54,
          "name": "F#3",
          "ticks": 4368,
          "time": 18.2,
          "velocity": 0.952755905511811
        },
        {
          "duration": 0.5,
          "durationTicks": 120,
          "midi": 66,
          "name": "F#4",
          "ticks": 4368,
          "time": 18.2,
          "velocity": 0.952755905511811
        },
        {
          "duration": 0.1999999999999993,
          "durationTicks": 48,
          "midi": 56,
          "name": "G#3",
          "ticks": 4512,
          "time": 18.8,
          "velocity": 0.952755905511811
        },
        {
          "duration": 0.1999999999999993,
          "durationTicks": 48,
          "midi": 68,
          "name": "G#4",
          "ticks": 4512,
          "time": 18.8,
          "velocity": 0.952755905511811
        },
        {
          "duration": 0.29999999999999716,
          "durationTicks": 72,
          "midi": 57,
          "name": "A3",
          "ticks": 4608,
          "time": 19.200000000000003,
          "velocity": 0.9291338582677166
        },
        {
          "duration": 0.29999999999999716,
          "durationTicks": 72,
          "midi": 52,
          "name": "E3",
          "ticks": 4608,
          "time": 19.200000000000003,
          "velocity": 0.9291338582677166
        },
        {
          "duration": 0.10000000000000142,
          "durationTicks": 24,
          "midi": 52,
          "name": "E3",
          "ticks": 4680,
          "time": 19.5,
          "velocity": 0.9291338582677166
        },
        {
          "duration": 0.10000000000000142,
          "durationTicks": 24,
          "midi": 57,
          "name": "A3",
          "ticks": 4680,
          "time": 19.5,
          "velocity": 0.9291338582677166
        },
        {
          "duration": 0.02499999999999858,
          "durationTicks": 6,
          "midi": 57,
          "name": "A3",
          "ticks": 4788,
          "time": 19.950000000000003,
          "velocity": 0.9291338582677166
        },
        {
          "duration": 0.02499999999999858,
          "durationTicks": 6,
          "midi": 52,
          "name": "E3",
          "ticks": 4788,
          "time": 19.950000000000003,
          "velocity": 0.9291338582677166
        },
        {
          "duration": 0.02500000000000213,
          "durationTicks": 6,
          "midi": 52,
          "name": "E3",
          "ticks": 4812,
          "time": 20.05,
          "velocity": 0.9291338582677166
        },
        {
          "duration": 0.02500000000000213,
          "durationTicks": 6,
          "midi": 57,
          "name": "A3",
          "ticks": 4812,
          "time": 20.05,
          "velocity": 0.9291338582677166
        },
        {
          "duration": 0.25,
          "durationTicks": 60,
          "midi": 57,
          "name": "A3",
          "ticks": 4836,
          "time": 20.150000000000002,
          "velocity": 0.9291338582677166
        },
        {
          "duration": 0.25,
          "durationTicks": 60,
          "midi": 52,
          "name": "E3",
          "ticks": 4836,
          "time": 20.150000000000002,
          "velocity": 0.9291338582677166
        },
        {
          "duration": 0.02499999999999858,
          "durationTicks": 6,
          "midi": 57,
          "name": "A3",
          "ticks": 4944,
          "time": 20.6,
          "velocity": 0.9291338582677166
        },
        {
          "duration": 0.02499999999999858,
          "durationTicks": 6,
          "midi": 52,
          "name": "E3",
          "ticks": 4944,
          "time": 20.6,
          "velocity": 0.9291338582677166
        },
        {
          "duration": 0.02499999999999858,
          "durationTicks": 6,
          "midi": 52,
          "name": "E3",
          "ticks": 4968,
          "time": 20.700000000000003,
          "velocity": 0.9291338582677166
        },
        {
          "duration": 0.02499999999999858,
          "durationTicks": 6,
          "midi": 57,
          "name": "A3",
          "ticks": 4968,
          "time": 20.700000000000003,
          "velocity": 0.9291338582677166
        },
        {
          "duration": 0.375,
          "durationTicks": 90,
          "midi": 56,
          "name": "G#3",
          "ticks": 4992,
          "time": 20.8,
          "velocity": 0.9291338582677166
        },
        {
          "duration": 0.375,
          "durationTicks": 90,
          "midi": 52,
          "name": "E3",
          "ticks": 4992,
          "time": 20.8,
          "velocity": 0.9291338582677166
        },
        {
          "duration": 0.3999999999999986,
          "durationTicks": 96,
          "midi": 52,
          "name": "E3",
          "ticks": 5136,
          "time": 21.400000000000002,
          "velocity": 0.9291338582677166
        },
        {
          "duration": 0.3999999999999986,
          "durationTicks": 96,
          "midi": 56,
          "name": "G#3",
          "ticks": 5136,
          "time": 21.400000000000002,
          "velocity": 0.9291338582677166
        },
        {
          "duration": 0.1999999999999993,
          "durationTicks": 48,
          "midi": 52,
          "name": "E3",
          "ticks": 5232,
          "time": 21.8,
          "velocity": 0.9291338582677166
        },
        {
          "duration": 0.1999999999999993,
          "durationTicks": 48,
          "midi": 56,
          "name": "G#3",
          "ticks": 5232,
          "time": 21.8,
          "velocity": 0.9291338582677166
        },
        {
          "duration": 0.20000000000000284,
          "durationTicks": 48,
          "midi": 52,
          "name": "E3",
          "ticks": 5280,
          "time": 22,
          "velocity": 0.9291338582677166
        },
        {
          "duration": 0.20000000000000284,
          "durationTicks": 48,
          "midi": 56,
          "name": "G#3",
          "ticks": 5280,
          "time": 22,
          "velocity": 0.9291338582677166
        },
        {
          "duration": 0.3000000000000007,
          "durationTicks": 72,
          "midi": 57,
          "name": "A3",
          "ticks": 5376,
          "time": 22.400000000000002,
          "velocity": 0.9291338582677166
        },
        {
          "duration": 0.3000000000000007,
          "durationTicks": 72,
          "midi": 52,
          "name": "E3",
          "ticks": 5376,
          "time": 22.400000000000002,
          "velocity": 0.9291338582677166
        },
        {
          "duration": 0.09999999999999787,
          "durationTicks": 24,
          "midi": 52,
          "name": "E3",
          "ticks": 5448,
          "time": 22.700000000000003,
          "velocity": 0.9291338582677166
        },
        {
          "duration": 0.09999999999999787,
          "durationTicks": 24,
          "midi": 57,
          "name": "A3",
          "ticks": 5448,
          "time": 22.700000000000003,
          "velocity": 0.9291338582677166
        },
        {
          "duration": 0.02499999999999858,
          "durationTicks": 6,
          "midi": 57,
          "name": "A3",
          "ticks": 5556,
          "time": 23.150000000000002,
          "velocity": 0.9291338582677166
        },
        {
          "duration": 0.02499999999999858,
          "durationTicks": 6,
          "midi": 52,
          "name": "E3",
          "ticks": 5556,
          "time": 23.150000000000002,
          "velocity": 0.9291338582677166
        },
        {
          "duration": 0.02500000000000213,
          "durationTicks": 6,
          "midi": 52,
          "name": "E3",
          "ticks": 5580,
          "time": 23.25,
          "velocity": 0.9291338582677166
        },
        {
          "duration": 0.02500000000000213,
          "durationTicks": 6,
          "midi": 57,
          "name": "A3",
          "ticks": 5580,
          "time": 23.25,
          "velocity": 0.9291338582677166
        },
        {
          "duration": 0.25,
          "durationTicks": 60,
          "midi": 57,
          "name": "A3",
          "ticks": 5604,
          "time": 23.35,
          "velocity": 0.9291338582677166
        },
        {
          "duration": 0.25,
          "durationTicks": 60,
          "midi": 52,
          "name": "E3",
          "ticks": 5604,
          "time": 23.35,
          "velocity": 0.9291338582677166
        },
        {
          "duration": 0.02500000000000213,
          "durationTicks": 6,
          "midi": 57,
          "name": "A3",
          "ticks": 5712,
          "time": 23.8,
          "velocity": 0.9291338582677166
        },
        {
          "duration": 0.02500000000000213,
          "durationTicks": 6,
          "midi": 52,
          "name": "E3",
          "ticks": 5712,
          "time": 23.8,
          "velocity": 0.9291338582677166
        },
        {
          "duration": 0.02499999999999858,
          "durationTicks": 6,
          "midi": 52,
          "name": "E3",
          "ticks": 5736,
          "time": 23.900000000000002,
          "velocity": 0.9291338582677166
        },
        {
          "duration": 0.02499999999999858,
          "durationTicks": 6,
          "midi": 57,
          "name": "A3",
          "ticks": 5736,
          "time": 23.900000000000002,
          "velocity": 0.9291338582677166
        },
        {
          "duration": 0.375,
          "durationTicks": 90,
          "midi": 56,
          "name": "G#3",
          "ticks": 5760,
          "time": 24,
          "velocity": 0.9291338582677166
        },
        {
          "duration": 0.375,
          "durationTicks": 90,
          "midi": 52,
          "name": "E3",
          "ticks": 5760,
          "time": 24,
          "velocity": 0.9291338582677166
        },
        {
          "duration": 0.3999999999999986,
          "durationTicks": 96,
          "midi": 56,
          "name": "G#3",
          "ticks": 5904,
          "time": 24.6,
          "velocity": 0.9291338582677166
        },
        {
          "duration": 0.3999999999999986,
          "durationTicks": 96,
          "midi": 52,
          "name": "E3",
          "ticks": 5904,
          "time": 24.6,
          "velocity": 0.9291338582677166
        },
        {
          "duration": 0.20000000000000284,
          "durationTicks": 48,
          "midi": 52,
          "name": "E3",
          "ticks": 6000,
          "time": 25,
          "velocity": 0.9291338582677166
        },
        {
          "duration": 0.20000000000000284,
          "durationTicks": 48,
          "midi": 56,
          "name": "G#3",
          "ticks": 6000,
          "time": 25,
          "velocity": 0.9291338582677166
        },
        {
          "duration": 0.1999999999999993,
          "durationTicks": 48,
          "midi": 52,
          "name": "E3",
          "ticks": 6048,
          "time": 25.200000000000003,
          "velocity": 0.9291338582677166
        },
        {
          "duration": 0.1999999999999993,
          "durationTicks": 48,
          "midi": 56,
          "name": "G#3",
          "ticks": 6048,
          "time": 25.200000000000003,
          "velocity": 0.9291338582677166
        },
        {
          "duration": 0.02500000000000213,
          "durationTicks": 6,
          "midi": 56,
          "name": "G#3",
          "ticks": 6120,
          "time": 25.5,
          "velocity": 0.9133858267716536
        },
        {
          "duration": 0.02500000000000213,
          "durationTicks": 6,
          "midi": 52,
          "name": "E3",
          "ticks": 6120,
          "time": 25.5,
          "velocity": 0.9133858267716536
        },
        {
          "duration": 0.1999999999999993,
          "durationTicks": 48,
          "midi": 50,
          "name": "D3",
          "ticks": 6144,
          "time": 25.6,
          "velocity": 0.952755905511811
        },
        {
          "duration": 0.1999999999999993,
          "durationTicks": 48,
          "midi": 57,
          "name": "A3",
          "ticks": 6144,
          "time": 25.6,
          "velocity": 0.952755905511811
        },
        {
          "duration": 0.1999999999999993,
          "durationTicks": 48,
          "midi": 50,
          "name": "D3",
          "ticks": 6192,
          "time": 25.8,
          "velocity": 0.952755905511811
        },
        {
          "duration": 0.1999999999999993,
          "durationTicks": 48,
          "midi": 57,
          "name": "A3",
          "ticks": 6192,
          "time": 25.8,
          "velocity": 0.952755905511811
        },
        {
          "duration": 0.02499999999999858,
          "durationTicks": 6,
          "midi": 59,
          "name": "B3",
          "ticks": 6264,
          "time": 26.1,
          "velocity": 0.952755905511811
        },
        {
          "duration": 0.02499999999999858,
          "durationTicks": 6,
          "midi": 50,
          "name": "D3",
          "ticks": 6264,
          "time": 26.1,
          "velocity": 0.952755905511811
        },
        {
          "duration": 0.02499999999999858,
          "durationTicks": 6,
          "midi": 50,
          "name": "D3",
          "ticks": 6288,
          "time": 26.200000000000003,
          "velocity": 0.952755905511811
        },
        {
          "duration": 0.02499999999999858,
          "durationTicks": 6,
          "midi": 59,
          "name": "B3",
          "ticks": 6288,
          "time": 26.200000000000003,
          "velocity": 0.952755905511811
        },
        {
          "duration": 0.02500000000000213,
          "durationTicks": 6,
          "midi": 50,
          "name": "D3",
          "ticks": 6312,
          "time": 26.3,
          "velocity": 0.952755905511811
        },
        {
          "duration": 0.02500000000000213,
          "durationTicks": 6,
          "midi": 59,
          "name": "B3",
          "ticks": 6312,
          "time": 26.3,
          "velocity": 0.952755905511811
        },
        {
          "duration": 0.1999999999999993,
          "durationTicks": 48,
          "midi": 52,
          "name": "E3",
          "ticks": 6336,
          "time": 26.400000000000002,
          "velocity": 0.952755905511811
        },
        {
          "duration": 0.1999999999999993,
          "durationTicks": 48,
          "midi": 59,
          "name": "B3",
          "ticks": 6336,
          "time": 26.400000000000002,
          "velocity": 0.952755905511811
        },
        {
          "duration": 0.1999999999999993,
          "durationTicks": 48,
          "midi": 52,
          "name": "E3",
          "ticks": 6384,
          "time": 26.6,
          "velocity": 0.952755905511811
        },
        {
          "duration": 0.1999999999999993,
          "durationTicks": 48,
          "midi": 59,
          "name": "B3",
          "ticks": 6384,
          "time": 26.6,
          "velocity": 0.952755905511811
        },
        {
          "duration": 0.02499999999999858,
          "durationTicks": 6,
          "midi": 59,
          "name": "B3",
          "ticks": 6456,
          "time": 26.900000000000002,
          "velocity": 0.952755905511811
        },
        {
          "duration": 0.02499999999999858,
          "durationTicks": 6,
          "midi": 50,
          "name": "D3",
          "ticks": 6456,
          "time": 26.900000000000002,
          "velocity": 0.952755905511811
        },
        {
          "duration": 0.02500000000000213,
          "durationTicks": 6,
          "midi": 50,
          "name": "D3",
          "ticks": 6480,
          "time": 27,
          "velocity": 0.952755905511811
        },
        {
          "duration": 0.02500000000000213,
          "durationTicks": 6,
          "midi": 59,
          "name": "B3",
          "ticks": 6480,
          "time": 27,
          "velocity": 0.952755905511811
        },
        {
          "duration": 0.02499999999999858,
          "durationTicks": 6,
          "midi": 59,
          "name": "B3",
          "ticks": 6504,
          "time": 27.1,
          "velocity": 0.952755905511811
        },
        {
          "duration": 0.02499999999999858,
          "durationTicks": 6,
          "midi": 50,
          "name": "D3",
          "ticks": 6504,
          "time": 27.1,
          "velocity": 0.952755905511811
        },
        {
          "duration": 0.1999999999999993,
          "durationTicks": 48,
          "midi": 57,
          "name": "A3",
          "ticks": 6528,
          "time": 27.200000000000003,
          "velocity": 0.952755905511811
        },
        {
          "duration": 0.1999999999999993,
          "durationTicks": 48,
          "midi": 52,
          "name": "E3",
          "ticks": 6528,
          "time": 27.200000000000003,
          "velocity": 0.952755905511811
        },
        {
          "duration": 0.1999999999999993,
          "durationTicks": 48,
          "midi": 52,
          "name": "E3",
          "ticks": 6576,
          "time": 27.400000000000002,
          "velocity": 0.952755905511811
        },
        {
          "duration": 0.1999999999999993,
          "durationTicks": 48,
          "midi": 57,
          "name": "A3",
          "ticks": 6576,
          "time": 27.400000000000002,
          "velocity": 0.952755905511811
        },
        {
          "duration": 0.02500000000000213,
          "durationTicks": 6,
          "midi": 52,
          "name": "E3",
          "ticks": 6642,
          "time": 27.675,
          "velocity": 0.952755905511811
        },
        {
          "duration": 0.02499999999999858,
          "durationTicks": 6,
          "midi": 56,
          "name": "G#3",
          "ticks": 6648,
          "time": 27.700000000000003,
          "velocity": 0.952755905511811
        },
        {
          "duration": 0.40000000000000213,
          "durationTicks": 96,
          "midi": 49,
          "name": "C#3",
          "ticks": 6672,
          "time": 27.8,
          "velocity": 0.952755905511811
        },
        {
          "duration": 0.40000000000000213,
          "durationTicks": 96,
          "midi": 54,
          "name": "F#3",
          "ticks": 6672,
          "time": 27.8,
          "velocity": 0.952755905511811
        },
        {
          "duration": 0.1999999999999993,
          "durationTicks": 48,
          "midi": 54,
          "name": "F#3",
          "ticks": 6768,
          "time": 28.200000000000003,
          "velocity": 0.952755905511811
        },
        {
          "duration": 0.1999999999999993,
          "durationTicks": 48,
          "midi": 49,
          "name": "C#3",
          "ticks": 6768,
          "time": 28.200000000000003,
          "velocity": 0.952755905511811
        },
        {
          "duration": 0.1999999999999993,
          "durationTicks": 48,
          "midi": 54,
          "name": "F#3",
          "ticks": 6816,
          "time": 28.400000000000002,
          "velocity": 0.952755905511811
        },
        {
          "duration": 0.1999999999999993,
          "durationTicks": 48,
          "midi": 49,
          "name": "C#3",
          "ticks": 6816,
          "time": 28.400000000000002,
          "velocity": 0.952755905511811
        },
        {
          "duration": 0.18333333333333357,
          "durationTicks": 44,
          "midi": 57,
          "name": "A3",
          "ticks": 6912,
          "time": 28.8,
          "velocity": 0.968503937007874
        },
        {
          "duration": 0.18333333333333357,
          "durationTicks": 44,
          "midi": 50,
          "name": "D3",
          "ticks": 6912,
          "time": 28.8,
          "velocity": 0.968503937007874
        },
        {
          "duration": 0.18333333333333357,
          "durationTicks": 44,
          "midi": 57,
          "name": "A3",
          "ticks": 6960,
          "time": 29,
          "velocity": 0.968503937007874
        },
        {
          "duration": 0.18333333333333357,
          "durationTicks": 44,
          "midi": 50,
          "name": "D3",
          "ticks": 6960,
          "time": 29,
          "velocity": 0.968503937007874
        },
        {
          "duration": 0.0833333333333286,
          "durationTicks": 20,
          "midi": 57,
          "name": "A3",
          "ticks": 7008,
          "time": 29.200000000000003,
          "velocity": 0.968503937007874
        },
        {
          "duration": 0.0833333333333286,
          "durationTicks": 20,
          "midi": 50,
          "name": "D3",
          "ticks": 7008,
          "time": 29.200000000000003,
          "velocity": 0.968503937007874
        },
        {
          "duration": 0.08333333333333215,
          "durationTicks": 20,
          "midi": 57,
          "name": "A3",
          "ticks": 7056,
          "time": 29.400000000000002,
          "velocity": 0.968503937007874
        },
        {
          "duration": 0.08333333333333215,
          "durationTicks": 20,
          "midi": 50,
          "name": "D3",
          "ticks": 7056,
          "time": 29.400000000000002,
          "velocity": 0.968503937007874
        },
        {
          "duration": 0.18333333333333002,
          "durationTicks": 44,
          "midi": 50,
          "name": "D3",
          "ticks": 7104,
          "time": 29.6,
          "velocity": 0.968503937007874
        },
        {
          "duration": 0.18333333333333002,
          "durationTicks": 44,
          "midi": 57,
          "name": "A3",
          "ticks": 7104,
          "time": 29.6,
          "velocity": 0.968503937007874
        },
        {
          "duration": 0.18333333333333357,
          "durationTicks": 44,
          "midi": 50,
          "name": "D3",
          "ticks": 7152,
          "time": 29.8,
          "velocity": 0.968503937007874
        },
        {
          "duration": 0.18333333333333357,
          "durationTicks": 44,
          "midi": 57,
          "name": "A3",
          "ticks": 7152,
          "time": 29.8,
          "velocity": 0.968503937007874
        },
        {
          "duration": 0.08333333333333215,
          "durationTicks": 20,
          "midi": 50,
          "name": "D3",
          "ticks": 7200,
          "time": 30,
          "velocity": 0.968503937007874
        },
        {
          "duration": 0.08333333333333215,
          "durationTicks": 20,
          "midi": 57,
          "name": "A3",
          "ticks": 7200,
          "time": 30,
          "velocity": 0.968503937007874
        },
        {
          "duration": 0.5999999999999979,
          "durationTicks": 144,
          "midi": 52,
          "name": "E3",
          "ticks": 7248,
          "time": 30.200000000000003,
          "velocity": 0.9763779527559056
        },
        {
          "duration": 0.5999999999999979,
          "durationTicks": 144,
          "midi": 45,
          "name": "A2",
          "ticks": 7248,
          "time": 30.200000000000003,
          "velocity": 0.968503937007874
        },
        {
          "duration": 0.10000000000000142,
          "durationTicks": 24,
          "midi": 52,
          "name": "E3",
          "ticks": 7392,
          "time": 30.8,
          "velocity": 0.9763779527559056
        },
        {
          "duration": 0.10000000000000142,
          "durationTicks": 24,
          "midi": 45,
          "name": "A2",
          "ticks": 7392,
          "time": 30.8,
          "velocity": 0.889763779527559
        },
        {
          "duration": 0.10000000000000142,
          "durationTicks": 24,
          "midi": 52,
          "name": "E3",
          "ticks": 7440,
          "time": 31,
          "velocity": 0.9763779527559056
        },
        {
          "duration": 0.10000000000000142,
          "durationTicks": 24,
          "midi": 45,
          "name": "A2",
          "ticks": 7440,
          "time": 31,
          "velocity": 0.889763779527559
        },
        {
          "duration": 0.09999999999999787,
          "durationTicks": 24,
          "midi": 52,
          "name": "E3",
          "ticks": 7488,
          "time": 31.200000000000003,
          "velocity": 0.9763779527559056
        },
        {
          "duration": 0.09999999999999787,
          "durationTicks": 24,
          "midi": 45,
          "name": "A2",
          "ticks": 7488,
          "time": 31.200000000000003,
          "velocity": 0.889763779527559
        },
        {
          "duration": 0.09999999999999787,
          "durationTicks": 24,
          "midi": 52,
          "name": "E3",
          "ticks": 7536,
          "time": 31.400000000000002,
          "velocity": 0.9763779527559056
        },
        {
          "duration": 0.09999999999999787,
          "durationTicks": 24,
          "midi": 45,
          "name": "A2",
          "ticks": 7536,
          "time": 31.400000000000002,
          "velocity": 0.889763779527559
        },
        {
          "duration": 0.10000000000000142,
          "durationTicks": 24,
          "midi": 52,
          "name": "E3",
          "ticks": 7584,
          "time": 31.6,
          "velocity": 0.9763779527559056
        },
        {
          "duration": 0.10000000000000142,
          "durationTicks": 24,
          "midi": 45,
          "name": "A2",
          "ticks": 7584,
          "time": 31.6,
          "velocity": 0.889763779527559
        },
        {
          "duration": 0.10000000000000142,
          "durationTicks": 24,
          "midi": 52,
          "name": "E3",
          "ticks": 7632,
          "time": 31.8,
          "velocity": 0.9763779527559056
        },
        {
          "duration": 0.10000000000000142,
          "durationTicks": 24,
          "midi": 45,
          "name": "A2",
          "ticks": 7632,
          "time": 31.8,
          "velocity": 0.889763779527559
        },
        {
          "duration": 0.18333333333333002,
          "durationTicks": 44,
          "midi": 54,
          "name": "F#3",
          "ticks": 7680,
          "time": 32,
          "velocity": 0.9763779527559056
        },
        {
          "duration": 0.18333333333333002,
          "durationTicks": 44,
          "midi": 49,
          "name": "C#3",
          "ticks": 7680,
          "time": 32,
          "velocity": 0.889763779527559
        },
        {
          "duration": 0.18333333333333002,
          "durationTicks": 44,
          "midi": 49,
          "name": "C#3",
          "ticks": 7728,
          "time": 32.2,
          "velocity": 0.889763779527559
        },
        {
          "duration": 0.18333333333333002,
          "durationTicks": 44,
          "midi": 54,
          "name": "F#3",
          "ticks": 7728,
          "time": 32.2,
          "velocity": 0.9763779527559056
        },
        {
          "duration": 0.18333333333333712,
          "durationTicks": 44,
          "midi": 54,
          "name": "F#3",
          "ticks": 7776,
          "time": 32.4,
          "velocity": 0.9763779527559056
        },
        {
          "duration": 0.18333333333333712,
          "durationTicks": 44,
          "midi": 49,
          "name": "C#3",
          "ticks": 7776,
          "time": 32.4,
          "velocity": 0.889763779527559
        },
        {
          "duration": 0.0833333333333286,
          "durationTicks": 20,
          "midi": 54,
          "name": "F#3",
          "ticks": 7824,
          "time": 32.6,
          "velocity": 0.9763779527559056
        },
        {
          "duration": 0.0833333333333286,
          "durationTicks": 20,
          "midi": 49,
          "name": "C#3",
          "ticks": 7824,
          "time": 32.6,
          "velocity": 0.889763779527559
        },
        {
          "duration": 0.0833333333333286,
          "durationTicks": 20,
          "midi": 54,
          "name": "F#3",
          "ticks": 7872,
          "time": 32.800000000000004,
          "velocity": 0.9763779527559056
        },
        {
          "duration": 0.0833333333333286,
          "durationTicks": 20,
          "midi": 49,
          "name": "C#3",
          "ticks": 7872,
          "time": 32.800000000000004,
          "velocity": 0.889763779527559
        },
        {
          "duration": 0.0833333333333357,
          "durationTicks": 20,
          "midi": 49,
          "name": "C#3",
          "ticks": 7920,
          "time": 33,
          "velocity": 0.889763779527559
        },
        {
          "duration": 0.0833333333333357,
          "durationTicks": 20,
          "midi": 54,
          "name": "F#3",
          "ticks": 7920,
          "time": 33,
          "velocity": 0.9763779527559056
        },
        {
          "duration": 0.0833333333333286,
          "durationTicks": 20,
          "midi": 54,
          "name": "F#3",
          "ticks": 7968,
          "time": 33.2,
          "velocity": 0.9763779527559056
        },
        {
          "duration": 0.0833333333333286,
          "durationTicks": 20,
          "midi": 49,
          "name": "C#3",
          "ticks": 7968,
          "time": 33.2,
          "velocity": 0.889763779527559
        },
        {
          "duration": 0.18333333333333712,
          "durationTicks": 44,
          "midi": 49,
          "name": "C#3",
          "ticks": 8016,
          "time": 33.4,
          "velocity": 0.889763779527559
        },
        {
          "duration": 0.18333333333333712,
          "durationTicks": 44,
          "midi": 54,
          "name": "F#3",
          "ticks": 8016,
          "time": 33.4,
          "velocity": 0.9763779527559056
        },
        {
          "duration": 0.0833333333333286,
          "durationTicks": 20,
          "midi": 54,
          "name": "F#3",
          "ticks": 8064,
          "time": 33.6,
          "velocity": 0.9763779527559056
        },
        {
          "duration": 0.0833333333333286,
          "durationTicks": 20,
          "midi": 49,
          "name": "C#3",
          "ticks": 8064,
          "time": 33.6,
          "velocity": 0.889763779527559
        },
        {
          "duration": 0.0833333333333286,
          "durationTicks": 20,
          "midi": 49,
          "name": "C#3",
          "ticks": 8112,
          "time": 33.800000000000004,
          "velocity": 0.889763779527559
        },
        {
          "duration": 0.0833333333333286,
          "durationTicks": 20,
          "midi": 54,
          "name": "F#3",
          "ticks": 8112,
          "time": 33.800000000000004,
          "velocity": 0.9763779527559056
        },
        {
          "duration": 0.0833333333333357,
          "durationTicks": 20,
          "midi": 49,
          "name": "C#3",
          "ticks": 8160,
          "time": 34,
          "velocity": 0.889763779527559
        },
        {
          "duration": 0.0833333333333357,
          "durationTicks": 20,
          "midi": 54,
          "name": "F#3",
          "ticks": 8160,
          "time": 34,
          "velocity": 0.9763779527559056
        },
        {
          "duration": 0.18333333333333002,
          "durationTicks": 44,
          "midi": 54,
          "name": "F#3",
          "ticks": 8208,
          "time": 34.2,
          "velocity": 0.9763779527559056
        },
        {
          "duration": 0.18333333333333002,
          "durationTicks": 44,
          "midi": 49,
          "name": "C#3",
          "ticks": 8208,
          "time": 34.2,
          "velocity": 0.889763779527559
        },
        {
          "duration": 0.0833333333333357,
          "durationTicks": 20,
          "midi": 49,
          "name": "C#3",
          "ticks": 8256,
          "time": 34.4,
          "velocity": 0.889763779527559
        },
        {
          "duration": 0.0833333333333357,
          "durationTicks": 20,
          "midi": 54,
          "name": "F#3",
          "ticks": 8256,
          "time": 34.4,
          "velocity": 0.9763779527559056
        },
        {
          "duration": 0.18333333333333002,
          "durationTicks": 44,
          "midi": 54,
          "name": "F#3",
          "ticks": 8304,
          "time": 34.6,
          "velocity": 0.9763779527559056
        },
        {
          "duration": 0.18333333333333002,
          "durationTicks": 44,
          "midi": 49,
          "name": "C#3",
          "ticks": 8304,
          "time": 34.6,
          "velocity": 0.889763779527559
        },
        {
          "duration": 0.18333333333333002,
          "durationTicks": 44,
          "midi": 49,
          "name": "C#3",
          "ticks": 8352,
          "time": 34.800000000000004,
          "velocity": 0.889763779527559
        },
        {
          "duration": 0.18333333333333002,
          "durationTicks": 44,
          "midi": 54,
          "name": "F#3",
          "ticks": 8352,
          "time": 34.800000000000004,
          "velocity": 0.9763779527559056
        },
        {
          "duration": 0.18333333333333002,
          "durationTicks": 44,
          "midi": 49,
          "name": "C#3",
          "ticks": 8400,
          "time": 35,
          "velocity": 0.889763779527559
        },
        {
          "duration": 0.18333333333333002,
          "durationTicks": 44,
          "midi": 54,
          "name": "F#3",
          "ticks": 8400,
          "time": 35,
          "velocity": 0.9763779527559056
        },
        {
          "duration": 0.18333333333333002,
          "durationTicks": 44,
          "midi": 49,
          "name": "C#3",
          "ticks": 8448,
          "time": 35.2,
          "velocity": 0.889763779527559
        },
        {
          "duration": 0.18333333333333002,
          "durationTicks": 44,
          "midi": 53,
          "name": "F3",
          "ticks": 8448,
          "time": 35.2,
          "velocity": 0.9763779527559056
        },
        {
          "duration": 0.18333333333333712,
          "durationTicks": 44,
          "midi": 49,
          "name": "C#3",
          "ticks": 8496,
          "time": 35.4,
          "velocity": 0.889763779527559
        },
        {
          "duration": 0.18333333333333712,
          "durationTicks": 44,
          "midi": 53,
          "name": "F3",
          "ticks": 8496,
          "time": 35.4,
          "velocity": 0.9763779527559056
        },
        {
          "duration": 0.18333333333333002,
          "durationTicks": 44,
          "midi": 49,
          "name": "C#3",
          "ticks": 8544,
          "time": 35.6,
          "velocity": 0.889763779527559
        },
        {
          "duration": 0.18333333333333002,
          "durationTicks": 44,
          "midi": 53,
          "name": "F3",
          "ticks": 8544,
          "time": 35.6,
          "velocity": 0.9763779527559056
        },
        {
          "duration": 0.0833333333333286,
          "durationTicks": 20,
          "midi": 53,
          "name": "F3",
          "ticks": 8592,
          "time": 35.800000000000004,
          "velocity": 0.9763779527559056
        },
        {
          "duration": 0.0833333333333286,
          "durationTicks": 20,
          "midi": 49,
          "name": "C#3",
          "ticks": 8592,
          "time": 35.800000000000004,
          "velocity": 0.889763779527559
        },
        {
          "duration": 0.0833333333333357,
          "durationTicks": 20,
          "midi": 53,
          "name": "F3",
          "ticks": 8640,
          "time": 36,
          "velocity": 0.9763779527559056
        },
        {
          "duration": 0.0833333333333357,
          "durationTicks": 20,
          "midi": 49,
          "name": "C#3",
          "ticks": 8640,
          "time": 36,
          "velocity": 0.889763779527559
        },
        {
          "duration": 0.0833333333333286,
          "durationTicks": 20,
          "midi": 53,
          "name": "F3",
          "ticks": 8688,
          "time": 36.2,
          "velocity": 0.9763779527559056
        },
        {
          "duration": 0.0833333333333286,
          "durationTicks": 20,
          "midi": 49,
          "name": "C#3",
          "ticks": 8688,
          "time": 36.2,
          "velocity": 0.889763779527559
        },
        {
          "duration": 0.0833333333333357,
          "durationTicks": 20,
          "midi": 53,
          "name": "F3",
          "ticks": 8736,
          "time": 36.4,
          "velocity": 0.9763779527559056
        },
        {
          "duration": 0.0833333333333357,
          "durationTicks": 20,
          "midi": 49,
          "name": "C#3",
          "ticks": 8736,
          "time": 36.4,
          "velocity": 0.889763779527559
        },
        {
          "duration": 0.18333333333333002,
          "durationTicks": 44,
          "midi": 53,
          "name": "F3",
          "ticks": 8784,
          "time": 36.6,
          "velocity": 0.9763779527559056
        },
        {
          "duration": 0.18333333333333002,
          "durationTicks": 44,
          "midi": 49,
          "name": "C#3",
          "ticks": 8784,
          "time": 36.6,
          "velocity": 0.889763779527559
        },
        {
          "duration": 0.0833333333333286,
          "durationTicks": 20,
          "midi": 49,
          "name": "C#3",
          "ticks": 8832,
          "time": 36.800000000000004,
          "velocity": 0.889763779527559
        },
        {
          "duration": 0.0833333333333286,
          "durationTicks": 20,
          "midi": 53,
          "name": "F3",
          "ticks": 8832,
          "time": 36.800000000000004,
          "velocity": 0.9763779527559056
        },
        {
          "duration": 0.0833333333333357,
          "durationTicks": 20,
          "midi": 53,
          "name": "F3",
          "ticks": 8880,
          "time": 37,
          "velocity": 0.9763779527559056
        },
        {
          "duration": 0.0833333333333357,
          "durationTicks": 20,
          "midi": 49,
          "name": "C#3",
          "ticks": 8880,
          "time": 37,
          "velocity": 0.7874015748031497
        },
        {
          "duration": 0.0833333333333286,
          "durationTicks": 20,
          "midi": 49,
          "name": "C#3",
          "ticks": 8928,
          "time": 37.2,
          "velocity": 0.889763779527559
        },
        {
          "duration": 0.0833333333333286,
          "durationTicks": 20,
          "midi": 53,
          "name": "F3",
          "ticks": 8928,
          "time": 37.2,
          "velocity": 0.9763779527559056
        },
        {
          "duration": 0.18333333333333712,
          "durationTicks": 44,
          "midi": 53,
          "name": "F3",
          "ticks": 8976,
          "time": 37.4,
          "velocity": 0.9763779527559056
        },
        {
          "duration": 0.18333333333333712,
          "durationTicks": 44,
          "midi": 49,
          "name": "C#3",
          "ticks": 8976,
          "time": 37.4,
          "velocity": 0.889763779527559
        },
        {
          "duration": 0.0833333333333286,
          "durationTicks": 20,
          "midi": 53,
          "name": "F3",
          "ticks": 9024,
          "time": 37.6,
          "velocity": 0.9763779527559056
        },
        {
          "duration": 0.0833333333333286,
          "durationTicks": 20,
          "midi": 49,
          "name": "C#3",
          "ticks": 9024,
          "time": 37.6,
          "velocity": 0.889763779527559
        },
        {
          "duration": 0.18333333333333002,
          "durationTicks": 44,
          "midi": 53,
          "name": "F3",
          "ticks": 9072,
          "time": 37.800000000000004,
          "velocity": 0.9763779527559056
        },
        {
          "duration": 0.18333333333333002,
          "durationTicks": 44,
          "midi": 49,
          "name": "C#3",
          "ticks": 9072,
          "time": 37.800000000000004,
          "velocity": 0.889763779527559
        },
        {
          "duration": 0.18333333333333002,
          "durationTicks": 44,
          "midi": 53,
          "name": "F3",
          "ticks": 9120,
          "time": 38,
          "velocity": 0.9763779527559056
        },
        {
          "duration": 0.18333333333333002,
          "durationTicks": 44,
          "midi": 49,
          "name": "C#3",
          "ticks": 9120,
          "time": 38,
          "velocity": 0.889763779527559
        },
        {
          "duration": 0.18333333333333002,
          "durationTicks": 44,
          "midi": 49,
          "name": "C#3",
          "ticks": 9168,
          "time": 38.2,
          "velocity": 0.889763779527559
        },
        {
          "duration": 0.18333333333333002,
          "durationTicks": 44,
          "midi": 53,
          "name": "F3",
          "ticks": 9168,
          "time": 38.2,
          "velocity": 0.9763779527559056
        },
        {
          "duration": 0.18333333333333002,
          "durationTicks": 44,
          "midi": 51,
          "name": "D#3",
          "ticks": 9216,
          "time": 38.400000000000006,
          "velocity": 0.889763779527559
        },
        {
          "duration": 0.18333333333333002,
          "durationTicks": 44,
          "midi": 58,
          "name": "A#3",
          "ticks": 9216,
          "time": 38.400000000000006,
          "velocity": 0.9763779527559056
        },
        {
          "duration": 0.18333333333333002,
          "durationTicks": 44,
          "midi": 51,
          "name": "D#3",
          "ticks": 9264,
          "time": 38.6,
          "velocity": 0.889763779527559
        },
        {
          "duration": 0.18333333333333002,
          "durationTicks": 44,
          "midi": 58,
          "name": "A#3",
          "ticks": 9264,
          "time": 38.6,
          "velocity": 0.9763779527559056
        },
        {
          "duration": 0.18333333333333002,
          "durationTicks": 44,
          "midi": 51,
          "name": "D#3",
          "ticks": 9312,
          "time": 38.800000000000004,
          "velocity": 0.889763779527559
        },
        {
          "duration": 0.18333333333333002,
          "durationTicks": 44,
          "midi": 58,
          "name": "A#3",
          "ticks": 9312,
          "time": 38.800000000000004,
          "velocity": 0.9763779527559056
        },
        {
          "duration": 0.0833333333333357,
          "durationTicks": 20,
          "midi": 51,
          "name": "D#3",
          "ticks": 9360,
          "time": 39,
          "velocity": 0.889763779527559
        },
        {
          "duration": 0.0833333333333357,
          "durationTicks": 20,
          "midi": 58,
          "name": "A#3",
          "ticks": 9360,
          "time": 39,
          "velocity": 0.9763779527559056
        },
        {
          "duration": 0.0833333333333286,
          "durationTicks": 20,
          "midi": 51,
          "name": "D#3",
          "ticks": 9408,
          "time": 39.2,
          "velocity": 0.889763779527559
        },
        {
          "duration": 0.0833333333333286,
          "durationTicks": 20,
          "midi": 58,
          "name": "A#3",
          "ticks": 9408,
          "time": 39.2,
          "velocity": 0.9763779527559056
        },
        {
          "duration": 0.0833333333333286,
          "durationTicks": 20,
          "midi": 51,
          "name": "D#3",
          "ticks": 9456,
          "time": 39.400000000000006,
          "velocity": 0.889763779527559
        },
        {
          "duration": 0.0833333333333286,
          "durationTicks": 20,
          "midi": 58,
          "name": "A#3",
          "ticks": 9456,
          "time": 39.400000000000006,
          "velocity": 0.9763779527559056
        },
        {
          "duration": 0.0833333333333357,
          "durationTicks": 20,
          "midi": 51,
          "name": "D#3",
          "ticks": 9504,
          "time": 39.6,
          "velocity": 0.889763779527559
        },
        {
          "duration": 0.0833333333333357,
          "durationTicks": 20,
          "midi": 58,
          "name": "A#3",
          "ticks": 9504,
          "time": 39.6,
          "velocity": 0.9763779527559056
        },
        {
          "duration": 0.18333333333333002,
          "durationTicks": 44,
          "midi": 51,
          "name": "D#3",
          "ticks": 9552,
          "time": 39.800000000000004,
          "velocity": 0.889763779527559
        },
        {
          "duration": 0.18333333333333002,
          "durationTicks": 44,
          "midi": 58,
          "name": "A#3",
          "ticks": 9552,
          "time": 39.800000000000004,
          "velocity": 0.9763779527559056
        },
        {
          "duration": 0.0833333333333357,
          "durationTicks": 20,
          "midi": 58,
          "name": "A#3",
          "ticks": 9600,
          "time": 40,
          "velocity": 0.9763779527559056
        },
        {
          "duration": 0.0833333333333357,
          "durationTicks": 20,
          "midi": 51,
          "name": "D#3",
          "ticks": 9600,
          "time": 40,
          "velocity": 0.889763779527559
        },
        {
          "duration": 0.0833333333333286,
          "durationTicks": 20,
          "midi": 51,
          "name": "D#3",
          "ticks": 9648,
          "time": 40.2,
          "velocity": 0.889763779527559
        },
        {
          "duration": 0.0833333333333286,
          "durationTicks": 20,
          "midi": 58,
          "name": "A#3",
          "ticks": 9648,
          "time": 40.2,
          "velocity": 0.9763779527559056
        },
        {
          "duration": 0.0833333333333286,
          "durationTicks": 20,
          "midi": 58,
          "name": "A#3",
          "ticks": 9696,
          "time": 40.400000000000006,
          "velocity": 0.9763779527559056
        },
        {
          "duration": 0.0833333333333286,
          "durationTicks": 20,
          "midi": 51,
          "name": "D#3",
          "ticks": 9696,
          "time": 40.400000000000006,
          "velocity": 0.889763779527559
        },
        {
          "duration": 0.18333333333333002,
          "durationTicks": 44,
          "midi": 58,
          "name": "A#3",
          "ticks": 9744,
          "time": 40.6,
          "velocity": 0.9763779527559056
        },
        {
          "duration": 0.18333333333333002,
          "durationTicks": 44,
          "midi": 51,
          "name": "D#3",
          "ticks": 9744,
          "time": 40.6,
          "velocity": 0.889763779527559
        },
        {
          "duration": 0.0833333333333286,
          "durationTicks": 20,
          "midi": 51,
          "name": "D#3",
          "ticks": 9792,
          "time": 40.800000000000004,
          "velocity": 0.889763779527559
        },
        {
          "duration": 0.0833333333333286,
          "durationTicks": 20,
          "midi": 58,
          "name": "A#3",
          "ticks": 9792,
          "time": 40.800000000000004,
          "velocity": 0.9763779527559056
        },
        {
          "duration": 0.18333333333333712,
          "durationTicks": 44,
          "midi": 51,
          "name": "D#3",
          "ticks": 9840,
          "time": 41,
          "velocity": 0.889763779527559
        },
        {
          "duration": 0.18333333333333712,
          "durationTicks": 44,
          "midi": 58,
          "name": "A#3",
          "ticks": 9840,
          "time": 41,
          "velocity": 0.9763779527559056
        },
        {
          "duration": 0.18333333333333002,
          "durationTicks": 44,
          "midi": 58,
          "name": "A#3",
          "ticks": 9888,
          "time": 41.2,
          "velocity": 0.9763779527559056
        },
        {
          "duration": 0.18333333333333002,
          "durationTicks": 44,
          "midi": 51,
          "name": "D#3",
          "ticks": 9888,
          "time": 41.2,
          "velocity": 0.889763779527559
        },
        {
          "duration": 0.18333333333333002,
          "durationTicks": 44,
          "midi": 51,
          "name": "D#3",
          "ticks": 9936,
          "time": 41.400000000000006,
          "velocity": 0.889763779527559
        },
        {
          "duration": 0.18333333333333002,
          "durationTicks": 44,
          "midi": 58,
          "name": "A#3",
          "ticks": 9936,
          "time": 41.400000000000006,
          "velocity": 0.9763779527559056
        },
        {
          "duration": 0.18333333333333002,
          "durationTicks": 44,
          "midi": 50,
          "name": "D3",
          "ticks": 9984,
          "time": 41.6,
          "velocity": 0.889763779527559
        },
        {
          "duration": 0.18333333333333002,
          "durationTicks": 44,
          "midi": 57,
          "name": "A3",
          "ticks": 9984,
          "time": 41.6,
          "velocity": 0.9763779527559056
        },
        {
          "duration": 0.18333333333333002,
          "durationTicks": 44,
          "midi": 50,
          "name": "D3",
          "ticks": 10032,
          "time": 41.800000000000004,
          "velocity": 0.889763779527559
        },
        {
          "duration": 0.18333333333333002,
          "durationTicks": 44,
          "midi": 57,
          "name": "A3",
          "ticks": 10032,
          "time": 41.800000000000004,
          "velocity": 0.9763779527559056
        },
        {
          "duration": 0.18333333333333712,
          "durationTicks": 44,
          "midi": 50,
          "name": "D3",
          "ticks": 10080,
          "time": 42,
          "velocity": 0.889763779527559
        },
        {
          "duration": 0.18333333333333712,
          "durationTicks": 44,
          "midi": 57,
          "name": "A3",
          "ticks": 10080,
          "time": 42,
          "velocity": 0.9763779527559056
        },
        {
          "duration": 0.0833333333333286,
          "durationTicks": 20,
          "midi": 57,
          "name": "A3",
          "ticks": 10128,
          "time": 42.2,
          "velocity": 0.9763779527559056
        },
        {
          "duration": 0.0833333333333286,
          "durationTicks": 20,
          "midi": 50,
          "name": "D3",
          "ticks": 10128,
          "time": 42.2,
          "velocity": 0.889763779527559
        },
        {
          "duration": 0.0833333333333286,
          "durationTicks": 20,
          "midi": 50,
          "name": "D3",
          "ticks": 10176,
          "time": 42.400000000000006,
          "velocity": 0.889763779527559
        },
        {
          "duration": 0.0833333333333286,
          "durationTicks": 20,
          "midi": 57,
          "name": "A3",
          "ticks": 10176,
          "time": 42.400000000000006,
          "velocity": 0.9763779527559056
        },
        {
          "duration": 0.0833333333333357,
          "durationTicks": 20,
          "midi": 57,
          "name": "A3",
          "ticks": 10224,
          "time": 42.6,
          "velocity": 0.9763779527559056
        },
        {
          "duration": 0.0833333333333357,
          "durationTicks": 20,
          "midi": 50,
          "name": "D3",
          "ticks": 10224,
          "time": 42.6,
          "velocity": 0.889763779527559
        },
        {
          "duration": 0.0833333333333286,
          "durationTicks": 20,
          "midi": 50,
          "name": "D3",
          "ticks": 10272,
          "time": 42.800000000000004,
          "velocity": 0.889763779527559
        },
        {
          "duration": 0.0833333333333286,
          "durationTicks": 20,
          "midi": 57,
          "name": "A3",
          "ticks": 10272,
          "time": 42.800000000000004,
          "velocity": 0.9763779527559056
        },
        {
          "duration": 0.18333333333333712,
          "durationTicks": 44,
          "midi": 57,
          "name": "A3",
          "ticks": 10320,
          "time": 43,
          "velocity": 0.9763779527559056
        },
        {
          "duration": 0.18333333333333712,
          "durationTicks": 44,
          "midi": 50,
          "name": "D3",
          "ticks": 10320,
          "time": 43,
          "velocity": 0.889763779527559
        },
        {
          "duration": 0.0833333333333286,
          "durationTicks": 20,
          "midi": 50,
          "name": "D3",
          "ticks": 10368,
          "time": 43.2,
          "velocity": 0.889763779527559
        },
        {
          "duration": 0.0833333333333286,
          "durationTicks": 20,
          "midi": 57,
          "name": "A3",
          "ticks": 10368,
          "time": 43.2,
          "velocity": 0.9763779527559056
        },
        {
          "duration": 0.0833333333333286,
          "durationTicks": 20,
          "midi": 50,
          "name": "D3",
          "ticks": 10416,
          "time": 43.400000000000006,
          "velocity": 0.889763779527559
        },
        {
          "duration": 0.0833333333333286,
          "durationTicks": 20,
          "midi": 57,
          "name": "A3",
          "ticks": 10416,
          "time": 43.400000000000006,
          "velocity": 0.9763779527559056
        },
        {
          "duration": 0.0833333333333357,
          "durationTicks": 20,
          "midi": 50,
          "name": "D3",
          "ticks": 10464,
          "time": 43.6,
          "velocity": 0.889763779527559
        },
        {
          "duration": 0.0833333333333357,
          "durationTicks": 20,
          "midi": 57,
          "name": "A3",
          "ticks": 10464,
          "time": 43.6,
          "velocity": 0.9763779527559056
        },
        {
          "duration": 0.18333333333333002,
          "durationTicks": 44,
          "midi": 57,
          "name": "A3",
          "ticks": 10512,
          "time": 43.800000000000004,
          "velocity": 0.9763779527559056
        },
        {
          "duration": 0.18333333333333002,
          "durationTicks": 44,
          "midi": 50,
          "name": "D3",
          "ticks": 10512,
          "time": 43.800000000000004,
          "velocity": 0.889763779527559
        },
        {
          "duration": 0.0833333333333357,
          "durationTicks": 20,
          "midi": 57,
          "name": "A3",
          "ticks": 10560,
          "time": 44,
          "velocity": 0.9763779527559056
        },
        {
          "duration": 0.0833333333333357,
          "durationTicks": 20,
          "midi": 50,
          "name": "D3",
          "ticks": 10560,
          "time": 44,
          "velocity": 0.889763779527559
        },
        {
          "duration": 0.18333333333333002,
          "durationTicks": 44,
          "midi": 57,
          "name": "A3",
          "ticks": 10608,
          "time": 44.2,
          "velocity": 0.9763779527559056
        },
        {
          "duration": 0.18333333333333002,
          "durationTicks": 44,
          "midi": 50,
          "name": "D3",
          "ticks": 10608,
          "time": 44.2,
          "velocity": 0.889763779527559
        },
        {
          "duration": 0.18333333333333002,
          "durationTicks": 44,
          "midi": 50,
          "name": "D3",
          "ticks": 10656,
          "time": 44.400000000000006,
          "velocity": 0.889763779527559
        },
        {
          "duration": 0.18333333333333002,
          "durationTicks": 44,
          "midi": 57,
          "name": "A3",
          "ticks": 10656,
          "time": 44.400000000000006,
          "velocity": 0.9763779527559056
        },
        {
          "duration": 0.18333333333333002,
          "durationTicks": 44,
          "midi": 57,
          "name": "A3",
          "ticks": 10704,
          "time": 44.6,
          "velocity": 0.9763779527559056
        },
        {
          "duration": 0.18333333333333002,
          "durationTicks": 44,
          "midi": 50,
          "name": "D3",
          "ticks": 10704,
          "time": 44.6,
          "velocity": 0.889763779527559
        },
        {
          "duration": 0.18333333333333002,
          "durationTicks": 44,
          "midi": 46,
          "name": "A#2",
          "ticks": 10752,
          "time": 44.800000000000004,
          "velocity": 0.889763779527559
        },
        {
          "duration": 0.18333333333333002,
          "durationTicks": 44,
          "midi": 51,
          "name": "D#3",
          "ticks": 10752,
          "time": 44.800000000000004,
          "velocity": 0.9763779527559056
        },
        {
          "duration": 0.0833333333333357,
          "durationTicks": 20,
          "midi": 46,
          "name": "A#2",
          "ticks": 10800,
          "time": 45,
          "velocity": 0.889763779527559
        },
        {
          "duration": 0.0833333333333357,
          "durationTicks": 20,
          "midi": 51,
          "name": "D#3",
          "ticks": 10800,
          "time": 45,
          "velocity": 0.9763779527559056
        },
        {
          "duration": 0.0833333333333286,
          "durationTicks": 20,
          "midi": 46,
          "name": "A#2",
          "ticks": 10848,
          "time": 45.2,
          "velocity": 0.889763779527559
        },
        {
          "duration": 0.0833333333333286,
          "durationTicks": 20,
          "midi": 51,
          "name": "D#3",
          "ticks": 10848,
          "time": 45.2,
          "velocity": 0.9763779527559056
        },
        {
          "duration": 0.0833333333333286,
          "durationTicks": 20,
          "midi": 46,
          "name": "A#2",
          "ticks": 10896,
          "time": 45.400000000000006,
          "velocity": 0.889763779527559
        },
        {
          "duration": 0.0833333333333286,
          "durationTicks": 20,
          "midi": 51,
          "name": "D#3",
          "ticks": 10896,
          "time": 45.400000000000006,
          "velocity": 0.9763779527559056
        },
        {
          "duration": 0.0833333333333357,
          "durationTicks": 20,
          "midi": 46,
          "name": "A#2",
          "ticks": 10944,
          "time": 45.6,
          "velocity": 0.889763779527559
        },
        {
          "duration": 0.0833333333333357,
          "durationTicks": 20,
          "midi": 51,
          "name": "D#3",
          "ticks": 10944,
          "time": 45.6,
          "velocity": 0.9763779527559056
        },
        {
          "duration": 0.0833333333333286,
          "durationTicks": 20,
          "midi": 51,
          "name": "D#3",
          "ticks": 10992,
          "time": 45.800000000000004,
          "velocity": 0.9763779527559056
        },
        {
          "duration": 0.0833333333333286,
          "durationTicks": 20,
          "midi": 46,
          "name": "A#2",
          "ticks": 10992,
          "time": 45.800000000000004,
          "velocity": 0.889763779527559
        },
        {
          "duration": 0.0833333333333357,
          "durationTicks": 20,
          "midi": 46,
          "name": "A#2",
          "ticks": 11040,
          "time": 46,
          "velocity": 0.889763779527559
        },
        {
          "duration": 0.0833333333333357,
          "durationTicks": 20,
          "midi": 51,
          "name": "D#3",
          "ticks": 11040,
          "time": 46,
          "velocity": 0.9763779527559056
        },
        {
          "duration": 0.0833333333333286,
          "durationTicks": 20,
          "midi": 51,
          "name": "D#3",
          "ticks": 11088,
          "time": 46.2,
          "velocity": 0.9763779527559056
        },
        {
          "duration": 0.0833333333333286,
          "durationTicks": 20,
          "midi": 46,
          "name": "A#2",
          "ticks": 11088,
          "time": 46.2,
          "velocity": 0.889763779527559
        },
        {
          "duration": 0.18333333333333002,
          "durationTicks": 44,
          "midi": 49,
          "name": "C#3",
          "ticks": 11136,
          "time": 46.400000000000006,
          "velocity": 0.9763779527559056
        },
        {
          "duration": 0.18333333333333002,
          "durationTicks": 44,
          "midi": 44,
          "name": "G#2",
          "ticks": 11136,
          "time": 46.400000000000006,
          "velocity": 0.889763779527559
        },
        {
          "duration": 0.0833333333333357,
          "durationTicks": 20,
          "midi": 49,
          "name": "C#3",
          "ticks": 11184,
          "time": 46.6,
          "velocity": 0.9763779527559056
        },
        {
          "duration": 0.0833333333333357,
          "durationTicks": 20,
          "midi": 44,
          "name": "G#2",
          "ticks": 11184,
          "time": 46.6,
          "velocity": 0.889763779527559
        },
        {
          "duration": 0.0833333333333286,
          "durationTicks": 20,
          "midi": 44,
          "name": "G#2",
          "ticks": 11232,
          "time": 46.800000000000004,
          "velocity": 0.889763779527559
        },
        {
          "duration": 0.0833333333333286,
          "durationTicks": 20,
          "midi": 49,
          "name": "C#3",
          "ticks": 11232,
          "time": 46.800000000000004,
          "velocity": 0.9763779527559056
        },
        {
          "duration": 0.0833333333333357,
          "durationTicks": 20,
          "midi": 49,
          "name": "C#3",
          "ticks": 11280,
          "time": 47,
          "velocity": 0.9763779527559056
        },
        {
          "duration": 0.0833333333333357,
          "durationTicks": 20,
          "midi": 44,
          "name": "G#2",
          "ticks": 11280,
          "time": 47,
          "velocity": 0.889763779527559
        },
        {
          "duration": 0.0833333333333286,
          "durationTicks": 20,
          "midi": 49,
          "name": "C#3",
          "ticks": 11328,
          "time": 47.2,
          "velocity": 0.9763779527559056
        },
        {
          "duration": 0.0833333333333286,
          "durationTicks": 20,
          "midi": 44,
          "name": "G#2",
          "ticks": 11328,
          "time": 47.2,
          "velocity": 0.889763779527559
        },
        {
          "duration": 0.0833333333333286,
          "durationTicks": 20,
          "midi": 44,
          "name": "G#2",
          "ticks": 11376,
          "time": 47.400000000000006,
          "velocity": 0.889763779527559
        },
        {
          "duration": 0.0833333333333286,
          "durationTicks": 20,
          "midi": 49,
          "name": "C#3",
          "ticks": 11376,
          "time": 47.400000000000006,
          "velocity": 0.9763779527559056
        },
        {
          "duration": 0.0833333333333357,
          "durationTicks": 20,
          "midi": 44,
          "name": "G#2",
          "ticks": 11424,
          "time": 47.6,
          "velocity": 0.889763779527559
        },
        {
          "duration": 0.0833333333333357,
          "durationTicks": 20,
          "midi": 49,
          "name": "C#3",
          "ticks": 11424,
          "time": 47.6,
          "velocity": 0.9763779527559056
        },
        {
          "duration": 0.0833333333333286,
          "durationTicks": 20,
          "midi": 44,
          "name": "G#2",
          "ticks": 11472,
          "time": 47.800000000000004,
          "velocity": 0.889763779527559
        },
        {
          "duration": 0.0833333333333286,
          "durationTicks": 20,
          "midi": 49,
          "name": "C#3",
          "ticks": 11472,
          "time": 47.800000000000004,
          "velocity": 0.9763779527559056
        },
        {
          "duration": 0.18333333333333712,
          "durationTicks": 44,
          "midi": 47,
          "name": "B2",
          "ticks": 11520,
          "time": 48,
          "velocity": 0.9763779527559056
        },
        {
          "duration": 0.18333333333333712,
          "durationTicks": 44,
          "midi": 42,
          "name": "F#2",
          "ticks": 11520,
          "time": 48,
          "velocity": 0.889763779527559
        },
        {
          "duration": 0.0833333333333286,
          "durationTicks": 20,
          "midi": 47,
          "name": "B2",
          "ticks": 11568,
          "time": 48.2,
          "velocity": 0.9763779527559056
        },
        {
          "duration": 0.0833333333333286,
          "durationTicks": 20,
          "midi": 42,
          "name": "F#2",
          "ticks": 11568,
          "time": 48.2,
          "velocity": 0.889763779527559
        },
        {
          "duration": 0.0833333333333286,
          "durationTicks": 20,
          "midi": 47,
          "name": "B2",
          "ticks": 11616,
          "time": 48.400000000000006,
          "velocity": 0.9763779527559056
        },
        {
          "duration": 0.0833333333333286,
          "durationTicks": 20,
          "midi": 42,
          "name": "F#2",
          "ticks": 11616,
          "time": 48.400000000000006,
          "velocity": 0.889763779527559
        },
        {
          "duration": 0.0833333333333357,
          "durationTicks": 20,
          "midi": 47,
          "name": "B2",
          "ticks": 11664,
          "time": 48.6,
          "velocity": 0.9763779527559056
        },
        {
          "duration": 0.0833333333333357,
          "durationTicks": 20,
          "midi": 42,
          "name": "F#2",
          "ticks": 11664,
          "time": 48.6,
          "velocity": 0.889763779527559
        },
        {
          "duration": 0.0833333333333286,
          "durationTicks": 20,
          "midi": 47,
          "name": "B2",
          "ticks": 11712,
          "time": 48.800000000000004,
          "velocity": 0.9763779527559056
        },
        {
          "duration": 0.0833333333333286,
          "durationTicks": 20,
          "midi": 42,
          "name": "F#2",
          "ticks": 11712,
          "time": 48.800000000000004,
          "velocity": 0.889763779527559
        },
        {
          "duration": 0.0833333333333357,
          "durationTicks": 20,
          "midi": 47,
          "name": "B2",
          "ticks": 11760,
          "time": 49,
          "velocity": 0.9763779527559056
        },
        {
          "duration": 0.0833333333333357,
          "durationTicks": 20,
          "midi": 42,
          "name": "F#2",
          "ticks": 11760,
          "time": 49,
          "velocity": 0.889763779527559
        },
        {
          "duration": 0.0833333333333286,
          "durationTicks": 20,
          "midi": 47,
          "name": "B2",
          "ticks": 11808,
          "time": 49.2,
          "velocity": 0.9763779527559056
        },
        {
          "duration": 0.0833333333333286,
          "durationTicks": 20,
          "midi": 42,
          "name": "F#2",
          "ticks": 11808,
          "time": 49.2,
          "velocity": 0.889763779527559
        },
        {
          "duration": 0.0833333333333286,
          "durationTicks": 20,
          "midi": 47,
          "name": "B2",
          "ticks": 11856,
          "time": 49.400000000000006,
          "velocity": 0.9763779527559056
        },
        {
          "duration": 0.0833333333333286,
          "durationTicks": 20,
          "midi": 42,
          "name": "F#2",
          "ticks": 11856,
          "time": 49.400000000000006,
          "velocity": 0.889763779527559
        },
        {
          "duration": 0.18333333333333002,
          "durationTicks": 44,
          "midi": 49,
          "name": "C#3",
          "ticks": 11904,
          "time": 49.6,
          "velocity": 0.9763779527559056
        },
        {
          "duration": 0.18333333333333002,
          "durationTicks": 44,
          "midi": 44,
          "name": "G#2",
          "ticks": 11904,
          "time": 49.6,
          "velocity": 0.889763779527559
        },
        {
          "duration": 0.0833333333333286,
          "durationTicks": 20,
          "midi": 49,
          "name": "C#3",
          "ticks": 11952,
          "time": 49.800000000000004,
          "velocity": 0.9763779527559056
        },
        {
          "duration": 0.0833333333333286,
          "durationTicks": 20,
          "midi": 44,
          "name": "G#2",
          "ticks": 11952,
          "time": 49.800000000000004,
          "velocity": 0.889763779527559
        },
        {
          "duration": 0.0833333333333357,
          "durationTicks": 20,
          "midi": 44,
          "name": "G#2",
          "ticks": 12000,
          "time": 50,
          "velocity": 0.889763779527559
        },
        {
          "duration": 0.0833333333333357,
          "durationTicks": 20,
          "midi": 49,
          "name": "C#3",
          "ticks": 12000,
          "time": 50,
          "velocity": 0.9763779527559056
        },
        {
          "duration": 0.0833333333333286,
          "durationTicks": 20,
          "midi": 49,
          "name": "C#3",
          "ticks": 12048,
          "time": 50.2,
          "velocity": 0.9763779527559056
        },
        {
          "duration": 0.0833333333333286,
          "durationTicks": 20,
          "midi": 44,
          "name": "G#2",
          "ticks": 12048,
          "time": 50.2,
          "velocity": 0.889763779527559
        },
        {
          "duration": 0.0833333333333286,
          "durationTicks": 20,
          "midi": 49,
          "name": "C#3",
          "ticks": 12096,
          "time": 50.400000000000006,
          "velocity": 0.9763779527559056
        },
        {
          "duration": 0.0833333333333286,
          "durationTicks": 20,
          "midi": 44,
          "name": "G#2",
          "ticks": 12096,
          "time": 50.400000000000006,
          "velocity": 0.889763779527559
        },
        {
          "duration": 0.0833333333333357,
          "durationTicks": 20,
          "midi": 44,
          "name": "G#2",
          "ticks": 12144,
          "time": 50.6,
          "velocity": 0.889763779527559
        },
        {
          "duration": 0.0833333333333357,
          "durationTicks": 20,
          "midi": 49,
          "name": "C#3",
          "ticks": 12144,
          "time": 50.6,
          "velocity": 0.9763779527559056
        },
        {
          "duration": 0.0833333333333286,
          "durationTicks": 20,
          "midi": 44,
          "name": "G#2",
          "ticks": 12192,
          "time": 50.800000000000004,
          "velocity": 0.889763779527559
        },
        {
          "duration": 0.0833333333333286,
          "durationTicks": 20,
          "midi": 49,
          "name": "C#3",
          "ticks": 12192,
          "time": 50.800000000000004,
          "velocity": 0.9763779527559056
        },
        {
          "duration": 0.0833333333333357,
          "durationTicks": 20,
          "midi": 44,
          "name": "G#2",
          "ticks": 12240,
          "time": 51,
          "velocity": 0.889763779527559
        },
        {
          "duration": 0.0833333333333357,
          "durationTicks": 20,
          "midi": 49,
          "name": "C#3",
          "ticks": 12240,
          "time": 51,
          "velocity": 0.9763779527559056
        },
        {
          "duration": 0.18333333333333712,
          "durationTicks": 44,
          "midi": 49,
          "name": "C#3",
          "ticks": 12288,
          "time": 51.2,
          "velocity": 0.889763779527559
        },
        {
          "duration": 0.18333333333333712,
          "durationTicks": 44,
          "midi": 54,
          "name": "F#3",
          "ticks": 12288,
          "time": 51.2,
          "velocity": 0.9763779527559056
        },
        {
          "duration": 0.0833333333333357,
          "durationTicks": 20,
          "midi": 54,
          "name": "F#3",
          "ticks": 12336,
          "time": 51.400000000000006,
          "velocity": 0.9763779527559056
        },
        {
          "duration": 0.0833333333333357,
          "durationTicks": 20,
          "midi": 49,
          "name": "C#3",
          "ticks": 12336,
          "time": 51.400000000000006,
          "velocity": 0.889763779527559
        },
        {
          "duration": 0.0833333333333357,
          "durationTicks": 20,
          "midi": 49,
          "name": "C#3",
          "ticks": 12384,
          "time": 51.6,
          "velocity": 0.889763779527559
        },
        {
          "duration": 0.0833333333333357,
          "durationTicks": 20,
          "midi": 54,
          "name": "F#3",
          "ticks": 12384,
          "time": 51.6,
          "velocity": 0.9763779527559056
        },
        {
          "duration": 0.0833333333333357,
          "durationTicks": 20,
          "midi": 54,
          "name": "F#3",
          "ticks": 12432,
          "time": 51.800000000000004,
          "velocity": 0.9763779527559056
        },
        {
          "duration": 0.0833333333333357,
          "durationTicks": 20,
          "midi": 49,
          "name": "C#3",
          "ticks": 12432,
          "time": 51.800000000000004,
          "velocity": 0.889763779527559
        },
        {
          "duration": 0.08333333333334281,
          "durationTicks": 20,
          "midi": 54,
          "name": "F#3",
          "ticks": 12480,
          "time": 52,
          "velocity": 0.9763779527559056
        },
        {
          "duration": 0.08333333333334281,
          "durationTicks": 20,
          "midi": 49,
          "name": "C#3",
          "ticks": 12480,
          "time": 52,
          "velocity": 0.889763779527559
        },
        {
          "duration": 0.0833333333333357,
          "durationTicks": 20,
          "midi": 49,
          "name": "C#3",
          "ticks": 12528,
          "time": 52.2,
          "velocity": 0.889763779527559
        },
        {
          "duration": 0.0833333333333357,
          "durationTicks": 20,
          "midi": 54,
          "name": "F#3",
          "ticks": 12528,
          "time": 52.2,
          "velocity": 0.9763779527559056
        },
        {
          "duration": 0.0833333333333357,
          "durationTicks": 20,
          "midi": 49,
          "name": "C#3",
          "ticks": 12576,
          "time": 52.400000000000006,
          "velocity": 0.889763779527559
        },
        {
          "duration": 0.0833333333333357,
          "durationTicks": 20,
          "midi": 54,
          "name": "F#3",
          "ticks": 12576,
          "time": 52.400000000000006,
          "velocity": 0.9763779527559056
        },
        {
          "duration": 0.0833333333333357,
          "durationTicks": 20,
          "midi": 49,
          "name": "C#3",
          "ticks": 12624,
          "time": 52.6,
          "velocity": 0.889763779527559
        },
        {
          "duration": 0.0833333333333357,
          "durationTicks": 20,
          "midi": 54,
          "name": "F#3",
          "ticks": 12624,
          "time": 52.6,
          "velocity": 0.9763779527559056
        },
        {
          "duration": 0.18333333333333712,
          "durationTicks": 44,
          "midi": 50,
          "name": "D3",
          "ticks": 12672,
          "time": 52.800000000000004,
          "velocity": 0.8267716535433071
        },
        {
          "duration": 0.18333333333333712,
          "durationTicks": 44,
          "midi": 62,
          "name": "D4",
          "ticks": 12672,
          "time": 52.800000000000004,
          "velocity": 0.84251968503937
        },
        {
          "duration": 0.28333333333333854,
          "durationTicks": 68,
          "midi": 50,
          "name": "D3",
          "ticks": 12720,
          "time": 53,
          "velocity": 0.8267716535433071
        },
        {
          "duration": 0.28333333333333854,
          "durationTicks": 68,
          "midi": 62,
          "name": "D4",
          "ticks": 12720,
          "time": 53,
          "velocity": 0.84251968503937
        },
        {
          "duration": 0.18333333333333712,
          "durationTicks": 44,
          "midi": 51,
          "name": "D#3",
          "ticks": 12816,
          "time": 53.400000000000006,
          "velocity": 0.8267716535433071
        },
        {
          "duration": 0.18333333333333712,
          "durationTicks": 44,
          "midi": 63,
          "name": "D#4",
          "ticks": 12816,
          "time": 53.400000000000006,
          "velocity": 0.84251968503937
        },
        {
          "duration": 0.28333333333333854,
          "durationTicks": 68,
          "midi": 51,
          "name": "D#3",
          "ticks": 12864,
          "time": 53.6,
          "velocity": 0.8267716535433071
        },
        {
          "duration": 0.28333333333333854,
          "durationTicks": 68,
          "midi": 63,
          "name": "D#4",
          "ticks": 12864,
          "time": 53.6,
          "velocity": 0.84251968503937
        },
        {
          "duration": 0.18333333333333712,
          "durationTicks": 44,
          "midi": 53,
          "name": "F3",
          "ticks": 12960,
          "time": 54,
          "velocity": 0.8267716535433071
        },
        {
          "duration": 0.18333333333333712,
          "durationTicks": 44,
          "midi": 65,
          "name": "F4",
          "ticks": 12960,
          "time": 54,
          "velocity": 0.84251968503937
        },
        {
          "duration": 0.18333333333333712,
          "durationTicks": 44,
          "midi": 53,
          "name": "F3",
          "ticks": 13008,
          "time": 54.2,
          "velocity": 0.8267716535433071
        },
        {
          "duration": 0.18333333333333712,
          "durationTicks": 44,
          "midi": 65,
          "name": "F4",
          "ticks": 13008,
          "time": 54.2,
          "velocity": 0.84251968503937
        },
        {
          "duration": 1.5833333333333357,
          "durationTicks": 380,
          "midi": 66,
          "name": "F#4",
          "ticks": 13056,
          "time": 54.400000000000006,
          "velocity": 0.84251968503937
        },
        {
          "duration": 1.5833333333333357,
          "durationTicks": 380,
          "midi": 54,
          "name": "F#3",
          "ticks": 13056,
          "time": 54.400000000000006,
          "velocity": 0.8267716535433071
        },
        {
          "duration": 1.5833333333333428,
          "durationTicks": 380,
          "midi": 56,
          "name": "G#3",
          "ticks": 13440,
          "time": 56,
          "velocity": 0.8267716535433071
        },
        {
          "duration": 1.5833333333333428,
          "durationTicks": 380,
          "midi": 68,
          "name": "G#4",
          "ticks": 13440,
          "time": 56,
          "velocity": 0.84251968503937
        },
        {
          "duration": 1.5833333333333357,
          "durationTicks": 380,
          "midi": 58,
          "name": "A#3",
          "ticks": 13824,
          "time": 57.6,
          "velocity": 0.8267716535433071
        },
        {
          "duration": 1.5833333333333357,
          "durationTicks": 380,
          "midi": 70,
          "name": "A#4",
          "ticks": 13824,
          "time": 57.6,
          "velocity": 0.84251968503937
        },
        {
          "duration": 0.19166666666666288,
          "durationTicks": 46,
          "midi": 58,
          "name": "A#3",
          "ticks": 14208,
          "time": 59.2,
          "velocity": 0.8267716535433071
        },
        {
          "duration": 0.19166666666666288,
          "durationTicks": 46,
          "midi": 70,
          "name": "A#4",
          "ticks": 14208,
          "time": 59.2,
          "velocity": 0.84251968503937
        },
        {
          "duration": 0.19166666666666288,
          "durationTicks": 46,
          "midi": 58,
          "name": "A#3",
          "ticks": 14256,
          "time": 59.400000000000006,
          "velocity": 0.8267716535433071
        },
        {
          "duration": 0.19166666666666288,
          "durationTicks": 46,
          "midi": 70,
          "name": "A#4",
          "ticks": 14256,
          "time": 59.400000000000006,
          "velocity": 0.84251968503937
        },
        {
          "duration": 0.3916666666666586,
          "durationTicks": 94,
          "midi": 61,
          "name": "C#4",
          "ticks": 14352,
          "time": 59.800000000000004,
          "velocity": 0.8267716535433071
        },
        {
          "duration": 0.3916666666666586,
          "durationTicks": 94,
          "midi": 73,
          "name": "C#5",
          "ticks": 14352,
          "time": 59.800000000000004,
          "velocity": 0.84251968503937
        },
        {
          "duration": 0.19166666666666288,
          "durationTicks": 46,
          "midi": 61,
          "name": "C#4",
          "ticks": 14448,
          "time": 60.2,
          "velocity": 0.8267716535433071
        },
        {
          "duration": 0.19166666666666288,
          "durationTicks": 46,
          "midi": 73,
          "name": "C#5",
          "ticks": 14448,
          "time": 60.2,
          "velocity": 0.84251968503937
        },
        {
          "duration": 0.19166666666666288,
          "durationTicks": 46,
          "midi": 61,
          "name": "C#4",
          "ticks": 14496,
          "time": 60.400000000000006,
          "velocity": 0.8267716535433071
        },
        {
          "duration": 0.19166666666666288,
          "durationTicks": 46,
          "midi": 73,
          "name": "C#5",
          "ticks": 14496,
          "time": 60.400000000000006,
          "velocity": 0.84251968503937
        },
        {
          "duration": 0.033333333333338544,
          "durationTicks": 8,
          "midi": 63,
          "name": "D#4",
          "ticks": 14550,
          "time": 60.625,
          "velocity": 0.8267716535433071
        },
        {
          "duration": 0.033333333333338544,
          "durationTicks": 8,
          "midi": 75,
          "name": "D#5",
          "ticks": 14550,
          "time": 60.625,
          "velocity": 0.84251968503937
        },
        {
          "duration": 0.033333333333338544,
          "durationTicks": 8,
          "midi": 63,
          "name": "D#4",
          "ticks": 14568,
          "time": 60.7,
          "velocity": 0.8267716535433071
        },
        {
          "duration": 0.033333333333338544,
          "durationTicks": 8,
          "midi": 75,
          "name": "D#5",
          "ticks": 14568,
          "time": 60.7,
          "velocity": 0.84251968503937
        },
        {
          "duration": 1.5833333333333357,
          "durationTicks": 380,
          "midi": 75,
          "name": "D#5",
          "ticks": 14592,
          "time": 60.800000000000004,
          "velocity": 0.84251968503937
        },
        {
          "duration": 1.5833333333333357,
          "durationTicks": 380,
          "midi": 63,
          "name": "D#4",
          "ticks": 14592,
          "time": 60.800000000000004,
          "velocity": 0.8267716535433071
        },
        {
          "duration": 1.5833333333333357,
          "durationTicks": 380,
          "midi": 77,
          "name": "F5",
          "ticks": 14976,
          "time": 62.400000000000006,
          "velocity": 0.84251968503937
        },
        {
          "duration": 1.5833333333333357,
          "durationTicks": 380,
          "midi": 65,
          "name": "F4",
          "ticks": 14976,
          "time": 62.400000000000006,
          "velocity": 0.8267716535433071
        },
        {
          "duration": 1.5833333333333428,
          "durationTicks": 380,
          "midi": 78,
          "name": "F#5",
          "ticks": 15360,
          "time": 64,
          "velocity": 0.84251968503937
        },
        {
          "duration": 1.5833333333333428,
          "durationTicks": 380,
          "midi": 66,
          "name": "F#4",
          "ticks": 15360,
          "time": 64,
          "velocity": 0.8267716535433071
        },
        {
          "duration": 0.38333333333332575,
          "durationTicks": 92,
          "midi": 80,
          "name": "G#5",
          "ticks": 15744,
          "time": 65.60000000000001,
          "velocity": 0.84251968503937
        },
        {
          "duration": 0.38333333333332575,
          "durationTicks": 92,
          "midi": 68,
          "name": "G#4",
          "ticks": 15744,
          "time": 65.60000000000001,
          "velocity": 0.8267716535433071
        },
        {
          "duration": 0.8333333333333428,
          "durationTicks": 200,
          "midi": 68,
          "name": "G#4",
          "ticks": 15888,
          "time": 66.2,
          "velocity": 0.8110236220472441
        },
        {
          "duration": 0.8333333333333428,
          "durationTicks": 200,
          "midi": 80,
          "name": "G#5",
          "ticks": 15888,
          "time": 66.2,
          "velocity": 0.84251968503937
        },
        {
          "duration": 0.2083333333333428,
          "durationTicks": 50,
          "midi": 49,
          "name": "C#3",
          "ticks": 16128,
          "time": 67.2,
          "velocity": 0.9212598425196851
        },
        {
          "duration": 0.2083333333333428,
          "durationTicks": 50,
          "midi": 56,
          "name": "G#3",
          "ticks": 16128,
          "time": 67.2,
          "velocity": 0.9448818897637795
        },
        {
          "duration": 0.3583333333333343,
          "durationTicks": 86,
          "midi": 49,
          "name": "C#3",
          "ticks": 16224,
          "time": 67.60000000000001,
          "velocity": 0.9212598425196851
        },
        {
          "duration": 0.3583333333333343,
          "durationTicks": 86,
          "midi": 56,
          "name": "G#3",
          "ticks": 16224,
          "time": 67.60000000000001,
          "velocity": 0.9448818897637795
        },
        {
          "duration": 0.3583333333333343,
          "durationTicks": 86,
          "midi": 49,
          "name": "C#3",
          "ticks": 16368,
          "time": 68.2,
          "velocity": 0.9212598425196851
        },
        {
          "duration": 0.3583333333333343,
          "durationTicks": 86,
          "midi": 56,
          "name": "G#3",
          "ticks": 16368,
          "time": 68.2,
          "velocity": 0.9448818897637795
        },
        {
          "duration": 0.03333333333333144,
          "durationTicks": 8,
          "midi": 56,
          "name": "G#3",
          "ticks": 16464,
          "time": 68.60000000000001,
          "velocity": 0.9448818897637795
        },
        {
          "duration": 0.03333333333333144,
          "durationTicks": 8,
          "midi": 49,
          "name": "C#3",
          "ticks": 16464,
          "time": 68.60000000000001,
          "velocity": 0.9212598425196851
        },
        {
          "duration": 0.03333333333334565,
          "durationTicks": 8,
          "midi": 49,
          "name": "C#3",
          "ticks": 16482,
          "time": 68.675,
          "velocity": 0.9212598425196851
        },
        {
          "duration": 0.03333333333334565,
          "durationTicks": 8,
          "midi": 56,
          "name": "G#3",
          "ticks": 16482,
          "time": 68.675,
          "velocity": 0.9448818897637795
        },
        {
          "duration": 0.2083333333333428,
          "durationTicks": 50,
          "midi": 56,
          "name": "G#3",
          "ticks": 16512,
          "time": 68.8,
          "velocity": 0.9448818897637795
        },
        {
          "duration": 0.2083333333333428,
          "durationTicks": 50,
          "midi": 49,
          "name": "C#3",
          "ticks": 16512,
          "time": 68.8,
          "velocity": 0.9212598425196851
        },
        {
          "duration": 0.3583333333333343,
          "durationTicks": 86,
          "midi": 49,
          "name": "C#3",
          "ticks": 16608,
          "time": 69.2,
          "velocity": 0.9212598425196851
        },
        {
          "duration": 0.3583333333333343,
          "durationTicks": 86,
          "midi": 56,
          "name": "G#3",
          "ticks": 16608,
          "time": 69.2,
          "velocity": 0.9448818897637795
        },
        {
          "duration": 0.3583333333333485,
          "durationTicks": 86,
          "midi": 56,
          "name": "G#3",
          "ticks": 16752,
          "time": 69.8,
          "velocity": 0.9448818897637795
        },
        {
          "duration": 0.3583333333333485,
          "durationTicks": 86,
          "midi": 49,
          "name": "C#3",
          "ticks": 16752,
          "time": 69.8,
          "velocity": 0.9212598425196851
        },
        {
          "duration": 0.03333333333333144,
          "durationTicks": 8,
          "midi": 49,
          "name": "C#3",
          "ticks": 16854,
          "time": 70.22500000000001,
          "velocity": 0.9212598425196851
        },
        {
          "duration": 0.03333333333333144,
          "durationTicks": 8,
          "midi": 56,
          "name": "G#3",
          "ticks": 16854,
          "time": 70.22500000000001,
          "velocity": 0.9448818897637795
        },
        {
          "duration": 0.03333333333334565,
          "durationTicks": 8,
          "midi": 56,
          "name": "G#3",
          "ticks": 16872,
          "time": 70.3,
          "velocity": 0.9448818897637795
        },
        {
          "duration": 0.03333333333334565,
          "durationTicks": 8,
          "midi": 49,
          "name": "C#3",
          "ticks": 16872,
          "time": 70.3,
          "velocity": 0.9212598425196851
        },
        {
          "duration": 0.20000000000000284,
          "durationTicks": 48,
          "midi": 56,
          "name": "G#3",
          "ticks": 16896,
          "time": 70.4,
          "velocity": 0.9448818897637795
        },
        {
          "duration": 0.20000000000000284,
          "durationTicks": 48,
          "midi": 49,
          "name": "C#3",
          "ticks": 16896,
          "time": 70.4,
          "velocity": 0.9212598425196851
        },
        {
          "duration": 0.19999999999998863,
          "durationTicks": 48,
          "midi": 49,
          "name": "C#3",
          "ticks": 16944,
          "time": 70.60000000000001,
          "velocity": 0.9212598425196851
        },
        {
          "duration": 0.19999999999998863,
          "durationTicks": 48,
          "midi": 56,
          "name": "G#3",
          "ticks": 16944,
          "time": 70.60000000000001,
          "velocity": 0.9448818897637795
        },
        {
          "duration": 0.20000000000000284,
          "durationTicks": 48,
          "midi": 56,
          "name": "G#3",
          "ticks": 16992,
          "time": 70.8,
          "velocity": 0.9448818897637795
        },
        {
          "duration": 0.20000000000000284,
          "durationTicks": 48,
          "midi": 49,
          "name": "C#3",
          "ticks": 16992,
          "time": 70.8,
          "velocity": 0.9212598425196851
        },
        {
          "duration": 0.20000000000000284,
          "durationTicks": 48,
          "midi": 49,
          "name": "C#3",
          "ticks": 17040,
          "time": 71,
          "velocity": 0.9212598425196851
        },
        {
          "duration": 0.20000000000000284,
          "durationTicks": 48,
          "midi": 56,
          "name": "G#3",
          "ticks": 17040,
          "time": 71,
          "velocity": 0.9448818897637795
        },
        {
          "duration": 0.20000000000000284,
          "durationTicks": 48,
          "midi": 51,
          "name": "D#3",
          "ticks": 17088,
          "time": 71.2,
          "velocity": 0.9212598425196851
        },
        {
          "duration": 0.20000000000000284,
          "durationTicks": 48,
          "midi": 56,
          "name": "G#3",
          "ticks": 17088,
          "time": 71.2,
          "velocity": 0.9448818897637795
        },
        {
          "duration": 0.20000000000000284,
          "durationTicks": 48,
          "midi": 51,
          "name": "D#3",
          "ticks": 17136,
          "time": 71.4,
          "velocity": 0.9212598425196851
        },
        {
          "duration": 0.20000000000000284,
          "durationTicks": 48,
          "midi": 56,
          "name": "G#3",
          "ticks": 17136,
          "time": 71.4,
          "velocity": 0.9448818897637795
        },
        {
          "duration": 0.19999999999998863,
          "durationTicks": 48,
          "midi": 56,
          "name": "G#3",
          "ticks": 17184,
          "time": 71.60000000000001,
          "velocity": 0.9448818897637795
        },
        {
          "duration": 0.19999999999998863,
          "durationTicks": 48,
          "midi": 51,
          "name": "D#3",
          "ticks": 17184,
          "time": 71.60000000000001,
          "velocity": 0.9212598425196851
        },
        {
          "duration": 0.20000000000000284,
          "durationTicks": 48,
          "midi": 56,
          "name": "G#3",
          "ticks": 17232,
          "time": 71.8,
          "velocity": 0.9448818897637795
        },
        {
          "duration": 0.20000000000000284,
          "durationTicks": 48,
          "midi": 51,
          "name": "D#3",
          "ticks": 17232,
          "time": 71.8,
          "velocity": 0.9212598425196851
        },
        {
          "duration": 0.20000000000000284,
          "durationTicks": 48,
          "midi": 52,
          "name": "E3",
          "ticks": 17280,
          "time": 72,
          "velocity": 0.9212598425196851
        },
        {
          "duration": 0.20000000000000284,
          "durationTicks": 48,
          "midi": 56,
          "name": "G#3",
          "ticks": 17280,
          "time": 72,
          "velocity": 0.9448818897637795
        },
        {
          "duration": 0.29999999999999716,
          "durationTicks": 72,
          "midi": 52,
          "name": "E3",
          "ticks": 17664,
          "time": 73.60000000000001,
          "velocity": 0.9291338582677166
        },
        {
          "duration": 0.29999999999999716,
          "durationTicks": 72,
          "midi": 57,
          "name": "A3",
          "ticks": 17664,
          "time": 73.60000000000001,
          "velocity": 0.9291338582677166
        },
        {
          "duration": 0.09999999999999432,
          "durationTicks": 24,
          "midi": 52,
          "name": "E3",
          "ticks": 17736,
          "time": 73.9,
          "velocity": 0.9291338582677166
        },
        {
          "duration": 0.09999999999999432,
          "durationTicks": 24,
          "midi": 57,
          "name": "A3",
          "ticks": 17736,
          "time": 73.9,
          "velocity": 0.9291338582677166
        },
        {
          "duration": 0.024999999999991473,
          "durationTicks": 6,
          "midi": 52,
          "name": "E3",
          "ticks": 17844,
          "time": 74.35000000000001,
          "velocity": 0.9291338582677166
        },
        {
          "duration": 0.024999999999991473,
          "durationTicks": 6,
          "midi": 57,
          "name": "A3",
          "ticks": 17844,
          "time": 74.35000000000001,
          "velocity": 0.9291338582677166
        },
        {
          "duration": 0.025000000000005684,
          "durationTicks": 6,
          "midi": 52,
          "name": "E3",
          "ticks": 17868,
          "time": 74.45,
          "velocity": 0.9291338582677166
        },
        {
          "duration": 0.025000000000005684,
          "durationTicks": 6,
          "midi": 57,
          "name": "A3",
          "ticks": 17868,
          "time": 74.45,
          "velocity": 0.9291338582677166
        },
        {
          "duration": 0.25,
          "durationTicks": 60,
          "midi": 57,
          "name": "A3",
          "ticks": 17892,
          "time": 74.55,
          "velocity": 0.9291338582677166
        },
        {
          "duration": 0.25,
          "durationTicks": 60,
          "midi": 52,
          "name": "E3",
          "ticks": 17892,
          "time": 74.55,
          "velocity": 0.9291338582677166
        },
        {
          "duration": 0.025000000000005684,
          "durationTicks": 6,
          "midi": 52,
          "name": "E3",
          "ticks": 18000,
          "time": 75,
          "velocity": 0.9291338582677166
        },
        {
          "duration": 0.025000000000005684,
          "durationTicks": 6,
          "midi": 57,
          "name": "A3",
          "ticks": 18000,
          "time": 75,
          "velocity": 0.9291338582677166
        },
        {
          "duration": 0.024999999999991473,
          "durationTicks": 6,
          "midi": 52,
          "name": "E3",
          "ticks": 18024,
          "time": 75.10000000000001,
          "velocity": 0.9291338582677166
        },
        {
          "duration": 0.024999999999991473,
          "durationTicks": 6,
          "midi": 57,
          "name": "A3",
          "ticks": 18024,
          "time": 75.10000000000001,
          "velocity": 0.9291338582677166
        },
        {
          "duration": 0.375,
          "durationTicks": 90,
          "midi": 52,
          "name": "E3",
          "ticks": 18048,
          "time": 75.2,
          "velocity": 0.9291338582677166
        },
        {
          "duration": 0.375,
          "durationTicks": 90,
          "midi": 56,
          "name": "G#3",
          "ticks": 18048,
          "time": 75.2,
          "velocity": 0.9291338582677166
        },
        {
          "duration": 0.4000000000000057,
          "durationTicks": 96,
          "midi": 52,
          "name": "E3",
          "ticks": 18192,
          "time": 75.8,
          "velocity": 0.9291338582677166
        },
        {
          "duration": 0.4000000000000057,
          "durationTicks": 96,
          "midi": 56,
          "name": "G#3",
          "ticks": 18192,
          "time": 75.8,
          "velocity": 0.9291338582677166
        },
        {
          "duration": 0.20000000000000284,
          "durationTicks": 48,
          "midi": 52,
          "name": "E3",
          "ticks": 18288,
          "time": 76.2,
          "velocity": 0.9291338582677166
        },
        {
          "duration": 0.20000000000000284,
          "durationTicks": 48,
          "midi": 56,
          "name": "G#3",
          "ticks": 18288,
          "time": 76.2,
          "velocity": 0.9291338582677166
        },
        {
          "duration": 0.20000000000000284,
          "durationTicks": 48,
          "midi": 52,
          "name": "E3",
          "ticks": 18336,
          "time": 76.4,
          "velocity": 0.9291338582677166
        },
        {
          "duration": 0.20000000000000284,
          "durationTicks": 48,
          "midi": 56,
          "name": "G#3",
          "ticks": 18336,
          "time": 76.4,
          "velocity": 0.9291338582677166
        },
        {
          "duration": 0.29999999999999716,
          "durationTicks": 72,
          "midi": 52,
          "name": "E3",
          "ticks": 18432,
          "time": 76.80000000000001,
          "velocity": 0.9291338582677166
        },
        {
          "duration": 0.29999999999999716,
          "durationTicks": 72,
          "midi": 57,
          "name": "A3",
          "ticks": 18432,
          "time": 76.80000000000001,
          "velocity": 0.9291338582677166
        },
        {
          "duration": 0.09999999999999432,
          "durationTicks": 24,
          "midi": 57,
          "name": "A3",
          "ticks": 18504,
          "time": 77.10000000000001,
          "velocity": 0.9291338582677166
        },
        {
          "duration": 0.09999999999999432,
          "durationTicks": 24,
          "midi": 52,
          "name": "E3",
          "ticks": 18504,
          "time": 77.10000000000001,
          "velocity": 0.9291338582677166
        },
        {
          "duration": 0.024999999999991473,
          "durationTicks": 6,
          "midi": 52,
          "name": "E3",
          "ticks": 18612,
          "time": 77.55000000000001,
          "velocity": 0.9291338582677166
        },
        {
          "duration": 0.024999999999991473,
          "durationTicks": 6,
          "midi": 57,
          "name": "A3",
          "ticks": 18612,
          "time": 77.55000000000001,
          "velocity": 0.9291338582677166
        },
        {
          "duration": 0.025000000000005684,
          "durationTicks": 6,
          "midi": 52,
          "name": "E3",
          "ticks": 18636,
          "time": 77.65,
          "velocity": 0.9291338582677166
        },
        {
          "duration": 0.025000000000005684,
          "durationTicks": 6,
          "midi": 57,
          "name": "A3",
          "ticks": 18636,
          "time": 77.65,
          "velocity": 0.9291338582677166
        },
        {
          "duration": 0.25,
          "durationTicks": 60,
          "midi": 57,
          "name": "A3",
          "ticks": 18660,
          "time": 77.75,
          "velocity": 0.9291338582677166
        },
        {
          "duration": 0.25,
          "durationTicks": 60,
          "midi": 52,
          "name": "E3",
          "ticks": 18660,
          "time": 77.75,
          "velocity": 0.9291338582677166
        },
        {
          "duration": 0.025000000000005684,
          "durationTicks": 6,
          "midi": 52,
          "name": "E3",
          "ticks": 18768,
          "time": 78.2,
          "velocity": 0.9291338582677166
        },
        {
          "duration": 0.025000000000005684,
          "durationTicks": 6,
          "midi": 57,
          "name": "A3",
          "ticks": 18768,
          "time": 78.2,
          "velocity": 0.9291338582677166
        },
        {
          "duration": 0.024999999999991473,
          "durationTicks": 6,
          "midi": 52,
          "name": "E3",
          "ticks": 18792,
          "time": 78.30000000000001,
          "velocity": 0.9291338582677166
        },
        {
          "duration": 0.024999999999991473,
          "durationTicks": 6,
          "midi": 57,
          "name": "A3",
          "ticks": 18792,
          "time": 78.30000000000001,
          "velocity": 0.9291338582677166
        },
        {
          "duration": 0.375,
          "durationTicks": 90,
          "midi": 52,
          "name": "E3",
          "ticks": 18816,
          "time": 78.4,
          "velocity": 0.9291338582677166
        },
        {
          "duration": 0.375,
          "durationTicks": 90,
          "midi": 56,
          "name": "G#3",
          "ticks": 18816,
          "time": 78.4,
          "velocity": 0.9291338582677166
        },
        {
          "duration": 0.4000000000000057,
          "durationTicks": 96,
          "midi": 52,
          "name": "E3",
          "ticks": 18960,
          "time": 79,
          "velocity": 0.9291338582677166
        },
        {
          "duration": 0.4000000000000057,
          "durationTicks": 96,
          "midi": 56,
          "name": "G#3",
          "ticks": 18960,
          "time": 79,
          "velocity": 0.9291338582677166
        },
        {
          "duration": 0.20000000000000284,
          "durationTicks": 48,
          "midi": 52,
          "name": "E3",
          "ticks": 19056,
          "time": 79.4,
          "velocity": 0.9291338582677166
        },
        {
          "duration": 0.20000000000000284,
          "durationTicks": 48,
          "midi": 56,
          "name": "G#3",
          "ticks": 19056,
          "time": 79.4,
          "velocity": 0.9291338582677166
        },
        {
          "duration": 0.20000000000000284,
          "durationTicks": 48,
          "midi": 56,
          "name": "G#3",
          "ticks": 19104,
          "time": 79.60000000000001,
          "velocity": 0.9291338582677166
        },
        {
          "duration": 0.20000000000000284,
          "durationTicks": 48,
          "midi": 52,
          "name": "E3",
          "ticks": 19104,
          "time": 79.60000000000001,
          "velocity": 0.9291338582677166
        },
        {
          "duration": 0.025000000000005684,
          "durationTicks": 6,
          "midi": 56,
          "name": "G#3",
          "ticks": 19176,
          "time": 79.9,
          "velocity": 0.9133858267716536
        },
        {
          "duration": 0.025000000000005684,
          "durationTicks": 6,
          "midi": 52,
          "name": "E3",
          "ticks": 19176,
          "time": 79.9,
          "velocity": 0.9133858267716536
        },
        {
          "duration": 0.20000000000000284,
          "durationTicks": 48,
          "midi": 50,
          "name": "D3",
          "ticks": 19200,
          "time": 80,
          "velocity": 0.952755905511811
        },
        {
          "duration": 0.20000000000000284,
          "durationTicks": 48,
          "midi": 57,
          "name": "A3",
          "ticks": 19200,
          "time": 80,
          "velocity": 0.952755905511811
        },
        {
          "duration": 0.20000000000000284,
          "durationTicks": 48,
          "midi": 57,
          "name": "A3",
          "ticks": 19248,
          "time": 80.2,
          "velocity": 0.952755905511811
        },
        {
          "duration": 0.20000000000000284,
          "durationTicks": 48,
          "midi": 50,
          "name": "D3",
          "ticks": 19248,
          "time": 80.2,
          "velocity": 0.952755905511811
        },
        {
          "duration": 0.025000000000005684,
          "durationTicks": 6,
          "midi": 59,
          "name": "B3",
          "ticks": 19320,
          "time": 80.5,
          "velocity": 0.952755905511811
        },
        {
          "duration": 0.025000000000005684,
          "durationTicks": 6,
          "midi": 50,
          "name": "D3",
          "ticks": 19320,
          "time": 80.5,
          "velocity": 0.952755905511811
        },
        {
          "duration": 0.024999999999991473,
          "durationTicks": 6,
          "midi": 59,
          "name": "B3",
          "ticks": 19344,
          "time": 80.60000000000001,
          "velocity": 0.952755905511811
        },
        {
          "duration": 0.024999999999991473,
          "durationTicks": 6,
          "midi": 50,
          "name": "D3",
          "ticks": 19344,
          "time": 80.60000000000001,
          "velocity": 0.952755905511811
        },
        {
          "duration": 0.025000000000005684,
          "durationTicks": 6,
          "midi": 50,
          "name": "D3",
          "ticks": 19368,
          "time": 80.7,
          "velocity": 0.952755905511811
        },
        {
          "duration": 0.025000000000005684,
          "durationTicks": 6,
          "midi": 59,
          "name": "B3",
          "ticks": 19368,
          "time": 80.7,
          "velocity": 0.952755905511811
        },
        {
          "duration": 0.19999999999998863,
          "durationTicks": 48,
          "midi": 59,
          "name": "B3",
          "ticks": 19392,
          "time": 80.80000000000001,
          "velocity": 0.952755905511811
        },
        {
          "duration": 0.19999999999998863,
          "durationTicks": 48,
          "midi": 52,
          "name": "E3",
          "ticks": 19392,
          "time": 80.80000000000001,
          "velocity": 0.952755905511811
        },
        {
          "duration": 0.20000000000000284,
          "durationTicks": 48,
          "midi": 52,
          "name": "E3",
          "ticks": 19440,
          "time": 81,
          "velocity": 0.952755905511811
        },
        {
          "duration": 0.20000000000000284,
          "durationTicks": 48,
          "midi": 59,
          "name": "B3",
          "ticks": 19440,
          "time": 81,
          "velocity": 0.952755905511811
        },
        {
          "duration": 0.024999999999991473,
          "durationTicks": 6,
          "midi": 59,
          "name": "B3",
          "ticks": 19512,
          "time": 81.30000000000001,
          "velocity": 0.952755905511811
        },
        {
          "duration": 0.024999999999991473,
          "durationTicks": 6,
          "midi": 50,
          "name": "D3",
          "ticks": 19512,
          "time": 81.30000000000001,
          "velocity": 0.952755905511811
        },
        {
          "duration": 0.025000000000005684,
          "durationTicks": 6,
          "midi": 50,
          "name": "D3",
          "ticks": 19536,
          "time": 81.4,
          "velocity": 0.952755905511811
        },
        {
          "duration": 0.025000000000005684,
          "durationTicks": 6,
          "midi": 59,
          "name": "B3",
          "ticks": 19536,
          "time": 81.4,
          "velocity": 0.952755905511811
        },
        {
          "duration": 0.025000000000005684,
          "durationTicks": 6,
          "midi": 50,
          "name": "D3",
          "ticks": 19560,
          "time": 81.5,
          "velocity": 0.952755905511811
        },
        {
          "duration": 0.025000000000005684,
          "durationTicks": 6,
          "midi": 59,
          "name": "B3",
          "ticks": 19560,
          "time": 81.5,
          "velocity": 0.952755905511811
        },
        {
          "duration": 0.20000000000000284,
          "durationTicks": 48,
          "midi": 57,
          "name": "A3",
          "ticks": 19584,
          "time": 81.60000000000001,
          "velocity": 0.952755905511811
        },
        {
          "duration": 0.20000000000000284,
          "durationTicks": 48,
          "midi": 52,
          "name": "E3",
          "ticks": 19584,
          "time": 81.60000000000001,
          "velocity": 0.952755905511811
        },
        {
          "duration": 0.19999999999998863,
          "durationTicks": 48,
          "midi": 57,
          "name": "A3",
          "ticks": 19632,
          "time": 81.80000000000001,
          "velocity": 0.952755905511811
        },
        {
          "duration": 0.19999999999998863,
          "durationTicks": 48,
          "midi": 52,
          "name": "E3",
          "ticks": 19632,
          "time": 81.80000000000001,
          "velocity": 0.952755905511811
        },
        {
          "duration": 0.025000000000005684,
          "durationTicks": 6,
          "midi": 52,
          "name": "E3",
          "ticks": 19698,
          "time": 82.075,
          "velocity": 0.952755905511811
        },
        {
          "duration": 0.024999999999991473,
          "durationTicks": 6,
          "midi": 56,
          "name": "G#3",
          "ticks": 19704,
          "time": 82.10000000000001,
          "velocity": 0.952755905511811
        },
        {
          "duration": 0.4000000000000057,
          "durationTicks": 96,
          "midi": 54,
          "name": "F#3",
          "ticks": 19728,
          "time": 82.2,
          "velocity": 0.952755905511811
        },
        {
          "duration": 0.4000000000000057,
          "durationTicks": 96,
          "midi": 49,
          "name": "C#3",
          "ticks": 19728,
          "time": 82.2,
          "velocity": 0.952755905511811
        },
        {
          "duration": 0.20000000000000284,
          "durationTicks": 48,
          "midi": 49,
          "name": "C#3",
          "ticks": 19824,
          "time": 82.60000000000001,
          "velocity": 0.952755905511811
        },
        {
          "duration": 0.20000000000000284,
          "durationTicks": 48,
          "midi": 54,
          "name": "F#3",
          "ticks": 19824,
          "time": 82.60000000000001,
          "velocity": 0.952755905511811
        },
        {
          "duration": 0.19999999999998863,
          "durationTicks": 48,
          "midi": 54,
          "name": "F#3",
          "ticks": 19872,
          "time": 82.80000000000001,
          "velocity": 0.952755905511811
        },
        {
          "duration": 0.19999999999998863,
          "durationTicks": 48,
          "midi": 49,
          "name": "C#3",
          "ticks": 19872,
          "time": 82.80000000000001,
          "velocity": 0.952755905511811
        },
        {
          "duration": 0.20000000000000284,
          "durationTicks": 48,
          "midi": 50,
          "name": "D3",
          "ticks": 19968,
          "time": 83.2,
          "velocity": 0.952755905511811
        },
        {
          "duration": 0.20000000000000284,
          "durationTicks": 48,
          "midi": 57,
          "name": "A3",
          "ticks": 19968,
          "time": 83.2,
          "velocity": 0.952755905511811
        },
        {
          "duration": 0.20000000000000284,
          "durationTicks": 48,
          "midi": 50,
          "name": "D3",
          "ticks": 20016,
          "time": 83.4,
          "velocity": 0.952755905511811
        },
        {
          "duration": 0.20000000000000284,
          "durationTicks": 48,
          "midi": 57,
          "name": "A3",
          "ticks": 20016,
          "time": 83.4,
          "velocity": 0.952755905511811
        },
        {
          "duration": 0.09999999999999432,
          "durationTicks": 24,
          "midi": 50,
          "name": "D3",
          "ticks": 20064,
          "time": 83.60000000000001,
          "velocity": 0.952755905511811
        },
        {
          "duration": 0.09999999999999432,
          "durationTicks": 24,
          "midi": 57,
          "name": "A3",
          "ticks": 20064,
          "time": 83.60000000000001,
          "velocity": 0.952755905511811
        },
        {
          "duration": 0.09999999999999432,
          "durationTicks": 24,
          "midi": 50,
          "name": "D3",
          "ticks": 20112,
          "time": 83.80000000000001,
          "velocity": 0.952755905511811
        },
        {
          "duration": 0.09999999999999432,
          "durationTicks": 24,
          "midi": 57,
          "name": "A3",
          "ticks": 20112,
          "time": 83.80000000000001,
          "velocity": 0.952755905511811
        },
        {
          "duration": 0.10000000000000853,
          "durationTicks": 24,
          "midi": 50,
          "name": "D3",
          "ticks": 20160,
          "time": 84,
          "velocity": 0.952755905511811
        },
        {
          "duration": 0.10000000000000853,
          "durationTicks": 24,
          "midi": 57,
          "name": "A3",
          "ticks": 20160,
          "time": 84,
          "velocity": 0.952755905511811
        },
        {
          "duration": 0.10000000000000853,
          "durationTicks": 24,
          "midi": 57,
          "name": "A3",
          "ticks": 20208,
          "time": 84.2,
          "velocity": 0.952755905511811
        },
        {
          "duration": 0.10000000000000853,
          "durationTicks": 24,
          "midi": 50,
          "name": "D3",
          "ticks": 20208,
          "time": 84.2,
          "velocity": 0.952755905511811
        },
        {
          "duration": 0.2750000000000057,
          "durationTicks": 66,
          "midi": 50,
          "name": "D3",
          "ticks": 20256,
          "time": 84.4,
          "velocity": 0.952755905511811
        },
        {
          "duration": 0.2750000000000057,
          "durationTicks": 66,
          "midi": 57,
          "name": "A3",
          "ticks": 20256,
          "time": 84.4,
          "velocity": 0.952755905511811
        },
        {
          "duration": 0.17499999999999716,
          "durationTicks": 42,
          "midi": 52,
          "name": "E3",
          "ticks": 20352,
          "time": 84.80000000000001,
          "velocity": 0.952755905511811
        },
        {
          "duration": 0.17499999999999716,
          "durationTicks": 42,
          "midi": 59,
          "name": "B3",
          "ticks": 20352,
          "time": 84.80000000000001,
          "velocity": 0.952755905511811
        },
        {
          "duration": 0.17500000000001137,
          "durationTicks": 42,
          "midi": 52,
          "name": "E3",
          "ticks": 20400,
          "time": 85,
          "velocity": 0.952755905511811
        },
        {
          "duration": 0.17500000000001137,
          "durationTicks": 42,
          "midi": 59,
          "name": "B3",
          "ticks": 20400,
          "time": 85,
          "velocity": 0.952755905511811
        },
        {
          "duration": 0.5,
          "durationTicks": 120,
          "midi": 54,
          "name": "F#3",
          "ticks": 20496,
          "time": 85.4,
          "velocity": 0.952755905511811
        },
        {
          "duration": 0.20000000000000284,
          "durationTicks": 48,
          "midi": 56,
          "name": "G#3",
          "ticks": 20640,
          "time": 86,
          "velocity": 0.952755905511811
        },
        {
          "duration": 0.29999999999999716,
          "durationTicks": 72,
          "midi": 57,
          "name": "A3",
          "ticks": 20736,
          "time": 86.4,
          "velocity": 0.9291338582677166
        },
        {
          "duration": 0.29999999999999716,
          "durationTicks": 72,
          "midi": 52,
          "name": "E3",
          "ticks": 20736,
          "time": 86.4,
          "velocity": 0.9291338582677166
        },
        {
          "duration": 0.10000000000000853,
          "durationTicks": 24,
          "midi": 52,
          "name": "E3",
          "ticks": 20808,
          "time": 86.7,
          "velocity": 0.9291338582677166
        },
        {
          "duration": 0.10000000000000853,
          "durationTicks": 24,
          "midi": 57,
          "name": "A3",
          "ticks": 20808,
          "time": 86.7,
          "velocity": 0.9291338582677166
        },
        {
          "duration": 0.025000000000005684,
          "durationTicks": 6,
          "midi": 57,
          "name": "A3",
          "ticks": 20916,
          "time": 87.15,
          "velocity": 0.9291338582677166
        },
        {
          "duration": 0.025000000000005684,
          "durationTicks": 6,
          "midi": 52,
          "name": "E3",
          "ticks": 20916,
          "time": 87.15,
          "velocity": 0.9291338582677166
        },
        {
          "duration": 0.025000000000005684,
          "durationTicks": 6,
          "midi": 52,
          "name": "E3",
          "ticks": 20940,
          "time": 87.25,
          "velocity": 0.9291338582677166
        },
        {
          "duration": 0.025000000000005684,
          "durationTicks": 6,
          "midi": 57,
          "name": "A3",
          "ticks": 20940,
          "time": 87.25,
          "velocity": 0.9291338582677166
        },
        {
          "duration": 0.25,
          "durationTicks": 60,
          "midi": 57,
          "name": "A3",
          "ticks": 20964,
          "time": 87.35000000000001,
          "velocity": 0.9291338582677166
        },
        {
          "duration": 0.25,
          "durationTicks": 60,
          "midi": 52,
          "name": "E3",
          "ticks": 20964,
          "time": 87.35000000000001,
          "velocity": 0.9291338582677166
        },
        {
          "duration": 0.024999999999991473,
          "durationTicks": 6,
          "midi": 57,
          "name": "A3",
          "ticks": 21072,
          "time": 87.80000000000001,
          "velocity": 0.9291338582677166
        },
        {
          "duration": 0.024999999999991473,
          "durationTicks": 6,
          "midi": 52,
          "name": "E3",
          "ticks": 21072,
          "time": 87.80000000000001,
          "velocity": 0.9291338582677166
        },
        {
          "duration": 0.025000000000005684,
          "durationTicks": 6,
          "midi": 52,
          "name": "E3",
          "ticks": 21096,
          "time": 87.9,
          "velocity": 0.9291338582677166
        },
        {
          "duration": 0.025000000000005684,
          "durationTicks": 6,
          "midi": 57,
          "name": "A3",
          "ticks": 21096,
          "time": 87.9,
          "velocity": 0.9291338582677166
        },
        {
          "duration": 0.375,
          "durationTicks": 90,
          "midi": 56,
          "name": "G#3",
          "ticks": 21120,
          "time": 88,
          "velocity": 0.9291338582677166
        },
        {
          "duration": 0.375,
          "durationTicks": 90,
          "midi": 52,
          "name": "E3",
          "ticks": 21120,
          "time": 88,
          "velocity": 0.9291338582677166
        },
        {
          "duration": 0.3999999999999915,
          "durationTicks": 96,
          "midi": 56,
          "name": "G#3",
          "ticks": 21264,
          "time": 88.60000000000001,
          "velocity": 0.9291338582677166
        },
        {
          "duration": 0.3999999999999915,
          "durationTicks": 96,
          "midi": 52,
          "name": "E3",
          "ticks": 21264,
          "time": 88.60000000000001,
          "velocity": 0.9291338582677166
        },
        {
          "duration": 0.20000000000000284,
          "durationTicks": 48,
          "midi": 56,
          "name": "G#3",
          "ticks": 21360,
          "time": 89,
          "velocity": 0.9291338582677166
        },
        {
          "duration": 0.20000000000000284,
          "durationTicks": 48,
          "midi": 52,
          "name": "E3",
          "ticks": 21360,
          "time": 89,
          "velocity": 0.9291338582677166
        },
        {
          "duration": 0.20000000000000284,
          "durationTicks": 48,
          "midi": 52,
          "name": "E3",
          "ticks": 21408,
          "time": 89.2,
          "velocity": 0.9291338582677166
        },
        {
          "duration": 0.20000000000000284,
          "durationTicks": 48,
          "midi": 56,
          "name": "G#3",
          "ticks": 21408,
          "time": 89.2,
          "velocity": 0.9291338582677166
        },
        {
          "duration": 0.29999999999999716,
          "durationTicks": 72,
          "midi": 52,
          "name": "E3",
          "ticks": 21504,
          "time": 89.60000000000001,
          "velocity": 0.9291338582677166
        },
        {
          "duration": 0.29999999999999716,
          "durationTicks": 72,
          "midi": 57,
          "name": "A3",
          "ticks": 21504,
          "time": 89.60000000000001,
          "velocity": 0.9291338582677166
        },
        {
          "duration": 0.09999999999999432,
          "durationTicks": 24,
          "midi": 52,
          "name": "E3",
          "ticks": 21576,
          "time": 89.9,
          "velocity": 0.9291338582677166
        },
        {
          "duration": 0.09999999999999432,
          "durationTicks": 24,
          "midi": 57,
          "name": "A3",
          "ticks": 21576,
          "time": 89.9,
          "velocity": 0.9291338582677166
        },
        {
          "duration": 0.024999999999991473,
          "durationTicks": 6,
          "midi": 52,
          "name": "E3",
          "ticks": 21684,
          "time": 90.35000000000001,
          "velocity": 0.9291338582677166
        },
        {
          "duration": 0.024999999999991473,
          "durationTicks": 6,
          "midi": 57,
          "name": "A3",
          "ticks": 21684,
          "time": 90.35000000000001,
          "velocity": 0.9291338582677166
        },
        {
          "duration": 0.025000000000005684,
          "durationTicks": 6,
          "midi": 52,
          "name": "E3",
          "ticks": 21708,
          "time": 90.45,
          "velocity": 0.9291338582677166
        },
        {
          "duration": 0.025000000000005684,
          "durationTicks": 6,
          "midi": 57,
          "name": "A3",
          "ticks": 21708,
          "time": 90.45,
          "velocity": 0.9291338582677166
        },
        {
          "duration": 0.25,
          "durationTicks": 60,
          "midi": 57,
          "name": "A3",
          "ticks": 21732,
          "time": 90.55000000000001,
          "velocity": 0.9291338582677166
        },
        {
          "duration": 0.25,
          "durationTicks": 60,
          "midi": 52,
          "name": "E3",
          "ticks": 21732,
          "time": 90.55000000000001,
          "velocity": 0.9291338582677166
        },
        {
          "duration": 0.025000000000005684,
          "durationTicks": 6,
          "midi": 57,
          "name": "A3",
          "ticks": 21840,
          "time": 91,
          "velocity": 0.9291338582677166
        },
        {
          "duration": 0.025000000000005684,
          "durationTicks": 6,
          "midi": 52,
          "name": "E3",
          "ticks": 21840,
          "time": 91,
          "velocity": 0.9291338582677166
        },
        {
          "duration": 0.024999999999991473,
          "durationTicks": 6,
          "midi": 52,
          "name": "E3",
          "ticks": 21864,
          "time": 91.10000000000001,
          "velocity": 0.9291338582677166
        },
        {
          "duration": 0.024999999999991473,
          "durationTicks": 6,
          "midi": 57,
          "name": "A3",
          "ticks": 21864,
          "time": 91.10000000000001,
          "velocity": 0.9291338582677166
        },
        {
          "duration": 0.375,
          "durationTicks": 90,
          "midi": 56,
          "name": "G#3",
          "ticks": 21888,
          "time": 91.2,
          "velocity": 0.9291338582677166
        },
        {
          "duration": 0.375,
          "durationTicks": 90,
          "midi": 52,
          "name": "E3",
          "ticks": 21888,
          "time": 91.2,
          "velocity": 0.9291338582677166
        },
        {
          "duration": 0.3999999999999915,
          "durationTicks": 96,
          "midi": 52,
          "name": "E3",
          "ticks": 22032,
          "time": 91.80000000000001,
          "velocity": 0.9291338582677166
        },
        {
          "duration": 0.3999999999999915,
          "durationTicks": 96,
          "midi": 56,
          "name": "G#3",
          "ticks": 22032,
          "time": 91.80000000000001,
          "velocity": 0.9291338582677166
        },
        {
          "duration": 0.20000000000000284,
          "durationTicks": 48,
          "midi": 56,
          "name": "G#3",
          "ticks": 22128,
          "time": 92.2,
          "velocity": 0.9291338582677166
        },
        {
          "duration": 0.20000000000000284,
          "durationTicks": 48,
          "midi": 52,
          "name": "E3",
          "ticks": 22128,
          "time": 92.2,
          "velocity": 0.9291338582677166
        },
        {
          "duration": 0.20000000000000284,
          "durationTicks": 48,
          "midi": 52,
          "name": "E3",
          "ticks": 22176,
          "time": 92.4,
          "velocity": 0.9291338582677166
        },
        {
          "duration": 0.20000000000000284,
          "durationTicks": 48,
          "midi": 56,
          "name": "G#3",
          "ticks": 22176,
          "time": 92.4,
          "velocity": 0.9291338582677166
        },
        {
          "duration": 0.025000000000005684,
          "durationTicks": 6,
          "midi": 56,
          "name": "G#3",
          "ticks": 22248,
          "time": 92.7,
          "velocity": 0.9133858267716536
        },
        {
          "duration": 0.025000000000005684,
          "durationTicks": 6,
          "midi": 52,
          "name": "E3",
          "ticks": 22248,
          "time": 92.7,
          "velocity": 0.9133858267716536
        },
        {
          "duration": 0.19999999999998863,
          "durationTicks": 48,
          "midi": 57,
          "name": "A3",
          "ticks": 22272,
          "time": 92.80000000000001,
          "velocity": 0.952755905511811
        },
        {
          "duration": 0.19999999999998863,
          "durationTicks": 48,
          "midi": 50,
          "name": "D3",
          "ticks": 22272,
          "time": 92.80000000000001,
          "velocity": 0.952755905511811
        },
        {
          "duration": 0.20000000000000284,
          "durationTicks": 48,
          "midi": 57,
          "name": "A3",
          "ticks": 22320,
          "time": 93,
          "velocity": 0.952755905511811
        },
        {
          "duration": 0.20000000000000284,
          "durationTicks": 48,
          "midi": 50,
          "name": "D3",
          "ticks": 22320,
          "time": 93,
          "velocity": 0.952755905511811
        },
        {
          "duration": 0.024999999999991473,
          "durationTicks": 6,
          "midi": 50,
          "name": "D3",
          "ticks": 22392,
          "time": 93.30000000000001,
          "velocity": 0.952755905511811
        },
        {
          "duration": 0.024999999999991473,
          "durationTicks": 6,
          "midi": 59,
          "name": "B3",
          "ticks": 22392,
          "time": 93.30000000000001,
          "velocity": 0.952755905511811
        },
        {
          "duration": 0.025000000000005684,
          "durationTicks": 6,
          "midi": 50,
          "name": "D3",
          "ticks": 22416,
          "time": 93.4,
          "velocity": 0.952755905511811
        },
        {
          "duration": 0.025000000000005684,
          "durationTicks": 6,
          "midi": 59,
          "name": "B3",
          "ticks": 22416,
          "time": 93.4,
          "velocity": 0.952755905511811
        },
        {
          "duration": 0.025000000000005684,
          "durationTicks": 6,
          "midi": 50,
          "name": "D3",
          "ticks": 22440,
          "time": 93.5,
          "velocity": 0.952755905511811
        },
        {
          "duration": 0.025000000000005684,
          "durationTicks": 6,
          "midi": 59,
          "name": "B3",
          "ticks": 22440,
          "time": 93.5,
          "velocity": 0.952755905511811
        },
        {
          "duration": 0.20000000000000284,
          "durationTicks": 48,
          "midi": 59,
          "name": "B3",
          "ticks": 22464,
          "time": 93.60000000000001,
          "velocity": 0.952755905511811
        },
        {
          "duration": 0.20000000000000284,
          "durationTicks": 48,
          "midi": 52,
          "name": "E3",
          "ticks": 22464,
          "time": 93.60000000000001,
          "velocity": 0.952755905511811
        },
        {
          "duration": 0.19999999999998863,
          "durationTicks": 48,
          "midi": 59,
          "name": "B3",
          "ticks": 22512,
          "time": 93.80000000000001,
          "velocity": 0.952755905511811
        },
        {
          "duration": 0.19999999999998863,
          "durationTicks": 48,
          "midi": 52,
          "name": "E3",
          "ticks": 22512,
          "time": 93.80000000000001,
          "velocity": 0.952755905511811
        },
        {
          "duration": 0.024999999999991473,
          "durationTicks": 6,
          "midi": 50,
          "name": "D3",
          "ticks": 22584,
          "time": 94.10000000000001,
          "velocity": 0.952755905511811
        },
        {
          "duration": 0.024999999999991473,
          "durationTicks": 6,
          "midi": 59,
          "name": "B3",
          "ticks": 22584,
          "time": 94.10000000000001,
          "velocity": 0.952755905511811
        },
        {
          "duration": 0.025000000000005684,
          "durationTicks": 6,
          "midi": 50,
          "name": "D3",
          "ticks": 22608,
          "time": 94.2,
          "velocity": 0.952755905511811
        },
        {
          "duration": 0.025000000000005684,
          "durationTicks": 6,
          "midi": 59,
          "name": "B3",
          "ticks": 22608,
          "time": 94.2,
          "velocity": 0.952755905511811
        },
        {
          "duration": 0.024999999999991473,
          "durationTicks": 6,
          "midi": 59,
          "name": "B3",
          "ticks": 22632,
          "time": 94.30000000000001,
          "velocity": 0.952755905511811
        },
        {
          "duration": 0.024999999999991473,
          "durationTicks": 6,
          "midi": 50,
          "name": "D3",
          "ticks": 22632,
          "time": 94.30000000000001,
          "velocity": 0.952755905511811
        },
        {
          "duration": 0.20000000000000284,
          "durationTicks": 48,
          "midi": 57,
          "name": "A3",
          "ticks": 22656,
          "time": 94.4,
          "velocity": 0.952755905511811
        },
        {
          "duration": 0.20000000000000284,
          "durationTicks": 48,
          "midi": 52,
          "name": "E3",
          "ticks": 22656,
          "time": 94.4,
          "velocity": 0.952755905511811
        },
        {
          "duration": 0.20000000000000284,
          "durationTicks": 48,
          "midi": 57,
          "name": "A3",
          "ticks": 22704,
          "time": 94.60000000000001,
          "velocity": 0.952755905511811
        },
        {
          "duration": 0.20000000000000284,
          "durationTicks": 48,
          "midi": 52,
          "name": "E3",
          "ticks": 22704,
          "time": 94.60000000000001,
          "velocity": 0.952755905511811
        },
        {
          "duration": 0.025000000000005684,
          "durationTicks": 6,
          "midi": 52,
          "name": "E3",
          "ticks": 22770,
          "time": 94.875,
          "velocity": 0.952755905511811
        },
        {
          "duration": 0.025000000000005684,
          "durationTicks": 6,
          "midi": 56,
          "name": "G#3",
          "ticks": 22776,
          "time": 94.9,
          "velocity": 0.952755905511811
        },
        {
          "duration": 0.4000000000000057,
          "durationTicks": 96,
          "midi": 54,
          "name": "F#3",
          "ticks": 22800,
          "time": 95,
          "velocity": 0.952755905511811
        },
        {
          "duration": 0.4000000000000057,
          "durationTicks": 96,
          "midi": 49,
          "name": "C#3",
          "ticks": 22800,
          "time": 95,
          "velocity": 0.952755905511811
        },
        {
          "duration": 0.20000000000000284,
          "durationTicks": 48,
          "midi": 49,
          "name": "C#3",
          "ticks": 22896,
          "time": 95.4,
          "velocity": 0.952755905511811
        },
        {
          "duration": 0.20000000000000284,
          "durationTicks": 48,
          "midi": 54,
          "name": "F#3",
          "ticks": 22896,
          "time": 95.4,
          "velocity": 0.952755905511811
        },
        {
          "duration": 0.20000000000000284,
          "durationTicks": 48,
          "midi": 49,
          "name": "C#3",
          "ticks": 22944,
          "time": 95.60000000000001,
          "velocity": 0.952755905511811
        },
        {
          "duration": 0.20000000000000284,
          "durationTicks": 48,
          "midi": 54,
          "name": "F#3",
          "ticks": 22944,
          "time": 95.60000000000001,
          "velocity": 0.952755905511811
        },
        {
          "duration": 0.20000000000000284,
          "durationTicks": 48,
          "midi": 54,
          "name": "F#3",
          "ticks": 23040,
          "time": 96,
          "velocity": 0.952755905511811
        },
        {
          "duration": 0.20000000000000284,
          "durationTicks": 48,
          "midi": 57,
          "name": "A3",
          "ticks": 23040,
          "time": 96,
          "velocity": 0.952755905511811
        },
        {
          "duration": 0.20000000000000284,
          "durationTicks": 48,
          "midi": 57,
          "name": "A3",
          "ticks": 23088,
          "time": 96.2,
          "velocity": 0.952755905511811
        },
        {
          "duration": 0.20000000000000284,
          "durationTicks": 48,
          "midi": 54,
          "name": "F#3",
          "ticks": 23088,
          "time": 96.2,
          "velocity": 0.952755905511811
        },
        {
          "duration": 0.09999999999999432,
          "durationTicks": 24,
          "midi": 50,
          "name": "D3",
          "ticks": 23136,
          "time": 96.4,
          "velocity": 0.952755905511811
        },
        {
          "duration": 0.09999999999999432,
          "durationTicks": 24,
          "midi": 57,
          "name": "A3",
          "ticks": 23136,
          "time": 96.4,
          "velocity": 0.952755905511811
        },
        {
          "duration": 0.09999999999999432,
          "durationTicks": 24,
          "midi": 57,
          "name": "A3",
          "ticks": 23184,
          "time": 96.60000000000001,
          "velocity": 0.952755905511811
        },
        {
          "duration": 0.09999999999999432,
          "durationTicks": 24,
          "midi": 50,
          "name": "D3",
          "ticks": 23184,
          "time": 96.60000000000001,
          "velocity": 0.952755905511811
        },
        {
          "duration": 0.09999999999999432,
          "durationTicks": 24,
          "midi": 50,
          "name": "D3",
          "ticks": 23232,
          "time": 96.80000000000001,
          "velocity": 0.952755905511811
        },
        {
          "duration": 0.09999999999999432,
          "durationTicks": 24,
          "midi": 57,
          "name": "A3",
          "ticks": 23232,
          "time": 96.80000000000001,
          "velocity": 0.952755905511811
        },
        {
          "duration": 0.17500000000001137,
          "durationTicks": 42,
          "midi": 57,
          "name": "A3",
          "ticks": 23280,
          "time": 97,
          "velocity": 0.952755905511811
        },
        {
          "duration": 0.17500000000001137,
          "durationTicks": 42,
          "midi": 50,
          "name": "D3",
          "ticks": 23280,
          "time": 97,
          "velocity": 0.952755905511811
        },
        {
          "duration": 0.17499999999999716,
          "durationTicks": 42,
          "midi": 52,
          "name": "E3",
          "ticks": 23376,
          "time": 97.4,
          "velocity": 0.952755905511811
        },
        {
          "duration": 0.17499999999999716,
          "durationTicks": 42,
          "midi": 59,
          "name": "B3",
          "ticks": 23376,
          "time": 97.4,
          "velocity": 0.952755905511811
        },
        {
          "duration": 0.17499999999999716,
          "durationTicks": 42,
          "midi": 52,
          "name": "E3",
          "ticks": 23472,
          "time": 97.80000000000001,
          "velocity": 0.952755905511811
        },
        {
          "duration": 0.17499999999999716,
          "durationTicks": 42,
          "midi": 59,
          "name": "B3",
          "ticks": 23472,
          "time": 97.80000000000001,
          "velocity": 0.952755905511811
        },
        {
          "duration": 0.07500000000000284,
          "durationTicks": 18,
          "midi": 59,
          "name": "B3",
          "ticks": 23520,
          "time": 98,
          "velocity": 0.952755905511811
        },
        {
          "duration": 0.07500000000000284,
          "durationTicks": 18,
          "midi": 52,
          "name": "E3",
          "ticks": 23520,
          "time": 98,
          "velocity": 0.952755905511811
        },
        {
          "duration": 0.07500000000000284,
          "durationTicks": 18,
          "midi": 59,
          "name": "B3",
          "ticks": 23568,
          "time": 98.2,
          "velocity": 0.952755905511811
        },
        {
          "duration": 0.07500000000000284,
          "durationTicks": 18,
          "midi": 52,
          "name": "E3",
          "ticks": 23568,
          "time": 98.2,
          "velocity": 0.952755905511811
        },
        {
          "duration": 0.17499999999999716,
          "durationTicks": 42,
          "midi": 52,
          "name": "E3",
          "ticks": 23616,
          "time": 98.4,
          "velocity": 0.952755905511811
        },
        {
          "duration": 0.17499999999999716,
          "durationTicks": 42,
          "midi": 59,
          "name": "B3",
          "ticks": 23616,
          "time": 98.4,
          "velocity": 0.952755905511811
        },
        {
          "duration": 0.17499999999999716,
          "durationTicks": 42,
          "midi": 52,
          "name": "E3",
          "ticks": 23712,
          "time": 98.80000000000001,
          "velocity": 0.952755905511811
        },
        {
          "duration": 0.17499999999999716,
          "durationTicks": 42,
          "midi": 59,
          "name": "B3",
          "ticks": 23712,
          "time": 98.80000000000001,
          "velocity": 0.952755905511811
        },
        {
          "duration": 0.17499999999999716,
          "durationTicks": 42,
          "midi": 45,
          "name": "A2",
          "ticks": 23808,
          "time": 99.2,
          "velocity": 0.952755905511811
        },
        {
          "duration": 0.17499999999999716,
          "durationTicks": 42,
          "midi": 40,
          "name": "E2",
          "ticks": 23856,
          "time": 99.4,
          "velocity": 0.952755905511811
        },
        {
          "duration": 0.17499999999999716,
          "durationTicks": 42,
          "midi": 45,
          "name": "A2",
          "ticks": 23904,
          "time": 99.60000000000001,
          "velocity": 0.952755905511811
        },
        {
          "duration": 0.375,
          "durationTicks": 90,
          "midi": 44,
          "name": "G#2",
          "ticks": 23952,
          "time": 99.80000000000001,
          "velocity": 0.952755905511811
        },
        {
          "duration": 0.17499999999999716,
          "durationTicks": 42,
          "midi": 40,
          "name": "E2",
          "ticks": 24048,
          "time": 100.2,
          "velocity": 0.952755905511811
        },
        {
          "duration": 0.17499999999999716,
          "durationTicks": 42,
          "midi": 44,
          "name": "G#2",
          "ticks": 24096,
          "time": 100.4,
          "velocity": 0.952755905511811
        },
        {
          "duration": 0.375,
          "durationTicks": 90,
          "midi": 43,
          "name": "G2",
          "ticks": 24144,
          "time": 100.60000000000001,
          "velocity": 0.952755905511811
        },
        {
          "duration": 0.17500000000001137,
          "durationTicks": 42,
          "midi": 40,
          "name": "E2",
          "ticks": 24240,
          "time": 101,
          "velocity": 0.952755905511811
        },
        {
          "duration": 0.17499999999999716,
          "durationTicks": 42,
          "midi": 43,
          "name": "G2",
          "ticks": 24288,
          "time": 101.2,
          "velocity": 0.952755905511811
        },
        {
          "duration": 0.875,
          "durationTicks": 210,
          "midi": 42,
          "name": "F#2",
          "ticks": 24336,
          "time": 101.4,
          "velocity": 0.952755905511811
        },
        {
          "duration": 0.5958333333333172,
          "durationTicks": 143,
          "midi": 41,
          "name": "F2",
          "ticks": 24577,
          "time": 102.40416666666668,
          "velocity": 0.9212598425196851
        },
        {
          "duration": 0.5958333333333314,
          "durationTicks": 143,
          "midi": 43,
          "name": "G2",
          "ticks": 24720,
          "time": 103,
          "velocity": 0.9212598425196851
        },
        {
          "duration": 0.3958333333333286,
          "durationTicks": 95,
          "midi": 45,
          "name": "A2",
          "ticks": 24864,
          "time": 103.60000000000001,
          "velocity": 0.9212598425196851
        }
      ]
    },
    {
      "channel": 0,
      "controlChanges": {
        "6": [
          {
            "number": 6,
            "ticks": 0,
            "time": 0,
            "value": 0.09448818897637795
          }
        ],
        "7": [
          {
            "number": 7,
            "ticks": 0,
            "time": 0,
            "value": 0.7007874015748031
          },
          {
            "number": 7,
            "ticks": 0,
            "time": 0,
            "value": 0.7007874015748031
          }
        ],
        "10": [
          {
            "number": 10,
            "ticks": 0,
            "time": 0,
            "value": 0.23622047244094488
          },
          {
            "number": 10,
            "ticks": 0,
            "time": 0,
            "value": 0.23622047244094488
          }
        ],
        "100": [
          {
            "number": 100,
            "ticks": 0,
            "time": 0,
            "value": 0
          }
        ],
        "101": [
          {
            "number": 101,
            "ticks": 0,
            "time": 0,
            "value": 0
          }
        ]
      },
      "pitchBends": [
        {
          "ticks": 0,
          "time": 0,
          "value": 0
        },
        {
          "ticks": 0,
          "time": 0,
          "value": 0
        }
      ],
      "instrument": {
        "family": "piano",
        "number": 0,
        "name": "acoustic grand piano"
      },
      "name": "by Astolfo Alter",
      "notes": [],
      "endOfTrackTicks": 25715
    },
    {
      "channel": 1,
      "controlChanges": {
        "6": [
          {
            "number": 6,
            "ticks": 0,
            "time": 0,
            "value": 0.09448818897637795
          },
          {
            "number": 6,
            "ticks": 0,
            "time": 0,
            "value": 0.09448818897637795
          },
          {
            "number": 6,
            "ticks": 25714,
            "time": 107.14166666666668,
            "value": 0.09448818897637795
          },
          {
            "number": 6,
            "ticks": 25715,
            "time": 107.14583333333333,
            "value": 0.09448818897637795
          }
        ],
        "7": [
          {
            "number": 7,
            "ticks": 0,
            "time": 0,
            "value": 0.7007874015748031
          },
          {
            "number": 7,
            "ticks": 0,
            "time": 0,
            "value": 0.7007874015748031
          },
          {
            "number": 7,
            "ticks": 25714,
            "time": 107.14166666666668,
            "value": 0.7007874015748031
          },
          {
            "number": 7,
            "ticks": 25715,
            "time": 107.14583333333333,
            "value": 0.7007874015748031
          }
        ],
        "10": [
          {
            "number": 10,
            "ticks": 0,
            "time": 0,
            "value": 0.23622047244094488
          },
          {
            "number": 10,
            "ticks": 0,
            "time": 0,
            "value": 0.23622047244094488
          },
          {
            "number": 10,
            "ticks": 25714,
            "time": 107.14166666666668,
            "value": 0.23622047244094488
          },
          {
            "number": 10,
            "ticks": 25715,
            "time": 107.14583333333333,
            "value": 0.23622047244094488
          }
        ],
        "93": [
          {
            "number": 93,
            "ticks": 0,
            "time": 0,
            "value": 0.2204724409448819
          },
          {
            "number": 93,
            "ticks": 0,
            "time": 0,
            "value": 0.2204724409448819
          },
          {
            "number": 93,
            "ticks": 0,
            "time": 0,
            "value": 0.2204724409448819
          },
          {
            "number": 93,
            "ticks": 25714,
            "time": 107.14166666666668,
            "value": 0.2204724409448819
          },
          {
            "number": 93,
            "ticks": 25715,
            "time": 107.14583333333333,
            "value": 0.2204724409448819
          }
        ],
        "100": [
          {
            "number": 100,
            "ticks": 0,
            "time": 0,
            "value": 0
          },
          {
            "number": 100,
            "ticks": 0,
            "time": 0,
            "value": 0
          },
          {
            "number": 100,
            "ticks": 25714,
            "time": 107.14166666666668,
            "value": 0
          },
          {
            "number": 100,
            "ticks": 25715,
            "time": 107.14583333333333,
            "value": 0
          }
        ],
        "101": [
          {
            "number": 101,
            "ticks": 0,
            "time": 0,
            "value": 0
          },
          {
            "number": 101,
            "ticks": 0,
            "time": 0,
            "value": 0
          },
          {
            "number": 101,
            "ticks": 25714,
            "time": 107.14166666666668,
            "value": 0
          },
          {
            "number": 101,
            "ticks": 25715,
            "time": 107.14583333333333,
            "value": 0
          }
        ]
      },
      "pitchBends": [
        {
          "ticks": 0,
          "time": 0,
          "value": 0
        },
        {
          "ticks": 0,
          "time": 0,
          "value": 0
        },
        {
          "ticks": 25714,
          "time": 107.14166666666668,
          "value": 0
        },
        {
          "ticks": 25715,
          "time": 107.14583333333333,
          "value": 0
        }
      ],
      "instrument": {
        "family": "synth lead",
        "number": 81,
        "name": "lead 2 (sawtooth)"
      },
      "name": "",
      "notes": [
        {
          "duration": 0.6000000000000001,
          "durationTicks": 144,
          "midi": 74,
          "name": "D5",
          "ticks": 384,
          "time": 1.6,
          "velocity": 0.905511811023622
        },
        {
          "duration": 0.6000000000000001,
          "durationTicks": 144,
          "midi": 62,
          "name": "D4",
          "ticks": 384,
          "time": 1.6,
          "velocity": 0.6850393700787402
        },
        {
          "duration": 0.6000000000000001,
          "durationTicks": 144,
          "midi": 61,
          "name": "C#4",
          "ticks": 528,
          "time": 2.2,
          "velocity": 0.6850393700787402
        },
        {
          "duration": 0.6000000000000001,
          "durationTicks": 144,
          "midi": 73,
          "name": "C#5",
          "ticks": 528,
          "time": 2.2,
          "velocity": 0.905511811023622
        },
        {
          "duration": 0.6000000000000001,
          "durationTicks": 144,
          "midi": 71,
          "name": "B4",
          "ticks": 672,
          "time": 2.8000000000000003,
          "velocity": 0.905511811023622
        },
        {
          "duration": 0.6000000000000001,
          "durationTicks": 144,
          "midi": 59,
          "name": "B3",
          "ticks": 672,
          "time": 2.8000000000000003,
          "velocity": 0.6850393700787402
        },
        {
          "duration": 0.3999999999999999,
          "durationTicks": 96,
          "midi": 62,
          "name": "D4",
          "ticks": 816,
          "time": 3.4000000000000004,
          "velocity": 0.6850393700787402
        },
        {
          "duration": 0.3999999999999999,
          "durationTicks": 96,
          "midi": 74,
          "name": "D5",
          "ticks": 816,
          "time": 3.4000000000000004,
          "velocity": 0.905511811023622
        },
        {
          "duration": 0.19999999999999973,
          "durationTicks": 48,
          "midi": 74,
          "name": "D5",
          "ticks": 912,
          "time": 3.8000000000000003,
          "velocity": 0.905511811023622
        },
        {
          "duration": 0.19999999999999973,
          "durationTicks": 48,
          "midi": 62,
          "name": "D4",
          "ticks": 912,
          "time": 3.8000000000000003,
          "velocity": 0.6850393700787402
        },
        {
          "duration": 0.20000000000000018,
          "durationTicks": 48,
          "midi": 74,
          "name": "D5",
          "ticks": 960,
          "time": 4,
          "velocity": 0.905511811023622
        },
        {
          "duration": 0.20000000000000018,
          "durationTicks": 48,
          "midi": 62,
          "name": "D4",
          "ticks": 960,
          "time": 4,
          "velocity": 0.6850393700787402
        },
        {
          "duration": 0.20000000000000018,
          "durationTicks": 48,
          "midi": 62,
          "name": "D4",
          "ticks": 1008,
          "time": 4.2,
          "velocity": 0.6850393700787402
        },
        {
          "duration": 0.20000000000000018,
          "durationTicks": 48,
          "midi": 74,
          "name": "D5",
          "ticks": 1008,
          "time": 4.2,
          "velocity": 0.905511811023622
        },
        {
          "duration": 0.39999999999999947,
          "durationTicks": 96,
          "midi": 76,
          "name": "E5",
          "ticks": 1104,
          "time": 4.6000000000000005,
          "velocity": 0.905511811023622
        },
        {
          "duration": 0.39999999999999947,
          "durationTicks": 96,
          "midi": 64,
          "name": "E4",
          "ticks": 1104,
          "time": 4.6000000000000005,
          "velocity": 0.6535433070866141
        },
        {
          "duration": 0.20000000000000018,
          "durationTicks": 48,
          "midi": 64,
          "name": "E4",
          "ticks": 1200,
          "time": 5,
          "velocity": 0.6535433070866141
        },
        {
          "duration": 0.20000000000000018,
          "durationTicks": 48,
          "midi": 76,
          "name": "E5",
          "ticks": 1200,
          "time": 5,
          "velocity": 0.905511811023622
        },
        {
          "duration": 0.20000000000000018,
          "durationTicks": 48,
          "midi": 64,
          "name": "E4",
          "ticks": 1248,
          "time": 5.2,
          "velocity": 0.6535433070866141
        },
        {
          "duration": 0.20000000000000018,
          "durationTicks": 48,
          "midi": 76,
          "name": "E5",
          "ticks": 1248,
          "time": 5.2,
          "velocity": 0.905511811023622
        },
        {
          "duration": 0.10000000000000053,
          "durationTicks": 24,
          "midi": 61,
          "name": "C#4",
          "ticks": 1728,
          "time": 7.2,
          "velocity": 0.9763779527559056
        },
        {
          "duration": 0.09999999999999964,
          "durationTicks": 24,
          "midi": 62,
          "name": "D4",
          "ticks": 1752,
          "time": 7.300000000000001,
          "velocity": 0.9763779527559056
        },
        {
          "duration": 0.09999999999999964,
          "durationTicks": 24,
          "midi": 64,
          "name": "E4",
          "ticks": 1776,
          "time": 7.4,
          "velocity": 0.9763779527559056
        },
        {
          "duration": 0.10000000000000053,
          "durationTicks": 24,
          "midi": 66,
          "name": "F#4",
          "ticks": 1800,
          "time": 7.5,
          "velocity": 0.9763779527559056
        },
        {
          "duration": 0.09999999999999964,
          "durationTicks": 24,
          "midi": 69,
          "name": "A4",
          "ticks": 1824,
          "time": 7.6000000000000005,
          "velocity": 0.9763779527559056
        },
        {
          "duration": 0.10000000000000053,
          "durationTicks": 24,
          "midi": 71,
          "name": "B4",
          "ticks": 1848,
          "time": 7.7,
          "velocity": 0.9763779527559056
        },
        {
          "duration": 0.09999999999999964,
          "durationTicks": 24,
          "midi": 73,
          "name": "C#5",
          "ticks": 1872,
          "time": 7.800000000000001,
          "velocity": 0.9763779527559056
        },
        {
          "duration": 0.09999999999999964,
          "durationTicks": 24,
          "midi": 74,
          "name": "D5",
          "ticks": 1896,
          "time": 7.9,
          "velocity": 0.9763779527559056
        },
        {
          "duration": 1,
          "durationTicks": 240,
          "midi": 76,
          "name": "E5",
          "ticks": 1920,
          "time": 8,
          "velocity": 0.9921259842519685
        },
        {
          "duration": 1,
          "durationTicks": 240,
          "midi": 88,
          "name": "E6",
          "ticks": 1920,
          "time": 8,
          "velocity": 0.7165354330708661
        },
        {
          "duration": 0.09999999999999964,
          "durationTicks": 24,
          "midi": 61,
          "name": "C#4",
          "ticks": 2496,
          "time": 10.4,
          "velocity": 0.952755905511811
        },
        {
          "duration": 0.10000000000000142,
          "durationTicks": 24,
          "midi": 62,
          "name": "D4",
          "ticks": 2520,
          "time": 10.5,
          "velocity": 0.952755905511811
        },
        {
          "duration": 0.09999999999999964,
          "durationTicks": 24,
          "midi": 64,
          "name": "E4",
          "ticks": 2544,
          "time": 10.600000000000001,
          "velocity": 0.952755905511811
        },
        {
          "duration": 0.09999999999999964,
          "durationTicks": 24,
          "midi": 66,
          "name": "F#4",
          "ticks": 2568,
          "time": 10.700000000000001,
          "velocity": 0.952755905511811
        },
        {
          "duration": 0.09999999999999964,
          "durationTicks": 24,
          "midi": 69,
          "name": "A4",
          "ticks": 2592,
          "time": 10.8,
          "velocity": 0.952755905511811
        },
        {
          "duration": 0.09999999999999964,
          "durationTicks": 24,
          "midi": 71,
          "name": "B4",
          "ticks": 2616,
          "time": 10.9,
          "velocity": 0.952755905511811
        },
        {
          "duration": 0.10000000000000142,
          "durationTicks": 24,
          "midi": 73,
          "name": "C#5",
          "ticks": 2640,
          "time": 11,
          "velocity": 0.952755905511811
        },
        {
          "duration": 0.09999999999999964,
          "durationTicks": 24,
          "midi": 74,
          "name": "D5",
          "ticks": 2664,
          "time": 11.100000000000001,
          "velocity": 0.952755905511811
        },
        {
          "duration": 0.7999999999999989,
          "durationTicks": 192,
          "midi": 88,
          "name": "E6",
          "ticks": 2688,
          "time": 11.200000000000001,
          "velocity": 0.7165354330708661
        },
        {
          "duration": 0.7999999999999989,
          "durationTicks": 192,
          "midi": 76,
          "name": "E5",
          "ticks": 2688,
          "time": 11.200000000000001,
          "velocity": 0.9921259842519685
        },
        {
          "duration": 0.20000000000000107,
          "durationTicks": 48,
          "midi": 88,
          "name": "E6",
          "ticks": 2880,
          "time": 12,
          "velocity": 0.7165354330708661
        },
        {
          "duration": 0.20000000000000107,
          "durationTicks": 48,
          "midi": 76,
          "name": "E5",
          "ticks": 2880,
          "time": 12,
          "velocity": 0.9921259842519685
        },
        {
          "duration": 0.1999999999999993,
          "durationTicks": 48,
          "midi": 64,
          "name": "E4",
          "ticks": 4224,
          "time": 17.6,
          "velocity": 0.7480314960629921
        },
        {
          "duration": 0.1999999999999993,
          "durationTicks": 48,
          "midi": 76,
          "name": "E5",
          "ticks": 4224,
          "time": 17.6,
          "velocity": 0.7480314960629921
        },
        {
          "duration": 0.1999999999999993,
          "durationTicks": 48,
          "midi": 76,
          "name": "E5",
          "ticks": 4272,
          "time": 17.8,
          "velocity": 0.7480314960629921
        },
        {
          "duration": 0.1999999999999993,
          "durationTicks": 48,
          "midi": 64,
          "name": "E4",
          "ticks": 4272,
          "time": 17.8,
          "velocity": 0.7480314960629921
        },
        {
          "duration": 0.1999999999999993,
          "durationTicks": 48,
          "midi": 64,
          "name": "E4",
          "ticks": 4320,
          "time": 18,
          "velocity": 0.7480314960629921
        },
        {
          "duration": 0.1999999999999993,
          "durationTicks": 48,
          "midi": 76,
          "name": "E5",
          "ticks": 4320,
          "time": 18,
          "velocity": 0.7480314960629921
        },
        {
          "duration": 0.20000000000000284,
          "durationTicks": 48,
          "midi": 78,
          "name": "F#5",
          "ticks": 4368,
          "time": 18.2,
          "velocity": 0.7480314960629921
        },
        {
          "duration": 0.20000000000000284,
          "durationTicks": 48,
          "midi": 66,
          "name": "F#4",
          "ticks": 4368,
          "time": 18.2,
          "velocity": 0.7480314960629921
        },
        {
          "duration": 0.1999999999999993,
          "durationTicks": 48,
          "midi": 66,
          "name": "F#4",
          "ticks": 4416,
          "time": 18.400000000000002,
          "velocity": 0.7480314960629921
        },
        {
          "duration": 0.1999999999999993,
          "durationTicks": 48,
          "midi": 78,
          "name": "F#5",
          "ticks": 4416,
          "time": 18.400000000000002,
          "velocity": 0.7480314960629921
        },
        {
          "duration": 0.1999999999999993,
          "durationTicks": 48,
          "midi": 66,
          "name": "F#4",
          "ticks": 4464,
          "time": 18.6,
          "velocity": 0.7480314960629921
        },
        {
          "duration": 0.1999999999999993,
          "durationTicks": 48,
          "midi": 78,
          "name": "F#5",
          "ticks": 4464,
          "time": 18.6,
          "velocity": 0.7480314960629921
        },
        {
          "duration": 0.1999999999999993,
          "durationTicks": 48,
          "midi": 80,
          "name": "G#5",
          "ticks": 4512,
          "time": 18.8,
          "velocity": 0.7480314960629921
        },
        {
          "duration": 0.1999999999999993,
          "durationTicks": 48,
          "midi": 68,
          "name": "G#4",
          "ticks": 4512,
          "time": 18.8,
          "velocity": 0.7480314960629921
        },
        {
          "duration": 0.20000000000000284,
          "durationTicks": 48,
          "midi": 80,
          "name": "G#5",
          "ticks": 4560,
          "time": 19,
          "velocity": 0.7480314960629921
        },
        {
          "duration": 0.20000000000000284,
          "durationTicks": 48,
          "midi": 68,
          "name": "G#4",
          "ticks": 4560,
          "time": 19,
          "velocity": 0.7480314960629921
        },
        {
          "duration": 0.10000000000000142,
          "durationTicks": 24,
          "midi": 61,
          "name": "C#4",
          "ticks": 4800,
          "time": 20,
          "velocity": 0.9763779527559056
        },
        {
          "duration": 0.10000000000000142,
          "durationTicks": 24,
          "midi": 62,
          "name": "D4",
          "ticks": 4824,
          "time": 20.1,
          "velocity": 0.9763779527559056
        },
        {
          "duration": 0.09999999999999787,
          "durationTicks": 24,
          "midi": 64,
          "name": "E4",
          "ticks": 4848,
          "time": 20.200000000000003,
          "velocity": 0.9763779527559056
        },
        {
          "duration": 0.10000000000000142,
          "durationTicks": 24,
          "midi": 66,
          "name": "F#4",
          "ticks": 4872,
          "time": 20.3,
          "velocity": 0.9763779527559056
        },
        {
          "duration": 0.09999999999999787,
          "durationTicks": 24,
          "midi": 69,
          "name": "A4",
          "ticks": 4896,
          "time": 20.400000000000002,
          "velocity": 0.9763779527559056
        },
        {
          "duration": 0.10000000000000142,
          "durationTicks": 24,
          "midi": 71,
          "name": "B4",
          "ticks": 4920,
          "time": 20.5,
          "velocity": 0.9763779527559056
        },
        {
          "duration": 0.10000000000000142,
          "durationTicks": 24,
          "midi": 73,
          "name": "C#5",
          "ticks": 4944,
          "time": 20.6,
          "velocity": 0.9763779527559056
        },
        {
          "duration": 0.09999999999999787,
          "durationTicks": 24,
          "midi": 74,
          "name": "D5",
          "ticks": 4968,
          "time": 20.700000000000003,
          "velocity": 0.9763779527559056
        },
        {
          "duration": 1,
          "durationTicks": 240,
          "midi": 76,
          "name": "E5",
          "ticks": 4992,
          "time": 20.8,
          "velocity": 0.9921259842519685
        },
        {
          "duration": 1,
          "durationTicks": 240,
          "midi": 88,
          "name": "E6",
          "ticks": 4992,
          "time": 20.8,
          "velocity": 0.7165354330708661
        },
        {
          "duration": 0.09999999999999787,
          "durationTicks": 24,
          "midi": 61,
          "name": "C#4",
          "ticks": 5568,
          "time": 23.200000000000003,
          "velocity": 0.952755905511811
        },
        {
          "duration": 0.10000000000000142,
          "durationTicks": 24,
          "midi": 62,
          "name": "D4",
          "ticks": 5592,
          "time": 23.3,
          "velocity": 0.952755905511811
        },
        {
          "duration": 0.09999999999999787,
          "durationTicks": 24,
          "midi": 64,
          "name": "E4",
          "ticks": 5616,
          "time": 23.400000000000002,
          "velocity": 0.952755905511811
        },
        {
          "duration": 0.10000000000000142,
          "durationTicks": 24,
          "midi": 66,
          "name": "F#4",
          "ticks": 5640,
          "time": 23.5,
          "velocity": 0.952755905511811
        },
        {
          "duration": 0.10000000000000142,
          "durationTicks": 24,
          "midi": 69,
          "name": "A4",
          "ticks": 5664,
          "time": 23.6,
          "velocity": 0.952755905511811
        },
        {
          "duration": 0.09999999999999787,
          "durationTicks": 24,
          "midi": 71,
          "name": "B4",
          "ticks": 5688,
          "time": 23.700000000000003,
          "velocity": 0.952755905511811
        },
        {
          "duration": 0.10000000000000142,
          "durationTicks": 24,
          "midi": 73,
          "name": "C#5",
          "ticks": 5712,
          "time": 23.8,
          "velocity": 0.952755905511811
        },
        {
          "duration": 0.09999999999999787,
          "durationTicks": 24,
          "midi": 74,
          "name": "D5",
          "ticks": 5736,
          "time": 23.900000000000002,
          "velocity": 0.952755905511811
        },
        {
          "duration": 0.8000000000000007,
          "durationTicks": 192,
          "midi": 76,
          "name": "E5",
          "ticks": 5760,
          "time": 24,
          "velocity": 0.9921259842519685
        },
        {
          "duration": 0.8000000000000007,
          "durationTicks": 192,
          "midi": 88,
          "name": "E6",
          "ticks": 5760,
          "time": 24,
          "velocity": 0.7165354330708661
        },
        {
          "duration": 0.10000000000000142,
          "durationTicks": 24,
          "midi": 76,
          "name": "E5",
          "ticks": 5952,
          "time": 24.8,
          "velocity": 0.9921259842519685
        },
        {
          "duration": 0.10000000000000142,
          "durationTicks": 24,
          "midi": 88,
          "name": "E6",
          "ticks": 5952,
          "time": 24.8,
          "velocity": 0.8582677165354331
        },
        {
          "duration": 0.09999999999999787,
          "durationTicks": 24,
          "midi": 86,
          "name": "D6",
          "ticks": 5976,
          "time": 24.900000000000002,
          "velocity": 0.8582677165354331
        },
        {
          "duration": 0.09999999999999787,
          "durationTicks": 24,
          "midi": 74,
          "name": "D5",
          "ticks": 5976,
          "time": 24.900000000000002,
          "velocity": 0.9291338582677166
        },
        {
          "duration": 0.10000000000000142,
          "durationTicks": 24,
          "midi": 73,
          "name": "C#5",
          "ticks": 6000,
          "time": 25,
          "velocity": 0.9291338582677166
        },
        {
          "duration": 0.10000000000000142,
          "durationTicks": 24,
          "midi": 85,
          "name": "C#6",
          "ticks": 6000,
          "time": 25,
          "velocity": 0.8582677165354331
        },
        {
          "duration": 0.10000000000000142,
          "durationTicks": 24,
          "midi": 69,
          "name": "A4",
          "ticks": 6024,
          "time": 25.1,
          "velocity": 0.9291338582677166
        },
        {
          "duration": 0.10000000000000142,
          "durationTicks": 24,
          "midi": 81,
          "name": "A5",
          "ticks": 6024,
          "time": 25.1,
          "velocity": 0.8582677165354331
        },
        {
          "duration": 0.09999999999999787,
          "durationTicks": 24,
          "midi": 74,
          "name": "D5",
          "ticks": 6048,
          "time": 25.200000000000003,
          "velocity": 0.9291338582677166
        },
        {
          "duration": 0.09999999999999787,
          "durationTicks": 24,
          "midi": 86,
          "name": "D6",
          "ticks": 6048,
          "time": 25.200000000000003,
          "velocity": 0.8582677165354331
        },
        {
          "duration": 0.10000000000000142,
          "durationTicks": 24,
          "midi": 73,
          "name": "C#5",
          "ticks": 6072,
          "time": 25.3,
          "velocity": 0.9291338582677166
        },
        {
          "duration": 0.10000000000000142,
          "durationTicks": 24,
          "midi": 85,
          "name": "C#6",
          "ticks": 6072,
          "time": 25.3,
          "velocity": 0.8582677165354331
        },
        {
          "duration": 0.09999999999999787,
          "durationTicks": 24,
          "midi": 71,
          "name": "B4",
          "ticks": 6096,
          "time": 25.400000000000002,
          "velocity": 0.9291338582677166
        },
        {
          "duration": 0.09999999999999787,
          "durationTicks": 24,
          "midi": 83,
          "name": "B5",
          "ticks": 6096,
          "time": 25.400000000000002,
          "velocity": 0.8582677165354331
        },
        {
          "duration": 0.10000000000000142,
          "durationTicks": 24,
          "midi": 81,
          "name": "A5",
          "ticks": 6120,
          "time": 25.5,
          "velocity": 0.8582677165354331
        },
        {
          "duration": 0.10000000000000142,
          "durationTicks": 24,
          "midi": 69,
          "name": "A4",
          "ticks": 6120,
          "time": 25.5,
          "velocity": 0.9291338582677166
        },
        {
          "duration": 0.3999999999999986,
          "durationTicks": 96,
          "midi": 74,
          "name": "D5",
          "ticks": 12672,
          "time": 52.800000000000004,
          "velocity": 0.5984251968503937
        },
        {
          "duration": 0.3999999999999986,
          "durationTicks": 96,
          "midi": 86,
          "name": "D6",
          "ticks": 12672,
          "time": 52.800000000000004,
          "velocity": 0.5984251968503937
        },
        {
          "duration": 0.3999999999999986,
          "durationTicks": 96,
          "midi": 75,
          "name": "D#5",
          "ticks": 12816,
          "time": 53.400000000000006,
          "velocity": 0.5984251968503937
        },
        {
          "duration": 0.3999999999999986,
          "durationTicks": 96,
          "midi": 87,
          "name": "D#6",
          "ticks": 12816,
          "time": 53.400000000000006,
          "velocity": 0.5984251968503937
        },
        {
          "duration": 0.20000000000000284,
          "durationTicks": 48,
          "midi": 77,
          "name": "F5",
          "ticks": 12960,
          "time": 54,
          "velocity": 0.5984251968503937
        },
        {
          "duration": 0.20000000000000284,
          "durationTicks": 48,
          "midi": 89,
          "name": "F6",
          "ticks": 12960,
          "time": 54,
          "velocity": 0.5984251968503937
        },
        {
          "duration": 0.3999999999999986,
          "durationTicks": 96,
          "midi": 90,
          "name": "F#6",
          "ticks": 13056,
          "time": 54.400000000000006,
          "velocity": 0.5984251968503937
        },
        {
          "duration": 0.3999999999999986,
          "durationTicks": 96,
          "midi": 78,
          "name": "F#5",
          "ticks": 13056,
          "time": 54.400000000000006,
          "velocity": 0.5984251968503937
        },
        {
          "duration": 0.4000000000000057,
          "durationTicks": 96,
          "midi": 77,
          "name": "F5",
          "ticks": 16368,
          "time": 68.2,
          "velocity": 0.9606299212598425
        },
        {
          "duration": 0.4000000000000057,
          "durationTicks": 96,
          "midi": 73,
          "name": "C#5",
          "ticks": 16368,
          "time": 68.2,
          "velocity": 0.9606299212598425
        },
        {
          "duration": 0.4000000000000057,
          "durationTicks": 96,
          "midi": 80,
          "name": "G#5",
          "ticks": 16368,
          "time": 68.2,
          "velocity": 0.9606299212598425
        },
        {
          "duration": 0.01666666666665151,
          "durationTicks": 4,
          "midi": 73,
          "name": "C#5",
          "ticks": 16464,
          "time": 68.60000000000001,
          "velocity": 0.9606299212598425
        },
        {
          "duration": 0.01666666666667993,
          "durationTicks": 4,
          "midi": 72,
          "name": "C5",
          "ticks": 16468,
          "time": 68.61666666666666,
          "velocity": 0.9606299212598425
        },
        {
          "duration": 0.01666666666666572,
          "durationTicks": 4,
          "midi": 71,
          "name": "B4",
          "ticks": 16472,
          "time": 68.63333333333334,
          "velocity": 0.9606299212598425
        },
        {
          "duration": 0.01666666666666572,
          "durationTicks": 4,
          "midi": 69,
          "name": "A4",
          "ticks": 16476,
          "time": 68.65,
          "velocity": 0.9606299212598425
        },
        {
          "duration": 0.01666666666666572,
          "durationTicks": 4,
          "midi": 67,
          "name": "G4",
          "ticks": 16480,
          "time": 68.66666666666667,
          "velocity": 0.9606299212598425
        },
        {
          "duration": 0.01666666666666572,
          "durationTicks": 4,
          "midi": 65,
          "name": "F4",
          "ticks": 16484,
          "time": 68.68333333333334,
          "velocity": 0.9606299212598425
        },
        {
          "duration": 0.01666666666666572,
          "durationTicks": 4,
          "midi": 64,
          "name": "E4",
          "ticks": 16488,
          "time": 68.7,
          "velocity": 0.9606299212598425
        },
        {
          "duration": 0.01666666666666572,
          "durationTicks": 4,
          "midi": 62,
          "name": "D4",
          "ticks": 16492,
          "time": 68.71666666666667,
          "velocity": 0.9606299212598425
        },
        {
          "duration": 0.01666666666666572,
          "durationTicks": 4,
          "midi": 60,
          "name": "C4",
          "ticks": 16496,
          "time": 68.73333333333333,
          "velocity": 0.9606299212598425
        },
        {
          "duration": 0.01666666666666572,
          "durationTicks": 4,
          "midi": 59,
          "name": "B3",
          "ticks": 16500,
          "time": 68.75,
          "velocity": 0.9606299212598425
        },
        {
          "duration": 0.01666666666667993,
          "durationTicks": 4,
          "midi": 57,
          "name": "A3",
          "ticks": 16504,
          "time": 68.76666666666667,
          "velocity": 0.9606299212598425
        },
        {
          "duration": 0.01666666666665151,
          "durationTicks": 4,
          "midi": 55,
          "name": "G3",
          "ticks": 16508,
          "time": 68.78333333333335,
          "velocity": 0.9606299212598425
        },
        {
          "duration": 0.4000000000000057,
          "durationTicks": 96,
          "midi": 77,
          "name": "F5",
          "ticks": 16752,
          "time": 69.8,
          "velocity": 0.9606299212598425
        },
        {
          "duration": 0.4000000000000057,
          "durationTicks": 96,
          "midi": 73,
          "name": "C#5",
          "ticks": 16752,
          "time": 69.8,
          "velocity": 0.9606299212598425
        },
        {
          "duration": 0.4000000000000057,
          "durationTicks": 96,
          "midi": 80,
          "name": "G#5",
          "ticks": 16752,
          "time": 69.8,
          "velocity": 0.9606299212598425
        },
        {
          "duration": 0.01666666666666572,
          "durationTicks": 4,
          "midi": 73,
          "name": "C#5",
          "ticks": 16848,
          "time": 70.2,
          "velocity": 0.9606299212598425
        },
        {
          "duration": 0.01666666666666572,
          "durationTicks": 4,
          "midi": 72,
          "name": "C5",
          "ticks": 16852,
          "time": 70.21666666666667,
          "velocity": 0.9606299212598425
        },
        {
          "duration": 0.01666666666666572,
          "durationTicks": 4,
          "midi": 71,
          "name": "B4",
          "ticks": 16856,
          "time": 70.23333333333333,
          "velocity": 0.9606299212598425
        },
        {
          "duration": 0.01666666666666572,
          "durationTicks": 4,
          "midi": 69,
          "name": "A4",
          "ticks": 16860,
          "time": 70.25,
          "velocity": 0.9606299212598425
        },
        {
          "duration": 0.01666666666667993,
          "durationTicks": 4,
          "midi": 67,
          "name": "G4",
          "ticks": 16864,
          "time": 70.26666666666667,
          "velocity": 0.9606299212598425
        },
        {
          "duration": 0.01666666666665151,
          "durationTicks": 4,
          "midi": 65,
          "name": "F4",
          "ticks": 16868,
          "time": 70.28333333333335,
          "velocity": 0.9606299212598425
        },
        {
          "duration": 0.01666666666666572,
          "durationTicks": 4,
          "midi": 64,
          "name": "E4",
          "ticks": 16872,
          "time": 70.3,
          "velocity": 0.9606299212598425
        },
        {
          "duration": 0.01666666666667993,
          "durationTicks": 4,
          "midi": 62,
          "name": "D4",
          "ticks": 16876,
          "time": 70.31666666666666,
          "velocity": 0.9606299212598425
        },
        {
          "duration": 0.01666666666666572,
          "durationTicks": 4,
          "midi": 60,
          "name": "C4",
          "ticks": 16880,
          "time": 70.33333333333334,
          "velocity": 0.9606299212598425
        },
        {
          "duration": 0.01666666666665151,
          "durationTicks": 4,
          "midi": 59,
          "name": "B3",
          "ticks": 16884,
          "time": 70.35000000000001,
          "velocity": 0.9606299212598425
        },
        {
          "duration": 0.01666666666667993,
          "durationTicks": 4,
          "midi": 57,
          "name": "A3",
          "ticks": 16888,
          "time": 70.36666666666666,
          "velocity": 0.9606299212598425
        },
        {
          "duration": 0.01666666666666572,
          "durationTicks": 4,
          "midi": 55,
          "name": "G3",
          "ticks": 16892,
          "time": 70.38333333333334,
          "velocity": 0.9606299212598425
        },
        {
          "duration": 0.09999999999999432,
          "durationTicks": 24,
          "midi": 61,
          "name": "C#4",
          "ticks": 17856,
          "time": 74.4,
          "velocity": 0.9763779527559056
        },
        {
          "duration": 0.10000000000000853,
          "durationTicks": 24,
          "midi": 62,
          "name": "D4",
          "ticks": 17880,
          "time": 74.5,
          "velocity": 0.9763779527559056
        },
        {
          "duration": 0.09999999999999432,
          "durationTicks": 24,
          "midi": 64,
          "name": "E4",
          "ticks": 17904,
          "time": 74.60000000000001,
          "velocity": 0.9763779527559056
        },
        {
          "duration": 0.09999999999999432,
          "durationTicks": 24,
          "midi": 66,
          "name": "F#4",
          "ticks": 17928,
          "time": 74.7,
          "velocity": 0.9763779527559056
        },
        {
          "duration": 0.10000000000000853,
          "durationTicks": 24,
          "midi": 69,
          "name": "A4",
          "ticks": 17952,
          "time": 74.8,
          "velocity": 0.9763779527559056
        },
        {
          "duration": 0.09999999999999432,
          "durationTicks": 24,
          "midi": 71,
          "name": "B4",
          "ticks": 17976,
          "time": 74.9,
          "velocity": 0.9763779527559056
        },
        {
          "duration": 0.10000000000000853,
          "durationTicks": 24,
          "midi": 73,
          "name": "C#5",
          "ticks": 18000,
          "time": 75,
          "velocity": 0.9763779527559056
        },
        {
          "duration": 0.09999999999999432,
          "durationTicks": 24,
          "midi": 74,
          "name": "D5",
          "ticks": 18024,
          "time": 75.10000000000001,
          "velocity": 0.9763779527559056
        },
        {
          "duration": 1,
          "durationTicks": 240,
          "midi": 76,
          "name": "E5",
          "ticks": 18048,
          "time": 75.2,
          "velocity": 0.9921259842519685
        },
        {
          "duration": 1,
          "durationTicks": 240,
          "midi": 88,
          "name": "E6",
          "ticks": 18048,
          "time": 75.2,
          "velocity": 0.7165354330708661
        },
        {
          "duration": 0.09999999999999432,
          "durationTicks": 24,
          "midi": 61,
          "name": "C#4",
          "ticks": 18624,
          "time": 77.60000000000001,
          "velocity": 0.952755905511811
        },
        {
          "duration": 0.10000000000000853,
          "durationTicks": 24,
          "midi": 62,
          "name": "D4",
          "ticks": 18648,
          "time": 77.7,
          "velocity": 0.952755905511811
        },
        {
          "duration": 0.09999999999999432,
          "durationTicks": 24,
          "midi": 64,
          "name": "E4",
          "ticks": 18672,
          "time": 77.80000000000001,
          "velocity": 0.952755905511811
        },
        {
          "duration": 0.09999999999999432,
          "durationTicks": 24,
          "midi": 66,
          "name": "F#4",
          "ticks": 18696,
          "time": 77.9,
          "velocity": 0.952755905511811
        },
        {
          "duration": 0.10000000000000853,
          "durationTicks": 24,
          "midi": 69,
          "name": "A4",
          "ticks": 18720,
          "time": 78,
          "velocity": 0.952755905511811
        },
        {
          "duration": 0.09999999999999432,
          "durationTicks": 24,
          "midi": 71,
          "name": "B4",
          "ticks": 18744,
          "time": 78.10000000000001,
          "velocity": 0.952755905511811
        },
        {
          "duration": 0.10000000000000853,
          "durationTicks": 24,
          "midi": 73,
          "name": "C#5",
          "ticks": 18768,
          "time": 78.2,
          "velocity": 0.952755905511811
        },
        {
          "duration": 0.09999999999999432,
          "durationTicks": 24,
          "midi": 74,
          "name": "D5",
          "ticks": 18792,
          "time": 78.30000000000001,
          "velocity": 0.952755905511811
        },
        {
          "duration": 0.7999999999999972,
          "durationTicks": 192,
          "midi": 76,
          "name": "E5",
          "ticks": 18816,
          "time": 78.4,
          "velocity": 0.9921259842519685
        },
        {
          "duration": 0.7999999999999972,
          "durationTicks": 192,
          "midi": 88,
          "name": "E6",
          "ticks": 18816,
          "time": 78.4,
          "velocity": 0.7165354330708661
        },
        {
          "duration": 0.20000000000000284,
          "durationTicks": 48,
          "midi": 88,
          "name": "E6",
          "ticks": 19008,
          "time": 79.2,
          "velocity": 0.7165354330708661
        },
        {
          "duration": 0.20000000000000284,
          "durationTicks": 48,
          "midi": 76,
          "name": "E5",
          "ticks": 19008,
          "time": 79.2,
          "velocity": 0.9921259842519685
        },
        {
          "duration": 0.19999999999998863,
          "durationTicks": 48,
          "midi": 76,
          "name": "E5",
          "ticks": 20352,
          "time": 84.80000000000001,
          "velocity": 0.7480314960629921
        },
        {
          "duration": 0.19999999999998863,
          "durationTicks": 48,
          "midi": 64,
          "name": "E4",
          "ticks": 20352,
          "time": 84.80000000000001,
          "velocity": 0.7480314960629921
        },
        {
          "duration": 0.20000000000000284,
          "durationTicks": 48,
          "midi": 64,
          "name": "E4",
          "ticks": 20400,
          "time": 85,
          "velocity": 0.7480314960629921
        },
        {
          "duration": 0.20000000000000284,
          "durationTicks": 48,
          "midi": 76,
          "name": "E5",
          "ticks": 20400,
          "time": 85,
          "velocity": 0.7480314960629921
        },
        {
          "duration": 0.20000000000000284,
          "durationTicks": 48,
          "midi": 76,
          "name": "E5",
          "ticks": 20448,
          "time": 85.2,
          "velocity": 0.7480314960629921
        },
        {
          "duration": 0.20000000000000284,
          "durationTicks": 48,
          "midi": 64,
          "name": "E4",
          "ticks": 20448,
          "time": 85.2,
          "velocity": 0.7480314960629921
        },
        {
          "duration": 0.20000000000000284,
          "durationTicks": 48,
          "midi": 66,
          "name": "F#4",
          "ticks": 20496,
          "time": 85.4,
          "velocity": 0.7480314960629921
        },
        {
          "duration": 0.20000000000000284,
          "durationTicks": 48,
          "midi": 78,
          "name": "F#5",
          "ticks": 20496,
          "time": 85.4,
          "velocity": 0.7480314960629921
        },
        {
          "duration": 0.20000000000000284,
          "durationTicks": 48,
          "midi": 78,
          "name": "F#5",
          "ticks": 20544,
          "time": 85.60000000000001,
          "velocity": 0.7480314960629921
        },
        {
          "duration": 0.20000000000000284,
          "durationTicks": 48,
          "midi": 66,
          "name": "F#4",
          "ticks": 20544,
          "time": 85.60000000000001,
          "velocity": 0.7480314960629921
        },
        {
          "duration": 0.19999999999998863,
          "durationTicks": 48,
          "midi": 78,
          "name": "F#5",
          "ticks": 20592,
          "time": 85.80000000000001,
          "velocity": 0.7480314960629921
        },
        {
          "duration": 0.19999999999998863,
          "durationTicks": 48,
          "midi": 66,
          "name": "F#4",
          "ticks": 20592,
          "time": 85.80000000000001,
          "velocity": 0.7480314960629921
        },
        {
          "duration": 0.20000000000000284,
          "durationTicks": 48,
          "midi": 68,
          "name": "G#4",
          "ticks": 20640,
          "time": 86,
          "velocity": 0.7480314960629921
        },
        {
          "duration": 0.20000000000000284,
          "durationTicks": 48,
          "midi": 80,
          "name": "G#5",
          "ticks": 20640,
          "time": 86,
          "velocity": 0.7480314960629921
        },
        {
          "duration": 0.20000000000000284,
          "durationTicks": 48,
          "midi": 68,
          "name": "G#4",
          "ticks": 20688,
          "time": 86.2,
          "velocity": 0.7480314960629921
        },
        {
          "duration": 0.20000000000000284,
          "durationTicks": 48,
          "midi": 80,
          "name": "G#5",
          "ticks": 20688,
          "time": 86.2,
          "velocity": 0.7480314960629921
        },
        {
          "duration": 0.10000000000000853,
          "durationTicks": 24,
          "midi": 61,
          "name": "C#4",
          "ticks": 20928,
          "time": 87.2,
          "velocity": 0.9763779527559056
        },
        {
          "duration": 0.09999999999999432,
          "durationTicks": 24,
          "midi": 62,
          "name": "D4",
          "ticks": 20952,
          "time": 87.30000000000001,
          "velocity": 0.9763779527559056
        },
        {
          "duration": 0.09999999999999432,
          "durationTicks": 24,
          "midi": 64,
          "name": "E4",
          "ticks": 20976,
          "time": 87.4,
          "velocity": 0.9763779527559056
        },
        {
          "duration": 0.10000000000000853,
          "durationTicks": 24,
          "midi": 66,
          "name": "F#4",
          "ticks": 21000,
          "time": 87.5,
          "velocity": 0.9763779527559056
        },
        {
          "duration": 0.09999999999999432,
          "durationTicks": 24,
          "midi": 69,
          "name": "A4",
          "ticks": 21024,
          "time": 87.60000000000001,
          "velocity": 0.9763779527559056
        },
        {
          "duration": 0.10000000000000853,
          "durationTicks": 24,
          "midi": 71,
          "name": "B4",
          "ticks": 21048,
          "time": 87.7,
          "velocity": 0.9763779527559056
        },
        {
          "duration": 0.09999999999999432,
          "durationTicks": 24,
          "midi": 73,
          "name": "C#5",
          "ticks": 21072,
          "time": 87.80000000000001,
          "velocity": 0.9763779527559056
        },
        {
          "duration": 0.09999999999999432,
          "durationTicks": 24,
          "midi": 74,
          "name": "D5",
          "ticks": 21096,
          "time": 87.9,
          "velocity": 0.9763779527559056
        },
        {
          "duration": 1,
          "durationTicks": 240,
          "midi": 88,
          "name": "E6",
          "ticks": 21120,
          "time": 88,
          "velocity": 0.7165354330708661
        },
        {
          "duration": 1,
          "durationTicks": 240,
          "midi": 76,
          "name": "E5",
          "ticks": 21120,
          "time": 88,
          "velocity": 0.9921259842519685
        },
        {
          "duration": 0.09999999999999432,
          "durationTicks": 24,
          "midi": 61,
          "name": "C#4",
          "ticks": 21696,
          "time": 90.4,
          "velocity": 0.952755905511811
        },
        {
          "duration": 0.10000000000000853,
          "durationTicks": 24,
          "midi": 62,
          "name": "D4",
          "ticks": 21720,
          "time": 90.5,
          "velocity": 0.952755905511811
        },
        {
          "duration": 0.09999999999999432,
          "durationTicks": 24,
          "midi": 64,
          "name": "E4",
          "ticks": 21744,
          "time": 90.60000000000001,
          "velocity": 0.952755905511811
        },
        {
          "duration": 0.10000000000000853,
          "durationTicks": 24,
          "midi": 66,
          "name": "F#4",
          "ticks": 21768,
          "time": 90.7,
          "velocity": 0.952755905511811
        },
        {
          "duration": 0.09999999999999432,
          "durationTicks": 24,
          "midi": 69,
          "name": "A4",
          "ticks": 21792,
          "time": 90.80000000000001,
          "velocity": 0.952755905511811
        },
        {
          "duration": 0.09999999999999432,
          "durationTicks": 24,
          "midi": 71,
          "name": "B4",
          "ticks": 21816,
          "time": 90.9,
          "velocity": 0.952755905511811
        },
        {
          "duration": 0.10000000000000853,
          "durationTicks": 24,
          "midi": 73,
          "name": "C#5",
          "ticks": 21840,
          "time": 91,
          "velocity": 0.952755905511811
        },
        {
          "duration": 0.09999999999999432,
          "durationTicks": 24,
          "midi": 74,
          "name": "D5",
          "ticks": 21864,
          "time": 91.10000000000001,
          "velocity": 0.952755905511811
        },
        {
          "duration": 0.7999999999999972,
          "durationTicks": 192,
          "midi": 88,
          "name": "E6",
          "ticks": 21888,
          "time": 91.2,
          "velocity": 0.7165354330708661
        },
        {
          "duration": 0.7999999999999972,
          "durationTicks": 192,
          "midi": 76,
          "name": "E5",
          "ticks": 21888,
          "time": 91.2,
          "velocity": 0.9921259842519685
        },
        {
          "duration": 0.10000000000000853,
          "durationTicks": 24,
          "midi": 88,
          "name": "E6",
          "ticks": 22080,
          "time": 92,
          "velocity": 0.8582677165354331
        },
        {
          "duration": 0.10000000000000853,
          "durationTicks": 24,
          "midi": 76,
          "name": "E5",
          "ticks": 22080,
          "time": 92,
          "velocity": 0.9921259842519685
        },
        {
          "duration": 0.09999999999999432,
          "durationTicks": 24,
          "midi": 86,
          "name": "D6",
          "ticks": 22104,
          "time": 92.10000000000001,
          "velocity": 0.8582677165354331
        },
        {
          "duration": 0.09999999999999432,
          "durationTicks": 24,
          "midi": 74,
          "name": "D5",
          "ticks": 22104,
          "time": 92.10000000000001,
          "velocity": 0.9291338582677166
        },
        {
          "duration": 0.10000000000000853,
          "durationTicks": 24,
          "midi": 73,
          "name": "C#5",
          "ticks": 22128,
          "time": 92.2,
          "velocity": 0.9291338582677166
        },
        {
          "duration": 0.10000000000000853,
          "durationTicks": 24,
          "midi": 85,
          "name": "C#6",
          "ticks": 22128,
          "time": 92.2,
          "velocity": 0.8582677165354331
        },
        {
          "duration": 0.09999999999999432,
          "durationTicks": 24,
          "midi": 69,
          "name": "A4",
          "ticks": 22152,
          "time": 92.30000000000001,
          "velocity": 0.9291338582677166
        },
        {
          "duration": 0.09999999999999432,
          "durationTicks": 24,
          "midi": 81,
          "name": "A5",
          "ticks": 22152,
          "time": 92.30000000000001,
          "velocity": 0.8582677165354331
        },
        {
          "duration": 0.09999999999999432,
          "durationTicks": 24,
          "midi": 86,
          "name": "D6",
          "ticks": 22176,
          "time": 92.4,
          "velocity": 0.8582677165354331
        },
        {
          "duration": 0.09999999999999432,
          "durationTicks": 24,
          "midi": 74,
          "name": "D5",
          "ticks": 22176,
          "time": 92.4,
          "velocity": 0.9291338582677166
        },
        {
          "duration": 0.10000000000000853,
          "durationTicks": 24,
          "midi": 85,
          "name": "C#6",
          "ticks": 22200,
          "time": 92.5,
          "velocity": 0.8582677165354331
        },
        {
          "duration": 0.10000000000000853,
          "durationTicks": 24,
          "midi": 73,
          "name": "C#5",
          "ticks": 22200,
          "time": 92.5,
          "velocity": 0.9291338582677166
        },
        {
          "duration": 0.09999999999999432,
          "durationTicks": 24,
          "midi": 83,
          "name": "B5",
          "ticks": 22224,
          "time": 92.60000000000001,
          "velocity": 0.8582677165354331
        },
        {
          "duration": 0.09999999999999432,
          "durationTicks": 24,
          "midi": 71,
          "name": "B4",
          "ticks": 22224,
          "time": 92.60000000000001,
          "velocity": 0.9291338582677166
        },
        {
          "duration": 0.10000000000000853,
          "durationTicks": 24,
          "midi": 69,
          "name": "A4",
          "ticks": 22248,
          "time": 92.7,
          "velocity": 0.9291338582677166
        },
        {
          "duration": 0.10000000000000853,
          "durationTicks": 24,
          "midi": 81,
          "name": "A5",
          "ticks": 22248,
          "time": 92.7,
          "velocity": 0.8582677165354331
        },
        {
          "duration": 0.55416666666666,
          "durationTicks": 133,
          "midi": 81,
          "name": "A5",
          "ticks": 23808,
          "time": 99.2,
          "velocity": 0.9921259842519685
        },
        {
          "duration": 0.55416666666666,
          "durationTicks": 133,
          "midi": 76,
          "name": "E5",
          "ticks": 23808,
          "time": 99.2,
          "velocity": 0.9921259842519685
        },
        {
          "duration": 0.20000000000000284,
          "durationTicks": 48,
          "midi": 45,
          "name": "A2",
          "ticks": 23808,
          "time": 99.2,
          "velocity": 0.9763779527559056
        },
        {
          "duration": 0.20000000000000284,
          "durationTicks": 48,
          "midi": 40,
          "name": "E2",
          "ticks": 23856,
          "time": 99.4,
          "velocity": 0.9763779527559056
        },
        {
          "duration": 0.20000000000000284,
          "durationTicks": 48,
          "midi": 45,
          "name": "A2",
          "ticks": 23904,
          "time": 99.60000000000001,
          "velocity": 0.9763779527559056
        },
        {
          "duration": 0.7541666666666629,
          "durationTicks": 181,
          "midi": 76,
          "name": "E5",
          "ticks": 23952,
          "time": 99.80000000000001,
          "velocity": 0.9921259842519685
        },
        {
          "duration": 0.7541666666666629,
          "durationTicks": 181,
          "midi": 80,
          "name": "G#5",
          "ticks": 23952,
          "time": 99.80000000000001,
          "velocity": 0.9921259842519685
        },
        {
          "duration": 0.3999999999999915,
          "durationTicks": 96,
          "midi": 44,
          "name": "G#2",
          "ticks": 23952,
          "time": 99.80000000000001,
          "velocity": 0.9763779527559056
        },
        {
          "duration": 0.20000000000000284,
          "durationTicks": 48,
          "midi": 40,
          "name": "E2",
          "ticks": 24048,
          "time": 100.2,
          "velocity": 0.9763779527559056
        },
        {
          "duration": 0.20000000000000284,
          "durationTicks": 48,
          "midi": 44,
          "name": "G#2",
          "ticks": 24096,
          "time": 100.4,
          "velocity": 0.9763779527559056
        },
        {
          "duration": 0.7541666666666629,
          "durationTicks": 181,
          "midi": 79,
          "name": "G5",
          "ticks": 24144,
          "time": 100.60000000000001,
          "velocity": 0.9921259842519685
        },
        {
          "duration": 0.7541666666666629,
          "durationTicks": 181,
          "midi": 76,
          "name": "E5",
          "ticks": 24144,
          "time": 100.60000000000001,
          "velocity": 0.9921259842519685
        },
        {
          "duration": 0.3999999999999915,
          "durationTicks": 96,
          "midi": 43,
          "name": "G2",
          "ticks": 24144,
          "time": 100.60000000000001,
          "velocity": 0.9763779527559056
        },
        {
          "duration": 0.20000000000000284,
          "durationTicks": 48,
          "midi": 40,
          "name": "E2",
          "ticks": 24240,
          "time": 101,
          "velocity": 0.9763779527559056
        },
        {
          "duration": 0.20000000000000284,
          "durationTicks": 48,
          "midi": 43,
          "name": "G2",
          "ticks": 24288,
          "time": 101.2,
          "velocity": 0.9606299212598425
        },
        {
          "duration": 0.9541666666666657,
          "durationTicks": 229,
          "midi": 74,
          "name": "D5",
          "ticks": 24336,
          "time": 101.4,
          "velocity": 0.9921259842519685
        },
        {
          "duration": 0.9541666666666657,
          "durationTicks": 229,
          "midi": 78,
          "name": "F#5",
          "ticks": 24336,
          "time": 101.4,
          "velocity": 0.9921259842519685
        },
        {
          "duration": 0.9958333333333371,
          "durationTicks": 239,
          "midi": 42,
          "name": "F#2",
          "ticks": 24336,
          "time": 101.4,
          "velocity": 0.9763779527559056
        },
        {
          "duration": 0.5916666666666686,
          "durationTicks": 142,
          "midi": 41,
          "name": "F2",
          "ticks": 24576,
          "time": 102.4,
          "velocity": 0.9763779527559056
        },
        {
          "duration": 0.5541666666666742,
          "durationTicks": 133,
          "midi": 77,
          "name": "F5",
          "ticks": 24576,
          "time": 102.4,
          "velocity": 0.9921259842519685
        },
        {
          "duration": 0.5541666666666742,
          "durationTicks": 133,
          "midi": 72,
          "name": "C5",
          "ticks": 24576,
          "time": 102.4,
          "velocity": 0.9921259842519685
        },
        {
          "duration": 0.5541666666666742,
          "durationTicks": 133,
          "midi": 74,
          "name": "D5",
          "ticks": 24720,
          "time": 103,
          "velocity": 0.9921259842519685
        },
        {
          "duration": 0.5541666666666742,
          "durationTicks": 133,
          "midi": 79,
          "name": "G5",
          "ticks": 24720,
          "time": 103,
          "velocity": 0.9921259842519685
        },
        {
          "duration": 0.5916666666666544,
          "durationTicks": 142,
          "midi": 43,
          "name": "G2",
          "ticks": 24721,
          "time": 103.00416666666668,
          "velocity": 0.9763779527559056
        },
        {
          "duration": 0.3999999999999915,
          "durationTicks": 96,
          "midi": 81,
          "name": "A5",
          "ticks": 24864,
          "time": 103.60000000000001,
          "velocity": 0.9921259842519685
        },
        {
          "duration": 0.3999999999999915,
          "durationTicks": 96,
          "midi": 76,
          "name": "E5",
          "ticks": 24864,
          "time": 103.60000000000001,
          "velocity": 0.9921259842519685
        },
        {
          "duration": 0.3999999999999915,
          "durationTicks": 96,
          "midi": 45,
          "name": "A2",
          "ticks": 24865,
          "time": 103.60416666666669,
          "velocity": 0.9763779527559056
        },
        {
          "duration": 0.03333333333333144,
          "durationTicks": 8,
          "midi": 79,
          "name": "G5",
          "ticks": 24960,
          "time": 104,
          "velocity": 0.9921259842519685
        },
        {
          "duration": 0.03333333333334565,
          "durationTicks": 8,
          "midi": 77,
          "name": "F5",
          "ticks": 24968,
          "time": 104.03333333333333,
          "velocity": 0.9921259842519685
        },
        {
          "duration": 0.03333333333333144,
          "durationTicks": 8,
          "midi": 76,
          "name": "E5",
          "ticks": 24976,
          "time": 104.06666666666668,
          "velocity": 0.9921259842519685
        },
        {
          "duration": 0.03333333333331723,
          "durationTicks": 8,
          "midi": 74,
          "name": "D5",
          "ticks": 24984,
          "time": 104.10000000000001,
          "velocity": 0.9921259842519685
        },
        {
          "duration": 0.03333333333335986,
          "durationTicks": 8,
          "midi": 72,
          "name": "C5",
          "ticks": 24992,
          "time": 104.13333333333333,
          "velocity": 0.9921259842519685
        },
        {
          "duration": 0.03333333333331723,
          "durationTicks": 8,
          "midi": 71,
          "name": "B4",
          "ticks": 25000,
          "time": 104.16666666666669,
          "velocity": 0.9921259842519685
        }
      ]
    },
    {
      "channel": 0,
      "controlChanges": {
        "6": [
          {
            "number": 6,
            "ticks": 0,
            "time": 0,
            "value": 0.09448818897637795
          }
        ],
        "7": [
          {
            "number": 7,
            "ticks": 0,
            "time": 0,
            "value": 0.6535433070866141
          },
          {
            "number": 7,
            "ticks": 0,
            "time": 0,
            "value": 0.6535433070866141
          }
        ],
        "10": [
          {
            "number": 10,
            "ticks": 0,
            "time": 0,
            "value": 0.6220472440944882
          },
          {
            "number": 10,
            "ticks": 0,
            "time": 0,
            "value": 0.6220472440944882
          }
        ],
        "100": [
          {
            "number": 100,
            "ticks": 0,
            "time": 0,
            "value": 0
          }
        ],
        "101": [
          {
            "number": 101,
            "ticks": 0,
            "time": 0,
            "value": 0
          }
        ]
      },
      "pitchBends": [
        {
          "ticks": 0,
          "time": 0,
          "value": 0
        },
        {
          "ticks": 0,
          "time": 0,
          "value": 0
        }
      ],
      "instrument": {
        "family": "piano",
        "number": 0,
        "name": "acoustic grand piano"
      },
      "name": "SYNTH STRINGS",
      "notes": [],
      "endOfTrackTicks": 25715
    },
    {
      "channel": 2,
      "controlChanges": {
        "6": [
          {
            "number": 6,
            "ticks": 0,
            "time": 0,
            "value": 0.09448818897637795
          },
          {
            "number": 6,
            "ticks": 0,
            "time": 0,
            "value": 0.09448818897637795
          },
          {
            "number": 6,
            "ticks": 25714,
            "time": 107.14166666666668,
            "value": 0.09448818897637795
          },
          {
            "number": 6,
            "ticks": 25715,
            "time": 107.14583333333333,
            "value": 0.09448818897637795
          }
        ],
        "7": [
          {
            "number": 7,
            "ticks": 0,
            "time": 0,
            "value": 0.6535433070866141
          },
          {
            "number": 7,
            "ticks": 0,
            "time": 0,
            "value": 0.6535433070866141
          },
          {
            "number": 7,
            "ticks": 25714,
            "time": 107.14166666666668,
            "value": 0.6535433070866141
          },
          {
            "number": 7,
            "ticks": 25715,
            "time": 107.14583333333333,
            "value": 0.6535433070866141
          }
        ],
        "10": [
          {
            "number": 10,
            "ticks": 0,
            "time": 0,
            "value": 0.6220472440944882
          },
          {
            "number": 10,
            "ticks": 0,
            "time": 0,
            "value": 0.6220472440944882
          },
          {
            "number": 10,
            "ticks": 25714,
            "time": 107.14166666666668,
            "value": 0.6220472440944882
          },
          {
            "number": 10,
            "ticks": 25715,
            "time": 107.14583333333333,
            "value": 0.6220472440944882
          }
        ],
        "93": [
          {
            "number": 93,
            "ticks": 0,
            "time": 0,
            "value": 0.29133858267716534
          },
          {
            "number": 93,
            "ticks": 0,
            "time": 0,
            "value": 0.29133858267716534
          },
          {
            "number": 93,
            "ticks": 0,
            "time": 0,
            "value": 0.29133858267716534
          },
          {
            "number": 93,
            "ticks": 25714,
            "time": 107.14166666666668,
            "value": 0.29133858267716534
          },
          {
            "number": 93,
            "ticks": 25715,
            "time": 107.14583333333333,
            "value": 0.29133858267716534
          }
        ],
        "100": [
          {
            "number": 100,
            "ticks": 0,
            "time": 0,
            "value": 0
          },
          {
            "number": 100,
            "ticks": 0,
            "time": 0,
            "value": 0
          },
          {
            "number": 100,
            "ticks": 25714,
            "time": 107.14166666666668,
            "value": 0
          },
          {
            "number": 100,
            "ticks": 25715,
            "time": 107.14583333333333,
            "value": 0
          }
        ],
        "101": [
          {
            "number": 101,
            "ticks": 0,
            "time": 0,
            "value": 0
          },
          {
            "number": 101,
            "ticks": 0,
            "time": 0,
            "value": 0
          },
          {
            "number": 101,
            "ticks": 25714,
            "time": 107.14166666666668,
            "value": 0
          },
          {
            "number": 101,
            "ticks": 25715,
            "time": 107.14583333333333,
            "value": 0
          }
        ]
      },
      "pitchBends": [
        {
          "ticks": 0,
          "time": 0,
          "value": 0
        },
        {
          "ticks": 0,
          "time": 0,
          "value": 0
        },
        {
          "ticks": 25714,
          "time": 107.14166666666668,
          "value": 0
        },
        {
          "ticks": 25715,
          "time": 107.14583333333333,
          "value": 0
        }
      ],
      "instrument": {
        "family": "ensemble",
        "number": 50,
        "name": "synthstrings 1"
      },
      "name": "",
      "notes": [
        {
          "duration": 0.6000000000000001,
          "durationTicks": 144,
          "midi": 74,
          "name": "D5",
          "ticks": 384,
          "time": 1.6,
          "velocity": 0.905511811023622
        },
        {
          "duration": 0.6000000000000001,
          "durationTicks": 144,
          "midi": 69,
          "name": "A4",
          "ticks": 384,
          "time": 1.6,
          "velocity": 0.905511811023622
        },
        {
          "duration": 0.6000000000000001,
          "durationTicks": 144,
          "midi": 50,
          "name": "D3",
          "ticks": 384,
          "time": 1.6,
          "velocity": 0.905511811023622
        },
        {
          "duration": 0.6000000000000001,
          "durationTicks": 144,
          "midi": 57,
          "name": "A3",
          "ticks": 384,
          "time": 1.6,
          "velocity": 0.905511811023622
        },
        {
          "duration": 0.6000000000000001,
          "durationTicks": 144,
          "midi": 62,
          "name": "D4",
          "ticks": 384,
          "time": 1.6,
          "velocity": 0.905511811023622
        },
        {
          "duration": 0.6000000000000001,
          "durationTicks": 144,
          "midi": 57,
          "name": "A3",
          "ticks": 528,
          "time": 2.2,
          "velocity": 0.905511811023622
        },
        {
          "duration": 0.6000000000000001,
          "durationTicks": 144,
          "midi": 49,
          "name": "C#3",
          "ticks": 528,
          "time": 2.2,
          "velocity": 0.905511811023622
        },
        {
          "duration": 0.6000000000000001,
          "durationTicks": 144,
          "midi": 61,
          "name": "C#4",
          "ticks": 528,
          "time": 2.2,
          "velocity": 0.905511811023622
        },
        {
          "duration": 0.6000000000000001,
          "durationTicks": 144,
          "midi": 73,
          "name": "C#5",
          "ticks": 528,
          "time": 2.2,
          "velocity": 0.905511811023622
        },
        {
          "duration": 0.6000000000000001,
          "durationTicks": 144,
          "midi": 69,
          "name": "A4",
          "ticks": 528,
          "time": 2.2,
          "velocity": 0.905511811023622
        },
        {
          "duration": 0.6000000000000001,
          "durationTicks": 144,
          "midi": 47,
          "name": "B2",
          "ticks": 672,
          "time": 2.8000000000000003,
          "velocity": 0.905511811023622
        },
        {
          "duration": 0.6000000000000001,
          "durationTicks": 144,
          "midi": 54,
          "name": "F#3",
          "ticks": 672,
          "time": 2.8000000000000003,
          "velocity": 0.905511811023622
        },
        {
          "duration": 0.6000000000000001,
          "durationTicks": 144,
          "midi": 59,
          "name": "B3",
          "ticks": 672,
          "time": 2.8000000000000003,
          "velocity": 0.905511811023622
        },
        {
          "duration": 0.6000000000000001,
          "durationTicks": 144,
          "midi": 66,
          "name": "F#4",
          "ticks": 672,
          "time": 2.8000000000000003,
          "velocity": 0.905511811023622
        },
        {
          "duration": 0.6000000000000001,
          "durationTicks": 144,
          "midi": 71,
          "name": "B4",
          "ticks": 672,
          "time": 2.8000000000000003,
          "velocity": 0.905511811023622
        },
        {
          "duration": 1.2000000000000002,
          "durationTicks": 288,
          "midi": 74,
          "name": "D5",
          "ticks": 816,
          "time": 3.4000000000000004,
          "velocity": 0.905511811023622
        },
        {
          "duration": 1.2000000000000002,
          "durationTicks": 288,
          "midi": 69,
          "name": "A4",
          "ticks": 816,
          "time": 3.4000000000000004,
          "velocity": 0.905511811023622
        },
        {
          "duration": 1.2000000000000002,
          "durationTicks": 288,
          "midi": 62,
          "name": "D4",
          "ticks": 816,
          "time": 3.4000000000000004,
          "velocity": 0.905511811023622
        },
        {
          "duration": 1.2000000000000002,
          "durationTicks": 288,
          "midi": 57,
          "name": "A3",
          "ticks": 816,
          "time": 3.4000000000000004,
          "velocity": 0.905511811023622
        },
        {
          "duration": 1.2000000000000002,
          "durationTicks": 288,
          "midi": 50,
          "name": "D3",
          "ticks": 816,
          "time": 3.4000000000000004,
          "velocity": 0.905511811023622
        },
        {
          "duration": 0.7000000000000002,
          "durationTicks": 168,
          "midi": 64,
          "name": "E4",
          "ticks": 1104,
          "time": 4.6000000000000005,
          "velocity": 0.905511811023622
        },
        {
          "duration": 0.7000000000000002,
          "durationTicks": 168,
          "midi": 59,
          "name": "B3",
          "ticks": 1104,
          "time": 4.6000000000000005,
          "velocity": 0.905511811023622
        },
        {
          "duration": 0.7000000000000002,
          "durationTicks": 168,
          "midi": 52,
          "name": "E3",
          "ticks": 1104,
          "time": 4.6000000000000005,
          "velocity": 0.905511811023622
        },
        {
          "duration": 0.7000000000000002,
          "durationTicks": 168,
          "midi": 71,
          "name": "B4",
          "ticks": 1104,
          "time": 4.6000000000000005,
          "velocity": 0.905511811023622
        },
        {
          "duration": 0.7000000000000002,
          "durationTicks": 168,
          "midi": 76,
          "name": "E5",
          "ticks": 1104,
          "time": 4.6000000000000005,
          "velocity": 0.905511811023622
        },
        {
          "duration": 1.5999999999999996,
          "durationTicks": 384,
          "midi": 69,
          "name": "A4",
          "ticks": 1536,
          "time": 6.4,
          "velocity": 0.7874015748031497
        },
        {
          "duration": 1.5999999999999996,
          "durationTicks": 384,
          "midi": 73,
          "name": "C#5",
          "ticks": 1536,
          "time": 6.4,
          "velocity": 0.7874015748031497
        },
        {
          "duration": 1.5999999999999996,
          "durationTicks": 384,
          "midi": 64,
          "name": "E4",
          "ticks": 1536,
          "time": 6.4,
          "velocity": 0.7874015748031497
        },
        {
          "duration": 1.5999999999999996,
          "durationTicks": 384,
          "midi": 76,
          "name": "E5",
          "ticks": 1536,
          "time": 6.4,
          "velocity": 0.8976377952755905
        },
        {
          "duration": 1.6000000000000014,
          "durationTicks": 384,
          "midi": 71,
          "name": "B4",
          "ticks": 1920,
          "time": 8,
          "velocity": 0.7874015748031497
        },
        {
          "duration": 1.6000000000000014,
          "durationTicks": 384,
          "midi": 68,
          "name": "G#4",
          "ticks": 1920,
          "time": 8,
          "velocity": 0.7874015748031497
        },
        {
          "duration": 1.6000000000000014,
          "durationTicks": 384,
          "midi": 64,
          "name": "E4",
          "ticks": 1920,
          "time": 8,
          "velocity": 0.7874015748031497
        },
        {
          "duration": 1.5999999999999996,
          "durationTicks": 384,
          "midi": 66,
          "name": "F#4",
          "ticks": 2304,
          "time": 9.600000000000001,
          "velocity": 0.7874015748031497
        },
        {
          "duration": 1.5999999999999996,
          "durationTicks": 384,
          "midi": 61,
          "name": "C#4",
          "ticks": 2304,
          "time": 9.600000000000001,
          "velocity": 0.7874015748031497
        },
        {
          "duration": 1.5999999999999996,
          "durationTicks": 384,
          "midi": 69,
          "name": "A4",
          "ticks": 2304,
          "time": 9.600000000000001,
          "velocity": 0.7874015748031497
        },
        {
          "duration": 1.5999999999999996,
          "durationTicks": 384,
          "midi": 73,
          "name": "C#5",
          "ticks": 2304,
          "time": 9.600000000000001,
          "velocity": 0.7874015748031497
        },
        {
          "duration": 1.5999999999999996,
          "durationTicks": 384,
          "midi": 68,
          "name": "G#4",
          "ticks": 2688,
          "time": 11.200000000000001,
          "velocity": 0.7874015748031497
        },
        {
          "duration": 1.5999999999999996,
          "durationTicks": 384,
          "midi": 71,
          "name": "B4",
          "ticks": 2688,
          "time": 11.200000000000001,
          "velocity": 0.9921259842519685
        },
        {
          "duration": 1.5999999999999996,
          "durationTicks": 384,
          "midi": 61,
          "name": "C#4",
          "ticks": 2688,
          "time": 11.200000000000001,
          "velocity": 0.7874015748031497
        },
        {
          "duration": 1.5999999999999996,
          "durationTicks": 384,
          "midi": 64,
          "name": "E4",
          "ticks": 2688,
          "time": 11.200000000000001,
          "velocity": 0.7874015748031497
        },
        {
          "duration": 0.8000000000000007,
          "durationTicks": 192,
          "midi": 62,
          "name": "D4",
          "ticks": 3072,
          "time": 12.8,
          "velocity": 0.9921259842519685
        },
        {
          "duration": 0.8000000000000007,
          "durationTicks": 192,
          "midi": 66,
          "name": "F#4",
          "ticks": 3072,
          "time": 12.8,
          "velocity": 0.9921259842519685
        },
        {
          "duration": 0.8000000000000007,
          "durationTicks": 192,
          "midi": 69,
          "name": "A4",
          "ticks": 3072,
          "time": 12.8,
          "velocity": 0.9921259842519685
        },
        {
          "duration": 0.7999999999999989,
          "durationTicks": 192,
          "midi": 68,
          "name": "G#4",
          "ticks": 3264,
          "time": 13.600000000000001,
          "velocity": 0.9921259842519685
        },
        {
          "duration": 0.7999999999999989,
          "durationTicks": 192,
          "midi": 62,
          "name": "D4",
          "ticks": 3264,
          "time": 13.600000000000001,
          "velocity": 0.9921259842519685
        },
        {
          "duration": 0.7999999999999989,
          "durationTicks": 192,
          "midi": 64,
          "name": "E4",
          "ticks": 3264,
          "time": 13.600000000000001,
          "velocity": 0.9921259842519685
        },
        {
          "duration": 0.5999999999999996,
          "durationTicks": 144,
          "midi": 69,
          "name": "A4",
          "ticks": 3456,
          "time": 14.4,
          "velocity": 0.9921259842519685
        },
        {
          "duration": 0.5999999999999996,
          "durationTicks": 144,
          "midi": 61,
          "name": "C#4",
          "ticks": 3456,
          "time": 14.4,
          "velocity": 0.9921259842519685
        },
        {
          "duration": 0.5999999999999996,
          "durationTicks": 144,
          "midi": 64,
          "name": "E4",
          "ticks": 3456,
          "time": 14.4,
          "velocity": 0.9921259842519685
        },
        {
          "duration": 1,
          "durationTicks": 240,
          "midi": 69,
          "name": "A4",
          "ticks": 3600,
          "time": 15,
          "velocity": 0.7874015748031497
        },
        {
          "duration": 1,
          "durationTicks": 240,
          "midi": 61,
          "name": "C#4",
          "ticks": 3600,
          "time": 15,
          "velocity": 0.9921259842519685
        },
        {
          "duration": 1,
          "durationTicks": 240,
          "midi": 66,
          "name": "F#4",
          "ticks": 3600,
          "time": 15,
          "velocity": 0.9921259842519685
        },
        {
          "duration": 1.6000000000000014,
          "durationTicks": 384,
          "midi": 62,
          "name": "D4",
          "ticks": 3840,
          "time": 16,
          "velocity": 0.9921259842519685
        },
        {
          "duration": 1.6000000000000014,
          "durationTicks": 384,
          "midi": 66,
          "name": "F#4",
          "ticks": 3840,
          "time": 16,
          "velocity": 0.9921259842519685
        },
        {
          "duration": 1.6000000000000014,
          "durationTicks": 384,
          "midi": 69,
          "name": "A4",
          "ticks": 3840,
          "time": 16,
          "velocity": 0.9921259842519685
        },
        {
          "duration": 1.6000000000000014,
          "durationTicks": 384,
          "midi": 68,
          "name": "G#4",
          "ticks": 4224,
          "time": 17.6,
          "velocity": 0.9921259842519685
        },
        {
          "duration": 1.6000000000000014,
          "durationTicks": 384,
          "midi": 64,
          "name": "E4",
          "ticks": 4224,
          "time": 17.6,
          "velocity": 0.9921259842519685
        },
        {
          "duration": 1.6000000000000014,
          "durationTicks": 384,
          "midi": 71,
          "name": "B4",
          "ticks": 4224,
          "time": 17.6,
          "velocity": 0.9921259842519685
        },
        {
          "duration": 1.5999999999999979,
          "durationTicks": 384,
          "midi": 64,
          "name": "E4",
          "ticks": 4608,
          "time": 19.200000000000003,
          "velocity": 0.7874015748031497
        },
        {
          "duration": 1.5999999999999979,
          "durationTicks": 384,
          "midi": 73,
          "name": "C#5",
          "ticks": 4608,
          "time": 19.200000000000003,
          "velocity": 0.7874015748031497
        },
        {
          "duration": 1.5999999999999979,
          "durationTicks": 384,
          "midi": 69,
          "name": "A4",
          "ticks": 4608,
          "time": 19.200000000000003,
          "velocity": 0.7874015748031497
        },
        {
          "duration": 1.5999999999999979,
          "durationTicks": 384,
          "midi": 76,
          "name": "E5",
          "ticks": 4608,
          "time": 19.200000000000003,
          "velocity": 0.8976377952755905
        },
        {
          "duration": 1.6000000000000014,
          "durationTicks": 384,
          "midi": 64,
          "name": "E4",
          "ticks": 4992,
          "time": 20.8,
          "velocity": 0.7874015748031497
        },
        {
          "duration": 1.6000000000000014,
          "durationTicks": 384,
          "midi": 68,
          "name": "G#4",
          "ticks": 4992,
          "time": 20.8,
          "velocity": 0.7874015748031497
        },
        {
          "duration": 1.6000000000000014,
          "durationTicks": 384,
          "midi": 71,
          "name": "B4",
          "ticks": 4992,
          "time": 20.8,
          "velocity": 0.7874015748031497
        },
        {
          "duration": 1.5999999999999979,
          "durationTicks": 384,
          "midi": 73,
          "name": "C#5",
          "ticks": 5376,
          "time": 22.400000000000002,
          "velocity": 0.7874015748031497
        },
        {
          "duration": 1.5999999999999979,
          "durationTicks": 384,
          "midi": 69,
          "name": "A4",
          "ticks": 5376,
          "time": 22.400000000000002,
          "velocity": 0.7874015748031497
        },
        {
          "duration": 1.5999999999999979,
          "durationTicks": 384,
          "midi": 61,
          "name": "C#4",
          "ticks": 5376,
          "time": 22.400000000000002,
          "velocity": 0.7874015748031497
        },
        {
          "duration": 1.5999999999999979,
          "durationTicks": 384,
          "midi": 66,
          "name": "F#4",
          "ticks": 5376,
          "time": 22.400000000000002,
          "velocity": 0.7874015748031497
        },
        {
          "duration": 1.6000000000000014,
          "durationTicks": 384,
          "midi": 68,
          "name": "G#4",
          "ticks": 5760,
          "time": 24,
          "velocity": 0.7874015748031497
        },
        {
          "duration": 1.6000000000000014,
          "durationTicks": 384,
          "midi": 71,
          "name": "B4",
          "ticks": 5760,
          "time": 24,
          "velocity": 0.9921259842519685
        },
        {
          "duration": 1.6000000000000014,
          "durationTicks": 384,
          "midi": 61,
          "name": "C#4",
          "ticks": 5760,
          "time": 24,
          "velocity": 0.7874015748031497
        },
        {
          "duration": 1.6000000000000014,
          "durationTicks": 384,
          "midi": 64,
          "name": "E4",
          "ticks": 5760,
          "time": 24,
          "velocity": 0.7874015748031497
        },
        {
          "duration": 0.8000000000000007,
          "durationTicks": 192,
          "midi": 62,
          "name": "D4",
          "ticks": 6144,
          "time": 25.6,
          "velocity": 0.9921259842519685
        },
        {
          "duration": 0.8000000000000007,
          "durationTicks": 192,
          "midi": 66,
          "name": "F#4",
          "ticks": 6144,
          "time": 25.6,
          "velocity": 0.9921259842519685
        },
        {
          "duration": 0.8000000000000007,
          "durationTicks": 192,
          "midi": 69,
          "name": "A4",
          "ticks": 6144,
          "time": 25.6,
          "velocity": 0.9921259842519685
        },
        {
          "duration": 0.8000000000000007,
          "durationTicks": 192,
          "midi": 68,
          "name": "G#4",
          "ticks": 6336,
          "time": 26.400000000000002,
          "velocity": 0.9921259842519685
        },
        {
          "duration": 0.8000000000000007,
          "durationTicks": 192,
          "midi": 62,
          "name": "D4",
          "ticks": 6336,
          "time": 26.400000000000002,
          "velocity": 0.9921259842519685
        },
        {
          "duration": 0.8000000000000007,
          "durationTicks": 192,
          "midi": 64,
          "name": "E4",
          "ticks": 6336,
          "time": 26.400000000000002,
          "velocity": 0.9921259842519685
        },
        {
          "duration": 0.5999999999999979,
          "durationTicks": 144,
          "midi": 69,
          "name": "A4",
          "ticks": 6528,
          "time": 27.200000000000003,
          "velocity": 0.9921259842519685
        },
        {
          "duration": 0.5999999999999979,
          "durationTicks": 144,
          "midi": 61,
          "name": "C#4",
          "ticks": 6528,
          "time": 27.200000000000003,
          "velocity": 0.9921259842519685
        },
        {
          "duration": 0.5999999999999979,
          "durationTicks": 144,
          "midi": 64,
          "name": "E4",
          "ticks": 6528,
          "time": 27.200000000000003,
          "velocity": 0.9921259842519685
        },
        {
          "duration": 1,
          "durationTicks": 240,
          "midi": 69,
          "name": "A4",
          "ticks": 6672,
          "time": 27.8,
          "velocity": 0.7874015748031497
        },
        {
          "duration": 1,
          "durationTicks": 240,
          "midi": 66,
          "name": "F#4",
          "ticks": 6672,
          "time": 27.8,
          "velocity": 0.9921259842519685
        },
        {
          "duration": 1,
          "durationTicks": 240,
          "midi": 61,
          "name": "C#4",
          "ticks": 6672,
          "time": 27.8,
          "velocity": 0.9921259842519685
        },
        {
          "duration": 1.4000000000000021,
          "durationTicks": 336,
          "midi": 69,
          "name": "A4",
          "ticks": 6912,
          "time": 28.8,
          "velocity": 0.7874015748031497
        },
        {
          "duration": 1.4000000000000021,
          "durationTicks": 336,
          "midi": 66,
          "name": "F#4",
          "ticks": 6912,
          "time": 28.8,
          "velocity": 0.7874015748031497
        },
        {
          "duration": 0.8000000000000007,
          "durationTicks": 192,
          "midi": 62,
          "name": "D4",
          "ticks": 6912,
          "time": 28.8,
          "velocity": 0.7874015748031497
        },
        {
          "duration": 0.6000000000000014,
          "durationTicks": 144,
          "midi": 64,
          "name": "E4",
          "ticks": 7104,
          "time": 29.6,
          "velocity": 0.7874015748031497
        },
        {
          "duration": 0.6000000000000014,
          "durationTicks": 144,
          "midi": 71,
          "name": "B4",
          "ticks": 7104,
          "time": 29.6,
          "velocity": 0.7874015748031497
        },
        {
          "duration": 1.7999999999999972,
          "durationTicks": 432,
          "midi": 69,
          "name": "A4",
          "ticks": 7248,
          "time": 30.200000000000003,
          "velocity": 0.7874015748031497
        },
        {
          "duration": 1.7999999999999972,
          "durationTicks": 432,
          "midi": 64,
          "name": "E4",
          "ticks": 7248,
          "time": 30.200000000000003,
          "velocity": 0.7874015748031497
        },
        {
          "duration": 1.7999999999999972,
          "durationTicks": 432,
          "midi": 61,
          "name": "C#4",
          "ticks": 7248,
          "time": 30.200000000000003,
          "velocity": 0.7874015748031497
        },
        {
          "duration": 3.200000000000003,
          "durationTicks": 768,
          "midi": 70,
          "name": "A#4",
          "ticks": 7680,
          "time": 32,
          "velocity": 0.7874015748031497
        },
        {
          "duration": 3.200000000000003,
          "durationTicks": 768,
          "midi": 66,
          "name": "F#4",
          "ticks": 7680,
          "time": 32,
          "velocity": 0.7874015748031497
        },
        {
          "duration": 3.200000000000003,
          "durationTicks": 768,
          "midi": 61,
          "name": "C#4",
          "ticks": 7680,
          "time": 32,
          "velocity": 0.7874015748031497
        },
        {
          "duration": 3.200000000000003,
          "durationTicks": 768,
          "midi": 65,
          "name": "F4",
          "ticks": 8448,
          "time": 35.2,
          "velocity": 0.7874015748031497
        },
        {
          "duration": 3.200000000000003,
          "durationTicks": 768,
          "midi": 61,
          "name": "C#4",
          "ticks": 8448,
          "time": 35.2,
          "velocity": 0.7874015748031497
        },
        {
          "duration": 3.200000000000003,
          "durationTicks": 768,
          "midi": 70,
          "name": "A#4",
          "ticks": 8448,
          "time": 35.2,
          "velocity": 0.7874015748031497
        },
        {
          "duration": 3.1999999999999957,
          "durationTicks": 768,
          "midi": 66,
          "name": "F#4",
          "ticks": 9216,
          "time": 38.400000000000006,
          "velocity": 0.7874015748031497
        },
        {
          "duration": 3.1999999999999957,
          "durationTicks": 768,
          "midi": 63,
          "name": "D#4",
          "ticks": 9216,
          "time": 38.400000000000006,
          "velocity": 0.7874015748031497
        },
        {
          "duration": 3.1999999999999957,
          "durationTicks": 768,
          "midi": 70,
          "name": "A#4",
          "ticks": 9216,
          "time": 38.400000000000006,
          "velocity": 0.7874015748031497
        },
        {
          "duration": 3.200000000000003,
          "durationTicks": 768,
          "midi": 69,
          "name": "A4",
          "ticks": 9984,
          "time": 41.6,
          "velocity": 0.7874015748031497
        },
        {
          "duration": 3.200000000000003,
          "durationTicks": 768,
          "midi": 66,
          "name": "F#4",
          "ticks": 9984,
          "time": 41.6,
          "velocity": 0.7874015748031497
        },
        {
          "duration": 3.200000000000003,
          "durationTicks": 768,
          "midi": 62,
          "name": "D4",
          "ticks": 9984,
          "time": 41.6,
          "velocity": 0.7874015748031497
        },
        {
          "duration": 3.1999999999999957,
          "durationTicks": 768,
          "midi": 61,
          "name": "C#4",
          "ticks": 10752,
          "time": 44.800000000000004,
          "velocity": 0.7874015748031497
        },
        {
          "duration": 1.6000000000000014,
          "durationTicks": 384,
          "midi": 66,
          "name": "F#4",
          "ticks": 10752,
          "time": 44.800000000000004,
          "velocity": 0.7874015748031497
        },
        {
          "duration": 3.1999999999999957,
          "durationTicks": 768,
          "midi": 70,
          "name": "A#4",
          "ticks": 10752,
          "time": 44.800000000000004,
          "velocity": 0.7874015748031497
        },
        {
          "duration": 1.5999999999999943,
          "durationTicks": 384,
          "midi": 68,
          "name": "G#4",
          "ticks": 11136,
          "time": 46.400000000000006,
          "velocity": 0.7874015748031497
        },
        {
          "duration": 1.6000000000000014,
          "durationTicks": 384,
          "midi": 71,
          "name": "B4",
          "ticks": 11520,
          "time": 48,
          "velocity": 0.7874015748031497
        },
        {
          "duration": 1.6000000000000014,
          "durationTicks": 384,
          "midi": 66,
          "name": "F#4",
          "ticks": 11520,
          "time": 48,
          "velocity": 0.7874015748031497
        },
        {
          "duration": 1.6000000000000014,
          "durationTicks": 384,
          "midi": 63,
          "name": "D#4",
          "ticks": 11520,
          "time": 48,
          "velocity": 0.7874015748031497
        },
        {
          "duration": 1.6000000000000014,
          "durationTicks": 384,
          "midi": 65,
          "name": "F4",
          "ticks": 11904,
          "time": 49.6,
          "velocity": 0.7874015748031497
        },
        {
          "duration": 1.6000000000000014,
          "durationTicks": 384,
          "midi": 73,
          "name": "C#5",
          "ticks": 11904,
          "time": 49.6,
          "velocity": 0.7874015748031497
        },
        {
          "duration": 1.6000000000000014,
          "durationTicks": 384,
          "midi": 68,
          "name": "G#4",
          "ticks": 11904,
          "time": 49.6,
          "velocity": 0.7874015748031497
        },
        {
          "duration": 1.6000000000000014,
          "durationTicks": 384,
          "midi": 66,
          "name": "F#4",
          "ticks": 12288,
          "time": 51.2,
          "velocity": 0.7874015748031497
        },
        {
          "duration": 1.6000000000000014,
          "durationTicks": 384,
          "midi": 73,
          "name": "C#5",
          "ticks": 12288,
          "time": 51.2,
          "velocity": 0.7874015748031497
        },
        {
          "duration": 1.6000000000000014,
          "durationTicks": 384,
          "midi": 70,
          "name": "A#4",
          "ticks": 12288,
          "time": 51.2,
          "velocity": 0.7874015748031497
        },
        {
          "duration": 1.6000000000000014,
          "durationTicks": 384,
          "midi": 65,
          "name": "F4",
          "ticks": 12672,
          "time": 52.800000000000004,
          "velocity": 0.7874015748031497
        },
        {
          "duration": 1.6000000000000014,
          "durationTicks": 384,
          "midi": 70,
          "name": "A#4",
          "ticks": 12672,
          "time": 52.800000000000004,
          "velocity": 0.7874015748031497
        },
        {
          "duration": 1.6000000000000014,
          "durationTicks": 384,
          "midi": 74,
          "name": "D5",
          "ticks": 12672,
          "time": 52.800000000000004,
          "velocity": 0.7874015748031497
        },
        {
          "duration": 1.5999999999999943,
          "durationTicks": 384,
          "midi": 70,
          "name": "A#4",
          "ticks": 13056,
          "time": 54.400000000000006,
          "velocity": 0.7874015748031497
        },
        {
          "duration": 1.5999999999999943,
          "durationTicks": 384,
          "midi": 66,
          "name": "F#4",
          "ticks": 13056,
          "time": 54.400000000000006,
          "velocity": 0.7874015748031497
        },
        {
          "duration": 1.6000000000000014,
          "durationTicks": 384,
          "midi": 65,
          "name": "F4",
          "ticks": 13440,
          "time": 56,
          "velocity": 0.7874015748031497
        },
        {
          "duration": 1.6000000000000014,
          "durationTicks": 384,
          "midi": 68,
          "name": "G#4",
          "ticks": 13440,
          "time": 56,
          "velocity": 0.7874015748031497
        },
        {
          "duration": 1.6000000000000014,
          "durationTicks": 384,
          "midi": 66,
          "name": "F#4",
          "ticks": 13824,
          "time": 57.6,
          "velocity": 0.7874015748031497
        },
        {
          "duration": 1.6000000000000014,
          "durationTicks": 384,
          "midi": 70,
          "name": "A#4",
          "ticks": 13824,
          "time": 57.6,
          "velocity": 0.7874015748031497
        },
        {
          "duration": 0.7999999999999972,
          "durationTicks": 192,
          "midi": 70,
          "name": "A#4",
          "ticks": 14208,
          "time": 59.2,
          "velocity": 0.7874015748031497
        },
        {
          "duration": 0.7999999999999972,
          "durationTicks": 192,
          "midi": 66,
          "name": "F#4",
          "ticks": 14208,
          "time": 59.2,
          "velocity": 0.7874015748031497
        },
        {
          "duration": 0.8000000000000043,
          "durationTicks": 192,
          "midi": 70,
          "name": "A#4",
          "ticks": 14400,
          "time": 60,
          "velocity": 0.7874015748031497
        },
        {
          "duration": 0.8000000000000043,
          "durationTicks": 192,
          "midi": 65,
          "name": "F4",
          "ticks": 14400,
          "time": 60,
          "velocity": 0.7874015748031497
        },
        {
          "duration": 1.6000000000000014,
          "durationTicks": 384,
          "midi": 66,
          "name": "F#4",
          "ticks": 14592,
          "time": 60.800000000000004,
          "velocity": 0.7874015748031497
        },
        {
          "duration": 1.6000000000000014,
          "durationTicks": 384,
          "midi": 70,
          "name": "A#4",
          "ticks": 14592,
          "time": 60.800000000000004,
          "velocity": 0.7874015748031497
        },
        {
          "duration": 1.5999999999999943,
          "durationTicks": 384,
          "midi": 68,
          "name": "G#4",
          "ticks": 14976,
          "time": 62.400000000000006,
          "velocity": 0.7874015748031497
        },
        {
          "duration": 1.5999999999999943,
          "durationTicks": 384,
          "midi": 73,
          "name": "C#5",
          "ticks": 14976,
          "time": 62.400000000000006,
          "velocity": 0.7874015748031497
        },
        {
          "duration": 1.6000000000000085,
          "durationTicks": 384,
          "midi": 66,
          "name": "F#4",
          "ticks": 15360,
          "time": 64,
          "velocity": 0.7874015748031497
        },
        {
          "duration": 1.6000000000000085,
          "durationTicks": 384,
          "midi": 70,
          "name": "A#4",
          "ticks": 15360,
          "time": 64,
          "velocity": 0.7874015748031497
        },
        {
          "duration": 1.5999999999999943,
          "durationTicks": 384,
          "midi": 72,
          "name": "C5",
          "ticks": 15744,
          "time": 65.60000000000001,
          "velocity": 0.7874015748031497
        },
        {
          "duration": 1.5999999999999943,
          "durationTicks": 384,
          "midi": 68,
          "name": "G#4",
          "ticks": 15744,
          "time": 65.60000000000001,
          "velocity": 0.7874015748031497
        },
        {
          "duration": 1.5999999999999943,
          "durationTicks": 384,
          "midi": 63,
          "name": "D#4",
          "ticks": 15744,
          "time": 65.60000000000001,
          "velocity": 0.7874015748031497
        },
        {
          "duration": 3.200000000000003,
          "durationTicks": 768,
          "midi": 73,
          "name": "C#5",
          "ticks": 16128,
          "time": 67.2,
          "velocity": 0.7874015748031497
        },
        {
          "duration": 3.200000000000003,
          "durationTicks": 768,
          "midi": 68,
          "name": "G#4",
          "ticks": 16128,
          "time": 67.2,
          "velocity": 0.7874015748031497
        },
        {
          "duration": 1.5999999999999943,
          "durationTicks": 384,
          "midi": 66,
          "name": "F#4",
          "ticks": 16128,
          "time": 67.2,
          "velocity": 0.7874015748031497
        },
        {
          "duration": 1.6000000000000085,
          "durationTicks": 384,
          "midi": 65,
          "name": "F4",
          "ticks": 16512,
          "time": 68.8,
          "velocity": 0.7874015748031497
        },
        {
          "duration": 0.7999999999999972,
          "durationTicks": 192,
          "midi": 73,
          "name": "C#5",
          "ticks": 16896,
          "time": 70.4,
          "velocity": 0.7874015748031497
        },
        {
          "duration": 1.5999999999999943,
          "durationTicks": 384,
          "midi": 61,
          "name": "C#4",
          "ticks": 16896,
          "time": 70.4,
          "velocity": 0.7874015748031497
        },
        {
          "duration": 0.7999999999999972,
          "durationTicks": 192,
          "midi": 75,
          "name": "D#5",
          "ticks": 17088,
          "time": 71.2,
          "velocity": 0.7874015748031497
        },
        {
          "duration": 0.4000000000000057,
          "durationTicks": 96,
          "midi": 76,
          "name": "E5",
          "ticks": 17280,
          "time": 72,
          "velocity": 0.7874015748031497
        },
        {
          "duration": 1.5999999999999943,
          "durationTicks": 384,
          "midi": 69,
          "name": "A4",
          "ticks": 17664,
          "time": 73.60000000000001,
          "velocity": 0.7874015748031497
        },
        {
          "duration": 1.5999999999999943,
          "durationTicks": 384,
          "midi": 73,
          "name": "C#5",
          "ticks": 17664,
          "time": 73.60000000000001,
          "velocity": 0.7874015748031497
        },
        {
          "duration": 1.5999999999999943,
          "durationTicks": 384,
          "midi": 64,
          "name": "E4",
          "ticks": 17664,
          "time": 73.60000000000001,
          "velocity": 0.7874015748031497
        },
        {
          "duration": 1.5999999999999943,
          "durationTicks": 384,
          "midi": 76,
          "name": "E5",
          "ticks": 17664,
          "time": 73.60000000000001,
          "velocity": 0.8976377952755905
        },
        {
          "duration": 1.6000000000000085,
          "durationTicks": 384,
          "midi": 71,
          "name": "B4",
          "ticks": 18048,
          "time": 75.2,
          "velocity": 0.7874015748031497
        },
        {
          "duration": 1.6000000000000085,
          "durationTicks": 384,
          "midi": 68,
          "name": "G#4",
          "ticks": 18048,
          "time": 75.2,
          "velocity": 0.7874015748031497
        },
        {
          "duration": 1.6000000000000085,
          "durationTicks": 384,
          "midi": 64,
          "name": "E4",
          "ticks": 18048,
          "time": 75.2,
          "velocity": 0.7874015748031497
        },
        {
          "duration": 1.5999999999999943,
          "durationTicks": 384,
          "midi": 73,
          "name": "C#5",
          "ticks": 18432,
          "time": 76.80000000000001,
          "velocity": 0.7874015748031497
        },
        {
          "duration": 1.5999999999999943,
          "durationTicks": 384,
          "midi": 69,
          "name": "A4",
          "ticks": 18432,
          "time": 76.80000000000001,
          "velocity": 0.7874015748031497
        },
        {
          "duration": 1.5999999999999943,
          "durationTicks": 384,
          "midi": 61,
          "name": "C#4",
          "ticks": 18432,
          "time": 76.80000000000001,
          "velocity": 0.7874015748031497
        },
        {
          "duration": 1.5999999999999943,
          "durationTicks": 384,
          "midi": 66,
          "name": "F#4",
          "ticks": 18432,
          "time": 76.80000000000001,
          "velocity": 0.7874015748031497
        },
        {
          "duration": 1.5999999999999943,
          "durationTicks": 384,
          "midi": 68,
          "name": "G#4",
          "ticks": 18816,
          "time": 78.4,
          "velocity": 0.7874015748031497
        },
        {
          "duration": 1.5999999999999943,
          "durationTicks": 384,
          "midi": 71,
          "name": "B4",
          "ticks": 18816,
          "time": 78.4,
          "velocity": 0.9921259842519685
        },
        {
          "duration": 1.5999999999999943,
          "durationTicks": 384,
          "midi": 61,
          "name": "C#4",
          "ticks": 18816,
          "time": 78.4,
          "velocity": 0.7874015748031497
        },
        {
          "duration": 1.5999999999999943,
          "durationTicks": 384,
          "midi": 64,
          "name": "E4",
          "ticks": 18816,
          "time": 78.4,
          "velocity": 0.7874015748031497
        },
        {
          "duration": 0.8000000000000114,
          "durationTicks": 192,
          "midi": 62,
          "name": "D4",
          "ticks": 19200,
          "time": 80,
          "velocity": 0.9921259842519685
        },
        {
          "duration": 0.8000000000000114,
          "durationTicks": 192,
          "midi": 66,
          "name": "F#4",
          "ticks": 19200,
          "time": 80,
          "velocity": 0.9921259842519685
        },
        {
          "duration": 0.8000000000000114,
          "durationTicks": 192,
          "midi": 69,
          "name": "A4",
          "ticks": 19200,
          "time": 80,
          "velocity": 0.9921259842519685
        },
        {
          "duration": 0.7999999999999972,
          "durationTicks": 192,
          "midi": 68,
          "name": "G#4",
          "ticks": 19392,
          "time": 80.80000000000001,
          "velocity": 0.9921259842519685
        },
        {
          "duration": 0.7999999999999972,
          "durationTicks": 192,
          "midi": 62,
          "name": "D4",
          "ticks": 19392,
          "time": 80.80000000000001,
          "velocity": 0.9921259842519685
        },
        {
          "duration": 0.7999999999999972,
          "durationTicks": 192,
          "midi": 64,
          "name": "E4",
          "ticks": 19392,
          "time": 80.80000000000001,
          "velocity": 0.9921259842519685
        },
        {
          "duration": 0.5999999999999943,
          "durationTicks": 144,
          "midi": 69,
          "name": "A4",
          "ticks": 19584,
          "time": 81.60000000000001,
          "velocity": 0.9921259842519685
        },
        {
          "duration": 0.5999999999999943,
          "durationTicks": 144,
          "midi": 61,
          "name": "C#4",
          "ticks": 19584,
          "time": 81.60000000000001,
          "velocity": 0.9921259842519685
        },
        {
          "duration": 0.5999999999999943,
          "durationTicks": 144,
          "midi": 64,
          "name": "E4",
          "ticks": 19584,
          "time": 81.60000000000001,
          "velocity": 0.9921259842519685
        },
        {
          "duration": 1,
          "durationTicks": 240,
          "midi": 69,
          "name": "A4",
          "ticks": 19728,
          "time": 82.2,
          "velocity": 0.7874015748031497
        },
        {
          "duration": 1,
          "durationTicks": 240,
          "midi": 61,
          "name": "C#4",
          "ticks": 19728,
          "time": 82.2,
          "velocity": 0.9921259842519685
        },
        {
          "duration": 1,
          "durationTicks": 240,
          "midi": 66,
          "name": "F#4",
          "ticks": 19728,
          "time": 82.2,
          "velocity": 0.9921259842519685
        },
        {
          "duration": 1.6000000000000085,
          "durationTicks": 384,
          "midi": 62,
          "name": "D4",
          "ticks": 19968,
          "time": 83.2,
          "velocity": 0.9921259842519685
        },
        {
          "duration": 1.6000000000000085,
          "durationTicks": 384,
          "midi": 66,
          "name": "F#4",
          "ticks": 19968,
          "time": 83.2,
          "velocity": 0.9921259842519685
        },
        {
          "duration": 1.6000000000000085,
          "durationTicks": 384,
          "midi": 69,
          "name": "A4",
          "ticks": 19968,
          "time": 83.2,
          "velocity": 0.9921259842519685
        },
        {
          "duration": 1.5999999999999943,
          "durationTicks": 384,
          "midi": 68,
          "name": "G#4",
          "ticks": 20352,
          "time": 84.80000000000001,
          "velocity": 0.9921259842519685
        },
        {
          "duration": 1.5999999999999943,
          "durationTicks": 384,
          "midi": 64,
          "name": "E4",
          "ticks": 20352,
          "time": 84.80000000000001,
          "velocity": 0.9921259842519685
        },
        {
          "duration": 1.5999999999999943,
          "durationTicks": 384,
          "midi": 71,
          "name": "B4",
          "ticks": 20352,
          "time": 84.80000000000001,
          "velocity": 0.9921259842519685
        },
        {
          "duration": 1.5999999999999943,
          "durationTicks": 384,
          "midi": 64,
          "name": "E4",
          "ticks": 20736,
          "time": 86.4,
          "velocity": 0.7874015748031497
        },
        {
          "duration": 1.5999999999999943,
          "durationTicks": 384,
          "midi": 73,
          "name": "C#5",
          "ticks": 20736,
          "time": 86.4,
          "velocity": 0.7874015748031497
        },
        {
          "duration": 1.5999999999999943,
          "durationTicks": 384,
          "midi": 69,
          "name": "A4",
          "ticks": 20736,
          "time": 86.4,
          "velocity": 0.7874015748031497
        },
        {
          "duration": 1.5999999999999943,
          "durationTicks": 384,
          "midi": 76,
          "name": "E5",
          "ticks": 20736,
          "time": 86.4,
          "velocity": 0.8976377952755905
        },
        {
          "duration": 1.6000000000000085,
          "durationTicks": 384,
          "midi": 71,
          "name": "B4",
          "ticks": 21120,
          "time": 88,
          "velocity": 0.7874015748031497
        },
        {
          "duration": 1.6000000000000085,
          "durationTicks": 384,
          "midi": 68,
          "name": "G#4",
          "ticks": 21120,
          "time": 88,
          "velocity": 0.7874015748031497
        },
        {
          "duration": 1.6000000000000085,
          "durationTicks": 384,
          "midi": 64,
          "name": "E4",
          "ticks": 21120,
          "time": 88,
          "velocity": 0.7874015748031497
        },
        {
          "duration": 1.5999999999999943,
          "durationTicks": 384,
          "midi": 66,
          "name": "F#4",
          "ticks": 21504,
          "time": 89.60000000000001,
          "velocity": 0.7874015748031497
        },
        {
          "duration": 1.5999999999999943,
          "durationTicks": 384,
          "midi": 61,
          "name": "C#4",
          "ticks": 21504,
          "time": 89.60000000000001,
          "velocity": 0.7874015748031497
        },
        {
          "duration": 1.5999999999999943,
          "durationTicks": 384,
          "midi": 69,
          "name": "A4",
          "ticks": 21504,
          "time": 89.60000000000001,
          "velocity": 0.7874015748031497
        },
        {
          "duration": 1.5999999999999943,
          "durationTicks": 384,
          "midi": 73,
          "name": "C#5",
          "ticks": 21504,
          "time": 89.60000000000001,
          "velocity": 0.7874015748031497
        },
        {
          "duration": 1.6000000000000085,
          "durationTicks": 384,
          "midi": 68,
          "name": "G#4",
          "ticks": 21888,
          "time": 91.2,
          "velocity": 0.7874015748031497
        },
        {
          "duration": 1.6000000000000085,
          "durationTicks": 384,
          "midi": 71,
          "name": "B4",
          "ticks": 21888,
          "time": 91.2,
          "velocity": 0.9921259842519685
        },
        {
          "duration": 1.6000000000000085,
          "durationTicks": 384,
          "midi": 61,
          "name": "C#4",
          "ticks": 21888,
          "time": 91.2,
          "velocity": 0.7874015748031497
        },
        {
          "duration": 1.6000000000000085,
          "durationTicks": 384,
          "midi": 64,
          "name": "E4",
          "ticks": 21888,
          "time": 91.2,
          "velocity": 0.7874015748031497
        },
        {
          "duration": 0.7999999999999972,
          "durationTicks": 192,
          "midi": 69,
          "name": "A4",
          "ticks": 22272,
          "time": 92.80000000000001,
          "velocity": 0.9921259842519685
        },
        {
          "duration": 0.7999999999999972,
          "durationTicks": 192,
          "midi": 66,
          "name": "F#4",
          "ticks": 22272,
          "time": 92.80000000000001,
          "velocity": 0.9921259842519685
        },
        {
          "duration": 0.7999999999999972,
          "durationTicks": 192,
          "midi": 62,
          "name": "D4",
          "ticks": 22272,
          "time": 92.80000000000001,
          "velocity": 0.9921259842519685
        },
        {
          "duration": 0.7999999999999972,
          "durationTicks": 192,
          "midi": 64,
          "name": "E4",
          "ticks": 22464,
          "time": 93.60000000000001,
          "velocity": 0.9921259842519685
        },
        {
          "duration": 0.7999999999999972,
          "durationTicks": 192,
          "midi": 62,
          "name": "D4",
          "ticks": 22464,
          "time": 93.60000000000001,
          "velocity": 0.9921259842519685
        },
        {
          "duration": 0.7999999999999972,
          "durationTicks": 192,
          "midi": 68,
          "name": "G#4",
          "ticks": 22464,
          "time": 93.60000000000001,
          "velocity": 0.9921259842519685
        },
        {
          "duration": 0.5999999999999943,
          "durationTicks": 144,
          "midi": 69,
          "name": "A4",
          "ticks": 22656,
          "time": 94.4,
          "velocity": 0.9921259842519685
        },
        {
          "duration": 0.5999999999999943,
          "durationTicks": 144,
          "midi": 61,
          "name": "C#4",
          "ticks": 22656,
          "time": 94.4,
          "velocity": 0.9921259842519685
        },
        {
          "duration": 0.5999999999999943,
          "durationTicks": 144,
          "midi": 64,
          "name": "E4",
          "ticks": 22656,
          "time": 94.4,
          "velocity": 0.9921259842519685
        },
        {
          "duration": 1,
          "durationTicks": 240,
          "midi": 69,
          "name": "A4",
          "ticks": 22800,
          "time": 95,
          "velocity": 0.7874015748031497
        },
        {
          "duration": 1,
          "durationTicks": 240,
          "midi": 66,
          "name": "F#4",
          "ticks": 22800,
          "time": 95,
          "velocity": 0.9921259842519685
        },
        {
          "duration": 1,
          "durationTicks": 240,
          "midi": 61,
          "name": "C#4",
          "ticks": 22800,
          "time": 95,
          "velocity": 0.9921259842519685
        },
        {
          "duration": 1.6000000000000085,
          "durationTicks": 384,
          "midi": 66,
          "name": "F#4",
          "ticks": 23040,
          "time": 96,
          "velocity": 0.7874015748031497
        },
        {
          "duration": 1.6000000000000085,
          "durationTicks": 384,
          "midi": 62,
          "name": "D4",
          "ticks": 23040,
          "time": 96,
          "velocity": 0.7874015748031497
        },
        {
          "duration": 1.6000000000000085,
          "durationTicks": 384,
          "midi": 69,
          "name": "A4",
          "ticks": 23040,
          "time": 96,
          "velocity": 0.7874015748031497
        },
        {
          "duration": 0.20000000000000284,
          "durationTicks": 48,
          "midi": 62,
          "name": "D4",
          "ticks": 23424,
          "time": 97.60000000000001,
          "velocity": 0.7874015748031497
        },
        {
          "duration": 0.20000000000000284,
          "durationTicks": 48,
          "midi": 66,
          "name": "F#4",
          "ticks": 23424,
          "time": 97.60000000000001,
          "velocity": 0.7874015748031497
        },
        {
          "duration": 0.20000000000000284,
          "durationTicks": 48,
          "midi": 69,
          "name": "A4",
          "ticks": 23424,
          "time": 97.60000000000001,
          "velocity": 0.7874015748031497
        }
      ]
    },
    {
      "channel": 0,
      "controlChanges": {
        "6": [
          {
            "number": 6,
            "ticks": 0,
            "time": 0,
            "value": 0.09448818897637795
          }
        ],
        "7": [
          {
            "number": 7,
            "ticks": 0,
            "time": 0,
            "value": 0.7559055118110236
          },
          {
            "number": 7,
            "ticks": 0,
            "time": 0,
            "value": 0.7559055118110236
          }
        ],
        "10": [
          {
            "number": 10,
            "ticks": 0,
            "time": 0,
            "value": 0.4094488188976378
          },
          {
            "number": 10,
            "ticks": 0,
            "time": 0,
            "value": 0.4094488188976378
          }
        ],
        "100": [
          {
            "number": 100,
            "ticks": 0,
            "time": 0,
            "value": 0
          }
        ],
        "101": [
          {
            "number": 101,
            "ticks": 0,
            "time": 0,
            "value": 0
          }
        ]
      },
      "pitchBends": [
        {
          "ticks": 0,
          "time": 0,
          "value": 0
        },
        {
          "ticks": 0,
          "time": 0,
          "value": 0
        }
      ],
      "instrument": {
        "family": "piano",
        "number": 0,
        "name": "acoustic grand piano"
      },
      "name": "DRUMS",
      "notes": [],
      "endOfTrackTicks": 25715
    },
    {
      "channel": 9,
      "controlChanges": {
        "6": [
          {
            "number": 6,
            "ticks": 0,
            "time": 0,
            "value": 0.09448818897637795
          },
          {
            "number": 6,
            "ticks": 0,
            "time": 0,
            "value": 0.09448818897637795
          },
          {
            "number": 6,
            "ticks": 25714,
            "time": 107.14166666666668,
            "value": 0.09448818897637795
          },
          {
            "number": 6,
            "ticks": 25715,
            "time": 107.14583333333333,
            "value": 0.09448818897637795
          }
        ],
        "7": [
          {
            "number": 7,
            "ticks": 0,
            "time": 0,
            "value": 0.7559055118110236
          },
          {
            "number": 7,
            "ticks": 0,
            "time": 0,
            "value": 0.7559055118110236
          },
          {
            "number": 7,
            "ticks": 25714,
            "time": 107.14166666666668,
            "value": 0.7559055118110236
          },
          {
            "number": 7,
            "ticks": 25715,
            "time": 107.14583333333333,
            "value": 0.7559055118110236
          }
        ],
        "10": [
          {
            "number": 10,
            "ticks": 0,
            "time": 0,
            "value": 0.4094488188976378
          },
          {
            "number": 10,
            "ticks": 0,
            "time": 0,
            "value": 0.4094488188976378
          },
          {
            "number": 10,
            "ticks": 25714,
            "time": 107.14166666666668,
            "value": 0.4094488188976378
          },
          {
            "number": 10,
            "ticks": 25715,
            "time": 107.14583333333333,
            "value": 0.4094488188976378
          }
        ],
        "91": [
          {
            "number": 91,
            "ticks": 0,
            "time": 0,
            "value": 0.4251968503937008
          },
          {
            "number": 91,
            "ticks": 0,
            "time": 0,
            "value": 0.4251968503937008
          },
          {
            "number": 91,
            "ticks": 0,
            "time": 0,
            "value": 0.4251968503937008
          },
          {
            "number": 91,
            "ticks": 25714,
            "time": 107.14166666666668,
            "value": 0.4251968503937008
          },
          {
            "number": 91,
            "ticks": 25715,
            "time": 107.14583333333333,
            "value": 0.4251968503937008
          }
        ],
        "93": [
          {
            "number": 93,
            "ticks": 0,
            "time": 0,
            "value": 0.047244094488188976
          },
          {
            "number": 93,
            "ticks": 0,
            "time": 0,
            "value": 0.047244094488188976
          },
          {
            "number": 93,
            "ticks": 0,
            "time": 0,
            "value": 0.047244094488188976
          },
          {
            "number": 93,
            "ticks": 25714,
            "time": 107.14166666666668,
            "value": 0.047244094488188976
          },
          {
            "number": 93,
            "ticks": 25715,
            "time": 107.14583333333333,
            "value": 0.047244094488188976
          }
        ],
        "100": [
          {
            "number": 100,
            "ticks": 0,
            "time": 0,
            "value": 0
          },
          {
            "number": 100,
            "ticks": 0,
            "time": 0,
            "value": 0
          },
          {
            "number": 100,
            "ticks": 25714,
            "time": 107.14166666666668,
            "value": 0
          },
          {
            "number": 100,
            "ticks": 25715,
            "time": 107.14583333333333,
            "value": 0
          }
        ],
        "101": [
          {
            "number": 101,
            "ticks": 0,
            "time": 0,
            "value": 0
          },
          {
            "number": 101,
            "ticks": 0,
            "time": 0,
            "value": 0
          },
          {
            "number": 101,
            "ticks": 25714,
            "time": 107.14166666666668,
            "value": 0
          },
          {
            "number": 101,
            "ticks": 25715,
            "time": 107.14583333333333,
            "value": 0
          }
        ]
      },
      "pitchBends": [
        {
          "ticks": 0,
          "time": 0,
          "value": 0
        },
        {
          "ticks": 0,
          "time": 0,
          "value": 0
        },
        {
          "ticks": 25714,
          "time": 107.14166666666668,
          "value": 0
        },
        {
          "ticks": 25715,
          "time": 107.14583333333333,
          "value": 0
        }
      ],
      "instrument": {
        "family": "drums",
        "number": 24,
        "name": "electronic kit"
      },
      "name": "",
      "notes": [
        {
          "duration": 0.09999999999999987,
          "durationTicks": 24,
          "midi": 40,
          "name": "E2",
          "ticks": 336,
          "time": 1.4000000000000001,
          "velocity": 0.6692913385826772
        },
        {
          "duration": 0.10000000000000009,
          "durationTicks": 24,
          "midi": 40,
          "name": "E2",
          "ticks": 360,
          "time": 1.5,
          "velocity": 0.84251968503937
        },
        {
          "duration": 0.10000000000000009,
          "durationTicks": 24,
          "midi": 36,
          "name": "C2",
          "ticks": 384,
          "time": 1.6,
          "velocity": 0.905511811023622
        },
        {
          "duration": 0.10000000000000009,
          "durationTicks": 24,
          "midi": 49,
          "name": "C#3",
          "ticks": 384,
          "time": 1.6,
          "velocity": 0.905511811023622
        },
        {
          "duration": 0.10000000000000009,
          "durationTicks": 24,
          "midi": 43,
          "name": "G2",
          "ticks": 528,
          "time": 2.2,
          "velocity": 0.905511811023622
        },
        {
          "duration": 0.10000000000000009,
          "durationTicks": 24,
          "midi": 45,
          "name": "A2",
          "ticks": 528,
          "time": 2.2,
          "velocity": 0.905511811023622
        },
        {
          "duration": 0.10000000000000009,
          "durationTicks": 24,
          "midi": 49,
          "name": "C#3",
          "ticks": 672,
          "time": 2.8000000000000003,
          "velocity": 0.905511811023622
        },
        {
          "duration": 0.10000000000000009,
          "durationTicks": 24,
          "midi": 40,
          "name": "E2",
          "ticks": 672,
          "time": 2.8000000000000003,
          "velocity": 0.8818897637795275
        },
        {
          "duration": 0.09999999999999964,
          "durationTicks": 24,
          "midi": 45,
          "name": "A2",
          "ticks": 816,
          "time": 3.4000000000000004,
          "velocity": 0.905511811023622
        },
        {
          "duration": 0.10000000000000009,
          "durationTicks": 24,
          "midi": 45,
          "name": "A2",
          "ticks": 864,
          "time": 3.6,
          "velocity": 0.905511811023622
        },
        {
          "duration": 0.10000000000000009,
          "durationTicks": 24,
          "midi": 45,
          "name": "A2",
          "ticks": 912,
          "time": 3.8000000000000003,
          "velocity": 0.905511811023622
        },
        {
          "duration": 0.10000000000000053,
          "durationTicks": 24,
          "midi": 45,
          "name": "A2",
          "ticks": 960,
          "time": 4,
          "velocity": 0.905511811023622
        },
        {
          "duration": 0.04999999999999982,
          "durationTicks": 12,
          "midi": 43,
          "name": "G2",
          "ticks": 1008,
          "time": 4.2,
          "velocity": 0.905511811023622
        },
        {
          "duration": 0.04999999999999982,
          "durationTicks": 12,
          "midi": 45,
          "name": "A2",
          "ticks": 1020,
          "time": 4.25,
          "velocity": 0.905511811023622
        },
        {
          "duration": 0.05000000000000071,
          "durationTicks": 12,
          "midi": 43,
          "name": "G2",
          "ticks": 1032,
          "time": 4.3,
          "velocity": 0.905511811023622
        },
        {
          "duration": 0.09999999999999964,
          "durationTicks": 24,
          "midi": 40,
          "name": "E2",
          "ticks": 1104,
          "time": 4.6000000000000005,
          "velocity": 0.8818897637795275
        },
        {
          "duration": 0.10000000000000053,
          "durationTicks": 24,
          "midi": 40,
          "name": "E2",
          "ticks": 1200,
          "time": 5,
          "velocity": 0.8818897637795275
        },
        {
          "duration": 0.10000000000000053,
          "durationTicks": 24,
          "midi": 40,
          "name": "E2",
          "ticks": 1248,
          "time": 5.2,
          "velocity": 0.8818897637795275
        },
        {
          "duration": 0.09999999999999964,
          "durationTicks": 24,
          "midi": 36,
          "name": "C2",
          "ticks": 1392,
          "time": 5.800000000000001,
          "velocity": 0.9133858267716536
        },
        {
          "duration": 0.10000000000000053,
          "durationTicks": 24,
          "midi": 40,
          "name": "E2",
          "ticks": 1440,
          "time": 6,
          "velocity": 0.8818897637795275
        },
        {
          "duration": 0.09999999999999964,
          "durationTicks": 24,
          "midi": 49,
          "name": "C#3",
          "ticks": 1536,
          "time": 6.4,
          "velocity": 0.905511811023622
        },
        {
          "duration": 0.09999999999999964,
          "durationTicks": 24,
          "midi": 69,
          "name": "A4",
          "ticks": 1536,
          "time": 6.4,
          "velocity": 0.7874015748031497
        },
        {
          "duration": 0.09999999999999964,
          "durationTicks": 24,
          "midi": 36,
          "name": "C2",
          "ticks": 1536,
          "time": 6.4,
          "velocity": 0.9133858267716536
        },
        {
          "duration": 0.10000000000000053,
          "durationTicks": 24,
          "midi": 69,
          "name": "A4",
          "ticks": 1560,
          "time": 6.5,
          "velocity": 0.7874015748031497
        },
        {
          "duration": 0.09999999999999964,
          "durationTicks": 24,
          "midi": 42,
          "name": "F#2",
          "ticks": 1584,
          "time": 6.6000000000000005,
          "velocity": 0.7874015748031497
        },
        {
          "duration": 0.09999999999999964,
          "durationTicks": 24,
          "midi": 69,
          "name": "A4",
          "ticks": 1584,
          "time": 6.6000000000000005,
          "velocity": 0.7874015748031497
        },
        {
          "duration": 0.09999999999999964,
          "durationTicks": 24,
          "midi": 40,
          "name": "E2",
          "ticks": 1632,
          "time": 6.800000000000001,
          "velocity": 0.8818897637795275
        },
        {
          "duration": 0.09999999999999964,
          "durationTicks": 24,
          "midi": 69,
          "name": "A4",
          "ticks": 1632,
          "time": 6.800000000000001,
          "velocity": 0.7874015748031497
        },
        {
          "duration": 0.09999999999999964,
          "durationTicks": 24,
          "midi": 42,
          "name": "F#2",
          "ticks": 1632,
          "time": 6.800000000000001,
          "velocity": 0.7874015748031497
        },
        {
          "duration": 0.09999999999999964,
          "durationTicks": 24,
          "midi": 69,
          "name": "A4",
          "ticks": 1656,
          "time": 6.9,
          "velocity": 0.7874015748031497
        },
        {
          "duration": 0.10000000000000053,
          "durationTicks": 24,
          "midi": 36,
          "name": "C2",
          "ticks": 1680,
          "time": 7,
          "velocity": 0.9133858267716536
        },
        {
          "duration": 0.10000000000000053,
          "durationTicks": 24,
          "midi": 69,
          "name": "A4",
          "ticks": 1680,
          "time": 7,
          "velocity": 0.7874015748031497
        },
        {
          "duration": 0.10000000000000053,
          "durationTicks": 24,
          "midi": 42,
          "name": "F#2",
          "ticks": 1680,
          "time": 7,
          "velocity": 0.7874015748031497
        },
        {
          "duration": 0.10000000000000053,
          "durationTicks": 24,
          "midi": 36,
          "name": "C2",
          "ticks": 1728,
          "time": 7.2,
          "velocity": 0.9133858267716536
        },
        {
          "duration": 0.10000000000000053,
          "durationTicks": 24,
          "midi": 69,
          "name": "A4",
          "ticks": 1728,
          "time": 7.2,
          "velocity": 0.7874015748031497
        },
        {
          "duration": 0.10000000000000053,
          "durationTicks": 24,
          "midi": 42,
          "name": "F#2",
          "ticks": 1728,
          "time": 7.2,
          "velocity": 0.7874015748031497
        },
        {
          "duration": 0.09999999999999964,
          "durationTicks": 24,
          "midi": 69,
          "name": "A4",
          "ticks": 1752,
          "time": 7.300000000000001,
          "velocity": 0.7874015748031497
        },
        {
          "duration": 0.09999999999999964,
          "durationTicks": 24,
          "midi": 69,
          "name": "A4",
          "ticks": 1776,
          "time": 7.4,
          "velocity": 0.7874015748031497
        },
        {
          "duration": 0.09999999999999964,
          "durationTicks": 24,
          "midi": 42,
          "name": "F#2",
          "ticks": 1776,
          "time": 7.4,
          "velocity": 0.7874015748031497
        },
        {
          "duration": 0.09999999999999964,
          "durationTicks": 24,
          "midi": 40,
          "name": "E2",
          "ticks": 1824,
          "time": 7.6000000000000005,
          "velocity": 0.8818897637795275
        },
        {
          "duration": 0.09999999999999964,
          "durationTicks": 24,
          "midi": 69,
          "name": "A4",
          "ticks": 1824,
          "time": 7.6000000000000005,
          "velocity": 0.7874015748031497
        },
        {
          "duration": 0.09999999999999964,
          "durationTicks": 24,
          "midi": 42,
          "name": "F#2",
          "ticks": 1824,
          "time": 7.6000000000000005,
          "velocity": 0.7874015748031497
        },
        {
          "duration": 0.10000000000000053,
          "durationTicks": 24,
          "midi": 69,
          "name": "A4",
          "ticks": 1848,
          "time": 7.7,
          "velocity": 0.7874015748031497
        },
        {
          "duration": 0.09999999999999964,
          "durationTicks": 24,
          "midi": 69,
          "name": "A4",
          "ticks": 1872,
          "time": 7.800000000000001,
          "velocity": 0.7874015748031497
        },
        {
          "duration": 0.09999999999999964,
          "durationTicks": 24,
          "midi": 42,
          "name": "F#2",
          "ticks": 1872,
          "time": 7.800000000000001,
          "velocity": 0.7874015748031497
        },
        {
          "duration": 0.09999999999999964,
          "durationTicks": 24,
          "midi": 36,
          "name": "C2",
          "ticks": 1920,
          "time": 8,
          "velocity": 0.9133858267716536
        },
        {
          "duration": 0.09999999999999964,
          "durationTicks": 24,
          "midi": 42,
          "name": "F#2",
          "ticks": 1920,
          "time": 8,
          "velocity": 0.7874015748031497
        },
        {
          "duration": 0.09999999999999964,
          "durationTicks": 24,
          "midi": 69,
          "name": "A4",
          "ticks": 1920,
          "time": 8,
          "velocity": 0.7874015748031497
        },
        {
          "duration": 0.10000000000000142,
          "durationTicks": 24,
          "midi": 69,
          "name": "A4",
          "ticks": 1944,
          "time": 8.1,
          "velocity": 0.7874015748031497
        },
        {
          "duration": 0.09999999999999964,
          "durationTicks": 24,
          "midi": 42,
          "name": "F#2",
          "ticks": 1968,
          "time": 8.200000000000001,
          "velocity": 0.7874015748031497
        },
        {
          "duration": 0.09999999999999964,
          "durationTicks": 24,
          "midi": 69,
          "name": "A4",
          "ticks": 1968,
          "time": 8.200000000000001,
          "velocity": 0.7874015748031497
        },
        {
          "duration": 0.09999999999999964,
          "durationTicks": 24,
          "midi": 40,
          "name": "E2",
          "ticks": 2016,
          "time": 8.4,
          "velocity": 0.8818897637795275
        },
        {
          "duration": 0.09999999999999964,
          "durationTicks": 24,
          "midi": 42,
          "name": "F#2",
          "ticks": 2016,
          "time": 8.4,
          "velocity": 0.7874015748031497
        },
        {
          "duration": 0.09999999999999964,
          "durationTicks": 24,
          "midi": 69,
          "name": "A4",
          "ticks": 2016,
          "time": 8.4,
          "velocity": 0.7874015748031497
        },
        {
          "duration": 0.09999999999999964,
          "durationTicks": 24,
          "midi": 69,
          "name": "A4",
          "ticks": 2040,
          "time": 8.5,
          "velocity": 0.7874015748031497
        },
        {
          "duration": 0.10000000000000142,
          "durationTicks": 24,
          "midi": 69,
          "name": "A4",
          "ticks": 2064,
          "time": 8.6,
          "velocity": 0.7874015748031497
        },
        {
          "duration": 0.10000000000000142,
          "durationTicks": 24,
          "midi": 42,
          "name": "F#2",
          "ticks": 2064,
          "time": 8.6,
          "velocity": 0.7874015748031497
        },
        {
          "duration": 0.10000000000000142,
          "durationTicks": 24,
          "midi": 36,
          "name": "C2",
          "ticks": 2064,
          "time": 8.6,
          "velocity": 0.9133858267716536
        },
        {
          "duration": 0.09999999999999964,
          "durationTicks": 24,
          "midi": 69,
          "name": "A4",
          "ticks": 2112,
          "time": 8.8,
          "velocity": 0.7874015748031497
        },
        {
          "duration": 0.09999999999999964,
          "durationTicks": 24,
          "midi": 42,
          "name": "F#2",
          "ticks": 2112,
          "time": 8.8,
          "velocity": 0.7874015748031497
        },
        {
          "duration": 0.09999999999999964,
          "durationTicks": 24,
          "midi": 69,
          "name": "A4",
          "ticks": 2136,
          "time": 8.9,
          "velocity": 0.7874015748031497
        },
        {
          "duration": 0.09999999999999964,
          "durationTicks": 24,
          "midi": 42,
          "name": "F#2",
          "ticks": 2160,
          "time": 9,
          "velocity": 0.7874015748031497
        },
        {
          "duration": 0.09999999999999964,
          "durationTicks": 24,
          "midi": 69,
          "name": "A4",
          "ticks": 2160,
          "time": 9,
          "velocity": 0.7874015748031497
        },
        {
          "duration": 0.09999999999999964,
          "durationTicks": 24,
          "midi": 36,
          "name": "C2",
          "ticks": 2160,
          "time": 9,
          "velocity": 0.9133858267716536
        },
        {
          "duration": 0.09999999999999964,
          "durationTicks": 24,
          "midi": 40,
          "name": "E2",
          "ticks": 2208,
          "time": 9.200000000000001,
          "velocity": 0.8818897637795275
        },
        {
          "duration": 0.09999999999999964,
          "durationTicks": 24,
          "midi": 42,
          "name": "F#2",
          "ticks": 2208,
          "time": 9.200000000000001,
          "velocity": 0.7874015748031497
        },
        {
          "duration": 0.09999999999999964,
          "durationTicks": 24,
          "midi": 69,
          "name": "A4",
          "ticks": 2208,
          "time": 9.200000000000001,
          "velocity": 0.7874015748031497
        },
        {
          "duration": 0.09999999999999964,
          "durationTicks": 24,
          "midi": 69,
          "name": "A4",
          "ticks": 2232,
          "time": 9.3,
          "velocity": 0.7874015748031497
        },
        {
          "duration": 0.09999999999999964,
          "durationTicks": 24,
          "midi": 42,
          "name": "F#2",
          "ticks": 2256,
          "time": 9.4,
          "velocity": 0.7874015748031497
        },
        {
          "duration": 0.09999999999999964,
          "durationTicks": 24,
          "midi": 69,
          "name": "A4",
          "ticks": 2256,
          "time": 9.4,
          "velocity": 0.7874015748031497
        },
        {
          "duration": 0.09999999999999964,
          "durationTicks": 24,
          "midi": 36,
          "name": "C2",
          "ticks": 2304,
          "time": 9.600000000000001,
          "velocity": 0.9133858267716536
        },
        {
          "duration": 0.09999999999999964,
          "durationTicks": 24,
          "midi": 69,
          "name": "A4",
          "ticks": 2304,
          "time": 9.600000000000001,
          "velocity": 0.7874015748031497
        },
        {
          "duration": 0.09999999999999964,
          "durationTicks": 24,
          "midi": 42,
          "name": "F#2",
          "ticks": 2304,
          "time": 9.600000000000001,
          "velocity": 0.7874015748031497
        },
        {
          "duration": 0.09999999999999964,
          "durationTicks": 24,
          "midi": 69,
          "name": "A4",
          "ticks": 2328,
          "time": 9.700000000000001,
          "velocity": 0.7874015748031497
        },
        {
          "duration": 0.09999999999999964,
          "durationTicks": 24,
          "midi": 69,
          "name": "A4",
          "ticks": 2352,
          "time": 9.8,
          "velocity": 0.7874015748031497
        },
        {
          "duration": 0.09999999999999964,
          "durationTicks": 24,
          "midi": 42,
          "name": "F#2",
          "ticks": 2352,
          "time": 9.8,
          "velocity": 0.7874015748031497
        },
        {
          "duration": 0.10000000000000142,
          "durationTicks": 24,
          "midi": 69,
          "name": "A4",
          "ticks": 2400,
          "time": 10,
          "velocity": 0.7874015748031497
        },
        {
          "duration": 0.10000000000000142,
          "durationTicks": 24,
          "midi": 40,
          "name": "E2",
          "ticks": 2400,
          "time": 10,
          "velocity": 0.8818897637795275
        },
        {
          "duration": 0.10000000000000142,
          "durationTicks": 24,
          "midi": 42,
          "name": "F#2",
          "ticks": 2400,
          "time": 10,
          "velocity": 0.7874015748031497
        },
        {
          "duration": 0.09999999999999964,
          "durationTicks": 24,
          "midi": 69,
          "name": "A4",
          "ticks": 2424,
          "time": 10.100000000000001,
          "velocity": 0.7874015748031497
        },
        {
          "duration": 0.09999999999999964,
          "durationTicks": 24,
          "midi": 36,
          "name": "C2",
          "ticks": 2448,
          "time": 10.200000000000001,
          "velocity": 0.9133858267716536
        },
        {
          "duration": 0.09999999999999964,
          "durationTicks": 24,
          "midi": 69,
          "name": "A4",
          "ticks": 2448,
          "time": 10.200000000000001,
          "velocity": 0.7874015748031497
        },
        {
          "duration": 0.09999999999999964,
          "durationTicks": 24,
          "midi": 42,
          "name": "F#2",
          "ticks": 2448,
          "time": 10.200000000000001,
          "velocity": 0.7874015748031497
        },
        {
          "duration": 0.09999999999999964,
          "durationTicks": 24,
          "midi": 42,
          "name": "F#2",
          "ticks": 2496,
          "time": 10.4,
          "velocity": 0.7874015748031497
        },
        {
          "duration": 0.09999999999999964,
          "durationTicks": 24,
          "midi": 69,
          "name": "A4",
          "ticks": 2496,
          "time": 10.4,
          "velocity": 0.7874015748031497
        },
        {
          "duration": 0.09999999999999964,
          "durationTicks": 24,
          "midi": 36,
          "name": "C2",
          "ticks": 2496,
          "time": 10.4,
          "velocity": 0.9133858267716536
        },
        {
          "duration": 0.10000000000000142,
          "durationTicks": 24,
          "midi": 69,
          "name": "A4",
          "ticks": 2520,
          "time": 10.5,
          "velocity": 0.7874015748031497
        },
        {
          "duration": 0.09999999999999964,
          "durationTicks": 24,
          "midi": 42,
          "name": "F#2",
          "ticks": 2544,
          "time": 10.600000000000001,
          "velocity": 0.7874015748031497
        },
        {
          "duration": 0.09999999999999964,
          "durationTicks": 24,
          "midi": 69,
          "name": "A4",
          "ticks": 2544,
          "time": 10.600000000000001,
          "velocity": 0.7874015748031497
        },
        {
          "duration": 0.09999999999999964,
          "durationTicks": 24,
          "midi": 42,
          "name": "F#2",
          "ticks": 2592,
          "time": 10.8,
          "velocity": 0.7874015748031497
        },
        {
          "duration": 0.09999999999999964,
          "durationTicks": 24,
          "midi": 69,
          "name": "A4",
          "ticks": 2592,
          "time": 10.8,
          "velocity": 0.7874015748031497
        },
        {
          "duration": 0.09999999999999964,
          "durationTicks": 24,
          "midi": 40,
          "name": "E2",
          "ticks": 2592,
          "time": 10.8,
          "velocity": 0.8818897637795275
        },
        {
          "duration": 0.09999999999999964,
          "durationTicks": 24,
          "midi": 69,
          "name": "A4",
          "ticks": 2616,
          "time": 10.9,
          "velocity": 0.7874015748031497
        },
        {
          "duration": 0.10000000000000142,
          "durationTicks": 24,
          "midi": 42,
          "name": "F#2",
          "ticks": 2640,
          "time": 11,
          "velocity": 0.7874015748031497
        },
        {
          "duration": 0.10000000000000142,
          "durationTicks": 24,
          "midi": 69,
          "name": "A4",
          "ticks": 2640,
          "time": 11,
          "velocity": 0.7874015748031497
        },
        {
          "duration": 0.09999999999999964,
          "durationTicks": 24,
          "midi": 42,
          "name": "F#2",
          "ticks": 2688,
          "time": 11.200000000000001,
          "velocity": 0.7874015748031497
        },
        {
          "duration": 0.09999999999999964,
          "durationTicks": 24,
          "midi": 69,
          "name": "A4",
          "ticks": 2688,
          "time": 11.200000000000001,
          "velocity": 0.7874015748031497
        },
        {
          "duration": 0.09999999999999964,
          "durationTicks": 24,
          "midi": 36,
          "name": "C2",
          "ticks": 2688,
          "time": 11.200000000000001,
          "velocity": 0.9133858267716536
        },
        {
          "duration": 0.09999999999999964,
          "durationTicks": 24,
          "midi": 69,
          "name": "A4",
          "ticks": 2712,
          "time": 11.3,
          "velocity": 0.7874015748031497
        },
        {
          "duration": 0.09999999999999964,
          "durationTicks": 24,
          "midi": 69,
          "name": "A4",
          "ticks": 2736,
          "time": 11.4,
          "velocity": 0.7874015748031497
        },
        {
          "duration": 0.09999999999999964,
          "durationTicks": 24,
          "midi": 36,
          "name": "C2",
          "ticks": 2736,
          "time": 11.4,
          "velocity": 0.9133858267716536
        },
        {
          "duration": 0.09999999999999964,
          "durationTicks": 24,
          "midi": 42,
          "name": "F#2",
          "ticks": 2736,
          "time": 11.4,
          "velocity": 0.7874015748031497
        },
        {
          "duration": 0.09999999999999964,
          "durationTicks": 24,
          "midi": 69,
          "name": "A4",
          "ticks": 2784,
          "time": 11.600000000000001,
          "velocity": 0.7874015748031497
        },
        {
          "duration": 0.09999999999999964,
          "durationTicks": 24,
          "midi": 40,
          "name": "E2",
          "ticks": 2784,
          "time": 11.600000000000001,
          "velocity": 0.8818897637795275
        },
        {
          "duration": 0.09999999999999964,
          "durationTicks": 24,
          "midi": 42,
          "name": "F#2",
          "ticks": 2784,
          "time": 11.600000000000001,
          "velocity": 0.7874015748031497
        },
        {
          "duration": 0.09999999999999964,
          "durationTicks": 24,
          "midi": 69,
          "name": "A4",
          "ticks": 2808,
          "time": 11.700000000000001,
          "velocity": 0.7874015748031497
        },
        {
          "duration": 0.09999999999999964,
          "durationTicks": 24,
          "midi": 42,
          "name": "F#2",
          "ticks": 2832,
          "time": 11.8,
          "velocity": 0.7874015748031497
        },
        {
          "duration": 0.09999999999999964,
          "durationTicks": 24,
          "midi": 69,
          "name": "A4",
          "ticks": 2832,
          "time": 11.8,
          "velocity": 0.7874015748031497
        },
        {
          "duration": 0.09999999999999964,
          "durationTicks": 24,
          "midi": 36,
          "name": "C2",
          "ticks": 2832,
          "time": 11.8,
          "velocity": 0.9133858267716536
        },
        {
          "duration": 0.10000000000000142,
          "durationTicks": 24,
          "midi": 42,
          "name": "F#2",
          "ticks": 2880,
          "time": 12,
          "velocity": 0.7874015748031497
        },
        {
          "duration": 0.10000000000000142,
          "durationTicks": 24,
          "midi": 69,
          "name": "A4",
          "ticks": 2880,
          "time": 12,
          "velocity": 0.7874015748031497
        },
        {
          "duration": 0.09999999999999964,
          "durationTicks": 24,
          "midi": 69,
          "name": "A4",
          "ticks": 2904,
          "time": 12.100000000000001,
          "velocity": 0.7874015748031497
        },
        {
          "duration": 0.09999999999999964,
          "durationTicks": 24,
          "midi": 42,
          "name": "F#2",
          "ticks": 2928,
          "time": 12.200000000000001,
          "velocity": 0.7874015748031497
        },
        {
          "duration": 0.09999999999999964,
          "durationTicks": 24,
          "midi": 69,
          "name": "A4",
          "ticks": 2928,
          "time": 12.200000000000001,
          "velocity": 0.7874015748031497
        },
        {
          "duration": 0.09999999999999964,
          "durationTicks": 24,
          "midi": 36,
          "name": "C2",
          "ticks": 2928,
          "time": 12.200000000000001,
          "velocity": 0.9133858267716536
        },
        {
          "duration": 0.09999999999999964,
          "durationTicks": 24,
          "midi": 40,
          "name": "E2",
          "ticks": 2976,
          "time": 12.4,
          "velocity": 0.8818897637795275
        },
        {
          "duration": 0.09999999999999964,
          "durationTicks": 24,
          "midi": 69,
          "name": "A4",
          "ticks": 2976,
          "time": 12.4,
          "velocity": 0.7874015748031497
        },
        {
          "duration": 0.09999999999999964,
          "durationTicks": 24,
          "midi": 42,
          "name": "F#2",
          "ticks": 2976,
          "time": 12.4,
          "velocity": 0.7874015748031497
        },
        {
          "duration": 0.10000000000000142,
          "durationTicks": 24,
          "midi": 69,
          "name": "A4",
          "ticks": 3000,
          "time": 12.5,
          "velocity": 0.7874015748031497
        },
        {
          "duration": 0.09999999999999964,
          "durationTicks": 24,
          "midi": 69,
          "name": "A4",
          "ticks": 3024,
          "time": 12.600000000000001,
          "velocity": 0.7874015748031497
        },
        {
          "duration": 0.09999999999999964,
          "durationTicks": 24,
          "midi": 42,
          "name": "F#2",
          "ticks": 3024,
          "time": 12.600000000000001,
          "velocity": 0.7874015748031497
        },
        {
          "duration": 0.09999999999999964,
          "durationTicks": 24,
          "midi": 36,
          "name": "C2",
          "ticks": 3072,
          "time": 12.8,
          "velocity": 0.9133858267716536
        },
        {
          "duration": 0.09999999999999964,
          "durationTicks": 24,
          "midi": 69,
          "name": "A4",
          "ticks": 3072,
          "time": 12.8,
          "velocity": 0.7874015748031497
        },
        {
          "duration": 0.09999999999999964,
          "durationTicks": 24,
          "midi": 42,
          "name": "F#2",
          "ticks": 3072,
          "time": 12.8,
          "velocity": 0.7874015748031497
        },
        {
          "duration": 0.09999999999999964,
          "durationTicks": 24,
          "midi": 69,
          "name": "A4",
          "ticks": 3096,
          "time": 12.9,
          "velocity": 0.7874015748031497
        },
        {
          "duration": 0.10000000000000142,
          "durationTicks": 24,
          "midi": 42,
          "name": "F#2",
          "ticks": 3120,
          "time": 13,
          "velocity": 0.7874015748031497
        },
        {
          "duration": 0.10000000000000142,
          "durationTicks": 24,
          "midi": 69,
          "name": "A4",
          "ticks": 3120,
          "time": 13,
          "velocity": 0.7874015748031497
        },
        {
          "duration": 0.09999999999999964,
          "durationTicks": 24,
          "midi": 42,
          "name": "F#2",
          "ticks": 3168,
          "time": 13.200000000000001,
          "velocity": 0.7874015748031497
        },
        {
          "duration": 0.09999999999999964,
          "durationTicks": 24,
          "midi": 69,
          "name": "A4",
          "ticks": 3168,
          "time": 13.200000000000001,
          "velocity": 0.7874015748031497
        },
        {
          "duration": 0.09999999999999964,
          "durationTicks": 24,
          "midi": 40,
          "name": "E2",
          "ticks": 3168,
          "time": 13.200000000000001,
          "velocity": 0.8818897637795275
        },
        {
          "duration": 0.09999999999999964,
          "durationTicks": 24,
          "midi": 69,
          "name": "A4",
          "ticks": 3192,
          "time": 13.3,
          "velocity": 0.7874015748031497
        },
        {
          "duration": 0.09999999999999964,
          "durationTicks": 24,
          "midi": 42,
          "name": "F#2",
          "ticks": 3216,
          "time": 13.4,
          "velocity": 0.7874015748031497
        },
        {
          "duration": 0.09999999999999964,
          "durationTicks": 24,
          "midi": 69,
          "name": "A4",
          "ticks": 3216,
          "time": 13.4,
          "velocity": 0.7874015748031497
        },
        {
          "duration": 0.09999999999999964,
          "durationTicks": 24,
          "midi": 36,
          "name": "C2",
          "ticks": 3216,
          "time": 13.4,
          "velocity": 0.9133858267716536
        },
        {
          "duration": 0.09999999999999964,
          "durationTicks": 24,
          "midi": 69,
          "name": "A4",
          "ticks": 3264,
          "time": 13.600000000000001,
          "velocity": 0.7874015748031497
        },
        {
          "duration": 0.09999999999999964,
          "durationTicks": 24,
          "midi": 36,
          "name": "C2",
          "ticks": 3264,
          "time": 13.600000000000001,
          "velocity": 0.9133858267716536
        },
        {
          "duration": 0.09999999999999964,
          "durationTicks": 24,
          "midi": 42,
          "name": "F#2",
          "ticks": 3264,
          "time": 13.600000000000001,
          "velocity": 0.7874015748031497
        },
        {
          "duration": 0.09999999999999964,
          "durationTicks": 24,
          "midi": 69,
          "name": "A4",
          "ticks": 3288,
          "time": 13.700000000000001,
          "velocity": 0.7874015748031497
        },
        {
          "duration": 0.09999999999999964,
          "durationTicks": 24,
          "midi": 69,
          "name": "A4",
          "ticks": 3312,
          "time": 13.8,
          "velocity": 0.7874015748031497
        },
        {
          "duration": 0.09999999999999964,
          "durationTicks": 24,
          "midi": 42,
          "name": "F#2",
          "ticks": 3312,
          "time": 13.8,
          "velocity": 0.7874015748031497
        },
        {
          "duration": 0.10000000000000142,
          "durationTicks": 24,
          "midi": 42,
          "name": "F#2",
          "ticks": 3360,
          "time": 14,
          "velocity": 0.7874015748031497
        },
        {
          "duration": 0.10000000000000142,
          "durationTicks": 24,
          "midi": 69,
          "name": "A4",
          "ticks": 3360,
          "time": 14,
          "velocity": 0.7874015748031497
        },
        {
          "duration": 0.10000000000000142,
          "durationTicks": 24,
          "midi": 40,
          "name": "E2",
          "ticks": 3360,
          "time": 14,
          "velocity": 0.8818897637795275
        },
        {
          "duration": 0.09999999999999964,
          "durationTicks": 24,
          "midi": 69,
          "name": "A4",
          "ticks": 3384,
          "time": 14.100000000000001,
          "velocity": 0.7874015748031497
        },
        {
          "duration": 0.09999999999999964,
          "durationTicks": 24,
          "midi": 42,
          "name": "F#2",
          "ticks": 3408,
          "time": 14.200000000000001,
          "velocity": 0.7874015748031497
        },
        {
          "duration": 0.09999999999999964,
          "durationTicks": 24,
          "midi": 69,
          "name": "A4",
          "ticks": 3408,
          "time": 14.200000000000001,
          "velocity": 0.7874015748031497
        },
        {
          "duration": 0.09999999999999964,
          "durationTicks": 24,
          "midi": 42,
          "name": "F#2",
          "ticks": 3456,
          "time": 14.4,
          "velocity": 0.7874015748031497
        },
        {
          "duration": 0.09999999999999964,
          "durationTicks": 24,
          "midi": 36,
          "name": "C2",
          "ticks": 3456,
          "time": 14.4,
          "velocity": 0.9133858267716536
        },
        {
          "duration": 0.09999999999999964,
          "durationTicks": 24,
          "midi": 69,
          "name": "A4",
          "ticks": 3456,
          "time": 14.4,
          "velocity": 0.7874015748031497
        },
        {
          "duration": 0.10000000000000142,
          "durationTicks": 24,
          "midi": 69,
          "name": "A4",
          "ticks": 3480,
          "time": 14.5,
          "velocity": 0.7874015748031497
        },
        {
          "duration": 0.09999999999999964,
          "durationTicks": 24,
          "midi": 42,
          "name": "F#2",
          "ticks": 3504,
          "time": 14.600000000000001,
          "velocity": 0.7874015748031497
        },
        {
          "duration": 0.09999999999999964,
          "durationTicks": 24,
          "midi": 69,
          "name": "A4",
          "ticks": 3504,
          "time": 14.600000000000001,
          "velocity": 0.7874015748031497
        },
        {
          "duration": 0.09999999999999964,
          "durationTicks": 24,
          "midi": 42,
          "name": "F#2",
          "ticks": 3552,
          "time": 14.8,
          "velocity": 0.7874015748031497
        },
        {
          "duration": 0.09999999999999964,
          "durationTicks": 24,
          "midi": 69,
          "name": "A4",
          "ticks": 3552,
          "time": 14.8,
          "velocity": 0.7874015748031497
        },
        {
          "duration": 0.09999999999999964,
          "durationTicks": 24,
          "midi": 40,
          "name": "E2",
          "ticks": 3552,
          "time": 14.8,
          "velocity": 0.8818897637795275
        },
        {
          "duration": 0.09999999999999964,
          "durationTicks": 24,
          "midi": 69,
          "name": "A4",
          "ticks": 3576,
          "time": 14.9,
          "velocity": 0.7874015748031497
        },
        {
          "duration": 0.10000000000000142,
          "durationTicks": 24,
          "midi": 69,
          "name": "A4",
          "ticks": 3600,
          "time": 15,
          "velocity": 0.7874015748031497
        },
        {
          "duration": 0.10000000000000142,
          "durationTicks": 24,
          "midi": 36,
          "name": "C2",
          "ticks": 3600,
          "time": 15,
          "velocity": 0.9133858267716536
        },
        {
          "duration": 0.10000000000000142,
          "durationTicks": 24,
          "midi": 42,
          "name": "F#2",
          "ticks": 3600,
          "time": 15,
          "velocity": 0.7874015748031497
        },
        {
          "duration": 0.09999999999999964,
          "durationTicks": 24,
          "midi": 42,
          "name": "F#2",
          "ticks": 3648,
          "time": 15.200000000000001,
          "velocity": 0.7874015748031497
        },
        {
          "duration": 0.09999999999999964,
          "durationTicks": 24,
          "midi": 69,
          "name": "A4",
          "ticks": 3648,
          "time": 15.200000000000001,
          "velocity": 0.7874015748031497
        },
        {
          "duration": 0.09999999999999964,
          "durationTicks": 24,
          "midi": 69,
          "name": "A4",
          "ticks": 3672,
          "time": 15.3,
          "velocity": 0.7874015748031497
        },
        {
          "duration": 0.09999999999999964,
          "durationTicks": 24,
          "midi": 69,
          "name": "A4",
          "ticks": 3696,
          "time": 15.4,
          "velocity": 0.7874015748031497
        },
        {
          "duration": 0.09999999999999964,
          "durationTicks": 24,
          "midi": 36,
          "name": "C2",
          "ticks": 3696,
          "time": 15.4,
          "velocity": 0.9133858267716536
        },
        {
          "duration": 0.09999999999999964,
          "durationTicks": 24,
          "midi": 42,
          "name": "F#2",
          "ticks": 3696,
          "time": 15.4,
          "velocity": 0.7874015748031497
        },
        {
          "duration": 0.09999999999999964,
          "durationTicks": 24,
          "midi": 40,
          "name": "E2",
          "ticks": 3744,
          "time": 15.600000000000001,
          "velocity": 0.8818897637795275
        },
        {
          "duration": 0.09999999999999964,
          "durationTicks": 24,
          "midi": 69,
          "name": "A4",
          "ticks": 3744,
          "time": 15.600000000000001,
          "velocity": 0.7874015748031497
        },
        {
          "duration": 0.09999999999999964,
          "durationTicks": 24,
          "midi": 42,
          "name": "F#2",
          "ticks": 3744,
          "time": 15.600000000000001,
          "velocity": 0.7874015748031497
        },
        {
          "duration": 0.09999999999999964,
          "durationTicks": 24,
          "midi": 69,
          "name": "A4",
          "ticks": 3768,
          "time": 15.700000000000001,
          "velocity": 0.7874015748031497
        },
        {
          "duration": 0.09999999999999964,
          "durationTicks": 24,
          "midi": 42,
          "name": "F#2",
          "ticks": 3792,
          "time": 15.8,
          "velocity": 0.7874015748031497
        },
        {
          "duration": 0.09999999999999964,
          "durationTicks": 24,
          "midi": 69,
          "name": "A4",
          "ticks": 3792,
          "time": 15.8,
          "velocity": 0.7874015748031497
        },
        {
          "duration": 0.10000000000000142,
          "durationTicks": 24,
          "midi": 42,
          "name": "F#2",
          "ticks": 3840,
          "time": 16,
          "velocity": 0.7874015748031497
        },
        {
          "duration": 0.10000000000000142,
          "durationTicks": 24,
          "midi": 36,
          "name": "C2",
          "ticks": 3840,
          "time": 16,
          "velocity": 0.9133858267716536
        },
        {
          "duration": 0.10000000000000142,
          "durationTicks": 24,
          "midi": 69,
          "name": "A4",
          "ticks": 3840,
          "time": 16,
          "velocity": 0.7874015748031497
        },
        {
          "duration": 0.09999999999999787,
          "durationTicks": 24,
          "midi": 69,
          "name": "A4",
          "ticks": 3864,
          "time": 16.1,
          "velocity": 0.7874015748031497
        },
        {
          "duration": 0.10000000000000142,
          "durationTicks": 24,
          "midi": 69,
          "name": "A4",
          "ticks": 3888,
          "time": 16.2,
          "velocity": 0.7874015748031497
        },
        {
          "duration": 0.10000000000000142,
          "durationTicks": 24,
          "midi": 42,
          "name": "F#2",
          "ticks": 3888,
          "time": 16.2,
          "velocity": 0.7874015748031497
        },
        {
          "duration": 0.09999999999999787,
          "durationTicks": 24,
          "midi": 42,
          "name": "F#2",
          "ticks": 3936,
          "time": 16.400000000000002,
          "velocity": 0.7874015748031497
        },
        {
          "duration": 0.09999999999999787,
          "durationTicks": 24,
          "midi": 40,
          "name": "E2",
          "ticks": 3936,
          "time": 16.400000000000002,
          "velocity": 0.8818897637795275
        },
        {
          "duration": 0.09999999999999787,
          "durationTicks": 24,
          "midi": 69,
          "name": "A4",
          "ticks": 3936,
          "time": 16.400000000000002,
          "velocity": 0.7874015748031497
        },
        {
          "duration": 0.10000000000000142,
          "durationTicks": 24,
          "midi": 69,
          "name": "A4",
          "ticks": 3960,
          "time": 16.5,
          "velocity": 0.7874015748031497
        },
        {
          "duration": 0.09999999999999787,
          "durationTicks": 24,
          "midi": 42,
          "name": "F#2",
          "ticks": 3984,
          "time": 16.6,
          "velocity": 0.7874015748031497
        },
        {
          "duration": 0.09999999999999787,
          "durationTicks": 24,
          "midi": 69,
          "name": "A4",
          "ticks": 3984,
          "time": 16.6,
          "velocity": 0.7874015748031497
        },
        {
          "duration": 0.09999999999999787,
          "durationTicks": 24,
          "midi": 36,
          "name": "C2",
          "ticks": 3984,
          "time": 16.6,
          "velocity": 0.968503937007874
        },
        {
          "duration": 0.10000000000000142,
          "durationTicks": 24,
          "midi": 69,
          "name": "A4",
          "ticks": 4032,
          "time": 16.8,
          "velocity": 0.7874015748031497
        },
        {
          "duration": 0.10000000000000142,
          "durationTicks": 24,
          "midi": 36,
          "name": "C2",
          "ticks": 4032,
          "time": 16.8,
          "velocity": 0.9133858267716536
        },
        {
          "duration": 0.10000000000000142,
          "durationTicks": 24,
          "midi": 42,
          "name": "F#2",
          "ticks": 4032,
          "time": 16.8,
          "velocity": 0.7874015748031497
        },
        {
          "duration": 0.09999999999999787,
          "durationTicks": 24,
          "midi": 69,
          "name": "A4",
          "ticks": 4056,
          "time": 16.900000000000002,
          "velocity": 0.7874015748031497
        },
        {
          "duration": 0.10000000000000142,
          "durationTicks": 24,
          "midi": 42,
          "name": "F#2",
          "ticks": 4080,
          "time": 17,
          "velocity": 0.7874015748031497
        },
        {
          "duration": 0.10000000000000142,
          "durationTicks": 24,
          "midi": 69,
          "name": "A4",
          "ticks": 4080,
          "time": 17,
          "velocity": 0.7874015748031497
        },
        {
          "duration": 0.10000000000000142,
          "durationTicks": 24,
          "midi": 40,
          "name": "E2",
          "ticks": 4128,
          "time": 17.2,
          "velocity": 0.8818897637795275
        },
        {
          "duration": 0.10000000000000142,
          "durationTicks": 24,
          "midi": 69,
          "name": "A4",
          "ticks": 4128,
          "time": 17.2,
          "velocity": 0.7874015748031497
        },
        {
          "duration": 0.10000000000000142,
          "durationTicks": 24,
          "midi": 42,
          "name": "F#2",
          "ticks": 4128,
          "time": 17.2,
          "velocity": 0.7874015748031497
        },
        {
          "duration": 0.10000000000000142,
          "durationTicks": 24,
          "midi": 69,
          "name": "A4",
          "ticks": 4152,
          "time": 17.3,
          "velocity": 0.7874015748031497
        },
        {
          "duration": 0.09999999999999787,
          "durationTicks": 24,
          "midi": 42,
          "name": "F#2",
          "ticks": 4176,
          "time": 17.400000000000002,
          "velocity": 0.7874015748031497
        },
        {
          "duration": 0.09999999999999787,
          "durationTicks": 24,
          "midi": 69,
          "name": "A4",
          "ticks": 4176,
          "time": 17.400000000000002,
          "velocity": 0.7874015748031497
        },
        {
          "duration": 0.09999999999999787,
          "durationTicks": 24,
          "midi": 43,
          "name": "G2",
          "ticks": 4224,
          "time": 17.6,
          "velocity": 0.968503937007874
        },
        {
          "duration": 0.09999999999999787,
          "durationTicks": 24,
          "midi": 45,
          "name": "A2",
          "ticks": 4224,
          "time": 17.6,
          "velocity": 0.952755905511811
        },
        {
          "duration": 0.10000000000000142,
          "durationTicks": 24,
          "midi": 43,
          "name": "G2",
          "ticks": 4272,
          "time": 17.8,
          "velocity": 0.968503937007874
        },
        {
          "duration": 0.10000000000000142,
          "durationTicks": 24,
          "midi": 45,
          "name": "A2",
          "ticks": 4272,
          "time": 17.8,
          "velocity": 0.952755905511811
        },
        {
          "duration": 0.10000000000000142,
          "durationTicks": 24,
          "midi": 45,
          "name": "A2",
          "ticks": 4320,
          "time": 18,
          "velocity": 0.952755905511811
        },
        {
          "duration": 0.10000000000000142,
          "durationTicks": 24,
          "midi": 43,
          "name": "G2",
          "ticks": 4320,
          "time": 18,
          "velocity": 0.968503937007874
        },
        {
          "duration": 0.10000000000000142,
          "durationTicks": 24,
          "midi": 43,
          "name": "G2",
          "ticks": 4368,
          "time": 18.2,
          "velocity": 0.968503937007874
        },
        {
          "duration": 0.10000000000000142,
          "durationTicks": 24,
          "midi": 45,
          "name": "A2",
          "ticks": 4368,
          "time": 18.2,
          "velocity": 0.952755905511811
        },
        {
          "duration": 0.09999999999999787,
          "durationTicks": 24,
          "midi": 45,
          "name": "A2",
          "ticks": 4416,
          "time": 18.400000000000002,
          "velocity": 0.952755905511811
        },
        {
          "duration": 0.09999999999999787,
          "durationTicks": 24,
          "midi": 43,
          "name": "G2",
          "ticks": 4416,
          "time": 18.400000000000002,
          "velocity": 0.968503937007874
        },
        {
          "duration": 0.09999999999999787,
          "durationTicks": 24,
          "midi": 43,
          "name": "G2",
          "ticks": 4464,
          "time": 18.6,
          "velocity": 0.968503937007874
        },
        {
          "duration": 0.09999999999999787,
          "durationTicks": 24,
          "midi": 45,
          "name": "A2",
          "ticks": 4464,
          "time": 18.6,
          "velocity": 0.952755905511811
        },
        {
          "duration": 0.10000000000000142,
          "durationTicks": 24,
          "midi": 45,
          "name": "A2",
          "ticks": 4512,
          "time": 18.8,
          "velocity": 0.952755905511811
        },
        {
          "duration": 0.10000000000000142,
          "durationTicks": 24,
          "midi": 43,
          "name": "G2",
          "ticks": 4512,
          "time": 18.8,
          "velocity": 0.968503937007874
        },
        {
          "duration": 0.10000000000000142,
          "durationTicks": 24,
          "midi": 43,
          "name": "G2",
          "ticks": 4560,
          "time": 19,
          "velocity": 0.968503937007874
        },
        {
          "duration": 0.10000000000000142,
          "durationTicks": 24,
          "midi": 45,
          "name": "A2",
          "ticks": 4560,
          "time": 19,
          "velocity": 0.952755905511811
        },
        {
          "duration": 0.10000000000000142,
          "durationTicks": 24,
          "midi": 43,
          "name": "G2",
          "ticks": 4584,
          "time": 19.1,
          "velocity": 0.968503937007874
        },
        {
          "duration": 0.10000000000000142,
          "durationTicks": 24,
          "midi": 45,
          "name": "A2",
          "ticks": 4584,
          "time": 19.1,
          "velocity": 1
        },
        {
          "duration": 0.09999999999999787,
          "durationTicks": 24,
          "midi": 36,
          "name": "C2",
          "ticks": 4608,
          "time": 19.200000000000003,
          "velocity": 0.9133858267716536
        },
        {
          "duration": 0.09999999999999787,
          "durationTicks": 24,
          "midi": 49,
          "name": "C#3",
          "ticks": 4608,
          "time": 19.200000000000003,
          "velocity": 0.968503937007874
        },
        {
          "duration": 0.09999999999999787,
          "durationTicks": 24,
          "midi": 69,
          "name": "A4",
          "ticks": 4608,
          "time": 19.200000000000003,
          "velocity": 0.7874015748031497
        },
        {
          "duration": 0.10000000000000142,
          "durationTicks": 24,
          "midi": 69,
          "name": "A4",
          "ticks": 4632,
          "time": 19.3,
          "velocity": 0.7874015748031497
        },
        {
          "duration": 0.09999999999999787,
          "durationTicks": 24,
          "midi": 69,
          "name": "A4",
          "ticks": 4656,
          "time": 19.400000000000002,
          "velocity": 0.7874015748031497
        },
        {
          "duration": 0.09999999999999787,
          "durationTicks": 24,
          "midi": 42,
          "name": "F#2",
          "ticks": 4656,
          "time": 19.400000000000002,
          "velocity": 0.7874015748031497
        },
        {
          "duration": 0.10000000000000142,
          "durationTicks": 24,
          "midi": 40,
          "name": "E2",
          "ticks": 4704,
          "time": 19.6,
          "velocity": 0.8818897637795275
        },
        {
          "duration": 0.10000000000000142,
          "durationTicks": 24,
          "midi": 69,
          "name": "A4",
          "ticks": 4704,
          "time": 19.6,
          "velocity": 0.7874015748031497
        },
        {
          "duration": 0.10000000000000142,
          "durationTicks": 24,
          "midi": 42,
          "name": "F#2",
          "ticks": 4704,
          "time": 19.6,
          "velocity": 0.7874015748031497
        },
        {
          "duration": 0.09999999999999787,
          "durationTicks": 24,
          "midi": 69,
          "name": "A4",
          "ticks": 4728,
          "time": 19.700000000000003,
          "velocity": 0.7874015748031497
        },
        {
          "duration": 0.10000000000000142,
          "durationTicks": 24,
          "midi": 69,
          "name": "A4",
          "ticks": 4752,
          "time": 19.8,
          "velocity": 0.7874015748031497
        },
        {
          "duration": 0.10000000000000142,
          "durationTicks": 24,
          "midi": 36,
          "name": "C2",
          "ticks": 4752,
          "time": 19.8,
          "velocity": 0.9133858267716536
        },
        {
          "duration": 0.10000000000000142,
          "durationTicks": 24,
          "midi": 42,
          "name": "F#2",
          "ticks": 4752,
          "time": 19.8,
          "velocity": 0.7874015748031497
        },
        {
          "duration": 0.10000000000000142,
          "durationTicks": 24,
          "midi": 69,
          "name": "A4",
          "ticks": 4800,
          "time": 20,
          "velocity": 0.7874015748031497
        },
        {
          "duration": 0.10000000000000142,
          "durationTicks": 24,
          "midi": 36,
          "name": "C2",
          "ticks": 4800,
          "time": 20,
          "velocity": 0.9133858267716536
        },
        {
          "duration": 0.10000000000000142,
          "durationTicks": 24,
          "midi": 42,
          "name": "F#2",
          "ticks": 4800,
          "time": 20,
          "velocity": 0.7874015748031497
        },
        {
          "duration": 0.10000000000000142,
          "durationTicks": 24,
          "midi": 69,
          "name": "A4",
          "ticks": 4824,
          "time": 20.1,
          "velocity": 0.7874015748031497
        },
        {
          "duration": 0.09999999999999787,
          "durationTicks": 24,
          "midi": 69,
          "name": "A4",
          "ticks": 4848,
          "time": 20.200000000000003,
          "velocity": 0.7874015748031497
        },
        {
          "duration": 0.09999999999999787,
          "durationTicks": 24,
          "midi": 42,
          "name": "F#2",
          "ticks": 4848,
          "time": 20.200000000000003,
          "velocity": 0.7874015748031497
        },
        {
          "duration": 0.09999999999999787,
          "durationTicks": 24,
          "midi": 40,
          "name": "E2",
          "ticks": 4896,
          "time": 20.400000000000002,
          "velocity": 0.8818897637795275
        },
        {
          "duration": 0.09999999999999787,
          "durationTicks": 24,
          "midi": 69,
          "name": "A4",
          "ticks": 4896,
          "time": 20.400000000000002,
          "velocity": 0.7874015748031497
        },
        {
          "duration": 0.09999999999999787,
          "durationTicks": 24,
          "midi": 42,
          "name": "F#2",
          "ticks": 4896,
          "time": 20.400000000000002,
          "velocity": 0.7874015748031497
        },
        {
          "duration": 0.10000000000000142,
          "durationTicks": 24,
          "midi": 69,
          "name": "A4",
          "ticks": 4920,
          "time": 20.5,
          "velocity": 0.7874015748031497
        },
        {
          "duration": 0.10000000000000142,
          "durationTicks": 24,
          "midi": 69,
          "name": "A4",
          "ticks": 4944,
          "time": 20.6,
          "velocity": 0.7874015748031497
        },
        {
          "duration": 0.10000000000000142,
          "durationTicks": 24,
          "midi": 42,
          "name": "F#2",
          "ticks": 4944,
          "time": 20.6,
          "velocity": 0.7874015748031497
        },
        {
          "duration": 0.10000000000000142,
          "durationTicks": 24,
          "midi": 36,
          "name": "C2",
          "ticks": 4992,
          "time": 20.8,
          "velocity": 0.9133858267716536
        },
        {
          "duration": 0.10000000000000142,
          "durationTicks": 24,
          "midi": 69,
          "name": "A4",
          "ticks": 4992,
          "time": 20.8,
          "velocity": 0.7874015748031497
        },
        {
          "duration": 0.10000000000000142,
          "durationTicks": 24,
          "midi": 42,
          "name": "F#2",
          "ticks": 4992,
          "time": 20.8,
          "velocity": 0.7874015748031497
        },
        {
          "duration": 0.09999999999999787,
          "durationTicks": 24,
          "midi": 69,
          "name": "A4",
          "ticks": 5016,
          "time": 20.900000000000002,
          "velocity": 0.7874015748031497
        },
        {
          "duration": 0.10000000000000142,
          "durationTicks": 24,
          "midi": 69,
          "name": "A4",
          "ticks": 5040,
          "time": 21,
          "velocity": 0.7874015748031497
        },
        {
          "duration": 0.10000000000000142,
          "durationTicks": 24,
          "midi": 42,
          "name": "F#2",
          "ticks": 5040,
          "time": 21,
          "velocity": 0.7874015748031497
        },
        {
          "duration": 0.09999999999999787,
          "durationTicks": 24,
          "midi": 40,
          "name": "E2",
          "ticks": 5088,
          "time": 21.200000000000003,
          "velocity": 0.8818897637795275
        },
        {
          "duration": 0.09999999999999787,
          "durationTicks": 24,
          "midi": 69,
          "name": "A4",
          "ticks": 5088,
          "time": 21.200000000000003,
          "velocity": 0.7874015748031497
        },
        {
          "duration": 0.09999999999999787,
          "durationTicks": 24,
          "midi": 42,
          "name": "F#2",
          "ticks": 5088,
          "time": 21.200000000000003,
          "velocity": 0.7874015748031497
        },
        {
          "duration": 0.10000000000000142,
          "durationTicks": 24,
          "midi": 69,
          "name": "A4",
          "ticks": 5112,
          "time": 21.3,
          "velocity": 0.7874015748031497
        },
        {
          "duration": 0.09999999999999787,
          "durationTicks": 24,
          "midi": 69,
          "name": "A4",
          "ticks": 5136,
          "time": 21.400000000000002,
          "velocity": 0.7874015748031497
        },
        {
          "duration": 0.09999999999999787,
          "durationTicks": 24,
          "midi": 36,
          "name": "C2",
          "ticks": 5136,
          "time": 21.400000000000002,
          "velocity": 0.9133858267716536
        },
        {
          "duration": 0.09999999999999787,
          "durationTicks": 24,
          "midi": 42,
          "name": "F#2",
          "ticks": 5136,
          "time": 21.400000000000002,
          "velocity": 0.7874015748031497
        },
        {
          "duration": 0.10000000000000142,
          "durationTicks": 24,
          "midi": 69,
          "name": "A4",
          "ticks": 5184,
          "time": 21.6,
          "velocity": 0.7874015748031497
        },
        {
          "duration": 0.10000000000000142,
          "durationTicks": 24,
          "midi": 42,
          "name": "F#2",
          "ticks": 5184,
          "time": 21.6,
          "velocity": 0.7874015748031497
        },
        {
          "duration": 0.09999999999999787,
          "durationTicks": 24,
          "midi": 69,
          "name": "A4",
          "ticks": 5208,
          "time": 21.700000000000003,
          "velocity": 0.7874015748031497
        },
        {
          "duration": 0.10000000000000142,
          "durationTicks": 24,
          "midi": 36,
          "name": "C2",
          "ticks": 5232,
          "time": 21.8,
          "velocity": 0.9133858267716536
        },
        {
          "duration": 0.10000000000000142,
          "durationTicks": 24,
          "midi": 69,
          "name": "A4",
          "ticks": 5232,
          "time": 21.8,
          "velocity": 0.7874015748031497
        },
        {
          "duration": 0.10000000000000142,
          "durationTicks": 24,
          "midi": 42,
          "name": "F#2",
          "ticks": 5232,
          "time": 21.8,
          "velocity": 0.7874015748031497
        },
        {
          "duration": 0.10000000000000142,
          "durationTicks": 24,
          "midi": 42,
          "name": "F#2",
          "ticks": 5280,
          "time": 22,
          "velocity": 0.7874015748031497
        },
        {
          "duration": 0.10000000000000142,
          "durationTicks": 24,
          "midi": 69,
          "name": "A4",
          "ticks": 5280,
          "time": 22,
          "velocity": 0.7874015748031497
        },
        {
          "duration": 0.10000000000000142,
          "durationTicks": 24,
          "midi": 40,
          "name": "E2",
          "ticks": 5280,
          "time": 22,
          "velocity": 0.8818897637795275
        },
        {
          "duration": 0.10000000000000142,
          "durationTicks": 24,
          "midi": 69,
          "name": "A4",
          "ticks": 5304,
          "time": 22.1,
          "velocity": 0.7874015748031497
        },
        {
          "duration": 0.09999999999999787,
          "durationTicks": 24,
          "midi": 42,
          "name": "F#2",
          "ticks": 5328,
          "time": 22.200000000000003,
          "velocity": 0.7874015748031497
        },
        {
          "duration": 0.09999999999999787,
          "durationTicks": 24,
          "midi": 69,
          "name": "A4",
          "ticks": 5328,
          "time": 22.200000000000003,
          "velocity": 0.7874015748031497
        },
        {
          "duration": 0.09999999999999787,
          "durationTicks": 24,
          "midi": 42,
          "name": "F#2",
          "ticks": 5376,
          "time": 22.400000000000002,
          "velocity": 0.7874015748031497
        },
        {
          "duration": 0.09999999999999787,
          "durationTicks": 24,
          "midi": 36,
          "name": "C2",
          "ticks": 5376,
          "time": 22.400000000000002,
          "velocity": 0.9133858267716536
        },
        {
          "duration": 0.09999999999999787,
          "durationTicks": 24,
          "midi": 69,
          "name": "A4",
          "ticks": 5376,
          "time": 22.400000000000002,
          "velocity": 0.7874015748031497
        },
        {
          "duration": 0.10000000000000142,
          "durationTicks": 24,
          "midi": 69,
          "name": "A4",
          "ticks": 5400,
          "time": 22.5,
          "velocity": 0.7874015748031497
        },
        {
          "duration": 0.10000000000000142,
          "durationTicks": 24,
          "midi": 69,
          "name": "A4",
          "ticks": 5424,
          "time": 22.6,
          "velocity": 0.7874015748031497
        },
        {
          "duration": 0.10000000000000142,
          "durationTicks": 24,
          "midi": 42,
          "name": "F#2",
          "ticks": 5424,
          "time": 22.6,
          "velocity": 0.7874015748031497
        },
        {
          "duration": 0.10000000000000142,
          "durationTicks": 24,
          "midi": 42,
          "name": "F#2",
          "ticks": 5472,
          "time": 22.8,
          "velocity": 0.7874015748031497
        },
        {
          "duration": 0.10000000000000142,
          "durationTicks": 24,
          "midi": 40,
          "name": "E2",
          "ticks": 5472,
          "time": 22.8,
          "velocity": 0.8818897637795275
        },
        {
          "duration": 0.10000000000000142,
          "durationTicks": 24,
          "midi": 69,
          "name": "A4",
          "ticks": 5472,
          "time": 22.8,
          "velocity": 0.7874015748031497
        },
        {
          "duration": 0.09999999999999787,
          "durationTicks": 24,
          "midi": 69,
          "name": "A4",
          "ticks": 5496,
          "time": 22.900000000000002,
          "velocity": 0.7874015748031497
        },
        {
          "duration": 0.10000000000000142,
          "durationTicks": 24,
          "midi": 69,
          "name": "A4",
          "ticks": 5520,
          "time": 23,
          "velocity": 0.7874015748031497
        },
        {
          "duration": 0.10000000000000142,
          "durationTicks": 24,
          "midi": 36,
          "name": "C2",
          "ticks": 5520,
          "time": 23,
          "velocity": 0.9133858267716536
        },
        {
          "duration": 0.10000000000000142,
          "durationTicks": 24,
          "midi": 42,
          "name": "F#2",
          "ticks": 5520,
          "time": 23,
          "velocity": 0.7874015748031497
        },
        {
          "duration": 0.09999999999999787,
          "durationTicks": 24,
          "midi": 42,
          "name": "F#2",
          "ticks": 5568,
          "time": 23.200000000000003,
          "velocity": 0.7874015748031497
        },
        {
          "duration": 0.09999999999999787,
          "durationTicks": 24,
          "midi": 69,
          "name": "A4",
          "ticks": 5568,
          "time": 23.200000000000003,
          "velocity": 0.7874015748031497
        },
        {
          "duration": 0.09999999999999787,
          "durationTicks": 24,
          "midi": 36,
          "name": "C2",
          "ticks": 5568,
          "time": 23.200000000000003,
          "velocity": 0.9133858267716536
        },
        {
          "duration": 0.10000000000000142,
          "durationTicks": 24,
          "midi": 69,
          "name": "A4",
          "ticks": 5592,
          "time": 23.3,
          "velocity": 0.7874015748031497
        },
        {
          "duration": 0.09999999999999787,
          "durationTicks": 24,
          "midi": 69,
          "name": "A4",
          "ticks": 5616,
          "time": 23.400000000000002,
          "velocity": 0.7874015748031497
        },
        {
          "duration": 0.09999999999999787,
          "durationTicks": 24,
          "midi": 42,
          "name": "F#2",
          "ticks": 5616,
          "time": 23.400000000000002,
          "velocity": 0.7874015748031497
        },
        {
          "duration": 0.10000000000000142,
          "durationTicks": 24,
          "midi": 69,
          "name": "A4",
          "ticks": 5664,
          "time": 23.6,
          "velocity": 0.7874015748031497
        },
        {
          "duration": 0.10000000000000142,
          "durationTicks": 24,
          "midi": 40,
          "name": "E2",
          "ticks": 5664,
          "time": 23.6,
          "velocity": 0.8818897637795275
        },
        {
          "duration": 0.10000000000000142,
          "durationTicks": 24,
          "midi": 42,
          "name": "F#2",
          "ticks": 5664,
          "time": 23.6,
          "velocity": 0.7874015748031497
        },
        {
          "duration": 0.09999999999999787,
          "durationTicks": 24,
          "midi": 69,
          "name": "A4",
          "ticks": 5688,
          "time": 23.700000000000003,
          "velocity": 0.7874015748031497
        },
        {
          "duration": 0.10000000000000142,
          "durationTicks": 24,
          "midi": 42,
          "name": "F#2",
          "ticks": 5712,
          "time": 23.8,
          "velocity": 0.7874015748031497
        },
        {
          "duration": 0.10000000000000142,
          "durationTicks": 24,
          "midi": 69,
          "name": "A4",
          "ticks": 5712,
          "time": 23.8,
          "velocity": 0.7874015748031497
        },
        {
          "duration": 0.10000000000000142,
          "durationTicks": 24,
          "midi": 42,
          "name": "F#2",
          "ticks": 5760,
          "time": 24,
          "velocity": 0.7874015748031497
        },
        {
          "duration": 0.10000000000000142,
          "durationTicks": 24,
          "midi": 36,
          "name": "C2",
          "ticks": 5760,
          "time": 24,
          "velocity": 0.9133858267716536
        },
        {
          "duration": 0.10000000000000142,
          "durationTicks": 24,
          "midi": 69,
          "name": "A4",
          "ticks": 5760,
          "time": 24,
          "velocity": 0.7874015748031497
        },
        {
          "duration": 0.10000000000000142,
          "durationTicks": 24,
          "midi": 69,
          "name": "A4",
          "ticks": 5784,
          "time": 24.1,
          "velocity": 0.7874015748031497
        },
        {
          "duration": 0.09999999999999787,
          "durationTicks": 24,
          "midi": 42,
          "name": "F#2",
          "ticks": 5808,
          "time": 24.200000000000003,
          "velocity": 0.7874015748031497
        },
        {
          "duration": 0.09999999999999787,
          "durationTicks": 24,
          "midi": 36,
          "name": "C2",
          "ticks": 5808,
          "time": 24.200000000000003,
          "velocity": 0.9133858267716536
        },
        {
          "duration": 0.09999999999999787,
          "durationTicks": 24,
          "midi": 69,
          "name": "A4",
          "ticks": 5808,
          "time": 24.200000000000003,
          "velocity": 0.7874015748031497
        },
        {
          "duration": 0.09999999999999787,
          "durationTicks": 24,
          "midi": 69,
          "name": "A4",
          "ticks": 5856,
          "time": 24.400000000000002,
          "velocity": 0.7874015748031497
        },
        {
          "duration": 0.09999999999999787,
          "durationTicks": 24,
          "midi": 40,
          "name": "E2",
          "ticks": 5856,
          "time": 24.400000000000002,
          "velocity": 0.8818897637795275
        },
        {
          "duration": 0.09999999999999787,
          "durationTicks": 24,
          "midi": 42,
          "name": "F#2",
          "ticks": 5856,
          "time": 24.400000000000002,
          "velocity": 0.7874015748031497
        },
        {
          "duration": 0.10000000000000142,
          "durationTicks": 24,
          "midi": 69,
          "name": "A4",
          "ticks": 5880,
          "time": 24.5,
          "velocity": 0.7874015748031497
        },
        {
          "duration": 0.10000000000000142,
          "durationTicks": 24,
          "midi": 36,
          "name": "C2",
          "ticks": 5904,
          "time": 24.6,
          "velocity": 0.9133858267716536
        },
        {
          "duration": 0.10000000000000142,
          "durationTicks": 24,
          "midi": 69,
          "name": "A4",
          "ticks": 5904,
          "time": 24.6,
          "velocity": 0.7874015748031497
        },
        {
          "duration": 0.10000000000000142,
          "durationTicks": 24,
          "midi": 42,
          "name": "F#2",
          "ticks": 5904,
          "time": 24.6,
          "velocity": 0.7874015748031497
        },
        {
          "duration": 0.10000000000000142,
          "durationTicks": 24,
          "midi": 42,
          "name": "F#2",
          "ticks": 5952,
          "time": 24.8,
          "velocity": 0.7874015748031497
        },
        {
          "duration": 0.10000000000000142,
          "durationTicks": 24,
          "midi": 69,
          "name": "A4",
          "ticks": 5952,
          "time": 24.8,
          "velocity": 0.7874015748031497
        },
        {
          "duration": 0.09999999999999787,
          "durationTicks": 24,
          "midi": 69,
          "name": "A4",
          "ticks": 5976,
          "time": 24.900000000000002,
          "velocity": 0.7874015748031497
        },
        {
          "duration": 0.10000000000000142,
          "durationTicks": 24,
          "midi": 42,
          "name": "F#2",
          "ticks": 6000,
          "time": 25,
          "velocity": 0.7874015748031497
        },
        {
          "duration": 0.10000000000000142,
          "durationTicks": 24,
          "midi": 36,
          "name": "C2",
          "ticks": 6000,
          "time": 25,
          "velocity": 0.9133858267716536
        },
        {
          "duration": 0.10000000000000142,
          "durationTicks": 24,
          "midi": 69,
          "name": "A4",
          "ticks": 6000,
          "time": 25,
          "velocity": 0.7874015748031497
        },
        {
          "duration": 0.09999999999999787,
          "durationTicks": 24,
          "midi": 69,
          "name": "A4",
          "ticks": 6048,
          "time": 25.200000000000003,
          "velocity": 0.7874015748031497
        },
        {
          "duration": 0.09999999999999787,
          "durationTicks": 24,
          "midi": 40,
          "name": "E2",
          "ticks": 6048,
          "time": 25.200000000000003,
          "velocity": 0.8818897637795275
        },
        {
          "duration": 0.09999999999999787,
          "durationTicks": 24,
          "midi": 42,
          "name": "F#2",
          "ticks": 6048,
          "time": 25.200000000000003,
          "velocity": 0.7874015748031497
        },
        {
          "duration": 0.10000000000000142,
          "durationTicks": 24,
          "midi": 69,
          "name": "A4",
          "ticks": 6072,
          "time": 25.3,
          "velocity": 0.7874015748031497
        },
        {
          "duration": 0.09999999999999787,
          "durationTicks": 24,
          "midi": 69,
          "name": "A4",
          "ticks": 6096,
          "time": 25.400000000000002,
          "velocity": 0.7874015748031497
        },
        {
          "duration": 0.09999999999999787,
          "durationTicks": 24,
          "midi": 42,
          "name": "F#2",
          "ticks": 6096,
          "time": 25.400000000000002,
          "velocity": 0.7874015748031497
        },
        {
          "duration": 0.10000000000000142,
          "durationTicks": 24,
          "midi": 69,
          "name": "A4",
          "ticks": 6144,
          "time": 25.6,
          "velocity": 0.7874015748031497
        },
        {
          "duration": 0.10000000000000142,
          "durationTicks": 24,
          "midi": 36,
          "name": "C2",
          "ticks": 6144,
          "time": 25.6,
          "velocity": 0.9133858267716536
        },
        {
          "duration": 0.10000000000000142,
          "durationTicks": 24,
          "midi": 49,
          "name": "C#3",
          "ticks": 6144,
          "time": 25.6,
          "velocity": 0.968503937007874
        },
        {
          "duration": 0.09999999999999787,
          "durationTicks": 24,
          "midi": 69,
          "name": "A4",
          "ticks": 6168,
          "time": 25.700000000000003,
          "velocity": 0.7874015748031497
        },
        {
          "duration": 0.10000000000000142,
          "durationTicks": 24,
          "midi": 42,
          "name": "F#2",
          "ticks": 6192,
          "time": 25.8,
          "velocity": 0.7874015748031497
        },
        {
          "duration": 0.10000000000000142,
          "durationTicks": 24,
          "midi": 69,
          "name": "A4",
          "ticks": 6192,
          "time": 25.8,
          "velocity": 0.7874015748031497
        },
        {
          "duration": 0.10000000000000142,
          "durationTicks": 24,
          "midi": 42,
          "name": "F#2",
          "ticks": 6240,
          "time": 26,
          "velocity": 0.7874015748031497
        },
        {
          "duration": 0.10000000000000142,
          "durationTicks": 24,
          "midi": 40,
          "name": "E2",
          "ticks": 6240,
          "time": 26,
          "velocity": 0.8818897637795275
        },
        {
          "duration": 0.10000000000000142,
          "durationTicks": 24,
          "midi": 69,
          "name": "A4",
          "ticks": 6240,
          "time": 26,
          "velocity": 0.7874015748031497
        },
        {
          "duration": 0.10000000000000142,
          "durationTicks": 24,
          "midi": 69,
          "name": "A4",
          "ticks": 6264,
          "time": 26.1,
          "velocity": 0.7874015748031497
        },
        {
          "duration": 0.09999999999999787,
          "durationTicks": 24,
          "midi": 42,
          "name": "F#2",
          "ticks": 6288,
          "time": 26.200000000000003,
          "velocity": 0.7874015748031497
        },
        {
          "duration": 0.09999999999999787,
          "durationTicks": 24,
          "midi": 36,
          "name": "C2",
          "ticks": 6288,
          "time": 26.200000000000003,
          "velocity": 0.9133858267716536
        },
        {
          "duration": 0.09999999999999787,
          "durationTicks": 24,
          "midi": 69,
          "name": "A4",
          "ticks": 6288,
          "time": 26.200000000000003,
          "velocity": 0.7874015748031497
        },
        {
          "duration": 0.09999999999999787,
          "durationTicks": 24,
          "midi": 49,
          "name": "C#3",
          "ticks": 6336,
          "time": 26.400000000000002,
          "velocity": 0.968503937007874
        },
        {
          "duration": 0.09999999999999787,
          "durationTicks": 24,
          "midi": 36,
          "name": "C2",
          "ticks": 6336,
          "time": 26.400000000000002,
          "velocity": 0.9133858267716536
        },
        {
          "duration": 0.09999999999999787,
          "durationTicks": 24,
          "midi": 69,
          "name": "A4",
          "ticks": 6336,
          "time": 26.400000000000002,
          "velocity": 0.7874015748031497
        },
        {
          "duration": 0.10000000000000142,
          "durationTicks": 24,
          "midi": 69,
          "name": "A4",
          "ticks": 6360,
          "time": 26.5,
          "velocity": 0.7874015748031497
        },
        {
          "duration": 0.10000000000000142,
          "durationTicks": 24,
          "midi": 69,
          "name": "A4",
          "ticks": 6384,
          "time": 26.6,
          "velocity": 0.7874015748031497
        },
        {
          "duration": 0.10000000000000142,
          "durationTicks": 24,
          "midi": 42,
          "name": "F#2",
          "ticks": 6384,
          "time": 26.6,
          "velocity": 0.7874015748031497
        },
        {
          "duration": 0.10000000000000142,
          "durationTicks": 24,
          "midi": 69,
          "name": "A4",
          "ticks": 6432,
          "time": 26.8,
          "velocity": 0.7874015748031497
        },
        {
          "duration": 0.10000000000000142,
          "durationTicks": 24,
          "midi": 40,
          "name": "E2",
          "ticks": 6432,
          "time": 26.8,
          "velocity": 0.8818897637795275
        },
        {
          "duration": 0.10000000000000142,
          "durationTicks": 24,
          "midi": 42,
          "name": "F#2",
          "ticks": 6432,
          "time": 26.8,
          "velocity": 0.7874015748031497
        },
        {
          "duration": 0.09999999999999787,
          "durationTicks": 24,
          "midi": 69,
          "name": "A4",
          "ticks": 6456,
          "time": 26.900000000000002,
          "velocity": 0.7874015748031497
        },
        {
          "duration": 0.10000000000000142,
          "durationTicks": 24,
          "midi": 42,
          "name": "F#2",
          "ticks": 6480,
          "time": 27,
          "velocity": 0.7874015748031497
        },
        {
          "duration": 0.10000000000000142,
          "durationTicks": 24,
          "midi": 69,
          "name": "A4",
          "ticks": 6480,
          "time": 27,
          "velocity": 0.7874015748031497
        },
        {
          "duration": 0.09999999999999787,
          "durationTicks": 24,
          "midi": 36,
          "name": "C2",
          "ticks": 6528,
          "time": 27.200000000000003,
          "velocity": 0.9133858267716536
        },
        {
          "duration": 0.09999999999999787,
          "durationTicks": 24,
          "midi": 69,
          "name": "A4",
          "ticks": 6528,
          "time": 27.200000000000003,
          "velocity": 0.7874015748031497
        },
        {
          "duration": 0.09999999999999787,
          "durationTicks": 24,
          "midi": 42,
          "name": "F#2",
          "ticks": 6528,
          "time": 27.200000000000003,
          "velocity": 0.7874015748031497
        },
        {
          "duration": 0.10000000000000142,
          "durationTicks": 24,
          "midi": 69,
          "name": "A4",
          "ticks": 6552,
          "time": 27.3,
          "velocity": 0.7874015748031497
        },
        {
          "duration": 0.09999999999999787,
          "durationTicks": 24,
          "midi": 69,
          "name": "A4",
          "ticks": 6576,
          "time": 27.400000000000002,
          "velocity": 0.7874015748031497
        },
        {
          "duration": 0.09999999999999787,
          "durationTicks": 24,
          "midi": 42,
          "name": "F#2",
          "ticks": 6576,
          "time": 27.400000000000002,
          "velocity": 0.7874015748031497
        },
        {
          "duration": 0.10000000000000142,
          "durationTicks": 24,
          "midi": 42,
          "name": "F#2",
          "ticks": 6624,
          "time": 27.6,
          "velocity": 0.7874015748031497
        },
        {
          "duration": 0.10000000000000142,
          "durationTicks": 24,
          "midi": 40,
          "name": "E2",
          "ticks": 6624,
          "time": 27.6,
          "velocity": 0.8818897637795275
        },
        {
          "duration": 0.10000000000000142,
          "durationTicks": 24,
          "midi": 69,
          "name": "A4",
          "ticks": 6624,
          "time": 27.6,
          "velocity": 0.7874015748031497
        },
        {
          "duration": 0.09999999999999787,
          "durationTicks": 24,
          "midi": 69,
          "name": "A4",
          "ticks": 6648,
          "time": 27.700000000000003,
          "velocity": 0.7874015748031497
        },
        {
          "duration": 0.10000000000000142,
          "durationTicks": 24,
          "midi": 49,
          "name": "C#3",
          "ticks": 6672,
          "time": 27.8,
          "velocity": 0.968503937007874
        },
        {
          "duration": 0.10000000000000142,
          "durationTicks": 24,
          "midi": 36,
          "name": "C2",
          "ticks": 6672,
          "time": 27.8,
          "velocity": 0.9133858267716536
        },
        {
          "duration": 0.10000000000000142,
          "durationTicks": 24,
          "midi": 69,
          "name": "A4",
          "ticks": 6672,
          "time": 27.8,
          "velocity": 0.7874015748031497
        },
        {
          "duration": 0.10000000000000142,
          "durationTicks": 24,
          "midi": 69,
          "name": "A4",
          "ticks": 6720,
          "time": 28,
          "velocity": 0.7874015748031497
        },
        {
          "duration": 0.10000000000000142,
          "durationTicks": 24,
          "midi": 42,
          "name": "F#2",
          "ticks": 6720,
          "time": 28,
          "velocity": 0.7874015748031497
        },
        {
          "duration": 0.10000000000000142,
          "durationTicks": 24,
          "midi": 69,
          "name": "A4",
          "ticks": 6744,
          "time": 28.1,
          "velocity": 0.7874015748031497
        },
        {
          "duration": 0.09999999999999787,
          "durationTicks": 24,
          "midi": 42,
          "name": "F#2",
          "ticks": 6768,
          "time": 28.200000000000003,
          "velocity": 0.7874015748031497
        },
        {
          "duration": 0.09999999999999787,
          "durationTicks": 24,
          "midi": 36,
          "name": "C2",
          "ticks": 6768,
          "time": 28.200000000000003,
          "velocity": 0.9133858267716536
        },
        {
          "duration": 0.09999999999999787,
          "durationTicks": 24,
          "midi": 69,
          "name": "A4",
          "ticks": 6768,
          "time": 28.200000000000003,
          "velocity": 0.7874015748031497
        },
        {
          "duration": 0.09999999999999787,
          "durationTicks": 24,
          "midi": 69,
          "name": "A4",
          "ticks": 6816,
          "time": 28.400000000000002,
          "velocity": 0.7874015748031497
        },
        {
          "duration": 0.09999999999999787,
          "durationTicks": 24,
          "midi": 40,
          "name": "E2",
          "ticks": 6816,
          "time": 28.400000000000002,
          "velocity": 0.8818897637795275
        },
        {
          "duration": 0.09999999999999787,
          "durationTicks": 24,
          "midi": 42,
          "name": "F#2",
          "ticks": 6816,
          "time": 28.400000000000002,
          "velocity": 0.7874015748031497
        },
        {
          "duration": 0.10000000000000142,
          "durationTicks": 24,
          "midi": 69,
          "name": "A4",
          "ticks": 6840,
          "time": 28.5,
          "velocity": 0.7874015748031497
        },
        {
          "duration": 0.10000000000000142,
          "durationTicks": 24,
          "midi": 69,
          "name": "A4",
          "ticks": 6864,
          "time": 28.6,
          "velocity": 0.7874015748031497
        },
        {
          "duration": 0.10000000000000142,
          "durationTicks": 24,
          "midi": 42,
          "name": "F#2",
          "ticks": 6864,
          "time": 28.6,
          "velocity": 0.7874015748031497
        },
        {
          "duration": 0.10000000000000142,
          "durationTicks": 24,
          "midi": 49,
          "name": "C#3",
          "ticks": 6912,
          "time": 28.8,
          "velocity": 0.968503937007874
        },
        {
          "duration": 0.10000000000000142,
          "durationTicks": 24,
          "midi": 36,
          "name": "C2",
          "ticks": 6912,
          "time": 28.8,
          "velocity": 0.9133858267716536
        },
        {
          "duration": 0.10000000000000142,
          "durationTicks": 24,
          "midi": 69,
          "name": "A4",
          "ticks": 6912,
          "time": 28.8,
          "velocity": 0.7874015748031497
        },
        {
          "duration": 0.10000000000000142,
          "durationTicks": 24,
          "midi": 42,
          "name": "F#2",
          "ticks": 6912,
          "time": 28.8,
          "velocity": 0.7874015748031497
        },
        {
          "duration": 0.09999999999999787,
          "durationTicks": 24,
          "midi": 69,
          "name": "A4",
          "ticks": 6936,
          "time": 28.900000000000002,
          "velocity": 0.7874015748031497
        },
        {
          "duration": 0.10000000000000142,
          "durationTicks": 24,
          "midi": 69,
          "name": "A4",
          "ticks": 6960,
          "time": 29,
          "velocity": 0.7874015748031497
        },
        {
          "duration": 0.10000000000000142,
          "durationTicks": 24,
          "midi": 42,
          "name": "F#2",
          "ticks": 6960,
          "time": 29,
          "velocity": 0.7874015748031497
        },
        {
          "duration": 0.09999999999999787,
          "durationTicks": 24,
          "midi": 69,
          "name": "A4",
          "ticks": 7008,
          "time": 29.200000000000003,
          "velocity": 0.7874015748031497
        },
        {
          "duration": 0.09999999999999787,
          "durationTicks": 24,
          "midi": 40,
          "name": "E2",
          "ticks": 7008,
          "time": 29.200000000000003,
          "velocity": 0.8818897637795275
        },
        {
          "duration": 0.09999999999999787,
          "durationTicks": 24,
          "midi": 42,
          "name": "F#2",
          "ticks": 7008,
          "time": 29.200000000000003,
          "velocity": 0.7874015748031497
        },
        {
          "duration": 0.10000000000000142,
          "durationTicks": 24,
          "midi": 69,
          "name": "A4",
          "ticks": 7032,
          "time": 29.3,
          "velocity": 0.7874015748031497
        },
        {
          "duration": 0.09999999999999787,
          "durationTicks": 24,
          "midi": 42,
          "name": "F#2",
          "ticks": 7056,
          "time": 29.400000000000002,
          "velocity": 0.7874015748031497
        },
        {
          "duration": 0.09999999999999787,
          "durationTicks": 24,
          "midi": 69,
          "name": "A4",
          "ticks": 7056,
          "time": 29.400000000000002,
          "velocity": 0.7874015748031497
        },
        {
          "duration": 0.09999999999999787,
          "durationTicks": 24,
          "midi": 36,
          "name": "C2",
          "ticks": 7056,
          "time": 29.400000000000002,
          "velocity": 0.9133858267716536
        },
        {
          "duration": 0.10000000000000142,
          "durationTicks": 24,
          "midi": 69,
          "name": "A4",
          "ticks": 7104,
          "time": 29.6,
          "velocity": 0.7874015748031497
        },
        {
          "duration": 0.10000000000000142,
          "durationTicks": 24,
          "midi": 36,
          "name": "C2",
          "ticks": 7104,
          "time": 29.6,
          "velocity": 0.9133858267716536
        },
        {
          "duration": 0.10000000000000142,
          "durationTicks": 24,
          "midi": 42,
          "name": "F#2",
          "ticks": 7104,
          "time": 29.6,
          "velocity": 0.7874015748031497
        },
        {
          "duration": 0.09999999999999787,
          "durationTicks": 24,
          "midi": 69,
          "name": "A4",
          "ticks": 7128,
          "time": 29.700000000000003,
          "velocity": 0.7874015748031497
        },
        {
          "duration": 0.10000000000000142,
          "durationTicks": 24,
          "midi": 42,
          "name": "F#2",
          "ticks": 7152,
          "time": 29.8,
          "velocity": 0.7874015748031497
        },
        {
          "duration": 0.10000000000000142,
          "durationTicks": 24,
          "midi": 69,
          "name": "A4",
          "ticks": 7152,
          "time": 29.8,
          "velocity": 0.7874015748031497
        },
        {
          "duration": 0.10000000000000142,
          "durationTicks": 24,
          "midi": 40,
          "name": "E2",
          "ticks": 7200,
          "time": 30,
          "velocity": 0.8818897637795275
        },
        {
          "duration": 0.10000000000000142,
          "durationTicks": 24,
          "midi": 69,
          "name": "A4",
          "ticks": 7200,
          "time": 30,
          "velocity": 0.7874015748031497
        },
        {
          "duration": 0.10000000000000142,
          "durationTicks": 24,
          "midi": 42,
          "name": "F#2",
          "ticks": 7200,
          "time": 30,
          "velocity": 0.7874015748031497
        },
        {
          "duration": 0.10000000000000142,
          "durationTicks": 24,
          "midi": 69,
          "name": "A4",
          "ticks": 7224,
          "time": 30.1,
          "velocity": 0.7874015748031497
        },
        {
          "duration": 0.09999999999999787,
          "durationTicks": 24,
          "midi": 36,
          "name": "C2",
          "ticks": 7248,
          "time": 30.200000000000003,
          "velocity": 0.968503937007874
        },
        {
          "duration": 0.09999999999999787,
          "durationTicks": 24,
          "midi": 69,
          "name": "A4",
          "ticks": 7248,
          "time": 30.200000000000003,
          "velocity": 0.7874015748031497
        },
        {
          "duration": 0.09999999999999787,
          "durationTicks": 24,
          "midi": 49,
          "name": "C#3",
          "ticks": 7248,
          "time": 30.200000000000003,
          "velocity": 0.968503937007874
        },
        {
          "duration": 0.10000000000000142,
          "durationTicks": 24,
          "midi": 41,
          "name": "F2",
          "ticks": 7344,
          "time": 30.6,
          "velocity": 0.9212598425196851
        },
        {
          "duration": 0.10000000000000142,
          "durationTicks": 24,
          "midi": 40,
          "name": "E2",
          "ticks": 7344,
          "time": 30.6,
          "velocity": 0.7795275590551181
        },
        {
          "duration": 0.10000000000000142,
          "durationTicks": 24,
          "midi": 41,
          "name": "F2",
          "ticks": 7392,
          "time": 30.8,
          "velocity": 0.9212598425196851
        },
        {
          "duration": 0.10000000000000142,
          "durationTicks": 24,
          "midi": 40,
          "name": "E2",
          "ticks": 7392,
          "time": 30.8,
          "velocity": 0.7795275590551181
        },
        {
          "duration": 0.10000000000000142,
          "durationTicks": 24,
          "midi": 41,
          "name": "F2",
          "ticks": 7440,
          "time": 31,
          "velocity": 0.9212598425196851
        },
        {
          "duration": 0.10000000000000142,
          "durationTicks": 24,
          "midi": 40,
          "name": "E2",
          "ticks": 7440,
          "time": 31,
          "velocity": 0.7795275590551181
        },
        {
          "duration": 0.09999999999999787,
          "durationTicks": 24,
          "midi": 41,
          "name": "F2",
          "ticks": 7488,
          "time": 31.200000000000003,
          "velocity": 0.9212598425196851
        },
        {
          "duration": 0.09999999999999787,
          "durationTicks": 24,
          "midi": 40,
          "name": "E2",
          "ticks": 7488,
          "time": 31.200000000000003,
          "velocity": 0.8031496062992126
        },
        {
          "duration": 0.09999999999999787,
          "durationTicks": 24,
          "midi": 40,
          "name": "E2",
          "ticks": 7536,
          "time": 31.400000000000002,
          "velocity": 0.7244094488188977
        },
        {
          "duration": 0.10000000000000142,
          "durationTicks": 24,
          "midi": 40,
          "name": "E2",
          "ticks": 7560,
          "time": 31.5,
          "velocity": 0.7637795275590551
        },
        {
          "duration": 0.10000000000000142,
          "durationTicks": 24,
          "midi": 40,
          "name": "E2",
          "ticks": 7584,
          "time": 31.6,
          "velocity": 0.8031496062992126
        },
        {
          "duration": 0.09999999999999787,
          "durationTicks": 24,
          "midi": 40,
          "name": "E2",
          "ticks": 7608,
          "time": 31.700000000000003,
          "velocity": 0.8346456692913385
        },
        {
          "duration": 0.10000000000000142,
          "durationTicks": 24,
          "midi": 40,
          "name": "E2",
          "ticks": 7632,
          "time": 31.8,
          "velocity": 0.8740157480314961
        },
        {
          "duration": 0.09999999999999787,
          "durationTicks": 24,
          "midi": 40,
          "name": "E2",
          "ticks": 7656,
          "time": 31.900000000000002,
          "velocity": 0.9133858267716536
        },
        {
          "duration": 0.10000000000000142,
          "durationTicks": 24,
          "midi": 69,
          "name": "A4",
          "ticks": 7680,
          "time": 32,
          "velocity": 0.7874015748031497
        },
        {
          "duration": 0.10000000000000142,
          "durationTicks": 24,
          "midi": 36,
          "name": "C2",
          "ticks": 7680,
          "time": 32,
          "velocity": 0.968503937007874
        },
        {
          "duration": 0.10000000000000142,
          "durationTicks": 24,
          "midi": 49,
          "name": "C#3",
          "ticks": 7680,
          "time": 32,
          "velocity": 0.968503937007874
        },
        {
          "duration": 0.10000000000000142,
          "durationTicks": 24,
          "midi": 69,
          "name": "A4",
          "ticks": 7704,
          "time": 32.1,
          "velocity": 0.7874015748031497
        },
        {
          "duration": 0.10000000000000142,
          "durationTicks": 24,
          "midi": 69,
          "name": "A4",
          "ticks": 7728,
          "time": 32.2,
          "velocity": 0.7874015748031497
        },
        {
          "duration": 0.10000000000000142,
          "durationTicks": 24,
          "midi": 42,
          "name": "F#2",
          "ticks": 7728,
          "time": 32.2,
          "velocity": 0.7874015748031497
        },
        {
          "duration": 0.10000000000000142,
          "durationTicks": 24,
          "midi": 69,
          "name": "A4",
          "ticks": 7776,
          "time": 32.4,
          "velocity": 0.7874015748031497
        },
        {
          "duration": 0.10000000000000142,
          "durationTicks": 24,
          "midi": 40,
          "name": "E2",
          "ticks": 7776,
          "time": 32.4,
          "velocity": 0.8503937007874016
        },
        {
          "duration": 0.10000000000000142,
          "durationTicks": 24,
          "midi": 42,
          "name": "F#2",
          "ticks": 7776,
          "time": 32.4,
          "velocity": 0.7874015748031497
        },
        {
          "duration": 0.10000000000000142,
          "durationTicks": 24,
          "midi": 69,
          "name": "A4",
          "ticks": 7800,
          "time": 32.5,
          "velocity": 0.7874015748031497
        },
        {
          "duration": 0.10000000000000142,
          "durationTicks": 24,
          "midi": 69,
          "name": "A4",
          "ticks": 7824,
          "time": 32.6,
          "velocity": 0.7874015748031497
        },
        {
          "duration": 0.10000000000000142,
          "durationTicks": 24,
          "midi": 42,
          "name": "F#2",
          "ticks": 7824,
          "time": 32.6,
          "velocity": 0.7874015748031497
        },
        {
          "duration": 0.09999999999999432,
          "durationTicks": 24,
          "midi": 36,
          "name": "C2",
          "ticks": 7872,
          "time": 32.800000000000004,
          "velocity": 0.968503937007874
        },
        {
          "duration": 0.09999999999999432,
          "durationTicks": 24,
          "midi": 69,
          "name": "A4",
          "ticks": 7872,
          "time": 32.800000000000004,
          "velocity": 0.7874015748031497
        },
        {
          "duration": 0.09999999999999432,
          "durationTicks": 24,
          "midi": 42,
          "name": "F#2",
          "ticks": 7872,
          "time": 32.800000000000004,
          "velocity": 0.7874015748031497
        },
        {
          "duration": 0.10000000000000142,
          "durationTicks": 24,
          "midi": 69,
          "name": "A4",
          "ticks": 7896,
          "time": 32.9,
          "velocity": 0.7874015748031497
        },
        {
          "duration": 0.10000000000000142,
          "durationTicks": 24,
          "midi": 69,
          "name": "A4",
          "ticks": 7920,
          "time": 33,
          "velocity": 0.7874015748031497
        },
        {
          "duration": 0.10000000000000142,
          "durationTicks": 24,
          "midi": 42,
          "name": "F#2",
          "ticks": 7920,
          "time": 33,
          "velocity": 0.7874015748031497
        },
        {
          "duration": 0.10000000000000142,
          "durationTicks": 24,
          "midi": 69,
          "name": "A4",
          "ticks": 7968,
          "time": 33.2,
          "velocity": 0.7874015748031497
        },
        {
          "duration": 0.10000000000000142,
          "durationTicks": 24,
          "midi": 40,
          "name": "E2",
          "ticks": 7968,
          "time": 33.2,
          "velocity": 0.8503937007874016
        },
        {
          "duration": 0.10000000000000142,
          "durationTicks": 24,
          "midi": 42,
          "name": "F#2",
          "ticks": 7968,
          "time": 33.2,
          "velocity": 0.7874015748031497
        },
        {
          "duration": 0.09999999999999432,
          "durationTicks": 24,
          "midi": 69,
          "name": "A4",
          "ticks": 7992,
          "time": 33.300000000000004,
          "velocity": 0.7874015748031497
        },
        {
          "duration": 0.10000000000000142,
          "durationTicks": 24,
          "midi": 42,
          "name": "F#2",
          "ticks": 8016,
          "time": 33.4,
          "velocity": 0.7874015748031497
        },
        {
          "duration": 0.10000000000000142,
          "durationTicks": 24,
          "midi": 69,
          "name": "A4",
          "ticks": 8016,
          "time": 33.4,
          "velocity": 0.7874015748031497
        },
        {
          "duration": 0.10000000000000142,
          "durationTicks": 24,
          "midi": 42,
          "name": "F#2",
          "ticks": 8064,
          "time": 33.6,
          "velocity": 0.7874015748031497
        },
        {
          "duration": 0.10000000000000142,
          "durationTicks": 24,
          "midi": 69,
          "name": "A4",
          "ticks": 8064,
          "time": 33.6,
          "velocity": 0.7874015748031497
        },
        {
          "duration": 0.10000000000000142,
          "durationTicks": 24,
          "midi": 36,
          "name": "C2",
          "ticks": 8064,
          "time": 33.6,
          "velocity": 0.968503937007874
        },
        {
          "duration": 0.10000000000000142,
          "durationTicks": 24,
          "midi": 69,
          "name": "A4",
          "ticks": 8088,
          "time": 33.7,
          "velocity": 0.7874015748031497
        },
        {
          "duration": 0.09999999999999432,
          "durationTicks": 24,
          "midi": 42,
          "name": "F#2",
          "ticks": 8112,
          "time": 33.800000000000004,
          "velocity": 0.7874015748031497
        },
        {
          "duration": 0.09999999999999432,
          "durationTicks": 24,
          "midi": 69,
          "name": "A4",
          "ticks": 8112,
          "time": 33.800000000000004,
          "velocity": 0.7874015748031497
        },
        {
          "duration": 0.10000000000000142,
          "durationTicks": 24,
          "midi": 42,
          "name": "F#2",
          "ticks": 8160,
          "time": 34,
          "velocity": 0.7874015748031497
        },
        {
          "duration": 0.10000000000000142,
          "durationTicks": 24,
          "midi": 69,
          "name": "A4",
          "ticks": 8160,
          "time": 34,
          "velocity": 0.7874015748031497
        },
        {
          "duration": 0.10000000000000142,
          "durationTicks": 24,
          "midi": 40,
          "name": "E2",
          "ticks": 8160,
          "time": 34,
          "velocity": 0.8503937007874016
        },
        {
          "duration": 0.10000000000000142,
          "durationTicks": 24,
          "midi": 69,
          "name": "A4",
          "ticks": 8184,
          "time": 34.1,
          "velocity": 0.7874015748031497
        },
        {
          "duration": 0.10000000000000142,
          "durationTicks": 24,
          "midi": 42,
          "name": "F#2",
          "ticks": 8208,
          "time": 34.2,
          "velocity": 0.7874015748031497
        },
        {
          "duration": 0.10000000000000142,
          "durationTicks": 24,
          "midi": 36,
          "name": "C2",
          "ticks": 8208,
          "time": 34.2,
          "velocity": 0.968503937007874
        },
        {
          "duration": 0.10000000000000142,
          "durationTicks": 24,
          "midi": 69,
          "name": "A4",
          "ticks": 8208,
          "time": 34.2,
          "velocity": 0.7874015748031497
        },
        {
          "duration": 0.10000000000000142,
          "durationTicks": 24,
          "midi": 42,
          "name": "F#2",
          "ticks": 8256,
          "time": 34.4,
          "velocity": 0.7874015748031497
        },
        {
          "duration": 0.10000000000000142,
          "durationTicks": 24,
          "midi": 69,
          "name": "A4",
          "ticks": 8256,
          "time": 34.4,
          "velocity": 0.7874015748031497
        },
        {
          "duration": 0.10000000000000142,
          "durationTicks": 24,
          "midi": 69,
          "name": "A4",
          "ticks": 8280,
          "time": 34.5,
          "velocity": 0.7874015748031497
        },
        {
          "duration": 0.10000000000000142,
          "durationTicks": 24,
          "midi": 69,
          "name": "A4",
          "ticks": 8304,
          "time": 34.6,
          "velocity": 0.7874015748031497
        },
        {
          "duration": 0.10000000000000142,
          "durationTicks": 24,
          "midi": 36,
          "name": "C2",
          "ticks": 8304,
          "time": 34.6,
          "velocity": 0.968503937007874
        },
        {
          "duration": 0.10000000000000142,
          "durationTicks": 24,
          "midi": 42,
          "name": "F#2",
          "ticks": 8304,
          "time": 34.6,
          "velocity": 0.7874015748031497
        },
        {
          "duration": 0.09999999999999432,
          "durationTicks": 24,
          "midi": 40,
          "name": "E2",
          "ticks": 8352,
          "time": 34.800000000000004,
          "velocity": 0.8503937007874016
        },
        {
          "duration": 0.09999999999999432,
          "durationTicks": 24,
          "midi": 69,
          "name": "A4",
          "ticks": 8352,
          "time": 34.800000000000004,
          "velocity": 0.7874015748031497
        },
        {
          "duration": 0.09999999999999432,
          "durationTicks": 24,
          "midi": 42,
          "name": "F#2",
          "ticks": 8352,
          "time": 34.800000000000004,
          "velocity": 0.7874015748031497
        },
        {
          "duration": 0.10000000000000142,
          "durationTicks": 24,
          "midi": 69,
          "name": "A4",
          "ticks": 8376,
          "time": 34.9,
          "velocity": 0.7874015748031497
        },
        {
          "duration": 0.10000000000000142,
          "durationTicks": 24,
          "midi": 69,
          "name": "A4",
          "ticks": 8400,
          "time": 35,
          "velocity": 0.7874015748031497
        },
        {
          "duration": 0.10000000000000142,
          "durationTicks": 24,
          "midi": 42,
          "name": "F#2",
          "ticks": 8400,
          "time": 35,
          "velocity": 0.7874015748031497
        },
        {
          "duration": 0.10000000000000142,
          "durationTicks": 24,
          "midi": 36,
          "name": "C2",
          "ticks": 8448,
          "time": 35.2,
          "velocity": 0.968503937007874
        },
        {
          "duration": 0.10000000000000142,
          "durationTicks": 24,
          "midi": 69,
          "name": "A4",
          "ticks": 8448,
          "time": 35.2,
          "velocity": 0.7874015748031497
        },
        {
          "duration": 0.10000000000000142,
          "durationTicks": 24,
          "midi": 42,
          "name": "F#2",
          "ticks": 8448,
          "time": 35.2,
          "velocity": 0.7874015748031497
        },
        {
          "duration": 0.09999999999999432,
          "durationTicks": 24,
          "midi": 69,
          "name": "A4",
          "ticks": 8472,
          "time": 35.300000000000004,
          "velocity": 0.7874015748031497
        },
        {
          "duration": 0.10000000000000142,
          "durationTicks": 24,
          "midi": 69,
          "name": "A4",
          "ticks": 8496,
          "time": 35.4,
          "velocity": 0.7874015748031497
        },
        {
          "duration": 0.10000000000000142,
          "durationTicks": 24,
          "midi": 42,
          "name": "F#2",
          "ticks": 8496,
          "time": 35.4,
          "velocity": 0.7874015748031497
        },
        {
          "duration": 0.10000000000000142,
          "durationTicks": 24,
          "midi": 42,
          "name": "F#2",
          "ticks": 8544,
          "time": 35.6,
          "velocity": 0.7874015748031497
        },
        {
          "duration": 0.10000000000000142,
          "durationTicks": 24,
          "midi": 69,
          "name": "A4",
          "ticks": 8544,
          "time": 35.6,
          "velocity": 0.7874015748031497
        },
        {
          "duration": 0.10000000000000142,
          "durationTicks": 24,
          "midi": 40,
          "name": "E2",
          "ticks": 8544,
          "time": 35.6,
          "velocity": 0.8503937007874016
        },
        {
          "duration": 0.10000000000000142,
          "durationTicks": 24,
          "midi": 69,
          "name": "A4",
          "ticks": 8568,
          "time": 35.7,
          "velocity": 0.7874015748031497
        },
        {
          "duration": 0.09999999999999432,
          "durationTicks": 24,
          "midi": 69,
          "name": "A4",
          "ticks": 8592,
          "time": 35.800000000000004,
          "velocity": 0.7874015748031497
        },
        {
          "duration": 0.09999999999999432,
          "durationTicks": 24,
          "midi": 42,
          "name": "F#2",
          "ticks": 8592,
          "time": 35.800000000000004,
          "velocity": 0.7874015748031497
        },
        {
          "duration": 0.10000000000000142,
          "durationTicks": 24,
          "midi": 42,
          "name": "F#2",
          "ticks": 8640,
          "time": 36,
          "velocity": 0.7874015748031497
        },
        {
          "duration": 0.10000000000000142,
          "durationTicks": 24,
          "midi": 69,
          "name": "A4",
          "ticks": 8640,
          "time": 36,
          "velocity": 0.7874015748031497
        },
        {
          "duration": 0.10000000000000142,
          "durationTicks": 24,
          "midi": 36,
          "name": "C2",
          "ticks": 8640,
          "time": 36,
          "velocity": 0.968503937007874
        },
        {
          "duration": 0.10000000000000142,
          "durationTicks": 24,
          "midi": 69,
          "name": "A4",
          "ticks": 8664,
          "time": 36.1,
          "velocity": 0.7874015748031497
        },
        {
          "duration": 0.10000000000000142,
          "durationTicks": 24,
          "midi": 69,
          "name": "A4",
          "ticks": 8688,
          "time": 36.2,
          "velocity": 0.7874015748031497
        },
        {
          "duration": 0.10000000000000142,
          "durationTicks": 24,
          "midi": 42,
          "name": "F#2",
          "ticks": 8688,
          "time": 36.2,
          "velocity": 0.7874015748031497
        },
        {
          "duration": 0.10000000000000142,
          "durationTicks": 24,
          "midi": 42,
          "name": "F#2",
          "ticks": 8736,
          "time": 36.4,
          "velocity": 0.7874015748031497
        },
        {
          "duration": 0.10000000000000142,
          "durationTicks": 24,
          "midi": 69,
          "name": "A4",
          "ticks": 8736,
          "time": 36.4,
          "velocity": 0.7874015748031497
        },
        {
          "duration": 0.10000000000000142,
          "durationTicks": 24,
          "midi": 40,
          "name": "E2",
          "ticks": 8736,
          "time": 36.4,
          "velocity": 0.8503937007874016
        },
        {
          "duration": 0.10000000000000142,
          "durationTicks": 24,
          "midi": 69,
          "name": "A4",
          "ticks": 8760,
          "time": 36.5,
          "velocity": 0.7874015748031497
        },
        {
          "duration": 0.10000000000000142,
          "durationTicks": 24,
          "midi": 69,
          "name": "A4",
          "ticks": 8784,
          "time": 36.6,
          "velocity": 0.7874015748031497
        },
        {
          "duration": 0.10000000000000142,
          "durationTicks": 24,
          "midi": 42,
          "name": "F#2",
          "ticks": 8784,
          "time": 36.6,
          "velocity": 0.7874015748031497
        },
        {
          "duration": 0.09999999999999432,
          "durationTicks": 24,
          "midi": 36,
          "name": "C2",
          "ticks": 8832,
          "time": 36.800000000000004,
          "velocity": 0.968503937007874
        },
        {
          "duration": 0.09999999999999432,
          "durationTicks": 24,
          "midi": 69,
          "name": "A4",
          "ticks": 8832,
          "time": 36.800000000000004,
          "velocity": 0.7874015748031497
        },
        {
          "duration": 0.09999999999999432,
          "durationTicks": 24,
          "midi": 42,
          "name": "F#2",
          "ticks": 8832,
          "time": 36.800000000000004,
          "velocity": 0.7874015748031497
        },
        {
          "duration": 0.10000000000000142,
          "durationTicks": 24,
          "midi": 69,
          "name": "A4",
          "ticks": 8856,
          "time": 36.9,
          "velocity": 0.7874015748031497
        },
        {
          "duration": 0.10000000000000142,
          "durationTicks": 24,
          "midi": 69,
          "name": "A4",
          "ticks": 8880,
          "time": 37,
          "velocity": 0.7874015748031497
        },
        {
          "duration": 0.10000000000000142,
          "durationTicks": 24,
          "midi": 42,
          "name": "F#2",
          "ticks": 8880,
          "time": 37,
          "velocity": 0.7874015748031497
        },
        {
          "duration": 0.10000000000000142,
          "durationTicks": 24,
          "midi": 40,
          "name": "E2",
          "ticks": 8928,
          "time": 37.2,
          "velocity": 0.8503937007874016
        },
        {
          "duration": 0.10000000000000142,
          "durationTicks": 24,
          "midi": 69,
          "name": "A4",
          "ticks": 8928,
          "time": 37.2,
          "velocity": 0.7874015748031497
        },
        {
          "duration": 0.10000000000000142,
          "durationTicks": 24,
          "midi": 42,
          "name": "F#2",
          "ticks": 8928,
          "time": 37.2,
          "velocity": 0.7874015748031497
        },
        {
          "duration": 0.09999999999999432,
          "durationTicks": 24,
          "midi": 69,
          "name": "A4",
          "ticks": 8952,
          "time": 37.300000000000004,
          "velocity": 0.7874015748031497
        },
        {
          "duration": 0.10000000000000142,
          "durationTicks": 24,
          "midi": 69,
          "name": "A4",
          "ticks": 8976,
          "time": 37.4,
          "velocity": 0.7874015748031497
        },
        {
          "duration": 0.10000000000000142,
          "durationTicks": 24,
          "midi": 36,
          "name": "C2",
          "ticks": 8976,
          "time": 37.4,
          "velocity": 0.968503937007874
        },
        {
          "duration": 0.10000000000000142,
          "durationTicks": 24,
          "midi": 42,
          "name": "F#2",
          "ticks": 8976,
          "time": 37.4,
          "velocity": 0.7874015748031497
        },
        {
          "duration": 0.10000000000000142,
          "durationTicks": 24,
          "midi": 42,
          "name": "F#2",
          "ticks": 9024,
          "time": 37.6,
          "velocity": 0.7874015748031497
        },
        {
          "duration": 0.10000000000000142,
          "durationTicks": 24,
          "midi": 69,
          "name": "A4",
          "ticks": 9024,
          "time": 37.6,
          "velocity": 0.7874015748031497
        },
        {
          "duration": 0.10000000000000142,
          "durationTicks": 24,
          "midi": 69,
          "name": "A4",
          "ticks": 9048,
          "time": 37.7,
          "velocity": 0.7874015748031497
        },
        {
          "duration": 0.09999999999999432,
          "durationTicks": 24,
          "midi": 42,
          "name": "F#2",
          "ticks": 9072,
          "time": 37.800000000000004,
          "velocity": 0.7874015748031497
        },
        {
          "duration": 0.09999999999999432,
          "durationTicks": 24,
          "midi": 36,
          "name": "C2",
          "ticks": 9072,
          "time": 37.800000000000004,
          "velocity": 0.968503937007874
        },
        {
          "duration": 0.09999999999999432,
          "durationTicks": 24,
          "midi": 69,
          "name": "A4",
          "ticks": 9072,
          "time": 37.800000000000004,
          "velocity": 0.7874015748031497
        },
        {
          "duration": 0.10000000000000142,
          "durationTicks": 24,
          "midi": 40,
          "name": "E2",
          "ticks": 9120,
          "time": 38,
          "velocity": 0.8503937007874016
        },
        {
          "duration": 0.10000000000000142,
          "durationTicks": 24,
          "midi": 69,
          "name": "A4",
          "ticks": 9120,
          "time": 38,
          "velocity": 0.7874015748031497
        },
        {
          "duration": 0.10000000000000142,
          "durationTicks": 24,
          "midi": 42,
          "name": "F#2",
          "ticks": 9120,
          "time": 38,
          "velocity": 0.7874015748031497
        },
        {
          "duration": 0.10000000000000142,
          "durationTicks": 24,
          "midi": 69,
          "name": "A4",
          "ticks": 9144,
          "time": 38.1,
          "velocity": 0.7874015748031497
        },
        {
          "duration": 0.10000000000000142,
          "durationTicks": 24,
          "midi": 42,
          "name": "F#2",
          "ticks": 9168,
          "time": 38.2,
          "velocity": 0.7874015748031497
        },
        {
          "duration": 0.10000000000000142,
          "durationTicks": 24,
          "midi": 69,
          "name": "A4",
          "ticks": 9168,
          "time": 38.2,
          "velocity": 0.7874015748031497
        },
        {
          "duration": 0.09999999999999432,
          "durationTicks": 24,
          "midi": 42,
          "name": "F#2",
          "ticks": 9216,
          "time": 38.400000000000006,
          "velocity": 0.7874015748031497
        },
        {
          "duration": 0.09999999999999432,
          "durationTicks": 24,
          "midi": 36,
          "name": "C2",
          "ticks": 9216,
          "time": 38.400000000000006,
          "velocity": 0.968503937007874
        },
        {
          "duration": 0.09999999999999432,
          "durationTicks": 24,
          "midi": 69,
          "name": "A4",
          "ticks": 9216,
          "time": 38.400000000000006,
          "velocity": 0.7874015748031497
        },
        {
          "duration": 0.10000000000000142,
          "durationTicks": 24,
          "midi": 69,
          "name": "A4",
          "ticks": 9240,
          "time": 38.5,
          "velocity": 0.7874015748031497
        },
        {
          "duration": 0.10000000000000142,
          "durationTicks": 24,
          "midi": 69,
          "name": "A4",
          "ticks": 9264,
          "time": 38.6,
          "velocity": 0.7874015748031497
        },
        {
          "duration": 0.10000000000000142,
          "durationTicks": 24,
          "midi": 42,
          "name": "F#2",
          "ticks": 9264,
          "time": 38.6,
          "velocity": 0.7874015748031497
        },
        {
          "duration": 0.10000000000000142,
          "durationTicks": 24,
          "midi": 42,
          "name": "F#2",
          "ticks": 9312,
          "time": 38.800000000000004,
          "velocity": 0.7874015748031497
        },
        {
          "duration": 0.10000000000000142,
          "durationTicks": 24,
          "midi": 69,
          "name": "A4",
          "ticks": 9312,
          "time": 38.800000000000004,
          "velocity": 0.7874015748031497
        },
        {
          "duration": 0.10000000000000142,
          "durationTicks": 24,
          "midi": 40,
          "name": "E2",
          "ticks": 9312,
          "time": 38.800000000000004,
          "velocity": 0.8503937007874016
        },
        {
          "duration": 0.09999999999999432,
          "durationTicks": 24,
          "midi": 69,
          "name": "A4",
          "ticks": 9336,
          "time": 38.900000000000006,
          "velocity": 0.7874015748031497
        },
        {
          "duration": 0.10000000000000142,
          "durationTicks": 24,
          "midi": 69,
          "name": "A4",
          "ticks": 9360,
          "time": 39,
          "velocity": 0.7874015748031497
        },
        {
          "duration": 0.10000000000000142,
          "durationTicks": 24,
          "midi": 42,
          "name": "F#2",
          "ticks": 9360,
          "time": 39,
          "velocity": 0.7874015748031497
        },
        {
          "duration": 0.10000000000000142,
          "durationTicks": 24,
          "midi": 69,
          "name": "A4",
          "ticks": 9408,
          "time": 39.2,
          "velocity": 0.7874015748031497
        },
        {
          "duration": 0.10000000000000142,
          "durationTicks": 24,
          "midi": 36,
          "name": "C2",
          "ticks": 9408,
          "time": 39.2,
          "velocity": 0.968503937007874
        },
        {
          "duration": 0.10000000000000142,
          "durationTicks": 24,
          "midi": 42,
          "name": "F#2",
          "ticks": 9408,
          "time": 39.2,
          "velocity": 0.7874015748031497
        },
        {
          "duration": 0.10000000000000142,
          "durationTicks": 24,
          "midi": 69,
          "name": "A4",
          "ticks": 9432,
          "time": 39.300000000000004,
          "velocity": 0.7874015748031497
        },
        {
          "duration": 0.09999999999999432,
          "durationTicks": 24,
          "midi": 42,
          "name": "F#2",
          "ticks": 9456,
          "time": 39.400000000000006,
          "velocity": 0.7874015748031497
        },
        {
          "duration": 0.09999999999999432,
          "durationTicks": 24,
          "midi": 69,
          "name": "A4",
          "ticks": 9456,
          "time": 39.400000000000006,
          "velocity": 0.7874015748031497
        },
        {
          "duration": 0.10000000000000142,
          "durationTicks": 24,
          "midi": 40,
          "name": "E2",
          "ticks": 9504,
          "time": 39.6,
          "velocity": 0.8503937007874016
        },
        {
          "duration": 0.10000000000000142,
          "durationTicks": 24,
          "midi": 69,
          "name": "A4",
          "ticks": 9504,
          "time": 39.6,
          "velocity": 0.7874015748031497
        },
        {
          "duration": 0.10000000000000142,
          "durationTicks": 24,
          "midi": 42,
          "name": "F#2",
          "ticks": 9504,
          "time": 39.6,
          "velocity": 0.7874015748031497
        },
        {
          "duration": 0.10000000000000142,
          "durationTicks": 24,
          "midi": 69,
          "name": "A4",
          "ticks": 9528,
          "time": 39.7,
          "velocity": 0.7874015748031497
        },
        {
          "duration": 0.10000000000000142,
          "durationTicks": 24,
          "midi": 42,
          "name": "F#2",
          "ticks": 9552,
          "time": 39.800000000000004,
          "velocity": 0.7874015748031497
        },
        {
          "duration": 0.10000000000000142,
          "durationTicks": 24,
          "midi": 69,
          "name": "A4",
          "ticks": 9552,
          "time": 39.800000000000004,
          "velocity": 0.7874015748031497
        },
        {
          "duration": 0.10000000000000142,
          "durationTicks": 24,
          "midi": 69,
          "name": "A4",
          "ticks": 9600,
          "time": 40,
          "velocity": 0.7874015748031497
        },
        {
          "duration": 0.10000000000000142,
          "durationTicks": 24,
          "midi": 36,
          "name": "C2",
          "ticks": 9600,
          "time": 40,
          "velocity": 0.968503937007874
        },
        {
          "duration": 0.10000000000000142,
          "durationTicks": 24,
          "midi": 42,
          "name": "F#2",
          "ticks": 9600,
          "time": 40,
          "velocity": 0.7874015748031497
        },
        {
          "duration": 0.10000000000000142,
          "durationTicks": 24,
          "midi": 69,
          "name": "A4",
          "ticks": 9624,
          "time": 40.1,
          "velocity": 0.7874015748031497
        },
        {
          "duration": 0.10000000000000142,
          "durationTicks": 24,
          "midi": 42,
          "name": "F#2",
          "ticks": 9648,
          "time": 40.2,
          "velocity": 0.7874015748031497
        },
        {
          "duration": 0.10000000000000142,
          "durationTicks": 24,
          "midi": 69,
          "name": "A4",
          "ticks": 9648,
          "time": 40.2,
          "velocity": 0.7874015748031497
        },
        {
          "duration": 0.09999999999999432,
          "durationTicks": 24,
          "midi": 42,
          "name": "F#2",
          "ticks": 9696,
          "time": 40.400000000000006,
          "velocity": 0.7874015748031497
        },
        {
          "duration": 0.09999999999999432,
          "durationTicks": 24,
          "midi": 69,
          "name": "A4",
          "ticks": 9696,
          "time": 40.400000000000006,
          "velocity": 0.7874015748031497
        },
        {
          "duration": 0.09999999999999432,
          "durationTicks": 24,
          "midi": 40,
          "name": "E2",
          "ticks": 9696,
          "time": 40.400000000000006,
          "velocity": 0.8503937007874016
        },
        {
          "duration": 0.10000000000000142,
          "durationTicks": 24,
          "midi": 69,
          "name": "A4",
          "ticks": 9720,
          "time": 40.5,
          "velocity": 0.7874015748031497
        },
        {
          "duration": 0.10000000000000142,
          "durationTicks": 24,
          "midi": 42,
          "name": "F#2",
          "ticks": 9744,
          "time": 40.6,
          "velocity": 0.7874015748031497
        },
        {
          "duration": 0.10000000000000142,
          "durationTicks": 24,
          "midi": 36,
          "name": "C2",
          "ticks": 9744,
          "time": 40.6,
          "velocity": 0.968503937007874
        },
        {
          "duration": 0.10000000000000142,
          "durationTicks": 24,
          "midi": 69,
          "name": "A4",
          "ticks": 9744,
          "time": 40.6,
          "velocity": 0.7874015748031497
        },
        {
          "duration": 0.10000000000000142,
          "durationTicks": 24,
          "midi": 42,
          "name": "F#2",
          "ticks": 9792,
          "time": 40.800000000000004,
          "velocity": 0.7874015748031497
        },
        {
          "duration": 0.10000000000000142,
          "durationTicks": 24,
          "midi": 69,
          "name": "A4",
          "ticks": 9792,
          "time": 40.800000000000004,
          "velocity": 0.7874015748031497
        },
        {
          "duration": 0.09999999999999432,
          "durationTicks": 24,
          "midi": 69,
          "name": "A4",
          "ticks": 9816,
          "time": 40.900000000000006,
          "velocity": 0.7874015748031497
        },
        {
          "duration": 0.10000000000000142,
          "durationTicks": 24,
          "midi": 36,
          "name": "C2",
          "ticks": 9840,
          "time": 41,
          "velocity": 0.968503937007874
        },
        {
          "duration": 0.10000000000000142,
          "durationTicks": 24,
          "midi": 69,
          "name": "A4",
          "ticks": 9840,
          "time": 41,
          "velocity": 0.7874015748031497
        },
        {
          "duration": 0.10000000000000142,
          "durationTicks": 24,
          "midi": 42,
          "name": "F#2",
          "ticks": 9840,
          "time": 41,
          "velocity": 0.7874015748031497
        },
        {
          "duration": 0.10000000000000142,
          "durationTicks": 24,
          "midi": 40,
          "name": "E2",
          "ticks": 9888,
          "time": 41.2,
          "velocity": 0.8503937007874016
        },
        {
          "duration": 0.10000000000000142,
          "durationTicks": 24,
          "midi": 69,
          "name": "A4",
          "ticks": 9888,
          "time": 41.2,
          "velocity": 0.7874015748031497
        },
        {
          "duration": 0.10000000000000142,
          "durationTicks": 24,
          "midi": 42,
          "name": "F#2",
          "ticks": 9888,
          "time": 41.2,
          "velocity": 0.7874015748031497
        },
        {
          "duration": 0.10000000000000142,
          "durationTicks": 24,
          "midi": 69,
          "name": "A4",
          "ticks": 9912,
          "time": 41.300000000000004,
          "velocity": 0.7874015748031497
        },
        {
          "duration": 0.09999999999999432,
          "durationTicks": 24,
          "midi": 69,
          "name": "A4",
          "ticks": 9936,
          "time": 41.400000000000006,
          "velocity": 0.7874015748031497
        },
        {
          "duration": 0.09999999999999432,
          "durationTicks": 24,
          "midi": 42,
          "name": "F#2",
          "ticks": 9936,
          "time": 41.400000000000006,
          "velocity": 0.7874015748031497
        },
        {
          "duration": 0.10000000000000142,
          "durationTicks": 24,
          "midi": 36,
          "name": "C2",
          "ticks": 9984,
          "time": 41.6,
          "velocity": 0.968503937007874
        },
        {
          "duration": 0.10000000000000142,
          "durationTicks": 24,
          "midi": 69,
          "name": "A4",
          "ticks": 9984,
          "time": 41.6,
          "velocity": 0.7874015748031497
        },
        {
          "duration": 0.10000000000000142,
          "durationTicks": 24,
          "midi": 42,
          "name": "F#2",
          "ticks": 9984,
          "time": 41.6,
          "velocity": 0.7874015748031497
        },
        {
          "duration": 0.10000000000000142,
          "durationTicks": 24,
          "midi": 69,
          "name": "A4",
          "ticks": 10008,
          "time": 41.7,
          "velocity": 0.7874015748031497
        },
        {
          "duration": 0.10000000000000142,
          "durationTicks": 24,
          "midi": 69,
          "name": "A4",
          "ticks": 10032,
          "time": 41.800000000000004,
          "velocity": 0.7874015748031497
        },
        {
          "duration": 0.10000000000000142,
          "durationTicks": 24,
          "midi": 42,
          "name": "F#2",
          "ticks": 10032,
          "time": 41.800000000000004,
          "velocity": 0.7874015748031497
        },
        {
          "duration": 0.10000000000000142,
          "durationTicks": 24,
          "midi": 40,
          "name": "E2",
          "ticks": 10080,
          "time": 42,
          "velocity": 0.8503937007874016
        },
        {
          "duration": 0.10000000000000142,
          "durationTicks": 24,
          "midi": 69,
          "name": "A4",
          "ticks": 10080,
          "time": 42,
          "velocity": 0.7874015748031497
        },
        {
          "duration": 0.10000000000000142,
          "durationTicks": 24,
          "midi": 42,
          "name": "F#2",
          "ticks": 10080,
          "time": 42,
          "velocity": 0.7874015748031497
        },
        {
          "duration": 0.10000000000000142,
          "durationTicks": 24,
          "midi": 69,
          "name": "A4",
          "ticks": 10104,
          "time": 42.1,
          "velocity": 0.7874015748031497
        },
        {
          "duration": 0.10000000000000142,
          "durationTicks": 24,
          "midi": 69,
          "name": "A4",
          "ticks": 10128,
          "time": 42.2,
          "velocity": 0.7874015748031497
        },
        {
          "duration": 0.10000000000000142,
          "durationTicks": 24,
          "midi": 42,
          "name": "F#2",
          "ticks": 10128,
          "time": 42.2,
          "velocity": 0.7874015748031497
        },
        {
          "duration": 0.09999999999999432,
          "durationTicks": 24,
          "midi": 42,
          "name": "F#2",
          "ticks": 10176,
          "time": 42.400000000000006,
          "velocity": 0.7874015748031497
        },
        {
          "duration": 0.09999999999999432,
          "durationTicks": 24,
          "midi": 36,
          "name": "C2",
          "ticks": 10176,
          "time": 42.400000000000006,
          "velocity": 0.968503937007874
        },
        {
          "duration": 0.09999999999999432,
          "durationTicks": 24,
          "midi": 69,
          "name": "A4",
          "ticks": 10176,
          "time": 42.400000000000006,
          "velocity": 0.7874015748031497
        },
        {
          "duration": 0.10000000000000142,
          "durationTicks": 24,
          "midi": 69,
          "name": "A4",
          "ticks": 10200,
          "time": 42.5,
          "velocity": 0.7874015748031497
        },
        {
          "duration": 0.10000000000000142,
          "durationTicks": 24,
          "midi": 42,
          "name": "F#2",
          "ticks": 10224,
          "time": 42.6,
          "velocity": 0.7874015748031497
        },
        {
          "duration": 0.10000000000000142,
          "durationTicks": 24,
          "midi": 69,
          "name": "A4",
          "ticks": 10224,
          "time": 42.6,
          "velocity": 0.7874015748031497
        },
        {
          "duration": 0.10000000000000142,
          "durationTicks": 24,
          "midi": 42,
          "name": "F#2",
          "ticks": 10272,
          "time": 42.800000000000004,
          "velocity": 0.7874015748031497
        },
        {
          "duration": 0.10000000000000142,
          "durationTicks": 24,
          "midi": 69,
          "name": "A4",
          "ticks": 10272,
          "time": 42.800000000000004,
          "velocity": 0.7874015748031497
        },
        {
          "duration": 0.10000000000000142,
          "durationTicks": 24,
          "midi": 40,
          "name": "E2",
          "ticks": 10272,
          "time": 42.800000000000004,
          "velocity": 0.8503937007874016
        },
        {
          "duration": 0.09999999999999432,
          "durationTicks": 24,
          "midi": 69,
          "name": "A4",
          "ticks": 10296,
          "time": 42.900000000000006,
          "velocity": 0.7874015748031497
        },
        {
          "duration": 0.10000000000000142,
          "durationTicks": 24,
          "midi": 69,
          "name": "A4",
          "ticks": 10320,
          "time": 43,
          "velocity": 0.7874015748031497
        },
        {
          "duration": 0.10000000000000142,
          "durationTicks": 24,
          "midi": 42,
          "name": "F#2",
          "ticks": 10320,
          "time": 43,
          "velocity": 0.7874015748031497
        },
        {
          "duration": 0.10000000000000142,
          "durationTicks": 24,
          "midi": 36,
          "name": "C2",
          "ticks": 10368,
          "time": 43.2,
          "velocity": 0.968503937007874
        },
        {
          "duration": 0.10000000000000142,
          "durationTicks": 24,
          "midi": 69,
          "name": "A4",
          "ticks": 10368,
          "time": 43.2,
          "velocity": 0.7874015748031497
        },
        {
          "duration": 0.10000000000000142,
          "durationTicks": 24,
          "midi": 42,
          "name": "F#2",
          "ticks": 10368,
          "time": 43.2,
          "velocity": 0.7874015748031497
        },
        {
          "duration": 0.10000000000000142,
          "durationTicks": 24,
          "midi": 69,
          "name": "A4",
          "ticks": 10392,
          "time": 43.300000000000004,
          "velocity": 0.7874015748031497
        },
        {
          "duration": 0.09999999999999432,
          "durationTicks": 24,
          "midi": 69,
          "name": "A4",
          "ticks": 10416,
          "time": 43.400000000000006,
          "velocity": 0.7874015748031497
        },
        {
          "duration": 0.09999999999999432,
          "durationTicks": 24,
          "midi": 42,
          "name": "F#2",
          "ticks": 10416,
          "time": 43.400000000000006,
          "velocity": 0.7874015748031497
        },
        {
          "duration": 0.10000000000000142,
          "durationTicks": 24,
          "midi": 42,
          "name": "F#2",
          "ticks": 10464,
          "time": 43.6,
          "velocity": 0.7874015748031497
        },
        {
          "duration": 0.10000000000000142,
          "durationTicks": 24,
          "midi": 40,
          "name": "E2",
          "ticks": 10464,
          "time": 43.6,
          "velocity": 0.8503937007874016
        },
        {
          "duration": 0.10000000000000142,
          "durationTicks": 24,
          "midi": 69,
          "name": "A4",
          "ticks": 10464,
          "time": 43.6,
          "velocity": 0.7874015748031497
        },
        {
          "duration": 0.10000000000000142,
          "durationTicks": 24,
          "midi": 69,
          "name": "A4",
          "ticks": 10488,
          "time": 43.7,
          "velocity": 0.7874015748031497
        },
        {
          "duration": 0.10000000000000142,
          "durationTicks": 24,
          "midi": 42,
          "name": "F#2",
          "ticks": 10512,
          "time": 43.800000000000004,
          "velocity": 0.7874015748031497
        },
        {
          "duration": 0.10000000000000142,
          "durationTicks": 24,
          "midi": 36,
          "name": "C2",
          "ticks": 10512,
          "time": 43.800000000000004,
          "velocity": 0.968503937007874
        },
        {
          "duration": 0.10000000000000142,
          "durationTicks": 24,
          "midi": 69,
          "name": "A4",
          "ticks": 10512,
          "time": 43.800000000000004,
          "velocity": 0.7874015748031497
        },
        {
          "duration": 0.10000000000000142,
          "durationTicks": 24,
          "midi": 69,
          "name": "A4",
          "ticks": 10560,
          "time": 44,
          "velocity": 0.7874015748031497
        },
        {
          "duration": 0.10000000000000142,
          "durationTicks": 24,
          "midi": 42,
          "name": "F#2",
          "ticks": 10560,
          "time": 44,
          "velocity": 0.7874015748031497
        },
        {
          "duration": 0.10000000000000142,
          "durationTicks": 24,
          "midi": 69,
          "name": "A4",
          "ticks": 10584,
          "time": 44.1,
          "velocity": 0.7874015748031497
        },
        {
          "duration": 0.10000000000000142,
          "durationTicks": 24,
          "midi": 41,
          "name": "F2",
          "ticks": 10608,
          "time": 44.2,
          "velocity": 0.968503937007874
        },
        {
          "duration": 0.10000000000000142,
          "durationTicks": 24,
          "midi": 69,
          "name": "A4",
          "ticks": 10608,
          "time": 44.2,
          "velocity": 0.7874015748031497
        },
        {
          "duration": 0.09999999999999432,
          "durationTicks": 24,
          "midi": 69,
          "name": "A4",
          "ticks": 10656,
          "time": 44.400000000000006,
          "velocity": 0.7874015748031497
        },
        {
          "duration": 0.09999999999999432,
          "durationTicks": 24,
          "midi": 40,
          "name": "E2",
          "ticks": 10656,
          "time": 44.400000000000006,
          "velocity": 0.8503937007874016
        },
        {
          "duration": 0.10000000000000142,
          "durationTicks": 24,
          "midi": 69,
          "name": "A4",
          "ticks": 10680,
          "time": 44.5,
          "velocity": 0.7874015748031497
        },
        {
          "duration": 0.10000000000000142,
          "durationTicks": 24,
          "midi": 41,
          "name": "F2",
          "ticks": 10704,
          "time": 44.6,
          "velocity": 0.968503937007874
        },
        {
          "duration": 0.10000000000000142,
          "durationTicks": 24,
          "midi": 69,
          "name": "A4",
          "ticks": 10704,
          "time": 44.6,
          "velocity": 0.7874015748031497
        },
        {
          "duration": 0.10000000000000142,
          "durationTicks": 24,
          "midi": 42,
          "name": "F#2",
          "ticks": 10752,
          "time": 44.800000000000004,
          "velocity": 0.7874015748031497
        },
        {
          "duration": 0.10000000000000142,
          "durationTicks": 24,
          "midi": 69,
          "name": "A4",
          "ticks": 10752,
          "time": 44.800000000000004,
          "velocity": 0.7874015748031497
        },
        {
          "duration": 0.10000000000000142,
          "durationTicks": 24,
          "midi": 49,
          "name": "C#3",
          "ticks": 10752,
          "time": 44.800000000000004,
          "velocity": 0.968503937007874
        },
        {
          "duration": 0.10000000000000142,
          "durationTicks": 24,
          "midi": 36,
          "name": "C2",
          "ticks": 10752,
          "time": 44.800000000000004,
          "velocity": 0.968503937007874
        },
        {
          "duration": 0.09999999999999432,
          "durationTicks": 24,
          "midi": 69,
          "name": "A4",
          "ticks": 10776,
          "time": 44.900000000000006,
          "velocity": 0.7874015748031497
        },
        {
          "duration": 0.10000000000000142,
          "durationTicks": 24,
          "midi": 69,
          "name": "A4",
          "ticks": 10800,
          "time": 45,
          "velocity": 0.7874015748031497
        },
        {
          "duration": 0.10000000000000142,
          "durationTicks": 24,
          "midi": 42,
          "name": "F#2",
          "ticks": 10800,
          "time": 45,
          "velocity": 0.7874015748031497
        },
        {
          "duration": 0.10000000000000142,
          "durationTicks": 24,
          "midi": 69,
          "name": "A4",
          "ticks": 10848,
          "time": 45.2,
          "velocity": 0.7874015748031497
        },
        {
          "duration": 0.10000000000000142,
          "durationTicks": 24,
          "midi": 40,
          "name": "E2",
          "ticks": 10848,
          "time": 45.2,
          "velocity": 0.8503937007874016
        },
        {
          "duration": 0.10000000000000142,
          "durationTicks": 24,
          "midi": 42,
          "name": "F#2",
          "ticks": 10848,
          "time": 45.2,
          "velocity": 0.7874015748031497
        },
        {
          "duration": 0.10000000000000142,
          "durationTicks": 24,
          "midi": 69,
          "name": "A4",
          "ticks": 10872,
          "time": 45.300000000000004,
          "velocity": 0.7874015748031497
        },
        {
          "duration": 0.09999999999999432,
          "durationTicks": 24,
          "midi": 69,
          "name": "A4",
          "ticks": 10896,
          "time": 45.400000000000006,
          "velocity": 0.7874015748031497
        },
        {
          "duration": 0.09999999999999432,
          "durationTicks": 24,
          "midi": 42,
          "name": "F#2",
          "ticks": 10896,
          "time": 45.400000000000006,
          "velocity": 0.7874015748031497
        },
        {
          "duration": 0.10000000000000142,
          "durationTicks": 24,
          "midi": 42,
          "name": "F#2",
          "ticks": 10944,
          "time": 45.6,
          "velocity": 0.7874015748031497
        },
        {
          "duration": 0.10000000000000142,
          "durationTicks": 24,
          "midi": 36,
          "name": "C2",
          "ticks": 10944,
          "time": 45.6,
          "velocity": 0.968503937007874
        },
        {
          "duration": 0.10000000000000142,
          "durationTicks": 24,
          "midi": 69,
          "name": "A4",
          "ticks": 10944,
          "time": 45.6,
          "velocity": 0.7874015748031497
        },
        {
          "duration": 0.10000000000000142,
          "durationTicks": 24,
          "midi": 69,
          "name": "A4",
          "ticks": 10968,
          "time": 45.7,
          "velocity": 0.7874015748031497
        },
        {
          "duration": 0.10000000000000142,
          "durationTicks": 24,
          "midi": 69,
          "name": "A4",
          "ticks": 10992,
          "time": 45.800000000000004,
          "velocity": 0.7874015748031497
        },
        {
          "duration": 0.10000000000000142,
          "durationTicks": 24,
          "midi": 42,
          "name": "F#2",
          "ticks": 10992,
          "time": 45.800000000000004,
          "velocity": 0.7874015748031497
        },
        {
          "duration": 0.10000000000000142,
          "durationTicks": 24,
          "midi": 69,
          "name": "A4",
          "ticks": 11040,
          "time": 46,
          "velocity": 0.7874015748031497
        },
        {
          "duration": 0.10000000000000142,
          "durationTicks": 24,
          "midi": 40,
          "name": "E2",
          "ticks": 11040,
          "time": 46,
          "velocity": 0.8503937007874016
        },
        {
          "duration": 0.10000000000000142,
          "durationTicks": 24,
          "midi": 42,
          "name": "F#2",
          "ticks": 11040,
          "time": 46,
          "velocity": 0.7874015748031497
        },
        {
          "duration": 0.10000000000000142,
          "durationTicks": 24,
          "midi": 69,
          "name": "A4",
          "ticks": 11064,
          "time": 46.1,
          "velocity": 0.7874015748031497
        },
        {
          "duration": 0.10000000000000142,
          "durationTicks": 24,
          "midi": 69,
          "name": "A4",
          "ticks": 11088,
          "time": 46.2,
          "velocity": 0.7874015748031497
        },
        {
          "duration": 0.10000000000000142,
          "durationTicks": 24,
          "midi": 42,
          "name": "F#2",
          "ticks": 11088,
          "time": 46.2,
          "velocity": 0.7874015748031497
        },
        {
          "duration": 0.09999999999999432,
          "durationTicks": 24,
          "midi": 69,
          "name": "A4",
          "ticks": 11136,
          "time": 46.400000000000006,
          "velocity": 0.7874015748031497
        },
        {
          "duration": 0.09999999999999432,
          "durationTicks": 24,
          "midi": 36,
          "name": "C2",
          "ticks": 11136,
          "time": 46.400000000000006,
          "velocity": 0.968503937007874
        },
        {
          "duration": 0.09999999999999432,
          "durationTicks": 24,
          "midi": 42,
          "name": "F#2",
          "ticks": 11136,
          "time": 46.400000000000006,
          "velocity": 0.7874015748031497
        },
        {
          "duration": 0.10000000000000142,
          "durationTicks": 24,
          "midi": 69,
          "name": "A4",
          "ticks": 11160,
          "time": 46.5,
          "velocity": 0.7874015748031497
        },
        {
          "duration": 0.10000000000000142,
          "durationTicks": 24,
          "midi": 69,
          "name": "A4",
          "ticks": 11184,
          "time": 46.6,
          "velocity": 0.7874015748031497
        },
        {
          "duration": 0.10000000000000142,
          "durationTicks": 24,
          "midi": 42,
          "name": "F#2",
          "ticks": 11184,
          "time": 46.6,
          "velocity": 0.7874015748031497
        },
        {
          "duration": 0.10000000000000142,
          "durationTicks": 24,
          "midi": 42,
          "name": "F#2",
          "ticks": 11232,
          "time": 46.800000000000004,
          "velocity": 0.7874015748031497
        },
        {
          "duration": 0.10000000000000142,
          "durationTicks": 24,
          "midi": 40,
          "name": "E2",
          "ticks": 11232,
          "time": 46.800000000000004,
          "velocity": 0.8503937007874016
        },
        {
          "duration": 0.10000000000000142,
          "durationTicks": 24,
          "midi": 69,
          "name": "A4",
          "ticks": 11232,
          "time": 46.800000000000004,
          "velocity": 0.7874015748031497
        },
        {
          "duration": 0.09999999999999432,
          "durationTicks": 24,
          "midi": 69,
          "name": "A4",
          "ticks": 11256,
          "time": 46.900000000000006,
          "velocity": 0.7874015748031497
        },
        {
          "duration": 0.10000000000000142,
          "durationTicks": 24,
          "midi": 69,
          "name": "A4",
          "ticks": 11280,
          "time": 47,
          "velocity": 0.7874015748031497
        },
        {
          "duration": 0.10000000000000142,
          "durationTicks": 24,
          "midi": 42,
          "name": "F#2",
          "ticks": 11280,
          "time": 47,
          "velocity": 0.7874015748031497
        },
        {
          "duration": 0.10000000000000142,
          "durationTicks": 24,
          "midi": 42,
          "name": "F#2",
          "ticks": 11328,
          "time": 47.2,
          "velocity": 0.7874015748031497
        },
        {
          "duration": 0.10000000000000142,
          "durationTicks": 24,
          "midi": 36,
          "name": "C2",
          "ticks": 11328,
          "time": 47.2,
          "velocity": 0.968503937007874
        },
        {
          "duration": 0.10000000000000142,
          "durationTicks": 24,
          "midi": 69,
          "name": "A4",
          "ticks": 11328,
          "time": 47.2,
          "velocity": 0.7874015748031497
        },
        {
          "duration": 0.10000000000000142,
          "durationTicks": 24,
          "midi": 69,
          "name": "A4",
          "ticks": 11352,
          "time": 47.300000000000004,
          "velocity": 0.7874015748031497
        },
        {
          "duration": 0.09999999999999432,
          "durationTicks": 24,
          "midi": 42,
          "name": "F#2",
          "ticks": 11376,
          "time": 47.400000000000006,
          "velocity": 0.7874015748031497
        },
        {
          "duration": 0.09999999999999432,
          "durationTicks": 24,
          "midi": 36,
          "name": "C2",
          "ticks": 11376,
          "time": 47.400000000000006,
          "velocity": 0.968503937007874
        },
        {
          "duration": 0.09999999999999432,
          "durationTicks": 24,
          "midi": 69,
          "name": "A4",
          "ticks": 11376,
          "time": 47.400000000000006,
          "velocity": 0.7874015748031497
        },
        {
          "duration": 0.10000000000000142,
          "durationTicks": 24,
          "midi": 69,
          "name": "A4",
          "ticks": 11424,
          "time": 47.6,
          "velocity": 0.7874015748031497
        },
        {
          "duration": 0.10000000000000142,
          "durationTicks": 24,
          "midi": 40,
          "name": "E2",
          "ticks": 11424,
          "time": 47.6,
          "velocity": 0.8503937007874016
        },
        {
          "duration": 0.10000000000000142,
          "durationTicks": 24,
          "midi": 42,
          "name": "F#2",
          "ticks": 11424,
          "time": 47.6,
          "velocity": 0.7874015748031497
        },
        {
          "duration": 0.10000000000000142,
          "durationTicks": 24,
          "midi": 69,
          "name": "A4",
          "ticks": 11448,
          "time": 47.7,
          "velocity": 0.7874015748031497
        },
        {
          "duration": 0.10000000000000142,
          "durationTicks": 24,
          "midi": 42,
          "name": "F#2",
          "ticks": 11472,
          "time": 47.800000000000004,
          "velocity": 0.7874015748031497
        },
        {
          "duration": 0.10000000000000142,
          "durationTicks": 24,
          "midi": 69,
          "name": "A4",
          "ticks": 11472,
          "time": 47.800000000000004,
          "velocity": 0.7874015748031497
        },
        {
          "duration": 0.10000000000000142,
          "durationTicks": 24,
          "midi": 69,
          "name": "A4",
          "ticks": 11520,
          "time": 48,
          "velocity": 0.7874015748031497
        },
        {
          "duration": 0.10000000000000142,
          "durationTicks": 24,
          "midi": 36,
          "name": "C2",
          "ticks": 11520,
          "time": 48,
          "velocity": 0.968503937007874
        },
        {
          "duration": 0.10000000000000142,
          "durationTicks": 24,
          "midi": 42,
          "name": "F#2",
          "ticks": 11520,
          "time": 48,
          "velocity": 0.7874015748031497
        },
        {
          "duration": 0.10000000000000142,
          "durationTicks": 24,
          "midi": 69,
          "name": "A4",
          "ticks": 11544,
          "time": 48.1,
          "velocity": 0.7874015748031497
        },
        {
          "duration": 0.10000000000000142,
          "durationTicks": 24,
          "midi": 42,
          "name": "F#2",
          "ticks": 11568,
          "time": 48.2,
          "velocity": 0.7874015748031497
        },
        {
          "duration": 0.10000000000000142,
          "durationTicks": 24,
          "midi": 69,
          "name": "A4",
          "ticks": 11568,
          "time": 48.2,
          "velocity": 0.7874015748031497
        },
        {
          "duration": 0.09999999999999432,
          "durationTicks": 24,
          "midi": 69,
          "name": "A4",
          "ticks": 11616,
          "time": 48.400000000000006,
          "velocity": 0.7874015748031497
        },
        {
          "duration": 0.09999999999999432,
          "durationTicks": 24,
          "midi": 40,
          "name": "E2",
          "ticks": 11616,
          "time": 48.400000000000006,
          "velocity": 0.8503937007874016
        },
        {
          "duration": 0.09999999999999432,
          "durationTicks": 24,
          "midi": 42,
          "name": "F#2",
          "ticks": 11616,
          "time": 48.400000000000006,
          "velocity": 0.7874015748031497
        },
        {
          "duration": 0.10000000000000142,
          "durationTicks": 24,
          "midi": 69,
          "name": "A4",
          "ticks": 11640,
          "time": 48.5,
          "velocity": 0.7874015748031497
        },
        {
          "duration": 0.10000000000000142,
          "durationTicks": 24,
          "midi": 69,
          "name": "A4",
          "ticks": 11664,
          "time": 48.6,
          "velocity": 0.7874015748031497
        },
        {
          "duration": 0.10000000000000142,
          "durationTicks": 24,
          "midi": 42,
          "name": "F#2",
          "ticks": 11664,
          "time": 48.6,
          "velocity": 0.7874015748031497
        },
        {
          "duration": 0.10000000000000142,
          "durationTicks": 24,
          "midi": 69,
          "name": "A4",
          "ticks": 11712,
          "time": 48.800000000000004,
          "velocity": 0.7874015748031497
        },
        {
          "duration": 0.10000000000000142,
          "durationTicks": 24,
          "midi": 36,
          "name": "C2",
          "ticks": 11712,
          "time": 48.800000000000004,
          "velocity": 0.968503937007874
        },
        {
          "duration": 0.10000000000000142,
          "durationTicks": 24,
          "midi": 42,
          "name": "F#2",
          "ticks": 11712,
          "time": 48.800000000000004,
          "velocity": 0.7874015748031497
        },
        {
          "duration": 0.09999999999999432,
          "durationTicks": 24,
          "midi": 69,
          "name": "A4",
          "ticks": 11736,
          "time": 48.900000000000006,
          "velocity": 0.7874015748031497
        },
        {
          "duration": 0.10000000000000142,
          "durationTicks": 24,
          "midi": 69,
          "name": "A4",
          "ticks": 11760,
          "time": 49,
          "velocity": 0.7874015748031497
        },
        {
          "duration": 0.10000000000000142,
          "durationTicks": 24,
          "midi": 42,
          "name": "F#2",
          "ticks": 11760,
          "time": 49,
          "velocity": 0.7874015748031497
        },
        {
          "duration": 0.10000000000000142,
          "durationTicks": 24,
          "midi": 42,
          "name": "F#2",
          "ticks": 11808,
          "time": 49.2,
          "velocity": 0.7874015748031497
        },
        {
          "duration": 0.10000000000000142,
          "durationTicks": 24,
          "midi": 40,
          "name": "E2",
          "ticks": 11808,
          "time": 49.2,
          "velocity": 0.8503937007874016
        },
        {
          "duration": 0.10000000000000142,
          "durationTicks": 24,
          "midi": 69,
          "name": "A4",
          "ticks": 11808,
          "time": 49.2,
          "velocity": 0.7874015748031497
        },
        {
          "duration": 0.10000000000000142,
          "durationTicks": 24,
          "midi": 69,
          "name": "A4",
          "ticks": 11832,
          "time": 49.300000000000004,
          "velocity": 0.7874015748031497
        },
        {
          "duration": 0.09999999999999432,
          "durationTicks": 24,
          "midi": 69,
          "name": "A4",
          "ticks": 11856,
          "time": 49.400000000000006,
          "velocity": 0.7874015748031497
        },
        {
          "duration": 0.09999999999999432,
          "durationTicks": 24,
          "midi": 42,
          "name": "F#2",
          "ticks": 11856,
          "time": 49.400000000000006,
          "velocity": 0.7874015748031497
        },
        {
          "duration": 0.10000000000000142,
          "durationTicks": 24,
          "midi": 42,
          "name": "F#2",
          "ticks": 11904,
          "time": 49.6,
          "velocity": 0.7874015748031497
        },
        {
          "duration": 0.10000000000000142,
          "durationTicks": 24,
          "midi": 36,
          "name": "C2",
          "ticks": 11904,
          "time": 49.6,
          "velocity": 0.968503937007874
        },
        {
          "duration": 0.10000000000000142,
          "durationTicks": 24,
          "midi": 69,
          "name": "A4",
          "ticks": 11904,
          "time": 49.6,
          "velocity": 0.7874015748031497
        },
        {
          "duration": 0.10000000000000142,
          "durationTicks": 24,
          "midi": 69,
          "name": "A4",
          "ticks": 11928,
          "time": 49.7,
          "velocity": 0.7874015748031497
        },
        {
          "duration": 0.10000000000000142,
          "durationTicks": 24,
          "midi": 42,
          "name": "F#2",
          "ticks": 11952,
          "time": 49.800000000000004,
          "velocity": 0.7874015748031497
        },
        {
          "duration": 0.10000000000000142,
          "durationTicks": 24,
          "midi": 69,
          "name": "A4",
          "ticks": 11952,
          "time": 49.800000000000004,
          "velocity": 0.7874015748031497
        },
        {
          "duration": 0.10000000000000142,
          "durationTicks": 24,
          "midi": 42,
          "name": "F#2",
          "ticks": 12000,
          "time": 50,
          "velocity": 0.7874015748031497
        },
        {
          "duration": 0.10000000000000142,
          "durationTicks": 24,
          "midi": 40,
          "name": "E2",
          "ticks": 12000,
          "time": 50,
          "velocity": 0.8503937007874016
        },
        {
          "duration": 0.10000000000000142,
          "durationTicks": 24,
          "midi": 69,
          "name": "A4",
          "ticks": 12000,
          "time": 50,
          "velocity": 0.7874015748031497
        },
        {
          "duration": 0.10000000000000142,
          "durationTicks": 24,
          "midi": 69,
          "name": "A4",
          "ticks": 12024,
          "time": 50.1,
          "velocity": 0.7874015748031497
        },
        {
          "duration": 0.10000000000000142,
          "durationTicks": 24,
          "midi": 42,
          "name": "F#2",
          "ticks": 12048,
          "time": 50.2,
          "velocity": 0.7874015748031497
        },
        {
          "duration": 0.10000000000000142,
          "durationTicks": 24,
          "midi": 69,
          "name": "A4",
          "ticks": 12048,
          "time": 50.2,
          "velocity": 0.7874015748031497
        },
        {
          "duration": 0.09999999999999432,
          "durationTicks": 24,
          "midi": 69,
          "name": "A4",
          "ticks": 12096,
          "time": 50.400000000000006,
          "velocity": 0.7874015748031497
        },
        {
          "duration": 0.09999999999999432,
          "durationTicks": 24,
          "midi": 36,
          "name": "C2",
          "ticks": 12096,
          "time": 50.400000000000006,
          "velocity": 0.968503937007874
        },
        {
          "duration": 0.09999999999999432,
          "durationTicks": 24,
          "midi": 42,
          "name": "F#2",
          "ticks": 12096,
          "time": 50.400000000000006,
          "velocity": 0.7874015748031497
        },
        {
          "duration": 0.10000000000000142,
          "durationTicks": 24,
          "midi": 69,
          "name": "A4",
          "ticks": 12120,
          "time": 50.5,
          "velocity": 0.7874015748031497
        },
        {
          "duration": 0.10000000000000142,
          "durationTicks": 24,
          "midi": 42,
          "name": "F#2",
          "ticks": 12144,
          "time": 50.6,
          "velocity": 0.7874015748031497
        },
        {
          "duration": 0.10000000000000142,
          "durationTicks": 24,
          "midi": 36,
          "name": "C2",
          "ticks": 12144,
          "time": 50.6,
          "velocity": 0.968503937007874
        },
        {
          "duration": 0.10000000000000142,
          "durationTicks": 24,
          "midi": 69,
          "name": "A4",
          "ticks": 12144,
          "time": 50.6,
          "velocity": 0.7874015748031497
        },
        {
          "duration": 0.10000000000000142,
          "durationTicks": 24,
          "midi": 69,
          "name": "A4",
          "ticks": 12192,
          "time": 50.800000000000004,
          "velocity": 0.7874015748031497
        },
        {
          "duration": 0.10000000000000142,
          "durationTicks": 24,
          "midi": 40,
          "name": "E2",
          "ticks": 12192,
          "time": 50.800000000000004,
          "velocity": 0.8503937007874016
        },
        {
          "duration": 0.10000000000000142,
          "durationTicks": 24,
          "midi": 42,
          "name": "F#2",
          "ticks": 12192,
          "time": 50.800000000000004,
          "velocity": 0.7874015748031497
        },
        {
          "duration": 0.09999999999999432,
          "durationTicks": 24,
          "midi": 69,
          "name": "A4",
          "ticks": 12216,
          "time": 50.900000000000006,
          "velocity": 0.7874015748031497
        },
        {
          "duration": 0.10000000000000142,
          "durationTicks": 24,
          "midi": 69,
          "name": "A4",
          "ticks": 12240,
          "time": 51,
          "velocity": 0.7874015748031497
        },
        {
          "duration": 0.10000000000000142,
          "durationTicks": 24,
          "midi": 42,
          "name": "F#2",
          "ticks": 12240,
          "time": 51,
          "velocity": 0.7874015748031497
        },
        {
          "duration": 0.10000000000000142,
          "durationTicks": 24,
          "midi": 69,
          "name": "A4",
          "ticks": 12288,
          "time": 51.2,
          "velocity": 0.7874015748031497
        },
        {
          "duration": 0.10000000000000142,
          "durationTicks": 24,
          "midi": 36,
          "name": "C2",
          "ticks": 12288,
          "time": 51.2,
          "velocity": 0.968503937007874
        },
        {
          "duration": 0.10000000000000142,
          "durationTicks": 24,
          "midi": 42,
          "name": "F#2",
          "ticks": 12288,
          "time": 51.2,
          "velocity": 0.7874015748031497
        },
        {
          "duration": 0.10000000000000142,
          "durationTicks": 24,
          "midi": 69,
          "name": "A4",
          "ticks": 12312,
          "time": 51.300000000000004,
          "velocity": 0.7874015748031497
        },
        {
          "duration": 0.09999999999999432,
          "durationTicks": 24,
          "midi": 69,
          "name": "A4",
          "ticks": 12336,
          "time": 51.400000000000006,
          "velocity": 0.7874015748031497
        },
        {
          "duration": 0.09999999999999432,
          "durationTicks": 24,
          "midi": 42,
          "name": "F#2",
          "ticks": 12336,
          "time": 51.400000000000006,
          "velocity": 0.7874015748031497
        },
        {
          "duration": 0.10000000000000142,
          "durationTicks": 24,
          "midi": 42,
          "name": "F#2",
          "ticks": 12384,
          "time": 51.6,
          "velocity": 0.7874015748031497
        },
        {
          "duration": 0.10000000000000142,
          "durationTicks": 24,
          "midi": 40,
          "name": "E2",
          "ticks": 12384,
          "time": 51.6,
          "velocity": 0.8503937007874016
        },
        {
          "duration": 0.10000000000000142,
          "durationTicks": 24,
          "midi": 69,
          "name": "A4",
          "ticks": 12384,
          "time": 51.6,
          "velocity": 0.7874015748031497
        },
        {
          "duration": 0.10000000000000142,
          "durationTicks": 24,
          "midi": 69,
          "name": "A4",
          "ticks": 12408,
          "time": 51.7,
          "velocity": 0.7874015748031497
        },
        {
          "duration": 0.10000000000000142,
          "durationTicks": 24,
          "midi": 69,
          "name": "A4",
          "ticks": 12432,
          "time": 51.800000000000004,
          "velocity": 0.7874015748031497
        },
        {
          "duration": 0.10000000000000142,
          "durationTicks": 24,
          "midi": 42,
          "name": "F#2",
          "ticks": 12432,
          "time": 51.800000000000004,
          "velocity": 0.7874015748031497
        },
        {
          "duration": 0.10000000000000142,
          "durationTicks": 24,
          "midi": 42,
          "name": "F#2",
          "ticks": 12480,
          "time": 52,
          "velocity": 0.7874015748031497
        },
        {
          "duration": 0.10000000000000142,
          "durationTicks": 24,
          "midi": 36,
          "name": "C2",
          "ticks": 12480,
          "time": 52,
          "velocity": 0.968503937007874
        },
        {
          "duration": 0.10000000000000142,
          "durationTicks": 24,
          "midi": 69,
          "name": "A4",
          "ticks": 12480,
          "time": 52,
          "velocity": 0.7874015748031497
        },
        {
          "duration": 0.10000000000000142,
          "durationTicks": 24,
          "midi": 69,
          "name": "A4",
          "ticks": 12504,
          "time": 52.1,
          "velocity": 0.7874015748031497
        },
        {
          "duration": 0.10000000000000142,
          "durationTicks": 24,
          "midi": 42,
          "name": "F#2",
          "ticks": 12528,
          "time": 52.2,
          "velocity": 0.7874015748031497
        },
        {
          "duration": 0.10000000000000142,
          "durationTicks": 24,
          "midi": 69,
          "name": "A4",
          "ticks": 12528,
          "time": 52.2,
          "velocity": 0.7874015748031497
        },
        {
          "duration": 0.09999999999999432,
          "durationTicks": 24,
          "midi": 69,
          "name": "A4",
          "ticks": 12576,
          "time": 52.400000000000006,
          "velocity": 0.7874015748031497
        },
        {
          "duration": 0.09999999999999432,
          "durationTicks": 24,
          "midi": 40,
          "name": "E2",
          "ticks": 12576,
          "time": 52.400000000000006,
          "velocity": 0.8503937007874016
        },
        {
          "duration": 0.09999999999999432,
          "durationTicks": 24,
          "midi": 42,
          "name": "F#2",
          "ticks": 12576,
          "time": 52.400000000000006,
          "velocity": 0.7874015748031497
        },
        {
          "duration": 0.10000000000000142,
          "durationTicks": 24,
          "midi": 69,
          "name": "A4",
          "ticks": 12600,
          "time": 52.5,
          "velocity": 0.7874015748031497
        },
        {
          "duration": 0.10000000000000142,
          "durationTicks": 24,
          "midi": 69,
          "name": "A4",
          "ticks": 12624,
          "time": 52.6,
          "velocity": 0.7874015748031497
        },
        {
          "duration": 0.10000000000000142,
          "durationTicks": 24,
          "midi": 42,
          "name": "F#2",
          "ticks": 12624,
          "time": 52.6,
          "velocity": 0.7874015748031497
        },
        {
          "duration": 0.10000000000000142,
          "durationTicks": 24,
          "midi": 36,
          "name": "C2",
          "ticks": 12672,
          "time": 52.800000000000004,
          "velocity": 0.968503937007874
        },
        {
          "duration": 0.10000000000000142,
          "durationTicks": 24,
          "midi": 43,
          "name": "G2",
          "ticks": 12672,
          "time": 52.800000000000004,
          "velocity": 0.968503937007874
        },
        {
          "duration": 0.10000000000000142,
          "durationTicks": 24,
          "midi": 43,
          "name": "G2",
          "ticks": 12720,
          "time": 53,
          "velocity": 0.968503937007874
        },
        {
          "duration": 0.10000000000000142,
          "durationTicks": 24,
          "midi": 41,
          "name": "F2",
          "ticks": 12768,
          "time": 53.2,
          "velocity": 0.968503937007874
        },
        {
          "duration": 0.09999999999999432,
          "durationTicks": 24,
          "midi": 41,
          "name": "F2",
          "ticks": 12816,
          "time": 53.400000000000006,
          "velocity": 0.968503937007874
        },
        {
          "duration": 0.09999999999999432,
          "durationTicks": 24,
          "midi": 36,
          "name": "C2",
          "ticks": 12816,
          "time": 53.400000000000006,
          "velocity": 0.968503937007874
        },
        {
          "duration": 0.10000000000000142,
          "durationTicks": 24,
          "midi": 41,
          "name": "F2",
          "ticks": 12864,
          "time": 53.6,
          "velocity": 0.968503937007874
        },
        {
          "duration": 0.10000000000000142,
          "durationTicks": 24,
          "midi": 41,
          "name": "F2",
          "ticks": 12912,
          "time": 53.800000000000004,
          "velocity": 0.968503937007874
        },
        {
          "duration": 0.10000000000000142,
          "durationTicks": 24,
          "midi": 36,
          "name": "C2",
          "ticks": 12960,
          "time": 54,
          "velocity": 0.968503937007874
        },
        {
          "duration": 0.10000000000000142,
          "durationTicks": 24,
          "midi": 43,
          "name": "G2",
          "ticks": 12960,
          "time": 54,
          "velocity": 0.968503937007874
        },
        {
          "duration": 0.10000000000000142,
          "durationTicks": 24,
          "midi": 43,
          "name": "G2",
          "ticks": 13008,
          "time": 54.2,
          "velocity": 0.968503937007874
        },
        {
          "duration": 0.09999999999999432,
          "durationTicks": 24,
          "midi": 49,
          "name": "C#3",
          "ticks": 13056,
          "time": 54.400000000000006,
          "velocity": 0.968503937007874
        },
        {
          "duration": 0.09999999999999432,
          "durationTicks": 24,
          "midi": 36,
          "name": "C2",
          "ticks": 13056,
          "time": 54.400000000000006,
          "velocity": 0.968503937007874
        },
        {
          "duration": 0.10000000000000142,
          "durationTicks": 24,
          "midi": 42,
          "name": "F#2",
          "ticks": 13104,
          "time": 54.6,
          "velocity": 0.7874015748031497
        },
        {
          "duration": 0.10000000000000142,
          "durationTicks": 24,
          "midi": 42,
          "name": "F#2",
          "ticks": 13152,
          "time": 54.800000000000004,
          "velocity": 0.7874015748031497
        },
        {
          "duration": 0.10000000000000142,
          "durationTicks": 24,
          "midi": 42,
          "name": "F#2",
          "ticks": 13200,
          "time": 55,
          "velocity": 0.7874015748031497
        },
        {
          "duration": 0.10000000000000142,
          "durationTicks": 24,
          "midi": 36,
          "name": "C2",
          "ticks": 13200,
          "time": 55,
          "velocity": 0.968503937007874
        },
        {
          "duration": 0.10000000000000142,
          "durationTicks": 24,
          "midi": 42,
          "name": "F#2",
          "ticks": 13248,
          "time": 55.2,
          "velocity": 0.7874015748031497
        },
        {
          "duration": 0.10000000000000142,
          "durationTicks": 24,
          "midi": 36,
          "name": "C2",
          "ticks": 13248,
          "time": 55.2,
          "velocity": 0.968503937007874
        },
        {
          "duration": 0.09999999999999432,
          "durationTicks": 24,
          "midi": 42,
          "name": "F#2",
          "ticks": 13296,
          "time": 55.400000000000006,
          "velocity": 0.7874015748031497
        },
        {
          "duration": 0.10000000000000142,
          "durationTicks": 24,
          "midi": 42,
          "name": "F#2",
          "ticks": 13344,
          "time": 55.6,
          "velocity": 0.7874015748031497
        },
        {
          "duration": 0.10000000000000142,
          "durationTicks": 24,
          "midi": 40,
          "name": "E2",
          "ticks": 13344,
          "time": 55.6,
          "velocity": 0.8503937007874016
        },
        {
          "duration": 0.10000000000000142,
          "durationTicks": 24,
          "midi": 43,
          "name": "G2",
          "ticks": 13344,
          "time": 55.6,
          "velocity": 0.968503937007874
        },
        {
          "duration": 0.10000000000000142,
          "durationTicks": 24,
          "midi": 42,
          "name": "F#2",
          "ticks": 13392,
          "time": 55.800000000000004,
          "velocity": 0.7874015748031497
        },
        {
          "duration": 0.10000000000000142,
          "durationTicks": 24,
          "midi": 42,
          "name": "F#2",
          "ticks": 13440,
          "time": 56,
          "velocity": 0.7874015748031497
        },
        {
          "duration": 0.10000000000000142,
          "durationTicks": 24,
          "midi": 36,
          "name": "C2",
          "ticks": 13440,
          "time": 56,
          "velocity": 0.968503937007874
        },
        {
          "duration": 0.10000000000000142,
          "durationTicks": 24,
          "midi": 42,
          "name": "F#2",
          "ticks": 13488,
          "time": 56.2,
          "velocity": 0.7874015748031497
        },
        {
          "duration": 0.09999999999999432,
          "durationTicks": 24,
          "midi": 42,
          "name": "F#2",
          "ticks": 13536,
          "time": 56.400000000000006,
          "velocity": 0.7874015748031497
        },
        {
          "duration": 0.10000000000000142,
          "durationTicks": 24,
          "midi": 42,
          "name": "F#2",
          "ticks": 13584,
          "time": 56.6,
          "velocity": 0.7874015748031497
        },
        {
          "duration": 0.10000000000000142,
          "durationTicks": 24,
          "midi": 36,
          "name": "C2",
          "ticks": 13584,
          "time": 56.6,
          "velocity": 0.968503937007874
        },
        {
          "duration": 0.10000000000000142,
          "durationTicks": 24,
          "midi": 36,
          "name": "C2",
          "ticks": 13632,
          "time": 56.800000000000004,
          "velocity": 0.968503937007874
        },
        {
          "duration": 0.10000000000000142,
          "durationTicks": 24,
          "midi": 42,
          "name": "F#2",
          "ticks": 13632,
          "time": 56.800000000000004,
          "velocity": 0.7874015748031497
        },
        {
          "duration": 0.10000000000000142,
          "durationTicks": 24,
          "midi": 43,
          "name": "G2",
          "ticks": 13680,
          "time": 57,
          "velocity": 0.968503937007874
        },
        {
          "duration": 0.10000000000000142,
          "durationTicks": 24,
          "midi": 42,
          "name": "F#2",
          "ticks": 13728,
          "time": 57.2,
          "velocity": 0.7874015748031497
        },
        {
          "duration": 0.10000000000000142,
          "durationTicks": 24,
          "midi": 40,
          "name": "E2",
          "ticks": 13728,
          "time": 57.2,
          "velocity": 0.8503937007874016
        },
        {
          "duration": 0.09999999999999432,
          "durationTicks": 24,
          "midi": 42,
          "name": "F#2",
          "ticks": 13776,
          "time": 57.400000000000006,
          "velocity": 0.7874015748031497
        },
        {
          "duration": 0.10000000000000142,
          "durationTicks": 24,
          "midi": 42,
          "name": "F#2",
          "ticks": 13824,
          "time": 57.6,
          "velocity": 0.7874015748031497
        },
        {
          "duration": 0.10000000000000142,
          "durationTicks": 24,
          "midi": 36,
          "name": "C2",
          "ticks": 13824,
          "time": 57.6,
          "velocity": 0.968503937007874
        },
        {
          "duration": 0.10000000000000142,
          "durationTicks": 24,
          "midi": 42,
          "name": "F#2",
          "ticks": 13872,
          "time": 57.800000000000004,
          "velocity": 0.7874015748031497
        },
        {
          "duration": 0.10000000000000142,
          "durationTicks": 24,
          "midi": 42,
          "name": "F#2",
          "ticks": 13920,
          "time": 58,
          "velocity": 0.7874015748031497
        },
        {
          "duration": 0.10000000000000142,
          "durationTicks": 24,
          "midi": 36,
          "name": "C2",
          "ticks": 13968,
          "time": 58.2,
          "velocity": 0.968503937007874
        },
        {
          "duration": 0.10000000000000142,
          "durationTicks": 24,
          "midi": 42,
          "name": "F#2",
          "ticks": 13968,
          "time": 58.2,
          "velocity": 0.7874015748031497
        },
        {
          "duration": 0.09999999999999432,
          "durationTicks": 24,
          "midi": 36,
          "name": "C2",
          "ticks": 14016,
          "time": 58.400000000000006,
          "velocity": 0.968503937007874
        },
        {
          "duration": 0.09999999999999432,
          "durationTicks": 24,
          "midi": 42,
          "name": "F#2",
          "ticks": 14016,
          "time": 58.400000000000006,
          "velocity": 0.7874015748031497
        },
        {
          "duration": 0.10000000000000142,
          "durationTicks": 24,
          "midi": 42,
          "name": "F#2",
          "ticks": 14064,
          "time": 58.6,
          "velocity": 0.7874015748031497
        },
        {
          "duration": 0.10000000000000142,
          "durationTicks": 24,
          "midi": 40,
          "name": "E2",
          "ticks": 14112,
          "time": 58.800000000000004,
          "velocity": 0.8503937007874016
        },
        {
          "duration": 0.10000000000000142,
          "durationTicks": 24,
          "midi": 42,
          "name": "F#2",
          "ticks": 14112,
          "time": 58.800000000000004,
          "velocity": 0.7874015748031497
        },
        {
          "duration": 0.10000000000000142,
          "durationTicks": 24,
          "midi": 42,
          "name": "F#2",
          "ticks": 14160,
          "time": 59,
          "velocity": 0.7874015748031497
        },
        {
          "duration": 0.10000000000000142,
          "durationTicks": 24,
          "midi": 36,
          "name": "C2",
          "ticks": 14208,
          "time": 59.2,
          "velocity": 0.968503937007874
        },
        {
          "duration": 0.10000000000000142,
          "durationTicks": 24,
          "midi": 42,
          "name": "F#2",
          "ticks": 14208,
          "time": 59.2,
          "velocity": 0.7874015748031497
        },
        {
          "duration": 0.09999999999999432,
          "durationTicks": 24,
          "midi": 42,
          "name": "F#2",
          "ticks": 14256,
          "time": 59.400000000000006,
          "velocity": 0.7874015748031497
        },
        {
          "duration": 0.10000000000000142,
          "durationTicks": 24,
          "midi": 42,
          "name": "F#2",
          "ticks": 14304,
          "time": 59.6,
          "velocity": 0.7874015748031497
        },
        {
          "duration": 0.10000000000000142,
          "durationTicks": 24,
          "midi": 40,
          "name": "E2",
          "ticks": 14304,
          "time": 59.6,
          "velocity": 0.8503937007874016
        },
        {
          "duration": 0.10000000000000142,
          "durationTicks": 24,
          "midi": 36,
          "name": "C2",
          "ticks": 14352,
          "time": 59.800000000000004,
          "velocity": 0.968503937007874
        },
        {
          "duration": 0.10000000000000142,
          "durationTicks": 24,
          "midi": 42,
          "name": "F#2",
          "ticks": 14352,
          "time": 59.800000000000004,
          "velocity": 0.7874015748031497
        },
        {
          "duration": 0.10000000000000142,
          "durationTicks": 24,
          "midi": 42,
          "name": "F#2",
          "ticks": 14400,
          "time": 60,
          "velocity": 0.7874015748031497
        },
        {
          "duration": 0.10000000000000142,
          "durationTicks": 24,
          "midi": 45,
          "name": "A2",
          "ticks": 14448,
          "time": 60.2,
          "velocity": 0.968503937007874
        },
        {
          "duration": 0.09999999999999432,
          "durationTicks": 24,
          "midi": 41,
          "name": "F2",
          "ticks": 14496,
          "time": 60.400000000000006,
          "velocity": 0.968503937007874
        },
        {
          "duration": 0.10000000000000142,
          "durationTicks": 24,
          "midi": 43,
          "name": "G2",
          "ticks": 14544,
          "time": 60.6,
          "velocity": 0.968503937007874
        },
        {
          "duration": 0.10000000000000142,
          "durationTicks": 24,
          "midi": 36,
          "name": "C2",
          "ticks": 14592,
          "time": 60.800000000000004,
          "velocity": 0.968503937007874
        },
        {
          "duration": 0.10000000000000142,
          "durationTicks": 24,
          "midi": 49,
          "name": "C#3",
          "ticks": 14592,
          "time": 60.800000000000004,
          "velocity": 0.968503937007874
        },
        {
          "duration": 0.10000000000000142,
          "durationTicks": 24,
          "midi": 42,
          "name": "F#2",
          "ticks": 14640,
          "time": 61,
          "velocity": 0.7874015748031497
        },
        {
          "duration": 0.10000000000000142,
          "durationTicks": 24,
          "midi": 42,
          "name": "F#2",
          "ticks": 14688,
          "time": 61.2,
          "velocity": 0.7874015748031497
        },
        {
          "duration": 0.09999999999999432,
          "durationTicks": 24,
          "midi": 42,
          "name": "F#2",
          "ticks": 14736,
          "time": 61.400000000000006,
          "velocity": 0.7874015748031497
        },
        {
          "duration": 0.09999999999999432,
          "durationTicks": 24,
          "midi": 36,
          "name": "C2",
          "ticks": 14736,
          "time": 61.400000000000006,
          "velocity": 0.968503937007874
        },
        {
          "duration": 0.10000000000000142,
          "durationTicks": 24,
          "midi": 42,
          "name": "F#2",
          "ticks": 14784,
          "time": 61.6,
          "velocity": 0.7874015748031497
        },
        {
          "duration": 0.10000000000000142,
          "durationTicks": 24,
          "midi": 36,
          "name": "C2",
          "ticks": 14784,
          "time": 61.6,
          "velocity": 0.968503937007874
        },
        {
          "duration": 0.10000000000000142,
          "durationTicks": 24,
          "midi": 42,
          "name": "F#2",
          "ticks": 14832,
          "time": 61.800000000000004,
          "velocity": 0.7874015748031497
        },
        {
          "duration": 0.10000000000000142,
          "durationTicks": 24,
          "midi": 42,
          "name": "F#2",
          "ticks": 14880,
          "time": 62,
          "velocity": 0.7874015748031497
        },
        {
          "duration": 0.10000000000000142,
          "durationTicks": 24,
          "midi": 40,
          "name": "E2",
          "ticks": 14880,
          "time": 62,
          "velocity": 0.8503937007874016
        },
        {
          "duration": 0.10000000000000142,
          "durationTicks": 24,
          "midi": 42,
          "name": "F#2",
          "ticks": 14928,
          "time": 62.2,
          "velocity": 0.7874015748031497
        },
        {
          "duration": 0.09999999999999432,
          "durationTicks": 24,
          "midi": 36,
          "name": "C2",
          "ticks": 14976,
          "time": 62.400000000000006,
          "velocity": 0.968503937007874
        },
        {
          "duration": 0.09999999999999432,
          "durationTicks": 24,
          "midi": 42,
          "name": "F#2",
          "ticks": 14976,
          "time": 62.400000000000006,
          "velocity": 0.7874015748031497
        },
        {
          "duration": 0.10000000000000142,
          "durationTicks": 24,
          "midi": 42,
          "name": "F#2",
          "ticks": 15024,
          "time": 62.6,
          "velocity": 0.7874015748031497
        },
        {
          "duration": 0.10000000000000142,
          "durationTicks": 24,
          "midi": 42,
          "name": "F#2",
          "ticks": 15072,
          "time": 62.800000000000004,
          "velocity": 0.7874015748031497
        },
        {
          "duration": 0.10000000000000142,
          "durationTicks": 24,
          "midi": 42,
          "name": "F#2",
          "ticks": 15120,
          "time": 63,
          "velocity": 0.7874015748031497
        },
        {
          "duration": 0.10000000000000142,
          "durationTicks": 24,
          "midi": 36,
          "name": "C2",
          "ticks": 15120,
          "time": 63,
          "velocity": 0.968503937007874
        },
        {
          "duration": 0.10000000000000142,
          "durationTicks": 24,
          "midi": 42,
          "name": "F#2",
          "ticks": 15168,
          "time": 63.2,
          "velocity": 0.7874015748031497
        },
        {
          "duration": 0.10000000000000142,
          "durationTicks": 24,
          "midi": 36,
          "name": "C2",
          "ticks": 15168,
          "time": 63.2,
          "velocity": 0.968503937007874
        },
        {
          "duration": 0.09999999999999432,
          "durationTicks": 24,
          "midi": 43,
          "name": "G2",
          "ticks": 15216,
          "time": 63.400000000000006,
          "velocity": 0.968503937007874
        },
        {
          "duration": 0.10000000000000142,
          "durationTicks": 24,
          "midi": 40,
          "name": "E2",
          "ticks": 15264,
          "time": 63.6,
          "velocity": 0.8503937007874016
        },
        {
          "duration": 0.10000000000000142,
          "durationTicks": 24,
          "midi": 42,
          "name": "F#2",
          "ticks": 15312,
          "time": 63.800000000000004,
          "velocity": 0.7874015748031497
        },
        {
          "duration": 0.10000000000000853,
          "durationTicks": 24,
          "midi": 36,
          "name": "C2",
          "ticks": 15360,
          "time": 64,
          "velocity": 0.968503937007874
        },
        {
          "duration": 0.10000000000000853,
          "durationTicks": 24,
          "midi": 42,
          "name": "F#2",
          "ticks": 15360,
          "time": 64,
          "velocity": 0.7874015748031497
        },
        {
          "duration": 0.09999999999999432,
          "durationTicks": 24,
          "midi": 42,
          "name": "F#2",
          "ticks": 15408,
          "time": 64.2,
          "velocity": 0.7874015748031497
        },
        {
          "duration": 0.09999999999999432,
          "durationTicks": 24,
          "midi": 42,
          "name": "F#2",
          "ticks": 15456,
          "time": 64.4,
          "velocity": 0.968503937007874
        },
        {
          "duration": 0.09999999999999432,
          "durationTicks": 24,
          "midi": 42,
          "name": "F#2",
          "ticks": 15504,
          "time": 64.60000000000001,
          "velocity": 0.968503937007874
        },
        {
          "duration": 0.09999999999999432,
          "durationTicks": 24,
          "midi": 36,
          "name": "C2",
          "ticks": 15504,
          "time": 64.60000000000001,
          "velocity": 0.968503937007874
        },
        {
          "duration": 0.10000000000000853,
          "durationTicks": 24,
          "midi": 42,
          "name": "F#2",
          "ticks": 15552,
          "time": 64.8,
          "velocity": 0.7874015748031497
        },
        {
          "duration": 0.10000000000000853,
          "durationTicks": 24,
          "midi": 36,
          "name": "C2",
          "ticks": 15552,
          "time": 64.8,
          "velocity": 0.968503937007874
        },
        {
          "duration": 0.10000000000000853,
          "durationTicks": 24,
          "midi": 42,
          "name": "F#2",
          "ticks": 15600,
          "time": 65,
          "velocity": 0.7874015748031497
        },
        {
          "duration": 0.09999999999999432,
          "durationTicks": 24,
          "midi": 40,
          "name": "E2",
          "ticks": 15648,
          "time": 65.2,
          "velocity": 0.8503937007874016
        },
        {
          "duration": 0.09999999999999432,
          "durationTicks": 24,
          "midi": 42,
          "name": "F#2",
          "ticks": 15648,
          "time": 65.2,
          "velocity": 0.7874015748031497
        },
        {
          "duration": 0.09999999999999432,
          "durationTicks": 24,
          "midi": 42,
          "name": "F#2",
          "ticks": 15696,
          "time": 65.4,
          "velocity": 0.7874015748031497
        },
        {
          "duration": 0.09999999999999432,
          "durationTicks": 24,
          "midi": 42,
          "name": "F#2",
          "ticks": 15744,
          "time": 65.60000000000001,
          "velocity": 0.7874015748031497
        },
        {
          "duration": 0.09999999999999432,
          "durationTicks": 24,
          "midi": 36,
          "name": "C2",
          "ticks": 15744,
          "time": 65.60000000000001,
          "velocity": 0.968503937007874
        },
        {
          "duration": 0.10000000000000853,
          "durationTicks": 24,
          "midi": 42,
          "name": "F#2",
          "ticks": 15792,
          "time": 65.8,
          "velocity": 0.7874015748031497
        },
        {
          "duration": 0.10000000000000853,
          "durationTicks": 24,
          "midi": 40,
          "name": "E2",
          "ticks": 15840,
          "time": 66,
          "velocity": 0.8503937007874016
        },
        {
          "duration": 0.09999999999999432,
          "durationTicks": 24,
          "midi": 36,
          "name": "C2",
          "ticks": 15888,
          "time": 66.2,
          "velocity": 0.968503937007874
        },
        {
          "duration": 0.09999999999999432,
          "durationTicks": 24,
          "midi": 40,
          "name": "E2",
          "ticks": 15936,
          "time": 66.4,
          "velocity": 0.8503937007874016
        },
        {
          "duration": 0.09999999999999432,
          "durationTicks": 24,
          "midi": 36,
          "name": "C2",
          "ticks": 15984,
          "time": 66.60000000000001,
          "velocity": 0.968503937007874
        },
        {
          "duration": 0.10000000000000853,
          "durationTicks": 24,
          "midi": 40,
          "name": "E2",
          "ticks": 16032,
          "time": 66.8,
          "velocity": 0.8503937007874016
        },
        {
          "duration": 0.09999999999999432,
          "durationTicks": 24,
          "midi": 40,
          "name": "E2",
          "ticks": 16056,
          "time": 66.9,
          "velocity": 0.8503937007874016
        },
        {
          "duration": 0.10000000000000853,
          "durationTicks": 24,
          "midi": 40,
          "name": "E2",
          "ticks": 16080,
          "time": 67,
          "velocity": 0.8503937007874016
        },
        {
          "duration": 0.09999999999999432,
          "durationTicks": 24,
          "midi": 49,
          "name": "C#3",
          "ticks": 16128,
          "time": 67.2,
          "velocity": 0.968503937007874
        },
        {
          "duration": 0.09999999999999432,
          "durationTicks": 24,
          "midi": 36,
          "name": "C2",
          "ticks": 16128,
          "time": 67.2,
          "velocity": 0.968503937007874
        },
        {
          "duration": 0.09999999999999432,
          "durationTicks": 24,
          "midi": 42,
          "name": "F#2",
          "ticks": 16176,
          "time": 67.4,
          "velocity": 0.7874015748031497
        },
        {
          "duration": 0.09999999999999432,
          "durationTicks": 24,
          "midi": 40,
          "name": "E2",
          "ticks": 16224,
          "time": 67.60000000000001,
          "velocity": 0.8503937007874016
        },
        {
          "duration": 0.09999999999999432,
          "durationTicks": 24,
          "midi": 42,
          "name": "F#2",
          "ticks": 16224,
          "time": 67.60000000000001,
          "velocity": 0.7874015748031497
        },
        {
          "duration": 0.10000000000000853,
          "durationTicks": 24,
          "midi": 42,
          "name": "F#2",
          "ticks": 16272,
          "time": 67.8,
          "velocity": 0.7874015748031497
        },
        {
          "duration": 0.10000000000000853,
          "durationTicks": 24,
          "midi": 42,
          "name": "F#2",
          "ticks": 16320,
          "time": 68,
          "velocity": 0.7874015748031497
        },
        {
          "duration": 0.10000000000000853,
          "durationTicks": 24,
          "midi": 40,
          "name": "E2",
          "ticks": 16320,
          "time": 68,
          "velocity": 0.8503937007874016
        },
        {
          "duration": 0.09999999999999432,
          "durationTicks": 24,
          "midi": 42,
          "name": "F#2",
          "ticks": 16368,
          "time": 68.2,
          "velocity": 0.7874015748031497
        },
        {
          "duration": 0.09999999999999432,
          "durationTicks": 24,
          "midi": 36,
          "name": "C2",
          "ticks": 16368,
          "time": 68.2,
          "velocity": 0.968503937007874
        },
        {
          "duration": 0.09999999999999432,
          "durationTicks": 24,
          "midi": 42,
          "name": "F#2",
          "ticks": 16416,
          "time": 68.4,
          "velocity": 0.7874015748031497
        },
        {
          "duration": 0.09999999999999432,
          "durationTicks": 24,
          "midi": 40,
          "name": "E2",
          "ticks": 16416,
          "time": 68.4,
          "velocity": 0.8503937007874016
        },
        {
          "duration": 0.09999999999999432,
          "durationTicks": 24,
          "midi": 36,
          "name": "C2",
          "ticks": 16464,
          "time": 68.60000000000001,
          "velocity": 0.968503937007874
        },
        {
          "duration": 0.09999999999999432,
          "durationTicks": 24,
          "midi": 42,
          "name": "F#2",
          "ticks": 16464,
          "time": 68.60000000000001,
          "velocity": 0.7874015748031497
        },
        {
          "duration": 0.10000000000000853,
          "durationTicks": 24,
          "midi": 40,
          "name": "E2",
          "ticks": 16512,
          "time": 68.8,
          "velocity": 0.8503937007874016
        },
        {
          "duration": 0.10000000000000853,
          "durationTicks": 24,
          "midi": 42,
          "name": "F#2",
          "ticks": 16512,
          "time": 68.8,
          "velocity": 0.7874015748031497
        },
        {
          "duration": 0.10000000000000853,
          "durationTicks": 24,
          "midi": 42,
          "name": "F#2",
          "ticks": 16560,
          "time": 69,
          "velocity": 0.7874015748031497
        },
        {
          "duration": 0.09999999999999432,
          "durationTicks": 24,
          "midi": 40,
          "name": "E2",
          "ticks": 16608,
          "time": 69.2,
          "velocity": 0.8503937007874016
        },
        {
          "duration": 0.09999999999999432,
          "durationTicks": 24,
          "midi": 42,
          "name": "F#2",
          "ticks": 16608,
          "time": 69.2,
          "velocity": 0.7874015748031497
        },
        {
          "duration": 0.09999999999999432,
          "durationTicks": 24,
          "midi": 42,
          "name": "F#2",
          "ticks": 16656,
          "time": 69.4,
          "velocity": 0.7874015748031497
        },
        {
          "duration": 0.09999999999999432,
          "durationTicks": 24,
          "midi": 36,
          "name": "C2",
          "ticks": 16656,
          "time": 69.4,
          "velocity": 0.968503937007874
        },
        {
          "duration": 0.09999999999999432,
          "durationTicks": 24,
          "midi": 40,
          "name": "E2",
          "ticks": 16704,
          "time": 69.60000000000001,
          "velocity": 0.8503937007874016
        },
        {
          "duration": 0.09999999999999432,
          "durationTicks": 24,
          "midi": 42,
          "name": "F#2",
          "ticks": 16704,
          "time": 69.60000000000001,
          "velocity": 0.7874015748031497
        },
        {
          "duration": 0.10000000000000853,
          "durationTicks": 24,
          "midi": 42,
          "name": "F#2",
          "ticks": 16752,
          "time": 69.8,
          "velocity": 0.7874015748031497
        },
        {
          "duration": 0.10000000000000853,
          "durationTicks": 24,
          "midi": 36,
          "name": "C2",
          "ticks": 16752,
          "time": 69.8,
          "velocity": 0.968503937007874
        },
        {
          "duration": 0.10000000000000853,
          "durationTicks": 24,
          "midi": 42,
          "name": "F#2",
          "ticks": 16800,
          "time": 70,
          "velocity": 0.7874015748031497
        },
        {
          "duration": 0.10000000000000853,
          "durationTicks": 24,
          "midi": 40,
          "name": "E2",
          "ticks": 16800,
          "time": 70,
          "velocity": 0.8503937007874016
        },
        {
          "duration": 0.09999999999999432,
          "durationTicks": 24,
          "midi": 36,
          "name": "C2",
          "ticks": 16848,
          "time": 70.2,
          "velocity": 0.968503937007874
        },
        {
          "duration": 0.09999999999999432,
          "durationTicks": 24,
          "midi": 42,
          "name": "F#2",
          "ticks": 16848,
          "time": 70.2,
          "velocity": 0.7874015748031497
        },
        {
          "duration": 0.10000000000000853,
          "durationTicks": 24,
          "midi": 36,
          "name": "C2",
          "ticks": 16872,
          "time": 70.3,
          "velocity": 0.968503937007874
        },
        {
          "duration": 0.09999999999999432,
          "durationTicks": 24,
          "midi": 49,
          "name": "C#3",
          "ticks": 16896,
          "time": 70.4,
          "velocity": 0.968503937007874
        },
        {
          "duration": 0.09999999999999432,
          "durationTicks": 24,
          "midi": 40,
          "name": "E2",
          "ticks": 16896,
          "time": 70.4,
          "velocity": 0.8503937007874016
        },
        {
          "duration": 0.09999999999999432,
          "durationTicks": 24,
          "midi": 40,
          "name": "E2",
          "ticks": 16944,
          "time": 70.60000000000001,
          "velocity": 0.8503937007874016
        },
        {
          "duration": 0.10000000000000853,
          "durationTicks": 24,
          "midi": 40,
          "name": "E2",
          "ticks": 16992,
          "time": 70.8,
          "velocity": 0.8503937007874016
        },
        {
          "duration": 0.10000000000000853,
          "durationTicks": 24,
          "midi": 40,
          "name": "E2",
          "ticks": 17040,
          "time": 71,
          "velocity": 0.8503937007874016
        },
        {
          "duration": 0.09999999999999432,
          "durationTicks": 24,
          "midi": 36,
          "name": "C2",
          "ticks": 17088,
          "time": 71.2,
          "velocity": 0.968503937007874
        },
        {
          "duration": 0.09999999999999432,
          "durationTicks": 24,
          "midi": 40,
          "name": "E2",
          "ticks": 17088,
          "time": 71.2,
          "velocity": 0.8503937007874016
        },
        {
          "duration": 0.09999999999999432,
          "durationTicks": 24,
          "midi": 40,
          "name": "E2",
          "ticks": 17136,
          "time": 71.4,
          "velocity": 0.8503937007874016
        },
        {
          "duration": 0.09999999999999432,
          "durationTicks": 24,
          "midi": 40,
          "name": "E2",
          "ticks": 17184,
          "time": 71.60000000000001,
          "velocity": 0.8503937007874016
        },
        {
          "duration": 0.09999999999999432,
          "durationTicks": 24,
          "midi": 36,
          "name": "C2",
          "ticks": 17184,
          "time": 71.60000000000001,
          "velocity": 0.968503937007874
        },
        {
          "duration": 0.09999999999999432,
          "durationTicks": 24,
          "midi": 40,
          "name": "E2",
          "ticks": 17208,
          "time": 71.7,
          "velocity": 0.8503937007874016
        },
        {
          "duration": 0.10000000000000853,
          "durationTicks": 24,
          "midi": 40,
          "name": "E2",
          "ticks": 17232,
          "time": 71.8,
          "velocity": 0.8503937007874016
        },
        {
          "duration": 0.10000000000000853,
          "durationTicks": 24,
          "midi": 40,
          "name": "E2",
          "ticks": 17280,
          "time": 72,
          "velocity": 0.8503937007874016
        },
        {
          "duration": 0.10000000000000853,
          "durationTicks": 24,
          "midi": 36,
          "name": "C2",
          "ticks": 17520,
          "time": 73,
          "velocity": 0.968503937007874
        },
        {
          "duration": 0.09999999999999432,
          "durationTicks": 24,
          "midi": 40,
          "name": "E2",
          "ticks": 17568,
          "time": 73.2,
          "velocity": 0.8503937007874016
        },
        {
          "duration": 0.09999999999999432,
          "durationTicks": 24,
          "midi": 36,
          "name": "C2",
          "ticks": 17664,
          "time": 73.60000000000001,
          "velocity": 0.968503937007874
        },
        {
          "duration": 0.09999999999999432,
          "durationTicks": 24,
          "midi": 49,
          "name": "C#3",
          "ticks": 17664,
          "time": 73.60000000000001,
          "velocity": 0.905511811023622
        },
        {
          "duration": 0.09999999999999432,
          "durationTicks": 24,
          "midi": 69,
          "name": "A4",
          "ticks": 17664,
          "time": 73.60000000000001,
          "velocity": 0.7874015748031497
        },
        {
          "duration": 0.09999999999999432,
          "durationTicks": 24,
          "midi": 69,
          "name": "A4",
          "ticks": 17688,
          "time": 73.7,
          "velocity": 0.7874015748031497
        },
        {
          "duration": 0.10000000000000853,
          "durationTicks": 24,
          "midi": 42,
          "name": "F#2",
          "ticks": 17712,
          "time": 73.8,
          "velocity": 0.7874015748031497
        },
        {
          "duration": 0.10000000000000853,
          "durationTicks": 24,
          "midi": 69,
          "name": "A4",
          "ticks": 17712,
          "time": 73.8,
          "velocity": 0.7874015748031497
        },
        {
          "duration": 0.10000000000000853,
          "durationTicks": 24,
          "midi": 40,
          "name": "E2",
          "ticks": 17760,
          "time": 74,
          "velocity": 0.8503937007874016
        },
        {
          "duration": 0.10000000000000853,
          "durationTicks": 24,
          "midi": 42,
          "name": "F#2",
          "ticks": 17760,
          "time": 74,
          "velocity": 0.7874015748031497
        },
        {
          "duration": 0.10000000000000853,
          "durationTicks": 24,
          "midi": 69,
          "name": "A4",
          "ticks": 17760,
          "time": 74,
          "velocity": 0.7874015748031497
        },
        {
          "duration": 0.09999999999999432,
          "durationTicks": 24,
          "midi": 69,
          "name": "A4",
          "ticks": 17784,
          "time": 74.10000000000001,
          "velocity": 0.7874015748031497
        },
        {
          "duration": 0.09999999999999432,
          "durationTicks": 24,
          "midi": 36,
          "name": "C2",
          "ticks": 17808,
          "time": 74.2,
          "velocity": 0.968503937007874
        },
        {
          "duration": 0.09999999999999432,
          "durationTicks": 24,
          "midi": 42,
          "name": "F#2",
          "ticks": 17808,
          "time": 74.2,
          "velocity": 0.7874015748031497
        },
        {
          "duration": 0.09999999999999432,
          "durationTicks": 24,
          "midi": 69,
          "name": "A4",
          "ticks": 17808,
          "time": 74.2,
          "velocity": 0.7874015748031497
        },
        {
          "duration": 0.09999999999999432,
          "durationTicks": 24,
          "midi": 69,
          "name": "A4",
          "ticks": 17856,
          "time": 74.4,
          "velocity": 0.7874015748031497
        },
        {
          "duration": 0.09999999999999432,
          "durationTicks": 24,
          "midi": 42,
          "name": "F#2",
          "ticks": 17856,
          "time": 74.4,
          "velocity": 0.7874015748031497
        },
        {
          "duration": 0.09999999999999432,
          "durationTicks": 24,
          "midi": 36,
          "name": "C2",
          "ticks": 17856,
          "time": 74.4,
          "velocity": 0.968503937007874
        },
        {
          "duration": 0.10000000000000853,
          "durationTicks": 24,
          "midi": 69,
          "name": "A4",
          "ticks": 17880,
          "time": 74.5,
          "velocity": 0.7874015748031497
        },
        {
          "duration": 0.09999999999999432,
          "durationTicks": 24,
          "midi": 69,
          "name": "A4",
          "ticks": 17904,
          "time": 74.60000000000001,
          "velocity": 0.7874015748031497
        },
        {
          "duration": 0.09999999999999432,
          "durationTicks": 24,
          "midi": 42,
          "name": "F#2",
          "ticks": 17904,
          "time": 74.60000000000001,
          "velocity": 0.7874015748031497
        },
        {
          "duration": 0.10000000000000853,
          "durationTicks": 24,
          "midi": 42,
          "name": "F#2",
          "ticks": 17952,
          "time": 74.8,
          "velocity": 0.7874015748031497
        },
        {
          "duration": 0.10000000000000853,
          "durationTicks": 24,
          "midi": 40,
          "name": "E2",
          "ticks": 17952,
          "time": 74.8,
          "velocity": 0.9133858267716536
        },
        {
          "duration": 0.10000000000000853,
          "durationTicks": 24,
          "midi": 69,
          "name": "A4",
          "ticks": 17952,
          "time": 74.8,
          "velocity": 0.7874015748031497
        },
        {
          "duration": 0.09999999999999432,
          "durationTicks": 24,
          "midi": 69,
          "name": "A4",
          "ticks": 17976,
          "time": 74.9,
          "velocity": 0.7874015748031497
        },
        {
          "duration": 0.10000000000000853,
          "durationTicks": 24,
          "midi": 69,
          "name": "A4",
          "ticks": 18000,
          "time": 75,
          "velocity": 0.7874015748031497
        },
        {
          "duration": 0.10000000000000853,
          "durationTicks": 24,
          "midi": 42,
          "name": "F#2",
          "ticks": 18000,
          "time": 75,
          "velocity": 0.7874015748031497
        },
        {
          "duration": 0.09999999999999432,
          "durationTicks": 24,
          "midi": 69,
          "name": "A4",
          "ticks": 18048,
          "time": 75.2,
          "velocity": 0.7874015748031497
        },
        {
          "duration": 0.09999999999999432,
          "durationTicks": 24,
          "midi": 42,
          "name": "F#2",
          "ticks": 18048,
          "time": 75.2,
          "velocity": 0.7874015748031497
        },
        {
          "duration": 0.09999999999999432,
          "durationTicks": 24,
          "midi": 36,
          "name": "C2",
          "ticks": 18048,
          "time": 75.2,
          "velocity": 0.968503937007874
        },
        {
          "duration": 0.10000000000000853,
          "durationTicks": 24,
          "midi": 69,
          "name": "A4",
          "ticks": 18072,
          "time": 75.3,
          "velocity": 0.7874015748031497
        },
        {
          "duration": 0.09999999999999432,
          "durationTicks": 24,
          "midi": 42,
          "name": "F#2",
          "ticks": 18096,
          "time": 75.4,
          "velocity": 0.7874015748031497
        },
        {
          "duration": 0.09999999999999432,
          "durationTicks": 24,
          "midi": 69,
          "name": "A4",
          "ticks": 18096,
          "time": 75.4,
          "velocity": 0.7874015748031497
        },
        {
          "duration": 0.09999999999999432,
          "durationTicks": 24,
          "midi": 40,
          "name": "E2",
          "ticks": 18144,
          "time": 75.60000000000001,
          "velocity": 0.9133858267716536
        },
        {
          "duration": 0.09999999999999432,
          "durationTicks": 24,
          "midi": 42,
          "name": "F#2",
          "ticks": 18144,
          "time": 75.60000000000001,
          "velocity": 0.7874015748031497
        },
        {
          "duration": 0.09999999999999432,
          "durationTicks": 24,
          "midi": 69,
          "name": "A4",
          "ticks": 18144,
          "time": 75.60000000000001,
          "velocity": 0.7874015748031497
        },
        {
          "duration": 0.09999999999999432,
          "durationTicks": 24,
          "midi": 69,
          "name": "A4",
          "ticks": 18168,
          "time": 75.7,
          "velocity": 0.7874015748031497
        },
        {
          "duration": 0.10000000000000853,
          "durationTicks": 24,
          "midi": 42,
          "name": "F#2",
          "ticks": 18192,
          "time": 75.8,
          "velocity": 0.7874015748031497
        },
        {
          "duration": 0.10000000000000853,
          "durationTicks": 24,
          "midi": 36,
          "name": "C2",
          "ticks": 18192,
          "time": 75.8,
          "velocity": 0.968503937007874
        },
        {
          "duration": 0.10000000000000853,
          "durationTicks": 24,
          "midi": 69,
          "name": "A4",
          "ticks": 18192,
          "time": 75.8,
          "velocity": 0.7874015748031497
        },
        {
          "duration": 0.10000000000000853,
          "durationTicks": 24,
          "midi": 69,
          "name": "A4",
          "ticks": 18240,
          "time": 76,
          "velocity": 0.7874015748031497
        },
        {
          "duration": 0.10000000000000853,
          "durationTicks": 24,
          "midi": 42,
          "name": "F#2",
          "ticks": 18240,
          "time": 76,
          "velocity": 0.7874015748031497
        },
        {
          "duration": 0.09999999999999432,
          "durationTicks": 24,
          "midi": 69,
          "name": "A4",
          "ticks": 18264,
          "time": 76.10000000000001,
          "velocity": 0.7874015748031497
        },
        {
          "duration": 0.09999999999999432,
          "durationTicks": 24,
          "midi": 69,
          "name": "A4",
          "ticks": 18288,
          "time": 76.2,
          "velocity": 0.7874015748031497
        },
        {
          "duration": 0.09999999999999432,
          "durationTicks": 24,
          "midi": 42,
          "name": "F#2",
          "ticks": 18288,
          "time": 76.2,
          "velocity": 0.7874015748031497
        },
        {
          "duration": 0.09999999999999432,
          "durationTicks": 24,
          "midi": 36,
          "name": "C2",
          "ticks": 18288,
          "time": 76.2,
          "velocity": 0.968503937007874
        },
        {
          "duration": 0.09999999999999432,
          "durationTicks": 24,
          "midi": 69,
          "name": "A4",
          "ticks": 18336,
          "time": 76.4,
          "velocity": 0.7874015748031497
        },
        {
          "duration": 0.09999999999999432,
          "durationTicks": 24,
          "midi": 42,
          "name": "F#2",
          "ticks": 18336,
          "time": 76.4,
          "velocity": 0.7874015748031497
        },
        {
          "duration": 0.09999999999999432,
          "durationTicks": 24,
          "midi": 40,
          "name": "E2",
          "ticks": 18336,
          "time": 76.4,
          "velocity": 0.9133858267716536
        },
        {
          "duration": 0.10000000000000853,
          "durationTicks": 24,
          "midi": 69,
          "name": "A4",
          "ticks": 18360,
          "time": 76.5,
          "velocity": 0.7874015748031497
        },
        {
          "duration": 0.09999999999999432,
          "durationTicks": 24,
          "midi": 42,
          "name": "F#2",
          "ticks": 18384,
          "time": 76.60000000000001,
          "velocity": 0.7874015748031497
        },
        {
          "duration": 0.09999999999999432,
          "durationTicks": 24,
          "midi": 69,
          "name": "A4",
          "ticks": 18384,
          "time": 76.60000000000001,
          "velocity": 0.7874015748031497
        },
        {
          "duration": 0.09999999999999432,
          "durationTicks": 24,
          "midi": 42,
          "name": "F#2",
          "ticks": 18432,
          "time": 76.80000000000001,
          "velocity": 0.7874015748031497
        },
        {
          "duration": 0.09999999999999432,
          "durationTicks": 24,
          "midi": 36,
          "name": "C2",
          "ticks": 18432,
          "time": 76.80000000000001,
          "velocity": 0.968503937007874
        },
        {
          "duration": 0.09999999999999432,
          "durationTicks": 24,
          "midi": 69,
          "name": "A4",
          "ticks": 18432,
          "time": 76.80000000000001,
          "velocity": 0.7874015748031497
        },
        {
          "duration": 0.09999999999999432,
          "durationTicks": 24,
          "midi": 69,
          "name": "A4",
          "ticks": 18456,
          "time": 76.9,
          "velocity": 0.7874015748031497
        },
        {
          "duration": 0.10000000000000853,
          "durationTicks": 24,
          "midi": 42,
          "name": "F#2",
          "ticks": 18480,
          "time": 77,
          "velocity": 0.7874015748031497
        },
        {
          "duration": 0.10000000000000853,
          "durationTicks": 24,
          "midi": 69,
          "name": "A4",
          "ticks": 18480,
          "time": 77,
          "velocity": 0.7874015748031497
        },
        {
          "duration": 0.10000000000000853,
          "durationTicks": 24,
          "midi": 42,
          "name": "F#2",
          "ticks": 18528,
          "time": 77.2,
          "velocity": 0.7874015748031497
        },
        {
          "duration": 0.10000000000000853,
          "durationTicks": 24,
          "midi": 40,
          "name": "E2",
          "ticks": 18528,
          "time": 77.2,
          "velocity": 0.9133858267716536
        },
        {
          "duration": 0.10000000000000853,
          "durationTicks": 24,
          "midi": 69,
          "name": "A4",
          "ticks": 18528,
          "time": 77.2,
          "velocity": 0.7874015748031497
        },
        {
          "duration": 0.09999999999999432,
          "durationTicks": 24,
          "midi": 69,
          "name": "A4",
          "ticks": 18552,
          "time": 77.30000000000001,
          "velocity": 0.7874015748031497
        },
        {
          "duration": 0.09999999999999432,
          "durationTicks": 24,
          "midi": 69,
          "name": "A4",
          "ticks": 18576,
          "time": 77.4,
          "velocity": 0.7874015748031497
        },
        {
          "duration": 0.09999999999999432,
          "durationTicks": 24,
          "midi": 42,
          "name": "F#2",
          "ticks": 18576,
          "time": 77.4,
          "velocity": 0.7874015748031497
        },
        {
          "duration": 0.09999999999999432,
          "durationTicks": 24,
          "midi": 36,
          "name": "C2",
          "ticks": 18576,
          "time": 77.4,
          "velocity": 0.968503937007874
        },
        {
          "duration": 0.09999999999999432,
          "durationTicks": 24,
          "midi": 69,
          "name": "A4",
          "ticks": 18624,
          "time": 77.60000000000001,
          "velocity": 0.7874015748031497
        },
        {
          "duration": 0.09999999999999432,
          "durationTicks": 24,
          "midi": 42,
          "name": "F#2",
          "ticks": 18624,
          "time": 77.60000000000001,
          "velocity": 0.7874015748031497
        },
        {
          "duration": 0.09999999999999432,
          "durationTicks": 24,
          "midi": 36,
          "name": "C2",
          "ticks": 18624,
          "time": 77.60000000000001,
          "velocity": 0.968503937007874
        },
        {
          "duration": 0.10000000000000853,
          "durationTicks": 24,
          "midi": 69,
          "name": "A4",
          "ticks": 18648,
          "time": 77.7,
          "velocity": 0.7874015748031497
        },
        {
          "duration": 0.09999999999999432,
          "durationTicks": 24,
          "midi": 42,
          "name": "F#2",
          "ticks": 18672,
          "time": 77.80000000000001,
          "velocity": 0.7874015748031497
        },
        {
          "duration": 0.09999999999999432,
          "durationTicks": 24,
          "midi": 69,
          "name": "A4",
          "ticks": 18672,
          "time": 77.80000000000001,
          "velocity": 0.7874015748031497
        },
        {
          "duration": 0.10000000000000853,
          "durationTicks": 24,
          "midi": 69,
          "name": "A4",
          "ticks": 18720,
          "time": 78,
          "velocity": 0.7874015748031497
        },
        {
          "duration": 0.10000000000000853,
          "durationTicks": 24,
          "midi": 40,
          "name": "E2",
          "ticks": 18720,
          "time": 78,
          "velocity": 0.9133858267716536
        },
        {
          "duration": 0.10000000000000853,
          "durationTicks": 24,
          "midi": 42,
          "name": "F#2",
          "ticks": 18720,
          "time": 78,
          "velocity": 0.7874015748031497
        },
        {
          "duration": 0.09999999999999432,
          "durationTicks": 24,
          "midi": 69,
          "name": "A4",
          "ticks": 18744,
          "time": 78.10000000000001,
          "velocity": 0.7874015748031497
        },
        {
          "duration": 0.10000000000000853,
          "durationTicks": 24,
          "midi": 42,
          "name": "F#2",
          "ticks": 18768,
          "time": 78.2,
          "velocity": 0.7874015748031497
        },
        {
          "duration": 0.10000000000000853,
          "durationTicks": 24,
          "midi": 69,
          "name": "A4",
          "ticks": 18768,
          "time": 78.2,
          "velocity": 0.7874015748031497
        },
        {
          "duration": 0.09999999999999432,
          "durationTicks": 24,
          "midi": 42,
          "name": "F#2",
          "ticks": 18816,
          "time": 78.4,
          "velocity": 0.7874015748031497
        },
        {
          "duration": 0.09999999999999432,
          "durationTicks": 24,
          "midi": 36,
          "name": "C2",
          "ticks": 18816,
          "time": 78.4,
          "velocity": 0.968503937007874
        },
        {
          "duration": 0.09999999999999432,
          "durationTicks": 24,
          "midi": 69,
          "name": "A4",
          "ticks": 18816,
          "time": 78.4,
          "velocity": 0.7874015748031497
        },
        {
          "duration": 0.10000000000000853,
          "durationTicks": 24,
          "midi": 69,
          "name": "A4",
          "ticks": 18840,
          "time": 78.5,
          "velocity": 0.7874015748031497
        },
        {
          "duration": 0.09999999999999432,
          "durationTicks": 24,
          "midi": 69,
          "name": "A4",
          "ticks": 18864,
          "time": 78.60000000000001,
          "velocity": 0.7874015748031497
        },
        {
          "duration": 0.09999999999999432,
          "durationTicks": 24,
          "midi": 42,
          "name": "F#2",
          "ticks": 18864,
          "time": 78.60000000000001,
          "velocity": 0.7874015748031497
        },
        {
          "duration": 0.09999999999999432,
          "durationTicks": 24,
          "midi": 36,
          "name": "C2",
          "ticks": 18864,
          "time": 78.60000000000001,
          "velocity": 0.968503937007874
        },
        {
          "duration": 0.09999999999999432,
          "durationTicks": 24,
          "midi": 40,
          "name": "E2",
          "ticks": 18912,
          "time": 78.80000000000001,
          "velocity": 0.9133858267716536
        },
        {
          "duration": 0.09999999999999432,
          "durationTicks": 24,
          "midi": 42,
          "name": "F#2",
          "ticks": 18912,
          "time": 78.80000000000001,
          "velocity": 0.7874015748031497
        },
        {
          "duration": 0.09999999999999432,
          "durationTicks": 24,
          "midi": 69,
          "name": "A4",
          "ticks": 18912,
          "time": 78.80000000000001,
          "velocity": 0.7874015748031497
        },
        {
          "duration": 0.09999999999999432,
          "durationTicks": 24,
          "midi": 69,
          "name": "A4",
          "ticks": 18936,
          "time": 78.9,
          "velocity": 0.7874015748031497
        },
        {
          "duration": 0.10000000000000853,
          "durationTicks": 24,
          "midi": 69,
          "name": "A4",
          "ticks": 18960,
          "time": 79,
          "velocity": 0.7874015748031497
        },
        {
          "duration": 0.10000000000000853,
          "durationTicks": 24,
          "midi": 36,
          "name": "C2",
          "ticks": 18960,
          "time": 79,
          "velocity": 0.968503937007874
        },
        {
          "duration": 0.10000000000000853,
          "durationTicks": 24,
          "midi": 42,
          "name": "F#2",
          "ticks": 18960,
          "time": 79,
          "velocity": 0.7874015748031497
        },
        {
          "duration": 0.10000000000000853,
          "durationTicks": 24,
          "midi": 69,
          "name": "A4",
          "ticks": 19008,
          "time": 79.2,
          "velocity": 0.7874015748031497
        },
        {
          "duration": 0.10000000000000853,
          "durationTicks": 24,
          "midi": 42,
          "name": "F#2",
          "ticks": 19008,
          "time": 79.2,
          "velocity": 0.7874015748031497
        },
        {
          "duration": 0.09999999999999432,
          "durationTicks": 24,
          "midi": 69,
          "name": "A4",
          "ticks": 19032,
          "time": 79.30000000000001,
          "velocity": 0.7874015748031497
        },
        {
          "duration": 0.09999999999999432,
          "durationTicks": 24,
          "midi": 42,
          "name": "F#2",
          "ticks": 19056,
          "time": 79.4,
          "velocity": 0.7874015748031497
        },
        {
          "duration": 0.09999999999999432,
          "durationTicks": 24,
          "midi": 36,
          "name": "C2",
          "ticks": 19056,
          "time": 79.4,
          "velocity": 0.968503937007874
        },
        {
          "duration": 0.09999999999999432,
          "durationTicks": 24,
          "midi": 69,
          "name": "A4",
          "ticks": 19056,
          "time": 79.4,
          "velocity": 0.7874015748031497
        },
        {
          "duration": 0.09999999999999432,
          "durationTicks": 24,
          "midi": 40,
          "name": "E2",
          "ticks": 19104,
          "time": 79.60000000000001,
          "velocity": 0.9133858267716536
        },
        {
          "duration": 0.09999999999999432,
          "durationTicks": 24,
          "midi": 42,
          "name": "F#2",
          "ticks": 19104,
          "time": 79.60000000000001,
          "velocity": 0.7874015748031497
        },
        {
          "duration": 0.09999999999999432,
          "durationTicks": 24,
          "midi": 69,
          "name": "A4",
          "ticks": 19104,
          "time": 79.60000000000001,
          "velocity": 0.7874015748031497
        },
        {
          "duration": 0.10000000000000853,
          "durationTicks": 24,
          "midi": 69,
          "name": "A4",
          "ticks": 19128,
          "time": 79.7,
          "velocity": 0.7874015748031497
        },
        {
          "duration": 0.09999999999999432,
          "durationTicks": 24,
          "midi": 42,
          "name": "F#2",
          "ticks": 19152,
          "time": 79.80000000000001,
          "velocity": 0.7874015748031497
        },
        {
          "duration": 0.09999999999999432,
          "durationTicks": 24,
          "midi": 69,
          "name": "A4",
          "ticks": 19152,
          "time": 79.80000000000001,
          "velocity": 0.7874015748031497
        },
        {
          "duration": 0.10000000000000853,
          "durationTicks": 24,
          "midi": 36,
          "name": "C2",
          "ticks": 19200,
          "time": 80,
          "velocity": 0.968503937007874
        },
        {
          "duration": 0.10000000000000853,
          "durationTicks": 24,
          "midi": 42,
          "name": "F#2",
          "ticks": 19200,
          "time": 80,
          "velocity": 0.7874015748031497
        },
        {
          "duration": 0.10000000000000853,
          "durationTicks": 24,
          "midi": 69,
          "name": "A4",
          "ticks": 19200,
          "time": 80,
          "velocity": 0.7874015748031497
        },
        {
          "duration": 0.09999999999999432,
          "durationTicks": 24,
          "midi": 69,
          "name": "A4",
          "ticks": 19224,
          "time": 80.10000000000001,
          "velocity": 0.7874015748031497
        },
        {
          "duration": 0.10000000000000853,
          "durationTicks": 24,
          "midi": 42,
          "name": "F#2",
          "ticks": 19248,
          "time": 80.2,
          "velocity": 0.7874015748031497
        },
        {
          "duration": 0.10000000000000853,
          "durationTicks": 24,
          "midi": 69,
          "name": "A4",
          "ticks": 19248,
          "time": 80.2,
          "velocity": 0.7874015748031497
        },
        {
          "duration": 0.09999999999999432,
          "durationTicks": 24,
          "midi": 40,
          "name": "E2",
          "ticks": 19296,
          "time": 80.4,
          "velocity": 0.9133858267716536
        },
        {
          "duration": 0.09999999999999432,
          "durationTicks": 24,
          "midi": 42,
          "name": "F#2",
          "ticks": 19296,
          "time": 80.4,
          "velocity": 0.7874015748031497
        },
        {
          "duration": 0.09999999999999432,
          "durationTicks": 24,
          "midi": 69,
          "name": "A4",
          "ticks": 19296,
          "time": 80.4,
          "velocity": 0.7874015748031497
        },
        {
          "duration": 0.10000000000000853,
          "durationTicks": 24,
          "midi": 69,
          "name": "A4",
          "ticks": 19320,
          "time": 80.5,
          "velocity": 0.7874015748031497
        },
        {
          "duration": 0.09999999999999432,
          "durationTicks": 24,
          "midi": 42,
          "name": "F#2",
          "ticks": 19344,
          "time": 80.60000000000001,
          "velocity": 0.7874015748031497
        },
        {
          "duration": 0.09999999999999432,
          "durationTicks": 24,
          "midi": 36,
          "name": "C2",
          "ticks": 19344,
          "time": 80.60000000000001,
          "velocity": 0.968503937007874
        },
        {
          "duration": 0.09999999999999432,
          "durationTicks": 24,
          "midi": 69,
          "name": "A4",
          "ticks": 19344,
          "time": 80.60000000000001,
          "velocity": 0.7874015748031497
        },
        {
          "duration": 0.09999999999999432,
          "durationTicks": 24,
          "midi": 69,
          "name": "A4",
          "ticks": 19392,
          "time": 80.80000000000001,
          "velocity": 0.7874015748031497
        },
        {
          "duration": 0.09999999999999432,
          "durationTicks": 24,
          "midi": 42,
          "name": "F#2",
          "ticks": 19392,
          "time": 80.80000000000001,
          "velocity": 0.7874015748031497
        },
        {
          "duration": 0.09999999999999432,
          "durationTicks": 24,
          "midi": 36,
          "name": "C2",
          "ticks": 19392,
          "time": 80.80000000000001,
          "velocity": 0.968503937007874
        },
        {
          "duration": 0.09999999999999432,
          "durationTicks": 24,
          "midi": 69,
          "name": "A4",
          "ticks": 19416,
          "time": 80.9,
          "velocity": 0.7874015748031497
        },
        {
          "duration": 0.10000000000000853,
          "durationTicks": 24,
          "midi": 69,
          "name": "A4",
          "ticks": 19440,
          "time": 81,
          "velocity": 0.7874015748031497
        },
        {
          "duration": 0.10000000000000853,
          "durationTicks": 24,
          "midi": 42,
          "name": "F#2",
          "ticks": 19440,
          "time": 81,
          "velocity": 0.7874015748031497
        },
        {
          "duration": 0.10000000000000853,
          "durationTicks": 24,
          "midi": 69,
          "name": "A4",
          "ticks": 19488,
          "time": 81.2,
          "velocity": 0.7874015748031497
        },
        {
          "duration": 0.10000000000000853,
          "durationTicks": 24,
          "midi": 42,
          "name": "F#2",
          "ticks": 19488,
          "time": 81.2,
          "velocity": 0.7874015748031497
        },
        {
          "duration": 0.10000000000000853,
          "durationTicks": 24,
          "midi": 40,
          "name": "E2",
          "ticks": 19488,
          "time": 81.2,
          "velocity": 0.9133858267716536
        },
        {
          "duration": 0.09999999999999432,
          "durationTicks": 24,
          "midi": 69,
          "name": "A4",
          "ticks": 19512,
          "time": 81.30000000000001,
          "velocity": 0.7874015748031497
        },
        {
          "duration": 0.09999999999999432,
          "durationTicks": 24,
          "midi": 42,
          "name": "F#2",
          "ticks": 19536,
          "time": 81.4,
          "velocity": 0.7874015748031497
        },
        {
          "duration": 0.09999999999999432,
          "durationTicks": 24,
          "midi": 69,
          "name": "A4",
          "ticks": 19536,
          "time": 81.4,
          "velocity": 0.7874015748031497
        },
        {
          "duration": 0.09999999999999432,
          "durationTicks": 24,
          "midi": 42,
          "name": "F#2",
          "ticks": 19584,
          "time": 81.60000000000001,
          "velocity": 0.7874015748031497
        },
        {
          "duration": 0.09999999999999432,
          "durationTicks": 24,
          "midi": 36,
          "name": "C2",
          "ticks": 19584,
          "time": 81.60000000000001,
          "velocity": 0.968503937007874
        },
        {
          "duration": 0.09999999999999432,
          "durationTicks": 24,
          "midi": 69,
          "name": "A4",
          "ticks": 19584,
          "time": 81.60000000000001,
          "velocity": 0.7874015748031497
        },
        {
          "duration": 0.10000000000000853,
          "durationTicks": 24,
          "midi": 69,
          "name": "A4",
          "ticks": 19608,
          "time": 81.7,
          "velocity": 0.7874015748031497
        },
        {
          "duration": 0.09999999999999432,
          "durationTicks": 24,
          "midi": 42,
          "name": "F#2",
          "ticks": 19632,
          "time": 81.80000000000001,
          "velocity": 0.7874015748031497
        },
        {
          "duration": 0.09999999999999432,
          "durationTicks": 24,
          "midi": 69,
          "name": "A4",
          "ticks": 19632,
          "time": 81.80000000000001,
          "velocity": 0.7874015748031497
        },
        {
          "duration": 0.10000000000000853,
          "durationTicks": 24,
          "midi": 42,
          "name": "F#2",
          "ticks": 19680,
          "time": 82,
          "velocity": 0.7874015748031497
        },
        {
          "duration": 0.10000000000000853,
          "durationTicks": 24,
          "midi": 40,
          "name": "E2",
          "ticks": 19680,
          "time": 82,
          "velocity": 0.9133858267716536
        },
        {
          "duration": 0.10000000000000853,
          "durationTicks": 24,
          "midi": 69,
          "name": "A4",
          "ticks": 19680,
          "time": 82,
          "velocity": 0.7874015748031497
        },
        {
          "duration": 0.09999999999999432,
          "durationTicks": 24,
          "midi": 69,
          "name": "A4",
          "ticks": 19704,
          "time": 82.10000000000001,
          "velocity": 0.7874015748031497
        },
        {
          "duration": 0.10000000000000853,
          "durationTicks": 24,
          "midi": 69,
          "name": "A4",
          "ticks": 19728,
          "time": 82.2,
          "velocity": 0.7874015748031497
        },
        {
          "duration": 0.10000000000000853,
          "durationTicks": 24,
          "midi": 42,
          "name": "F#2",
          "ticks": 19728,
          "time": 82.2,
          "velocity": 0.7874015748031497
        },
        {
          "duration": 0.10000000000000853,
          "durationTicks": 24,
          "midi": 36,
          "name": "C2",
          "ticks": 19728,
          "time": 82.2,
          "velocity": 0.968503937007874
        },
        {
          "duration": 0.09999999999999432,
          "durationTicks": 24,
          "midi": 42,
          "name": "F#2",
          "ticks": 19776,
          "time": 82.4,
          "velocity": 0.7874015748031497
        },
        {
          "duration": 0.09999999999999432,
          "durationTicks": 24,
          "midi": 69,
          "name": "A4",
          "ticks": 19776,
          "time": 82.4,
          "velocity": 0.7874015748031497
        },
        {
          "duration": 0.10000000000000853,
          "durationTicks": 24,
          "midi": 69,
          "name": "A4",
          "ticks": 19800,
          "time": 82.5,
          "velocity": 0.7874015748031497
        },
        {
          "duration": 0.09999999999999432,
          "durationTicks": 24,
          "midi": 36,
          "name": "C2",
          "ticks": 19824,
          "time": 82.60000000000001,
          "velocity": 0.968503937007874
        },
        {
          "duration": 0.09999999999999432,
          "durationTicks": 24,
          "midi": 42,
          "name": "F#2",
          "ticks": 19824,
          "time": 82.60000000000001,
          "velocity": 0.7874015748031497
        },
        {
          "duration": 0.09999999999999432,
          "durationTicks": 24,
          "midi": 69,
          "name": "A4",
          "ticks": 19824,
          "time": 82.60000000000001,
          "velocity": 0.7874015748031497
        },
        {
          "duration": 0.09999999999999432,
          "durationTicks": 24,
          "midi": 40,
          "name": "E2",
          "ticks": 19872,
          "time": 82.80000000000001,
          "velocity": 0.9133858267716536
        },
        {
          "duration": 0.09999999999999432,
          "durationTicks": 24,
          "midi": 42,
          "name": "F#2",
          "ticks": 19872,
          "time": 82.80000000000001,
          "velocity": 0.7874015748031497
        },
        {
          "duration": 0.09999999999999432,
          "durationTicks": 24,
          "midi": 69,
          "name": "A4",
          "ticks": 19872,
          "time": 82.80000000000001,
          "velocity": 0.7874015748031497
        },
        {
          "duration": 0.09999999999999432,
          "durationTicks": 24,
          "midi": 69,
          "name": "A4",
          "ticks": 19896,
          "time": 82.9,
          "velocity": 0.7874015748031497
        },
        {
          "duration": 0.10000000000000853,
          "durationTicks": 24,
          "midi": 69,
          "name": "A4",
          "ticks": 19920,
          "time": 83,
          "velocity": 0.7874015748031497
        },
        {
          "duration": 0.10000000000000853,
          "durationTicks": 24,
          "midi": 42,
          "name": "F#2",
          "ticks": 19920,
          "time": 83,
          "velocity": 0.7874015748031497
        },
        {
          "duration": 0.10000000000000853,
          "durationTicks": 24,
          "midi": 69,
          "name": "A4",
          "ticks": 19968,
          "time": 83.2,
          "velocity": 0.7874015748031497
        },
        {
          "duration": 0.10000000000000853,
          "durationTicks": 24,
          "midi": 36,
          "name": "C2",
          "ticks": 19968,
          "time": 83.2,
          "velocity": 0.968503937007874
        },
        {
          "duration": 0.10000000000000853,
          "durationTicks": 24,
          "midi": 42,
          "name": "F#2",
          "ticks": 19968,
          "time": 83.2,
          "velocity": 0.7874015748031497
        },
        {
          "duration": 0.09999999999999432,
          "durationTicks": 24,
          "midi": 69,
          "name": "A4",
          "ticks": 19992,
          "time": 83.30000000000001,
          "velocity": 0.7874015748031497
        },
        {
          "duration": 0.09999999999999432,
          "durationTicks": 24,
          "midi": 42,
          "name": "F#2",
          "ticks": 20016,
          "time": 83.4,
          "velocity": 0.7874015748031497
        },
        {
          "duration": 0.09999999999999432,
          "durationTicks": 24,
          "midi": 69,
          "name": "A4",
          "ticks": 20016,
          "time": 83.4,
          "velocity": 0.7874015748031497
        },
        {
          "duration": 0.09999999999999432,
          "durationTicks": 24,
          "midi": 69,
          "name": "A4",
          "ticks": 20064,
          "time": 83.60000000000001,
          "velocity": 0.7874015748031497
        },
        {
          "duration": 0.09999999999999432,
          "durationTicks": 24,
          "midi": 42,
          "name": "F#2",
          "ticks": 20064,
          "time": 83.60000000000001,
          "velocity": 0.7874015748031497
        },
        {
          "duration": 0.09999999999999432,
          "durationTicks": 24,
          "midi": 40,
          "name": "E2",
          "ticks": 20064,
          "time": 83.60000000000001,
          "velocity": 0.9133858267716536
        },
        {
          "duration": 0.10000000000000853,
          "durationTicks": 24,
          "midi": 69,
          "name": "A4",
          "ticks": 20088,
          "time": 83.7,
          "velocity": 0.7874015748031497
        },
        {
          "duration": 0.09999999999999432,
          "durationTicks": 24,
          "midi": 69,
          "name": "A4",
          "ticks": 20112,
          "time": 83.80000000000001,
          "velocity": 0.7874015748031497
        },
        {
          "duration": 0.09999999999999432,
          "durationTicks": 24,
          "midi": 42,
          "name": "F#2",
          "ticks": 20112,
          "time": 83.80000000000001,
          "velocity": 0.7874015748031497
        },
        {
          "duration": 0.09999999999999432,
          "durationTicks": 24,
          "midi": 36,
          "name": "C2",
          "ticks": 20112,
          "time": 83.80000000000001,
          "velocity": 0.968503937007874
        },
        {
          "duration": 0.10000000000000853,
          "durationTicks": 24,
          "midi": 69,
          "name": "A4",
          "ticks": 20160,
          "time": 84,
          "velocity": 0.7874015748031497
        },
        {
          "duration": 0.10000000000000853,
          "durationTicks": 24,
          "midi": 42,
          "name": "F#2",
          "ticks": 20160,
          "time": 84,
          "velocity": 0.7874015748031497
        },
        {
          "duration": 0.10000000000000853,
          "durationTicks": 24,
          "midi": 36,
          "name": "C2",
          "ticks": 20160,
          "time": 84,
          "velocity": 0.968503937007874
        },
        {
          "duration": 0.09999999999999432,
          "durationTicks": 24,
          "midi": 69,
          "name": "A4",
          "ticks": 20184,
          "time": 84.10000000000001,
          "velocity": 0.7874015748031497
        },
        {
          "duration": 0.10000000000000853,
          "durationTicks": 24,
          "midi": 42,
          "name": "F#2",
          "ticks": 20208,
          "time": 84.2,
          "velocity": 0.7874015748031497
        },
        {
          "duration": 0.10000000000000853,
          "durationTicks": 24,
          "midi": 69,
          "name": "A4",
          "ticks": 20208,
          "time": 84.2,
          "velocity": 0.7874015748031497
        },
        {
          "duration": 0.09999999999999432,
          "durationTicks": 24,
          "midi": 69,
          "name": "A4",
          "ticks": 20256,
          "time": 84.4,
          "velocity": 0.7874015748031497
        },
        {
          "duration": 0.09999999999999432,
          "durationTicks": 24,
          "midi": 42,
          "name": "F#2",
          "ticks": 20256,
          "time": 84.4,
          "velocity": 0.7874015748031497
        },
        {
          "duration": 0.09999999999999432,
          "durationTicks": 24,
          "midi": 40,
          "name": "E2",
          "ticks": 20256,
          "time": 84.4,
          "velocity": 0.9133858267716536
        },
        {
          "duration": 0.10000000000000853,
          "durationTicks": 24,
          "midi": 69,
          "name": "A4",
          "ticks": 20280,
          "time": 84.5,
          "velocity": 0.7874015748031497
        },
        {
          "duration": 0.09999999999999432,
          "durationTicks": 24,
          "midi": 42,
          "name": "F#2",
          "ticks": 20304,
          "time": 84.60000000000001,
          "velocity": 0.7874015748031497
        },
        {
          "duration": 0.09999999999999432,
          "durationTicks": 24,
          "midi": 69,
          "name": "A4",
          "ticks": 20304,
          "time": 84.60000000000001,
          "velocity": 0.7874015748031497
        },
        {
          "duration": 0.09999999999999432,
          "durationTicks": 24,
          "midi": 43,
          "name": "G2",
          "ticks": 20352,
          "time": 84.80000000000001,
          "velocity": 0.968503937007874
        },
        {
          "duration": 0.09999999999999432,
          "durationTicks": 24,
          "midi": 45,
          "name": "A2",
          "ticks": 20352,
          "time": 84.80000000000001,
          "velocity": 0.952755905511811
        },
        {
          "duration": 0.10000000000000853,
          "durationTicks": 24,
          "midi": 43,
          "name": "G2",
          "ticks": 20400,
          "time": 85,
          "velocity": 0.968503937007874
        },
        {
          "duration": 0.10000000000000853,
          "durationTicks": 24,
          "midi": 45,
          "name": "A2",
          "ticks": 20400,
          "time": 85,
          "velocity": 0.952755905511811
        },
        {
          "duration": 0.10000000000000853,
          "durationTicks": 24,
          "midi": 45,
          "name": "A2",
          "ticks": 20448,
          "time": 85.2,
          "velocity": 0.952755905511811
        },
        {
          "duration": 0.10000000000000853,
          "durationTicks": 24,
          "midi": 43,
          "name": "G2",
          "ticks": 20448,
          "time": 85.2,
          "velocity": 0.968503937007874
        },
        {
          "duration": 0.09999999999999432,
          "durationTicks": 24,
          "midi": 45,
          "name": "A2",
          "ticks": 20496,
          "time": 85.4,
          "velocity": 0.952755905511811
        },
        {
          "duration": 0.09999999999999432,
          "durationTicks": 24,
          "midi": 43,
          "name": "G2",
          "ticks": 20496,
          "time": 85.4,
          "velocity": 0.968503937007874
        },
        {
          "duration": 0.09999999999999432,
          "durationTicks": 24,
          "midi": 45,
          "name": "A2",
          "ticks": 20544,
          "time": 85.60000000000001,
          "velocity": 0.952755905511811
        },
        {
          "duration": 0.09999999999999432,
          "durationTicks": 24,
          "midi": 43,
          "name": "G2",
          "ticks": 20544,
          "time": 85.60000000000001,
          "velocity": 0.968503937007874
        },
        {
          "duration": 0.09999999999999432,
          "durationTicks": 24,
          "midi": 45,
          "name": "A2",
          "ticks": 20592,
          "time": 85.80000000000001,
          "velocity": 0.952755905511811
        },
        {
          "duration": 0.09999999999999432,
          "durationTicks": 24,
          "midi": 43,
          "name": "G2",
          "ticks": 20592,
          "time": 85.80000000000001,
          "velocity": 0.968503937007874
        },
        {
          "duration": 0.10000000000000853,
          "durationTicks": 24,
          "midi": 45,
          "name": "A2",
          "ticks": 20640,
          "time": 86,
          "velocity": 0.952755905511811
        },
        {
          "duration": 0.10000000000000853,
          "durationTicks": 24,
          "midi": 43,
          "name": "G2",
          "ticks": 20640,
          "time": 86,
          "velocity": 0.968503937007874
        },
        {
          "duration": 0.10000000000000853,
          "durationTicks": 24,
          "midi": 45,
          "name": "A2",
          "ticks": 20688,
          "time": 86.2,
          "velocity": 0.952755905511811
        },
        {
          "duration": 0.10000000000000853,
          "durationTicks": 24,
          "midi": 43,
          "name": "G2",
          "ticks": 20688,
          "time": 86.2,
          "velocity": 0.968503937007874
        },
        {
          "duration": 0.09999999999999432,
          "durationTicks": 24,
          "midi": 43,
          "name": "G2",
          "ticks": 20712,
          "time": 86.30000000000001,
          "velocity": 0.968503937007874
        },
        {
          "duration": 0.09999999999999432,
          "durationTicks": 24,
          "midi": 45,
          "name": "A2",
          "ticks": 20712,
          "time": 86.30000000000001,
          "velocity": 1
        },
        {
          "duration": 0.09999999999999432,
          "durationTicks": 24,
          "midi": 36,
          "name": "C2",
          "ticks": 20736,
          "time": 86.4,
          "velocity": 0.968503937007874
        },
        {
          "duration": 0.09999999999999432,
          "durationTicks": 24,
          "midi": 49,
          "name": "C#3",
          "ticks": 20736,
          "time": 86.4,
          "velocity": 0.968503937007874
        },
        {
          "duration": 0.09999999999999432,
          "durationTicks": 24,
          "midi": 69,
          "name": "A4",
          "ticks": 20736,
          "time": 86.4,
          "velocity": 0.7874015748031497
        },
        {
          "duration": 0.10000000000000853,
          "durationTicks": 24,
          "midi": 69,
          "name": "A4",
          "ticks": 20760,
          "time": 86.5,
          "velocity": 0.7874015748031497
        },
        {
          "duration": 0.09999999999999432,
          "durationTicks": 24,
          "midi": 42,
          "name": "F#2",
          "ticks": 20784,
          "time": 86.60000000000001,
          "velocity": 0.7874015748031497
        },
        {
          "duration": 0.09999999999999432,
          "durationTicks": 24,
          "midi": 69,
          "name": "A4",
          "ticks": 20784,
          "time": 86.60000000000001,
          "velocity": 0.7874015748031497
        },
        {
          "duration": 0.09999999999999432,
          "durationTicks": 24,
          "midi": 40,
          "name": "E2",
          "ticks": 20832,
          "time": 86.80000000000001,
          "velocity": 0.9133858267716536
        },
        {
          "duration": 0.09999999999999432,
          "durationTicks": 24,
          "midi": 42,
          "name": "F#2",
          "ticks": 20832,
          "time": 86.80000000000001,
          "velocity": 0.7874015748031497
        },
        {
          "duration": 0.09999999999999432,
          "durationTicks": 24,
          "midi": 69,
          "name": "A4",
          "ticks": 20832,
          "time": 86.80000000000001,
          "velocity": 0.7874015748031497
        },
        {
          "duration": 0.09999999999999432,
          "durationTicks": 24,
          "midi": 69,
          "name": "A4",
          "ticks": 20856,
          "time": 86.9,
          "velocity": 0.7874015748031497
        },
        {
          "duration": 0.10000000000000853,
          "durationTicks": 24,
          "midi": 36,
          "name": "C2",
          "ticks": 20880,
          "time": 87,
          "velocity": 0.968503937007874
        },
        {
          "duration": 0.10000000000000853,
          "durationTicks": 24,
          "midi": 42,
          "name": "F#2",
          "ticks": 20880,
          "time": 87,
          "velocity": 0.7874015748031497
        },
        {
          "duration": 0.10000000000000853,
          "durationTicks": 24,
          "midi": 69,
          "name": "A4",
          "ticks": 20880,
          "time": 87,
          "velocity": 0.7874015748031497
        },
        {
          "duration": 0.10000000000000853,
          "durationTicks": 24,
          "midi": 69,
          "name": "A4",
          "ticks": 20928,
          "time": 87.2,
          "velocity": 0.7874015748031497
        },
        {
          "duration": 0.10000000000000853,
          "durationTicks": 24,
          "midi": 42,
          "name": "F#2",
          "ticks": 20928,
          "time": 87.2,
          "velocity": 0.7874015748031497
        },
        {
          "duration": 0.10000000000000853,
          "durationTicks": 24,
          "midi": 36,
          "name": "C2",
          "ticks": 20928,
          "time": 87.2,
          "velocity": 0.968503937007874
        },
        {
          "duration": 0.09999999999999432,
          "durationTicks": 24,
          "midi": 69,
          "name": "A4",
          "ticks": 20952,
          "time": 87.30000000000001,
          "velocity": 0.7874015748031497
        },
        {
          "duration": 0.09999999999999432,
          "durationTicks": 24,
          "midi": 69,
          "name": "A4",
          "ticks": 20976,
          "time": 87.4,
          "velocity": 0.7874015748031497
        },
        {
          "duration": 0.09999999999999432,
          "durationTicks": 24,
          "midi": 42,
          "name": "F#2",
          "ticks": 20976,
          "time": 87.4,
          "velocity": 0.7874015748031497
        },
        {
          "duration": 0.09999999999999432,
          "durationTicks": 24,
          "midi": 40,
          "name": "E2",
          "ticks": 21024,
          "time": 87.60000000000001,
          "velocity": 0.9133858267716536
        },
        {
          "duration": 0.09999999999999432,
          "durationTicks": 24,
          "midi": 42,
          "name": "F#2",
          "ticks": 21024,
          "time": 87.60000000000001,
          "velocity": 0.7874015748031497
        },
        {
          "duration": 0.09999999999999432,
          "durationTicks": 24,
          "midi": 69,
          "name": "A4",
          "ticks": 21024,
          "time": 87.60000000000001,
          "velocity": 0.7874015748031497
        },
        {
          "duration": 0.10000000000000853,
          "durationTicks": 24,
          "midi": 69,
          "name": "A4",
          "ticks": 21048,
          "time": 87.7,
          "velocity": 0.7874015748031497
        },
        {
          "duration": 0.09999999999999432,
          "durationTicks": 24,
          "midi": 42,
          "name": "F#2",
          "ticks": 21072,
          "time": 87.80000000000001,
          "velocity": 0.7874015748031497
        },
        {
          "duration": 0.09999999999999432,
          "durationTicks": 24,
          "midi": 69,
          "name": "A4",
          "ticks": 21072,
          "time": 87.80000000000001,
          "velocity": 0.7874015748031497
        },
        {
          "duration": 0.10000000000000853,
          "durationTicks": 24,
          "midi": 69,
          "name": "A4",
          "ticks": 21120,
          "time": 88,
          "velocity": 0.7874015748031497
        },
        {
          "duration": 0.10000000000000853,
          "durationTicks": 24,
          "midi": 42,
          "name": "F#2",
          "ticks": 21120,
          "time": 88,
          "velocity": 0.7874015748031497
        },
        {
          "duration": 0.10000000000000853,
          "durationTicks": 24,
          "midi": 36,
          "name": "C2",
          "ticks": 21120,
          "time": 88,
          "velocity": 0.968503937007874
        },
        {
          "duration": 0.09999999999999432,
          "durationTicks": 24,
          "midi": 69,
          "name": "A4",
          "ticks": 21144,
          "time": 88.10000000000001,
          "velocity": 0.7874015748031497
        },
        {
          "duration": 0.10000000000000853,
          "durationTicks": 24,
          "midi": 69,
          "name": "A4",
          "ticks": 21168,
          "time": 88.2,
          "velocity": 0.7874015748031497
        },
        {
          "duration": 0.10000000000000853,
          "durationTicks": 24,
          "midi": 42,
          "name": "F#2",
          "ticks": 21168,
          "time": 88.2,
          "velocity": 0.7874015748031497
        },
        {
          "duration": 0.09999999999999432,
          "durationTicks": 24,
          "midi": 69,
          "name": "A4",
          "ticks": 21216,
          "time": 88.4,
          "velocity": 0.7874015748031497
        },
        {
          "duration": 0.09999999999999432,
          "durationTicks": 24,
          "midi": 42,
          "name": "F#2",
          "ticks": 21216,
          "time": 88.4,
          "velocity": 0.7874015748031497
        },
        {
          "duration": 0.09999999999999432,
          "durationTicks": 24,
          "midi": 40,
          "name": "E2",
          "ticks": 21216,
          "time": 88.4,
          "velocity": 0.9133858267716536
        },
        {
          "duration": 0.10000000000000853,
          "durationTicks": 24,
          "midi": 69,
          "name": "A4",
          "ticks": 21240,
          "time": 88.5,
          "velocity": 0.7874015748031497
        },
        {
          "duration": 0.09999999999999432,
          "durationTicks": 24,
          "midi": 36,
          "name": "C2",
          "ticks": 21264,
          "time": 88.60000000000001,
          "velocity": 0.968503937007874
        },
        {
          "duration": 0.09999999999999432,
          "durationTicks": 24,
          "midi": 42,
          "name": "F#2",
          "ticks": 21264,
          "time": 88.60000000000001,
          "velocity": 0.7874015748031497
        },
        {
          "duration": 0.09999999999999432,
          "durationTicks": 24,
          "midi": 69,
          "name": "A4",
          "ticks": 21264,
          "time": 88.60000000000001,
          "velocity": 0.7874015748031497
        },
        {
          "duration": 0.09999999999999432,
          "durationTicks": 24,
          "midi": 69,
          "name": "A4",
          "ticks": 21312,
          "time": 88.80000000000001,
          "velocity": 0.7874015748031497
        },
        {
          "duration": 0.09999999999999432,
          "durationTicks": 24,
          "midi": 42,
          "name": "F#2",
          "ticks": 21312,
          "time": 88.80000000000001,
          "velocity": 0.7874015748031497
        },
        {
          "duration": 0.09999999999999432,
          "durationTicks": 24,
          "midi": 69,
          "name": "A4",
          "ticks": 21336,
          "time": 88.9,
          "velocity": 0.7874015748031497
        },
        {
          "duration": 0.10000000000000853,
          "durationTicks": 24,
          "midi": 36,
          "name": "C2",
          "ticks": 21360,
          "time": 89,
          "velocity": 0.968503937007874
        },
        {
          "duration": 0.10000000000000853,
          "durationTicks": 24,
          "midi": 42,
          "name": "F#2",
          "ticks": 21360,
          "time": 89,
          "velocity": 0.7874015748031497
        },
        {
          "duration": 0.10000000000000853,
          "durationTicks": 24,
          "midi": 69,
          "name": "A4",
          "ticks": 21360,
          "time": 89,
          "velocity": 0.7874015748031497
        },
        {
          "duration": 0.10000000000000853,
          "durationTicks": 24,
          "midi": 40,
          "name": "E2",
          "ticks": 21408,
          "time": 89.2,
          "velocity": 0.9133858267716536
        },
        {
          "duration": 0.10000000000000853,
          "durationTicks": 24,
          "midi": 42,
          "name": "F#2",
          "ticks": 21408,
          "time": 89.2,
          "velocity": 0.7874015748031497
        },
        {
          "duration": 0.10000000000000853,
          "durationTicks": 24,
          "midi": 69,
          "name": "A4",
          "ticks": 21408,
          "time": 89.2,
          "velocity": 0.7874015748031497
        },
        {
          "duration": 0.09999999999999432,
          "durationTicks": 24,
          "midi": 69,
          "name": "A4",
          "ticks": 21432,
          "time": 89.30000000000001,
          "velocity": 0.7874015748031497
        },
        {
          "duration": 0.09999999999999432,
          "durationTicks": 24,
          "midi": 69,
          "name": "A4",
          "ticks": 21456,
          "time": 89.4,
          "velocity": 0.7874015748031497
        },
        {
          "duration": 0.09999999999999432,
          "durationTicks": 24,
          "midi": 42,
          "name": "F#2",
          "ticks": 21456,
          "time": 89.4,
          "velocity": 0.7874015748031497
        },
        {
          "duration": 0.09999999999999432,
          "durationTicks": 24,
          "midi": 69,
          "name": "A4",
          "ticks": 21504,
          "time": 89.60000000000001,
          "velocity": 0.7874015748031497
        },
        {
          "duration": 0.09999999999999432,
          "durationTicks": 24,
          "midi": 42,
          "name": "F#2",
          "ticks": 21504,
          "time": 89.60000000000001,
          "velocity": 0.7874015748031497
        },
        {
          "duration": 0.09999999999999432,
          "durationTicks": 24,
          "midi": 36,
          "name": "C2",
          "ticks": 21504,
          "time": 89.60000000000001,
          "velocity": 0.968503937007874
        },
        {
          "duration": 0.10000000000000853,
          "durationTicks": 24,
          "midi": 69,
          "name": "A4",
          "ticks": 21528,
          "time": 89.7,
          "velocity": 0.7874015748031497
        },
        {
          "duration": 0.09999999999999432,
          "durationTicks": 24,
          "midi": 42,
          "name": "F#2",
          "ticks": 21552,
          "time": 89.80000000000001,
          "velocity": 0.7874015748031497
        },
        {
          "duration": 0.09999999999999432,
          "durationTicks": 24,
          "midi": 69,
          "name": "A4",
          "ticks": 21552,
          "time": 89.80000000000001,
          "velocity": 0.7874015748031497
        },
        {
          "duration": 0.10000000000000853,
          "durationTicks": 24,
          "midi": 69,
          "name": "A4",
          "ticks": 21600,
          "time": 90,
          "velocity": 0.7874015748031497
        },
        {
          "duration": 0.10000000000000853,
          "durationTicks": 24,
          "midi": 42,
          "name": "F#2",
          "ticks": 21600,
          "time": 90,
          "velocity": 0.7874015748031497
        },
        {
          "duration": 0.10000000000000853,
          "durationTicks": 24,
          "midi": 40,
          "name": "E2",
          "ticks": 21600,
          "time": 90,
          "velocity": 0.9133858267716536
        },
        {
          "duration": 0.09999999999999432,
          "durationTicks": 24,
          "midi": 69,
          "name": "A4",
          "ticks": 21624,
          "time": 90.10000000000001,
          "velocity": 0.7874015748031497
        },
        {
          "duration": 0.10000000000000853,
          "durationTicks": 24,
          "midi": 69,
          "name": "A4",
          "ticks": 21648,
          "time": 90.2,
          "velocity": 0.7874015748031497
        },
        {
          "duration": 0.10000000000000853,
          "durationTicks": 24,
          "midi": 42,
          "name": "F#2",
          "ticks": 21648,
          "time": 90.2,
          "velocity": 0.7874015748031497
        },
        {
          "duration": 0.10000000000000853,
          "durationTicks": 24,
          "midi": 36,
          "name": "C2",
          "ticks": 21648,
          "time": 90.2,
          "velocity": 0.968503937007874
        },
        {
          "duration": 0.09999999999999432,
          "durationTicks": 24,
          "midi": 36,
          "name": "C2",
          "ticks": 21696,
          "time": 90.4,
          "velocity": 0.968503937007874
        },
        {
          "duration": 0.09999999999999432,
          "durationTicks": 24,
          "midi": 42,
          "name": "F#2",
          "ticks": 21696,
          "time": 90.4,
          "velocity": 0.7874015748031497
        },
        {
          "duration": 0.09999999999999432,
          "durationTicks": 24,
          "midi": 69,
          "name": "A4",
          "ticks": 21696,
          "time": 90.4,
          "velocity": 0.7874015748031497
        },
        {
          "duration": 0.10000000000000853,
          "durationTicks": 24,
          "midi": 69,
          "name": "A4",
          "ticks": 21720,
          "time": 90.5,
          "velocity": 0.7874015748031497
        },
        {
          "duration": 0.09999999999999432,
          "durationTicks": 24,
          "midi": 69,
          "name": "A4",
          "ticks": 21744,
          "time": 90.60000000000001,
          "velocity": 0.7874015748031497
        },
        {
          "duration": 0.09999999999999432,
          "durationTicks": 24,
          "midi": 42,
          "name": "F#2",
          "ticks": 21744,
          "time": 90.60000000000001,
          "velocity": 0.7874015748031497
        },
        {
          "duration": 0.09999999999999432,
          "durationTicks": 24,
          "midi": 69,
          "name": "A4",
          "ticks": 21792,
          "time": 90.80000000000001,
          "velocity": 0.7874015748031497
        },
        {
          "duration": 0.09999999999999432,
          "durationTicks": 24,
          "midi": 42,
          "name": "F#2",
          "ticks": 21792,
          "time": 90.80000000000001,
          "velocity": 0.7874015748031497
        },
        {
          "duration": 0.09999999999999432,
          "durationTicks": 24,
          "midi": 40,
          "name": "E2",
          "ticks": 21792,
          "time": 90.80000000000001,
          "velocity": 0.9133858267716536
        },
        {
          "duration": 0.09999999999999432,
          "durationTicks": 24,
          "midi": 69,
          "name": "A4",
          "ticks": 21816,
          "time": 90.9,
          "velocity": 0.7874015748031497
        },
        {
          "duration": 0.10000000000000853,
          "durationTicks": 24,
          "midi": 69,
          "name": "A4",
          "ticks": 21840,
          "time": 91,
          "velocity": 0.7874015748031497
        },
        {
          "duration": 0.10000000000000853,
          "durationTicks": 24,
          "midi": 42,
          "name": "F#2",
          "ticks": 21840,
          "time": 91,
          "velocity": 0.7874015748031497
        },
        {
          "duration": 0.10000000000000853,
          "durationTicks": 24,
          "midi": 36,
          "name": "C2",
          "ticks": 21888,
          "time": 91.2,
          "velocity": 0.968503937007874
        },
        {
          "duration": 0.10000000000000853,
          "durationTicks": 24,
          "midi": 42,
          "name": "F#2",
          "ticks": 21888,
          "time": 91.2,
          "velocity": 0.7874015748031497
        },
        {
          "duration": 0.10000000000000853,
          "durationTicks": 24,
          "midi": 69,
          "name": "A4",
          "ticks": 21888,
          "time": 91.2,
          "velocity": 0.7874015748031497
        },
        {
          "duration": 0.09999999999999432,
          "durationTicks": 24,
          "midi": 69,
          "name": "A4",
          "ticks": 21912,
          "time": 91.30000000000001,
          "velocity": 0.7874015748031497
        },
        {
          "duration": 0.09999999999999432,
          "durationTicks": 24,
          "midi": 36,
          "name": "C2",
          "ticks": 21936,
          "time": 91.4,
          "velocity": 0.968503937007874
        },
        {
          "duration": 0.09999999999999432,
          "durationTicks": 24,
          "midi": 42,
          "name": "F#2",
          "ticks": 21936,
          "time": 91.4,
          "velocity": 0.7874015748031497
        },
        {
          "duration": 0.09999999999999432,
          "durationTicks": 24,
          "midi": 69,
          "name": "A4",
          "ticks": 21936,
          "time": 91.4,
          "velocity": 0.7874015748031497
        },
        {
          "duration": 0.09999999999999432,
          "durationTicks": 24,
          "midi": 40,
          "name": "E2",
          "ticks": 21984,
          "time": 91.60000000000001,
          "velocity": 0.9133858267716536
        },
        {
          "duration": 0.09999999999999432,
          "durationTicks": 24,
          "midi": 42,
          "name": "F#2",
          "ticks": 21984,
          "time": 91.60000000000001,
          "velocity": 0.7874015748031497
        },
        {
          "duration": 0.09999999999999432,
          "durationTicks": 24,
          "midi": 69,
          "name": "A4",
          "ticks": 21984,
          "time": 91.60000000000001,
          "velocity": 0.7874015748031497
        },
        {
          "duration": 0.10000000000000853,
          "durationTicks": 24,
          "midi": 69,
          "name": "A4",
          "ticks": 22008,
          "time": 91.7,
          "velocity": 0.7874015748031497
        },
        {
          "duration": 0.09999999999999432,
          "durationTicks": 24,
          "midi": 69,
          "name": "A4",
          "ticks": 22032,
          "time": 91.80000000000001,
          "velocity": 0.7874015748031497
        },
        {
          "duration": 0.09999999999999432,
          "durationTicks": 24,
          "midi": 42,
          "name": "F#2",
          "ticks": 22032,
          "time": 91.80000000000001,
          "velocity": 0.7874015748031497
        },
        {
          "duration": 0.09999999999999432,
          "durationTicks": 24,
          "midi": 36,
          "name": "C2",
          "ticks": 22032,
          "time": 91.80000000000001,
          "velocity": 0.968503937007874
        },
        {
          "duration": 0.10000000000000853,
          "durationTicks": 24,
          "midi": 42,
          "name": "F#2",
          "ticks": 22080,
          "time": 92,
          "velocity": 0.7874015748031497
        },
        {
          "duration": 0.10000000000000853,
          "durationTicks": 24,
          "midi": 69,
          "name": "A4",
          "ticks": 22080,
          "time": 92,
          "velocity": 0.7874015748031497
        },
        {
          "duration": 0.09999999999999432,
          "durationTicks": 24,
          "midi": 69,
          "name": "A4",
          "ticks": 22104,
          "time": 92.10000000000001,
          "velocity": 0.7874015748031497
        },
        {
          "duration": 0.10000000000000853,
          "durationTicks": 24,
          "midi": 69,
          "name": "A4",
          "ticks": 22128,
          "time": 92.2,
          "velocity": 0.7874015748031497
        },
        {
          "duration": 0.10000000000000853,
          "durationTicks": 24,
          "midi": 42,
          "name": "F#2",
          "ticks": 22128,
          "time": 92.2,
          "velocity": 0.7874015748031497
        },
        {
          "duration": 0.10000000000000853,
          "durationTicks": 24,
          "midi": 36,
          "name": "C2",
          "ticks": 22128,
          "time": 92.2,
          "velocity": 0.968503937007874
        },
        {
          "duration": 0.09999999999999432,
          "durationTicks": 24,
          "midi": 69,
          "name": "A4",
          "ticks": 22176,
          "time": 92.4,
          "velocity": 0.7874015748031497
        },
        {
          "duration": 0.09999999999999432,
          "durationTicks": 24,
          "midi": 42,
          "name": "F#2",
          "ticks": 22176,
          "time": 92.4,
          "velocity": 0.7874015748031497
        },
        {
          "duration": 0.09999999999999432,
          "durationTicks": 24,
          "midi": 40,
          "name": "E2",
          "ticks": 22176,
          "time": 92.4,
          "velocity": 0.9133858267716536
        },
        {
          "duration": 0.10000000000000853,
          "durationTicks": 24,
          "midi": 69,
          "name": "A4",
          "ticks": 22200,
          "time": 92.5,
          "velocity": 0.7874015748031497
        },
        {
          "duration": 0.09999999999999432,
          "durationTicks": 24,
          "midi": 69,
          "name": "A4",
          "ticks": 22224,
          "time": 92.60000000000001,
          "velocity": 0.7874015748031497
        },
        {
          "duration": 0.09999999999999432,
          "durationTicks": 24,
          "midi": 42,
          "name": "F#2",
          "ticks": 22224,
          "time": 92.60000000000001,
          "velocity": 0.7874015748031497
        },
        {
          "duration": 0.09999999999999432,
          "durationTicks": 24,
          "midi": 36,
          "name": "C2",
          "ticks": 22272,
          "time": 92.80000000000001,
          "velocity": 0.968503937007874
        },
        {
          "duration": 0.09999999999999432,
          "durationTicks": 24,
          "midi": 49,
          "name": "C#3",
          "ticks": 22272,
          "time": 92.80000000000001,
          "velocity": 0.968503937007874
        },
        {
          "duration": 0.09999999999999432,
          "durationTicks": 24,
          "midi": 69,
          "name": "A4",
          "ticks": 22272,
          "time": 92.80000000000001,
          "velocity": 0.7874015748031497
        },
        {
          "duration": 0.09999999999999432,
          "durationTicks": 24,
          "midi": 69,
          "name": "A4",
          "ticks": 22296,
          "time": 92.9,
          "velocity": 0.7874015748031497
        },
        {
          "duration": 0.10000000000000853,
          "durationTicks": 24,
          "midi": 69,
          "name": "A4",
          "ticks": 22320,
          "time": 93,
          "velocity": 0.7874015748031497
        },
        {
          "duration": 0.10000000000000853,
          "durationTicks": 24,
          "midi": 42,
          "name": "F#2",
          "ticks": 22320,
          "time": 93,
          "velocity": 0.7874015748031497
        },
        {
          "duration": 0.10000000000000853,
          "durationTicks": 24,
          "midi": 69,
          "name": "A4",
          "ticks": 22368,
          "time": 93.2,
          "velocity": 0.7874015748031497
        },
        {
          "duration": 0.10000000000000853,
          "durationTicks": 24,
          "midi": 42,
          "name": "F#2",
          "ticks": 22368,
          "time": 93.2,
          "velocity": 0.7874015748031497
        },
        {
          "duration": 0.10000000000000853,
          "durationTicks": 24,
          "midi": 40,
          "name": "E2",
          "ticks": 22368,
          "time": 93.2,
          "velocity": 0.9133858267716536
        },
        {
          "duration": 0.09999999999999432,
          "durationTicks": 24,
          "midi": 69,
          "name": "A4",
          "ticks": 22392,
          "time": 93.30000000000001,
          "velocity": 0.7874015748031497
        },
        {
          "duration": 0.09999999999999432,
          "durationTicks": 24,
          "midi": 69,
          "name": "A4",
          "ticks": 22416,
          "time": 93.4,
          "velocity": 0.7874015748031497
        },
        {
          "duration": 0.09999999999999432,
          "durationTicks": 24,
          "midi": 42,
          "name": "F#2",
          "ticks": 22416,
          "time": 93.4,
          "velocity": 0.7874015748031497
        },
        {
          "duration": 0.09999999999999432,
          "durationTicks": 24,
          "midi": 36,
          "name": "C2",
          "ticks": 22416,
          "time": 93.4,
          "velocity": 0.968503937007874
        },
        {
          "duration": 0.09999999999999432,
          "durationTicks": 24,
          "midi": 36,
          "name": "C2",
          "ticks": 22464,
          "time": 93.60000000000001,
          "velocity": 0.968503937007874
        },
        {
          "duration": 0.09999999999999432,
          "durationTicks": 24,
          "midi": 49,
          "name": "C#3",
          "ticks": 22464,
          "time": 93.60000000000001,
          "velocity": 0.968503937007874
        },
        {
          "duration": 0.09999999999999432,
          "durationTicks": 24,
          "midi": 69,
          "name": "A4",
          "ticks": 22464,
          "time": 93.60000000000001,
          "velocity": 0.7874015748031497
        },
        {
          "duration": 0.10000000000000853,
          "durationTicks": 24,
          "midi": 69,
          "name": "A4",
          "ticks": 22488,
          "time": 93.7,
          "velocity": 0.7874015748031497
        },
        {
          "duration": 0.09999999999999432,
          "durationTicks": 24,
          "midi": 42,
          "name": "F#2",
          "ticks": 22512,
          "time": 93.80000000000001,
          "velocity": 0.7874015748031497
        },
        {
          "duration": 0.09999999999999432,
          "durationTicks": 24,
          "midi": 69,
          "name": "A4",
          "ticks": 22512,
          "time": 93.80000000000001,
          "velocity": 0.7874015748031497
        },
        {
          "duration": 0.10000000000000853,
          "durationTicks": 24,
          "midi": 69,
          "name": "A4",
          "ticks": 22560,
          "time": 94,
          "velocity": 0.7874015748031497
        },
        {
          "duration": 0.10000000000000853,
          "durationTicks": 24,
          "midi": 42,
          "name": "F#2",
          "ticks": 22560,
          "time": 94,
          "velocity": 0.7874015748031497
        },
        {
          "duration": 0.10000000000000853,
          "durationTicks": 24,
          "midi": 40,
          "name": "E2",
          "ticks": 22560,
          "time": 94,
          "velocity": 0.9133858267716536
        },
        {
          "duration": 0.09999999999999432,
          "durationTicks": 24,
          "midi": 69,
          "name": "A4",
          "ticks": 22584,
          "time": 94.10000000000001,
          "velocity": 0.7874015748031497
        },
        {
          "duration": 0.10000000000000853,
          "durationTicks": 24,
          "midi": 42,
          "name": "F#2",
          "ticks": 22608,
          "time": 94.2,
          "velocity": 0.7874015748031497
        },
        {
          "duration": 0.10000000000000853,
          "durationTicks": 24,
          "midi": 69,
          "name": "A4",
          "ticks": 22608,
          "time": 94.2,
          "velocity": 0.7874015748031497
        },
        {
          "duration": 0.09999999999999432,
          "durationTicks": 24,
          "midi": 36,
          "name": "C2",
          "ticks": 22656,
          "time": 94.4,
          "velocity": 0.968503937007874
        },
        {
          "duration": 0.09999999999999432,
          "durationTicks": 24,
          "midi": 42,
          "name": "F#2",
          "ticks": 22656,
          "time": 94.4,
          "velocity": 0.7874015748031497
        },
        {
          "duration": 0.09999999999999432,
          "durationTicks": 24,
          "midi": 69,
          "name": "A4",
          "ticks": 22656,
          "time": 94.4,
          "velocity": 0.7874015748031497
        },
        {
          "duration": 0.10000000000000853,
          "durationTicks": 24,
          "midi": 69,
          "name": "A4",
          "ticks": 22680,
          "time": 94.5,
          "velocity": 0.7874015748031497
        },
        {
          "duration": 0.09999999999999432,
          "durationTicks": 24,
          "midi": 42,
          "name": "F#2",
          "ticks": 22704,
          "time": 94.60000000000001,
          "velocity": 0.7874015748031497
        },
        {
          "duration": 0.09999999999999432,
          "durationTicks": 24,
          "midi": 69,
          "name": "A4",
          "ticks": 22704,
          "time": 94.60000000000001,
          "velocity": 0.7874015748031497
        },
        {
          "duration": 0.09999999999999432,
          "durationTicks": 24,
          "midi": 69,
          "name": "A4",
          "ticks": 22752,
          "time": 94.80000000000001,
          "velocity": 0.7874015748031497
        },
        {
          "duration": 0.09999999999999432,
          "durationTicks": 24,
          "midi": 42,
          "name": "F#2",
          "ticks": 22752,
          "time": 94.80000000000001,
          "velocity": 0.7874015748031497
        },
        {
          "duration": 0.09999999999999432,
          "durationTicks": 24,
          "midi": 40,
          "name": "E2",
          "ticks": 22752,
          "time": 94.80000000000001,
          "velocity": 0.9133858267716536
        },
        {
          "duration": 0.09999999999999432,
          "durationTicks": 24,
          "midi": 69,
          "name": "A4",
          "ticks": 22776,
          "time": 94.9,
          "velocity": 0.7874015748031497
        },
        {
          "duration": 0.10000000000000853,
          "durationTicks": 24,
          "midi": 36,
          "name": "C2",
          "ticks": 22800,
          "time": 95,
          "velocity": 0.968503937007874
        },
        {
          "duration": 0.10000000000000853,
          "durationTicks": 24,
          "midi": 49,
          "name": "C#3",
          "ticks": 22800,
          "time": 95,
          "velocity": 0.968503937007874
        },
        {
          "duration": 0.10000000000000853,
          "durationTicks": 24,
          "midi": 69,
          "name": "A4",
          "ticks": 22800,
          "time": 95,
          "velocity": 0.7874015748031497
        },
        {
          "duration": 0.10000000000000853,
          "durationTicks": 24,
          "midi": 42,
          "name": "F#2",
          "ticks": 22848,
          "time": 95.2,
          "velocity": 0.7874015748031497
        },
        {
          "duration": 0.10000000000000853,
          "durationTicks": 24,
          "midi": 69,
          "name": "A4",
          "ticks": 22848,
          "time": 95.2,
          "velocity": 0.7874015748031497
        },
        {
          "duration": 0.09999999999999432,
          "durationTicks": 24,
          "midi": 69,
          "name": "A4",
          "ticks": 22872,
          "time": 95.30000000000001,
          "velocity": 0.7874015748031497
        },
        {
          "duration": 0.09999999999999432,
          "durationTicks": 24,
          "midi": 69,
          "name": "A4",
          "ticks": 22896,
          "time": 95.4,
          "velocity": 0.7874015748031497
        },
        {
          "duration": 0.09999999999999432,
          "durationTicks": 24,
          "midi": 36,
          "name": "C2",
          "ticks": 22896,
          "time": 95.4,
          "velocity": 0.968503937007874
        },
        {
          "duration": 0.09999999999999432,
          "durationTicks": 24,
          "midi": 42,
          "name": "F#2",
          "ticks": 22896,
          "time": 95.4,
          "velocity": 0.7874015748031497
        },
        {
          "duration": 0.09999999999999432,
          "durationTicks": 24,
          "midi": 69,
          "name": "A4",
          "ticks": 22944,
          "time": 95.60000000000001,
          "velocity": 0.7874015748031497
        },
        {
          "duration": 0.09999999999999432,
          "durationTicks": 24,
          "midi": 42,
          "name": "F#2",
          "ticks": 22944,
          "time": 95.60000000000001,
          "velocity": 0.7874015748031497
        },
        {
          "duration": 0.09999999999999432,
          "durationTicks": 24,
          "midi": 40,
          "name": "E2",
          "ticks": 22944,
          "time": 95.60000000000001,
          "velocity": 0.9133858267716536
        },
        {
          "duration": 0.10000000000000853,
          "durationTicks": 24,
          "midi": 69,
          "name": "A4",
          "ticks": 22968,
          "time": 95.7,
          "velocity": 0.7874015748031497
        },
        {
          "duration": 0.09999999999999432,
          "durationTicks": 24,
          "midi": 42,
          "name": "F#2",
          "ticks": 22992,
          "time": 95.80000000000001,
          "velocity": 0.7874015748031497
        },
        {
          "duration": 0.09999999999999432,
          "durationTicks": 24,
          "midi": 69,
          "name": "A4",
          "ticks": 22992,
          "time": 95.80000000000001,
          "velocity": 0.7874015748031497
        },
        {
          "duration": 0.10000000000000853,
          "durationTicks": 24,
          "midi": 49,
          "name": "C#3",
          "ticks": 23040,
          "time": 96,
          "velocity": 0.968503937007874
        },
        {
          "duration": 0.10000000000000853,
          "durationTicks": 24,
          "midi": 36,
          "name": "C2",
          "ticks": 23040,
          "time": 96,
          "velocity": 0.968503937007874
        },
        {
          "duration": 0.10000000000000853,
          "durationTicks": 24,
          "midi": 69,
          "name": "A4",
          "ticks": 23040,
          "time": 96,
          "velocity": 0.7874015748031497
        },
        {
          "duration": 0.09999999999999432,
          "durationTicks": 24,
          "midi": 69,
          "name": "A4",
          "ticks": 23064,
          "time": 96.10000000000001,
          "velocity": 0.7874015748031497
        },
        {
          "duration": 0.10000000000000853,
          "durationTicks": 24,
          "midi": 69,
          "name": "A4",
          "ticks": 23088,
          "time": 96.2,
          "velocity": 0.7874015748031497
        },
        {
          "duration": 0.10000000000000853,
          "durationTicks": 24,
          "midi": 42,
          "name": "F#2",
          "ticks": 23088,
          "time": 96.2,
          "velocity": 0.7874015748031497
        },
        {
          "duration": 0.09999999999999432,
          "durationTicks": 24,
          "midi": 40,
          "name": "E2",
          "ticks": 23136,
          "time": 96.4,
          "velocity": 0.9133858267716536
        },
        {
          "duration": 0.09999999999999432,
          "durationTicks": 24,
          "midi": 42,
          "name": "F#2",
          "ticks": 23136,
          "time": 96.4,
          "velocity": 0.7874015748031497
        },
        {
          "duration": 0.09999999999999432,
          "durationTicks": 24,
          "midi": 69,
          "name": "A4",
          "ticks": 23136,
          "time": 96.4,
          "velocity": 0.7874015748031497
        },
        {
          "duration": 0.10000000000000853,
          "durationTicks": 24,
          "midi": 69,
          "name": "A4",
          "ticks": 23160,
          "time": 96.5,
          "velocity": 0.7874015748031497
        },
        {
          "duration": 0.09999999999999432,
          "durationTicks": 24,
          "midi": 42,
          "name": "F#2",
          "ticks": 23184,
          "time": 96.60000000000001,
          "velocity": 0.7874015748031497
        },
        {
          "duration": 0.09999999999999432,
          "durationTicks": 24,
          "midi": 36,
          "name": "C2",
          "ticks": 23184,
          "time": 96.60000000000001,
          "velocity": 0.968503937007874
        },
        {
          "duration": 0.09999999999999432,
          "durationTicks": 24,
          "midi": 69,
          "name": "A4",
          "ticks": 23184,
          "time": 96.60000000000001,
          "velocity": 0.7874015748031497
        },
        {
          "duration": 0.09999999999999432,
          "durationTicks": 24,
          "midi": 36,
          "name": "C2",
          "ticks": 23232,
          "time": 96.80000000000001,
          "velocity": 0.968503937007874
        },
        {
          "duration": 0.09999999999999432,
          "durationTicks": 24,
          "midi": 42,
          "name": "F#2",
          "ticks": 23232,
          "time": 96.80000000000001,
          "velocity": 0.7874015748031497
        },
        {
          "duration": 0.09999999999999432,
          "durationTicks": 24,
          "midi": 69,
          "name": "A4",
          "ticks": 23232,
          "time": 96.80000000000001,
          "velocity": 0.7874015748031497
        },
        {
          "duration": 0.09999999999999432,
          "durationTicks": 24,
          "midi": 69,
          "name": "A4",
          "ticks": 23256,
          "time": 96.9,
          "velocity": 0.7874015748031497
        },
        {
          "duration": 0.10000000000000853,
          "durationTicks": 24,
          "midi": 69,
          "name": "A4",
          "ticks": 23280,
          "time": 97,
          "velocity": 0.7874015748031497
        },
        {
          "duration": 0.10000000000000853,
          "durationTicks": 24,
          "midi": 42,
          "name": "F#2",
          "ticks": 23280,
          "time": 97,
          "velocity": 0.7874015748031497
        },
        {
          "duration": 0.10000000000000853,
          "durationTicks": 24,
          "midi": 69,
          "name": "A4",
          "ticks": 23328,
          "time": 97.2,
          "velocity": 0.7874015748031497
        },
        {
          "duration": 0.10000000000000853,
          "durationTicks": 24,
          "midi": 42,
          "name": "F#2",
          "ticks": 23328,
          "time": 97.2,
          "velocity": 0.7874015748031497
        },
        {
          "duration": 0.10000000000000853,
          "durationTicks": 24,
          "midi": 40,
          "name": "E2",
          "ticks": 23328,
          "time": 97.2,
          "velocity": 0.9133858267716536
        },
        {
          "duration": 0.09999999999999432,
          "durationTicks": 24,
          "midi": 69,
          "name": "A4",
          "ticks": 23352,
          "time": 97.30000000000001,
          "velocity": 0.7874015748031497
        },
        {
          "duration": 0.09999999999999432,
          "durationTicks": 24,
          "midi": 49,
          "name": "C#3",
          "ticks": 23376,
          "time": 97.4,
          "velocity": 0.968503937007874
        },
        {
          "duration": 0.09999999999999432,
          "durationTicks": 24,
          "midi": 36,
          "name": "C2",
          "ticks": 23376,
          "time": 97.4,
          "velocity": 0.968503937007874
        },
        {
          "duration": 0.09999999999999432,
          "durationTicks": 24,
          "midi": 69,
          "name": "A4",
          "ticks": 23376,
          "time": 97.4,
          "velocity": 0.7874015748031497
        },
        {
          "duration": 0.10000000000000853,
          "durationTicks": 24,
          "midi": 42,
          "name": "F#2",
          "ticks": 23419,
          "time": 97.57916666666667,
          "velocity": 0.7874015748031497
        },
        {
          "duration": 0.09999999999999432,
          "durationTicks": 24,
          "midi": 69,
          "name": "A4",
          "ticks": 23424,
          "time": 97.60000000000001,
          "velocity": 0.7874015748031497
        },
        {
          "duration": 0.10000000000000853,
          "durationTicks": 24,
          "midi": 69,
          "name": "A4",
          "ticks": 23448,
          "time": 97.7,
          "velocity": 0.7874015748031497
        },
        {
          "duration": 0.09999999999999432,
          "durationTicks": 24,
          "midi": 42,
          "name": "F#2",
          "ticks": 23467,
          "time": 97.77916666666667,
          "velocity": 0.7874015748031497
        },
        {
          "duration": 0.09999999999999432,
          "durationTicks": 24,
          "midi": 69,
          "name": "A4",
          "ticks": 23472,
          "time": 97.80000000000001,
          "velocity": 0.7874015748031497
        },
        {
          "duration": 0.09999999999999432,
          "durationTicks": 24,
          "midi": 36,
          "name": "C2",
          "ticks": 23472,
          "time": 97.80000000000001,
          "velocity": 0.968503937007874
        },
        {
          "duration": 0.09999999999999432,
          "durationTicks": 24,
          "midi": 42,
          "name": "F#2",
          "ticks": 23515,
          "time": 97.97916666666667,
          "velocity": 0.7874015748031497
        },
        {
          "duration": 0.10000000000000853,
          "durationTicks": 24,
          "midi": 69,
          "name": "A4",
          "ticks": 23520,
          "time": 98,
          "velocity": 0.7874015748031497
        },
        {
          "duration": 0.10000000000000853,
          "durationTicks": 24,
          "midi": 40,
          "name": "E2",
          "ticks": 23520,
          "time": 98,
          "velocity": 0.9133858267716536
        },
        {
          "duration": 0.09999999999999432,
          "durationTicks": 24,
          "midi": 69,
          "name": "A4",
          "ticks": 23544,
          "time": 98.10000000000001,
          "velocity": 0.7874015748031497
        },
        {
          "duration": 0.09999999999999432,
          "durationTicks": 24,
          "midi": 42,
          "name": "F#2",
          "ticks": 23563,
          "time": 98.17916666666667,
          "velocity": 0.7874015748031497
        },
        {
          "duration": 0.10000000000000853,
          "durationTicks": 24,
          "midi": 69,
          "name": "A4",
          "ticks": 23568,
          "time": 98.2,
          "velocity": 0.7874015748031497
        },
        {
          "duration": 0.10000000000000853,
          "durationTicks": 24,
          "midi": 36,
          "name": "C2",
          "ticks": 23568,
          "time": 98.2,
          "velocity": 0.968503937007874
        },
        {
          "duration": 0.10000000000000853,
          "durationTicks": 24,
          "midi": 42,
          "name": "F#2",
          "ticks": 23611,
          "time": 98.37916666666666,
          "velocity": 0.7874015748031497
        },
        {
          "duration": 0.09999999999999432,
          "durationTicks": 24,
          "midi": 69,
          "name": "A4",
          "ticks": 23616,
          "time": 98.4,
          "velocity": 0.7874015748031497
        },
        {
          "duration": 0.09999999999999432,
          "durationTicks": 24,
          "midi": 40,
          "name": "E2",
          "ticks": 23616,
          "time": 98.4,
          "velocity": 0.9133858267716536
        },
        {
          "duration": 0.10000000000000853,
          "durationTicks": 24,
          "midi": 69,
          "name": "A4",
          "ticks": 23640,
          "time": 98.5,
          "velocity": 0.7874015748031497
        },
        {
          "duration": 0.10000000000000853,
          "durationTicks": 24,
          "midi": 42,
          "name": "F#2",
          "ticks": 23659,
          "time": 98.57916666666667,
          "velocity": 0.7874015748031497
        },
        {
          "duration": 0.09999999999999432,
          "durationTicks": 24,
          "midi": 40,
          "name": "E2",
          "ticks": 23664,
          "time": 98.60000000000001,
          "velocity": 0.9133858267716536
        },
        {
          "duration": 0.09999999999999432,
          "durationTicks": 24,
          "midi": 69,
          "name": "A4",
          "ticks": 23664,
          "time": 98.60000000000001,
          "velocity": 0.7874015748031497
        },
        {
          "duration": 0.10000000000000853,
          "durationTicks": 24,
          "midi": 40,
          "name": "E2",
          "ticks": 23688,
          "time": 98.7,
          "velocity": 0.9133858267716536
        },
        {
          "duration": 0.09999999999999432,
          "durationTicks": 24,
          "midi": 42,
          "name": "F#2",
          "ticks": 23707,
          "time": 98.77916666666667,
          "velocity": 0.7874015748031497
        },
        {
          "duration": 0.09999999999999432,
          "durationTicks": 24,
          "midi": 69,
          "name": "A4",
          "ticks": 23712,
          "time": 98.80000000000001,
          "velocity": 0.7874015748031497
        },
        {
          "duration": 0.09999999999999432,
          "durationTicks": 24,
          "midi": 40,
          "name": "E2",
          "ticks": 23712,
          "time": 98.80000000000001,
          "velocity": 0.9133858267716536
        },
        {
          "duration": 0.09999999999999432,
          "durationTicks": 24,
          "midi": 69,
          "name": "A4",
          "ticks": 23736,
          "time": 98.9,
          "velocity": 0.7874015748031497
        },
        {
          "duration": 0.09999999999999432,
          "durationTicks": 24,
          "midi": 40,
          "name": "E2",
          "ticks": 23736,
          "time": 98.9,
          "velocity": 0.9133858267716536
        },
        {
          "duration": 0.09999999999999432,
          "durationTicks": 24,
          "midi": 42,
          "name": "F#2",
          "ticks": 23755,
          "time": 98.97916666666667,
          "velocity": 0.7874015748031497
        },
        {
          "duration": 0.10000000000000853,
          "durationTicks": 24,
          "midi": 40,
          "name": "E2",
          "ticks": 23760,
          "time": 99,
          "velocity": 0.9133858267716536
        },
        {
          "duration": 0.10000000000000853,
          "durationTicks": 24,
          "midi": 69,
          "name": "A4",
          "ticks": 23760,
          "time": 99,
          "velocity": 0.7874015748031497
        },
        {
          "duration": 0.09999999999999432,
          "durationTicks": 24,
          "midi": 40,
          "name": "E2",
          "ticks": 23784,
          "time": 99.10000000000001,
          "velocity": 0.9133858267716536
        },
        {
          "duration": 0.09999999999999432,
          "durationTicks": 24,
          "midi": 42,
          "name": "F#2",
          "ticks": 23803,
          "time": 99.17916666666667,
          "velocity": 0.7874015748031497
        },
        {
          "duration": 0.10000000000000853,
          "durationTicks": 24,
          "midi": 36,
          "name": "C2",
          "ticks": 23808,
          "time": 99.2,
          "velocity": 0.968503937007874
        },
        {
          "duration": 0.10000000000000853,
          "durationTicks": 24,
          "midi": 69,
          "name": "A4",
          "ticks": 23808,
          "time": 99.2,
          "velocity": 0.7874015748031497
        },
        {
          "duration": 0.10000000000000853,
          "durationTicks": 24,
          "midi": 49,
          "name": "C#3",
          "ticks": 23808,
          "time": 99.2,
          "velocity": 0.968503937007874
        },
        {
          "duration": 0.09999999999999432,
          "durationTicks": 24,
          "midi": 69,
          "name": "A4",
          "ticks": 23832,
          "time": 99.30000000000001,
          "velocity": 0.7874015748031497
        },
        {
          "duration": 0.10000000000000853,
          "durationTicks": 24,
          "midi": 42,
          "name": "F#2",
          "ticks": 23851,
          "time": 99.37916666666666,
          "velocity": 0.7874015748031497
        },
        {
          "duration": 0.09999999999999432,
          "durationTicks": 24,
          "midi": 69,
          "name": "A4",
          "ticks": 23856,
          "time": 99.4,
          "velocity": 0.7874015748031497
        },
        {
          "duration": 0.10000000000000853,
          "durationTicks": 24,
          "midi": 42,
          "name": "F#2",
          "ticks": 23899,
          "time": 99.57916666666667,
          "velocity": 0.7874015748031497
        },
        {
          "duration": 0.09999999999999432,
          "durationTicks": 24,
          "midi": 69,
          "name": "A4",
          "ticks": 23904,
          "time": 99.60000000000001,
          "velocity": 0.7874015748031497
        },
        {
          "duration": 0.09999999999999432,
          "durationTicks": 24,
          "midi": 40,
          "name": "E2",
          "ticks": 23904,
          "time": 99.60000000000001,
          "velocity": 0.9133858267716536
        },
        {
          "duration": 0.10000000000000853,
          "durationTicks": 24,
          "midi": 69,
          "name": "A4",
          "ticks": 23928,
          "time": 99.7,
          "velocity": 0.7874015748031497
        },
        {
          "duration": 0.09999999999999432,
          "durationTicks": 24,
          "midi": 42,
          "name": "F#2",
          "ticks": 23947,
          "time": 99.77916666666667,
          "velocity": 0.7874015748031497
        },
        {
          "duration": 0.09999999999999432,
          "durationTicks": 24,
          "midi": 49,
          "name": "C#3",
          "ticks": 23952,
          "time": 99.80000000000001,
          "velocity": 0.968503937007874
        },
        {
          "duration": 0.09999999999999432,
          "durationTicks": 24,
          "midi": 69,
          "name": "A4",
          "ticks": 23952,
          "time": 99.80000000000001,
          "velocity": 0.7874015748031497
        },
        {
          "duration": 0.09999999999999432,
          "durationTicks": 24,
          "midi": 36,
          "name": "C2",
          "ticks": 23952,
          "time": 99.80000000000001,
          "velocity": 0.968503937007874
        },
        {
          "duration": 0.09999999999999432,
          "durationTicks": 24,
          "midi": 42,
          "name": "F#2",
          "ticks": 23995,
          "time": 99.97916666666667,
          "velocity": 0.7874015748031497
        },
        {
          "duration": 0.10000000000000853,
          "durationTicks": 24,
          "midi": 69,
          "name": "A4",
          "ticks": 24000,
          "time": 100,
          "velocity": 0.7874015748031497
        },
        {
          "duration": 0.09999999999999432,
          "durationTicks": 24,
          "midi": 69,
          "name": "A4",
          "ticks": 24024,
          "time": 100.10000000000001,
          "velocity": 0.7874015748031497
        },
        {
          "duration": 0.09999999999999432,
          "durationTicks": 24,
          "midi": 42,
          "name": "F#2",
          "ticks": 24043,
          "time": 100.17916666666667,
          "velocity": 0.7874015748031497
        },
        {
          "duration": 0.10000000000000853,
          "durationTicks": 24,
          "midi": 69,
          "name": "A4",
          "ticks": 24048,
          "time": 100.2,
          "velocity": 0.7874015748031497
        },
        {
          "duration": 0.10000000000000853,
          "durationTicks": 24,
          "midi": 36,
          "name": "C2",
          "ticks": 24048,
          "time": 100.2,
          "velocity": 0.968503937007874
        },
        {
          "duration": 0.10000000000000853,
          "durationTicks": 24,
          "midi": 42,
          "name": "F#2",
          "ticks": 24091,
          "time": 100.37916666666666,
          "velocity": 0.7874015748031497
        },
        {
          "duration": 0.09999999999999432,
          "durationTicks": 24,
          "midi": 40,
          "name": "E2",
          "ticks": 24096,
          "time": 100.4,
          "velocity": 0.9133858267716536
        },
        {
          "duration": 0.09999999999999432,
          "durationTicks": 24,
          "midi": 69,
          "name": "A4",
          "ticks": 24096,
          "time": 100.4,
          "velocity": 0.7874015748031497
        },
        {
          "duration": 0.10000000000000853,
          "durationTicks": 24,
          "midi": 69,
          "name": "A4",
          "ticks": 24120,
          "time": 100.5,
          "velocity": 0.7874015748031497
        },
        {
          "duration": 0.10000000000000853,
          "durationTicks": 24,
          "midi": 42,
          "name": "F#2",
          "ticks": 24139,
          "time": 100.57916666666667,
          "velocity": 0.7874015748031497
        },
        {
          "duration": 0.09999999999999432,
          "durationTicks": 24,
          "midi": 36,
          "name": "C2",
          "ticks": 24144,
          "time": 100.60000000000001,
          "velocity": 0.968503937007874
        },
        {
          "duration": 0.09999999999999432,
          "durationTicks": 24,
          "midi": 69,
          "name": "A4",
          "ticks": 24144,
          "time": 100.60000000000001,
          "velocity": 0.7874015748031497
        },
        {
          "duration": 0.09999999999999432,
          "durationTicks": 24,
          "midi": 49,
          "name": "C#3",
          "ticks": 24144,
          "time": 100.60000000000001,
          "velocity": 0.968503937007874
        },
        {
          "duration": 0.09999999999999432,
          "durationTicks": 24,
          "midi": 42,
          "name": "F#2",
          "ticks": 24187,
          "time": 100.77916666666667,
          "velocity": 0.7874015748031497
        },
        {
          "duration": 0.09999999999999432,
          "durationTicks": 24,
          "midi": 69,
          "name": "A4",
          "ticks": 24192,
          "time": 100.80000000000001,
          "velocity": 0.7874015748031497
        },
        {
          "duration": 0.09999999999999432,
          "durationTicks": 24,
          "midi": 69,
          "name": "A4",
          "ticks": 24216,
          "time": 100.9,
          "velocity": 0.7874015748031497
        },
        {
          "duration": 0.09999999999999432,
          "durationTicks": 24,
          "midi": 42,
          "name": "F#2",
          "ticks": 24235,
          "time": 100.97916666666667,
          "velocity": 0.7874015748031497
        },
        {
          "duration": 0.10000000000000853,
          "durationTicks": 24,
          "midi": 69,
          "name": "A4",
          "ticks": 24240,
          "time": 101,
          "velocity": 0.7874015748031497
        },
        {
          "duration": 0.10000000000000853,
          "durationTicks": 24,
          "midi": 36,
          "name": "C2",
          "ticks": 24240,
          "time": 101,
          "velocity": 0.968503937007874
        },
        {
          "duration": 0.09999999999999432,
          "durationTicks": 24,
          "midi": 42,
          "name": "F#2",
          "ticks": 24283,
          "time": 101.17916666666667,
          "velocity": 0.7874015748031497
        },
        {
          "duration": 0.10000000000000853,
          "durationTicks": 24,
          "midi": 40,
          "name": "E2",
          "ticks": 24288,
          "time": 101.2,
          "velocity": 0.9133858267716536
        },
        {
          "duration": 0.10000000000000853,
          "durationTicks": 24,
          "midi": 69,
          "name": "A4",
          "ticks": 24288,
          "time": 101.2,
          "velocity": 0.7874015748031497
        },
        {
          "duration": 0.09999999999999432,
          "durationTicks": 24,
          "midi": 69,
          "name": "A4",
          "ticks": 24312,
          "time": 101.30000000000001,
          "velocity": 0.7874015748031497
        },
        {
          "duration": 0.10000000000000853,
          "durationTicks": 24,
          "midi": 42,
          "name": "F#2",
          "ticks": 24331,
          "time": 101.37916666666666,
          "velocity": 0.7874015748031497
        },
        {
          "duration": 0.09999999999999432,
          "durationTicks": 24,
          "midi": 49,
          "name": "C#3",
          "ticks": 24336,
          "time": 101.4,
          "velocity": 0.968503937007874
        },
        {
          "duration": 0.09999999999999432,
          "durationTicks": 24,
          "midi": 69,
          "name": "A4",
          "ticks": 24336,
          "time": 101.4,
          "velocity": 0.7874015748031497
        },
        {
          "duration": 0.09999999999999432,
          "durationTicks": 24,
          "midi": 36,
          "name": "C2",
          "ticks": 24336,
          "time": 101.4,
          "velocity": 0.968503937007874
        },
        {
          "duration": 0.09999999999999432,
          "durationTicks": 24,
          "midi": 69,
          "name": "A4",
          "ticks": 24384,
          "time": 101.60000000000001,
          "velocity": 0.7874015748031497
        },
        {
          "duration": 0.10000000000000853,
          "durationTicks": 24,
          "midi": 69,
          "name": "A4",
          "ticks": 24408,
          "time": 101.7,
          "velocity": 0.7874015748031497
        },
        {
          "duration": 0.09999999999999432,
          "durationTicks": 24,
          "midi": 47,
          "name": "B2",
          "ticks": 24432,
          "time": 101.80000000000001,
          "velocity": 0.9133858267716536
        },
        {
          "duration": 0.09999999999999432,
          "durationTicks": 24,
          "midi": 69,
          "name": "A4",
          "ticks": 24432,
          "time": 101.80000000000001,
          "velocity": 0.7874015748031497
        },
        {
          "duration": 0.09999999999999432,
          "durationTicks": 24,
          "midi": 47,
          "name": "B2",
          "ticks": 24456,
          "time": 101.9,
          "velocity": 0.9133858267716536
        },
        {
          "duration": 0.10000000000000853,
          "durationTicks": 24,
          "midi": 45,
          "name": "A2",
          "ticks": 24480,
          "time": 102,
          "velocity": 0.9133858267716536
        },
        {
          "duration": 0.10000000000000853,
          "durationTicks": 24,
          "midi": 69,
          "name": "A4",
          "ticks": 24480,
          "time": 102,
          "velocity": 0.7874015748031497
        },
        {
          "duration": 0.09999999999999432,
          "durationTicks": 24,
          "midi": 45,
          "name": "A2",
          "ticks": 24504,
          "time": 102.10000000000001,
          "velocity": 0.9133858267716536
        },
        {
          "duration": 0.09999999999999432,
          "durationTicks": 24,
          "midi": 69,
          "name": "A4",
          "ticks": 24504,
          "time": 102.10000000000001,
          "velocity": 0.7874015748031497
        },
        {
          "duration": 0.10000000000000853,
          "durationTicks": 24,
          "midi": 43,
          "name": "G2",
          "ticks": 24528,
          "time": 102.2,
          "velocity": 0.9133858267716536
        },
        {
          "duration": 0.10000000000000853,
          "durationTicks": 24,
          "midi": 69,
          "name": "A4",
          "ticks": 24528,
          "time": 102.2,
          "velocity": 0.7874015748031497
        },
        {
          "duration": 0.09999999999999432,
          "durationTicks": 24,
          "midi": 41,
          "name": "F2",
          "ticks": 24552,
          "time": 102.30000000000001,
          "velocity": 0.9133858267716536
        },
        {
          "duration": 0.09999999999999432,
          "durationTicks": 24,
          "midi": 40,
          "name": "E2",
          "ticks": 24576,
          "time": 102.4,
          "velocity": 0.9133858267716536
        },
        {
          "duration": 0.09999999999999432,
          "durationTicks": 24,
          "midi": 36,
          "name": "C2",
          "ticks": 24576,
          "time": 102.4,
          "velocity": 0.968503937007874
        },
        {
          "duration": 0.09999999999999432,
          "durationTicks": 24,
          "midi": 49,
          "name": "C#3",
          "ticks": 24576,
          "time": 102.4,
          "velocity": 0.7952755905511811
        },
        {
          "duration": 0.04999999999999716,
          "durationTicks": 12,
          "midi": 45,
          "name": "A2",
          "ticks": 24648,
          "time": 102.7,
          "velocity": 0.9133858267716536
        },
        {
          "duration": 0.05000000000001137,
          "durationTicks": 12,
          "midi": 43,
          "name": "G2",
          "ticks": 24660,
          "time": 102.75,
          "velocity": 0.9133858267716536
        },
        {
          "duration": 0.10000000000000853,
          "durationTicks": 24,
          "midi": 49,
          "name": "C#3",
          "ticks": 24720,
          "time": 103,
          "velocity": 0.7952755905511811
        },
        {
          "duration": 0.10000000000000853,
          "durationTicks": 24,
          "midi": 36,
          "name": "C2",
          "ticks": 24720,
          "time": 103,
          "velocity": 0.968503937007874
        },
        {
          "duration": 0.10000000000000853,
          "durationTicks": 24,
          "midi": 40,
          "name": "E2",
          "ticks": 24720,
          "time": 103,
          "velocity": 0.9133858267716536
        },
        {
          "duration": 0.04999999999999716,
          "durationTicks": 12,
          "midi": 45,
          "name": "A2",
          "ticks": 24792,
          "time": 103.30000000000001,
          "velocity": 0.9133858267716536
        },
        {
          "duration": 0.04999999999999716,
          "durationTicks": 12,
          "midi": 43,
          "name": "G2",
          "ticks": 24804,
          "time": 103.35000000000001,
          "velocity": 0.9133858267716536
        },
        {
          "duration": 0.09999999999999432,
          "durationTicks": 24,
          "midi": 40,
          "name": "E2",
          "ticks": 24864,
          "time": 103.60000000000001,
          "velocity": 0.9133858267716536
        },
        {
          "duration": 0.09999999999999432,
          "durationTicks": 24,
          "midi": 49,
          "name": "C#3",
          "ticks": 24864,
          "time": 103.60000000000001,
          "velocity": 0.7952755905511811
        }
      ]
    },
    {
      "channel": 0,
      "controlChanges": {
        "6": [
          {
            "number": 6,
            "ticks": 0,
            "time": 0,
            "value": 0.09448818897637795
          }
        ],
        "7": [
          {
            "number": 7,
            "ticks": 0,
            "time": 0,
            "value": 0.7952755905511811
          },
          {
            "number": 7,
            "ticks": 0,
            "time": 0,
            "value": 0.7952755905511811
          }
        ],
        "10": [
          {
            "number": 10,
            "ticks": 0,
            "time": 0,
            "value": 0.5039370078740157
          },
          {
            "number": 10,
            "ticks": 0,
            "time": 0,
            "value": 0.5039370078740157
          }
        ],
        "100": [
          {
            "number": 100,
            "ticks": 0,
            "time": 0,
            "value": 0
          }
        ],
        "101": [
          {
            "number": 101,
            "ticks": 0,
            "time": 0,
            "value": 0
          }
        ]
      },
      "pitchBends": [
        {
          "ticks": 0,
          "time": 0,
          "value": 0
        },
        {
          "ticks": 0,
          "time": 0,
          "value": 0
        }
      ],
      "instrument": {
        "family": "piano",
        "number": 0,
        "name": "acoustic grand piano"
      },
      "name": "BASS",
      "notes": [],
      "endOfTrackTicks": 25715
    },
    {
      "channel": 3,
      "controlChanges": {
        "6": [
          {
            "number": 6,
            "ticks": 0,
            "time": 0,
            "value": 0.09448818897637795
          },
          {
            "number": 6,
            "ticks": 0,
            "time": 0,
            "value": 0.09448818897637795
          },
          {
            "number": 6,
            "ticks": 25714,
            "time": 107.14166666666668,
            "value": 0.09448818897637795
          },
          {
            "number": 6,
            "ticks": 25715,
            "time": 107.14583333333333,
            "value": 0.09448818897637795
          }
        ],
        "7": [
          {
            "number": 7,
            "ticks": 0,
            "time": 0,
            "value": 0.7952755905511811
          },
          {
            "number": 7,
            "ticks": 0,
            "time": 0,
            "value": 0.7952755905511811
          },
          {
            "number": 7,
            "ticks": 25714,
            "time": 107.14166666666668,
            "value": 0.7952755905511811
          },
          {
            "number": 7,
            "ticks": 25715,
            "time": 107.14583333333333,
            "value": 0.7952755905511811
          }
        ],
        "10": [
          {
            "number": 10,
            "ticks": 0,
            "time": 0,
            "value": 0.5039370078740157
          },
          {
            "number": 10,
            "ticks": 0,
            "time": 0,
            "value": 0.5039370078740157
          },
          {
            "number": 10,
            "ticks": 25714,
            "time": 107.14166666666668,
            "value": 0.5039370078740157
          },
          {
            "number": 10,
            "ticks": 25715,
            "time": 107.14583333333333,
            "value": 0.5039370078740157
          }
        ],
        "100": [
          {
            "number": 100,
            "ticks": 0,
            "time": 0,
            "value": 0
          },
          {
            "number": 100,
            "ticks": 0,
            "time": 0,
            "value": 0
          },
          {
            "number": 100,
            "ticks": 25714,
            "time": 107.14166666666668,
            "value": 0
          },
          {
            "number": 100,
            "ticks": 25715,
            "time": 107.14583333333333,
            "value": 0
          }
        ],
        "101": [
          {
            "number": 101,
            "ticks": 0,
            "time": 0,
            "value": 0
          },
          {
            "number": 101,
            "ticks": 0,
            "time": 0,
            "value": 0
          },
          {
            "number": 101,
            "ticks": 25714,
            "time": 107.14166666666668,
            "value": 0
          },
          {
            "number": 101,
            "ticks": 25715,
            "time": 107.14583333333333,
            "value": 0
          }
        ]
      },
      "pitchBends": [
        {
          "ticks": 0,
          "time": 0,
          "value": 0
        },
        {
          "ticks": 0,
          "time": 0,
          "value": 0
        },
        {
          "ticks": 25714,
          "time": 107.14166666666668,
          "value": 0
        },
        {
          "ticks": 25715,
          "time": 107.14583333333333,
          "value": 0
        }
      ],
      "instrument": {
        "family": "bass",
        "number": 38,
        "name": "synth bass 1"
      },
      "name": "",
      "notes": [
        {
          "duration": 0.19999999999999996,
          "durationTicks": 48,
          "midi": 38,
          "name": "D2",
          "ticks": 384,
          "time": 1.6,
          "velocity": 0.937007874015748
        },
        {
          "duration": 0.19999999999999996,
          "durationTicks": 48,
          "midi": 38,
          "name": "D2",
          "ticks": 432,
          "time": 1.8,
          "velocity": 0.937007874015748
        },
        {
          "duration": 0.20000000000000018,
          "durationTicks": 48,
          "midi": 38,
          "name": "D2",
          "ticks": 480,
          "time": 2,
          "velocity": 0.937007874015748
        },
        {
          "duration": 0.20000000000000018,
          "durationTicks": 48,
          "midi": 37,
          "name": "C#2",
          "ticks": 528,
          "time": 2.2,
          "velocity": 0.937007874015748
        },
        {
          "duration": 0.19999999999999973,
          "durationTicks": 48,
          "midi": 37,
          "name": "C#2",
          "ticks": 576,
          "time": 2.4000000000000004,
          "velocity": 0.937007874015748
        },
        {
          "duration": 0.20000000000000018,
          "durationTicks": 48,
          "midi": 37,
          "name": "C#2",
          "ticks": 624,
          "time": 2.6,
          "velocity": 0.937007874015748
        },
        {
          "duration": 0.19999999999999973,
          "durationTicks": 48,
          "midi": 35,
          "name": "B1",
          "ticks": 672,
          "time": 2.8000000000000003,
          "velocity": 0.937007874015748
        },
        {
          "duration": 0.20000000000000018,
          "durationTicks": 48,
          "midi": 35,
          "name": "B1",
          "ticks": 720,
          "time": 3,
          "velocity": 0.937007874015748
        },
        {
          "duration": 0.20000000000000018,
          "durationTicks": 48,
          "midi": 35,
          "name": "B1",
          "ticks": 768,
          "time": 3.2,
          "velocity": 0.937007874015748
        },
        {
          "duration": 0.19999999999999973,
          "durationTicks": 48,
          "midi": 38,
          "name": "D2",
          "ticks": 816,
          "time": 3.4000000000000004,
          "velocity": 0.937007874015748
        },
        {
          "duration": 0.20000000000000018,
          "durationTicks": 48,
          "midi": 38,
          "name": "D2",
          "ticks": 864,
          "time": 3.6,
          "velocity": 0.937007874015748
        },
        {
          "duration": 0.19999999999999973,
          "durationTicks": 48,
          "midi": 38,
          "name": "D2",
          "ticks": 912,
          "time": 3.8000000000000003,
          "velocity": 0.937007874015748
        },
        {
          "duration": 0.20000000000000018,
          "durationTicks": 48,
          "midi": 38,
          "name": "D2",
          "ticks": 960,
          "time": 4,
          "velocity": 0.937007874015748
        },
        {
          "duration": 0.2999999999999998,
          "durationTicks": 72,
          "midi": 38,
          "name": "D2",
          "ticks": 1008,
          "time": 4.2,
          "velocity": 0.937007874015748
        },
        {
          "duration": 0.39999999999999947,
          "durationTicks": 96,
          "midi": 40,
          "name": "E2",
          "ticks": 1104,
          "time": 4.6000000000000005,
          "velocity": 0.937007874015748
        },
        {
          "duration": 0.20000000000000018,
          "durationTicks": 48,
          "midi": 40,
          "name": "E2",
          "ticks": 1200,
          "time": 5,
          "velocity": 0.937007874015748
        },
        {
          "duration": 0.20000000000000018,
          "durationTicks": 48,
          "midi": 40,
          "name": "E2",
          "ticks": 1248,
          "time": 5.2,
          "velocity": 0.937007874015748
        },
        {
          "duration": 0.20000000000000018,
          "durationTicks": 48,
          "midi": 45,
          "name": "A2",
          "ticks": 1536,
          "time": 6.4,
          "velocity": 0.937007874015748
        },
        {
          "duration": 0.20000000000000018,
          "durationTicks": 48,
          "midi": 45,
          "name": "A2",
          "ticks": 1584,
          "time": 6.6000000000000005,
          "velocity": 0.937007874015748
        },
        {
          "duration": 0.1999999999999993,
          "durationTicks": 48,
          "midi": 45,
          "name": "A2",
          "ticks": 1632,
          "time": 6.800000000000001,
          "velocity": 0.937007874015748
        },
        {
          "duration": 0.20000000000000018,
          "durationTicks": 48,
          "midi": 45,
          "name": "A2",
          "ticks": 1680,
          "time": 7,
          "velocity": 0.937007874015748
        },
        {
          "duration": 0.20000000000000018,
          "durationTicks": 48,
          "midi": 45,
          "name": "A2",
          "ticks": 1728,
          "time": 7.2,
          "velocity": 0.937007874015748
        },
        {
          "duration": 0.20000000000000018,
          "durationTicks": 48,
          "midi": 45,
          "name": "A2",
          "ticks": 1776,
          "time": 7.4,
          "velocity": 0.937007874015748
        },
        {
          "duration": 0.20000000000000018,
          "durationTicks": 48,
          "midi": 45,
          "name": "A2",
          "ticks": 1824,
          "time": 7.6000000000000005,
          "velocity": 0.937007874015748
        },
        {
          "duration": 0.1999999999999993,
          "durationTicks": 48,
          "midi": 45,
          "name": "A2",
          "ticks": 1872,
          "time": 7.800000000000001,
          "velocity": 0.937007874015748
        },
        {
          "duration": 0.20000000000000107,
          "durationTicks": 48,
          "midi": 44,
          "name": "G#2",
          "ticks": 1920,
          "time": 8,
          "velocity": 0.937007874015748
        },
        {
          "duration": 0.1999999999999993,
          "durationTicks": 48,
          "midi": 44,
          "name": "G#2",
          "ticks": 1968,
          "time": 8.200000000000001,
          "velocity": 0.937007874015748
        },
        {
          "duration": 0.1999999999999993,
          "durationTicks": 48,
          "midi": 44,
          "name": "G#2",
          "ticks": 2016,
          "time": 8.4,
          "velocity": 0.937007874015748
        },
        {
          "duration": 0.20000000000000107,
          "durationTicks": 48,
          "midi": 44,
          "name": "G#2",
          "ticks": 2064,
          "time": 8.6,
          "velocity": 0.937007874015748
        },
        {
          "duration": 0.1999999999999993,
          "durationTicks": 48,
          "midi": 44,
          "name": "G#2",
          "ticks": 2112,
          "time": 8.8,
          "velocity": 0.937007874015748
        },
        {
          "duration": 0.20000000000000107,
          "durationTicks": 48,
          "midi": 44,
          "name": "G#2",
          "ticks": 2160,
          "time": 9,
          "velocity": 0.937007874015748
        },
        {
          "duration": 0.1999999999999993,
          "durationTicks": 48,
          "midi": 44,
          "name": "G#2",
          "ticks": 2208,
          "time": 9.200000000000001,
          "velocity": 0.937007874015748
        },
        {
          "duration": 0.20000000000000107,
          "durationTicks": 48,
          "midi": 44,
          "name": "G#2",
          "ticks": 2256,
          "time": 9.4,
          "velocity": 0.937007874015748
        },
        {
          "duration": 0.1999999999999993,
          "durationTicks": 48,
          "midi": 42,
          "name": "F#2",
          "ticks": 2304,
          "time": 9.600000000000001,
          "velocity": 0.937007874015748
        },
        {
          "duration": 0.1999999999999993,
          "durationTicks": 48,
          "midi": 42,
          "name": "F#2",
          "ticks": 2352,
          "time": 9.8,
          "velocity": 0.937007874015748
        },
        {
          "duration": 0.20000000000000107,
          "durationTicks": 48,
          "midi": 42,
          "name": "F#2",
          "ticks": 2400,
          "time": 10,
          "velocity": 0.937007874015748
        },
        {
          "duration": 0.1999999999999993,
          "durationTicks": 48,
          "midi": 42,
          "name": "F#2",
          "ticks": 2448,
          "time": 10.200000000000001,
          "velocity": 0.937007874015748
        },
        {
          "duration": 0.20000000000000107,
          "durationTicks": 48,
          "midi": 42,
          "name": "F#2",
          "ticks": 2496,
          "time": 10.4,
          "velocity": 0.937007874015748
        },
        {
          "duration": 0.1999999999999993,
          "durationTicks": 48,
          "midi": 42,
          "name": "F#2",
          "ticks": 2544,
          "time": 10.600000000000001,
          "velocity": 0.937007874015748
        },
        {
          "duration": 0.1999999999999993,
          "durationTicks": 48,
          "midi": 42,
          "name": "F#2",
          "ticks": 2592,
          "time": 10.8,
          "velocity": 0.937007874015748
        },
        {
          "duration": 0.20000000000000107,
          "durationTicks": 48,
          "midi": 42,
          "name": "F#2",
          "ticks": 2640,
          "time": 11,
          "velocity": 0.937007874015748
        },
        {
          "duration": 0.1999999999999993,
          "durationTicks": 48,
          "midi": 40,
          "name": "E2",
          "ticks": 2688,
          "time": 11.200000000000001,
          "velocity": 0.937007874015748
        },
        {
          "duration": 0.20000000000000107,
          "durationTicks": 48,
          "midi": 40,
          "name": "E2",
          "ticks": 2736,
          "time": 11.4,
          "velocity": 0.937007874015748
        },
        {
          "duration": 0.1999999999999993,
          "durationTicks": 48,
          "midi": 33,
          "name": "A1",
          "ticks": 2784,
          "time": 11.600000000000001,
          "velocity": 0.937007874015748
        },
        {
          "duration": 0.1999999999999993,
          "durationTicks": 48,
          "midi": 40,
          "name": "E2",
          "ticks": 2832,
          "time": 11.8,
          "velocity": 0.937007874015748
        },
        {
          "duration": 0.20000000000000107,
          "durationTicks": 48,
          "midi": 40,
          "name": "E2",
          "ticks": 2880,
          "time": 12,
          "velocity": 0.937007874015748
        },
        {
          "duration": 0.1999999999999993,
          "durationTicks": 48,
          "midi": 40,
          "name": "E2",
          "ticks": 2928,
          "time": 12.200000000000001,
          "velocity": 0.937007874015748
        },
        {
          "duration": 0.20000000000000107,
          "durationTicks": 48,
          "midi": 40,
          "name": "E2",
          "ticks": 2976,
          "time": 12.4,
          "velocity": 0.937007874015748
        },
        {
          "duration": 0.1999999999999993,
          "durationTicks": 48,
          "midi": 40,
          "name": "E2",
          "ticks": 3024,
          "time": 12.600000000000001,
          "velocity": 0.937007874015748
        },
        {
          "duration": 0.1999999999999993,
          "durationTicks": 48,
          "midi": 38,
          "name": "D2",
          "ticks": 3072,
          "time": 12.8,
          "velocity": 0.937007874015748
        },
        {
          "duration": 0.20000000000000107,
          "durationTicks": 48,
          "midi": 38,
          "name": "D2",
          "ticks": 3120,
          "time": 13,
          "velocity": 0.937007874015748
        },
        {
          "duration": 0.1999999999999993,
          "durationTicks": 48,
          "midi": 38,
          "name": "D2",
          "ticks": 3168,
          "time": 13.200000000000001,
          "velocity": 0.937007874015748
        },
        {
          "duration": 0.20000000000000107,
          "durationTicks": 48,
          "midi": 38,
          "name": "D2",
          "ticks": 3216,
          "time": 13.4,
          "velocity": 0.937007874015748
        },
        {
          "duration": 0.1999999999999993,
          "durationTicks": 48,
          "midi": 40,
          "name": "E2",
          "ticks": 3264,
          "time": 13.600000000000001,
          "velocity": 0.937007874015748
        },
        {
          "duration": 0.1999999999999993,
          "durationTicks": 48,
          "midi": 40,
          "name": "E2",
          "ticks": 3312,
          "time": 13.8,
          "velocity": 0.937007874015748
        },
        {
          "duration": 0.20000000000000107,
          "durationTicks": 48,
          "midi": 40,
          "name": "E2",
          "ticks": 3360,
          "time": 14,
          "velocity": 0.937007874015748
        },
        {
          "duration": 0.1999999999999993,
          "durationTicks": 48,
          "midi": 40,
          "name": "E2",
          "ticks": 3408,
          "time": 14.200000000000001,
          "velocity": 0.937007874015748
        },
        {
          "duration": 0.20000000000000107,
          "durationTicks": 48,
          "midi": 45,
          "name": "A2",
          "ticks": 3456,
          "time": 14.4,
          "velocity": 0.937007874015748
        },
        {
          "duration": 0.1999999999999993,
          "durationTicks": 48,
          "midi": 45,
          "name": "A2",
          "ticks": 3504,
          "time": 14.600000000000001,
          "velocity": 0.937007874015748
        },
        {
          "duration": 0.1999999999999993,
          "durationTicks": 48,
          "midi": 45,
          "name": "A2",
          "ticks": 3552,
          "time": 14.8,
          "velocity": 0.937007874015748
        },
        {
          "duration": 0.20000000000000107,
          "durationTicks": 48,
          "midi": 42,
          "name": "F#2",
          "ticks": 3600,
          "time": 15,
          "velocity": 0.937007874015748
        },
        {
          "duration": 0.1999999999999993,
          "durationTicks": 48,
          "midi": 42,
          "name": "F#2",
          "ticks": 3648,
          "time": 15.200000000000001,
          "velocity": 0.937007874015748
        },
        {
          "duration": 0.20000000000000107,
          "durationTicks": 48,
          "midi": 42,
          "name": "F#2",
          "ticks": 3696,
          "time": 15.4,
          "velocity": 0.937007874015748
        },
        {
          "duration": 0.1999999999999993,
          "durationTicks": 48,
          "midi": 42,
          "name": "F#2",
          "ticks": 3744,
          "time": 15.600000000000001,
          "velocity": 0.937007874015748
        },
        {
          "duration": 0.1999999999999993,
          "durationTicks": 48,
          "midi": 42,
          "name": "F#2",
          "ticks": 3792,
          "time": 15.8,
          "velocity": 0.937007874015748
        },
        {
          "duration": 0.1999999999999993,
          "durationTicks": 48,
          "midi": 38,
          "name": "D2",
          "ticks": 3840,
          "time": 16,
          "velocity": 0.937007874015748
        },
        {
          "duration": 0.20000000000000284,
          "durationTicks": 48,
          "midi": 38,
          "name": "D2",
          "ticks": 3888,
          "time": 16.2,
          "velocity": 0.937007874015748
        },
        {
          "duration": 0.1999999999999993,
          "durationTicks": 48,
          "midi": 38,
          "name": "D2",
          "ticks": 3936,
          "time": 16.400000000000002,
          "velocity": 0.937007874015748
        },
        {
          "duration": 0.1999999999999993,
          "durationTicks": 48,
          "midi": 38,
          "name": "D2",
          "ticks": 3984,
          "time": 16.6,
          "velocity": 0.937007874015748
        },
        {
          "duration": 0.1999999999999993,
          "durationTicks": 48,
          "midi": 38,
          "name": "D2",
          "ticks": 4032,
          "time": 16.8,
          "velocity": 0.937007874015748
        },
        {
          "duration": 0.1999999999999993,
          "durationTicks": 48,
          "midi": 38,
          "name": "D2",
          "ticks": 4080,
          "time": 17,
          "velocity": 0.937007874015748
        },
        {
          "duration": 0.20000000000000284,
          "durationTicks": 48,
          "midi": 38,
          "name": "D2",
          "ticks": 4128,
          "time": 17.2,
          "velocity": 0.937007874015748
        },
        {
          "duration": 0.1999999999999993,
          "durationTicks": 48,
          "midi": 38,
          "name": "D2",
          "ticks": 4176,
          "time": 17.400000000000002,
          "velocity": 0.937007874015748
        },
        {
          "duration": 0.1999999999999993,
          "durationTicks": 48,
          "midi": 40,
          "name": "E2",
          "ticks": 4224,
          "time": 17.6,
          "velocity": 0.937007874015748
        },
        {
          "duration": 0.1999999999999993,
          "durationTicks": 48,
          "midi": 40,
          "name": "E2",
          "ticks": 4272,
          "time": 17.8,
          "velocity": 0.937007874015748
        },
        {
          "duration": 0.1999999999999993,
          "durationTicks": 48,
          "midi": 40,
          "name": "E2",
          "ticks": 4320,
          "time": 18,
          "velocity": 0.937007874015748
        },
        {
          "duration": 0.20000000000000284,
          "durationTicks": 48,
          "midi": 42,
          "name": "F#2",
          "ticks": 4368,
          "time": 18.2,
          "velocity": 0.937007874015748
        },
        {
          "duration": 0.1999999999999993,
          "durationTicks": 48,
          "midi": 42,
          "name": "F#2",
          "ticks": 4416,
          "time": 18.400000000000002,
          "velocity": 0.937007874015748
        },
        {
          "duration": 0.1999999999999993,
          "durationTicks": 48,
          "midi": 42,
          "name": "F#2",
          "ticks": 4464,
          "time": 18.6,
          "velocity": 0.937007874015748
        },
        {
          "duration": 0.1999999999999993,
          "durationTicks": 48,
          "midi": 44,
          "name": "G#2",
          "ticks": 4512,
          "time": 18.8,
          "velocity": 0.937007874015748
        },
        {
          "duration": 0.20000000000000284,
          "durationTicks": 48,
          "midi": 44,
          "name": "G#2",
          "ticks": 4560,
          "time": 19,
          "velocity": 0.937007874015748
        },
        {
          "duration": 0.1999999999999993,
          "durationTicks": 48,
          "midi": 45,
          "name": "A2",
          "ticks": 4608,
          "time": 19.200000000000003,
          "velocity": 0.937007874015748
        },
        {
          "duration": 0.1999999999999993,
          "durationTicks": 48,
          "midi": 45,
          "name": "A2",
          "ticks": 4656,
          "time": 19.400000000000002,
          "velocity": 0.937007874015748
        },
        {
          "duration": 0.1999999999999993,
          "durationTicks": 48,
          "midi": 45,
          "name": "A2",
          "ticks": 4704,
          "time": 19.6,
          "velocity": 0.937007874015748
        },
        {
          "duration": 0.1999999999999993,
          "durationTicks": 48,
          "midi": 45,
          "name": "A2",
          "ticks": 4752,
          "time": 19.8,
          "velocity": 0.937007874015748
        },
        {
          "duration": 0.20000000000000284,
          "durationTicks": 48,
          "midi": 45,
          "name": "A2",
          "ticks": 4800,
          "time": 20,
          "velocity": 0.937007874015748
        },
        {
          "duration": 0.1999999999999993,
          "durationTicks": 48,
          "midi": 45,
          "name": "A2",
          "ticks": 4848,
          "time": 20.200000000000003,
          "velocity": 0.937007874015748
        },
        {
          "duration": 0.1999999999999993,
          "durationTicks": 48,
          "midi": 45,
          "name": "A2",
          "ticks": 4896,
          "time": 20.400000000000002,
          "velocity": 0.937007874015748
        },
        {
          "duration": 0.1999999999999993,
          "durationTicks": 48,
          "midi": 45,
          "name": "A2",
          "ticks": 4944,
          "time": 20.6,
          "velocity": 0.937007874015748
        },
        {
          "duration": 0.1999999999999993,
          "durationTicks": 48,
          "midi": 44,
          "name": "G#2",
          "ticks": 4992,
          "time": 20.8,
          "velocity": 0.937007874015748
        },
        {
          "duration": 0.20000000000000284,
          "durationTicks": 48,
          "midi": 44,
          "name": "G#2",
          "ticks": 5040,
          "time": 21,
          "velocity": 0.937007874015748
        },
        {
          "duration": 0.1999999999999993,
          "durationTicks": 48,
          "midi": 44,
          "name": "G#2",
          "ticks": 5088,
          "time": 21.200000000000003,
          "velocity": 0.937007874015748
        },
        {
          "duration": 0.1999999999999993,
          "durationTicks": 48,
          "midi": 44,
          "name": "G#2",
          "ticks": 5136,
          "time": 21.400000000000002,
          "velocity": 0.937007874015748
        },
        {
          "duration": 0.1999999999999993,
          "durationTicks": 48,
          "midi": 44,
          "name": "G#2",
          "ticks": 5184,
          "time": 21.6,
          "velocity": 0.937007874015748
        },
        {
          "duration": 0.1999999999999993,
          "durationTicks": 48,
          "midi": 44,
          "name": "G#2",
          "ticks": 5232,
          "time": 21.8,
          "velocity": 0.937007874015748
        },
        {
          "duration": 0.20000000000000284,
          "durationTicks": 48,
          "midi": 44,
          "name": "G#2",
          "ticks": 5280,
          "time": 22,
          "velocity": 0.937007874015748
        },
        {
          "duration": 0.1999999999999993,
          "durationTicks": 48,
          "midi": 44,
          "name": "G#2",
          "ticks": 5328,
          "time": 22.200000000000003,
          "velocity": 0.937007874015748
        },
        {
          "duration": 0.1999999999999993,
          "durationTicks": 48,
          "midi": 42,
          "name": "F#2",
          "ticks": 5376,
          "time": 22.400000000000002,
          "velocity": 0.937007874015748
        },
        {
          "duration": 0.1999999999999993,
          "durationTicks": 48,
          "midi": 42,
          "name": "F#2",
          "ticks": 5424,
          "time": 22.6,
          "velocity": 0.937007874015748
        },
        {
          "duration": 0.1999999999999993,
          "durationTicks": 48,
          "midi": 42,
          "name": "F#2",
          "ticks": 5472,
          "time": 22.8,
          "velocity": 0.937007874015748
        },
        {
          "duration": 0.20000000000000284,
          "durationTicks": 48,
          "midi": 42,
          "name": "F#2",
          "ticks": 5520,
          "time": 23,
          "velocity": 0.937007874015748
        },
        {
          "duration": 0.1999999999999993,
          "durationTicks": 48,
          "midi": 42,
          "name": "F#2",
          "ticks": 5568,
          "time": 23.200000000000003,
          "velocity": 0.937007874015748
        },
        {
          "duration": 0.1999999999999993,
          "durationTicks": 48,
          "midi": 42,
          "name": "F#2",
          "ticks": 5616,
          "time": 23.400000000000002,
          "velocity": 0.937007874015748
        },
        {
          "duration": 0.1999999999999993,
          "durationTicks": 48,
          "midi": 42,
          "name": "F#2",
          "ticks": 5664,
          "time": 23.6,
          "velocity": 0.937007874015748
        },
        {
          "duration": 0.1999999999999993,
          "durationTicks": 48,
          "midi": 42,
          "name": "F#2",
          "ticks": 5712,
          "time": 23.8,
          "velocity": 0.937007874015748
        },
        {
          "duration": 0.20000000000000284,
          "durationTicks": 48,
          "midi": 40,
          "name": "E2",
          "ticks": 5760,
          "time": 24,
          "velocity": 0.937007874015748
        },
        {
          "duration": 0.1999999999999993,
          "durationTicks": 48,
          "midi": 40,
          "name": "E2",
          "ticks": 5808,
          "time": 24.200000000000003,
          "velocity": 0.937007874015748
        },
        {
          "duration": 0.1999999999999993,
          "durationTicks": 48,
          "midi": 33,
          "name": "A1",
          "ticks": 5856,
          "time": 24.400000000000002,
          "velocity": 0.937007874015748
        },
        {
          "duration": 0.1999999999999993,
          "durationTicks": 48,
          "midi": 40,
          "name": "E2",
          "ticks": 5904,
          "time": 24.6,
          "velocity": 0.937007874015748
        },
        {
          "duration": 0.1999999999999993,
          "durationTicks": 48,
          "midi": 40,
          "name": "E2",
          "ticks": 5952,
          "time": 24.8,
          "velocity": 0.937007874015748
        },
        {
          "duration": 0.20000000000000284,
          "durationTicks": 48,
          "midi": 40,
          "name": "E2",
          "ticks": 6000,
          "time": 25,
          "velocity": 0.937007874015748
        },
        {
          "duration": 0.1999999999999993,
          "durationTicks": 48,
          "midi": 40,
          "name": "E2",
          "ticks": 6048,
          "time": 25.200000000000003,
          "velocity": 0.937007874015748
        },
        {
          "duration": 0.1999999999999993,
          "durationTicks": 48,
          "midi": 40,
          "name": "E2",
          "ticks": 6096,
          "time": 25.400000000000002,
          "velocity": 0.937007874015748
        },
        {
          "duration": 0.1999999999999993,
          "durationTicks": 48,
          "midi": 38,
          "name": "D2",
          "ticks": 6144,
          "time": 25.6,
          "velocity": 0.937007874015748
        },
        {
          "duration": 0.1999999999999993,
          "durationTicks": 48,
          "midi": 38,
          "name": "D2",
          "ticks": 6192,
          "time": 25.8,
          "velocity": 0.937007874015748
        },
        {
          "duration": 0.20000000000000284,
          "durationTicks": 48,
          "midi": 38,
          "name": "D2",
          "ticks": 6240,
          "time": 26,
          "velocity": 0.937007874015748
        },
        {
          "duration": 0.1999999999999993,
          "durationTicks": 48,
          "midi": 38,
          "name": "D2",
          "ticks": 6288,
          "time": 26.200000000000003,
          "velocity": 0.937007874015748
        },
        {
          "duration": 0.1999999999999993,
          "durationTicks": 48,
          "midi": 40,
          "name": "E2",
          "ticks": 6336,
          "time": 26.400000000000002,
          "velocity": 0.937007874015748
        },
        {
          "duration": 0.1999999999999993,
          "durationTicks": 48,
          "midi": 40,
          "name": "E2",
          "ticks": 6384,
          "time": 26.6,
          "velocity": 0.937007874015748
        },
        {
          "duration": 0.1999999999999993,
          "durationTicks": 48,
          "midi": 40,
          "name": "E2",
          "ticks": 6432,
          "time": 26.8,
          "velocity": 0.937007874015748
        },
        {
          "duration": 0.20000000000000284,
          "durationTicks": 48,
          "midi": 40,
          "name": "E2",
          "ticks": 6480,
          "time": 27,
          "velocity": 0.937007874015748
        },
        {
          "duration": 0.1999999999999993,
          "durationTicks": 48,
          "midi": 45,
          "name": "A2",
          "ticks": 6528,
          "time": 27.200000000000003,
          "velocity": 0.937007874015748
        },
        {
          "duration": 0.1999999999999993,
          "durationTicks": 48,
          "midi": 45,
          "name": "A2",
          "ticks": 6576,
          "time": 27.400000000000002,
          "velocity": 0.937007874015748
        },
        {
          "duration": 0.1999999999999993,
          "durationTicks": 48,
          "midi": 45,
          "name": "A2",
          "ticks": 6624,
          "time": 27.6,
          "velocity": 0.937007874015748
        },
        {
          "duration": 0.1999999999999993,
          "durationTicks": 48,
          "midi": 42,
          "name": "F#2",
          "ticks": 6672,
          "time": 27.8,
          "velocity": 0.937007874015748
        },
        {
          "duration": 0.20000000000000284,
          "durationTicks": 48,
          "midi": 42,
          "name": "F#2",
          "ticks": 6720,
          "time": 28,
          "velocity": 0.937007874015748
        },
        {
          "duration": 0.1999999999999993,
          "durationTicks": 48,
          "midi": 42,
          "name": "F#2",
          "ticks": 6768,
          "time": 28.200000000000003,
          "velocity": 0.937007874015748
        },
        {
          "duration": 0.1999999999999993,
          "durationTicks": 48,
          "midi": 42,
          "name": "F#2",
          "ticks": 6816,
          "time": 28.400000000000002,
          "velocity": 0.937007874015748
        },
        {
          "duration": 0.1999999999999993,
          "durationTicks": 48,
          "midi": 42,
          "name": "F#2",
          "ticks": 6864,
          "time": 28.6,
          "velocity": 0.937007874015748
        },
        {
          "duration": 0.1999999999999993,
          "durationTicks": 48,
          "midi": 38,
          "name": "D2",
          "ticks": 6912,
          "time": 28.8,
          "velocity": 0.937007874015748
        },
        {
          "duration": 0.20000000000000284,
          "durationTicks": 48,
          "midi": 38,
          "name": "D2",
          "ticks": 6960,
          "time": 29,
          "velocity": 0.937007874015748
        },
        {
          "duration": 0.1999999999999993,
          "durationTicks": 48,
          "midi": 38,
          "name": "D2",
          "ticks": 7008,
          "time": 29.200000000000003,
          "velocity": 0.937007874015748
        },
        {
          "duration": 0.1999999999999993,
          "durationTicks": 48,
          "midi": 38,
          "name": "D2",
          "ticks": 7056,
          "time": 29.400000000000002,
          "velocity": 0.937007874015748
        },
        {
          "duration": 0.1999999999999993,
          "durationTicks": 48,
          "midi": 40,
          "name": "E2",
          "ticks": 7104,
          "time": 29.6,
          "velocity": 0.937007874015748
        },
        {
          "duration": 0.1999999999999993,
          "durationTicks": 48,
          "midi": 40,
          "name": "E2",
          "ticks": 7152,
          "time": 29.8,
          "velocity": 0.937007874015748
        },
        {
          "duration": 0.20000000000000284,
          "durationTicks": 48,
          "midi": 40,
          "name": "E2",
          "ticks": 7200,
          "time": 30,
          "velocity": 0.937007874015748
        },
        {
          "duration": 0.1999999999999993,
          "durationTicks": 48,
          "midi": 33,
          "name": "A1",
          "ticks": 7248,
          "time": 30.200000000000003,
          "velocity": 0.937007874015748
        },
        {
          "duration": 0.1999999999999993,
          "durationTicks": 48,
          "midi": 33,
          "name": "A1",
          "ticks": 7296,
          "time": 30.400000000000002,
          "velocity": 0.937007874015748
        },
        {
          "duration": 0.1999999999999993,
          "durationTicks": 48,
          "midi": 33,
          "name": "A1",
          "ticks": 7344,
          "time": 30.6,
          "velocity": 0.937007874015748
        },
        {
          "duration": 0.1999999999999993,
          "durationTicks": 48,
          "midi": 33,
          "name": "A1",
          "ticks": 7392,
          "time": 30.8,
          "velocity": 0.937007874015748
        },
        {
          "duration": 0.20000000000000284,
          "durationTicks": 48,
          "midi": 33,
          "name": "A1",
          "ticks": 7440,
          "time": 31,
          "velocity": 0.937007874015748
        },
        {
          "duration": 0.1999999999999993,
          "durationTicks": 48,
          "midi": 33,
          "name": "A1",
          "ticks": 7488,
          "time": 31.200000000000003,
          "velocity": 0.937007874015748
        },
        {
          "duration": 0.1999999999999993,
          "durationTicks": 48,
          "midi": 33,
          "name": "A1",
          "ticks": 7536,
          "time": 31.400000000000002,
          "velocity": 0.937007874015748
        },
        {
          "duration": 0.1999999999999993,
          "durationTicks": 48,
          "midi": 33,
          "name": "A1",
          "ticks": 7584,
          "time": 31.6,
          "velocity": 0.937007874015748
        },
        {
          "duration": 0.1999999999999993,
          "durationTicks": 48,
          "midi": 33,
          "name": "A1",
          "ticks": 7632,
          "time": 31.8,
          "velocity": 0.937007874015748
        },
        {
          "duration": 0.20000000000000284,
          "durationTicks": 48,
          "midi": 42,
          "name": "F#2",
          "ticks": 7680,
          "time": 32,
          "velocity": 0.937007874015748
        },
        {
          "duration": 0.19999999999999574,
          "durationTicks": 48,
          "midi": 42,
          "name": "F#2",
          "ticks": 7728,
          "time": 32.2,
          "velocity": 0.937007874015748
        },
        {
          "duration": 0.20000000000000284,
          "durationTicks": 48,
          "midi": 42,
          "name": "F#2",
          "ticks": 7776,
          "time": 32.4,
          "velocity": 0.937007874015748
        },
        {
          "duration": 0.20000000000000284,
          "durationTicks": 48,
          "midi": 42,
          "name": "F#2",
          "ticks": 7824,
          "time": 32.6,
          "velocity": 0.937007874015748
        },
        {
          "duration": 0.19999999999999574,
          "durationTicks": 48,
          "midi": 42,
          "name": "F#2",
          "ticks": 7872,
          "time": 32.800000000000004,
          "velocity": 0.937007874015748
        },
        {
          "duration": 0.20000000000000284,
          "durationTicks": 48,
          "midi": 42,
          "name": "F#2",
          "ticks": 7920,
          "time": 33,
          "velocity": 0.937007874015748
        },
        {
          "duration": 0.19999999999999574,
          "durationTicks": 48,
          "midi": 42,
          "name": "F#2",
          "ticks": 7968,
          "time": 33.2,
          "velocity": 0.937007874015748
        },
        {
          "duration": 0.20000000000000284,
          "durationTicks": 48,
          "midi": 42,
          "name": "F#2",
          "ticks": 8016,
          "time": 33.4,
          "velocity": 0.937007874015748
        },
        {
          "duration": 0.20000000000000284,
          "durationTicks": 48,
          "midi": 42,
          "name": "F#2",
          "ticks": 8064,
          "time": 33.6,
          "velocity": 0.937007874015748
        },
        {
          "duration": 0.19999999999999574,
          "durationTicks": 48,
          "midi": 42,
          "name": "F#2",
          "ticks": 8112,
          "time": 33.800000000000004,
          "velocity": 0.937007874015748
        },
        {
          "duration": 0.20000000000000284,
          "durationTicks": 48,
          "midi": 42,
          "name": "F#2",
          "ticks": 8160,
          "time": 34,
          "velocity": 0.937007874015748
        },
        {
          "duration": 0.19999999999999574,
          "durationTicks": 48,
          "midi": 42,
          "name": "F#2",
          "ticks": 8208,
          "time": 34.2,
          "velocity": 0.937007874015748
        },
        {
          "duration": 0.20000000000000284,
          "durationTicks": 48,
          "midi": 42,
          "name": "F#2",
          "ticks": 8256,
          "time": 34.4,
          "velocity": 0.937007874015748
        },
        {
          "duration": 0.20000000000000284,
          "durationTicks": 48,
          "midi": 42,
          "name": "F#2",
          "ticks": 8304,
          "time": 34.6,
          "velocity": 0.937007874015748
        },
        {
          "duration": 0.19999999999999574,
          "durationTicks": 48,
          "midi": 42,
          "name": "F#2",
          "ticks": 8352,
          "time": 34.800000000000004,
          "velocity": 0.937007874015748
        },
        {
          "duration": 0.20000000000000284,
          "durationTicks": 48,
          "midi": 42,
          "name": "F#2",
          "ticks": 8400,
          "time": 35,
          "velocity": 0.937007874015748
        },
        {
          "duration": 0.19999999999999574,
          "durationTicks": 48,
          "midi": 41,
          "name": "F2",
          "ticks": 8448,
          "time": 35.2,
          "velocity": 0.937007874015748
        },
        {
          "duration": 0.20000000000000284,
          "durationTicks": 48,
          "midi": 41,
          "name": "F2",
          "ticks": 8496,
          "time": 35.4,
          "velocity": 0.937007874015748
        },
        {
          "duration": 0.20000000000000284,
          "durationTicks": 48,
          "midi": 41,
          "name": "F2",
          "ticks": 8544,
          "time": 35.6,
          "velocity": 0.937007874015748
        },
        {
          "duration": 0.19999999999999574,
          "durationTicks": 48,
          "midi": 41,
          "name": "F2",
          "ticks": 8592,
          "time": 35.800000000000004,
          "velocity": 0.937007874015748
        },
        {
          "duration": 0.20000000000000284,
          "durationTicks": 48,
          "midi": 41,
          "name": "F2",
          "ticks": 8640,
          "time": 36,
          "velocity": 0.937007874015748
        },
        {
          "duration": 0.19999999999999574,
          "durationTicks": 48,
          "midi": 41,
          "name": "F2",
          "ticks": 8688,
          "time": 36.2,
          "velocity": 0.937007874015748
        },
        {
          "duration": 0.20000000000000284,
          "durationTicks": 48,
          "midi": 41,
          "name": "F2",
          "ticks": 8736,
          "time": 36.4,
          "velocity": 0.937007874015748
        },
        {
          "duration": 0.20000000000000284,
          "durationTicks": 48,
          "midi": 41,
          "name": "F2",
          "ticks": 8784,
          "time": 36.6,
          "velocity": 0.937007874015748
        },
        {
          "duration": 0.19999999999999574,
          "durationTicks": 48,
          "midi": 41,
          "name": "F2",
          "ticks": 8832,
          "time": 36.800000000000004,
          "velocity": 0.937007874015748
        },
        {
          "duration": 0.20000000000000284,
          "durationTicks": 48,
          "midi": 41,
          "name": "F2",
          "ticks": 8880,
          "time": 37,
          "velocity": 0.937007874015748
        },
        {
          "duration": 0.19999999999999574,
          "durationTicks": 48,
          "midi": 41,
          "name": "F2",
          "ticks": 8928,
          "time": 37.2,
          "velocity": 0.937007874015748
        },
        {
          "duration": 0.20000000000000284,
          "durationTicks": 48,
          "midi": 41,
          "name": "F2",
          "ticks": 8976,
          "time": 37.4,
          "velocity": 0.937007874015748
        },
        {
          "duration": 0.20000000000000284,
          "durationTicks": 48,
          "midi": 41,
          "name": "F2",
          "ticks": 9024,
          "time": 37.6,
          "velocity": 0.937007874015748
        },
        {
          "duration": 0.19999999999999574,
          "durationTicks": 48,
          "midi": 41,
          "name": "F2",
          "ticks": 9072,
          "time": 37.800000000000004,
          "velocity": 0.937007874015748
        },
        {
          "duration": 0.20000000000000284,
          "durationTicks": 48,
          "midi": 41,
          "name": "F2",
          "ticks": 9120,
          "time": 38,
          "velocity": 0.937007874015748
        },
        {
          "duration": 0.20000000000000284,
          "durationTicks": 48,
          "midi": 41,
          "name": "F2",
          "ticks": 9168,
          "time": 38.2,
          "velocity": 0.937007874015748
        },
        {
          "duration": 0.19999999999999574,
          "durationTicks": 48,
          "midi": 39,
          "name": "D#2",
          "ticks": 9216,
          "time": 38.400000000000006,
          "velocity": 0.937007874015748
        },
        {
          "duration": 0.20000000000000284,
          "durationTicks": 48,
          "midi": 39,
          "name": "D#2",
          "ticks": 9264,
          "time": 38.6,
          "velocity": 0.937007874015748
        },
        {
          "duration": 0.19999999999999574,
          "durationTicks": 48,
          "midi": 39,
          "name": "D#2",
          "ticks": 9312,
          "time": 38.800000000000004,
          "velocity": 0.937007874015748
        },
        {
          "duration": 0.20000000000000284,
          "durationTicks": 48,
          "midi": 39,
          "name": "D#2",
          "ticks": 9360,
          "time": 39,
          "velocity": 0.937007874015748
        },
        {
          "duration": 0.20000000000000284,
          "durationTicks": 48,
          "midi": 39,
          "name": "D#2",
          "ticks": 9408,
          "time": 39.2,
          "velocity": 0.937007874015748
        },
        {
          "duration": 0.19999999999999574,
          "durationTicks": 48,
          "midi": 39,
          "name": "D#2",
          "ticks": 9456,
          "time": 39.400000000000006,
          "velocity": 0.937007874015748
        },
        {
          "duration": 0.20000000000000284,
          "durationTicks": 48,
          "midi": 39,
          "name": "D#2",
          "ticks": 9504,
          "time": 39.6,
          "velocity": 0.937007874015748
        },
        {
          "duration": 0.19999999999999574,
          "durationTicks": 48,
          "midi": 39,
          "name": "D#2",
          "ticks": 9552,
          "time": 39.800000000000004,
          "velocity": 0.937007874015748
        },
        {
          "duration": 0.20000000000000284,
          "durationTicks": 48,
          "midi": 39,
          "name": "D#2",
          "ticks": 9600,
          "time": 40,
          "velocity": 0.937007874015748
        },
        {
          "duration": 0.20000000000000284,
          "durationTicks": 48,
          "midi": 39,
          "name": "D#2",
          "ticks": 9648,
          "time": 40.2,
          "velocity": 0.937007874015748
        },
        {
          "duration": 0.19999999999999574,
          "durationTicks": 48,
          "midi": 39,
          "name": "D#2",
          "ticks": 9696,
          "time": 40.400000000000006,
          "velocity": 0.937007874015748
        },
        {
          "duration": 0.20000000000000284,
          "durationTicks": 48,
          "midi": 39,
          "name": "D#2",
          "ticks": 9744,
          "time": 40.6,
          "velocity": 0.937007874015748
        },
        {
          "duration": 0.19999999999999574,
          "durationTicks": 48,
          "midi": 39,
          "name": "D#2",
          "ticks": 9792,
          "time": 40.800000000000004,
          "velocity": 0.937007874015748
        },
        {
          "duration": 0.20000000000000284,
          "durationTicks": 48,
          "midi": 39,
          "name": "D#2",
          "ticks": 9840,
          "time": 41,
          "velocity": 0.937007874015748
        },
        {
          "duration": 0.20000000000000284,
          "durationTicks": 48,
          "midi": 39,
          "name": "D#2",
          "ticks": 9888,
          "time": 41.2,
          "velocity": 0.937007874015748
        },
        {
          "duration": 0.19999999999999574,
          "durationTicks": 48,
          "midi": 39,
          "name": "D#2",
          "ticks": 9936,
          "time": 41.400000000000006,
          "velocity": 0.937007874015748
        },
        {
          "duration": 0.20000000000000284,
          "durationTicks": 48,
          "midi": 38,
          "name": "D2",
          "ticks": 9984,
          "time": 41.6,
          "velocity": 0.937007874015748
        },
        {
          "duration": 0.19999999999999574,
          "durationTicks": 48,
          "midi": 38,
          "name": "D2",
          "ticks": 10032,
          "time": 41.800000000000004,
          "velocity": 0.937007874015748
        },
        {
          "duration": 0.20000000000000284,
          "durationTicks": 48,
          "midi": 38,
          "name": "D2",
          "ticks": 10080,
          "time": 42,
          "velocity": 0.937007874015748
        },
        {
          "duration": 0.20000000000000284,
          "durationTicks": 48,
          "midi": 38,
          "name": "D2",
          "ticks": 10128,
          "time": 42.2,
          "velocity": 0.937007874015748
        },
        {
          "duration": 0.19999999999999574,
          "durationTicks": 48,
          "midi": 38,
          "name": "D2",
          "ticks": 10176,
          "time": 42.400000000000006,
          "velocity": 0.937007874015748
        },
        {
          "duration": 0.20000000000000284,
          "durationTicks": 48,
          "midi": 38,
          "name": "D2",
          "ticks": 10224,
          "time": 42.6,
          "velocity": 0.937007874015748
        },
        {
          "duration": 0.19999999999999574,
          "durationTicks": 48,
          "midi": 38,
          "name": "D2",
          "ticks": 10272,
          "time": 42.800000000000004,
          "velocity": 0.937007874015748
        },
        {
          "duration": 0.20000000000000284,
          "durationTicks": 48,
          "midi": 38,
          "name": "D2",
          "ticks": 10320,
          "time": 43,
          "velocity": 0.937007874015748
        },
        {
          "duration": 0.20000000000000284,
          "durationTicks": 48,
          "midi": 38,
          "name": "D2",
          "ticks": 10368,
          "time": 43.2,
          "velocity": 0.937007874015748
        },
        {
          "duration": 0.19999999999999574,
          "durationTicks": 48,
          "midi": 38,
          "name": "D2",
          "ticks": 10416,
          "time": 43.400000000000006,
          "velocity": 0.937007874015748
        },
        {
          "duration": 0.20000000000000284,
          "durationTicks": 48,
          "midi": 38,
          "name": "D2",
          "ticks": 10464,
          "time": 43.6,
          "velocity": 0.937007874015748
        },
        {
          "duration": 0.19999999999999574,
          "durationTicks": 48,
          "midi": 38,
          "name": "D2",
          "ticks": 10512,
          "time": 43.800000000000004,
          "velocity": 0.937007874015748
        },
        {
          "duration": 0.20000000000000284,
          "durationTicks": 48,
          "midi": 38,
          "name": "D2",
          "ticks": 10560,
          "time": 44,
          "velocity": 0.937007874015748
        },
        {
          "duration": 0.20000000000000284,
          "durationTicks": 48,
          "midi": 38,
          "name": "D2",
          "ticks": 10608,
          "time": 44.2,
          "velocity": 0.937007874015748
        },
        {
          "duration": 0.19999999999999574,
          "durationTicks": 48,
          "midi": 38,
          "name": "D2",
          "ticks": 10656,
          "time": 44.400000000000006,
          "velocity": 0.937007874015748
        },
        {
          "duration": 0.20000000000000284,
          "durationTicks": 48,
          "midi": 38,
          "name": "D2",
          "ticks": 10704,
          "time": 44.6,
          "velocity": 0.937007874015748
        },
        {
          "duration": 0.19999999999999574,
          "durationTicks": 48,
          "midi": 39,
          "name": "D#2",
          "ticks": 10752,
          "time": 44.800000000000004,
          "velocity": 0.937007874015748
        },
        {
          "duration": 0.20000000000000284,
          "durationTicks": 48,
          "midi": 39,
          "name": "D#2",
          "ticks": 10800,
          "time": 45,
          "velocity": 0.937007874015748
        },
        {
          "duration": 0.20000000000000284,
          "durationTicks": 48,
          "midi": 39,
          "name": "D#2",
          "ticks": 10848,
          "time": 45.2,
          "velocity": 0.937007874015748
        },
        {
          "duration": 0.19999999999999574,
          "durationTicks": 48,
          "midi": 39,
          "name": "D#2",
          "ticks": 10896,
          "time": 45.400000000000006,
          "velocity": 0.937007874015748
        },
        {
          "duration": 0.20000000000000284,
          "durationTicks": 48,
          "midi": 39,
          "name": "D#2",
          "ticks": 10944,
          "time": 45.6,
          "velocity": 0.937007874015748
        },
        {
          "duration": 0.19999999999999574,
          "durationTicks": 48,
          "midi": 39,
          "name": "D#2",
          "ticks": 10992,
          "time": 45.800000000000004,
          "velocity": 0.937007874015748
        },
        {
          "duration": 0.20000000000000284,
          "durationTicks": 48,
          "midi": 39,
          "name": "D#2",
          "ticks": 11040,
          "time": 46,
          "velocity": 0.937007874015748
        },
        {
          "duration": 0.20000000000000284,
          "durationTicks": 48,
          "midi": 39,
          "name": "D#2",
          "ticks": 11088,
          "time": 46.2,
          "velocity": 0.937007874015748
        },
        {
          "duration": 0.19999999999999574,
          "durationTicks": 48,
          "midi": 37,
          "name": "C#2",
          "ticks": 11136,
          "time": 46.400000000000006,
          "velocity": 0.937007874015748
        },
        {
          "duration": 0.20000000000000284,
          "durationTicks": 48,
          "midi": 37,
          "name": "C#2",
          "ticks": 11184,
          "time": 46.6,
          "velocity": 0.937007874015748
        },
        {
          "duration": 0.19999999999999574,
          "durationTicks": 48,
          "midi": 37,
          "name": "C#2",
          "ticks": 11232,
          "time": 46.800000000000004,
          "velocity": 0.937007874015748
        },
        {
          "duration": 0.20000000000000284,
          "durationTicks": 48,
          "midi": 37,
          "name": "C#2",
          "ticks": 11280,
          "time": 47,
          "velocity": 0.937007874015748
        },
        {
          "duration": 0.20000000000000284,
          "durationTicks": 48,
          "midi": 37,
          "name": "C#2",
          "ticks": 11328,
          "time": 47.2,
          "velocity": 0.937007874015748
        },
        {
          "duration": 0.19999999999999574,
          "durationTicks": 48,
          "midi": 37,
          "name": "C#2",
          "ticks": 11376,
          "time": 47.400000000000006,
          "velocity": 0.937007874015748
        },
        {
          "duration": 0.20000000000000284,
          "durationTicks": 48,
          "midi": 37,
          "name": "C#2",
          "ticks": 11424,
          "time": 47.6,
          "velocity": 0.937007874015748
        },
        {
          "duration": 0.19999999999999574,
          "durationTicks": 48,
          "midi": 37,
          "name": "C#2",
          "ticks": 11472,
          "time": 47.800000000000004,
          "velocity": 0.937007874015748
        },
        {
          "duration": 0.20000000000000284,
          "durationTicks": 48,
          "midi": 35,
          "name": "B1",
          "ticks": 11520,
          "time": 48,
          "velocity": 0.937007874015748
        },
        {
          "duration": 0.20000000000000284,
          "durationTicks": 48,
          "midi": 35,
          "name": "B1",
          "ticks": 11568,
          "time": 48.2,
          "velocity": 0.937007874015748
        },
        {
          "duration": 0.19999999999999574,
          "durationTicks": 48,
          "midi": 35,
          "name": "B1",
          "ticks": 11616,
          "time": 48.400000000000006,
          "velocity": 0.937007874015748
        },
        {
          "duration": 0.20000000000000284,
          "durationTicks": 48,
          "midi": 35,
          "name": "B1",
          "ticks": 11664,
          "time": 48.6,
          "velocity": 0.937007874015748
        },
        {
          "duration": 0.19999999999999574,
          "durationTicks": 48,
          "midi": 35,
          "name": "B1",
          "ticks": 11712,
          "time": 48.800000000000004,
          "velocity": 0.937007874015748
        },
        {
          "duration": 0.20000000000000284,
          "durationTicks": 48,
          "midi": 35,
          "name": "B1",
          "ticks": 11760,
          "time": 49,
          "velocity": 0.937007874015748
        },
        {
          "duration": 0.20000000000000284,
          "durationTicks": 48,
          "midi": 35,
          "name": "B1",
          "ticks": 11808,
          "time": 49.2,
          "velocity": 0.937007874015748
        },
        {
          "duration": 0.19999999999999574,
          "durationTicks": 48,
          "midi": 35,
          "name": "B1",
          "ticks": 11856,
          "time": 49.400000000000006,
          "velocity": 0.937007874015748
        },
        {
          "duration": 0.20000000000000284,
          "durationTicks": 48,
          "midi": 37,
          "name": "C#2",
          "ticks": 11904,
          "time": 49.6,
          "velocity": 0.937007874015748
        },
        {
          "duration": 0.19999999999999574,
          "durationTicks": 48,
          "midi": 37,
          "name": "C#2",
          "ticks": 11952,
          "time": 49.800000000000004,
          "velocity": 0.937007874015748
        },
        {
          "duration": 0.20000000000000284,
          "durationTicks": 48,
          "midi": 37,
          "name": "C#2",
          "ticks": 12000,
          "time": 50,
          "velocity": 0.937007874015748
        },
        {
          "duration": 0.20000000000000284,
          "durationTicks": 48,
          "midi": 37,
          "name": "C#2",
          "ticks": 12048,
          "time": 50.2,
          "velocity": 0.937007874015748
        },
        {
          "duration": 0.19999999999999574,
          "durationTicks": 48,
          "midi": 37,
          "name": "C#2",
          "ticks": 12096,
          "time": 50.400000000000006,
          "velocity": 0.937007874015748
        },
        {
          "duration": 0.20000000000000284,
          "durationTicks": 48,
          "midi": 37,
          "name": "C#2",
          "ticks": 12144,
          "time": 50.6,
          "velocity": 0.937007874015748
        },
        {
          "duration": 0.19999999999999574,
          "durationTicks": 48,
          "midi": 41,
          "name": "F2",
          "ticks": 12192,
          "time": 50.800000000000004,
          "velocity": 0.937007874015748
        },
        {
          "duration": 0.20000000000000284,
          "durationTicks": 48,
          "midi": 41,
          "name": "F2",
          "ticks": 12240,
          "time": 51,
          "velocity": 0.937007874015748
        },
        {
          "duration": 0.20000000000000284,
          "durationTicks": 48,
          "midi": 42,
          "name": "F#2",
          "ticks": 12288,
          "time": 51.2,
          "velocity": 0.937007874015748
        },
        {
          "duration": 0.19999999999999574,
          "durationTicks": 48,
          "midi": 42,
          "name": "F#2",
          "ticks": 12336,
          "time": 51.400000000000006,
          "velocity": 0.937007874015748
        },
        {
          "duration": 0.20000000000000284,
          "durationTicks": 48,
          "midi": 42,
          "name": "F#2",
          "ticks": 12384,
          "time": 51.6,
          "velocity": 0.937007874015748
        },
        {
          "duration": 0.19999999999999574,
          "durationTicks": 48,
          "midi": 42,
          "name": "F#2",
          "ticks": 12432,
          "time": 51.800000000000004,
          "velocity": 0.937007874015748
        },
        {
          "duration": 0.20000000000000284,
          "durationTicks": 48,
          "midi": 42,
          "name": "F#2",
          "ticks": 12480,
          "time": 52,
          "velocity": 0.937007874015748
        },
        {
          "duration": 0.20000000000000284,
          "durationTicks": 48,
          "midi": 37,
          "name": "C#2",
          "ticks": 12528,
          "time": 52.2,
          "velocity": 0.937007874015748
        },
        {
          "duration": 0.19999999999999574,
          "durationTicks": 48,
          "midi": 41,
          "name": "F2",
          "ticks": 12576,
          "time": 52.400000000000006,
          "velocity": 0.937007874015748
        },
        {
          "duration": 0.20000000000000284,
          "durationTicks": 48,
          "midi": 42,
          "name": "F#2",
          "ticks": 12624,
          "time": 52.6,
          "velocity": 0.937007874015748
        },
        {
          "duration": 0.19999999999999574,
          "durationTicks": 48,
          "midi": 46,
          "name": "A#2",
          "ticks": 12672,
          "time": 52.800000000000004,
          "velocity": 0.937007874015748
        },
        {
          "duration": 0.20000000000000284,
          "durationTicks": 48,
          "midi": 46,
          "name": "A#2",
          "ticks": 12720,
          "time": 53,
          "velocity": 0.937007874015748
        },
        {
          "duration": 0.20000000000000284,
          "durationTicks": 48,
          "midi": 46,
          "name": "A#2",
          "ticks": 12768,
          "time": 53.2,
          "velocity": 0.937007874015748
        },
        {
          "duration": 0.19999999999999574,
          "durationTicks": 48,
          "midi": 48,
          "name": "C3",
          "ticks": 12816,
          "time": 53.400000000000006,
          "velocity": 0.937007874015748
        },
        {
          "duration": 0.20000000000000284,
          "durationTicks": 48,
          "midi": 48,
          "name": "C3",
          "ticks": 12864,
          "time": 53.6,
          "velocity": 0.937007874015748
        },
        {
          "duration": 0.19999999999999574,
          "durationTicks": 48,
          "midi": 48,
          "name": "C3",
          "ticks": 12912,
          "time": 53.800000000000004,
          "velocity": 0.937007874015748
        },
        {
          "duration": 0.20000000000000284,
          "durationTicks": 48,
          "midi": 50,
          "name": "D3",
          "ticks": 12960,
          "time": 54,
          "velocity": 0.937007874015748
        },
        {
          "duration": 0.20000000000000284,
          "durationTicks": 48,
          "midi": 50,
          "name": "D3",
          "ticks": 13008,
          "time": 54.2,
          "velocity": 0.937007874015748
        },
        {
          "duration": 0.5999999999999943,
          "durationTicks": 144,
          "midi": 39,
          "name": "D#2",
          "ticks": 13056,
          "time": 54.400000000000006,
          "velocity": 0.937007874015748
        },
        {
          "duration": 0.20000000000000284,
          "durationTicks": 48,
          "midi": 39,
          "name": "D#2",
          "ticks": 13200,
          "time": 55,
          "velocity": 0.937007874015748
        },
        {
          "duration": 0.7999999999999972,
          "durationTicks": 192,
          "midi": 39,
          "name": "D#2",
          "ticks": 13248,
          "time": 55.2,
          "velocity": 0.937007874015748
        },
        {
          "duration": 0.6000000000000014,
          "durationTicks": 144,
          "midi": 41,
          "name": "F2",
          "ticks": 13440,
          "time": 56,
          "velocity": 0.937007874015748
        },
        {
          "duration": 0.20000000000000284,
          "durationTicks": 48,
          "midi": 41,
          "name": "F2",
          "ticks": 13584,
          "time": 56.6,
          "velocity": 0.937007874015748
        },
        {
          "duration": 0.7999999999999972,
          "durationTicks": 192,
          "midi": 41,
          "name": "F2",
          "ticks": 13632,
          "time": 56.800000000000004,
          "velocity": 0.937007874015748
        },
        {
          "duration": 0.6000000000000014,
          "durationTicks": 144,
          "midi": 42,
          "name": "F#2",
          "ticks": 13824,
          "time": 57.6,
          "velocity": 0.937007874015748
        },
        {
          "duration": 0.20000000000000284,
          "durationTicks": 48,
          "midi": 42,
          "name": "F#2",
          "ticks": 13968,
          "time": 58.2,
          "velocity": 0.937007874015748
        },
        {
          "duration": 0.7999999999999972,
          "durationTicks": 192,
          "midi": 42,
          "name": "F#2",
          "ticks": 14016,
          "time": 58.400000000000006,
          "velocity": 0.937007874015748
        },
        {
          "duration": 0.20000000000000284,
          "durationTicks": 48,
          "midi": 42,
          "name": "F#2",
          "ticks": 14208,
          "time": 59.2,
          "velocity": 0.937007874015748
        },
        {
          "duration": 0.19999999999999574,
          "durationTicks": 48,
          "midi": 42,
          "name": "F#2",
          "ticks": 14256,
          "time": 59.400000000000006,
          "velocity": 0.937007874015748
        },
        {
          "duration": 0.20000000000000284,
          "durationTicks": 48,
          "midi": 37,
          "name": "C#2",
          "ticks": 14304,
          "time": 59.6,
          "velocity": 0.937007874015748
        },
        {
          "duration": 0.6000000000000014,
          "durationTicks": 144,
          "midi": 41,
          "name": "F2",
          "ticks": 14352,
          "time": 59.800000000000004,
          "velocity": 0.937007874015748
        },
        {
          "duration": 0.3999999999999986,
          "durationTicks": 96,
          "midi": 41,
          "name": "F2",
          "ticks": 14496,
          "time": 60.400000000000006,
          "velocity": 0.937007874015748
        },
        {
          "duration": 0.6000000000000014,
          "durationTicks": 144,
          "midi": 39,
          "name": "D#2",
          "ticks": 14592,
          "time": 60.800000000000004,
          "velocity": 0.937007874015748
        },
        {
          "duration": 0.19999999999999574,
          "durationTicks": 48,
          "midi": 39,
          "name": "D#2",
          "ticks": 14736,
          "time": 61.400000000000006,
          "velocity": 0.937007874015748
        },
        {
          "duration": 0.8000000000000043,
          "durationTicks": 192,
          "midi": 39,
          "name": "D#2",
          "ticks": 14784,
          "time": 61.6,
          "velocity": 0.937007874015748
        },
        {
          "duration": 0.5999999999999943,
          "durationTicks": 144,
          "midi": 41,
          "name": "F2",
          "ticks": 14976,
          "time": 62.400000000000006,
          "velocity": 0.937007874015748
        },
        {
          "duration": 0.20000000000000284,
          "durationTicks": 48,
          "midi": 41,
          "name": "F2",
          "ticks": 15120,
          "time": 63,
          "velocity": 0.937007874015748
        },
        {
          "duration": 0.7999999999999972,
          "durationTicks": 192,
          "midi": 41,
          "name": "F2",
          "ticks": 15168,
          "time": 63.2,
          "velocity": 0.937007874015748
        },
        {
          "duration": 0.6000000000000085,
          "durationTicks": 144,
          "midi": 42,
          "name": "F#2",
          "ticks": 15360,
          "time": 64,
          "velocity": 0.937007874015748
        },
        {
          "duration": 0.19999999999998863,
          "durationTicks": 48,
          "midi": 42,
          "name": "F#2",
          "ticks": 15504,
          "time": 64.60000000000001,
          "velocity": 0.937007874015748
        },
        {
          "duration": 0.8000000000000114,
          "durationTicks": 192,
          "midi": 42,
          "name": "F#2",
          "ticks": 15552,
          "time": 64.8,
          "velocity": 0.937007874015748
        },
        {
          "duration": 0.19999999999998863,
          "durationTicks": 48,
          "midi": 44,
          "name": "G#2",
          "ticks": 15744,
          "time": 65.60000000000001,
          "velocity": 0.937007874015748
        },
        {
          "duration": 0.20000000000000284,
          "durationTicks": 48,
          "midi": 44,
          "name": "G#2",
          "ticks": 15792,
          "time": 65.8,
          "velocity": 0.937007874015748
        },
        {
          "duration": 0.20000000000000284,
          "durationTicks": 48,
          "midi": 39,
          "name": "D#2",
          "ticks": 15840,
          "time": 66,
          "velocity": 0.937007874015748
        },
        {
          "duration": 0.5999999999999943,
          "durationTicks": 144,
          "midi": 44,
          "name": "G#2",
          "ticks": 15888,
          "time": 66.2,
          "velocity": 0.937007874015748
        },
        {
          "duration": 0.4000000000000057,
          "durationTicks": 96,
          "midi": 44,
          "name": "G#2",
          "ticks": 16032,
          "time": 66.8,
          "velocity": 0.937007874015748
        },
        {
          "duration": 0.4000000000000057,
          "durationTicks": 96,
          "midi": 49,
          "name": "C#3",
          "ticks": 16128,
          "time": 67.2,
          "velocity": 0.937007874015748
        },
        {
          "duration": 0.3999999999999915,
          "durationTicks": 96,
          "midi": 49,
          "name": "C#3",
          "ticks": 16224,
          "time": 67.60000000000001,
          "velocity": 0.937007874015748
        },
        {
          "duration": 0.20000000000000284,
          "durationTicks": 48,
          "midi": 49,
          "name": "C#3",
          "ticks": 16320,
          "time": 68,
          "velocity": 0.937007874015748
        },
        {
          "duration": 0.20000000000000284,
          "durationTicks": 48,
          "midi": 44,
          "name": "G#2",
          "ticks": 16368,
          "time": 68.2,
          "velocity": 0.937007874015748
        },
        {
          "duration": 0.20000000000000284,
          "durationTicks": 48,
          "midi": 49,
          "name": "C#3",
          "ticks": 16416,
          "time": 68.4,
          "velocity": 0.937007874015748
        },
        {
          "duration": 0.19999999999998863,
          "durationTicks": 48,
          "midi": 44,
          "name": "G#2",
          "ticks": 16464,
          "time": 68.60000000000001,
          "velocity": 0.937007874015748
        },
        {
          "duration": 0.4000000000000057,
          "durationTicks": 96,
          "midi": 49,
          "name": "C#3",
          "ticks": 16512,
          "time": 68.8,
          "velocity": 0.937007874015748
        },
        {
          "duration": 0.4000000000000057,
          "durationTicks": 96,
          "midi": 49,
          "name": "C#3",
          "ticks": 16608,
          "time": 69.2,
          "velocity": 0.937007874015748
        },
        {
          "duration": 0.19999999999998863,
          "durationTicks": 48,
          "midi": 49,
          "name": "C#3",
          "ticks": 16704,
          "time": 69.60000000000001,
          "velocity": 0.937007874015748
        },
        {
          "duration": 0.20000000000000284,
          "durationTicks": 48,
          "midi": 44,
          "name": "G#2",
          "ticks": 16752,
          "time": 69.8,
          "velocity": 0.937007874015748
        },
        {
          "duration": 0.20000000000000284,
          "durationTicks": 48,
          "midi": 49,
          "name": "C#3",
          "ticks": 16800,
          "time": 70,
          "velocity": 0.937007874015748
        },
        {
          "duration": 0.20000000000000284,
          "durationTicks": 48,
          "midi": 44,
          "name": "G#2",
          "ticks": 16848,
          "time": 70.2,
          "velocity": 0.937007874015748
        },
        {
          "duration": 0.20000000000000284,
          "durationTicks": 48,
          "midi": 49,
          "name": "C#3",
          "ticks": 16896,
          "time": 70.4,
          "velocity": 0.937007874015748
        },
        {
          "duration": 0.19999999999998863,
          "durationTicks": 48,
          "midi": 49,
          "name": "C#3",
          "ticks": 16944,
          "time": 70.60000000000001,
          "velocity": 0.937007874015748
        },
        {
          "duration": 0.20000000000000284,
          "durationTicks": 48,
          "midi": 49,
          "name": "C#3",
          "ticks": 16992,
          "time": 70.8,
          "velocity": 0.937007874015748
        },
        {
          "duration": 0.20000000000000284,
          "durationTicks": 48,
          "midi": 49,
          "name": "C#3",
          "ticks": 17040,
          "time": 71,
          "velocity": 0.937007874015748
        },
        {
          "duration": 0.20000000000000284,
          "durationTicks": 48,
          "midi": 51,
          "name": "D#3",
          "ticks": 17088,
          "time": 71.2,
          "velocity": 0.937007874015748
        },
        {
          "duration": 0.20000000000000284,
          "durationTicks": 48,
          "midi": 51,
          "name": "D#3",
          "ticks": 17136,
          "time": 71.4,
          "velocity": 0.937007874015748
        },
        {
          "duration": 0.19999999999998863,
          "durationTicks": 48,
          "midi": 51,
          "name": "D#3",
          "ticks": 17184,
          "time": 71.60000000000001,
          "velocity": 0.937007874015748
        },
        {
          "duration": 0.20000000000000284,
          "durationTicks": 48,
          "midi": 51,
          "name": "D#3",
          "ticks": 17232,
          "time": 71.8,
          "velocity": 0.937007874015748
        },
        {
          "duration": 0.20000000000000284,
          "durationTicks": 48,
          "midi": 52,
          "name": "E3",
          "ticks": 17280,
          "time": 72,
          "velocity": 0.937007874015748
        },
        {
          "duration": 0.19999999999998863,
          "durationTicks": 48,
          "midi": 45,
          "name": "A2",
          "ticks": 17664,
          "time": 73.60000000000001,
          "velocity": 0.937007874015748
        },
        {
          "duration": 0.20000000000000284,
          "durationTicks": 48,
          "midi": 45,
          "name": "A2",
          "ticks": 17712,
          "time": 73.8,
          "velocity": 0.937007874015748
        },
        {
          "duration": 0.20000000000000284,
          "durationTicks": 48,
          "midi": 45,
          "name": "A2",
          "ticks": 17760,
          "time": 74,
          "velocity": 0.937007874015748
        },
        {
          "duration": 0.20000000000000284,
          "durationTicks": 48,
          "midi": 45,
          "name": "A2",
          "ticks": 17808,
          "time": 74.2,
          "velocity": 0.937007874015748
        },
        {
          "duration": 0.20000000000000284,
          "durationTicks": 48,
          "midi": 45,
          "name": "A2",
          "ticks": 17856,
          "time": 74.4,
          "velocity": 0.937007874015748
        },
        {
          "duration": 0.19999999999998863,
          "durationTicks": 48,
          "midi": 45,
          "name": "A2",
          "ticks": 17904,
          "time": 74.60000000000001,
          "velocity": 0.937007874015748
        },
        {
          "duration": 0.20000000000000284,
          "durationTicks": 48,
          "midi": 45,
          "name": "A2",
          "ticks": 17952,
          "time": 74.8,
          "velocity": 0.937007874015748
        },
        {
          "duration": 0.20000000000000284,
          "durationTicks": 48,
          "midi": 45,
          "name": "A2",
          "ticks": 18000,
          "time": 75,
          "velocity": 0.937007874015748
        },
        {
          "duration": 0.20000000000000284,
          "durationTicks": 48,
          "midi": 44,
          "name": "G#2",
          "ticks": 18048,
          "time": 75.2,
          "velocity": 0.937007874015748
        },
        {
          "duration": 0.20000000000000284,
          "durationTicks": 48,
          "midi": 44,
          "name": "G#2",
          "ticks": 18096,
          "time": 75.4,
          "velocity": 0.937007874015748
        },
        {
          "duration": 0.19999999999998863,
          "durationTicks": 48,
          "midi": 44,
          "name": "G#2",
          "ticks": 18144,
          "time": 75.60000000000001,
          "velocity": 0.937007874015748
        },
        {
          "duration": 0.20000000000000284,
          "durationTicks": 48,
          "midi": 44,
          "name": "G#2",
          "ticks": 18192,
          "time": 75.8,
          "velocity": 0.937007874015748
        },
        {
          "duration": 0.20000000000000284,
          "durationTicks": 48,
          "midi": 44,
          "name": "G#2",
          "ticks": 18240,
          "time": 76,
          "velocity": 0.937007874015748
        },
        {
          "duration": 0.20000000000000284,
          "durationTicks": 48,
          "midi": 44,
          "name": "G#2",
          "ticks": 18288,
          "time": 76.2,
          "velocity": 0.937007874015748
        },
        {
          "duration": 0.20000000000000284,
          "durationTicks": 48,
          "midi": 44,
          "name": "G#2",
          "ticks": 18336,
          "time": 76.4,
          "velocity": 0.937007874015748
        },
        {
          "duration": 0.20000000000000284,
          "durationTicks": 48,
          "midi": 44,
          "name": "G#2",
          "ticks": 18384,
          "time": 76.60000000000001,
          "velocity": 0.937007874015748
        },
        {
          "duration": 0.19999999999998863,
          "durationTicks": 48,
          "midi": 42,
          "name": "F#2",
          "ticks": 18432,
          "time": 76.80000000000001,
          "velocity": 0.937007874015748
        },
        {
          "duration": 0.20000000000000284,
          "durationTicks": 48,
          "midi": 42,
          "name": "F#2",
          "ticks": 18480,
          "time": 77,
          "velocity": 0.937007874015748
        },
        {
          "duration": 0.20000000000000284,
          "durationTicks": 48,
          "midi": 42,
          "name": "F#2",
          "ticks": 18528,
          "time": 77.2,
          "velocity": 0.937007874015748
        },
        {
          "duration": 0.20000000000000284,
          "durationTicks": 48,
          "midi": 42,
          "name": "F#2",
          "ticks": 18576,
          "time": 77.4,
          "velocity": 0.937007874015748
        },
        {
          "duration": 0.20000000000000284,
          "durationTicks": 48,
          "midi": 42,
          "name": "F#2",
          "ticks": 18624,
          "time": 77.60000000000001,
          "velocity": 0.937007874015748
        },
        {
          "duration": 0.19999999999998863,
          "durationTicks": 48,
          "midi": 42,
          "name": "F#2",
          "ticks": 18672,
          "time": 77.80000000000001,
          "velocity": 0.937007874015748
        },
        {
          "duration": 0.20000000000000284,
          "durationTicks": 48,
          "midi": 42,
          "name": "F#2",
          "ticks": 18720,
          "time": 78,
          "velocity": 0.937007874015748
        },
        {
          "duration": 0.20000000000000284,
          "durationTicks": 48,
          "midi": 42,
          "name": "F#2",
          "ticks": 18768,
          "time": 78.2,
          "velocity": 0.937007874015748
        },
        {
          "duration": 0.20000000000000284,
          "durationTicks": 48,
          "midi": 40,
          "name": "E2",
          "ticks": 18816,
          "time": 78.4,
          "velocity": 0.937007874015748
        },
        {
          "duration": 0.20000000000000284,
          "durationTicks": 48,
          "midi": 40,
          "name": "E2",
          "ticks": 18864,
          "time": 78.60000000000001,
          "velocity": 0.937007874015748
        },
        {
          "duration": 0.19999999999998863,
          "durationTicks": 48,
          "midi": 33,
          "name": "A1",
          "ticks": 18912,
          "time": 78.80000000000001,
          "velocity": 0.937007874015748
        },
        {
          "duration": 0.20000000000000284,
          "durationTicks": 48,
          "midi": 40,
          "name": "E2",
          "ticks": 18960,
          "time": 79,
          "velocity": 0.937007874015748
        },
        {
          "duration": 0.20000000000000284,
          "durationTicks": 48,
          "midi": 40,
          "name": "E2",
          "ticks": 19008,
          "time": 79.2,
          "velocity": 0.937007874015748
        },
        {
          "duration": 0.20000000000000284,
          "durationTicks": 48,
          "midi": 40,
          "name": "E2",
          "ticks": 19056,
          "time": 79.4,
          "velocity": 0.937007874015748
        },
        {
          "duration": 0.20000000000000284,
          "durationTicks": 48,
          "midi": 40,
          "name": "E2",
          "ticks": 19104,
          "time": 79.60000000000001,
          "velocity": 0.937007874015748
        },
        {
          "duration": 0.19999999999998863,
          "durationTicks": 48,
          "midi": 40,
          "name": "E2",
          "ticks": 19152,
          "time": 79.80000000000001,
          "velocity": 0.937007874015748
        },
        {
          "duration": 0.20000000000000284,
          "durationTicks": 48,
          "midi": 38,
          "name": "D2",
          "ticks": 19200,
          "time": 80,
          "velocity": 0.937007874015748
        },
        {
          "duration": 0.20000000000000284,
          "durationTicks": 48,
          "midi": 38,
          "name": "D2",
          "ticks": 19248,
          "time": 80.2,
          "velocity": 0.937007874015748
        },
        {
          "duration": 0.20000000000000284,
          "durationTicks": 48,
          "midi": 38,
          "name": "D2",
          "ticks": 19296,
          "time": 80.4,
          "velocity": 0.937007874015748
        },
        {
          "duration": 0.20000000000000284,
          "durationTicks": 48,
          "midi": 38,
          "name": "D2",
          "ticks": 19344,
          "time": 80.60000000000001,
          "velocity": 0.937007874015748
        },
        {
          "duration": 0.19999999999998863,
          "durationTicks": 48,
          "midi": 40,
          "name": "E2",
          "ticks": 19392,
          "time": 80.80000000000001,
          "velocity": 0.937007874015748
        },
        {
          "duration": 0.20000000000000284,
          "durationTicks": 48,
          "midi": 40,
          "name": "E2",
          "ticks": 19440,
          "time": 81,
          "velocity": 0.937007874015748
        },
        {
          "duration": 0.20000000000000284,
          "durationTicks": 48,
          "midi": 40,
          "name": "E2",
          "ticks": 19488,
          "time": 81.2,
          "velocity": 0.937007874015748
        },
        {
          "duration": 0.20000000000000284,
          "durationTicks": 48,
          "midi": 40,
          "name": "E2",
          "ticks": 19536,
          "time": 81.4,
          "velocity": 0.937007874015748
        },
        {
          "duration": 0.20000000000000284,
          "durationTicks": 48,
          "midi": 45,
          "name": "A2",
          "ticks": 19584,
          "time": 81.60000000000001,
          "velocity": 0.937007874015748
        },
        {
          "duration": 0.19999999999998863,
          "durationTicks": 48,
          "midi": 45,
          "name": "A2",
          "ticks": 19632,
          "time": 81.80000000000001,
          "velocity": 0.937007874015748
        },
        {
          "duration": 0.20000000000000284,
          "durationTicks": 48,
          "midi": 45,
          "name": "A2",
          "ticks": 19680,
          "time": 82,
          "velocity": 0.937007874015748
        },
        {
          "duration": 0.20000000000000284,
          "durationTicks": 48,
          "midi": 42,
          "name": "F#2",
          "ticks": 19728,
          "time": 82.2,
          "velocity": 0.937007874015748
        },
        {
          "duration": 0.20000000000000284,
          "durationTicks": 48,
          "midi": 42,
          "name": "F#2",
          "ticks": 19776,
          "time": 82.4,
          "velocity": 0.937007874015748
        },
        {
          "duration": 0.20000000000000284,
          "durationTicks": 48,
          "midi": 42,
          "name": "F#2",
          "ticks": 19824,
          "time": 82.60000000000001,
          "velocity": 0.937007874015748
        },
        {
          "duration": 0.19999999999998863,
          "durationTicks": 48,
          "midi": 42,
          "name": "F#2",
          "ticks": 19872,
          "time": 82.80000000000001,
          "velocity": 0.937007874015748
        },
        {
          "duration": 0.20000000000000284,
          "durationTicks": 48,
          "midi": 42,
          "name": "F#2",
          "ticks": 19920,
          "time": 83,
          "velocity": 0.937007874015748
        },
        {
          "duration": 0.20000000000000284,
          "durationTicks": 48,
          "midi": 38,
          "name": "D2",
          "ticks": 19968,
          "time": 83.2,
          "velocity": 0.937007874015748
        },
        {
          "duration": 0.20000000000000284,
          "durationTicks": 48,
          "midi": 38,
          "name": "D2",
          "ticks": 20016,
          "time": 83.4,
          "velocity": 0.937007874015748
        },
        {
          "duration": 0.20000000000000284,
          "durationTicks": 48,
          "midi": 38,
          "name": "D2",
          "ticks": 20064,
          "time": 83.60000000000001,
          "velocity": 0.937007874015748
        },
        {
          "duration": 0.19999999999998863,
          "durationTicks": 48,
          "midi": 38,
          "name": "D2",
          "ticks": 20112,
          "time": 83.80000000000001,
          "velocity": 0.937007874015748
        },
        {
          "duration": 0.20000000000000284,
          "durationTicks": 48,
          "midi": 38,
          "name": "D2",
          "ticks": 20160,
          "time": 84,
          "velocity": 0.937007874015748
        },
        {
          "duration": 0.20000000000000284,
          "durationTicks": 48,
          "midi": 38,
          "name": "D2",
          "ticks": 20208,
          "time": 84.2,
          "velocity": 0.937007874015748
        },
        {
          "duration": 0.20000000000000284,
          "durationTicks": 48,
          "midi": 38,
          "name": "D2",
          "ticks": 20256,
          "time": 84.4,
          "velocity": 0.937007874015748
        },
        {
          "duration": 0.20000000000000284,
          "durationTicks": 48,
          "midi": 38,
          "name": "D2",
          "ticks": 20304,
          "time": 84.60000000000001,
          "velocity": 0.937007874015748
        },
        {
          "duration": 0.19999999999998863,
          "durationTicks": 48,
          "midi": 40,
          "name": "E2",
          "ticks": 20352,
          "time": 84.80000000000001,
          "velocity": 0.937007874015748
        },
        {
          "duration": 0.20000000000000284,
          "durationTicks": 48,
          "midi": 40,
          "name": "E2",
          "ticks": 20400,
          "time": 85,
          "velocity": 0.937007874015748
        },
        {
          "duration": 0.20000000000000284,
          "durationTicks": 48,
          "midi": 40,
          "name": "E2",
          "ticks": 20448,
          "time": 85.2,
          "velocity": 0.937007874015748
        },
        {
          "duration": 0.20000000000000284,
          "durationTicks": 48,
          "midi": 42,
          "name": "F#2",
          "ticks": 20496,
          "time": 85.4,
          "velocity": 0.937007874015748
        },
        {
          "duration": 0.20000000000000284,
          "durationTicks": 48,
          "midi": 42,
          "name": "F#2",
          "ticks": 20544,
          "time": 85.60000000000001,
          "velocity": 0.937007874015748
        },
        {
          "duration": 0.19999999999998863,
          "durationTicks": 48,
          "midi": 42,
          "name": "F#2",
          "ticks": 20592,
          "time": 85.80000000000001,
          "velocity": 0.937007874015748
        },
        {
          "duration": 0.20000000000000284,
          "durationTicks": 48,
          "midi": 44,
          "name": "G#2",
          "ticks": 20640,
          "time": 86,
          "velocity": 0.937007874015748
        },
        {
          "duration": 0.20000000000000284,
          "durationTicks": 48,
          "midi": 44,
          "name": "G#2",
          "ticks": 20688,
          "time": 86.2,
          "velocity": 0.937007874015748
        },
        {
          "duration": 0.20000000000000284,
          "durationTicks": 48,
          "midi": 45,
          "name": "A2",
          "ticks": 20736,
          "time": 86.4,
          "velocity": 0.937007874015748
        },
        {
          "duration": 0.20000000000000284,
          "durationTicks": 48,
          "midi": 45,
          "name": "A2",
          "ticks": 20784,
          "time": 86.60000000000001,
          "velocity": 0.937007874015748
        },
        {
          "duration": 0.19999999999998863,
          "durationTicks": 48,
          "midi": 45,
          "name": "A2",
          "ticks": 20832,
          "time": 86.80000000000001,
          "velocity": 0.937007874015748
        },
        {
          "duration": 0.20000000000000284,
          "durationTicks": 48,
          "midi": 45,
          "name": "A2",
          "ticks": 20880,
          "time": 87,
          "velocity": 0.937007874015748
        },
        {
          "duration": 0.20000000000000284,
          "durationTicks": 48,
          "midi": 45,
          "name": "A2",
          "ticks": 20928,
          "time": 87.2,
          "velocity": 0.937007874015748
        },
        {
          "duration": 0.20000000000000284,
          "durationTicks": 48,
          "midi": 45,
          "name": "A2",
          "ticks": 20976,
          "time": 87.4,
          "velocity": 0.937007874015748
        },
        {
          "duration": 0.20000000000000284,
          "durationTicks": 48,
          "midi": 45,
          "name": "A2",
          "ticks": 21024,
          "time": 87.60000000000001,
          "velocity": 0.937007874015748
        },
        {
          "duration": 0.19999999999998863,
          "durationTicks": 48,
          "midi": 45,
          "name": "A2",
          "ticks": 21072,
          "time": 87.80000000000001,
          "velocity": 0.937007874015748
        },
        {
          "duration": 0.20000000000000284,
          "durationTicks": 48,
          "midi": 44,
          "name": "G#2",
          "ticks": 21120,
          "time": 88,
          "velocity": 0.937007874015748
        },
        {
          "duration": 0.20000000000000284,
          "durationTicks": 48,
          "midi": 44,
          "name": "G#2",
          "ticks": 21168,
          "time": 88.2,
          "velocity": 0.937007874015748
        },
        {
          "duration": 0.20000000000000284,
          "durationTicks": 48,
          "midi": 44,
          "name": "G#2",
          "ticks": 21216,
          "time": 88.4,
          "velocity": 0.937007874015748
        },
        {
          "duration": 0.20000000000000284,
          "durationTicks": 48,
          "midi": 44,
          "name": "G#2",
          "ticks": 21264,
          "time": 88.60000000000001,
          "velocity": 0.937007874015748
        },
        {
          "duration": 0.19999999999998863,
          "durationTicks": 48,
          "midi": 44,
          "name": "G#2",
          "ticks": 21312,
          "time": 88.80000000000001,
          "velocity": 0.937007874015748
        },
        {
          "duration": 0.20000000000000284,
          "durationTicks": 48,
          "midi": 44,
          "name": "G#2",
          "ticks": 21360,
          "time": 89,
          "velocity": 0.937007874015748
        },
        {
          "duration": 0.20000000000000284,
          "durationTicks": 48,
          "midi": 44,
          "name": "G#2",
          "ticks": 21408,
          "time": 89.2,
          "velocity": 0.937007874015748
        },
        {
          "duration": 0.20000000000000284,
          "durationTicks": 48,
          "midi": 44,
          "name": "G#2",
          "ticks": 21456,
          "time": 89.4,
          "velocity": 0.937007874015748
        },
        {
          "duration": 0.20000000000000284,
          "durationTicks": 48,
          "midi": 42,
          "name": "F#2",
          "ticks": 21504,
          "time": 89.60000000000001,
          "velocity": 0.937007874015748
        },
        {
          "duration": 0.19999999999998863,
          "durationTicks": 48,
          "midi": 42,
          "name": "F#2",
          "ticks": 21552,
          "time": 89.80000000000001,
          "velocity": 0.937007874015748
        },
        {
          "duration": 0.20000000000000284,
          "durationTicks": 48,
          "midi": 42,
          "name": "F#2",
          "ticks": 21600,
          "time": 90,
          "velocity": 0.937007874015748
        },
        {
          "duration": 0.20000000000000284,
          "durationTicks": 48,
          "midi": 42,
          "name": "F#2",
          "ticks": 21648,
          "time": 90.2,
          "velocity": 0.937007874015748
        },
        {
          "duration": 0.20000000000000284,
          "durationTicks": 48,
          "midi": 42,
          "name": "F#2",
          "ticks": 21696,
          "time": 90.4,
          "velocity": 0.937007874015748
        },
        {
          "duration": 0.20000000000000284,
          "durationTicks": 48,
          "midi": 42,
          "name": "F#2",
          "ticks": 21744,
          "time": 90.60000000000001,
          "velocity": 0.937007874015748
        },
        {
          "duration": 0.19999999999998863,
          "durationTicks": 48,
          "midi": 42,
          "name": "F#2",
          "ticks": 21792,
          "time": 90.80000000000001,
          "velocity": 0.937007874015748
        },
        {
          "duration": 0.20000000000000284,
          "durationTicks": 48,
          "midi": 42,
          "name": "F#2",
          "ticks": 21840,
          "time": 91,
          "velocity": 0.937007874015748
        },
        {
          "duration": 0.20000000000000284,
          "durationTicks": 48,
          "midi": 40,
          "name": "E2",
          "ticks": 21888,
          "time": 91.2,
          "velocity": 0.937007874015748
        },
        {
          "duration": 0.20000000000000284,
          "durationTicks": 48,
          "midi": 40,
          "name": "E2",
          "ticks": 21936,
          "time": 91.4,
          "velocity": 0.937007874015748
        },
        {
          "duration": 0.20000000000000284,
          "durationTicks": 48,
          "midi": 33,
          "name": "A1",
          "ticks": 21984,
          "time": 91.60000000000001,
          "velocity": 0.937007874015748
        },
        {
          "duration": 0.19999999999998863,
          "durationTicks": 48,
          "midi": 40,
          "name": "E2",
          "ticks": 22032,
          "time": 91.80000000000001,
          "velocity": 0.937007874015748
        },
        {
          "duration": 0.20000000000000284,
          "durationTicks": 48,
          "midi": 40,
          "name": "E2",
          "ticks": 22080,
          "time": 92,
          "velocity": 0.937007874015748
        },
        {
          "duration": 0.20000000000000284,
          "durationTicks": 48,
          "midi": 40,
          "name": "E2",
          "ticks": 22128,
          "time": 92.2,
          "velocity": 0.937007874015748
        },
        {
          "duration": 0.20000000000000284,
          "durationTicks": 48,
          "midi": 40,
          "name": "E2",
          "ticks": 22176,
          "time": 92.4,
          "velocity": 0.937007874015748
        },
        {
          "duration": 0.20000000000000284,
          "durationTicks": 48,
          "midi": 40,
          "name": "E2",
          "ticks": 22224,
          "time": 92.60000000000001,
          "velocity": 0.937007874015748
        },
        {
          "duration": 0.19999999999998863,
          "durationTicks": 48,
          "midi": 38,
          "name": "D2",
          "ticks": 22272,
          "time": 92.80000000000001,
          "velocity": 0.937007874015748
        },
        {
          "duration": 0.20000000000000284,
          "durationTicks": 48,
          "midi": 38,
          "name": "D2",
          "ticks": 22320,
          "time": 93,
          "velocity": 0.937007874015748
        },
        {
          "duration": 0.20000000000000284,
          "durationTicks": 48,
          "midi": 38,
          "name": "D2",
          "ticks": 22368,
          "time": 93.2,
          "velocity": 0.937007874015748
        },
        {
          "duration": 0.20000000000000284,
          "durationTicks": 48,
          "midi": 38,
          "name": "D2",
          "ticks": 22416,
          "time": 93.4,
          "velocity": 0.937007874015748
        },
        {
          "duration": 0.20000000000000284,
          "durationTicks": 48,
          "midi": 40,
          "name": "E2",
          "ticks": 22464,
          "time": 93.60000000000001,
          "velocity": 0.937007874015748
        },
        {
          "duration": 0.19999999999998863,
          "durationTicks": 48,
          "midi": 40,
          "name": "E2",
          "ticks": 22512,
          "time": 93.80000000000001,
          "velocity": 0.937007874015748
        },
        {
          "duration": 0.20000000000000284,
          "durationTicks": 48,
          "midi": 35,
          "name": "B1",
          "ticks": 22560,
          "time": 94,
          "velocity": 0.937007874015748
        },
        {
          "duration": 0.20000000000000284,
          "durationTicks": 48,
          "midi": 35,
          "name": "B1",
          "ticks": 22608,
          "time": 94.2,
          "velocity": 0.937007874015748
        },
        {
          "duration": 0.20000000000000284,
          "durationTicks": 48,
          "midi": 33,
          "name": "A1",
          "ticks": 22656,
          "time": 94.4,
          "velocity": 0.937007874015748
        },
        {
          "duration": 0.20000000000000284,
          "durationTicks": 48,
          "midi": 33,
          "name": "A1",
          "ticks": 22704,
          "time": 94.60000000000001,
          "velocity": 0.937007874015748
        },
        {
          "duration": 0.19999999999998863,
          "durationTicks": 48,
          "midi": 33,
          "name": "A1",
          "ticks": 22752,
          "time": 94.80000000000001,
          "velocity": 0.937007874015748
        },
        {
          "duration": 0.20000000000000284,
          "durationTicks": 48,
          "midi": 30,
          "name": "F#1",
          "ticks": 22800,
          "time": 95,
          "velocity": 0.937007874015748
        },
        {
          "duration": 0.20000000000000284,
          "durationTicks": 48,
          "midi": 30,
          "name": "F#1",
          "ticks": 22848,
          "time": 95.2,
          "velocity": 0.937007874015748
        },
        {
          "duration": 0.20000000000000284,
          "durationTicks": 48,
          "midi": 30,
          "name": "F#1",
          "ticks": 22896,
          "time": 95.4,
          "velocity": 0.937007874015748
        },
        {
          "duration": 0.20000000000000284,
          "durationTicks": 48,
          "midi": 30,
          "name": "F#1",
          "ticks": 22944,
          "time": 95.60000000000001,
          "velocity": 0.937007874015748
        },
        {
          "duration": 0.19999999999998863,
          "durationTicks": 48,
          "midi": 30,
          "name": "F#1",
          "ticks": 22992,
          "time": 95.80000000000001,
          "velocity": 0.937007874015748
        },
        {
          "duration": 0.20000000000000284,
          "durationTicks": 48,
          "midi": 38,
          "name": "D2",
          "ticks": 23040,
          "time": 96,
          "velocity": 0.937007874015748
        },
        {
          "duration": 0.20000000000000284,
          "durationTicks": 48,
          "midi": 38,
          "name": "D2",
          "ticks": 23088,
          "time": 96.2,
          "velocity": 0.937007874015748
        },
        {
          "duration": 0.20000000000000284,
          "durationTicks": 48,
          "midi": 38,
          "name": "D2",
          "ticks": 23136,
          "time": 96.4,
          "velocity": 0.937007874015748
        },
        {
          "duration": 0.20000000000000284,
          "durationTicks": 48,
          "midi": 38,
          "name": "D2",
          "ticks": 23184,
          "time": 96.60000000000001,
          "velocity": 0.937007874015748
        },
        {
          "duration": 0.19999999999998863,
          "durationTicks": 48,
          "midi": 38,
          "name": "D2",
          "ticks": 23232,
          "time": 96.80000000000001,
          "velocity": 0.937007874015748
        },
        {
          "duration": 0.20000000000000284,
          "durationTicks": 48,
          "midi": 38,
          "name": "D2",
          "ticks": 23280,
          "time": 97,
          "velocity": 0.937007874015748
        },
        {
          "duration": 0.20000000000000284,
          "durationTicks": 48,
          "midi": 38,
          "name": "D2",
          "ticks": 23328,
          "time": 97.2,
          "velocity": 0.937007874015748
        },
        {
          "duration": 0.20000000000000284,
          "durationTicks": 48,
          "midi": 38,
          "name": "D2",
          "ticks": 23376,
          "time": 97.4,
          "velocity": 0.937007874015748
        },
        {
          "duration": 0.20000000000000284,
          "durationTicks": 48,
          "midi": 40,
          "name": "E2",
          "ticks": 23424,
          "time": 97.60000000000001,
          "velocity": 0.937007874015748
        },
        {
          "duration": 0.19999999999998863,
          "durationTicks": 48,
          "midi": 40,
          "name": "E2",
          "ticks": 23472,
          "time": 97.80000000000001,
          "velocity": 0.937007874015748
        },
        {
          "duration": 0.20000000000000284,
          "durationTicks": 48,
          "midi": 40,
          "name": "E2",
          "ticks": 23520,
          "time": 98,
          "velocity": 0.937007874015748
        },
        {
          "duration": 0.20000000000000284,
          "durationTicks": 48,
          "midi": 40,
          "name": "E2",
          "ticks": 23568,
          "time": 98.2,
          "velocity": 0.937007874015748
        },
        {
          "duration": 0.20000000000000284,
          "durationTicks": 48,
          "midi": 40,
          "name": "E2",
          "ticks": 23616,
          "time": 98.4,
          "velocity": 0.937007874015748
        },
        {
          "duration": 0.20000000000000284,
          "durationTicks": 48,
          "midi": 40,
          "name": "E2",
          "ticks": 23664,
          "time": 98.60000000000001,
          "velocity": 0.937007874015748
        },
        {
          "duration": 0.19999999999998863,
          "durationTicks": 48,
          "midi": 40,
          "name": "E2",
          "ticks": 23712,
          "time": 98.80000000000001,
          "velocity": 0.937007874015748
        },
        {
          "duration": 0.20000000000000284,
          "durationTicks": 48,
          "midi": 40,
          "name": "E2",
          "ticks": 23760,
          "time": 99,
          "velocity": 0.937007874015748
        },
        {
          "duration": 0.20000000000000284,
          "durationTicks": 48,
          "midi": 45,
          "name": "A2",
          "ticks": 23808,
          "time": 99.2,
          "velocity": 0.937007874015748
        },
        {
          "duration": 0.20000000000000284,
          "durationTicks": 48,
          "midi": 40,
          "name": "E2",
          "ticks": 23856,
          "time": 99.4,
          "velocity": 0.937007874015748
        },
        {
          "duration": 0.20000000000000284,
          "durationTicks": 48,
          "midi": 45,
          "name": "A2",
          "ticks": 23904,
          "time": 99.60000000000001,
          "velocity": 0.937007874015748
        },
        {
          "duration": 0.3999999999999915,
          "durationTicks": 96,
          "midi": 44,
          "name": "G#2",
          "ticks": 23952,
          "time": 99.80000000000001,
          "velocity": 0.937007874015748
        },
        {
          "duration": 0.20000000000000284,
          "durationTicks": 48,
          "midi": 40,
          "name": "E2",
          "ticks": 24048,
          "time": 100.2,
          "velocity": 0.937007874015748
        },
        {
          "duration": 0.20000000000000284,
          "durationTicks": 48,
          "midi": 44,
          "name": "G#2",
          "ticks": 24096,
          "time": 100.4,
          "velocity": 0.937007874015748
        },
        {
          "duration": 0.3999999999999915,
          "durationTicks": 96,
          "midi": 43,
          "name": "G2",
          "ticks": 24144,
          "time": 100.60000000000001,
          "velocity": 0.937007874015748
        },
        {
          "duration": 0.20000000000000284,
          "durationTicks": 48,
          "midi": 40,
          "name": "E2",
          "ticks": 24240,
          "time": 101,
          "velocity": 0.937007874015748
        },
        {
          "duration": 0.20000000000000284,
          "durationTicks": 48,
          "midi": 43,
          "name": "G2",
          "ticks": 24288,
          "time": 101.2,
          "velocity": 0.937007874015748
        },
        {
          "duration": 1,
          "durationTicks": 240,
          "midi": 42,
          "name": "F#2",
          "ticks": 24336,
          "time": 101.4,
          "velocity": 0.937007874015748
        },
        {
          "duration": 0.5999999999999943,
          "durationTicks": 144,
          "midi": 41,
          "name": "F2",
          "ticks": 24576,
          "time": 102.4,
          "velocity": 0.937007874015748
        },
        {
          "duration": 0.6000000000000085,
          "durationTicks": 144,
          "midi": 43,
          "name": "G2",
          "ticks": 24720,
          "time": 103,
          "velocity": 0.937007874015748
        },
        {
          "duration": 0.3999999999999915,
          "durationTicks": 96,
          "midi": 45,
          "name": "A2",
          "ticks": 24864,
          "time": 103.60000000000001,
          "velocity": 0.937007874015748
        }
      ]
    },
    {
      "channel": 0,
      "controlChanges": {
        "6": [
          {
            "number": 6,
            "ticks": 0,
            "time": 0,
            "value": 0.09448818897637795
          }
        ],
        "7": [
          {
            "number": 7,
            "ticks": 0,
            "time": 0,
            "value": 0.8110236220472441
          },
          {
            "number": 7,
            "ticks": 0,
            "time": 0,
            "value": 0.8110236220472441
          }
        ],
        "10": [
          {
            "number": 10,
            "ticks": 0,
            "time": 0,
            "value": 0.2283464566929134
          },
          {
            "number": 10,
            "ticks": 0,
            "time": 0,
            "value": 0.2283464566929134
          }
        ],
        "100": [
          {
            "number": 100,
            "ticks": 0,
            "time": 0,
            "value": 0
          }
        ],
        "101": [
          {
            "number": 101,
            "ticks": 0,
            "time": 0,
            "value": 0
          }
        ]
      },
      "pitchBends": [
        {
          "ticks": 0,
          "time": 0,
          "value": 0
        },
        {
          "ticks": 0,
          "time": 0,
          "value": 0
        }
      ],
      "instrument": {
        "family": "piano",
        "number": 0,
        "name": "acoustic grand piano"
      },
      "name": "ORCHESTRA HIT",
      "notes": [],
      "endOfTrackTicks": 25715
    },
    {
      "channel": 4,
      "controlChanges": {
        "6": [
          {
            "number": 6,
            "ticks": 0,
            "time": 0,
            "value": 0.09448818897637795
          },
          {
            "number": 6,
            "ticks": 0,
            "time": 0,
            "value": 0.09448818897637795
          },
          {
            "number": 6,
            "ticks": 25714,
            "time": 107.14166666666668,
            "value": 0.09448818897637795
          },
          {
            "number": 6,
            "ticks": 25715,
            "time": 107.14583333333333,
            "value": 0.09448818897637795
          }
        ],
        "7": [
          {
            "number": 7,
            "ticks": 0,
            "time": 0,
            "value": 0.8110236220472441
          },
          {
            "number": 7,
            "ticks": 0,
            "time": 0,
            "value": 0.8110236220472441
          },
          {
            "number": 7,
            "ticks": 25714,
            "time": 107.14166666666668,
            "value": 0.8110236220472441
          },
          {
            "number": 7,
            "ticks": 25715,
            "time": 107.14583333333333,
            "value": 0.8110236220472441
          }
        ],
        "10": [
          {
            "number": 10,
            "ticks": 0,
            "time": 0,
            "value": 0.2283464566929134
          },
          {
            "number": 10,
            "ticks": 0,
            "time": 0,
            "value": 0.2283464566929134
          },
          {
            "number": 10,
            "ticks": 25714,
            "time": 107.14166666666668,
            "value": 0.2283464566929134
          },
          {
            "number": 10,
            "ticks": 25715,
            "time": 107.14583333333333,
            "value": 0.2283464566929134
          }
        ],
        "100": [
          {
            "number": 100,
            "ticks": 0,
            "time": 0,
            "value": 0
          },
          {
            "number": 100,
            "ticks": 0,
            "time": 0,
            "value": 0
          },
          {
            "number": 100,
            "ticks": 25714,
            "time": 107.14166666666668,
            "value": 0
          },
          {
            "number": 100,
            "ticks": 25715,
            "time": 107.14583333333333,
            "value": 0
          }
        ],
        "101": [
          {
            "number": 101,
            "ticks": 0,
            "time": 0,
            "value": 0
          },
          {
            "number": 101,
            "ticks": 0,
            "time": 0,
            "value": 0
          },
          {
            "number": 101,
            "ticks": 25714,
            "time": 107.14166666666668,
            "value": 0
          },
          {
            "number": 101,
            "ticks": 25715,
            "time": 107.14583333333333,
            "value": 0
          }
        ]
      },
      "pitchBends": [
        {
          "ticks": 0,
          "time": 0,
          "value": 0
        },
        {
          "ticks": 0,
          "time": 0,
          "value": 0
        },
        {
          "ticks": 25714,
          "time": 107.14166666666668,
          "value": 0
        },
        {
          "ticks": 25715,
          "time": 107.14583333333333,
          "value": 0
        }
      ],
      "instrument": {
        "family": "ensemble",
        "number": 55,
        "name": "orchestra hit"
      },
      "name": "",
      "notes": [
        {
          "duration": 0.39999999999999947,
          "durationTicks": 96,
          "midi": 76,
          "name": "E5",
          "ticks": 1104,
          "time": 4.6000000000000005,
          "velocity": 0.9763779527559056
        },
        {
          "duration": 0.39999999999999947,
          "durationTicks": 96,
          "midi": 88,
          "name": "E6",
          "ticks": 1104,
          "time": 4.6000000000000005,
          "velocity": 0.7086614173228346
        },
        {
          "duration": 0.20000000000000018,
          "durationTicks": 48,
          "midi": 76,
          "name": "E5",
          "ticks": 1200,
          "time": 5,
          "velocity": 0.9763779527559056
        },
        {
          "duration": 0.20000000000000018,
          "durationTicks": 48,
          "midi": 88,
          "name": "E6",
          "ticks": 1200,
          "time": 5,
          "velocity": 0.7086614173228346
        },
        {
          "duration": 0.20000000000000018,
          "durationTicks": 48,
          "midi": 88,
          "name": "E6",
          "ticks": 1248,
          "time": 5.2,
          "velocity": 0.7086614173228346
        },
        {
          "duration": 0.20000000000000018,
          "durationTicks": 48,
          "midi": 76,
          "name": "E5",
          "ticks": 1248,
          "time": 5.2,
          "velocity": 0.9763779527559056
        },
        {
          "duration": 0.1999999999999993,
          "durationTicks": 48,
          "midi": 76,
          "name": "E5",
          "ticks": 4224,
          "time": 17.6,
          "velocity": 0.7007874015748031
        },
        {
          "duration": 0.1999999999999993,
          "durationTicks": 48,
          "midi": 88,
          "name": "E6",
          "ticks": 4224,
          "time": 17.6,
          "velocity": 0.9763779527559056
        },
        {
          "duration": 0.1999999999999993,
          "durationTicks": 48,
          "midi": 88,
          "name": "E6",
          "ticks": 4272,
          "time": 17.8,
          "velocity": 0.9763779527559056
        },
        {
          "duration": 0.1999999999999993,
          "durationTicks": 48,
          "midi": 76,
          "name": "E5",
          "ticks": 4272,
          "time": 17.8,
          "velocity": 0.7007874015748031
        },
        {
          "duration": 0.1999999999999993,
          "durationTicks": 48,
          "midi": 76,
          "name": "E5",
          "ticks": 4320,
          "time": 18,
          "velocity": 0.7007874015748031
        },
        {
          "duration": 0.1999999999999993,
          "durationTicks": 48,
          "midi": 88,
          "name": "E6",
          "ticks": 4320,
          "time": 18,
          "velocity": 0.9763779527559056
        },
        {
          "duration": 0.20000000000000284,
          "durationTicks": 48,
          "midi": 78,
          "name": "F#5",
          "ticks": 4368,
          "time": 18.2,
          "velocity": 0.7007874015748031
        },
        {
          "duration": 0.20000000000000284,
          "durationTicks": 48,
          "midi": 90,
          "name": "F#6",
          "ticks": 4368,
          "time": 18.2,
          "velocity": 0.9763779527559056
        },
        {
          "duration": 0.1999999999999993,
          "durationTicks": 48,
          "midi": 90,
          "name": "F#6",
          "ticks": 4416,
          "time": 18.400000000000002,
          "velocity": 0.9763779527559056
        },
        {
          "duration": 0.1999999999999993,
          "durationTicks": 48,
          "midi": 78,
          "name": "F#5",
          "ticks": 4416,
          "time": 18.400000000000002,
          "velocity": 0.7007874015748031
        },
        {
          "duration": 0.1999999999999993,
          "durationTicks": 48,
          "midi": 78,
          "name": "F#5",
          "ticks": 4464,
          "time": 18.6,
          "velocity": 0.7007874015748031
        },
        {
          "duration": 0.1999999999999993,
          "durationTicks": 48,
          "midi": 90,
          "name": "F#6",
          "ticks": 4464,
          "time": 18.6,
          "velocity": 0.9763779527559056
        },
        {
          "duration": 0.1999999999999993,
          "durationTicks": 48,
          "midi": 92,
          "name": "G#6",
          "ticks": 4512,
          "time": 18.8,
          "velocity": 0.9763779527559056
        },
        {
          "duration": 0.1999999999999993,
          "durationTicks": 48,
          "midi": 80,
          "name": "G#5",
          "ticks": 4512,
          "time": 18.8,
          "velocity": 0.7007874015748031
        },
        {
          "duration": 0.20000000000000284,
          "durationTicks": 48,
          "midi": 92,
          "name": "G#6",
          "ticks": 4560,
          "time": 19,
          "velocity": 0.9763779527559056
        },
        {
          "duration": 0.20000000000000284,
          "durationTicks": 48,
          "midi": 80,
          "name": "G#5",
          "ticks": 4560,
          "time": 19,
          "velocity": 0.7007874015748031
        },
        {
          "duration": 0.6000000000000014,
          "durationTicks": 144,
          "midi": 74,
          "name": "D5",
          "ticks": 12672,
          "time": 52.800000000000004,
          "velocity": 0.7322834645669292
        },
        {
          "duration": 0.6000000000000014,
          "durationTicks": 144,
          "midi": 86,
          "name": "D6",
          "ticks": 12672,
          "time": 52.800000000000004,
          "velocity": 0.968503937007874
        },
        {
          "duration": 0.5999999999999943,
          "durationTicks": 144,
          "midi": 87,
          "name": "D#6",
          "ticks": 12816,
          "time": 53.400000000000006,
          "velocity": 0.968503937007874
        },
        {
          "duration": 0.5999999999999943,
          "durationTicks": 144,
          "midi": 75,
          "name": "D#5",
          "ticks": 12816,
          "time": 53.400000000000006,
          "velocity": 0.7322834645669292
        },
        {
          "duration": 0.4000000000000057,
          "durationTicks": 96,
          "midi": 89,
          "name": "F6",
          "ticks": 12960,
          "time": 54,
          "velocity": 0.968503937007874
        },
        {
          "duration": 0.4000000000000057,
          "durationTicks": 96,
          "midi": 77,
          "name": "F5",
          "ticks": 12960,
          "time": 54,
          "velocity": 0.7322834645669292
        },
        {
          "duration": 0.3999999999999986,
          "durationTicks": 96,
          "midi": 90,
          "name": "F#6",
          "ticks": 13056,
          "time": 54.400000000000006,
          "velocity": 0.968503937007874
        },
        {
          "duration": 0.3999999999999986,
          "durationTicks": 96,
          "midi": 78,
          "name": "F#5",
          "ticks": 13056,
          "time": 54.400000000000006,
          "velocity": 0.7322834645669292
        },
        {
          "duration": 0.19999999999998863,
          "durationTicks": 48,
          "midi": 76,
          "name": "E5",
          "ticks": 20352,
          "time": 84.80000000000001,
          "velocity": 0.7007874015748031
        },
        {
          "duration": 0.19999999999998863,
          "durationTicks": 48,
          "midi": 88,
          "name": "E6",
          "ticks": 20352,
          "time": 84.80000000000001,
          "velocity": 0.9763779527559056
        },
        {
          "duration": 0.20000000000000284,
          "durationTicks": 48,
          "midi": 88,
          "name": "E6",
          "ticks": 20400,
          "time": 85,
          "velocity": 0.9763779527559056
        },
        {
          "duration": 0.20000000000000284,
          "durationTicks": 48,
          "midi": 76,
          "name": "E5",
          "ticks": 20400,
          "time": 85,
          "velocity": 0.7007874015748031
        },
        {
          "duration": 0.20000000000000284,
          "durationTicks": 48,
          "midi": 76,
          "name": "E5",
          "ticks": 20448,
          "time": 85.2,
          "velocity": 0.7007874015748031
        },
        {
          "duration": 0.20000000000000284,
          "durationTicks": 48,
          "midi": 88,
          "name": "E6",
          "ticks": 20448,
          "time": 85.2,
          "velocity": 0.9763779527559056
        },
        {
          "duration": 0.20000000000000284,
          "durationTicks": 48,
          "midi": 78,
          "name": "F#5",
          "ticks": 20496,
          "time": 85.4,
          "velocity": 0.7007874015748031
        },
        {
          "duration": 0.20000000000000284,
          "durationTicks": 48,
          "midi": 90,
          "name": "F#6",
          "ticks": 20496,
          "time": 85.4,
          "velocity": 0.9763779527559056
        },
        {
          "duration": 0.20000000000000284,
          "durationTicks": 48,
          "midi": 90,
          "name": "F#6",
          "ticks": 20544,
          "time": 85.60000000000001,
          "velocity": 0.9763779527559056
        },
        {
          "duration": 0.20000000000000284,
          "durationTicks": 48,
          "midi": 78,
          "name": "F#5",
          "ticks": 20544,
          "time": 85.60000000000001,
          "velocity": 0.7007874015748031
        },
        {
          "duration": 0.19999999999998863,
          "durationTicks": 48,
          "midi": 78,
          "name": "F#5",
          "ticks": 20592,
          "time": 85.80000000000001,
          "velocity": 0.7007874015748031
        },
        {
          "duration": 0.19999999999998863,
          "durationTicks": 48,
          "midi": 90,
          "name": "F#6",
          "ticks": 20592,
          "time": 85.80000000000001,
          "velocity": 0.9763779527559056
        },
        {
          "duration": 0.20000000000000284,
          "durationTicks": 48,
          "midi": 92,
          "name": "G#6",
          "ticks": 20640,
          "time": 86,
          "velocity": 0.9763779527559056
        },
        {
          "duration": 0.20000000000000284,
          "durationTicks": 48,
          "midi": 80,
          "name": "G#5",
          "ticks": 20640,
          "time": 86,
          "velocity": 0.7007874015748031
        },
        {
          "duration": 0.20000000000000284,
          "durationTicks": 48,
          "midi": 92,
          "name": "G#6",
          "ticks": 20688,
          "time": 86.2,
          "velocity": 0.9763779527559056
        },
        {
          "duration": 0.20000000000000284,
          "durationTicks": 48,
          "midi": 80,
          "name": "G#5",
          "ticks": 20688,
          "time": 86.2,
          "velocity": 0.7007874015748031
        },
        {
          "duration": 0.5999999999999943,
          "durationTicks": 144,
          "midi": 77,
          "name": "F5",
          "ticks": 24576,
          "time": 102.4,
          "velocity": 0.7874015748031497
        },
        {
          "duration": 0.5999999999999943,
          "durationTicks": 144,
          "midi": 89,
          "name": "F6",
          "ticks": 24576,
          "time": 102.4,
          "velocity": 0.7874015748031497
        },
        {
          "duration": 0.6000000000000085,
          "durationTicks": 144,
          "midi": 79,
          "name": "G5",
          "ticks": 24720,
          "time": 103,
          "velocity": 0.7874015748031497
        },
        {
          "duration": 0.6000000000000085,
          "durationTicks": 144,
          "midi": 91,
          "name": "G6",
          "ticks": 24720,
          "time": 103,
          "velocity": 0.7874015748031497
        },
        {
          "duration": 0.3999999999999915,
          "durationTicks": 96,
          "midi": 81,
          "name": "A5",
          "ticks": 24864,
          "time": 103.60000000000001,
          "velocity": 0.7874015748031497
        },
        {
          "duration": 0.3999999999999915,
          "durationTicks": 96,
          "midi": 93,
          "name": "A6",
          "ticks": 24864,
          "time": 103.60000000000001,
          "velocity": 0.7874015748031497
        }
      ]
    },
    {
      "channel": 0,
      "controlChanges": {
        "6": [
          {
            "number": 6,
            "ticks": 0,
            "time": 0,
            "value": 0.09448818897637795
          }
        ],
        "7": [
          {
            "number": 7,
            "ticks": 0,
            "time": 0,
            "value": 0.7007874015748031
          },
          {
            "number": 7,
            "ticks": 0,
            "time": 0,
            "value": 0.7007874015748031
          }
        ],
        "10": [
          {
            "number": 10,
            "ticks": 0,
            "time": 0,
            "value": 0.6062992125984252
          },
          {
            "number": 10,
            "ticks": 0,
            "time": 0,
            "value": 0.6062992125984252
          }
        ],
        "100": [
          {
            "number": 100,
            "ticks": 0,
            "time": 0,
            "value": 0
          }
        ],
        "101": [
          {
            "number": 101,
            "ticks": 0,
            "time": 0,
            "value": 0
          }
        ]
      },
      "pitchBends": [
        {
          "ticks": 0,
          "time": 0,
          "value": 0
        },
        {
          "ticks": 0,
          "time": 0,
          "value": 0
        }
      ],
      "instrument": {
        "family": "piano",
        "number": 0,
        "name": "acoustic grand piano"
      },
      "name": "synth brass",
      "notes": [],
      "endOfTrackTicks": 25715
    },
    {
      "channel": 6,
      "controlChanges": {
        "6": [
          {
            "number": 6,
            "ticks": 0,
            "time": 0,
            "value": 0.09448818897637795
          },
          {
            "number": 6,
            "ticks": 0,
            "time": 0,
            "value": 0.09448818897637795
          },
          {
            "number": 6,
            "ticks": 25714,
            "time": 107.14166666666668,
            "value": 0.09448818897637795
          },
          {
            "number": 6,
            "ticks": 25715,
            "time": 107.14583333333333,
            "value": 0.09448818897637795
          }
        ],
        "7": [
          {
            "number": 7,
            "ticks": 0,
            "time": 0,
            "value": 0.7007874015748031
          },
          {
            "number": 7,
            "ticks": 0,
            "time": 0,
            "value": 0.7007874015748031
          },
          {
            "number": 7,
            "ticks": 25714,
            "time": 107.14166666666668,
            "value": 0.7007874015748031
          },
          {
            "number": 7,
            "ticks": 25715,
            "time": 107.14583333333333,
            "value": 0.7007874015748031
          }
        ],
        "10": [
          {
            "number": 10,
            "ticks": 0,
            "time": 0,
            "value": 0.6062992125984252
          },
          {
            "number": 10,
            "ticks": 0,
            "time": 0,
            "value": 0.6062992125984252
          },
          {
            "number": 10,
            "ticks": 25714,
            "time": 107.14166666666668,
            "value": 0.6062992125984252
          },
          {
            "number": 10,
            "ticks": 25715,
            "time": 107.14583333333333,
            "value": 0.6062992125984252
          }
        ],
        "100": [
          {
            "number": 100,
            "ticks": 0,
            "time": 0,
            "value": 0
          },
          {
            "number": 100,
            "ticks": 0,
            "time": 0,
            "value": 0
          },
          {
            "number": 100,
            "ticks": 25714,
            "time": 107.14166666666668,
            "value": 0
          },
          {
            "number": 100,
            "ticks": 25715,
            "time": 107.14583333333333,
            "value": 0
          }
        ],
        "101": [
          {
            "number": 101,
            "ticks": 0,
            "time": 0,
            "value": 0
          },
          {
            "number": 101,
            "ticks": 0,
            "time": 0,
            "value": 0
          },
          {
            "number": 101,
            "ticks": 25714,
            "time": 107.14166666666668,
            "value": 0
          },
          {
            "number": 101,
            "ticks": 25715,
            "time": 107.14583333333333,
            "value": 0
          }
        ]
      },
      "pitchBends": [
        {
          "ticks": 0,
          "time": 0,
          "value": 0
        },
        {
          "ticks": 0,
          "time": 0,
          "value": 0
        },
        {
          "ticks": 25714,
          "time": 107.14166666666668,
          "value": 0
        },
        {
          "ticks": 25715,
          "time": 107.14583333333333,
          "value": 0
        }
      ],
      "instrument": {
        "family": "brass",
        "number": 62,
        "name": "synthbrass 1"
      },
      "name": "",
      "notes": [
        {
          "duration": 0.6000000000000001,
          "durationTicks": 144,
          "midi": 69,
          "name": "A4",
          "ticks": 384,
          "time": 1.6,
          "velocity": 0.4015748031496063
        },
        {
          "duration": 0.6000000000000001,
          "durationTicks": 144,
          "midi": 74,
          "name": "D5",
          "ticks": 384,
          "time": 1.6,
          "velocity": 0.9212598425196851
        },
        {
          "duration": 0.6000000000000001,
          "durationTicks": 144,
          "midi": 62,
          "name": "D4",
          "ticks": 384,
          "time": 1.6,
          "velocity": 0.9212598425196851
        },
        {
          "duration": 0.6000000000000001,
          "durationTicks": 144,
          "midi": 73,
          "name": "C#5",
          "ticks": 528,
          "time": 2.2,
          "velocity": 0.9212598425196851
        },
        {
          "duration": 0.6000000000000001,
          "durationTicks": 144,
          "midi": 61,
          "name": "C#4",
          "ticks": 528,
          "time": 2.2,
          "velocity": 0.9212598425196851
        },
        {
          "duration": 0.6000000000000001,
          "durationTicks": 144,
          "midi": 69,
          "name": "A4",
          "ticks": 528,
          "time": 2.2,
          "velocity": 0.4015748031496063
        },
        {
          "duration": 0.6000000000000001,
          "durationTicks": 144,
          "midi": 66,
          "name": "F#4",
          "ticks": 672,
          "time": 2.8000000000000003,
          "velocity": 0.4015748031496063
        },
        {
          "duration": 0.6000000000000001,
          "durationTicks": 144,
          "midi": 59,
          "name": "B3",
          "ticks": 672,
          "time": 2.8000000000000003,
          "velocity": 0.9212598425196851
        },
        {
          "duration": 0.6000000000000001,
          "durationTicks": 144,
          "midi": 71,
          "name": "B4",
          "ticks": 672,
          "time": 2.8000000000000003,
          "velocity": 0.9212598425196851
        },
        {
          "duration": 0.19999999999999973,
          "durationTicks": 48,
          "midi": 74,
          "name": "D5",
          "ticks": 816,
          "time": 3.4000000000000004,
          "velocity": 0.9212598425196851
        },
        {
          "duration": 0.19999999999999973,
          "durationTicks": 48,
          "midi": 62,
          "name": "D4",
          "ticks": 816,
          "time": 3.4000000000000004,
          "velocity": 0.9212598425196851
        },
        {
          "duration": 0.19999999999999973,
          "durationTicks": 48,
          "midi": 69,
          "name": "A4",
          "ticks": 816,
          "time": 3.4000000000000004,
          "velocity": 0.4015748031496063
        },
        {
          "duration": 0.20000000000000018,
          "durationTicks": 48,
          "midi": 74,
          "name": "D5",
          "ticks": 864,
          "time": 3.6,
          "velocity": 0.9212598425196851
        },
        {
          "duration": 0.20000000000000018,
          "durationTicks": 48,
          "midi": 62,
          "name": "D4",
          "ticks": 864,
          "time": 3.6,
          "velocity": 0.9212598425196851
        },
        {
          "duration": 0.20000000000000018,
          "durationTicks": 48,
          "midi": 69,
          "name": "A4",
          "ticks": 864,
          "time": 3.6,
          "velocity": 0.4015748031496063
        },
        {
          "duration": 0.19999999999999973,
          "durationTicks": 48,
          "midi": 74,
          "name": "D5",
          "ticks": 912,
          "time": 3.8000000000000003,
          "velocity": 0.9212598425196851
        },
        {
          "duration": 0.19999999999999973,
          "durationTicks": 48,
          "midi": 62,
          "name": "D4",
          "ticks": 912,
          "time": 3.8000000000000003,
          "velocity": 0.9212598425196851
        },
        {
          "duration": 0.19999999999999973,
          "durationTicks": 48,
          "midi": 69,
          "name": "A4",
          "ticks": 912,
          "time": 3.8000000000000003,
          "velocity": 0.4015748031496063
        },
        {
          "duration": 0.20000000000000018,
          "durationTicks": 48,
          "midi": 74,
          "name": "D5",
          "ticks": 960,
          "time": 4,
          "velocity": 0.9212598425196851
        },
        {
          "duration": 0.20000000000000018,
          "durationTicks": 48,
          "midi": 62,
          "name": "D4",
          "ticks": 960,
          "time": 4,
          "velocity": 0.9212598425196851
        },
        {
          "duration": 0.20000000000000018,
          "durationTicks": 48,
          "midi": 69,
          "name": "A4",
          "ticks": 960,
          "time": 4,
          "velocity": 0.4015748031496063
        },
        {
          "duration": 0.20000000000000018,
          "durationTicks": 48,
          "midi": 69,
          "name": "A4",
          "ticks": 1008,
          "time": 4.2,
          "velocity": 0.4015748031496063
        },
        {
          "duration": 0.20000000000000018,
          "durationTicks": 48,
          "midi": 62,
          "name": "D4",
          "ticks": 1008,
          "time": 4.2,
          "velocity": 0.9212598425196851
        },
        {
          "duration": 0.20000000000000018,
          "durationTicks": 48,
          "midi": 74,
          "name": "D5",
          "ticks": 1008,
          "time": 4.2,
          "velocity": 0.9212598425196851
        },
        {
          "duration": 0.39999999999999947,
          "durationTicks": 96,
          "midi": 76,
          "name": "E5",
          "ticks": 1104,
          "time": 4.6000000000000005,
          "velocity": 0.9212598425196851
        },
        {
          "duration": 0.39999999999999947,
          "durationTicks": 96,
          "midi": 64,
          "name": "E4",
          "ticks": 1104,
          "time": 4.6000000000000005,
          "velocity": 0.9212598425196851
        },
        {
          "duration": 0.39999999999999947,
          "durationTicks": 96,
          "midi": 71,
          "name": "B4",
          "ticks": 1104,
          "time": 4.6000000000000005,
          "velocity": 0.9212598425196851
        },
        {
          "duration": 0.39999999999999947,
          "durationTicks": 96,
          "midi": 68,
          "name": "G#4",
          "ticks": 1104,
          "time": 4.6000000000000005,
          "velocity": 0.4015748031496063
        },
        {
          "duration": 0.20000000000000018,
          "durationTicks": 48,
          "midi": 68,
          "name": "G#4",
          "ticks": 1200,
          "time": 5,
          "velocity": 0.4015748031496063
        },
        {
          "duration": 0.20000000000000018,
          "durationTicks": 48,
          "midi": 76,
          "name": "E5",
          "ticks": 1200,
          "time": 5,
          "velocity": 0.9212598425196851
        },
        {
          "duration": 0.20000000000000018,
          "durationTicks": 48,
          "midi": 64,
          "name": "E4",
          "ticks": 1200,
          "time": 5,
          "velocity": 0.9212598425196851
        },
        {
          "duration": 0.20000000000000018,
          "durationTicks": 48,
          "midi": 71,
          "name": "B4",
          "ticks": 1200,
          "time": 5,
          "velocity": 0.9212598425196851
        },
        {
          "duration": 0.20000000000000018,
          "durationTicks": 48,
          "midi": 68,
          "name": "G#4",
          "ticks": 1248,
          "time": 5.2,
          "velocity": 0.4015748031496063
        },
        {
          "duration": 0.20000000000000018,
          "durationTicks": 48,
          "midi": 71,
          "name": "B4",
          "ticks": 1248,
          "time": 5.2,
          "velocity": 0.9212598425196851
        },
        {
          "duration": 0.20000000000000018,
          "durationTicks": 48,
          "midi": 64,
          "name": "E4",
          "ticks": 1248,
          "time": 5.2,
          "velocity": 0.9212598425196851
        },
        {
          "duration": 0.20000000000000018,
          "durationTicks": 48,
          "midi": 76,
          "name": "E5",
          "ticks": 1248,
          "time": 5.2,
          "velocity": 0.9212598425196851
        },
        {
          "duration": 0.1999999999999993,
          "durationTicks": 48,
          "midi": 76,
          "name": "E5",
          "ticks": 4224,
          "time": 17.6,
          "velocity": 0.8346456692913385
        },
        {
          "duration": 0.1999999999999993,
          "durationTicks": 48,
          "midi": 64,
          "name": "E4",
          "ticks": 4224,
          "time": 17.6,
          "velocity": 0.8346456692913385
        },
        {
          "duration": 0.1999999999999993,
          "durationTicks": 48,
          "midi": 76,
          "name": "E5",
          "ticks": 4272,
          "time": 17.8,
          "velocity": 0.8346456692913385
        },
        {
          "duration": 0.1999999999999993,
          "durationTicks": 48,
          "midi": 64,
          "name": "E4",
          "ticks": 4272,
          "time": 17.8,
          "velocity": 0.8346456692913385
        },
        {
          "duration": 0.1999999999999993,
          "durationTicks": 48,
          "midi": 64,
          "name": "E4",
          "ticks": 4320,
          "time": 18,
          "velocity": 0.8346456692913385
        },
        {
          "duration": 0.1999999999999993,
          "durationTicks": 48,
          "midi": 76,
          "name": "E5",
          "ticks": 4320,
          "time": 18,
          "velocity": 0.8346456692913385
        },
        {
          "duration": 0.20000000000000284,
          "durationTicks": 48,
          "midi": 66,
          "name": "F#4",
          "ticks": 4368,
          "time": 18.2,
          "velocity": 0.8346456692913385
        },
        {
          "duration": 0.20000000000000284,
          "durationTicks": 48,
          "midi": 78,
          "name": "F#5",
          "ticks": 4368,
          "time": 18.2,
          "velocity": 0.8346456692913385
        },
        {
          "duration": 0.1999999999999993,
          "durationTicks": 48,
          "midi": 78,
          "name": "F#5",
          "ticks": 4416,
          "time": 18.400000000000002,
          "velocity": 0.8346456692913385
        },
        {
          "duration": 0.1999999999999993,
          "durationTicks": 48,
          "midi": 66,
          "name": "F#4",
          "ticks": 4416,
          "time": 18.400000000000002,
          "velocity": 0.8346456692913385
        },
        {
          "duration": 0.1999999999999993,
          "durationTicks": 48,
          "midi": 66,
          "name": "F#4",
          "ticks": 4464,
          "time": 18.6,
          "velocity": 0.8346456692913385
        },
        {
          "duration": 0.1999999999999993,
          "durationTicks": 48,
          "midi": 78,
          "name": "F#5",
          "ticks": 4464,
          "time": 18.6,
          "velocity": 0.8346456692913385
        },
        {
          "duration": 0.1999999999999993,
          "durationTicks": 48,
          "midi": 80,
          "name": "G#5",
          "ticks": 4512,
          "time": 18.8,
          "velocity": 0.8346456692913385
        },
        {
          "duration": 0.1999999999999993,
          "durationTicks": 48,
          "midi": 68,
          "name": "G#4",
          "ticks": 4512,
          "time": 18.8,
          "velocity": 0.8346456692913385
        },
        {
          "duration": 0.20000000000000284,
          "durationTicks": 48,
          "midi": 80,
          "name": "G#5",
          "ticks": 4560,
          "time": 19,
          "velocity": 0.8346456692913385
        },
        {
          "duration": 0.20000000000000284,
          "durationTicks": 48,
          "midi": 68,
          "name": "G#4",
          "ticks": 4560,
          "time": 19,
          "velocity": 0.8346456692913385
        },
        {
          "duration": 0.3999999999999986,
          "durationTicks": 96,
          "midi": 74,
          "name": "D5",
          "ticks": 12672,
          "time": 52.800000000000004,
          "velocity": 0.8818897637795275
        },
        {
          "duration": 0.6000000000000014,
          "durationTicks": 144,
          "midi": 86,
          "name": "D6",
          "ticks": 12672,
          "time": 52.800000000000004,
          "velocity": 0.8818897637795275
        },
        {
          "duration": 0.5999999999999943,
          "durationTicks": 144,
          "midi": 87,
          "name": "D#6",
          "ticks": 12816,
          "time": 53.400000000000006,
          "velocity": 0.8818897637795275
        },
        {
          "duration": 0.3999999999999986,
          "durationTicks": 96,
          "midi": 75,
          "name": "D#5",
          "ticks": 12816,
          "time": 53.400000000000006,
          "velocity": 0.8818897637795275
        },
        {
          "duration": 0.4000000000000057,
          "durationTicks": 96,
          "midi": 89,
          "name": "F6",
          "ticks": 12960,
          "time": 54,
          "velocity": 0.8818897637795275
        },
        {
          "duration": 0.4000000000000057,
          "durationTicks": 96,
          "midi": 77,
          "name": "F5",
          "ticks": 12960,
          "time": 54,
          "velocity": 0.8818897637795275
        },
        {
          "duration": 0.3999999999999986,
          "durationTicks": 96,
          "midi": 90,
          "name": "F#6",
          "ticks": 13056,
          "time": 54.400000000000006,
          "velocity": 0.8818897637795275
        },
        {
          "duration": 0.3999999999999986,
          "durationTicks": 96,
          "midi": 78,
          "name": "F#5",
          "ticks": 13056,
          "time": 54.400000000000006,
          "velocity": 0.8818897637795275
        },
        {
          "duration": 0.19999999999998863,
          "durationTicks": 48,
          "midi": 76,
          "name": "E5",
          "ticks": 20352,
          "time": 84.80000000000001,
          "velocity": 0.8346456692913385
        },
        {
          "duration": 0.19999999999998863,
          "durationTicks": 48,
          "midi": 64,
          "name": "E4",
          "ticks": 20352,
          "time": 84.80000000000001,
          "velocity": 0.8346456692913385
        },
        {
          "duration": 0.20000000000000284,
          "durationTicks": 48,
          "midi": 64,
          "name": "E4",
          "ticks": 20400,
          "time": 85,
          "velocity": 0.8346456692913385
        },
        {
          "duration": 0.20000000000000284,
          "durationTicks": 48,
          "midi": 76,
          "name": "E5",
          "ticks": 20400,
          "time": 85,
          "velocity": 0.8346456692913385
        },
        {
          "duration": 0.20000000000000284,
          "durationTicks": 48,
          "midi": 76,
          "name": "E5",
          "ticks": 20448,
          "time": 85.2,
          "velocity": 0.8346456692913385
        },
        {
          "duration": 0.20000000000000284,
          "durationTicks": 48,
          "midi": 64,
          "name": "E4",
          "ticks": 20448,
          "time": 85.2,
          "velocity": 0.8346456692913385
        },
        {
          "duration": 0.20000000000000284,
          "durationTicks": 48,
          "midi": 66,
          "name": "F#4",
          "ticks": 20496,
          "time": 85.4,
          "velocity": 0.8346456692913385
        },
        {
          "duration": 0.20000000000000284,
          "durationTicks": 48,
          "midi": 78,
          "name": "F#5",
          "ticks": 20496,
          "time": 85.4,
          "velocity": 0.8346456692913385
        },
        {
          "duration": 0.20000000000000284,
          "durationTicks": 48,
          "midi": 78,
          "name": "F#5",
          "ticks": 20544,
          "time": 85.60000000000001,
          "velocity": 0.8346456692913385
        },
        {
          "duration": 0.20000000000000284,
          "durationTicks": 48,
          "midi": 66,
          "name": "F#4",
          "ticks": 20544,
          "time": 85.60000000000001,
          "velocity": 0.8346456692913385
        },
        {
          "duration": 0.19999999999998863,
          "durationTicks": 48,
          "midi": 78,
          "name": "F#5",
          "ticks": 20592,
          "time": 85.80000000000001,
          "velocity": 0.8346456692913385
        },
        {
          "duration": 0.19999999999998863,
          "durationTicks": 48,
          "midi": 66,
          "name": "F#4",
          "ticks": 20592,
          "time": 85.80000000000001,
          "velocity": 0.8346456692913385
        },
        {
          "duration": 0.20000000000000284,
          "durationTicks": 48,
          "midi": 68,
          "name": "G#4",
          "ticks": 20640,
          "time": 86,
          "velocity": 0.8346456692913385
        },
        {
          "duration": 0.20000000000000284,
          "durationTicks": 48,
          "midi": 80,
          "name": "G#5",
          "ticks": 20640,
          "time": 86,
          "velocity": 0.8346456692913385
        },
        {
          "duration": 0.20000000000000284,
          "durationTicks": 48,
          "midi": 80,
          "name": "G#5",
          "ticks": 20688,
          "time": 86.2,
          "velocity": 0.8346456692913385
        },
        {
          "duration": 0.20000000000000284,
          "durationTicks": 48,
          "midi": 68,
          "name": "G#4",
          "ticks": 20688,
          "time": 86.2,
          "velocity": 0.8346456692913385
        },
        {
          "duration": 0.5999999999999943,
          "durationTicks": 144,
          "midi": 89,
          "name": "F6",
          "ticks": 24576,
          "time": 102.4,
          "velocity": 0.7874015748031497
        },
        {
          "duration": 0.5999999999999943,
          "durationTicks": 144,
          "midi": 77,
          "name": "F5",
          "ticks": 24576,
          "time": 102.4,
          "velocity": 0.7874015748031497
        },
        {
          "duration": 0.6000000000000085,
          "durationTicks": 144,
          "midi": 91,
          "name": "G6",
          "ticks": 24720,
          "time": 103,
          "velocity": 0.7874015748031497
        },
        {
          "duration": 0.6000000000000085,
          "durationTicks": 144,
          "midi": 79,
          "name": "G5",
          "ticks": 24720,
          "time": 103,
          "velocity": 0.7874015748031497
        },
        {
          "duration": 0.3999999999999915,
          "durationTicks": 96,
          "midi": 93,
          "name": "A6",
          "ticks": 24864,
          "time": 103.60000000000001,
          "velocity": 0.7874015748031497
        },
        {
          "duration": 0.3999999999999915,
          "durationTicks": 96,
          "midi": 81,
          "name": "A5",
          "ticks": 24864,
          "time": 103.60000000000001,
          "velocity": 0.7874015748031497
        }
      ]
    },
    {
      "channel": 0,
      "controlChanges": {
        "6": [
          {
            "number": 6,
            "ticks": 0,
            "time": 0,
            "value": 0.09448818897637795
          }
        ],
        "7": [
          {
            "number": 7,
            "ticks": 0,
            "time": 0,
            "value": 0.6771653543307087
          },
          {
            "number": 7,
            "ticks": 0,
            "time": 0,
            "value": 0.6771653543307087
          }
        ],
        "10": [
          {
            "number": 10,
            "ticks": 0,
            "time": 0,
            "value": 0.4251968503937008
          },
          {
            "number": 10,
            "ticks": 0,
            "time": 0,
            "value": 0.4251968503937008
          }
        ],
        "100": [
          {
            "number": 100,
            "ticks": 0,
            "time": 0,
            "value": 0
          }
        ],
        "101": [
          {
            "number": 101,
            "ticks": 0,
            "time": 0,
            "value": 0
          }
        ]
      },
      "pitchBends": [
        {
          "ticks": 0,
          "time": 0,
          "value": 0
        },
        {
          "ticks": 0,
          "time": 0,
          "value": 0
        }
      ],
      "instrument": {
        "family": "piano",
        "number": 0,
        "name": "acoustic grand piano"
      },
      "name": "MUSIC BOX",
      "notes": [],
      "endOfTrackTicks": 25715
    },
    {
      "channel": 8,
      "controlChanges": {
        "6": [
          {
            "number": 6,
            "ticks": 0,
            "time": 0,
            "value": 0.09448818897637795
          },
          {
            "number": 6,
            "ticks": 0,
            "time": 0,
            "value": 0.09448818897637795
          },
          {
            "number": 6,
            "ticks": 25714,
            "time": 107.14166666666668,
            "value": 0.09448818897637795
          },
          {
            "number": 6,
            "ticks": 25715,
            "time": 107.14583333333333,
            "value": 0.09448818897637795
          }
        ],
        "7": [
          {
            "number": 7,
            "ticks": 0,
            "time": 0,
            "value": 0.6771653543307087
          },
          {
            "number": 7,
            "ticks": 0,
            "time": 0,
            "value": 0.6771653543307087
          },
          {
            "number": 7,
            "ticks": 25714,
            "time": 107.14166666666668,
            "value": 0.6771653543307087
          },
          {
            "number": 7,
            "ticks": 25715,
            "time": 107.14583333333333,
            "value": 0.6771653543307087
          }
        ],
        "10": [
          {
            "number": 10,
            "ticks": 0,
            "time": 0,
            "value": 0.4251968503937008
          },
          {
            "number": 10,
            "ticks": 0,
            "time": 0,
            "value": 0.4251968503937008
          },
          {
            "number": 10,
            "ticks": 25714,
            "time": 107.14166666666668,
            "value": 0.4251968503937008
          },
          {
            "number": 10,
            "ticks": 25715,
            "time": 107.14583333333333,
            "value": 0.4251968503937008
          }
        ],
        "91": [
          {
            "number": 91,
            "ticks": 0,
            "time": 0,
            "value": 0.6220472440944882
          },
          {
            "number": 91,
            "ticks": 0,
            "time": 0,
            "value": 0.6220472440944882
          },
          {
            "number": 91,
            "ticks": 0,
            "time": 0,
            "value": 0.6220472440944882
          },
          {
            "number": 91,
            "ticks": 25714,
            "time": 107.14166666666668,
            "value": 0.6220472440944882
          },
          {
            "number": 91,
            "ticks": 25715,
            "time": 107.14583333333333,
            "value": 0.6220472440944882
          }
        ],
        "93": [
          {
            "number": 93,
            "ticks": 0,
            "time": 0,
            "value": 0.14173228346456693
          },
          {
            "number": 93,
            "ticks": 0,
            "time": 0,
            "value": 0.14173228346456693
          },
          {
            "number": 93,
            "ticks": 0,
            "time": 0,
            "value": 0.14173228346456693
          },
          {
            "number": 93,
            "ticks": 25714,
            "time": 107.14166666666668,
            "value": 0.14173228346456693
          },
          {
            "number": 93,
            "ticks": 25715,
            "time": 107.14583333333333,
            "value": 0.14173228346456693
          }
        ],
        "100": [
          {
            "number": 100,
            "ticks": 0,
            "time": 0,
            "value": 0
          },
          {
            "number": 100,
            "ticks": 0,
            "time": 0,
            "value": 0
          },
          {
            "number": 100,
            "ticks": 25714,
            "time": 107.14166666666668,
            "value": 0
          },
          {
            "number": 100,
            "ticks": 25715,
            "time": 107.14583333333333,
            "value": 0
          }
        ],
        "101": [
          {
            "number": 101,
            "ticks": 0,
            "time": 0,
            "value": 0
          },
          {
            "number": 101,
            "ticks": 0,
            "time": 0,
            "value": 0
          },
          {
            "number": 101,
            "ticks": 25714,
            "time": 107.14166666666668,
            "value": 0
          },
          {
            "number": 101,
            "ticks": 25715,
            "time": 107.14583333333333,
            "value": 0
          }
        ]
      },
      "pitchBends": [
        {
          "ticks": 0,
          "time": 0,
          "value": 0
        },
        {
          "ticks": 0,
          "time": 0,
          "value": 0
        },
        {
          "ticks": 25714,
          "time": 107.14166666666668,
          "value": 0
        },
        {
          "ticks": 25715,
          "time": 107.14583333333333,
          "value": 0
        }
      ],
      "instrument": {
        "family": "chromatic percussion",
        "number": 10,
        "name": "music box"
      },
      "name": "",
      "notes": [
        {
          "duration": 0.40000000000000036,
          "durationTicks": 96,
          "midi": 69,
          "name": "A4",
          "ticks": 1296,
          "time": 5.4,
          "velocity": 0.8976377952755905
        },
        {
          "duration": 0.40000000000000036,
          "durationTicks": 96,
          "midi": 81,
          "name": "A5",
          "ticks": 1296,
          "time": 5.4,
          "velocity": 0.8976377952755905
        },
        {
          "duration": 0.1999999999999993,
          "durationTicks": 48,
          "midi": 83,
          "name": "B5",
          "ticks": 1392,
          "time": 5.800000000000001,
          "velocity": 0.8976377952755905
        },
        {
          "duration": 0.1999999999999993,
          "durationTicks": 48,
          "midi": 71,
          "name": "B4",
          "ticks": 1392,
          "time": 5.800000000000001,
          "velocity": 0.8976377952755905
        },
        {
          "duration": 0.20000000000000018,
          "durationTicks": 48,
          "midi": 73,
          "name": "C#5",
          "ticks": 1440,
          "time": 6,
          "velocity": 0.8976377952755905
        },
        {
          "duration": 0.20000000000000018,
          "durationTicks": 48,
          "midi": 85,
          "name": "C#6",
          "ticks": 1440,
          "time": 6,
          "velocity": 0.8976377952755905
        },
        {
          "duration": 0.20000000000000018,
          "durationTicks": 48,
          "midi": 74,
          "name": "D5",
          "ticks": 1488,
          "time": 6.2,
          "velocity": 0.8976377952755905
        },
        {
          "duration": 0.20000000000000018,
          "durationTicks": 48,
          "midi": 86,
          "name": "D6",
          "ticks": 1488,
          "time": 6.2,
          "velocity": 0.8976377952755905
        },
        {
          "duration": 1.5999999999999996,
          "durationTicks": 384,
          "midi": 76,
          "name": "E5",
          "ticks": 1536,
          "time": 6.4,
          "velocity": 0.8976377952755905
        },
        {
          "duration": 1.5999999999999996,
          "durationTicks": 384,
          "midi": 88,
          "name": "E6",
          "ticks": 1536,
          "time": 6.4,
          "velocity": 0.8976377952755905
        },
        {
          "duration": 0.20000000000000107,
          "durationTicks": 48,
          "midi": 68,
          "name": "G#4",
          "ticks": 2160,
          "time": 9,
          "velocity": 0.9291338582677166
        },
        {
          "duration": 0.20000000000000107,
          "durationTicks": 48,
          "midi": 80,
          "name": "G#5",
          "ticks": 2160,
          "time": 9,
          "velocity": 0.9291338582677166
        },
        {
          "duration": 0.1999999999999993,
          "durationTicks": 48,
          "midi": 81,
          "name": "A5",
          "ticks": 2208,
          "time": 9.200000000000001,
          "velocity": 0.9291338582677166
        },
        {
          "duration": 0.1999999999999993,
          "durationTicks": 48,
          "midi": 69,
          "name": "A4",
          "ticks": 2208,
          "time": 9.200000000000001,
          "velocity": 0.9291338582677166
        },
        {
          "duration": 0.20000000000000107,
          "durationTicks": 48,
          "midi": 83,
          "name": "B5",
          "ticks": 2256,
          "time": 9.4,
          "velocity": 0.9291338582677166
        },
        {
          "duration": 0.20000000000000107,
          "durationTicks": 48,
          "midi": 71,
          "name": "B4",
          "ticks": 2256,
          "time": 9.4,
          "velocity": 0.9291338582677166
        },
        {
          "duration": 1.5999999999999996,
          "durationTicks": 384,
          "midi": 73,
          "name": "C#5",
          "ticks": 2304,
          "time": 9.600000000000001,
          "velocity": 0.9291338582677166
        },
        {
          "duration": 1.5999999999999996,
          "durationTicks": 384,
          "midi": 85,
          "name": "C#6",
          "ticks": 2304,
          "time": 9.600000000000001,
          "velocity": 0.9291338582677166
        },
        {
          "duration": 0.40000000000000213,
          "durationTicks": 96,
          "midi": 69,
          "name": "A4",
          "ticks": 4368,
          "time": 18.2,
          "velocity": 0.8976377952755905
        },
        {
          "duration": 0.40000000000000213,
          "durationTicks": 96,
          "midi": 81,
          "name": "A5",
          "ticks": 4368,
          "time": 18.2,
          "velocity": 0.8976377952755905
        },
        {
          "duration": 0.1999999999999993,
          "durationTicks": 48,
          "midi": 71,
          "name": "B4",
          "ticks": 4464,
          "time": 18.6,
          "velocity": 0.8976377952755905
        },
        {
          "duration": 0.1999999999999993,
          "durationTicks": 48,
          "midi": 83,
          "name": "B5",
          "ticks": 4464,
          "time": 18.6,
          "velocity": 0.8976377952755905
        },
        {
          "duration": 0.1999999999999993,
          "durationTicks": 48,
          "midi": 73,
          "name": "C#5",
          "ticks": 4512,
          "time": 18.8,
          "velocity": 0.8976377952755905
        },
        {
          "duration": 0.1999999999999993,
          "durationTicks": 48,
          "midi": 85,
          "name": "C#6",
          "ticks": 4512,
          "time": 18.8,
          "velocity": 0.8976377952755905
        },
        {
          "duration": 0.20000000000000284,
          "durationTicks": 48,
          "midi": 74,
          "name": "D5",
          "ticks": 4560,
          "time": 19,
          "velocity": 0.8976377952755905
        },
        {
          "duration": 0.20000000000000284,
          "durationTicks": 48,
          "midi": 86,
          "name": "D6",
          "ticks": 4560,
          "time": 19,
          "velocity": 0.8976377952755905
        },
        {
          "duration": 1.5999999999999979,
          "durationTicks": 384,
          "midi": 88,
          "name": "E6",
          "ticks": 4608,
          "time": 19.200000000000003,
          "velocity": 0.8976377952755905
        },
        {
          "duration": 1.5999999999999979,
          "durationTicks": 384,
          "midi": 76,
          "name": "E5",
          "ticks": 4608,
          "time": 19.200000000000003,
          "velocity": 0.8976377952755905
        },
        {
          "duration": 0.1999999999999993,
          "durationTicks": 48,
          "midi": 80,
          "name": "G#5",
          "ticks": 5232,
          "time": 21.8,
          "velocity": 0.9291338582677166
        },
        {
          "duration": 0.1999999999999993,
          "durationTicks": 48,
          "midi": 68,
          "name": "G#4",
          "ticks": 5232,
          "time": 21.8,
          "velocity": 0.9291338582677166
        },
        {
          "duration": 0.20000000000000284,
          "durationTicks": 48,
          "midi": 69,
          "name": "A4",
          "ticks": 5280,
          "time": 22,
          "velocity": 0.9291338582677166
        },
        {
          "duration": 0.20000000000000284,
          "durationTicks": 48,
          "midi": 81,
          "name": "A5",
          "ticks": 5280,
          "time": 22,
          "velocity": 0.9291338582677166
        },
        {
          "duration": 0.1999999999999993,
          "durationTicks": 48,
          "midi": 71,
          "name": "B4",
          "ticks": 5328,
          "time": 22.200000000000003,
          "velocity": 0.9291338582677166
        },
        {
          "duration": 0.1999999999999993,
          "durationTicks": 48,
          "midi": 83,
          "name": "B5",
          "ticks": 5328,
          "time": 22.200000000000003,
          "velocity": 0.9291338582677166
        },
        {
          "duration": 1.5999999999999979,
          "durationTicks": 384,
          "midi": 85,
          "name": "C#6",
          "ticks": 5376,
          "time": 22.400000000000002,
          "velocity": 0.9291338582677166
        },
        {
          "duration": 1.5999999999999979,
          "durationTicks": 384,
          "midi": 73,
          "name": "C#5",
          "ticks": 5376,
          "time": 22.400000000000002,
          "velocity": 0.9291338582677166
        },
        {
          "duration": 0.1999999999999993,
          "durationTicks": 48,
          "midi": 69,
          "name": "A4",
          "ticks": 6864,
          "time": 28.6,
          "velocity": 0.9133858267716536
        },
        {
          "duration": 0.1999999999999993,
          "durationTicks": 48,
          "midi": 81,
          "name": "A5",
          "ticks": 6864,
          "time": 28.6,
          "velocity": 0.9133858267716536
        },
        {
          "duration": 0.40000000000000213,
          "durationTicks": 96,
          "midi": 74,
          "name": "D5",
          "ticks": 6912,
          "time": 28.8,
          "velocity": 0.937007874015748
        },
        {
          "duration": 0.40000000000000213,
          "durationTicks": 96,
          "midi": 86,
          "name": "D6",
          "ticks": 6912,
          "time": 28.8,
          "velocity": 0.937007874015748
        },
        {
          "duration": 0.3999999999999986,
          "durationTicks": 96,
          "midi": 85,
          "name": "C#6",
          "ticks": 7008,
          "time": 29.200000000000003,
          "velocity": 0.937007874015748
        },
        {
          "duration": 0.3999999999999986,
          "durationTicks": 96,
          "midi": 73,
          "name": "C#5",
          "ticks": 7008,
          "time": 29.200000000000003,
          "velocity": 0.937007874015748
        },
        {
          "duration": 0.3999999999999986,
          "durationTicks": 96,
          "midi": 71,
          "name": "B4",
          "ticks": 7104,
          "time": 29.6,
          "velocity": 0.937007874015748
        },
        {
          "duration": 0.3999999999999986,
          "durationTicks": 96,
          "midi": 83,
          "name": "B5",
          "ticks": 7104,
          "time": 29.6,
          "velocity": 0.937007874015748
        },
        {
          "duration": 0.20000000000000284,
          "durationTicks": 48,
          "midi": 81,
          "name": "A5",
          "ticks": 7200,
          "time": 30,
          "velocity": 0.937007874015748
        },
        {
          "duration": 0.20000000000000284,
          "durationTicks": 48,
          "midi": 69,
          "name": "A4",
          "ticks": 7200,
          "time": 30,
          "velocity": 0.937007874015748
        },
        {
          "duration": 1.3999999999999986,
          "durationTicks": 336,
          "midi": 69,
          "name": "A4",
          "ticks": 7248,
          "time": 30.200000000000003,
          "velocity": 0.889763779527559
        },
        {
          "duration": 1.3999999999999986,
          "durationTicks": 336,
          "midi": 81,
          "name": "A5",
          "ticks": 7248,
          "time": 30.200000000000003,
          "velocity": 0.889763779527559
        },
        {
          "duration": 0.3999999999999986,
          "durationTicks": 96,
          "midi": 61,
          "name": "C#4",
          "ticks": 8832,
          "time": 36.800000000000004,
          "velocity": 0.9133858267716536
        },
        {
          "duration": 0.3999999999999986,
          "durationTicks": 96,
          "midi": 73,
          "name": "C#5",
          "ticks": 8832,
          "time": 36.800000000000004,
          "velocity": 0.9133858267716536
        },
        {
          "duration": 0.19999999999999574,
          "durationTicks": 48,
          "midi": 75,
          "name": "D#5",
          "ticks": 8928,
          "time": 37.2,
          "velocity": 0.9133858267716536
        },
        {
          "duration": 0.19999999999999574,
          "durationTicks": 48,
          "midi": 63,
          "name": "D#4",
          "ticks": 8928,
          "time": 37.2,
          "velocity": 0.9133858267716536
        },
        {
          "duration": 0.4000000000000057,
          "durationTicks": 96,
          "midi": 77,
          "name": "F5",
          "ticks": 8976,
          "time": 37.4,
          "velocity": 0.9133858267716536
        },
        {
          "duration": 0.4000000000000057,
          "durationTicks": 96,
          "midi": 65,
          "name": "F4",
          "ticks": 8976,
          "time": 37.4,
          "velocity": 0.9133858267716536
        },
        {
          "duration": 0.3999999999999986,
          "durationTicks": 96,
          "midi": 75,
          "name": "D#5",
          "ticks": 9072,
          "time": 37.800000000000004,
          "velocity": 0.9133858267716536
        },
        {
          "duration": 0.3999999999999986,
          "durationTicks": 96,
          "midi": 87,
          "name": "D#6",
          "ticks": 9072,
          "time": 37.800000000000004,
          "velocity": 0.9133858267716536
        },
        {
          "duration": 1.7999999999999972,
          "durationTicks": 432,
          "midi": 73,
          "name": "C#5",
          "ticks": 9168,
          "time": 38.2,
          "velocity": 0.9133858267716536
        },
        {
          "duration": 1.7999999999999972,
          "durationTicks": 432,
          "midi": 85,
          "name": "C#6",
          "ticks": 9168,
          "time": 38.2,
          "velocity": 0.9133858267716536
        },
        {
          "duration": 0.3999999999999986,
          "durationTicks": 96,
          "midi": 83,
          "name": "B5",
          "ticks": 10368,
          "time": 43.2,
          "velocity": 0.9133858267716536
        },
        {
          "duration": 0.3999999999999986,
          "durationTicks": 96,
          "midi": 71,
          "name": "B4",
          "ticks": 10368,
          "time": 43.2,
          "velocity": 0.9133858267716536
        },
        {
          "duration": 0.20000000000000284,
          "durationTicks": 48,
          "midi": 82,
          "name": "A#5",
          "ticks": 10464,
          "time": 43.6,
          "velocity": 0.9133858267716536
        },
        {
          "duration": 0.20000000000000284,
          "durationTicks": 48,
          "midi": 70,
          "name": "A#4",
          "ticks": 10464,
          "time": 43.6,
          "velocity": 0.9133858267716536
        },
        {
          "duration": 0.3999999999999986,
          "durationTicks": 96,
          "midi": 66,
          "name": "F#4",
          "ticks": 10512,
          "time": 43.800000000000004,
          "velocity": 0.9133858267716536
        },
        {
          "duration": 0.3999999999999986,
          "durationTicks": 96,
          "midi": 78,
          "name": "F#5",
          "ticks": 10512,
          "time": 43.800000000000004,
          "velocity": 0.9133858267716536
        },
        {
          "duration": 0.6000000000000014,
          "durationTicks": 144,
          "midi": 75,
          "name": "D#5",
          "ticks": 10608,
          "time": 44.2,
          "velocity": 0.9133858267716536
        },
        {
          "duration": 0.6000000000000014,
          "durationTicks": 144,
          "midi": 63,
          "name": "D#4",
          "ticks": 10608,
          "time": 44.2,
          "velocity": 0.9133858267716536
        },
        {
          "duration": 0.3999999999999986,
          "durationTicks": 96,
          "midi": 73,
          "name": "C#5",
          "ticks": 10752,
          "time": 44.800000000000004,
          "velocity": 0.9133858267716536
        },
        {
          "duration": 0.3999999999999986,
          "durationTicks": 96,
          "midi": 61,
          "name": "C#4",
          "ticks": 10752,
          "time": 44.800000000000004,
          "velocity": 0.9133858267716536
        },
        {
          "duration": 1.5999999999999943,
          "durationTicks": 384,
          "midi": 77,
          "name": "F5",
          "ticks": 11136,
          "time": 46.400000000000006,
          "velocity": 0.9133858267716536
        },
        {
          "duration": 1.5999999999999943,
          "durationTicks": 384,
          "midi": 65,
          "name": "F4",
          "ticks": 11136,
          "time": 46.400000000000006,
          "velocity": 0.9133858267716536
        },
        {
          "duration": 1.6000000000000014,
          "durationTicks": 384,
          "midi": 78,
          "name": "F#5",
          "ticks": 11520,
          "time": 48,
          "velocity": 0.9133858267716536
        },
        {
          "duration": 1.6000000000000014,
          "durationTicks": 384,
          "midi": 66,
          "name": "F#4",
          "ticks": 11520,
          "time": 48,
          "velocity": 0.9133858267716536
        },
        {
          "duration": 1.6000000000000014,
          "durationTicks": 384,
          "midi": 68,
          "name": "G#4",
          "ticks": 11904,
          "time": 49.6,
          "velocity": 0.9133858267716536
        },
        {
          "duration": 1.6000000000000014,
          "durationTicks": 384,
          "midi": 80,
          "name": "G#5",
          "ticks": 11904,
          "time": 49.6,
          "velocity": 0.9133858267716536
        },
        {
          "duration": 1.6000000000000014,
          "durationTicks": 384,
          "midi": 82,
          "name": "A#5",
          "ticks": 12288,
          "time": 51.2,
          "velocity": 0.9133858267716536
        },
        {
          "duration": 1.6000000000000014,
          "durationTicks": 384,
          "midi": 70,
          "name": "A#4",
          "ticks": 12288,
          "time": 51.2,
          "velocity": 0.9133858267716536
        },
        {
          "duration": 0.3999999999999986,
          "durationTicks": 96,
          "midi": 70,
          "name": "A#4",
          "ticks": 13152,
          "time": 54.800000000000004,
          "velocity": 0.9133858267716536
        },
        {
          "duration": 0.3999999999999986,
          "durationTicks": 96,
          "midi": 82,
          "name": "A#5",
          "ticks": 13152,
          "time": 54.800000000000004,
          "velocity": 0.9133858267716536
        },
        {
          "duration": 0.3999999999999986,
          "durationTicks": 96,
          "midi": 68,
          "name": "G#4",
          "ticks": 13248,
          "time": 55.2,
          "velocity": 0.9133858267716536
        },
        {
          "duration": 0.3999999999999986,
          "durationTicks": 96,
          "midi": 80,
          "name": "G#5",
          "ticks": 13248,
          "time": 55.2,
          "velocity": 0.9133858267716536
        },
        {
          "duration": 0.3999999999999986,
          "durationTicks": 96,
          "midi": 78,
          "name": "F#5",
          "ticks": 13344,
          "time": 55.6,
          "velocity": 0.9133858267716536
        },
        {
          "duration": 0.3999999999999986,
          "durationTicks": 96,
          "midi": 66,
          "name": "F#4",
          "ticks": 13344,
          "time": 55.6,
          "velocity": 0.9133858267716536
        },
        {
          "duration": 2,
          "durationTicks": 480,
          "midi": 73,
          "name": "C#5",
          "ticks": 13440,
          "time": 56,
          "velocity": 0.9133858267716536
        },
        {
          "duration": 2,
          "durationTicks": 480,
          "midi": 85,
          "name": "C#6",
          "ticks": 13440,
          "time": 56,
          "velocity": 0.9133858267716536
        },
        {
          "duration": 0.4000000000000057,
          "durationTicks": 96,
          "midi": 82,
          "name": "A#5",
          "ticks": 13920,
          "time": 58,
          "velocity": 0.9133858267716536
        },
        {
          "duration": 0.4000000000000057,
          "durationTicks": 96,
          "midi": 70,
          "name": "A#4",
          "ticks": 13920,
          "time": 58,
          "velocity": 0.9133858267716536
        },
        {
          "duration": 0.3999999999999986,
          "durationTicks": 96,
          "midi": 80,
          "name": "G#5",
          "ticks": 14016,
          "time": 58.400000000000006,
          "velocity": 0.9133858267716536
        },
        {
          "duration": 0.3999999999999986,
          "durationTicks": 96,
          "midi": 68,
          "name": "G#4",
          "ticks": 14016,
          "time": 58.400000000000006,
          "velocity": 0.9133858267716536
        },
        {
          "duration": 0.3999999999999986,
          "durationTicks": 96,
          "midi": 78,
          "name": "F#5",
          "ticks": 14112,
          "time": 58.800000000000004,
          "velocity": 0.9133858267716536
        },
        {
          "duration": 0.3999999999999986,
          "durationTicks": 96,
          "midi": 66,
          "name": "F#4",
          "ticks": 14112,
          "time": 58.800000000000004,
          "velocity": 0.9133858267716536
        },
        {
          "duration": 0.3999999999999986,
          "durationTicks": 96,
          "midi": 73,
          "name": "C#5",
          "ticks": 14208,
          "time": 59.2,
          "velocity": 0.9133858267716536
        },
        {
          "duration": 0.3999999999999986,
          "durationTicks": 96,
          "midi": 85,
          "name": "C#6",
          "ticks": 14208,
          "time": 59.2,
          "velocity": 0.9133858267716536
        },
        {
          "duration": 0.3999999999999986,
          "durationTicks": 96,
          "midi": 70,
          "name": "A#4",
          "ticks": 14304,
          "time": 59.6,
          "velocity": 0.9133858267716536
        },
        {
          "duration": 0.3999999999999986,
          "durationTicks": 96,
          "midi": 82,
          "name": "A#5",
          "ticks": 14304,
          "time": 59.6,
          "velocity": 0.9133858267716536
        },
        {
          "duration": 0.4000000000000057,
          "durationTicks": 96,
          "midi": 80,
          "name": "G#5",
          "ticks": 14400,
          "time": 60,
          "velocity": 0.9133858267716536
        },
        {
          "duration": 0.4000000000000057,
          "durationTicks": 96,
          "midi": 68,
          "name": "G#4",
          "ticks": 14400,
          "time": 60,
          "velocity": 0.9133858267716536
        },
        {
          "duration": 0.7999999999999972,
          "durationTicks": 192,
          "midi": 66,
          "name": "F#4",
          "ticks": 14496,
          "time": 60.400000000000006,
          "velocity": 0.9133858267716536
        },
        {
          "duration": 0.7999999999999972,
          "durationTicks": 192,
          "midi": 78,
          "name": "F#5",
          "ticks": 14496,
          "time": 60.400000000000006,
          "velocity": 0.9133858267716536
        },
        {
          "duration": 0.3999999999999986,
          "durationTicks": 96,
          "midi": 70,
          "name": "A#4",
          "ticks": 14688,
          "time": 61.2,
          "velocity": 0.9133858267716536
        },
        {
          "duration": 0.3999999999999986,
          "durationTicks": 96,
          "midi": 82,
          "name": "A#5",
          "ticks": 14688,
          "time": 61.2,
          "velocity": 0.9133858267716536
        },
        {
          "duration": 0.3999999999999986,
          "durationTicks": 96,
          "midi": 68,
          "name": "G#4",
          "ticks": 14784,
          "time": 61.6,
          "velocity": 0.9133858267716536
        },
        {
          "duration": 0.3999999999999986,
          "durationTicks": 96,
          "midi": 80,
          "name": "G#5",
          "ticks": 14784,
          "time": 61.6,
          "velocity": 0.9133858267716536
        },
        {
          "duration": 0.4000000000000057,
          "durationTicks": 96,
          "midi": 66,
          "name": "F#4",
          "ticks": 14880,
          "time": 62,
          "velocity": 0.9133858267716536
        },
        {
          "duration": 0.4000000000000057,
          "durationTicks": 96,
          "midi": 78,
          "name": "F#5",
          "ticks": 14880,
          "time": 62,
          "velocity": 0.9133858267716536
        },
        {
          "duration": 0.7999999999999972,
          "durationTicks": 192,
          "midi": 85,
          "name": "C#6",
          "ticks": 14976,
          "time": 62.400000000000006,
          "velocity": 0.9133858267716536
        },
        {
          "duration": 0.7999999999999972,
          "durationTicks": 192,
          "midi": 73,
          "name": "C#5",
          "ticks": 14976,
          "time": 62.400000000000006,
          "velocity": 0.9133858267716536
        },
        {
          "duration": 0.7999999999999972,
          "durationTicks": 192,
          "midi": 68,
          "name": "G#4",
          "ticks": 15168,
          "time": 63.2,
          "velocity": 0.9133858267716536
        },
        {
          "duration": 0.7999999999999972,
          "durationTicks": 192,
          "midi": 80,
          "name": "G#5",
          "ticks": 15168,
          "time": 63.2,
          "velocity": 0.9133858267716536
        },
        {
          "duration": 1.6000000000000085,
          "durationTicks": 384,
          "midi": 82,
          "name": "A#5",
          "ticks": 15360,
          "time": 64,
          "velocity": 0.9133858267716536
        },
        {
          "duration": 1.6000000000000085,
          "durationTicks": 384,
          "midi": 70,
          "name": "A#4",
          "ticks": 15360,
          "time": 64,
          "velocity": 0.9133858267716536
        },
        {
          "duration": 1.3999999999999915,
          "durationTicks": 336,
          "midi": 72,
          "name": "C5",
          "ticks": 15744,
          "time": 65.60000000000001,
          "velocity": 0.9133858267716536
        },
        {
          "duration": 1.3999999999999915,
          "durationTicks": 336,
          "midi": 84,
          "name": "C6",
          "ticks": 15744,
          "time": 65.60000000000001,
          "velocity": 0.9133858267716536
        },
        {
          "duration": 1.4000000000000057,
          "durationTicks": 336,
          "midi": 85,
          "name": "C#6",
          "ticks": 16128,
          "time": 67.2,
          "velocity": 0.9133858267716536
        },
        {
          "duration": 1.4000000000000057,
          "durationTicks": 336,
          "midi": 73,
          "name": "C#5",
          "ticks": 16128,
          "time": 67.2,
          "velocity": 0.9133858267716536
        },
        {
          "duration": 0.09999999999999432,
          "durationTicks": 24,
          "midi": 85,
          "name": "C#6",
          "ticks": 16464,
          "time": 68.60000000000001,
          "velocity": 0.9133858267716536
        },
        {
          "duration": 0.09999999999999432,
          "durationTicks": 24,
          "midi": 73,
          "name": "C#5",
          "ticks": 16464,
          "time": 68.60000000000001,
          "velocity": 0.9133858267716536
        },
        {
          "duration": 0.09999999999999432,
          "durationTicks": 24,
          "midi": 87,
          "name": "D#6",
          "ticks": 16488,
          "time": 68.7,
          "velocity": 0.9133858267716536
        },
        {
          "duration": 0.09999999999999432,
          "durationTicks": 24,
          "midi": 75,
          "name": "D#5",
          "ticks": 16488,
          "time": 68.7,
          "velocity": 0.9133858267716536
        },
        {
          "duration": 1.4000000000000057,
          "durationTicks": 336,
          "midi": 77,
          "name": "F5",
          "ticks": 16512,
          "time": 68.8,
          "velocity": 0.9133858267716536
        },
        {
          "duration": 1.4000000000000057,
          "durationTicks": 336,
          "midi": 89,
          "name": "F6",
          "ticks": 16512,
          "time": 68.8,
          "velocity": 0.9133858267716536
        },
        {
          "duration": 0.09999999999999432,
          "durationTicks": 24,
          "midi": 77,
          "name": "F5",
          "ticks": 16848,
          "time": 70.2,
          "velocity": 0.9133858267716536
        },
        {
          "duration": 0.09999999999999432,
          "durationTicks": 24,
          "midi": 89,
          "name": "F6",
          "ticks": 16848,
          "time": 70.2,
          "velocity": 0.9133858267716536
        },
        {
          "duration": 0.10000000000000853,
          "durationTicks": 24,
          "midi": 78,
          "name": "F#5",
          "ticks": 16872,
          "time": 70.3,
          "velocity": 0.9133858267716536
        },
        {
          "duration": 0.10000000000000853,
          "durationTicks": 24,
          "midi": 90,
          "name": "F#6",
          "ticks": 16872,
          "time": 70.3,
          "velocity": 0.9133858267716536
        },
        {
          "duration": 1.7000000000000028,
          "durationTicks": 408,
          "midi": 80,
          "name": "G#5",
          "ticks": 16896,
          "time": 70.4,
          "velocity": 0.9133858267716536
        },
        {
          "duration": 1.7000000000000028,
          "durationTicks": 408,
          "midi": 92,
          "name": "G#6",
          "ticks": 16896,
          "time": 70.4,
          "velocity": 0.9133858267716536
        },
        {
          "duration": 0.3999999999999915,
          "durationTicks": 96,
          "midi": 81,
          "name": "A5",
          "ticks": 17424,
          "time": 72.60000000000001,
          "velocity": 0.8976377952755905
        },
        {
          "duration": 0.3999999999999915,
          "durationTicks": 96,
          "midi": 69,
          "name": "A4",
          "ticks": 17424,
          "time": 72.60000000000001,
          "velocity": 0.8976377952755905
        },
        {
          "duration": 0.20000000000000284,
          "durationTicks": 48,
          "midi": 71,
          "name": "B4",
          "ticks": 17520,
          "time": 73,
          "velocity": 0.8976377952755905
        },
        {
          "duration": 0.20000000000000284,
          "durationTicks": 48,
          "midi": 83,
          "name": "B5",
          "ticks": 17520,
          "time": 73,
          "velocity": 0.8976377952755905
        },
        {
          "duration": 0.20000000000000284,
          "durationTicks": 48,
          "midi": 85,
          "name": "C#6",
          "ticks": 17568,
          "time": 73.2,
          "velocity": 0.8976377952755905
        },
        {
          "duration": 0.20000000000000284,
          "durationTicks": 48,
          "midi": 73,
          "name": "C#5",
          "ticks": 17568,
          "time": 73.2,
          "velocity": 0.8976377952755905
        },
        {
          "duration": 0.20000000000000284,
          "durationTicks": 48,
          "midi": 86,
          "name": "D6",
          "ticks": 17616,
          "time": 73.4,
          "velocity": 0.8976377952755905
        },
        {
          "duration": 0.20000000000000284,
          "durationTicks": 48,
          "midi": 74,
          "name": "D5",
          "ticks": 17616,
          "time": 73.4,
          "velocity": 0.8976377952755905
        },
        {
          "duration": 1.5999999999999943,
          "durationTicks": 384,
          "midi": 76,
          "name": "E5",
          "ticks": 17664,
          "time": 73.60000000000001,
          "velocity": 0.8976377952755905
        },
        {
          "duration": 1.5999999999999943,
          "durationTicks": 384,
          "midi": 88,
          "name": "E6",
          "ticks": 17664,
          "time": 73.60000000000001,
          "velocity": 0.8976377952755905
        },
        {
          "duration": 0.20000000000000284,
          "durationTicks": 48,
          "midi": 80,
          "name": "G#5",
          "ticks": 18288,
          "time": 76.2,
          "velocity": 0.9291338582677166
        },
        {
          "duration": 0.20000000000000284,
          "durationTicks": 48,
          "midi": 68,
          "name": "G#4",
          "ticks": 18288,
          "time": 76.2,
          "velocity": 0.9291338582677166
        },
        {
          "duration": 0.20000000000000284,
          "durationTicks": 48,
          "midi": 69,
          "name": "A4",
          "ticks": 18336,
          "time": 76.4,
          "velocity": 0.9291338582677166
        },
        {
          "duration": 0.20000000000000284,
          "durationTicks": 48,
          "midi": 81,
          "name": "A5",
          "ticks": 18336,
          "time": 76.4,
          "velocity": 0.9291338582677166
        },
        {
          "duration": 0.20000000000000284,
          "durationTicks": 48,
          "midi": 83,
          "name": "B5",
          "ticks": 18384,
          "time": 76.60000000000001,
          "velocity": 0.9291338582677166
        },
        {
          "duration": 0.20000000000000284,
          "durationTicks": 48,
          "midi": 71,
          "name": "B4",
          "ticks": 18384,
          "time": 76.60000000000001,
          "velocity": 0.9291338582677166
        },
        {
          "duration": 1.5999999999999943,
          "durationTicks": 384,
          "midi": 85,
          "name": "C#6",
          "ticks": 18432,
          "time": 76.80000000000001,
          "velocity": 0.9291338582677166
        },
        {
          "duration": 1.5999999999999943,
          "durationTicks": 384,
          "midi": 73,
          "name": "C#5",
          "ticks": 18432,
          "time": 76.80000000000001,
          "velocity": 0.9291338582677166
        },
        {
          "duration": 0.4000000000000057,
          "durationTicks": 96,
          "midi": 69,
          "name": "A4",
          "ticks": 20496,
          "time": 85.4,
          "velocity": 0.8976377952755905
        },
        {
          "duration": 0.4000000000000057,
          "durationTicks": 96,
          "midi": 81,
          "name": "A5",
          "ticks": 20496,
          "time": 85.4,
          "velocity": 0.8976377952755905
        },
        {
          "duration": 0.19999999999998863,
          "durationTicks": 48,
          "midi": 83,
          "name": "B5",
          "ticks": 20592,
          "time": 85.80000000000001,
          "velocity": 0.8976377952755905
        },
        {
          "duration": 0.19999999999998863,
          "durationTicks": 48,
          "midi": 71,
          "name": "B4",
          "ticks": 20592,
          "time": 85.80000000000001,
          "velocity": 0.8976377952755905
        },
        {
          "duration": 0.20000000000000284,
          "durationTicks": 48,
          "midi": 73,
          "name": "C#5",
          "ticks": 20640,
          "time": 86,
          "velocity": 0.8976377952755905
        },
        {
          "duration": 0.20000000000000284,
          "durationTicks": 48,
          "midi": 85,
          "name": "C#6",
          "ticks": 20640,
          "time": 86,
          "velocity": 0.8976377952755905
        },
        {
          "duration": 0.20000000000000284,
          "durationTicks": 48,
          "midi": 86,
          "name": "D6",
          "ticks": 20688,
          "time": 86.2,
          "velocity": 0.8976377952755905
        },
        {
          "duration": 0.20000000000000284,
          "durationTicks": 48,
          "midi": 74,
          "name": "D5",
          "ticks": 20688,
          "time": 86.2,
          "velocity": 0.8976377952755905
        },
        {
          "duration": 1.5999999999999943,
          "durationTicks": 384,
          "midi": 88,
          "name": "E6",
          "ticks": 20736,
          "time": 86.4,
          "velocity": 0.8976377952755905
        },
        {
          "duration": 1.5999999999999943,
          "durationTicks": 384,
          "midi": 76,
          "name": "E5",
          "ticks": 20736,
          "time": 86.4,
          "velocity": 0.8976377952755905
        },
        {
          "duration": 0.20000000000000284,
          "durationTicks": 48,
          "midi": 80,
          "name": "G#5",
          "ticks": 21360,
          "time": 89,
          "velocity": 0.9291338582677166
        },
        {
          "duration": 0.20000000000000284,
          "durationTicks": 48,
          "midi": 68,
          "name": "G#4",
          "ticks": 21360,
          "time": 89,
          "velocity": 0.9291338582677166
        },
        {
          "duration": 0.20000000000000284,
          "durationTicks": 48,
          "midi": 69,
          "name": "A4",
          "ticks": 21408,
          "time": 89.2,
          "velocity": 0.9291338582677166
        },
        {
          "duration": 0.20000000000000284,
          "durationTicks": 48,
          "midi": 81,
          "name": "A5",
          "ticks": 21408,
          "time": 89.2,
          "velocity": 0.9291338582677166
        },
        {
          "duration": 0.20000000000000284,
          "durationTicks": 48,
          "midi": 83,
          "name": "B5",
          "ticks": 21456,
          "time": 89.4,
          "velocity": 0.9291338582677166
        },
        {
          "duration": 0.20000000000000284,
          "durationTicks": 48,
          "midi": 71,
          "name": "B4",
          "ticks": 21456,
          "time": 89.4,
          "velocity": 0.9291338582677166
        },
        {
          "duration": 1.5999999999999943,
          "durationTicks": 384,
          "midi": 85,
          "name": "C#6",
          "ticks": 21504,
          "time": 89.60000000000001,
          "velocity": 0.9291338582677166
        },
        {
          "duration": 1.5999999999999943,
          "durationTicks": 384,
          "midi": 73,
          "name": "C#5",
          "ticks": 21504,
          "time": 89.60000000000001,
          "velocity": 0.9291338582677166
        },
        {
          "duration": 0.19999999999998863,
          "durationTicks": 48,
          "midi": 81,
          "name": "A5",
          "ticks": 22992,
          "time": 95.80000000000001,
          "velocity": 0.9133858267716536
        },
        {
          "duration": 0.19999999999998863,
          "durationTicks": 48,
          "midi": 69,
          "name": "A4",
          "ticks": 22992,
          "time": 95.80000000000001,
          "velocity": 0.9133858267716536
        },
        {
          "duration": 0.4000000000000057,
          "durationTicks": 96,
          "midi": 74,
          "name": "D5",
          "ticks": 23040,
          "time": 96,
          "velocity": 0.937007874015748
        },
        {
          "duration": 0.4000000000000057,
          "durationTicks": 96,
          "midi": 86,
          "name": "D6",
          "ticks": 23040,
          "time": 96,
          "velocity": 0.937007874015748
        },
        {
          "duration": 0.4000000000000057,
          "durationTicks": 96,
          "midi": 73,
          "name": "C#5",
          "ticks": 23136,
          "time": 96.4,
          "velocity": 0.937007874015748
        },
        {
          "duration": 0.4000000000000057,
          "durationTicks": 96,
          "midi": 85,
          "name": "C#6",
          "ticks": 23136,
          "time": 96.4,
          "velocity": 0.937007874015748
        },
        {
          "duration": 0.3999999999999915,
          "durationTicks": 96,
          "midi": 83,
          "name": "B5",
          "ticks": 23232,
          "time": 96.80000000000001,
          "velocity": 0.937007874015748
        },
        {
          "duration": 0.3999999999999915,
          "durationTicks": 96,
          "midi": 71,
          "name": "B4",
          "ticks": 23232,
          "time": 96.80000000000001,
          "velocity": 0.937007874015748
        },
        {
          "duration": 0.20000000000000284,
          "durationTicks": 48,
          "midi": 81,
          "name": "A5",
          "ticks": 23328,
          "time": 97.2,
          "velocity": 0.937007874015748
        },
        {
          "duration": 0.20000000000000284,
          "durationTicks": 48,
          "midi": 69,
          "name": "A4",
          "ticks": 23328,
          "time": 97.2,
          "velocity": 0.937007874015748
        },
        {
          "duration": 1.4000000000000057,
          "durationTicks": 336,
          "midi": 81,
          "name": "A5",
          "ticks": 23376,
          "time": 97.4,
          "velocity": 0.889763779527559
        },
        {
          "duration": 1.4000000000000057,
          "durationTicks": 336,
          "midi": 69,
          "name": "A4",
          "ticks": 23376,
          "time": 97.4,
          "velocity": 0.889763779527559
        }
      ]
    },
    {
      "channel": 0,
      "controlChanges": {
        "6": [
          {
            "number": 6,
            "ticks": 0,
            "time": 0,
            "value": 0.09448818897637795
          }
        ],
        "7": [
          {
            "number": 7,
            "ticks": 0,
            "time": 0,
            "value": 0.8661417322834646
          },
          {
            "number": 7,
            "ticks": 0,
            "time": 0,
            "value": 0.8661417322834646
          }
        ],
        "10": [
          {
            "number": 10,
            "ticks": 0,
            "time": 0,
            "value": 0.5039370078740157
          },
          {
            "number": 10,
            "ticks": 0,
            "time": 0,
            "value": 0.5039370078740157
          }
        ],
        "100": [
          {
            "number": 100,
            "ticks": 0,
            "time": 0,
            "value": 0
          }
        ],
        "101": [
          {
            "number": 101,
            "ticks": 0,
            "time": 0,
            "value": 0
          }
        ]
      },
      "pitchBends": [
        {
          "ticks": 0,
          "time": 0,
          "value": 0
        },
        {
          "ticks": 0,
          "time": 0,
          "value": 0
        }
      ],
      "instrument": {
        "family": "piano",
        "number": 0,
        "name": "acoustic grand piano"
      },
      "name": "reverse cymbal",
      "notes": [],
      "endOfTrackTicks": 25715
    },
    {
      "channel": 15,
      "controlChanges": {
        "6": [
          {
            "number": 6,
            "ticks": 0,
            "time": 0,
            "value": 0.09448818897637795
          },
          {
            "number": 6,
            "ticks": 0,
            "time": 0,
            "value": 0.09448818897637795
          },
          {
            "number": 6,
            "ticks": 25714,
            "time": 107.14166666666668,
            "value": 0.09448818897637795
          },
          {
            "number": 6,
            "ticks": 25715,
            "time": 107.14583333333333,
            "value": 0.09448818897637795
          }
        ],
        "7": [
          {
            "number": 7,
            "ticks": 0,
            "time": 0,
            "value": 0.8661417322834646
          },
          {
            "number": 7,
            "ticks": 0,
            "time": 0,
            "value": 0.8661417322834646
          },
          {
            "number": 7,
            "ticks": 25714,
            "time": 107.14166666666668,
            "value": 0.8661417322834646
          },
          {
            "number": 7,
            "ticks": 25715,
            "time": 107.14583333333333,
            "value": 0.8661417322834646
          }
        ],
        "10": [
          {
            "number": 10,
            "ticks": 0,
            "time": 0,
            "value": 0.5039370078740157
          },
          {
            "number": 10,
            "ticks": 0,
            "time": 0,
            "value": 0.5039370078740157
          },
          {
            "number": 10,
            "ticks": 25714,
            "time": 107.14166666666668,
            "value": 0.5039370078740157
          },
          {
            "number": 10,
            "ticks": 25715,
            "time": 107.14583333333333,
            "value": 0.5039370078740157
          }
        ],
        "91": [
          {
            "number": 91,
            "ticks": 0,
            "time": 0,
            "value": 0.6692913385826772
          },
          {
            "number": 91,
            "ticks": 0,
            "time": 0,
            "value": 0.6692913385826772
          },
          {
            "number": 91,
            "ticks": 0,
            "time": 0,
            "value": 0.6692913385826772
          },
          {
            "number": 91,
            "ticks": 25714,
            "time": 107.14166666666668,
            "value": 0.6692913385826772
          },
          {
            "number": 91,
            "ticks": 25715,
            "time": 107.14583333333333,
            "value": 0.6692913385826772
          }
        ],
        "100": [
          {
            "number": 100,
            "ticks": 0,
            "time": 0,
            "value": 0
          },
          {
            "number": 100,
            "ticks": 0,
            "time": 0,
            "value": 0
          },
          {
            "number": 100,
            "ticks": 25714,
            "time": 107.14166666666668,
            "value": 0
          },
          {
            "number": 100,
            "ticks": 25715,
            "time": 107.14583333333333,
            "value": 0
          }
        ],
        "101": [
          {
            "number": 101,
            "ticks": 0,
            "time": 0,
            "value": 0
          },
          {
            "number": 101,
            "ticks": 0,
            "time": 0,
            "value": 0
          },
          {
            "number": 101,
            "ticks": 25714,
            "time": 107.14166666666668,
            "value": 0
          },
          {
            "number": 101,
            "ticks": 25715,
            "time": 107.14583333333333,
            "value": 0
          }
        ]
      },
      "pitchBends": [
        {
          "ticks": 0,
          "time": 0,
          "value": 0
        },
        {
          "ticks": 0,
          "time": 0,
          "value": 0
        },
        {
          "ticks": 25714,
          "time": 107.14166666666668,
          "value": 0
        },
        {
          "ticks": 25715,
          "time": 107.14583333333333,
          "value": 0
        }
      ],
      "instrument": {
        "family": "percussive",
        "number": 119,
        "name": "reverse cymbal"
      },
      "name": "",
      "notes": [
        {
          "duration": 1.2000000000000002,
          "durationTicks": 288,
          "midi": 62,
          "name": "D4",
          "ticks": 96,
          "time": 0.4,
          "velocity": 0.968503937007874
        },
        {
          "duration": 0.7999999999999998,
          "durationTicks": 192,
          "midi": 62,
          "name": "D4",
          "ticks": 1344,
          "time": 5.6000000000000005,
          "velocity": 1
        },
        {
          "duration": 0.8000000000000007,
          "durationTicks": 192,
          "midi": 62,
          "name": "D4",
          "ticks": 4416,
          "time": 18.400000000000002,
          "velocity": 1
        },
        {
          "duration": 0.7999999999999972,
          "durationTicks": 192,
          "midi": 62,
          "name": "D4",
          "ticks": 7488,
          "time": 31.200000000000003,
          "velocity": 1
        },
        {
          "duration": 0.8000000000000043,
          "durationTicks": 192,
          "midi": 62,
          "name": "D4",
          "ticks": 12864,
          "time": 53.6,
          "velocity": 1
        },
        {
          "duration": 0.8000000000000114,
          "durationTicks": 192,
          "midi": 62,
          "name": "D4",
          "ticks": 17472,
          "time": 72.8,
          "velocity": 1
        },
        {
          "duration": 0.7999999999999972,
          "durationTicks": 192,
          "midi": 62,
          "name": "D4",
          "ticks": 20544,
          "time": 85.60000000000001,
          "velocity": 1
        },
        {
          "duration": 0.7999999999999972,
          "durationTicks": 192,
          "midi": 62,
          "name": "D4",
          "ticks": 23616,
          "time": 98.4,
          "velocity": 1
        }
      ]
    },
    {
      "channel": 0,
      "controlChanges": {
        "6": [
          {
            "number": 6,
            "ticks": 0,
            "time": 0,
            "value": 0.09448818897637795
          }
        ],
        "7": [
          {
            "number": 7,
            "ticks": 0,
            "time": 0,
            "value": 0.6692913385826772
          },
          {
            "number": 7,
            "ticks": 0,
            "time": 0,
            "value": 0.6692913385826772
          }
        ],
        "10": [
          {
            "number": 10,
            "ticks": 0,
            "time": 0,
            "value": 0.3464566929133858
          },
          {
            "number": 10,
            "ticks": 0,
            "time": 0,
            "value": 0.3464566929133858
          }
        ],
        "100": [
          {
            "number": 100,
            "ticks": 0,
            "time": 0,
            "value": 0
          }
        ],
        "101": [
          {
            "number": 101,
            "ticks": 0,
            "time": 0,
            "value": 0
          }
        ]
      },
      "pitchBends": [
        {
          "ticks": 0,
          "time": 0,
          "value": 0
        },
        {
          "ticks": 0,
          "time": 0,
          "value": 0
        }
      ],
      "instrument": {
        "family": "piano",
        "number": 0,
        "name": "acoustic grand piano"
      },
      "name": "GUITAR 2",
      "notes": [],
      "endOfTrackTicks": 25715
    },
    {
      "channel": 5,
      "controlChanges": {
        "6": [
          {
            "number": 6,
            "ticks": 0,
            "time": 0,
            "value": 0.09448818897637795
          },
          {
            "number": 6,
            "ticks": 0,
            "time": 0,
            "value": 0.09448818897637795
          },
          {
            "number": 6,
            "ticks": 25714,
            "time": 107.14166666666668,
            "value": 0.09448818897637795
          },
          {
            "number": 6,
            "ticks": 25715,
            "time": 107.14583333333333,
            "value": 0.09448818897637795
          }
        ],
        "7": [
          {
            "number": 7,
            "ticks": 0,
            "time": 0,
            "value": 0.6692913385826772
          },
          {
            "number": 7,
            "ticks": 0,
            "time": 0,
            "value": 0.6692913385826772
          },
          {
            "number": 7,
            "ticks": 25714,
            "time": 107.14166666666668,
            "value": 0.6692913385826772
          },
          {
            "number": 7,
            "ticks": 25715,
            "time": 107.14583333333333,
            "value": 0.6692913385826772
          }
        ],
        "10": [
          {
            "number": 10,
            "ticks": 0,
            "time": 0,
            "value": 0.3464566929133858
          },
          {
            "number": 10,
            "ticks": 0,
            "time": 0,
            "value": 0.3464566929133858
          },
          {
            "number": 10,
            "ticks": 25714,
            "time": 107.14166666666668,
            "value": 0.3464566929133858
          },
          {
            "number": 10,
            "ticks": 25715,
            "time": 107.14583333333333,
            "value": 0.3464566929133858
          }
        ],
        "93": [
          {
            "number": 93,
            "ticks": 0,
            "time": 0,
            "value": 0.07874015748031496
          },
          {
            "number": 93,
            "ticks": 0,
            "time": 0,
            "value": 0.07874015748031496
          },
          {
            "number": 93,
            "ticks": 0,
            "time": 0,
            "value": 0.07874015748031496
          },
          {
            "number": 93,
            "ticks": 25714,
            "time": 107.14166666666668,
            "value": 0.07874015748031496
          },
          {
            "number": 93,
            "ticks": 25715,
            "time": 107.14583333333333,
            "value": 0.07874015748031496
          }
        ],
        "100": [
          {
            "number": 100,
            "ticks": 0,
            "time": 0,
            "value": 0
          },
          {
            "number": 100,
            "ticks": 0,
            "time": 0,
            "value": 0
          },
          {
            "number": 100,
            "ticks": 25714,
            "time": 107.14166666666668,
            "value": 0
          },
          {
            "number": 100,
            "ticks": 25715,
            "time": 107.14583333333333,
            "value": 0
          }
        ],
        "101": [
          {
            "number": 101,
            "ticks": 0,
            "time": 0,
            "value": 0
          },
          {
            "number": 101,
            "ticks": 0,
            "time": 0,
            "value": 0
          },
          {
            "number": 101,
            "ticks": 25714,
            "time": 107.14166666666668,
            "value": 0
          },
          {
            "number": 101,
            "ticks": 25715,
            "time": 107.14583333333333,
            "value": 0
          }
        ]
      },
      "pitchBends": [
        {
          "ticks": 0,
          "time": 0,
          "value": 0
        },
        {
          "ticks": 0,
          "time": 0,
          "value": 0
        },
        {
          "ticks": 25714,
          "time": 107.14166666666668,
          "value": 0
        },
        {
          "ticks": 25715,
          "time": 107.14583333333333,
          "value": 0
        }
      ],
      "instrument": {
        "family": "guitar",
        "number": 29,
        "name": "overdriven guitar"
      },
      "name": "",
      "notes": [
        {
          "duration": 0.2999999999999998,
          "durationTicks": 72,
          "midi": 61,
          "name": "C#4",
          "ticks": 1536,
          "time": 6.4,
          "velocity": 0.9291338582677166
        },
        {
          "duration": 0.2999999999999998,
          "durationTicks": 72,
          "midi": 64,
          "name": "E4",
          "ticks": 1536,
          "time": 6.4,
          "velocity": 0.9291338582677166
        },
        {
          "duration": 0.2999999999999998,
          "durationTicks": 72,
          "midi": 69,
          "name": "A4",
          "ticks": 1536,
          "time": 6.4,
          "velocity": 0.9291338582677166
        },
        {
          "duration": 0.10000000000000053,
          "durationTicks": 24,
          "midi": 61,
          "name": "C#4",
          "ticks": 1608,
          "time": 6.7,
          "velocity": 0.9291338582677166
        },
        {
          "duration": 0.10000000000000053,
          "durationTicks": 24,
          "midi": 64,
          "name": "E4",
          "ticks": 1608,
          "time": 6.7,
          "velocity": 0.9291338582677166
        },
        {
          "duration": 0.10000000000000053,
          "durationTicks": 24,
          "midi": 69,
          "name": "A4",
          "ticks": 1608,
          "time": 6.7,
          "velocity": 0.9291338582677166
        },
        {
          "duration": 0.025000000000000355,
          "durationTicks": 6,
          "midi": 69,
          "name": "A4",
          "ticks": 1716,
          "time": 7.15,
          "velocity": 0.9291338582677166
        },
        {
          "duration": 0.025000000000000355,
          "durationTicks": 6,
          "midi": 61,
          "name": "C#4",
          "ticks": 1716,
          "time": 7.15,
          "velocity": 0.9291338582677166
        },
        {
          "duration": 0.025000000000000355,
          "durationTicks": 6,
          "midi": 64,
          "name": "E4",
          "ticks": 1716,
          "time": 7.15,
          "velocity": 0.9291338582677166
        },
        {
          "duration": 0.025000000000000355,
          "durationTicks": 6,
          "midi": 69,
          "name": "A4",
          "ticks": 1740,
          "time": 7.25,
          "velocity": 0.9291338582677166
        },
        {
          "duration": 0.025000000000000355,
          "durationTicks": 6,
          "midi": 64,
          "name": "E4",
          "ticks": 1740,
          "time": 7.25,
          "velocity": 0.9291338582677166
        },
        {
          "duration": 0.025000000000000355,
          "durationTicks": 6,
          "midi": 61,
          "name": "C#4",
          "ticks": 1740,
          "time": 7.25,
          "velocity": 0.9291338582677166
        },
        {
          "duration": 0.25,
          "durationTicks": 60,
          "midi": 69,
          "name": "A4",
          "ticks": 1764,
          "time": 7.3500000000000005,
          "velocity": 0.9291338582677166
        },
        {
          "duration": 0.25,
          "durationTicks": 60,
          "midi": 64,
          "name": "E4",
          "ticks": 1764,
          "time": 7.3500000000000005,
          "velocity": 0.9291338582677166
        },
        {
          "duration": 0.25,
          "durationTicks": 60,
          "midi": 61,
          "name": "C#4",
          "ticks": 1764,
          "time": 7.3500000000000005,
          "velocity": 0.9291338582677166
        },
        {
          "duration": 0.024999999999999467,
          "durationTicks": 6,
          "midi": 61,
          "name": "C#4",
          "ticks": 1872,
          "time": 7.800000000000001,
          "velocity": 0.9291338582677166
        },
        {
          "duration": 0.024999999999999467,
          "durationTicks": 6,
          "midi": 64,
          "name": "E4",
          "ticks": 1872,
          "time": 7.800000000000001,
          "velocity": 0.9291338582677166
        },
        {
          "duration": 0.024999999999999467,
          "durationTicks": 6,
          "midi": 69,
          "name": "A4",
          "ticks": 1872,
          "time": 7.800000000000001,
          "velocity": 0.9291338582677166
        },
        {
          "duration": 0.025000000000000355,
          "durationTicks": 6,
          "midi": 69,
          "name": "A4",
          "ticks": 1896,
          "time": 7.9,
          "velocity": 0.9291338582677166
        },
        {
          "duration": 0.025000000000000355,
          "durationTicks": 6,
          "midi": 64,
          "name": "E4",
          "ticks": 1896,
          "time": 7.9,
          "velocity": 0.9291338582677166
        },
        {
          "duration": 0.025000000000000355,
          "durationTicks": 6,
          "midi": 61,
          "name": "C#4",
          "ticks": 1896,
          "time": 7.9,
          "velocity": 0.9291338582677166
        },
        {
          "duration": 0.34999999999999964,
          "durationTicks": 84,
          "midi": 68,
          "name": "G#4",
          "ticks": 1920,
          "time": 8,
          "velocity": 0.9291338582677166
        },
        {
          "duration": 0.375,
          "durationTicks": 90,
          "midi": 64,
          "name": "E4",
          "ticks": 1920,
          "time": 8,
          "velocity": 0.9291338582677166
        },
        {
          "duration": 0.375,
          "durationTicks": 90,
          "midi": 61,
          "name": "C#4",
          "ticks": 1920,
          "time": 8,
          "velocity": 0.9291338582677166
        },
        {
          "duration": 0.40000000000000036,
          "durationTicks": 96,
          "midi": 68,
          "name": "G#4",
          "ticks": 2064,
          "time": 8.6,
          "velocity": 0.9291338582677166
        },
        {
          "duration": 0.40000000000000036,
          "durationTicks": 96,
          "midi": 64,
          "name": "E4",
          "ticks": 2064,
          "time": 8.6,
          "velocity": 0.9291338582677166
        },
        {
          "duration": 0.40000000000000036,
          "durationTicks": 96,
          "midi": 61,
          "name": "C#4",
          "ticks": 2064,
          "time": 8.6,
          "velocity": 0.9291338582677166
        },
        {
          "duration": 0.20000000000000107,
          "durationTicks": 48,
          "midi": 68,
          "name": "G#4",
          "ticks": 2160,
          "time": 9,
          "velocity": 0.9291338582677166
        },
        {
          "duration": 0.20000000000000107,
          "durationTicks": 48,
          "midi": 64,
          "name": "E4",
          "ticks": 2160,
          "time": 9,
          "velocity": 0.9291338582677166
        },
        {
          "duration": 0.20000000000000107,
          "durationTicks": 48,
          "midi": 61,
          "name": "C#4",
          "ticks": 2160,
          "time": 9,
          "velocity": 0.9291338582677166
        },
        {
          "duration": 0.1999999999999993,
          "durationTicks": 48,
          "midi": 61,
          "name": "C#4",
          "ticks": 2208,
          "time": 9.200000000000001,
          "velocity": 0.9291338582677166
        },
        {
          "duration": 0.1999999999999993,
          "durationTicks": 48,
          "midi": 64,
          "name": "E4",
          "ticks": 2208,
          "time": 9.200000000000001,
          "velocity": 0.9291338582677166
        },
        {
          "duration": 0.1999999999999993,
          "durationTicks": 48,
          "midi": 68,
          "name": "G#4",
          "ticks": 2208,
          "time": 9.200000000000001,
          "velocity": 0.9291338582677166
        },
        {
          "duration": 0.29999999999999893,
          "durationTicks": 72,
          "midi": 69,
          "name": "A4",
          "ticks": 2304,
          "time": 9.600000000000001,
          "velocity": 0.9291338582677166
        },
        {
          "duration": 0.29999999999999893,
          "durationTicks": 72,
          "midi": 64,
          "name": "E4",
          "ticks": 2304,
          "time": 9.600000000000001,
          "velocity": 0.9291338582677166
        },
        {
          "duration": 0.29999999999999893,
          "durationTicks": 72,
          "midi": 61,
          "name": "C#4",
          "ticks": 2304,
          "time": 9.600000000000001,
          "velocity": 0.9291338582677166
        },
        {
          "duration": 0.09999999999999964,
          "durationTicks": 24,
          "midi": 61,
          "name": "C#4",
          "ticks": 2376,
          "time": 9.9,
          "velocity": 0.9291338582677166
        },
        {
          "duration": 0.09999999999999964,
          "durationTicks": 24,
          "midi": 64,
          "name": "E4",
          "ticks": 2376,
          "time": 9.9,
          "velocity": 0.9291338582677166
        },
        {
          "duration": 0.09999999999999964,
          "durationTicks": 24,
          "midi": 69,
          "name": "A4",
          "ticks": 2376,
          "time": 9.9,
          "velocity": 0.9291338582677166
        },
        {
          "duration": 0.02499999999999858,
          "durationTicks": 6,
          "midi": 64,
          "name": "E4",
          "ticks": 2484,
          "time": 10.350000000000001,
          "velocity": 0.9291338582677166
        },
        {
          "duration": 0.02499999999999858,
          "durationTicks": 6,
          "midi": 61,
          "name": "C#4",
          "ticks": 2484,
          "time": 10.350000000000001,
          "velocity": 0.9291338582677166
        },
        {
          "duration": 0.02499999999999858,
          "durationTicks": 6,
          "midi": 69,
          "name": "A4",
          "ticks": 2484,
          "time": 10.350000000000001,
          "velocity": 0.9291338582677166
        },
        {
          "duration": 0.025000000000000355,
          "durationTicks": 6,
          "midi": 61,
          "name": "C#4",
          "ticks": 2508,
          "time": 10.450000000000001,
          "velocity": 0.9291338582677166
        },
        {
          "duration": 0.025000000000000355,
          "durationTicks": 6,
          "midi": 64,
          "name": "E4",
          "ticks": 2508,
          "time": 10.450000000000001,
          "velocity": 0.9291338582677166
        },
        {
          "duration": 0.025000000000000355,
          "durationTicks": 6,
          "midi": 69,
          "name": "A4",
          "ticks": 2508,
          "time": 10.450000000000001,
          "velocity": 0.9291338582677166
        },
        {
          "duration": 0.25,
          "durationTicks": 60,
          "midi": 69,
          "name": "A4",
          "ticks": 2532,
          "time": 10.55,
          "velocity": 0.9291338582677166
        },
        {
          "duration": 0.25,
          "durationTicks": 60,
          "midi": 64,
          "name": "E4",
          "ticks": 2532,
          "time": 10.55,
          "velocity": 0.9291338582677166
        },
        {
          "duration": 0.25,
          "durationTicks": 60,
          "midi": 61,
          "name": "C#4",
          "ticks": 2532,
          "time": 10.55,
          "velocity": 0.9291338582677166
        },
        {
          "duration": 0.025000000000000355,
          "durationTicks": 6,
          "midi": 61,
          "name": "C#4",
          "ticks": 2640,
          "time": 11,
          "velocity": 0.9291338582677166
        },
        {
          "duration": 0.025000000000000355,
          "durationTicks": 6,
          "midi": 64,
          "name": "E4",
          "ticks": 2640,
          "time": 11,
          "velocity": 0.9291338582677166
        },
        {
          "duration": 0.025000000000000355,
          "durationTicks": 6,
          "midi": 69,
          "name": "A4",
          "ticks": 2640,
          "time": 11,
          "velocity": 0.9291338582677166
        },
        {
          "duration": 0.02499999999999858,
          "durationTicks": 6,
          "midi": 61,
          "name": "C#4",
          "ticks": 2664,
          "time": 11.100000000000001,
          "velocity": 0.9291338582677166
        },
        {
          "duration": 0.02499999999999858,
          "durationTicks": 6,
          "midi": 64,
          "name": "E4",
          "ticks": 2664,
          "time": 11.100000000000001,
          "velocity": 0.9291338582677166
        },
        {
          "duration": 0.02499999999999858,
          "durationTicks": 6,
          "midi": 69,
          "name": "A4",
          "ticks": 2664,
          "time": 11.100000000000001,
          "velocity": 0.9291338582677166
        },
        {
          "duration": 0.34999999999999964,
          "durationTicks": 84,
          "midi": 68,
          "name": "G#4",
          "ticks": 2688,
          "time": 11.200000000000001,
          "velocity": 0.9291338582677166
        },
        {
          "duration": 0.375,
          "durationTicks": 90,
          "midi": 64,
          "name": "E4",
          "ticks": 2688,
          "time": 11.200000000000001,
          "velocity": 0.9291338582677166
        },
        {
          "duration": 0.375,
          "durationTicks": 90,
          "midi": 61,
          "name": "C#4",
          "ticks": 2688,
          "time": 11.200000000000001,
          "velocity": 0.9291338582677166
        },
        {
          "duration": 0.40000000000000036,
          "durationTicks": 96,
          "midi": 61,
          "name": "C#4",
          "ticks": 2832,
          "time": 11.8,
          "velocity": 0.9291338582677166
        },
        {
          "duration": 0.40000000000000036,
          "durationTicks": 96,
          "midi": 64,
          "name": "E4",
          "ticks": 2832,
          "time": 11.8,
          "velocity": 0.9291338582677166
        },
        {
          "duration": 0.40000000000000036,
          "durationTicks": 96,
          "midi": 68,
          "name": "G#4",
          "ticks": 2832,
          "time": 11.8,
          "velocity": 0.9291338582677166
        },
        {
          "duration": 0.1999999999999993,
          "durationTicks": 48,
          "midi": 61,
          "name": "C#4",
          "ticks": 2928,
          "time": 12.200000000000001,
          "velocity": 0.9291338582677166
        },
        {
          "duration": 0.1999999999999993,
          "durationTicks": 48,
          "midi": 64,
          "name": "E4",
          "ticks": 2928,
          "time": 12.200000000000001,
          "velocity": 0.9291338582677166
        },
        {
          "duration": 0.1999999999999993,
          "durationTicks": 48,
          "midi": 68,
          "name": "G#4",
          "ticks": 2928,
          "time": 12.200000000000001,
          "velocity": 0.9291338582677166
        },
        {
          "duration": 0.20000000000000107,
          "durationTicks": 48,
          "midi": 68,
          "name": "G#4",
          "ticks": 2976,
          "time": 12.4,
          "velocity": 0.9291338582677166
        },
        {
          "duration": 0.20000000000000107,
          "durationTicks": 48,
          "midi": 64,
          "name": "E4",
          "ticks": 2976,
          "time": 12.4,
          "velocity": 0.9291338582677166
        },
        {
          "duration": 0.20000000000000107,
          "durationTicks": 48,
          "midi": 61,
          "name": "C#4",
          "ticks": 2976,
          "time": 12.4,
          "velocity": 0.9291338582677166
        },
        {
          "duration": 0.025000000000000355,
          "durationTicks": 6,
          "midi": 61,
          "name": "C#4",
          "ticks": 3048,
          "time": 12.700000000000001,
          "velocity": 0.889763779527559
        },
        {
          "duration": 0.025000000000000355,
          "durationTicks": 6,
          "midi": 64,
          "name": "E4",
          "ticks": 3048,
          "time": 12.700000000000001,
          "velocity": 0.889763779527559
        },
        {
          "duration": 0.025000000000000355,
          "durationTicks": 6,
          "midi": 68,
          "name": "G#4",
          "ticks": 3048,
          "time": 12.700000000000001,
          "velocity": 0.889763779527559
        },
        {
          "duration": 0.1999999999999993,
          "durationTicks": 48,
          "midi": 50,
          "name": "D3",
          "ticks": 3072,
          "time": 12.8,
          "velocity": 0.952755905511811
        },
        {
          "duration": 0.1999999999999993,
          "durationTicks": 48,
          "midi": 57,
          "name": "A3",
          "ticks": 3072,
          "time": 12.8,
          "velocity": 0.952755905511811
        },
        {
          "duration": 0.20000000000000107,
          "durationTicks": 48,
          "midi": 50,
          "name": "D3",
          "ticks": 3120,
          "time": 13,
          "velocity": 0.952755905511811
        },
        {
          "duration": 0.20000000000000107,
          "durationTicks": 48,
          "midi": 57,
          "name": "A3",
          "ticks": 3120,
          "time": 13,
          "velocity": 0.952755905511811
        },
        {
          "duration": 0.025000000000000355,
          "durationTicks": 6,
          "midi": 50,
          "name": "D3",
          "ticks": 3192,
          "time": 13.3,
          "velocity": 0.952755905511811
        },
        {
          "duration": 0.025000000000000355,
          "durationTicks": 6,
          "midi": 59,
          "name": "B3",
          "ticks": 3192,
          "time": 13.3,
          "velocity": 0.952755905511811
        },
        {
          "duration": 0.025000000000000355,
          "durationTicks": 6,
          "midi": 59,
          "name": "B3",
          "ticks": 3216,
          "time": 13.4,
          "velocity": 0.952755905511811
        },
        {
          "duration": 0.025000000000000355,
          "durationTicks": 6,
          "midi": 50,
          "name": "D3",
          "ticks": 3216,
          "time": 13.4,
          "velocity": 0.952755905511811
        },
        {
          "duration": 0.025000000000000355,
          "durationTicks": 6,
          "midi": 59,
          "name": "B3",
          "ticks": 3240,
          "time": 13.5,
          "velocity": 0.952755905511811
        },
        {
          "duration": 0.025000000000000355,
          "durationTicks": 6,
          "midi": 50,
          "name": "D3",
          "ticks": 3240,
          "time": 13.5,
          "velocity": 0.952755905511811
        },
        {
          "duration": 0.1999999999999993,
          "durationTicks": 48,
          "midi": 59,
          "name": "B3",
          "ticks": 3264,
          "time": 13.600000000000001,
          "velocity": 0.952755905511811
        },
        {
          "duration": 0.1999999999999993,
          "durationTicks": 48,
          "midi": 52,
          "name": "E3",
          "ticks": 3264,
          "time": 13.600000000000001,
          "velocity": 0.952755905511811
        },
        {
          "duration": 0.1999999999999993,
          "durationTicks": 48,
          "midi": 52,
          "name": "E3",
          "ticks": 3312,
          "time": 13.8,
          "velocity": 0.952755905511811
        },
        {
          "duration": 0.1999999999999993,
          "durationTicks": 48,
          "midi": 59,
          "name": "B3",
          "ticks": 3312,
          "time": 13.8,
          "velocity": 0.952755905511811
        },
        {
          "duration": 0.02499999999999858,
          "durationTicks": 6,
          "midi": 50,
          "name": "D3",
          "ticks": 3384,
          "time": 14.100000000000001,
          "velocity": 0.952755905511811
        },
        {
          "duration": 0.02499999999999858,
          "durationTicks": 6,
          "midi": 59,
          "name": "B3",
          "ticks": 3384,
          "time": 14.100000000000001,
          "velocity": 0.952755905511811
        },
        {
          "duration": 0.025000000000000355,
          "durationTicks": 6,
          "midi": 59,
          "name": "B3",
          "ticks": 3408,
          "time": 14.200000000000001,
          "velocity": 0.952755905511811
        },
        {
          "duration": 0.025000000000000355,
          "durationTicks": 6,
          "midi": 50,
          "name": "D3",
          "ticks": 3408,
          "time": 14.200000000000001,
          "velocity": 0.952755905511811
        },
        {
          "duration": 0.025000000000000355,
          "durationTicks": 6,
          "midi": 50,
          "name": "D3",
          "ticks": 3432,
          "time": 14.3,
          "velocity": 0.952755905511811
        },
        {
          "duration": 0.025000000000000355,
          "durationTicks": 6,
          "midi": 59,
          "name": "B3",
          "ticks": 3432,
          "time": 14.3,
          "velocity": 0.952755905511811
        },
        {
          "duration": 0.20000000000000107,
          "durationTicks": 48,
          "midi": 52,
          "name": "E3",
          "ticks": 3456,
          "time": 14.4,
          "velocity": 0.952755905511811
        },
        {
          "duration": 0.20000000000000107,
          "durationTicks": 48,
          "midi": 57,
          "name": "A3",
          "ticks": 3456,
          "time": 14.4,
          "velocity": 0.952755905511811
        },
        {
          "duration": 0.1999999999999993,
          "durationTicks": 48,
          "midi": 57,
          "name": "A3",
          "ticks": 3504,
          "time": 14.600000000000001,
          "velocity": 0.952755905511811
        },
        {
          "duration": 0.1999999999999993,
          "durationTicks": 48,
          "midi": 52,
          "name": "E3",
          "ticks": 3504,
          "time": 14.600000000000001,
          "velocity": 0.952755905511811
        },
        {
          "duration": 0.025000000000000355,
          "durationTicks": 6,
          "midi": 52,
          "name": "E3",
          "ticks": 3570,
          "time": 14.875,
          "velocity": 0.952755905511811
        },
        {
          "duration": 0.025000000000000355,
          "durationTicks": 6,
          "midi": 56,
          "name": "G#3",
          "ticks": 3576,
          "time": 14.9,
          "velocity": 0.952755905511811
        },
        {
          "duration": 0.40000000000000036,
          "durationTicks": 96,
          "midi": 54,
          "name": "F#3",
          "ticks": 3600,
          "time": 15,
          "velocity": 0.952755905511811
        },
        {
          "duration": 0.40000000000000036,
          "durationTicks": 96,
          "midi": 49,
          "name": "C#3",
          "ticks": 3600,
          "time": 15,
          "velocity": 0.952755905511811
        },
        {
          "duration": 0.20000000000000107,
          "durationTicks": 48,
          "midi": 54,
          "name": "F#3",
          "ticks": 3696,
          "time": 15.4,
          "velocity": 0.952755905511811
        },
        {
          "duration": 0.20000000000000107,
          "durationTicks": 48,
          "midi": 49,
          "name": "C#3",
          "ticks": 3696,
          "time": 15.4,
          "velocity": 0.952755905511811
        },
        {
          "duration": 0.1999999999999993,
          "durationTicks": 48,
          "midi": 54,
          "name": "F#3",
          "ticks": 3744,
          "time": 15.600000000000001,
          "velocity": 0.952755905511811
        },
        {
          "duration": 0.1999999999999993,
          "durationTicks": 48,
          "midi": 49,
          "name": "C#3",
          "ticks": 3744,
          "time": 15.600000000000001,
          "velocity": 0.952755905511811
        },
        {
          "duration": 0.1999999999999993,
          "durationTicks": 48,
          "midi": 57,
          "name": "A3",
          "ticks": 3840,
          "time": 16,
          "velocity": 0.952755905511811
        },
        {
          "duration": 0.1999999999999993,
          "durationTicks": 48,
          "midi": 54,
          "name": "F#3",
          "ticks": 3840,
          "time": 16,
          "velocity": 0.952755905511811
        },
        {
          "duration": 0.20000000000000284,
          "durationTicks": 48,
          "midi": 54,
          "name": "F#3",
          "ticks": 3888,
          "time": 16.2,
          "velocity": 0.952755905511811
        },
        {
          "duration": 0.20000000000000284,
          "durationTicks": 48,
          "midi": 57,
          "name": "A3",
          "ticks": 3888,
          "time": 16.2,
          "velocity": 0.952755905511811
        },
        {
          "duration": 0.09999999999999787,
          "durationTicks": 24,
          "midi": 57,
          "name": "A3",
          "ticks": 3936,
          "time": 16.400000000000002,
          "velocity": 0.952755905511811
        },
        {
          "duration": 0.09999999999999787,
          "durationTicks": 24,
          "midi": 50,
          "name": "D3",
          "ticks": 3936,
          "time": 16.400000000000002,
          "velocity": 0.952755905511811
        },
        {
          "duration": 0.09999999999999787,
          "durationTicks": 24,
          "midi": 57,
          "name": "A3",
          "ticks": 3984,
          "time": 16.6,
          "velocity": 0.952755905511811
        },
        {
          "duration": 0.09999999999999787,
          "durationTicks": 24,
          "midi": 50,
          "name": "D3",
          "ticks": 3984,
          "time": 16.6,
          "velocity": 0.952755905511811
        },
        {
          "duration": 0.10000000000000142,
          "durationTicks": 24,
          "midi": 50,
          "name": "D3",
          "ticks": 4032,
          "time": 16.8,
          "velocity": 0.952755905511811
        },
        {
          "duration": 0.10000000000000142,
          "durationTicks": 24,
          "midi": 57,
          "name": "A3",
          "ticks": 4032,
          "time": 16.8,
          "velocity": 0.952755905511811
        },
        {
          "duration": 0.10000000000000142,
          "durationTicks": 24,
          "midi": 50,
          "name": "D3",
          "ticks": 4080,
          "time": 17,
          "velocity": 0.952755905511811
        },
        {
          "duration": 0.10000000000000142,
          "durationTicks": 24,
          "midi": 57,
          "name": "A3",
          "ticks": 4080,
          "time": 17,
          "velocity": 0.952755905511811
        },
        {
          "duration": 0.27500000000000213,
          "durationTicks": 66,
          "midi": 57,
          "name": "A3",
          "ticks": 4128,
          "time": 17.2,
          "velocity": 0.952755905511811
        },
        {
          "duration": 0.27500000000000213,
          "durationTicks": 66,
          "midi": 50,
          "name": "D3",
          "ticks": 4128,
          "time": 17.2,
          "velocity": 0.952755905511811
        },
        {
          "duration": 0.1750000000000007,
          "durationTicks": 42,
          "midi": 52,
          "name": "E3",
          "ticks": 4224,
          "time": 17.6,
          "velocity": 0.952755905511811
        },
        {
          "duration": 0.1750000000000007,
          "durationTicks": 42,
          "midi": 59,
          "name": "B3",
          "ticks": 4224,
          "time": 17.6,
          "velocity": 0.952755905511811
        },
        {
          "duration": 0.1750000000000007,
          "durationTicks": 42,
          "midi": 59,
          "name": "B3",
          "ticks": 4272,
          "time": 17.8,
          "velocity": 0.952755905511811
        },
        {
          "duration": 0.1750000000000007,
          "durationTicks": 42,
          "midi": 52,
          "name": "E3",
          "ticks": 4272,
          "time": 17.8,
          "velocity": 0.952755905511811
        },
        {
          "duration": 0.5,
          "durationTicks": 120,
          "midi": 54,
          "name": "F#3",
          "ticks": 4368,
          "time": 18.2,
          "velocity": 0.952755905511811
        },
        {
          "duration": 0.5,
          "durationTicks": 120,
          "midi": 66,
          "name": "F#4",
          "ticks": 4368,
          "time": 18.2,
          "velocity": 0.952755905511811
        },
        {
          "duration": 0.1999999999999993,
          "durationTicks": 48,
          "midi": 68,
          "name": "G#4",
          "ticks": 4512,
          "time": 18.8,
          "velocity": 0.952755905511811
        },
        {
          "duration": 0.1999999999999993,
          "durationTicks": 48,
          "midi": 56,
          "name": "G#3",
          "ticks": 4512,
          "time": 18.8,
          "velocity": 0.952755905511811
        },
        {
          "duration": 0.29999999999999716,
          "durationTicks": 72,
          "midi": 69,
          "name": "A4",
          "ticks": 4608,
          "time": 19.200000000000003,
          "velocity": 0.9291338582677166
        },
        {
          "duration": 0.22499999999999787,
          "durationTicks": 54,
          "midi": 64,
          "name": "E4",
          "ticks": 4608,
          "time": 19.200000000000003,
          "velocity": 0.9291338582677166
        },
        {
          "duration": 0.29999999999999716,
          "durationTicks": 72,
          "midi": 61,
          "name": "C#4",
          "ticks": 4608,
          "time": 19.200000000000003,
          "velocity": 0.9291338582677166
        },
        {
          "duration": 0.29999999999999716,
          "durationTicks": 72,
          "midi": 64,
          "name": "E4",
          "ticks": 4608,
          "time": 19.200000000000003,
          "velocity": 0.952755905511811
        },
        {
          "duration": 0.10000000000000142,
          "durationTicks": 24,
          "midi": 61,
          "name": "C#4",
          "ticks": 4680,
          "time": 19.5,
          "velocity": 0.9291338582677166
        },
        {
          "duration": 0.10000000000000142,
          "durationTicks": 24,
          "midi": 64,
          "name": "E4",
          "ticks": 4680,
          "time": 19.5,
          "velocity": 0.9291338582677166
        },
        {
          "duration": 0.10000000000000142,
          "durationTicks": 24,
          "midi": 69,
          "name": "A4",
          "ticks": 4680,
          "time": 19.5,
          "velocity": 0.9291338582677166
        },
        {
          "duration": 0.02499999999999858,
          "durationTicks": 6,
          "midi": 69,
          "name": "A4",
          "ticks": 4788,
          "time": 19.950000000000003,
          "velocity": 0.9291338582677166
        },
        {
          "duration": 0.02499999999999858,
          "durationTicks": 6,
          "midi": 61,
          "name": "C#4",
          "ticks": 4788,
          "time": 19.950000000000003,
          "velocity": 0.9291338582677166
        },
        {
          "duration": 0.02499999999999858,
          "durationTicks": 6,
          "midi": 64,
          "name": "E4",
          "ticks": 4788,
          "time": 19.950000000000003,
          "velocity": 0.9291338582677166
        },
        {
          "duration": 0.02500000000000213,
          "durationTicks": 6,
          "midi": 61,
          "name": "C#4",
          "ticks": 4812,
          "time": 20.05,
          "velocity": 0.9291338582677166
        },
        {
          "duration": 0.02500000000000213,
          "durationTicks": 6,
          "midi": 64,
          "name": "E4",
          "ticks": 4812,
          "time": 20.05,
          "velocity": 0.9291338582677166
        },
        {
          "duration": 0.02500000000000213,
          "durationTicks": 6,
          "midi": 69,
          "name": "A4",
          "ticks": 4812,
          "time": 20.05,
          "velocity": 0.9291338582677166
        },
        {
          "duration": 0.25,
          "durationTicks": 60,
          "midi": 69,
          "name": "A4",
          "ticks": 4836,
          "time": 20.150000000000002,
          "velocity": 0.9291338582677166
        },
        {
          "duration": 0.25,
          "durationTicks": 60,
          "midi": 64,
          "name": "E4",
          "ticks": 4836,
          "time": 20.150000000000002,
          "velocity": 0.9291338582677166
        },
        {
          "duration": 0.25,
          "durationTicks": 60,
          "midi": 61,
          "name": "C#4",
          "ticks": 4836,
          "time": 20.150000000000002,
          "velocity": 0.9291338582677166
        },
        {
          "duration": 0.02499999999999858,
          "durationTicks": 6,
          "midi": 69,
          "name": "A4",
          "ticks": 4944,
          "time": 20.6,
          "velocity": 0.9291338582677166
        },
        {
          "duration": 0.02499999999999858,
          "durationTicks": 6,
          "midi": 64,
          "name": "E4",
          "ticks": 4944,
          "time": 20.6,
          "velocity": 0.9291338582677166
        },
        {
          "duration": 0.02499999999999858,
          "durationTicks": 6,
          "midi": 61,
          "name": "C#4",
          "ticks": 4944,
          "time": 20.6,
          "velocity": 0.9291338582677166
        },
        {
          "duration": 0.02499999999999858,
          "durationTicks": 6,
          "midi": 69,
          "name": "A4",
          "ticks": 4968,
          "time": 20.700000000000003,
          "velocity": 0.9291338582677166
        },
        {
          "duration": 0.02499999999999858,
          "durationTicks": 6,
          "midi": 64,
          "name": "E4",
          "ticks": 4968,
          "time": 20.700000000000003,
          "velocity": 0.9291338582677166
        },
        {
          "duration": 0.02499999999999858,
          "durationTicks": 6,
          "midi": 61,
          "name": "C#4",
          "ticks": 4968,
          "time": 20.700000000000003,
          "velocity": 0.9291338582677166
        },
        {
          "duration": 0.375,
          "durationTicks": 90,
          "midi": 61,
          "name": "C#4",
          "ticks": 4992,
          "time": 20.8,
          "velocity": 0.9291338582677166
        },
        {
          "duration": 0.375,
          "durationTicks": 90,
          "midi": 64,
          "name": "E4",
          "ticks": 4992,
          "time": 20.8,
          "velocity": 0.9291338582677166
        },
        {
          "duration": 0.3500000000000014,
          "durationTicks": 84,
          "midi": 68,
          "name": "G#4",
          "ticks": 4992,
          "time": 20.8,
          "velocity": 0.9291338582677166
        },
        {
          "duration": 0.3999999999999986,
          "durationTicks": 96,
          "midi": 68,
          "name": "G#4",
          "ticks": 5136,
          "time": 21.400000000000002,
          "velocity": 0.9291338582677166
        },
        {
          "duration": 0.3999999999999986,
          "durationTicks": 96,
          "midi": 64,
          "name": "E4",
          "ticks": 5136,
          "time": 21.400000000000002,
          "velocity": 0.9291338582677166
        },
        {
          "duration": 0.3999999999999986,
          "durationTicks": 96,
          "midi": 61,
          "name": "C#4",
          "ticks": 5136,
          "time": 21.400000000000002,
          "velocity": 0.9291338582677166
        },
        {
          "duration": 0.1999999999999993,
          "durationTicks": 48,
          "midi": 68,
          "name": "G#4",
          "ticks": 5232,
          "time": 21.8,
          "velocity": 0.9291338582677166
        },
        {
          "duration": 0.1999999999999993,
          "durationTicks": 48,
          "midi": 64,
          "name": "E4",
          "ticks": 5232,
          "time": 21.8,
          "velocity": 0.9291338582677166
        },
        {
          "duration": 0.1999999999999993,
          "durationTicks": 48,
          "midi": 61,
          "name": "C#4",
          "ticks": 5232,
          "time": 21.8,
          "velocity": 0.9291338582677166
        },
        {
          "duration": 0.20000000000000284,
          "durationTicks": 48,
          "midi": 68,
          "name": "G#4",
          "ticks": 5280,
          "time": 22,
          "velocity": 0.9291338582677166
        },
        {
          "duration": 0.20000000000000284,
          "durationTicks": 48,
          "midi": 64,
          "name": "E4",
          "ticks": 5280,
          "time": 22,
          "velocity": 0.9291338582677166
        },
        {
          "duration": 0.20000000000000284,
          "durationTicks": 48,
          "midi": 61,
          "name": "C#4",
          "ticks": 5280,
          "time": 22,
          "velocity": 0.9291338582677166
        },
        {
          "duration": 0.3000000000000007,
          "durationTicks": 72,
          "midi": 61,
          "name": "C#4",
          "ticks": 5376,
          "time": 22.400000000000002,
          "velocity": 0.9291338582677166
        },
        {
          "duration": 0.3000000000000007,
          "durationTicks": 72,
          "midi": 64,
          "name": "E4",
          "ticks": 5376,
          "time": 22.400000000000002,
          "velocity": 0.9291338582677166
        },
        {
          "duration": 0.3000000000000007,
          "durationTicks": 72,
          "midi": 69,
          "name": "A4",
          "ticks": 5376,
          "time": 22.400000000000002,
          "velocity": 0.9291338582677166
        },
        {
          "duration": 0.09999999999999787,
          "durationTicks": 24,
          "midi": 69,
          "name": "A4",
          "ticks": 5448,
          "time": 22.700000000000003,
          "velocity": 0.9291338582677166
        },
        {
          "duration": 0.09999999999999787,
          "durationTicks": 24,
          "midi": 64,
          "name": "E4",
          "ticks": 5448,
          "time": 22.700000000000003,
          "velocity": 0.9291338582677166
        },
        {
          "duration": 0.09999999999999787,
          "durationTicks": 24,
          "midi": 61,
          "name": "C#4",
          "ticks": 5448,
          "time": 22.700000000000003,
          "velocity": 0.9291338582677166
        },
        {
          "duration": 0.02499999999999858,
          "durationTicks": 6,
          "midi": 64,
          "name": "E4",
          "ticks": 5556,
          "time": 23.150000000000002,
          "velocity": 0.9291338582677166
        },
        {
          "duration": 0.02499999999999858,
          "durationTicks": 6,
          "midi": 61,
          "name": "C#4",
          "ticks": 5556,
          "time": 23.150000000000002,
          "velocity": 0.9291338582677166
        },
        {
          "duration": 0.02499999999999858,
          "durationTicks": 6,
          "midi": 69,
          "name": "A4",
          "ticks": 5556,
          "time": 23.150000000000002,
          "velocity": 0.9291338582677166
        },
        {
          "duration": 0.02500000000000213,
          "durationTicks": 6,
          "midi": 61,
          "name": "C#4",
          "ticks": 5580,
          "time": 23.25,
          "velocity": 0.9291338582677166
        },
        {
          "duration": 0.02500000000000213,
          "durationTicks": 6,
          "midi": 64,
          "name": "E4",
          "ticks": 5580,
          "time": 23.25,
          "velocity": 0.9291338582677166
        },
        {
          "duration": 0.02500000000000213,
          "durationTicks": 6,
          "midi": 69,
          "name": "A4",
          "ticks": 5580,
          "time": 23.25,
          "velocity": 0.9291338582677166
        },
        {
          "duration": 0.25,
          "durationTicks": 60,
          "midi": 61,
          "name": "C#4",
          "ticks": 5604,
          "time": 23.35,
          "velocity": 0.9291338582677166
        },
        {
          "duration": 0.25,
          "durationTicks": 60,
          "midi": 64,
          "name": "E4",
          "ticks": 5604,
          "time": 23.35,
          "velocity": 0.9291338582677166
        },
        {
          "duration": 0.25,
          "durationTicks": 60,
          "midi": 69,
          "name": "A4",
          "ticks": 5604,
          "time": 23.35,
          "velocity": 0.9291338582677166
        },
        {
          "duration": 0.02500000000000213,
          "durationTicks": 6,
          "midi": 69,
          "name": "A4",
          "ticks": 5712,
          "time": 23.8,
          "velocity": 0.9291338582677166
        },
        {
          "duration": 0.02500000000000213,
          "durationTicks": 6,
          "midi": 64,
          "name": "E4",
          "ticks": 5712,
          "time": 23.8,
          "velocity": 0.9291338582677166
        },
        {
          "duration": 0.02500000000000213,
          "durationTicks": 6,
          "midi": 61,
          "name": "C#4",
          "ticks": 5712,
          "time": 23.8,
          "velocity": 0.9291338582677166
        },
        {
          "duration": 0.02499999999999858,
          "durationTicks": 6,
          "midi": 69,
          "name": "A4",
          "ticks": 5736,
          "time": 23.900000000000002,
          "velocity": 0.9291338582677166
        },
        {
          "duration": 0.02499999999999858,
          "durationTicks": 6,
          "midi": 64,
          "name": "E4",
          "ticks": 5736,
          "time": 23.900000000000002,
          "velocity": 0.9291338582677166
        },
        {
          "duration": 0.02499999999999858,
          "durationTicks": 6,
          "midi": 61,
          "name": "C#4",
          "ticks": 5736,
          "time": 23.900000000000002,
          "velocity": 0.9291338582677166
        },
        {
          "duration": 0.3500000000000014,
          "durationTicks": 84,
          "midi": 68,
          "name": "G#4",
          "ticks": 5760,
          "time": 24,
          "velocity": 0.9291338582677166
        },
        {
          "duration": 0.375,
          "durationTicks": 90,
          "midi": 64,
          "name": "E4",
          "ticks": 5760,
          "time": 24,
          "velocity": 0.9291338582677166
        },
        {
          "duration": 0.375,
          "durationTicks": 90,
          "midi": 61,
          "name": "C#4",
          "ticks": 5760,
          "time": 24,
          "velocity": 0.9291338582677166
        },
        {
          "duration": 0.3999999999999986,
          "durationTicks": 96,
          "midi": 61,
          "name": "C#4",
          "ticks": 5904,
          "time": 24.6,
          "velocity": 0.9291338582677166
        },
        {
          "duration": 0.3999999999999986,
          "durationTicks": 96,
          "midi": 64,
          "name": "E4",
          "ticks": 5904,
          "time": 24.6,
          "velocity": 0.9291338582677166
        },
        {
          "duration": 0.3999999999999986,
          "durationTicks": 96,
          "midi": 68,
          "name": "G#4",
          "ticks": 5904,
          "time": 24.6,
          "velocity": 0.9291338582677166
        },
        {
          "duration": 0.20000000000000284,
          "durationTicks": 48,
          "midi": 68,
          "name": "G#4",
          "ticks": 6000,
          "time": 25,
          "velocity": 0.9291338582677166
        },
        {
          "duration": 0.20000000000000284,
          "durationTicks": 48,
          "midi": 64,
          "name": "E4",
          "ticks": 6000,
          "time": 25,
          "velocity": 0.9291338582677166
        },
        {
          "duration": 0.20000000000000284,
          "durationTicks": 48,
          "midi": 61,
          "name": "C#4",
          "ticks": 6000,
          "time": 25,
          "velocity": 0.9291338582677166
        },
        {
          "duration": 0.1999999999999993,
          "durationTicks": 48,
          "midi": 68,
          "name": "G#4",
          "ticks": 6048,
          "time": 25.200000000000003,
          "velocity": 0.9291338582677166
        },
        {
          "duration": 0.1999999999999993,
          "durationTicks": 48,
          "midi": 64,
          "name": "E4",
          "ticks": 6048,
          "time": 25.200000000000003,
          "velocity": 0.9291338582677166
        },
        {
          "duration": 0.1999999999999993,
          "durationTicks": 48,
          "midi": 61,
          "name": "C#4",
          "ticks": 6048,
          "time": 25.200000000000003,
          "velocity": 0.9291338582677166
        },
        {
          "duration": 0.02500000000000213,
          "durationTicks": 6,
          "midi": 61,
          "name": "C#4",
          "ticks": 6120,
          "time": 25.5,
          "velocity": 0.889763779527559
        },
        {
          "duration": 0.02500000000000213,
          "durationTicks": 6,
          "midi": 64,
          "name": "E4",
          "ticks": 6120,
          "time": 25.5,
          "velocity": 0.889763779527559
        },
        {
          "duration": 0.02500000000000213,
          "durationTicks": 6,
          "midi": 68,
          "name": "G#4",
          "ticks": 6120,
          "time": 25.5,
          "velocity": 0.889763779527559
        },
        {
          "duration": 0.1999999999999993,
          "durationTicks": 48,
          "midi": 50,
          "name": "D3",
          "ticks": 6144,
          "time": 25.6,
          "velocity": 0.952755905511811
        },
        {
          "duration": 0.1999999999999993,
          "durationTicks": 48,
          "midi": 57,
          "name": "A3",
          "ticks": 6144,
          "time": 25.6,
          "velocity": 0.952755905511811
        },
        {
          "duration": 0.1999999999999993,
          "durationTicks": 48,
          "midi": 50,
          "name": "D3",
          "ticks": 6192,
          "time": 25.8,
          "velocity": 0.952755905511811
        },
        {
          "duration": 0.1999999999999993,
          "durationTicks": 48,
          "midi": 57,
          "name": "A3",
          "ticks": 6192,
          "time": 25.8,
          "velocity": 0.952755905511811
        },
        {
          "duration": 0.02499999999999858,
          "durationTicks": 6,
          "midi": 59,
          "name": "B3",
          "ticks": 6264,
          "time": 26.1,
          "velocity": 0.952755905511811
        },
        {
          "duration": 0.02499999999999858,
          "durationTicks": 6,
          "midi": 50,
          "name": "D3",
          "ticks": 6264,
          "time": 26.1,
          "velocity": 0.952755905511811
        },
        {
          "duration": 0.02499999999999858,
          "durationTicks": 6,
          "midi": 59,
          "name": "B3",
          "ticks": 6288,
          "time": 26.200000000000003,
          "velocity": 0.952755905511811
        },
        {
          "duration": 0.02499999999999858,
          "durationTicks": 6,
          "midi": 50,
          "name": "D3",
          "ticks": 6288,
          "time": 26.200000000000003,
          "velocity": 0.952755905511811
        },
        {
          "duration": 0.02500000000000213,
          "durationTicks": 6,
          "midi": 50,
          "name": "D3",
          "ticks": 6312,
          "time": 26.3,
          "velocity": 0.952755905511811
        },
        {
          "duration": 0.02500000000000213,
          "durationTicks": 6,
          "midi": 59,
          "name": "B3",
          "ticks": 6312,
          "time": 26.3,
          "velocity": 0.952755905511811
        },
        {
          "duration": 0.1999999999999993,
          "durationTicks": 48,
          "midi": 52,
          "name": "E3",
          "ticks": 6336,
          "time": 26.400000000000002,
          "velocity": 0.952755905511811
        },
        {
          "duration": 0.1999999999999993,
          "durationTicks": 48,
          "midi": 59,
          "name": "B3",
          "ticks": 6336,
          "time": 26.400000000000002,
          "velocity": 0.952755905511811
        },
        {
          "duration": 0.1999999999999993,
          "durationTicks": 48,
          "midi": 59,
          "name": "B3",
          "ticks": 6384,
          "time": 26.6,
          "velocity": 0.952755905511811
        },
        {
          "duration": 0.1999999999999993,
          "durationTicks": 48,
          "midi": 52,
          "name": "E3",
          "ticks": 6384,
          "time": 26.6,
          "velocity": 0.952755905511811
        },
        {
          "duration": 0.02499999999999858,
          "durationTicks": 6,
          "midi": 50,
          "name": "D3",
          "ticks": 6456,
          "time": 26.900000000000002,
          "velocity": 0.952755905511811
        },
        {
          "duration": 0.02499999999999858,
          "durationTicks": 6,
          "midi": 59,
          "name": "B3",
          "ticks": 6456,
          "time": 26.900000000000002,
          "velocity": 0.952755905511811
        },
        {
          "duration": 0.02500000000000213,
          "durationTicks": 6,
          "midi": 50,
          "name": "D3",
          "ticks": 6480,
          "time": 27,
          "velocity": 0.952755905511811
        },
        {
          "duration": 0.02500000000000213,
          "durationTicks": 6,
          "midi": 59,
          "name": "B3",
          "ticks": 6480,
          "time": 27,
          "velocity": 0.952755905511811
        },
        {
          "duration": 0.02499999999999858,
          "durationTicks": 6,
          "midi": 59,
          "name": "B3",
          "ticks": 6504,
          "time": 27.1,
          "velocity": 0.952755905511811
        },
        {
          "duration": 0.02499999999999858,
          "durationTicks": 6,
          "midi": 50,
          "name": "D3",
          "ticks": 6504,
          "time": 27.1,
          "velocity": 0.952755905511811
        },
        {
          "duration": 0.1999999999999993,
          "durationTicks": 48,
          "midi": 52,
          "name": "E3",
          "ticks": 6528,
          "time": 27.200000000000003,
          "velocity": 0.952755905511811
        },
        {
          "duration": 0.1999999999999993,
          "durationTicks": 48,
          "midi": 57,
          "name": "A3",
          "ticks": 6528,
          "time": 27.200000000000003,
          "velocity": 0.952755905511811
        },
        {
          "duration": 0.1999999999999993,
          "durationTicks": 48,
          "midi": 52,
          "name": "E3",
          "ticks": 6576,
          "time": 27.400000000000002,
          "velocity": 0.952755905511811
        },
        {
          "duration": 0.1999999999999993,
          "durationTicks": 48,
          "midi": 57,
          "name": "A3",
          "ticks": 6576,
          "time": 27.400000000000002,
          "velocity": 0.952755905511811
        },
        {
          "duration": 0.02500000000000213,
          "durationTicks": 6,
          "midi": 52,
          "name": "E3",
          "ticks": 6642,
          "time": 27.675,
          "velocity": 0.952755905511811
        },
        {
          "duration": 0.02499999999999858,
          "durationTicks": 6,
          "midi": 56,
          "name": "G#3",
          "ticks": 6648,
          "time": 27.700000000000003,
          "velocity": 0.952755905511811
        },
        {
          "duration": 0.40000000000000213,
          "durationTicks": 96,
          "midi": 54,
          "name": "F#3",
          "ticks": 6672,
          "time": 27.8,
          "velocity": 0.952755905511811
        },
        {
          "duration": 0.40000000000000213,
          "durationTicks": 96,
          "midi": 49,
          "name": "C#3",
          "ticks": 6672,
          "time": 27.8,
          "velocity": 0.952755905511811
        },
        {
          "duration": 0.1999999999999993,
          "durationTicks": 48,
          "midi": 49,
          "name": "C#3",
          "ticks": 6768,
          "time": 28.200000000000003,
          "velocity": 0.952755905511811
        },
        {
          "duration": 0.1999999999999993,
          "durationTicks": 48,
          "midi": 54,
          "name": "F#3",
          "ticks": 6768,
          "time": 28.200000000000003,
          "velocity": 0.952755905511811
        },
        {
          "duration": 0.1999999999999993,
          "durationTicks": 48,
          "midi": 54,
          "name": "F#3",
          "ticks": 6816,
          "time": 28.400000000000002,
          "velocity": 0.952755905511811
        },
        {
          "duration": 0.1999999999999993,
          "durationTicks": 48,
          "midi": 49,
          "name": "C#3",
          "ticks": 6816,
          "time": 28.400000000000002,
          "velocity": 0.952755905511811
        },
        {
          "duration": 0.18333333333333357,
          "durationTicks": 44,
          "midi": 62,
          "name": "D4",
          "ticks": 6912,
          "time": 28.8,
          "velocity": 0.968503937007874
        },
        {
          "duration": 0.18333333333333357,
          "durationTicks": 44,
          "midi": 57,
          "name": "A3",
          "ticks": 6912,
          "time": 28.8,
          "velocity": 0.968503937007874
        },
        {
          "duration": 0.18333333333333357,
          "durationTicks": 44,
          "midi": 62,
          "name": "D4",
          "ticks": 6960,
          "time": 29,
          "velocity": 0.968503937007874
        },
        {
          "duration": 0.18333333333333357,
          "durationTicks": 44,
          "midi": 57,
          "name": "A3",
          "ticks": 6960,
          "time": 29,
          "velocity": 0.968503937007874
        },
        {
          "duration": 0.0833333333333286,
          "durationTicks": 20,
          "midi": 57,
          "name": "A3",
          "ticks": 7008,
          "time": 29.200000000000003,
          "velocity": 0.968503937007874
        },
        {
          "duration": 0.0833333333333286,
          "durationTicks": 20,
          "midi": 62,
          "name": "D4",
          "ticks": 7008,
          "time": 29.200000000000003,
          "velocity": 0.968503937007874
        },
        {
          "duration": 0.08333333333333215,
          "durationTicks": 20,
          "midi": 62,
          "name": "D4",
          "ticks": 7056,
          "time": 29.400000000000002,
          "velocity": 0.968503937007874
        },
        {
          "duration": 0.08333333333333215,
          "durationTicks": 20,
          "midi": 57,
          "name": "A3",
          "ticks": 7056,
          "time": 29.400000000000002,
          "velocity": 0.968503937007874
        },
        {
          "duration": 0.18333333333333002,
          "durationTicks": 44,
          "midi": 62,
          "name": "D4",
          "ticks": 7104,
          "time": 29.6,
          "velocity": 0.968503937007874
        },
        {
          "duration": 0.18333333333333002,
          "durationTicks": 44,
          "midi": 57,
          "name": "A3",
          "ticks": 7104,
          "time": 29.6,
          "velocity": 0.968503937007874
        },
        {
          "duration": 0.18333333333333357,
          "durationTicks": 44,
          "midi": 57,
          "name": "A3",
          "ticks": 7152,
          "time": 29.8,
          "velocity": 0.968503937007874
        },
        {
          "duration": 0.18333333333333357,
          "durationTicks": 44,
          "midi": 62,
          "name": "D4",
          "ticks": 7152,
          "time": 29.8,
          "velocity": 0.968503937007874
        },
        {
          "duration": 0.08333333333333215,
          "durationTicks": 20,
          "midi": 57,
          "name": "A3",
          "ticks": 7200,
          "time": 30,
          "velocity": 0.968503937007874
        },
        {
          "duration": 0.08333333333333215,
          "durationTicks": 20,
          "midi": 62,
          "name": "D4",
          "ticks": 7200,
          "time": 30,
          "velocity": 0.968503937007874
        },
        {
          "duration": 0.5999999999999979,
          "durationTicks": 144,
          "midi": 57,
          "name": "A3",
          "ticks": 7248,
          "time": 30.200000000000003,
          "velocity": 0.968503937007874
        },
        {
          "duration": 0.5999999999999979,
          "durationTicks": 144,
          "midi": 52,
          "name": "E3",
          "ticks": 7248,
          "time": 30.200000000000003,
          "velocity": 0.968503937007874
        },
        {
          "duration": 0.10000000000000142,
          "durationTicks": 24,
          "midi": 52,
          "name": "E3",
          "ticks": 7392,
          "time": 30.8,
          "velocity": 0.9133858267716536
        },
        {
          "duration": 0.10000000000000142,
          "durationTicks": 24,
          "midi": 57,
          "name": "A3",
          "ticks": 7392,
          "time": 30.8,
          "velocity": 0.9133858267716536
        },
        {
          "duration": 0.10000000000000142,
          "durationTicks": 24,
          "midi": 52,
          "name": "E3",
          "ticks": 7440,
          "time": 31,
          "velocity": 0.9133858267716536
        },
        {
          "duration": 0.10000000000000142,
          "durationTicks": 24,
          "midi": 57,
          "name": "A3",
          "ticks": 7440,
          "time": 31,
          "velocity": 0.9133858267716536
        },
        {
          "duration": 0.09999999999999787,
          "durationTicks": 24,
          "midi": 52,
          "name": "E3",
          "ticks": 7488,
          "time": 31.200000000000003,
          "velocity": 0.9133858267716536
        },
        {
          "duration": 0.09999999999999787,
          "durationTicks": 24,
          "midi": 57,
          "name": "A3",
          "ticks": 7488,
          "time": 31.200000000000003,
          "velocity": 0.9133858267716536
        },
        {
          "duration": 0.09999999999999787,
          "durationTicks": 24,
          "midi": 57,
          "name": "A3",
          "ticks": 7536,
          "time": 31.400000000000002,
          "velocity": 0.9133858267716536
        },
        {
          "duration": 0.09999999999999787,
          "durationTicks": 24,
          "midi": 52,
          "name": "E3",
          "ticks": 7536,
          "time": 31.400000000000002,
          "velocity": 0.9133858267716536
        },
        {
          "duration": 0.10000000000000142,
          "durationTicks": 24,
          "midi": 57,
          "name": "A3",
          "ticks": 7584,
          "time": 31.6,
          "velocity": 0.9133858267716536
        },
        {
          "duration": 0.10000000000000142,
          "durationTicks": 24,
          "midi": 52,
          "name": "E3",
          "ticks": 7584,
          "time": 31.6,
          "velocity": 0.9133858267716536
        },
        {
          "duration": 0.10000000000000142,
          "durationTicks": 24,
          "midi": 52,
          "name": "E3",
          "ticks": 7632,
          "time": 31.8,
          "velocity": 0.9133858267716536
        },
        {
          "duration": 0.10000000000000142,
          "durationTicks": 24,
          "midi": 57,
          "name": "A3",
          "ticks": 7632,
          "time": 31.8,
          "velocity": 0.9133858267716536
        },
        {
          "duration": 0.2083333333333428,
          "durationTicks": 50,
          "midi": 61,
          "name": "C#4",
          "ticks": 16128,
          "time": 67.2,
          "velocity": 0.9763779527559056
        },
        {
          "duration": 0.2083333333333428,
          "durationTicks": 50,
          "midi": 68,
          "name": "G#4",
          "ticks": 16128,
          "time": 67.2,
          "velocity": 0.9763779527559056
        },
        {
          "duration": 0.3583333333333343,
          "durationTicks": 86,
          "midi": 68,
          "name": "G#4",
          "ticks": 16224,
          "time": 67.60000000000001,
          "velocity": 0.9763779527559056
        },
        {
          "duration": 0.3583333333333343,
          "durationTicks": 86,
          "midi": 61,
          "name": "C#4",
          "ticks": 16224,
          "time": 67.60000000000001,
          "velocity": 0.9763779527559056
        },
        {
          "duration": 0.3583333333333343,
          "durationTicks": 86,
          "midi": 68,
          "name": "G#4",
          "ticks": 16368,
          "time": 68.2,
          "velocity": 0.9763779527559056
        },
        {
          "duration": 0.3583333333333343,
          "durationTicks": 86,
          "midi": 61,
          "name": "C#4",
          "ticks": 16368,
          "time": 68.2,
          "velocity": 0.9763779527559056
        },
        {
          "duration": 0.03333333333333144,
          "durationTicks": 8,
          "midi": 68,
          "name": "G#4",
          "ticks": 16464,
          "time": 68.60000000000001,
          "velocity": 0.9763779527559056
        },
        {
          "duration": 0.03333333333333144,
          "durationTicks": 8,
          "midi": 61,
          "name": "C#4",
          "ticks": 16464,
          "time": 68.60000000000001,
          "velocity": 0.9763779527559056
        },
        {
          "duration": 0.03333333333334565,
          "durationTicks": 8,
          "midi": 61,
          "name": "C#4",
          "ticks": 16482,
          "time": 68.675,
          "velocity": 0.9763779527559056
        },
        {
          "duration": 0.03333333333334565,
          "durationTicks": 8,
          "midi": 68,
          "name": "G#4",
          "ticks": 16482,
          "time": 68.675,
          "velocity": 0.9763779527559056
        },
        {
          "duration": 0.2083333333333428,
          "durationTicks": 50,
          "midi": 61,
          "name": "C#4",
          "ticks": 16512,
          "time": 68.8,
          "velocity": 0.9763779527559056
        },
        {
          "duration": 0.2083333333333428,
          "durationTicks": 50,
          "midi": 68,
          "name": "G#4",
          "ticks": 16512,
          "time": 68.8,
          "velocity": 0.9763779527559056
        },
        {
          "duration": 0.3583333333333343,
          "durationTicks": 86,
          "midi": 68,
          "name": "G#4",
          "ticks": 16608,
          "time": 69.2,
          "velocity": 0.9763779527559056
        },
        {
          "duration": 0.3583333333333343,
          "durationTicks": 86,
          "midi": 61,
          "name": "C#4",
          "ticks": 16608,
          "time": 69.2,
          "velocity": 0.9763779527559056
        },
        {
          "duration": 0.3583333333333485,
          "durationTicks": 86,
          "midi": 61,
          "name": "C#4",
          "ticks": 16752,
          "time": 69.8,
          "velocity": 0.9763779527559056
        },
        {
          "duration": 0.3583333333333485,
          "durationTicks": 86,
          "midi": 68,
          "name": "G#4",
          "ticks": 16752,
          "time": 69.8,
          "velocity": 0.9763779527559056
        },
        {
          "duration": 0.03333333333333144,
          "durationTicks": 8,
          "midi": 68,
          "name": "G#4",
          "ticks": 16854,
          "time": 70.22500000000001,
          "velocity": 0.9763779527559056
        },
        {
          "duration": 0.03333333333333144,
          "durationTicks": 8,
          "midi": 61,
          "name": "C#4",
          "ticks": 16854,
          "time": 70.22500000000001,
          "velocity": 0.9763779527559056
        },
        {
          "duration": 0.03333333333334565,
          "durationTicks": 8,
          "midi": 68,
          "name": "G#4",
          "ticks": 16872,
          "time": 70.3,
          "velocity": 0.9763779527559056
        },
        {
          "duration": 0.03333333333334565,
          "durationTicks": 8,
          "midi": 61,
          "name": "C#4",
          "ticks": 16872,
          "time": 70.3,
          "velocity": 0.9763779527559056
        },
        {
          "duration": 0.20000000000000284,
          "durationTicks": 48,
          "midi": 68,
          "name": "G#4",
          "ticks": 16896,
          "time": 70.4,
          "velocity": 0.9763779527559056
        },
        {
          "duration": 0.20000000000000284,
          "durationTicks": 48,
          "midi": 61,
          "name": "C#4",
          "ticks": 16896,
          "time": 70.4,
          "velocity": 0.9763779527559056
        },
        {
          "duration": 0.19999999999998863,
          "durationTicks": 48,
          "midi": 61,
          "name": "C#4",
          "ticks": 16944,
          "time": 70.60000000000001,
          "velocity": 0.9763779527559056
        },
        {
          "duration": 0.19999999999998863,
          "durationTicks": 48,
          "midi": 68,
          "name": "G#4",
          "ticks": 16944,
          "time": 70.60000000000001,
          "velocity": 0.9763779527559056
        },
        {
          "duration": 0.20000000000000284,
          "durationTicks": 48,
          "midi": 61,
          "name": "C#4",
          "ticks": 16992,
          "time": 70.8,
          "velocity": 0.9763779527559056
        },
        {
          "duration": 0.20000000000000284,
          "durationTicks": 48,
          "midi": 68,
          "name": "G#4",
          "ticks": 16992,
          "time": 70.8,
          "velocity": 0.9763779527559056
        },
        {
          "duration": 0.20000000000000284,
          "durationTicks": 48,
          "midi": 68,
          "name": "G#4",
          "ticks": 17040,
          "time": 71,
          "velocity": 0.9763779527559056
        },
        {
          "duration": 0.20000000000000284,
          "durationTicks": 48,
          "midi": 61,
          "name": "C#4",
          "ticks": 17040,
          "time": 71,
          "velocity": 0.9763779527559056
        },
        {
          "duration": 0.20000000000000284,
          "durationTicks": 48,
          "midi": 63,
          "name": "D#4",
          "ticks": 17088,
          "time": 71.2,
          "velocity": 0.9763779527559056
        },
        {
          "duration": 0.20000000000000284,
          "durationTicks": 48,
          "midi": 68,
          "name": "G#4",
          "ticks": 17088,
          "time": 71.2,
          "velocity": 0.9763779527559056
        },
        {
          "duration": 0.20000000000000284,
          "durationTicks": 48,
          "midi": 63,
          "name": "D#4",
          "ticks": 17136,
          "time": 71.4,
          "velocity": 0.9763779527559056
        },
        {
          "duration": 0.20000000000000284,
          "durationTicks": 48,
          "midi": 68,
          "name": "G#4",
          "ticks": 17136,
          "time": 71.4,
          "velocity": 0.9763779527559056
        },
        {
          "duration": 0.19999999999998863,
          "durationTicks": 48,
          "midi": 63,
          "name": "D#4",
          "ticks": 17184,
          "time": 71.60000000000001,
          "velocity": 0.9763779527559056
        },
        {
          "duration": 0.19999999999998863,
          "durationTicks": 48,
          "midi": 68,
          "name": "G#4",
          "ticks": 17184,
          "time": 71.60000000000001,
          "velocity": 0.9763779527559056
        },
        {
          "duration": 0.20000000000000284,
          "durationTicks": 48,
          "midi": 63,
          "name": "D#4",
          "ticks": 17232,
          "time": 71.8,
          "velocity": 0.9763779527559056
        },
        {
          "duration": 0.20000000000000284,
          "durationTicks": 48,
          "midi": 68,
          "name": "G#4",
          "ticks": 17232,
          "time": 71.8,
          "velocity": 0.9763779527559056
        },
        {
          "duration": 0.20000000000000284,
          "durationTicks": 48,
          "midi": 68,
          "name": "G#4",
          "ticks": 17280,
          "time": 72,
          "velocity": 0.9763779527559056
        },
        {
          "duration": 0.20000000000000284,
          "durationTicks": 48,
          "midi": 64,
          "name": "E4",
          "ticks": 17280,
          "time": 72,
          "velocity": 0.9763779527559056
        },
        {
          "duration": 0.29999999999999716,
          "durationTicks": 72,
          "midi": 61,
          "name": "C#4",
          "ticks": 17664,
          "time": 73.60000000000001,
          "velocity": 0.9291338582677166
        },
        {
          "duration": 0.29999999999999716,
          "durationTicks": 72,
          "midi": 64,
          "name": "E4",
          "ticks": 17664,
          "time": 73.60000000000001,
          "velocity": 0.9291338582677166
        },
        {
          "duration": 0.29999999999999716,
          "durationTicks": 72,
          "midi": 69,
          "name": "A4",
          "ticks": 17664,
          "time": 73.60000000000001,
          "velocity": 0.9291338582677166
        },
        {
          "duration": 0.09999999999999432,
          "durationTicks": 24,
          "midi": 69,
          "name": "A4",
          "ticks": 17736,
          "time": 73.9,
          "velocity": 0.9291338582677166
        },
        {
          "duration": 0.09999999999999432,
          "durationTicks": 24,
          "midi": 64,
          "name": "E4",
          "ticks": 17736,
          "time": 73.9,
          "velocity": 0.9291338582677166
        },
        {
          "duration": 0.09999999999999432,
          "durationTicks": 24,
          "midi": 61,
          "name": "C#4",
          "ticks": 17736,
          "time": 73.9,
          "velocity": 0.9291338582677166
        },
        {
          "duration": 0.024999999999991473,
          "durationTicks": 6,
          "midi": 64,
          "name": "E4",
          "ticks": 17844,
          "time": 74.35000000000001,
          "velocity": 0.9291338582677166
        },
        {
          "duration": 0.024999999999991473,
          "durationTicks": 6,
          "midi": 61,
          "name": "C#4",
          "ticks": 17844,
          "time": 74.35000000000001,
          "velocity": 0.9291338582677166
        },
        {
          "duration": 0.024999999999991473,
          "durationTicks": 6,
          "midi": 69,
          "name": "A4",
          "ticks": 17844,
          "time": 74.35000000000001,
          "velocity": 0.9291338582677166
        },
        {
          "duration": 0.025000000000005684,
          "durationTicks": 6,
          "midi": 69,
          "name": "A4",
          "ticks": 17868,
          "time": 74.45,
          "velocity": 0.9291338582677166
        },
        {
          "duration": 0.025000000000005684,
          "durationTicks": 6,
          "midi": 64,
          "name": "E4",
          "ticks": 17868,
          "time": 74.45,
          "velocity": 0.9291338582677166
        },
        {
          "duration": 0.025000000000005684,
          "durationTicks": 6,
          "midi": 61,
          "name": "C#4",
          "ticks": 17868,
          "time": 74.45,
          "velocity": 0.9291338582677166
        },
        {
          "duration": 0.25,
          "durationTicks": 60,
          "midi": 69,
          "name": "A4",
          "ticks": 17892,
          "time": 74.55,
          "velocity": 0.9291338582677166
        },
        {
          "duration": 0.25,
          "durationTicks": 60,
          "midi": 64,
          "name": "E4",
          "ticks": 17892,
          "time": 74.55,
          "velocity": 0.9291338582677166
        },
        {
          "duration": 0.25,
          "durationTicks": 60,
          "midi": 61,
          "name": "C#4",
          "ticks": 17892,
          "time": 74.55,
          "velocity": 0.9291338582677166
        },
        {
          "duration": 0.025000000000005684,
          "durationTicks": 6,
          "midi": 61,
          "name": "C#4",
          "ticks": 18000,
          "time": 75,
          "velocity": 0.9291338582677166
        },
        {
          "duration": 0.025000000000005684,
          "durationTicks": 6,
          "midi": 64,
          "name": "E4",
          "ticks": 18000,
          "time": 75,
          "velocity": 0.9291338582677166
        },
        {
          "duration": 0.025000000000005684,
          "durationTicks": 6,
          "midi": 69,
          "name": "A4",
          "ticks": 18000,
          "time": 75,
          "velocity": 0.9291338582677166
        },
        {
          "duration": 0.024999999999991473,
          "durationTicks": 6,
          "midi": 69,
          "name": "A4",
          "ticks": 18024,
          "time": 75.10000000000001,
          "velocity": 0.9291338582677166
        },
        {
          "duration": 0.024999999999991473,
          "durationTicks": 6,
          "midi": 64,
          "name": "E4",
          "ticks": 18024,
          "time": 75.10000000000001,
          "velocity": 0.9291338582677166
        },
        {
          "duration": 0.024999999999991473,
          "durationTicks": 6,
          "midi": 61,
          "name": "C#4",
          "ticks": 18024,
          "time": 75.10000000000001,
          "velocity": 0.9291338582677166
        },
        {
          "duration": 0.3499999999999943,
          "durationTicks": 84,
          "midi": 68,
          "name": "G#4",
          "ticks": 18048,
          "time": 75.2,
          "velocity": 0.9291338582677166
        },
        {
          "duration": 0.375,
          "durationTicks": 90,
          "midi": 64,
          "name": "E4",
          "ticks": 18048,
          "time": 75.2,
          "velocity": 0.9291338582677166
        },
        {
          "duration": 0.375,
          "durationTicks": 90,
          "midi": 61,
          "name": "C#4",
          "ticks": 18048,
          "time": 75.2,
          "velocity": 0.9291338582677166
        },
        {
          "duration": 0.4000000000000057,
          "durationTicks": 96,
          "midi": 68,
          "name": "G#4",
          "ticks": 18192,
          "time": 75.8,
          "velocity": 0.9291338582677166
        },
        {
          "duration": 0.4000000000000057,
          "durationTicks": 96,
          "midi": 64,
          "name": "E4",
          "ticks": 18192,
          "time": 75.8,
          "velocity": 0.9291338582677166
        },
        {
          "duration": 0.4000000000000057,
          "durationTicks": 96,
          "midi": 61,
          "name": "C#4",
          "ticks": 18192,
          "time": 75.8,
          "velocity": 0.9291338582677166
        },
        {
          "duration": 0.20000000000000284,
          "durationTicks": 48,
          "midi": 68,
          "name": "G#4",
          "ticks": 18288,
          "time": 76.2,
          "velocity": 0.9291338582677166
        },
        {
          "duration": 0.20000000000000284,
          "durationTicks": 48,
          "midi": 64,
          "name": "E4",
          "ticks": 18288,
          "time": 76.2,
          "velocity": 0.9291338582677166
        },
        {
          "duration": 0.20000000000000284,
          "durationTicks": 48,
          "midi": 61,
          "name": "C#4",
          "ticks": 18288,
          "time": 76.2,
          "velocity": 0.9291338582677166
        },
        {
          "duration": 0.20000000000000284,
          "durationTicks": 48,
          "midi": 61,
          "name": "C#4",
          "ticks": 18336,
          "time": 76.4,
          "velocity": 0.9291338582677166
        },
        {
          "duration": 0.20000000000000284,
          "durationTicks": 48,
          "midi": 64,
          "name": "E4",
          "ticks": 18336,
          "time": 76.4,
          "velocity": 0.9291338582677166
        },
        {
          "duration": 0.20000000000000284,
          "durationTicks": 48,
          "midi": 68,
          "name": "G#4",
          "ticks": 18336,
          "time": 76.4,
          "velocity": 0.9291338582677166
        },
        {
          "duration": 0.29999999999999716,
          "durationTicks": 72,
          "midi": 61,
          "name": "C#4",
          "ticks": 18432,
          "time": 76.80000000000001,
          "velocity": 0.9291338582677166
        },
        {
          "duration": 0.29999999999999716,
          "durationTicks": 72,
          "midi": 64,
          "name": "E4",
          "ticks": 18432,
          "time": 76.80000000000001,
          "velocity": 0.9291338582677166
        },
        {
          "duration": 0.29999999999999716,
          "durationTicks": 72,
          "midi": 69,
          "name": "A4",
          "ticks": 18432,
          "time": 76.80000000000001,
          "velocity": 0.9291338582677166
        },
        {
          "duration": 0.09999999999999432,
          "durationTicks": 24,
          "midi": 61,
          "name": "C#4",
          "ticks": 18504,
          "time": 77.10000000000001,
          "velocity": 0.9291338582677166
        },
        {
          "duration": 0.09999999999999432,
          "durationTicks": 24,
          "midi": 64,
          "name": "E4",
          "ticks": 18504,
          "time": 77.10000000000001,
          "velocity": 0.9291338582677166
        },
        {
          "duration": 0.09999999999999432,
          "durationTicks": 24,
          "midi": 69,
          "name": "A4",
          "ticks": 18504,
          "time": 77.10000000000001,
          "velocity": 0.9291338582677166
        },
        {
          "duration": 0.024999999999991473,
          "durationTicks": 6,
          "midi": 64,
          "name": "E4",
          "ticks": 18612,
          "time": 77.55000000000001,
          "velocity": 0.9291338582677166
        },
        {
          "duration": 0.024999999999991473,
          "durationTicks": 6,
          "midi": 61,
          "name": "C#4",
          "ticks": 18612,
          "time": 77.55000000000001,
          "velocity": 0.9291338582677166
        },
        {
          "duration": 0.024999999999991473,
          "durationTicks": 6,
          "midi": 69,
          "name": "A4",
          "ticks": 18612,
          "time": 77.55000000000001,
          "velocity": 0.9291338582677166
        },
        {
          "duration": 0.025000000000005684,
          "durationTicks": 6,
          "midi": 69,
          "name": "A4",
          "ticks": 18636,
          "time": 77.65,
          "velocity": 0.9291338582677166
        },
        {
          "duration": 0.025000000000005684,
          "durationTicks": 6,
          "midi": 64,
          "name": "E4",
          "ticks": 18636,
          "time": 77.65,
          "velocity": 0.9291338582677166
        },
        {
          "duration": 0.025000000000005684,
          "durationTicks": 6,
          "midi": 61,
          "name": "C#4",
          "ticks": 18636,
          "time": 77.65,
          "velocity": 0.9291338582677166
        },
        {
          "duration": 0.25,
          "durationTicks": 60,
          "midi": 69,
          "name": "A4",
          "ticks": 18660,
          "time": 77.75,
          "velocity": 0.9291338582677166
        },
        {
          "duration": 0.25,
          "durationTicks": 60,
          "midi": 64,
          "name": "E4",
          "ticks": 18660,
          "time": 77.75,
          "velocity": 0.9291338582677166
        },
        {
          "duration": 0.25,
          "durationTicks": 60,
          "midi": 61,
          "name": "C#4",
          "ticks": 18660,
          "time": 77.75,
          "velocity": 0.9291338582677166
        },
        {
          "duration": 0.025000000000005684,
          "durationTicks": 6,
          "midi": 61,
          "name": "C#4",
          "ticks": 18768,
          "time": 78.2,
          "velocity": 0.9291338582677166
        },
        {
          "duration": 0.025000000000005684,
          "durationTicks": 6,
          "midi": 64,
          "name": "E4",
          "ticks": 18768,
          "time": 78.2,
          "velocity": 0.9291338582677166
        },
        {
          "duration": 0.025000000000005684,
          "durationTicks": 6,
          "midi": 69,
          "name": "A4",
          "ticks": 18768,
          "time": 78.2,
          "velocity": 0.9291338582677166
        },
        {
          "duration": 0.024999999999991473,
          "durationTicks": 6,
          "midi": 61,
          "name": "C#4",
          "ticks": 18792,
          "time": 78.30000000000001,
          "velocity": 0.9291338582677166
        },
        {
          "duration": 0.024999999999991473,
          "durationTicks": 6,
          "midi": 64,
          "name": "E4",
          "ticks": 18792,
          "time": 78.30000000000001,
          "velocity": 0.9291338582677166
        },
        {
          "duration": 0.024999999999991473,
          "durationTicks": 6,
          "midi": 69,
          "name": "A4",
          "ticks": 18792,
          "time": 78.30000000000001,
          "velocity": 0.9291338582677166
        },
        {
          "duration": 0.3499999999999943,
          "durationTicks": 84,
          "midi": 68,
          "name": "G#4",
          "ticks": 18816,
          "time": 78.4,
          "velocity": 0.9291338582677166
        },
        {
          "duration": 0.375,
          "durationTicks": 90,
          "midi": 64,
          "name": "E4",
          "ticks": 18816,
          "time": 78.4,
          "velocity": 0.9291338582677166
        },
        {
          "duration": 0.375,
          "durationTicks": 90,
          "midi": 61,
          "name": "C#4",
          "ticks": 18816,
          "time": 78.4,
          "velocity": 0.9291338582677166
        },
        {
          "duration": 0.4000000000000057,
          "durationTicks": 96,
          "midi": 61,
          "name": "C#4",
          "ticks": 18960,
          "time": 79,
          "velocity": 0.9291338582677166
        },
        {
          "duration": 0.4000000000000057,
          "durationTicks": 96,
          "midi": 64,
          "name": "E4",
          "ticks": 18960,
          "time": 79,
          "velocity": 0.9291338582677166
        },
        {
          "duration": 0.4000000000000057,
          "durationTicks": 96,
          "midi": 68,
          "name": "G#4",
          "ticks": 18960,
          "time": 79,
          "velocity": 0.9291338582677166
        },
        {
          "duration": 0.20000000000000284,
          "durationTicks": 48,
          "midi": 61,
          "name": "C#4",
          "ticks": 19056,
          "time": 79.4,
          "velocity": 0.9291338582677166
        },
        {
          "duration": 0.20000000000000284,
          "durationTicks": 48,
          "midi": 64,
          "name": "E4",
          "ticks": 19056,
          "time": 79.4,
          "velocity": 0.9291338582677166
        },
        {
          "duration": 0.20000000000000284,
          "durationTicks": 48,
          "midi": 68,
          "name": "G#4",
          "ticks": 19056,
          "time": 79.4,
          "velocity": 0.9291338582677166
        },
        {
          "duration": 0.20000000000000284,
          "durationTicks": 48,
          "midi": 68,
          "name": "G#4",
          "ticks": 19104,
          "time": 79.60000000000001,
          "velocity": 0.9291338582677166
        },
        {
          "duration": 0.20000000000000284,
          "durationTicks": 48,
          "midi": 64,
          "name": "E4",
          "ticks": 19104,
          "time": 79.60000000000001,
          "velocity": 0.9291338582677166
        },
        {
          "duration": 0.20000000000000284,
          "durationTicks": 48,
          "midi": 61,
          "name": "C#4",
          "ticks": 19104,
          "time": 79.60000000000001,
          "velocity": 0.9291338582677166
        },
        {
          "duration": 0.025000000000005684,
          "durationTicks": 6,
          "midi": 61,
          "name": "C#4",
          "ticks": 19176,
          "time": 79.9,
          "velocity": 0.889763779527559
        },
        {
          "duration": 0.025000000000005684,
          "durationTicks": 6,
          "midi": 64,
          "name": "E4",
          "ticks": 19176,
          "time": 79.9,
          "velocity": 0.889763779527559
        },
        {
          "duration": 0.025000000000005684,
          "durationTicks": 6,
          "midi": 68,
          "name": "G#4",
          "ticks": 19176,
          "time": 79.9,
          "velocity": 0.889763779527559
        },
        {
          "duration": 0.20000000000000284,
          "durationTicks": 48,
          "midi": 50,
          "name": "D3",
          "ticks": 19200,
          "time": 80,
          "velocity": 0.952755905511811
        },
        {
          "duration": 0.20000000000000284,
          "durationTicks": 48,
          "midi": 57,
          "name": "A3",
          "ticks": 19200,
          "time": 80,
          "velocity": 0.952755905511811
        },
        {
          "duration": 0.20000000000000284,
          "durationTicks": 48,
          "midi": 50,
          "name": "D3",
          "ticks": 19248,
          "time": 80.2,
          "velocity": 0.952755905511811
        },
        {
          "duration": 0.20000000000000284,
          "durationTicks": 48,
          "midi": 57,
          "name": "A3",
          "ticks": 19248,
          "time": 80.2,
          "velocity": 0.952755905511811
        },
        {
          "duration": 0.025000000000005684,
          "durationTicks": 6,
          "midi": 50,
          "name": "D3",
          "ticks": 19320,
          "time": 80.5,
          "velocity": 0.952755905511811
        },
        {
          "duration": 0.025000000000005684,
          "durationTicks": 6,
          "midi": 59,
          "name": "B3",
          "ticks": 19320,
          "time": 80.5,
          "velocity": 0.952755905511811
        },
        {
          "duration": 0.024999999999991473,
          "durationTicks": 6,
          "midi": 59,
          "name": "B3",
          "ticks": 19344,
          "time": 80.60000000000001,
          "velocity": 0.952755905511811
        },
        {
          "duration": 0.024999999999991473,
          "durationTicks": 6,
          "midi": 50,
          "name": "D3",
          "ticks": 19344,
          "time": 80.60000000000001,
          "velocity": 0.952755905511811
        },
        {
          "duration": 0.025000000000005684,
          "durationTicks": 6,
          "midi": 59,
          "name": "B3",
          "ticks": 19368,
          "time": 80.7,
          "velocity": 0.952755905511811
        },
        {
          "duration": 0.025000000000005684,
          "durationTicks": 6,
          "midi": 50,
          "name": "D3",
          "ticks": 19368,
          "time": 80.7,
          "velocity": 0.952755905511811
        },
        {
          "duration": 0.19999999999998863,
          "durationTicks": 48,
          "midi": 59,
          "name": "B3",
          "ticks": 19392,
          "time": 80.80000000000001,
          "velocity": 0.952755905511811
        },
        {
          "duration": 0.19999999999998863,
          "durationTicks": 48,
          "midi": 52,
          "name": "E3",
          "ticks": 19392,
          "time": 80.80000000000001,
          "velocity": 0.952755905511811
        },
        {
          "duration": 0.20000000000000284,
          "durationTicks": 48,
          "midi": 52,
          "name": "E3",
          "ticks": 19440,
          "time": 81,
          "velocity": 0.952755905511811
        },
        {
          "duration": 0.20000000000000284,
          "durationTicks": 48,
          "midi": 59,
          "name": "B3",
          "ticks": 19440,
          "time": 81,
          "velocity": 0.952755905511811
        },
        {
          "duration": 0.024999999999991473,
          "durationTicks": 6,
          "midi": 50,
          "name": "D3",
          "ticks": 19512,
          "time": 81.30000000000001,
          "velocity": 0.952755905511811
        },
        {
          "duration": 0.024999999999991473,
          "durationTicks": 6,
          "midi": 59,
          "name": "B3",
          "ticks": 19512,
          "time": 81.30000000000001,
          "velocity": 0.952755905511811
        },
        {
          "duration": 0.025000000000005684,
          "durationTicks": 6,
          "midi": 59,
          "name": "B3",
          "ticks": 19536,
          "time": 81.4,
          "velocity": 0.952755905511811
        },
        {
          "duration": 0.025000000000005684,
          "durationTicks": 6,
          "midi": 50,
          "name": "D3",
          "ticks": 19536,
          "time": 81.4,
          "velocity": 0.952755905511811
        },
        {
          "duration": 0.025000000000005684,
          "durationTicks": 6,
          "midi": 50,
          "name": "D3",
          "ticks": 19560,
          "time": 81.5,
          "velocity": 0.952755905511811
        },
        {
          "duration": 0.025000000000005684,
          "durationTicks": 6,
          "midi": 59,
          "name": "B3",
          "ticks": 19560,
          "time": 81.5,
          "velocity": 0.952755905511811
        },
        {
          "duration": 0.20000000000000284,
          "durationTicks": 48,
          "midi": 52,
          "name": "E3",
          "ticks": 19584,
          "time": 81.60000000000001,
          "velocity": 0.952755905511811
        },
        {
          "duration": 0.20000000000000284,
          "durationTicks": 48,
          "midi": 57,
          "name": "A3",
          "ticks": 19584,
          "time": 81.60000000000001,
          "velocity": 0.952755905511811
        },
        {
          "duration": 0.19999999999998863,
          "durationTicks": 48,
          "midi": 57,
          "name": "A3",
          "ticks": 19632,
          "time": 81.80000000000001,
          "velocity": 0.952755905511811
        },
        {
          "duration": 0.19999999999998863,
          "durationTicks": 48,
          "midi": 52,
          "name": "E3",
          "ticks": 19632,
          "time": 81.80000000000001,
          "velocity": 0.952755905511811
        },
        {
          "duration": 0.025000000000005684,
          "durationTicks": 6,
          "midi": 52,
          "name": "E3",
          "ticks": 19698,
          "time": 82.075,
          "velocity": 0.952755905511811
        },
        {
          "duration": 0.024999999999991473,
          "durationTicks": 6,
          "midi": 56,
          "name": "G#3",
          "ticks": 19704,
          "time": 82.10000000000001,
          "velocity": 0.952755905511811
        },
        {
          "duration": 0.4000000000000057,
          "durationTicks": 96,
          "midi": 54,
          "name": "F#3",
          "ticks": 19728,
          "time": 82.2,
          "velocity": 0.952755905511811
        },
        {
          "duration": 0.4000000000000057,
          "durationTicks": 96,
          "midi": 49,
          "name": "C#3",
          "ticks": 19728,
          "time": 82.2,
          "velocity": 0.952755905511811
        },
        {
          "duration": 0.20000000000000284,
          "durationTicks": 48,
          "midi": 54,
          "name": "F#3",
          "ticks": 19824,
          "time": 82.60000000000001,
          "velocity": 0.952755905511811
        },
        {
          "duration": 0.20000000000000284,
          "durationTicks": 48,
          "midi": 49,
          "name": "C#3",
          "ticks": 19824,
          "time": 82.60000000000001,
          "velocity": 0.952755905511811
        },
        {
          "duration": 0.19999999999998863,
          "durationTicks": 48,
          "midi": 54,
          "name": "F#3",
          "ticks": 19872,
          "time": 82.80000000000001,
          "velocity": 0.952755905511811
        },
        {
          "duration": 0.19999999999998863,
          "durationTicks": 48,
          "midi": 49,
          "name": "C#3",
          "ticks": 19872,
          "time": 82.80000000000001,
          "velocity": 0.952755905511811
        },
        {
          "duration": 0.20000000000000284,
          "durationTicks": 48,
          "midi": 57,
          "name": "A3",
          "ticks": 19968,
          "time": 83.2,
          "velocity": 0.952755905511811
        },
        {
          "duration": 0.20000000000000284,
          "durationTicks": 48,
          "midi": 54,
          "name": "F#3",
          "ticks": 19968,
          "time": 83.2,
          "velocity": 0.952755905511811
        },
        {
          "duration": 0.20000000000000284,
          "durationTicks": 48,
          "midi": 54,
          "name": "F#3",
          "ticks": 20016,
          "time": 83.4,
          "velocity": 0.952755905511811
        },
        {
          "duration": 0.20000000000000284,
          "durationTicks": 48,
          "midi": 57,
          "name": "A3",
          "ticks": 20016,
          "time": 83.4,
          "velocity": 0.952755905511811
        },
        {
          "duration": 0.09999999999999432,
          "durationTicks": 24,
          "midi": 57,
          "name": "A3",
          "ticks": 20064,
          "time": 83.60000000000001,
          "velocity": 0.952755905511811
        },
        {
          "duration": 0.09999999999999432,
          "durationTicks": 24,
          "midi": 50,
          "name": "D3",
          "ticks": 20064,
          "time": 83.60000000000001,
          "velocity": 0.952755905511811
        },
        {
          "duration": 0.09999999999999432,
          "durationTicks": 24,
          "midi": 57,
          "name": "A3",
          "ticks": 20112,
          "time": 83.80000000000001,
          "velocity": 0.952755905511811
        },
        {
          "duration": 0.09999999999999432,
          "durationTicks": 24,
          "midi": 50,
          "name": "D3",
          "ticks": 20112,
          "time": 83.80000000000001,
          "velocity": 0.952755905511811
        },
        {
          "duration": 0.10000000000000853,
          "durationTicks": 24,
          "midi": 50,
          "name": "D3",
          "ticks": 20160,
          "time": 84,
          "velocity": 0.952755905511811
        },
        {
          "duration": 0.10000000000000853,
          "durationTicks": 24,
          "midi": 57,
          "name": "A3",
          "ticks": 20160,
          "time": 84,
          "velocity": 0.952755905511811
        },
        {
          "duration": 0.10000000000000853,
          "durationTicks": 24,
          "midi": 50,
          "name": "D3",
          "ticks": 20208,
          "time": 84.2,
          "velocity": 0.952755905511811
        },
        {
          "duration": 0.10000000000000853,
          "durationTicks": 24,
          "midi": 57,
          "name": "A3",
          "ticks": 20208,
          "time": 84.2,
          "velocity": 0.952755905511811
        },
        {
          "duration": 0.2750000000000057,
          "durationTicks": 66,
          "midi": 57,
          "name": "A3",
          "ticks": 20256,
          "time": 84.4,
          "velocity": 0.952755905511811
        },
        {
          "duration": 0.2750000000000057,
          "durationTicks": 66,
          "midi": 50,
          "name": "D3",
          "ticks": 20256,
          "time": 84.4,
          "velocity": 0.952755905511811
        },
        {
          "duration": 0.17499999999999716,
          "durationTicks": 42,
          "midi": 52,
          "name": "E3",
          "ticks": 20352,
          "time": 84.80000000000001,
          "velocity": 0.952755905511811
        },
        {
          "duration": 0.17499999999999716,
          "durationTicks": 42,
          "midi": 59,
          "name": "B3",
          "ticks": 20352,
          "time": 84.80000000000001,
          "velocity": 0.952755905511811
        },
        {
          "duration": 0.17500000000001137,
          "durationTicks": 42,
          "midi": 59,
          "name": "B3",
          "ticks": 20400,
          "time": 85,
          "velocity": 0.952755905511811
        },
        {
          "duration": 0.17500000000001137,
          "durationTicks": 42,
          "midi": 52,
          "name": "E3",
          "ticks": 20400,
          "time": 85,
          "velocity": 0.952755905511811
        },
        {
          "duration": 0.5,
          "durationTicks": 120,
          "midi": 54,
          "name": "F#3",
          "ticks": 20496,
          "time": 85.4,
          "velocity": 0.952755905511811
        },
        {
          "duration": 0.5,
          "durationTicks": 120,
          "midi": 66,
          "name": "F#4",
          "ticks": 20496,
          "time": 85.4,
          "velocity": 0.952755905511811
        },
        {
          "duration": 0.20000000000000284,
          "durationTicks": 48,
          "midi": 68,
          "name": "G#4",
          "ticks": 20640,
          "time": 86,
          "velocity": 0.952755905511811
        },
        {
          "duration": 0.20000000000000284,
          "durationTicks": 48,
          "midi": 56,
          "name": "G#3",
          "ticks": 20640,
          "time": 86,
          "velocity": 0.952755905511811
        },
        {
          "duration": 0.29999999999999716,
          "durationTicks": 72,
          "midi": 69,
          "name": "A4",
          "ticks": 20736,
          "time": 86.4,
          "velocity": 0.9291338582677166
        },
        {
          "duration": 0.22499999999999432,
          "durationTicks": 54,
          "midi": 64,
          "name": "E4",
          "ticks": 20736,
          "time": 86.4,
          "velocity": 0.9291338582677166
        },
        {
          "duration": 0.29999999999999716,
          "durationTicks": 72,
          "midi": 61,
          "name": "C#4",
          "ticks": 20736,
          "time": 86.4,
          "velocity": 0.9291338582677166
        },
        {
          "duration": 0.29999999999999716,
          "durationTicks": 72,
          "midi": 64,
          "name": "E4",
          "ticks": 20736,
          "time": 86.4,
          "velocity": 0.952755905511811
        },
        {
          "duration": 0.10000000000000853,
          "durationTicks": 24,
          "midi": 61,
          "name": "C#4",
          "ticks": 20808,
          "time": 86.7,
          "velocity": 0.9291338582677166
        },
        {
          "duration": 0.10000000000000853,
          "durationTicks": 24,
          "midi": 64,
          "name": "E4",
          "ticks": 20808,
          "time": 86.7,
          "velocity": 0.9291338582677166
        },
        {
          "duration": 0.10000000000000853,
          "durationTicks": 24,
          "midi": 69,
          "name": "A4",
          "ticks": 20808,
          "time": 86.7,
          "velocity": 0.9291338582677166
        },
        {
          "duration": 0.025000000000005684,
          "durationTicks": 6,
          "midi": 69,
          "name": "A4",
          "ticks": 20916,
          "time": 87.15,
          "velocity": 0.9291338582677166
        },
        {
          "duration": 0.025000000000005684,
          "durationTicks": 6,
          "midi": 61,
          "name": "C#4",
          "ticks": 20916,
          "time": 87.15,
          "velocity": 0.9291338582677166
        },
        {
          "duration": 0.025000000000005684,
          "durationTicks": 6,
          "midi": 64,
          "name": "E4",
          "ticks": 20916,
          "time": 87.15,
          "velocity": 0.9291338582677166
        },
        {
          "duration": 0.025000000000005684,
          "durationTicks": 6,
          "midi": 61,
          "name": "C#4",
          "ticks": 20940,
          "time": 87.25,
          "velocity": 0.9291338582677166
        },
        {
          "duration": 0.025000000000005684,
          "durationTicks": 6,
          "midi": 64,
          "name": "E4",
          "ticks": 20940,
          "time": 87.25,
          "velocity": 0.9291338582677166
        },
        {
          "duration": 0.025000000000005684,
          "durationTicks": 6,
          "midi": 69,
          "name": "A4",
          "ticks": 20940,
          "time": 87.25,
          "velocity": 0.9291338582677166
        },
        {
          "duration": 0.25,
          "durationTicks": 60,
          "midi": 69,
          "name": "A4",
          "ticks": 20964,
          "time": 87.35000000000001,
          "velocity": 0.9291338582677166
        },
        {
          "duration": 0.25,
          "durationTicks": 60,
          "midi": 64,
          "name": "E4",
          "ticks": 20964,
          "time": 87.35000000000001,
          "velocity": 0.9291338582677166
        },
        {
          "duration": 0.25,
          "durationTicks": 60,
          "midi": 61,
          "name": "C#4",
          "ticks": 20964,
          "time": 87.35000000000001,
          "velocity": 0.9291338582677166
        },
        {
          "duration": 0.024999999999991473,
          "durationTicks": 6,
          "midi": 69,
          "name": "A4",
          "ticks": 21072,
          "time": 87.80000000000001,
          "velocity": 0.9291338582677166
        },
        {
          "duration": 0.024999999999991473,
          "durationTicks": 6,
          "midi": 64,
          "name": "E4",
          "ticks": 21072,
          "time": 87.80000000000001,
          "velocity": 0.9291338582677166
        },
        {
          "duration": 0.024999999999991473,
          "durationTicks": 6,
          "midi": 61,
          "name": "C#4",
          "ticks": 21072,
          "time": 87.80000000000001,
          "velocity": 0.9291338582677166
        },
        {
          "duration": 0.025000000000005684,
          "durationTicks": 6,
          "midi": 69,
          "name": "A4",
          "ticks": 21096,
          "time": 87.9,
          "velocity": 0.9291338582677166
        },
        {
          "duration": 0.025000000000005684,
          "durationTicks": 6,
          "midi": 64,
          "name": "E4",
          "ticks": 21096,
          "time": 87.9,
          "velocity": 0.9291338582677166
        },
        {
          "duration": 0.025000000000005684,
          "durationTicks": 6,
          "midi": 61,
          "name": "C#4",
          "ticks": 21096,
          "time": 87.9,
          "velocity": 0.9291338582677166
        },
        {
          "duration": 0.375,
          "durationTicks": 90,
          "midi": 61,
          "name": "C#4",
          "ticks": 21120,
          "time": 88,
          "velocity": 0.9291338582677166
        },
        {
          "duration": 0.375,
          "durationTicks": 90,
          "midi": 64,
          "name": "E4",
          "ticks": 21120,
          "time": 88,
          "velocity": 0.9291338582677166
        },
        {
          "duration": 0.3500000000000085,
          "durationTicks": 84,
          "midi": 68,
          "name": "G#4",
          "ticks": 21120,
          "time": 88,
          "velocity": 0.9291338582677166
        },
        {
          "duration": 0.3999999999999915,
          "durationTicks": 96,
          "midi": 68,
          "name": "G#4",
          "ticks": 21264,
          "time": 88.60000000000001,
          "velocity": 0.9291338582677166
        },
        {
          "duration": 0.3999999999999915,
          "durationTicks": 96,
          "midi": 64,
          "name": "E4",
          "ticks": 21264,
          "time": 88.60000000000001,
          "velocity": 0.9291338582677166
        },
        {
          "duration": 0.3999999999999915,
          "durationTicks": 96,
          "midi": 61,
          "name": "C#4",
          "ticks": 21264,
          "time": 88.60000000000001,
          "velocity": 0.9291338582677166
        },
        {
          "duration": 0.20000000000000284,
          "durationTicks": 48,
          "midi": 68,
          "name": "G#4",
          "ticks": 21360,
          "time": 89,
          "velocity": 0.9291338582677166
        },
        {
          "duration": 0.20000000000000284,
          "durationTicks": 48,
          "midi": 64,
          "name": "E4",
          "ticks": 21360,
          "time": 89,
          "velocity": 0.9291338582677166
        },
        {
          "duration": 0.20000000000000284,
          "durationTicks": 48,
          "midi": 61,
          "name": "C#4",
          "ticks": 21360,
          "time": 89,
          "velocity": 0.9291338582677166
        },
        {
          "duration": 0.20000000000000284,
          "durationTicks": 48,
          "midi": 68,
          "name": "G#4",
          "ticks": 21408,
          "time": 89.2,
          "velocity": 0.9291338582677166
        },
        {
          "duration": 0.20000000000000284,
          "durationTicks": 48,
          "midi": 64,
          "name": "E4",
          "ticks": 21408,
          "time": 89.2,
          "velocity": 0.9291338582677166
        },
        {
          "duration": 0.20000000000000284,
          "durationTicks": 48,
          "midi": 61,
          "name": "C#4",
          "ticks": 21408,
          "time": 89.2,
          "velocity": 0.9291338582677166
        },
        {
          "duration": 0.29999999999999716,
          "durationTicks": 72,
          "midi": 69,
          "name": "A4",
          "ticks": 21504,
          "time": 89.60000000000001,
          "velocity": 0.9291338582677166
        },
        {
          "duration": 0.29999999999999716,
          "durationTicks": 72,
          "midi": 64,
          "name": "E4",
          "ticks": 21504,
          "time": 89.60000000000001,
          "velocity": 0.9291338582677166
        },
        {
          "duration": 0.29999999999999716,
          "durationTicks": 72,
          "midi": 61,
          "name": "C#4",
          "ticks": 21504,
          "time": 89.60000000000001,
          "velocity": 0.9291338582677166
        },
        {
          "duration": 0.09999999999999432,
          "durationTicks": 24,
          "midi": 69,
          "name": "A4",
          "ticks": 21576,
          "time": 89.9,
          "velocity": 0.9291338582677166
        },
        {
          "duration": 0.09999999999999432,
          "durationTicks": 24,
          "midi": 64,
          "name": "E4",
          "ticks": 21576,
          "time": 89.9,
          "velocity": 0.9291338582677166
        },
        {
          "duration": 0.09999999999999432,
          "durationTicks": 24,
          "midi": 61,
          "name": "C#4",
          "ticks": 21576,
          "time": 89.9,
          "velocity": 0.9291338582677166
        },
        {
          "duration": 0.024999999999991473,
          "durationTicks": 6,
          "midi": 64,
          "name": "E4",
          "ticks": 21684,
          "time": 90.35000000000001,
          "velocity": 0.9291338582677166
        },
        {
          "duration": 0.024999999999991473,
          "durationTicks": 6,
          "midi": 61,
          "name": "C#4",
          "ticks": 21684,
          "time": 90.35000000000001,
          "velocity": 0.9291338582677166
        },
        {
          "duration": 0.024999999999991473,
          "durationTicks": 6,
          "midi": 69,
          "name": "A4",
          "ticks": 21684,
          "time": 90.35000000000001,
          "velocity": 0.9291338582677166
        },
        {
          "duration": 0.025000000000005684,
          "durationTicks": 6,
          "midi": 69,
          "name": "A4",
          "ticks": 21708,
          "time": 90.45,
          "velocity": 0.9291338582677166
        },
        {
          "duration": 0.025000000000005684,
          "durationTicks": 6,
          "midi": 64,
          "name": "E4",
          "ticks": 21708,
          "time": 90.45,
          "velocity": 0.9291338582677166
        },
        {
          "duration": 0.025000000000005684,
          "durationTicks": 6,
          "midi": 61,
          "name": "C#4",
          "ticks": 21708,
          "time": 90.45,
          "velocity": 0.9291338582677166
        },
        {
          "duration": 0.25,
          "durationTicks": 60,
          "midi": 69,
          "name": "A4",
          "ticks": 21732,
          "time": 90.55000000000001,
          "velocity": 0.9291338582677166
        },
        {
          "duration": 0.25,
          "durationTicks": 60,
          "midi": 64,
          "name": "E4",
          "ticks": 21732,
          "time": 90.55000000000001,
          "velocity": 0.9291338582677166
        },
        {
          "duration": 0.25,
          "durationTicks": 60,
          "midi": 61,
          "name": "C#4",
          "ticks": 21732,
          "time": 90.55000000000001,
          "velocity": 0.9291338582677166
        },
        {
          "duration": 0.025000000000005684,
          "durationTicks": 6,
          "midi": 69,
          "name": "A4",
          "ticks": 21840,
          "time": 91,
          "velocity": 0.9291338582677166
        },
        {
          "duration": 0.025000000000005684,
          "durationTicks": 6,
          "midi": 64,
          "name": "E4",
          "ticks": 21840,
          "time": 91,
          "velocity": 0.9291338582677166
        },
        {
          "duration": 0.025000000000005684,
          "durationTicks": 6,
          "midi": 61,
          "name": "C#4",
          "ticks": 21840,
          "time": 91,
          "velocity": 0.9291338582677166
        },
        {
          "duration": 0.024999999999991473,
          "durationTicks": 6,
          "midi": 69,
          "name": "A4",
          "ticks": 21864,
          "time": 91.10000000000001,
          "velocity": 0.9291338582677166
        },
        {
          "duration": 0.024999999999991473,
          "durationTicks": 6,
          "midi": 64,
          "name": "E4",
          "ticks": 21864,
          "time": 91.10000000000001,
          "velocity": 0.9291338582677166
        },
        {
          "duration": 0.024999999999991473,
          "durationTicks": 6,
          "midi": 61,
          "name": "C#4",
          "ticks": 21864,
          "time": 91.10000000000001,
          "velocity": 0.9291338582677166
        },
        {
          "duration": 0.3500000000000085,
          "durationTicks": 84,
          "midi": 68,
          "name": "G#4",
          "ticks": 21888,
          "time": 91.2,
          "velocity": 0.9291338582677166
        },
        {
          "duration": 0.375,
          "durationTicks": 90,
          "midi": 64,
          "name": "E4",
          "ticks": 21888,
          "time": 91.2,
          "velocity": 0.9291338582677166
        },
        {
          "duration": 0.375,
          "durationTicks": 90,
          "midi": 61,
          "name": "C#4",
          "ticks": 21888,
          "time": 91.2,
          "velocity": 0.9291338582677166
        },
        {
          "duration": 0.3999999999999915,
          "durationTicks": 96,
          "midi": 61,
          "name": "C#4",
          "ticks": 22032,
          "time": 91.80000000000001,
          "velocity": 0.9291338582677166
        },
        {
          "duration": 0.3999999999999915,
          "durationTicks": 96,
          "midi": 64,
          "name": "E4",
          "ticks": 22032,
          "time": 91.80000000000001,
          "velocity": 0.9291338582677166
        },
        {
          "duration": 0.3999999999999915,
          "durationTicks": 96,
          "midi": 68,
          "name": "G#4",
          "ticks": 22032,
          "time": 91.80000000000001,
          "velocity": 0.9291338582677166
        },
        {
          "duration": 0.20000000000000284,
          "durationTicks": 48,
          "midi": 68,
          "name": "G#4",
          "ticks": 22128,
          "time": 92.2,
          "velocity": 0.9291338582677166
        },
        {
          "duration": 0.20000000000000284,
          "durationTicks": 48,
          "midi": 64,
          "name": "E4",
          "ticks": 22128,
          "time": 92.2,
          "velocity": 0.9291338582677166
        },
        {
          "duration": 0.20000000000000284,
          "durationTicks": 48,
          "midi": 61,
          "name": "C#4",
          "ticks": 22128,
          "time": 92.2,
          "velocity": 0.9291338582677166
        },
        {
          "duration": 0.20000000000000284,
          "durationTicks": 48,
          "midi": 68,
          "name": "G#4",
          "ticks": 22176,
          "time": 92.4,
          "velocity": 0.9291338582677166
        },
        {
          "duration": 0.20000000000000284,
          "durationTicks": 48,
          "midi": 64,
          "name": "E4",
          "ticks": 22176,
          "time": 92.4,
          "velocity": 0.9291338582677166
        },
        {
          "duration": 0.20000000000000284,
          "durationTicks": 48,
          "midi": 61,
          "name": "C#4",
          "ticks": 22176,
          "time": 92.4,
          "velocity": 0.9291338582677166
        },
        {
          "duration": 0.025000000000005684,
          "durationTicks": 6,
          "midi": 61,
          "name": "C#4",
          "ticks": 22248,
          "time": 92.7,
          "velocity": 0.889763779527559
        },
        {
          "duration": 0.025000000000005684,
          "durationTicks": 6,
          "midi": 64,
          "name": "E4",
          "ticks": 22248,
          "time": 92.7,
          "velocity": 0.889763779527559
        },
        {
          "duration": 0.025000000000005684,
          "durationTicks": 6,
          "midi": 68,
          "name": "G#4",
          "ticks": 22248,
          "time": 92.7,
          "velocity": 0.889763779527559
        },
        {
          "duration": 0.19999999999998863,
          "durationTicks": 48,
          "midi": 57,
          "name": "A3",
          "ticks": 22272,
          "time": 92.80000000000001,
          "velocity": 0.952755905511811
        },
        {
          "duration": 0.19999999999998863,
          "durationTicks": 48,
          "midi": 50,
          "name": "D3",
          "ticks": 22272,
          "time": 92.80000000000001,
          "velocity": 0.952755905511811
        },
        {
          "duration": 0.20000000000000284,
          "durationTicks": 48,
          "midi": 57,
          "name": "A3",
          "ticks": 22320,
          "time": 93,
          "velocity": 0.952755905511811
        },
        {
          "duration": 0.20000000000000284,
          "durationTicks": 48,
          "midi": 50,
          "name": "D3",
          "ticks": 22320,
          "time": 93,
          "velocity": 0.952755905511811
        },
        {
          "duration": 0.024999999999991473,
          "durationTicks": 6,
          "midi": 50,
          "name": "D3",
          "ticks": 22392,
          "time": 93.30000000000001,
          "velocity": 0.952755905511811
        },
        {
          "duration": 0.024999999999991473,
          "durationTicks": 6,
          "midi": 59,
          "name": "B3",
          "ticks": 22392,
          "time": 93.30000000000001,
          "velocity": 0.952755905511811
        },
        {
          "duration": 0.025000000000005684,
          "durationTicks": 6,
          "midi": 59,
          "name": "B3",
          "ticks": 22416,
          "time": 93.4,
          "velocity": 0.952755905511811
        },
        {
          "duration": 0.025000000000005684,
          "durationTicks": 6,
          "midi": 50,
          "name": "D3",
          "ticks": 22416,
          "time": 93.4,
          "velocity": 0.952755905511811
        },
        {
          "duration": 0.025000000000005684,
          "durationTicks": 6,
          "midi": 50,
          "name": "D3",
          "ticks": 22440,
          "time": 93.5,
          "velocity": 0.952755905511811
        },
        {
          "duration": 0.025000000000005684,
          "durationTicks": 6,
          "midi": 59,
          "name": "B3",
          "ticks": 22440,
          "time": 93.5,
          "velocity": 0.952755905511811
        },
        {
          "duration": 0.20000000000000284,
          "durationTicks": 48,
          "midi": 59,
          "name": "B3",
          "ticks": 22464,
          "time": 93.60000000000001,
          "velocity": 0.952755905511811
        },
        {
          "duration": 0.20000000000000284,
          "durationTicks": 48,
          "midi": 52,
          "name": "E3",
          "ticks": 22464,
          "time": 93.60000000000001,
          "velocity": 0.952755905511811
        },
        {
          "duration": 0.19999999999998863,
          "durationTicks": 48,
          "midi": 52,
          "name": "E3",
          "ticks": 22512,
          "time": 93.80000000000001,
          "velocity": 0.952755905511811
        },
        {
          "duration": 0.19999999999998863,
          "durationTicks": 48,
          "midi": 59,
          "name": "B3",
          "ticks": 22512,
          "time": 93.80000000000001,
          "velocity": 0.952755905511811
        },
        {
          "duration": 0.024999999999991473,
          "durationTicks": 6,
          "midi": 59,
          "name": "B3",
          "ticks": 22584,
          "time": 94.10000000000001,
          "velocity": 0.952755905511811
        },
        {
          "duration": 0.024999999999991473,
          "durationTicks": 6,
          "midi": 50,
          "name": "D3",
          "ticks": 22584,
          "time": 94.10000000000001,
          "velocity": 0.952755905511811
        },
        {
          "duration": 0.025000000000005684,
          "durationTicks": 6,
          "midi": 50,
          "name": "D3",
          "ticks": 22608,
          "time": 94.2,
          "velocity": 0.952755905511811
        },
        {
          "duration": 0.025000000000005684,
          "durationTicks": 6,
          "midi": 59,
          "name": "B3",
          "ticks": 22608,
          "time": 94.2,
          "velocity": 0.952755905511811
        },
        {
          "duration": 0.024999999999991473,
          "durationTicks": 6,
          "midi": 59,
          "name": "B3",
          "ticks": 22632,
          "time": 94.30000000000001,
          "velocity": 0.952755905511811
        },
        {
          "duration": 0.024999999999991473,
          "durationTicks": 6,
          "midi": 50,
          "name": "D3",
          "ticks": 22632,
          "time": 94.30000000000001,
          "velocity": 0.952755905511811
        },
        {
          "duration": 0.20000000000000284,
          "durationTicks": 48,
          "midi": 52,
          "name": "E3",
          "ticks": 22656,
          "time": 94.4,
          "velocity": 0.952755905511811
        },
        {
          "duration": 0.20000000000000284,
          "durationTicks": 48,
          "midi": 57,
          "name": "A3",
          "ticks": 22656,
          "time": 94.4,
          "velocity": 0.952755905511811
        },
        {
          "duration": 0.20000000000000284,
          "durationTicks": 48,
          "midi": 57,
          "name": "A3",
          "ticks": 22704,
          "time": 94.60000000000001,
          "velocity": 0.952755905511811
        },
        {
          "duration": 0.20000000000000284,
          "durationTicks": 48,
          "midi": 52,
          "name": "E3",
          "ticks": 22704,
          "time": 94.60000000000001,
          "velocity": 0.952755905511811
        },
        {
          "duration": 0.025000000000005684,
          "durationTicks": 6,
          "midi": 52,
          "name": "E3",
          "ticks": 22770,
          "time": 94.875,
          "velocity": 0.952755905511811
        },
        {
          "duration": 0.025000000000005684,
          "durationTicks": 6,
          "midi": 56,
          "name": "G#3",
          "ticks": 22776,
          "time": 94.9,
          "velocity": 0.952755905511811
        },
        {
          "duration": 0.4000000000000057,
          "durationTicks": 96,
          "midi": 54,
          "name": "F#3",
          "ticks": 22800,
          "time": 95,
          "velocity": 0.952755905511811
        },
        {
          "duration": 0.4000000000000057,
          "durationTicks": 96,
          "midi": 49,
          "name": "C#3",
          "ticks": 22800,
          "time": 95,
          "velocity": 0.952755905511811
        },
        {
          "duration": 0.20000000000000284,
          "durationTicks": 48,
          "midi": 49,
          "name": "C#3",
          "ticks": 22896,
          "time": 95.4,
          "velocity": 0.952755905511811
        },
        {
          "duration": 0.20000000000000284,
          "durationTicks": 48,
          "midi": 54,
          "name": "F#3",
          "ticks": 22896,
          "time": 95.4,
          "velocity": 0.952755905511811
        },
        {
          "duration": 0.20000000000000284,
          "durationTicks": 48,
          "midi": 49,
          "name": "C#3",
          "ticks": 22944,
          "time": 95.60000000000001,
          "velocity": 0.952755905511811
        },
        {
          "duration": 0.20000000000000284,
          "durationTicks": 48,
          "midi": 54,
          "name": "F#3",
          "ticks": 22944,
          "time": 95.60000000000001,
          "velocity": 0.952755905511811
        },
        {
          "duration": 0.20000000000000284,
          "durationTicks": 48,
          "midi": 57,
          "name": "A3",
          "ticks": 23040,
          "time": 96,
          "velocity": 0.952755905511811
        },
        {
          "duration": 0.20000000000000284,
          "durationTicks": 48,
          "midi": 54,
          "name": "F#3",
          "ticks": 23040,
          "time": 96,
          "velocity": 0.952755905511811
        },
        {
          "duration": 0.20000000000000284,
          "durationTicks": 48,
          "midi": 57,
          "name": "A3",
          "ticks": 23088,
          "time": 96.2,
          "velocity": 0.952755905511811
        },
        {
          "duration": 0.20000000000000284,
          "durationTicks": 48,
          "midi": 54,
          "name": "F#3",
          "ticks": 23088,
          "time": 96.2,
          "velocity": 0.952755905511811
        },
        {
          "duration": 0.09999999999999432,
          "durationTicks": 24,
          "midi": 57,
          "name": "A3",
          "ticks": 23136,
          "time": 96.4,
          "velocity": 0.952755905511811
        },
        {
          "duration": 0.09999999999999432,
          "durationTicks": 24,
          "midi": 50,
          "name": "D3",
          "ticks": 23136,
          "time": 96.4,
          "velocity": 0.952755905511811
        },
        {
          "duration": 0.09999999999999432,
          "durationTicks": 24,
          "midi": 50,
          "name": "D3",
          "ticks": 23184,
          "time": 96.60000000000001,
          "velocity": 0.952755905511811
        },
        {
          "duration": 0.09999999999999432,
          "durationTicks": 24,
          "midi": 57,
          "name": "A3",
          "ticks": 23184,
          "time": 96.60000000000001,
          "velocity": 0.952755905511811
        },
        {
          "duration": 0.09999999999999432,
          "durationTicks": 24,
          "midi": 50,
          "name": "D3",
          "ticks": 23232,
          "time": 96.80000000000001,
          "velocity": 0.952755905511811
        },
        {
          "duration": 0.09999999999999432,
          "durationTicks": 24,
          "midi": 57,
          "name": "A3",
          "ticks": 23232,
          "time": 96.80000000000001,
          "velocity": 0.952755905511811
        },
        {
          "duration": 0.17500000000001137,
          "durationTicks": 42,
          "midi": 57,
          "name": "A3",
          "ticks": 23280,
          "time": 97,
          "velocity": 0.952755905511811
        },
        {
          "duration": 0.17500000000001137,
          "durationTicks": 42,
          "midi": 50,
          "name": "D3",
          "ticks": 23280,
          "time": 97,
          "velocity": 0.952755905511811
        },
        {
          "duration": 0.17499999999999716,
          "durationTicks": 42,
          "midi": 52,
          "name": "E3",
          "ticks": 23376,
          "time": 97.4,
          "velocity": 0.952755905511811
        },
        {
          "duration": 0.17499999999999716,
          "durationTicks": 42,
          "midi": 59,
          "name": "B3",
          "ticks": 23376,
          "time": 97.4,
          "velocity": 0.952755905511811
        },
        {
          "duration": 0.17499999999999716,
          "durationTicks": 42,
          "midi": 59,
          "name": "B3",
          "ticks": 23472,
          "time": 97.80000000000001,
          "velocity": 0.952755905511811
        },
        {
          "duration": 0.17499999999999716,
          "durationTicks": 42,
          "midi": 52,
          "name": "E3",
          "ticks": 23472,
          "time": 97.80000000000001,
          "velocity": 0.952755905511811
        },
        {
          "duration": 0.07500000000000284,
          "durationTicks": 18,
          "midi": 52,
          "name": "E3",
          "ticks": 23520,
          "time": 98,
          "velocity": 0.952755905511811
        },
        {
          "duration": 0.07500000000000284,
          "durationTicks": 18,
          "midi": 59,
          "name": "B3",
          "ticks": 23520,
          "time": 98,
          "velocity": 0.952755905511811
        },
        {
          "duration": 0.07500000000000284,
          "durationTicks": 18,
          "midi": 52,
          "name": "E3",
          "ticks": 23568,
          "time": 98.2,
          "velocity": 0.952755905511811
        },
        {
          "duration": 0.07500000000000284,
          "durationTicks": 18,
          "midi": 59,
          "name": "B3",
          "ticks": 23568,
          "time": 98.2,
          "velocity": 0.952755905511811
        },
        {
          "duration": 0.17499999999999716,
          "durationTicks": 42,
          "midi": 52,
          "name": "E3",
          "ticks": 23616,
          "time": 98.4,
          "velocity": 0.952755905511811
        },
        {
          "duration": 0.17499999999999716,
          "durationTicks": 42,
          "midi": 59,
          "name": "B3",
          "ticks": 23616,
          "time": 98.4,
          "velocity": 0.952755905511811
        },
        {
          "duration": 0.17499999999999716,
          "durationTicks": 42,
          "midi": 59,
          "name": "B3",
          "ticks": 23712,
          "time": 98.80000000000001,
          "velocity": 0.952755905511811
        },
        {
          "duration": 0.17499999999999716,
          "durationTicks": 42,
          "midi": 52,
          "name": "E3",
          "ticks": 23712,
          "time": 98.80000000000001,
          "velocity": 0.952755905511811
        },
        {
          "duration": 0.17499999999999716,
          "durationTicks": 42,
          "midi": 57,
          "name": "A3",
          "ticks": 23808,
          "time": 99.2,
          "velocity": 0.952755905511811
        },
        {
          "duration": 0.17499999999999716,
          "durationTicks": 42,
          "midi": 52,
          "name": "E3",
          "ticks": 23856,
          "time": 99.4,
          "velocity": 0.952755905511811
        },
        {
          "duration": 0.17499999999999716,
          "durationTicks": 42,
          "midi": 57,
          "name": "A3",
          "ticks": 23904,
          "time": 99.60000000000001,
          "velocity": 0.952755905511811
        },
        {
          "duration": 0.375,
          "durationTicks": 90,
          "midi": 56,
          "name": "G#3",
          "ticks": 23952,
          "time": 99.80000000000001,
          "velocity": 0.952755905511811
        },
        {
          "duration": 0.17499999999999716,
          "durationTicks": 42,
          "midi": 52,
          "name": "E3",
          "ticks": 24048,
          "time": 100.2,
          "velocity": 0.952755905511811
        },
        {
          "duration": 0.17499999999999716,
          "durationTicks": 42,
          "midi": 56,
          "name": "G#3",
          "ticks": 24096,
          "time": 100.4,
          "velocity": 0.952755905511811
        },
        {
          "duration": 0.375,
          "durationTicks": 90,
          "midi": 55,
          "name": "G3",
          "ticks": 24144,
          "time": 100.60000000000001,
          "velocity": 0.952755905511811
        },
        {
          "duration": 0.17500000000001137,
          "durationTicks": 42,
          "midi": 52,
          "name": "E3",
          "ticks": 24240,
          "time": 101,
          "velocity": 0.952755905511811
        },
        {
          "duration": 0.17499999999999716,
          "durationTicks": 42,
          "midi": 55,
          "name": "G3",
          "ticks": 24288,
          "time": 101.2,
          "velocity": 0.952755905511811
        },
        {
          "duration": 0.875,
          "durationTicks": 210,
          "midi": 54,
          "name": "F#3",
          "ticks": 24336,
          "time": 101.4,
          "velocity": 0.952755905511811
        },
        {
          "duration": 0.5958333333333314,
          "durationTicks": 143,
          "midi": 53,
          "name": "F3",
          "ticks": 24576,
          "time": 102.4,
          "velocity": 0.9763779527559056
        },
        {
          "duration": 0.5958333333333314,
          "durationTicks": 143,
          "midi": 55,
          "name": "G3",
          "ticks": 24720,
          "time": 103,
          "velocity": 0.9763779527559056
        },
        {
          "duration": 0.3958333333333286,
          "durationTicks": 95,
          "midi": 57,
          "name": "A3",
          "ticks": 24864,
          "time": 103.60000000000001,
          "velocity": 0.9763779527559056
        }
      ]
    },
    {
      "channel": 0,
      "controlChanges": {
        "6": [
          {
            "number": 6,
            "ticks": 0,
            "time": 0,
            "value": 0.09448818897637795
          }
        ],
        "7": [
          {
            "number": 7,
            "ticks": 0,
            "time": 0,
            "value": 1
          },
          {
            "number": 7,
            "ticks": 0,
            "time": 0,
            "value": 1
          }
        ],
        "10": [
          {
            "number": 10,
            "ticks": 0,
            "time": 0,
            "value": 0.6614173228346457
          },
          {
            "number": 10,
            "ticks": 0,
            "time": 0,
            "value": 0.6614173228346457
          }
        ],
        "100": [
          {
            "number": 100,
            "ticks": 0,
            "time": 0,
            "value": 0
          }
        ],
        "101": [
          {
            "number": 101,
            "ticks": 0,
            "time": 0,
            "value": 0
          }
        ]
      },
      "pitchBends": [
        {
          "ticks": 0,
          "time": 0,
          "value": 0
        },
        {
          "ticks": 0,
          "time": 0,
          "value": 0
        }
      ],
      "instrument": {
        "family": "piano",
        "number": 0,
        "name": "acoustic grand piano"
      },
      "name": "SFX",
      "notes": [],
      "endOfTrackTicks": 25715
    },
    {
      "channel": 14,
      "controlChanges": {
        "6": [
          {
            "number": 6,
            "ticks": 0,
            "time": 0,
            "value": 0.09448818897637795
          },
          {
            "number": 6,
            "ticks": 0,
            "time": 0,
            "value": 0.09448818897637795
          },
          {
            "number": 6,
            "ticks": 25714,
            "time": 107.14166666666668,
            "value": 0.09448818897637795
          },
          {
            "number": 6,
            "ticks": 25715,
            "time": 107.14583333333333,
            "value": 0.09448818897637795
          }
        ],
        "7": [
          {
            "number": 7,
            "ticks": 0,
            "time": 0,
            "value": 1
          },
          {
            "number": 7,
            "ticks": 0,
            "time": 0,
            "value": 1
          },
          {
            "number": 7,
            "ticks": 25714,
            "time": 107.14166666666668,
            "value": 1
          },
          {
            "number": 7,
            "ticks": 25715,
            "time": 107.14583333333333,
            "value": 1
          }
        ],
        "10": [
          {
            "number": 10,
            "ticks": 0,
            "time": 0,
            "value": 0.6614173228346457
          },
          {
            "number": 10,
            "ticks": 0,
            "time": 0,
            "value": 0.6614173228346457
          },
          {
            "number": 10,
            "ticks": 25714,
            "time": 107.14166666666668,
            "value": 0.6614173228346457
          },
          {
            "number": 10,
            "ticks": 25715,
            "time": 107.14583333333333,
            "value": 0.6614173228346457
          }
        ],
        "91": [
          {
            "number": 91,
            "ticks": 0,
            "time": 0,
            "value": 0.49606299212598426
          },
          {
            "number": 91,
            "ticks": 0,
            "time": 0,
            "value": 0.49606299212598426
          },
          {
            "number": 91,
            "ticks": 0,
            "time": 0,
            "value": 0.49606299212598426
          },
          {
            "number": 91,
            "ticks": 25714,
            "time": 107.14166666666668,
            "value": 0.49606299212598426
          },
          {
            "number": 91,
            "ticks": 25715,
            "time": 107.14583333333333,
            "value": 0.49606299212598426
          }
        ],
        "93": [
          {
            "number": 93,
            "ticks": 0,
            "time": 0,
            "value": 0.31496062992125984
          },
          {
            "number": 93,
            "ticks": 0,
            "time": 0,
            "value": 0.31496062992125984
          },
          {
            "number": 93,
            "ticks": 0,
            "time": 0,
            "value": 0.31496062992125984
          },
          {
            "number": 93,
            "ticks": 25714,
            "time": 107.14166666666668,
            "value": 0.31496062992125984
          },
          {
            "number": 93,
            "ticks": 25715,
            "time": 107.14583333333333,
            "value": 0.31496062992125984
          }
        ],
        "100": [
          {
            "number": 100,
            "ticks": 0,
            "time": 0,
            "value": 0
          },
          {
            "number": 100,
            "ticks": 0,
            "time": 0,
            "value": 0
          },
          {
            "number": 100,
            "ticks": 25714,
            "time": 107.14166666666668,
            "value": 0
          },
          {
            "number": 100,
            "ticks": 25715,
            "time": 107.14583333333333,
            "value": 0
          }
        ],
        "101": [
          {
            "number": 101,
            "ticks": 0,
            "time": 0,
            "value": 0
          },
          {
            "number": 101,
            "ticks": 0,
            "time": 0,
            "value": 0
          },
          {
            "number": 101,
            "ticks": 25714,
            "time": 107.14166666666668,
            "value": 0
          },
          {
            "number": 101,
            "ticks": 25715,
            "time": 107.14583333333333,
            "value": 0
          }
        ]
      },
      "pitchBends": [
        {
          "ticks": 0,
          "time": 0,
          "value": 0
        },
        {
          "ticks": 0,
          "time": 0,
          "value": 0
        },
        {
          "ticks": 1338,
          "time": 5.575,
          "value": 0
        },
        {
          "ticks": 25714,
          "time": 107.14166666666668,
          "value": 0
        },
        {
          "ticks": 25715,
          "time": 107.14583333333333,
          "value": 0
        }
      ],
      "instrument": {
        "family": "sound effects",
        "number": 126,
        "name": "applause"
      },
      "name": "",
      "notes": [
        {
          "duration": 0.06666666666666732,
          "durationTicks": 16,
          "midi": 115,
          "name": "G8",
          "ticks": 1536,
          "time": 6.4,
          "velocity": 1
        },
        {
          "duration": 0.06666666666666732,
          "durationTicks": 16,
          "midi": 116,
          "name": "G#8",
          "ticks": 1536,
          "time": 6.4,
          "velocity": 1
        },
        {
          "duration": 0.0625,
          "durationTicks": 15,
          "midi": 114,
          "name": "F#8",
          "ticks": 1552,
          "time": 6.466666666666668,
          "velocity": 1
        },
        {
          "duration": 0.0625,
          "durationTicks": 15,
          "midi": 115,
          "name": "G8",
          "ticks": 1552,
          "time": 6.466666666666668,
          "velocity": 1
        },
        {
          "duration": 0.06666666666666554,
          "durationTicks": 16,
          "midi": 113,
          "name": "F8",
          "ticks": 1567,
          "time": 6.529166666666668,
          "velocity": 1
        },
        {
          "duration": 0.06666666666666554,
          "durationTicks": 16,
          "midi": 114,
          "name": "F#8",
          "ticks": 1567,
          "time": 6.529166666666668,
          "velocity": 1
        },
        {
          "duration": 0.06666666666666732,
          "durationTicks": 16,
          "midi": 112,
          "name": "E8",
          "ticks": 1583,
          "time": 6.595833333333333,
          "velocity": 1
        },
        {
          "duration": 0.06666666666666732,
          "durationTicks": 16,
          "midi": 113,
          "name": "F8",
          "ticks": 1583,
          "time": 6.595833333333333,
          "velocity": 1
        },
        {
          "duration": 0.06666666666666732,
          "durationTicks": 16,
          "midi": 111,
          "name": "D#8",
          "ticks": 1599,
          "time": 6.6625000000000005,
          "velocity": 1
        },
        {
          "duration": 0.06666666666666732,
          "durationTicks": 16,
          "midi": 112,
          "name": "E8",
          "ticks": 1599,
          "time": 6.6625000000000005,
          "velocity": 1
        },
        {
          "duration": 0.0625,
          "durationTicks": 15,
          "midi": 111,
          "name": "D#8",
          "ticks": 1615,
          "time": 6.729166666666668,
          "velocity": 1
        },
        {
          "duration": 0.0625,
          "durationTicks": 15,
          "midi": 110,
          "name": "D8",
          "ticks": 1615,
          "time": 6.729166666666668,
          "velocity": 1
        },
        {
          "duration": 0.06666666666666554,
          "durationTicks": 16,
          "midi": 110,
          "name": "D8",
          "ticks": 1630,
          "time": 6.791666666666668,
          "velocity": 1
        },
        {
          "duration": 0.06666666666666554,
          "durationTicks": 16,
          "midi": 109,
          "name": "C#8",
          "ticks": 1630,
          "time": 6.791666666666668,
          "velocity": 1
        },
        {
          "duration": 0.06666666666666732,
          "durationTicks": 16,
          "midi": 108,
          "name": "C8",
          "ticks": 1646,
          "time": 6.858333333333333,
          "velocity": 1
        },
        {
          "duration": 0.06666666666666732,
          "durationTicks": 16,
          "midi": 109,
          "name": "C#8",
          "ticks": 1646,
          "time": 6.858333333333333,
          "velocity": 1
        },
        {
          "duration": 0.06666666666666643,
          "durationTicks": 16,
          "midi": 107,
          "name": "B7",
          "ticks": 1662,
          "time": 6.925000000000001,
          "velocity": 1
        },
        {
          "duration": 0.06666666666666643,
          "durationTicks": 16,
          "midi": 108,
          "name": "C8",
          "ticks": 1662,
          "time": 6.925000000000001,
          "velocity": 1
        },
        {
          "duration": 0.0625,
          "durationTicks": 15,
          "midi": 106,
          "name": "A#7",
          "ticks": 1678,
          "time": 6.991666666666667,
          "velocity": 1
        },
        {
          "duration": 0.0625,
          "durationTicks": 15,
          "midi": 107,
          "name": "B7",
          "ticks": 1678,
          "time": 6.991666666666667,
          "velocity": 1
        },
        {
          "duration": 0.06666666666666643,
          "durationTicks": 16,
          "midi": 105,
          "name": "A7",
          "ticks": 1693,
          "time": 7.054166666666667,
          "velocity": 1
        },
        {
          "duration": 0.06666666666666643,
          "durationTicks": 16,
          "midi": 106,
          "name": "A#7",
          "ticks": 1693,
          "time": 7.054166666666667,
          "velocity": 1
        },
        {
          "duration": 0.06666666666666643,
          "durationTicks": 16,
          "midi": 105,
          "name": "A7",
          "ticks": 1709,
          "time": 7.120833333333334,
          "velocity": 1
        },
        {
          "duration": 0.06666666666666643,
          "durationTicks": 16,
          "midi": 104,
          "name": "G#7",
          "ticks": 1709,
          "time": 7.120833333333334,
          "velocity": 1
        },
        {
          "duration": 0.0625,
          "durationTicks": 15,
          "midi": 104,
          "name": "G#7",
          "ticks": 1725,
          "time": 7.1875,
          "velocity": 1
        },
        {
          "duration": 0.0625,
          "durationTicks": 15,
          "midi": 103,
          "name": "G7",
          "ticks": 1725,
          "time": 7.1875,
          "velocity": 1
        },
        {
          "duration": 0.06666666666666732,
          "durationTicks": 16,
          "midi": 102,
          "name": "F#7",
          "ticks": 1740,
          "time": 7.25,
          "velocity": 1
        },
        {
          "duration": 0.06666666666666732,
          "durationTicks": 16,
          "midi": 103,
          "name": "G7",
          "ticks": 1740,
          "time": 7.25,
          "velocity": 1
        },
        {
          "duration": 0.06666666666666554,
          "durationTicks": 16,
          "midi": 101,
          "name": "F7",
          "ticks": 1756,
          "time": 7.316666666666667,
          "velocity": 1
        },
        {
          "duration": 0.06666666666666554,
          "durationTicks": 16,
          "midi": 102,
          "name": "F#7",
          "ticks": 1756,
          "time": 7.316666666666667,
          "velocity": 1
        },
        {
          "duration": 0.06666666666666732,
          "durationTicks": 16,
          "midi": 100,
          "name": "E7",
          "ticks": 1772,
          "time": 7.383333333333333,
          "velocity": 1
        },
        {
          "duration": 0.06666666666666732,
          "durationTicks": 16,
          "midi": 101,
          "name": "F7",
          "ticks": 1772,
          "time": 7.383333333333333,
          "velocity": 1
        },
        {
          "duration": 0.0625,
          "durationTicks": 15,
          "midi": 99,
          "name": "D#7",
          "ticks": 1788,
          "time": 7.45,
          "velocity": 1
        },
        {
          "duration": 0.0625,
          "durationTicks": 15,
          "midi": 100,
          "name": "E7",
          "ticks": 1788,
          "time": 7.45,
          "velocity": 1
        },
        {
          "duration": 0.06666666666666732,
          "durationTicks": 16,
          "midi": 98,
          "name": "D7",
          "ticks": 1803,
          "time": 7.5125,
          "velocity": 1
        },
        {
          "duration": 0.06666666666666732,
          "durationTicks": 16,
          "midi": 99,
          "name": "D#7",
          "ticks": 1803,
          "time": 7.5125,
          "velocity": 1
        },
        {
          "duration": 0.06666666666666554,
          "durationTicks": 16,
          "midi": 97,
          "name": "C#7",
          "ticks": 1819,
          "time": 7.5791666666666675,
          "velocity": 1
        },
        {
          "duration": 0.06666666666666554,
          "durationTicks": 16,
          "midi": 98,
          "name": "D7",
          "ticks": 1819,
          "time": 7.5791666666666675,
          "velocity": 1
        },
        {
          "duration": 0.0625,
          "durationTicks": 15,
          "midi": 96,
          "name": "C7",
          "ticks": 1835,
          "time": 7.645833333333333,
          "velocity": 1
        },
        {
          "duration": 0.0625,
          "durationTicks": 15,
          "midi": 97,
          "name": "C#7",
          "ticks": 1835,
          "time": 7.645833333333333,
          "velocity": 1
        },
        {
          "duration": 0.06666666666666732,
          "durationTicks": 16,
          "midi": 95,
          "name": "B6",
          "ticks": 1850,
          "time": 7.708333333333333,
          "velocity": 1
        },
        {
          "duration": 0.06666666666666732,
          "durationTicks": 16,
          "midi": 96,
          "name": "C7",
          "ticks": 1850,
          "time": 7.708333333333333,
          "velocity": 1
        },
        {
          "duration": 0.06666666666666732,
          "durationTicks": 16,
          "midi": 94,
          "name": "A#6",
          "ticks": 1866,
          "time": 7.775,
          "velocity": 1
        },
        {
          "duration": 0.06666666666666732,
          "durationTicks": 16,
          "midi": 95,
          "name": "B6",
          "ticks": 1866,
          "time": 7.775,
          "velocity": 1
        },
        {
          "duration": 0.06666666666666554,
          "durationTicks": 16,
          "midi": 93,
          "name": "A6",
          "ticks": 1882,
          "time": 7.841666666666668,
          "velocity": 1
        },
        {
          "duration": 0.06666666666666554,
          "durationTicks": 16,
          "midi": 94,
          "name": "A#6",
          "ticks": 1882,
          "time": 7.841666666666668,
          "velocity": 1
        },
        {
          "duration": 0.0625,
          "durationTicks": 15,
          "midi": 92,
          "name": "G#6",
          "ticks": 1898,
          "time": 7.908333333333333,
          "velocity": 1
        },
        {
          "duration": 0.0625,
          "durationTicks": 15,
          "midi": 93,
          "name": "A6",
          "ticks": 1898,
          "time": 7.908333333333333,
          "velocity": 1
        },
        {
          "duration": 0.06666666666666643,
          "durationTicks": 16,
          "midi": 91,
          "name": "G6",
          "ticks": 1913,
          "time": 7.970833333333333,
          "velocity": 1
        },
        {
          "duration": 0.06666666666666643,
          "durationTicks": 16,
          "midi": 92,
          "name": "G#6",
          "ticks": 1913,
          "time": 7.970833333333333,
          "velocity": 1
        },
        {
          "duration": 0.0666666666666682,
          "durationTicks": 16,
          "midi": 90,
          "name": "F#6",
          "ticks": 1929,
          "time": 8.0375,
          "velocity": 1
        },
        {
          "duration": 0.0666666666666682,
          "durationTicks": 16,
          "midi": 91,
          "name": "G6",
          "ticks": 1929,
          "time": 8.0375,
          "velocity": 1
        },
        {
          "duration": 0.06666666666666465,
          "durationTicks": 16,
          "midi": 89,
          "name": "F6",
          "ticks": 1945,
          "time": 8.104166666666668,
          "velocity": 1
        },
        {
          "duration": 0.06666666666666465,
          "durationTicks": 16,
          "midi": 90,
          "name": "F#6",
          "ticks": 1945,
          "time": 8.104166666666668,
          "velocity": 1
        },
        {
          "duration": 0.0625,
          "durationTicks": 15,
          "midi": 88,
          "name": "E6",
          "ticks": 1961,
          "time": 8.170833333333333,
          "velocity": 1
        },
        {
          "duration": 0.0625,
          "durationTicks": 15,
          "midi": 89,
          "name": "F6",
          "ticks": 1961,
          "time": 8.170833333333333,
          "velocity": 1
        },
        {
          "duration": 0.0666666666666682,
          "durationTicks": 16,
          "midi": 87,
          "name": "D#6",
          "ticks": 1976,
          "time": 8.233333333333333,
          "velocity": 1
        },
        {
          "duration": 0.0666666666666682,
          "durationTicks": 16,
          "midi": 88,
          "name": "E6",
          "ticks": 1976,
          "time": 8.233333333333333,
          "velocity": 1
        },
        {
          "duration": 0.06666666666666643,
          "durationTicks": 16,
          "midi": 86,
          "name": "D6",
          "ticks": 1992,
          "time": 8.3,
          "velocity": 1
        },
        {
          "duration": 0.06666666666666643,
          "durationTicks": 16,
          "midi": 87,
          "name": "D#6",
          "ticks": 1992,
          "time": 8.3,
          "velocity": 1
        },
        {
          "duration": 0.0625,
          "durationTicks": 15,
          "midi": 85,
          "name": "C#6",
          "ticks": 2008,
          "time": 8.366666666666667,
          "velocity": 1
        },
        {
          "duration": 0.0625,
          "durationTicks": 15,
          "midi": 86,
          "name": "D6",
          "ticks": 2008,
          "time": 8.366666666666667,
          "velocity": 1
        },
        {
          "duration": 0.06666666666666643,
          "durationTicks": 16,
          "midi": 84,
          "name": "C6",
          "ticks": 2023,
          "time": 8.429166666666667,
          "velocity": 1
        },
        {
          "duration": 0.06666666666666643,
          "durationTicks": 16,
          "midi": 85,
          "name": "C#6",
          "ticks": 2023,
          "time": 8.429166666666667,
          "velocity": 1
        },
        {
          "duration": 0.06666666666666643,
          "durationTicks": 16,
          "midi": 83,
          "name": "B5",
          "ticks": 2039,
          "time": 8.495833333333334,
          "velocity": 1
        },
        {
          "duration": 0.06666666666666643,
          "durationTicks": 16,
          "midi": 84,
          "name": "C6",
          "ticks": 2039,
          "time": 8.495833333333334,
          "velocity": 1
        },
        {
          "duration": 0.0666666666666682,
          "durationTicks": 16,
          "midi": 82,
          "name": "A#5",
          "ticks": 2055,
          "time": 8.5625,
          "velocity": 1
        },
        {
          "duration": 0.0666666666666682,
          "durationTicks": 16,
          "midi": 83,
          "name": "B5",
          "ticks": 2055,
          "time": 8.5625,
          "velocity": 1
        },
        {
          "duration": 0.0625,
          "durationTicks": 15,
          "midi": 81,
          "name": "A5",
          "ticks": 2071,
          "time": 8.629166666666668,
          "velocity": 1
        },
        {
          "duration": 0.0625,
          "durationTicks": 15,
          "midi": 82,
          "name": "A#5",
          "ticks": 2071,
          "time": 8.629166666666668,
          "velocity": 1
        },
        {
          "duration": 0.06666666666666465,
          "durationTicks": 16,
          "midi": 80,
          "name": "G#5",
          "ticks": 2086,
          "time": 8.691666666666668,
          "velocity": 1
        },
        {
          "duration": 0.06666666666666465,
          "durationTicks": 16,
          "midi": 81,
          "name": "A5",
          "ticks": 2086,
          "time": 8.691666666666668,
          "velocity": 1
        },
        {
          "duration": 0.0666666666666682,
          "durationTicks": 16,
          "midi": 79,
          "name": "G5",
          "ticks": 2102,
          "time": 8.758333333333333,
          "velocity": 1
        },
        {
          "duration": 0.0666666666666682,
          "durationTicks": 16,
          "midi": 80,
          "name": "G#5",
          "ticks": 2102,
          "time": 8.758333333333333,
          "velocity": 1
        },
        {
          "duration": 0.06666666666666643,
          "durationTicks": 16,
          "midi": 78,
          "name": "F#5",
          "ticks": 2118,
          "time": 8.825000000000001,
          "velocity": 1
        },
        {
          "duration": 0.06666666666666643,
          "durationTicks": 16,
          "midi": 79,
          "name": "G5",
          "ticks": 2118,
          "time": 8.825000000000001,
          "velocity": 1
        },
        {
          "duration": 0.0625,
          "durationTicks": 15,
          "midi": 77,
          "name": "F5",
          "ticks": 2134,
          "time": 8.891666666666667,
          "velocity": 1
        },
        {
          "duration": 0.0625,
          "durationTicks": 15,
          "midi": 78,
          "name": "F#5",
          "ticks": 2134,
          "time": 8.891666666666667,
          "velocity": 1
        },
        {
          "duration": 0.06666666666666643,
          "durationTicks": 16,
          "midi": 76,
          "name": "E5",
          "ticks": 2149,
          "time": 8.954166666666667,
          "velocity": 1
        },
        {
          "duration": 0.06666666666666643,
          "durationTicks": 16,
          "midi": 77,
          "name": "F5",
          "ticks": 2149,
          "time": 8.954166666666667,
          "velocity": 1
        },
        {
          "duration": 0.06666666666666643,
          "durationTicks": 16,
          "midi": 75,
          "name": "D#5",
          "ticks": 2165,
          "time": 9.020833333333334,
          "velocity": 1
        },
        {
          "duration": 0.06666666666666643,
          "durationTicks": 16,
          "midi": 76,
          "name": "E5",
          "ticks": 2165,
          "time": 9.020833333333334,
          "velocity": 1
        },
        {
          "duration": 0.0625,
          "durationTicks": 15,
          "midi": 74,
          "name": "D5",
          "ticks": 2181,
          "time": 9.0875,
          "velocity": 1
        },
        {
          "duration": 0.0625,
          "durationTicks": 15,
          "midi": 75,
          "name": "D#5",
          "ticks": 2181,
          "time": 9.0875,
          "velocity": 1
        },
        {
          "duration": 0.06666666666666643,
          "durationTicks": 16,
          "midi": 73,
          "name": "C#5",
          "ticks": 2196,
          "time": 9.15,
          "velocity": 1
        },
        {
          "duration": 0.06666666666666643,
          "durationTicks": 16,
          "midi": 74,
          "name": "D5",
          "ticks": 2196,
          "time": 9.15,
          "velocity": 1
        },
        {
          "duration": 0.06666666666666643,
          "durationTicks": 16,
          "midi": 72,
          "name": "C5",
          "ticks": 2212,
          "time": 9.216666666666667,
          "velocity": 1
        },
        {
          "duration": 0.06666666666666643,
          "durationTicks": 16,
          "midi": 73,
          "name": "C#5",
          "ticks": 2212,
          "time": 9.216666666666667,
          "velocity": 1
        },
        {
          "duration": 0.06666666666666643,
          "durationTicks": 16,
          "midi": 71,
          "name": "B4",
          "ticks": 2228,
          "time": 9.283333333333333,
          "velocity": 1
        },
        {
          "duration": 0.06666666666666643,
          "durationTicks": 16,
          "midi": 72,
          "name": "C5",
          "ticks": 2228,
          "time": 9.283333333333333,
          "velocity": 1
        },
        {
          "duration": 0.0625,
          "durationTicks": 15,
          "midi": 70,
          "name": "A#4",
          "ticks": 2244,
          "time": 9.35,
          "velocity": 1
        },
        {
          "duration": 0.0625,
          "durationTicks": 15,
          "midi": 71,
          "name": "B4",
          "ticks": 2244,
          "time": 9.35,
          "velocity": 1
        },
        {
          "duration": 0.0666666666666682,
          "durationTicks": 16,
          "midi": 69,
          "name": "A4",
          "ticks": 2259,
          "time": 9.4125,
          "velocity": 1
        },
        {
          "duration": 0.0666666666666682,
          "durationTicks": 16,
          "midi": 70,
          "name": "A#4",
          "ticks": 2259,
          "time": 9.4125,
          "velocity": 1
        },
        {
          "duration": 0.06666666666666465,
          "durationTicks": 16,
          "midi": 68,
          "name": "G#4",
          "ticks": 2275,
          "time": 9.479166666666668,
          "velocity": 1
        },
        {
          "duration": 0.06666666666666465,
          "durationTicks": 16,
          "midi": 69,
          "name": "A4",
          "ticks": 2275,
          "time": 9.479166666666668,
          "velocity": 1
        },
        {
          "duration": 0.06250000000000178,
          "durationTicks": 15,
          "midi": 67,
          "name": "G4",
          "ticks": 2291,
          "time": 9.545833333333333,
          "velocity": 1
        },
        {
          "duration": 0.06250000000000178,
          "durationTicks": 15,
          "midi": 68,
          "name": "G#4",
          "ticks": 2291,
          "time": 9.545833333333333,
          "velocity": 1
        },
        {
          "duration": 0.06666666666666643,
          "durationTicks": 16,
          "midi": 67,
          "name": "G4",
          "ticks": 2306,
          "time": 9.608333333333334,
          "velocity": 1
        },
        {
          "duration": 0.06666666666666643,
          "durationTicks": 16,
          "midi": 66,
          "name": "F#4",
          "ticks": 2306,
          "time": 9.608333333333334,
          "velocity": 1
        },
        {
          "duration": 0.06666666666666643,
          "durationTicks": 16,
          "midi": 66,
          "name": "F#4",
          "ticks": 2322,
          "time": 9.675,
          "velocity": 1
        },
        {
          "duration": 0.06666666666666643,
          "durationTicks": 16,
          "midi": 65,
          "name": "F4",
          "ticks": 2322,
          "time": 9.675,
          "velocity": 1
        },
        {
          "duration": 0.06666666666666643,
          "durationTicks": 16,
          "midi": 64,
          "name": "E4",
          "ticks": 2338,
          "time": 9.741666666666667,
          "velocity": 1
        },
        {
          "duration": 0.06666666666666643,
          "durationTicks": 16,
          "midi": 65,
          "name": "F4",
          "ticks": 2338,
          "time": 9.741666666666667,
          "velocity": 1
        },
        {
          "duration": 0.0625,
          "durationTicks": 15,
          "midi": 63,
          "name": "D#4",
          "ticks": 2354,
          "time": 9.808333333333334,
          "velocity": 1
        },
        {
          "duration": 0.0625,
          "durationTicks": 15,
          "midi": 64,
          "name": "E4",
          "ticks": 2354,
          "time": 9.808333333333334,
          "velocity": 1
        },
        {
          "duration": 0.06666666666666643,
          "durationTicks": 16,
          "midi": 62,
          "name": "D4",
          "ticks": 2369,
          "time": 9.870833333333334,
          "velocity": 1
        },
        {
          "duration": 0.06666666666666643,
          "durationTicks": 16,
          "midi": 63,
          "name": "D#4",
          "ticks": 2369,
          "time": 9.870833333333334,
          "velocity": 1
        },
        {
          "duration": 0.0666666666666682,
          "durationTicks": 16,
          "midi": 61,
          "name": "C#4",
          "ticks": 2385,
          "time": 9.9375,
          "velocity": 1
        },
        {
          "duration": 0.0666666666666682,
          "durationTicks": 16,
          "midi": 62,
          "name": "D4",
          "ticks": 2385,
          "time": 9.9375,
          "velocity": 1
        },
        {
          "duration": 0.06666666666666465,
          "durationTicks": 16,
          "midi": 61,
          "name": "C#4",
          "ticks": 2401,
          "time": 10.004166666666668,
          "velocity": 1
        },
        {
          "duration": 0.06666666666666465,
          "durationTicks": 16,
          "midi": 60,
          "name": "C4",
          "ticks": 2401,
          "time": 10.004166666666668,
          "velocity": 1
        },
        {
          "duration": 0.0625,
          "durationTicks": 15,
          "midi": 60,
          "name": "C4",
          "ticks": 2417,
          "time": 10.070833333333333,
          "velocity": 1
        },
        {
          "duration": 0.0625,
          "durationTicks": 15,
          "midi": 59,
          "name": "B3",
          "ticks": 2417,
          "time": 10.070833333333333,
          "velocity": 1
        },
        {
          "duration": 0.0666666666666682,
          "durationTicks": 16,
          "midi": 58,
          "name": "A#3",
          "ticks": 2432,
          "time": 10.133333333333333,
          "velocity": 1
        },
        {
          "duration": 0.0666666666666682,
          "durationTicks": 16,
          "midi": 59,
          "name": "B3",
          "ticks": 2432,
          "time": 10.133333333333333,
          "velocity": 1
        },
        {
          "duration": 0.06666666666666643,
          "durationTicks": 16,
          "midi": 57,
          "name": "A3",
          "ticks": 2448,
          "time": 10.200000000000001,
          "velocity": 1
        },
        {
          "duration": 0.06666666666666643,
          "durationTicks": 16,
          "midi": 58,
          "name": "A#3",
          "ticks": 2448,
          "time": 10.200000000000001,
          "velocity": 1
        },
        {
          "duration": 0.0625,
          "durationTicks": 15,
          "midi": 56,
          "name": "G#3",
          "ticks": 2464,
          "time": 10.266666666666667,
          "velocity": 1
        },
        {
          "duration": 0.0625,
          "durationTicks": 15,
          "midi": 57,
          "name": "A3",
          "ticks": 2464,
          "time": 10.266666666666667,
          "velocity": 1
        },
        {
          "duration": 0.06666666666666643,
          "durationTicks": 16,
          "midi": 55,
          "name": "G3",
          "ticks": 2479,
          "time": 10.329166666666667,
          "velocity": 1
        },
        {
          "duration": 0.06666666666666643,
          "durationTicks": 16,
          "midi": 56,
          "name": "G#3",
          "ticks": 2479,
          "time": 10.329166666666667,
          "velocity": 1
        },
        {
          "duration": 0.06666666666666643,
          "durationTicks": 16,
          "midi": 54,
          "name": "F#3",
          "ticks": 2495,
          "time": 10.395833333333334,
          "velocity": 1
        },
        {
          "duration": 0.06666666666666643,
          "durationTicks": 16,
          "midi": 55,
          "name": "G3",
          "ticks": 2495,
          "time": 10.395833333333334,
          "velocity": 1
        },
        {
          "duration": 0.0666666666666682,
          "durationTicks": 16,
          "midi": 54,
          "name": "F#3",
          "ticks": 2511,
          "time": 10.4625,
          "velocity": 1
        },
        {
          "duration": 0.0666666666666682,
          "durationTicks": 16,
          "midi": 53,
          "name": "F3",
          "ticks": 2511,
          "time": 10.4625,
          "velocity": 1
        },
        {
          "duration": 0.0625,
          "durationTicks": 15,
          "midi": 52,
          "name": "E3",
          "ticks": 2527,
          "time": 10.529166666666669,
          "velocity": 1
        },
        {
          "duration": 0.0625,
          "durationTicks": 15,
          "midi": 53,
          "name": "F3",
          "ticks": 2527,
          "time": 10.529166666666669,
          "velocity": 1
        },
        {
          "duration": 0.06666666666666465,
          "durationTicks": 16,
          "midi": 51,
          "name": "D#3",
          "ticks": 2542,
          "time": 10.591666666666669,
          "velocity": 1
        },
        {
          "duration": 0.06666666666666465,
          "durationTicks": 16,
          "midi": 52,
          "name": "E3",
          "ticks": 2542,
          "time": 10.591666666666669,
          "velocity": 1
        },
        {
          "duration": 0.0666666666666682,
          "durationTicks": 16,
          "midi": 50,
          "name": "D3",
          "ticks": 2558,
          "time": 10.658333333333333,
          "velocity": 1
        },
        {
          "duration": 0.0666666666666682,
          "durationTicks": 16,
          "midi": 51,
          "name": "D#3",
          "ticks": 2558,
          "time": 10.658333333333333,
          "velocity": 1
        },
        {
          "duration": 0.06666666666666643,
          "durationTicks": 16,
          "midi": 49,
          "name": "C#3",
          "ticks": 2574,
          "time": 10.725000000000001,
          "velocity": 1
        },
        {
          "duration": 0.06666666666666643,
          "durationTicks": 16,
          "midi": 50,
          "name": "D3",
          "ticks": 2574,
          "time": 10.725000000000001,
          "velocity": 1
        },
        {
          "duration": 0.0625,
          "durationTicks": 15,
          "midi": 48,
          "name": "C3",
          "ticks": 2590,
          "time": 10.791666666666668,
          "velocity": 1
        },
        {
          "duration": 0.0625,
          "durationTicks": 15,
          "midi": 49,
          "name": "C#3",
          "ticks": 2590,
          "time": 10.791666666666668,
          "velocity": 1
        },
        {
          "duration": 0.06666666666666643,
          "durationTicks": 16,
          "midi": 47,
          "name": "B2",
          "ticks": 2605,
          "time": 10.854166666666668,
          "velocity": 1
        },
        {
          "duration": 0.06666666666666643,
          "durationTicks": 16,
          "midi": 48,
          "name": "C3",
          "ticks": 2605,
          "time": 10.854166666666668,
          "velocity": 1
        },
        {
          "duration": 0.06666666666666643,
          "durationTicks": 16,
          "midi": 46,
          "name": "A#2",
          "ticks": 2621,
          "time": 10.920833333333334,
          "velocity": 1
        },
        {
          "duration": 0.06666666666666643,
          "durationTicks": 16,
          "midi": 47,
          "name": "B2",
          "ticks": 2621,
          "time": 10.920833333333334,
          "velocity": 1
        },
        {
          "duration": 0.0625,
          "durationTicks": 15,
          "midi": 45,
          "name": "A2",
          "ticks": 2637,
          "time": 10.9875,
          "velocity": 1
        },
        {
          "duration": 0.0625,
          "durationTicks": 15,
          "midi": 46,
          "name": "A#2",
          "ticks": 2637,
          "time": 10.9875,
          "velocity": 1
        },
        {
          "duration": 0.06666666666666643,
          "durationTicks": 16,
          "midi": 44,
          "name": "G#2",
          "ticks": 2652,
          "time": 11.05,
          "velocity": 1
        },
        {
          "duration": 0.06666666666666643,
          "durationTicks": 16,
          "midi": 45,
          "name": "A2",
          "ticks": 2652,
          "time": 11.05,
          "velocity": 1
        },
        {
          "duration": 0.06666666666666643,
          "durationTicks": 16,
          "midi": 43,
          "name": "G2",
          "ticks": 2668,
          "time": 11.116666666666667,
          "velocity": 1
        },
        {
          "duration": 0.06666666666666643,
          "durationTicks": 16,
          "midi": 44,
          "name": "G#2",
          "ticks": 2668,
          "time": 11.116666666666667,
          "velocity": 1
        },
        {
          "duration": 0.06666666666666643,
          "durationTicks": 16,
          "midi": 42,
          "name": "F#2",
          "ticks": 2684,
          "time": 11.183333333333334,
          "velocity": 1
        },
        {
          "duration": 0.06666666666666643,
          "durationTicks": 16,
          "midi": 43,
          "name": "G2",
          "ticks": 2684,
          "time": 11.183333333333334,
          "velocity": 1
        },
        {
          "duration": 0.0625,
          "durationTicks": 15,
          "midi": 41,
          "name": "F2",
          "ticks": 2700,
          "time": 11.25,
          "velocity": 1
        },
        {
          "duration": 0.0625,
          "durationTicks": 15,
          "midi": 42,
          "name": "F#2",
          "ticks": 2700,
          "time": 11.25,
          "velocity": 1
        },
        {
          "duration": 0.0666666666666682,
          "durationTicks": 16,
          "midi": 40,
          "name": "E2",
          "ticks": 2715,
          "time": 11.3125,
          "velocity": 1
        },
        {
          "duration": 0.0666666666666682,
          "durationTicks": 16,
          "midi": 41,
          "name": "F2",
          "ticks": 2715,
          "time": 11.3125,
          "velocity": 1
        },
        {
          "duration": 0.06666666666666465,
          "durationTicks": 16,
          "midi": 39,
          "name": "D#2",
          "ticks": 2731,
          "time": 11.379166666666668,
          "velocity": 1
        },
        {
          "duration": 0.06666666666666465,
          "durationTicks": 16,
          "midi": 40,
          "name": "E2",
          "ticks": 2731,
          "time": 11.379166666666668,
          "velocity": 1
        },
        {
          "duration": 0.0625,
          "durationTicks": 15,
          "midi": 39,
          "name": "D#2",
          "ticks": 2747,
          "time": 11.445833333333333,
          "velocity": 1
        },
        {
          "duration": 0.0625,
          "durationTicks": 15,
          "midi": 38,
          "name": "D2",
          "ticks": 2747,
          "time": 11.445833333333333,
          "velocity": 1
        },
        {
          "duration": 0.0666666666666682,
          "durationTicks": 16,
          "midi": 38,
          "name": "D2",
          "ticks": 2762,
          "time": 11.508333333333333,
          "velocity": 1
        },
        {
          "duration": 0.0666666666666682,
          "durationTicks": 16,
          "midi": 37,
          "name": "C#2",
          "ticks": 2762,
          "time": 11.508333333333333,
          "velocity": 1
        },
        {
          "duration": 0.06666666666666643,
          "durationTicks": 16,
          "midi": 36,
          "name": "C2",
          "ticks": 2778,
          "time": 11.575000000000001,
          "velocity": 1
        },
        {
          "duration": 0.06666666666666643,
          "durationTicks": 16,
          "midi": 37,
          "name": "C#2",
          "ticks": 2778,
          "time": 11.575000000000001,
          "velocity": 1
        },
        {
          "duration": 0.06666666666666643,
          "durationTicks": 16,
          "midi": 36,
          "name": "C2",
          "ticks": 2794,
          "time": 11.641666666666667,
          "velocity": 1
        },
        {
          "duration": 0.06666666666666643,
          "durationTicks": 16,
          "midi": 35,
          "name": "B1",
          "ticks": 2794,
          "time": 11.641666666666667,
          "velocity": 1
        },
        {
          "duration": 0.0625,
          "durationTicks": 15,
          "midi": 35,
          "name": "B1",
          "ticks": 2810,
          "time": 11.708333333333334,
          "velocity": 1
        },
        {
          "duration": 0.0625,
          "durationTicks": 15,
          "midi": 34,
          "name": "A#1",
          "ticks": 2810,
          "time": 11.708333333333334,
          "velocity": 1
        },
        {
          "duration": 0.06666666666666643,
          "durationTicks": 16,
          "midi": 33,
          "name": "A1",
          "ticks": 2825,
          "time": 11.770833333333334,
          "velocity": 1
        },
        {
          "duration": 0.06666666666666643,
          "durationTicks": 16,
          "midi": 34,
          "name": "A#1",
          "ticks": 2825,
          "time": 11.770833333333334,
          "velocity": 1
        },
        {
          "duration": 0.0666666666666682,
          "durationTicks": 16,
          "midi": 33,
          "name": "A1",
          "ticks": 2841,
          "time": 11.8375,
          "velocity": 1
        },
        {
          "duration": 0.0666666666666682,
          "durationTicks": 16,
          "midi": 32,
          "name": "G#1",
          "ticks": 2841,
          "time": 11.8375,
          "velocity": 1
        },
        {
          "duration": 0.06666666666666465,
          "durationTicks": 16,
          "midi": 32,
          "name": "G#1",
          "ticks": 2857,
          "time": 11.904166666666669,
          "velocity": 1
        },
        {
          "duration": 0.06666666666666465,
          "durationTicks": 16,
          "midi": 31,
          "name": "G1",
          "ticks": 2857,
          "time": 11.904166666666669,
          "velocity": 1
        },
        {
          "duration": 0.0625,
          "durationTicks": 15,
          "midi": 30,
          "name": "F#1",
          "ticks": 2873,
          "time": 11.970833333333333,
          "velocity": 1
        },
        {
          "duration": 0.0625,
          "durationTicks": 15,
          "midi": 31,
          "name": "G1",
          "ticks": 2873,
          "time": 11.970833333333333,
          "velocity": 1
        },
        {
          "duration": 0.0666666666666682,
          "durationTicks": 16,
          "midi": 30,
          "name": "F#1",
          "ticks": 2888,
          "time": 12.033333333333333,
          "velocity": 1
        },
        {
          "duration": 0.0666666666666682,
          "durationTicks": 16,
          "midi": 29,
          "name": "F1",
          "ticks": 2888,
          "time": 12.033333333333333,
          "velocity": 1
        },
        {
          "duration": 0.06666666666666643,
          "durationTicks": 16,
          "midi": 29,
          "name": "F1",
          "ticks": 2904,
          "time": 12.100000000000001,
          "velocity": 1
        },
        {
          "duration": 0.06666666666666643,
          "durationTicks": 16,
          "midi": 28,
          "name": "E1",
          "ticks": 2904,
          "time": 12.100000000000001,
          "velocity": 1
        },
        {
          "duration": 0.0625,
          "durationTicks": 15,
          "midi": 27,
          "name": "D#1",
          "ticks": 2920,
          "time": 12.166666666666668,
          "velocity": 1
        },
        {
          "duration": 0.0625,
          "durationTicks": 15,
          "midi": 28,
          "name": "E1",
          "ticks": 2920,
          "time": 12.166666666666668,
          "velocity": 1
        },
        {
          "duration": 0.06666666666666643,
          "durationTicks": 16,
          "midi": 27,
          "name": "D#1",
          "ticks": 2935,
          "time": 12.229166666666668,
          "velocity": 1
        },
        {
          "duration": 0.06666666666666643,
          "durationTicks": 16,
          "midi": 26,
          "name": "D1",
          "ticks": 2935,
          "time": 12.229166666666668,
          "velocity": 1
        },
        {
          "duration": 0.06666666666666643,
          "durationTicks": 16,
          "midi": 26,
          "name": "D1",
          "ticks": 2951,
          "time": 12.295833333333334,
          "velocity": 1
        },
        {
          "duration": 0.06666666666666643,
          "durationTicks": 16,
          "midi": 25,
          "name": "C#1",
          "ticks": 2951,
          "time": 12.295833333333334,
          "velocity": 1
        },
        {
          "duration": 0.06666666666666643,
          "durationTicks": 16,
          "midi": 24,
          "name": "C1",
          "ticks": 2967,
          "time": 12.3625,
          "velocity": 1
        },
        {
          "duration": 0.06666666666666643,
          "durationTicks": 16,
          "midi": 25,
          "name": "C#1",
          "ticks": 2967,
          "time": 12.3625,
          "velocity": 1
        },
        {
          "duration": 0.0625,
          "durationTicks": 15,
          "midi": 24,
          "name": "C1",
          "ticks": 2983,
          "time": 12.429166666666667,
          "velocity": 1
        },
        {
          "duration": 0.0625,
          "durationTicks": 15,
          "midi": 23,
          "name": "B0",
          "ticks": 2983,
          "time": 12.429166666666667,
          "velocity": 1
        },
        {
          "duration": 0.06666666666666643,
          "durationTicks": 16,
          "midi": 23,
          "name": "B0",
          "ticks": 2998,
          "time": 12.491666666666667,
          "velocity": 1
        },
        {
          "duration": 0.06666666666666643,
          "durationTicks": 16,
          "midi": 22,
          "name": "A#0",
          "ticks": 2998,
          "time": 12.491666666666667,
          "velocity": 1
        },
        {
          "duration": 0.06666666666666643,
          "durationTicks": 16,
          "midi": 21,
          "name": "A0",
          "ticks": 3014,
          "time": 12.558333333333334,
          "velocity": 1
        },
        {
          "duration": 0.06666666666666643,
          "durationTicks": 16,
          "midi": 22,
          "name": "A#0",
          "ticks": 3014,
          "time": 12.558333333333334,
          "velocity": 1
        },
        {
          "duration": 0.0666666666666682,
          "durationTicks": 16,
          "midi": 21,
          "name": "A0",
          "ticks": 3030,
          "time": 12.625,
          "velocity": 1
        },
        {
          "duration": 0.0666666666666682,
          "durationTicks": 16,
          "midi": 20,
          "name": "G#0",
          "ticks": 3030,
          "time": 12.625,
          "velocity": 1
        },
        {
          "duration": 0.0625,
          "durationTicks": 15,
          "midi": 20,
          "name": "G#0",
          "ticks": 3046,
          "time": 12.691666666666668,
          "velocity": 1
        },
        {
          "duration": 0.0625,
          "durationTicks": 15,
          "midi": 19,
          "name": "G0",
          "ticks": 3046,
          "time": 12.691666666666668,
          "velocity": 1
        },
        {
          "duration": 0.06666666666666643,
          "durationTicks": 16,
          "midi": 18,
          "name": "F#0",
          "ticks": 3061,
          "time": 12.754166666666668,
          "velocity": 1
        },
        {
          "duration": 0.06666666666666643,
          "durationTicks": 16,
          "midi": 19,
          "name": "G0",
          "ticks": 3061,
          "time": 12.754166666666668,
          "velocity": 1
        },
        {
          "duration": 0.06666666666666643,
          "durationTicks": 16,
          "midi": 18,
          "name": "F#0",
          "ticks": 3077,
          "time": 12.820833333333335,
          "velocity": 1
        },
        {
          "duration": 0.06666666666666643,
          "durationTicks": 16,
          "midi": 17,
          "name": "F0",
          "ticks": 3077,
          "time": 12.820833333333335,
          "velocity": 1
        },
        {
          "duration": 0.06666666666666288,
          "durationTicks": 16,
          "midi": 115,
          "name": "G8",
          "ticks": 4608,
          "time": 19.200000000000003,
          "velocity": 1
        },
        {
          "duration": 0.06666666666666288,
          "durationTicks": 16,
          "midi": 116,
          "name": "G#8",
          "ticks": 4608,
          "time": 19.200000000000003,
          "velocity": 1
        },
        {
          "duration": 0.0625,
          "durationTicks": 15,
          "midi": 114,
          "name": "F#8",
          "ticks": 4624,
          "time": 19.266666666666666,
          "velocity": 1
        },
        {
          "duration": 0.0625,
          "durationTicks": 15,
          "midi": 115,
          "name": "G8",
          "ticks": 4624,
          "time": 19.266666666666666,
          "velocity": 1
        },
        {
          "duration": 0.06666666666666998,
          "durationTicks": 16,
          "midi": 113,
          "name": "F8",
          "ticks": 4639,
          "time": 19.329166666666666,
          "velocity": 1
        },
        {
          "duration": 0.06666666666666998,
          "durationTicks": 16,
          "midi": 114,
          "name": "F#8",
          "ticks": 4639,
          "time": 19.329166666666666,
          "velocity": 1
        },
        {
          "duration": 0.06666666666666643,
          "durationTicks": 16,
          "midi": 112,
          "name": "E8",
          "ticks": 4655,
          "time": 19.395833333333336,
          "velocity": 1
        },
        {
          "duration": 0.06666666666666643,
          "durationTicks": 16,
          "midi": 113,
          "name": "F8",
          "ticks": 4655,
          "time": 19.395833333333336,
          "velocity": 1
        },
        {
          "duration": 0.06666666666666643,
          "durationTicks": 16,
          "midi": 111,
          "name": "D#8",
          "ticks": 4671,
          "time": 19.462500000000002,
          "velocity": 1
        },
        {
          "duration": 0.06666666666666643,
          "durationTicks": 16,
          "midi": 112,
          "name": "E8",
          "ticks": 4671,
          "time": 19.462500000000002,
          "velocity": 1
        },
        {
          "duration": 0.0625,
          "durationTicks": 15,
          "midi": 110,
          "name": "D8",
          "ticks": 4687,
          "time": 19.52916666666667,
          "velocity": 1
        },
        {
          "duration": 0.0625,
          "durationTicks": 15,
          "midi": 111,
          "name": "D#8",
          "ticks": 4687,
          "time": 19.52916666666667,
          "velocity": 1
        },
        {
          "duration": 0.06666666666666643,
          "durationTicks": 16,
          "midi": 109,
          "name": "C#8",
          "ticks": 4702,
          "time": 19.59166666666667,
          "velocity": 1
        },
        {
          "duration": 0.06666666666666643,
          "durationTicks": 16,
          "midi": 110,
          "name": "D8",
          "ticks": 4702,
          "time": 19.59166666666667,
          "velocity": 1
        },
        {
          "duration": 0.06666666666666643,
          "durationTicks": 16,
          "midi": 108,
          "name": "C8",
          "ticks": 4718,
          "time": 19.658333333333335,
          "velocity": 1
        },
        {
          "duration": 0.06666666666666643,
          "durationTicks": 16,
          "midi": 109,
          "name": "C#8",
          "ticks": 4718,
          "time": 19.658333333333335,
          "velocity": 1
        },
        {
          "duration": 0.06666666666666643,
          "durationTicks": 16,
          "midi": 107,
          "name": "B7",
          "ticks": 4734,
          "time": 19.725,
          "velocity": 1
        },
        {
          "duration": 0.06666666666666643,
          "durationTicks": 16,
          "midi": 108,
          "name": "C8",
          "ticks": 4734,
          "time": 19.725,
          "velocity": 1
        },
        {
          "duration": 0.0625,
          "durationTicks": 15,
          "midi": 106,
          "name": "A#7",
          "ticks": 4750,
          "time": 19.791666666666668,
          "velocity": 1
        },
        {
          "duration": 0.0625,
          "durationTicks": 15,
          "midi": 107,
          "name": "B7",
          "ticks": 4750,
          "time": 19.791666666666668,
          "velocity": 1
        },
        {
          "duration": 0.06666666666666643,
          "durationTicks": 16,
          "midi": 105,
          "name": "A7",
          "ticks": 4765,
          "time": 19.854166666666668,
          "velocity": 1
        },
        {
          "duration": 0.06666666666666643,
          "durationTicks": 16,
          "midi": 106,
          "name": "A#7",
          "ticks": 4765,
          "time": 19.854166666666668,
          "velocity": 1
        },
        {
          "duration": 0.06666666666666643,
          "durationTicks": 16,
          "midi": 104,
          "name": "G#7",
          "ticks": 4781,
          "time": 19.920833333333334,
          "velocity": 1
        },
        {
          "duration": 0.06666666666666643,
          "durationTicks": 16,
          "midi": 105,
          "name": "A7",
          "ticks": 4781,
          "time": 19.920833333333334,
          "velocity": 1
        },
        {
          "duration": 0.0625,
          "durationTicks": 15,
          "midi": 103,
          "name": "G7",
          "ticks": 4797,
          "time": 19.9875,
          "velocity": 1
        },
        {
          "duration": 0.0625,
          "durationTicks": 15,
          "midi": 104,
          "name": "G#7",
          "ticks": 4797,
          "time": 19.9875,
          "velocity": 1
        },
        {
          "duration": 0.06666666666666643,
          "durationTicks": 16,
          "midi": 102,
          "name": "F#7",
          "ticks": 4812,
          "time": 20.05,
          "velocity": 1
        },
        {
          "duration": 0.06666666666666643,
          "durationTicks": 16,
          "midi": 103,
          "name": "G7",
          "ticks": 4812,
          "time": 20.05,
          "velocity": 1
        },
        {
          "duration": 0.06666666666666998,
          "durationTicks": 16,
          "midi": 101,
          "name": "F7",
          "ticks": 4828,
          "time": 20.116666666666667,
          "velocity": 1
        },
        {
          "duration": 0.06666666666666998,
          "durationTicks": 16,
          "midi": 102,
          "name": "F#7",
          "ticks": 4828,
          "time": 20.116666666666667,
          "velocity": 1
        },
        {
          "duration": 0.06666666666666288,
          "durationTicks": 16,
          "midi": 100,
          "name": "E7",
          "ticks": 4844,
          "time": 20.183333333333337,
          "velocity": 1
        },
        {
          "duration": 0.06666666666666288,
          "durationTicks": 16,
          "midi": 101,
          "name": "F7",
          "ticks": 4844,
          "time": 20.183333333333337,
          "velocity": 1
        },
        {
          "duration": 0.0625,
          "durationTicks": 15,
          "midi": 99,
          "name": "D#7",
          "ticks": 4860,
          "time": 20.25,
          "velocity": 1
        },
        {
          "duration": 0.0625,
          "durationTicks": 15,
          "midi": 100,
          "name": "E7",
          "ticks": 4860,
          "time": 20.25,
          "velocity": 1
        },
        {
          "duration": 0.06666666666666643,
          "durationTicks": 16,
          "midi": 98,
          "name": "D7",
          "ticks": 4875,
          "time": 20.3125,
          "velocity": 1
        },
        {
          "duration": 0.06666666666666643,
          "durationTicks": 16,
          "midi": 99,
          "name": "D#7",
          "ticks": 4875,
          "time": 20.3125,
          "velocity": 1
        },
        {
          "duration": 0.06666666666666998,
          "durationTicks": 16,
          "midi": 97,
          "name": "C#7",
          "ticks": 4891,
          "time": 20.379166666666666,
          "velocity": 1
        },
        {
          "duration": 0.06666666666666998,
          "durationTicks": 16,
          "midi": 98,
          "name": "D7",
          "ticks": 4891,
          "time": 20.379166666666666,
          "velocity": 1
        },
        {
          "duration": 0.0625,
          "durationTicks": 15,
          "midi": 96,
          "name": "C7",
          "ticks": 4907,
          "time": 20.445833333333336,
          "velocity": 1
        },
        {
          "duration": 0.0625,
          "durationTicks": 15,
          "midi": 97,
          "name": "C#7",
          "ticks": 4907,
          "time": 20.445833333333336,
          "velocity": 1
        },
        {
          "duration": 0.06666666666666643,
          "durationTicks": 16,
          "midi": 95,
          "name": "B6",
          "ticks": 4922,
          "time": 20.508333333333336,
          "velocity": 1
        },
        {
          "duration": 0.06666666666666643,
          "durationTicks": 16,
          "midi": 96,
          "name": "C7",
          "ticks": 4922,
          "time": 20.508333333333336,
          "velocity": 1
        },
        {
          "duration": 0.06666666666666288,
          "durationTicks": 16,
          "midi": 94,
          "name": "A#6",
          "ticks": 4938,
          "time": 20.575000000000003,
          "velocity": 1
        },
        {
          "duration": 0.06666666666666288,
          "durationTicks": 16,
          "midi": 95,
          "name": "B6",
          "ticks": 4938,
          "time": 20.575000000000003,
          "velocity": 1
        },
        {
          "duration": 0.06666666666666998,
          "durationTicks": 16,
          "midi": 93,
          "name": "A6",
          "ticks": 4954,
          "time": 20.641666666666666,
          "velocity": 1
        },
        {
          "duration": 0.06666666666666998,
          "durationTicks": 16,
          "midi": 94,
          "name": "A#6",
          "ticks": 4954,
          "time": 20.641666666666666,
          "velocity": 1
        },
        {
          "duration": 0.0625,
          "durationTicks": 15,
          "midi": 92,
          "name": "G#6",
          "ticks": 4970,
          "time": 20.708333333333336,
          "velocity": 1
        },
        {
          "duration": 0.0625,
          "durationTicks": 15,
          "midi": 93,
          "name": "A6",
          "ticks": 4970,
          "time": 20.708333333333336,
          "velocity": 1
        },
        {
          "duration": 0.06666666666666643,
          "durationTicks": 16,
          "midi": 91,
          "name": "G6",
          "ticks": 4985,
          "time": 20.770833333333336,
          "velocity": 1
        },
        {
          "duration": 0.06666666666666643,
          "durationTicks": 16,
          "midi": 92,
          "name": "G#6",
          "ticks": 4985,
          "time": 20.770833333333336,
          "velocity": 1
        },
        {
          "duration": 0.06666666666666643,
          "durationTicks": 16,
          "midi": 90,
          "name": "F#6",
          "ticks": 5001,
          "time": 20.837500000000002,
          "velocity": 1
        },
        {
          "duration": 0.06666666666666643,
          "durationTicks": 16,
          "midi": 91,
          "name": "G6",
          "ticks": 5001,
          "time": 20.837500000000002,
          "velocity": 1
        },
        {
          "duration": 0.06666666666666643,
          "durationTicks": 16,
          "midi": 89,
          "name": "F6",
          "ticks": 5017,
          "time": 20.90416666666667,
          "velocity": 1
        },
        {
          "duration": 0.06666666666666643,
          "durationTicks": 16,
          "midi": 90,
          "name": "F#6",
          "ticks": 5017,
          "time": 20.90416666666667,
          "velocity": 1
        },
        {
          "duration": 0.0625,
          "durationTicks": 15,
          "midi": 88,
          "name": "E6",
          "ticks": 5033,
          "time": 20.970833333333335,
          "velocity": 1
        },
        {
          "duration": 0.0625,
          "durationTicks": 15,
          "midi": 89,
          "name": "F6",
          "ticks": 5033,
          "time": 20.970833333333335,
          "velocity": 1
        },
        {
          "duration": 0.06666666666666643,
          "durationTicks": 16,
          "midi": 87,
          "name": "D#6",
          "ticks": 5048,
          "time": 21.033333333333335,
          "velocity": 1
        },
        {
          "duration": 0.06666666666666643,
          "durationTicks": 16,
          "midi": 88,
          "name": "E6",
          "ticks": 5048,
          "time": 21.033333333333335,
          "velocity": 1
        },
        {
          "duration": 0.06666666666666643,
          "durationTicks": 16,
          "midi": 86,
          "name": "D6",
          "ticks": 5064,
          "time": 21.1,
          "velocity": 1
        },
        {
          "duration": 0.06666666666666643,
          "durationTicks": 16,
          "midi": 87,
          "name": "D#6",
          "ticks": 5064,
          "time": 21.1,
          "velocity": 1
        },
        {
          "duration": 0.0625,
          "durationTicks": 15,
          "midi": 85,
          "name": "C#6",
          "ticks": 5080,
          "time": 21.166666666666668,
          "velocity": 1
        },
        {
          "duration": 0.0625,
          "durationTicks": 15,
          "midi": 86,
          "name": "D6",
          "ticks": 5080,
          "time": 21.166666666666668,
          "velocity": 1
        },
        {
          "duration": 0.06666666666666643,
          "durationTicks": 16,
          "midi": 84,
          "name": "C6",
          "ticks": 5095,
          "time": 21.229166666666668,
          "velocity": 1
        },
        {
          "duration": 0.06666666666666643,
          "durationTicks": 16,
          "midi": 85,
          "name": "C#6",
          "ticks": 5095,
          "time": 21.229166666666668,
          "velocity": 1
        },
        {
          "duration": 0.06666666666666643,
          "durationTicks": 16,
          "midi": 83,
          "name": "B5",
          "ticks": 5111,
          "time": 21.295833333333334,
          "velocity": 1
        },
        {
          "duration": 0.06666666666666643,
          "durationTicks": 16,
          "midi": 84,
          "name": "C6",
          "ticks": 5111,
          "time": 21.295833333333334,
          "velocity": 1
        },
        {
          "duration": 0.06666666666666643,
          "durationTicks": 16,
          "midi": 82,
          "name": "A#5",
          "ticks": 5127,
          "time": 21.3625,
          "velocity": 1
        },
        {
          "duration": 0.06666666666666643,
          "durationTicks": 16,
          "midi": 83,
          "name": "B5",
          "ticks": 5127,
          "time": 21.3625,
          "velocity": 1
        },
        {
          "duration": 0.0625,
          "durationTicks": 15,
          "midi": 81,
          "name": "A5",
          "ticks": 5143,
          "time": 21.429166666666667,
          "velocity": 1
        },
        {
          "duration": 0.0625,
          "durationTicks": 15,
          "midi": 82,
          "name": "A#5",
          "ticks": 5143,
          "time": 21.429166666666667,
          "velocity": 1
        },
        {
          "duration": 0.06666666666666998,
          "durationTicks": 16,
          "midi": 80,
          "name": "G#5",
          "ticks": 5158,
          "time": 21.491666666666667,
          "velocity": 1
        },
        {
          "duration": 0.06666666666666998,
          "durationTicks": 16,
          "midi": 81,
          "name": "A5",
          "ticks": 5158,
          "time": 21.491666666666667,
          "velocity": 1
        },
        {
          "duration": 0.06666666666666288,
          "durationTicks": 16,
          "midi": 79,
          "name": "G5",
          "ticks": 5174,
          "time": 21.558333333333337,
          "velocity": 1
        },
        {
          "duration": 0.06666666666666288,
          "durationTicks": 16,
          "midi": 80,
          "name": "G#5",
          "ticks": 5174,
          "time": 21.558333333333337,
          "velocity": 1
        },
        {
          "duration": 0.06666666666666643,
          "durationTicks": 16,
          "midi": 78,
          "name": "F#5",
          "ticks": 5190,
          "time": 21.625,
          "velocity": 1
        },
        {
          "duration": 0.06666666666666643,
          "durationTicks": 16,
          "midi": 79,
          "name": "G5",
          "ticks": 5190,
          "time": 21.625,
          "velocity": 1
        },
        {
          "duration": 0.0625,
          "durationTicks": 15,
          "midi": 77,
          "name": "F5",
          "ticks": 5206,
          "time": 21.691666666666666,
          "velocity": 1
        },
        {
          "duration": 0.0625,
          "durationTicks": 15,
          "midi": 78,
          "name": "F#5",
          "ticks": 5206,
          "time": 21.691666666666666,
          "velocity": 1
        },
        {
          "duration": 0.06666666666666998,
          "durationTicks": 16,
          "midi": 76,
          "name": "E5",
          "ticks": 5221,
          "time": 21.754166666666666,
          "velocity": 1
        },
        {
          "duration": 0.06666666666666998,
          "durationTicks": 16,
          "midi": 77,
          "name": "F5",
          "ticks": 5221,
          "time": 21.754166666666666,
          "velocity": 1
        },
        {
          "duration": 0.06666666666666643,
          "durationTicks": 16,
          "midi": 75,
          "name": "D#5",
          "ticks": 5237,
          "time": 21.820833333333336,
          "velocity": 1
        },
        {
          "duration": 0.06666666666666643,
          "durationTicks": 16,
          "midi": 76,
          "name": "E5",
          "ticks": 5237,
          "time": 21.820833333333336,
          "velocity": 1
        },
        {
          "duration": 0.0625,
          "durationTicks": 15,
          "midi": 74,
          "name": "D5",
          "ticks": 5253,
          "time": 21.887500000000003,
          "velocity": 1
        },
        {
          "duration": 0.0625,
          "durationTicks": 15,
          "midi": 75,
          "name": "D#5",
          "ticks": 5253,
          "time": 21.887500000000003,
          "velocity": 1
        },
        {
          "duration": 0.06666666666666288,
          "durationTicks": 16,
          "midi": 73,
          "name": "C#5",
          "ticks": 5268,
          "time": 21.950000000000003,
          "velocity": 1
        },
        {
          "duration": 0.06666666666666288,
          "durationTicks": 16,
          "midi": 74,
          "name": "D5",
          "ticks": 5268,
          "time": 21.950000000000003,
          "velocity": 1
        },
        {
          "duration": 0.06666666666666998,
          "durationTicks": 16,
          "midi": 72,
          "name": "C5",
          "ticks": 5284,
          "time": 22.016666666666666,
          "velocity": 1
        },
        {
          "duration": 0.06666666666666998,
          "durationTicks": 16,
          "midi": 73,
          "name": "C#5",
          "ticks": 5284,
          "time": 22.016666666666666,
          "velocity": 1
        },
        {
          "duration": 0.06666666666666643,
          "durationTicks": 16,
          "midi": 71,
          "name": "B4",
          "ticks": 5300,
          "time": 22.083333333333336,
          "velocity": 1
        },
        {
          "duration": 0.06666666666666643,
          "durationTicks": 16,
          "midi": 72,
          "name": "C5",
          "ticks": 5300,
          "time": 22.083333333333336,
          "velocity": 1
        },
        {
          "duration": 0.0625,
          "durationTicks": 15,
          "midi": 70,
          "name": "A#4",
          "ticks": 5316,
          "time": 22.150000000000002,
          "velocity": 1
        },
        {
          "duration": 0.0625,
          "durationTicks": 15,
          "midi": 71,
          "name": "B4",
          "ticks": 5316,
          "time": 22.150000000000002,
          "velocity": 1
        },
        {
          "duration": 0.06666666666666643,
          "durationTicks": 16,
          "midi": 69,
          "name": "A4",
          "ticks": 5331,
          "time": 22.212500000000002,
          "velocity": 1
        },
        {
          "duration": 0.06666666666666643,
          "durationTicks": 16,
          "midi": 70,
          "name": "A#4",
          "ticks": 5331,
          "time": 22.212500000000002,
          "velocity": 1
        },
        {
          "duration": 0.06666666666666643,
          "durationTicks": 16,
          "midi": 68,
          "name": "G#4",
          "ticks": 5347,
          "time": 22.27916666666667,
          "velocity": 1
        },
        {
          "duration": 0.06666666666666643,
          "durationTicks": 16,
          "midi": 69,
          "name": "A4",
          "ticks": 5347,
          "time": 22.27916666666667,
          "velocity": 1
        },
        {
          "duration": 0.0625,
          "durationTicks": 15,
          "midi": 67,
          "name": "G4",
          "ticks": 5363,
          "time": 22.345833333333335,
          "velocity": 1
        },
        {
          "duration": 0.0625,
          "durationTicks": 15,
          "midi": 68,
          "name": "G#4",
          "ticks": 5363,
          "time": 22.345833333333335,
          "velocity": 1
        },
        {
          "duration": 0.06666666666666643,
          "durationTicks": 16,
          "midi": 67,
          "name": "G4",
          "ticks": 5378,
          "time": 22.408333333333335,
          "velocity": 1
        },
        {
          "duration": 0.06666666666666643,
          "durationTicks": 16,
          "midi": 66,
          "name": "F#4",
          "ticks": 5378,
          "time": 22.408333333333335,
          "velocity": 1
        },
        {
          "duration": 0.06666666666666643,
          "durationTicks": 16,
          "midi": 66,
          "name": "F#4",
          "ticks": 5394,
          "time": 22.475,
          "velocity": 1
        },
        {
          "duration": 0.06666666666666643,
          "durationTicks": 16,
          "midi": 65,
          "name": "F4",
          "ticks": 5394,
          "time": 22.475,
          "velocity": 1
        },
        {
          "duration": 0.06666666666666643,
          "durationTicks": 16,
          "midi": 65,
          "name": "F4",
          "ticks": 5410,
          "time": 22.541666666666668,
          "velocity": 1
        },
        {
          "duration": 0.06666666666666643,
          "durationTicks": 16,
          "midi": 64,
          "name": "E4",
          "ticks": 5410,
          "time": 22.541666666666668,
          "velocity": 1
        },
        {
          "duration": 0.0625,
          "durationTicks": 15,
          "midi": 63,
          "name": "D#4",
          "ticks": 5426,
          "time": 22.608333333333334,
          "velocity": 1
        },
        {
          "duration": 0.0625,
          "durationTicks": 15,
          "midi": 64,
          "name": "E4",
          "ticks": 5426,
          "time": 22.608333333333334,
          "velocity": 1
        },
        {
          "duration": 0.06666666666666643,
          "durationTicks": 16,
          "midi": 62,
          "name": "D4",
          "ticks": 5441,
          "time": 22.670833333333334,
          "velocity": 1
        },
        {
          "duration": 0.06666666666666643,
          "durationTicks": 16,
          "midi": 63,
          "name": "D#4",
          "ticks": 5441,
          "time": 22.670833333333334,
          "velocity": 1
        },
        {
          "duration": 0.06666666666666643,
          "durationTicks": 16,
          "midi": 61,
          "name": "C#4",
          "ticks": 5457,
          "time": 22.7375,
          "velocity": 1
        },
        {
          "duration": 0.06666666666666643,
          "durationTicks": 16,
          "midi": 62,
          "name": "D4",
          "ticks": 5457,
          "time": 22.7375,
          "velocity": 1
        },
        {
          "duration": 0.06666666666666998,
          "durationTicks": 16,
          "midi": 61,
          "name": "C#4",
          "ticks": 5473,
          "time": 22.804166666666667,
          "velocity": 1
        },
        {
          "duration": 0.06666666666666998,
          "durationTicks": 16,
          "midi": 60,
          "name": "C4",
          "ticks": 5473,
          "time": 22.804166666666667,
          "velocity": 1
        },
        {
          "duration": 0.0625,
          "durationTicks": 15,
          "midi": 60,
          "name": "C4",
          "ticks": 5489,
          "time": 22.870833333333337,
          "velocity": 1
        },
        {
          "duration": 0.0625,
          "durationTicks": 15,
          "midi": 59,
          "name": "B3",
          "ticks": 5489,
          "time": 22.870833333333337,
          "velocity": 1
        },
        {
          "duration": 0.06666666666666288,
          "durationTicks": 16,
          "midi": 59,
          "name": "B3",
          "ticks": 5504,
          "time": 22.933333333333337,
          "velocity": 1
        },
        {
          "duration": 0.06666666666666288,
          "durationTicks": 16,
          "midi": 58,
          "name": "A#3",
          "ticks": 5504,
          "time": 22.933333333333337,
          "velocity": 1
        },
        {
          "duration": 0.06666666666666643,
          "durationTicks": 16,
          "midi": 57,
          "name": "A3",
          "ticks": 5520,
          "time": 23,
          "velocity": 1
        },
        {
          "duration": 0.06666666666666643,
          "durationTicks": 16,
          "midi": 58,
          "name": "A#3",
          "ticks": 5520,
          "time": 23,
          "velocity": 1
        },
        {
          "duration": 0.0625,
          "durationTicks": 15,
          "midi": 56,
          "name": "G#3",
          "ticks": 5536,
          "time": 23.066666666666666,
          "velocity": 1
        },
        {
          "duration": 0.0625,
          "durationTicks": 15,
          "midi": 57,
          "name": "A3",
          "ticks": 5536,
          "time": 23.066666666666666,
          "velocity": 1
        },
        {
          "duration": 0.06666666666666998,
          "durationTicks": 16,
          "midi": 55,
          "name": "G3",
          "ticks": 5551,
          "time": 23.129166666666666,
          "velocity": 1
        },
        {
          "duration": 0.06666666666666998,
          "durationTicks": 16,
          "midi": 56,
          "name": "G#3",
          "ticks": 5551,
          "time": 23.129166666666666,
          "velocity": 1
        },
        {
          "duration": 0.06666666666666643,
          "durationTicks": 16,
          "midi": 54,
          "name": "F#3",
          "ticks": 5567,
          "time": 23.195833333333336,
          "velocity": 1
        },
        {
          "duration": 0.06666666666666643,
          "durationTicks": 16,
          "midi": 55,
          "name": "G3",
          "ticks": 5567,
          "time": 23.195833333333336,
          "velocity": 1
        },
        {
          "duration": 0.06666666666666288,
          "durationTicks": 16,
          "midi": 54,
          "name": "F#3",
          "ticks": 5583,
          "time": 23.262500000000003,
          "velocity": 1
        },
        {
          "duration": 0.06666666666666288,
          "durationTicks": 16,
          "midi": 53,
          "name": "F3",
          "ticks": 5583,
          "time": 23.262500000000003,
          "velocity": 1
        },
        {
          "duration": 0.0625,
          "durationTicks": 15,
          "midi": 53,
          "name": "F3",
          "ticks": 5599,
          "time": 23.329166666666666,
          "velocity": 1
        },
        {
          "duration": 0.0625,
          "durationTicks": 15,
          "midi": 52,
          "name": "E3",
          "ticks": 5599,
          "time": 23.329166666666666,
          "velocity": 1
        },
        {
          "duration": 0.06666666666666998,
          "durationTicks": 16,
          "midi": 52,
          "name": "E3",
          "ticks": 5614,
          "time": 23.391666666666666,
          "velocity": 1
        },
        {
          "duration": 0.06666666666666998,
          "durationTicks": 16,
          "midi": 51,
          "name": "D#3",
          "ticks": 5614,
          "time": 23.391666666666666,
          "velocity": 1
        },
        {
          "duration": 0.06666666666666643,
          "durationTicks": 16,
          "midi": 50,
          "name": "D3",
          "ticks": 5630,
          "time": 23.458333333333336,
          "velocity": 1
        },
        {
          "duration": 0.06666666666666643,
          "durationTicks": 16,
          "midi": 51,
          "name": "D#3",
          "ticks": 5630,
          "time": 23.458333333333336,
          "velocity": 1
        },
        {
          "duration": 0.06666666666666643,
          "durationTicks": 16,
          "midi": 49,
          "name": "C#3",
          "ticks": 5646,
          "time": 23.525000000000002,
          "velocity": 1
        },
        {
          "duration": 0.06666666666666643,
          "durationTicks": 16,
          "midi": 50,
          "name": "D3",
          "ticks": 5646,
          "time": 23.525000000000002,
          "velocity": 1
        },
        {
          "duration": 0.0625,
          "durationTicks": 15,
          "midi": 48,
          "name": "C3",
          "ticks": 5662,
          "time": 23.59166666666667,
          "velocity": 1
        },
        {
          "duration": 0.0625,
          "durationTicks": 15,
          "midi": 49,
          "name": "C#3",
          "ticks": 5662,
          "time": 23.59166666666667,
          "velocity": 1
        },
        {
          "duration": 0.06666666666666643,
          "durationTicks": 16,
          "midi": 47,
          "name": "B2",
          "ticks": 5677,
          "time": 23.65416666666667,
          "velocity": 1
        },
        {
          "duration": 0.06666666666666643,
          "durationTicks": 16,
          "midi": 48,
          "name": "C3",
          "ticks": 5677,
          "time": 23.65416666666667,
          "velocity": 1
        },
        {
          "duration": 0.06666666666666643,
          "durationTicks": 16,
          "midi": 46,
          "name": "A#2",
          "ticks": 5693,
          "time": 23.720833333333335,
          "velocity": 1
        },
        {
          "duration": 0.06666666666666643,
          "durationTicks": 16,
          "midi": 47,
          "name": "B2",
          "ticks": 5693,
          "time": 23.720833333333335,
          "velocity": 1
        },
        {
          "duration": 0.0625,
          "durationTicks": 15,
          "midi": 45,
          "name": "A2",
          "ticks": 5709,
          "time": 23.7875,
          "velocity": 1
        },
        {
          "duration": 0.0625,
          "durationTicks": 15,
          "midi": 46,
          "name": "A#2",
          "ticks": 5709,
          "time": 23.7875,
          "velocity": 1
        },
        {
          "duration": 0.06666666666666643,
          "durationTicks": 16,
          "midi": 44,
          "name": "G#2",
          "ticks": 5724,
          "time": 23.85,
          "velocity": 1
        },
        {
          "duration": 0.06666666666666643,
          "durationTicks": 16,
          "midi": 45,
          "name": "A2",
          "ticks": 5724,
          "time": 23.85,
          "velocity": 1
        },
        {
          "duration": 0.06666666666666643,
          "durationTicks": 16,
          "midi": 43,
          "name": "G2",
          "ticks": 5740,
          "time": 23.916666666666668,
          "velocity": 1
        },
        {
          "duration": 0.06666666666666643,
          "durationTicks": 16,
          "midi": 44,
          "name": "G#2",
          "ticks": 5740,
          "time": 23.916666666666668,
          "velocity": 1
        },
        {
          "duration": 0.06666666666666643,
          "durationTicks": 16,
          "midi": 42,
          "name": "F#2",
          "ticks": 5756,
          "time": 23.983333333333334,
          "velocity": 1
        },
        {
          "duration": 0.06666666666666643,
          "durationTicks": 16,
          "midi": 43,
          "name": "G2",
          "ticks": 5756,
          "time": 23.983333333333334,
          "velocity": 1
        },
        {
          "duration": 0.0625,
          "durationTicks": 15,
          "midi": 41,
          "name": "F2",
          "ticks": 5772,
          "time": 24.05,
          "velocity": 1
        },
        {
          "duration": 0.0625,
          "durationTicks": 15,
          "midi": 42,
          "name": "F#2",
          "ticks": 5772,
          "time": 24.05,
          "velocity": 1
        },
        {
          "duration": 0.06666666666666643,
          "durationTicks": 16,
          "midi": 40,
          "name": "E2",
          "ticks": 5787,
          "time": 24.1125,
          "velocity": 1
        },
        {
          "duration": 0.06666666666666643,
          "durationTicks": 16,
          "midi": 41,
          "name": "F2",
          "ticks": 5787,
          "time": 24.1125,
          "velocity": 1
        },
        {
          "duration": 0.06666666666666998,
          "durationTicks": 16,
          "midi": 39,
          "name": "D#2",
          "ticks": 5803,
          "time": 24.179166666666667,
          "velocity": 1
        },
        {
          "duration": 0.06666666666666998,
          "durationTicks": 16,
          "midi": 40,
          "name": "E2",
          "ticks": 5803,
          "time": 24.179166666666667,
          "velocity": 1
        },
        {
          "duration": 0.0625,
          "durationTicks": 15,
          "midi": 39,
          "name": "D#2",
          "ticks": 5819,
          "time": 24.245833333333337,
          "velocity": 1
        },
        {
          "duration": 0.0625,
          "durationTicks": 15,
          "midi": 38,
          "name": "D2",
          "ticks": 5819,
          "time": 24.245833333333337,
          "velocity": 1
        },
        {
          "duration": 0.06666666666666288,
          "durationTicks": 16,
          "midi": 38,
          "name": "D2",
          "ticks": 5834,
          "time": 24.308333333333337,
          "velocity": 1
        },
        {
          "duration": 0.06666666666666288,
          "durationTicks": 16,
          "midi": 37,
          "name": "C#2",
          "ticks": 5834,
          "time": 24.308333333333337,
          "velocity": 1
        },
        {
          "duration": 0.06666666666666643,
          "durationTicks": 16,
          "midi": 36,
          "name": "C2",
          "ticks": 5850,
          "time": 24.375,
          "velocity": 1
        },
        {
          "duration": 0.06666666666666643,
          "durationTicks": 16,
          "midi": 37,
          "name": "C#2",
          "ticks": 5850,
          "time": 24.375,
          "velocity": 1
        },
        {
          "duration": 0.06666666666666998,
          "durationTicks": 16,
          "midi": 36,
          "name": "C2",
          "ticks": 5866,
          "time": 24.441666666666666,
          "velocity": 1
        },
        {
          "duration": 0.06666666666666998,
          "durationTicks": 16,
          "midi": 35,
          "name": "B1",
          "ticks": 5866,
          "time": 24.441666666666666,
          "velocity": 1
        },
        {
          "duration": 0.0625,
          "durationTicks": 15,
          "midi": 35,
          "name": "B1",
          "ticks": 5882,
          "time": 24.508333333333336,
          "velocity": 1
        },
        {
          "duration": 0.0625,
          "durationTicks": 15,
          "midi": 34,
          "name": "A#1",
          "ticks": 5882,
          "time": 24.508333333333336,
          "velocity": 1
        },
        {
          "duration": 0.06666666666666643,
          "durationTicks": 16,
          "midi": 33,
          "name": "A1",
          "ticks": 5897,
          "time": 24.570833333333336,
          "velocity": 1
        },
        {
          "duration": 0.06666666666666643,
          "durationTicks": 16,
          "midi": 34,
          "name": "A#1",
          "ticks": 5897,
          "time": 24.570833333333336,
          "velocity": 1
        },
        {
          "duration": 0.06666666666666288,
          "durationTicks": 16,
          "midi": 33,
          "name": "A1",
          "ticks": 5913,
          "time": 24.637500000000003,
          "velocity": 1
        },
        {
          "duration": 0.06666666666666288,
          "durationTicks": 16,
          "midi": 32,
          "name": "G#1",
          "ticks": 5913,
          "time": 24.637500000000003,
          "velocity": 1
        },
        {
          "duration": 0.06666666666666998,
          "durationTicks": 16,
          "midi": 32,
          "name": "G#1",
          "ticks": 5929,
          "time": 24.704166666666666,
          "velocity": 1
        },
        {
          "duration": 0.06666666666666998,
          "durationTicks": 16,
          "midi": 31,
          "name": "G1",
          "ticks": 5929,
          "time": 24.704166666666666,
          "velocity": 1
        },
        {
          "duration": 0.0625,
          "durationTicks": 15,
          "midi": 30,
          "name": "F#1",
          "ticks": 5945,
          "time": 24.770833333333336,
          "velocity": 1
        },
        {
          "duration": 0.0625,
          "durationTicks": 15,
          "midi": 31,
          "name": "G1",
          "ticks": 5945,
          "time": 24.770833333333336,
          "velocity": 1
        },
        {
          "duration": 0.06666666666666643,
          "durationTicks": 16,
          "midi": 30,
          "name": "F#1",
          "ticks": 5960,
          "time": 24.833333333333336,
          "velocity": 1
        },
        {
          "duration": 0.06666666666666643,
          "durationTicks": 16,
          "midi": 29,
          "name": "F1",
          "ticks": 5960,
          "time": 24.833333333333336,
          "velocity": 1
        },
        {
          "duration": 0.06666666666666643,
          "durationTicks": 16,
          "midi": 29,
          "name": "F1",
          "ticks": 5976,
          "time": 24.900000000000002,
          "velocity": 1
        },
        {
          "duration": 0.06666666666666643,
          "durationTicks": 16,
          "midi": 28,
          "name": "E1",
          "ticks": 5976,
          "time": 24.900000000000002,
          "velocity": 1
        },
        {
          "duration": 0.0625,
          "durationTicks": 15,
          "midi": 27,
          "name": "D#1",
          "ticks": 5992,
          "time": 24.96666666666667,
          "velocity": 1
        },
        {
          "duration": 0.0625,
          "durationTicks": 15,
          "midi": 28,
          "name": "E1",
          "ticks": 5992,
          "time": 24.96666666666667,
          "velocity": 1
        },
        {
          "duration": 0.06666666666666643,
          "durationTicks": 16,
          "midi": 27,
          "name": "D#1",
          "ticks": 6007,
          "time": 25.02916666666667,
          "velocity": 1
        },
        {
          "duration": 0.06666666666666643,
          "durationTicks": 16,
          "midi": 26,
          "name": "D1",
          "ticks": 6007,
          "time": 25.02916666666667,
          "velocity": 1
        },
        {
          "duration": 0.06666666666666643,
          "durationTicks": 16,
          "midi": 26,
          "name": "D1",
          "ticks": 6023,
          "time": 25.095833333333335,
          "velocity": 1
        },
        {
          "duration": 0.06666666666666643,
          "durationTicks": 16,
          "midi": 25,
          "name": "C#1",
          "ticks": 6023,
          "time": 25.095833333333335,
          "velocity": 1
        },
        {
          "duration": 0.06666666666666643,
          "durationTicks": 16,
          "midi": 24,
          "name": "C1",
          "ticks": 6039,
          "time": 25.1625,
          "velocity": 1
        },
        {
          "duration": 0.06666666666666643,
          "durationTicks": 16,
          "midi": 25,
          "name": "C#1",
          "ticks": 6039,
          "time": 25.1625,
          "velocity": 1
        },
        {
          "duration": 0.0625,
          "durationTicks": 15,
          "midi": 24,
          "name": "C1",
          "ticks": 6055,
          "time": 25.229166666666668,
          "velocity": 1
        },
        {
          "duration": 0.0625,
          "durationTicks": 15,
          "midi": 23,
          "name": "B0",
          "ticks": 6055,
          "time": 25.229166666666668,
          "velocity": 1
        },
        {
          "duration": 0.06666666666666643,
          "durationTicks": 16,
          "midi": 23,
          "name": "B0",
          "ticks": 6070,
          "time": 25.291666666666668,
          "velocity": 1
        },
        {
          "duration": 0.06666666666666643,
          "durationTicks": 16,
          "midi": 22,
          "name": "A#0",
          "ticks": 6070,
          "time": 25.291666666666668,
          "velocity": 1
        },
        {
          "duration": 0.06666666666666643,
          "durationTicks": 16,
          "midi": 21,
          "name": "A0",
          "ticks": 6086,
          "time": 25.358333333333334,
          "velocity": 1
        },
        {
          "duration": 0.06666666666666643,
          "durationTicks": 16,
          "midi": 22,
          "name": "A#0",
          "ticks": 6086,
          "time": 25.358333333333334,
          "velocity": 1
        },
        {
          "duration": 0.06666666666666643,
          "durationTicks": 16,
          "midi": 21,
          "name": "A0",
          "ticks": 6102,
          "time": 25.425,
          "velocity": 1
        },
        {
          "duration": 0.06666666666666643,
          "durationTicks": 16,
          "midi": 20,
          "name": "G#0",
          "ticks": 6102,
          "time": 25.425,
          "velocity": 1
        },
        {
          "duration": 0.0625,
          "durationTicks": 15,
          "midi": 20,
          "name": "G#0",
          "ticks": 6118,
          "time": 25.491666666666667,
          "velocity": 1
        },
        {
          "duration": 0.0625,
          "durationTicks": 15,
          "midi": 19,
          "name": "G0",
          "ticks": 6118,
          "time": 25.491666666666667,
          "velocity": 1
        },
        {
          "duration": 0.06666666666666643,
          "durationTicks": 16,
          "midi": 18,
          "name": "F#0",
          "ticks": 6133,
          "time": 25.554166666666667,
          "velocity": 1
        },
        {
          "duration": 0.06666666666666643,
          "durationTicks": 16,
          "midi": 19,
          "name": "G0",
          "ticks": 6133,
          "time": 25.554166666666667,
          "velocity": 1
        },
        {
          "duration": 0.06666666666666643,
          "durationTicks": 16,
          "midi": 18,
          "name": "F#0",
          "ticks": 6149,
          "time": 25.620833333333334,
          "velocity": 1
        },
        {
          "duration": 0.06666666666666643,
          "durationTicks": 16,
          "midi": 17,
          "name": "F0",
          "ticks": 6149,
          "time": 25.620833333333334,
          "velocity": 1
        },
        {
          "duration": 0.06666666666666288,
          "durationTicks": 16,
          "midi": 115,
          "name": "G8",
          "ticks": 17664,
          "time": 73.60000000000001,
          "velocity": 1
        },
        {
          "duration": 0.06666666666666288,
          "durationTicks": 16,
          "midi": 116,
          "name": "G#8",
          "ticks": 17664,
          "time": 73.60000000000001,
          "velocity": 1
        },
        {
          "duration": 0.0625,
          "durationTicks": 15,
          "midi": 114,
          "name": "F#8",
          "ticks": 17680,
          "time": 73.66666666666667,
          "velocity": 1
        },
        {
          "duration": 0.0625,
          "durationTicks": 15,
          "midi": 115,
          "name": "G8",
          "ticks": 17680,
          "time": 73.66666666666667,
          "velocity": 1
        },
        {
          "duration": 0.06666666666666288,
          "durationTicks": 16,
          "midi": 113,
          "name": "F8",
          "ticks": 17695,
          "time": 73.72916666666667,
          "velocity": 1
        },
        {
          "duration": 0.06666666666666288,
          "durationTicks": 16,
          "midi": 114,
          "name": "F#8",
          "ticks": 17695,
          "time": 73.72916666666667,
          "velocity": 1
        },
        {
          "duration": 0.06666666666666288,
          "durationTicks": 16,
          "midi": 112,
          "name": "E8",
          "ticks": 17711,
          "time": 73.79583333333333,
          "velocity": 1
        },
        {
          "duration": 0.06666666666666288,
          "durationTicks": 16,
          "midi": 113,
          "name": "F8",
          "ticks": 17711,
          "time": 73.79583333333333,
          "velocity": 1
        },
        {
          "duration": 0.06666666666666288,
          "durationTicks": 16,
          "midi": 111,
          "name": "D#8",
          "ticks": 17727,
          "time": 73.8625,
          "velocity": 1
        },
        {
          "duration": 0.06666666666666288,
          "durationTicks": 16,
          "midi": 112,
          "name": "E8",
          "ticks": 17727,
          "time": 73.8625,
          "velocity": 1
        },
        {
          "duration": 0.0625,
          "durationTicks": 15,
          "midi": 110,
          "name": "D8",
          "ticks": 17743,
          "time": 73.92916666666666,
          "velocity": 1
        },
        {
          "duration": 0.0625,
          "durationTicks": 15,
          "midi": 111,
          "name": "D#8",
          "ticks": 17743,
          "time": 73.92916666666666,
          "velocity": 1
        },
        {
          "duration": 0.06666666666667709,
          "durationTicks": 16,
          "midi": 109,
          "name": "C#8",
          "ticks": 17758,
          "time": 73.99166666666666,
          "velocity": 1
        },
        {
          "duration": 0.06666666666667709,
          "durationTicks": 16,
          "midi": 110,
          "name": "D8",
          "ticks": 17758,
          "time": 73.99166666666666,
          "velocity": 1
        },
        {
          "duration": 0.06666666666666288,
          "durationTicks": 16,
          "midi": 108,
          "name": "C8",
          "ticks": 17774,
          "time": 74.05833333333334,
          "velocity": 1
        },
        {
          "duration": 0.06666666666666288,
          "durationTicks": 16,
          "midi": 109,
          "name": "C#8",
          "ticks": 17774,
          "time": 74.05833333333334,
          "velocity": 1
        },
        {
          "duration": 0.06666666666666288,
          "durationTicks": 16,
          "midi": 107,
          "name": "B7",
          "ticks": 17790,
          "time": 74.125,
          "velocity": 1
        },
        {
          "duration": 0.06666666666666288,
          "durationTicks": 16,
          "midi": 108,
          "name": "C8",
          "ticks": 17790,
          "time": 74.125,
          "velocity": 1
        },
        {
          "duration": 0.0625,
          "durationTicks": 15,
          "midi": 106,
          "name": "A#7",
          "ticks": 17806,
          "time": 74.19166666666666,
          "velocity": 1
        },
        {
          "duration": 0.0625,
          "durationTicks": 15,
          "midi": 107,
          "name": "B7",
          "ticks": 17806,
          "time": 74.19166666666666,
          "velocity": 1
        },
        {
          "duration": 0.06666666666667709,
          "durationTicks": 16,
          "midi": 105,
          "name": "A7",
          "ticks": 17821,
          "time": 74.25416666666666,
          "velocity": 1
        },
        {
          "duration": 0.06666666666667709,
          "durationTicks": 16,
          "midi": 106,
          "name": "A#7",
          "ticks": 17821,
          "time": 74.25416666666666,
          "velocity": 1
        },
        {
          "duration": 0.06666666666666288,
          "durationTicks": 16,
          "midi": 104,
          "name": "G#7",
          "ticks": 17837,
          "time": 74.32083333333334,
          "velocity": 1
        },
        {
          "duration": 0.06666666666666288,
          "durationTicks": 16,
          "midi": 105,
          "name": "A7",
          "ticks": 17837,
          "time": 74.32083333333334,
          "velocity": 1
        },
        {
          "duration": 0.0625,
          "durationTicks": 15,
          "midi": 103,
          "name": "G7",
          "ticks": 17853,
          "time": 74.3875,
          "velocity": 1
        },
        {
          "duration": 0.0625,
          "durationTicks": 15,
          "midi": 104,
          "name": "G#7",
          "ticks": 17853,
          "time": 74.3875,
          "velocity": 1
        },
        {
          "duration": 0.06666666666666288,
          "durationTicks": 16,
          "midi": 103,
          "name": "G7",
          "ticks": 17868,
          "time": 74.45,
          "velocity": 1
        },
        {
          "duration": 0.06666666666666288,
          "durationTicks": 16,
          "midi": 102,
          "name": "F#7",
          "ticks": 17868,
          "time": 74.45,
          "velocity": 1
        },
        {
          "duration": 0.06666666666667709,
          "durationTicks": 16,
          "midi": 102,
          "name": "F#7",
          "ticks": 17884,
          "time": 74.51666666666667,
          "velocity": 1
        },
        {
          "duration": 0.06666666666667709,
          "durationTicks": 16,
          "midi": 101,
          "name": "F7",
          "ticks": 17884,
          "time": 74.51666666666667,
          "velocity": 1
        },
        {
          "duration": 0.06666666666666288,
          "durationTicks": 16,
          "midi": 101,
          "name": "F7",
          "ticks": 17900,
          "time": 74.58333333333334,
          "velocity": 1
        },
        {
          "duration": 0.06666666666666288,
          "durationTicks": 16,
          "midi": 100,
          "name": "E7",
          "ticks": 17900,
          "time": 74.58333333333334,
          "velocity": 1
        },
        {
          "duration": 0.0625,
          "durationTicks": 15,
          "midi": 100,
          "name": "E7",
          "ticks": 17916,
          "time": 74.65,
          "velocity": 1
        },
        {
          "duration": 0.0625,
          "durationTicks": 15,
          "midi": 99,
          "name": "D#7",
          "ticks": 17916,
          "time": 74.65,
          "velocity": 1
        },
        {
          "duration": 0.06666666666666288,
          "durationTicks": 16,
          "midi": 99,
          "name": "D#7",
          "ticks": 17931,
          "time": 74.7125,
          "velocity": 1
        },
        {
          "duration": 0.06666666666666288,
          "durationTicks": 16,
          "midi": 98,
          "name": "D7",
          "ticks": 17931,
          "time": 74.7125,
          "velocity": 1
        },
        {
          "duration": 0.06666666666667709,
          "durationTicks": 16,
          "midi": 98,
          "name": "D7",
          "ticks": 17947,
          "time": 74.77916666666667,
          "velocity": 1
        },
        {
          "duration": 0.06666666666667709,
          "durationTicks": 16,
          "midi": 97,
          "name": "C#7",
          "ticks": 17947,
          "time": 74.77916666666667,
          "velocity": 1
        },
        {
          "duration": 0.0625,
          "durationTicks": 15,
          "midi": 97,
          "name": "C#7",
          "ticks": 17963,
          "time": 74.84583333333335,
          "velocity": 1
        },
        {
          "duration": 0.0625,
          "durationTicks": 15,
          "midi": 96,
          "name": "C7",
          "ticks": 17963,
          "time": 74.84583333333335,
          "velocity": 1
        },
        {
          "duration": 0.06666666666666288,
          "durationTicks": 16,
          "midi": 96,
          "name": "C7",
          "ticks": 17978,
          "time": 74.90833333333335,
          "velocity": 1
        },
        {
          "duration": 0.06666666666666288,
          "durationTicks": 16,
          "midi": 95,
          "name": "B6",
          "ticks": 17978,
          "time": 74.90833333333335,
          "velocity": 1
        },
        {
          "duration": 0.06666666666666288,
          "durationTicks": 16,
          "midi": 95,
          "name": "B6",
          "ticks": 17994,
          "time": 74.97500000000001,
          "velocity": 1
        },
        {
          "duration": 0.06666666666666288,
          "durationTicks": 16,
          "midi": 94,
          "name": "A#6",
          "ticks": 17994,
          "time": 74.97500000000001,
          "velocity": 1
        },
        {
          "duration": 0.06666666666666288,
          "durationTicks": 16,
          "midi": 94,
          "name": "A#6",
          "ticks": 18010,
          "time": 75.04166666666667,
          "velocity": 1
        },
        {
          "duration": 0.06666666666666288,
          "durationTicks": 16,
          "midi": 93,
          "name": "A6",
          "ticks": 18010,
          "time": 75.04166666666667,
          "velocity": 1
        },
        {
          "duration": 0.0625,
          "durationTicks": 15,
          "midi": 93,
          "name": "A6",
          "ticks": 18026,
          "time": 75.10833333333333,
          "velocity": 1
        },
        {
          "duration": 0.0625,
          "durationTicks": 15,
          "midi": 92,
          "name": "G#6",
          "ticks": 18026,
          "time": 75.10833333333333,
          "velocity": 1
        },
        {
          "duration": 0.06666666666666288,
          "durationTicks": 16,
          "midi": 92,
          "name": "G#6",
          "ticks": 18041,
          "time": 75.17083333333333,
          "velocity": 1
        },
        {
          "duration": 0.06666666666666288,
          "durationTicks": 16,
          "midi": 91,
          "name": "G6",
          "ticks": 18041,
          "time": 75.17083333333333,
          "velocity": 1
        },
        {
          "duration": 0.06666666666666288,
          "durationTicks": 16,
          "midi": 91,
          "name": "G6",
          "ticks": 18057,
          "time": 75.2375,
          "velocity": 1
        },
        {
          "duration": 0.06666666666666288,
          "durationTicks": 16,
          "midi": 90,
          "name": "F#6",
          "ticks": 18057,
          "time": 75.2375,
          "velocity": 1
        },
        {
          "duration": 0.06666666666667709,
          "durationTicks": 16,
          "midi": 90,
          "name": "F#6",
          "ticks": 18073,
          "time": 75.30416666666666,
          "velocity": 1
        },
        {
          "duration": 0.06666666666667709,
          "durationTicks": 16,
          "midi": 89,
          "name": "F6",
          "ticks": 18073,
          "time": 75.30416666666666,
          "velocity": 1
        },
        {
          "duration": 0.0625,
          "durationTicks": 15,
          "midi": 89,
          "name": "F6",
          "ticks": 18089,
          "time": 75.37083333333334,
          "velocity": 1
        },
        {
          "duration": 0.0625,
          "durationTicks": 15,
          "midi": 88,
          "name": "E6",
          "ticks": 18089,
          "time": 75.37083333333334,
          "velocity": 1
        },
        {
          "duration": 0.06666666666666288,
          "durationTicks": 16,
          "midi": 88,
          "name": "E6",
          "ticks": 18104,
          "time": 75.43333333333334,
          "velocity": 1
        },
        {
          "duration": 0.06666666666666288,
          "durationTicks": 16,
          "midi": 87,
          "name": "D#6",
          "ticks": 18104,
          "time": 75.43333333333334,
          "velocity": 1
        },
        {
          "duration": 0.06666666666666288,
          "durationTicks": 16,
          "midi": 87,
          "name": "D#6",
          "ticks": 18120,
          "time": 75.5,
          "velocity": 1
        },
        {
          "duration": 0.06666666666666288,
          "durationTicks": 16,
          "midi": 86,
          "name": "D6",
          "ticks": 18120,
          "time": 75.5,
          "velocity": 1
        },
        {
          "duration": 0.0625,
          "durationTicks": 15,
          "midi": 86,
          "name": "D6",
          "ticks": 18136,
          "time": 75.56666666666666,
          "velocity": 1
        },
        {
          "duration": 0.0625,
          "durationTicks": 15,
          "midi": 85,
          "name": "C#6",
          "ticks": 18136,
          "time": 75.56666666666666,
          "velocity": 1
        },
        {
          "duration": 0.06666666666667709,
          "durationTicks": 16,
          "midi": 85,
          "name": "C#6",
          "ticks": 18151,
          "time": 75.62916666666666,
          "velocity": 1
        },
        {
          "duration": 0.06666666666667709,
          "durationTicks": 16,
          "midi": 84,
          "name": "C6",
          "ticks": 18151,
          "time": 75.62916666666666,
          "velocity": 1
        },
        {
          "duration": 0.06666666666666288,
          "durationTicks": 16,
          "midi": 84,
          "name": "C6",
          "ticks": 18167,
          "time": 75.69583333333334,
          "velocity": 1
        },
        {
          "duration": 0.06666666666666288,
          "durationTicks": 16,
          "midi": 83,
          "name": "B5",
          "ticks": 18167,
          "time": 75.69583333333334,
          "velocity": 1
        },
        {
          "duration": 0.06666666666666288,
          "durationTicks": 16,
          "midi": 83,
          "name": "B5",
          "ticks": 18183,
          "time": 75.7625,
          "velocity": 1
        },
        {
          "duration": 0.06666666666666288,
          "durationTicks": 16,
          "midi": 82,
          "name": "A#5",
          "ticks": 18183,
          "time": 75.7625,
          "velocity": 1
        },
        {
          "duration": 0.0625,
          "durationTicks": 15,
          "midi": 81,
          "name": "A5",
          "ticks": 18199,
          "time": 75.82916666666667,
          "velocity": 1
        },
        {
          "duration": 0.0625,
          "durationTicks": 15,
          "midi": 82,
          "name": "A#5",
          "ticks": 18199,
          "time": 75.82916666666667,
          "velocity": 1
        },
        {
          "duration": 0.06666666666667709,
          "durationTicks": 16,
          "midi": 80,
          "name": "G#5",
          "ticks": 18214,
          "time": 75.89166666666667,
          "velocity": 1
        },
        {
          "duration": 0.06666666666667709,
          "durationTicks": 16,
          "midi": 81,
          "name": "A5",
          "ticks": 18214,
          "time": 75.89166666666667,
          "velocity": 1
        },
        {
          "duration": 0.06666666666666288,
          "durationTicks": 16,
          "midi": 79,
          "name": "G5",
          "ticks": 18230,
          "time": 75.95833333333334,
          "velocity": 1
        },
        {
          "duration": 0.06666666666666288,
          "durationTicks": 16,
          "midi": 80,
          "name": "G#5",
          "ticks": 18230,
          "time": 75.95833333333334,
          "velocity": 1
        },
        {
          "duration": 0.06666666666666288,
          "durationTicks": 16,
          "midi": 78,
          "name": "F#5",
          "ticks": 18246,
          "time": 76.025,
          "velocity": 1
        },
        {
          "duration": 0.06666666666666288,
          "durationTicks": 16,
          "midi": 79,
          "name": "G5",
          "ticks": 18246,
          "time": 76.025,
          "velocity": 1
        },
        {
          "duration": 0.0625,
          "durationTicks": 15,
          "midi": 77,
          "name": "F5",
          "ticks": 18262,
          "time": 76.09166666666667,
          "velocity": 1
        },
        {
          "duration": 0.0625,
          "durationTicks": 15,
          "midi": 78,
          "name": "F#5",
          "ticks": 18262,
          "time": 76.09166666666667,
          "velocity": 1
        },
        {
          "duration": 0.06666666666667709,
          "durationTicks": 16,
          "midi": 76,
          "name": "E5",
          "ticks": 18277,
          "time": 76.15416666666667,
          "velocity": 1
        },
        {
          "duration": 0.06666666666667709,
          "durationTicks": 16,
          "midi": 77,
          "name": "F5",
          "ticks": 18277,
          "time": 76.15416666666667,
          "velocity": 1
        },
        {
          "duration": 0.06666666666666288,
          "durationTicks": 16,
          "midi": 75,
          "name": "D#5",
          "ticks": 18293,
          "time": 76.22083333333335,
          "velocity": 1
        },
        {
          "duration": 0.06666666666666288,
          "durationTicks": 16,
          "midi": 76,
          "name": "E5",
          "ticks": 18293,
          "time": 76.22083333333335,
          "velocity": 1
        },
        {
          "duration": 0.0625,
          "durationTicks": 15,
          "midi": 74,
          "name": "D5",
          "ticks": 18309,
          "time": 76.28750000000001,
          "velocity": 1
        },
        {
          "duration": 0.0625,
          "durationTicks": 15,
          "midi": 75,
          "name": "D#5",
          "ticks": 18309,
          "time": 76.28750000000001,
          "velocity": 1
        },
        {
          "duration": 0.06666666666666288,
          "durationTicks": 16,
          "midi": 73,
          "name": "C#5",
          "ticks": 18324,
          "time": 76.35000000000001,
          "velocity": 1
        },
        {
          "duration": 0.06666666666666288,
          "durationTicks": 16,
          "midi": 74,
          "name": "D5",
          "ticks": 18324,
          "time": 76.35000000000001,
          "velocity": 1
        },
        {
          "duration": 0.06666666666666288,
          "durationTicks": 16,
          "midi": 72,
          "name": "C5",
          "ticks": 18340,
          "time": 76.41666666666667,
          "velocity": 1
        },
        {
          "duration": 0.06666666666666288,
          "durationTicks": 16,
          "midi": 73,
          "name": "C#5",
          "ticks": 18340,
          "time": 76.41666666666667,
          "velocity": 1
        },
        {
          "duration": 0.06666666666666288,
          "durationTicks": 16,
          "midi": 71,
          "name": "B4",
          "ticks": 18356,
          "time": 76.48333333333333,
          "velocity": 1
        },
        {
          "duration": 0.06666666666666288,
          "durationTicks": 16,
          "midi": 72,
          "name": "C5",
          "ticks": 18356,
          "time": 76.48333333333333,
          "velocity": 1
        },
        {
          "duration": 0.0625,
          "durationTicks": 15,
          "midi": 70,
          "name": "A#4",
          "ticks": 18372,
          "time": 76.55,
          "velocity": 1
        },
        {
          "duration": 0.0625,
          "durationTicks": 15,
          "midi": 71,
          "name": "B4",
          "ticks": 18372,
          "time": 76.55,
          "velocity": 1
        },
        {
          "duration": 0.06666666666666288,
          "durationTicks": 16,
          "midi": 69,
          "name": "A4",
          "ticks": 18387,
          "time": 76.6125,
          "velocity": 1
        },
        {
          "duration": 0.06666666666666288,
          "durationTicks": 16,
          "midi": 70,
          "name": "A#4",
          "ticks": 18387,
          "time": 76.6125,
          "velocity": 1
        },
        {
          "duration": 0.06666666666667709,
          "durationTicks": 16,
          "midi": 68,
          "name": "G#4",
          "ticks": 18403,
          "time": 76.67916666666666,
          "velocity": 1
        },
        {
          "duration": 0.06666666666667709,
          "durationTicks": 16,
          "midi": 69,
          "name": "A4",
          "ticks": 18403,
          "time": 76.67916666666666,
          "velocity": 1
        },
        {
          "duration": 0.0625,
          "durationTicks": 15,
          "midi": 67,
          "name": "G4",
          "ticks": 18419,
          "time": 76.74583333333334,
          "velocity": 1
        },
        {
          "duration": 0.0625,
          "durationTicks": 15,
          "midi": 68,
          "name": "G#4",
          "ticks": 18419,
          "time": 76.74583333333334,
          "velocity": 1
        },
        {
          "duration": 0.06666666666666288,
          "durationTicks": 16,
          "midi": 66,
          "name": "F#4",
          "ticks": 18434,
          "time": 76.80833333333334,
          "velocity": 1
        },
        {
          "duration": 0.06666666666666288,
          "durationTicks": 16,
          "midi": 67,
          "name": "G4",
          "ticks": 18434,
          "time": 76.80833333333334,
          "velocity": 1
        },
        {
          "duration": 0.06666666666666288,
          "durationTicks": 16,
          "midi": 65,
          "name": "F4",
          "ticks": 18450,
          "time": 76.875,
          "velocity": 1
        },
        {
          "duration": 0.06666666666666288,
          "durationTicks": 16,
          "midi": 66,
          "name": "F#4",
          "ticks": 18450,
          "time": 76.875,
          "velocity": 1
        },
        {
          "duration": 0.06666666666667709,
          "durationTicks": 16,
          "midi": 64,
          "name": "E4",
          "ticks": 18466,
          "time": 76.94166666666666,
          "velocity": 1
        },
        {
          "duration": 0.06666666666667709,
          "durationTicks": 16,
          "midi": 65,
          "name": "F4",
          "ticks": 18466,
          "time": 76.94166666666666,
          "velocity": 1
        },
        {
          "duration": 0.0625,
          "durationTicks": 15,
          "midi": 63,
          "name": "D#4",
          "ticks": 18482,
          "time": 77.00833333333334,
          "velocity": 1
        },
        {
          "duration": 0.0625,
          "durationTicks": 15,
          "midi": 64,
          "name": "E4",
          "ticks": 18482,
          "time": 77.00833333333334,
          "velocity": 1
        },
        {
          "duration": 0.06666666666666288,
          "durationTicks": 16,
          "midi": 62,
          "name": "D4",
          "ticks": 18497,
          "time": 77.07083333333334,
          "velocity": 1
        },
        {
          "duration": 0.06666666666666288,
          "durationTicks": 16,
          "midi": 63,
          "name": "D#4",
          "ticks": 18497,
          "time": 77.07083333333334,
          "velocity": 1
        },
        {
          "duration": 0.06666666666666288,
          "durationTicks": 16,
          "midi": 61,
          "name": "C#4",
          "ticks": 18513,
          "time": 77.1375,
          "velocity": 1
        },
        {
          "duration": 0.06666666666666288,
          "durationTicks": 16,
          "midi": 62,
          "name": "D4",
          "ticks": 18513,
          "time": 77.1375,
          "velocity": 1
        },
        {
          "duration": 0.06666666666667709,
          "durationTicks": 16,
          "midi": 60,
          "name": "C4",
          "ticks": 18529,
          "time": 77.20416666666667,
          "velocity": 1
        },
        {
          "duration": 0.06666666666667709,
          "durationTicks": 16,
          "midi": 61,
          "name": "C#4",
          "ticks": 18529,
          "time": 77.20416666666667,
          "velocity": 1
        },
        {
          "duration": 0.0625,
          "durationTicks": 15,
          "midi": 59,
          "name": "B3",
          "ticks": 18545,
          "time": 77.27083333333334,
          "velocity": 1
        },
        {
          "duration": 0.0625,
          "durationTicks": 15,
          "midi": 60,
          "name": "C4",
          "ticks": 18545,
          "time": 77.27083333333334,
          "velocity": 1
        },
        {
          "duration": 0.06666666666666288,
          "durationTicks": 16,
          "midi": 58,
          "name": "A#3",
          "ticks": 18560,
          "time": 77.33333333333334,
          "velocity": 1
        },
        {
          "duration": 0.06666666666666288,
          "durationTicks": 16,
          "midi": 59,
          "name": "B3",
          "ticks": 18560,
          "time": 77.33333333333334,
          "velocity": 1
        },
        {
          "duration": 0.06666666666666288,
          "durationTicks": 16,
          "midi": 58,
          "name": "A#3",
          "ticks": 18576,
          "time": 77.4,
          "velocity": 1
        },
        {
          "duration": 0.06666666666666288,
          "durationTicks": 16,
          "midi": 57,
          "name": "A3",
          "ticks": 18576,
          "time": 77.4,
          "velocity": 1
        },
        {
          "duration": 0.0625,
          "durationTicks": 15,
          "midi": 57,
          "name": "A3",
          "ticks": 18592,
          "time": 77.46666666666667,
          "velocity": 1
        },
        {
          "duration": 0.0625,
          "durationTicks": 15,
          "midi": 56,
          "name": "G#3",
          "ticks": 18592,
          "time": 77.46666666666667,
          "velocity": 1
        },
        {
          "duration": 0.06666666666667709,
          "durationTicks": 16,
          "midi": 56,
          "name": "G#3",
          "ticks": 18607,
          "time": 77.52916666666667,
          "velocity": 1
        },
        {
          "duration": 0.06666666666667709,
          "durationTicks": 16,
          "midi": 55,
          "name": "G3",
          "ticks": 18607,
          "time": 77.52916666666667,
          "velocity": 1
        },
        {
          "duration": 0.06666666666666288,
          "durationTicks": 16,
          "midi": 55,
          "name": "G3",
          "ticks": 18623,
          "time": 77.59583333333335,
          "velocity": 1
        },
        {
          "duration": 0.06666666666666288,
          "durationTicks": 16,
          "midi": 54,
          "name": "F#3",
          "ticks": 18623,
          "time": 77.59583333333335,
          "velocity": 1
        },
        {
          "duration": 0.06666666666666288,
          "durationTicks": 16,
          "midi": 53,
          "name": "F3",
          "ticks": 18639,
          "time": 77.66250000000001,
          "velocity": 1
        },
        {
          "duration": 0.06666666666666288,
          "durationTicks": 16,
          "midi": 54,
          "name": "F#3",
          "ticks": 18639,
          "time": 77.66250000000001,
          "velocity": 1
        },
        {
          "duration": 0.0625,
          "durationTicks": 15,
          "midi": 52,
          "name": "E3",
          "ticks": 18655,
          "time": 77.72916666666667,
          "velocity": 1
        },
        {
          "duration": 0.0625,
          "durationTicks": 15,
          "midi": 53,
          "name": "F3",
          "ticks": 18655,
          "time": 77.72916666666667,
          "velocity": 1
        },
        {
          "duration": 0.06666666666667709,
          "durationTicks": 16,
          "midi": 51,
          "name": "D#3",
          "ticks": 18670,
          "time": 77.79166666666667,
          "velocity": 1
        },
        {
          "duration": 0.06666666666667709,
          "durationTicks": 16,
          "midi": 52,
          "name": "E3",
          "ticks": 18670,
          "time": 77.79166666666667,
          "velocity": 1
        },
        {
          "duration": 0.06666666666666288,
          "durationTicks": 16,
          "midi": 50,
          "name": "D3",
          "ticks": 18686,
          "time": 77.85833333333335,
          "velocity": 1
        },
        {
          "duration": 0.06666666666666288,
          "durationTicks": 16,
          "midi": 51,
          "name": "D#3",
          "ticks": 18686,
          "time": 77.85833333333335,
          "velocity": 1
        },
        {
          "duration": 0.06666666666666288,
          "durationTicks": 16,
          "midi": 49,
          "name": "C#3",
          "ticks": 18702,
          "time": 77.92500000000001,
          "velocity": 1
        },
        {
          "duration": 0.06666666666666288,
          "durationTicks": 16,
          "midi": 50,
          "name": "D3",
          "ticks": 18702,
          "time": 77.92500000000001,
          "velocity": 1
        },
        {
          "duration": 0.0625,
          "durationTicks": 15,
          "midi": 48,
          "name": "C3",
          "ticks": 18718,
          "time": 77.99166666666667,
          "velocity": 1
        },
        {
          "duration": 0.0625,
          "durationTicks": 15,
          "midi": 49,
          "name": "C#3",
          "ticks": 18718,
          "time": 77.99166666666667,
          "velocity": 1
        },
        {
          "duration": 0.06666666666666288,
          "durationTicks": 16,
          "midi": 47,
          "name": "B2",
          "ticks": 18733,
          "time": 78.05416666666667,
          "velocity": 1
        },
        {
          "duration": 0.06666666666666288,
          "durationTicks": 16,
          "midi": 48,
          "name": "C3",
          "ticks": 18733,
          "time": 78.05416666666667,
          "velocity": 1
        },
        {
          "duration": 0.06666666666666288,
          "durationTicks": 16,
          "midi": 46,
          "name": "A#2",
          "ticks": 18749,
          "time": 78.12083333333334,
          "velocity": 1
        },
        {
          "duration": 0.06666666666666288,
          "durationTicks": 16,
          "midi": 47,
          "name": "B2",
          "ticks": 18749,
          "time": 78.12083333333334,
          "velocity": 1
        },
        {
          "duration": 0.0625,
          "durationTicks": 15,
          "midi": 45,
          "name": "A2",
          "ticks": 18765,
          "time": 78.1875,
          "velocity": 1
        },
        {
          "duration": 0.0625,
          "durationTicks": 15,
          "midi": 46,
          "name": "A#2",
          "ticks": 18765,
          "time": 78.1875,
          "velocity": 1
        },
        {
          "duration": 0.06666666666666288,
          "durationTicks": 16,
          "midi": 44,
          "name": "G#2",
          "ticks": 18780,
          "time": 78.25,
          "velocity": 1
        },
        {
          "duration": 0.06666666666666288,
          "durationTicks": 16,
          "midi": 45,
          "name": "A2",
          "ticks": 18780,
          "time": 78.25,
          "velocity": 1
        },
        {
          "duration": 0.06666666666667709,
          "durationTicks": 16,
          "midi": 43,
          "name": "G2",
          "ticks": 18796,
          "time": 78.31666666666666,
          "velocity": 1
        },
        {
          "duration": 0.06666666666667709,
          "durationTicks": 16,
          "midi": 44,
          "name": "G#2",
          "ticks": 18796,
          "time": 78.31666666666666,
          "velocity": 1
        },
        {
          "duration": 0.06666666666666288,
          "durationTicks": 16,
          "midi": 42,
          "name": "F#2",
          "ticks": 18812,
          "time": 78.38333333333334,
          "velocity": 1
        },
        {
          "duration": 0.06666666666666288,
          "durationTicks": 16,
          "midi": 43,
          "name": "G2",
          "ticks": 18812,
          "time": 78.38333333333334,
          "velocity": 1
        },
        {
          "duration": 0.0625,
          "durationTicks": 15,
          "midi": 41,
          "name": "F2",
          "ticks": 18828,
          "time": 78.45,
          "velocity": 1
        },
        {
          "duration": 0.0625,
          "durationTicks": 15,
          "midi": 42,
          "name": "F#2",
          "ticks": 18828,
          "time": 78.45,
          "velocity": 1
        },
        {
          "duration": 0.06666666666666288,
          "durationTicks": 16,
          "midi": 40,
          "name": "E2",
          "ticks": 18843,
          "time": 78.5125,
          "velocity": 1
        },
        {
          "duration": 0.06666666666666288,
          "durationTicks": 16,
          "midi": 41,
          "name": "F2",
          "ticks": 18843,
          "time": 78.5125,
          "velocity": 1
        },
        {
          "duration": 0.06666666666667709,
          "durationTicks": 16,
          "midi": 39,
          "name": "D#2",
          "ticks": 18859,
          "time": 78.57916666666667,
          "velocity": 1
        },
        {
          "duration": 0.06666666666667709,
          "durationTicks": 16,
          "midi": 40,
          "name": "E2",
          "ticks": 18859,
          "time": 78.57916666666667,
          "velocity": 1
        },
        {
          "duration": 0.0625,
          "durationTicks": 15,
          "midi": 38,
          "name": "D2",
          "ticks": 18875,
          "time": 78.64583333333334,
          "velocity": 1
        },
        {
          "duration": 0.0625,
          "durationTicks": 15,
          "midi": 39,
          "name": "D#2",
          "ticks": 18875,
          "time": 78.64583333333334,
          "velocity": 1
        },
        {
          "duration": 0.06666666666666288,
          "durationTicks": 16,
          "midi": 37,
          "name": "C#2",
          "ticks": 18890,
          "time": 78.70833333333334,
          "velocity": 1
        },
        {
          "duration": 0.06666666666666288,
          "durationTicks": 16,
          "midi": 38,
          "name": "D2",
          "ticks": 18890,
          "time": 78.70833333333334,
          "velocity": 1
        },
        {
          "duration": 0.06666666666666288,
          "durationTicks": 16,
          "midi": 37,
          "name": "C#2",
          "ticks": 18906,
          "time": 78.775,
          "velocity": 1
        },
        {
          "duration": 0.06666666666666288,
          "durationTicks": 16,
          "midi": 36,
          "name": "C2",
          "ticks": 18906,
          "time": 78.775,
          "velocity": 1
        },
        {
          "duration": 0.06666666666667709,
          "durationTicks": 16,
          "midi": 36,
          "name": "C2",
          "ticks": 18922,
          "time": 78.84166666666667,
          "velocity": 1
        },
        {
          "duration": 0.06666666666667709,
          "durationTicks": 16,
          "midi": 35,
          "name": "B1",
          "ticks": 18922,
          "time": 78.84166666666667,
          "velocity": 1
        },
        {
          "duration": 0.0625,
          "durationTicks": 15,
          "midi": 35,
          "name": "B1",
          "ticks": 18938,
          "time": 78.90833333333335,
          "velocity": 1
        },
        {
          "duration": 0.0625,
          "durationTicks": 15,
          "midi": 34,
          "name": "A#1",
          "ticks": 18938,
          "time": 78.90833333333335,
          "velocity": 1
        },
        {
          "duration": 0.06666666666666288,
          "durationTicks": 16,
          "midi": 33,
          "name": "A1",
          "ticks": 18953,
          "time": 78.97083333333335,
          "velocity": 1
        },
        {
          "duration": 0.06666666666666288,
          "durationTicks": 16,
          "midi": 34,
          "name": "A#1",
          "ticks": 18953,
          "time": 78.97083333333335,
          "velocity": 1
        },
        {
          "duration": 0.06666666666666288,
          "durationTicks": 16,
          "midi": 33,
          "name": "A1",
          "ticks": 18969,
          "time": 79.03750000000001,
          "velocity": 1
        },
        {
          "duration": 0.06666666666666288,
          "durationTicks": 16,
          "midi": 32,
          "name": "G#1",
          "ticks": 18969,
          "time": 79.03750000000001,
          "velocity": 1
        },
        {
          "duration": 0.06666666666667709,
          "durationTicks": 16,
          "midi": 32,
          "name": "G#1",
          "ticks": 18985,
          "time": 79.10416666666667,
          "velocity": 1
        },
        {
          "duration": 0.06666666666667709,
          "durationTicks": 16,
          "midi": 31,
          "name": "G1",
          "ticks": 18985,
          "time": 79.10416666666667,
          "velocity": 1
        },
        {
          "duration": 0.0625,
          "durationTicks": 15,
          "midi": 30,
          "name": "F#1",
          "ticks": 19001,
          "time": 79.17083333333335,
          "velocity": 1
        },
        {
          "duration": 0.0625,
          "durationTicks": 15,
          "midi": 31,
          "name": "G1",
          "ticks": 19001,
          "time": 79.17083333333335,
          "velocity": 1
        },
        {
          "duration": 0.06666666666666288,
          "durationTicks": 16,
          "midi": 30,
          "name": "F#1",
          "ticks": 19016,
          "time": 79.23333333333335,
          "velocity": 1
        },
        {
          "duration": 0.06666666666666288,
          "durationTicks": 16,
          "midi": 29,
          "name": "F1",
          "ticks": 19016,
          "time": 79.23333333333335,
          "velocity": 1
        },
        {
          "duration": 0.06666666666666288,
          "durationTicks": 16,
          "midi": 29,
          "name": "F1",
          "ticks": 19032,
          "time": 79.30000000000001,
          "velocity": 1
        },
        {
          "duration": 0.06666666666666288,
          "durationTicks": 16,
          "midi": 28,
          "name": "E1",
          "ticks": 19032,
          "time": 79.30000000000001,
          "velocity": 1
        },
        {
          "duration": 0.0625,
          "durationTicks": 15,
          "midi": 27,
          "name": "D#1",
          "ticks": 19048,
          "time": 79.36666666666667,
          "velocity": 1
        },
        {
          "duration": 0.0625,
          "durationTicks": 15,
          "midi": 28,
          "name": "E1",
          "ticks": 19048,
          "time": 79.36666666666667,
          "velocity": 1
        },
        {
          "duration": 0.06666666666666288,
          "durationTicks": 16,
          "midi": 27,
          "name": "D#1",
          "ticks": 19063,
          "time": 79.42916666666667,
          "velocity": 1
        },
        {
          "duration": 0.06666666666666288,
          "durationTicks": 16,
          "midi": 26,
          "name": "D1",
          "ticks": 19063,
          "time": 79.42916666666667,
          "velocity": 1
        },
        {
          "duration": 0.06666666666666288,
          "durationTicks": 16,
          "midi": 26,
          "name": "D1",
          "ticks": 19079,
          "time": 79.49583333333334,
          "velocity": 1
        },
        {
          "duration": 0.06666666666666288,
          "durationTicks": 16,
          "midi": 25,
          "name": "C#1",
          "ticks": 19079,
          "time": 79.49583333333334,
          "velocity": 1
        },
        {
          "duration": 0.06666666666666288,
          "durationTicks": 16,
          "midi": 24,
          "name": "C1",
          "ticks": 19095,
          "time": 79.5625,
          "velocity": 1
        },
        {
          "duration": 0.06666666666666288,
          "durationTicks": 16,
          "midi": 25,
          "name": "C#1",
          "ticks": 19095,
          "time": 79.5625,
          "velocity": 1
        },
        {
          "duration": 0.0625,
          "durationTicks": 15,
          "midi": 24,
          "name": "C1",
          "ticks": 19111,
          "time": 79.62916666666666,
          "velocity": 1
        },
        {
          "duration": 0.0625,
          "durationTicks": 15,
          "midi": 23,
          "name": "B0",
          "ticks": 19111,
          "time": 79.62916666666666,
          "velocity": 1
        },
        {
          "duration": 0.06666666666667709,
          "durationTicks": 16,
          "midi": 23,
          "name": "B0",
          "ticks": 19126,
          "time": 79.69166666666666,
          "velocity": 1
        },
        {
          "duration": 0.06666666666667709,
          "durationTicks": 16,
          "midi": 22,
          "name": "A#0",
          "ticks": 19126,
          "time": 79.69166666666666,
          "velocity": 1
        },
        {
          "duration": 0.06666666666666288,
          "durationTicks": 16,
          "midi": 21,
          "name": "A0",
          "ticks": 19142,
          "time": 79.75833333333334,
          "velocity": 1
        },
        {
          "duration": 0.06666666666666288,
          "durationTicks": 16,
          "midi": 22,
          "name": "A#0",
          "ticks": 19142,
          "time": 79.75833333333334,
          "velocity": 1
        },
        {
          "duration": 0.06666666666666288,
          "durationTicks": 16,
          "midi": 21,
          "name": "A0",
          "ticks": 19158,
          "time": 79.825,
          "velocity": 1
        },
        {
          "duration": 0.06666666666666288,
          "durationTicks": 16,
          "midi": 20,
          "name": "G#0",
          "ticks": 19158,
          "time": 79.825,
          "velocity": 1
        },
        {
          "duration": 0.0625,
          "durationTicks": 15,
          "midi": 20,
          "name": "G#0",
          "ticks": 19174,
          "time": 79.89166666666667,
          "velocity": 1
        },
        {
          "duration": 0.0625,
          "durationTicks": 15,
          "midi": 19,
          "name": "G0",
          "ticks": 19174,
          "time": 79.89166666666667,
          "velocity": 1
        },
        {
          "duration": 0.06666666666667709,
          "durationTicks": 16,
          "midi": 18,
          "name": "F#0",
          "ticks": 19189,
          "time": 79.95416666666667,
          "velocity": 1
        },
        {
          "duration": 0.06666666666667709,
          "durationTicks": 16,
          "midi": 19,
          "name": "G0",
          "ticks": 19189,
          "time": 79.95416666666667,
          "velocity": 1
        },
        {
          "duration": 0.06666666666666288,
          "durationTicks": 16,
          "midi": 18,
          "name": "F#0",
          "ticks": 19205,
          "time": 80.02083333333334,
          "velocity": 1
        },
        {
          "duration": 0.06666666666666288,
          "durationTicks": 16,
          "midi": 17,
          "name": "F0",
          "ticks": 19205,
          "time": 80.02083333333334,
          "velocity": 1
        },
        {
          "duration": 0.06666666666666288,
          "durationTicks": 16,
          "midi": 115,
          "name": "G8",
          "ticks": 20736,
          "time": 86.4,
          "velocity": 1
        },
        {
          "duration": 0.06666666666666288,
          "durationTicks": 16,
          "midi": 116,
          "name": "G#8",
          "ticks": 20736,
          "time": 86.4,
          "velocity": 1
        },
        {
          "duration": 0.0625,
          "durationTicks": 15,
          "midi": 114,
          "name": "F#8",
          "ticks": 20752,
          "time": 86.46666666666667,
          "velocity": 1
        },
        {
          "duration": 0.0625,
          "durationTicks": 15,
          "midi": 115,
          "name": "G8",
          "ticks": 20752,
          "time": 86.46666666666667,
          "velocity": 1
        },
        {
          "duration": 0.06666666666667709,
          "durationTicks": 16,
          "midi": 113,
          "name": "F8",
          "ticks": 20767,
          "time": 86.52916666666667,
          "velocity": 1
        },
        {
          "duration": 0.06666666666667709,
          "durationTicks": 16,
          "midi": 114,
          "name": "F#8",
          "ticks": 20767,
          "time": 86.52916666666667,
          "velocity": 1
        },
        {
          "duration": 0.06666666666666288,
          "durationTicks": 16,
          "midi": 112,
          "name": "E8",
          "ticks": 20783,
          "time": 86.59583333333335,
          "velocity": 1
        },
        {
          "duration": 0.06666666666666288,
          "durationTicks": 16,
          "midi": 113,
          "name": "F8",
          "ticks": 20783,
          "time": 86.59583333333335,
          "velocity": 1
        },
        {
          "duration": 0.06666666666666288,
          "durationTicks": 16,
          "midi": 111,
          "name": "D#8",
          "ticks": 20799,
          "time": 86.66250000000001,
          "velocity": 1
        },
        {
          "duration": 0.06666666666666288,
          "durationTicks": 16,
          "midi": 112,
          "name": "E8",
          "ticks": 20799,
          "time": 86.66250000000001,
          "velocity": 1
        },
        {
          "duration": 0.0625,
          "durationTicks": 15,
          "midi": 110,
          "name": "D8",
          "ticks": 20815,
          "time": 86.72916666666667,
          "velocity": 1
        },
        {
          "duration": 0.0625,
          "durationTicks": 15,
          "midi": 111,
          "name": "D#8",
          "ticks": 20815,
          "time": 86.72916666666667,
          "velocity": 1
        },
        {
          "duration": 0.06666666666667709,
          "durationTicks": 16,
          "midi": 109,
          "name": "C#8",
          "ticks": 20830,
          "time": 86.79166666666667,
          "velocity": 1
        },
        {
          "duration": 0.06666666666667709,
          "durationTicks": 16,
          "midi": 110,
          "name": "D8",
          "ticks": 20830,
          "time": 86.79166666666667,
          "velocity": 1
        },
        {
          "duration": 0.06666666666666288,
          "durationTicks": 16,
          "midi": 108,
          "name": "C8",
          "ticks": 20846,
          "time": 86.85833333333335,
          "velocity": 1
        },
        {
          "duration": 0.06666666666666288,
          "durationTicks": 16,
          "midi": 109,
          "name": "C#8",
          "ticks": 20846,
          "time": 86.85833333333335,
          "velocity": 1
        },
        {
          "duration": 0.06666666666666288,
          "durationTicks": 16,
          "midi": 107,
          "name": "B7",
          "ticks": 20862,
          "time": 86.92500000000001,
          "velocity": 1
        },
        {
          "duration": 0.06666666666666288,
          "durationTicks": 16,
          "midi": 108,
          "name": "C8",
          "ticks": 20862,
          "time": 86.92500000000001,
          "velocity": 1
        },
        {
          "duration": 0.0625,
          "durationTicks": 15,
          "midi": 106,
          "name": "A#7",
          "ticks": 20878,
          "time": 86.99166666666667,
          "velocity": 1
        },
        {
          "duration": 0.0625,
          "durationTicks": 15,
          "midi": 107,
          "name": "B7",
          "ticks": 20878,
          "time": 86.99166666666667,
          "velocity": 1
        },
        {
          "duration": 0.06666666666666288,
          "durationTicks": 16,
          "midi": 105,
          "name": "A7",
          "ticks": 20893,
          "time": 87.05416666666667,
          "velocity": 1
        },
        {
          "duration": 0.06666666666666288,
          "durationTicks": 16,
          "midi": 106,
          "name": "A#7",
          "ticks": 20893,
          "time": 87.05416666666667,
          "velocity": 1
        },
        {
          "duration": 0.06666666666666288,
          "durationTicks": 16,
          "midi": 104,
          "name": "G#7",
          "ticks": 20909,
          "time": 87.12083333333334,
          "velocity": 1
        },
        {
          "duration": 0.06666666666666288,
          "durationTicks": 16,
          "midi": 105,
          "name": "A7",
          "ticks": 20909,
          "time": 87.12083333333334,
          "velocity": 1
        },
        {
          "duration": 0.0625,
          "durationTicks": 15,
          "midi": 103,
          "name": "G7",
          "ticks": 20925,
          "time": 87.1875,
          "velocity": 1
        },
        {
          "duration": 0.0625,
          "durationTicks": 15,
          "midi": 104,
          "name": "G#7",
          "ticks": 20925,
          "time": 87.1875,
          "velocity": 1
        },
        {
          "duration": 0.06666666666666288,
          "durationTicks": 16,
          "midi": 103,
          "name": "G7",
          "ticks": 20940,
          "time": 87.25,
          "velocity": 1
        },
        {
          "duration": 0.06666666666666288,
          "durationTicks": 16,
          "midi": 102,
          "name": "F#7",
          "ticks": 20940,
          "time": 87.25,
          "velocity": 1
        },
        {
          "duration": 0.06666666666667709,
          "durationTicks": 16,
          "midi": 102,
          "name": "F#7",
          "ticks": 20956,
          "time": 87.31666666666666,
          "velocity": 1
        },
        {
          "duration": 0.06666666666667709,
          "durationTicks": 16,
          "midi": 101,
          "name": "F7",
          "ticks": 20956,
          "time": 87.31666666666666,
          "velocity": 1
        },
        {
          "duration": 0.06666666666666288,
          "durationTicks": 16,
          "midi": 101,
          "name": "F7",
          "ticks": 20972,
          "time": 87.38333333333334,
          "velocity": 1
        },
        {
          "duration": 0.06666666666666288,
          "durationTicks": 16,
          "midi": 100,
          "name": "E7",
          "ticks": 20972,
          "time": 87.38333333333334,
          "velocity": 1
        },
        {
          "duration": 0.0625,
          "durationTicks": 15,
          "midi": 100,
          "name": "E7",
          "ticks": 20988,
          "time": 87.45,
          "velocity": 1
        },
        {
          "duration": 0.0625,
          "durationTicks": 15,
          "midi": 99,
          "name": "D#7",
          "ticks": 20988,
          "time": 87.45,
          "velocity": 1
        },
        {
          "duration": 0.06666666666666288,
          "durationTicks": 16,
          "midi": 99,
          "name": "D#7",
          "ticks": 21003,
          "time": 87.5125,
          "velocity": 1
        },
        {
          "duration": 0.06666666666666288,
          "durationTicks": 16,
          "midi": 98,
          "name": "D7",
          "ticks": 21003,
          "time": 87.5125,
          "velocity": 1
        },
        {
          "duration": 0.06666666666667709,
          "durationTicks": 16,
          "midi": 98,
          "name": "D7",
          "ticks": 21019,
          "time": 87.57916666666667,
          "velocity": 1
        },
        {
          "duration": 0.06666666666667709,
          "durationTicks": 16,
          "midi": 97,
          "name": "C#7",
          "ticks": 21019,
          "time": 87.57916666666667,
          "velocity": 1
        },
        {
          "duration": 0.0625,
          "durationTicks": 15,
          "midi": 97,
          "name": "C#7",
          "ticks": 21035,
          "time": 87.64583333333334,
          "velocity": 1
        },
        {
          "duration": 0.0625,
          "durationTicks": 15,
          "midi": 96,
          "name": "C7",
          "ticks": 21035,
          "time": 87.64583333333334,
          "velocity": 1
        },
        {
          "duration": 0.06666666666666288,
          "durationTicks": 16,
          "midi": 96,
          "name": "C7",
          "ticks": 21050,
          "time": 87.70833333333334,
          "velocity": 1
        },
        {
          "duration": 0.06666666666666288,
          "durationTicks": 16,
          "midi": 95,
          "name": "B6",
          "ticks": 21050,
          "time": 87.70833333333334,
          "velocity": 1
        },
        {
          "duration": 0.06666666666666288,
          "durationTicks": 16,
          "midi": 95,
          "name": "B6",
          "ticks": 21066,
          "time": 87.775,
          "velocity": 1
        },
        {
          "duration": 0.06666666666666288,
          "durationTicks": 16,
          "midi": 94,
          "name": "A#6",
          "ticks": 21066,
          "time": 87.775,
          "velocity": 1
        },
        {
          "duration": 0.06666666666667709,
          "durationTicks": 16,
          "midi": 94,
          "name": "A#6",
          "ticks": 21082,
          "time": 87.84166666666667,
          "velocity": 1
        },
        {
          "duration": 0.06666666666667709,
          "durationTicks": 16,
          "midi": 93,
          "name": "A6",
          "ticks": 21082,
          "time": 87.84166666666667,
          "velocity": 1
        },
        {
          "duration": 0.0625,
          "durationTicks": 15,
          "midi": 93,
          "name": "A6",
          "ticks": 21098,
          "time": 87.90833333333335,
          "velocity": 1
        },
        {
          "duration": 0.0625,
          "durationTicks": 15,
          "midi": 92,
          "name": "G#6",
          "ticks": 21098,
          "time": 87.90833333333335,
          "velocity": 1
        },
        {
          "duration": 0.06666666666666288,
          "durationTicks": 16,
          "midi": 92,
          "name": "G#6",
          "ticks": 21113,
          "time": 87.97083333333335,
          "velocity": 1
        },
        {
          "duration": 0.06666666666666288,
          "durationTicks": 16,
          "midi": 91,
          "name": "G6",
          "ticks": 21113,
          "time": 87.97083333333335,
          "velocity": 1
        },
        {
          "duration": 0.06666666666666288,
          "durationTicks": 16,
          "midi": 90,
          "name": "F#6",
          "ticks": 21129,
          "time": 88.03750000000001,
          "velocity": 1
        },
        {
          "duration": 0.06666666666666288,
          "durationTicks": 16,
          "midi": 91,
          "name": "G6",
          "ticks": 21129,
          "time": 88.03750000000001,
          "velocity": 1
        },
        {
          "duration": 0.06666666666667709,
          "durationTicks": 16,
          "midi": 89,
          "name": "F6",
          "ticks": 21145,
          "time": 88.10416666666667,
          "velocity": 1
        },
        {
          "duration": 0.06666666666667709,
          "durationTicks": 16,
          "midi": 90,
          "name": "F#6",
          "ticks": 21145,
          "time": 88.10416666666667,
          "velocity": 1
        },
        {
          "duration": 0.0625,
          "durationTicks": 15,
          "midi": 88,
          "name": "E6",
          "ticks": 21161,
          "time": 88.17083333333335,
          "velocity": 1
        },
        {
          "duration": 0.0625,
          "durationTicks": 15,
          "midi": 89,
          "name": "F6",
          "ticks": 21161,
          "time": 88.17083333333335,
          "velocity": 1
        },
        {
          "duration": 0.06666666666666288,
          "durationTicks": 16,
          "midi": 87,
          "name": "D#6",
          "ticks": 21176,
          "time": 88.23333333333335,
          "velocity": 1
        },
        {
          "duration": 0.06666666666666288,
          "durationTicks": 16,
          "midi": 88,
          "name": "E6",
          "ticks": 21176,
          "time": 88.23333333333335,
          "velocity": 1
        },
        {
          "duration": 0.06666666666666288,
          "durationTicks": 16,
          "midi": 86,
          "name": "D6",
          "ticks": 21192,
          "time": 88.30000000000001,
          "velocity": 1
        },
        {
          "duration": 0.06666666666666288,
          "durationTicks": 16,
          "midi": 87,
          "name": "D#6",
          "ticks": 21192,
          "time": 88.30000000000001,
          "velocity": 1
        },
        {
          "duration": 0.0625,
          "durationTicks": 15,
          "midi": 85,
          "name": "C#6",
          "ticks": 21208,
          "time": 88.36666666666667,
          "velocity": 1
        },
        {
          "duration": 0.0625,
          "durationTicks": 15,
          "midi": 86,
          "name": "D6",
          "ticks": 21208,
          "time": 88.36666666666667,
          "velocity": 1
        },
        {
          "duration": 0.06666666666666288,
          "durationTicks": 16,
          "midi": 85,
          "name": "C#6",
          "ticks": 21223,
          "time": 88.42916666666667,
          "velocity": 1
        },
        {
          "duration": 0.06666666666666288,
          "durationTicks": 16,
          "midi": 84,
          "name": "C6",
          "ticks": 21223,
          "time": 88.42916666666667,
          "velocity": 1
        },
        {
          "duration": 0.06666666666666288,
          "durationTicks": 16,
          "midi": 84,
          "name": "C6",
          "ticks": 21239,
          "time": 88.49583333333334,
          "velocity": 1
        },
        {
          "duration": 0.06666666666666288,
          "durationTicks": 16,
          "midi": 83,
          "name": "B5",
          "ticks": 21239,
          "time": 88.49583333333334,
          "velocity": 1
        },
        {
          "duration": 0.06666666666666288,
          "durationTicks": 16,
          "midi": 83,
          "name": "B5",
          "ticks": 21255,
          "time": 88.5625,
          "velocity": 1
        },
        {
          "duration": 0.06666666666666288,
          "durationTicks": 16,
          "midi": 82,
          "name": "A#5",
          "ticks": 21255,
          "time": 88.5625,
          "velocity": 1
        },
        {
          "duration": 0.0625,
          "durationTicks": 15,
          "midi": 81,
          "name": "A5",
          "ticks": 21271,
          "time": 88.62916666666666,
          "velocity": 1
        },
        {
          "duration": 0.0625,
          "durationTicks": 15,
          "midi": 82,
          "name": "A#5",
          "ticks": 21271,
          "time": 88.62916666666666,
          "velocity": 1
        },
        {
          "duration": 0.06666666666667709,
          "durationTicks": 16,
          "midi": 80,
          "name": "G#5",
          "ticks": 21286,
          "time": 88.69166666666666,
          "velocity": 1
        },
        {
          "duration": 0.06666666666667709,
          "durationTicks": 16,
          "midi": 81,
          "name": "A5",
          "ticks": 21286,
          "time": 88.69166666666666,
          "velocity": 1
        },
        {
          "duration": 0.06666666666666288,
          "durationTicks": 16,
          "midi": 79,
          "name": "G5",
          "ticks": 21302,
          "time": 88.75833333333334,
          "velocity": 1
        },
        {
          "duration": 0.06666666666666288,
          "durationTicks": 16,
          "midi": 80,
          "name": "G#5",
          "ticks": 21302,
          "time": 88.75833333333334,
          "velocity": 1
        },
        {
          "duration": 0.06666666666666288,
          "durationTicks": 16,
          "midi": 79,
          "name": "G5",
          "ticks": 21318,
          "time": 88.825,
          "velocity": 1
        },
        {
          "duration": 0.06666666666666288,
          "durationTicks": 16,
          "midi": 78,
          "name": "F#5",
          "ticks": 21318,
          "time": 88.825,
          "velocity": 1
        },
        {
          "duration": 0.0625,
          "durationTicks": 15,
          "midi": 78,
          "name": "F#5",
          "ticks": 21334,
          "time": 88.89166666666667,
          "velocity": 1
        },
        {
          "duration": 0.0625,
          "durationTicks": 15,
          "midi": 77,
          "name": "F5",
          "ticks": 21334,
          "time": 88.89166666666667,
          "velocity": 1
        },
        {
          "duration": 0.06666666666667709,
          "durationTicks": 16,
          "midi": 77,
          "name": "F5",
          "ticks": 21349,
          "time": 88.95416666666667,
          "velocity": 1
        },
        {
          "duration": 0.06666666666667709,
          "durationTicks": 16,
          "midi": 76,
          "name": "E5",
          "ticks": 21349,
          "time": 88.95416666666667,
          "velocity": 1
        },
        {
          "duration": 0.06666666666666288,
          "durationTicks": 16,
          "midi": 76,
          "name": "E5",
          "ticks": 21365,
          "time": 89.02083333333334,
          "velocity": 1
        },
        {
          "duration": 0.06666666666666288,
          "durationTicks": 16,
          "midi": 75,
          "name": "D#5",
          "ticks": 21365,
          "time": 89.02083333333334,
          "velocity": 1
        },
        {
          "duration": 0.0625,
          "durationTicks": 15,
          "midi": 75,
          "name": "D#5",
          "ticks": 21381,
          "time": 89.0875,
          "velocity": 1
        },
        {
          "duration": 0.0625,
          "durationTicks": 15,
          "midi": 74,
          "name": "D5",
          "ticks": 21381,
          "time": 89.0875,
          "velocity": 1
        },
        {
          "duration": 0.06666666666666288,
          "durationTicks": 16,
          "midi": 74,
          "name": "D5",
          "ticks": 21396,
          "time": 89.15,
          "velocity": 1
        },
        {
          "duration": 0.06666666666666288,
          "durationTicks": 16,
          "midi": 73,
          "name": "C#5",
          "ticks": 21396,
          "time": 89.15,
          "velocity": 1
        },
        {
          "duration": 0.06666666666667709,
          "durationTicks": 16,
          "midi": 72,
          "name": "C5",
          "ticks": 21412,
          "time": 89.21666666666667,
          "velocity": 1
        },
        {
          "duration": 0.06666666666667709,
          "durationTicks": 16,
          "midi": 73,
          "name": "C#5",
          "ticks": 21412,
          "time": 89.21666666666667,
          "velocity": 1
        },
        {
          "duration": 0.06666666666666288,
          "durationTicks": 16,
          "midi": 71,
          "name": "B4",
          "ticks": 21428,
          "time": 89.28333333333335,
          "velocity": 1
        },
        {
          "duration": 0.06666666666666288,
          "durationTicks": 16,
          "midi": 72,
          "name": "C5",
          "ticks": 21428,
          "time": 89.28333333333335,
          "velocity": 1
        },
        {
          "duration": 0.0625,
          "durationTicks": 15,
          "midi": 70,
          "name": "A#4",
          "ticks": 21444,
          "time": 89.35000000000001,
          "velocity": 1
        },
        {
          "duration": 0.0625,
          "durationTicks": 15,
          "midi": 71,
          "name": "B4",
          "ticks": 21444,
          "time": 89.35000000000001,
          "velocity": 1
        },
        {
          "duration": 0.06666666666666288,
          "durationTicks": 16,
          "midi": 69,
          "name": "A4",
          "ticks": 21459,
          "time": 89.41250000000001,
          "velocity": 1
        },
        {
          "duration": 0.06666666666666288,
          "durationTicks": 16,
          "midi": 70,
          "name": "A#4",
          "ticks": 21459,
          "time": 89.41250000000001,
          "velocity": 1
        },
        {
          "duration": 0.06666666666667709,
          "durationTicks": 16,
          "midi": 68,
          "name": "G#4",
          "ticks": 21475,
          "time": 89.47916666666667,
          "velocity": 1
        },
        {
          "duration": 0.06666666666667709,
          "durationTicks": 16,
          "midi": 69,
          "name": "A4",
          "ticks": 21475,
          "time": 89.47916666666667,
          "velocity": 1
        },
        {
          "duration": 0.0625,
          "durationTicks": 15,
          "midi": 67,
          "name": "G4",
          "ticks": 21491,
          "time": 89.54583333333335,
          "velocity": 1
        },
        {
          "duration": 0.0625,
          "durationTicks": 15,
          "midi": 68,
          "name": "G#4",
          "ticks": 21491,
          "time": 89.54583333333335,
          "velocity": 1
        },
        {
          "duration": 0.06666666666666288,
          "durationTicks": 16,
          "midi": 67,
          "name": "G4",
          "ticks": 21506,
          "time": 89.60833333333335,
          "velocity": 1
        },
        {
          "duration": 0.06666666666666288,
          "durationTicks": 16,
          "midi": 66,
          "name": "F#4",
          "ticks": 21506,
          "time": 89.60833333333335,
          "velocity": 1
        },
        {
          "duration": 0.06666666666666288,
          "durationTicks": 16,
          "midi": 66,
          "name": "F#4",
          "ticks": 21522,
          "time": 89.67500000000001,
          "velocity": 1
        },
        {
          "duration": 0.06666666666666288,
          "durationTicks": 16,
          "midi": 65,
          "name": "F4",
          "ticks": 21522,
          "time": 89.67500000000001,
          "velocity": 1
        },
        {
          "duration": 0.06666666666666288,
          "durationTicks": 16,
          "midi": 65,
          "name": "F4",
          "ticks": 21538,
          "time": 89.74166666666667,
          "velocity": 1
        },
        {
          "duration": 0.06666666666666288,
          "durationTicks": 16,
          "midi": 64,
          "name": "E4",
          "ticks": 21538,
          "time": 89.74166666666667,
          "velocity": 1
        },
        {
          "duration": 0.0625,
          "durationTicks": 15,
          "midi": 64,
          "name": "E4",
          "ticks": 21554,
          "time": 89.80833333333334,
          "velocity": 1
        },
        {
          "duration": 0.0625,
          "durationTicks": 15,
          "midi": 63,
          "name": "D#4",
          "ticks": 21554,
          "time": 89.80833333333334,
          "velocity": 1
        },
        {
          "duration": 0.06666666666666288,
          "durationTicks": 16,
          "midi": 63,
          "name": "D#4",
          "ticks": 21569,
          "time": 89.87083333333334,
          "velocity": 1
        },
        {
          "duration": 0.06666666666666288,
          "durationTicks": 16,
          "midi": 62,
          "name": "D4",
          "ticks": 21569,
          "time": 89.87083333333334,
          "velocity": 1
        },
        {
          "duration": 0.06666666666666288,
          "durationTicks": 16,
          "midi": 62,
          "name": "D4",
          "ticks": 21585,
          "time": 89.9375,
          "velocity": 1
        },
        {
          "duration": 0.06666666666666288,
          "durationTicks": 16,
          "midi": 61,
          "name": "C#4",
          "ticks": 21585,
          "time": 89.9375,
          "velocity": 1
        },
        {
          "duration": 0.06666666666667709,
          "durationTicks": 16,
          "midi": 60,
          "name": "C4",
          "ticks": 21601,
          "time": 90.00416666666666,
          "velocity": 1
        },
        {
          "duration": 0.06666666666667709,
          "durationTicks": 16,
          "midi": 61,
          "name": "C#4",
          "ticks": 21601,
          "time": 90.00416666666666,
          "velocity": 1
        },
        {
          "duration": 0.0625,
          "durationTicks": 15,
          "midi": 59,
          "name": "B3",
          "ticks": 21617,
          "time": 90.07083333333334,
          "velocity": 1
        },
        {
          "duration": 0.0625,
          "durationTicks": 15,
          "midi": 60,
          "name": "C4",
          "ticks": 21617,
          "time": 90.07083333333334,
          "velocity": 1
        },
        {
          "duration": 0.06666666666666288,
          "durationTicks": 16,
          "midi": 58,
          "name": "A#3",
          "ticks": 21632,
          "time": 90.13333333333334,
          "velocity": 1
        },
        {
          "duration": 0.06666666666666288,
          "durationTicks": 16,
          "midi": 59,
          "name": "B3",
          "ticks": 21632,
          "time": 90.13333333333334,
          "velocity": 1
        },
        {
          "duration": 0.06666666666666288,
          "durationTicks": 16,
          "midi": 58,
          "name": "A#3",
          "ticks": 21648,
          "time": 90.2,
          "velocity": 1
        },
        {
          "duration": 0.06666666666666288,
          "durationTicks": 16,
          "midi": 57,
          "name": "A3",
          "ticks": 21648,
          "time": 90.2,
          "velocity": 1
        },
        {
          "duration": 0.0625,
          "durationTicks": 15,
          "midi": 57,
          "name": "A3",
          "ticks": 21664,
          "time": 90.26666666666667,
          "velocity": 1
        },
        {
          "duration": 0.0625,
          "durationTicks": 15,
          "midi": 56,
          "name": "G#3",
          "ticks": 21664,
          "time": 90.26666666666667,
          "velocity": 1
        },
        {
          "duration": 0.06666666666667709,
          "durationTicks": 16,
          "midi": 56,
          "name": "G#3",
          "ticks": 21679,
          "time": 90.32916666666667,
          "velocity": 1
        },
        {
          "duration": 0.06666666666667709,
          "durationTicks": 16,
          "midi": 55,
          "name": "G3",
          "ticks": 21679,
          "time": 90.32916666666667,
          "velocity": 1
        },
        {
          "duration": 0.06666666666666288,
          "durationTicks": 16,
          "midi": 55,
          "name": "G3",
          "ticks": 21695,
          "time": 90.39583333333334,
          "velocity": 1
        },
        {
          "duration": 0.06666666666666288,
          "durationTicks": 16,
          "midi": 54,
          "name": "F#3",
          "ticks": 21695,
          "time": 90.39583333333334,
          "velocity": 1
        },
        {
          "duration": 0.06666666666666288,
          "durationTicks": 16,
          "midi": 53,
          "name": "F3",
          "ticks": 21711,
          "time": 90.4625,
          "velocity": 1
        },
        {
          "duration": 0.06666666666666288,
          "durationTicks": 16,
          "midi": 54,
          "name": "F#3",
          "ticks": 21711,
          "time": 90.4625,
          "velocity": 1
        },
        {
          "duration": 0.0625,
          "durationTicks": 15,
          "midi": 52,
          "name": "E3",
          "ticks": 21727,
          "time": 90.52916666666667,
          "velocity": 1
        },
        {
          "duration": 0.0625,
          "durationTicks": 15,
          "midi": 53,
          "name": "F3",
          "ticks": 21727,
          "time": 90.52916666666667,
          "velocity": 1
        },
        {
          "duration": 0.06666666666667709,
          "durationTicks": 16,
          "midi": 51,
          "name": "D#3",
          "ticks": 21742,
          "time": 90.59166666666667,
          "velocity": 1
        },
        {
          "duration": 0.06666666666667709,
          "durationTicks": 16,
          "midi": 52,
          "name": "E3",
          "ticks": 21742,
          "time": 90.59166666666667,
          "velocity": 1
        },
        {
          "duration": 0.06666666666666288,
          "durationTicks": 16,
          "midi": 50,
          "name": "D3",
          "ticks": 21758,
          "time": 90.65833333333335,
          "velocity": 1
        },
        {
          "duration": 0.06666666666666288,
          "durationTicks": 16,
          "midi": 51,
          "name": "D#3",
          "ticks": 21758,
          "time": 90.65833333333335,
          "velocity": 1
        },
        {
          "duration": 0.06666666666666288,
          "durationTicks": 16,
          "midi": 49,
          "name": "C#3",
          "ticks": 21774,
          "time": 90.72500000000001,
          "velocity": 1
        },
        {
          "duration": 0.06666666666666288,
          "durationTicks": 16,
          "midi": 50,
          "name": "D3",
          "ticks": 21774,
          "time": 90.72500000000001,
          "velocity": 1
        },
        {
          "duration": 0.0625,
          "durationTicks": 15,
          "midi": 48,
          "name": "C3",
          "ticks": 21790,
          "time": 90.79166666666667,
          "velocity": 1
        },
        {
          "duration": 0.0625,
          "durationTicks": 15,
          "midi": 49,
          "name": "C#3",
          "ticks": 21790,
          "time": 90.79166666666667,
          "velocity": 1
        },
        {
          "duration": 0.06666666666667709,
          "durationTicks": 16,
          "midi": 48,
          "name": "C3",
          "ticks": 21805,
          "time": 90.85416666666667,
          "velocity": 1
        },
        {
          "duration": 0.06666666666667709,
          "durationTicks": 16,
          "midi": 47,
          "name": "B2",
          "ticks": 21805,
          "time": 90.85416666666667,
          "velocity": 1
        },
        {
          "duration": 0.06666666666666288,
          "durationTicks": 16,
          "midi": 47,
          "name": "B2",
          "ticks": 21821,
          "time": 90.92083333333335,
          "velocity": 1
        },
        {
          "duration": 0.06666666666666288,
          "durationTicks": 16,
          "midi": 46,
          "name": "A#2",
          "ticks": 21821,
          "time": 90.92083333333335,
          "velocity": 1
        },
        {
          "duration": 0.0625,
          "durationTicks": 15,
          "midi": 46,
          "name": "A#2",
          "ticks": 21837,
          "time": 90.98750000000001,
          "velocity": 1
        },
        {
          "duration": 0.0625,
          "durationTicks": 15,
          "midi": 45,
          "name": "A2",
          "ticks": 21837,
          "time": 90.98750000000001,
          "velocity": 1
        },
        {
          "duration": 0.06666666666666288,
          "durationTicks": 16,
          "midi": 45,
          "name": "A2",
          "ticks": 21852,
          "time": 91.05000000000001,
          "velocity": 1
        },
        {
          "duration": 0.06666666666666288,
          "durationTicks": 16,
          "midi": 44,
          "name": "G#2",
          "ticks": 21852,
          "time": 91.05000000000001,
          "velocity": 1
        },
        {
          "duration": 0.06666666666666288,
          "durationTicks": 16,
          "midi": 44,
          "name": "G#2",
          "ticks": 21868,
          "time": 91.11666666666667,
          "velocity": 1
        },
        {
          "duration": 0.06666666666666288,
          "durationTicks": 16,
          "midi": 43,
          "name": "G2",
          "ticks": 21868,
          "time": 91.11666666666667,
          "velocity": 1
        },
        {
          "duration": 0.06666666666666288,
          "durationTicks": 16,
          "midi": 43,
          "name": "G2",
          "ticks": 21884,
          "time": 91.18333333333334,
          "velocity": 1
        },
        {
          "duration": 0.06666666666666288,
          "durationTicks": 16,
          "midi": 42,
          "name": "F#2",
          "ticks": 21884,
          "time": 91.18333333333334,
          "velocity": 1
        },
        {
          "duration": 0.0625,
          "durationTicks": 15,
          "midi": 41,
          "name": "F2",
          "ticks": 21900,
          "time": 91.25,
          "velocity": 1
        },
        {
          "duration": 0.0625,
          "durationTicks": 15,
          "midi": 42,
          "name": "F#2",
          "ticks": 21900,
          "time": 91.25,
          "velocity": 1
        },
        {
          "duration": 0.06666666666666288,
          "durationTicks": 16,
          "midi": 40,
          "name": "E2",
          "ticks": 21915,
          "time": 91.3125,
          "velocity": 1
        },
        {
          "duration": 0.06666666666666288,
          "durationTicks": 16,
          "midi": 41,
          "name": "F2",
          "ticks": 21915,
          "time": 91.3125,
          "velocity": 1
        },
        {
          "duration": 0.06666666666667709,
          "durationTicks": 16,
          "midi": 39,
          "name": "D#2",
          "ticks": 21931,
          "time": 91.37916666666666,
          "velocity": 1
        },
        {
          "duration": 0.06666666666667709,
          "durationTicks": 16,
          "midi": 40,
          "name": "E2",
          "ticks": 21931,
          "time": 91.37916666666666,
          "velocity": 1
        },
        {
          "duration": 0.0625,
          "durationTicks": 15,
          "midi": 38,
          "name": "D2",
          "ticks": 21947,
          "time": 91.44583333333334,
          "velocity": 1
        },
        {
          "duration": 0.0625,
          "durationTicks": 15,
          "midi": 39,
          "name": "D#2",
          "ticks": 21947,
          "time": 91.44583333333334,
          "velocity": 1
        },
        {
          "duration": 0.06666666666666288,
          "durationTicks": 16,
          "midi": 37,
          "name": "C#2",
          "ticks": 21962,
          "time": 91.50833333333334,
          "velocity": 1
        },
        {
          "duration": 0.06666666666666288,
          "durationTicks": 16,
          "midi": 38,
          "name": "D2",
          "ticks": 21962,
          "time": 91.50833333333334,
          "velocity": 1
        },
        {
          "duration": 0.06666666666666288,
          "durationTicks": 16,
          "midi": 37,
          "name": "C#2",
          "ticks": 21978,
          "time": 91.575,
          "velocity": 1
        },
        {
          "duration": 0.06666666666666288,
          "durationTicks": 16,
          "midi": 36,
          "name": "C2",
          "ticks": 21978,
          "time": 91.575,
          "velocity": 1
        },
        {
          "duration": 0.06666666666667709,
          "durationTicks": 16,
          "midi": 35,
          "name": "B1",
          "ticks": 21994,
          "time": 91.64166666666667,
          "velocity": 1
        },
        {
          "duration": 0.06666666666667709,
          "durationTicks": 16,
          "midi": 36,
          "name": "C2",
          "ticks": 21994,
          "time": 91.64166666666667,
          "velocity": 1
        },
        {
          "duration": 0.0625,
          "durationTicks": 15,
          "midi": 34,
          "name": "A#1",
          "ticks": 22010,
          "time": 91.70833333333334,
          "velocity": 1
        },
        {
          "duration": 0.0625,
          "durationTicks": 15,
          "midi": 35,
          "name": "B1",
          "ticks": 22010,
          "time": 91.70833333333334,
          "velocity": 1
        },
        {
          "duration": 0.06666666666666288,
          "durationTicks": 16,
          "midi": 34,
          "name": "A#1",
          "ticks": 22025,
          "time": 91.77083333333334,
          "velocity": 1
        },
        {
          "duration": 0.06666666666666288,
          "durationTicks": 16,
          "midi": 33,
          "name": "A1",
          "ticks": 22025,
          "time": 91.77083333333334,
          "velocity": 1
        },
        {
          "duration": 0.06666666666666288,
          "durationTicks": 16,
          "midi": 32,
          "name": "G#1",
          "ticks": 22041,
          "time": 91.8375,
          "velocity": 1
        },
        {
          "duration": 0.06666666666666288,
          "durationTicks": 16,
          "midi": 33,
          "name": "A1",
          "ticks": 22041,
          "time": 91.8375,
          "velocity": 1
        },
        {
          "duration": 0.06666666666667709,
          "durationTicks": 16,
          "midi": 31,
          "name": "G1",
          "ticks": 22057,
          "time": 91.90416666666667,
          "velocity": 1
        },
        {
          "duration": 0.06666666666667709,
          "durationTicks": 16,
          "midi": 32,
          "name": "G#1",
          "ticks": 22057,
          "time": 91.90416666666667,
          "velocity": 1
        },
        {
          "duration": 0.0625,
          "durationTicks": 15,
          "midi": 31,
          "name": "G1",
          "ticks": 22073,
          "time": 91.97083333333335,
          "velocity": 1
        },
        {
          "duration": 0.0625,
          "durationTicks": 15,
          "midi": 30,
          "name": "F#1",
          "ticks": 22073,
          "time": 91.97083333333335,
          "velocity": 1
        },
        {
          "duration": 0.06666666666666288,
          "durationTicks": 16,
          "midi": 29,
          "name": "F1",
          "ticks": 22088,
          "time": 92.03333333333335,
          "velocity": 1
        },
        {
          "duration": 0.06666666666666288,
          "durationTicks": 16,
          "midi": 30,
          "name": "F#1",
          "ticks": 22088,
          "time": 92.03333333333335,
          "velocity": 1
        },
        {
          "duration": 0.06666666666666288,
          "durationTicks": 16,
          "midi": 28,
          "name": "E1",
          "ticks": 22104,
          "time": 92.10000000000001,
          "velocity": 1
        },
        {
          "duration": 0.06666666666666288,
          "durationTicks": 16,
          "midi": 29,
          "name": "F1",
          "ticks": 22104,
          "time": 92.10000000000001,
          "velocity": 1
        },
        {
          "duration": 0.0625,
          "durationTicks": 15,
          "midi": 28,
          "name": "E1",
          "ticks": 22120,
          "time": 92.16666666666667,
          "velocity": 1
        },
        {
          "duration": 0.0625,
          "durationTicks": 15,
          "midi": 27,
          "name": "D#1",
          "ticks": 22120,
          "time": 92.16666666666667,
          "velocity": 1
        },
        {
          "duration": 0.06666666666667709,
          "durationTicks": 16,
          "midi": 26,
          "name": "D1",
          "ticks": 22135,
          "time": 92.22916666666667,
          "velocity": 1
        },
        {
          "duration": 0.06666666666667709,
          "durationTicks": 16,
          "midi": 27,
          "name": "D#1",
          "ticks": 22135,
          "time": 92.22916666666667,
          "velocity": 1
        },
        {
          "duration": 0.06666666666666288,
          "durationTicks": 16,
          "midi": 25,
          "name": "C#1",
          "ticks": 22151,
          "time": 92.29583333333335,
          "velocity": 1
        },
        {
          "duration": 0.06666666666666288,
          "durationTicks": 16,
          "midi": 26,
          "name": "D1",
          "ticks": 22151,
          "time": 92.29583333333335,
          "velocity": 1
        },
        {
          "duration": 0.06666666666666288,
          "durationTicks": 16,
          "midi": 25,
          "name": "C#1",
          "ticks": 22167,
          "time": 92.36250000000001,
          "velocity": 1
        },
        {
          "duration": 0.06666666666666288,
          "durationTicks": 16,
          "midi": 24,
          "name": "C1",
          "ticks": 22167,
          "time": 92.36250000000001,
          "velocity": 1
        },
        {
          "duration": 0.0625,
          "durationTicks": 15,
          "midi": 24,
          "name": "C1",
          "ticks": 22183,
          "time": 92.42916666666667,
          "velocity": 1
        },
        {
          "duration": 0.0625,
          "durationTicks": 15,
          "midi": 23,
          "name": "B0",
          "ticks": 22183,
          "time": 92.42916666666667,
          "velocity": 1
        },
        {
          "duration": 0.06666666666666288,
          "durationTicks": 16,
          "midi": 23,
          "name": "B0",
          "ticks": 22198,
          "time": 92.49166666666667,
          "velocity": 1
        },
        {
          "duration": 0.06666666666666288,
          "durationTicks": 16,
          "midi": 22,
          "name": "A#0",
          "ticks": 22198,
          "time": 92.49166666666667,
          "velocity": 1
        },
        {
          "duration": 0.06666666666666288,
          "durationTicks": 16,
          "midi": 21,
          "name": "A0",
          "ticks": 22214,
          "time": 92.55833333333334,
          "velocity": 1
        },
        {
          "duration": 0.06666666666666288,
          "durationTicks": 16,
          "midi": 22,
          "name": "A#0",
          "ticks": 22214,
          "time": 92.55833333333334,
          "velocity": 1
        },
        {
          "duration": 0.06666666666666288,
          "durationTicks": 16,
          "midi": 21,
          "name": "A0",
          "ticks": 22230,
          "time": 92.625,
          "velocity": 1
        },
        {
          "duration": 0.06666666666666288,
          "durationTicks": 16,
          "midi": 20,
          "name": "G#0",
          "ticks": 22230,
          "time": 92.625,
          "velocity": 1
        },
        {
          "duration": 0.0625,
          "durationTicks": 15,
          "midi": 20,
          "name": "G#0",
          "ticks": 22246,
          "time": 92.69166666666666,
          "velocity": 1
        },
        {
          "duration": 0.0625,
          "durationTicks": 15,
          "midi": 19,
          "name": "G0",
          "ticks": 22246,
          "time": 92.69166666666666,
          "velocity": 1
        },
        {
          "duration": 0.06666666666667709,
          "durationTicks": 16,
          "midi": 18,
          "name": "F#0",
          "ticks": 22261,
          "time": 92.75416666666666,
          "velocity": 1
        },
        {
          "duration": 0.06666666666667709,
          "durationTicks": 16,
          "midi": 19,
          "name": "G0",
          "ticks": 22261,
          "time": 92.75416666666666,
          "velocity": 1
        },
        {
          "duration": 0.06666666666666288,
          "durationTicks": 16,
          "midi": 18,
          "name": "F#0",
          "ticks": 22277,
          "time": 92.82083333333334,
          "velocity": 1
        },
        {
          "duration": 0.06666666666666288,
          "durationTicks": 16,
          "midi": 17,
          "name": "F0",
          "ticks": 22277,
          "time": 92.82083333333334,
          "velocity": 1
        }
      ]
    },
    {
      "channel": 0,
      "controlChanges": {
        "6": [
          {
            "number": 6,
            "ticks": 0,
            "time": 0,
            "value": 0.09448818897637795
          }
        ],
        "7": [
          {
            "number": 7,
            "ticks": 0,
            "time": 0,
            "value": 1
          },
          {
            "number": 7,
            "ticks": 0,
            "time": 0,
            "value": 1
          }
        ],
        "10": [
          {
            "number": 10,
            "ticks": 0,
            "time": 0,
            "value": 0.5039370078740157
          },
          {
            "number": 10,
            "ticks": 0,
            "time": 0,
            "value": 0.5039370078740157
          }
        ],
        "100": [
          {
            "number": 100,
            "ticks": 0,
            "time": 0,
            "value": 0
          }
        ],
        "101": [
          {
            "number": 101,
            "ticks": 0,
            "time": 0,
            "value": 0
          }
        ]
      },
      "pitchBends": [
        {
          "ticks": 0,
          "time": 0,
          "value": 0
        },
        {
          "ticks": 0,
          "time": 0,
          "value": 0
        }
      ],
      "instrument": {
        "family": "piano",
        "number": 0,
        "name": "acoustic grand piano"
      },
      "name": "VOCALS",
      "notes": [],
      "endOfTrackTicks": 25715
    },
    {
      "channel": 0,
      "controlChanges": {
        "1": [
          {
            "number": 1,
            "ticks": 0,
            "time": 0,
            "value": 0
          },
          {
            "number": 1,
            "ticks": 0,
            "time": 0,
            "value": 0
          },
          {
            "number": 1,
            "ticks": 0,
            "time": 0,
            "value": 0
          },
          {
            "number": 1,
            "ticks": 1728,
            "time": 7.2,
            "value": 0.2992125984251969
          },
          {
            "number": 1,
            "ticks": 1752,
            "time": 7.300000000000001,
            "value": 0.29133858267716534
          },
          {
            "number": 1,
            "ticks": 1824,
            "time": 7.6000000000000005,
            "value": 0
          },
          {
            "number": 1,
            "ticks": 2064,
            "time": 8.6,
            "value": 0.2440944881889764
          },
          {
            "number": 1,
            "ticks": 2136,
            "time": 8.9,
            "value": 0
          },
          {
            "number": 1,
            "ticks": 2448,
            "time": 10.200000000000001,
            "value": 0.4094488188976378
          },
          {
            "number": 1,
            "ticks": 2616,
            "time": 10.9,
            "value": 0
          },
          {
            "number": 1,
            "ticks": 5568,
            "time": 23.200000000000003,
            "value": 0.4330708661417323
          },
          {
            "number": 1,
            "ticks": 5664,
            "time": 23.6,
            "value": 0
          },
          {
            "number": 1,
            "ticks": 11478,
            "time": 47.825,
            "value": 0.015748031496062992
          },
          {
            "number": 1,
            "ticks": 11480,
            "time": 47.833333333333336,
            "value": 0.023622047244094488
          },
          {
            "number": 1,
            "ticks": 11481,
            "time": 47.837500000000006,
            "value": 0.031496062992125984
          },
          {
            "number": 1,
            "ticks": 11482,
            "time": 47.84166666666667,
            "value": 0.03937007874015748
          },
          {
            "number": 1,
            "ticks": 11483,
            "time": 47.84583333333333,
            "value": 0.047244094488188976
          },
          {
            "number": 1,
            "ticks": 11484,
            "time": 47.85,
            "value": 0.05511811023622047
          },
          {
            "number": 1,
            "ticks": 11485,
            "time": 47.85416666666667,
            "value": 0.06299212598425197
          },
          {
            "number": 1,
            "ticks": 11486,
            "time": 47.858333333333334,
            "value": 0.07086614173228346
          },
          {
            "number": 1,
            "ticks": 11488,
            "time": 47.866666666666674,
            "value": 0.07874015748031496
          },
          {
            "number": 1,
            "ticks": 11489,
            "time": 47.87083333333334,
            "value": 0.08661417322834646
          },
          {
            "number": 1,
            "ticks": 11490,
            "time": 47.875,
            "value": 0.09448818897637795
          },
          {
            "number": 1,
            "ticks": 11491,
            "time": 47.87916666666667,
            "value": 0.10236220472440945
          },
          {
            "number": 1,
            "ticks": 11492,
            "time": 47.88333333333333,
            "value": 0.11023622047244094
          },
          {
            "number": 1,
            "ticks": 11493,
            "time": 47.8875,
            "value": 0.11811023622047244
          },
          {
            "number": 1,
            "ticks": 11494,
            "time": 47.89166666666667,
            "value": 0.12598425196850394
          },
          {
            "number": 1,
            "ticks": 11496,
            "time": 47.900000000000006,
            "value": 0.13385826771653545
          },
          {
            "number": 1,
            "ticks": 11497,
            "time": 47.90416666666667,
            "value": 0.14173228346456693
          },
          {
            "number": 1,
            "ticks": 11498,
            "time": 47.90833333333333,
            "value": 0.14960629921259844
          },
          {
            "number": 1,
            "ticks": 11499,
            "time": 47.9125,
            "value": 0.15748031496062992
          },
          {
            "number": 1,
            "ticks": 11500,
            "time": 47.91666666666667,
            "value": 0.16535433070866143
          },
          {
            "number": 1,
            "ticks": 11501,
            "time": 47.920833333333334,
            "value": 0.1732283464566929
          },
          {
            "number": 1,
            "ticks": 11502,
            "time": 47.925000000000004,
            "value": 0.18110236220472442
          },
          {
            "number": 1,
            "ticks": 11504,
            "time": 47.93333333333334,
            "value": 0.1889763779527559
          },
          {
            "number": 1,
            "ticks": 11505,
            "time": 47.9375,
            "value": 0.1968503937007874
          },
          {
            "number": 1,
            "ticks": 11506,
            "time": 47.94166666666667,
            "value": 0.2047244094488189
          },
          {
            "number": 1,
            "ticks": 11507,
            "time": 47.94583333333333,
            "value": 0.2125984251968504
          },
          {
            "number": 1,
            "ticks": 11508,
            "time": 47.95,
            "value": 0.2204724409448819
          },
          {
            "number": 1,
            "ticks": 11509,
            "time": 47.95416666666667,
            "value": 0.2283464566929134
          },
          {
            "number": 1,
            "ticks": 11510,
            "time": 47.958333333333336,
            "value": 0.23622047244094488
          },
          {
            "number": 1,
            "ticks": 11512,
            "time": 47.96666666666667,
            "value": 0.2440944881889764
          },
          {
            "number": 1,
            "ticks": 11513,
            "time": 47.97083333333333,
            "value": 0.25196850393700787
          },
          {
            "number": 1,
            "ticks": 11514,
            "time": 47.975,
            "value": 0.25984251968503935
          },
          {
            "number": 1,
            "ticks": 11515,
            "time": 47.97916666666667,
            "value": 0.2677165354330709
          },
          {
            "number": 1,
            "ticks": 11516,
            "time": 47.983333333333334,
            "value": 0.2755905511811024
          },
          {
            "number": 1,
            "ticks": 11517,
            "time": 47.987500000000004,
            "value": 0.28346456692913385
          },
          {
            "number": 1,
            "ticks": 11518,
            "time": 47.991666666666674,
            "value": 0.29133858267716534
          },
          {
            "number": 1,
            "ticks": 11520,
            "time": 48,
            "value": 0.2992125984251969
          },
          {
            "number": 1,
            "ticks": 11521,
            "time": 48.00416666666667,
            "value": 0.30708661417322836
          },
          {
            "number": 1,
            "ticks": 11522,
            "time": 48.00833333333333,
            "value": 0.31496062992125984
          },
          {
            "number": 1,
            "ticks": 11523,
            "time": 48.0125,
            "value": 0.3228346456692913
          },
          {
            "number": 1,
            "ticks": 11524,
            "time": 48.01666666666667,
            "value": 0.33070866141732286
          },
          {
            "number": 1,
            "ticks": 11525,
            "time": 48.020833333333336,
            "value": 0.33858267716535434
          },
          {
            "number": 1,
            "ticks": 11526,
            "time": 48.025000000000006,
            "value": 0.3464566929133858
          },
          {
            "number": 1,
            "ticks": 11527,
            "time": 48.02916666666667,
            "value": 0.3543307086614173
          },
          {
            "number": 1,
            "ticks": 11724,
            "time": 48.85,
            "value": 0.23622047244094488
          },
          {
            "number": 1,
            "ticks": 11725,
            "time": 48.85416666666667,
            "value": 0.11811023622047244
          },
          {
            "number": 1,
            "ticks": 11726,
            "time": 48.858333333333334,
            "value": 0
          },
          {
            "number": 1,
            "ticks": 12323,
            "time": 51.34583333333334,
            "value": 0.023622047244094488
          },
          {
            "number": 1,
            "ticks": 12325,
            "time": 51.354166666666664,
            "value": 0
          },
          {
            "number": 1,
            "ticks": 12328,
            "time": 51.36666666666667,
            "value": 0.007874015748031496
          },
          {
            "number": 1,
            "ticks": 12330,
            "time": 51.375,
            "value": 0.015748031496062992
          },
          {
            "number": 1,
            "ticks": 12332,
            "time": 51.38333333333334,
            "value": 0.023622047244094488
          },
          {
            "number": 1,
            "ticks": 12335,
            "time": 51.39583333333334,
            "value": 0.031496062992125984
          },
          {
            "number": 1,
            "ticks": 12337,
            "time": 51.40416666666667,
            "value": 0.03937007874015748
          },
          {
            "number": 1,
            "ticks": 12339,
            "time": 51.4125,
            "value": 0.047244094488188976
          },
          {
            "number": 1,
            "ticks": 12342,
            "time": 51.425000000000004,
            "value": 0.05511811023622047
          },
          {
            "number": 1,
            "ticks": 12344,
            "time": 51.43333333333334,
            "value": 0.06299212598425197
          },
          {
            "number": 1,
            "ticks": 12346,
            "time": 51.44166666666666,
            "value": 0.07086614173228346
          },
          {
            "number": 1,
            "ticks": 12348,
            "time": 51.45,
            "value": 0.07874015748031496
          },
          {
            "number": 1,
            "ticks": 12351,
            "time": 51.462500000000006,
            "value": 0.08661417322834646
          },
          {
            "number": 1,
            "ticks": 12353,
            "time": 51.47083333333334,
            "value": 0.09448818897637795
          },
          {
            "number": 1,
            "ticks": 12355,
            "time": 51.479166666666664,
            "value": 0.10236220472440945
          },
          {
            "number": 1,
            "ticks": 12358,
            "time": 51.49166666666667,
            "value": 0.11023622047244094
          },
          {
            "number": 1,
            "ticks": 12360,
            "time": 51.5,
            "value": 0.11811023622047244
          },
          {
            "number": 1,
            "ticks": 12362,
            "time": 51.50833333333334,
            "value": 0.12598425196850394
          },
          {
            "number": 1,
            "ticks": 12364,
            "time": 51.516666666666666,
            "value": 0.13385826771653545
          },
          {
            "number": 1,
            "ticks": 12367,
            "time": 51.52916666666667,
            "value": 0.14173228346456693
          },
          {
            "number": 1,
            "ticks": 12369,
            "time": 51.5375,
            "value": 0.14960629921259844
          },
          {
            "number": 1,
            "ticks": 12371,
            "time": 51.54583333333334,
            "value": 0.15748031496062992
          },
          {
            "number": 1,
            "ticks": 12374,
            "time": 51.55833333333334,
            "value": 0.16535433070866143
          },
          {
            "number": 1,
            "ticks": 12376,
            "time": 51.56666666666666,
            "value": 0.1732283464566929
          },
          {
            "number": 1,
            "ticks": 12378,
            "time": 51.575,
            "value": 0.18110236220472442
          },
          {
            "number": 1,
            "ticks": 12380,
            "time": 51.58333333333334,
            "value": 0.1889763779527559
          },
          {
            "number": 1,
            "ticks": 12383,
            "time": 51.59583333333334,
            "value": 0.1968503937007874
          },
          {
            "number": 1,
            "ticks": 12385,
            "time": 51.604166666666664,
            "value": 0.2047244094488189
          },
          {
            "number": 1,
            "ticks": 12387,
            "time": 51.612500000000004,
            "value": 0.2125984251968504
          },
          {
            "number": 1,
            "ticks": 12390,
            "time": 51.625,
            "value": 0.2204724409448819
          },
          {
            "number": 1,
            "ticks": 12392,
            "time": 51.63333333333334,
            "value": 0.2283464566929134
          },
          {
            "number": 1,
            "ticks": 12394,
            "time": 51.641666666666666,
            "value": 0.23622047244094488
          },
          {
            "number": 1,
            "ticks": 12396,
            "time": 51.650000000000006,
            "value": 0.2440944881889764
          },
          {
            "number": 1,
            "ticks": 12399,
            "time": 51.6625,
            "value": 0.25196850393700787
          },
          {
            "number": 1,
            "ticks": 12401,
            "time": 51.67083333333334,
            "value": 0.25984251968503935
          },
          {
            "number": 1,
            "ticks": 12403,
            "time": 51.67916666666667,
            "value": 0.2677165354330709
          },
          {
            "number": 1,
            "ticks": 12406,
            "time": 51.69166666666666,
            "value": 0.2755905511811024
          },
          {
            "number": 1,
            "ticks": 12408,
            "time": 51.7,
            "value": 0.28346456692913385
          },
          {
            "number": 1,
            "ticks": 12410,
            "time": 51.70833333333334,
            "value": 0.29133858267716534
          },
          {
            "number": 1,
            "ticks": 12412,
            "time": 51.71666666666667,
            "value": 0.2992125984251969
          },
          {
            "number": 1,
            "ticks": 12415,
            "time": 51.729166666666664,
            "value": 0.30708661417322836
          },
          {
            "number": 1,
            "ticks": 12417,
            "time": 51.737500000000004,
            "value": 0.31496062992125984
          },
          {
            "number": 1,
            "ticks": 12419,
            "time": 51.74583333333334,
            "value": 0.3228346456692913
          },
          {
            "number": 1,
            "ticks": 12422,
            "time": 51.75833333333334,
            "value": 0.33070866141732286
          },
          {
            "number": 1,
            "ticks": 12424,
            "time": 51.766666666666666,
            "value": 0.33858267716535434
          },
          {
            "number": 1,
            "ticks": 12426,
            "time": 51.775000000000006,
            "value": 0.3464566929133858
          },
          {
            "number": 1,
            "ticks": 12428,
            "time": 51.78333333333334,
            "value": 0.3543307086614173
          },
          {
            "number": 1,
            "ticks": 12672,
            "time": 52.800000000000004,
            "value": 0
          },
          {
            "number": 1,
            "ticks": 14424,
            "time": 60.1,
            "value": 0.2440944881889764
          },
          {
            "number": 1,
            "ticks": 14592,
            "time": 60.800000000000004,
            "value": 0
          },
          {
            "number": 1,
            "ticks": 16940,
            "time": 70.58333333333334,
            "value": 0.023622047244094488
          },
          {
            "number": 1,
            "ticks": 16943,
            "time": 70.59583333333335,
            "value": 0.031496062992125984
          },
          {
            "number": 1,
            "ticks": 16945,
            "time": 70.60416666666667,
            "value": 0.03937007874015748
          },
          {
            "number": 1,
            "ticks": 16948,
            "time": 70.61666666666666,
            "value": 0.047244094488188976
          },
          {
            "number": 1,
            "ticks": 16950,
            "time": 70.625,
            "value": 0.05511811023622047
          },
          {
            "number": 1,
            "ticks": 16953,
            "time": 70.6375,
            "value": 0.06299212598425197
          },
          {
            "number": 1,
            "ticks": 16955,
            "time": 70.64583333333334,
            "value": 0.07086614173228346
          },
          {
            "number": 1,
            "ticks": 16958,
            "time": 70.65833333333335,
            "value": 0.07874015748031496
          },
          {
            "number": 1,
            "ticks": 16960,
            "time": 70.66666666666667,
            "value": 0.08661417322834646
          },
          {
            "number": 1,
            "ticks": 16963,
            "time": 70.67916666666666,
            "value": 0.09448818897637795
          },
          {
            "number": 1,
            "ticks": 16965,
            "time": 70.6875,
            "value": 0.10236220472440945
          },
          {
            "number": 1,
            "ticks": 16968,
            "time": 70.7,
            "value": 0.11023622047244094
          },
          {
            "number": 1,
            "ticks": 16970,
            "time": 70.70833333333334,
            "value": 0.11811023622047244
          },
          {
            "number": 1,
            "ticks": 16973,
            "time": 70.72083333333335,
            "value": 0.12598425196850394
          },
          {
            "number": 1,
            "ticks": 16975,
            "time": 70.72916666666667,
            "value": 0.13385826771653545
          },
          {
            "number": 1,
            "ticks": 16978,
            "time": 70.74166666666666,
            "value": 0.14173228346456693
          },
          {
            "number": 1,
            "ticks": 16980,
            "time": 70.75,
            "value": 0.14960629921259844
          },
          {
            "number": 1,
            "ticks": 16983,
            "time": 70.7625,
            "value": 0.15748031496062992
          },
          {
            "number": 1,
            "ticks": 16985,
            "time": 70.77083333333334,
            "value": 0.16535433070866143
          },
          {
            "number": 1,
            "ticks": 16988,
            "time": 70.78333333333335,
            "value": 0.1732283464566929
          },
          {
            "number": 1,
            "ticks": 16990,
            "time": 70.79166666666667,
            "value": 0.18110236220472442
          },
          {
            "number": 1,
            "ticks": 16993,
            "time": 70.80416666666666,
            "value": 0.1889763779527559
          },
          {
            "number": 1,
            "ticks": 16995,
            "time": 70.8125,
            "value": 0.1968503937007874
          },
          {
            "number": 1,
            "ticks": 16998,
            "time": 70.825,
            "value": 0.2047244094488189
          },
          {
            "number": 1,
            "ticks": 17000,
            "time": 70.83333333333334,
            "value": 0.2125984251968504
          },
          {
            "number": 1,
            "ticks": 17280,
            "time": 72,
            "value": 0
          },
          {
            "number": 1,
            "ticks": 18208,
            "time": 75.86666666666666,
            "value": 0.25196850393700787
          },
          {
            "number": 1,
            "ticks": 18270,
            "time": 76.125,
            "value": 0
          },
          {
            "number": 1,
            "ticks": 19224,
            "time": 80.10000000000001,
            "value": 0.2755905511811024
          },
          {
            "number": 1,
            "ticks": 19272,
            "time": 80.30000000000001,
            "value": 0
          },
          {
            "number": 1,
            "ticks": 19421,
            "time": 80.92083333333335,
            "value": 0.25984251968503935
          },
          {
            "number": 1,
            "ticks": 19476,
            "time": 81.15,
            "value": 0
          },
          {
            "number": 1,
            "ticks": 19754,
            "time": 82.30833333333334,
            "value": 0.1968503937007874
          },
          {
            "number": 1,
            "ticks": 19836,
            "time": 82.65,
            "value": 0
          },
          {
            "number": 1,
            "ticks": 22286,
            "time": 92.85833333333335,
            "value": 0.25196850393700787
          },
          {
            "number": 1,
            "ticks": 22371,
            "time": 93.2125,
            "value": 0
          },
          {
            "number": 1,
            "ticks": 25714,
            "time": 107.14166666666668,
            "value": 0
          },
          {
            "number": 1,
            "ticks": 25715,
            "time": 107.14583333333333,
            "value": 0
          }
        ],
        "6": [
          {
            "number": 6,
            "ticks": 0,
            "time": 0,
            "value": 0.09448818897637795
          },
          {
            "number": 6,
            "ticks": 0,
            "time": 0,
            "value": 0.09448818897637795
          },
          {
            "number": 6,
            "ticks": 25714,
            "time": 107.14166666666668,
            "value": 0.09448818897637795
          },
          {
            "number": 6,
            "ticks": 25715,
            "time": 107.14583333333333,
            "value": 0.09448818897637795
          }
        ],
        "7": [
          {
            "number": 7,
            "ticks": 0,
            "time": 0,
            "value": 1
          },
          {
            "number": 7,
            "ticks": 0,
            "time": 0,
            "value": 1
          },
          {
            "number": 7,
            "ticks": 25714,
            "time": 107.14166666666668,
            "value": 1
          },
          {
            "number": 7,
            "ticks": 25715,
            "time": 107.14583333333333,
            "value": 1
          }
        ],
        "10": [
          {
            "number": 10,
            "ticks": 0,
            "time": 0,
            "value": 0.5039370078740157
          },
          {
            "number": 10,
            "ticks": 0,
            "time": 0,
            "value": 0.5039370078740157
          },
          {
            "number": 10,
            "ticks": 25714,
            "time": 107.14166666666668,
            "value": 0.5039370078740157
          },
          {
            "number": 10,
            "ticks": 25715,
            "time": 107.14583333333333,
            "value": 0.5039370078740157
          }
        ],
        "91": [
          {
            "number": 91,
            "ticks": 0,
            "time": 0,
            "value": 0.4015748031496063
          },
          {
            "number": 91,
            "ticks": 0,
            "time": 0,
            "value": 0.4015748031496063
          },
          {
            "number": 91,
            "ticks": 0,
            "time": 0,
            "value": 0.4015748031496063
          },
          {
            "number": 91,
            "ticks": 25714,
            "time": 107.14166666666668,
            "value": 0.4015748031496063
          },
          {
            "number": 91,
            "ticks": 25715,
            "time": 107.14583333333333,
            "value": 0.4015748031496063
          }
        ],
        "100": [
          {
            "number": 100,
            "ticks": 0,
            "time": 0,
            "value": 0
          },
          {
            "number": 100,
            "ticks": 0,
            "time": 0,
            "value": 0
          },
          {
            "number": 100,
            "ticks": 25714,
            "time": 107.14166666666668,
            "value": 0
          },
          {
            "number": 100,
            "ticks": 25715,
            "time": 107.14583333333333,
            "value": 0
          }
        ],
        "101": [
          {
            "number": 101,
            "ticks": 0,
            "time": 0,
            "value": 0
          },
          {
            "number": 101,
            "ticks": 0,
            "time": 0,
            "value": 0
          },
          {
            "number": 101,
            "ticks": 25714,
            "time": 107.14166666666668,
            "value": 0
          },
          {
            "number": 101,
            "ticks": 25715,
            "time": 107.14583333333333,
            "value": 0
          }
        ]
      },
      "pitchBends": [
        {
          "ticks": 0,
          "time": 0,
          "value": 0
        },
        {
          "ticks": 0,
          "time": 0,
          "value": 0
        },
        {
          "ticks": 1714,
          "time": 7.1416666666666675,
          "value": -0.0015869140625
        },
        {
          "ticks": 1715,
          "time": 7.145833333333333,
          "value": -0.012451171875
        },
        {
          "ticks": 1716,
          "time": 7.15,
          "value": -0.0233154296875
        },
        {
          "ticks": 1717,
          "time": 7.154166666666668,
          "value": -0.0340576171875
        },
        {
          "ticks": 1718,
          "time": 7.158333333333333,
          "value": -0.044921875
        },
        {
          "ticks": 1719,
          "time": 7.1625000000000005,
          "value": -0.0557861328125
        },
        {
          "ticks": 1720,
          "time": 7.166666666666668,
          "value": -0.066650390625
        },
        {
          "ticks": 1721,
          "time": 7.170833333333333,
          "value": -0.077392578125
        },
        {
          "ticks": 1722,
          "time": 7.175000000000001,
          "value": -0.0882568359375
        },
        {
          "ticks": 1723,
          "time": 7.179166666666667,
          "value": -0.09912109375
        },
        {
          "ticks": 1724,
          "time": 7.183333333333334,
          "value": -0.1099853515625
        },
        {
          "ticks": 1725,
          "time": 7.1875,
          "value": -0.1207275390625
        },
        {
          "ticks": 1726,
          "time": 7.191666666666667,
          "value": -0.131591796875
        },
        {
          "ticks": 1727,
          "time": 7.195833333333333,
          "value": -0.1065673828125
        },
        {
          "ticks": 1728,
          "time": 7.2,
          "value": -0.10498046875
        },
        {
          "ticks": 1729,
          "time": 7.2041666666666675,
          "value": -0.1224365234375
        },
        {
          "ticks": 1730,
          "time": 7.208333333333333,
          "value": -0.117431640625
        },
        {
          "ticks": 1731,
          "time": 7.2125,
          "value": -0.111572265625
        },
        {
          "ticks": 1732,
          "time": 7.216666666666668,
          "value": -0.105712890625
        },
        {
          "ticks": 1733,
          "time": 7.220833333333333,
          "value": -0.100830078125
        },
        {
          "ticks": 1734,
          "time": 7.2250000000000005,
          "value": -0.094970703125
        },
        {
          "ticks": 1735,
          "time": 7.229166666666668,
          "value": -0.089111328125
        },
        {
          "ticks": 1736,
          "time": 7.233333333333333,
          "value": -0.0841064453125
        },
        {
          "ticks": 1737,
          "time": 7.237500000000001,
          "value": -0.0782470703125
        },
        {
          "ticks": 1738,
          "time": 7.241666666666667,
          "value": -0.0723876953125
        },
        {
          "ticks": 1739,
          "time": 7.245833333333334,
          "value": -0.0673828125
        },
        {
          "ticks": 1740,
          "time": 7.25,
          "value": -0.0616455078125
        },
        {
          "ticks": 1741,
          "time": 7.254166666666667,
          "value": -0.0557861328125
        },
        {
          "ticks": 1742,
          "time": 7.258333333333333,
          "value": -0.05078125
        },
        {
          "ticks": 1743,
          "time": 7.2625,
          "value": -0.044921875
        },
        {
          "ticks": 1744,
          "time": 7.2666666666666675,
          "value": -0.0390625
        },
        {
          "ticks": 1745,
          "time": 7.270833333333333,
          "value": -0.0340576171875
        },
        {
          "ticks": 1746,
          "time": 7.275,
          "value": -0.0283203125
        },
        {
          "ticks": 1747,
          "time": 7.279166666666668,
          "value": -0.0224609375
        },
        {
          "ticks": 1748,
          "time": 7.283333333333333,
          "value": -0.0174560546875
        },
        {
          "ticks": 1749,
          "time": 7.2875000000000005,
          "value": -0.0115966796875
        },
        {
          "ticks": 1750,
          "time": 7.291666666666668,
          "value": -0.0057373046875
        },
        {
          "ticks": 1751,
          "time": 7.295833333333333,
          "value": 0
        },
        {
          "ticks": 2496,
          "time": 10.4,
          "value": -0.1015625
        },
        {
          "ticks": 2497,
          "time": 10.404166666666669,
          "value": -0.097412109375
        },
        {
          "ticks": 2498,
          "time": 10.408333333333333,
          "value": -0.09326171875
        },
        {
          "ticks": 2499,
          "time": 10.412500000000001,
          "value": -0.089111328125
        },
        {
          "ticks": 2500,
          "time": 10.416666666666668,
          "value": -0.0849609375
        },
        {
          "ticks": 2501,
          "time": 10.420833333333334,
          "value": -0.080810546875
        },
        {
          "ticks": 2502,
          "time": 10.425,
          "value": -0.07666015625
        },
        {
          "ticks": 2503,
          "time": 10.429166666666667,
          "value": -0.0723876953125
        },
        {
          "ticks": 2504,
          "time": 10.433333333333334,
          "value": -0.0682373046875
        },
        {
          "ticks": 2505,
          "time": 10.4375,
          "value": -0.0640869140625
        },
        {
          "ticks": 2506,
          "time": 10.441666666666668,
          "value": -0.0599365234375
        },
        {
          "ticks": 2507,
          "time": 10.445833333333333,
          "value": -0.0557861328125
        },
        {
          "ticks": 2508,
          "time": 10.450000000000001,
          "value": -0.05078125
        },
        {
          "ticks": 2509,
          "time": 10.454166666666667,
          "value": -0.046630859375
        },
        {
          "ticks": 2510,
          "time": 10.458333333333334,
          "value": -0.04248046875
        },
        {
          "ticks": 2511,
          "time": 10.4625,
          "value": -0.038330078125
        },
        {
          "ticks": 2512,
          "time": 10.466666666666669,
          "value": -0.0340576171875
        },
        {
          "ticks": 2513,
          "time": 10.470833333333333,
          "value": -0.0299072265625
        },
        {
          "ticks": 2514,
          "time": 10.475000000000001,
          "value": -0.0257568359375
        },
        {
          "ticks": 2515,
          "time": 10.479166666666668,
          "value": -0.0216064453125
        },
        {
          "ticks": 2516,
          "time": 10.483333333333334,
          "value": -0.0174560546875
        },
        {
          "ticks": 2517,
          "time": 10.4875,
          "value": -0.0133056640625
        },
        {
          "ticks": 2518,
          "time": 10.491666666666667,
          "value": -0.0091552734375
        },
        {
          "ticks": 2519,
          "time": 10.495833333333334,
          "value": -0.0048828125
        },
        {
          "ticks": 2520,
          "time": 10.5,
          "value": 0
        },
        {
          "ticks": 3841,
          "time": 16.004166666666666,
          "value": -0.117431640625
        },
        {
          "ticks": 3842,
          "time": 16.008333333333336,
          "value": -0.1107177734375
        },
        {
          "ticks": 3843,
          "time": 16.0125,
          "value": -0.1041259765625
        },
        {
          "ticks": 3844,
          "time": 16.016666666666666,
          "value": -0.097412109375
        },
        {
          "ticks": 3845,
          "time": 16.020833333333336,
          "value": -0.0899658203125
        },
        {
          "ticks": 3846,
          "time": 16.025000000000002,
          "value": -0.083251953125
        },
        {
          "ticks": 3847,
          "time": 16.029166666666665,
          "value": -0.07666015625
        },
        {
          "ticks": 3848,
          "time": 16.033333333333335,
          "value": -0.069091796875
        },
        {
          "ticks": 3849,
          "time": 16.0375,
          "value": -0.0625
        },
        {
          "ticks": 3850,
          "time": 16.041666666666668,
          "value": -0.0557861328125
        },
        {
          "ticks": 3851,
          "time": 16.045833333333334,
          "value": -0.049072265625
        },
        {
          "ticks": 3852,
          "time": 16.05,
          "value": -0.0416259765625
        },
        {
          "ticks": 3853,
          "time": 16.054166666666667,
          "value": -0.034912109375
        },
        {
          "ticks": 3854,
          "time": 16.058333333333334,
          "value": -0.0283203125
        },
        {
          "ticks": 3855,
          "time": 16.0625,
          "value": -0.020751953125
        },
        {
          "ticks": 3856,
          "time": 16.066666666666666,
          "value": -0.01416015625
        },
        {
          "ticks": 3857,
          "time": 16.070833333333336,
          "value": -0.0074462890625
        },
        {
          "ticks": 3858,
          "time": 16.075,
          "value": 0
        },
        {
          "ticks": 4080,
          "time": 17,
          "value": 0.0032958984375
        },
        {
          "ticks": 4081,
          "time": 17.004166666666666,
          "value": -0.0032958984375
        },
        {
          "ticks": 4082,
          "time": 17.008333333333336,
          "value": -0.0107421875
        },
        {
          "ticks": 4083,
          "time": 17.0125,
          "value": -0.0174560546875
        },
        {
          "ticks": 4084,
          "time": 17.016666666666666,
          "value": -0.02490234375
        },
        {
          "ticks": 4085,
          "time": 17.020833333333336,
          "value": -0.0316162109375
        },
        {
          "ticks": 4086,
          "time": 17.025000000000002,
          "value": -0.0390625
        },
        {
          "ticks": 4087,
          "time": 17.029166666666665,
          "value": -0.046630859375
        },
        {
          "ticks": 4088,
          "time": 17.033333333333335,
          "value": -0.05322265625
        },
        {
          "ticks": 4089,
          "time": 17.0375,
          "value": -0.060791015625
        },
        {
          "ticks": 4090,
          "time": 17.041666666666668,
          "value": -0.0673828125
        },
        {
          "ticks": 4091,
          "time": 17.045833333333334,
          "value": -0.074951171875
        },
        {
          "ticks": 4092,
          "time": 17.05,
          "value": -0.0823974609375
        },
        {
          "ticks": 4093,
          "time": 17.054166666666667,
          "value": -0.089111328125
        },
        {
          "ticks": 4094,
          "time": 17.058333333333334,
          "value": -0.0965576171875
        },
        {
          "ticks": 4095,
          "time": 17.0625,
          "value": -0.103271484375
        },
        {
          "ticks": 4096,
          "time": 17.066666666666666,
          "value": -0.1107177734375
        },
        {
          "ticks": 4097,
          "time": 17.070833333333336,
          "value": -0.117431640625
        },
        {
          "ticks": 4098,
          "time": 17.075,
          "value": -0.125
        },
        {
          "ticks": 4099,
          "time": 17.079166666666666,
          "value": -0.1324462890625
        },
        {
          "ticks": 4100,
          "time": 17.083333333333336,
          "value": -0.13916015625
        },
        {
          "ticks": 4101,
          "time": 17.087500000000002,
          "value": -0.1466064453125
        },
        {
          "ticks": 4102,
          "time": 17.091666666666665,
          "value": -0.1533203125
        },
        {
          "ticks": 4103,
          "time": 17.095833333333335,
          "value": -0.1607666015625
        },
        {
          "ticks": 4104,
          "time": 17.1,
          "value": -0.168212890625
        },
        {
          "ticks": 4128,
          "time": 17.2,
          "value": 0
        },
        {
          "ticks": 4783,
          "time": 19.929166666666667,
          "value": -0.000732421875
        },
        {
          "ticks": 4784,
          "time": 19.933333333333337,
          "value": -0.0074462890625
        },
        {
          "ticks": 4785,
          "time": 19.9375,
          "value": -0.01416015625
        },
        {
          "ticks": 4786,
          "time": 19.941666666666666,
          "value": -0.020751953125
        },
        {
          "ticks": 4787,
          "time": 19.945833333333336,
          "value": -0.0274658203125
        },
        {
          "ticks": 4788,
          "time": 19.950000000000003,
          "value": -0.0340576171875
        },
        {
          "ticks": 4789,
          "time": 19.954166666666666,
          "value": -0.040771484375
        },
        {
          "ticks": 4790,
          "time": 19.958333333333336,
          "value": -0.0474853515625
        },
        {
          "ticks": 4791,
          "time": 19.962500000000002,
          "value": -0.0540771484375
        },
        {
          "ticks": 4792,
          "time": 19.96666666666667,
          "value": -0.060791015625
        },
        {
          "ticks": 4793,
          "time": 19.970833333333335,
          "value": -0.0673828125
        },
        {
          "ticks": 4794,
          "time": 19.975,
          "value": -0.0740966796875
        },
        {
          "ticks": 4795,
          "time": 19.979166666666668,
          "value": -0.080810546875
        },
        {
          "ticks": 4796,
          "time": 19.983333333333334,
          "value": -0.08740234375
        },
        {
          "ticks": 4797,
          "time": 19.9875,
          "value": -0.0941162109375
        },
        {
          "ticks": 4798,
          "time": 19.991666666666667,
          "value": -0.0924072265625
        },
        {
          "ticks": 4799,
          "time": 19.995833333333337,
          "value": -0.0882568359375
        },
        {
          "ticks": 4800,
          "time": 20,
          "value": -0.083251953125
        },
        {
          "ticks": 4801,
          "time": 20.004166666666666,
          "value": -0.0791015625
        },
        {
          "ticks": 4802,
          "time": 20.008333333333336,
          "value": -0.0740966796875
        },
        {
          "ticks": 4803,
          "time": 20.012500000000003,
          "value": -0.0699462890625
        },
        {
          "ticks": 4804,
          "time": 20.016666666666666,
          "value": -0.06494140625
        },
        {
          "ticks": 4805,
          "time": 20.020833333333336,
          "value": -0.060791015625
        },
        {
          "ticks": 4806,
          "time": 20.025000000000002,
          "value": -0.0557861328125
        },
        {
          "ticks": 4807,
          "time": 20.02916666666667,
          "value": -0.0516357421875
        },
        {
          "ticks": 4808,
          "time": 20.033333333333335,
          "value": -0.046630859375
        },
        {
          "ticks": 4809,
          "time": 20.0375,
          "value": -0.0416259765625
        },
        {
          "ticks": 4810,
          "time": 20.041666666666668,
          "value": -0.0374755859375
        },
        {
          "ticks": 4811,
          "time": 20.045833333333334,
          "value": -0.032470703125
        },
        {
          "ticks": 4812,
          "time": 20.05,
          "value": -0.0283203125
        },
        {
          "ticks": 4813,
          "time": 20.054166666666667,
          "value": -0.0233154296875
        },
        {
          "ticks": 4814,
          "time": 20.058333333333337,
          "value": -0.0191650390625
        },
        {
          "ticks": 4815,
          "time": 20.0625,
          "value": -0.01416015625
        },
        {
          "ticks": 4816,
          "time": 20.066666666666666,
          "value": -0.0098876953125
        },
        {
          "ticks": 4817,
          "time": 20.070833333333336,
          "value": -0.0048828125
        },
        {
          "ticks": 4818,
          "time": 20.075000000000003,
          "value": 0
        },
        {
          "ticks": 5569,
          "time": 23.204166666666666,
          "value": -0.0699462890625
        },
        {
          "ticks": 5570,
          "time": 23.208333333333336,
          "value": -0.066650390625
        },
        {
          "ticks": 5571,
          "time": 23.212500000000002,
          "value": -0.063232421875
        },
        {
          "ticks": 5572,
          "time": 23.21666666666667,
          "value": -0.05908203125
        },
        {
          "ticks": 5573,
          "time": 23.220833333333335,
          "value": -0.0557861328125
        },
        {
          "ticks": 5574,
          "time": 23.225,
          "value": -0.0516357421875
        },
        {
          "ticks": 5575,
          "time": 23.229166666666668,
          "value": -0.0482177734375
        },
        {
          "ticks": 5576,
          "time": 23.233333333333334,
          "value": -0.044921875
        },
        {
          "ticks": 5577,
          "time": 23.2375,
          "value": -0.040771484375
        },
        {
          "ticks": 5578,
          "time": 23.241666666666667,
          "value": -0.0374755859375
        },
        {
          "ticks": 5579,
          "time": 23.245833333333337,
          "value": -0.0333251953125
        },
        {
          "ticks": 5580,
          "time": 23.25,
          "value": -0.0299072265625
        },
        {
          "ticks": 5581,
          "time": 23.254166666666666,
          "value": -0.0257568359375
        },
        {
          "ticks": 5582,
          "time": 23.258333333333336,
          "value": -0.0224609375
        },
        {
          "ticks": 5583,
          "time": 23.262500000000003,
          "value": -0.0191650390625
        },
        {
          "ticks": 5584,
          "time": 23.266666666666666,
          "value": -0.014892578125
        },
        {
          "ticks": 5585,
          "time": 23.270833333333336,
          "value": -0.0115966796875
        },
        {
          "ticks": 5586,
          "time": 23.275000000000002,
          "value": -0.0074462890625
        },
        {
          "ticks": 5587,
          "time": 23.27916666666667,
          "value": -0.004150390625
        },
        {
          "ticks": 5588,
          "time": 23.283333333333335,
          "value": 0
        },
        {
          "ticks": 5832,
          "time": 24.3,
          "value": -0.1690673828125
        },
        {
          "ticks": 5856,
          "time": 24.400000000000002,
          "value": -0.168212890625
        },
        {
          "ticks": 5880,
          "time": 24.5,
          "value": 0
        },
        {
          "ticks": 7775,
          "time": 32.395833333333336,
          "value": -0.1224365234375
        },
        {
          "ticks": 7776,
          "time": 32.4,
          "value": -0.117431640625
        },
        {
          "ticks": 7777,
          "time": 32.40416666666667,
          "value": -0.111572265625
        },
        {
          "ticks": 7778,
          "time": 32.40833333333333,
          "value": -0.105712890625
        },
        {
          "ticks": 7779,
          "time": 32.4125,
          "value": -0.100830078125
        },
        {
          "ticks": 7780,
          "time": 32.41666666666667,
          "value": -0.094970703125
        },
        {
          "ticks": 7781,
          "time": 32.420833333333334,
          "value": -0.089111328125
        },
        {
          "ticks": 7782,
          "time": 32.425000000000004,
          "value": -0.0841064453125
        },
        {
          "ticks": 7783,
          "time": 32.42916666666667,
          "value": -0.0782470703125
        },
        {
          "ticks": 7784,
          "time": 32.43333333333333,
          "value": -0.0723876953125
        },
        {
          "ticks": 7785,
          "time": 32.4375,
          "value": -0.0673828125
        },
        {
          "ticks": 7786,
          "time": 32.44166666666667,
          "value": -0.0616455078125
        },
        {
          "ticks": 7787,
          "time": 32.44583333333333,
          "value": -0.0557861328125
        },
        {
          "ticks": 7788,
          "time": 32.45,
          "value": -0.05078125
        },
        {
          "ticks": 7789,
          "time": 32.45416666666667,
          "value": -0.044921875
        },
        {
          "ticks": 7790,
          "time": 32.458333333333336,
          "value": -0.0390625
        },
        {
          "ticks": 7791,
          "time": 32.4625,
          "value": -0.0340576171875
        },
        {
          "ticks": 7792,
          "time": 32.46666666666667,
          "value": -0.0283203125
        },
        {
          "ticks": 7793,
          "time": 32.47083333333333,
          "value": -0.0224609375
        },
        {
          "ticks": 7794,
          "time": 32.475,
          "value": -0.0174560546875
        },
        {
          "ticks": 7795,
          "time": 32.47916666666667,
          "value": -0.0115966796875
        },
        {
          "ticks": 7796,
          "time": 32.483333333333334,
          "value": -0.0057373046875
        },
        {
          "ticks": 7797,
          "time": 32.487500000000004,
          "value": 0
        },
        {
          "ticks": 8445,
          "time": 35.1875,
          "value": -0.107421875
        },
        {
          "ticks": 8446,
          "time": 35.19166666666667,
          "value": -0.103271484375
        },
        {
          "ticks": 8447,
          "time": 35.19583333333333,
          "value": -0.09912109375
        },
        {
          "ticks": 8448,
          "time": 35.2,
          "value": -0.094970703125
        },
        {
          "ticks": 8449,
          "time": 35.20416666666667,
          "value": -0.0899658203125
        },
        {
          "ticks": 8450,
          "time": 35.208333333333336,
          "value": -0.0858154296875
        },
        {
          "ticks": 8451,
          "time": 35.2125,
          "value": -0.0816650390625
        },
        {
          "ticks": 8452,
          "time": 35.21666666666667,
          "value": -0.07666015625
        },
        {
          "ticks": 8453,
          "time": 35.22083333333333,
          "value": -0.0723876953125
        },
        {
          "ticks": 8454,
          "time": 35.225,
          "value": -0.0682373046875
        },
        {
          "ticks": 8455,
          "time": 35.22916666666667,
          "value": -0.063232421875
        },
        {
          "ticks": 8456,
          "time": 35.233333333333334,
          "value": -0.05908203125
        },
        {
          "ticks": 8457,
          "time": 35.237500000000004,
          "value": -0.054931640625
        },
        {
          "ticks": 8458,
          "time": 35.24166666666667,
          "value": -0.0499267578125
        },
        {
          "ticks": 8459,
          "time": 35.24583333333333,
          "value": -0.0457763671875
        },
        {
          "ticks": 8460,
          "time": 35.25,
          "value": -0.0416259765625
        },
        {
          "ticks": 8461,
          "time": 35.25416666666667,
          "value": -0.03662109375
        },
        {
          "ticks": 8462,
          "time": 35.25833333333333,
          "value": -0.032470703125
        },
        {
          "ticks": 8463,
          "time": 35.2625,
          "value": -0.0283203125
        },
        {
          "ticks": 8464,
          "time": 35.26666666666667,
          "value": -0.0233154296875
        },
        {
          "ticks": 8465,
          "time": 35.270833333333336,
          "value": -0.0191650390625
        },
        {
          "ticks": 8466,
          "time": 35.275,
          "value": -0.014892578125
        },
        {
          "ticks": 8467,
          "time": 35.27916666666667,
          "value": -0.0098876953125
        },
        {
          "ticks": 8468,
          "time": 35.28333333333333,
          "value": -0.0057373046875
        },
        {
          "ticks": 8469,
          "time": 35.2875,
          "value": -0.0015869140625
        },
        {
          "ticks": 8470,
          "time": 35.29166666666667,
          "value": 0.0032958984375
        },
        {
          "ticks": 8471,
          "time": 35.295833333333334,
          "value": 0.00244140625
        },
        {
          "ticks": 8472,
          "time": 35.300000000000004,
          "value": 0.0015869140625
        },
        {
          "ticks": 8473,
          "time": 35.30416666666667,
          "value": 0
        },
        {
          "ticks": 9216,
          "time": 38.400000000000006,
          "value": -0.119140625
        },
        {
          "ticks": 9217,
          "time": 38.40416666666667,
          "value": -0.11328125
        },
        {
          "ticks": 9218,
          "time": 38.40833333333333,
          "value": -0.1065673828125
        },
        {
          "ticks": 9219,
          "time": 38.4125,
          "value": -0.0999755859375
        },
        {
          "ticks": 9220,
          "time": 38.41666666666667,
          "value": -0.09326171875
        },
        {
          "ticks": 9221,
          "time": 38.420833333333334,
          "value": -0.0865478515625
        },
        {
          "ticks": 9222,
          "time": 38.425000000000004,
          "value": -0.0799560546875
        },
        {
          "ticks": 9223,
          "time": 38.429166666666674,
          "value": -0.0732421875
        },
        {
          "ticks": 9224,
          "time": 38.43333333333334,
          "value": -0.066650390625
        },
        {
          "ticks": 9225,
          "time": 38.4375,
          "value": -0.0599365234375
        },
        {
          "ticks": 9226,
          "time": 38.44166666666667,
          "value": -0.05322265625
        },
        {
          "ticks": 9227,
          "time": 38.44583333333333,
          "value": -0.046630859375
        },
        {
          "ticks": 9228,
          "time": 38.45,
          "value": -0.0399169921875
        },
        {
          "ticks": 9229,
          "time": 38.45416666666667,
          "value": -0.0333251953125
        },
        {
          "ticks": 9230,
          "time": 38.458333333333336,
          "value": -0.026611328125
        },
        {
          "ticks": 9231,
          "time": 38.462500000000006,
          "value": -0.0198974609375
        },
        {
          "ticks": 9232,
          "time": 38.46666666666667,
          "value": -0.0133056640625
        },
        {
          "ticks": 9233,
          "time": 38.47083333333333,
          "value": -0.006591796875
        },
        {
          "ticks": 9234,
          "time": 38.475,
          "value": 0
        },
        {
          "ticks": 16704,
          "time": 69.60000000000001,
          "value": 0.0858154296875
        },
        {
          "ticks": 16853,
          "time": 70.22083333333335,
          "value": 0.083251953125
        },
        {
          "ticks": 16854,
          "time": 70.22500000000001,
          "value": 0.080810546875
        },
        {
          "ticks": 16855,
          "time": 70.22916666666667,
          "value": 0.0782470703125
        },
        {
          "ticks": 16856,
          "time": 70.23333333333333,
          "value": 0.0758056640625
        },
        {
          "ticks": 16857,
          "time": 70.2375,
          "value": 0.0723876953125
        },
        {
          "ticks": 16858,
          "time": 70.24166666666666,
          "value": 0.0699462890625
        },
        {
          "ticks": 16859,
          "time": 70.24583333333334,
          "value": 0.0673828125
        },
        {
          "ticks": 16860,
          "time": 70.25,
          "value": 0.06494140625
        },
        {
          "ticks": 16861,
          "time": 70.25416666666666,
          "value": 0.0616455078125
        },
        {
          "ticks": 16862,
          "time": 70.25833333333334,
          "value": 0.05908203125
        },
        {
          "ticks": 16863,
          "time": 70.2625,
          "value": 0.056640625
        },
        {
          "ticks": 16864,
          "time": 70.26666666666667,
          "value": 0.0540771484375
        },
        {
          "ticks": 16865,
          "time": 70.27083333333334,
          "value": 0.0516357421875
        },
        {
          "ticks": 16866,
          "time": 70.275,
          "value": 0.0482177734375
        },
        {
          "ticks": 16867,
          "time": 70.27916666666667,
          "value": 0.0457763671875
        },
        {
          "ticks": 16868,
          "time": 70.28333333333335,
          "value": 0.043212890625
        },
        {
          "ticks": 16869,
          "time": 70.28750000000001,
          "value": 0.040771484375
        },
        {
          "ticks": 16870,
          "time": 70.29166666666667,
          "value": 0.0374755859375
        },
        {
          "ticks": 16871,
          "time": 70.29583333333333,
          "value": 0.034912109375
        },
        {
          "ticks": 16872,
          "time": 70.3,
          "value": 0.032470703125
        },
        {
          "ticks": 16873,
          "time": 70.30416666666666,
          "value": 0.0299072265625
        },
        {
          "ticks": 16874,
          "time": 70.30833333333334,
          "value": 0.0274658203125
        },
        {
          "ticks": 16875,
          "time": 70.3125,
          "value": 0.0240478515625
        },
        {
          "ticks": 16876,
          "time": 70.31666666666666,
          "value": 0.0216064453125
        },
        {
          "ticks": 16877,
          "time": 70.32083333333334,
          "value": 0.0191650390625
        },
        {
          "ticks": 16878,
          "time": 70.325,
          "value": 0.0166015625
        },
        {
          "ticks": 16879,
          "time": 70.32916666666667,
          "value": 0.0133056640625
        },
        {
          "ticks": 16880,
          "time": 70.33333333333334,
          "value": 0.0107421875
        },
        {
          "ticks": 16881,
          "time": 70.3375,
          "value": 0.00830078125
        },
        {
          "ticks": 16882,
          "time": 70.34166666666667,
          "value": 0.0057373046875
        },
        {
          "ticks": 16883,
          "time": 70.34583333333335,
          "value": 0.00244140625
        },
        {
          "ticks": 16896,
          "time": 70.4,
          "value": 0
        },
        {
          "ticks": 17417,
          "time": 72.57083333333334,
          "value": -0.125
        },
        {
          "ticks": 17418,
          "time": 72.575,
          "value": -0.1207275390625
        },
        {
          "ticks": 17419,
          "time": 72.57916666666667,
          "value": -0.11572265625
        },
        {
          "ticks": 17420,
          "time": 72.58333333333334,
          "value": -0.111572265625
        },
        {
          "ticks": 17421,
          "time": 72.5875,
          "value": -0.1065673828125
        },
        {
          "ticks": 17422,
          "time": 72.59166666666667,
          "value": -0.1024169921875
        },
        {
          "ticks": 17423,
          "time": 72.59583333333335,
          "value": -0.097412109375
        },
        {
          "ticks": 17424,
          "time": 72.60000000000001,
          "value": -0.09326171875
        },
        {
          "ticks": 17425,
          "time": 72.60416666666667,
          "value": -0.0882568359375
        },
        {
          "ticks": 17426,
          "time": 72.60833333333333,
          "value": -0.083251953125
        },
        {
          "ticks": 17427,
          "time": 72.6125,
          "value": -0.0791015625
        },
        {
          "ticks": 17428,
          "time": 72.61666666666666,
          "value": -0.0740966796875
        },
        {
          "ticks": 17429,
          "time": 72.62083333333334,
          "value": -0.0699462890625
        },
        {
          "ticks": 17430,
          "time": 72.625,
          "value": -0.06494140625
        },
        {
          "ticks": 17431,
          "time": 72.62916666666666,
          "value": -0.060791015625
        },
        {
          "ticks": 17432,
          "time": 72.63333333333334,
          "value": -0.0557861328125
        },
        {
          "ticks": 17433,
          "time": 72.6375,
          "value": -0.0516357421875
        },
        {
          "ticks": 17434,
          "time": 72.64166666666667,
          "value": -0.046630859375
        },
        {
          "ticks": 17435,
          "time": 72.64583333333334,
          "value": -0.0416259765625
        },
        {
          "ticks": 17436,
          "time": 72.65,
          "value": -0.0374755859375
        },
        {
          "ticks": 17437,
          "time": 72.65416666666667,
          "value": -0.032470703125
        },
        {
          "ticks": 17438,
          "time": 72.65833333333335,
          "value": -0.0283203125
        },
        {
          "ticks": 17439,
          "time": 72.66250000000001,
          "value": -0.0233154296875
        },
        {
          "ticks": 17440,
          "time": 72.66666666666667,
          "value": -0.0191650390625
        },
        {
          "ticks": 17441,
          "time": 72.67083333333333,
          "value": -0.01416015625
        },
        {
          "ticks": 17442,
          "time": 72.675,
          "value": -0.0098876953125
        },
        {
          "ticks": 17443,
          "time": 72.67916666666666,
          "value": -0.0048828125
        },
        {
          "ticks": 17444,
          "time": 72.68333333333334,
          "value": 0
        },
        {
          "ticks": 17856,
          "time": 74.4,
          "value": -0.1533203125
        },
        {
          "ticks": 17857,
          "time": 74.40416666666667,
          "value": -0.1466064453125
        },
        {
          "ticks": 17858,
          "time": 74.40833333333335,
          "value": -0.13916015625
        },
        {
          "ticks": 17859,
          "time": 74.41250000000001,
          "value": -0.131591796875
        },
        {
          "ticks": 17860,
          "time": 74.41666666666667,
          "value": -0.1241455078125
        },
        {
          "ticks": 17861,
          "time": 74.42083333333333,
          "value": -0.117431640625
        },
        {
          "ticks": 17862,
          "time": 74.425,
          "value": -0.1099853515625
        },
        {
          "ticks": 17863,
          "time": 74.42916666666666,
          "value": -0.1024169921875
        },
        {
          "ticks": 17864,
          "time": 74.43333333333334,
          "value": -0.094970703125
        },
        {
          "ticks": 17865,
          "time": 74.4375,
          "value": -0.0882568359375
        },
        {
          "ticks": 17866,
          "time": 74.44166666666666,
          "value": -0.080810546875
        },
        {
          "ticks": 17867,
          "time": 74.44583333333334,
          "value": -0.0732421875
        },
        {
          "ticks": 17868,
          "time": 74.45,
          "value": -0.0657958984375
        },
        {
          "ticks": 17869,
          "time": 74.45416666666667,
          "value": -0.05908203125
        },
        {
          "ticks": 17870,
          "time": 74.45833333333334,
          "value": -0.0516357421875
        },
        {
          "ticks": 17871,
          "time": 74.4625,
          "value": -0.0440673828125
        },
        {
          "ticks": 17872,
          "time": 74.46666666666667,
          "value": -0.03662109375
        },
        {
          "ticks": 17873,
          "time": 74.47083333333335,
          "value": -0.0299072265625
        },
        {
          "ticks": 17874,
          "time": 74.47500000000001,
          "value": -0.0224609375
        },
        {
          "ticks": 17875,
          "time": 74.47916666666667,
          "value": -0.014892578125
        },
        {
          "ticks": 17876,
          "time": 74.48333333333333,
          "value": -0.0074462890625
        },
        {
          "ticks": 17877,
          "time": 74.4875,
          "value": 0
        },
        {
          "ticks": 18623,
          "time": 77.59583333333335,
          "value": -0.0999755859375
        },
        {
          "ticks": 18624,
          "time": 77.60000000000001,
          "value": -0.09326171875
        },
        {
          "ticks": 18625,
          "time": 77.60416666666667,
          "value": -0.0865478515625
        },
        {
          "ticks": 18626,
          "time": 77.60833333333335,
          "value": -0.0799560546875
        },
        {
          "ticks": 18627,
          "time": 77.61250000000001,
          "value": -0.0732421875
        },
        {
          "ticks": 18628,
          "time": 77.61666666666667,
          "value": -0.066650390625
        },
        {
          "ticks": 18629,
          "time": 77.62083333333334,
          "value": -0.0599365234375
        },
        {
          "ticks": 18630,
          "time": 77.625,
          "value": -0.05322265625
        },
        {
          "ticks": 18631,
          "time": 77.62916666666666,
          "value": -0.046630859375
        },
        {
          "ticks": 18632,
          "time": 77.63333333333334,
          "value": -0.0399169921875
        },
        {
          "ticks": 18633,
          "time": 77.6375,
          "value": -0.0333251953125
        },
        {
          "ticks": 18634,
          "time": 77.64166666666667,
          "value": -0.026611328125
        },
        {
          "ticks": 18635,
          "time": 77.64583333333334,
          "value": -0.0198974609375
        },
        {
          "ticks": 18636,
          "time": 77.65,
          "value": -0.0133056640625
        },
        {
          "ticks": 18637,
          "time": 77.65416666666667,
          "value": -0.006591796875
        },
        {
          "ticks": 18638,
          "time": 77.65833333333335,
          "value": 0
        },
        {
          "ticks": 19968,
          "time": 83.2,
          "value": -0.1107177734375
        },
        {
          "ticks": 19969,
          "time": 83.20416666666667,
          "value": -0.105712890625
        },
        {
          "ticks": 19970,
          "time": 83.20833333333334,
          "value": -0.0999755859375
        },
        {
          "ticks": 19971,
          "time": 83.2125,
          "value": -0.094970703125
        },
        {
          "ticks": 19972,
          "time": 83.21666666666667,
          "value": -0.089111328125
        },
        {
          "ticks": 19973,
          "time": 83.22083333333335,
          "value": -0.083251953125
        },
        {
          "ticks": 19974,
          "time": 83.22500000000001,
          "value": -0.0782470703125
        },
        {
          "ticks": 19975,
          "time": 83.22916666666667,
          "value": -0.0723876953125
        },
        {
          "ticks": 19976,
          "time": 83.23333333333335,
          "value": -0.066650390625
        },
        {
          "ticks": 19977,
          "time": 83.23750000000001,
          "value": -0.0616455078125
        },
        {
          "ticks": 19978,
          "time": 83.24166666666667,
          "value": -0.0557861328125
        },
        {
          "ticks": 19979,
          "time": 83.24583333333334,
          "value": -0.0499267578125
        },
        {
          "ticks": 19980,
          "time": 83.25,
          "value": -0.044921875
        },
        {
          "ticks": 19981,
          "time": 83.25416666666666,
          "value": -0.0390625
        },
        {
          "ticks": 19982,
          "time": 83.25833333333334,
          "value": -0.0333251953125
        },
        {
          "ticks": 19983,
          "time": 83.2625,
          "value": -0.0283203125
        },
        {
          "ticks": 19984,
          "time": 83.26666666666667,
          "value": -0.0224609375
        },
        {
          "ticks": 19985,
          "time": 83.27083333333334,
          "value": -0.0166015625
        },
        {
          "ticks": 19986,
          "time": 83.275,
          "value": -0.0115966796875
        },
        {
          "ticks": 19987,
          "time": 83.27916666666667,
          "value": -0.0057373046875
        },
        {
          "ticks": 19988,
          "time": 83.28333333333335,
          "value": 0
        },
        {
          "ticks": 20207,
          "time": 84.19583333333334,
          "value": -0.01416015625
        },
        {
          "ticks": 20208,
          "time": 84.2,
          "value": -0.0174560546875
        },
        {
          "ticks": 20209,
          "time": 84.20416666666667,
          "value": -0.020751953125
        },
        {
          "ticks": 20210,
          "time": 84.20833333333334,
          "value": -0.02490234375
        },
        {
          "ticks": 20211,
          "time": 84.2125,
          "value": -0.0283203125
        },
        {
          "ticks": 20212,
          "time": 84.21666666666667,
          "value": -0.0316162109375
        },
        {
          "ticks": 20213,
          "time": 84.22083333333335,
          "value": -0.0357666015625
        },
        {
          "ticks": 20214,
          "time": 84.22500000000001,
          "value": -0.0390625
        },
        {
          "ticks": 20215,
          "time": 84.22916666666667,
          "value": -0.043212890625
        },
        {
          "ticks": 20216,
          "time": 84.23333333333335,
          "value": -0.046630859375
        },
        {
          "ticks": 20217,
          "time": 84.23750000000001,
          "value": -0.0499267578125
        },
        {
          "ticks": 20218,
          "time": 84.24166666666667,
          "value": -0.0540771484375
        },
        {
          "ticks": 20219,
          "time": 84.24583333333334,
          "value": -0.0574951171875
        },
        {
          "ticks": 20220,
          "time": 84.25,
          "value": -0.0616455078125
        },
        {
          "ticks": 20221,
          "time": 84.25416666666666,
          "value": -0.06494140625
        },
        {
          "ticks": 20222,
          "time": 84.25833333333334,
          "value": -0.0682373046875
        },
        {
          "ticks": 20223,
          "time": 84.2625,
          "value": -0.0723876953125
        },
        {
          "ticks": 20224,
          "time": 84.26666666666667,
          "value": -0.0758056640625
        },
        {
          "ticks": 20225,
          "time": 84.27083333333334,
          "value": -0.0799560546875
        },
        {
          "ticks": 20226,
          "time": 84.275,
          "value": -0.083251953125
        },
        {
          "ticks": 20227,
          "time": 84.27916666666667,
          "value": -0.0865478515625
        },
        {
          "ticks": 20228,
          "time": 84.28333333333335,
          "value": -0.0908203125
        },
        {
          "ticks": 20229,
          "time": 84.28750000000001,
          "value": -0.0941162109375
        },
        {
          "ticks": 20230,
          "time": 84.29166666666667,
          "value": -0.0982666015625
        },
        {
          "ticks": 20231,
          "time": 84.29583333333335,
          "value": -0.1015625
        },
        {
          "ticks": 20232,
          "time": 84.30000000000001,
          "value": -0.10498046875
        },
        {
          "ticks": 20233,
          "time": 84.30416666666667,
          "value": -0.109130859375
        },
        {
          "ticks": 20234,
          "time": 84.30833333333334,
          "value": -0.1124267578125
        },
        {
          "ticks": 20235,
          "time": 84.3125,
          "value": -0.1165771484375
        },
        {
          "ticks": 20236,
          "time": 84.31666666666666,
          "value": -0.1199951171875
        },
        {
          "ticks": 20237,
          "time": 84.32083333333334,
          "value": -0.123291015625
        },
        {
          "ticks": 20238,
          "time": 84.325,
          "value": -0.12744140625
        },
        {
          "ticks": 20239,
          "time": 84.32916666666667,
          "value": -0.1307373046875
        },
        {
          "ticks": 20240,
          "time": 84.33333333333334,
          "value": -0.1348876953125
        },
        {
          "ticks": 20241,
          "time": 84.3375,
          "value": -0.1383056640625
        },
        {
          "ticks": 20242,
          "time": 84.34166666666667,
          "value": -0.1416015625
        },
        {
          "ticks": 20243,
          "time": 84.34583333333335,
          "value": -0.145751953125
        },
        {
          "ticks": 20244,
          "time": 84.35000000000001,
          "value": -0.1490478515625
        },
        {
          "ticks": 20245,
          "time": 84.35416666666667,
          "value": -0.1533203125
        },
        {
          "ticks": 20246,
          "time": 84.35833333333335,
          "value": -0.1566162109375
        },
        {
          "ticks": 20247,
          "time": 84.36250000000001,
          "value": -0.159912109375
        },
        {
          "ticks": 20248,
          "time": 84.36666666666667,
          "value": -0.1640625
        },
        {
          "ticks": 20249,
          "time": 84.37083333333334,
          "value": -0.16748046875
        },
        {
          "ticks": 20250,
          "time": 84.375,
          "value": -0.171630859375
        },
        {
          "ticks": 20251,
          "time": 84.37916666666666,
          "value": -0.1624755859375
        },
        {
          "ticks": 20252,
          "time": 84.38333333333334,
          "value": -0.1607666015625
        },
        {
          "ticks": 20257,
          "time": 84.40416666666667,
          "value": 0
        },
        {
          "ticks": 20925,
          "time": 87.1875,
          "value": -0.17822265625
        },
        {
          "ticks": 20926,
          "time": 87.19166666666666,
          "value": -0.1666259765625
        },
        {
          "ticks": 20927,
          "time": 87.19583333333334,
          "value": -0.1549072265625
        },
        {
          "ticks": 20928,
          "time": 87.2,
          "value": -0.143310546875
        },
        {
          "ticks": 20929,
          "time": 87.20416666666667,
          "value": -0.1307373046875
        },
        {
          "ticks": 20930,
          "time": 87.20833333333334,
          "value": -0.119140625
        },
        {
          "ticks": 20931,
          "time": 87.2125,
          "value": -0.107421875
        },
        {
          "ticks": 20932,
          "time": 87.21666666666667,
          "value": -0.0958251953125
        },
        {
          "ticks": 20933,
          "time": 87.22083333333335,
          "value": -0.083251953125
        },
        {
          "ticks": 20934,
          "time": 87.22500000000001,
          "value": -0.0716552734375
        },
        {
          "ticks": 20935,
          "time": 87.22916666666667,
          "value": -0.0599365234375
        },
        {
          "ticks": 20936,
          "time": 87.23333333333335,
          "value": -0.0482177734375
        },
        {
          "ticks": 20937,
          "time": 87.23750000000001,
          "value": -0.0357666015625
        },
        {
          "ticks": 20938,
          "time": 87.24166666666667,
          "value": -0.0240478515625
        },
        {
          "ticks": 20939,
          "time": 87.24583333333334,
          "value": -0.012451171875
        },
        {
          "ticks": 20940,
          "time": 87.25,
          "value": 0
        },
        {
          "ticks": 21698,
          "time": 90.40833333333335,
          "value": -0.1357421875
        },
        {
          "ticks": 21699,
          "time": 90.41250000000001,
          "value": -0.125732421875
        },
        {
          "ticks": 21700,
          "time": 90.41666666666667,
          "value": -0.114990234375
        },
        {
          "ticks": 21701,
          "time": 90.42083333333335,
          "value": -0.10498046875
        },
        {
          "ticks": 21702,
          "time": 90.42500000000001,
          "value": -0.0941162109375
        },
        {
          "ticks": 21703,
          "time": 90.42916666666667,
          "value": -0.0841064453125
        },
        {
          "ticks": 21704,
          "time": 90.43333333333334,
          "value": -0.0732421875
        },
        {
          "ticks": 21705,
          "time": 90.4375,
          "value": -0.063232421875
        },
        {
          "ticks": 21706,
          "time": 90.44166666666666,
          "value": -0.052490234375
        },
        {
          "ticks": 21707,
          "time": 90.44583333333334,
          "value": -0.04248046875
        },
        {
          "ticks": 21708,
          "time": 90.45,
          "value": -0.0316162109375
        },
        {
          "ticks": 21709,
          "time": 90.45416666666667,
          "value": -0.0216064453125
        },
        {
          "ticks": 21710,
          "time": 90.45833333333334,
          "value": -0.0107421875
        },
        {
          "ticks": 21711,
          "time": 90.4625,
          "value": 0
        },
        {
          "ticks": 21972,
          "time": 91.55000000000001,
          "value": -0.1607666015625
        },
        {
          "ticks": 22017,
          "time": 91.73750000000001,
          "value": 0
        },
        {
          "ticks": 25714,
          "time": 107.14166666666668,
          "value": 0
        },
        {
          "ticks": 25715,
          "time": 107.14583333333333,
          "value": 0
        }
      ],
      "instrument": {
        "family": "organ",
        "number": 22,
        "name": "harmonica"
      },
      "name": "",
      "notes": [
        {
          "duration": 0.40000000000000036,
          "durationTicks": 96,
          "midi": 69,
          "name": "A4",
          "ticks": 1296,
          "time": 5.4,
          "velocity": 1
        },
        {
          "duration": 0.1999999999999993,
          "durationTicks": 48,
          "midi": 71,
          "name": "B4",
          "ticks": 1392,
          "time": 5.800000000000001,
          "velocity": 1
        },
        {
          "duration": 0.20000000000000018,
          "durationTicks": 48,
          "midi": 73,
          "name": "C#5",
          "ticks": 1440,
          "time": 6,
          "velocity": 1
        },
        {
          "duration": 0.20000000000000018,
          "durationTicks": 48,
          "midi": 74,
          "name": "D5",
          "ticks": 1488,
          "time": 6.2,
          "velocity": 1
        },
        {
          "duration": 0.375,
          "durationTicks": 90,
          "midi": 73,
          "name": "C#5",
          "ticks": 1536,
          "time": 6.4,
          "velocity": 0.4330708661417323
        },
        {
          "duration": 0.375,
          "durationTicks": 90,
          "midi": 81,
          "name": "A5",
          "ticks": 1536,
          "time": 6.4,
          "velocity": 0.7401574803149606
        },
        {
          "duration": 0.375,
          "durationTicks": 90,
          "midi": 76,
          "name": "E5",
          "ticks": 1536,
          "time": 6.4,
          "velocity": 1
        },
        {
          "duration": 0.375,
          "durationTicks": 90,
          "midi": 73,
          "name": "C#5",
          "ticks": 1632,
          "time": 6.800000000000001,
          "velocity": 0.4330708661417323
        },
        {
          "duration": 0.375,
          "durationTicks": 90,
          "midi": 81,
          "name": "A5",
          "ticks": 1632,
          "time": 6.800000000000001,
          "velocity": 0.7401574803149606
        },
        {
          "duration": 0.375,
          "durationTicks": 90,
          "midi": 76,
          "name": "E5",
          "ticks": 1632,
          "time": 6.800000000000001,
          "velocity": 1
        },
        {
          "duration": 0.375,
          "durationTicks": 90,
          "midi": 73,
          "name": "C#5",
          "ticks": 1728,
          "time": 7.2,
          "velocity": 0.4330708661417323
        },
        {
          "duration": 0.375,
          "durationTicks": 90,
          "midi": 81,
          "name": "A5",
          "ticks": 1728,
          "time": 7.2,
          "velocity": 0.7401574803149606
        },
        {
          "duration": 0.375,
          "durationTicks": 90,
          "midi": 76,
          "name": "E5",
          "ticks": 1728,
          "time": 7.2,
          "velocity": 1
        },
        {
          "duration": 0.1999999999999993,
          "durationTicks": 48,
          "midi": 76,
          "name": "E5",
          "ticks": 1872,
          "time": 7.800000000000001,
          "velocity": 1
        },
        {
          "duration": 0.20000000000000107,
          "durationTicks": 48,
          "midi": 76,
          "name": "E5",
          "ticks": 1920,
          "time": 8,
          "velocity": 1
        },
        {
          "duration": 0.1999999999999993,
          "durationTicks": 48,
          "midi": 74,
          "name": "D5",
          "ticks": 1968,
          "time": 8.200000000000001,
          "velocity": 1
        },
        {
          "duration": 0.1999999999999993,
          "durationTicks": 48,
          "midi": 73,
          "name": "C#5",
          "ticks": 2016,
          "time": 8.4,
          "velocity": 1
        },
        {
          "duration": 0.3000000000000007,
          "durationTicks": 72,
          "midi": 71,
          "name": "B4",
          "ticks": 2064,
          "time": 8.6,
          "velocity": 1
        },
        {
          "duration": 0.2375000000000007,
          "durationTicks": 57,
          "midi": 69,
          "name": "A4",
          "ticks": 2160,
          "time": 9,
          "velocity": 1
        },
        {
          "duration": 0.20000000000000107,
          "durationTicks": 48,
          "midi": 71,
          "name": "B4",
          "ticks": 2256,
          "time": 9.4,
          "velocity": 1
        },
        {
          "duration": 0.375,
          "durationTicks": 90,
          "midi": 69,
          "name": "A4",
          "ticks": 2304,
          "time": 9.600000000000001,
          "velocity": 0.44881889763779526
        },
        {
          "duration": 0.375,
          "durationTicks": 90,
          "midi": 78,
          "name": "F#5",
          "ticks": 2304,
          "time": 9.600000000000001,
          "velocity": 0.7952755905511811
        },
        {
          "duration": 0.375,
          "durationTicks": 90,
          "midi": 73,
          "name": "C#5",
          "ticks": 2304,
          "time": 9.600000000000001,
          "velocity": 1
        },
        {
          "duration": 0.375,
          "durationTicks": 90,
          "midi": 69,
          "name": "A4",
          "ticks": 2400,
          "time": 10,
          "velocity": 0.44881889763779526
        },
        {
          "duration": 0.375,
          "durationTicks": 90,
          "midi": 78,
          "name": "F#5",
          "ticks": 2400,
          "time": 10,
          "velocity": 0.7952755905511811
        },
        {
          "duration": 0.375,
          "durationTicks": 90,
          "midi": 73,
          "name": "C#5",
          "ticks": 2400,
          "time": 10,
          "velocity": 1
        },
        {
          "duration": 0.375,
          "durationTicks": 90,
          "midi": 69,
          "name": "A4",
          "ticks": 2496,
          "time": 10.4,
          "velocity": 0.44881889763779526
        },
        {
          "duration": 0.375,
          "durationTicks": 90,
          "midi": 78,
          "name": "F#5",
          "ticks": 2496,
          "time": 10.4,
          "velocity": 0.7952755905511811
        },
        {
          "duration": 0.47499999999999964,
          "durationTicks": 114,
          "midi": 73,
          "name": "C#5",
          "ticks": 2496,
          "time": 10.4,
          "velocity": 1
        },
        {
          "duration": 0.20000000000000107,
          "durationTicks": 48,
          "midi": 73,
          "name": "C#5",
          "ticks": 2640,
          "time": 11,
          "velocity": 1
        },
        {
          "duration": 0.1999999999999993,
          "durationTicks": 48,
          "midi": 73,
          "name": "C#5",
          "ticks": 2688,
          "time": 11.200000000000001,
          "velocity": 1
        },
        {
          "duration": 0.20000000000000107,
          "durationTicks": 48,
          "midi": 71,
          "name": "B4",
          "ticks": 2736,
          "time": 11.4,
          "velocity": 1
        },
        {
          "duration": 0.1999999999999993,
          "durationTicks": 48,
          "midi": 69,
          "name": "A4",
          "ticks": 2784,
          "time": 11.600000000000001,
          "velocity": 1
        },
        {
          "duration": 0.3000000000000007,
          "durationTicks": 72,
          "midi": 68,
          "name": "G#4",
          "ticks": 2832,
          "time": 11.8,
          "velocity": 1
        },
        {
          "duration": 0.1999999999999993,
          "durationTicks": 48,
          "midi": 69,
          "name": "A4",
          "ticks": 2928,
          "time": 12.200000000000001,
          "velocity": 1
        },
        {
          "duration": 0.20000000000000107,
          "durationTicks": 48,
          "midi": 68,
          "name": "G#4",
          "ticks": 2976,
          "time": 12.4,
          "velocity": 1
        },
        {
          "duration": 0.1999999999999993,
          "durationTicks": 48,
          "midi": 64,
          "name": "E4",
          "ticks": 3024,
          "time": 12.600000000000001,
          "velocity": 0.9921259842519685
        },
        {
          "duration": 0.3000000000000007,
          "durationTicks": 72,
          "midi": 66,
          "name": "F#4",
          "ticks": 3072,
          "time": 12.8,
          "velocity": 1
        },
        {
          "duration": 0.20000000000000107,
          "durationTicks": 48,
          "midi": 66,
          "name": "F#4",
          "ticks": 3216,
          "time": 13.4,
          "velocity": 1
        },
        {
          "duration": 0.29999999999999893,
          "durationTicks": 72,
          "midi": 68,
          "name": "G#4",
          "ticks": 3264,
          "time": 13.600000000000001,
          "velocity": 1
        },
        {
          "duration": 0.1999999999999993,
          "durationTicks": 48,
          "midi": 68,
          "name": "G#4",
          "ticks": 3408,
          "time": 14.200000000000001,
          "velocity": 1
        },
        {
          "duration": 0.3000000000000007,
          "durationTicks": 72,
          "midi": 69,
          "name": "A4",
          "ticks": 3456,
          "time": 14.4,
          "velocity": 1
        },
        {
          "duration": 0.1999999999999993,
          "durationTicks": 48,
          "midi": 71,
          "name": "B4",
          "ticks": 3552,
          "time": 14.8,
          "velocity": 1
        },
        {
          "duration": 0.40000000000000036,
          "durationTicks": 96,
          "midi": 69,
          "name": "A4",
          "ticks": 3600,
          "time": 15,
          "velocity": 1
        },
        {
          "duration": 0.1999999999999993,
          "durationTicks": 48,
          "midi": 69,
          "name": "A4",
          "ticks": 3792,
          "time": 15.8,
          "velocity": 1
        },
        {
          "duration": 0.40000000000000213,
          "durationTicks": 96,
          "midi": 74,
          "name": "D5",
          "ticks": 3840,
          "time": 16,
          "velocity": 1
        },
        {
          "duration": 0.29999999999999716,
          "durationTicks": 72,
          "midi": 73,
          "name": "C#5",
          "ticks": 3936,
          "time": 16.400000000000002,
          "velocity": 1
        },
        {
          "duration": 0.3999999999999986,
          "durationTicks": 96,
          "midi": 71,
          "name": "B4",
          "ticks": 4032,
          "time": 16.8,
          "velocity": 1
        },
        {
          "duration": 0.20000000000000284,
          "durationTicks": 48,
          "midi": 69,
          "name": "A4",
          "ticks": 4128,
          "time": 17.2,
          "velocity": 1
        },
        {
          "duration": 0.3999999999999986,
          "durationTicks": 96,
          "midi": 71,
          "name": "B4",
          "ticks": 4176,
          "time": 17.400000000000002,
          "velocity": 1
        },
        {
          "duration": 0.40000000000000213,
          "durationTicks": 96,
          "midi": 69,
          "name": "A4",
          "ticks": 4368,
          "time": 18.2,
          "velocity": 1
        },
        {
          "duration": 0.1999999999999993,
          "durationTicks": 48,
          "midi": 71,
          "name": "B4",
          "ticks": 4464,
          "time": 18.6,
          "velocity": 1
        },
        {
          "duration": 0.1999999999999993,
          "durationTicks": 48,
          "midi": 73,
          "name": "C#5",
          "ticks": 4512,
          "time": 18.8,
          "velocity": 1
        },
        {
          "duration": 0.20000000000000284,
          "durationTicks": 48,
          "midi": 74,
          "name": "D5",
          "ticks": 4560,
          "time": 19,
          "velocity": 0.9921259842519685
        },
        {
          "duration": 0.375,
          "durationTicks": 90,
          "midi": 73,
          "name": "C#5",
          "ticks": 4608,
          "time": 19.200000000000003,
          "velocity": 0.5196850393700787
        },
        {
          "duration": 0.375,
          "durationTicks": 90,
          "midi": 81,
          "name": "A5",
          "ticks": 4608,
          "time": 19.200000000000003,
          "velocity": 0.7637795275590551
        },
        {
          "duration": 0.375,
          "durationTicks": 90,
          "midi": 76,
          "name": "E5",
          "ticks": 4608,
          "time": 19.200000000000003,
          "velocity": 1
        },
        {
          "duration": 0.375,
          "durationTicks": 90,
          "midi": 73,
          "name": "C#5",
          "ticks": 4704,
          "time": 19.6,
          "velocity": 0.5196850393700787
        },
        {
          "duration": 0.375,
          "durationTicks": 90,
          "midi": 76,
          "name": "E5",
          "ticks": 4704,
          "time": 19.6,
          "velocity": 1
        },
        {
          "duration": 0.375,
          "durationTicks": 90,
          "midi": 81,
          "name": "A5",
          "ticks": 4704,
          "time": 19.6,
          "velocity": 0.7637795275590551
        },
        {
          "duration": 0.375,
          "durationTicks": 90,
          "midi": 73,
          "name": "C#5",
          "ticks": 4800,
          "time": 20,
          "velocity": 0.5196850393700787
        },
        {
          "duration": 0.375,
          "durationTicks": 90,
          "midi": 81,
          "name": "A5",
          "ticks": 4800,
          "time": 20,
          "velocity": 0.7637795275590551
        },
        {
          "duration": 0.375,
          "durationTicks": 90,
          "midi": 76,
          "name": "E5",
          "ticks": 4800,
          "time": 20,
          "velocity": 1
        },
        {
          "duration": 0.1999999999999993,
          "durationTicks": 48,
          "midi": 76,
          "name": "E5",
          "ticks": 4944,
          "time": 20.6,
          "velocity": 1
        },
        {
          "duration": 0.1999999999999993,
          "durationTicks": 48,
          "midi": 76,
          "name": "E5",
          "ticks": 4992,
          "time": 20.8,
          "velocity": 1
        },
        {
          "duration": 0.20000000000000284,
          "durationTicks": 48,
          "midi": 74,
          "name": "D5",
          "ticks": 5040,
          "time": 21,
          "velocity": 0.9921259842519685
        },
        {
          "duration": 0.1999999999999993,
          "durationTicks": 48,
          "midi": 73,
          "name": "C#5",
          "ticks": 5088,
          "time": 21.200000000000003,
          "velocity": 1
        },
        {
          "duration": 0.3000000000000007,
          "durationTicks": 72,
          "midi": 71,
          "name": "B4",
          "ticks": 5136,
          "time": 21.400000000000002,
          "velocity": 1
        },
        {
          "duration": 0.375,
          "durationTicks": 90,
          "midi": 69,
          "name": "A4",
          "ticks": 5232,
          "time": 21.8,
          "velocity": 1
        },
        {
          "duration": 0.17499999999999716,
          "durationTicks": 42,
          "midi": 71,
          "name": "B4",
          "ticks": 5328,
          "time": 22.200000000000003,
          "velocity": 0.9921259842519685
        },
        {
          "duration": 0.375,
          "durationTicks": 90,
          "midi": 69,
          "name": "A4",
          "ticks": 5376,
          "time": 22.400000000000002,
          "velocity": 0.5511811023622047
        },
        {
          "duration": 0.375,
          "durationTicks": 90,
          "midi": 73,
          "name": "C#5",
          "ticks": 5376,
          "time": 22.400000000000002,
          "velocity": 1
        },
        {
          "duration": 0.375,
          "durationTicks": 90,
          "midi": 78,
          "name": "F#5",
          "ticks": 5376,
          "time": 22.400000000000002,
          "velocity": 0.7401574803149606
        },
        {
          "duration": 0.375,
          "durationTicks": 90,
          "midi": 69,
          "name": "A4",
          "ticks": 5472,
          "time": 22.8,
          "velocity": 0.5511811023622047
        },
        {
          "duration": 0.375,
          "durationTicks": 90,
          "midi": 78,
          "name": "F#5",
          "ticks": 5472,
          "time": 22.8,
          "velocity": 0.7401574803149606
        },
        {
          "duration": 0.375,
          "durationTicks": 90,
          "midi": 73,
          "name": "C#5",
          "ticks": 5472,
          "time": 22.8,
          "velocity": 1
        },
        {
          "duration": 0.375,
          "durationTicks": 90,
          "midi": 69,
          "name": "A4",
          "ticks": 5568,
          "time": 23.200000000000003,
          "velocity": 0.5511811023622047
        },
        {
          "duration": 0.375,
          "durationTicks": 90,
          "midi": 73,
          "name": "C#5",
          "ticks": 5568,
          "time": 23.200000000000003,
          "velocity": 1
        },
        {
          "duration": 0.375,
          "durationTicks": 90,
          "midi": 78,
          "name": "F#5",
          "ticks": 5568,
          "time": 23.200000000000003,
          "velocity": 0.7401574803149606
        },
        {
          "duration": 0.1999999999999993,
          "durationTicks": 48,
          "midi": 73,
          "name": "C#5",
          "ticks": 5712,
          "time": 23.8,
          "velocity": 1
        },
        {
          "duration": 0.20000000000000284,
          "durationTicks": 48,
          "midi": 73,
          "name": "C#5",
          "ticks": 5760,
          "time": 24,
          "velocity": 1
        },
        {
          "duration": 0.29999999999999716,
          "durationTicks": 72,
          "midi": 71,
          "name": "B4",
          "ticks": 5808,
          "time": 24.200000000000003,
          "velocity": 1
        },
        {
          "duration": 0.3000000000000007,
          "durationTicks": 72,
          "midi": 68,
          "name": "G#4",
          "ticks": 5904,
          "time": 24.6,
          "velocity": 1
        },
        {
          "duration": 0.20000000000000284,
          "durationTicks": 48,
          "midi": 69,
          "name": "A4",
          "ticks": 6000,
          "time": 25,
          "velocity": 1
        },
        {
          "duration": 0.1999999999999993,
          "durationTicks": 48,
          "midi": 68,
          "name": "G#4",
          "ticks": 6048,
          "time": 25.200000000000003,
          "velocity": 1
        },
        {
          "duration": 0.1999999999999993,
          "durationTicks": 48,
          "midi": 64,
          "name": "E4",
          "ticks": 6096,
          "time": 25.400000000000002,
          "velocity": 1
        },
        {
          "duration": 0.1999999999999993,
          "durationTicks": 48,
          "midi": 66,
          "name": "F#4",
          "ticks": 6144,
          "time": 25.6,
          "velocity": 1
        },
        {
          "duration": 0.1999999999999993,
          "durationTicks": 48,
          "midi": 66,
          "name": "F#4",
          "ticks": 6288,
          "time": 26.200000000000003,
          "velocity": 1
        },
        {
          "duration": 0.1999999999999993,
          "durationTicks": 48,
          "midi": 68,
          "name": "G#4",
          "ticks": 6336,
          "time": 26.400000000000002,
          "velocity": 1
        },
        {
          "duration": 0.20000000000000284,
          "durationTicks": 48,
          "midi": 68,
          "name": "G#4",
          "ticks": 6480,
          "time": 27,
          "velocity": 1
        },
        {
          "duration": 0.1999999999999993,
          "durationTicks": 48,
          "midi": 69,
          "name": "A4",
          "ticks": 6528,
          "time": 27.200000000000003,
          "velocity": 1
        },
        {
          "duration": 0.1999999999999993,
          "durationTicks": 48,
          "midi": 71,
          "name": "B4",
          "ticks": 6624,
          "time": 27.6,
          "velocity": 1
        },
        {
          "duration": 0.5,
          "durationTicks": 120,
          "midi": 69,
          "name": "A4",
          "ticks": 6672,
          "time": 27.8,
          "velocity": 1
        },
        {
          "duration": 0.1999999999999993,
          "durationTicks": 48,
          "midi": 69,
          "name": "A4",
          "ticks": 6864,
          "time": 28.6,
          "velocity": 1
        },
        {
          "duration": 0.40000000000000213,
          "durationTicks": 96,
          "midi": 74,
          "name": "D5",
          "ticks": 6912,
          "time": 28.8,
          "velocity": 1
        },
        {
          "duration": 0.3999999999999986,
          "durationTicks": 96,
          "midi": 73,
          "name": "C#5",
          "ticks": 7008,
          "time": 29.200000000000003,
          "velocity": 1
        },
        {
          "duration": 0.3999999999999986,
          "durationTicks": 96,
          "midi": 71,
          "name": "B4",
          "ticks": 7104,
          "time": 29.6,
          "velocity": 1
        },
        {
          "duration": 0.20000000000000284,
          "durationTicks": 48,
          "midi": 69,
          "name": "A4",
          "ticks": 7200,
          "time": 30,
          "velocity": 0.9921259842519685
        },
        {
          "duration": 1.5999999999999979,
          "durationTicks": 384,
          "midi": 69,
          "name": "A4",
          "ticks": 7248,
          "time": 30.200000000000003,
          "velocity": 1
        },
        {
          "duration": 0.4000000000000057,
          "durationTicks": 96,
          "midi": 70,
          "name": "A#4",
          "ticks": 7776,
          "time": 32.4,
          "velocity": 1
        },
        {
          "duration": 0.3999999999999986,
          "durationTicks": 96,
          "midi": 71,
          "name": "B4",
          "ticks": 7872,
          "time": 32.800000000000004,
          "velocity": 1
        },
        {
          "duration": 0.3999999999999986,
          "durationTicks": 96,
          "midi": 70,
          "name": "A#4",
          "ticks": 7968,
          "time": 33.2,
          "velocity": 1
        },
        {
          "duration": 0.3999999999999986,
          "durationTicks": 96,
          "midi": 70,
          "name": "A#4",
          "ticks": 8064,
          "time": 33.6,
          "velocity": 1
        },
        {
          "duration": 0.20000000000000284,
          "durationTicks": 48,
          "midi": 70,
          "name": "A#4",
          "ticks": 8160,
          "time": 34,
          "velocity": 1
        },
        {
          "duration": 0.3999999999999986,
          "durationTicks": 96,
          "midi": 71,
          "name": "B4",
          "ticks": 8208,
          "time": 34.2,
          "velocity": 1
        },
        {
          "duration": 0.3999999999999986,
          "durationTicks": 96,
          "midi": 70,
          "name": "A#4",
          "ticks": 8304,
          "time": 34.6,
          "velocity": 1
        },
        {
          "duration": 0.3999999999999986,
          "durationTicks": 96,
          "midi": 70,
          "name": "A#4",
          "ticks": 8448,
          "time": 35.2,
          "velocity": 1
        },
        {
          "duration": 0.20000000000000284,
          "durationTicks": 48,
          "midi": 68,
          "name": "G#4",
          "ticks": 8544,
          "time": 35.6,
          "velocity": 1
        },
        {
          "duration": 0.29999999999999716,
          "durationTicks": 72,
          "midi": 68,
          "name": "G#4",
          "ticks": 8592,
          "time": 35.800000000000004,
          "velocity": 1
        },
        {
          "duration": 0.29999999999999716,
          "durationTicks": 72,
          "midi": 66,
          "name": "F#4",
          "ticks": 8688,
          "time": 36.2,
          "velocity": 1
        },
        {
          "duration": 0.5,
          "durationTicks": 120,
          "midi": 68,
          "name": "G#4",
          "ticks": 8784,
          "time": 36.6,
          "velocity": 1
        },
        {
          "duration": 0.3999999999999986,
          "durationTicks": 96,
          "midi": 68,
          "name": "G#4",
          "ticks": 9024,
          "time": 37.6,
          "velocity": 1
        },
        {
          "duration": 0.4000000000000057,
          "durationTicks": 96,
          "midi": 70,
          "name": "A#4",
          "ticks": 9120,
          "time": 38,
          "velocity": 1
        },
        {
          "duration": 0.3999999999999986,
          "durationTicks": 96,
          "midi": 71,
          "name": "B4",
          "ticks": 9216,
          "time": 38.400000000000006,
          "velocity": 1
        },
        {
          "duration": 0.19999999999999574,
          "durationTicks": 48,
          "midi": 70,
          "name": "A#4",
          "ticks": 9312,
          "time": 38.800000000000004,
          "velocity": 1
        },
        {
          "duration": 0.4000000000000057,
          "durationTicks": 96,
          "midi": 66,
          "name": "F#4",
          "ticks": 9360,
          "time": 39,
          "velocity": 1
        },
        {
          "duration": 0.3999999999999986,
          "durationTicks": 96,
          "midi": 63,
          "name": "D#4",
          "ticks": 9456,
          "time": 39.400000000000006,
          "velocity": 1
        },
        {
          "duration": 0.6000000000000014,
          "durationTicks": 144,
          "midi": 66,
          "name": "F#4",
          "ticks": 9552,
          "time": 39.800000000000004,
          "velocity": 1
        },
        {
          "duration": 0.3999999999999986,
          "durationTicks": 96,
          "midi": 68,
          "name": "G#4",
          "ticks": 9792,
          "time": 40.800000000000004,
          "velocity": 1
        },
        {
          "duration": 0.29999999999999716,
          "durationTicks": 72,
          "midi": 70,
          "name": "A#4",
          "ticks": 9888,
          "time": 41.2,
          "velocity": 1
        },
        {
          "duration": 0.3999999999999986,
          "durationTicks": 96,
          "midi": 71,
          "name": "B4",
          "ticks": 9984,
          "time": 41.6,
          "velocity": 1
        },
        {
          "duration": 0.20000000000000284,
          "durationTicks": 48,
          "midi": 70,
          "name": "A#4",
          "ticks": 10080,
          "time": 42,
          "velocity": 1
        },
        {
          "duration": 0.3999999999999986,
          "durationTicks": 96,
          "midi": 66,
          "name": "F#4",
          "ticks": 10128,
          "time": 42.2,
          "velocity": 1
        },
        {
          "duration": 0.3999999999999986,
          "durationTicks": 96,
          "midi": 62,
          "name": "D4",
          "ticks": 10224,
          "time": 42.6,
          "velocity": 1
        },
        {
          "duration": 0.20000000000000284,
          "durationTicks": 48,
          "midi": 62,
          "name": "D4",
          "ticks": 10320,
          "time": 43,
          "velocity": 1
        },
        {
          "duration": 0.7999999999999972,
          "durationTicks": 192,
          "midi": 66,
          "name": "F#4",
          "ticks": 10368,
          "time": 43.2,
          "velocity": 1
        },
        {
          "duration": 0.8000000000000043,
          "durationTicks": 192,
          "midi": 68,
          "name": "G#4",
          "ticks": 10560,
          "time": 44,
          "velocity": 1
        },
        {
          "duration": 0.3958333333333286,
          "durationTicks": 95,
          "midi": 70,
          "name": "A#4",
          "ticks": 10848,
          "time": 45.2,
          "velocity": 1
        },
        {
          "duration": 0.3958333333333357,
          "durationTicks": 95,
          "midi": 70,
          "name": "A#4",
          "ticks": 10944,
          "time": 45.6,
          "velocity": 1
        },
        {
          "duration": 0.3958333333333357,
          "durationTicks": 95,
          "midi": 70,
          "name": "A#4",
          "ticks": 11040,
          "time": 46,
          "velocity": 1
        },
        {
          "duration": 0.3958333333333286,
          "durationTicks": 95,
          "midi": 70,
          "name": "A#4",
          "ticks": 11136,
          "time": 46.400000000000006,
          "velocity": 1
        },
        {
          "duration": 0.19583333333333286,
          "durationTicks": 47,
          "midi": 75,
          "name": "D#5",
          "ticks": 11232,
          "time": 46.800000000000004,
          "velocity": 1
        },
        {
          "duration": 0.3958333333333357,
          "durationTicks": 95,
          "midi": 70,
          "name": "A#4",
          "ticks": 11280,
          "time": 47,
          "velocity": 1
        },
        {
          "duration": 0.19583333333332575,
          "durationTicks": 47,
          "midi": 68,
          "name": "G#4",
          "ticks": 11376,
          "time": 47.400000000000006,
          "velocity": 1
        },
        {
          "duration": 0.19583333333333286,
          "durationTicks": 47,
          "midi": 66,
          "name": "F#4",
          "ticks": 11424,
          "time": 47.6,
          "velocity": 1
        },
        {
          "duration": 1.0958333333333314,
          "durationTicks": 263,
          "midi": 68,
          "name": "G#4",
          "ticks": 11472,
          "time": 47.800000000000004,
          "velocity": 1
        },
        {
          "duration": 0.3958333333333286,
          "durationTicks": 95,
          "midi": 70,
          "name": "A#4",
          "ticks": 11808,
          "time": 49.2,
          "velocity": 1
        },
        {
          "duration": 0.3958333333333357,
          "durationTicks": 95,
          "midi": 71,
          "name": "B4",
          "ticks": 11904,
          "time": 49.6,
          "velocity": 1
        },
        {
          "duration": 0.3958333333333357,
          "durationTicks": 95,
          "midi": 70,
          "name": "A#4",
          "ticks": 12000,
          "time": 50,
          "velocity": 1
        },
        {
          "duration": 0.3958333333333286,
          "durationTicks": 95,
          "midi": 66,
          "name": "F#4",
          "ticks": 12096,
          "time": 50.400000000000006,
          "velocity": 1
        },
        {
          "duration": 0.3958333333333286,
          "durationTicks": 95,
          "midi": 68,
          "name": "G#4",
          "ticks": 12192,
          "time": 50.800000000000004,
          "velocity": 1
        },
        {
          "duration": 1.5958333333333385,
          "durationTicks": 383,
          "midi": 66,
          "name": "F#4",
          "ticks": 12288,
          "time": 51.2,
          "velocity": 1
        },
        {
          "duration": 0.5999999999999943,
          "durationTicks": 144,
          "midi": 66,
          "name": "F#4",
          "ticks": 13056,
          "time": 54.400000000000006,
          "velocity": 1
        },
        {
          "duration": 0.20000000000000284,
          "durationTicks": 48,
          "midi": 70,
          "name": "A#4",
          "ticks": 13200,
          "time": 55,
          "velocity": 1
        },
        {
          "duration": 0.3999999999999986,
          "durationTicks": 96,
          "midi": 68,
          "name": "G#4",
          "ticks": 13248,
          "time": 55.2,
          "velocity": 1
        },
        {
          "duration": 0.19999999999999574,
          "durationTicks": 48,
          "midi": 66,
          "name": "F#4",
          "ticks": 13392,
          "time": 55.800000000000004,
          "velocity": 1
        },
        {
          "duration": 0.6000000000000014,
          "durationTicks": 144,
          "midi": 73,
          "name": "C#5",
          "ticks": 13440,
          "time": 56,
          "velocity": 1
        },
        {
          "duration": 0.20000000000000284,
          "durationTicks": 48,
          "midi": 66,
          "name": "F#4",
          "ticks": 13584,
          "time": 56.6,
          "velocity": 1
        },
        {
          "duration": 0.3999999999999986,
          "durationTicks": 96,
          "midi": 66,
          "name": "F#4",
          "ticks": 13632,
          "time": 56.800000000000004,
          "velocity": 1
        },
        {
          "duration": 0.3999999999999986,
          "durationTicks": 96,
          "midi": 71,
          "name": "B4",
          "ticks": 13824,
          "time": 57.6,
          "velocity": 1
        },
        {
          "duration": 0.4000000000000057,
          "durationTicks": 96,
          "midi": 70,
          "name": "A#4",
          "ticks": 13920,
          "time": 58,
          "velocity": 1
        },
        {
          "duration": 0.3999999999999986,
          "durationTicks": 96,
          "midi": 68,
          "name": "G#4",
          "ticks": 14016,
          "time": 58.400000000000006,
          "velocity": 1
        },
        {
          "duration": 0.3999999999999986,
          "durationTicks": 96,
          "midi": 66,
          "name": "F#4",
          "ticks": 14112,
          "time": 58.800000000000004,
          "velocity": 1
        },
        {
          "duration": 0.6000000000000014,
          "durationTicks": 144,
          "midi": 66,
          "name": "F#4",
          "ticks": 14208,
          "time": 59.2,
          "velocity": 1
        },
        {
          "duration": 0.7999999999999972,
          "durationTicks": 192,
          "midi": 68,
          "name": "G#4",
          "ticks": 14352,
          "time": 59.800000000000004,
          "velocity": 1
        },
        {
          "duration": 0.6000000000000014,
          "durationTicks": 144,
          "midi": 66,
          "name": "F#4",
          "ticks": 14592,
          "time": 60.800000000000004,
          "velocity": 1
        },
        {
          "duration": 0.19999999999999574,
          "durationTicks": 48,
          "midi": 70,
          "name": "A#4",
          "ticks": 14736,
          "time": 61.400000000000006,
          "velocity": 1
        },
        {
          "duration": 0.6000000000000014,
          "durationTicks": 144,
          "midi": 68,
          "name": "G#4",
          "ticks": 14784,
          "time": 61.6,
          "velocity": 1
        },
        {
          "duration": 0.20000000000000284,
          "durationTicks": 48,
          "midi": 66,
          "name": "F#4",
          "ticks": 14928,
          "time": 62.2,
          "velocity": 1
        },
        {
          "duration": 0.5999999999999943,
          "durationTicks": 144,
          "midi": 73,
          "name": "C#5",
          "ticks": 14976,
          "time": 62.400000000000006,
          "velocity": 1
        },
        {
          "duration": 0.20000000000000284,
          "durationTicks": 48,
          "midi": 75,
          "name": "D#5",
          "ticks": 15120,
          "time": 63,
          "velocity": 1
        },
        {
          "duration": 0.7999999999999972,
          "durationTicks": 192,
          "midi": 66,
          "name": "F#4",
          "ticks": 15168,
          "time": 63.2,
          "velocity": 1
        },
        {
          "duration": 0.4000000000000057,
          "durationTicks": 96,
          "midi": 71,
          "name": "B4",
          "ticks": 15360,
          "time": 64,
          "velocity": 1
        },
        {
          "duration": 0.3999999999999915,
          "durationTicks": 96,
          "midi": 70,
          "name": "A#4",
          "ticks": 15456,
          "time": 64.4,
          "velocity": 1
        },
        {
          "duration": 0.4000000000000057,
          "durationTicks": 96,
          "midi": 68,
          "name": "G#4",
          "ticks": 15552,
          "time": 64.8,
          "velocity": 1
        },
        {
          "duration": 0.4000000000000057,
          "durationTicks": 96,
          "midi": 66,
          "name": "F#4",
          "ticks": 15648,
          "time": 65.2,
          "velocity": 1
        },
        {
          "duration": 0.5999999999999943,
          "durationTicks": 144,
          "midi": 68,
          "name": "G#4",
          "ticks": 15744,
          "time": 65.60000000000001,
          "velocity": 1
        },
        {
          "duration": 0.5999999999999943,
          "durationTicks": 144,
          "midi": 63,
          "name": "D#4",
          "ticks": 15888,
          "time": 66.2,
          "velocity": 1
        },
        {
          "duration": 0.4000000000000057,
          "durationTicks": 96,
          "midi": 65,
          "name": "F4",
          "ticks": 16032,
          "time": 66.8,
          "velocity": 1
        },
        {
          "duration": 0.7999999999999972,
          "durationTicks": 192,
          "midi": 66,
          "name": "F#4",
          "ticks": 16128,
          "time": 67.2,
          "velocity": 1
        },
        {
          "duration": 0.7999999999999972,
          "durationTicks": 192,
          "midi": 68,
          "name": "G#4",
          "ticks": 16320,
          "time": 68,
          "velocity": 1
        },
        {
          "duration": 1.6000000000000085,
          "durationTicks": 384,
          "midi": 70,
          "name": "A#4",
          "ticks": 16512,
          "time": 68.8,
          "velocity": 1
        },
        {
          "duration": 1.5999999999999943,
          "durationTicks": 384,
          "midi": 68,
          "name": "G#4",
          "ticks": 16896,
          "time": 70.4,
          "velocity": 1
        },
        {
          "duration": 0.3999999999999915,
          "durationTicks": 96,
          "midi": 69,
          "name": "A4",
          "ticks": 17424,
          "time": 72.60000000000001,
          "velocity": 1
        },
        {
          "duration": 0.20000000000000284,
          "durationTicks": 48,
          "midi": 71,
          "name": "B4",
          "ticks": 17520,
          "time": 73,
          "velocity": 1
        },
        {
          "duration": 0.20000000000000284,
          "durationTicks": 48,
          "midi": 73,
          "name": "C#5",
          "ticks": 17568,
          "time": 73.2,
          "velocity": 1
        },
        {
          "duration": 0.20000000000000284,
          "durationTicks": 48,
          "midi": 74,
          "name": "D5",
          "ticks": 17616,
          "time": 73.4,
          "velocity": 1
        },
        {
          "duration": 0.375,
          "durationTicks": 90,
          "midi": 73,
          "name": "C#5",
          "ticks": 17664,
          "time": 73.60000000000001,
          "velocity": 0.4645669291338583
        },
        {
          "duration": 0.375,
          "durationTicks": 90,
          "midi": 81,
          "name": "A5",
          "ticks": 17664,
          "time": 73.60000000000001,
          "velocity": 0.7165354330708661
        },
        {
          "duration": 0.375,
          "durationTicks": 90,
          "midi": 76,
          "name": "E5",
          "ticks": 17664,
          "time": 73.60000000000001,
          "velocity": 1
        },
        {
          "duration": 0.375,
          "durationTicks": 90,
          "midi": 73,
          "name": "C#5",
          "ticks": 17760,
          "time": 74,
          "velocity": 0.4645669291338583
        },
        {
          "duration": 0.375,
          "durationTicks": 90,
          "midi": 81,
          "name": "A5",
          "ticks": 17760,
          "time": 74,
          "velocity": 0.7165354330708661
        },
        {
          "duration": 0.375,
          "durationTicks": 90,
          "midi": 76,
          "name": "E5",
          "ticks": 17760,
          "time": 74,
          "velocity": 1
        },
        {
          "duration": 0.375,
          "durationTicks": 90,
          "midi": 73,
          "name": "C#5",
          "ticks": 17856,
          "time": 74.4,
          "velocity": 0.4645669291338583
        },
        {
          "duration": 0.375,
          "durationTicks": 90,
          "midi": 81,
          "name": "A5",
          "ticks": 17856,
          "time": 74.4,
          "velocity": 0.7165354330708661
        },
        {
          "duration": 0.375,
          "durationTicks": 90,
          "midi": 76,
          "name": "E5",
          "ticks": 17856,
          "time": 74.4,
          "velocity": 1
        },
        {
          "duration": 0.20000000000000284,
          "durationTicks": 48,
          "midi": 76,
          "name": "E5",
          "ticks": 18000,
          "time": 75,
          "velocity": 1
        },
        {
          "duration": 0.20000000000000284,
          "durationTicks": 48,
          "midi": 76,
          "name": "E5",
          "ticks": 18048,
          "time": 75.2,
          "velocity": 1
        },
        {
          "duration": 0.20000000000000284,
          "durationTicks": 48,
          "midi": 74,
          "name": "D5",
          "ticks": 18096,
          "time": 75.4,
          "velocity": 1
        },
        {
          "duration": 0.19999999999998863,
          "durationTicks": 48,
          "midi": 73,
          "name": "C#5",
          "ticks": 18144,
          "time": 75.60000000000001,
          "velocity": 1
        },
        {
          "duration": 0.30000000000001137,
          "durationTicks": 72,
          "midi": 71,
          "name": "B4",
          "ticks": 18192,
          "time": 75.8,
          "velocity": 1
        },
        {
          "duration": 0.23749999999999716,
          "durationTicks": 57,
          "midi": 69,
          "name": "A4",
          "ticks": 18288,
          "time": 76.2,
          "velocity": 1
        },
        {
          "duration": 0.20000000000000284,
          "durationTicks": 48,
          "midi": 71,
          "name": "B4",
          "ticks": 18384,
          "time": 76.60000000000001,
          "velocity": 1
        },
        {
          "duration": 0.375,
          "durationTicks": 90,
          "midi": 69,
          "name": "A4",
          "ticks": 18432,
          "time": 76.80000000000001,
          "velocity": 0.4330708661417323
        },
        {
          "duration": 0.375,
          "durationTicks": 90,
          "midi": 78,
          "name": "F#5",
          "ticks": 18432,
          "time": 76.80000000000001,
          "velocity": 0.7165354330708661
        },
        {
          "duration": 0.375,
          "durationTicks": 90,
          "midi": 73,
          "name": "C#5",
          "ticks": 18432,
          "time": 76.80000000000001,
          "velocity": 1
        },
        {
          "duration": 0.375,
          "durationTicks": 90,
          "midi": 69,
          "name": "A4",
          "ticks": 18528,
          "time": 77.2,
          "velocity": 0.4330708661417323
        },
        {
          "duration": 0.375,
          "durationTicks": 90,
          "midi": 78,
          "name": "F#5",
          "ticks": 18528,
          "time": 77.2,
          "velocity": 0.7165354330708661
        },
        {
          "duration": 0.375,
          "durationTicks": 90,
          "midi": 73,
          "name": "C#5",
          "ticks": 18528,
          "time": 77.2,
          "velocity": 1
        },
        {
          "duration": 0.375,
          "durationTicks": 90,
          "midi": 69,
          "name": "A4",
          "ticks": 18624,
          "time": 77.60000000000001,
          "velocity": 0.4330708661417323
        },
        {
          "duration": 0.375,
          "durationTicks": 90,
          "midi": 78,
          "name": "F#5",
          "ticks": 18624,
          "time": 77.60000000000001,
          "velocity": 0.7165354330708661
        },
        {
          "duration": 0.4749999999999943,
          "durationTicks": 114,
          "midi": 73,
          "name": "C#5",
          "ticks": 18624,
          "time": 77.60000000000001,
          "velocity": 1
        },
        {
          "duration": 0.20000000000000284,
          "durationTicks": 48,
          "midi": 73,
          "name": "C#5",
          "ticks": 18768,
          "time": 78.2,
          "velocity": 1
        },
        {
          "duration": 0.20000000000000284,
          "durationTicks": 48,
          "midi": 73,
          "name": "C#5",
          "ticks": 18816,
          "time": 78.4,
          "velocity": 1
        },
        {
          "duration": 0.20000000000000284,
          "durationTicks": 48,
          "midi": 71,
          "name": "B4",
          "ticks": 18864,
          "time": 78.60000000000001,
          "velocity": 1
        },
        {
          "duration": 0.19999999999998863,
          "durationTicks": 48,
          "midi": 69,
          "name": "A4",
          "ticks": 18912,
          "time": 78.80000000000001,
          "velocity": 1
        },
        {
          "duration": 0.30000000000001137,
          "durationTicks": 72,
          "midi": 68,
          "name": "G#4",
          "ticks": 18960,
          "time": 79,
          "velocity": 1
        },
        {
          "duration": 0.20000000000000284,
          "durationTicks": 48,
          "midi": 69,
          "name": "A4",
          "ticks": 19056,
          "time": 79.4,
          "velocity": 1
        },
        {
          "duration": 0.20000000000000284,
          "durationTicks": 48,
          "midi": 68,
          "name": "G#4",
          "ticks": 19104,
          "time": 79.60000000000001,
          "velocity": 1
        },
        {
          "duration": 0.19999999999998863,
          "durationTicks": 48,
          "midi": 64,
          "name": "E4",
          "ticks": 19152,
          "time": 79.80000000000001,
          "velocity": 1
        },
        {
          "duration": 0.30000000000001137,
          "durationTicks": 72,
          "midi": 66,
          "name": "F#4",
          "ticks": 19200,
          "time": 80,
          "velocity": 1
        },
        {
          "duration": 0.20000000000000284,
          "durationTicks": 48,
          "midi": 66,
          "name": "F#4",
          "ticks": 19344,
          "time": 80.60000000000001,
          "velocity": 1
        },
        {
          "duration": 0.29999999999999716,
          "durationTicks": 72,
          "midi": 68,
          "name": "G#4",
          "ticks": 19392,
          "time": 80.80000000000001,
          "velocity": 1
        },
        {
          "duration": 0.20000000000000284,
          "durationTicks": 48,
          "midi": 68,
          "name": "G#4",
          "ticks": 19536,
          "time": 81.4,
          "velocity": 1
        },
        {
          "duration": 0.29999999999999716,
          "durationTicks": 72,
          "midi": 69,
          "name": "A4",
          "ticks": 19584,
          "time": 81.60000000000001,
          "velocity": 1
        },
        {
          "duration": 0.20000000000000284,
          "durationTicks": 48,
          "midi": 71,
          "name": "B4",
          "ticks": 19680,
          "time": 82,
          "velocity": 1
        },
        {
          "duration": 0.4000000000000057,
          "durationTicks": 96,
          "midi": 69,
          "name": "A4",
          "ticks": 19728,
          "time": 82.2,
          "velocity": 1
        },
        {
          "duration": 0.20000000000000284,
          "durationTicks": 48,
          "midi": 69,
          "name": "A4",
          "ticks": 19920,
          "time": 83,
          "velocity": 1
        },
        {
          "duration": 0.4000000000000057,
          "durationTicks": 96,
          "midi": 74,
          "name": "D5",
          "ticks": 19968,
          "time": 83.2,
          "velocity": 1
        },
        {
          "duration": 0.29999999999999716,
          "durationTicks": 72,
          "midi": 73,
          "name": "C#5",
          "ticks": 20064,
          "time": 83.60000000000001,
          "velocity": 1
        },
        {
          "duration": 0.4000000000000057,
          "durationTicks": 96,
          "midi": 71,
          "name": "B4",
          "ticks": 20160,
          "time": 84,
          "velocity": 1
        },
        {
          "duration": 0.20000000000000284,
          "durationTicks": 48,
          "midi": 69,
          "name": "A4",
          "ticks": 20256,
          "time": 84.4,
          "velocity": 1
        },
        {
          "duration": 0.3999999999999915,
          "durationTicks": 96,
          "midi": 71,
          "name": "B4",
          "ticks": 20304,
          "time": 84.60000000000001,
          "velocity": 1
        },
        {
          "duration": 0.4000000000000057,
          "durationTicks": 96,
          "midi": 69,
          "name": "A4",
          "ticks": 20496,
          "time": 85.4,
          "velocity": 1
        },
        {
          "duration": 0.19999999999998863,
          "durationTicks": 48,
          "midi": 71,
          "name": "B4",
          "ticks": 20592,
          "time": 85.80000000000001,
          "velocity": 1
        },
        {
          "duration": 0.20000000000000284,
          "durationTicks": 48,
          "midi": 73,
          "name": "C#5",
          "ticks": 20640,
          "time": 86,
          "velocity": 1
        },
        {
          "duration": 0.20000000000000284,
          "durationTicks": 48,
          "midi": 74,
          "name": "D5",
          "ticks": 20688,
          "time": 86.2,
          "velocity": 1
        },
        {
          "duration": 0.375,
          "durationTicks": 90,
          "midi": 73,
          "name": "C#5",
          "ticks": 20736,
          "time": 86.4,
          "velocity": 0.4566929133858268
        },
        {
          "duration": 0.375,
          "durationTicks": 90,
          "midi": 81,
          "name": "A5",
          "ticks": 20736,
          "time": 86.4,
          "velocity": 0.7086614173228346
        },
        {
          "duration": 0.375,
          "durationTicks": 90,
          "midi": 76,
          "name": "E5",
          "ticks": 20736,
          "time": 86.4,
          "velocity": 1
        },
        {
          "duration": 0.375,
          "durationTicks": 90,
          "midi": 73,
          "name": "C#5",
          "ticks": 20832,
          "time": 86.80000000000001,
          "velocity": 0.4566929133858268
        },
        {
          "duration": 0.375,
          "durationTicks": 90,
          "midi": 76,
          "name": "E5",
          "ticks": 20832,
          "time": 86.80000000000001,
          "velocity": 1
        },
        {
          "duration": 0.375,
          "durationTicks": 90,
          "midi": 81,
          "name": "A5",
          "ticks": 20832,
          "time": 86.80000000000001,
          "velocity": 0.7086614173228346
        },
        {
          "duration": 0.375,
          "durationTicks": 90,
          "midi": 73,
          "name": "C#5",
          "ticks": 20928,
          "time": 87.2,
          "velocity": 0.4566929133858268
        },
        {
          "duration": 0.375,
          "durationTicks": 90,
          "midi": 81,
          "name": "A5",
          "ticks": 20928,
          "time": 87.2,
          "velocity": 0.7086614173228346
        },
        {
          "duration": 0.375,
          "durationTicks": 90,
          "midi": 76,
          "name": "E5",
          "ticks": 20928,
          "time": 87.2,
          "velocity": 1
        },
        {
          "duration": 0.19999999999998863,
          "durationTicks": 48,
          "midi": 76,
          "name": "E5",
          "ticks": 21072,
          "time": 87.80000000000001,
          "velocity": 1
        },
        {
          "duration": 0.20000000000000284,
          "durationTicks": 48,
          "midi": 76,
          "name": "E5",
          "ticks": 21120,
          "time": 88,
          "velocity": 1
        },
        {
          "duration": 0.20000000000000284,
          "durationTicks": 48,
          "midi": 74,
          "name": "D5",
          "ticks": 21168,
          "time": 88.2,
          "velocity": 1
        },
        {
          "duration": 0.20000000000000284,
          "durationTicks": 48,
          "midi": 73,
          "name": "C#5",
          "ticks": 21216,
          "time": 88.4,
          "velocity": 1
        },
        {
          "duration": 0.29999999999999716,
          "durationTicks": 72,
          "midi": 71,
          "name": "B4",
          "ticks": 21264,
          "time": 88.60000000000001,
          "velocity": 1
        },
        {
          "duration": 0.375,
          "durationTicks": 90,
          "midi": 69,
          "name": "A4",
          "ticks": 21360,
          "time": 89,
          "velocity": 1
        },
        {
          "duration": 0.17499999999999716,
          "durationTicks": 42,
          "midi": 71,
          "name": "B4",
          "ticks": 21456,
          "time": 89.4,
          "velocity": 1
        },
        {
          "duration": 0.375,
          "durationTicks": 90,
          "midi": 69,
          "name": "A4",
          "ticks": 21504,
          "time": 89.60000000000001,
          "velocity": 0.4409448818897638
        },
        {
          "duration": 0.375,
          "durationTicks": 90,
          "midi": 73,
          "name": "C#5",
          "ticks": 21504,
          "time": 89.60000000000001,
          "velocity": 1
        },
        {
          "duration": 0.375,
          "durationTicks": 90,
          "midi": 78,
          "name": "F#5",
          "ticks": 21504,
          "time": 89.60000000000001,
          "velocity": 0.7086614173228346
        },
        {
          "duration": 0.375,
          "durationTicks": 90,
          "midi": 69,
          "name": "A4",
          "ticks": 21600,
          "time": 90,
          "velocity": 0.4409448818897638
        },
        {
          "duration": 0.375,
          "durationTicks": 90,
          "midi": 78,
          "name": "F#5",
          "ticks": 21600,
          "time": 90,
          "velocity": 0.7086614173228346
        },
        {
          "duration": 0.375,
          "durationTicks": 90,
          "midi": 73,
          "name": "C#5",
          "ticks": 21600,
          "time": 90,
          "velocity": 1
        },
        {
          "duration": 0.375,
          "durationTicks": 90,
          "midi": 69,
          "name": "A4",
          "ticks": 21696,
          "time": 90.4,
          "velocity": 0.4409448818897638
        },
        {
          "duration": 0.375,
          "durationTicks": 90,
          "midi": 73,
          "name": "C#5",
          "ticks": 21696,
          "time": 90.4,
          "velocity": 1
        },
        {
          "duration": 0.375,
          "durationTicks": 90,
          "midi": 78,
          "name": "F#5",
          "ticks": 21696,
          "time": 90.4,
          "velocity": 0.7086614173228346
        },
        {
          "duration": 0.20000000000000284,
          "durationTicks": 48,
          "midi": 73,
          "name": "C#5",
          "ticks": 21840,
          "time": 91,
          "velocity": 1
        },
        {
          "duration": 0.20000000000000284,
          "durationTicks": 48,
          "midi": 73,
          "name": "C#5",
          "ticks": 21888,
          "time": 91.2,
          "velocity": 1
        },
        {
          "duration": 0.29999999999999716,
          "durationTicks": 72,
          "midi": 71,
          "name": "B4",
          "ticks": 21936,
          "time": 91.4,
          "velocity": 1
        },
        {
          "duration": 0.29999999999999716,
          "durationTicks": 72,
          "midi": 68,
          "name": "G#4",
          "ticks": 22032,
          "time": 91.80000000000001,
          "velocity": 1
        },
        {
          "duration": 0.20000000000000284,
          "durationTicks": 48,
          "midi": 69,
          "name": "A4",
          "ticks": 22128,
          "time": 92.2,
          "velocity": 1
        },
        {
          "duration": 0.20000000000000284,
          "durationTicks": 48,
          "midi": 68,
          "name": "G#4",
          "ticks": 22176,
          "time": 92.4,
          "velocity": 1
        },
        {
          "duration": 0.20000000000000284,
          "durationTicks": 48,
          "midi": 64,
          "name": "E4",
          "ticks": 22224,
          "time": 92.60000000000001,
          "velocity": 1
        },
        {
          "duration": 0.24583333333333712,
          "durationTicks": 59,
          "midi": 66,
          "name": "F#4",
          "ticks": 22272,
          "time": 92.80000000000001,
          "velocity": 1
        },
        {
          "duration": 0.20000000000000284,
          "durationTicks": 48,
          "midi": 66,
          "name": "F#4",
          "ticks": 22416,
          "time": 93.4,
          "velocity": 1
        },
        {
          "duration": 0.20000000000000284,
          "durationTicks": 48,
          "midi": 68,
          "name": "G#4",
          "ticks": 22464,
          "time": 93.60000000000001,
          "velocity": 1
        },
        {
          "duration": 0.20000000000000284,
          "durationTicks": 48,
          "midi": 68,
          "name": "G#4",
          "ticks": 22608,
          "time": 94.2,
          "velocity": 1
        },
        {
          "duration": 0.20000000000000284,
          "durationTicks": 48,
          "midi": 69,
          "name": "A4",
          "ticks": 22656,
          "time": 94.4,
          "velocity": 1
        },
        {
          "duration": 0.19999999999998863,
          "durationTicks": 48,
          "midi": 71,
          "name": "B4",
          "ticks": 22752,
          "time": 94.80000000000001,
          "velocity": 1
        },
        {
          "duration": 0.5,
          "durationTicks": 120,
          "midi": 69,
          "name": "A4",
          "ticks": 22800,
          "time": 95,
          "velocity": 1
        },
        {
          "duration": 0.19999999999998863,
          "durationTicks": 48,
          "midi": 69,
          "name": "A4",
          "ticks": 22992,
          "time": 95.80000000000001,
          "velocity": 1
        },
        {
          "duration": 0.4000000000000057,
          "durationTicks": 96,
          "midi": 74,
          "name": "D5",
          "ticks": 23040,
          "time": 96,
          "velocity": 1
        },
        {
          "duration": 0.4000000000000057,
          "durationTicks": 96,
          "midi": 73,
          "name": "C#5",
          "ticks": 23136,
          "time": 96.4,
          "velocity": 1
        },
        {
          "duration": 0.3999999999999915,
          "durationTicks": 96,
          "midi": 71,
          "name": "B4",
          "ticks": 23232,
          "time": 96.80000000000001,
          "velocity": 1
        },
        {
          "duration": 0.20000000000000284,
          "durationTicks": 48,
          "midi": 69,
          "name": "A4",
          "ticks": 23328,
          "time": 97.2,
          "velocity": 1
        },
        {
          "duration": 0.20000000000000284,
          "durationTicks": 48,
          "midi": 69,
          "name": "A4",
          "ticks": 23376,
          "time": 97.4,
          "velocity": 1
        },
        {
          "duration": 0.4000000000000057,
          "durationTicks": 96,
          "midi": 69,
          "name": "A4",
          "ticks": 23520,
          "time": 98,
          "velocity": 1
        },
        {
          "duration": 0.4000000000000057,
          "durationTicks": 96,
          "midi": 71,
          "name": "B4",
          "ticks": 23616,
          "time": 98.4,
          "velocity": 1
        },
        {
          "duration": 0.19999999999998863,
          "durationTicks": 48,
          "midi": 69,
          "name": "A4",
          "ticks": 23712,
          "time": 98.80000000000001,
          "velocity": 1
        },
        {
          "duration": 3.200000000000003,
          "durationTicks": 768,
          "midi": 76,
          "name": "E5",
          "ticks": 23760,
          "time": 99,
          "velocity": 1
        },
        {
          "duration": 0.5999999999999943,
          "durationTicks": 144,
          "midi": 74,
          "name": "D5",
          "ticks": 24576,
          "time": 102.4,
          "velocity": 1
        },
        {
          "duration": 0.5999999999999943,
          "durationTicks": 144,
          "midi": 79,
          "name": "G5",
          "ticks": 24576,
          "time": 102.4,
          "velocity": 1
        },
        {
          "duration": 0.6000000000000085,
          "durationTicks": 144,
          "midi": 74,
          "name": "D5",
          "ticks": 24720,
          "time": 103,
          "velocity": 1
        },
        {
          "duration": 0.6000000000000085,
          "durationTicks": 144,
          "midi": 79,
          "name": "G5",
          "ticks": 24720,
          "time": 103,
          "velocity": 1
        },
        {
          "duration": 0.3999999999999915,
          "durationTicks": 96,
          "midi": 76,
          "name": "E5",
          "ticks": 24864,
          "time": 103.60000000000001,
          "velocity": 1
        },
        {
          "duration": 0.3999999999999915,
          "durationTicks": 96,
          "midi": 81,
          "name": "A5",
          "ticks": 24864,
          "time": 103.60000000000001,
          "velocity": 1
        }
      ]
    },
    {
      "channel": 0,
      "controlChanges": {
        "6": [
          {
            "number": 6,
            "ticks": 0,
            "time": 0,
            "value": 0.09448818897637795
          }
        ],
        "7": [
          {
            "number": 7,
            "ticks": 0,
            "time": 0,
            "value": 1
          },
          {
            "number": 7,
            "ticks": 0,
            "time": 0,
            "value": 1
          }
        ],
        "10": [
          {
            "number": 10,
            "ticks": 0,
            "time": 0,
            "value": 0.5039370078740157
          },
          {
            "number": 10,
            "ticks": 0,
            "time": 0,
            "value": 0.5039370078740157
          }
        ],
        "100": [
          {
            "number": 100,
            "ticks": 0,
            "time": 0,
            "value": 0
          }
        ],
        "101": [
          {
            "number": 101,
            "ticks": 0,
            "time": 0,
            "value": 0
          }
        ]
      },
      "pitchBends": [
        {
          "ticks": 0,
          "time": 0,
          "value": 0
        },
        {
          "ticks": 0,
          "time": 0,
          "value": 0
        }
      ],
      "instrument": {
        "family": "piano",
        "number": 0,
        "name": "acoustic grand piano"
      },
      "name": "LEAD",
      "notes": [],
      "endOfTrackTicks": 25715
    },
    {
      "channel": 13,
      "controlChanges": {
        "6": [
          {
            "number": 6,
            "ticks": 0,
            "time": 0,
            "value": 0.09448818897637795
          },
          {
            "number": 6,
            "ticks": 0,
            "time": 0,
            "value": 0.09448818897637795
          },
          {
            "number": 6,
            "ticks": 25714,
            "time": 107.14166666666668,
            "value": 0.09448818897637795
          },
          {
            "number": 6,
            "ticks": 25715,
            "time": 107.14583333333333,
            "value": 0.09448818897637795
          }
        ],
        "7": [
          {
            "number": 7,
            "ticks": 0,
            "time": 0,
            "value": 1
          },
          {
            "number": 7,
            "ticks": 0,
            "time": 0,
            "value": 1
          },
          {
            "number": 7,
            "ticks": 25714,
            "time": 107.14166666666668,
            "value": 1
          },
          {
            "number": 7,
            "ticks": 25715,
            "time": 107.14583333333333,
            "value": 1
          }
        ],
        "10": [
          {
            "number": 10,
            "ticks": 0,
            "time": 0,
            "value": 0.5039370078740157
          },
          {
            "number": 10,
            "ticks": 0,
            "time": 0,
            "value": 0.5039370078740157
          },
          {
            "number": 10,
            "ticks": 25714,
            "time": 107.14166666666668,
            "value": 0.5039370078740157
          },
          {
            "number": 10,
            "ticks": 25715,
            "time": 107.14583333333333,
            "value": 0.5039370078740157
          }
        ],
        "91": [
          {
            "number": 91,
            "ticks": 0,
            "time": 0,
            "value": 0.5905511811023622
          },
          {
            "number": 91,
            "ticks": 0,
            "time": 0,
            "value": 0.5905511811023622
          },
          {
            "number": 91,
            "ticks": 0,
            "time": 0,
            "value": 0.5905511811023622
          },
          {
            "number": 91,
            "ticks": 25714,
            "time": 107.14166666666668,
            "value": 0.5905511811023622
          },
          {
            "number": 91,
            "ticks": 25715,
            "time": 107.14583333333333,
            "value": 0.5905511811023622
          }
        ],
        "100": [
          {
            "number": 100,
            "ticks": 0,
            "time": 0,
            "value": 0
          },
          {
            "number": 100,
            "ticks": 0,
            "time": 0,
            "value": 0
          },
          {
            "number": 100,
            "ticks": 25714,
            "time": 107.14166666666668,
            "value": 0
          },
          {
            "number": 100,
            "ticks": 25715,
            "time": 107.14583333333333,
            "value": 0
          }
        ],
        "101": [
          {
            "number": 101,
            "ticks": 0,
            "time": 0,
            "value": 0
          },
          {
            "number": 101,
            "ticks": 0,
            "time": 0,
            "value": 0
          },
          {
            "number": 101,
            "ticks": 25714,
            "time": 107.14166666666668,
            "value": 0
          },
          {
            "number": 101,
            "ticks": 25715,
            "time": 107.14583333333333,
            "value": 0
          }
        ]
      },
      "pitchBends": [
        {
          "ticks": 0,
          "time": 0,
          "value": 0
        },
        {
          "ticks": 0,
          "time": 0,
          "value": 0
        },
        {
          "ticks": 25714,
          "time": 107.14166666666668,
          "value": 0
        },
        {
          "ticks": 25715,
          "time": 107.14583333333333,
          "value": 0
        }
      ],
      "instrument": {
        "family": "synth lead",
        "number": 83,
        "name": "lead 4 (chiff)"
      },
      "name": "",
      "notes": [
        {
          "duration": 0.1999999999999993,
          "durationTicks": 48,
          "midi": 76,
          "name": "E5",
          "ticks": 7344,
          "time": 30.6,
          "velocity": 0.9291338582677166
        },
        {
          "duration": 0.1999999999999993,
          "durationTicks": 48,
          "midi": 74,
          "name": "D5",
          "ticks": 7392,
          "time": 30.8,
          "velocity": 0.9291338582677166
        },
        {
          "duration": 0.20000000000000284,
          "durationTicks": 48,
          "midi": 73,
          "name": "C#5",
          "ticks": 7440,
          "time": 31,
          "velocity": 0.9291338582677166
        },
        {
          "duration": 0.1999999999999993,
          "durationTicks": 48,
          "midi": 74,
          "name": "D5",
          "ticks": 7488,
          "time": 31.200000000000003,
          "velocity": 0.9291338582677166
        },
        {
          "duration": 0.1999999999999993,
          "durationTicks": 48,
          "midi": 73,
          "name": "C#5",
          "ticks": 7536,
          "time": 31.400000000000002,
          "velocity": 0.9291338582677166
        },
        {
          "duration": 0.1999999999999993,
          "durationTicks": 48,
          "midi": 71,
          "name": "B4",
          "ticks": 7584,
          "time": 31.6,
          "velocity": 0.9291338582677166
        },
        {
          "duration": 0.1999999999999993,
          "durationTicks": 48,
          "midi": 69,
          "name": "A4",
          "ticks": 7632,
          "time": 31.8,
          "velocity": 0.9291338582677166
        }
      ]
    },
    {
      "channel": 0,
      "controlChanges": {
        "6": [
          {
            "number": 6,
            "ticks": 0,
            "time": 0,
            "value": 0.09448818897637795
          }
        ],
        "7": [
          {
            "number": 7,
            "ticks": 0,
            "time": 0,
            "value": 0.6692913385826772
          },
          {
            "number": 7,
            "ticks": 0,
            "time": 0,
            "value": 0.6692913385826772
          }
        ],
        "10": [
          {
            "number": 10,
            "ticks": 0,
            "time": 0,
            "value": 0.6535433070866141
          },
          {
            "number": 10,
            "ticks": 0,
            "time": 0,
            "value": 0.6535433070866141
          }
        ],
        "100": [
          {
            "number": 100,
            "ticks": 0,
            "time": 0,
            "value": 0
          }
        ],
        "101": [
          {
            "number": 101,
            "ticks": 0,
            "time": 0,
            "value": 0
          }
        ]
      },
      "pitchBends": [
        {
          "ticks": 0,
          "time": 0,
          "value": 0
        },
        {
          "ticks": 0,
          "time": 0,
          "value": 0
        }
      ],
      "instrument": {
        "family": "piano",
        "number": 0,
        "name": "acoustic grand piano"
      },
      "name": "brightness",
      "notes": [],
      "endOfTrackTicks": 25715
    },
    {
      "channel": 7,
      "controlChanges": {
        "6": [
          {
            "number": 6,
            "ticks": 0,
            "time": 0,
            "value": 0.09448818897637795
          },
          {
            "number": 6,
            "ticks": 0,
            "time": 0,
            "value": 0.09448818897637795
          },
          {
            "number": 6,
            "ticks": 25714,
            "time": 107.14166666666668,
            "value": 0.09448818897637795
          },
          {
            "number": 6,
            "ticks": 25715,
            "time": 107.14583333333333,
            "value": 0.09448818897637795
          }
        ],
        "7": [
          {
            "number": 7,
            "ticks": 0,
            "time": 0,
            "value": 0.6692913385826772
          },
          {
            "number": 7,
            "ticks": 0,
            "time": 0,
            "value": 0.6692913385826772
          },
          {
            "number": 7,
            "ticks": 25714,
            "time": 107.14166666666668,
            "value": 0.6692913385826772
          },
          {
            "number": 7,
            "ticks": 25715,
            "time": 107.14583333333333,
            "value": 0.6692913385826772
          }
        ],
        "10": [
          {
            "number": 10,
            "ticks": 0,
            "time": 0,
            "value": 0.6535433070866141
          },
          {
            "number": 10,
            "ticks": 0,
            "time": 0,
            "value": 0.6535433070866141
          },
          {
            "number": 10,
            "ticks": 25714,
            "time": 107.14166666666668,
            "value": 0.6535433070866141
          },
          {
            "number": 10,
            "ticks": 25715,
            "time": 107.14583333333333,
            "value": 0.6535433070866141
          }
        ],
        "91": [
          {
            "number": 91,
            "ticks": 0,
            "time": 0,
            "value": 0.4566929133858268
          },
          {
            "number": 91,
            "ticks": 0,
            "time": 0,
            "value": 0.4566929133858268
          },
          {
            "number": 91,
            "ticks": 0,
            "time": 0,
            "value": 0.4566929133858268
          },
          {
            "number": 91,
            "ticks": 25714,
            "time": 107.14166666666668,
            "value": 0.4566929133858268
          },
          {
            "number": 91,
            "ticks": 25715,
            "time": 107.14583333333333,
            "value": 0.4566929133858268
          }
        ],
        "93": [
          {
            "number": 93,
            "ticks": 0,
            "time": 0,
            "value": 0.023622047244094488
          },
          {
            "number": 93,
            "ticks": 0,
            "time": 0,
            "value": 0.023622047244094488
          },
          {
            "number": 93,
            "ticks": 0,
            "time": 0,
            "value": 0.023622047244094488
          },
          {
            "number": 93,
            "ticks": 25714,
            "time": 107.14166666666668,
            "value": 0.023622047244094488
          },
          {
            "number": 93,
            "ticks": 25715,
            "time": 107.14583333333333,
            "value": 0.023622047244094488
          }
        ],
        "100": [
          {
            "number": 100,
            "ticks": 0,
            "time": 0,
            "value": 0
          },
          {
            "number": 100,
            "ticks": 0,
            "time": 0,
            "value": 0
          },
          {
            "number": 100,
            "ticks": 25714,
            "time": 107.14166666666668,
            "value": 0
          },
          {
            "number": 100,
            "ticks": 25715,
            "time": 107.14583333333333,
            "value": 0
          }
        ],
        "101": [
          {
            "number": 101,
            "ticks": 0,
            "time": 0,
            "value": 0
          },
          {
            "number": 101,
            "ticks": 0,
            "time": 0,
            "value": 0
          },
          {
            "number": 101,
            "ticks": 25714,
            "time": 107.14166666666668,
            "value": 0
          },
          {
            "number": 101,
            "ticks": 25715,
            "time": 107.14583333333333,
            "value": 0
          }
        ]
      },
      "pitchBends": [
        {
          "ticks": 0,
          "time": 0,
          "value": 0
        },
        {
          "ticks": 0,
          "time": 0,
          "value": 0
        },
        {
          "ticks": 25714,
          "time": 107.14166666666668,
          "value": 0
        },
        {
          "ticks": 25715,
          "time": 107.14583333333333,
          "value": 0
        }
      ],
      "instrument": {
        "family": "synth effects",
        "number": 100,
        "name": "fx 5 (brightness)"
      },
      "name": "",
      "notes": [
        {
          "duration": 0.40000000000000036,
          "durationTicks": 96,
          "midi": 69,
          "name": "A4",
          "ticks": 1296,
          "time": 5.4,
          "velocity": 0.8976377952755905
        },
        {
          "duration": 0.1999999999999993,
          "durationTicks": 48,
          "midi": 71,
          "name": "B4",
          "ticks": 1392,
          "time": 5.800000000000001,
          "velocity": 0.8976377952755905
        },
        {
          "duration": 0.20000000000000018,
          "durationTicks": 48,
          "midi": 73,
          "name": "C#5",
          "ticks": 1440,
          "time": 6,
          "velocity": 0.8976377952755905
        },
        {
          "duration": 0.20000000000000018,
          "durationTicks": 48,
          "midi": 74,
          "name": "D5",
          "ticks": 1488,
          "time": 6.2,
          "velocity": 0.8976377952755905
        },
        {
          "duration": 1.5999999999999996,
          "durationTicks": 384,
          "midi": 76,
          "name": "E5",
          "ticks": 1536,
          "time": 6.4,
          "velocity": 0.8976377952755905
        },
        {
          "duration": 0.20000000000000107,
          "durationTicks": 48,
          "midi": 68,
          "name": "G#4",
          "ticks": 2160,
          "time": 9,
          "velocity": 0.9291338582677166
        },
        {
          "duration": 0.1999999999999993,
          "durationTicks": 48,
          "midi": 69,
          "name": "A4",
          "ticks": 2208,
          "time": 9.200000000000001,
          "velocity": 0.9291338582677166
        },
        {
          "duration": 0.20000000000000107,
          "durationTicks": 48,
          "midi": 71,
          "name": "B4",
          "ticks": 2256,
          "time": 9.4,
          "velocity": 0.9291338582677166
        },
        {
          "duration": 1.5999999999999996,
          "durationTicks": 384,
          "midi": 73,
          "name": "C#5",
          "ticks": 2304,
          "time": 9.600000000000001,
          "velocity": 0.9291338582677166
        },
        {
          "duration": 0.40000000000000213,
          "durationTicks": 96,
          "midi": 69,
          "name": "A4",
          "ticks": 4368,
          "time": 18.2,
          "velocity": 0.8976377952755905
        },
        {
          "duration": 0.1999999999999993,
          "durationTicks": 48,
          "midi": 71,
          "name": "B4",
          "ticks": 4464,
          "time": 18.6,
          "velocity": 0.8976377952755905
        },
        {
          "duration": 0.1999999999999993,
          "durationTicks": 48,
          "midi": 73,
          "name": "C#5",
          "ticks": 4512,
          "time": 18.8,
          "velocity": 0.8976377952755905
        },
        {
          "duration": 0.20000000000000284,
          "durationTicks": 48,
          "midi": 74,
          "name": "D5",
          "ticks": 4560,
          "time": 19,
          "velocity": 0.8976377952755905
        },
        {
          "duration": 1.5999999999999979,
          "durationTicks": 384,
          "midi": 76,
          "name": "E5",
          "ticks": 4608,
          "time": 19.200000000000003,
          "velocity": 0.8976377952755905
        },
        {
          "duration": 0.1999999999999993,
          "durationTicks": 48,
          "midi": 68,
          "name": "G#4",
          "ticks": 5232,
          "time": 21.8,
          "velocity": 0.9291338582677166
        },
        {
          "duration": 0.20000000000000284,
          "durationTicks": 48,
          "midi": 69,
          "name": "A4",
          "ticks": 5280,
          "time": 22,
          "velocity": 0.9291338582677166
        },
        {
          "duration": 0.1999999999999993,
          "durationTicks": 48,
          "midi": 71,
          "name": "B4",
          "ticks": 5328,
          "time": 22.200000000000003,
          "velocity": 0.9291338582677166
        },
        {
          "duration": 1.5999999999999979,
          "durationTicks": 384,
          "midi": 73,
          "name": "C#5",
          "ticks": 5376,
          "time": 22.400000000000002,
          "velocity": 0.9291338582677166
        },
        {
          "duration": 0.1999999999999993,
          "durationTicks": 48,
          "midi": 69,
          "name": "A4",
          "ticks": 6864,
          "time": 28.6,
          "velocity": 0.9133858267716536
        },
        {
          "duration": 0.40000000000000213,
          "durationTicks": 96,
          "midi": 74,
          "name": "D5",
          "ticks": 6912,
          "time": 28.8,
          "velocity": 0.937007874015748
        },
        {
          "duration": 0.3999999999999986,
          "durationTicks": 96,
          "midi": 73,
          "name": "C#5",
          "ticks": 7008,
          "time": 29.200000000000003,
          "velocity": 0.937007874015748
        },
        {
          "duration": 0.3999999999999986,
          "durationTicks": 96,
          "midi": 71,
          "name": "B4",
          "ticks": 7104,
          "time": 29.6,
          "velocity": 0.937007874015748
        },
        {
          "duration": 0.20000000000000284,
          "durationTicks": 48,
          "midi": 69,
          "name": "A4",
          "ticks": 7200,
          "time": 30,
          "velocity": 0.937007874015748
        },
        {
          "duration": 1.3999999999999986,
          "durationTicks": 336,
          "midi": 69,
          "name": "A4",
          "ticks": 7248,
          "time": 30.200000000000003,
          "velocity": 0.889763779527559
        },
        {
          "duration": 0.19999999999999574,
          "durationTicks": 48,
          "midi": 61,
          "name": "C#4",
          "ticks": 8832,
          "time": 36.800000000000004,
          "velocity": 0.9133858267716536
        },
        {
          "duration": 0.19999999999999574,
          "durationTicks": 48,
          "midi": 63,
          "name": "D#4",
          "ticks": 8928,
          "time": 37.2,
          "velocity": 0.9133858267716536
        },
        {
          "duration": 0.4000000000000057,
          "durationTicks": 96,
          "midi": 65,
          "name": "F4",
          "ticks": 8976,
          "time": 37.4,
          "velocity": 0.9133858267716536
        },
        {
          "duration": 0.3999999999999986,
          "durationTicks": 96,
          "midi": 75,
          "name": "D#5",
          "ticks": 9072,
          "time": 37.800000000000004,
          "velocity": 0.9133858267716536
        },
        {
          "duration": 1.7999999999999972,
          "durationTicks": 432,
          "midi": 73,
          "name": "C#5",
          "ticks": 9168,
          "time": 38.2,
          "velocity": 0.9133858267716536
        },
        {
          "duration": 0.20000000000000284,
          "durationTicks": 48,
          "midi": 71,
          "name": "B4",
          "ticks": 10368,
          "time": 43.2,
          "velocity": 0.9133858267716536
        },
        {
          "duration": 0.20000000000000284,
          "durationTicks": 48,
          "midi": 70,
          "name": "A#4",
          "ticks": 10464,
          "time": 43.6,
          "velocity": 0.9133858267716536
        },
        {
          "duration": 0.19999999999999574,
          "durationTicks": 48,
          "midi": 66,
          "name": "F#4",
          "ticks": 10512,
          "time": 43.800000000000004,
          "velocity": 0.9133858267716536
        },
        {
          "duration": 0.20000000000000284,
          "durationTicks": 48,
          "midi": 63,
          "name": "D#4",
          "ticks": 10608,
          "time": 44.2,
          "velocity": 0.9133858267716536
        },
        {
          "duration": 0.19999999999999574,
          "durationTicks": 48,
          "midi": 61,
          "name": "C#4",
          "ticks": 10752,
          "time": 44.800000000000004,
          "velocity": 0.9133858267716536
        },
        {
          "duration": 0.19999999999999574,
          "durationTicks": 48,
          "midi": 65,
          "name": "F4",
          "ticks": 11136,
          "time": 46.400000000000006,
          "velocity": 0.9133858267716536
        },
        {
          "duration": 0.20000000000000284,
          "durationTicks": 48,
          "midi": 66,
          "name": "F#4",
          "ticks": 11520,
          "time": 48,
          "velocity": 0.9133858267716536
        },
        {
          "duration": 0.20000000000000284,
          "durationTicks": 48,
          "midi": 68,
          "name": "G#4",
          "ticks": 11904,
          "time": 49.6,
          "velocity": 0.9133858267716536
        },
        {
          "duration": 0.20000000000000284,
          "durationTicks": 48,
          "midi": 70,
          "name": "A#4",
          "ticks": 12288,
          "time": 51.2,
          "velocity": 0.9133858267716536
        },
        {
          "duration": 0.19999999999999574,
          "durationTicks": 48,
          "midi": 70,
          "name": "A#4",
          "ticks": 13152,
          "time": 54.800000000000004,
          "velocity": 0.9133858267716536
        },
        {
          "duration": 0.20000000000000284,
          "durationTicks": 48,
          "midi": 68,
          "name": "G#4",
          "ticks": 13248,
          "time": 55.2,
          "velocity": 0.9133858267716536
        },
        {
          "duration": 0.20000000000000284,
          "durationTicks": 48,
          "midi": 66,
          "name": "F#4",
          "ticks": 13344,
          "time": 55.6,
          "velocity": 0.9133858267716536
        },
        {
          "duration": 0.20000000000000284,
          "durationTicks": 48,
          "midi": 73,
          "name": "C#5",
          "ticks": 13440,
          "time": 56,
          "velocity": 0.9133858267716536
        },
        {
          "duration": 0.20000000000000284,
          "durationTicks": 48,
          "midi": 70,
          "name": "A#4",
          "ticks": 13920,
          "time": 58,
          "velocity": 0.9133858267716536
        },
        {
          "duration": 0.19999999999999574,
          "durationTicks": 48,
          "midi": 68,
          "name": "G#4",
          "ticks": 14016,
          "time": 58.400000000000006,
          "velocity": 0.9133858267716536
        },
        {
          "duration": 0.19999999999999574,
          "durationTicks": 48,
          "midi": 66,
          "name": "F#4",
          "ticks": 14112,
          "time": 58.800000000000004,
          "velocity": 0.9133858267716536
        },
        {
          "duration": 0.20000000000000284,
          "durationTicks": 48,
          "midi": 73,
          "name": "C#5",
          "ticks": 14208,
          "time": 59.2,
          "velocity": 0.9133858267716536
        },
        {
          "duration": 0.20000000000000284,
          "durationTicks": 48,
          "midi": 70,
          "name": "A#4",
          "ticks": 14304,
          "time": 59.6,
          "velocity": 0.9133858267716536
        },
        {
          "duration": 0.20000000000000284,
          "durationTicks": 48,
          "midi": 68,
          "name": "G#4",
          "ticks": 14400,
          "time": 60,
          "velocity": 0.9133858267716536
        },
        {
          "duration": 0.19999999999999574,
          "durationTicks": 48,
          "midi": 66,
          "name": "F#4",
          "ticks": 14496,
          "time": 60.400000000000006,
          "velocity": 0.9133858267716536
        },
        {
          "duration": 0.20000000000000284,
          "durationTicks": 48,
          "midi": 70,
          "name": "A#4",
          "ticks": 14688,
          "time": 61.2,
          "velocity": 0.9133858267716536
        },
        {
          "duration": 0.20000000000000284,
          "durationTicks": 48,
          "midi": 68,
          "name": "G#4",
          "ticks": 14784,
          "time": 61.6,
          "velocity": 0.9133858267716536
        },
        {
          "duration": 0.20000000000000284,
          "durationTicks": 48,
          "midi": 66,
          "name": "F#4",
          "ticks": 14880,
          "time": 62,
          "velocity": 0.9133858267716536
        },
        {
          "duration": 0.19999999999999574,
          "durationTicks": 48,
          "midi": 73,
          "name": "C#5",
          "ticks": 14976,
          "time": 62.400000000000006,
          "velocity": 0.9133858267716536
        },
        {
          "duration": 0.20000000000000284,
          "durationTicks": 48,
          "midi": 68,
          "name": "G#4",
          "ticks": 15168,
          "time": 63.2,
          "velocity": 0.9133858267716536
        },
        {
          "duration": 0.20000000000000284,
          "durationTicks": 48,
          "midi": 70,
          "name": "A#4",
          "ticks": 15360,
          "time": 64,
          "velocity": 0.9133858267716536
        },
        {
          "duration": 0.19999999999998863,
          "durationTicks": 48,
          "midi": 72,
          "name": "C5",
          "ticks": 15744,
          "time": 65.60000000000001,
          "velocity": 0.9133858267716536
        },
        {
          "duration": 0.20000000000000284,
          "durationTicks": 48,
          "midi": 73,
          "name": "C#5",
          "ticks": 16128,
          "time": 67.2,
          "velocity": 0.9133858267716536
        },
        {
          "duration": 0.09999999999999432,
          "durationTicks": 24,
          "midi": 73,
          "name": "C#5",
          "ticks": 16464,
          "time": 68.60000000000001,
          "velocity": 0.9133858267716536
        },
        {
          "duration": 0.09999999999999432,
          "durationTicks": 24,
          "midi": 75,
          "name": "D#5",
          "ticks": 16488,
          "time": 68.7,
          "velocity": 0.9133858267716536
        },
        {
          "duration": 0.20000000000000284,
          "durationTicks": 48,
          "midi": 77,
          "name": "F5",
          "ticks": 16512,
          "time": 68.8,
          "velocity": 0.9133858267716536
        },
        {
          "duration": 0.09999999999999432,
          "durationTicks": 24,
          "midi": 77,
          "name": "F5",
          "ticks": 16848,
          "time": 70.2,
          "velocity": 0.9133858267716536
        },
        {
          "duration": 0.10000000000000853,
          "durationTicks": 24,
          "midi": 78,
          "name": "F#5",
          "ticks": 16872,
          "time": 70.3,
          "velocity": 0.9133858267716536
        },
        {
          "duration": 0.09999999999999432,
          "durationTicks": 24,
          "midi": 80,
          "name": "G#5",
          "ticks": 16896,
          "time": 70.4,
          "velocity": 0.9133858267716536
        },
        {
          "duration": 0.3999999999999915,
          "durationTicks": 96,
          "midi": 69,
          "name": "A4",
          "ticks": 17424,
          "time": 72.60000000000001,
          "velocity": 0.8976377952755905
        },
        {
          "duration": 0.20000000000000284,
          "durationTicks": 48,
          "midi": 71,
          "name": "B4",
          "ticks": 17520,
          "time": 73,
          "velocity": 0.8976377952755905
        },
        {
          "duration": 0.20000000000000284,
          "durationTicks": 48,
          "midi": 73,
          "name": "C#5",
          "ticks": 17568,
          "time": 73.2,
          "velocity": 0.8976377952755905
        },
        {
          "duration": 0.20000000000000284,
          "durationTicks": 48,
          "midi": 74,
          "name": "D5",
          "ticks": 17616,
          "time": 73.4,
          "velocity": 0.8976377952755905
        },
        {
          "duration": 1.5999999999999943,
          "durationTicks": 384,
          "midi": 76,
          "name": "E5",
          "ticks": 17664,
          "time": 73.60000000000001,
          "velocity": 0.8976377952755905
        },
        {
          "duration": 0.20000000000000284,
          "durationTicks": 48,
          "midi": 68,
          "name": "G#4",
          "ticks": 18288,
          "time": 76.2,
          "velocity": 0.9291338582677166
        },
        {
          "duration": 0.20000000000000284,
          "durationTicks": 48,
          "midi": 69,
          "name": "A4",
          "ticks": 18336,
          "time": 76.4,
          "velocity": 0.9291338582677166
        },
        {
          "duration": 0.20000000000000284,
          "durationTicks": 48,
          "midi": 71,
          "name": "B4",
          "ticks": 18384,
          "time": 76.60000000000001,
          "velocity": 0.9291338582677166
        },
        {
          "duration": 1.5999999999999943,
          "durationTicks": 384,
          "midi": 73,
          "name": "C#5",
          "ticks": 18432,
          "time": 76.80000000000001,
          "velocity": 0.9291338582677166
        },
        {
          "duration": 0.4000000000000057,
          "durationTicks": 96,
          "midi": 69,
          "name": "A4",
          "ticks": 20496,
          "time": 85.4,
          "velocity": 0.8976377952755905
        },
        {
          "duration": 0.19999999999998863,
          "durationTicks": 48,
          "midi": 71,
          "name": "B4",
          "ticks": 20592,
          "time": 85.80000000000001,
          "velocity": 0.8976377952755905
        },
        {
          "duration": 0.20000000000000284,
          "durationTicks": 48,
          "midi": 73,
          "name": "C#5",
          "ticks": 20640,
          "time": 86,
          "velocity": 0.8976377952755905
        },
        {
          "duration": 0.20000000000000284,
          "durationTicks": 48,
          "midi": 74,
          "name": "D5",
          "ticks": 20688,
          "time": 86.2,
          "velocity": 0.8976377952755905
        },
        {
          "duration": 1.5999999999999943,
          "durationTicks": 384,
          "midi": 76,
          "name": "E5",
          "ticks": 20736,
          "time": 86.4,
          "velocity": 0.8976377952755905
        },
        {
          "duration": 0.20000000000000284,
          "durationTicks": 48,
          "midi": 68,
          "name": "G#4",
          "ticks": 21360,
          "time": 89,
          "velocity": 0.9291338582677166
        },
        {
          "duration": 0.20000000000000284,
          "durationTicks": 48,
          "midi": 69,
          "name": "A4",
          "ticks": 21408,
          "time": 89.2,
          "velocity": 0.9291338582677166
        },
        {
          "duration": 0.20000000000000284,
          "durationTicks": 48,
          "midi": 71,
          "name": "B4",
          "ticks": 21456,
          "time": 89.4,
          "velocity": 0.9291338582677166
        },
        {
          "duration": 1.5999999999999943,
          "durationTicks": 384,
          "midi": 73,
          "name": "C#5",
          "ticks": 21504,
          "time": 89.60000000000001,
          "velocity": 0.9291338582677166
        },
        {
          "duration": 0.19999999999998863,
          "durationTicks": 48,
          "midi": 69,
          "name": "A4",
          "ticks": 22992,
          "time": 95.80000000000001,
          "velocity": 0.9133858267716536
        },
        {
          "duration": 0.4000000000000057,
          "durationTicks": 96,
          "midi": 74,
          "name": "D5",
          "ticks": 23040,
          "time": 96,
          "velocity": 0.937007874015748
        },
        {
          "duration": 0.4000000000000057,
          "durationTicks": 96,
          "midi": 73,
          "name": "C#5",
          "ticks": 23136,
          "time": 96.4,
          "velocity": 0.937007874015748
        },
        {
          "duration": 0.3999999999999915,
          "durationTicks": 96,
          "midi": 71,
          "name": "B4",
          "ticks": 23232,
          "time": 96.80000000000001,
          "velocity": 0.937007874015748
        },
        {
          "duration": 0.20000000000000284,
          "durationTicks": 48,
          "midi": 69,
          "name": "A4",
          "ticks": 23328,
          "time": 97.2,
          "velocity": 0.937007874015748
        },
        {
          "duration": 1.4000000000000057,
          "durationTicks": 336,
          "midi": 69,
          "name": "A4",
          "ticks": 23376,
          "time": 97.4,
          "velocity": 0.889763779527559
        }
      ]
    },
    {
      "channel": 10,
      "controlChanges": {
        "6": [
          {
            "number": 6,
            "ticks": 0,
            "time": 0,
            "value": 0.09448818897637795
          },
          {
            "number": 6,
            "ticks": 0,
            "time": 0,
            "value": 0.09448818897637795
          },
          {
            "number": 6,
            "ticks": 0,
            "time": 0,
            "value": 0.09448818897637795
          },
          {
            "number": 6,
            "ticks": 25714,
            "time": 107.14166666666668,
            "value": 0.09448818897637795
          },
          {
            "number": 6,
            "ticks": 25715,
            "time": 107.14583333333333,
            "value": 0.09448818897637795
          }
        ],
        "7": [
          {
            "number": 7,
            "ticks": 0,
            "time": 0,
            "value": 0.6850393700787402
          },
          {
            "number": 7,
            "ticks": 0,
            "time": 0,
            "value": 0.6850393700787402
          },
          {
            "number": 7,
            "ticks": 0,
            "time": 0,
            "value": 0.6850393700787402
          },
          {
            "number": 7,
            "ticks": 0,
            "time": 0,
            "value": 0.6850393700787402
          },
          {
            "number": 7,
            "ticks": 25714,
            "time": 107.14166666666668,
            "value": 0.6850393700787402
          },
          {
            "number": 7,
            "ticks": 25715,
            "time": 107.14583333333333,
            "value": 0.6850393700787402
          }
        ],
        "10": [
          {
            "number": 10,
            "ticks": 0,
            "time": 0,
            "value": 0.7322834645669292
          },
          {
            "number": 10,
            "ticks": 0,
            "time": 0,
            "value": 0.7322834645669292
          },
          {
            "number": 10,
            "ticks": 0,
            "time": 0,
            "value": 0.7322834645669292
          },
          {
            "number": 10,
            "ticks": 0,
            "time": 0,
            "value": 0.7322834645669292
          },
          {
            "number": 10,
            "ticks": 25714,
            "time": 107.14166666666668,
            "value": 0.7322834645669292
          },
          {
            "number": 10,
            "ticks": 25715,
            "time": 107.14583333333333,
            "value": 0.7322834645669292
          }
        ],
        "91": [
          {
            "number": 91,
            "ticks": 0,
            "time": 0,
            "value": 0.5196850393700787
          },
          {
            "number": 91,
            "ticks": 0,
            "time": 0,
            "value": 0.5196850393700787
          },
          {
            "number": 91,
            "ticks": 0,
            "time": 0,
            "value": 0.5196850393700787
          },
          {
            "number": 91,
            "ticks": 25714,
            "time": 107.14166666666668,
            "value": 0.5196850393700787
          },
          {
            "number": 91,
            "ticks": 25715,
            "time": 107.14583333333333,
            "value": 0.5196850393700787
          }
        ],
        "93": [
          {
            "number": 93,
            "ticks": 0,
            "time": 0,
            "value": 0.1889763779527559
          },
          {
            "number": 93,
            "ticks": 0,
            "time": 0,
            "value": 0.1889763779527559
          },
          {
            "number": 93,
            "ticks": 0,
            "time": 0,
            "value": 0.1889763779527559
          },
          {
            "number": 93,
            "ticks": 25714,
            "time": 107.14166666666668,
            "value": 0.1889763779527559
          },
          {
            "number": 93,
            "ticks": 25715,
            "time": 107.14583333333333,
            "value": 0.1889763779527559
          }
        ],
        "100": [
          {
            "number": 100,
            "ticks": 0,
            "time": 0,
            "value": 0
          },
          {
            "number": 100,
            "ticks": 0,
            "time": 0,
            "value": 0
          },
          {
            "number": 100,
            "ticks": 0,
            "time": 0,
            "value": 0
          },
          {
            "number": 100,
            "ticks": 25714,
            "time": 107.14166666666668,
            "value": 0
          },
          {
            "number": 100,
            "ticks": 25715,
            "time": 107.14583333333333,
            "value": 0
          }
        ],
        "101": [
          {
            "number": 101,
            "ticks": 0,
            "time": 0,
            "value": 0
          },
          {
            "number": 101,
            "ticks": 0,
            "time": 0,
            "value": 0
          },
          {
            "number": 101,
            "ticks": 0,
            "time": 0,
            "value": 0
          },
          {
            "number": 101,
            "ticks": 25714,
            "time": 107.14166666666668,
            "value": 0
          },
          {
            "number": 101,
            "ticks": 25715,
            "time": 107.14583333333333,
            "value": 0
          }
        ]
      },
      "pitchBends": [
        {
          "ticks": 0,
          "time": 0,
          "value": 0
        },
        {
          "ticks": 0,
          "time": 0,
          "value": 0
        },
        {
          "ticks": 0,
          "time": 0,
          "value": 0
        },
        {
          "ticks": 0,
          "time": 0,
          "value": 0
        },
        {
          "ticks": 25714,
          "time": 107.14166666666668,
          "value": 0
        },
        {
          "ticks": 25715,
          "time": 107.14583333333333,
          "value": 0
        }
      ],
      "instrument": {
        "family": "piano",
        "number": 0,
        "name": "acoustic grand piano"
      },
      "name": "piano",
      "notes": [
        {
          "duration": 0.6000000000000014,
          "durationTicks": 144,
          "midi": 54,
          "name": "F#3",
          "ticks": 7680,
          "time": 32,
          "velocity": 0.5354330708661418
        },
        {
          "duration": 3.200000000000003,
          "durationTicks": 768,
          "midi": 70,
          "name": "A#4",
          "ticks": 7680,
          "time": 32,
          "velocity": 0.9133858267716536
        },
        {
          "duration": 3.200000000000003,
          "durationTicks": 768,
          "midi": 78,
          "name": "F#5",
          "ticks": 7680,
          "time": 32,
          "velocity": 1
        },
        {
          "duration": 3.200000000000003,
          "durationTicks": 768,
          "midi": 73,
          "name": "C#5",
          "ticks": 7680,
          "time": 32,
          "velocity": 0.9606299212598425
        },
        {
          "duration": 1,
          "durationTicks": 240,
          "midi": 54,
          "name": "F#3",
          "ticks": 7824,
          "time": 32.6,
          "velocity": 0.5354330708661418
        },
        {
          "duration": 0.6000000000000014,
          "durationTicks": 144,
          "midi": 54,
          "name": "F#3",
          "ticks": 8064,
          "time": 33.6,
          "velocity": 0.5354330708661418
        },
        {
          "duration": 1,
          "durationTicks": 240,
          "midi": 54,
          "name": "F#3",
          "ticks": 8208,
          "time": 34.2,
          "velocity": 0.5354330708661418
        },
        {
          "duration": 3.200000000000003,
          "durationTicks": 768,
          "midi": 77,
          "name": "F5",
          "ticks": 8448,
          "time": 35.2,
          "velocity": 1
        },
        {
          "duration": 3.200000000000003,
          "durationTicks": 768,
          "midi": 70,
          "name": "A#4",
          "ticks": 8448,
          "time": 35.2,
          "velocity": 0.9133858267716536
        },
        {
          "duration": 3.200000000000003,
          "durationTicks": 768,
          "midi": 73,
          "name": "C#5",
          "ticks": 8448,
          "time": 35.2,
          "velocity": 0.9606299212598425
        },
        {
          "duration": 0.6000000000000014,
          "durationTicks": 144,
          "midi": 53,
          "name": "F3",
          "ticks": 8448,
          "time": 35.2,
          "velocity": 0.5354330708661418
        },
        {
          "duration": 1,
          "durationTicks": 240,
          "midi": 53,
          "name": "F3",
          "ticks": 8592,
          "time": 35.800000000000004,
          "velocity": 0.5354330708661418
        },
        {
          "duration": 0.5999999999999943,
          "durationTicks": 144,
          "midi": 53,
          "name": "F3",
          "ticks": 8832,
          "time": 36.800000000000004,
          "velocity": 0.5354330708661418
        },
        {
          "duration": 1.000000000000007,
          "durationTicks": 240,
          "midi": 53,
          "name": "F3",
          "ticks": 8976,
          "time": 37.4,
          "velocity": 0.5354330708661418
        },
        {
          "duration": 0.5999999999999943,
          "durationTicks": 144,
          "midi": 51,
          "name": "D#3",
          "ticks": 9216,
          "time": 38.400000000000006,
          "velocity": 0.5354330708661418
        },
        {
          "duration": 3.1999999999999957,
          "durationTicks": 768,
          "midi": 66,
          "name": "F#4",
          "ticks": 9216,
          "time": 38.400000000000006,
          "velocity": 0.8976377952755905
        },
        {
          "duration": 3.1999999999999957,
          "durationTicks": 768,
          "midi": 70,
          "name": "A#4",
          "ticks": 9216,
          "time": 38.400000000000006,
          "velocity": 0.8503937007874016
        },
        {
          "duration": 3.1999999999999957,
          "durationTicks": 768,
          "midi": 75,
          "name": "D#5",
          "ticks": 9216,
          "time": 38.400000000000006,
          "velocity": 1
        },
        {
          "duration": 1,
          "durationTicks": 240,
          "midi": 51,
          "name": "D#3",
          "ticks": 9360,
          "time": 39,
          "velocity": 0.5354330708661418
        },
        {
          "duration": 0.6000000000000014,
          "durationTicks": 144,
          "midi": 51,
          "name": "D#3",
          "ticks": 9600,
          "time": 40,
          "velocity": 0.5354330708661418
        },
        {
          "duration": 1,
          "durationTicks": 240,
          "midi": 51,
          "name": "D#3",
          "ticks": 9744,
          "time": 40.6,
          "velocity": 0.5354330708661418
        },
        {
          "duration": 3.200000000000003,
          "durationTicks": 768,
          "midi": 74,
          "name": "D5",
          "ticks": 9984,
          "time": 41.6,
          "velocity": 1
        },
        {
          "duration": 3.200000000000003,
          "durationTicks": 768,
          "midi": 69,
          "name": "A4",
          "ticks": 9984,
          "time": 41.6,
          "velocity": 0.8031496062992126
        },
        {
          "duration": 3.200000000000003,
          "durationTicks": 768,
          "midi": 66,
          "name": "F#4",
          "ticks": 9984,
          "time": 41.6,
          "velocity": 0.8976377952755905
        },
        {
          "duration": 0.6000000000000014,
          "durationTicks": 144,
          "midi": 50,
          "name": "D3",
          "ticks": 9984,
          "time": 41.6,
          "velocity": 0.5354330708661418
        },
        {
          "duration": 1,
          "durationTicks": 240,
          "midi": 50,
          "name": "D3",
          "ticks": 10128,
          "time": 42.2,
          "velocity": 0.5354330708661418
        },
        {
          "duration": 0.6000000000000014,
          "durationTicks": 144,
          "midi": 50,
          "name": "D3",
          "ticks": 10368,
          "time": 43.2,
          "velocity": 0.5354330708661418
        },
        {
          "duration": 1,
          "durationTicks": 240,
          "midi": 50,
          "name": "D3",
          "ticks": 10512,
          "time": 43.800000000000004,
          "velocity": 0.5354330708661418
        },
        {
          "duration": 0.3999999999999986,
          "durationTicks": 96,
          "midi": 80,
          "name": "G#5",
          "ticks": 10656,
          "time": 44.400000000000006,
          "velocity": 0.8582677165354331
        },
        {
          "duration": 0.6000000000000014,
          "durationTicks": 144,
          "midi": 51,
          "name": "D#3",
          "ticks": 10752,
          "time": 44.800000000000004,
          "velocity": 0.5354330708661418
        },
        {
          "duration": 1.6000000000000014,
          "durationTicks": 384,
          "midi": 73,
          "name": "C#5",
          "ticks": 10752,
          "time": 44.800000000000004,
          "velocity": 1
        },
        {
          "duration": 1.6000000000000014,
          "durationTicks": 384,
          "midi": 66,
          "name": "F#4",
          "ticks": 10752,
          "time": 44.800000000000004,
          "velocity": 0.7007874015748031
        },
        {
          "duration": 1.6000000000000014,
          "durationTicks": 384,
          "midi": 70,
          "name": "A#4",
          "ticks": 10752,
          "time": 44.800000000000004,
          "velocity": 0.8110236220472441
        },
        {
          "duration": 1,
          "durationTicks": 240,
          "midi": 51,
          "name": "D#3",
          "ticks": 10896,
          "time": 45.400000000000006,
          "velocity": 0.5354330708661418
        },
        {
          "duration": 1.5999999999999943,
          "durationTicks": 384,
          "midi": 73,
          "name": "C#5",
          "ticks": 11136,
          "time": 46.400000000000006,
          "velocity": 0.84251968503937
        },
        {
          "duration": 1.5999999999999943,
          "durationTicks": 384,
          "midi": 68,
          "name": "G#4",
          "ticks": 11136,
          "time": 46.400000000000006,
          "velocity": 0.7480314960629921
        },
        {
          "duration": 0.5999999999999943,
          "durationTicks": 144,
          "midi": 49,
          "name": "C#3",
          "ticks": 11136,
          "time": 46.400000000000006,
          "velocity": 0.5354330708661418
        },
        {
          "duration": 1.5999999999999943,
          "durationTicks": 384,
          "midi": 77,
          "name": "F5",
          "ticks": 11136,
          "time": 46.400000000000006,
          "velocity": 1
        },
        {
          "duration": 1,
          "durationTicks": 240,
          "midi": 49,
          "name": "C#3",
          "ticks": 11280,
          "time": 47,
          "velocity": 0.5354330708661418
        },
        {
          "duration": 0.6000000000000014,
          "durationTicks": 144,
          "midi": 47,
          "name": "B2",
          "ticks": 11520,
          "time": 48,
          "velocity": 0.5354330708661418
        },
        {
          "duration": 1.6000000000000014,
          "durationTicks": 384,
          "midi": 78,
          "name": "F#5",
          "ticks": 11520,
          "time": 48,
          "velocity": 0.9921259842519685
        },
        {
          "duration": 1.6000000000000014,
          "durationTicks": 384,
          "midi": 75,
          "name": "D#5",
          "ticks": 11520,
          "time": 48,
          "velocity": 0.8031496062992126
        },
        {
          "duration": 1.6000000000000014,
          "durationTicks": 384,
          "midi": 71,
          "name": "B4",
          "ticks": 11520,
          "time": 48,
          "velocity": 0.889763779527559
        },
        {
          "duration": 1,
          "durationTicks": 240,
          "midi": 47,
          "name": "B2",
          "ticks": 11664,
          "time": 48.6,
          "velocity": 0.5354330708661418
        },
        {
          "duration": 1.6000000000000014,
          "durationTicks": 384,
          "midi": 80,
          "name": "G#5",
          "ticks": 11904,
          "time": 49.6,
          "velocity": 0.9921259842519685
        },
        {
          "duration": 0.8000000000000043,
          "durationTicks": 192,
          "midi": 75,
          "name": "D#5",
          "ticks": 11904,
          "time": 49.6,
          "velocity": 0.905511811023622
        },
        {
          "duration": 0.7749999999999986,
          "durationTicks": 186,
          "midi": 73,
          "name": "C#5",
          "ticks": 11904,
          "time": 49.6,
          "velocity": 0.8031496062992126
        },
        {
          "duration": 0.8000000000000043,
          "durationTicks": 192,
          "midi": 49,
          "name": "C#3",
          "ticks": 11904,
          "time": 49.6,
          "velocity": 0.5354330708661418
        },
        {
          "duration": 0.7749999999999986,
          "durationTicks": 186,
          "midi": 77,
          "name": "F5",
          "ticks": 12096,
          "time": 50.400000000000006,
          "velocity": 0.8976377952755905
        },
        {
          "duration": 0.7749999999999986,
          "durationTicks": 186,
          "midi": 73,
          "name": "C#5",
          "ticks": 12096,
          "time": 50.400000000000006,
          "velocity": 0.8031496062992126
        },
        {
          "duration": 0.8249999999999957,
          "durationTicks": 198,
          "midi": 49,
          "name": "C#3",
          "ticks": 12096,
          "time": 50.400000000000006,
          "velocity": 0.5354330708661418
        },
        {
          "duration": 1.6000000000000014,
          "durationTicks": 384,
          "midi": 73,
          "name": "C#5",
          "ticks": 12282,
          "time": 51.175000000000004,
          "velocity": 0.7559055118110236
        },
        {
          "duration": 1.6000000000000014,
          "durationTicks": 384,
          "midi": 78,
          "name": "F#5",
          "ticks": 12288,
          "time": 51.2,
          "velocity": 0.84251968503937
        },
        {
          "duration": 0.6000000000000014,
          "durationTicks": 144,
          "midi": 54,
          "name": "F#3",
          "ticks": 12288,
          "time": 51.2,
          "velocity": 0.5354330708661418
        },
        {
          "duration": 1.6000000000000014,
          "durationTicks": 384,
          "midi": 82,
          "name": "A#5",
          "ticks": 12288,
          "time": 51.2,
          "velocity": 0.9921259842519685
        },
        {
          "duration": 1,
          "durationTicks": 240,
          "midi": 54,
          "name": "F#3",
          "ticks": 12432,
          "time": 51.800000000000004,
          "velocity": 0.5354330708661418
        },
        {
          "duration": 0.5999999999999943,
          "durationTicks": 144,
          "midi": 51,
          "name": "D#3",
          "ticks": 13056,
          "time": 54.400000000000006,
          "velocity": 0.5354330708661418
        },
        {
          "duration": 1.5999999999999943,
          "durationTicks": 384,
          "midi": 66,
          "name": "F#4",
          "ticks": 13056,
          "time": 54.400000000000006,
          "velocity": 0.7559055118110236
        },
        {
          "duration": 1.5999999999999943,
          "durationTicks": 384,
          "midi": 70,
          "name": "A#4",
          "ticks": 13056,
          "time": 54.400000000000006,
          "velocity": 0.8503937007874016
        },
        {
          "duration": 1.5999999999999943,
          "durationTicks": 384,
          "midi": 73,
          "name": "C#5",
          "ticks": 13056,
          "time": 54.400000000000006,
          "velocity": 1
        },
        {
          "duration": 1,
          "durationTicks": 240,
          "midi": 51,
          "name": "D#3",
          "ticks": 13200,
          "time": 55,
          "velocity": 0.5354330708661418
        },
        {
          "duration": 1.6000000000000014,
          "durationTicks": 384,
          "midi": 73,
          "name": "C#5",
          "ticks": 13440,
          "time": 56,
          "velocity": 1
        },
        {
          "duration": 1.6000000000000014,
          "durationTicks": 384,
          "midi": 65,
          "name": "F4",
          "ticks": 13440,
          "time": 56,
          "velocity": 0.7165354330708661
        },
        {
          "duration": 0.6000000000000014,
          "durationTicks": 144,
          "midi": 53,
          "name": "F3",
          "ticks": 13440,
          "time": 56,
          "velocity": 0.5354330708661418
        },
        {
          "duration": 1.6000000000000014,
          "durationTicks": 384,
          "midi": 68,
          "name": "G#4",
          "ticks": 13440,
          "time": 56,
          "velocity": 0.8503937007874016
        },
        {
          "duration": 1,
          "durationTicks": 240,
          "midi": 53,
          "name": "F3",
          "ticks": 13584,
          "time": 56.6,
          "velocity": 0.5354330708661418
        },
        {
          "duration": 0.6000000000000014,
          "durationTicks": 144,
          "midi": 54,
          "name": "F#3",
          "ticks": 13824,
          "time": 57.6,
          "velocity": 0.5354330708661418
        },
        {
          "duration": 1.6000000000000014,
          "durationTicks": 384,
          "midi": 73,
          "name": "C#5",
          "ticks": 13824,
          "time": 57.6,
          "velocity": 1
        },
        {
          "duration": 1.6000000000000014,
          "durationTicks": 384,
          "midi": 66,
          "name": "F#4",
          "ticks": 13824,
          "time": 57.6,
          "velocity": 0.7401574803149606
        },
        {
          "duration": 1.6000000000000014,
          "durationTicks": 384,
          "midi": 70,
          "name": "A#4",
          "ticks": 13824,
          "time": 57.6,
          "velocity": 0.8503937007874016
        },
        {
          "duration": 1,
          "durationTicks": 240,
          "midi": 54,
          "name": "F#3",
          "ticks": 13968,
          "time": 58.2,
          "velocity": 0.5354330708661418
        },
        {
          "duration": 0.6000000000000014,
          "durationTicks": 144,
          "midi": 73,
          "name": "C#5",
          "ticks": 14208,
          "time": 59.2,
          "velocity": 0.8503937007874016
        },
        {
          "duration": 0.6000000000000014,
          "durationTicks": 144,
          "midi": 54,
          "name": "F#3",
          "ticks": 14208,
          "time": 59.2,
          "velocity": 0.5354330708661418
        },
        {
          "duration": 0.6000000000000014,
          "durationTicks": 144,
          "midi": 70,
          "name": "A#4",
          "ticks": 14208,
          "time": 59.2,
          "velocity": 0.8503937007874016
        },
        {
          "duration": 0.6000000000000014,
          "durationTicks": 144,
          "midi": 66,
          "name": "F#4",
          "ticks": 14208,
          "time": 59.2,
          "velocity": 0.7401574803149606
        },
        {
          "duration": 1,
          "durationTicks": 240,
          "midi": 53,
          "name": "F3",
          "ticks": 14352,
          "time": 59.800000000000004,
          "velocity": 0.5354330708661418
        },
        {
          "duration": 1,
          "durationTicks": 240,
          "midi": 70,
          "name": "A#4",
          "ticks": 14352,
          "time": 59.800000000000004,
          "velocity": 0.952755905511811
        },
        {
          "duration": 1.6000000000000014,
          "durationTicks": 384,
          "midi": 73,
          "name": "C#5",
          "ticks": 14592,
          "time": 60.800000000000004,
          "velocity": 1
        },
        {
          "duration": 1.6000000000000014,
          "durationTicks": 384,
          "midi": 66,
          "name": "F#4",
          "ticks": 14592,
          "time": 60.800000000000004,
          "velocity": 0.7559055118110236
        },
        {
          "duration": 1.6000000000000014,
          "durationTicks": 384,
          "midi": 70,
          "name": "A#4",
          "ticks": 14592,
          "time": 60.800000000000004,
          "velocity": 0.8503937007874016
        },
        {
          "duration": 0.6000000000000014,
          "durationTicks": 144,
          "midi": 51,
          "name": "D#3",
          "ticks": 14592,
          "time": 60.800000000000004,
          "velocity": 0.5354330708661418
        },
        {
          "duration": 1,
          "durationTicks": 240,
          "midi": 51,
          "name": "D#3",
          "ticks": 14736,
          "time": 61.400000000000006,
          "velocity": 0.5354330708661418
        },
        {
          "duration": 1.5999999999999943,
          "durationTicks": 384,
          "midi": 68,
          "name": "G#4",
          "ticks": 14976,
          "time": 62.400000000000006,
          "velocity": 0.8503937007874016
        },
        {
          "duration": 0.5999999999999943,
          "durationTicks": 144,
          "midi": 53,
          "name": "F3",
          "ticks": 14976,
          "time": 62.400000000000006,
          "velocity": 0.5354330708661418
        },
        {
          "duration": 1.5999999999999943,
          "durationTicks": 384,
          "midi": 65,
          "name": "F4",
          "ticks": 14976,
          "time": 62.400000000000006,
          "velocity": 0.7165354330708661
        },
        {
          "duration": 1.5999999999999943,
          "durationTicks": 384,
          "midi": 73,
          "name": "C#5",
          "ticks": 14976,
          "time": 62.400000000000006,
          "velocity": 1
        },
        {
          "duration": 1,
          "durationTicks": 240,
          "midi": 53,
          "name": "F3",
          "ticks": 15120,
          "time": 63,
          "velocity": 0.5354330708661418
        },
        {
          "duration": 1.6000000000000085,
          "durationTicks": 384,
          "midi": 66,
          "name": "F#4",
          "ticks": 15360,
          "time": 64,
          "velocity": 0.7401574803149606
        },
        {
          "duration": 1.6000000000000085,
          "durationTicks": 384,
          "midi": 70,
          "name": "A#4",
          "ticks": 15360,
          "time": 64,
          "velocity": 0.8503937007874016
        },
        {
          "duration": 1.6000000000000085,
          "durationTicks": 384,
          "midi": 73,
          "name": "C#5",
          "ticks": 15360,
          "time": 64,
          "velocity": 1
        },
        {
          "duration": 0.6000000000000085,
          "durationTicks": 144,
          "midi": 54,
          "name": "F#3",
          "ticks": 15360,
          "time": 64,
          "velocity": 0.5354330708661418
        },
        {
          "duration": 1,
          "durationTicks": 240,
          "midi": 54,
          "name": "F#3",
          "ticks": 15504,
          "time": 64.60000000000001,
          "velocity": 0.5354330708661418
        },
        {
          "duration": 0.5999999999999943,
          "durationTicks": 144,
          "midi": 56,
          "name": "G#3",
          "ticks": 15744,
          "time": 65.60000000000001,
          "velocity": 0.5354330708661418
        },
        {
          "duration": 1.5999999999999943,
          "durationTicks": 384,
          "midi": 72,
          "name": "C5",
          "ticks": 15744,
          "time": 65.60000000000001,
          "velocity": 0.7874015748031497
        },
        {
          "duration": 1.5999999999999943,
          "durationTicks": 384,
          "midi": 63,
          "name": "D#4",
          "ticks": 15744,
          "time": 65.60000000000001,
          "velocity": 0.6771653543307087
        },
        {
          "duration": 1.5999999999999943,
          "durationTicks": 384,
          "midi": 68,
          "name": "G#4",
          "ticks": 15744,
          "time": 65.60000000000001,
          "velocity": 0.952755905511811
        },
        {
          "duration": 1,
          "durationTicks": 240,
          "midi": 56,
          "name": "G#3",
          "ticks": 15888,
          "time": 66.2,
          "velocity": 0.5354330708661418
        }
      ],
      "endOfTrackTicks": 25715
    }
  ]
}
