{
    "header": {
      "keySignatures": [],
      "meta": [],
      "name": "",
      "ppq": 384,
      "tempos": [
        {
          "bpm": 155.00031000062,
          "ticks": 0
        }
      ],
      "timeSignatures": [
        {
          "ticks": 0,
          "timeSignature": [
            1,
            4
          ],
          "measures": 0
        }
      ]
    },
    "tracks": [
      {
        "channel": 0,
        "controlChanges": {},
        "pitchBends": [],
        "instrument": {
          "family": "piano",
          "number": 0,
          "name": "acoustic grand piano"
        },
        "name": "Grand Piano",
        "notes": [
          {
            "duration": 0.38709600000000144,
            "durationTicks": 384,
            "midi": 60,
            "name": "C4",
            "ticks": 13056,
            "time": 13.161264,
            "velocity": 0.31496062992125984
          },
          {
            "duration": 0.38709599999999966,
            "durationTicks": 384,
            "midi": 62,
            "name": "D4",
            "ticks": 13440,
            "time": 13.54836,
            "velocity": 0.1968503937007874
          },
          {
            "duration": 0.38709599999999966,
            "durationTicks": 384,
            "midi": 63,
            "name": "D#4",
            "ticks": 13824,
            "time": 13.935456,
            "velocity": 0.15748031496062992
          },
          {
            "duration": 3.096767999999999,
            "durationTicks": 3072,
            "midi": 51,
            "name": "D#3",
            "ticks": 13824,
            "time": 13.935456,
            "velocity": 0.23622047244094488
          },
          {
            "duration": 0.09677399999999992,
            "durationTicks": 96,
            "midi": 72,
            "name": "C5",
            "ticks": 14016,
            "time": 14.129004,
            "velocity": 0.3937007874015748
          },
          {
            "duration": 0.09677399999999992,
            "durationTicks": 96,
            "midi": 74,
            "name": "D5",
            "ticks": 14112,
            "time": 14.225778,
            "velocity": 0.3937007874015748
          },
          {
            "duration": 0.09677399999999992,
            "durationTicks": 96,
            "midi": 75,
            "name": "D#5",
            "ticks": 14208,
            "time": 14.322552,
            "velocity": 0.3937007874015748
          },
          {
            "duration": 0.09677399999999992,
            "durationTicks": 96,
            "midi": 72,
            "name": "C5",
            "ticks": 14400,
            "time": 14.5161,
            "velocity": 0.3937007874015748
          },
          {
            "duration": 0.19354799999999983,
            "durationTicks": 192,
            "midi": 77,
            "name": "F5",
            "ticks": 14592,
            "time": 14.709648,
            "velocity": 0.3937007874015748
          },
          {
            "duration": 0.09677399999999992,
            "durationTicks": 96,
            "midi": 75,
            "name": "D#5",
            "ticks": 14784,
            "time": 14.903196,
            "velocity": 0.3937007874015748
          },
          {
            "duration": 0.09677399999999992,
            "durationTicks": 96,
            "midi": 74,
            "name": "D5",
            "ticks": 14976,
            "time": 15.096744,
            "velocity": 0.3937007874015748
          },
          {
            "duration": 0.09677399999999992,
            "durationTicks": 96,
            "midi": 72,
            "name": "C5",
            "ticks": 15168,
            "time": 15.290291999999999,
            "velocity": 0.3937007874015748
          },
          {
            "duration": 0.29032199999999975,
            "durationTicks": 288,
            "midi": 70,
            "name": "A#4",
            "ticks": 15360,
            "time": 15.48384,
            "velocity": 0.3937007874015748
          },
          {
            "duration": 0.09677399999999992,
            "durationTicks": 96,
            "midi": 68,
            "name": "G#4",
            "ticks": 15648,
            "time": 15.774162,
            "velocity": 0.3937007874015748
          },
          {
            "duration": 0.09677399999999992,
            "durationTicks": 96,
            "midi": 67,
            "name": "G4",
            "ticks": 15744,
            "time": 15.870936,
            "velocity": 0.3937007874015748
          },
          {
            "duration": 0.09677399999999992,
            "durationTicks": 96,
            "midi": 68,
            "name": "G#4",
            "ticks": 15936,
            "time": 16.064484,
            "velocity": 0.3937007874015748
          },
          {
            "duration": 0.38709599999999966,
            "durationTicks": 384,
            "midi": 70,
            "name": "A#4",
            "ticks": 16128,
            "time": 16.258032,
            "velocity": 0.3937007874015748
          },
          {
            "duration": 0.38709599999999966,
            "durationTicks": 384,
            "midi": 65,
            "name": "F4",
            "ticks": 16512,
            "time": 16.645128,
            "velocity": 0.3937007874015748
          },
          {
            "duration": 3.096768000000001,
            "durationTicks": 3072,
            "midi": 53,
            "name": "F3",
            "ticks": 16896,
            "time": 17.032224,
            "velocity": 0.23622047244094488
          },
          {
            "duration": 0.09677399999999992,
            "durationTicks": 96,
            "midi": 62,
            "name": "D4",
            "ticks": 17088,
            "time": 17.225772,
            "velocity": 0.3937007874015748
          },
          {
            "duration": 0.09677399999999992,
            "durationTicks": 96,
            "midi": 63,
            "name": "D#4",
            "ticks": 17184,
            "time": 17.322546,
            "velocity": 0.3937007874015748
          },
          {
            "duration": 0.09677399999999992,
            "durationTicks": 96,
            "midi": 65,
            "name": "F4",
            "ticks": 17280,
            "time": 17.41932,
            "velocity": 0.3937007874015748
          },
          {
            "duration": 0.09677399999999992,
            "durationTicks": 96,
            "midi": 62,
            "name": "D4",
            "ticks": 17472,
            "time": 17.612868,
            "velocity": 0.3937007874015748
          },
          {
            "duration": 0.19354799999999983,
            "durationTicks": 192,
            "midi": 67,
            "name": "G4",
            "ticks": 17664,
            "time": 17.806416,
            "velocity": 0.3937007874015748
          },
          {
            "duration": 0.09677399999999992,
            "durationTicks": 96,
            "midi": 65,
            "name": "F4",
            "ticks": 17856,
            "time": 17.999964,
            "velocity": 0.3937007874015748
          },
          {
            "duration": 0.09677399999999992,
            "durationTicks": 96,
            "midi": 63,
            "name": "D#4",
            "ticks": 18048,
            "time": 18.193512,
            "velocity": 0.3937007874015748
          },
          {
            "duration": 0.09677399999999992,
            "durationTicks": 96,
            "midi": 62,
            "name": "D4",
            "ticks": 18240,
            "time": 18.387059999999998,
            "velocity": 0.3937007874015748
          },
          {
            "duration": 0.3870960000000032,
            "durationTicks": 384,
            "midi": 63,
            "name": "D#4",
            "ticks": 18432,
            "time": 18.580607999999998,
            "velocity": 0.3937007874015748
          },
          {
            "duration": 0.38709599999999966,
            "durationTicks": 384,
            "midi": 63,
            "name": "D#4",
            "ticks": 18816,
            "time": 18.967704,
            "velocity": 0.3937007874015748
          },
          {
            "duration": 0.7741919999999993,
            "durationTicks": 768,
            "midi": 62,
            "name": "D4",
            "ticks": 19200,
            "time": 19.3548,
            "velocity": 0.3937007874015748
          },
          {
            "duration": 3.096768000000001,
            "durationTicks": 3072,
            "midi": 51,
            "name": "D#3",
            "ticks": 19968,
            "time": 20.128992,
            "velocity": 0.23622047244094488
          },
          {
            "duration": 0.09677399999999992,
            "durationTicks": 96,
            "midi": 72,
            "name": "C5",
            "ticks": 20160,
            "time": 20.32254,
            "velocity": 0.3937007874015748
          },
          {
            "duration": 0.09677399999999992,
            "durationTicks": 96,
            "midi": 74,
            "name": "D5",
            "ticks": 20256,
            "time": 20.419314,
            "velocity": 0.3937007874015748
          },
          {
            "duration": 0.09677399999999992,
            "durationTicks": 96,
            "midi": 75,
            "name": "D#5",
            "ticks": 20352,
            "time": 20.516088,
            "velocity": 0.3937007874015748
          },
          {
            "duration": 0.09677399999999992,
            "durationTicks": 96,
            "midi": 72,
            "name": "C5",
            "ticks": 20544,
            "time": 20.709636,
            "velocity": 0.3937007874015748
          },
          {
            "duration": 0.19354799999999983,
            "durationTicks": 192,
            "midi": 77,
            "name": "F5",
            "ticks": 20736,
            "time": 20.903184,
            "velocity": 0.3937007874015748
          },
          {
            "duration": 0.09677399999999992,
            "durationTicks": 96,
            "midi": 75,
            "name": "D#5",
            "ticks": 20928,
            "time": 21.096732,
            "velocity": 0.3937007874015748
          },
          {
            "duration": 0.09677399999999992,
            "durationTicks": 96,
            "midi": 74,
            "name": "D5",
            "ticks": 21120,
            "time": 21.29028,
            "velocity": 0.3937007874015748
          },
          {
            "duration": 0.09677399999999992,
            "durationTicks": 96,
            "midi": 72,
            "name": "C5",
            "ticks": 21312,
            "time": 21.483828,
            "velocity": 0.3937007874015748
          },
          {
            "duration": 0.29032199999999975,
            "durationTicks": 288,
            "midi": 70,
            "name": "A#4",
            "ticks": 21504,
            "time": 21.677376,
            "velocity": 0.3937007874015748
          },
          {
            "duration": 0.09677399999999992,
            "durationTicks": 96,
            "midi": 68,
            "name": "G#4",
            "ticks": 21792,
            "time": 21.967698,
            "velocity": 0.3937007874015748
          },
          {
            "duration": 0.09677399999999992,
            "durationTicks": 96,
            "midi": 67,
            "name": "G4",
            "ticks": 21888,
            "time": 22.064472,
            "velocity": 0.3937007874015748
          },
          {
            "duration": 0.09677399999999992,
            "durationTicks": 96,
            "midi": 68,
            "name": "G#4",
            "ticks": 22080,
            "time": 22.25802,
            "velocity": 0.3937007874015748
          },
          {
            "duration": 0.3870960000000032,
            "durationTicks": 384,
            "midi": 70,
            "name": "A#4",
            "ticks": 22272,
            "time": 22.451567999999998,
            "velocity": 0.3937007874015748
          },
          {
            "duration": 0.38709599999999966,
            "durationTicks": 384,
            "midi": 65,
            "name": "F4",
            "ticks": 22656,
            "time": 22.838664,
            "velocity": 0.3937007874015748
          },
          {
            "duration": 3.0967679999999973,
            "durationTicks": 3072,
            "midi": 53,
            "name": "F3",
            "ticks": 23040,
            "time": 23.22576,
            "velocity": 0.23622047244094488
          },
          {
            "duration": 0.09677399999999992,
            "durationTicks": 96,
            "midi": 62,
            "name": "D4",
            "ticks": 23232,
            "time": 23.419308,
            "velocity": 0.3937007874015748
          },
          {
            "duration": 0.09677399999999992,
            "durationTicks": 96,
            "midi": 63,
            "name": "D#4",
            "ticks": 23328,
            "time": 23.516082,
            "velocity": 0.3937007874015748
          },
          {
            "duration": 0.09677399999999992,
            "durationTicks": 96,
            "midi": 65,
            "name": "F4",
            "ticks": 23424,
            "time": 23.612856,
            "velocity": 0.3937007874015748
          },
          {
            "duration": 0.09677399999999992,
            "durationTicks": 96,
            "midi": 62,
            "name": "D4",
            "ticks": 23616,
            "time": 23.806404,
            "velocity": 0.3937007874015748
          },
          {
            "duration": 0.19354799999999983,
            "durationTicks": 192,
            "midi": 67,
            "name": "G4",
            "ticks": 23808,
            "time": 23.999952,
            "velocity": 0.3937007874015748
          },
          {
            "duration": 0.09677399999999992,
            "durationTicks": 96,
            "midi": 65,
            "name": "F4",
            "ticks": 24000,
            "time": 24.1935,
            "velocity": 0.3937007874015748
          },
          {
            "duration": 0.09677399999999992,
            "durationTicks": 96,
            "midi": 63,
            "name": "D#4",
            "ticks": 24192,
            "time": 24.387048,
            "velocity": 0.3937007874015748
          },
          {
            "duration": 0.09677399999999992,
            "durationTicks": 96,
            "midi": 62,
            "name": "D4",
            "ticks": 24384,
            "time": 24.580596,
            "velocity": 0.3937007874015748
          },
          {
            "duration": 0.09677399999999992,
            "durationTicks": 96,
            "midi": 62,
            "name": "D4",
            "ticks": 24576,
            "time": 24.774144,
            "velocity": 0.3937007874015748
          },
          {
            "duration": 0.09677399999999992,
            "durationTicks": 96,
            "midi": 62,
            "name": "D4",
            "ticks": 24768,
            "time": 24.967692,
            "velocity": 0.3937007874015748
          },
          {
            "duration": 0.09677399999999992,
            "durationTicks": 96,
            "midi": 63,
            "name": "D#4",
            "ticks": 24864,
            "time": 25.064466,
            "velocity": 0.3937007874015748
          },
          {
            "duration": 0.09677399999999992,
            "durationTicks": 96,
            "midi": 62,
            "name": "D4",
            "ticks": 24960,
            "time": 25.16124,
            "velocity": 0.3937007874015748
          },
          {
            "duration": 0.09677399999999992,
            "durationTicks": 96,
            "midi": 62,
            "name": "D4",
            "ticks": 25152,
            "time": 25.354788,
            "velocity": 0.3937007874015748
          },
          {
            "duration": 0.09677399999999992,
            "durationTicks": 96,
            "midi": 63,
            "name": "D#4",
            "ticks": 25248,
            "time": 25.451562,
            "velocity": 0.3937007874015748
          },
          {
            "duration": 0.09677399999999992,
            "durationTicks": 96,
            "midi": 62,
            "name": "D4",
            "ticks": 25344,
            "time": 25.548336,
            "velocity": 0.3937007874015748
          },
          {
            "duration": 0.09677399999999992,
            "durationTicks": 96,
            "midi": 62,
            "name": "D4",
            "ticks": 25536,
            "time": 25.741884,
            "velocity": 0.3937007874015748
          },
          {
            "duration": 0.09677399999999992,
            "durationTicks": 96,
            "midi": 63,
            "name": "D#4",
            "ticks": 25632,
            "time": 25.838658,
            "velocity": 0.3937007874015748
          },
          {
            "duration": 0.09677399999999992,
            "durationTicks": 96,
            "midi": 62,
            "name": "D4",
            "ticks": 25728,
            "time": 25.935432,
            "velocity": 0.3937007874015748
          },
          {
            "duration": 0.09677399999999992,
            "durationTicks": 96,
            "midi": 62,
            "name": "D4",
            "ticks": 25920,
            "time": 26.12898,
            "velocity": 0.3937007874015748
          },
          {
            "duration": 0.09677399999999992,
            "durationTicks": 96,
            "midi": 63,
            "name": "D#4",
            "ticks": 26016,
            "time": 26.225754,
            "velocity": 0.3937007874015748
          },
          {
            "duration": 0.09677399999999992,
            "durationTicks": 96,
            "midi": 62,
            "name": "D4",
            "ticks": 26112,
            "time": 26.322528,
            "velocity": 0.3937007874015748
          },
          {
            "duration": 0.09677399999999992,
            "durationTicks": 96,
            "midi": 63,
            "name": "D#4",
            "ticks": 26208,
            "time": 26.419302,
            "velocity": 0.3937007874015748
          },
          {
            "duration": 0.09677399999999992,
            "durationTicks": 96,
            "midi": 62,
            "name": "D4",
            "ticks": 26304,
            "time": 26.516075999999998,
            "velocity": 0.3937007874015748
          },
          {
            "duration": 0.09677399999999992,
            "durationTicks": 96,
            "midi": 63,
            "name": "D#4",
            "ticks": 26400,
            "time": 26.612849999999998,
            "velocity": 0.3937007874015748
          },
          {
            "duration": 0.09677399999999992,
            "durationTicks": 96,
            "midi": 62,
            "name": "D4",
            "ticks": 26496,
            "time": 26.709623999999998,
            "velocity": 0.3937007874015748
          },
          {
            "duration": 0.09677400000000347,
            "durationTicks": 96,
            "midi": 63,
            "name": "D#4",
            "ticks": 26592,
            "time": 26.806397999999998,
            "velocity": 0.3937007874015748
          },
          {
            "duration": 0.09677399999999992,
            "durationTicks": 96,
            "midi": 62,
            "name": "D4",
            "ticks": 26688,
            "time": 26.903172,
            "velocity": 0.3937007874015748
          },
          {
            "duration": 0.09677399999999992,
            "durationTicks": 96,
            "midi": 63,
            "name": "D#4",
            "ticks": 26784,
            "time": 26.999946,
            "velocity": 0.3937007874015748
          },
          {
            "duration": 0.09677399999999992,
            "durationTicks": 96,
            "midi": 62,
            "name": "D4",
            "ticks": 26880,
            "time": 27.09672,
            "velocity": 0.3937007874015748
          },
          {
            "duration": 0.09677399999999992,
            "durationTicks": 96,
            "midi": 63,
            "name": "D#4",
            "ticks": 26976,
            "time": 27.193494,
            "velocity": 0.3937007874015748
          },
          {
            "duration": 0.09677399999999992,
            "durationTicks": 96,
            "midi": 62,
            "name": "D4",
            "ticks": 27072,
            "time": 27.290268,
            "velocity": 0.3937007874015748
          },
          {
            "duration": 0.09677399999999992,
            "durationTicks": 96,
            "midi": 63,
            "name": "D#4",
            "ticks": 27168,
            "time": 27.387042,
            "velocity": 0.3937007874015748
          },
          {
            "duration": 0.09677399999999992,
            "durationTicks": 96,
            "midi": 62,
            "name": "D4",
            "ticks": 27264,
            "time": 27.483816,
            "velocity": 0.3937007874015748
          },
          {
            "duration": 0.09677399999999992,
            "durationTicks": 96,
            "midi": 63,
            "name": "D#4",
            "ticks": 27360,
            "time": 27.58059,
            "velocity": 0.3937007874015748
          },
          {
            "duration": 0.09677399999999992,
            "durationTicks": 96,
            "midi": 62,
            "name": "D4",
            "ticks": 27456,
            "time": 27.677364,
            "velocity": 0.3937007874015748
          },
          {
            "duration": 0.09677399999999992,
            "durationTicks": 96,
            "midi": 63,
            "name": "D#4",
            "ticks": 27552,
            "time": 27.774138,
            "velocity": 0.3937007874015748
          },
          {
            "duration": 0.09677399999999992,
            "durationTicks": 96,
            "midi": 67,
            "name": "G4",
            "ticks": 27648,
            "time": 27.870912,
            "velocity": 0.3937007874015748
          },
          {
            "duration": 0.09677399999999992,
            "durationTicks": 96,
            "midi": 68,
            "name": "G#4",
            "ticks": 27744,
            "time": 27.967686,
            "velocity": 0.3937007874015748
          },
          {
            "duration": 0.09677399999999992,
            "durationTicks": 96,
            "midi": 67,
            "name": "G4",
            "ticks": 27840,
            "time": 28.06446,
            "velocity": 0.3937007874015748
          },
          {
            "duration": 0.09677399999999992,
            "durationTicks": 96,
            "midi": 68,
            "name": "G#4",
            "ticks": 27936,
            "time": 28.161234,
            "velocity": 0.3937007874015748
          },
          {
            "duration": 0.09677399999999992,
            "durationTicks": 96,
            "midi": 67,
            "name": "G4",
            "ticks": 28032,
            "time": 28.258008,
            "velocity": 0.3937007874015748
          },
          {
            "duration": 0.09677399999999992,
            "durationTicks": 96,
            "midi": 68,
            "name": "G#4",
            "ticks": 28128,
            "time": 28.354782,
            "velocity": 0.3937007874015748
          },
          {
            "duration": 0.09677399999999992,
            "durationTicks": 96,
            "midi": 67,
            "name": "G4",
            "ticks": 28224,
            "time": 28.451556,
            "velocity": 0.3937007874015748
          },
          {
            "duration": 0.09677399999999992,
            "durationTicks": 96,
            "midi": 68,
            "name": "G#4",
            "ticks": 28320,
            "time": 28.54833,
            "velocity": 0.3937007874015748
          },
          {
            "duration": 0.09677399999999992,
            "durationTicks": 96,
            "midi": 67,
            "name": "G4",
            "ticks": 28416,
            "time": 28.645104,
            "velocity": 0.3937007874015748
          },
          {
            "duration": 0.09677399999999992,
            "durationTicks": 96,
            "midi": 69,
            "name": "A4",
            "ticks": 28512,
            "time": 28.741878,
            "velocity": 0.3937007874015748
          },
          {
            "duration": 0.09677399999999992,
            "durationTicks": 96,
            "midi": 71,
            "name": "B4",
            "ticks": 28608,
            "time": 28.838652,
            "velocity": 0.3937007874015748
          },
          {
            "duration": 0.09677399999999992,
            "durationTicks": 96,
            "midi": 72,
            "name": "C5",
            "ticks": 28704,
            "time": 28.935426,
            "velocity": 0.3937007874015748
          },
          {
            "duration": 0.09677399999999992,
            "durationTicks": 96,
            "midi": 74,
            "name": "D5",
            "ticks": 28800,
            "time": 29.0322,
            "velocity": 0.3937007874015748
          },
          {
            "duration": 0.09677399999999992,
            "durationTicks": 96,
            "midi": 75,
            "name": "D#5",
            "ticks": 28896,
            "time": 29.128974,
            "velocity": 0.3937007874015748
          },
          {
            "duration": 0.09677399999999992,
            "durationTicks": 96,
            "midi": 77,
            "name": "F5",
            "ticks": 28992,
            "time": 29.225748,
            "velocity": 0.3937007874015748
          },
          {
            "duration": 0.09677399999999992,
            "durationTicks": 96,
            "midi": 79,
            "name": "G5",
            "ticks": 29088,
            "time": 29.322522,
            "velocity": 0.3937007874015748
          },
          {
            "duration": 0.38709599999999966,
            "durationTicks": 384,
            "midi": 72,
            "name": "C5",
            "ticks": 29184,
            "time": 29.419296,
            "velocity": 0.3937007874015748
          },
          {
            "duration": 0.38709599999999966,
            "durationTicks": 384,
            "midi": 84,
            "name": "C6",
            "ticks": 29184,
            "time": 29.419296,
            "velocity": 0.3937007874015748
          },
          {
            "duration": 0.29032199999999975,
            "durationTicks": 288,
            "midi": 72,
            "name": "C5",
            "ticks": 29568,
            "time": 29.806392,
            "velocity": 0.3937007874015748
          },
          {
            "duration": 0.29032199999999975,
            "durationTicks": 288,
            "midi": 84,
            "name": "C6",
            "ticks": 29568,
            "time": 29.806392,
            "velocity": 0.3937007874015748
          },
          {
            "duration": 0.09677399999999992,
            "durationTicks": 96,
            "midi": 82,
            "name": "A#5",
            "ticks": 29856,
            "time": 30.096714,
            "velocity": 0.3937007874015748
          },
          {
            "duration": 0.09677399999999992,
            "durationTicks": 96,
            "midi": 70,
            "name": "A#4",
            "ticks": 29856,
            "time": 30.096714,
            "velocity": 0.3937007874015748
          },
          {
            "duration": 0.19354799999999983,
            "durationTicks": 192,
            "midi": 84,
            "name": "C6",
            "ticks": 29952,
            "time": 30.193488,
            "velocity": 0.3937007874015748
          },
          {
            "duration": 0.19354799999999983,
            "durationTicks": 192,
            "midi": 72,
            "name": "C5",
            "ticks": 29952,
            "time": 30.193488,
            "velocity": 0.3937007874015748
          },
          {
            "duration": 0.09677399999999992,
            "durationTicks": 96,
            "midi": 82,
            "name": "A#5",
            "ticks": 30144,
            "time": 30.387036,
            "velocity": 0.3937007874015748
          },
          {
            "duration": 0.09677399999999992,
            "durationTicks": 96,
            "midi": 70,
            "name": "A#4",
            "ticks": 30144,
            "time": 30.387036,
            "velocity": 0.3937007874015748
          },
          {
            "duration": 0.09677399999999992,
            "durationTicks": 96,
            "midi": 80,
            "name": "G#5",
            "ticks": 30336,
            "time": 30.580583999999998,
            "velocity": 0.3937007874015748
          },
          {
            "duration": 0.09677399999999992,
            "durationTicks": 96,
            "midi": 68,
            "name": "G#4",
            "ticks": 30336,
            "time": 30.580583999999998,
            "velocity": 0.3937007874015748
          },
          {
            "duration": 0.09677399999999992,
            "durationTicks": 96,
            "midi": 67,
            "name": "G4",
            "ticks": 30528,
            "time": 30.774131999999998,
            "velocity": 0.3937007874015748
          },
          {
            "duration": 0.09677399999999992,
            "durationTicks": 96,
            "midi": 79,
            "name": "G5",
            "ticks": 30528,
            "time": 30.774131999999998,
            "velocity": 0.3937007874015748
          },
          {
            "duration": 0.09677399999999992,
            "durationTicks": 96,
            "midi": 70,
            "name": "A#4",
            "ticks": 30720,
            "time": 30.96768,
            "velocity": 0.3937007874015748
          },
          {
            "duration": 0.09677399999999992,
            "durationTicks": 96,
            "midi": 82,
            "name": "A#5",
            "ticks": 30720,
            "time": 30.96768,
            "velocity": 0.3937007874015748
          },
          {
            "duration": 0.09677399999999992,
            "durationTicks": 96,
            "midi": 80,
            "name": "G#5",
            "ticks": 30816,
            "time": 31.064454,
            "velocity": 0.3937007874015748
          },
          {
            "duration": 0.09677399999999992,
            "durationTicks": 96,
            "midi": 68,
            "name": "G#4",
            "ticks": 30816,
            "time": 31.064454,
            "velocity": 0.3937007874015748
          },
          {
            "duration": 0.09677399999999992,
            "durationTicks": 96,
            "midi": 67,
            "name": "G4",
            "ticks": 30912,
            "time": 31.161228,
            "velocity": 0.3937007874015748
          },
          {
            "duration": 0.09677399999999992,
            "durationTicks": 96,
            "midi": 79,
            "name": "G5",
            "ticks": 30912,
            "time": 31.161228,
            "velocity": 0.3937007874015748
          },
          {
            "duration": 0.09677399999999992,
            "durationTicks": 96,
            "midi": 77,
            "name": "F5",
            "ticks": 31008,
            "time": 31.258002,
            "velocity": 0.3937007874015748
          },
          {
            "duration": 0.09677399999999992,
            "durationTicks": 96,
            "midi": 65,
            "name": "F4",
            "ticks": 31008,
            "time": 31.258002,
            "velocity": 0.3937007874015748
          },
          {
            "duration": 0.09677399999999992,
            "durationTicks": 96,
            "midi": 63,
            "name": "D#4",
            "ticks": 31104,
            "time": 31.354776,
            "velocity": 0.3937007874015748
          },
          {
            "duration": 0.09677399999999992,
            "durationTicks": 96,
            "midi": 75,
            "name": "D#5",
            "ticks": 31104,
            "time": 31.354776,
            "velocity": 0.3937007874015748
          },
          {
            "duration": 0.09677399999999992,
            "durationTicks": 96,
            "midi": 65,
            "name": "F4",
            "ticks": 31296,
            "time": 31.548324,
            "velocity": 0.3937007874015748
          },
          {
            "duration": 0.09677399999999992,
            "durationTicks": 96,
            "midi": 77,
            "name": "F5",
            "ticks": 31296,
            "time": 31.548324,
            "velocity": 0.3937007874015748
          },
          {
            "duration": 0.7741919999999993,
            "durationTicks": 768,
            "midi": 67,
            "name": "G4",
            "ticks": 31488,
            "time": 31.741872,
            "velocity": 0.3937007874015748
          },
          {
            "duration": 0.7741919999999993,
            "durationTicks": 768,
            "midi": 79,
            "name": "G5",
            "ticks": 31488,
            "time": 31.741872,
            "velocity": 0.3937007874015748
          },
          {
            "duration": 1.5483839999999987,
            "durationTicks": 1536,
            "midi": 60,
            "name": "C4",
            "ticks": 32256,
            "time": 32.516064,
            "velocity": 0.31496062992125984
          },
          {
            "duration": 0.38709599999999966,
            "durationTicks": 384,
            "midi": 82,
            "name": "A#5",
            "ticks": 32256,
            "time": 32.516064,
            "velocity": 0.3937007874015748
          },
          {
            "duration": 0.38709599999999966,
            "durationTicks": 384,
            "midi": 70,
            "name": "A#4",
            "ticks": 32256,
            "time": 32.516064,
            "velocity": 0.3937007874015748
          },
          {
            "duration": 0.2903220000000033,
            "durationTicks": 288,
            "midi": 70,
            "name": "A#4",
            "ticks": 32640,
            "time": 32.90316,
            "velocity": 0.3937007874015748
          },
          {
            "duration": 0.2903220000000033,
            "durationTicks": 288,
            "midi": 82,
            "name": "A#5",
            "ticks": 32640,
            "time": 32.90316,
            "velocity": 0.3937007874015748
          },
          {
            "duration": 0.09677399999999636,
            "durationTicks": 96,
            "midi": 80,
            "name": "G#5",
            "ticks": 32928,
            "time": 33.193482,
            "velocity": 0.3937007874015748
          },
          {
            "duration": 0.09677399999999636,
            "durationTicks": 96,
            "midi": 68,
            "name": "G#4",
            "ticks": 32928,
            "time": 33.193482,
            "velocity": 0.3937007874015748
          },
          {
            "duration": 0.19354799999999983,
            "durationTicks": 192,
            "midi": 67,
            "name": "G4",
            "ticks": 33024,
            "time": 33.290256,
            "velocity": 0.3937007874015748
          },
          {
            "duration": 0.19354799999999983,
            "durationTicks": 192,
            "midi": 79,
            "name": "G5",
            "ticks": 33024,
            "time": 33.290256,
            "velocity": 0.3937007874015748
          },
          {
            "duration": 0.09677400000000347,
            "durationTicks": 96,
            "midi": 65,
            "name": "F4",
            "ticks": 33216,
            "time": 33.483804,
            "velocity": 0.3937007874015748
          },
          {
            "duration": 0.09677400000000347,
            "durationTicks": 96,
            "midi": 77,
            "name": "F5",
            "ticks": 33216,
            "time": 33.483804,
            "velocity": 0.3937007874015748
          },
          {
            "duration": 0.09677400000000347,
            "durationTicks": 96,
            "midi": 75,
            "name": "D#5",
            "ticks": 33408,
            "time": 33.677352,
            "velocity": 0.3937007874015748
          },
          {
            "duration": 0.09677400000000347,
            "durationTicks": 96,
            "midi": 63,
            "name": "D#4",
            "ticks": 33408,
            "time": 33.677352,
            "velocity": 0.3937007874015748
          },
          {
            "duration": 0.09677400000000347,
            "durationTicks": 96,
            "midi": 65,
            "name": "F4",
            "ticks": 33600,
            "time": 33.8709,
            "velocity": 0.3937007874015748
          },
          {
            "duration": 0.09677400000000347,
            "durationTicks": 96,
            "midi": 77,
            "name": "F5",
            "ticks": 33600,
            "time": 33.8709,
            "velocity": 0.3937007874015748
          },
          {
            "duration": 0.09677400000000347,
            "durationTicks": 96,
            "midi": 79,
            "name": "G5",
            "ticks": 33792,
            "time": 34.064448,
            "velocity": 0.3937007874015748
          },
          {
            "duration": 0.19354799999999983,
            "durationTicks": 192,
            "midi": 63,
            "name": "D#4",
            "ticks": 33792,
            "time": 34.064448,
            "velocity": 0.31496062992125984
          },
          {
            "duration": 0.09677400000000347,
            "durationTicks": 96,
            "midi": 67,
            "name": "G4",
            "ticks": 33792,
            "time": 34.064448,
            "velocity": 0.3937007874015748
          },
          {
            "duration": 0.09677399999999636,
            "durationTicks": 96,
            "midi": 75,
            "name": "D#5",
            "ticks": 33888,
            "time": 34.161222,
            "velocity": 0.3937007874015748
          },
          {
            "duration": 0.2903219999999962,
            "durationTicks": 288,
            "midi": 63,
            "name": "D#4",
            "ticks": 33888,
            "time": 34.161222,
            "velocity": 0.3937007874015748
          },
          {
            "duration": 0.09677400000000347,
            "durationTicks": 96,
            "midi": 72,
            "name": "C5",
            "ticks": 33984,
            "time": 34.257996,
            "velocity": 0.3937007874015748
          },
          {
            "duration": 0.09677400000000347,
            "durationTicks": 96,
            "midi": 60,
            "name": "C4",
            "ticks": 33984,
            "time": 34.257996,
            "velocity": 0.3937007874015748
          },
          {
            "duration": 0.09677399999999636,
            "durationTicks": 96,
            "midi": 75,
            "name": "D#5",
            "ticks": 34080,
            "time": 34.35477,
            "velocity": 0.3937007874015748
          },
          {
            "duration": 0.483869999999996,
            "durationTicks": 480,
            "midi": 63,
            "name": "D#4",
            "ticks": 34080,
            "time": 34.35477,
            "velocity": 0.3937007874015748
          },
          {
            "duration": 0.09677400000000347,
            "durationTicks": 96,
            "midi": 79,
            "name": "G5",
            "ticks": 34176,
            "time": 34.451544,
            "velocity": 0.3937007874015748
          },
          {
            "duration": 0.09677400000000347,
            "durationTicks": 96,
            "midi": 67,
            "name": "G4",
            "ticks": 34176,
            "time": 34.451544,
            "velocity": 0.3937007874015748
          },
          {
            "duration": 0.09677400000000347,
            "durationTicks": 96,
            "midi": 65,
            "name": "F4",
            "ticks": 34368,
            "time": 34.645092,
            "velocity": 0.3937007874015748
          },
          {
            "duration": 0.09677400000000347,
            "durationTicks": 96,
            "midi": 77,
            "name": "F5",
            "ticks": 34368,
            "time": 34.645092,
            "velocity": 0.3937007874015748
          },
          {
            "duration": 0.7741919999999993,
            "durationTicks": 768,
            "midi": 66,
            "name": "F#4",
            "ticks": 34560,
            "time": 34.83864,
            "velocity": 0.31496062992125984
          },
          {
            "duration": 0.38709599999999966,
            "durationTicks": 384,
            "midi": 75,
            "name": "D#5",
            "ticks": 34560,
            "time": 34.83864,
            "velocity": 0.3937007874015748
          },
          {
            "duration": 0.38709599999999966,
            "durationTicks": 384,
            "midi": 63,
            "name": "D#4",
            "ticks": 34560,
            "time": 34.83864,
            "velocity": 0.3937007874015748
          },
          {
            "duration": 0.38709599999999966,
            "durationTicks": 384,
            "midi": 62,
            "name": "D4",
            "ticks": 34944,
            "time": 35.225736,
            "velocity": 0.3937007874015748
          },
          {
            "duration": 0.38709599999999966,
            "durationTicks": 384,
            "midi": 74,
            "name": "D5",
            "ticks": 34944,
            "time": 35.225736,
            "velocity": 0.3937007874015748
          },
          {
            "duration": 0.04838699999999818,
            "durationTicks": 48,
            "midi": 69,
            "name": "A4",
            "ticks": 35184,
            "time": 35.467671,
            "velocity": 0.3937007874015748
          },
          {
            "duration": 0.04838699999999818,
            "durationTicks": 48,
            "midi": 81,
            "name": "A5",
            "ticks": 35184,
            "time": 35.467671,
            "velocity": 0.3937007874015748
          },
          {
            "duration": 0.04838699999999818,
            "durationTicks": 48,
            "midi": 70,
            "name": "A#4",
            "ticks": 35232,
            "time": 35.516058,
            "velocity": 0.3937007874015748
          },
          {
            "duration": 0.04838699999999818,
            "durationTicks": 48,
            "midi": 82,
            "name": "A#5",
            "ticks": 35232,
            "time": 35.516058,
            "velocity": 0.3937007874015748
          },
          {
            "duration": 0.04838699999999818,
            "durationTicks": 48,
            "midi": 71,
            "name": "B4",
            "ticks": 35280,
            "time": 35.564445,
            "velocity": 0.3937007874015748
          },
          {
            "duration": 0.04838699999999818,
            "durationTicks": 48,
            "midi": 83,
            "name": "B5",
            "ticks": 35280,
            "time": 35.564445,
            "velocity": 0.3937007874015748
          },
          {
            "duration": 0.38709599999999966,
            "durationTicks": 384,
            "midi": 84,
            "name": "C6",
            "ticks": 35328,
            "time": 35.612832,
            "velocity": 0.3937007874015748
          },
          {
            "duration": 1.5483839999999987,
            "durationTicks": 1536,
            "midi": 63,
            "name": "D#4",
            "ticks": 35328,
            "time": 35.612832,
            "velocity": 0.31496062992125984
          },
          {
            "duration": 1.4516100000000023,
            "durationTicks": 1440,
            "midi": 67,
            "name": "G4",
            "ticks": 35328,
            "time": 35.612832,
            "velocity": 0.23622047244094488
          },
          {
            "duration": 0.38709599999999966,
            "durationTicks": 384,
            "midi": 72,
            "name": "C5",
            "ticks": 35328,
            "time": 35.612832,
            "velocity": 0.3937007874015748
          },
          {
            "duration": 1.4516100000000023,
            "durationTicks": 1440,
            "midi": 79,
            "name": "G5",
            "ticks": 35328,
            "time": 35.612832,
            "velocity": 0.23622047244094488
          },
          {
            "duration": 0.2903220000000033,
            "durationTicks": 288,
            "midi": 72,
            "name": "C5",
            "ticks": 35712,
            "time": 35.999928,
            "velocity": 0.3937007874015748
          },
          {
            "duration": 0.2903220000000033,
            "durationTicks": 288,
            "midi": 84,
            "name": "C6",
            "ticks": 35712,
            "time": 35.999928,
            "velocity": 0.3937007874015748
          },
          {
            "duration": 0.09677399999999636,
            "durationTicks": 96,
            "midi": 70,
            "name": "A#4",
            "ticks": 36000,
            "time": 36.29025,
            "velocity": 0.3937007874015748
          },
          {
            "duration": 0.09677399999999636,
            "durationTicks": 96,
            "midi": 82,
            "name": "A#5",
            "ticks": 36000,
            "time": 36.29025,
            "velocity": 0.3937007874015748
          },
          {
            "duration": 0.19354799999999983,
            "durationTicks": 192,
            "midi": 84,
            "name": "C6",
            "ticks": 36096,
            "time": 36.387024,
            "velocity": 0.3937007874015748
          },
          {
            "duration": 0.19354799999999983,
            "durationTicks": 192,
            "midi": 72,
            "name": "C5",
            "ticks": 36096,
            "time": 36.387024,
            "velocity": 0.3937007874015748
          },
          {
            "duration": 0.09677400000000347,
            "durationTicks": 96,
            "midi": 82,
            "name": "A#5",
            "ticks": 36288,
            "time": 36.580572,
            "velocity": 0.3937007874015748
          },
          {
            "duration": 0.09677400000000347,
            "durationTicks": 96,
            "midi": 70,
            "name": "A#4",
            "ticks": 36288,
            "time": 36.580572,
            "velocity": 0.3937007874015748
          },
          {
            "duration": 0.09677400000000347,
            "durationTicks": 96,
            "midi": 80,
            "name": "G#5",
            "ticks": 36480,
            "time": 36.774119999999996,
            "velocity": 0.3937007874015748
          },
          {
            "duration": 0.09677400000000347,
            "durationTicks": 96,
            "midi": 68,
            "name": "G#4",
            "ticks": 36480,
            "time": 36.774119999999996,
            "velocity": 0.3937007874015748
          },
          {
            "duration": 0.19354799999999983,
            "durationTicks": 192,
            "midi": 67,
            "name": "G4",
            "ticks": 36672,
            "time": 36.967667999999996,
            "velocity": 0.3937007874015748
          },
          {
            "duration": 0.19354799999999983,
            "durationTicks": 192,
            "midi": 79,
            "name": "G5",
            "ticks": 36672,
            "time": 36.967667999999996,
            "velocity": 0.3937007874015748
          },
          {
            "duration": 0.38709600000000677,
            "durationTicks": 384,
            "midi": 77,
            "name": "F5",
            "ticks": 36864,
            "time": 37.161215999999996,
            "velocity": 0.23622047244094488
          },
          {
            "duration": 0.09677400000000347,
            "durationTicks": 96,
            "midi": 82,
            "name": "A#5",
            "ticks": 36864,
            "time": 37.161215999999996,
            "velocity": 0.3937007874015748
          },
          {
            "duration": 0.09677400000000347,
            "durationTicks": 96,
            "midi": 70,
            "name": "A#4",
            "ticks": 36864,
            "time": 37.161215999999996,
            "velocity": 0.3937007874015748
          },
          {
            "duration": 0.09677400000000347,
            "durationTicks": 96,
            "midi": 80,
            "name": "G#5",
            "ticks": 36960,
            "time": 37.25799,
            "velocity": 0.3937007874015748
          },
          {
            "duration": 0.09677400000000347,
            "durationTicks": 96,
            "midi": 68,
            "name": "G#4",
            "ticks": 36960,
            "time": 37.25799,
            "velocity": 0.3937007874015748
          },
          {
            "duration": 0.09677399999999636,
            "durationTicks": 96,
            "midi": 79,
            "name": "G5",
            "ticks": 37056,
            "time": 37.354764,
            "velocity": 0.3937007874015748
          },
          {
            "duration": 0.09677399999999636,
            "durationTicks": 96,
            "midi": 67,
            "name": "G4",
            "ticks": 37056,
            "time": 37.354764,
            "velocity": 0.3937007874015748
          },
          {
            "duration": 0.09677400000000347,
            "durationTicks": 96,
            "midi": 65,
            "name": "F4",
            "ticks": 37152,
            "time": 37.451538,
            "velocity": 0.3937007874015748
          },
          {
            "duration": 0.38709599999999966,
            "durationTicks": 384,
            "midi": 77,
            "name": "F5",
            "ticks": 37152,
            "time": 37.451538,
            "velocity": 0.3937007874015748
          },
          {
            "duration": 0.09677399999999636,
            "durationTicks": 96,
            "midi": 63,
            "name": "D#4",
            "ticks": 37248,
            "time": 37.548312,
            "velocity": 0.3937007874015748
          },
          {
            "duration": 0.09677399999999636,
            "durationTicks": 96,
            "midi": 75,
            "name": "D#5",
            "ticks": 37248,
            "time": 37.548312,
            "velocity": 0.3937007874015748
          },
          {
            "duration": 0.9677399999999992,
            "durationTicks": 960,
            "midi": 77,
            "name": "F5",
            "ticks": 37440,
            "time": 37.74186,
            "velocity": 0.3937007874015748
          },
          {
            "duration": 0.09677399999999636,
            "durationTicks": 96,
            "midi": 65,
            "name": "F4",
            "ticks": 37440,
            "time": 37.74186,
            "velocity": 0.3937007874015748
          },
          {
            "duration": 0.6774179999999959,
            "durationTicks": 672,
            "midi": 67,
            "name": "G4",
            "ticks": 37632,
            "time": 37.935408,
            "velocity": 0.3937007874015748
          },
          {
            "duration": 0.6774179999999959,
            "durationTicks": 672,
            "midi": 79,
            "name": "G5",
            "ticks": 37632,
            "time": 37.935408,
            "velocity": 0.3937007874015748
          },
          {
            "duration": 0.14516100000000165,
            "durationTicks": 144,
            "midi": 67,
            "name": "G4",
            "ticks": 38256,
            "time": 38.564439,
            "velocity": 0.3937007874015748
          },
          {
            "duration": 0.14516100000000165,
            "durationTicks": 144,
            "midi": 79,
            "name": "G5",
            "ticks": 38256,
            "time": 38.564439,
            "velocity": 0.3937007874015748
          },
          {
            "duration": 0.04838699999999818,
            "durationTicks": 48,
            "midi": 68,
            "name": "G#4",
            "ticks": 38304,
            "time": 38.612826,
            "velocity": 0.3937007874015748
          },
          {
            "duration": 0.04838699999999818,
            "durationTicks": 48,
            "midi": 80,
            "name": "G#5",
            "ticks": 38304,
            "time": 38.612826,
            "velocity": 0.3937007874015748
          },
          {
            "duration": 0.04838700000000529,
            "durationTicks": 48,
            "midi": 81,
            "name": "A5",
            "ticks": 38352,
            "time": 38.661213,
            "velocity": 0.3937007874015748
          },
          {
            "duration": 0.04838700000000529,
            "durationTicks": 48,
            "midi": 69,
            "name": "A4",
            "ticks": 38352,
            "time": 38.661213,
            "velocity": 0.3937007874015748
          },
          {
            "duration": 0.38709599999999966,
            "durationTicks": 384,
            "midi": 82,
            "name": "A#5",
            "ticks": 38400,
            "time": 38.7096,
            "velocity": 0.3937007874015748
          },
          {
            "duration": 0.38709599999999966,
            "durationTicks": 384,
            "midi": 70,
            "name": "A#4",
            "ticks": 38400,
            "time": 38.7096,
            "velocity": 0.3937007874015748
          },
          {
            "duration": 0.2903219999999962,
            "durationTicks": 288,
            "midi": 82,
            "name": "A#5",
            "ticks": 38784,
            "time": 39.096696,
            "velocity": 0.3937007874015748
          },
          {
            "duration": 0.2903219999999962,
            "durationTicks": 288,
            "midi": 70,
            "name": "A#4",
            "ticks": 38784,
            "time": 39.096696,
            "velocity": 0.3937007874015748
          },
          {
            "duration": 0.09677400000000347,
            "durationTicks": 96,
            "midi": 80,
            "name": "G#5",
            "ticks": 39072,
            "time": 39.387018,
            "velocity": 0.3937007874015748
          },
          {
            "duration": 0.09677400000000347,
            "durationTicks": 96,
            "midi": 68,
            "name": "G#4",
            "ticks": 39072,
            "time": 39.387018,
            "velocity": 0.3937007874015748
          },
          {
            "duration": 0.19354799999999983,
            "durationTicks": 192,
            "midi": 67,
            "name": "G4",
            "ticks": 39168,
            "time": 39.483792,
            "velocity": 0.3937007874015748
          },
          {
            "duration": 0.19354799999999983,
            "durationTicks": 192,
            "midi": 79,
            "name": "G5",
            "ticks": 39168,
            "time": 39.483792,
            "velocity": 0.3937007874015748
          },
          {
            "duration": 0.09677399999999636,
            "durationTicks": 96,
            "midi": 65,
            "name": "F4",
            "ticks": 39360,
            "time": 39.67734,
            "velocity": 0.3937007874015748
          },
          {
            "duration": 0.09677399999999636,
            "durationTicks": 96,
            "midi": 77,
            "name": "F5",
            "ticks": 39360,
            "time": 39.67734,
            "velocity": 0.3937007874015748
          },
          {
            "duration": 0.09677399999999636,
            "durationTicks": 96,
            "midi": 75,
            "name": "D#5",
            "ticks": 39552,
            "time": 39.870888,
            "velocity": 0.3937007874015748
          },
          {
            "duration": 0.09677399999999636,
            "durationTicks": 96,
            "midi": 63,
            "name": "D#4",
            "ticks": 39552,
            "time": 39.870888,
            "velocity": 0.3937007874015748
          },
          {
            "duration": 0.09677399999999636,
            "durationTicks": 96,
            "midi": 65,
            "name": "F4",
            "ticks": 39744,
            "time": 40.064436,
            "velocity": 0.3937007874015748
          },
          {
            "duration": 0.09677399999999636,
            "durationTicks": 96,
            "midi": 77,
            "name": "F5",
            "ticks": 39744,
            "time": 40.064436,
            "velocity": 0.3937007874015748
          },
          {
            "duration": 0.09677399999999636,
            "durationTicks": 96,
            "midi": 67,
            "name": "G4",
            "ticks": 39936,
            "time": 40.257984,
            "velocity": 0.3937007874015748
          },
          {
            "duration": 0.09677399999999636,
            "durationTicks": 96,
            "midi": 79,
            "name": "G5",
            "ticks": 39936,
            "time": 40.257984,
            "velocity": 0.3937007874015748
          },
          {
            "duration": 0.09677400000000347,
            "durationTicks": 96,
            "midi": 75,
            "name": "D#5",
            "ticks": 40032,
            "time": 40.354758,
            "velocity": 0.3937007874015748
          },
          {
            "duration": 0.09677400000000347,
            "durationTicks": 96,
            "midi": 63,
            "name": "D#4",
            "ticks": 40032,
            "time": 40.354758,
            "velocity": 0.3937007874015748
          },
          {
            "duration": 0.09677399999999636,
            "durationTicks": 96,
            "midi": 60,
            "name": "C4",
            "ticks": 40128,
            "time": 40.451532,
            "velocity": 0.3937007874015748
          },
          {
            "duration": 0.09677399999999636,
            "durationTicks": 96,
            "midi": 72,
            "name": "C5",
            "ticks": 40128,
            "time": 40.451532,
            "velocity": 0.3937007874015748
          },
          {
            "duration": 0.09677400000000347,
            "durationTicks": 96,
            "midi": 63,
            "name": "D#4",
            "ticks": 40224,
            "time": 40.548306,
            "velocity": 0.3937007874015748
          },
          {
            "duration": 0.09677400000000347,
            "durationTicks": 96,
            "midi": 75,
            "name": "D#5",
            "ticks": 40224,
            "time": 40.548306,
            "velocity": 0.3937007874015748
          },
          {
            "duration": 0.09677399999999636,
            "durationTicks": 96,
            "midi": 79,
            "name": "G5",
            "ticks": 40320,
            "time": 40.64508,
            "velocity": 0.3937007874015748
          },
          {
            "duration": 0.09677399999999636,
            "durationTicks": 96,
            "midi": 67,
            "name": "G4",
            "ticks": 40320,
            "time": 40.64508,
            "velocity": 0.3937007874015748
          },
          {
            "duration": 0.09677399999999636,
            "durationTicks": 96,
            "midi": 65,
            "name": "F4",
            "ticks": 40512,
            "time": 40.838628,
            "velocity": 0.3937007874015748
          },
          {
            "duration": 0.09677399999999636,
            "durationTicks": 96,
            "midi": 77,
            "name": "F5",
            "ticks": 40512,
            "time": 40.838628,
            "velocity": 0.3937007874015748
          },
          {
            "duration": 0.38709599999999966,
            "durationTicks": 384,
            "midi": 75,
            "name": "D#5",
            "ticks": 40704,
            "time": 41.032176,
            "velocity": 0.3937007874015748
          },
          {
            "duration": 0.38709599999999966,
            "durationTicks": 384,
            "midi": 63,
            "name": "D#4",
            "ticks": 40704,
            "time": 41.032176,
            "velocity": 0.3937007874015748
          },
          {
            "duration": 0.38709599999999966,
            "durationTicks": 384,
            "midi": 62,
            "name": "D4",
            "ticks": 41088,
            "time": 41.419272,
            "velocity": 0.3937007874015748
          },
          {
            "duration": 0.38709599999999966,
            "durationTicks": 384,
            "midi": 74,
            "name": "D5",
            "ticks": 41088,
            "time": 41.419272,
            "velocity": 0.3937007874015748
          },
          {
            "duration": 0.09677400000000347,
            "durationTicks": 96,
            "midi": 72,
            "name": "C5",
            "ticks": 41664,
            "time": 41.999916,
            "velocity": 0.3937007874015748
          },
          {
            "duration": 0.09677400000000347,
            "durationTicks": 96,
            "midi": 60,
            "name": "C4",
            "ticks": 41664,
            "time": 41.999916,
            "velocity": 0.3937007874015748
          },
          {
            "duration": 0.09677399999999636,
            "durationTicks": 96,
            "midi": 74,
            "name": "D5",
            "ticks": 41760,
            "time": 42.09669,
            "velocity": 0.3937007874015748
          },
          {
            "duration": 0.09677399999999636,
            "durationTicks": 96,
            "midi": 62,
            "name": "D4",
            "ticks": 41760,
            "time": 42.09669,
            "velocity": 0.3937007874015748
          },
          {
            "duration": 0.09677400000000347,
            "durationTicks": 96,
            "midi": 75,
            "name": "D#5",
            "ticks": 41856,
            "time": 42.193464,
            "velocity": 0.3937007874015748
          },
          {
            "duration": 0.09677400000000347,
            "durationTicks": 96,
            "midi": 63,
            "name": "D#4",
            "ticks": 41856,
            "time": 42.193464,
            "velocity": 0.3937007874015748
          },
          {
            "duration": 0.09677400000000347,
            "durationTicks": 96,
            "midi": 60,
            "name": "C4",
            "ticks": 42048,
            "time": 42.387012,
            "velocity": 0.3937007874015748
          },
          {
            "duration": 0.09677400000000347,
            "durationTicks": 96,
            "midi": 72,
            "name": "C5",
            "ticks": 42048,
            "time": 42.387012,
            "velocity": 0.3937007874015748
          },
          {
            "duration": 0.19354799999999983,
            "durationTicks": 192,
            "midi": 77,
            "name": "F5",
            "ticks": 42240,
            "time": 42.58056,
            "velocity": 0.3937007874015748
          },
          {
            "duration": 0.19354799999999983,
            "durationTicks": 192,
            "midi": 65,
            "name": "F4",
            "ticks": 42240,
            "time": 42.58056,
            "velocity": 0.3937007874015748
          },
          {
            "duration": 0.09677400000000347,
            "durationTicks": 96,
            "midi": 75,
            "name": "D#5",
            "ticks": 42432,
            "time": 42.774108,
            "velocity": 0.3937007874015748
          },
          {
            "duration": 0.09677400000000347,
            "durationTicks": 96,
            "midi": 63,
            "name": "D#4",
            "ticks": 42432,
            "time": 42.774108,
            "velocity": 0.3937007874015748
          },
          {
            "duration": 0.09677400000000347,
            "durationTicks": 96,
            "midi": 62,
            "name": "D4",
            "ticks": 42624,
            "time": 42.967656,
            "velocity": 0.3937007874015748
          },
          {
            "duration": 0.09677400000000347,
            "durationTicks": 96,
            "midi": 74,
            "name": "D5",
            "ticks": 42624,
            "time": 42.967656,
            "velocity": 0.3937007874015748
          },
          {
            "duration": 0.09677400000000347,
            "durationTicks": 96,
            "midi": 60,
            "name": "C4",
            "ticks": 42816,
            "time": 43.161204,
            "velocity": 0.3937007874015748
          },
          {
            "duration": 0.09677400000000347,
            "durationTicks": 96,
            "midi": 72,
            "name": "C5",
            "ticks": 42816,
            "time": 43.161204,
            "velocity": 0.3937007874015748
          },
          {
            "duration": 0.2903220000000033,
            "durationTicks": 288,
            "midi": 70,
            "name": "A#4",
            "ticks": 43008,
            "time": 43.354752,
            "velocity": 0.3937007874015748
          },
          {
            "duration": 0.2903220000000033,
            "durationTicks": 288,
            "midi": 58,
            "name": "A#3",
            "ticks": 43008,
            "time": 43.354752,
            "velocity": 0.3937007874015748
          },
          {
            "duration": 0.09677399999999636,
            "durationTicks": 96,
            "midi": 68,
            "name": "G#4",
            "ticks": 43296,
            "time": 43.645074,
            "velocity": 0.3937007874015748
          },
          {
            "duration": 0.09677399999999636,
            "durationTicks": 96,
            "midi": 56,
            "name": "G#3",
            "ticks": 43296,
            "time": 43.645074,
            "velocity": 0.3937007874015748
          },
          {
            "duration": 0.09677400000000347,
            "durationTicks": 96,
            "midi": 55,
            "name": "G3",
            "ticks": 43392,
            "time": 43.741848,
            "velocity": 0.3937007874015748
          },
          {
            "duration": 0.09677400000000347,
            "durationTicks": 96,
            "midi": 67,
            "name": "G4",
            "ticks": 43392,
            "time": 43.741848,
            "velocity": 0.3937007874015748
          },
          {
            "duration": 0.09677400000000347,
            "durationTicks": 96,
            "midi": 68,
            "name": "G#4",
            "ticks": 43584,
            "time": 43.935396,
            "velocity": 0.3937007874015748
          },
          {
            "duration": 0.09677400000000347,
            "durationTicks": 96,
            "midi": 56,
            "name": "G#3",
            "ticks": 43584,
            "time": 43.935396,
            "velocity": 0.3937007874015748
          },
          {
            "duration": 0.38709599999999966,
            "durationTicks": 384,
            "midi": 58,
            "name": "A#3",
            "ticks": 43776,
            "time": 44.128944,
            "velocity": 0.3937007874015748
          },
          {
            "duration": 0.38709599999999966,
            "durationTicks": 384,
            "midi": 70,
            "name": "A#4",
            "ticks": 43776,
            "time": 44.128944,
            "velocity": 0.3937007874015748
          },
          {
            "duration": 0.38709599999999966,
            "durationTicks": 384,
            "midi": 65,
            "name": "F4",
            "ticks": 44160,
            "time": 44.51604,
            "velocity": 0.3937007874015748
          },
          {
            "duration": 0.38709599999999966,
            "durationTicks": 384,
            "midi": 53,
            "name": "F3",
            "ticks": 44160,
            "time": 44.51604,
            "velocity": 0.3937007874015748
          },
          {
            "duration": 0.09677400000000347,
            "durationTicks": 96,
            "midi": 62,
            "name": "D4",
            "ticks": 44736,
            "time": 45.096683999999996,
            "velocity": 0.3937007874015748
          },
          {
            "duration": 0.09677399999999636,
            "durationTicks": 96,
            "midi": 63,
            "name": "D#4",
            "ticks": 44832,
            "time": 45.193458,
            "velocity": 0.3937007874015748
          },
          {
            "duration": 0.09677400000000347,
            "durationTicks": 96,
            "midi": 65,
            "name": "F4",
            "ticks": 44928,
            "time": 45.290231999999996,
            "velocity": 0.3937007874015748
          },
          {
            "duration": 0.09677399999999636,
            "durationTicks": 96,
            "midi": 62,
            "name": "D4",
            "ticks": 45120,
            "time": 45.48378,
            "velocity": 0.3937007874015748
          },
          {
            "duration": 0.19354799999999983,
            "durationTicks": 192,
            "midi": 67,
            "name": "G4",
            "ticks": 45312,
            "time": 45.677328,
            "velocity": 0.3937007874015748
          },
          {
            "duration": 0.09677399999999636,
            "durationTicks": 96,
            "midi": 65,
            "name": "F4",
            "ticks": 45504,
            "time": 45.870876,
            "velocity": 0.3937007874015748
          },
          {
            "duration": 0.09677399999999636,
            "durationTicks": 96,
            "midi": 63,
            "name": "D#4",
            "ticks": 45696,
            "time": 46.064424,
            "velocity": 0.3937007874015748
          },
          {
            "duration": 0.09677399999999636,
            "durationTicks": 96,
            "midi": 62,
            "name": "D4",
            "ticks": 45888,
            "time": 46.257972,
            "velocity": 0.3937007874015748
          },
          {
            "duration": 0.38709599999999966,
            "durationTicks": 384,
            "midi": 63,
            "name": "D#4",
            "ticks": 46080,
            "time": 46.45152,
            "velocity": 0.3937007874015748
          },
          {
            "duration": 0.38709599999999966,
            "durationTicks": 384,
            "midi": 63,
            "name": "D#4",
            "ticks": 46464,
            "time": 46.838616,
            "velocity": 0.3937007874015748
          },
          {
            "duration": 0.7741919999999993,
            "durationTicks": 768,
            "midi": 62,
            "name": "D4",
            "ticks": 46848,
            "time": 47.225712,
            "velocity": 0.3937007874015748
          },
          {
            "duration": 0.09677399999999636,
            "durationTicks": 96,
            "midi": 72,
            "name": "C5",
            "ticks": 47808,
            "time": 48.193452,
            "velocity": 0.3937007874015748
          },
          {
            "duration": 0.09677399999999636,
            "durationTicks": 96,
            "midi": 60,
            "name": "C4",
            "ticks": 47808,
            "time": 48.193452,
            "velocity": 0.3937007874015748
          },
          {
            "duration": 0.09677400000000347,
            "durationTicks": 96,
            "midi": 74,
            "name": "D5",
            "ticks": 47904,
            "time": 48.290226,
            "velocity": 0.3937007874015748
          },
          {
            "duration": 0.09677400000000347,
            "durationTicks": 96,
            "midi": 62,
            "name": "D4",
            "ticks": 47904,
            "time": 48.290226,
            "velocity": 0.3937007874015748
          },
          {
            "duration": 0.09677399999999636,
            "durationTicks": 96,
            "midi": 63,
            "name": "D#4",
            "ticks": 48000,
            "time": 48.387,
            "velocity": 0.3937007874015748
          },
          {
            "duration": 0.09677399999999636,
            "durationTicks": 96,
            "midi": 75,
            "name": "D#5",
            "ticks": 48000,
            "time": 48.387,
            "velocity": 0.3937007874015748
          },
          {
            "duration": 0.09677399999999636,
            "durationTicks": 96,
            "midi": 72,
            "name": "C5",
            "ticks": 48192,
            "time": 48.580548,
            "velocity": 0.3937007874015748
          },
          {
            "duration": 0.09677399999999636,
            "durationTicks": 96,
            "midi": 60,
            "name": "C4",
            "ticks": 48192,
            "time": 48.580548,
            "velocity": 0.3937007874015748
          },
          {
            "duration": 0.19354799999999983,
            "durationTicks": 192,
            "midi": 77,
            "name": "F5",
            "ticks": 48384,
            "time": 48.774096,
            "velocity": 0.3937007874015748
          },
          {
            "duration": 0.19354799999999983,
            "durationTicks": 192,
            "midi": 65,
            "name": "F4",
            "ticks": 48384,
            "time": 48.774096,
            "velocity": 0.3937007874015748
          },
          {
            "duration": 0.09677399999999636,
            "durationTicks": 96,
            "midi": 75,
            "name": "D#5",
            "ticks": 48576,
            "time": 48.967644,
            "velocity": 0.3937007874015748
          },
          {
            "duration": 0.09677399999999636,
            "durationTicks": 96,
            "midi": 63,
            "name": "D#4",
            "ticks": 48576,
            "time": 48.967644,
            "velocity": 0.3937007874015748
          },
          {
            "duration": 0.09677399999999636,
            "durationTicks": 96,
            "midi": 62,
            "name": "D4",
            "ticks": 48768,
            "time": 49.161192,
            "velocity": 0.3937007874015748
          },
          {
            "duration": 0.09677399999999636,
            "durationTicks": 96,
            "midi": 74,
            "name": "D5",
            "ticks": 48768,
            "time": 49.161192,
            "velocity": 0.3937007874015748
          },
          {
            "duration": 0.09677399999999636,
            "durationTicks": 96,
            "midi": 72,
            "name": "C5",
            "ticks": 48960,
            "time": 49.35474,
            "velocity": 0.3937007874015748
          },
          {
            "duration": 0.09677399999999636,
            "durationTicks": 96,
            "midi": 60,
            "name": "C4",
            "ticks": 48960,
            "time": 49.35474,
            "velocity": 0.3937007874015748
          },
          {
            "duration": 0.2903220000000033,
            "durationTicks": 288,
            "midi": 58,
            "name": "A#3",
            "ticks": 49152,
            "time": 49.548288,
            "velocity": 0.3937007874015748
          },
          {
            "duration": 0.2903220000000033,
            "durationTicks": 288,
            "midi": 70,
            "name": "A#4",
            "ticks": 49152,
            "time": 49.548288,
            "velocity": 0.3937007874015748
          },
          {
            "duration": 0.09677399999999636,
            "durationTicks": 96,
            "midi": 68,
            "name": "G#4",
            "ticks": 49440,
            "time": 49.83861,
            "velocity": 0.3937007874015748
          },
          {
            "duration": 0.09677399999999636,
            "durationTicks": 96,
            "midi": 56,
            "name": "G#3",
            "ticks": 49440,
            "time": 49.83861,
            "velocity": 0.3937007874015748
          },
          {
            "duration": 0.09677400000000347,
            "durationTicks": 96,
            "midi": 55,
            "name": "G3",
            "ticks": 49536,
            "time": 49.935384,
            "velocity": 0.3937007874015748
          },
          {
            "duration": 0.09677400000000347,
            "durationTicks": 96,
            "midi": 67,
            "name": "G4",
            "ticks": 49536,
            "time": 49.935384,
            "velocity": 0.3937007874015748
          },
          {
            "duration": 0.09677400000000347,
            "durationTicks": 96,
            "midi": 56,
            "name": "G#3",
            "ticks": 49728,
            "time": 50.128932,
            "velocity": 0.3937007874015748
          },
          {
            "duration": 0.09677400000000347,
            "durationTicks": 96,
            "midi": 68,
            "name": "G#4",
            "ticks": 49728,
            "time": 50.128932,
            "velocity": 0.3937007874015748
          },
          {
            "duration": 0.38709599999999966,
            "durationTicks": 384,
            "midi": 70,
            "name": "A#4",
            "ticks": 49920,
            "time": 50.32248,
            "velocity": 0.3937007874015748
          },
          {
            "duration": 0.38709599999999966,
            "durationTicks": 384,
            "midi": 58,
            "name": "A#3",
            "ticks": 49920,
            "time": 50.32248,
            "velocity": 0.3937007874015748
          },
          {
            "duration": 0.38709599999999966,
            "durationTicks": 384,
            "midi": 65,
            "name": "F4",
            "ticks": 50304,
            "time": 50.709576,
            "velocity": 0.3937007874015748
          },
          {
            "duration": 0.38709599999999966,
            "durationTicks": 384,
            "midi": 53,
            "name": "F3",
            "ticks": 50304,
            "time": 50.709576,
            "velocity": 0.3937007874015748
          },
          {
            "duration": 0.09677400000000347,
            "durationTicks": 96,
            "midi": 62,
            "name": "D4",
            "ticks": 50880,
            "time": 51.29022,
            "velocity": 0.3937007874015748
          },
          {
            "duration": 0.09677399999999636,
            "durationTicks": 96,
            "midi": 63,
            "name": "D#4",
            "ticks": 50976,
            "time": 51.386994,
            "velocity": 0.3937007874015748
          },
          {
            "duration": 0.09677400000000347,
            "durationTicks": 96,
            "midi": 65,
            "name": "F4",
            "ticks": 51072,
            "time": 51.483768,
            "velocity": 0.3937007874015748
          },
          {
            "duration": 0.09677400000000347,
            "durationTicks": 96,
            "midi": 62,
            "name": "D4",
            "ticks": 51264,
            "time": 51.677316,
            "velocity": 0.3937007874015748
          },
          {
            "duration": 0.19354799999999983,
            "durationTicks": 192,
            "midi": 67,
            "name": "G4",
            "ticks": 51456,
            "time": 51.870864,
            "velocity": 0.3937007874015748
          },
          {
            "duration": 0.09677400000000347,
            "durationTicks": 96,
            "midi": 65,
            "name": "F4",
            "ticks": 51648,
            "time": 52.064412,
            "velocity": 0.3937007874015748
          },
          {
            "duration": 0.09677400000000347,
            "durationTicks": 96,
            "midi": 63,
            "name": "D#4",
            "ticks": 51840,
            "time": 52.25796,
            "velocity": 0.3937007874015748
          },
          {
            "duration": 0.09677400000000347,
            "durationTicks": 96,
            "midi": 62,
            "name": "D4",
            "ticks": 52032,
            "time": 52.451508,
            "velocity": 0.3937007874015748
          },
          {
            "duration": 0.09677400000000347,
            "durationTicks": 96,
            "midi": 67,
            "name": "G4",
            "ticks": 52224,
            "time": 52.645056,
            "velocity": 0.3937007874015748
          },
          {
            "duration": 0.09677399999999636,
            "durationTicks": 96,
            "midi": 68,
            "name": "G#4",
            "ticks": 52320,
            "time": 52.74183,
            "velocity": 0.3937007874015748
          },
          {
            "duration": 0.09677400000000347,
            "durationTicks": 96,
            "midi": 67,
            "name": "G4",
            "ticks": 52416,
            "time": 52.838604,
            "velocity": 0.3937007874015748
          },
          {
            "duration": 0.09677399999999636,
            "durationTicks": 96,
            "midi": 68,
            "name": "G#4",
            "ticks": 52512,
            "time": 52.935378,
            "velocity": 0.3937007874015748
          },
          {
            "duration": 0.09677400000000347,
            "durationTicks": 96,
            "midi": 67,
            "name": "G4",
            "ticks": 52608,
            "time": 53.032151999999996,
            "velocity": 0.3937007874015748
          },
          {
            "duration": 0.09677399999999636,
            "durationTicks": 96,
            "midi": 68,
            "name": "G#4",
            "ticks": 52704,
            "time": 53.128926,
            "velocity": 0.3937007874015748
          },
          {
            "duration": 0.09677400000000347,
            "durationTicks": 96,
            "midi": 67,
            "name": "G4",
            "ticks": 52800,
            "time": 53.225699999999996,
            "velocity": 0.3937007874015748
          },
          {
            "duration": 0.09677399999999636,
            "durationTicks": 96,
            "midi": 68,
            "name": "G#4",
            "ticks": 52896,
            "time": 53.322474,
            "velocity": 0.3937007874015748
          },
          {
            "duration": 0.09677400000000347,
            "durationTicks": 96,
            "midi": 67,
            "name": "G4",
            "ticks": 52992,
            "time": 53.419247999999996,
            "velocity": 0.3937007874015748
          },
          {
            "duration": 0.09677399999999636,
            "durationTicks": 96,
            "midi": 69,
            "name": "A4",
            "ticks": 53088,
            "time": 53.516022,
            "velocity": 0.3937007874015748
          },
          {
            "duration": 0.09677400000000347,
            "durationTicks": 96,
            "midi": 71,
            "name": "B4",
            "ticks": 53184,
            "time": 53.612795999999996,
            "velocity": 0.3937007874015748
          },
          {
            "duration": 0.09677400000000347,
            "durationTicks": 96,
            "midi": 72,
            "name": "C5",
            "ticks": 53280,
            "time": 53.70957,
            "velocity": 0.3937007874015748
          },
          {
            "duration": 0.38709599999999966,
            "durationTicks": 384,
            "midi": 74,
            "name": "D5",
            "ticks": 53376,
            "time": 53.806344,
            "velocity": 0.3937007874015748
          },
          {
            "duration": 0.09677399999999636,
            "durationTicks": 96,
            "midi": 72,
            "name": "C5",
            "ticks": 53760,
            "time": 54.19344,
            "velocity": 0.3937007874015748
          },
          {
            "duration": 0.09677400000000347,
            "durationTicks": 96,
            "midi": 67,
            "name": "G4",
            "ticks": 53856,
            "time": 54.290214,
            "velocity": 0.3937007874015748
          },
          {
            "duration": 0.09677399999999636,
            "durationTicks": 96,
            "midi": 63,
            "name": "D#4",
            "ticks": 53952,
            "time": 54.386988,
            "velocity": 0.3937007874015748
          },
          {
            "duration": 0.09677400000000347,
            "durationTicks": 96,
            "midi": 67,
            "name": "G4",
            "ticks": 54048,
            "time": 54.483762,
            "velocity": 0.3937007874015748
          },
          {
            "duration": 0.09677399999999636,
            "durationTicks": 96,
            "midi": 72,
            "name": "C5",
            "ticks": 54144,
            "time": 54.580536,
            "velocity": 0.3937007874015748
          },
          {
            "duration": 0.09677400000000347,
            "durationTicks": 96,
            "midi": 67,
            "name": "G4",
            "ticks": 54240,
            "time": 54.67731,
            "velocity": 0.3937007874015748
          },
          {
            "duration": 0.09677399999999636,
            "durationTicks": 96,
            "midi": 63,
            "name": "D#4",
            "ticks": 54336,
            "time": 54.774084,
            "velocity": 0.3937007874015748
          },
          {
            "duration": 0.09677400000000347,
            "durationTicks": 96,
            "midi": 67,
            "name": "G4",
            "ticks": 54432,
            "time": 54.870858,
            "velocity": 0.3937007874015748
          },
          {
            "duration": 0.09677399999999636,
            "durationTicks": 96,
            "midi": 72,
            "name": "C5",
            "ticks": 54528,
            "time": 54.967632,
            "velocity": 0.3937007874015748
          },
          {
            "duration": 0.09677400000000347,
            "durationTicks": 96,
            "midi": 67,
            "name": "G4",
            "ticks": 54624,
            "time": 55.064406,
            "velocity": 0.3937007874015748
          },
          {
            "duration": 0.09677399999999636,
            "durationTicks": 96,
            "midi": 63,
            "name": "D#4",
            "ticks": 54720,
            "time": 55.16118,
            "velocity": 0.3937007874015748
          },
          {
            "duration": 0.09677400000000347,
            "durationTicks": 96,
            "midi": 67,
            "name": "G4",
            "ticks": 54816,
            "time": 55.257954,
            "velocity": 0.3937007874015748
          },
          {
            "duration": 0.09677399999999636,
            "durationTicks": 96,
            "midi": 72,
            "name": "C5",
            "ticks": 54912,
            "time": 55.354728,
            "velocity": 0.3937007874015748
          },
          {
            "duration": 0.09677400000000347,
            "durationTicks": 96,
            "midi": 67,
            "name": "G4",
            "ticks": 55008,
            "time": 55.451502,
            "velocity": 0.3937007874015748
          },
          {
            "duration": 0.09677399999999636,
            "durationTicks": 96,
            "midi": 63,
            "name": "D#4",
            "ticks": 55104,
            "time": 55.548276,
            "velocity": 0.3937007874015748
          },
          {
            "duration": 0.09677400000000347,
            "durationTicks": 96,
            "midi": 67,
            "name": "G4",
            "ticks": 55200,
            "time": 55.64505,
            "velocity": 0.3937007874015748
          },
          {
            "duration": 0.09677399999999636,
            "durationTicks": 96,
            "midi": 70,
            "name": "A#4",
            "ticks": 55296,
            "time": 55.741824,
            "velocity": 0.3937007874015748
          },
          {
            "duration": 0.09677400000000347,
            "durationTicks": 96,
            "midi": 67,
            "name": "G4",
            "ticks": 55392,
            "time": 55.838598,
            "velocity": 0.3937007874015748
          },
          {
            "duration": 0.09677399999999636,
            "durationTicks": 96,
            "midi": 63,
            "name": "D#4",
            "ticks": 55488,
            "time": 55.935372,
            "velocity": 0.3937007874015748
          },
          {
            "duration": 0.09677400000000347,
            "durationTicks": 96,
            "midi": 67,
            "name": "G4",
            "ticks": 55584,
            "time": 56.032146,
            "velocity": 0.3937007874015748
          },
          {
            "duration": 0.09677399999999636,
            "durationTicks": 96,
            "midi": 70,
            "name": "A#4",
            "ticks": 55680,
            "time": 56.12892,
            "velocity": 0.3937007874015748
          },
          {
            "duration": 0.09677400000000347,
            "durationTicks": 96,
            "midi": 67,
            "name": "G4",
            "ticks": 55776,
            "time": 56.225694,
            "velocity": 0.3937007874015748
          },
          {
            "duration": 0.09677399999999636,
            "durationTicks": 96,
            "midi": 63,
            "name": "D#4",
            "ticks": 55872,
            "time": 56.322468,
            "velocity": 0.3937007874015748
          },
          {
            "duration": 0.09677400000000347,
            "durationTicks": 96,
            "midi": 67,
            "name": "G4",
            "ticks": 55968,
            "time": 56.419242,
            "velocity": 0.3937007874015748
          },
          {
            "duration": 0.09677399999999636,
            "durationTicks": 96,
            "midi": 70,
            "name": "A#4",
            "ticks": 56064,
            "time": 56.516016,
            "velocity": 0.3937007874015748
          },
          {
            "duration": 0.09677400000000347,
            "durationTicks": 96,
            "midi": 67,
            "name": "G4",
            "ticks": 56160,
            "time": 56.61279,
            "velocity": 0.3937007874015748
          },
          {
            "duration": 0.09677399999999636,
            "durationTicks": 96,
            "midi": 63,
            "name": "D#4",
            "ticks": 56256,
            "time": 56.709564,
            "velocity": 0.3937007874015748
          },
          {
            "duration": 0.09677400000000347,
            "durationTicks": 96,
            "midi": 67,
            "name": "G4",
            "ticks": 56352,
            "time": 56.806338,
            "velocity": 0.3937007874015748
          },
          {
            "duration": 0.09677399999999636,
            "durationTicks": 96,
            "midi": 70,
            "name": "A#4",
            "ticks": 56448,
            "time": 56.903112,
            "velocity": 0.3937007874015748
          },
          {
            "duration": 0.09677400000000347,
            "durationTicks": 96,
            "midi": 67,
            "name": "G4",
            "ticks": 56544,
            "time": 56.999886,
            "velocity": 0.3937007874015748
          },
          {
            "duration": 0.09677399999999636,
            "durationTicks": 96,
            "midi": 63,
            "name": "D#4",
            "ticks": 56640,
            "time": 57.09666,
            "velocity": 0.3937007874015748
          },
          {
            "duration": 0.09677400000000347,
            "durationTicks": 96,
            "midi": 67,
            "name": "G4",
            "ticks": 56736,
            "time": 57.193433999999996,
            "velocity": 0.3937007874015748
          },
          {
            "duration": 0.09677399999999636,
            "durationTicks": 96,
            "midi": 70,
            "name": "A#4",
            "ticks": 56832,
            "time": 57.290208,
            "velocity": 0.3937007874015748
          },
          {
            "duration": 0.09677400000000347,
            "durationTicks": 96,
            "midi": 65,
            "name": "F4",
            "ticks": 56928,
            "time": 57.386981999999996,
            "velocity": 0.3937007874015748
          },
          {
            "duration": 0.09677399999999636,
            "durationTicks": 96,
            "midi": 62,
            "name": "D4",
            "ticks": 57024,
            "time": 57.483756,
            "velocity": 0.3937007874015748
          },
          {
            "duration": 0.09677400000000347,
            "durationTicks": 96,
            "midi": 65,
            "name": "F4",
            "ticks": 57120,
            "time": 57.580529999999996,
            "velocity": 0.3937007874015748
          },
          {
            "duration": 0.09677399999999636,
            "durationTicks": 96,
            "midi": 70,
            "name": "A#4",
            "ticks": 57216,
            "time": 57.677304,
            "velocity": 0.3937007874015748
          },
          {
            "duration": 0.09677400000000347,
            "durationTicks": 96,
            "midi": 65,
            "name": "F4",
            "ticks": 57312,
            "time": 57.774077999999996,
            "velocity": 0.3937007874015748
          },
          {
            "duration": 0.09677400000000347,
            "durationTicks": 96,
            "midi": 62,
            "name": "D4",
            "ticks": 57408,
            "time": 57.870852,
            "velocity": 0.3937007874015748
          },
          {
            "duration": 0.09677399999999636,
            "durationTicks": 96,
            "midi": 65,
            "name": "F4",
            "ticks": 57504,
            "time": 57.967626,
            "velocity": 0.3937007874015748
          },
          {
            "duration": 0.09677400000000347,
            "durationTicks": 96,
            "midi": 70,
            "name": "A#4",
            "ticks": 57600,
            "time": 58.0644,
            "velocity": 0.3937007874015748
          },
          {
            "duration": 0.09677399999999636,
            "durationTicks": 96,
            "midi": 65,
            "name": "F4",
            "ticks": 57696,
            "time": 58.161174,
            "velocity": 0.3937007874015748
          },
          {
            "duration": 0.09677400000000347,
            "durationTicks": 96,
            "midi": 62,
            "name": "D4",
            "ticks": 57792,
            "time": 58.257948,
            "velocity": 0.3937007874015748
          },
          {
            "duration": 0.09677399999999636,
            "durationTicks": 96,
            "midi": 65,
            "name": "F4",
            "ticks": 57888,
            "time": 58.354722,
            "velocity": 0.3937007874015748
          },
          {
            "duration": 0.09677400000000347,
            "durationTicks": 96,
            "midi": 70,
            "name": "A#4",
            "ticks": 57984,
            "time": 58.451496,
            "velocity": 0.3937007874015748
          },
          {
            "duration": 0.09677399999999636,
            "durationTicks": 96,
            "midi": 65,
            "name": "F4",
            "ticks": 58080,
            "time": 58.54827,
            "velocity": 0.3937007874015748
          },
          {
            "duration": 0.09677400000000347,
            "durationTicks": 96,
            "midi": 62,
            "name": "D4",
            "ticks": 58176,
            "time": 58.645044,
            "velocity": 0.3937007874015748
          },
          {
            "duration": 0.09677399999999636,
            "durationTicks": 96,
            "midi": 65,
            "name": "F4",
            "ticks": 58272,
            "time": 58.741818,
            "velocity": 0.3937007874015748
          },
          {
            "duration": 0.09677400000000347,
            "durationTicks": 96,
            "midi": 72,
            "name": "C5",
            "ticks": 58368,
            "time": 58.838592,
            "velocity": 0.3937007874015748
          },
          {
            "duration": 0.09677399999999636,
            "durationTicks": 96,
            "midi": 68,
            "name": "G#4",
            "ticks": 58464,
            "time": 58.935366,
            "velocity": 0.3937007874015748
          },
          {
            "duration": 0.09677400000000347,
            "durationTicks": 96,
            "midi": 65,
            "name": "F4",
            "ticks": 58560,
            "time": 59.03214,
            "velocity": 0.3937007874015748
          },
          {
            "duration": 0.09677399999999636,
            "durationTicks": 96,
            "midi": 68,
            "name": "G#4",
            "ticks": 58656,
            "time": 59.128914,
            "velocity": 0.3937007874015748
          },
          {
            "duration": 0.09677400000000347,
            "durationTicks": 96,
            "midi": 72,
            "name": "C5",
            "ticks": 58752,
            "time": 59.225688,
            "velocity": 0.3937007874015748
          },
          {
            "duration": 0.09677399999999636,
            "durationTicks": 96,
            "midi": 68,
            "name": "G#4",
            "ticks": 58848,
            "time": 59.322462,
            "velocity": 0.3937007874015748
          },
          {
            "duration": 0.09677400000000347,
            "durationTicks": 96,
            "midi": 65,
            "name": "F4",
            "ticks": 58944,
            "time": 59.419236,
            "velocity": 0.3937007874015748
          },
          {
            "duration": 0.09677399999999636,
            "durationTicks": 96,
            "midi": 68,
            "name": "G#4",
            "ticks": 59040,
            "time": 59.51601,
            "velocity": 0.3937007874015748
          },
          {
            "duration": 0.09677400000000347,
            "durationTicks": 96,
            "midi": 72,
            "name": "C5",
            "ticks": 59136,
            "time": 59.612784,
            "velocity": 0.3937007874015748
          },
          {
            "duration": 0.09677399999999636,
            "durationTicks": 96,
            "midi": 67,
            "name": "G4",
            "ticks": 59232,
            "time": 59.709558,
            "velocity": 0.3937007874015748
          },
          {
            "duration": 0.09677400000000347,
            "durationTicks": 96,
            "midi": 63,
            "name": "D#4",
            "ticks": 59328,
            "time": 59.806332,
            "velocity": 0.3937007874015748
          },
          {
            "duration": 0.09677399999999636,
            "durationTicks": 96,
            "midi": 67,
            "name": "G4",
            "ticks": 59424,
            "time": 59.903106,
            "velocity": 0.3937007874015748
          },
          {
            "duration": 0.38709599999999966,
            "durationTicks": 384,
            "midi": 71,
            "name": "B4",
            "ticks": 59520,
            "time": 59.99988,
            "velocity": 0.3937007874015748
          },
          {
            "duration": 0.09677400000000347,
            "durationTicks": 96,
            "midi": 60,
            "name": "C4",
            "ticks": 59904,
            "time": 60.386976,
            "velocity": 0.3937007874015748
          },
          {
            "duration": 0.09677399999999636,
            "durationTicks": 96,
            "midi": 55,
            "name": "G3",
            "ticks": 60000,
            "time": 60.48375,
            "velocity": 0.3937007874015748
          },
          {
            "duration": 0.09677400000000347,
            "durationTicks": 96,
            "midi": 51,
            "name": "D#3",
            "ticks": 60096,
            "time": 60.580524,
            "velocity": 0.3937007874015748
          },
          {
            "duration": 0.09677399999999636,
            "durationTicks": 96,
            "midi": 55,
            "name": "G3",
            "ticks": 60192,
            "time": 60.677298,
            "velocity": 0.3937007874015748
          },
          {
            "duration": 0.09677400000000347,
            "durationTicks": 96,
            "midi": 60,
            "name": "C4",
            "ticks": 60288,
            "time": 60.774072,
            "velocity": 0.3937007874015748
          },
          {
            "duration": 0.09677399999999636,
            "durationTicks": 96,
            "midi": 55,
            "name": "G3",
            "ticks": 60384,
            "time": 60.870846,
            "velocity": 0.3937007874015748
          },
          {
            "duration": 0.09677400000000347,
            "durationTicks": 96,
            "midi": 51,
            "name": "D#3",
            "ticks": 60480,
            "time": 60.96762,
            "velocity": 0.3937007874015748
          },
          {
            "duration": 0.09677399999999636,
            "durationTicks": 96,
            "midi": 55,
            "name": "G3",
            "ticks": 60576,
            "time": 61.064394,
            "velocity": 0.3937007874015748
          },
          {
            "duration": 0.09677400000000347,
            "durationTicks": 96,
            "midi": 60,
            "name": "C4",
            "ticks": 60672,
            "time": 61.161167999999996,
            "velocity": 0.3937007874015748
          },
          {
            "duration": 0.09677399999999636,
            "durationTicks": 96,
            "midi": 55,
            "name": "G3",
            "ticks": 60768,
            "time": 61.257942,
            "velocity": 0.3937007874015748
          },
          {
            "duration": 0.09677400000000347,
            "durationTicks": 96,
            "midi": 51,
            "name": "D#3",
            "ticks": 60864,
            "time": 61.354715999999996,
            "velocity": 0.3937007874015748
          },
          {
            "duration": 0.09677399999999636,
            "durationTicks": 96,
            "midi": 55,
            "name": "G3",
            "ticks": 60960,
            "time": 61.45149,
            "velocity": 0.3937007874015748
          },
          {
            "duration": 0.09677400000000347,
            "durationTicks": 96,
            "midi": 60,
            "name": "C4",
            "ticks": 61056,
            "time": 61.548263999999996,
            "velocity": 0.3937007874015748
          },
          {
            "duration": 0.09677399999999636,
            "durationTicks": 96,
            "midi": 55,
            "name": "G3",
            "ticks": 61152,
            "time": 61.645038,
            "velocity": 0.3937007874015748
          },
          {
            "duration": 0.09677400000000347,
            "durationTicks": 96,
            "midi": 51,
            "name": "D#3",
            "ticks": 61248,
            "time": 61.741811999999996,
            "velocity": 0.3937007874015748
          },
          {
            "duration": 0.09677400000000347,
            "durationTicks": 96,
            "midi": 55,
            "name": "G3",
            "ticks": 61344,
            "time": 61.838586,
            "velocity": 0.3937007874015748
          },
          {
            "duration": 0.09677399999999636,
            "durationTicks": 96,
            "midi": 58,
            "name": "A#3",
            "ticks": 61440,
            "time": 61.93536,
            "velocity": 0.3937007874015748
          },
          {
            "duration": 0.09677400000000347,
            "durationTicks": 96,
            "midi": 55,
            "name": "G3",
            "ticks": 61536,
            "time": 62.032134,
            "velocity": 0.3937007874015748
          },
          {
            "duration": 0.09677399999999636,
            "durationTicks": 96,
            "midi": 51,
            "name": "D#3",
            "ticks": 61632,
            "time": 62.128908,
            "velocity": 0.3937007874015748
          },
          {
            "duration": 0.09677400000000347,
            "durationTicks": 96,
            "midi": 55,
            "name": "G3",
            "ticks": 61728,
            "time": 62.225682,
            "velocity": 0.3937007874015748
          },
          {
            "duration": 0.09677399999999636,
            "durationTicks": 96,
            "midi": 58,
            "name": "A#3",
            "ticks": 61824,
            "time": 62.322456,
            "velocity": 0.3937007874015748
          },
          {
            "duration": 0.09677400000000347,
            "durationTicks": 96,
            "midi": 55,
            "name": "G3",
            "ticks": 61920,
            "time": 62.41923,
            "velocity": 0.3937007874015748
          },
          {
            "duration": 0.09677399999999636,
            "durationTicks": 96,
            "midi": 51,
            "name": "D#3",
            "ticks": 62016,
            "time": 62.516004,
            "velocity": 0.3937007874015748
          },
          {
            "duration": 0.09677400000000347,
            "durationTicks": 96,
            "midi": 55,
            "name": "G3",
            "ticks": 62112,
            "time": 62.612778,
            "velocity": 0.3937007874015748
          },
          {
            "duration": 0.09677399999999636,
            "durationTicks": 96,
            "midi": 58,
            "name": "A#3",
            "ticks": 62208,
            "time": 62.709552,
            "velocity": 0.3937007874015748
          },
          {
            "duration": 0.09677400000000347,
            "durationTicks": 96,
            "midi": 55,
            "name": "G3",
            "ticks": 62304,
            "time": 62.806326,
            "velocity": 0.3937007874015748
          },
          {
            "duration": 0.09677399999999636,
            "durationTicks": 96,
            "midi": 51,
            "name": "D#3",
            "ticks": 62400,
            "time": 62.9031,
            "velocity": 0.3937007874015748
          },
          {
            "duration": 0.09677400000000347,
            "durationTicks": 96,
            "midi": 55,
            "name": "G3",
            "ticks": 62496,
            "time": 62.999874,
            "velocity": 0.3937007874015748
          },
          {
            "duration": 0.09677399999999636,
            "durationTicks": 96,
            "midi": 58,
            "name": "A#3",
            "ticks": 62592,
            "time": 63.096648,
            "velocity": 0.3937007874015748
          },
          {
            "duration": 0.09677400000000347,
            "durationTicks": 96,
            "midi": 55,
            "name": "G3",
            "ticks": 62688,
            "time": 63.193422,
            "velocity": 0.3937007874015748
          },
          {
            "duration": 0.09677399999999636,
            "durationTicks": 96,
            "midi": 51,
            "name": "D#3",
            "ticks": 62784,
            "time": 63.290196,
            "velocity": 0.3937007874015748
          },
          {
            "duration": 0.09677400000000347,
            "durationTicks": 96,
            "midi": 55,
            "name": "G3",
            "ticks": 62880,
            "time": 63.38697,
            "velocity": 0.3937007874015748
          },
          {
            "duration": 0.09677399999999636,
            "durationTicks": 96,
            "midi": 58,
            "name": "A#3",
            "ticks": 62976,
            "time": 63.483744,
            "velocity": 0.3937007874015748
          },
          {
            "duration": 0.09677400000000347,
            "durationTicks": 96,
            "midi": 53,
            "name": "F3",
            "ticks": 63072,
            "time": 63.580518,
            "velocity": 0.3937007874015748
          },
          {
            "duration": 0.09677399999999636,
            "durationTicks": 96,
            "midi": 50,
            "name": "D3",
            "ticks": 63168,
            "time": 63.677292,
            "velocity": 0.3937007874015748
          },
          {
            "duration": 0.09677400000000347,
            "durationTicks": 96,
            "midi": 53,
            "name": "F3",
            "ticks": 63264,
            "time": 63.774066,
            "velocity": 0.3937007874015748
          },
          {
            "duration": 0.09677399999999636,
            "durationTicks": 96,
            "midi": 58,
            "name": "A#3",
            "ticks": 63360,
            "time": 63.87084,
            "velocity": 0.3937007874015748
          },
          {
            "duration": 0.09677399999999636,
            "durationTicks": 96,
            "midi": 53,
            "name": "F3",
            "ticks": 63456,
            "time": 63.967614,
            "velocity": 0.3937007874015748
          },
          {
            "duration": 0.09677400000001057,
            "durationTicks": 96,
            "midi": 50,
            "name": "D3",
            "ticks": 63552,
            "time": 64.064388,
            "velocity": 0.3937007874015748
          },
          {
            "duration": 0.09677399999999636,
            "durationTicks": 96,
            "midi": 53,
            "name": "F3",
            "ticks": 63648,
            "time": 64.161162,
            "velocity": 0.3937007874015748
          },
          {
            "duration": 0.09677399999999636,
            "durationTicks": 96,
            "midi": 58,
            "name": "A#3",
            "ticks": 63744,
            "time": 64.257936,
            "velocity": 0.3937007874015748
          },
          {
            "duration": 0.09677399999999636,
            "durationTicks": 96,
            "midi": 53,
            "name": "F3",
            "ticks": 63840,
            "time": 64.35471,
            "velocity": 0.3937007874015748
          },
          {
            "duration": 0.09677400000001057,
            "durationTicks": 96,
            "midi": 50,
            "name": "D3",
            "ticks": 63936,
            "time": 64.451484,
            "velocity": 0.3937007874015748
          },
          {
            "duration": 0.09677399999999636,
            "durationTicks": 96,
            "midi": 53,
            "name": "F3",
            "ticks": 64032,
            "time": 64.548258,
            "velocity": 0.3937007874015748
          },
          {
            "duration": 0.09677399999999636,
            "durationTicks": 96,
            "midi": 58,
            "name": "A#3",
            "ticks": 64128,
            "time": 64.645032,
            "velocity": 0.3937007874015748
          },
          {
            "duration": 0.09677399999999636,
            "durationTicks": 96,
            "midi": 53,
            "name": "F3",
            "ticks": 64224,
            "time": 64.741806,
            "velocity": 0.3937007874015748
          },
          {
            "duration": 0.09677400000001057,
            "durationTicks": 96,
            "midi": 50,
            "name": "D3",
            "ticks": 64320,
            "time": 64.83858,
            "velocity": 0.3937007874015748
          },
          {
            "duration": 0.09677399999999636,
            "durationTicks": 96,
            "midi": 53,
            "name": "F3",
            "ticks": 64416,
            "time": 64.935354,
            "velocity": 0.3937007874015748
          },
          {
            "duration": 0.09677399999999636,
            "durationTicks": 96,
            "midi": 60,
            "name": "C4",
            "ticks": 64512,
            "time": 65.032128,
            "velocity": 0.3937007874015748
          },
          {
            "duration": 0.09677399999999636,
            "durationTicks": 96,
            "midi": 56,
            "name": "G#3",
            "ticks": 64608,
            "time": 65.128902,
            "velocity": 0.3937007874015748
          },
          {
            "duration": 0.09677400000001057,
            "durationTicks": 96,
            "midi": 53,
            "name": "F3",
            "ticks": 64704,
            "time": 65.22567599999999,
            "velocity": 0.3937007874015748
          },
          {
            "duration": 0.09677399999999636,
            "durationTicks": 96,
            "midi": 56,
            "name": "G#3",
            "ticks": 64800,
            "time": 65.32245,
            "velocity": 0.3937007874015748
          },
          {
            "duration": 0.09677399999999636,
            "durationTicks": 96,
            "midi": 60,
            "name": "C4",
            "ticks": 64896,
            "time": 65.419224,
            "velocity": 0.3937007874015748
          },
          {
            "duration": 0.09677399999999636,
            "durationTicks": 96,
            "midi": 56,
            "name": "G#3",
            "ticks": 64992,
            "time": 65.515998,
            "velocity": 0.3937007874015748
          },
          {
            "duration": 0.09677400000001057,
            "durationTicks": 96,
            "midi": 53,
            "name": "F3",
            "ticks": 65088,
            "time": 65.61277199999999,
            "velocity": 0.3937007874015748
          },
          {
            "duration": 0.09677399999999636,
            "durationTicks": 96,
            "midi": 56,
            "name": "G#3",
            "ticks": 65184,
            "time": 65.709546,
            "velocity": 0.3937007874015748
          },
          {
            "duration": 0.09677399999999636,
            "durationTicks": 96,
            "midi": 60,
            "name": "C4",
            "ticks": 65280,
            "time": 65.80632,
            "velocity": 0.3937007874015748
          },
          {
            "duration": 0.09677399999999636,
            "durationTicks": 96,
            "midi": 55,
            "name": "G3",
            "ticks": 65376,
            "time": 65.903094,
            "velocity": 0.3937007874015748
          },
          {
            "duration": 0.09677400000001057,
            "durationTicks": 96,
            "midi": 51,
            "name": "D#3",
            "ticks": 65472,
            "time": 65.99986799999999,
            "velocity": 0.3937007874015748
          },
          {
            "duration": 0.09677399999999636,
            "durationTicks": 96,
            "midi": 55,
            "name": "G3",
            "ticks": 65568,
            "time": 66.096642,
            "velocity": 0.3937007874015748
          },
          {
            "duration": 0.38709599999999966,
            "durationTicks": 384,
            "midi": 59,
            "name": "B3",
            "ticks": 65664,
            "time": 66.193416,
            "velocity": 0.3937007874015748
          },
          {
            "duration": 0.38709599999999966,
            "durationTicks": 384,
            "midi": 84,
            "name": "C6",
            "ticks": 66048,
            "time": 66.580512,
            "velocity": 0.3937007874015748
          },
          {
            "duration": 0.2903220000000033,
            "durationTicks": 288,
            "midi": 84,
            "name": "C6",
            "ticks": 66432,
            "time": 66.967608,
            "velocity": 0.3937007874015748
          },
          {
            "duration": 0.09677399999999636,
            "durationTicks": 96,
            "midi": 82,
            "name": "A#5",
            "ticks": 66720,
            "time": 67.25793,
            "velocity": 0.3937007874015748
          },
          {
            "duration": 0.19354800000000694,
            "durationTicks": 192,
            "midi": 84,
            "name": "C6",
            "ticks": 66816,
            "time": 67.354704,
            "velocity": 0.3937007874015748
          },
          {
            "duration": 0.09677399999999636,
            "durationTicks": 96,
            "midi": 82,
            "name": "A#5",
            "ticks": 67008,
            "time": 67.548252,
            "velocity": 0.3937007874015748
          },
          {
            "duration": 0.09677399999999636,
            "durationTicks": 96,
            "midi": 80,
            "name": "G#5",
            "ticks": 67200,
            "time": 67.7418,
            "velocity": 0.3937007874015748
          },
          {
            "duration": 0.09677399999999636,
            "durationTicks": 96,
            "midi": 79,
            "name": "G5",
            "ticks": 67392,
            "time": 67.935348,
            "velocity": 0.3937007874015748
          },
          {
            "duration": 0.09677399999999636,
            "durationTicks": 96,
            "midi": 82,
            "name": "A#5",
            "ticks": 67584,
            "time": 68.128896,
            "velocity": 0.3937007874015748
          },
          {
            "duration": 0.09677400000001057,
            "durationTicks": 96,
            "midi": 80,
            "name": "G#5",
            "ticks": 67680,
            "time": 68.22567,
            "velocity": 0.3937007874015748
          },
          {
            "duration": 0.09677399999999636,
            "durationTicks": 96,
            "midi": 79,
            "name": "G5",
            "ticks": 67776,
            "time": 68.322444,
            "velocity": 0.3937007874015748
          },
          {
            "duration": 0.09677399999999636,
            "durationTicks": 96,
            "midi": 77,
            "name": "F5",
            "ticks": 67872,
            "time": 68.419218,
            "velocity": 0.3937007874015748
          },
          {
            "duration": 0.09677399999999636,
            "durationTicks": 96,
            "midi": 75,
            "name": "D#5",
            "ticks": 67968,
            "time": 68.515992,
            "velocity": 0.3937007874015748
          },
          {
            "duration": 0.09677399999999636,
            "durationTicks": 96,
            "midi": 77,
            "name": "F5",
            "ticks": 68160,
            "time": 68.70954,
            "velocity": 0.3937007874015748
          },
          {
            "duration": 0.7741919999999993,
            "durationTicks": 768,
            "midi": 79,
            "name": "G5",
            "ticks": 68352,
            "time": 68.903088,
            "velocity": 0.3937007874015748
          },
          {
            "duration": 0.09677399999999636,
            "durationTicks": 96,
            "midi": 94,
            "name": "A#6",
            "ticks": 68544,
            "time": 69.096636,
            "velocity": 0.3937007874015748
          },
          {
            "duration": 0.09677399999999636,
            "durationTicks": 96,
            "midi": 91,
            "name": "G6",
            "ticks": 68736,
            "time": 69.290184,
            "velocity": 0.3937007874015748
          },
          {
            "duration": 0.38709599999999966,
            "durationTicks": 384,
            "midi": 82,
            "name": "A#5",
            "ticks": 69120,
            "time": 69.67728,
            "velocity": 0.3937007874015748
          },
          {
            "duration": 0.2903220000000033,
            "durationTicks": 288,
            "midi": 82,
            "name": "A#5",
            "ticks": 69504,
            "time": 70.064376,
            "velocity": 0.3937007874015748
          },
          {
            "duration": 0.09677399999999636,
            "durationTicks": 96,
            "midi": 80,
            "name": "G#5",
            "ticks": 69792,
            "time": 70.354698,
            "velocity": 0.3937007874015748
          },
          {
            "duration": 0.19354800000000694,
            "durationTicks": 192,
            "midi": 79,
            "name": "G5",
            "ticks": 69888,
            "time": 70.451472,
            "velocity": 0.3937007874015748
          },
          {
            "duration": 0.09677399999999636,
            "durationTicks": 96,
            "midi": 77,
            "name": "F5",
            "ticks": 70080,
            "time": 70.64502,
            "velocity": 0.3937007874015748
          },
          {
            "duration": 0.09677400000001057,
            "durationTicks": 96,
            "midi": 75,
            "name": "D#5",
            "ticks": 70272,
            "time": 70.838568,
            "velocity": 0.3937007874015748
          },
          {
            "duration": 0.09677399999999636,
            "durationTicks": 96,
            "midi": 77,
            "name": "F5",
            "ticks": 70464,
            "time": 71.032116,
            "velocity": 0.3937007874015748
          },
          {
            "duration": 0.09677400000001057,
            "durationTicks": 96,
            "midi": 79,
            "name": "G5",
            "ticks": 70656,
            "time": 71.225664,
            "velocity": 0.3937007874015748
          },
          {
            "duration": 0.09677399999999636,
            "durationTicks": 96,
            "midi": 75,
            "name": "D#5",
            "ticks": 70752,
            "time": 71.322438,
            "velocity": 0.3937007874015748
          },
          {
            "duration": 0.09677399999999636,
            "durationTicks": 96,
            "midi": 72,
            "name": "C5",
            "ticks": 70848,
            "time": 71.419212,
            "velocity": 0.3937007874015748
          },
          {
            "duration": 0.09677399999999636,
            "durationTicks": 96,
            "midi": 75,
            "name": "D#5",
            "ticks": 70944,
            "time": 71.515986,
            "velocity": 0.3937007874015748
          },
          {
            "duration": 0.09677400000001057,
            "durationTicks": 96,
            "midi": 79,
            "name": "G5",
            "ticks": 71040,
            "time": 71.61276,
            "velocity": 0.3937007874015748
          },
          {
            "duration": 0.09677399999999636,
            "durationTicks": 96,
            "midi": 77,
            "name": "F5",
            "ticks": 71232,
            "time": 71.806308,
            "velocity": 0.3937007874015748
          },
          {
            "duration": 0.38709599999999966,
            "durationTicks": 384,
            "midi": 75,
            "name": "D#5",
            "ticks": 71424,
            "time": 71.999856,
            "velocity": 0.3937007874015748
          },
          {
            "duration": 0.38709599999999966,
            "durationTicks": 384,
            "midi": 74,
            "name": "D5",
            "ticks": 71808,
            "time": 72.386952,
            "velocity": 0.3937007874015748
          },
          {
            "duration": 0.048386999999991076,
            "durationTicks": 48,
            "midi": 81,
            "name": "A5",
            "ticks": 72048,
            "time": 72.628887,
            "velocity": 0.3937007874015748
          },
          {
            "duration": 0.04838700000000529,
            "durationTicks": 48,
            "midi": 82,
            "name": "A#5",
            "ticks": 72096,
            "time": 72.677274,
            "velocity": 0.3937007874015748
          },
          {
            "duration": 0.048386999999991076,
            "durationTicks": 48,
            "midi": 83,
            "name": "B5",
            "ticks": 72144,
            "time": 72.725661,
            "velocity": 0.3937007874015748
          },
          {
            "duration": 0.38709599999999966,
            "durationTicks": 384,
            "midi": 84,
            "name": "C6",
            "ticks": 72192,
            "time": 72.774048,
            "velocity": 0.3937007874015748
          },
          {
            "duration": 0.2903220000000033,
            "durationTicks": 288,
            "midi": 84,
            "name": "C6",
            "ticks": 72576,
            "time": 73.161144,
            "velocity": 0.3937007874015748
          },
          {
            "duration": 0.09677399999999636,
            "durationTicks": 96,
            "midi": 82,
            "name": "A#5",
            "ticks": 72864,
            "time": 73.451466,
            "velocity": 0.3937007874015748
          },
          {
            "duration": 0.19354800000000694,
            "durationTicks": 192,
            "midi": 84,
            "name": "C6",
            "ticks": 72960,
            "time": 73.54823999999999,
            "velocity": 0.3937007874015748
          },
          {
            "duration": 0.09677399999999636,
            "durationTicks": 96,
            "midi": 82,
            "name": "A#5",
            "ticks": 73152,
            "time": 73.741788,
            "velocity": 0.3937007874015748
          },
          {
            "duration": 0.09677400000001057,
            "durationTicks": 96,
            "midi": 80,
            "name": "G#5",
            "ticks": 73344,
            "time": 73.93533599999999,
            "velocity": 0.3937007874015748
          },
          {
            "duration": 0.09677399999999636,
            "durationTicks": 96,
            "midi": 79,
            "name": "G5",
            "ticks": 73536,
            "time": 74.128884,
            "velocity": 0.3937007874015748
          },
          {
            "duration": 0.09677400000001057,
            "durationTicks": 96,
            "midi": 82,
            "name": "A#5",
            "ticks": 73728,
            "time": 74.32243199999999,
            "velocity": 0.3937007874015748
          },
          {
            "duration": 0.09677399999999636,
            "durationTicks": 96,
            "midi": 80,
            "name": "G#5",
            "ticks": 73824,
            "time": 74.419206,
            "velocity": 0.3937007874015748
          },
          {
            "duration": 0.09677399999999636,
            "durationTicks": 96,
            "midi": 79,
            "name": "G5",
            "ticks": 73920,
            "time": 74.51598,
            "velocity": 0.3937007874015748
          },
          {
            "duration": 0.09677400000001057,
            "durationTicks": 96,
            "midi": 77,
            "name": "F5",
            "ticks": 74016,
            "time": 74.612754,
            "velocity": 0.3937007874015748
          },
          {
            "duration": 0.09677399999999636,
            "durationTicks": 96,
            "midi": 75,
            "name": "D#5",
            "ticks": 74112,
            "time": 74.709528,
            "velocity": 0.3937007874015748
          },
          {
            "duration": 0.09677399999999636,
            "durationTicks": 96,
            "midi": 77,
            "name": "F5",
            "ticks": 74304,
            "time": 74.903076,
            "velocity": 0.3937007874015748
          },
          {
            "duration": 0.7741919999999993,
            "durationTicks": 768,
            "midi": 79,
            "name": "G5",
            "ticks": 74496,
            "time": 75.096624,
            "velocity": 0.3937007874015748
          },
          {
            "duration": 0.09677399999999636,
            "durationTicks": 96,
            "midi": 91,
            "name": "G6",
            "ticks": 74688,
            "time": 75.290172,
            "velocity": 0.3937007874015748
          },
          {
            "duration": 0.09677399999999636,
            "durationTicks": 96,
            "midi": 94,
            "name": "A#6",
            "ticks": 74880,
            "time": 75.48372,
            "velocity": 0.3937007874015748
          },
          {
            "duration": 0.38709599999999966,
            "durationTicks": 384,
            "midi": 82,
            "name": "A#5",
            "ticks": 75264,
            "time": 75.870816,
            "velocity": 0.3937007874015748
          },
          {
            "duration": 0.2903219999999891,
            "durationTicks": 288,
            "midi": 82,
            "name": "A#5",
            "ticks": 75648,
            "time": 76.257912,
            "velocity": 0.3937007874015748
          },
          {
            "duration": 0.09677400000001057,
            "durationTicks": 96,
            "midi": 80,
            "name": "G#5",
            "ticks": 75936,
            "time": 76.548234,
            "velocity": 0.3937007874015748
          },
          {
            "duration": 0.19354799999999273,
            "durationTicks": 192,
            "midi": 79,
            "name": "G5",
            "ticks": 76032,
            "time": 76.645008,
            "velocity": 0.3937007874015748
          },
          {
            "duration": 0.09677399999999636,
            "durationTicks": 96,
            "midi": 77,
            "name": "F5",
            "ticks": 76224,
            "time": 76.838556,
            "velocity": 0.3937007874015748
          },
          {
            "duration": 0.09677399999999636,
            "durationTicks": 96,
            "midi": 75,
            "name": "D#5",
            "ticks": 76416,
            "time": 77.032104,
            "velocity": 0.3937007874015748
          },
          {
            "duration": 0.09677399999999636,
            "durationTicks": 96,
            "midi": 77,
            "name": "F5",
            "ticks": 76608,
            "time": 77.225652,
            "velocity": 0.3937007874015748
          },
          {
            "duration": 0.09677399999999636,
            "durationTicks": 96,
            "midi": 79,
            "name": "G5",
            "ticks": 76800,
            "time": 77.4192,
            "velocity": 0.3937007874015748
          },
          {
            "duration": 0.09677399999999636,
            "durationTicks": 96,
            "midi": 75,
            "name": "D#5",
            "ticks": 76896,
            "time": 77.515974,
            "velocity": 0.3937007874015748
          },
          {
            "duration": 0.09677399999999636,
            "durationTicks": 96,
            "midi": 72,
            "name": "C5",
            "ticks": 76992,
            "time": 77.612748,
            "velocity": 0.3937007874015748
          },
          {
            "duration": 0.09677400000001057,
            "durationTicks": 96,
            "midi": 75,
            "name": "D#5",
            "ticks": 77088,
            "time": 77.70952199999999,
            "velocity": 0.3937007874015748
          },
          {
            "duration": 0.09677399999999636,
            "durationTicks": 96,
            "midi": 79,
            "name": "G5",
            "ticks": 77184,
            "time": 77.806296,
            "velocity": 0.3937007874015748
          },
          {
            "duration": 0.09677399999999636,
            "durationTicks": 96,
            "midi": 77,
            "name": "F5",
            "ticks": 77376,
            "time": 77.999844,
            "velocity": 0.3937007874015748
          },
          {
            "duration": 0.38709599999999966,
            "durationTicks": 384,
            "midi": 75,
            "name": "D#5",
            "ticks": 77568,
            "time": 78.193392,
            "velocity": 0.3937007874015748
          },
          {
            "duration": 0.38709599999999966,
            "durationTicks": 384,
            "midi": 74,
            "name": "D5",
            "ticks": 77952,
            "time": 78.580488,
            "velocity": 0.3937007874015748
          },
          {
            "duration": 0.09677400000001057,
            "durationTicks": 96,
            "midi": 72,
            "name": "C5",
            "ticks": 78528,
            "time": 79.161132,
            "velocity": 0.3937007874015748
          },
          {
            "duration": 0.09677399999999636,
            "durationTicks": 96,
            "midi": 74,
            "name": "D5",
            "ticks": 78624,
            "time": 79.257906,
            "velocity": 0.3937007874015748
          },
          {
            "duration": 0.09677399999999636,
            "durationTicks": 96,
            "midi": 75,
            "name": "D#5",
            "ticks": 78720,
            "time": 79.35468,
            "velocity": 0.3937007874015748
          },
          {
            "duration": 0.09677400000001057,
            "durationTicks": 96,
            "midi": 72,
            "name": "C5",
            "ticks": 78912,
            "time": 79.548228,
            "velocity": 0.3937007874015748
          },
          {
            "duration": 0.19354799999999273,
            "durationTicks": 192,
            "midi": 77,
            "name": "F5",
            "ticks": 79104,
            "time": 79.741776,
            "velocity": 0.3937007874015748
          },
          {
            "duration": 0.09677400000001057,
            "durationTicks": 96,
            "midi": 75,
            "name": "D#5",
            "ticks": 79296,
            "time": 79.935324,
            "velocity": 0.3937007874015748
          },
          {
            "duration": 0.09677399999999636,
            "durationTicks": 96,
            "midi": 74,
            "name": "D5",
            "ticks": 79488,
            "time": 80.128872,
            "velocity": 0.3937007874015748
          },
          {
            "duration": 0.09677400000001057,
            "durationTicks": 96,
            "midi": 72,
            "name": "C5",
            "ticks": 79680,
            "time": 80.32242,
            "velocity": 0.3937007874015748
          },
          {
            "duration": 0.2903220000000033,
            "durationTicks": 288,
            "midi": 70,
            "name": "A#4",
            "ticks": 79872,
            "time": 80.515968,
            "velocity": 0.3937007874015748
          },
          {
            "duration": 0.09677399999999636,
            "durationTicks": 96,
            "midi": 68,
            "name": "G#4",
            "ticks": 80160,
            "time": 80.80629,
            "velocity": 0.3937007874015748
          },
          {
            "duration": 0.09677399999999636,
            "durationTicks": 96,
            "midi": 67,
            "name": "G4",
            "ticks": 80256,
            "time": 80.903064,
            "velocity": 0.3937007874015748
          },
          {
            "duration": 0.09677400000001057,
            "durationTicks": 96,
            "midi": 68,
            "name": "G#4",
            "ticks": 80448,
            "time": 81.096612,
            "velocity": 0.3937007874015748
          },
          {
            "duration": 0.38709599999999966,
            "durationTicks": 384,
            "midi": 70,
            "name": "A#4",
            "ticks": 80640,
            "time": 81.29016,
            "velocity": 0.3937007874015748
          },
          {
            "duration": 0.38709599999999966,
            "durationTicks": 384,
            "midi": 65,
            "name": "F4",
            "ticks": 81024,
            "time": 81.677256,
            "velocity": 0.3937007874015748
          },
          {
            "duration": 0.09677400000001057,
            "durationTicks": 96,
            "midi": 62,
            "name": "D4",
            "ticks": 81600,
            "time": 82.25789999999999,
            "velocity": 0.3937007874015748
          },
          {
            "duration": 0.09677399999999636,
            "durationTicks": 96,
            "midi": 63,
            "name": "D#4",
            "ticks": 81696,
            "time": 82.354674,
            "velocity": 0.3937007874015748
          },
          {
            "duration": 0.09677399999999636,
            "durationTicks": 96,
            "midi": 65,
            "name": "F4",
            "ticks": 81792,
            "time": 82.451448,
            "velocity": 0.3937007874015748
          },
          {
            "duration": 0.09677399999999636,
            "durationTicks": 96,
            "midi": 62,
            "name": "D4",
            "ticks": 81984,
            "time": 82.644996,
            "velocity": 0.3937007874015748
          },
          {
            "duration": 0.19354800000000694,
            "durationTicks": 192,
            "midi": 67,
            "name": "G4",
            "ticks": 82176,
            "time": 82.838544,
            "velocity": 0.3937007874015748
          },
          {
            "duration": 0.09677399999999636,
            "durationTicks": 96,
            "midi": 65,
            "name": "F4",
            "ticks": 82368,
            "time": 83.032092,
            "velocity": 0.3937007874015748
          },
          {
            "duration": 0.09677399999999636,
            "durationTicks": 96,
            "midi": 63,
            "name": "D#4",
            "ticks": 82560,
            "time": 83.22564,
            "velocity": 0.3937007874015748
          },
          {
            "duration": 0.09677399999999636,
            "durationTicks": 96,
            "midi": 62,
            "name": "D4",
            "ticks": 82752,
            "time": 83.419188,
            "velocity": 0.3937007874015748
          },
          {
            "duration": 0.38709599999999966,
            "durationTicks": 384,
            "midi": 63,
            "name": "D#4",
            "ticks": 82944,
            "time": 83.612736,
            "velocity": 0.3937007874015748
          },
          {
            "duration": 0.38709599999999966,
            "durationTicks": 384,
            "midi": 63,
            "name": "D#4",
            "ticks": 83328,
            "time": 83.999832,
            "velocity": 0.3937007874015748
          },
          {
            "duration": 0.7741919999999993,
            "durationTicks": 768,
            "midi": 62,
            "name": "D4",
            "ticks": 83712,
            "time": 84.386928,
            "velocity": 0.3937007874015748
          },
          {
            "duration": 0.09677399999999636,
            "durationTicks": 96,
            "midi": 60,
            "name": "C4",
            "ticks": 84288,
            "time": 84.967572,
            "velocity": 0.3937007874015748
          },
          {
            "duration": 0.09677399999999636,
            "durationTicks": 96,
            "midi": 62,
            "name": "D4",
            "ticks": 84384,
            "time": 85.064346,
            "velocity": 0.3937007874015748
          },
          {
            "duration": 0.09677399999999636,
            "durationTicks": 96,
            "midi": 63,
            "name": "D#4",
            "ticks": 84480,
            "time": 85.16112,
            "velocity": 0.3937007874015748
          },
          {
            "duration": 0.09677400000001057,
            "durationTicks": 96,
            "midi": 67,
            "name": "G4",
            "ticks": 84576,
            "time": 85.257894,
            "velocity": 0.3937007874015748
          },
          {
            "duration": 0.09677399999999636,
            "durationTicks": 96,
            "midi": 72,
            "name": "C5",
            "ticks": 84672,
            "time": 85.354668,
            "velocity": 0.3937007874015748
          },
          {
            "duration": 0.09677399999999636,
            "durationTicks": 96,
            "midi": 74,
            "name": "D5",
            "ticks": 84768,
            "time": 85.451442,
            "velocity": 0.3937007874015748
          },
          {
            "duration": 0.09677399999999636,
            "durationTicks": 96,
            "midi": 75,
            "name": "D#5",
            "ticks": 84864,
            "time": 85.548216,
            "velocity": 0.3937007874015748
          },
          {
            "duration": 0.09677399999999636,
            "durationTicks": 96,
            "midi": 72,
            "name": "C5",
            "ticks": 85056,
            "time": 85.741764,
            "velocity": 0.3937007874015748
          },
          {
            "duration": 0.19354800000000694,
            "durationTicks": 192,
            "midi": 77,
            "name": "F5",
            "ticks": 85248,
            "time": 85.935312,
            "velocity": 0.3937007874015748
          },
          {
            "duration": 0.09677399999999636,
            "durationTicks": 96,
            "midi": 75,
            "name": "D#5",
            "ticks": 85440,
            "time": 86.12886,
            "velocity": 0.3937007874015748
          },
          {
            "duration": 0.09677399999999636,
            "durationTicks": 96,
            "midi": 74,
            "name": "D5",
            "ticks": 85632,
            "time": 86.322408,
            "velocity": 0.3937007874015748
          },
          {
            "duration": 0.09677399999999636,
            "durationTicks": 96,
            "midi": 72,
            "name": "C5",
            "ticks": 85824,
            "time": 86.515956,
            "velocity": 0.3937007874015748
          },
          {
            "duration": 0.09677400000001057,
            "durationTicks": 96,
            "midi": 70,
            "name": "A#4",
            "ticks": 86016,
            "time": 86.709504,
            "velocity": 0.3937007874015748
          },
          {
            "duration": 0.09677399999999636,
            "durationTicks": 96,
            "midi": 68,
            "name": "G#4",
            "ticks": 86112,
            "time": 86.806278,
            "velocity": 0.3937007874015748
          },
          {
            "duration": 0.09677399999999636,
            "durationTicks": 96,
            "midi": 67,
            "name": "G4",
            "ticks": 86208,
            "time": 86.903052,
            "velocity": 0.3937007874015748
          },
          {
            "duration": 0.09677399999999636,
            "durationTicks": 96,
            "midi": 68,
            "name": "G#4",
            "ticks": 86304,
            "time": 86.999826,
            "velocity": 0.3937007874015748
          },
          {
            "duration": 0.09677400000001057,
            "durationTicks": 96,
            "midi": 70,
            "name": "A#4",
            "ticks": 86400,
            "time": 87.0966,
            "velocity": 0.3937007874015748
          },
          {
            "duration": 0.09677399999999636,
            "durationTicks": 96,
            "midi": 68,
            "name": "G#4",
            "ticks": 86592,
            "time": 87.290148,
            "velocity": 0.3937007874015748
          },
          {
            "duration": 0.38709599999999966,
            "durationTicks": 384,
            "midi": 67,
            "name": "G4",
            "ticks": 86784,
            "time": 87.483696,
            "velocity": 0.3937007874015748
          },
          {
            "duration": 0.38709599999999966,
            "durationTicks": 384,
            "midi": 63,
            "name": "D#4",
            "ticks": 87168,
            "time": 87.870792,
            "velocity": 0.3937007874015748
          },
          {
            "duration": 0.09677399999999636,
            "durationTicks": 96,
            "midi": 62,
            "name": "D4",
            "ticks": 87744,
            "time": 88.451436,
            "velocity": 0.3937007874015748
          },
          {
            "duration": 0.09677399999999636,
            "durationTicks": 96,
            "midi": 63,
            "name": "D#4",
            "ticks": 87840,
            "time": 88.54821,
            "velocity": 0.3937007874015748
          },
          {
            "duration": 0.09677400000001057,
            "durationTicks": 96,
            "midi": 65,
            "name": "F4",
            "ticks": 87936,
            "time": 88.644984,
            "velocity": 0.3937007874015748
          },
          {
            "duration": 0.09677399999999636,
            "durationTicks": 96,
            "midi": 62,
            "name": "D4",
            "ticks": 88128,
            "time": 88.838532,
            "velocity": 0.3937007874015748
          },
          {
            "duration": 0.19354800000000694,
            "durationTicks": 192,
            "midi": 67,
            "name": "G4",
            "ticks": 88320,
            "time": 89.03208,
            "velocity": 0.3937007874015748
          },
          {
            "duration": 0.09677399999999636,
            "durationTicks": 96,
            "midi": 65,
            "name": "F4",
            "ticks": 88512,
            "time": 89.225628,
            "velocity": 0.3937007874015748
          },
          {
            "duration": 0.09677400000001057,
            "durationTicks": 96,
            "midi": 63,
            "name": "D#4",
            "ticks": 88704,
            "time": 89.419176,
            "velocity": 0.3937007874015748
          },
          {
            "duration": 0.09677399999999636,
            "durationTicks": 96,
            "midi": 62,
            "name": "D4",
            "ticks": 88896,
            "time": 89.612724,
            "velocity": 0.3937007874015748
          },
          {
            "duration": 0.09677400000001057,
            "durationTicks": 96,
            "midi": 62,
            "name": "D4",
            "ticks": 89088,
            "time": 89.80627199999999,
            "velocity": 0.3937007874015748
          },
          {
            "duration": 0.09677399999999636,
            "durationTicks": 96,
            "midi": 62,
            "name": "D4",
            "ticks": 89280,
            "time": 89.99982,
            "velocity": 0.3937007874015748
          },
          {
            "duration": 0.09677399999999636,
            "durationTicks": 96,
            "midi": 63,
            "name": "D#4",
            "ticks": 89376,
            "time": 90.096594,
            "velocity": 0.3937007874015748
          },
          {
            "duration": 0.09677400000001057,
            "durationTicks": 96,
            "midi": 62,
            "name": "D4",
            "ticks": 89472,
            "time": 90.19336799999999,
            "velocity": 0.3937007874015748
          },
          {
            "duration": 0.09677399999999636,
            "durationTicks": 96,
            "midi": 62,
            "name": "D4",
            "ticks": 89664,
            "time": 90.386916,
            "velocity": 0.3937007874015748
          },
          {
            "duration": 0.09677399999999636,
            "durationTicks": 96,
            "midi": 63,
            "name": "D#4",
            "ticks": 89760,
            "time": 90.48369,
            "velocity": 0.3937007874015748
          },
          {
            "duration": 0.09677400000001057,
            "durationTicks": 96,
            "midi": 62,
            "name": "D4",
            "ticks": 89856,
            "time": 90.58046399999999,
            "velocity": 0.3937007874015748
          },
          {
            "duration": 0.09677399999999636,
            "durationTicks": 96,
            "midi": 62,
            "name": "D4",
            "ticks": 90048,
            "time": 90.774012,
            "velocity": 0.3937007874015748
          },
          {
            "duration": 0.09677400000001057,
            "durationTicks": 96,
            "midi": 63,
            "name": "D#4",
            "ticks": 90144,
            "time": 90.870786,
            "velocity": 0.3937007874015748
          },
          {
            "duration": 0.09677399999999636,
            "durationTicks": 96,
            "midi": 62,
            "name": "D4",
            "ticks": 90240,
            "time": 90.96756,
            "velocity": 0.3937007874015748
          },
          {
            "duration": 0.09677399999999636,
            "durationTicks": 96,
            "midi": 62,
            "name": "D4",
            "ticks": 90432,
            "time": 91.161108,
            "velocity": 0.3937007874015748
          },
          {
            "duration": 0.09677400000001057,
            "durationTicks": 96,
            "midi": 63,
            "name": "D#4",
            "ticks": 90528,
            "time": 91.257882,
            "velocity": 0.3937007874015748
          },
          {
            "duration": 0.09677399999999636,
            "durationTicks": 96,
            "midi": 62,
            "name": "D4",
            "ticks": 90624,
            "time": 91.354656,
            "velocity": 0.3937007874015748
          },
          {
            "duration": 0.09677399999999636,
            "durationTicks": 96,
            "midi": 63,
            "name": "D#4",
            "ticks": 90720,
            "time": 91.45143,
            "velocity": 0.3937007874015748
          },
          {
            "duration": 0.09677399999999636,
            "durationTicks": 96,
            "midi": 62,
            "name": "D4",
            "ticks": 90816,
            "time": 91.548204,
            "velocity": 0.3937007874015748
          },
          {
            "duration": 0.09677400000001057,
            "durationTicks": 96,
            "midi": 63,
            "name": "D#4",
            "ticks": 90912,
            "time": 91.644978,
            "velocity": 0.3937007874015748
          },
          {
            "duration": 0.09677399999999636,
            "durationTicks": 96,
            "midi": 62,
            "name": "D4",
            "ticks": 91008,
            "time": 91.741752,
            "velocity": 0.3937007874015748
          },
          {
            "duration": 0.09677399999999636,
            "durationTicks": 96,
            "midi": 63,
            "name": "D#4",
            "ticks": 91104,
            "time": 91.838526,
            "velocity": 0.3937007874015748
          },
          {
            "duration": 0.09677399999999636,
            "durationTicks": 96,
            "midi": 62,
            "name": "D4",
            "ticks": 91200,
            "time": 91.9353,
            "velocity": 0.3937007874015748
          },
          {
            "duration": 0.09677400000001057,
            "durationTicks": 96,
            "midi": 63,
            "name": "D#4",
            "ticks": 91296,
            "time": 92.032074,
            "velocity": 0.3937007874015748
          },
          {
            "duration": 0.09677399999999636,
            "durationTicks": 96,
            "midi": 62,
            "name": "D4",
            "ticks": 91392,
            "time": 92.128848,
            "velocity": 0.3937007874015748
          },
          {
            "duration": 0.09677399999999636,
            "durationTicks": 96,
            "midi": 63,
            "name": "D#4",
            "ticks": 91488,
            "time": 92.225622,
            "velocity": 0.3937007874015748
          },
          {
            "duration": 0.09677399999999636,
            "durationTicks": 96,
            "midi": 62,
            "name": "D4",
            "ticks": 91584,
            "time": 92.322396,
            "velocity": 0.3937007874015748
          },
          {
            "duration": 0.09677400000001057,
            "durationTicks": 96,
            "midi": 63,
            "name": "D#4",
            "ticks": 91680,
            "time": 92.41917,
            "velocity": 0.3937007874015748
          },
          {
            "duration": 0.09677399999999636,
            "durationTicks": 96,
            "midi": 62,
            "name": "D4",
            "ticks": 91776,
            "time": 92.515944,
            "velocity": 0.3937007874015748
          },
          {
            "duration": 0.09677399999999636,
            "durationTicks": 96,
            "midi": 63,
            "name": "D#4",
            "ticks": 91872,
            "time": 92.612718,
            "velocity": 0.3937007874015748
          },
          {
            "duration": 0.09677399999999636,
            "durationTicks": 96,
            "midi": 62,
            "name": "D4",
            "ticks": 91968,
            "time": 92.709492,
            "velocity": 0.3937007874015748
          },
          {
            "duration": 0.09677400000001057,
            "durationTicks": 96,
            "midi": 63,
            "name": "D#4",
            "ticks": 92064,
            "time": 92.806266,
            "velocity": 0.3937007874015748
          },
          {
            "duration": 0.09677399999999636,
            "durationTicks": 96,
            "midi": 67,
            "name": "G4",
            "ticks": 92160,
            "time": 92.90304,
            "velocity": 0.3937007874015748
          },
          {
            "duration": 0.09677399999999636,
            "durationTicks": 96,
            "midi": 68,
            "name": "G#4",
            "ticks": 92256,
            "time": 92.999814,
            "velocity": 0.3937007874015748
          },
          {
            "duration": 0.09677399999999636,
            "durationTicks": 96,
            "midi": 67,
            "name": "G4",
            "ticks": 92352,
            "time": 93.096588,
            "velocity": 0.3937007874015748
          },
          {
            "duration": 0.09677400000001057,
            "durationTicks": 96,
            "midi": 68,
            "name": "G#4",
            "ticks": 92448,
            "time": 93.193362,
            "velocity": 0.3937007874015748
          },
          {
            "duration": 0.09677399999999636,
            "durationTicks": 96,
            "midi": 67,
            "name": "G4",
            "ticks": 92544,
            "time": 93.290136,
            "velocity": 0.3937007874015748
          },
          {
            "duration": 0.09677399999999636,
            "durationTicks": 96,
            "midi": 68,
            "name": "G#4",
            "ticks": 92640,
            "time": 93.38691,
            "velocity": 0.3937007874015748
          },
          {
            "duration": 0.09677399999999636,
            "durationTicks": 96,
            "midi": 67,
            "name": "G4",
            "ticks": 92736,
            "time": 93.483684,
            "velocity": 0.3937007874015748
          },
          {
            "duration": 0.09677400000001057,
            "durationTicks": 96,
            "midi": 68,
            "name": "G#4",
            "ticks": 92832,
            "time": 93.580458,
            "velocity": 0.3937007874015748
          },
          {
            "duration": 0.09677399999999636,
            "durationTicks": 96,
            "midi": 67,
            "name": "G4",
            "ticks": 92928,
            "time": 93.677232,
            "velocity": 0.3937007874015748
          },
          {
            "duration": 0.09677399999999636,
            "durationTicks": 96,
            "midi": 69,
            "name": "A4",
            "ticks": 93024,
            "time": 93.774006,
            "velocity": 0.3937007874015748
          },
          {
            "duration": 0.09677399999999636,
            "durationTicks": 96,
            "midi": 71,
            "name": "B4",
            "ticks": 93120,
            "time": 93.87078,
            "velocity": 0.3937007874015748
          },
          {
            "duration": 0.09677400000001057,
            "durationTicks": 96,
            "midi": 72,
            "name": "C5",
            "ticks": 93216,
            "time": 93.96755399999999,
            "velocity": 0.3937007874015748
          },
          {
            "duration": 0.09677399999999636,
            "durationTicks": 96,
            "midi": 74,
            "name": "D5",
            "ticks": 93312,
            "time": 94.064328,
            "velocity": 0.3937007874015748
          },
          {
            "duration": 0.09677399999999636,
            "durationTicks": 96,
            "midi": 75,
            "name": "D#5",
            "ticks": 93408,
            "time": 94.161102,
            "velocity": 0.3937007874015748
          },
          {
            "duration": 0.09677399999999636,
            "durationTicks": 96,
            "midi": 77,
            "name": "F5",
            "ticks": 93504,
            "time": 94.257876,
            "velocity": 0.3937007874015748
          },
          {
            "duration": 0.09677400000001057,
            "durationTicks": 96,
            "midi": 79,
            "name": "G5",
            "ticks": 93600,
            "time": 94.35464999999999,
            "velocity": 0.3937007874015748
          },
          {
            "duration": 0.38709599999999966,
            "durationTicks": 384,
            "midi": 72,
            "name": "C5",
            "ticks": 93696,
            "time": 94.451424,
            "velocity": 0.3937007874015748
          },
          {
            "duration": 0.38709599999999966,
            "durationTicks": 384,
            "midi": 84,
            "name": "C6",
            "ticks": 93696,
            "time": 94.451424,
            "velocity": 0.3937007874015748
          },
          {
            "duration": 0.2903220000000033,
            "durationTicks": 288,
            "midi": 84,
            "name": "C6",
            "ticks": 94080,
            "time": 94.83852,
            "velocity": 0.3937007874015748
          },
          {
            "duration": 0.2903220000000033,
            "durationTicks": 288,
            "midi": 72,
            "name": "C5",
            "ticks": 94080,
            "time": 94.83852,
            "velocity": 0.3937007874015748
          },
          {
            "duration": 0.09677399999999636,
            "durationTicks": 96,
            "midi": 82,
            "name": "A#5",
            "ticks": 94368,
            "time": 95.128842,
            "velocity": 0.3937007874015748
          },
          {
            "duration": 0.09677399999999636,
            "durationTicks": 96,
            "midi": 70,
            "name": "A#4",
            "ticks": 94368,
            "time": 95.128842,
            "velocity": 0.3937007874015748
          },
          {
            "duration": 0.19354799999999273,
            "durationTicks": 192,
            "midi": 84,
            "name": "C6",
            "ticks": 94464,
            "time": 95.225616,
            "velocity": 0.3937007874015748
          },
          {
            "duration": 0.19354799999999273,
            "durationTicks": 192,
            "midi": 72,
            "name": "C5",
            "ticks": 94464,
            "time": 95.225616,
            "velocity": 0.3937007874015748
          },
          {
            "duration": 0.09677400000001057,
            "durationTicks": 96,
            "midi": 82,
            "name": "A#5",
            "ticks": 94656,
            "time": 95.419164,
            "velocity": 0.3937007874015748
          },
          {
            "duration": 0.09677400000001057,
            "durationTicks": 96,
            "midi": 70,
            "name": "A#4",
            "ticks": 94656,
            "time": 95.419164,
            "velocity": 0.3937007874015748
          },
          {
            "duration": 0.09677399999999636,
            "durationTicks": 96,
            "midi": 80,
            "name": "G#5",
            "ticks": 94848,
            "time": 95.612712,
            "velocity": 0.3937007874015748
          },
          {
            "duration": 0.09677399999999636,
            "durationTicks": 96,
            "midi": 68,
            "name": "G#4",
            "ticks": 94848,
            "time": 95.612712,
            "velocity": 0.3937007874015748
          },
          {
            "duration": 0.09677400000001057,
            "durationTicks": 96,
            "midi": 67,
            "name": "G4",
            "ticks": 95040,
            "time": 95.80626,
            "velocity": 0.3937007874015748
          },
          {
            "duration": 0.09677400000001057,
            "durationTicks": 96,
            "midi": 79,
            "name": "G5",
            "ticks": 95040,
            "time": 95.80626,
            "velocity": 0.3937007874015748
          },
          {
            "duration": 0.09677399999999636,
            "durationTicks": 96,
            "midi": 70,
            "name": "A#4",
            "ticks": 95232,
            "time": 95.999808,
            "velocity": 0.3937007874015748
          },
          {
            "duration": 0.09677399999999636,
            "durationTicks": 96,
            "midi": 82,
            "name": "A#5",
            "ticks": 95232,
            "time": 95.999808,
            "velocity": 0.3937007874015748
          },
          {
            "duration": 0.09677399999999636,
            "durationTicks": 96,
            "midi": 80,
            "name": "G#5",
            "ticks": 95328,
            "time": 96.096582,
            "velocity": 0.3937007874015748
          },
          {
            "duration": 0.09677399999999636,
            "durationTicks": 96,
            "midi": 68,
            "name": "G#4",
            "ticks": 95328,
            "time": 96.096582,
            "velocity": 0.3937007874015748
          },
          {
            "duration": 0.09677400000001057,
            "durationTicks": 96,
            "midi": 67,
            "name": "G4",
            "ticks": 95424,
            "time": 96.193356,
            "velocity": 0.3937007874015748
          },
          {
            "duration": 0.09677400000001057,
            "durationTicks": 96,
            "midi": 79,
            "name": "G5",
            "ticks": 95424,
            "time": 96.193356,
            "velocity": 0.3937007874015748
          },
          {
            "duration": 0.09677399999999636,
            "durationTicks": 96,
            "midi": 77,
            "name": "F5",
            "ticks": 95520,
            "time": 96.29013,
            "velocity": 0.3937007874015748
          },
          {
            "duration": 0.09677399999999636,
            "durationTicks": 96,
            "midi": 65,
            "name": "F4",
            "ticks": 95520,
            "time": 96.29013,
            "velocity": 0.3937007874015748
          },
          {
            "duration": 0.09677399999999636,
            "durationTicks": 96,
            "midi": 63,
            "name": "D#4",
            "ticks": 95616,
            "time": 96.386904,
            "velocity": 0.3937007874015748
          },
          {
            "duration": 0.09677399999999636,
            "durationTicks": 96,
            "midi": 75,
            "name": "D#5",
            "ticks": 95616,
            "time": 96.386904,
            "velocity": 0.3937007874015748
          },
          {
            "duration": 0.09677400000001057,
            "durationTicks": 96,
            "midi": 77,
            "name": "F5",
            "ticks": 95808,
            "time": 96.580452,
            "velocity": 0.3937007874015748
          },
          {
            "duration": 0.09677400000001057,
            "durationTicks": 96,
            "midi": 65,
            "name": "F4",
            "ticks": 95808,
            "time": 96.580452,
            "velocity": 0.3937007874015748
          },
          {
            "duration": 0.7741919999999993,
            "durationTicks": 768,
            "midi": 67,
            "name": "G4",
            "ticks": 96000,
            "time": 96.774,
            "velocity": 0.3937007874015748
          },
          {
            "duration": 0.7741919999999993,
            "durationTicks": 768,
            "midi": 79,
            "name": "G5",
            "ticks": 96000,
            "time": 96.774,
            "velocity": 0.3937007874015748
          },
          {
            "duration": 0.38709599999999966,
            "durationTicks": 384,
            "midi": 82,
            "name": "A#5",
            "ticks": 96768,
            "time": 97.548192,
            "velocity": 0.3937007874015748
          },
          {
            "duration": 0.38709599999999966,
            "durationTicks": 384,
            "midi": 70,
            "name": "A#4",
            "ticks": 96768,
            "time": 97.548192,
            "velocity": 0.3937007874015748
          },
          {
            "duration": 0.2903220000000033,
            "durationTicks": 288,
            "midi": 82,
            "name": "A#5",
            "ticks": 97152,
            "time": 97.935288,
            "velocity": 0.3937007874015748
          },
          {
            "duration": 0.2903220000000033,
            "durationTicks": 288,
            "midi": 70,
            "name": "A#4",
            "ticks": 97152,
            "time": 97.935288,
            "velocity": 0.3937007874015748
          },
          {
            "duration": 0.09677399999999636,
            "durationTicks": 96,
            "midi": 68,
            "name": "G#4",
            "ticks": 97440,
            "time": 98.22561,
            "velocity": 0.3937007874015748
          },
          {
            "duration": 0.09677399999999636,
            "durationTicks": 96,
            "midi": 80,
            "name": "G#5",
            "ticks": 97440,
            "time": 98.22561,
            "velocity": 0.3937007874015748
          },
          {
            "duration": 0.19354799999999273,
            "durationTicks": 192,
            "midi": 79,
            "name": "G5",
            "ticks": 97536,
            "time": 98.322384,
            "velocity": 0.3937007874015748
          },
          {
            "duration": 0.19354799999999273,
            "durationTicks": 192,
            "midi": 67,
            "name": "G4",
            "ticks": 97536,
            "time": 98.322384,
            "velocity": 0.3937007874015748
          },
          {
            "duration": 0.09677400000001057,
            "durationTicks": 96,
            "midi": 65,
            "name": "F4",
            "ticks": 97728,
            "time": 98.51593199999999,
            "velocity": 0.3937007874015748
          },
          {
            "duration": 0.09677400000001057,
            "durationTicks": 96,
            "midi": 77,
            "name": "F5",
            "ticks": 97728,
            "time": 98.51593199999999,
            "velocity": 0.3937007874015748
          },
          {
            "duration": 0.09677399999999636,
            "durationTicks": 96,
            "midi": 75,
            "name": "D#5",
            "ticks": 97920,
            "time": 98.70948,
            "velocity": 0.3937007874015748
          },
          {
            "duration": 0.09677399999999636,
            "durationTicks": 96,
            "midi": 63,
            "name": "D#4",
            "ticks": 97920,
            "time": 98.70948,
            "velocity": 0.3937007874015748
          },
          {
            "duration": 0.09677400000001057,
            "durationTicks": 96,
            "midi": 65,
            "name": "F4",
            "ticks": 98112,
            "time": 98.90302799999999,
            "velocity": 0.3937007874015748
          },
          {
            "duration": 0.09677400000001057,
            "durationTicks": 96,
            "midi": 77,
            "name": "F5",
            "ticks": 98112,
            "time": 98.90302799999999,
            "velocity": 0.3937007874015748
          },
          {
            "duration": 0.09677399999999636,
            "durationTicks": 96,
            "midi": 67,
            "name": "G4",
            "ticks": 98304,
            "time": 99.096576,
            "velocity": 0.3937007874015748
          },
          {
            "duration": 0.09677399999999636,
            "durationTicks": 96,
            "midi": 79,
            "name": "G5",
            "ticks": 98304,
            "time": 99.096576,
            "velocity": 0.3937007874015748
          },
          {
            "duration": 0.09677400000001057,
            "durationTicks": 96,
            "midi": 75,
            "name": "D#5",
            "ticks": 98400,
            "time": 99.19335,
            "velocity": 0.3937007874015748
          },
          {
            "duration": 0.09677400000001057,
            "durationTicks": 96,
            "midi": 63,
            "name": "D#4",
            "ticks": 98400,
            "time": 99.19335,
            "velocity": 0.3937007874015748
          },
          {
            "duration": 0.09677399999999636,
            "durationTicks": 96,
            "midi": 60,
            "name": "C4",
            "ticks": 98496,
            "time": 99.290124,
            "velocity": 0.3937007874015748
          },
          {
            "duration": 0.09677399999999636,
            "durationTicks": 96,
            "midi": 72,
            "name": "C5",
            "ticks": 98496,
            "time": 99.290124,
            "velocity": 0.3937007874015748
          },
          {
            "duration": 0.09677399999999636,
            "durationTicks": 96,
            "midi": 75,
            "name": "D#5",
            "ticks": 98592,
            "time": 99.386898,
            "velocity": 0.3937007874015748
          },
          {
            "duration": 0.09677399999999636,
            "durationTicks": 96,
            "midi": 63,
            "name": "D#4",
            "ticks": 98592,
            "time": 99.386898,
            "velocity": 0.3937007874015748
          },
          {
            "duration": 0.09677399999999636,
            "durationTicks": 96,
            "midi": 67,
            "name": "G4",
            "ticks": 98688,
            "time": 99.483672,
            "velocity": 0.3937007874015748
          },
          {
            "duration": 0.09677399999999636,
            "durationTicks": 96,
            "midi": 79,
            "name": "G5",
            "ticks": 98688,
            "time": 99.483672,
            "velocity": 0.3937007874015748
          },
          {
            "duration": 0.09677399999999636,
            "durationTicks": 96,
            "midi": 65,
            "name": "F4",
            "ticks": 98880,
            "time": 99.67722,
            "velocity": 0.3937007874015748
          },
          {
            "duration": 0.09677399999999636,
            "durationTicks": 96,
            "midi": 77,
            "name": "F5",
            "ticks": 98880,
            "time": 99.67722,
            "velocity": 0.3937007874015748
          },
          {
            "duration": 0.38709599999999966,
            "durationTicks": 384,
            "midi": 63,
            "name": "D#4",
            "ticks": 99072,
            "time": 99.870768,
            "velocity": 0.3937007874015748
          },
          {
            "duration": 0.38709599999999966,
            "durationTicks": 384,
            "midi": 75,
            "name": "D#5",
            "ticks": 99072,
            "time": 99.870768,
            "velocity": 0.3937007874015748
          },
          {
            "duration": 0.38709599999999966,
            "durationTicks": 384,
            "midi": 74,
            "name": "D5",
            "ticks": 99456,
            "time": 100.257864,
            "velocity": 0.3937007874015748
          },
          {
            "duration": 0.38709599999999966,
            "durationTicks": 384,
            "midi": 62,
            "name": "D4",
            "ticks": 99456,
            "time": 100.257864,
            "velocity": 0.3937007874015748
          },
          {
            "duration": 0.04838700000000529,
            "durationTicks": 48,
            "midi": 81,
            "name": "A5",
            "ticks": 99696,
            "time": 100.499799,
            "velocity": 0.3937007874015748
          },
          {
            "duration": 0.04838700000000529,
            "durationTicks": 48,
            "midi": 69,
            "name": "A4",
            "ticks": 99696,
            "time": 100.499799,
            "velocity": 0.3937007874015748
          },
          {
            "duration": 0.048386999999991076,
            "durationTicks": 48,
            "midi": 82,
            "name": "A#5",
            "ticks": 99744,
            "time": 100.548186,
            "velocity": 0.3937007874015748
          },
          {
            "duration": 0.048386999999991076,
            "durationTicks": 48,
            "midi": 70,
            "name": "A#4",
            "ticks": 99744,
            "time": 100.548186,
            "velocity": 0.3937007874015748
          },
          {
            "duration": 0.04838700000000529,
            "durationTicks": 48,
            "midi": 83,
            "name": "B5",
            "ticks": 99792,
            "time": 100.59657299999999,
            "velocity": 0.3937007874015748
          },
          {
            "duration": 0.04838700000000529,
            "durationTicks": 48,
            "midi": 71,
            "name": "B4",
            "ticks": 99792,
            "time": 100.59657299999999,
            "velocity": 0.3937007874015748
          },
          {
            "duration": 0.38709599999999966,
            "durationTicks": 384,
            "midi": 72,
            "name": "C5",
            "ticks": 99840,
            "time": 100.64496,
            "velocity": 0.3937007874015748
          },
          {
            "duration": 0.38709599999999966,
            "durationTicks": 384,
            "midi": 84,
            "name": "C6",
            "ticks": 99840,
            "time": 100.64496,
            "velocity": 0.3937007874015748
          },
          {
            "duration": 0.2903220000000033,
            "durationTicks": 288,
            "midi": 84,
            "name": "C6",
            "ticks": 100224,
            "time": 101.032056,
            "velocity": 0.3937007874015748
          },
          {
            "duration": 0.2903220000000033,
            "durationTicks": 288,
            "midi": 72,
            "name": "C5",
            "ticks": 100224,
            "time": 101.032056,
            "velocity": 0.3937007874015748
          },
          {
            "duration": 0.09677399999999636,
            "durationTicks": 96,
            "midi": 70,
            "name": "A#4",
            "ticks": 100512,
            "time": 101.322378,
            "velocity": 0.3937007874015748
          },
          {
            "duration": 0.09677399999999636,
            "durationTicks": 96,
            "midi": 82,
            "name": "A#5",
            "ticks": 100512,
            "time": 101.322378,
            "velocity": 0.3937007874015748
          },
          {
            "duration": 0.19354800000000694,
            "durationTicks": 192,
            "midi": 84,
            "name": "C6",
            "ticks": 100608,
            "time": 101.419152,
            "velocity": 0.3937007874015748
          },
          {
            "duration": 0.19354800000000694,
            "durationTicks": 192,
            "midi": 72,
            "name": "C5",
            "ticks": 100608,
            "time": 101.419152,
            "velocity": 0.3937007874015748
          },
          {
            "duration": 0.09677399999999636,
            "durationTicks": 96,
            "midi": 82,
            "name": "A#5",
            "ticks": 100800,
            "time": 101.6127,
            "velocity": 0.3937007874015748
          },
          {
            "duration": 0.09677399999999636,
            "durationTicks": 96,
            "midi": 70,
            "name": "A#4",
            "ticks": 100800,
            "time": 101.6127,
            "velocity": 0.3937007874015748
          },
          {
            "duration": 0.09677399999999636,
            "durationTicks": 96,
            "midi": 80,
            "name": "G#5",
            "ticks": 100992,
            "time": 101.806248,
            "velocity": 0.3937007874015748
          },
          {
            "duration": 0.09677399999999636,
            "durationTicks": 96,
            "midi": 68,
            "name": "G#4",
            "ticks": 100992,
            "time": 101.806248,
            "velocity": 0.3937007874015748
          },
          {
            "duration": 0.09677399999999636,
            "durationTicks": 96,
            "midi": 79,
            "name": "G5",
            "ticks": 101184,
            "time": 101.999796,
            "velocity": 0.3937007874015748
          },
          {
            "duration": 0.09677399999999636,
            "durationTicks": 96,
            "midi": 67,
            "name": "G4",
            "ticks": 101184,
            "time": 101.999796,
            "velocity": 0.3937007874015748
          },
          {
            "duration": 0.09677399999999636,
            "durationTicks": 96,
            "midi": 82,
            "name": "A#5",
            "ticks": 101376,
            "time": 102.193344,
            "velocity": 0.3937007874015748
          },
          {
            "duration": 0.09677399999999636,
            "durationTicks": 96,
            "midi": 70,
            "name": "A#4",
            "ticks": 101376,
            "time": 102.193344,
            "velocity": 0.3937007874015748
          },
          {
            "duration": 0.09677400000001057,
            "durationTicks": 96,
            "midi": 68,
            "name": "G#4",
            "ticks": 101472,
            "time": 102.29011799999999,
            "velocity": 0.3937007874015748
          },
          {
            "duration": 0.09677400000001057,
            "durationTicks": 96,
            "midi": 80,
            "name": "G#5",
            "ticks": 101472,
            "time": 102.29011799999999,
            "velocity": 0.3937007874015748
          },
          {
            "duration": 0.09677399999999636,
            "durationTicks": 96,
            "midi": 67,
            "name": "G4",
            "ticks": 101568,
            "time": 102.386892,
            "velocity": 0.3937007874015748
          },
          {
            "duration": 0.09677399999999636,
            "durationTicks": 96,
            "midi": 79,
            "name": "G5",
            "ticks": 101568,
            "time": 102.386892,
            "velocity": 0.3937007874015748
          },
          {
            "duration": 0.09677399999999636,
            "durationTicks": 96,
            "midi": 65,
            "name": "F4",
            "ticks": 101664,
            "time": 102.483666,
            "velocity": 0.3937007874015748
          },
          {
            "duration": 0.09677399999999636,
            "durationTicks": 96,
            "midi": 77,
            "name": "F5",
            "ticks": 101664,
            "time": 102.483666,
            "velocity": 0.3937007874015748
          },
          {
            "duration": 0.09677399999999636,
            "durationTicks": 96,
            "midi": 75,
            "name": "D#5",
            "ticks": 101760,
            "time": 102.58044,
            "velocity": 0.3937007874015748
          },
          {
            "duration": 0.09677399999999636,
            "durationTicks": 96,
            "midi": 63,
            "name": "D#4",
            "ticks": 101760,
            "time": 102.58044,
            "velocity": 0.3937007874015748
          },
          {
            "duration": 0.09677399999999636,
            "durationTicks": 96,
            "midi": 65,
            "name": "F4",
            "ticks": 101952,
            "time": 102.773988,
            "velocity": 0.3937007874015748
          },
          {
            "duration": 0.09677399999999636,
            "durationTicks": 96,
            "midi": 77,
            "name": "F5",
            "ticks": 101952,
            "time": 102.773988,
            "velocity": 0.3937007874015748
          },
          {
            "duration": 0.677418000000003,
            "durationTicks": 672,
            "midi": 67,
            "name": "G4",
            "ticks": 102144,
            "time": 102.967536,
            "velocity": 0.3937007874015748
          },
          {
            "duration": 0.677418000000003,
            "durationTicks": 672,
            "midi": 79,
            "name": "G5",
            "ticks": 102144,
            "time": 102.967536,
            "velocity": 0.3937007874015748
          },
          {
            "duration": 0.14516100000000165,
            "durationTicks": 144,
            "midi": 67,
            "name": "G4",
            "ticks": 102768,
            "time": 103.596567,
            "velocity": 0.3937007874015748
          },
          {
            "duration": 0.14516100000000165,
            "durationTicks": 144,
            "midi": 79,
            "name": "G5",
            "ticks": 102768,
            "time": 103.596567,
            "velocity": 0.3937007874015748
          },
          {
            "duration": 0.04838700000000529,
            "durationTicks": 48,
            "midi": 80,
            "name": "G#5",
            "ticks": 102816,
            "time": 103.644954,
            "velocity": 0.3937007874015748
          },
          {
            "duration": 0.04838700000000529,
            "durationTicks": 48,
            "midi": 68,
            "name": "G#4",
            "ticks": 102816,
            "time": 103.644954,
            "velocity": 0.3937007874015748
          },
          {
            "duration": 0.048386999999991076,
            "durationTicks": 48,
            "midi": 69,
            "name": "A4",
            "ticks": 102864,
            "time": 103.693341,
            "velocity": 0.3937007874015748
          },
          {
            "duration": 0.048386999999991076,
            "durationTicks": 48,
            "midi": 81,
            "name": "A5",
            "ticks": 102864,
            "time": 103.693341,
            "velocity": 0.3937007874015748
          },
          {
            "duration": 0.38709599999999966,
            "durationTicks": 384,
            "midi": 70,
            "name": "A#4",
            "ticks": 102912,
            "time": 103.741728,
            "velocity": 0.3937007874015748
          },
          {
            "duration": 0.38709599999999966,
            "durationTicks": 384,
            "midi": 82,
            "name": "A#5",
            "ticks": 102912,
            "time": 103.741728,
            "velocity": 0.3937007874015748
          },
          {
            "duration": 0.2903220000000033,
            "durationTicks": 288,
            "midi": 82,
            "name": "A#5",
            "ticks": 103296,
            "time": 104.128824,
            "velocity": 0.3937007874015748
          },
          {
            "duration": 0.2903220000000033,
            "durationTicks": 288,
            "midi": 70,
            "name": "A#4",
            "ticks": 103296,
            "time": 104.128824,
            "velocity": 0.3937007874015748
          },
          {
            "duration": 0.09677399999999636,
            "durationTicks": 96,
            "midi": 68,
            "name": "G#4",
            "ticks": 103584,
            "time": 104.419146,
            "velocity": 0.3937007874015748
          },
          {
            "duration": 0.09677399999999636,
            "durationTicks": 96,
            "midi": 80,
            "name": "G#5",
            "ticks": 103584,
            "time": 104.419146,
            "velocity": 0.3937007874015748
          },
          {
            "duration": 0.19354800000000694,
            "durationTicks": 192,
            "midi": 67,
            "name": "G4",
            "ticks": 103680,
            "time": 104.51592,
            "velocity": 0.3937007874015748
          },
          {
            "duration": 0.19354800000000694,
            "durationTicks": 192,
            "midi": 79,
            "name": "G5",
            "ticks": 103680,
            "time": 104.51592,
            "velocity": 0.3937007874015748
          },
          {
            "duration": 0.09677399999999636,
            "durationTicks": 96,
            "midi": 77,
            "name": "F5",
            "ticks": 103872,
            "time": 104.709468,
            "velocity": 0.3937007874015748
          },
          {
            "duration": 0.09677399999999636,
            "durationTicks": 96,
            "midi": 65,
            "name": "F4",
            "ticks": 103872,
            "time": 104.709468,
            "velocity": 0.3937007874015748
          },
          {
            "duration": 0.09677400000001057,
            "durationTicks": 96,
            "midi": 63,
            "name": "D#4",
            "ticks": 104064,
            "time": 104.903016,
            "velocity": 0.3937007874015748
          },
          {
            "duration": 0.09677400000001057,
            "durationTicks": 96,
            "midi": 75,
            "name": "D#5",
            "ticks": 104064,
            "time": 104.903016,
            "velocity": 0.3937007874015748
          },
          {
            "duration": 0.09677399999999636,
            "durationTicks": 96,
            "midi": 65,
            "name": "F4",
            "ticks": 104256,
            "time": 105.096564,
            "velocity": 0.3937007874015748
          },
          {
            "duration": 0.09677399999999636,
            "durationTicks": 96,
            "midi": 77,
            "name": "F5",
            "ticks": 104256,
            "time": 105.096564,
            "velocity": 0.3937007874015748
          },
          {
            "duration": 0.09677400000001057,
            "durationTicks": 96,
            "midi": 79,
            "name": "G5",
            "ticks": 104448,
            "time": 105.290112,
            "velocity": 0.3937007874015748
          },
          {
            "duration": 0.09677400000001057,
            "durationTicks": 96,
            "midi": 67,
            "name": "G4",
            "ticks": 104448,
            "time": 105.290112,
            "velocity": 0.3937007874015748
          },
          {
            "duration": 0.09677399999999636,
            "durationTicks": 96,
            "midi": 75,
            "name": "D#5",
            "ticks": 104544,
            "time": 105.386886,
            "velocity": 0.3937007874015748
          },
          {
            "duration": 0.09677399999999636,
            "durationTicks": 96,
            "midi": 63,
            "name": "D#4",
            "ticks": 104544,
            "time": 105.386886,
            "velocity": 0.3937007874015748
          },
          {
            "duration": 0.09677399999999636,
            "durationTicks": 96,
            "midi": 72,
            "name": "C5",
            "ticks": 104640,
            "time": 105.48366,
            "velocity": 0.3937007874015748
          },
          {
            "duration": 0.09677399999999636,
            "durationTicks": 96,
            "midi": 60,
            "name": "C4",
            "ticks": 104640,
            "time": 105.48366,
            "velocity": 0.3937007874015748
          },
          {
            "duration": 0.09677399999999636,
            "durationTicks": 96,
            "midi": 75,
            "name": "D#5",
            "ticks": 104736,
            "time": 105.580434,
            "velocity": 0.3937007874015748
          },
          {
            "duration": 0.09677399999999636,
            "durationTicks": 96,
            "midi": 63,
            "name": "D#4",
            "ticks": 104736,
            "time": 105.580434,
            "velocity": 0.3937007874015748
          },
          {
            "duration": 0.09677400000001057,
            "durationTicks": 96,
            "midi": 79,
            "name": "G5",
            "ticks": 104832,
            "time": 105.677208,
            "velocity": 0.3937007874015748
          },
          {
            "duration": 0.09677400000001057,
            "durationTicks": 96,
            "midi": 67,
            "name": "G4",
            "ticks": 104832,
            "time": 105.677208,
            "velocity": 0.3937007874015748
          },
          {
            "duration": 0.09677399999999636,
            "durationTicks": 96,
            "midi": 77,
            "name": "F5",
            "ticks": 105024,
            "time": 105.870756,
            "velocity": 0.3937007874015748
          },
          {
            "duration": 0.09677399999999636,
            "durationTicks": 96,
            "midi": 65,
            "name": "F4",
            "ticks": 105024,
            "time": 105.870756,
            "velocity": 0.3937007874015748
          },
          {
            "duration": 0.38709599999999966,
            "durationTicks": 384,
            "midi": 63,
            "name": "D#4",
            "ticks": 105216,
            "time": 106.06430399999999,
            "velocity": 0.3937007874015748
          },
          {
            "duration": 0.38709599999999966,
            "durationTicks": 384,
            "midi": 75,
            "name": "D#5",
            "ticks": 105216,
            "time": 106.06430399999999,
            "velocity": 0.3937007874015748
          },
          {
            "duration": 0.38709599999999966,
            "durationTicks": 384,
            "midi": 62,
            "name": "D4",
            "ticks": 105600,
            "time": 106.45139999999999,
            "velocity": 0.3937007874015748
          },
          {
            "duration": 0.38709599999999966,
            "durationTicks": 384,
            "midi": 74,
            "name": "D5",
            "ticks": 105600,
            "time": 106.45139999999999,
            "velocity": 0.3937007874015748
          },
          {
            "duration": 0.09677399999999636,
            "durationTicks": 96,
            "midi": 60,
            "name": "C4",
            "ticks": 106176,
            "time": 107.032044,
            "velocity": 0.3937007874015748
          },
          {
            "duration": 0.09677399999999636,
            "durationTicks": 96,
            "midi": 72,
            "name": "C5",
            "ticks": 106176,
            "time": 107.032044,
            "velocity": 0.3937007874015748
          },
          {
            "duration": 0.09677399999999636,
            "durationTicks": 96,
            "midi": 74,
            "name": "D5",
            "ticks": 106272,
            "time": 107.128818,
            "velocity": 0.3937007874015748
          },
          {
            "duration": 0.09677399999999636,
            "durationTicks": 96,
            "midi": 62,
            "name": "D4",
            "ticks": 106272,
            "time": 107.128818,
            "velocity": 0.3937007874015748
          },
          {
            "duration": 0.09677400000001057,
            "durationTicks": 96,
            "midi": 63,
            "name": "D#4",
            "ticks": 106368,
            "time": 107.22559199999999,
            "velocity": 0.3937007874015748
          },
          {
            "duration": 0.09677400000001057,
            "durationTicks": 96,
            "midi": 75,
            "name": "D#5",
            "ticks": 106368,
            "time": 107.22559199999999,
            "velocity": 0.3937007874015748
          },
          {
            "duration": 0.09677399999999636,
            "durationTicks": 96,
            "midi": 72,
            "name": "C5",
            "ticks": 106560,
            "time": 107.41914,
            "velocity": 0.3937007874015748
          },
          {
            "duration": 0.09677399999999636,
            "durationTicks": 96,
            "midi": 60,
            "name": "C4",
            "ticks": 106560,
            "time": 107.41914,
            "velocity": 0.3937007874015748
          },
          {
            "duration": 0.19354799999999273,
            "durationTicks": 192,
            "midi": 65,
            "name": "F4",
            "ticks": 106752,
            "time": 107.612688,
            "velocity": 0.3937007874015748
          },
          {
            "duration": 0.19354799999999273,
            "durationTicks": 192,
            "midi": 77,
            "name": "F5",
            "ticks": 106752,
            "time": 107.612688,
            "velocity": 0.3937007874015748
          },
          {
            "duration": 0.09677399999999636,
            "durationTicks": 96,
            "midi": 75,
            "name": "D#5",
            "ticks": 106944,
            "time": 107.806236,
            "velocity": 0.3937007874015748
          },
          {
            "duration": 0.09677399999999636,
            "durationTicks": 96,
            "midi": 63,
            "name": "D#4",
            "ticks": 106944,
            "time": 107.806236,
            "velocity": 0.3937007874015748
          },
          {
            "duration": 0.09677399999999636,
            "durationTicks": 96,
            "midi": 74,
            "name": "D5",
            "ticks": 107136,
            "time": 107.999784,
            "velocity": 0.3937007874015748
          },
          {
            "duration": 0.09677399999999636,
            "durationTicks": 96,
            "midi": 62,
            "name": "D4",
            "ticks": 107136,
            "time": 107.999784,
            "velocity": 0.3937007874015748
          },
          {
            "duration": 0.09677399999999636,
            "durationTicks": 96,
            "midi": 60,
            "name": "C4",
            "ticks": 107328,
            "time": 108.193332,
            "velocity": 0.3937007874015748
          },
          {
            "duration": 0.09677399999999636,
            "durationTicks": 96,
            "midi": 72,
            "name": "C5",
            "ticks": 107328,
            "time": 108.193332,
            "velocity": 0.3937007874015748
          },
          {
            "duration": 0.2903219999999891,
            "durationTicks": 288,
            "midi": 58,
            "name": "A#3",
            "ticks": 107520,
            "time": 108.38688,
            "velocity": 0.3937007874015748
          },
          {
            "duration": 0.2903219999999891,
            "durationTicks": 288,
            "midi": 70,
            "name": "A#4",
            "ticks": 107520,
            "time": 108.38688,
            "velocity": 0.3937007874015748
          },
          {
            "duration": 0.09677400000001057,
            "durationTicks": 96,
            "midi": 68,
            "name": "G#4",
            "ticks": 107808,
            "time": 108.677202,
            "velocity": 0.3937007874015748
          },
          {
            "duration": 0.09677400000001057,
            "durationTicks": 96,
            "midi": 56,
            "name": "G#3",
            "ticks": 107808,
            "time": 108.677202,
            "velocity": 0.3937007874015748
          },
          {
            "duration": 0.09677399999999636,
            "durationTicks": 96,
            "midi": 67,
            "name": "G4",
            "ticks": 107904,
            "time": 108.773976,
            "velocity": 0.3937007874015748
          },
          {
            "duration": 0.09677399999999636,
            "durationTicks": 96,
            "midi": 55,
            "name": "G3",
            "ticks": 107904,
            "time": 108.773976,
            "velocity": 0.3937007874015748
          },
          {
            "duration": 0.09677399999999636,
            "durationTicks": 96,
            "midi": 56,
            "name": "G#3",
            "ticks": 108096,
            "time": 108.967524,
            "velocity": 0.3937007874015748
          },
          {
            "duration": 0.09677399999999636,
            "durationTicks": 96,
            "midi": 68,
            "name": "G#4",
            "ticks": 108096,
            "time": 108.967524,
            "velocity": 0.3937007874015748
          },
          {
            "duration": 0.38709599999999966,
            "durationTicks": 384,
            "midi": 70,
            "name": "A#4",
            "ticks": 108288,
            "time": 109.161072,
            "velocity": 0.3937007874015748
          },
          {
            "duration": 0.38709599999999966,
            "durationTicks": 384,
            "midi": 58,
            "name": "A#3",
            "ticks": 108288,
            "time": 109.161072,
            "velocity": 0.3937007874015748
          },
          {
            "duration": 0.38709599999999966,
            "durationTicks": 384,
            "midi": 65,
            "name": "F4",
            "ticks": 108672,
            "time": 109.548168,
            "velocity": 0.3937007874015748
          },
          {
            "duration": 0.38709599999999966,
            "durationTicks": 384,
            "midi": 53,
            "name": "F3",
            "ticks": 108672,
            "time": 109.548168,
            "velocity": 0.3937007874015748
          },
          {
            "duration": 0.09677399999999636,
            "durationTicks": 96,
            "midi": 62,
            "name": "D4",
            "ticks": 109248,
            "time": 110.128812,
            "velocity": 0.3937007874015748
          },
          {
            "duration": 0.09677400000001057,
            "durationTicks": 96,
            "midi": 63,
            "name": "D#4",
            "ticks": 109344,
            "time": 110.22558599999999,
            "velocity": 0.3937007874015748
          },
          {
            "duration": 0.09677399999999636,
            "durationTicks": 96,
            "midi": 65,
            "name": "F4",
            "ticks": 109440,
            "time": 110.32236,
            "velocity": 0.3937007874015748
          },
          {
            "duration": 0.09677399999999636,
            "durationTicks": 96,
            "midi": 62,
            "name": "D4",
            "ticks": 109632,
            "time": 110.515908,
            "velocity": 0.3937007874015748
          },
          {
            "duration": 0.19354799999999273,
            "durationTicks": 192,
            "midi": 67,
            "name": "G4",
            "ticks": 109824,
            "time": 110.709456,
            "velocity": 0.3937007874015748
          },
          {
            "duration": 0.09677399999999636,
            "durationTicks": 96,
            "midi": 65,
            "name": "F4",
            "ticks": 110016,
            "time": 110.903004,
            "velocity": 0.3937007874015748
          },
          {
            "duration": 0.09677399999999636,
            "durationTicks": 96,
            "midi": 63,
            "name": "D#4",
            "ticks": 110208,
            "time": 111.096552,
            "velocity": 0.3937007874015748
          },
          {
            "duration": 0.09677399999999636,
            "durationTicks": 96,
            "midi": 62,
            "name": "D4",
            "ticks": 110400,
            "time": 111.2901,
            "velocity": 0.3937007874015748
          },
          {
            "duration": 0.38709599999999966,
            "durationTicks": 384,
            "midi": 63,
            "name": "D#4",
            "ticks": 110592,
            "time": 111.483648,
            "velocity": 0.3937007874015748
          },
          {
            "duration": 0.38709599999999966,
            "durationTicks": 384,
            "midi": 63,
            "name": "D#4",
            "ticks": 110976,
            "time": 111.870744,
            "velocity": 0.3937007874015748
          },
          {
            "duration": 0.7741919999999993,
            "durationTicks": 768,
            "midi": 62,
            "name": "D4",
            "ticks": 111360,
            "time": 112.25784,
            "velocity": 0.3937007874015748
          },
          {
            "duration": 0.09677400000001057,
            "durationTicks": 96,
            "midi": 72,
            "name": "C5",
            "ticks": 112320,
            "time": 113.22558,
            "velocity": 0.3937007874015748
          },
          {
            "duration": 0.09677400000001057,
            "durationTicks": 96,
            "midi": 60,
            "name": "C4",
            "ticks": 112320,
            "time": 113.22558,
            "velocity": 0.3937007874015748
          },
          {
            "duration": 0.09677399999999636,
            "durationTicks": 96,
            "midi": 74,
            "name": "D5",
            "ticks": 112416,
            "time": 113.322354,
            "velocity": 0.3937007874015748
          },
          {
            "duration": 0.09677399999999636,
            "durationTicks": 96,
            "midi": 62,
            "name": "D4",
            "ticks": 112416,
            "time": 113.322354,
            "velocity": 0.3937007874015748
          },
          {
            "duration": 0.09677399999999636,
            "durationTicks": 96,
            "midi": 63,
            "name": "D#4",
            "ticks": 112512,
            "time": 113.419128,
            "velocity": 0.3937007874015748
          },
          {
            "duration": 0.09677399999999636,
            "durationTicks": 96,
            "midi": 75,
            "name": "D#5",
            "ticks": 112512,
            "time": 113.419128,
            "velocity": 0.3937007874015748
          },
          {
            "duration": 0.09677400000001057,
            "durationTicks": 96,
            "midi": 72,
            "name": "C5",
            "ticks": 112704,
            "time": 113.612676,
            "velocity": 0.3937007874015748
          },
          {
            "duration": 0.09677400000001057,
            "durationTicks": 96,
            "midi": 60,
            "name": "C4",
            "ticks": 112704,
            "time": 113.612676,
            "velocity": 0.3937007874015748
          },
          {
            "duration": 0.19354799999999273,
            "durationTicks": 192,
            "midi": 65,
            "name": "F4",
            "ticks": 112896,
            "time": 113.806224,
            "velocity": 0.3937007874015748
          },
          {
            "duration": 0.19354799999999273,
            "durationTicks": 192,
            "midi": 77,
            "name": "F5",
            "ticks": 112896,
            "time": 113.806224,
            "velocity": 0.3937007874015748
          },
          {
            "duration": 0.09677400000001057,
            "durationTicks": 96,
            "midi": 75,
            "name": "D#5",
            "ticks": 113088,
            "time": 113.999772,
            "velocity": 0.3937007874015748
          },
          {
            "duration": 0.09677400000001057,
            "durationTicks": 96,
            "midi": 63,
            "name": "D#4",
            "ticks": 113088,
            "time": 113.999772,
            "velocity": 0.3937007874015748
          },
          {
            "duration": 0.09677399999999636,
            "durationTicks": 96,
            "midi": 74,
            "name": "D5",
            "ticks": 113280,
            "time": 114.19332,
            "velocity": 0.3937007874015748
          },
          {
            "duration": 0.09677399999999636,
            "durationTicks": 96,
            "midi": 62,
            "name": "D4",
            "ticks": 113280,
            "time": 114.19332,
            "velocity": 0.3937007874015748
          },
          {
            "duration": 0.09677400000001057,
            "durationTicks": 96,
            "midi": 60,
            "name": "C4",
            "ticks": 113472,
            "time": 114.38686799999999,
            "velocity": 0.3937007874015748
          },
          {
            "duration": 0.09677400000001057,
            "durationTicks": 96,
            "midi": 72,
            "name": "C5",
            "ticks": 113472,
            "time": 114.38686799999999,
            "velocity": 0.3937007874015748
          },
          {
            "duration": 0.2903220000000033,
            "durationTicks": 288,
            "midi": 70,
            "name": "A#4",
            "ticks": 113664,
            "time": 114.580416,
            "velocity": 0.3937007874015748
          },
          {
            "duration": 0.2903220000000033,
            "durationTicks": 288,
            "midi": 58,
            "name": "A#3",
            "ticks": 113664,
            "time": 114.580416,
            "velocity": 0.3937007874015748
          },
          {
            "duration": 0.09677399999999636,
            "durationTicks": 96,
            "midi": 68,
            "name": "G#4",
            "ticks": 113952,
            "time": 114.870738,
            "velocity": 0.3937007874015748
          },
          {
            "duration": 0.09677399999999636,
            "durationTicks": 96,
            "midi": 56,
            "name": "G#3",
            "ticks": 113952,
            "time": 114.870738,
            "velocity": 0.3937007874015748
          },
          {
            "duration": 0.09677399999999636,
            "durationTicks": 96,
            "midi": 67,
            "name": "G4",
            "ticks": 114048,
            "time": 114.967512,
            "velocity": 0.3937007874015748
          },
          {
            "duration": 0.09677399999999636,
            "durationTicks": 96,
            "midi": 55,
            "name": "G3",
            "ticks": 114048,
            "time": 114.967512,
            "velocity": 0.3937007874015748
          },
          {
            "duration": 0.09677400000001057,
            "durationTicks": 96,
            "midi": 56,
            "name": "G#3",
            "ticks": 114240,
            "time": 115.16105999999999,
            "velocity": 0.3937007874015748
          },
          {
            "duration": 0.09677400000001057,
            "durationTicks": 96,
            "midi": 68,
            "name": "G#4",
            "ticks": 114240,
            "time": 115.16105999999999,
            "velocity": 0.3937007874015748
          },
          {
            "duration": 0.38709599999999966,
            "durationTicks": 384,
            "midi": 58,
            "name": "A#3",
            "ticks": 114432,
            "time": 115.354608,
            "velocity": 0.3937007874015748
          },
          {
            "duration": 0.38709599999999966,
            "durationTicks": 384,
            "midi": 70,
            "name": "A#4",
            "ticks": 114432,
            "time": 115.354608,
            "velocity": 0.3937007874015748
          },
          {
            "duration": 0.38709599999999966,
            "durationTicks": 384,
            "midi": 65,
            "name": "F4",
            "ticks": 114816,
            "time": 115.741704,
            "velocity": 0.3937007874015748
          },
          {
            "duration": 0.38709599999999966,
            "durationTicks": 384,
            "midi": 53,
            "name": "F3",
            "ticks": 114816,
            "time": 115.741704,
            "velocity": 0.3937007874015748
          },
          {
            "duration": 0.09677399999999636,
            "durationTicks": 96,
            "midi": 62,
            "name": "D4",
            "ticks": 115392,
            "time": 116.322348,
            "velocity": 0.3937007874015748
          },
          {
            "duration": 0.09677399999999636,
            "durationTicks": 96,
            "midi": 63,
            "name": "D#4",
            "ticks": 115488,
            "time": 116.419122,
            "velocity": 0.3937007874015748
          },
          {
            "duration": 0.09677399999999636,
            "durationTicks": 96,
            "midi": 65,
            "name": "F4",
            "ticks": 115584,
            "time": 116.515896,
            "velocity": 0.3937007874015748
          },
          {
            "duration": 0.09677399999999636,
            "durationTicks": 96,
            "midi": 62,
            "name": "D4",
            "ticks": 115776,
            "time": 116.709444,
            "velocity": 0.3937007874015748
          },
          {
            "duration": 0.19354800000000694,
            "durationTicks": 192,
            "midi": 67,
            "name": "G4",
            "ticks": 115968,
            "time": 116.902992,
            "velocity": 0.3937007874015748
          },
          {
            "duration": 0.09677399999999636,
            "durationTicks": 96,
            "midi": 65,
            "name": "F4",
            "ticks": 116160,
            "time": 117.09654,
            "velocity": 0.3937007874015748
          },
          {
            "duration": 0.09677399999999636,
            "durationTicks": 96,
            "midi": 63,
            "name": "D#4",
            "ticks": 116352,
            "time": 117.290088,
            "velocity": 0.3937007874015748
          },
          {
            "duration": 0.09677399999999636,
            "durationTicks": 96,
            "midi": 62,
            "name": "D4",
            "ticks": 116544,
            "time": 117.483636,
            "velocity": 0.3937007874015748
          },
          {
            "duration": 0.09677399999999636,
            "durationTicks": 96,
            "midi": 63,
            "name": "D#4",
            "ticks": 116736,
            "time": 117.677184,
            "velocity": 0.3937007874015748
          },
          {
            "duration": 0.09677399999999636,
            "durationTicks": 96,
            "midi": 62,
            "name": "D4",
            "ticks": 117120,
            "time": 118.06428,
            "velocity": 0.3937007874015748
          },
          {
            "duration": 0.09677399999999636,
            "durationTicks": 96,
            "midi": 60,
            "name": "C4",
            "ticks": 117504,
            "time": 118.451376,
            "velocity": 0.3937007874015748
          }
        ],
        "endOfTrackTicks": 117600
      },
      {
        "channel": 1,
        "controlChanges": {},
        "pitchBends": [],
        "instrument": {
          "family": "piano",
          "number": 0,
          "name": "acoustic grand piano"
        },
        "name": "Electric Piano",
        "notes": [
          {
            "duration": 0.096774,
            "durationTicks": 96,
            "midi": 48,
            "name": "C3",
            "ticks": 0,
            "time": 0,
            "velocity": 0.29133858267716534
          },
          {
            "duration": 0.09677399999999997,
            "durationTicks": 96,
            "midi": 51,
            "name": "D#3",
            "ticks": 192,
            "time": 0.193548,
            "velocity": 0.29133858267716534
          },
          {
            "duration": 0.09677399999999997,
            "durationTicks": 96,
            "midi": 55,
            "name": "G3",
            "ticks": 192,
            "time": 0.193548,
            "velocity": 0.29133858267716534
          },
          {
            "duration": 0.09677400000000003,
            "durationTicks": 96,
            "midi": 43,
            "name": "G2",
            "ticks": 384,
            "time": 0.387096,
            "velocity": 0.29133858267716534
          },
          {
            "duration": 0.09677400000000003,
            "durationTicks": 96,
            "midi": 51,
            "name": "D#3",
            "ticks": 576,
            "time": 0.5806439999999999,
            "velocity": 0.29133858267716534
          },
          {
            "duration": 0.09677400000000003,
            "durationTicks": 96,
            "midi": 55,
            "name": "G3",
            "ticks": 576,
            "time": 0.5806439999999999,
            "velocity": 0.29133858267716534
          },
          {
            "duration": 0.09677400000000003,
            "durationTicks": 96,
            "midi": 48,
            "name": "C3",
            "ticks": 768,
            "time": 0.774192,
            "velocity": 0.29133858267716534
          },
          {
            "duration": 0.09677399999999992,
            "durationTicks": 96,
            "midi": 55,
            "name": "G3",
            "ticks": 960,
            "time": 0.96774,
            "velocity": 0.29133858267716534
          },
          {
            "duration": 0.09677399999999992,
            "durationTicks": 96,
            "midi": 51,
            "name": "D#3",
            "ticks": 960,
            "time": 0.96774,
            "velocity": 0.29133858267716534
          },
          {
            "duration": 0.09677400000000014,
            "durationTicks": 96,
            "midi": 43,
            "name": "G2",
            "ticks": 1152,
            "time": 1.1612879999999999,
            "velocity": 0.29133858267716534
          },
          {
            "duration": 0.09677400000000014,
            "durationTicks": 96,
            "midi": 51,
            "name": "D#3",
            "ticks": 1344,
            "time": 1.354836,
            "velocity": 0.29133858267716534
          },
          {
            "duration": 0.09677400000000014,
            "durationTicks": 96,
            "midi": 55,
            "name": "G3",
            "ticks": 1344,
            "time": 1.354836,
            "velocity": 0.29133858267716534
          },
          {
            "duration": 0.3870960000000001,
            "durationTicks": 384,
            "midi": 84,
            "name": "C6",
            "ticks": 1536,
            "time": 1.548384,
            "velocity": 0.29133858267716534
          },
          {
            "duration": 0.09677399999999992,
            "durationTicks": 96,
            "midi": 48,
            "name": "C3",
            "ticks": 1536,
            "time": 1.548384,
            "velocity": 0.29133858267716534
          },
          {
            "duration": 0.09677399999999992,
            "durationTicks": 96,
            "midi": 55,
            "name": "G3",
            "ticks": 1728,
            "time": 1.741932,
            "velocity": 0.29133858267716534
          },
          {
            "duration": 0.09677399999999992,
            "durationTicks": 96,
            "midi": 51,
            "name": "D#3",
            "ticks": 1728,
            "time": 1.741932,
            "velocity": 0.29133858267716534
          },
          {
            "duration": 0.09677399999999992,
            "durationTicks": 96,
            "midi": 43,
            "name": "G2",
            "ticks": 1920,
            "time": 1.93548,
            "velocity": 0.29133858267716534
          },
          {
            "duration": 0.29032199999999975,
            "durationTicks": 288,
            "midi": 84,
            "name": "C6",
            "ticks": 1920,
            "time": 1.93548,
            "velocity": 0.29133858267716534
          },
          {
            "duration": 0.09677399999999992,
            "durationTicks": 96,
            "midi": 51,
            "name": "D#3",
            "ticks": 2112,
            "time": 2.129028,
            "velocity": 0.29133858267716534
          },
          {
            "duration": 0.09677399999999992,
            "durationTicks": 96,
            "midi": 55,
            "name": "G3",
            "ticks": 2112,
            "time": 2.129028,
            "velocity": 0.29133858267716534
          },
          {
            "duration": 0.09677399999999992,
            "durationTicks": 96,
            "midi": 82,
            "name": "A#5",
            "ticks": 2208,
            "time": 2.225802,
            "velocity": 0.29133858267716534
          },
          {
            "duration": 0.09677400000000036,
            "durationTicks": 96,
            "midi": 48,
            "name": "C3",
            "ticks": 2304,
            "time": 2.3225759999999998,
            "velocity": 0.29133858267716534
          },
          {
            "duration": 0.19354800000000028,
            "durationTicks": 192,
            "midi": 84,
            "name": "C6",
            "ticks": 2304,
            "time": 2.3225759999999998,
            "velocity": 0.29133858267716534
          },
          {
            "duration": 0.09677399999999992,
            "durationTicks": 96,
            "midi": 55,
            "name": "G3",
            "ticks": 2496,
            "time": 2.516124,
            "velocity": 0.29133858267716534
          },
          {
            "duration": 0.09677399999999992,
            "durationTicks": 96,
            "midi": 51,
            "name": "D#3",
            "ticks": 2496,
            "time": 2.516124,
            "velocity": 0.29133858267716534
          },
          {
            "duration": 0.09677399999999992,
            "durationTicks": 96,
            "midi": 82,
            "name": "A#5",
            "ticks": 2496,
            "time": 2.516124,
            "velocity": 0.29133858267716534
          },
          {
            "duration": 0.09677399999999992,
            "durationTicks": 96,
            "midi": 43,
            "name": "G2",
            "ticks": 2688,
            "time": 2.709672,
            "velocity": 0.29133858267716534
          },
          {
            "duration": 0.09677399999999992,
            "durationTicks": 96,
            "midi": 80,
            "name": "G#5",
            "ticks": 2688,
            "time": 2.709672,
            "velocity": 0.29133858267716534
          },
          {
            "duration": 0.09677399999999992,
            "durationTicks": 96,
            "midi": 79,
            "name": "G5",
            "ticks": 2880,
            "time": 2.90322,
            "velocity": 0.29133858267716534
          },
          {
            "duration": 0.09677399999999992,
            "durationTicks": 96,
            "midi": 55,
            "name": "G3",
            "ticks": 2880,
            "time": 2.90322,
            "velocity": 0.29133858267716534
          },
          {
            "duration": 0.09677399999999992,
            "durationTicks": 96,
            "midi": 51,
            "name": "D#3",
            "ticks": 2880,
            "time": 2.90322,
            "velocity": 0.29133858267716534
          },
          {
            "duration": 0.09677399999999992,
            "durationTicks": 96,
            "midi": 82,
            "name": "A#5",
            "ticks": 3072,
            "time": 3.096768,
            "velocity": 0.29133858267716534
          },
          {
            "duration": 0.09677399999999992,
            "durationTicks": 96,
            "midi": 51,
            "name": "D#3",
            "ticks": 3072,
            "time": 3.096768,
            "velocity": 0.29133858267716534
          },
          {
            "duration": 0.09677399999999992,
            "durationTicks": 96,
            "midi": 80,
            "name": "G#5",
            "ticks": 3168,
            "time": 3.193542,
            "velocity": 0.29133858267716534
          },
          {
            "duration": 0.09677400000000036,
            "durationTicks": 96,
            "midi": 79,
            "name": "G5",
            "ticks": 3264,
            "time": 3.290316,
            "velocity": 0.29133858267716534
          },
          {
            "duration": 0.09677400000000036,
            "durationTicks": 96,
            "midi": 55,
            "name": "G3",
            "ticks": 3264,
            "time": 3.290316,
            "velocity": 0.29133858267716534
          },
          {
            "duration": 0.09677400000000036,
            "durationTicks": 96,
            "midi": 58,
            "name": "A#3",
            "ticks": 3264,
            "time": 3.290316,
            "velocity": 0.29133858267716534
          },
          {
            "duration": 0.09677399999999992,
            "durationTicks": 96,
            "midi": 77,
            "name": "F5",
            "ticks": 3360,
            "time": 3.38709,
            "velocity": 0.29133858267716534
          },
          {
            "duration": 0.09677399999999992,
            "durationTicks": 96,
            "midi": 46,
            "name": "A#2",
            "ticks": 3456,
            "time": 3.483864,
            "velocity": 0.29133858267716534
          },
          {
            "duration": 0.09677399999999992,
            "durationTicks": 96,
            "midi": 75,
            "name": "D#5",
            "ticks": 3456,
            "time": 3.483864,
            "velocity": 0.29133858267716534
          },
          {
            "duration": 0.09677399999999992,
            "durationTicks": 96,
            "midi": 77,
            "name": "F5",
            "ticks": 3648,
            "time": 3.677412,
            "velocity": 0.29133858267716534
          },
          {
            "duration": 0.09677399999999992,
            "durationTicks": 96,
            "midi": 55,
            "name": "G3",
            "ticks": 3648,
            "time": 3.677412,
            "velocity": 0.29133858267716534
          },
          {
            "duration": 0.09677399999999992,
            "durationTicks": 96,
            "midi": 58,
            "name": "A#3",
            "ticks": 3648,
            "time": 3.677412,
            "velocity": 0.29133858267716534
          },
          {
            "duration": 0.7741919999999993,
            "durationTicks": 768,
            "midi": 79,
            "name": "G5",
            "ticks": 3840,
            "time": 3.87096,
            "velocity": 0.29133858267716534
          },
          {
            "duration": 0.09677399999999992,
            "durationTicks": 96,
            "midi": 51,
            "name": "D#3",
            "ticks": 3840,
            "time": 3.87096,
            "velocity": 0.29133858267716534
          },
          {
            "duration": 0.09677399999999992,
            "durationTicks": 96,
            "midi": 58,
            "name": "A#3",
            "ticks": 4032,
            "time": 4.064508,
            "velocity": 0.29133858267716534
          },
          {
            "duration": 0.09677399999999992,
            "durationTicks": 96,
            "midi": 55,
            "name": "G3",
            "ticks": 4032,
            "time": 4.064508,
            "velocity": 0.29133858267716534
          },
          {
            "duration": 0.09677399999999992,
            "durationTicks": 96,
            "midi": 46,
            "name": "A#2",
            "ticks": 4224,
            "time": 4.258056,
            "velocity": 0.29133858267716534
          },
          {
            "duration": 0.09677399999999992,
            "durationTicks": 96,
            "midi": 55,
            "name": "G3",
            "ticks": 4416,
            "time": 4.451604,
            "velocity": 0.29133858267716534
          },
          {
            "duration": 0.09677399999999992,
            "durationTicks": 96,
            "midi": 58,
            "name": "A#3",
            "ticks": 4416,
            "time": 4.451604,
            "velocity": 0.29133858267716534
          },
          {
            "duration": 0.38709600000000055,
            "durationTicks": 384,
            "midi": 82,
            "name": "A#5",
            "ticks": 4608,
            "time": 4.6451519999999995,
            "velocity": 0.29133858267716534
          },
          {
            "duration": 0.0967740000000008,
            "durationTicks": 96,
            "midi": 46,
            "name": "A#2",
            "ticks": 4608,
            "time": 4.6451519999999995,
            "velocity": 0.29133858267716534
          },
          {
            "duration": 0.09677399999999992,
            "durationTicks": 96,
            "midi": 50,
            "name": "D3",
            "ticks": 4800,
            "time": 4.8387,
            "velocity": 0.29133858267716534
          },
          {
            "duration": 0.09677399999999992,
            "durationTicks": 96,
            "midi": 53,
            "name": "F3",
            "ticks": 4800,
            "time": 4.8387,
            "velocity": 0.29133858267716534
          },
          {
            "duration": 0.29032199999999975,
            "durationTicks": 288,
            "midi": 82,
            "name": "A#5",
            "ticks": 4992,
            "time": 5.032248,
            "velocity": 0.29133858267716534
          },
          {
            "duration": 0.09677399999999992,
            "durationTicks": 96,
            "midi": 41,
            "name": "F2",
            "ticks": 4992,
            "time": 5.032248,
            "velocity": 0.29133858267716534
          },
          {
            "duration": 0.09677399999999992,
            "durationTicks": 96,
            "midi": 50,
            "name": "D3",
            "ticks": 5184,
            "time": 5.225796,
            "velocity": 0.29133858267716534
          },
          {
            "duration": 0.09677399999999992,
            "durationTicks": 96,
            "midi": 53,
            "name": "F3",
            "ticks": 5184,
            "time": 5.225796,
            "velocity": 0.29133858267716534
          },
          {
            "duration": 0.09677399999999992,
            "durationTicks": 96,
            "midi": 80,
            "name": "G#5",
            "ticks": 5280,
            "time": 5.32257,
            "velocity": 0.29133858267716534
          },
          {
            "duration": 0.19354799999999983,
            "durationTicks": 192,
            "midi": 79,
            "name": "G5",
            "ticks": 5376,
            "time": 5.419344,
            "velocity": 0.29133858267716534
          },
          {
            "duration": 0.09677399999999992,
            "durationTicks": 96,
            "midi": 46,
            "name": "A#2",
            "ticks": 5376,
            "time": 5.419344,
            "velocity": 0.29133858267716534
          },
          {
            "duration": 0.0967740000000008,
            "durationTicks": 96,
            "midi": 77,
            "name": "F5",
            "ticks": 5568,
            "time": 5.6128919999999995,
            "velocity": 0.29133858267716534
          },
          {
            "duration": 0.0967740000000008,
            "durationTicks": 96,
            "midi": 53,
            "name": "F3",
            "ticks": 5568,
            "time": 5.6128919999999995,
            "velocity": 0.29133858267716534
          },
          {
            "duration": 0.0967740000000008,
            "durationTicks": 96,
            "midi": 50,
            "name": "D3",
            "ticks": 5568,
            "time": 5.6128919999999995,
            "velocity": 0.29133858267716534
          },
          {
            "duration": 0.09677399999999992,
            "durationTicks": 96,
            "midi": 75,
            "name": "D#5",
            "ticks": 5760,
            "time": 5.80644,
            "velocity": 0.29133858267716534
          },
          {
            "duration": 0.09677399999999992,
            "durationTicks": 96,
            "midi": 41,
            "name": "F2",
            "ticks": 5760,
            "time": 5.80644,
            "velocity": 0.29133858267716534
          },
          {
            "duration": 0.09677399999999992,
            "durationTicks": 96,
            "midi": 77,
            "name": "F5",
            "ticks": 5952,
            "time": 5.999988,
            "velocity": 0.29133858267716534
          },
          {
            "duration": 0.09677399999999992,
            "durationTicks": 96,
            "midi": 53,
            "name": "F3",
            "ticks": 5952,
            "time": 5.999988,
            "velocity": 0.29133858267716534
          },
          {
            "duration": 0.09677399999999992,
            "durationTicks": 96,
            "midi": 50,
            "name": "D3",
            "ticks": 5952,
            "time": 5.999988,
            "velocity": 0.29133858267716534
          },
          {
            "duration": 0.09677399999999992,
            "durationTicks": 96,
            "midi": 44,
            "name": "G#2",
            "ticks": 6144,
            "time": 6.193536,
            "velocity": 0.29133858267716534
          },
          {
            "duration": 0.09677399999999992,
            "durationTicks": 96,
            "midi": 79,
            "name": "G5",
            "ticks": 6144,
            "time": 6.193536,
            "velocity": 0.29133858267716534
          },
          {
            "duration": 0.09677399999999992,
            "durationTicks": 96,
            "midi": 75,
            "name": "D#5",
            "ticks": 6240,
            "time": 6.29031,
            "velocity": 0.29133858267716534
          },
          {
            "duration": 0.09677399999999992,
            "durationTicks": 96,
            "midi": 51,
            "name": "D#3",
            "ticks": 6336,
            "time": 6.387084,
            "velocity": 0.29133858267716534
          },
          {
            "duration": 0.09677399999999992,
            "durationTicks": 96,
            "midi": 48,
            "name": "C3",
            "ticks": 6336,
            "time": 6.387084,
            "velocity": 0.29133858267716534
          },
          {
            "duration": 0.09677399999999992,
            "durationTicks": 96,
            "midi": 72,
            "name": "C5",
            "ticks": 6336,
            "time": 6.387084,
            "velocity": 0.29133858267716534
          },
          {
            "duration": 0.09677399999999992,
            "durationTicks": 96,
            "midi": 75,
            "name": "D#5",
            "ticks": 6432,
            "time": 6.483858,
            "velocity": 0.29133858267716534
          },
          {
            "duration": 0.09677399999999992,
            "durationTicks": 96,
            "midi": 79,
            "name": "G5",
            "ticks": 6528,
            "time": 6.580632,
            "velocity": 0.29133858267716534
          },
          {
            "duration": 0.09677399999999992,
            "durationTicks": 96,
            "midi": 39,
            "name": "D#2",
            "ticks": 6528,
            "time": 6.580632,
            "velocity": 0.29133858267716534
          },
          {
            "duration": 0.09677399999999992,
            "durationTicks": 96,
            "midi": 51,
            "name": "D#3",
            "ticks": 6720,
            "time": 6.77418,
            "velocity": 0.29133858267716534
          },
          {
            "duration": 0.09677399999999992,
            "durationTicks": 96,
            "midi": 77,
            "name": "F5",
            "ticks": 6720,
            "time": 6.77418,
            "velocity": 0.29133858267716534
          },
          {
            "duration": 0.09677399999999992,
            "durationTicks": 96,
            "midi": 48,
            "name": "C3",
            "ticks": 6720,
            "time": 6.77418,
            "velocity": 0.29133858267716534
          },
          {
            "duration": 0.38709599999999966,
            "durationTicks": 384,
            "midi": 75,
            "name": "D#5",
            "ticks": 6912,
            "time": 6.967728,
            "velocity": 0.29133858267716534
          },
          {
            "duration": 0.09677399999999992,
            "durationTicks": 96,
            "midi": 43,
            "name": "G2",
            "ticks": 6912,
            "time": 6.967728,
            "velocity": 0.29133858267716534
          },
          {
            "duration": 0.09677399999999992,
            "durationTicks": 96,
            "midi": 50,
            "name": "D3",
            "ticks": 7104,
            "time": 7.161276,
            "velocity": 0.29133858267716534
          },
          {
            "duration": 0.09677399999999992,
            "durationTicks": 96,
            "midi": 47,
            "name": "B2",
            "ticks": 7104,
            "time": 7.161276,
            "velocity": 0.29133858267716534
          },
          {
            "duration": 0.38709600000000055,
            "durationTicks": 384,
            "midi": 74,
            "name": "D5",
            "ticks": 7296,
            "time": 7.354824,
            "velocity": 0.29133858267716534
          },
          {
            "duration": 0.09677399999999992,
            "durationTicks": 96,
            "midi": 38,
            "name": "D2",
            "ticks": 7296,
            "time": 7.354824,
            "velocity": 0.29133858267716534
          },
          {
            "duration": 0.09677399999999992,
            "durationTicks": 96,
            "midi": 47,
            "name": "B2",
            "ticks": 7488,
            "time": 7.548372,
            "velocity": 0.29133858267716534
          },
          {
            "duration": 0.09677399999999992,
            "durationTicks": 96,
            "midi": 50,
            "name": "D3",
            "ticks": 7488,
            "time": 7.548372,
            "velocity": 0.29133858267716534
          },
          {
            "duration": 0.38709599999999966,
            "durationTicks": 384,
            "midi": 84,
            "name": "C6",
            "ticks": 7680,
            "time": 7.74192,
            "velocity": 0.29133858267716534
          },
          {
            "duration": 0.09677399999999992,
            "durationTicks": 96,
            "midi": 48,
            "name": "C3",
            "ticks": 7680,
            "time": 7.74192,
            "velocity": 0.29133858267716534
          },
          {
            "duration": 0.09677399999999992,
            "durationTicks": 96,
            "midi": 55,
            "name": "G3",
            "ticks": 7872,
            "time": 7.935468,
            "velocity": 0.29133858267716534
          },
          {
            "duration": 0.09677399999999992,
            "durationTicks": 96,
            "midi": 51,
            "name": "D#3",
            "ticks": 7872,
            "time": 7.935468,
            "velocity": 0.29133858267716534
          },
          {
            "duration": 0.09677399999999992,
            "durationTicks": 96,
            "midi": 43,
            "name": "G2",
            "ticks": 8064,
            "time": 8.129016,
            "velocity": 0.29133858267716534
          },
          {
            "duration": 0.29032199999999975,
            "durationTicks": 288,
            "midi": 84,
            "name": "C6",
            "ticks": 8064,
            "time": 8.129016,
            "velocity": 0.29133858267716534
          },
          {
            "duration": 0.09677399999999992,
            "durationTicks": 96,
            "midi": 55,
            "name": "G3",
            "ticks": 8256,
            "time": 8.322564,
            "velocity": 0.29133858267716534
          },
          {
            "duration": 0.09677399999999992,
            "durationTicks": 96,
            "midi": 51,
            "name": "D#3",
            "ticks": 8256,
            "time": 8.322564,
            "velocity": 0.29133858267716534
          },
          {
            "duration": 0.09677399999999992,
            "durationTicks": 96,
            "midi": 82,
            "name": "A#5",
            "ticks": 8352,
            "time": 8.419338,
            "velocity": 0.29133858267716534
          },
          {
            "duration": 0.09677399999999992,
            "durationTicks": 96,
            "midi": 48,
            "name": "C3",
            "ticks": 8448,
            "time": 8.516112,
            "velocity": 0.29133858267716534
          },
          {
            "duration": 0.19354799999999983,
            "durationTicks": 192,
            "midi": 84,
            "name": "C6",
            "ticks": 8448,
            "time": 8.516112,
            "velocity": 0.29133858267716534
          },
          {
            "duration": 0.09677399999999992,
            "durationTicks": 96,
            "midi": 82,
            "name": "A#5",
            "ticks": 8640,
            "time": 8.70966,
            "velocity": 0.29133858267716534
          },
          {
            "duration": 0.09677399999999992,
            "durationTicks": 96,
            "midi": 55,
            "name": "G3",
            "ticks": 8640,
            "time": 8.70966,
            "velocity": 0.29133858267716534
          },
          {
            "duration": 0.09677399999999992,
            "durationTicks": 96,
            "midi": 51,
            "name": "D#3",
            "ticks": 8640,
            "time": 8.70966,
            "velocity": 0.29133858267716534
          },
          {
            "duration": 0.09677399999999992,
            "durationTicks": 96,
            "midi": 80,
            "name": "G#5",
            "ticks": 8832,
            "time": 8.903208,
            "velocity": 0.29133858267716534
          },
          {
            "duration": 0.09677399999999992,
            "durationTicks": 96,
            "midi": 43,
            "name": "G2",
            "ticks": 8832,
            "time": 8.903208,
            "velocity": 0.29133858267716534
          },
          {
            "duration": 0.09677399999999992,
            "durationTicks": 96,
            "midi": 55,
            "name": "G3",
            "ticks": 9024,
            "time": 9.096756,
            "velocity": 0.29133858267716534
          },
          {
            "duration": 0.09677399999999992,
            "durationTicks": 96,
            "midi": 79,
            "name": "G5",
            "ticks": 9024,
            "time": 9.096756,
            "velocity": 0.29133858267716534
          },
          {
            "duration": 0.09677399999999992,
            "durationTicks": 96,
            "midi": 51,
            "name": "D#3",
            "ticks": 9024,
            "time": 9.096756,
            "velocity": 0.29133858267716534
          },
          {
            "duration": 0.09677400000000169,
            "durationTicks": 96,
            "midi": 51,
            "name": "D#3",
            "ticks": 9216,
            "time": 9.290303999999999,
            "velocity": 0.29133858267716534
          },
          {
            "duration": 0.09677400000000169,
            "durationTicks": 96,
            "midi": 82,
            "name": "A#5",
            "ticks": 9216,
            "time": 9.290303999999999,
            "velocity": 0.29133858267716534
          },
          {
            "duration": 0.09677399999999992,
            "durationTicks": 96,
            "midi": 80,
            "name": "G#5",
            "ticks": 9312,
            "time": 9.387078,
            "velocity": 0.29133858267716534
          },
          {
            "duration": 0.09677399999999992,
            "durationTicks": 96,
            "midi": 55,
            "name": "G3",
            "ticks": 9408,
            "time": 9.483852,
            "velocity": 0.29133858267716534
          },
          {
            "duration": 0.09677399999999992,
            "durationTicks": 96,
            "midi": 58,
            "name": "A#3",
            "ticks": 9408,
            "time": 9.483852,
            "velocity": 0.29133858267716534
          },
          {
            "duration": 0.09677399999999992,
            "durationTicks": 96,
            "midi": 79,
            "name": "G5",
            "ticks": 9408,
            "time": 9.483852,
            "velocity": 0.29133858267716534
          },
          {
            "duration": 0.09677399999999992,
            "durationTicks": 96,
            "midi": 77,
            "name": "F5",
            "ticks": 9504,
            "time": 9.580626,
            "velocity": 0.29133858267716534
          },
          {
            "duration": 0.09677399999999992,
            "durationTicks": 96,
            "midi": 75,
            "name": "D#5",
            "ticks": 9600,
            "time": 9.6774,
            "velocity": 0.29133858267716534
          },
          {
            "duration": 0.09677399999999992,
            "durationTicks": 96,
            "midi": 46,
            "name": "A#2",
            "ticks": 9600,
            "time": 9.6774,
            "velocity": 0.29133858267716534
          },
          {
            "duration": 0.09677399999999992,
            "durationTicks": 96,
            "midi": 77,
            "name": "F5",
            "ticks": 9792,
            "time": 9.870948,
            "velocity": 0.29133858267716534
          },
          {
            "duration": 0.09677399999999992,
            "durationTicks": 96,
            "midi": 55,
            "name": "G3",
            "ticks": 9792,
            "time": 9.870948,
            "velocity": 0.29133858267716534
          },
          {
            "duration": 0.09677399999999992,
            "durationTicks": 96,
            "midi": 58,
            "name": "A#3",
            "ticks": 9792,
            "time": 9.870948,
            "velocity": 0.29133858267716534
          },
          {
            "duration": 0.7741919999999993,
            "durationTicks": 768,
            "midi": 79,
            "name": "G5",
            "ticks": 9984,
            "time": 10.064496,
            "velocity": 0.29133858267716534
          },
          {
            "duration": 0.09677399999999992,
            "durationTicks": 96,
            "midi": 51,
            "name": "D#3",
            "ticks": 9984,
            "time": 10.064496,
            "velocity": 0.29133858267716534
          },
          {
            "duration": 0.09677399999999992,
            "durationTicks": 96,
            "midi": 58,
            "name": "A#3",
            "ticks": 10176,
            "time": 10.258044,
            "velocity": 0.29133858267716534
          },
          {
            "duration": 0.09677399999999992,
            "durationTicks": 96,
            "midi": 55,
            "name": "G3",
            "ticks": 10176,
            "time": 10.258044,
            "velocity": 0.29133858267716534
          },
          {
            "duration": 0.09677399999999992,
            "durationTicks": 96,
            "midi": 46,
            "name": "A#2",
            "ticks": 10368,
            "time": 10.451592,
            "velocity": 0.29133858267716534
          },
          {
            "duration": 0.09677399999999992,
            "durationTicks": 96,
            "midi": 55,
            "name": "G3",
            "ticks": 10560,
            "time": 10.64514,
            "velocity": 0.29133858267716534
          },
          {
            "duration": 0.09677399999999992,
            "durationTicks": 96,
            "midi": 58,
            "name": "A#3",
            "ticks": 10560,
            "time": 10.64514,
            "velocity": 0.29133858267716534
          },
          {
            "duration": 0.38709599999999966,
            "durationTicks": 384,
            "midi": 82,
            "name": "A#5",
            "ticks": 10752,
            "time": 10.838688,
            "velocity": 0.29133858267716534
          },
          {
            "duration": 0.09677399999999992,
            "durationTicks": 96,
            "midi": 46,
            "name": "A#2",
            "ticks": 10752,
            "time": 10.838688,
            "velocity": 0.29133858267716534
          },
          {
            "duration": 0.09677399999999992,
            "durationTicks": 96,
            "midi": 53,
            "name": "F3",
            "ticks": 10944,
            "time": 11.032236,
            "velocity": 0.29133858267716534
          },
          {
            "duration": 0.09677399999999992,
            "durationTicks": 96,
            "midi": 50,
            "name": "D3",
            "ticks": 10944,
            "time": 11.032236,
            "velocity": 0.29133858267716534
          },
          {
            "duration": 0.09677399999999992,
            "durationTicks": 96,
            "midi": 41,
            "name": "F2",
            "ticks": 11136,
            "time": 11.225783999999999,
            "velocity": 0.29133858267716534
          },
          {
            "duration": 0.2903220000000015,
            "durationTicks": 288,
            "midi": 82,
            "name": "A#5",
            "ticks": 11136,
            "time": 11.225783999999999,
            "velocity": 0.29133858267716534
          },
          {
            "duration": 0.09677399999999992,
            "durationTicks": 96,
            "midi": 50,
            "name": "D3",
            "ticks": 11328,
            "time": 11.419332,
            "velocity": 0.29133858267716534
          },
          {
            "duration": 0.09677399999999992,
            "durationTicks": 96,
            "midi": 53,
            "name": "F3",
            "ticks": 11328,
            "time": 11.419332,
            "velocity": 0.29133858267716534
          },
          {
            "duration": 0.09677399999999992,
            "durationTicks": 96,
            "midi": 80,
            "name": "G#5",
            "ticks": 11424,
            "time": 11.516106,
            "velocity": 0.29133858267716534
          },
          {
            "duration": 0.19354799999999983,
            "durationTicks": 192,
            "midi": 79,
            "name": "G5",
            "ticks": 11520,
            "time": 11.61288,
            "velocity": 0.29133858267716534
          },
          {
            "duration": 0.09677399999999992,
            "durationTicks": 96,
            "midi": 46,
            "name": "A#2",
            "ticks": 11520,
            "time": 11.61288,
            "velocity": 0.29133858267716534
          },
          {
            "duration": 0.09677399999999992,
            "durationTicks": 96,
            "midi": 77,
            "name": "F5",
            "ticks": 11712,
            "time": 11.806428,
            "velocity": 0.29133858267716534
          },
          {
            "duration": 0.09677399999999992,
            "durationTicks": 96,
            "midi": 50,
            "name": "D3",
            "ticks": 11712,
            "time": 11.806428,
            "velocity": 0.29133858267716534
          },
          {
            "duration": 0.09677399999999992,
            "durationTicks": 96,
            "midi": 53,
            "name": "F3",
            "ticks": 11712,
            "time": 11.806428,
            "velocity": 0.29133858267716534
          },
          {
            "duration": 0.09677399999999992,
            "durationTicks": 96,
            "midi": 41,
            "name": "F2",
            "ticks": 11904,
            "time": 11.999976,
            "velocity": 0.29133858267716534
          },
          {
            "duration": 0.09677399999999992,
            "durationTicks": 96,
            "midi": 75,
            "name": "D#5",
            "ticks": 11904,
            "time": 11.999976,
            "velocity": 0.29133858267716534
          },
          {
            "duration": 0.09677399999999992,
            "durationTicks": 96,
            "midi": 50,
            "name": "D3",
            "ticks": 12096,
            "time": 12.193524,
            "velocity": 0.29133858267716534
          },
          {
            "duration": 0.09677399999999992,
            "durationTicks": 96,
            "midi": 53,
            "name": "F3",
            "ticks": 12096,
            "time": 12.193524,
            "velocity": 0.29133858267716534
          },
          {
            "duration": 0.09677399999999992,
            "durationTicks": 96,
            "midi": 77,
            "name": "F5",
            "ticks": 12096,
            "time": 12.193524,
            "velocity": 0.29133858267716534
          },
          {
            "duration": 0.09677399999999992,
            "durationTicks": 96,
            "midi": 44,
            "name": "G#2",
            "ticks": 12288,
            "time": 12.387072,
            "velocity": 0.29133858267716534
          },
          {
            "duration": 0.09677399999999992,
            "durationTicks": 96,
            "midi": 79,
            "name": "G5",
            "ticks": 12288,
            "time": 12.387072,
            "velocity": 0.29133858267716534
          },
          {
            "duration": 0.09677399999999992,
            "durationTicks": 96,
            "midi": 75,
            "name": "D#5",
            "ticks": 12384,
            "time": 12.483846,
            "velocity": 0.29133858267716534
          },
          {
            "duration": 0.09677399999999992,
            "durationTicks": 96,
            "midi": 51,
            "name": "D#3",
            "ticks": 12480,
            "time": 12.58062,
            "velocity": 0.29133858267716534
          },
          {
            "duration": 0.09677399999999992,
            "durationTicks": 96,
            "midi": 48,
            "name": "C3",
            "ticks": 12480,
            "time": 12.58062,
            "velocity": 0.29133858267716534
          },
          {
            "duration": 0.09677399999999992,
            "durationTicks": 96,
            "midi": 72,
            "name": "C5",
            "ticks": 12480,
            "time": 12.58062,
            "velocity": 0.29133858267716534
          },
          {
            "duration": 0.09677399999999992,
            "durationTicks": 96,
            "midi": 75,
            "name": "D#5",
            "ticks": 12576,
            "time": 12.677394,
            "velocity": 0.29133858267716534
          },
          {
            "duration": 0.09677399999999992,
            "durationTicks": 96,
            "midi": 39,
            "name": "D#2",
            "ticks": 12672,
            "time": 12.774168,
            "velocity": 0.29133858267716534
          },
          {
            "duration": 0.09677399999999992,
            "durationTicks": 96,
            "midi": 79,
            "name": "G5",
            "ticks": 12672,
            "time": 12.774168,
            "velocity": 0.29133858267716534
          },
          {
            "duration": 0.09677399999999992,
            "durationTicks": 96,
            "midi": 77,
            "name": "F5",
            "ticks": 12864,
            "time": 12.967716,
            "velocity": 0.29133858267716534
          },
          {
            "duration": 0.09677399999999992,
            "durationTicks": 96,
            "midi": 48,
            "name": "C3",
            "ticks": 12864,
            "time": 12.967716,
            "velocity": 0.29133858267716534
          },
          {
            "duration": 0.09677399999999992,
            "durationTicks": 96,
            "midi": 51,
            "name": "D#3",
            "ticks": 12864,
            "time": 12.967716,
            "velocity": 0.29133858267716534
          },
          {
            "duration": 0.38709600000000144,
            "durationTicks": 384,
            "midi": 75,
            "name": "D#5",
            "ticks": 13056,
            "time": 13.161264,
            "velocity": 0.29133858267716534
          },
          {
            "duration": 0.09677399999999992,
            "durationTicks": 96,
            "midi": 43,
            "name": "G2",
            "ticks": 13056,
            "time": 13.161264,
            "velocity": 0.29133858267716534
          },
          {
            "duration": 0.09677400000000169,
            "durationTicks": 96,
            "midi": 50,
            "name": "D3",
            "ticks": 13248,
            "time": 13.354811999999999,
            "velocity": 0.29133858267716534
          },
          {
            "duration": 0.09677400000000169,
            "durationTicks": 96,
            "midi": 47,
            "name": "B2",
            "ticks": 13248,
            "time": 13.354811999999999,
            "velocity": 0.29133858267716534
          },
          {
            "duration": 0.38709599999999966,
            "durationTicks": 384,
            "midi": 74,
            "name": "D5",
            "ticks": 13440,
            "time": 13.54836,
            "velocity": 0.29133858267716534
          },
          {
            "duration": 0.09677399999999992,
            "durationTicks": 96,
            "midi": 38,
            "name": "D2",
            "ticks": 13440,
            "time": 13.54836,
            "velocity": 0.29133858267716534
          },
          {
            "duration": 0.09677399999999992,
            "durationTicks": 96,
            "midi": 47,
            "name": "B2",
            "ticks": 13632,
            "time": 13.741908,
            "velocity": 0.29133858267716534
          },
          {
            "duration": 0.09677399999999992,
            "durationTicks": 96,
            "midi": 50,
            "name": "D3",
            "ticks": 13632,
            "time": 13.741908,
            "velocity": 0.29133858267716534
          },
          {
            "duration": 0.09677399999999992,
            "durationTicks": 96,
            "midi": 44,
            "name": "G#2",
            "ticks": 13824,
            "time": 13.935456,
            "velocity": 0.29133858267716534
          },
          {
            "duration": 0.09677399999999992,
            "durationTicks": 96,
            "midi": 51,
            "name": "D#3",
            "ticks": 14016,
            "time": 14.129004,
            "velocity": 0.29133858267716534
          },
          {
            "duration": 0.09677399999999992,
            "durationTicks": 96,
            "midi": 48,
            "name": "C3",
            "ticks": 14016,
            "time": 14.129004,
            "velocity": 0.29133858267716534
          },
          {
            "duration": 0.09677399999999992,
            "durationTicks": 96,
            "midi": 39,
            "name": "D#2",
            "ticks": 14208,
            "time": 14.322552,
            "velocity": 0.29133858267716534
          },
          {
            "duration": 0.09677399999999992,
            "durationTicks": 96,
            "midi": 48,
            "name": "C3",
            "ticks": 14400,
            "time": 14.5161,
            "velocity": 0.29133858267716534
          },
          {
            "duration": 0.09677399999999992,
            "durationTicks": 96,
            "midi": 51,
            "name": "D#3",
            "ticks": 14400,
            "time": 14.5161,
            "velocity": 0.29133858267716534
          },
          {
            "duration": 0.09677399999999992,
            "durationTicks": 96,
            "midi": 44,
            "name": "G#2",
            "ticks": 14592,
            "time": 14.709648,
            "velocity": 0.29133858267716534
          },
          {
            "duration": 0.09677399999999992,
            "durationTicks": 96,
            "midi": 48,
            "name": "C3",
            "ticks": 14784,
            "time": 14.903196,
            "velocity": 0.29133858267716534
          },
          {
            "duration": 0.09677399999999992,
            "durationTicks": 96,
            "midi": 51,
            "name": "D#3",
            "ticks": 14784,
            "time": 14.903196,
            "velocity": 0.29133858267716534
          },
          {
            "duration": 0.09677399999999992,
            "durationTicks": 96,
            "midi": 39,
            "name": "D#2",
            "ticks": 14976,
            "time": 15.096744,
            "velocity": 0.29133858267716534
          },
          {
            "duration": 0.09677399999999992,
            "durationTicks": 96,
            "midi": 51,
            "name": "D#3",
            "ticks": 15168,
            "time": 15.290291999999999,
            "velocity": 0.29133858267716534
          },
          {
            "duration": 0.09677399999999992,
            "durationTicks": 96,
            "midi": 48,
            "name": "C3",
            "ticks": 15168,
            "time": 15.290291999999999,
            "velocity": 0.29133858267716534
          },
          {
            "duration": 0.09677399999999992,
            "durationTicks": 96,
            "midi": 41,
            "name": "F2",
            "ticks": 15360,
            "time": 15.48384,
            "velocity": 0.29133858267716534
          },
          {
            "duration": 0.09677399999999992,
            "durationTicks": 96,
            "midi": 44,
            "name": "G#2",
            "ticks": 15552,
            "time": 15.677388,
            "velocity": 0.29133858267716534
          },
          {
            "duration": 0.09677399999999992,
            "durationTicks": 96,
            "midi": 48,
            "name": "C3",
            "ticks": 15552,
            "time": 15.677388,
            "velocity": 0.29133858267716534
          },
          {
            "duration": 0.09677399999999992,
            "durationTicks": 96,
            "midi": 36,
            "name": "C2",
            "ticks": 15744,
            "time": 15.870936,
            "velocity": 0.29133858267716534
          },
          {
            "duration": 0.09677399999999992,
            "durationTicks": 96,
            "midi": 44,
            "name": "G#2",
            "ticks": 15936,
            "time": 16.064484,
            "velocity": 0.29133858267716534
          },
          {
            "duration": 0.09677399999999992,
            "durationTicks": 96,
            "midi": 48,
            "name": "C3",
            "ticks": 15936,
            "time": 16.064484,
            "velocity": 0.29133858267716534
          },
          {
            "duration": 0.09677399999999992,
            "durationTicks": 96,
            "midi": 41,
            "name": "F2",
            "ticks": 16128,
            "time": 16.258032,
            "velocity": 0.29133858267716534
          },
          {
            "duration": 0.09677399999999992,
            "durationTicks": 96,
            "midi": 44,
            "name": "G#2",
            "ticks": 16320,
            "time": 16.45158,
            "velocity": 0.29133858267716534
          },
          {
            "duration": 0.09677399999999992,
            "durationTicks": 96,
            "midi": 48,
            "name": "C3",
            "ticks": 16320,
            "time": 16.45158,
            "velocity": 0.29133858267716534
          },
          {
            "duration": 0.09677399999999992,
            "durationTicks": 96,
            "midi": 36,
            "name": "C2",
            "ticks": 16512,
            "time": 16.645128,
            "velocity": 0.29133858267716534
          },
          {
            "duration": 0.09677399999999992,
            "durationTicks": 96,
            "midi": 44,
            "name": "G#2",
            "ticks": 16704,
            "time": 16.838676,
            "velocity": 0.29133858267716534
          },
          {
            "duration": 0.09677399999999992,
            "durationTicks": 96,
            "midi": 48,
            "name": "C3",
            "ticks": 16704,
            "time": 16.838676,
            "velocity": 0.29133858267716534
          },
          {
            "duration": 0.09677399999999992,
            "durationTicks": 96,
            "midi": 46,
            "name": "A#2",
            "ticks": 16896,
            "time": 17.032224,
            "velocity": 0.29133858267716534
          },
          {
            "duration": 0.09677399999999992,
            "durationTicks": 96,
            "midi": 53,
            "name": "F3",
            "ticks": 17088,
            "time": 17.225772,
            "velocity": 0.29133858267716534
          },
          {
            "duration": 0.09677399999999992,
            "durationTicks": 96,
            "midi": 50,
            "name": "D3",
            "ticks": 17088,
            "time": 17.225772,
            "velocity": 0.29133858267716534
          },
          {
            "duration": 0.09677399999999992,
            "durationTicks": 96,
            "midi": 41,
            "name": "F2",
            "ticks": 17280,
            "time": 17.41932,
            "velocity": 0.29133858267716534
          },
          {
            "duration": 0.09677399999999992,
            "durationTicks": 96,
            "midi": 50,
            "name": "D3",
            "ticks": 17472,
            "time": 17.612868,
            "velocity": 0.29133858267716534
          },
          {
            "duration": 0.09677399999999992,
            "durationTicks": 96,
            "midi": 53,
            "name": "F3",
            "ticks": 17472,
            "time": 17.612868,
            "velocity": 0.29133858267716534
          },
          {
            "duration": 0.09677399999999992,
            "durationTicks": 96,
            "midi": 46,
            "name": "A#2",
            "ticks": 17664,
            "time": 17.806416,
            "velocity": 0.29133858267716534
          },
          {
            "duration": 0.09677399999999992,
            "durationTicks": 96,
            "midi": 50,
            "name": "D3",
            "ticks": 17856,
            "time": 17.999964,
            "velocity": 0.29133858267716534
          },
          {
            "duration": 0.09677399999999992,
            "durationTicks": 96,
            "midi": 53,
            "name": "F3",
            "ticks": 17856,
            "time": 17.999964,
            "velocity": 0.29133858267716534
          },
          {
            "duration": 0.09677399999999992,
            "durationTicks": 96,
            "midi": 41,
            "name": "F2",
            "ticks": 18048,
            "time": 18.193512,
            "velocity": 0.29133858267716534
          },
          {
            "duration": 0.09677399999999992,
            "durationTicks": 96,
            "midi": 50,
            "name": "D3",
            "ticks": 18240,
            "time": 18.387059999999998,
            "velocity": 0.29133858267716534
          },
          {
            "duration": 0.09677399999999992,
            "durationTicks": 96,
            "midi": 53,
            "name": "F3",
            "ticks": 18240,
            "time": 18.387059999999998,
            "velocity": 0.29133858267716534
          },
          {
            "duration": 0.09677400000000347,
            "durationTicks": 96,
            "midi": 44,
            "name": "G#2",
            "ticks": 18432,
            "time": 18.580607999999998,
            "velocity": 0.29133858267716534
          },
          {
            "duration": 0.09677399999999992,
            "durationTicks": 96,
            "midi": 48,
            "name": "C3",
            "ticks": 18624,
            "time": 18.774156,
            "velocity": 0.29133858267716534
          },
          {
            "duration": 0.09677399999999992,
            "durationTicks": 96,
            "midi": 51,
            "name": "D#3",
            "ticks": 18624,
            "time": 18.774156,
            "velocity": 0.29133858267716534
          },
          {
            "duration": 0.09677399999999992,
            "durationTicks": 96,
            "midi": 39,
            "name": "D#2",
            "ticks": 18816,
            "time": 18.967704,
            "velocity": 0.29133858267716534
          },
          {
            "duration": 0.09677399999999992,
            "durationTicks": 96,
            "midi": 51,
            "name": "D#3",
            "ticks": 19008,
            "time": 19.161252,
            "velocity": 0.29133858267716534
          },
          {
            "duration": 0.09677399999999992,
            "durationTicks": 96,
            "midi": 48,
            "name": "C3",
            "ticks": 19008,
            "time": 19.161252,
            "velocity": 0.29133858267716534
          },
          {
            "duration": 0.09677399999999992,
            "durationTicks": 96,
            "midi": 43,
            "name": "G2",
            "ticks": 19200,
            "time": 19.3548,
            "velocity": 0.29133858267716534
          },
          {
            "duration": 0.09677399999999992,
            "durationTicks": 96,
            "midi": 47,
            "name": "B2",
            "ticks": 19392,
            "time": 19.548348,
            "velocity": 0.29133858267716534
          },
          {
            "duration": 0.09677399999999992,
            "durationTicks": 96,
            "midi": 50,
            "name": "D3",
            "ticks": 19392,
            "time": 19.548348,
            "velocity": 0.29133858267716534
          },
          {
            "duration": 0.09677399999999992,
            "durationTicks": 96,
            "midi": 38,
            "name": "D2",
            "ticks": 19584,
            "time": 19.741896,
            "velocity": 0.29133858267716534
          },
          {
            "duration": 0.09677399999999992,
            "durationTicks": 96,
            "midi": 47,
            "name": "B2",
            "ticks": 19776,
            "time": 19.935444,
            "velocity": 0.29133858267716534
          },
          {
            "duration": 0.09677399999999992,
            "durationTicks": 96,
            "midi": 50,
            "name": "D3",
            "ticks": 19776,
            "time": 19.935444,
            "velocity": 0.29133858267716534
          },
          {
            "duration": 0.09677399999999992,
            "durationTicks": 96,
            "midi": 44,
            "name": "G#2",
            "ticks": 19968,
            "time": 20.128992,
            "velocity": 0.29133858267716534
          },
          {
            "duration": 0.09677399999999992,
            "durationTicks": 96,
            "midi": 48,
            "name": "C3",
            "ticks": 20160,
            "time": 20.32254,
            "velocity": 0.29133858267716534
          },
          {
            "duration": 0.09677399999999992,
            "durationTicks": 96,
            "midi": 51,
            "name": "D#3",
            "ticks": 20160,
            "time": 20.32254,
            "velocity": 0.29133858267716534
          },
          {
            "duration": 0.09677399999999992,
            "durationTicks": 96,
            "midi": 39,
            "name": "D#2",
            "ticks": 20352,
            "time": 20.516088,
            "velocity": 0.29133858267716534
          },
          {
            "duration": 0.09677399999999992,
            "durationTicks": 96,
            "midi": 48,
            "name": "C3",
            "ticks": 20544,
            "time": 20.709636,
            "velocity": 0.29133858267716534
          },
          {
            "duration": 0.09677399999999992,
            "durationTicks": 96,
            "midi": 51,
            "name": "D#3",
            "ticks": 20544,
            "time": 20.709636,
            "velocity": 0.29133858267716534
          },
          {
            "duration": 0.09677399999999992,
            "durationTicks": 96,
            "midi": 44,
            "name": "G#2",
            "ticks": 20736,
            "time": 20.903184,
            "velocity": 0.29133858267716534
          },
          {
            "duration": 0.09677399999999992,
            "durationTicks": 96,
            "midi": 48,
            "name": "C3",
            "ticks": 20928,
            "time": 21.096732,
            "velocity": 0.29133858267716534
          },
          {
            "duration": 0.09677399999999992,
            "durationTicks": 96,
            "midi": 51,
            "name": "D#3",
            "ticks": 20928,
            "time": 21.096732,
            "velocity": 0.29133858267716534
          },
          {
            "duration": 0.09677399999999992,
            "durationTicks": 96,
            "midi": 39,
            "name": "D#2",
            "ticks": 21120,
            "time": 21.29028,
            "velocity": 0.29133858267716534
          },
          {
            "duration": 0.09677399999999992,
            "durationTicks": 96,
            "midi": 48,
            "name": "C3",
            "ticks": 21312,
            "time": 21.483828,
            "velocity": 0.29133858267716534
          },
          {
            "duration": 0.09677399999999992,
            "durationTicks": 96,
            "midi": 51,
            "name": "D#3",
            "ticks": 21312,
            "time": 21.483828,
            "velocity": 0.29133858267716534
          },
          {
            "duration": 0.09677399999999992,
            "durationTicks": 96,
            "midi": 41,
            "name": "F2",
            "ticks": 21504,
            "time": 21.677376,
            "velocity": 0.29133858267716534
          },
          {
            "duration": 0.09677399999999992,
            "durationTicks": 96,
            "midi": 44,
            "name": "G#2",
            "ticks": 21696,
            "time": 21.870924,
            "velocity": 0.29133858267716534
          },
          {
            "duration": 0.09677399999999992,
            "durationTicks": 96,
            "midi": 48,
            "name": "C3",
            "ticks": 21696,
            "time": 21.870924,
            "velocity": 0.29133858267716534
          },
          {
            "duration": 0.09677399999999992,
            "durationTicks": 96,
            "midi": 36,
            "name": "C2",
            "ticks": 21888,
            "time": 22.064472,
            "velocity": 0.29133858267716534
          },
          {
            "duration": 0.09677399999999992,
            "durationTicks": 96,
            "midi": 44,
            "name": "G#2",
            "ticks": 22080,
            "time": 22.25802,
            "velocity": 0.29133858267716534
          },
          {
            "duration": 0.09677399999999992,
            "durationTicks": 96,
            "midi": 48,
            "name": "C3",
            "ticks": 22080,
            "time": 22.25802,
            "velocity": 0.29133858267716534
          },
          {
            "duration": 0.09677399999999992,
            "durationTicks": 96,
            "midi": 41,
            "name": "F2",
            "ticks": 22272,
            "time": 22.451567999999998,
            "velocity": 0.29133858267716534
          },
          {
            "duration": 0.09677400000000347,
            "durationTicks": 96,
            "midi": 44,
            "name": "G#2",
            "ticks": 22464,
            "time": 22.645115999999998,
            "velocity": 0.29133858267716534
          },
          {
            "duration": 0.09677400000000347,
            "durationTicks": 96,
            "midi": 48,
            "name": "C3",
            "ticks": 22464,
            "time": 22.645115999999998,
            "velocity": 0.29133858267716534
          },
          {
            "duration": 0.09677399999999992,
            "durationTicks": 96,
            "midi": 36,
            "name": "C2",
            "ticks": 22656,
            "time": 22.838664,
            "velocity": 0.29133858267716534
          },
          {
            "duration": 0.09677399999999992,
            "durationTicks": 96,
            "midi": 44,
            "name": "G#2",
            "ticks": 22848,
            "time": 23.032212,
            "velocity": 0.29133858267716534
          },
          {
            "duration": 0.09677399999999992,
            "durationTicks": 96,
            "midi": 48,
            "name": "C3",
            "ticks": 22848,
            "time": 23.032212,
            "velocity": 0.29133858267716534
          },
          {
            "duration": 0.09677399999999992,
            "durationTicks": 96,
            "midi": 46,
            "name": "A#2",
            "ticks": 23040,
            "time": 23.22576,
            "velocity": 0.29133858267716534
          },
          {
            "duration": 0.09677399999999992,
            "durationTicks": 96,
            "midi": 50,
            "name": "D3",
            "ticks": 23232,
            "time": 23.419308,
            "velocity": 0.29133858267716534
          },
          {
            "duration": 0.09677399999999992,
            "durationTicks": 96,
            "midi": 53,
            "name": "F3",
            "ticks": 23232,
            "time": 23.419308,
            "velocity": 0.29133858267716534
          },
          {
            "duration": 0.09677399999999992,
            "durationTicks": 96,
            "midi": 41,
            "name": "F2",
            "ticks": 23424,
            "time": 23.612856,
            "velocity": 0.29133858267716534
          },
          {
            "duration": 0.09677399999999992,
            "durationTicks": 96,
            "midi": 50,
            "name": "D3",
            "ticks": 23616,
            "time": 23.806404,
            "velocity": 0.29133858267716534
          },
          {
            "duration": 0.09677399999999992,
            "durationTicks": 96,
            "midi": 53,
            "name": "F3",
            "ticks": 23616,
            "time": 23.806404,
            "velocity": 0.29133858267716534
          },
          {
            "duration": 0.09677399999999992,
            "durationTicks": 96,
            "midi": 46,
            "name": "A#2",
            "ticks": 23808,
            "time": 23.999952,
            "velocity": 0.29133858267716534
          },
          {
            "duration": 0.09677399999999992,
            "durationTicks": 96,
            "midi": 50,
            "name": "D3",
            "ticks": 24000,
            "time": 24.1935,
            "velocity": 0.29133858267716534
          },
          {
            "duration": 0.09677399999999992,
            "durationTicks": 96,
            "midi": 53,
            "name": "F3",
            "ticks": 24000,
            "time": 24.1935,
            "velocity": 0.29133858267716534
          },
          {
            "duration": 0.09677399999999992,
            "durationTicks": 96,
            "midi": 41,
            "name": "F2",
            "ticks": 24192,
            "time": 24.387048,
            "velocity": 0.29133858267716534
          },
          {
            "duration": 0.09677399999999992,
            "durationTicks": 96,
            "midi": 53,
            "name": "F3",
            "ticks": 24384,
            "time": 24.580596,
            "velocity": 0.29133858267716534
          },
          {
            "duration": 0.09677399999999992,
            "durationTicks": 96,
            "midi": 50,
            "name": "D3",
            "ticks": 24384,
            "time": 24.580596,
            "velocity": 0.29133858267716534
          },
          {
            "duration": 0.09677399999999992,
            "durationTicks": 96,
            "midi": 55,
            "name": "G3",
            "ticks": 24576,
            "time": 24.774144,
            "velocity": 0.29133858267716534
          },
          {
            "duration": 0.09677399999999992,
            "durationTicks": 96,
            "midi": 43,
            "name": "G2",
            "ticks": 24576,
            "time": 24.774144,
            "velocity": 0.29133858267716534
          },
          {
            "duration": 0.09677399999999992,
            "durationTicks": 96,
            "midi": 44,
            "name": "G#2",
            "ticks": 24960,
            "time": 25.16124,
            "velocity": 0.29133858267716534
          },
          {
            "duration": 0.09677399999999992,
            "durationTicks": 96,
            "midi": 56,
            "name": "G#3",
            "ticks": 24960,
            "time": 25.16124,
            "velocity": 0.29133858267716534
          },
          {
            "duration": 0.09677399999999992,
            "durationTicks": 96,
            "midi": 55,
            "name": "G3",
            "ticks": 25344,
            "time": 25.548336,
            "velocity": 0.29133858267716534
          },
          {
            "duration": 0.09677399999999992,
            "durationTicks": 96,
            "midi": 43,
            "name": "G2",
            "ticks": 25344,
            "time": 25.548336,
            "velocity": 0.29133858267716534
          },
          {
            "duration": 0.09677399999999992,
            "durationTicks": 96,
            "midi": 56,
            "name": "G#3",
            "ticks": 25728,
            "time": 25.935432,
            "velocity": 0.29133858267716534
          },
          {
            "duration": 0.09677399999999992,
            "durationTicks": 96,
            "midi": 44,
            "name": "G#2",
            "ticks": 25728,
            "time": 25.935432,
            "velocity": 0.29133858267716534
          },
          {
            "duration": 0.09677399999999992,
            "durationTicks": 96,
            "midi": 43,
            "name": "G2",
            "ticks": 26112,
            "time": 26.322528,
            "velocity": 0.29133858267716534
          },
          {
            "duration": 0.09677399999999992,
            "durationTicks": 96,
            "midi": 55,
            "name": "G3",
            "ticks": 26112,
            "time": 26.322528,
            "velocity": 0.29133858267716534
          },
          {
            "duration": 0.09677399999999992,
            "durationTicks": 96,
            "midi": 44,
            "name": "G#2",
            "ticks": 26304,
            "time": 26.516075999999998,
            "velocity": 0.29133858267716534
          },
          {
            "duration": 0.09677399999999992,
            "durationTicks": 96,
            "midi": 56,
            "name": "G#3",
            "ticks": 26304,
            "time": 26.516075999999998,
            "velocity": 0.29133858267716534
          },
          {
            "duration": 0.09677399999999992,
            "durationTicks": 96,
            "midi": 55,
            "name": "G3",
            "ticks": 26496,
            "time": 26.709623999999998,
            "velocity": 0.29133858267716534
          },
          {
            "duration": 0.09677399999999992,
            "durationTicks": 96,
            "midi": 43,
            "name": "G2",
            "ticks": 26496,
            "time": 26.709623999999998,
            "velocity": 0.29133858267716534
          },
          {
            "duration": 0.09677399999999992,
            "durationTicks": 96,
            "midi": 44,
            "name": "G#2",
            "ticks": 26688,
            "time": 26.903172,
            "velocity": 0.29133858267716534
          },
          {
            "duration": 0.09677399999999992,
            "durationTicks": 96,
            "midi": 56,
            "name": "G#3",
            "ticks": 26688,
            "time": 26.903172,
            "velocity": 0.29133858267716534
          },
          {
            "duration": 0.09677399999999992,
            "durationTicks": 96,
            "midi": 55,
            "name": "G3",
            "ticks": 26880,
            "time": 27.09672,
            "velocity": 0.29133858267716534
          },
          {
            "duration": 0.09677399999999992,
            "durationTicks": 96,
            "midi": 43,
            "name": "G2",
            "ticks": 26880,
            "time": 27.09672,
            "velocity": 0.29133858267716534
          },
          {
            "duration": 0.09677399999999992,
            "durationTicks": 96,
            "midi": 56,
            "name": "G#3",
            "ticks": 27072,
            "time": 27.290268,
            "velocity": 0.29133858267716534
          },
          {
            "duration": 0.09677399999999992,
            "durationTicks": 96,
            "midi": 44,
            "name": "G#2",
            "ticks": 27072,
            "time": 27.290268,
            "velocity": 0.29133858267716534
          },
          {
            "duration": 0.09677399999999992,
            "durationTicks": 96,
            "midi": 55,
            "name": "G3",
            "ticks": 27264,
            "time": 27.483816,
            "velocity": 0.29133858267716534
          },
          {
            "duration": 0.09677399999999992,
            "durationTicks": 96,
            "midi": 43,
            "name": "G2",
            "ticks": 27264,
            "time": 27.483816,
            "velocity": 0.29133858267716534
          },
          {
            "duration": 0.09677399999999992,
            "durationTicks": 96,
            "midi": 56,
            "name": "G#3",
            "ticks": 27456,
            "time": 27.677364,
            "velocity": 0.29133858267716534
          },
          {
            "duration": 0.09677399999999992,
            "durationTicks": 96,
            "midi": 44,
            "name": "G#2",
            "ticks": 27456,
            "time": 27.677364,
            "velocity": 0.29133858267716534
          },
          {
            "duration": 0.09677399999999992,
            "durationTicks": 96,
            "midi": 43,
            "name": "G2",
            "ticks": 27648,
            "time": 27.870912,
            "velocity": 0.29133858267716534
          },
          {
            "duration": 0.09677399999999992,
            "durationTicks": 96,
            "midi": 55,
            "name": "G3",
            "ticks": 27648,
            "time": 27.870912,
            "velocity": 0.29133858267716534
          },
          {
            "duration": 0.09677399999999992,
            "durationTicks": 96,
            "midi": 44,
            "name": "G#2",
            "ticks": 27840,
            "time": 28.06446,
            "velocity": 0.29133858267716534
          },
          {
            "duration": 0.09677399999999992,
            "durationTicks": 96,
            "midi": 56,
            "name": "G#3",
            "ticks": 27840,
            "time": 28.06446,
            "velocity": 0.29133858267716534
          },
          {
            "duration": 0.09677399999999992,
            "durationTicks": 96,
            "midi": 55,
            "name": "G3",
            "ticks": 28032,
            "time": 28.258008,
            "velocity": 0.29133858267716534
          },
          {
            "duration": 0.09677399999999992,
            "durationTicks": 96,
            "midi": 43,
            "name": "G2",
            "ticks": 28032,
            "time": 28.258008,
            "velocity": 0.29133858267716534
          },
          {
            "duration": 0.09677399999999992,
            "durationTicks": 96,
            "midi": 44,
            "name": "G#2",
            "ticks": 28224,
            "time": 28.451556,
            "velocity": 0.29133858267716534
          },
          {
            "duration": 0.09677399999999992,
            "durationTicks": 96,
            "midi": 56,
            "name": "G#3",
            "ticks": 28224,
            "time": 28.451556,
            "velocity": 0.29133858267716534
          },
          {
            "duration": 0.09677399999999992,
            "durationTicks": 96,
            "midi": 43,
            "name": "G2",
            "ticks": 28416,
            "time": 28.645104,
            "velocity": 0.29133858267716534
          },
          {
            "duration": 0.09677399999999992,
            "durationTicks": 96,
            "midi": 55,
            "name": "G3",
            "ticks": 28416,
            "time": 28.645104,
            "velocity": 0.29133858267716534
          },
          {
            "duration": 0.09677399999999992,
            "durationTicks": 96,
            "midi": 56,
            "name": "G#3",
            "ticks": 28608,
            "time": 28.838652,
            "velocity": 0.29133858267716534
          },
          {
            "duration": 0.09677399999999992,
            "durationTicks": 96,
            "midi": 44,
            "name": "G#2",
            "ticks": 28608,
            "time": 28.838652,
            "velocity": 0.29133858267716534
          },
          {
            "duration": 0.09677399999999992,
            "durationTicks": 96,
            "midi": 45,
            "name": "A2",
            "ticks": 28800,
            "time": 29.0322,
            "velocity": 0.29133858267716534
          },
          {
            "duration": 0.09677399999999992,
            "durationTicks": 96,
            "midi": 57,
            "name": "A3",
            "ticks": 28800,
            "time": 29.0322,
            "velocity": 0.29133858267716534
          },
          {
            "duration": 0.09677399999999992,
            "durationTicks": 96,
            "midi": 59,
            "name": "B3",
            "ticks": 28992,
            "time": 29.225748,
            "velocity": 0.29133858267716534
          },
          {
            "duration": 0.09677399999999992,
            "durationTicks": 96,
            "midi": 47,
            "name": "B2",
            "ticks": 28992,
            "time": 29.225748,
            "velocity": 0.29133858267716534
          },
          {
            "duration": 0.09677399999999992,
            "durationTicks": 96,
            "midi": 48,
            "name": "C3",
            "ticks": 29184,
            "time": 29.419296,
            "velocity": 0.29133858267716534
          },
          {
            "duration": 0.09677399999999992,
            "durationTicks": 96,
            "midi": 55,
            "name": "G3",
            "ticks": 29376,
            "time": 29.612844,
            "velocity": 0.29133858267716534
          },
          {
            "duration": 0.09677399999999992,
            "durationTicks": 96,
            "midi": 51,
            "name": "D#3",
            "ticks": 29376,
            "time": 29.612844,
            "velocity": 0.29133858267716534
          },
          {
            "duration": 0.09677399999999992,
            "durationTicks": 96,
            "midi": 43,
            "name": "G2",
            "ticks": 29568,
            "time": 29.806392,
            "velocity": 0.29133858267716534
          },
          {
            "duration": 0.09677399999999992,
            "durationTicks": 96,
            "midi": 51,
            "name": "D#3",
            "ticks": 29760,
            "time": 29.99994,
            "velocity": 0.29133858267716534
          },
          {
            "duration": 0.09677399999999992,
            "durationTicks": 96,
            "midi": 55,
            "name": "G3",
            "ticks": 29760,
            "time": 29.99994,
            "velocity": 0.29133858267716534
          },
          {
            "duration": 0.09677399999999992,
            "durationTicks": 96,
            "midi": 48,
            "name": "C3",
            "ticks": 29952,
            "time": 30.193488,
            "velocity": 0.29133858267716534
          },
          {
            "duration": 0.09677399999999992,
            "durationTicks": 96,
            "midi": 51,
            "name": "D#3",
            "ticks": 30144,
            "time": 30.387036,
            "velocity": 0.29133858267716534
          },
          {
            "duration": 0.09677399999999992,
            "durationTicks": 96,
            "midi": 55,
            "name": "G3",
            "ticks": 30144,
            "time": 30.387036,
            "velocity": 0.29133858267716534
          },
          {
            "duration": 0.09677399999999992,
            "durationTicks": 96,
            "midi": 43,
            "name": "G2",
            "ticks": 30336,
            "time": 30.580583999999998,
            "velocity": 0.29133858267716534
          },
          {
            "duration": 0.09677399999999992,
            "durationTicks": 96,
            "midi": 51,
            "name": "D#3",
            "ticks": 30528,
            "time": 30.774131999999998,
            "velocity": 0.29133858267716534
          },
          {
            "duration": 0.09677399999999992,
            "durationTicks": 96,
            "midi": 55,
            "name": "G3",
            "ticks": 30528,
            "time": 30.774131999999998,
            "velocity": 0.29133858267716534
          },
          {
            "duration": 0.09677399999999992,
            "durationTicks": 96,
            "midi": 51,
            "name": "D#3",
            "ticks": 30720,
            "time": 30.96768,
            "velocity": 0.29133858267716534
          },
          {
            "duration": 0.09677399999999992,
            "durationTicks": 96,
            "midi": 55,
            "name": "G3",
            "ticks": 30912,
            "time": 31.161228,
            "velocity": 0.29133858267716534
          },
          {
            "duration": 0.09677399999999992,
            "durationTicks": 96,
            "midi": 58,
            "name": "A#3",
            "ticks": 30912,
            "time": 31.161228,
            "velocity": 0.29133858267716534
          },
          {
            "duration": 0.09677399999999992,
            "durationTicks": 96,
            "midi": 46,
            "name": "A#2",
            "ticks": 31104,
            "time": 31.354776,
            "velocity": 0.29133858267716534
          },
          {
            "duration": 0.09677399999999992,
            "durationTicks": 96,
            "midi": 55,
            "name": "G3",
            "ticks": 31296,
            "time": 31.548324,
            "velocity": 0.29133858267716534
          },
          {
            "duration": 0.09677399999999992,
            "durationTicks": 96,
            "midi": 58,
            "name": "A#3",
            "ticks": 31296,
            "time": 31.548324,
            "velocity": 0.29133858267716534
          },
          {
            "duration": 0.09677399999999992,
            "durationTicks": 96,
            "midi": 51,
            "name": "D#3",
            "ticks": 31488,
            "time": 31.741872,
            "velocity": 0.29133858267716534
          },
          {
            "duration": 0.09677399999999636,
            "durationTicks": 96,
            "midi": 55,
            "name": "G3",
            "ticks": 31680,
            "time": 31.93542,
            "velocity": 0.29133858267716534
          },
          {
            "duration": 0.09677399999999636,
            "durationTicks": 96,
            "midi": 58,
            "name": "A#3",
            "ticks": 31680,
            "time": 31.93542,
            "velocity": 0.29133858267716534
          },
          {
            "duration": 0.09677399999999636,
            "durationTicks": 96,
            "midi": 46,
            "name": "A#2",
            "ticks": 31872,
            "time": 32.128968,
            "velocity": 0.29133858267716534
          },
          {
            "duration": 0.09677399999999636,
            "durationTicks": 96,
            "midi": 55,
            "name": "G3",
            "ticks": 32064,
            "time": 32.322516,
            "velocity": 0.29133858267716534
          },
          {
            "duration": 0.09677399999999636,
            "durationTicks": 96,
            "midi": 58,
            "name": "A#3",
            "ticks": 32064,
            "time": 32.322516,
            "velocity": 0.29133858267716534
          },
          {
            "duration": 0.09677399999999636,
            "durationTicks": 96,
            "midi": 46,
            "name": "A#2",
            "ticks": 32256,
            "time": 32.516064,
            "velocity": 0.29133858267716534
          },
          {
            "duration": 0.09677399999999636,
            "durationTicks": 96,
            "midi": 53,
            "name": "F3",
            "ticks": 32448,
            "time": 32.709612,
            "velocity": 0.29133858267716534
          },
          {
            "duration": 0.09677399999999636,
            "durationTicks": 96,
            "midi": 50,
            "name": "D3",
            "ticks": 32448,
            "time": 32.709612,
            "velocity": 0.29133858267716534
          },
          {
            "duration": 0.09677399999999636,
            "durationTicks": 96,
            "midi": 41,
            "name": "F2",
            "ticks": 32640,
            "time": 32.90316,
            "velocity": 0.29133858267716534
          },
          {
            "duration": 0.09677400000000347,
            "durationTicks": 96,
            "midi": 50,
            "name": "D3",
            "ticks": 32832,
            "time": 33.096708,
            "velocity": 0.29133858267716534
          },
          {
            "duration": 0.09677400000000347,
            "durationTicks": 96,
            "midi": 53,
            "name": "F3",
            "ticks": 32832,
            "time": 33.096708,
            "velocity": 0.29133858267716534
          },
          {
            "duration": 0.09677400000000347,
            "durationTicks": 96,
            "midi": 46,
            "name": "A#2",
            "ticks": 33024,
            "time": 33.290256,
            "velocity": 0.29133858267716534
          },
          {
            "duration": 0.09677400000000347,
            "durationTicks": 96,
            "midi": 53,
            "name": "F3",
            "ticks": 33216,
            "time": 33.483804,
            "velocity": 0.29133858267716534
          },
          {
            "duration": 0.09677400000000347,
            "durationTicks": 96,
            "midi": 50,
            "name": "D3",
            "ticks": 33216,
            "time": 33.483804,
            "velocity": 0.29133858267716534
          },
          {
            "duration": 0.09677400000000347,
            "durationTicks": 96,
            "midi": 41,
            "name": "F2",
            "ticks": 33408,
            "time": 33.677352,
            "velocity": 0.29133858267716534
          },
          {
            "duration": 0.09677400000000347,
            "durationTicks": 96,
            "midi": 53,
            "name": "F3",
            "ticks": 33600,
            "time": 33.8709,
            "velocity": 0.29133858267716534
          },
          {
            "duration": 0.09677400000000347,
            "durationTicks": 96,
            "midi": 50,
            "name": "D3",
            "ticks": 33600,
            "time": 33.8709,
            "velocity": 0.29133858267716534
          },
          {
            "duration": 0.09677400000000347,
            "durationTicks": 96,
            "midi": 44,
            "name": "G#2",
            "ticks": 33792,
            "time": 34.064448,
            "velocity": 0.29133858267716534
          },
          {
            "duration": 0.09677400000000347,
            "durationTicks": 96,
            "midi": 48,
            "name": "C3",
            "ticks": 33984,
            "time": 34.257996,
            "velocity": 0.29133858267716534
          },
          {
            "duration": 0.09677400000000347,
            "durationTicks": 96,
            "midi": 51,
            "name": "D#3",
            "ticks": 33984,
            "time": 34.257996,
            "velocity": 0.29133858267716534
          },
          {
            "duration": 0.09677400000000347,
            "durationTicks": 96,
            "midi": 39,
            "name": "D#2",
            "ticks": 34176,
            "time": 34.451544,
            "velocity": 0.29133858267716534
          },
          {
            "duration": 0.09677400000000347,
            "durationTicks": 96,
            "midi": 51,
            "name": "D#3",
            "ticks": 34368,
            "time": 34.645092,
            "velocity": 0.29133858267716534
          },
          {
            "duration": 0.09677400000000347,
            "durationTicks": 96,
            "midi": 48,
            "name": "C3",
            "ticks": 34368,
            "time": 34.645092,
            "velocity": 0.29133858267716534
          },
          {
            "duration": 0.09677400000000347,
            "durationTicks": 96,
            "midi": 43,
            "name": "G2",
            "ticks": 34560,
            "time": 34.83864,
            "velocity": 0.29133858267716534
          },
          {
            "duration": 0.09677400000000347,
            "durationTicks": 96,
            "midi": 47,
            "name": "B2",
            "ticks": 34752,
            "time": 35.032188,
            "velocity": 0.29133858267716534
          },
          {
            "duration": 0.09677400000000347,
            "durationTicks": 96,
            "midi": 50,
            "name": "D3",
            "ticks": 34752,
            "time": 35.032188,
            "velocity": 0.29133858267716534
          },
          {
            "duration": 0.09677400000000347,
            "durationTicks": 96,
            "midi": 38,
            "name": "D2",
            "ticks": 34944,
            "time": 35.225736,
            "velocity": 0.29133858267716534
          },
          {
            "duration": 0.09677400000000347,
            "durationTicks": 96,
            "midi": 47,
            "name": "B2",
            "ticks": 35136,
            "time": 35.419284,
            "velocity": 0.29133858267716534
          },
          {
            "duration": 0.09677400000000347,
            "durationTicks": 96,
            "midi": 50,
            "name": "D3",
            "ticks": 35136,
            "time": 35.419284,
            "velocity": 0.29133858267716534
          },
          {
            "duration": 0.09677400000000347,
            "durationTicks": 96,
            "midi": 48,
            "name": "C3",
            "ticks": 35328,
            "time": 35.612832,
            "velocity": 0.29133858267716534
          },
          {
            "duration": 0.09677400000000347,
            "durationTicks": 96,
            "midi": 51,
            "name": "D#3",
            "ticks": 35520,
            "time": 35.80638,
            "velocity": 0.29133858267716534
          },
          {
            "duration": 0.09677400000000347,
            "durationTicks": 96,
            "midi": 55,
            "name": "G3",
            "ticks": 35520,
            "time": 35.80638,
            "velocity": 0.29133858267716534
          },
          {
            "duration": 0.09677400000000347,
            "durationTicks": 96,
            "midi": 43,
            "name": "G2",
            "ticks": 35712,
            "time": 35.999928,
            "velocity": 0.29133858267716534
          },
          {
            "duration": 0.09677400000000347,
            "durationTicks": 96,
            "midi": 51,
            "name": "D#3",
            "ticks": 35904,
            "time": 36.193476,
            "velocity": 0.29133858267716534
          },
          {
            "duration": 0.09677400000000347,
            "durationTicks": 96,
            "midi": 55,
            "name": "G3",
            "ticks": 35904,
            "time": 36.193476,
            "velocity": 0.29133858267716534
          },
          {
            "duration": 0.09677400000000347,
            "durationTicks": 96,
            "midi": 48,
            "name": "C3",
            "ticks": 36096,
            "time": 36.387024,
            "velocity": 0.29133858267716534
          },
          {
            "duration": 0.09677400000000347,
            "durationTicks": 96,
            "midi": 55,
            "name": "G3",
            "ticks": 36288,
            "time": 36.580572,
            "velocity": 0.29133858267716534
          },
          {
            "duration": 0.09677400000000347,
            "durationTicks": 96,
            "midi": 51,
            "name": "D#3",
            "ticks": 36288,
            "time": 36.580572,
            "velocity": 0.29133858267716534
          },
          {
            "duration": 0.09677400000000347,
            "durationTicks": 96,
            "midi": 43,
            "name": "G2",
            "ticks": 36480,
            "time": 36.774119999999996,
            "velocity": 0.29133858267716534
          },
          {
            "duration": 0.09677400000000347,
            "durationTicks": 96,
            "midi": 51,
            "name": "D#3",
            "ticks": 36672,
            "time": 36.967667999999996,
            "velocity": 0.29133858267716534
          },
          {
            "duration": 0.09677400000000347,
            "durationTicks": 96,
            "midi": 55,
            "name": "G3",
            "ticks": 36672,
            "time": 36.967667999999996,
            "velocity": 0.29133858267716534
          },
          {
            "duration": 0.09677400000000347,
            "durationTicks": 96,
            "midi": 51,
            "name": "D#3",
            "ticks": 36864,
            "time": 37.161215999999996,
            "velocity": 0.29133858267716534
          },
          {
            "duration": 0.09677399999999636,
            "durationTicks": 96,
            "midi": 55,
            "name": "G3",
            "ticks": 37056,
            "time": 37.354764,
            "velocity": 0.29133858267716534
          },
          {
            "duration": 0.09677399999999636,
            "durationTicks": 96,
            "midi": 58,
            "name": "A#3",
            "ticks": 37056,
            "time": 37.354764,
            "velocity": 0.29133858267716534
          },
          {
            "duration": 0.09677399999999636,
            "durationTicks": 96,
            "midi": 46,
            "name": "A#2",
            "ticks": 37248,
            "time": 37.548312,
            "velocity": 0.29133858267716534
          },
          {
            "duration": 0.09677399999999636,
            "durationTicks": 96,
            "midi": 58,
            "name": "A#3",
            "ticks": 37440,
            "time": 37.74186,
            "velocity": 0.29133858267716534
          },
          {
            "duration": 0.09677399999999636,
            "durationTicks": 96,
            "midi": 55,
            "name": "G3",
            "ticks": 37440,
            "time": 37.74186,
            "velocity": 0.29133858267716534
          },
          {
            "duration": 0.09677399999999636,
            "durationTicks": 96,
            "midi": 51,
            "name": "D#3",
            "ticks": 37632,
            "time": 37.935408,
            "velocity": 0.29133858267716534
          },
          {
            "duration": 0.09677399999999636,
            "durationTicks": 96,
            "midi": 55,
            "name": "G3",
            "ticks": 37824,
            "time": 38.128956,
            "velocity": 0.29133858267716534
          },
          {
            "duration": 0.09677399999999636,
            "durationTicks": 96,
            "midi": 58,
            "name": "A#3",
            "ticks": 37824,
            "time": 38.128956,
            "velocity": 0.29133858267716534
          },
          {
            "duration": 0.09677399999999636,
            "durationTicks": 96,
            "midi": 46,
            "name": "A#2",
            "ticks": 38016,
            "time": 38.322504,
            "velocity": 0.29133858267716534
          },
          {
            "duration": 0.09677399999999636,
            "durationTicks": 96,
            "midi": 58,
            "name": "A#3",
            "ticks": 38208,
            "time": 38.516052,
            "velocity": 0.29133858267716534
          },
          {
            "duration": 0.09677399999999636,
            "durationTicks": 96,
            "midi": 55,
            "name": "G3",
            "ticks": 38208,
            "time": 38.516052,
            "velocity": 0.29133858267716534
          },
          {
            "duration": 0.09677399999999636,
            "durationTicks": 96,
            "midi": 46,
            "name": "A#2",
            "ticks": 38400,
            "time": 38.7096,
            "velocity": 0.29133858267716534
          },
          {
            "duration": 0.09677399999999636,
            "durationTicks": 96,
            "midi": 50,
            "name": "D3",
            "ticks": 38592,
            "time": 38.903148,
            "velocity": 0.29133858267716534
          },
          {
            "duration": 0.09677399999999636,
            "durationTicks": 96,
            "midi": 53,
            "name": "F3",
            "ticks": 38592,
            "time": 38.903148,
            "velocity": 0.29133858267716534
          },
          {
            "duration": 0.09677399999999636,
            "durationTicks": 96,
            "midi": 41,
            "name": "F2",
            "ticks": 38784,
            "time": 39.096696,
            "velocity": 0.29133858267716534
          },
          {
            "duration": 0.09677399999999636,
            "durationTicks": 96,
            "midi": 50,
            "name": "D3",
            "ticks": 38976,
            "time": 39.290244,
            "velocity": 0.29133858267716534
          },
          {
            "duration": 0.09677399999999636,
            "durationTicks": 96,
            "midi": 53,
            "name": "F3",
            "ticks": 38976,
            "time": 39.290244,
            "velocity": 0.29133858267716534
          },
          {
            "duration": 0.09677399999999636,
            "durationTicks": 96,
            "midi": 46,
            "name": "A#2",
            "ticks": 39168,
            "time": 39.483792,
            "velocity": 0.29133858267716534
          },
          {
            "duration": 0.09677399999999636,
            "durationTicks": 96,
            "midi": 50,
            "name": "D3",
            "ticks": 39360,
            "time": 39.67734,
            "velocity": 0.29133858267716534
          },
          {
            "duration": 0.09677399999999636,
            "durationTicks": 96,
            "midi": 53,
            "name": "F3",
            "ticks": 39360,
            "time": 39.67734,
            "velocity": 0.29133858267716534
          },
          {
            "duration": 0.09677399999999636,
            "durationTicks": 96,
            "midi": 41,
            "name": "F2",
            "ticks": 39552,
            "time": 39.870888,
            "velocity": 0.29133858267716534
          },
          {
            "duration": 0.09677399999999636,
            "durationTicks": 96,
            "midi": 50,
            "name": "D3",
            "ticks": 39744,
            "time": 40.064436,
            "velocity": 0.29133858267716534
          },
          {
            "duration": 0.09677399999999636,
            "durationTicks": 96,
            "midi": 53,
            "name": "F3",
            "ticks": 39744,
            "time": 40.064436,
            "velocity": 0.29133858267716534
          },
          {
            "duration": 0.09677399999999636,
            "durationTicks": 96,
            "midi": 44,
            "name": "G#2",
            "ticks": 39936,
            "time": 40.257984,
            "velocity": 0.29133858267716534
          },
          {
            "duration": 0.09677399999999636,
            "durationTicks": 96,
            "midi": 48,
            "name": "C3",
            "ticks": 40128,
            "time": 40.451532,
            "velocity": 0.29133858267716534
          },
          {
            "duration": 0.09677399999999636,
            "durationTicks": 96,
            "midi": 51,
            "name": "D#3",
            "ticks": 40128,
            "time": 40.451532,
            "velocity": 0.29133858267716534
          },
          {
            "duration": 0.09677399999999636,
            "durationTicks": 96,
            "midi": 39,
            "name": "D#2",
            "ticks": 40320,
            "time": 40.64508,
            "velocity": 0.29133858267716534
          },
          {
            "duration": 0.09677399999999636,
            "durationTicks": 96,
            "midi": 48,
            "name": "C3",
            "ticks": 40512,
            "time": 40.838628,
            "velocity": 0.29133858267716534
          },
          {
            "duration": 0.09677399999999636,
            "durationTicks": 96,
            "midi": 51,
            "name": "D#3",
            "ticks": 40512,
            "time": 40.838628,
            "velocity": 0.29133858267716534
          },
          {
            "duration": 0.09677399999999636,
            "durationTicks": 96,
            "midi": 43,
            "name": "G2",
            "ticks": 40704,
            "time": 41.032176,
            "velocity": 0.29133858267716534
          },
          {
            "duration": 0.09677400000000347,
            "durationTicks": 96,
            "midi": 47,
            "name": "B2",
            "ticks": 40896,
            "time": 41.225724,
            "velocity": 0.29133858267716534
          },
          {
            "duration": 0.09677400000000347,
            "durationTicks": 96,
            "midi": 50,
            "name": "D3",
            "ticks": 40896,
            "time": 41.225724,
            "velocity": 0.29133858267716534
          },
          {
            "duration": 0.09677400000000347,
            "durationTicks": 96,
            "midi": 38,
            "name": "D2",
            "ticks": 41088,
            "time": 41.419272,
            "velocity": 0.29133858267716534
          },
          {
            "duration": 0.09677400000000347,
            "durationTicks": 96,
            "midi": 50,
            "name": "D3",
            "ticks": 41280,
            "time": 41.61282,
            "velocity": 0.29133858267716534
          },
          {
            "duration": 0.09677400000000347,
            "durationTicks": 96,
            "midi": 47,
            "name": "B2",
            "ticks": 41280,
            "time": 41.61282,
            "velocity": 0.29133858267716534
          },
          {
            "duration": 0.09677400000000347,
            "durationTicks": 96,
            "midi": 44,
            "name": "G#2",
            "ticks": 41472,
            "time": 41.806368,
            "velocity": 0.29133858267716534
          },
          {
            "duration": 0.09677400000000347,
            "durationTicks": 96,
            "midi": 51,
            "name": "D#3",
            "ticks": 41664,
            "time": 41.999916,
            "velocity": 0.29133858267716534
          },
          {
            "duration": 0.09677400000000347,
            "durationTicks": 96,
            "midi": 48,
            "name": "C3",
            "ticks": 41664,
            "time": 41.999916,
            "velocity": 0.29133858267716534
          },
          {
            "duration": 0.09677400000000347,
            "durationTicks": 96,
            "midi": 39,
            "name": "D#2",
            "ticks": 41856,
            "time": 42.193464,
            "velocity": 0.29133858267716534
          },
          {
            "duration": 0.09677400000000347,
            "durationTicks": 96,
            "midi": 48,
            "name": "C3",
            "ticks": 42048,
            "time": 42.387012,
            "velocity": 0.29133858267716534
          },
          {
            "duration": 0.09677400000000347,
            "durationTicks": 96,
            "midi": 51,
            "name": "D#3",
            "ticks": 42048,
            "time": 42.387012,
            "velocity": 0.29133858267716534
          },
          {
            "duration": 0.09677400000000347,
            "durationTicks": 96,
            "midi": 44,
            "name": "G#2",
            "ticks": 42240,
            "time": 42.58056,
            "velocity": 0.29133858267716534
          },
          {
            "duration": 0.09677400000000347,
            "durationTicks": 96,
            "midi": 48,
            "name": "C3",
            "ticks": 42432,
            "time": 42.774108,
            "velocity": 0.29133858267716534
          },
          {
            "duration": 0.09677400000000347,
            "durationTicks": 96,
            "midi": 51,
            "name": "D#3",
            "ticks": 42432,
            "time": 42.774108,
            "velocity": 0.29133858267716534
          },
          {
            "duration": 0.09677400000000347,
            "durationTicks": 96,
            "midi": 39,
            "name": "D#2",
            "ticks": 42624,
            "time": 42.967656,
            "velocity": 0.29133858267716534
          },
          {
            "duration": 0.09677400000000347,
            "durationTicks": 96,
            "midi": 48,
            "name": "C3",
            "ticks": 42816,
            "time": 43.161204,
            "velocity": 0.29133858267716534
          },
          {
            "duration": 0.09677400000000347,
            "durationTicks": 96,
            "midi": 51,
            "name": "D#3",
            "ticks": 42816,
            "time": 43.161204,
            "velocity": 0.29133858267716534
          },
          {
            "duration": 0.09677400000000347,
            "durationTicks": 96,
            "midi": 41,
            "name": "F2",
            "ticks": 43008,
            "time": 43.354752,
            "velocity": 0.29133858267716534
          },
          {
            "duration": 0.09677400000000347,
            "durationTicks": 96,
            "midi": 48,
            "name": "C3",
            "ticks": 43200,
            "time": 43.5483,
            "velocity": 0.29133858267716534
          },
          {
            "duration": 0.09677400000000347,
            "durationTicks": 96,
            "midi": 44,
            "name": "G#2",
            "ticks": 43200,
            "time": 43.5483,
            "velocity": 0.29133858267716534
          },
          {
            "duration": 0.09677400000000347,
            "durationTicks": 96,
            "midi": 36,
            "name": "C2",
            "ticks": 43392,
            "time": 43.741848,
            "velocity": 0.29133858267716534
          },
          {
            "duration": 0.09677400000000347,
            "durationTicks": 96,
            "midi": 48,
            "name": "C3",
            "ticks": 43584,
            "time": 43.935396,
            "velocity": 0.29133858267716534
          },
          {
            "duration": 0.09677400000000347,
            "durationTicks": 96,
            "midi": 44,
            "name": "G#2",
            "ticks": 43584,
            "time": 43.935396,
            "velocity": 0.29133858267716534
          },
          {
            "duration": 0.09677400000000347,
            "durationTicks": 96,
            "midi": 41,
            "name": "F2",
            "ticks": 43776,
            "time": 44.128944,
            "velocity": 0.29133858267716534
          },
          {
            "duration": 0.09677400000000347,
            "durationTicks": 96,
            "midi": 44,
            "name": "G#2",
            "ticks": 43968,
            "time": 44.322492,
            "velocity": 0.29133858267716534
          },
          {
            "duration": 0.09677400000000347,
            "durationTicks": 96,
            "midi": 48,
            "name": "C3",
            "ticks": 43968,
            "time": 44.322492,
            "velocity": 0.29133858267716534
          },
          {
            "duration": 0.09677400000000347,
            "durationTicks": 96,
            "midi": 36,
            "name": "C2",
            "ticks": 44160,
            "time": 44.51604,
            "velocity": 0.29133858267716534
          },
          {
            "duration": 0.09677400000000347,
            "durationTicks": 96,
            "midi": 48,
            "name": "C3",
            "ticks": 44352,
            "time": 44.709588,
            "velocity": 0.29133858267716534
          },
          {
            "duration": 0.09677400000000347,
            "durationTicks": 96,
            "midi": 44,
            "name": "G#2",
            "ticks": 44352,
            "time": 44.709588,
            "velocity": 0.29133858267716534
          },
          {
            "duration": 0.09677400000000347,
            "durationTicks": 96,
            "midi": 46,
            "name": "A#2",
            "ticks": 44544,
            "time": 44.903135999999996,
            "velocity": 0.29133858267716534
          },
          {
            "duration": 0.09677400000000347,
            "durationTicks": 96,
            "midi": 50,
            "name": "D3",
            "ticks": 44736,
            "time": 45.096683999999996,
            "velocity": 0.29133858267716534
          },
          {
            "duration": 0.09677400000000347,
            "durationTicks": 96,
            "midi": 53,
            "name": "F3",
            "ticks": 44736,
            "time": 45.096683999999996,
            "velocity": 0.29133858267716534
          },
          {
            "duration": 0.09677400000000347,
            "durationTicks": 96,
            "midi": 41,
            "name": "F2",
            "ticks": 44928,
            "time": 45.290231999999996,
            "velocity": 0.29133858267716534
          },
          {
            "duration": 0.09677399999999636,
            "durationTicks": 96,
            "midi": 53,
            "name": "F3",
            "ticks": 45120,
            "time": 45.48378,
            "velocity": 0.29133858267716534
          },
          {
            "duration": 0.09677399999999636,
            "durationTicks": 96,
            "midi": 50,
            "name": "D3",
            "ticks": 45120,
            "time": 45.48378,
            "velocity": 0.29133858267716534
          },
          {
            "duration": 0.09677399999999636,
            "durationTicks": 96,
            "midi": 46,
            "name": "A#2",
            "ticks": 45312,
            "time": 45.677328,
            "velocity": 0.29133858267716534
          },
          {
            "duration": 0.09677399999999636,
            "durationTicks": 96,
            "midi": 53,
            "name": "F3",
            "ticks": 45504,
            "time": 45.870876,
            "velocity": 0.29133858267716534
          },
          {
            "duration": 0.09677399999999636,
            "durationTicks": 96,
            "midi": 50,
            "name": "D3",
            "ticks": 45504,
            "time": 45.870876,
            "velocity": 0.29133858267716534
          },
          {
            "duration": 0.09677399999999636,
            "durationTicks": 96,
            "midi": 41,
            "name": "F2",
            "ticks": 45696,
            "time": 46.064424,
            "velocity": 0.29133858267716534
          },
          {
            "duration": 0.09677399999999636,
            "durationTicks": 96,
            "midi": 50,
            "name": "D3",
            "ticks": 45888,
            "time": 46.257972,
            "velocity": 0.29133858267716534
          },
          {
            "duration": 0.09677399999999636,
            "durationTicks": 96,
            "midi": 53,
            "name": "F3",
            "ticks": 45888,
            "time": 46.257972,
            "velocity": 0.29133858267716534
          },
          {
            "duration": 0.09677399999999636,
            "durationTicks": 96,
            "midi": 44,
            "name": "G#2",
            "ticks": 46080,
            "time": 46.45152,
            "velocity": 0.29133858267716534
          },
          {
            "duration": 0.09677399999999636,
            "durationTicks": 96,
            "midi": 51,
            "name": "D#3",
            "ticks": 46272,
            "time": 46.645068,
            "velocity": 0.29133858267716534
          },
          {
            "duration": 0.09677399999999636,
            "durationTicks": 96,
            "midi": 48,
            "name": "C3",
            "ticks": 46272,
            "time": 46.645068,
            "velocity": 0.29133858267716534
          },
          {
            "duration": 0.09677399999999636,
            "durationTicks": 96,
            "midi": 39,
            "name": "D#2",
            "ticks": 46464,
            "time": 46.838616,
            "velocity": 0.29133858267716534
          },
          {
            "duration": 0.09677399999999636,
            "durationTicks": 96,
            "midi": 48,
            "name": "C3",
            "ticks": 46656,
            "time": 47.032164,
            "velocity": 0.29133858267716534
          },
          {
            "duration": 0.09677399999999636,
            "durationTicks": 96,
            "midi": 51,
            "name": "D#3",
            "ticks": 46656,
            "time": 47.032164,
            "velocity": 0.29133858267716534
          },
          {
            "duration": 0.09677399999999636,
            "durationTicks": 96,
            "midi": 43,
            "name": "G2",
            "ticks": 46848,
            "time": 47.225712,
            "velocity": 0.29133858267716534
          },
          {
            "duration": 0.09677399999999636,
            "durationTicks": 96,
            "midi": 47,
            "name": "B2",
            "ticks": 47040,
            "time": 47.41926,
            "velocity": 0.29133858267716534
          },
          {
            "duration": 0.09677399999999636,
            "durationTicks": 96,
            "midi": 50,
            "name": "D3",
            "ticks": 47040,
            "time": 47.41926,
            "velocity": 0.29133858267716534
          },
          {
            "duration": 0.09677399999999636,
            "durationTicks": 96,
            "midi": 38,
            "name": "D2",
            "ticks": 47232,
            "time": 47.612808,
            "velocity": 0.29133858267716534
          },
          {
            "duration": 0.09677399999999636,
            "durationTicks": 96,
            "midi": 47,
            "name": "B2",
            "ticks": 47424,
            "time": 47.806356,
            "velocity": 0.29133858267716534
          },
          {
            "duration": 0.09677399999999636,
            "durationTicks": 96,
            "midi": 50,
            "name": "D3",
            "ticks": 47424,
            "time": 47.806356,
            "velocity": 0.29133858267716534
          },
          {
            "duration": 0.09677399999999636,
            "durationTicks": 96,
            "midi": 44,
            "name": "G#2",
            "ticks": 47616,
            "time": 47.999904,
            "velocity": 0.29133858267716534
          },
          {
            "duration": 0.09677399999999636,
            "durationTicks": 96,
            "midi": 48,
            "name": "C3",
            "ticks": 47808,
            "time": 48.193452,
            "velocity": 0.29133858267716534
          },
          {
            "duration": 0.09677399999999636,
            "durationTicks": 96,
            "midi": 51,
            "name": "D#3",
            "ticks": 47808,
            "time": 48.193452,
            "velocity": 0.29133858267716534
          },
          {
            "duration": 0.09677399999999636,
            "durationTicks": 96,
            "midi": 39,
            "name": "D#2",
            "ticks": 48000,
            "time": 48.387,
            "velocity": 0.29133858267716534
          },
          {
            "duration": 0.09677399999999636,
            "durationTicks": 96,
            "midi": 51,
            "name": "D#3",
            "ticks": 48192,
            "time": 48.580548,
            "velocity": 0.29133858267716534
          },
          {
            "duration": 0.09677399999999636,
            "durationTicks": 96,
            "midi": 48,
            "name": "C3",
            "ticks": 48192,
            "time": 48.580548,
            "velocity": 0.29133858267716534
          },
          {
            "duration": 0.09677399999999636,
            "durationTicks": 96,
            "midi": 44,
            "name": "G#2",
            "ticks": 48384,
            "time": 48.774096,
            "velocity": 0.29133858267716534
          },
          {
            "duration": 0.09677399999999636,
            "durationTicks": 96,
            "midi": 48,
            "name": "C3",
            "ticks": 48576,
            "time": 48.967644,
            "velocity": 0.29133858267716534
          },
          {
            "duration": 0.09677399999999636,
            "durationTicks": 96,
            "midi": 51,
            "name": "D#3",
            "ticks": 48576,
            "time": 48.967644,
            "velocity": 0.29133858267716534
          },
          {
            "duration": 0.09677399999999636,
            "durationTicks": 96,
            "midi": 39,
            "name": "D#2",
            "ticks": 48768,
            "time": 49.161192,
            "velocity": 0.29133858267716534
          },
          {
            "duration": 0.09677399999999636,
            "durationTicks": 96,
            "midi": 48,
            "name": "C3",
            "ticks": 48960,
            "time": 49.35474,
            "velocity": 0.29133858267716534
          },
          {
            "duration": 0.09677399999999636,
            "durationTicks": 96,
            "midi": 51,
            "name": "D#3",
            "ticks": 48960,
            "time": 49.35474,
            "velocity": 0.29133858267716534
          },
          {
            "duration": 0.09677400000000347,
            "durationTicks": 96,
            "midi": 41,
            "name": "F2",
            "ticks": 49152,
            "time": 49.548288,
            "velocity": 0.29133858267716534
          },
          {
            "duration": 0.09677400000000347,
            "durationTicks": 96,
            "midi": 48,
            "name": "C3",
            "ticks": 49344,
            "time": 49.741836,
            "velocity": 0.29133858267716534
          },
          {
            "duration": 0.09677400000000347,
            "durationTicks": 96,
            "midi": 44,
            "name": "G#2",
            "ticks": 49344,
            "time": 49.741836,
            "velocity": 0.29133858267716534
          },
          {
            "duration": 0.09677400000000347,
            "durationTicks": 96,
            "midi": 36,
            "name": "C2",
            "ticks": 49536,
            "time": 49.935384,
            "velocity": 0.29133858267716534
          },
          {
            "duration": 0.09677400000000347,
            "durationTicks": 96,
            "midi": 44,
            "name": "G#2",
            "ticks": 49728,
            "time": 50.128932,
            "velocity": 0.29133858267716534
          },
          {
            "duration": 0.09677400000000347,
            "durationTicks": 96,
            "midi": 48,
            "name": "C3",
            "ticks": 49728,
            "time": 50.128932,
            "velocity": 0.29133858267716534
          },
          {
            "duration": 0.09677400000000347,
            "durationTicks": 96,
            "midi": 41,
            "name": "F2",
            "ticks": 49920,
            "time": 50.32248,
            "velocity": 0.29133858267716534
          },
          {
            "duration": 0.09677400000000347,
            "durationTicks": 96,
            "midi": 48,
            "name": "C3",
            "ticks": 50112,
            "time": 50.516028,
            "velocity": 0.29133858267716534
          },
          {
            "duration": 0.09677400000000347,
            "durationTicks": 96,
            "midi": 44,
            "name": "G#2",
            "ticks": 50112,
            "time": 50.516028,
            "velocity": 0.29133858267716534
          },
          {
            "duration": 0.09677400000000347,
            "durationTicks": 96,
            "midi": 36,
            "name": "C2",
            "ticks": 50304,
            "time": 50.709576,
            "velocity": 0.29133858267716534
          },
          {
            "duration": 0.09677400000000347,
            "durationTicks": 96,
            "midi": 44,
            "name": "G#2",
            "ticks": 50496,
            "time": 50.903124,
            "velocity": 0.29133858267716534
          },
          {
            "duration": 0.09677400000000347,
            "durationTicks": 96,
            "midi": 48,
            "name": "C3",
            "ticks": 50496,
            "time": 50.903124,
            "velocity": 0.29133858267716534
          },
          {
            "duration": 0.09677400000000347,
            "durationTicks": 96,
            "midi": 46,
            "name": "A#2",
            "ticks": 50688,
            "time": 51.096672,
            "velocity": 0.29133858267716534
          },
          {
            "duration": 0.09677400000000347,
            "durationTicks": 96,
            "midi": 50,
            "name": "D3",
            "ticks": 50880,
            "time": 51.29022,
            "velocity": 0.29133858267716534
          },
          {
            "duration": 0.09677400000000347,
            "durationTicks": 96,
            "midi": 53,
            "name": "F3",
            "ticks": 50880,
            "time": 51.29022,
            "velocity": 0.29133858267716534
          },
          {
            "duration": 0.09677400000000347,
            "durationTicks": 96,
            "midi": 41,
            "name": "F2",
            "ticks": 51072,
            "time": 51.483768,
            "velocity": 0.29133858267716534
          },
          {
            "duration": 0.09677400000000347,
            "durationTicks": 96,
            "midi": 50,
            "name": "D3",
            "ticks": 51264,
            "time": 51.677316,
            "velocity": 0.29133858267716534
          },
          {
            "duration": 0.09677400000000347,
            "durationTicks": 96,
            "midi": 53,
            "name": "F3",
            "ticks": 51264,
            "time": 51.677316,
            "velocity": 0.29133858267716534
          },
          {
            "duration": 0.09677400000000347,
            "durationTicks": 96,
            "midi": 46,
            "name": "A#2",
            "ticks": 51456,
            "time": 51.870864,
            "velocity": 0.29133858267716534
          },
          {
            "duration": 0.09677400000000347,
            "durationTicks": 96,
            "midi": 50,
            "name": "D3",
            "ticks": 51648,
            "time": 52.064412,
            "velocity": 0.29133858267716534
          },
          {
            "duration": 0.09677400000000347,
            "durationTicks": 96,
            "midi": 53,
            "name": "F3",
            "ticks": 51648,
            "time": 52.064412,
            "velocity": 0.29133858267716534
          },
          {
            "duration": 0.09677400000000347,
            "durationTicks": 96,
            "midi": 41,
            "name": "F2",
            "ticks": 51840,
            "time": 52.25796,
            "velocity": 0.29133858267716534
          },
          {
            "duration": 0.09677400000000347,
            "durationTicks": 96,
            "midi": 50,
            "name": "D3",
            "ticks": 52032,
            "time": 52.451508,
            "velocity": 0.29133858267716534
          },
          {
            "duration": 0.09677400000000347,
            "durationTicks": 96,
            "midi": 53,
            "name": "F3",
            "ticks": 52032,
            "time": 52.451508,
            "velocity": 0.29133858267716534
          },
          {
            "duration": 0.09677400000000347,
            "durationTicks": 96,
            "midi": 44,
            "name": "G#2",
            "ticks": 52224,
            "time": 52.645056,
            "velocity": 0.29133858267716534
          },
          {
            "duration": 0.09677400000000347,
            "durationTicks": 96,
            "midi": 48,
            "name": "C3",
            "ticks": 52416,
            "time": 52.838604,
            "velocity": 0.29133858267716534
          },
          {
            "duration": 0.09677400000000347,
            "durationTicks": 96,
            "midi": 51,
            "name": "D#3",
            "ticks": 52416,
            "time": 52.838604,
            "velocity": 0.29133858267716534
          },
          {
            "duration": 0.09677400000000347,
            "durationTicks": 96,
            "midi": 39,
            "name": "D#2",
            "ticks": 52608,
            "time": 53.032151999999996,
            "velocity": 0.29133858267716534
          },
          {
            "duration": 0.09677400000000347,
            "durationTicks": 96,
            "midi": 48,
            "name": "C3",
            "ticks": 52800,
            "time": 53.225699999999996,
            "velocity": 0.29133858267716534
          },
          {
            "duration": 0.09677400000000347,
            "durationTicks": 96,
            "midi": 51,
            "name": "D#3",
            "ticks": 52800,
            "time": 53.225699999999996,
            "velocity": 0.29133858267716534
          },
          {
            "duration": 0.09677400000000347,
            "durationTicks": 96,
            "midi": 44,
            "name": "G#2",
            "ticks": 52992,
            "time": 53.419247999999996,
            "velocity": 0.29133858267716534
          },
          {
            "duration": 0.09677400000000347,
            "durationTicks": 96,
            "midi": 48,
            "name": "C3",
            "ticks": 53184,
            "time": 53.612795999999996,
            "velocity": 0.29133858267716534
          },
          {
            "duration": 0.09677400000000347,
            "durationTicks": 96,
            "midi": 51,
            "name": "D#3",
            "ticks": 53184,
            "time": 53.612795999999996,
            "velocity": 0.29133858267716534
          },
          {
            "duration": 0.09677399999999636,
            "durationTicks": 96,
            "midi": 38,
            "name": "D2",
            "ticks": 53376,
            "time": 53.806344,
            "velocity": 0.29133858267716534
          },
          {
            "duration": 0.09677399999999636,
            "durationTicks": 96,
            "midi": 48,
            "name": "C3",
            "ticks": 53568,
            "time": 53.999892,
            "velocity": 0.29133858267716534
          },
          {
            "duration": 0.09677399999999636,
            "durationTicks": 96,
            "midi": 51,
            "name": "D#3",
            "ticks": 53568,
            "time": 53.999892,
            "velocity": 0.29133858267716534
          },
          {
            "duration": 0.09677399999999636,
            "durationTicks": 96,
            "midi": 48,
            "name": "C3",
            "ticks": 53760,
            "time": 54.19344,
            "velocity": 0.29133858267716534
          },
          {
            "duration": 0.09677399999999636,
            "durationTicks": 96,
            "midi": 51,
            "name": "D#3",
            "ticks": 53952,
            "time": 54.386988,
            "velocity": 0.29133858267716534
          },
          {
            "duration": 0.09677399999999636,
            "durationTicks": 96,
            "midi": 55,
            "name": "G3",
            "ticks": 53952,
            "time": 54.386988,
            "velocity": 0.29133858267716534
          },
          {
            "duration": 0.09677399999999636,
            "durationTicks": 96,
            "midi": 43,
            "name": "G2",
            "ticks": 54144,
            "time": 54.580536,
            "velocity": 0.29133858267716534
          },
          {
            "duration": 0.09677399999999636,
            "durationTicks": 96,
            "midi": 51,
            "name": "D#3",
            "ticks": 54336,
            "time": 54.774084,
            "velocity": 0.29133858267716534
          },
          {
            "duration": 0.09677399999999636,
            "durationTicks": 96,
            "midi": 55,
            "name": "G3",
            "ticks": 54336,
            "time": 54.774084,
            "velocity": 0.29133858267716534
          },
          {
            "duration": 0.09677399999999636,
            "durationTicks": 96,
            "midi": 48,
            "name": "C3",
            "ticks": 54528,
            "time": 54.967632,
            "velocity": 0.29133858267716534
          },
          {
            "duration": 0.09677399999999636,
            "durationTicks": 96,
            "midi": 51,
            "name": "D#3",
            "ticks": 54720,
            "time": 55.16118,
            "velocity": 0.29133858267716534
          },
          {
            "duration": 0.09677399999999636,
            "durationTicks": 96,
            "midi": 55,
            "name": "G3",
            "ticks": 54720,
            "time": 55.16118,
            "velocity": 0.29133858267716534
          },
          {
            "duration": 0.09677399999999636,
            "durationTicks": 96,
            "midi": 43,
            "name": "G2",
            "ticks": 54912,
            "time": 55.354728,
            "velocity": 0.29133858267716534
          },
          {
            "duration": 0.09677399999999636,
            "durationTicks": 96,
            "midi": 51,
            "name": "D#3",
            "ticks": 55104,
            "time": 55.548276,
            "velocity": 0.29133858267716534
          },
          {
            "duration": 0.09677399999999636,
            "durationTicks": 96,
            "midi": 55,
            "name": "G3",
            "ticks": 55104,
            "time": 55.548276,
            "velocity": 0.29133858267716534
          },
          {
            "duration": 0.09677399999999636,
            "durationTicks": 96,
            "midi": 51,
            "name": "D#3",
            "ticks": 55296,
            "time": 55.741824,
            "velocity": 0.29133858267716534
          },
          {
            "duration": 0.09677399999999636,
            "durationTicks": 96,
            "midi": 55,
            "name": "G3",
            "ticks": 55488,
            "time": 55.935372,
            "velocity": 0.29133858267716534
          },
          {
            "duration": 0.09677399999999636,
            "durationTicks": 96,
            "midi": 58,
            "name": "A#3",
            "ticks": 55488,
            "time": 55.935372,
            "velocity": 0.29133858267716534
          },
          {
            "duration": 0.09677399999999636,
            "durationTicks": 96,
            "midi": 46,
            "name": "A#2",
            "ticks": 55680,
            "time": 56.12892,
            "velocity": 0.29133858267716534
          },
          {
            "duration": 0.09677399999999636,
            "durationTicks": 96,
            "midi": 55,
            "name": "G3",
            "ticks": 55872,
            "time": 56.322468,
            "velocity": 0.29133858267716534
          },
          {
            "duration": 0.09677399999999636,
            "durationTicks": 96,
            "midi": 58,
            "name": "A#3",
            "ticks": 55872,
            "time": 56.322468,
            "velocity": 0.29133858267716534
          },
          {
            "duration": 0.09677399999999636,
            "durationTicks": 96,
            "midi": 51,
            "name": "D#3",
            "ticks": 56064,
            "time": 56.516016,
            "velocity": 0.29133858267716534
          },
          {
            "duration": 0.09677399999999636,
            "durationTicks": 96,
            "midi": 58,
            "name": "A#3",
            "ticks": 56256,
            "time": 56.709564,
            "velocity": 0.29133858267716534
          },
          {
            "duration": 0.09677399999999636,
            "durationTicks": 96,
            "midi": 55,
            "name": "G3",
            "ticks": 56256,
            "time": 56.709564,
            "velocity": 0.29133858267716534
          },
          {
            "duration": 0.09677399999999636,
            "durationTicks": 96,
            "midi": 46,
            "name": "A#2",
            "ticks": 56448,
            "time": 56.903112,
            "velocity": 0.29133858267716534
          },
          {
            "duration": 0.09677399999999636,
            "durationTicks": 96,
            "midi": 55,
            "name": "G3",
            "ticks": 56640,
            "time": 57.09666,
            "velocity": 0.29133858267716534
          },
          {
            "duration": 0.09677399999999636,
            "durationTicks": 96,
            "midi": 58,
            "name": "A#3",
            "ticks": 56640,
            "time": 57.09666,
            "velocity": 0.29133858267716534
          },
          {
            "duration": 0.09677399999999636,
            "durationTicks": 96,
            "midi": 46,
            "name": "A#2",
            "ticks": 56832,
            "time": 57.290208,
            "velocity": 0.29133858267716534
          },
          {
            "duration": 0.09677399999999636,
            "durationTicks": 96,
            "midi": 50,
            "name": "D3",
            "ticks": 57024,
            "time": 57.483756,
            "velocity": 0.29133858267716534
          },
          {
            "duration": 0.09677399999999636,
            "durationTicks": 96,
            "midi": 53,
            "name": "F3",
            "ticks": 57024,
            "time": 57.483756,
            "velocity": 0.29133858267716534
          },
          {
            "duration": 0.09677399999999636,
            "durationTicks": 96,
            "midi": 41,
            "name": "F2",
            "ticks": 57216,
            "time": 57.677304,
            "velocity": 0.29133858267716534
          },
          {
            "duration": 0.09677400000000347,
            "durationTicks": 96,
            "midi": 50,
            "name": "D3",
            "ticks": 57408,
            "time": 57.870852,
            "velocity": 0.29133858267716534
          },
          {
            "duration": 0.09677400000000347,
            "durationTicks": 96,
            "midi": 53,
            "name": "F3",
            "ticks": 57408,
            "time": 57.870852,
            "velocity": 0.29133858267716534
          },
          {
            "duration": 0.09677400000000347,
            "durationTicks": 96,
            "midi": 46,
            "name": "A#2",
            "ticks": 57600,
            "time": 58.0644,
            "velocity": 0.29133858267716534
          },
          {
            "duration": 0.09677400000000347,
            "durationTicks": 96,
            "midi": 50,
            "name": "D3",
            "ticks": 57792,
            "time": 58.257948,
            "velocity": 0.29133858267716534
          },
          {
            "duration": 0.09677400000000347,
            "durationTicks": 96,
            "midi": 53,
            "name": "F3",
            "ticks": 57792,
            "time": 58.257948,
            "velocity": 0.29133858267716534
          },
          {
            "duration": 0.09677400000000347,
            "durationTicks": 96,
            "midi": 41,
            "name": "F2",
            "ticks": 57984,
            "time": 58.451496,
            "velocity": 0.29133858267716534
          },
          {
            "duration": 0.09677400000000347,
            "durationTicks": 96,
            "midi": 53,
            "name": "F3",
            "ticks": 58176,
            "time": 58.645044,
            "velocity": 0.29133858267716534
          },
          {
            "duration": 0.09677400000000347,
            "durationTicks": 96,
            "midi": 50,
            "name": "D3",
            "ticks": 58176,
            "time": 58.645044,
            "velocity": 0.29133858267716534
          },
          {
            "duration": 0.09677400000000347,
            "durationTicks": 96,
            "midi": 44,
            "name": "G#2",
            "ticks": 58368,
            "time": 58.838592,
            "velocity": 0.29133858267716534
          },
          {
            "duration": 0.09677400000000347,
            "durationTicks": 96,
            "midi": 48,
            "name": "C3",
            "ticks": 58560,
            "time": 59.03214,
            "velocity": 0.29133858267716534
          },
          {
            "duration": 0.09677400000000347,
            "durationTicks": 96,
            "midi": 51,
            "name": "D#3",
            "ticks": 58560,
            "time": 59.03214,
            "velocity": 0.29133858267716534
          },
          {
            "duration": 0.09677400000000347,
            "durationTicks": 96,
            "midi": 39,
            "name": "D#2",
            "ticks": 58752,
            "time": 59.225688,
            "velocity": 0.29133858267716534
          },
          {
            "duration": 0.09677400000000347,
            "durationTicks": 96,
            "midi": 48,
            "name": "C3",
            "ticks": 58944,
            "time": 59.419236,
            "velocity": 0.29133858267716534
          },
          {
            "duration": 0.09677400000000347,
            "durationTicks": 96,
            "midi": 51,
            "name": "D#3",
            "ticks": 58944,
            "time": 59.419236,
            "velocity": 0.29133858267716534
          },
          {
            "duration": 0.09677400000000347,
            "durationTicks": 96,
            "midi": 43,
            "name": "G2",
            "ticks": 59136,
            "time": 59.612784,
            "velocity": 0.29133858267716534
          },
          {
            "duration": 0.09677400000000347,
            "durationTicks": 96,
            "midi": 47,
            "name": "B2",
            "ticks": 59328,
            "time": 59.806332,
            "velocity": 0.29133858267716534
          },
          {
            "duration": 0.09677400000000347,
            "durationTicks": 96,
            "midi": 50,
            "name": "D3",
            "ticks": 59328,
            "time": 59.806332,
            "velocity": 0.29133858267716534
          },
          {
            "duration": 0.09677400000000347,
            "durationTicks": 96,
            "midi": 38,
            "name": "D2",
            "ticks": 59520,
            "time": 59.99988,
            "velocity": 0.29133858267716534
          },
          {
            "duration": 0.09677400000000347,
            "durationTicks": 96,
            "midi": 47,
            "name": "B2",
            "ticks": 59712,
            "time": 60.193428,
            "velocity": 0.29133858267716534
          },
          {
            "duration": 0.09677400000000347,
            "durationTicks": 96,
            "midi": 50,
            "name": "D3",
            "ticks": 59712,
            "time": 60.193428,
            "velocity": 0.29133858267716534
          },
          {
            "duration": 0.09677400000000347,
            "durationTicks": 96,
            "midi": 36,
            "name": "C2",
            "ticks": 59904,
            "time": 60.386976,
            "velocity": 0.29133858267716534
          },
          {
            "duration": 0.09677400000000347,
            "durationTicks": 96,
            "midi": 43,
            "name": "G2",
            "ticks": 60096,
            "time": 60.580524,
            "velocity": 0.29133858267716534
          },
          {
            "duration": 0.09677400000000347,
            "durationTicks": 96,
            "midi": 39,
            "name": "D#2",
            "ticks": 60096,
            "time": 60.580524,
            "velocity": 0.29133858267716534
          },
          {
            "duration": 0.09677400000000347,
            "durationTicks": 96,
            "midi": 31,
            "name": "G1",
            "ticks": 60288,
            "time": 60.774072,
            "velocity": 0.29133858267716534
          },
          {
            "duration": 0.09677400000000347,
            "durationTicks": 96,
            "midi": 39,
            "name": "D#2",
            "ticks": 60480,
            "time": 60.96762,
            "velocity": 0.29133858267716534
          },
          {
            "duration": 0.09677400000000347,
            "durationTicks": 96,
            "midi": 43,
            "name": "G2",
            "ticks": 60480,
            "time": 60.96762,
            "velocity": 0.29133858267716534
          },
          {
            "duration": 0.09677400000000347,
            "durationTicks": 96,
            "midi": 36,
            "name": "C2",
            "ticks": 60672,
            "time": 61.161167999999996,
            "velocity": 0.29133858267716534
          },
          {
            "duration": 0.09677400000000347,
            "durationTicks": 96,
            "midi": 39,
            "name": "D#2",
            "ticks": 60864,
            "time": 61.354715999999996,
            "velocity": 0.29133858267716534
          },
          {
            "duration": 0.09677400000000347,
            "durationTicks": 96,
            "midi": 43,
            "name": "G2",
            "ticks": 60864,
            "time": 61.354715999999996,
            "velocity": 0.29133858267716534
          },
          {
            "duration": 0.09677400000000347,
            "durationTicks": 96,
            "midi": 31,
            "name": "G1",
            "ticks": 61056,
            "time": 61.548263999999996,
            "velocity": 0.29133858267716534
          },
          {
            "duration": 0.09677400000000347,
            "durationTicks": 96,
            "midi": 43,
            "name": "G2",
            "ticks": 61248,
            "time": 61.741811999999996,
            "velocity": 0.29133858267716534
          },
          {
            "duration": 0.09677400000000347,
            "durationTicks": 96,
            "midi": 39,
            "name": "D#2",
            "ticks": 61248,
            "time": 61.741811999999996,
            "velocity": 0.29133858267716534
          },
          {
            "duration": 0.09677399999999636,
            "durationTicks": 96,
            "midi": 39,
            "name": "D#2",
            "ticks": 61440,
            "time": 61.93536,
            "velocity": 0.29133858267716534
          },
          {
            "duration": 0.09677399999999636,
            "durationTicks": 96,
            "midi": 43,
            "name": "G2",
            "ticks": 61632,
            "time": 62.128908,
            "velocity": 0.29133858267716534
          },
          {
            "duration": 0.09677399999999636,
            "durationTicks": 96,
            "midi": 46,
            "name": "A#2",
            "ticks": 61632,
            "time": 62.128908,
            "velocity": 0.29133858267716534
          },
          {
            "duration": 0.09677399999999636,
            "durationTicks": 96,
            "midi": 34,
            "name": "A#1",
            "ticks": 61824,
            "time": 62.322456,
            "velocity": 0.29133858267716534
          },
          {
            "duration": 0.09677399999999636,
            "durationTicks": 96,
            "midi": 46,
            "name": "A#2",
            "ticks": 62016,
            "time": 62.516004,
            "velocity": 0.29133858267716534
          },
          {
            "duration": 0.09677399999999636,
            "durationTicks": 96,
            "midi": 43,
            "name": "G2",
            "ticks": 62016,
            "time": 62.516004,
            "velocity": 0.29133858267716534
          },
          {
            "duration": 0.09677399999999636,
            "durationTicks": 96,
            "midi": 39,
            "name": "D#2",
            "ticks": 62208,
            "time": 62.709552,
            "velocity": 0.29133858267716534
          },
          {
            "duration": 0.09677399999999636,
            "durationTicks": 96,
            "midi": 43,
            "name": "G2",
            "ticks": 62400,
            "time": 62.9031,
            "velocity": 0.29133858267716534
          },
          {
            "duration": 0.09677399999999636,
            "durationTicks": 96,
            "midi": 46,
            "name": "A#2",
            "ticks": 62400,
            "time": 62.9031,
            "velocity": 0.29133858267716534
          },
          {
            "duration": 0.09677399999999636,
            "durationTicks": 96,
            "midi": 34,
            "name": "A#1",
            "ticks": 62592,
            "time": 63.096648,
            "velocity": 0.29133858267716534
          },
          {
            "duration": 0.09677399999999636,
            "durationTicks": 96,
            "midi": 43,
            "name": "G2",
            "ticks": 62784,
            "time": 63.290196,
            "velocity": 0.29133858267716534
          },
          {
            "duration": 0.09677399999999636,
            "durationTicks": 96,
            "midi": 46,
            "name": "A#2",
            "ticks": 62784,
            "time": 63.290196,
            "velocity": 0.29133858267716534
          },
          {
            "duration": 0.09677399999999636,
            "durationTicks": 96,
            "midi": 34,
            "name": "A#1",
            "ticks": 62976,
            "time": 63.483744,
            "velocity": 0.29133858267716534
          },
          {
            "duration": 0.09677399999999636,
            "durationTicks": 96,
            "midi": 41,
            "name": "F2",
            "ticks": 63168,
            "time": 63.677292,
            "velocity": 0.29133858267716534
          },
          {
            "duration": 0.09677399999999636,
            "durationTicks": 96,
            "midi": 38,
            "name": "D2",
            "ticks": 63168,
            "time": 63.677292,
            "velocity": 0.29133858267716534
          },
          {
            "duration": 0.09677399999999636,
            "durationTicks": 96,
            "midi": 29,
            "name": "F1",
            "ticks": 63360,
            "time": 63.87084,
            "velocity": 0.29133858267716534
          },
          {
            "duration": 0.09677400000001057,
            "durationTicks": 96,
            "midi": 38,
            "name": "D2",
            "ticks": 63552,
            "time": 64.064388,
            "velocity": 0.29133858267716534
          },
          {
            "duration": 0.09677400000001057,
            "durationTicks": 96,
            "midi": 41,
            "name": "F2",
            "ticks": 63552,
            "time": 64.064388,
            "velocity": 0.29133858267716534
          },
          {
            "duration": 0.09677399999999636,
            "durationTicks": 96,
            "midi": 34,
            "name": "A#1",
            "ticks": 63744,
            "time": 64.257936,
            "velocity": 0.29133858267716534
          },
          {
            "duration": 0.09677400000001057,
            "durationTicks": 96,
            "midi": 41,
            "name": "F2",
            "ticks": 63936,
            "time": 64.451484,
            "velocity": 0.29133858267716534
          },
          {
            "duration": 0.09677400000001057,
            "durationTicks": 96,
            "midi": 38,
            "name": "D2",
            "ticks": 63936,
            "time": 64.451484,
            "velocity": 0.29133858267716534
          },
          {
            "duration": 0.09677399999999636,
            "durationTicks": 96,
            "midi": 29,
            "name": "F1",
            "ticks": 64128,
            "time": 64.645032,
            "velocity": 0.29133858267716534
          },
          {
            "duration": 0.09677400000001057,
            "durationTicks": 96,
            "midi": 38,
            "name": "D2",
            "ticks": 64320,
            "time": 64.83858,
            "velocity": 0.29133858267716534
          },
          {
            "duration": 0.09677400000001057,
            "durationTicks": 96,
            "midi": 41,
            "name": "F2",
            "ticks": 64320,
            "time": 64.83858,
            "velocity": 0.29133858267716534
          },
          {
            "duration": 0.09677399999999636,
            "durationTicks": 96,
            "midi": 44,
            "name": "G#2",
            "ticks": 64512,
            "time": 65.032128,
            "velocity": 0.29133858267716534
          },
          {
            "duration": 0.09677400000001057,
            "durationTicks": 96,
            "midi": 48,
            "name": "C3",
            "ticks": 64704,
            "time": 65.22567599999999,
            "velocity": 0.29133858267716534
          },
          {
            "duration": 0.09677400000001057,
            "durationTicks": 96,
            "midi": 51,
            "name": "D#3",
            "ticks": 64704,
            "time": 65.22567599999999,
            "velocity": 0.29133858267716534
          },
          {
            "duration": 0.09677399999999636,
            "durationTicks": 96,
            "midi": 39,
            "name": "D#2",
            "ticks": 64896,
            "time": 65.419224,
            "velocity": 0.29133858267716534
          },
          {
            "duration": 0.09677400000001057,
            "durationTicks": 96,
            "midi": 51,
            "name": "D#3",
            "ticks": 65088,
            "time": 65.61277199999999,
            "velocity": 0.29133858267716534
          },
          {
            "duration": 0.09677400000001057,
            "durationTicks": 96,
            "midi": 48,
            "name": "C3",
            "ticks": 65088,
            "time": 65.61277199999999,
            "velocity": 0.29133858267716534
          },
          {
            "duration": 0.09677399999999636,
            "durationTicks": 96,
            "midi": 43,
            "name": "G2",
            "ticks": 65280,
            "time": 65.80632,
            "velocity": 0.29133858267716534
          },
          {
            "duration": 0.09677400000001057,
            "durationTicks": 96,
            "midi": 50,
            "name": "D3",
            "ticks": 65472,
            "time": 65.99986799999999,
            "velocity": 0.29133858267716534
          },
          {
            "duration": 0.09677400000001057,
            "durationTicks": 96,
            "midi": 47,
            "name": "B2",
            "ticks": 65472,
            "time": 65.99986799999999,
            "velocity": 0.29133858267716534
          },
          {
            "duration": 0.09677399999999636,
            "durationTicks": 96,
            "midi": 38,
            "name": "D2",
            "ticks": 65664,
            "time": 66.193416,
            "velocity": 0.29133858267716534
          },
          {
            "duration": 0.09677399999999636,
            "durationTicks": 96,
            "midi": 50,
            "name": "D3",
            "ticks": 65856,
            "time": 66.386964,
            "velocity": 0.29133858267716534
          },
          {
            "duration": 0.09677399999999636,
            "durationTicks": 96,
            "midi": 47,
            "name": "B2",
            "ticks": 65856,
            "time": 66.386964,
            "velocity": 0.29133858267716534
          },
          {
            "duration": 0.09677399999999636,
            "durationTicks": 96,
            "midi": 48,
            "name": "C3",
            "ticks": 66048,
            "time": 66.580512,
            "velocity": 0.29133858267716534
          },
          {
            "duration": 0.09677399999999636,
            "durationTicks": 96,
            "midi": 51,
            "name": "D#3",
            "ticks": 66240,
            "time": 66.77406,
            "velocity": 0.29133858267716534
          },
          {
            "duration": 0.09677399999999636,
            "durationTicks": 96,
            "midi": 55,
            "name": "G3",
            "ticks": 66240,
            "time": 66.77406,
            "velocity": 0.29133858267716534
          },
          {
            "duration": 0.09677399999999636,
            "durationTicks": 96,
            "midi": 43,
            "name": "G2",
            "ticks": 66432,
            "time": 66.967608,
            "velocity": 0.29133858267716534
          },
          {
            "duration": 0.09677399999999636,
            "durationTicks": 96,
            "midi": 51,
            "name": "D#3",
            "ticks": 66624,
            "time": 67.161156,
            "velocity": 0.29133858267716534
          },
          {
            "duration": 0.09677399999999636,
            "durationTicks": 96,
            "midi": 55,
            "name": "G3",
            "ticks": 66624,
            "time": 67.161156,
            "velocity": 0.29133858267716534
          },
          {
            "duration": 0.09677399999999636,
            "durationTicks": 96,
            "midi": 48,
            "name": "C3",
            "ticks": 66816,
            "time": 67.354704,
            "velocity": 0.29133858267716534
          },
          {
            "duration": 0.09677399999999636,
            "durationTicks": 96,
            "midi": 55,
            "name": "G3",
            "ticks": 67008,
            "time": 67.548252,
            "velocity": 0.29133858267716534
          },
          {
            "duration": 0.09677399999999636,
            "durationTicks": 96,
            "midi": 51,
            "name": "D#3",
            "ticks": 67008,
            "time": 67.548252,
            "velocity": 0.29133858267716534
          },
          {
            "duration": 0.09677399999999636,
            "durationTicks": 96,
            "midi": 43,
            "name": "G2",
            "ticks": 67200,
            "time": 67.7418,
            "velocity": 0.29133858267716534
          },
          {
            "duration": 0.09677399999999636,
            "durationTicks": 96,
            "midi": 55,
            "name": "G3",
            "ticks": 67392,
            "time": 67.935348,
            "velocity": 0.29133858267716534
          },
          {
            "duration": 0.09677399999999636,
            "durationTicks": 96,
            "midi": 51,
            "name": "D#3",
            "ticks": 67392,
            "time": 67.935348,
            "velocity": 0.29133858267716534
          },
          {
            "duration": 0.09677399999999636,
            "durationTicks": 96,
            "midi": 51,
            "name": "D#3",
            "ticks": 67584,
            "time": 68.128896,
            "velocity": 0.29133858267716534
          },
          {
            "duration": 0.09677399999999636,
            "durationTicks": 96,
            "midi": 55,
            "name": "G3",
            "ticks": 67776,
            "time": 68.322444,
            "velocity": 0.29133858267716534
          },
          {
            "duration": 0.09677399999999636,
            "durationTicks": 96,
            "midi": 58,
            "name": "A#3",
            "ticks": 67776,
            "time": 68.322444,
            "velocity": 0.29133858267716534
          },
          {
            "duration": 0.09677399999999636,
            "durationTicks": 96,
            "midi": 46,
            "name": "A#2",
            "ticks": 67968,
            "time": 68.515992,
            "velocity": 0.29133858267716534
          },
          {
            "duration": 0.09677399999999636,
            "durationTicks": 96,
            "midi": 55,
            "name": "G3",
            "ticks": 68160,
            "time": 68.70954,
            "velocity": 0.29133858267716534
          },
          {
            "duration": 0.09677399999999636,
            "durationTicks": 96,
            "midi": 58,
            "name": "A#3",
            "ticks": 68160,
            "time": 68.70954,
            "velocity": 0.29133858267716534
          },
          {
            "duration": 0.09677399999999636,
            "durationTicks": 96,
            "midi": 51,
            "name": "D#3",
            "ticks": 68352,
            "time": 68.903088,
            "velocity": 0.29133858267716534
          },
          {
            "duration": 0.09677399999999636,
            "durationTicks": 96,
            "midi": 55,
            "name": "G3",
            "ticks": 68544,
            "time": 69.096636,
            "velocity": 0.29133858267716534
          },
          {
            "duration": 0.09677399999999636,
            "durationTicks": 96,
            "midi": 58,
            "name": "A#3",
            "ticks": 68544,
            "time": 69.096636,
            "velocity": 0.29133858267716534
          },
          {
            "duration": 0.09677399999999636,
            "durationTicks": 96,
            "midi": 46,
            "name": "A#2",
            "ticks": 68736,
            "time": 69.290184,
            "velocity": 0.29133858267716534
          },
          {
            "duration": 0.09677399999999636,
            "durationTicks": 96,
            "midi": 58,
            "name": "A#3",
            "ticks": 68928,
            "time": 69.483732,
            "velocity": 0.29133858267716534
          },
          {
            "duration": 0.09677399999999636,
            "durationTicks": 96,
            "midi": 55,
            "name": "G3",
            "ticks": 68928,
            "time": 69.483732,
            "velocity": 0.29133858267716534
          },
          {
            "duration": 0.09677399999999636,
            "durationTicks": 96,
            "midi": 46,
            "name": "A#2",
            "ticks": 69120,
            "time": 69.67728,
            "velocity": 0.29133858267716534
          },
          {
            "duration": 0.09677399999999636,
            "durationTicks": 96,
            "midi": 50,
            "name": "D3",
            "ticks": 69312,
            "time": 69.870828,
            "velocity": 0.29133858267716534
          },
          {
            "duration": 0.09677399999999636,
            "durationTicks": 96,
            "midi": 53,
            "name": "F3",
            "ticks": 69312,
            "time": 69.870828,
            "velocity": 0.29133858267716534
          },
          {
            "duration": 0.09677399999999636,
            "durationTicks": 96,
            "midi": 41,
            "name": "F2",
            "ticks": 69504,
            "time": 70.064376,
            "velocity": 0.29133858267716534
          },
          {
            "duration": 0.09677399999999636,
            "durationTicks": 96,
            "midi": 53,
            "name": "F3",
            "ticks": 69696,
            "time": 70.257924,
            "velocity": 0.29133858267716534
          },
          {
            "duration": 0.09677399999999636,
            "durationTicks": 96,
            "midi": 50,
            "name": "D3",
            "ticks": 69696,
            "time": 70.257924,
            "velocity": 0.29133858267716534
          },
          {
            "duration": 0.09677400000001057,
            "durationTicks": 96,
            "midi": 46,
            "name": "A#2",
            "ticks": 69888,
            "time": 70.451472,
            "velocity": 0.29133858267716534
          },
          {
            "duration": 0.09677399999999636,
            "durationTicks": 96,
            "midi": 50,
            "name": "D3",
            "ticks": 70080,
            "time": 70.64502,
            "velocity": 0.29133858267716534
          },
          {
            "duration": 0.09677399999999636,
            "durationTicks": 96,
            "midi": 53,
            "name": "F3",
            "ticks": 70080,
            "time": 70.64502,
            "velocity": 0.29133858267716534
          },
          {
            "duration": 0.09677400000001057,
            "durationTicks": 96,
            "midi": 41,
            "name": "F2",
            "ticks": 70272,
            "time": 70.838568,
            "velocity": 0.29133858267716534
          },
          {
            "duration": 0.09677399999999636,
            "durationTicks": 96,
            "midi": 50,
            "name": "D3",
            "ticks": 70464,
            "time": 71.032116,
            "velocity": 0.29133858267716534
          },
          {
            "duration": 0.09677399999999636,
            "durationTicks": 96,
            "midi": 53,
            "name": "F3",
            "ticks": 70464,
            "time": 71.032116,
            "velocity": 0.29133858267716534
          },
          {
            "duration": 0.09677400000001057,
            "durationTicks": 96,
            "midi": 44,
            "name": "G#2",
            "ticks": 70656,
            "time": 71.225664,
            "velocity": 0.29133858267716534
          },
          {
            "duration": 0.09677399999999636,
            "durationTicks": 96,
            "midi": 51,
            "name": "D#3",
            "ticks": 70848,
            "time": 71.419212,
            "velocity": 0.29133858267716534
          },
          {
            "duration": 0.09677399999999636,
            "durationTicks": 96,
            "midi": 48,
            "name": "C3",
            "ticks": 70848,
            "time": 71.419212,
            "velocity": 0.29133858267716534
          },
          {
            "duration": 0.09677400000001057,
            "durationTicks": 96,
            "midi": 39,
            "name": "D#2",
            "ticks": 71040,
            "time": 71.61276,
            "velocity": 0.29133858267716534
          },
          {
            "duration": 0.09677399999999636,
            "durationTicks": 96,
            "midi": 48,
            "name": "C3",
            "ticks": 71232,
            "time": 71.806308,
            "velocity": 0.29133858267716534
          },
          {
            "duration": 0.09677399999999636,
            "durationTicks": 96,
            "midi": 51,
            "name": "D#3",
            "ticks": 71232,
            "time": 71.806308,
            "velocity": 0.29133858267716534
          },
          {
            "duration": 0.09677400000001057,
            "durationTicks": 96,
            "midi": 43,
            "name": "G2",
            "ticks": 71424,
            "time": 71.999856,
            "velocity": 0.29133858267716534
          },
          {
            "duration": 0.09677399999999636,
            "durationTicks": 96,
            "midi": 50,
            "name": "D3",
            "ticks": 71616,
            "time": 72.193404,
            "velocity": 0.29133858267716534
          },
          {
            "duration": 0.09677399999999636,
            "durationTicks": 96,
            "midi": 47,
            "name": "B2",
            "ticks": 71616,
            "time": 72.193404,
            "velocity": 0.29133858267716534
          },
          {
            "duration": 0.09677400000001057,
            "durationTicks": 96,
            "midi": 38,
            "name": "D2",
            "ticks": 71808,
            "time": 72.386952,
            "velocity": 0.29133858267716534
          },
          {
            "duration": 0.09677399999999636,
            "durationTicks": 96,
            "midi": 47,
            "name": "B2",
            "ticks": 72000,
            "time": 72.5805,
            "velocity": 0.29133858267716534
          },
          {
            "duration": 0.09677399999999636,
            "durationTicks": 96,
            "midi": 50,
            "name": "D3",
            "ticks": 72000,
            "time": 72.5805,
            "velocity": 0.29133858267716534
          },
          {
            "duration": 0.09677400000001057,
            "durationTicks": 96,
            "midi": 48,
            "name": "C3",
            "ticks": 72192,
            "time": 72.774048,
            "velocity": 0.29133858267716534
          },
          {
            "duration": 0.09677399999999636,
            "durationTicks": 96,
            "midi": 51,
            "name": "D#3",
            "ticks": 72384,
            "time": 72.967596,
            "velocity": 0.29133858267716534
          },
          {
            "duration": 0.09677399999999636,
            "durationTicks": 96,
            "midi": 55,
            "name": "G3",
            "ticks": 72384,
            "time": 72.967596,
            "velocity": 0.29133858267716534
          },
          {
            "duration": 0.09677400000001057,
            "durationTicks": 96,
            "midi": 43,
            "name": "G2",
            "ticks": 72576,
            "time": 73.161144,
            "velocity": 0.29133858267716534
          },
          {
            "duration": 0.09677399999999636,
            "durationTicks": 96,
            "midi": 55,
            "name": "G3",
            "ticks": 72768,
            "time": 73.354692,
            "velocity": 0.29133858267716534
          },
          {
            "duration": 0.09677399999999636,
            "durationTicks": 96,
            "midi": 51,
            "name": "D#3",
            "ticks": 72768,
            "time": 73.354692,
            "velocity": 0.29133858267716534
          },
          {
            "duration": 0.09677400000001057,
            "durationTicks": 96,
            "midi": 48,
            "name": "C3",
            "ticks": 72960,
            "time": 73.54823999999999,
            "velocity": 0.29133858267716534
          },
          {
            "duration": 0.09677399999999636,
            "durationTicks": 96,
            "midi": 51,
            "name": "D#3",
            "ticks": 73152,
            "time": 73.741788,
            "velocity": 0.29133858267716534
          },
          {
            "duration": 0.09677399999999636,
            "durationTicks": 96,
            "midi": 55,
            "name": "G3",
            "ticks": 73152,
            "time": 73.741788,
            "velocity": 0.29133858267716534
          },
          {
            "duration": 0.09677400000001057,
            "durationTicks": 96,
            "midi": 43,
            "name": "G2",
            "ticks": 73344,
            "time": 73.93533599999999,
            "velocity": 0.29133858267716534
          },
          {
            "duration": 0.09677399999999636,
            "durationTicks": 96,
            "midi": 55,
            "name": "G3",
            "ticks": 73536,
            "time": 74.128884,
            "velocity": 0.29133858267716534
          },
          {
            "duration": 0.09677399999999636,
            "durationTicks": 96,
            "midi": 51,
            "name": "D#3",
            "ticks": 73536,
            "time": 74.128884,
            "velocity": 0.29133858267716534
          },
          {
            "duration": 0.09677400000001057,
            "durationTicks": 96,
            "midi": 51,
            "name": "D#3",
            "ticks": 73728,
            "time": 74.32243199999999,
            "velocity": 0.29133858267716534
          },
          {
            "duration": 0.09677399999999636,
            "durationTicks": 96,
            "midi": 55,
            "name": "G3",
            "ticks": 73920,
            "time": 74.51598,
            "velocity": 0.29133858267716534
          },
          {
            "duration": 0.09677399999999636,
            "durationTicks": 96,
            "midi": 58,
            "name": "A#3",
            "ticks": 73920,
            "time": 74.51598,
            "velocity": 0.29133858267716534
          },
          {
            "duration": 0.09677399999999636,
            "durationTicks": 96,
            "midi": 46,
            "name": "A#2",
            "ticks": 74112,
            "time": 74.709528,
            "velocity": 0.29133858267716534
          },
          {
            "duration": 0.09677399999999636,
            "durationTicks": 96,
            "midi": 55,
            "name": "G3",
            "ticks": 74304,
            "time": 74.903076,
            "velocity": 0.29133858267716534
          },
          {
            "duration": 0.09677399999999636,
            "durationTicks": 96,
            "midi": 58,
            "name": "A#3",
            "ticks": 74304,
            "time": 74.903076,
            "velocity": 0.29133858267716534
          },
          {
            "duration": 0.09677399999999636,
            "durationTicks": 96,
            "midi": 51,
            "name": "D#3",
            "ticks": 74496,
            "time": 75.096624,
            "velocity": 0.29133858267716534
          },
          {
            "duration": 0.09677399999999636,
            "durationTicks": 96,
            "midi": 55,
            "name": "G3",
            "ticks": 74688,
            "time": 75.290172,
            "velocity": 0.29133858267716534
          },
          {
            "duration": 0.09677399999999636,
            "durationTicks": 96,
            "midi": 58,
            "name": "A#3",
            "ticks": 74688,
            "time": 75.290172,
            "velocity": 0.29133858267716534
          },
          {
            "duration": 0.09677399999999636,
            "durationTicks": 96,
            "midi": 46,
            "name": "A#2",
            "ticks": 74880,
            "time": 75.48372,
            "velocity": 0.29133858267716534
          },
          {
            "duration": 0.09677399999999636,
            "durationTicks": 96,
            "midi": 55,
            "name": "G3",
            "ticks": 75072,
            "time": 75.677268,
            "velocity": 0.29133858267716534
          },
          {
            "duration": 0.09677399999999636,
            "durationTicks": 96,
            "midi": 58,
            "name": "A#3",
            "ticks": 75072,
            "time": 75.677268,
            "velocity": 0.29133858267716534
          },
          {
            "duration": 0.09677399999999636,
            "durationTicks": 96,
            "midi": 46,
            "name": "A#2",
            "ticks": 75264,
            "time": 75.870816,
            "velocity": 0.29133858267716534
          },
          {
            "duration": 0.09677399999999636,
            "durationTicks": 96,
            "midi": 50,
            "name": "D3",
            "ticks": 75456,
            "time": 76.064364,
            "velocity": 0.29133858267716534
          },
          {
            "duration": 0.09677399999999636,
            "durationTicks": 96,
            "midi": 53,
            "name": "F3",
            "ticks": 75456,
            "time": 76.064364,
            "velocity": 0.29133858267716534
          },
          {
            "duration": 0.09677399999999636,
            "durationTicks": 96,
            "midi": 41,
            "name": "F2",
            "ticks": 75648,
            "time": 76.257912,
            "velocity": 0.29133858267716534
          },
          {
            "duration": 0.09677399999999636,
            "durationTicks": 96,
            "midi": 53,
            "name": "F3",
            "ticks": 75840,
            "time": 76.45146,
            "velocity": 0.29133858267716534
          },
          {
            "duration": 0.09677399999999636,
            "durationTicks": 96,
            "midi": 50,
            "name": "D3",
            "ticks": 75840,
            "time": 76.45146,
            "velocity": 0.29133858267716534
          },
          {
            "duration": 0.09677399999999636,
            "durationTicks": 96,
            "midi": 46,
            "name": "A#2",
            "ticks": 76032,
            "time": 76.645008,
            "velocity": 0.29133858267716534
          },
          {
            "duration": 0.09677399999999636,
            "durationTicks": 96,
            "midi": 50,
            "name": "D3",
            "ticks": 76224,
            "time": 76.838556,
            "velocity": 0.29133858267716534
          },
          {
            "duration": 0.09677399999999636,
            "durationTicks": 96,
            "midi": 53,
            "name": "F3",
            "ticks": 76224,
            "time": 76.838556,
            "velocity": 0.29133858267716534
          },
          {
            "duration": 0.09677399999999636,
            "durationTicks": 96,
            "midi": 41,
            "name": "F2",
            "ticks": 76416,
            "time": 77.032104,
            "velocity": 0.29133858267716534
          },
          {
            "duration": 0.09677399999999636,
            "durationTicks": 96,
            "midi": 50,
            "name": "D3",
            "ticks": 76608,
            "time": 77.225652,
            "velocity": 0.29133858267716534
          },
          {
            "duration": 0.09677399999999636,
            "durationTicks": 96,
            "midi": 53,
            "name": "F3",
            "ticks": 76608,
            "time": 77.225652,
            "velocity": 0.29133858267716534
          },
          {
            "duration": 0.09677399999999636,
            "durationTicks": 96,
            "midi": 44,
            "name": "G#2",
            "ticks": 76800,
            "time": 77.4192,
            "velocity": 0.29133858267716534
          },
          {
            "duration": 0.09677399999999636,
            "durationTicks": 96,
            "midi": 48,
            "name": "C3",
            "ticks": 76992,
            "time": 77.612748,
            "velocity": 0.29133858267716534
          },
          {
            "duration": 0.09677399999999636,
            "durationTicks": 96,
            "midi": 51,
            "name": "D#3",
            "ticks": 76992,
            "time": 77.612748,
            "velocity": 0.29133858267716534
          },
          {
            "duration": 0.09677399999999636,
            "durationTicks": 96,
            "midi": 39,
            "name": "D#2",
            "ticks": 77184,
            "time": 77.806296,
            "velocity": 0.29133858267716534
          },
          {
            "duration": 0.09677399999999636,
            "durationTicks": 96,
            "midi": 51,
            "name": "D#3",
            "ticks": 77376,
            "time": 77.999844,
            "velocity": 0.29133858267716534
          },
          {
            "duration": 0.09677399999999636,
            "durationTicks": 96,
            "midi": 48,
            "name": "C3",
            "ticks": 77376,
            "time": 77.999844,
            "velocity": 0.29133858267716534
          },
          {
            "duration": 0.09677399999999636,
            "durationTicks": 96,
            "midi": 43,
            "name": "G2",
            "ticks": 77568,
            "time": 78.193392,
            "velocity": 0.29133858267716534
          },
          {
            "duration": 0.09677400000001057,
            "durationTicks": 96,
            "midi": 50,
            "name": "D3",
            "ticks": 77760,
            "time": 78.38694,
            "velocity": 0.29133858267716534
          },
          {
            "duration": 0.09677400000001057,
            "durationTicks": 96,
            "midi": 47,
            "name": "B2",
            "ticks": 77760,
            "time": 78.38694,
            "velocity": 0.29133858267716534
          },
          {
            "duration": 0.09677399999999636,
            "durationTicks": 96,
            "midi": 38,
            "name": "D2",
            "ticks": 77952,
            "time": 78.580488,
            "velocity": 0.29133858267716534
          },
          {
            "duration": 0.09677400000001057,
            "durationTicks": 96,
            "midi": 47,
            "name": "B2",
            "ticks": 78144,
            "time": 78.774036,
            "velocity": 0.29133858267716534
          },
          {
            "duration": 0.09677400000001057,
            "durationTicks": 96,
            "midi": 50,
            "name": "D3",
            "ticks": 78144,
            "time": 78.774036,
            "velocity": 0.29133858267716534
          },
          {
            "duration": 0.09677399999999636,
            "durationTicks": 96,
            "midi": 44,
            "name": "G#2",
            "ticks": 78336,
            "time": 78.967584,
            "velocity": 0.29133858267716534
          },
          {
            "duration": 0.09677400000001057,
            "durationTicks": 96,
            "midi": 48,
            "name": "C3",
            "ticks": 78528,
            "time": 79.161132,
            "velocity": 0.29133858267716534
          },
          {
            "duration": 0.09677400000001057,
            "durationTicks": 96,
            "midi": 51,
            "name": "D#3",
            "ticks": 78528,
            "time": 79.161132,
            "velocity": 0.29133858267716534
          },
          {
            "duration": 0.09677399999999636,
            "durationTicks": 96,
            "midi": 39,
            "name": "D#2",
            "ticks": 78720,
            "time": 79.35468,
            "velocity": 0.29133858267716534
          },
          {
            "duration": 0.09677400000001057,
            "durationTicks": 96,
            "midi": 48,
            "name": "C3",
            "ticks": 78912,
            "time": 79.548228,
            "velocity": 0.29133858267716534
          },
          {
            "duration": 0.09677400000001057,
            "durationTicks": 96,
            "midi": 51,
            "name": "D#3",
            "ticks": 78912,
            "time": 79.548228,
            "velocity": 0.29133858267716534
          },
          {
            "duration": 0.09677399999999636,
            "durationTicks": 96,
            "midi": 44,
            "name": "G#2",
            "ticks": 79104,
            "time": 79.741776,
            "velocity": 0.29133858267716534
          },
          {
            "duration": 0.09677400000001057,
            "durationTicks": 96,
            "midi": 48,
            "name": "C3",
            "ticks": 79296,
            "time": 79.935324,
            "velocity": 0.29133858267716534
          },
          {
            "duration": 0.09677400000001057,
            "durationTicks": 96,
            "midi": 51,
            "name": "D#3",
            "ticks": 79296,
            "time": 79.935324,
            "velocity": 0.29133858267716534
          },
          {
            "duration": 0.09677399999999636,
            "durationTicks": 96,
            "midi": 39,
            "name": "D#2",
            "ticks": 79488,
            "time": 80.128872,
            "velocity": 0.29133858267716534
          },
          {
            "duration": 0.09677400000001057,
            "durationTicks": 96,
            "midi": 48,
            "name": "C3",
            "ticks": 79680,
            "time": 80.32242,
            "velocity": 0.29133858267716534
          },
          {
            "duration": 0.09677400000001057,
            "durationTicks": 96,
            "midi": 51,
            "name": "D#3",
            "ticks": 79680,
            "time": 80.32242,
            "velocity": 0.29133858267716534
          },
          {
            "duration": 0.09677399999999636,
            "durationTicks": 96,
            "midi": 41,
            "name": "F2",
            "ticks": 79872,
            "time": 80.515968,
            "velocity": 0.29133858267716534
          },
          {
            "duration": 0.09677400000001057,
            "durationTicks": 96,
            "midi": 44,
            "name": "G#2",
            "ticks": 80064,
            "time": 80.709516,
            "velocity": 0.29133858267716534
          },
          {
            "duration": 0.09677400000001057,
            "durationTicks": 96,
            "midi": 48,
            "name": "C3",
            "ticks": 80064,
            "time": 80.709516,
            "velocity": 0.29133858267716534
          },
          {
            "duration": 0.09677399999999636,
            "durationTicks": 96,
            "midi": 36,
            "name": "C2",
            "ticks": 80256,
            "time": 80.903064,
            "velocity": 0.29133858267716534
          },
          {
            "duration": 0.09677400000001057,
            "durationTicks": 96,
            "midi": 44,
            "name": "G#2",
            "ticks": 80448,
            "time": 81.096612,
            "velocity": 0.29133858267716534
          },
          {
            "duration": 0.09677400000001057,
            "durationTicks": 96,
            "midi": 48,
            "name": "C3",
            "ticks": 80448,
            "time": 81.096612,
            "velocity": 0.29133858267716534
          },
          {
            "duration": 0.09677399999999636,
            "durationTicks": 96,
            "midi": 41,
            "name": "F2",
            "ticks": 80640,
            "time": 81.29016,
            "velocity": 0.29133858267716534
          },
          {
            "duration": 0.09677400000001057,
            "durationTicks": 96,
            "midi": 48,
            "name": "C3",
            "ticks": 80832,
            "time": 81.483708,
            "velocity": 0.29133858267716534
          },
          {
            "duration": 0.09677400000001057,
            "durationTicks": 96,
            "midi": 44,
            "name": "G#2",
            "ticks": 80832,
            "time": 81.483708,
            "velocity": 0.29133858267716534
          },
          {
            "duration": 0.09677399999999636,
            "durationTicks": 96,
            "midi": 36,
            "name": "C2",
            "ticks": 81024,
            "time": 81.677256,
            "velocity": 0.29133858267716534
          },
          {
            "duration": 0.09677400000001057,
            "durationTicks": 96,
            "midi": 44,
            "name": "G#2",
            "ticks": 81216,
            "time": 81.87080399999999,
            "velocity": 0.29133858267716534
          },
          {
            "duration": 0.09677400000001057,
            "durationTicks": 96,
            "midi": 48,
            "name": "C3",
            "ticks": 81216,
            "time": 81.87080399999999,
            "velocity": 0.29133858267716534
          },
          {
            "duration": 0.09677399999999636,
            "durationTicks": 96,
            "midi": 46,
            "name": "A#2",
            "ticks": 81408,
            "time": 82.064352,
            "velocity": 0.29133858267716534
          },
          {
            "duration": 0.09677400000001057,
            "durationTicks": 96,
            "midi": 50,
            "name": "D3",
            "ticks": 81600,
            "time": 82.25789999999999,
            "velocity": 0.29133858267716534
          },
          {
            "duration": 0.09677400000001057,
            "durationTicks": 96,
            "midi": 53,
            "name": "F3",
            "ticks": 81600,
            "time": 82.25789999999999,
            "velocity": 0.29133858267716534
          },
          {
            "duration": 0.09677399999999636,
            "durationTicks": 96,
            "midi": 41,
            "name": "F2",
            "ticks": 81792,
            "time": 82.451448,
            "velocity": 0.29133858267716534
          },
          {
            "duration": 0.09677399999999636,
            "durationTicks": 96,
            "midi": 50,
            "name": "D3",
            "ticks": 81984,
            "time": 82.644996,
            "velocity": 0.29133858267716534
          },
          {
            "duration": 0.09677399999999636,
            "durationTicks": 96,
            "midi": 53,
            "name": "F3",
            "ticks": 81984,
            "time": 82.644996,
            "velocity": 0.29133858267716534
          },
          {
            "duration": 0.09677399999999636,
            "durationTicks": 96,
            "midi": 46,
            "name": "A#2",
            "ticks": 82176,
            "time": 82.838544,
            "velocity": 0.29133858267716534
          },
          {
            "duration": 0.09677399999999636,
            "durationTicks": 96,
            "midi": 50,
            "name": "D3",
            "ticks": 82368,
            "time": 83.032092,
            "velocity": 0.29133858267716534
          },
          {
            "duration": 0.09677399999999636,
            "durationTicks": 96,
            "midi": 53,
            "name": "F3",
            "ticks": 82368,
            "time": 83.032092,
            "velocity": 0.29133858267716534
          },
          {
            "duration": 0.09677399999999636,
            "durationTicks": 96,
            "midi": 41,
            "name": "F2",
            "ticks": 82560,
            "time": 83.22564,
            "velocity": 0.29133858267716534
          },
          {
            "duration": 0.09677399999999636,
            "durationTicks": 96,
            "midi": 50,
            "name": "D3",
            "ticks": 82752,
            "time": 83.419188,
            "velocity": 0.29133858267716534
          },
          {
            "duration": 0.09677399999999636,
            "durationTicks": 96,
            "midi": 53,
            "name": "F3",
            "ticks": 82752,
            "time": 83.419188,
            "velocity": 0.29133858267716534
          },
          {
            "duration": 0.09677399999999636,
            "durationTicks": 96,
            "midi": 44,
            "name": "G#2",
            "ticks": 82944,
            "time": 83.612736,
            "velocity": 0.29133858267716534
          },
          {
            "duration": 0.09677399999999636,
            "durationTicks": 96,
            "midi": 48,
            "name": "C3",
            "ticks": 83136,
            "time": 83.806284,
            "velocity": 0.29133858267716534
          },
          {
            "duration": 0.09677399999999636,
            "durationTicks": 96,
            "midi": 51,
            "name": "D#3",
            "ticks": 83136,
            "time": 83.806284,
            "velocity": 0.29133858267716534
          },
          {
            "duration": 0.09677399999999636,
            "durationTicks": 96,
            "midi": 39,
            "name": "D#2",
            "ticks": 83328,
            "time": 83.999832,
            "velocity": 0.29133858267716534
          },
          {
            "duration": 0.09677399999999636,
            "durationTicks": 96,
            "midi": 48,
            "name": "C3",
            "ticks": 83520,
            "time": 84.19338,
            "velocity": 0.29133858267716534
          },
          {
            "duration": 0.09677399999999636,
            "durationTicks": 96,
            "midi": 51,
            "name": "D#3",
            "ticks": 83520,
            "time": 84.19338,
            "velocity": 0.29133858267716534
          },
          {
            "duration": 0.09677399999999636,
            "durationTicks": 96,
            "midi": 43,
            "name": "G2",
            "ticks": 83712,
            "time": 84.386928,
            "velocity": 0.29133858267716534
          },
          {
            "duration": 0.09677399999999636,
            "durationTicks": 96,
            "midi": 47,
            "name": "B2",
            "ticks": 83904,
            "time": 84.580476,
            "velocity": 0.29133858267716534
          },
          {
            "duration": 0.09677399999999636,
            "durationTicks": 96,
            "midi": 50,
            "name": "D3",
            "ticks": 83904,
            "time": 84.580476,
            "velocity": 0.29133858267716534
          },
          {
            "duration": 0.09677399999999636,
            "durationTicks": 96,
            "midi": 38,
            "name": "D2",
            "ticks": 84096,
            "time": 84.774024,
            "velocity": 0.29133858267716534
          },
          {
            "duration": 0.09677399999999636,
            "durationTicks": 96,
            "midi": 47,
            "name": "B2",
            "ticks": 84288,
            "time": 84.967572,
            "velocity": 0.29133858267716534
          },
          {
            "duration": 0.09677399999999636,
            "durationTicks": 96,
            "midi": 50,
            "name": "D3",
            "ticks": 84288,
            "time": 84.967572,
            "velocity": 0.29133858267716534
          },
          {
            "duration": 0.09677399999999636,
            "durationTicks": 96,
            "midi": 44,
            "name": "G#2",
            "ticks": 84480,
            "time": 85.16112,
            "velocity": 0.29133858267716534
          },
          {
            "duration": 0.09677399999999636,
            "durationTicks": 96,
            "midi": 51,
            "name": "D#3",
            "ticks": 84672,
            "time": 85.354668,
            "velocity": 0.29133858267716534
          },
          {
            "duration": 0.09677399999999636,
            "durationTicks": 96,
            "midi": 48,
            "name": "C3",
            "ticks": 84672,
            "time": 85.354668,
            "velocity": 0.29133858267716534
          },
          {
            "duration": 0.09677399999999636,
            "durationTicks": 96,
            "midi": 39,
            "name": "D#2",
            "ticks": 84864,
            "time": 85.548216,
            "velocity": 0.29133858267716534
          },
          {
            "duration": 0.09677399999999636,
            "durationTicks": 96,
            "midi": 48,
            "name": "C3",
            "ticks": 85056,
            "time": 85.741764,
            "velocity": 0.29133858267716534
          },
          {
            "duration": 0.09677399999999636,
            "durationTicks": 96,
            "midi": 51,
            "name": "D#3",
            "ticks": 85056,
            "time": 85.741764,
            "velocity": 0.29133858267716534
          },
          {
            "duration": 0.09677399999999636,
            "durationTicks": 96,
            "midi": 44,
            "name": "G#2",
            "ticks": 85248,
            "time": 85.935312,
            "velocity": 0.29133858267716534
          },
          {
            "duration": 0.09677399999999636,
            "durationTicks": 96,
            "midi": 48,
            "name": "C3",
            "ticks": 85440,
            "time": 86.12886,
            "velocity": 0.29133858267716534
          },
          {
            "duration": 0.09677399999999636,
            "durationTicks": 96,
            "midi": 51,
            "name": "D#3",
            "ticks": 85440,
            "time": 86.12886,
            "velocity": 0.29133858267716534
          },
          {
            "duration": 0.09677399999999636,
            "durationTicks": 96,
            "midi": 39,
            "name": "D#2",
            "ticks": 85632,
            "time": 86.322408,
            "velocity": 0.29133858267716534
          },
          {
            "duration": 0.09677399999999636,
            "durationTicks": 96,
            "midi": 48,
            "name": "C3",
            "ticks": 85824,
            "time": 86.515956,
            "velocity": 0.29133858267716534
          },
          {
            "duration": 0.09677399999999636,
            "durationTicks": 96,
            "midi": 51,
            "name": "D#3",
            "ticks": 85824,
            "time": 86.515956,
            "velocity": 0.29133858267716534
          },
          {
            "duration": 0.09677400000001057,
            "durationTicks": 96,
            "midi": 41,
            "name": "F2",
            "ticks": 86016,
            "time": 86.709504,
            "velocity": 0.29133858267716534
          },
          {
            "duration": 0.09677399999999636,
            "durationTicks": 96,
            "midi": 44,
            "name": "G#2",
            "ticks": 86208,
            "time": 86.903052,
            "velocity": 0.29133858267716534
          },
          {
            "duration": 0.09677399999999636,
            "durationTicks": 96,
            "midi": 48,
            "name": "C3",
            "ticks": 86208,
            "time": 86.903052,
            "velocity": 0.29133858267716534
          },
          {
            "duration": 0.09677400000001057,
            "durationTicks": 96,
            "midi": 36,
            "name": "C2",
            "ticks": 86400,
            "time": 87.0966,
            "velocity": 0.29133858267716534
          },
          {
            "duration": 0.09677399999999636,
            "durationTicks": 96,
            "midi": 44,
            "name": "G#2",
            "ticks": 86592,
            "time": 87.290148,
            "velocity": 0.29133858267716534
          },
          {
            "duration": 0.09677399999999636,
            "durationTicks": 96,
            "midi": 48,
            "name": "C3",
            "ticks": 86592,
            "time": 87.290148,
            "velocity": 0.29133858267716534
          },
          {
            "duration": 0.09677400000001057,
            "durationTicks": 96,
            "midi": 41,
            "name": "F2",
            "ticks": 86784,
            "time": 87.483696,
            "velocity": 0.29133858267716534
          },
          {
            "duration": 0.09677399999999636,
            "durationTicks": 96,
            "midi": 48,
            "name": "C3",
            "ticks": 86976,
            "time": 87.677244,
            "velocity": 0.29133858267716534
          },
          {
            "duration": 0.09677399999999636,
            "durationTicks": 96,
            "midi": 44,
            "name": "G#2",
            "ticks": 86976,
            "time": 87.677244,
            "velocity": 0.29133858267716534
          },
          {
            "duration": 0.09677400000001057,
            "durationTicks": 96,
            "midi": 36,
            "name": "C2",
            "ticks": 87168,
            "time": 87.870792,
            "velocity": 0.29133858267716534
          },
          {
            "duration": 0.09677399999999636,
            "durationTicks": 96,
            "midi": 44,
            "name": "G#2",
            "ticks": 87360,
            "time": 88.06434,
            "velocity": 0.29133858267716534
          },
          {
            "duration": 0.09677399999999636,
            "durationTicks": 96,
            "midi": 48,
            "name": "C3",
            "ticks": 87360,
            "time": 88.06434,
            "velocity": 0.29133858267716534
          },
          {
            "duration": 0.09677400000001057,
            "durationTicks": 96,
            "midi": 46,
            "name": "A#2",
            "ticks": 87552,
            "time": 88.257888,
            "velocity": 0.29133858267716534
          },
          {
            "duration": 0.09677399999999636,
            "durationTicks": 96,
            "midi": 53,
            "name": "F3",
            "ticks": 87744,
            "time": 88.451436,
            "velocity": 0.29133858267716534
          },
          {
            "duration": 0.09677399999999636,
            "durationTicks": 96,
            "midi": 50,
            "name": "D3",
            "ticks": 87744,
            "time": 88.451436,
            "velocity": 0.29133858267716534
          },
          {
            "duration": 0.09677400000001057,
            "durationTicks": 96,
            "midi": 41,
            "name": "F2",
            "ticks": 87936,
            "time": 88.644984,
            "velocity": 0.29133858267716534
          },
          {
            "duration": 0.09677399999999636,
            "durationTicks": 96,
            "midi": 50,
            "name": "D3",
            "ticks": 88128,
            "time": 88.838532,
            "velocity": 0.29133858267716534
          },
          {
            "duration": 0.09677399999999636,
            "durationTicks": 96,
            "midi": 53,
            "name": "F3",
            "ticks": 88128,
            "time": 88.838532,
            "velocity": 0.29133858267716534
          },
          {
            "duration": 0.09677400000001057,
            "durationTicks": 96,
            "midi": 46,
            "name": "A#2",
            "ticks": 88320,
            "time": 89.03208,
            "velocity": 0.29133858267716534
          },
          {
            "duration": 0.09677399999999636,
            "durationTicks": 96,
            "midi": 50,
            "name": "D3",
            "ticks": 88512,
            "time": 89.225628,
            "velocity": 0.29133858267716534
          },
          {
            "duration": 0.09677399999999636,
            "durationTicks": 96,
            "midi": 53,
            "name": "F3",
            "ticks": 88512,
            "time": 89.225628,
            "velocity": 0.29133858267716534
          },
          {
            "duration": 0.09677400000001057,
            "durationTicks": 96,
            "midi": 41,
            "name": "F2",
            "ticks": 88704,
            "time": 89.419176,
            "velocity": 0.29133858267716534
          },
          {
            "duration": 0.09677399999999636,
            "durationTicks": 96,
            "midi": 50,
            "name": "D3",
            "ticks": 88896,
            "time": 89.612724,
            "velocity": 0.29133858267716534
          },
          {
            "duration": 0.09677399999999636,
            "durationTicks": 96,
            "midi": 53,
            "name": "F3",
            "ticks": 88896,
            "time": 89.612724,
            "velocity": 0.29133858267716534
          },
          {
            "duration": 0.09677400000001057,
            "durationTicks": 96,
            "midi": 55,
            "name": "G3",
            "ticks": 89088,
            "time": 89.80627199999999,
            "velocity": 0.29133858267716534
          },
          {
            "duration": 0.09677400000001057,
            "durationTicks": 96,
            "midi": 43,
            "name": "G2",
            "ticks": 89088,
            "time": 89.80627199999999,
            "velocity": 0.29133858267716534
          },
          {
            "duration": 0.09677400000001057,
            "durationTicks": 96,
            "midi": 56,
            "name": "G#3",
            "ticks": 89472,
            "time": 90.19336799999999,
            "velocity": 0.29133858267716534
          },
          {
            "duration": 0.09677400000001057,
            "durationTicks": 96,
            "midi": 44,
            "name": "G#2",
            "ticks": 89472,
            "time": 90.19336799999999,
            "velocity": 0.29133858267716534
          },
          {
            "duration": 0.09677400000001057,
            "durationTicks": 96,
            "midi": 55,
            "name": "G3",
            "ticks": 89856,
            "time": 90.58046399999999,
            "velocity": 0.29133858267716534
          },
          {
            "duration": 0.09677400000001057,
            "durationTicks": 96,
            "midi": 43,
            "name": "G2",
            "ticks": 89856,
            "time": 90.58046399999999,
            "velocity": 0.29133858267716534
          },
          {
            "duration": 0.09677399999999636,
            "durationTicks": 96,
            "midi": 56,
            "name": "G#3",
            "ticks": 90240,
            "time": 90.96756,
            "velocity": 0.29133858267716534
          },
          {
            "duration": 0.09677399999999636,
            "durationTicks": 96,
            "midi": 44,
            "name": "G#2",
            "ticks": 90240,
            "time": 90.96756,
            "velocity": 0.29133858267716534
          },
          {
            "duration": 0.09677399999999636,
            "durationTicks": 96,
            "midi": 55,
            "name": "G3",
            "ticks": 90624,
            "time": 91.354656,
            "velocity": 0.29133858267716534
          },
          {
            "duration": 0.09677399999999636,
            "durationTicks": 96,
            "midi": 43,
            "name": "G2",
            "ticks": 90624,
            "time": 91.354656,
            "velocity": 0.29133858267716534
          },
          {
            "duration": 0.09677399999999636,
            "durationTicks": 96,
            "midi": 56,
            "name": "G#3",
            "ticks": 90816,
            "time": 91.548204,
            "velocity": 0.29133858267716534
          },
          {
            "duration": 0.09677399999999636,
            "durationTicks": 96,
            "midi": 44,
            "name": "G#2",
            "ticks": 90816,
            "time": 91.548204,
            "velocity": 0.29133858267716534
          },
          {
            "duration": 0.09677399999999636,
            "durationTicks": 96,
            "midi": 55,
            "name": "G3",
            "ticks": 91008,
            "time": 91.741752,
            "velocity": 0.29133858267716534
          },
          {
            "duration": 0.09677399999999636,
            "durationTicks": 96,
            "midi": 43,
            "name": "G2",
            "ticks": 91008,
            "time": 91.741752,
            "velocity": 0.29133858267716534
          },
          {
            "duration": 0.09677399999999636,
            "durationTicks": 96,
            "midi": 44,
            "name": "G#2",
            "ticks": 91200,
            "time": 91.9353,
            "velocity": 0.29133858267716534
          },
          {
            "duration": 0.09677399999999636,
            "durationTicks": 96,
            "midi": 56,
            "name": "G#3",
            "ticks": 91200,
            "time": 91.9353,
            "velocity": 0.29133858267716534
          },
          {
            "duration": 0.09677399999999636,
            "durationTicks": 96,
            "midi": 55,
            "name": "G3",
            "ticks": 91392,
            "time": 92.128848,
            "velocity": 0.29133858267716534
          },
          {
            "duration": 0.09677399999999636,
            "durationTicks": 96,
            "midi": 43,
            "name": "G2",
            "ticks": 91392,
            "time": 92.128848,
            "velocity": 0.29133858267716534
          },
          {
            "duration": 0.09677399999999636,
            "durationTicks": 96,
            "midi": 56,
            "name": "G#3",
            "ticks": 91584,
            "time": 92.322396,
            "velocity": 0.29133858267716534
          },
          {
            "duration": 0.09677399999999636,
            "durationTicks": 96,
            "midi": 44,
            "name": "G#2",
            "ticks": 91584,
            "time": 92.322396,
            "velocity": 0.29133858267716534
          },
          {
            "duration": 0.09677399999999636,
            "durationTicks": 96,
            "midi": 55,
            "name": "G3",
            "ticks": 91776,
            "time": 92.515944,
            "velocity": 0.29133858267716534
          },
          {
            "duration": 0.09677399999999636,
            "durationTicks": 96,
            "midi": 43,
            "name": "G2",
            "ticks": 91776,
            "time": 92.515944,
            "velocity": 0.29133858267716534
          },
          {
            "duration": 0.09677399999999636,
            "durationTicks": 96,
            "midi": 56,
            "name": "G#3",
            "ticks": 91968,
            "time": 92.709492,
            "velocity": 0.29133858267716534
          },
          {
            "duration": 0.09677399999999636,
            "durationTicks": 96,
            "midi": 44,
            "name": "G#2",
            "ticks": 91968,
            "time": 92.709492,
            "velocity": 0.29133858267716534
          },
          {
            "duration": 0.09677399999999636,
            "durationTicks": 96,
            "midi": 43,
            "name": "G2",
            "ticks": 92160,
            "time": 92.90304,
            "velocity": 0.29133858267716534
          },
          {
            "duration": 0.09677399999999636,
            "durationTicks": 96,
            "midi": 55,
            "name": "G3",
            "ticks": 92160,
            "time": 92.90304,
            "velocity": 0.29133858267716534
          },
          {
            "duration": 0.09677399999999636,
            "durationTicks": 96,
            "midi": 44,
            "name": "G#2",
            "ticks": 92352,
            "time": 93.096588,
            "velocity": 0.29133858267716534
          },
          {
            "duration": 0.09677399999999636,
            "durationTicks": 96,
            "midi": 56,
            "name": "G#3",
            "ticks": 92352,
            "time": 93.096588,
            "velocity": 0.29133858267716534
          },
          {
            "duration": 0.09677399999999636,
            "durationTicks": 96,
            "midi": 43,
            "name": "G2",
            "ticks": 92544,
            "time": 93.290136,
            "velocity": 0.29133858267716534
          },
          {
            "duration": 0.09677399999999636,
            "durationTicks": 96,
            "midi": 55,
            "name": "G3",
            "ticks": 92544,
            "time": 93.290136,
            "velocity": 0.29133858267716534
          },
          {
            "duration": 0.09677399999999636,
            "durationTicks": 96,
            "midi": 56,
            "name": "G#3",
            "ticks": 92736,
            "time": 93.483684,
            "velocity": 0.29133858267716534
          },
          {
            "duration": 0.09677399999999636,
            "durationTicks": 96,
            "midi": 44,
            "name": "G#2",
            "ticks": 92736,
            "time": 93.483684,
            "velocity": 0.29133858267716534
          },
          {
            "duration": 0.09677399999999636,
            "durationTicks": 96,
            "midi": 43,
            "name": "G2",
            "ticks": 92928,
            "time": 93.677232,
            "velocity": 0.29133858267716534
          },
          {
            "duration": 0.09677399999999636,
            "durationTicks": 96,
            "midi": 55,
            "name": "G3",
            "ticks": 92928,
            "time": 93.677232,
            "velocity": 0.29133858267716534
          },
          {
            "duration": 0.09677399999999636,
            "durationTicks": 96,
            "midi": 44,
            "name": "G#2",
            "ticks": 93120,
            "time": 93.87078,
            "velocity": 0.29133858267716534
          },
          {
            "duration": 0.09677399999999636,
            "durationTicks": 96,
            "midi": 56,
            "name": "G#3",
            "ticks": 93120,
            "time": 93.87078,
            "velocity": 0.29133858267716534
          },
          {
            "duration": 0.09677399999999636,
            "durationTicks": 96,
            "midi": 57,
            "name": "A3",
            "ticks": 93312,
            "time": 94.064328,
            "velocity": 0.29133858267716534
          },
          {
            "duration": 0.09677399999999636,
            "durationTicks": 96,
            "midi": 45,
            "name": "A2",
            "ticks": 93312,
            "time": 94.064328,
            "velocity": 0.29133858267716534
          },
          {
            "duration": 0.09677399999999636,
            "durationTicks": 96,
            "midi": 59,
            "name": "B3",
            "ticks": 93504,
            "time": 94.257876,
            "velocity": 0.29133858267716534
          },
          {
            "duration": 0.09677399999999636,
            "durationTicks": 96,
            "midi": 47,
            "name": "B2",
            "ticks": 93504,
            "time": 94.257876,
            "velocity": 0.29133858267716534
          },
          {
            "duration": 0.09677399999999636,
            "durationTicks": 96,
            "midi": 48,
            "name": "C3",
            "ticks": 93696,
            "time": 94.451424,
            "velocity": 0.29133858267716534
          },
          {
            "duration": 0.09677399999999636,
            "durationTicks": 96,
            "midi": 51,
            "name": "D#3",
            "ticks": 93888,
            "time": 94.644972,
            "velocity": 0.29133858267716534
          },
          {
            "duration": 0.09677399999999636,
            "durationTicks": 96,
            "midi": 55,
            "name": "G3",
            "ticks": 93888,
            "time": 94.644972,
            "velocity": 0.29133858267716534
          },
          {
            "duration": 0.09677399999999636,
            "durationTicks": 96,
            "midi": 43,
            "name": "G2",
            "ticks": 94080,
            "time": 94.83852,
            "velocity": 0.29133858267716534
          },
          {
            "duration": 0.09677400000001057,
            "durationTicks": 96,
            "midi": 51,
            "name": "D#3",
            "ticks": 94272,
            "time": 95.032068,
            "velocity": 0.29133858267716534
          },
          {
            "duration": 0.09677400000001057,
            "durationTicks": 96,
            "midi": 55,
            "name": "G3",
            "ticks": 94272,
            "time": 95.032068,
            "velocity": 0.29133858267716534
          },
          {
            "duration": 0.09677399999999636,
            "durationTicks": 96,
            "midi": 48,
            "name": "C3",
            "ticks": 94464,
            "time": 95.225616,
            "velocity": 0.29133858267716534
          },
          {
            "duration": 0.09677400000001057,
            "durationTicks": 96,
            "midi": 51,
            "name": "D#3",
            "ticks": 94656,
            "time": 95.419164,
            "velocity": 0.29133858267716534
          },
          {
            "duration": 0.09677400000001057,
            "durationTicks": 96,
            "midi": 55,
            "name": "G3",
            "ticks": 94656,
            "time": 95.419164,
            "velocity": 0.29133858267716534
          },
          {
            "duration": 0.09677399999999636,
            "durationTicks": 96,
            "midi": 43,
            "name": "G2",
            "ticks": 94848,
            "time": 95.612712,
            "velocity": 0.29133858267716534
          },
          {
            "duration": 0.09677400000001057,
            "durationTicks": 96,
            "midi": 55,
            "name": "G3",
            "ticks": 95040,
            "time": 95.80626,
            "velocity": 0.29133858267716534
          },
          {
            "duration": 0.09677400000001057,
            "durationTicks": 96,
            "midi": 51,
            "name": "D#3",
            "ticks": 95040,
            "time": 95.80626,
            "velocity": 0.29133858267716534
          },
          {
            "duration": 0.09677399999999636,
            "durationTicks": 96,
            "midi": 51,
            "name": "D#3",
            "ticks": 95232,
            "time": 95.999808,
            "velocity": 0.29133858267716534
          },
          {
            "duration": 0.09677400000001057,
            "durationTicks": 96,
            "midi": 55,
            "name": "G3",
            "ticks": 95424,
            "time": 96.193356,
            "velocity": 0.29133858267716534
          },
          {
            "duration": 0.09677400000001057,
            "durationTicks": 96,
            "midi": 58,
            "name": "A#3",
            "ticks": 95424,
            "time": 96.193356,
            "velocity": 0.29133858267716534
          },
          {
            "duration": 0.09677399999999636,
            "durationTicks": 96,
            "midi": 46,
            "name": "A#2",
            "ticks": 95616,
            "time": 96.386904,
            "velocity": 0.29133858267716534
          },
          {
            "duration": 0.09677400000001057,
            "durationTicks": 96,
            "midi": 55,
            "name": "G3",
            "ticks": 95808,
            "time": 96.580452,
            "velocity": 0.29133858267716534
          },
          {
            "duration": 0.09677400000001057,
            "durationTicks": 96,
            "midi": 58,
            "name": "A#3",
            "ticks": 95808,
            "time": 96.580452,
            "velocity": 0.29133858267716534
          },
          {
            "duration": 0.09677399999999636,
            "durationTicks": 96,
            "midi": 51,
            "name": "D#3",
            "ticks": 96000,
            "time": 96.774,
            "velocity": 0.29133858267716534
          },
          {
            "duration": 0.09677400000001057,
            "durationTicks": 96,
            "midi": 58,
            "name": "A#3",
            "ticks": 96192,
            "time": 96.967548,
            "velocity": 0.29133858267716534
          },
          {
            "duration": 0.09677400000001057,
            "durationTicks": 96,
            "midi": 55,
            "name": "G3",
            "ticks": 96192,
            "time": 96.967548,
            "velocity": 0.29133858267716534
          },
          {
            "duration": 0.09677399999999636,
            "durationTicks": 96,
            "midi": 46,
            "name": "A#2",
            "ticks": 96384,
            "time": 97.161096,
            "velocity": 0.29133858267716534
          },
          {
            "duration": 0.09677400000001057,
            "durationTicks": 96,
            "midi": 55,
            "name": "G3",
            "ticks": 96576,
            "time": 97.354644,
            "velocity": 0.29133858267716534
          },
          {
            "duration": 0.09677400000001057,
            "durationTicks": 96,
            "midi": 58,
            "name": "A#3",
            "ticks": 96576,
            "time": 97.354644,
            "velocity": 0.29133858267716534
          },
          {
            "duration": 0.09677399999999636,
            "durationTicks": 96,
            "midi": 46,
            "name": "A#2",
            "ticks": 96768,
            "time": 97.548192,
            "velocity": 0.29133858267716534
          },
          {
            "duration": 0.09677400000001057,
            "durationTicks": 96,
            "midi": 53,
            "name": "F3",
            "ticks": 96960,
            "time": 97.74174,
            "velocity": 0.29133858267716534
          },
          {
            "duration": 0.09677400000001057,
            "durationTicks": 96,
            "midi": 50,
            "name": "D3",
            "ticks": 96960,
            "time": 97.74174,
            "velocity": 0.29133858267716534
          },
          {
            "duration": 0.09677399999999636,
            "durationTicks": 96,
            "midi": 41,
            "name": "F2",
            "ticks": 97152,
            "time": 97.935288,
            "velocity": 0.29133858267716534
          },
          {
            "duration": 0.09677400000001057,
            "durationTicks": 96,
            "midi": 50,
            "name": "D3",
            "ticks": 97344,
            "time": 98.12883599999999,
            "velocity": 0.29133858267716534
          },
          {
            "duration": 0.09677400000001057,
            "durationTicks": 96,
            "midi": 53,
            "name": "F3",
            "ticks": 97344,
            "time": 98.12883599999999,
            "velocity": 0.29133858267716534
          },
          {
            "duration": 0.09677399999999636,
            "durationTicks": 96,
            "midi": 46,
            "name": "A#2",
            "ticks": 97536,
            "time": 98.322384,
            "velocity": 0.29133858267716534
          },
          {
            "duration": 0.09677400000001057,
            "durationTicks": 96,
            "midi": 50,
            "name": "D3",
            "ticks": 97728,
            "time": 98.51593199999999,
            "velocity": 0.29133858267716534
          },
          {
            "duration": 0.09677400000001057,
            "durationTicks": 96,
            "midi": 53,
            "name": "F3",
            "ticks": 97728,
            "time": 98.51593199999999,
            "velocity": 0.29133858267716534
          },
          {
            "duration": 0.09677399999999636,
            "durationTicks": 96,
            "midi": 41,
            "name": "F2",
            "ticks": 97920,
            "time": 98.70948,
            "velocity": 0.29133858267716534
          },
          {
            "duration": 0.09677400000001057,
            "durationTicks": 96,
            "midi": 50,
            "name": "D3",
            "ticks": 98112,
            "time": 98.90302799999999,
            "velocity": 0.29133858267716534
          },
          {
            "duration": 0.09677400000001057,
            "durationTicks": 96,
            "midi": 53,
            "name": "F3",
            "ticks": 98112,
            "time": 98.90302799999999,
            "velocity": 0.29133858267716534
          },
          {
            "duration": 0.09677399999999636,
            "durationTicks": 96,
            "midi": 44,
            "name": "G#2",
            "ticks": 98304,
            "time": 99.096576,
            "velocity": 0.29133858267716534
          },
          {
            "duration": 0.09677399999999636,
            "durationTicks": 96,
            "midi": 48,
            "name": "C3",
            "ticks": 98496,
            "time": 99.290124,
            "velocity": 0.29133858267716534
          },
          {
            "duration": 0.09677399999999636,
            "durationTicks": 96,
            "midi": 51,
            "name": "D#3",
            "ticks": 98496,
            "time": 99.290124,
            "velocity": 0.29133858267716534
          },
          {
            "duration": 0.09677399999999636,
            "durationTicks": 96,
            "midi": 39,
            "name": "D#2",
            "ticks": 98688,
            "time": 99.483672,
            "velocity": 0.29133858267716534
          },
          {
            "duration": 0.09677399999999636,
            "durationTicks": 96,
            "midi": 48,
            "name": "C3",
            "ticks": 98880,
            "time": 99.67722,
            "velocity": 0.29133858267716534
          },
          {
            "duration": 0.09677399999999636,
            "durationTicks": 96,
            "midi": 51,
            "name": "D#3",
            "ticks": 98880,
            "time": 99.67722,
            "velocity": 0.29133858267716534
          },
          {
            "duration": 0.09677399999999636,
            "durationTicks": 96,
            "midi": 43,
            "name": "G2",
            "ticks": 99072,
            "time": 99.870768,
            "velocity": 0.29133858267716534
          },
          {
            "duration": 0.09677399999999636,
            "durationTicks": 96,
            "midi": 47,
            "name": "B2",
            "ticks": 99264,
            "time": 100.064316,
            "velocity": 0.29133858267716534
          },
          {
            "duration": 0.09677399999999636,
            "durationTicks": 96,
            "midi": 50,
            "name": "D3",
            "ticks": 99264,
            "time": 100.064316,
            "velocity": 0.29133858267716534
          },
          {
            "duration": 0.09677399999999636,
            "durationTicks": 96,
            "midi": 38,
            "name": "D2",
            "ticks": 99456,
            "time": 100.257864,
            "velocity": 0.29133858267716534
          },
          {
            "duration": 0.09677399999999636,
            "durationTicks": 96,
            "midi": 47,
            "name": "B2",
            "ticks": 99648,
            "time": 100.451412,
            "velocity": 0.29133858267716534
          },
          {
            "duration": 0.09677399999999636,
            "durationTicks": 96,
            "midi": 50,
            "name": "D3",
            "ticks": 99648,
            "time": 100.451412,
            "velocity": 0.29133858267716534
          },
          {
            "duration": 0.09677399999999636,
            "durationTicks": 96,
            "midi": 48,
            "name": "C3",
            "ticks": 99840,
            "time": 100.64496,
            "velocity": 0.29133858267716534
          },
          {
            "duration": 0.09677399999999636,
            "durationTicks": 96,
            "midi": 51,
            "name": "D#3",
            "ticks": 100032,
            "time": 100.838508,
            "velocity": 0.29133858267716534
          },
          {
            "duration": 0.09677399999999636,
            "durationTicks": 96,
            "midi": 55,
            "name": "G3",
            "ticks": 100032,
            "time": 100.838508,
            "velocity": 0.29133858267716534
          },
          {
            "duration": 0.09677399999999636,
            "durationTicks": 96,
            "midi": 43,
            "name": "G2",
            "ticks": 100224,
            "time": 101.032056,
            "velocity": 0.29133858267716534
          },
          {
            "duration": 0.09677399999999636,
            "durationTicks": 96,
            "midi": 51,
            "name": "D#3",
            "ticks": 100416,
            "time": 101.225604,
            "velocity": 0.29133858267716534
          },
          {
            "duration": 0.09677399999999636,
            "durationTicks": 96,
            "midi": 55,
            "name": "G3",
            "ticks": 100416,
            "time": 101.225604,
            "velocity": 0.29133858267716534
          },
          {
            "duration": 0.09677399999999636,
            "durationTicks": 96,
            "midi": 48,
            "name": "C3",
            "ticks": 100608,
            "time": 101.419152,
            "velocity": 0.29133858267716534
          },
          {
            "duration": 0.09677399999999636,
            "durationTicks": 96,
            "midi": 51,
            "name": "D#3",
            "ticks": 100800,
            "time": 101.6127,
            "velocity": 0.29133858267716534
          },
          {
            "duration": 0.09677399999999636,
            "durationTicks": 96,
            "midi": 55,
            "name": "G3",
            "ticks": 100800,
            "time": 101.6127,
            "velocity": 0.29133858267716534
          },
          {
            "duration": 0.09677399999999636,
            "durationTicks": 96,
            "midi": 43,
            "name": "G2",
            "ticks": 100992,
            "time": 101.806248,
            "velocity": 0.29133858267716534
          },
          {
            "duration": 0.09677399999999636,
            "durationTicks": 96,
            "midi": 51,
            "name": "D#3",
            "ticks": 101184,
            "time": 101.999796,
            "velocity": 0.29133858267716534
          },
          {
            "duration": 0.09677399999999636,
            "durationTicks": 96,
            "midi": 55,
            "name": "G3",
            "ticks": 101184,
            "time": 101.999796,
            "velocity": 0.29133858267716534
          },
          {
            "duration": 0.09677399999999636,
            "durationTicks": 96,
            "midi": 51,
            "name": "D#3",
            "ticks": 101376,
            "time": 102.193344,
            "velocity": 0.29133858267716534
          },
          {
            "duration": 0.09677399999999636,
            "durationTicks": 96,
            "midi": 55,
            "name": "G3",
            "ticks": 101568,
            "time": 102.386892,
            "velocity": 0.29133858267716534
          },
          {
            "duration": 0.09677399999999636,
            "durationTicks": 96,
            "midi": 58,
            "name": "A#3",
            "ticks": 101568,
            "time": 102.386892,
            "velocity": 0.29133858267716534
          },
          {
            "duration": 0.09677399999999636,
            "durationTicks": 96,
            "midi": 46,
            "name": "A#2",
            "ticks": 101760,
            "time": 102.58044,
            "velocity": 0.29133858267716534
          },
          {
            "duration": 0.09677399999999636,
            "durationTicks": 96,
            "midi": 58,
            "name": "A#3",
            "ticks": 101952,
            "time": 102.773988,
            "velocity": 0.29133858267716534
          },
          {
            "duration": 0.09677399999999636,
            "durationTicks": 96,
            "midi": 55,
            "name": "G3",
            "ticks": 101952,
            "time": 102.773988,
            "velocity": 0.29133858267716534
          },
          {
            "duration": 0.09677399999999636,
            "durationTicks": 96,
            "midi": 51,
            "name": "D#3",
            "ticks": 102144,
            "time": 102.967536,
            "velocity": 0.29133858267716534
          },
          {
            "duration": 0.09677399999999636,
            "durationTicks": 96,
            "midi": 55,
            "name": "G3",
            "ticks": 102336,
            "time": 103.161084,
            "velocity": 0.29133858267716534
          },
          {
            "duration": 0.09677399999999636,
            "durationTicks": 96,
            "midi": 58,
            "name": "A#3",
            "ticks": 102336,
            "time": 103.161084,
            "velocity": 0.29133858267716534
          },
          {
            "duration": 0.09677400000001057,
            "durationTicks": 96,
            "midi": 46,
            "name": "A#2",
            "ticks": 102528,
            "time": 103.354632,
            "velocity": 0.29133858267716534
          },
          {
            "duration": 0.09677399999999636,
            "durationTicks": 96,
            "midi": 55,
            "name": "G3",
            "ticks": 102720,
            "time": 103.54818,
            "velocity": 0.29133858267716534
          },
          {
            "duration": 0.09677399999999636,
            "durationTicks": 96,
            "midi": 58,
            "name": "A#3",
            "ticks": 102720,
            "time": 103.54818,
            "velocity": 0.29133858267716534
          },
          {
            "duration": 0.09677400000001057,
            "durationTicks": 96,
            "midi": 46,
            "name": "A#2",
            "ticks": 102912,
            "time": 103.741728,
            "velocity": 0.29133858267716534
          },
          {
            "duration": 0.09677399999999636,
            "durationTicks": 96,
            "midi": 53,
            "name": "F3",
            "ticks": 103104,
            "time": 103.935276,
            "velocity": 0.29133858267716534
          },
          {
            "duration": 0.09677399999999636,
            "durationTicks": 96,
            "midi": 50,
            "name": "D3",
            "ticks": 103104,
            "time": 103.935276,
            "velocity": 0.29133858267716534
          },
          {
            "duration": 0.09677400000001057,
            "durationTicks": 96,
            "midi": 41,
            "name": "F2",
            "ticks": 103296,
            "time": 104.128824,
            "velocity": 0.29133858267716534
          },
          {
            "duration": 0.09677399999999636,
            "durationTicks": 96,
            "midi": 50,
            "name": "D3",
            "ticks": 103488,
            "time": 104.322372,
            "velocity": 0.29133858267716534
          },
          {
            "duration": 0.09677399999999636,
            "durationTicks": 96,
            "midi": 53,
            "name": "F3",
            "ticks": 103488,
            "time": 104.322372,
            "velocity": 0.29133858267716534
          },
          {
            "duration": 0.09677400000001057,
            "durationTicks": 96,
            "midi": 46,
            "name": "A#2",
            "ticks": 103680,
            "time": 104.51592,
            "velocity": 0.29133858267716534
          },
          {
            "duration": 0.09677399999999636,
            "durationTicks": 96,
            "midi": 53,
            "name": "F3",
            "ticks": 103872,
            "time": 104.709468,
            "velocity": 0.29133858267716534
          },
          {
            "duration": 0.09677399999999636,
            "durationTicks": 96,
            "midi": 50,
            "name": "D3",
            "ticks": 103872,
            "time": 104.709468,
            "velocity": 0.29133858267716534
          },
          {
            "duration": 0.09677400000001057,
            "durationTicks": 96,
            "midi": 41,
            "name": "F2",
            "ticks": 104064,
            "time": 104.903016,
            "velocity": 0.29133858267716534
          },
          {
            "duration": 0.09677399999999636,
            "durationTicks": 96,
            "midi": 53,
            "name": "F3",
            "ticks": 104256,
            "time": 105.096564,
            "velocity": 0.29133858267716534
          },
          {
            "duration": 0.09677399999999636,
            "durationTicks": 96,
            "midi": 50,
            "name": "D3",
            "ticks": 104256,
            "time": 105.096564,
            "velocity": 0.29133858267716534
          },
          {
            "duration": 0.09677400000001057,
            "durationTicks": 96,
            "midi": 44,
            "name": "G#2",
            "ticks": 104448,
            "time": 105.290112,
            "velocity": 0.29133858267716534
          },
          {
            "duration": 0.09677399999999636,
            "durationTicks": 96,
            "midi": 48,
            "name": "C3",
            "ticks": 104640,
            "time": 105.48366,
            "velocity": 0.29133858267716534
          },
          {
            "duration": 0.09677399999999636,
            "durationTicks": 96,
            "midi": 51,
            "name": "D#3",
            "ticks": 104640,
            "time": 105.48366,
            "velocity": 0.29133858267716534
          },
          {
            "duration": 0.09677400000001057,
            "durationTicks": 96,
            "midi": 39,
            "name": "D#2",
            "ticks": 104832,
            "time": 105.677208,
            "velocity": 0.29133858267716534
          },
          {
            "duration": 0.09677399999999636,
            "durationTicks": 96,
            "midi": 51,
            "name": "D#3",
            "ticks": 105024,
            "time": 105.870756,
            "velocity": 0.29133858267716534
          },
          {
            "duration": 0.09677399999999636,
            "durationTicks": 96,
            "midi": 48,
            "name": "C3",
            "ticks": 105024,
            "time": 105.870756,
            "velocity": 0.29133858267716534
          },
          {
            "duration": 0.09677400000001057,
            "durationTicks": 96,
            "midi": 43,
            "name": "G2",
            "ticks": 105216,
            "time": 106.06430399999999,
            "velocity": 0.29133858267716534
          },
          {
            "duration": 0.09677399999999636,
            "durationTicks": 96,
            "midi": 47,
            "name": "B2",
            "ticks": 105408,
            "time": 106.257852,
            "velocity": 0.29133858267716534
          },
          {
            "duration": 0.09677399999999636,
            "durationTicks": 96,
            "midi": 50,
            "name": "D3",
            "ticks": 105408,
            "time": 106.257852,
            "velocity": 0.29133858267716534
          },
          {
            "duration": 0.09677400000001057,
            "durationTicks": 96,
            "midi": 38,
            "name": "D2",
            "ticks": 105600,
            "time": 106.45139999999999,
            "velocity": 0.29133858267716534
          },
          {
            "duration": 0.09677399999999636,
            "durationTicks": 96,
            "midi": 47,
            "name": "B2",
            "ticks": 105792,
            "time": 106.644948,
            "velocity": 0.29133858267716534
          },
          {
            "duration": 0.09677399999999636,
            "durationTicks": 96,
            "midi": 50,
            "name": "D3",
            "ticks": 105792,
            "time": 106.644948,
            "velocity": 0.29133858267716534
          },
          {
            "duration": 0.09677400000001057,
            "durationTicks": 96,
            "midi": 44,
            "name": "G#2",
            "ticks": 105984,
            "time": 106.83849599999999,
            "velocity": 0.29133858267716534
          },
          {
            "duration": 0.09677399999999636,
            "durationTicks": 96,
            "midi": 51,
            "name": "D#3",
            "ticks": 106176,
            "time": 107.032044,
            "velocity": 0.29133858267716534
          },
          {
            "duration": 0.09677399999999636,
            "durationTicks": 96,
            "midi": 48,
            "name": "C3",
            "ticks": 106176,
            "time": 107.032044,
            "velocity": 0.29133858267716534
          },
          {
            "duration": 0.09677400000001057,
            "durationTicks": 96,
            "midi": 39,
            "name": "D#2",
            "ticks": 106368,
            "time": 107.22559199999999,
            "velocity": 0.29133858267716534
          },
          {
            "duration": 0.09677399999999636,
            "durationTicks": 96,
            "midi": 48,
            "name": "C3",
            "ticks": 106560,
            "time": 107.41914,
            "velocity": 0.29133858267716534
          },
          {
            "duration": 0.09677399999999636,
            "durationTicks": 96,
            "midi": 51,
            "name": "D#3",
            "ticks": 106560,
            "time": 107.41914,
            "velocity": 0.29133858267716534
          },
          {
            "duration": 0.09677399999999636,
            "durationTicks": 96,
            "midi": 44,
            "name": "G#2",
            "ticks": 106752,
            "time": 107.612688,
            "velocity": 0.29133858267716534
          },
          {
            "duration": 0.09677399999999636,
            "durationTicks": 96,
            "midi": 51,
            "name": "D#3",
            "ticks": 106944,
            "time": 107.806236,
            "velocity": 0.29133858267716534
          },
          {
            "duration": 0.09677399999999636,
            "durationTicks": 96,
            "midi": 48,
            "name": "C3",
            "ticks": 106944,
            "time": 107.806236,
            "velocity": 0.29133858267716534
          },
          {
            "duration": 0.09677399999999636,
            "durationTicks": 96,
            "midi": 39,
            "name": "D#2",
            "ticks": 107136,
            "time": 107.999784,
            "velocity": 0.29133858267716534
          },
          {
            "duration": 0.09677399999999636,
            "durationTicks": 96,
            "midi": 48,
            "name": "C3",
            "ticks": 107328,
            "time": 108.193332,
            "velocity": 0.29133858267716534
          },
          {
            "duration": 0.09677399999999636,
            "durationTicks": 96,
            "midi": 51,
            "name": "D#3",
            "ticks": 107328,
            "time": 108.193332,
            "velocity": 0.29133858267716534
          },
          {
            "duration": 0.09677399999999636,
            "durationTicks": 96,
            "midi": 41,
            "name": "F2",
            "ticks": 107520,
            "time": 108.38688,
            "velocity": 0.29133858267716534
          },
          {
            "duration": 0.09677399999999636,
            "durationTicks": 96,
            "midi": 44,
            "name": "G#2",
            "ticks": 107712,
            "time": 108.580428,
            "velocity": 0.29133858267716534
          },
          {
            "duration": 0.09677399999999636,
            "durationTicks": 96,
            "midi": 48,
            "name": "C3",
            "ticks": 107712,
            "time": 108.580428,
            "velocity": 0.29133858267716534
          },
          {
            "duration": 0.09677399999999636,
            "durationTicks": 96,
            "midi": 36,
            "name": "C2",
            "ticks": 107904,
            "time": 108.773976,
            "velocity": 0.29133858267716534
          },
          {
            "duration": 0.09677399999999636,
            "durationTicks": 96,
            "midi": 48,
            "name": "C3",
            "ticks": 108096,
            "time": 108.967524,
            "velocity": 0.29133858267716534
          },
          {
            "duration": 0.09677399999999636,
            "durationTicks": 96,
            "midi": 44,
            "name": "G#2",
            "ticks": 108096,
            "time": 108.967524,
            "velocity": 0.29133858267716534
          },
          {
            "duration": 0.09677399999999636,
            "durationTicks": 96,
            "midi": 41,
            "name": "F2",
            "ticks": 108288,
            "time": 109.161072,
            "velocity": 0.29133858267716534
          },
          {
            "duration": 0.09677399999999636,
            "durationTicks": 96,
            "midi": 44,
            "name": "G#2",
            "ticks": 108480,
            "time": 109.35462,
            "velocity": 0.29133858267716534
          },
          {
            "duration": 0.09677399999999636,
            "durationTicks": 96,
            "midi": 48,
            "name": "C3",
            "ticks": 108480,
            "time": 109.35462,
            "velocity": 0.29133858267716534
          },
          {
            "duration": 0.09677399999999636,
            "durationTicks": 96,
            "midi": 36,
            "name": "C2",
            "ticks": 108672,
            "time": 109.548168,
            "velocity": 0.29133858267716534
          },
          {
            "duration": 0.09677399999999636,
            "durationTicks": 96,
            "midi": 48,
            "name": "C3",
            "ticks": 108864,
            "time": 109.741716,
            "velocity": 0.29133858267716534
          },
          {
            "duration": 0.09677399999999636,
            "durationTicks": 96,
            "midi": 44,
            "name": "G#2",
            "ticks": 108864,
            "time": 109.741716,
            "velocity": 0.29133858267716534
          },
          {
            "duration": 0.09677399999999636,
            "durationTicks": 96,
            "midi": 46,
            "name": "A#2",
            "ticks": 109056,
            "time": 109.935264,
            "velocity": 0.29133858267716534
          },
          {
            "duration": 0.09677399999999636,
            "durationTicks": 96,
            "midi": 50,
            "name": "D3",
            "ticks": 109248,
            "time": 110.128812,
            "velocity": 0.29133858267716534
          },
          {
            "duration": 0.09677399999999636,
            "durationTicks": 96,
            "midi": 53,
            "name": "F3",
            "ticks": 109248,
            "time": 110.128812,
            "velocity": 0.29133858267716534
          },
          {
            "duration": 0.09677399999999636,
            "durationTicks": 96,
            "midi": 41,
            "name": "F2",
            "ticks": 109440,
            "time": 110.32236,
            "velocity": 0.29133858267716534
          },
          {
            "duration": 0.09677399999999636,
            "durationTicks": 96,
            "midi": 50,
            "name": "D3",
            "ticks": 109632,
            "time": 110.515908,
            "velocity": 0.29133858267716534
          },
          {
            "duration": 0.09677399999999636,
            "durationTicks": 96,
            "midi": 53,
            "name": "F3",
            "ticks": 109632,
            "time": 110.515908,
            "velocity": 0.29133858267716534
          },
          {
            "duration": 0.09677399999999636,
            "durationTicks": 96,
            "midi": 46,
            "name": "A#2",
            "ticks": 109824,
            "time": 110.709456,
            "velocity": 0.29133858267716534
          },
          {
            "duration": 0.09677399999999636,
            "durationTicks": 96,
            "midi": 50,
            "name": "D3",
            "ticks": 110016,
            "time": 110.903004,
            "velocity": 0.29133858267716534
          },
          {
            "duration": 0.09677399999999636,
            "durationTicks": 96,
            "midi": 53,
            "name": "F3",
            "ticks": 110016,
            "time": 110.903004,
            "velocity": 0.29133858267716534
          },
          {
            "duration": 0.09677399999999636,
            "durationTicks": 96,
            "midi": 41,
            "name": "F2",
            "ticks": 110208,
            "time": 111.096552,
            "velocity": 0.29133858267716534
          },
          {
            "duration": 0.09677399999999636,
            "durationTicks": 96,
            "midi": 50,
            "name": "D3",
            "ticks": 110400,
            "time": 111.2901,
            "velocity": 0.29133858267716534
          },
          {
            "duration": 0.09677399999999636,
            "durationTicks": 96,
            "midi": 53,
            "name": "F3",
            "ticks": 110400,
            "time": 111.2901,
            "velocity": 0.29133858267716534
          },
          {
            "duration": 0.09677399999999636,
            "durationTicks": 96,
            "midi": 44,
            "name": "G#2",
            "ticks": 110592,
            "time": 111.483648,
            "velocity": 0.29133858267716534
          },
          {
            "duration": 0.09677400000001057,
            "durationTicks": 96,
            "midi": 48,
            "name": "C3",
            "ticks": 110784,
            "time": 111.677196,
            "velocity": 0.29133858267716534
          },
          {
            "duration": 0.09677400000001057,
            "durationTicks": 96,
            "midi": 51,
            "name": "D#3",
            "ticks": 110784,
            "time": 111.677196,
            "velocity": 0.29133858267716534
          },
          {
            "duration": 0.09677399999999636,
            "durationTicks": 96,
            "midi": 39,
            "name": "D#2",
            "ticks": 110976,
            "time": 111.870744,
            "velocity": 0.29133858267716534
          },
          {
            "duration": 0.09677400000001057,
            "durationTicks": 96,
            "midi": 48,
            "name": "C3",
            "ticks": 111168,
            "time": 112.064292,
            "velocity": 0.29133858267716534
          },
          {
            "duration": 0.09677400000001057,
            "durationTicks": 96,
            "midi": 51,
            "name": "D#3",
            "ticks": 111168,
            "time": 112.064292,
            "velocity": 0.29133858267716534
          },
          {
            "duration": 0.09677399999999636,
            "durationTicks": 96,
            "midi": 43,
            "name": "G2",
            "ticks": 111360,
            "time": 112.25784,
            "velocity": 0.29133858267716534
          },
          {
            "duration": 0.09677400000001057,
            "durationTicks": 96,
            "midi": 47,
            "name": "B2",
            "ticks": 111552,
            "time": 112.451388,
            "velocity": 0.29133858267716534
          },
          {
            "duration": 0.09677400000001057,
            "durationTicks": 96,
            "midi": 50,
            "name": "D3",
            "ticks": 111552,
            "time": 112.451388,
            "velocity": 0.29133858267716534
          },
          {
            "duration": 0.09677399999999636,
            "durationTicks": 96,
            "midi": 38,
            "name": "D2",
            "ticks": 111744,
            "time": 112.644936,
            "velocity": 0.29133858267716534
          },
          {
            "duration": 0.09677400000001057,
            "durationTicks": 96,
            "midi": 47,
            "name": "B2",
            "ticks": 111936,
            "time": 112.838484,
            "velocity": 0.29133858267716534
          },
          {
            "duration": 0.09677400000001057,
            "durationTicks": 96,
            "midi": 50,
            "name": "D3",
            "ticks": 111936,
            "time": 112.838484,
            "velocity": 0.29133858267716534
          },
          {
            "duration": 0.09677399999999636,
            "durationTicks": 96,
            "midi": 44,
            "name": "G#2",
            "ticks": 112128,
            "time": 113.032032,
            "velocity": 0.29133858267716534
          },
          {
            "duration": 0.09677400000001057,
            "durationTicks": 96,
            "midi": 48,
            "name": "C3",
            "ticks": 112320,
            "time": 113.22558,
            "velocity": 0.29133858267716534
          },
          {
            "duration": 0.09677400000001057,
            "durationTicks": 96,
            "midi": 51,
            "name": "D#3",
            "ticks": 112320,
            "time": 113.22558,
            "velocity": 0.29133858267716534
          },
          {
            "duration": 0.09677399999999636,
            "durationTicks": 96,
            "midi": 39,
            "name": "D#2",
            "ticks": 112512,
            "time": 113.419128,
            "velocity": 0.29133858267716534
          },
          {
            "duration": 0.09677400000001057,
            "durationTicks": 96,
            "midi": 48,
            "name": "C3",
            "ticks": 112704,
            "time": 113.612676,
            "velocity": 0.29133858267716534
          },
          {
            "duration": 0.09677400000001057,
            "durationTicks": 96,
            "midi": 51,
            "name": "D#3",
            "ticks": 112704,
            "time": 113.612676,
            "velocity": 0.29133858267716534
          },
          {
            "duration": 0.09677399999999636,
            "durationTicks": 96,
            "midi": 44,
            "name": "G#2",
            "ticks": 112896,
            "time": 113.806224,
            "velocity": 0.29133858267716534
          },
          {
            "duration": 0.09677400000001057,
            "durationTicks": 96,
            "midi": 48,
            "name": "C3",
            "ticks": 113088,
            "time": 113.999772,
            "velocity": 0.29133858267716534
          },
          {
            "duration": 0.09677400000001057,
            "durationTicks": 96,
            "midi": 51,
            "name": "D#3",
            "ticks": 113088,
            "time": 113.999772,
            "velocity": 0.29133858267716534
          },
          {
            "duration": 0.09677399999999636,
            "durationTicks": 96,
            "midi": 39,
            "name": "D#2",
            "ticks": 113280,
            "time": 114.19332,
            "velocity": 0.29133858267716534
          },
          {
            "duration": 0.09677400000001057,
            "durationTicks": 96,
            "midi": 48,
            "name": "C3",
            "ticks": 113472,
            "time": 114.38686799999999,
            "velocity": 0.29133858267716534
          },
          {
            "duration": 0.09677400000001057,
            "durationTicks": 96,
            "midi": 51,
            "name": "D#3",
            "ticks": 113472,
            "time": 114.38686799999999,
            "velocity": 0.29133858267716534
          },
          {
            "duration": 0.09677399999999636,
            "durationTicks": 96,
            "midi": 41,
            "name": "F2",
            "ticks": 113664,
            "time": 114.580416,
            "velocity": 0.29133858267716534
          },
          {
            "duration": 0.09677400000001057,
            "durationTicks": 96,
            "midi": 48,
            "name": "C3",
            "ticks": 113856,
            "time": 114.77396399999999,
            "velocity": 0.29133858267716534
          },
          {
            "duration": 0.09677400000001057,
            "durationTicks": 96,
            "midi": 44,
            "name": "G#2",
            "ticks": 113856,
            "time": 114.77396399999999,
            "velocity": 0.29133858267716534
          },
          {
            "duration": 0.09677399999999636,
            "durationTicks": 96,
            "midi": 36,
            "name": "C2",
            "ticks": 114048,
            "time": 114.967512,
            "velocity": 0.29133858267716534
          },
          {
            "duration": 0.09677400000001057,
            "durationTicks": 96,
            "midi": 44,
            "name": "G#2",
            "ticks": 114240,
            "time": 115.16105999999999,
            "velocity": 0.29133858267716534
          },
          {
            "duration": 0.09677400000001057,
            "durationTicks": 96,
            "midi": 48,
            "name": "C3",
            "ticks": 114240,
            "time": 115.16105999999999,
            "velocity": 0.29133858267716534
          },
          {
            "duration": 0.09677399999999636,
            "durationTicks": 96,
            "midi": 41,
            "name": "F2",
            "ticks": 114432,
            "time": 115.354608,
            "velocity": 0.29133858267716534
          },
          {
            "duration": 0.09677400000001057,
            "durationTicks": 96,
            "midi": 44,
            "name": "G#2",
            "ticks": 114624,
            "time": 115.54815599999999,
            "velocity": 0.29133858267716534
          },
          {
            "duration": 0.09677400000001057,
            "durationTicks": 96,
            "midi": 48,
            "name": "C3",
            "ticks": 114624,
            "time": 115.54815599999999,
            "velocity": 0.29133858267716534
          },
          {
            "duration": 0.09677399999999636,
            "durationTicks": 96,
            "midi": 36,
            "name": "C2",
            "ticks": 114816,
            "time": 115.741704,
            "velocity": 0.29133858267716534
          },
          {
            "duration": 0.09677399999999636,
            "durationTicks": 96,
            "midi": 44,
            "name": "G#2",
            "ticks": 115008,
            "time": 115.935252,
            "velocity": 0.29133858267716534
          },
          {
            "duration": 0.09677399999999636,
            "durationTicks": 96,
            "midi": 48,
            "name": "C3",
            "ticks": 115008,
            "time": 115.935252,
            "velocity": 0.29133858267716534
          },
          {
            "duration": 0.09677399999999636,
            "durationTicks": 96,
            "midi": 46,
            "name": "A#2",
            "ticks": 115200,
            "time": 116.1288,
            "velocity": 0.29133858267716534
          },
          {
            "duration": 0.09677399999999636,
            "durationTicks": 96,
            "midi": 50,
            "name": "D3",
            "ticks": 115392,
            "time": 116.322348,
            "velocity": 0.29133858267716534
          },
          {
            "duration": 0.09677399999999636,
            "durationTicks": 96,
            "midi": 53,
            "name": "F3",
            "ticks": 115392,
            "time": 116.322348,
            "velocity": 0.29133858267716534
          },
          {
            "duration": 0.09677399999999636,
            "durationTicks": 96,
            "midi": 41,
            "name": "F2",
            "ticks": 115584,
            "time": 116.515896,
            "velocity": 0.29133858267716534
          },
          {
            "duration": 0.09677399999999636,
            "durationTicks": 96,
            "midi": 50,
            "name": "D3",
            "ticks": 115776,
            "time": 116.709444,
            "velocity": 0.29133858267716534
          },
          {
            "duration": 0.09677399999999636,
            "durationTicks": 96,
            "midi": 53,
            "name": "F3",
            "ticks": 115776,
            "time": 116.709444,
            "velocity": 0.29133858267716534
          },
          {
            "duration": 0.09677399999999636,
            "durationTicks": 96,
            "midi": 46,
            "name": "A#2",
            "ticks": 115968,
            "time": 116.902992,
            "velocity": 0.29133858267716534
          },
          {
            "duration": 0.09677399999999636,
            "durationTicks": 96,
            "midi": 50,
            "name": "D3",
            "ticks": 116160,
            "time": 117.09654,
            "velocity": 0.29133858267716534
          },
          {
            "duration": 0.09677399999999636,
            "durationTicks": 96,
            "midi": 53,
            "name": "F3",
            "ticks": 116160,
            "time": 117.09654,
            "velocity": 0.29133858267716534
          },
          {
            "duration": 0.09677399999999636,
            "durationTicks": 96,
            "midi": 41,
            "name": "F2",
            "ticks": 116352,
            "time": 117.290088,
            "velocity": 0.29133858267716534
          },
          {
            "duration": 0.09677399999999636,
            "durationTicks": 96,
            "midi": 50,
            "name": "D3",
            "ticks": 116544,
            "time": 117.483636,
            "velocity": 0.29133858267716534
          },
          {
            "duration": 0.09677399999999636,
            "durationTicks": 96,
            "midi": 53,
            "name": "F3",
            "ticks": 116544,
            "time": 117.483636,
            "velocity": 0.29133858267716534
          },
          {
            "duration": 0.09677399999999636,
            "durationTicks": 96,
            "midi": 48,
            "name": "C3",
            "ticks": 116736,
            "time": 117.677184,
            "velocity": 0.29133858267716534
          },
          {
            "duration": 0.09677399999999636,
            "durationTicks": 96,
            "midi": 51,
            "name": "D#3",
            "ticks": 116736,
            "time": 117.677184,
            "velocity": 0.29133858267716534
          },
          {
            "duration": 0.09677399999999636,
            "durationTicks": 96,
            "midi": 44,
            "name": "G#2",
            "ticks": 116736,
            "time": 117.677184,
            "velocity": 0.29133858267716534
          },
          {
            "duration": 0.09677399999999636,
            "durationTicks": 96,
            "midi": 50,
            "name": "D3",
            "ticks": 117120,
            "time": 118.06428,
            "velocity": 0.29133858267716534
          },
          {
            "duration": 0.09677399999999636,
            "durationTicks": 96,
            "midi": 47,
            "name": "B2",
            "ticks": 117120,
            "time": 118.06428,
            "velocity": 0.29133858267716534
          },
          {
            "duration": 0.09677399999999636,
            "durationTicks": 96,
            "midi": 43,
            "name": "G2",
            "ticks": 117120,
            "time": 118.06428,
            "velocity": 0.29133858267716534
          },
          {
            "duration": 0.09677399999999636,
            "durationTicks": 96,
            "midi": 48,
            "name": "C3",
            "ticks": 117504,
            "time": 118.451376,
            "velocity": 0.29133858267716534
          },
          {
            "duration": 0.09677399999999636,
            "durationTicks": 96,
            "midi": 36,
            "name": "C2",
            "ticks": 117504,
            "time": 118.451376,
            "velocity": 0.29133858267716534
          }
        ],
        "endOfTrackTicks": 117600
      }
    ]
  }