{
  "header": {
    "keySignatures": [],
    "meta": [],
    "name": "",
    "ppq": 192,
    "tempos": [
      {
        "bpm": 78.000078000078,
        "ticks": 0
      },
      {
        "bpm": 154.000154000154,
        "ticks": 56832
      },
      {
        "bpm": 78.000078000078,
        "ticks": 78720
      }
    ],
    "timeSignatures": [
      {
        "ticks": 0,
        "timeSignature": [
          2,
          4
        ],
        "measures": 0
      }
    ]
  },
  "tracks": [
    {
      "channel": 0,
      "controlChanges": {
        "0": [
          {
            "number": 0,
            "ticks": 242,
            "time": 0.9695503125,
            "value": 0
          }
        ],
        "32": [
          {
            "number": 32,
            "ticks": 244,
            "time": 0.9775631249999999,
            "value": 0
          }
        ],
        "121": [
          {
            "number": 121,
            "ticks": 170,
            "time": 0.6810890624999999,
            "value": 0
          }
        ]
      },
      "pitchBends": [],
      "instrument": {
        "family": "piano",
        "number": 0,
        "name": "acoustic grand piano"
      },
      "name": "",
      "notes": [],
      "endOfTrackTicks": 92930
    },
    {
      "channel": 5,
      "controlChanges": {
        "7": [
          {
            "number": 7,
            "ticks": 248,
            "time": 0.99358875,
            "value": 0.968503937007874
          }
        ],
        "10": [
          {
            "number": 10,
            "ticks": 248,
            "time": 0.99358875,
            "value": 0.5039370078740157
          }
        ],
        "11": [
          {
            "number": 11,
            "ticks": 248,
            "time": 0.99358875,
            "value": 0.7874015748031497
          }
        ],
        "91": [
          {
            "number": 91,
            "ticks": 250,
            "time": 1.0016015624999999,
            "value": 1
          }
        ],
        "93": [
          {
            "number": 93,
            "ticks": 250,
            "time": 1.0016015624999999,
            "value": 0.47244094488188976
          }
        ],
        "120": [
          {
            "number": 120,
            "ticks": 92928,
            "time": 329.03064,
            "value": 0
          }
        ],
        "123": [
          {
            "number": 123,
            "ticks": 92930,
            "time": 329.0386528125,
            "value": 0
          }
        ]
      },
      "pitchBends": [],
      "instrument": {
        "family": "brass",
        "number": 60,
        "name": "french horn"
      },
      "name": "",
      "notes": [
        {
          "duration": 0.0881409374999933,
          "durationTicks": 22,
          "midi": 72,
          "name": "C5",
          "ticks": 13056,
          "time": 52.30764,
          "velocity": 0.952755905511811
        },
        {
          "duration": 2.644228124999998,
          "durationTicks": 660,
          "midi": 74,
          "name": "D5",
          "ticks": 13056,
          "time": 52.30764,
          "velocity": 0.937007874015748
        },
        {
          "duration": 0.3846150000000037,
          "durationTicks": 96,
          "midi": 70,
          "name": "A#4",
          "ticks": 13728,
          "time": 54.999945,
          "velocity": 0.952755905511811
        },
        {
          "duration": 0.36057656250000036,
          "durationTicks": 90,
          "midi": 72,
          "name": "C5",
          "ticks": 13824,
          "time": 55.38456,
          "velocity": 0.9606299212598425
        },
        {
          "duration": 2.139420937499999,
          "durationTicks": 534,
          "midi": 74,
          "name": "D5",
          "ticks": 13920,
          "time": 55.769175,
          "velocity": 0.9212598425196851
        },
        {
          "duration": 0.14423062500000583,
          "durationTicks": 36,
          "midi": 73,
          "name": "C#5",
          "ticks": 13968,
          "time": 55.961482499999995,
          "velocity": 0.9291338582677166
        },
        {
          "duration": 0.37660218749999785,
          "durationTicks": 94,
          "midi": 74,
          "name": "D5",
          "ticks": 14496,
          "time": 58.076865,
          "velocity": 0.968503937007874
        },
        {
          "duration": 0.3846150000000037,
          "durationTicks": 96,
          "midi": 75,
          "name": "D#5",
          "ticks": 14592,
          "time": 58.461479999999995,
          "velocity": 0.968503937007874
        },
        {
          "duration": 0.20032031250000415,
          "durationTicks": 50,
          "midi": 77,
          "name": "F5",
          "ticks": 14688,
          "time": 58.846095,
          "velocity": 0.9606299212598425
        },
        {
          "duration": 0.3846150000000037,
          "durationTicks": 96,
          "midi": 75,
          "name": "D#5",
          "ticks": 14736,
          "time": 59.0384025,
          "velocity": 0.952755905511811
        },
        {
          "duration": 0.336538124999997,
          "durationTicks": 84,
          "midi": 74,
          "name": "D5",
          "ticks": 14832,
          "time": 59.4230175,
          "velocity": 0.9448818897637795
        },
        {
          "duration": 1.2419859374999973,
          "durationTicks": 310,
          "midi": 72,
          "name": "C5",
          "ticks": 14928,
          "time": 59.8076325,
          "velocity": 0.9448818897637795
        },
        {
          "duration": 0.25640999999999536,
          "durationTicks": 64,
          "midi": 72,
          "name": "C5",
          "ticks": 15264,
          "time": 61.153785,
          "velocity": 0.9448818897637795
        },
        {
          "duration": 0.2804484374999987,
          "durationTicks": 70,
          "midi": 74,
          "name": "D5",
          "ticks": 15312,
          "time": 61.3460925,
          "velocity": 0.9606299212598425
        },
        {
          "duration": 0.3685893750000062,
          "durationTicks": 92,
          "midi": 75,
          "name": "D#5",
          "ticks": 15360,
          "time": 61.538399999999996,
          "velocity": 0.952755905511811
        },
        {
          "duration": 0.27243562499999996,
          "durationTicks": 68,
          "midi": 77,
          "name": "F5",
          "ticks": 15456,
          "time": 61.923015,
          "velocity": 0.952755905511811
        },
        {
          "duration": 0.32051250000000664,
          "durationTicks": 80,
          "midi": 75,
          "name": "D#5",
          "ticks": 15504,
          "time": 62.1153225,
          "velocity": 0.9448818897637795
        },
        {
          "duration": 0.30448687500000204,
          "durationTicks": 76,
          "midi": 74,
          "name": "D5",
          "ticks": 15600,
          "time": 62.499937499999994,
          "velocity": 0.9448818897637795
        },
        {
          "duration": 1.8349340624999968,
          "durationTicks": 458,
          "midi": 72,
          "name": "C5",
          "ticks": 15648,
          "time": 62.692245,
          "velocity": 0.9291338582677166
        },
        {
          "duration": 0.040064062499993724,
          "durationTicks": 10,
          "midi": 73,
          "name": "C#5",
          "ticks": 16128,
          "time": 64.61532,
          "velocity": 0.9606299212598425
        },
        {
          "duration": 0.30448687499999494,
          "durationTicks": 76,
          "midi": 74,
          "name": "D5",
          "ticks": 16128,
          "time": 64.61532,
          "velocity": 0.968503937007874
        },
        {
          "duration": 0.8173068749999999,
          "durationTicks": 204,
          "midi": 74,
          "name": "D5",
          "ticks": 16224,
          "time": 64.999935,
          "velocity": 0.9606299212598425
        },
        {
          "duration": 0.18429468749999955,
          "durationTicks": 46,
          "midi": 72,
          "name": "C5",
          "ticks": 16416,
          "time": 65.769165,
          "velocity": 0.9448818897637795
        },
        {
          "duration": 0.16826906250000206,
          "durationTicks": 42,
          "midi": 70,
          "name": "A#4",
          "ticks": 16464,
          "time": 65.9614725,
          "velocity": 0.9448818897637795
        },
        {
          "duration": 0.25641000000000247,
          "durationTicks": 64,
          "midi": 72,
          "name": "C5",
          "ticks": 16512,
          "time": 66.15378,
          "velocity": 0.9291338582677166
        },
        {
          "duration": 0.23237156249999202,
          "durationTicks": 58,
          "midi": 74,
          "name": "D5",
          "ticks": 16560,
          "time": 66.3460875,
          "velocity": 0.9291338582677166
        },
        {
          "duration": 0.30448687499999494,
          "durationTicks": 76,
          "midi": 77,
          "name": "F5",
          "ticks": 16800,
          "time": 67.307625,
          "velocity": 0.968503937007874
        },
        {
          "duration": 0.056089687500005425,
          "durationTicks": 14,
          "midi": 80,
          "name": "G#5",
          "ticks": 16896,
          "time": 67.69224,
          "velocity": 0.9606299212598425
        },
        {
          "duration": 0.5368584375000012,
          "durationTicks": 134,
          "midi": 81,
          "name": "A5",
          "ticks": 16896,
          "time": 67.69224,
          "velocity": 0.9606299212598425
        },
        {
          "duration": 2.1474337500000047,
          "durationTicks": 536,
          "midi": 79,
          "name": "G5",
          "ticks": 17040,
          "time": 68.2691625,
          "velocity": 0.9448818897637795
        },
        {
          "duration": 0.1602562499999891,
          "durationTicks": 40,
          "midi": 78,
          "name": "F#5",
          "ticks": 17568,
          "time": 70.384545,
          "velocity": 0.9606299212598425
        },
        {
          "duration": 0.1923074999999983,
          "durationTicks": 48,
          "midi": 79,
          "name": "G5",
          "ticks": 17616,
          "time": 70.5768525,
          "velocity": 0.9606299212598425
        },
        {
          "duration": 0.32051250000000664,
          "durationTicks": 80,
          "midi": 82,
          "name": "A#5",
          "ticks": 17664,
          "time": 70.76916,
          "velocity": 0.968503937007874
        },
        {
          "duration": 0.1762818750000008,
          "durationTicks": 44,
          "midi": 82,
          "name": "A#5",
          "ticks": 17760,
          "time": 71.153775,
          "velocity": 0.9606299212598425
        },
        {
          "duration": 0.7532043750000099,
          "durationTicks": 188,
          "midi": 82,
          "name": "A#5",
          "ticks": 17808,
          "time": 71.3460825,
          "velocity": 0.9606299212598425
        },
        {
          "duration": 0.0721153124999887,
          "durationTicks": 18,
          "midi": 81,
          "name": "A5",
          "ticks": 18000,
          "time": 72.1153125,
          "velocity": 0.9448818897637795
        },
        {
          "duration": 0.5689096874999962,
          "durationTicks": 142,
          "midi": 82,
          "name": "A#5",
          "ticks": 18000,
          "time": 72.1153125,
          "velocity": 0.937007874015748
        },
        {
          "duration": 0.3445509375000029,
          "durationTicks": 86,
          "midi": 79,
          "name": "G5",
          "ticks": 18144,
          "time": 72.692235,
          "velocity": 0.968503937007874
        },
        {
          "duration": 0.5128200000000049,
          "durationTicks": 128,
          "midi": 74,
          "name": "D5",
          "ticks": 18240,
          "time": 73.07685,
          "velocity": 0.968503937007874
        },
        {
          "duration": 0.09615374999999915,
          "durationTicks": 24,
          "midi": 75,
          "name": "D#5",
          "ticks": 18240,
          "time": 73.07685,
          "velocity": 0.968503937007874
        },
        {
          "duration": 1.9551262499999922,
          "durationTicks": 488,
          "midi": 72,
          "name": "C5",
          "ticks": 18336,
          "time": 73.461465,
          "velocity": 0.968503937007874
        },
        {
          "duration": 0.06410249999998996,
          "durationTicks": 16,
          "midi": 78,
          "name": "F#5",
          "ticks": 19200,
          "time": 76.923,
          "velocity": 0.968503937007874
        },
        {
          "duration": 2.2916643749999963,
          "durationTicks": 572,
          "midi": 79,
          "name": "G5",
          "ticks": 19200,
          "time": 76.923,
          "velocity": 0.968503937007874
        },
        {
          "duration": 0.42467906250000453,
          "durationTicks": 106,
          "midi": 77,
          "name": "F5",
          "ticks": 19776,
          "time": 79.23069,
          "velocity": 0.968503937007874
        },
        {
          "duration": 0.2243587500000075,
          "durationTicks": 56,
          "midi": 79,
          "name": "G5",
          "ticks": 19872,
          "time": 79.61530499999999,
          "velocity": 0.9606299212598425
        },
        {
          "duration": 0.2083331249999958,
          "durationTicks": 52,
          "midi": 80,
          "name": "G#5",
          "ticks": 19920,
          "time": 79.80761249999999,
          "velocity": 0.952755905511811
        },
        {
          "duration": 2.2836515624999976,
          "durationTicks": 570,
          "midi": 79,
          "name": "G5",
          "ticks": 19968,
          "time": 79.99992,
          "velocity": 0.9606299212598425
        },
        {
          "duration": 0.33653812500000413,
          "durationTicks": 84,
          "midi": 79,
          "name": "G5",
          "ticks": 20640,
          "time": 82.692225,
          "velocity": 0.968503937007874
        },
        {
          "duration": 0.1201921875000096,
          "durationTicks": 30,
          "midi": 79,
          "name": "G5",
          "ticks": 20736,
          "time": 83.07683999999999,
          "velocity": 0.968503937007874
        },
        {
          "duration": 0.5368584375000154,
          "durationTicks": 134,
          "midi": 80,
          "name": "G#5",
          "ticks": 20736,
          "time": 83.07683999999999,
          "velocity": 0.937007874015748
        },
        {
          "duration": 0.2644228125000012,
          "durationTicks": 66,
          "midi": 79,
          "name": "G5",
          "ticks": 20880,
          "time": 83.6537625,
          "velocity": 0.968503937007874
        },
        {
          "duration": 0.2243587500000075,
          "durationTicks": 56,
          "midi": 79,
          "name": "G5",
          "ticks": 20976,
          "time": 84.0383775,
          "velocity": 0.968503937007874
        },
        {
          "duration": 0.2243587500000075,
          "durationTicks": 56,
          "midi": 77,
          "name": "F5",
          "ticks": 21024,
          "time": 84.230685,
          "velocity": 0.9606299212598425
        },
        {
          "duration": 1.4182678125000052,
          "durationTicks": 354,
          "midi": 77,
          "name": "F5",
          "ticks": 21120,
          "time": 84.61529999999999,
          "velocity": 0.968503937007874
        },
        {
          "duration": 0.1762818750000008,
          "durationTicks": 44,
          "midi": 70,
          "name": "A#4",
          "ticks": 21456,
          "time": 85.9614525,
          "velocity": 0.968503937007874
        },
        {
          "duration": 0.3285253125000054,
          "durationTicks": 82,
          "midi": 70,
          "name": "A#4",
          "ticks": 21504,
          "time": 86.15375999999999,
          "velocity": 0.968503937007874
        },
        {
          "duration": 0.23237156249999202,
          "durationTicks": 58,
          "midi": 77,
          "name": "F5",
          "ticks": 21600,
          "time": 86.538375,
          "velocity": 0.9606299212598425
        },
        {
          "duration": 0.36057656250000036,
          "durationTicks": 90,
          "midi": 77,
          "name": "F5",
          "ticks": 21696,
          "time": 86.92299,
          "velocity": 0.968503937007874
        },
        {
          "duration": 0.2243587500000075,
          "durationTicks": 56,
          "midi": 79,
          "name": "G5",
          "ticks": 21792,
          "time": 87.307605,
          "velocity": 0.968503937007874
        },
        {
          "duration": 0.4166662500000058,
          "durationTicks": 104,
          "midi": 79,
          "name": "G5",
          "ticks": 21888,
          "time": 87.69221999999999,
          "velocity": 0.968503937007874
        },
        {
          "duration": 0.2964740624999962,
          "durationTicks": 74,
          "midi": 80,
          "name": "G#5",
          "ticks": 21984,
          "time": 88.076835,
          "velocity": 0.9606299212598425
        },
        {
          "duration": 0.4006406249999941,
          "durationTicks": 100,
          "midi": 80,
          "name": "G#5",
          "ticks": 22080,
          "time": 88.46145,
          "velocity": 0.9606299212598425
        },
        {
          "duration": 0.40865343750000704,
          "durationTicks": 102,
          "midi": 82,
          "name": "A#5",
          "ticks": 22176,
          "time": 88.846065,
          "velocity": 0.9606299212598425
        },
        {
          "duration": 0.36057656250000036,
          "durationTicks": 90,
          "midi": 80,
          "name": "G#5",
          "ticks": 22272,
          "time": 89.23067999999999,
          "velocity": 0.937007874015748
        },
        {
          "duration": 0.6891018749999915,
          "durationTicks": 172,
          "midi": 79,
          "name": "G5",
          "ticks": 22368,
          "time": 89.615295,
          "velocity": 0.9291338582677166
        },
        {
          "duration": 0.1923074999999983,
          "durationTicks": 48,
          "midi": 77,
          "name": "F5",
          "ticks": 22560,
          "time": 90.384525,
          "velocity": 0.968503937007874
        },
        {
          "duration": 0.15224343750000457,
          "durationTicks": 38,
          "midi": 75,
          "name": "D#5",
          "ticks": 22608,
          "time": 90.5768325,
          "velocity": 0.9606299212598425
        },
        {
          "duration": 1.1858962500000132,
          "durationTicks": 296,
          "midi": 77,
          "name": "F5",
          "ticks": 22656,
          "time": 90.76914,
          "velocity": 0.937007874015748
        },
        {
          "duration": 0.24038437500000498,
          "durationTicks": 60,
          "midi": 75,
          "name": "D#5",
          "ticks": 22944,
          "time": 91.922985,
          "velocity": 0.968503937007874
        },
        {
          "duration": 0.1923074999999983,
          "durationTicks": 48,
          "midi": 74,
          "name": "D5",
          "ticks": 22992,
          "time": 92.1152925,
          "velocity": 0.9133858267716536
        },
        {
          "duration": 1.2019218749999965,
          "durationTicks": 300,
          "midi": 75,
          "name": "D#5",
          "ticks": 23040,
          "time": 92.3076,
          "velocity": 0.937007874015748
        },
        {
          "duration": 0.11217937499999664,
          "durationTicks": 28,
          "midi": 70,
          "name": "A#4",
          "ticks": 23328,
          "time": 93.461445,
          "velocity": 0.952755905511811
        },
        {
          "duration": 0.16826906250000206,
          "durationTicks": 42,
          "midi": 70,
          "name": "A#4",
          "ticks": 23376,
          "time": 93.6537525,
          "velocity": 0.9606299212598425
        },
        {
          "duration": 0.33653812500000413,
          "durationTicks": 84,
          "midi": 71,
          "name": "B4",
          "ticks": 23424,
          "time": 93.84606,
          "velocity": 0.9606299212598425
        },
        {
          "duration": 0.24839718750000372,
          "durationTicks": 62,
          "midi": 73,
          "name": "C#5",
          "ticks": 23520,
          "time": 94.23067499999999,
          "velocity": 0.937007874015748
        },
        {
          "duration": 0.24839718750000372,
          "durationTicks": 62,
          "midi": 71,
          "name": "B4",
          "ticks": 23568,
          "time": 94.42298249999999,
          "velocity": 0.9448818897637795
        },
        {
          "duration": 0.16826906249998785,
          "durationTicks": 42,
          "midi": 73,
          "name": "C#5",
          "ticks": 23616,
          "time": 94.61529,
          "velocity": 0.937007874015748
        },
        {
          "duration": 0.13621781249999287,
          "durationTicks": 34,
          "midi": 71,
          "name": "B4",
          "ticks": 23664,
          "time": 94.8075975,
          "velocity": 0.937007874015748
        },
        {
          "duration": 0.13621781249999287,
          "durationTicks": 34,
          "midi": 73,
          "name": "C#5",
          "ticks": 23712,
          "time": 94.999905,
          "velocity": 0.937007874015748
        },
        {
          "duration": 0.13621781249999287,
          "durationTicks": 34,
          "midi": 71,
          "name": "B4",
          "ticks": 23760,
          "time": 95.1922125,
          "velocity": 0.952755905511811
        },
        {
          "duration": 1.730767499999999,
          "durationTicks": 432,
          "midi": 70,
          "name": "A#4",
          "ticks": 23808,
          "time": 95.38452,
          "velocity": 0.9448818897637795
        },
        {
          "duration": 0.0721153124999887,
          "durationTicks": 18,
          "midi": 88,
          "name": "E6",
          "ticks": 43296,
          "time": 173.461365,
          "velocity": 0.952755905511811
        },
        {
          "duration": 0.08012812499998745,
          "durationTicks": 20,
          "midi": 88,
          "name": "E6",
          "ticks": 43344,
          "time": 173.6536725,
          "velocity": 0.9448818897637795
        },
        {
          "duration": 0.3205124999999782,
          "durationTicks": 80,
          "midi": 93,
          "name": "A6",
          "ticks": 43392,
          "time": 173.84598,
          "velocity": 0.9606299212598425
        },
        {
          "duration": 0.08012812499998745,
          "durationTicks": 20,
          "midi": 88,
          "name": "E6",
          "ticks": 43488,
          "time": 174.230595,
          "velocity": 0.9448818897637795
        },
        {
          "duration": 0.08814093750001462,
          "durationTicks": 22,
          "midi": 88,
          "name": "E6",
          "ticks": 43536,
          "time": 174.4229025,
          "velocity": 0.9606299212598425
        },
        {
          "duration": 0.3445509375000029,
          "durationTicks": 86,
          "midi": 93,
          "name": "A6",
          "ticks": 43584,
          "time": 174.61521,
          "velocity": 0.9606299212598425
        },
        {
          "duration": 0.08814093750001462,
          "durationTicks": 22,
          "midi": 88,
          "name": "E6",
          "ticks": 43680,
          "time": 174.999825,
          "velocity": 0.952755905511811
        },
        {
          "duration": 0.11217937500001085,
          "durationTicks": 28,
          "midi": 88,
          "name": "E6",
          "ticks": 43728,
          "time": 175.19213249999999,
          "velocity": 0.9448818897637795
        },
        {
          "duration": 0.09615375000001336,
          "durationTicks": 24,
          "midi": 87,
          "name": "D#6",
          "ticks": 43776,
          "time": 175.38443999999998,
          "velocity": 0.952755905511811
        },
        {
          "duration": 0.11217937500001085,
          "durationTicks": 28,
          "midi": 87,
          "name": "D#6",
          "ticks": 43824,
          "time": 175.57674749999998,
          "velocity": 0.937007874015748
        },
        {
          "duration": 0.15224343750000457,
          "durationTicks": 38,
          "midi": 88,
          "name": "E6",
          "ticks": 43872,
          "time": 175.76905499999998,
          "velocity": 0.952755905511811
        },
        {
          "duration": 0.1923074999999983,
          "durationTicks": 48,
          "midi": 90,
          "name": "F#6",
          "ticks": 43968,
          "time": 176.15367,
          "velocity": 0.952755905511811
        },
        {
          "duration": 0.16025625000000332,
          "durationTicks": 40,
          "midi": 88,
          "name": "E6",
          "ticks": 44064,
          "time": 176.538285,
          "velocity": 0.9606299212598425
        },
        {
          "duration": 0.1201921875000096,
          "durationTicks": 30,
          "midi": 84,
          "name": "C6",
          "ticks": 46176,
          "time": 184.99981499999998,
          "velocity": 0.937007874015748
        },
        {
          "duration": 0.09615375000001336,
          "durationTicks": 24,
          "midi": 84,
          "name": "C6",
          "ticks": 46224,
          "time": 185.19212249999998,
          "velocity": 0.937007874015748
        },
        {
          "duration": 1.2099346875000094,
          "durationTicks": 302,
          "midi": 84,
          "name": "C6",
          "ticks": 46272,
          "time": 185.38442999999998,
          "velocity": 0.937007874015748
        },
        {
          "duration": 1.5384600000000148,
          "durationTicks": 384,
          "midi": 81,
          "name": "A5",
          "ticks": 46320,
          "time": 185.57673749999998,
          "velocity": 0.937007874015748
        },
        {
          "duration": 1.1939090624999835,
          "durationTicks": 298,
          "midi": 77,
          "name": "F5",
          "ticks": 46416,
          "time": 185.9613525,
          "velocity": 0.937007874015748
        },
        {
          "duration": 0.8253196874999844,
          "durationTicks": 206,
          "midi": 74,
          "name": "D5",
          "ticks": 46512,
          "time": 186.3459675,
          "velocity": 0.9448818897637795
        },
        {
          "duration": 0.5048071875000062,
          "durationTicks": 126,
          "midi": 72,
          "name": "C5",
          "ticks": 46608,
          "time": 186.7305825,
          "velocity": 0.9448818897637795
        },
        {
          "duration": 1.5705112500000382,
          "durationTicks": 392,
          "midi": 84,
          "name": "C6",
          "ticks": 52752,
          "time": 211.34594249999998,
          "velocity": 0.952755905511811
        },
        {
          "duration": 1.2099346875000094,
          "durationTicks": 302,
          "midi": 80,
          "name": "G#5",
          "ticks": 52848,
          "time": 211.7305575,
          "velocity": 0.9448818897637795
        },
        {
          "duration": 0.8653837499999781,
          "durationTicks": 216,
          "midi": 77,
          "name": "F5",
          "ticks": 52944,
          "time": 212.1151725,
          "velocity": 0.9448818897637795
        },
        {
          "duration": 0.5208328124999753,
          "durationTicks": 130,
          "midi": 75,
          "name": "D#5",
          "ticks": 53040,
          "time": 212.4997875,
          "velocity": 0.952755905511811
        },
        {
          "duration": 0.2644228125000154,
          "durationTicks": 66,
          "midi": 60,
          "name": "C4",
          "ticks": 53232,
          "time": 213.2690175,
          "velocity": 0.9606299212598425
        },
        {
          "duration": 0.2403843750000192,
          "durationTicks": 60,
          "midi": 59,
          "name": "B3",
          "ticks": 53328,
          "time": 213.6536325,
          "velocity": 0.9606299212598425
        },
        {
          "duration": 0.28846125000001166,
          "durationTicks": 72,
          "midi": 56,
          "name": "G#3",
          "ticks": 53424,
          "time": 214.03824749999998,
          "velocity": 0.968503937007874
        },
        {
          "duration": 0.1923074999999983,
          "durationTicks": 48,
          "midi": 65,
          "name": "F4",
          "ticks": 53424,
          "time": 214.03824749999998,
          "velocity": 0.968503937007874
        },
        {
          "duration": 0.24839718750001794,
          "durationTicks": 62,
          "midi": 55,
          "name": "G3",
          "ticks": 53520,
          "time": 214.42286249999998,
          "velocity": 0.968503937007874
        },
        {
          "duration": 0.384615000000025,
          "durationTicks": 96,
          "midi": 62,
          "name": "D4",
          "ticks": 53520,
          "time": 214.42286249999998,
          "velocity": 0.968503937007874
        },
        {
          "duration": 0.24038437499999077,
          "durationTicks": 60,
          "midi": 53,
          "name": "F3",
          "ticks": 53616,
          "time": 214.8074775,
          "velocity": 0.968503937007874
        },
        {
          "duration": 0.1923074999999983,
          "durationTicks": 48,
          "midi": 68,
          "name": "G#4",
          "ticks": 53616,
          "time": 214.8074775,
          "velocity": 0.968503937007874
        },
        {
          "duration": 0.24839718750001794,
          "durationTicks": 62,
          "midi": 50,
          "name": "D3",
          "ticks": 53712,
          "time": 215.1920925,
          "velocity": 0.968503937007874
        },
        {
          "duration": 0.1923074999999983,
          "durationTicks": 48,
          "midi": 67,
          "name": "G4",
          "ticks": 53712,
          "time": 215.1920925,
          "velocity": 0.968503937007874
        },
        {
          "duration": 0.39262781249999534,
          "durationTicks": 98,
          "midi": 48,
          "name": "C3",
          "ticks": 53808,
          "time": 215.5767075,
          "velocity": 0.9606299212598425
        },
        {
          "duration": 0.3846149999999966,
          "durationTicks": 96,
          "midi": 72,
          "name": "C5",
          "ticks": 53808,
          "time": 215.5767075,
          "velocity": 0.968503937007874
        },
        {
          "duration": 0.3525637500000016,
          "durationTicks": 88,
          "midi": 80,
          "name": "G#5",
          "ticks": 82560,
          "time": 287.49222,
          "velocity": 0.952755905511811
        },
        {
          "duration": 0.42467906250004717,
          "durationTicks": 106,
          "midi": 79,
          "name": "G5",
          "ticks": 82656,
          "time": 287.87683499999997,
          "velocity": 0.9606299212598425
        },
        {
          "duration": 0.37660218749999785,
          "durationTicks": 94,
          "midi": 75,
          "name": "D#5",
          "ticks": 82752,
          "time": 288.26144999999997,
          "velocity": 0.9448818897637795
        },
        {
          "duration": 0.24038437499996235,
          "durationTicks": 60,
          "midi": 67,
          "name": "G4",
          "ticks": 82848,
          "time": 288.646065,
          "velocity": 0.952755905511811
        },
        {
          "duration": 1.674677812500022,
          "durationTicks": 418,
          "midi": 70,
          "name": "A#4",
          "ticks": 82896,
          "time": 288.8383725,
          "velocity": 0.937007874015748
        },
        {
          "duration": 0.4246790624999903,
          "durationTicks": 106,
          "midi": 79,
          "name": "G5",
          "ticks": 83328,
          "time": 290.56914,
          "velocity": 0.952755905511811
        },
        {
          "duration": 0.4246790624999903,
          "durationTicks": 106,
          "midi": 77,
          "name": "F5",
          "ticks": 83424,
          "time": 290.953755,
          "velocity": 0.9448818897637795
        },
        {
          "duration": 0.44871749999998656,
          "durationTicks": 112,
          "midi": 75,
          "name": "D#5",
          "ticks": 83520,
          "time": 291.33837,
          "velocity": 0.937007874015748
        },
        {
          "duration": 0.23237156250002045,
          "durationTicks": 58,
          "midi": 74,
          "name": "D5",
          "ticks": 83616,
          "time": 291.722985,
          "velocity": 0.937007874015748
        },
        {
          "duration": 1.7147418749999588,
          "durationTicks": 428,
          "midi": 70,
          "name": "A#4",
          "ticks": 83664,
          "time": 291.9152925,
          "velocity": 0.9448818897637795
        },
        {
          "duration": 0.3685893749999991,
          "durationTicks": 92,
          "midi": 79,
          "name": "G5",
          "ticks": 84096,
          "time": 293.64606,
          "velocity": 0.9448818897637795
        },
        {
          "duration": 0.39262781249999534,
          "durationTicks": 98,
          "midi": 75,
          "name": "D#5",
          "ticks": 84192,
          "time": 294.030675,
          "velocity": 0.9291338582677166
        },
        {
          "duration": 0.4487175000000434,
          "durationTicks": 112,
          "midi": 77,
          "name": "F5",
          "ticks": 84288,
          "time": 294.41528999999997,
          "velocity": 0.937007874015748
        },
        {
          "duration": 0.21634593750002296,
          "durationTicks": 54,
          "midi": 79,
          "name": "G5",
          "ticks": 84384,
          "time": 294.79990499999997,
          "velocity": 0.937007874015748
        },
        {
          "duration": 0.3846149999999966,
          "durationTicks": 96,
          "midi": 75,
          "name": "D#5",
          "ticks": 84432,
          "time": 294.9922125,
          "velocity": 0.9291338582677166
        },
        {
          "duration": 2.788458750000018,
          "durationTicks": 696,
          "midi": 71,
          "name": "B4",
          "ticks": 84528,
          "time": 295.3768275,
          "velocity": 0.9212598425196851
        },
        {
          "duration": 0.10416656249998368,
          "durationTicks": 26,
          "midi": 78,
          "name": "F#5",
          "ticks": 85248,
          "time": 298.26144,
          "velocity": 0.9212598425196851
        },
        {
          "duration": 0.3846149999999966,
          "durationTicks": 96,
          "midi": 79,
          "name": "G5",
          "ticks": 85248,
          "time": 298.26144,
          "velocity": 0.952755905511811
        },
        {
          "duration": 0.3445509375000029,
          "durationTicks": 86,
          "midi": 77,
          "name": "F5",
          "ticks": 85344,
          "time": 298.646055,
          "velocity": 0.9448818897637795
        },
        {
          "duration": 0.44871749999998656,
          "durationTicks": 112,
          "midi": 77,
          "name": "F5",
          "ticks": 85440,
          "time": 299.03067,
          "velocity": 0.952755905511811
        },
        {
          "duration": 0.3285253125000054,
          "durationTicks": 82,
          "midi": 75,
          "name": "D#5",
          "ticks": 85536,
          "time": 299.415285,
          "velocity": 0.9291338582677166
        },
        {
          "duration": 0.3846149999999966,
          "durationTicks": 96,
          "midi": 75,
          "name": "D#5",
          "ticks": 85632,
          "time": 299.7999,
          "velocity": 0.937007874015748
        },
        {
          "duration": 0.8253196875000413,
          "durationTicks": 206,
          "midi": 72,
          "name": "C5",
          "ticks": 85728,
          "time": 300.184515,
          "velocity": 0.9291338582677166
        },
        {
          "duration": 0.3766021875000547,
          "durationTicks": 94,
          "midi": 74,
          "name": "D5",
          "ticks": 85920,
          "time": 300.95374499999997,
          "velocity": 0.9448818897637795
        },
        {
          "duration": 4.687495312500005,
          "durationTicks": 1170,
          "midi": 75,
          "name": "D#5",
          "ticks": 86016,
          "time": 301.33835999999997,
          "velocity": 0.9448818897637795
        }
      ]
    },
    {
      "channel": 0,
      "controlChanges": {
        "0": [
          {
            "number": 0,
            "ticks": 232,
            "time": 0.92948625,
            "value": 0
          }
        ],
        "32": [
          {
            "number": 32,
            "ticks": 234,
            "time": 0.9374990624999999,
            "value": 0
          }
        ],
        "121": [
          {
            "number": 121,
            "ticks": 168,
            "time": 0.6730762499999999,
            "value": 0
          }
        ]
      },
      "pitchBends": [],
      "instrument": {
        "family": "piano",
        "number": 0,
        "name": "acoustic grand piano"
      },
      "name": "",
      "notes": [],
      "endOfTrackTicks": 92930
    },
    {
      "channel": 4,
      "controlChanges": {
        "0": [
          {
            "number": 0,
            "ticks": 27130,
            "time": 108.6938015625,
            "value": 0.31496062992125984
          }
        ],
        "1": [
          {
            "number": 1,
            "ticks": 27042,
            "time": 108.3412378125,
            "value": 0.15748031496062992
          },
          {
            "number": 1,
            "ticks": 27058,
            "time": 108.4053403125,
            "value": 0.47244094488188976
          },
          {
            "number": 1,
            "ticks": 27074,
            "time": 108.46944281249999,
            "value": 0.5984251968503937
          },
          {
            "number": 1,
            "ticks": 27090,
            "time": 108.5335453125,
            "value": 0.6456692913385826
          },
          {
            "number": 1,
            "ticks": 27106,
            "time": 108.5976478125,
            "value": 0.7874015748031497
          },
          {
            "number": 1,
            "ticks": 27122,
            "time": 108.66175031249999,
            "value": 0.5748031496062992
          },
          {
            "number": 1,
            "ticks": 27138,
            "time": 108.7258528125,
            "value": 0
          },
          {
            "number": 1,
            "ticks": 27588,
            "time": 110.528735625,
            "value": 0.08661417322834646
          },
          {
            "number": 1,
            "ticks": 27604,
            "time": 110.592838125,
            "value": 0.2204724409448819
          },
          {
            "number": 1,
            "ticks": 27620,
            "time": 110.65694062499999,
            "value": 0.3228346456692913
          },
          {
            "number": 1,
            "ticks": 27636,
            "time": 110.721043125,
            "value": 0.41732283464566927
          },
          {
            "number": 1,
            "ticks": 27652,
            "time": 110.785145625,
            "value": 0.5905511811023622
          },
          {
            "number": 1,
            "ticks": 27670,
            "time": 110.8572609375,
            "value": 0.6062992125984252
          },
          {
            "number": 1,
            "ticks": 27702,
            "time": 110.9854659375,
            "value": 0.6771653543307087
          },
          {
            "number": 1,
            "ticks": 27718,
            "time": 111.0495684375,
            "value": 0.7559055118110236
          },
          {
            "number": 1,
            "ticks": 27752,
            "time": 111.18578624999999,
            "value": 0.7952755905511811
          },
          {
            "number": 1,
            "ticks": 27770,
            "time": 111.25790156249998,
            "value": 0.7637795275590551
          },
          {
            "number": 1,
            "ticks": 27786,
            "time": 111.3220040625,
            "value": 0.48031496062992124
          },
          {
            "number": 1,
            "ticks": 27802,
            "time": 111.3861065625,
            "value": 0
          },
          {
            "number": 1,
            "ticks": 28470,
            "time": 114.0623859375,
            "value": 0.007874015748031496
          },
          {
            "number": 1,
            "ticks": 28486,
            "time": 114.1264884375,
            "value": 0.25984251968503935
          },
          {
            "number": 1,
            "ticks": 28502,
            "time": 114.19059093749999,
            "value": 0.4015748031496063
          },
          {
            "number": 1,
            "ticks": 28520,
            "time": 114.26270625,
            "value": 0.5984251968503937
          },
          {
            "number": 1,
            "ticks": 28536,
            "time": 114.32680875,
            "value": 0.8110236220472441
          },
          {
            "number": 1,
            "ticks": 28552,
            "time": 114.39091125,
            "value": 0.952755905511811
          },
          {
            "number": 1,
            "ticks": 28568,
            "time": 114.45501374999999,
            "value": 0.84251968503937
          },
          {
            "number": 1,
            "ticks": 28584,
            "time": 114.51911625,
            "value": 0.5118110236220472
          },
          {
            "number": 1,
            "ticks": 28600,
            "time": 114.58321875,
            "value": 0
          },
          {
            "number": 1,
            "ticks": 30728,
            "time": 123.10885124999999,
            "value": 0.07086614173228346
          },
          {
            "number": 1,
            "ticks": 30744,
            "time": 123.17295374999999,
            "value": 0.2125984251968504
          },
          {
            "number": 1,
            "ticks": 30760,
            "time": 123.23705625000001,
            "value": 0.4015748031496063
          },
          {
            "number": 1,
            "ticks": 30776,
            "time": 123.30115874999998,
            "value": 0.5826771653543307
          },
          {
            "number": 1,
            "ticks": 30792,
            "time": 123.36526124999999,
            "value": 0.6299212598425197
          },
          {
            "number": 1,
            "ticks": 30808,
            "time": 123.42936375000001,
            "value": 0.7165354330708661
          },
          {
            "number": 1,
            "ticks": 30824,
            "time": 123.49346624999998,
            "value": 0.905511811023622
          },
          {
            "number": 1,
            "ticks": 30840,
            "time": 123.55756875,
            "value": 0.9921259842519685
          },
          {
            "number": 1,
            "ticks": 30856,
            "time": 123.62167125,
            "value": 0.9133858267716536
          },
          {
            "number": 1,
            "ticks": 30872,
            "time": 123.68577374999998,
            "value": 0.6141732283464567
          },
          {
            "number": 1,
            "ticks": 30888,
            "time": 123.74987625,
            "value": 0
          },
          {
            "number": 1,
            "ticks": 32164,
            "time": 128.862050625,
            "value": 0.09448818897637795
          },
          {
            "number": 1,
            "ticks": 32180,
            "time": 128.92615312499998,
            "value": 0.2992125984251969
          },
          {
            "number": 1,
            "ticks": 32196,
            "time": 128.990255625,
            "value": 0.4330708661417323
          },
          {
            "number": 1,
            "ticks": 32212,
            "time": 129.054358125,
            "value": 0.5590551181102362
          },
          {
            "number": 1,
            "ticks": 32228,
            "time": 129.11846062499998,
            "value": 0.6535433070866141
          },
          {
            "number": 1,
            "ticks": 32244,
            "time": 129.182563125,
            "value": 0.7637795275590551
          },
          {
            "number": 1,
            "ticks": 32260,
            "time": 129.246665625,
            "value": 0.8582677165354331
          },
          {
            "number": 1,
            "ticks": 32276,
            "time": 129.31076812499998,
            "value": 0.937007874015748
          },
          {
            "number": 1,
            "ticks": 32292,
            "time": 129.374870625,
            "value": 1
          },
          {
            "number": 1,
            "ticks": 32362,
            "time": 129.6553190625,
            "value": 0.9921259842519685
          },
          {
            "number": 1,
            "ticks": 32378,
            "time": 129.71942156249997,
            "value": 0.5354330708661418
          },
          {
            "number": 1,
            "ticks": 32394,
            "time": 129.7835240625,
            "value": 0
          },
          {
            "number": 1,
            "ticks": 32950,
            "time": 132.0110859375,
            "value": 0.09448818897637795
          },
          {
            "number": 1,
            "ticks": 32966,
            "time": 132.07518843749997,
            "value": 0.25196850393700787
          },
          {
            "number": 1,
            "ticks": 32982,
            "time": 132.1392909375,
            "value": 0.3543307086614173
          },
          {
            "number": 1,
            "ticks": 32998,
            "time": 132.2033934375,
            "value": 0.41732283464566927
          },
          {
            "number": 1,
            "ticks": 33014,
            "time": 132.2674959375,
            "value": 0.5118110236220472
          },
          {
            "number": 1,
            "ticks": 33030,
            "time": 132.3315984375,
            "value": 0.6062992125984252
          },
          {
            "number": 1,
            "ticks": 33046,
            "time": 132.3957009375,
            "value": 0.6929133858267716
          },
          {
            "number": 1,
            "ticks": 33062,
            "time": 132.4598034375,
            "value": 0.7559055118110236
          },
          {
            "number": 1,
            "ticks": 33078,
            "time": 132.5239059375,
            "value": 0.7952755905511811
          },
          {
            "number": 1,
            "ticks": 33094,
            "time": 132.5880084375,
            "value": 0.7952755905511811
          },
          {
            "number": 1,
            "ticks": 33134,
            "time": 132.74826468749998,
            "value": 0.8110236220472441
          },
          {
            "number": 1,
            "ticks": 33154,
            "time": 132.8283928125,
            "value": 0.7952755905511811
          },
          {
            "number": 1,
            "ticks": 33170,
            "time": 132.8924953125,
            "value": 0.7401574803149606
          },
          {
            "number": 1,
            "ticks": 33186,
            "time": 132.9565978125,
            "value": 0.6771653543307087
          },
          {
            "number": 1,
            "ticks": 33202,
            "time": 133.0207003125,
            "value": 0.5118110236220472
          },
          {
            "number": 1,
            "ticks": 33218,
            "time": 133.0848028125,
            "value": 0
          },
          {
            "number": 1,
            "ticks": 33620,
            "time": 134.695378125,
            "value": 0.007874015748031496
          },
          {
            "number": 1,
            "ticks": 33638,
            "time": 134.76749343749998,
            "value": 0.05511811023622047
          },
          {
            "number": 1,
            "ticks": 33654,
            "time": 134.8315959375,
            "value": 0.11811023622047244
          },
          {
            "number": 1,
            "ticks": 33672,
            "time": 134.90371125,
            "value": 0.1732283464566929
          },
          {
            "number": 1,
            "ticks": 33690,
            "time": 134.9758265625,
            "value": 0.2204724409448819
          },
          {
            "number": 1,
            "ticks": 33708,
            "time": 135.047941875,
            "value": 0.28346456692913385
          },
          {
            "number": 1,
            "ticks": 33724,
            "time": 135.112044375,
            "value": 0.36220472440944884
          },
          {
            "number": 1,
            "ticks": 33740,
            "time": 135.176146875,
            "value": 0.47244094488188976
          },
          {
            "number": 1,
            "ticks": 33756,
            "time": 135.240249375,
            "value": 0.5118110236220472
          },
          {
            "number": 1,
            "ticks": 33772,
            "time": 135.304351875,
            "value": 0.5354330708661418
          },
          {
            "number": 1,
            "ticks": 33788,
            "time": 135.368454375,
            "value": 0.6141732283464567
          },
          {
            "number": 1,
            "ticks": 33804,
            "time": 135.432556875,
            "value": 0.7401574803149606
          },
          {
            "number": 1,
            "ticks": 33820,
            "time": 135.496659375,
            "value": 0.8582677165354331
          },
          {
            "number": 1,
            "ticks": 33836,
            "time": 135.560761875,
            "value": 0.8976377952755905
          },
          {
            "number": 1,
            "ticks": 33860,
            "time": 135.65691562499998,
            "value": 0.8503937007874016
          },
          {
            "number": 1,
            "ticks": 33876,
            "time": 135.721018125,
            "value": 0.7401574803149606
          },
          {
            "number": 1,
            "ticks": 33892,
            "time": 135.785120625,
            "value": 0.6535433070866141
          },
          {
            "number": 1,
            "ticks": 33910,
            "time": 135.8572359375,
            "value": 0.4015748031496063
          },
          {
            "number": 1,
            "ticks": 33926,
            "time": 135.9213384375,
            "value": 0
          },
          {
            "number": 1,
            "ticks": 34640,
            "time": 138.78191249999998,
            "value": 0.25984251968503935
          },
          {
            "number": 1,
            "ticks": 34656,
            "time": 138.846015,
            "value": 0.4645669291338583
          },
          {
            "number": 1,
            "ticks": 34672,
            "time": 138.9101175,
            "value": 0.5826771653543307
          },
          {
            "number": 1,
            "ticks": 34688,
            "time": 138.97421999999997,
            "value": 0.6692913385826772
          },
          {
            "number": 1,
            "ticks": 34704,
            "time": 139.0383225,
            "value": 0.7795275590551181
          },
          {
            "number": 1,
            "ticks": 34720,
            "time": 139.102425,
            "value": 0.8818897637795275
          },
          {
            "number": 1,
            "ticks": 34736,
            "time": 139.1665275,
            "value": 0.9448818897637795
          },
          {
            "number": 1,
            "ticks": 34766,
            "time": 139.28671968749998,
            "value": 0.9921259842519685
          },
          {
            "number": 1,
            "ticks": 34784,
            "time": 139.358835,
            "value": 0.984251968503937
          },
          {
            "number": 1,
            "ticks": 34800,
            "time": 139.4229375,
            "value": 0.7559055118110236
          },
          {
            "number": 1,
            "ticks": 34816,
            "time": 139.48704,
            "value": 0.3937007874015748
          },
          {
            "number": 1,
            "ticks": 34832,
            "time": 139.5511425,
            "value": 0
          },
          {
            "number": 1,
            "ticks": 35850,
            "time": 143.62966406249998,
            "value": 0.015748031496062992
          },
          {
            "number": 1,
            "ticks": 35866,
            "time": 143.6937665625,
            "value": 0.13385826771653545
          },
          {
            "number": 1,
            "ticks": 35882,
            "time": 143.7578690625,
            "value": 0.1889763779527559
          },
          {
            "number": 1,
            "ticks": 35898,
            "time": 143.82197156249998,
            "value": 0.2440944881889764
          },
          {
            "number": 1,
            "ticks": 35916,
            "time": 143.894086875,
            "value": 0.3543307086614173
          },
          {
            "number": 1,
            "ticks": 35932,
            "time": 143.958189375,
            "value": 0.4881889763779528
          },
          {
            "number": 1,
            "ticks": 35948,
            "time": 144.02229187499998,
            "value": 0.6771653543307087
          },
          {
            "number": 1,
            "ticks": 35964,
            "time": 144.086394375,
            "value": 0.7716535433070866
          },
          {
            "number": 1,
            "ticks": 35982,
            "time": 144.1585096875,
            "value": 0.8346456692913385
          },
          {
            "number": 1,
            "ticks": 35998,
            "time": 144.2226121875,
            "value": 0.9448818897637795
          },
          {
            "number": 1,
            "ticks": 36014,
            "time": 144.2867146875,
            "value": 1
          },
          {
            "number": 1,
            "ticks": 36372,
            "time": 145.721008125,
            "value": 0.937007874015748
          },
          {
            "number": 1,
            "ticks": 36560,
            "time": 146.4742125,
            "value": 0.968503937007874
          },
          {
            "number": 1,
            "ticks": 36684,
            "time": 146.971006875,
            "value": 0.984251968503937
          },
          {
            "number": 1,
            "ticks": 36718,
            "time": 147.1072246875,
            "value": 1
          },
          {
            "number": 1,
            "ticks": 36788,
            "time": 147.387673125,
            "value": 0.9763779527559056
          },
          {
            "number": 1,
            "ticks": 36806,
            "time": 147.45978843749998,
            "value": 0.9448818897637795
          },
          {
            "number": 1,
            "ticks": 36824,
            "time": 147.53190375,
            "value": 0.84251968503937
          },
          {
            "number": 1,
            "ticks": 36840,
            "time": 147.59600625,
            "value": 0.5196850393700787
          },
          {
            "number": 1,
            "ticks": 36856,
            "time": 147.66010875,
            "value": 0
          },
          {
            "number": 1,
            "ticks": 62234,
            "time": 238.6539196875,
            "value": 0.08661417322834646
          },
          {
            "number": 1,
            "ticks": 62252,
            "time": 238.690445625,
            "value": 0.2755905511811024
          },
          {
            "number": 1,
            "ticks": 62268,
            "time": 238.722913125,
            "value": 0.41732283464566927
          },
          {
            "number": 1,
            "ticks": 62284,
            "time": 238.75538062500002,
            "value": 0.5905511811023622
          },
          {
            "number": 1,
            "ticks": 62300,
            "time": 238.787848125,
            "value": 0.7559055118110236
          },
          {
            "number": 1,
            "ticks": 62316,
            "time": 238.820315625,
            "value": 0.8661417322834646
          },
          {
            "number": 1,
            "ticks": 62334,
            "time": 238.8568415625,
            "value": 0.9763779527559056
          },
          {
            "number": 1,
            "ticks": 62356,
            "time": 238.901484375,
            "value": 1
          },
          {
            "number": 1,
            "ticks": 62526,
            "time": 239.2464515625,
            "value": 0.952755905511811
          },
          {
            "number": 1,
            "ticks": 62544,
            "time": 239.28297750000002,
            "value": 0.8503937007874016
          },
          {
            "number": 1,
            "ticks": 62560,
            "time": 239.315445,
            "value": 0.7007874015748031
          },
          {
            "number": 1,
            "ticks": 62576,
            "time": 239.3479125,
            "value": 0.4015748031496063
          },
          {
            "number": 1,
            "ticks": 62592,
            "time": 239.38038,
            "value": 0
          },
          {
            "number": 1,
            "ticks": 63058,
            "time": 240.3259959375,
            "value": 0.015748031496062992
          },
          {
            "number": 1,
            "ticks": 63098,
            "time": 240.4071646875,
            "value": 0
          }
        ],
        "7": [
          {
            "number": 7,
            "ticks": 238,
            "time": 0.9535246874999999,
            "value": 0.968503937007874
          }
        ],
        "10": [
          {
            "number": 10,
            "ticks": 238,
            "time": 0.9535246874999999,
            "value": 0.5039370078740157
          }
        ],
        "11": [
          {
            "number": 11,
            "ticks": 238,
            "time": 0.9535246874999999,
            "value": 0.8661417322834646
          }
        ],
        "91": [
          {
            "number": 91,
            "ticks": 240,
            "time": 0.9615374999999999,
            "value": 1
          }
        ],
        "93": [
          {
            "number": 93,
            "ticks": 240,
            "time": 0.9615374999999999,
            "value": 0.15748031496062992
          }
        ],
        "120": [
          {
            "number": 120,
            "ticks": 92928,
            "time": 329.03064,
            "value": 0
          }
        ],
        "123": [
          {
            "number": 123,
            "ticks": 92930,
            "time": 329.0386528125,
            "value": 0
          }
        ]
      },
      "pitchBends": [
        {
          "ticks": 26564,
          "time": 106.42617562499998,
          "value": -0.21875
        },
        {
          "ticks": 26572,
          "time": 106.45822687500001,
          "value": -0.78125
        },
        {
          "ticks": 26580,
          "time": 106.49027812499999,
          "value": -0.9375
        },
        {
          "ticks": 26588,
          "time": 106.52232937499998,
          "value": 0
        },
        {
          "ticks": 26950,
          "time": 107.9726484375,
          "value": -0.046875
        },
        {
          "ticks": 26962,
          "time": 108.0207253125,
          "value": 0
        },
        {
          "ticks": 27392,
          "time": 109.74347999999999,
          "value": -0.34375
        },
        {
          "ticks": 27400,
          "time": 109.77553125,
          "value": -0.578125
        },
        {
          "ticks": 27410,
          "time": 109.8155953125,
          "value": -0.375
        },
        {
          "ticks": 27418,
          "time": 109.8476465625,
          "value": 0
        },
        {
          "ticks": 29072,
          "time": 116.47424249999999,
          "value": -0.03125
        },
        {
          "ticks": 29080,
          "time": 116.50629375,
          "value": -0.21875
        },
        {
          "ticks": 29088,
          "time": 116.53834499999999,
          "value": -0.359375
        },
        {
          "ticks": 29096,
          "time": 116.57039624999999,
          "value": -0.5625
        },
        {
          "ticks": 29106,
          "time": 116.6104603125,
          "value": -0.546875
        },
        {
          "ticks": 29114,
          "time": 116.64251156249999,
          "value": 0
        },
        {
          "ticks": 29644,
          "time": 118.765906875,
          "value": -0.171875
        },
        {
          "ticks": 29652,
          "time": 118.797958125,
          "value": -0.390625
        },
        {
          "ticks": 29660,
          "time": 118.83000937499999,
          "value": -0.4375
        },
        {
          "ticks": 29668,
          "time": 118.862060625,
          "value": 0
        },
        {
          "ticks": 30350,
          "time": 121.59442968749998,
          "value": 0.333251953125
        },
        {
          "ticks": 30358,
          "time": 121.6264809375,
          "value": 0.714111328125
        },
        {
          "ticks": 30366,
          "time": 121.6585321875,
          "value": 0.999755859375
        },
        {
          "ticks": 30462,
          "time": 122.0431471875,
          "value": 0.904541015625
        },
        {
          "ticks": 30470,
          "time": 122.07519843749999,
          "value": 0.555419921875
        },
        {
          "ticks": 30478,
          "time": 122.1072496875,
          "value": 0
        },
        {
          "ticks": 31456,
          "time": 126.025515,
          "value": -0.203125
        },
        {
          "ticks": 31464,
          "time": 126.05756625,
          "value": -0.328125
        },
        {
          "ticks": 31476,
          "time": 126.105643125,
          "value": -0.296875
        },
        {
          "ticks": 31484,
          "time": 126.13769437499998,
          "value": 0.04541015625
        },
        {
          "ticks": 31728,
          "time": 127.1152575,
          "value": 0.5452880859375
        },
        {
          "ticks": 31776,
          "time": 127.307565,
          "value": 0.0908203125
        },
        {
          "ticks": 31814,
          "time": 127.45980843749999,
          "value": 0.053955078125
        },
        {
          "ticks": 31824,
          "time": 127.4998725,
          "value": 0.04541015625
        },
        {
          "ticks": 32720,
          "time": 131.0896125,
          "value": -0.234375
        },
        {
          "ticks": 32728,
          "time": 131.12166375,
          "value": -0.45458984375
        },
        {
          "ticks": 32742,
          "time": 131.1777534375,
          "value": -0.386474609375
        },
        {
          "ticks": 32750,
          "time": 131.2098046875,
          "value": -0.35009765625
        },
        {
          "ticks": 32758,
          "time": 131.2418559375,
          "value": 0.04541015625
        },
        {
          "ticks": 33348,
          "time": 133.605635625,
          "value": 0.142822265625
        },
        {
          "ticks": 33356,
          "time": 133.63768687499999,
          "value": 0.25390625
        },
        {
          "ticks": 33364,
          "time": 133.669738125,
          "value": 0.333251953125
        },
        {
          "ticks": 33372,
          "time": 133.701789375,
          "value": 0.4443359375
        },
        {
          "ticks": 33380,
          "time": 133.733840625,
          "value": 0.555419921875
        },
        {
          "ticks": 33388,
          "time": 133.765891875,
          "value": 0.650634765625
        },
        {
          "ticks": 33396,
          "time": 133.797943125,
          "value": 0.634765625
        },
        {
          "ticks": 33404,
          "time": 133.82999437499998,
          "value": 0.301513671875
        },
        {
          "ticks": 33412,
          "time": 133.862045625,
          "value": 0
        },
        {
          "ticks": 34198,
          "time": 137.0110809375,
          "value": 0.111083984375
        },
        {
          "ticks": 34206,
          "time": 137.0431321875,
          "value": 0.306640625
        },
        {
          "ticks": 34214,
          "time": 137.0751834375,
          "value": 0.3577880859375
        },
        {
          "ticks": 34224,
          "time": 137.11524749999998,
          "value": 0.408935546875
        },
        {
          "ticks": 34232,
          "time": 137.14729874999998,
          "value": 0.396728515625
        },
        {
          "ticks": 34240,
          "time": 137.17935,
          "value": 0.4124755859375
        },
        {
          "ticks": 34248,
          "time": 137.21140125,
          "value": 0.4544677734375
        },
        {
          "ticks": 34320,
          "time": 137.4998625,
          "value": 0.3173828125
        },
        {
          "ticks": 34328,
          "time": 137.53191375,
          "value": 0
        },
        {
          "ticks": 35606,
          "time": 142.6521009375,
          "value": 0.047607421875
        },
        {
          "ticks": 35614,
          "time": 142.6841521875,
          "value": 0.3173828125
        },
        {
          "ticks": 35622,
          "time": 142.71620343749998,
          "value": 0.650634765625
        },
        {
          "ticks": 35630,
          "time": 142.74825468749998,
          "value": 0.999755859375
        },
        {
          "ticks": 35682,
          "time": 142.9565878125,
          "value": 0.9521484375
        },
        {
          "ticks": 35690,
          "time": 142.9886390625,
          "value": 0.872802734375
        },
        {
          "ticks": 35698,
          "time": 143.0206903125,
          "value": 0.777587890625
        },
        {
          "ticks": 35706,
          "time": 143.0527415625,
          "value": 0.491943359375
        },
        {
          "ticks": 35714,
          "time": 143.08479281249998,
          "value": 0
        },
        {
          "ticks": 60390,
          "time": 234.9120403125,
          "value": -0.09375
        },
        {
          "ticks": 60398,
          "time": 234.9282740625,
          "value": -0.25
        },
        {
          "ticks": 60406,
          "time": 234.9445078125,
          "value": -0.4375
        },
        {
          "ticks": 60414,
          "time": 234.9607415625,
          "value": -0.625
        },
        {
          "ticks": 60422,
          "time": 234.9769753125,
          "value": -0.609375
        },
        {
          "ticks": 60432,
          "time": 234.9972675,
          "value": -0.453125
        },
        {
          "ticks": 60442,
          "time": 235.0175596875,
          "value": -0.140625
        },
        {
          "ticks": 60450,
          "time": 235.0337934375,
          "value": 0
        },
        {
          "ticks": 60694,
          "time": 235.5289228125,
          "value": -0.25
        },
        {
          "ticks": 60702,
          "time": 235.5451565625,
          "value": -0.5625
        },
        {
          "ticks": 60710,
          "time": 235.5613903125,
          "value": -0.71875
        },
        {
          "ticks": 60722,
          "time": 235.5857409375,
          "value": -0.59375
        },
        {
          "ticks": 60732,
          "time": 235.606033125,
          "value": 0
        },
        {
          "ticks": 60740,
          "time": 235.622266875,
          "value": 0
        },
        {
          "ticks": 61046,
          "time": 236.2432078125,
          "value": -0.078125
        },
        {
          "ticks": 61054,
          "time": 236.2594415625,
          "value": -0.3125
        },
        {
          "ticks": 61062,
          "time": 236.2756753125,
          "value": -0.5625
        },
        {
          "ticks": 61072,
          "time": 236.29596750000002,
          "value": -0.5625
        },
        {
          "ticks": 61082,
          "time": 236.3162596875,
          "value": -0.34375
        },
        {
          "ticks": 61090,
          "time": 236.3324934375,
          "value": 0
        },
        {
          "ticks": 61420,
          "time": 237.002135625,
          "value": -0.28125
        },
        {
          "ticks": 61430,
          "time": 237.0224278125,
          "value": -0.6875
        },
        {
          "ticks": 61438,
          "time": 237.0386615625,
          "value": -1
        },
        {
          "ticks": 61448,
          "time": 237.05895375,
          "value": -0.984375
        },
        {
          "ticks": 61456,
          "time": 237.0751875,
          "value": -0.6875
        },
        {
          "ticks": 61464,
          "time": 237.09142125,
          "value": -0.171875
        },
        {
          "ticks": 61472,
          "time": 237.107655,
          "value": 0
        },
        {
          "ticks": 61480,
          "time": 237.12388875,
          "value": 0
        },
        {
          "ticks": 61804,
          "time": 237.781355625,
          "value": -0.34375
        },
        {
          "ticks": 61812,
          "time": 237.797589375,
          "value": -0.71875
        },
        {
          "ticks": 61820,
          "time": 237.813823125,
          "value": -1
        },
        {
          "ticks": 61854,
          "time": 237.8828165625,
          "value": -0.953125
        },
        {
          "ticks": 61862,
          "time": 237.8990503125,
          "value": -0.390625
        },
        {
          "ticks": 61872,
          "time": 237.9193425,
          "value": 0.1904296875
        },
        {
          "ticks": 61880,
          "time": 237.93557625,
          "value": -0.234375
        },
        {
          "ticks": 61888,
          "time": 237.95181,
          "value": 0.079345703125
        },
        {
          "ticks": 61896,
          "time": 237.96804375,
          "value": 0
        },
        {
          "ticks": 63416,
          "time": 241.05245625,
          "value": -0.078125
        },
        {
          "ticks": 63424,
          "time": 241.06869,
          "value": -0.15625
        },
        {
          "ticks": 63434,
          "time": 241.0889821875,
          "value": -0.296875
        },
        {
          "ticks": 63442,
          "time": 241.10521593750002,
          "value": -0.359375
        },
        {
          "ticks": 63456,
          "time": 241.133625,
          "value": -0.296875
        },
        {
          "ticks": 63464,
          "time": 241.14985875,
          "value": 0
        },
        {
          "ticks": 63722,
          "time": 241.6733971875,
          "value": -0.046875
        },
        {
          "ticks": 63730,
          "time": 241.6896309375,
          "value": -0.1875
        },
        {
          "ticks": 63738,
          "time": 241.7058646875,
          "value": -0.359375
        },
        {
          "ticks": 63746,
          "time": 241.7220984375,
          "value": -0.453125
        },
        {
          "ticks": 63754,
          "time": 241.73833218750002,
          "value": -0.453125
        },
        {
          "ticks": 63762,
          "time": 241.7545659375,
          "value": -0.078125
        },
        {
          "ticks": 63770,
          "time": 241.77079968750002,
          "value": 0
        },
        {
          "ticks": 64124,
          "time": 242.489143125,
          "value": -0.046875
        },
        {
          "ticks": 64132,
          "time": 242.505376875,
          "value": -0.171875
        },
        {
          "ticks": 64140,
          "time": 242.521610625,
          "value": -0.3125
        },
        {
          "ticks": 64148,
          "time": 242.537844375,
          "value": -0.453125
        },
        {
          "ticks": 64156,
          "time": 242.55407812500002,
          "value": -0.46875
        },
        {
          "ticks": 64164,
          "time": 242.57031187500002,
          "value": -0.078125
        },
        {
          "ticks": 64172,
          "time": 242.586545625,
          "value": 0
        },
        {
          "ticks": 64180,
          "time": 242.602779375,
          "value": 0
        },
        {
          "ticks": 64502,
          "time": 243.2561878125,
          "value": -0.09375
        },
        {
          "ticks": 64510,
          "time": 243.2724215625,
          "value": -0.3125
        },
        {
          "ticks": 64520,
          "time": 243.29271375000002,
          "value": -0.5
        },
        {
          "ticks": 64528,
          "time": 243.30894750000002,
          "value": -0.609375
        },
        {
          "ticks": 64540,
          "time": 243.333298125,
          "value": -0.59375
        },
        {
          "ticks": 64548,
          "time": 243.349531875,
          "value": -0.203125
        },
        {
          "ticks": 64556,
          "time": 243.365765625,
          "value": 0.079345703125
        },
        {
          "ticks": 64564,
          "time": 243.381999375,
          "value": 0
        },
        {
          "ticks": 64876,
          "time": 244.01511562500002,
          "value": -0.078125
        },
        {
          "ticks": 64884,
          "time": 244.031349375,
          "value": -0.375
        },
        {
          "ticks": 64892,
          "time": 244.04758312500002,
          "value": -0.71875
        },
        {
          "ticks": 64902,
          "time": 244.0678753125,
          "value": -1
        },
        {
          "ticks": 64916,
          "time": 244.096284375,
          "value": -0.46875
        },
        {
          "ticks": 64924,
          "time": 244.112518125,
          "value": 0.079345703125
        },
        {
          "ticks": 64934,
          "time": 244.1328103125,
          "value": 0
        },
        {
          "ticks": 65302,
          "time": 244.8795628125,
          "value": -0.09375
        },
        {
          "ticks": 65310,
          "time": 244.8957965625,
          "value": -0.21875
        },
        {
          "ticks": 65318,
          "time": 244.9120303125,
          "value": -0.3125
        },
        {
          "ticks": 65326,
          "time": 244.9282640625,
          "value": -0.328125
        },
        {
          "ticks": 65334,
          "time": 244.9444978125,
          "value": -0.296875
        },
        {
          "ticks": 65342,
          "time": 244.9607315625,
          "value": -0.234375
        },
        {
          "ticks": 65350,
          "time": 244.9769653125,
          "value": 0
        },
        {
          "ticks": 65662,
          "time": 245.6100815625,
          "value": -0.484375
        },
        {
          "ticks": 65670,
          "time": 245.6263153125,
          "value": -0.71875
        },
        {
          "ticks": 65678,
          "time": 245.6425490625,
          "value": -0.9375
        },
        {
          "ticks": 65690,
          "time": 245.6668996875,
          "value": -0.90625
        },
        {
          "ticks": 65700,
          "time": 245.687191875,
          "value": -0.515625
        },
        {
          "ticks": 65710,
          "time": 245.70748406250001,
          "value": 0.111083984375
        },
        {
          "ticks": 65720,
          "time": 245.72777625,
          "value": 0
        },
        {
          "ticks": 65728,
          "time": 245.74401,
          "value": 0
        },
        {
          "ticks": 66928,
          "time": 248.17907250000002,
          "value": 0
        },
        {
          "ticks": 66936,
          "time": 248.19530625000002,
          "value": 0.301513671875
        },
        {
          "ticks": 66944,
          "time": 248.21154,
          "value": 0.47607421875
        },
        {
          "ticks": 66952,
          "time": 248.22777375,
          "value": 0.682373046875
        },
        {
          "ticks": 66962,
          "time": 248.2480659375,
          "value": 0.904541015625
        },
        {
          "ticks": 66970,
          "time": 248.2642996875,
          "value": 0.999755859375
        },
        {
          "ticks": 67014,
          "time": 248.3535853125,
          "value": 0.904541015625
        },
        {
          "ticks": 67022,
          "time": 248.3698190625,
          "value": 0.5712890625
        },
        {
          "ticks": 67030,
          "time": 248.3860528125,
          "value": 0
        },
        {
          "ticks": 67302,
          "time": 248.9380003125,
          "value": -0.046875
        },
        {
          "ticks": 67312,
          "time": 248.9582925,
          "value": -0.390625
        },
        {
          "ticks": 67320,
          "time": 248.97452625,
          "value": -0.6875
        },
        {
          "ticks": 67328,
          "time": 248.99076,
          "value": -1
        },
        {
          "ticks": 67340,
          "time": 249.015110625,
          "value": -0.9375
        },
        {
          "ticks": 67348,
          "time": 249.031344375,
          "value": -0.234375
        },
        {
          "ticks": 67356,
          "time": 249.047578125,
          "value": 0.269775390625
        },
        {
          "ticks": 67364,
          "time": 249.063811875,
          "value": -0.234375
        },
        {
          "ticks": 67372,
          "time": 249.080045625,
          "value": 0.03173828125
        },
        {
          "ticks": 67380,
          "time": 249.096279375,
          "value": 0
        },
        {
          "ticks": 67576,
          "time": 249.49400625,
          "value": -0.046875
        },
        {
          "ticks": 67584,
          "time": 249.51024,
          "value": -0.25
        },
        {
          "ticks": 67592,
          "time": 249.52647375,
          "value": -0.421875
        },
        {
          "ticks": 67600,
          "time": 249.5427075,
          "value": -0.546875
        },
        {
          "ticks": 67618,
          "time": 249.5792334375,
          "value": -0.140625
        },
        {
          "ticks": 67626,
          "time": 249.5954671875,
          "value": 0
        },
        {
          "ticks": 67634,
          "time": 249.61170093750002,
          "value": 0
        },
        {
          "ticks": 68152,
          "time": 250.66283625,
          "value": -0.046875
        },
        {
          "ticks": 68160,
          "time": 250.67907,
          "value": -0.203125
        },
        {
          "ticks": 68168,
          "time": 250.69530375,
          "value": -0.28125
        },
        {
          "ticks": 68176,
          "time": 250.71153750000002,
          "value": -0.265625
        },
        {
          "ticks": 68184,
          "time": 250.72777125,
          "value": 0
        },
        {
          "ticks": 68476,
          "time": 251.320303125,
          "value": 0.269775390625
        },
        {
          "ticks": 68484,
          "time": 251.336536875,
          "value": 0.4443359375
        },
        {
          "ticks": 68492,
          "time": 251.352770625,
          "value": 0.5712890625
        },
        {
          "ticks": 68500,
          "time": 251.369004375,
          "value": 0.5712890625
        },
        {
          "ticks": 68508,
          "time": 251.385238125,
          "value": 0.380859375
        },
        {
          "ticks": 68516,
          "time": 251.401471875,
          "value": 0
        },
        {
          "ticks": 68524,
          "time": 251.417705625,
          "value": 0
        },
        {
          "ticks": 69136,
          "time": 252.65958750000001,
          "value": -0.15625
        },
        {
          "ticks": 69144,
          "time": 252.67582125,
          "value": -0.59375
        },
        {
          "ticks": 69154,
          "time": 252.6961134375,
          "value": -1
        },
        {
          "ticks": 69164,
          "time": 252.716405625,
          "value": -0.765625
        },
        {
          "ticks": 69172,
          "time": 252.732639375,
          "value": 0.66650390625
        },
        {
          "ticks": 69180,
          "time": 252.74887312500002,
          "value": -0.09375
        },
        {
          "ticks": 69188,
          "time": 252.76510687500001,
          "value": 0
        },
        {
          "ticks": 69196,
          "time": 252.781340625,
          "value": 0.126953125
        },
        {
          "ticks": 69204,
          "time": 252.797574375,
          "value": -0.125
        },
        {
          "ticks": 69212,
          "time": 252.813808125,
          "value": 0
        },
        {
          "ticks": 69220,
          "time": 252.830041875,
          "value": 0
        },
        {
          "ticks": 69904,
          "time": 254.2180275,
          "value": -0.21875
        },
        {
          "ticks": 69912,
          "time": 254.23426125,
          "value": -0.546875
        },
        {
          "ticks": 69924,
          "time": 254.258611875,
          "value": -0.15625
        },
        {
          "ticks": 69932,
          "time": 254.274845625,
          "value": 0
        },
        {
          "ticks": 70670,
          "time": 255.7724090625,
          "value": -0.046875
        },
        {
          "ticks": 70678,
          "time": 255.7886428125,
          "value": -0.09375
        },
        {
          "ticks": 70694,
          "time": 255.8211103125,
          "value": 0
        },
        {
          "ticks": 70832,
          "time": 256.1011425,
          "value": -0.109375
        },
        {
          "ticks": 70844,
          "time": 256.125493125,
          "value": -0.078125
        },
        {
          "ticks": 70854,
          "time": 256.1457853125,
          "value": 0
        },
        {
          "ticks": 70944,
          "time": 256.328415,
          "value": -0.21875
        },
        {
          "ticks": 70952,
          "time": 256.34464875000003,
          "value": -0.4375
        },
        {
          "ticks": 70960,
          "time": 256.3608825,
          "value": -0.578125
        },
        {
          "ticks": 70970,
          "time": 256.3811746875,
          "value": -0.09375
        },
        {
          "ticks": 70978,
          "time": 256.3974084375,
          "value": 0
        },
        {
          "ticks": 79692,
          "time": 276.001846875,
          "value": 0.15869140625
        },
        {
          "ticks": 79700,
          "time": 276.033898125,
          "value": 0.4443359375
        },
        {
          "ticks": 79708,
          "time": 276.065949375,
          "value": 0.745849609375
        },
        {
          "ticks": 79716,
          "time": 276.098000625,
          "value": 0.999755859375
        },
        {
          "ticks": 79898,
          "time": 276.8271665625,
          "value": 0.5712890625
        },
        {
          "ticks": 79906,
          "time": 276.8592178125,
          "value": 0
        }
      ],
      "instrument": {
        "family": "reed",
        "number": 65,
        "name": "alto sax"
      },
      "name": "",
      "notes": [
        {
          "duration": 2.700317812499989,
          "durationTicks": 674,
          "midi": 62,
          "name": "D4",
          "ticks": 26494,
          "time": 106.1457271875,
          "velocity": 0.9606299212598425
        },
        {
          "duration": 0.2804484374999845,
          "durationTicks": 70,
          "midi": 58,
          "name": "A#3",
          "ticks": 27172,
          "time": 108.862070625,
          "velocity": 0.968503937007874
        },
        {
          "duration": 0.33653812500000413,
          "durationTicks": 84,
          "midi": 60,
          "name": "C4",
          "ticks": 27260,
          "time": 109.21463437499999,
          "velocity": 0.968503937007874
        },
        {
          "duration": 1.826921249999998,
          "durationTicks": 456,
          "midi": 62,
          "name": "D4",
          "ticks": 27350,
          "time": 109.57521093749999,
          "velocity": 0.968503937007874
        },
        {
          "duration": 0.33653812500000413,
          "durationTicks": 84,
          "midi": 62,
          "name": "D4",
          "ticks": 27938,
          "time": 111.93097781249999,
          "velocity": 0.9606299212598425
        },
        {
          "duration": 0.36057656250000036,
          "durationTicks": 90,
          "midi": 63,
          "name": "D#4",
          "ticks": 28032,
          "time": 112.30758,
          "velocity": 0.9606299212598425
        },
        {
          "duration": 0.27243562500001417,
          "durationTicks": 68,
          "midi": 65,
          "name": "F4",
          "ticks": 28130,
          "time": 112.70020781249998,
          "velocity": 0.9606299212598425
        },
        {
          "duration": 0.3846149999999966,
          "durationTicks": 96,
          "midi": 63,
          "name": "D#4",
          "ticks": 28176,
          "time": 112.8845025,
          "velocity": 0.968503937007874
        },
        {
          "duration": 0.21634593750000874,
          "durationTicks": 54,
          "midi": 62,
          "name": "D4",
          "ticks": 28272,
          "time": 113.2691175,
          "velocity": 0.9606299212598425
        },
        {
          "duration": 1.0336528125000086,
          "durationTicks": 258,
          "midi": 60,
          "name": "C4",
          "ticks": 28328,
          "time": 113.49347624999999,
          "velocity": 0.9606299212598425
        },
        {
          "duration": 0.2483971874999895,
          "durationTicks": 62,
          "midi": 60,
          "name": "C4",
          "ticks": 28698,
          "time": 114.9758465625,
          "velocity": 0.9606299212598425
        },
        {
          "duration": 0.20032031250001125,
          "durationTicks": 50,
          "midi": 62,
          "name": "D4",
          "ticks": 28748,
          "time": 115.17616687499999,
          "velocity": 0.9606299212598425
        },
        {
          "duration": 0.3124996875000079,
          "durationTicks": 78,
          "midi": 63,
          "name": "D#4",
          "ticks": 28802,
          "time": 115.39251281249999,
          "velocity": 0.9606299212598425
        },
        {
          "duration": 0.2804484374999845,
          "durationTicks": 70,
          "midi": 65,
          "name": "F4",
          "ticks": 28888,
          "time": 115.73706375,
          "velocity": 0.9606299212598425
        },
        {
          "duration": 0.3124996874999937,
          "durationTicks": 78,
          "midi": 63,
          "name": "D#4",
          "ticks": 28948,
          "time": 115.97744812500001,
          "velocity": 0.9606299212598425
        },
        {
          "duration": 0.1923074999999983,
          "durationTicks": 48,
          "midi": 62,
          "name": "D4",
          "ticks": 29022,
          "time": 116.27392218749999,
          "velocity": 0.9606299212598425
        },
        {
          "duration": 0.3525637500000016,
          "durationTicks": 88,
          "midi": 62,
          "name": "D4",
          "ticks": 29090,
          "time": 116.54635781249999,
          "velocity": 0.9606299212598425
        },
        {
          "duration": 1.530447187500016,
          "durationTicks": 382,
          "midi": 60,
          "name": "C4",
          "ticks": 29178,
          "time": 116.89892156249999,
          "velocity": 0.9606299212598425
        },
        {
          "duration": 1.1778834375000002,
          "durationTicks": 294,
          "midi": 62,
          "name": "D4",
          "ticks": 29570,
          "time": 118.46943281249999,
          "velocity": 0.9606299212598425
        },
        {
          "duration": 0.18429468750001377,
          "durationTicks": 46,
          "midi": 60,
          "name": "C4",
          "ticks": 29856,
          "time": 119.615265,
          "velocity": 0.9606299212598425
        },
        {
          "duration": 0.14423062499999162,
          "durationTicks": 36,
          "midi": 58,
          "name": "A#3",
          "ticks": 29902,
          "time": 119.79955968750001,
          "velocity": 0.9606299212598425
        },
        {
          "duration": 0.21634593749999453,
          "durationTicks": 54,
          "midi": 60,
          "name": "C4",
          "ticks": 29948,
          "time": 119.98385437499999,
          "velocity": 0.9606299212598425
        },
        {
          "duration": 0.13621781249999287,
          "durationTicks": 34,
          "midi": 62,
          "name": "D4",
          "ticks": 30004,
          "time": 120.208213125,
          "velocity": 0.9606299212598425
        },
        {
          "duration": 0.12820500000002255,
          "durationTicks": 32,
          "midi": 65,
          "name": "F4",
          "ticks": 30236,
          "time": 121.13769937499998,
          "velocity": 0.9606299212598425
        },
        {
          "duration": 0.6650634374999953,
          "durationTicks": 166,
          "midi": 67,
          "name": "G4",
          "ticks": 30332,
          "time": 121.522314375,
          "velocity": 0.9606299212598425
        },
        {
          "duration": 0.11217937500001085,
          "durationTicks": 28,
          "midi": 65,
          "name": "F4",
          "ticks": 30498,
          "time": 122.18737781249999,
          "velocity": 0.9606299212598425
        },
        {
          "duration": 1.490383124999994,
          "durationTicks": 372,
          "midi": 67,
          "name": "G4",
          "ticks": 30518,
          "time": 122.26750593749999,
          "velocity": 0.9606299212598425
        },
        {
          "duration": 0.2644228125000012,
          "durationTicks": 66,
          "midi": 65,
          "name": "F4",
          "ticks": 30994,
          "time": 124.1745553125,
          "velocity": 0.9606299212598425
        },
        {
          "duration": 0.21634593749999453,
          "durationTicks": 54,
          "midi": 67,
          "name": "G4",
          "ticks": 31044,
          "time": 124.374875625,
          "velocity": 0.9606299212598425
        },
        {
          "duration": 0.3124996875000079,
          "durationTicks": 78,
          "midi": 70,
          "name": "A#4",
          "ticks": 31114,
          "time": 124.6553240625,
          "velocity": 0.9606299212598425
        },
        {
          "duration": 0.18429468750001377,
          "durationTicks": 46,
          "midi": 70,
          "name": "A#4",
          "ticks": 31218,
          "time": 125.07199031249999,
          "velocity": 0.9606299212598425
        },
        {
          "duration": 0.18429468749998534,
          "durationTicks": 46,
          "midi": 70,
          "name": "A#4",
          "ticks": 31306,
          "time": 125.42455406250001,
          "velocity": 0.9606299212598425
        },
        {
          "duration": 0.20032031250002547,
          "durationTicks": 50,
          "midi": 70,
          "name": "A#4",
          "ticks": 31370,
          "time": 125.68096406249998,
          "velocity": 0.9606299212598425
        },
        {
          "duration": 0.713140312500002,
          "durationTicks": 178,
          "midi": 70,
          "name": "A#4",
          "ticks": 31448,
          "time": 125.99346374999999,
          "velocity": 0.9606299212598425
        },
        {
          "duration": 0.25641000000000247,
          "durationTicks": 64,
          "midi": 67,
          "name": "G4",
          "ticks": 31614,
          "time": 126.6585271875,
          "velocity": 0.9606299212598425
        },
        {
          "duration": 0.6249993750000016,
          "durationTicks": 156,
          "midi": 62,
          "name": "D4",
          "ticks": 31682,
          "time": 126.93096281249998,
          "velocity": 0.9606299212598425
        },
        {
          "duration": 2.1153824999999955,
          "durationTicks": 528,
          "midi": 60,
          "name": "C4",
          "ticks": 31826,
          "time": 127.5078853125,
          "velocity": 0.9606299212598425
        },
        {
          "duration": 2.2916643750000105,
          "durationTicks": 572,
          "midi": 67,
          "name": "G4",
          "ticks": 32642,
          "time": 130.77711281249998,
          "velocity": 0.968503937007874
        },
        {
          "duration": 0.41666625000002,
          "durationTicks": 104,
          "midi": 65,
          "name": "F4",
          "ticks": 33218,
          "time": 133.0848028125,
          "velocity": 0.968503937007874
        },
        {
          "duration": 2.548074374999999,
          "durationTicks": 636,
          "midi": 67,
          "name": "G4",
          "ticks": 33314,
          "time": 133.46941781249998,
          "velocity": 0.968503937007874
        },
        {
          "duration": 0.15224343750000457,
          "durationTicks": 38,
          "midi": 67,
          "name": "G4",
          "ticks": 34074,
          "time": 136.5142865625,
          "velocity": 0.8818897637795275
        },
        {
          "duration": 0.13621781250000708,
          "durationTicks": 34,
          "midi": 72,
          "name": "C5",
          "ticks": 34098,
          "time": 136.6104403125,
          "velocity": 0.9212598425196851
        },
        {
          "duration": 0.13621781250000708,
          "durationTicks": 34,
          "midi": 75,
          "name": "D#5",
          "ticks": 34122,
          "time": 136.7065940625,
          "velocity": 0.968503937007874
        },
        {
          "duration": 0.9535246874999928,
          "durationTicks": 238,
          "midi": 79,
          "name": "G5",
          "ticks": 34146,
          "time": 136.8027478125,
          "velocity": 0.968503937007874
        },
        {
          "duration": 0.24839718750001794,
          "durationTicks": 62,
          "midi": 79,
          "name": "G5",
          "ticks": 34404,
          "time": 137.83640062499998,
          "velocity": 0.968503937007874
        },
        {
          "duration": 0.18429468749997113,
          "durationTicks": 46,
          "midi": 77,
          "name": "F5",
          "ticks": 34462,
          "time": 138.0687721875,
          "velocity": 0.968503937007874
        },
        {
          "duration": 1.2660243750000006,
          "durationTicks": 316,
          "midi": 77,
          "name": "F5",
          "ticks": 34528,
          "time": 138.333195,
          "velocity": 0.968503937007874
        },
        {
          "duration": 0.18429468749999955,
          "durationTicks": 46,
          "midi": 70,
          "name": "A#4",
          "ticks": 34884,
          "time": 139.759475625,
          "velocity": 0.968503937007874
        },
        {
          "duration": 0.3124996875000079,
          "durationTicks": 78,
          "midi": 70,
          "name": "A#4",
          "ticks": 34952,
          "time": 140.03191124999998,
          "velocity": 0.968503937007874
        },
        {
          "duration": 0.2964740625000104,
          "durationTicks": 74,
          "midi": 77,
          "name": "F5",
          "ticks": 35040,
          "time": 140.38447499999998,
          "velocity": 0.968503937007874
        },
        {
          "duration": 0.35256375000003004,
          "durationTicks": 88,
          "midi": 77,
          "name": "F5",
          "ticks": 35138,
          "time": 140.77710281249998,
          "velocity": 0.968503937007874
        },
        {
          "duration": 0.3124996875000079,
          "durationTicks": 78,
          "midi": 79,
          "name": "G5",
          "ticks": 35236,
          "time": 141.169730625,
          "velocity": 0.968503937007874
        },
        {
          "duration": 0.33653812500000413,
          "durationTicks": 84,
          "midi": 79,
          "name": "G5",
          "ticks": 35336,
          "time": 141.57037125,
          "velocity": 0.968503937007874
        },
        {
          "duration": 0.28846125000001166,
          "durationTicks": 72,
          "midi": 80,
          "name": "G#5",
          "ticks": 35430,
          "time": 141.9469734375,
          "velocity": 0.968503937007874
        },
        {
          "duration": 1.113780937499996,
          "durationTicks": 278,
          "midi": 80,
          "name": "G#5",
          "ticks": 35526,
          "time": 142.3315884375,
          "velocity": 0.968503937007874
        },
        {
          "duration": 1.4823703124999952,
          "durationTicks": 370,
          "midi": 79,
          "name": "G5",
          "ticks": 35798,
          "time": 143.4213309375,
          "velocity": 0.968503937007874
        },
        {
          "duration": 0.2272725000000264,
          "durationTicks": 112,
          "midi": 70,
          "name": "A#4",
          "ticks": 60410,
          "time": 234.9526246875,
          "velocity": 0.9606299212598425
        },
        {
          "duration": 0.17451281250001216,
          "durationTicks": 86,
          "midi": 70,
          "name": "A#4",
          "ticks": 60556,
          "time": 235.248890625,
          "velocity": 0.9606299212598425
        },
        {
          "duration": 0.2637984375000144,
          "durationTicks": 130,
          "midi": 70,
          "name": "A#4",
          "ticks": 60692,
          "time": 235.524864375,
          "velocity": 0.968503937007874
        },
        {
          "duration": 0.18668812500001764,
          "durationTicks": 92,
          "midi": 69,
          "name": "A4",
          "ticks": 60816,
          "time": 235.7764875,
          "velocity": 0.937007874015748
        },
        {
          "duration": 0.16233750000000668,
          "durationTicks": 80,
          "midi": 69,
          "name": "A4",
          "ticks": 60942,
          "time": 236.0321690625,
          "velocity": 0.9291338582677166
        },
        {
          "duration": 0.25162312500000894,
          "durationTicks": 124,
          "midi": 69,
          "name": "A4",
          "ticks": 61064,
          "time": 236.27973375,
          "velocity": 0.9606299212598425
        },
        {
          "duration": 0.17451281249998374,
          "durationTicks": 86,
          "midi": 67,
          "name": "G4",
          "ticks": 61198,
          "time": 236.55164906250002,
          "velocity": 0.968503937007874
        },
        {
          "duration": 0.13798687499999573,
          "durationTicks": 68,
          "midi": 67,
          "name": "G4",
          "ticks": 61322,
          "time": 236.8032721875,
          "velocity": 0.9606299212598425
        },
        {
          "duration": 0.3774346874999992,
          "durationTicks": 186,
          "midi": 67,
          "name": "G4",
          "ticks": 61430,
          "time": 237.0224278125,
          "velocity": 0.9448818897637795
        },
        {
          "duration": 0.37337625000000685,
          "durationTicks": 184,
          "midi": 65,
          "name": "F4",
          "ticks": 61626,
          "time": 237.4201546875,
          "velocity": 0.968503937007874
        },
        {
          "duration": 0.28409062499997617,
          "durationTicks": 140,
          "midi": 64,
          "name": "E4",
          "ticks": 61816,
          "time": 237.80570625000001,
          "velocity": 0.968503937007874
        },
        {
          "duration": 0.10146093750000773,
          "durationTicks": 50,
          "midi": 65,
          "name": "F4",
          "ticks": 61966,
          "time": 238.1100890625,
          "velocity": 0.968503937007874
        },
        {
          "duration": 1.0876612499999965,
          "durationTicks": 536,
          "midi": 67,
          "name": "G4",
          "ticks": 62032,
          "time": 238.2440175,
          "velocity": 0.9606299212598425
        },
        {
          "duration": 0.0284090625000033,
          "durationTicks": 14,
          "midi": 65,
          "name": "F4",
          "ticks": 62034,
          "time": 238.2480759375,
          "velocity": 0.889763779527559
        },
        {
          "duration": 0.1785712500000045,
          "durationTicks": 88,
          "midi": 70,
          "name": "A#4",
          "ticks": 63470,
          "time": 241.1620340625,
          "velocity": 0.968503937007874
        },
        {
          "duration": 0.16639593749999904,
          "durationTicks": 82,
          "midi": 70,
          "name": "A#4",
          "ticks": 63606,
          "time": 241.43800781250002,
          "velocity": 0.9448818897637795
        },
        {
          "duration": 0.28409062499997617,
          "durationTicks": 140,
          "midi": 70,
          "name": "A#4",
          "ticks": 63748,
          "time": 241.72615687500002,
          "velocity": 0.9606299212598425
        },
        {
          "duration": 0.19480500000000234,
          "durationTicks": 96,
          "midi": 69,
          "name": "A4",
          "ticks": 63882,
          "time": 241.99807218750001,
          "velocity": 0.937007874015748
        },
        {
          "duration": 0.1501621875000012,
          "durationTicks": 74,
          "midi": 69,
          "name": "A4",
          "ticks": 64032,
          "time": 242.302455,
          "velocity": 0.968503937007874
        },
        {
          "duration": 0.04058437500000878,
          "durationTicks": 20,
          "midi": 67,
          "name": "G4",
          "ticks": 64050,
          "time": 242.3389809375,
          "velocity": 0.6377952755905512
        },
        {
          "duration": 0.27597374999999147,
          "durationTicks": 136,
          "midi": 69,
          "name": "A4",
          "ticks": 64150,
          "time": 242.5419028125,
          "velocity": 0.9448818897637795
        },
        {
          "duration": 0.16639593749999904,
          "durationTicks": 82,
          "midi": 67,
          "name": "G4",
          "ticks": 64276,
          "time": 242.797584375,
          "velocity": 0.9606299212598425
        },
        {
          "duration": 0.19480500000000234,
          "durationTicks": 96,
          "midi": 67,
          "name": "G4",
          "ticks": 64390,
          "time": 243.0289153125,
          "velocity": 0.9448818897637795
        },
        {
          "duration": 0.3612009375000014,
          "durationTicks": 178,
          "midi": 67,
          "name": "G4",
          "ticks": 64526,
          "time": 243.3048890625,
          "velocity": 0.9606299212598425
        },
        {
          "duration": 0.33279187499999807,
          "durationTicks": 164,
          "midi": 65,
          "name": "F4",
          "ticks": 64714,
          "time": 243.68638218750002,
          "velocity": 0.968503937007874
        },
        {
          "duration": 0.33279187499999807,
          "durationTicks": 164,
          "midi": 70,
          "name": "A#4",
          "ticks": 64894,
          "time": 244.0516415625,
          "velocity": 0.968503937007874
        },
        {
          "duration": 0.09740249999998696,
          "durationTicks": 48,
          "midi": 67,
          "name": "G4",
          "ticks": 65062,
          "time": 244.39255031250002,
          "velocity": 0.9606299212598425
        },
        {
          "duration": 1.1120118750000074,
          "durationTicks": 548,
          "midi": 65,
          "name": "F4",
          "ticks": 65114,
          "time": 244.4980696875,
          "velocity": 0.968503937007874
        },
        {
          "duration": 1.5706153124999958,
          "durationTicks": 774,
          "midi": 70,
          "name": "A#4",
          "ticks": 65682,
          "time": 245.6506659375,
          "velocity": 0.9606299212598425
        },
        {
          "duration": 0.060876562499998954,
          "durationTicks": 30,
          "midi": 69,
          "name": "A4",
          "ticks": 65688,
          "time": 245.66284125,
          "velocity": 0.905511811023622
        },
        {
          "duration": 0.3612009375000014,
          "durationTicks": 178,
          "midi": 69,
          "name": "A4",
          "ticks": 66436,
          "time": 247.180696875,
          "velocity": 0.9133858267716536
        },
        {
          "duration": 1.0592521875000216,
          "durationTicks": 522,
          "midi": 67,
          "name": "G4",
          "ticks": 66614,
          "time": 247.5418978125,
          "velocity": 0.968503937007874
        },
        {
          "duration": 0.21103875000000016,
          "durationTicks": 104,
          "midi": 70,
          "name": "A#4",
          "ticks": 67326,
          "time": 248.9867015625,
          "velocity": 0.9606299212598425
        },
        {
          "duration": 0.21509718750002094,
          "durationTicks": 106,
          "midi": 70,
          "name": "A#4",
          "ticks": 67462,
          "time": 249.2626753125,
          "velocity": 0.968503937007874
        },
        {
          "duration": 0.17451281249998374,
          "durationTicks": 86,
          "midi": 70,
          "name": "A#4",
          "ticks": 67600,
          "time": 249.5427075,
          "velocity": 0.968503937007874
        },
        {
          "duration": 0.18668812500001764,
          "durationTicks": 92,
          "midi": 70,
          "name": "A#4",
          "ticks": 67722,
          "time": 249.7902721875,
          "velocity": 0.937007874015748
        },
        {
          "duration": 0.2719153124999991,
          "durationTicks": 134,
          "midi": 70,
          "name": "A#4",
          "ticks": 67850,
          "time": 250.05001218750002,
          "velocity": 0.9606299212598425
        },
        {
          "duration": 0.38149312499999155,
          "durationTicks": 188,
          "midi": 69,
          "name": "A4",
          "ticks": 67980,
          "time": 250.313810625,
          "velocity": 0.9448818897637795
        },
        {
          "duration": 0.6899343749999787,
          "durationTicks": 340,
          "midi": 67,
          "name": "G4",
          "ticks": 68170,
          "time": 250.69936218750001,
          "velocity": 0.968503937007874
        },
        {
          "duration": 0.23133093750001876,
          "durationTicks": 114,
          "midi": 65,
          "name": "F4",
          "ticks": 68726,
          "time": 251.8276078125,
          "velocity": 0.968503937007874
        },
        {
          "duration": 0.15422062499999356,
          "durationTicks": 76,
          "midi": 65,
          "name": "F4",
          "ticks": 68862,
          "time": 252.1035815625,
          "velocity": 0.9448818897637795
        },
        {
          "duration": 0.08116875000001755,
          "durationTicks": 40,
          "midi": 65,
          "name": "F4",
          "ticks": 68994,
          "time": 252.3714384375,
          "velocity": 0.9606299212598425
        },
        {
          "duration": 0.08116874999998913,
          "durationTicks": 40,
          "midi": 65,
          "name": "F4",
          "ticks": 69062,
          "time": 252.5094253125,
          "velocity": 0.9606299212598425
        },
        {
          "duration": 0.008116875000013124,
          "durationTicks": 4,
          "midi": 64,
          "name": "E4",
          "ticks": 69082,
          "time": 252.5500096875,
          "velocity": 0.6377952755905512
        },
        {
          "duration": 0.787336874999994,
          "durationTicks": 388,
          "midi": 67,
          "name": "G4",
          "ticks": 69128,
          "time": 252.64335375000002,
          "velocity": 0.9606299212598425
        },
        {
          "duration": 0.19480500000000234,
          "durationTicks": 96,
          "midi": 65,
          "name": "F4",
          "ticks": 69518,
          "time": 253.4347490625,
          "velocity": 0.9291338582677166
        },
        {
          "duration": 0.10957781249999243,
          "durationTicks": 54,
          "midi": 65,
          "name": "F4",
          "ticks": 69642,
          "time": 253.6863721875,
          "velocity": 0.937007874015748
        },
        {
          "duration": 0.08928562500000226,
          "durationTicks": 44,
          "midi": 65,
          "name": "F4",
          "ticks": 69734,
          "time": 253.8730603125,
          "velocity": 0.9606299212598425
        },
        {
          "duration": 0.15827906250001433,
          "durationTicks": 78,
          "midi": 65,
          "name": "F4",
          "ticks": 69804,
          "time": 254.015105625,
          "velocity": 0.9606299212598425
        },
        {
          "duration": 0.2800321874999838,
          "durationTicks": 138,
          "midi": 67,
          "name": "G4",
          "ticks": 69916,
          "time": 254.24237812500002,
          "velocity": 0.968503937007874
        },
        {
          "duration": 0.227272499999998,
          "durationTicks": 112,
          "midi": 65,
          "name": "F4",
          "ticks": 70040,
          "time": 254.49400125,
          "velocity": 0.968503937007874
        },
        {
          "duration": 0.2069803125000078,
          "durationTicks": 102,
          "midi": 64,
          "name": "E4",
          "ticks": 70160,
          "time": 254.7375075,
          "velocity": 0.968503937007874
        },
        {
          "duration": 0.26785687499997834,
          "durationTicks": 132,
          "midi": 65,
          "name": "F4",
          "ticks": 70280,
          "time": 254.98101375000002,
          "velocity": 0.9606299212598425
        },
        {
          "duration": 0.13392843750000338,
          "durationTicks": 66,
          "midi": 62,
          "name": "D4",
          "ticks": 70412,
          "time": 255.248870625,
          "velocity": 0.9448818897637795
        },
        {
          "duration": 1.2865246874999912,
          "durationTicks": 634,
          "midi": 60,
          "name": "C4",
          "ticks": 70458,
          "time": 255.34221468750002,
          "velocity": 0.937007874015748
        },
        {
          "duration": 0.0568181250000066,
          "durationTicks": 28,
          "midi": 59,
          "name": "B3",
          "ticks": 71076,
          "time": 256.596271875,
          "velocity": 0.8582677165354331
        },
        {
          "duration": 0.032467500000052496,
          "durationTicks": 16,
          "midi": 57,
          "name": "A3",
          "ticks": 71100,
          "time": 256.644973125,
          "velocity": 0.8661417322834646
        },
        {
          "duration": 0.02435062500001095,
          "durationTicks": 12,
          "midi": 55,
          "name": "G3",
          "ticks": 71122,
          "time": 256.6896159375,
          "velocity": 0.8188976377952756
        },
        {
          "duration": 0.1298699999999826,
          "durationTicks": 64,
          "midi": 66,
          "name": "F#4",
          "ticks": 73342,
          "time": 261.1944815625,
          "velocity": 0.9606299212598425
        },
        {
          "duration": 0.29647406249995356,
          "durationTicks": 74,
          "midi": 51,
          "name": "D#3",
          "ticks": 78768,
          "time": 272.2999275,
          "velocity": 0.905511811023622
        },
        {
          "duration": 0.2083331250000242,
          "durationTicks": 52,
          "midi": 55,
          "name": "G3",
          "ticks": 78816,
          "time": 272.492235,
          "velocity": 0.9133858267716536
        },
        {
          "duration": 0.20833312499996737,
          "durationTicks": 52,
          "midi": 58,
          "name": "A#3",
          "ticks": 78864,
          "time": 272.6845425,
          "velocity": 0.905511811023622
        },
        {
          "duration": 0.8894221875000312,
          "durationTicks": 222,
          "midi": 63,
          "name": "D#4",
          "ticks": 78912,
          "time": 272.87685,
          "velocity": 0.8976377952755905
        },
        {
          "duration": 0.25640999999995984,
          "durationTicks": 64,
          "midi": 50,
          "name": "D3",
          "ticks": 79152,
          "time": 273.8383875,
          "velocity": 0.8818897637795275
        },
        {
          "duration": 0.24839718750001794,
          "durationTicks": 62,
          "midi": 53,
          "name": "F3",
          "ticks": 79200,
          "time": 274.030695,
          "velocity": 0.905511811023622
        },
        {
          "duration": 0.22435874999996486,
          "durationTicks": 56,
          "midi": 58,
          "name": "A#3",
          "ticks": 79248,
          "time": 274.2230025,
          "velocity": 0.889763779527559
        },
        {
          "duration": 0.8814093750000325,
          "durationTicks": 220,
          "midi": 62,
          "name": "D4",
          "ticks": 79296,
          "time": 274.41531,
          "velocity": 0.8976377952755905
        },
        {
          "duration": 0.2243587500000217,
          "durationTicks": 56,
          "midi": 48,
          "name": "C3",
          "ticks": 79536,
          "time": 275.3768475,
          "velocity": 0.889763779527559
        },
        {
          "duration": 0.19230749999996988,
          "durationTicks": 48,
          "midi": 51,
          "name": "D#3",
          "ticks": 79584,
          "time": 275.569155,
          "velocity": 0.889763779527559
        },
        {
          "duration": 0.21634593750002296,
          "durationTicks": 54,
          "midi": 55,
          "name": "G3",
          "ticks": 79632,
          "time": 275.7614625,
          "velocity": 0.8976377952755905
        },
        {
          "duration": 0.7291659374999995,
          "durationTicks": 182,
          "midi": 58,
          "name": "A#3",
          "ticks": 79680,
          "time": 275.95377,
          "velocity": 0.889763779527559
        },
        {
          "duration": 0.745191562499997,
          "durationTicks": 186,
          "midi": 62,
          "name": "D4",
          "ticks": 80640,
          "time": 279.79992,
          "velocity": 0.9606299212598425
        },
        {
          "duration": 0.36057656250000036,
          "durationTicks": 90,
          "midi": 63,
          "name": "D#4",
          "ticks": 80832,
          "time": 280.56915,
          "velocity": 0.905511811023622
        },
        {
          "duration": 0.3846149999999966,
          "durationTicks": 96,
          "midi": 67,
          "name": "G4",
          "ticks": 80928,
          "time": 280.953765,
          "velocity": 0.905511811023622
        },
        {
          "duration": 0.8092940625000438,
          "durationTicks": 202,
          "midi": 66,
          "name": "F#4",
          "ticks": 81024,
          "time": 281.33838,
          "velocity": 0.968503937007874
        },
        {
          "duration": 0.4006406249999941,
          "durationTicks": 100,
          "midi": 67,
          "name": "G4",
          "ticks": 81216,
          "time": 282.10761,
          "velocity": 0.968503937007874
        },
        {
          "duration": 0.43269187499998907,
          "durationTicks": 108,
          "midi": 69,
          "name": "A4",
          "ticks": 81312,
          "time": 282.492225,
          "velocity": 0.9606299212598425
        },
        {
          "duration": 1.5464728124999851,
          "durationTicks": 386,
          "midi": 70,
          "name": "A#4",
          "ticks": 81408,
          "time": 282.87684,
          "velocity": 0.9606299212598425
        },
        {
          "duration": 1.0977553124999986,
          "durationTicks": 274,
          "midi": 60,
          "name": "C4",
          "ticks": 81792,
          "time": 284.4153,
          "velocity": 0.9606299212598425
        },
        {
          "duration": 0.2243587500000217,
          "durationTicks": 56,
          "midi": 60,
          "name": "C4",
          "ticks": 82080,
          "time": 285.569145,
          "velocity": 0.9212598425196851
        },
        {
          "duration": 0.24038437499996235,
          "durationTicks": 60,
          "midi": 62,
          "name": "D4",
          "ticks": 82128,
          "time": 285.7614525,
          "velocity": 0.8976377952755905
        },
        {
          "duration": 1.2820500000000266,
          "durationTicks": 320,
          "midi": 58,
          "name": "A#3",
          "ticks": 82176,
          "time": 285.95376,
          "velocity": 0.9133858267716536
        }
      ]
    },
    {
      "channel": 0,
      "controlChanges": {
        "0": [
          {
            "number": 0,
            "ticks": 192,
            "time": 0.76923,
            "value": 0
          }
        ],
        "7": [
          {
            "number": 7,
            "ticks": 198,
            "time": 0.7932684375,
            "value": 0.968503937007874
          }
        ],
        "10": [
          {
            "number": 10,
            "ticks": 198,
            "time": 0.7932684375,
            "value": 0.5039370078740157
          }
        ],
        "11": [
          {
            "number": 11,
            "ticks": 198,
            "time": 0.7932684375,
            "value": 0.8661417322834646
          }
        ],
        "32": [
          {
            "number": 32,
            "ticks": 194,
            "time": 0.7772428125,
            "value": 0
          }
        ],
        "91": [
          {
            "number": 91,
            "ticks": 200,
            "time": 0.8012812500000001,
            "value": 1
          },
          {
            "number": 91,
            "ticks": 57568,
            "time": 229.185585,
            "value": 0.47244094488188976
          },
          {
            "number": 91,
            "ticks": 74064,
            "time": 262.6595775,
            "value": 1
          }
        ],
        "93": [
          {
            "number": 93,
            "ticks": 200,
            "time": 0.8012812500000001,
            "value": 0
          }
        ],
        "120": [
          {
            "number": 120,
            "ticks": 92928,
            "time": 329.03064,
            "value": 0
          }
        ],
        "121": [
          {
            "number": 121,
            "ticks": 160,
            "time": 0.641025,
            "value": 0
          }
        ],
        "123": [
          {
            "number": 123,
            "ticks": 92930,
            "time": 329.0386528125,
            "value": 0
          }
        ]
      },
      "pitchBends": [],
      "instrument": {
        "family": "piano",
        "number": 0,
        "name": "acoustic grand piano"
      },
      "name": "",
      "notes": [
        {
          "duration": 3.044868749999999,
          "durationTicks": 760,
          "midi": 46,
          "name": "A#2",
          "ticks": 3840,
          "time": 15.384599999999999,
          "velocity": 0.9448818897637795
        },
        {
          "duration": 2.6522409375000002,
          "durationTicks": 662,
          "midi": 53,
          "name": "F3",
          "ticks": 3840,
          "time": 15.384599999999999,
          "velocity": 0.968503937007874
        },
        {
          "duration": 0.32852531250000006,
          "durationTicks": 82,
          "midi": 58,
          "name": "A#3",
          "ticks": 3840,
          "time": 15.384599999999999,
          "velocity": 0.968503937007874
        },
        {
          "duration": 0.4807687500000011,
          "durationTicks": 120,
          "midi": 61,
          "name": "C#4",
          "ticks": 3840,
          "time": 15.384599999999999,
          "velocity": 0.968503937007874
        },
        {
          "duration": 0.41666625000000046,
          "durationTicks": 104,
          "midi": 65,
          "name": "F4",
          "ticks": 3840,
          "time": 15.384599999999999,
          "velocity": 0.9606299212598425
        },
        {
          "duration": 0.424679062500001,
          "durationTicks": 106,
          "midi": 58,
          "name": "A#3",
          "ticks": 3936,
          "time": 15.769214999999999,
          "velocity": 0.7480314960629921
        },
        {
          "duration": 0.44871750000000077,
          "durationTicks": 112,
          "midi": 61,
          "name": "C#4",
          "ticks": 4032,
          "time": 16.15383,
          "velocity": 0.952755905511811
        },
        {
          "duration": 0.35256374999999807,
          "durationTicks": 88,
          "midi": 65,
          "name": "F4",
          "ticks": 4032,
          "time": 16.15383,
          "velocity": 0.9606299212598425
        },
        {
          "duration": 0.4326918749999997,
          "durationTicks": 108,
          "midi": 58,
          "name": "A#3",
          "ticks": 4128,
          "time": 16.538445,
          "velocity": 0.8188976377952756
        },
        {
          "duration": 0.4567303124999995,
          "durationTicks": 114,
          "midi": 61,
          "name": "C#4",
          "ticks": 4224,
          "time": 16.92306,
          "velocity": 0.952755905511811
        },
        {
          "duration": 0.38461500000000015,
          "durationTicks": 96,
          "midi": 65,
          "name": "F4",
          "ticks": 4224,
          "time": 16.92306,
          "velocity": 0.9606299212598425
        },
        {
          "duration": 0.4647431250000018,
          "durationTicks": 116,
          "midi": 58,
          "name": "A#3",
          "ticks": 4320,
          "time": 17.307675,
          "velocity": 0.8582677165354331
        },
        {
          "duration": 0.4487174999999972,
          "durationTicks": 112,
          "midi": 61,
          "name": "C#4",
          "ticks": 4416,
          "time": 17.69229,
          "velocity": 0.9448818897637795
        },
        {
          "duration": 0.4166662499999987,
          "durationTicks": 104,
          "midi": 65,
          "name": "F4",
          "ticks": 4416,
          "time": 17.69229,
          "velocity": 0.9448818897637795
        },
        {
          "duration": 0.16025624999999977,
          "durationTicks": 40,
          "midi": 58,
          "name": "A#3",
          "ticks": 4512,
          "time": 18.076905,
          "velocity": 0.9133858267716536
        },
        {
          "duration": 6.145827187499997,
          "durationTicks": 1534,
          "midi": 49,
          "name": "C#3",
          "ticks": 4608,
          "time": 18.46152,
          "velocity": 0.968503937007874
        },
        {
          "duration": 2.8285228124999975,
          "durationTicks": 706,
          "midi": 56,
          "name": "G#3",
          "ticks": 4608,
          "time": 18.46152,
          "velocity": 0.9606299212598425
        },
        {
          "duration": 0.28846124999999745,
          "durationTicks": 72,
          "midi": 59,
          "name": "B3",
          "ticks": 4608,
          "time": 18.46152,
          "velocity": 0.968503937007874
        },
        {
          "duration": 0.40064062499999764,
          "durationTicks": 100,
          "midi": 61,
          "name": "C#4",
          "ticks": 4608,
          "time": 18.46152,
          "velocity": 0.968503937007874
        },
        {
          "duration": 0.4487174999999972,
          "durationTicks": 112,
          "midi": 65,
          "name": "F4",
          "ticks": 4608,
          "time": 18.46152,
          "velocity": 0.968503937007874
        },
        {
          "duration": 0.46474312499999826,
          "durationTicks": 116,
          "midi": 59,
          "name": "B3",
          "ticks": 4704,
          "time": 18.846135,
          "velocity": 0.9291338582677166
        },
        {
          "duration": 0.4487174999999972,
          "durationTicks": 112,
          "midi": 61,
          "name": "C#4",
          "ticks": 4800,
          "time": 19.23075,
          "velocity": 0.9606299212598425
        },
        {
          "duration": 0.40865343749999994,
          "durationTicks": 102,
          "midi": 65,
          "name": "F4",
          "ticks": 4800,
          "time": 19.23075,
          "velocity": 0.968503937007874
        },
        {
          "duration": 0.42467906249999743,
          "durationTicks": 106,
          "midi": 59,
          "name": "B3",
          "ticks": 4896,
          "time": 19.615365,
          "velocity": 0.8661417322834646
        },
        {
          "duration": 0.4487174999999972,
          "durationTicks": 112,
          "midi": 61,
          "name": "C#4",
          "ticks": 4992,
          "time": 19.99998,
          "velocity": 0.952755905511811
        },
        {
          "duration": 0.4166662499999987,
          "durationTicks": 104,
          "midi": 65,
          "name": "F4",
          "ticks": 4992,
          "time": 19.99998,
          "velocity": 0.9291338582677166
        },
        {
          "duration": 0.4326918749999997,
          "durationTicks": 108,
          "midi": 59,
          "name": "B3",
          "ticks": 5088,
          "time": 20.384595,
          "velocity": 0.9212598425196851
        },
        {
          "duration": 0.5128200000000014,
          "durationTicks": 128,
          "midi": 61,
          "name": "C#4",
          "ticks": 5184,
          "time": 20.769209999999998,
          "velocity": 0.9448818897637795
        },
        {
          "duration": 0.36057656250000036,
          "durationTicks": 90,
          "midi": 65,
          "name": "F4",
          "ticks": 5184,
          "time": 20.769209999999998,
          "velocity": 0.9606299212598425
        },
        {
          "duration": 0.1762818750000008,
          "durationTicks": 44,
          "midi": 59,
          "name": "B3",
          "ticks": 5280,
          "time": 21.153824999999998,
          "velocity": 0.9212598425196851
        },
        {
          "duration": 3.0849328125,
          "durationTicks": 770,
          "midi": 42,
          "name": "F#2",
          "ticks": 5376,
          "time": 21.538439999999998,
          "velocity": 0.952755905511811
        },
        {
          "duration": 3.0528815625000014,
          "durationTicks": 762,
          "midi": 54,
          "name": "F#3",
          "ticks": 5376,
          "time": 21.538439999999998,
          "velocity": 0.9291338582677166
        },
        {
          "duration": 0.48076875000000285,
          "durationTicks": 120,
          "midi": 61,
          "name": "C#4",
          "ticks": 5376,
          "time": 21.538439999999998,
          "velocity": 0.968503937007874
        },
        {
          "duration": 0.47275593750000056,
          "durationTicks": 118,
          "midi": 66,
          "name": "F#4",
          "ticks": 5376,
          "time": 21.538439999999998,
          "velocity": 0.9291338582677166
        },
        {
          "duration": 0.4326918749999997,
          "durationTicks": 108,
          "midi": 70,
          "name": "A#4",
          "ticks": 5376,
          "time": 21.538439999999998,
          "velocity": 0.952755905511811
        },
        {
          "duration": 0.424679062500001,
          "durationTicks": 106,
          "midi": 58,
          "name": "A#3",
          "ticks": 5472,
          "time": 21.923054999999998,
          "velocity": 0.9133858267716536
        },
        {
          "duration": 0.41666625000000224,
          "durationTicks": 104,
          "midi": 61,
          "name": "C#4",
          "ticks": 5568,
          "time": 22.307669999999998,
          "velocity": 0.9606299212598425
        },
        {
          "duration": 0.38461500000000015,
          "durationTicks": 96,
          "midi": 66,
          "name": "F#4",
          "ticks": 5568,
          "time": 22.307669999999998,
          "velocity": 0.952755905511811
        },
        {
          "duration": 0.36858937500000266,
          "durationTicks": 92,
          "midi": 70,
          "name": "A#4",
          "ticks": 5568,
          "time": 22.307669999999998,
          "velocity": 0.952755905511811
        },
        {
          "duration": 0.4326918749999997,
          "durationTicks": 108,
          "midi": 58,
          "name": "A#3",
          "ticks": 5664,
          "time": 22.692285,
          "velocity": 0.9212598425196851
        },
        {
          "duration": 0.4647431250000018,
          "durationTicks": 116,
          "midi": 61,
          "name": "C#4",
          "ticks": 5760,
          "time": 23.0769,
          "velocity": 0.952755905511811
        },
        {
          "duration": 0.4567303124999995,
          "durationTicks": 114,
          "midi": 66,
          "name": "F#4",
          "ticks": 5760,
          "time": 23.0769,
          "velocity": 0.9606299212598425
        },
        {
          "duration": 0.40865343749999994,
          "durationTicks": 102,
          "midi": 70,
          "name": "A#4",
          "ticks": 5760,
          "time": 23.0769,
          "velocity": 0.968503937007874
        },
        {
          "duration": 0.440704687500002,
          "durationTicks": 110,
          "midi": 58,
          "name": "A#3",
          "ticks": 5856,
          "time": 23.461515,
          "velocity": 0.9133858267716536
        },
        {
          "duration": 0.424679062500001,
          "durationTicks": 106,
          "midi": 61,
          "name": "C#4",
          "ticks": 5952,
          "time": 23.84613,
          "velocity": 0.9448818897637795
        },
        {
          "duration": 0.424679062500001,
          "durationTicks": 106,
          "midi": 66,
          "name": "F#4",
          "ticks": 5952,
          "time": 23.84613,
          "velocity": 0.937007874015748
        },
        {
          "duration": 0.40064062499999764,
          "durationTicks": 100,
          "midi": 70,
          "name": "A#4",
          "ticks": 5952,
          "time": 23.84613,
          "velocity": 0.952755905511811
        },
        {
          "duration": 0.4166662499999987,
          "durationTicks": 104,
          "midi": 58,
          "name": "A#3",
          "ticks": 6048,
          "time": 24.230745,
          "velocity": 0.905511811023622
        },
        {
          "duration": 3.124996875000001,
          "durationTicks": 780,
          "midi": 51,
          "name": "D#3",
          "ticks": 6144,
          "time": 24.61536,
          "velocity": 0.968503937007874
        },
        {
          "duration": 0.47275593750000056,
          "durationTicks": 118,
          "midi": 63,
          "name": "D#4",
          "ticks": 6144,
          "time": 24.61536,
          "velocity": 0.968503937007874
        },
        {
          "duration": 0.4166662499999987,
          "durationTicks": 104,
          "midi": 66,
          "name": "F#4",
          "ticks": 6144,
          "time": 24.61536,
          "velocity": 0.9606299212598425
        },
        {
          "duration": 0.3685893749999991,
          "durationTicks": 92,
          "midi": 70,
          "name": "A#4",
          "ticks": 6144,
          "time": 24.61536,
          "velocity": 0.968503937007874
        },
        {
          "duration": 0.424679062500001,
          "durationTicks": 106,
          "midi": 58,
          "name": "A#3",
          "ticks": 6240,
          "time": 24.999975,
          "velocity": 0.8582677165354331
        },
        {
          "duration": 0.4326918749999997,
          "durationTicks": 108,
          "midi": 63,
          "name": "D#4",
          "ticks": 6336,
          "time": 25.38459,
          "velocity": 0.9606299212598425
        },
        {
          "duration": 0.40865343749999994,
          "durationTicks": 102,
          "midi": 66,
          "name": "F#4",
          "ticks": 6336,
          "time": 25.38459,
          "velocity": 0.937007874015748
        },
        {
          "duration": 0.3685893749999991,
          "durationTicks": 92,
          "midi": 70,
          "name": "A#4",
          "ticks": 6336,
          "time": 25.38459,
          "velocity": 0.9606299212598425
        },
        {
          "duration": 0.4326918749999997,
          "durationTicks": 108,
          "midi": 58,
          "name": "A#3",
          "ticks": 6432,
          "time": 25.769205,
          "velocity": 0.905511811023622
        },
        {
          "duration": 0.4326918749999997,
          "durationTicks": 108,
          "midi": 63,
          "name": "D#4",
          "ticks": 6528,
          "time": 26.15382,
          "velocity": 0.9606299212598425
        },
        {
          "duration": 0.38461500000000015,
          "durationTicks": 96,
          "midi": 66,
          "name": "F#4",
          "ticks": 6528,
          "time": 26.15382,
          "velocity": 0.9448818897637795
        },
        {
          "duration": 0.288461250000001,
          "durationTicks": 72,
          "midi": 70,
          "name": "A#4",
          "ticks": 6528,
          "time": 26.15382,
          "velocity": 0.9448818897637795
        },
        {
          "duration": 0.424679062500001,
          "durationTicks": 106,
          "midi": 58,
          "name": "A#3",
          "ticks": 6624,
          "time": 26.538435,
          "velocity": 0.8503937007874016
        },
        {
          "duration": 0.4166662499999987,
          "durationTicks": 104,
          "midi": 63,
          "name": "D#4",
          "ticks": 6720,
          "time": 26.92305,
          "velocity": 0.952755905511811
        },
        {
          "duration": 0.2724356249999964,
          "durationTicks": 68,
          "midi": 66,
          "name": "F#4",
          "ticks": 6720,
          "time": 26.92305,
          "velocity": 0.9212598425196851
        },
        {
          "duration": 0.7371787500000018,
          "durationTicks": 184,
          "midi": 70,
          "name": "A#4",
          "ticks": 6720,
          "time": 26.92305,
          "velocity": 0.9606299212598425
        },
        {
          "duration": 0.18429468749999955,
          "durationTicks": 46,
          "midi": 58,
          "name": "A#3",
          "ticks": 6816,
          "time": 27.307665,
          "velocity": 0.905511811023622
        },
        {
          "duration": 1.7387803124999976,
          "durationTicks": 434,
          "midi": 44,
          "name": "G#2",
          "ticks": 6912,
          "time": 27.69228,
          "velocity": 0.8582677165354331
        },
        {
          "duration": 0.44070468749999847,
          "durationTicks": 110,
          "midi": 56,
          "name": "G#3",
          "ticks": 6912,
          "time": 27.69228,
          "velocity": 0.9606299212598425
        },
        {
          "duration": 0.24038437499999787,
          "durationTicks": 60,
          "midi": 60,
          "name": "C4",
          "ticks": 6912,
          "time": 27.69228,
          "velocity": 0.937007874015748
        },
        {
          "duration": 0.40865343749999994,
          "durationTicks": 102,
          "midi": 63,
          "name": "D#4",
          "ticks": 6912,
          "time": 27.69228,
          "velocity": 0.9606299212598425
        },
        {
          "duration": 0.38461500000000015,
          "durationTicks": 96,
          "midi": 68,
          "name": "G#4",
          "ticks": 6912,
          "time": 27.69228,
          "velocity": 0.968503937007874
        },
        {
          "duration": 0.3766021875000014,
          "durationTicks": 94,
          "midi": 51,
          "name": "D#3",
          "ticks": 7008,
          "time": 28.076895,
          "velocity": 0.9448818897637795
        },
        {
          "duration": 0.4407046874999949,
          "durationTicks": 110,
          "midi": 60,
          "name": "C4",
          "ticks": 7008,
          "time": 28.076895,
          "velocity": 0.937007874015748
        },
        {
          "duration": 0.40865343749999994,
          "durationTicks": 102,
          "midi": 56,
          "name": "G#3",
          "ticks": 7104,
          "time": 28.46151,
          "velocity": 0.968503937007874
        },
        {
          "duration": 0.3525637500000016,
          "durationTicks": 88,
          "midi": 63,
          "name": "D#4",
          "ticks": 7104,
          "time": 28.46151,
          "velocity": 0.9606299212598425
        },
        {
          "duration": 0.424679062500001,
          "durationTicks": 106,
          "midi": 70,
          "name": "A#4",
          "ticks": 7104,
          "time": 28.46151,
          "velocity": 0.968503937007874
        },
        {
          "duration": 1.0416656250000003,
          "durationTicks": 260,
          "midi": 51,
          "name": "D#3",
          "ticks": 7200,
          "time": 28.846124999999997,
          "velocity": 0.937007874015748
        },
        {
          "duration": 1.0496784375000026,
          "durationTicks": 262,
          "midi": 60,
          "name": "C4",
          "ticks": 7200,
          "time": 28.846124999999997,
          "velocity": 0.8976377952755905
        },
        {
          "duration": 0.24839718750000017,
          "durationTicks": 62,
          "midi": 68,
          "name": "G#4",
          "ticks": 7200,
          "time": 28.846124999999997,
          "velocity": 0.937007874015748
        },
        {
          "duration": 0.2644228125000012,
          "durationTicks": 66,
          "midi": 66,
          "name": "F#4",
          "ticks": 7248,
          "time": 29.0384325,
          "velocity": 0.889763779527559
        },
        {
          "duration": 0.6169865625000028,
          "durationTicks": 154,
          "midi": 63,
          "name": "D#4",
          "ticks": 7296,
          "time": 29.230739999999997,
          "velocity": 0.905511811023622
        },
        {
          "duration": 0.3685893749999991,
          "durationTicks": 92,
          "midi": 65,
          "name": "F4",
          "ticks": 7488,
          "time": 29.999969999999998,
          "velocity": 0.952755905511811
        },
        {
          "duration": 0.3766021875000014,
          "durationTicks": 94,
          "midi": 66,
          "name": "F#4",
          "ticks": 7584,
          "time": 30.384584999999998,
          "velocity": 0.9212598425196851
        },
        {
          "duration": 0.27243562499999996,
          "durationTicks": 68,
          "midi": 47,
          "name": "B2",
          "ticks": 7680,
          "time": 30.769199999999998,
          "velocity": 0.9212598425196851
        },
        {
          "duration": 0.6089737500000005,
          "durationTicks": 152,
          "midi": 54,
          "name": "F#3",
          "ticks": 7680,
          "time": 30.769199999999998,
          "velocity": 0.9606299212598425
        },
        {
          "duration": 0.28044843750000226,
          "durationTicks": 70,
          "midi": 59,
          "name": "B3",
          "ticks": 7680,
          "time": 30.769199999999998,
          "velocity": 0.968503937007874
        },
        {
          "duration": 0.2644228125000012,
          "durationTicks": 66,
          "midi": 63,
          "name": "D#4",
          "ticks": 7680,
          "time": 30.769199999999998,
          "velocity": 0.952755905511811
        },
        {
          "duration": 0.008012812499998745,
          "durationTicks": 2,
          "midi": 66,
          "name": "F#4",
          "ticks": 7680,
          "time": 30.769199999999998,
          "velocity": 0.9606299212598425
        },
        {
          "duration": 0.24839718750000017,
          "durationTicks": 62,
          "midi": 71,
          "name": "B4",
          "ticks": 7680,
          "time": 30.769199999999998,
          "velocity": 0.968503937007874
        },
        {
          "duration": 0.21634593750000164,
          "durationTicks": 54,
          "midi": 47,
          "name": "B2",
          "ticks": 7776,
          "time": 31.153814999999998,
          "velocity": 0.889763779527559
        },
        {
          "duration": 0.2083331250000029,
          "durationTicks": 52,
          "midi": 59,
          "name": "B3",
          "ticks": 7776,
          "time": 31.153814999999998,
          "velocity": 0.9606299212598425
        },
        {
          "duration": 0.3124996875000008,
          "durationTicks": 78,
          "midi": 63,
          "name": "D#4",
          "ticks": 7776,
          "time": 31.153814999999998,
          "velocity": 0.968503937007874
        },
        {
          "duration": 0.2644228125000012,
          "durationTicks": 66,
          "midi": 66,
          "name": "F#4",
          "ticks": 7776,
          "time": 31.153814999999998,
          "velocity": 0.9606299212598425
        },
        {
          "duration": 0.3445509374999993,
          "durationTicks": 86,
          "midi": 71,
          "name": "B4",
          "ticks": 7776,
          "time": 31.153814999999998,
          "velocity": 0.9606299212598425
        },
        {
          "duration": 0.36057656250000036,
          "durationTicks": 90,
          "midi": 46,
          "name": "A#2",
          "ticks": 7872,
          "time": 31.538429999999998,
          "velocity": 0.9212598425196851
        },
        {
          "duration": 0.28044843750000226,
          "durationTicks": 70,
          "midi": 53,
          "name": "F3",
          "ticks": 7872,
          "time": 31.538429999999998,
          "velocity": 0.968503937007874
        },
        {
          "duration": 0.28044843750000226,
          "durationTicks": 70,
          "midi": 58,
          "name": "A#3",
          "ticks": 7872,
          "time": 31.538429999999998,
          "velocity": 0.968503937007874
        },
        {
          "duration": 0.23237156250000268,
          "durationTicks": 58,
          "midi": 62,
          "name": "D4",
          "ticks": 7872,
          "time": 31.538429999999998,
          "velocity": 0.968503937007874
        },
        {
          "duration": 0.288461250000001,
          "durationTicks": 72,
          "midi": 65,
          "name": "F4",
          "ticks": 7872,
          "time": 31.538429999999998,
          "velocity": 0.968503937007874
        },
        {
          "duration": 0.21634593750000164,
          "durationTicks": 54,
          "midi": 70,
          "name": "A#4",
          "ticks": 7872,
          "time": 31.538429999999998,
          "velocity": 0.968503937007874
        },
        {
          "duration": 0.28846124999999745,
          "durationTicks": 72,
          "midi": 45,
          "name": "A2",
          "ticks": 8064,
          "time": 32.30766,
          "velocity": 0.9448818897637795
        },
        {
          "duration": 0.336538124999997,
          "durationTicks": 84,
          "midi": 52,
          "name": "E3",
          "ticks": 8064,
          "time": 32.30766,
          "velocity": 0.968503937007874
        },
        {
          "duration": 0.27243562499999996,
          "durationTicks": 68,
          "midi": 57,
          "name": "A3",
          "ticks": 8064,
          "time": 32.30766,
          "velocity": 0.968503937007874
        },
        {
          "duration": 0.2644228125000012,
          "durationTicks": 66,
          "midi": 61,
          "name": "C#4",
          "ticks": 8064,
          "time": 32.30766,
          "velocity": 0.889763779527559
        },
        {
          "duration": 0.30448687500000204,
          "durationTicks": 76,
          "midi": 64,
          "name": "E4",
          "ticks": 8064,
          "time": 32.30766,
          "velocity": 0.968503937007874
        },
        {
          "duration": 0.2644228125000012,
          "durationTicks": 66,
          "midi": 69,
          "name": "A4",
          "ticks": 8064,
          "time": 32.30766,
          "velocity": 0.9212598425196851
        },
        {
          "duration": 0.14423062499999872,
          "durationTicks": 36,
          "midi": 45,
          "name": "A2",
          "ticks": 8160,
          "time": 32.692275,
          "velocity": 0.9212598425196851
        },
        {
          "duration": 0.24839718749999662,
          "durationTicks": 62,
          "midi": 52,
          "name": "E3",
          "ticks": 8160,
          "time": 32.692275,
          "velocity": 0.9212598425196851
        },
        {
          "duration": 0.20032031249999704,
          "durationTicks": 50,
          "midi": 57,
          "name": "A3",
          "ticks": 8160,
          "time": 32.692275,
          "velocity": 0.9606299212598425
        },
        {
          "duration": 0.2964740624999962,
          "durationTicks": 74,
          "midi": 61,
          "name": "C#4",
          "ticks": 8160,
          "time": 32.692275,
          "velocity": 0.968503937007874
        },
        {
          "duration": 0.16826906249999496,
          "durationTicks": 42,
          "midi": 64,
          "name": "E4",
          "ticks": 8160,
          "time": 32.692275,
          "velocity": 0.968503937007874
        },
        {
          "duration": 0.2644228124999941,
          "durationTicks": 66,
          "midi": 69,
          "name": "A4",
          "ticks": 8160,
          "time": 32.692275,
          "velocity": 0.9448818897637795
        },
        {
          "duration": 0.30448687500000204,
          "durationTicks": 76,
          "midi": 46,
          "name": "A#2",
          "ticks": 8256,
          "time": 33.07689,
          "velocity": 0.9291338582677166
        },
        {
          "duration": 0.32051249999999953,
          "durationTicks": 80,
          "midi": 53,
          "name": "F3",
          "ticks": 8256,
          "time": 33.07689,
          "velocity": 0.968503937007874
        },
        {
          "duration": 0.3685893749999991,
          "durationTicks": 92,
          "midi": 58,
          "name": "A#3",
          "ticks": 8256,
          "time": 33.07689,
          "velocity": 0.968503937007874
        },
        {
          "duration": 0.23237156249999913,
          "durationTicks": 58,
          "midi": 62,
          "name": "D4",
          "ticks": 8256,
          "time": 33.07689,
          "velocity": 0.968503937007874
        },
        {
          "duration": 0.3124996875000008,
          "durationTicks": 78,
          "midi": 65,
          "name": "F4",
          "ticks": 8256,
          "time": 33.07689,
          "velocity": 0.968503937007874
        },
        {
          "duration": 0.336538124999997,
          "durationTicks": 84,
          "midi": 70,
          "name": "A#4",
          "ticks": 8256,
          "time": 33.07689,
          "velocity": 0.968503937007874
        },
        {
          "duration": 0.2804484374999987,
          "durationTicks": 70,
          "midi": 47,
          "name": "B2",
          "ticks": 8448,
          "time": 33.84612,
          "velocity": 0.937007874015748
        },
        {
          "duration": 0.608973749999997,
          "durationTicks": 152,
          "midi": 54,
          "name": "F#3",
          "ticks": 8448,
          "time": 33.84612,
          "velocity": 0.952755905511811
        },
        {
          "duration": 0.2644228125000012,
          "durationTicks": 66,
          "midi": 59,
          "name": "B3",
          "ticks": 8448,
          "time": 33.84612,
          "velocity": 0.968503937007874
        },
        {
          "duration": 0.23237156249999913,
          "durationTicks": 58,
          "midi": 63,
          "name": "D#4",
          "ticks": 8448,
          "time": 33.84612,
          "velocity": 0.9606299212598425
        },
        {
          "duration": 0.32051249999999953,
          "durationTicks": 80,
          "midi": 66,
          "name": "F#4",
          "ticks": 8448,
          "time": 33.84612,
          "velocity": 0.937007874015748
        },
        {
          "duration": 0.2644228125000012,
          "durationTicks": 66,
          "midi": 71,
          "name": "B4",
          "ticks": 8448,
          "time": 33.84612,
          "velocity": 0.968503937007874
        },
        {
          "duration": 0.20032031250000415,
          "durationTicks": 50,
          "midi": 47,
          "name": "B2",
          "ticks": 8544,
          "time": 34.230734999999996,
          "velocity": 0.9212598425196851
        },
        {
          "duration": 0.20032031250000415,
          "durationTicks": 50,
          "midi": 59,
          "name": "B3",
          "ticks": 8544,
          "time": 34.230734999999996,
          "velocity": 0.968503937007874
        },
        {
          "duration": 0.25641000000000247,
          "durationTicks": 64,
          "midi": 63,
          "name": "D#4",
          "ticks": 8544,
          "time": 34.230734999999996,
          "velocity": 0.952755905511811
        },
        {
          "duration": 0.22435875000000038,
          "durationTicks": 56,
          "midi": 66,
          "name": "F#4",
          "ticks": 8544,
          "time": 34.230734999999996,
          "velocity": 0.937007874015748
        },
        {
          "duration": 0.30448687500000204,
          "durationTicks": 76,
          "midi": 71,
          "name": "B4",
          "ticks": 8544,
          "time": 34.230734999999996,
          "velocity": 0.968503937007874
        },
        {
          "duration": 0.4407046874999949,
          "durationTicks": 110,
          "midi": 46,
          "name": "A#2",
          "ticks": 8640,
          "time": 34.61535,
          "velocity": 0.14173228346456693
        },
        {
          "duration": 0.3525637500000016,
          "durationTicks": 88,
          "midi": 53,
          "name": "F3",
          "ticks": 8640,
          "time": 34.61535,
          "velocity": 0.952755905511811
        },
        {
          "duration": 0.37660218749999785,
          "durationTicks": 94,
          "midi": 58,
          "name": "A#3",
          "ticks": 8640,
          "time": 34.61535,
          "velocity": 0.968503937007874
        },
        {
          "duration": 0.23237156249999913,
          "durationTicks": 58,
          "midi": 62,
          "name": "D4",
          "ticks": 8640,
          "time": 34.61535,
          "velocity": 0.968503937007874
        },
        {
          "duration": 0.39262781249999534,
          "durationTicks": 98,
          "midi": 65,
          "name": "F4",
          "ticks": 8640,
          "time": 34.61535,
          "velocity": 0.968503937007874
        },
        {
          "duration": 0.28846124999999745,
          "durationTicks": 72,
          "midi": 70,
          "name": "A#4",
          "ticks": 8640,
          "time": 34.61535,
          "velocity": 0.952755905511811
        },
        {
          "duration": 0.4887815624999945,
          "durationTicks": 122,
          "midi": 45,
          "name": "A2",
          "ticks": 8832,
          "time": 35.38458,
          "velocity": 0.9212598425196851
        },
        {
          "duration": 0.5929481249999995,
          "durationTicks": 148,
          "midi": 52,
          "name": "E3",
          "ticks": 8832,
          "time": 35.38458,
          "velocity": 0.952755905511811
        },
        {
          "duration": 0.23237156249999913,
          "durationTicks": 58,
          "midi": 57,
          "name": "A3",
          "ticks": 8832,
          "time": 35.38458,
          "velocity": 0.9448818897637795
        },
        {
          "duration": 0.20032031249999704,
          "durationTicks": 50,
          "midi": 61,
          "name": "C#4",
          "ticks": 8832,
          "time": 35.38458,
          "velocity": 0.9606299212598425
        },
        {
          "duration": 0.2644228125000012,
          "durationTicks": 66,
          "midi": 64,
          "name": "E4",
          "ticks": 8832,
          "time": 35.38458,
          "velocity": 0.968503937007874
        },
        {
          "duration": 0.25641000000000247,
          "durationTicks": 64,
          "midi": 69,
          "name": "A4",
          "ticks": 8832,
          "time": 35.38458,
          "velocity": 0.9212598425196851
        },
        {
          "duration": 0.21634593750000164,
          "durationTicks": 54,
          "midi": 57,
          "name": "A3",
          "ticks": 8928,
          "time": 35.769194999999996,
          "velocity": 0.9133858267716536
        },
        {
          "duration": 0.32051249999999953,
          "durationTicks": 80,
          "midi": 61,
          "name": "C#4",
          "ticks": 8928,
          "time": 35.769194999999996,
          "velocity": 0.9448818897637795
        },
        {
          "duration": 0.15224343749999747,
          "durationTicks": 38,
          "midi": 64,
          "name": "E4",
          "ticks": 8928,
          "time": 35.769194999999996,
          "velocity": 0.937007874015748
        },
        {
          "duration": 0.32051249999999953,
          "durationTicks": 80,
          "midi": 69,
          "name": "A4",
          "ticks": 8928,
          "time": 35.769194999999996,
          "velocity": 0.9133858267716536
        },
        {
          "duration": 0.6891018749999986,
          "durationTicks": 172,
          "midi": 46,
          "name": "A#2",
          "ticks": 9024,
          "time": 36.15381,
          "velocity": 0.8818897637795275
        },
        {
          "duration": 0.745191562499997,
          "durationTicks": 186,
          "midi": 53,
          "name": "F3",
          "ticks": 9024,
          "time": 36.15381,
          "velocity": 0.9606299212598425
        },
        {
          "duration": 0.5528840624999987,
          "durationTicks": 138,
          "midi": 58,
          "name": "A#3",
          "ticks": 9024,
          "time": 36.15381,
          "velocity": 0.9606299212598425
        },
        {
          "duration": 0.5128199999999978,
          "durationTicks": 128,
          "midi": 62,
          "name": "D4",
          "ticks": 9024,
          "time": 36.15381,
          "velocity": 0.952755905511811
        },
        {
          "duration": 0.745191562499997,
          "durationTicks": 186,
          "midi": 65,
          "name": "F4",
          "ticks": 9024,
          "time": 36.15381,
          "velocity": 0.9606299212598425
        },
        {
          "duration": 0.8092940625000011,
          "durationTicks": 202,
          "midi": 70,
          "name": "A#4",
          "ticks": 9024,
          "time": 36.15381,
          "velocity": 0.9606299212598425
        },
        {
          "duration": 0.8253196874999986,
          "durationTicks": 206,
          "midi": 51,
          "name": "D#3",
          "ticks": 9216,
          "time": 36.92304,
          "velocity": 0.968503937007874
        },
        {
          "duration": 0.5368584374999941,
          "durationTicks": 134,
          "midi": 58,
          "name": "A#3",
          "ticks": 9216,
          "time": 36.92304,
          "velocity": 0.968503937007874
        },
        {
          "duration": 0.25641000000000247,
          "durationTicks": 64,
          "midi": 63,
          "name": "D#4",
          "ticks": 9216,
          "time": 36.92304,
          "velocity": 0.9606299212598425
        },
        {
          "duration": 0.4887815624999945,
          "durationTicks": 122,
          "midi": 67,
          "name": "G4",
          "ticks": 9216,
          "time": 36.92304,
          "velocity": 0.968503937007874
        },
        {
          "duration": 0.42467906250000453,
          "durationTicks": 106,
          "midi": 63,
          "name": "D#4",
          "ticks": 9312,
          "time": 37.307655,
          "velocity": 0.9291338582677166
        },
        {
          "duration": 0.40865343749999994,
          "durationTicks": 102,
          "midi": 58,
          "name": "A#3",
          "ticks": 9408,
          "time": 37.69227,
          "velocity": 0.968503937007874
        },
        {
          "duration": 0.7612171875000016,
          "durationTicks": 190,
          "midi": 67,
          "name": "G4",
          "ticks": 9408,
          "time": 37.69227,
          "velocity": 0.9606299212598425
        },
        {
          "duration": 0.3525637500000016,
          "durationTicks": 88,
          "midi": 70,
          "name": "A#4",
          "ticks": 9408,
          "time": 37.69227,
          "velocity": 0.9606299212598425
        },
        {
          "duration": 0.4006406250000012,
          "durationTicks": 100,
          "midi": 51,
          "name": "D#3",
          "ticks": 9504,
          "time": 38.076885,
          "velocity": 0.9606299212598425
        },
        {
          "duration": 0.33653812500000413,
          "durationTicks": 84,
          "midi": 63,
          "name": "D#4",
          "ticks": 9504,
          "time": 38.076885,
          "velocity": 0.9291338582677166
        },
        {
          "duration": 0.777242812499999,
          "durationTicks": 194,
          "midi": 50,
          "name": "D3",
          "ticks": 9600,
          "time": 38.4615,
          "velocity": 0.952755905511811
        },
        {
          "duration": 0.5929481249999995,
          "durationTicks": 148,
          "midi": 58,
          "name": "A#3",
          "ticks": 9600,
          "time": 38.4615,
          "velocity": 0.952755905511811
        },
        {
          "duration": 0.24839718749999662,
          "durationTicks": 62,
          "midi": 62,
          "name": "D4",
          "ticks": 9600,
          "time": 38.4615,
          "velocity": 0.9606299212598425
        },
        {
          "duration": 0.4567303124999995,
          "durationTicks": 114,
          "midi": 65,
          "name": "F4",
          "ticks": 9600,
          "time": 38.4615,
          "velocity": 0.968503937007874
        },
        {
          "duration": 0.4326918750000033,
          "durationTicks": 108,
          "midi": 62,
          "name": "D4",
          "ticks": 9696,
          "time": 38.846115,
          "velocity": 0.952755905511811
        },
        {
          "duration": 0.4166662499999987,
          "durationTicks": 104,
          "midi": 58,
          "name": "A#3",
          "ticks": 9792,
          "time": 39.23073,
          "velocity": 0.9606299212598425
        },
        {
          "duration": 0.42467906249999743,
          "durationTicks": 106,
          "midi": 65,
          "name": "F4",
          "ticks": 9792,
          "time": 39.23073,
          "velocity": 0.968503937007874
        },
        {
          "duration": 0.7211531250000007,
          "durationTicks": 180,
          "midi": 70,
          "name": "A#4",
          "ticks": 9792,
          "time": 39.23073,
          "velocity": 0.9448818897637795
        },
        {
          "duration": 0.42467906250000453,
          "durationTicks": 106,
          "midi": 50,
          "name": "D3",
          "ticks": 9888,
          "time": 39.615345,
          "velocity": 0.9448818897637795
        },
        {
          "duration": 0.16826906250000206,
          "durationTicks": 42,
          "midi": 62,
          "name": "D4",
          "ticks": 9888,
          "time": 39.615345,
          "velocity": 0.952755905511811
        },
        {
          "duration": 1.6105753124999964,
          "durationTicks": 402,
          "midi": 49,
          "name": "C#3",
          "ticks": 9984,
          "time": 39.99996,
          "velocity": 0.9606299212598425
        },
        {
          "duration": 0.7211531249999936,
          "durationTicks": 180,
          "midi": 58,
          "name": "A#3",
          "ticks": 9984,
          "time": 39.99996,
          "velocity": 0.968503937007874
        },
        {
          "duration": 0.23237156249999913,
          "durationTicks": 58,
          "midi": 61,
          "name": "C#4",
          "ticks": 9984,
          "time": 39.99996,
          "velocity": 0.968503937007874
        },
        {
          "duration": 0.472755937499997,
          "durationTicks": 118,
          "midi": 64,
          "name": "E4",
          "ticks": 9984,
          "time": 39.99996,
          "velocity": 0.968503937007874
        },
        {
          "duration": 0.48076874999999575,
          "durationTicks": 120,
          "midi": 67,
          "name": "G4",
          "ticks": 9984,
          "time": 39.99996,
          "velocity": 0.968503937007874
        },
        {
          "duration": 0.6730762500000012,
          "durationTicks": 168,
          "midi": 61,
          "name": "C#4",
          "ticks": 10080,
          "time": 40.384575,
          "velocity": 0.9448818897637795
        },
        {
          "duration": 0.36057656249999326,
          "durationTicks": 90,
          "midi": 64,
          "name": "E4",
          "ticks": 10176,
          "time": 40.76919,
          "velocity": 0.968503937007874
        },
        {
          "duration": 0.6650634374999953,
          "durationTicks": 166,
          "midi": 67,
          "name": "G4",
          "ticks": 10176,
          "time": 40.76919,
          "velocity": 0.9606299212598425
        },
        {
          "duration": 0.28846124999999745,
          "durationTicks": 72,
          "midi": 58,
          "name": "A#3",
          "ticks": 10272,
          "time": 41.153805,
          "velocity": 0.9606299212598425
        },
        {
          "duration": 0.30448687500000204,
          "durationTicks": 76,
          "midi": 61,
          "name": "C#4",
          "ticks": 10272,
          "time": 41.153805,
          "velocity": 0.9291338582677166
        },
        {
          "duration": 0.336538124999997,
          "durationTicks": 84,
          "midi": 70,
          "name": "A#4",
          "ticks": 10272,
          "time": 41.153805,
          "velocity": 0.9606299212598425
        },
        {
          "duration": 1.1778834375000002,
          "durationTicks": 294,
          "midi": 48,
          "name": "C3",
          "ticks": 10368,
          "time": 41.538419999999995,
          "velocity": 0.9212598425196851
        },
        {
          "duration": 1.0576912500000049,
          "durationTicks": 264,
          "midi": 57,
          "name": "A3",
          "ticks": 10368,
          "time": 41.538419999999995,
          "velocity": 0.968503937007874
        },
        {
          "duration": 0.23237156250000623,
          "durationTicks": 58,
          "midi": 60,
          "name": "C4",
          "ticks": 10368,
          "time": 41.538419999999995,
          "velocity": 0.968503937007874
        },
        {
          "duration": 0.4887815625000016,
          "durationTicks": 122,
          "midi": 65,
          "name": "F4",
          "ticks": 10368,
          "time": 41.538419999999995,
          "velocity": 0.968503937007874
        },
        {
          "duration": 0.5128200000000049,
          "durationTicks": 128,
          "midi": 69,
          "name": "A4",
          "ticks": 10368,
          "time": 41.538419999999995,
          "velocity": 0.968503937007874
        },
        {
          "duration": 0.4887815624999945,
          "durationTicks": 122,
          "midi": 60,
          "name": "C4",
          "ticks": 10464,
          "time": 41.923035,
          "velocity": 0.8818897637795275
        },
        {
          "duration": 0.46474312499999826,
          "durationTicks": 116,
          "midi": 65,
          "name": "F4",
          "ticks": 10560,
          "time": 42.307649999999995,
          "velocity": 0.968503937007874
        },
        {
          "duration": 1.9230750000000043,
          "durationTicks": 480,
          "midi": 69,
          "name": "A4",
          "ticks": 10560,
          "time": 42.307649999999995,
          "velocity": 0.9606299212598425
        },
        {
          "duration": 1.2339731249999986,
          "durationTicks": 308,
          "midi": 60,
          "name": "C4",
          "ticks": 10656,
          "time": 42.692265,
          "velocity": 0.9212598425196851
        },
        {
          "duration": 2.2596131250000013,
          "durationTicks": 564,
          "midi": 41,
          "name": "F2",
          "ticks": 10752,
          "time": 43.076879999999996,
          "velocity": 0.9448818897637795
        },
        {
          "duration": 1.3942293750000019,
          "durationTicks": 348,
          "midi": 63,
          "name": "D#4",
          "ticks": 10752,
          "time": 43.076879999999996,
          "velocity": 0.968503937007874
        },
        {
          "duration": 1.5064087500000056,
          "durationTicks": 376,
          "midi": 67,
          "name": "G4",
          "ticks": 10752,
          "time": 43.076879999999996,
          "velocity": 0.968503937007874
        },
        {
          "duration": 1.4663446875000048,
          "durationTicks": 366,
          "midi": 72,
          "name": "C5",
          "ticks": 10752,
          "time": 43.076879999999996,
          "velocity": 0.9606299212598425
        },
        {
          "duration": 1.931087812499996,
          "durationTicks": 482,
          "midi": 48,
          "name": "C3",
          "ticks": 10848,
          "time": 43.461495,
          "velocity": 0.937007874015748
        },
        {
          "duration": 1.2419859375000044,
          "durationTicks": 310,
          "midi": 57,
          "name": "A3",
          "ticks": 10944,
          "time": 43.846109999999996,
          "velocity": 0.968503937007874
        },
        {
          "duration": 0.9294862500000036,
          "durationTicks": 232,
          "midi": 60,
          "name": "C4",
          "ticks": 11040,
          "time": 44.230725,
          "velocity": 0.937007874015748
        },
        {
          "duration": 0.7291659374999995,
          "durationTicks": 182,
          "midi": 63,
          "name": "D#4",
          "ticks": 11136,
          "time": 44.615339999999996,
          "velocity": 0.14173228346456693
        },
        {
          "duration": 0.032051250000002085,
          "durationTicks": 8,
          "midi": 69,
          "name": "A4",
          "ticks": 11136,
          "time": 44.615339999999996,
          "velocity": 0.9212598425196851
        },
        {
          "duration": 0.608973749999997,
          "durationTicks": 152,
          "midi": 72,
          "name": "C5",
          "ticks": 11136,
          "time": 44.615339999999996,
          "velocity": 0.952755905511811
        },
        {
          "duration": 0.7051275000000032,
          "durationTicks": 176,
          "midi": 57,
          "name": "A3",
          "ticks": 11328,
          "time": 45.38457,
          "velocity": 0.9606299212598425
        },
        {
          "duration": 2.8605740624999996,
          "durationTicks": 714,
          "midi": 34,
          "name": "A#1",
          "ticks": 11520,
          "time": 46.1538,
          "velocity": 0.952755905511811
        },
        {
          "duration": 5.881404374999995,
          "durationTicks": 1468,
          "midi": 46,
          "name": "A#2",
          "ticks": 11520,
          "time": 46.1538,
          "velocity": 0.968503937007874
        },
        {
          "duration": 0.5208328125000037,
          "durationTicks": 130,
          "midi": 58,
          "name": "A#3",
          "ticks": 11520,
          "time": 46.1538,
          "velocity": 0.937007874015748
        },
        {
          "duration": 1.2740371874999994,
          "durationTicks": 318,
          "midi": 53,
          "name": "F3",
          "ticks": 11616,
          "time": 46.538415,
          "velocity": 0.905511811023622
        },
        {
          "duration": 1.9471134375000005,
          "durationTicks": 486,
          "midi": 58,
          "name": "A#3",
          "ticks": 11712,
          "time": 46.92303,
          "velocity": 0.9212598425196851
        },
        {
          "duration": 1.2900628124999969,
          "durationTicks": 322,
          "midi": 62,
          "name": "D4",
          "ticks": 11808,
          "time": 47.307645,
          "velocity": 0.905511811023622
        },
        {
          "duration": 2.7243562500000067,
          "durationTicks": 680,
          "midi": 67,
          "name": "G4",
          "ticks": 11904,
          "time": 47.69226,
          "velocity": 0.9133858267716536
        },
        {
          "duration": 1.6105753125000035,
          "durationTicks": 402,
          "midi": 79,
          "name": "G5",
          "ticks": 11904,
          "time": 47.69226,
          "velocity": 0.9133858267716536
        },
        {
          "duration": 0.4326918749999962,
          "durationTicks": 108,
          "midi": 53,
          "name": "F3",
          "ticks": 12000,
          "time": 48.076875,
          "velocity": 0.7952755905511811
        },
        {
          "duration": 0.6971146874999974,
          "durationTicks": 174,
          "midi": 65,
          "name": "F4",
          "ticks": 12096,
          "time": 48.46149,
          "velocity": 0.9212598425196851
        },
        {
          "duration": 0.7291659374999995,
          "durationTicks": 182,
          "midi": 77,
          "name": "F5",
          "ticks": 12096,
          "time": 48.46149,
          "velocity": 0.9291338582677166
        },
        {
          "duration": 0.4326918749999962,
          "durationTicks": 108,
          "midi": 53,
          "name": "F3",
          "ticks": 12192,
          "time": 48.846105,
          "velocity": 0.84251968503937
        },
        {
          "duration": 2.7964715625000025,
          "durationTicks": 698,
          "midi": 34,
          "name": "A#1",
          "ticks": 12288,
          "time": 49.23072,
          "velocity": 0.968503937007874
        },
        {
          "duration": 0.4567303124999995,
          "durationTicks": 114,
          "midi": 58,
          "name": "A#3",
          "ticks": 12288,
          "time": 49.23072,
          "velocity": 0.9291338582677166
        },
        {
          "duration": 0.44871749999999366,
          "durationTicks": 112,
          "midi": 62,
          "name": "D4",
          "ticks": 12288,
          "time": 49.23072,
          "velocity": 0.968503937007874
        },
        {
          "duration": 1.2419859374999973,
          "durationTicks": 310,
          "midi": 53,
          "name": "F3",
          "ticks": 12384,
          "time": 49.615334999999995,
          "velocity": 0.8188976377952756
        },
        {
          "duration": 1.9070493749999997,
          "durationTicks": 476,
          "midi": 58,
          "name": "A#3",
          "ticks": 12480,
          "time": 49.99995,
          "velocity": 0.889763779527559
        },
        {
          "duration": 0.8894221875000028,
          "durationTicks": 222,
          "midi": 62,
          "name": "D4",
          "ticks": 12576,
          "time": 50.384564999999995,
          "velocity": 0.9133858267716536
        },
        {
          "duration": 1.6105753124999964,
          "durationTicks": 402,
          "midi": 67,
          "name": "G4",
          "ticks": 12672,
          "time": 50.76918,
          "velocity": 0.9133858267716536
        },
        {
          "duration": 1.6105753124999964,
          "durationTicks": 402,
          "midi": 79,
          "name": "G5",
          "ticks": 12672,
          "time": 50.76918,
          "velocity": 0.9133858267716536
        },
        {
          "duration": 0.48076875000000285,
          "durationTicks": 120,
          "midi": 53,
          "name": "F3",
          "ticks": 12768,
          "time": 51.153794999999995,
          "velocity": 0.8503937007874016
        },
        {
          "duration": 0.7291659374999995,
          "durationTicks": 182,
          "midi": 65,
          "name": "F4",
          "ticks": 12864,
          "time": 51.53841,
          "velocity": 0.9291338582677166
        },
        {
          "duration": 0.7291659374999995,
          "durationTicks": 182,
          "midi": 77,
          "name": "F5",
          "ticks": 12864,
          "time": 51.53841,
          "velocity": 0.9291338582677166
        },
        {
          "duration": 0.40865343749999994,
          "durationTicks": 102,
          "midi": 53,
          "name": "F3",
          "ticks": 12960,
          "time": 51.923024999999996,
          "velocity": 0.905511811023622
        },
        {
          "duration": 3.0849328125,
          "durationTicks": 770,
          "midi": 34,
          "name": "A#1",
          "ticks": 13056,
          "time": 52.30764,
          "velocity": 0.968503937007874
        },
        {
          "duration": 3.0608943750000037,
          "durationTicks": 764,
          "midi": 46,
          "name": "A#2",
          "ticks": 13056,
          "time": 52.30764,
          "velocity": 0.968503937007874
        },
        {
          "duration": 0.3285253124999983,
          "durationTicks": 82,
          "midi": 58,
          "name": "A#3",
          "ticks": 13056,
          "time": 52.30764,
          "velocity": 0.9606299212598425
        },
        {
          "duration": 0.777242812499999,
          "durationTicks": 194,
          "midi": 62,
          "name": "D4",
          "ticks": 13056,
          "time": 52.30764,
          "velocity": 0.9606299212598425
        },
        {
          "duration": 1.1939090624999977,
          "durationTicks": 298,
          "midi": 53,
          "name": "F3",
          "ticks": 13152,
          "time": 52.692254999999996,
          "velocity": 0.889763779527559
        },
        {
          "duration": 1.9471134375000005,
          "durationTicks": 486,
          "midi": 58,
          "name": "A#3",
          "ticks": 13248,
          "time": 53.07687,
          "velocity": 0.905511811023622
        },
        {
          "duration": 1.185896250000006,
          "durationTicks": 296,
          "midi": 62,
          "name": "D4",
          "ticks": 13344,
          "time": 53.461484999999996,
          "velocity": 0.905511811023622
        },
        {
          "duration": 1.6025624999999977,
          "durationTicks": 400,
          "midi": 67,
          "name": "G4",
          "ticks": 13440,
          "time": 53.8461,
          "velocity": 0.9212598425196851
        },
        {
          "duration": 1.6105753124999964,
          "durationTicks": 402,
          "midi": 79,
          "name": "G5",
          "ticks": 13440,
          "time": 53.8461,
          "velocity": 0.9133858267716536
        },
        {
          "duration": 0.6009609374999982,
          "durationTicks": 150,
          "midi": 53,
          "name": "F3",
          "ticks": 13536,
          "time": 54.230715,
          "velocity": 0.905511811023622
        },
        {
          "duration": 0.8012812500000024,
          "durationTicks": 200,
          "midi": 65,
          "name": "F4",
          "ticks": 13632,
          "time": 54.61533,
          "velocity": 0.9448818897637795
        },
        {
          "duration": 0.7291659374999995,
          "durationTicks": 182,
          "midi": 77,
          "name": "F5",
          "ticks": 13632,
          "time": 54.61533,
          "velocity": 0.9291338582677166
        },
        {
          "duration": 0.4006406249999941,
          "durationTicks": 100,
          "midi": 53,
          "name": "F3",
          "ticks": 13728,
          "time": 54.999945,
          "velocity": 0.8976377952755905
        },
        {
          "duration": 3.0929456249999916,
          "durationTicks": 772,
          "midi": 43,
          "name": "G2",
          "ticks": 13824,
          "time": 55.38456,
          "velocity": 0.9606299212598425
        },
        {
          "duration": 0.440704687500002,
          "durationTicks": 110,
          "midi": 58,
          "name": "A#3",
          "ticks": 13824,
          "time": 55.38456,
          "velocity": 0.9448818897637795
        },
        {
          "duration": 0.849358125000002,
          "durationTicks": 212,
          "midi": 62,
          "name": "D4",
          "ticks": 13824,
          "time": 55.38456,
          "velocity": 0.968503937007874
        },
        {
          "duration": 1.322114062499999,
          "durationTicks": 330,
          "midi": 55,
          "name": "G3",
          "ticks": 13920,
          "time": 55.769175,
          "velocity": 0.9133858267716536
        },
        {
          "duration": 2.0112159374999905,
          "durationTicks": 502,
          "midi": 58,
          "name": "A#3",
          "ticks": 14016,
          "time": 56.15379,
          "velocity": 0.9212598425196851
        },
        {
          "duration": 1.1698706249999944,
          "durationTicks": 292,
          "midi": 62,
          "name": "D4",
          "ticks": 14112,
          "time": 56.538405,
          "velocity": 0.9291338582677166
        },
        {
          "duration": 0.4166662499999987,
          "durationTicks": 104,
          "midi": 69,
          "name": "A4",
          "ticks": 14208,
          "time": 56.92302,
          "velocity": 0.9212598425196851
        },
        {
          "duration": 1.6105753124999964,
          "durationTicks": 402,
          "midi": 81,
          "name": "A5",
          "ticks": 14208,
          "time": 56.92302,
          "velocity": 0.9133858267716536
        },
        {
          "duration": 1.1217937499999948,
          "durationTicks": 280,
          "midi": 55,
          "name": "G3",
          "ticks": 14304,
          "time": 57.307635,
          "velocity": 0.9212598425196851
        },
        {
          "duration": 0.8493581250000091,
          "durationTicks": 212,
          "midi": 67,
          "name": "G4",
          "ticks": 14400,
          "time": 57.692249999999994,
          "velocity": 0.952755905511811
        },
        {
          "duration": 0.7291659375000066,
          "durationTicks": 182,
          "midi": 79,
          "name": "G5",
          "ticks": 14400,
          "time": 57.692249999999994,
          "velocity": 0.9291338582677166
        },
        {
          "duration": 0.12820500000000123,
          "durationTicks": 32,
          "midi": 62,
          "name": "D4",
          "ticks": 14496,
          "time": 58.076865,
          "velocity": 0.9212598425196851
        },
        {
          "duration": 2.8926253125000088,
          "durationTicks": 722,
          "midi": 36,
          "name": "C2",
          "ticks": 14592,
          "time": 58.461479999999995,
          "velocity": 0.968503937007874
        },
        {
          "duration": 2.852561250000001,
          "durationTicks": 712,
          "midi": 48,
          "name": "C3",
          "ticks": 14592,
          "time": 58.461479999999995,
          "velocity": 0.968503937007874
        },
        {
          "duration": 0.3525637500000016,
          "durationTicks": 88,
          "midi": 60,
          "name": "C4",
          "ticks": 14592,
          "time": 58.461479999999995,
          "velocity": 0.968503937007874
        },
        {
          "duration": 0.5448712499999999,
          "durationTicks": 136,
          "midi": 63,
          "name": "D#4",
          "ticks": 14592,
          "time": 58.461479999999995,
          "velocity": 0.968503937007874
        },
        {
          "duration": 1.2660243749999935,
          "durationTicks": 316,
          "midi": 60,
          "name": "C4",
          "ticks": 14688,
          "time": 58.846095,
          "velocity": 0.937007874015748
        },
        {
          "duration": 1.7868571875000043,
          "durationTicks": 446,
          "midi": 63,
          "name": "D#4",
          "ticks": 14784,
          "time": 59.230709999999995,
          "velocity": 0.9212598425196851
        },
        {
          "duration": 1.217947499999994,
          "durationTicks": 304,
          "midi": 67,
          "name": "G4",
          "ticks": 14880,
          "time": 59.615325,
          "velocity": 0.8582677165354331
        },
        {
          "duration": 0.44070468750000913,
          "durationTicks": 110,
          "midi": 74,
          "name": "D5",
          "ticks": 14976,
          "time": 59.999939999999995,
          "velocity": 0.9133858267716536
        },
        {
          "duration": 1.6105753125000035,
          "durationTicks": 402,
          "midi": 86,
          "name": "D6",
          "ticks": 14976,
          "time": 59.999939999999995,
          "velocity": 0.9133858267716536
        },
        {
          "duration": 1.2019218749999965,
          "durationTicks": 300,
          "midi": 60,
          "name": "C4",
          "ticks": 15072,
          "time": 60.384555,
          "velocity": 0.937007874015748
        },
        {
          "duration": 2.243587500000004,
          "durationTicks": 560,
          "midi": 72,
          "name": "C5",
          "ticks": 15168,
          "time": 60.769169999999995,
          "velocity": 0.952755905511811
        },
        {
          "duration": 0.7291659375000066,
          "durationTicks": 182,
          "midi": 84,
          "name": "C6",
          "ticks": 15168,
          "time": 60.769169999999995,
          "velocity": 0.9291338582677166
        },
        {
          "duration": 0.7291659374999995,
          "durationTicks": 182,
          "midi": 63,
          "name": "D#4",
          "ticks": 15264,
          "time": 61.153785,
          "velocity": 0.952755905511811
        },
        {
          "duration": 0.44871750000000077,
          "durationTicks": 112,
          "midi": 36,
          "name": "C2",
          "ticks": 15360,
          "time": 61.538399999999996,
          "velocity": 0.968503937007874
        },
        {
          "duration": 1.5064087499999985,
          "durationTicks": 376,
          "midi": 48,
          "name": "C3",
          "ticks": 15360,
          "time": 61.538399999999996,
          "velocity": 0.968503937007874
        },
        {
          "duration": 0.7291659375000066,
          "durationTicks": 182,
          "midi": 67,
          "name": "G4",
          "ticks": 15360,
          "time": 61.538399999999996,
          "velocity": 0.968503937007874
        },
        {
          "duration": 0.745191562499997,
          "durationTicks": 186,
          "midi": 60,
          "name": "C4",
          "ticks": 15456,
          "time": 61.923015,
          "velocity": 0.8976377952755905
        },
        {
          "duration": 0.23237156249999913,
          "durationTicks": 58,
          "midi": 36,
          "name": "C2",
          "ticks": 15504,
          "time": 62.1153225,
          "velocity": 0.7795275590551181
        },
        {
          "duration": 0.3846150000000037,
          "durationTicks": 96,
          "midi": 63,
          "name": "D#4",
          "ticks": 15552,
          "time": 62.307629999999996,
          "velocity": 0.9291338582677166
        },
        {
          "duration": 0.36057656250000036,
          "durationTicks": 90,
          "midi": 67,
          "name": "G4",
          "ticks": 15648,
          "time": 62.692245,
          "velocity": 0.9212598425196851
        },
        {
          "duration": 1.5705112500000098,
          "durationTicks": 392,
          "midi": 41,
          "name": "F2",
          "ticks": 15744,
          "time": 63.076859999999996,
          "velocity": 0.889763779527559
        },
        {
          "duration": 1.5384600000000006,
          "durationTicks": 384,
          "midi": 53,
          "name": "F3",
          "ticks": 15744,
          "time": 63.076859999999996,
          "velocity": 0.952755905511811
        },
        {
          "duration": 1.1057681249999973,
          "durationTicks": 276,
          "midi": 69,
          "name": "A4",
          "ticks": 15744,
          "time": 63.076859999999996,
          "velocity": 0.968503937007874
        },
        {
          "duration": 0.7211531249999936,
          "durationTicks": 180,
          "midi": 63,
          "name": "D#4",
          "ticks": 15840,
          "time": 63.461475,
          "velocity": 0.9212598425196851
        },
        {
          "duration": 0.42467906249999743,
          "durationTicks": 106,
          "midi": 65,
          "name": "F4",
          "ticks": 15936,
          "time": 63.84609,
          "velocity": 0.937007874015748
        },
        {
          "duration": 0.11217937499999664,
          "durationTicks": 28,
          "midi": 72,
          "name": "C5",
          "ticks": 16032,
          "time": 64.230705,
          "velocity": 0.937007874015748
        },
        {
          "duration": 3.0849328125,
          "durationTicks": 770,
          "midi": 46,
          "name": "A#2",
          "ticks": 16128,
          "time": 64.61532,
          "velocity": 0.952755905511811
        },
        {
          "duration": 0.4567303124999995,
          "durationTicks": 114,
          "midi": 58,
          "name": "A#3",
          "ticks": 16128,
          "time": 64.61532,
          "velocity": 0.937007874015748
        },
        {
          "duration": 0.8493581250000091,
          "durationTicks": 212,
          "midi": 62,
          "name": "D4",
          "ticks": 16128,
          "time": 64.61532,
          "velocity": 0.9606299212598425
        },
        {
          "duration": 1.2099346875000094,
          "durationTicks": 302,
          "midi": 53,
          "name": "F3",
          "ticks": 16224,
          "time": 64.999935,
          "velocity": 0.889763779527559
        },
        {
          "duration": 1.9391006249999947,
          "durationTicks": 484,
          "midi": 58,
          "name": "A#3",
          "ticks": 16320,
          "time": 65.38455,
          "velocity": 0.9291338582677166
        },
        {
          "duration": 1.1378193750000065,
          "durationTicks": 284,
          "midi": 62,
          "name": "D4",
          "ticks": 16416,
          "time": 65.769165,
          "velocity": 0.9448818897637795
        },
        {
          "duration": 1.6105753125000035,
          "durationTicks": 402,
          "midi": 67,
          "name": "G4",
          "ticks": 16512,
          "time": 66.15378,
          "velocity": 0.9448818897637795
        },
        {
          "duration": 1.6105753125000035,
          "durationTicks": 402,
          "midi": 79,
          "name": "G5",
          "ticks": 16512,
          "time": 66.15378,
          "velocity": 0.9133858267716536
        },
        {
          "duration": 0.4326918750000033,
          "durationTicks": 108,
          "midi": 53,
          "name": "F3",
          "ticks": 16608,
          "time": 66.538395,
          "velocity": 0.9133858267716536
        },
        {
          "duration": 0.7532043750000099,
          "durationTicks": 188,
          "midi": 65,
          "name": "F4",
          "ticks": 16704,
          "time": 66.92300999999999,
          "velocity": 0.937007874015748
        },
        {
          "duration": 0.7291659375000137,
          "durationTicks": 182,
          "midi": 77,
          "name": "F5",
          "ticks": 16704,
          "time": 66.92300999999999,
          "velocity": 0.9291338582677166
        },
        {
          "duration": 0.3445509375000029,
          "durationTicks": 86,
          "midi": 53,
          "name": "F3",
          "ticks": 16800,
          "time": 67.307625,
          "velocity": 0.8818897637795275
        },
        {
          "duration": 3.0929456249999987,
          "durationTicks": 772,
          "midi": 43,
          "name": "G2",
          "ticks": 16896,
          "time": 67.69224,
          "velocity": 0.9448818897637795
        },
        {
          "duration": 0.44871750000000077,
          "durationTicks": 112,
          "midi": 58,
          "name": "A#3",
          "ticks": 16896,
          "time": 67.69224,
          "velocity": 0.9606299212598425
        },
        {
          "duration": 0.9054478125000003,
          "durationTicks": 226,
          "midi": 62,
          "name": "D4",
          "ticks": 16896,
          "time": 67.69224,
          "velocity": 0.968503937007874
        },
        {
          "duration": 1.1939090624999977,
          "durationTicks": 298,
          "midi": 55,
          "name": "G3",
          "ticks": 16992,
          "time": 68.076855,
          "velocity": 0.9212598425196851
        },
        {
          "duration": 1.8589725000000072,
          "durationTicks": 464,
          "midi": 58,
          "name": "A#3",
          "ticks": 17088,
          "time": 68.46146999999999,
          "velocity": 0.952755905511811
        },
        {
          "duration": 1.2900628124999969,
          "durationTicks": 322,
          "midi": 62,
          "name": "D4",
          "ticks": 17184,
          "time": 68.846085,
          "velocity": 0.9448818897637795
        },
        {
          "duration": 0.40865343749999283,
          "durationTicks": 102,
          "midi": 69,
          "name": "A4",
          "ticks": 17280,
          "time": 69.2307,
          "velocity": 0.9212598425196851
        },
        {
          "duration": 1.6105753125000035,
          "durationTicks": 402,
          "midi": 81,
          "name": "A5",
          "ticks": 17280,
          "time": 69.2307,
          "velocity": 0.9133858267716536
        },
        {
          "duration": 0.4166662500000058,
          "durationTicks": 104,
          "midi": 55,
          "name": "G3",
          "ticks": 17376,
          "time": 69.615315,
          "velocity": 0.952755905511811
        },
        {
          "duration": 2.379805312500011,
          "durationTicks": 594,
          "midi": 67,
          "name": "G4",
          "ticks": 17472,
          "time": 69.99992999999999,
          "velocity": 0.9448818897637795
        },
        {
          "duration": 0.7291659375000137,
          "durationTicks": 182,
          "midi": 79,
          "name": "G5",
          "ticks": 17472,
          "time": 69.99992999999999,
          "velocity": 0.9291338582677166
        },
        {
          "duration": 0.3445509375000029,
          "durationTicks": 86,
          "midi": 55,
          "name": "G3",
          "ticks": 17568,
          "time": 70.384545,
          "velocity": 0.9212598425196851
        },
        {
          "duration": 1.386216562499996,
          "durationTicks": 346,
          "midi": 48,
          "name": "C3",
          "ticks": 17664,
          "time": 70.76916,
          "velocity": 0.968503937007874
        },
        {
          "duration": 0.44871750000000077,
          "durationTicks": 112,
          "midi": 60,
          "name": "C4",
          "ticks": 17664,
          "time": 70.76916,
          "velocity": 0.968503937007874
        },
        {
          "duration": 0.472755937499997,
          "durationTicks": 118,
          "midi": 63,
          "name": "D#4",
          "ticks": 17664,
          "time": 70.76916,
          "velocity": 0.9606299212598425
        },
        {
          "duration": 0.745191562499997,
          "durationTicks": 186,
          "midi": 55,
          "name": "G3",
          "ticks": 17760,
          "time": 71.153775,
          "velocity": 0.9212598425196851
        },
        {
          "duration": 0.4887815625000087,
          "durationTicks": 122,
          "midi": 60,
          "name": "C4",
          "ticks": 17856,
          "time": 71.53838999999999,
          "velocity": 0.9291338582677166
        },
        {
          "duration": 0.24038437499999077,
          "durationTicks": 60,
          "midi": 47,
          "name": "B2",
          "ticks": 17952,
          "time": 71.923005,
          "velocity": 0.9606299212598425
        },
        {
          "duration": 0.3525637499999874,
          "durationTicks": 88,
          "midi": 55,
          "name": "G3",
          "ticks": 17952,
          "time": 71.923005,
          "velocity": 0.937007874015748
        },
        {
          "duration": 0.24839718750000372,
          "durationTicks": 62,
          "midi": 63,
          "name": "D#4",
          "ticks": 17952,
          "time": 71.923005,
          "velocity": 0.952755905511811
        },
        {
          "duration": 0.7371787499999982,
          "durationTicks": 184,
          "midi": 46,
          "name": "A#2",
          "ticks": 18048,
          "time": 72.30762,
          "velocity": 0.968503937007874
        },
        {
          "duration": 0.3685893749999991,
          "durationTicks": 92,
          "midi": 58,
          "name": "A#3",
          "ticks": 18048,
          "time": 72.30762,
          "velocity": 0.968503937007874
        },
        {
          "duration": 0.4567303124999995,
          "durationTicks": 114,
          "midi": 63,
          "name": "D#4",
          "ticks": 18048,
          "time": 72.30762,
          "velocity": 0.9606299212598425
        },
        {
          "duration": 0.6169865624999886,
          "durationTicks": 154,
          "midi": 67,
          "name": "G4",
          "ticks": 18096,
          "time": 72.4999275,
          "velocity": 0.14173228346456693
        },
        {
          "duration": 0.440704687500002,
          "durationTicks": 110,
          "midi": 55,
          "name": "G3",
          "ticks": 18144,
          "time": 72.692235,
          "velocity": 0.9212598425196851
        },
        {
          "duration": 0.7772428125000062,
          "durationTicks": 194,
          "midi": 45,
          "name": "A2",
          "ticks": 18240,
          "time": 73.07685,
          "velocity": 0.968503937007874
        },
        {
          "duration": 0.3685893750000133,
          "durationTicks": 92,
          "midi": 57,
          "name": "A3",
          "ticks": 18240,
          "time": 73.07685,
          "velocity": 0.968503937007874
        },
        {
          "duration": 0.5368584375000012,
          "durationTicks": 134,
          "midi": 63,
          "name": "D#4",
          "ticks": 18240,
          "time": 73.07685,
          "velocity": 0.968503937007874
        },
        {
          "duration": 0.3846149999999966,
          "durationTicks": 96,
          "midi": 55,
          "name": "G3",
          "ticks": 18336,
          "time": 73.461465,
          "velocity": 0.9291338582677166
        },
        {
          "duration": 1.4983959375000069,
          "durationTicks": 374,
          "midi": 44,
          "name": "G#2",
          "ticks": 18432,
          "time": 73.84608,
          "velocity": 0.968503937007874
        },
        {
          "duration": 0.3846149999999966,
          "durationTicks": 96,
          "midi": 58,
          "name": "A#3",
          "ticks": 18432,
          "time": 73.84608,
          "velocity": 0.968503937007874
        },
        {
          "duration": 0.5769224999999949,
          "durationTicks": 144,
          "midi": 63,
          "name": "D#4",
          "ticks": 18432,
          "time": 73.84608,
          "velocity": 0.968503937007874
        },
        {
          "duration": 0.3445509375000029,
          "durationTicks": 86,
          "midi": 56,
          "name": "G#3",
          "ticks": 18528,
          "time": 74.230695,
          "velocity": 0.9448818897637795
        },
        {
          "duration": 0.7692300000000074,
          "durationTicks": 192,
          "midi": 60,
          "name": "C4",
          "ticks": 18624,
          "time": 74.61531,
          "velocity": 0.952755905511811
        },
        {
          "duration": 0.4887815625000087,
          "durationTicks": 122,
          "midi": 63,
          "name": "D#4",
          "ticks": 18624,
          "time": 74.61531,
          "velocity": 0.9448818897637795
        },
        {
          "duration": 0.36057656250000036,
          "durationTicks": 90,
          "midi": 56,
          "name": "G#3",
          "ticks": 18720,
          "time": 74.99992499999999,
          "velocity": 0.9133858267716536
        },
        {
          "duration": 0.8012812500000024,
          "durationTicks": 200,
          "midi": 43,
          "name": "G2",
          "ticks": 18816,
          "time": 75.38454,
          "velocity": 0.9606299212598425
        },
        {
          "duration": 0.39262781249999534,
          "durationTicks": 98,
          "midi": 58,
          "name": "A#3",
          "ticks": 18816,
          "time": 75.38454,
          "velocity": 0.968503937007874
        },
        {
          "duration": 0.6570506249999966,
          "durationTicks": 164,
          "midi": 63,
          "name": "D#4",
          "ticks": 18816,
          "time": 75.38454,
          "velocity": 0.968503937007874
        },
        {
          "duration": 0.27243562499999996,
          "durationTicks": 68,
          "midi": 55,
          "name": "G3",
          "ticks": 18912,
          "time": 75.769155,
          "velocity": 0.889763779527559
        },
        {
          "duration": 0.7612171874999945,
          "durationTicks": 190,
          "midi": 41,
          "name": "F2",
          "ticks": 19008,
          "time": 76.15377,
          "velocity": 0.9606299212598425
        },
        {
          "duration": 0.4166662500000058,
          "durationTicks": 104,
          "midi": 56,
          "name": "G#3",
          "ticks": 19008,
          "time": 76.15377,
          "velocity": 0.968503937007874
        },
        {
          "duration": 0.5448712499999999,
          "durationTicks": 136,
          "midi": 63,
          "name": "D#4",
          "ticks": 19008,
          "time": 76.15377,
          "velocity": 0.968503937007874
        },
        {
          "duration": 0.36057656250000036,
          "durationTicks": 90,
          "midi": 53,
          "name": "F3",
          "ticks": 19104,
          "time": 76.53838499999999,
          "velocity": 0.9212598425196851
        },
        {
          "duration": 2.3477540624999875,
          "durationTicks": 586,
          "midi": 39,
          "name": "D#2",
          "ticks": 19200,
          "time": 76.923,
          "velocity": 0.968503937007874
        },
        {
          "duration": 2.2596131250000013,
          "durationTicks": 564,
          "midi": 51,
          "name": "D#3",
          "ticks": 19200,
          "time": 76.923,
          "velocity": 0.9606299212598425
        },
        {
          "duration": 0.46474312499999826,
          "durationTicks": 116,
          "midi": 58,
          "name": "A#3",
          "ticks": 19200,
          "time": 76.923,
          "velocity": 0.968503937007874
        },
        {
          "duration": 0.49679437499999324,
          "durationTicks": 124,
          "midi": 63,
          "name": "D#4",
          "ticks": 19200,
          "time": 76.923,
          "velocity": 0.968503937007874
        },
        {
          "duration": 0.44871749999998656,
          "durationTicks": 112,
          "midi": 67,
          "name": "G4",
          "ticks": 19200,
          "time": 76.923,
          "velocity": 0.968503937007874
        },
        {
          "duration": 0.4567303124999995,
          "durationTicks": 114,
          "midi": 55,
          "name": "G3",
          "ticks": 19296,
          "time": 77.307615,
          "velocity": 0.7322834645669292
        },
        {
          "duration": 0.472755937499997,
          "durationTicks": 118,
          "midi": 58,
          "name": "A#3",
          "ticks": 19392,
          "time": 77.69223,
          "velocity": 0.968503937007874
        },
        {
          "duration": 0.5048071875000062,
          "durationTicks": 126,
          "midi": 63,
          "name": "D#4",
          "ticks": 19392,
          "time": 77.69223,
          "velocity": 0.9606299212598425
        },
        {
          "duration": 0.4006406249999941,
          "durationTicks": 100,
          "midi": 67,
          "name": "G4",
          "ticks": 19392,
          "time": 77.69223,
          "velocity": 0.968503937007874
        },
        {
          "duration": 0.44871750000000077,
          "durationTicks": 112,
          "midi": 55,
          "name": "G3",
          "ticks": 19488,
          "time": 78.07684499999999,
          "velocity": 0.9212598425196851
        },
        {
          "duration": 0.44871749999998656,
          "durationTicks": 112,
          "midi": 58,
          "name": "A#3",
          "ticks": 19584,
          "time": 78.46146,
          "velocity": 0.9606299212598425
        },
        {
          "duration": 0.6009609374999911,
          "durationTicks": 150,
          "midi": 63,
          "name": "D#4",
          "ticks": 19584,
          "time": 78.46146,
          "velocity": 0.952755905511811
        },
        {
          "duration": 0.37660218749999785,
          "durationTicks": 94,
          "midi": 67,
          "name": "G4",
          "ticks": 19584,
          "time": 78.46146,
          "velocity": 0.968503937007874
        },
        {
          "duration": 0.3124996874999937,
          "durationTicks": 78,
          "midi": 55,
          "name": "G3",
          "ticks": 19680,
          "time": 78.846075,
          "velocity": 0.9291338582677166
        },
        {
          "duration": 0.7532043750000099,
          "durationTicks": 188,
          "midi": 38,
          "name": "D2",
          "ticks": 19776,
          "time": 79.23069,
          "velocity": 0.9606299212598425
        },
        {
          "duration": 0.6570506250000108,
          "durationTicks": 164,
          "midi": 50,
          "name": "D3",
          "ticks": 19776,
          "time": 79.23069,
          "velocity": 0.968503937007874
        },
        {
          "duration": 0.3846149999999966,
          "durationTicks": 96,
          "midi": 58,
          "name": "A#3",
          "ticks": 19776,
          "time": 79.23069,
          "velocity": 0.968503937007874
        },
        {
          "duration": 0.3445509375000029,
          "durationTicks": 86,
          "midi": 62,
          "name": "D4",
          "ticks": 19776,
          "time": 79.23069,
          "velocity": 0.968503937007874
        },
        {
          "duration": 0.8092940625000011,
          "durationTicks": 202,
          "midi": 65,
          "name": "F4",
          "ticks": 19776,
          "time": 79.23069,
          "velocity": 0.968503937007874
        },
        {
          "duration": 0.3285253125000054,
          "durationTicks": 82,
          "midi": 53,
          "name": "F3",
          "ticks": 19872,
          "time": 79.61530499999999,
          "velocity": 0.9212598425196851
        },
        {
          "duration": 2.548074374999999,
          "durationTicks": 636,
          "midi": 36,
          "name": "C2",
          "ticks": 19968,
          "time": 79.99992,
          "velocity": 0.968503937007874
        },
        {
          "duration": 2.636215312499985,
          "durationTicks": 658,
          "midi": 48,
          "name": "C3",
          "ticks": 19968,
          "time": 79.99992,
          "velocity": 0.968503937007874
        },
        {
          "duration": 0.25640999999998826,
          "durationTicks": 64,
          "midi": 60,
          "name": "C4",
          "ticks": 19968,
          "time": 79.99992,
          "velocity": 0.968503937007874
        },
        {
          "duration": 0.44871749999998656,
          "durationTicks": 112,
          "midi": 63,
          "name": "D#4",
          "ticks": 19968,
          "time": 79.99992,
          "velocity": 0.968503937007874
        },
        {
          "duration": 0.44871749999998656,
          "durationTicks": 112,
          "midi": 60,
          "name": "C4",
          "ticks": 20064,
          "time": 80.384535,
          "velocity": 0.9133858267716536
        },
        {
          "duration": 0.6490378124999978,
          "durationTicks": 162,
          "midi": 63,
          "name": "D#4",
          "ticks": 20160,
          "time": 80.76915,
          "velocity": 0.952755905511811
        },
        {
          "duration": 0.40865343750000704,
          "durationTicks": 102,
          "midi": 67,
          "name": "G4",
          "ticks": 20256,
          "time": 81.15376499999999,
          "velocity": 0.9212598425196851
        },
        {
          "duration": 0.4006406249999941,
          "durationTicks": 100,
          "midi": 62,
          "name": "D4",
          "ticks": 20352,
          "time": 81.53838,
          "velocity": 0.937007874015748
        },
        {
          "duration": 0.5208328124999895,
          "durationTicks": 130,
          "midi": 74,
          "name": "D5",
          "ticks": 20352,
          "time": 81.53838,
          "velocity": 0.9291338582677166
        },
        {
          "duration": 1.0576912499999906,
          "durationTicks": 264,
          "midi": 63,
          "name": "D#4",
          "ticks": 20448,
          "time": 81.922995,
          "velocity": 0.937007874015748
        },
        {
          "duration": 0.9294862499999965,
          "durationTicks": 232,
          "midi": 60,
          "name": "C4",
          "ticks": 20544,
          "time": 82.30761,
          "velocity": 0.9133858267716536
        },
        {
          "duration": 1.2019218749999965,
          "durationTicks": 300,
          "midi": 72,
          "name": "C5",
          "ticks": 20544,
          "time": 82.30761,
          "velocity": 0.9606299212598425
        },
        {
          "duration": 0.32051250000000664,
          "durationTicks": 80,
          "midi": 67,
          "name": "G4",
          "ticks": 20640,
          "time": 82.692225,
          "velocity": 0.8976377952755905
        },
        {
          "duration": 1.2019218750000107,
          "durationTicks": 300,
          "midi": 41,
          "name": "F2",
          "ticks": 20736,
          "time": 83.07683999999999,
          "velocity": 0.9448818897637795
        },
        {
          "duration": 0.9775631250000032,
          "durationTicks": 244,
          "midi": 53,
          "name": "F3",
          "ticks": 20736,
          "time": 83.07683999999999,
          "velocity": 0.968503937007874
        },
        {
          "duration": 0.5769225000000091,
          "durationTicks": 144,
          "midi": 65,
          "name": "F4",
          "ticks": 20736,
          "time": 83.07683999999999,
          "velocity": 0.9606299212598425
        },
        {
          "duration": 0.4006406250000083,
          "durationTicks": 100,
          "midi": 68,
          "name": "G#4",
          "ticks": 20736,
          "time": 83.07683999999999,
          "velocity": 0.968503937007874
        },
        {
          "duration": 0.4246790624999903,
          "durationTicks": 106,
          "midi": 60,
          "name": "C4",
          "ticks": 20832,
          "time": 83.461455,
          "velocity": 0.9448818897637795
        },
        {
          "duration": 0.30448687499999494,
          "durationTicks": 76,
          "midi": 65,
          "name": "F4",
          "ticks": 20928,
          "time": 83.84607,
          "velocity": 0.968503937007874
        },
        {
          "duration": 0.6490378124999978,
          "durationTicks": 162,
          "midi": 68,
          "name": "G#4",
          "ticks": 20928,
          "time": 83.84607,
          "velocity": 0.952755905511811
        },
        {
          "duration": 1.3381396874999893,
          "durationTicks": 334,
          "midi": 72,
          "name": "C5",
          "ticks": 20928,
          "time": 83.84607,
          "velocity": 0.9448818897637795
        },
        {
          "duration": 0.40865343750000704,
          "durationTicks": 102,
          "midi": 40,
          "name": "E2",
          "ticks": 21024,
          "time": 84.230685,
          "velocity": 0.952755905511811
        },
        {
          "duration": 0.21634593750000874,
          "durationTicks": 54,
          "midi": 52,
          "name": "E3",
          "ticks": 21024,
          "time": 84.230685,
          "velocity": 0.905511811023622
        },
        {
          "duration": 0.6490378124999978,
          "durationTicks": 162,
          "midi": 60,
          "name": "C4",
          "ticks": 21024,
          "time": 84.230685,
          "velocity": 0.8818897637795275
        },
        {
          "duration": 0.25641000000000247,
          "durationTicks": 64,
          "midi": 64,
          "name": "E4",
          "ticks": 21024,
          "time": 84.230685,
          "velocity": 0.9606299212598425
        },
        {
          "duration": 0.8573709375000078,
          "durationTicks": 214,
          "midi": 39,
          "name": "D#2",
          "ticks": 21120,
          "time": 84.61529999999999,
          "velocity": 0.9606299212598425
        },
        {
          "duration": 0.6730762500000083,
          "durationTicks": 168,
          "midi": 51,
          "name": "D#3",
          "ticks": 21120,
          "time": 84.61529999999999,
          "velocity": 0.968503937007874
        },
        {
          "duration": 0.44070468750001623,
          "durationTicks": 110,
          "midi": 63,
          "name": "D#4",
          "ticks": 21120,
          "time": 84.61529999999999,
          "velocity": 0.968503937007874
        },
        {
          "duration": 0.5288456250000024,
          "durationTicks": 132,
          "midi": 68,
          "name": "G#4",
          "ticks": 21120,
          "time": 84.61529999999999,
          "velocity": 0.968503937007874
        },
        {
          "duration": 0.4246790624999903,
          "durationTicks": 106,
          "midi": 60,
          "name": "C4",
          "ticks": 21216,
          "time": 84.999915,
          "velocity": 0.7480314960629921
        },
        {
          "duration": 0.7291659374999995,
          "durationTicks": 182,
          "midi": 38,
          "name": "D2",
          "ticks": 21312,
          "time": 85.38453,
          "velocity": 0.9606299212598425
        },
        {
          "duration": 0.32051250000000664,
          "durationTicks": 80,
          "midi": 50,
          "name": "D3",
          "ticks": 21312,
          "time": 85.38453,
          "velocity": 0.968503937007874
        },
        {
          "duration": 0.4887815625000087,
          "durationTicks": 122,
          "midi": 62,
          "name": "D4",
          "ticks": 21312,
          "time": 85.38453,
          "velocity": 0.968503937007874
        },
        {
          "duration": 0.37660218749999785,
          "durationTicks": 94,
          "midi": 68,
          "name": "G#4",
          "ticks": 21312,
          "time": 85.38453,
          "velocity": 0.968503937007874
        },
        {
          "duration": 0.39262781249999534,
          "durationTicks": 98,
          "midi": 72,
          "name": "C5",
          "ticks": 21312,
          "time": 85.38453,
          "velocity": 0.968503937007874
        },
        {
          "duration": 0.3124996875000079,
          "durationTicks": 78,
          "midi": 60,
          "name": "C4",
          "ticks": 21408,
          "time": 85.769145,
          "velocity": 0.8661417322834646
        },
        {
          "duration": 2.716343437500001,
          "durationTicks": 678,
          "midi": 34,
          "name": "A#1",
          "ticks": 21504,
          "time": 86.15375999999999,
          "velocity": 0.952755905511811
        },
        {
          "duration": 2.7644203125000075,
          "durationTicks": 690,
          "midi": 46,
          "name": "A#2",
          "ticks": 21504,
          "time": 86.15375999999999,
          "velocity": 0.968503937007874
        },
        {
          "duration": 0.46474312500001247,
          "durationTicks": 116,
          "midi": 62,
          "name": "D4",
          "ticks": 21504,
          "time": 86.15375999999999,
          "velocity": 0.968503937007874
        },
        {
          "duration": 0.24038437500000498,
          "durationTicks": 60,
          "midi": 66,
          "name": "F#4",
          "ticks": 21504,
          "time": 86.15375999999999,
          "velocity": 0.14173228346456693
        },
        {
          "duration": 1.2179475000000082,
          "durationTicks": 304,
          "midi": 70,
          "name": "A#4",
          "ticks": 21504,
          "time": 86.15375999999999,
          "velocity": 0.9606299212598425
        },
        {
          "duration": 0.440704687500002,
          "durationTicks": 110,
          "midi": 58,
          "name": "A#3",
          "ticks": 21600,
          "time": 86.538375,
          "velocity": 0.84251968503937
        },
        {
          "duration": 0.4567303124999995,
          "durationTicks": 114,
          "midi": 62,
          "name": "D4",
          "ticks": 21696,
          "time": 86.92299,
          "velocity": 0.968503937007874
        },
        {
          "duration": 0.4326918750000033,
          "durationTicks": 108,
          "midi": 65,
          "name": "F4",
          "ticks": 21696,
          "time": 86.92299,
          "velocity": 0.968503937007874
        },
        {
          "duration": 0.40865343750000704,
          "durationTicks": 102,
          "midi": 58,
          "name": "A#3",
          "ticks": 21792,
          "time": 87.307605,
          "velocity": 0.8267716535433071
        },
        {
          "duration": 0.472755937499997,
          "durationTicks": 118,
          "midi": 62,
          "name": "D4",
          "ticks": 21888,
          "time": 87.69221999999999,
          "velocity": 0.9606299212598425
        },
        {
          "duration": 0.49679437500000745,
          "durationTicks": 124,
          "midi": 65,
          "name": "F4",
          "ticks": 21888,
          "time": 87.69221999999999,
          "velocity": 0.9606299212598425
        },
        {
          "duration": 0.5608968750000116,
          "durationTicks": 140,
          "midi": 70,
          "name": "A#4",
          "ticks": 21888,
          "time": 87.69221999999999,
          "velocity": 0.9448818897637795
        },
        {
          "duration": 1.3381396874999893,
          "durationTicks": 334,
          "midi": 58,
          "name": "A#3",
          "ticks": 21984,
          "time": 88.076835,
          "velocity": 0.9212598425196851
        },
        {
          "duration": 0.3124996874999937,
          "durationTicks": 78,
          "midi": 62,
          "name": "D4",
          "ticks": 22080,
          "time": 88.46145,
          "velocity": 0.9606299212598425
        },
        {
          "duration": 0.3285253124999912,
          "durationTicks": 82,
          "midi": 65,
          "name": "F4",
          "ticks": 22080,
          "time": 88.46145,
          "velocity": 0.9606299212598425
        },
        {
          "duration": 0.20032031249999704,
          "durationTicks": 50,
          "midi": 70,
          "name": "A#4",
          "ticks": 22080,
          "time": 88.46145,
          "velocity": 0.9212598425196851
        },
        {
          "duration": 1.5624984374999968,
          "durationTicks": 390,
          "midi": 39,
          "name": "D#2",
          "ticks": 22272,
          "time": 89.23067999999999,
          "velocity": 0.952755905511811
        },
        {
          "duration": 1.4022421875000077,
          "durationTicks": 350,
          "midi": 51,
          "name": "D#3",
          "ticks": 22272,
          "time": 89.23067999999999,
          "velocity": 0.9606299212598425
        },
        {
          "duration": 1.1298065625000078,
          "durationTicks": 282,
          "midi": 63,
          "name": "D#4",
          "ticks": 22272,
          "time": 89.23067999999999,
          "velocity": 0.9606299212598425
        },
        {
          "duration": 0.36057656250000036,
          "durationTicks": 90,
          "midi": 67,
          "name": "G4",
          "ticks": 22272,
          "time": 89.23067999999999,
          "velocity": 0.968503937007874
        },
        {
          "duration": 1.0096143749999982,
          "durationTicks": 252,
          "midi": 58,
          "name": "A#3",
          "ticks": 22368,
          "time": 89.615295,
          "velocity": 0.8031496062992126
        },
        {
          "duration": 0.472755937499997,
          "durationTicks": 118,
          "midi": 67,
          "name": "G4",
          "ticks": 22464,
          "time": 89.99991,
          "velocity": 0.9212598425196851
        },
        {
          "duration": 0.18429468749999955,
          "durationTicks": 46,
          "midi": 65,
          "name": "F4",
          "ticks": 22560,
          "time": 90.384525,
          "velocity": 0.8976377952755905
        },
        {
          "duration": 0.24038437500000498,
          "durationTicks": 60,
          "midi": 63,
          "name": "D#4",
          "ticks": 22608,
          "time": 90.5768325,
          "velocity": 0.905511811023622
        },
        {
          "duration": 1.5705112500000098,
          "durationTicks": 392,
          "midi": 38,
          "name": "D2",
          "ticks": 22656,
          "time": 90.76914,
          "velocity": 0.937007874015748
        },
        {
          "duration": 1.426280625000004,
          "durationTicks": 356,
          "midi": 50,
          "name": "D3",
          "ticks": 22656,
          "time": 90.76914,
          "velocity": 0.937007874015748
        },
        {
          "duration": 0.24038437500000498,
          "durationTicks": 60,
          "midi": 58,
          "name": "A#3",
          "ticks": 22656,
          "time": 90.76914,
          "velocity": 0.968503937007874
        },
        {
          "duration": 0.49679437499999324,
          "durationTicks": 124,
          "midi": 62,
          "name": "D4",
          "ticks": 22656,
          "time": 90.76914,
          "velocity": 0.968503937007874
        },
        {
          "duration": 0.48076875000000996,
          "durationTicks": 120,
          "midi": 65,
          "name": "F4",
          "ticks": 22656,
          "time": 90.76914,
          "velocity": 0.968503937007874
        },
        {
          "duration": 0.9374990625000095,
          "durationTicks": 234,
          "midi": 58,
          "name": "A#3",
          "ticks": 22752,
          "time": 91.15375499999999,
          "velocity": 0.7322834645669292
        },
        {
          "duration": 0.32051249999999243,
          "durationTicks": 80,
          "midi": 62,
          "name": "D4",
          "ticks": 22848,
          "time": 91.53837,
          "velocity": 0.9212598425196851
        },
        {
          "duration": 0.472755937499997,
          "durationTicks": 118,
          "midi": 65,
          "name": "F4",
          "ticks": 22848,
          "time": 91.53837,
          "velocity": 0.9212598425196851
        },
        {
          "duration": 0.21634593749999453,
          "durationTicks": 54,
          "midi": 63,
          "name": "D#4",
          "ticks": 22944,
          "time": 91.922985,
          "velocity": 0.84251968503937
        },
        {
          "duration": 0.1923074999999983,
          "durationTicks": 48,
          "midi": 62,
          "name": "D4",
          "ticks": 22992,
          "time": 92.1152925,
          "velocity": 0.905511811023622
        },
        {
          "duration": 1.554485624999998,
          "durationTicks": 388,
          "midi": 36,
          "name": "C2",
          "ticks": 23040,
          "time": 92.3076,
          "velocity": 0.937007874015748
        },
        {
          "duration": 1.5464728124999993,
          "durationTicks": 386,
          "midi": 48,
          "name": "C3",
          "ticks": 23040,
          "time": 92.3076,
          "velocity": 0.952755905511811
        },
        {
          "duration": 0.46474312500001247,
          "durationTicks": 116,
          "midi": 60,
          "name": "C4",
          "ticks": 23040,
          "time": 92.3076,
          "velocity": 0.9606299212598425
        },
        {
          "duration": 0.472755937499997,
          "durationTicks": 118,
          "midi": 63,
          "name": "D#4",
          "ticks": 23040,
          "time": 92.3076,
          "velocity": 0.9291338582677166
        },
        {
          "duration": 0.44871750000000077,
          "durationTicks": 112,
          "midi": 55,
          "name": "G3",
          "ticks": 23136,
          "time": 92.69221499999999,
          "velocity": 0.49606299212598426
        },
        {
          "duration": 0.37660218749999785,
          "durationTicks": 94,
          "midi": 60,
          "name": "C4",
          "ticks": 23232,
          "time": 93.07683,
          "velocity": 0.9212598425196851
        },
        {
          "duration": 0.44871749999998656,
          "durationTicks": 112,
          "midi": 63,
          "name": "D#4",
          "ticks": 23232,
          "time": 93.07683,
          "velocity": 0.9212598425196851
        },
        {
          "duration": 0.36057656250000036,
          "durationTicks": 90,
          "midi": 55,
          "name": "G3",
          "ticks": 23328,
          "time": 93.461445,
          "velocity": 0.8818897637795275
        },
        {
          "duration": 1.4503190625000002,
          "durationTicks": 362,
          "midi": 44,
          "name": "G#2",
          "ticks": 23424,
          "time": 93.84606,
          "velocity": 0.9606299212598425
        },
        {
          "duration": 0.46474312500001247,
          "durationTicks": 116,
          "midi": 59,
          "name": "B3",
          "ticks": 23424,
          "time": 93.84606,
          "velocity": 0.9606299212598425
        },
        {
          "duration": 0.4567303124999995,
          "durationTicks": 114,
          "midi": 63,
          "name": "D#4",
          "ticks": 23424,
          "time": 93.84606,
          "velocity": 0.9212598425196851
        },
        {
          "duration": 0.4166662500000058,
          "durationTicks": 104,
          "midi": 56,
          "name": "G#3",
          "ticks": 23520,
          "time": 94.23067499999999,
          "velocity": 0.84251968503937
        },
        {
          "duration": 0.745191562499997,
          "durationTicks": 186,
          "midi": 59,
          "name": "B3",
          "ticks": 23616,
          "time": 94.61529,
          "velocity": 0.952755905511811
        },
        {
          "duration": 0.8413453124999961,
          "durationTicks": 210,
          "midi": 63,
          "name": "D#4",
          "ticks": 23616,
          "time": 94.61529,
          "velocity": 0.9212598425196851
        },
        {
          "duration": 0.3124996874999937,
          "durationTicks": 78,
          "midi": 56,
          "name": "G#3",
          "ticks": 23712,
          "time": 94.999905,
          "velocity": 0.8582677165354331
        },
        {
          "duration": 4.575315937499994,
          "durationTicks": 1142,
          "midi": 39,
          "name": "D#2",
          "ticks": 23808,
          "time": 95.38452,
          "velocity": 0.952755905511811
        },
        {
          "duration": 4.591341562500006,
          "durationTicks": 1146,
          "midi": 51,
          "name": "D#3",
          "ticks": 23808,
          "time": 95.38452,
          "velocity": 0.9212598425196851
        },
        {
          "duration": 4.11057281250001,
          "durationTicks": 1026,
          "midi": 63,
          "name": "D#4",
          "ticks": 23904,
          "time": 95.76913499999999,
          "velocity": 0.8976377952755905
        },
        {
          "duration": 0.36057656250000036,
          "durationTicks": 90,
          "midi": 67,
          "name": "G4",
          "ticks": 24000,
          "time": 96.15375,
          "velocity": 0.9212598425196851
        },
        {
          "duration": 0.37660218749999785,
          "durationTicks": 94,
          "midi": 70,
          "name": "A#4",
          "ticks": 24096,
          "time": 96.538365,
          "velocity": 0.9448818897637795
        },
        {
          "duration": 0.472755937499997,
          "durationTicks": 118,
          "midi": 68,
          "name": "G#4",
          "ticks": 24192,
          "time": 96.92298,
          "velocity": 0.952755905511811
        },
        {
          "duration": 0.4006406249999941,
          "durationTicks": 100,
          "midi": 72,
          "name": "C5",
          "ticks": 24192,
          "time": 96.92298,
          "velocity": 0.9133858267716536
        },
        {
          "duration": 0.4166662500000058,
          "durationTicks": 104,
          "midi": 75,
          "name": "D#5",
          "ticks": 24288,
          "time": 97.30759499999999,
          "velocity": 0.8818897637795275
        },
        {
          "duration": 0.440704687500002,
          "durationTicks": 110,
          "midi": 67,
          "name": "G4",
          "ticks": 24384,
          "time": 97.69221,
          "velocity": 0.9133858267716536
        },
        {
          "duration": 0.48076874999999575,
          "durationTicks": 120,
          "midi": 70,
          "name": "A#4",
          "ticks": 24384,
          "time": 97.69221,
          "velocity": 0.9291338582677166
        },
        {
          "duration": 0.42467906250000453,
          "durationTicks": 106,
          "midi": 75,
          "name": "D#5",
          "ticks": 24480,
          "time": 98.076825,
          "velocity": 0.9133858267716536
        },
        {
          "duration": 0.46474312499999826,
          "durationTicks": 116,
          "midi": 66,
          "name": "F#4",
          "ticks": 24576,
          "time": 98.46144,
          "velocity": 0.8503937007874016
        },
        {
          "duration": 0.39262781249999534,
          "durationTicks": 98,
          "midi": 69,
          "name": "A4",
          "ticks": 24576,
          "time": 98.46144,
          "velocity": 0.9291338582677166
        },
        {
          "duration": 0.4006406250000083,
          "durationTicks": 100,
          "midi": 75,
          "name": "D#5",
          "ticks": 24672,
          "time": 98.84605499999999,
          "velocity": 0.937007874015748
        },
        {
          "duration": 0.6089737500000041,
          "durationTicks": 152,
          "midi": 65,
          "name": "F4",
          "ticks": 24768,
          "time": 99.23066999999999,
          "velocity": 0.937007874015748
        },
        {
          "duration": 0.49679437500000745,
          "durationTicks": 124,
          "midi": 68,
          "name": "G#4",
          "ticks": 24768,
          "time": 99.23066999999999,
          "velocity": 0.9448818897637795
        },
        {
          "duration": 0.2804484374999987,
          "durationTicks": 70,
          "midi": 75,
          "name": "D#5",
          "ticks": 24864,
          "time": 99.615285,
          "velocity": 0.952755905511811
        },
        {
          "duration": 2.8605740624999925,
          "durationTicks": 714,
          "midi": 34,
          "name": "A#1",
          "ticks": 24960,
          "time": 99.9999,
          "velocity": 0.952755905511811
        },
        {
          "duration": 5.8814043750000025,
          "durationTicks": 1468,
          "midi": 46,
          "name": "A#2",
          "ticks": 24960,
          "time": 99.9999,
          "velocity": 0.968503937007874
        },
        {
          "duration": 0.5208328125000037,
          "durationTicks": 130,
          "midi": 58,
          "name": "A#3",
          "ticks": 24960,
          "time": 99.9999,
          "velocity": 0.937007874015748
        },
        {
          "duration": 1.2740371874999994,
          "durationTicks": 318,
          "midi": 53,
          "name": "F3",
          "ticks": 25056,
          "time": 100.384515,
          "velocity": 0.905511811023622
        },
        {
          "duration": 1.9471134375000076,
          "durationTicks": 486,
          "midi": 58,
          "name": "A#3",
          "ticks": 25152,
          "time": 100.76912999999999,
          "velocity": 0.9212598425196851
        },
        {
          "duration": 1.2900628124999969,
          "durationTicks": 322,
          "midi": 62,
          "name": "D4",
          "ticks": 25248,
          "time": 101.153745,
          "velocity": 0.905511811023622
        },
        {
          "duration": 2.7243562499999854,
          "durationTicks": 680,
          "midi": 67,
          "name": "G4",
          "ticks": 25344,
          "time": 101.53836,
          "velocity": 0.9133858267716536
        },
        {
          "duration": 1.6105753125000035,
          "durationTicks": 402,
          "midi": 79,
          "name": "G5",
          "ticks": 25344,
          "time": 101.53836,
          "velocity": 0.9133858267716536
        },
        {
          "duration": 0.4326918750000033,
          "durationTicks": 108,
          "midi": 53,
          "name": "F3",
          "ticks": 25440,
          "time": 101.922975,
          "velocity": 0.7952755905511811
        },
        {
          "duration": 0.6971146875000045,
          "durationTicks": 174,
          "midi": 65,
          "name": "F4",
          "ticks": 25536,
          "time": 102.30758999999999,
          "velocity": 0.9212598425196851
        },
        {
          "duration": 0.7291659374999995,
          "durationTicks": 182,
          "midi": 77,
          "name": "F5",
          "ticks": 25536,
          "time": 102.30758999999999,
          "velocity": 0.9291338582677166
        },
        {
          "duration": 0.43269187499998907,
          "durationTicks": 108,
          "midi": 53,
          "name": "F3",
          "ticks": 25632,
          "time": 102.692205,
          "velocity": 0.84251968503937
        },
        {
          "duration": 2.7964715624999883,
          "durationTicks": 698,
          "midi": 34,
          "name": "A#1",
          "ticks": 25728,
          "time": 103.07682,
          "velocity": 0.968503937007874
        },
        {
          "duration": 0.4567303124999995,
          "durationTicks": 114,
          "midi": 58,
          "name": "A#3",
          "ticks": 25728,
          "time": 103.07682,
          "velocity": 0.9291338582677166
        },
        {
          "duration": 0.44871750000000077,
          "durationTicks": 112,
          "midi": 62,
          "name": "D4",
          "ticks": 25728,
          "time": 103.07682,
          "velocity": 0.968503937007874
        },
        {
          "duration": 1.2419859375000044,
          "durationTicks": 310,
          "midi": 53,
          "name": "F3",
          "ticks": 25824,
          "time": 103.461435,
          "velocity": 0.8188976377952756
        },
        {
          "duration": 1.9070493749999997,
          "durationTicks": 476,
          "midi": 58,
          "name": "A#3",
          "ticks": 25920,
          "time": 103.84604999999999,
          "velocity": 0.889763779527559
        },
        {
          "duration": 0.8894221874999886,
          "durationTicks": 222,
          "midi": 62,
          "name": "D4",
          "ticks": 26016,
          "time": 104.230665,
          "velocity": 0.9133858267716536
        },
        {
          "duration": 1.6105753125000035,
          "durationTicks": 402,
          "midi": 67,
          "name": "G4",
          "ticks": 26112,
          "time": 104.61528,
          "velocity": 0.9133858267716536
        },
        {
          "duration": 1.6105753125000035,
          "durationTicks": 402,
          "midi": 79,
          "name": "G5",
          "ticks": 26112,
          "time": 104.61528,
          "velocity": 0.9133858267716536
        },
        {
          "duration": 0.48076874999999575,
          "durationTicks": 120,
          "midi": 53,
          "name": "F3",
          "ticks": 26208,
          "time": 104.999895,
          "velocity": 0.8503937007874016
        },
        {
          "duration": 0.7291659374999995,
          "durationTicks": 182,
          "midi": 65,
          "name": "F4",
          "ticks": 26304,
          "time": 105.38450999999999,
          "velocity": 0.9291338582677166
        },
        {
          "duration": 0.7291659374999995,
          "durationTicks": 182,
          "midi": 77,
          "name": "F5",
          "ticks": 26304,
          "time": 105.38450999999999,
          "velocity": 0.9291338582677166
        },
        {
          "duration": 0.40865343749999283,
          "durationTicks": 102,
          "midi": 53,
          "name": "F3",
          "ticks": 26400,
          "time": 105.769125,
          "velocity": 0.905511811023622
        },
        {
          "duration": 3.0849328124999857,
          "durationTicks": 770,
          "midi": 34,
          "name": "A#1",
          "ticks": 26496,
          "time": 106.15374,
          "velocity": 0.968503937007874
        },
        {
          "duration": 3.0608943749999895,
          "durationTicks": 764,
          "midi": 46,
          "name": "A#2",
          "ticks": 26496,
          "time": 106.15374,
          "velocity": 0.968503937007874
        },
        {
          "duration": 0.3285253125000054,
          "durationTicks": 82,
          "midi": 58,
          "name": "A#3",
          "ticks": 26496,
          "time": 106.15374,
          "velocity": 0.9606299212598425
        },
        {
          "duration": 0.7772428124999919,
          "durationTicks": 194,
          "midi": 62,
          "name": "D4",
          "ticks": 26496,
          "time": 106.15374,
          "velocity": 0.9606299212598425
        },
        {
          "duration": 1.193909062500012,
          "durationTicks": 298,
          "midi": 53,
          "name": "F3",
          "ticks": 26592,
          "time": 106.538355,
          "velocity": 0.889763779527559
        },
        {
          "duration": 1.9471134375000076,
          "durationTicks": 486,
          "midi": 58,
          "name": "A#3",
          "ticks": 26688,
          "time": 106.92296999999999,
          "velocity": 0.905511811023622
        },
        {
          "duration": 1.185896249999999,
          "durationTicks": 296,
          "midi": 62,
          "name": "D4",
          "ticks": 26784,
          "time": 107.30758499999999,
          "velocity": 0.905511811023622
        },
        {
          "duration": 1.6025625000000048,
          "durationTicks": 400,
          "midi": 67,
          "name": "G4",
          "ticks": 26880,
          "time": 107.6922,
          "velocity": 0.9212598425196851
        },
        {
          "duration": 1.6105753124999893,
          "durationTicks": 402,
          "midi": 79,
          "name": "G5",
          "ticks": 26880,
          "time": 107.6922,
          "velocity": 0.9133858267716536
        },
        {
          "duration": 0.6009609375000053,
          "durationTicks": 150,
          "midi": 53,
          "name": "F3",
          "ticks": 26976,
          "time": 108.076815,
          "velocity": 0.905511811023622
        },
        {
          "duration": 0.8012812500000024,
          "durationTicks": 200,
          "midi": 65,
          "name": "F4",
          "ticks": 27072,
          "time": 108.46143,
          "velocity": 0.9448818897637795
        },
        {
          "duration": 0.7291659374999995,
          "durationTicks": 182,
          "midi": 77,
          "name": "F5",
          "ticks": 27072,
          "time": 108.46143,
          "velocity": 0.9291338582677166
        },
        {
          "duration": 0.4006406250000083,
          "durationTicks": 100,
          "midi": 53,
          "name": "F3",
          "ticks": 27168,
          "time": 108.84604499999999,
          "velocity": 0.8976377952755905
        },
        {
          "duration": 3.0929456249999987,
          "durationTicks": 772,
          "midi": 43,
          "name": "G2",
          "ticks": 27264,
          "time": 109.23066,
          "velocity": 0.9606299212598425
        },
        {
          "duration": 0.4407046874999878,
          "durationTicks": 110,
          "midi": 58,
          "name": "A#3",
          "ticks": 27264,
          "time": 109.23066,
          "velocity": 0.9448818897637795
        },
        {
          "duration": 0.8493581249999949,
          "durationTicks": 212,
          "midi": 62,
          "name": "D4",
          "ticks": 27264,
          "time": 109.23066,
          "velocity": 0.968503937007874
        },
        {
          "duration": 1.3221140624999919,
          "durationTicks": 330,
          "midi": 55,
          "name": "G3",
          "ticks": 27360,
          "time": 109.615275,
          "velocity": 0.9133858267716536
        },
        {
          "duration": 2.011215937500012,
          "durationTicks": 502,
          "midi": 58,
          "name": "A#3",
          "ticks": 27456,
          "time": 109.99989,
          "velocity": 0.9212598425196851
        },
        {
          "duration": 1.1698706250000157,
          "durationTicks": 292,
          "midi": 62,
          "name": "D4",
          "ticks": 27552,
          "time": 110.38450499999999,
          "velocity": 0.9291338582677166
        },
        {
          "duration": 0.4166662499999916,
          "durationTicks": 104,
          "midi": 69,
          "name": "A4",
          "ticks": 27648,
          "time": 110.76912,
          "velocity": 0.9212598425196851
        },
        {
          "duration": 1.6105753124999893,
          "durationTicks": 402,
          "midi": 81,
          "name": "A5",
          "ticks": 27648,
          "time": 110.76912,
          "velocity": 0.9133858267716536
        },
        {
          "duration": 1.121793750000009,
          "durationTicks": 280,
          "midi": 55,
          "name": "G3",
          "ticks": 27744,
          "time": 111.153735,
          "velocity": 0.9212598425196851
        },
        {
          "duration": 0.8493581249999949,
          "durationTicks": 212,
          "midi": 67,
          "name": "G4",
          "ticks": 27840,
          "time": 111.53835,
          "velocity": 0.952755905511811
        },
        {
          "duration": 0.7291659374999995,
          "durationTicks": 182,
          "midi": 79,
          "name": "G5",
          "ticks": 27840,
          "time": 111.53835,
          "velocity": 0.9291338582677166
        },
        {
          "duration": 0.12820499999999413,
          "durationTicks": 32,
          "midi": 62,
          "name": "D4",
          "ticks": 27936,
          "time": 111.92296499999999,
          "velocity": 0.9212598425196851
        },
        {
          "duration": 2.8926253124999874,
          "durationTicks": 722,
          "midi": 36,
          "name": "C2",
          "ticks": 28032,
          "time": 112.30758,
          "velocity": 0.968503937007874
        },
        {
          "duration": 2.852561250000008,
          "durationTicks": 712,
          "midi": 48,
          "name": "C3",
          "ticks": 28032,
          "time": 112.30758,
          "velocity": 0.968503937007874
        },
        {
          "duration": 0.3525637500000016,
          "durationTicks": 88,
          "midi": 60,
          "name": "C4",
          "ticks": 28032,
          "time": 112.30758,
          "velocity": 0.968503937007874
        },
        {
          "duration": 0.5448712499999999,
          "durationTicks": 136,
          "midi": 63,
          "name": "D#4",
          "ticks": 28032,
          "time": 112.30758,
          "velocity": 0.968503937007874
        },
        {
          "duration": 1.2660243750000006,
          "durationTicks": 316,
          "midi": 60,
          "name": "C4",
          "ticks": 28128,
          "time": 112.692195,
          "velocity": 0.937007874015748
        },
        {
          "duration": 1.7868571874999901,
          "durationTicks": 446,
          "midi": 63,
          "name": "D#4",
          "ticks": 28224,
          "time": 113.07681,
          "velocity": 0.9212598425196851
        },
        {
          "duration": 1.2179475000000082,
          "durationTicks": 304,
          "midi": 67,
          "name": "G4",
          "ticks": 28320,
          "time": 113.46142499999999,
          "velocity": 0.8582677165354331
        },
        {
          "duration": 0.4407046874999878,
          "durationTicks": 110,
          "midi": 74,
          "name": "D5",
          "ticks": 28416,
          "time": 113.84604,
          "velocity": 0.9133858267716536
        },
        {
          "duration": 1.6105753124999893,
          "durationTicks": 402,
          "midi": 86,
          "name": "D6",
          "ticks": 28416,
          "time": 113.84604,
          "velocity": 0.9133858267716536
        },
        {
          "duration": 1.2019218749999965,
          "durationTicks": 300,
          "midi": 60,
          "name": "C4",
          "ticks": 28512,
          "time": 114.230655,
          "velocity": 0.937007874015748
        },
        {
          "duration": 2.2435874999999896,
          "durationTicks": 560,
          "midi": 72,
          "name": "C5",
          "ticks": 28608,
          "time": 114.61527,
          "velocity": 0.952755905511811
        },
        {
          "duration": 0.7291659374999995,
          "durationTicks": 182,
          "midi": 84,
          "name": "C6",
          "ticks": 28608,
          "time": 114.61527,
          "velocity": 0.9291338582677166
        },
        {
          "duration": 0.7291659374999995,
          "durationTicks": 182,
          "midi": 63,
          "name": "D#4",
          "ticks": 28704,
          "time": 114.99988499999999,
          "velocity": 0.952755905511811
        },
        {
          "duration": 0.448717500000015,
          "durationTicks": 112,
          "midi": 36,
          "name": "C2",
          "ticks": 28800,
          "time": 115.38449999999999,
          "velocity": 0.968503937007874
        },
        {
          "duration": 1.5064087500000198,
          "durationTicks": 376,
          "midi": 48,
          "name": "C3",
          "ticks": 28800,
          "time": 115.38449999999999,
          "velocity": 0.968503937007874
        },
        {
          "duration": 0.7291659374999995,
          "durationTicks": 182,
          "midi": 67,
          "name": "G4",
          "ticks": 28800,
          "time": 115.38449999999999,
          "velocity": 0.968503937007874
        },
        {
          "duration": 0.745191562499997,
          "durationTicks": 186,
          "midi": 60,
          "name": "C4",
          "ticks": 28896,
          "time": 115.769115,
          "velocity": 0.8976377952755905
        },
        {
          "duration": 0.23237156250000623,
          "durationTicks": 58,
          "midi": 36,
          "name": "C2",
          "ticks": 28944,
          "time": 115.9614225,
          "velocity": 0.7795275590551181
        },
        {
          "duration": 0.3846149999999966,
          "durationTicks": 96,
          "midi": 63,
          "name": "D#4",
          "ticks": 28992,
          "time": 116.15373,
          "velocity": 0.9291338582677166
        },
        {
          "duration": 0.36057656250000036,
          "durationTicks": 90,
          "midi": 67,
          "name": "G4",
          "ticks": 29088,
          "time": 116.53834499999999,
          "velocity": 0.9212598425196851
        },
        {
          "duration": 1.5705112499999956,
          "durationTicks": 392,
          "midi": 41,
          "name": "F2",
          "ticks": 29184,
          "time": 116.92295999999999,
          "velocity": 0.889763779527559
        },
        {
          "duration": 1.5384600000000006,
          "durationTicks": 384,
          "midi": 53,
          "name": "F3",
          "ticks": 29184,
          "time": 116.92295999999999,
          "velocity": 0.952755905511811
        },
        {
          "duration": 1.1057681250000115,
          "durationTicks": 276,
          "midi": 69,
          "name": "A4",
          "ticks": 29184,
          "time": 116.92295999999999,
          "velocity": 0.968503937007874
        },
        {
          "duration": 0.7211531250000007,
          "durationTicks": 180,
          "midi": 63,
          "name": "D#4",
          "ticks": 29280,
          "time": 117.307575,
          "velocity": 0.9212598425196851
        },
        {
          "duration": 0.42467906250000453,
          "durationTicks": 106,
          "midi": 65,
          "name": "F4",
          "ticks": 29376,
          "time": 117.69219,
          "velocity": 0.937007874015748
        },
        {
          "duration": 0.11217937500001085,
          "durationTicks": 28,
          "midi": 72,
          "name": "C5",
          "ticks": 29472,
          "time": 118.076805,
          "velocity": 0.937007874015748
        },
        {
          "duration": 3.0849328125,
          "durationTicks": 770,
          "midi": 46,
          "name": "A#2",
          "ticks": 29568,
          "time": 118.46141999999999,
          "velocity": 0.952755905511811
        },
        {
          "duration": 0.4567303124999995,
          "durationTicks": 114,
          "midi": 58,
          "name": "A#3",
          "ticks": 29568,
          "time": 118.46141999999999,
          "velocity": 0.937007874015748
        },
        {
          "duration": 0.8493581249999949,
          "durationTicks": 212,
          "midi": 62,
          "name": "D4",
          "ticks": 29568,
          "time": 118.46141999999999,
          "velocity": 0.9606299212598425
        },
        {
          "duration": 1.209934687499981,
          "durationTicks": 302,
          "midi": 53,
          "name": "F3",
          "ticks": 29664,
          "time": 118.846035,
          "velocity": 0.889763779527559
        },
        {
          "duration": 1.939100625000009,
          "durationTicks": 484,
          "midi": 58,
          "name": "A#3",
          "ticks": 29760,
          "time": 119.23065,
          "velocity": 0.9291338582677166
        },
        {
          "duration": 1.1378193749999923,
          "durationTicks": 284,
          "midi": 62,
          "name": "D4",
          "ticks": 29856,
          "time": 119.615265,
          "velocity": 0.9448818897637795
        },
        {
          "duration": 1.6105753125000035,
          "durationTicks": 402,
          "midi": 67,
          "name": "G4",
          "ticks": 29952,
          "time": 119.99987999999999,
          "velocity": 0.9448818897637795
        },
        {
          "duration": 1.6105753125000035,
          "durationTicks": 402,
          "midi": 79,
          "name": "G5",
          "ticks": 29952,
          "time": 119.99987999999999,
          "velocity": 0.9133858267716536
        },
        {
          "duration": 0.43269187499998907,
          "durationTicks": 108,
          "midi": 53,
          "name": "F3",
          "ticks": 30048,
          "time": 120.384495,
          "velocity": 0.9133858267716536
        },
        {
          "duration": 0.7532043749999957,
          "durationTicks": 188,
          "midi": 65,
          "name": "F4",
          "ticks": 30144,
          "time": 120.76911,
          "velocity": 0.937007874015748
        },
        {
          "duration": 0.7291659374999853,
          "durationTicks": 182,
          "midi": 77,
          "name": "F5",
          "ticks": 30144,
          "time": 120.76911,
          "velocity": 0.9291338582677166
        },
        {
          "duration": 0.34455093749998866,
          "durationTicks": 86,
          "midi": 53,
          "name": "F3",
          "ticks": 30240,
          "time": 121.153725,
          "velocity": 0.8818897637795275
        },
        {
          "duration": 3.092945625000013,
          "durationTicks": 772,
          "midi": 43,
          "name": "G2",
          "ticks": 30336,
          "time": 121.53833999999999,
          "velocity": 0.9448818897637795
        },
        {
          "duration": 0.448717500000015,
          "durationTicks": 112,
          "midi": 58,
          "name": "A#3",
          "ticks": 30336,
          "time": 121.53833999999999,
          "velocity": 0.9606299212598425
        },
        {
          "duration": 0.9054478125000145,
          "durationTicks": 226,
          "midi": 62,
          "name": "D4",
          "ticks": 30336,
          "time": 121.53833999999999,
          "velocity": 0.968503937007874
        },
        {
          "duration": 0.008012812499984534,
          "durationTicks": 2,
          "midi": 60,
          "name": "C4",
          "ticks": 30358,
          "time": 121.6264809375,
          "velocity": 0.8582677165354331
        },
        {
          "duration": 1.1939090624999977,
          "durationTicks": 298,
          "midi": 55,
          "name": "G3",
          "ticks": 30432,
          "time": 121.922955,
          "velocity": 0.9212598425196851
        },
        {
          "duration": 1.858972499999993,
          "durationTicks": 464,
          "midi": 58,
          "name": "A#3",
          "ticks": 30528,
          "time": 122.30757,
          "velocity": 0.952755905511811
        },
        {
          "duration": 1.290062812500011,
          "durationTicks": 322,
          "midi": 62,
          "name": "D4",
          "ticks": 30624,
          "time": 122.692185,
          "velocity": 0.9448818897637795
        },
        {
          "duration": 0.40865343750000704,
          "durationTicks": 102,
          "midi": 69,
          "name": "A4",
          "ticks": 30720,
          "time": 123.07679999999999,
          "velocity": 0.9212598425196851
        },
        {
          "duration": 1.6105753125000035,
          "durationTicks": 402,
          "midi": 81,
          "name": "A5",
          "ticks": 30720,
          "time": 123.07679999999999,
          "velocity": 0.9133858267716536
        },
        {
          "duration": 0.4166662500000058,
          "durationTicks": 104,
          "midi": 55,
          "name": "G3",
          "ticks": 30816,
          "time": 123.46141499999999,
          "velocity": 0.952755905511811
        },
        {
          "duration": 2.3798053124999967,
          "durationTicks": 594,
          "midi": 67,
          "name": "G4",
          "ticks": 30912,
          "time": 123.84603,
          "velocity": 0.9448818897637795
        },
        {
          "duration": 0.7291659374999853,
          "durationTicks": 182,
          "midi": 79,
          "name": "G5",
          "ticks": 30912,
          "time": 123.84603,
          "velocity": 0.9291338582677166
        },
        {
          "duration": 0.34455093749998866,
          "durationTicks": 86,
          "midi": 55,
          "name": "G3",
          "ticks": 31008,
          "time": 124.230645,
          "velocity": 0.9212598425196851
        },
        {
          "duration": 1.3862165625000102,
          "durationTicks": 346,
          "midi": 48,
          "name": "C3",
          "ticks": 31104,
          "time": 124.61525999999999,
          "velocity": 0.968503937007874
        },
        {
          "duration": 0.448717500000015,
          "durationTicks": 112,
          "midi": 60,
          "name": "C4",
          "ticks": 31104,
          "time": 124.61525999999999,
          "velocity": 0.968503937007874
        },
        {
          "duration": 0.4727559375000112,
          "durationTicks": 118,
          "midi": 63,
          "name": "D#4",
          "ticks": 31104,
          "time": 124.61525999999999,
          "velocity": 0.9606299212598425
        },
        {
          "duration": 0.7451915625000112,
          "durationTicks": 186,
          "midi": 55,
          "name": "G3",
          "ticks": 31200,
          "time": 124.99987499999999,
          "velocity": 0.9212598425196851
        },
        {
          "duration": 0.4887815624999945,
          "durationTicks": 122,
          "midi": 60,
          "name": "C4",
          "ticks": 31296,
          "time": 125.38449,
          "velocity": 0.9291338582677166
        },
        {
          "duration": 0.24038437500000498,
          "durationTicks": 60,
          "midi": 47,
          "name": "B2",
          "ticks": 31392,
          "time": 125.769105,
          "velocity": 0.9606299212598425
        },
        {
          "duration": 0.3525637500000016,
          "durationTicks": 88,
          "midi": 55,
          "name": "G3",
          "ticks": 31392,
          "time": 125.769105,
          "velocity": 0.937007874015748
        },
        {
          "duration": 0.2483971874999895,
          "durationTicks": 62,
          "midi": 63,
          "name": "D#4",
          "ticks": 31392,
          "time": 125.769105,
          "velocity": 0.952755905511811
        },
        {
          "duration": 0.7371787500000124,
          "durationTicks": 184,
          "midi": 46,
          "name": "A#2",
          "ticks": 31488,
          "time": 126.15371999999999,
          "velocity": 0.968503937007874
        },
        {
          "duration": 0.3685893749999991,
          "durationTicks": 92,
          "midi": 58,
          "name": "A#3",
          "ticks": 31488,
          "time": 126.15371999999999,
          "velocity": 0.968503937007874
        },
        {
          "duration": 0.4567303124999995,
          "durationTicks": 114,
          "midi": 63,
          "name": "D#4",
          "ticks": 31488,
          "time": 126.15371999999999,
          "velocity": 0.9606299212598425
        },
        {
          "duration": 0.616986562500017,
          "durationTicks": 154,
          "midi": 67,
          "name": "G4",
          "ticks": 31536,
          "time": 126.34602749999999,
          "velocity": 0.14173228346456693
        },
        {
          "duration": 0.440704687500002,
          "durationTicks": 110,
          "midi": 55,
          "name": "G3",
          "ticks": 31584,
          "time": 126.53833499999999,
          "velocity": 0.9212598425196851
        },
        {
          "duration": 0.7772428124999919,
          "durationTicks": 194,
          "midi": 45,
          "name": "A2",
          "ticks": 31680,
          "time": 126.92295,
          "velocity": 0.968503937007874
        },
        {
          "duration": 0.3685893749999849,
          "durationTicks": 92,
          "midi": 57,
          "name": "A3",
          "ticks": 31680,
          "time": 126.92295,
          "velocity": 0.968503937007874
        },
        {
          "duration": 0.536858437499987,
          "durationTicks": 134,
          "midi": 63,
          "name": "D#4",
          "ticks": 31680,
          "time": 126.92295,
          "velocity": 0.968503937007874
        },
        {
          "duration": 0.3846149999999966,
          "durationTicks": 96,
          "midi": 55,
          "name": "G3",
          "ticks": 31776,
          "time": 127.307565,
          "velocity": 0.9291338582677166
        },
        {
          "duration": 1.4983959375000069,
          "durationTicks": 374,
          "midi": 44,
          "name": "G#2",
          "ticks": 31872,
          "time": 127.69218,
          "velocity": 0.968503937007874
        },
        {
          "duration": 0.3846150000000108,
          "durationTicks": 96,
          "midi": 58,
          "name": "A#3",
          "ticks": 31872,
          "time": 127.69218,
          "velocity": 0.968503937007874
        },
        {
          "duration": 0.5769225000000091,
          "durationTicks": 144,
          "midi": 63,
          "name": "D#4",
          "ticks": 31872,
          "time": 127.69218,
          "velocity": 0.968503937007874
        },
        {
          "duration": 0.34455093749997445,
          "durationTicks": 86,
          "midi": 56,
          "name": "G#3",
          "ticks": 31968,
          "time": 128.076795,
          "velocity": 0.9448818897637795
        },
        {
          "duration": 0.7692299999999932,
          "durationTicks": 192,
          "midi": 60,
          "name": "C4",
          "ticks": 32064,
          "time": 128.46141,
          "velocity": 0.952755905511811
        },
        {
          "duration": 0.4887815624999803,
          "durationTicks": 122,
          "midi": 63,
          "name": "D#4",
          "ticks": 32064,
          "time": 128.46141,
          "velocity": 0.9448818897637795
        },
        {
          "duration": 0.36057656250000036,
          "durationTicks": 90,
          "midi": 56,
          "name": "G#3",
          "ticks": 32160,
          "time": 128.846025,
          "velocity": 0.9133858267716536
        },
        {
          "duration": 0.8012812499999882,
          "durationTicks": 200,
          "midi": 43,
          "name": "G2",
          "ticks": 32256,
          "time": 129.23064,
          "velocity": 0.9606299212598425
        },
        {
          "duration": 0.39262781249999534,
          "durationTicks": 98,
          "midi": 58,
          "name": "A#3",
          "ticks": 32256,
          "time": 129.23064,
          "velocity": 0.968503937007874
        },
        {
          "duration": 0.6570506249999823,
          "durationTicks": 164,
          "midi": 63,
          "name": "D#4",
          "ticks": 32256,
          "time": 129.23064,
          "velocity": 0.968503937007874
        },
        {
          "duration": 0.27243562499998575,
          "durationTicks": 68,
          "midi": 55,
          "name": "G3",
          "ticks": 32352,
          "time": 129.615255,
          "velocity": 0.889763779527559
        },
        {
          "duration": 0.7612171875000229,
          "durationTicks": 190,
          "midi": 41,
          "name": "F2",
          "ticks": 32448,
          "time": 129.99987,
          "velocity": 0.9606299212598425
        },
        {
          "duration": 0.4166662499999916,
          "durationTicks": 104,
          "midi": 56,
          "name": "G#3",
          "ticks": 32448,
          "time": 129.99987,
          "velocity": 0.968503937007874
        },
        {
          "duration": 0.5448712500000283,
          "durationTicks": 136,
          "midi": 63,
          "name": "D#4",
          "ticks": 32448,
          "time": 129.99987,
          "velocity": 0.968503937007874
        },
        {
          "duration": 0.36057656250000036,
          "durationTicks": 90,
          "midi": 53,
          "name": "F3",
          "ticks": 32544,
          "time": 130.38448499999998,
          "velocity": 0.9212598425196851
        },
        {
          "duration": 2.3477540625000017,
          "durationTicks": 586,
          "midi": 39,
          "name": "D#2",
          "ticks": 32640,
          "time": 130.7691,
          "velocity": 0.968503937007874
        },
        {
          "duration": 2.259613124999987,
          "durationTicks": 564,
          "midi": 51,
          "name": "D#3",
          "ticks": 32640,
          "time": 130.7691,
          "velocity": 0.9606299212598425
        },
        {
          "duration": 0.46474312499998405,
          "durationTicks": 116,
          "midi": 58,
          "name": "A#3",
          "ticks": 32640,
          "time": 130.7691,
          "velocity": 0.968503937007874
        },
        {
          "duration": 0.49679437500000745,
          "durationTicks": 124,
          "midi": 63,
          "name": "D#4",
          "ticks": 32640,
          "time": 130.7691,
          "velocity": 0.968503937007874
        },
        {
          "duration": 0.44871749999998656,
          "durationTicks": 112,
          "midi": 67,
          "name": "G4",
          "ticks": 32640,
          "time": 130.7691,
          "velocity": 0.968503937007874
        },
        {
          "duration": 0.4567303124999853,
          "durationTicks": 114,
          "midi": 55,
          "name": "G3",
          "ticks": 32736,
          "time": 131.153715,
          "velocity": 0.7322834645669292
        },
        {
          "duration": 0.4727559375000112,
          "durationTicks": 118,
          "midi": 58,
          "name": "A#3",
          "ticks": 32832,
          "time": 131.53833,
          "velocity": 0.968503937007874
        },
        {
          "duration": 0.5048071875000062,
          "durationTicks": 126,
          "midi": 63,
          "name": "D#4",
          "ticks": 32832,
          "time": 131.53833,
          "velocity": 0.9606299212598425
        },
        {
          "duration": 0.4006406249999941,
          "durationTicks": 100,
          "midi": 67,
          "name": "G4",
          "ticks": 32832,
          "time": 131.53833,
          "velocity": 0.968503937007874
        },
        {
          "duration": 0.448717500000015,
          "durationTicks": 112,
          "midi": 55,
          "name": "G3",
          "ticks": 32928,
          "time": 131.922945,
          "velocity": 0.9212598425196851
        },
        {
          "duration": 0.448717500000015,
          "durationTicks": 112,
          "midi": 58,
          "name": "A#3",
          "ticks": 33024,
          "time": 132.30756,
          "velocity": 0.9606299212598425
        },
        {
          "duration": 0.6009609374999911,
          "durationTicks": 150,
          "midi": 63,
          "name": "D#4",
          "ticks": 33024,
          "time": 132.30756,
          "velocity": 0.952755905511811
        },
        {
          "duration": 0.37660218749999785,
          "durationTicks": 94,
          "midi": 67,
          "name": "G4",
          "ticks": 33024,
          "time": 132.30756,
          "velocity": 0.968503937007874
        },
        {
          "duration": 0.3124996875000079,
          "durationTicks": 78,
          "midi": 55,
          "name": "G3",
          "ticks": 33120,
          "time": 132.692175,
          "velocity": 0.9291338582677166
        },
        {
          "duration": 0.7532043749999957,
          "durationTicks": 188,
          "midi": 38,
          "name": "D2",
          "ticks": 33216,
          "time": 133.07679,
          "velocity": 0.9606299212598425
        },
        {
          "duration": 0.6570506250000108,
          "durationTicks": 164,
          "midi": 50,
          "name": "D3",
          "ticks": 33216,
          "time": 133.07679,
          "velocity": 0.968503937007874
        },
        {
          "duration": 0.3846149999999966,
          "durationTicks": 96,
          "midi": 58,
          "name": "A#3",
          "ticks": 33216,
          "time": 133.07679,
          "velocity": 0.968503937007874
        },
        {
          "duration": 0.3445509375000029,
          "durationTicks": 86,
          "midi": 62,
          "name": "D4",
          "ticks": 33216,
          "time": 133.07679,
          "velocity": 0.968503937007874
        },
        {
          "duration": 0.8092940625000153,
          "durationTicks": 202,
          "midi": 65,
          "name": "F4",
          "ticks": 33216,
          "time": 133.07679,
          "velocity": 0.968503937007874
        },
        {
          "duration": 0.3285253125000054,
          "durationTicks": 82,
          "midi": 53,
          "name": "F3",
          "ticks": 33312,
          "time": 133.46140499999998,
          "velocity": 0.9212598425196851
        },
        {
          "duration": 2.548074375000027,
          "durationTicks": 636,
          "midi": 36,
          "name": "C2",
          "ticks": 33408,
          "time": 133.84601999999998,
          "velocity": 0.968503937007874
        },
        {
          "duration": 2.6362153125000134,
          "durationTicks": 658,
          "midi": 48,
          "name": "C3",
          "ticks": 33408,
          "time": 133.84601999999998,
          "velocity": 0.968503937007874
        },
        {
          "duration": 0.2564100000000167,
          "durationTicks": 64,
          "midi": 60,
          "name": "C4",
          "ticks": 33408,
          "time": 133.84601999999998,
          "velocity": 0.968503937007874
        },
        {
          "duration": 0.448717500000015,
          "durationTicks": 112,
          "midi": 63,
          "name": "D#4",
          "ticks": 33408,
          "time": 133.84601999999998,
          "velocity": 0.968503937007874
        },
        {
          "duration": 0.44871749999998656,
          "durationTicks": 112,
          "midi": 60,
          "name": "C4",
          "ticks": 33504,
          "time": 134.230635,
          "velocity": 0.9133858267716536
        },
        {
          "duration": 0.6490378124999836,
          "durationTicks": 162,
          "midi": 63,
          "name": "D#4",
          "ticks": 33600,
          "time": 134.61525,
          "velocity": 0.952755905511811
        },
        {
          "duration": 0.40865343749999283,
          "durationTicks": 102,
          "midi": 67,
          "name": "G4",
          "ticks": 33696,
          "time": 134.999865,
          "velocity": 0.9212598425196851
        },
        {
          "duration": 0.4006406249999941,
          "durationTicks": 100,
          "midi": 62,
          "name": "D4",
          "ticks": 33792,
          "time": 135.38448,
          "velocity": 0.937007874015748
        },
        {
          "duration": 0.5208328125000037,
          "durationTicks": 130,
          "midi": 74,
          "name": "D5",
          "ticks": 33792,
          "time": 135.38448,
          "velocity": 0.9291338582677166
        },
        {
          "duration": 1.0576912500000049,
          "durationTicks": 264,
          "midi": 63,
          "name": "D#4",
          "ticks": 33888,
          "time": 135.769095,
          "velocity": 0.937007874015748
        },
        {
          "duration": 0.9294862500000249,
          "durationTicks": 232,
          "midi": 60,
          "name": "C4",
          "ticks": 33984,
          "time": 136.15371,
          "velocity": 0.9133858267716536
        },
        {
          "duration": 1.2019218750000107,
          "durationTicks": 300,
          "midi": 72,
          "name": "C5",
          "ticks": 33984,
          "time": 136.15371,
          "velocity": 0.9606299212598425
        },
        {
          "duration": 0.32051250000000664,
          "durationTicks": 80,
          "midi": 67,
          "name": "G4",
          "ticks": 34080,
          "time": 136.538325,
          "velocity": 0.8976377952755905
        },
        {
          "duration": 1.2019218750000107,
          "durationTicks": 300,
          "midi": 41,
          "name": "F2",
          "ticks": 34176,
          "time": 136.92293999999998,
          "velocity": 0.9448818897637795
        },
        {
          "duration": 0.9775631250000174,
          "durationTicks": 244,
          "midi": 53,
          "name": "F3",
          "ticks": 34176,
          "time": 136.92293999999998,
          "velocity": 0.968503937007874
        },
        {
          "duration": 0.5769225000000233,
          "durationTicks": 144,
          "midi": 65,
          "name": "F4",
          "ticks": 34176,
          "time": 136.92293999999998,
          "velocity": 0.9606299212598425
        },
        {
          "duration": 0.4006406250000225,
          "durationTicks": 100,
          "midi": 68,
          "name": "G#4",
          "ticks": 34176,
          "time": 136.92293999999998,
          "velocity": 0.968503937007874
        },
        {
          "duration": 0.4246790624999903,
          "durationTicks": 106,
          "midi": 60,
          "name": "C4",
          "ticks": 34272,
          "time": 137.307555,
          "velocity": 0.9448818897637795
        },
        {
          "duration": 0.30448687500000915,
          "durationTicks": 76,
          "midi": 65,
          "name": "F4",
          "ticks": 34368,
          "time": 137.69217,
          "velocity": 0.968503937007874
        },
        {
          "duration": 0.6490378124999836,
          "durationTicks": 162,
          "midi": 68,
          "name": "G#4",
          "ticks": 34368,
          "time": 137.69217,
          "velocity": 0.952755905511811
        },
        {
          "duration": 1.3381396874999893,
          "durationTicks": 334,
          "midi": 72,
          "name": "C5",
          "ticks": 34368,
          "time": 137.69217,
          "velocity": 0.9448818897637795
        },
        {
          "duration": 0.40865343749999283,
          "durationTicks": 102,
          "midi": 40,
          "name": "E2",
          "ticks": 34464,
          "time": 138.076785,
          "velocity": 0.952755905511811
        },
        {
          "duration": 0.21634593749999453,
          "durationTicks": 54,
          "midi": 52,
          "name": "E3",
          "ticks": 34464,
          "time": 138.076785,
          "velocity": 0.905511811023622
        },
        {
          "duration": 0.6490378124999836,
          "durationTicks": 162,
          "midi": 60,
          "name": "C4",
          "ticks": 34464,
          "time": 138.076785,
          "velocity": 0.8818897637795275
        },
        {
          "duration": 0.25640999999998826,
          "durationTicks": 64,
          "midi": 64,
          "name": "E4",
          "ticks": 34464,
          "time": 138.076785,
          "velocity": 0.9606299212598425
        },
        {
          "duration": 0.8573709375000078,
          "durationTicks": 214,
          "midi": 39,
          "name": "D#2",
          "ticks": 34560,
          "time": 138.4614,
          "velocity": 0.9606299212598425
        },
        {
          "duration": 0.6730762500000083,
          "durationTicks": 168,
          "midi": 51,
          "name": "D#3",
          "ticks": 34560,
          "time": 138.4614,
          "velocity": 0.968503937007874
        },
        {
          "duration": 0.4407046874999878,
          "durationTicks": 110,
          "midi": 63,
          "name": "D#4",
          "ticks": 34560,
          "time": 138.4614,
          "velocity": 0.968503937007874
        },
        {
          "duration": 0.5288456250000024,
          "durationTicks": 132,
          "midi": 68,
          "name": "G#4",
          "ticks": 34560,
          "time": 138.4614,
          "velocity": 0.968503937007874
        },
        {
          "duration": 0.42467906250001874,
          "durationTicks": 106,
          "midi": 60,
          "name": "C4",
          "ticks": 34656,
          "time": 138.846015,
          "velocity": 0.7480314960629921
        },
        {
          "duration": 0.7291659374999995,
          "durationTicks": 182,
          "midi": 38,
          "name": "D2",
          "ticks": 34752,
          "time": 139.23063,
          "velocity": 0.9606299212598425
        },
        {
          "duration": 0.32051250000000664,
          "durationTicks": 80,
          "midi": 50,
          "name": "D3",
          "ticks": 34752,
          "time": 139.23063,
          "velocity": 0.968503937007874
        },
        {
          "duration": 0.4887815625000087,
          "durationTicks": 122,
          "midi": 62,
          "name": "D4",
          "ticks": 34752,
          "time": 139.23063,
          "velocity": 0.968503937007874
        },
        {
          "duration": 0.37660218749999785,
          "durationTicks": 94,
          "midi": 68,
          "name": "G#4",
          "ticks": 34752,
          "time": 139.23063,
          "velocity": 0.968503937007874
        },
        {
          "duration": 0.39262781249999534,
          "durationTicks": 98,
          "midi": 72,
          "name": "C5",
          "ticks": 34752,
          "time": 139.23063,
          "velocity": 0.968503937007874
        },
        {
          "duration": 0.3124996875000079,
          "durationTicks": 78,
          "midi": 60,
          "name": "C4",
          "ticks": 34848,
          "time": 139.615245,
          "velocity": 0.8661417322834646
        },
        {
          "duration": 2.716343437500001,
          "durationTicks": 678,
          "midi": 34,
          "name": "A#1",
          "ticks": 34944,
          "time": 139.99985999999998,
          "velocity": 0.952755905511811
        },
        {
          "duration": 2.7644203125000217,
          "durationTicks": 690,
          "midi": 46,
          "name": "A#2",
          "ticks": 34944,
          "time": 139.99985999999998,
          "velocity": 0.968503937007874
        },
        {
          "duration": 0.46474312500001247,
          "durationTicks": 116,
          "midi": 62,
          "name": "D4",
          "ticks": 34944,
          "time": 139.99985999999998,
          "velocity": 0.968503937007874
        },
        {
          "duration": 0.2403843750000192,
          "durationTicks": 60,
          "midi": 66,
          "name": "F#4",
          "ticks": 34944,
          "time": 139.99985999999998,
          "velocity": 0.14173228346456693
        },
        {
          "duration": 1.2179475000000082,
          "durationTicks": 304,
          "midi": 70,
          "name": "A#4",
          "ticks": 34944,
          "time": 139.99985999999998,
          "velocity": 0.9606299212598425
        },
        {
          "duration": 0.44070468750001623,
          "durationTicks": 110,
          "midi": 58,
          "name": "A#3",
          "ticks": 35040,
          "time": 140.38447499999998,
          "velocity": 0.84251968503937
        },
        {
          "duration": 0.4567303124999853,
          "durationTicks": 114,
          "midi": 62,
          "name": "D4",
          "ticks": 35136,
          "time": 140.76909,
          "velocity": 0.968503937007874
        },
        {
          "duration": 0.43269187499998907,
          "durationTicks": 108,
          "midi": 65,
          "name": "F4",
          "ticks": 35136,
          "time": 140.76909,
          "velocity": 0.968503937007874
        },
        {
          "duration": 0.40865343749999283,
          "durationTicks": 102,
          "midi": 58,
          "name": "A#3",
          "ticks": 35232,
          "time": 141.153705,
          "velocity": 0.8267716535433071
        },
        {
          "duration": 0.4727559375000112,
          "durationTicks": 118,
          "midi": 62,
          "name": "D4",
          "ticks": 35328,
          "time": 141.53832,
          "velocity": 0.9606299212598425
        },
        {
          "duration": 0.49679437500000745,
          "durationTicks": 124,
          "midi": 65,
          "name": "F4",
          "ticks": 35328,
          "time": 141.53832,
          "velocity": 0.9606299212598425
        },
        {
          "duration": 0.5608968749999974,
          "durationTicks": 140,
          "midi": 70,
          "name": "A#4",
          "ticks": 35328,
          "time": 141.53832,
          "velocity": 0.9448818897637795
        },
        {
          "duration": 1.1458321875000195,
          "durationTicks": 286,
          "midi": 58,
          "name": "A#3",
          "ticks": 35424,
          "time": 141.922935,
          "velocity": 0.9212598425196851
        },
        {
          "duration": 0.3124996875000079,
          "durationTicks": 78,
          "midi": 62,
          "name": "D4",
          "ticks": 35520,
          "time": 142.30755,
          "velocity": 0.9606299212598425
        },
        {
          "duration": 0.3285253125000054,
          "durationTicks": 82,
          "midi": 65,
          "name": "F4",
          "ticks": 35520,
          "time": 142.30755,
          "velocity": 0.9606299212598425
        },
        {
          "duration": 0.20032031249999704,
          "durationTicks": 50,
          "midi": 70,
          "name": "A#4",
          "ticks": 35520,
          "time": 142.30755,
          "velocity": 0.9212598425196851
        },
        {
          "duration": 1.4503190625000002,
          "durationTicks": 362,
          "midi": 39,
          "name": "D#2",
          "ticks": 35712,
          "time": 143.07677999999999,
          "velocity": 0.9606299212598425
        },
        {
          "duration": 0.5368584375000012,
          "durationTicks": 134,
          "midi": 51,
          "name": "D#3",
          "ticks": 35712,
          "time": 143.07677999999999,
          "velocity": 0.968503937007874
        },
        {
          "duration": 0.18429468750002798,
          "durationTicks": 46,
          "midi": 58,
          "name": "A#3",
          "ticks": 35712,
          "time": 143.07677999999999,
          "velocity": 0.968503937007874
        },
        {
          "duration": 1.1538450000000182,
          "durationTicks": 288,
          "midi": 63,
          "name": "D#4",
          "ticks": 35712,
          "time": 143.07677999999999,
          "velocity": 0.9606299212598425
        },
        {
          "duration": 0.7131403125000304,
          "durationTicks": 178,
          "midi": 67,
          "name": "G4",
          "ticks": 35712,
          "time": 143.07677999999999,
          "velocity": 0.9606299212598425
        },
        {
          "duration": 0.7612171874999945,
          "durationTicks": 190,
          "midi": 51,
          "name": "D#3",
          "ticks": 35904,
          "time": 143.84601,
          "velocity": 0.968503937007874
        },
        {
          "duration": 0.713140312500002,
          "durationTicks": 178,
          "midi": 58,
          "name": "A#3",
          "ticks": 35904,
          "time": 143.84601,
          "velocity": 0.9606299212598425
        },
        {
          "duration": 0.4166662499999916,
          "durationTicks": 104,
          "midi": 67,
          "name": "G4",
          "ticks": 35904,
          "time": 143.84601,
          "velocity": 0.9606299212598425
        },
        {
          "duration": 0.2083331249999958,
          "durationTicks": 52,
          "midi": 65,
          "name": "F4",
          "ticks": 36000,
          "time": 144.230625,
          "velocity": 0.9606299212598425
        },
        {
          "duration": 0.16826906250000206,
          "durationTicks": 42,
          "midi": 63,
          "name": "D#4",
          "ticks": 36048,
          "time": 144.4229325,
          "velocity": 0.8818897637795275
        },
        {
          "duration": 1.3862165625000102,
          "durationTicks": 346,
          "midi": 38,
          "name": "D2",
          "ticks": 36096,
          "time": 144.61524,
          "velocity": 0.968503937007874
        },
        {
          "duration": 1.0256400000000099,
          "durationTicks": 256,
          "midi": 58,
          "name": "A#3",
          "ticks": 36096,
          "time": 144.61524,
          "velocity": 0.8031496062992126
        },
        {
          "duration": 0.9695503124999902,
          "durationTicks": 242,
          "midi": 62,
          "name": "D4",
          "ticks": 36096,
          "time": 144.61524,
          "velocity": 0.968503937007874
        },
        {
          "duration": 1.0657040624999752,
          "durationTicks": 266,
          "midi": 65,
          "name": "F4",
          "ticks": 36096,
          "time": 144.61524,
          "velocity": 0.968503937007874
        },
        {
          "duration": 1.1217937499999948,
          "durationTicks": 280,
          "midi": 70,
          "name": "A#4",
          "ticks": 36096,
          "time": 144.61524,
          "velocity": 0.9606299212598425
        },
        {
          "duration": 0.7932684374999894,
          "durationTicks": 198,
          "midi": 50,
          "name": "D3",
          "ticks": 36288,
          "time": 145.38447,
          "velocity": 0.9606299212598425
        },
        {
          "duration": 0.32051250000000664,
          "durationTicks": 80,
          "midi": 67,
          "name": "G4",
          "ticks": 36384,
          "time": 145.769085,
          "velocity": 0.9606299212598425
        },
        {
          "duration": 1.4102550000000065,
          "durationTicks": 352,
          "midi": 36,
          "name": "C2",
          "ticks": 36480,
          "time": 146.1537,
          "velocity": 0.968503937007874
        },
        {
          "duration": 1.3782037500000115,
          "durationTicks": 344,
          "midi": 60,
          "name": "C4",
          "ticks": 36480,
          "time": 146.1537,
          "velocity": 0.9606299212598425
        },
        {
          "duration": 1.4182678125000052,
          "durationTicks": 354,
          "midi": 63,
          "name": "D#4",
          "ticks": 36480,
          "time": 146.1537,
          "velocity": 0.9606299212598425
        },
        {
          "duration": 1.426280625000004,
          "durationTicks": 356,
          "midi": 67,
          "name": "G4",
          "ticks": 36480,
          "time": 146.1537,
          "velocity": 0.968503937007874
        },
        {
          "duration": 1.4022421875000077,
          "durationTicks": 350,
          "midi": 72,
          "name": "C5",
          "ticks": 36480,
          "time": 146.1537,
          "velocity": 0.9606299212598425
        },
        {
          "duration": 1.378203749999983,
          "durationTicks": 344,
          "midi": 48,
          "name": "C3",
          "ticks": 36672,
          "time": 146.92293,
          "velocity": 0.952755905511811
        },
        {
          "duration": 1.3301268749999906,
          "durationTicks": 332,
          "midi": 36,
          "name": "C2",
          "ticks": 36864,
          "time": 147.69216,
          "velocity": 0.968503937007874
        },
        {
          "duration": 0.25640999999998826,
          "durationTicks": 64,
          "midi": 60,
          "name": "C4",
          "ticks": 36864,
          "time": 147.69216,
          "velocity": 0.968503937007874
        },
        {
          "duration": 0.3525637500000016,
          "durationTicks": 88,
          "midi": 63,
          "name": "D#4",
          "ticks": 36864,
          "time": 147.69216,
          "velocity": 0.968503937007874
        },
        {
          "duration": 0.46474312499998405,
          "durationTicks": 116,
          "midi": 67,
          "name": "G4",
          "ticks": 36864,
          "time": 147.69216,
          "velocity": 0.968503937007874
        },
        {
          "duration": 0.6410250000000133,
          "durationTicks": 160,
          "midi": 72,
          "name": "C5",
          "ticks": 36864,
          "time": 147.69216,
          "velocity": 0.968503937007874
        },
        {
          "duration": 0.18429468749999955,
          "durationTicks": 46,
          "midi": 62,
          "name": "D4",
          "ticks": 36960,
          "time": 148.076775,
          "velocity": 0.9606299212598425
        },
        {
          "duration": 0.5048071875000062,
          "durationTicks": 126,
          "midi": 63,
          "name": "D#4",
          "ticks": 37008,
          "time": 148.2690825,
          "velocity": 0.937007874015748
        },
        {
          "duration": 0.713140312500002,
          "durationTicks": 178,
          "midi": 48,
          "name": "C3",
          "ticks": 37056,
          "time": 148.46139,
          "velocity": 0.952755905511811
        },
        {
          "duration": 0.22435874999999328,
          "durationTicks": 56,
          "midi": 60,
          "name": "C4",
          "ticks": 37056,
          "time": 148.46139,
          "velocity": 0.968503937007874
        },
        {
          "duration": 0.42467906250001874,
          "durationTicks": 106,
          "midi": 67,
          "name": "G4",
          "ticks": 37056,
          "time": 148.46139,
          "velocity": 0.968503937007874
        },
        {
          "duration": 1.7868571875000043,
          "durationTicks": 446,
          "midi": 72,
          "name": "C5",
          "ticks": 37056,
          "time": 148.46139,
          "velocity": 0.9606299212598425
        },
        {
          "duration": 0.2483971874999895,
          "durationTicks": 62,
          "midi": 62,
          "name": "D4",
          "ticks": 37152,
          "time": 148.846005,
          "velocity": 0.937007874015748
        },
        {
          "duration": 0.09615375000001336,
          "durationTicks": 24,
          "midi": 43,
          "name": "G2",
          "ticks": 37200,
          "time": 149.0383125,
          "velocity": 0.9291338582677166
        },
        {
          "duration": 0.12820500000000834,
          "durationTicks": 32,
          "midi": 63,
          "name": "D#4",
          "ticks": 37200,
          "time": 149.0383125,
          "velocity": 0.8976377952755905
        },
        {
          "duration": 1.0657040625000036,
          "durationTicks": 266,
          "midi": 41,
          "name": "F2",
          "ticks": 37248,
          "time": 149.23062,
          "velocity": 0.9606299212598425
        },
        {
          "duration": 1.0657040625000036,
          "durationTicks": 266,
          "midi": 65,
          "name": "F4",
          "ticks": 37248,
          "time": 149.23062,
          "velocity": 0.952755905511811
        },
        {
          "duration": 1.5144215625000186,
          "durationTicks": 378,
          "midi": 68,
          "name": "G#4",
          "ticks": 37248,
          "time": 149.23062,
          "velocity": 0.952755905511811
        },
        {
          "duration": 0.28846125000001166,
          "durationTicks": 72,
          "midi": 53,
          "name": "F3",
          "ticks": 37440,
          "time": 149.99984999999998,
          "velocity": 0.9606299212598425
        },
        {
          "duration": 0.40865343749999283,
          "durationTicks": 102,
          "midi": 40,
          "name": "E2",
          "ticks": 37536,
          "time": 150.384465,
          "velocity": 0.968503937007874
        },
        {
          "duration": 0.4006406249999941,
          "durationTicks": 100,
          "midi": 52,
          "name": "E3",
          "ticks": 37536,
          "time": 150.384465,
          "velocity": 0.9606299212598425
        },
        {
          "duration": 1.081729687500001,
          "durationTicks": 270,
          "midi": 60,
          "name": "C4",
          "ticks": 37536,
          "time": 150.384465,
          "velocity": 0.968503937007874
        },
        {
          "duration": 0.264422812499987,
          "durationTicks": 66,
          "midi": 64,
          "name": "E4",
          "ticks": 37536,
          "time": 150.384465,
          "velocity": 0.968503937007874
        },
        {
          "duration": 0.3365381249999757,
          "durationTicks": 84,
          "midi": 72,
          "name": "C5",
          "ticks": 37536,
          "time": 150.384465,
          "velocity": 0.968503937007874
        },
        {
          "duration": 0.8173068749999857,
          "durationTicks": 204,
          "midi": 39,
          "name": "D#2",
          "ticks": 37632,
          "time": 150.76908,
          "velocity": 0.968503937007874
        },
        {
          "duration": 0.6089737499999899,
          "durationTicks": 152,
          "midi": 63,
          "name": "D#4",
          "ticks": 37632,
          "time": 150.76908,
          "velocity": 0.968503937007874
        },
        {
          "duration": 1.3221140624999919,
          "durationTicks": 330,
          "midi": 68,
          "name": "G#4",
          "ticks": 37632,
          "time": 150.76908,
          "velocity": 0.968503937007874
        },
        {
          "duration": 0.6009609374999911,
          "durationTicks": 150,
          "midi": 72,
          "name": "C5",
          "ticks": 37632,
          "time": 150.76908,
          "velocity": 0.968503937007874
        },
        {
          "duration": 0.39262781249999534,
          "durationTicks": 98,
          "midi": 50,
          "name": "D3",
          "ticks": 37824,
          "time": 151.53831,
          "velocity": 0.968503937007874
        },
        {
          "duration": 0.4006406249999941,
          "durationTicks": 100,
          "midi": 60,
          "name": "C4",
          "ticks": 37824,
          "time": 151.53831,
          "velocity": 0.968503937007874
        },
        {
          "duration": 0.6891018750000057,
          "durationTicks": 172,
          "midi": 62,
          "name": "D4",
          "ticks": 37824,
          "time": 151.53831,
          "velocity": 0.968503937007874
        },
        {
          "duration": 0.3124996875000079,
          "durationTicks": 78,
          "midi": 72,
          "name": "C5",
          "ticks": 37824,
          "time": 151.53831,
          "velocity": 0.968503937007874
        },
        {
          "duration": 0.7852556250000191,
          "durationTicks": 196,
          "midi": 34,
          "name": "A#1",
          "ticks": 38016,
          "time": 152.30754,
          "velocity": 0.968503937007874
        },
        {
          "duration": 0.5689096875000246,
          "durationTicks": 142,
          "midi": 46,
          "name": "A#2",
          "ticks": 38016,
          "time": 152.30754,
          "velocity": 0.968503937007874
        },
        {
          "duration": 0.9935887499999865,
          "durationTicks": 248,
          "midi": 58,
          "name": "A#3",
          "ticks": 38016,
          "time": 152.30754,
          "velocity": 0.968503937007874
        },
        {
          "duration": 1.4823703125000236,
          "durationTicks": 370,
          "midi": 62,
          "name": "D4",
          "ticks": 38016,
          "time": 152.30754,
          "velocity": 0.968503937007874
        },
        {
          "duration": 1.658652187499996,
          "durationTicks": 414,
          "midi": 65,
          "name": "F4",
          "ticks": 38016,
          "time": 152.30754,
          "velocity": 0.968503937007874
        },
        {
          "duration": 2.027241562499995,
          "durationTicks": 506,
          "midi": 70,
          "name": "A#4",
          "ticks": 38016,
          "time": 152.30754,
          "velocity": 0.968503937007874
        },
        {
          "duration": 1.3301268749999906,
          "durationTicks": 332,
          "midi": 46,
          "name": "A#2",
          "ticks": 38208,
          "time": 153.07676999999998,
          "velocity": 0.9448818897637795
        },
        {
          "duration": 0.3124996874999795,
          "durationTicks": 78,
          "midi": 34,
          "name": "A#1",
          "ticks": 38304,
          "time": 153.461385,
          "velocity": 0.937007874015748
        },
        {
          "duration": 1.0977553124999986,
          "durationTicks": 274,
          "midi": 58,
          "name": "A#3",
          "ticks": 38304,
          "time": 153.461385,
          "velocity": 0.9291338582677166
        },
        {
          "duration": 0.8253196874999844,
          "durationTicks": 206,
          "midi": 34,
          "name": "A#1",
          "ticks": 38400,
          "time": 153.846,
          "velocity": 0.9212598425196851
        },
        {
          "duration": 0.9294862499999965,
          "durationTicks": 232,
          "midi": 62,
          "name": "D4",
          "ticks": 38400,
          "time": 153.846,
          "velocity": 0.9448818897637795
        },
        {
          "duration": 0.43269187499998907,
          "durationTicks": 108,
          "midi": 65,
          "name": "F4",
          "ticks": 38496,
          "time": 154.230615,
          "velocity": 0.9448818897637795
        },
        {
          "duration": 0.5929481249999924,
          "durationTicks": 148,
          "midi": 46,
          "name": "A#2",
          "ticks": 38592,
          "time": 154.61523,
          "velocity": 0.9606299212598425
        },
        {
          "duration": 0.6570506249999823,
          "durationTicks": 164,
          "midi": 58,
          "name": "A#3",
          "ticks": 38592,
          "time": 154.61523,
          "velocity": 0.9448818897637795
        },
        {
          "duration": 0.6330121874999861,
          "durationTicks": 158,
          "midi": 70,
          "name": "A#4",
          "ticks": 38592,
          "time": 154.61523,
          "velocity": 0.9448818897637795
        },
        {
          "duration": 0.5528840624999987,
          "durationTicks": 138,
          "midi": 65,
          "name": "F4",
          "ticks": 38640,
          "time": 154.8075375,
          "velocity": 0.84251968503937
        },
        {
          "duration": 0.1201921875000096,
          "durationTicks": 30,
          "midi": 34,
          "name": "A#1",
          "ticks": 38688,
          "time": 154.999845,
          "velocity": 0.9133858267716536
        },
        {
          "duration": 1.0096143750000124,
          "durationTicks": 252,
          "midi": 39,
          "name": "D#2",
          "ticks": 38784,
          "time": 155.38446,
          "velocity": 0.968503937007874
        },
        {
          "duration": 0.9855759375000162,
          "durationTicks": 246,
          "midi": 58,
          "name": "A#3",
          "ticks": 38784,
          "time": 155.38446,
          "velocity": 0.968503937007874
        },
        {
          "duration": 1.081729687500001,
          "durationTicks": 270,
          "midi": 63,
          "name": "D#4",
          "ticks": 38784,
          "time": 155.38446,
          "velocity": 0.968503937007874
        },
        {
          "duration": 1.0336528125000086,
          "durationTicks": 258,
          "midi": 67,
          "name": "G4",
          "ticks": 38784,
          "time": 155.38446,
          "velocity": 0.968503937007874
        },
        {
          "duration": 1.0176271874999827,
          "durationTicks": 254,
          "midi": 70,
          "name": "A#4",
          "ticks": 38784,
          "time": 155.38446,
          "velocity": 0.968503937007874
        },
        {
          "duration": 0.7772428124999919,
          "durationTicks": 194,
          "midi": 51,
          "name": "D#3",
          "ticks": 38976,
          "time": 156.15368999999998,
          "velocity": 0.9448818897637795
        },
        {
          "duration": 0.30448687500000915,
          "durationTicks": 76,
          "midi": 39,
          "name": "D#2",
          "ticks": 39072,
          "time": 156.53830499999998,
          "velocity": 0.9606299212598425
        },
        {
          "duration": 0.7131403125000304,
          "durationTicks": 178,
          "midi": 58,
          "name": "A#3",
          "ticks": 39072,
          "time": 156.53830499999998,
          "velocity": 0.968503937007874
        },
        {
          "duration": 0.3445509375000029,
          "durationTicks": 86,
          "midi": 63,
          "name": "D#4",
          "ticks": 39072,
          "time": 156.53830499999998,
          "velocity": 0.9448818897637795
        },
        {
          "duration": 0.36057656250000036,
          "durationTicks": 90,
          "midi": 67,
          "name": "G4",
          "ticks": 39072,
          "time": 156.53830499999998,
          "velocity": 0.9448818897637795
        },
        {
          "duration": 1.2900628125000253,
          "durationTicks": 322,
          "midi": 70,
          "name": "A#4",
          "ticks": 39072,
          "time": 156.53830499999998,
          "velocity": 0.9606299212598425
        },
        {
          "duration": 0.8493581249999806,
          "durationTicks": 212,
          "midi": 38,
          "name": "D2",
          "ticks": 39168,
          "time": 156.92292,
          "velocity": 0.952755905511811
        },
        {
          "duration": 0.4166662499999916,
          "durationTicks": 104,
          "midi": 62,
          "name": "D4",
          "ticks": 39168,
          "time": 156.92292,
          "velocity": 0.968503937007874
        },
        {
          "duration": 0.6330121874999861,
          "durationTicks": 158,
          "midi": 65,
          "name": "F4",
          "ticks": 39168,
          "time": 156.92292,
          "velocity": 0.968503937007874
        },
        {
          "duration": 0.4567303124999853,
          "durationTicks": 114,
          "midi": 58,
          "name": "A#3",
          "ticks": 39264,
          "time": 157.307535,
          "velocity": 0.9212598425196851
        },
        {
          "duration": 0.5929481249999924,
          "durationTicks": 148,
          "midi": 62,
          "name": "D4",
          "ticks": 39312,
          "time": 157.4998425,
          "velocity": 0.8661417322834646
        },
        {
          "duration": 0.7692299999999932,
          "durationTicks": 192,
          "midi": 50,
          "name": "D3",
          "ticks": 39360,
          "time": 157.69215,
          "velocity": 0.968503937007874
        },
        {
          "duration": 0.43269187499998907,
          "durationTicks": 108,
          "midi": 58,
          "name": "A#3",
          "ticks": 39408,
          "time": 157.8844575,
          "velocity": 0.9606299212598425
        },
        {
          "duration": 0.2564100000000167,
          "durationTicks": 64,
          "midi": 65,
          "name": "F4",
          "ticks": 39408,
          "time": 157.8844575,
          "velocity": 0.968503937007874
        },
        {
          "duration": 0.3685893749999991,
          "durationTicks": 92,
          "midi": 70,
          "name": "A#4",
          "ticks": 39408,
          "time": 157.8844575,
          "velocity": 0.9606299212598425
        },
        {
          "duration": 0.39262781249999534,
          "durationTicks": 98,
          "midi": 43,
          "name": "G2",
          "ticks": 39456,
          "time": 158.076765,
          "velocity": 0.9133858267716536
        },
        {
          "duration": 0.04807687499999247,
          "durationTicks": 12,
          "midi": 67,
          "name": "G4",
          "ticks": 39504,
          "time": 158.2690725,
          "velocity": 0.8818897637795275
        },
        {
          "duration": 1.458331874999999,
          "durationTicks": 364,
          "midi": 36,
          "name": "C2",
          "ticks": 39552,
          "time": 158.46138,
          "velocity": 0.968503937007874
        },
        {
          "duration": 0.8173068750000141,
          "durationTicks": 204,
          "midi": 60,
          "name": "C4",
          "ticks": 39552,
          "time": 158.46138,
          "velocity": 0.968503937007874
        },
        {
          "duration": 1.0576912500000049,
          "durationTicks": 264,
          "midi": 63,
          "name": "D#4",
          "ticks": 39552,
          "time": 158.46138,
          "velocity": 0.968503937007874
        },
        {
          "duration": 1.1778834375000145,
          "durationTicks": 294,
          "midi": 67,
          "name": "G4",
          "ticks": 39552,
          "time": 158.46138,
          "velocity": 0.968503937007874
        },
        {
          "duration": 1.362178125000014,
          "durationTicks": 340,
          "midi": 72,
          "name": "C5",
          "ticks": 39552,
          "time": 158.46138,
          "velocity": 0.968503937007874
        },
        {
          "duration": 1.2499987500000032,
          "durationTicks": 312,
          "midi": 48,
          "name": "C3",
          "ticks": 39744,
          "time": 159.23060999999998,
          "velocity": 0.9606299212598425
        },
        {
          "duration": 0.18429468750002798,
          "durationTicks": 46,
          "midi": 62,
          "name": "D4",
          "ticks": 39840,
          "time": 159.61522499999998,
          "velocity": 0.9212598425196851
        },
        {
          "duration": 0.264422812499987,
          "durationTicks": 66,
          "midi": 63,
          "name": "D#4",
          "ticks": 39888,
          "time": 159.8075325,
          "velocity": 0.9133858267716536
        },
        {
          "duration": 1.0176271874999827,
          "durationTicks": 254,
          "midi": 36,
          "name": "C2",
          "ticks": 39936,
          "time": 159.99984,
          "velocity": 0.952755905511811
        },
        {
          "duration": 0.27243562499998575,
          "durationTicks": 68,
          "midi": 60,
          "name": "C4",
          "ticks": 39936,
          "time": 159.99984,
          "velocity": 0.9606299212598425
        },
        {
          "duration": 0.6410249999999849,
          "durationTicks": 160,
          "midi": 67,
          "name": "G4",
          "ticks": 39936,
          "time": 159.99984,
          "velocity": 0.9606299212598425
        },
        {
          "duration": 0.6570506249999823,
          "durationTicks": 164,
          "midi": 72,
          "name": "C5",
          "ticks": 39936,
          "time": 159.99984,
          "velocity": 0.968503937007874
        },
        {
          "duration": 0.1923074999999983,
          "durationTicks": 48,
          "midi": 62,
          "name": "D4",
          "ticks": 40032,
          "time": 160.384455,
          "velocity": 0.9448818897637795
        },
        {
          "duration": 0.20032031249999704,
          "durationTicks": 50,
          "midi": 63,
          "name": "D#4",
          "ticks": 40080,
          "time": 160.5767625,
          "velocity": 0.9606299212598425
        },
        {
          "duration": 0.5689096874999962,
          "durationTicks": 142,
          "midi": 48,
          "name": "C3",
          "ticks": 40128,
          "time": 160.76907,
          "velocity": 0.9606299212598425
        },
        {
          "duration": 0.20032031249999704,
          "durationTicks": 50,
          "midi": 60,
          "name": "C4",
          "ticks": 40128,
          "time": 160.76907,
          "velocity": 0.968503937007874
        },
        {
          "duration": 0.4567303124999853,
          "durationTicks": 114,
          "midi": 67,
          "name": "G4",
          "ticks": 40128,
          "time": 160.76907,
          "velocity": 0.968503937007874
        },
        {
          "duration": 0.6089737499999899,
          "durationTicks": 152,
          "midi": 72,
          "name": "C5",
          "ticks": 40128,
          "time": 160.76907,
          "velocity": 0.968503937007874
        },
        {
          "duration": 0.24038437499999077,
          "durationTicks": 60,
          "midi": 62,
          "name": "D4",
          "ticks": 40224,
          "time": 161.153685,
          "velocity": 0.8976377952755905
        },
        {
          "duration": 0.09615375000001336,
          "durationTicks": 24,
          "midi": 43,
          "name": "G2",
          "ticks": 40272,
          "time": 161.3459925,
          "velocity": 0.937007874015748
        },
        {
          "duration": 0.12820499999997992,
          "durationTicks": 32,
          "midi": 63,
          "name": "D#4",
          "ticks": 40272,
          "time": 161.3459925,
          "velocity": 0.9212598425196851
        },
        {
          "duration": 1.1538449999999898,
          "durationTicks": 288,
          "midi": 41,
          "name": "F2",
          "ticks": 40320,
          "time": 161.5383,
          "velocity": 0.937007874015748
        },
        {
          "duration": 0.6410250000000133,
          "durationTicks": 160,
          "midi": 60,
          "name": "C4",
          "ticks": 40320,
          "time": 161.5383,
          "velocity": 0.968503937007874
        },
        {
          "duration": 0.7532043749999957,
          "durationTicks": 188,
          "midi": 65,
          "name": "F4",
          "ticks": 40320,
          "time": 161.5383,
          "velocity": 0.968503937007874
        },
        {
          "duration": 0.7932684374999894,
          "durationTicks": 198,
          "midi": 68,
          "name": "G#4",
          "ticks": 40320,
          "time": 161.5383,
          "velocity": 0.9606299212598425
        },
        {
          "duration": 0.7772428124999919,
          "durationTicks": 194,
          "midi": 72,
          "name": "C5",
          "ticks": 40320,
          "time": 161.5383,
          "velocity": 0.968503937007874
        },
        {
          "duration": 0.40865343750002125,
          "durationTicks": 102,
          "midi": 53,
          "name": "F3",
          "ticks": 40512,
          "time": 162.30752999999999,
          "velocity": 0.968503937007874
        },
        {
          "duration": 0.08814093750001462,
          "durationTicks": 22,
          "midi": 65,
          "name": "F4",
          "ticks": 40608,
          "time": 162.69214499999998,
          "velocity": 0.9606299212598425
        },
        {
          "duration": 0.09615375000001336,
          "durationTicks": 24,
          "midi": 77,
          "name": "F5",
          "ticks": 40608,
          "time": 162.69214499999998,
          "velocity": 0.952755905511811
        },
        {
          "duration": 0.03205124999999498,
          "durationTicks": 8,
          "midi": 52,
          "name": "E3",
          "ticks": 40656,
          "time": 162.88445249999998,
          "velocity": 0.9448818897637795
        },
        {
          "duration": 0.07211531250001713,
          "durationTicks": 18,
          "midi": 67,
          "name": "G4",
          "ticks": 40656,
          "time": 162.88445249999998,
          "velocity": 0.968503937007874
        },
        {
          "duration": 0.1041665625000121,
          "durationTicks": 26,
          "midi": 79,
          "name": "G5",
          "ticks": 40656,
          "time": 162.88445249999998,
          "velocity": 0.968503937007874
        },
        {
          "duration": 0.48076874999998154,
          "durationTicks": 120,
          "midi": 51,
          "name": "D#3",
          "ticks": 40704,
          "time": 163.07676,
          "velocity": 0.9606299212598425
        },
        {
          "duration": 0.44871749999998656,
          "durationTicks": 112,
          "midi": 63,
          "name": "D#4",
          "ticks": 40704,
          "time": 163.07676,
          "velocity": 0.968503937007874
        },
        {
          "duration": 0.34455093749997445,
          "durationTicks": 86,
          "midi": 68,
          "name": "G#4",
          "ticks": 40704,
          "time": 163.07676,
          "velocity": 0.9606299212598425
        },
        {
          "duration": 0.43269187499998907,
          "durationTicks": 108,
          "midi": 80,
          "name": "G#5",
          "ticks": 40704,
          "time": 163.07676,
          "velocity": 0.968503937007874
        },
        {
          "duration": 0.40865343749999283,
          "durationTicks": 102,
          "midi": 50,
          "name": "D3",
          "ticks": 40896,
          "time": 163.84599,
          "velocity": 0.952755905511811
        },
        {
          "duration": 0.4166662499999916,
          "durationTicks": 104,
          "midi": 62,
          "name": "D4",
          "ticks": 40896,
          "time": 163.84599,
          "velocity": 0.968503937007874
        },
        {
          "duration": 0.3685893749999991,
          "durationTicks": 92,
          "midi": 77,
          "name": "F5",
          "ticks": 40896,
          "time": 163.84599,
          "velocity": 0.968503937007874
        },
        {
          "duration": 0.36057656250000036,
          "durationTicks": 90,
          "midi": 89,
          "name": "F6",
          "ticks": 40896,
          "time": 163.84599,
          "velocity": 0.9606299212598425
        },
        {
          "duration": 1.2179475000000082,
          "durationTicks": 304,
          "midi": 49,
          "name": "C#3",
          "ticks": 41088,
          "time": 164.61522,
          "velocity": 0.968503937007874
        },
        {
          "duration": 0.9615374999999915,
          "durationTicks": 240,
          "midi": 61,
          "name": "C#4",
          "ticks": 41088,
          "time": 164.61522,
          "velocity": 0.968503937007874
        },
        {
          "duration": 0.8092940625000153,
          "durationTicks": 202,
          "midi": 68,
          "name": "G#4",
          "ticks": 41088,
          "time": 164.61522,
          "velocity": 0.968503937007874
        },
        {
          "duration": 0.8413453125000103,
          "durationTicks": 210,
          "midi": 80,
          "name": "G#5",
          "ticks": 41088,
          "time": 164.61522,
          "velocity": 0.9606299212598425
        },
        {
          "duration": 0.9615375000000199,
          "durationTicks": 240,
          "midi": 61,
          "name": "C#4",
          "ticks": 41328,
          "time": 165.57675749999999,
          "velocity": 0.9291338582677166
        },
        {
          "duration": 0.1201921875000096,
          "durationTicks": 30,
          "midi": 73,
          "name": "C#5",
          "ticks": 41328,
          "time": 165.57675749999999,
          "velocity": 0.9291338582677166
        },
        {
          "duration": 0.1201921875000096,
          "durationTicks": 30,
          "midi": 85,
          "name": "C#6",
          "ticks": 41328,
          "time": 165.57675749999999,
          "velocity": 0.9291338582677166
        },
        {
          "duration": 0.2083331249999958,
          "durationTicks": 52,
          "midi": 48,
          "name": "C3",
          "ticks": 41400,
          "time": 165.86521875,
          "velocity": 0.9212598425196851
        },
        {
          "duration": 0.2083331249999958,
          "durationTicks": 52,
          "midi": 60,
          "name": "C4",
          "ticks": 41400,
          "time": 165.86521875,
          "velocity": 0.952755905511811
        },
        {
          "duration": 0.16025625000000332,
          "durationTicks": 40,
          "midi": 73,
          "name": "C#5",
          "ticks": 41400,
          "time": 165.86521875,
          "velocity": 0.968503937007874
        },
        {
          "duration": 0.16025625000000332,
          "durationTicks": 40,
          "midi": 85,
          "name": "C#6",
          "ticks": 41400,
          "time": 165.86521875,
          "velocity": 0.968503937007874
        },
        {
          "duration": 0.5128200000000049,
          "durationTicks": 128,
          "midi": 47,
          "name": "B2",
          "ticks": 41472,
          "time": 166.15367999999998,
          "velocity": 0.968503937007874
        },
        {
          "duration": 0.5368584375000012,
          "durationTicks": 134,
          "midi": 59,
          "name": "B3",
          "ticks": 41472,
          "time": 166.15367999999998,
          "velocity": 0.968503937007874
        },
        {
          "duration": 0.41666625000002,
          "durationTicks": 104,
          "midi": 73,
          "name": "C#5",
          "ticks": 41472,
          "time": 166.15367999999998,
          "velocity": 0.968503937007874
        },
        {
          "duration": 0.3685893749999991,
          "durationTicks": 92,
          "midi": 85,
          "name": "C#6",
          "ticks": 41472,
          "time": 166.15367999999998,
          "velocity": 0.9606299212598425
        },
        {
          "duration": 0.44871749999998656,
          "durationTicks": 112,
          "midi": 46,
          "name": "A#2",
          "ticks": 41664,
          "time": 166.92291,
          "velocity": 0.9448818897637795
        },
        {
          "duration": 0.39262781249999534,
          "durationTicks": 98,
          "midi": 58,
          "name": "A#3",
          "ticks": 41664,
          "time": 166.92291,
          "velocity": 0.968503937007874
        },
        {
          "duration": 0.4246790624999903,
          "durationTicks": 106,
          "midi": 61,
          "name": "C#4",
          "ticks": 41664,
          "time": 166.92291,
          "velocity": 0.968503937007874
        },
        {
          "duration": 0.39262781249999534,
          "durationTicks": 98,
          "midi": 73,
          "name": "C#5",
          "ticks": 41664,
          "time": 166.92291,
          "velocity": 0.968503937007874
        },
        {
          "duration": 0.18429468749999955,
          "durationTicks": 46,
          "midi": 33,
          "name": "A1",
          "ticks": 41856,
          "time": 167.69214,
          "velocity": 0.968503937007874
        },
        {
          "duration": 0.1923074999999983,
          "durationTicks": 48,
          "midi": 45,
          "name": "A2",
          "ticks": 41856,
          "time": 167.69214,
          "velocity": 0.968503937007874
        },
        {
          "duration": 0.11217937500001085,
          "durationTicks": 28,
          "midi": 69,
          "name": "A4",
          "ticks": 41856,
          "time": 167.69214,
          "velocity": 0.968503937007874
        },
        {
          "duration": 0.1201921875000096,
          "durationTicks": 30,
          "midi": 76,
          "name": "E5",
          "ticks": 41856,
          "time": 167.69214,
          "velocity": 0.968503937007874
        },
        {
          "duration": 0.12820499999997992,
          "durationTicks": 32,
          "midi": 81,
          "name": "A5",
          "ticks": 41856,
          "time": 167.69214,
          "velocity": 0.968503937007874
        },
        {
          "duration": 0.06410250000001838,
          "durationTicks": 16,
          "midi": 57,
          "name": "A3",
          "ticks": 41952,
          "time": 168.076755,
          "velocity": 0.9448818897637795
        },
        {
          "duration": 0.08814093750001462,
          "durationTicks": 22,
          "midi": 61,
          "name": "C#4",
          "ticks": 41952,
          "time": 168.076755,
          "velocity": 0.9606299212598425
        },
        {
          "duration": 0.08814093750001462,
          "durationTicks": 22,
          "midi": 64,
          "name": "E4",
          "ticks": 41952,
          "time": 168.076755,
          "velocity": 0.9606299212598425
        },
        {
          "duration": 0.07211531250001713,
          "durationTicks": 18,
          "midi": 57,
          "name": "A3",
          "ticks": 42048,
          "time": 168.46137,
          "velocity": 0.952755905511811
        },
        {
          "duration": 0.07211531250001713,
          "durationTicks": 18,
          "midi": 61,
          "name": "C#4",
          "ticks": 42048,
          "time": 168.46137,
          "velocity": 0.937007874015748
        },
        {
          "duration": 0.09615375000001336,
          "durationTicks": 24,
          "midi": 64,
          "name": "E4",
          "ticks": 42048,
          "time": 168.46137,
          "velocity": 0.9606299212598425
        },
        {
          "duration": 0.08814093750001462,
          "durationTicks": 22,
          "midi": 57,
          "name": "A3",
          "ticks": 42144,
          "time": 168.84598499999998,
          "velocity": 0.952755905511811
        },
        {
          "duration": 0.09615375000001336,
          "durationTicks": 24,
          "midi": 61,
          "name": "C#4",
          "ticks": 42144,
          "time": 168.84598499999998,
          "velocity": 0.952755905511811
        },
        {
          "duration": 0.11217937500001085,
          "durationTicks": 28,
          "midi": 64,
          "name": "E4",
          "ticks": 42144,
          "time": 168.84598499999998,
          "velocity": 0.968503937007874
        },
        {
          "duration": 0.08814093750001462,
          "durationTicks": 22,
          "midi": 57,
          "name": "A3",
          "ticks": 42240,
          "time": 169.23059999999998,
          "velocity": 0.9448818897637795
        },
        {
          "duration": 0.1041665625000121,
          "durationTicks": 26,
          "midi": 61,
          "name": "C#4",
          "ticks": 42240,
          "time": 169.23059999999998,
          "velocity": 0.9448818897637795
        },
        {
          "duration": 0.11217937500001085,
          "durationTicks": 28,
          "midi": 64,
          "name": "E4",
          "ticks": 42240,
          "time": 169.23059999999998,
          "velocity": 0.9448818897637795
        },
        {
          "duration": 0.0881409374999862,
          "durationTicks": 22,
          "midi": 57,
          "name": "A3",
          "ticks": 42336,
          "time": 169.615215,
          "velocity": 0.952755905511811
        },
        {
          "duration": 0.0881409374999862,
          "durationTicks": 22,
          "midi": 61,
          "name": "C#4",
          "ticks": 42336,
          "time": 169.615215,
          "velocity": 0.937007874015748
        },
        {
          "duration": 0.11217937499998243,
          "durationTicks": 28,
          "midi": 64,
          "name": "E4",
          "ticks": 42336,
          "time": 169.615215,
          "velocity": 0.9291338582677166
        },
        {
          "duration": 0.0721153124999887,
          "durationTicks": 18,
          "midi": 57,
          "name": "A3",
          "ticks": 42432,
          "time": 169.99983,
          "velocity": 0.905511811023622
        },
        {
          "duration": 0.09615374999998494,
          "durationTicks": 24,
          "midi": 61,
          "name": "C#4",
          "ticks": 42432,
          "time": 169.99983,
          "velocity": 0.9291338582677166
        },
        {
          "duration": 0.09615374999998494,
          "durationTicks": 24,
          "midi": 64,
          "name": "E4",
          "ticks": 42432,
          "time": 169.99983,
          "velocity": 0.937007874015748
        },
        {
          "duration": 0.08012812499998745,
          "durationTicks": 20,
          "midi": 57,
          "name": "A3",
          "ticks": 42528,
          "time": 170.384445,
          "velocity": 0.9291338582677166
        },
        {
          "duration": 0.09615374999998494,
          "durationTicks": 24,
          "midi": 61,
          "name": "C#4",
          "ticks": 42528,
          "time": 170.384445,
          "velocity": 0.9291338582677166
        },
        {
          "duration": 0.10416656249998368,
          "durationTicks": 26,
          "midi": 64,
          "name": "E4",
          "ticks": 42528,
          "time": 170.384445,
          "velocity": 0.9448818897637795
        },
        {
          "duration": 0.08814093750001462,
          "durationTicks": 22,
          "midi": 57,
          "name": "A3",
          "ticks": 42624,
          "time": 170.76906,
          "velocity": 0.9606299212598425
        },
        {
          "duration": 0.12820499999997992,
          "durationTicks": 32,
          "midi": 62,
          "name": "D4",
          "ticks": 42624,
          "time": 170.76906,
          "velocity": 0.968503937007874
        },
        {
          "duration": 0.14423062500000583,
          "durationTicks": 36,
          "midi": 66,
          "name": "F#4",
          "ticks": 42624,
          "time": 170.76906,
          "velocity": 0.9606299212598425
        },
        {
          "duration": 0.0721153124999887,
          "durationTicks": 18,
          "midi": 57,
          "name": "A3",
          "ticks": 42720,
          "time": 171.153675,
          "velocity": 0.9606299212598425
        },
        {
          "duration": 0.08814093750001462,
          "durationTicks": 22,
          "midi": 61,
          "name": "C#4",
          "ticks": 42720,
          "time": 171.153675,
          "velocity": 0.952755905511811
        },
        {
          "duration": 0.08814093750001462,
          "durationTicks": 22,
          "midi": 64,
          "name": "E4",
          "ticks": 42720,
          "time": 171.153675,
          "velocity": 0.968503937007874
        },
        {
          "duration": 0.04807687499999247,
          "durationTicks": 12,
          "midi": 57,
          "name": "A3",
          "ticks": 42768,
          "time": 171.3459825,
          "velocity": 0.9212598425196851
        },
        {
          "duration": 0.08814093750001462,
          "durationTicks": 22,
          "midi": 61,
          "name": "C#4",
          "ticks": 42768,
          "time": 171.3459825,
          "velocity": 0.952755905511811
        },
        {
          "duration": 0.08814093750001462,
          "durationTicks": 22,
          "midi": 64,
          "name": "E4",
          "ticks": 42768,
          "time": 171.3459825,
          "velocity": 0.9291338582677166
        },
        {
          "duration": 0.11217937500001085,
          "durationTicks": 28,
          "midi": 57,
          "name": "A3",
          "ticks": 42816,
          "time": 171.53829,
          "velocity": 0.9606299212598425
        },
        {
          "duration": 0.11217937500001085,
          "durationTicks": 28,
          "midi": 60,
          "name": "C4",
          "ticks": 42816,
          "time": 171.53829,
          "velocity": 0.9606299212598425
        },
        {
          "duration": 0.16025625000000332,
          "durationTicks": 40,
          "midi": 63,
          "name": "D#4",
          "ticks": 42816,
          "time": 171.53829,
          "velocity": 0.9606299212598425
        },
        {
          "duration": 0.1041665625000121,
          "durationTicks": 26,
          "midi": 57,
          "name": "A3",
          "ticks": 42912,
          "time": 171.922905,
          "velocity": 0.968503937007874
        },
        {
          "duration": 0.13621781250000708,
          "durationTicks": 34,
          "midi": 61,
          "name": "C#4",
          "ticks": 42912,
          "time": 171.922905,
          "velocity": 0.968503937007874
        },
        {
          "duration": 0.12820500000000834,
          "durationTicks": 32,
          "midi": 64,
          "name": "E4",
          "ticks": 42912,
          "time": 171.922905,
          "velocity": 0.968503937007874
        },
        {
          "duration": 0.08814093750001462,
          "durationTicks": 22,
          "midi": 57,
          "name": "A3",
          "ticks": 43008,
          "time": 172.30751999999998,
          "velocity": 0.968503937007874
        },
        {
          "duration": 0.11217937500001085,
          "durationTicks": 28,
          "midi": 62,
          "name": "D4",
          "ticks": 43008,
          "time": 172.30751999999998,
          "velocity": 0.968503937007874
        },
        {
          "duration": 0.13621781250000708,
          "durationTicks": 34,
          "midi": 66,
          "name": "F#4",
          "ticks": 43008,
          "time": 172.30751999999998,
          "velocity": 0.9606299212598425
        },
        {
          "duration": 0.07211531250001713,
          "durationTicks": 18,
          "midi": 57,
          "name": "A3",
          "ticks": 43104,
          "time": 172.69213499999998,
          "velocity": 0.9606299212598425
        },
        {
          "duration": 0.07211531250001713,
          "durationTicks": 18,
          "midi": 61,
          "name": "C#4",
          "ticks": 43104,
          "time": 172.69213499999998,
          "velocity": 0.968503937007874
        },
        {
          "duration": 0.08814093750001462,
          "durationTicks": 22,
          "midi": 64,
          "name": "E4",
          "ticks": 43104,
          "time": 172.69213499999998,
          "velocity": 0.9606299212598425
        },
        {
          "duration": 0.04807687499999247,
          "durationTicks": 12,
          "midi": 57,
          "name": "A3",
          "ticks": 43152,
          "time": 172.8844425,
          "velocity": 0.9291338582677166
        },
        {
          "duration": 0.0721153124999887,
          "durationTicks": 18,
          "midi": 61,
          "name": "C#4",
          "ticks": 43152,
          "time": 172.8844425,
          "velocity": 0.937007874015748
        },
        {
          "duration": 0.0721153124999887,
          "durationTicks": 18,
          "midi": 64,
          "name": "E4",
          "ticks": 43152,
          "time": 172.8844425,
          "velocity": 0.9606299212598425
        },
        {
          "duration": 0.21634593749999453,
          "durationTicks": 54,
          "midi": 57,
          "name": "A3",
          "ticks": 43200,
          "time": 173.07675,
          "velocity": 0.952755905511811
        },
        {
          "duration": 0.2083331249999958,
          "durationTicks": 52,
          "midi": 60,
          "name": "C4",
          "ticks": 43200,
          "time": 173.07675,
          "velocity": 0.968503937007874
        },
        {
          "duration": 0.24038437499999077,
          "durationTicks": 60,
          "midi": 63,
          "name": "D#4",
          "ticks": 43200,
          "time": 173.07675,
          "velocity": 0.968503937007874
        },
        {
          "duration": 0.08012812499998745,
          "durationTicks": 20,
          "midi": 57,
          "name": "A3",
          "ticks": 43296,
          "time": 173.461365,
          "velocity": 0.9448818897637795
        },
        {
          "duration": 0.08012812499998745,
          "durationTicks": 20,
          "midi": 61,
          "name": "C#4",
          "ticks": 43296,
          "time": 173.461365,
          "velocity": 0.952755905511811
        },
        {
          "duration": 0.06410249999998996,
          "durationTicks": 16,
          "midi": 64,
          "name": "E4",
          "ticks": 43296,
          "time": 173.461365,
          "velocity": 0.968503937007874
        },
        {
          "duration": 0.08814093750001462,
          "durationTicks": 22,
          "midi": 57,
          "name": "A3",
          "ticks": 43344,
          "time": 173.6536725,
          "velocity": 0.9291338582677166
        },
        {
          "duration": 0.10416656249998368,
          "durationTicks": 26,
          "midi": 61,
          "name": "C#4",
          "ticks": 43344,
          "time": 173.6536725,
          "velocity": 0.952755905511811
        },
        {
          "duration": 0.09615374999998494,
          "durationTicks": 24,
          "midi": 64,
          "name": "E4",
          "ticks": 43344,
          "time": 173.6536725,
          "velocity": 0.968503937007874
        },
        {
          "duration": 0.20032031249999704,
          "durationTicks": 50,
          "midi": 57,
          "name": "A3",
          "ticks": 43392,
          "time": 173.84598,
          "velocity": 0.968503937007874
        },
        {
          "duration": 0.2483971874999895,
          "durationTicks": 62,
          "midi": 62,
          "name": "D4",
          "ticks": 43392,
          "time": 173.84598,
          "velocity": 0.968503937007874
        },
        {
          "duration": 0.27243562499998575,
          "durationTicks": 68,
          "midi": 66,
          "name": "F#4",
          "ticks": 43392,
          "time": 173.84598,
          "velocity": 0.968503937007874
        },
        {
          "duration": 0.22435874999999328,
          "durationTicks": 56,
          "midi": 69,
          "name": "A4",
          "ticks": 43392,
          "time": 173.84598,
          "velocity": 0.968503937007874
        },
        {
          "duration": 0.056089687499991214,
          "durationTicks": 14,
          "midi": 57,
          "name": "A3",
          "ticks": 43488,
          "time": 174.230595,
          "velocity": 0.905511811023622
        },
        {
          "duration": 0.0721153124999887,
          "durationTicks": 18,
          "midi": 61,
          "name": "C#4",
          "ticks": 43488,
          "time": 174.230595,
          "velocity": 0.9291338582677166
        },
        {
          "duration": 0.04807687499999247,
          "durationTicks": 12,
          "midi": 64,
          "name": "E4",
          "ticks": 43488,
          "time": 174.230595,
          "velocity": 0.9291338582677166
        },
        {
          "duration": 0.08814093750001462,
          "durationTicks": 22,
          "midi": 57,
          "name": "A3",
          "ticks": 43536,
          "time": 174.4229025,
          "velocity": 0.889763779527559
        },
        {
          "duration": 0.1201921875000096,
          "durationTicks": 30,
          "midi": 61,
          "name": "C#4",
          "ticks": 43536,
          "time": 174.4229025,
          "velocity": 0.9291338582677166
        },
        {
          "duration": 0.13621781250000708,
          "durationTicks": 34,
          "midi": 64,
          "name": "E4",
          "ticks": 43536,
          "time": 174.4229025,
          "velocity": 0.968503937007874
        },
        {
          "duration": 0.2644228125000154,
          "durationTicks": 66,
          "midi": 57,
          "name": "A3",
          "ticks": 43584,
          "time": 174.61521,
          "velocity": 0.968503937007874
        },
        {
          "duration": 0.27243562499998575,
          "durationTicks": 68,
          "midi": 62,
          "name": "D4",
          "ticks": 43584,
          "time": 174.61521,
          "velocity": 0.968503937007874
        },
        {
          "duration": 0.3124996875000079,
          "durationTicks": 78,
          "midi": 66,
          "name": "F#4",
          "ticks": 43584,
          "time": 174.61521,
          "velocity": 0.968503937007874
        },
        {
          "duration": 0.27243562499998575,
          "durationTicks": 68,
          "midi": 69,
          "name": "A4",
          "ticks": 43584,
          "time": 174.61521,
          "velocity": 0.968503937007874
        },
        {
          "duration": 0.06410250000001838,
          "durationTicks": 16,
          "midi": 57,
          "name": "A3",
          "ticks": 43680,
          "time": 174.999825,
          "velocity": 0.9212598425196851
        },
        {
          "duration": 0.08012812499998745,
          "durationTicks": 20,
          "midi": 61,
          "name": "C#4",
          "ticks": 43680,
          "time": 174.999825,
          "velocity": 0.952755905511811
        },
        {
          "duration": 0.07211531250001713,
          "durationTicks": 18,
          "midi": 64,
          "name": "E4",
          "ticks": 43680,
          "time": 174.999825,
          "velocity": 0.9606299212598425
        },
        {
          "duration": 0.09615375000001336,
          "durationTicks": 24,
          "midi": 57,
          "name": "A3",
          "ticks": 43728,
          "time": 175.19213249999999,
          "velocity": 0.9212598425196851
        },
        {
          "duration": 0.1041665625000121,
          "durationTicks": 26,
          "midi": 61,
          "name": "C#4",
          "ticks": 43728,
          "time": 175.19213249999999,
          "velocity": 0.952755905511811
        },
        {
          "duration": 0.08814093750001462,
          "durationTicks": 22,
          "midi": 64,
          "name": "E4",
          "ticks": 43728,
          "time": 175.19213249999999,
          "velocity": 0.9606299212598425
        },
        {
          "duration": 0.1201921875000096,
          "durationTicks": 30,
          "midi": 69,
          "name": "A4",
          "ticks": 43728,
          "time": 175.19213249999999,
          "velocity": 0.9606299212598425
        },
        {
          "duration": 0.07211531250001713,
          "durationTicks": 18,
          "midi": 57,
          "name": "A3",
          "ticks": 43776,
          "time": 175.38443999999998,
          "velocity": 0.952755905511811
        },
        {
          "duration": 0.09615375000001336,
          "durationTicks": 24,
          "midi": 60,
          "name": "C4",
          "ticks": 43776,
          "time": 175.38443999999998,
          "velocity": 0.952755905511811
        },
        {
          "duration": 0.1041665625000121,
          "durationTicks": 26,
          "midi": 63,
          "name": "D#4",
          "ticks": 43776,
          "time": 175.38443999999998,
          "velocity": 0.968503937007874
        },
        {
          "duration": 0.08814093750001462,
          "durationTicks": 22,
          "midi": 69,
          "name": "A4",
          "ticks": 43776,
          "time": 175.38443999999998,
          "velocity": 0.968503937007874
        },
        {
          "duration": 0.08814093750001462,
          "durationTicks": 22,
          "midi": 57,
          "name": "A3",
          "ticks": 43824,
          "time": 175.57674749999998,
          "velocity": 0.9606299212598425
        },
        {
          "duration": 0.08814093750001462,
          "durationTicks": 22,
          "midi": 60,
          "name": "C4",
          "ticks": 43824,
          "time": 175.57674749999998,
          "velocity": 0.9212598425196851
        },
        {
          "duration": 0.11217937500001085,
          "durationTicks": 28,
          "midi": 63,
          "name": "D#4",
          "ticks": 43824,
          "time": 175.57674749999998,
          "velocity": 0.9606299212598425
        },
        {
          "duration": 0.09615375000001336,
          "durationTicks": 24,
          "midi": 69,
          "name": "A4",
          "ticks": 43824,
          "time": 175.57674749999998,
          "velocity": 0.9606299212598425
        },
        {
          "duration": 0.12820500000000834,
          "durationTicks": 32,
          "midi": 57,
          "name": "A3",
          "ticks": 43872,
          "time": 175.76905499999998,
          "velocity": 0.968503937007874
        },
        {
          "duration": 0.15224343750000457,
          "durationTicks": 38,
          "midi": 61,
          "name": "C#4",
          "ticks": 43872,
          "time": 175.76905499999998,
          "velocity": 0.968503937007874
        },
        {
          "duration": 0.14423062500000583,
          "durationTicks": 36,
          "midi": 64,
          "name": "E4",
          "ticks": 43872,
          "time": 175.76905499999998,
          "velocity": 0.968503937007874
        },
        {
          "duration": 0.09615375000001336,
          "durationTicks": 24,
          "midi": 69,
          "name": "A4",
          "ticks": 43872,
          "time": 175.76905499999998,
          "velocity": 0.952755905511811
        },
        {
          "duration": 0.1442306249999774,
          "durationTicks": 36,
          "midi": 57,
          "name": "A3",
          "ticks": 43968,
          "time": 176.15367,
          "velocity": 0.968503937007874
        },
        {
          "duration": 0.16025625000000332,
          "durationTicks": 40,
          "midi": 62,
          "name": "D4",
          "ticks": 43968,
          "time": 176.15367,
          "velocity": 0.9606299212598425
        },
        {
          "duration": 0.21634593749999453,
          "durationTicks": 54,
          "midi": 66,
          "name": "F#4",
          "ticks": 43968,
          "time": 176.15367,
          "velocity": 0.9606299212598425
        },
        {
          "duration": 0.18429468749999955,
          "durationTicks": 46,
          "midi": 69,
          "name": "A4",
          "ticks": 43968,
          "time": 176.15367,
          "velocity": 0.968503937007874
        },
        {
          "duration": 0.1762818749999724,
          "durationTicks": 44,
          "midi": 57,
          "name": "A3",
          "ticks": 44064,
          "time": 176.538285,
          "velocity": 0.968503937007874
        },
        {
          "duration": 0.1762818749999724,
          "durationTicks": 44,
          "midi": 61,
          "name": "C#4",
          "ticks": 44064,
          "time": 176.538285,
          "velocity": 0.968503937007874
        },
        {
          "duration": 0.1762818749999724,
          "durationTicks": 44,
          "midi": 64,
          "name": "E4",
          "ticks": 44064,
          "time": 176.538285,
          "velocity": 0.968503937007874
        },
        {
          "duration": 0.20032031249999704,
          "durationTicks": 50,
          "midi": 69,
          "name": "A4",
          "ticks": 44064,
          "time": 176.538285,
          "velocity": 0.968503937007874
        },
        {
          "duration": 0.08012812499998745,
          "durationTicks": 20,
          "midi": 48,
          "name": "C3",
          "ticks": 44160,
          "time": 176.9229,
          "velocity": 0.9448818897637795
        },
        {
          "duration": 0.08814093750001462,
          "durationTicks": 22,
          "midi": 55,
          "name": "G3",
          "ticks": 44160,
          "time": 176.9229,
          "velocity": 0.968503937007874
        },
        {
          "duration": 0.06410249999998996,
          "durationTicks": 16,
          "midi": 60,
          "name": "C4",
          "ticks": 44160,
          "time": 176.9229,
          "velocity": 0.968503937007874
        },
        {
          "duration": 0.06410249999998996,
          "durationTicks": 16,
          "midi": 64,
          "name": "E4",
          "ticks": 44160,
          "time": 176.9229,
          "velocity": 0.968503937007874
        },
        {
          "duration": 0.0721153124999887,
          "durationTicks": 18,
          "midi": 67,
          "name": "G4",
          "ticks": 44160,
          "time": 176.9229,
          "velocity": 0.968503937007874
        },
        {
          "duration": 0.12820499999997992,
          "durationTicks": 32,
          "midi": 55,
          "name": "G3",
          "ticks": 44200,
          "time": 177.08315625,
          "velocity": 0.937007874015748
        },
        {
          "duration": 0.10416656249998368,
          "durationTicks": 26,
          "midi": 48,
          "name": "C3",
          "ticks": 44202,
          "time": 177.0911690625,
          "velocity": 0.9291338582677166
        },
        {
          "duration": 0.0881409374999862,
          "durationTicks": 22,
          "midi": 60,
          "name": "C4",
          "ticks": 44202,
          "time": 177.0911690625,
          "velocity": 0.968503937007874
        },
        {
          "duration": 0.11217937500001085,
          "durationTicks": 28,
          "midi": 67,
          "name": "G4",
          "ticks": 44202,
          "time": 177.0911690625,
          "velocity": 0.968503937007874
        },
        {
          "duration": 0.09615374999998494,
          "durationTicks": 24,
          "midi": 64,
          "name": "E4",
          "ticks": 44204,
          "time": 177.099181875,
          "velocity": 0.968503937007874
        },
        {
          "duration": 0.09615374999998494,
          "durationTicks": 24,
          "midi": 60,
          "name": "C4",
          "ticks": 44250,
          "time": 177.2834765625,
          "velocity": 0.9606299212598425
        },
        {
          "duration": 0.11217937499998243,
          "durationTicks": 28,
          "midi": 48,
          "name": "C3",
          "ticks": 44252,
          "time": 177.291489375,
          "velocity": 0.968503937007874
        },
        {
          "duration": 0.12019218749998117,
          "durationTicks": 30,
          "midi": 55,
          "name": "G3",
          "ticks": 44252,
          "time": 177.291489375,
          "velocity": 0.952755905511811
        },
        {
          "duration": 0.1041665625000121,
          "durationTicks": 26,
          "midi": 67,
          "name": "G4",
          "ticks": 44252,
          "time": 177.291489375,
          "velocity": 0.968503937007874
        },
        {
          "duration": 0.0881409374999862,
          "durationTicks": 22,
          "midi": 64,
          "name": "E4",
          "ticks": 44254,
          "time": 177.2995021875,
          "velocity": 0.968503937007874
        },
        {
          "duration": 0.15224343750000457,
          "durationTicks": 38,
          "midi": 48,
          "name": "C3",
          "ticks": 44296,
          "time": 177.46777125,
          "velocity": 0.8582677165354331
        },
        {
          "duration": 0.1201921875000096,
          "durationTicks": 30,
          "midi": 55,
          "name": "G3",
          "ticks": 44298,
          "time": 177.4757840625,
          "velocity": 0.9606299212598425
        },
        {
          "duration": 0.10416656249998368,
          "durationTicks": 26,
          "midi": 60,
          "name": "C4",
          "ticks": 44298,
          "time": 177.4757840625,
          "velocity": 0.9606299212598425
        },
        {
          "duration": 0.11217937500001085,
          "durationTicks": 28,
          "midi": 67,
          "name": "G4",
          "ticks": 44298,
          "time": 177.4757840625,
          "velocity": 0.968503937007874
        },
        {
          "duration": 0.12820500000000834,
          "durationTicks": 32,
          "midi": 64,
          "name": "E4",
          "ticks": 44300,
          "time": 177.483796875,
          "velocity": 0.9606299212598425
        },
        {
          "duration": 0.14423062500000583,
          "durationTicks": 36,
          "midi": 47,
          "name": "B2",
          "ticks": 44350,
          "time": 177.6841171875,
          "velocity": 0.9448818897637795
        },
        {
          "duration": 0.14423062500000583,
          "durationTicks": 36,
          "midi": 55,
          "name": "G3",
          "ticks": 44352,
          "time": 177.69213,
          "velocity": 0.968503937007874
        },
        {
          "duration": 0.15224343750000457,
          "durationTicks": 38,
          "midi": 59,
          "name": "B3",
          "ticks": 44352,
          "time": 177.69213,
          "velocity": 0.968503937007874
        },
        {
          "duration": 0.16025625000000332,
          "durationTicks": 40,
          "midi": 62,
          "name": "D4",
          "ticks": 44352,
          "time": 177.69213,
          "velocity": 0.968503937007874
        },
        {
          "duration": 0.16025625000000332,
          "durationTicks": 40,
          "midi": 67,
          "name": "G4",
          "ticks": 44352,
          "time": 177.69213,
          "velocity": 0.968503937007874
        },
        {
          "duration": 0.1923074999999983,
          "durationTicks": 48,
          "midi": 47,
          "name": "B2",
          "ticks": 44444,
          "time": 178.060719375,
          "velocity": 0.9448818897637795
        },
        {
          "duration": 0.16025625000000332,
          "durationTicks": 40,
          "midi": 55,
          "name": "G3",
          "ticks": 44446,
          "time": 178.0687321875,
          "velocity": 0.968503937007874
        },
        {
          "duration": 0.15224343750000457,
          "durationTicks": 38,
          "midi": 67,
          "name": "G4",
          "ticks": 44446,
          "time": 178.0687321875,
          "velocity": 0.968503937007874
        },
        {
          "duration": 0.1201921875000096,
          "durationTicks": 30,
          "midi": 59,
          "name": "B3",
          "ticks": 44448,
          "time": 178.076745,
          "velocity": 0.968503937007874
        },
        {
          "duration": 0.1762818750000008,
          "durationTicks": 44,
          "midi": 62,
          "name": "D4",
          "ticks": 44448,
          "time": 178.076745,
          "velocity": 0.968503937007874
        },
        {
          "duration": 0.12820500000000834,
          "durationTicks": 32,
          "midi": 53,
          "name": "F3",
          "ticks": 44540,
          "time": 178.445334375,
          "velocity": 0.968503937007874
        },
        {
          "duration": 0.1201921875000096,
          "durationTicks": 30,
          "midi": 46,
          "name": "A#2",
          "ticks": 44544,
          "time": 178.46135999999998,
          "velocity": 0.9606299212598425
        },
        {
          "duration": 0.1041665625000121,
          "durationTicks": 26,
          "midi": 58,
          "name": "A#3",
          "ticks": 44544,
          "time": 178.46135999999998,
          "velocity": 0.968503937007874
        },
        {
          "duration": 0.09615375000001336,
          "durationTicks": 24,
          "midi": 62,
          "name": "D4",
          "ticks": 44544,
          "time": 178.46135999999998,
          "velocity": 0.968503937007874
        },
        {
          "duration": 0.11217937500001085,
          "durationTicks": 28,
          "midi": 65,
          "name": "F4",
          "ticks": 44546,
          "time": 178.46937281249998,
          "velocity": 0.968503937007874
        },
        {
          "duration": 0.11217937500001085,
          "durationTicks": 28,
          "midi": 62,
          "name": "D4",
          "ticks": 44584,
          "time": 178.62161625,
          "velocity": 0.905511811023622
        },
        {
          "duration": 0.12820500000000834,
          "durationTicks": 32,
          "midi": 53,
          "name": "F3",
          "ticks": 44586,
          "time": 178.6296290625,
          "velocity": 0.9606299212598425
        },
        {
          "duration": 0.1201921875000096,
          "durationTicks": 30,
          "midi": 58,
          "name": "A#3",
          "ticks": 44586,
          "time": 178.6296290625,
          "velocity": 0.9448818897637795
        },
        {
          "duration": 0.11217937500001085,
          "durationTicks": 28,
          "midi": 46,
          "name": "A#2",
          "ticks": 44588,
          "time": 178.63764187499999,
          "velocity": 0.952755905511811
        },
        {
          "duration": 0.11217937500001085,
          "durationTicks": 28,
          "midi": 65,
          "name": "F4",
          "ticks": 44588,
          "time": 178.63764187499999,
          "velocity": 0.968503937007874
        },
        {
          "duration": 0.11217937500001085,
          "durationTicks": 28,
          "midi": 62,
          "name": "D4",
          "ticks": 44632,
          "time": 178.81392375,
          "velocity": 0.968503937007874
        },
        {
          "duration": 0.2804484375000129,
          "durationTicks": 70,
          "midi": 53,
          "name": "F3",
          "ticks": 44634,
          "time": 178.82193656249999,
          "velocity": 0.9606299212598425
        },
        {
          "duration": 0.1201921875000096,
          "durationTicks": 30,
          "midi": 58,
          "name": "A#3",
          "ticks": 44634,
          "time": 178.82193656249999,
          "velocity": 0.968503937007874
        },
        {
          "duration": 0.12820500000000834,
          "durationTicks": 32,
          "midi": 65,
          "name": "F4",
          "ticks": 44634,
          "time": 178.82193656249999,
          "velocity": 0.889763779527559
        },
        {
          "duration": 0.10416656249998368,
          "durationTicks": 26,
          "midi": 46,
          "name": "A#2",
          "ticks": 44638,
          "time": 178.8379621875,
          "velocity": 0.9448818897637795
        },
        {
          "duration": 0.12820499999997992,
          "durationTicks": 32,
          "midi": 58,
          "name": "A#3",
          "ticks": 44680,
          "time": 179.00623125,
          "velocity": 0.9606299212598425
        },
        {
          "duration": 0.10416656249998368,
          "durationTicks": 26,
          "midi": 62,
          "name": "D4",
          "ticks": 44680,
          "time": 179.00623125,
          "velocity": 0.968503937007874
        },
        {
          "duration": 0.1201921875000096,
          "durationTicks": 30,
          "midi": 65,
          "name": "F4",
          "ticks": 44682,
          "time": 179.01424406249998,
          "velocity": 0.9212598425196851
        },
        {
          "duration": 0.15224343750000457,
          "durationTicks": 38,
          "midi": 46,
          "name": "A#2",
          "ticks": 44684,
          "time": 179.02225687499998,
          "velocity": 0.952755905511811
        },
        {
          "duration": 0.09615375000001336,
          "durationTicks": 24,
          "midi": 66,
          "name": "F#4",
          "ticks": 44684,
          "time": 179.02225687499998,
          "velocity": 0.9448818897637795
        },
        {
          "duration": 0.2083331250000242,
          "durationTicks": 52,
          "midi": 66,
          "name": "F#4",
          "ticks": 44732,
          "time": 179.21456437499998,
          "velocity": 0.968503937007874
        },
        {
          "duration": 0.21634593749999453,
          "durationTicks": 54,
          "midi": 50,
          "name": "D3",
          "ticks": 44734,
          "time": 179.2225771875,
          "velocity": 0.9606299212598425
        },
        {
          "duration": 0.20032031249999704,
          "durationTicks": 50,
          "midi": 54,
          "name": "F#3",
          "ticks": 44734,
          "time": 179.2225771875,
          "velocity": 0.968503937007874
        },
        {
          "duration": 0.18429468749997113,
          "durationTicks": 46,
          "midi": 60,
          "name": "C4",
          "ticks": 44734,
          "time": 179.2225771875,
          "velocity": 0.968503937007874
        },
        {
          "duration": 0.22435874999999328,
          "durationTicks": 56,
          "midi": 62,
          "name": "D4",
          "ticks": 44734,
          "time": 179.2225771875,
          "velocity": 0.968503937007874
        },
        {
          "duration": 0.21634593749999453,
          "durationTicks": 54,
          "midi": 50,
          "name": "D3",
          "ticks": 44836,
          "time": 179.631230625,
          "velocity": 0.9606299212598425
        },
        {
          "duration": 0.18429468749997113,
          "durationTicks": 46,
          "midi": 54,
          "name": "F#3",
          "ticks": 44836,
          "time": 179.631230625,
          "velocity": 0.968503937007874
        },
        {
          "duration": 0.16826906250000206,
          "durationTicks": 42,
          "midi": 60,
          "name": "C4",
          "ticks": 44838,
          "time": 179.6392434375,
          "velocity": 0.968503937007874
        },
        {
          "duration": 0.1923074999999983,
          "durationTicks": 48,
          "midi": 62,
          "name": "D4",
          "ticks": 44838,
          "time": 179.6392434375,
          "velocity": 0.968503937007874
        },
        {
          "duration": 0.21634593749999453,
          "durationTicks": 54,
          "midi": 66,
          "name": "F#4",
          "ticks": 44838,
          "time": 179.6392434375,
          "velocity": 0.968503937007874
        },
        {
          "duration": 0.28846124999998324,
          "durationTicks": 72,
          "midi": 50,
          "name": "D3",
          "ticks": 44930,
          "time": 180.0078328125,
          "velocity": 0.968503937007874
        },
        {
          "duration": 0.27243562500001417,
          "durationTicks": 68,
          "midi": 67,
          "name": "G4",
          "ticks": 44930,
          "time": 180.0078328125,
          "velocity": 0.968503937007874
        },
        {
          "duration": 0.27243562499998575,
          "durationTicks": 68,
          "midi": 43,
          "name": "G2",
          "ticks": 44932,
          "time": 180.015845625,
          "velocity": 0.968503937007874
        },
        {
          "duration": 0.27243562499998575,
          "durationTicks": 68,
          "midi": 55,
          "name": "G3",
          "ticks": 44932,
          "time": 180.015845625,
          "velocity": 0.968503937007874
        },
        {
          "duration": 0.25640999999998826,
          "durationTicks": 64,
          "midi": 59,
          "name": "B3",
          "ticks": 44932,
          "time": 180.015845625,
          "velocity": 0.968503937007874
        },
        {
          "duration": 0.2483971874999895,
          "durationTicks": 62,
          "midi": 62,
          "name": "D4",
          "ticks": 44932,
          "time": 180.015845625,
          "velocity": 0.968503937007874
        },
        {
          "duration": 0.024038437499996235,
          "durationTicks": 6,
          "midi": 66,
          "name": "F#4",
          "ticks": 44940,
          "time": 180.047896875,
          "velocity": 0.7952755905511811
        },
        {
          "duration": 0.1201921875000096,
          "durationTicks": 30,
          "midi": 61,
          "name": "C#4",
          "ticks": 46752,
          "time": 187.307505,
          "velocity": 0.889763779527559
        },
        {
          "duration": 0.09615375000001336,
          "durationTicks": 24,
          "midi": 65,
          "name": "F4",
          "ticks": 46752,
          "time": 187.307505,
          "velocity": 0.889763779527559
        },
        {
          "duration": 0.08814093750001462,
          "durationTicks": 22,
          "midi": 68,
          "name": "G#4",
          "ticks": 46752,
          "time": 187.307505,
          "velocity": 0.889763779527559
        },
        {
          "duration": 0.09615375000001336,
          "durationTicks": 24,
          "midi": 73,
          "name": "C#5",
          "ticks": 46752,
          "time": 187.307505,
          "velocity": 0.889763779527559
        },
        {
          "duration": 0.08012812499998745,
          "durationTicks": 20,
          "midi": 60,
          "name": "C4",
          "ticks": 46848,
          "time": 187.69212,
          "velocity": 0.8976377952755905
        },
        {
          "duration": 0.06410250000001838,
          "durationTicks": 16,
          "midi": 64,
          "name": "E4",
          "ticks": 46848,
          "time": 187.69212,
          "velocity": 0.8976377952755905
        },
        {
          "duration": 0.06410250000001838,
          "durationTicks": 16,
          "midi": 67,
          "name": "G4",
          "ticks": 46848,
          "time": 187.69212,
          "velocity": 0.8976377952755905
        },
        {
          "duration": 0.08012812499998745,
          "durationTicks": 20,
          "midi": 72,
          "name": "C5",
          "ticks": 46848,
          "time": 187.69212,
          "velocity": 0.8976377952755905
        },
        {
          "duration": 0.08012812499998745,
          "durationTicks": 20,
          "midi": 60,
          "name": "C4",
          "ticks": 46896,
          "time": 187.8844275,
          "velocity": 0.8976377952755905
        },
        {
          "duration": 0.06410250000001838,
          "durationTicks": 16,
          "midi": 64,
          "name": "E4",
          "ticks": 46896,
          "time": 187.8844275,
          "velocity": 0.8976377952755905
        },
        {
          "duration": 0.07211531250001713,
          "durationTicks": 18,
          "midi": 67,
          "name": "G4",
          "ticks": 46896,
          "time": 187.8844275,
          "velocity": 0.8976377952755905
        },
        {
          "duration": 0.07211531250001713,
          "durationTicks": 18,
          "midi": 72,
          "name": "C5",
          "ticks": 46896,
          "time": 187.8844275,
          "velocity": 0.8976377952755905
        },
        {
          "duration": 0.11217937500001085,
          "durationTicks": 28,
          "midi": 59,
          "name": "B3",
          "ticks": 46944,
          "time": 188.07673499999999,
          "velocity": 0.8976377952755905
        },
        {
          "duration": 0.07211531250001713,
          "durationTicks": 18,
          "midi": 63,
          "name": "D#4",
          "ticks": 46944,
          "time": 188.07673499999999,
          "velocity": 0.8976377952755905
        },
        {
          "duration": 0.12820500000000834,
          "durationTicks": 32,
          "midi": 66,
          "name": "F#4",
          "ticks": 46944,
          "time": 188.07673499999999,
          "velocity": 0.8976377952755905
        },
        {
          "duration": 0.1201921875000096,
          "durationTicks": 30,
          "midi": 71,
          "name": "B4",
          "ticks": 46944,
          "time": 188.07673499999999,
          "velocity": 0.8976377952755905
        },
        {
          "duration": 0.16025625000003174,
          "durationTicks": 40,
          "midi": 60,
          "name": "C4",
          "ticks": 47040,
          "time": 188.46134999999998,
          "velocity": 0.8976377952755905
        },
        {
          "duration": 0.08012812500001587,
          "durationTicks": 20,
          "midi": 64,
          "name": "E4",
          "ticks": 47040,
          "time": 188.46134999999998,
          "velocity": 0.8976377952755905
        },
        {
          "duration": 0.12820500000000834,
          "durationTicks": 32,
          "midi": 67,
          "name": "G4",
          "ticks": 47040,
          "time": 188.46134999999998,
          "velocity": 0.8976377952755905
        },
        {
          "duration": 0.1201921875000096,
          "durationTicks": 30,
          "midi": 72,
          "name": "C5",
          "ticks": 47040,
          "time": 188.46134999999998,
          "velocity": 0.8976377952755905
        },
        {
          "duration": 0.15224343750000457,
          "durationTicks": 38,
          "midi": 61,
          "name": "C#4",
          "ticks": 47136,
          "time": 188.84596499999998,
          "velocity": 0.8976377952755905
        },
        {
          "duration": 0.1041665625000121,
          "durationTicks": 26,
          "midi": 65,
          "name": "F4",
          "ticks": 47136,
          "time": 188.84596499999998,
          "velocity": 0.8976377952755905
        },
        {
          "duration": 0.1041665625000121,
          "durationTicks": 26,
          "midi": 68,
          "name": "G#4",
          "ticks": 47136,
          "time": 188.84596499999998,
          "velocity": 0.8976377952755905
        },
        {
          "duration": 0.1201921875000096,
          "durationTicks": 30,
          "midi": 73,
          "name": "C#5",
          "ticks": 47136,
          "time": 188.84596499999998,
          "velocity": 0.8976377952755905
        },
        {
          "duration": 0.08012812499998745,
          "durationTicks": 20,
          "midi": 60,
          "name": "C4",
          "ticks": 47232,
          "time": 189.23058,
          "velocity": 0.8976377952755905
        },
        {
          "duration": 0.056089687499991214,
          "durationTicks": 14,
          "midi": 64,
          "name": "E4",
          "ticks": 47232,
          "time": 189.23058,
          "velocity": 0.8976377952755905
        },
        {
          "duration": 0.0721153124999887,
          "durationTicks": 18,
          "midi": 67,
          "name": "G4",
          "ticks": 47232,
          "time": 189.23058,
          "velocity": 0.8976377952755905
        },
        {
          "duration": 0.09615374999998494,
          "durationTicks": 24,
          "midi": 72,
          "name": "C5",
          "ticks": 47232,
          "time": 189.23058,
          "velocity": 0.8976377952755905
        },
        {
          "duration": 0.0881409374999862,
          "durationTicks": 22,
          "midi": 60,
          "name": "C4",
          "ticks": 47280,
          "time": 189.4228875,
          "velocity": 0.8976377952755905
        },
        {
          "duration": 0.040064062499993724,
          "durationTicks": 10,
          "midi": 64,
          "name": "E4",
          "ticks": 47280,
          "time": 189.4228875,
          "velocity": 0.8976377952755905
        },
        {
          "duration": 0.0881409374999862,
          "durationTicks": 22,
          "midi": 67,
          "name": "G4",
          "ticks": 47280,
          "time": 189.4228875,
          "velocity": 0.8976377952755905
        },
        {
          "duration": 0.0881409374999862,
          "durationTicks": 22,
          "midi": 72,
          "name": "C5",
          "ticks": 47280,
          "time": 189.4228875,
          "velocity": 0.8976377952755905
        },
        {
          "duration": 0.34455093749997445,
          "durationTicks": 86,
          "midi": 59,
          "name": "B3",
          "ticks": 47328,
          "time": 189.615195,
          "velocity": 0.8976377952755905
        },
        {
          "duration": 0.1923074999999983,
          "durationTicks": 48,
          "midi": 63,
          "name": "D#4",
          "ticks": 47328,
          "time": 189.615195,
          "velocity": 0.8976377952755905
        },
        {
          "duration": 0.22435874999999328,
          "durationTicks": 56,
          "midi": 66,
          "name": "F#4",
          "ticks": 47328,
          "time": 189.615195,
          "velocity": 0.8976377952755905
        },
        {
          "duration": 0.22435874999999328,
          "durationTicks": 56,
          "midi": 71,
          "name": "B4",
          "ticks": 47328,
          "time": 189.615195,
          "velocity": 0.8976377952755905
        },
        {
          "duration": 0.15224343749997615,
          "durationTicks": 38,
          "midi": 60,
          "name": "C4",
          "ticks": 47424,
          "time": 189.99981,
          "velocity": 0.9606299212598425
        },
        {
          "duration": 0.2483971874999895,
          "durationTicks": 62,
          "midi": 64,
          "name": "E4",
          "ticks": 47424,
          "time": 189.99981,
          "velocity": 0.9606299212598425
        },
        {
          "duration": 0.3846149999999966,
          "durationTicks": 96,
          "midi": 67,
          "name": "G4",
          "ticks": 47424,
          "time": 189.99981,
          "velocity": 0.9448818897637795
        },
        {
          "duration": 0.2564100000000167,
          "durationTicks": 64,
          "midi": 72,
          "name": "C5",
          "ticks": 47424,
          "time": 189.99981,
          "velocity": 0.9448818897637795
        },
        {
          "duration": 0.21634593749999453,
          "durationTicks": 54,
          "midi": 41,
          "name": "F2",
          "ticks": 47520,
          "time": 190.384425,
          "velocity": 0.9212598425196851
        },
        {
          "duration": 0.1762818750000008,
          "durationTicks": 44,
          "midi": 53,
          "name": "F3",
          "ticks": 47520,
          "time": 190.384425,
          "velocity": 0.968503937007874
        },
        {
          "duration": 0.22435874999999328,
          "durationTicks": 56,
          "midi": 65,
          "name": "F4",
          "ticks": 47520,
          "time": 190.384425,
          "velocity": 0.968503937007874
        },
        {
          "duration": 0.296474062499982,
          "durationTicks": 74,
          "midi": 70,
          "name": "A#4",
          "ticks": 47520,
          "time": 190.384425,
          "velocity": 0.968503937007874
        },
        {
          "duration": 0.30448687500000915,
          "durationTicks": 76,
          "midi": 74,
          "name": "D5",
          "ticks": 47520,
          "time": 190.384425,
          "velocity": 0.952755905511811
        },
        {
          "duration": 0.08814093750001462,
          "durationTicks": 22,
          "midi": 41,
          "name": "F2",
          "ticks": 47616,
          "time": 190.76904,
          "velocity": 0.9606299212598425
        },
        {
          "duration": 0.0721153124999887,
          "durationTicks": 18,
          "midi": 53,
          "name": "F3",
          "ticks": 47616,
          "time": 190.76904,
          "velocity": 0.8976377952755905
        },
        {
          "duration": 0.08012812499998745,
          "durationTicks": 20,
          "midi": 65,
          "name": "F4",
          "ticks": 47616,
          "time": 190.76904,
          "velocity": 0.968503937007874
        },
        {
          "duration": 0.08012812499998745,
          "durationTicks": 20,
          "midi": 69,
          "name": "A4",
          "ticks": 47616,
          "time": 190.76904,
          "velocity": 0.968503937007874
        },
        {
          "duration": 0.09615375000001336,
          "durationTicks": 24,
          "midi": 72,
          "name": "C5",
          "ticks": 47616,
          "time": 190.76904,
          "velocity": 0.968503937007874
        },
        {
          "duration": 0.07211531250001713,
          "durationTicks": 18,
          "midi": 41,
          "name": "F2",
          "ticks": 47664,
          "time": 190.9613475,
          "velocity": 0.9133858267716536
        },
        {
          "duration": 0.08814093750001462,
          "durationTicks": 22,
          "midi": 53,
          "name": "F3",
          "ticks": 47664,
          "time": 190.9613475,
          "velocity": 0.9291338582677166
        },
        {
          "duration": 0.04807687499999247,
          "durationTicks": 12,
          "midi": 65,
          "name": "F4",
          "ticks": 47664,
          "time": 190.9613475,
          "velocity": 0.9212598425196851
        },
        {
          "duration": 0.056089687499991214,
          "durationTicks": 14,
          "midi": 69,
          "name": "A4",
          "ticks": 47664,
          "time": 190.9613475,
          "velocity": 0.952755905511811
        },
        {
          "duration": 0.10416656249998368,
          "durationTicks": 26,
          "midi": 72,
          "name": "C5",
          "ticks": 47664,
          "time": 190.9613475,
          "velocity": 0.9133858267716536
        },
        {
          "duration": 0.2403843750000192,
          "durationTicks": 60,
          "midi": 41,
          "name": "F2",
          "ticks": 47712,
          "time": 191.153655,
          "velocity": 0.9291338582677166
        },
        {
          "duration": 0.2483971874999895,
          "durationTicks": 62,
          "midi": 53,
          "name": "F3",
          "ticks": 47712,
          "time": 191.153655,
          "velocity": 0.968503937007874
        },
        {
          "duration": 0.23237156250002045,
          "durationTicks": 58,
          "midi": 65,
          "name": "F4",
          "ticks": 47712,
          "time": 191.153655,
          "velocity": 0.9448818897637795
        },
        {
          "duration": 0.2483971874999895,
          "durationTicks": 62,
          "midi": 68,
          "name": "G#4",
          "ticks": 47712,
          "time": 191.153655,
          "velocity": 0.9606299212598425
        },
        {
          "duration": 0.28846125000001166,
          "durationTicks": 72,
          "midi": 71,
          "name": "B4",
          "ticks": 47712,
          "time": 191.153655,
          "velocity": 0.9212598425196851
        },
        {
          "duration": 0.2644228125000154,
          "durationTicks": 66,
          "midi": 41,
          "name": "F2",
          "ticks": 47808,
          "time": 191.53826999999998,
          "velocity": 0.9212598425196851
        },
        {
          "duration": 0.27243562500001417,
          "durationTicks": 68,
          "midi": 53,
          "name": "F3",
          "ticks": 47808,
          "time": 191.53826999999998,
          "velocity": 0.968503937007874
        },
        {
          "duration": 0.2564100000000167,
          "durationTicks": 64,
          "midi": 65,
          "name": "F4",
          "ticks": 47808,
          "time": 191.53826999999998,
          "velocity": 0.968503937007874
        },
        {
          "duration": 0.2804484375000129,
          "durationTicks": 70,
          "midi": 69,
          "name": "A4",
          "ticks": 47808,
          "time": 191.53826999999998,
          "velocity": 0.968503937007874
        },
        {
          "duration": 0.30448687500000915,
          "durationTicks": 76,
          "midi": 72,
          "name": "C5",
          "ticks": 47808,
          "time": 191.53826999999998,
          "velocity": 0.968503937007874
        },
        {
          "duration": 0.06410250000001838,
          "durationTicks": 16,
          "midi": 41,
          "name": "F2",
          "ticks": 47904,
          "time": 191.92288499999998,
          "velocity": 0.8267716535433071
        },
        {
          "duration": 0.07211531250001713,
          "durationTicks": 18,
          "midi": 53,
          "name": "F3",
          "ticks": 47904,
          "time": 191.92288499999998,
          "velocity": 0.937007874015748
        },
        {
          "duration": 0.06410250000001838,
          "durationTicks": 16,
          "midi": 65,
          "name": "F4",
          "ticks": 47904,
          "time": 191.92288499999998,
          "velocity": 0.968503937007874
        },
        {
          "duration": 0.056089687500019636,
          "durationTicks": 14,
          "midi": 70,
          "name": "A#4",
          "ticks": 47904,
          "time": 191.92288499999998,
          "velocity": 0.968503937007874
        },
        {
          "duration": 0.06410250000001838,
          "durationTicks": 16,
          "midi": 74,
          "name": "D5",
          "ticks": 47904,
          "time": 191.92288499999998,
          "velocity": 0.9291338582677166
        },
        {
          "duration": 0.056089687499991214,
          "durationTicks": 14,
          "midi": 41,
          "name": "F2",
          "ticks": 47952,
          "time": 192.1151925,
          "velocity": 0.9212598425196851
        },
        {
          "duration": 0.0721153124999887,
          "durationTicks": 18,
          "midi": 53,
          "name": "F3",
          "ticks": 47952,
          "time": 192.1151925,
          "velocity": 0.9448818897637795
        },
        {
          "duration": 0.04807687499999247,
          "durationTicks": 12,
          "midi": 65,
          "name": "F4",
          "ticks": 47952,
          "time": 192.1151925,
          "velocity": 0.9448818897637795
        },
        {
          "duration": 0.0881409374999862,
          "durationTicks": 22,
          "midi": 70,
          "name": "A#4",
          "ticks": 47952,
          "time": 192.1151925,
          "velocity": 0.9448818897637795
        },
        {
          "duration": 0.040064062499993724,
          "durationTicks": 10,
          "midi": 74,
          "name": "D5",
          "ticks": 47952,
          "time": 192.1151925,
          "velocity": 0.9448818897637795
        },
        {
          "duration": 0.24038437499999077,
          "durationTicks": 60,
          "midi": 41,
          "name": "F2",
          "ticks": 48000,
          "time": 192.3075,
          "velocity": 0.9448818897637795
        },
        {
          "duration": 0.27243562499998575,
          "durationTicks": 68,
          "midi": 53,
          "name": "F3",
          "ticks": 48000,
          "time": 192.3075,
          "velocity": 0.9448818897637795
        },
        {
          "duration": 0.264422812499987,
          "durationTicks": 66,
          "midi": 65,
          "name": "F4",
          "ticks": 48000,
          "time": 192.3075,
          "velocity": 0.9606299212598425
        },
        {
          "duration": 0.22435874999999328,
          "durationTicks": 56,
          "midi": 69,
          "name": "A4",
          "ticks": 48000,
          "time": 192.3075,
          "velocity": 0.9606299212598425
        },
        {
          "duration": 0.27243562499998575,
          "durationTicks": 68,
          "midi": 72,
          "name": "C5",
          "ticks": 48000,
          "time": 192.3075,
          "velocity": 0.9212598425196851
        },
        {
          "duration": 0.0721153124999887,
          "durationTicks": 18,
          "midi": 41,
          "name": "F2",
          "ticks": 48096,
          "time": 192.692115,
          "velocity": 0.9212598425196851
        },
        {
          "duration": 0.0881409374999862,
          "durationTicks": 22,
          "midi": 53,
          "name": "F3",
          "ticks": 48096,
          "time": 192.692115,
          "velocity": 0.9448818897637795
        },
        {
          "duration": 0.0721153124999887,
          "durationTicks": 18,
          "midi": 65,
          "name": "F4",
          "ticks": 48096,
          "time": 192.692115,
          "velocity": 0.8976377952755905
        },
        {
          "duration": 0.09615374999998494,
          "durationTicks": 24,
          "midi": 68,
          "name": "G#4",
          "ticks": 48096,
          "time": 192.692115,
          "velocity": 0.9606299212598425
        },
        {
          "duration": 0.04807687499999247,
          "durationTicks": 12,
          "midi": 71,
          "name": "B4",
          "ticks": 48096,
          "time": 192.692115,
          "velocity": 0.9212598425196851
        },
        {
          "duration": 0.0881409374999862,
          "durationTicks": 22,
          "midi": 41,
          "name": "F2",
          "ticks": 48144,
          "time": 192.8844225,
          "velocity": 0.8976377952755905
        },
        {
          "duration": 0.10416656249998368,
          "durationTicks": 26,
          "midi": 53,
          "name": "F3",
          "ticks": 48144,
          "time": 192.8844225,
          "velocity": 0.9606299212598425
        },
        {
          "duration": 0.0881409374999862,
          "durationTicks": 22,
          "midi": 65,
          "name": "F4",
          "ticks": 48144,
          "time": 192.8844225,
          "velocity": 0.7322834645669292
        },
        {
          "duration": 0.11217937500001085,
          "durationTicks": 28,
          "midi": 68,
          "name": "G#4",
          "ticks": 48144,
          "time": 192.8844225,
          "velocity": 0.8661417322834646
        },
        {
          "duration": 0.12019218749998117,
          "durationTicks": 30,
          "midi": 71,
          "name": "B4",
          "ticks": 48144,
          "time": 192.8844225,
          "velocity": 0.905511811023622
        },
        {
          "duration": 0.15224343749997615,
          "durationTicks": 38,
          "midi": 41,
          "name": "F2",
          "ticks": 48192,
          "time": 193.07673,
          "velocity": 0.937007874015748
        },
        {
          "duration": 0.1923074999999983,
          "durationTicks": 48,
          "midi": 53,
          "name": "F3",
          "ticks": 48192,
          "time": 193.07673,
          "velocity": 0.968503937007874
        },
        {
          "duration": 0.2083331249999958,
          "durationTicks": 52,
          "midi": 65,
          "name": "F4",
          "ticks": 48192,
          "time": 193.07673,
          "velocity": 0.968503937007874
        },
        {
          "duration": 0.14423062500000583,
          "durationTicks": 36,
          "midi": 69,
          "name": "A4",
          "ticks": 48192,
          "time": 193.07673,
          "velocity": 0.968503937007874
        },
        {
          "duration": 0.15224343749997615,
          "durationTicks": 38,
          "midi": 72,
          "name": "C5",
          "ticks": 48192,
          "time": 193.07673,
          "velocity": 0.968503937007874
        },
        {
          "duration": 0.264422812499987,
          "durationTicks": 66,
          "midi": 46,
          "name": "A#2",
          "ticks": 48288,
          "time": 193.461345,
          "velocity": 0.952755905511811
        },
        {
          "duration": 0.28846125000001166,
          "durationTicks": 72,
          "midi": 58,
          "name": "A#3",
          "ticks": 48288,
          "time": 193.461345,
          "velocity": 0.9606299212598425
        },
        {
          "duration": 0.21634593749999453,
          "durationTicks": 54,
          "midi": 65,
          "name": "F4",
          "ticks": 48288,
          "time": 193.461345,
          "velocity": 0.968503937007874
        },
        {
          "duration": 0.2483971874999895,
          "durationTicks": 62,
          "midi": 70,
          "name": "A#4",
          "ticks": 48288,
          "time": 193.461345,
          "velocity": 0.968503937007874
        },
        {
          "duration": 0.23237156249999202,
          "durationTicks": 58,
          "midi": 74,
          "name": "D5",
          "ticks": 48288,
          "time": 193.461345,
          "velocity": 0.952755905511811
        },
        {
          "duration": 0.2804484375000129,
          "durationTicks": 70,
          "midi": 46,
          "name": "A#2",
          "ticks": 48384,
          "time": 193.84596,
          "velocity": 0.937007874015748
        },
        {
          "duration": 0.27243562499998575,
          "durationTicks": 68,
          "midi": 58,
          "name": "A#3",
          "ticks": 48384,
          "time": 193.84596,
          "velocity": 0.968503937007874
        },
        {
          "duration": 0.2644228125000154,
          "durationTicks": 66,
          "midi": 65,
          "name": "F4",
          "ticks": 48384,
          "time": 193.84596,
          "velocity": 0.968503937007874
        },
        {
          "duration": 0.2483971874999895,
          "durationTicks": 62,
          "midi": 70,
          "name": "A#4",
          "ticks": 48384,
          "time": 193.84596,
          "velocity": 0.9606299212598425
        },
        {
          "duration": 0.24038437499999077,
          "durationTicks": 60,
          "midi": 74,
          "name": "D5",
          "ticks": 48384,
          "time": 193.84596,
          "velocity": 0.9606299212598425
        },
        {
          "duration": 0.1201921875000096,
          "durationTicks": 30,
          "midi": 76,
          "name": "E5",
          "ticks": 48432,
          "time": 194.0382675,
          "velocity": 0.9212598425196851
        },
        {
          "duration": 0.12820500000000834,
          "durationTicks": 32,
          "midi": 45,
          "name": "A2",
          "ticks": 48480,
          "time": 194.230575,
          "velocity": 0.968503937007874
        },
        {
          "duration": 0.12820500000000834,
          "durationTicks": 32,
          "midi": 57,
          "name": "A3",
          "ticks": 48480,
          "time": 194.230575,
          "velocity": 0.9606299212598425
        },
        {
          "duration": 0.13621781250000708,
          "durationTicks": 34,
          "midi": 65,
          "name": "F4",
          "ticks": 48480,
          "time": 194.230575,
          "velocity": 0.9606299212598425
        },
        {
          "duration": 0.12820500000000834,
          "durationTicks": 32,
          "midi": 69,
          "name": "A4",
          "ticks": 48480,
          "time": 194.230575,
          "velocity": 0.968503937007874
        },
        {
          "duration": 0.1201921875000096,
          "durationTicks": 30,
          "midi": 72,
          "name": "C5",
          "ticks": 48480,
          "time": 194.230575,
          "velocity": 0.968503937007874
        },
        {
          "duration": 0.28846125000001166,
          "durationTicks": 72,
          "midi": 45,
          "name": "A2",
          "ticks": 48576,
          "time": 194.61518999999998,
          "velocity": 0.968503937007874
        },
        {
          "duration": 0.2403843750000192,
          "durationTicks": 60,
          "midi": 57,
          "name": "A3",
          "ticks": 48576,
          "time": 194.61518999999998,
          "velocity": 0.968503937007874
        },
        {
          "duration": 0.08814093750001462,
          "durationTicks": 22,
          "midi": 65,
          "name": "F4",
          "ticks": 48576,
          "time": 194.61518999999998,
          "velocity": 0.968503937007874
        },
        {
          "duration": 0.18429468750002798,
          "durationTicks": 46,
          "midi": 69,
          "name": "A4",
          "ticks": 48576,
          "time": 194.61518999999998,
          "velocity": 0.968503937007874
        },
        {
          "duration": 0.16826906250000206,
          "durationTicks": 42,
          "midi": 72,
          "name": "C5",
          "ticks": 48576,
          "time": 194.61518999999998,
          "velocity": 0.968503937007874
        },
        {
          "duration": 0.3445509375000029,
          "durationTicks": 86,
          "midi": 65,
          "name": "F4",
          "ticks": 48624,
          "time": 194.80749749999998,
          "velocity": 0.9606299212598425
        },
        {
          "duration": 0.15224343750000457,
          "durationTicks": 38,
          "midi": 43,
          "name": "G2",
          "ticks": 48672,
          "time": 194.99980499999998,
          "velocity": 0.968503937007874
        },
        {
          "duration": 0.15224343750000457,
          "durationTicks": 38,
          "midi": 55,
          "name": "G3",
          "ticks": 48672,
          "time": 194.99980499999998,
          "velocity": 0.9448818897637795
        },
        {
          "duration": 0.16025625000003174,
          "durationTicks": 40,
          "midi": 67,
          "name": "G4",
          "ticks": 48672,
          "time": 194.99980499999998,
          "velocity": 0.9606299212598425
        },
        {
          "duration": 0.14423062500000583,
          "durationTicks": 36,
          "midi": 71,
          "name": "B4",
          "ticks": 48672,
          "time": 194.99980499999998,
          "velocity": 0.968503937007874
        },
        {
          "duration": 0.0881409374999862,
          "durationTicks": 22,
          "midi": 43,
          "name": "G2",
          "ticks": 48768,
          "time": 195.38442,
          "velocity": 0.968503937007874
        },
        {
          "duration": 0.11217937499998243,
          "durationTicks": 28,
          "midi": 55,
          "name": "G3",
          "ticks": 48768,
          "time": 195.38442,
          "velocity": 0.968503937007874
        },
        {
          "duration": 0.09615374999998494,
          "durationTicks": 24,
          "midi": 65,
          "name": "F4",
          "ticks": 48768,
          "time": 195.38442,
          "velocity": 0.968503937007874
        },
        {
          "duration": 0.08012812499998745,
          "durationTicks": 20,
          "midi": 67,
          "name": "G4",
          "ticks": 48768,
          "time": 195.38442,
          "velocity": 0.968503937007874
        },
        {
          "duration": 0.10416656249998368,
          "durationTicks": 26,
          "midi": 71,
          "name": "B4",
          "ticks": 48768,
          "time": 195.38442,
          "velocity": 0.9291338582677166
        },
        {
          "duration": 0.18429468749999955,
          "durationTicks": 46,
          "midi": 43,
          "name": "G2",
          "ticks": 48816,
          "time": 195.5767275,
          "velocity": 0.889763779527559
        },
        {
          "duration": 0.1923074999999983,
          "durationTicks": 48,
          "midi": 55,
          "name": "G3",
          "ticks": 48816,
          "time": 195.5767275,
          "velocity": 0.968503937007874
        },
        {
          "duration": 0.08012812499998745,
          "durationTicks": 20,
          "midi": 65,
          "name": "F4",
          "ticks": 48816,
          "time": 195.5767275,
          "velocity": 0.952755905511811
        },
        {
          "duration": 0.09615374999998494,
          "durationTicks": 24,
          "midi": 67,
          "name": "G4",
          "ticks": 48816,
          "time": 195.5767275,
          "velocity": 0.9606299212598425
        },
        {
          "duration": 0.13621781250000708,
          "durationTicks": 34,
          "midi": 71,
          "name": "B4",
          "ticks": 48816,
          "time": 195.5767275,
          "velocity": 0.905511811023622
        },
        {
          "duration": 0.28846124999998324,
          "durationTicks": 72,
          "midi": 48,
          "name": "C3",
          "ticks": 48864,
          "time": 195.769035,
          "velocity": 0.9606299212598425
        },
        {
          "duration": 0.10416656249998368,
          "durationTicks": 26,
          "midi": 60,
          "name": "C4",
          "ticks": 48864,
          "time": 195.769035,
          "velocity": 0.9606299212598425
        },
        {
          "duration": 0.16025625000000332,
          "durationTicks": 40,
          "midi": 67,
          "name": "G4",
          "ticks": 48864,
          "time": 195.769035,
          "velocity": 0.968503937007874
        },
        {
          "duration": 0.20032031249996862,
          "durationTicks": 50,
          "midi": 72,
          "name": "C5",
          "ticks": 48864,
          "time": 195.769035,
          "velocity": 0.9606299212598425
        },
        {
          "duration": 0.08012812499998745,
          "durationTicks": 20,
          "midi": 72,
          "name": "C5",
          "ticks": 48960,
          "time": 196.15365,
          "velocity": 0.968503937007874
        },
        {
          "duration": 0.16025625000000332,
          "durationTicks": 40,
          "midi": 72,
          "name": "C5",
          "ticks": 49008,
          "time": 196.3459575,
          "velocity": 0.952755905511811
        },
        {
          "duration": 0.3846149999999966,
          "durationTicks": 96,
          "midi": 70,
          "name": "A#4",
          "ticks": 49056,
          "time": 196.538265,
          "velocity": 0.9606299212598425
        },
        {
          "duration": 0.14423062500000583,
          "durationTicks": 36,
          "midi": 74,
          "name": "D5",
          "ticks": 49056,
          "time": 196.538265,
          "velocity": 0.937007874015748
        },
        {
          "duration": 0.18429468749999955,
          "durationTicks": 46,
          "midi": 77,
          "name": "F5",
          "ticks": 49104,
          "time": 196.7305725,
          "velocity": 0.9212598425196851
        },
        {
          "duration": 0.32051250000000664,
          "durationTicks": 80,
          "midi": 69,
          "name": "A4",
          "ticks": 49152,
          "time": 196.92288,
          "velocity": 0.968503937007874
        },
        {
          "duration": 0.1923074999999983,
          "durationTicks": 48,
          "midi": 72,
          "name": "C5",
          "ticks": 49152,
          "time": 196.92288,
          "velocity": 0.952755905511811
        },
        {
          "duration": 0.20032031250002547,
          "durationTicks": 50,
          "midi": 77,
          "name": "F5",
          "ticks": 49200,
          "time": 197.1151875,
          "velocity": 0.952755905511811
        },
        {
          "duration": 0.3846149999999966,
          "durationTicks": 96,
          "midi": 68,
          "name": "G#4",
          "ticks": 49248,
          "time": 197.307495,
          "velocity": 0.9291338582677166
        },
        {
          "duration": 0.17628187500002923,
          "durationTicks": 44,
          "midi": 71,
          "name": "B4",
          "ticks": 49248,
          "time": 197.307495,
          "velocity": 0.9291338582677166
        },
        {
          "duration": 0.2083331249999958,
          "durationTicks": 52,
          "midi": 77,
          "name": "F5",
          "ticks": 49296,
          "time": 197.4998025,
          "velocity": 0.9291338582677166
        },
        {
          "duration": 0.17628187500002923,
          "durationTicks": 44,
          "midi": 67,
          "name": "G4",
          "ticks": 49344,
          "time": 197.69210999999999,
          "velocity": 0.9606299212598425
        },
        {
          "duration": 0.21634593749999453,
          "durationTicks": 54,
          "midi": 70,
          "name": "A#4",
          "ticks": 49344,
          "time": 197.69210999999999,
          "velocity": 0.968503937007874
        },
        {
          "duration": 0.07211531250001713,
          "durationTicks": 18,
          "midi": 77,
          "name": "F5",
          "ticks": 49392,
          "time": 197.88441749999998,
          "velocity": 0.9448818897637795
        },
        {
          "duration": 0.13621781250000708,
          "durationTicks": 34,
          "midi": 61,
          "name": "C#4",
          "ticks": 49440,
          "time": 198.07672499999998,
          "velocity": 0.968503937007874
        },
        {
          "duration": 0.056089687500019636,
          "durationTicks": 14,
          "midi": 65,
          "name": "F4",
          "ticks": 49440,
          "time": 198.07672499999998,
          "velocity": 0.9448818897637795
        },
        {
          "duration": 0.07211531250001713,
          "durationTicks": 18,
          "midi": 68,
          "name": "G#4",
          "ticks": 49440,
          "time": 198.07672499999998,
          "velocity": 0.9606299212598425
        },
        {
          "duration": 0.0881409374999862,
          "durationTicks": 22,
          "midi": 73,
          "name": "C#5",
          "ticks": 49440,
          "time": 198.07672499999998,
          "velocity": 0.9448818897637795
        },
        {
          "duration": 0.13621781250000708,
          "durationTicks": 34,
          "midi": 61,
          "name": "C#4",
          "ticks": 49488,
          "time": 198.26903249999998,
          "velocity": 0.968503937007874
        },
        {
          "duration": 0.056089687500019636,
          "durationTicks": 14,
          "midi": 65,
          "name": "F4",
          "ticks": 49488,
          "time": 198.26903249999998,
          "velocity": 0.9448818897637795
        },
        {
          "duration": 0.07211531250001713,
          "durationTicks": 18,
          "midi": 68,
          "name": "G#4",
          "ticks": 49488,
          "time": 198.26903249999998,
          "velocity": 0.9606299212598425
        },
        {
          "duration": 0.0881409374999862,
          "durationTicks": 22,
          "midi": 73,
          "name": "C#5",
          "ticks": 49488,
          "time": 198.26903249999998,
          "velocity": 0.9448818897637795
        },
        {
          "duration": 0.08012812500001587,
          "durationTicks": 20,
          "midi": 60,
          "name": "C4",
          "ticks": 49536,
          "time": 198.46133999999998,
          "velocity": 0.968503937007874
        },
        {
          "duration": 0.06410249999998996,
          "durationTicks": 16,
          "midi": 64,
          "name": "E4",
          "ticks": 49536,
          "time": 198.46133999999998,
          "velocity": 0.937007874015748
        },
        {
          "duration": 0.07211531250001713,
          "durationTicks": 18,
          "midi": 67,
          "name": "G4",
          "ticks": 49536,
          "time": 198.46133999999998,
          "velocity": 0.937007874015748
        },
        {
          "duration": 0.07211531250001713,
          "durationTicks": 18,
          "midi": 72,
          "name": "C5",
          "ticks": 49536,
          "time": 198.46133999999998,
          "velocity": 0.8818897637795275
        },
        {
          "duration": 0.0721153124999887,
          "durationTicks": 18,
          "midi": 59,
          "name": "B3",
          "ticks": 49632,
          "time": 198.845955,
          "velocity": 0.9212598425196851
        },
        {
          "duration": 0.056089687499991214,
          "durationTicks": 14,
          "midi": 63,
          "name": "D#4",
          "ticks": 49632,
          "time": 198.845955,
          "velocity": 0.9212598425196851
        },
        {
          "duration": 0.09615374999998494,
          "durationTicks": 24,
          "midi": 66,
          "name": "F#4",
          "ticks": 49632,
          "time": 198.845955,
          "velocity": 0.9212598425196851
        },
        {
          "duration": 0.08012812500001587,
          "durationTicks": 20,
          "midi": 71,
          "name": "B4",
          "ticks": 49632,
          "time": 198.845955,
          "velocity": 0.8818897637795275
        },
        {
          "duration": 0.1923074999999983,
          "durationTicks": 48,
          "midi": 59,
          "name": "B3",
          "ticks": 49680,
          "time": 199.0382625,
          "velocity": 0.9212598425196851
        },
        {
          "duration": 0.09615374999998494,
          "durationTicks": 24,
          "midi": 63,
          "name": "D#4",
          "ticks": 49680,
          "time": 199.0382625,
          "velocity": 0.7480314960629921
        },
        {
          "duration": 0.1041665625000121,
          "durationTicks": 26,
          "midi": 66,
          "name": "F#4",
          "ticks": 49680,
          "time": 199.0382625,
          "velocity": 0.8582677165354331
        },
        {
          "duration": 0.1041665625000121,
          "durationTicks": 26,
          "midi": 71,
          "name": "B4",
          "ticks": 49680,
          "time": 199.0382625,
          "velocity": 0.8031496062992126
        },
        {
          "duration": 0.12019218749998117,
          "durationTicks": 30,
          "midi": 60,
          "name": "C4",
          "ticks": 49728,
          "time": 199.23057,
          "velocity": 0.9606299212598425
        },
        {
          "duration": 0.08012812500001587,
          "durationTicks": 20,
          "midi": 64,
          "name": "E4",
          "ticks": 49728,
          "time": 199.23057,
          "velocity": 0.9291338582677166
        },
        {
          "duration": 0.0881409374999862,
          "durationTicks": 22,
          "midi": 67,
          "name": "G4",
          "ticks": 49728,
          "time": 199.23057,
          "velocity": 0.889763779527559
        },
        {
          "duration": 0.09615374999998494,
          "durationTicks": 24,
          "midi": 72,
          "name": "C5",
          "ticks": 49728,
          "time": 199.23057,
          "velocity": 0.9133858267716536
        },
        {
          "duration": 0.09615374999998494,
          "durationTicks": 24,
          "midi": 61,
          "name": "C#4",
          "ticks": 49824,
          "time": 199.615185,
          "velocity": 0.937007874015748
        },
        {
          "duration": 0.0721153124999887,
          "durationTicks": 18,
          "midi": 65,
          "name": "F4",
          "ticks": 49824,
          "time": 199.615185,
          "velocity": 0.905511811023622
        },
        {
          "duration": 0.08012812500001587,
          "durationTicks": 20,
          "midi": 68,
          "name": "G#4",
          "ticks": 49824,
          "time": 199.615185,
          "velocity": 0.9448818897637795
        },
        {
          "duration": 0.1041665625000121,
          "durationTicks": 26,
          "midi": 73,
          "name": "C#5",
          "ticks": 49824,
          "time": 199.615185,
          "velocity": 0.9291338582677166
        },
        {
          "duration": 0.13621781249997866,
          "durationTicks": 34,
          "midi": 61,
          "name": "C#4",
          "ticks": 49872,
          "time": 199.8074925,
          "velocity": 0.9212598425196851
        },
        {
          "duration": 0.040064062499993724,
          "durationTicks": 10,
          "midi": 65,
          "name": "F4",
          "ticks": 49872,
          "time": 199.8074925,
          "velocity": 0.84251968503937
        },
        {
          "duration": 0.08012812500001587,
          "durationTicks": 20,
          "midi": 68,
          "name": "G#4",
          "ticks": 49872,
          "time": 199.8074925,
          "velocity": 0.9448818897637795
        },
        {
          "duration": 0.0721153124999887,
          "durationTicks": 18,
          "midi": 73,
          "name": "C#5",
          "ticks": 49872,
          "time": 199.8074925,
          "velocity": 0.9448818897637795
        },
        {
          "duration": 0.0721153124999887,
          "durationTicks": 18,
          "midi": 60,
          "name": "C4",
          "ticks": 49920,
          "time": 199.9998,
          "velocity": 0.9291338582677166
        },
        {
          "duration": 0.06410249999998996,
          "durationTicks": 16,
          "midi": 64,
          "name": "E4",
          "ticks": 49920,
          "time": 199.9998,
          "velocity": 0.952755905511811
        },
        {
          "duration": 0.056089687500019636,
          "durationTicks": 14,
          "midi": 67,
          "name": "G4",
          "ticks": 49920,
          "time": 199.9998,
          "velocity": 0.9212598425196851
        },
        {
          "duration": 0.0721153124999887,
          "durationTicks": 18,
          "midi": 72,
          "name": "C5",
          "ticks": 49920,
          "time": 199.9998,
          "velocity": 0.9212598425196851
        },
        {
          "duration": 0.1602562499999749,
          "durationTicks": 40,
          "midi": 60,
          "name": "C4",
          "ticks": 49968,
          "time": 200.1921075,
          "velocity": 0.8818897637795275
        },
        {
          "duration": 0.08012812500001587,
          "durationTicks": 20,
          "midi": 67,
          "name": "G4",
          "ticks": 49968,
          "time": 200.1921075,
          "velocity": 0.8503937007874016
        },
        {
          "duration": 0.0721153124999887,
          "durationTicks": 18,
          "midi": 72,
          "name": "C5",
          "ticks": 49968,
          "time": 200.1921075,
          "velocity": 0.8267716535433071
        },
        {
          "duration": 0.33653812500000413,
          "durationTicks": 84,
          "midi": 59,
          "name": "B3",
          "ticks": 50016,
          "time": 200.384415,
          "velocity": 0.9448818897637795
        },
        {
          "duration": 0.17628187500002923,
          "durationTicks": 44,
          "midi": 63,
          "name": "D#4",
          "ticks": 50016,
          "time": 200.384415,
          "velocity": 0.968503937007874
        },
        {
          "duration": 0.08012812500001587,
          "durationTicks": 20,
          "midi": 66,
          "name": "F#4",
          "ticks": 50016,
          "time": 200.384415,
          "velocity": 0.889763779527559
        },
        {
          "duration": 0.20032031250002547,
          "durationTicks": 50,
          "midi": 71,
          "name": "B4",
          "ticks": 50016,
          "time": 200.384415,
          "velocity": 0.937007874015748
        },
        {
          "duration": 0.1923074999999983,
          "durationTicks": 48,
          "midi": 48,
          "name": "C3",
          "ticks": 50112,
          "time": 200.76903,
          "velocity": 0.968503937007874
        },
        {
          "duration": 0.09615375000001336,
          "durationTicks": 24,
          "midi": 60,
          "name": "C4",
          "ticks": 50112,
          "time": 200.76903,
          "velocity": 0.968503937007874
        },
        {
          "duration": 0.08012812500001587,
          "durationTicks": 20,
          "midi": 64,
          "name": "E4",
          "ticks": 50112,
          "time": 200.76903,
          "velocity": 0.968503937007874
        },
        {
          "duration": 0.08012812500001587,
          "durationTicks": 20,
          "midi": 67,
          "name": "G4",
          "ticks": 50112,
          "time": 200.76903,
          "velocity": 0.968503937007874
        },
        {
          "duration": 0.1201921875000096,
          "durationTicks": 30,
          "midi": 72,
          "name": "C5",
          "ticks": 50112,
          "time": 200.76903,
          "velocity": 0.968503937007874
        },
        {
          "duration": 0.13621781250000708,
          "durationTicks": 34,
          "midi": 41,
          "name": "F2",
          "ticks": 50208,
          "time": 201.15364499999998,
          "velocity": 0.968503937007874
        },
        {
          "duration": 0.09615375000001336,
          "durationTicks": 24,
          "midi": 53,
          "name": "F3",
          "ticks": 50208,
          "time": 201.15364499999998,
          "velocity": 0.968503937007874
        },
        {
          "duration": 0.1201921875000096,
          "durationTicks": 30,
          "midi": 65,
          "name": "F4",
          "ticks": 50208,
          "time": 201.15364499999998,
          "velocity": 0.968503937007874
        },
        {
          "duration": 0.0881409374999862,
          "durationTicks": 22,
          "midi": 69,
          "name": "A4",
          "ticks": 50208,
          "time": 201.15364499999998,
          "velocity": 0.968503937007874
        },
        {
          "duration": 0.11217937499998243,
          "durationTicks": 28,
          "midi": 72,
          "name": "C5",
          "ticks": 50208,
          "time": 201.15364499999998,
          "velocity": 0.968503937007874
        },
        {
          "duration": 0.11217937499998243,
          "durationTicks": 28,
          "midi": 77,
          "name": "F5",
          "ticks": 50208,
          "time": 201.15364499999998,
          "velocity": 0.968503937007874
        },
        {
          "duration": 0.13621781250000708,
          "durationTicks": 34,
          "midi": 36,
          "name": "C2",
          "ticks": 50304,
          "time": 201.53825999999998,
          "velocity": 0.968503937007874
        },
        {
          "duration": 0.0881409374999862,
          "durationTicks": 22,
          "midi": 48,
          "name": "C3",
          "ticks": 50304,
          "time": 201.53825999999998,
          "velocity": 0.968503937007874
        },
        {
          "duration": 0.056089687500019636,
          "durationTicks": 14,
          "midi": 64,
          "name": "E4",
          "ticks": 50304,
          "time": 201.53825999999998,
          "velocity": 0.968503937007874
        },
        {
          "duration": 0.07211531250001713,
          "durationTicks": 18,
          "midi": 67,
          "name": "G4",
          "ticks": 50304,
          "time": 201.53825999999998,
          "velocity": 0.968503937007874
        },
        {
          "duration": 0.11217937500001085,
          "durationTicks": 28,
          "midi": 72,
          "name": "C5",
          "ticks": 50304,
          "time": 201.53825999999998,
          "velocity": 0.968503937007874
        },
        {
          "duration": 0.5448712499999715,
          "durationTicks": 136,
          "midi": 29,
          "name": "F1",
          "ticks": 50400,
          "time": 201.922875,
          "velocity": 0.968503937007874
        },
        {
          "duration": 0.5689096874999677,
          "durationTicks": 142,
          "midi": 41,
          "name": "F2",
          "ticks": 50400,
          "time": 201.922875,
          "velocity": 0.968503937007874
        },
        {
          "duration": 0.44871749999998656,
          "durationTicks": 112,
          "midi": 65,
          "name": "F4",
          "ticks": 50400,
          "time": 201.922875,
          "velocity": 0.968503937007874
        },
        {
          "duration": 0.4407046874999878,
          "durationTicks": 110,
          "midi": 69,
          "name": "A4",
          "ticks": 50400,
          "time": 201.922875,
          "velocity": 0.968503937007874
        },
        {
          "duration": 0.4246790624999619,
          "durationTicks": 106,
          "midi": 72,
          "name": "C5",
          "ticks": 50400,
          "time": 201.922875,
          "velocity": 0.968503937007874
        },
        {
          "duration": 0.4166662499999916,
          "durationTicks": 104,
          "midi": 77,
          "name": "F5",
          "ticks": 50400,
          "time": 201.922875,
          "velocity": 0.968503937007874
        },
        {
          "duration": 0.056089687500019636,
          "durationTicks": 14,
          "midi": 60,
          "name": "C4",
          "ticks": 50544,
          "time": 202.4997975,
          "velocity": 0.9212598425196851
        },
        {
          "duration": 0.056089687500019636,
          "durationTicks": 14,
          "midi": 64,
          "name": "E4",
          "ticks": 50544,
          "time": 202.4997975,
          "velocity": 0.9212598425196851
        },
        {
          "duration": 0.0721153124999887,
          "durationTicks": 18,
          "midi": 67,
          "name": "G4",
          "ticks": 50544,
          "time": 202.4997975,
          "velocity": 0.9212598425196851
        },
        {
          "duration": 0.0400640624999653,
          "durationTicks": 10,
          "midi": 60,
          "name": "C4",
          "ticks": 50592,
          "time": 202.692105,
          "velocity": 0.9291338582677166
        },
        {
          "duration": 0.1923074999999983,
          "durationTicks": 48,
          "midi": 64,
          "name": "E4",
          "ticks": 50592,
          "time": 202.692105,
          "velocity": 0.9291338582677166
        },
        {
          "duration": 0.1602562499999749,
          "durationTicks": 40,
          "midi": 67,
          "name": "G4",
          "ticks": 50592,
          "time": 202.692105,
          "velocity": 0.9291338582677166
        },
        {
          "duration": 0.0721153124999887,
          "durationTicks": 18,
          "midi": 60,
          "name": "C4",
          "ticks": 50640,
          "time": 202.8844125,
          "velocity": 0.9133858267716536
        },
        {
          "duration": 0.1923074999999983,
          "durationTicks": 48,
          "midi": 65,
          "name": "F4",
          "ticks": 50640,
          "time": 202.8844125,
          "velocity": 0.9133858267716536
        },
        {
          "duration": 0.23237156249999202,
          "durationTicks": 58,
          "midi": 69,
          "name": "A4",
          "ticks": 50640,
          "time": 202.8844125,
          "velocity": 0.9133858267716536
        },
        {
          "duration": 0.16826906250000206,
          "durationTicks": 42,
          "midi": 60,
          "name": "C4",
          "ticks": 50688,
          "time": 203.07672,
          "velocity": 0.9212598425196851
        },
        {
          "duration": 0.1923074999999983,
          "durationTicks": 48,
          "midi": 67,
          "name": "G4",
          "ticks": 50688,
          "time": 203.07672,
          "velocity": 0.9212598425196851
        },
        {
          "duration": 0.056089687500019636,
          "durationTicks": 14,
          "midi": 70,
          "name": "A#4",
          "ticks": 50688,
          "time": 203.07672,
          "velocity": 0.9212598425196851
        },
        {
          "duration": 0.1923074999999983,
          "durationTicks": 48,
          "midi": 65,
          "name": "F4",
          "ticks": 50736,
          "time": 203.2690275,
          "velocity": 0.9291338582677166
        },
        {
          "duration": 0.25640999999998826,
          "durationTicks": 64,
          "midi": 69,
          "name": "A4",
          "ticks": 50736,
          "time": 203.2690275,
          "velocity": 0.9291338582677166
        },
        {
          "duration": 0.1923074999999983,
          "durationTicks": 48,
          "midi": 64,
          "name": "E4",
          "ticks": 50784,
          "time": 203.461335,
          "velocity": 0.968503937007874
        },
        {
          "duration": 0.0320512500000234,
          "durationTicks": 8,
          "midi": 67,
          "name": "G4",
          "ticks": 50784,
          "time": 203.461335,
          "velocity": 0.968503937007874
        },
        {
          "duration": 0.12820500000000834,
          "durationTicks": 32,
          "midi": 41,
          "name": "F2",
          "ticks": 50832,
          "time": 203.6536425,
          "velocity": 0.968503937007874
        },
        {
          "duration": 0.1201921875000096,
          "durationTicks": 30,
          "midi": 53,
          "name": "F3",
          "ticks": 50832,
          "time": 203.6536425,
          "velocity": 0.968503937007874
        },
        {
          "duration": 0.06410249999998996,
          "durationTicks": 16,
          "midi": 65,
          "name": "F4",
          "ticks": 50832,
          "time": 203.6536425,
          "velocity": 0.968503937007874
        },
        {
          "duration": 0.08012812500001587,
          "durationTicks": 20,
          "midi": 69,
          "name": "A4",
          "ticks": 50832,
          "time": 203.6536425,
          "velocity": 0.968503937007874
        },
        {
          "duration": 0.09615375000001336,
          "durationTicks": 24,
          "midi": 72,
          "name": "C5",
          "ticks": 50832,
          "time": 203.6536425,
          "velocity": 0.968503937007874
        },
        {
          "duration": 0.09615375000001336,
          "durationTicks": 24,
          "midi": 77,
          "name": "F5",
          "ticks": 50832,
          "time": 203.6536425,
          "velocity": 0.968503937007874
        },
        {
          "duration": 0.11217937499998243,
          "durationTicks": 28,
          "midi": 41,
          "name": "F2",
          "ticks": 50880,
          "time": 203.84595,
          "velocity": 0.9448818897637795
        },
        {
          "duration": 0.1201921875000096,
          "durationTicks": 30,
          "midi": 53,
          "name": "F3",
          "ticks": 50880,
          "time": 203.84595,
          "velocity": 0.968503937007874
        },
        {
          "duration": 0.07211531250001713,
          "durationTicks": 18,
          "midi": 65,
          "name": "F4",
          "ticks": 50880,
          "time": 203.84595,
          "velocity": 0.968503937007874
        },
        {
          "duration": 0.08012812500001587,
          "durationTicks": 20,
          "midi": 69,
          "name": "A4",
          "ticks": 50880,
          "time": 203.84595,
          "velocity": 0.968503937007874
        },
        {
          "duration": 0.09615375000001336,
          "durationTicks": 24,
          "midi": 72,
          "name": "C5",
          "ticks": 50880,
          "time": 203.84595,
          "velocity": 0.968503937007874
        },
        {
          "duration": 0.0881409374999862,
          "durationTicks": 22,
          "midi": 77,
          "name": "F5",
          "ticks": 50880,
          "time": 203.84595,
          "velocity": 0.968503937007874
        },
        {
          "duration": 0.36858937500002753,
          "durationTicks": 92,
          "midi": 41,
          "name": "F2",
          "ticks": 50928,
          "time": 204.0382575,
          "velocity": 0.968503937007874
        },
        {
          "duration": 0.3124996875000079,
          "durationTicks": 78,
          "midi": 53,
          "name": "F3",
          "ticks": 50928,
          "time": 204.0382575,
          "velocity": 0.968503937007874
        },
        {
          "duration": 0.3124996875000079,
          "durationTicks": 78,
          "midi": 65,
          "name": "F4",
          "ticks": 50928,
          "time": 204.0382575,
          "velocity": 0.968503937007874
        },
        {
          "duration": 0.3124996875000079,
          "durationTicks": 78,
          "midi": 69,
          "name": "A4",
          "ticks": 50928,
          "time": 204.0382575,
          "velocity": 0.968503937007874
        },
        {
          "duration": 0.28846125000001166,
          "durationTicks": 72,
          "midi": 72,
          "name": "C5",
          "ticks": 50928,
          "time": 204.0382575,
          "velocity": 0.968503937007874
        },
        {
          "duration": 0.2804484374999845,
          "durationTicks": 70,
          "midi": 77,
          "name": "F5",
          "ticks": 50928,
          "time": 204.0382575,
          "velocity": 0.968503937007874
        },
        {
          "duration": 0.16025625000000332,
          "durationTicks": 40,
          "midi": 36,
          "name": "C2",
          "ticks": 51072,
          "time": 204.61517999999998,
          "velocity": 0.968503937007874
        },
        {
          "duration": 0.12820500000003676,
          "durationTicks": 32,
          "midi": 48,
          "name": "C3",
          "ticks": 51072,
          "time": 204.61517999999998,
          "velocity": 0.968503937007874
        },
        {
          "duration": 0.08012812500001587,
          "durationTicks": 20,
          "midi": 60,
          "name": "C4",
          "ticks": 51072,
          "time": 204.61517999999998,
          "velocity": 0.968503937007874
        },
        {
          "duration": 0.09615375000001336,
          "durationTicks": 24,
          "midi": 64,
          "name": "E4",
          "ticks": 51072,
          "time": 204.61517999999998,
          "velocity": 0.968503937007874
        },
        {
          "duration": 0.11217937499998243,
          "durationTicks": 28,
          "midi": 67,
          "name": "G4",
          "ticks": 51072,
          "time": 204.61517999999998,
          "velocity": 0.968503937007874
        },
        {
          "duration": 0.14423062500000583,
          "durationTicks": 36,
          "midi": 72,
          "name": "C5",
          "ticks": 51072,
          "time": 204.61517999999998,
          "velocity": 0.968503937007874
        },
        {
          "duration": 0.09615374999998494,
          "durationTicks": 24,
          "midi": 29,
          "name": "F1",
          "ticks": 51168,
          "time": 204.999795,
          "velocity": 0.968503937007874
        },
        {
          "duration": 0.06410249999996154,
          "durationTicks": 16,
          "midi": 41,
          "name": "F2",
          "ticks": 51168,
          "time": 204.999795,
          "velocity": 0.968503937007874
        },
        {
          "duration": 0.1041665625000121,
          "durationTicks": 26,
          "midi": 65,
          "name": "F4",
          "ticks": 51168,
          "time": 204.999795,
          "velocity": 0.968503937007874
        },
        {
          "duration": 0.12820500000000834,
          "durationTicks": 32,
          "midi": 69,
          "name": "A4",
          "ticks": 51168,
          "time": 204.999795,
          "velocity": 0.968503937007874
        },
        {
          "duration": 0.11217937499998243,
          "durationTicks": 28,
          "midi": 72,
          "name": "C5",
          "ticks": 51168,
          "time": 204.999795,
          "velocity": 0.968503937007874
        },
        {
          "duration": 0.11217937499998243,
          "durationTicks": 28,
          "midi": 77,
          "name": "F5",
          "ticks": 51168,
          "time": 204.999795,
          "velocity": 0.968503937007874
        },
        {
          "duration": 0.1041665625000121,
          "durationTicks": 26,
          "midi": 36,
          "name": "C2",
          "ticks": 51264,
          "time": 205.38441,
          "velocity": 0.968503937007874
        },
        {
          "duration": 0.0881409374999862,
          "durationTicks": 22,
          "midi": 48,
          "name": "C3",
          "ticks": 51264,
          "time": 205.38441,
          "velocity": 0.968503937007874
        },
        {
          "duration": 0.056089687499991214,
          "durationTicks": 14,
          "midi": 60,
          "name": "C4",
          "ticks": 51264,
          "time": 205.38441,
          "velocity": 0.968503937007874
        },
        {
          "duration": 0.056089687499991214,
          "durationTicks": 14,
          "midi": 64,
          "name": "E4",
          "ticks": 51264,
          "time": 205.38441,
          "velocity": 0.968503937007874
        },
        {
          "duration": 0.0721153124999887,
          "durationTicks": 18,
          "midi": 67,
          "name": "G4",
          "ticks": 51264,
          "time": 205.38441,
          "velocity": 0.968503937007874
        },
        {
          "duration": 0.12019218749998117,
          "durationTicks": 30,
          "midi": 72,
          "name": "C5",
          "ticks": 51264,
          "time": 205.38441,
          "velocity": 0.968503937007874
        },
        {
          "duration": 0.4887815625000087,
          "durationTicks": 122,
          "midi": 29,
          "name": "F1",
          "ticks": 51360,
          "time": 205.769025,
          "velocity": 0.968503937007874
        },
        {
          "duration": 0.48076874999998154,
          "durationTicks": 120,
          "midi": 41,
          "name": "F2",
          "ticks": 51360,
          "time": 205.769025,
          "velocity": 0.968503937007874
        },
        {
          "duration": 0.40865343749999283,
          "durationTicks": 102,
          "midi": 65,
          "name": "F4",
          "ticks": 51360,
          "time": 205.769025,
          "velocity": 0.968503937007874
        },
        {
          "duration": 0.40064062499996567,
          "durationTicks": 100,
          "midi": 69,
          "name": "A4",
          "ticks": 51360,
          "time": 205.769025,
          "velocity": 0.968503937007874
        },
        {
          "duration": 0.37660218749996943,
          "durationTicks": 94,
          "midi": 72,
          "name": "C5",
          "ticks": 51360,
          "time": 205.769025,
          "velocity": 0.968503937007874
        },
        {
          "duration": 0.3525637499999732,
          "durationTicks": 88,
          "midi": 77,
          "name": "F5",
          "ticks": 51360,
          "time": 205.769025,
          "velocity": 0.968503937007874
        },
        {
          "duration": 0.08012812500001587,
          "durationTicks": 20,
          "midi": 60,
          "name": "C4",
          "ticks": 51504,
          "time": 206.3459475,
          "velocity": 0.889763779527559
        },
        {
          "duration": 0.0881409374999862,
          "durationTicks": 22,
          "midi": 64,
          "name": "E4",
          "ticks": 51504,
          "time": 206.3459475,
          "velocity": 0.889763779527559
        },
        {
          "duration": 0.1201921875000096,
          "durationTicks": 30,
          "midi": 67,
          "name": "G4",
          "ticks": 51504,
          "time": 206.3459475,
          "velocity": 0.889763779527559
        },
        {
          "duration": 0.1201921875000096,
          "durationTicks": 30,
          "midi": 64,
          "name": "E4",
          "ticks": 51552,
          "time": 206.538255,
          "velocity": 0.889763779527559
        },
        {
          "duration": 0.16826906250000206,
          "durationTicks": 42,
          "midi": 67,
          "name": "G4",
          "ticks": 51552,
          "time": 206.538255,
          "velocity": 0.889763779527559
        },
        {
          "duration": 0.13621781249997866,
          "durationTicks": 34,
          "midi": 65,
          "name": "F4",
          "ticks": 51600,
          "time": 206.7305625,
          "velocity": 0.889763779527559
        },
        {
          "duration": 0.15224343750000457,
          "durationTicks": 38,
          "midi": 69,
          "name": "A4",
          "ticks": 51600,
          "time": 206.7305625,
          "velocity": 0.889763779527559
        },
        {
          "duration": 0.04807687499999247,
          "durationTicks": 12,
          "midi": 60,
          "name": "C4",
          "ticks": 51648,
          "time": 206.92287,
          "velocity": 0.889763779527559
        },
        {
          "duration": 0.11217937499998243,
          "durationTicks": 28,
          "midi": 67,
          "name": "G4",
          "ticks": 51648,
          "time": 206.92287,
          "velocity": 0.889763779527559
        },
        {
          "duration": 0.0881409374999862,
          "durationTicks": 22,
          "midi": 70,
          "name": "A#4",
          "ticks": 51648,
          "time": 206.92287,
          "velocity": 0.889763779527559
        },
        {
          "duration": 0.17628187500002923,
          "durationTicks": 44,
          "midi": 65,
          "name": "F4",
          "ticks": 51696,
          "time": 207.1151775,
          "velocity": 0.889763779527559
        },
        {
          "duration": 0.24839718750001794,
          "durationTicks": 62,
          "midi": 69,
          "name": "A4",
          "ticks": 51696,
          "time": 207.1151775,
          "velocity": 0.889763779527559
        },
        {
          "duration": 0.1923074999999983,
          "durationTicks": 48,
          "midi": 64,
          "name": "E4",
          "ticks": 51744,
          "time": 207.30748499999999,
          "velocity": 0.889763779527559
        },
        {
          "duration": 0.056089687500019636,
          "durationTicks": 14,
          "midi": 67,
          "name": "G4",
          "ticks": 51744,
          "time": 207.30748499999999,
          "velocity": 0.889763779527559
        },
        {
          "duration": 0.13621781250000708,
          "durationTicks": 34,
          "midi": 29,
          "name": "F1",
          "ticks": 51792,
          "time": 207.49979249999998,
          "velocity": 0.968503937007874
        },
        {
          "duration": 0.1041665625000121,
          "durationTicks": 26,
          "midi": 41,
          "name": "F2",
          "ticks": 51792,
          "time": 207.49979249999998,
          "velocity": 0.968503937007874
        },
        {
          "duration": 0.056089687500019636,
          "durationTicks": 14,
          "midi": 65,
          "name": "F4",
          "ticks": 51792,
          "time": 207.49979249999998,
          "velocity": 0.968503937007874
        },
        {
          "duration": 0.06410249999998996,
          "durationTicks": 16,
          "midi": 69,
          "name": "A4",
          "ticks": 51792,
          "time": 207.49979249999998,
          "velocity": 0.968503937007874
        },
        {
          "duration": 0.08012812500001587,
          "durationTicks": 20,
          "midi": 72,
          "name": "C5",
          "ticks": 51792,
          "time": 207.49979249999998,
          "velocity": 0.968503937007874
        },
        {
          "duration": 0.11217937499998243,
          "durationTicks": 28,
          "midi": 77,
          "name": "F5",
          "ticks": 51792,
          "time": 207.49979249999998,
          "velocity": 0.968503937007874
        },
        {
          "duration": 0.16025625000000332,
          "durationTicks": 40,
          "midi": 29,
          "name": "F1",
          "ticks": 51840,
          "time": 207.69209999999998,
          "velocity": 0.968503937007874
        },
        {
          "duration": 0.17628187500002923,
          "durationTicks": 44,
          "midi": 41,
          "name": "F2",
          "ticks": 51840,
          "time": 207.69209999999998,
          "velocity": 0.968503937007874
        },
        {
          "duration": 0.08012812500001587,
          "durationTicks": 20,
          "midi": 65,
          "name": "F4",
          "ticks": 51840,
          "time": 207.69209999999998,
          "velocity": 0.968503937007874
        },
        {
          "duration": 0.07211531250001713,
          "durationTicks": 18,
          "midi": 69,
          "name": "A4",
          "ticks": 51840,
          "time": 207.69209999999998,
          "velocity": 0.968503937007874
        },
        {
          "duration": 0.07211531250001713,
          "durationTicks": 18,
          "midi": 72,
          "name": "C5",
          "ticks": 51840,
          "time": 207.69209999999998,
          "velocity": 0.968503937007874
        },
        {
          "duration": 0.07211531250001713,
          "durationTicks": 18,
          "midi": 77,
          "name": "F5",
          "ticks": 51840,
          "time": 207.69209999999998,
          "velocity": 0.968503937007874
        },
        {
          "duration": 0.08012812500001587,
          "durationTicks": 20,
          "midi": 60,
          "name": "C4",
          "ticks": 51888,
          "time": 207.88440749999998,
          "velocity": 0.8818897637795275
        },
        {
          "duration": 0.0881409374999862,
          "durationTicks": 22,
          "midi": 64,
          "name": "E4",
          "ticks": 51888,
          "time": 207.88440749999998,
          "velocity": 0.8818897637795275
        },
        {
          "duration": 0.1201921875000096,
          "durationTicks": 30,
          "midi": 67,
          "name": "G4",
          "ticks": 51888,
          "time": 207.88440749999998,
          "velocity": 0.8818897637795275
        },
        {
          "duration": 0.1201921875000096,
          "durationTicks": 30,
          "midi": 64,
          "name": "E4",
          "ticks": 51936,
          "time": 208.07671499999998,
          "velocity": 0.8818897637795275
        },
        {
          "duration": 0.16826906250000206,
          "durationTicks": 42,
          "midi": 67,
          "name": "G4",
          "ticks": 51936,
          "time": 208.07671499999998,
          "velocity": 0.8818897637795275
        },
        {
          "duration": 0.13621781249997866,
          "durationTicks": 34,
          "midi": 65,
          "name": "F4",
          "ticks": 51984,
          "time": 208.2690225,
          "velocity": 0.8818897637795275
        },
        {
          "duration": 0.15224343750000457,
          "durationTicks": 38,
          "midi": 69,
          "name": "A4",
          "ticks": 51984,
          "time": 208.2690225,
          "velocity": 0.8818897637795275
        },
        {
          "duration": 0.04807687499999247,
          "durationTicks": 12,
          "midi": 60,
          "name": "C4",
          "ticks": 52032,
          "time": 208.46133,
          "velocity": 0.8818897637795275
        },
        {
          "duration": 0.11217937499998243,
          "durationTicks": 28,
          "midi": 67,
          "name": "G4",
          "ticks": 52032,
          "time": 208.46133,
          "velocity": 0.8818897637795275
        },
        {
          "duration": 0.0881409374999862,
          "durationTicks": 22,
          "midi": 70,
          "name": "A#4",
          "ticks": 52032,
          "time": 208.46133,
          "velocity": 0.8818897637795275
        },
        {
          "duration": 0.1762818750000008,
          "durationTicks": 44,
          "midi": 65,
          "name": "F4",
          "ticks": 52080,
          "time": 208.6536375,
          "velocity": 0.8818897637795275
        },
        {
          "duration": 0.24839718750001794,
          "durationTicks": 62,
          "midi": 69,
          "name": "A4",
          "ticks": 52080,
          "time": 208.6536375,
          "velocity": 0.8818897637795275
        },
        {
          "duration": 0.1923074999999983,
          "durationTicks": 48,
          "midi": 64,
          "name": "E4",
          "ticks": 52128,
          "time": 208.845945,
          "velocity": 0.8818897637795275
        },
        {
          "duration": 0.056089687500019636,
          "durationTicks": 14,
          "midi": 67,
          "name": "G4",
          "ticks": 52128,
          "time": 208.845945,
          "velocity": 0.8818897637795275
        },
        {
          "duration": 0.12019218749998117,
          "durationTicks": 30,
          "midi": 29,
          "name": "F1",
          "ticks": 52176,
          "time": 209.0382525,
          "velocity": 0.968503937007874
        },
        {
          "duration": 0.11217937499998243,
          "durationTicks": 28,
          "midi": 41,
          "name": "F2",
          "ticks": 52176,
          "time": 209.0382525,
          "velocity": 0.968503937007874
        },
        {
          "duration": 0.06410249999998996,
          "durationTicks": 16,
          "midi": 65,
          "name": "F4",
          "ticks": 52176,
          "time": 209.0382525,
          "velocity": 0.968503937007874
        },
        {
          "duration": 0.0881409374999862,
          "durationTicks": 22,
          "midi": 69,
          "name": "A4",
          "ticks": 52176,
          "time": 209.0382525,
          "velocity": 0.968503937007874
        },
        {
          "duration": 0.09615374999998494,
          "durationTicks": 24,
          "midi": 77,
          "name": "F5",
          "ticks": 52176,
          "time": 209.0382525,
          "velocity": 0.968503937007874
        },
        {
          "duration": 0.13621781249997866,
          "durationTicks": 34,
          "midi": 29,
          "name": "F1",
          "ticks": 52224,
          "time": 209.23056,
          "velocity": 0.968503937007874
        },
        {
          "duration": 0.13621781249997866,
          "durationTicks": 34,
          "midi": 41,
          "name": "F2",
          "ticks": 52224,
          "time": 209.23056,
          "velocity": 0.968503937007874
        },
        {
          "duration": 0.08012812500001587,
          "durationTicks": 20,
          "midi": 65,
          "name": "F4",
          "ticks": 52224,
          "time": 209.23056,
          "velocity": 0.968503937007874
        },
        {
          "duration": 0.1041665625000121,
          "durationTicks": 26,
          "midi": 69,
          "name": "A4",
          "ticks": 52224,
          "time": 209.23056,
          "velocity": 0.968503937007874
        },
        {
          "duration": 0.11217937499998243,
          "durationTicks": 28,
          "midi": 77,
          "name": "F5",
          "ticks": 52224,
          "time": 209.23056,
          "velocity": 0.968503937007874
        },
        {
          "duration": 0.08012812500001587,
          "durationTicks": 20,
          "midi": 60,
          "name": "C4",
          "ticks": 52272,
          "time": 209.4228675,
          "velocity": 0.8818897637795275
        },
        {
          "duration": 0.0881409374999862,
          "durationTicks": 22,
          "midi": 64,
          "name": "E4",
          "ticks": 52272,
          "time": 209.4228675,
          "velocity": 0.8818897637795275
        },
        {
          "duration": 0.1201921875000096,
          "durationTicks": 30,
          "midi": 67,
          "name": "G4",
          "ticks": 52272,
          "time": 209.4228675,
          "velocity": 0.8818897637795275
        },
        {
          "duration": 0.1201921875000096,
          "durationTicks": 30,
          "midi": 64,
          "name": "E4",
          "ticks": 52320,
          "time": 209.615175,
          "velocity": 0.8818897637795275
        },
        {
          "duration": 0.16826906250000206,
          "durationTicks": 42,
          "midi": 67,
          "name": "G4",
          "ticks": 52320,
          "time": 209.615175,
          "velocity": 0.8818897637795275
        },
        {
          "duration": 0.13621781249997866,
          "durationTicks": 34,
          "midi": 65,
          "name": "F4",
          "ticks": 52368,
          "time": 209.8074825,
          "velocity": 0.8818897637795275
        },
        {
          "duration": 0.15224343750000457,
          "durationTicks": 38,
          "midi": 69,
          "name": "A4",
          "ticks": 52368,
          "time": 209.8074825,
          "velocity": 0.8818897637795275
        },
        {
          "duration": 0.04807687499999247,
          "durationTicks": 12,
          "midi": 60,
          "name": "C4",
          "ticks": 52416,
          "time": 209.99979,
          "velocity": 0.8818897637795275
        },
        {
          "duration": 0.11217937499998243,
          "durationTicks": 28,
          "midi": 67,
          "name": "G4",
          "ticks": 52416,
          "time": 209.99979,
          "velocity": 0.8818897637795275
        },
        {
          "duration": 0.0881409374999862,
          "durationTicks": 22,
          "midi": 70,
          "name": "A#4",
          "ticks": 52416,
          "time": 209.99979,
          "velocity": 0.8818897637795275
        },
        {
          "duration": 0.17628187500002923,
          "durationTicks": 44,
          "midi": 65,
          "name": "F4",
          "ticks": 52464,
          "time": 210.1920975,
          "velocity": 0.8818897637795275
        },
        {
          "duration": 0.24839718750001794,
          "durationTicks": 62,
          "midi": 69,
          "name": "A4",
          "ticks": 52464,
          "time": 210.1920975,
          "velocity": 0.8818897637795275
        },
        {
          "duration": 0.1923074999999983,
          "durationTicks": 48,
          "midi": 64,
          "name": "E4",
          "ticks": 52512,
          "time": 210.384405,
          "velocity": 0.8818897637795275
        },
        {
          "duration": 0.056089687500019636,
          "durationTicks": 14,
          "midi": 67,
          "name": "G4",
          "ticks": 52512,
          "time": 210.384405,
          "velocity": 0.8818897637795275
        },
        {
          "duration": 0.1923074999999983,
          "durationTicks": 48,
          "midi": 65,
          "name": "F4",
          "ticks": 52560,
          "time": 210.57671249999999,
          "velocity": 0.968503937007874
        },
        {
          "duration": 0.12820500000003676,
          "durationTicks": 32,
          "midi": 77,
          "name": "F5",
          "ticks": 52608,
          "time": 210.76901999999998,
          "velocity": 0.968503937007874
        },
        {
          "duration": 0.5128200000000334,
          "durationTicks": 128,
          "midi": 77,
          "name": "F5",
          "ticks": 52656,
          "time": 210.96132749999998,
          "velocity": 0.952755905511811
        },
        {
          "duration": 2.0993568750000122,
          "durationTicks": 524,
          "midi": 75,
          "name": "D#5",
          "ticks": 52704,
          "time": 211.15363499999998,
          "velocity": 0.9606299212598425
        },
        {
          "duration": 1.874998125000019,
          "durationTicks": 468,
          "midi": 72,
          "name": "C5",
          "ticks": 52752,
          "time": 211.34594249999998,
          "velocity": 0.968503937007874
        },
        {
          "duration": 1.4663446874999977,
          "durationTicks": 366,
          "midi": 68,
          "name": "G#4",
          "ticks": 52848,
          "time": 211.7305575,
          "velocity": 0.968503937007874
        },
        {
          "duration": 1.0657040625000036,
          "durationTicks": 266,
          "midi": 65,
          "name": "F4",
          "ticks": 52944,
          "time": 212.1151725,
          "velocity": 0.968503937007874
        },
        {
          "duration": 0.745191562499997,
          "durationTicks": 186,
          "midi": 63,
          "name": "D#4",
          "ticks": 53040,
          "time": 212.4997875,
          "velocity": 0.968503937007874
        },
        {
          "duration": 0.1923074999999983,
          "durationTicks": 48,
          "midi": 48,
          "name": "C3",
          "ticks": 53232,
          "time": 213.2690175,
          "velocity": 0.968503937007874
        },
        {
          "duration": 0.17628187500002923,
          "durationTicks": 44,
          "midi": 60,
          "name": "C4",
          "ticks": 53232,
          "time": 213.2690175,
          "velocity": 0.968503937007874
        },
        {
          "duration": 0.1923074999999983,
          "durationTicks": 48,
          "midi": 72,
          "name": "C5",
          "ticks": 53232,
          "time": 213.2690175,
          "velocity": 0.968503937007874
        },
        {
          "duration": 0.20032031250002547,
          "durationTicks": 50,
          "midi": 84,
          "name": "C6",
          "ticks": 53232,
          "time": 213.2690175,
          "velocity": 0.968503937007874
        },
        {
          "duration": 0.1923074999999983,
          "durationTicks": 48,
          "midi": 47,
          "name": "B2",
          "ticks": 53328,
          "time": 213.6536325,
          "velocity": 0.968503937007874
        },
        {
          "duration": 0.16826906250000206,
          "durationTicks": 42,
          "midi": 59,
          "name": "B3",
          "ticks": 53328,
          "time": 213.6536325,
          "velocity": 0.968503937007874
        },
        {
          "duration": 0.11217937499998243,
          "durationTicks": 28,
          "midi": 71,
          "name": "B4",
          "ticks": 53328,
          "time": 213.6536325,
          "velocity": 0.968503937007874
        },
        {
          "duration": 0.1923074999999983,
          "durationTicks": 48,
          "midi": 83,
          "name": "B5",
          "ticks": 53328,
          "time": 213.6536325,
          "velocity": 0.968503937007874
        },
        {
          "duration": 0.1923074999999983,
          "durationTicks": 48,
          "midi": 51,
          "name": "D#3",
          "ticks": 53424,
          "time": 214.03824749999998,
          "velocity": 0.968503937007874
        },
        {
          "duration": 0.25640999999998826,
          "durationTicks": 64,
          "midi": 63,
          "name": "D#4",
          "ticks": 53424,
          "time": 214.03824749999998,
          "velocity": 0.968503937007874
        },
        {
          "duration": 0.18429468749999955,
          "durationTicks": 46,
          "midi": 75,
          "name": "D#5",
          "ticks": 53424,
          "time": 214.03824749999998,
          "velocity": 0.968503937007874
        },
        {
          "duration": 0.20032031250002547,
          "durationTicks": 50,
          "midi": 87,
          "name": "D#6",
          "ticks": 53424,
          "time": 214.03824749999998,
          "velocity": 0.968503937007874
        },
        {
          "duration": 0.1923074999999983,
          "durationTicks": 48,
          "midi": 50,
          "name": "D3",
          "ticks": 53520,
          "time": 214.42286249999998,
          "velocity": 0.968503937007874
        },
        {
          "duration": 0.16826906250000206,
          "durationTicks": 42,
          "midi": 62,
          "name": "D4",
          "ticks": 53520,
          "time": 214.42286249999998,
          "velocity": 0.968503937007874
        },
        {
          "duration": 0.09615375000001336,
          "durationTicks": 24,
          "midi": 74,
          "name": "D5",
          "ticks": 53520,
          "time": 214.42286249999998,
          "velocity": 0.968503937007874
        },
        {
          "duration": 0.16826906250000206,
          "durationTicks": 42,
          "midi": 86,
          "name": "D6",
          "ticks": 53520,
          "time": 214.42286249999998,
          "velocity": 0.968503937007874
        },
        {
          "duration": 0.1923074999999983,
          "durationTicks": 48,
          "midi": 56,
          "name": "G#3",
          "ticks": 53616,
          "time": 214.8074775,
          "velocity": 0.968503937007874
        },
        {
          "duration": 0.12820500000000834,
          "durationTicks": 32,
          "midi": 68,
          "name": "G#4",
          "ticks": 53616,
          "time": 214.8074775,
          "velocity": 0.968503937007874
        },
        {
          "duration": 0.11217937499998243,
          "durationTicks": 28,
          "midi": 80,
          "name": "G#5",
          "ticks": 53616,
          "time": 214.8074775,
          "velocity": 0.968503937007874
        },
        {
          "duration": 0.18429468749997113,
          "durationTicks": 46,
          "midi": 92,
          "name": "G#6",
          "ticks": 53616,
          "time": 214.8074775,
          "velocity": 0.968503937007874
        },
        {
          "duration": 0.1923074999999983,
          "durationTicks": 48,
          "midi": 55,
          "name": "G3",
          "ticks": 53712,
          "time": 215.1920925,
          "velocity": 0.968503937007874
        },
        {
          "duration": 0.1762818750000008,
          "durationTicks": 44,
          "midi": 67,
          "name": "G4",
          "ticks": 53712,
          "time": 215.1920925,
          "velocity": 0.968503937007874
        },
        {
          "duration": 0.1041665625000121,
          "durationTicks": 26,
          "midi": 79,
          "name": "G5",
          "ticks": 53712,
          "time": 215.1920925,
          "velocity": 0.968503937007874
        },
        {
          "duration": 0.1602562499999749,
          "durationTicks": 40,
          "midi": 91,
          "name": "G6",
          "ticks": 53712,
          "time": 215.1920925,
          "velocity": 0.968503937007874
        },
        {
          "duration": 0.1923074999999983,
          "durationTicks": 48,
          "midi": 48,
          "name": "C3",
          "ticks": 53808,
          "time": 215.5767075,
          "velocity": 0.968503937007874
        },
        {
          "duration": 0.2243587500000217,
          "durationTicks": 56,
          "midi": 60,
          "name": "C4",
          "ticks": 53808,
          "time": 215.5767075,
          "velocity": 0.968503937007874
        },
        {
          "duration": 0.24839718750001794,
          "durationTicks": 62,
          "midi": 72,
          "name": "C5",
          "ticks": 53808,
          "time": 215.5767075,
          "velocity": 0.968503937007874
        },
        {
          "duration": 0.21634593749999453,
          "durationTicks": 54,
          "midi": 84,
          "name": "C6",
          "ticks": 53808,
          "time": 215.5767075,
          "velocity": 0.968503937007874
        },
        {
          "duration": 0.24038437499999077,
          "durationTicks": 60,
          "midi": 96,
          "name": "C7",
          "ticks": 53808,
          "time": 215.5767075,
          "velocity": 0.968503937007874
        },
        {
          "duration": 0.0881409374999862,
          "durationTicks": 22,
          "midi": 72,
          "name": "C5",
          "ticks": 54288,
          "time": 217.49978249999998,
          "velocity": 0.968503937007874
        },
        {
          "duration": 0.11217937499998243,
          "durationTicks": 28,
          "midi": 76,
          "name": "E5",
          "ticks": 54288,
          "time": 217.49978249999998,
          "velocity": 0.952755905511811
        },
        {
          "duration": 0.11217937500001085,
          "durationTicks": 28,
          "midi": 72,
          "name": "C5",
          "ticks": 54336,
          "time": 217.69208999999998,
          "velocity": 0.968503937007874
        },
        {
          "duration": 0.1201921875000096,
          "durationTicks": 30,
          "midi": 76,
          "name": "E5",
          "ticks": 54336,
          "time": 217.69208999999998,
          "velocity": 0.9133858267716536
        },
        {
          "duration": 0.0881409374999862,
          "durationTicks": 22,
          "midi": 74,
          "name": "D5",
          "ticks": 54384,
          "time": 217.88439749999998,
          "velocity": 0.968503937007874
        },
        {
          "duration": 0.14423062500000583,
          "durationTicks": 36,
          "midi": 77,
          "name": "F5",
          "ticks": 54384,
          "time": 217.88439749999998,
          "velocity": 0.9606299212598425
        },
        {
          "duration": 0.11217937499998243,
          "durationTicks": 28,
          "midi": 72,
          "name": "C5",
          "ticks": 54432,
          "time": 218.076705,
          "velocity": 0.9291338582677166
        },
        {
          "duration": 0.13621781249997866,
          "durationTicks": 34,
          "midi": 76,
          "name": "E5",
          "ticks": 54432,
          "time": 218.076705,
          "velocity": 0.9606299212598425
        },
        {
          "duration": 0.08012812500001587,
          "durationTicks": 20,
          "midi": 71,
          "name": "B4",
          "ticks": 54480,
          "time": 218.2690125,
          "velocity": 0.968503937007874
        },
        {
          "duration": 0.08012812500001587,
          "durationTicks": 20,
          "midi": 74,
          "name": "D5",
          "ticks": 54480,
          "time": 218.2690125,
          "velocity": 0.9448818897637795
        },
        {
          "duration": 0.0881409374999862,
          "durationTicks": 22,
          "midi": 69,
          "name": "A4",
          "ticks": 54528,
          "time": 218.46132,
          "velocity": 0.968503937007874
        },
        {
          "duration": 0.0881409374999862,
          "durationTicks": 22,
          "midi": 72,
          "name": "C5",
          "ticks": 54528,
          "time": 218.46132,
          "velocity": 0.968503937007874
        },
        {
          "duration": 0.13621781249997866,
          "durationTicks": 34,
          "midi": 67,
          "name": "G4",
          "ticks": 54576,
          "time": 218.6536275,
          "velocity": 0.968503937007874
        },
        {
          "duration": 0.13621781249997866,
          "durationTicks": 34,
          "midi": 71,
          "name": "B4",
          "ticks": 54576,
          "time": 218.6536275,
          "velocity": 0.968503937007874
        },
        {
          "duration": 0.14423062500000583,
          "durationTicks": 36,
          "midi": 62,
          "name": "D4",
          "ticks": 54672,
          "time": 219.0382425,
          "velocity": 0.968503937007874
        },
        {
          "duration": 0.2804484374999845,
          "durationTicks": 70,
          "midi": 67,
          "name": "G4",
          "ticks": 54672,
          "time": 219.0382425,
          "velocity": 0.968503937007874
        },
        {
          "duration": 0.33653812500000413,
          "durationTicks": 84,
          "midi": 71,
          "name": "B4",
          "ticks": 54672,
          "time": 219.0382425,
          "velocity": 0.968503937007874
        },
        {
          "duration": 0.4567303124999853,
          "durationTicks": 114,
          "midi": 48,
          "name": "C3",
          "ticks": 54768,
          "time": 219.4228575,
          "velocity": 0.937007874015748
        },
        {
          "duration": 0.48076875000000996,
          "durationTicks": 120,
          "midi": 55,
          "name": "G3",
          "ticks": 54768,
          "time": 219.4228575,
          "velocity": 0.968503937007874
        },
        {
          "duration": 0.4567303124999853,
          "durationTicks": 114,
          "midi": 60,
          "name": "C4",
          "ticks": 54768,
          "time": 219.4228575,
          "velocity": 0.968503937007874
        },
        {
          "duration": 0.41666625000002,
          "durationTicks": 104,
          "midi": 64,
          "name": "E4",
          "ticks": 54768,
          "time": 219.4228575,
          "velocity": 0.968503937007874
        },
        {
          "duration": 0.44871749999998656,
          "durationTicks": 112,
          "midi": 67,
          "name": "G4",
          "ticks": 54768,
          "time": 219.4228575,
          "velocity": 0.968503937007874
        },
        {
          "duration": 0.44871749999998656,
          "durationTicks": 112,
          "midi": 72,
          "name": "C5",
          "ticks": 54768,
          "time": 219.4228575,
          "velocity": 0.9606299212598425
        },
        {
          "duration": 0.0881409374999862,
          "durationTicks": 22,
          "midi": 48,
          "name": "C3",
          "ticks": 54912,
          "time": 219.99978,
          "velocity": 0.952755905511811
        },
        {
          "duration": 0.18429468749999955,
          "durationTicks": 46,
          "midi": 55,
          "name": "G3",
          "ticks": 54912,
          "time": 219.99978,
          "velocity": 0.9212598425196851
        },
        {
          "duration": 0.14423062500000583,
          "durationTicks": 36,
          "midi": 60,
          "name": "C4",
          "ticks": 54912,
          "time": 219.99978,
          "velocity": 0.968503937007874
        },
        {
          "duration": 0.0881409374999862,
          "durationTicks": 22,
          "midi": 64,
          "name": "E4",
          "ticks": 54912,
          "time": 219.99978,
          "velocity": 0.968503937007874
        },
        {
          "duration": 0.16025625000000332,
          "durationTicks": 40,
          "midi": 67,
          "name": "G4",
          "ticks": 54912,
          "time": 219.99978,
          "velocity": 0.968503937007874
        },
        {
          "duration": 0.152243437500033,
          "durationTicks": 38,
          "midi": 72,
          "name": "C5",
          "ticks": 54912,
          "time": 219.99978,
          "velocity": 0.9606299212598425
        },
        {
          "duration": 0.16826906250000206,
          "durationTicks": 42,
          "midi": 53,
          "name": "F3",
          "ticks": 54960,
          "time": 220.19208749999999,
          "velocity": 0.9606299212598425
        },
        {
          "duration": 0.17628187500002923,
          "durationTicks": 44,
          "midi": 60,
          "name": "C4",
          "ticks": 54960,
          "time": 220.19208749999999,
          "velocity": 0.952755905511811
        },
        {
          "duration": 0.12820500000000834,
          "durationTicks": 32,
          "midi": 65,
          "name": "F4",
          "ticks": 54960,
          "time": 220.19208749999999,
          "velocity": 0.968503937007874
        },
        {
          "duration": 0.16025625000000332,
          "durationTicks": 40,
          "midi": 69,
          "name": "A4",
          "ticks": 54960,
          "time": 220.19208749999999,
          "velocity": 0.968503937007874
        },
        {
          "duration": 0.14423062500000583,
          "durationTicks": 36,
          "midi": 72,
          "name": "C5",
          "ticks": 54960,
          "time": 220.19208749999999,
          "velocity": 0.9606299212598425
        },
        {
          "duration": 0.11217937499998243,
          "durationTicks": 28,
          "midi": 53,
          "name": "F3",
          "ticks": 55056,
          "time": 220.57670249999998,
          "velocity": 0.937007874015748
        },
        {
          "duration": 0.1041665625000121,
          "durationTicks": 26,
          "midi": 60,
          "name": "C4",
          "ticks": 55056,
          "time": 220.57670249999998,
          "velocity": 0.9606299212598425
        },
        {
          "duration": 0.08012812500001587,
          "durationTicks": 20,
          "midi": 65,
          "name": "F4",
          "ticks": 55056,
          "time": 220.57670249999998,
          "velocity": 0.968503937007874
        },
        {
          "duration": 0.0881409374999862,
          "durationTicks": 22,
          "midi": 69,
          "name": "A4",
          "ticks": 55056,
          "time": 220.57670249999998,
          "velocity": 0.968503937007874
        },
        {
          "duration": 0.1201921875000096,
          "durationTicks": 30,
          "midi": 72,
          "name": "C5",
          "ticks": 55056,
          "time": 220.57670249999998,
          "velocity": 0.968503937007874
        },
        {
          "duration": 0.16025625000000332,
          "durationTicks": 40,
          "midi": 53,
          "name": "F3",
          "ticks": 55104,
          "time": 220.76900999999998,
          "velocity": 0.937007874015748
        },
        {
          "duration": 0.11217937499998243,
          "durationTicks": 28,
          "midi": 60,
          "name": "C4",
          "ticks": 55104,
          "time": 220.76900999999998,
          "velocity": 0.937007874015748
        },
        {
          "duration": 0.08012812500001587,
          "durationTicks": 20,
          "midi": 65,
          "name": "F4",
          "ticks": 55104,
          "time": 220.76900999999998,
          "velocity": 0.9606299212598425
        },
        {
          "duration": 0.1201921875000096,
          "durationTicks": 30,
          "midi": 69,
          "name": "A4",
          "ticks": 55104,
          "time": 220.76900999999998,
          "velocity": 0.968503937007874
        },
        {
          "duration": 0.14423062500000583,
          "durationTicks": 36,
          "midi": 72,
          "name": "C5",
          "ticks": 55104,
          "time": 220.76900999999998,
          "velocity": 0.9606299212598425
        },
        {
          "duration": 0.11217937500001085,
          "durationTicks": 28,
          "midi": 52,
          "name": "E3",
          "ticks": 55152,
          "time": 220.96131749999998,
          "velocity": 0.968503937007874
        },
        {
          "duration": 0.11217937500001085,
          "durationTicks": 28,
          "midi": 59,
          "name": "B3",
          "ticks": 55152,
          "time": 220.96131749999998,
          "velocity": 0.968503937007874
        },
        {
          "duration": 0.0881409374999862,
          "durationTicks": 22,
          "midi": 64,
          "name": "E4",
          "ticks": 55152,
          "time": 220.96131749999998,
          "velocity": 0.968503937007874
        },
        {
          "duration": 0.11217937500001085,
          "durationTicks": 28,
          "midi": 68,
          "name": "G#4",
          "ticks": 55152,
          "time": 220.96131749999998,
          "velocity": 0.9606299212598425
        },
        {
          "duration": 0.12820500000003676,
          "durationTicks": 32,
          "midi": 71,
          "name": "B4",
          "ticks": 55152,
          "time": 220.96131749999998,
          "velocity": 0.968503937007874
        },
        {
          "duration": 0.1041665625000121,
          "durationTicks": 26,
          "midi": 52,
          "name": "E3",
          "ticks": 55200,
          "time": 221.153625,
          "velocity": 0.889763779527559
        },
        {
          "duration": 0.1041665625000121,
          "durationTicks": 26,
          "midi": 59,
          "name": "B3",
          "ticks": 55200,
          "time": 221.153625,
          "velocity": 0.968503937007874
        },
        {
          "duration": 0.09615374999998494,
          "durationTicks": 24,
          "midi": 64,
          "name": "E4",
          "ticks": 55200,
          "time": 221.153625,
          "velocity": 0.952755905511811
        },
        {
          "duration": 0.12019218749998117,
          "durationTicks": 30,
          "midi": 68,
          "name": "G#4",
          "ticks": 55200,
          "time": 221.153625,
          "velocity": 0.968503937007874
        },
        {
          "duration": 0.11217937499998243,
          "durationTicks": 28,
          "midi": 71,
          "name": "B4",
          "ticks": 55200,
          "time": 221.153625,
          "velocity": 0.9448818897637795
        },
        {
          "duration": 0.0881409374999862,
          "durationTicks": 22,
          "midi": 52,
          "name": "E3",
          "ticks": 55248,
          "time": 221.3459325,
          "velocity": 0.8818897637795275
        },
        {
          "duration": 0.0881409374999862,
          "durationTicks": 22,
          "midi": 59,
          "name": "B3",
          "ticks": 55248,
          "time": 221.3459325,
          "velocity": 0.9606299212598425
        },
        {
          "duration": 0.08012812500001587,
          "durationTicks": 20,
          "midi": 64,
          "name": "E4",
          "ticks": 55248,
          "time": 221.3459325,
          "velocity": 0.968503937007874
        },
        {
          "duration": 0.09615374999998494,
          "durationTicks": 24,
          "midi": 68,
          "name": "G#4",
          "ticks": 55248,
          "time": 221.3459325,
          "velocity": 0.9606299212598425
        },
        {
          "duration": 0.09615374999998494,
          "durationTicks": 24,
          "midi": 71,
          "name": "B4",
          "ticks": 55248,
          "time": 221.3459325,
          "velocity": 0.9606299212598425
        },
        {
          "duration": 0.11217937499998243,
          "durationTicks": 28,
          "midi": 52,
          "name": "E3",
          "ticks": 55296,
          "time": 221.53824,
          "velocity": 0.9606299212598425
        },
        {
          "duration": 0.08012812500001587,
          "durationTicks": 20,
          "midi": 59,
          "name": "B3",
          "ticks": 55296,
          "time": 221.53824,
          "velocity": 0.968503937007874
        },
        {
          "duration": 0.09615374999998494,
          "durationTicks": 24,
          "midi": 64,
          "name": "E4",
          "ticks": 55296,
          "time": 221.53824,
          "velocity": 0.968503937007874
        },
        {
          "duration": 0.13621781249997866,
          "durationTicks": 34,
          "midi": 68,
          "name": "G#4",
          "ticks": 55296,
          "time": 221.53824,
          "velocity": 0.968503937007874
        },
        {
          "duration": 0.13621781249997866,
          "durationTicks": 34,
          "midi": 71,
          "name": "B4",
          "ticks": 55296,
          "time": 221.53824,
          "velocity": 0.952755905511811
        },
        {
          "duration": 0.1762818750000008,
          "durationTicks": 44,
          "midi": 45,
          "name": "A2",
          "ticks": 55344,
          "time": 221.7305475,
          "velocity": 0.968503937007874
        },
        {
          "duration": 0.1923074999999983,
          "durationTicks": 48,
          "midi": 57,
          "name": "A3",
          "ticks": 55344,
          "time": 221.7305475,
          "velocity": 0.968503937007874
        },
        {
          "duration": 0.1762818750000008,
          "durationTicks": 44,
          "midi": 64,
          "name": "E4",
          "ticks": 55344,
          "time": 221.7305475,
          "velocity": 0.968503937007874
        },
        {
          "duration": 0.15224343750000457,
          "durationTicks": 38,
          "midi": 69,
          "name": "A4",
          "ticks": 55344,
          "time": 221.7305475,
          "velocity": 0.968503937007874
        },
        {
          "duration": 0.1602562499999749,
          "durationTicks": 40,
          "midi": 72,
          "name": "C5",
          "ticks": 55344,
          "time": 221.7305475,
          "velocity": 0.9606299212598425
        },
        {
          "duration": 0.0881409374999862,
          "durationTicks": 22,
          "midi": 45,
          "name": "A2",
          "ticks": 55440,
          "time": 222.1151625,
          "velocity": 0.9606299212598425
        },
        {
          "duration": 0.12820500000000834,
          "durationTicks": 32,
          "midi": 57,
          "name": "A3",
          "ticks": 55440,
          "time": 222.1151625,
          "velocity": 0.968503937007874
        },
        {
          "duration": 0.12019218749998117,
          "durationTicks": 30,
          "midi": 64,
          "name": "E4",
          "ticks": 55440,
          "time": 222.1151625,
          "velocity": 0.968503937007874
        },
        {
          "duration": 0.12019218749998117,
          "durationTicks": 30,
          "midi": 69,
          "name": "A4",
          "ticks": 55440,
          "time": 222.1151625,
          "velocity": 0.968503937007874
        },
        {
          "duration": 0.14423062500000583,
          "durationTicks": 36,
          "midi": 72,
          "name": "C5",
          "ticks": 55440,
          "time": 222.1151625,
          "velocity": 0.968503937007874
        },
        {
          "duration": 1.145832187499991,
          "durationTicks": 286,
          "midi": 48,
          "name": "C3",
          "ticks": 55536,
          "time": 222.4997775,
          "velocity": 0.952755905511811
        },
        {
          "duration": 1.2179474999999798,
          "durationTicks": 304,
          "midi": 58,
          "name": "A#3",
          "ticks": 55536,
          "time": 222.4997775,
          "velocity": 0.968503937007874
        },
        {
          "duration": 1.410254999999978,
          "durationTicks": 352,
          "midi": 60,
          "name": "C4",
          "ticks": 55536,
          "time": 222.4997775,
          "velocity": 0.968503937007874
        },
        {
          "duration": 1.4503190625000002,
          "durationTicks": 362,
          "midi": 64,
          "name": "E4",
          "ticks": 55536,
          "time": 222.4997775,
          "velocity": 0.968503937007874
        },
        {
          "duration": 1.426280625000004,
          "durationTicks": 356,
          "midi": 67,
          "name": "G4",
          "ticks": 55536,
          "time": 222.4997775,
          "velocity": 0.968503937007874
        },
        {
          "duration": 1.490383124999994,
          "durationTicks": 372,
          "midi": 70,
          "name": "A#4",
          "ticks": 55536,
          "time": 222.4997775,
          "velocity": 0.968503937007874
        },
        {
          "duration": 1.1858962500000132,
          "durationTicks": 296,
          "midi": 52,
          "name": "E3",
          "ticks": 55920,
          "time": 224.03823749999998,
          "velocity": 0.968503937007874
        },
        {
          "duration": 1.225960312500007,
          "durationTicks": 306,
          "midi": 58,
          "name": "A#3",
          "ticks": 55920,
          "time": 224.03823749999998,
          "velocity": 0.968503937007874
        },
        {
          "duration": 1.2099346875000379,
          "durationTicks": 302,
          "midi": 60,
          "name": "C4",
          "ticks": 55920,
          "time": 224.03823749999998,
          "velocity": 0.968503937007874
        },
        {
          "duration": 1.1538450000000182,
          "durationTicks": 288,
          "midi": 64,
          "name": "E4",
          "ticks": 55920,
          "time": 224.03823749999998,
          "velocity": 0.968503937007874
        },
        {
          "duration": 1.1698706249999873,
          "durationTicks": 292,
          "midi": 67,
          "name": "G4",
          "ticks": 55920,
          "time": 224.03823749999998,
          "velocity": 0.968503937007874
        },
        {
          "duration": 1.2179475000000082,
          "durationTicks": 304,
          "midi": 70,
          "name": "A#4",
          "ticks": 55920,
          "time": 224.03823749999998,
          "velocity": 0.968503937007874
        },
        {
          "duration": 1.2099346875000379,
          "durationTicks": 302,
          "midi": 72,
          "name": "C5",
          "ticks": 55920,
          "time": 224.03823749999998,
          "velocity": 0.968503937007874
        },
        {
          "duration": 1.177883437499986,
          "durationTicks": 294,
          "midi": 55,
          "name": "G3",
          "ticks": 56304,
          "time": 225.5766975,
          "velocity": 0.968503937007874
        },
        {
          "duration": 1.2339731250000057,
          "durationTicks": 308,
          "midi": 58,
          "name": "A#3",
          "ticks": 56304,
          "time": 225.5766975,
          "velocity": 0.968503937007874
        },
        {
          "duration": 1.1698706249999873,
          "durationTicks": 292,
          "midi": 60,
          "name": "C4",
          "ticks": 56304,
          "time": 225.5766975,
          "velocity": 0.968503937007874
        },
        {
          "duration": 1.225960312500007,
          "durationTicks": 306,
          "midi": 64,
          "name": "E4",
          "ticks": 56304,
          "time": 225.5766975,
          "velocity": 0.968503937007874
        },
        {
          "duration": 1.1698706249999873,
          "durationTicks": 292,
          "midi": 67,
          "name": "G4",
          "ticks": 56304,
          "time": 225.5766975,
          "velocity": 0.968503937007874
        },
        {
          "duration": 1.1858962500000132,
          "durationTicks": 296,
          "midi": 70,
          "name": "A#4",
          "ticks": 56304,
          "time": 225.5766975,
          "velocity": 0.968503937007874
        },
        {
          "duration": 1.2099346875000094,
          "durationTicks": 302,
          "midi": 72,
          "name": "C5",
          "ticks": 56304,
          "time": 225.5766975,
          "velocity": 0.968503937007874
        },
        {
          "duration": 1.2339731250000057,
          "durationTicks": 308,
          "midi": 76,
          "name": "E5",
          "ticks": 56304,
          "time": 225.5766975,
          "velocity": 0.968503937007874
        },
        {
          "duration": 1.315558125000024,
          "durationTicks": 508,
          "midi": 60,
          "name": "C4",
          "ticks": 56688,
          "time": 227.11515749999998,
          "velocity": 0.968503937007874
        },
        {
          "duration": 1.3074412500000108,
          "durationTicks": 504,
          "midi": 67,
          "name": "G4",
          "ticks": 56688,
          "time": 227.11515749999998,
          "velocity": 0.968503937007874
        },
        {
          "duration": 1.3114996875000315,
          "durationTicks": 506,
          "midi": 70,
          "name": "A#4",
          "ticks": 56688,
          "time": 227.11515749999998,
          "velocity": 0.968503937007874
        },
        {
          "duration": 1.2952659375000337,
          "durationTicks": 498,
          "midi": 72,
          "name": "C5",
          "ticks": 56688,
          "time": 227.11515749999998,
          "velocity": 0.968503937007874
        },
        {
          "duration": 1.299324375000026,
          "durationTicks": 500,
          "midi": 76,
          "name": "E5",
          "ticks": 56688,
          "time": 227.11515749999998,
          "velocity": 0.968503937007874
        },
        {
          "duration": 1.299324375000026,
          "durationTicks": 500,
          "midi": 82,
          "name": "A#5",
          "ticks": 56688,
          "time": 227.11515749999998,
          "velocity": 0.968503937007874
        },
        {
          "duration": 1.3033828125000184,
          "durationTicks": 502,
          "midi": 84,
          "name": "C6",
          "ticks": 56688,
          "time": 227.11515749999998,
          "velocity": 0.968503937007874
        },
        {
          "duration": 0.26785687499997834,
          "durationTicks": 132,
          "midi": 65,
          "name": "F4",
          "ticks": 57216,
          "time": 228.4713,
          "velocity": 0.968503937007874
        },
        {
          "duration": 0.2719153124999991,
          "durationTicks": 134,
          "midi": 57,
          "name": "A3",
          "ticks": 57344,
          "time": 228.73104,
          "velocity": 0.968503937007874
        },
        {
          "duration": 0.227272499999998,
          "durationTicks": 112,
          "midi": 58,
          "name": "A#3",
          "ticks": 57472,
          "time": 228.99078,
          "velocity": 0.9606299212598425
        },
        {
          "duration": 0.21103875000000016,
          "durationTicks": 104,
          "midi": 59,
          "name": "B3",
          "ticks": 57600,
          "time": 229.25052,
          "velocity": 0.968503937007874
        },
        {
          "duration": 0.10551937500000008,
          "durationTicks": 52,
          "midi": 60,
          "name": "C4",
          "ticks": 57728,
          "time": 229.51026000000002,
          "velocity": 0.9606299212598425
        },
        {
          "duration": 0.10551937500000008,
          "durationTicks": 52,
          "midi": 62,
          "name": "D4",
          "ticks": 57792,
          "time": 229.64013,
          "velocity": 0.968503937007874
        },
        {
          "duration": 0.12175312499999791,
          "durationTicks": 60,
          "midi": 64,
          "name": "E4",
          "ticks": 57856,
          "time": 229.77,
          "velocity": 0.968503937007874
        },
        {
          "duration": 0.09740250000001538,
          "durationTicks": 48,
          "midi": 65,
          "name": "F4",
          "ticks": 57920,
          "time": 229.89987,
          "velocity": 0.9606299212598425
        },
        {
          "duration": 0.26785687500000677,
          "durationTicks": 132,
          "midi": 65,
          "name": "F4",
          "ticks": 57984,
          "time": 230.02974,
          "velocity": 0.9606299212598425
        },
        {
          "duration": 0.2759737500000199,
          "durationTicks": 136,
          "midi": 57,
          "name": "A3",
          "ticks": 58112,
          "time": 230.28948,
          "velocity": 0.968503937007874
        },
        {
          "duration": 0.2475646875000166,
          "durationTicks": 122,
          "midi": 58,
          "name": "A#3",
          "ticks": 58240,
          "time": 230.54922,
          "velocity": 0.9606299212598425
        },
        {
          "duration": 0.16639593749999904,
          "durationTicks": 82,
          "midi": 59,
          "name": "B3",
          "ticks": 58368,
          "time": 230.80896,
          "velocity": 0.968503937007874
        },
        {
          "duration": 0.0933440624999946,
          "durationTicks": 46,
          "midi": 60,
          "name": "C4",
          "ticks": 58432,
          "time": 230.93883,
          "velocity": 0.968503937007874
        },
        {
          "duration": 0.1704543749999914,
          "durationTicks": 84,
          "midi": 62,
          "name": "D4",
          "ticks": 58496,
          "time": 231.0687,
          "velocity": 0.968503937007874
        },
        {
          "duration": 0.33279187499999807,
          "durationTicks": 164,
          "midi": 60,
          "name": "C4",
          "ticks": 58560,
          "time": 231.19857000000002,
          "velocity": 0.968503937007874
        },
        {
          "duration": 0.28003218750001224,
          "durationTicks": 138,
          "midi": 65,
          "name": "F4",
          "ticks": 58752,
          "time": 231.58818,
          "velocity": 0.968503937007874
        },
        {
          "duration": 0.263798437499986,
          "durationTicks": 130,
          "midi": 57,
          "name": "A3",
          "ticks": 58880,
          "time": 231.84792000000002,
          "velocity": 0.968503937007874
        },
        {
          "duration": 0.22321406250000564,
          "durationTicks": 110,
          "midi": 58,
          "name": "A#3",
          "ticks": 59008,
          "time": 232.10766,
          "velocity": 0.9606299212598425
        },
        {
          "duration": 0.23538937500001111,
          "durationTicks": 116,
          "midi": 59,
          "name": "B3",
          "ticks": 59136,
          "time": 232.3674,
          "velocity": 0.968503937007874
        },
        {
          "duration": 0.10957781249999243,
          "durationTicks": 54,
          "midi": 60,
          "name": "C4",
          "ticks": 59264,
          "time": 232.62714,
          "velocity": 0.968503937007874
        },
        {
          "duration": 0.11769468750000556,
          "durationTicks": 58,
          "midi": 62,
          "name": "D4",
          "ticks": 59328,
          "time": 232.75701,
          "velocity": 0.968503937007874
        },
        {
          "duration": 0.1704543749999914,
          "durationTicks": 84,
          "midi": 64,
          "name": "E4",
          "ticks": 59392,
          "time": 232.88688000000002,
          "velocity": 0.9606299212598425
        },
        {
          "duration": 0.0933440624999946,
          "durationTicks": 46,
          "midi": 65,
          "name": "F4",
          "ticks": 59456,
          "time": 233.01675,
          "velocity": 0.9606299212598425
        },
        {
          "duration": 0.25973999999999364,
          "durationTicks": 128,
          "midi": 67,
          "name": "G4",
          "ticks": 59520,
          "time": 233.14662,
          "velocity": 0.968503937007874
        },
        {
          "duration": 0.27597374999999147,
          "durationTicks": 136,
          "midi": 59,
          "name": "B3",
          "ticks": 59648,
          "time": 233.40636,
          "velocity": 0.968503937007874
        },
        {
          "duration": 0.22321406250000564,
          "durationTicks": 110,
          "midi": 60,
          "name": "C4",
          "ticks": 59776,
          "time": 233.6661,
          "velocity": 0.968503937007874
        },
        {
          "duration": 0.10146093750000773,
          "durationTicks": 50,
          "midi": 61,
          "name": "C#4",
          "ticks": 59904,
          "time": 233.92584,
          "velocity": 0.9606299212598425
        },
        {
          "duration": 0.11769468750000556,
          "durationTicks": 58,
          "midi": 62,
          "name": "D4",
          "ticks": 59968,
          "time": 234.05571,
          "velocity": 0.968503937007874
        },
        {
          "duration": 0.10551937500000008,
          "durationTicks": 52,
          "midi": 64,
          "name": "E4",
          "ticks": 60032,
          "time": 234.18558000000002,
          "velocity": 0.968503937007874
        },
        {
          "duration": 0.16233750000000668,
          "durationTicks": 80,
          "midi": 62,
          "name": "D4",
          "ticks": 60096,
          "time": 234.31545,
          "velocity": 0.968503937007874
        },
        {
          "duration": 2.2077899999999886,
          "durationTicks": 1088,
          "midi": 60,
          "name": "C4",
          "ticks": 60288,
          "time": 234.70506,
          "velocity": 0.968503937007874
        },
        {
          "duration": 2.0048681250000016,
          "durationTicks": 988,
          "midi": 67,
          "name": "G4",
          "ticks": 60288,
          "time": 234.70506,
          "velocity": 0.968503937007874
        },
        {
          "duration": 1.911524062500007,
          "durationTicks": 942,
          "midi": 72,
          "name": "C5",
          "ticks": 60288,
          "time": 234.70506,
          "velocity": 0.968503937007874
        },
        {
          "duration": 0.7345771875000082,
          "durationTicks": 362,
          "midi": 60,
          "name": "C4",
          "ticks": 61440,
          "time": 237.04272,
          "velocity": 0.968503937007874
        },
        {
          "duration": 0.6858759375000147,
          "durationTicks": 338,
          "midi": 65,
          "name": "F4",
          "ticks": 61440,
          "time": 237.04272,
          "velocity": 0.968503937007874
        },
        {
          "duration": 0.7102265624999973,
          "durationTicks": 350,
          "midi": 69,
          "name": "A4",
          "ticks": 61440,
          "time": 237.04272,
          "velocity": 0.968503937007874
        },
        {
          "duration": 0.6412331250000136,
          "durationTicks": 316,
          "midi": 72,
          "name": "C5",
          "ticks": 61440,
          "time": 237.04272,
          "velocity": 0.968503937007874
        },
        {
          "duration": 1.4772712500000011,
          "durationTicks": 728,
          "midi": 60,
          "name": "C4",
          "ticks": 61824,
          "time": 237.82194,
          "velocity": 0.968503937007874
        },
        {
          "duration": 1.4204531249999945,
          "durationTicks": 700,
          "midi": 64,
          "name": "E4",
          "ticks": 61824,
          "time": 237.82194,
          "velocity": 0.968503937007874
        },
        {
          "duration": 1.387985624999999,
          "durationTicks": 684,
          "midi": 67,
          "name": "G4",
          "ticks": 61824,
          "time": 237.82194,
          "velocity": 0.968503937007874
        },
        {
          "duration": 1.5016218749999837,
          "durationTicks": 740,
          "midi": 72,
          "name": "C5",
          "ticks": 61824,
          "time": 237.82194,
          "velocity": 0.968503937007874
        },
        {
          "duration": 0.15827906250001433,
          "durationTicks": 78,
          "midi": 55,
          "name": "G3",
          "ticks": 62592,
          "time": 239.38038,
          "velocity": 0.9606299212598425
        },
        {
          "duration": 0.14610375000000886,
          "durationTicks": 72,
          "midi": 67,
          "name": "G4",
          "ticks": 62592,
          "time": 239.38038,
          "velocity": 0.968503937007874
        },
        {
          "duration": 0.14610374999998044,
          "durationTicks": 72,
          "midi": 58,
          "name": "A#3",
          "ticks": 62656,
          "time": 239.51025,
          "velocity": 0.9606299212598425
        },
        {
          "duration": 0.10957781249999243,
          "durationTicks": 54,
          "midi": 70,
          "name": "A#4",
          "ticks": 62656,
          "time": 239.51025,
          "velocity": 0.9606299212598425
        },
        {
          "duration": 0.0852271875000099,
          "durationTicks": 42,
          "midi": 60,
          "name": "C4",
          "ticks": 62720,
          "time": 239.64012,
          "velocity": 0.9606299212598425
        },
        {
          "duration": 0.07305187500000443,
          "durationTicks": 36,
          "midi": 72,
          "name": "C5",
          "ticks": 62720,
          "time": 239.64012,
          "velocity": 0.9606299212598425
        },
        {
          "duration": 0.16233750000000668,
          "durationTicks": 80,
          "midi": 60,
          "name": "C4",
          "ticks": 62784,
          "time": 239.76999,
          "velocity": 0.9212598425196851
        },
        {
          "duration": 0.14204531249998809,
          "durationTicks": 70,
          "midi": 72,
          "name": "C5",
          "ticks": 62784,
          "time": 239.76999,
          "velocity": 0.968503937007874
        },
        {
          "duration": 0.13798687500002416,
          "durationTicks": 68,
          "midi": 58,
          "name": "A#3",
          "ticks": 62848,
          "time": 239.89986,
          "velocity": 0.968503937007874
        },
        {
          "duration": 0.09334406250002303,
          "durationTicks": 46,
          "midi": 70,
          "name": "A#4",
          "ticks": 62848,
          "time": 239.89986,
          "velocity": 0.968503937007874
        },
        {
          "duration": 0.8279212500000028,
          "durationTicks": 408,
          "midi": 63,
          "name": "D#4",
          "ticks": 62912,
          "time": 240.02973,
          "velocity": 0.968503937007874
        },
        {
          "duration": 0.7629862500000115,
          "durationTicks": 376,
          "midi": 67,
          "name": "G4",
          "ticks": 62912,
          "time": 240.02973,
          "velocity": 0.968503937007874
        },
        {
          "duration": 0.8279212500000028,
          "durationTicks": 408,
          "midi": 70,
          "name": "A#4",
          "ticks": 62912,
          "time": 240.02973,
          "velocity": 0.968503937007874
        },
        {
          "duration": 0.836038125000016,
          "durationTicks": 412,
          "midi": 75,
          "name": "D#5",
          "ticks": 62912,
          "time": 240.02973,
          "velocity": 0.9606299212598425
        },
        {
          "duration": 2.2646081250000236,
          "durationTicks": 1116,
          "midi": 60,
          "name": "C4",
          "ticks": 63360,
          "time": 240.93882,
          "velocity": 0.968503937007874
        },
        {
          "duration": 2.2402575000000127,
          "durationTicks": 1104,
          "midi": 67,
          "name": "G4",
          "ticks": 63360,
          "time": 240.93882,
          "velocity": 0.968503937007874
        },
        {
          "duration": 2.224023750000015,
          "durationTicks": 1096,
          "midi": 72,
          "name": "C5",
          "ticks": 63360,
          "time": 240.93882,
          "velocity": 0.968503937007874
        },
        {
          "duration": 0.547889062500019,
          "durationTicks": 270,
          "midi": 53,
          "name": "F3",
          "ticks": 64512,
          "time": 243.27648,
          "velocity": 0.9606299212598425
        },
        {
          "duration": 0.6818175000000224,
          "durationTicks": 336,
          "midi": 60,
          "name": "C4",
          "ticks": 64512,
          "time": 243.27648,
          "velocity": 0.968503937007874
        },
        {
          "duration": 0.6128240625000103,
          "durationTicks": 302,
          "midi": 65,
          "name": "F4",
          "ticks": 64512,
          "time": 243.27648,
          "velocity": 0.968503937007874
        },
        {
          "duration": 0.6737006250000093,
          "durationTicks": 332,
          "midi": 69,
          "name": "A4",
          "ticks": 64512,
          "time": 243.27648,
          "velocity": 0.968503937007874
        },
        {
          "duration": 0.6655837500000246,
          "durationTicks": 328,
          "midi": 72,
          "name": "C5",
          "ticks": 64512,
          "time": 243.27648,
          "velocity": 0.968503937007874
        },
        {
          "duration": 1.5787321875000089,
          "durationTicks": 778,
          "midi": 58,
          "name": "A#3",
          "ticks": 64896,
          "time": 244.0557,
          "velocity": 0.968503937007874
        },
        {
          "duration": 1.4245115625000153,
          "durationTicks": 702,
          "midi": 62,
          "name": "D4",
          "ticks": 64896,
          "time": 244.0557,
          "velocity": 0.968503937007874
        },
        {
          "duration": 1.387985624999999,
          "durationTicks": 684,
          "midi": 65,
          "name": "F4",
          "ticks": 64896,
          "time": 244.0557,
          "velocity": 0.968503937007874
        },
        {
          "duration": 1.4975634374999913,
          "durationTicks": 738,
          "midi": 70,
          "name": "A#4",
          "ticks": 64896,
          "time": 244.0557,
          "velocity": 0.968503937007874
        },
        {
          "duration": 1.4366868749999924,
          "durationTicks": 708,
          "midi": 74,
          "name": "D5",
          "ticks": 64896,
          "time": 244.0557,
          "velocity": 0.968503937007874
        },
        {
          "duration": 1.4569790624999825,
          "durationTicks": 718,
          "midi": 55,
          "name": "G3",
          "ticks": 65664,
          "time": 245.61414000000002,
          "velocity": 0.9606299212598425
        },
        {
          "duration": 1.469154374999988,
          "durationTicks": 724,
          "midi": 62,
          "name": "D4",
          "ticks": 65664,
          "time": 245.61414000000002,
          "velocity": 0.968503937007874
        },
        {
          "duration": 1.4204531249999945,
          "durationTicks": 700,
          "midi": 67,
          "name": "G4",
          "ticks": 65664,
          "time": 245.61414000000002,
          "velocity": 0.968503937007874
        },
        {
          "duration": 1.4326284375,
          "durationTicks": 706,
          "midi": 70,
          "name": "A#4",
          "ticks": 65664,
          "time": 245.61414000000002,
          "velocity": 0.968503937007874
        },
        {
          "duration": 1.3149337499999945,
          "durationTicks": 648,
          "midi": 74,
          "name": "D5",
          "ticks": 65664,
          "time": 245.61414000000002,
          "velocity": 0.968503937007874
        },
        {
          "duration": 1.5584399999999903,
          "durationTicks": 768,
          "midi": 60,
          "name": "C4",
          "ticks": 66432,
          "time": 247.17258,
          "velocity": 0.968503937007874
        },
        {
          "duration": 1.371751875000001,
          "durationTicks": 676,
          "midi": 64,
          "name": "E4",
          "ticks": 66432,
          "time": 247.17258,
          "velocity": 0.968503937007874
        },
        {
          "duration": 1.4326284375,
          "durationTicks": 706,
          "midi": 67,
          "name": "G4",
          "ticks": 66432,
          "time": 247.17258,
          "velocity": 0.968503937007874
        },
        {
          "duration": 1.5056803125000044,
          "durationTicks": 742,
          "midi": 72,
          "name": "C5",
          "ticks": 66432,
          "time": 247.17258,
          "velocity": 0.968503937007874
        },
        {
          "duration": 1.493504999999999,
          "durationTicks": 736,
          "midi": 76,
          "name": "E5",
          "ticks": 66432,
          "time": 247.17258,
          "velocity": 0.968503937007874
        },
        {
          "duration": 1.4813296874999935,
          "durationTicks": 730,
          "midi": 55,
          "name": "G3",
          "ticks": 67200,
          "time": 248.73102,
          "velocity": 0.968503937007874
        },
        {
          "duration": 1.51785562500001,
          "durationTicks": 748,
          "midi": 62,
          "name": "D4",
          "ticks": 67200,
          "time": 248.73102,
          "velocity": 0.968503937007874
        },
        {
          "duration": 1.371751875000001,
          "durationTicks": 676,
          "midi": 65,
          "name": "F4",
          "ticks": 67200,
          "time": 248.73102,
          "velocity": 0.968503937007874
        },
        {
          "duration": 1.501621875000012,
          "durationTicks": 740,
          "midi": 70,
          "name": "A#4",
          "ticks": 67200,
          "time": 248.73102,
          "velocity": 0.968503937007874
        },
        {
          "duration": 1.4853881250000143,
          "durationTicks": 732,
          "midi": 74,
          "name": "D5",
          "ticks": 67200,
          "time": 248.73102,
          "velocity": 0.968503937007874
        },
        {
          "duration": 1.5381478124999717,
          "durationTicks": 758,
          "midi": 60,
          "name": "C4",
          "ticks": 67968,
          "time": 250.28946000000002,
          "velocity": 0.968503937007874
        },
        {
          "duration": 1.4772712499999727,
          "durationTicks": 728,
          "midi": 64,
          "name": "E4",
          "ticks": 67968,
          "time": 250.28946000000002,
          "velocity": 0.968503937007874
        },
        {
          "duration": 1.4326284375,
          "durationTicks": 706,
          "midi": 67,
          "name": "G4",
          "ticks": 67968,
          "time": 250.28946000000002,
          "velocity": 0.968503937007874
        },
        {
          "duration": 1.4894465624999782,
          "durationTicks": 734,
          "midi": 72,
          "name": "C5",
          "ticks": 67968,
          "time": 250.28946000000002,
          "velocity": 0.968503937007874
        },
        {
          "duration": 1.469154374999988,
          "durationTicks": 724,
          "midi": 76,
          "name": "E5",
          "ticks": 67968,
          "time": 250.28946000000002,
          "velocity": 0.968503937007874
        },
        {
          "duration": 0.7548693749999984,
          "durationTicks": 372,
          "midi": 55,
          "name": "G3",
          "ticks": 68736,
          "time": 251.8479,
          "velocity": 0.952755905511811
        },
        {
          "duration": 0.7670446875000039,
          "durationTicks": 378,
          "midi": 62,
          "name": "D4",
          "ticks": 68736,
          "time": 251.8479,
          "velocity": 0.968503937007874
        },
        {
          "duration": 0.5560059375000037,
          "durationTicks": 274,
          "midi": 65,
          "name": "F4",
          "ticks": 68736,
          "time": 251.8479,
          "velocity": 0.968503937007874
        },
        {
          "duration": 0.7142849999999896,
          "durationTicks": 352,
          "midi": 70,
          "name": "A#4",
          "ticks": 68736,
          "time": 251.8479,
          "velocity": 0.968503937007874
        },
        {
          "duration": 0.7305187499999874,
          "durationTicks": 360,
          "midi": 74,
          "name": "D5",
          "ticks": 68736,
          "time": 251.8479,
          "velocity": 0.968503937007874
        },
        {
          "duration": 0.7792200000000093,
          "durationTicks": 384,
          "midi": 60,
          "name": "C4",
          "ticks": 69120,
          "time": 252.62712,
          "velocity": 0.968503937007874
        },
        {
          "duration": 0.7264603125000235,
          "durationTicks": 358,
          "midi": 64,
          "name": "E4",
          "ticks": 69120,
          "time": 252.62712,
          "velocity": 0.968503937007874
        },
        {
          "duration": 0.6574668750000114,
          "durationTicks": 324,
          "midi": 67,
          "name": "G4",
          "ticks": 69120,
          "time": 252.62712,
          "velocity": 0.968503937007874
        },
        {
          "duration": 0.7467525000000137,
          "durationTicks": 368,
          "midi": 72,
          "name": "C5",
          "ticks": 69120,
          "time": 252.62712,
          "velocity": 0.968503937007874
        },
        {
          "duration": 0.6980512500000202,
          "durationTicks": 344,
          "midi": 76,
          "name": "E5",
          "ticks": 69120,
          "time": 252.62712,
          "velocity": 0.9606299212598425
        },
        {
          "duration": 0.7386356250000006,
          "durationTicks": 364,
          "midi": 55,
          "name": "G3",
          "ticks": 69504,
          "time": 253.40634,
          "velocity": 0.968503937007874
        },
        {
          "duration": 0.7345771875000082,
          "durationTicks": 362,
          "midi": 62,
          "name": "D4",
          "ticks": 69504,
          "time": 253.40634,
          "velocity": 0.968503937007874
        },
        {
          "duration": 0.6087656249999895,
          "durationTicks": 300,
          "midi": 65,
          "name": "F4",
          "ticks": 69504,
          "time": 253.40634,
          "velocity": 0.968503937007874
        },
        {
          "duration": 0.7183434375000104,
          "durationTicks": 354,
          "midi": 70,
          "name": "A#4",
          "ticks": 69504,
          "time": 253.40634,
          "velocity": 0.968503937007874
        },
        {
          "duration": 0.7061681250000049,
          "durationTicks": 348,
          "midi": 74,
          "name": "D5",
          "ticks": 69504,
          "time": 253.40634,
          "velocity": 0.968503937007874
        },
        {
          "duration": 0.7711031249999962,
          "durationTicks": 380,
          "midi": 60,
          "name": "C4",
          "ticks": 69888,
          "time": 254.18556,
          "velocity": 0.968503937007874
        },
        {
          "duration": 0.620940937499995,
          "durationTicks": 306,
          "midi": 64,
          "name": "E4",
          "ticks": 69888,
          "time": 254.18556,
          "velocity": 0.968503937007874
        },
        {
          "duration": 0.6737006250000093,
          "durationTicks": 332,
          "midi": 67,
          "name": "G4",
          "ticks": 69888,
          "time": 254.18556,
          "velocity": 0.968503937007874
        },
        {
          "duration": 0.7264603124999951,
          "durationTicks": 358,
          "midi": 72,
          "name": "C5",
          "ticks": 69888,
          "time": 254.18556,
          "velocity": 0.968503937007874
        },
        {
          "duration": 0.6615253125000038,
          "durationTicks": 326,
          "midi": 76,
          "name": "E5",
          "ticks": 69888,
          "time": 254.18556,
          "velocity": 0.952755905511811
        },
        {
          "duration": 0.2516231249999805,
          "durationTicks": 124,
          "midi": 65,
          "name": "F4",
          "ticks": 70272,
          "time": 254.96478000000002,
          "velocity": 0.968503937007874
        },
        {
          "duration": 0.2516231249999805,
          "durationTicks": 124,
          "midi": 77,
          "name": "F5",
          "ticks": 70272,
          "time": 254.96478000000002,
          "velocity": 0.968503937007874
        },
        {
          "duration": 0.2516231249999805,
          "durationTicks": 124,
          "midi": 57,
          "name": "A3",
          "ticks": 70400,
          "time": 255.22452,
          "velocity": 0.968503937007874
        },
        {
          "duration": 0.2516231249999805,
          "durationTicks": 124,
          "midi": 69,
          "name": "A4",
          "ticks": 70400,
          "time": 255.22452,
          "velocity": 0.968503937007874
        },
        {
          "duration": 0.25162312500000894,
          "durationTicks": 124,
          "midi": 58,
          "name": "A#3",
          "ticks": 70528,
          "time": 255.48426,
          "velocity": 0.9606299212598425
        },
        {
          "duration": 0.25162312500000894,
          "durationTicks": 124,
          "midi": 70,
          "name": "A#4",
          "ticks": 70528,
          "time": 255.48426,
          "velocity": 0.9606299212598425
        },
        {
          "duration": 0.2922074999999893,
          "durationTicks": 144,
          "midi": 59,
          "name": "B3",
          "ticks": 70656,
          "time": 255.744,
          "velocity": 0.968503937007874
        },
        {
          "duration": 0.2922074999999893,
          "durationTicks": 144,
          "midi": 71,
          "name": "B4",
          "ticks": 70656,
          "time": 255.744,
          "velocity": 0.968503937007874
        },
        {
          "duration": 0.1623375000000351,
          "durationTicks": 80,
          "midi": 60,
          "name": "C4",
          "ticks": 70784,
          "time": 256.00374,
          "velocity": 0.9448818897637795
        },
        {
          "duration": 0.1623375000000351,
          "durationTicks": 80,
          "midi": 72,
          "name": "C5",
          "ticks": 70784,
          "time": 256.00374,
          "velocity": 0.9448818897637795
        },
        {
          "duration": 0.13392843750000338,
          "durationTicks": 66,
          "midi": 62,
          "name": "D4",
          "ticks": 70848,
          "time": 256.13361,
          "velocity": 0.952755905511811
        },
        {
          "duration": 0.13392843750000338,
          "durationTicks": 66,
          "midi": 74,
          "name": "D5",
          "ticks": 70848,
          "time": 256.13361,
          "velocity": 0.952755905511811
        },
        {
          "duration": 0.17451281249998374,
          "durationTicks": 86,
          "midi": 64,
          "name": "E4",
          "ticks": 70912,
          "time": 256.26348,
          "velocity": 0.9606299212598425
        },
        {
          "duration": 0.17451281249998374,
          "durationTicks": 86,
          "midi": 76,
          "name": "E5",
          "ticks": 70912,
          "time": 256.26348,
          "velocity": 0.9606299212598425
        },
        {
          "duration": 0.09334406250002303,
          "durationTicks": 46,
          "midi": 65,
          "name": "F4",
          "ticks": 70976,
          "time": 256.39335,
          "velocity": 0.968503937007874
        },
        {
          "duration": 0.09334406250002303,
          "durationTicks": 46,
          "midi": 77,
          "name": "F5",
          "ticks": 70976,
          "time": 256.39335,
          "velocity": 0.968503937007874
        },
        {
          "duration": 0.25162312500003736,
          "durationTicks": 124,
          "midi": 65,
          "name": "F4",
          "ticks": 71040,
          "time": 256.52322,
          "velocity": 0.968503937007874
        },
        {
          "duration": 0.25162312500003736,
          "durationTicks": 124,
          "midi": 77,
          "name": "F5",
          "ticks": 71040,
          "time": 256.52322,
          "velocity": 0.968503937007874
        },
        {
          "duration": 0.27191531250002754,
          "durationTicks": 134,
          "midi": 57,
          "name": "A3",
          "ticks": 71168,
          "time": 256.78296,
          "velocity": 0.968503937007874
        },
        {
          "duration": 0.27191531250002754,
          "durationTicks": 134,
          "midi": 69,
          "name": "A4",
          "ticks": 71168,
          "time": 256.78296,
          "velocity": 0.968503937007874
        },
        {
          "duration": 0.23944781249997504,
          "durationTicks": 118,
          "midi": 58,
          "name": "A#3",
          "ticks": 71296,
          "time": 257.0427,
          "velocity": 0.9606299212598425
        },
        {
          "duration": 0.23944781249997504,
          "durationTicks": 118,
          "midi": 70,
          "name": "A#4",
          "ticks": 71296,
          "time": 257.0427,
          "velocity": 0.9606299212598425
        },
        {
          "duration": 0.14204531249998809,
          "durationTicks": 70,
          "midi": 59,
          "name": "B3",
          "ticks": 71424,
          "time": 257.30244,
          "velocity": 0.9606299212598425
        },
        {
          "duration": 0.14204531249998809,
          "durationTicks": 70,
          "midi": 71,
          "name": "B4",
          "ticks": 71424,
          "time": 257.30244,
          "velocity": 0.9606299212598425
        },
        {
          "duration": 0.10957781249999243,
          "durationTicks": 54,
          "midi": 60,
          "name": "C4",
          "ticks": 71488,
          "time": 257.43231000000003,
          "velocity": 0.9448818897637795
        },
        {
          "duration": 0.10957781249999243,
          "durationTicks": 54,
          "midi": 72,
          "name": "C5",
          "ticks": 71488,
          "time": 257.43231000000003,
          "velocity": 0.9448818897637795
        },
        {
          "duration": 0.1379868749999673,
          "durationTicks": 68,
          "midi": 62,
          "name": "D4",
          "ticks": 71552,
          "time": 257.56218,
          "velocity": 0.968503937007874
        },
        {
          "duration": 0.1379868749999673,
          "durationTicks": 68,
          "midi": 74,
          "name": "D5",
          "ticks": 71552,
          "time": 257.56218,
          "velocity": 0.968503937007874
        },
        {
          "duration": 0.3612009375000298,
          "durationTicks": 178,
          "midi": 60,
          "name": "C4",
          "ticks": 71616,
          "time": 257.69205,
          "velocity": 0.968503937007874
        },
        {
          "duration": 0.3612009375000298,
          "durationTicks": 178,
          "midi": 72,
          "name": "C5",
          "ticks": 71616,
          "time": 257.69205,
          "velocity": 0.968503937007874
        },
        {
          "duration": 0.27597374999999147,
          "durationTicks": 136,
          "midi": 65,
          "name": "F4",
          "ticks": 71808,
          "time": 258.08166,
          "velocity": 0.968503937007874
        },
        {
          "duration": 0.27597374999999147,
          "durationTicks": 136,
          "midi": 77,
          "name": "F5",
          "ticks": 71808,
          "time": 258.08166,
          "velocity": 0.968503937007874
        },
        {
          "duration": 0.26785687500000677,
          "durationTicks": 132,
          "midi": 57,
          "name": "A3",
          "ticks": 71936,
          "time": 258.3414,
          "velocity": 0.968503937007874
        },
        {
          "duration": 0.26785687500000677,
          "durationTicks": 132,
          "midi": 69,
          "name": "A4",
          "ticks": 71936,
          "time": 258.3414,
          "velocity": 0.968503937007874
        },
        {
          "duration": 0.2475646875000166,
          "durationTicks": 122,
          "midi": 58,
          "name": "A#3",
          "ticks": 72064,
          "time": 258.60114,
          "velocity": 0.968503937007874
        },
        {
          "duration": 0.2475646875000166,
          "durationTicks": 122,
          "midi": 70,
          "name": "A#4",
          "ticks": 72064,
          "time": 258.60114,
          "velocity": 0.968503937007874
        },
        {
          "duration": 0.2719153124999707,
          "durationTicks": 134,
          "midi": 59,
          "name": "B3",
          "ticks": 72192,
          "time": 258.86088,
          "velocity": 0.968503937007874
        },
        {
          "duration": 0.2719153124999707,
          "durationTicks": 134,
          "midi": 71,
          "name": "B4",
          "ticks": 72192,
          "time": 258.86088,
          "velocity": 0.968503937007874
        },
        {
          "duration": 0.13392843750000338,
          "durationTicks": 66,
          "midi": 60,
          "name": "C4",
          "ticks": 72320,
          "time": 259.12062000000003,
          "velocity": 0.937007874015748
        },
        {
          "duration": 0.13392843750000338,
          "durationTicks": 66,
          "midi": 72,
          "name": "C5",
          "ticks": 72320,
          "time": 259.12062000000003,
          "velocity": 0.937007874015748
        },
        {
          "duration": 0.1136362500000132,
          "durationTicks": 56,
          "midi": 62,
          "name": "D4",
          "ticks": 72384,
          "time": 259.25049,
          "velocity": 0.9448818897637795
        },
        {
          "duration": 0.1136362500000132,
          "durationTicks": 56,
          "midi": 74,
          "name": "D5",
          "ticks": 72384,
          "time": 259.25049,
          "velocity": 0.9448818897637795
        },
        {
          "duration": 0.1988634374999947,
          "durationTicks": 98,
          "midi": 64,
          "name": "E4",
          "ticks": 72448,
          "time": 259.38036,
          "velocity": 0.952755905511811
        },
        {
          "duration": 0.1988634374999947,
          "durationTicks": 98,
          "midi": 76,
          "name": "E5",
          "ticks": 72448,
          "time": 259.38036,
          "velocity": 0.952755905511811
        },
        {
          "duration": 0.08928562500000226,
          "durationTicks": 44,
          "midi": 65,
          "name": "F4",
          "ticks": 72512,
          "time": 259.51023,
          "velocity": 0.952755905511811
        },
        {
          "duration": 0.08928562500000226,
          "durationTicks": 44,
          "midi": 77,
          "name": "F5",
          "ticks": 72512,
          "time": 259.51023,
          "velocity": 0.952755905511811
        },
        {
          "duration": 0.2516231249999805,
          "durationTicks": 124,
          "midi": 67,
          "name": "G4",
          "ticks": 72576,
          "time": 259.6401,
          "velocity": 0.968503937007874
        },
        {
          "duration": 0.2516231249999805,
          "durationTicks": 124,
          "midi": 79,
          "name": "G5",
          "ticks": 72576,
          "time": 259.6401,
          "velocity": 0.968503937007874
        },
        {
          "duration": 0.32873343750003414,
          "durationTicks": 162,
          "midi": 59,
          "name": "B3",
          "ticks": 72704,
          "time": 259.89984,
          "velocity": 0.968503937007874
        },
        {
          "duration": 0.32873343750003414,
          "durationTicks": 162,
          "midi": 71,
          "name": "B4",
          "ticks": 72704,
          "time": 259.89984,
          "velocity": 0.968503937007874
        },
        {
          "duration": 0.2516231249999805,
          "durationTicks": 124,
          "midi": 60,
          "name": "C4",
          "ticks": 72832,
          "time": 260.15958,
          "velocity": 0.9606299212598425
        },
        {
          "duration": 0.2516231249999805,
          "durationTicks": 124,
          "midi": 72,
          "name": "C5",
          "ticks": 72832,
          "time": 260.15958,
          "velocity": 0.9606299212598425
        },
        {
          "duration": 0.23133093749999034,
          "durationTicks": 114,
          "midi": 62,
          "name": "D4",
          "ticks": 72960,
          "time": 260.41932,
          "velocity": 0.9606299212598425
        },
        {
          "duration": 0.23133093749999034,
          "durationTicks": 114,
          "midi": 74,
          "name": "D5",
          "ticks": 72960,
          "time": 260.41932,
          "velocity": 0.9606299212598425
        },
        {
          "duration": 0.12175312499999791,
          "durationTicks": 60,
          "midi": 63,
          "name": "D#4",
          "ticks": 73088,
          "time": 260.67906,
          "velocity": 0.9448818897637795
        },
        {
          "duration": 0.12175312499999791,
          "durationTicks": 60,
          "midi": 75,
          "name": "D#5",
          "ticks": 73088,
          "time": 260.67906,
          "velocity": 0.9448818897637795
        },
        {
          "duration": 0.1298699999999826,
          "durationTicks": 64,
          "midi": 64,
          "name": "E4",
          "ticks": 73152,
          "time": 260.80893000000003,
          "velocity": 0.968503937007874
        },
        {
          "duration": 0.1298699999999826,
          "durationTicks": 64,
          "midi": 76,
          "name": "E5",
          "ticks": 73152,
          "time": 260.80893000000003,
          "velocity": 0.968503937007874
        },
        {
          "duration": 0.09334406250002303,
          "durationTicks": 46,
          "midi": 65,
          "name": "F4",
          "ticks": 73216,
          "time": 260.9388,
          "velocity": 0.937007874015748
        },
        {
          "duration": 0.09334406250002303,
          "durationTicks": 46,
          "midi": 77,
          "name": "F5",
          "ticks": 73216,
          "time": 260.9388,
          "velocity": 0.937007874015748
        },
        {
          "duration": 0.12175312499999791,
          "durationTicks": 60,
          "midi": 67,
          "name": "G4",
          "ticks": 73280,
          "time": 261.06867,
          "velocity": 0.9606299212598425
        },
        {
          "duration": 0.12175312499999791,
          "durationTicks": 60,
          "midi": 79,
          "name": "G5",
          "ticks": 73280,
          "time": 261.06867,
          "velocity": 0.9606299212598425
        },
        {
          "duration": 0.1704543750000198,
          "durationTicks": 84,
          "midi": 66,
          "name": "F#4",
          "ticks": 73344,
          "time": 261.19854,
          "velocity": 0.9606299212598425
        },
        {
          "duration": 0.1704543750000198,
          "durationTicks": 84,
          "midi": 78,
          "name": "F#5",
          "ticks": 73344,
          "time": 261.19854,
          "velocity": 0.9606299212598425
        },
        {
          "duration": 0.13392843750000338,
          "durationTicks": 66,
          "midi": 68,
          "name": "G#4",
          "ticks": 73408,
          "time": 261.32841,
          "velocity": 0.9606299212598425
        },
        {
          "duration": 0.13392843750000338,
          "durationTicks": 66,
          "midi": 80,
          "name": "G#5",
          "ticks": 73408,
          "time": 261.32841,
          "velocity": 0.9606299212598425
        },
        {
          "duration": 0.10957781249999243,
          "durationTicks": 54,
          "midi": 70,
          "name": "A#4",
          "ticks": 73472,
          "time": 261.45828,
          "velocity": 0.968503937007874
        },
        {
          "duration": 0.10957781249999243,
          "durationTicks": 54,
          "midi": 82,
          "name": "A#5",
          "ticks": 73472,
          "time": 261.45828,
          "velocity": 0.968503937007874
        },
        {
          "duration": 0.1379868749999673,
          "durationTicks": 68,
          "midi": 68,
          "name": "G#4",
          "ticks": 73600,
          "time": 261.71802,
          "velocity": 0.9606299212598425
        },
        {
          "duration": 0.1379868749999673,
          "durationTicks": 68,
          "midi": 80,
          "name": "G#5",
          "ticks": 73600,
          "time": 261.71802,
          "velocity": 0.9606299212598425
        },
        {
          "duration": 0.14204531249998809,
          "durationTicks": 70,
          "midi": 70,
          "name": "A#4",
          "ticks": 73664,
          "time": 261.84789,
          "velocity": 0.952755905511811
        },
        {
          "duration": 0.14204531249998809,
          "durationTicks": 70,
          "midi": 82,
          "name": "A#5",
          "ticks": 73664,
          "time": 261.84789,
          "velocity": 0.952755905511811
        },
        {
          "duration": 0.15422062499999356,
          "durationTicks": 76,
          "midi": 72,
          "name": "C5",
          "ticks": 73728,
          "time": 261.97776,
          "velocity": 0.968503937007874
        },
        {
          "duration": 0.15422062499999356,
          "durationTicks": 76,
          "midi": 84,
          "name": "C6",
          "ticks": 73728,
          "time": 261.97776,
          "velocity": 0.968503937007874
        },
        {
          "duration": 0.11769468750003398,
          "durationTicks": 58,
          "midi": 70,
          "name": "A#4",
          "ticks": 73920,
          "time": 262.36737,
          "velocity": 0.9606299212598425
        },
        {
          "duration": 0.11769468750003398,
          "durationTicks": 58,
          "midi": 82,
          "name": "A#5",
          "ticks": 73920,
          "time": 262.36737,
          "velocity": 0.9606299212598425
        },
        {
          "duration": 0.1663959374999422,
          "durationTicks": 82,
          "midi": 72,
          "name": "C5",
          "ticks": 73984,
          "time": 262.49724000000003,
          "velocity": 0.9606299212598425
        },
        {
          "duration": 0.1663959374999422,
          "durationTicks": 82,
          "midi": 84,
          "name": "C6",
          "ticks": 73984,
          "time": 262.49724000000003,
          "velocity": 0.9606299212598425
        },
        {
          "duration": 0.07711031249999678,
          "durationTicks": 38,
          "midi": 74,
          "name": "D5",
          "ticks": 74048,
          "time": 262.62711,
          "velocity": 0.952755905511811
        },
        {
          "duration": 0.07711031249999678,
          "durationTicks": 38,
          "midi": 86,
          "name": "D6",
          "ticks": 74048,
          "time": 262.62711,
          "velocity": 0.952755905511811
        },
        {
          "duration": 1.2094143749999944,
          "durationTicks": 596,
          "midi": 47,
          "name": "B2",
          "ticks": 74112,
          "time": 262.75698,
          "velocity": 0.968503937007874
        },
        {
          "duration": 1.2215896874999999,
          "durationTicks": 602,
          "midi": 59,
          "name": "B3",
          "ticks": 74112,
          "time": 262.75698,
          "velocity": 0.968503937007874
        },
        {
          "duration": 1.1891221875000042,
          "durationTicks": 586,
          "midi": 66,
          "name": "F#4",
          "ticks": 74112,
          "time": 262.75698,
          "velocity": 0.968503937007874
        },
        {
          "duration": 1.1201287499999921,
          "durationTicks": 552,
          "midi": 71,
          "name": "B4",
          "ticks": 74112,
          "time": 262.75698,
          "velocity": 0.968503937007874
        },
        {
          "duration": 1.099836562500002,
          "durationTicks": 542,
          "midi": 75,
          "name": "D#5",
          "ticks": 74112,
          "time": 262.75698,
          "velocity": 0.968503937007874
        },
        {
          "duration": 1.1363625000000184,
          "durationTicks": 560,
          "midi": 78,
          "name": "F#5",
          "ticks": 74112,
          "time": 262.75698,
          "velocity": 0.968503937007874
        },
        {
          "duration": 1.24188187499999,
          "durationTicks": 612,
          "midi": 44,
          "name": "G#2",
          "ticks": 74880,
          "time": 264.31542,
          "velocity": 0.968503937007874
        },
        {
          "duration": 1.2378234374999693,
          "durationTicks": 610,
          "midi": 56,
          "name": "G#3",
          "ticks": 74880,
          "time": 264.31542,
          "velocity": 0.968503937007874
        },
        {
          "duration": 1.1120118750000074,
          "durationTicks": 548,
          "midi": 63,
          "name": "D#4",
          "ticks": 74880,
          "time": 264.31542,
          "velocity": 0.968503937007874
        },
        {
          "duration": 1.124187187500013,
          "durationTicks": 554,
          "midi": 68,
          "name": "G#4",
          "ticks": 74880,
          "time": 264.31542,
          "velocity": 0.968503937007874
        },
        {
          "duration": 1.099836562500002,
          "durationTicks": 542,
          "midi": 72,
          "name": "C5",
          "ticks": 74880,
          "time": 264.31542,
          "velocity": 0.968503937007874
        },
        {
          "duration": 1.1850637499999834,
          "durationTicks": 584,
          "midi": 75,
          "name": "D#5",
          "ticks": 74880,
          "time": 264.31542,
          "velocity": 0.968503937007874
        },
        {
          "duration": 3.89609999999999,
          "durationTicks": 1920,
          "midi": 46,
          "name": "A#2",
          "ticks": 75648,
          "time": 265.87386000000004,
          "velocity": 0.968503937007874
        },
        {
          "duration": 3.89609999999999,
          "durationTicks": 1920,
          "midi": 58,
          "name": "A#3",
          "ticks": 75648,
          "time": 265.87386000000004,
          "velocity": 0.968503937007874
        },
        {
          "duration": 3.89609999999999,
          "durationTicks": 1920,
          "midi": 65,
          "name": "F4",
          "ticks": 75648,
          "time": 265.87386000000004,
          "velocity": 0.968503937007874
        },
        {
          "duration": 3.89609999999999,
          "durationTicks": 1920,
          "midi": 70,
          "name": "A#4",
          "ticks": 75648,
          "time": 265.87386000000004,
          "velocity": 0.968503937007874
        },
        {
          "duration": 3.89609999999999,
          "durationTicks": 1920,
          "midi": 74,
          "name": "D5",
          "ticks": 75648,
          "time": 265.87386000000004,
          "velocity": 0.968503937007874
        },
        {
          "duration": 3.89609999999999,
          "durationTicks": 1920,
          "midi": 77,
          "name": "F5",
          "ticks": 75648,
          "time": 265.87386000000004,
          "velocity": 0.968503937007874
        },
        {
          "duration": 0.19480500000003076,
          "durationTicks": 96,
          "midi": 46,
          "name": "A#2",
          "ticks": 77664,
          "time": 269.964765,
          "velocity": 0.905511811023622
        },
        {
          "duration": 0.19480500000003076,
          "durationTicks": 96,
          "midi": 58,
          "name": "A#3",
          "ticks": 77664,
          "time": 269.964765,
          "velocity": 0.905511811023622
        },
        {
          "duration": 0.19480499999997392,
          "durationTicks": 96,
          "midi": 45,
          "name": "A2",
          "ticks": 77760,
          "time": 270.15957000000003,
          "velocity": 0.9212598425196851
        },
        {
          "duration": 0.19480499999997392,
          "durationTicks": 96,
          "midi": 57,
          "name": "A3",
          "ticks": 77760,
          "time": 270.15957000000003,
          "velocity": 0.9212598425196851
        },
        {
          "duration": 0.19480499999997392,
          "durationTicks": 96,
          "midi": 46,
          "name": "A#2",
          "ticks": 77856,
          "time": 270.354375,
          "velocity": 0.9291338582677166
        },
        {
          "duration": 0.19480499999997392,
          "durationTicks": 96,
          "midi": 58,
          "name": "A#3",
          "ticks": 77856,
          "time": 270.354375,
          "velocity": 0.9291338582677166
        },
        {
          "duration": 0.19480500000003076,
          "durationTicks": 96,
          "midi": 48,
          "name": "C3",
          "ticks": 77952,
          "time": 270.54918,
          "velocity": 0.937007874015748
        },
        {
          "duration": 0.19480500000003076,
          "durationTicks": 96,
          "midi": 60,
          "name": "C4",
          "ticks": 77952,
          "time": 270.54918,
          "velocity": 0.937007874015748
        },
        {
          "duration": 0.19480499999997392,
          "durationTicks": 96,
          "midi": 46,
          "name": "A#2",
          "ticks": 78048,
          "time": 270.743985,
          "velocity": 0.9448818897637795
        },
        {
          "duration": 0.19480499999997392,
          "durationTicks": 96,
          "midi": 58,
          "name": "A#3",
          "ticks": 78048,
          "time": 270.743985,
          "velocity": 0.9448818897637795
        },
        {
          "duration": 0.19480500000003076,
          "durationTicks": 96,
          "midi": 50,
          "name": "D3",
          "ticks": 78144,
          "time": 270.93879,
          "velocity": 0.9606299212598425
        },
        {
          "duration": 0.19480500000003076,
          "durationTicks": 96,
          "midi": 62,
          "name": "D4",
          "ticks": 78144,
          "time": 270.93879,
          "velocity": 0.9606299212598425
        },
        {
          "duration": 0.19480499999997392,
          "durationTicks": 96,
          "midi": 46,
          "name": "A#2",
          "ticks": 78240,
          "time": 271.133595,
          "velocity": 0.968503937007874
        },
        {
          "duration": 0.19480499999997392,
          "durationTicks": 96,
          "midi": 58,
          "name": "A#3",
          "ticks": 78240,
          "time": 271.133595,
          "velocity": 0.968503937007874
        },
        {
          "duration": 0.19480500000003076,
          "durationTicks": 96,
          "midi": 51,
          "name": "D#3",
          "ticks": 78336,
          "time": 271.3284,
          "velocity": 0.968503937007874
        },
        {
          "duration": 0.19480500000003076,
          "durationTicks": 96,
          "midi": 63,
          "name": "D#4",
          "ticks": 78336,
          "time": 271.3284,
          "velocity": 0.968503937007874
        },
        {
          "duration": 0.19480499999997392,
          "durationTicks": 96,
          "midi": 46,
          "name": "A#2",
          "ticks": 78432,
          "time": 271.523205,
          "velocity": 0.968503937007874
        },
        {
          "duration": 0.19480499999997392,
          "durationTicks": 96,
          "midi": 58,
          "name": "A#3",
          "ticks": 78432,
          "time": 271.523205,
          "velocity": 0.968503937007874
        },
        {
          "duration": 0.19480500000003076,
          "durationTicks": 96,
          "midi": 53,
          "name": "F3",
          "ticks": 78528,
          "time": 271.71801,
          "velocity": 0.968503937007874
        },
        {
          "duration": 0.19480500000003076,
          "durationTicks": 96,
          "midi": 65,
          "name": "F4",
          "ticks": 78528,
          "time": 271.71801,
          "velocity": 0.968503937007874
        },
        {
          "duration": 0.19480499999997392,
          "durationTicks": 96,
          "midi": 46,
          "name": "A#2",
          "ticks": 78624,
          "time": 271.912815,
          "velocity": 0.968503937007874
        },
        {
          "duration": 0.19480499999997392,
          "durationTicks": 96,
          "midi": 58,
          "name": "A#3",
          "ticks": 78624,
          "time": 271.912815,
          "velocity": 0.968503937007874
        },
        {
          "duration": 0.03205124999999498,
          "durationTicks": 8,
          "midi": 51,
          "name": "D#3",
          "ticks": 78720,
          "time": 272.10762,
          "velocity": 0.968503937007874
        },
        {
          "duration": 0.745191562499997,
          "durationTicks": 186,
          "midi": 55,
          "name": "G3",
          "ticks": 78720,
          "time": 272.10762,
          "velocity": 0.968503937007874
        },
        {
          "duration": 0.3846149999999966,
          "durationTicks": 96,
          "midi": 58,
          "name": "A#3",
          "ticks": 78720,
          "time": 272.10762,
          "velocity": 0.968503937007874
        },
        {
          "duration": 0.024038437499996235,
          "durationTicks": 6,
          "midi": 63,
          "name": "D#4",
          "ticks": 78720,
          "time": 272.10762,
          "velocity": 0.968503937007874
        },
        {
          "duration": 0.024038437499996235,
          "durationTicks": 6,
          "midi": 67,
          "name": "G4",
          "ticks": 78720,
          "time": 272.10762,
          "velocity": 0.968503937007874
        },
        {
          "duration": 0.8733965624999769,
          "durationTicks": 218,
          "midi": 75,
          "name": "D#5",
          "ticks": 78726,
          "time": 272.1316584375,
          "velocity": 0.9606299212598425
        },
        {
          "duration": 0.8733965624999769,
          "durationTicks": 218,
          "midi": 63,
          "name": "D#4",
          "ticks": 78728,
          "time": 272.13967125,
          "velocity": 0.968503937007874
        },
        {
          "duration": 0.8814093750000325,
          "durationTicks": 220,
          "midi": 67,
          "name": "G4",
          "ticks": 78728,
          "time": 272.13967125,
          "velocity": 0.968503937007874
        },
        {
          "duration": 0.9134606250000274,
          "durationTicks": 228,
          "midi": 51,
          "name": "D#3",
          "ticks": 78730,
          "time": 272.1476840625,
          "velocity": 0.968503937007874
        },
        {
          "duration": 0.5849353125000221,
          "durationTicks": 146,
          "midi": 58,
          "name": "A#3",
          "ticks": 78730,
          "time": 272.1476840625,
          "velocity": 0.968503937007874
        },
        {
          "duration": 0.8814093750000325,
          "durationTicks": 220,
          "midi": 70,
          "name": "A#4",
          "ticks": 78730,
          "time": 272.1476840625,
          "velocity": 0.968503937007874
        },
        {
          "duration": 0.1682690625000305,
          "durationTicks": 42,
          "midi": 58,
          "name": "A#3",
          "ticks": 78912,
          "time": 272.87685,
          "velocity": 0.968503937007874
        },
        {
          "duration": 0.19230749999996988,
          "durationTicks": 48,
          "midi": 63,
          "name": "D#4",
          "ticks": 78960,
          "time": 273.0691575,
          "velocity": 0.968503937007874
        },
        {
          "duration": 0.20032031249996862,
          "durationTicks": 50,
          "midi": 67,
          "name": "G4",
          "ticks": 78960,
          "time": 273.0691575,
          "velocity": 0.968503937007874
        },
        {
          "duration": 0.3124996875000079,
          "durationTicks": 78,
          "midi": 70,
          "name": "A#4",
          "ticks": 78960,
          "time": 273.0691575,
          "velocity": 0.952755905511811
        },
        {
          "duration": 0.2724356249999573,
          "durationTicks": 68,
          "midi": 75,
          "name": "D#5",
          "ticks": 78960,
          "time": 273.0691575,
          "velocity": 0.9606299212598425
        },
        {
          "duration": 0.3525637500000016,
          "durationTicks": 88,
          "midi": 51,
          "name": "D#3",
          "ticks": 79008,
          "time": 273.261465,
          "velocity": 0.9606299212598425
        },
        {
          "duration": 0.9535246875000212,
          "durationTicks": 238,
          "midi": 50,
          "name": "D3",
          "ticks": 79104,
          "time": 273.64608,
          "velocity": 0.968503937007874
        },
        {
          "duration": 0.4647431250000409,
          "durationTicks": 116,
          "midi": 58,
          "name": "A#3",
          "ticks": 79104,
          "time": 273.64608,
          "velocity": 0.968503937007874
        },
        {
          "duration": 0.8012812499999882,
          "durationTicks": 200,
          "midi": 62,
          "name": "D4",
          "ticks": 79104,
          "time": 273.64608,
          "velocity": 0.968503937007874
        },
        {
          "duration": 0.8413453125000387,
          "durationTicks": 210,
          "midi": 65,
          "name": "F4",
          "ticks": 79104,
          "time": 273.64608,
          "velocity": 0.968503937007874
        },
        {
          "duration": 0.865383750000035,
          "durationTicks": 216,
          "midi": 70,
          "name": "A#4",
          "ticks": 79104,
          "time": 273.64608,
          "velocity": 0.968503937007874
        },
        {
          "duration": 0.8253196875000413,
          "durationTicks": 206,
          "midi": 74,
          "name": "D5",
          "ticks": 79104,
          "time": 273.64608,
          "velocity": 0.9606299212598425
        },
        {
          "duration": 0.6089737500000183,
          "durationTicks": 152,
          "midi": 58,
          "name": "A#3",
          "ticks": 79296,
          "time": 274.41531,
          "velocity": 0.9606299212598425
        },
        {
          "duration": 0.32051250000000664,
          "durationTicks": 80,
          "midi": 62,
          "name": "D4",
          "ticks": 79344,
          "time": 274.6076175,
          "velocity": 0.968503937007874
        },
        {
          "duration": 0.2163459374999661,
          "durationTicks": 54,
          "midi": 65,
          "name": "F4",
          "ticks": 79344,
          "time": 274.6076175,
          "velocity": 0.968503937007874
        },
        {
          "duration": 0.23237156250002045,
          "durationTicks": 58,
          "midi": 70,
          "name": "A#4",
          "ticks": 79344,
          "time": 274.6076175,
          "velocity": 0.9606299212598425
        },
        {
          "duration": 0.2163459374999661,
          "durationTicks": 54,
          "midi": 74,
          "name": "D5",
          "ticks": 79344,
          "time": 274.6076175,
          "velocity": 0.9448818897637795
        },
        {
          "duration": 0.2403843750000192,
          "durationTicks": 60,
          "midi": 50,
          "name": "D3",
          "ticks": 79392,
          "time": 274.799925,
          "velocity": 0.9212598425196851
        },
        {
          "duration": 0.8092940625000438,
          "durationTicks": 202,
          "midi": 48,
          "name": "C3",
          "ticks": 79488,
          "time": 275.18453999999997,
          "velocity": 0.9606299212598425
        },
        {
          "duration": 0.5128200000000334,
          "durationTicks": 128,
          "midi": 55,
          "name": "G3",
          "ticks": 79488,
          "time": 275.18453999999997,
          "velocity": 0.968503937007874
        },
        {
          "duration": 0.7852556250000475,
          "durationTicks": 196,
          "midi": 60,
          "name": "C4",
          "ticks": 79488,
          "time": 275.18453999999997,
          "velocity": 0.968503937007874
        },
        {
          "duration": 1.2580115625000303,
          "durationTicks": 314,
          "midi": 63,
          "name": "D#4",
          "ticks": 79488,
          "time": 275.18453999999997,
          "velocity": 0.968503937007874
        },
        {
          "duration": 1.2259603125000353,
          "durationTicks": 306,
          "midi": 67,
          "name": "G4",
          "ticks": 79488,
          "time": 275.18453999999997,
          "velocity": 0.968503937007874
        },
        {
          "duration": 1.201921875000039,
          "durationTicks": 300,
          "midi": 72,
          "name": "C5",
          "ticks": 79488,
          "time": 275.18453999999997,
          "velocity": 0.9606299212598425
        },
        {
          "duration": 0.5689096874999677,
          "durationTicks": 142,
          "midi": 55,
          "name": "G3",
          "ticks": 79680,
          "time": 275.95377,
          "velocity": 0.968503937007874
        },
        {
          "duration": 0.33653812500000413,
          "durationTicks": 84,
          "midi": 60,
          "name": "C4",
          "ticks": 79728,
          "time": 276.1460775,
          "velocity": 0.9448818897637795
        },
        {
          "duration": 0.16826906249997364,
          "durationTicks": 42,
          "midi": 48,
          "name": "C3",
          "ticks": 79776,
          "time": 276.338385,
          "velocity": 0.9291338582677166
        },
        {
          "duration": 0.7532043749999957,
          "durationTicks": 188,
          "midi": 43,
          "name": "G2",
          "ticks": 79872,
          "time": 276.723,
          "velocity": 0.968503937007874
        },
        {
          "duration": 0.7211531250000007,
          "durationTicks": 180,
          "midi": 55,
          "name": "G3",
          "ticks": 79872,
          "time": 276.723,
          "velocity": 0.968503937007874
        },
        {
          "duration": 0.6891018750000057,
          "durationTicks": 172,
          "midi": 59,
          "name": "B3",
          "ticks": 79872,
          "time": 276.723,
          "velocity": 0.968503937007874
        },
        {
          "duration": 0.8173068749999857,
          "durationTicks": 204,
          "midi": 62,
          "name": "D4",
          "ticks": 79872,
          "time": 276.723,
          "velocity": 0.968503937007874
        },
        {
          "duration": 0.7291659374999995,
          "durationTicks": 182,
          "midi": 67,
          "name": "G4",
          "ticks": 79872,
          "time": 276.723,
          "velocity": 0.968503937007874
        },
        {
          "duration": 0.3445509375000029,
          "durationTicks": 86,
          "midi": 48,
          "name": "C3",
          "ticks": 80064,
          "time": 277.49223,
          "velocity": 0.968503937007874
        },
        {
          "duration": 0.33653812500000413,
          "durationTicks": 84,
          "midi": 55,
          "name": "G3",
          "ticks": 80064,
          "time": 277.49223,
          "velocity": 0.968503937007874
        },
        {
          "duration": 0.3525637500000016,
          "durationTicks": 88,
          "midi": 60,
          "name": "C4",
          "ticks": 80064,
          "time": 277.49223,
          "velocity": 0.968503937007874
        },
        {
          "duration": 0.3525637500000016,
          "durationTicks": 88,
          "midi": 63,
          "name": "D#4",
          "ticks": 80064,
          "time": 277.49223,
          "velocity": 0.968503937007874
        },
        {
          "duration": 0.2964740625000104,
          "durationTicks": 74,
          "midi": 67,
          "name": "G4",
          "ticks": 80064,
          "time": 277.49223,
          "velocity": 0.968503937007874
        },
        {
          "duration": 0.8012812499999882,
          "durationTicks": 200,
          "midi": 43,
          "name": "G2",
          "ticks": 80256,
          "time": 278.26146,
          "velocity": 0.968503937007874
        },
        {
          "duration": 0.7371787499999982,
          "durationTicks": 184,
          "midi": 55,
          "name": "G3",
          "ticks": 80256,
          "time": 278.26146,
          "velocity": 0.968503937007874
        },
        {
          "duration": 0.6009609375000196,
          "durationTicks": 150,
          "midi": 59,
          "name": "B3",
          "ticks": 80256,
          "time": 278.26146,
          "velocity": 0.968503937007874
        },
        {
          "duration": 0.7932684374999894,
          "durationTicks": 198,
          "midi": 62,
          "name": "D4",
          "ticks": 80256,
          "time": 278.26146,
          "velocity": 0.968503937007874
        },
        {
          "duration": 0.745191562499997,
          "durationTicks": 186,
          "midi": 67,
          "name": "G4",
          "ticks": 80256,
          "time": 278.26146,
          "velocity": 0.9606299212598425
        },
        {
          "duration": 0.28846125000001166,
          "durationTicks": 72,
          "midi": 48,
          "name": "C3",
          "ticks": 80448,
          "time": 279.03069,
          "velocity": 0.968503937007874
        },
        {
          "duration": 0.3124996875000079,
          "durationTicks": 78,
          "midi": 55,
          "name": "G3",
          "ticks": 80448,
          "time": 279.03069,
          "velocity": 0.968503937007874
        },
        {
          "duration": 0.33653812500000413,
          "durationTicks": 84,
          "midi": 60,
          "name": "C4",
          "ticks": 80448,
          "time": 279.03069,
          "velocity": 0.968503937007874
        },
        {
          "duration": 0.37660218749999785,
          "durationTicks": 94,
          "midi": 63,
          "name": "D#4",
          "ticks": 80448,
          "time": 279.03069,
          "velocity": 0.968503937007874
        },
        {
          "duration": 0.40865343749999283,
          "durationTicks": 102,
          "midi": 67,
          "name": "G4",
          "ticks": 80448,
          "time": 279.03069,
          "velocity": 0.968503937007874
        },
        {
          "duration": 0.7612171874999945,
          "durationTicks": 190,
          "midi": 46,
          "name": "A#2",
          "ticks": 80640,
          "time": 279.79992,
          "velocity": 0.9448818897637795
        },
        {
          "duration": 0.745191562499997,
          "durationTicks": 186,
          "midi": 53,
          "name": "F3",
          "ticks": 80640,
          "time": 279.79992,
          "velocity": 0.968503937007874
        },
        {
          "duration": 0.681089062500007,
          "durationTicks": 170,
          "midi": 56,
          "name": "G#3",
          "ticks": 80640,
          "time": 279.79992,
          "velocity": 0.968503937007874
        },
        {
          "duration": 0.6009609375000196,
          "durationTicks": 150,
          "midi": 58,
          "name": "A#3",
          "ticks": 80640,
          "time": 279.79992,
          "velocity": 0.968503937007874
        },
        {
          "duration": 0.7371787499999982,
          "durationTicks": 184,
          "midi": 62,
          "name": "D4",
          "ticks": 80640,
          "time": 279.79992,
          "velocity": 0.968503937007874
        },
        {
          "duration": 0.7211531250000007,
          "durationTicks": 180,
          "midi": 65,
          "name": "F4",
          "ticks": 80640,
          "time": 279.79992,
          "velocity": 0.968503937007874
        },
        {
          "duration": 0.7532043749999957,
          "durationTicks": 188,
          "midi": 51,
          "name": "D#3",
          "ticks": 80832,
          "time": 280.56915,
          "velocity": 0.968503937007874
        },
        {
          "duration": 0.7532043749999957,
          "durationTicks": 188,
          "midi": 55,
          "name": "G3",
          "ticks": 80832,
          "time": 280.56915,
          "velocity": 0.968503937007874
        },
        {
          "duration": 0.6971146875000045,
          "durationTicks": 174,
          "midi": 58,
          "name": "A#3",
          "ticks": 80832,
          "time": 280.56915,
          "velocity": 0.968503937007874
        },
        {
          "duration": 0.7532043749999957,
          "durationTicks": 188,
          "midi": 63,
          "name": "D#4",
          "ticks": 80832,
          "time": 280.56915,
          "velocity": 0.9606299212598425
        },
        {
          "duration": 0.7211531250000007,
          "durationTicks": 180,
          "midi": 67,
          "name": "G4",
          "ticks": 80832,
          "time": 280.56915,
          "velocity": 0.968503937007874
        },
        {
          "duration": 1.610575312500032,
          "durationTicks": 402,
          "midi": 50,
          "name": "D3",
          "ticks": 81024,
          "time": 281.33838,
          "velocity": 0.9606299212598425
        },
        {
          "duration": 1.3701909375000128,
          "durationTicks": 342,
          "midi": 60,
          "name": "C4",
          "ticks": 81024,
          "time": 281.33838,
          "velocity": 0.968503937007874
        },
        {
          "duration": 3.100958437500026,
          "durationTicks": 774,
          "midi": 62,
          "name": "D4",
          "ticks": 81024,
          "time": 281.33838,
          "velocity": 0.968503937007874
        },
        {
          "duration": 0.8573709375000362,
          "durationTicks": 214,
          "midi": 66,
          "name": "F#4",
          "ticks": 81024,
          "time": 281.33838,
          "velocity": 0.9606299212598425
        },
        {
          "duration": 0.29647406249995356,
          "durationTicks": 74,
          "midi": 67,
          "name": "G4",
          "ticks": 81216,
          "time": 282.10761,
          "velocity": 0.9606299212598425
        },
        {
          "duration": 0.25640999999995984,
          "durationTicks": 64,
          "midi": 69,
          "name": "A4",
          "ticks": 81312,
          "time": 282.492225,
          "velocity": 0.968503937007874
        },
        {
          "duration": 1.2019218749999823,
          "durationTicks": 300,
          "midi": 43,
          "name": "G2",
          "ticks": 81408,
          "time": 282.87684,
          "velocity": 0.9606299212598425
        },
        {
          "duration": 0.8573709374999794,
          "durationTicks": 214,
          "midi": 58,
          "name": "A#3",
          "ticks": 81408,
          "time": 282.87684,
          "velocity": 0.9606299212598425
        },
        {
          "duration": 1.5464728124999851,
          "durationTicks": 386,
          "midi": 67,
          "name": "G4",
          "ticks": 81408,
          "time": 282.87684,
          "velocity": 0.952755905511811
        },
        {
          "duration": 1.5705112499999814,
          "durationTicks": 392,
          "midi": 70,
          "name": "A#4",
          "ticks": 81408,
          "time": 282.87684,
          "velocity": 0.952755905511811
        },
        {
          "duration": 1.1538449999999898,
          "durationTicks": 288,
          "midi": 50,
          "name": "D3",
          "ticks": 81504,
          "time": 283.261455,
          "velocity": 0.9606299212598425
        },
        {
          "duration": 0.7852556249999907,
          "durationTicks": 196,
          "midi": 55,
          "name": "G3",
          "ticks": 81600,
          "time": 283.64607,
          "velocity": 0.968503937007874
        },
        {
          "duration": 0.3445509375000029,
          "durationTicks": 86,
          "midi": 58,
          "name": "A#3",
          "ticks": 81696,
          "time": 284.030685,
          "velocity": 0.8661417322834646
        },
        {
          "duration": 1.5945496874999776,
          "durationTicks": 398,
          "midi": 44,
          "name": "G#2",
          "ticks": 81792,
          "time": 284.4153,
          "velocity": 0.968503937007874
        },
        {
          "duration": 1.0657040625000036,
          "durationTicks": 266,
          "midi": 51,
          "name": "D#3",
          "ticks": 81888,
          "time": 284.799915,
          "velocity": 0.952755905511811
        },
        {
          "duration": 0.7772428124999919,
          "durationTicks": 194,
          "midi": 56,
          "name": "G#3",
          "ticks": 81984,
          "time": 285.18453,
          "velocity": 0.968503937007874
        },
        {
          "duration": 0.6089737500000183,
          "durationTicks": 152,
          "midi": 60,
          "name": "C4",
          "ticks": 81984,
          "time": 285.18453,
          "velocity": 0.968503937007874
        },
        {
          "duration": 0.745191562499997,
          "durationTicks": 186,
          "midi": 63,
          "name": "D#4",
          "ticks": 81984,
          "time": 285.18453,
          "velocity": 0.968503937007874
        },
        {
          "duration": 0.8253196874999844,
          "durationTicks": 206,
          "midi": 68,
          "name": "G#4",
          "ticks": 81984,
          "time": 285.18453,
          "velocity": 0.9448818897637795
        },
        {
          "duration": 0.36057656250000036,
          "durationTicks": 90,
          "midi": 51,
          "name": "D#3",
          "ticks": 82176,
          "time": 285.95376,
          "velocity": 0.9606299212598425
        },
        {
          "duration": 0.7532043749999957,
          "durationTicks": 188,
          "midi": 58,
          "name": "A#3",
          "ticks": 82176,
          "time": 285.95376,
          "velocity": 0.9212598425196851
        },
        {
          "duration": 1.1057681249999973,
          "durationTicks": 276,
          "midi": 63,
          "name": "D#4",
          "ticks": 82176,
          "time": 285.95376,
          "velocity": 0.905511811023622
        },
        {
          "duration": 0.745191562499997,
          "durationTicks": 186,
          "midi": 67,
          "name": "G4",
          "ticks": 82176,
          "time": 285.95376,
          "velocity": 0.937007874015748
        },
        {
          "duration": 0.7532043749999957,
          "durationTicks": 188,
          "midi": 51,
          "name": "D#3",
          "ticks": 82272,
          "time": 286.338375,
          "velocity": 0.8582677165354331
        },
        {
          "duration": 0.2804484375000129,
          "durationTicks": 70,
          "midi": 58,
          "name": "A#3",
          "ticks": 82368,
          "time": 286.72299,
          "velocity": 0.905511811023622
        },
        {
          "duration": 1.1618578125000454,
          "durationTicks": 290,
          "midi": 48,
          "name": "C3",
          "ticks": 82560,
          "time": 287.49222,
          "velocity": 0.9606299212598425
        },
        {
          "duration": 0.4887815625000371,
          "durationTicks": 122,
          "midi": 67,
          "name": "G4",
          "ticks": 82560,
          "time": 287.49222,
          "velocity": 0.968503937007874
        },
        {
          "duration": 0.42467906250004717,
          "durationTicks": 106,
          "midi": 72,
          "name": "C5",
          "ticks": 82560,
          "time": 287.49222,
          "velocity": 0.9606299212598425
        },
        {
          "duration": 0.3926278125000522,
          "durationTicks": 98,
          "midi": 55,
          "name": "G3",
          "ticks": 82656,
          "time": 287.87683499999997,
          "velocity": 0.9212598425196851
        },
        {
          "duration": 0.4326918750000459,
          "durationTicks": 108,
          "midi": 63,
          "name": "D#4",
          "ticks": 82656,
          "time": 287.87683499999997,
          "velocity": 0.9448818897637795
        },
        {
          "duration": 0.37660218749999785,
          "durationTicks": 94,
          "midi": 60,
          "name": "C4",
          "ticks": 82752,
          "time": 288.26144999999997,
          "velocity": 0.968503937007874
        },
        {
          "duration": 0.4166662500000484,
          "durationTicks": 104,
          "midi": 67,
          "name": "G4",
          "ticks": 82752,
          "time": 288.26144999999997,
          "velocity": 0.968503937007874
        },
        {
          "duration": 0.8173068750000425,
          "durationTicks": 204,
          "midi": 72,
          "name": "C5",
          "ticks": 82752,
          "time": 288.26144999999997,
          "velocity": 0.9606299212598425
        },
        {
          "duration": 0.36057656250000036,
          "durationTicks": 90,
          "midi": 55,
          "name": "G3",
          "ticks": 82848,
          "time": 288.646065,
          "velocity": 0.9606299212598425
        },
        {
          "duration": 0.3685893749999991,
          "durationTicks": 92,
          "midi": 63,
          "name": "D#4",
          "ticks": 82848,
          "time": 288.646065,
          "velocity": 0.952755905511811
        },
        {
          "duration": 1.1698706249999873,
          "durationTicks": 292,
          "midi": 43,
          "name": "G2",
          "ticks": 82944,
          "time": 289.03068,
          "velocity": 0.952755905511811
        },
        {
          "duration": 0.4567303124999853,
          "durationTicks": 114,
          "midi": 67,
          "name": "G4",
          "ticks": 82944,
          "time": 289.03068,
          "velocity": 0.952755905511811
        },
        {
          "duration": 0.592948124999964,
          "durationTicks": 148,
          "midi": 70,
          "name": "A#4",
          "ticks": 82944,
          "time": 289.03068,
          "velocity": 0.9606299212598425
        },
        {
          "duration": 0.43269187499998907,
          "durationTicks": 108,
          "midi": 50,
          "name": "D3",
          "ticks": 83040,
          "time": 289.415295,
          "velocity": 0.8976377952755905
        },
        {
          "duration": 0.6971146875000045,
          "durationTicks": 174,
          "midi": 62,
          "name": "D4",
          "ticks": 83040,
          "time": 289.415295,
          "velocity": 0.9133858267716536
        },
        {
          "duration": 0.745191562499997,
          "durationTicks": 186,
          "midi": 55,
          "name": "G3",
          "ticks": 83136,
          "time": 289.79991,
          "velocity": 0.9606299212598425
        },
        {
          "duration": 1.3621781249999572,
          "durationTicks": 340,
          "midi": 67,
          "name": "G4",
          "ticks": 83136,
          "time": 289.79991,
          "velocity": 0.968503937007874
        },
        {
          "duration": 0.7932684374999894,
          "durationTicks": 198,
          "midi": 70,
          "name": "A#4",
          "ticks": 83136,
          "time": 289.79991,
          "velocity": 0.9606299212598425
        },
        {
          "duration": 0.15224343749997615,
          "durationTicks": 38,
          "midi": 50,
          "name": "D3",
          "ticks": 83232,
          "time": 290.184525,
          "velocity": 0.8976377952755905
        },
        {
          "duration": 0.24839718750001794,
          "durationTicks": 62,
          "midi": 62,
          "name": "D4",
          "ticks": 83232,
          "time": 290.184525,
          "velocity": 0.9606299212598425
        },
        {
          "duration": 1.1698706249999873,
          "durationTicks": 292,
          "midi": 48,
          "name": "C3",
          "ticks": 83328,
          "time": 290.56914,
          "velocity": 0.952755905511811
        },
        {
          "duration": 0.7932684374999894,
          "durationTicks": 198,
          "midi": 63,
          "name": "D#4",
          "ticks": 83328,
          "time": 290.56914,
          "velocity": 0.968503937007874
        },
        {
          "duration": 0.5208328124999753,
          "durationTicks": 130,
          "midi": 72,
          "name": "C5",
          "ticks": 83328,
          "time": 290.56914,
          "velocity": 0.9606299212598425
        },
        {
          "duration": 0.40865343749999283,
          "durationTicks": 102,
          "midi": 55,
          "name": "G3",
          "ticks": 83424,
          "time": 290.953755,
          "velocity": 0.937007874015748
        },
        {
          "duration": 0.37660218749999785,
          "durationTicks": 94,
          "midi": 60,
          "name": "C4",
          "ticks": 83520,
          "time": 291.33837,
          "velocity": 0.968503937007874
        },
        {
          "duration": 0.4407046874999878,
          "durationTicks": 110,
          "midi": 67,
          "name": "G4",
          "ticks": 83520,
          "time": 291.33837,
          "velocity": 0.968503937007874
        },
        {
          "duration": 0.8413453124999819,
          "durationTicks": 210,
          "midi": 72,
          "name": "C5",
          "ticks": 83520,
          "time": 291.33837,
          "velocity": 0.9606299212598425
        },
        {
          "duration": 0.13621781249997866,
          "durationTicks": 34,
          "midi": 55,
          "name": "G3",
          "ticks": 83616,
          "time": 291.722985,
          "velocity": 0.952755905511811
        },
        {
          "duration": 0.32051250000000664,
          "durationTicks": 80,
          "midi": 63,
          "name": "D#4",
          "ticks": 83616,
          "time": 291.722985,
          "velocity": 0.952755905511811
        },
        {
          "duration": 1.1298065624999936,
          "durationTicks": 282,
          "midi": 43,
          "name": "G2",
          "ticks": 83712,
          "time": 292.1076,
          "velocity": 0.968503937007874
        },
        {
          "duration": 1.3141012500000215,
          "durationTicks": 328,
          "midi": 62,
          "name": "D4",
          "ticks": 83712,
          "time": 292.1076,
          "velocity": 0.9291338582677166
        },
        {
          "duration": 1.4342934375000027,
          "durationTicks": 358,
          "midi": 67,
          "name": "G4",
          "ticks": 83712,
          "time": 292.1076,
          "velocity": 0.9606299212598425
        },
        {
          "duration": 1.5785240624999801,
          "durationTicks": 394,
          "midi": 70,
          "name": "A#4",
          "ticks": 83712,
          "time": 292.1076,
          "velocity": 0.9606299212598425
        },
        {
          "duration": 1.6346137500000282,
          "durationTicks": 408,
          "midi": 48,
          "name": "C3",
          "ticks": 84096,
          "time": 293.64606,
          "velocity": 0.952755905511811
        },
        {
          "duration": 1.4182678125000052,
          "durationTicks": 354,
          "midi": 63,
          "name": "D#4",
          "ticks": 84096,
          "time": 293.64606,
          "velocity": 0.968503937007874
        },
        {
          "duration": 0.6009609375000196,
          "durationTicks": 150,
          "midi": 67,
          "name": "G4",
          "ticks": 84096,
          "time": 293.64606,
          "velocity": 0.9448818897637795
        },
        {
          "duration": 0.9455118750000224,
          "durationTicks": 236,
          "midi": 72,
          "name": "C5",
          "ticks": 84096,
          "time": 293.64606,
          "velocity": 0.968503937007874
        },
        {
          "duration": 0.681089062500007,
          "durationTicks": 170,
          "midi": 67,
          "name": "G4",
          "ticks": 84288,
          "time": 294.41528999999997,
          "velocity": 0.14173228346456693
        },
        {
          "duration": 0.12820500000003676,
          "durationTicks": 32,
          "midi": 72,
          "name": "C5",
          "ticks": 84384,
          "time": 294.79990499999997,
          "velocity": 0.14173228346456693
        },
        {
          "duration": 3.133009687499964,
          "durationTicks": 782,
          "midi": 44,
          "name": "G#2",
          "ticks": 84480,
          "time": 295.18452,
          "velocity": 0.9606299212598425
        },
        {
          "duration": 3.0608943749999753,
          "durationTicks": 764,
          "midi": 56,
          "name": "G#3",
          "ticks": 84480,
          "time": 295.18452,
          "velocity": 0.9448818897637795
        },
        {
          "duration": 2.7083306249999737,
          "durationTicks": 676,
          "midi": 59,
          "name": "B3",
          "ticks": 84480,
          "time": 295.18452,
          "velocity": 0.968503937007874
        },
        {
          "duration": 2.892625312499945,
          "durationTicks": 722,
          "midi": 63,
          "name": "D#4",
          "ticks": 84480,
          "time": 295.18452,
          "velocity": 0.9606299212598425
        },
        {
          "duration": 2.916663749999998,
          "durationTicks": 728,
          "midi": 68,
          "name": "G#4",
          "ticks": 84480,
          "time": 295.18452,
          "velocity": 0.9606299212598425
        },
        {
          "duration": 3.0528815624999766,
          "durationTicks": 762,
          "midi": 46,
          "name": "A#2",
          "ticks": 85248,
          "time": 298.26144,
          "velocity": 0.968503937007874
        },
        {
          "duration": 0.9214734375000262,
          "durationTicks": 230,
          "midi": 60,
          "name": "C4",
          "ticks": 85248,
          "time": 298.26144,
          "velocity": 0.968503937007874
        },
        {
          "duration": 0.745191562499997,
          "durationTicks": 186,
          "midi": 63,
          "name": "D#4",
          "ticks": 85248,
          "time": 298.26144,
          "velocity": 0.9606299212598425
        },
        {
          "duration": 0.6891018750000057,
          "durationTicks": 172,
          "midi": 68,
          "name": "G#4",
          "ticks": 85248,
          "time": 298.26144,
          "velocity": 0.968503937007874
        },
        {
          "duration": 0.4006406249999941,
          "durationTicks": 100,
          "midi": 63,
          "name": "D#4",
          "ticks": 85440,
          "time": 299.03067,
          "velocity": 0.9212598425196851
        },
        {
          "duration": 0.4887815624999803,
          "durationTicks": 122,
          "midi": 68,
          "name": "G#4",
          "ticks": 85440,
          "time": 299.03067,
          "velocity": 0.9448818897637795
        },
        {
          "duration": 0.45673031250004215,
          "durationTicks": 114,
          "midi": 58,
          "name": "A#3",
          "ticks": 85536,
          "time": 299.415285,
          "velocity": 0.9291338582677166
        },
        {
          "duration": 1.426280625000004,
          "durationTicks": 356,
          "midi": 60,
          "name": "C4",
          "ticks": 85632,
          "time": 299.7999,
          "velocity": 0.937007874015748
        },
        {
          "duration": 1.330126875000019,
          "durationTicks": 332,
          "midi": 63,
          "name": "D#4",
          "ticks": 85632,
          "time": 299.7999,
          "velocity": 0.9291338582677166
        },
        {
          "duration": 1.233973125000034,
          "durationTicks": 308,
          "midi": 68,
          "name": "G#4",
          "ticks": 85632,
          "time": 299.7999,
          "velocity": 0.9291338582677166
        },
        {
          "duration": 0.649037812500012,
          "durationTicks": 162,
          "midi": 58,
          "name": "A#3",
          "ticks": 85776,
          "time": 300.3768225,
          "velocity": 0.14173228346456693
        },
        {
          "duration": 0.801281250000045,
          "durationTicks": 200,
          "midi": 39,
          "name": "D#2",
          "ticks": 86016,
          "time": 301.33835999999997,
          "velocity": 0.9212598425196851
        },
        {
          "duration": 0.38461500000005344,
          "durationTicks": 96,
          "midi": 58,
          "name": "A#3",
          "ticks": 86016,
          "time": 301.33835999999997,
          "velocity": 0.937007874015748
        },
        {
          "duration": 0.6089737500000183,
          "durationTicks": 152,
          "midi": 63,
          "name": "D#4",
          "ticks": 86016,
          "time": 301.33835999999997,
          "velocity": 0.952755905511811
        },
        {
          "duration": 0.6410250000000133,
          "durationTicks": 160,
          "midi": 67,
          "name": "G4",
          "ticks": 86016,
          "time": 301.33835999999997,
          "velocity": 0.9606299212598425
        },
        {
          "duration": 0.40865343749999283,
          "durationTicks": 102,
          "midi": 46,
          "name": "A#2",
          "ticks": 86112,
          "time": 301.722975,
          "velocity": 0.937007874015748
        },
        {
          "duration": 0.6169865624999602,
          "durationTicks": 154,
          "midi": 51,
          "name": "D#3",
          "ticks": 86208,
          "time": 302.10759,
          "velocity": 0.9606299212598425
        },
        {
          "duration": 0.4006406249999941,
          "durationTicks": 100,
          "midi": 67,
          "name": "G4",
          "ticks": 86208,
          "time": 302.10759,
          "velocity": 0.968503937007874
        },
        {
          "duration": 0.43269187499998907,
          "durationTicks": 108,
          "midi": 70,
          "name": "A#4",
          "ticks": 86304,
          "time": 302.492205,
          "velocity": 0.9606299212598425
        },
        {
          "duration": 1.6666649999999663,
          "durationTicks": 416,
          "midi": 56,
          "name": "G#3",
          "ticks": 86400,
          "time": 302.87682,
          "velocity": 0.9606299212598425
        },
        {
          "duration": 1.6266009374999726,
          "durationTicks": 406,
          "midi": 63,
          "name": "D#4",
          "ticks": 86400,
          "time": 302.87682,
          "velocity": 0.9212598425196851
        },
        {
          "duration": 0.48076874999998154,
          "durationTicks": 120,
          "midi": 68,
          "name": "G#4",
          "ticks": 86400,
          "time": 302.87682,
          "velocity": 0.9606299212598425
        },
        {
          "duration": 0.4407046874999878,
          "durationTicks": 110,
          "midi": 72,
          "name": "C5",
          "ticks": 86400,
          "time": 302.87682,
          "velocity": 0.9448818897637795
        },
        {
          "duration": 0.4407046874999878,
          "durationTicks": 110,
          "midi": 70,
          "name": "A#4",
          "ticks": 86496,
          "time": 303.261435,
          "velocity": 0.968503937007874
        },
        {
          "duration": 0.39262781249999534,
          "durationTicks": 98,
          "midi": 74,
          "name": "D5",
          "ticks": 86496,
          "time": 303.261435,
          "velocity": 0.9291338582677166
        },
        {
          "duration": 0.6410250000000133,
          "durationTicks": 160,
          "midi": 68,
          "name": "G#4",
          "ticks": 86592,
          "time": 303.64605,
          "velocity": 0.9448818897637795
        },
        {
          "duration": 0.7612171874999945,
          "durationTicks": 190,
          "midi": 72,
          "name": "C5",
          "ticks": 86592,
          "time": 303.64605,
          "velocity": 0.952755905511811
        },
        {
          "duration": 0.4166662499999916,
          "durationTicks": 104,
          "midi": 74,
          "name": "D5",
          "ticks": 86688,
          "time": 304.030665,
          "velocity": 0.9291338582677166
        },
        {
          "duration": 1.5384599999999864,
          "durationTicks": 384,
          "midi": 55,
          "name": "G3",
          "ticks": 86784,
          "time": 304.41528,
          "velocity": 0.9212598425196851
        },
        {
          "duration": 0.496794374999979,
          "durationTicks": 124,
          "midi": 67,
          "name": "G4",
          "ticks": 86784,
          "time": 304.41528,
          "velocity": 0.9606299212598425
        },
        {
          "duration": 0.5208328125000321,
          "durationTicks": 130,
          "midi": 70,
          "name": "A#4",
          "ticks": 86784,
          "time": 304.41528,
          "velocity": 0.952755905511811
        },
        {
          "duration": 1.0096143750000124,
          "durationTicks": 252,
          "midi": 63,
          "name": "D#4",
          "ticks": 86880,
          "time": 304.799895,
          "velocity": 0.952755905511811
        },
        {
          "duration": 0.3685893749999991,
          "durationTicks": 92,
          "midi": 67,
          "name": "G4",
          "ticks": 86976,
          "time": 305.18451,
          "velocity": 0.952755905511811
        },
        {
          "duration": 0.3846149999999966,
          "durationTicks": 96,
          "midi": 70,
          "name": "A#4",
          "ticks": 87072,
          "time": 305.569125,
          "velocity": 0.9448818897637795
        },
        {
          "duration": 1.5945496875000345,
          "durationTicks": 398,
          "midi": 54,
          "name": "F#3",
          "ticks": 87168,
          "time": 305.95374,
          "velocity": 0.952755905511811
        },
        {
          "duration": 1.233973125000034,
          "durationTicks": 308,
          "midi": 66,
          "name": "F#4",
          "ticks": 87168,
          "time": 305.95374,
          "velocity": 0.9606299212598425
        },
        {
          "duration": 1.1939090625000404,
          "durationTicks": 298,
          "midi": 69,
          "name": "A4",
          "ticks": 87168,
          "time": 305.95374,
          "velocity": 0.9606299212598425
        },
        {
          "duration": 0.4407046874999878,
          "durationTicks": 110,
          "midi": 72,
          "name": "C5",
          "ticks": 87168,
          "time": 305.95374,
          "velocity": 0.937007874015748
        },
        {
          "duration": 0.37660218749999785,
          "durationTicks": 94,
          "midi": 74,
          "name": "D5",
          "ticks": 87264,
          "time": 306.338355,
          "velocity": 0.9212598425196851
        },
        {
          "duration": 0.43269187499998907,
          "durationTicks": 108,
          "midi": 72,
          "name": "C5",
          "ticks": 87360,
          "time": 306.72297,
          "velocity": 0.9212598425196851
        },
        {
          "duration": 0.40064062500005093,
          "durationTicks": 100,
          "midi": 74,
          "name": "D5",
          "ticks": 87456,
          "time": 307.107585,
          "velocity": 0.9291338582677166
        },
        {
          "duration": 3.1410224999999627,
          "durationTicks": 784,
          "midi": 53,
          "name": "F3",
          "ticks": 87552,
          "time": 307.4922,
          "velocity": 0.9448818897637795
        },
        {
          "duration": 0.4246790624999903,
          "durationTicks": 106,
          "midi": 65,
          "name": "F4",
          "ticks": 87552,
          "time": 307.4922,
          "velocity": 0.952755905511811
        },
        {
          "duration": 0.8573709374999794,
          "durationTicks": 214,
          "midi": 70,
          "name": "A#4",
          "ticks": 87552,
          "time": 307.4922,
          "velocity": 0.9606299212598425
        },
        {
          "duration": 0.7051275000000032,
          "durationTicks": 176,
          "midi": 62,
          "name": "D4",
          "ticks": 87648,
          "time": 307.87681499999997,
          "velocity": 0.9606299212598425
        },
        {
          "duration": 0.6169865624999602,
          "durationTicks": 154,
          "midi": 65,
          "name": "F4",
          "ticks": 87744,
          "time": 308.26143,
          "velocity": 0.9133858267716536
        },
        {
          "duration": 0.28044843749995607,
          "durationTicks": 70,
          "midi": 70,
          "name": "A#4",
          "ticks": 87840,
          "time": 308.646045,
          "velocity": 0.9448818897637795
        },
        {
          "duration": 1.274037187499971,
          "durationTicks": 318,
          "midi": 61,
          "name": "C#4",
          "ticks": 87936,
          "time": 309.03066,
          "velocity": 0.952755905511811
        },
        {
          "duration": 1.1538449999999898,
          "durationTicks": 288,
          "midi": 65,
          "name": "F4",
          "ticks": 87936,
          "time": 309.03066,
          "velocity": 0.9606299212598425
        },
        {
          "duration": 0.4727559374999828,
          "durationTicks": 118,
          "midi": 70,
          "name": "A#4",
          "ticks": 87936,
          "time": 309.03066,
          "velocity": 0.968503937007874
        },
        {
          "duration": 0.27243562500001417,
          "durationTicks": 68,
          "midi": 68,
          "name": "G#4",
          "ticks": 88032,
          "time": 309.415275,
          "velocity": 0.9291338582677166
        },
        {
          "duration": 0.39262781249999534,
          "durationTicks": 98,
          "midi": 68,
          "name": "G#4",
          "ticks": 88128,
          "time": 309.79989,
          "velocity": 0.952755905511811
        },
        {
          "duration": 0.2083331250000242,
          "durationTicks": 52,
          "midi": 67,
          "name": "G4",
          "ticks": 88224,
          "time": 310.184505,
          "velocity": 0.9212598425196851
        },
        {
          "duration": 2.60416406249999,
          "durationTicks": 650,
          "midi": 52,
          "name": "E3",
          "ticks": 88320,
          "time": 310.56912,
          "velocity": 0.905511811023622
        },
        {
          "duration": 0.2964740625000104,
          "durationTicks": 74,
          "midi": 60,
          "name": "C4",
          "ticks": 88320,
          "time": 310.56912,
          "velocity": 0.9212598425196851
        },
        {
          "duration": 0.5048071874999778,
          "durationTicks": 126,
          "midi": 64,
          "name": "E4",
          "ticks": 88320,
          "time": 310.56912,
          "velocity": 0.905511811023622
        },
        {
          "duration": 0.8413453124999819,
          "durationTicks": 210,
          "midi": 67,
          "name": "G4",
          "ticks": 88320,
          "time": 310.56912,
          "velocity": 0.952755905511811
        },
        {
          "duration": 2.4679462500000113,
          "durationTicks": 616,
          "midi": 60,
          "name": "C4",
          "ticks": 88416,
          "time": 310.953735,
          "velocity": 0.8976377952755905
        },
        {
          "duration": 2.3397412499999746,
          "durationTicks": 584,
          "midi": 64,
          "name": "E4",
          "ticks": 88512,
          "time": 311.33835,
          "velocity": 0.9606299212598425
        },
        {
          "duration": 0.21634593750002296,
          "durationTicks": 54,
          "midi": 70,
          "name": "A#4",
          "ticks": 88608,
          "time": 311.722965,
          "velocity": 0.9212598425196851
        },
        {
          "duration": 0.4647431250000409,
          "durationTicks": 116,
          "midi": 70,
          "name": "A#4",
          "ticks": 88704,
          "time": 312.10758,
          "velocity": 0.9448818897637795
        },
        {
          "duration": 0.2564100000000167,
          "durationTicks": 64,
          "midi": 68,
          "name": "G#4",
          "ticks": 88800,
          "time": 312.492195,
          "velocity": 0.9291338582677166
        },
        {
          "duration": 0.2804484375000129,
          "durationTicks": 70,
          "midi": 68,
          "name": "G#4",
          "ticks": 88896,
          "time": 312.87681,
          "velocity": 0.905511811023622
        },
        {
          "duration": 0.27243562500001417,
          "durationTicks": 68,
          "midi": 67,
          "name": "G4",
          "ticks": 88992,
          "time": 313.261425,
          "velocity": 0.905511811023622
        },
        {
          "duration": 0.40064062500005093,
          "durationTicks": 100,
          "midi": 36,
          "name": "C2",
          "ticks": 89088,
          "time": 313.64603999999997,
          "velocity": 0.968503937007874
        },
        {
          "duration": 1.5384600000000432,
          "durationTicks": 384,
          "midi": 48,
          "name": "C3",
          "ticks": 89088,
          "time": 313.64603999999997,
          "velocity": 0.9448818897637795
        },
        {
          "duration": 0.38461500000005344,
          "durationTicks": 96,
          "midi": 60,
          "name": "C4",
          "ticks": 89088,
          "time": 313.64603999999997,
          "velocity": 0.952755905511811
        },
        {
          "duration": 2.2996771875000377,
          "durationTicks": 574,
          "midi": 67,
          "name": "G4",
          "ticks": 89088,
          "time": 313.64603999999997,
          "velocity": 0.968503937007874
        },
        {
          "duration": 0.4166662499999916,
          "durationTicks": 104,
          "midi": 64,
          "name": "E4",
          "ticks": 89184,
          "time": 314.030655,
          "velocity": 0.9606299212598425
        },
        {
          "duration": 0.681089062500007,
          "durationTicks": 170,
          "midi": 60,
          "name": "C4",
          "ticks": 89280,
          "time": 314.41526999999996,
          "velocity": 0.7952755905511811
        },
        {
          "duration": 0.3445509375000029,
          "durationTicks": 86,
          "midi": 58,
          "name": "A#3",
          "ticks": 89376,
          "time": 314.799885,
          "velocity": 0.9606299212598425
        },
        {
          "duration": 0.3846149999999966,
          "durationTicks": 96,
          "midi": 53,
          "name": "F3",
          "ticks": 89472,
          "time": 315.1845,
          "velocity": 0.968503937007874
        },
        {
          "duration": 0.3846149999999966,
          "durationTicks": 96,
          "midi": 57,
          "name": "A3",
          "ticks": 89472,
          "time": 315.1845,
          "velocity": 0.968503937007874
        },
        {
          "duration": 0.3846149999999966,
          "durationTicks": 96,
          "midi": 60,
          "name": "C4",
          "ticks": 89472,
          "time": 315.1845,
          "velocity": 0.968503937007874
        },
        {
          "duration": 0.3846149999999966,
          "durationTicks": 96,
          "midi": 65,
          "name": "F4",
          "ticks": 89472,
          "time": 315.1845,
          "velocity": 0.968503937007874
        },
        {
          "duration": 0.4006406249999941,
          "durationTicks": 100,
          "midi": 48,
          "name": "C3",
          "ticks": 89560,
          "time": 315.53706375,
          "velocity": 0.905511811023622
        },
        {
          "duration": 0.5208328124999753,
          "durationTicks": 130,
          "midi": 53,
          "name": "F3",
          "ticks": 89660,
          "time": 315.937704375,
          "velocity": 0.9448818897637795
        },
        {
          "duration": 0.8092940624999869,
          "durationTicks": 202,
          "midi": 65,
          "name": "F4",
          "ticks": 89664,
          "time": 315.95373,
          "velocity": 0.9448818897637795
        },
        {
          "duration": 0.4246790624999903,
          "durationTicks": 106,
          "midi": 48,
          "name": "C3",
          "ticks": 89770,
          "time": 316.3784090625,
          "velocity": 0.8031496062992126
        },
        {
          "duration": 0.48076874999998154,
          "durationTicks": 120,
          "midi": 62,
          "name": "D4",
          "ticks": 89862,
          "time": 316.7469984375,
          "velocity": 0.9291338582677166
        },
        {
          "duration": 0.9134606250000274,
          "durationTicks": 228,
          "midi": 46,
          "name": "A#2",
          "ticks": 89864,
          "time": 316.75501125,
          "velocity": 0.937007874015748
        },
        {
          "duration": 5.921468437499982,
          "durationTicks": 1478,
          "midi": 53,
          "name": "F3",
          "ticks": 89864,
          "time": 316.75501125,
          "velocity": 0.9212598425196851
        },
        {
          "duration": 0.9054478124999719,
          "durationTicks": 226,
          "midi": 58,
          "name": "A#3",
          "ticks": 89864,
          "time": 316.75501125,
          "velocity": 0.9606299212598425
        },
        {
          "duration": 0.37660218749999785,
          "durationTicks": 94,
          "midi": 62,
          "name": "D4",
          "ticks": 89992,
          "time": 317.26783125,
          "velocity": 0.8267716535433071
        },
        {
          "duration": 0.36057656250000036,
          "durationTicks": 90,
          "midi": 57,
          "name": "A3",
          "ticks": 90078,
          "time": 317.6123821875,
          "velocity": 0.8582677165354331
        },
        {
          "duration": 0.42467906250004717,
          "durationTicks": 106,
          "midi": 60,
          "name": "C4",
          "ticks": 90080,
          "time": 317.620395,
          "velocity": 0.952755905511811
        },
        {
          "duration": 1.0416656250000074,
          "durationTicks": 260,
          "midi": 45,
          "name": "A2",
          "ticks": 90082,
          "time": 317.6284078125,
          "velocity": 0.9448818897637795
        },
        {
          "duration": 0.4567303124999853,
          "durationTicks": 114,
          "midi": 60,
          "name": "C4",
          "ticks": 90206,
          "time": 318.1252021875,
          "velocity": 0.937007874015748
        },
        {
          "duration": 0.3525637500000016,
          "durationTicks": 88,
          "midi": 57,
          "name": "A3",
          "ticks": 90208,
          "time": 318.133215,
          "velocity": 0.937007874015748
        },
        {
          "duration": 1.3060884375000228,
          "durationTicks": 326,
          "midi": 59,
          "name": "B3",
          "ticks": 90328,
          "time": 318.61398375,
          "velocity": 0.8976377952755905
        },
        {
          "duration": 1.5064087499999914,
          "durationTicks": 376,
          "midi": 44,
          "name": "G#2",
          "ticks": 90330,
          "time": 318.6219965625,
          "velocity": 0.9212598425196851
        },
        {
          "duration": 1.3782037500000115,
          "durationTicks": 344,
          "midi": 56,
          "name": "G#3",
          "ticks": 90332,
          "time": 318.630009375,
          "velocity": 0.9606299212598425
        },
        {
          "duration": 0.9374990624999668,
          "durationTicks": 234,
          "midi": 65,
          "name": "F4",
          "ticks": 90494,
          "time": 319.2790471875,
          "velocity": 0.937007874015748
        },
        {
          "duration": 2.660253749999981,
          "durationTicks": 664,
          "midi": 55,
          "name": "G3",
          "ticks": 90680,
          "time": 320.02423875,
          "velocity": 0.905511811023622
        },
        {
          "duration": 2.692304999999976,
          "durationTicks": 672,
          "midi": 43,
          "name": "G2",
          "ticks": 90682,
          "time": 320.0322515625,
          "velocity": 0.9606299212598425
        },
        {
          "duration": 2.66826656249998,
          "durationTicks": 666,
          "midi": 58,
          "name": "A#3",
          "ticks": 90682,
          "time": 320.0322515625,
          "velocity": 0.9606299212598425
        },
        {
          "duration": 1.7467931249999538,
          "durationTicks": 436,
          "midi": 65,
          "name": "F4",
          "ticks": 90906,
          "time": 320.9296865625,
          "velocity": 0.937007874015748
        },
        {
          "duration": 4.615380000000016,
          "durationTicks": 1152,
          "midi": 41,
          "name": "F2",
          "ticks": 91344,
          "time": 322.6844925,
          "velocity": 0.9606299212598425
        },
        {
          "duration": 4.807687499999986,
          "durationTicks": 1200,
          "midi": 53,
          "name": "F3",
          "ticks": 91356,
          "time": 322.732569375,
          "velocity": 0.9606299212598425
        },
        {
          "duration": 4.807687499999986,
          "durationTicks": 1200,
          "midi": 57,
          "name": "A3",
          "ticks": 91368,
          "time": 322.78064625,
          "velocity": 0.9606299212598425
        },
        {
          "duration": 4.615379999999959,
          "durationTicks": 1152,
          "midi": 60,
          "name": "C4",
          "ticks": 91380,
          "time": 322.828723125,
          "velocity": 0.9606299212598425
        },
        {
          "duration": 4.999995000000013,
          "durationTicks": 1248,
          "midi": 65,
          "name": "F4",
          "ticks": 91392,
          "time": 322.8768,
          "velocity": 0.968503937007874
        }
      ],
      "endOfTrackTicks": 92930
    },
    {
      "channel": 0,
      "controlChanges": {
        "0": [
          {
            "number": 0,
            "ticks": 202,
            "time": 0.8092940624999999,
            "value": 0
          }
        ],
        "32": [
          {
            "number": 32,
            "ticks": 204,
            "time": 0.817306875,
            "value": 0
          }
        ],
        "121": [
          {
            "number": 121,
            "ticks": 162,
            "time": 0.6490378124999999,
            "value": 0
          }
        ]
      },
      "pitchBends": [],
      "instrument": {
        "family": "piano",
        "number": 0,
        "name": "acoustic grand piano"
      },
      "name": "",
      "notes": [],
      "endOfTrackTicks": 92930
    },
    {
      "channel": 1,
      "controlChanges": {
        "7": [
          {
            "number": 7,
            "ticks": 208,
            "time": 0.8333324999999999,
            "value": 0.968503937007874
          }
        ],
        "10": [
          {
            "number": 10,
            "ticks": 208,
            "time": 0.8333324999999999,
            "value": 0.5039370078740157
          }
        ],
        "11": [
          {
            "number": 11,
            "ticks": 208,
            "time": 0.8333324999999999,
            "value": 0.8661417322834646
          }
        ],
        "91": [
          {
            "number": 91,
            "ticks": 210,
            "time": 0.8413453125,
            "value": 0
          }
        ],
        "93": [
          {
            "number": 93,
            "ticks": 210,
            "time": 0.8413453125,
            "value": 0.47244094488188976
          }
        ],
        "120": [
          {
            "number": 120,
            "ticks": 92928,
            "time": 329.03064,
            "value": 0
          }
        ],
        "123": [
          {
            "number": 123,
            "ticks": 92930,
            "time": 329.0386528125,
            "value": 0
          }
        ]
      },
      "pitchBends": [],
      "instrument": {
        "family": "bass",
        "number": 33,
        "name": "electric bass (finger)"
      },
      "name": "",
      "notes": [
        {
          "duration": 0.9855759375000019,
          "durationTicks": 246,
          "midi": 39,
          "name": "D#2",
          "ticks": 19212,
          "time": 76.971076875,
          "velocity": 0.984251968503937
        },
        {
          "duration": 0.12019218749999538,
          "durationTicks": 30,
          "midi": 39,
          "name": "D#2",
          "ticks": 19500,
          "time": 78.124921875,
          "velocity": 0.984251968503937
        },
        {
          "duration": 0.7692300000000074,
          "durationTicks": 192,
          "midi": 39,
          "name": "D#2",
          "ticks": 19596,
          "time": 78.509536875,
          "velocity": 0.984251968503937
        },
        {
          "duration": 0.7932684374999894,
          "durationTicks": 198,
          "midi": 34,
          "name": "A#1",
          "ticks": 19788,
          "time": 79.278766875,
          "velocity": 0.984251968503937
        },
        {
          "duration": 0.8653837500000066,
          "durationTicks": 216,
          "midi": 36,
          "name": "C2",
          "ticks": 19980,
          "time": 80.047996875,
          "velocity": 0.984251968503937
        },
        {
          "duration": 0.12820499999999413,
          "durationTicks": 32,
          "midi": 36,
          "name": "C2",
          "ticks": 20268,
          "time": 81.201841875,
          "velocity": 0.984251968503937
        },
        {
          "duration": 0.8012812500000024,
          "durationTicks": 200,
          "midi": 36,
          "name": "C2",
          "ticks": 20364,
          "time": 81.586456875,
          "velocity": 0.984251968503937
        },
        {
          "duration": 0.40865343749999283,
          "durationTicks": 102,
          "midi": 31,
          "name": "G1",
          "ticks": 20556,
          "time": 82.355686875,
          "velocity": 0.984251968503937
        },
        {
          "duration": 0.4326918750000033,
          "durationTicks": 108,
          "midi": 30,
          "name": "F#1",
          "ticks": 20652,
          "time": 82.740301875,
          "velocity": 0.984251968503937
        },
        {
          "duration": 1.1378193750000065,
          "durationTicks": 284,
          "midi": 29,
          "name": "F1",
          "ticks": 20748,
          "time": 83.124916875,
          "velocity": 0.984251968503937
        },
        {
          "duration": 0.43269187499998907,
          "durationTicks": 108,
          "midi": 40,
          "name": "E2",
          "ticks": 21036,
          "time": 84.278761875,
          "velocity": 0.984251968503937
        },
        {
          "duration": 0.8092940625000011,
          "durationTicks": 202,
          "midi": 39,
          "name": "D#2",
          "ticks": 21132,
          "time": 84.663376875,
          "velocity": 0.984251968503937
        },
        {
          "duration": 0.4887815625000087,
          "durationTicks": 122,
          "midi": 38,
          "name": "D2",
          "ticks": 21324,
          "time": 85.43260687499999,
          "velocity": 0.984251968503937
        },
        {
          "duration": 0.28846124999999745,
          "durationTicks": 72,
          "midi": 36,
          "name": "C2",
          "ticks": 21468,
          "time": 86.009529375,
          "velocity": 0.937007874015748
        },
        {
          "duration": 0.9855759375000019,
          "durationTicks": 246,
          "midi": 34,
          "name": "A#1",
          "ticks": 21516,
          "time": 86.201836875,
          "velocity": 0.984251968503937
        },
        {
          "duration": 0.18429468749998534,
          "durationTicks": 46,
          "midi": 34,
          "name": "A#1",
          "ticks": 21804,
          "time": 87.355681875,
          "velocity": 0.952755905511811
        },
        {
          "duration": 0.23237156249999202,
          "durationTicks": 58,
          "midi": 34,
          "name": "A#1",
          "ticks": 21900,
          "time": 87.740296875,
          "velocity": 0.984251968503937
        },
        {
          "duration": 0.30448687499999494,
          "durationTicks": 76,
          "midi": 34,
          "name": "A#1",
          "ticks": 21996,
          "time": 88.124911875,
          "velocity": 0.984251968503937
        },
        {
          "duration": 0.1923074999999983,
          "durationTicks": 48,
          "midi": 34,
          "name": "A#1",
          "ticks": 22092,
          "time": 88.50952687499999,
          "velocity": 0.984251968503937
        },
        {
          "duration": 0.1923075000000125,
          "durationTicks": 48,
          "midi": 36,
          "name": "C2",
          "ticks": 22140,
          "time": 88.70183437499999,
          "velocity": 0.984251968503937
        },
        {
          "duration": 0.37660218749998364,
          "durationTicks": 94,
          "midi": 38,
          "name": "D2",
          "ticks": 22188,
          "time": 88.894141875,
          "velocity": 0.984251968503937
        },
        {
          "duration": 0.3124996874999937,
          "durationTicks": 78,
          "midi": 39,
          "name": "D#2",
          "ticks": 22280,
          "time": 89.26273125,
          "velocity": 0.984251968503937
        },
        {
          "duration": 0.1762818750000008,
          "durationTicks": 44,
          "midi": 39,
          "name": "D#2",
          "ticks": 22376,
          "time": 89.64734625,
          "velocity": 0.984251968503937
        },
        {
          "duration": 0.24839718750000372,
          "durationTicks": 62,
          "midi": 39,
          "name": "D#2",
          "ticks": 22472,
          "time": 90.03196125,
          "velocity": 0.984251968503937
        },
        {
          "duration": 0.37660218749998364,
          "durationTicks": 94,
          "midi": 39,
          "name": "D#2",
          "ticks": 22568,
          "time": 90.41657625,
          "velocity": 0.984251968503937
        },
        {
          "duration": 0.20032031249999704,
          "durationTicks": 50,
          "midi": 38,
          "name": "D2",
          "ticks": 22664,
          "time": 90.80119125,
          "velocity": 0.984251968503937
        },
        {
          "duration": 0.22435874999999328,
          "durationTicks": 56,
          "midi": 38,
          "name": "D2",
          "ticks": 22760,
          "time": 91.18580625,
          "velocity": 0.984251968503937
        },
        {
          "duration": 0.20032031249999704,
          "durationTicks": 50,
          "midi": 38,
          "name": "D2",
          "ticks": 22856,
          "time": 91.57042125,
          "velocity": 0.984251968503937
        },
        {
          "duration": 0.3846149999999966,
          "durationTicks": 96,
          "midi": 38,
          "name": "D2",
          "ticks": 22952,
          "time": 91.95503625,
          "velocity": 0.984251968503937
        },
        {
          "duration": 0.27243562499999996,
          "durationTicks": 68,
          "midi": 36,
          "name": "C2",
          "ticks": 23052,
          "time": 92.355676875,
          "velocity": 0.984251968503937
        },
        {
          "duration": 0.25641000000000247,
          "durationTicks": 64,
          "midi": 36,
          "name": "C2",
          "ticks": 23148,
          "time": 92.740291875,
          "velocity": 0.984251968503937
        },
        {
          "duration": 0.36057656250000036,
          "durationTicks": 90,
          "midi": 36,
          "name": "C2",
          "ticks": 23244,
          "time": 93.124906875,
          "velocity": 0.984251968503937
        },
        {
          "duration": 0.37660218749999785,
          "durationTicks": 94,
          "midi": 31,
          "name": "G1",
          "ticks": 23340,
          "time": 93.50952187499999,
          "velocity": 0.984251968503937
        },
        {
          "duration": 1.5785240624999943,
          "durationTicks": 394,
          "midi": 32,
          "name": "G#1",
          "ticks": 23436,
          "time": 93.894136875,
          "velocity": 0.984251968503937
        },
        {
          "duration": 4.102559999999997,
          "durationTicks": 1024,
          "midi": 27,
          "name": "D#1",
          "ticks": 23820,
          "time": 95.432596875,
          "velocity": 0.984251968503937
        },
        {
          "duration": 4.086534374999999,
          "durationTicks": 1020,
          "midi": 39,
          "name": "D#2",
          "ticks": 23820,
          "time": 95.432596875,
          "velocity": 0.984251968503937
        },
        {
          "duration": 0.953524687500007,
          "durationTicks": 238,
          "midi": 34,
          "name": "A#1",
          "ticks": 24960,
          "time": 99.9999,
          "velocity": 0.984251968503937
        },
        {
          "duration": 0.15224343750000457,
          "durationTicks": 38,
          "midi": 34,
          "name": "A#1",
          "ticks": 25252,
          "time": 101.169770625,
          "velocity": 0.9606299212598425
        },
        {
          "duration": 1.3301268749999906,
          "durationTicks": 332,
          "midi": 34,
          "name": "A#1",
          "ticks": 25342,
          "time": 101.5303471875,
          "velocity": 0.9763779527559056
        },
        {
          "duration": 0.9054478124999861,
          "durationTicks": 226,
          "midi": 34,
          "name": "A#1",
          "ticks": 25726,
          "time": 103.0688071875,
          "velocity": 0.984251968503937
        },
        {
          "duration": 0.15224343749999036,
          "durationTicks": 38,
          "midi": 34,
          "name": "A#1",
          "ticks": 26014,
          "time": 104.2226521875,
          "velocity": 0.984251968503937
        },
        {
          "duration": 0.8012812500000024,
          "durationTicks": 200,
          "midi": 34,
          "name": "A#1",
          "ticks": 26110,
          "time": 104.6072671875,
          "velocity": 0.984251968503937
        },
        {
          "duration": 0.7692299999999932,
          "durationTicks": 192,
          "midi": 29,
          "name": "F1",
          "ticks": 26302,
          "time": 105.37649718750001,
          "velocity": 0.968503937007874
        },
        {
          "duration": 0.8894221875000028,
          "durationTicks": 222,
          "midi": 34,
          "name": "A#1",
          "ticks": 26494,
          "time": 106.1457271875,
          "velocity": 0.984251968503937
        },
        {
          "duration": 0.1602562499999891,
          "durationTicks": 40,
          "midi": 34,
          "name": "A#1",
          "ticks": 26782,
          "time": 107.2995721875,
          "velocity": 0.9606299212598425
        },
        {
          "duration": 1.5304471874999876,
          "durationTicks": 382,
          "midi": 34,
          "name": "A#1",
          "ticks": 26878,
          "time": 107.6841871875,
          "velocity": 0.984251968503937
        },
        {
          "duration": 0.8814093749999898,
          "durationTicks": 220,
          "midi": 31,
          "name": "G1",
          "ticks": 27262,
          "time": 109.2226471875,
          "velocity": 0.984251968503937
        },
        {
          "duration": 0.18429468749998534,
          "durationTicks": 46,
          "midi": 31,
          "name": "G1",
          "ticks": 27550,
          "time": 110.3764921875,
          "velocity": 0.968503937007874
        },
        {
          "duration": 1.5785240624999801,
          "durationTicks": 394,
          "midi": 31,
          "name": "G1",
          "ticks": 27646,
          "time": 110.7611071875,
          "velocity": 0.9763779527559056
        },
        {
          "duration": 0.8573709374999794,
          "durationTicks": 214,
          "midi": 36,
          "name": "C2",
          "ticks": 28030,
          "time": 112.2995671875,
          "velocity": 0.9763779527559056
        },
        {
          "duration": 0.15224343749999036,
          "durationTicks": 38,
          "midi": 36,
          "name": "C2",
          "ticks": 28318,
          "time": 113.4534121875,
          "velocity": 0.9606299212598425
        },
        {
          "duration": 1.145832187499991,
          "durationTicks": 286,
          "midi": 36,
          "name": "C2",
          "ticks": 28414,
          "time": 113.8380271875,
          "velocity": 0.984251968503937
        },
        {
          "duration": 0.4246790624999761,
          "durationTicks": 106,
          "midi": 31,
          "name": "G1",
          "ticks": 28702,
          "time": 114.99187218750001,
          "velocity": 0.968503937007874
        },
        {
          "duration": 1.1298065624999936,
          "durationTicks": 282,
          "midi": 36,
          "name": "C2",
          "ticks": 28798,
          "time": 115.3764871875,
          "velocity": 0.984251968503937
        },
        {
          "duration": 0.21634593749999453,
          "durationTicks": 54,
          "midi": 31,
          "name": "G1",
          "ticks": 29086,
          "time": 116.53033218750001,
          "velocity": 0.968503937007874
        },
        {
          "duration": 0.24038437499999077,
          "durationTicks": 60,
          "midi": 30,
          "name": "F#1",
          "ticks": 29134,
          "time": 116.7226396875,
          "velocity": 0.9448818897637795
        },
        {
          "duration": 0.7612171874999802,
          "durationTicks": 190,
          "midi": 29,
          "name": "F1",
          "ticks": 29182,
          "time": 116.9149471875,
          "velocity": 0.984251968503937
        },
        {
          "duration": 0.7692300000000074,
          "durationTicks": 192,
          "midi": 29,
          "name": "F1",
          "ticks": 29374,
          "time": 117.6841771875,
          "velocity": 0.984251968503937
        },
        {
          "duration": 0.9695503124999902,
          "durationTicks": 242,
          "midi": 34,
          "name": "A#1",
          "ticks": 29566,
          "time": 118.4534071875,
          "velocity": 0.984251968503937
        },
        {
          "duration": 0.28846124999999745,
          "durationTicks": 72,
          "midi": 34,
          "name": "A#1",
          "ticks": 29854,
          "time": 119.60725218750001,
          "velocity": 0.952755905511811
        },
        {
          "duration": 1.4983959374999927,
          "durationTicks": 374,
          "midi": 34,
          "name": "A#1",
          "ticks": 29950,
          "time": 119.9918671875,
          "velocity": 0.984251968503937
        },
        {
          "duration": 0.745191562499997,
          "durationTicks": 186,
          "midi": 31,
          "name": "G1",
          "ticks": 30334,
          "time": 121.5303271875,
          "velocity": 0.984251968503937
        },
        {
          "duration": 0.40865343750000704,
          "durationTicks": 102,
          "midi": 34,
          "name": "A#1",
          "ticks": 30526,
          "time": 122.2995571875,
          "velocity": 0.9763779527559056
        },
        {
          "duration": 0.4006406249999941,
          "durationTicks": 100,
          "midi": 38,
          "name": "D2",
          "ticks": 30622,
          "time": 122.6841721875,
          "velocity": 0.9606299212598425
        },
        {
          "duration": 1.1458321874999768,
          "durationTicks": 286,
          "midi": 43,
          "name": "G2",
          "ticks": 30718,
          "time": 123.0687871875,
          "velocity": 0.984251968503937
        },
        {
          "duration": 0.46474312499999826,
          "durationTicks": 116,
          "midi": 38,
          "name": "D2",
          "ticks": 31006,
          "time": 124.2226321875,
          "velocity": 0.984251968503937
        },
        {
          "duration": 1.1618578124999885,
          "durationTicks": 290,
          "midi": 36,
          "name": "C2",
          "ticks": 31102,
          "time": 124.60724718750001,
          "velocity": 0.9763779527559056
        },
        {
          "duration": 0.3685893749999991,
          "durationTicks": 92,
          "midi": 35,
          "name": "B1",
          "ticks": 31390,
          "time": 125.7610921875,
          "velocity": 0.984251968503937
        },
        {
          "duration": 0.7852556249999765,
          "durationTicks": 196,
          "midi": 34,
          "name": "A#1",
          "ticks": 31486,
          "time": 126.14570718750001,
          "velocity": 0.984251968503937
        },
        {
          "duration": 0.7532043749999957,
          "durationTicks": 188,
          "midi": 33,
          "name": "A1",
          "ticks": 31678,
          "time": 126.9149371875,
          "velocity": 0.984251968503937
        },
        {
          "duration": 1.5785240624999801,
          "durationTicks": 394,
          "midi": 32,
          "name": "G#1",
          "ticks": 31870,
          "time": 127.68416718750001,
          "velocity": 0.984251968503937
        },
        {
          "duration": 0.745191562499997,
          "durationTicks": 186,
          "midi": 31,
          "name": "G1",
          "ticks": 32254,
          "time": 129.2226271875,
          "velocity": 0.9763779527559056
        },
        {
          "duration": 0.7932684375000179,
          "durationTicks": 198,
          "midi": 34,
          "name": "A#1",
          "ticks": 32446,
          "time": 129.9918571875,
          "velocity": 0.952755905511811
        },
        {
          "duration": 0.6810890624999786,
          "durationTicks": 170,
          "midi": 39,
          "name": "D#2",
          "ticks": 32638,
          "time": 130.7610871875,
          "velocity": 0.984251968503937
        },
        {
          "duration": 0.18429468749997113,
          "durationTicks": 46,
          "midi": 39,
          "name": "D#2",
          "ticks": 32830,
          "time": 131.5303171875,
          "velocity": 0.968503937007874
        },
        {
          "duration": 0.18429468749999955,
          "durationTicks": 46,
          "midi": 39,
          "name": "D#2",
          "ticks": 32926,
          "time": 131.9149321875,
          "velocity": 0.968503937007874
        },
        {
          "duration": 0.20032031249999704,
          "durationTicks": 50,
          "midi": 39,
          "name": "D#2",
          "ticks": 33022,
          "time": 132.2995471875,
          "velocity": 0.9763779527559056
        },
        {
          "duration": 0.3285253125000054,
          "durationTicks": 82,
          "midi": 39,
          "name": "D#2",
          "ticks": 33118,
          "time": 132.6841621875,
          "velocity": 0.968503937007874
        },
        {
          "duration": 0.27243562500001417,
          "durationTicks": 68,
          "midi": 38,
          "name": "D2",
          "ticks": 33214,
          "time": 133.0687771875,
          "velocity": 0.9763779527559056
        },
        {
          "duration": 0.3124996874999795,
          "durationTicks": 78,
          "midi": 38,
          "name": "D2",
          "ticks": 33310,
          "time": 133.45339218750001,
          "velocity": 0.968503937007874
        },
        {
          "duration": 0.21634593749999453,
          "durationTicks": 54,
          "midi": 36,
          "name": "C2",
          "ticks": 33406,
          "time": 133.8380071875,
          "velocity": 0.968503937007874
        },
        {
          "duration": 0.15224343749997615,
          "durationTicks": 38,
          "midi": 36,
          "name": "C2",
          "ticks": 33502,
          "time": 134.2226221875,
          "velocity": 0.9606299212598425
        },
        {
          "duration": 0.33653812500000413,
          "durationTicks": 84,
          "midi": 36,
          "name": "C2",
          "ticks": 33598,
          "time": 134.6072371875,
          "velocity": 0.968503937007874
        },
        {
          "duration": 0.25640999999998826,
          "durationTicks": 64,
          "midi": 31,
          "name": "G1",
          "ticks": 33694,
          "time": 134.9918521875,
          "velocity": 0.984251968503937
        },
        {
          "duration": 0.30448687499998073,
          "durationTicks": 76,
          "midi": 36,
          "name": "C2",
          "ticks": 33790,
          "time": 135.3764671875,
          "velocity": 0.968503937007874
        },
        {
          "duration": 0.2644228125000154,
          "durationTicks": 66,
          "midi": 36,
          "name": "C2",
          "ticks": 33886,
          "time": 135.7610821875,
          "velocity": 0.952755905511811
        },
        {
          "duration": 0.1041665625000121,
          "durationTicks": 26,
          "midi": 36,
          "name": "C2",
          "ticks": 33982,
          "time": 136.1456971875,
          "velocity": 0.968503937007874
        },
        {
          "duration": 0.18429468749999955,
          "durationTicks": 46,
          "midi": 36,
          "name": "C2",
          "ticks": 34030,
          "time": 136.3380046875,
          "velocity": 0.9606299212598425
        },
        {
          "duration": 0.20032031249996862,
          "durationTicks": 50,
          "midi": 31,
          "name": "G1",
          "ticks": 34078,
          "time": 136.53031218750002,
          "velocity": 0.9606299212598425
        },
        {
          "duration": 0.18429468749997113,
          "durationTicks": 46,
          "midi": 30,
          "name": "F#1",
          "ticks": 34126,
          "time": 136.7226196875,
          "velocity": 0.984251968503937
        },
        {
          "duration": 0.32852531249997696,
          "durationTicks": 82,
          "midi": 29,
          "name": "F1",
          "ticks": 34174,
          "time": 136.9149271875,
          "velocity": 0.968503937007874
        },
        {
          "duration": 0.21634593749999453,
          "durationTicks": 54,
          "midi": 29,
          "name": "F1",
          "ticks": 34270,
          "time": 137.2995421875,
          "velocity": 0.9606299212598425
        },
        {
          "duration": 0.3205124999999782,
          "durationTicks": 80,
          "midi": 29,
          "name": "F1",
          "ticks": 34366,
          "time": 137.6841571875,
          "velocity": 0.9448818897637795
        },
        {
          "duration": 0.1602562499999749,
          "durationTicks": 40,
          "midi": 41,
          "name": "F2",
          "ticks": 34462,
          "time": 138.0687721875,
          "velocity": 0.984251968503937
        },
        {
          "duration": 0.21634593749999453,
          "durationTicks": 54,
          "midi": 40,
          "name": "E2",
          "ticks": 34510,
          "time": 138.2610796875,
          "velocity": 0.984251968503937
        },
        {
          "duration": 0.3124996875000079,
          "durationTicks": 78,
          "midi": 39,
          "name": "D#2",
          "ticks": 34558,
          "time": 138.4533871875,
          "velocity": 0.984251968503937
        },
        {
          "duration": 0.39262781249999534,
          "durationTicks": 98,
          "midi": 39,
          "name": "D#2",
          "ticks": 34654,
          "time": 138.8380021875,
          "velocity": 0.9448818897637795
        },
        {
          "duration": 0.27243562500001417,
          "durationTicks": 68,
          "midi": 38,
          "name": "D2",
          "ticks": 34750,
          "time": 139.2226171875,
          "velocity": 0.984251968503937
        },
        {
          "duration": 0.23237156249999202,
          "durationTicks": 58,
          "midi": 38,
          "name": "D2",
          "ticks": 34846,
          "time": 139.6072321875,
          "velocity": 0.984251968503937
        },
        {
          "duration": 0.1923074999999983,
          "durationTicks": 48,
          "midi": 36,
          "name": "C2",
          "ticks": 34894,
          "time": 139.79953968750002,
          "velocity": 0.952755905511811
        },
        {
          "duration": 0.32852531249997696,
          "durationTicks": 82,
          "midi": 34,
          "name": "A#1",
          "ticks": 34942,
          "time": 139.9918471875,
          "velocity": 0.984251968503937
        },
        {
          "duration": 0.1923074999999983,
          "durationTicks": 48,
          "midi": 34,
          "name": "A#1",
          "ticks": 35038,
          "time": 140.3764621875,
          "velocity": 0.952755905511811
        },
        {
          "duration": 0.21634593749999453,
          "durationTicks": 54,
          "midi": 34,
          "name": "A#1",
          "ticks": 35134,
          "time": 140.7610771875,
          "velocity": 0.9606299212598425
        },
        {
          "duration": 0.1923074999999983,
          "durationTicks": 48,
          "midi": 34,
          "name": "A#1",
          "ticks": 35230,
          "time": 141.1456921875,
          "velocity": 0.968503937007874
        },
        {
          "duration": 0.24038437499999077,
          "durationTicks": 60,
          "midi": 34,
          "name": "A#1",
          "ticks": 35326,
          "time": 141.5303071875,
          "velocity": 0.984251968503937
        },
        {
          "duration": 0.21634593749999453,
          "durationTicks": 54,
          "midi": 34,
          "name": "A#1",
          "ticks": 35422,
          "time": 141.9149221875,
          "velocity": 0.984251968503937
        },
        {
          "duration": 0.18429468749999955,
          "durationTicks": 46,
          "midi": 34,
          "name": "A#1",
          "ticks": 35518,
          "time": 142.2995371875,
          "velocity": 0.968503937007874
        },
        {
          "duration": 0.2083331249999958,
          "durationTicks": 52,
          "midi": 36,
          "name": "C2",
          "ticks": 35566,
          "time": 142.4918446875,
          "velocity": 0.9763779527559056
        },
        {
          "duration": 0.30448687500000915,
          "durationTicks": 76,
          "midi": 38,
          "name": "D2",
          "ticks": 35614,
          "time": 142.6841521875,
          "velocity": 0.984251968503937
        },
        {
          "duration": 0.9455118749999656,
          "durationTicks": 236,
          "midi": 39,
          "name": "D#2",
          "ticks": 35710,
          "time": 143.06876718750001,
          "velocity": 0.9606299212598425
        },
        {
          "duration": 0.36057656250000036,
          "durationTicks": 90,
          "midi": 39,
          "name": "D#2",
          "ticks": 35998,
          "time": 144.2226121875,
          "velocity": 0.9448818897637795
        },
        {
          "duration": 0.9054478124999719,
          "durationTicks": 226,
          "midi": 38,
          "name": "D2",
          "ticks": 36094,
          "time": 144.6072271875,
          "velocity": 0.968503937007874
        },
        {
          "duration": 0.3846149999999966,
          "durationTicks": 96,
          "midi": 38,
          "name": "D2",
          "ticks": 36382,
          "time": 145.7610721875,
          "velocity": 0.9763779527559056
        },
        {
          "duration": 0.9855759375000162,
          "durationTicks": 246,
          "midi": 36,
          "name": "C2",
          "ticks": 36478,
          "time": 146.1456871875,
          "velocity": 0.9606299212598425
        },
        {
          "duration": 0.14423062500000583,
          "durationTicks": 36,
          "midi": 36,
          "name": "C2",
          "ticks": 36766,
          "time": 147.2995321875,
          "velocity": 0.937007874015748
        },
        {
          "duration": 0.7692299999999932,
          "durationTicks": 192,
          "midi": 36,
          "name": "C2",
          "ticks": 36862,
          "time": 147.6841471875,
          "velocity": 0.9606299212598425
        },
        {
          "duration": 0.4006406249999941,
          "durationTicks": 100,
          "midi": 31,
          "name": "G1",
          "ticks": 37054,
          "time": 148.4533771875,
          "velocity": 0.9606299212598425
        },
        {
          "duration": 0.4006406249999941,
          "durationTicks": 100,
          "midi": 30,
          "name": "F#1",
          "ticks": 37150,
          "time": 148.8379921875,
          "velocity": 0.9448818897637795
        },
        {
          "duration": 1.1378193749999923,
          "durationTicks": 284,
          "midi": 29,
          "name": "F1",
          "ticks": 37246,
          "time": 149.2226071875,
          "velocity": 0.968503937007874
        },
        {
          "duration": 0.21634593749999453,
          "durationTicks": 54,
          "midi": 41,
          "name": "F2",
          "ticks": 37534,
          "time": 150.3764521875,
          "velocity": 0.9606299212598425
        },
        {
          "duration": 0.2483971874999895,
          "durationTicks": 62,
          "midi": 40,
          "name": "E2",
          "ticks": 37582,
          "time": 150.5687596875,
          "velocity": 0.952755905511811
        },
        {
          "duration": 0.7291659374999995,
          "durationTicks": 182,
          "midi": 39,
          "name": "D#2",
          "ticks": 37630,
          "time": 150.7610671875,
          "velocity": 0.968503937007874
        },
        {
          "duration": 0.8092940624999869,
          "durationTicks": 202,
          "midi": 38,
          "name": "D2",
          "ticks": 37822,
          "time": 151.5302971875,
          "velocity": 0.984251968503937
        },
        {
          "duration": 1.0336528125000086,
          "durationTicks": 258,
          "midi": 34,
          "name": "A#1",
          "ticks": 38014,
          "time": 152.2995271875,
          "velocity": 0.984251968503937
        },
        {
          "duration": 0.1762818749999724,
          "durationTicks": 44,
          "midi": 34,
          "name": "A#1",
          "ticks": 38302,
          "time": 153.4533721875,
          "velocity": 0.937007874015748
        },
        {
          "duration": 0.977563124999989,
          "durationTicks": 244,
          "midi": 34,
          "name": "A#1",
          "ticks": 38398,
          "time": 153.8379871875,
          "velocity": 0.968503937007874
        },
        {
          "duration": 0.20032031249999704,
          "durationTicks": 50,
          "midi": 36,
          "name": "C2",
          "ticks": 38638,
          "time": 154.7995246875,
          "velocity": 0.952755905511811
        },
        {
          "duration": 0.40865343749999283,
          "durationTicks": 102,
          "midi": 38,
          "name": "D2",
          "ticks": 38686,
          "time": 154.9918321875,
          "velocity": 0.9763779527559056
        },
        {
          "duration": 0.649037812500012,
          "durationTicks": 162,
          "midi": 39,
          "name": "D#2",
          "ticks": 38782,
          "time": 155.3764471875,
          "velocity": 0.968503937007874
        },
        {
          "duration": 0.21634593749999453,
          "durationTicks": 54,
          "midi": 39,
          "name": "D#2",
          "ticks": 38974,
          "time": 156.1456771875,
          "velocity": 0.937007874015748
        },
        {
          "duration": 0.39262781249999534,
          "durationTicks": 98,
          "midi": 39,
          "name": "D#2",
          "ticks": 39070,
          "time": 156.5302921875,
          "velocity": 0.9606299212598425
        },
        {
          "duration": 0.7211531250000007,
          "durationTicks": 180,
          "midi": 38,
          "name": "D2",
          "ticks": 39166,
          "time": 156.9149071875,
          "velocity": 0.984251968503937
        },
        {
          "duration": 0.1201921875000096,
          "durationTicks": 30,
          "midi": 38,
          "name": "D2",
          "ticks": 39358,
          "time": 157.6841371875,
          "velocity": 0.952755905511811
        },
        {
          "duration": 0.44871749999998656,
          "durationTicks": 112,
          "midi": 38,
          "name": "D2",
          "ticks": 39454,
          "time": 158.0687521875,
          "velocity": 0.984251968503937
        },
        {
          "duration": 1.0897424999999998,
          "durationTicks": 272,
          "midi": 36,
          "name": "C2",
          "ticks": 39550,
          "time": 158.4533671875,
          "velocity": 0.984251968503937
        },
        {
          "duration": 0.25640999999998826,
          "durationTicks": 64,
          "midi": 31,
          "name": "G1",
          "ticks": 39838,
          "time": 159.6072121875,
          "velocity": 0.952755905511811
        },
        {
          "duration": 0.1762818749999724,
          "durationTicks": 44,
          "midi": 34,
          "name": "A#1",
          "ticks": 39886,
          "time": 159.7995196875,
          "velocity": 0.9606299212598425
        },
        {
          "duration": 0.7772428124999919,
          "durationTicks": 194,
          "midi": 36,
          "name": "C2",
          "ticks": 39934,
          "time": 159.9918271875,
          "velocity": 0.9763779527559056
        },
        {
          "duration": 0.4166662499999916,
          "durationTicks": 104,
          "midi": 31,
          "name": "G1",
          "ticks": 40126,
          "time": 160.7610571875,
          "velocity": 0.9606299212598425
        },
        {
          "duration": 0.36057656250000036,
          "durationTicks": 90,
          "midi": 30,
          "name": "F#1",
          "ticks": 40222,
          "time": 161.1456721875,
          "velocity": 0.9606299212598425
        },
        {
          "duration": 1.1378193749999923,
          "durationTicks": 284,
          "midi": 29,
          "name": "F1",
          "ticks": 40318,
          "time": 161.5302871875,
          "velocity": 0.9763779527559056
        },
        {
          "duration": 0.22435874999999328,
          "durationTicks": 56,
          "midi": 41,
          "name": "F2",
          "ticks": 40606,
          "time": 162.6841321875,
          "velocity": 0.984251968503937
        },
        {
          "duration": 0.2323715624999636,
          "durationTicks": 58,
          "midi": 40,
          "name": "E2",
          "ticks": 40654,
          "time": 162.8764396875,
          "velocity": 0.952755905511811
        },
        {
          "duration": 0.7371787499999698,
          "durationTicks": 184,
          "midi": 39,
          "name": "D#2",
          "ticks": 40702,
          "time": 163.0687471875,
          "velocity": 0.984251968503937
        },
        {
          "duration": 0.7692299999999932,
          "durationTicks": 192,
          "midi": 38,
          "name": "D2",
          "ticks": 40894,
          "time": 163.8379771875,
          "velocity": 0.984251968503937
        },
        {
          "duration": 0.9615375000000199,
          "durationTicks": 240,
          "midi": 37,
          "name": "C#2",
          "ticks": 41086,
          "time": 164.6072071875,
          "velocity": 0.984251968503937
        },
        {
          "duration": 0.9615374999999915,
          "durationTicks": 240,
          "midi": 37,
          "name": "C#2",
          "ticks": 41326,
          "time": 165.56874468750001,
          "velocity": 0.968503937007874
        },
        {
          "duration": 0.32051250000000664,
          "durationTicks": 80,
          "midi": 36,
          "name": "C2",
          "ticks": 41398,
          "time": 165.8572059375,
          "velocity": 0.984251968503937
        },
        {
          "duration": 0.7692299999999932,
          "durationTicks": 192,
          "midi": 35,
          "name": "B1",
          "ticks": 41470,
          "time": 166.1456671875,
          "velocity": 0.984251968503937
        },
        {
          "duration": 0.7371787499999698,
          "durationTicks": 184,
          "midi": 34,
          "name": "A#1",
          "ticks": 41662,
          "time": 166.9148971875,
          "velocity": 0.984251968503937
        },
        {
          "duration": 0.27243562499998575,
          "durationTicks": 68,
          "midi": 33,
          "name": "A1",
          "ticks": 41854,
          "time": 167.6841271875,
          "velocity": 0.984251968503937
        },
        {
          "duration": 0.11217937499998243,
          "durationTicks": 28,
          "midi": 37,
          "name": "C#2",
          "ticks": 43294,
          "time": 173.4533521875,
          "velocity": 0.984251968503937
        },
        {
          "duration": 0.15224343750000457,
          "durationTicks": 38,
          "midi": 37,
          "name": "C#2",
          "ticks": 43342,
          "time": 173.6456596875,
          "velocity": 0.9763779527559056
        },
        {
          "duration": 0.32852531249997696,
          "durationTicks": 82,
          "midi": 38,
          "name": "D2",
          "ticks": 43390,
          "time": 173.8379671875,
          "velocity": 0.984251968503937
        },
        {
          "duration": 0.09615375000001336,
          "durationTicks": 24,
          "midi": 37,
          "name": "C#2",
          "ticks": 43486,
          "time": 174.2225821875,
          "velocity": 0.9763779527559056
        },
        {
          "duration": 0.11217937499998243,
          "durationTicks": 28,
          "midi": 37,
          "name": "C#2",
          "ticks": 43534,
          "time": 174.4148896875,
          "velocity": 0.984251968503937
        },
        {
          "duration": 0.3124996875000079,
          "durationTicks": 78,
          "midi": 38,
          "name": "D2",
          "ticks": 43582,
          "time": 174.6071971875,
          "velocity": 0.984251968503937
        },
        {
          "duration": 0.09615375000001336,
          "durationTicks": 24,
          "midi": 37,
          "name": "C#2",
          "ticks": 43678,
          "time": 174.9918121875,
          "velocity": 0.984251968503937
        },
        {
          "duration": 0.14423062500000583,
          "durationTicks": 36,
          "midi": 37,
          "name": "C#2",
          "ticks": 43726,
          "time": 175.1841196875,
          "velocity": 0.984251968503937
        },
        {
          "duration": 0.12019218749998117,
          "durationTicks": 30,
          "midi": 36,
          "name": "C2",
          "ticks": 43774,
          "time": 175.3764271875,
          "velocity": 0.968503937007874
        },
        {
          "duration": 0.15224343749997615,
          "durationTicks": 38,
          "midi": 36,
          "name": "C2",
          "ticks": 43822,
          "time": 175.5687346875,
          "velocity": 0.9606299212598425
        },
        {
          "duration": 0.1762818749999724,
          "durationTicks": 44,
          "midi": 37,
          "name": "C#2",
          "ticks": 43870,
          "time": 175.7610421875,
          "velocity": 0.984251968503937
        },
        {
          "duration": 0.2483971874999895,
          "durationTicks": 62,
          "midi": 38,
          "name": "D2",
          "ticks": 43966,
          "time": 176.1456571875,
          "velocity": 0.984251968503937
        },
        {
          "duration": 0.18429468749997113,
          "durationTicks": 46,
          "midi": 37,
          "name": "C#2",
          "ticks": 44062,
          "time": 176.5302721875,
          "velocity": 0.984251968503937
        },
        {
          "duration": 0.1201921875000096,
          "durationTicks": 30,
          "midi": 36,
          "name": "C2",
          "ticks": 44158,
          "time": 176.9148871875,
          "velocity": 0.984251968503937
        },
        {
          "duration": 0.1201921875000096,
          "durationTicks": 30,
          "midi": 36,
          "name": "C2",
          "ticks": 44206,
          "time": 177.1071946875,
          "velocity": 0.9448818897637795
        },
        {
          "duration": 0.16025625000000332,
          "durationTicks": 40,
          "midi": 36,
          "name": "C2",
          "ticks": 44254,
          "time": 177.2995021875,
          "velocity": 0.9133858267716536
        },
        {
          "duration": 0.14423062500000583,
          "durationTicks": 36,
          "midi": 31,
          "name": "G1",
          "ticks": 44302,
          "time": 177.4918096875,
          "velocity": 0.984251968503937
        },
        {
          "duration": 0.20032031249999704,
          "durationTicks": 50,
          "midi": 35,
          "name": "B1",
          "ticks": 44350,
          "time": 177.6841171875,
          "velocity": 0.984251968503937
        },
        {
          "duration": 0.1923074999999983,
          "durationTicks": 48,
          "midi": 35,
          "name": "B1",
          "ticks": 44446,
          "time": 178.0687321875,
          "velocity": 0.984251968503937
        },
        {
          "duration": 0.19230750000002672,
          "durationTicks": 48,
          "midi": 34,
          "name": "A#1",
          "ticks": 44542,
          "time": 178.4533471875,
          "velocity": 0.984251968503937
        },
        {
          "duration": 0.12820499999997992,
          "durationTicks": 32,
          "midi": 33,
          "name": "A1",
          "ticks": 44590,
          "time": 178.6456546875,
          "velocity": 0.984251968503937
        },
        {
          "duration": 0.1762818749999724,
          "durationTicks": 44,
          "midi": 32,
          "name": "G#1",
          "ticks": 44638,
          "time": 178.8379621875,
          "velocity": 0.984251968503937
        },
        {
          "duration": 0.1442306249999774,
          "durationTicks": 36,
          "midi": 31,
          "name": "G1",
          "ticks": 44686,
          "time": 179.0302696875,
          "velocity": 0.984251968503937
        },
        {
          "duration": 0.25640999999998826,
          "durationTicks": 64,
          "midi": 30,
          "name": "F#1",
          "ticks": 44734,
          "time": 179.2225771875,
          "velocity": 0.984251968503937
        },
        {
          "duration": 0.23237156249999202,
          "durationTicks": 58,
          "midi": 26,
          "name": "D1",
          "ticks": 44830,
          "time": 179.6071921875,
          "velocity": 0.984251968503937
        },
        {
          "duration": 0.056089687499991214,
          "durationTicks": 14,
          "midi": 28,
          "name": "E1",
          "ticks": 44830,
          "time": 179.6071921875,
          "velocity": 0.984251968503937
        },
        {
          "duration": 0.27243562499998575,
          "durationTicks": 68,
          "midi": 31,
          "name": "G1",
          "ticks": 44926,
          "time": 179.9918071875,
          "velocity": 0.984251968503937
        },
        {
          "duration": 0.25640999999998826,
          "durationTicks": 64,
          "midi": 29,
          "name": "F1",
          "ticks": 47518,
          "time": 190.3764121875,
          "velocity": 0.984251968503937
        },
        {
          "duration": 0.0881409374999862,
          "durationTicks": 22,
          "midi": 29,
          "name": "F1",
          "ticks": 47614,
          "time": 190.7610271875,
          "velocity": 0.984251968503937
        },
        {
          "duration": 0.08012812500001587,
          "durationTicks": 20,
          "midi": 29,
          "name": "F1",
          "ticks": 47662,
          "time": 190.9533346875,
          "velocity": 0.9763779527559056
        },
        {
          "duration": 0.2964740625000104,
          "durationTicks": 74,
          "midi": 29,
          "name": "F1",
          "ticks": 47710,
          "time": 191.1456421875,
          "velocity": 0.984251968503937
        },
        {
          "duration": 0.2804484374999845,
          "durationTicks": 70,
          "midi": 29,
          "name": "F1",
          "ticks": 47806,
          "time": 191.5302571875,
          "velocity": 0.984251968503937
        },
        {
          "duration": 0.0881409374999862,
          "durationTicks": 22,
          "midi": 29,
          "name": "F1",
          "ticks": 47902,
          "time": 191.9148721875,
          "velocity": 0.984251968503937
        },
        {
          "duration": 0.09615374999998494,
          "durationTicks": 24,
          "midi": 29,
          "name": "F1",
          "ticks": 47950,
          "time": 192.1071796875,
          "velocity": 0.968503937007874
        },
        {
          "duration": 0.296474062499982,
          "durationTicks": 74,
          "midi": 29,
          "name": "F1",
          "ticks": 47998,
          "time": 192.2994871875,
          "velocity": 0.984251968503937
        },
        {
          "duration": 0.10416656249998368,
          "durationTicks": 26,
          "midi": 29,
          "name": "F1",
          "ticks": 48094,
          "time": 192.6841021875,
          "velocity": 0.984251968503937
        },
        {
          "duration": 0.12820499999997992,
          "durationTicks": 32,
          "midi": 29,
          "name": "F1",
          "ticks": 48142,
          "time": 192.8764096875,
          "velocity": 0.9606299212598425
        },
        {
          "duration": 0.36057656250000036,
          "durationTicks": 90,
          "midi": 29,
          "name": "F1",
          "ticks": 48190,
          "time": 193.0687171875,
          "velocity": 0.984251968503937
        },
        {
          "duration": 0.28846125000001166,
          "durationTicks": 72,
          "midi": 34,
          "name": "A#1",
          "ticks": 48286,
          "time": 193.4533321875,
          "velocity": 0.984251968503937
        },
        {
          "duration": 0.12820500000000834,
          "durationTicks": 32,
          "midi": 34,
          "name": "A#1",
          "ticks": 48382,
          "time": 193.8379471875,
          "velocity": 0.984251968503937
        },
        {
          "duration": 0.16025625000000332,
          "durationTicks": 40,
          "midi": 34,
          "name": "A#1",
          "ticks": 48430,
          "time": 194.0302546875,
          "velocity": 0.937007874015748
        },
        {
          "duration": 0.25640999999998826,
          "durationTicks": 64,
          "midi": 33,
          "name": "A1",
          "ticks": 48478,
          "time": 194.2225621875,
          "velocity": 0.984251968503937
        },
        {
          "duration": 0.11217937500001085,
          "durationTicks": 28,
          "midi": 33,
          "name": "A1",
          "ticks": 48574,
          "time": 194.60717718749999,
          "velocity": 0.984251968503937
        },
        {
          "duration": 0.15224343749997615,
          "durationTicks": 38,
          "midi": 33,
          "name": "A1",
          "ticks": 48622,
          "time": 194.7994846875,
          "velocity": 0.968503937007874
        },
        {
          "duration": 0.3124996874999795,
          "durationTicks": 78,
          "midi": 31,
          "name": "G1",
          "ticks": 48670,
          "time": 194.9917921875,
          "velocity": 0.984251968503937
        },
        {
          "duration": 0.0881409374999862,
          "durationTicks": 22,
          "midi": 31,
          "name": "G1",
          "ticks": 48766,
          "time": 195.3764071875,
          "velocity": 0.968503937007874
        },
        {
          "duration": 0.20032031249999704,
          "durationTicks": 50,
          "midi": 31,
          "name": "G1",
          "ticks": 48814,
          "time": 195.5687146875,
          "velocity": 0.968503937007874
        },
        {
          "duration": 0.28846124999998324,
          "durationTicks": 72,
          "midi": 36,
          "name": "C2",
          "ticks": 48862,
          "time": 195.7610221875,
          "velocity": 0.984251968503937
        },
        {
          "duration": 0.12019218749998117,
          "durationTicks": 30,
          "midi": 37,
          "name": "C#2",
          "ticks": 49438,
          "time": 198.06871218749998,
          "velocity": 0.9291338582677166
        },
        {
          "duration": 0.16826906250000206,
          "durationTicks": 42,
          "midi": 37,
          "name": "C#2",
          "ticks": 49486,
          "time": 198.26101968749998,
          "velocity": 0.8346456692913385
        },
        {
          "duration": 0.14423062500000583,
          "durationTicks": 36,
          "midi": 36,
          "name": "C2",
          "ticks": 49534,
          "time": 198.45332718749998,
          "velocity": 0.952755905511811
        },
        {
          "duration": 0.09615375000001336,
          "durationTicks": 24,
          "midi": 35,
          "name": "B1",
          "ticks": 49630,
          "time": 198.83794218749998,
          "velocity": 0.9133858267716536
        },
        {
          "duration": 0.16826906250000206,
          "durationTicks": 42,
          "midi": 35,
          "name": "B1",
          "ticks": 49678,
          "time": 199.03024968749997,
          "velocity": 0.8740157480314961
        },
        {
          "duration": 0.1923074999999983,
          "durationTicks": 48,
          "midi": 36,
          "name": "C2",
          "ticks": 49726,
          "time": 199.22255718749997,
          "velocity": 0.9291338582677166
        },
        {
          "duration": 0.07211531250001713,
          "durationTicks": 18,
          "midi": 37,
          "name": "C#2",
          "ticks": 49822,
          "time": 199.60717218749997,
          "velocity": 0.9291338582677166
        },
        {
          "duration": 0.1201921875000096,
          "durationTicks": 30,
          "midi": 37,
          "name": "C#2",
          "ticks": 49870,
          "time": 199.79947968749997,
          "velocity": 0.9291338582677166
        },
        {
          "duration": 0.1201921875000096,
          "durationTicks": 30,
          "midi": 36,
          "name": "C2",
          "ticks": 49918,
          "time": 199.99178718749997,
          "velocity": 0.9212598425196851
        },
        {
          "duration": 0.19230750000002672,
          "durationTicks": 48,
          "midi": 36,
          "name": "C2",
          "ticks": 49966,
          "time": 200.18409468749996,
          "velocity": 0.8976377952755905
        },
        {
          "duration": 0.3365381249999757,
          "durationTicks": 84,
          "midi": 35,
          "name": "B1",
          "ticks": 50014,
          "time": 200.3764021875,
          "velocity": 0.9448818897637795
        },
        {
          "duration": 0.16025625000003174,
          "durationTicks": 40,
          "midi": 36,
          "name": "C2",
          "ticks": 50110,
          "time": 200.7610171875,
          "velocity": 0.984251968503937
        },
        {
          "duration": 0.16826906250000206,
          "durationTicks": 42,
          "midi": 29,
          "name": "F1",
          "ticks": 50206,
          "time": 201.14563218749998,
          "velocity": 0.984251968503937
        },
        {
          "duration": 0.20032031249999704,
          "durationTicks": 50,
          "midi": 36,
          "name": "C2",
          "ticks": 50302,
          "time": 201.53024718749998,
          "velocity": 0.984251968503937
        },
        {
          "duration": 0.5528840624999987,
          "durationTicks": 138,
          "midi": 29,
          "name": "F1",
          "ticks": 50398,
          "time": 201.91486218749998,
          "velocity": 0.984251968503937
        },
        {
          "duration": 0.5128200000000049,
          "durationTicks": 128,
          "midi": 41,
          "name": "F2",
          "ticks": 50398,
          "time": 201.91486218749998,
          "velocity": 0.984251968503937
        },
        {
          "duration": 0.1041665625000121,
          "durationTicks": 26,
          "midi": 29,
          "name": "F1",
          "ticks": 50830,
          "time": 203.6456296875,
          "velocity": 0.984251968503937
        },
        {
          "duration": 0.1041665625000121,
          "durationTicks": 26,
          "midi": 41,
          "name": "F2",
          "ticks": 50830,
          "time": 203.6456296875,
          "velocity": 0.984251968503937
        },
        {
          "duration": 0.1041665625000121,
          "durationTicks": 26,
          "midi": 29,
          "name": "F1",
          "ticks": 50878,
          "time": 203.8379371875,
          "velocity": 0.9763779527559056
        },
        {
          "duration": 0.09615374999998494,
          "durationTicks": 24,
          "midi": 41,
          "name": "F2",
          "ticks": 50878,
          "time": 203.8379371875,
          "velocity": 0.984251968503937
        },
        {
          "duration": 0.5929481250000208,
          "durationTicks": 148,
          "midi": 29,
          "name": "F1",
          "ticks": 50926,
          "time": 204.0302446875,
          "velocity": 0.984251968503937
        },
        {
          "duration": 0.46474312500001247,
          "durationTicks": 116,
          "midi": 41,
          "name": "F2",
          "ticks": 50926,
          "time": 204.0302446875,
          "velocity": 0.984251968503937
        },
        {
          "duration": 0.1923074999999983,
          "durationTicks": 48,
          "midi": 36,
          "name": "C2",
          "ticks": 51070,
          "time": 204.60716718749998,
          "velocity": 0.984251968503937
        },
        {
          "duration": 0.1923074999999983,
          "durationTicks": 48,
          "midi": 29,
          "name": "F1",
          "ticks": 51166,
          "time": 204.99178218749998,
          "velocity": 0.984251968503937
        },
        {
          "duration": 0.24038437499999077,
          "durationTicks": 60,
          "midi": 41,
          "name": "F2",
          "ticks": 51166,
          "time": 204.99178218749998,
          "velocity": 0.984251968503937
        },
        {
          "duration": 0.17628187500002923,
          "durationTicks": 44,
          "midi": 36,
          "name": "C2",
          "ticks": 51262,
          "time": 205.37639718749998,
          "velocity": 0.984251968503937
        },
        {
          "duration": 0.5368584375000296,
          "durationTicks": 134,
          "midi": 29,
          "name": "F1",
          "ticks": 51358,
          "time": 205.76101218749997,
          "velocity": 0.984251968503937
        },
        {
          "duration": 0.5288456250000024,
          "durationTicks": 132,
          "midi": 41,
          "name": "F2",
          "ticks": 51358,
          "time": 205.76101218749997,
          "velocity": 0.984251968503937
        },
        {
          "duration": 0.09615374999998494,
          "durationTicks": 24,
          "midi": 29,
          "name": "F1",
          "ticks": 51790,
          "time": 207.49177968749999,
          "velocity": 0.968503937007874
        },
        {
          "duration": 0.09615374999998494,
          "durationTicks": 24,
          "midi": 41,
          "name": "F2",
          "ticks": 51790,
          "time": 207.49177968749999,
          "velocity": 0.984251968503937
        },
        {
          "duration": 0.09615374999998494,
          "durationTicks": 24,
          "midi": 29,
          "name": "F1",
          "ticks": 51838,
          "time": 207.68408718749998,
          "velocity": 0.9763779527559056
        },
        {
          "duration": 0.09615374999998494,
          "durationTicks": 24,
          "midi": 41,
          "name": "F2",
          "ticks": 51838,
          "time": 207.68408718749998,
          "velocity": 0.984251968503937
        },
        {
          "duration": 0.264422812499987,
          "durationTicks": 66,
          "midi": 29,
          "name": "F1",
          "ticks": 51886,
          "time": 207.87639468749998,
          "velocity": 0.984251968503937
        },
        {
          "duration": 0.28846124999998324,
          "durationTicks": 72,
          "midi": 41,
          "name": "F2",
          "ticks": 51886,
          "time": 207.87639468749998,
          "velocity": 0.984251968503937
        },
        {
          "duration": 0.1041665625000121,
          "durationTicks": 26,
          "midi": 29,
          "name": "F1",
          "ticks": 52174,
          "time": 209.03023968749997,
          "velocity": 0.984251968503937
        },
        {
          "duration": 0.11217937500003927,
          "durationTicks": 28,
          "midi": 41,
          "name": "F2",
          "ticks": 52174,
          "time": 209.03023968749997,
          "velocity": 0.984251968503937
        },
        {
          "duration": 0.1041665625000121,
          "durationTicks": 26,
          "midi": 29,
          "name": "F1",
          "ticks": 52222,
          "time": 209.22254718749997,
          "velocity": 0.984251968503937
        },
        {
          "duration": 0.09615375000001336,
          "durationTicks": 24,
          "midi": 41,
          "name": "F2",
          "ticks": 52222,
          "time": 209.22254718749997,
          "velocity": 0.984251968503937
        },
        {
          "duration": 0.3285253125000338,
          "durationTicks": 82,
          "midi": 29,
          "name": "F1",
          "ticks": 52270,
          "time": 209.41485468749997,
          "velocity": 0.984251968503937
        },
        {
          "duration": 0.3124996875000079,
          "durationTicks": 78,
          "midi": 41,
          "name": "F2",
          "ticks": 52270,
          "time": 209.41485468749997,
          "velocity": 0.984251968503937
        },
        {
          "duration": 0.30448687500000915,
          "durationTicks": 76,
          "midi": 43,
          "name": "G2",
          "ticks": 53230,
          "time": 213.2610046875,
          "velocity": 0.984251968503937
        },
        {
          "duration": 0.3124996874999795,
          "durationTicks": 78,
          "midi": 41,
          "name": "F2",
          "ticks": 53330,
          "time": 213.6616453125,
          "velocity": 0.984251968503937
        },
        {
          "duration": 0.24038437499999077,
          "durationTicks": 60,
          "midi": 38,
          "name": "D2",
          "ticks": 53422,
          "time": 214.03023468749998,
          "velocity": 0.984251968503937
        },
        {
          "duration": 0.28846124999998324,
          "durationTicks": 72,
          "midi": 35,
          "name": "B1",
          "ticks": 53518,
          "time": 214.41484968749998,
          "velocity": 0.984251968503937
        },
        {
          "duration": 0.264422812499987,
          "durationTicks": 66,
          "midi": 32,
          "name": "G#1",
          "ticks": 53614,
          "time": 214.79946468749998,
          "velocity": 0.984251968503937
        },
        {
          "duration": 0.2483971874999611,
          "durationTicks": 62,
          "midi": 31,
          "name": "G1",
          "ticks": 53708,
          "time": 215.176066875,
          "velocity": 0.984251968503937
        },
        {
          "duration": 0.36858937500002753,
          "durationTicks": 92,
          "midi": 36,
          "name": "C2",
          "ticks": 53806,
          "time": 215.56869468749997,
          "velocity": 0.7716535433070866
        },
        {
          "duration": 0.1762818749999724,
          "durationTicks": 44,
          "midi": 24,
          "name": "C1",
          "ticks": 53810,
          "time": 215.5847203125,
          "velocity": 0.984251968503937
        },
        {
          "duration": 0.08814093750001462,
          "durationTicks": 22,
          "midi": 43,
          "name": "G2",
          "ticks": 54286,
          "time": 217.49176968749998,
          "velocity": 0.952755905511811
        },
        {
          "duration": 0.1041665625000121,
          "durationTicks": 26,
          "midi": 43,
          "name": "G2",
          "ticks": 54334,
          "time": 217.68407718749998,
          "velocity": 0.968503937007874
        },
        {
          "duration": 0.1041665625000121,
          "durationTicks": 26,
          "midi": 45,
          "name": "A2",
          "ticks": 54382,
          "time": 217.87638468749998,
          "velocity": 0.952755905511811
        },
        {
          "duration": 0.08814093750004304,
          "durationTicks": 22,
          "midi": 43,
          "name": "G2",
          "ticks": 54430,
          "time": 218.06869218749998,
          "velocity": 0.9606299212598425
        },
        {
          "duration": 0.08814093750004304,
          "durationTicks": 22,
          "midi": 41,
          "name": "F2",
          "ticks": 54478,
          "time": 218.26099968749998,
          "velocity": 0.984251968503937
        },
        {
          "duration": 0.1041665625000121,
          "durationTicks": 26,
          "midi": 40,
          "name": "E2",
          "ticks": 54526,
          "time": 218.45330718749997,
          "velocity": 0.9606299212598425
        },
        {
          "duration": 0.30448687500003757,
          "durationTicks": 76,
          "midi": 38,
          "name": "D2",
          "ticks": 54574,
          "time": 218.64561468749997,
          "velocity": 0.952755905511811
        },
        {
          "duration": 0.47275593750003964,
          "durationTicks": 118,
          "midi": 36,
          "name": "C2",
          "ticks": 54766,
          "time": 219.41484468749996,
          "velocity": 0.968503937007874
        },
        {
          "duration": 0.08814093750004304,
          "durationTicks": 22,
          "midi": 38,
          "name": "D2",
          "ticks": 54766,
          "time": 219.41484468749996,
          "velocity": 0.8661417322834646
        },
        {
          "duration": 0.1762818750000008,
          "durationTicks": 44,
          "midi": 36,
          "name": "C2",
          "ticks": 54910,
          "time": 219.9917671875,
          "velocity": 0.9606299212598425
        },
        {
          "duration": 0.3766021875000263,
          "durationTicks": 94,
          "midi": 33,
          "name": "A1",
          "ticks": 54958,
          "time": 220.1840746875,
          "velocity": 0.952755905511811
        },
        {
          "duration": 0.08814093750001462,
          "durationTicks": 22,
          "midi": 33,
          "name": "A1",
          "ticks": 55054,
          "time": 220.56868968749998,
          "velocity": 0.9448818897637795
        },
        {
          "duration": 0.1041665625000121,
          "durationTicks": 26,
          "midi": 33,
          "name": "A1",
          "ticks": 55102,
          "time": 220.76099718749998,
          "velocity": 0.9291338582677166
        },
        {
          "duration": 0.448717500000015,
          "durationTicks": 112,
          "midi": 35,
          "name": "B1",
          "ticks": 55150,
          "time": 220.95330468749998,
          "velocity": 0.9763779527559056
        },
        {
          "duration": 0.1362178125000355,
          "durationTicks": 34,
          "midi": 35,
          "name": "B1",
          "ticks": 55294,
          "time": 221.53022718749997,
          "velocity": 0.9763779527559056
        },
        {
          "duration": 0.4567303125000137,
          "durationTicks": 114,
          "midi": 40,
          "name": "E2",
          "ticks": 55342,
          "time": 221.72253468749997,
          "velocity": 0.968503937007874
        },
        {
          "duration": 0.17628187500002923,
          "durationTicks": 44,
          "midi": 40,
          "name": "E2",
          "ticks": 55486,
          "time": 222.29945718749997,
          "velocity": 0.968503937007874
        },
        {
          "duration": 1.0176271875000111,
          "durationTicks": 254,
          "midi": 36,
          "name": "C2",
          "ticks": 55534,
          "time": 222.49176468749997,
          "velocity": 0.968503937007874
        },
        {
          "duration": 0.2564100000000167,
          "durationTicks": 64,
          "midi": 36,
          "name": "C2",
          "ticks": 55822,
          "time": 223.64560968749998,
          "velocity": 0.968503937007874
        },
        {
          "duration": 1.2499987500000032,
          "durationTicks": 312,
          "midi": 36,
          "name": "C2",
          "ticks": 55918,
          "time": 224.03022468749998,
          "velocity": 0.9606299212598425
        },
        {
          "duration": 0.1041665625000121,
          "durationTicks": 26,
          "midi": 36,
          "name": "C2",
          "ticks": 56254,
          "time": 225.37637718749997,
          "velocity": 0.9606299212598425
        },
        {
          "duration": 0.1923074999999983,
          "durationTicks": 48,
          "midi": 36,
          "name": "C2",
          "ticks": 56302,
          "time": 225.56868468749997,
          "velocity": 0.968503937007874
        },
        {
          "duration": 0.2556815625000013,
          "durationTicks": 126,
          "midi": 41,
          "name": "F2",
          "ticks": 57214,
          "time": 228.4672415625,
          "velocity": 0.984251968503937
        },
        {
          "duration": 0.23133093749999034,
          "durationTicks": 114,
          "midi": 33,
          "name": "A1",
          "ticks": 57342,
          "time": 228.72698156250001,
          "velocity": 0.9763779527559056
        },
        {
          "duration": 0.24350624999999582,
          "durationTicks": 120,
          "midi": 34,
          "name": "A#1",
          "ticks": 57470,
          "time": 228.9867215625,
          "velocity": 0.9763779527559056
        },
        {
          "duration": 0.26785687500000677,
          "durationTicks": 132,
          "midi": 35,
          "name": "B1",
          "ticks": 57598,
          "time": 229.2464615625,
          "velocity": 0.984251968503937
        },
        {
          "duration": 0.1501621875000012,
          "durationTicks": 74,
          "midi": 36,
          "name": "C2",
          "ticks": 57726,
          "time": 229.5062015625,
          "velocity": 0.9763779527559056
        },
        {
          "duration": 0.11769468750000556,
          "durationTicks": 58,
          "midi": 38,
          "name": "D2",
          "ticks": 57790,
          "time": 229.6360715625,
          "velocity": 0.937007874015748
        },
        {
          "duration": 0.10146093749997931,
          "durationTicks": 50,
          "midi": 40,
          "name": "E2",
          "ticks": 57854,
          "time": 229.76594156250002,
          "velocity": 0.9448818897637795
        },
        {
          "duration": 0.06899343750001208,
          "durationTicks": 34,
          "midi": 41,
          "name": "F2",
          "ticks": 57918,
          "time": 229.8958115625,
          "velocity": 0.968503937007874
        },
        {
          "duration": 0.2840906250000046,
          "durationTicks": 140,
          "midi": 41,
          "name": "F2",
          "ticks": 57982,
          "time": 230.0256815625,
          "velocity": 0.9763779527559056
        },
        {
          "duration": 0.30438281249999477,
          "durationTicks": 150,
          "midi": 33,
          "name": "A1",
          "ticks": 58110,
          "time": 230.2854215625,
          "velocity": 0.9763779527559056
        },
        {
          "duration": 0.1988634374999947,
          "durationTicks": 98,
          "midi": 34,
          "name": "A#1",
          "ticks": 58238,
          "time": 230.5451615625,
          "velocity": 0.952755905511811
        },
        {
          "duration": 0.12175312499999791,
          "durationTicks": 60,
          "midi": 35,
          "name": "B1",
          "ticks": 58366,
          "time": 230.8049015625,
          "velocity": 0.952755905511811
        },
        {
          "duration": 0.10551937500000008,
          "durationTicks": 52,
          "midi": 36,
          "name": "C2",
          "ticks": 58430,
          "time": 230.9347715625,
          "velocity": 0.9291338582677166
        },
        {
          "duration": 0.12581156249999026,
          "durationTicks": 62,
          "midi": 38,
          "name": "D2",
          "ticks": 58494,
          "time": 231.06464156250001,
          "velocity": 0.9291338582677166
        },
        {
          "duration": 0.40990218749999485,
          "durationTicks": 202,
          "midi": 36,
          "name": "C2",
          "ticks": 58558,
          "time": 231.1945115625,
          "velocity": 0.9763779527559056
        },
        {
          "duration": 0.2637984375000144,
          "durationTicks": 130,
          "midi": 41,
          "name": "F2",
          "ticks": 58750,
          "time": 231.5841215625,
          "velocity": 0.984251968503937
        },
        {
          "duration": 0.26785687500000677,
          "durationTicks": 132,
          "midi": 33,
          "name": "A1",
          "ticks": 58878,
          "time": 231.8438615625,
          "velocity": 0.968503937007874
        },
        {
          "duration": 0.2516231249999805,
          "durationTicks": 124,
          "midi": 34,
          "name": "A#1",
          "ticks": 59006,
          "time": 232.10360156250002,
          "velocity": 0.9763779527559056
        },
        {
          "duration": 0.23944781250000347,
          "durationTicks": 118,
          "midi": 35,
          "name": "B1",
          "ticks": 59134,
          "time": 232.3633415625,
          "velocity": 0.984251968503937
        },
        {
          "duration": 0.14204531249998809,
          "durationTicks": 70,
          "midi": 36,
          "name": "C2",
          "ticks": 59262,
          "time": 232.6230815625,
          "velocity": 0.9606299212598425
        },
        {
          "duration": 0.10957781249999243,
          "durationTicks": 54,
          "midi": 38,
          "name": "D2",
          "ticks": 59326,
          "time": 232.75295156250002,
          "velocity": 0.9606299212598425
        },
        {
          "duration": 0.0933440624999946,
          "durationTicks": 46,
          "midi": 40,
          "name": "E2",
          "ticks": 59390,
          "time": 232.8828215625,
          "velocity": 0.9606299212598425
        },
        {
          "duration": 0.07711031249999678,
          "durationTicks": 38,
          "midi": 41,
          "name": "F2",
          "ticks": 59454,
          "time": 233.0126915625,
          "velocity": 0.937007874015748
        },
        {
          "duration": 0.25974000000002206,
          "durationTicks": 128,
          "midi": 43,
          "name": "G2",
          "ticks": 59518,
          "time": 233.1425615625,
          "velocity": 0.984251968503937
        },
        {
          "duration": 0.33279187499999807,
          "durationTicks": 164,
          "midi": 35,
          "name": "B1",
          "ticks": 59646,
          "time": 233.4023015625,
          "velocity": 0.984251968503937
        },
        {
          "duration": 0.19074656250001,
          "durationTicks": 94,
          "midi": 36,
          "name": "C2",
          "ticks": 59774,
          "time": 233.6620415625,
          "velocity": 0.952755905511811
        },
        {
          "duration": 0.11769468750000556,
          "durationTicks": 58,
          "midi": 37,
          "name": "C#2",
          "ticks": 59902,
          "time": 233.9217815625,
          "velocity": 0.937007874015748
        },
        {
          "duration": 0.10146093749997931,
          "durationTicks": 50,
          "midi": 38,
          "name": "D2",
          "ticks": 59966,
          "time": 234.0516515625,
          "velocity": 0.9606299212598425
        },
        {
          "duration": 0.13392843750000338,
          "durationTicks": 66,
          "midi": 40,
          "name": "E2",
          "ticks": 60030,
          "time": 234.1815215625,
          "velocity": 0.9606299212598425
        },
        {
          "duration": 0.3652593749999937,
          "durationTicks": 180,
          "midi": 38,
          "name": "D2",
          "ticks": 60094,
          "time": 234.3113915625,
          "velocity": 0.984251968503937
        },
        {
          "duration": 0.16639593749999904,
          "durationTicks": 82,
          "midi": 36,
          "name": "C2",
          "ticks": 60286,
          "time": 234.7010015625,
          "velocity": 0.984251968503937
        },
        {
          "duration": 0.06899343750001208,
          "durationTicks": 34,
          "midi": 36,
          "name": "C2",
          "ticks": 60414,
          "time": 234.9607415625,
          "velocity": 0.937007874015748
        },
        {
          "duration": 0.20292187499998704,
          "durationTicks": 100,
          "midi": 36,
          "name": "C2",
          "ticks": 60478,
          "time": 235.09061156250002,
          "velocity": 0.9448818897637795
        },
        {
          "duration": 0.04870124999999348,
          "durationTicks": 24,
          "midi": 36,
          "name": "C2",
          "ticks": 60606,
          "time": 235.3503515625,
          "velocity": 0.8188976377952756
        },
        {
          "duration": 0.19480500000000234,
          "durationTicks": 96,
          "midi": 36,
          "name": "C2",
          "ticks": 60670,
          "time": 235.4802215625,
          "velocity": 0.8976377952755905
        },
        {
          "duration": 0.04870124999999348,
          "durationTicks": 24,
          "midi": 36,
          "name": "C2",
          "ticks": 60798,
          "time": 235.7399615625,
          "velocity": 0.937007874015748
        },
        {
          "duration": 0.2069803125000078,
          "durationTicks": 102,
          "midi": 36,
          "name": "C2",
          "ticks": 60862,
          "time": 235.8698315625,
          "velocity": 0.9606299212598425
        },
        {
          "duration": 0.05681812499997818,
          "durationTicks": 28,
          "midi": 36,
          "name": "C2",
          "ticks": 60990,
          "time": 236.12957156250002,
          "velocity": 0.8661417322834646
        },
        {
          "duration": 0.18262968749999686,
          "durationTicks": 90,
          "midi": 36,
          "name": "C2",
          "ticks": 61054,
          "time": 236.2594415625,
          "velocity": 0.9133858267716536
        },
        {
          "duration": 0.06899343750001208,
          "durationTicks": 34,
          "midi": 36,
          "name": "C2",
          "ticks": 61182,
          "time": 236.5191815625,
          "velocity": 0.9448818897637795
        },
        {
          "duration": 0.14204531249998809,
          "durationTicks": 70,
          "midi": 36,
          "name": "C2",
          "ticks": 61246,
          "time": 236.6490515625,
          "velocity": 0.952755905511811
        },
        {
          "duration": 0.12175312499999791,
          "durationTicks": 60,
          "midi": 36,
          "name": "C2",
          "ticks": 61374,
          "time": 236.9087915625,
          "velocity": 0.9133858267716536
        },
        {
          "duration": 0.3368503124999904,
          "durationTicks": 166,
          "midi": 29,
          "name": "F1",
          "ticks": 61438,
          "time": 237.0386615625,
          "velocity": 0.984251968503937
        },
        {
          "duration": 0.3652593749999937,
          "durationTicks": 180,
          "midi": 29,
          "name": "F1",
          "ticks": 61630,
          "time": 237.42827156250002,
          "velocity": 0.984251968503937
        },
        {
          "duration": 0.16233750000000668,
          "durationTicks": 80,
          "midi": 36,
          "name": "C2",
          "ticks": 61822,
          "time": 237.8178815625,
          "velocity": 0.968503937007874
        },
        {
          "duration": 0.07305187500000443,
          "durationTicks": 36,
          "midi": 36,
          "name": "C2",
          "ticks": 61950,
          "time": 238.0776215625,
          "velocity": 0.8740157480314961
        },
        {
          "duration": 0.12987000000001103,
          "durationTicks": 64,
          "midi": 36,
          "name": "C2",
          "ticks": 62014,
          "time": 238.2074915625,
          "velocity": 0.8818897637795275
        },
        {
          "duration": 0.0852271875000099,
          "durationTicks": 42,
          "midi": 36,
          "name": "C2",
          "ticks": 62142,
          "time": 238.4672315625,
          "velocity": 0.952755905511811
        },
        {
          "duration": 0.18668812500001764,
          "durationTicks": 92,
          "midi": 36,
          "name": "C2",
          "ticks": 62206,
          "time": 238.5971015625,
          "velocity": 0.905511811023622
        },
        {
          "duration": 0.06899343750001208,
          "durationTicks": 34,
          "midi": 36,
          "name": "C2",
          "ticks": 62334,
          "time": 238.8568415625,
          "velocity": 0.8976377952755905
        },
        {
          "duration": 0.1866881249999892,
          "durationTicks": 92,
          "midi": 36,
          "name": "C2",
          "ticks": 62398,
          "time": 238.9867115625,
          "velocity": 0.937007874015748
        },
        {
          "duration": 0.1420453125000165,
          "durationTicks": 70,
          "midi": 36,
          "name": "C2",
          "ticks": 62526,
          "time": 239.2464515625,
          "velocity": 0.8661417322834646
        },
        {
          "duration": 0.09740249999998696,
          "durationTicks": 48,
          "midi": 31,
          "name": "G1",
          "ticks": 62590,
          "time": 239.3763215625,
          "velocity": 0.9448818897637795
        },
        {
          "duration": 0.09740250000001538,
          "durationTicks": 48,
          "midi": 34,
          "name": "A#1",
          "ticks": 62654,
          "time": 239.5061915625,
          "velocity": 0.9448818897637795
        },
        {
          "duration": 0.0649349999999913,
          "durationTicks": 32,
          "midi": 36,
          "name": "C2",
          "ticks": 62718,
          "time": 239.6360615625,
          "velocity": 0.8976377952755905
        },
        {
          "duration": 0.12581156249999026,
          "durationTicks": 62,
          "midi": 36,
          "name": "C2",
          "ticks": 62782,
          "time": 239.76593156250001,
          "velocity": 0.9763779527559056
        },
        {
          "duration": 0.0852271875000099,
          "durationTicks": 42,
          "midi": 34,
          "name": "A#1",
          "ticks": 62846,
          "time": 239.8958015625,
          "velocity": 0.968503937007874
        },
        {
          "duration": 0.6696421874999885,
          "durationTicks": 330,
          "midi": 39,
          "name": "D#2",
          "ticks": 62910,
          "time": 240.0256715625,
          "velocity": 0.984251968503937
        },
        {
          "duration": 0.08928562500000226,
          "durationTicks": 44,
          "midi": 34,
          "name": "A#1",
          "ticks": 63230,
          "time": 240.6750215625,
          "velocity": 0.968503937007874
        },
        {
          "duration": 0.08928562499997383,
          "durationTicks": 44,
          "midi": 35,
          "name": "B1",
          "ticks": 63294,
          "time": 240.80489156250002,
          "velocity": 0.952755905511811
        },
        {
          "duration": 0.19074656250001,
          "durationTicks": 94,
          "midi": 36,
          "name": "C2",
          "ticks": 63358,
          "time": 240.9347615625,
          "velocity": 0.9448818897637795
        },
        {
          "duration": 0.04464281250000113,
          "durationTicks": 22,
          "midi": 36,
          "name": "C2",
          "ticks": 63486,
          "time": 241.1945015625,
          "velocity": 0.9133858267716536
        },
        {
          "duration": 0.1866881249999892,
          "durationTicks": 92,
          "midi": 36,
          "name": "C2",
          "ticks": 63550,
          "time": 241.3243715625,
          "velocity": 0.937007874015748
        },
        {
          "duration": 0.08116875000001755,
          "durationTicks": 40,
          "midi": 36,
          "name": "C2",
          "ticks": 63678,
          "time": 241.5841115625,
          "velocity": 0.8740157480314961
        },
        {
          "duration": 0.18262968749999686,
          "durationTicks": 90,
          "midi": 36,
          "name": "C2",
          "ticks": 63742,
          "time": 241.7139815625,
          "velocity": 0.889763779527559
        },
        {
          "duration": 0.07305187500000443,
          "durationTicks": 36,
          "midi": 36,
          "name": "C2",
          "ticks": 63870,
          "time": 241.9737215625,
          "velocity": 0.905511811023622
        },
        {
          "duration": 0.10146093749997931,
          "durationTicks": 50,
          "midi": 36,
          "name": "C2",
          "ticks": 63934,
          "time": 242.10359156250001,
          "velocity": 0.8976377952755905
        },
        {
          "duration": 0.07305187500000443,
          "durationTicks": 36,
          "midi": 34,
          "name": "A#1",
          "ticks": 63998,
          "time": 242.2334615625,
          "velocity": 0.937007874015748
        },
        {
          "duration": 0.0568181250000066,
          "durationTicks": 28,
          "midi": 35,
          "name": "B1",
          "ticks": 64062,
          "time": 242.3633315625,
          "velocity": 0.8818897637795275
        },
        {
          "duration": 0.1866881249999892,
          "durationTicks": 92,
          "midi": 36,
          "name": "C2",
          "ticks": 64126,
          "time": 242.49320156250002,
          "velocity": 0.968503937007874
        },
        {
          "duration": 0.07711031249999678,
          "durationTicks": 38,
          "midi": 36,
          "name": "C2",
          "ticks": 64254,
          "time": 242.7529415625,
          "velocity": 0.8818897637795275
        },
        {
          "duration": 0.18668812500001764,
          "durationTicks": 92,
          "midi": 36,
          "name": "C2",
          "ticks": 64318,
          "time": 242.8828115625,
          "velocity": 0.9133858267716536
        },
        {
          "duration": 0.11363624999998478,
          "durationTicks": 56,
          "midi": 36,
          "name": "C2",
          "ticks": 64446,
          "time": 243.14255156250002,
          "velocity": 0.9606299212598425
        },
        {
          "duration": 0.1988634374999947,
          "durationTicks": 98,
          "midi": 29,
          "name": "F1",
          "ticks": 64510,
          "time": 243.2724215625,
          "velocity": 0.968503937007874
        },
        {
          "duration": 0.09740250000001538,
          "durationTicks": 48,
          "midi": 29,
          "name": "F1",
          "ticks": 64638,
          "time": 243.5321615625,
          "velocity": 0.937007874015748
        },
        {
          "duration": 0.1785712500000045,
          "durationTicks": 88,
          "midi": 29,
          "name": "F1",
          "ticks": 64702,
          "time": 243.6620315625,
          "velocity": 0.968503937007874
        },
        {
          "duration": 0.09334406250002303,
          "durationTicks": 46,
          "midi": 29,
          "name": "F1",
          "ticks": 64830,
          "time": 243.9217715625,
          "velocity": 0.8818897637795275
        },
        {
          "duration": 0.1501621875000012,
          "durationTicks": 74,
          "midi": 34,
          "name": "A#1",
          "ticks": 64894,
          "time": 244.0516415625,
          "velocity": 0.9606299212598425
        },
        {
          "duration": 0.10146093750000773,
          "durationTicks": 50,
          "midi": 34,
          "name": "A#1",
          "ticks": 65022,
          "time": 244.3113815625,
          "velocity": 0.9291338582677166
        },
        {
          "duration": 0.16639593749999904,
          "durationTicks": 82,
          "midi": 34,
          "name": "A#1",
          "ticks": 65086,
          "time": 244.4412515625,
          "velocity": 0.952755905511811
        },
        {
          "duration": 0.10146093750000773,
          "durationTicks": 50,
          "midi": 34,
          "name": "A#1",
          "ticks": 65214,
          "time": 244.7009915625,
          "velocity": 0.952755905511811
        },
        {
          "duration": 0.12581156250001868,
          "durationTicks": 62,
          "midi": 34,
          "name": "A#1",
          "ticks": 65278,
          "time": 244.8308615625,
          "velocity": 0.952755905511811
        },
        {
          "duration": 0.08522718749998148,
          "durationTicks": 42,
          "midi": 34,
          "name": "A#1",
          "ticks": 65406,
          "time": 245.0906015625,
          "velocity": 0.952755905511811
        },
        {
          "duration": 0.09334406250002303,
          "durationTicks": 46,
          "midi": 34,
          "name": "A#1",
          "ticks": 65470,
          "time": 245.2204715625,
          "velocity": 0.9763779527559056
        },
        {
          "duration": 0.08928562500000226,
          "durationTicks": 44,
          "midi": 34,
          "name": "A#1",
          "ticks": 65534,
          "time": 245.3503415625,
          "velocity": 0.9606299212598425
        },
        {
          "duration": 0.12581156249999026,
          "durationTicks": 62,
          "midi": 33,
          "name": "A1",
          "ticks": 65598,
          "time": 245.48021156250002,
          "velocity": 0.9448818897637795
        },
        {
          "duration": 0.2069803125000078,
          "durationTicks": 102,
          "midi": 31,
          "name": "G1",
          "ticks": 65662,
          "time": 245.6100815625,
          "velocity": 0.968503937007874
        },
        {
          "duration": 0.06493500000001973,
          "durationTicks": 32,
          "midi": 31,
          "name": "G1",
          "ticks": 65790,
          "time": 245.8698215625,
          "velocity": 0.952755905511811
        },
        {
          "duration": 0.1785712500000045,
          "durationTicks": 88,
          "midi": 31,
          "name": "G1",
          "ticks": 65854,
          "time": 245.9996915625,
          "velocity": 0.937007874015748
        },
        {
          "duration": 0.0852271875000099,
          "durationTicks": 42,
          "midi": 31,
          "name": "G1",
          "ticks": 65982,
          "time": 246.2594315625,
          "velocity": 0.9212598425196851
        },
        {
          "duration": 0.1704543749999914,
          "durationTicks": 84,
          "midi": 31,
          "name": "G1",
          "ticks": 66046,
          "time": 246.3893015625,
          "velocity": 0.937007874015748
        },
        {
          "duration": 0.0852271875000099,
          "durationTicks": 42,
          "midi": 31,
          "name": "G1",
          "ticks": 66174,
          "time": 246.6490415625,
          "velocity": 0.9133858267716536
        },
        {
          "duration": 0.10146093749997931,
          "durationTicks": 50,
          "midi": 31,
          "name": "G1",
          "ticks": 66238,
          "time": 246.7789115625,
          "velocity": 0.905511811023622
        },
        {
          "duration": 0.10146093750000773,
          "durationTicks": 50,
          "midi": 34,
          "name": "A#1",
          "ticks": 66302,
          "time": 246.9087815625,
          "velocity": 0.905511811023622
        },
        {
          "duration": 0.10551937500000008,
          "durationTicks": 52,
          "midi": 35,
          "name": "B1",
          "ticks": 66366,
          "time": 247.0386515625,
          "velocity": 0.8818897637795275
        },
        {
          "duration": 0.2069803124999794,
          "durationTicks": 102,
          "midi": 36,
          "name": "C2",
          "ticks": 66430,
          "time": 247.16852156250002,
          "velocity": 0.937007874015748
        },
        {
          "duration": 0.05681812499997818,
          "durationTicks": 28,
          "midi": 36,
          "name": "C2",
          "ticks": 66558,
          "time": 247.4282615625,
          "velocity": 0.9448818897637795
        },
        {
          "duration": 0.18262968749999686,
          "durationTicks": 90,
          "midi": 36,
          "name": "C2",
          "ticks": 66622,
          "time": 247.5581315625,
          "velocity": 0.889763779527559
        },
        {
          "duration": 0.07305187499997601,
          "durationTicks": 36,
          "midi": 36,
          "name": "C2",
          "ticks": 66750,
          "time": 247.81787156250002,
          "velocity": 0.8976377952755905
        },
        {
          "duration": 0.1704543749999914,
          "durationTicks": 84,
          "midi": 36,
          "name": "C2",
          "ticks": 66814,
          "time": 247.9477415625,
          "velocity": 0.9291338582677166
        },
        {
          "duration": 0.0568181250000066,
          "durationTicks": 28,
          "midi": 36,
          "name": "C2",
          "ticks": 66942,
          "time": 248.2074815625,
          "velocity": 0.8188976377952756
        },
        {
          "duration": 0.21103875000000016,
          "durationTicks": 104,
          "midi": 36,
          "name": "C2",
          "ticks": 67006,
          "time": 248.3373515625,
          "velocity": 0.8818897637795275
        },
        {
          "duration": 0.12987000000001103,
          "durationTicks": 64,
          "midi": 36,
          "name": "C2",
          "ticks": 67134,
          "time": 248.5970915625,
          "velocity": 0.952755905511811
        },
        {
          "duration": 0.15422062499999356,
          "durationTicks": 76,
          "midi": 31,
          "name": "G1",
          "ticks": 67198,
          "time": 248.7269615625,
          "velocity": 0.968503937007874
        },
        {
          "duration": 0.06899343750001208,
          "durationTicks": 34,
          "midi": 31,
          "name": "G1",
          "ticks": 67326,
          "time": 248.9867015625,
          "velocity": 0.7244094488188977
        },
        {
          "duration": 0.1582790624999859,
          "durationTicks": 78,
          "midi": 31,
          "name": "G1",
          "ticks": 67390,
          "time": 249.1165715625,
          "velocity": 0.9606299212598425
        },
        {
          "duration": 0.08116874999998913,
          "durationTicks": 40,
          "midi": 31,
          "name": "G1",
          "ticks": 67518,
          "time": 249.3763115625,
          "velocity": 0.905511811023622
        },
        {
          "duration": 0.1582790624999859,
          "durationTicks": 78,
          "midi": 31,
          "name": "G1",
          "ticks": 67582,
          "time": 249.50618156250002,
          "velocity": 0.9291338582677166
        },
        {
          "duration": 0.07305187500000443,
          "durationTicks": 36,
          "midi": 31,
          "name": "G1",
          "ticks": 67710,
          "time": 249.7659215625,
          "velocity": 0.8976377952755905
        },
        {
          "duration": 0.10551937500000008,
          "durationTicks": 52,
          "midi": 31,
          "name": "G1",
          "ticks": 67774,
          "time": 249.8957915625,
          "velocity": 0.9448818897637795
        },
        {
          "duration": 0.09740249999998696,
          "durationTicks": 48,
          "midi": 34,
          "name": "A#1",
          "ticks": 67838,
          "time": 250.0256615625,
          "velocity": 0.937007874015748
        },
        {
          "duration": 0.09740249999998696,
          "durationTicks": 48,
          "midi": 35,
          "name": "B1",
          "ticks": 67902,
          "time": 250.15553156250002,
          "velocity": 0.8346456692913385
        },
        {
          "duration": 0.17451281250001216,
          "durationTicks": 86,
          "midi": 36,
          "name": "C2",
          "ticks": 67966,
          "time": 250.2854015625,
          "velocity": 0.9448818897637795
        },
        {
          "duration": 0.06899343749998366,
          "durationTicks": 34,
          "midi": 36,
          "name": "C2",
          "ticks": 68094,
          "time": 250.54514156250002,
          "velocity": 0.8818897637795275
        },
        {
          "duration": 0.16639593749999904,
          "durationTicks": 82,
          "midi": 36,
          "name": "C2",
          "ticks": 68158,
          "time": 250.6750115625,
          "velocity": 0.9291338582677166
        },
        {
          "duration": 0.06899343750001208,
          "durationTicks": 34,
          "midi": 36,
          "name": "C2",
          "ticks": 68286,
          "time": 250.9347515625,
          "velocity": 0.905511811023622
        },
        {
          "duration": 0.16233750000000668,
          "durationTicks": 80,
          "midi": 36,
          "name": "C2",
          "ticks": 68350,
          "time": 251.0646215625,
          "velocity": 0.9133858267716536
        },
        {
          "duration": 0.09740250000001538,
          "durationTicks": 48,
          "midi": 36,
          "name": "C2",
          "ticks": 68478,
          "time": 251.3243615625,
          "velocity": 0.8976377952755905
        },
        {
          "duration": 0.13392843750000338,
          "durationTicks": 66,
          "midi": 36,
          "name": "C2",
          "ticks": 68542,
          "time": 251.4542315625,
          "velocity": 0.9291338582677166
        },
        {
          "duration": 0.11363624999998478,
          "durationTicks": 56,
          "midi": 36,
          "name": "C2",
          "ticks": 68670,
          "time": 251.7139715625,
          "velocity": 0.889763779527559
        },
        {
          "duration": 0.7792199999999809,
          "durationTicks": 384,
          "midi": 31,
          "name": "G1",
          "ticks": 68734,
          "time": 251.84384156250002,
          "velocity": 0.984251968503937
        },
        {
          "duration": 0.7792200000000093,
          "durationTicks": 384,
          "midi": 36,
          "name": "C2",
          "ticks": 69118,
          "time": 252.6230615625,
          "velocity": 0.968503937007874
        },
        {
          "duration": 0.7792199999999809,
          "durationTicks": 384,
          "midi": 31,
          "name": "G1",
          "ticks": 69502,
          "time": 253.4022815625,
          "velocity": 0.984251968503937
        },
        {
          "duration": 0.5194800000000157,
          "durationTicks": 256,
          "midi": 36,
          "name": "C2",
          "ticks": 69886,
          "time": 254.1815015625,
          "velocity": 0.952755905511811
        },
        {
          "duration": 0.1136362500000132,
          "durationTicks": 56,
          "midi": 31,
          "name": "G1",
          "ticks": 70174,
          "time": 254.7659165625,
          "velocity": 0.9291338582677166
        },
        {
          "duration": 0.25162312500000894,
          "durationTicks": 124,
          "midi": 41,
          "name": "F2",
          "ticks": 70270,
          "time": 254.9607215625,
          "velocity": 0.9763779527559056
        },
        {
          "duration": 0.25568156249997287,
          "durationTicks": 126,
          "midi": 33,
          "name": "A1",
          "ticks": 70398,
          "time": 255.22046156250002,
          "velocity": 0.9763779527559056
        },
        {
          "duration": 0.2353893749999827,
          "durationTicks": 116,
          "midi": 34,
          "name": "A#1",
          "ticks": 70526,
          "time": 255.4802015625,
          "velocity": 0.968503937007874
        },
        {
          "duration": 0.23944781250000347,
          "durationTicks": 118,
          "midi": 35,
          "name": "B1",
          "ticks": 70654,
          "time": 255.7399415625,
          "velocity": 0.984251968503937
        },
        {
          "duration": 0.1420453125000165,
          "durationTicks": 70,
          "midi": 36,
          "name": "C2",
          "ticks": 70782,
          "time": 255.9996815625,
          "velocity": 0.9606299212598425
        },
        {
          "duration": 0.12175312499999791,
          "durationTicks": 60,
          "midi": 38,
          "name": "D2",
          "ticks": 70846,
          "time": 256.1295515625,
          "velocity": 0.937007874015748
        },
        {
          "duration": 0.15422062499999356,
          "durationTicks": 76,
          "midi": 40,
          "name": "E2",
          "ticks": 70910,
          "time": 256.2594215625,
          "velocity": 0.9448818897637795
        },
        {
          "duration": 0.07711031249999678,
          "durationTicks": 38,
          "midi": 41,
          "name": "F2",
          "ticks": 70974,
          "time": 256.38929156250003,
          "velocity": 0.968503937007874
        },
        {
          "duration": 0.28003218750001224,
          "durationTicks": 138,
          "midi": 41,
          "name": "F2",
          "ticks": 71038,
          "time": 256.5191615625,
          "velocity": 0.984251968503937
        },
        {
          "duration": 0.28814906249999694,
          "durationTicks": 142,
          "midi": 33,
          "name": "A1",
          "ticks": 71166,
          "time": 256.7789015625,
          "velocity": 0.984251968503937
        },
        {
          "duration": 0.2272725000000264,
          "durationTicks": 112,
          "midi": 34,
          "name": "A#1",
          "ticks": 71310,
          "time": 257.0711090625,
          "velocity": 0.968503937007874
        },
        {
          "duration": 0.14204531249998809,
          "durationTicks": 70,
          "midi": 35,
          "name": "B1",
          "ticks": 71422,
          "time": 257.2983815625,
          "velocity": 0.968503937007874
        },
        {
          "duration": 0.10957781249999243,
          "durationTicks": 54,
          "midi": 36,
          "name": "C2",
          "ticks": 71486,
          "time": 257.4282515625,
          "velocity": 0.937007874015748
        },
        {
          "duration": 0.1623375000000351,
          "durationTicks": 80,
          "midi": 38,
          "name": "D2",
          "ticks": 71550,
          "time": 257.5581215625,
          "velocity": 0.9763779527559056
        },
        {
          "duration": 0.36525937500005057,
          "durationTicks": 180,
          "midi": 36,
          "name": "C2",
          "ticks": 71614,
          "time": 257.6879915625,
          "velocity": 0.9763779527559056
        },
        {
          "duration": 0.2759737500000483,
          "durationTicks": 136,
          "midi": 41,
          "name": "F2",
          "ticks": 71806,
          "time": 258.0776015625,
          "velocity": 0.984251968503937
        },
        {
          "duration": 0.28814906249999694,
          "durationTicks": 142,
          "midi": 33,
          "name": "A1",
          "ticks": 71934,
          "time": 258.3373415625,
          "velocity": 0.984251968503937
        },
        {
          "duration": 0.23538937499995427,
          "durationTicks": 116,
          "midi": 34,
          "name": "A#1",
          "ticks": 72062,
          "time": 258.5970815625,
          "velocity": 0.9448818897637795
        },
        {
          "duration": 0.25162312500003736,
          "durationTicks": 124,
          "midi": 35,
          "name": "B1",
          "ticks": 72190,
          "time": 258.8568215625,
          "velocity": 0.984251968503937
        },
        {
          "duration": 0.14204531249998809,
          "durationTicks": 70,
          "midi": 36,
          "name": "C2",
          "ticks": 72318,
          "time": 259.1165615625,
          "velocity": 0.9763779527559056
        },
        {
          "duration": 0.1136362500000132,
          "durationTicks": 56,
          "midi": 38,
          "name": "D2",
          "ticks": 72382,
          "time": 259.2464315625,
          "velocity": 0.937007874015748
        },
        {
          "duration": 0.11363624999995636,
          "durationTicks": 56,
          "midi": 40,
          "name": "E2",
          "ticks": 72446,
          "time": 259.37630156250003,
          "velocity": 0.8976377952755905
        },
        {
          "duration": 0.06899343750001208,
          "durationTicks": 34,
          "midi": 41,
          "name": "F2",
          "ticks": 72510,
          "time": 259.5061715625,
          "velocity": 0.952755905511811
        },
        {
          "duration": 0.24350624999999582,
          "durationTicks": 120,
          "midi": 43,
          "name": "G2",
          "ticks": 72574,
          "time": 259.6360415625,
          "velocity": 0.984251968503937
        },
        {
          "duration": 0.34496718750000355,
          "durationTicks": 170,
          "midi": 35,
          "name": "B1",
          "ticks": 72702,
          "time": 259.8957815625,
          "velocity": 0.9763779527559056
        },
        {
          "duration": 0.2191556250000417,
          "durationTicks": 108,
          "midi": 36,
          "name": "C2",
          "ticks": 72830,
          "time": 260.1555215625,
          "velocity": 0.968503937007874
        },
        {
          "duration": 0.21915562499998487,
          "durationTicks": 108,
          "midi": 38,
          "name": "D2",
          "ticks": 72958,
          "time": 260.4152615625,
          "velocity": 0.968503937007874
        },
        {
          "duration": 0.1582790624999575,
          "durationTicks": 78,
          "midi": 39,
          "name": "D#2",
          "ticks": 73086,
          "time": 260.67500156250003,
          "velocity": 0.968503937007874
        },
        {
          "duration": 0.12175312499999791,
          "durationTicks": 60,
          "midi": 40,
          "name": "E2",
          "ticks": 73150,
          "time": 260.8048715625,
          "velocity": 0.9448818897637795
        },
        {
          "duration": 0.15016218750002963,
          "durationTicks": 74,
          "midi": 41,
          "name": "F2",
          "ticks": 73214,
          "time": 260.9347415625,
          "velocity": 0.984251968503937
        },
        {
          "duration": 0.11769468750003398,
          "durationTicks": 58,
          "midi": 43,
          "name": "G2",
          "ticks": 73278,
          "time": 261.0646115625,
          "velocity": 0.9448818897637795
        },
        {
          "duration": 0.13392843750000338,
          "durationTicks": 66,
          "midi": 42,
          "name": "F#2",
          "ticks": 73342,
          "time": 261.1944815625,
          "velocity": 0.984251968503937
        },
        {
          "duration": 0.15016218750002963,
          "durationTicks": 74,
          "midi": 44,
          "name": "G#2",
          "ticks": 73406,
          "time": 261.3243515625,
          "velocity": 0.984251968503937
        },
        {
          "duration": 0.11769468750003398,
          "durationTicks": 58,
          "midi": 46,
          "name": "A#2",
          "ticks": 73470,
          "time": 261.4542215625,
          "velocity": 0.984251968503937
        },
        {
          "duration": 0.12175312499999791,
          "durationTicks": 60,
          "midi": 44,
          "name": "G#2",
          "ticks": 73598,
          "time": 261.7139615625,
          "velocity": 0.984251968503937
        },
        {
          "duration": 0.12175312499999791,
          "durationTicks": 60,
          "midi": 46,
          "name": "A#2",
          "ticks": 73662,
          "time": 261.8438315625,
          "velocity": 0.984251968503937
        },
        {
          "duration": 0.15422062499999356,
          "durationTicks": 76,
          "midi": 48,
          "name": "C3",
          "ticks": 73726,
          "time": 261.9737015625,
          "velocity": 0.968503937007874
        },
        {
          "duration": 0.11769468749997714,
          "durationTicks": 58,
          "midi": 46,
          "name": "A#2",
          "ticks": 73918,
          "time": 262.36331156250003,
          "velocity": 0.984251968503937
        },
        {
          "duration": 0.14204531249998809,
          "durationTicks": 70,
          "midi": 48,
          "name": "C3",
          "ticks": 73982,
          "time": 262.4931815625,
          "velocity": 0.952755905511811
        },
        {
          "duration": 0.06899343750001208,
          "durationTicks": 34,
          "midi": 50,
          "name": "D3",
          "ticks": 74046,
          "time": 262.6230515625,
          "velocity": 0.984251968503937
        },
        {
          "duration": 1.5340893750000077,
          "durationTicks": 756,
          "midi": 35,
          "name": "B1",
          "ticks": 74110,
          "time": 262.7529215625,
          "velocity": 0.984251968503937
        },
        {
          "duration": 1.5340893750000077,
          "durationTicks": 756,
          "midi": 32,
          "name": "G#1",
          "ticks": 74878,
          "time": 264.3113615625,
          "velocity": 0.984251968503937
        },
        {
          "duration": 2.9464256249999607,
          "durationTicks": 1452,
          "midi": 34,
          "name": "A#1",
          "ticks": 75646,
          "time": 265.8698015625,
          "velocity": 0.984251968503937
        },
        {
          "duration": 0.9014934374999939,
          "durationTicks": 226,
          "midi": 39,
          "name": "D#2",
          "ticks": 78718,
          "time": 272.1035615625,
          "velocity": 0.984251968503937
        },
        {
          "duration": 0.39262781249999534,
          "durationTicks": 98,
          "midi": 39,
          "name": "D#2",
          "ticks": 79006,
          "time": 273.2534521875,
          "velocity": 0.984251968503937
        },
        {
          "duration": 0.9214734375000262,
          "durationTicks": 230,
          "midi": 38,
          "name": "D2",
          "ticks": 79102,
          "time": 273.6380671875,
          "velocity": 0.984251968503937
        },
        {
          "duration": 0.3846149999999966,
          "durationTicks": 96,
          "midi": 38,
          "name": "D2",
          "ticks": 79390,
          "time": 274.7919121875,
          "velocity": 0.984251968503937
        },
        {
          "duration": 0.9855759375000162,
          "durationTicks": 246,
          "midi": 36,
          "name": "C2",
          "ticks": 79486,
          "time": 275.17652718749997,
          "velocity": 0.984251968503937
        },
        {
          "duration": 0.36057656250000036,
          "durationTicks": 90,
          "midi": 36,
          "name": "C2",
          "ticks": 79774,
          "time": 276.3303721875,
          "velocity": 0.984251968503937
        },
        {
          "duration": 0.7291659374999995,
          "durationTicks": 182,
          "midi": 31,
          "name": "G1",
          "ticks": 79870,
          "time": 276.7149871875,
          "velocity": 0.984251968503937
        },
        {
          "duration": 0.4246790624999903,
          "durationTicks": 106,
          "midi": 36,
          "name": "C2",
          "ticks": 80062,
          "time": 277.4842171875,
          "velocity": 0.984251968503937
        },
        {
          "duration": 0.7532043749999957,
          "durationTicks": 188,
          "midi": 35,
          "name": "B1",
          "ticks": 80254,
          "time": 278.2534471875,
          "velocity": 0.984251968503937
        },
        {
          "duration": 0.7612171874999945,
          "durationTicks": 190,
          "midi": 36,
          "name": "C2",
          "ticks": 80446,
          "time": 279.0226771875,
          "velocity": 0.984251968503937
        },
        {
          "duration": 0.7051275000000032,
          "durationTicks": 176,
          "midi": 34,
          "name": "A#1",
          "ticks": 80638,
          "time": 279.7919071875,
          "velocity": 0.984251968503937
        },
        {
          "duration": 0.7612171874999945,
          "durationTicks": 190,
          "midi": 39,
          "name": "D#2",
          "ticks": 80830,
          "time": 280.5611371875,
          "velocity": 0.984251968503937
        },
        {
          "duration": 0.8493581250000375,
          "durationTicks": 212,
          "midi": 38,
          "name": "D2",
          "ticks": 81022,
          "time": 281.3303671875,
          "velocity": 0.984251968503937
        },
        {
          "duration": 0.40865343749999283,
          "durationTicks": 102,
          "midi": 34,
          "name": "A#1",
          "ticks": 81214,
          "time": 282.0995971875,
          "velocity": 0.984251968503937
        },
        {
          "duration": 0.4006406249999941,
          "durationTicks": 100,
          "midi": 33,
          "name": "A1",
          "ticks": 81310,
          "time": 282.4842121875,
          "velocity": 0.984251968503937
        },
        {
          "duration": 0.4407046874999878,
          "durationTicks": 110,
          "midi": 31,
          "name": "G1",
          "ticks": 81406,
          "time": 282.8688271875,
          "velocity": 0.984251968503937
        },
        {
          "duration": 0.4166662499999916,
          "durationTicks": 104,
          "midi": 38,
          "name": "D2",
          "ticks": 81502,
          "time": 283.2534421875,
          "velocity": 0.9606299212598425
        },
        {
          "duration": 0.3525637500000016,
          "durationTicks": 88,
          "midi": 43,
          "name": "G2",
          "ticks": 81598,
          "time": 283.6380571875,
          "velocity": 0.984251968503937
        },
        {
          "duration": 0.3685893749999991,
          "durationTicks": 92,
          "midi": 31,
          "name": "G1",
          "ticks": 81694,
          "time": 284.0226721875,
          "velocity": 0.984251968503937
        },
        {
          "duration": 1.0897424999999998,
          "durationTicks": 272,
          "midi": 32,
          "name": "G#1",
          "ticks": 81790,
          "time": 284.4072871875,
          "velocity": 0.984251968503937
        },
        {
          "duration": 0.33653812500000413,
          "durationTicks": 84,
          "midi": 32,
          "name": "G#1",
          "ticks": 82078,
          "time": 285.5611321875,
          "velocity": 0.984251968503937
        },
        {
          "duration": 1.3541653125000153,
          "durationTicks": 338,
          "midi": 39,
          "name": "D#2",
          "ticks": 82174,
          "time": 285.9457471875,
          "velocity": 0.984251968503937
        },
        {
          "duration": 0.9935887500000149,
          "durationTicks": 248,
          "midi": 36,
          "name": "C2",
          "ticks": 82558,
          "time": 287.4842071875,
          "velocity": 0.968503937007874
        },
        {
          "duration": 0.36057656250000036,
          "durationTicks": 90,
          "midi": 36,
          "name": "C2",
          "ticks": 82846,
          "time": 288.63805218749997,
          "velocity": 0.937007874015748
        },
        {
          "duration": 1.177883437499986,
          "durationTicks": 294,
          "midi": 31,
          "name": "G1",
          "ticks": 82942,
          "time": 289.0226671875,
          "velocity": 0.968503937007874
        },
        {
          "duration": 0.4006406249999941,
          "durationTicks": 100,
          "midi": 34,
          "name": "A#1",
          "ticks": 83230,
          "time": 290.1765121875,
          "velocity": 0.9448818897637795
        },
        {
          "duration": 1.1057681249999973,
          "durationTicks": 276,
          "midi": 36,
          "name": "C2",
          "ticks": 83326,
          "time": 290.5611271875,
          "velocity": 0.984251968503937
        },
        {
          "duration": 0.33653812500000413,
          "durationTicks": 84,
          "midi": 36,
          "name": "C2",
          "ticks": 83614,
          "time": 291.7149721875,
          "velocity": 0.968503937007874
        },
        {
          "duration": 1.2259603124999785,
          "durationTicks": 306,
          "midi": 31,
          "name": "G1",
          "ticks": 83710,
          "time": 292.0995871875,
          "velocity": 0.984251968503937
        },
        {
          "duration": 0.4006406249999941,
          "durationTicks": 100,
          "midi": 34,
          "name": "A#1",
          "ticks": 83998,
          "time": 293.2534321875,
          "velocity": 0.9212598425196851
        },
        {
          "duration": 1.4823703124999952,
          "durationTicks": 370,
          "midi": 36,
          "name": "C2",
          "ticks": 84094,
          "time": 293.6380471875,
          "velocity": 0.984251968503937
        },
        {
          "duration": 3.1490353124999615,
          "durationTicks": 786,
          "midi": 32,
          "name": "G#1",
          "ticks": 84478,
          "time": 295.1765071875,
          "velocity": 0.968503937007874
        },
        {
          "duration": 3.0769200000000296,
          "durationTicks": 768,
          "midi": 34,
          "name": "A#1",
          "ticks": 85246,
          "time": 298.2534271875,
          "velocity": 0.984251968503937
        },
        {
          "duration": 5.416661249999947,
          "durationTicks": 1352,
          "midi": 39,
          "name": "D#2",
          "ticks": 86014,
          "time": 301.3303471875,
          "velocity": 0.9763779527559056
        },
        {
          "duration": 0.2564100000000167,
          "durationTicks": 64,
          "midi": 46,
          "name": "A#2",
          "ticks": 88606,
          "time": 311.7149521875,
          "velocity": 0.8818897637795275
        },
        {
          "duration": 0.4407046874999878,
          "durationTicks": 110,
          "midi": 46,
          "name": "A#2",
          "ticks": 88702,
          "time": 312.0995671875,
          "velocity": 0.8976377952755905
        },
        {
          "duration": 0.8413453125000387,
          "durationTicks": 210,
          "midi": 44,
          "name": "G#2",
          "ticks": 88798,
          "time": 312.4841821875,
          "velocity": 0.9291338582677166
        },
        {
          "duration": 0.27243562500001417,
          "durationTicks": 68,
          "midi": 43,
          "name": "G2",
          "ticks": 88990,
          "time": 313.2534121875,
          "velocity": 0.937007874015748
        },
        {
          "duration": 0.38461499999993976,
          "durationTicks": 96,
          "midi": 43,
          "name": "G2",
          "ticks": 89086,
          "time": 313.63802718750003,
          "velocity": 0.9448818897637795
        },
        {
          "duration": 0.3124996875000079,
          "durationTicks": 78,
          "midi": 40,
          "name": "E2",
          "ticks": 89182,
          "time": 314.02264218749997,
          "velocity": 0.937007874015748
        },
        {
          "duration": 0.4006406249999941,
          "durationTicks": 100,
          "midi": 36,
          "name": "C2",
          "ticks": 89278,
          "time": 314.4072571875,
          "velocity": 0.9448818897637795
        },
        {
          "duration": 0.4166662499999916,
          "durationTicks": 104,
          "midi": 34,
          "name": "A#1",
          "ticks": 89374,
          "time": 314.7918721875,
          "velocity": 0.9448818897637795
        },
        {
          "duration": 1.4743574999999964,
          "durationTicks": 368,
          "midi": 33,
          "name": "A1",
          "ticks": 89470,
          "time": 315.1764871875,
          "velocity": 0.9448818897637795
        }
      ]
    },
    {
      "channel": 0,
      "controlChanges": {
        "0": [
          {
            "number": 0,
            "ticks": 212,
            "time": 0.8493581250000001,
            "value": 0
          }
        ],
        "32": [
          {
            "number": 32,
            "ticks": 214,
            "time": 0.8573709374999999,
            "value": 0
          }
        ],
        "121": [
          {
            "number": 121,
            "ticks": 164,
            "time": 0.657050625,
            "value": 0
          }
        ]
      },
      "pitchBends": [],
      "instrument": {
        "family": "piano",
        "number": 0,
        "name": "acoustic grand piano"
      },
      "name": "",
      "notes": [],
      "endOfTrackTicks": 92930
    },
    {
      "channel": 2,
      "controlChanges": {
        "7": [
          {
            "number": 7,
            "ticks": 218,
            "time": 0.8733965625,
            "value": 0.968503937007874
          }
        ],
        "10": [
          {
            "number": 10,
            "ticks": 218,
            "time": 0.8733965625,
            "value": 0.7874015748031497
          }
        ],
        "11": [
          {
            "number": 11,
            "ticks": 218,
            "time": 0.8733965625,
            "value": 0.6299212598425197
          }
        ],
        "91": [
          {
            "number": 91,
            "ticks": 220,
            "time": 0.8814093749999999,
            "value": 1
          }
        ],
        "93": [
          {
            "number": 93,
            "ticks": 220,
            "time": 0.8814093749999999,
            "value": 0.15748031496062992
          }
        ],
        "120": [
          {
            "number": 120,
            "ticks": 92928,
            "time": 329.03064,
            "value": 0
          }
        ],
        "123": [
          {
            "number": 123,
            "ticks": 92930,
            "time": 329.0386528125,
            "value": 0
          }
        ]
      },
      "pitchBends": [],
      "instrument": {
        "family": "ensemble",
        "number": 48,
        "name": "string ensemble 1"
      },
      "name": "",
      "notes": [
        {
          "duration": 0.6410249999999991,
          "durationTicks": 160,
          "midi": 65,
          "name": "F4",
          "ticks": 3840,
          "time": 15.384599999999999,
          "velocity": 0.8188976377952756
        },
        {
          "duration": 0.3285253124999983,
          "durationTicks": 82,
          "midi": 65,
          "name": "F4",
          "ticks": 4032,
          "time": 16.15383,
          "velocity": 0.8740157480314961
        },
        {
          "duration": 1.4663446875000012,
          "durationTicks": 366,
          "midi": 65,
          "name": "F4",
          "ticks": 4128,
          "time": 16.538445,
          "velocity": 0.8661417322834646
        },
        {
          "duration": 0.3365381250000006,
          "durationTicks": 84,
          "midi": 65,
          "name": "F4",
          "ticks": 4512,
          "time": 18.076905,
          "velocity": 0.8740157480314961
        },
        {
          "duration": 0.3285253124999983,
          "durationTicks": 82,
          "midi": 65,
          "name": "F4",
          "ticks": 4608,
          "time": 18.46152,
          "velocity": 0.9212598425196851
        },
        {
          "duration": 0.38461500000000015,
          "durationTicks": 96,
          "midi": 65,
          "name": "F4",
          "ticks": 4704,
          "time": 18.846135,
          "velocity": 0.9133858267716536
        },
        {
          "duration": 0.42467906249999743,
          "durationTicks": 106,
          "midi": 66,
          "name": "F#4",
          "ticks": 4800,
          "time": 19.23075,
          "velocity": 0.905511811023622
        },
        {
          "duration": 0.8012812499999988,
          "durationTicks": 200,
          "midi": 68,
          "name": "G#4",
          "ticks": 4896,
          "time": 19.615365,
          "velocity": 0.889763779527559
        },
        {
          "duration": 0.8493581249999984,
          "durationTicks": 212,
          "midi": 61,
          "name": "C#4",
          "ticks": 5088,
          "time": 20.384595,
          "velocity": 0.8110236220472441
        },
        {
          "duration": 2.8765996875000006,
          "durationTicks": 718,
          "midi": 70,
          "name": "A#4",
          "ticks": 5280,
          "time": 21.153824999999998,
          "velocity": 0.7952755905511811
        },
        {
          "duration": 1.1298065625000007,
          "durationTicks": 282,
          "midi": 70,
          "name": "A#4",
          "ticks": 6144,
          "time": 24.61536,
          "velocity": 0.84251968503937
        },
        {
          "duration": 0.7371787500000018,
          "durationTicks": 184,
          "midi": 82,
          "name": "A#5",
          "ticks": 6144,
          "time": 24.61536,
          "velocity": 0.3700787401574803
        },
        {
          "duration": 2.323715625000002,
          "durationTicks": 580,
          "midi": 82,
          "name": "A#5",
          "ticks": 6336,
          "time": 25.38459,
          "velocity": 0.8188976377952756
        },
        {
          "duration": 0.7211531250000007,
          "durationTicks": 180,
          "midi": 70,
          "name": "A#4",
          "ticks": 6432,
          "time": 25.769205,
          "velocity": 0.9212598425196851
        },
        {
          "duration": 1.1538450000000005,
          "durationTicks": 288,
          "midi": 70,
          "name": "A#4",
          "ticks": 6624,
          "time": 26.538435,
          "velocity": 0.905511811023622
        },
        {
          "duration": 0.30448687500000204,
          "durationTicks": 76,
          "midi": 68,
          "name": "G#4",
          "ticks": 6912,
          "time": 27.69228,
          "velocity": 0.8740157480314961
        },
        {
          "duration": 0.31249968749999724,
          "durationTicks": 78,
          "midi": 80,
          "name": "G#5",
          "ticks": 6912,
          "time": 27.69228,
          "velocity": 0.5984251968503937
        },
        {
          "duration": 0.424679062500001,
          "durationTicks": 106,
          "midi": 68,
          "name": "G#4",
          "ticks": 7008,
          "time": 28.076895,
          "velocity": 0.9133858267716536
        },
        {
          "duration": 0.4326918749999997,
          "durationTicks": 108,
          "midi": 80,
          "name": "G#5",
          "ticks": 7008,
          "time": 28.076895,
          "velocity": 0.8661417322834646
        },
        {
          "duration": 0.3846149999999966,
          "durationTicks": 96,
          "midi": 70,
          "name": "A#4",
          "ticks": 7104,
          "time": 28.46151,
          "velocity": 0.9212598425196851
        },
        {
          "duration": 0.44871750000000077,
          "durationTicks": 112,
          "midi": 82,
          "name": "A#5",
          "ticks": 7104,
          "time": 28.46151,
          "velocity": 0.8818897637795275
        },
        {
          "duration": 0.23237156250000268,
          "durationTicks": 58,
          "midi": 68,
          "name": "G#4",
          "ticks": 7200,
          "time": 28.846124999999997,
          "velocity": 0.8740157480314961
        },
        {
          "duration": 0.22435875000000038,
          "durationTicks": 56,
          "midi": 80,
          "name": "G#5",
          "ticks": 7200,
          "time": 28.846124999999997,
          "velocity": 0.8818897637795275
        },
        {
          "duration": 0.1842946875000031,
          "durationTicks": 46,
          "midi": 66,
          "name": "F#4",
          "ticks": 7248,
          "time": 29.0384325,
          "velocity": 0.889763779527559
        },
        {
          "duration": 0.1842946875000031,
          "durationTicks": 46,
          "midi": 78,
          "name": "F#5",
          "ticks": 7248,
          "time": 29.0384325,
          "velocity": 0.8503937007874016
        },
        {
          "duration": 0.32852531250000183,
          "durationTicks": 82,
          "midi": 63,
          "name": "D#4",
          "ticks": 7296,
          "time": 29.230739999999997,
          "velocity": 0.9133858267716536
        },
        {
          "duration": 0.30448687500000204,
          "durationTicks": 76,
          "midi": 75,
          "name": "D#5",
          "ticks": 7296,
          "time": 29.230739999999997,
          "velocity": 0.9291338582677166
        },
        {
          "duration": 0.48878156249999805,
          "durationTicks": 122,
          "midi": 65,
          "name": "F4",
          "ticks": 7488,
          "time": 29.999969999999998,
          "velocity": 0.6535433070866141
        },
        {
          "duration": 0.4326918749999997,
          "durationTicks": 108,
          "midi": 66,
          "name": "F#4",
          "ticks": 7584,
          "time": 30.384584999999998,
          "velocity": 0.8818897637795275
        },
        {
          "duration": 0.30448687500000204,
          "durationTicks": 76,
          "midi": 71,
          "name": "B4",
          "ticks": 7680,
          "time": 30.769199999999998,
          "velocity": 0.905511811023622
        },
        {
          "duration": 0.40865343749999994,
          "durationTicks": 102,
          "midi": 71,
          "name": "B4",
          "ticks": 7776,
          "time": 31.153814999999998,
          "velocity": 0.8976377952755905
        },
        {
          "duration": 0.288461250000001,
          "durationTicks": 72,
          "midi": 70,
          "name": "A#4",
          "ticks": 7872,
          "time": 31.538429999999998,
          "velocity": 0.9133858267716536
        },
        {
          "duration": 0.30448687500000204,
          "durationTicks": 76,
          "midi": 69,
          "name": "A4",
          "ticks": 8064,
          "time": 32.30766,
          "velocity": 0.8740157480314961
        },
        {
          "duration": 0.3846149999999966,
          "durationTicks": 96,
          "midi": 69,
          "name": "A4",
          "ticks": 8160,
          "time": 32.692275,
          "velocity": 0.9291338582677166
        },
        {
          "duration": 0.3525637500000016,
          "durationTicks": 88,
          "midi": 70,
          "name": "A#4",
          "ticks": 8256,
          "time": 33.07689,
          "velocity": 0.9212598425196851
        },
        {
          "duration": 0.3124996875000008,
          "durationTicks": 78,
          "midi": 71,
          "name": "B4",
          "ticks": 8448,
          "time": 33.84612,
          "velocity": 0.8661417322834646
        },
        {
          "duration": 0.3846150000000037,
          "durationTicks": 96,
          "midi": 71,
          "name": "B4",
          "ticks": 8544,
          "time": 34.230734999999996,
          "velocity": 0.9291338582677166
        },
        {
          "duration": 0.4407046874999949,
          "durationTicks": 110,
          "midi": 70,
          "name": "A#4",
          "ticks": 8640,
          "time": 34.61535,
          "velocity": 0.9212598425196851
        },
        {
          "duration": 0.2964740624999962,
          "durationTicks": 74,
          "midi": 69,
          "name": "A4",
          "ticks": 8832,
          "time": 35.38458,
          "velocity": 0.905511811023622
        },
        {
          "duration": 0.22435875000000038,
          "durationTicks": 56,
          "midi": 69,
          "name": "A4",
          "ticks": 8928,
          "time": 35.769194999999996,
          "velocity": 0.905511811023622
        },
        {
          "duration": 0.9615374999999986,
          "durationTicks": 240,
          "midi": 70,
          "name": "A#4",
          "ticks": 9024,
          "time": 36.15381,
          "velocity": 0.889763779527559
        },
        {
          "duration": 0.2804484375000058,
          "durationTicks": 70,
          "midi": 67,
          "name": "G4",
          "ticks": 9312,
          "time": 37.307655,
          "velocity": 0.5984251968503937
        },
        {
          "duration": 0.32051249999999953,
          "durationTicks": 80,
          "midi": 67,
          "name": "G4",
          "ticks": 9408,
          "time": 37.69227,
          "velocity": 0.9212598425196851
        },
        {
          "duration": 0.48076875000000285,
          "durationTicks": 120,
          "midi": 67,
          "name": "G4",
          "ticks": 9504,
          "time": 38.076885,
          "velocity": 0.9291338582677166
        },
        {
          "duration": 0.7612171875000016,
          "durationTicks": 190,
          "midi": 65,
          "name": "F4",
          "ticks": 9600,
          "time": 38.4615,
          "velocity": 0.905511811023622
        },
        {
          "duration": 0.8012812499999953,
          "durationTicks": 200,
          "midi": 70,
          "name": "A#4",
          "ticks": 9792,
          "time": 39.23073,
          "velocity": 0.8818897637795275
        },
        {
          "duration": 0.3285253124999983,
          "durationTicks": 82,
          "midi": 64,
          "name": "E4",
          "ticks": 9984,
          "time": 39.99996,
          "velocity": 0.905511811023622
        },
        {
          "duration": 0.3124996875000008,
          "durationTicks": 78,
          "midi": 64,
          "name": "E4",
          "ticks": 10080,
          "time": 40.384575,
          "velocity": 0.9212598425196851
        },
        {
          "duration": 0.3285253124999983,
          "durationTicks": 82,
          "midi": 64,
          "name": "E4",
          "ticks": 10176,
          "time": 40.76919,
          "velocity": 0.9212598425196851
        },
        {
          "duration": 0.37660218750000496,
          "durationTicks": 94,
          "midi": 65,
          "name": "F4",
          "ticks": 10272,
          "time": 41.153805,
          "velocity": 0.8661417322834646
        },
        {
          "duration": 0.8173068749999999,
          "durationTicks": 204,
          "midi": 65,
          "name": "F4",
          "ticks": 10368,
          "time": 41.538419999999995,
          "velocity": 0.9212598425196851
        },
        {
          "duration": 0.3685893749999991,
          "durationTicks": 92,
          "midi": 60,
          "name": "C4",
          "ticks": 10560,
          "time": 42.307649999999995,
          "velocity": 0.889763779527559
        },
        {
          "duration": 2.1153825000000026,
          "durationTicks": 528,
          "midi": 63,
          "name": "D#4",
          "ticks": 10656,
          "time": 42.692265,
          "velocity": 0.8661417322834646
        },
        {
          "duration": 1.6346137499999998,
          "durationTicks": 408,
          "midi": 65,
          "name": "F4",
          "ticks": 10752,
          "time": 43.076879999999996,
          "velocity": 0.8110236220472441
        },
        {
          "duration": 1.658652187500003,
          "durationTicks": 414,
          "midi": 69,
          "name": "A4",
          "ticks": 10752,
          "time": 43.076879999999996,
          "velocity": 0.8188976377952756
        },
        {
          "duration": 0.7932684375000036,
          "durationTicks": 198,
          "midi": 57,
          "name": "A3",
          "ticks": 11328,
          "time": 45.38457,
          "velocity": 0.7716535433070866
        },
        {
          "duration": 5.705122500000002,
          "durationTicks": 1424,
          "midi": 58,
          "name": "A#3",
          "ticks": 11520,
          "time": 46.1538,
          "velocity": 0.7007874015748031
        },
        {
          "duration": 2.3878181249999955,
          "durationTicks": 596,
          "midi": 75,
          "name": "D#5",
          "ticks": 19200,
          "time": 76.923,
          "velocity": 0.6299212598425197
        },
        {
          "duration": 3.1009584374999974,
          "durationTicks": 774,
          "midi": 82,
          "name": "A#5",
          "ticks": 19200,
          "time": 76.923,
          "velocity": 0.7244094488188977
        },
        {
          "duration": 0.7692300000000074,
          "durationTicks": 192,
          "midi": 74,
          "name": "D5",
          "ticks": 19776,
          "time": 79.23069,
          "velocity": 0.7952755905511811
        },
        {
          "duration": 5.833327499999996,
          "durationTicks": 1456,
          "midi": 72,
          "name": "C5",
          "ticks": 19968,
          "time": 79.99992,
          "velocity": 0.7165354330708661
        },
        {
          "duration": 3.076919999999987,
          "durationTicks": 768,
          "midi": 75,
          "name": "D#5",
          "ticks": 19968,
          "time": 79.99992,
          "velocity": 0.6299212598425197
        },
        {
          "duration": 3.0608943750000037,
          "durationTicks": 764,
          "midi": 79,
          "name": "G5",
          "ticks": 19968,
          "time": 79.99992,
          "velocity": 0.5433070866141733
        },
        {
          "duration": 6.217942499999992,
          "durationTicks": 1552,
          "midi": 84,
          "name": "C6",
          "ticks": 19968,
          "time": 79.99992,
          "velocity": 0.7165354330708661
        },
        {
          "duration": 0.6891018749999915,
          "durationTicks": 172,
          "midi": 77,
          "name": "F5",
          "ticks": 20352,
          "time": 81.53838,
          "velocity": 0.7874015748031497
        },
        {
          "duration": 0.7532043750000099,
          "durationTicks": 188,
          "midi": 82,
          "name": "A#5",
          "ticks": 20544,
          "time": 82.30761,
          "velocity": 0.7480314960629921
        },
        {
          "duration": 0.881409375000004,
          "durationTicks": 220,
          "midi": 77,
          "name": "F5",
          "ticks": 20736,
          "time": 83.07683999999999,
          "velocity": 0.7716535433070866
        },
        {
          "duration": 3.1650609375000016,
          "durationTicks": 790,
          "midi": 80,
          "name": "G#5",
          "ticks": 20736,
          "time": 83.07683999999999,
          "velocity": 0.7559055118110236
        },
        {
          "duration": 0.6971146875000045,
          "durationTicks": 174,
          "midi": 76,
          "name": "E5",
          "ticks": 20928,
          "time": 83.84607,
          "velocity": 0.7559055118110236
        },
        {
          "duration": 0.8333324999999974,
          "durationTicks": 208,
          "midi": 75,
          "name": "D#5",
          "ticks": 21120,
          "time": 84.61529999999999,
          "velocity": 0.7244094488188977
        },
        {
          "duration": 0.7612171874999945,
          "durationTicks": 190,
          "midi": 74,
          "name": "D5",
          "ticks": 21312,
          "time": 85.38453,
          "velocity": 0.7795275590551181
        },
        {
          "duration": 6.113775937500009,
          "durationTicks": 1526,
          "midi": 70,
          "name": "A#4",
          "ticks": 21504,
          "time": 86.15375999999999,
          "velocity": 0.7244094488188977
        },
        {
          "duration": 0.06410250000000417,
          "durationTicks": 16,
          "midi": 74,
          "name": "D5",
          "ticks": 21504,
          "time": 86.15375999999999,
          "velocity": 0.6771653543307087
        },
        {
          "duration": 3.149035312500004,
          "durationTicks": 786,
          "midi": 77,
          "name": "F5",
          "ticks": 21504,
          "time": 86.15375999999999,
          "velocity": 0.5826771653543307
        },
        {
          "duration": 6.185891250000012,
          "durationTicks": 1544,
          "midi": 82,
          "name": "A#5",
          "ticks": 21504,
          "time": 86.15375999999999,
          "velocity": 0.6929133858267716
        },
        {
          "duration": 0.7932684375000036,
          "durationTicks": 198,
          "midi": 80,
          "name": "G#5",
          "ticks": 22080,
          "time": 88.46145,
          "velocity": 0.7086614173228346
        },
        {
          "duration": 0.37660218749999785,
          "durationTicks": 94,
          "midi": 75,
          "name": "D#5",
          "ticks": 22272,
          "time": 89.23067999999999,
          "velocity": 0.7086614173228346
        },
        {
          "duration": 1.4983959375000069,
          "durationTicks": 374,
          "midi": 79,
          "name": "G5",
          "ticks": 22272,
          "time": 89.23067999999999,
          "velocity": 0.7244094488188977
        },
        {
          "duration": 1.0817296874999869,
          "durationTicks": 270,
          "midi": 75,
          "name": "D#5",
          "ticks": 22368,
          "time": 89.615295,
          "velocity": 0.14173228346456693
        },
        {
          "duration": 1.5464728125000136,
          "durationTicks": 386,
          "midi": 74,
          "name": "D5",
          "ticks": 22656,
          "time": 90.76914,
          "velocity": 0.7716535433070866
        },
        {
          "duration": 1.626600937500001,
          "durationTicks": 406,
          "midi": 77,
          "name": "F5",
          "ticks": 22656,
          "time": 90.76914,
          "velocity": 0.5748031496062992
        },
        {
          "duration": 1.594549687500006,
          "durationTicks": 398,
          "midi": 72,
          "name": "C5",
          "ticks": 23040,
          "time": 92.3076,
          "velocity": 0.7165354330708661
        },
        {
          "duration": 3.1410225000000054,
          "durationTicks": 784,
          "midi": 75,
          "name": "D#5",
          "ticks": 23040,
          "time": 92.3076,
          "velocity": 0.6535433070866141
        },
        {
          "duration": 1.658652187499996,
          "durationTicks": 414,
          "midi": 68,
          "name": "G#4",
          "ticks": 23424,
          "time": 93.84606,
          "velocity": 0.5275590551181102
        },
        {
          "duration": 1.2900628124999969,
          "durationTicks": 322,
          "midi": 71,
          "name": "B4",
          "ticks": 23424,
          "time": 93.84606,
          "velocity": 0.7244094488188977
        },
        {
          "duration": 1.4503190625000002,
          "durationTicks": 362,
          "midi": 63,
          "name": "D#4",
          "ticks": 23808,
          "time": 95.38452,
          "velocity": 0.49606299212598426
        },
        {
          "duration": 1.5304471875000019,
          "durationTicks": 382,
          "midi": 70,
          "name": "A#4",
          "ticks": 23808,
          "time": 95.38452,
          "velocity": 0.6062992125984252
        },
        {
          "duration": 0.7932684375000036,
          "durationTicks": 198,
          "midi": 68,
          "name": "G#4",
          "ticks": 24192,
          "time": 96.92298,
          "velocity": 0.5984251968503937
        },
        {
          "duration": 0.8012812500000024,
          "durationTicks": 200,
          "midi": 72,
          "name": "C5",
          "ticks": 24192,
          "time": 96.92298,
          "velocity": 0.47244094488188976
        },
        {
          "duration": 0.745191562499997,
          "durationTicks": 186,
          "midi": 75,
          "name": "D#5",
          "ticks": 24192,
          "time": 96.92298,
          "velocity": 0.14173228346456693
        },
        {
          "duration": 0.7612171874999945,
          "durationTicks": 190,
          "midi": 80,
          "name": "G#5",
          "ticks": 24192,
          "time": 96.92298,
          "velocity": 0.4015748031496063
        },
        {
          "duration": 0.8573709374999936,
          "durationTicks": 214,
          "midi": 67,
          "name": "G4",
          "ticks": 24384,
          "time": 97.69221,
          "velocity": 0.7559055118110236
        },
        {
          "duration": 0.8173068749999999,
          "durationTicks": 204,
          "midi": 70,
          "name": "A#4",
          "ticks": 24384,
          "time": 97.69221,
          "velocity": 0.7086614173228346
        },
        {
          "duration": 0.8012812499999882,
          "durationTicks": 200,
          "midi": 66,
          "name": "F#4",
          "ticks": 24576,
          "time": 98.46144,
          "velocity": 0.49606299212598426
        },
        {
          "duration": 0.5288456250000024,
          "durationTicks": 132,
          "midi": 69,
          "name": "A4",
          "ticks": 24576,
          "time": 98.46144,
          "velocity": 0.49606299212598426
        },
        {
          "duration": 0.7371787500000124,
          "durationTicks": 184,
          "midi": 65,
          "name": "F4",
          "ticks": 24768,
          "time": 99.23066999999999,
          "velocity": 0.7637795275590551
        },
        {
          "duration": 0.5689096875000104,
          "durationTicks": 142,
          "midi": 68,
          "name": "G#4",
          "ticks": 24768,
          "time": 99.23066999999999,
          "velocity": 0.6929133858267716
        },
        {
          "duration": 2.3076899999999796,
          "durationTicks": 576,
          "midi": 70,
          "name": "A#4",
          "ticks": 32640,
          "time": 130.7691,
          "velocity": 0.7637795275590551
        },
        {
          "duration": 2.3237156250000055,
          "durationTicks": 580,
          "midi": 75,
          "name": "D#5",
          "ticks": 32640,
          "time": 130.7691,
          "velocity": 0.6771653543307087
        },
        {
          "duration": 0.8173068750000141,
          "durationTicks": 204,
          "midi": 74,
          "name": "D5",
          "ticks": 33216,
          "time": 133.07679,
          "velocity": 0.7874015748031497
        },
        {
          "duration": 0.8092940625000153,
          "durationTicks": 202,
          "midi": 77,
          "name": "F5",
          "ticks": 33216,
          "time": 133.07679,
          "velocity": 0.8031496062992126
        },
        {
          "duration": 1.562498437500011,
          "durationTicks": 390,
          "midi": 72,
          "name": "C5",
          "ticks": 33408,
          "time": 133.84601999999998,
          "velocity": 0.7716535433070866
        },
        {
          "duration": 1.5705112500000098,
          "durationTicks": 392,
          "midi": 75,
          "name": "D#5",
          "ticks": 33408,
          "time": 133.84601999999998,
          "velocity": 0.7244094488188977
        },
        {
          "duration": 2.3477540625000017,
          "durationTicks": 586,
          "midi": 79,
          "name": "G5",
          "ticks": 33600,
          "time": 134.61525,
          "velocity": 0.7716535433070866
        },
        {
          "duration": 0.04807687499999247,
          "durationTicks": 12,
          "midi": 69,
          "name": "A4",
          "ticks": 33792,
          "time": 135.38448,
          "velocity": 0.7244094488188977
        },
        {
          "duration": 0.6971146875000045,
          "durationTicks": 174,
          "midi": 71,
          "name": "B4",
          "ticks": 33792,
          "time": 135.38448,
          "velocity": 0.6062992125984252
        },
        {
          "duration": 0.713140312500002,
          "durationTicks": 178,
          "midi": 74,
          "name": "D5",
          "ticks": 33792,
          "time": 135.38448,
          "velocity": 0.7480314960629921
        },
        {
          "duration": 0.8493581250000091,
          "durationTicks": 212,
          "midi": 72,
          "name": "C5",
          "ticks": 33984,
          "time": 136.15371,
          "velocity": 0.7795275590551181
        },
        {
          "duration": 0.8173068750000141,
          "durationTicks": 204,
          "midi": 75,
          "name": "D#5",
          "ticks": 33984,
          "time": 136.15371,
          "velocity": 0.7244094488188977
        },
        {
          "duration": 1.5384600000000148,
          "durationTicks": 384,
          "midi": 68,
          "name": "G#4",
          "ticks": 34176,
          "time": 136.92293999999998,
          "velocity": 0.7795275590551181
        },
        {
          "duration": 3.108971249999996,
          "durationTicks": 776,
          "midi": 77,
          "name": "F5",
          "ticks": 34176,
          "time": 136.92293999999998,
          "velocity": 0.7716535433070866
        },
        {
          "duration": 0.8012812499999882,
          "durationTicks": 200,
          "midi": 67,
          "name": "G4",
          "ticks": 34560,
          "time": 138.4614,
          "velocity": 0.8188976377952756
        },
        {
          "duration": 0.7852556250000191,
          "durationTicks": 196,
          "midi": 68,
          "name": "G#4",
          "ticks": 34752,
          "time": 139.23063,
          "velocity": 0.7874015748031497
        },
        {
          "duration": 1.6105753125000035,
          "durationTicks": 402,
          "midi": 70,
          "name": "A#4",
          "ticks": 34944,
          "time": 139.99985999999998,
          "velocity": 0.7480314960629921
        },
        {
          "duration": 1.6185881250000023,
          "durationTicks": 404,
          "midi": 74,
          "name": "D5",
          "ticks": 34944,
          "time": 139.99985999999998,
          "velocity": 0.7559055118110236
        },
        {
          "duration": 0.7612171874999945,
          "durationTicks": 190,
          "midi": 72,
          "name": "C5",
          "ticks": 35328,
          "time": 141.53832,
          "velocity": 0.7874015748031497
        },
        {
          "duration": 0.7852556249999907,
          "durationTicks": 196,
          "midi": 75,
          "name": "D#5",
          "ticks": 35328,
          "time": 141.53832,
          "velocity": 0.7559055118110236
        },
        {
          "duration": 0.7772428124999919,
          "durationTicks": 194,
          "midi": 74,
          "name": "D5",
          "ticks": 35520,
          "time": 142.30755,
          "velocity": 0.7480314960629921
        },
        {
          "duration": 0.8012812499999882,
          "durationTicks": 200,
          "midi": 77,
          "name": "F5",
          "ticks": 35520,
          "time": 142.30755,
          "velocity": 0.7559055118110236
        },
        {
          "duration": 0.7612171875000229,
          "durationTicks": 190,
          "midi": 75,
          "name": "D#5",
          "ticks": 35712,
          "time": 143.07677999999999,
          "velocity": 0.7716535433070866
        },
        {
          "duration": 1.5865368750000073,
          "durationTicks": 396,
          "midi": 79,
          "name": "G5",
          "ticks": 35712,
          "time": 143.07677999999999,
          "velocity": 0.8031496062992126
        },
        {
          "duration": 1.6185881249999738,
          "durationTicks": 404,
          "midi": 70,
          "name": "A#4",
          "ticks": 35904,
          "time": 143.84601,
          "velocity": 0.6850393700787402
        },
        {
          "duration": 0.713140312500002,
          "durationTicks": 178,
          "midi": 75,
          "name": "D#5",
          "ticks": 35904,
          "time": 143.84601,
          "velocity": 0.5826771653543307
        },
        {
          "duration": 0.8493581249999806,
          "durationTicks": 212,
          "midi": 77,
          "name": "F5",
          "ticks": 36096,
          "time": 144.61524,
          "velocity": 0.7007874015748031
        },
        {
          "duration": 0.7612171874999945,
          "durationTicks": 190,
          "midi": 65,
          "name": "F4",
          "ticks": 36288,
          "time": 145.38447,
          "velocity": 0.6456692913385826
        },
        {
          "duration": 0.7371787499999982,
          "durationTicks": 184,
          "midi": 74,
          "name": "D5",
          "ticks": 36288,
          "time": 145.38447,
          "velocity": 0.7007874015748031
        },
        {
          "duration": 0.8173068750000141,
          "durationTicks": 204,
          "midi": 67,
          "name": "G4",
          "ticks": 36480,
          "time": 146.1537,
          "velocity": 0.7007874015748031
        },
        {
          "duration": 0.8092940625000153,
          "durationTicks": 202,
          "midi": 75,
          "name": "D#5",
          "ticks": 36480,
          "time": 146.1537,
          "velocity": 0.6062992125984252
        },
        {
          "duration": 0.8173068749999857,
          "durationTicks": 204,
          "midi": 72,
          "name": "C5",
          "ticks": 36672,
          "time": 146.92293,
          "velocity": 0.6062992125984252
        },
        {
          "duration": 0.7852556249999907,
          "durationTicks": 196,
          "midi": 79,
          "name": "G5",
          "ticks": 36672,
          "time": 146.92293,
          "velocity": 0.7244094488188977
        },
        {
          "duration": 1.522434374999989,
          "durationTicks": 380,
          "midi": 75,
          "name": "D#5",
          "ticks": 36864,
          "time": 147.69216,
          "velocity": 0.6771653543307087
        },
        {
          "duration": 0.7532043749999957,
          "durationTicks": 188,
          "midi": 84,
          "name": "C6",
          "ticks": 36864,
          "time": 147.69216,
          "velocity": 0.6141732283464567
        },
        {
          "duration": 0.7532043749999957,
          "durationTicks": 188,
          "midi": 79,
          "name": "G5",
          "ticks": 37056,
          "time": 148.46139,
          "velocity": 0.6614173228346457
        },
        {
          "duration": 0.8173068750000141,
          "durationTicks": 204,
          "midi": 77,
          "name": "F5",
          "ticks": 37248,
          "time": 149.23062,
          "velocity": 0.7007874015748031
        },
        {
          "duration": 3.108971249999996,
          "durationTicks": 776,
          "midi": 80,
          "name": "G#5",
          "ticks": 37248,
          "time": 149.23062,
          "velocity": 0.6614173228346457
        },
        {
          "duration": 0.7772428124999919,
          "durationTicks": 194,
          "midi": 76,
          "name": "E5",
          "ticks": 37440,
          "time": 149.99984999999998,
          "velocity": 0.7401574803149606
        },
        {
          "duration": 0.8173068749999857,
          "durationTicks": 204,
          "midi": 75,
          "name": "D#5",
          "ticks": 37632,
          "time": 150.76908,
          "velocity": 0.6614173228346457
        },
        {
          "duration": 0.7371787499999982,
          "durationTicks": 184,
          "midi": 74,
          "name": "D5",
          "ticks": 37824,
          "time": 151.53831,
          "velocity": 0.6850393700787402
        },
        {
          "duration": 0.9374990624999953,
          "durationTicks": 234,
          "midi": 70,
          "name": "A#4",
          "ticks": 38016,
          "time": 152.30754,
          "velocity": 0.6614173228346457
        },
        {
          "duration": 2.3717925000000264,
          "durationTicks": 592,
          "midi": 82,
          "name": "A#5",
          "ticks": 38016,
          "time": 152.30754,
          "velocity": 0.6535433070866141
        },
        {
          "duration": 0.6971146875000045,
          "durationTicks": 174,
          "midi": 72,
          "name": "C5",
          "ticks": 38208,
          "time": 153.07676999999998,
          "velocity": 0.7637795275590551
        },
        {
          "duration": 0.16025625000003174,
          "durationTicks": 40,
          "midi": 75,
          "name": "D#5",
          "ticks": 38208,
          "time": 153.07676999999998,
          "velocity": 0.7007874015748031
        },
        {
          "duration": 0.12820500000000834,
          "durationTicks": 32,
          "midi": 76,
          "name": "E5",
          "ticks": 38208,
          "time": 153.07676999999998,
          "velocity": 0.7007874015748031
        },
        {
          "duration": 0.41666625000002,
          "durationTicks": 104,
          "midi": 75,
          "name": "D#5",
          "ticks": 38256,
          "time": 153.26907749999998,
          "velocity": 0.33070866141732286
        },
        {
          "duration": 1.5304471874999876,
          "durationTicks": 382,
          "midi": 74,
          "name": "D5",
          "ticks": 38400,
          "time": 153.846,
          "velocity": 0.7244094488188977
        },
        {
          "duration": 1.522434374999989,
          "durationTicks": 380,
          "midi": 77,
          "name": "F5",
          "ticks": 38400,
          "time": 153.846,
          "velocity": 0.7007874015748031
        },
        {
          "duration": 0.7772428124999919,
          "durationTicks": 194,
          "midi": 80,
          "name": "G#5",
          "ticks": 38592,
          "time": 154.61523,
          "velocity": 0.6456692913385826
        },
        {
          "duration": 1.5384600000000148,
          "durationTicks": 384,
          "midi": 75,
          "name": "D#5",
          "ticks": 38784,
          "time": 155.38446,
          "velocity": 0.6535433070866141
        },
        {
          "duration": 0.8333325000000116,
          "durationTicks": 208,
          "midi": 79,
          "name": "G5",
          "ticks": 38784,
          "time": 155.38446,
          "velocity": 0.6929133858267716
        },
        {
          "duration": 0.7692300000000216,
          "durationTicks": 192,
          "midi": 82,
          "name": "A#5",
          "ticks": 38976,
          "time": 156.15368999999998,
          "velocity": 0.7086614173228346
        },
        {
          "duration": 1.6185881249999738,
          "durationTicks": 404,
          "midi": 74,
          "name": "D5",
          "ticks": 39168,
          "time": 156.92292,
          "velocity": 0.7244094488188977
        },
        {
          "duration": 1.5785240625000085,
          "durationTicks": 394,
          "midi": 77,
          "name": "F5",
          "ticks": 39168,
          "time": 156.92292,
          "velocity": 0.6141732283464567
        },
        {
          "duration": 0.7291659374999995,
          "durationTicks": 182,
          "midi": 82,
          "name": "A#5",
          "ticks": 39360,
          "time": 157.69215,
          "velocity": 0.6141732283464567
        },
        {
          "duration": 1.5464728124999851,
          "durationTicks": 386,
          "midi": 72,
          "name": "C5",
          "ticks": 39552,
          "time": 158.46138,
          "velocity": 0.7007874015748031
        },
        {
          "duration": 1.522434374999989,
          "durationTicks": 380,
          "midi": 75,
          "name": "D#5",
          "ticks": 39552,
          "time": 158.46138,
          "velocity": 0.6771653543307087
        },
        {
          "duration": 0.7692300000000216,
          "durationTicks": 192,
          "midi": 82,
          "name": "A#5",
          "ticks": 39744,
          "time": 159.23060999999998,
          "velocity": 0.6850393700787402
        },
        {
          "duration": 0.7612171874999945,
          "durationTicks": 190,
          "midi": 70,
          "name": "A#4",
          "ticks": 39936,
          "time": 159.99984,
          "velocity": 0.6377952755905512
        },
        {
          "duration": 0.8974349999999731,
          "durationTicks": 224,
          "midi": 74,
          "name": "D5",
          "ticks": 39936,
          "time": 159.99984,
          "velocity": 0.5826771653543307
        },
        {
          "duration": 0.8333324999999832,
          "durationTicks": 208,
          "midi": 77,
          "name": "F5",
          "ticks": 39936,
          "time": 159.99984,
          "velocity": 0.6141732283464567
        },
        {
          "duration": 0.7692299999999932,
          "durationTicks": 192,
          "midi": 72,
          "name": "C5",
          "ticks": 40128,
          "time": 160.76907,
          "velocity": 0.5826771653543307
        },
        {
          "duration": 0.7692299999999932,
          "durationTicks": 192,
          "midi": 75,
          "name": "D#5",
          "ticks": 40128,
          "time": 160.76907,
          "velocity": 0.7086614173228346
        },
        {
          "duration": 0.10416656249998368,
          "durationTicks": 26,
          "midi": 82,
          "name": "A#5",
          "ticks": 40128,
          "time": 160.76907,
          "velocity": 0.5826771653543307
        },
        {
          "duration": 0.9615374999999915,
          "durationTicks": 240,
          "midi": 65,
          "name": "F4",
          "ticks": 40320,
          "time": 161.5383,
          "velocity": 0.6377952755905512
        },
        {
          "duration": 0.7692299999999932,
          "durationTicks": 192,
          "midi": 72,
          "name": "C5",
          "ticks": 40320,
          "time": 161.5383,
          "velocity": 0.6377952755905512
        },
        {
          "duration": 0.9615374999999915,
          "durationTicks": 240,
          "midi": 77,
          "name": "F5",
          "ticks": 40320,
          "time": 161.5383,
          "velocity": 0.6377952755905512
        },
        {
          "duration": 1.0576912500000049,
          "durationTicks": 264,
          "midi": 80,
          "name": "G#5",
          "ticks": 40320,
          "time": 161.5383,
          "velocity": 0.6377952755905512
        },
        {
          "duration": 0.09615375000001336,
          "durationTicks": 24,
          "midi": 53,
          "name": "F3",
          "ticks": 40608,
          "time": 162.69214499999998,
          "velocity": 0.7874015748031497
        },
        {
          "duration": 0.09615375000001336,
          "durationTicks": 24,
          "midi": 65,
          "name": "F4",
          "ticks": 40608,
          "time": 162.69214499999998,
          "velocity": 0.7874015748031497
        },
        {
          "duration": 0.09615375000001336,
          "durationTicks": 24,
          "midi": 77,
          "name": "F5",
          "ticks": 40608,
          "time": 162.69214499999998,
          "velocity": 0.7874015748031497
        },
        {
          "duration": 0.1201921875000096,
          "durationTicks": 30,
          "midi": 89,
          "name": "F6",
          "ticks": 40608,
          "time": 162.69214499999998,
          "velocity": 0.7244094488188977
        },
        {
          "duration": 0.09615375000001336,
          "durationTicks": 24,
          "midi": 52,
          "name": "E3",
          "ticks": 40656,
          "time": 162.88445249999998,
          "velocity": 0.7874015748031497
        },
        {
          "duration": 0.09615375000001336,
          "durationTicks": 24,
          "midi": 64,
          "name": "E4",
          "ticks": 40656,
          "time": 162.88445249999998,
          "velocity": 0.7874015748031497
        },
        {
          "duration": 0.09615375000001336,
          "durationTicks": 24,
          "midi": 79,
          "name": "G5",
          "ticks": 40656,
          "time": 162.88445249999998,
          "velocity": 0.7874015748031497
        },
        {
          "duration": 0.09615375000001336,
          "durationTicks": 24,
          "midi": 91,
          "name": "G6",
          "ticks": 40656,
          "time": 162.88445249999998,
          "velocity": 0.7874015748031497
        },
        {
          "duration": 0.3846149999999966,
          "durationTicks": 96,
          "midi": 51,
          "name": "D#3",
          "ticks": 40704,
          "time": 163.07676,
          "velocity": 0.7874015748031497
        },
        {
          "duration": 0.5048071874999778,
          "durationTicks": 126,
          "midi": 63,
          "name": "D#4",
          "ticks": 40704,
          "time": 163.07676,
          "velocity": 0.7874015748031497
        },
        {
          "duration": 0.4407046874999878,
          "durationTicks": 110,
          "midi": 68,
          "name": "G#4",
          "ticks": 40704,
          "time": 163.07676,
          "velocity": 0.7874015748031497
        },
        {
          "duration": 0.6330121874999861,
          "durationTicks": 158,
          "midi": 75,
          "name": "D#5",
          "ticks": 40704,
          "time": 163.07676,
          "velocity": 0.7874015748031497
        },
        {
          "duration": 0.48076874999998154,
          "durationTicks": 120,
          "midi": 80,
          "name": "G#5",
          "ticks": 40704,
          "time": 163.07676,
          "velocity": 0.7874015748031497
        },
        {
          "duration": 0.6410249999999849,
          "durationTicks": 160,
          "midi": 92,
          "name": "G#6",
          "ticks": 40704,
          "time": 163.07676,
          "velocity": 0.7874015748031497
        },
        {
          "duration": 0.5128199999999765,
          "durationTicks": 128,
          "midi": 50,
          "name": "D3",
          "ticks": 40896,
          "time": 163.84599,
          "velocity": 0.7480314960629921
        },
        {
          "duration": 0.5368584374999728,
          "durationTicks": 134,
          "midi": 62,
          "name": "D4",
          "ticks": 40896,
          "time": 163.84599,
          "velocity": 0.7086614173228346
        },
        {
          "duration": 0.4727559375000112,
          "durationTicks": 118,
          "midi": 77,
          "name": "F5",
          "ticks": 40896,
          "time": 163.84599,
          "velocity": 0.8188976377952756
        },
        {
          "duration": 0.43269187499998907,
          "durationTicks": 108,
          "midi": 89,
          "name": "F6",
          "ticks": 40896,
          "time": 163.84599,
          "velocity": 0.8110236220472441
        },
        {
          "duration": 1.1057681249999973,
          "durationTicks": 276,
          "midi": 49,
          "name": "C#3",
          "ticks": 41088,
          "time": 164.61522,
          "velocity": 0.7637795275590551
        },
        {
          "duration": 1.0737168750000023,
          "durationTicks": 268,
          "midi": 61,
          "name": "C#4",
          "ticks": 41088,
          "time": 164.61522,
          "velocity": 0.8188976377952756
        },
        {
          "duration": 0.8012812499999882,
          "durationTicks": 200,
          "midi": 68,
          "name": "G#4",
          "ticks": 41088,
          "time": 164.61522,
          "velocity": 0.8110236220472441
        },
        {
          "duration": 0.8173068749999857,
          "durationTicks": 204,
          "midi": 80,
          "name": "G#5",
          "ticks": 41088,
          "time": 164.61522,
          "velocity": 0.7716535433070866
        },
        {
          "duration": 0.13621781250000708,
          "durationTicks": 34,
          "midi": 73,
          "name": "C#5",
          "ticks": 41328,
          "time": 165.57675749999999,
          "velocity": 0.7874015748031497
        },
        {
          "duration": 0.13621781250000708,
          "durationTicks": 34,
          "midi": 85,
          "name": "C#6",
          "ticks": 41328,
          "time": 165.57675749999999,
          "velocity": 0.8031496062992126
        },
        {
          "duration": 0.1762818750000008,
          "durationTicks": 44,
          "midi": 48,
          "name": "C3",
          "ticks": 41424,
          "time": 165.96137249999998,
          "velocity": 0.7244094488188977
        },
        {
          "duration": 0.15224343750000457,
          "durationTicks": 38,
          "midi": 60,
          "name": "C4",
          "ticks": 41424,
          "time": 165.96137249999998,
          "velocity": 0.7007874015748031
        },
        {
          "duration": 0.16025625000003174,
          "durationTicks": 40,
          "midi": 73,
          "name": "C#5",
          "ticks": 41424,
          "time": 165.96137249999998,
          "velocity": 0.7874015748031497
        },
        {
          "duration": 0.13621781250000708,
          "durationTicks": 34,
          "midi": 85,
          "name": "C#6",
          "ticks": 41424,
          "time": 165.96137249999998,
          "velocity": 0.7874015748031497
        },
        {
          "duration": 0.448717500000015,
          "durationTicks": 112,
          "midi": 47,
          "name": "B2",
          "ticks": 41472,
          "time": 166.15367999999998,
          "velocity": 0.7480314960629921
        },
        {
          "duration": 0.48076875000000996,
          "durationTicks": 120,
          "midi": 59,
          "name": "B3",
          "ticks": 41472,
          "time": 166.15367999999998,
          "velocity": 0.7874015748031497
        },
        {
          "duration": 0.4326918750000175,
          "durationTicks": 108,
          "midi": 73,
          "name": "C#5",
          "ticks": 41472,
          "time": 166.15367999999998,
          "velocity": 0.8188976377952756
        },
        {
          "duration": 0.3766021875000263,
          "durationTicks": 94,
          "midi": 85,
          "name": "C#6",
          "ticks": 41472,
          "time": 166.15367999999998,
          "velocity": 0.8110236220472441
        },
        {
          "duration": 0.46474312499998405,
          "durationTicks": 116,
          "midi": 46,
          "name": "A#2",
          "ticks": 41664,
          "time": 166.92291,
          "velocity": 0.8031496062992126
        },
        {
          "duration": 0.49679437500000745,
          "durationTicks": 124,
          "midi": 58,
          "name": "A#3",
          "ticks": 41664,
          "time": 166.92291,
          "velocity": 0.8031496062992126
        },
        {
          "duration": 0.46474312499998405,
          "durationTicks": 116,
          "midi": 61,
          "name": "C#4",
          "ticks": 41664,
          "time": 166.92291,
          "velocity": 0.8188976377952756
        },
        {
          "duration": 0.48076874999998154,
          "durationTicks": 120,
          "midi": 73,
          "name": "C#5",
          "ticks": 41664,
          "time": 166.92291,
          "velocity": 0.7874015748031497
        },
        {
          "duration": 0.22435874999999328,
          "durationTicks": 56,
          "midi": 33,
          "name": "A1",
          "ticks": 41856,
          "time": 167.69214,
          "velocity": 0.937007874015748
        },
        {
          "duration": 0.2564100000000167,
          "durationTicks": 64,
          "midi": 45,
          "name": "A2",
          "ticks": 41856,
          "time": 167.69214,
          "velocity": 0.9606299212598425
        },
        {
          "duration": 0.22435874999999328,
          "durationTicks": 56,
          "midi": 57,
          "name": "A3",
          "ticks": 41856,
          "time": 167.69214,
          "velocity": 0.952755905511811
        },
        {
          "duration": 0.12820499999997992,
          "durationTicks": 32,
          "midi": 64,
          "name": "E4",
          "ticks": 43296,
          "time": 173.461365,
          "velocity": 0.937007874015748
        },
        {
          "duration": 0.0881409374999862,
          "durationTicks": 22,
          "midi": 69,
          "name": "A4",
          "ticks": 43296,
          "time": 173.461365,
          "velocity": 0.8976377952755905
        },
        {
          "duration": 0.0881409374999862,
          "durationTicks": 22,
          "midi": 73,
          "name": "C#5",
          "ticks": 43296,
          "time": 173.461365,
          "velocity": 0.8818897637795275
        },
        {
          "duration": 0.08012812499998745,
          "durationTicks": 20,
          "midi": 76,
          "name": "E5",
          "ticks": 43296,
          "time": 173.461365,
          "velocity": 0.905511811023622
        },
        {
          "duration": 0.06410249999998996,
          "durationTicks": 16,
          "midi": 81,
          "name": "A5",
          "ticks": 43296,
          "time": 173.461365,
          "velocity": 0.7559055118110236
        },
        {
          "duration": 0.1762818750000008,
          "durationTicks": 44,
          "midi": 64,
          "name": "E4",
          "ticks": 43344,
          "time": 173.6536725,
          "velocity": 0.937007874015748
        },
        {
          "duration": 0.09615374999998494,
          "durationTicks": 24,
          "midi": 69,
          "name": "A4",
          "ticks": 43344,
          "time": 173.6536725,
          "velocity": 0.905511811023622
        },
        {
          "duration": 0.13621781250000708,
          "durationTicks": 34,
          "midi": 73,
          "name": "C#5",
          "ticks": 43344,
          "time": 173.6536725,
          "velocity": 0.8818897637795275
        },
        {
          "duration": 0.14423062500000583,
          "durationTicks": 36,
          "midi": 76,
          "name": "E5",
          "ticks": 43344,
          "time": 173.6536725,
          "velocity": 0.9212598425196851
        },
        {
          "duration": 0.10416656249998368,
          "durationTicks": 26,
          "midi": 81,
          "name": "A5",
          "ticks": 43344,
          "time": 173.6536725,
          "velocity": 0.8818897637795275
        },
        {
          "duration": 0.296474062499982,
          "durationTicks": 74,
          "midi": 62,
          "name": "D4",
          "ticks": 43392,
          "time": 173.84598,
          "velocity": 0.937007874015748
        },
        {
          "duration": 0.36057656250000036,
          "durationTicks": 90,
          "midi": 66,
          "name": "F#4",
          "ticks": 43392,
          "time": 173.84598,
          "velocity": 0.8661417322834646
        },
        {
          "duration": 0.3685893749999991,
          "durationTicks": 92,
          "midi": 69,
          "name": "A4",
          "ticks": 43392,
          "time": 173.84598,
          "velocity": 0.952755905511811
        },
        {
          "duration": 0.2564100000000167,
          "durationTicks": 64,
          "midi": 74,
          "name": "D5",
          "ticks": 43392,
          "time": 173.84598,
          "velocity": 0.952755905511811
        },
        {
          "duration": 0.34455093749997445,
          "durationTicks": 86,
          "midi": 78,
          "name": "F#5",
          "ticks": 43392,
          "time": 173.84598,
          "velocity": 0.9291338582677166
        },
        {
          "duration": 0.36057656250000036,
          "durationTicks": 90,
          "midi": 81,
          "name": "A5",
          "ticks": 43392,
          "time": 173.84598,
          "velocity": 0.9291338582677166
        },
        {
          "duration": 0.12820499999997992,
          "durationTicks": 32,
          "midi": 61,
          "name": "C#4",
          "ticks": 43488,
          "time": 174.230595,
          "velocity": 0.8503937007874016
        },
        {
          "duration": 0.08012812499998745,
          "durationTicks": 20,
          "midi": 64,
          "name": "E4",
          "ticks": 43488,
          "time": 174.230595,
          "velocity": 0.8818897637795275
        },
        {
          "duration": 0.08012812499998745,
          "durationTicks": 20,
          "midi": 69,
          "name": "A4",
          "ticks": 43488,
          "time": 174.230595,
          "velocity": 0.8976377952755905
        },
        {
          "duration": 0.08012812499998745,
          "durationTicks": 20,
          "midi": 73,
          "name": "C#5",
          "ticks": 43488,
          "time": 174.230595,
          "velocity": 0.905511811023622
        },
        {
          "duration": 0.09615375000001336,
          "durationTicks": 24,
          "midi": 76,
          "name": "E5",
          "ticks": 43488,
          "time": 174.230595,
          "velocity": 0.9133858267716536
        },
        {
          "duration": 0.024038437499996235,
          "durationTicks": 6,
          "midi": 81,
          "name": "A5",
          "ticks": 43488,
          "time": 174.230595,
          "velocity": 0.14173228346456693
        },
        {
          "duration": 0.14423062500000583,
          "durationTicks": 36,
          "midi": 61,
          "name": "C#4",
          "ticks": 43536,
          "time": 174.4229025,
          "velocity": 0.9291338582677166
        },
        {
          "duration": 0.21634593749999453,
          "durationTicks": 54,
          "midi": 64,
          "name": "E4",
          "ticks": 43536,
          "time": 174.4229025,
          "velocity": 0.8503937007874016
        },
        {
          "duration": 0.10416656249998368,
          "durationTicks": 26,
          "midi": 69,
          "name": "A4",
          "ticks": 43536,
          "time": 174.4229025,
          "velocity": 0.9212598425196851
        },
        {
          "duration": 0.12820499999997992,
          "durationTicks": 32,
          "midi": 73,
          "name": "C#5",
          "ticks": 43536,
          "time": 174.4229025,
          "velocity": 0.905511811023622
        },
        {
          "duration": 0.12820499999997992,
          "durationTicks": 32,
          "midi": 76,
          "name": "E5",
          "ticks": 43536,
          "time": 174.4229025,
          "velocity": 0.8503937007874016
        },
        {
          "duration": 0.09615375000001336,
          "durationTicks": 24,
          "midi": 81,
          "name": "A5",
          "ticks": 43536,
          "time": 174.4229025,
          "velocity": 0.8976377952755905
        },
        {
          "duration": 0.3285253125000054,
          "durationTicks": 82,
          "midi": 62,
          "name": "D4",
          "ticks": 43584,
          "time": 174.61521,
          "velocity": 0.968503937007874
        },
        {
          "duration": 0.33653812500000413,
          "durationTicks": 84,
          "midi": 66,
          "name": "F#4",
          "ticks": 43584,
          "time": 174.61521,
          "velocity": 0.937007874015748
        },
        {
          "duration": 0.46474312499998405,
          "durationTicks": 116,
          "midi": 69,
          "name": "A4",
          "ticks": 43584,
          "time": 174.61521,
          "velocity": 0.937007874015748
        },
        {
          "duration": 0.20032031249999704,
          "durationTicks": 50,
          "midi": 74,
          "name": "D5",
          "ticks": 43584,
          "time": 174.61521,
          "velocity": 0.9448818897637795
        },
        {
          "duration": 0.32051250000000664,
          "durationTicks": 80,
          "midi": 78,
          "name": "F#5",
          "ticks": 43584,
          "time": 174.61521,
          "velocity": 0.937007874015748
        },
        {
          "duration": 0.32051250000000664,
          "durationTicks": 80,
          "midi": 81,
          "name": "A5",
          "ticks": 43584,
          "time": 174.61521,
          "velocity": 0.937007874015748
        },
        {
          "duration": 0.09615375000001336,
          "durationTicks": 24,
          "midi": 61,
          "name": "C#4",
          "ticks": 43680,
          "time": 174.999825,
          "velocity": 0.889763779527559
        },
        {
          "duration": 0.1201921875000096,
          "durationTicks": 30,
          "midi": 64,
          "name": "E4",
          "ticks": 43680,
          "time": 174.999825,
          "velocity": 0.9212598425196851
        },
        {
          "duration": 0.1041665625000121,
          "durationTicks": 26,
          "midi": 73,
          "name": "C#5",
          "ticks": 43680,
          "time": 174.999825,
          "velocity": 0.8976377952755905
        },
        {
          "duration": 0.08012812499998745,
          "durationTicks": 20,
          "midi": 76,
          "name": "E5",
          "ticks": 43680,
          "time": 174.999825,
          "velocity": 0.8818897637795275
        },
        {
          "duration": 0.11217937500001085,
          "durationTicks": 28,
          "midi": 61,
          "name": "C#4",
          "ticks": 43728,
          "time": 175.19213249999999,
          "velocity": 0.84251968503937
        },
        {
          "duration": 0.1041665625000121,
          "durationTicks": 26,
          "midi": 64,
          "name": "E4",
          "ticks": 43728,
          "time": 175.19213249999999,
          "velocity": 0.9448818897637795
        },
        {
          "duration": 0.07211531250001713,
          "durationTicks": 18,
          "midi": 69,
          "name": "A4",
          "ticks": 43728,
          "time": 175.19213249999999,
          "velocity": 0.905511811023622
        },
        {
          "duration": 0.1041665625000121,
          "durationTicks": 26,
          "midi": 73,
          "name": "C#5",
          "ticks": 43728,
          "time": 175.19213249999999,
          "velocity": 0.9133858267716536
        },
        {
          "duration": 0.07211531250001713,
          "durationTicks": 18,
          "midi": 76,
          "name": "E5",
          "ticks": 43728,
          "time": 175.19213249999999,
          "velocity": 0.8976377952755905
        },
        {
          "duration": 0.03205124999999498,
          "durationTicks": 8,
          "midi": 81,
          "name": "A5",
          "ticks": 43728,
          "time": 175.19213249999999,
          "velocity": 0.7952755905511811
        },
        {
          "duration": 0.1041665625000121,
          "durationTicks": 26,
          "midi": 60,
          "name": "C4",
          "ticks": 43776,
          "time": 175.38443999999998,
          "velocity": 0.889763779527559
        },
        {
          "duration": 0.09615375000001336,
          "durationTicks": 24,
          "midi": 63,
          "name": "D#4",
          "ticks": 43776,
          "time": 175.38443999999998,
          "velocity": 0.9133858267716536
        },
        {
          "duration": 0.07211531250001713,
          "durationTicks": 18,
          "midi": 69,
          "name": "A4",
          "ticks": 43776,
          "time": 175.38443999999998,
          "velocity": 0.8740157480314961
        },
        {
          "duration": 0.09615375000001336,
          "durationTicks": 24,
          "midi": 72,
          "name": "C5",
          "ticks": 43776,
          "time": 175.38443999999998,
          "velocity": 0.9291338582677166
        },
        {
          "duration": 0.08814093750001462,
          "durationTicks": 22,
          "midi": 75,
          "name": "D#5",
          "ticks": 43776,
          "time": 175.38443999999998,
          "velocity": 0.9291338582677166
        },
        {
          "duration": 0.1201921875000096,
          "durationTicks": 30,
          "midi": 60,
          "name": "C4",
          "ticks": 43824,
          "time": 175.57674749999998,
          "velocity": 0.8818897637795275
        },
        {
          "duration": 0.13621781250000708,
          "durationTicks": 34,
          "midi": 63,
          "name": "D#4",
          "ticks": 43824,
          "time": 175.57674749999998,
          "velocity": 0.905511811023622
        },
        {
          "duration": 0.056089687499991214,
          "durationTicks": 14,
          "midi": 69,
          "name": "A4",
          "ticks": 43824,
          "time": 175.57674749999998,
          "velocity": 0.889763779527559
        },
        {
          "duration": 0.08012812500001587,
          "durationTicks": 20,
          "midi": 72,
          "name": "C5",
          "ticks": 43824,
          "time": 175.57674749999998,
          "velocity": 0.905511811023622
        },
        {
          "duration": 0.09615375000001336,
          "durationTicks": 24,
          "midi": 75,
          "name": "D#5",
          "ticks": 43824,
          "time": 175.57674749999998,
          "velocity": 0.8976377952755905
        },
        {
          "duration": 0.2083331250000242,
          "durationTicks": 52,
          "midi": 61,
          "name": "C#4",
          "ticks": 43872,
          "time": 175.76905499999998,
          "velocity": 0.9133858267716536
        },
        {
          "duration": 0.22435874999999328,
          "durationTicks": 56,
          "midi": 64,
          "name": "E4",
          "ticks": 43872,
          "time": 175.76905499999998,
          "velocity": 0.8818897637795275
        },
        {
          "duration": 0.13621781250000708,
          "durationTicks": 34,
          "midi": 69,
          "name": "A4",
          "ticks": 43872,
          "time": 175.76905499999998,
          "velocity": 0.937007874015748
        },
        {
          "duration": 0.16826906250000206,
          "durationTicks": 42,
          "midi": 73,
          "name": "C#5",
          "ticks": 43872,
          "time": 175.76905499999998,
          "velocity": 0.9133858267716536
        },
        {
          "duration": 0.16025625000003174,
          "durationTicks": 40,
          "midi": 76,
          "name": "E5",
          "ticks": 43872,
          "time": 175.76905499999998,
          "velocity": 0.9291338582677166
        },
        {
          "duration": 0.20032031249996862,
          "durationTicks": 50,
          "midi": 62,
          "name": "D4",
          "ticks": 43968,
          "time": 176.15367,
          "velocity": 0.937007874015748
        },
        {
          "duration": 0.1762818749999724,
          "durationTicks": 44,
          "midi": 66,
          "name": "F#4",
          "ticks": 43968,
          "time": 176.15367,
          "velocity": 0.8740157480314961
        },
        {
          "duration": 0.09615374999998494,
          "durationTicks": 24,
          "midi": 69,
          "name": "A4",
          "ticks": 43968,
          "time": 176.15367,
          "velocity": 0.9448818897637795
        },
        {
          "duration": 0.12820499999997992,
          "durationTicks": 32,
          "midi": 74,
          "name": "D5",
          "ticks": 43968,
          "time": 176.15367,
          "velocity": 0.937007874015748
        },
        {
          "duration": 0.16826906249997364,
          "durationTicks": 42,
          "midi": 78,
          "name": "F#5",
          "ticks": 43968,
          "time": 176.15367,
          "velocity": 0.937007874015748
        },
        {
          "duration": 0.20032031249999704,
          "durationTicks": 50,
          "midi": 61,
          "name": "C#4",
          "ticks": 44064,
          "time": 176.538285,
          "velocity": 0.937007874015748
        },
        {
          "duration": 0.1923074999999983,
          "durationTicks": 48,
          "midi": 64,
          "name": "E4",
          "ticks": 44064,
          "time": 176.538285,
          "velocity": 0.9448818897637795
        },
        {
          "duration": 0.12820499999997992,
          "durationTicks": 32,
          "midi": 69,
          "name": "A4",
          "ticks": 44064,
          "time": 176.538285,
          "velocity": 0.9606299212598425
        },
        {
          "duration": 0.15224343749997615,
          "durationTicks": 38,
          "midi": 73,
          "name": "C#5",
          "ticks": 44064,
          "time": 176.538285,
          "velocity": 0.9291338582677166
        },
        {
          "duration": 0.1762818749999724,
          "durationTicks": 44,
          "midi": 76,
          "name": "E5",
          "ticks": 44064,
          "time": 176.538285,
          "velocity": 0.9606299212598425
        },
        {
          "duration": 0.06410249999998996,
          "durationTicks": 16,
          "midi": 60,
          "name": "C4",
          "ticks": 44160,
          "time": 176.9229,
          "velocity": 0.9448818897637795
        },
        {
          "duration": 0.0721153124999887,
          "durationTicks": 18,
          "midi": 64,
          "name": "E4",
          "ticks": 44160,
          "time": 176.9229,
          "velocity": 0.937007874015748
        },
        {
          "duration": 0.06410249999998996,
          "durationTicks": 16,
          "midi": 67,
          "name": "G4",
          "ticks": 44160,
          "time": 176.9229,
          "velocity": 0.937007874015748
        },
        {
          "duration": 0.06410249999998996,
          "durationTicks": 16,
          "midi": 72,
          "name": "C5",
          "ticks": 44160,
          "time": 176.9229,
          "velocity": 0.9448818897637795
        },
        {
          "duration": 0.0721153124999887,
          "durationTicks": 18,
          "midi": 76,
          "name": "E5",
          "ticks": 44160,
          "time": 176.9229,
          "velocity": 0.9291338582677166
        },
        {
          "duration": 0.09615374999998494,
          "durationTicks": 24,
          "midi": 60,
          "name": "C4",
          "ticks": 44208,
          "time": 177.1152075,
          "velocity": 0.9133858267716536
        },
        {
          "duration": 0.10416656249998368,
          "durationTicks": 26,
          "midi": 64,
          "name": "E4",
          "ticks": 44208,
          "time": 177.1152075,
          "velocity": 0.8503937007874016
        },
        {
          "duration": 0.08012812499998745,
          "durationTicks": 20,
          "midi": 67,
          "name": "G4",
          "ticks": 44208,
          "time": 177.1152075,
          "velocity": 0.9133858267716536
        },
        {
          "duration": 0.0721153124999887,
          "durationTicks": 18,
          "midi": 72,
          "name": "C5",
          "ticks": 44208,
          "time": 177.1152075,
          "velocity": 0.8976377952755905
        },
        {
          "duration": 0.08814093750001462,
          "durationTicks": 22,
          "midi": 76,
          "name": "E5",
          "ticks": 44208,
          "time": 177.1152075,
          "velocity": 0.9133858267716536
        },
        {
          "duration": 0.11217937500001085,
          "durationTicks": 28,
          "midi": 60,
          "name": "C4",
          "ticks": 44256,
          "time": 177.307515,
          "velocity": 0.905511811023622
        },
        {
          "duration": 0.11217937500001085,
          "durationTicks": 28,
          "midi": 64,
          "name": "E4",
          "ticks": 44256,
          "time": 177.307515,
          "velocity": 0.9212598425196851
        },
        {
          "duration": 0.08012812499998745,
          "durationTicks": 20,
          "midi": 67,
          "name": "G4",
          "ticks": 44256,
          "time": 177.307515,
          "velocity": 0.889763779527559
        },
        {
          "duration": 0.0721153124999887,
          "durationTicks": 18,
          "midi": 72,
          "name": "C5",
          "ticks": 44256,
          "time": 177.307515,
          "velocity": 0.9133858267716536
        },
        {
          "duration": 0.08814093750001462,
          "durationTicks": 22,
          "midi": 76,
          "name": "E5",
          "ticks": 44256,
          "time": 177.307515,
          "velocity": 0.889763779527559
        },
        {
          "duration": 0.15224343750000457,
          "durationTicks": 38,
          "midi": 60,
          "name": "C4",
          "ticks": 44304,
          "time": 177.4998225,
          "velocity": 0.905511811023622
        },
        {
          "duration": 0.13621781250000708,
          "durationTicks": 34,
          "midi": 64,
          "name": "E4",
          "ticks": 44304,
          "time": 177.4998225,
          "velocity": 0.9291338582677166
        },
        {
          "duration": 0.10416656249998368,
          "durationTicks": 26,
          "midi": 67,
          "name": "G4",
          "ticks": 44304,
          "time": 177.4998225,
          "velocity": 0.937007874015748
        },
        {
          "duration": 0.12820499999997992,
          "durationTicks": 32,
          "midi": 72,
          "name": "C5",
          "ticks": 44304,
          "time": 177.4998225,
          "velocity": 0.9448818897637795
        },
        {
          "duration": 0.13621781250000708,
          "durationTicks": 34,
          "midi": 76,
          "name": "E5",
          "ticks": 44304,
          "time": 177.4998225,
          "velocity": 0.9212598425196851
        },
        {
          "duration": 0.18429468749999955,
          "durationTicks": 46,
          "midi": 59,
          "name": "B3",
          "ticks": 44352,
          "time": 177.69213,
          "velocity": 0.9291338582677166
        },
        {
          "duration": 0.1762818750000008,
          "durationTicks": 44,
          "midi": 62,
          "name": "D4",
          "ticks": 44352,
          "time": 177.69213,
          "velocity": 0.937007874015748
        },
        {
          "duration": 0.13621781250000708,
          "durationTicks": 34,
          "midi": 67,
          "name": "G4",
          "ticks": 44352,
          "time": 177.69213,
          "velocity": 0.937007874015748
        },
        {
          "duration": 0.14423062500000583,
          "durationTicks": 36,
          "midi": 71,
          "name": "B4",
          "ticks": 44352,
          "time": 177.69213,
          "velocity": 0.952755905511811
        },
        {
          "duration": 0.16826906250000206,
          "durationTicks": 42,
          "midi": 74,
          "name": "D5",
          "ticks": 44352,
          "time": 177.69213,
          "velocity": 0.937007874015748
        },
        {
          "duration": 0.14423062500000583,
          "durationTicks": 36,
          "midi": 59,
          "name": "B3",
          "ticks": 44448,
          "time": 178.076745,
          "velocity": 0.905511811023622
        },
        {
          "duration": 0.12820500000000834,
          "durationTicks": 32,
          "midi": 62,
          "name": "D4",
          "ticks": 44448,
          "time": 178.076745,
          "velocity": 0.937007874015748
        },
        {
          "duration": 0.14423062500000583,
          "durationTicks": 36,
          "midi": 67,
          "name": "G4",
          "ticks": 44448,
          "time": 178.076745,
          "velocity": 0.9212598425196851
        },
        {
          "duration": 0.09615375000001336,
          "durationTicks": 24,
          "midi": 71,
          "name": "B4",
          "ticks": 44448,
          "time": 178.076745,
          "velocity": 0.952755905511811
        },
        {
          "duration": 0.1762818750000008,
          "durationTicks": 44,
          "midi": 74,
          "name": "D5",
          "ticks": 44448,
          "time": 178.076745,
          "velocity": 0.937007874015748
        },
        {
          "duration": 0.12820500000000834,
          "durationTicks": 32,
          "midi": 58,
          "name": "A#3",
          "ticks": 44544,
          "time": 178.46135999999998,
          "velocity": 0.952755905511811
        },
        {
          "duration": 0.1041665625000121,
          "durationTicks": 26,
          "midi": 65,
          "name": "F4",
          "ticks": 44544,
          "time": 178.46135999999998,
          "velocity": 0.8976377952755905
        },
        {
          "duration": 0.08814093750001462,
          "durationTicks": 22,
          "midi": 70,
          "name": "A#4",
          "ticks": 44544,
          "time": 178.46135999999998,
          "velocity": 0.9291338582677166
        },
        {
          "duration": 0.1041665625000121,
          "durationTicks": 26,
          "midi": 74,
          "name": "D5",
          "ticks": 44544,
          "time": 178.46135999999998,
          "velocity": 0.9606299212598425
        },
        {
          "duration": 0.09615375000001336,
          "durationTicks": 24,
          "midi": 77,
          "name": "F5",
          "ticks": 44544,
          "time": 178.46135999999998,
          "velocity": 0.9133858267716536
        },
        {
          "duration": 0.13621781250000708,
          "durationTicks": 34,
          "midi": 58,
          "name": "A#3",
          "ticks": 44592,
          "time": 178.65366749999998,
          "velocity": 0.905511811023622
        },
        {
          "duration": 0.12820500000000834,
          "durationTicks": 32,
          "midi": 65,
          "name": "F4",
          "ticks": 44592,
          "time": 178.65366749999998,
          "velocity": 0.8976377952755905
        },
        {
          "duration": 0.09615375000001336,
          "durationTicks": 24,
          "midi": 70,
          "name": "A#4",
          "ticks": 44592,
          "time": 178.65366749999998,
          "velocity": 0.9448818897637795
        },
        {
          "duration": 0.08012812500001587,
          "durationTicks": 20,
          "midi": 74,
          "name": "D5",
          "ticks": 44592,
          "time": 178.65366749999998,
          "velocity": 0.8188976377952756
        },
        {
          "duration": 0.1201921875000096,
          "durationTicks": 30,
          "midi": 77,
          "name": "F5",
          "ticks": 44592,
          "time": 178.65366749999998,
          "velocity": 0.9212598425196851
        },
        {
          "duration": 0.16025625000003174,
          "durationTicks": 40,
          "midi": 65,
          "name": "F4",
          "ticks": 44640,
          "time": 178.84597499999998,
          "velocity": 0.8267716535433071
        },
        {
          "duration": 0.09615375000001336,
          "durationTicks": 24,
          "midi": 70,
          "name": "A#4",
          "ticks": 44640,
          "time": 178.84597499999998,
          "velocity": 0.8267716535433071
        },
        {
          "duration": 0.08012812500001587,
          "durationTicks": 20,
          "midi": 74,
          "name": "D5",
          "ticks": 44640,
          "time": 178.84597499999998,
          "velocity": 0.8267716535433071
        },
        {
          "duration": 0.1041665625000121,
          "durationTicks": 26,
          "midi": 77,
          "name": "F5",
          "ticks": 44640,
          "time": 178.84597499999998,
          "velocity": 0.8267716535433071
        },
        {
          "duration": 0.14423062500000583,
          "durationTicks": 36,
          "midi": 58,
          "name": "A#3",
          "ticks": 44688,
          "time": 179.03828249999998,
          "velocity": 0.937007874015748
        },
        {
          "duration": 0.1041665625000121,
          "durationTicks": 26,
          "midi": 70,
          "name": "A#4",
          "ticks": 44688,
          "time": 179.03828249999998,
          "velocity": 0.9133858267716536
        },
        {
          "duration": 0.08012812500001587,
          "durationTicks": 20,
          "midi": 74,
          "name": "D5",
          "ticks": 44688,
          "time": 179.03828249999998,
          "velocity": 0.8740157480314961
        },
        {
          "duration": 0.13621781250000708,
          "durationTicks": 34,
          "midi": 77,
          "name": "F5",
          "ticks": 44688,
          "time": 179.03828249999998,
          "velocity": 0.9291338582677166
        },
        {
          "duration": 0.1762818749999724,
          "durationTicks": 44,
          "midi": 50,
          "name": "D3",
          "ticks": 44736,
          "time": 179.23059,
          "velocity": 0.9606299212598425
        },
        {
          "duration": 0.22435874999996486,
          "durationTicks": 56,
          "midi": 62,
          "name": "D4",
          "ticks": 44736,
          "time": 179.23059,
          "velocity": 0.968503937007874
        },
        {
          "duration": 0.20032031249996862,
          "durationTicks": 50,
          "midi": 72,
          "name": "C5",
          "ticks": 44736,
          "time": 179.23059,
          "velocity": 0.9212598425196851
        },
        {
          "duration": 0.16025625000000332,
          "durationTicks": 40,
          "midi": 74,
          "name": "D5",
          "ticks": 44736,
          "time": 179.23059,
          "velocity": 0.9212598425196851
        },
        {
          "duration": 0.18429468749999955,
          "durationTicks": 46,
          "midi": 78,
          "name": "F#5",
          "ticks": 44736,
          "time": 179.23059,
          "velocity": 0.9291338582677166
        },
        {
          "duration": 0.1923074999999983,
          "durationTicks": 48,
          "midi": 50,
          "name": "D3",
          "ticks": 44832,
          "time": 179.615205,
          "velocity": 0.9606299212598425
        },
        {
          "duration": 0.1442306249999774,
          "durationTicks": 36,
          "midi": 62,
          "name": "D4",
          "ticks": 44832,
          "time": 179.615205,
          "velocity": 0.9448818897637795
        },
        {
          "duration": 0.16025625000000332,
          "durationTicks": 40,
          "midi": 72,
          "name": "C5",
          "ticks": 44832,
          "time": 179.615205,
          "velocity": 0.952755905511811
        },
        {
          "duration": 0.16826906250000206,
          "durationTicks": 42,
          "midi": 74,
          "name": "D5",
          "ticks": 44832,
          "time": 179.615205,
          "velocity": 0.9606299212598425
        },
        {
          "duration": 0.1762818749999724,
          "durationTicks": 44,
          "midi": 78,
          "name": "F#5",
          "ticks": 44832,
          "time": 179.615205,
          "velocity": 0.937007874015748
        },
        {
          "duration": 0.1923074999999983,
          "durationTicks": 48,
          "midi": 43,
          "name": "G2",
          "ticks": 44928,
          "time": 179.99982,
          "velocity": 0.952755905511811
        },
        {
          "duration": 0.20032031249999704,
          "durationTicks": 50,
          "midi": 55,
          "name": "G3",
          "ticks": 44928,
          "time": 179.99982,
          "velocity": 0.9606299212598425
        },
        {
          "duration": 0.16826906250000206,
          "durationTicks": 42,
          "midi": 71,
          "name": "B4",
          "ticks": 44928,
          "time": 179.99982,
          "velocity": 0.9606299212598425
        },
        {
          "duration": 0.1923074999999983,
          "durationTicks": 48,
          "midi": 74,
          "name": "D5",
          "ticks": 44928,
          "time": 179.99982,
          "velocity": 0.952755905511811
        },
        {
          "duration": 0.20032031249999704,
          "durationTicks": 50,
          "midi": 79,
          "name": "G5",
          "ticks": 44928,
          "time": 179.99982,
          "velocity": 0.937007874015748
        },
        {
          "duration": 0.07211531250001713,
          "durationTicks": 18,
          "midi": 50,
          "name": "D3",
          "ticks": 45216,
          "time": 181.153665,
          "velocity": 0.9133858267716536
        },
        {
          "duration": 0.07211531250001713,
          "durationTicks": 18,
          "midi": 62,
          "name": "D4",
          "ticks": 45216,
          "time": 181.153665,
          "velocity": 0.8976377952755905
        },
        {
          "duration": 0.04807687499999247,
          "durationTicks": 12,
          "midi": 50,
          "name": "D3",
          "ticks": 45264,
          "time": 181.3459725,
          "velocity": 0.889763779527559
        },
        {
          "duration": 0.056089687499991214,
          "durationTicks": 14,
          "midi": 62,
          "name": "D4",
          "ticks": 45264,
          "time": 181.3459725,
          "velocity": 0.8976377952755905
        },
        {
          "duration": 0.16826906250000206,
          "durationTicks": 42,
          "midi": 52,
          "name": "E3",
          "ticks": 45312,
          "time": 181.53828,
          "velocity": 0.937007874015748
        },
        {
          "duration": 0.18429468750002798,
          "durationTicks": 46,
          "midi": 64,
          "name": "E4",
          "ticks": 45312,
          "time": 181.53828,
          "velocity": 0.937007874015748
        },
        {
          "duration": 0.08814093750001462,
          "durationTicks": 22,
          "midi": 50,
          "name": "D3",
          "ticks": 45360,
          "time": 181.73058749999998,
          "velocity": 0.905511811023622
        },
        {
          "duration": 0.08012812499998745,
          "durationTicks": 20,
          "midi": 62,
          "name": "D4",
          "ticks": 45360,
          "time": 181.73058749999998,
          "velocity": 0.8976377952755905
        },
        {
          "duration": 0.056089687499991214,
          "durationTicks": 14,
          "midi": 50,
          "name": "D3",
          "ticks": 45600,
          "time": 182.692125,
          "velocity": 0.9133858267716536
        },
        {
          "duration": 0.06410249999998996,
          "durationTicks": 16,
          "midi": 62,
          "name": "D4",
          "ticks": 45600,
          "time": 182.692125,
          "velocity": 0.9291338582677166
        },
        {
          "duration": 0.06410249999998996,
          "durationTicks": 16,
          "midi": 50,
          "name": "D3",
          "ticks": 45648,
          "time": 182.8844325,
          "velocity": 0.9133858267716536
        },
        {
          "duration": 0.0721153124999887,
          "durationTicks": 18,
          "midi": 62,
          "name": "D4",
          "ticks": 45648,
          "time": 182.8844325,
          "velocity": 0.9133858267716536
        },
        {
          "duration": 0.12820499999997992,
          "durationTicks": 32,
          "midi": 52,
          "name": "E3",
          "ticks": 45696,
          "time": 183.07674,
          "velocity": 0.937007874015748
        },
        {
          "duration": 0.14423062500000583,
          "durationTicks": 36,
          "midi": 64,
          "name": "E4",
          "ticks": 45696,
          "time": 183.07674,
          "velocity": 0.937007874015748
        },
        {
          "duration": 0.08012812499998745,
          "durationTicks": 20,
          "midi": 50,
          "name": "D3",
          "ticks": 45744,
          "time": 183.2690475,
          "velocity": 0.9133858267716536
        },
        {
          "duration": 0.0721153124999887,
          "durationTicks": 18,
          "midi": 62,
          "name": "D4",
          "ticks": 45744,
          "time": 183.2690475,
          "velocity": 0.937007874015748
        },
        {
          "duration": 0.040064062499993724,
          "durationTicks": 10,
          "midi": 62,
          "name": "D4",
          "ticks": 45792,
          "time": 183.461355,
          "velocity": 0.937007874015748
        },
        {
          "duration": 0.0721153124999887,
          "durationTicks": 18,
          "midi": 74,
          "name": "D5",
          "ticks": 45792,
          "time": 183.461355,
          "velocity": 0.937007874015748
        },
        {
          "duration": 0.08814093750001462,
          "durationTicks": 22,
          "midi": 62,
          "name": "D4",
          "ticks": 45840,
          "time": 183.6536625,
          "velocity": 0.937007874015748
        },
        {
          "duration": 0.13621781250000708,
          "durationTicks": 34,
          "midi": 74,
          "name": "D5",
          "ticks": 45840,
          "time": 183.6536625,
          "velocity": 0.952755905511811
        },
        {
          "duration": 0.2083331249999958,
          "durationTicks": 52,
          "midi": 64,
          "name": "E4",
          "ticks": 45888,
          "time": 183.84597,
          "velocity": 0.952755905511811
        },
        {
          "duration": 0.16826906250000206,
          "durationTicks": 42,
          "midi": 76,
          "name": "E5",
          "ticks": 45888,
          "time": 183.84597,
          "velocity": 0.9133858267716536
        },
        {
          "duration": 0.15224343750000457,
          "durationTicks": 38,
          "midi": 62,
          "name": "D4",
          "ticks": 45936,
          "time": 184.0382775,
          "velocity": 0.937007874015748
        },
        {
          "duration": 0.16826906250000206,
          "durationTicks": 42,
          "midi": 74,
          "name": "D5",
          "ticks": 45936,
          "time": 184.0382775,
          "velocity": 0.9212598425196851
        },
        {
          "duration": 0.13621781250000708,
          "durationTicks": 34,
          "midi": 60,
          "name": "C4",
          "ticks": 45984,
          "time": 184.230585,
          "velocity": 0.937007874015748
        },
        {
          "duration": 0.13621781250000708,
          "durationTicks": 34,
          "midi": 72,
          "name": "C5",
          "ticks": 45984,
          "time": 184.230585,
          "velocity": 0.9448818897637795
        },
        {
          "duration": 0.14423062500000583,
          "durationTicks": 36,
          "midi": 59,
          "name": "B3",
          "ticks": 46032,
          "time": 184.4228925,
          "velocity": 0.937007874015748
        },
        {
          "duration": 0.1201921875000096,
          "durationTicks": 30,
          "midi": 71,
          "name": "B4",
          "ticks": 46032,
          "time": 184.4228925,
          "velocity": 0.937007874015748
        },
        {
          "duration": 0.1762818750000008,
          "durationTicks": 44,
          "midi": 57,
          "name": "A3",
          "ticks": 46080,
          "time": 184.6152,
          "velocity": 0.937007874015748
        },
        {
          "duration": 0.1201921875000096,
          "durationTicks": 30,
          "midi": 69,
          "name": "A4",
          "ticks": 46080,
          "time": 184.6152,
          "velocity": 0.9448818897637795
        },
        {
          "duration": 0.0721153124999887,
          "durationTicks": 18,
          "midi": 49,
          "name": "C#3",
          "ticks": 46752,
          "time": 187.307505,
          "velocity": 0.9133858267716536
        },
        {
          "duration": 0.08814093750001462,
          "durationTicks": 22,
          "midi": 56,
          "name": "G#3",
          "ticks": 46752,
          "time": 187.307505,
          "velocity": 0.889763779527559
        },
        {
          "duration": 0.08012812499998745,
          "durationTicks": 20,
          "midi": 61,
          "name": "C#4",
          "ticks": 46752,
          "time": 187.307505,
          "velocity": 0.889763779527559
        },
        {
          "duration": 0.06410250000001838,
          "durationTicks": 16,
          "midi": 48,
          "name": "C3",
          "ticks": 46848,
          "time": 187.69212,
          "velocity": 0.8110236220472441
        },
        {
          "duration": 0.06410250000001838,
          "durationTicks": 16,
          "midi": 55,
          "name": "G3",
          "ticks": 46848,
          "time": 187.69212,
          "velocity": 0.84251968503937
        },
        {
          "duration": 0.07211531250001713,
          "durationTicks": 18,
          "midi": 60,
          "name": "C4",
          "ticks": 46848,
          "time": 187.69212,
          "velocity": 0.8740157480314961
        },
        {
          "duration": 0.07211531250001713,
          "durationTicks": 18,
          "midi": 48,
          "name": "C3",
          "ticks": 46896,
          "time": 187.8844275,
          "velocity": 0.889763779527559
        },
        {
          "duration": 0.056089687499991214,
          "durationTicks": 14,
          "midi": 55,
          "name": "G3",
          "ticks": 46896,
          "time": 187.8844275,
          "velocity": 0.8740157480314961
        },
        {
          "duration": 0.07211531250001713,
          "durationTicks": 18,
          "midi": 60,
          "name": "C4",
          "ticks": 46896,
          "time": 187.8844275,
          "velocity": 0.8503937007874016
        },
        {
          "duration": 0.07211531250001713,
          "durationTicks": 18,
          "midi": 47,
          "name": "B2",
          "ticks": 46944,
          "time": 188.07673499999999,
          "velocity": 0.9212598425196851
        },
        {
          "duration": 0.06410250000001838,
          "durationTicks": 16,
          "midi": 54,
          "name": "F#3",
          "ticks": 46944,
          "time": 188.07673499999999,
          "velocity": 0.9212598425196851
        },
        {
          "duration": 0.06410250000001838,
          "durationTicks": 16,
          "midi": 59,
          "name": "B3",
          "ticks": 46944,
          "time": 188.07673499999999,
          "velocity": 0.9291338582677166
        },
        {
          "duration": 0.08814093750001462,
          "durationTicks": 22,
          "midi": 48,
          "name": "C3",
          "ticks": 47040,
          "time": 188.46134999999998,
          "velocity": 0.8976377952755905
        },
        {
          "duration": 0.07211531250001713,
          "durationTicks": 18,
          "midi": 55,
          "name": "G3",
          "ticks": 47040,
          "time": 188.46134999999998,
          "velocity": 0.9133858267716536
        },
        {
          "duration": 0.08012812500001587,
          "durationTicks": 20,
          "midi": 60,
          "name": "C4",
          "ticks": 47040,
          "time": 188.46134999999998,
          "velocity": 0.937007874015748
        },
        {
          "duration": 0.08814093750001462,
          "durationTicks": 22,
          "midi": 49,
          "name": "C#3",
          "ticks": 47136,
          "time": 188.84596499999998,
          "velocity": 0.9133858267716536
        },
        {
          "duration": 0.08012812500001587,
          "durationTicks": 20,
          "midi": 56,
          "name": "G#3",
          "ticks": 47136,
          "time": 188.84596499999998,
          "velocity": 0.9212598425196851
        },
        {
          "duration": 0.08012812500001587,
          "durationTicks": 20,
          "midi": 61,
          "name": "C#4",
          "ticks": 47136,
          "time": 188.84596499999998,
          "velocity": 0.9291338582677166
        },
        {
          "duration": 0.0721153124999887,
          "durationTicks": 18,
          "midi": 48,
          "name": "C3",
          "ticks": 47232,
          "time": 189.23058,
          "velocity": 0.889763779527559
        },
        {
          "duration": 0.0721153124999887,
          "durationTicks": 18,
          "midi": 55,
          "name": "G3",
          "ticks": 47232,
          "time": 189.23058,
          "velocity": 0.889763779527559
        },
        {
          "duration": 0.08012812499998745,
          "durationTicks": 20,
          "midi": 60,
          "name": "C4",
          "ticks": 47232,
          "time": 189.23058,
          "velocity": 0.8976377952755905
        },
        {
          "duration": 0.0721153124999887,
          "durationTicks": 18,
          "midi": 48,
          "name": "C3",
          "ticks": 47280,
          "time": 189.4228875,
          "velocity": 0.8188976377952756
        },
        {
          "duration": 0.04807687499999247,
          "durationTicks": 12,
          "midi": 55,
          "name": "G3",
          "ticks": 47280,
          "time": 189.4228875,
          "velocity": 0.7874015748031497
        },
        {
          "duration": 0.06410249999998996,
          "durationTicks": 16,
          "midi": 60,
          "name": "C4",
          "ticks": 47280,
          "time": 189.4228875,
          "velocity": 0.8661417322834646
        },
        {
          "duration": 0.36057656250000036,
          "durationTicks": 90,
          "midi": 47,
          "name": "B2",
          "ticks": 47328,
          "time": 189.615195,
          "velocity": 0.9291338582677166
        },
        {
          "duration": 0.3285253125000054,
          "durationTicks": 82,
          "midi": 54,
          "name": "F#3",
          "ticks": 47328,
          "time": 189.615195,
          "velocity": 0.9133858267716536
        },
        {
          "duration": 0.33653812500000413,
          "durationTicks": 84,
          "midi": 59,
          "name": "B3",
          "ticks": 47328,
          "time": 189.615195,
          "velocity": 0.8976377952755905
        },
        {
          "duration": 0.34455093749997445,
          "durationTicks": 86,
          "midi": 48,
          "name": "C3",
          "ticks": 47424,
          "time": 189.99981,
          "velocity": 0.9291338582677166
        },
        {
          "duration": 0.18429468749999955,
          "durationTicks": 46,
          "midi": 55,
          "name": "G3",
          "ticks": 47424,
          "time": 189.99981,
          "velocity": 0.905511811023622
        },
        {
          "duration": 0.23237156249999202,
          "durationTicks": 58,
          "midi": 60,
          "name": "C4",
          "ticks": 47424,
          "time": 189.99981,
          "velocity": 0.9212598425196851
        },
        {
          "duration": 0.2564100000000167,
          "durationTicks": 64,
          "midi": 53,
          "name": "F3",
          "ticks": 47520,
          "time": 190.384425,
          "velocity": 0.937007874015748
        },
        {
          "duration": 0.2483971874999895,
          "durationTicks": 62,
          "midi": 65,
          "name": "F4",
          "ticks": 47520,
          "time": 190.384425,
          "velocity": 0.9212598425196851
        },
        {
          "duration": 0.28846125000001166,
          "durationTicks": 72,
          "midi": 70,
          "name": "A#4",
          "ticks": 47520,
          "time": 190.384425,
          "velocity": 0.9291338582677166
        },
        {
          "duration": 0.264422812499987,
          "durationTicks": 66,
          "midi": 74,
          "name": "D5",
          "ticks": 47520,
          "time": 190.384425,
          "velocity": 0.9448818897637795
        },
        {
          "duration": 0.0721153124999887,
          "durationTicks": 18,
          "midi": 53,
          "name": "F3",
          "ticks": 47616,
          "time": 190.76904,
          "velocity": 0.9212598425196851
        },
        {
          "duration": 0.06410250000001838,
          "durationTicks": 16,
          "midi": 65,
          "name": "F4",
          "ticks": 47616,
          "time": 190.76904,
          "velocity": 0.9212598425196851
        },
        {
          "duration": 0.056089687499991214,
          "durationTicks": 14,
          "midi": 69,
          "name": "A4",
          "ticks": 47616,
          "time": 190.76904,
          "velocity": 0.937007874015748
        },
        {
          "duration": 0.06410250000001838,
          "durationTicks": 16,
          "midi": 72,
          "name": "C5",
          "ticks": 47616,
          "time": 190.76904,
          "velocity": 0.937007874015748
        },
        {
          "duration": 0.056089687499991214,
          "durationTicks": 14,
          "midi": 53,
          "name": "F3",
          "ticks": 47664,
          "time": 190.9613475,
          "velocity": 0.9133858267716536
        },
        {
          "duration": 0.04807687499999247,
          "durationTicks": 12,
          "midi": 65,
          "name": "F4",
          "ticks": 47664,
          "time": 190.9613475,
          "velocity": 0.8976377952755905
        },
        {
          "duration": 0.056089687499991214,
          "durationTicks": 14,
          "midi": 69,
          "name": "A4",
          "ticks": 47664,
          "time": 190.9613475,
          "velocity": 0.9291338582677166
        },
        {
          "duration": 0.08814093750001462,
          "durationTicks": 22,
          "midi": 72,
          "name": "C5",
          "ticks": 47664,
          "time": 190.9613475,
          "velocity": 0.889763779527559
        },
        {
          "duration": 0.2483971874999895,
          "durationTicks": 62,
          "midi": 53,
          "name": "F3",
          "ticks": 47712,
          "time": 191.153655,
          "velocity": 0.9212598425196851
        },
        {
          "duration": 0.2483971874999895,
          "durationTicks": 62,
          "midi": 65,
          "name": "F4",
          "ticks": 47712,
          "time": 191.153655,
          "velocity": 0.937007874015748
        },
        {
          "duration": 0.2564100000000167,
          "durationTicks": 64,
          "midi": 68,
          "name": "G#4",
          "ticks": 47712,
          "time": 191.153655,
          "velocity": 0.9212598425196851
        },
        {
          "duration": 0.2804484375000129,
          "durationTicks": 70,
          "midi": 71,
          "name": "B4",
          "ticks": 47712,
          "time": 191.153655,
          "velocity": 0.937007874015748
        },
        {
          "duration": 0.2964740625000104,
          "durationTicks": 74,
          "midi": 53,
          "name": "F3",
          "ticks": 47808,
          "time": 191.53826999999998,
          "velocity": 0.9212598425196851
        },
        {
          "duration": 0.2644228125000154,
          "durationTicks": 66,
          "midi": 65,
          "name": "F4",
          "ticks": 47808,
          "time": 191.53826999999998,
          "velocity": 0.8976377952755905
        },
        {
          "duration": 0.2964740625000104,
          "durationTicks": 74,
          "midi": 69,
          "name": "A4",
          "ticks": 47808,
          "time": 191.53826999999998,
          "velocity": 0.9291338582677166
        },
        {
          "duration": 0.30448687500000915,
          "durationTicks": 76,
          "midi": 72,
          "name": "C5",
          "ticks": 47808,
          "time": 191.53826999999998,
          "velocity": 0.905511811023622
        },
        {
          "duration": 0.06410250000001838,
          "durationTicks": 16,
          "midi": 53,
          "name": "F3",
          "ticks": 47904,
          "time": 191.92288499999998,
          "velocity": 0.9448818897637795
        },
        {
          "duration": 0.056089687500019636,
          "durationTicks": 14,
          "midi": 65,
          "name": "F4",
          "ticks": 47904,
          "time": 191.92288499999998,
          "velocity": 0.905511811023622
        },
        {
          "duration": 0.056089687500019636,
          "durationTicks": 14,
          "midi": 70,
          "name": "A#4",
          "ticks": 47904,
          "time": 191.92288499999998,
          "velocity": 0.937007874015748
        },
        {
          "duration": 0.06410250000001838,
          "durationTicks": 16,
          "midi": 74,
          "name": "D5",
          "ticks": 47904,
          "time": 191.92288499999998,
          "velocity": 0.8818897637795275
        },
        {
          "duration": 0.06410249999998996,
          "durationTicks": 16,
          "midi": 53,
          "name": "F3",
          "ticks": 47952,
          "time": 192.1151925,
          "velocity": 0.9291338582677166
        },
        {
          "duration": 0.040064062499993724,
          "durationTicks": 10,
          "midi": 65,
          "name": "F4",
          "ticks": 47952,
          "time": 192.1151925,
          "velocity": 0.889763779527559
        },
        {
          "duration": 0.0721153124999887,
          "durationTicks": 18,
          "midi": 70,
          "name": "A#4",
          "ticks": 47952,
          "time": 192.1151925,
          "velocity": 0.9291338582677166
        },
        {
          "duration": 0.06410249999998996,
          "durationTicks": 16,
          "midi": 74,
          "name": "D5",
          "ticks": 47952,
          "time": 192.1151925,
          "velocity": 0.9212598425196851
        },
        {
          "duration": 0.28846124999998324,
          "durationTicks": 72,
          "midi": 53,
          "name": "F3",
          "ticks": 48000,
          "time": 192.3075,
          "velocity": 0.952755905511811
        },
        {
          "duration": 0.27243562499998575,
          "durationTicks": 68,
          "midi": 65,
          "name": "F4",
          "ticks": 48000,
          "time": 192.3075,
          "velocity": 0.9212598425196851
        },
        {
          "duration": 0.264422812499987,
          "durationTicks": 66,
          "midi": 69,
          "name": "A4",
          "ticks": 48000,
          "time": 192.3075,
          "velocity": 0.952755905511811
        },
        {
          "duration": 0.3124996874999795,
          "durationTicks": 78,
          "midi": 72,
          "name": "C5",
          "ticks": 48000,
          "time": 192.3075,
          "velocity": 0.9133858267716536
        },
        {
          "duration": 0.0881409374999862,
          "durationTicks": 22,
          "midi": 53,
          "name": "F3",
          "ticks": 48096,
          "time": 192.692115,
          "velocity": 0.937007874015748
        },
        {
          "duration": 0.0721153124999887,
          "durationTicks": 18,
          "midi": 65,
          "name": "F4",
          "ticks": 48096,
          "time": 192.692115,
          "velocity": 0.8188976377952756
        },
        {
          "duration": 0.09615374999998494,
          "durationTicks": 24,
          "midi": 68,
          "name": "G#4",
          "ticks": 48096,
          "time": 192.692115,
          "velocity": 0.9212598425196851
        },
        {
          "duration": 0.06410249999998996,
          "durationTicks": 16,
          "midi": 71,
          "name": "B4",
          "ticks": 48096,
          "time": 192.692115,
          "velocity": 0.8976377952755905
        },
        {
          "duration": 0.09615374999998494,
          "durationTicks": 24,
          "midi": 53,
          "name": "F3",
          "ticks": 48144,
          "time": 192.8844225,
          "velocity": 0.9291338582677166
        },
        {
          "duration": 0.0881409374999862,
          "durationTicks": 22,
          "midi": 65,
          "name": "F4",
          "ticks": 48144,
          "time": 192.8844225,
          "velocity": 0.889763779527559
        },
        {
          "duration": 0.12019218749998117,
          "durationTicks": 30,
          "midi": 68,
          "name": "G#4",
          "ticks": 48144,
          "time": 192.8844225,
          "velocity": 0.8976377952755905
        },
        {
          "duration": 0.13621781250000708,
          "durationTicks": 34,
          "midi": 71,
          "name": "B4",
          "ticks": 48144,
          "time": 192.8844225,
          "velocity": 0.9133858267716536
        },
        {
          "duration": 0.264422812499987,
          "durationTicks": 66,
          "midi": 53,
          "name": "F3",
          "ticks": 48192,
          "time": 193.07673,
          "velocity": 0.937007874015748
        },
        {
          "duration": 0.2804484375000129,
          "durationTicks": 70,
          "midi": 65,
          "name": "F4",
          "ticks": 48192,
          "time": 193.07673,
          "velocity": 0.9212598425196851
        },
        {
          "duration": 0.2804484375000129,
          "durationTicks": 70,
          "midi": 69,
          "name": "A4",
          "ticks": 48192,
          "time": 193.07673,
          "velocity": 0.952755905511811
        },
        {
          "duration": 0.296474062499982,
          "durationTicks": 74,
          "midi": 72,
          "name": "C5",
          "ticks": 48192,
          "time": 193.07673,
          "velocity": 0.937007874015748
        },
        {
          "duration": 0.30448687500000915,
          "durationTicks": 76,
          "midi": 58,
          "name": "A#3",
          "ticks": 48288,
          "time": 193.461345,
          "velocity": 0.9291338582677166
        },
        {
          "duration": 0.264422812499987,
          "durationTicks": 66,
          "midi": 65,
          "name": "F4",
          "ticks": 48288,
          "time": 193.461345,
          "velocity": 0.8740157480314961
        },
        {
          "duration": 0.2804484375000129,
          "durationTicks": 70,
          "midi": 70,
          "name": "A#4",
          "ticks": 48288,
          "time": 193.461345,
          "velocity": 0.9291338582677166
        },
        {
          "duration": 0.28846125000001166,
          "durationTicks": 72,
          "midi": 74,
          "name": "D5",
          "ticks": 48288,
          "time": 193.461345,
          "velocity": 0.9212598425196851
        },
        {
          "duration": 0.1201921875000096,
          "durationTicks": 30,
          "midi": 58,
          "name": "A#3",
          "ticks": 48384,
          "time": 193.84596,
          "velocity": 0.937007874015748
        },
        {
          "duration": 0.09615375000001336,
          "durationTicks": 24,
          "midi": 65,
          "name": "F4",
          "ticks": 48384,
          "time": 193.84596,
          "velocity": 0.8818897637795275
        },
        {
          "duration": 0.14423062500000583,
          "durationTicks": 36,
          "midi": 70,
          "name": "A#4",
          "ticks": 48384,
          "time": 193.84596,
          "velocity": 0.9212598425196851
        },
        {
          "duration": 0.13621781250000708,
          "durationTicks": 34,
          "midi": 74,
          "name": "D5",
          "ticks": 48384,
          "time": 193.84596,
          "velocity": 0.937007874015748
        },
        {
          "duration": 0.13621781250000708,
          "durationTicks": 34,
          "midi": 58,
          "name": "A#3",
          "ticks": 48432,
          "time": 194.0382675,
          "velocity": 0.9212598425196851
        },
        {
          "duration": 0.07211531250001713,
          "durationTicks": 18,
          "midi": 65,
          "name": "F4",
          "ticks": 48432,
          "time": 194.0382675,
          "velocity": 0.84251968503937
        },
        {
          "duration": 0.08814093750001462,
          "durationTicks": 22,
          "midi": 76,
          "name": "E5",
          "ticks": 48432,
          "time": 194.0382675,
          "velocity": 0.8188976377952756
        },
        {
          "duration": 0.12820500000000834,
          "durationTicks": 32,
          "midi": 57,
          "name": "A3",
          "ticks": 48480,
          "time": 194.230575,
          "velocity": 0.937007874015748
        },
        {
          "duration": 0.10416656249998368,
          "durationTicks": 26,
          "midi": 65,
          "name": "F4",
          "ticks": 48480,
          "time": 194.230575,
          "velocity": 0.952755905511811
        },
        {
          "duration": 0.11217937500001085,
          "durationTicks": 28,
          "midi": 69,
          "name": "A4",
          "ticks": 48480,
          "time": 194.230575,
          "velocity": 0.9448818897637795
        },
        {
          "duration": 0.13621781250000708,
          "durationTicks": 34,
          "midi": 72,
          "name": "C5",
          "ticks": 48480,
          "time": 194.230575,
          "velocity": 0.9212598425196851
        },
        {
          "duration": 0.08814093750001462,
          "durationTicks": 22,
          "midi": 57,
          "name": "A3",
          "ticks": 48576,
          "time": 194.61518999999998,
          "velocity": 0.937007874015748
        },
        {
          "duration": 0.15224343750000457,
          "durationTicks": 38,
          "midi": 69,
          "name": "A4",
          "ticks": 48576,
          "time": 194.61518999999998,
          "velocity": 0.937007874015748
        },
        {
          "duration": 0.14423062500000583,
          "durationTicks": 36,
          "midi": 72,
          "name": "C5",
          "ticks": 48576,
          "time": 194.61518999999998,
          "velocity": 0.937007874015748
        },
        {
          "duration": 0.15224343750000457,
          "durationTicks": 38,
          "midi": 57,
          "name": "A3",
          "ticks": 48624,
          "time": 194.80749749999998,
          "velocity": 0.937007874015748
        },
        {
          "duration": 0.1201921875000096,
          "durationTicks": 30,
          "midi": 65,
          "name": "F4",
          "ticks": 48624,
          "time": 194.80749749999998,
          "velocity": 0.9291338582677166
        },
        {
          "duration": 0.15224343750000457,
          "durationTicks": 38,
          "midi": 55,
          "name": "G3",
          "ticks": 48672,
          "time": 194.99980499999998,
          "velocity": 0.952755905511811
        },
        {
          "duration": 0.11217937500001085,
          "durationTicks": 28,
          "midi": 65,
          "name": "F4",
          "ticks": 48672,
          "time": 194.99980499999998,
          "velocity": 0.9133858267716536
        },
        {
          "duration": 0.1201921875000096,
          "durationTicks": 30,
          "midi": 67,
          "name": "G4",
          "ticks": 48672,
          "time": 194.99980499999998,
          "velocity": 0.9291338582677166
        },
        {
          "duration": 0.12820500000000834,
          "durationTicks": 32,
          "midi": 71,
          "name": "B4",
          "ticks": 48672,
          "time": 194.99980499999998,
          "velocity": 0.937007874015748
        },
        {
          "duration": 0.12820499999997992,
          "durationTicks": 32,
          "midi": 55,
          "name": "G3",
          "ticks": 48768,
          "time": 195.38442,
          "velocity": 0.9212598425196851
        },
        {
          "duration": 0.09615374999998494,
          "durationTicks": 24,
          "midi": 65,
          "name": "F4",
          "ticks": 48768,
          "time": 195.38442,
          "velocity": 0.9212598425196851
        },
        {
          "duration": 0.11217937499998243,
          "durationTicks": 28,
          "midi": 67,
          "name": "G4",
          "ticks": 48768,
          "time": 195.38442,
          "velocity": 0.937007874015748
        },
        {
          "duration": 0.12019218749998117,
          "durationTicks": 30,
          "midi": 71,
          "name": "B4",
          "ticks": 48768,
          "time": 195.38442,
          "velocity": 0.952755905511811
        },
        {
          "duration": 0.22435874999999328,
          "durationTicks": 56,
          "midi": 55,
          "name": "G3",
          "ticks": 48816,
          "time": 195.5767275,
          "velocity": 0.905511811023622
        },
        {
          "duration": 0.12820499999997992,
          "durationTicks": 32,
          "midi": 65,
          "name": "F4",
          "ticks": 48816,
          "time": 195.5767275,
          "velocity": 0.905511811023622
        },
        {
          "duration": 0.12820499999997992,
          "durationTicks": 32,
          "midi": 67,
          "name": "G4",
          "ticks": 48816,
          "time": 195.5767275,
          "velocity": 0.905511811023622
        },
        {
          "duration": 0.18429468749999955,
          "durationTicks": 46,
          "midi": 71,
          "name": "B4",
          "ticks": 48816,
          "time": 195.5767275,
          "velocity": 0.9133858267716536
        },
        {
          "duration": 0.18429468749999955,
          "durationTicks": 46,
          "midi": 48,
          "name": "C3",
          "ticks": 48864,
          "time": 195.769035,
          "velocity": 0.937007874015748
        },
        {
          "duration": 0.1923074999999983,
          "durationTicks": 48,
          "midi": 60,
          "name": "C4",
          "ticks": 48864,
          "time": 195.769035,
          "velocity": 0.952755905511811
        },
        {
          "duration": 0.20032031249996862,
          "durationTicks": 50,
          "midi": 64,
          "name": "E4",
          "ticks": 48864,
          "time": 195.769035,
          "velocity": 0.937007874015748
        },
        {
          "duration": 0.2083331249999958,
          "durationTicks": 52,
          "midi": 67,
          "name": "G4",
          "ticks": 48864,
          "time": 195.769035,
          "velocity": 0.952755905511811
        },
        {
          "duration": 0.23237156249999202,
          "durationTicks": 58,
          "midi": 72,
          "name": "C5",
          "ticks": 48864,
          "time": 195.769035,
          "velocity": 0.937007874015748
        },
        {
          "duration": 0.024038437499996235,
          "durationTicks": 6,
          "midi": 49,
          "name": "C#3",
          "ticks": 49440,
          "time": 198.07672499999998,
          "velocity": 0.889763779527559
        },
        {
          "duration": 0.04807687500002089,
          "durationTicks": 12,
          "midi": 56,
          "name": "G#3",
          "ticks": 49440,
          "time": 198.07672499999998,
          "velocity": 0.889763779527559
        },
        {
          "duration": 0.04807687500002089,
          "durationTicks": 12,
          "midi": 61,
          "name": "C#4",
          "ticks": 49440,
          "time": 198.07672499999998,
          "velocity": 0.889763779527559
        },
        {
          "duration": 0.06410249999998996,
          "durationTicks": 16,
          "midi": 49,
          "name": "C#3",
          "ticks": 49488,
          "time": 198.26903249999998,
          "velocity": 0.889763779527559
        },
        {
          "duration": 0.056089687500019636,
          "durationTicks": 14,
          "midi": 56,
          "name": "G#3",
          "ticks": 49488,
          "time": 198.26903249999998,
          "velocity": 0.905511811023622
        },
        {
          "duration": 0.04807687500002089,
          "durationTicks": 12,
          "midi": 36,
          "name": "C2",
          "ticks": 49536,
          "time": 198.46133999999998,
          "velocity": 0.8976377952755905
        },
        {
          "duration": 0.056089687500019636,
          "durationTicks": 14,
          "midi": 43,
          "name": "G2",
          "ticks": 49536,
          "time": 198.46133999999998,
          "velocity": 0.9133858267716536
        },
        {
          "duration": 0.056089687500019636,
          "durationTicks": 14,
          "midi": 48,
          "name": "C3",
          "ticks": 49536,
          "time": 198.46133999999998,
          "velocity": 0.9291338582677166
        },
        {
          "duration": 0.03205124999999498,
          "durationTicks": 8,
          "midi": 35,
          "name": "B1",
          "ticks": 49632,
          "time": 198.845955,
          "velocity": 0.8110236220472441
        },
        {
          "duration": 0.04807687499999247,
          "durationTicks": 12,
          "midi": 42,
          "name": "F#2",
          "ticks": 49632,
          "time": 198.845955,
          "velocity": 0.889763779527559
        },
        {
          "duration": 0.0400640624999653,
          "durationTicks": 10,
          "midi": 47,
          "name": "B2",
          "ticks": 49632,
          "time": 198.845955,
          "velocity": 0.8818897637795275
        },
        {
          "duration": 0.0400640624999653,
          "durationTicks": 10,
          "midi": 35,
          "name": "B1",
          "ticks": 49680,
          "time": 199.0382625,
          "velocity": 0.8503937007874016
        },
        {
          "duration": 0.04807687499999247,
          "durationTicks": 12,
          "midi": 42,
          "name": "F#2",
          "ticks": 49680,
          "time": 199.0382625,
          "velocity": 0.8818897637795275
        },
        {
          "duration": 0.0400640624999653,
          "durationTicks": 10,
          "midi": 47,
          "name": "B2",
          "ticks": 49680,
          "time": 199.0382625,
          "velocity": 0.7874015748031497
        },
        {
          "duration": 0.08012812500001587,
          "durationTicks": 20,
          "midi": 36,
          "name": "C2",
          "ticks": 49728,
          "time": 199.23057,
          "velocity": 0.9291338582677166
        },
        {
          "duration": 0.0721153124999887,
          "durationTicks": 18,
          "midi": 43,
          "name": "G2",
          "ticks": 49728,
          "time": 199.23057,
          "velocity": 0.8818897637795275
        },
        {
          "duration": 0.08012812500001587,
          "durationTicks": 20,
          "midi": 48,
          "name": "C3",
          "ticks": 49728,
          "time": 199.23057,
          "velocity": 0.889763779527559
        },
        {
          "duration": 0.06410249999998996,
          "durationTicks": 16,
          "midi": 37,
          "name": "C#2",
          "ticks": 49824,
          "time": 199.615185,
          "velocity": 0.905511811023622
        },
        {
          "duration": 0.04807687499999247,
          "durationTicks": 12,
          "midi": 44,
          "name": "G#2",
          "ticks": 49824,
          "time": 199.615185,
          "velocity": 0.9212598425196851
        },
        {
          "duration": 0.06410249999998996,
          "durationTicks": 16,
          "midi": 49,
          "name": "C#3",
          "ticks": 49824,
          "time": 199.615185,
          "velocity": 0.8818897637795275
        },
        {
          "duration": 0.06410249999998996,
          "durationTicks": 16,
          "midi": 37,
          "name": "C#2",
          "ticks": 49872,
          "time": 199.8074925,
          "velocity": 0.905511811023622
        },
        {
          "duration": 0.06410249999998996,
          "durationTicks": 16,
          "midi": 44,
          "name": "G#2",
          "ticks": 49872,
          "time": 199.8074925,
          "velocity": 0.8818897637795275
        },
        {
          "duration": 0.06410249999998996,
          "durationTicks": 16,
          "midi": 49,
          "name": "C#3",
          "ticks": 49872,
          "time": 199.8074925,
          "velocity": 0.8188976377952756
        },
        {
          "duration": 0.0721153124999887,
          "durationTicks": 18,
          "midi": 36,
          "name": "C2",
          "ticks": 49920,
          "time": 199.9998,
          "velocity": 0.8740157480314961
        },
        {
          "duration": 0.056089687500019636,
          "durationTicks": 14,
          "midi": 43,
          "name": "G2",
          "ticks": 49920,
          "time": 199.9998,
          "velocity": 0.8818897637795275
        },
        {
          "duration": 0.06410249999998996,
          "durationTicks": 16,
          "midi": 48,
          "name": "C3",
          "ticks": 49920,
          "time": 199.9998,
          "velocity": 0.8740157480314961
        },
        {
          "duration": 0.0881409374999862,
          "durationTicks": 22,
          "midi": 36,
          "name": "C2",
          "ticks": 49968,
          "time": 200.1921075,
          "velocity": 0.8188976377952756
        },
        {
          "duration": 0.0721153124999887,
          "durationTicks": 18,
          "midi": 48,
          "name": "C3",
          "ticks": 49968,
          "time": 200.1921075,
          "velocity": 0.7874015748031497
        },
        {
          "duration": 0.1602562499999749,
          "durationTicks": 40,
          "midi": 35,
          "name": "B1",
          "ticks": 50016,
          "time": 200.384415,
          "velocity": 0.905511811023622
        },
        {
          "duration": 0.06410249999998996,
          "durationTicks": 16,
          "midi": 42,
          "name": "F#2",
          "ticks": 50016,
          "time": 200.384415,
          "velocity": 0.8976377952755905
        },
        {
          "duration": 0.0881409374999862,
          "durationTicks": 22,
          "midi": 47,
          "name": "B2",
          "ticks": 50016,
          "time": 200.384415,
          "velocity": 0.905511811023622
        },
        {
          "duration": 0.11217937499998243,
          "durationTicks": 28,
          "midi": 48,
          "name": "C3",
          "ticks": 50112,
          "time": 200.76903,
          "velocity": 0.9133858267716536
        },
        {
          "duration": 0.1041665625000121,
          "durationTicks": 26,
          "midi": 60,
          "name": "C4",
          "ticks": 50112,
          "time": 200.76903,
          "velocity": 0.9133858267716536
        },
        {
          "duration": 0.12820500000000834,
          "durationTicks": 32,
          "midi": 64,
          "name": "E4",
          "ticks": 50112,
          "time": 200.76903,
          "velocity": 0.9133858267716536
        },
        {
          "duration": 0.13621781249997866,
          "durationTicks": 34,
          "midi": 67,
          "name": "G4",
          "ticks": 50112,
          "time": 200.76903,
          "velocity": 0.9133858267716536
        },
        {
          "duration": 0.1923074999999983,
          "durationTicks": 48,
          "midi": 72,
          "name": "C5",
          "ticks": 50112,
          "time": 200.76903,
          "velocity": 0.9133858267716536
        },
        {
          "duration": 0.1201921875000096,
          "durationTicks": 30,
          "midi": 41,
          "name": "F2",
          "ticks": 50208,
          "time": 201.15364499999998,
          "velocity": 0.9133858267716536
        },
        {
          "duration": 0.09615375000001336,
          "durationTicks": 24,
          "midi": 60,
          "name": "C4",
          "ticks": 50208,
          "time": 201.15364499999998,
          "velocity": 0.9133858267716536
        },
        {
          "duration": 0.1201921875000096,
          "durationTicks": 30,
          "midi": 65,
          "name": "F4",
          "ticks": 50208,
          "time": 201.15364499999998,
          "velocity": 0.9133858267716536
        },
        {
          "duration": 0.12820500000003676,
          "durationTicks": 32,
          "midi": 69,
          "name": "A4",
          "ticks": 50208,
          "time": 201.15364499999998,
          "velocity": 0.9133858267716536
        },
        {
          "duration": 0.12820500000003676,
          "durationTicks": 32,
          "midi": 72,
          "name": "C5",
          "ticks": 50208,
          "time": 201.15364499999998,
          "velocity": 0.9133858267716536
        },
        {
          "duration": 0.1923074999999983,
          "durationTicks": 48,
          "midi": 77,
          "name": "F5",
          "ticks": 50208,
          "time": 201.15364499999998,
          "velocity": 0.9133858267716536
        },
        {
          "duration": 0.14423062500000583,
          "durationTicks": 36,
          "midi": 48,
          "name": "C3",
          "ticks": 50304,
          "time": 201.53825999999998,
          "velocity": 0.9212598425196851
        },
        {
          "duration": 0.08012812500001587,
          "durationTicks": 20,
          "midi": 60,
          "name": "C4",
          "ticks": 50304,
          "time": 201.53825999999998,
          "velocity": 0.937007874015748
        },
        {
          "duration": 0.11217937500001085,
          "durationTicks": 28,
          "midi": 64,
          "name": "E4",
          "ticks": 50304,
          "time": 201.53825999999998,
          "velocity": 0.9291338582677166
        },
        {
          "duration": 0.12820500000003676,
          "durationTicks": 32,
          "midi": 67,
          "name": "G4",
          "ticks": 50304,
          "time": 201.53825999999998,
          "velocity": 0.9448818897637795
        },
        {
          "duration": 0.39262781249999534,
          "durationTicks": 98,
          "midi": 41,
          "name": "F2",
          "ticks": 50400,
          "time": 201.922875,
          "velocity": 0.8976377952755905
        },
        {
          "duration": 0.36057656250000036,
          "durationTicks": 90,
          "midi": 65,
          "name": "F4",
          "ticks": 50400,
          "time": 201.922875,
          "velocity": 0.937007874015748
        },
        {
          "duration": 0.39262781249999534,
          "durationTicks": 98,
          "midi": 69,
          "name": "A4",
          "ticks": 50400,
          "time": 201.922875,
          "velocity": 0.952755905511811
        },
        {
          "duration": 0.39262781249999534,
          "durationTicks": 98,
          "midi": 72,
          "name": "C5",
          "ticks": 50400,
          "time": 201.922875,
          "velocity": 0.937007874015748
        },
        {
          "duration": 0.3846149999999966,
          "durationTicks": 96,
          "midi": 77,
          "name": "F5",
          "ticks": 50400,
          "time": 201.922875,
          "velocity": 0.9606299212598425
        },
        {
          "duration": 0.11217937499998243,
          "durationTicks": 28,
          "midi": 29,
          "name": "F1",
          "ticks": 50832,
          "time": 203.6536425,
          "velocity": 0.9291338582677166
        },
        {
          "duration": 0.0881409374999862,
          "durationTicks": 22,
          "midi": 41,
          "name": "F2",
          "ticks": 50832,
          "time": 203.6536425,
          "velocity": 0.968503937007874
        },
        {
          "duration": 0.1041665625000121,
          "durationTicks": 26,
          "midi": 65,
          "name": "F4",
          "ticks": 50832,
          "time": 203.6536425,
          "velocity": 0.937007874015748
        },
        {
          "duration": 0.12820500000000834,
          "durationTicks": 32,
          "midi": 72,
          "name": "C5",
          "ticks": 50832,
          "time": 203.6536425,
          "velocity": 0.937007874015748
        },
        {
          "duration": 0.12820500000000834,
          "durationTicks": 32,
          "midi": 77,
          "name": "F5",
          "ticks": 50832,
          "time": 203.6536425,
          "velocity": 0.9291338582677166
        },
        {
          "duration": 0.12820500000000834,
          "durationTicks": 32,
          "midi": 29,
          "name": "F1",
          "ticks": 50880,
          "time": 203.84595,
          "velocity": 0.9133858267716536
        },
        {
          "duration": 0.12820500000000834,
          "durationTicks": 32,
          "midi": 41,
          "name": "F2",
          "ticks": 50880,
          "time": 203.84595,
          "velocity": 0.9133858267716536
        },
        {
          "duration": 0.11217937499998243,
          "durationTicks": 28,
          "midi": 65,
          "name": "F4",
          "ticks": 50880,
          "time": 203.84595,
          "velocity": 0.937007874015748
        },
        {
          "duration": 0.13621781249997866,
          "durationTicks": 34,
          "midi": 72,
          "name": "C5",
          "ticks": 50880,
          "time": 203.84595,
          "velocity": 0.937007874015748
        },
        {
          "duration": 0.1201921875000096,
          "durationTicks": 30,
          "midi": 77,
          "name": "F5",
          "ticks": 50880,
          "time": 203.84595,
          "velocity": 0.9212598425196851
        },
        {
          "duration": 0.5448712499999999,
          "durationTicks": 136,
          "midi": 29,
          "name": "F1",
          "ticks": 50928,
          "time": 204.0382575,
          "velocity": 0.889763779527559
        },
        {
          "duration": 0.5448712499999999,
          "durationTicks": 136,
          "midi": 41,
          "name": "F2",
          "ticks": 50928,
          "time": 204.0382575,
          "velocity": 0.9606299212598425
        },
        {
          "duration": 0.4326918750000175,
          "durationTicks": 108,
          "midi": 65,
          "name": "F4",
          "ticks": 50928,
          "time": 204.0382575,
          "velocity": 0.968503937007874
        },
        {
          "duration": 0.4326918750000175,
          "durationTicks": 108,
          "midi": 72,
          "name": "C5",
          "ticks": 50928,
          "time": 204.0382575,
          "velocity": 0.9133858267716536
        },
        {
          "duration": 0.41666625000002,
          "durationTicks": 104,
          "midi": 77,
          "name": "F5",
          "ticks": 50928,
          "time": 204.0382575,
          "velocity": 0.937007874015748
        },
        {
          "duration": 0.20032031250002547,
          "durationTicks": 50,
          "midi": 36,
          "name": "C2",
          "ticks": 51072,
          "time": 204.61517999999998,
          "velocity": 0.9448818897637795
        },
        {
          "duration": 0.07211531250001713,
          "durationTicks": 18,
          "midi": 60,
          "name": "C4",
          "ticks": 51072,
          "time": 204.61517999999998,
          "velocity": 0.937007874015748
        },
        {
          "duration": 0.152243437500033,
          "durationTicks": 38,
          "midi": 72,
          "name": "C5",
          "ticks": 51072,
          "time": 204.61517999999998,
          "velocity": 0.9448818897637795
        },
        {
          "duration": 0.16826906249997364,
          "durationTicks": 42,
          "midi": 29,
          "name": "F1",
          "ticks": 51168,
          "time": 204.999795,
          "velocity": 0.937007874015748
        },
        {
          "duration": 0.16826906249997364,
          "durationTicks": 42,
          "midi": 41,
          "name": "F2",
          "ticks": 51168,
          "time": 204.999795,
          "velocity": 0.9448818897637795
        },
        {
          "duration": 0.12019218749998117,
          "durationTicks": 30,
          "midi": 65,
          "name": "F4",
          "ticks": 51168,
          "time": 204.999795,
          "velocity": 0.9448818897637795
        },
        {
          "duration": 0.1442306249999774,
          "durationTicks": 36,
          "midi": 69,
          "name": "A4",
          "ticks": 51168,
          "time": 204.999795,
          "velocity": 0.9448818897637795
        },
        {
          "duration": 0.1442306249999774,
          "durationTicks": 36,
          "midi": 72,
          "name": "C5",
          "ticks": 51168,
          "time": 204.999795,
          "velocity": 0.9291338582677166
        },
        {
          "duration": 0.13621781249997866,
          "durationTicks": 34,
          "midi": 77,
          "name": "F5",
          "ticks": 51168,
          "time": 204.999795,
          "velocity": 0.9606299212598425
        },
        {
          "duration": 0.20833312499996737,
          "durationTicks": 52,
          "midi": 36,
          "name": "C2",
          "ticks": 51264,
          "time": 205.38441,
          "velocity": 0.9291338582677166
        },
        {
          "duration": 0.0881409374999862,
          "durationTicks": 22,
          "midi": 60,
          "name": "C4",
          "ticks": 51264,
          "time": 205.38441,
          "velocity": 0.952755905511811
        },
        {
          "duration": 0.1041665625000121,
          "durationTicks": 26,
          "midi": 64,
          "name": "E4",
          "ticks": 51264,
          "time": 205.38441,
          "velocity": 0.937007874015748
        },
        {
          "duration": 0.11217937499998243,
          "durationTicks": 28,
          "midi": 67,
          "name": "G4",
          "ticks": 51264,
          "time": 205.38441,
          "velocity": 0.9606299212598425
        },
        {
          "duration": 0.13621781249997866,
          "durationTicks": 34,
          "midi": 72,
          "name": "C5",
          "ticks": 51264,
          "time": 205.38441,
          "velocity": 0.952755905511811
        },
        {
          "duration": 0.5288456250000024,
          "durationTicks": 132,
          "midi": 29,
          "name": "F1",
          "ticks": 51360,
          "time": 205.769025,
          "velocity": 0.9212598425196851
        },
        {
          "duration": 0.5288456250000024,
          "durationTicks": 132,
          "midi": 41,
          "name": "F2",
          "ticks": 51360,
          "time": 205.769025,
          "velocity": 0.968503937007874
        },
        {
          "duration": 0.5048071875000062,
          "durationTicks": 126,
          "midi": 65,
          "name": "F4",
          "ticks": 51360,
          "time": 205.769025,
          "velocity": 0.937007874015748
        },
        {
          "duration": 0.5128200000000049,
          "durationTicks": 128,
          "midi": 69,
          "name": "A4",
          "ticks": 51360,
          "time": 205.769025,
          "velocity": 0.952755905511811
        },
        {
          "duration": 0.5048071875000062,
          "durationTicks": 126,
          "midi": 72,
          "name": "C5",
          "ticks": 51360,
          "time": 205.769025,
          "velocity": 0.9606299212598425
        },
        {
          "duration": 0.5128200000000049,
          "durationTicks": 128,
          "midi": 77,
          "name": "F5",
          "ticks": 51360,
          "time": 205.769025,
          "velocity": 0.968503937007874
        },
        {
          "duration": 0.12820500000000834,
          "durationTicks": 32,
          "midi": 65,
          "name": "F4",
          "ticks": 51792,
          "time": 207.49979249999998,
          "velocity": 0.937007874015748
        },
        {
          "duration": 0.12820500000000834,
          "durationTicks": 32,
          "midi": 72,
          "name": "C5",
          "ticks": 51792,
          "time": 207.49979249999998,
          "velocity": 0.9291338582677166
        },
        {
          "duration": 0.12820500000000834,
          "durationTicks": 32,
          "midi": 77,
          "name": "F5",
          "ticks": 51792,
          "time": 207.49979249999998,
          "velocity": 0.8740157480314961
        },
        {
          "duration": 0.13621781250000708,
          "durationTicks": 34,
          "midi": 65,
          "name": "F4",
          "ticks": 51840,
          "time": 207.69209999999998,
          "velocity": 0.9212598425196851
        },
        {
          "duration": 0.16025625000000332,
          "durationTicks": 40,
          "midi": 72,
          "name": "C5",
          "ticks": 51840,
          "time": 207.69209999999998,
          "velocity": 0.9212598425196851
        },
        {
          "duration": 0.152243437500033,
          "durationTicks": 38,
          "midi": 77,
          "name": "F5",
          "ticks": 51840,
          "time": 207.69209999999998,
          "velocity": 0.9212598425196851
        },
        {
          "duration": 0.1923074999999983,
          "durationTicks": 48,
          "midi": 65,
          "name": "F4",
          "ticks": 51888,
          "time": 207.88440749999998,
          "velocity": 0.9212598425196851
        },
        {
          "duration": 0.1923074999999983,
          "durationTicks": 48,
          "midi": 72,
          "name": "C5",
          "ticks": 51888,
          "time": 207.88440749999998,
          "velocity": 0.9212598425196851
        },
        {
          "duration": 0.09615375000001336,
          "durationTicks": 24,
          "midi": 77,
          "name": "F5",
          "ticks": 51888,
          "time": 207.88440749999998,
          "velocity": 0.9212598425196851
        },
        {
          "duration": 0.9214734375000262,
          "durationTicks": 230,
          "midi": 77,
          "name": "F5",
          "ticks": 51936,
          "time": 208.07671499999998,
          "velocity": 0.7716535433070866
        },
        {
          "duration": 0.11217937499998243,
          "durationTicks": 28,
          "midi": 65,
          "name": "F4",
          "ticks": 52176,
          "time": 209.0382525,
          "velocity": 0.937007874015748
        },
        {
          "duration": 0.12820500000000834,
          "durationTicks": 32,
          "midi": 72,
          "name": "C5",
          "ticks": 52176,
          "time": 209.0382525,
          "velocity": 0.937007874015748
        },
        {
          "duration": 0.12820500000000834,
          "durationTicks": 32,
          "midi": 77,
          "name": "F5",
          "ticks": 52176,
          "time": 209.0382525,
          "velocity": 0.8976377952755905
        },
        {
          "duration": 0.1923074999999983,
          "durationTicks": 48,
          "midi": 65,
          "name": "F4",
          "ticks": 52224,
          "time": 209.23056,
          "velocity": 0.9291338582677166
        },
        {
          "duration": 0.1923074999999983,
          "durationTicks": 48,
          "midi": 72,
          "name": "C5",
          "ticks": 52224,
          "time": 209.23056,
          "velocity": 0.9291338582677166
        },
        {
          "duration": 0.18429468749997113,
          "durationTicks": 46,
          "midi": 77,
          "name": "F5",
          "ticks": 52224,
          "time": 209.23056,
          "velocity": 0.9212598425196851
        },
        {
          "duration": 0.1923074999999983,
          "durationTicks": 48,
          "midi": 65,
          "name": "F4",
          "ticks": 52272,
          "time": 209.4228675,
          "velocity": 0.9212598425196851
        },
        {
          "duration": 0.1923074999999983,
          "durationTicks": 48,
          "midi": 72,
          "name": "C5",
          "ticks": 52272,
          "time": 209.4228675,
          "velocity": 0.9212598425196851
        },
        {
          "duration": 0.09615374999998494,
          "durationTicks": 24,
          "midi": 77,
          "name": "F5",
          "ticks": 52272,
          "time": 209.4228675,
          "velocity": 0.9212598425196851
        },
        {
          "duration": 0.9615374999999915,
          "durationTicks": 240,
          "midi": 77,
          "name": "F5",
          "ticks": 52320,
          "time": 209.615175,
          "velocity": 0.7401574803149606
        },
        {
          "duration": 0.1201921875000096,
          "durationTicks": 30,
          "midi": 77,
          "name": "F5",
          "ticks": 52608,
          "time": 210.76901999999998,
          "velocity": 0.9133858267716536
        },
        {
          "duration": 0.7772428125000204,
          "durationTicks": 194,
          "midi": 77,
          "name": "F5",
          "ticks": 52656,
          "time": 210.96132749999998,
          "velocity": 0.9133858267716536
        },
        {
          "duration": 1.8349340625000252,
          "durationTicks": 458,
          "midi": 75,
          "name": "D#5",
          "ticks": 52704,
          "time": 211.15363499999998,
          "velocity": 0.9133858267716536
        },
        {
          "duration": 1.1858962500000416,
          "durationTicks": 296,
          "midi": 72,
          "name": "C5",
          "ticks": 52752,
          "time": 211.34594249999998,
          "velocity": 0.84251968503937
        },
        {
          "duration": 1.2499987499999747,
          "durationTicks": 312,
          "midi": 68,
          "name": "G#4",
          "ticks": 52848,
          "time": 211.7305575,
          "velocity": 0.9291338582677166
        },
        {
          "duration": 0.8894221875000028,
          "durationTicks": 222,
          "midi": 65,
          "name": "F4",
          "ticks": 52944,
          "time": 212.1151725,
          "velocity": 0.9291338582677166
        },
        {
          "duration": 0.024038437499996235,
          "durationTicks": 6,
          "midi": 63,
          "name": "D#4",
          "ticks": 53040,
          "time": 212.4997875,
          "velocity": 0.9212598425196851
        },
        {
          "duration": 0.1602562499999749,
          "durationTicks": 40,
          "midi": 60,
          "name": "C4",
          "ticks": 53232,
          "time": 213.2690175,
          "velocity": 0.9133858267716536
        },
        {
          "duration": 0.1923074999999983,
          "durationTicks": 48,
          "midi": 67,
          "name": "G4",
          "ticks": 53232,
          "time": 213.2690175,
          "velocity": 0.9133858267716536
        },
        {
          "duration": 0.18429468749999955,
          "durationTicks": 46,
          "midi": 72,
          "name": "C5",
          "ticks": 53232,
          "time": 213.2690175,
          "velocity": 0.9133858267716536
        },
        {
          "duration": 0.14423062500000583,
          "durationTicks": 36,
          "midi": 59,
          "name": "B3",
          "ticks": 53328,
          "time": 213.6536325,
          "velocity": 0.8976377952755905
        },
        {
          "duration": 0.1923074999999983,
          "durationTicks": 48,
          "midi": 65,
          "name": "F4",
          "ticks": 53328,
          "time": 213.6536325,
          "velocity": 0.8976377952755905
        },
        {
          "duration": 0.1923074999999983,
          "durationTicks": 48,
          "midi": 71,
          "name": "B4",
          "ticks": 53328,
          "time": 213.6536325,
          "velocity": 0.8976377952755905
        },
        {
          "duration": 0.1923074999999983,
          "durationTicks": 48,
          "midi": 74,
          "name": "D5",
          "ticks": 53328,
          "time": 213.6536325,
          "velocity": 0.8976377952755905
        },
        {
          "duration": 0.18429468749999955,
          "durationTicks": 46,
          "midi": 63,
          "name": "D#4",
          "ticks": 53424,
          "time": 214.03824749999998,
          "velocity": 0.905511811023622
        },
        {
          "duration": 0.1923074999999983,
          "durationTicks": 48,
          "midi": 71,
          "name": "B4",
          "ticks": 53424,
          "time": 214.03824749999998,
          "velocity": 0.905511811023622
        },
        {
          "duration": 0.18429468749999955,
          "durationTicks": 46,
          "midi": 75,
          "name": "D#5",
          "ticks": 53424,
          "time": 214.03824749999998,
          "velocity": 0.905511811023622
        },
        {
          "duration": 0.152243437500033,
          "durationTicks": 38,
          "midi": 62,
          "name": "D4",
          "ticks": 53520,
          "time": 214.42286249999998,
          "velocity": 0.9133858267716536
        },
        {
          "duration": 0.1923074999999983,
          "durationTicks": 48,
          "midi": 67,
          "name": "G4",
          "ticks": 53520,
          "time": 214.42286249999998,
          "velocity": 0.9133858267716536
        },
        {
          "duration": 0.1923074999999983,
          "durationTicks": 48,
          "midi": 74,
          "name": "D5",
          "ticks": 53520,
          "time": 214.42286249999998,
          "velocity": 0.9133858267716536
        },
        {
          "duration": 0.1923074999999983,
          "durationTicks": 48,
          "midi": 77,
          "name": "F5",
          "ticks": 53520,
          "time": 214.42286249999998,
          "velocity": 0.9133858267716536
        },
        {
          "duration": 0.1923074999999983,
          "durationTicks": 48,
          "midi": 59,
          "name": "B3",
          "ticks": 53616,
          "time": 214.8074775,
          "velocity": 0.9448818897637795
        },
        {
          "duration": 0.16826906249997364,
          "durationTicks": 42,
          "midi": 68,
          "name": "G#4",
          "ticks": 53616,
          "time": 214.8074775,
          "velocity": 0.9448818897637795
        },
        {
          "duration": 0.1923074999999983,
          "durationTicks": 48,
          "midi": 74,
          "name": "D5",
          "ticks": 53616,
          "time": 214.8074775,
          "velocity": 0.9448818897637795
        },
        {
          "duration": 0.16826906249997364,
          "durationTicks": 42,
          "midi": 80,
          "name": "G#5",
          "ticks": 53616,
          "time": 214.8074775,
          "velocity": 0.9448818897637795
        },
        {
          "duration": 0.1923074999999983,
          "durationTicks": 48,
          "midi": 55,
          "name": "G3",
          "ticks": 53712,
          "time": 215.1920925,
          "velocity": 0.9448818897637795
        },
        {
          "duration": 0.16826906250000206,
          "durationTicks": 42,
          "midi": 67,
          "name": "G4",
          "ticks": 53712,
          "time": 215.1920925,
          "velocity": 0.9448818897637795
        },
        {
          "duration": 0.1923074999999983,
          "durationTicks": 48,
          "midi": 77,
          "name": "F5",
          "ticks": 53712,
          "time": 215.1920925,
          "velocity": 0.9448818897637795
        },
        {
          "duration": 0.1923074999999983,
          "durationTicks": 48,
          "midi": 83,
          "name": "B5",
          "ticks": 53712,
          "time": 215.1920925,
          "velocity": 0.9448818897637795
        },
        {
          "duration": 0.21634593749999453,
          "durationTicks": 54,
          "midi": 24,
          "name": "C1",
          "ticks": 53808,
          "time": 215.5767075,
          "velocity": 0.9448818897637795
        },
        {
          "duration": 0.1923074999999983,
          "durationTicks": 48,
          "midi": 48,
          "name": "C3",
          "ticks": 53808,
          "time": 215.5767075,
          "velocity": 0.9448818897637795
        },
        {
          "duration": 0.20032031249999704,
          "durationTicks": 50,
          "midi": 60,
          "name": "C4",
          "ticks": 53808,
          "time": 215.5767075,
          "velocity": 0.9448818897637795
        },
        {
          "duration": 0.21634593749999453,
          "durationTicks": 54,
          "midi": 72,
          "name": "C5",
          "ticks": 53808,
          "time": 215.5767075,
          "velocity": 0.9448818897637795
        },
        {
          "duration": 0.08012812500001587,
          "durationTicks": 20,
          "midi": 67,
          "name": "G4",
          "ticks": 54096,
          "time": 216.7305525,
          "velocity": 0.889763779527559
        },
        {
          "duration": 0.18429468749999955,
          "durationTicks": 46,
          "midi": 67,
          "name": "G4",
          "ticks": 54144,
          "time": 216.92286,
          "velocity": 0.8503937007874016
        },
        {
          "duration": 0.16826906250000206,
          "durationTicks": 42,
          "midi": 69,
          "name": "A4",
          "ticks": 54192,
          "time": 217.11516749999998,
          "velocity": 0.9291338582677166
        },
        {
          "duration": 0.40865343750002125,
          "durationTicks": 102,
          "midi": 67,
          "name": "G4",
          "ticks": 54240,
          "time": 217.30747499999998,
          "velocity": 0.9291338582677166
        },
        {
          "duration": 0.09615375000001336,
          "durationTicks": 24,
          "midi": 48,
          "name": "C3",
          "ticks": 54288,
          "time": 217.49978249999998,
          "velocity": 0.9448818897637795
        },
        {
          "duration": 0.08012812500001587,
          "durationTicks": 20,
          "midi": 55,
          "name": "G3",
          "ticks": 54288,
          "time": 217.49978249999998,
          "velocity": 0.9448818897637795
        },
        {
          "duration": 0.1201921875000096,
          "durationTicks": 30,
          "midi": 64,
          "name": "E4",
          "ticks": 54288,
          "time": 217.49978249999998,
          "velocity": 0.937007874015748
        },
        {
          "duration": 0.08012812500001587,
          "durationTicks": 20,
          "midi": 48,
          "name": "C3",
          "ticks": 54336,
          "time": 217.69208999999998,
          "velocity": 0.889763779527559
        },
        {
          "duration": 0.08012812500001587,
          "durationTicks": 20,
          "midi": 55,
          "name": "G3",
          "ticks": 54336,
          "time": 217.69208999999998,
          "velocity": 0.9133858267716536
        },
        {
          "duration": 0.08012812500001587,
          "durationTicks": 20,
          "midi": 64,
          "name": "E4",
          "ticks": 54336,
          "time": 217.69208999999998,
          "velocity": 0.9291338582677166
        },
        {
          "duration": 0.08012812500001587,
          "durationTicks": 20,
          "midi": 50,
          "name": "D3",
          "ticks": 54384,
          "time": 217.88439749999998,
          "velocity": 0.9606299212598425
        },
        {
          "duration": 0.08012812500001587,
          "durationTicks": 20,
          "midi": 57,
          "name": "A3",
          "ticks": 54384,
          "time": 217.88439749999998,
          "velocity": 0.937007874015748
        },
        {
          "duration": 0.08012812500001587,
          "durationTicks": 20,
          "midi": 65,
          "name": "F4",
          "ticks": 54384,
          "time": 217.88439749999998,
          "velocity": 0.905511811023622
        },
        {
          "duration": 0.08012812500001587,
          "durationTicks": 20,
          "midi": 48,
          "name": "C3",
          "ticks": 54432,
          "time": 218.076705,
          "velocity": 0.8503937007874016
        },
        {
          "duration": 0.08012812500001587,
          "durationTicks": 20,
          "midi": 55,
          "name": "G3",
          "ticks": 54432,
          "time": 218.076705,
          "velocity": 0.952755905511811
        },
        {
          "duration": 0.08012812500001587,
          "durationTicks": 20,
          "midi": 64,
          "name": "E4",
          "ticks": 54432,
          "time": 218.076705,
          "velocity": 0.9448818897637795
        },
        {
          "duration": 0.08012812500001587,
          "durationTicks": 20,
          "midi": 47,
          "name": "B2",
          "ticks": 54480,
          "time": 218.2690125,
          "velocity": 0.937007874015748
        },
        {
          "duration": 0.08012812500001587,
          "durationTicks": 20,
          "midi": 53,
          "name": "F3",
          "ticks": 54480,
          "time": 218.2690125,
          "velocity": 0.9291338582677166
        },
        {
          "duration": 0.08012812500001587,
          "durationTicks": 20,
          "midi": 62,
          "name": "D4",
          "ticks": 54480,
          "time": 218.2690125,
          "velocity": 0.937007874015748
        },
        {
          "duration": 0.08012812500001587,
          "durationTicks": 20,
          "midi": 45,
          "name": "A2",
          "ticks": 54528,
          "time": 218.46132,
          "velocity": 0.937007874015748
        },
        {
          "duration": 0.08012812500001587,
          "durationTicks": 20,
          "midi": 52,
          "name": "E3",
          "ticks": 54528,
          "time": 218.46132,
          "velocity": 0.952755905511811
        },
        {
          "duration": 0.0721153124999887,
          "durationTicks": 18,
          "midi": 60,
          "name": "C4",
          "ticks": 54528,
          "time": 218.46132,
          "velocity": 0.937007874015748
        },
        {
          "duration": 0.24038437499999077,
          "durationTicks": 60,
          "midi": 43,
          "name": "G2",
          "ticks": 54576,
          "time": 218.6536275,
          "velocity": 0.968503937007874
        },
        {
          "duration": 0.22435874999999328,
          "durationTicks": 56,
          "midi": 50,
          "name": "D3",
          "ticks": 54576,
          "time": 218.6536275,
          "velocity": 0.968503937007874
        },
        {
          "duration": 0.24038437499999077,
          "durationTicks": 60,
          "midi": 59,
          "name": "B3",
          "ticks": 54576,
          "time": 218.6536275,
          "velocity": 0.9606299212598425
        },
        {
          "duration": 0.44871749999998656,
          "durationTicks": 112,
          "midi": 55,
          "name": "G3",
          "ticks": 54768,
          "time": 219.4228575,
          "velocity": 0.937007874015748
        },
        {
          "duration": 0.4567303124999853,
          "durationTicks": 114,
          "midi": 60,
          "name": "C4",
          "ticks": 54768,
          "time": 219.4228575,
          "velocity": 0.937007874015748
        },
        {
          "duration": 0.09615375000001336,
          "durationTicks": 24,
          "midi": 55,
          "name": "G3",
          "ticks": 54912,
          "time": 219.99978,
          "velocity": 0.9212598425196851
        },
        {
          "duration": 0.11217937499998243,
          "durationTicks": 28,
          "midi": 60,
          "name": "C4",
          "ticks": 54912,
          "time": 219.99978,
          "velocity": 0.8661417322834646
        },
        {
          "duration": 0.08012812500001587,
          "durationTicks": 20,
          "midi": 53,
          "name": "F3",
          "ticks": 54960,
          "time": 220.19208749999999,
          "velocity": 0.937007874015748
        },
        {
          "duration": 0.0881409374999862,
          "durationTicks": 22,
          "midi": 57,
          "name": "A3",
          "ticks": 54960,
          "time": 220.19208749999999,
          "velocity": 0.937007874015748
        },
        {
          "duration": 0.12820500000000834,
          "durationTicks": 32,
          "midi": 60,
          "name": "C4",
          "ticks": 54960,
          "time": 220.19208749999999,
          "velocity": 0.9212598425196851
        },
        {
          "duration": 0.07211531250001713,
          "durationTicks": 18,
          "midi": 53,
          "name": "F3",
          "ticks": 55056,
          "time": 220.57670249999998,
          "velocity": 0.937007874015748
        },
        {
          "duration": 0.0881409374999862,
          "durationTicks": 22,
          "midi": 57,
          "name": "A3",
          "ticks": 55056,
          "time": 220.57670249999998,
          "velocity": 0.937007874015748
        },
        {
          "duration": 0.1041665625000121,
          "durationTicks": 26,
          "midi": 60,
          "name": "C4",
          "ticks": 55056,
          "time": 220.57670249999998,
          "velocity": 0.937007874015748
        },
        {
          "duration": 0.08012812500001587,
          "durationTicks": 20,
          "midi": 53,
          "name": "F3",
          "ticks": 55104,
          "time": 220.76900999999998,
          "velocity": 0.8976377952755905
        },
        {
          "duration": 0.06410249999998996,
          "durationTicks": 16,
          "midi": 57,
          "name": "A3",
          "ticks": 55104,
          "time": 220.76900999999998,
          "velocity": 0.8976377952755905
        },
        {
          "duration": 0.11217937499998243,
          "durationTicks": 28,
          "midi": 60,
          "name": "C4",
          "ticks": 55104,
          "time": 220.76900999999998,
          "velocity": 0.8740157480314961
        },
        {
          "duration": 0.07211531250001713,
          "durationTicks": 18,
          "midi": 52,
          "name": "E3",
          "ticks": 55152,
          "time": 220.96131749999998,
          "velocity": 0.9291338582677166
        },
        {
          "duration": 0.0881409374999862,
          "durationTicks": 22,
          "midi": 56,
          "name": "G#3",
          "ticks": 55152,
          "time": 220.96131749999998,
          "velocity": 0.9291338582677166
        },
        {
          "duration": 0.11217937500001085,
          "durationTicks": 28,
          "midi": 59,
          "name": "B3",
          "ticks": 55152,
          "time": 220.96131749999998,
          "velocity": 0.9291338582677166
        },
        {
          "duration": 0.06410249999996154,
          "durationTicks": 16,
          "midi": 52,
          "name": "E3",
          "ticks": 55200,
          "time": 221.153625,
          "velocity": 0.8346456692913385
        },
        {
          "duration": 0.09615374999998494,
          "durationTicks": 24,
          "midi": 56,
          "name": "G#3",
          "ticks": 55200,
          "time": 221.153625,
          "velocity": 0.84251968503937
        },
        {
          "duration": 0.09615374999998494,
          "durationTicks": 24,
          "midi": 59,
          "name": "B3",
          "ticks": 55200,
          "time": 221.153625,
          "velocity": 0.8661417322834646
        },
        {
          "duration": 0.08012812500001587,
          "durationTicks": 20,
          "midi": 52,
          "name": "E3",
          "ticks": 55248,
          "time": 221.3459325,
          "velocity": 0.9133858267716536
        },
        {
          "duration": 0.09615374999998494,
          "durationTicks": 24,
          "midi": 56,
          "name": "G#3",
          "ticks": 55248,
          "time": 221.3459325,
          "velocity": 0.9133858267716536
        },
        {
          "duration": 0.1041665625000121,
          "durationTicks": 26,
          "midi": 59,
          "name": "B3",
          "ticks": 55248,
          "time": 221.3459325,
          "velocity": 0.9212598425196851
        },
        {
          "duration": 0.08012812500001587,
          "durationTicks": 20,
          "midi": 52,
          "name": "E3",
          "ticks": 55296,
          "time": 221.53824,
          "velocity": 0.9133858267716536
        },
        {
          "duration": 0.12019218749998117,
          "durationTicks": 30,
          "midi": 56,
          "name": "G#3",
          "ticks": 55296,
          "time": 221.53824,
          "velocity": 0.9133858267716536
        },
        {
          "duration": 0.12820500000000834,
          "durationTicks": 32,
          "midi": 59,
          "name": "B3",
          "ticks": 55296,
          "time": 221.53824,
          "velocity": 0.905511811023622
        },
        {
          "duration": 0.13621781249997866,
          "durationTicks": 34,
          "midi": 52,
          "name": "E3",
          "ticks": 55344,
          "time": 221.7305475,
          "velocity": 0.9291338582677166
        },
        {
          "duration": 0.15224343750000457,
          "durationTicks": 38,
          "midi": 57,
          "name": "A3",
          "ticks": 55344,
          "time": 221.7305475,
          "velocity": 0.937007874015748
        },
        {
          "duration": 0.16826906250000206,
          "durationTicks": 42,
          "midi": 60,
          "name": "C4",
          "ticks": 55344,
          "time": 221.7305475,
          "velocity": 0.9133858267716536
        },
        {
          "duration": 0.15224343750000457,
          "durationTicks": 38,
          "midi": 52,
          "name": "E3",
          "ticks": 55440,
          "time": 222.1151625,
          "velocity": 0.9448818897637795
        },
        {
          "duration": 0.1762818750000008,
          "durationTicks": 44,
          "midi": 57,
          "name": "A3",
          "ticks": 55440,
          "time": 222.1151625,
          "velocity": 0.9606299212598425
        },
        {
          "duration": 0.16826906250000206,
          "durationTicks": 42,
          "midi": 60,
          "name": "C4",
          "ticks": 55440,
          "time": 222.1151625,
          "velocity": 0.9291338582677166
        },
        {
          "duration": 1.498395937500021,
          "durationTicks": 374,
          "midi": 52,
          "name": "E3",
          "ticks": 55536,
          "time": 222.4997775,
          "velocity": 0.9291338582677166
        },
        {
          "duration": 4.270829062499985,
          "durationTicks": 1066,
          "midi": 55,
          "name": "G3",
          "ticks": 55536,
          "time": 222.4997775,
          "velocity": 0.937007874015748
        },
        {
          "duration": 4.222752187499992,
          "durationTicks": 1054,
          "midi": 58,
          "name": "A#3",
          "ticks": 55536,
          "time": 222.4997775,
          "velocity": 0.8110236220472441
        },
        {
          "duration": 2.7724331250000205,
          "durationTicks": 692,
          "midi": 60,
          "name": "C4",
          "ticks": 55920,
          "time": 224.03823749999998,
          "velocity": 0.84251968503937
        },
        {
          "duration": 1.5544856249999839,
          "durationTicks": 388,
          "midi": 64,
          "name": "E4",
          "ticks": 55920,
          "time": 224.03823749999998,
          "velocity": 0.9133858267716536
        },
        {
          "duration": 1.5785240624999801,
          "durationTicks": 394,
          "midi": 67,
          "name": "G4",
          "ticks": 56304,
          "time": 225.5766975,
          "velocity": 0.889763779527559
        },
        {
          "duration": 0.942181875000017,
          "durationTicks": 324,
          "midi": 60,
          "name": "C4",
          "ticks": 56688,
          "time": 227.11515749999998,
          "velocity": 0.937007874015748
        },
        {
          "duration": 0.942181875000017,
          "durationTicks": 324,
          "midi": 72,
          "name": "C5",
          "ticks": 56688,
          "time": 227.11515749999998,
          "velocity": 0.889763779527559
        },
        {
          "duration": 0.9218896875000269,
          "durationTicks": 314,
          "midi": 84,
          "name": "C6",
          "ticks": 56688,
          "time": 227.11515749999998,
          "velocity": 0.905511811023622
        },
        {
          "duration": 0.7692299999999932,
          "durationTicks": 192,
          "midi": 43,
          "name": "G2",
          "ticks": 79872,
          "time": 276.723,
          "velocity": 0.9133858267716536
        },
        {
          "duration": 0.7932684374999894,
          "durationTicks": 198,
          "midi": 55,
          "name": "G3",
          "ticks": 79872,
          "time": 276.723,
          "velocity": 0.905511811023622
        },
        {
          "duration": 1.113780937499996,
          "durationTicks": 278,
          "midi": 67,
          "name": "G4",
          "ticks": 79872,
          "time": 276.723,
          "velocity": 0.8188976377952756
        },
        {
          "duration": 0.6971146875000045,
          "durationTicks": 174,
          "midi": 71,
          "name": "B4",
          "ticks": 79872,
          "time": 276.723,
          "velocity": 0.8110236220472441
        },
        {
          "duration": 0.7772428124999919,
          "durationTicks": 194,
          "midi": 74,
          "name": "D5",
          "ticks": 79872,
          "time": 276.723,
          "velocity": 0.7952755905511811
        },
        {
          "duration": 1.0897424999999998,
          "durationTicks": 272,
          "midi": 79,
          "name": "G5",
          "ticks": 79872,
          "time": 276.723,
          "velocity": 0.889763779527559
        },
        {
          "duration": 0.3124996875000079,
          "durationTicks": 78,
          "midi": 48,
          "name": "C3",
          "ticks": 80064,
          "time": 277.49223,
          "velocity": 0.9212598425196851
        },
        {
          "duration": 0.36057656250000036,
          "durationTicks": 90,
          "midi": 72,
          "name": "C5",
          "ticks": 80064,
          "time": 277.49223,
          "velocity": 0.9133858267716536
        },
        {
          "duration": 0.3525637500000016,
          "durationTicks": 88,
          "midi": 75,
          "name": "D#5",
          "ticks": 80064,
          "time": 277.49223,
          "velocity": 0.7952755905511811
        },
        {
          "duration": 0.7291659374999995,
          "durationTicks": 182,
          "midi": 43,
          "name": "G2",
          "ticks": 80256,
          "time": 278.26146,
          "velocity": 0.9133858267716536
        },
        {
          "duration": 0.7612171874999945,
          "durationTicks": 190,
          "midi": 55,
          "name": "G3",
          "ticks": 80256,
          "time": 278.26146,
          "velocity": 0.9291338582677166
        },
        {
          "duration": 1.1698706249999873,
          "durationTicks": 292,
          "midi": 67,
          "name": "G4",
          "ticks": 80256,
          "time": 278.26146,
          "velocity": 0.8740157480314961
        },
        {
          "duration": 0.6330121875000145,
          "durationTicks": 158,
          "midi": 71,
          "name": "B4",
          "ticks": 80256,
          "time": 278.26146,
          "velocity": 0.8740157480314961
        },
        {
          "duration": 0.7532043749999957,
          "durationTicks": 188,
          "midi": 74,
          "name": "D5",
          "ticks": 80256,
          "time": 278.26146,
          "velocity": 0.8818897637795275
        },
        {
          "duration": 1.0176271875000111,
          "durationTicks": 254,
          "midi": 79,
          "name": "G5",
          "ticks": 80256,
          "time": 278.26146,
          "velocity": 0.905511811023622
        },
        {
          "duration": 0.30448687500000915,
          "durationTicks": 76,
          "midi": 48,
          "name": "C3",
          "ticks": 80448,
          "time": 279.03069,
          "velocity": 0.937007874015748
        },
        {
          "duration": 0.4166662499999916,
          "durationTicks": 104,
          "midi": 72,
          "name": "C5",
          "ticks": 80448,
          "time": 279.03069,
          "velocity": 0.905511811023622
        },
        {
          "duration": 0.4887815624999803,
          "durationTicks": 122,
          "midi": 75,
          "name": "D#5",
          "ticks": 80448,
          "time": 279.03069,
          "velocity": 0.8976377952755905
        },
        {
          "duration": 0.43269187499998907,
          "durationTicks": 108,
          "midi": 46,
          "name": "A#2",
          "ticks": 80640,
          "time": 279.79992,
          "velocity": 0.8661417322834646
        },
        {
          "duration": 0.5128200000000334,
          "durationTicks": 128,
          "midi": 58,
          "name": "A#3",
          "ticks": 80640,
          "time": 279.79992,
          "velocity": 0.9291338582677166
        },
        {
          "duration": 0.6570506250000108,
          "durationTicks": 164,
          "midi": 65,
          "name": "F4",
          "ticks": 80640,
          "time": 279.79992,
          "velocity": 0.9291338582677166
        },
        {
          "duration": 1.4022421875000077,
          "durationTicks": 350,
          "midi": 70,
          "name": "A#4",
          "ticks": 80640,
          "time": 279.79992,
          "velocity": 0.905511811023622
        },
        {
          "duration": 0.7692299999999932,
          "durationTicks": 192,
          "midi": 74,
          "name": "D5",
          "ticks": 80640,
          "time": 279.79992,
          "velocity": 0.9133858267716536
        },
        {
          "duration": 0.8173068749999857,
          "durationTicks": 204,
          "midi": 77,
          "name": "F5",
          "ticks": 80640,
          "time": 279.79992,
          "velocity": 0.937007874015748
        },
        {
          "duration": 0.7852556249999907,
          "durationTicks": 196,
          "midi": 51,
          "name": "D#3",
          "ticks": 80832,
          "time": 280.56915,
          "velocity": 0.9133858267716536
        },
        {
          "duration": 0.5689096875000246,
          "durationTicks": 142,
          "midi": 58,
          "name": "A#3",
          "ticks": 80832,
          "time": 280.56915,
          "velocity": 0.905511811023622
        },
        {
          "duration": 0.745191562499997,
          "durationTicks": 186,
          "midi": 63,
          "name": "D#4",
          "ticks": 80832,
          "time": 280.56915,
          "velocity": 0.9212598425196851
        },
        {
          "duration": 0.5849353125000221,
          "durationTicks": 146,
          "midi": 67,
          "name": "G4",
          "ticks": 80832,
          "time": 280.56915,
          "velocity": 0.8976377952755905
        },
        {
          "duration": 0.7772428124999919,
          "durationTicks": 194,
          "midi": 75,
          "name": "D#5",
          "ticks": 80832,
          "time": 280.56915,
          "velocity": 0.8818897637795275
        },
        {
          "duration": 0.45673031250004215,
          "durationTicks": 114,
          "midi": 79,
          "name": "G5",
          "ticks": 80928,
          "time": 280.953765,
          "velocity": 0.8818897637795275
        },
        {
          "duration": 3.0769200000000296,
          "durationTicks": 768,
          "midi": 62,
          "name": "D4",
          "ticks": 81024,
          "time": 281.33838,
          "velocity": 0.8976377952755905
        },
        {
          "duration": 1.1939090625000404,
          "durationTicks": 298,
          "midi": 72,
          "name": "C5",
          "ticks": 81024,
          "time": 281.33838,
          "velocity": 0.8976377952755905
        },
        {
          "duration": 3.0769200000000296,
          "durationTicks": 768,
          "midi": 74,
          "name": "D5",
          "ticks": 81024,
          "time": 281.33838,
          "velocity": 0.8976377952755905
        },
        {
          "duration": 0.801281250000045,
          "durationTicks": 200,
          "midi": 78,
          "name": "F#5",
          "ticks": 81024,
          "time": 281.33838,
          "velocity": 0.8661417322834646
        },
        {
          "duration": 2.3076899999999796,
          "durationTicks": 576,
          "midi": 79,
          "name": "G5",
          "ticks": 81216,
          "time": 282.10761,
          "velocity": 0.8740157480314961
        },
        {
          "duration": 0.19230749999996988,
          "durationTicks": 48,
          "midi": 81,
          "name": "A5",
          "ticks": 81312,
          "time": 282.492225,
          "velocity": 0.8818897637795275
        },
        {
          "duration": 1.5384599999999864,
          "durationTicks": 384,
          "midi": 82,
          "name": "A#5",
          "ticks": 81408,
          "time": 282.87684,
          "velocity": 0.9133858267716536
        },
        {
          "duration": 1.2900628124999685,
          "durationTicks": 322,
          "midi": 60,
          "name": "C4",
          "ticks": 81792,
          "time": 284.4153,
          "velocity": 0.8818897637795275
        },
        {
          "duration": 1.2179474999999798,
          "durationTicks": 304,
          "midi": 63,
          "name": "D#4",
          "ticks": 81792,
          "time": 284.4153,
          "velocity": 0.8818897637795275
        },
        {
          "duration": 1.5624984374999826,
          "durationTicks": 390,
          "midi": 68,
          "name": "G#4",
          "ticks": 81792,
          "time": 284.4153,
          "velocity": 0.8818897637795275
        },
        {
          "duration": 0.7692299999999932,
          "durationTicks": 192,
          "midi": 72,
          "name": "C5",
          "ticks": 81792,
          "time": 284.4153,
          "velocity": 0.8818897637795275
        },
        {
          "duration": 0.7692299999999932,
          "durationTicks": 192,
          "midi": 72,
          "name": "C5",
          "ticks": 81984,
          "time": 285.18453,
          "velocity": 0.889763779527559
        },
        {
          "duration": 0.3685893749999991,
          "durationTicks": 92,
          "midi": 74,
          "name": "D5",
          "ticks": 82080,
          "time": 285.569145,
          "velocity": 0.8661417322834646
        },
        {
          "duration": 1.5384599999999864,
          "durationTicks": 384,
          "midi": 63,
          "name": "D#4",
          "ticks": 82176,
          "time": 285.95376,
          "velocity": 0.8976377952755905
        },
        {
          "duration": 1.5384599999999864,
          "durationTicks": 384,
          "midi": 67,
          "name": "G4",
          "ticks": 82176,
          "time": 285.95376,
          "velocity": 0.8976377952755905
        },
        {
          "duration": 1.5384599999999864,
          "durationTicks": 384,
          "midi": 70,
          "name": "A#4",
          "ticks": 82176,
          "time": 285.95376,
          "velocity": 0.8976377952755905
        },
        {
          "duration": 0.43269187499998907,
          "durationTicks": 108,
          "midi": 79,
          "name": "G5",
          "ticks": 85248,
          "time": 298.26144,
          "velocity": 0.8188976377952756
        },
        {
          "duration": 0.3285253125000054,
          "durationTicks": 82,
          "midi": 77,
          "name": "F5",
          "ticks": 85344,
          "time": 298.646055,
          "velocity": 0.8661417322834646
        },
        {
          "duration": 0.44871749999998656,
          "durationTicks": 112,
          "midi": 77,
          "name": "F5",
          "ticks": 85440,
          "time": 299.03067,
          "velocity": 0.9133858267716536
        },
        {
          "duration": 0.37660218749999785,
          "durationTicks": 94,
          "midi": 75,
          "name": "D#5",
          "ticks": 85536,
          "time": 299.415285,
          "velocity": 0.8818897637795275
        },
        {
          "duration": 0.4006406249999941,
          "durationTicks": 100,
          "midi": 75,
          "name": "D#5",
          "ticks": 85632,
          "time": 299.7999,
          "velocity": 0.8740157480314961
        },
        {
          "duration": 0.7852556250000475,
          "durationTicks": 196,
          "midi": 72,
          "name": "C5",
          "ticks": 85728,
          "time": 300.184515,
          "velocity": 0.8976377952755905
        },
        {
          "duration": 0.3766021875000547,
          "durationTicks": 94,
          "midi": 74,
          "name": "D5",
          "ticks": 85920,
          "time": 300.95374499999997,
          "velocity": 0.8818897637795275
        },
        {
          "duration": 6.145827187500004,
          "durationTicks": 1534,
          "midi": 63,
          "name": "D#4",
          "ticks": 86016,
          "time": 301.33835999999997,
          "velocity": 0.7559055118110236
        },
        {
          "duration": 1.3381396875000178,
          "durationTicks": 334,
          "midi": 67,
          "name": "G4",
          "ticks": 86016,
          "time": 301.33835999999997,
          "velocity": 0.5118110236220472
        },
        {
          "duration": 1.514421562500047,
          "durationTicks": 378,
          "midi": 75,
          "name": "D#5",
          "ticks": 86016,
          "time": 301.33835999999997,
          "velocity": 0.8110236220472441
        },
        {
          "duration": 1.4743574999999964,
          "durationTicks": 368,
          "midi": 68,
          "name": "G#4",
          "ticks": 86400,
          "time": 302.87682,
          "velocity": 0.8740157480314961
        },
        {
          "duration": 0.46474312499998405,
          "durationTicks": 116,
          "midi": 72,
          "name": "C5",
          "ticks": 86400,
          "time": 302.87682,
          "velocity": 0.8740157480314961
        },
        {
          "duration": 0.5849353124999652,
          "durationTicks": 146,
          "midi": 74,
          "name": "D5",
          "ticks": 86496,
          "time": 303.261435,
          "velocity": 0.8661417322834646
        },
        {
          "duration": 0.40865343749999283,
          "durationTicks": 102,
          "midi": 72,
          "name": "C5",
          "ticks": 86592,
          "time": 303.64605,
          "velocity": 0.8661417322834646
        },
        {
          "duration": 0.37660218749999785,
          "durationTicks": 94,
          "midi": 74,
          "name": "D5",
          "ticks": 86688,
          "time": 304.030665,
          "velocity": 0.7007874015748031
        },
        {
          "duration": 1.5865368749999789,
          "durationTicks": 396,
          "midi": 67,
          "name": "G4",
          "ticks": 86784,
          "time": 304.41528,
          "velocity": 0.7559055118110236
        },
        {
          "duration": 1.5384599999999864,
          "durationTicks": 384,
          "midi": 70,
          "name": "A#4",
          "ticks": 86784,
          "time": 304.41528,
          "velocity": 0.7952755905511811
        },
        {
          "duration": 1.6266009375000294,
          "durationTicks": 406,
          "midi": 66,
          "name": "F#4",
          "ticks": 87168,
          "time": 305.95374,
          "velocity": 0.8661417322834646
        },
        {
          "duration": 0.47275593750003964,
          "durationTicks": 118,
          "midi": 72,
          "name": "C5",
          "ticks": 87168,
          "time": 305.95374,
          "velocity": 0.8110236220472441
        },
        {
          "duration": 0.3525637500000016,
          "durationTicks": 88,
          "midi": 74,
          "name": "D5",
          "ticks": 87264,
          "time": 306.338355,
          "velocity": 0.8818897637795275
        },
        {
          "duration": 0.5208328125000321,
          "durationTicks": 130,
          "midi": 72,
          "name": "C5",
          "ticks": 87360,
          "time": 306.72297,
          "velocity": 0.8503937007874016
        },
        {
          "duration": 1.9631390625000336,
          "durationTicks": 490,
          "midi": 74,
          "name": "D5",
          "ticks": 87456,
          "time": 307.107585,
          "velocity": 0.7874015748031497
        },
        {
          "duration": 0.040064062499993724,
          "durationTicks": 10,
          "midi": 62,
          "name": "D4",
          "ticks": 87552,
          "time": 307.4922,
          "velocity": 0.889763779527559
        },
        {
          "duration": 2.892625312499945,
          "durationTicks": 722,
          "midi": 65,
          "name": "F4",
          "ticks": 87552,
          "time": 307.4922,
          "velocity": 0.5590551181102362
        },
        {
          "duration": 1.4663446874999408,
          "durationTicks": 366,
          "midi": 70,
          "name": "A#4",
          "ticks": 87552,
          "time": 307.4922,
          "velocity": 0.8346456692913385
        },
        {
          "duration": 1.5945496874999776,
          "durationTicks": 398,
          "midi": 61,
          "name": "C#4",
          "ticks": 87936,
          "time": 309.03066,
          "velocity": 0.9133858267716536
        },
        {
          "duration": 0.4407046874999878,
          "durationTicks": 110,
          "midi": 70,
          "name": "A#4",
          "ticks": 87936,
          "time": 309.03066,
          "velocity": 0.8661417322834646
        },
        {
          "duration": 0.3525637500000016,
          "durationTicks": 88,
          "midi": 68,
          "name": "G#4",
          "ticks": 88032,
          "time": 309.415275,
          "velocity": 0.8818897637795275
        },
        {
          "duration": 0.3124996875000079,
          "durationTicks": 78,
          "midi": 68,
          "name": "G#4",
          "ticks": 88128,
          "time": 309.79989,
          "velocity": 0.9133858267716536
        },
        {
          "duration": 2.323715624999977,
          "durationTicks": 580,
          "midi": 67,
          "name": "G4",
          "ticks": 88224,
          "time": 310.184505,
          "velocity": 0.8976377952755905
        },
        {
          "duration": 3.50159906250002,
          "durationTicks": 874,
          "midi": 60,
          "name": "C4",
          "ticks": 88320,
          "time": 310.56912,
          "velocity": 0.8740157480314961
        },
        {
          "duration": 1.5945496874999776,
          "durationTicks": 398,
          "midi": 64,
          "name": "E4",
          "ticks": 88320,
          "time": 310.56912,
          "velocity": 0.8346456692913385
        },
        {
          "duration": 0.43269187499998907,
          "durationTicks": 108,
          "midi": 70,
          "name": "A#4",
          "ticks": 88704,
          "time": 312.10758,
          "velocity": 0.7952755905511811
        },
        {
          "duration": 0.3685893749999991,
          "durationTicks": 92,
          "midi": 68,
          "name": "G#4",
          "ticks": 88800,
          "time": 312.492195,
          "velocity": 0.889763779527559
        },
        {
          "duration": 0.37660218749999785,
          "durationTicks": 94,
          "midi": 68,
          "name": "G#4",
          "ticks": 88896,
          "time": 312.87681,
          "velocity": 0.9212598425196851
        },
        {
          "duration": 0.32051250000000664,
          "durationTicks": 80,
          "midi": 67,
          "name": "G4",
          "ticks": 88992,
          "time": 313.261425,
          "velocity": 0.9212598425196851
        },
        {
          "duration": 1.5865368750000357,
          "durationTicks": 396,
          "midi": 67,
          "name": "G4",
          "ticks": 89088,
          "time": 313.64603999999997,
          "velocity": 0.9133858267716536
        },
        {
          "duration": 0.46474312499998405,
          "durationTicks": 116,
          "midi": 64,
          "name": "E4",
          "ticks": 89184,
          "time": 314.030655,
          "velocity": 0.8976377952755905
        },
        {
          "duration": 2.2996771875000377,
          "durationTicks": 574,
          "midi": 60,
          "name": "C4",
          "ticks": 89280,
          "time": 314.41526999999996,
          "velocity": 0.8503937007874016
        },
        {
          "duration": 0.4166662499999916,
          "durationTicks": 104,
          "midi": 58,
          "name": "A#3",
          "ticks": 89376,
          "time": 314.799885,
          "velocity": 0.8503937007874016
        },
        {
          "duration": 1.6346137499999713,
          "durationTicks": 408,
          "midi": 57,
          "name": "A3",
          "ticks": 89472,
          "time": 315.1845,
          "velocity": 0.8740157480314961
        },
        {
          "duration": 11.330116874999987,
          "durationTicks": 2828,
          "midi": 65,
          "name": "F4",
          "ticks": 89472,
          "time": 315.1845,
          "velocity": 0.8346456692913385
        },
        {
          "duration": 0.6891018750000057,
          "durationTicks": 172,
          "midi": 58,
          "name": "A#3",
          "ticks": 89856,
          "time": 316.72296,
          "velocity": 0.84251968503937
        },
        {
          "duration": 0.10416656249998368,
          "durationTicks": 26,
          "midi": 60,
          "name": "C4",
          "ticks": 89856,
          "time": 316.72296,
          "velocity": 0.14173228346456693
        },
        {
          "duration": 1.0016015625000136,
          "durationTicks": 250,
          "midi": 57,
          "name": "A3",
          "ticks": 90048,
          "time": 317.49219,
          "velocity": 0.8661417322834646
        },
        {
          "duration": 1.362178125000014,
          "durationTicks": 340,
          "midi": 56,
          "name": "G#3",
          "ticks": 90288,
          "time": 318.4537275,
          "velocity": 0.8346456692913385
        },
        {
          "duration": 2.227561875000049,
          "durationTicks": 556,
          "midi": 55,
          "name": "G3",
          "ticks": 90624,
          "time": 319.79988,
          "velocity": 0.7007874015748031
        },
        {
          "duration": 2.876599687500004,
          "durationTicks": 718,
          "midi": 62,
          "name": "D4",
          "ticks": 90624,
          "time": 319.79988,
          "velocity": 0.5984251968503937
        },
        {
          "duration": 4.142624062500033,
          "durationTicks": 1034,
          "midi": 41,
          "name": "F2",
          "ticks": 91248,
          "time": 322.2998775,
          "velocity": 0.14173228346456693
        },
        {
          "duration": 4.206726562500023,
          "durationTicks": 1050,
          "midi": 53,
          "name": "F3",
          "ticks": 91248,
          "time": 322.2998775,
          "velocity": 0.14173228346456693
        },
        {
          "duration": 4.246790625000017,
          "durationTicks": 1060,
          "midi": 57,
          "name": "A3",
          "ticks": 91248,
          "time": 322.2998775,
          "velocity": 0.14173228346456693
        }
      ]
    },
    {
      "channel": 0,
      "controlChanges": {
        "0": [
          {
            "number": 0,
            "ticks": 222,
            "time": 0.8894221875,
            "value": 0
          }
        ],
        "32": [
          {
            "number": 32,
            "ticks": 224,
            "time": 0.897435,
            "value": 0
          }
        ],
        "121": [
          {
            "number": 121,
            "ticks": 166,
            "time": 0.6650634375,
            "value": 0
          }
        ]
      },
      "pitchBends": [],
      "instrument": {
        "family": "piano",
        "number": 0,
        "name": "acoustic grand piano"
      },
      "name": "",
      "notes": [],
      "endOfTrackTicks": 92930
    },
    {
      "channel": 3,
      "controlChanges": {
        "7": [
          {
            "number": 7,
            "ticks": 228,
            "time": 0.9134606249999999,
            "value": 0.968503937007874
          }
        ],
        "10": [
          {
            "number": 10,
            "ticks": 228,
            "time": 0.9134606249999999,
            "value": 0.15748031496062992
          }
        ],
        "11": [
          {
            "number": 11,
            "ticks": 228,
            "time": 0.9134606249999999,
            "value": 0.7480314960629921
          }
        ],
        "91": [
          {
            "number": 91,
            "ticks": 230,
            "time": 0.9214734375,
            "value": 1
          }
        ],
        "93": [
          {
            "number": 93,
            "ticks": 230,
            "time": 0.9214734375,
            "value": 0
          }
        ],
        "120": [
          {
            "number": 120,
            "ticks": 92928,
            "time": 329.03064,
            "value": 0
          }
        ],
        "123": [
          {
            "number": 123,
            "ticks": 92930,
            "time": 329.0386528125,
            "value": 0
          }
        ]
      },
      "pitchBends": [],
      "instrument": {
        "family": "ensemble",
        "number": 52,
        "name": "choir aahs"
      },
      "name": "",
      "notes": [
        {
          "duration": 0.3205125,
          "durationTicks": 80,
          "midi": 65,
          "name": "F4",
          "ticks": 672,
          "time": 2.6923049999999997,
          "velocity": 0.889763779527559
        },
        {
          "duration": 0.3766021875000001,
          "durationTicks": 94,
          "midi": 68,
          "name": "G#4",
          "ticks": 672,
          "time": 2.6923049999999997,
          "velocity": 0.889763779527559
        },
        {
          "duration": 0.3766021875000001,
          "durationTicks": 94,
          "midi": 70,
          "name": "A#4",
          "ticks": 672,
          "time": 2.6923049999999997,
          "velocity": 0.889763779527559
        },
        {
          "duration": 0.30448687500000027,
          "durationTicks": 76,
          "midi": 73,
          "name": "C#5",
          "ticks": 672,
          "time": 2.6923049999999997,
          "velocity": 0.889763779527559
        },
        {
          "duration": 0.3044868749999998,
          "durationTicks": 76,
          "midi": 65,
          "name": "F4",
          "ticks": 768,
          "time": 3.07692,
          "velocity": 0.889763779527559
        },
        {
          "duration": 0.21634593749999986,
          "durationTicks": 54,
          "midi": 68,
          "name": "G#4",
          "ticks": 768,
          "time": 3.07692,
          "velocity": 0.889763779527559
        },
        {
          "duration": 0.22435875000000038,
          "durationTicks": 56,
          "midi": 70,
          "name": "A#4",
          "ticks": 768,
          "time": 3.07692,
          "velocity": 0.889763779527559
        },
        {
          "duration": 0.2804484374999996,
          "durationTicks": 70,
          "midi": 73,
          "name": "C#5",
          "ticks": 768,
          "time": 3.07692,
          "velocity": 0.889763779527559
        },
        {
          "duration": 0.3445509375000002,
          "durationTicks": 86,
          "midi": 65,
          "name": "F4",
          "ticks": 864,
          "time": 3.461535,
          "velocity": 0.889763779527559
        },
        {
          "duration": 0.3445509375000002,
          "durationTicks": 86,
          "midi": 68,
          "name": "G#4",
          "ticks": 864,
          "time": 3.461535,
          "velocity": 0.889763779527559
        },
        {
          "duration": 0.3605765624999999,
          "durationTicks": 90,
          "midi": 70,
          "name": "A#4",
          "ticks": 864,
          "time": 3.461535,
          "velocity": 0.889763779527559
        },
        {
          "duration": 0.3285253124999996,
          "durationTicks": 82,
          "midi": 73,
          "name": "C#5",
          "ticks": 864,
          "time": 3.461535,
          "velocity": 0.889763779527559
        },
        {
          "duration": 0.6810890624999999,
          "durationTicks": 170,
          "midi": 65,
          "name": "F4",
          "ticks": 960,
          "time": 3.8461499999999997,
          "velocity": 0.889763779527559
        },
        {
          "duration": 0.7051275000000006,
          "durationTicks": 176,
          "midi": 68,
          "name": "G#4",
          "ticks": 960,
          "time": 3.8461499999999997,
          "velocity": 0.889763779527559
        },
        {
          "duration": 0.7211531249999998,
          "durationTicks": 180,
          "midi": 70,
          "name": "A#4",
          "ticks": 960,
          "time": 3.8461499999999997,
          "velocity": 0.889763779527559
        },
        {
          "duration": 0.6570506250000001,
          "durationTicks": 164,
          "midi": 73,
          "name": "C#5",
          "ticks": 960,
          "time": 3.8461499999999997,
          "velocity": 0.889763779527559
        },
        {
          "duration": 0.6891018749999995,
          "durationTicks": 172,
          "midi": 65,
          "name": "F4",
          "ticks": 1152,
          "time": 4.61538,
          "velocity": 0.889763779527559
        },
        {
          "duration": 0.6330121875000003,
          "durationTicks": 158,
          "midi": 68,
          "name": "G#4",
          "ticks": 1152,
          "time": 4.61538,
          "velocity": 0.889763779527559
        },
        {
          "duration": 0.6490378124999996,
          "durationTicks": 162,
          "midi": 70,
          "name": "A#4",
          "ticks": 1152,
          "time": 4.61538,
          "velocity": 0.889763779527559
        },
        {
          "duration": 0.6730762499999994,
          "durationTicks": 168,
          "midi": 73,
          "name": "C#5",
          "ticks": 1152,
          "time": 4.61538,
          "velocity": 0.889763779527559
        },
        {
          "duration": 0.3205125000000004,
          "durationTicks": 80,
          "midi": 63,
          "name": "D#4",
          "ticks": 1440,
          "time": 5.769225,
          "velocity": 0.889763779527559
        },
        {
          "duration": 0.29647406250000063,
          "durationTicks": 74,
          "midi": 67,
          "name": "G4",
          "ticks": 1440,
          "time": 5.769225,
          "velocity": 0.889763779527559
        },
        {
          "duration": 0.29647406250000063,
          "durationTicks": 74,
          "midi": 70,
          "name": "A#4",
          "ticks": 1440,
          "time": 5.769225,
          "velocity": 0.889763779527559
        },
        {
          "duration": 0.30448687500000027,
          "durationTicks": 76,
          "midi": 73,
          "name": "C#5",
          "ticks": 1440,
          "time": 5.769225,
          "velocity": 0.889763779527559
        },
        {
          "duration": 0.3766021875000005,
          "durationTicks": 94,
          "midi": 63,
          "name": "D#4",
          "ticks": 1536,
          "time": 6.15384,
          "velocity": 0.889763779527559
        },
        {
          "duration": 0.32852531250000006,
          "durationTicks": 82,
          "midi": 67,
          "name": "G4",
          "ticks": 1536,
          "time": 6.15384,
          "velocity": 0.889763779527559
        },
        {
          "duration": 0.3445509374999993,
          "durationTicks": 86,
          "midi": 70,
          "name": "A#4",
          "ticks": 1536,
          "time": 6.15384,
          "velocity": 0.889763779527559
        },
        {
          "duration": 0.3766021875000005,
          "durationTicks": 94,
          "midi": 73,
          "name": "C#5",
          "ticks": 1536,
          "time": 6.15384,
          "velocity": 0.889763779527559
        },
        {
          "duration": 0.3766021875000005,
          "durationTicks": 94,
          "midi": 65,
          "name": "F4",
          "ticks": 1632,
          "time": 6.538455,
          "velocity": 0.889763779527559
        },
        {
          "duration": 0.35256374999999984,
          "durationTicks": 88,
          "midi": 68,
          "name": "G#4",
          "ticks": 1632,
          "time": 6.538455,
          "velocity": 0.889763779527559
        },
        {
          "duration": 0.32051249999999953,
          "durationTicks": 80,
          "midi": 70,
          "name": "A#4",
          "ticks": 1632,
          "time": 6.538455,
          "velocity": 0.889763779527559
        },
        {
          "duration": 0.3766021875000005,
          "durationTicks": 94,
          "midi": 67,
          "name": "G4",
          "ticks": 1728,
          "time": 6.92307,
          "velocity": 0.889763779527559
        },
        {
          "duration": 0.3766021875000005,
          "durationTicks": 94,
          "midi": 70,
          "name": "A#4",
          "ticks": 1728,
          "time": 6.92307,
          "velocity": 0.889763779527559
        },
        {
          "duration": 0.3766021875000005,
          "durationTicks": 94,
          "midi": 73,
          "name": "C#5",
          "ticks": 1728,
          "time": 6.92307,
          "velocity": 0.889763779527559
        },
        {
          "duration": 0.18429468750000044,
          "durationTicks": 46,
          "midi": 65,
          "name": "F4",
          "ticks": 1824,
          "time": 7.307684999999999,
          "velocity": 0.889763779527559
        },
        {
          "duration": 0.18429468750000044,
          "durationTicks": 46,
          "midi": 68,
          "name": "G#4",
          "ticks": 1824,
          "time": 7.307684999999999,
          "velocity": 0.889763779527559
        },
        {
          "duration": 0.8012812500000006,
          "durationTicks": 200,
          "midi": 63,
          "name": "D#4",
          "ticks": 1872,
          "time": 7.499992499999999,
          "velocity": 0.889763779527559
        },
        {
          "duration": 0.6891018750000004,
          "durationTicks": 172,
          "midi": 67,
          "name": "G4",
          "ticks": 1872,
          "time": 7.499992499999999,
          "velocity": 0.889763779527559
        },
        {
          "duration": 0.35256374999999984,
          "durationTicks": 88,
          "midi": 63,
          "name": "D#4",
          "ticks": 2112,
          "time": 8.46153,
          "velocity": 0.889763779527559
        },
        {
          "duration": 0.2884612499999992,
          "durationTicks": 72,
          "midi": 66,
          "name": "F#4",
          "ticks": 2112,
          "time": 8.46153,
          "velocity": 0.889763779527559
        },
        {
          "duration": 0.36057656250000036,
          "durationTicks": 90,
          "midi": 68,
          "name": "G#4",
          "ticks": 2112,
          "time": 8.46153,
          "velocity": 0.889763779527559
        },
        {
          "duration": 0.32051249999999953,
          "durationTicks": 80,
          "midi": 72,
          "name": "C5",
          "ticks": 2112,
          "time": 8.46153,
          "velocity": 0.889763779527559
        },
        {
          "duration": 0.32051249999999953,
          "durationTicks": 80,
          "midi": 63,
          "name": "D#4",
          "ticks": 2208,
          "time": 8.846145,
          "velocity": 0.889763779527559
        },
        {
          "duration": 0.2884612499999992,
          "durationTicks": 72,
          "midi": 66,
          "name": "F#4",
          "ticks": 2208,
          "time": 8.846145,
          "velocity": 0.889763779527559
        },
        {
          "duration": 0.32852531250000006,
          "durationTicks": 82,
          "midi": 68,
          "name": "G#4",
          "ticks": 2208,
          "time": 8.846145,
          "velocity": 0.889763779527559
        },
        {
          "duration": 0.3365381250000006,
          "durationTicks": 84,
          "midi": 72,
          "name": "C5",
          "ticks": 2208,
          "time": 8.846145,
          "velocity": 0.889763779527559
        },
        {
          "duration": 0.35256374999999984,
          "durationTicks": 88,
          "midi": 63,
          "name": "D#4",
          "ticks": 2304,
          "time": 9.23076,
          "velocity": 0.889763779527559
        },
        {
          "duration": 0.29647406249999975,
          "durationTicks": 74,
          "midi": 66,
          "name": "F#4",
          "ticks": 2304,
          "time": 9.23076,
          "velocity": 0.889763779527559
        },
        {
          "duration": 0.37660218749999963,
          "durationTicks": 94,
          "midi": 68,
          "name": "G#4",
          "ticks": 2304,
          "time": 9.23076,
          "velocity": 0.889763779527559
        },
        {
          "duration": 0.35256374999999984,
          "durationTicks": 88,
          "midi": 72,
          "name": "C5",
          "ticks": 2304,
          "time": 9.23076,
          "velocity": 0.889763779527559
        },
        {
          "duration": 0.7612171874999998,
          "durationTicks": 190,
          "midi": 63,
          "name": "D#4",
          "ticks": 2400,
          "time": 9.615375,
          "velocity": 0.889763779527559
        },
        {
          "duration": 0.7612171874999998,
          "durationTicks": 190,
          "midi": 66,
          "name": "F#4",
          "ticks": 2400,
          "time": 9.615375,
          "velocity": 0.889763779527559
        },
        {
          "duration": 0.7612171874999998,
          "durationTicks": 190,
          "midi": 70,
          "name": "A#4",
          "ticks": 2400,
          "time": 9.615375,
          "velocity": 0.889763779527559
        },
        {
          "duration": 0.7612171874999998,
          "durationTicks": 190,
          "midi": 73,
          "name": "C#5",
          "ticks": 2400,
          "time": 9.615375,
          "velocity": 0.889763779527559
        },
        {
          "duration": 0.21634593750000164,
          "durationTicks": 54,
          "midi": 63,
          "name": "D#4",
          "ticks": 2592,
          "time": 10.384604999999999,
          "velocity": 0.889763779527559
        },
        {
          "duration": 0.19230750000000008,
          "durationTicks": 48,
          "midi": 66,
          "name": "F#4",
          "ticks": 2592,
          "time": 10.384604999999999,
          "velocity": 0.889763779527559
        },
        {
          "duration": 0.6650634375000006,
          "durationTicks": 166,
          "midi": 68,
          "name": "G#4",
          "ticks": 2592,
          "time": 10.384604999999999,
          "velocity": 0.889763779527559
        },
        {
          "duration": 0.7612171875000016,
          "durationTicks": 190,
          "midi": 72,
          "name": "C5",
          "ticks": 2592,
          "time": 10.384604999999999,
          "velocity": 0.889763779527559
        },
        {
          "duration": 0.3124996875000008,
          "durationTicks": 78,
          "midi": 68,
          "name": "G#4",
          "ticks": 2784,
          "time": 11.153834999999999,
          "velocity": 0.889763779527559
        },
        {
          "duration": 0.17628187499999903,
          "durationTicks": 44,
          "midi": 61,
          "name": "C#4",
          "ticks": 2880,
          "time": 11.53845,
          "velocity": 0.889763779527559
        },
        {
          "duration": 0.1682690625000003,
          "durationTicks": 42,
          "midi": 65,
          "name": "F4",
          "ticks": 2880,
          "time": 11.53845,
          "velocity": 0.889763779527559
        },
        {
          "duration": 0.17628187499999903,
          "durationTicks": 44,
          "midi": 68,
          "name": "G#4",
          "ticks": 2880,
          "time": 11.53845,
          "velocity": 0.889763779527559
        },
        {
          "duration": 0.20833312500000112,
          "durationTicks": 52,
          "midi": 73,
          "name": "C#5",
          "ticks": 2880,
          "time": 11.53845,
          "velocity": 0.889763779527559
        },
        {
          "duration": 0.3766021875000014,
          "durationTicks": 94,
          "midi": 61,
          "name": "C#4",
          "ticks": 2976,
          "time": 11.923065,
          "velocity": 0.889763779527559
        },
        {
          "duration": 0.18429468750000133,
          "durationTicks": 46,
          "midi": 65,
          "name": "F4",
          "ticks": 2976,
          "time": 11.923065,
          "velocity": 0.889763779527559
        },
        {
          "duration": 0.3445509374999993,
          "durationTicks": 86,
          "midi": 68,
          "name": "G#4",
          "ticks": 2976,
          "time": 11.923065,
          "velocity": 0.889763779527559
        },
        {
          "duration": 0.3766021875000014,
          "durationTicks": 94,
          "midi": 73,
          "name": "C#5",
          "ticks": 2976,
          "time": 11.923065,
          "velocity": 0.889763779527559
        },
        {
          "duration": 0.2964740625000015,
          "durationTicks": 74,
          "midi": 66,
          "name": "F#4",
          "ticks": 3072,
          "time": 12.30768,
          "velocity": 0.889763779527559
        },
        {
          "duration": 0.37660218749999963,
          "durationTicks": 94,
          "midi": 70,
          "name": "A#4",
          "ticks": 3072,
          "time": 12.30768,
          "velocity": 0.889763779527559
        },
        {
          "duration": 0.37660218749999963,
          "durationTicks": 94,
          "midi": 65,
          "name": "F4",
          "ticks": 3168,
          "time": 12.692295,
          "velocity": 0.889763779527559
        },
        {
          "duration": 0.37660218749999963,
          "durationTicks": 94,
          "midi": 68,
          "name": "G#4",
          "ticks": 3168,
          "time": 12.692295,
          "velocity": 0.889763779527559
        },
        {
          "duration": 0.37660218749999785,
          "durationTicks": 94,
          "midi": 63,
          "name": "D#4",
          "ticks": 3264,
          "time": 13.07691,
          "velocity": 0.889763779527559
        },
        {
          "duration": 0.37660218749999785,
          "durationTicks": 94,
          "midi": 66,
          "name": "F#4",
          "ticks": 3264,
          "time": 13.07691,
          "velocity": 0.889763779527559
        },
        {
          "duration": 1.458331874999999,
          "durationTicks": 364,
          "midi": 61,
          "name": "C#4",
          "ticks": 3360,
          "time": 13.461525,
          "velocity": 0.889763779527559
        },
        {
          "duration": 1.4102549999999994,
          "durationTicks": 352,
          "midi": 65,
          "name": "F4",
          "ticks": 3360,
          "time": 13.461525,
          "velocity": 0.889763779527559
        },
        {
          "duration": 3.0368559375000004,
          "durationTicks": 758,
          "midi": 46,
          "name": "A#2",
          "ticks": 3840,
          "time": 15.384599999999999,
          "velocity": 0.889763779527559
        },
        {
          "duration": 3.0368559375000004,
          "durationTicks": 758,
          "midi": 53,
          "name": "F3",
          "ticks": 3840,
          "time": 15.384599999999999,
          "velocity": 0.889763779527559
        },
        {
          "duration": 2.9567278124999987,
          "durationTicks": 738,
          "midi": 58,
          "name": "A#3",
          "ticks": 3840,
          "time": 15.384599999999999,
          "velocity": 0.889763779527559
        },
        {
          "duration": 3.068907187499999,
          "durationTicks": 766,
          "midi": 61,
          "name": "C#4",
          "ticks": 3840,
          "time": 15.384599999999999,
          "velocity": 0.889763779527559
        },
        {
          "duration": 3.068907187499999,
          "durationTicks": 766,
          "midi": 65,
          "name": "F4",
          "ticks": 3840,
          "time": 15.384599999999999,
          "velocity": 0.889763779527559
        },
        {
          "duration": 0.761217187499998,
          "durationTicks": 190,
          "midi": 59,
          "name": "B3",
          "ticks": 4608,
          "time": 18.46152,
          "velocity": 0.889763779527559
        },
        {
          "duration": 0.37660218749999785,
          "durationTicks": 94,
          "midi": 66,
          "name": "F#4",
          "ticks": 4800,
          "time": 19.23075,
          "velocity": 0.889763779527559
        },
        {
          "duration": 0.761217187499998,
          "durationTicks": 190,
          "midi": 68,
          "name": "G#4",
          "ticks": 4896,
          "time": 19.615365,
          "velocity": 0.889763779527559
        },
        {
          "duration": 0.761217187499998,
          "durationTicks": 190,
          "midi": 61,
          "name": "C#4",
          "ticks": 5088,
          "time": 20.384595,
          "velocity": 0.889763779527559
        },
        {
          "duration": 3.453522187499999,
          "durationTicks": 862,
          "midi": 66,
          "name": "F#4",
          "ticks": 5280,
          "time": 21.153824999999998,
          "velocity": 0.889763779527559
        },
        {
          "duration": 3.453522187499999,
          "durationTicks": 862,
          "midi": 70,
          "name": "A#4",
          "ticks": 5280,
          "time": 21.153824999999998,
          "velocity": 0.889763779527559
        },
        {
          "duration": 3.0689071875000025,
          "durationTicks": 766,
          "midi": 58,
          "name": "A#3",
          "ticks": 6144,
          "time": 24.61536,
          "velocity": 0.889763779527559
        },
        {
          "duration": 3.0689071875000025,
          "durationTicks": 766,
          "midi": 63,
          "name": "D#4",
          "ticks": 6144,
          "time": 24.61536,
          "velocity": 0.889763779527559
        },
        {
          "duration": 0.7612171875000016,
          "durationTicks": 190,
          "midi": 56,
          "name": "G#3",
          "ticks": 6912,
          "time": 27.69228,
          "velocity": 0.889763779527559
        },
        {
          "duration": 0.7612171875000016,
          "durationTicks": 190,
          "midi": 60,
          "name": "C4",
          "ticks": 6912,
          "time": 27.69228,
          "velocity": 0.889763779527559
        },
        {
          "duration": 0.7612171875000016,
          "durationTicks": 190,
          "midi": 68,
          "name": "G#4",
          "ticks": 6912,
          "time": 27.69228,
          "velocity": 0.889763779527559
        },
        {
          "duration": 0.3766021875000014,
          "durationTicks": 94,
          "midi": 58,
          "name": "A#3",
          "ticks": 7104,
          "time": 28.46151,
          "velocity": 0.889763779527559
        },
        {
          "duration": 0.3766021875000014,
          "durationTicks": 94,
          "midi": 70,
          "name": "A#4",
          "ticks": 7104,
          "time": 28.46151,
          "velocity": 0.889763779527559
        },
        {
          "duration": 0.1842946875000031,
          "durationTicks": 46,
          "midi": 56,
          "name": "G#3",
          "ticks": 7200,
          "time": 28.846124999999997,
          "velocity": 0.889763779527559
        },
        {
          "duration": 0.1842946875000031,
          "durationTicks": 46,
          "midi": 68,
          "name": "G#4",
          "ticks": 7200,
          "time": 28.846124999999997,
          "velocity": 0.889763779527559
        },
        {
          "duration": 0.1842946875000031,
          "durationTicks": 46,
          "midi": 66,
          "name": "F#4",
          "ticks": 7248,
          "time": 29.0384325,
          "velocity": 0.889763779527559
        },
        {
          "duration": 0.16025625000000332,
          "durationTicks": 40,
          "midi": 63,
          "name": "D#4",
          "ticks": 7296,
          "time": 29.230739999999997,
          "velocity": 0.889763779527559
        },
        {
          "duration": 0.3766021875000014,
          "durationTicks": 94,
          "midi": 65,
          "name": "F4",
          "ticks": 7488,
          "time": 29.999969999999998,
          "velocity": 0.889763779527559
        },
        {
          "duration": 0.3766021875000014,
          "durationTicks": 94,
          "midi": 66,
          "name": "F#4",
          "ticks": 7584,
          "time": 30.384584999999998,
          "velocity": 0.889763779527559
        },
        {
          "duration": 0.25641000000000247,
          "durationTicks": 64,
          "midi": 59,
          "name": "B3",
          "ticks": 7680,
          "time": 30.769199999999998,
          "velocity": 0.889763779527559
        },
        {
          "duration": 0.28044843750000226,
          "durationTicks": 70,
          "midi": 63,
          "name": "D#4",
          "ticks": 7680,
          "time": 30.769199999999998,
          "velocity": 0.889763779527559
        },
        {
          "duration": 0.28044843750000226,
          "durationTicks": 70,
          "midi": 71,
          "name": "B4",
          "ticks": 7680,
          "time": 30.769199999999998,
          "velocity": 0.889763779527559
        },
        {
          "duration": 0.3766021875000014,
          "durationTicks": 94,
          "midi": 59,
          "name": "B3",
          "ticks": 7776,
          "time": 31.153814999999998,
          "velocity": 0.889763779527559
        },
        {
          "duration": 0.28044843750000226,
          "durationTicks": 70,
          "midi": 63,
          "name": "D#4",
          "ticks": 7776,
          "time": 31.153814999999998,
          "velocity": 0.889763779527559
        },
        {
          "duration": 0.3445509374999993,
          "durationTicks": 86,
          "midi": 71,
          "name": "B4",
          "ticks": 7776,
          "time": 31.153814999999998,
          "velocity": 0.889763779527559
        },
        {
          "duration": 0.3525637500000016,
          "durationTicks": 88,
          "midi": 58,
          "name": "A#3",
          "ticks": 7872,
          "time": 31.538429999999998,
          "velocity": 0.889763779527559
        },
        {
          "duration": 0.32051249999999953,
          "durationTicks": 80,
          "midi": 65,
          "name": "F4",
          "ticks": 7872,
          "time": 31.538429999999998,
          "velocity": 0.889763779527559
        },
        {
          "duration": 0.2644228125000012,
          "durationTicks": 66,
          "midi": 70,
          "name": "A#4",
          "ticks": 7872,
          "time": 31.538429999999998,
          "velocity": 0.889763779527559
        },
        {
          "duration": 0.2644228125000012,
          "durationTicks": 66,
          "midi": 57,
          "name": "A3",
          "ticks": 8064,
          "time": 32.30766,
          "velocity": 0.889763779527559
        },
        {
          "duration": 0.2964740624999962,
          "durationTicks": 74,
          "midi": 64,
          "name": "E4",
          "ticks": 8064,
          "time": 32.30766,
          "velocity": 0.889763779527559
        },
        {
          "duration": 0.25641000000000247,
          "durationTicks": 64,
          "midi": 69,
          "name": "A4",
          "ticks": 8064,
          "time": 32.30766,
          "velocity": 0.889763779527559
        },
        {
          "duration": 0.36057656249999326,
          "durationTicks": 90,
          "midi": 57,
          "name": "A3",
          "ticks": 8160,
          "time": 32.692275,
          "velocity": 0.889763779527559
        },
        {
          "duration": 0.37660218749999785,
          "durationTicks": 94,
          "midi": 64,
          "name": "E4",
          "ticks": 8160,
          "time": 32.692275,
          "velocity": 0.889763779527559
        },
        {
          "duration": 0.36057656249999326,
          "durationTicks": 90,
          "midi": 69,
          "name": "A4",
          "ticks": 8160,
          "time": 32.692275,
          "velocity": 0.889763779527559
        },
        {
          "duration": 0.34455093749999577,
          "durationTicks": 86,
          "midi": 58,
          "name": "A#3",
          "ticks": 8256,
          "time": 33.07689,
          "velocity": 0.889763779527559
        },
        {
          "duration": 0.32051249999999953,
          "durationTicks": 80,
          "midi": 65,
          "name": "F4",
          "ticks": 8256,
          "time": 33.07689,
          "velocity": 0.889763779527559
        },
        {
          "duration": 0.39262781249999534,
          "durationTicks": 98,
          "midi": 70,
          "name": "A#4",
          "ticks": 8256,
          "time": 33.07689,
          "velocity": 0.889763779527559
        },
        {
          "duration": 0.24038437499999787,
          "durationTicks": 60,
          "midi": 59,
          "name": "B3",
          "ticks": 8448,
          "time": 33.84612,
          "velocity": 0.889763779527559
        },
        {
          "duration": 0.30448687500000204,
          "durationTicks": 76,
          "midi": 66,
          "name": "F#4",
          "ticks": 8448,
          "time": 33.84612,
          "velocity": 0.889763779527559
        },
        {
          "duration": 0.28846124999999745,
          "durationTicks": 72,
          "midi": 71,
          "name": "B4",
          "ticks": 8448,
          "time": 33.84612,
          "velocity": 0.889763779527559
        },
        {
          "duration": 0.37660218750000496,
          "durationTicks": 94,
          "midi": 59,
          "name": "B3",
          "ticks": 8544,
          "time": 34.230734999999996,
          "velocity": 0.889763779527559
        },
        {
          "duration": 0.36057656250000036,
          "durationTicks": 90,
          "midi": 66,
          "name": "F#4",
          "ticks": 8544,
          "time": 34.230734999999996,
          "velocity": 0.889763779527559
        },
        {
          "duration": 0.37660218750000496,
          "durationTicks": 94,
          "midi": 71,
          "name": "B4",
          "ticks": 8544,
          "time": 34.230734999999996,
          "velocity": 0.889763779527559
        },
        {
          "duration": 0.4006406250000012,
          "durationTicks": 100,
          "midi": 58,
          "name": "A#3",
          "ticks": 8640,
          "time": 34.61535,
          "velocity": 0.889763779527559
        },
        {
          "duration": 0.39262781249999534,
          "durationTicks": 98,
          "midi": 65,
          "name": "F4",
          "ticks": 8640,
          "time": 34.61535,
          "velocity": 0.889763779527559
        },
        {
          "duration": 0.3685893749999991,
          "durationTicks": 92,
          "midi": 70,
          "name": "A#4",
          "ticks": 8640,
          "time": 34.61535,
          "velocity": 0.889763779527559
        },
        {
          "duration": 0.28846124999999745,
          "durationTicks": 72,
          "midi": 57,
          "name": "A3",
          "ticks": 8832,
          "time": 35.38458,
          "velocity": 0.889763779527559
        },
        {
          "duration": 0.37660218749999785,
          "durationTicks": 94,
          "midi": 64,
          "name": "E4",
          "ticks": 8832,
          "time": 35.38458,
          "velocity": 0.889763779527559
        },
        {
          "duration": 0.37660218749999785,
          "durationTicks": 94,
          "midi": 69,
          "name": "A4",
          "ticks": 8832,
          "time": 35.38458,
          "velocity": 0.889763779527559
        },
        {
          "duration": 0.37660218750000496,
          "durationTicks": 94,
          "midi": 57,
          "name": "A3",
          "ticks": 8928,
          "time": 35.769194999999996,
          "velocity": 0.889763779527559
        },
        {
          "duration": 0.4326918749999962,
          "durationTicks": 108,
          "midi": 58,
          "name": "A#3",
          "ticks": 9024,
          "time": 36.15381,
          "velocity": 0.889763779527559
        },
        {
          "duration": 0.39262781249999534,
          "durationTicks": 98,
          "midi": 65,
          "name": "F4",
          "ticks": 9024,
          "time": 36.15381,
          "velocity": 0.889763779527559
        },
        {
          "duration": 0.3124996875000008,
          "durationTicks": 78,
          "midi": 70,
          "name": "A#4",
          "ticks": 9024,
          "time": 36.15381,
          "velocity": 0.889763779527559
        },
        {
          "duration": 1.5064087499999985,
          "durationTicks": 376,
          "midi": 63,
          "name": "D#4",
          "ticks": 9216,
          "time": 36.92304,
          "velocity": 0.889763779527559
        },
        {
          "duration": 1.5144215624999973,
          "durationTicks": 378,
          "midi": 67,
          "name": "G4",
          "ticks": 9216,
          "time": 36.92304,
          "velocity": 0.889763779527559
        },
        {
          "duration": 1.5304471875000019,
          "durationTicks": 382,
          "midi": 70,
          "name": "A#4",
          "ticks": 9216,
          "time": 36.92304,
          "velocity": 0.889763779527559
        },
        {
          "duration": 0.9535246874999999,
          "durationTicks": 238,
          "midi": 62,
          "name": "D4",
          "ticks": 9600,
          "time": 38.4615,
          "velocity": 0.889763779527559
        },
        {
          "duration": 0.9535246874999999,
          "durationTicks": 238,
          "midi": 65,
          "name": "F4",
          "ticks": 9600,
          "time": 38.4615,
          "velocity": 0.889763779527559
        },
        {
          "duration": 0.5689096875000033,
          "durationTicks": 142,
          "midi": 70,
          "name": "A#4",
          "ticks": 9840,
          "time": 39.4230375,
          "velocity": 0.889763779527559
        },
        {
          "duration": 0.37660218749999785,
          "durationTicks": 94,
          "midi": 61,
          "name": "C#4",
          "ticks": 9984,
          "time": 39.99996,
          "velocity": 0.889763779527559
        },
        {
          "duration": 0.37660218749999785,
          "durationTicks": 94,
          "midi": 64,
          "name": "E4",
          "ticks": 9984,
          "time": 39.99996,
          "velocity": 0.889763779527559
        },
        {
          "duration": 0.37660218750000496,
          "durationTicks": 94,
          "midi": 67,
          "name": "G4",
          "ticks": 10080,
          "time": 40.384575,
          "velocity": 0.889763779527559
        },
        {
          "duration": 0.7612171875000016,
          "durationTicks": 190,
          "midi": 70,
          "name": "A#4",
          "ticks": 10176,
          "time": 40.76919,
          "velocity": 0.889763779527559
        },
        {
          "duration": 0.7612171875000087,
          "durationTicks": 190,
          "midi": 60,
          "name": "C4",
          "ticks": 10368,
          "time": 41.538419999999995,
          "velocity": 0.889763779527559
        },
        {
          "duration": 0.7612171875000087,
          "durationTicks": 190,
          "midi": 65,
          "name": "F4",
          "ticks": 10368,
          "time": 41.538419999999995,
          "velocity": 0.889763779527559
        },
        {
          "duration": 0.7612171875000087,
          "durationTicks": 190,
          "midi": 69,
          "name": "A4",
          "ticks": 10368,
          "time": 41.538419999999995,
          "velocity": 0.889763779527559
        },
        {
          "duration": 0.7612171875000016,
          "durationTicks": 190,
          "midi": 63,
          "name": "D#4",
          "ticks": 10560,
          "time": 42.307649999999995,
          "velocity": 0.889763779527559
        },
        {
          "duration": 1.6346137499999998,
          "durationTicks": 408,
          "midi": 72,
          "name": "C5",
          "ticks": 10752,
          "time": 43.076879999999996,
          "velocity": 0.889763779527559
        },
        {
          "duration": 0.7612171875000016,
          "durationTicks": 190,
          "midi": 57,
          "name": "A3",
          "ticks": 11328,
          "time": 45.38457,
          "velocity": 0.889763779527559
        },
        {
          "duration": 5.721148124999999,
          "durationTicks": 1428,
          "midi": 58,
          "name": "A#3",
          "ticks": 11520,
          "time": 46.1538,
          "velocity": 0.889763779527559
        },
        {
          "duration": 0.01602562499999749,
          "durationTicks": 4,
          "midi": 88,
          "name": "E6",
          "ticks": 44168,
          "time": 176.95495125,
          "velocity": 0.889763779527559
        },
        {
          "duration": 0.08814093750001462,
          "durationTicks": 22,
          "midi": 76,
          "name": "E5",
          "ticks": 44172,
          "time": 176.970976875,
          "velocity": 0.889763779527559
        },
        {
          "duration": 0.08814093750001462,
          "durationTicks": 22,
          "midi": 76,
          "name": "E5",
          "ticks": 44214,
          "time": 177.1392459375,
          "velocity": 0.889763779527559
        },
        {
          "duration": 0.0721153124999887,
          "durationTicks": 18,
          "midi": 88,
          "name": "E6",
          "ticks": 44214,
          "time": 177.1392459375,
          "velocity": 0.889763779527559
        },
        {
          "duration": 0.008012812499998745,
          "durationTicks": 2,
          "midi": 88,
          "name": "E6",
          "ticks": 44256,
          "time": 177.307515,
          "velocity": 0.889763779527559
        },
        {
          "duration": 0.07211531250001713,
          "durationTicks": 18,
          "midi": 76,
          "name": "E5",
          "ticks": 44260,
          "time": 177.323540625,
          "velocity": 0.889763779527559
        },
        {
          "duration": 0.09615374999998494,
          "durationTicks": 24,
          "midi": 76,
          "name": "E5",
          "ticks": 44300,
          "time": 177.483796875,
          "velocity": 0.889763779527559
        },
        {
          "duration": 0.09615374999998494,
          "durationTicks": 24,
          "midi": 88,
          "name": "E6",
          "ticks": 44300,
          "time": 177.483796875,
          "velocity": 0.889763779527559
        },
        {
          "duration": 0.11217937500001085,
          "durationTicks": 28,
          "midi": 74,
          "name": "D5",
          "ticks": 44354,
          "time": 177.7001428125,
          "velocity": 0.889763779527559
        },
        {
          "duration": 0.11217937500001085,
          "durationTicks": 28,
          "midi": 86,
          "name": "D6",
          "ticks": 44354,
          "time": 177.7001428125,
          "velocity": 0.889763779527559
        },
        {
          "duration": 0.14423062500000583,
          "durationTicks": 36,
          "midi": 74,
          "name": "D5",
          "ticks": 44450,
          "time": 178.0847578125,
          "velocity": 0.889763779527559
        },
        {
          "duration": 0.12820500000000834,
          "durationTicks": 32,
          "midi": 86,
          "name": "D6",
          "ticks": 44450,
          "time": 178.0847578125,
          "velocity": 0.889763779527559
        },
        {
          "duration": 0.008012812499998745,
          "durationTicks": 2,
          "midi": 86,
          "name": "D6",
          "ticks": 44544,
          "time": 178.46135999999998,
          "velocity": 0.889763779527559
        },
        {
          "duration": 0.08012812499998745,
          "durationTicks": 20,
          "midi": 74,
          "name": "D5",
          "ticks": 44548,
          "time": 178.477385625,
          "velocity": 0.889763779527559
        },
        {
          "duration": 0.08012812500001587,
          "durationTicks": 20,
          "midi": 74,
          "name": "D5",
          "ticks": 44592,
          "time": 178.65366749999998,
          "velocity": 0.889763779527559
        },
        {
          "duration": 0.07211531250001713,
          "durationTicks": 18,
          "midi": 86,
          "name": "D6",
          "ticks": 44592,
          "time": 178.65366749999998,
          "velocity": 0.889763779527559
        },
        {
          "duration": 0.01602562499999749,
          "durationTicks": 4,
          "midi": 86,
          "name": "D6",
          "ticks": 44636,
          "time": 178.82994937499998,
          "velocity": 0.889763779527559
        },
        {
          "duration": 0.07211531250001713,
          "durationTicks": 18,
          "midi": 74,
          "name": "D5",
          "ticks": 44640,
          "time": 178.84597499999998,
          "velocity": 0.889763779527559
        },
        {
          "duration": 0.07211531250001713,
          "durationTicks": 18,
          "midi": 74,
          "name": "D5",
          "ticks": 44684,
          "time": 179.02225687499998,
          "velocity": 0.889763779527559
        },
        {
          "duration": 0.08814093750001462,
          "durationTicks": 22,
          "midi": 86,
          "name": "D6",
          "ticks": 44684,
          "time": 179.02225687499998,
          "velocity": 0.889763779527559
        },
        {
          "duration": 0.008012812499970323,
          "durationTicks": 2,
          "midi": 78,
          "name": "F#5",
          "ticks": 44736,
          "time": 179.23059,
          "velocity": 0.889763779527559
        },
        {
          "duration": 0.09615374999998494,
          "durationTicks": 24,
          "midi": 90,
          "name": "F#6",
          "ticks": 44740,
          "time": 179.246615625,
          "velocity": 0.889763779527559
        },
        {
          "duration": 0.11217937500001085,
          "durationTicks": 28,
          "midi": 78,
          "name": "F#5",
          "ticks": 44834,
          "time": 179.62321781249997,
          "velocity": 0.889763779527559
        },
        {
          "duration": 0.11217937500001085,
          "durationTicks": 28,
          "midi": 90,
          "name": "F#6",
          "ticks": 44834,
          "time": 179.62321781249997,
          "velocity": 0.889763779527559
        },
        {
          "duration": 0.008012812499998745,
          "durationTicks": 2,
          "midi": 79,
          "name": "G5",
          "ticks": 44930,
          "time": 180.0078328125,
          "velocity": 0.889763779527559
        },
        {
          "duration": 0.12820500000000834,
          "durationTicks": 32,
          "midi": 91,
          "name": "G6",
          "ticks": 44930,
          "time": 180.0078328125,
          "velocity": 0.889763779527559
        },
        {
          "duration": 0.07211531250001713,
          "durationTicks": 18,
          "midi": 62,
          "name": "D4",
          "ticks": 45216,
          "time": 181.153665,
          "velocity": 0.889763779527559
        },
        {
          "duration": 0.09615375000001336,
          "durationTicks": 24,
          "midi": 74,
          "name": "D5",
          "ticks": 45216,
          "time": 181.153665,
          "velocity": 0.889763779527559
        },
        {
          "duration": 0.10416656249998368,
          "durationTicks": 26,
          "midi": 62,
          "name": "D4",
          "ticks": 45264,
          "time": 181.3459725,
          "velocity": 0.889763779527559
        },
        {
          "duration": 0.10416656249998368,
          "durationTicks": 26,
          "midi": 74,
          "name": "D5",
          "ticks": 45264,
          "time": 181.3459725,
          "velocity": 0.889763779527559
        },
        {
          "duration": 0.18429468750002798,
          "durationTicks": 46,
          "midi": 64,
          "name": "E4",
          "ticks": 45312,
          "time": 181.53828,
          "velocity": 0.889763779527559
        },
        {
          "duration": 0.18429468750002798,
          "durationTicks": 46,
          "midi": 76,
          "name": "E5",
          "ticks": 45312,
          "time": 181.53828,
          "velocity": 0.889763779527559
        },
        {
          "duration": 0.1923074999999983,
          "durationTicks": 48,
          "midi": 62,
          "name": "D4",
          "ticks": 45360,
          "time": 181.73058749999998,
          "velocity": 0.889763779527559
        },
        {
          "duration": 0.16826906250000206,
          "durationTicks": 42,
          "midi": 74,
          "name": "D5",
          "ticks": 45360,
          "time": 181.73058749999998,
          "velocity": 0.889763779527559
        },
        {
          "duration": 0.11217937499998243,
          "durationTicks": 28,
          "midi": 60,
          "name": "C4",
          "ticks": 45600,
          "time": 182.692125,
          "velocity": 0.889763779527559
        },
        {
          "duration": 0.0881409374999862,
          "durationTicks": 22,
          "midi": 74,
          "name": "D5",
          "ticks": 45600,
          "time": 182.692125,
          "velocity": 0.889763779527559
        },
        {
          "duration": 0.10416656249998368,
          "durationTicks": 26,
          "midi": 74,
          "name": "D5",
          "ticks": 45648,
          "time": 182.8844325,
          "velocity": 0.889763779527559
        },
        {
          "duration": 0.18429468749999955,
          "durationTicks": 46,
          "midi": 64,
          "name": "E4",
          "ticks": 45696,
          "time": 183.07674,
          "velocity": 0.889763779527559
        },
        {
          "duration": 0.18429468749999955,
          "durationTicks": 46,
          "midi": 76,
          "name": "E5",
          "ticks": 45696,
          "time": 183.07674,
          "velocity": 0.889763779527559
        },
        {
          "duration": 0.12820499999997992,
          "durationTicks": 32,
          "midi": 62,
          "name": "D4",
          "ticks": 45744,
          "time": 183.2690475,
          "velocity": 0.889763779527559
        },
        {
          "duration": 0.12820499999997992,
          "durationTicks": 32,
          "midi": 74,
          "name": "D5",
          "ticks": 45744,
          "time": 183.2690475,
          "velocity": 0.889763779527559
        },
        {
          "duration": 0.12820500000000834,
          "durationTicks": 32,
          "midi": 72,
          "name": "C5",
          "ticks": 46176,
          "time": 184.99981499999998,
          "velocity": 0.889763779527559
        },
        {
          "duration": 0.14423062500000583,
          "durationTicks": 36,
          "midi": 72,
          "name": "C5",
          "ticks": 46224,
          "time": 185.19212249999998,
          "velocity": 0.889763779527559
        },
        {
          "duration": 0.18429468750002798,
          "durationTicks": 46,
          "midi": 72,
          "name": "C5",
          "ticks": 46272,
          "time": 185.38442999999998,
          "velocity": 0.889763779527559
        },
        {
          "duration": 0.3766021875000263,
          "durationTicks": 94,
          "midi": 69,
          "name": "A4",
          "ticks": 46320,
          "time": 185.57673749999998,
          "velocity": 0.889763779527559
        },
        {
          "duration": 0.37660218749999785,
          "durationTicks": 94,
          "midi": 65,
          "name": "F4",
          "ticks": 46416,
          "time": 185.9613525,
          "velocity": 0.889763779527559
        },
        {
          "duration": 0.37660218749999785,
          "durationTicks": 94,
          "midi": 62,
          "name": "D4",
          "ticks": 46512,
          "time": 186.3459675,
          "velocity": 0.889763779527559
        },
        {
          "duration": 0.39262781249999534,
          "durationTicks": 98,
          "midi": 60,
          "name": "C4",
          "ticks": 46608,
          "time": 186.7305825,
          "velocity": 0.889763779527559
        },
        {
          "duration": 0.37660218749999785,
          "durationTicks": 94,
          "midi": 74,
          "name": "D5",
          "ticks": 47520,
          "time": 190.384425,
          "velocity": 0.889763779527559
        },
        {
          "duration": 0.36057656250000036,
          "durationTicks": 90,
          "midi": 86,
          "name": "D6",
          "ticks": 47520,
          "time": 190.384425,
          "velocity": 0.889763779527559
        },
        {
          "duration": 0.08814093750001462,
          "durationTicks": 22,
          "midi": 72,
          "name": "C5",
          "ticks": 47616,
          "time": 190.76904,
          "velocity": 0.889763779527559
        },
        {
          "duration": 0.0721153124999887,
          "durationTicks": 18,
          "midi": 84,
          "name": "C6",
          "ticks": 47616,
          "time": 190.76904,
          "velocity": 0.889763779527559
        },
        {
          "duration": 0.09615375000001336,
          "durationTicks": 24,
          "midi": 72,
          "name": "C5",
          "ticks": 47664,
          "time": 190.9613475,
          "velocity": 0.889763779527559
        },
        {
          "duration": 0.08012812499998745,
          "durationTicks": 20,
          "midi": 84,
          "name": "C6",
          "ticks": 47664,
          "time": 190.9613475,
          "velocity": 0.889763779527559
        },
        {
          "duration": 0.28846125000001166,
          "durationTicks": 72,
          "midi": 71,
          "name": "B4",
          "ticks": 47712,
          "time": 191.153655,
          "velocity": 0.889763779527559
        },
        {
          "duration": 0.30448687500000915,
          "durationTicks": 76,
          "midi": 83,
          "name": "B5",
          "ticks": 47712,
          "time": 191.153655,
          "velocity": 0.889763779527559
        },
        {
          "duration": 0.3445509375000029,
          "durationTicks": 86,
          "midi": 72,
          "name": "C5",
          "ticks": 47808,
          "time": 191.53826999999998,
          "velocity": 0.889763779527559
        },
        {
          "duration": 0.3285253125000054,
          "durationTicks": 82,
          "midi": 84,
          "name": "C6",
          "ticks": 47808,
          "time": 191.53826999999998,
          "velocity": 0.889763779527559
        },
        {
          "duration": 0.08814093750001462,
          "durationTicks": 22,
          "midi": 74,
          "name": "D5",
          "ticks": 47904,
          "time": 191.92288499999998,
          "velocity": 0.889763779527559
        },
        {
          "duration": 0.08012812500001587,
          "durationTicks": 20,
          "midi": 86,
          "name": "D6",
          "ticks": 47904,
          "time": 191.92288499999998,
          "velocity": 0.889763779527559
        },
        {
          "duration": 0.09615374999998494,
          "durationTicks": 24,
          "midi": 74,
          "name": "D5",
          "ticks": 47952,
          "time": 192.1151925,
          "velocity": 0.889763779527559
        },
        {
          "duration": 0.09615374999998494,
          "durationTicks": 24,
          "midi": 86,
          "name": "D6",
          "ticks": 47952,
          "time": 192.1151925,
          "velocity": 0.889763779527559
        },
        {
          "duration": 0.34455093749997445,
          "durationTicks": 86,
          "midi": 72,
          "name": "C5",
          "ticks": 48000,
          "time": 192.3075,
          "velocity": 0.889763779527559
        },
        {
          "duration": 0.36057656250000036,
          "durationTicks": 90,
          "midi": 84,
          "name": "C6",
          "ticks": 48000,
          "time": 192.3075,
          "velocity": 0.889763779527559
        },
        {
          "duration": 0.0721153124999887,
          "durationTicks": 18,
          "midi": 71,
          "name": "B4",
          "ticks": 48096,
          "time": 192.692115,
          "velocity": 0.889763779527559
        },
        {
          "duration": 0.0721153124999887,
          "durationTicks": 18,
          "midi": 83,
          "name": "B5",
          "ticks": 48096,
          "time": 192.692115,
          "velocity": 0.889763779527559
        },
        {
          "duration": 0.0881409374999862,
          "durationTicks": 22,
          "midi": 71,
          "name": "B4",
          "ticks": 48144,
          "time": 192.8844225,
          "velocity": 0.889763779527559
        },
        {
          "duration": 0.08012812499998745,
          "durationTicks": 20,
          "midi": 83,
          "name": "B5",
          "ticks": 48144,
          "time": 192.8844225,
          "velocity": 0.889763779527559
        },
        {
          "duration": 0.25640999999998826,
          "durationTicks": 64,
          "midi": 72,
          "name": "C5",
          "ticks": 48192,
          "time": 193.07673,
          "velocity": 0.889763779527559
        },
        {
          "duration": 0.24038437499999077,
          "durationTicks": 60,
          "midi": 84,
          "name": "C6",
          "ticks": 48192,
          "time": 193.07673,
          "velocity": 0.889763779527559
        },
        {
          "duration": 0.24038437499999077,
          "durationTicks": 60,
          "midi": 74,
          "name": "D5",
          "ticks": 48288,
          "time": 193.461345,
          "velocity": 0.889763779527559
        },
        {
          "duration": 0.2564100000000167,
          "durationTicks": 64,
          "midi": 86,
          "name": "D6",
          "ticks": 48288,
          "time": 193.461345,
          "velocity": 0.889763779527559
        },
        {
          "duration": 0.1762818750000008,
          "durationTicks": 44,
          "midi": 74,
          "name": "D5",
          "ticks": 48384,
          "time": 193.84596,
          "velocity": 0.889763779527559
        },
        {
          "duration": 0.1201921875000096,
          "durationTicks": 30,
          "midi": 86,
          "name": "D6",
          "ticks": 48384,
          "time": 193.84596,
          "velocity": 0.889763779527559
        },
        {
          "duration": 0.13621781250000708,
          "durationTicks": 34,
          "midi": 76,
          "name": "E5",
          "ticks": 48432,
          "time": 194.0382675,
          "velocity": 0.889763779527559
        },
        {
          "duration": 0.14423062500000583,
          "durationTicks": 36,
          "midi": 88,
          "name": "E6",
          "ticks": 48432,
          "time": 194.0382675,
          "velocity": 0.889763779527559
        },
        {
          "duration": 0.21634593749999453,
          "durationTicks": 54,
          "midi": 72,
          "name": "C5",
          "ticks": 48480,
          "time": 194.230575,
          "velocity": 0.889763779527559
        },
        {
          "duration": 0.2083331250000242,
          "durationTicks": 52,
          "midi": 84,
          "name": "C6",
          "ticks": 48480,
          "time": 194.230575,
          "velocity": 0.889763779527559
        },
        {
          "duration": 0.08814093750001462,
          "durationTicks": 22,
          "midi": 72,
          "name": "C5",
          "ticks": 48576,
          "time": 194.61518999999998,
          "velocity": 0.889763779527559
        },
        {
          "duration": 0.07211531250001713,
          "durationTicks": 18,
          "midi": 84,
          "name": "C6",
          "ticks": 48576,
          "time": 194.61518999999998,
          "velocity": 0.889763779527559
        },
        {
          "duration": 0.11217937500001085,
          "durationTicks": 28,
          "midi": 72,
          "name": "C5",
          "ticks": 48624,
          "time": 194.80749749999998,
          "velocity": 0.889763779527559
        },
        {
          "duration": 0.09615375000001336,
          "durationTicks": 24,
          "midi": 84,
          "name": "C6",
          "ticks": 48624,
          "time": 194.80749749999998,
          "velocity": 0.889763779527559
        },
        {
          "duration": 0.20032031249999704,
          "durationTicks": 50,
          "midi": 71,
          "name": "B4",
          "ticks": 48672,
          "time": 194.99980499999998,
          "velocity": 0.889763779527559
        },
        {
          "duration": 0.18429468750002798,
          "durationTicks": 46,
          "midi": 83,
          "name": "B5",
          "ticks": 48672,
          "time": 194.99980499999998,
          "velocity": 0.889763779527559
        },
        {
          "duration": 0.08012812499998745,
          "durationTicks": 20,
          "midi": 71,
          "name": "B4",
          "ticks": 48768,
          "time": 195.38442,
          "velocity": 0.889763779527559
        },
        {
          "duration": 0.08012812499998745,
          "durationTicks": 20,
          "midi": 83,
          "name": "B5",
          "ticks": 48768,
          "time": 195.38442,
          "velocity": 0.889763779527559
        },
        {
          "duration": 0.12820499999997992,
          "durationTicks": 32,
          "midi": 71,
          "name": "B4",
          "ticks": 48816,
          "time": 195.5767275,
          "velocity": 0.889763779527559
        },
        {
          "duration": 0.10416656249998368,
          "durationTicks": 26,
          "midi": 83,
          "name": "B5",
          "ticks": 48816,
          "time": 195.5767275,
          "velocity": 0.889763779527559
        },
        {
          "duration": 0.1923074999999983,
          "durationTicks": 48,
          "midi": 72,
          "name": "C5",
          "ticks": 48864,
          "time": 195.769035,
          "velocity": 0.889763779527559
        },
        {
          "duration": 0.1442306249999774,
          "durationTicks": 36,
          "midi": 84,
          "name": "C6",
          "ticks": 48864,
          "time": 195.769035,
          "velocity": 0.889763779527559
        },
        {
          "duration": 0.37660218749996943,
          "durationTicks": 94,
          "midi": 55,
          "name": "G3",
          "ticks": 54672,
          "time": 219.0382425,
          "velocity": 0.889763779527559
        },
        {
          "duration": 0.7612171874999945,
          "durationTicks": 190,
          "midi": 48,
          "name": "C3",
          "ticks": 54768,
          "time": 219.4228575,
          "velocity": 0.889763779527559
        },
        {
          "duration": 0.6891018749999773,
          "durationTicks": 172,
          "midi": 52,
          "name": "E3",
          "ticks": 54768,
          "time": 219.4228575,
          "velocity": 0.889763779527559
        },
        {
          "duration": 0.7612171874999945,
          "durationTicks": 190,
          "midi": 60,
          "name": "C4",
          "ticks": 54768,
          "time": 219.4228575,
          "velocity": 0.889763779527559
        },
        {
          "duration": 0.7532043750000241,
          "durationTicks": 188,
          "midi": 53,
          "name": "F3",
          "ticks": 54960,
          "time": 220.19208749999999,
          "velocity": 0.889763779527559
        },
        {
          "duration": 0.7612171874999945,
          "durationTicks": 190,
          "midi": 57,
          "name": "A3",
          "ticks": 54960,
          "time": 220.19208749999999,
          "velocity": 0.889763779527559
        },
        {
          "duration": 0.7612171874999945,
          "durationTicks": 190,
          "midi": 52,
          "name": "E3",
          "ticks": 55152,
          "time": 220.96131749999998,
          "velocity": 0.889763779527559
        },
        {
          "duration": 0.7612171874999945,
          "durationTicks": 190,
          "midi": 56,
          "name": "G#3",
          "ticks": 55152,
          "time": 220.96131749999998,
          "velocity": 0.889763779527559
        },
        {
          "duration": 0.7612171874999945,
          "durationTicks": 190,
          "midi": 59,
          "name": "B3",
          "ticks": 55152,
          "time": 220.96131749999998,
          "velocity": 0.889763779527559
        },
        {
          "duration": 0.6249993749999874,
          "durationTicks": 156,
          "midi": 57,
          "name": "A3",
          "ticks": 55344,
          "time": 221.7305475,
          "velocity": 0.889763779527559
        },
        {
          "duration": 0.761217187499966,
          "durationTicks": 190,
          "midi": 60,
          "name": "C4",
          "ticks": 55344,
          "time": 221.7305475,
          "velocity": 0.889763779527559
        },
        {
          "duration": 1.5144215624999902,
          "durationTicks": 378,
          "midi": 48,
          "name": "C3",
          "ticks": 55536,
          "time": 222.4997775,
          "velocity": 0.889763779527559
        },
        {
          "duration": 0.024038437499996235,
          "durationTicks": 6,
          "midi": 55,
          "name": "G3",
          "ticks": 55536,
          "time": 222.4997775,
          "velocity": 0.889763779527559
        },
        {
          "duration": 1.5304471874999876,
          "durationTicks": 382,
          "midi": 58,
          "name": "A#3",
          "ticks": 55536,
          "time": 222.4997775,
          "velocity": 0.889763779527559
        },
        {
          "duration": 1.5304471874999876,
          "durationTicks": 382,
          "midi": 52,
          "name": "E3",
          "ticks": 55920,
          "time": 224.03823749999998,
          "velocity": 0.889763779527559
        },
        {
          "duration": 1.394229375000009,
          "durationTicks": 348,
          "midi": 64,
          "name": "E4",
          "ticks": 55920,
          "time": 224.03823749999998,
          "velocity": 0.889763779527559
        },
        {
          "duration": 1.4903831250000223,
          "durationTicks": 372,
          "midi": 67,
          "name": "G4",
          "ticks": 55920,
          "time": 224.03823749999998,
          "velocity": 0.889763779527559
        },
        {
          "duration": 1.5304471874999876,
          "durationTicks": 382,
          "midi": 55,
          "name": "G3",
          "ticks": 56304,
          "time": 225.5766975,
          "velocity": 0.889763779527559
        },
        {
          "duration": 1.5304471874999876,
          "durationTicks": 382,
          "midi": 67,
          "name": "G4",
          "ticks": 56304,
          "time": 225.5766975,
          "velocity": 0.889763779527559
        },
        {
          "duration": 1.063935000000015,
          "durationTicks": 384,
          "midi": 64,
          "name": "E4",
          "ticks": 56688,
          "time": 227.11515749999998,
          "velocity": 0.889763779527559
        },
        {
          "duration": 1.072051875000028,
          "durationTicks": 388,
          "midi": 70,
          "name": "A#4",
          "ticks": 56688,
          "time": 227.11515749999998,
          "velocity": 0.889763779527559
        },
        {
          "duration": 1.063935000000015,
          "durationTicks": 384,
          "midi": 72,
          "name": "C5",
          "ticks": 56688,
          "time": 227.11515749999998,
          "velocity": 0.889763779527559
        }
      ]
    },
    {
      "channel": 0,
      "controlChanges": {
        "0": [
          {
            "number": 0,
            "ticks": 252,
            "time": 1.009614375,
            "value": 0
          }
        ],
        "32": [
          {
            "number": 32,
            "ticks": 254,
            "time": 1.0176271875,
            "value": 0
          }
        ],
        "121": [
          {
            "number": 121,
            "ticks": 172,
            "time": 0.689101875,
            "value": 0
          }
        ]
      },
      "pitchBends": [],
      "instrument": {
        "family": "piano",
        "number": 0,
        "name": "acoustic grand piano"
      },
      "name": "",
      "notes": [],
      "endOfTrackTicks": 92930
    },
    {
      "channel": 6,
      "controlChanges": {
        "7": [
          {
            "number": 7,
            "ticks": 258,
            "time": 1.0336528125,
            "value": 0.968503937007874
          }
        ],
        "10": [
          {
            "number": 10,
            "ticks": 258,
            "time": 1.0336528125,
            "value": 0.8661417322834646
          }
        ],
        "11": [
          {
            "number": 11,
            "ticks": 258,
            "time": 1.0336528125,
            "value": 0.8661417322834646
          }
        ],
        "91": [
          {
            "number": 91,
            "ticks": 260,
            "time": 1.041665625,
            "value": 1
          }
        ],
        "93": [
          {
            "number": 93,
            "ticks": 260,
            "time": 1.041665625,
            "value": 0.47244094488188976
          }
        ],
        "120": [
          {
            "number": 120,
            "ticks": 92928,
            "time": 329.03064,
            "value": 0
          }
        ],
        "123": [
          {
            "number": 123,
            "ticks": 92930,
            "time": 329.0386528125,
            "value": 0
          }
        ]
      },
      "pitchBends": [],
      "instrument": {
        "family": "brass",
        "number": 62,
        "name": "synthbrass 1"
      },
      "name": "",
      "notes": [
        {
          "duration": 0.0721153124999887,
          "durationTicks": 18,
          "midi": 76,
          "name": "E5",
          "ticks": 43296,
          "time": 173.461365,
          "velocity": 0.9448818897637795
        },
        {
          "duration": 0.08012812499998745,
          "durationTicks": 20,
          "midi": 76,
          "name": "E5",
          "ticks": 43344,
          "time": 173.6536725,
          "velocity": 0.937007874015748
        },
        {
          "duration": 0.3205124999999782,
          "durationTicks": 80,
          "midi": 81,
          "name": "A5",
          "ticks": 43392,
          "time": 173.84598,
          "velocity": 0.952755905511811
        },
        {
          "duration": 0.08012812499998745,
          "durationTicks": 20,
          "midi": 76,
          "name": "E5",
          "ticks": 43488,
          "time": 174.230595,
          "velocity": 0.937007874015748
        },
        {
          "duration": 0.08814093750001462,
          "durationTicks": 22,
          "midi": 76,
          "name": "E5",
          "ticks": 43536,
          "time": 174.4229025,
          "velocity": 0.9448818897637795
        },
        {
          "duration": 0.3445509375000029,
          "durationTicks": 86,
          "midi": 81,
          "name": "A5",
          "ticks": 43584,
          "time": 174.61521,
          "velocity": 0.952755905511811
        },
        {
          "duration": 0.08814093750001462,
          "durationTicks": 22,
          "midi": 76,
          "name": "E5",
          "ticks": 43680,
          "time": 174.999825,
          "velocity": 0.9448818897637795
        },
        {
          "duration": 0.11217937500001085,
          "durationTicks": 28,
          "midi": 76,
          "name": "E5",
          "ticks": 43728,
          "time": 175.19213249999999,
          "velocity": 0.937007874015748
        },
        {
          "duration": 0.09615375000001336,
          "durationTicks": 24,
          "midi": 75,
          "name": "D#5",
          "ticks": 43776,
          "time": 175.38443999999998,
          "velocity": 0.9448818897637795
        },
        {
          "duration": 0.11217937500001085,
          "durationTicks": 28,
          "midi": 75,
          "name": "D#5",
          "ticks": 43824,
          "time": 175.57674749999998,
          "velocity": 0.9291338582677166
        },
        {
          "duration": 0.15224343750000457,
          "durationTicks": 38,
          "midi": 76,
          "name": "E5",
          "ticks": 43872,
          "time": 175.76905499999998,
          "velocity": 0.937007874015748
        },
        {
          "duration": 0.1923074999999983,
          "durationTicks": 48,
          "midi": 78,
          "name": "F#5",
          "ticks": 43968,
          "time": 176.15367,
          "velocity": 0.9448818897637795
        },
        {
          "duration": 0.16025625000000332,
          "durationTicks": 40,
          "midi": 76,
          "name": "E5",
          "ticks": 44064,
          "time": 176.538285,
          "velocity": 0.952755905511811
        },
        {
          "duration": 0.1201921875000096,
          "durationTicks": 30,
          "midi": 72,
          "name": "C5",
          "ticks": 46176,
          "time": 184.99981499999998,
          "velocity": 0.9212598425196851
        },
        {
          "duration": 0.09615375000001336,
          "durationTicks": 24,
          "midi": 72,
          "name": "C5",
          "ticks": 46224,
          "time": 185.19212249999998,
          "velocity": 0.9212598425196851
        },
        {
          "duration": 1.2099346875000094,
          "durationTicks": 302,
          "midi": 72,
          "name": "C5",
          "ticks": 46272,
          "time": 185.38442999999998,
          "velocity": 0.9212598425196851
        },
        {
          "duration": 1.5384600000000148,
          "durationTicks": 384,
          "midi": 69,
          "name": "A4",
          "ticks": 46320,
          "time": 185.57673749999998,
          "velocity": 0.9212598425196851
        },
        {
          "duration": 1.1939090624999835,
          "durationTicks": 298,
          "midi": 65,
          "name": "F4",
          "ticks": 46416,
          "time": 185.9613525,
          "velocity": 0.9212598425196851
        },
        {
          "duration": 0.8253196874999844,
          "durationTicks": 206,
          "midi": 62,
          "name": "D4",
          "ticks": 46512,
          "time": 186.3459675,
          "velocity": 0.937007874015748
        },
        {
          "duration": 0.5048071875000062,
          "durationTicks": 126,
          "midi": 60,
          "name": "C4",
          "ticks": 46608,
          "time": 186.7305825,
          "velocity": 0.9291338582677166
        },
        {
          "duration": 0.08012812500001587,
          "durationTicks": 20,
          "midi": 60,
          "name": "C4",
          "ticks": 50544,
          "time": 202.4997975,
          "velocity": 0.952755905511811
        },
        {
          "duration": 0.0881409374999862,
          "durationTicks": 22,
          "midi": 64,
          "name": "E4",
          "ticks": 50544,
          "time": 202.4997975,
          "velocity": 0.937007874015748
        },
        {
          "duration": 0.08012812500001587,
          "durationTicks": 20,
          "midi": 67,
          "name": "G4",
          "ticks": 50544,
          "time": 202.4997975,
          "velocity": 0.952755905511811
        },
        {
          "duration": 0.0721153124999887,
          "durationTicks": 18,
          "midi": 60,
          "name": "C4",
          "ticks": 50592,
          "time": 202.692105,
          "velocity": 0.9448818897637795
        },
        {
          "duration": 0.0721153124999887,
          "durationTicks": 18,
          "midi": 64,
          "name": "E4",
          "ticks": 50592,
          "time": 202.692105,
          "velocity": 0.937007874015748
        },
        {
          "duration": 0.0881409374999862,
          "durationTicks": 22,
          "midi": 67,
          "name": "G4",
          "ticks": 50592,
          "time": 202.692105,
          "velocity": 0.9448818897637795
        },
        {
          "duration": 0.06410249999998996,
          "durationTicks": 16,
          "midi": 60,
          "name": "C4",
          "ticks": 50640,
          "time": 202.8844125,
          "velocity": 0.937007874015748
        },
        {
          "duration": 0.056089687500019636,
          "durationTicks": 14,
          "midi": 65,
          "name": "F4",
          "ticks": 50640,
          "time": 202.8844125,
          "velocity": 0.9291338582677166
        },
        {
          "duration": 0.06410249999998996,
          "durationTicks": 16,
          "midi": 69,
          "name": "A4",
          "ticks": 50640,
          "time": 202.8844125,
          "velocity": 0.937007874015748
        },
        {
          "duration": 0.06410249999998996,
          "durationTicks": 16,
          "midi": 60,
          "name": "C4",
          "ticks": 50688,
          "time": 203.07672,
          "velocity": 0.9212598425196851
        },
        {
          "duration": 0.056089687500019636,
          "durationTicks": 14,
          "midi": 67,
          "name": "G4",
          "ticks": 50688,
          "time": 203.07672,
          "velocity": 0.937007874015748
        },
        {
          "duration": 0.09615374999998494,
          "durationTicks": 24,
          "midi": 70,
          "name": "A#4",
          "ticks": 50688,
          "time": 203.07672,
          "velocity": 0.9448818897637795
        },
        {
          "duration": 0.08012812500001587,
          "durationTicks": 20,
          "midi": 60,
          "name": "C4",
          "ticks": 50736,
          "time": 203.2690275,
          "velocity": 0.937007874015748
        },
        {
          "duration": 0.0721153124999887,
          "durationTicks": 18,
          "midi": 65,
          "name": "F4",
          "ticks": 50736,
          "time": 203.2690275,
          "velocity": 0.9448818897637795
        },
        {
          "duration": 0.0721153124999887,
          "durationTicks": 18,
          "midi": 69,
          "name": "A4",
          "ticks": 50736,
          "time": 203.2690275,
          "velocity": 0.937007874015748
        },
        {
          "duration": 0.11217937499998243,
          "durationTicks": 28,
          "midi": 60,
          "name": "C4",
          "ticks": 50784,
          "time": 203.461335,
          "velocity": 0.952755905511811
        },
        {
          "duration": 0.1041665625000121,
          "durationTicks": 26,
          "midi": 64,
          "name": "E4",
          "ticks": 50784,
          "time": 203.461335,
          "velocity": 0.952755905511811
        },
        {
          "duration": 0.1041665625000121,
          "durationTicks": 26,
          "midi": 67,
          "name": "G4",
          "ticks": 50784,
          "time": 203.461335,
          "velocity": 0.9606299212598425
        },
        {
          "duration": 0.0881409374999862,
          "durationTicks": 22,
          "midi": 60,
          "name": "C4",
          "ticks": 51504,
          "time": 206.3459475,
          "velocity": 0.9133858267716536
        },
        {
          "duration": 0.09615374999998494,
          "durationTicks": 24,
          "midi": 64,
          "name": "E4",
          "ticks": 51504,
          "time": 206.3459475,
          "velocity": 0.905511811023622
        },
        {
          "duration": 0.09615374999998494,
          "durationTicks": 24,
          "midi": 67,
          "name": "G4",
          "ticks": 51504,
          "time": 206.3459475,
          "velocity": 0.9212598425196851
        },
        {
          "duration": 0.1041665625000121,
          "durationTicks": 26,
          "midi": 60,
          "name": "C4",
          "ticks": 51552,
          "time": 206.538255,
          "velocity": 0.905511811023622
        },
        {
          "duration": 0.0881409374999862,
          "durationTicks": 22,
          "midi": 64,
          "name": "E4",
          "ticks": 51552,
          "time": 206.538255,
          "velocity": 0.889763779527559
        },
        {
          "duration": 0.14423062500000583,
          "durationTicks": 36,
          "midi": 67,
          "name": "G4",
          "ticks": 51552,
          "time": 206.538255,
          "velocity": 0.9133858267716536
        },
        {
          "duration": 0.0881409374999862,
          "durationTicks": 22,
          "midi": 60,
          "name": "C4",
          "ticks": 51600,
          "time": 206.7305625,
          "velocity": 0.937007874015748
        },
        {
          "duration": 0.08012812500001587,
          "durationTicks": 20,
          "midi": 65,
          "name": "F4",
          "ticks": 51600,
          "time": 206.7305625,
          "velocity": 0.9212598425196851
        },
        {
          "duration": 0.1201921875000096,
          "durationTicks": 30,
          "midi": 69,
          "name": "A4",
          "ticks": 51600,
          "time": 206.7305625,
          "velocity": 0.9212598425196851
        },
        {
          "duration": 0.1041665625000121,
          "durationTicks": 26,
          "midi": 60,
          "name": "C4",
          "ticks": 51648,
          "time": 206.92287,
          "velocity": 0.8976377952755905
        },
        {
          "duration": 0.12820500000000834,
          "durationTicks": 32,
          "midi": 67,
          "name": "G4",
          "ticks": 51648,
          "time": 206.92287,
          "velocity": 0.937007874015748
        },
        {
          "duration": 0.14423062500000583,
          "durationTicks": 36,
          "midi": 70,
          "name": "A#4",
          "ticks": 51648,
          "time": 206.92287,
          "velocity": 0.937007874015748
        },
        {
          "duration": 0.09615375000001336,
          "durationTicks": 24,
          "midi": 60,
          "name": "C4",
          "ticks": 51696,
          "time": 207.1151775,
          "velocity": 0.937007874015748
        },
        {
          "duration": 0.0881409374999862,
          "durationTicks": 22,
          "midi": 65,
          "name": "F4",
          "ticks": 51696,
          "time": 207.1151775,
          "velocity": 0.9212598425196851
        },
        {
          "duration": 0.11217937499998243,
          "durationTicks": 28,
          "midi": 69,
          "name": "A4",
          "ticks": 51696,
          "time": 207.1151775,
          "velocity": 0.937007874015748
        },
        {
          "duration": 0.11217937499998243,
          "durationTicks": 28,
          "midi": 60,
          "name": "C4",
          "ticks": 51744,
          "time": 207.30748499999999,
          "velocity": 0.937007874015748
        },
        {
          "duration": 0.1201921875000096,
          "durationTicks": 30,
          "midi": 64,
          "name": "E4",
          "ticks": 51744,
          "time": 207.30748499999999,
          "velocity": 0.937007874015748
        },
        {
          "duration": 0.14423062500000583,
          "durationTicks": 36,
          "midi": 67,
          "name": "G4",
          "ticks": 51744,
          "time": 207.30748499999999,
          "velocity": 0.937007874015748
        },
        {
          "duration": 0.09615375000001336,
          "durationTicks": 24,
          "midi": 60,
          "name": "C4",
          "ticks": 51888,
          "time": 207.88440749999998,
          "velocity": 0.937007874015748
        },
        {
          "duration": 0.1041665625000121,
          "durationTicks": 26,
          "midi": 64,
          "name": "E4",
          "ticks": 51888,
          "time": 207.88440749999998,
          "velocity": 0.9212598425196851
        },
        {
          "duration": 0.08012812500001587,
          "durationTicks": 20,
          "midi": 67,
          "name": "G4",
          "ticks": 51888,
          "time": 207.88440749999998,
          "velocity": 0.9291338582677166
        },
        {
          "duration": 0.0881409374999862,
          "durationTicks": 22,
          "midi": 60,
          "name": "C4",
          "ticks": 51936,
          "time": 208.07671499999998,
          "velocity": 0.9133858267716536
        },
        {
          "duration": 0.08012812500001587,
          "durationTicks": 20,
          "midi": 64,
          "name": "E4",
          "ticks": 51936,
          "time": 208.07671499999998,
          "velocity": 0.905511811023622
        },
        {
          "duration": 0.1201921875000096,
          "durationTicks": 30,
          "midi": 67,
          "name": "G4",
          "ticks": 51936,
          "time": 208.07671499999998,
          "velocity": 0.937007874015748
        },
        {
          "duration": 0.08814093749995777,
          "durationTicks": 22,
          "midi": 60,
          "name": "C4",
          "ticks": 51984,
          "time": 208.2690225,
          "velocity": 0.952755905511811
        },
        {
          "duration": 0.0721153124999887,
          "durationTicks": 18,
          "midi": 65,
          "name": "F4",
          "ticks": 51984,
          "time": 208.2690225,
          "velocity": 0.9291338582677166
        },
        {
          "duration": 0.1041665625000121,
          "durationTicks": 26,
          "midi": 69,
          "name": "A4",
          "ticks": 51984,
          "time": 208.2690225,
          "velocity": 0.9448818897637795
        },
        {
          "duration": 0.08012812500001587,
          "durationTicks": 20,
          "midi": 60,
          "name": "C4",
          "ticks": 52032,
          "time": 208.46133,
          "velocity": 0.952755905511811
        },
        {
          "duration": 0.12019218749998117,
          "durationTicks": 30,
          "midi": 67,
          "name": "G4",
          "ticks": 52032,
          "time": 208.46133,
          "velocity": 0.9448818897637795
        },
        {
          "duration": 0.1442306249999774,
          "durationTicks": 36,
          "midi": 70,
          "name": "A#4",
          "ticks": 52032,
          "time": 208.46133,
          "velocity": 0.937007874015748
        },
        {
          "duration": 0.1041665625000121,
          "durationTicks": 26,
          "midi": 60,
          "name": "C4",
          "ticks": 52080,
          "time": 208.6536375,
          "velocity": 0.9212598425196851
        },
        {
          "duration": 0.0881409374999862,
          "durationTicks": 22,
          "midi": 65,
          "name": "F4",
          "ticks": 52080,
          "time": 208.6536375,
          "velocity": 0.9448818897637795
        },
        {
          "duration": 0.12019218749998117,
          "durationTicks": 30,
          "midi": 69,
          "name": "A4",
          "ticks": 52080,
          "time": 208.6536375,
          "velocity": 0.937007874015748
        },
        {
          "duration": 0.12820500000000834,
          "durationTicks": 32,
          "midi": 60,
          "name": "C4",
          "ticks": 52128,
          "time": 208.845945,
          "velocity": 0.952755905511811
        },
        {
          "duration": 0.12820500000000834,
          "durationTicks": 32,
          "midi": 64,
          "name": "E4",
          "ticks": 52128,
          "time": 208.845945,
          "velocity": 0.9448818897637795
        },
        {
          "duration": 0.12820500000000834,
          "durationTicks": 32,
          "midi": 67,
          "name": "G4",
          "ticks": 52128,
          "time": 208.845945,
          "velocity": 0.952755905511811
        },
        {
          "duration": 0.09615374999998494,
          "durationTicks": 24,
          "midi": 60,
          "name": "C4",
          "ticks": 52272,
          "time": 209.4228675,
          "velocity": 0.9448818897637795
        },
        {
          "duration": 0.0881409374999862,
          "durationTicks": 22,
          "midi": 64,
          "name": "E4",
          "ticks": 52272,
          "time": 209.4228675,
          "velocity": 0.952755905511811
        },
        {
          "duration": 0.0881409374999862,
          "durationTicks": 22,
          "midi": 67,
          "name": "G4",
          "ticks": 52272,
          "time": 209.4228675,
          "velocity": 0.952755905511811
        },
        {
          "duration": 0.1041665625000121,
          "durationTicks": 26,
          "midi": 60,
          "name": "C4",
          "ticks": 52320,
          "time": 209.615175,
          "velocity": 0.9212598425196851
        },
        {
          "duration": 0.08012812500001587,
          "durationTicks": 20,
          "midi": 64,
          "name": "E4",
          "ticks": 52320,
          "time": 209.615175,
          "velocity": 0.937007874015748
        },
        {
          "duration": 0.12820500000000834,
          "durationTicks": 32,
          "midi": 67,
          "name": "G4",
          "ticks": 52320,
          "time": 209.615175,
          "velocity": 0.9448818897637795
        },
        {
          "duration": 0.0881409374999862,
          "durationTicks": 22,
          "midi": 60,
          "name": "C4",
          "ticks": 52368,
          "time": 209.8074825,
          "velocity": 0.937007874015748
        },
        {
          "duration": 0.08012812500001587,
          "durationTicks": 20,
          "midi": 65,
          "name": "F4",
          "ticks": 52368,
          "time": 209.8074825,
          "velocity": 0.9448818897637795
        },
        {
          "duration": 0.11217937499998243,
          "durationTicks": 28,
          "midi": 69,
          "name": "A4",
          "ticks": 52368,
          "time": 209.8074825,
          "velocity": 0.9448818897637795
        },
        {
          "duration": 0.09615375000001336,
          "durationTicks": 24,
          "midi": 60,
          "name": "C4",
          "ticks": 52416,
          "time": 209.99979,
          "velocity": 0.9448818897637795
        },
        {
          "duration": 0.1201921875000096,
          "durationTicks": 30,
          "midi": 67,
          "name": "G4",
          "ticks": 52416,
          "time": 209.99979,
          "velocity": 0.9448818897637795
        },
        {
          "duration": 0.14423062500000583,
          "durationTicks": 36,
          "midi": 70,
          "name": "A#4",
          "ticks": 52416,
          "time": 209.99979,
          "velocity": 0.937007874015748
        },
        {
          "duration": 0.09615375000001336,
          "durationTicks": 24,
          "midi": 60,
          "name": "C4",
          "ticks": 52464,
          "time": 210.1920975,
          "velocity": 0.952755905511811
        },
        {
          "duration": 0.07211531250001713,
          "durationTicks": 18,
          "midi": 65,
          "name": "F4",
          "ticks": 52464,
          "time": 210.1920975,
          "velocity": 0.9448818897637795
        },
        {
          "duration": 0.11217937499998243,
          "durationTicks": 28,
          "midi": 69,
          "name": "A4",
          "ticks": 52464,
          "time": 210.1920975,
          "velocity": 0.9448818897637795
        },
        {
          "duration": 0.13621781249997866,
          "durationTicks": 34,
          "midi": 60,
          "name": "C4",
          "ticks": 52512,
          "time": 210.384405,
          "velocity": 0.9606299212598425
        },
        {
          "duration": 0.12820500000000834,
          "durationTicks": 32,
          "midi": 64,
          "name": "E4",
          "ticks": 52512,
          "time": 210.384405,
          "velocity": 0.937007874015748
        },
        {
          "duration": 0.13621781249997866,
          "durationTicks": 34,
          "midi": 67,
          "name": "G4",
          "ticks": 52512,
          "time": 210.384405,
          "velocity": 0.952755905511811
        },
        {
          "duration": 1.5705112500000382,
          "durationTicks": 392,
          "midi": 72,
          "name": "C5",
          "ticks": 52752,
          "time": 211.34594249999998,
          "velocity": 0.937007874015748
        },
        {
          "duration": 1.2099346875000094,
          "durationTicks": 302,
          "midi": 68,
          "name": "G#4",
          "ticks": 52848,
          "time": 211.7305575,
          "velocity": 0.937007874015748
        },
        {
          "duration": 0.8653837499999781,
          "durationTicks": 216,
          "midi": 65,
          "name": "F4",
          "ticks": 52944,
          "time": 212.1151725,
          "velocity": 0.937007874015748
        },
        {
          "duration": 0.5208328124999753,
          "durationTicks": 130,
          "midi": 63,
          "name": "D#4",
          "ticks": 53040,
          "time": 212.4997875,
          "velocity": 0.937007874015748
        },
        {
          "duration": 0.2644228125000154,
          "durationTicks": 66,
          "midi": 48,
          "name": "C3",
          "ticks": 53232,
          "time": 213.2690175,
          "velocity": 0.9448818897637795
        },
        {
          "duration": 0.2403843750000192,
          "durationTicks": 60,
          "midi": 47,
          "name": "B2",
          "ticks": 53328,
          "time": 213.6536325,
          "velocity": 0.952755905511811
        },
        {
          "duration": 0.28846125000001166,
          "durationTicks": 72,
          "midi": 44,
          "name": "G#2",
          "ticks": 53424,
          "time": 214.03824749999998,
          "velocity": 0.9606299212598425
        },
        {
          "duration": 0.1923074999999983,
          "durationTicks": 48,
          "midi": 53,
          "name": "F3",
          "ticks": 53424,
          "time": 214.03824749999998,
          "velocity": 0.9606299212598425
        },
        {
          "duration": 0.24839718750001794,
          "durationTicks": 62,
          "midi": 43,
          "name": "G2",
          "ticks": 53520,
          "time": 214.42286249999998,
          "velocity": 0.9606299212598425
        },
        {
          "duration": 0.384615000000025,
          "durationTicks": 96,
          "midi": 50,
          "name": "D3",
          "ticks": 53520,
          "time": 214.42286249999998,
          "velocity": 0.9606299212598425
        },
        {
          "duration": 0.24038437499999077,
          "durationTicks": 60,
          "midi": 41,
          "name": "F2",
          "ticks": 53616,
          "time": 214.8074775,
          "velocity": 0.9606299212598425
        },
        {
          "duration": 0.1923074999999983,
          "durationTicks": 48,
          "midi": 56,
          "name": "G#3",
          "ticks": 53616,
          "time": 214.8074775,
          "velocity": 0.9606299212598425
        },
        {
          "duration": 0.24839718750001794,
          "durationTicks": 62,
          "midi": 38,
          "name": "D2",
          "ticks": 53712,
          "time": 215.1920925,
          "velocity": 0.9606299212598425
        },
        {
          "duration": 0.1923074999999983,
          "durationTicks": 48,
          "midi": 55,
          "name": "G3",
          "ticks": 53712,
          "time": 215.1920925,
          "velocity": 0.9606299212598425
        },
        {
          "duration": 0.39262781249999534,
          "durationTicks": 98,
          "midi": 12,
          "name": "C0",
          "ticks": 53808,
          "time": 215.5767075,
          "velocity": 0.952755905511811
        },
        {
          "duration": 0.3846149999999966,
          "durationTicks": 96,
          "midi": 36,
          "name": "C2",
          "ticks": 53808,
          "time": 215.5767075,
          "velocity": 0.9606299212598425
        },
        {
          "duration": 0.06410249999998996,
          "durationTicks": 16,
          "midi": 43,
          "name": "G2",
          "ticks": 54096,
          "time": 216.7305525,
          "velocity": 0.8818897637795275
        },
        {
          "duration": 0.08012812500001587,
          "durationTicks": 20,
          "midi": 55,
          "name": "G3",
          "ticks": 54096,
          "time": 216.7305525,
          "velocity": 0.8740157480314961
        },
        {
          "duration": 0.08012812500001587,
          "durationTicks": 20,
          "midi": 43,
          "name": "G2",
          "ticks": 54144,
          "time": 216.92286,
          "velocity": 0.889763779527559
        },
        {
          "duration": 0.08012812500001587,
          "durationTicks": 20,
          "midi": 55,
          "name": "G3",
          "ticks": 54144,
          "time": 216.92286,
          "velocity": 0.889763779527559
        },
        {
          "duration": 0.20032031250002547,
          "durationTicks": 50,
          "midi": 45,
          "name": "A2",
          "ticks": 54192,
          "time": 217.11516749999998,
          "velocity": 0.9212598425196851
        },
        {
          "duration": 0.18429468749999955,
          "durationTicks": 46,
          "midi": 57,
          "name": "A3",
          "ticks": 54192,
          "time": 217.11516749999998,
          "velocity": 0.9133858267716536
        },
        {
          "duration": 0.28846125000001166,
          "durationTicks": 72,
          "midi": 43,
          "name": "G2",
          "ticks": 54240,
          "time": 217.30747499999998,
          "velocity": 0.9133858267716536
        },
        {
          "duration": 0.18429468749999955,
          "durationTicks": 46,
          "midi": 55,
          "name": "G3",
          "ticks": 54240,
          "time": 217.30747499999998,
          "velocity": 0.905511811023622
        },
        {
          "duration": 0.1201921875000096,
          "durationTicks": 30,
          "midi": 52,
          "name": "E3",
          "ticks": 54288,
          "time": 217.49978249999998,
          "velocity": 0.952755905511811
        },
        {
          "duration": 0.0881409374999862,
          "durationTicks": 22,
          "midi": 55,
          "name": "G3",
          "ticks": 54288,
          "time": 217.49978249999998,
          "velocity": 0.9448818897637795
        },
        {
          "duration": 0.01602562499999749,
          "durationTicks": 4,
          "midi": 43,
          "name": "G2",
          "ticks": 54336,
          "time": 217.69208999999998,
          "velocity": 0.7952755905511811
        },
        {
          "duration": 0.152243437500033,
          "durationTicks": 38,
          "midi": 52,
          "name": "E3",
          "ticks": 54336,
          "time": 217.69208999999998,
          "velocity": 0.9291338582677166
        },
        {
          "duration": 0.33653812500000413,
          "durationTicks": 84,
          "midi": 55,
          "name": "G3",
          "ticks": 54336,
          "time": 217.69208999999998,
          "velocity": 0.937007874015748
        },
        {
          "duration": 0.152243437500033,
          "durationTicks": 38,
          "midi": 53,
          "name": "F3",
          "ticks": 54384,
          "time": 217.88439749999998,
          "velocity": 0.937007874015748
        },
        {
          "duration": 0.12820500000000834,
          "durationTicks": 32,
          "midi": 52,
          "name": "E3",
          "ticks": 54432,
          "time": 218.076705,
          "velocity": 0.937007874015748
        },
        {
          "duration": 0.12820500000000834,
          "durationTicks": 32,
          "midi": 55,
          "name": "G3",
          "ticks": 54432,
          "time": 218.076705,
          "velocity": 0.937007874015748
        },
        {
          "duration": 0.12019218749998117,
          "durationTicks": 30,
          "midi": 50,
          "name": "D3",
          "ticks": 54480,
          "time": 218.2690125,
          "velocity": 0.9448818897637795
        },
        {
          "duration": 0.12820500000000834,
          "durationTicks": 32,
          "midi": 55,
          "name": "G3",
          "ticks": 54480,
          "time": 218.2690125,
          "velocity": 0.937007874015748
        },
        {
          "duration": 0.1041665625000121,
          "durationTicks": 26,
          "midi": 48,
          "name": "C3",
          "ticks": 54528,
          "time": 218.46132,
          "velocity": 0.9448818897637795
        },
        {
          "duration": 0.12019218749998117,
          "durationTicks": 30,
          "midi": 55,
          "name": "G3",
          "ticks": 54528,
          "time": 218.46132,
          "velocity": 0.937007874015748
        },
        {
          "duration": 0.20032031249999704,
          "durationTicks": 50,
          "midi": 47,
          "name": "B2",
          "ticks": 54576,
          "time": 218.6536275,
          "velocity": 0.952755905511811
        },
        {
          "duration": 0.21634593749999453,
          "durationTicks": 54,
          "midi": 55,
          "name": "G3",
          "ticks": 54576,
          "time": 218.6536275,
          "velocity": 0.952755905511811
        },
        {
          "duration": 0.28846124999998324,
          "durationTicks": 72,
          "midi": 55,
          "name": "G3",
          "ticks": 54672,
          "time": 219.0382425,
          "velocity": 0.937007874015748
        },
        {
          "duration": 0.01602562499999749,
          "durationTicks": 4,
          "midi": 59,
          "name": "B3",
          "ticks": 54768,
          "time": 219.4228575,
          "velocity": 0.952755905511811
        },
        {
          "duration": 0.44871749999998656,
          "durationTicks": 112,
          "midi": 60,
          "name": "C4",
          "ticks": 54768,
          "time": 219.4228575,
          "velocity": 0.9291338582677166
        },
        {
          "duration": 0.11217937499998243,
          "durationTicks": 28,
          "midi": 60,
          "name": "C4",
          "ticks": 54912,
          "time": 219.99978,
          "velocity": 0.9448818897637795
        },
        {
          "duration": 0.14423062500000583,
          "durationTicks": 36,
          "midi": 60,
          "name": "C4",
          "ticks": 54960,
          "time": 220.19208749999999,
          "velocity": 0.952755905511811
        },
        {
          "duration": 0.11217937499998243,
          "durationTicks": 28,
          "midi": 60,
          "name": "C4",
          "ticks": 55056,
          "time": 220.57670249999998,
          "velocity": 0.937007874015748
        },
        {
          "duration": 0.14423062500000583,
          "durationTicks": 36,
          "midi": 60,
          "name": "C4",
          "ticks": 55104,
          "time": 220.76900999999998,
          "velocity": 0.9212598425196851
        },
        {
          "duration": 0.12820500000003676,
          "durationTicks": 32,
          "midi": 59,
          "name": "B3",
          "ticks": 55152,
          "time": 220.96131749999998,
          "velocity": 0.9291338582677166
        },
        {
          "duration": 0.12019218749998117,
          "durationTicks": 30,
          "midi": 59,
          "name": "B3",
          "ticks": 55200,
          "time": 221.153625,
          "velocity": 0.9133858267716536
        },
        {
          "duration": 0.12019218749998117,
          "durationTicks": 30,
          "midi": 59,
          "name": "B3",
          "ticks": 55248,
          "time": 221.3459325,
          "velocity": 0.937007874015748
        },
        {
          "duration": 0.15224343750000457,
          "durationTicks": 38,
          "midi": 59,
          "name": "B3",
          "ticks": 55296,
          "time": 221.53824,
          "velocity": 0.9212598425196851
        },
        {
          "duration": 0.21634593749999453,
          "durationTicks": 54,
          "midi": 52,
          "name": "E3",
          "ticks": 55344,
          "time": 221.7305475,
          "velocity": 0.952755905511811
        },
        {
          "duration": 0.28846124999998324,
          "durationTicks": 72,
          "midi": 52,
          "name": "E3",
          "ticks": 55440,
          "time": 222.1151625,
          "velocity": 0.952755905511811
        },
        {
          "duration": 0.7692299999999932,
          "durationTicks": 192,
          "midi": 50,
          "name": "D3",
          "ticks": 55536,
          "time": 222.4997775,
          "velocity": 0.9448818897637795
        },
        {
          "duration": 0.09615375000001336,
          "durationTicks": 24,
          "midi": 48,
          "name": "C3",
          "ticks": 55872,
          "time": 223.84592999999998,
          "velocity": 0.937007874015748
        },
        {
          "duration": 0.10416656249998368,
          "durationTicks": 26,
          "midi": 66,
          "name": "F#4",
          "ticks": 85248,
          "time": 298.26144,
          "velocity": 0.905511811023622
        },
        {
          "duration": 0.3846149999999966,
          "durationTicks": 96,
          "midi": 67,
          "name": "G4",
          "ticks": 85248,
          "time": 298.26144,
          "velocity": 0.9448818897637795
        },
        {
          "duration": 0.3445509375000029,
          "durationTicks": 86,
          "midi": 65,
          "name": "F4",
          "ticks": 85344,
          "time": 298.646055,
          "velocity": 0.937007874015748
        },
        {
          "duration": 0.44871749999998656,
          "durationTicks": 112,
          "midi": 65,
          "name": "F4",
          "ticks": 85440,
          "time": 299.03067,
          "velocity": 0.9448818897637795
        },
        {
          "duration": 0.3285253125000054,
          "durationTicks": 82,
          "midi": 63,
          "name": "D#4",
          "ticks": 85536,
          "time": 299.415285,
          "velocity": 0.9212598425196851
        },
        {
          "duration": 0.3846149999999966,
          "durationTicks": 96,
          "midi": 63,
          "name": "D#4",
          "ticks": 85632,
          "time": 299.7999,
          "velocity": 0.9291338582677166
        },
        {
          "duration": 0.8253196875000413,
          "durationTicks": 206,
          "midi": 60,
          "name": "C4",
          "ticks": 85728,
          "time": 300.184515,
          "velocity": 0.9133858267716536
        },
        {
          "duration": 0.3766021875000547,
          "durationTicks": 94,
          "midi": 62,
          "name": "D4",
          "ticks": 85920,
          "time": 300.95374499999997,
          "velocity": 0.937007874015748
        },
        {
          "duration": 4.687495312500005,
          "durationTicks": 1170,
          "midi": 63,
          "name": "D#4",
          "ticks": 86016,
          "time": 301.33835999999997,
          "velocity": 0.937007874015748
        }
      ]
    },
    {
      "channel": 0,
      "controlChanges": {
        "0": [
          {
            "number": 0,
            "ticks": 262,
            "time": 1.0496784375,
            "value": 0
          }
        ],
        "32": [
          {
            "number": 32,
            "ticks": 264,
            "time": 1.05769125,
            "value": 0
          }
        ],
        "121": [
          {
            "number": 121,
            "ticks": 174,
            "time": 0.6971146874999999,
            "value": 0
          }
        ]
      },
      "pitchBends": [],
      "instrument": {
        "family": "piano",
        "number": 0,
        "name": "acoustic grand piano"
      },
      "name": "",
      "notes": [],
      "endOfTrackTicks": 92928
    },
    {
      "channel": 7,
      "controlChanges": {
        "7": [
          {
            "number": 7,
            "ticks": 268,
            "time": 1.073716875,
            "value": 0.968503937007874
          }
        ],
        "10": [
          {
            "number": 10,
            "ticks": 268,
            "time": 1.073716875,
            "value": 0.07874015748031496
          }
        ],
        "11": [
          {
            "number": 11,
            "ticks": 268,
            "time": 1.073716875,
            "value": 0.7086614173228346
          }
        ],
        "91": [
          {
            "number": 91,
            "ticks": 270,
            "time": 1.0817296875,
            "value": 1
          }
        ],
        "93": [
          {
            "number": 93,
            "ticks": 270,
            "time": 1.0817296875,
            "value": 0.31496062992125984
          }
        ],
        "120": [
          {
            "number": 120,
            "ticks": 92928,
            "time": 329.03064,
            "value": 0
          }
        ]
      },
      "pitchBends": [],
      "instrument": {
        "family": "reed",
        "number": 69,
        "name": "english horn"
      },
      "name": "",
      "notes": [
        {
          "duration": 0.3124996875000079,
          "durationTicks": 78,
          "midi": 74,
          "name": "D5",
          "ticks": 42624,
          "time": 170.76906,
          "velocity": 0.937007874015748
        },
        {
          "duration": 0.0721153124999887,
          "durationTicks": 18,
          "midi": 73,
          "name": "C#5",
          "ticks": 42720,
          "time": 171.153675,
          "velocity": 0.9291338582677166
        },
        {
          "duration": 0.08814093750001462,
          "durationTicks": 22,
          "midi": 73,
          "name": "C#5",
          "ticks": 42768,
          "time": 171.3459825,
          "velocity": 0.937007874015748
        },
        {
          "duration": 0.03205124999999498,
          "durationTicks": 8,
          "midi": 71,
          "name": "B4",
          "ticks": 42816,
          "time": 171.53829,
          "velocity": 0.889763779527559
        },
        {
          "duration": 0.08012812499998745,
          "durationTicks": 20,
          "midi": 72,
          "name": "C5",
          "ticks": 42816,
          "time": 171.53829,
          "velocity": 0.9212598425196851
        },
        {
          "duration": 0.08012812499998745,
          "durationTicks": 20,
          "midi": 72,
          "name": "C5",
          "ticks": 42864,
          "time": 171.7305975,
          "velocity": 0.9291338582677166
        },
        {
          "duration": 0.07211531250001713,
          "durationTicks": 18,
          "midi": 73,
          "name": "C#5",
          "ticks": 42912,
          "time": 171.922905,
          "velocity": 0.937007874015748
        },
        {
          "duration": 0.06410250000001838,
          "durationTicks": 16,
          "midi": 73,
          "name": "C#5",
          "ticks": 42960,
          "time": 172.11521249999998,
          "velocity": 0.9291338582677166
        },
        {
          "duration": 0.07211531250001713,
          "durationTicks": 18,
          "midi": 74,
          "name": "D5",
          "ticks": 43008,
          "time": 172.30751999999998,
          "velocity": 0.9291338582677166
        },
        {
          "duration": 0.08814093750001462,
          "durationTicks": 22,
          "midi": 74,
          "name": "D5",
          "ticks": 43056,
          "time": 172.49982749999998,
          "velocity": 0.937007874015748
        },
        {
          "duration": 0.08012812500001587,
          "durationTicks": 20,
          "midi": 73,
          "name": "C#5",
          "ticks": 43104,
          "time": 172.69213499999998,
          "velocity": 0.937007874015748
        },
        {
          "duration": 0.08012812499998745,
          "durationTicks": 20,
          "midi": 73,
          "name": "C#5",
          "ticks": 43152,
          "time": 172.8844425,
          "velocity": 0.9291338582677166
        },
        {
          "duration": 0.30448687500000915,
          "durationTicks": 76,
          "midi": 72,
          "name": "C5",
          "ticks": 43200,
          "time": 173.07675,
          "velocity": 0.9291338582677166
        },
        {
          "duration": 0.11217937500001085,
          "durationTicks": 28,
          "midi": 59,
          "name": "B3",
          "ticks": 45024,
          "time": 180.384435,
          "velocity": 0.937007874015748
        },
        {
          "duration": 0.09615374999998494,
          "durationTicks": 24,
          "midi": 67,
          "name": "G4",
          "ticks": 45024,
          "time": 180.384435,
          "velocity": 0.937007874015748
        },
        {
          "duration": 0.1923074999999983,
          "durationTicks": 48,
          "midi": 59,
          "name": "B3",
          "ticks": 45072,
          "time": 180.5767425,
          "velocity": 0.937007874015748
        },
        {
          "duration": 0.08814093750001462,
          "durationTicks": 22,
          "midi": 67,
          "name": "G4",
          "ticks": 45072,
          "time": 180.5767425,
          "velocity": 0.937007874015748
        },
        {
          "duration": 0.23237156250002045,
          "durationTicks": 58,
          "midi": 60,
          "name": "C4",
          "ticks": 45120,
          "time": 180.76905,
          "velocity": 0.9448818897637795
        },
        {
          "duration": 0.27243562499998575,
          "durationTicks": 68,
          "midi": 67,
          "name": "G4",
          "ticks": 45120,
          "time": 180.76905,
          "velocity": 0.9448818897637795
        },
        {
          "duration": 0.13621781250000708,
          "durationTicks": 34,
          "midi": 59,
          "name": "B3",
          "ticks": 45168,
          "time": 180.9613575,
          "velocity": 0.9448818897637795
        },
        {
          "duration": 0.09615375000001336,
          "durationTicks": 24,
          "midi": 59,
          "name": "B3",
          "ticks": 45408,
          "time": 181.92289499999998,
          "velocity": 0.9448818897637795
        },
        {
          "duration": 0.08012812500001587,
          "durationTicks": 20,
          "midi": 67,
          "name": "G4",
          "ticks": 45408,
          "time": 181.92289499999998,
          "velocity": 0.9448818897637795
        },
        {
          "duration": 0.1923074999999983,
          "durationTicks": 48,
          "midi": 59,
          "name": "B3",
          "ticks": 45456,
          "time": 182.11520249999998,
          "velocity": 0.9448818897637795
        },
        {
          "duration": 0.08012812500001587,
          "durationTicks": 20,
          "midi": 67,
          "name": "G4",
          "ticks": 45456,
          "time": 182.11520249999998,
          "velocity": 0.9448818897637795
        },
        {
          "duration": 0.18429468750002798,
          "durationTicks": 46,
          "midi": 60,
          "name": "C4",
          "ticks": 45504,
          "time": 182.30750999999998,
          "velocity": 0.9448818897637795
        },
        {
          "duration": 0.19230750000002672,
          "durationTicks": 48,
          "midi": 67,
          "name": "G4",
          "ticks": 45504,
          "time": 182.30750999999998,
          "velocity": 0.9448818897637795
        },
        {
          "duration": 0.11217937499998243,
          "durationTicks": 28,
          "midi": 59,
          "name": "B3",
          "ticks": 45552,
          "time": 182.4998175,
          "velocity": 0.9448818897637795
        },
        {
          "duration": 0.10416656249998368,
          "durationTicks": 26,
          "midi": 55,
          "name": "G3",
          "ticks": 45792,
          "time": 183.461355,
          "velocity": 0.9448818897637795
        },
        {
          "duration": 0.10416656249998368,
          "durationTicks": 26,
          "midi": 59,
          "name": "B3",
          "ticks": 45792,
          "time": 183.461355,
          "velocity": 0.9448818897637795
        },
        {
          "duration": 0.09615374999998494,
          "durationTicks": 24,
          "midi": 67,
          "name": "G4",
          "ticks": 45792,
          "time": 183.461355,
          "velocity": 0.9448818897637795
        },
        {
          "duration": 0.14423062500000583,
          "durationTicks": 36,
          "midi": 55,
          "name": "G3",
          "ticks": 45840,
          "time": 183.6536625,
          "velocity": 0.9448818897637795
        },
        {
          "duration": 0.18429468749999955,
          "durationTicks": 46,
          "midi": 59,
          "name": "B3",
          "ticks": 45840,
          "time": 183.6536625,
          "velocity": 0.937007874015748
        },
        {
          "duration": 0.11217937500001085,
          "durationTicks": 28,
          "midi": 67,
          "name": "G4",
          "ticks": 45840,
          "time": 183.6536625,
          "velocity": 0.9448818897637795
        },
        {
          "duration": 0.1923074999999983,
          "durationTicks": 48,
          "midi": 57,
          "name": "A3",
          "ticks": 45888,
          "time": 183.84597,
          "velocity": 0.9448818897637795
        },
        {
          "duration": 0.18429468749999955,
          "durationTicks": 46,
          "midi": 60,
          "name": "C4",
          "ticks": 45888,
          "time": 183.84597,
          "velocity": 0.937007874015748
        },
        {
          "duration": 0.7371787499999982,
          "durationTicks": 184,
          "midi": 67,
          "name": "G4",
          "ticks": 45888,
          "time": 183.84597,
          "velocity": 0.9448818897637795
        },
        {
          "duration": 0.16826906250000206,
          "durationTicks": 42,
          "midi": 55,
          "name": "G3",
          "ticks": 45936,
          "time": 184.0382775,
          "velocity": 0.937007874015748
        },
        {
          "duration": 0.21634593749999453,
          "durationTicks": 54,
          "midi": 59,
          "name": "B3",
          "ticks": 45936,
          "time": 184.0382775,
          "velocity": 0.8740157480314961
        },
        {
          "duration": 0.11217937500001085,
          "durationTicks": 28,
          "midi": 54,
          "name": "F#3",
          "ticks": 45984,
          "time": 184.230585,
          "velocity": 0.937007874015748
        },
        {
          "duration": 0.21634593749999453,
          "durationTicks": 54,
          "midi": 57,
          "name": "A3",
          "ticks": 45984,
          "time": 184.230585,
          "velocity": 0.937007874015748
        },
        {
          "duration": 0.1923074999999983,
          "durationTicks": 48,
          "midi": 52,
          "name": "E3",
          "ticks": 46032,
          "time": 184.4228925,
          "velocity": 0.9448818897637795
        },
        {
          "duration": 0.16025625000000332,
          "durationTicks": 40,
          "midi": 55,
          "name": "G3",
          "ticks": 46032,
          "time": 184.4228925,
          "velocity": 0.9448818897637795
        },
        {
          "duration": 0.16826906250000206,
          "durationTicks": 42,
          "midi": 50,
          "name": "D3",
          "ticks": 46080,
          "time": 184.6152,
          "velocity": 0.9448818897637795
        },
        {
          "duration": 0.1923074999999983,
          "durationTicks": 48,
          "midi": 54,
          "name": "F#3",
          "ticks": 46080,
          "time": 184.6152,
          "velocity": 0.9448818897637795
        },
        {
          "duration": 0.23237156250002045,
          "durationTicks": 58,
          "midi": 62,
          "name": "D4",
          "ticks": 46080,
          "time": 184.6152,
          "velocity": 0.9448818897637795
        },
        {
          "duration": 0.2083331250000242,
          "durationTicks": 52,
          "midi": 66,
          "name": "F#4",
          "ticks": 46080,
          "time": 184.6152,
          "velocity": 0.9448818897637795
        },
        {
          "duration": 0.1201921875000096,
          "durationTicks": 30,
          "midi": 72,
          "name": "C5",
          "ticks": 46176,
          "time": 184.99981499999998,
          "velocity": 0.9291338582677166
        },
        {
          "duration": 0.09615375000001336,
          "durationTicks": 24,
          "midi": 72,
          "name": "C5",
          "ticks": 46224,
          "time": 185.19212249999998,
          "velocity": 0.9291338582677166
        },
        {
          "duration": 1.2099346875000094,
          "durationTicks": 302,
          "midi": 72,
          "name": "C5",
          "ticks": 46272,
          "time": 185.38442999999998,
          "velocity": 0.9291338582677166
        },
        {
          "duration": 1.5384600000000148,
          "durationTicks": 384,
          "midi": 69,
          "name": "A4",
          "ticks": 46320,
          "time": 185.57673749999998,
          "velocity": 0.9291338582677166
        },
        {
          "duration": 1.1939090624999835,
          "durationTicks": 298,
          "midi": 65,
          "name": "F4",
          "ticks": 46416,
          "time": 185.9613525,
          "velocity": 0.9291338582677166
        },
        {
          "duration": 0.8253196874999844,
          "durationTicks": 206,
          "midi": 62,
          "name": "D4",
          "ticks": 46512,
          "time": 186.3459675,
          "velocity": 0.937007874015748
        },
        {
          "duration": 0.5048071875000062,
          "durationTicks": 126,
          "midi": 60,
          "name": "C4",
          "ticks": 46608,
          "time": 186.7305825,
          "velocity": 0.937007874015748
        },
        {
          "duration": 1.5705112500000382,
          "durationTicks": 392,
          "midi": 72,
          "name": "C5",
          "ticks": 52752,
          "time": 211.34594249999998,
          "velocity": 0.937007874015748
        },
        {
          "duration": 1.2099346875000094,
          "durationTicks": 302,
          "midi": 68,
          "name": "G#4",
          "ticks": 52848,
          "time": 211.7305575,
          "velocity": 0.937007874015748
        },
        {
          "duration": 0.8653837499999781,
          "durationTicks": 216,
          "midi": 65,
          "name": "F4",
          "ticks": 52944,
          "time": 212.1151725,
          "velocity": 0.937007874015748
        },
        {
          "duration": 0.5208328124999753,
          "durationTicks": 130,
          "midi": 63,
          "name": "D#4",
          "ticks": 53040,
          "time": 212.4997875,
          "velocity": 0.937007874015748
        },
        {
          "duration": 0.2644228125000154,
          "durationTicks": 66,
          "midi": 48,
          "name": "C3",
          "ticks": 53232,
          "time": 213.2690175,
          "velocity": 0.9448818897637795
        },
        {
          "duration": 0.2403843750000192,
          "durationTicks": 60,
          "midi": 47,
          "name": "B2",
          "ticks": 53328,
          "time": 213.6536325,
          "velocity": 0.9448818897637795
        },
        {
          "duration": 0.28846125000001166,
          "durationTicks": 72,
          "midi": 44,
          "name": "G#2",
          "ticks": 53424,
          "time": 214.03824749999998,
          "velocity": 0.9448818897637795
        },
        {
          "duration": 0.1923074999999983,
          "durationTicks": 48,
          "midi": 53,
          "name": "F3",
          "ticks": 53424,
          "time": 214.03824749999998,
          "velocity": 0.9448818897637795
        },
        {
          "duration": 0.24839718750001794,
          "durationTicks": 62,
          "midi": 43,
          "name": "G2",
          "ticks": 53520,
          "time": 214.42286249999998,
          "velocity": 0.952755905511811
        },
        {
          "duration": 0.384615000000025,
          "durationTicks": 96,
          "midi": 50,
          "name": "D3",
          "ticks": 53520,
          "time": 214.42286249999998,
          "velocity": 0.952755905511811
        },
        {
          "duration": 0.24038437499999077,
          "durationTicks": 60,
          "midi": 41,
          "name": "F2",
          "ticks": 53616,
          "time": 214.8074775,
          "velocity": 0.952755905511811
        },
        {
          "duration": 0.1923074999999983,
          "durationTicks": 48,
          "midi": 56,
          "name": "G#3",
          "ticks": 53616,
          "time": 214.8074775,
          "velocity": 0.952755905511811
        },
        {
          "duration": 0.24839718750001794,
          "durationTicks": 62,
          "midi": 38,
          "name": "D2",
          "ticks": 53712,
          "time": 215.1920925,
          "velocity": 0.952755905511811
        },
        {
          "duration": 0.1923074999999983,
          "durationTicks": 48,
          "midi": 55,
          "name": "G3",
          "ticks": 53712,
          "time": 215.1920925,
          "velocity": 0.952755905511811
        },
        {
          "duration": 0.39262781249999534,
          "durationTicks": 98,
          "midi": 36,
          "name": "C2",
          "ticks": 53808,
          "time": 215.5767075,
          "velocity": 0.9448818897637795
        },
        {
          "duration": 0.3846149999999966,
          "durationTicks": 96,
          "midi": 60,
          "name": "C4",
          "ticks": 53808,
          "time": 215.5767075,
          "velocity": 0.952755905511811
        },
        {
          "duration": 0.11217937499998243,
          "durationTicks": 28,
          "midi": 79,
          "name": "G5",
          "ticks": 53904,
          "time": 215.9613225,
          "velocity": 0.937007874015748
        },
        {
          "duration": 0.15224343750000457,
          "durationTicks": 38,
          "midi": 79,
          "name": "G5",
          "ticks": 53952,
          "time": 216.15363,
          "velocity": 0.9448818897637795
        },
        {
          "duration": 0.16826906250000206,
          "durationTicks": 42,
          "midi": 81,
          "name": "A5",
          "ticks": 54000,
          "time": 216.3459375,
          "velocity": 0.9448818897637795
        },
        {
          "duration": 0.8894221875000028,
          "durationTicks": 222,
          "midi": 79,
          "name": "G5",
          "ticks": 54048,
          "time": 216.538245,
          "velocity": 0.9448818897637795
        },
        {
          "duration": 0.1201921875000096,
          "durationTicks": 30,
          "midi": 76,
          "name": "E5",
          "ticks": 54288,
          "time": 217.49978249999998,
          "velocity": 0.9448818897637795
        },
        {
          "duration": 0.09615375000001336,
          "durationTicks": 24,
          "midi": 79,
          "name": "G5",
          "ticks": 54288,
          "time": 217.49978249999998,
          "velocity": 0.9448818897637795
        },
        {
          "duration": 0.152243437500033,
          "durationTicks": 38,
          "midi": 76,
          "name": "E5",
          "ticks": 54336,
          "time": 217.69208999999998,
          "velocity": 0.9291338582677166
        },
        {
          "duration": 0.33653812500000413,
          "durationTicks": 84,
          "midi": 79,
          "name": "G5",
          "ticks": 54336,
          "time": 217.69208999999998,
          "velocity": 0.937007874015748
        },
        {
          "duration": 0.152243437500033,
          "durationTicks": 38,
          "midi": 77,
          "name": "F5",
          "ticks": 54384,
          "time": 217.88439749999998,
          "velocity": 0.937007874015748
        },
        {
          "duration": 0.12820500000000834,
          "durationTicks": 32,
          "midi": 76,
          "name": "E5",
          "ticks": 54432,
          "time": 218.076705,
          "velocity": 0.937007874015748
        },
        {
          "duration": 0.12820500000000834,
          "durationTicks": 32,
          "midi": 79,
          "name": "G5",
          "ticks": 54432,
          "time": 218.076705,
          "velocity": 0.937007874015748
        },
        {
          "duration": 0.12019218749998117,
          "durationTicks": 30,
          "midi": 74,
          "name": "D5",
          "ticks": 54480,
          "time": 218.2690125,
          "velocity": 0.9448818897637795
        },
        {
          "duration": 0.12820500000000834,
          "durationTicks": 32,
          "midi": 79,
          "name": "G5",
          "ticks": 54480,
          "time": 218.2690125,
          "velocity": 0.937007874015748
        },
        {
          "duration": 0.1041665625000121,
          "durationTicks": 26,
          "midi": 72,
          "name": "C5",
          "ticks": 54528,
          "time": 218.46132,
          "velocity": 0.9448818897637795
        },
        {
          "duration": 0.12019218749998117,
          "durationTicks": 30,
          "midi": 79,
          "name": "G5",
          "ticks": 54528,
          "time": 218.46132,
          "velocity": 0.937007874015748
        },
        {
          "duration": 0.20032031249999704,
          "durationTicks": 50,
          "midi": 71,
          "name": "B4",
          "ticks": 54576,
          "time": 218.6536275,
          "velocity": 0.9448818897637795
        },
        {
          "duration": 0.21634593749999453,
          "durationTicks": 54,
          "midi": 79,
          "name": "G5",
          "ticks": 54576,
          "time": 218.6536275,
          "velocity": 0.9448818897637795
        },
        {
          "duration": 0.28846125000001166,
          "durationTicks": 72,
          "midi": 79,
          "name": "G5",
          "ticks": 54674,
          "time": 219.0462553125,
          "velocity": 0.937007874015748
        },
        {
          "duration": 0.448717500000015,
          "durationTicks": 112,
          "midi": 84,
          "name": "C6",
          "ticks": 54772,
          "time": 219.438883125,
          "velocity": 0.937007874015748
        },
        {
          "duration": 0.01602562499999749,
          "durationTicks": 4,
          "midi": 83,
          "name": "B5",
          "ticks": 54774,
          "time": 219.4468959375,
          "velocity": 0.9448818897637795
        },
        {
          "duration": 0.1201921875000096,
          "durationTicks": 30,
          "midi": 84,
          "name": "C6",
          "ticks": 54906,
          "time": 219.9757415625,
          "velocity": 0.9448818897637795
        },
        {
          "duration": 0.14423062500000583,
          "durationTicks": 36,
          "midi": 84,
          "name": "C6",
          "ticks": 54960,
          "time": 220.19208749999999,
          "velocity": 0.9448818897637795
        },
        {
          "duration": 0.11217937500001085,
          "durationTicks": 28,
          "midi": 84,
          "name": "C6",
          "ticks": 55054,
          "time": 220.56868968749998,
          "velocity": 0.937007874015748
        },
        {
          "duration": 0.152243437500033,
          "durationTicks": 38,
          "midi": 84,
          "name": "C6",
          "ticks": 55098,
          "time": 220.74497156249998,
          "velocity": 0.9291338582677166
        },
        {
          "duration": 0.12820499999997992,
          "durationTicks": 32,
          "midi": 83,
          "name": "B5",
          "ticks": 55148,
          "time": 220.945291875,
          "velocity": 0.937007874015748
        },
        {
          "duration": 0.1201921875000096,
          "durationTicks": 30,
          "midi": 83,
          "name": "B5",
          "ticks": 55198,
          "time": 221.14561218749998,
          "velocity": 0.9291338582677166
        },
        {
          "duration": 0.12019218749998117,
          "durationTicks": 30,
          "midi": 83,
          "name": "B5",
          "ticks": 55248,
          "time": 221.3459325,
          "velocity": 0.937007874015748
        },
        {
          "duration": 0.15224343750000457,
          "durationTicks": 38,
          "midi": 83,
          "name": "B5",
          "ticks": 55296,
          "time": 221.53824,
          "velocity": 0.9291338582677166
        },
        {
          "duration": 0.21634593749999453,
          "durationTicks": 54,
          "midi": 76,
          "name": "E5",
          "ticks": 55346,
          "time": 221.7385603125,
          "velocity": 0.9448818897637795
        },
        {
          "duration": 0.28846125000001166,
          "durationTicks": 72,
          "midi": 76,
          "name": "E5",
          "ticks": 55442,
          "time": 222.1231753125,
          "velocity": 0.9448818897637795
        },
        {
          "duration": 1.3301268749999906,
          "durationTicks": 332,
          "midi": 74,
          "name": "D5",
          "ticks": 55538,
          "time": 222.5077903125,
          "velocity": 0.9448818897637795
        },
        {
          "duration": 0.09615375000001336,
          "durationTicks": 24,
          "midi": 72,
          "name": "C5",
          "ticks": 55872,
          "time": 223.84592999999998,
          "velocity": 0.937007874015748
        },
        {
          "duration": 0.0881409374999862,
          "durationTicks": 22,
          "midi": 74,
          "name": "D5",
          "ticks": 55898,
          "time": 223.9500965625,
          "velocity": 0.9291338582677166
        },
        {
          "duration": 0.08012812500001587,
          "durationTicks": 20,
          "midi": 72,
          "name": "C5",
          "ticks": 55920,
          "time": 224.03823749999998,
          "velocity": 0.9291338582677166
        },
        {
          "duration": 0.0721153124999887,
          "durationTicks": 18,
          "midi": 74,
          "name": "D5",
          "ticks": 55944,
          "time": 224.13439125,
          "velocity": 0.937007874015748
        },
        {
          "duration": 0.09615374999998494,
          "durationTicks": 24,
          "midi": 72,
          "name": "C5",
          "ticks": 55964,
          "time": 224.214519375,
          "velocity": 0.9291338582677166
        },
        {
          "duration": 0.008012812499998745,
          "durationTicks": 2,
          "midi": 74,
          "name": "D5",
          "ticks": 55986,
          "time": 224.3026603125,
          "velocity": 0.937007874015748
        },
        {
          "duration": 0.09615374999998494,
          "durationTicks": 24,
          "midi": 72,
          "name": "C5",
          "ticks": 56008,
          "time": 224.39080124999998,
          "velocity": 0.9212598425196851
        },
        {
          "duration": 0.06410249999998996,
          "durationTicks": 16,
          "midi": 74,
          "name": "D5",
          "ticks": 56030,
          "time": 224.4789421875,
          "velocity": 0.937007874015748
        },
        {
          "duration": 0.0881409374999862,
          "durationTicks": 22,
          "midi": 72,
          "name": "C5",
          "ticks": 56052,
          "time": 224.56708312499998,
          "velocity": 0.9212598425196851
        },
        {
          "duration": 0.08012812499998745,
          "durationTicks": 20,
          "midi": 74,
          "name": "D5",
          "ticks": 56072,
          "time": 224.64721125,
          "velocity": 0.937007874015748
        },
        {
          "duration": 0.0881409374999862,
          "durationTicks": 22,
          "midi": 72,
          "name": "C5",
          "ticks": 56096,
          "time": 224.743365,
          "velocity": 0.9291338582677166
        },
        {
          "duration": 0.08012812500001587,
          "durationTicks": 20,
          "midi": 74,
          "name": "D5",
          "ticks": 56118,
          "time": 224.8315059375,
          "velocity": 0.937007874015748
        },
        {
          "duration": 0.0881409374999862,
          "durationTicks": 22,
          "midi": 72,
          "name": "C5",
          "ticks": 56142,
          "time": 224.92765968749998,
          "velocity": 0.9291338582677166
        },
        {
          "duration": 0.08012812499998745,
          "durationTicks": 20,
          "midi": 74,
          "name": "D5",
          "ticks": 56162,
          "time": 225.0077878125,
          "velocity": 0.937007874015748
        },
        {
          "duration": 0.08814093750001462,
          "durationTicks": 22,
          "midi": 72,
          "name": "C5",
          "ticks": 56188,
          "time": 225.11195437499998,
          "velocity": 0.937007874015748
        },
        {
          "duration": 0.06410249999998996,
          "durationTicks": 16,
          "midi": 74,
          "name": "D5",
          "ticks": 56208,
          "time": 225.1920825,
          "velocity": 0.9291338582677166
        },
        {
          "duration": 0.08814093750001462,
          "durationTicks": 22,
          "midi": 72,
          "name": "C5",
          "ticks": 56230,
          "time": 225.28022343749998,
          "velocity": 0.9291338582677166
        },
        {
          "duration": 0.08012812499998745,
          "durationTicks": 20,
          "midi": 74,
          "name": "D5",
          "ticks": 56252,
          "time": 225.368364375,
          "velocity": 0.937007874015748
        },
        {
          "duration": 0.09615374999998494,
          "durationTicks": 24,
          "midi": 72,
          "name": "C5",
          "ticks": 56278,
          "time": 225.47253093749998,
          "velocity": 0.937007874015748
        },
        {
          "duration": 0.07211531250001713,
          "durationTicks": 18,
          "midi": 74,
          "name": "D5",
          "ticks": 56300,
          "time": 225.560671875,
          "velocity": 0.937007874015748
        },
        {
          "duration": 0.08012812499995903,
          "durationTicks": 20,
          "midi": 72,
          "name": "C5",
          "ticks": 56324,
          "time": 225.656825625,
          "velocity": 0.9291338582677166
        },
        {
          "duration": 0.0641025000000468,
          "durationTicks": 16,
          "midi": 74,
          "name": "D5",
          "ticks": 56344,
          "time": 225.73695374999997,
          "velocity": 0.937007874015748
        },
        {
          "duration": 0.08012812500001587,
          "durationTicks": 20,
          "midi": 72,
          "name": "C5",
          "ticks": 56368,
          "time": 225.83310749999998,
          "velocity": 0.9291338582677166
        },
        {
          "duration": 0.08012812500001587,
          "durationTicks": 20,
          "midi": 74,
          "name": "D5",
          "ticks": 56388,
          "time": 225.913235625,
          "velocity": 0.937007874015748
        },
        {
          "duration": 0.08012812499995903,
          "durationTicks": 20,
          "midi": 72,
          "name": "C5",
          "ticks": 56414,
          "time": 226.0174021875,
          "velocity": 0.9291338582677166
        },
        {
          "duration": 0.08012812500001587,
          "durationTicks": 20,
          "midi": 74,
          "name": "D5",
          "ticks": 56434,
          "time": 226.09753031249997,
          "velocity": 0.937007874015748
        },
        {
          "duration": 0.008012812500027167,
          "durationTicks": 2,
          "midi": 72,
          "name": "C5",
          "ticks": 56460,
          "time": 226.20169687499998,
          "velocity": 0.9291338582677166
        },
        {
          "duration": 0.08012812499998745,
          "durationTicks": 20,
          "midi": 74,
          "name": "D5",
          "ticks": 56480,
          "time": 226.281825,
          "velocity": 0.937007874015748
        },
        {
          "duration": 0.08012812500001587,
          "durationTicks": 20,
          "midi": 72,
          "name": "C5",
          "ticks": 56506,
          "time": 226.38599156249998,
          "velocity": 0.937007874015748
        },
        {
          "duration": 0.07211531250001713,
          "durationTicks": 18,
          "midi": 74,
          "name": "D5",
          "ticks": 56528,
          "time": 226.4741325,
          "velocity": 0.9291338582677166
        },
        {
          "duration": 0.09615375000001336,
          "durationTicks": 24,
          "midi": 72,
          "name": "C5",
          "ticks": 56550,
          "time": 226.56227343749998,
          "velocity": 0.937007874015748
        },
        {
          "duration": 0.06410249999998996,
          "durationTicks": 16,
          "midi": 74,
          "name": "D5",
          "ticks": 56574,
          "time": 226.6584271875,
          "velocity": 0.9291338582677166
        },
        {
          "duration": 0.08814093750001462,
          "durationTicks": 22,
          "midi": 72,
          "name": "C5",
          "ticks": 56590,
          "time": 226.72252968749999,
          "velocity": 0.9212598425196851
        },
        {
          "duration": 0.07211531250001713,
          "durationTicks": 18,
          "midi": 74,
          "name": "D5",
          "ticks": 56612,
          "time": 226.810670625,
          "velocity": 0.9212598425196851
        },
        {
          "duration": 0.09615375000001336,
          "durationTicks": 24,
          "midi": 72,
          "name": "C5",
          "ticks": 56626,
          "time": 226.86676031249996,
          "velocity": 0.9212598425196851
        },
        {
          "duration": 0.0881409374999862,
          "durationTicks": 22,
          "midi": 71,
          "name": "B4",
          "ticks": 56654,
          "time": 226.9789396875,
          "velocity": 0.8740157480314961
        },
        {
          "duration": 1.168725937500028,
          "durationTicks": 422,
          "midi": 72,
          "name": "C5",
          "ticks": 56674,
          "time": 227.0590678125,
          "velocity": 0.937007874015748
        }
      ]
    },
    {
      "channel": 0,
      "controlChanges": {
        "0": [
          {
            "number": 0,
            "ticks": 272,
            "time": 1.0897425,
            "value": 0
          }
        ],
        "32": [
          {
            "number": 32,
            "ticks": 274,
            "time": 1.0977553125,
            "value": 0
          }
        ],
        "121": [
          {
            "number": 121,
            "ticks": 176,
            "time": 0.7051274999999999,
            "value": 0
          }
        ]
      },
      "pitchBends": [],
      "instrument": {
        "family": "piano",
        "number": 0,
        "name": "acoustic grand piano"
      },
      "name": "",
      "notes": [],
      "endOfTrackTicks": 92928
    },
    {
      "channel": 8,
      "controlChanges": {
        "1": [
          {
            "number": 1,
            "ticks": 36206,
            "time": 145.0559446875,
            "value": 0.11023622047244094
          },
          {
            "number": 1,
            "ticks": 36222,
            "time": 145.1200471875,
            "value": 0.4094488188976378
          },
          {
            "number": 1,
            "ticks": 36238,
            "time": 145.1841496875,
            "value": 0.6614173228346457
          },
          {
            "number": 1,
            "ticks": 36254,
            "time": 145.2482521875,
            "value": 0.7480314960629921
          },
          {
            "number": 1,
            "ticks": 36270,
            "time": 145.3123546875,
            "value": 0.7952755905511811
          },
          {
            "number": 1,
            "ticks": 36288,
            "time": 145.38447,
            "value": 0.8976377952755905
          },
          {
            "number": 1,
            "ticks": 36304,
            "time": 145.4485725,
            "value": 1
          },
          {
            "number": 1,
            "ticks": 36334,
            "time": 145.5687646875,
            "value": 0.8740157480314961
          },
          {
            "number": 1,
            "ticks": 36350,
            "time": 145.63286718749998,
            "value": 0.5905511811023622
          },
          {
            "number": 1,
            "ticks": 36366,
            "time": 145.6969696875,
            "value": 0
          },
          {
            "number": 1,
            "ticks": 36594,
            "time": 146.6104303125,
            "value": 0.03937007874015748
          },
          {
            "number": 1,
            "ticks": 36610,
            "time": 146.6745328125,
            "value": 0.11023622047244094
          },
          {
            "number": 1,
            "ticks": 36626,
            "time": 146.73863531249998,
            "value": 0.18110236220472442
          },
          {
            "number": 1,
            "ticks": 36642,
            "time": 146.8027378125,
            "value": 0.2440944881889764
          },
          {
            "number": 1,
            "ticks": 36658,
            "time": 146.8668403125,
            "value": 0.3228346456692913
          },
          {
            "number": 1,
            "ticks": 36674,
            "time": 146.93094281249998,
            "value": 0.4015748031496063
          },
          {
            "number": 1,
            "ticks": 36690,
            "time": 146.9950453125,
            "value": 0.47244094488188976
          },
          {
            "number": 1,
            "ticks": 36706,
            "time": 147.05914781250002,
            "value": 0.5669291338582677
          },
          {
            "number": 1,
            "ticks": 36722,
            "time": 147.12325031249998,
            "value": 0.6771653543307087
          },
          {
            "number": 1,
            "ticks": 36738,
            "time": 147.1873528125,
            "value": 0.7874015748031497
          },
          {
            "number": 1,
            "ticks": 36756,
            "time": 147.25946812499998,
            "value": 0.7716535433070866
          },
          {
            "number": 1,
            "ticks": 36772,
            "time": 147.323570625,
            "value": 0.5196850393700787
          },
          {
            "number": 1,
            "ticks": 36788,
            "time": 147.387673125,
            "value": 0
          },
          {
            "number": 1,
            "ticks": 37336,
            "time": 149.58318375,
            "value": 0.007874015748031496
          },
          {
            "number": 1,
            "ticks": 37352,
            "time": 149.64728624999998,
            "value": 0.10236220472440945
          },
          {
            "number": 1,
            "ticks": 37368,
            "time": 149.71138875,
            "value": 0.2440944881889764
          },
          {
            "number": 1,
            "ticks": 37384,
            "time": 149.77549125,
            "value": 0.33858267716535434
          },
          {
            "number": 1,
            "ticks": 37402,
            "time": 149.8476065625,
            "value": 0.3700787401574803
          },
          {
            "number": 1,
            "ticks": 37418,
            "time": 149.9117090625,
            "value": 0.4094488188976378
          },
          {
            "number": 1,
            "ticks": 37436,
            "time": 149.98382437499998,
            "value": 0.4645669291338583
          },
          {
            "number": 1,
            "ticks": 37452,
            "time": 150.047926875,
            "value": 0.5433070866141733
          },
          {
            "number": 1,
            "ticks": 37468,
            "time": 150.112029375,
            "value": 0.6299212598425197
          },
          {
            "number": 1,
            "ticks": 37484,
            "time": 150.17613187499998,
            "value": 0.6771653543307087
          },
          {
            "number": 1,
            "ticks": 37506,
            "time": 150.2642728125,
            "value": 0.6535433070866141
          },
          {
            "number": 1,
            "ticks": 37522,
            "time": 150.32837531250001,
            "value": 0.3937007874015748
          },
          {
            "number": 1,
            "ticks": 37538,
            "time": 150.39247781249998,
            "value": 0
          },
          {
            "number": 1,
            "ticks": 38656,
            "time": 154.87164,
            "value": 0.031496062992125984
          },
          {
            "number": 1,
            "ticks": 38672,
            "time": 154.93574249999998,
            "value": 0.2992125984251969
          },
          {
            "number": 1,
            "ticks": 38688,
            "time": 154.999845,
            "value": 0.4645669291338583
          },
          {
            "number": 1,
            "ticks": 38704,
            "time": 155.0639475,
            "value": 0.6614173228346457
          },
          {
            "number": 1,
            "ticks": 38720,
            "time": 155.12804999999997,
            "value": 0.84251968503937
          },
          {
            "number": 1,
            "ticks": 38736,
            "time": 155.1921525,
            "value": 0.9448818897637795
          },
          {
            "number": 1,
            "ticks": 38752,
            "time": 155.256255,
            "value": 0.9212598425196851
          },
          {
            "number": 1,
            "ticks": 38768,
            "time": 155.3203575,
            "value": 0.6692913385826772
          },
          {
            "number": 1,
            "ticks": 38786,
            "time": 155.3924728125,
            "value": 0
          },
          {
            "number": 1,
            "ticks": 39142,
            "time": 156.8187534375,
            "value": 0.047244094488188976
          },
          {
            "number": 1,
            "ticks": 39158,
            "time": 156.88285593749998,
            "value": 0.14173228346456693
          },
          {
            "number": 1,
            "ticks": 39174,
            "time": 156.9469584375,
            "value": 0.2992125984251969
          },
          {
            "number": 1,
            "ticks": 39190,
            "time": 157.0110609375,
            "value": 0.5118110236220472
          },
          {
            "number": 1,
            "ticks": 39206,
            "time": 157.07516343749998,
            "value": 0.6614173228346457
          },
          {
            "number": 1,
            "ticks": 39222,
            "time": 157.1392659375,
            "value": 0.5354330708661418
          },
          {
            "number": 1,
            "ticks": 39238,
            "time": 157.2033684375,
            "value": 0
          },
          {
            "number": 1,
            "ticks": 39758,
            "time": 159.28669968749998,
            "value": 0.047244094488188976
          },
          {
            "number": 1,
            "ticks": 39774,
            "time": 159.3508021875,
            "value": 0.2204724409448819
          },
          {
            "number": 1,
            "ticks": 39790,
            "time": 159.4149046875,
            "value": 0.6220472440944882
          },
          {
            "number": 1,
            "ticks": 39806,
            "time": 159.47900718749997,
            "value": 0.7874015748031497
          },
          {
            "number": 1,
            "ticks": 39822,
            "time": 159.5431096875,
            "value": 0.8818897637795275
          },
          {
            "number": 1,
            "ticks": 39844,
            "time": 159.631250625,
            "value": 0.6456692913385826
          },
          {
            "number": 1,
            "ticks": 39860,
            "time": 159.695353125,
            "value": 0
          }
        ],
        "7": [
          {
            "number": 7,
            "ticks": 278,
            "time": 1.1137809375,
            "value": 0.968503937007874
          }
        ],
        "10": [
          {
            "number": 10,
            "ticks": 278,
            "time": 1.1137809375,
            "value": 1
          }
        ],
        "11": [
          {
            "number": 11,
            "ticks": 278,
            "time": 1.1137809375,
            "value": 0.7086614173228346
          }
        ],
        "91": [
          {
            "number": 91,
            "ticks": 280,
            "time": 1.12179375,
            "value": 1
          }
        ],
        "93": [
          {
            "number": 93,
            "ticks": 280,
            "time": 1.12179375,
            "value": 0.3937007874015748
          }
        ],
        "120": [
          {
            "number": 120,
            "ticks": 92928,
            "time": 329.03064,
            "value": 0
          }
        ]
      },
      "pitchBends": [
        {
          "ticks": 37838,
          "time": 151.5943996875,
          "value": 0.15869140625
        },
        {
          "ticks": 37846,
          "time": 151.6264509375,
          "value": 0.523681640625
        },
        {
          "ticks": 37854,
          "time": 151.6585021875,
          "value": 0.999755859375
        },
        {
          "ticks": 38070,
          "time": 152.52388593749998,
          "value": 0.968017578125
        },
        {
          "ticks": 38078,
          "time": 152.55593718749998,
          "value": 0.4443359375
        },
        {
          "ticks": 38086,
          "time": 152.5879884375,
          "value": 0
        },
        {
          "ticks": 39536,
          "time": 158.39727749999997,
          "value": 0.079345703125
        },
        {
          "ticks": 39544,
          "time": 158.42932875,
          "value": 0.3173828125
        },
        {
          "ticks": 39552,
          "time": 158.46138,
          "value": 0.66650390625
        },
        {
          "ticks": 39560,
          "time": 158.49343125,
          "value": 0.999755859375
        },
        {
          "ticks": 39840,
          "time": 159.61522499999998,
          "value": 0
        },
        {
          "ticks": 39888,
          "time": 159.8075325,
          "value": 0.04541015625
        },
        {
          "ticks": 40416,
          "time": 161.922915,
          "value": 0.04541015625
        },
        {
          "ticks": 40494,
          "time": 162.2354146875,
          "value": 0.0322265625
        },
        {
          "ticks": 40504,
          "time": 162.27547875,
          "value": 0.0133056640625
        },
        {
          "ticks": 40512,
          "time": 162.30752999999999,
          "value": 0
        },
        {
          "ticks": 40546,
          "time": 162.4437478125,
          "value": 0.0416259765625
        },
        {
          "ticks": 40570,
          "time": 162.5399015625,
          "value": 0.032470703125
        },
        {
          "ticks": 40594,
          "time": 162.6360553125,
          "value": 0.0234375
        },
        {
          "ticks": 40618,
          "time": 162.7322090625,
          "value": 0.0142822265625
        },
        {
          "ticks": 40642,
          "time": 162.8283628125,
          "value": 0.0052490234375
        },
        {
          "ticks": 76832,
          "time": 268.276455,
          "value": 0.1817626953125
        },
        {
          "ticks": 76864,
          "time": 268.34139,
          "value": 0.336181640625
        },
        {
          "ticks": 76896,
          "time": 268.406325,
          "value": 0.49072265625
        },
        {
          "ticks": 76928,
          "time": 268.47126000000003,
          "value": 0.645263671875
        },
        {
          "ticks": 76960,
          "time": 268.536195,
          "value": 0.9998779296875
        },
        {
          "ticks": 78368,
          "time": 271.393335,
          "value": 0
        },
        {
          "ticks": 78922,
          "time": 272.9169140625,
          "value": -0.421875
        },
        {
          "ticks": 78930,
          "time": 272.9489653125,
          "value": 0
        },
        {
          "ticks": 78938,
          "time": 272.9810165625,
          "value": 0
        },
        {
          "ticks": 79294,
          "time": 274.4072971875,
          "value": -0.21875
        },
        {
          "ticks": 79302,
          "time": 274.4393484375,
          "value": -0.453125
        },
        {
          "ticks": 79310,
          "time": 274.4713996875,
          "value": -0.171875
        },
        {
          "ticks": 79318,
          "time": 274.5034509375,
          "value": 0
        },
        {
          "ticks": 79688,
          "time": 275.98582125,
          "value": 0.079345703125
        },
        {
          "ticks": 79696,
          "time": 276.0178725,
          "value": 0.460205078125
        },
        {
          "ticks": 79704,
          "time": 276.04992375,
          "value": 0.15869140625
        },
        {
          "ticks": 79712,
          "time": 276.081975,
          "value": 0.47607421875
        },
        {
          "ticks": 79720,
          "time": 276.11402625,
          "value": 0.809326171875
        },
        {
          "ticks": 79728,
          "time": 276.1460775,
          "value": 0.999755859375
        },
        {
          "ticks": 80068,
          "time": 277.508255625,
          "value": 0.904541015625
        },
        {
          "ticks": 80076,
          "time": 277.540306875,
          "value": 0.555419921875
        },
        {
          "ticks": 80084,
          "time": 277.572358125,
          "value": 0.25390625
        },
        {
          "ticks": 80092,
          "time": 277.604409375,
          "value": 0
        },
        {
          "ticks": 80178,
          "time": 277.9489603125,
          "value": 0.9521484375
        },
        {
          "ticks": 80186,
          "time": 277.9810115625,
          "value": 0.777587890625
        },
        {
          "ticks": 80194,
          "time": 278.0130628125,
          "value": 0.47607421875
        },
        {
          "ticks": 80202,
          "time": 278.0451140625,
          "value": 0.1904296875
        },
        {
          "ticks": 80210,
          "time": 278.0771653125,
          "value": 0
        }
      ],
      "instrument": {
        "family": "guitar",
        "number": 30,
        "name": "distortion guitar"
      },
      "name": "",
      "notes": [
        {
          "duration": 0.4006406250000225,
          "durationTicks": 100,
          "midi": 67,
          "name": "G4",
          "ticks": 35898,
          "time": 143.82197156249998,
          "velocity": 0.9606299212598425
        },
        {
          "duration": 0.20032031249999704,
          "durationTicks": 50,
          "midi": 65,
          "name": "F4",
          "ticks": 35992,
          "time": 144.19857375,
          "velocity": 0.9763779527559056
        },
        {
          "duration": 0.16025625000003174,
          "durationTicks": 40,
          "midi": 63,
          "name": "D#4",
          "ticks": 36044,
          "time": 144.40690687499998,
          "velocity": 0.9763779527559056
        },
        {
          "duration": 1.1698706249999873,
          "durationTicks": 292,
          "midi": 70,
          "name": "A#4",
          "ticks": 36090,
          "time": 144.5912015625,
          "velocity": 0.9763779527559056
        },
        {
          "duration": 0.37660218749999785,
          "durationTicks": 94,
          "midi": 67,
          "name": "G4",
          "ticks": 36382,
          "time": 145.7610721875,
          "velocity": 0.9763779527559056
        },
        {
          "duration": 1.394229375000009,
          "durationTicks": 348,
          "midi": 72,
          "name": "C5",
          "ticks": 36478,
          "time": 146.1456871875,
          "velocity": 0.9763779527559056
        },
        {
          "duration": 0.4567303124999853,
          "durationTicks": 114,
          "midi": 72,
          "name": "C5",
          "ticks": 36858,
          "time": 147.6681215625,
          "velocity": 0.9763779527559056
        },
        {
          "duration": 0.1923074999999983,
          "durationTicks": 48,
          "midi": 74,
          "name": "D5",
          "ticks": 36960,
          "time": 148.076775,
          "velocity": 0.9763779527559056
        },
        {
          "duration": 0.25640999999998826,
          "durationTicks": 64,
          "midi": 75,
          "name": "D#5",
          "ticks": 37006,
          "time": 148.2610696875,
          "velocity": 0.9763779527559056
        },
        {
          "duration": 0.384615000000025,
          "durationTicks": 96,
          "midi": 72,
          "name": "C5",
          "ticks": 37066,
          "time": 148.5014540625,
          "velocity": 0.9763779527559056
        },
        {
          "duration": 0.2083331249999958,
          "durationTicks": 52,
          "midi": 74,
          "name": "D5",
          "ticks": 37154,
          "time": 148.8540178125,
          "velocity": 0.9763779527559056
        },
        {
          "duration": 0.21634593749999453,
          "durationTicks": 54,
          "midi": 75,
          "name": "D#5",
          "ticks": 37200,
          "time": 149.0383125,
          "velocity": 0.9763779527559056
        },
        {
          "duration": 1.1298065624999936,
          "durationTicks": 282,
          "midi": 77,
          "name": "F5",
          "ticks": 37258,
          "time": 149.2706840625,
          "velocity": 0.9763779527559056
        },
        {
          "duration": 0.2804484375000129,
          "durationTicks": 70,
          "midi": 72,
          "name": "C5",
          "ticks": 37542,
          "time": 150.4085034375,
          "velocity": 0.9763779527559056
        },
        {
          "duration": 0.23237156250002045,
          "durationTicks": 58,
          "midi": 77,
          "name": "F5",
          "ticks": 37622,
          "time": 150.72901593749998,
          "velocity": 0.9763779527559056
        },
        {
          "duration": 0.14423062500000583,
          "durationTicks": 36,
          "midi": 79,
          "name": "G5",
          "ticks": 37680,
          "time": 150.9613875,
          "velocity": 0.968503937007874
        },
        {
          "duration": 0.11217937500001085,
          "durationTicks": 28,
          "midi": 80,
          "name": "G#5",
          "ticks": 37736,
          "time": 151.18574625,
          "velocity": 0.9763779527559056
        },
        {
          "duration": 0.08814093750001462,
          "durationTicks": 22,
          "midi": 82,
          "name": "A#5",
          "ticks": 37776,
          "time": 151.3460025,
          "velocity": 0.9763779527559056
        },
        {
          "duration": 1.2499987499999747,
          "durationTicks": 312,
          "midi": 82,
          "name": "A#5",
          "ticks": 37820,
          "time": 151.522284375,
          "velocity": 0.9763779527559056
        },
        {
          "duration": 0.12820499999997992,
          "durationTicks": 32,
          "midi": 80,
          "name": "G#5",
          "ticks": 38128,
          "time": 152.7562575,
          "velocity": 0.9763779527559056
        },
        {
          "duration": 0.16826906250000206,
          "durationTicks": 42,
          "midi": 82,
          "name": "A#5",
          "ticks": 38162,
          "time": 152.89247531249998,
          "velocity": 0.9763779527559056
        },
        {
          "duration": 0.1201921875000096,
          "durationTicks": 30,
          "midi": 80,
          "name": "G#5",
          "ticks": 38196,
          "time": 153.028693125,
          "velocity": 0.9763779527559056
        },
        {
          "duration": 0.13621781250000708,
          "durationTicks": 34,
          "midi": 79,
          "name": "G5",
          "ticks": 38226,
          "time": 153.1488853125,
          "velocity": 0.9763779527559056
        },
        {
          "duration": 0.12019218749998117,
          "durationTicks": 30,
          "midi": 80,
          "name": "G#5",
          "ticks": 38260,
          "time": 153.285103125,
          "velocity": 0.9763779527559056
        },
        {
          "duration": 0.13621781250000708,
          "durationTicks": 34,
          "midi": 79,
          "name": "G5",
          "ticks": 38286,
          "time": 153.3892696875,
          "velocity": 0.9763779527559056
        },
        {
          "duration": 0.11217937499998243,
          "durationTicks": 28,
          "midi": 77,
          "name": "F5",
          "ticks": 38318,
          "time": 153.5174746875,
          "velocity": 0.9763779527559056
        },
        {
          "duration": 0.15224343750000457,
          "durationTicks": 38,
          "midi": 79,
          "name": "G5",
          "ticks": 38340,
          "time": 153.60561562499998,
          "velocity": 0.9763779527559056
        },
        {
          "duration": 0.13621781250000708,
          "durationTicks": 34,
          "midi": 77,
          "name": "F5",
          "ticks": 38366,
          "time": 153.7097821875,
          "velocity": 0.9763779527559056
        },
        {
          "duration": 0.13621781249997866,
          "durationTicks": 34,
          "midi": 75,
          "name": "D#5",
          "ticks": 38398,
          "time": 153.8379871875,
          "velocity": 0.9763779527559056
        },
        {
          "duration": 0.1041665625000121,
          "durationTicks": 26,
          "midi": 77,
          "name": "F5",
          "ticks": 38432,
          "time": 153.97420499999998,
          "velocity": 0.9763779527559056
        },
        {
          "duration": 0.12820499999997992,
          "durationTicks": 32,
          "midi": 75,
          "name": "D#5",
          "ticks": 38454,
          "time": 154.0623459375,
          "velocity": 0.9763779527559056
        },
        {
          "duration": 0.08012812499998745,
          "durationTicks": 20,
          "midi": 74,
          "name": "D5",
          "ticks": 38482,
          "time": 154.1745253125,
          "velocity": 0.9763779527559056
        },
        {
          "duration": 0.11217937500001085,
          "durationTicks": 28,
          "midi": 75,
          "name": "D#5",
          "ticks": 38502,
          "time": 154.2546534375,
          "velocity": 0.9763779527559056
        },
        {
          "duration": 0.09615375000001336,
          "durationTicks": 24,
          "midi": 74,
          "name": "D5",
          "ticks": 38526,
          "time": 154.35080718749998,
          "velocity": 0.9763779527559056
        },
        {
          "duration": 0.16025625000000332,
          "durationTicks": 40,
          "midi": 72,
          "name": "C5",
          "ticks": 38552,
          "time": 154.45497375,
          "velocity": 0.9763779527559056
        },
        {
          "duration": 0.7612171874999945,
          "durationTicks": 190,
          "midi": 70,
          "name": "A#4",
          "ticks": 38584,
          "time": 154.58317875,
          "velocity": 0.9763779527559056
        },
        {
          "duration": 0.16025625000000332,
          "durationTicks": 40,
          "midi": 70,
          "name": "A#4",
          "ticks": 38846,
          "time": 155.63285718749998,
          "velocity": 0.9763779527559056
        },
        {
          "duration": 0.20032031249999704,
          "durationTicks": 50,
          "midi": 72,
          "name": "C5",
          "ticks": 38890,
          "time": 155.8091390625,
          "velocity": 0.9763779527559056
        },
        {
          "duration": 0.12820500000000834,
          "durationTicks": 32,
          "midi": 74,
          "name": "D5",
          "ticks": 38930,
          "time": 155.96939531249998,
          "velocity": 0.9763779527559056
        },
        {
          "duration": 0.11217937500001085,
          "durationTicks": 28,
          "midi": 75,
          "name": "D#5",
          "ticks": 38970,
          "time": 156.1296515625,
          "velocity": 0.9763779527559056
        },
        {
          "duration": 0.15224343750000457,
          "durationTicks": 38,
          "midi": 77,
          "name": "F5",
          "ticks": 39006,
          "time": 156.2738821875,
          "velocity": 0.9763779527559056
        },
        {
          "duration": 0.1201921875000096,
          "durationTicks": 30,
          "midi": 79,
          "name": "G5",
          "ticks": 39038,
          "time": 156.40208718749997,
          "velocity": 0.9763779527559056
        },
        {
          "duration": 0.12820500000000834,
          "durationTicks": 32,
          "midi": 80,
          "name": "G#5",
          "ticks": 39072,
          "time": 156.53830499999998,
          "velocity": 0.9763779527559056
        },
        {
          "duration": 0.5208328125000037,
          "durationTicks": 130,
          "midi": 82,
          "name": "A#5",
          "ticks": 39102,
          "time": 156.6584971875,
          "velocity": 0.9763779527559056
        },
        {
          "duration": 0.1041665625000121,
          "durationTicks": 26,
          "midi": 70,
          "name": "A#4",
          "ticks": 39230,
          "time": 157.1713171875,
          "velocity": 0.9763779527559056
        },
        {
          "duration": 0.18429468749997113,
          "durationTicks": 46,
          "midi": 72,
          "name": "C5",
          "ticks": 39262,
          "time": 157.2995221875,
          "velocity": 0.9763779527559056
        },
        {
          "duration": 0.12820499999997992,
          "durationTicks": 32,
          "midi": 74,
          "name": "D5",
          "ticks": 39300,
          "time": 157.451765625,
          "velocity": 0.9763779527559056
        },
        {
          "duration": 0.1201921875000096,
          "durationTicks": 30,
          "midi": 75,
          "name": "D#5",
          "ticks": 39336,
          "time": 157.59599624999998,
          "velocity": 0.9763779527559056
        },
        {
          "duration": 0.18429468749999955,
          "durationTicks": 46,
          "midi": 77,
          "name": "F5",
          "ticks": 39370,
          "time": 157.7322140625,
          "velocity": 0.9763779527559056
        },
        {
          "duration": 0.12820499999997992,
          "durationTicks": 32,
          "midi": 79,
          "name": "G5",
          "ticks": 39408,
          "time": 157.8844575,
          "velocity": 0.9763779527559056
        },
        {
          "duration": 0.1201921875000096,
          "durationTicks": 30,
          "midi": 80,
          "name": "G#5",
          "ticks": 39446,
          "time": 158.03670093749997,
          "velocity": 0.9763779527559056
        },
        {
          "duration": 1.4423062500000015,
          "durationTicks": 360,
          "midi": 82,
          "name": "A#5",
          "ticks": 39480,
          "time": 158.17291874999998,
          "velocity": 0.9763779527559056
        },
        {
          "duration": 0.1762818750000008,
          "durationTicks": 44,
          "midi": 74,
          "name": "D5",
          "ticks": 39840,
          "time": 159.61522499999998,
          "velocity": 0.9763779527559056
        },
        {
          "duration": 0.1923074999999983,
          "durationTicks": 48,
          "midi": 75,
          "name": "D#5",
          "ticks": 39888,
          "time": 159.8075325,
          "velocity": 0.9763779527559056
        },
        {
          "duration": 0.36057656250000036,
          "durationTicks": 90,
          "midi": 72,
          "name": "C5",
          "ticks": 39936,
          "time": 159.99984,
          "velocity": 0.9763779527559056
        },
        {
          "duration": 0.1923074999999983,
          "durationTicks": 48,
          "midi": 74,
          "name": "D5",
          "ticks": 40032,
          "time": 160.384455,
          "velocity": 0.9763779527559056
        },
        {
          "duration": 0.24038437499999077,
          "durationTicks": 60,
          "midi": 75,
          "name": "D#5",
          "ticks": 40074,
          "time": 160.5527240625,
          "velocity": 0.9763779527559056
        },
        {
          "duration": 0.4166662499999916,
          "durationTicks": 104,
          "midi": 72,
          "name": "C5",
          "ticks": 40132,
          "time": 160.785095625,
          "velocity": 0.9763779527559056
        },
        {
          "duration": 0.1923074999999983,
          "durationTicks": 48,
          "midi": 74,
          "name": "D5",
          "ticks": 40222,
          "time": 161.1456721875,
          "velocity": 0.9763779527559056
        },
        {
          "duration": 0.2083331249999958,
          "durationTicks": 52,
          "midi": 75,
          "name": "D#5",
          "ticks": 40266,
          "time": 161.3219540625,
          "velocity": 0.9763779527559056
        },
        {
          "duration": 1.0576912500000049,
          "durationTicks": 264,
          "midi": 77,
          "name": "F5",
          "ticks": 40324,
          "time": 161.554325625,
          "velocity": 0.9763779527559056
        },
        {
          "duration": 0.3124996875000079,
          "durationTicks": 78,
          "midi": 65,
          "name": "F4",
          "ticks": 40590,
          "time": 162.6200296875,
          "velocity": 0.9763779527559056
        },
        {
          "duration": 0.24839718750001794,
          "durationTicks": 62,
          "midi": 67,
          "name": "G4",
          "ticks": 40652,
          "time": 162.86842687499998,
          "velocity": 0.9763779527559056
        },
        {
          "duration": 0.6570506249999823,
          "durationTicks": 164,
          "midi": 68,
          "name": "G#4",
          "ticks": 40716,
          "time": 163.124836875,
          "velocity": 0.9763779527559056
        },
        {
          "duration": 0.8092940625000153,
          "durationTicks": 202,
          "midi": 77,
          "name": "F5",
          "ticks": 40886,
          "time": 163.80592593749998,
          "velocity": 0.9763779527559056
        },
        {
          "duration": 1.0336528125000086,
          "durationTicks": 258,
          "midi": 68,
          "name": "G#4",
          "ticks": 41086,
          "time": 164.6072071875,
          "velocity": 0.9763779527559056
        },
        {
          "duration": 0.16025625000000332,
          "durationTicks": 40,
          "midi": 73,
          "name": "C#5",
          "ticks": 41342,
          "time": 165.63284718749998,
          "velocity": 0.9763779527559056
        },
        {
          "duration": 0.22435874999999328,
          "durationTicks": 56,
          "midi": 73,
          "name": "C#5",
          "ticks": 41400,
          "time": 165.86521875,
          "velocity": 0.9763779527559056
        },
        {
          "duration": 0.7051275000000317,
          "durationTicks": 176,
          "midi": 73,
          "name": "C#5",
          "ticks": 41480,
          "time": 166.18573124999998,
          "velocity": 0.9763779527559056
        },
        {
          "duration": 0.5689096875000246,
          "durationTicks": 142,
          "midi": 61,
          "name": "C#4",
          "ticks": 41660,
          "time": 166.90688437499998,
          "velocity": 0.9763779527559056
        },
        {
          "duration": 0.2800321874999838,
          "durationTicks": 138,
          "midi": 53,
          "name": "F3",
          "ticks": 57216,
          "time": 228.4713,
          "velocity": 0.9606299212598425
        },
        {
          "duration": 0.25973999999999364,
          "durationTicks": 128,
          "midi": 45,
          "name": "A2",
          "ticks": 57344,
          "time": 228.73104,
          "velocity": 0.9606299212598425
        },
        {
          "duration": 0.2475646875000166,
          "durationTicks": 122,
          "midi": 46,
          "name": "A#2",
          "ticks": 57472,
          "time": 228.99078,
          "velocity": 0.952755905511811
        },
        {
          "duration": 0.25162312500000894,
          "durationTicks": 124,
          "midi": 47,
          "name": "B2",
          "ticks": 57600,
          "time": 229.25052,
          "velocity": 0.952755905511811
        },
        {
          "duration": 0.15422062499999356,
          "durationTicks": 76,
          "midi": 48,
          "name": "C3",
          "ticks": 57728,
          "time": 229.51026000000002,
          "velocity": 0.952755905511811
        },
        {
          "duration": 0.13392843750000338,
          "durationTicks": 66,
          "midi": 50,
          "name": "D3",
          "ticks": 57792,
          "time": 229.64013,
          "velocity": 0.937007874015748
        },
        {
          "duration": 0.1785712500000045,
          "durationTicks": 88,
          "midi": 52,
          "name": "E3",
          "ticks": 57856,
          "time": 229.77,
          "velocity": 0.952755905511811
        },
        {
          "duration": 0.0852271875000099,
          "durationTicks": 42,
          "midi": 53,
          "name": "F3",
          "ticks": 57920,
          "time": 229.89987,
          "velocity": 0.952755905511811
        },
        {
          "duration": 0.27597374999999147,
          "durationTicks": 136,
          "midi": 53,
          "name": "F3",
          "ticks": 57984,
          "time": 230.02974,
          "velocity": 0.952755905511811
        },
        {
          "duration": 0.30438281249999477,
          "durationTicks": 150,
          "midi": 45,
          "name": "A2",
          "ticks": 58112,
          "time": 230.28948,
          "velocity": 0.952755905511811
        },
        {
          "duration": 0.2475646875000166,
          "durationTicks": 122,
          "midi": 46,
          "name": "A#2",
          "ticks": 58240,
          "time": 230.54922,
          "velocity": 0.952755905511811
        },
        {
          "duration": 0.16639593749999904,
          "durationTicks": 82,
          "midi": 47,
          "name": "B2",
          "ticks": 58368,
          "time": 230.80896,
          "velocity": 0.9448818897637795
        },
        {
          "duration": 0.10551937500000008,
          "durationTicks": 52,
          "midi": 48,
          "name": "C3",
          "ticks": 58432,
          "time": 230.93883,
          "velocity": 0.9212598425196851
        },
        {
          "duration": 0.13798687499999573,
          "durationTicks": 68,
          "midi": 50,
          "name": "D3",
          "ticks": 58496,
          "time": 231.0687,
          "velocity": 0.952755905511811
        },
        {
          "duration": 0.33279187499999807,
          "durationTicks": 164,
          "midi": 48,
          "name": "C3",
          "ticks": 58560,
          "time": 231.19857000000002,
          "velocity": 0.968503937007874
        },
        {
          "duration": 0.28003218750001224,
          "durationTicks": 138,
          "midi": 53,
          "name": "F3",
          "ticks": 58752,
          "time": 231.58818,
          "velocity": 0.9448818897637795
        },
        {
          "duration": 0.23944781249997504,
          "durationTicks": 118,
          "midi": 45,
          "name": "A2",
          "ticks": 58880,
          "time": 231.84792000000002,
          "velocity": 0.9448818897637795
        },
        {
          "duration": 0.26785687500000677,
          "durationTicks": 132,
          "midi": 46,
          "name": "A#2",
          "ticks": 59008,
          "time": 232.10766,
          "velocity": 0.952755905511811
        },
        {
          "duration": 0.28003218750001224,
          "durationTicks": 138,
          "midi": 47,
          "name": "B2",
          "ticks": 59136,
          "time": 232.3674,
          "velocity": 0.952755905511811
        },
        {
          "duration": 0.17451281250001216,
          "durationTicks": 86,
          "midi": 48,
          "name": "C3",
          "ticks": 59264,
          "time": 232.62714,
          "velocity": 0.937007874015748
        },
        {
          "duration": 0.13392843750000338,
          "durationTicks": 66,
          "midi": 50,
          "name": "D3",
          "ticks": 59328,
          "time": 232.75701,
          "velocity": 0.9448818897637795
        },
        {
          "duration": 0.18262968749999686,
          "durationTicks": 90,
          "midi": 52,
          "name": "E3",
          "ticks": 59392,
          "time": 232.88688000000002,
          "velocity": 0.937007874015748
        },
        {
          "duration": 0.09740250000001538,
          "durationTicks": 48,
          "midi": 53,
          "name": "F3",
          "ticks": 59456,
          "time": 233.01675,
          "velocity": 0.9291338582677166
        },
        {
          "duration": 0.2556815625000013,
          "durationTicks": 126,
          "midi": 55,
          "name": "G3",
          "ticks": 59520,
          "time": 233.14662,
          "velocity": 0.9606299212598425
        },
        {
          "duration": 0.3206165624999926,
          "durationTicks": 158,
          "midi": 47,
          "name": "B2",
          "ticks": 59648,
          "time": 233.40636,
          "velocity": 0.952755905511811
        },
        {
          "duration": 0.2191556250000133,
          "durationTicks": 108,
          "midi": 48,
          "name": "C3",
          "ticks": 59776,
          "time": 233.6661,
          "velocity": 0.9133858267716536
        },
        {
          "duration": 0.15422062500002198,
          "durationTicks": 76,
          "midi": 49,
          "name": "C#3",
          "ticks": 59904,
          "time": 233.92584,
          "velocity": 0.9212598425196851
        },
        {
          "duration": 0.1704543750000198,
          "durationTicks": 84,
          "midi": 50,
          "name": "D3",
          "ticks": 60000,
          "time": 234.120645,
          "velocity": 0.952755905511811
        },
        {
          "duration": 0.09740249999998696,
          "durationTicks": 48,
          "midi": 52,
          "name": "E3",
          "ticks": 60064,
          "time": 234.250515,
          "velocity": 0.9291338582677166
        },
        {
          "duration": 0.3652593749999937,
          "durationTicks": 180,
          "midi": 50,
          "name": "D3",
          "ticks": 60096,
          "time": 234.31545,
          "velocity": 0.8976377952755905
        },
        {
          "duration": 2.366069062500003,
          "durationTicks": 1166,
          "midi": 43,
          "name": "G2",
          "ticks": 60288,
          "time": 234.70506,
          "velocity": 0.968503937007874
        },
        {
          "duration": 3.112821562499988,
          "durationTicks": 1534,
          "midi": 48,
          "name": "C3",
          "ticks": 60288,
          "time": 234.70506,
          "velocity": 0.952755905511811
        },
        {
          "duration": 0.750810937500006,
          "durationTicks": 370,
          "midi": 41,
          "name": "F2",
          "ticks": 61440,
          "time": 237.04272,
          "velocity": 0.952755905511811
        },
        {
          "duration": 1.5137971874999891,
          "durationTicks": 746,
          "midi": 43,
          "name": "G2",
          "ticks": 61824,
          "time": 237.82194,
          "velocity": 0.9212598425196851
        },
        {
          "duration": 0.020292187499990177,
          "durationTicks": 10,
          "midi": 48,
          "name": "C3",
          "ticks": 61824,
          "time": 237.82194,
          "velocity": 0.9606299212598425
        },
        {
          "duration": 0.16639593749999904,
          "durationTicks": 82,
          "midi": 43,
          "name": "G2",
          "ticks": 62592,
          "time": 239.38038,
          "velocity": 0.9291338582677166
        },
        {
          "duration": 0.11363624999998478,
          "durationTicks": 56,
          "midi": 46,
          "name": "A#2",
          "ticks": 62656,
          "time": 239.51025,
          "velocity": 0.9448818897637795
        },
        {
          "duration": 0.09740250000001538,
          "durationTicks": 48,
          "midi": 48,
          "name": "C3",
          "ticks": 62720,
          "time": 239.64012,
          "velocity": 0.952755905511811
        },
        {
          "duration": 0.14610375000000886,
          "durationTicks": 72,
          "midi": 48,
          "name": "C3",
          "ticks": 62784,
          "time": 239.76999,
          "velocity": 0.952755905511811
        },
        {
          "duration": 0.1055193750000285,
          "durationTicks": 52,
          "midi": 46,
          "name": "A#2",
          "ticks": 62848,
          "time": 239.89986,
          "velocity": 0.937007874015748
        },
        {
          "duration": 0.9293821875000106,
          "durationTicks": 458,
          "midi": 51,
          "name": "D#3",
          "ticks": 62912,
          "time": 240.02973,
          "velocity": 0.952755905511811
        },
        {
          "duration": 2.2727250000000083,
          "durationTicks": 1120,
          "midi": 43,
          "name": "G2",
          "ticks": 63360,
          "time": 240.93882,
          "velocity": 0.9763779527559056
        },
        {
          "duration": 3.185873437500021,
          "durationTicks": 1570,
          "midi": 48,
          "name": "C3",
          "ticks": 63360,
          "time": 240.93882,
          "velocity": 0.9606299212598425
        },
        {
          "duration": 0.7305187500000159,
          "durationTicks": 360,
          "midi": 41,
          "name": "F2",
          "ticks": 64512,
          "time": 243.27648,
          "velocity": 0.952755905511811
        },
        {
          "duration": 1.5381478125,
          "durationTicks": 758,
          "midi": 46,
          "name": "A#2",
          "ticks": 64896,
          "time": 244.0557,
          "velocity": 0.952755905511811
        },
        {
          "duration": 1.5503231250000056,
          "durationTicks": 764,
          "midi": 53,
          "name": "F3",
          "ticks": 64896,
          "time": 244.0557,
          "velocity": 0.952755905511811
        },
        {
          "duration": 1.4975634374999913,
          "durationTicks": 738,
          "midi": 43,
          "name": "G2",
          "ticks": 65664,
          "time": 245.61414000000002,
          "velocity": 0.9448818897637795
        },
        {
          "duration": 1.599024374999999,
          "durationTicks": 788,
          "midi": 50,
          "name": "D3",
          "ticks": 65664,
          "time": 245.61414000000002,
          "velocity": 0.9606299212598425
        },
        {
          "duration": 1.6030828124999914,
          "durationTicks": 790,
          "midi": 48,
          "name": "C3",
          "ticks": 66432,
          "time": 247.17258,
          "velocity": 0.9448818897637795
        },
        {
          "duration": 1.4772712500000011,
          "durationTicks": 728,
          "midi": 43,
          "name": "G2",
          "ticks": 67200,
          "time": 248.73102,
          "velocity": 0.9606299212598425
        },
        {
          "duration": 1.5259724999999946,
          "durationTicks": 752,
          "midi": 46,
          "name": "A#2",
          "ticks": 67200,
          "time": 248.73102,
          "velocity": 0.9448818897637795
        },
        {
          "duration": 1.5178556249999815,
          "durationTicks": 748,
          "midi": 43,
          "name": "G2",
          "ticks": 67968,
          "time": 250.28946000000002,
          "velocity": 0.9448818897637795
        },
        {
          "duration": 1.5706153124999958,
          "durationTicks": 774,
          "midi": 48,
          "name": "C3",
          "ticks": 67968,
          "time": 250.28946000000002,
          "velocity": 0.9291338582677166
        },
        {
          "duration": 0.7345771874999798,
          "durationTicks": 362,
          "midi": 43,
          "name": "G2",
          "ticks": 68736,
          "time": 251.8479,
          "velocity": 0.9291338582677166
        },
        {
          "duration": 0.7792199999999809,
          "durationTicks": 384,
          "midi": 46,
          "name": "A#2",
          "ticks": 68736,
          "time": 251.8479,
          "velocity": 0.952755905511811
        },
        {
          "duration": 0.7102265625000257,
          "durationTicks": 350,
          "midi": 43,
          "name": "G2",
          "ticks": 69120,
          "time": 252.62712,
          "velocity": 0.9606299212598425
        },
        {
          "duration": 0.7995121874999995,
          "durationTicks": 394,
          "midi": 48,
          "name": "C3",
          "ticks": 69120,
          "time": 252.62712,
          "velocity": 0.9291338582677166
        },
        {
          "duration": 1.554381562499998,
          "durationTicks": 766,
          "midi": 43,
          "name": "G2",
          "ticks": 69504,
          "time": 253.40634,
          "velocity": 0.937007874015748
        },
        {
          "duration": 0.7832784375000017,
          "durationTicks": 386,
          "midi": 46,
          "name": "A#2",
          "ticks": 69504,
          "time": 253.40634,
          "velocity": 0.952755905511811
        },
        {
          "duration": 0.7995121874999995,
          "durationTicks": 394,
          "midi": 48,
          "name": "C3",
          "ticks": 69888,
          "time": 254.18556,
          "velocity": 0.9133858267716536
        },
        {
          "duration": 0.2516231249999805,
          "durationTicks": 124,
          "midi": 53,
          "name": "F3",
          "ticks": 70272,
          "time": 254.96478000000002,
          "velocity": 0.952755905511811
        },
        {
          "duration": 0.2516231249999805,
          "durationTicks": 124,
          "midi": 45,
          "name": "A2",
          "ticks": 70400,
          "time": 255.22452,
          "velocity": 0.952755905511811
        },
        {
          "duration": 0.25162312500000894,
          "durationTicks": 124,
          "midi": 46,
          "name": "A#2",
          "ticks": 70528,
          "time": 255.48426,
          "velocity": 0.9448818897637795
        },
        {
          "duration": 0.2922074999999893,
          "durationTicks": 144,
          "midi": 47,
          "name": "B2",
          "ticks": 70656,
          "time": 255.744,
          "velocity": 0.9606299212598425
        },
        {
          "duration": 0.1623375000000351,
          "durationTicks": 80,
          "midi": 48,
          "name": "C3",
          "ticks": 70784,
          "time": 256.00374,
          "velocity": 0.9212598425196851
        },
        {
          "duration": 0.13392843750000338,
          "durationTicks": 66,
          "midi": 50,
          "name": "D3",
          "ticks": 70848,
          "time": 256.13361,
          "velocity": 0.9291338582677166
        },
        {
          "duration": 0.17451281249998374,
          "durationTicks": 86,
          "midi": 52,
          "name": "E3",
          "ticks": 70912,
          "time": 256.26348,
          "velocity": 0.9448818897637795
        },
        {
          "duration": 0.09334406250002303,
          "durationTicks": 46,
          "midi": 53,
          "name": "F3",
          "ticks": 70976,
          "time": 256.39335,
          "velocity": 0.952755905511811
        },
        {
          "duration": 0.25162312500003736,
          "durationTicks": 124,
          "midi": 53,
          "name": "F3",
          "ticks": 71040,
          "time": 256.52322,
          "velocity": 0.952755905511811
        },
        {
          "duration": 0.27191531250002754,
          "durationTicks": 134,
          "midi": 45,
          "name": "A2",
          "ticks": 71168,
          "time": 256.78296,
          "velocity": 0.952755905511811
        },
        {
          "duration": 0.23944781249997504,
          "durationTicks": 118,
          "midi": 46,
          "name": "A#2",
          "ticks": 71296,
          "time": 257.0427,
          "velocity": 0.9448818897637795
        },
        {
          "duration": 0.14204531249998809,
          "durationTicks": 70,
          "midi": 47,
          "name": "B2",
          "ticks": 71424,
          "time": 257.30244,
          "velocity": 0.9448818897637795
        },
        {
          "duration": 0.10957781249999243,
          "durationTicks": 54,
          "midi": 48,
          "name": "C3",
          "ticks": 71488,
          "time": 257.43231000000003,
          "velocity": 0.9212598425196851
        },
        {
          "duration": 0.1379868749999673,
          "durationTicks": 68,
          "midi": 50,
          "name": "D3",
          "ticks": 71552,
          "time": 257.56218,
          "velocity": 0.9606299212598425
        },
        {
          "duration": 0.3612009375000298,
          "durationTicks": 178,
          "midi": 48,
          "name": "C3",
          "ticks": 71616,
          "time": 257.69205,
          "velocity": 0.9606299212598425
        },
        {
          "duration": 0.27597374999999147,
          "durationTicks": 136,
          "midi": 53,
          "name": "F3",
          "ticks": 71808,
          "time": 258.08166,
          "velocity": 0.9606299212598425
        },
        {
          "duration": 0.26785687500000677,
          "durationTicks": 132,
          "midi": 45,
          "name": "A2",
          "ticks": 71936,
          "time": 258.3414,
          "velocity": 0.9606299212598425
        },
        {
          "duration": 0.2475646875000166,
          "durationTicks": 122,
          "midi": 46,
          "name": "A#2",
          "ticks": 72064,
          "time": 258.60114,
          "velocity": 0.952755905511811
        },
        {
          "duration": 0.2719153124999707,
          "durationTicks": 134,
          "midi": 47,
          "name": "B2",
          "ticks": 72192,
          "time": 258.86088,
          "velocity": 0.952755905511811
        },
        {
          "duration": 0.13392843750000338,
          "durationTicks": 66,
          "midi": 48,
          "name": "C3",
          "ticks": 72320,
          "time": 259.12062000000003,
          "velocity": 0.9133858267716536
        },
        {
          "duration": 0.1136362500000132,
          "durationTicks": 56,
          "midi": 50,
          "name": "D3",
          "ticks": 72384,
          "time": 259.25049,
          "velocity": 0.9212598425196851
        },
        {
          "duration": 0.1988634374999947,
          "durationTicks": 98,
          "midi": 52,
          "name": "E3",
          "ticks": 72448,
          "time": 259.38036,
          "velocity": 0.9291338582677166
        },
        {
          "duration": 0.08928562500000226,
          "durationTicks": 44,
          "midi": 53,
          "name": "F3",
          "ticks": 72512,
          "time": 259.51023,
          "velocity": 0.9291338582677166
        },
        {
          "duration": 0.2516231249999805,
          "durationTicks": 124,
          "midi": 55,
          "name": "G3",
          "ticks": 72576,
          "time": 259.6401,
          "velocity": 0.952755905511811
        },
        {
          "duration": 0.32873343750003414,
          "durationTicks": 162,
          "midi": 47,
          "name": "B2",
          "ticks": 72704,
          "time": 259.89984,
          "velocity": 0.952755905511811
        },
        {
          "duration": 0.2516231249999805,
          "durationTicks": 124,
          "midi": 48,
          "name": "C3",
          "ticks": 72832,
          "time": 260.15958,
          "velocity": 0.937007874015748
        },
        {
          "duration": 0.23133093749999034,
          "durationTicks": 114,
          "midi": 50,
          "name": "D3",
          "ticks": 72960,
          "time": 260.41932,
          "velocity": 0.9448818897637795
        },
        {
          "duration": 0.12175312499999791,
          "durationTicks": 60,
          "midi": 51,
          "name": "D#3",
          "ticks": 73088,
          "time": 260.67906,
          "velocity": 0.9212598425196851
        },
        {
          "duration": 0.1298699999999826,
          "durationTicks": 64,
          "midi": 52,
          "name": "E3",
          "ticks": 73152,
          "time": 260.80893000000003,
          "velocity": 0.952755905511811
        },
        {
          "duration": 0.09334406250002303,
          "durationTicks": 46,
          "midi": 53,
          "name": "F3",
          "ticks": 73216,
          "time": 260.9388,
          "velocity": 0.9133858267716536
        },
        {
          "duration": 0.12175312499999791,
          "durationTicks": 60,
          "midi": 55,
          "name": "G3",
          "ticks": 73280,
          "time": 261.06867,
          "velocity": 0.9448818897637795
        },
        {
          "duration": 0.1704543750000198,
          "durationTicks": 84,
          "midi": 54,
          "name": "F#3",
          "ticks": 73344,
          "time": 261.19854,
          "velocity": 0.9448818897637795
        },
        {
          "duration": 0.13392843750000338,
          "durationTicks": 66,
          "midi": 56,
          "name": "G#3",
          "ticks": 73408,
          "time": 261.32841,
          "velocity": 0.937007874015748
        },
        {
          "duration": 0.10957781249999243,
          "durationTicks": 54,
          "midi": 58,
          "name": "A#3",
          "ticks": 73472,
          "time": 261.45828,
          "velocity": 0.952755905511811
        },
        {
          "duration": 0.1379868749999673,
          "durationTicks": 68,
          "midi": 56,
          "name": "G#3",
          "ticks": 73600,
          "time": 261.71802,
          "velocity": 0.9448818897637795
        },
        {
          "duration": 0.14204531249998809,
          "durationTicks": 70,
          "midi": 58,
          "name": "A#3",
          "ticks": 73664,
          "time": 261.84789,
          "velocity": 0.9291338582677166
        },
        {
          "duration": 0.15422062499999356,
          "durationTicks": 76,
          "midi": 60,
          "name": "C4",
          "ticks": 73728,
          "time": 261.97776,
          "velocity": 0.952755905511811
        },
        {
          "duration": 0.11769468750003398,
          "durationTicks": 58,
          "midi": 58,
          "name": "A#3",
          "ticks": 73920,
          "time": 262.36737,
          "velocity": 0.9448818897637795
        },
        {
          "duration": 0.1663959374999422,
          "durationTicks": 82,
          "midi": 60,
          "name": "C4",
          "ticks": 73984,
          "time": 262.49724000000003,
          "velocity": 0.937007874015748
        },
        {
          "duration": 0.07711031249999678,
          "durationTicks": 38,
          "midi": 62,
          "name": "D4",
          "ticks": 74048,
          "time": 262.62711,
          "velocity": 0.9291338582677166
        },
        {
          "duration": 0.0649349999999913,
          "durationTicks": 32,
          "midi": 47,
          "name": "B2",
          "ticks": 74112,
          "time": 262.75698,
          "velocity": 0.952755905511811
        },
        {
          "duration": 0.0649349999999913,
          "durationTicks": 32,
          "midi": 49,
          "name": "C#3",
          "ticks": 74144,
          "time": 262.821915,
          "velocity": 0.9133858267716536
        },
        {
          "duration": 0.06493500000004815,
          "durationTicks": 32,
          "midi": 51,
          "name": "D#3",
          "ticks": 74176,
          "time": 262.88685,
          "velocity": 0.9133858267716536
        },
        {
          "duration": 0.0649349999999913,
          "durationTicks": 32,
          "midi": 49,
          "name": "C#3",
          "ticks": 74208,
          "time": 262.95178500000003,
          "velocity": 0.9212598425196851
        },
        {
          "duration": 0.0649349999999913,
          "durationTicks": 32,
          "midi": 51,
          "name": "D#3",
          "ticks": 74240,
          "time": 263.01672,
          "velocity": 0.9212598425196851
        },
        {
          "duration": 0.0649349999999913,
          "durationTicks": 32,
          "midi": 54,
          "name": "F#3",
          "ticks": 74272,
          "time": 263.081655,
          "velocity": 0.9291338582677166
        },
        {
          "duration": 0.0649349999999913,
          "durationTicks": 32,
          "midi": 51,
          "name": "D#3",
          "ticks": 74304,
          "time": 263.14659,
          "velocity": 0.9291338582677166
        },
        {
          "duration": 0.0649349999999913,
          "durationTicks": 32,
          "midi": 54,
          "name": "F#3",
          "ticks": 74336,
          "time": 263.211525,
          "velocity": 0.9291338582677166
        },
        {
          "duration": 0.06493500000004815,
          "durationTicks": 32,
          "midi": 52,
          "name": "E3",
          "ticks": 74368,
          "time": 263.27646,
          "velocity": 0.952755905511811
        },
        {
          "duration": 0.0649349999999913,
          "durationTicks": 32,
          "midi": 54,
          "name": "F#3",
          "ticks": 74400,
          "time": 263.34139500000003,
          "velocity": 0.9291338582677166
        },
        {
          "duration": 0.0649349999999913,
          "durationTicks": 32,
          "midi": 54,
          "name": "F#3",
          "ticks": 74432,
          "time": 263.40633,
          "velocity": 0.937007874015748
        },
        {
          "duration": 0.09740249999998696,
          "durationTicks": 48,
          "midi": 56,
          "name": "G#3",
          "ticks": 74464,
          "time": 263.471265,
          "velocity": 0.952755905511811
        },
        {
          "duration": 0.0649349999999913,
          "durationTicks": 32,
          "midi": 58,
          "name": "A#3",
          "ticks": 74496,
          "time": 263.5362,
          "velocity": 0.9448818897637795
        },
        {
          "duration": 0.0649349999999913,
          "durationTicks": 32,
          "midi": 58,
          "name": "A#3",
          "ticks": 74528,
          "time": 263.601135,
          "velocity": 0.937007874015748
        },
        {
          "duration": 0.08522718749998148,
          "durationTicks": 42,
          "midi": 56,
          "name": "G#3",
          "ticks": 74560,
          "time": 263.66607,
          "velocity": 0.937007874015748
        },
        {
          "duration": 0.06493500000004815,
          "durationTicks": 32,
          "midi": 54,
          "name": "F#3",
          "ticks": 74592,
          "time": 263.731005,
          "velocity": 0.937007874015748
        },
        {
          "duration": 0.0649349999999913,
          "durationTicks": 32,
          "midi": 53,
          "name": "F3",
          "ticks": 74624,
          "time": 263.79594000000003,
          "velocity": 0.937007874015748
        },
        {
          "duration": 0.09334406249996618,
          "durationTicks": 46,
          "midi": 56,
          "name": "G#3",
          "ticks": 74656,
          "time": 263.860875,
          "velocity": 0.937007874015748
        },
        {
          "duration": 0.0649349999999913,
          "durationTicks": 32,
          "midi": 58,
          "name": "A#3",
          "ticks": 74688,
          "time": 263.92581,
          "velocity": 0.9448818897637795
        },
        {
          "duration": 0.07305187499997601,
          "durationTicks": 36,
          "midi": 59,
          "name": "B3",
          "ticks": 74720,
          "time": 263.990745,
          "velocity": 0.952755905511811
        },
        {
          "duration": 0.07711031249999678,
          "durationTicks": 38,
          "midi": 61,
          "name": "C#4",
          "ticks": 74752,
          "time": 264.05568,
          "velocity": 0.952755905511811
        },
        {
          "duration": 0.06493500000004815,
          "durationTicks": 32,
          "midi": 62,
          "name": "D4",
          "ticks": 74784,
          "time": 264.120615,
          "velocity": 0.9448818897637795
        },
        {
          "duration": 0.1298699999999826,
          "durationTicks": 64,
          "midi": 63,
          "name": "D#4",
          "ticks": 74816,
          "time": 264.18555000000003,
          "velocity": 0.9291338582677166
        },
        {
          "duration": 0.0649349999999913,
          "durationTicks": 32,
          "midi": 44,
          "name": "G#2",
          "ticks": 74880,
          "time": 264.31542,
          "velocity": 0.9448818897637795
        },
        {
          "duration": 0.0649349999999913,
          "durationTicks": 32,
          "midi": 46,
          "name": "A#2",
          "ticks": 74912,
          "time": 264.380355,
          "velocity": 0.9763779527559056
        },
        {
          "duration": 0.0649349999999913,
          "durationTicks": 32,
          "midi": 48,
          "name": "C3",
          "ticks": 74944,
          "time": 264.44529,
          "velocity": 0.984251968503937
        },
        {
          "duration": 0.0649349999999913,
          "durationTicks": 32,
          "midi": 46,
          "name": "A#2",
          "ticks": 74976,
          "time": 264.510225,
          "velocity": 0.984251968503937
        },
        {
          "duration": 0.0649349999999913,
          "durationTicks": 32,
          "midi": 44,
          "name": "G#2",
          "ticks": 75008,
          "time": 264.57516,
          "velocity": 0.984251968503937
        },
        {
          "duration": 0.06493500000004815,
          "durationTicks": 32,
          "midi": 46,
          "name": "A#2",
          "ticks": 75040,
          "time": 264.640095,
          "velocity": 0.984251968503937
        },
        {
          "duration": 0.0649349999999913,
          "durationTicks": 32,
          "midi": 48,
          "name": "C3",
          "ticks": 75072,
          "time": 264.70503,
          "velocity": 0.984251968503937
        },
        {
          "duration": 0.0649349999999913,
          "durationTicks": 32,
          "midi": 50,
          "name": "D3",
          "ticks": 75104,
          "time": 264.769965,
          "velocity": 0.984251968503937
        },
        {
          "duration": 0.0649349999999913,
          "durationTicks": 32,
          "midi": 51,
          "name": "D#3",
          "ticks": 75136,
          "time": 264.8349,
          "velocity": 0.984251968503937
        },
        {
          "duration": 0.0649349999999913,
          "durationTicks": 32,
          "midi": 53,
          "name": "F3",
          "ticks": 75168,
          "time": 264.899835,
          "velocity": 0.984251968503937
        },
        {
          "duration": 0.06493500000004815,
          "durationTicks": 32,
          "midi": 56,
          "name": "G#3",
          "ticks": 75200,
          "time": 264.96477,
          "velocity": 0.984251968503937
        },
        {
          "duration": 0.0649349999999913,
          "durationTicks": 32,
          "midi": 55,
          "name": "G3",
          "ticks": 75232,
          "time": 265.02970500000004,
          "velocity": 0.984251968503937
        },
        {
          "duration": 0.0649349999999913,
          "durationTicks": 32,
          "midi": 56,
          "name": "G#3",
          "ticks": 75264,
          "time": 265.09464,
          "velocity": 0.984251968503937
        },
        {
          "duration": 0.0649349999999913,
          "durationTicks": 32,
          "midi": 58,
          "name": "A#3",
          "ticks": 75296,
          "time": 265.159575,
          "velocity": 0.984251968503937
        },
        {
          "duration": 0.0649349999999913,
          "durationTicks": 32,
          "midi": 60,
          "name": "C4",
          "ticks": 75328,
          "time": 265.22451,
          "velocity": 0.984251968503937
        },
        {
          "duration": 0.0649349999999913,
          "durationTicks": 32,
          "midi": 62,
          "name": "D4",
          "ticks": 75360,
          "time": 265.289445,
          "velocity": 0.984251968503937
        },
        {
          "duration": 0.0649349999999913,
          "durationTicks": 32,
          "midi": 63,
          "name": "D#4",
          "ticks": 75392,
          "time": 265.35438,
          "velocity": 0.984251968503937
        },
        {
          "duration": 0.0649349999999913,
          "durationTicks": 32,
          "midi": 60,
          "name": "C4",
          "ticks": 75424,
          "time": 265.419315,
          "velocity": 0.9606299212598425
        },
        {
          "duration": 0.3896100000000615,
          "durationTicks": 192,
          "midi": 63,
          "name": "D#4",
          "ticks": 75456,
          "time": 265.48425,
          "velocity": 0.984251968503937
        },
        {
          "duration": 0.07711031249993994,
          "durationTicks": 38,
          "midi": 46,
          "name": "A#2",
          "ticks": 75648,
          "time": 265.87386000000004,
          "velocity": 0.9291338582677166
        },
        {
          "duration": 0.0649349999999913,
          "durationTicks": 32,
          "midi": 48,
          "name": "C3",
          "ticks": 75680,
          "time": 265.938795,
          "velocity": 0.937007874015748
        },
        {
          "duration": 0.08928562500000226,
          "durationTicks": 44,
          "midi": 50,
          "name": "D3",
          "ticks": 75712,
          "time": 266.00373,
          "velocity": 0.937007874015748
        },
        {
          "duration": 0.09740249999998696,
          "durationTicks": 48,
          "midi": 48,
          "name": "C3",
          "ticks": 75744,
          "time": 266.068665,
          "velocity": 0.937007874015748
        },
        {
          "duration": 0.07305187500003285,
          "durationTicks": 36,
          "midi": 50,
          "name": "D3",
          "ticks": 75776,
          "time": 266.1336,
          "velocity": 0.937007874015748
        },
        {
          "duration": 0.0649349999999913,
          "durationTicks": 32,
          "midi": 51,
          "name": "D#3",
          "ticks": 75808,
          "time": 266.198535,
          "velocity": 0.937007874015748
        },
        {
          "duration": 0.06493500000004815,
          "durationTicks": 32,
          "midi": 50,
          "name": "D3",
          "ticks": 75840,
          "time": 266.26347,
          "velocity": 0.937007874015748
        },
        {
          "duration": 0.0649349999999913,
          "durationTicks": 32,
          "midi": 51,
          "name": "D#3",
          "ticks": 75872,
          "time": 266.32840500000003,
          "velocity": 0.937007874015748
        },
        {
          "duration": 0.0649349999999913,
          "durationTicks": 32,
          "midi": 53,
          "name": "F3",
          "ticks": 75904,
          "time": 266.39334,
          "velocity": 0.9448818897637795
        },
        {
          "duration": 0.0649349999999913,
          "durationTicks": 32,
          "midi": 52,
          "name": "E3",
          "ticks": 75936,
          "time": 266.458275,
          "velocity": 0.9448818897637795
        },
        {
          "duration": 0.07711031249999678,
          "durationTicks": 38,
          "midi": 53,
          "name": "F3",
          "ticks": 75968,
          "time": 266.52321,
          "velocity": 0.9448818897637795
        },
        {
          "duration": 0.0649349999999913,
          "durationTicks": 32,
          "midi": 55,
          "name": "G3",
          "ticks": 76000,
          "time": 266.588145,
          "velocity": 0.9448818897637795
        },
        {
          "duration": 0.06493500000004815,
          "durationTicks": 32,
          "midi": 53,
          "name": "F3",
          "ticks": 76032,
          "time": 266.65308,
          "velocity": 0.9448818897637795
        },
        {
          "duration": 0.08116874999996071,
          "durationTicks": 40,
          "midi": 56,
          "name": "G#3",
          "ticks": 76064,
          "time": 266.71801500000004,
          "velocity": 0.952755905511811
        },
        {
          "duration": 0.06899343749995523,
          "durationTicks": 34,
          "midi": 55,
          "name": "G3",
          "ticks": 76096,
          "time": 266.78295,
          "velocity": 0.952755905511811
        },
        {
          "duration": 0.06899343750001208,
          "durationTicks": 34,
          "midi": 53,
          "name": "F3",
          "ticks": 76128,
          "time": 266.847885,
          "velocity": 0.952755905511811
        },
        {
          "duration": 0.06087656249997053,
          "durationTicks": 30,
          "midi": 55,
          "name": "G3",
          "ticks": 76160,
          "time": 266.91282,
          "velocity": 0.952755905511811
        },
        {
          "duration": 0.08116875000001755,
          "durationTicks": 40,
          "midi": 56,
          "name": "G#3",
          "ticks": 76192,
          "time": 266.977755,
          "velocity": 0.952755905511811
        },
        {
          "duration": 0.0405843750000372,
          "durationTicks": 20,
          "midi": 58,
          "name": "A#3",
          "ticks": 76224,
          "time": 267.04269,
          "velocity": 0.952755905511811
        },
        {
          "duration": 0.052759687500042673,
          "durationTicks": 26,
          "midi": 60,
          "name": "C4",
          "ticks": 76256,
          "time": 267.107625,
          "velocity": 0.952755905511811
        },
        {
          "duration": 0.06899343750001208,
          "durationTicks": 34,
          "midi": 62,
          "name": "D4",
          "ticks": 76288,
          "time": 267.17256,
          "velocity": 0.9606299212598425
        },
        {
          "duration": 0.06899343749995523,
          "durationTicks": 34,
          "midi": 63,
          "name": "D#4",
          "ticks": 76320,
          "time": 267.237495,
          "velocity": 0.9606299212598425
        },
        {
          "duration": 0.04464281250000113,
          "durationTicks": 22,
          "midi": 62,
          "name": "D4",
          "ticks": 76352,
          "time": 267.30243,
          "velocity": 0.9606299212598425
        },
        {
          "duration": 0.0649349999999913,
          "durationTicks": 32,
          "midi": 60,
          "name": "C4",
          "ticks": 76384,
          "time": 267.367365,
          "velocity": 0.9606299212598425
        },
        {
          "duration": 0.0649349999999913,
          "durationTicks": 32,
          "midi": 62,
          "name": "D4",
          "ticks": 76416,
          "time": 267.4323,
          "velocity": 0.9606299212598425
        },
        {
          "duration": 0.060876562500027376,
          "durationTicks": 30,
          "midi": 63,
          "name": "D#4",
          "ticks": 76448,
          "time": 267.497235,
          "velocity": 0.9606299212598425
        },
        {
          "duration": 0.0568181250000066,
          "durationTicks": 28,
          "midi": 65,
          "name": "F4",
          "ticks": 76480,
          "time": 267.56217,
          "velocity": 0.9606299212598425
        },
        {
          "duration": 0.07711031249999678,
          "durationTicks": 38,
          "midi": 67,
          "name": "G4",
          "ticks": 76512,
          "time": 267.62710500000003,
          "velocity": 0.968503937007874
        },
        {
          "duration": 0.07305187499997601,
          "durationTicks": 36,
          "midi": 68,
          "name": "G#4",
          "ticks": 76544,
          "time": 267.69204,
          "velocity": 0.968503937007874
        },
        {
          "duration": 0.08522718749998148,
          "durationTicks": 42,
          "midi": 70,
          "name": "A#4",
          "ticks": 76576,
          "time": 267.756975,
          "velocity": 0.968503937007874
        },
        {
          "duration": 0.0487012500000219,
          "durationTicks": 24,
          "midi": 68,
          "name": "G#4",
          "ticks": 76608,
          "time": 267.82191,
          "velocity": 0.968503937007874
        },
        {
          "duration": 0.0568181250000066,
          "durationTicks": 28,
          "midi": 65,
          "name": "F4",
          "ticks": 76640,
          "time": 267.886845,
          "velocity": 0.968503937007874
        },
        {
          "duration": 0.0568181250000066,
          "durationTicks": 28,
          "midi": 67,
          "name": "G4",
          "ticks": 76672,
          "time": 267.95178,
          "velocity": 0.968503937007874
        },
        {
          "duration": 0.036525937500016425,
          "durationTicks": 18,
          "midi": 70,
          "name": "A#4",
          "ticks": 76704,
          "time": 268.016715,
          "velocity": 0.968503937007874
        },
        {
          "duration": 0.0649349999999913,
          "durationTicks": 32,
          "midi": 72,
          "name": "C5",
          "ticks": 76736,
          "time": 268.08165,
          "velocity": 0.9763779527559056
        },
        {
          "duration": 0.07305187499997601,
          "durationTicks": 36,
          "midi": 74,
          "name": "D5",
          "ticks": 76768,
          "time": 268.146585,
          "velocity": 0.9763779527559056
        },
        {
          "duration": 3.1128215625000166,
          "durationTicks": 1534,
          "midi": 75,
          "name": "D#5",
          "ticks": 76800,
          "time": 268.21152,
          "velocity": 0.9763779527559056
        },
        {
          "duration": 0.3044868749999523,
          "durationTicks": 76,
          "midi": 55,
          "name": "G3",
          "ticks": 78768,
          "time": 272.2999275,
          "velocity": 0.8740157480314961
        },
        {
          "duration": 0.18429468749997113,
          "durationTicks": 46,
          "midi": 58,
          "name": "A#3",
          "ticks": 78768,
          "time": 272.2999275,
          "velocity": 0.905511811023622
        },
        {
          "duration": 0.12019218749998117,
          "durationTicks": 30,
          "midi": 58,
          "name": "A#3",
          "ticks": 78816,
          "time": 272.492235,
          "velocity": 0.8503937007874016
        },
        {
          "duration": 0.16025625000003174,
          "durationTicks": 40,
          "midi": 63,
          "name": "D#4",
          "ticks": 78822,
          "time": 272.5162734375,
          "velocity": 0.8661417322834646
        },
        {
          "duration": 0.040064062499993724,
          "durationTicks": 10,
          "midi": 63,
          "name": "D#4",
          "ticks": 78864,
          "time": 272.6845425,
          "velocity": 0.8267716535433071
        },
        {
          "duration": 0.1762818749999724,
          "durationTicks": 44,
          "midi": 67,
          "name": "G4",
          "ticks": 78866,
          "time": 272.6925553125,
          "velocity": 0.889763779527559
        },
        {
          "duration": 0.056089687499991214,
          "durationTicks": 14,
          "midi": 67,
          "name": "G4",
          "ticks": 78912,
          "time": 272.87685,
          "velocity": 0.8818897637795275
        },
        {
          "duration": 1.0977553124999986,
          "durationTicks": 274,
          "midi": 70,
          "name": "A#4",
          "ticks": 78916,
          "time": 272.892875625,
          "velocity": 0.8976377952755905
        },
        {
          "duration": 0.25640999999995984,
          "durationTicks": 64,
          "midi": 53,
          "name": "F3",
          "ticks": 79152,
          "time": 273.8383875,
          "velocity": 0.8740157480314961
        },
        {
          "duration": 0.16826906249997364,
          "durationTicks": 42,
          "midi": 58,
          "name": "A#3",
          "ticks": 79156,
          "time": 273.854413125,
          "velocity": 0.8976377952755905
        },
        {
          "duration": 0.12019218750003802,
          "durationTicks": 30,
          "midi": 58,
          "name": "A#3",
          "ticks": 79200,
          "time": 274.030695,
          "velocity": 0.8661417322834646
        },
        {
          "duration": 0.152243437500033,
          "durationTicks": 38,
          "midi": 62,
          "name": "D4",
          "ticks": 79208,
          "time": 274.06274625,
          "velocity": 0.889763779527559
        },
        {
          "duration": 0.04807687499999247,
          "durationTicks": 12,
          "midi": 62,
          "name": "D4",
          "ticks": 79248,
          "time": 274.2230025,
          "velocity": 0.8661417322834646
        },
        {
          "duration": 0.16826906249997364,
          "durationTicks": 42,
          "midi": 65,
          "name": "F4",
          "ticks": 79252,
          "time": 274.239028125,
          "velocity": 0.8818897637795275
        },
        {
          "duration": 0.040064062499993724,
          "durationTicks": 10,
          "midi": 65,
          "name": "F4",
          "ticks": 79296,
          "time": 274.41531,
          "velocity": 0.889763779527559
        },
        {
          "duration": 0.9455118750000224,
          "durationTicks": 236,
          "midi": 70,
          "name": "A#4",
          "ticks": 79296,
          "time": 274.41531,
          "velocity": 0.8818897637795275
        },
        {
          "duration": 0.2083331250000242,
          "durationTicks": 52,
          "midi": 60,
          "name": "C4",
          "ticks": 79530,
          "time": 275.3528090625,
          "velocity": 0.8818897637795275
        },
        {
          "duration": 0.30448687500000915,
          "durationTicks": 76,
          "midi": 55,
          "name": "G3",
          "ticks": 79536,
          "time": 275.3768475,
          "velocity": 0.8740157480314961
        },
        {
          "duration": 0.20032031250002547,
          "durationTicks": 50,
          "midi": 63,
          "name": "D#4",
          "ticks": 79580,
          "time": 275.55312937499997,
          "velocity": 0.8582677165354331
        },
        {
          "duration": 0.0721153124999887,
          "durationTicks": 18,
          "midi": 60,
          "name": "C4",
          "ticks": 79584,
          "time": 275.569155,
          "velocity": 0.8976377952755905
        },
        {
          "duration": 0.024038437499996235,
          "durationTicks": 6,
          "midi": 63,
          "name": "D#4",
          "ticks": 79632,
          "time": 275.7614625,
          "velocity": 0.8503937007874016
        },
        {
          "duration": 0.18429468750002798,
          "durationTicks": 46,
          "midi": 67,
          "name": "G4",
          "ticks": 79632,
          "time": 275.7614625,
          "velocity": 0.8740157480314961
        },
        {
          "duration": 1.209934687499981,
          "durationTicks": 302,
          "midi": 70,
          "name": "A#4",
          "ticks": 79678,
          "time": 275.9457571875,
          "velocity": 0.8976377952755905
        },
        {
          "duration": 1.3461524999999597,
          "durationTicks": 336,
          "midi": 65,
          "name": "F4",
          "ticks": 79680,
          "time": 275.95377,
          "velocity": 0.9212598425196851
        }
      ]
    },
    {
      "channel": 0,
      "controlChanges": {
        "0": [
          {
            "number": 0,
            "ticks": 302,
            "time": 1.2099346875,
            "value": 0
          }
        ],
        "32": [
          {
            "number": 32,
            "ticks": 304,
            "time": 1.2179475,
            "value": 0
          }
        ],
        "121": [
          {
            "number": 121,
            "ticks": 182,
            "time": 0.7291659374999999,
            "value": 0
          }
        ]
      },
      "pitchBends": [],
      "instrument": {
        "family": "piano",
        "number": 0,
        "name": "acoustic grand piano"
      },
      "name": "",
      "notes": [],
      "endOfTrackTicks": 92930
    },
    {
      "channel": 11,
      "controlChanges": {
        "1": [
          {
            "number": 1,
            "ticks": 36302,
            "time": 145.44055968749998,
            "value": 0.11023622047244094
          },
          {
            "number": 1,
            "ticks": 36318,
            "time": 145.5046621875,
            "value": 0.4094488188976378
          },
          {
            "number": 1,
            "ticks": 36334,
            "time": 145.5687646875,
            "value": 0.6614173228346457
          },
          {
            "number": 1,
            "ticks": 36350,
            "time": 145.63286718749998,
            "value": 0.7480314960629921
          },
          {
            "number": 1,
            "ticks": 36366,
            "time": 145.6969696875,
            "value": 0.7952755905511811
          },
          {
            "number": 1,
            "ticks": 36384,
            "time": 145.769085,
            "value": 0.8976377952755905
          },
          {
            "number": 1,
            "ticks": 36400,
            "time": 145.8331875,
            "value": 1
          },
          {
            "number": 1,
            "ticks": 36430,
            "time": 145.9533796875,
            "value": 0.8740157480314961
          },
          {
            "number": 1,
            "ticks": 36446,
            "time": 146.01748218749998,
            "value": 0.5905511811023622
          },
          {
            "number": 1,
            "ticks": 36462,
            "time": 146.0815846875,
            "value": 0
          },
          {
            "number": 1,
            "ticks": 36690,
            "time": 146.9950453125,
            "value": 0.03937007874015748
          },
          {
            "number": 1,
            "ticks": 36706,
            "time": 147.05914781250002,
            "value": 0.11023622047244094
          },
          {
            "number": 1,
            "ticks": 36722,
            "time": 147.12325031249998,
            "value": 0.18110236220472442
          },
          {
            "number": 1,
            "ticks": 36738,
            "time": 147.1873528125,
            "value": 0.2440944881889764
          },
          {
            "number": 1,
            "ticks": 36754,
            "time": 147.2514553125,
            "value": 0.3228346456692913
          },
          {
            "number": 1,
            "ticks": 36770,
            "time": 147.31555781249997,
            "value": 0.4015748031496063
          },
          {
            "number": 1,
            "ticks": 36786,
            "time": 147.3796603125,
            "value": 0.47244094488188976
          },
          {
            "number": 1,
            "ticks": 36802,
            "time": 147.4437628125,
            "value": 0.5669291338582677
          },
          {
            "number": 1,
            "ticks": 36818,
            "time": 147.50786531249997,
            "value": 0.6771653543307087
          },
          {
            "number": 1,
            "ticks": 36834,
            "time": 147.5719678125,
            "value": 0.7874015748031497
          },
          {
            "number": 1,
            "ticks": 36852,
            "time": 147.64408312499998,
            "value": 0.7716535433070866
          },
          {
            "number": 1,
            "ticks": 36868,
            "time": 147.708185625,
            "value": 0.5196850393700787
          },
          {
            "number": 1,
            "ticks": 36884,
            "time": 147.772288125,
            "value": 0
          },
          {
            "number": 1,
            "ticks": 37432,
            "time": 149.96779875000001,
            "value": 0.007874015748031496
          },
          {
            "number": 1,
            "ticks": 37448,
            "time": 150.03190124999998,
            "value": 0.10236220472440945
          },
          {
            "number": 1,
            "ticks": 37464,
            "time": 150.09600375,
            "value": 0.2440944881889764
          },
          {
            "number": 1,
            "ticks": 37480,
            "time": 150.16010625,
            "value": 0.33858267716535434
          },
          {
            "number": 1,
            "ticks": 37498,
            "time": 150.2322215625,
            "value": 0.3700787401574803
          },
          {
            "number": 1,
            "ticks": 37514,
            "time": 150.2963240625,
            "value": 0.4094488188976378
          },
          {
            "number": 1,
            "ticks": 37532,
            "time": 150.36843937499998,
            "value": 0.4645669291338583
          },
          {
            "number": 1,
            "ticks": 37548,
            "time": 150.432541875,
            "value": 0.5433070866141733
          },
          {
            "number": 1,
            "ticks": 37564,
            "time": 150.496644375,
            "value": 0.6299212598425197
          },
          {
            "number": 1,
            "ticks": 37580,
            "time": 150.56074687499998,
            "value": 0.6771653543307087
          },
          {
            "number": 1,
            "ticks": 37602,
            "time": 150.6488878125,
            "value": 0.6535433070866141
          },
          {
            "number": 1,
            "ticks": 37618,
            "time": 150.7129903125,
            "value": 0.3937007874015748
          },
          {
            "number": 1,
            "ticks": 37634,
            "time": 150.77709281249997,
            "value": 0
          },
          {
            "number": 1,
            "ticks": 38752,
            "time": 155.256255,
            "value": 0.031496062992125984
          },
          {
            "number": 1,
            "ticks": 38768,
            "time": 155.3203575,
            "value": 0.2992125984251969
          },
          {
            "number": 1,
            "ticks": 38784,
            "time": 155.38446,
            "value": 0.4645669291338583
          },
          {
            "number": 1,
            "ticks": 38800,
            "time": 155.4485625,
            "value": 0.6614173228346457
          },
          {
            "number": 1,
            "ticks": 38816,
            "time": 155.512665,
            "value": 0.84251968503937
          },
          {
            "number": 1,
            "ticks": 38832,
            "time": 155.5767675,
            "value": 0.9448818897637795
          },
          {
            "number": 1,
            "ticks": 38850,
            "time": 155.6488828125,
            "value": 0.8976377952755905
          },
          {
            "number": 1,
            "ticks": 38866,
            "time": 155.7129853125,
            "value": 0.6299212598425197
          },
          {
            "number": 1,
            "ticks": 38882,
            "time": 155.77708781249999,
            "value": 0
          },
          {
            "number": 1,
            "ticks": 39238,
            "time": 157.2033684375,
            "value": 0.047244094488188976
          },
          {
            "number": 1,
            "ticks": 39254,
            "time": 157.26747093749998,
            "value": 0.14173228346456693
          },
          {
            "number": 1,
            "ticks": 39270,
            "time": 157.3315734375,
            "value": 0.2992125984251969
          },
          {
            "number": 1,
            "ticks": 39286,
            "time": 157.3956759375,
            "value": 0.5118110236220472
          },
          {
            "number": 1,
            "ticks": 39302,
            "time": 157.45977843749998,
            "value": 0.6614173228346457
          },
          {
            "number": 1,
            "ticks": 39318,
            "time": 157.5238809375,
            "value": 0.5354330708661418
          },
          {
            "number": 1,
            "ticks": 39334,
            "time": 157.58798343750001,
            "value": 0
          },
          {
            "number": 1,
            "ticks": 39854,
            "time": 159.67131468749997,
            "value": 0.047244094488188976
          },
          {
            "number": 1,
            "ticks": 39870,
            "time": 159.7354171875,
            "value": 0.2204724409448819
          },
          {
            "number": 1,
            "ticks": 39886,
            "time": 159.7995196875,
            "value": 0.6220472440944882
          },
          {
            "number": 1,
            "ticks": 39902,
            "time": 159.8636221875,
            "value": 0.7874015748031497
          },
          {
            "number": 1,
            "ticks": 39918,
            "time": 159.9277246875,
            "value": 0.8818897637795275
          },
          {
            "number": 1,
            "ticks": 39940,
            "time": 160.015865625,
            "value": 0.6456692913385826
          },
          {
            "number": 1,
            "ticks": 39956,
            "time": 160.079968125,
            "value": 0
          }
        ],
        "7": [
          {
            "number": 7,
            "ticks": 308,
            "time": 1.2339731250000001,
            "value": 0.968503937007874
          }
        ],
        "10": [
          {
            "number": 10,
            "ticks": 308,
            "time": 1.2339731250000001,
            "value": 0
          }
        ],
        "11": [
          {
            "number": 11,
            "ticks": 308,
            "time": 1.2339731250000001,
            "value": 0.7086614173228346
          }
        ],
        "91": [
          {
            "number": 91,
            "ticks": 310,
            "time": 1.2419859375,
            "value": 1
          }
        ],
        "93": [
          {
            "number": 93,
            "ticks": 310,
            "time": 1.2419859375,
            "value": 0
          }
        ],
        "120": [
          {
            "number": 120,
            "ticks": 92928,
            "time": 329.03064,
            "value": 0
          }
        ],
        "123": [
          {
            "number": 123,
            "ticks": 92930,
            "time": 329.0386528125,
            "value": 0
          }
        ]
      },
      "pitchBends": [
        {
          "ticks": 37934,
          "time": 151.97901468749998,
          "value": 0.15869140625
        },
        {
          "ticks": 37942,
          "time": 152.0110659375,
          "value": 0.523681640625
        },
        {
          "ticks": 37950,
          "time": 152.0431171875,
          "value": 0.999755859375
        },
        {
          "ticks": 38166,
          "time": 152.90850093749998,
          "value": 0.968017578125
        },
        {
          "ticks": 38174,
          "time": 152.94055218749997,
          "value": 0.4443359375
        },
        {
          "ticks": 38182,
          "time": 152.9726034375,
          "value": 0
        },
        {
          "ticks": 39632,
          "time": 158.7818925,
          "value": 0.079345703125
        },
        {
          "ticks": 39640,
          "time": 158.81394375,
          "value": 0.3173828125
        },
        {
          "ticks": 39648,
          "time": 158.845995,
          "value": 0.66650390625
        },
        {
          "ticks": 39656,
          "time": 158.87804624999998,
          "value": 0.999755859375
        },
        {
          "ticks": 39936,
          "time": 159.99984,
          "value": 0
        },
        {
          "ticks": 39984,
          "time": 160.1921475,
          "value": 0.04541015625
        },
        {
          "ticks": 40512,
          "time": 162.30752999999999,
          "value": 0.04541015625
        },
        {
          "ticks": 40590,
          "time": 162.6200296875,
          "value": 0.0322265625
        },
        {
          "ticks": 40600,
          "time": 162.66009375,
          "value": 0.0133056640625
        },
        {
          "ticks": 40608,
          "time": 162.69214499999998,
          "value": 0
        },
        {
          "ticks": 40642,
          "time": 162.8283628125,
          "value": 0.0416259765625
        },
        {
          "ticks": 40666,
          "time": 162.9245165625,
          "value": 0.032470703125
        },
        {
          "ticks": 40690,
          "time": 163.0206703125,
          "value": 0.0234375
        },
        {
          "ticks": 40714,
          "time": 163.1168240625,
          "value": 0.0142822265625
        },
        {
          "ticks": 40738,
          "time": 163.21297781250001,
          "value": 0.0052490234375
        },
        {
          "ticks": 76928,
          "time": 268.47126000000003,
          "value": 0.1817626953125
        },
        {
          "ticks": 76960,
          "time": 268.536195,
          "value": 0.336181640625
        },
        {
          "ticks": 76992,
          "time": 268.60113,
          "value": 0.49072265625
        },
        {
          "ticks": 77024,
          "time": 268.666065,
          "value": 0.645263671875
        },
        {
          "ticks": 77056,
          "time": 268.731,
          "value": 0.9998779296875
        },
        {
          "ticks": 78464,
          "time": 271.58814,
          "value": 0
        },
        {
          "ticks": 79018,
          "time": 273.3015290625,
          "value": -0.421875
        },
        {
          "ticks": 79026,
          "time": 273.3335803125,
          "value": 0
        },
        {
          "ticks": 79034,
          "time": 273.36563156249997,
          "value": 0
        },
        {
          "ticks": 79390,
          "time": 274.7919121875,
          "value": -0.21875
        },
        {
          "ticks": 79398,
          "time": 274.82396343749997,
          "value": -0.453125
        },
        {
          "ticks": 79406,
          "time": 274.8560146875,
          "value": -0.171875
        },
        {
          "ticks": 79414,
          "time": 274.8880659375,
          "value": 0
        },
        {
          "ticks": 79784,
          "time": 276.37043625,
          "value": 0.079345703125
        },
        {
          "ticks": 79792,
          "time": 276.4024875,
          "value": 0.460205078125
        },
        {
          "ticks": 79800,
          "time": 276.43453875,
          "value": 0.15869140625
        },
        {
          "ticks": 79808,
          "time": 276.46659,
          "value": 0.47607421875
        },
        {
          "ticks": 79816,
          "time": 276.49864125,
          "value": 0.809326171875
        },
        {
          "ticks": 79824,
          "time": 276.5306925,
          "value": 0.999755859375
        },
        {
          "ticks": 80164,
          "time": 277.892870625,
          "value": 0.904541015625
        },
        {
          "ticks": 80172,
          "time": 277.924921875,
          "value": 0.555419921875
        },
        {
          "ticks": 80180,
          "time": 277.956973125,
          "value": 0.25390625
        },
        {
          "ticks": 80188,
          "time": 277.989024375,
          "value": 0
        },
        {
          "ticks": 80274,
          "time": 278.3335753125,
          "value": 0.9521484375
        },
        {
          "ticks": 80282,
          "time": 278.3656265625,
          "value": 0.777587890625
        },
        {
          "ticks": 80290,
          "time": 278.3976778125,
          "value": 0.47607421875
        },
        {
          "ticks": 80298,
          "time": 278.4297290625,
          "value": 0.1904296875
        },
        {
          "ticks": 80306,
          "time": 278.46178031249997,
          "value": 0
        }
      ],
      "instrument": {
        "family": "guitar",
        "number": 30,
        "name": "distortion guitar"
      },
      "name": "",
      "notes": [
        {
          "duration": 0.4006406249999941,
          "durationTicks": 100,
          "midi": 67,
          "name": "G4",
          "ticks": 35994,
          "time": 144.2065865625,
          "velocity": 0.9212598425196851
        },
        {
          "duration": 0.20032031249999704,
          "durationTicks": 50,
          "midi": 65,
          "name": "F4",
          "ticks": 36088,
          "time": 144.58318875,
          "velocity": 0.937007874015748
        },
        {
          "duration": 0.16025625000000332,
          "durationTicks": 40,
          "midi": 63,
          "name": "D#4",
          "ticks": 36140,
          "time": 144.791521875,
          "velocity": 0.937007874015748
        },
        {
          "duration": 1.1698706249999873,
          "durationTicks": 292,
          "midi": 70,
          "name": "A#4",
          "ticks": 36186,
          "time": 144.9758165625,
          "velocity": 0.937007874015748
        },
        {
          "duration": 0.37660218749999785,
          "durationTicks": 94,
          "midi": 67,
          "name": "G4",
          "ticks": 36478,
          "time": 146.1456871875,
          "velocity": 0.937007874015748
        },
        {
          "duration": 1.3942293749999806,
          "durationTicks": 348,
          "midi": 72,
          "name": "C5",
          "ticks": 36574,
          "time": 146.5303021875,
          "velocity": 0.937007874015748
        },
        {
          "duration": 0.4567303124999853,
          "durationTicks": 114,
          "midi": 72,
          "name": "C5",
          "ticks": 36954,
          "time": 148.0527365625,
          "velocity": 0.937007874015748
        },
        {
          "duration": 0.1923074999999983,
          "durationTicks": 48,
          "midi": 74,
          "name": "D5",
          "ticks": 37056,
          "time": 148.46139,
          "velocity": 0.937007874015748
        },
        {
          "duration": 0.25640999999998826,
          "durationTicks": 64,
          "midi": 75,
          "name": "D#5",
          "ticks": 37102,
          "time": 148.6456846875,
          "velocity": 0.937007874015748
        },
        {
          "duration": 0.3846149999999966,
          "durationTicks": 96,
          "midi": 72,
          "name": "C5",
          "ticks": 37162,
          "time": 148.8860690625,
          "velocity": 0.937007874015748
        },
        {
          "duration": 0.2083331249999958,
          "durationTicks": 52,
          "midi": 74,
          "name": "D5",
          "ticks": 37250,
          "time": 149.2386328125,
          "velocity": 0.937007874015748
        },
        {
          "duration": 0.21634593749999453,
          "durationTicks": 54,
          "midi": 75,
          "name": "D#5",
          "ticks": 37296,
          "time": 149.4229275,
          "velocity": 0.937007874015748
        },
        {
          "duration": 1.1298065624999936,
          "durationTicks": 282,
          "midi": 77,
          "name": "F5",
          "ticks": 37354,
          "time": 149.6552990625,
          "velocity": 0.937007874015748
        },
        {
          "duration": 0.2804484375000129,
          "durationTicks": 70,
          "midi": 72,
          "name": "C5",
          "ticks": 37638,
          "time": 150.7931184375,
          "velocity": 0.937007874015748
        },
        {
          "duration": 0.23237156250002045,
          "durationTicks": 58,
          "midi": 77,
          "name": "F5",
          "ticks": 37718,
          "time": 151.11363093749998,
          "velocity": 0.937007874015748
        },
        {
          "duration": 0.14423062500000583,
          "durationTicks": 36,
          "midi": 79,
          "name": "G5",
          "ticks": 37776,
          "time": 151.3460025,
          "velocity": 0.9291338582677166
        },
        {
          "duration": 0.11217937500001085,
          "durationTicks": 28,
          "midi": 80,
          "name": "G#5",
          "ticks": 37832,
          "time": 151.57036125,
          "velocity": 0.937007874015748
        },
        {
          "duration": 0.08814093750001462,
          "durationTicks": 22,
          "midi": 82,
          "name": "A#5",
          "ticks": 37872,
          "time": 151.7306175,
          "velocity": 0.937007874015748
        },
        {
          "duration": 1.2499987500000032,
          "durationTicks": 312,
          "midi": 82,
          "name": "A#5",
          "ticks": 37916,
          "time": 151.906899375,
          "velocity": 0.937007874015748
        },
        {
          "duration": 0.12820499999997992,
          "durationTicks": 32,
          "midi": 80,
          "name": "G#5",
          "ticks": 38224,
          "time": 153.1408725,
          "velocity": 0.937007874015748
        },
        {
          "duration": 0.16826906250000206,
          "durationTicks": 42,
          "midi": 82,
          "name": "A#5",
          "ticks": 38258,
          "time": 153.27709031249998,
          "velocity": 0.937007874015748
        },
        {
          "duration": 0.1201921875000096,
          "durationTicks": 30,
          "midi": 80,
          "name": "G#5",
          "ticks": 38292,
          "time": 153.413308125,
          "velocity": 0.937007874015748
        },
        {
          "duration": 0.13621781250000708,
          "durationTicks": 34,
          "midi": 79,
          "name": "G5",
          "ticks": 38322,
          "time": 153.5335003125,
          "velocity": 0.937007874015748
        },
        {
          "duration": 0.1201921875000096,
          "durationTicks": 30,
          "midi": 80,
          "name": "G#5",
          "ticks": 38356,
          "time": 153.669718125,
          "velocity": 0.937007874015748
        },
        {
          "duration": 0.13621781250000708,
          "durationTicks": 34,
          "midi": 79,
          "name": "G5",
          "ticks": 38382,
          "time": 153.7738846875,
          "velocity": 0.937007874015748
        },
        {
          "duration": 0.11217937500001085,
          "durationTicks": 28,
          "midi": 77,
          "name": "F5",
          "ticks": 38414,
          "time": 153.9020896875,
          "velocity": 0.937007874015748
        },
        {
          "duration": 0.15224343750000457,
          "durationTicks": 38,
          "midi": 79,
          "name": "G5",
          "ticks": 38436,
          "time": 153.99023062499998,
          "velocity": 0.937007874015748
        },
        {
          "duration": 0.13621781250000708,
          "durationTicks": 34,
          "midi": 77,
          "name": "F5",
          "ticks": 38462,
          "time": 154.0943971875,
          "velocity": 0.937007874015748
        },
        {
          "duration": 0.13621781249997866,
          "durationTicks": 34,
          "midi": 75,
          "name": "D#5",
          "ticks": 38494,
          "time": 154.2226021875,
          "velocity": 0.937007874015748
        },
        {
          "duration": 0.1041665625000121,
          "durationTicks": 26,
          "midi": 77,
          "name": "F5",
          "ticks": 38528,
          "time": 154.35881999999998,
          "velocity": 0.937007874015748
        },
        {
          "duration": 0.12820499999997992,
          "durationTicks": 32,
          "midi": 75,
          "name": "D#5",
          "ticks": 38550,
          "time": 154.4469609375,
          "velocity": 0.937007874015748
        },
        {
          "duration": 0.08012812499998745,
          "durationTicks": 20,
          "midi": 74,
          "name": "D5",
          "ticks": 38578,
          "time": 154.5591403125,
          "velocity": 0.937007874015748
        },
        {
          "duration": 0.11217937500001085,
          "durationTicks": 28,
          "midi": 75,
          "name": "D#5",
          "ticks": 38598,
          "time": 154.6392684375,
          "velocity": 0.937007874015748
        },
        {
          "duration": 0.09615374999998494,
          "durationTicks": 24,
          "midi": 74,
          "name": "D5",
          "ticks": 38622,
          "time": 154.7354221875,
          "velocity": 0.937007874015748
        },
        {
          "duration": 0.16025625000000332,
          "durationTicks": 40,
          "midi": 72,
          "name": "C5",
          "ticks": 38648,
          "time": 154.83958875,
          "velocity": 0.937007874015748
        },
        {
          "duration": 0.7612171874999945,
          "durationTicks": 190,
          "midi": 70,
          "name": "A#4",
          "ticks": 38680,
          "time": 154.96779375,
          "velocity": 0.937007874015748
        },
        {
          "duration": 0.16025625000003174,
          "durationTicks": 40,
          "midi": 70,
          "name": "A#4",
          "ticks": 38942,
          "time": 156.01747218749998,
          "velocity": 0.937007874015748
        },
        {
          "duration": 0.20032031249999704,
          "durationTicks": 50,
          "midi": 72,
          "name": "C5",
          "ticks": 38986,
          "time": 156.1937540625,
          "velocity": 0.937007874015748
        },
        {
          "duration": 0.12820500000000834,
          "durationTicks": 32,
          "midi": 74,
          "name": "D5",
          "ticks": 39026,
          "time": 156.35401031249998,
          "velocity": 0.937007874015748
        },
        {
          "duration": 0.11217937500001085,
          "durationTicks": 28,
          "midi": 75,
          "name": "D#5",
          "ticks": 39066,
          "time": 156.51426656249998,
          "velocity": 0.937007874015748
        },
        {
          "duration": 0.15224343750000457,
          "durationTicks": 38,
          "midi": 77,
          "name": "F5",
          "ticks": 39102,
          "time": 156.6584971875,
          "velocity": 0.937007874015748
        },
        {
          "duration": 0.12019218749998117,
          "durationTicks": 30,
          "midi": 79,
          "name": "G5",
          "ticks": 39134,
          "time": 156.7867021875,
          "velocity": 0.937007874015748
        },
        {
          "duration": 0.12820499999997992,
          "durationTicks": 32,
          "midi": 80,
          "name": "G#5",
          "ticks": 39168,
          "time": 156.92292,
          "velocity": 0.937007874015748
        },
        {
          "duration": 0.5208328125000037,
          "durationTicks": 130,
          "midi": 82,
          "name": "A#5",
          "ticks": 39198,
          "time": 157.0431121875,
          "velocity": 0.937007874015748
        },
        {
          "duration": 0.1041665625000121,
          "durationTicks": 26,
          "midi": 70,
          "name": "A#4",
          "ticks": 39326,
          "time": 157.5559321875,
          "velocity": 0.937007874015748
        },
        {
          "duration": 0.18429468749999955,
          "durationTicks": 46,
          "midi": 72,
          "name": "C5",
          "ticks": 39358,
          "time": 157.6841371875,
          "velocity": 0.937007874015748
        },
        {
          "duration": 0.12820499999997992,
          "durationTicks": 32,
          "midi": 74,
          "name": "D5",
          "ticks": 39396,
          "time": 157.836380625,
          "velocity": 0.937007874015748
        },
        {
          "duration": 0.1201921875000096,
          "durationTicks": 30,
          "midi": 75,
          "name": "D#5",
          "ticks": 39432,
          "time": 157.98061124999998,
          "velocity": 0.937007874015748
        },
        {
          "duration": 0.18429468749999955,
          "durationTicks": 46,
          "midi": 77,
          "name": "F5",
          "ticks": 39466,
          "time": 158.1168290625,
          "velocity": 0.937007874015748
        },
        {
          "duration": 0.12820499999997992,
          "durationTicks": 32,
          "midi": 79,
          "name": "G5",
          "ticks": 39504,
          "time": 158.2690725,
          "velocity": 0.937007874015748
        },
        {
          "duration": 0.12019218749998117,
          "durationTicks": 30,
          "midi": 80,
          "name": "G#5",
          "ticks": 39542,
          "time": 158.4213159375,
          "velocity": 0.937007874015748
        },
        {
          "duration": 1.4423062500000015,
          "durationTicks": 360,
          "midi": 82,
          "name": "A#5",
          "ticks": 39576,
          "time": 158.55753375,
          "velocity": 0.937007874015748
        },
        {
          "duration": 0.1762818749999724,
          "durationTicks": 44,
          "midi": 74,
          "name": "D5",
          "ticks": 39936,
          "time": 159.99984,
          "velocity": 0.937007874015748
        },
        {
          "duration": 0.1923074999999983,
          "durationTicks": 48,
          "midi": 75,
          "name": "D#5",
          "ticks": 39984,
          "time": 160.1921475,
          "velocity": 0.937007874015748
        },
        {
          "duration": 0.36057656250000036,
          "durationTicks": 90,
          "midi": 72,
          "name": "C5",
          "ticks": 40032,
          "time": 160.384455,
          "velocity": 0.937007874015748
        },
        {
          "duration": 0.1923074999999983,
          "durationTicks": 48,
          "midi": 74,
          "name": "D5",
          "ticks": 40128,
          "time": 160.76907,
          "velocity": 0.937007874015748
        },
        {
          "duration": 0.24038437499999077,
          "durationTicks": 60,
          "midi": 75,
          "name": "D#5",
          "ticks": 40170,
          "time": 160.9373390625,
          "velocity": 0.937007874015748
        },
        {
          "duration": 0.4166662499999916,
          "durationTicks": 104,
          "midi": 72,
          "name": "C5",
          "ticks": 40228,
          "time": 161.169710625,
          "velocity": 0.937007874015748
        },
        {
          "duration": 0.1923074999999983,
          "durationTicks": 48,
          "midi": 74,
          "name": "D5",
          "ticks": 40318,
          "time": 161.5302871875,
          "velocity": 0.937007874015748
        },
        {
          "duration": 0.2083331249999958,
          "durationTicks": 52,
          "midi": 75,
          "name": "D#5",
          "ticks": 40362,
          "time": 161.7065690625,
          "velocity": 0.937007874015748
        },
        {
          "duration": 1.0576912499999764,
          "durationTicks": 264,
          "midi": 77,
          "name": "F5",
          "ticks": 40420,
          "time": 161.93894062500001,
          "velocity": 0.937007874015748
        },
        {
          "duration": 0.3124996875000079,
          "durationTicks": 78,
          "midi": 65,
          "name": "F4",
          "ticks": 40686,
          "time": 163.0046446875,
          "velocity": 0.937007874015748
        },
        {
          "duration": 0.24839718750001794,
          "durationTicks": 62,
          "midi": 67,
          "name": "G4",
          "ticks": 40748,
          "time": 163.25304187499998,
          "velocity": 0.937007874015748
        },
        {
          "duration": 0.6570506249999823,
          "durationTicks": 164,
          "midi": 68,
          "name": "G#4",
          "ticks": 40812,
          "time": 163.509451875,
          "velocity": 0.937007874015748
        },
        {
          "duration": 0.8092940625000153,
          "durationTicks": 202,
          "midi": 77,
          "name": "F5",
          "ticks": 40982,
          "time": 164.19054093749997,
          "velocity": 0.937007874015748
        },
        {
          "duration": 1.0336528125000086,
          "durationTicks": 258,
          "midi": 68,
          "name": "G#4",
          "ticks": 41182,
          "time": 164.9918221875,
          "velocity": 0.937007874015748
        },
        {
          "duration": 0.16025625000003174,
          "durationTicks": 40,
          "midi": 73,
          "name": "C#5",
          "ticks": 41438,
          "time": 166.01746218749997,
          "velocity": 0.937007874015748
        },
        {
          "duration": 0.22435874999999328,
          "durationTicks": 56,
          "midi": 73,
          "name": "C#5",
          "ticks": 41496,
          "time": 166.24983375,
          "velocity": 0.937007874015748
        },
        {
          "duration": 0.7051275000000032,
          "durationTicks": 176,
          "midi": 73,
          "name": "C#5",
          "ticks": 41576,
          "time": 166.57034625,
          "velocity": 0.937007874015748
        },
        {
          "duration": 0.5689096875000246,
          "durationTicks": 142,
          "midi": 61,
          "name": "C#4",
          "ticks": 41756,
          "time": 167.29149937499997,
          "velocity": 0.937007874015748
        },
        {
          "duration": 0.2800321874999838,
          "durationTicks": 138,
          "midi": 53,
          "name": "F3",
          "ticks": 57312,
          "time": 228.66610500000002,
          "velocity": 0.9212598425196851
        },
        {
          "duration": 0.25973999999999364,
          "durationTicks": 128,
          "midi": 45,
          "name": "A2",
          "ticks": 57440,
          "time": 228.925845,
          "velocity": 0.9212598425196851
        },
        {
          "duration": 0.24756468749998817,
          "durationTicks": 122,
          "midi": 46,
          "name": "A#2",
          "ticks": 57568,
          "time": 229.185585,
          "velocity": 0.905511811023622
        },
        {
          "duration": 0.25162312500000894,
          "durationTicks": 124,
          "midi": 47,
          "name": "B2",
          "ticks": 57696,
          "time": 229.445325,
          "velocity": 0.9133858267716536
        },
        {
          "duration": 0.15422062500002198,
          "durationTicks": 76,
          "midi": 48,
          "name": "C3",
          "ticks": 57824,
          "time": 229.705065,
          "velocity": 0.905511811023622
        },
        {
          "duration": 0.13392843750000338,
          "durationTicks": 66,
          "midi": 50,
          "name": "D3",
          "ticks": 57888,
          "time": 229.834935,
          "velocity": 0.889763779527559
        },
        {
          "duration": 0.1785712500000045,
          "durationTicks": 88,
          "midi": 52,
          "name": "E3",
          "ticks": 57952,
          "time": 229.964805,
          "velocity": 0.9133858267716536
        },
        {
          "duration": 0.0852271875000099,
          "durationTicks": 42,
          "midi": 53,
          "name": "F3",
          "ticks": 58016,
          "time": 230.094675,
          "velocity": 0.905511811023622
        },
        {
          "duration": 0.27597374999999147,
          "durationTicks": 136,
          "midi": 53,
          "name": "F3",
          "ticks": 58080,
          "time": 230.224545,
          "velocity": 0.905511811023622
        },
        {
          "duration": 0.30438281249999477,
          "durationTicks": 150,
          "midi": 45,
          "name": "A2",
          "ticks": 58208,
          "time": 230.484285,
          "velocity": 0.905511811023622
        },
        {
          "duration": 0.2475646875000166,
          "durationTicks": 122,
          "midi": 46,
          "name": "A#2",
          "ticks": 58336,
          "time": 230.744025,
          "velocity": 0.905511811023622
        },
        {
          "duration": 0.16639593749999904,
          "durationTicks": 82,
          "midi": 47,
          "name": "B2",
          "ticks": 58464,
          "time": 231.00376500000002,
          "velocity": 0.8976377952755905
        },
        {
          "duration": 0.10551937500000008,
          "durationTicks": 52,
          "midi": 48,
          "name": "C3",
          "ticks": 58528,
          "time": 231.133635,
          "velocity": 0.8661417322834646
        },
        {
          "duration": 0.13798687499999573,
          "durationTicks": 68,
          "midi": 50,
          "name": "D3",
          "ticks": 58592,
          "time": 231.263505,
          "velocity": 0.9133858267716536
        },
        {
          "duration": 0.33279187499999807,
          "durationTicks": 164,
          "midi": 48,
          "name": "C3",
          "ticks": 58656,
          "time": 231.393375,
          "velocity": 0.9212598425196851
        },
        {
          "duration": 0.28003218750001224,
          "durationTicks": 138,
          "midi": 53,
          "name": "F3",
          "ticks": 58848,
          "time": 231.782985,
          "velocity": 0.8976377952755905
        },
        {
          "duration": 0.23944781249997504,
          "durationTicks": 118,
          "midi": 45,
          "name": "A2",
          "ticks": 58976,
          "time": 232.04272500000002,
          "velocity": 0.8976377952755905
        },
        {
          "duration": 0.26785687499997834,
          "durationTicks": 132,
          "midi": 46,
          "name": "A#2",
          "ticks": 59104,
          "time": 232.302465,
          "velocity": 0.905511811023622
        },
        {
          "duration": 0.28003218750001224,
          "durationTicks": 138,
          "midi": 47,
          "name": "B2",
          "ticks": 59232,
          "time": 232.562205,
          "velocity": 0.905511811023622
        },
        {
          "duration": 0.17451281250001216,
          "durationTicks": 86,
          "midi": 48,
          "name": "C3",
          "ticks": 59360,
          "time": 232.821945,
          "velocity": 0.889763779527559
        },
        {
          "duration": 0.13392843750000338,
          "durationTicks": 66,
          "midi": 50,
          "name": "D3",
          "ticks": 59424,
          "time": 232.951815,
          "velocity": 0.8976377952755905
        },
        {
          "duration": 0.18262968750002528,
          "durationTicks": 90,
          "midi": 52,
          "name": "E3",
          "ticks": 59488,
          "time": 233.081685,
          "velocity": 0.889763779527559
        },
        {
          "duration": 0.09740249999998696,
          "durationTicks": 48,
          "midi": 53,
          "name": "F3",
          "ticks": 59552,
          "time": 233.211555,
          "velocity": 0.8818897637795275
        },
        {
          "duration": 0.2556815625000013,
          "durationTicks": 126,
          "midi": 55,
          "name": "G3",
          "ticks": 59616,
          "time": 233.34142500000002,
          "velocity": 0.9212598425196851
        },
        {
          "duration": 0.3206165624999926,
          "durationTicks": 158,
          "midi": 47,
          "name": "B2",
          "ticks": 59744,
          "time": 233.601165,
          "velocity": 0.905511811023622
        },
        {
          "duration": 0.2191556250000133,
          "durationTicks": 108,
          "midi": 48,
          "name": "C3",
          "ticks": 59872,
          "time": 233.860905,
          "velocity": 0.8582677165354331
        },
        {
          "duration": 0.15422062500002198,
          "durationTicks": 76,
          "midi": 49,
          "name": "C#3",
          "ticks": 60000,
          "time": 234.120645,
          "velocity": 0.8661417322834646
        },
        {
          "duration": 0.1704543750000198,
          "durationTicks": 84,
          "midi": 50,
          "name": "D3",
          "ticks": 60096,
          "time": 234.31545,
          "velocity": 0.9133858267716536
        },
        {
          "duration": 0.09740249999998696,
          "durationTicks": 48,
          "midi": 52,
          "name": "E3",
          "ticks": 60160,
          "time": 234.44532,
          "velocity": 0.8818897637795275
        },
        {
          "duration": 0.3652593749999937,
          "durationTicks": 180,
          "midi": 50,
          "name": "D3",
          "ticks": 60192,
          "time": 234.510255,
          "velocity": 0.84251968503937
        },
        {
          "duration": 2.366069062500003,
          "durationTicks": 1166,
          "midi": 43,
          "name": "G2",
          "ticks": 60384,
          "time": 234.899865,
          "velocity": 0.9212598425196851
        },
        {
          "duration": 3.112821562499988,
          "durationTicks": 1534,
          "midi": 48,
          "name": "C3",
          "ticks": 60384,
          "time": 234.899865,
          "velocity": 0.905511811023622
        },
        {
          "duration": 0.750810937500006,
          "durationTicks": 370,
          "midi": 41,
          "name": "F2",
          "ticks": 61536,
          "time": 237.237525,
          "velocity": 0.905511811023622
        },
        {
          "duration": 1.5137971874999891,
          "durationTicks": 746,
          "midi": 43,
          "name": "G2",
          "ticks": 61920,
          "time": 238.01674500000001,
          "velocity": 0.8661417322834646
        },
        {
          "duration": 0.020292187499990177,
          "durationTicks": 10,
          "midi": 48,
          "name": "C3",
          "ticks": 61920,
          "time": 238.01674500000001,
          "velocity": 0.9212598425196851
        },
        {
          "duration": 0.16639593749999904,
          "durationTicks": 82,
          "midi": 43,
          "name": "G2",
          "ticks": 62688,
          "time": 239.575185,
          "velocity": 0.8818897637795275
        },
        {
          "duration": 0.11363624999998478,
          "durationTicks": 56,
          "midi": 46,
          "name": "A#2",
          "ticks": 62752,
          "time": 239.70505500000002,
          "velocity": 0.8976377952755905
        },
        {
          "duration": 0.09740250000001538,
          "durationTicks": 48,
          "midi": 48,
          "name": "C3",
          "ticks": 62816,
          "time": 239.834925,
          "velocity": 0.905511811023622
        },
        {
          "duration": 0.14610374999998044,
          "durationTicks": 72,
          "midi": 48,
          "name": "C3",
          "ticks": 62880,
          "time": 239.964795,
          "velocity": 0.905511811023622
        },
        {
          "duration": 0.10551937500000008,
          "durationTicks": 52,
          "midi": 46,
          "name": "A#2",
          "ticks": 62944,
          "time": 240.094665,
          "velocity": 0.889763779527559
        },
        {
          "duration": 0.9293821875000106,
          "durationTicks": 458,
          "midi": 51,
          "name": "D#3",
          "ticks": 63008,
          "time": 240.224535,
          "velocity": 0.905511811023622
        },
        {
          "duration": 2.2727250000000083,
          "durationTicks": 1120,
          "midi": 43,
          "name": "G2",
          "ticks": 63456,
          "time": 241.133625,
          "velocity": 0.937007874015748
        },
        {
          "duration": 3.185873437500021,
          "durationTicks": 1570,
          "midi": 48,
          "name": "C3",
          "ticks": 63456,
          "time": 241.133625,
          "velocity": 0.9212598425196851
        },
        {
          "duration": 0.7305187500000159,
          "durationTicks": 360,
          "midi": 41,
          "name": "F2",
          "ticks": 64608,
          "time": 243.471285,
          "velocity": 0.905511811023622
        },
        {
          "duration": 1.5381478125,
          "durationTicks": 758,
          "midi": 46,
          "name": "A#2",
          "ticks": 64992,
          "time": 244.250505,
          "velocity": 0.9133858267716536
        },
        {
          "duration": 1.5503231250000056,
          "durationTicks": 764,
          "midi": 53,
          "name": "F3",
          "ticks": 64992,
          "time": 244.250505,
          "velocity": 0.9133858267716536
        },
        {
          "duration": 1.4975634375000197,
          "durationTicks": 738,
          "midi": 43,
          "name": "G2",
          "ticks": 65760,
          "time": 245.808945,
          "velocity": 0.8976377952755905
        },
        {
          "duration": 1.599024374999999,
          "durationTicks": 788,
          "midi": 50,
          "name": "D3",
          "ticks": 65760,
          "time": 245.808945,
          "velocity": 0.9212598425196851
        },
        {
          "duration": 1.6030828124999914,
          "durationTicks": 790,
          "midi": 48,
          "name": "C3",
          "ticks": 66528,
          "time": 247.367385,
          "velocity": 0.8976377952755905
        },
        {
          "duration": 1.4772712500000011,
          "durationTicks": 728,
          "midi": 43,
          "name": "G2",
          "ticks": 67296,
          "time": 248.925825,
          "velocity": 0.9212598425196851
        },
        {
          "duration": 1.5259724999999946,
          "durationTicks": 752,
          "midi": 46,
          "name": "A#2",
          "ticks": 67296,
          "time": 248.925825,
          "velocity": 0.8976377952755905
        },
        {
          "duration": 1.51785562500001,
          "durationTicks": 748,
          "midi": 43,
          "name": "G2",
          "ticks": 68064,
          "time": 250.484265,
          "velocity": 0.8976377952755905
        },
        {
          "duration": 1.5706153125000242,
          "durationTicks": 774,
          "midi": 48,
          "name": "C3",
          "ticks": 68064,
          "time": 250.484265,
          "velocity": 0.8818897637795275
        },
        {
          "duration": 0.7345771875000082,
          "durationTicks": 362,
          "midi": 43,
          "name": "G2",
          "ticks": 68832,
          "time": 252.042705,
          "velocity": 0.8818897637795275
        },
        {
          "duration": 0.7792199999999809,
          "durationTicks": 384,
          "midi": 46,
          "name": "A#2",
          "ticks": 68832,
          "time": 252.042705,
          "velocity": 0.905511811023622
        },
        {
          "duration": 0.7102265625000257,
          "durationTicks": 350,
          "midi": 43,
          "name": "G2",
          "ticks": 69216,
          "time": 252.821925,
          "velocity": 0.9212598425196851
        },
        {
          "duration": 0.7995121874999995,
          "durationTicks": 394,
          "midi": 48,
          "name": "C3",
          "ticks": 69216,
          "time": 252.821925,
          "velocity": 0.8818897637795275
        },
        {
          "duration": 1.554381562499998,
          "durationTicks": 766,
          "midi": 43,
          "name": "G2",
          "ticks": 69600,
          "time": 253.601145,
          "velocity": 0.889763779527559
        },
        {
          "duration": 0.7832784375000017,
          "durationTicks": 386,
          "midi": 46,
          "name": "A#2",
          "ticks": 69600,
          "time": 253.601145,
          "velocity": 0.905511811023622
        },
        {
          "duration": 0.7995121874999995,
          "durationTicks": 394,
          "midi": 48,
          "name": "C3",
          "ticks": 69984,
          "time": 254.380365,
          "velocity": 0.8582677165354331
        },
        {
          "duration": 0.25162312500000894,
          "durationTicks": 124,
          "midi": 53,
          "name": "F3",
          "ticks": 70368,
          "time": 255.159585,
          "velocity": 0.905511811023622
        },
        {
          "duration": 0.2516231249999805,
          "durationTicks": 124,
          "midi": 45,
          "name": "A2",
          "ticks": 70496,
          "time": 255.41932500000001,
          "velocity": 0.9133858267716536
        },
        {
          "duration": 0.25162312500000894,
          "durationTicks": 124,
          "midi": 46,
          "name": "A#2",
          "ticks": 70624,
          "time": 255.679065,
          "velocity": 0.8976377952755905
        },
        {
          "duration": 0.2922075000000177,
          "durationTicks": 144,
          "midi": 47,
          "name": "B2",
          "ticks": 70752,
          "time": 255.938805,
          "velocity": 0.9212598425196851
        },
        {
          "duration": 0.16233749999997826,
          "durationTicks": 80,
          "midi": 48,
          "name": "C3",
          "ticks": 70880,
          "time": 256.198545,
          "velocity": 0.8661417322834646
        },
        {
          "duration": 0.13392843750000338,
          "durationTicks": 66,
          "midi": 50,
          "name": "D3",
          "ticks": 70944,
          "time": 256.328415,
          "velocity": 0.8818897637795275
        },
        {
          "duration": 0.17451281250004058,
          "durationTicks": 86,
          "midi": 52,
          "name": "E3",
          "ticks": 71008,
          "time": 256.458285,
          "velocity": 0.8976377952755905
        },
        {
          "duration": 0.09334406249996618,
          "durationTicks": 46,
          "midi": 53,
          "name": "F3",
          "ticks": 71072,
          "time": 256.58815500000003,
          "velocity": 0.905511811023622
        },
        {
          "duration": 0.2516231249999805,
          "durationTicks": 124,
          "midi": 53,
          "name": "F3",
          "ticks": 71136,
          "time": 256.718025,
          "velocity": 0.905511811023622
        },
        {
          "duration": 0.2719153124999707,
          "durationTicks": 134,
          "midi": 45,
          "name": "A2",
          "ticks": 71264,
          "time": 256.97776500000003,
          "velocity": 0.9133858267716536
        },
        {
          "duration": 0.2394478125000319,
          "durationTicks": 118,
          "midi": 46,
          "name": "A#2",
          "ticks": 71392,
          "time": 257.237505,
          "velocity": 0.8976377952755905
        },
        {
          "duration": 0.14204531249998809,
          "durationTicks": 70,
          "midi": 47,
          "name": "B2",
          "ticks": 71520,
          "time": 257.497245,
          "velocity": 0.8976377952755905
        },
        {
          "duration": 0.10957781249999243,
          "durationTicks": 54,
          "midi": 48,
          "name": "C3",
          "ticks": 71584,
          "time": 257.627115,
          "velocity": 0.8661417322834646
        },
        {
          "duration": 0.13798687500002416,
          "durationTicks": 68,
          "midi": 50,
          "name": "D3",
          "ticks": 71648,
          "time": 257.756985,
          "velocity": 0.9212598425196851
        },
        {
          "duration": 0.36120093749997295,
          "durationTicks": 178,
          "midi": 48,
          "name": "C3",
          "ticks": 71712,
          "time": 257.886855,
          "velocity": 0.9212598425196851
        },
        {
          "duration": 0.27597374999999147,
          "durationTicks": 136,
          "midi": 53,
          "name": "F3",
          "ticks": 71904,
          "time": 258.27646500000003,
          "velocity": 0.9212598425196851
        },
        {
          "duration": 0.26785687500000677,
          "durationTicks": 132,
          "midi": 45,
          "name": "A2",
          "ticks": 72032,
          "time": 258.536205,
          "velocity": 0.9212598425196851
        },
        {
          "duration": 0.24756468749995975,
          "durationTicks": 122,
          "midi": 46,
          "name": "A#2",
          "ticks": 72160,
          "time": 258.795945,
          "velocity": 0.905511811023622
        },
        {
          "duration": 0.27191531250002754,
          "durationTicks": 134,
          "midi": 47,
          "name": "B2",
          "ticks": 72288,
          "time": 259.055685,
          "velocity": 0.905511811023622
        },
        {
          "duration": 0.13392843750000338,
          "durationTicks": 66,
          "midi": 48,
          "name": "C3",
          "ticks": 72416,
          "time": 259.315425,
          "velocity": 0.8582677165354331
        },
        {
          "duration": 0.1136362500000132,
          "durationTicks": 56,
          "midi": 50,
          "name": "D3",
          "ticks": 72480,
          "time": 259.445295,
          "velocity": 0.8661417322834646
        },
        {
          "duration": 0.1988634374999947,
          "durationTicks": 98,
          "midi": 52,
          "name": "E3",
          "ticks": 72544,
          "time": 259.575165,
          "velocity": 0.8818897637795275
        },
        {
          "duration": 0.08928562500000226,
          "durationTicks": 44,
          "midi": 53,
          "name": "F3",
          "ticks": 72608,
          "time": 259.705035,
          "velocity": 0.8818897637795275
        },
        {
          "duration": 0.2516231249999805,
          "durationTicks": 124,
          "midi": 55,
          "name": "G3",
          "ticks": 72672,
          "time": 259.834905,
          "velocity": 0.9133858267716536
        },
        {
          "duration": 0.3287334374999773,
          "durationTicks": 162,
          "midi": 47,
          "name": "B2",
          "ticks": 72800,
          "time": 260.094645,
          "velocity": 0.9133858267716536
        },
        {
          "duration": 0.25162312500003736,
          "durationTicks": 124,
          "midi": 48,
          "name": "C3",
          "ticks": 72928,
          "time": 260.354385,
          "velocity": 0.889763779527559
        },
        {
          "duration": 0.23133093749999034,
          "durationTicks": 114,
          "midi": 50,
          "name": "D3",
          "ticks": 73056,
          "time": 260.614125,
          "velocity": 0.8976377952755905
        },
        {
          "duration": 0.12175312499999791,
          "durationTicks": 60,
          "midi": 51,
          "name": "D#3",
          "ticks": 73184,
          "time": 260.873865,
          "velocity": 0.8661417322834646
        },
        {
          "duration": 0.1298699999999826,
          "durationTicks": 64,
          "midi": 52,
          "name": "E3",
          "ticks": 73248,
          "time": 261.003735,
          "velocity": 0.905511811023622
        },
        {
          "duration": 0.09334406250002303,
          "durationTicks": 46,
          "midi": 53,
          "name": "F3",
          "ticks": 73312,
          "time": 261.133605,
          "velocity": 0.8582677165354331
        },
        {
          "duration": 0.12175312499999791,
          "durationTicks": 60,
          "midi": 55,
          "name": "G3",
          "ticks": 73376,
          "time": 261.263475,
          "velocity": 0.8976377952755905
        },
        {
          "duration": 0.1704543750000198,
          "durationTicks": 84,
          "midi": 54,
          "name": "F#3",
          "ticks": 73440,
          "time": 261.393345,
          "velocity": 0.8976377952755905
        },
        {
          "duration": 0.13392843750000338,
          "durationTicks": 66,
          "midi": 56,
          "name": "G#3",
          "ticks": 73504,
          "time": 261.523215,
          "velocity": 0.889763779527559
        },
        {
          "duration": 0.10957781249999243,
          "durationTicks": 54,
          "midi": 58,
          "name": "A#3",
          "ticks": 73568,
          "time": 261.65308500000003,
          "velocity": 0.905511811023622
        },
        {
          "duration": 0.13798687500002416,
          "durationTicks": 68,
          "midi": 56,
          "name": "G#3",
          "ticks": 73696,
          "time": 261.912825,
          "velocity": 0.8976377952755905
        },
        {
          "duration": 0.14204531250004493,
          "durationTicks": 70,
          "midi": 58,
          "name": "A#3",
          "ticks": 73760,
          "time": 262.042695,
          "velocity": 0.8818897637795275
        },
        {
          "duration": 0.15422062499999356,
          "durationTicks": 76,
          "midi": 60,
          "name": "C4",
          "ticks": 73824,
          "time": 262.172565,
          "velocity": 0.9133858267716536
        },
        {
          "duration": 0.11769468749997714,
          "durationTicks": 58,
          "midi": 58,
          "name": "A#3",
          "ticks": 74016,
          "time": 262.562175,
          "velocity": 0.8976377952755905
        },
        {
          "duration": 0.16639593749999904,
          "durationTicks": 82,
          "midi": 60,
          "name": "C4",
          "ticks": 74080,
          "time": 262.692045,
          "velocity": 0.889763779527559
        },
        {
          "duration": 0.07711031249999678,
          "durationTicks": 38,
          "midi": 62,
          "name": "D4",
          "ticks": 74144,
          "time": 262.821915,
          "velocity": 0.8818897637795275
        },
        {
          "duration": 0.0649349999999913,
          "durationTicks": 32,
          "midi": 47,
          "name": "B2",
          "ticks": 74208,
          "time": 262.95178500000003,
          "velocity": 0.905511811023622
        },
        {
          "duration": 0.0649349999999913,
          "durationTicks": 32,
          "midi": 49,
          "name": "C#3",
          "ticks": 74240,
          "time": 263.01672,
          "velocity": 0.8582677165354331
        },
        {
          "duration": 0.0649349999999913,
          "durationTicks": 32,
          "midi": 51,
          "name": "D#3",
          "ticks": 74272,
          "time": 263.081655,
          "velocity": 0.8582677165354331
        },
        {
          "duration": 0.0649349999999913,
          "durationTicks": 32,
          "midi": 49,
          "name": "C#3",
          "ticks": 74304,
          "time": 263.14659,
          "velocity": 0.8661417322834646
        },
        {
          "duration": 0.0649349999999913,
          "durationTicks": 32,
          "midi": 51,
          "name": "D#3",
          "ticks": 74336,
          "time": 263.211525,
          "velocity": 0.8740157480314961
        },
        {
          "duration": 0.06493500000004815,
          "durationTicks": 32,
          "midi": 54,
          "name": "F#3",
          "ticks": 74368,
          "time": 263.27646,
          "velocity": 0.8818897637795275
        },
        {
          "duration": 0.0649349999999913,
          "durationTicks": 32,
          "midi": 51,
          "name": "D#3",
          "ticks": 74400,
          "time": 263.34139500000003,
          "velocity": 0.8818897637795275
        },
        {
          "duration": 0.0649349999999913,
          "durationTicks": 32,
          "midi": 54,
          "name": "F#3",
          "ticks": 74432,
          "time": 263.40633,
          "velocity": 0.8818897637795275
        },
        {
          "duration": 0.0649349999999913,
          "durationTicks": 32,
          "midi": 52,
          "name": "E3",
          "ticks": 74464,
          "time": 263.471265,
          "velocity": 0.905511811023622
        },
        {
          "duration": 0.0649349999999913,
          "durationTicks": 32,
          "midi": 54,
          "name": "F#3",
          "ticks": 74496,
          "time": 263.5362,
          "velocity": 0.8818897637795275
        },
        {
          "duration": 0.0649349999999913,
          "durationTicks": 32,
          "midi": 54,
          "name": "F#3",
          "ticks": 74528,
          "time": 263.601135,
          "velocity": 0.889763779527559
        },
        {
          "duration": 0.0974025000000438,
          "durationTicks": 48,
          "midi": 56,
          "name": "G#3",
          "ticks": 74560,
          "time": 263.66607,
          "velocity": 0.905511811023622
        },
        {
          "duration": 0.06493500000004815,
          "durationTicks": 32,
          "midi": 58,
          "name": "A#3",
          "ticks": 74592,
          "time": 263.731005,
          "velocity": 0.8976377952755905
        },
        {
          "duration": 0.0649349999999913,
          "durationTicks": 32,
          "midi": 58,
          "name": "A#3",
          "ticks": 74624,
          "time": 263.79594000000003,
          "velocity": 0.889763779527559
        },
        {
          "duration": 0.08522718749998148,
          "durationTicks": 42,
          "midi": 56,
          "name": "G#3",
          "ticks": 74656,
          "time": 263.860875,
          "velocity": 0.889763779527559
        },
        {
          "duration": 0.0649349999999913,
          "durationTicks": 32,
          "midi": 54,
          "name": "F#3",
          "ticks": 74688,
          "time": 263.92581,
          "velocity": 0.889763779527559
        },
        {
          "duration": 0.0649349999999913,
          "durationTicks": 32,
          "midi": 53,
          "name": "F3",
          "ticks": 74720,
          "time": 263.990745,
          "velocity": 0.889763779527559
        },
        {
          "duration": 0.09334406250002303,
          "durationTicks": 46,
          "midi": 56,
          "name": "G#3",
          "ticks": 74752,
          "time": 264.05568,
          "velocity": 0.889763779527559
        },
        {
          "duration": 0.06493500000004815,
          "durationTicks": 32,
          "midi": 58,
          "name": "A#3",
          "ticks": 74784,
          "time": 264.120615,
          "velocity": 0.8976377952755905
        },
        {
          "duration": 0.07305187499997601,
          "durationTicks": 36,
          "midi": 59,
          "name": "B3",
          "ticks": 74816,
          "time": 264.18555000000003,
          "velocity": 0.905511811023622
        },
        {
          "duration": 0.07711031249999678,
          "durationTicks": 38,
          "midi": 61,
          "name": "C#4",
          "ticks": 74848,
          "time": 264.250485,
          "velocity": 0.905511811023622
        },
        {
          "duration": 0.0649349999999913,
          "durationTicks": 32,
          "midi": 62,
          "name": "D4",
          "ticks": 74880,
          "time": 264.31542,
          "velocity": 0.8976377952755905
        },
        {
          "duration": 0.1298699999999826,
          "durationTicks": 64,
          "midi": 63,
          "name": "D#4",
          "ticks": 74912,
          "time": 264.380355,
          "velocity": 0.8818897637795275
        },
        {
          "duration": 0.0649349999999913,
          "durationTicks": 32,
          "midi": 44,
          "name": "G#2",
          "ticks": 74976,
          "time": 264.510225,
          "velocity": 0.8976377952755905
        },
        {
          "duration": 0.0649349999999913,
          "durationTicks": 32,
          "midi": 46,
          "name": "A#2",
          "ticks": 75008,
          "time": 264.57516,
          "velocity": 0.937007874015748
        },
        {
          "duration": 0.06493500000004815,
          "durationTicks": 32,
          "midi": 48,
          "name": "C3",
          "ticks": 75040,
          "time": 264.640095,
          "velocity": 0.9448818897637795
        },
        {
          "duration": 0.0649349999999913,
          "durationTicks": 32,
          "midi": 46,
          "name": "A#2",
          "ticks": 75072,
          "time": 264.70503,
          "velocity": 0.9448818897637795
        },
        {
          "duration": 0.0649349999999913,
          "durationTicks": 32,
          "midi": 44,
          "name": "G#2",
          "ticks": 75104,
          "time": 264.769965,
          "velocity": 0.9448818897637795
        },
        {
          "duration": 0.0649349999999913,
          "durationTicks": 32,
          "midi": 46,
          "name": "A#2",
          "ticks": 75136,
          "time": 264.8349,
          "velocity": 0.9448818897637795
        },
        {
          "duration": 0.0649349999999913,
          "durationTicks": 32,
          "midi": 48,
          "name": "C3",
          "ticks": 75168,
          "time": 264.899835,
          "velocity": 0.9448818897637795
        },
        {
          "duration": 0.06493500000004815,
          "durationTicks": 32,
          "midi": 50,
          "name": "D3",
          "ticks": 75200,
          "time": 264.96477,
          "velocity": 0.9448818897637795
        },
        {
          "duration": 0.0649349999999913,
          "durationTicks": 32,
          "midi": 51,
          "name": "D#3",
          "ticks": 75232,
          "time": 265.02970500000004,
          "velocity": 0.9448818897637795
        },
        {
          "duration": 0.0649349999999913,
          "durationTicks": 32,
          "midi": 53,
          "name": "F3",
          "ticks": 75264,
          "time": 265.09464,
          "velocity": 0.9448818897637795
        },
        {
          "duration": 0.0649349999999913,
          "durationTicks": 32,
          "midi": 56,
          "name": "G#3",
          "ticks": 75296,
          "time": 265.159575,
          "velocity": 0.9448818897637795
        },
        {
          "duration": 0.0649349999999913,
          "durationTicks": 32,
          "midi": 55,
          "name": "G3",
          "ticks": 75328,
          "time": 265.22451,
          "velocity": 0.9448818897637795
        },
        {
          "duration": 0.0649349999999913,
          "durationTicks": 32,
          "midi": 56,
          "name": "G#3",
          "ticks": 75360,
          "time": 265.289445,
          "velocity": 0.9448818897637795
        },
        {
          "duration": 0.0649349999999913,
          "durationTicks": 32,
          "midi": 58,
          "name": "A#3",
          "ticks": 75392,
          "time": 265.35438,
          "velocity": 0.9448818897637795
        },
        {
          "duration": 0.0649349999999913,
          "durationTicks": 32,
          "midi": 60,
          "name": "C4",
          "ticks": 75424,
          "time": 265.419315,
          "velocity": 0.9448818897637795
        },
        {
          "duration": 0.06493500000004815,
          "durationTicks": 32,
          "midi": 62,
          "name": "D4",
          "ticks": 75456,
          "time": 265.48425,
          "velocity": 0.9448818897637795
        },
        {
          "duration": 0.0649349999999913,
          "durationTicks": 32,
          "midi": 63,
          "name": "D#4",
          "ticks": 75488,
          "time": 265.549185,
          "velocity": 0.9448818897637795
        },
        {
          "duration": 0.0649349999999913,
          "durationTicks": 32,
          "midi": 60,
          "name": "C4",
          "ticks": 75520,
          "time": 265.61412,
          "velocity": 0.9133858267716536
        },
        {
          "duration": 0.3896100000000047,
          "durationTicks": 192,
          "midi": 63,
          "name": "D#4",
          "ticks": 75552,
          "time": 265.679055,
          "velocity": 0.9448818897637795
        },
        {
          "duration": 0.07711031249999678,
          "durationTicks": 38,
          "midi": 46,
          "name": "A#2",
          "ticks": 75744,
          "time": 266.068665,
          "velocity": 0.8818897637795275
        },
        {
          "duration": 0.0649349999999913,
          "durationTicks": 32,
          "midi": 48,
          "name": "C3",
          "ticks": 75776,
          "time": 266.1336,
          "velocity": 0.8818897637795275
        },
        {
          "duration": 0.08928562500000226,
          "durationTicks": 44,
          "midi": 50,
          "name": "D3",
          "ticks": 75808,
          "time": 266.198535,
          "velocity": 0.8818897637795275
        },
        {
          "duration": 0.0974025000000438,
          "durationTicks": 48,
          "midi": 48,
          "name": "C3",
          "ticks": 75840,
          "time": 266.26347,
          "velocity": 0.889763779527559
        },
        {
          "duration": 0.07305187499997601,
          "durationTicks": 36,
          "midi": 50,
          "name": "D3",
          "ticks": 75872,
          "time": 266.32840500000003,
          "velocity": 0.889763779527559
        },
        {
          "duration": 0.0649349999999913,
          "durationTicks": 32,
          "midi": 51,
          "name": "D#3",
          "ticks": 75904,
          "time": 266.39334,
          "velocity": 0.889763779527559
        },
        {
          "duration": 0.0649349999999913,
          "durationTicks": 32,
          "midi": 50,
          "name": "D3",
          "ticks": 75936,
          "time": 266.458275,
          "velocity": 0.889763779527559
        },
        {
          "duration": 0.0649349999999913,
          "durationTicks": 32,
          "midi": 51,
          "name": "D#3",
          "ticks": 75968,
          "time": 266.52321,
          "velocity": 0.889763779527559
        },
        {
          "duration": 0.0649349999999913,
          "durationTicks": 32,
          "midi": 53,
          "name": "F3",
          "ticks": 76000,
          "time": 266.588145,
          "velocity": 0.8976377952755905
        },
        {
          "duration": 0.06493500000004815,
          "durationTicks": 32,
          "midi": 52,
          "name": "E3",
          "ticks": 76032,
          "time": 266.65308,
          "velocity": 0.8976377952755905
        },
        {
          "duration": 0.07711031249993994,
          "durationTicks": 38,
          "midi": 53,
          "name": "F3",
          "ticks": 76064,
          "time": 266.71801500000004,
          "velocity": 0.8976377952755905
        },
        {
          "duration": 0.0649349999999913,
          "durationTicks": 32,
          "midi": 55,
          "name": "G3",
          "ticks": 76096,
          "time": 266.78295,
          "velocity": 0.8976377952755905
        },
        {
          "duration": 0.0649349999999913,
          "durationTicks": 32,
          "midi": 53,
          "name": "F3",
          "ticks": 76128,
          "time": 266.847885,
          "velocity": 0.8976377952755905
        },
        {
          "duration": 0.08116875000001755,
          "durationTicks": 40,
          "midi": 56,
          "name": "G#3",
          "ticks": 76160,
          "time": 266.91282,
          "velocity": 0.905511811023622
        },
        {
          "duration": 0.06899343750001208,
          "durationTicks": 34,
          "midi": 55,
          "name": "G3",
          "ticks": 76192,
          "time": 266.977755,
          "velocity": 0.905511811023622
        },
        {
          "duration": 0.06899343750001208,
          "durationTicks": 34,
          "midi": 53,
          "name": "F3",
          "ticks": 76224,
          "time": 267.04269,
          "velocity": 0.905511811023622
        },
        {
          "duration": 0.060876562500027376,
          "durationTicks": 30,
          "midi": 55,
          "name": "G3",
          "ticks": 76256,
          "time": 267.107625,
          "velocity": 0.905511811023622
        },
        {
          "duration": 0.08116875000001755,
          "durationTicks": 40,
          "midi": 56,
          "name": "G#3",
          "ticks": 76288,
          "time": 267.17256,
          "velocity": 0.905511811023622
        },
        {
          "duration": 0.040584374999980355,
          "durationTicks": 20,
          "midi": 58,
          "name": "A#3",
          "ticks": 76320,
          "time": 267.237495,
          "velocity": 0.905511811023622
        },
        {
          "duration": 0.05275968749998583,
          "durationTicks": 26,
          "midi": 60,
          "name": "C4",
          "ticks": 76352,
          "time": 267.30243,
          "velocity": 0.9133858267716536
        },
        {
          "duration": 0.06899343750001208,
          "durationTicks": 34,
          "midi": 62,
          "name": "D4",
          "ticks": 76384,
          "time": 267.367365,
          "velocity": 0.9133858267716536
        },
        {
          "duration": 0.06899343750001208,
          "durationTicks": 34,
          "midi": 63,
          "name": "D#4",
          "ticks": 76416,
          "time": 267.4323,
          "velocity": 0.9133858267716536
        },
        {
          "duration": 0.04464281250000113,
          "durationTicks": 22,
          "midi": 62,
          "name": "D4",
          "ticks": 76448,
          "time": 267.497235,
          "velocity": 0.9133858267716536
        },
        {
          "duration": 0.06493500000004815,
          "durationTicks": 32,
          "midi": 60,
          "name": "C4",
          "ticks": 76480,
          "time": 267.56217,
          "velocity": 0.9133858267716536
        },
        {
          "duration": 0.0649349999999913,
          "durationTicks": 32,
          "midi": 62,
          "name": "D4",
          "ticks": 76512,
          "time": 267.62710500000003,
          "velocity": 0.9212598425196851
        },
        {
          "duration": 0.06087656249997053,
          "durationTicks": 30,
          "midi": 63,
          "name": "D#4",
          "ticks": 76544,
          "time": 267.69204,
          "velocity": 0.9212598425196851
        },
        {
          "duration": 0.0568181250000066,
          "durationTicks": 28,
          "midi": 65,
          "name": "F4",
          "ticks": 76576,
          "time": 267.756975,
          "velocity": 0.9212598425196851
        },
        {
          "duration": 0.07711031249999678,
          "durationTicks": 38,
          "midi": 67,
          "name": "G4",
          "ticks": 76608,
          "time": 267.82191,
          "velocity": 0.9212598425196851
        },
        {
          "duration": 0.07305187500003285,
          "durationTicks": 36,
          "midi": 68,
          "name": "G#4",
          "ticks": 76640,
          "time": 267.886845,
          "velocity": 0.9212598425196851
        },
        {
          "duration": 0.08522718750003833,
          "durationTicks": 42,
          "midi": 70,
          "name": "A#4",
          "ticks": 76672,
          "time": 267.95178,
          "velocity": 0.9212598425196851
        },
        {
          "duration": 0.0487012500000219,
          "durationTicks": 24,
          "midi": 68,
          "name": "G#4",
          "ticks": 76704,
          "time": 268.016715,
          "velocity": 0.9212598425196851
        },
        {
          "duration": 0.0568181250000066,
          "durationTicks": 28,
          "midi": 65,
          "name": "F4",
          "ticks": 76736,
          "time": 268.08165,
          "velocity": 0.9291338582677166
        },
        {
          "duration": 0.0568181250000066,
          "durationTicks": 28,
          "midi": 67,
          "name": "G4",
          "ticks": 76768,
          "time": 268.146585,
          "velocity": 0.9291338582677166
        },
        {
          "duration": 0.036525937500016425,
          "durationTicks": 18,
          "midi": 70,
          "name": "A#4",
          "ticks": 76800,
          "time": 268.21152,
          "velocity": 0.9291338582677166
        },
        {
          "duration": 0.0649349999999913,
          "durationTicks": 32,
          "midi": 72,
          "name": "C5",
          "ticks": 76832,
          "time": 268.276455,
          "velocity": 0.9291338582677166
        },
        {
          "duration": 0.07305187500003285,
          "durationTicks": 36,
          "midi": 74,
          "name": "D5",
          "ticks": 76864,
          "time": 268.34139,
          "velocity": 0.9291338582677166
        },
        {
          "duration": 3.1128215625000166,
          "durationTicks": 1534,
          "midi": 75,
          "name": "D#5",
          "ticks": 76896,
          "time": 268.406325,
          "velocity": 0.937007874015748
        },
        {
          "duration": 0.3044868749999523,
          "durationTicks": 76,
          "midi": 55,
          "name": "G3",
          "ticks": 78864,
          "time": 272.6845425,
          "velocity": 0.8031496062992126
        },
        {
          "duration": 0.18429468749997113,
          "durationTicks": 46,
          "midi": 58,
          "name": "A#3",
          "ticks": 78864,
          "time": 272.6845425,
          "velocity": 0.8503937007874016
        },
        {
          "duration": 0.12019218749998117,
          "durationTicks": 30,
          "midi": 58,
          "name": "A#3",
          "ticks": 78912,
          "time": 272.87685,
          "velocity": 0.7716535433070866
        },
        {
          "duration": 0.16025625000003174,
          "durationTicks": 40,
          "midi": 63,
          "name": "D#4",
          "ticks": 78918,
          "time": 272.9008884375,
          "velocity": 0.7874015748031497
        },
        {
          "duration": 0.040064062499993724,
          "durationTicks": 10,
          "midi": 63,
          "name": "D#4",
          "ticks": 78960,
          "time": 273.0691575,
          "velocity": 0.7401574803149606
        },
        {
          "duration": 0.1762818749999724,
          "durationTicks": 44,
          "midi": 67,
          "name": "G4",
          "ticks": 78962,
          "time": 273.0771703125,
          "velocity": 0.8267716535433071
        },
        {
          "duration": 0.056089687499991214,
          "durationTicks": 14,
          "midi": 67,
          "name": "G4",
          "ticks": 79008,
          "time": 273.261465,
          "velocity": 0.8188976377952756
        },
        {
          "duration": 1.0977553124999986,
          "durationTicks": 274,
          "midi": 70,
          "name": "A#4",
          "ticks": 79012,
          "time": 273.277490625,
          "velocity": 0.8346456692913385
        },
        {
          "duration": 0.2564100000000167,
          "durationTicks": 64,
          "midi": 53,
          "name": "F3",
          "ticks": 79248,
          "time": 274.2230025,
          "velocity": 0.8031496062992126
        },
        {
          "duration": 0.16826906249997364,
          "durationTicks": 42,
          "midi": 58,
          "name": "A#3",
          "ticks": 79252,
          "time": 274.239028125,
          "velocity": 0.84251968503937
        },
        {
          "duration": 0.12019218750003802,
          "durationTicks": 30,
          "midi": 58,
          "name": "A#3",
          "ticks": 79296,
          "time": 274.41531,
          "velocity": 0.7952755905511811
        },
        {
          "duration": 0.152243437500033,
          "durationTicks": 38,
          "midi": 62,
          "name": "D4",
          "ticks": 79304,
          "time": 274.44736125,
          "velocity": 0.8267716535433071
        },
        {
          "duration": 0.04807687499999247,
          "durationTicks": 12,
          "midi": 62,
          "name": "D4",
          "ticks": 79344,
          "time": 274.6076175,
          "velocity": 0.7952755905511811
        },
        {
          "duration": 0.16826906249997364,
          "durationTicks": 42,
          "midi": 65,
          "name": "F4",
          "ticks": 79348,
          "time": 274.623643125,
          "velocity": 0.8188976377952756
        },
        {
          "duration": 0.04006406250005057,
          "durationTicks": 10,
          "midi": 65,
          "name": "F4",
          "ticks": 79392,
          "time": 274.799925,
          "velocity": 0.8267716535433071
        },
        {
          "duration": 0.9455118750000224,
          "durationTicks": 236,
          "midi": 70,
          "name": "A#4",
          "ticks": 79392,
          "time": 274.799925,
          "velocity": 0.8188976377952756
        },
        {
          "duration": 0.2083331250000242,
          "durationTicks": 52,
          "midi": 60,
          "name": "C4",
          "ticks": 79626,
          "time": 275.7374240625,
          "velocity": 0.8188976377952756
        },
        {
          "duration": 0.30448687500000915,
          "durationTicks": 76,
          "midi": 55,
          "name": "G3",
          "ticks": 79632,
          "time": 275.7614625,
          "velocity": 0.8031496062992126
        },
        {
          "duration": 0.20032031249996862,
          "durationTicks": 50,
          "midi": 63,
          "name": "D#4",
          "ticks": 79676,
          "time": 275.937744375,
          "velocity": 0.7795275590551181
        },
        {
          "duration": 0.0721153124999887,
          "durationTicks": 18,
          "midi": 60,
          "name": "C4",
          "ticks": 79680,
          "time": 275.95377,
          "velocity": 0.8346456692913385
        },
        {
          "duration": 0.024038437499996235,
          "durationTicks": 6,
          "midi": 63,
          "name": "D#4",
          "ticks": 79728,
          "time": 276.1460775,
          "velocity": 0.7637795275590551
        },
        {
          "duration": 0.18429468750002798,
          "durationTicks": 46,
          "midi": 67,
          "name": "G4",
          "ticks": 79728,
          "time": 276.1460775,
          "velocity": 0.8031496062992126
        },
        {
          "duration": 1.209934687499981,
          "durationTicks": 302,
          "midi": 70,
          "name": "A#4",
          "ticks": 79774,
          "time": 276.3303721875,
          "velocity": 0.84251968503937
        },
        {
          "duration": 1.3461524999999597,
          "durationTicks": 336,
          "midi": 65,
          "name": "F4",
          "ticks": 79776,
          "time": 276.338385,
          "velocity": 0.8661417322834646
        }
      ]
    },
    {
      "channel": 0,
      "controlChanges": {
        "0": [
          {
            "number": 0,
            "ticks": 312,
            "time": 1.24999875,
            "value": 0
          }
        ],
        "32": [
          {
            "number": 32,
            "ticks": 314,
            "time": 1.2580115625,
            "value": 0
          }
        ],
        "121": [
          {
            "number": 121,
            "ticks": 184,
            "time": 0.73717875,
            "value": 0
          }
        ]
      },
      "pitchBends": [],
      "instrument": {
        "family": "piano",
        "number": 0,
        "name": "acoustic grand piano"
      },
      "name": "",
      "notes": [],
      "endOfTrackTicks": 92930
    },
    {
      "channel": 12,
      "controlChanges": {
        "7": [
          {
            "number": 7,
            "ticks": 318,
            "time": 1.2740371875,
            "value": 0.968503937007874
          }
        ],
        "10": [
          {
            "number": 10,
            "ticks": 318,
            "time": 1.2740371875,
            "value": 0.5039370078740157
          }
        ],
        "11": [
          {
            "number": 11,
            "ticks": 318,
            "time": 1.2740371875,
            "value": 0.8661417322834646
          }
        ],
        "91": [
          {
            "number": 91,
            "ticks": 320,
            "time": 1.28205,
            "value": 0.9921259842519685
          }
        ],
        "93": [
          {
            "number": 93,
            "ticks": 320,
            "time": 1.28205,
            "value": 0
          }
        ],
        "120": [
          {
            "number": 120,
            "ticks": 92928,
            "time": 329.03064,
            "value": 0
          }
        ],
        "123": [
          {
            "number": 123,
            "ticks": 92930,
            "time": 329.0386528125,
            "value": 0
          }
        ]
      },
      "pitchBends": [],
      "instrument": {
        "family": "ensemble",
        "number": 55,
        "name": "orchestra hit"
      },
      "name": "",
      "notes": [
        {
          "duration": 0.3124996875000079,
          "durationTicks": 78,
          "midi": 74,
          "name": "D5",
          "ticks": 47520,
          "time": 190.384425,
          "velocity": 0.968503937007874
        },
        {
          "duration": 0.0721153124999887,
          "durationTicks": 18,
          "midi": 72,
          "name": "C5",
          "ticks": 47616,
          "time": 190.76904,
          "velocity": 0.968503937007874
        },
        {
          "duration": 0.07211531250001713,
          "durationTicks": 18,
          "midi": 72,
          "name": "C5",
          "ticks": 47664,
          "time": 190.9613475,
          "velocity": 0.9606299212598425
        },
        {
          "duration": 0.12820500000000834,
          "durationTicks": 32,
          "midi": 71,
          "name": "B4",
          "ticks": 47712,
          "time": 191.153655,
          "velocity": 0.968503937007874
        },
        {
          "duration": 0.20032031249999704,
          "durationTicks": 50,
          "midi": 72,
          "name": "C5",
          "ticks": 47808,
          "time": 191.53826999999998,
          "velocity": 0.968503937007874
        },
        {
          "duration": 0.08814093750001462,
          "durationTicks": 22,
          "midi": 74,
          "name": "D5",
          "ticks": 47904,
          "time": 191.92288499999998,
          "velocity": 0.968503937007874
        },
        {
          "duration": 0.0881409374999862,
          "durationTicks": 22,
          "midi": 74,
          "name": "D5",
          "ticks": 47952,
          "time": 192.1151925,
          "velocity": 0.952755905511811
        },
        {
          "duration": 0.16025625000000332,
          "durationTicks": 40,
          "midi": 72,
          "name": "C5",
          "ticks": 48000,
          "time": 192.3075,
          "velocity": 0.9763779527559056
        },
        {
          "duration": 0.0721153124999887,
          "durationTicks": 18,
          "midi": 71,
          "name": "B4",
          "ticks": 48096,
          "time": 192.692115,
          "velocity": 0.9763779527559056
        },
        {
          "duration": 0.0881409374999862,
          "durationTicks": 22,
          "midi": 71,
          "name": "B4",
          "ticks": 48144,
          "time": 192.8844225,
          "velocity": 0.9763779527559056
        },
        {
          "duration": 0.16025625000000332,
          "durationTicks": 40,
          "midi": 72,
          "name": "C5",
          "ticks": 48192,
          "time": 193.07673,
          "velocity": 0.968503937007874
        },
        {
          "duration": 0.12820499999997992,
          "durationTicks": 32,
          "midi": 74,
          "name": "D5",
          "ticks": 48288,
          "time": 193.461345,
          "velocity": 0.9606299212598425
        },
        {
          "duration": 0.08814093750001462,
          "durationTicks": 22,
          "midi": 74,
          "name": "D5",
          "ticks": 48384,
          "time": 193.84596,
          "velocity": 0.968503937007874
        },
        {
          "duration": 0.09615375000001336,
          "durationTicks": 24,
          "midi": 76,
          "name": "E5",
          "ticks": 48432,
          "time": 194.0382675,
          "velocity": 0.9606299212598425
        },
        {
          "duration": 0.12820500000000834,
          "durationTicks": 32,
          "midi": 72,
          "name": "C5",
          "ticks": 48480,
          "time": 194.230575,
          "velocity": 0.9763779527559056
        },
        {
          "duration": 0.07211531250001713,
          "durationTicks": 18,
          "midi": 72,
          "name": "C5",
          "ticks": 48576,
          "time": 194.61518999999998,
          "velocity": 0.968503937007874
        },
        {
          "duration": 0.08814093750001462,
          "durationTicks": 22,
          "midi": 72,
          "name": "C5",
          "ticks": 48624,
          "time": 194.80749749999998,
          "velocity": 0.952755905511811
        },
        {
          "duration": 0.11217937500001085,
          "durationTicks": 28,
          "midi": 71,
          "name": "B4",
          "ticks": 48672,
          "time": 194.99980499999998,
          "velocity": 0.968503937007874
        },
        {
          "duration": 0.0721153124999887,
          "durationTicks": 18,
          "midi": 71,
          "name": "B4",
          "ticks": 48768,
          "time": 195.38442,
          "velocity": 0.968503937007874
        },
        {
          "duration": 0.0881409374999862,
          "durationTicks": 22,
          "midi": 71,
          "name": "B4",
          "ticks": 48816,
          "time": 195.5767275,
          "velocity": 0.9763779527559056
        },
        {
          "duration": 0.10416656249998368,
          "durationTicks": 26,
          "midi": 72,
          "name": "C5",
          "ticks": 48864,
          "time": 195.769035,
          "velocity": 0.968503937007874
        },
        {
          "duration": 0.2644228125000154,
          "durationTicks": 66,
          "midi": 60,
          "name": "C4",
          "ticks": 50112,
          "time": 200.76903,
          "velocity": 0.9606299212598425
        },
        {
          "duration": 0.2644228125000154,
          "durationTicks": 66,
          "midi": 72,
          "name": "C5",
          "ticks": 50112,
          "time": 200.76903,
          "velocity": 0.9763779527559056
        },
        {
          "duration": 0.2804484374999845,
          "durationTicks": 70,
          "midi": 65,
          "name": "F4",
          "ticks": 50210,
          "time": 201.1616578125,
          "velocity": 0.9763779527559056
        },
        {
          "duration": 0.2483971874999611,
          "durationTicks": 62,
          "midi": 77,
          "name": "F5",
          "ticks": 50210,
          "time": 201.1616578125,
          "velocity": 0.9606299212598425
        },
        {
          "duration": 0.24038437499999077,
          "durationTicks": 60,
          "midi": 60,
          "name": "C4",
          "ticks": 50308,
          "time": 201.55428562499998,
          "velocity": 0.9448818897637795
        },
        {
          "duration": 0.2083331249999958,
          "durationTicks": 52,
          "midi": 72,
          "name": "C5",
          "ticks": 50312,
          "time": 201.57031125,
          "velocity": 0.952755905511811
        },
        {
          "duration": 0.5208328125000037,
          "durationTicks": 130,
          "midi": 65,
          "name": "F4",
          "ticks": 50408,
          "time": 201.95492625,
          "velocity": 0.9763779527559056
        },
        {
          "duration": 0.5448712499999999,
          "durationTicks": 136,
          "midi": 77,
          "name": "F5",
          "ticks": 50408,
          "time": 201.95492625,
          "velocity": 0.968503937007874
        },
        {
          "duration": 0.11217937499998243,
          "durationTicks": 28,
          "midi": 65,
          "name": "F4",
          "ticks": 50838,
          "time": 203.67768093749999,
          "velocity": 0.968503937007874
        },
        {
          "duration": 0.1041665625000121,
          "durationTicks": 26,
          "midi": 77,
          "name": "F5",
          "ticks": 50838,
          "time": 203.67768093749999,
          "velocity": 0.9448818897637795
        },
        {
          "duration": 0.11217937499998243,
          "durationTicks": 28,
          "midi": 77,
          "name": "F5",
          "ticks": 50886,
          "time": 203.86998843749998,
          "velocity": 0.9448818897637795
        },
        {
          "duration": 0.10416656249995526,
          "durationTicks": 26,
          "midi": 65,
          "name": "F4",
          "ticks": 50888,
          "time": 203.87800125,
          "velocity": 0.952755905511811
        },
        {
          "duration": 0.4407046874999594,
          "durationTicks": 110,
          "midi": 77,
          "name": "F5",
          "ticks": 50936,
          "time": 204.07030875,
          "velocity": 0.968503937007874
        },
        {
          "duration": 0.41666624999996316,
          "durationTicks": 104,
          "midi": 65,
          "name": "F4",
          "ticks": 50942,
          "time": 204.0943471875,
          "velocity": 0.968503937007874
        },
        {
          "duration": 0.27243562500001417,
          "durationTicks": 68,
          "midi": 60,
          "name": "C4",
          "ticks": 51072,
          "time": 204.61517999999998,
          "velocity": 0.952755905511811
        },
        {
          "duration": 0.21634593749999453,
          "durationTicks": 54,
          "midi": 72,
          "name": "C5",
          "ticks": 51078,
          "time": 204.6392184375,
          "velocity": 0.968503937007874
        },
        {
          "duration": 0.23237156250004887,
          "durationTicks": 58,
          "midi": 65,
          "name": "F4",
          "ticks": 51178,
          "time": 205.03985906249997,
          "velocity": 0.9763779527559056
        },
        {
          "duration": 0.20032031250002547,
          "durationTicks": 50,
          "midi": 77,
          "name": "F5",
          "ticks": 51178,
          "time": 205.03985906249997,
          "velocity": 0.968503937007874
        },
        {
          "duration": 0.24839718750001794,
          "durationTicks": 62,
          "midi": 60,
          "name": "C4",
          "ticks": 51268,
          "time": 205.40043562499997,
          "velocity": 0.9606299212598425
        },
        {
          "duration": 0.21634593749999453,
          "durationTicks": 54,
          "midi": 72,
          "name": "C5",
          "ticks": 51268,
          "time": 205.40043562499997,
          "velocity": 0.9763779527559056
        },
        {
          "duration": 0.46474312500001247,
          "durationTicks": 116,
          "midi": 65,
          "name": "F4",
          "ticks": 51366,
          "time": 205.7930634375,
          "velocity": 0.968503937007874
        },
        {
          "duration": 0.44871749999998656,
          "durationTicks": 112,
          "midi": 77,
          "name": "F5",
          "ticks": 51366,
          "time": 205.7930634375,
          "velocity": 0.968503937007874
        },
        {
          "duration": 0.11217937499998243,
          "durationTicks": 28,
          "midi": 65,
          "name": "F4",
          "ticks": 51794,
          "time": 207.5078053125,
          "velocity": 0.9763779527559056
        },
        {
          "duration": 0.0721153124999887,
          "durationTicks": 18,
          "midi": 77,
          "name": "F5",
          "ticks": 51800,
          "time": 207.53184375,
          "velocity": 0.968503937007874
        },
        {
          "duration": 0.09615375000001336,
          "durationTicks": 24,
          "midi": 65,
          "name": "F4",
          "ticks": 51848,
          "time": 207.72415125,
          "velocity": 0.968503937007874
        },
        {
          "duration": 0.08012812499995903,
          "durationTicks": 20,
          "midi": 77,
          "name": "F5",
          "ticks": 51848,
          "time": 207.72415125,
          "velocity": 0.968503937007874
        },
        {
          "duration": 0.3525637499999732,
          "durationTicks": 88,
          "midi": 65,
          "name": "F4",
          "ticks": 51894,
          "time": 207.9084459375,
          "velocity": 0.9606299212598425
        },
        {
          "duration": 0.3525637499999732,
          "durationTicks": 88,
          "midi": 77,
          "name": "F5",
          "ticks": 51894,
          "time": 207.9084459375,
          "velocity": 0.9763779527559056
        },
        {
          "duration": 0.09615374999998494,
          "durationTicks": 24,
          "midi": 65,
          "name": "F4",
          "ticks": 52182,
          "time": 209.0622909375,
          "velocity": 0.9763779527559056
        },
        {
          "duration": 0.08012812500001587,
          "durationTicks": 20,
          "midi": 77,
          "name": "F5",
          "ticks": 52186,
          "time": 209.07831656249996,
          "velocity": 0.968503937007874
        },
        {
          "duration": 0.08814093750001462,
          "durationTicks": 22,
          "midi": 65,
          "name": "F4",
          "ticks": 52234,
          "time": 209.2706240625,
          "velocity": 0.9763779527559056
        },
        {
          "duration": 0.08012812500001587,
          "durationTicks": 20,
          "midi": 77,
          "name": "F5",
          "ticks": 52236,
          "time": 209.278636875,
          "velocity": 0.9763779527559056
        },
        {
          "duration": 0.1442306249999774,
          "durationTicks": 36,
          "midi": 65,
          "name": "F4",
          "ticks": 52282,
          "time": 209.4629315625,
          "velocity": 0.968503937007874
        },
        {
          "duration": 0.1442306249999774,
          "durationTicks": 36,
          "midi": 77,
          "name": "F5",
          "ticks": 52282,
          "time": 209.4629315625,
          "velocity": 0.9763779527559056
        },
        {
          "duration": 0.0881409374999862,
          "durationTicks": 22,
          "midi": 65,
          "name": "F4",
          "ticks": 52566,
          "time": 210.60075093749998,
          "velocity": 0.9763779527559056
        },
        {
          "duration": 0.09615375000001336,
          "durationTicks": 24,
          "midi": 77,
          "name": "F5",
          "ticks": 52566,
          "time": 210.60075093749998,
          "velocity": 0.968503937007874
        },
        {
          "duration": 0.0881409374999862,
          "durationTicks": 22,
          "midi": 77,
          "name": "F5",
          "ticks": 52614,
          "time": 210.79305843749998,
          "velocity": 0.9606299212598425
        },
        {
          "duration": 0.08012812499995903,
          "durationTicks": 20,
          "midi": 65,
          "name": "F4",
          "ticks": 52616,
          "time": 210.80107125,
          "velocity": 0.9763779527559056
        },
        {
          "duration": 0.14423062500000583,
          "durationTicks": 36,
          "midi": 65,
          "name": "F4",
          "ticks": 52662,
          "time": 210.98536593749998,
          "velocity": 0.9763779527559056
        },
        {
          "duration": 0.16025625000000332,
          "durationTicks": 40,
          "midi": 77,
          "name": "F5",
          "ticks": 52662,
          "time": 210.98536593749998,
          "velocity": 0.9763779527559056
        },
        {
          "duration": 0.24038437499999077,
          "durationTicks": 60,
          "midi": 60,
          "name": "C4",
          "ticks": 53232,
          "time": 213.2690175,
          "velocity": 0.968503937007874
        },
        {
          "duration": 0.2403843750000192,
          "durationTicks": 60,
          "midi": 59,
          "name": "B3",
          "ticks": 53328,
          "time": 213.6536325,
          "velocity": 0.952755905511811
        },
        {
          "duration": 0.21634593749999453,
          "durationTicks": 54,
          "midi": 63,
          "name": "D#4",
          "ticks": 53424,
          "time": 214.03824749999998,
          "velocity": 0.9606299212598425
        },
        {
          "duration": 0.20032031250002547,
          "durationTicks": 50,
          "midi": 62,
          "name": "D4",
          "ticks": 53520,
          "time": 214.42286249999998,
          "velocity": 0.968503937007874
        },
        {
          "duration": 0.20032031249999704,
          "durationTicks": 50,
          "midi": 68,
          "name": "G#4",
          "ticks": 53616,
          "time": 214.8074775,
          "velocity": 0.952755905511811
        },
        {
          "duration": 0.20833312499996737,
          "durationTicks": 52,
          "midi": 67,
          "name": "G4",
          "ticks": 53712,
          "time": 215.1920925,
          "velocity": 0.968503937007874
        },
        {
          "duration": 0.2243587500000217,
          "durationTicks": 56,
          "midi": 72,
          "name": "C5",
          "ticks": 53808,
          "time": 215.5767075,
          "velocity": 0.968503937007874
        },
        {
          "duration": 0.07211531250001713,
          "durationTicks": 18,
          "midi": 76,
          "name": "E5",
          "ticks": 54288,
          "time": 217.49978249999998,
          "velocity": 0.9606299212598425
        },
        {
          "duration": 0.07211531250001713,
          "durationTicks": 18,
          "midi": 76,
          "name": "E5",
          "ticks": 54336,
          "time": 217.69208999999998,
          "velocity": 0.968503937007874
        },
        {
          "duration": 0.10416656250004053,
          "durationTicks": 26,
          "midi": 77,
          "name": "F5",
          "ticks": 54384,
          "time": 217.88439749999998,
          "velocity": 0.9763779527559056
        },
        {
          "duration": 0.0881409374999862,
          "durationTicks": 22,
          "midi": 76,
          "name": "E5",
          "ticks": 54432,
          "time": 218.076705,
          "velocity": 0.9606299212598425
        },
        {
          "duration": 0.1041665625000121,
          "durationTicks": 26,
          "midi": 74,
          "name": "D5",
          "ticks": 54480,
          "time": 218.2690125,
          "velocity": 0.968503937007874
        },
        {
          "duration": 0.0881409374999862,
          "durationTicks": 22,
          "midi": 72,
          "name": "C5",
          "ticks": 54528,
          "time": 218.46132,
          "velocity": 0.9606299212598425
        },
        {
          "duration": 0.20833312499996737,
          "durationTicks": 52,
          "midi": 71,
          "name": "B4",
          "ticks": 54576,
          "time": 218.6536275,
          "velocity": 0.9606299212598425
        }
      ]
    },
    {
      "channel": 9,
      "controlChanges": {
        "0": [
          {
            "number": 0,
            "ticks": 282,
            "time": 1.1298065625,
            "value": 0
          }
        ],
        "7": [
          {
            "number": 7,
            "ticks": 288,
            "time": 1.153845,
            "value": 0.968503937007874
          }
        ],
        "10": [
          {
            "number": 10,
            "ticks": 288,
            "time": 1.153845,
            "value": 0.5039370078740157
          }
        ],
        "11": [
          {
            "number": 11,
            "ticks": 288,
            "time": 1.153845,
            "value": 0.8661417322834646
          }
        ],
        "32": [
          {
            "number": 32,
            "ticks": 284,
            "time": 1.137819375,
            "value": 0
          }
        ],
        "91": [
          {
            "number": 91,
            "ticks": 290,
            "time": 1.1618578125,
            "value": 1
          }
        ],
        "93": [
          {
            "number": 93,
            "ticks": 290,
            "time": 1.1618578125,
            "value": 0
          }
        ],
        "120": [
          {
            "number": 120,
            "ticks": 92928,
            "time": 329.03064,
            "value": 0
          }
        ],
        "121": [
          {
            "number": 121,
            "ticks": 178,
            "time": 0.7131403125,
            "value": 0
          }
        ]
      },
      "pitchBends": [],
      "instrument": {
        "family": "drums",
        "number": 0,
        "name": "standard kit"
      },
      "name": "",
      "notes": [
        {
          "duration": 0.04807687499999247,
          "durationTicks": 12,
          "midi": 35,
          "name": "B1",
          "ticks": 18622,
          "time": 74.6072971875,
          "velocity": 0.8740157480314961
        },
        {
          "duration": 0.08012812500000166,
          "durationTicks": 20,
          "midi": 45,
          "name": "A2",
          "ticks": 18622,
          "time": 74.6072971875,
          "velocity": 0.8740157480314961
        },
        {
          "duration": 0.04807687500000668,
          "durationTicks": 12,
          "midi": 35,
          "name": "B1",
          "ticks": 18670,
          "time": 74.7996046875,
          "velocity": 0.889763779527559
        },
        {
          "duration": 0.07211531250000291,
          "durationTicks": 18,
          "midi": 45,
          "name": "A2",
          "ticks": 18670,
          "time": 74.7996046875,
          "velocity": 0.889763779527559
        },
        {
          "duration": 0.04807687500000668,
          "durationTicks": 12,
          "midi": 35,
          "name": "B1",
          "ticks": 18718,
          "time": 74.99191218749999,
          "velocity": 0.8976377952755905
        },
        {
          "duration": 0.08012812500000166,
          "durationTicks": 20,
          "midi": 45,
          "name": "A2",
          "ticks": 18718,
          "time": 74.99191218749999,
          "velocity": 0.8976377952755905
        },
        {
          "duration": 0.08814093750001462,
          "durationTicks": 22,
          "midi": 35,
          "name": "B1",
          "ticks": 18766,
          "time": 75.18421968749999,
          "velocity": 0.905511811023622
        },
        {
          "duration": 0.08012812500000166,
          "durationTicks": 20,
          "midi": 45,
          "name": "A2",
          "ticks": 18766,
          "time": 75.18421968749999,
          "velocity": 0.905511811023622
        },
        {
          "duration": 0.08814093750001462,
          "durationTicks": 22,
          "midi": 35,
          "name": "B1",
          "ticks": 18814,
          "time": 75.37652718749999,
          "velocity": 0.9133858267716536
        },
        {
          "duration": 0.08012812500000166,
          "durationTicks": 20,
          "midi": 45,
          "name": "A2",
          "ticks": 18814,
          "time": 75.37652718749999,
          "velocity": 0.9133858267716536
        },
        {
          "duration": 0.07211531250000291,
          "durationTicks": 18,
          "midi": 35,
          "name": "B1",
          "ticks": 18862,
          "time": 75.56883468749999,
          "velocity": 0.9212598425196851
        },
        {
          "duration": 0.07211531250000291,
          "durationTicks": 18,
          "midi": 45,
          "name": "A2",
          "ticks": 18862,
          "time": 75.56883468749999,
          "velocity": 0.9212598425196851
        },
        {
          "duration": 0.08012812500000166,
          "durationTicks": 20,
          "midi": 35,
          "name": "B1",
          "ticks": 18910,
          "time": 75.7611421875,
          "velocity": 0.9291338582677166
        },
        {
          "duration": 0.08012812500000166,
          "durationTicks": 20,
          "midi": 45,
          "name": "A2",
          "ticks": 18910,
          "time": 75.7611421875,
          "velocity": 0.9291338582677166
        },
        {
          "duration": 0.08012812500000166,
          "durationTicks": 20,
          "midi": 35,
          "name": "B1",
          "ticks": 18958,
          "time": 75.9534496875,
          "velocity": 0.937007874015748
        },
        {
          "duration": 0.08012812500000166,
          "durationTicks": 20,
          "midi": 45,
          "name": "A2",
          "ticks": 18958,
          "time": 75.9534496875,
          "velocity": 0.937007874015748
        },
        {
          "duration": 0.08012812500000166,
          "durationTicks": 20,
          "midi": 35,
          "name": "B1",
          "ticks": 19006,
          "time": 76.1457571875,
          "velocity": 0.952755905511811
        },
        {
          "duration": 0.08012812500000166,
          "durationTicks": 20,
          "midi": 43,
          "name": "G2",
          "ticks": 19006,
          "time": 76.1457571875,
          "velocity": 0.952755905511811
        },
        {
          "duration": 0.08012812500000166,
          "durationTicks": 20,
          "midi": 35,
          "name": "B1",
          "ticks": 19054,
          "time": 76.3380646875,
          "velocity": 0.9606299212598425
        },
        {
          "duration": 0.08012812500000166,
          "durationTicks": 20,
          "midi": 43,
          "name": "G2",
          "ticks": 19054,
          "time": 76.3380646875,
          "velocity": 0.9606299212598425
        },
        {
          "duration": 0.08012812500000166,
          "durationTicks": 20,
          "midi": 35,
          "name": "B1",
          "ticks": 19102,
          "time": 76.53037218749999,
          "velocity": 0.968503937007874
        },
        {
          "duration": 0.07211531250000291,
          "durationTicks": 18,
          "midi": 43,
          "name": "G2",
          "ticks": 19102,
          "time": 76.53037218749999,
          "velocity": 0.968503937007874
        },
        {
          "duration": 0.09615374999999915,
          "durationTicks": 24,
          "midi": 35,
          "name": "B1",
          "ticks": 19150,
          "time": 76.72267968749999,
          "velocity": 0.968503937007874
        },
        {
          "duration": 0.09615374999999915,
          "durationTicks": 24,
          "midi": 43,
          "name": "G2",
          "ticks": 19150,
          "time": 76.72267968749999,
          "velocity": 0.968503937007874
        },
        {
          "duration": 1.0336528125000086,
          "durationTicks": 258,
          "midi": 35,
          "name": "B1",
          "ticks": 19198,
          "time": 76.91498718749999,
          "velocity": 0.9763779527559056
        },
        {
          "duration": 4.615380000000002,
          "durationTicks": 1152,
          "midi": 49,
          "name": "C#3",
          "ticks": 19198,
          "time": 76.91498718749999,
          "velocity": 0.9763779527559056
        },
        {
          "duration": 0.18429468749999955,
          "durationTicks": 46,
          "midi": 51,
          "name": "D#3",
          "ticks": 19294,
          "time": 77.2996021875,
          "velocity": 0.9448818897637795
        },
        {
          "duration": 1.258011562500002,
          "durationTicks": 314,
          "midi": 40,
          "name": "E2",
          "ticks": 19390,
          "time": 77.6842171875,
          "velocity": 0.9763779527559056
        },
        {
          "duration": 0.2644228125000012,
          "durationTicks": 66,
          "midi": 42,
          "name": "F#2",
          "ticks": 19390,
          "time": 77.6842171875,
          "velocity": 0.9606299212598425
        },
        {
          "duration": 0.18429468749999955,
          "durationTicks": 46,
          "midi": 51,
          "name": "D#3",
          "ticks": 19390,
          "time": 77.6842171875,
          "velocity": 0.9606299212598425
        },
        {
          "duration": 0.12019218749999538,
          "durationTicks": 30,
          "midi": 35,
          "name": "B1",
          "ticks": 19486,
          "time": 78.06883218749999,
          "velocity": 0.9212598425196851
        },
        {
          "duration": 0.1041665624999979,
          "durationTicks": 26,
          "midi": 51,
          "name": "D#3",
          "ticks": 19486,
          "time": 78.06883218749999,
          "velocity": 0.9448818897637795
        },
        {
          "duration": 1.2339731250000057,
          "durationTicks": 308,
          "midi": 35,
          "name": "B1",
          "ticks": 19582,
          "time": 78.45344718749999,
          "velocity": 0.968503937007874
        },
        {
          "duration": 0.18429468750001377,
          "durationTicks": 46,
          "midi": 51,
          "name": "D#3",
          "ticks": 19582,
          "time": 78.45344718749999,
          "velocity": 0.9606299212598425
        },
        {
          "duration": 0.08012812500000166,
          "durationTicks": 20,
          "midi": 51,
          "name": "D#3",
          "ticks": 19678,
          "time": 78.8380621875,
          "velocity": 0.9212598425196851
        },
        {
          "duration": 1.1698706250000015,
          "durationTicks": 292,
          "midi": 40,
          "name": "E2",
          "ticks": 19774,
          "time": 79.2226771875,
          "velocity": 0.9763779527559056
        },
        {
          "duration": 0.20833312500001,
          "durationTicks": 52,
          "midi": 42,
          "name": "F#2",
          "ticks": 19774,
          "time": 79.2226771875,
          "velocity": 0.968503937007874
        },
        {
          "duration": 0.18429468749999955,
          "durationTicks": 46,
          "midi": 51,
          "name": "D#3",
          "ticks": 19774,
          "time": 79.2226771875,
          "velocity": 0.968503937007874
        },
        {
          "duration": 0.13621781250000708,
          "durationTicks": 34,
          "midi": 51,
          "name": "D#3",
          "ticks": 19870,
          "time": 79.6072921875,
          "velocity": 0.9291338582677166
        },
        {
          "duration": 0.881409375000004,
          "durationTicks": 220,
          "midi": 35,
          "name": "B1",
          "ticks": 19966,
          "time": 79.99190718749999,
          "velocity": 0.9763779527559056
        },
        {
          "duration": 0.11217937500001085,
          "durationTicks": 28,
          "midi": 51,
          "name": "D#3",
          "ticks": 19966,
          "time": 79.99190718749999,
          "velocity": 0.9606299212598425
        },
        {
          "duration": 0.08012812500001587,
          "durationTicks": 20,
          "midi": 51,
          "name": "D#3",
          "ticks": 20062,
          "time": 80.37652218749999,
          "velocity": 0.937007874015748
        },
        {
          "duration": 1.185896249999999,
          "durationTicks": 296,
          "midi": 40,
          "name": "E2",
          "ticks": 20158,
          "time": 80.7611371875,
          "velocity": 0.9763779527559056
        },
        {
          "duration": 0.22435874999999328,
          "durationTicks": 56,
          "midi": 42,
          "name": "F#2",
          "ticks": 20158,
          "time": 80.7611371875,
          "velocity": 0.968503937007874
        },
        {
          "duration": 0.18429468749999955,
          "durationTicks": 46,
          "midi": 51,
          "name": "D#3",
          "ticks": 20158,
          "time": 80.7611371875,
          "velocity": 0.968503937007874
        },
        {
          "duration": 0.07211531250000291,
          "durationTicks": 18,
          "midi": 35,
          "name": "B1",
          "ticks": 20254,
          "time": 81.1457521875,
          "velocity": 0.952755905511811
        },
        {
          "duration": 0.13621781250000708,
          "durationTicks": 34,
          "midi": 51,
          "name": "D#3",
          "ticks": 20254,
          "time": 81.1457521875,
          "velocity": 0.9448818897637795
        },
        {
          "duration": 0.9054478125000145,
          "durationTicks": 226,
          "midi": 35,
          "name": "B1",
          "ticks": 20350,
          "time": 81.53036718749999,
          "velocity": 0.9763779527559056
        },
        {
          "duration": 0.12820500000000834,
          "durationTicks": 32,
          "midi": 51,
          "name": "D#3",
          "ticks": 20350,
          "time": 81.53036718749999,
          "velocity": 0.9606299212598425
        },
        {
          "duration": 0.1041665625000121,
          "durationTicks": 26,
          "midi": 51,
          "name": "D#3",
          "ticks": 20446,
          "time": 81.91498218749999,
          "velocity": 0.9448818897637795
        },
        {
          "duration": 1.1778834375000002,
          "durationTicks": 294,
          "midi": 40,
          "name": "E2",
          "ticks": 20542,
          "time": 82.2995971875,
          "velocity": 0.9763779527559056
        },
        {
          "duration": 0.24839718750000372,
          "durationTicks": 62,
          "midi": 42,
          "name": "F#2",
          "ticks": 20542,
          "time": 82.2995971875,
          "velocity": 0.9763779527559056
        },
        {
          "duration": 0.12019218749999538,
          "durationTicks": 30,
          "midi": 51,
          "name": "D#3",
          "ticks": 20542,
          "time": 82.2995971875,
          "velocity": 0.968503937007874
        },
        {
          "duration": 0.07211531250000291,
          "durationTicks": 18,
          "midi": 35,
          "name": "B1",
          "ticks": 20638,
          "time": 82.6842121875,
          "velocity": 0.9133858267716536
        },
        {
          "duration": 0.13621781250000708,
          "durationTicks": 34,
          "midi": 51,
          "name": "D#3",
          "ticks": 20638,
          "time": 82.6842121875,
          "velocity": 0.889763779527559
        },
        {
          "duration": 0.8894221875000028,
          "durationTicks": 222,
          "midi": 35,
          "name": "B1",
          "ticks": 20734,
          "time": 83.06882718749999,
          "velocity": 0.9763779527559056
        },
        {
          "duration": 0.3846149999999966,
          "durationTicks": 96,
          "midi": 49,
          "name": "C#3",
          "ticks": 20734,
          "time": 83.06882718749999,
          "velocity": 0.9606299212598425
        },
        {
          "duration": 0.1041665625000121,
          "durationTicks": 26,
          "midi": 51,
          "name": "D#3",
          "ticks": 20830,
          "time": 83.45344218749999,
          "velocity": 0.9291338582677166
        },
        {
          "duration": 1.0496784375000061,
          "durationTicks": 262,
          "midi": 40,
          "name": "E2",
          "ticks": 20926,
          "time": 83.8380571875,
          "velocity": 0.9763779527559056
        },
        {
          "duration": 0.23237156250000623,
          "durationTicks": 58,
          "midi": 42,
          "name": "F#2",
          "ticks": 20926,
          "time": 83.8380571875,
          "velocity": 0.968503937007874
        },
        {
          "duration": 0.14423062499999162,
          "durationTicks": 36,
          "midi": 51,
          "name": "D#3",
          "ticks": 20926,
          "time": 83.8380571875,
          "velocity": 0.968503937007874
        },
        {
          "duration": 0.0881409375000004,
          "durationTicks": 22,
          "midi": 35,
          "name": "B1",
          "ticks": 21022,
          "time": 84.2226721875,
          "velocity": 0.9291338582677166
        },
        {
          "duration": 0.3846149999999966,
          "durationTicks": 96,
          "midi": 49,
          "name": "C#3",
          "ticks": 21022,
          "time": 84.2226721875,
          "velocity": 0.9448818897637795
        },
        {
          "duration": 0.7772428125000062,
          "durationTicks": 194,
          "midi": 35,
          "name": "B1",
          "ticks": 21118,
          "time": 84.60728718749999,
          "velocity": 0.968503937007874
        },
        {
          "duration": 0.3846149999999966,
          "durationTicks": 96,
          "midi": 49,
          "name": "C#3",
          "ticks": 21118,
          "time": 84.60728718749999,
          "velocity": 0.968503937007874
        },
        {
          "duration": 0.08814093750001462,
          "durationTicks": 22,
          "midi": 51,
          "name": "D#3",
          "ticks": 21214,
          "time": 84.99190218749999,
          "velocity": 0.937007874015748
        },
        {
          "duration": 1.2099346874999952,
          "durationTicks": 302,
          "midi": 40,
          "name": "E2",
          "ticks": 21310,
          "time": 85.3765171875,
          "velocity": 0.9763779527559056
        },
        {
          "duration": 0.23237156250000623,
          "durationTicks": 58,
          "midi": 42,
          "name": "F#2",
          "ticks": 21310,
          "time": 85.3765171875,
          "velocity": 0.968503937007874
        },
        {
          "duration": 0.16025625000000332,
          "durationTicks": 40,
          "midi": 51,
          "name": "D#3",
          "ticks": 21310,
          "time": 85.3765171875,
          "velocity": 0.968503937007874
        },
        {
          "duration": 0.08012812500000166,
          "durationTicks": 20,
          "midi": 35,
          "name": "B1",
          "ticks": 21406,
          "time": 85.7611321875,
          "velocity": 0.9212598425196851
        },
        {
          "duration": 0.1041665624999979,
          "durationTicks": 26,
          "midi": 51,
          "name": "D#3",
          "ticks": 21406,
          "time": 85.7611321875,
          "velocity": 0.9448818897637795
        },
        {
          "duration": 0.881409375000004,
          "durationTicks": 220,
          "midi": 35,
          "name": "B1",
          "ticks": 21502,
          "time": 86.14574718749999,
          "velocity": 0.968503937007874
        },
        {
          "duration": 0.12820500000000834,
          "durationTicks": 32,
          "midi": 51,
          "name": "D#3",
          "ticks": 21502,
          "time": 86.14574718749999,
          "velocity": 0.968503937007874
        },
        {
          "duration": 0.08814093750001462,
          "durationTicks": 22,
          "midi": 51,
          "name": "D#3",
          "ticks": 21598,
          "time": 86.53036218749999,
          "velocity": 0.937007874015748
        },
        {
          "duration": 0.8413453124999961,
          "durationTicks": 210,
          "midi": 40,
          "name": "E2",
          "ticks": 21694,
          "time": 86.9149771875,
          "velocity": 0.9763779527559056
        },
        {
          "duration": 0.1762818750000008,
          "durationTicks": 44,
          "midi": 42,
          "name": "F#2",
          "ticks": 21694,
          "time": 86.9149771875,
          "velocity": 0.952755905511811
        },
        {
          "duration": 0.13621781250000708,
          "durationTicks": 34,
          "midi": 51,
          "name": "D#3",
          "ticks": 21694,
          "time": 86.9149771875,
          "velocity": 0.9763779527559056
        },
        {
          "duration": 0.07211531250000291,
          "durationTicks": 18,
          "midi": 35,
          "name": "B1",
          "ticks": 21790,
          "time": 87.2995921875,
          "velocity": 0.9606299212598425
        },
        {
          "duration": 0.12019218749999538,
          "durationTicks": 30,
          "midi": 51,
          "name": "D#3",
          "ticks": 21790,
          "time": 87.2995921875,
          "velocity": 0.9448818897637795
        },
        {
          "duration": 0.8573709375000078,
          "durationTicks": 214,
          "midi": 35,
          "name": "B1",
          "ticks": 21886,
          "time": 87.6842071875,
          "velocity": 0.9763779527559056
        },
        {
          "duration": 0.11217937500001085,
          "durationTicks": 28,
          "midi": 51,
          "name": "D#3",
          "ticks": 21886,
          "time": 87.6842071875,
          "velocity": 0.9606299212598425
        },
        {
          "duration": 0.11217937500001085,
          "durationTicks": 28,
          "midi": 40,
          "name": "E2",
          "ticks": 21982,
          "time": 88.06882218749999,
          "velocity": 0.9763779527559056
        },
        {
          "duration": 0.07211531250000291,
          "durationTicks": 18,
          "midi": 51,
          "name": "D#3",
          "ticks": 21982,
          "time": 88.06882218749999,
          "velocity": 0.9448818897637795
        },
        {
          "duration": 0.1041665625000121,
          "durationTicks": 26,
          "midi": 40,
          "name": "E2",
          "ticks": 22078,
          "time": 88.45343718749999,
          "velocity": 0.9763779527559056
        },
        {
          "duration": 0.15224343750000457,
          "durationTicks": 38,
          "midi": 42,
          "name": "F#2",
          "ticks": 22078,
          "time": 88.45343718749999,
          "velocity": 0.952755905511811
        },
        {
          "duration": 0.1762818750000008,
          "durationTicks": 44,
          "midi": 43,
          "name": "G2",
          "ticks": 22126,
          "time": 88.6457446875,
          "velocity": 0.968503937007874
        },
        {
          "duration": 0.12820499999999413,
          "durationTicks": 32,
          "midi": 35,
          "name": "B1",
          "ticks": 22174,
          "time": 88.8380521875,
          "velocity": 0.9763779527559056
        },
        {
          "duration": 0.12820499999999413,
          "durationTicks": 32,
          "midi": 45,
          "name": "A2",
          "ticks": 22174,
          "time": 88.8380521875,
          "velocity": 0.9606299212598425
        },
        {
          "duration": 0.9054478125000003,
          "durationTicks": 226,
          "midi": 35,
          "name": "B1",
          "ticks": 22270,
          "time": 89.2226671875,
          "velocity": 0.968503937007874
        },
        {
          "duration": 1.9230749999999972,
          "durationTicks": 480,
          "midi": 49,
          "name": "C#3",
          "ticks": 22270,
          "time": 89.2226671875,
          "velocity": 0.9763779527559056
        },
        {
          "duration": 0.08814093750001462,
          "durationTicks": 22,
          "midi": 51,
          "name": "D#3",
          "ticks": 22366,
          "time": 89.60728218749999,
          "velocity": 0.9606299212598425
        },
        {
          "duration": 1.2339731250000057,
          "durationTicks": 308,
          "midi": 40,
          "name": "E2",
          "ticks": 22462,
          "time": 89.99189718749999,
          "velocity": 0.9763779527559056
        },
        {
          "duration": 0.20032031250001125,
          "durationTicks": 50,
          "midi": 42,
          "name": "F#2",
          "ticks": 22462,
          "time": 89.99189718749999,
          "velocity": 0.968503937007874
        },
        {
          "duration": 0.12820500000000834,
          "durationTicks": 32,
          "midi": 51,
          "name": "D#3",
          "ticks": 22462,
          "time": 89.99189718749999,
          "velocity": 0.968503937007874
        },
        {
          "duration": 0.11217937499999664,
          "durationTicks": 28,
          "midi": 35,
          "name": "B1",
          "ticks": 22558,
          "time": 90.3765121875,
          "velocity": 0.9448818897637795
        },
        {
          "duration": 0.12820499999999413,
          "durationTicks": 32,
          "midi": 51,
          "name": "D#3",
          "ticks": 22558,
          "time": 90.3765121875,
          "velocity": 0.937007874015748
        },
        {
          "duration": 0.8493581250000091,
          "durationTicks": 212,
          "midi": 35,
          "name": "B1",
          "ticks": 22654,
          "time": 90.7611271875,
          "velocity": 0.9763779527559056
        },
        {
          "duration": 0.14423062499999162,
          "durationTicks": 36,
          "midi": 51,
          "name": "D#3",
          "ticks": 22654,
          "time": 90.7611271875,
          "velocity": 0.9606299212598425
        },
        {
          "duration": 0.07211531250000291,
          "durationTicks": 18,
          "midi": 51,
          "name": "D#3",
          "ticks": 22750,
          "time": 91.14574218749999,
          "velocity": 0.9212598425196851
        },
        {
          "duration": 1.2660243750000149,
          "durationTicks": 316,
          "midi": 40,
          "name": "E2",
          "ticks": 22846,
          "time": 91.53035718749999,
          "velocity": 0.9763779527559056
        },
        {
          "duration": 0.1923074999999983,
          "durationTicks": 48,
          "midi": 42,
          "name": "F#2",
          "ticks": 22846,
          "time": 91.53035718749999,
          "velocity": 0.9606299212598425
        },
        {
          "duration": 0.15224343750000457,
          "durationTicks": 38,
          "midi": 51,
          "name": "D#3",
          "ticks": 22846,
          "time": 91.53035718749999,
          "velocity": 0.968503937007874
        },
        {
          "duration": 0.14423062499999162,
          "durationTicks": 36,
          "midi": 35,
          "name": "B1",
          "ticks": 22942,
          "time": 91.9149721875,
          "velocity": 0.9606299212598425
        },
        {
          "duration": 0.12019218749999538,
          "durationTicks": 30,
          "midi": 51,
          "name": "D#3",
          "ticks": 22942,
          "time": 91.9149721875,
          "velocity": 0.905511811023622
        },
        {
          "duration": 0.8733965625000053,
          "durationTicks": 218,
          "midi": 35,
          "name": "B1",
          "ticks": 23038,
          "time": 92.2995871875,
          "velocity": 0.9763779527559056
        },
        {
          "duration": 0.15224343750000457,
          "durationTicks": 38,
          "midi": 51,
          "name": "D#3",
          "ticks": 23038,
          "time": 92.2995871875,
          "velocity": 0.9606299212598425
        },
        {
          "duration": 0.1041665624999979,
          "durationTicks": 26,
          "midi": 51,
          "name": "D#3",
          "ticks": 23134,
          "time": 92.68420218749999,
          "velocity": 0.937007874015748
        },
        {
          "duration": 0.5929481250000066,
          "durationTicks": 148,
          "midi": 40,
          "name": "E2",
          "ticks": 23230,
          "time": 93.06881718749999,
          "velocity": 0.9763779527559056
        },
        {
          "duration": 0.13621781250000708,
          "durationTicks": 34,
          "midi": 42,
          "name": "F#2",
          "ticks": 23230,
          "time": 93.06881718749999,
          "velocity": 0.952755905511811
        },
        {
          "duration": 0.11217937500001085,
          "durationTicks": 28,
          "midi": 51,
          "name": "D#3",
          "ticks": 23230,
          "time": 93.06881718749999,
          "velocity": 0.9763779527559056
        },
        {
          "duration": 0.1041665624999979,
          "durationTicks": 26,
          "midi": 35,
          "name": "B1",
          "ticks": 23326,
          "time": 93.4534321875,
          "velocity": 0.952755905511811
        },
        {
          "duration": 0.09615374999999915,
          "durationTicks": 24,
          "midi": 42,
          "name": "F#2",
          "ticks": 23326,
          "time": 93.4534321875,
          "velocity": 0.9448818897637795
        },
        {
          "duration": 1.0897424999999998,
          "durationTicks": 272,
          "midi": 35,
          "name": "B1",
          "ticks": 23422,
          "time": 93.8380471875,
          "velocity": 0.9763779527559056
        },
        {
          "duration": 1.3621781249999998,
          "durationTicks": 340,
          "midi": 49,
          "name": "C#3",
          "ticks": 23422,
          "time": 93.8380471875,
          "velocity": 0.968503937007874
        },
        {
          "duration": 4.198713749999996,
          "durationTicks": 1048,
          "midi": 35,
          "name": "B1",
          "ticks": 23806,
          "time": 95.3765071875,
          "velocity": 0.9763779527559056
        },
        {
          "duration": 3.549675937499998,
          "durationTicks": 886,
          "midi": 49,
          "name": "C#3",
          "ticks": 23806,
          "time": 95.3765071875,
          "velocity": 0.968503937007874
        },
        {
          "duration": 1.4983959374999927,
          "durationTicks": 374,
          "midi": 42,
          "name": "F#2",
          "ticks": 24670,
          "time": 98.83804218750001,
          "velocity": 0.952755905511811
        },
        {
          "duration": 0.1923074999999983,
          "durationTicks": 48,
          "midi": 40,
          "name": "E2",
          "ticks": 24766,
          "time": 99.2226571875,
          "velocity": 0.9606299212598425
        },
        {
          "duration": 0.18429468749998534,
          "durationTicks": 46,
          "midi": 43,
          "name": "G2",
          "ticks": 24814,
          "time": 99.4149646875,
          "velocity": 0.937007874015748
        },
        {
          "duration": 0.3124996875000079,
          "durationTicks": 78,
          "midi": 45,
          "name": "A2",
          "ticks": 24862,
          "time": 99.6072721875,
          "velocity": 0.9212598425196851
        },
        {
          "duration": 0.7291659374999995,
          "durationTicks": 182,
          "midi": 35,
          "name": "B1",
          "ticks": 24958,
          "time": 99.9918871875,
          "velocity": 0.9763779527559056
        },
        {
          "duration": 3.1730737500000004,
          "durationTicks": 792,
          "midi": 49,
          "name": "C#3",
          "ticks": 24958,
          "time": 99.9918871875,
          "velocity": 0.9763779527559056
        },
        {
          "duration": 0.18429468749999955,
          "durationTicks": 46,
          "midi": 42,
          "name": "F#2",
          "ticks": 25148,
          "time": 100.75310437499999,
          "velocity": 0.9606299212598425
        },
        {
          "duration": 1.2179474999999798,
          "durationTicks": 304,
          "midi": 40,
          "name": "E2",
          "ticks": 25150,
          "time": 100.7611171875,
          "velocity": 0.9763779527559056
        },
        {
          "duration": 0.0881409375000004,
          "durationTicks": 22,
          "midi": 35,
          "name": "B1",
          "ticks": 25244,
          "time": 101.13771937499999,
          "velocity": 0.937007874015748
        },
        {
          "duration": 0.1041665624999979,
          "durationTicks": 26,
          "midi": 42,
          "name": "F#2",
          "ticks": 25246,
          "time": 101.1457321875,
          "velocity": 0.9133858267716536
        },
        {
          "duration": 1.2740371874999994,
          "durationTicks": 318,
          "midi": 35,
          "name": "B1",
          "ticks": 25342,
          "time": 101.5303471875,
          "velocity": 0.9763779527559056
        },
        {
          "duration": 0.14423062500000583,
          "durationTicks": 36,
          "midi": 42,
          "name": "F#2",
          "ticks": 25342,
          "time": 101.5303471875,
          "velocity": 0.9606299212598425
        },
        {
          "duration": 0.10416656249998368,
          "durationTicks": 26,
          "midi": 42,
          "name": "F#2",
          "ticks": 25438,
          "time": 101.91496218750001,
          "velocity": 0.8976377952755905
        },
        {
          "duration": 1.241985937499976,
          "durationTicks": 310,
          "midi": 40,
          "name": "E2",
          "ticks": 25534,
          "time": 102.2995771875,
          "velocity": 0.9763779527559056
        },
        {
          "duration": 0.1923074999999983,
          "durationTicks": 48,
          "midi": 42,
          "name": "F#2",
          "ticks": 25534,
          "time": 102.2995771875,
          "velocity": 0.968503937007874
        },
        {
          "duration": 0.11217937499998243,
          "durationTicks": 28,
          "midi": 42,
          "name": "F#2",
          "ticks": 25630,
          "time": 102.6841921875,
          "velocity": 0.8976377952755905
        },
        {
          "duration": 0.9054478124999861,
          "durationTicks": 226,
          "midi": 35,
          "name": "B1",
          "ticks": 25726,
          "time": 103.0688071875,
          "velocity": 0.968503937007874
        },
        {
          "duration": 0.16826906250000206,
          "durationTicks": 42,
          "midi": 42,
          "name": "F#2",
          "ticks": 25726,
          "time": 103.0688071875,
          "velocity": 0.9606299212598425
        },
        {
          "duration": 0.12019218749999538,
          "durationTicks": 30,
          "midi": 42,
          "name": "F#2",
          "ticks": 25822,
          "time": 103.45342218750001,
          "velocity": 0.889763779527559
        },
        {
          "duration": 1.1698706249999873,
          "durationTicks": 292,
          "midi": 40,
          "name": "E2",
          "ticks": 25918,
          "time": 103.8380371875,
          "velocity": 0.9763779527559056
        },
        {
          "duration": 0.1602562499999891,
          "durationTicks": 40,
          "midi": 42,
          "name": "F#2",
          "ticks": 25918,
          "time": 103.8380371875,
          "velocity": 0.9606299212598425
        },
        {
          "duration": 0.11217937499998243,
          "durationTicks": 28,
          "midi": 35,
          "name": "B1",
          "ticks": 26014,
          "time": 104.2226521875,
          "velocity": 0.952755905511811
        },
        {
          "duration": 0.1041665624999979,
          "durationTicks": 26,
          "midi": 42,
          "name": "F#2",
          "ticks": 26014,
          "time": 104.2226521875,
          "velocity": 0.9133858267716536
        },
        {
          "duration": 1.2339731249999915,
          "durationTicks": 308,
          "midi": 35,
          "name": "B1",
          "ticks": 26110,
          "time": 104.6072671875,
          "velocity": 0.968503937007874
        },
        {
          "duration": 0.14423062500000583,
          "durationTicks": 36,
          "midi": 42,
          "name": "F#2",
          "ticks": 26110,
          "time": 104.6072671875,
          "velocity": 0.9448818897637795
        },
        {
          "duration": 0.1201921875000096,
          "durationTicks": 30,
          "midi": 42,
          "name": "F#2",
          "ticks": 26206,
          "time": 104.9918821875,
          "velocity": 0.905511811023622
        },
        {
          "duration": 1.1939090624999835,
          "durationTicks": 298,
          "midi": 40,
          "name": "E2",
          "ticks": 26302,
          "time": 105.37649718750001,
          "velocity": 0.9763779527559056
        },
        {
          "duration": 0.0881409374999862,
          "durationTicks": 22,
          "midi": 42,
          "name": "F#2",
          "ticks": 26302,
          "time": 105.37649718750001,
          "velocity": 0.952755905511811
        },
        {
          "duration": 0.1923074999999983,
          "durationTicks": 48,
          "midi": 42,
          "name": "F#2",
          "ticks": 26350,
          "time": 105.5688046875,
          "velocity": 0.9448818897637795
        },
        {
          "duration": 0.40865343749999283,
          "durationTicks": 102,
          "midi": 46,
          "name": "A#2",
          "ticks": 26398,
          "time": 105.7611121875,
          "velocity": 0.9448818897637795
        },
        {
          "duration": 0.8974350000000015,
          "durationTicks": 224,
          "midi": 35,
          "name": "B1",
          "ticks": 26494,
          "time": 106.1457271875,
          "velocity": 0.968503937007874
        },
        {
          "duration": 1.730767499999999,
          "durationTicks": 432,
          "midi": 49,
          "name": "C#3",
          "ticks": 26494,
          "time": 106.1457271875,
          "velocity": 0.968503937007874
        },
        {
          "duration": 0.1201921875000096,
          "durationTicks": 30,
          "midi": 42,
          "name": "F#2",
          "ticks": 26590,
          "time": 106.5303421875,
          "velocity": 0.889763779527559
        },
        {
          "duration": 1.1778834375000002,
          "durationTicks": 294,
          "midi": 40,
          "name": "E2",
          "ticks": 26686,
          "time": 106.91495718750001,
          "velocity": 0.9763779527559056
        },
        {
          "duration": 0.1923074999999983,
          "durationTicks": 48,
          "midi": 42,
          "name": "F#2",
          "ticks": 26686,
          "time": 106.91495718750001,
          "velocity": 0.968503937007874
        },
        {
          "duration": 0.11217937499998243,
          "durationTicks": 28,
          "midi": 35,
          "name": "B1",
          "ticks": 26782,
          "time": 107.2995721875,
          "velocity": 0.9448818897637795
        },
        {
          "duration": 0.13621781249997866,
          "durationTicks": 34,
          "midi": 42,
          "name": "F#2",
          "ticks": 26782,
          "time": 107.2995721875,
          "velocity": 0.9212598425196851
        },
        {
          "duration": 1.225960312500007,
          "durationTicks": 306,
          "midi": 35,
          "name": "B1",
          "ticks": 26878,
          "time": 107.6841871875,
          "velocity": 0.968503937007874
        },
        {
          "duration": 0.1762818750000008,
          "durationTicks": 44,
          "midi": 42,
          "name": "F#2",
          "ticks": 26878,
          "time": 107.6841871875,
          "velocity": 0.905511811023622
        },
        {
          "duration": 0.1201921875000096,
          "durationTicks": 30,
          "midi": 42,
          "name": "F#2",
          "ticks": 26974,
          "time": 108.0688021875,
          "velocity": 0.8976377952755905
        },
        {
          "duration": 1.1298065624999936,
          "durationTicks": 282,
          "midi": 40,
          "name": "E2",
          "ticks": 27070,
          "time": 108.45341718750001,
          "velocity": 0.9763779527559056
        },
        {
          "duration": 0.18429468749998534,
          "durationTicks": 46,
          "midi": 42,
          "name": "F#2",
          "ticks": 27070,
          "time": 108.45341718750001,
          "velocity": 0.968503937007874
        },
        {
          "duration": 0.13621781249997866,
          "durationTicks": 34,
          "midi": 42,
          "name": "F#2",
          "ticks": 27166,
          "time": 108.8380321875,
          "velocity": 0.8976377952755905
        },
        {
          "duration": 0.8733965624999911,
          "durationTicks": 218,
          "midi": 35,
          "name": "B1",
          "ticks": 27262,
          "time": 109.2226471875,
          "velocity": 0.968503937007874
        },
        {
          "duration": 0.14423062500000583,
          "durationTicks": 36,
          "midi": 42,
          "name": "F#2",
          "ticks": 27262,
          "time": 109.2226471875,
          "velocity": 0.9448818897637795
        },
        {
          "duration": 0.1041665624999979,
          "durationTicks": 26,
          "midi": 42,
          "name": "F#2",
          "ticks": 27358,
          "time": 109.6072621875,
          "velocity": 0.905511811023622
        },
        {
          "duration": 1.209934687499981,
          "durationTicks": 302,
          "midi": 40,
          "name": "E2",
          "ticks": 27454,
          "time": 109.99187718750001,
          "velocity": 0.9763779527559056
        },
        {
          "duration": 0.1923074999999983,
          "durationTicks": 48,
          "midi": 42,
          "name": "F#2",
          "ticks": 27454,
          "time": 109.99187718750001,
          "velocity": 0.968503937007874
        },
        {
          "duration": 0.10416656249998368,
          "durationTicks": 26,
          "midi": 35,
          "name": "B1",
          "ticks": 27550,
          "time": 110.3764921875,
          "velocity": 0.952755905511811
        },
        {
          "duration": 0.13621781249997866,
          "durationTicks": 34,
          "midi": 42,
          "name": "F#2",
          "ticks": 27550,
          "time": 110.3764921875,
          "velocity": 0.9133858267716536
        },
        {
          "duration": 1.2339731249999915,
          "durationTicks": 308,
          "midi": 35,
          "name": "B1",
          "ticks": 27646,
          "time": 110.7611071875,
          "velocity": 0.968503937007874
        },
        {
          "duration": 0.12019218749999538,
          "durationTicks": 30,
          "midi": 42,
          "name": "F#2",
          "ticks": 27646,
          "time": 110.7611071875,
          "velocity": 0.952755905511811
        },
        {
          "duration": 0.07211531250000291,
          "durationTicks": 18,
          "midi": 42,
          "name": "F#2",
          "ticks": 27742,
          "time": 111.1457221875,
          "velocity": 0.9133858267716536
        },
        {
          "duration": 1.1778834375000002,
          "durationTicks": 294,
          "midi": 40,
          "name": "E2",
          "ticks": 27838,
          "time": 111.53033718750001,
          "velocity": 0.9763779527559056
        },
        {
          "duration": 0.1602562499999749,
          "durationTicks": 40,
          "midi": 42,
          "name": "F#2",
          "ticks": 27838,
          "time": 111.53033718750001,
          "velocity": 0.968503937007874
        },
        {
          "duration": 0.12820499999999413,
          "durationTicks": 32,
          "midi": 42,
          "name": "F#2",
          "ticks": 27934,
          "time": 111.9149521875,
          "velocity": 0.9133858267716536
        },
        {
          "duration": 0.9214734374999978,
          "durationTicks": 230,
          "midi": 35,
          "name": "B1",
          "ticks": 28030,
          "time": 112.2995671875,
          "velocity": 0.9763779527559056
        },
        {
          "duration": 0.15224343749999036,
          "durationTicks": 38,
          "midi": 42,
          "name": "F#2",
          "ticks": 28030,
          "time": 112.2995671875,
          "velocity": 0.9448818897637795
        },
        {
          "duration": 0.1041665624999979,
          "durationTicks": 26,
          "midi": 42,
          "name": "F#2",
          "ticks": 28126,
          "time": 112.6841821875,
          "velocity": 0.9133858267716536
        },
        {
          "duration": 1.217947499999994,
          "durationTicks": 304,
          "midi": 40,
          "name": "E2",
          "ticks": 28222,
          "time": 113.0687971875,
          "velocity": 0.9763779527559056
        },
        {
          "duration": 0.18429468749998534,
          "durationTicks": 46,
          "midi": 42,
          "name": "F#2",
          "ticks": 28222,
          "time": 113.0687971875,
          "velocity": 0.968503937007874
        },
        {
          "duration": 0.12820499999999413,
          "durationTicks": 32,
          "midi": 35,
          "name": "B1",
          "ticks": 28318,
          "time": 113.4534121875,
          "velocity": 0.9448818897637795
        },
        {
          "duration": 0.12820499999999413,
          "durationTicks": 32,
          "midi": 42,
          "name": "F#2",
          "ticks": 28318,
          "time": 113.4534121875,
          "velocity": 0.9212598425196851
        },
        {
          "duration": 1.2580115624999877,
          "durationTicks": 314,
          "midi": 35,
          "name": "B1",
          "ticks": 28414,
          "time": 113.8380271875,
          "velocity": 0.968503937007874
        },
        {
          "duration": 0.12820499999999413,
          "durationTicks": 32,
          "midi": 42,
          "name": "F#2",
          "ticks": 28414,
          "time": 113.8380271875,
          "velocity": 0.9448818897637795
        },
        {
          "duration": 0.1041665624999979,
          "durationTicks": 26,
          "midi": 42,
          "name": "F#2",
          "ticks": 28510,
          "time": 114.2226421875,
          "velocity": 0.889763779527559
        },
        {
          "duration": 1.1618578125000028,
          "durationTicks": 290,
          "midi": 40,
          "name": "E2",
          "ticks": 28606,
          "time": 114.6072571875,
          "velocity": 0.9763779527559056
        },
        {
          "duration": 0.16826906250000206,
          "durationTicks": 42,
          "midi": 42,
          "name": "F#2",
          "ticks": 28606,
          "time": 114.6072571875,
          "velocity": 0.9606299212598425
        },
        {
          "duration": 0.11217937499998243,
          "durationTicks": 28,
          "midi": 42,
          "name": "F#2",
          "ticks": 28702,
          "time": 114.99187218750001,
          "velocity": 0.9291338582677166
        },
        {
          "duration": 0.8894221875000028,
          "durationTicks": 222,
          "midi": 35,
          "name": "B1",
          "ticks": 28798,
          "time": 115.3764871875,
          "velocity": 0.968503937007874
        },
        {
          "duration": 0.15224343749999036,
          "durationTicks": 38,
          "midi": 42,
          "name": "F#2",
          "ticks": 28798,
          "time": 115.3764871875,
          "velocity": 0.9448818897637795
        },
        {
          "duration": 0.08012812500000166,
          "durationTicks": 20,
          "midi": 42,
          "name": "F#2",
          "ticks": 28894,
          "time": 115.7611021875,
          "velocity": 0.889763779527559
        },
        {
          "duration": 0.8253196874999986,
          "durationTicks": 206,
          "midi": 40,
          "name": "E2",
          "ticks": 28990,
          "time": 116.1457171875,
          "velocity": 0.9763779527559056
        },
        {
          "duration": 0.12820499999999413,
          "durationTicks": 32,
          "midi": 42,
          "name": "F#2",
          "ticks": 28990,
          "time": 116.1457171875,
          "velocity": 0.9606299212598425
        },
        {
          "duration": 0.12019218749999538,
          "durationTicks": 30,
          "midi": 35,
          "name": "B1",
          "ticks": 29086,
          "time": 116.53033218750001,
          "velocity": 0.952755905511811
        },
        {
          "duration": 0.36057656250000036,
          "durationTicks": 90,
          "midi": 46,
          "name": "A#2",
          "ticks": 29086,
          "time": 116.53033218750001,
          "velocity": 0.9448818897637795
        },
        {
          "duration": 0.9214734374999978,
          "durationTicks": 230,
          "midi": 35,
          "name": "B1",
          "ticks": 29182,
          "time": 116.9149471875,
          "velocity": 0.968503937007874
        },
        {
          "duration": 0.12019218749999538,
          "durationTicks": 30,
          "midi": 42,
          "name": "F#2",
          "ticks": 29182,
          "time": 116.9149471875,
          "velocity": 0.952755905511811
        },
        {
          "duration": 0.1602562499999891,
          "durationTicks": 40,
          "midi": 40,
          "name": "E2",
          "ticks": 29278,
          "time": 117.2995621875,
          "velocity": 0.9763779527559056
        },
        {
          "duration": 0.1923074999999983,
          "durationTicks": 48,
          "midi": 42,
          "name": "F#2",
          "ticks": 29374,
          "time": 117.6841771875,
          "velocity": 0.9133858267716536
        },
        {
          "duration": 0.1602562499999891,
          "durationTicks": 40,
          "midi": 43,
          "name": "G2",
          "ticks": 29374,
          "time": 117.6841771875,
          "velocity": 0.9763779527559056
        },
        {
          "duration": 0.2804484374999987,
          "durationTicks": 70,
          "midi": 45,
          "name": "A2",
          "ticks": 29422,
          "time": 117.8764846875,
          "velocity": 0.9606299212598425
        },
        {
          "duration": 0.21634593749999453,
          "durationTicks": 54,
          "midi": 35,
          "name": "B1",
          "ticks": 29470,
          "time": 118.06879218750001,
          "velocity": 0.968503937007874
        },
        {
          "duration": 0.8653837499999923,
          "durationTicks": 216,
          "midi": 35,
          "name": "B1",
          "ticks": 29566,
          "time": 118.4534071875,
          "velocity": 0.968503937007874
        },
        {
          "duration": 2.499997499999992,
          "durationTicks": 624,
          "midi": 49,
          "name": "C#3",
          "ticks": 29566,
          "time": 118.4534071875,
          "velocity": 0.9606299212598425
        },
        {
          "duration": 0.1923074999999983,
          "durationTicks": 48,
          "midi": 42,
          "name": "F#2",
          "ticks": 29662,
          "time": 118.8380221875,
          "velocity": 0.8740157480314961
        },
        {
          "duration": 1.217947499999994,
          "durationTicks": 304,
          "midi": 40,
          "name": "E2",
          "ticks": 29758,
          "time": 119.2226371875,
          "velocity": 0.968503937007874
        },
        {
          "duration": 0.1602562499999891,
          "durationTicks": 40,
          "midi": 42,
          "name": "F#2",
          "ticks": 29758,
          "time": 119.2226371875,
          "velocity": 0.9606299212598425
        },
        {
          "duration": 0.14423062499999162,
          "durationTicks": 36,
          "midi": 35,
          "name": "B1",
          "ticks": 29854,
          "time": 119.60725218750001,
          "velocity": 0.952755905511811
        },
        {
          "duration": 0.11217937499998243,
          "durationTicks": 28,
          "midi": 42,
          "name": "F#2",
          "ticks": 29854,
          "time": 119.60725218750001,
          "velocity": 0.889763779527559
        },
        {
          "duration": 1.2660243749999864,
          "durationTicks": 316,
          "midi": 35,
          "name": "B1",
          "ticks": 29950,
          "time": 119.9918671875,
          "velocity": 0.9763779527559056
        },
        {
          "duration": 0.14423062499999162,
          "durationTicks": 36,
          "midi": 42,
          "name": "F#2",
          "ticks": 29950,
          "time": 119.9918671875,
          "velocity": 0.9448818897637795
        },
        {
          "duration": 0.12820499999999413,
          "durationTicks": 32,
          "midi": 42,
          "name": "F#2",
          "ticks": 30046,
          "time": 120.3764821875,
          "velocity": 0.905511811023622
        },
        {
          "duration": 1.1939090624999835,
          "durationTicks": 298,
          "midi": 40,
          "name": "E2",
          "ticks": 30142,
          "time": 120.7610971875,
          "velocity": 0.9763779527559056
        },
        {
          "duration": 0.1602562499999891,
          "durationTicks": 40,
          "midi": 42,
          "name": "F#2",
          "ticks": 30142,
          "time": 120.7610971875,
          "velocity": 0.968503937007874
        },
        {
          "duration": 0.11217937499999664,
          "durationTicks": 28,
          "midi": 42,
          "name": "F#2",
          "ticks": 30238,
          "time": 121.1457121875,
          "velocity": 0.9133858267716536
        },
        {
          "duration": 0.8733965624999911,
          "durationTicks": 218,
          "midi": 35,
          "name": "B1",
          "ticks": 30334,
          "time": 121.5303271875,
          "velocity": 0.9763779527559056
        },
        {
          "duration": 0.15224343749999036,
          "durationTicks": 38,
          "midi": 42,
          "name": "F#2",
          "ticks": 30334,
          "time": 121.5303271875,
          "velocity": 0.952755905511811
        },
        {
          "duration": 0.12019218749999538,
          "durationTicks": 30,
          "midi": 42,
          "name": "F#2",
          "ticks": 30430,
          "time": 121.9149421875,
          "velocity": 0.9133858267716536
        },
        {
          "duration": 1.2499987500000032,
          "durationTicks": 312,
          "midi": 40,
          "name": "E2",
          "ticks": 30526,
          "time": 122.2995571875,
          "velocity": 0.9763779527559056
        },
        {
          "duration": 0.1602562499999891,
          "durationTicks": 40,
          "midi": 42,
          "name": "F#2",
          "ticks": 30526,
          "time": 122.2995571875,
          "velocity": 0.9606299212598425
        },
        {
          "duration": 0.14423062500000583,
          "durationTicks": 36,
          "midi": 35,
          "name": "B1",
          "ticks": 30622,
          "time": 122.6841721875,
          "velocity": 0.9291338582677166
        },
        {
          "duration": 0.13621781249999287,
          "durationTicks": 34,
          "midi": 42,
          "name": "F#2",
          "ticks": 30622,
          "time": 122.6841721875,
          "velocity": 0.905511811023622
        },
        {
          "duration": 0.9935887499999865,
          "durationTicks": 248,
          "midi": 35,
          "name": "B1",
          "ticks": 30718,
          "time": 123.0687871875,
          "velocity": 0.9763779527559056
        },
        {
          "duration": 0.14423062499999162,
          "durationTicks": 36,
          "midi": 42,
          "name": "F#2",
          "ticks": 30718,
          "time": 123.0687871875,
          "velocity": 0.952755905511811
        },
        {
          "duration": 0.1041665624999979,
          "durationTicks": 26,
          "midi": 42,
          "name": "F#2",
          "ticks": 30814,
          "time": 123.4534021875,
          "velocity": 0.889763779527559
        },
        {
          "duration": 1.2019218749999965,
          "durationTicks": 300,
          "midi": 40,
          "name": "E2",
          "ticks": 30910,
          "time": 123.8380171875,
          "velocity": 0.9763779527559056
        },
        {
          "duration": 0.1602562499999891,
          "durationTicks": 40,
          "midi": 42,
          "name": "F#2",
          "ticks": 30910,
          "time": 123.8380171875,
          "velocity": 0.9606299212598425
        },
        {
          "duration": 0.13621781249999287,
          "durationTicks": 34,
          "midi": 35,
          "name": "B1",
          "ticks": 31006,
          "time": 124.2226321875,
          "velocity": 0.9448818897637795
        },
        {
          "duration": 0.1201921875000096,
          "durationTicks": 30,
          "midi": 43,
          "name": "G2",
          "ticks": 31006,
          "time": 124.2226321875,
          "velocity": 0.952755905511811
        },
        {
          "duration": 0.8733965624999911,
          "durationTicks": 218,
          "midi": 35,
          "name": "B1",
          "ticks": 31102,
          "time": 124.60724718750001,
          "velocity": 0.968503937007874
        },
        {
          "duration": 1.1538449999999898,
          "durationTicks": 288,
          "midi": 49,
          "name": "C#3",
          "ticks": 31102,
          "time": 124.60724718750001,
          "velocity": 0.968503937007874
        },
        {
          "duration": 0.3846149999999966,
          "durationTicks": 96,
          "midi": 46,
          "name": "A#2",
          "ticks": 31198,
          "time": 124.9918621875,
          "velocity": 0.9448818897637795
        },
        {
          "duration": 1.3141012499999931,
          "durationTicks": 328,
          "midi": 40,
          "name": "E2",
          "ticks": 31294,
          "time": 125.3764771875,
          "velocity": 0.9763779527559056
        },
        {
          "duration": 0.3846149999999966,
          "durationTicks": 96,
          "midi": 46,
          "name": "A#2",
          "ticks": 31294,
          "time": 125.3764771875,
          "velocity": 0.952755905511811
        },
        {
          "duration": 0.14423062500000583,
          "durationTicks": 36,
          "midi": 35,
          "name": "B1",
          "ticks": 31390,
          "time": 125.7610921875,
          "velocity": 0.968503937007874
        },
        {
          "duration": 0.3846150000000108,
          "durationTicks": 96,
          "midi": 49,
          "name": "C#3",
          "ticks": 31390,
          "time": 125.7610921875,
          "velocity": 0.9763779527559056
        },
        {
          "duration": 0.3365381249999899,
          "durationTicks": 84,
          "midi": 35,
          "name": "B1",
          "ticks": 31486,
          "time": 126.14570718750001,
          "velocity": 0.9763779527559056
        },
        {
          "duration": 0.7692299999999932,
          "durationTicks": 192,
          "midi": 49,
          "name": "C#3",
          "ticks": 31486,
          "time": 126.14570718750001,
          "velocity": 0.9763779527559056
        },
        {
          "duration": 0.3846149999999966,
          "durationTicks": 96,
          "midi": 46,
          "name": "A#2",
          "ticks": 31582,
          "time": 126.5303221875,
          "velocity": 0.937007874015748
        },
        {
          "duration": 0.5128199999999907,
          "durationTicks": 128,
          "midi": 35,
          "name": "B1",
          "ticks": 31630,
          "time": 126.7226296875,
          "velocity": 0.9448818897637795
        },
        {
          "duration": 1.3701909374999985,
          "durationTicks": 342,
          "midi": 40,
          "name": "E2",
          "ticks": 31678,
          "time": 126.9149371875,
          "velocity": 0.9763779527559056
        },
        {
          "duration": 0,
          "durationTicks": 0,
          "midi": 49,
          "name": "C#3",
          "ticks": 31678,
          "time": 126.9149371875,
          "velocity": 0.9763779527559056
        },
        {
          "duration": 0.1923074999999983,
          "durationTicks": 48,
          "midi": 35,
          "name": "B1",
          "ticks": 31774,
          "time": 127.2995521875,
          "velocity": 0.968503937007874
        },
        {
          "duration": 0.3846150000000108,
          "durationTicks": 96,
          "midi": 46,
          "name": "A#2",
          "ticks": 31774,
          "time": 127.2995521875,
          "velocity": 0.937007874015748
        },
        {
          "duration": 0.5048071875000062,
          "durationTicks": 126,
          "midi": 35,
          "name": "B1",
          "ticks": 31870,
          "time": 127.68416718750001,
          "velocity": 0.9763779527559056
        },
        {
          "duration": 1.5384599999999864,
          "durationTicks": 384,
          "midi": 49,
          "name": "C#3",
          "ticks": 31870,
          "time": 127.68416718750001,
          "velocity": 0.9763779527559056
        },
        {
          "duration": 0.3846149999999966,
          "durationTicks": 96,
          "midi": 46,
          "name": "A#2",
          "ticks": 31966,
          "time": 128.0687821875,
          "velocity": 0.952755905511811
        },
        {
          "duration": 0.4407046874999878,
          "durationTicks": 110,
          "midi": 40,
          "name": "E2",
          "ticks": 32062,
          "time": 128.4533971875,
          "velocity": 0.9763779527559056
        },
        {
          "duration": 0.3846149999999966,
          "durationTicks": 96,
          "midi": 46,
          "name": "A#2",
          "ticks": 32062,
          "time": 128.4533971875,
          "velocity": 0.9448818897637795
        },
        {
          "duration": 0.40865343749999283,
          "durationTicks": 102,
          "midi": 35,
          "name": "B1",
          "ticks": 32158,
          "time": 128.8380121875,
          "velocity": 0.9763779527559056
        },
        {
          "duration": 0,
          "durationTicks": 0,
          "midi": 46,
          "name": "A#2",
          "ticks": 32158,
          "time": 128.8380121875,
          "velocity": 0.9448818897637795
        },
        {
          "duration": 0.4407046874999878,
          "durationTicks": 110,
          "midi": 40,
          "name": "E2",
          "ticks": 32254,
          "time": 129.2226271875,
          "velocity": 0.9763779527559056
        },
        {
          "duration": 0,
          "durationTicks": 0,
          "midi": 46,
          "name": "A#2",
          "ticks": 32254,
          "time": 129.2226271875,
          "velocity": 0.968503937007874
        },
        {
          "duration": 0.36057656250000036,
          "durationTicks": 90,
          "midi": 35,
          "name": "B1",
          "ticks": 32350,
          "time": 129.6072421875,
          "velocity": 0.9763779527559056
        },
        {
          "duration": 0.1201921875000096,
          "durationTicks": 30,
          "midi": 40,
          "name": "E2",
          "ticks": 32446,
          "time": 129.9918571875,
          "velocity": 0.9763779527559056
        },
        {
          "duration": 0.19230750000002672,
          "durationTicks": 48,
          "midi": 42,
          "name": "F#2",
          "ticks": 32446,
          "time": 129.9918571875,
          "velocity": 0.9448818897637795
        },
        {
          "duration": 0.12820499999997992,
          "durationTicks": 32,
          "midi": 43,
          "name": "G2",
          "ticks": 32494,
          "time": 130.18416468750002,
          "velocity": 0.968503937007874
        },
        {
          "duration": 0.1602562499999749,
          "durationTicks": 40,
          "midi": 35,
          "name": "B1",
          "ticks": 32542,
          "time": 130.3764721875,
          "velocity": 0.968503937007874
        },
        {
          "duration": 0.1923074999999983,
          "durationTicks": 48,
          "midi": 45,
          "name": "A2",
          "ticks": 32542,
          "time": 130.3764721875,
          "velocity": 0.9763779527559056
        },
        {
          "duration": 1.0336528124999802,
          "durationTicks": 258,
          "midi": 35,
          "name": "B1",
          "ticks": 32638,
          "time": 130.7610871875,
          "velocity": 0.9763779527559056
        },
        {
          "duration": 0.3846149999999966,
          "durationTicks": 96,
          "midi": 49,
          "name": "C#3",
          "ticks": 32638,
          "time": 130.7610871875,
          "velocity": 0.968503937007874
        },
        {
          "duration": 0.18429468749997113,
          "durationTicks": 46,
          "midi": 51,
          "name": "D#3",
          "ticks": 32734,
          "time": 131.1457021875,
          "velocity": 0.9448818897637795
        },
        {
          "duration": 1.258011562500002,
          "durationTicks": 314,
          "midi": 40,
          "name": "E2",
          "ticks": 32830,
          "time": 131.5303171875,
          "velocity": 0.9763779527559056
        },
        {
          "duration": 0.264422812499987,
          "durationTicks": 66,
          "midi": 42,
          "name": "F#2",
          "ticks": 32830,
          "time": 131.5303171875,
          "velocity": 0.9606299212598425
        },
        {
          "duration": 0.18429468749997113,
          "durationTicks": 46,
          "midi": 51,
          "name": "D#3",
          "ticks": 32830,
          "time": 131.5303171875,
          "velocity": 0.9606299212598425
        },
        {
          "duration": 0.1201921875000096,
          "durationTicks": 30,
          "midi": 35,
          "name": "B1",
          "ticks": 32926,
          "time": 131.9149321875,
          "velocity": 0.9212598425196851
        },
        {
          "duration": 0.10416656249998368,
          "durationTicks": 26,
          "midi": 51,
          "name": "D#3",
          "ticks": 32926,
          "time": 131.9149321875,
          "velocity": 0.9448818897637795
        },
        {
          "duration": 1.2339731250000057,
          "durationTicks": 308,
          "midi": 35,
          "name": "B1",
          "ticks": 33022,
          "time": 132.2995471875,
          "velocity": 0.968503937007874
        },
        {
          "duration": 0.18429468749999955,
          "durationTicks": 46,
          "midi": 51,
          "name": "D#3",
          "ticks": 33022,
          "time": 132.2995471875,
          "velocity": 0.9606299212598425
        },
        {
          "duration": 0.08012812500001587,
          "durationTicks": 20,
          "midi": 51,
          "name": "D#3",
          "ticks": 33118,
          "time": 132.6841621875,
          "velocity": 0.9212598425196851
        },
        {
          "duration": 1.1698706249999873,
          "durationTicks": 292,
          "midi": 40,
          "name": "E2",
          "ticks": 33214,
          "time": 133.0687771875,
          "velocity": 0.9763779527559056
        },
        {
          "duration": 0.2083331249999958,
          "durationTicks": 52,
          "midi": 42,
          "name": "F#2",
          "ticks": 33214,
          "time": 133.0687771875,
          "velocity": 0.968503937007874
        },
        {
          "duration": 0.18429468749999955,
          "durationTicks": 46,
          "midi": 51,
          "name": "D#3",
          "ticks": 33214,
          "time": 133.0687771875,
          "velocity": 0.968503937007874
        },
        {
          "duration": 0.13621781249997866,
          "durationTicks": 34,
          "midi": 51,
          "name": "D#3",
          "ticks": 33310,
          "time": 133.45339218750001,
          "velocity": 0.9291338582677166
        },
        {
          "duration": 0.8814093749999756,
          "durationTicks": 220,
          "midi": 35,
          "name": "B1",
          "ticks": 33406,
          "time": 133.8380071875,
          "velocity": 0.9763779527559056
        },
        {
          "duration": 0.11217937499998243,
          "durationTicks": 28,
          "midi": 51,
          "name": "D#3",
          "ticks": 33406,
          "time": 133.8380071875,
          "velocity": 0.9606299212598425
        },
        {
          "duration": 0.08012812499998745,
          "durationTicks": 20,
          "midi": 51,
          "name": "D#3",
          "ticks": 33502,
          "time": 134.2226221875,
          "velocity": 0.937007874015748
        },
        {
          "duration": 1.1858962499999848,
          "durationTicks": 296,
          "midi": 40,
          "name": "E2",
          "ticks": 33598,
          "time": 134.6072371875,
          "velocity": 0.9763779527559056
        },
        {
          "duration": 0.22435874999999328,
          "durationTicks": 56,
          "midi": 42,
          "name": "F#2",
          "ticks": 33598,
          "time": 134.6072371875,
          "velocity": 0.968503937007874
        },
        {
          "duration": 0.18429468749997113,
          "durationTicks": 46,
          "midi": 51,
          "name": "D#3",
          "ticks": 33598,
          "time": 134.6072371875,
          "velocity": 0.968503937007874
        },
        {
          "duration": 0.0721153124999887,
          "durationTicks": 18,
          "midi": 35,
          "name": "B1",
          "ticks": 33694,
          "time": 134.9918521875,
          "velocity": 0.952755905511811
        },
        {
          "duration": 0.13621781249997866,
          "durationTicks": 34,
          "midi": 51,
          "name": "D#3",
          "ticks": 33694,
          "time": 134.9918521875,
          "velocity": 0.9448818897637795
        },
        {
          "duration": 0.9054478125000003,
          "durationTicks": 226,
          "midi": 35,
          "name": "B1",
          "ticks": 33790,
          "time": 135.3764671875,
          "velocity": 0.9763779527559056
        },
        {
          "duration": 0.12820500000000834,
          "durationTicks": 32,
          "midi": 51,
          "name": "D#3",
          "ticks": 33790,
          "time": 135.3764671875,
          "velocity": 0.9606299212598425
        },
        {
          "duration": 0.1041665625000121,
          "durationTicks": 26,
          "midi": 51,
          "name": "D#3",
          "ticks": 33886,
          "time": 135.7610821875,
          "velocity": 0.9448818897637795
        },
        {
          "duration": 1.1778834375000145,
          "durationTicks": 294,
          "midi": 40,
          "name": "E2",
          "ticks": 33982,
          "time": 136.1456971875,
          "velocity": 0.9763779527559056
        },
        {
          "duration": 0.24839718750001794,
          "durationTicks": 62,
          "midi": 42,
          "name": "F#2",
          "ticks": 33982,
          "time": 136.1456971875,
          "velocity": 0.9763779527559056
        },
        {
          "duration": 0.1201921875000096,
          "durationTicks": 30,
          "midi": 51,
          "name": "D#3",
          "ticks": 33982,
          "time": 136.1456971875,
          "velocity": 0.968503937007874
        },
        {
          "duration": 0.0721153124999887,
          "durationTicks": 18,
          "midi": 35,
          "name": "B1",
          "ticks": 34078,
          "time": 136.53031218750002,
          "velocity": 0.9133858267716536
        },
        {
          "duration": 0.13621781249997866,
          "durationTicks": 34,
          "midi": 51,
          "name": "D#3",
          "ticks": 34078,
          "time": 136.53031218750002,
          "velocity": 0.889763779527559
        },
        {
          "duration": 0.8894221875000028,
          "durationTicks": 222,
          "midi": 35,
          "name": "B1",
          "ticks": 34174,
          "time": 136.9149271875,
          "velocity": 0.9763779527559056
        },
        {
          "duration": 0.13621781249997866,
          "durationTicks": 34,
          "midi": 51,
          "name": "D#3",
          "ticks": 34174,
          "time": 136.9149271875,
          "velocity": 0.9606299212598425
        },
        {
          "duration": 0.10416656249998368,
          "durationTicks": 26,
          "midi": 51,
          "name": "D#3",
          "ticks": 34270,
          "time": 137.2995421875,
          "velocity": 0.9291338582677166
        },
        {
          "duration": 1.0496784374999777,
          "durationTicks": 262,
          "midi": 40,
          "name": "E2",
          "ticks": 34366,
          "time": 137.6841571875,
          "velocity": 0.9763779527559056
        },
        {
          "duration": 0.23237156249999202,
          "durationTicks": 58,
          "midi": 42,
          "name": "F#2",
          "ticks": 34366,
          "time": 137.6841571875,
          "velocity": 0.968503937007874
        },
        {
          "duration": 0.14423062500000583,
          "durationTicks": 36,
          "midi": 51,
          "name": "D#3",
          "ticks": 34366,
          "time": 137.6841571875,
          "velocity": 0.968503937007874
        },
        {
          "duration": 0.0881409374999862,
          "durationTicks": 22,
          "midi": 35,
          "name": "B1",
          "ticks": 34462,
          "time": 138.0687721875,
          "velocity": 0.9291338582677166
        },
        {
          "duration": 0.11217937499998243,
          "durationTicks": 28,
          "midi": 51,
          "name": "D#3",
          "ticks": 34462,
          "time": 138.0687721875,
          "velocity": 0.9448818897637795
        },
        {
          "duration": 0.7772428124999919,
          "durationTicks": 194,
          "midi": 35,
          "name": "B1",
          "ticks": 34558,
          "time": 138.4533871875,
          "velocity": 0.968503937007874
        },
        {
          "duration": 0.15224343750000457,
          "durationTicks": 38,
          "midi": 51,
          "name": "D#3",
          "ticks": 34558,
          "time": 138.4533871875,
          "velocity": 0.968503937007874
        },
        {
          "duration": 0.0881409374999862,
          "durationTicks": 22,
          "midi": 51,
          "name": "D#3",
          "ticks": 34654,
          "time": 138.8380021875,
          "velocity": 0.937007874015748
        },
        {
          "duration": 1.2099346875000094,
          "durationTicks": 302,
          "midi": 40,
          "name": "E2",
          "ticks": 34750,
          "time": 139.2226171875,
          "velocity": 0.9763779527559056
        },
        {
          "duration": 0.23237156249999202,
          "durationTicks": 58,
          "midi": 42,
          "name": "F#2",
          "ticks": 34750,
          "time": 139.2226171875,
          "velocity": 0.968503937007874
        },
        {
          "duration": 0.16025625000000332,
          "durationTicks": 40,
          "midi": 51,
          "name": "D#3",
          "ticks": 34750,
          "time": 139.2226171875,
          "velocity": 0.968503937007874
        },
        {
          "duration": 0.08012812500001587,
          "durationTicks": 20,
          "midi": 35,
          "name": "B1",
          "ticks": 34846,
          "time": 139.6072321875,
          "velocity": 0.9212598425196851
        },
        {
          "duration": 0.1041665625000121,
          "durationTicks": 26,
          "midi": 51,
          "name": "D#3",
          "ticks": 34846,
          "time": 139.6072321875,
          "velocity": 0.9448818897637795
        },
        {
          "duration": 0.8814093749999756,
          "durationTicks": 220,
          "midi": 35,
          "name": "B1",
          "ticks": 34942,
          "time": 139.9918471875,
          "velocity": 0.968503937007874
        },
        {
          "duration": 0.12820499999997992,
          "durationTicks": 32,
          "midi": 51,
          "name": "D#3",
          "ticks": 34942,
          "time": 139.9918471875,
          "velocity": 0.968503937007874
        },
        {
          "duration": 0.0881409374999862,
          "durationTicks": 22,
          "midi": 51,
          "name": "D#3",
          "ticks": 35038,
          "time": 140.3764621875,
          "velocity": 0.937007874015748
        },
        {
          "duration": 0.8413453124999819,
          "durationTicks": 210,
          "midi": 40,
          "name": "E2",
          "ticks": 35134,
          "time": 140.7610771875,
          "velocity": 0.9763779527559056
        },
        {
          "duration": 0.1762818750000008,
          "durationTicks": 44,
          "midi": 42,
          "name": "F#2",
          "ticks": 35134,
          "time": 140.7610771875,
          "velocity": 0.952755905511811
        },
        {
          "duration": 0.13621781249997866,
          "durationTicks": 34,
          "midi": 51,
          "name": "D#3",
          "ticks": 35134,
          "time": 140.7610771875,
          "velocity": 0.9763779527559056
        },
        {
          "duration": 0.0721153124999887,
          "durationTicks": 18,
          "midi": 35,
          "name": "B1",
          "ticks": 35230,
          "time": 141.1456921875,
          "velocity": 0.9606299212598425
        },
        {
          "duration": 0.1201921875000096,
          "durationTicks": 30,
          "midi": 51,
          "name": "D#3",
          "ticks": 35230,
          "time": 141.1456921875,
          "velocity": 0.9448818897637795
        },
        {
          "duration": 0.8573709374999794,
          "durationTicks": 214,
          "midi": 35,
          "name": "B1",
          "ticks": 35326,
          "time": 141.5303071875,
          "velocity": 0.9763779527559056
        },
        {
          "duration": 0.11217937499998243,
          "durationTicks": 28,
          "midi": 51,
          "name": "D#3",
          "ticks": 35326,
          "time": 141.5303071875,
          "velocity": 0.9606299212598425
        },
        {
          "duration": 0.11217937499998243,
          "durationTicks": 28,
          "midi": 40,
          "name": "E2",
          "ticks": 35422,
          "time": 141.9149221875,
          "velocity": 0.9763779527559056
        },
        {
          "duration": 0.07211531250001713,
          "durationTicks": 18,
          "midi": 51,
          "name": "D#3",
          "ticks": 35422,
          "time": 141.9149221875,
          "velocity": 0.9448818897637795
        },
        {
          "duration": 0.1041665625000121,
          "durationTicks": 26,
          "midi": 40,
          "name": "E2",
          "ticks": 35518,
          "time": 142.2995371875,
          "velocity": 0.9763779527559056
        },
        {
          "duration": 0.15224343750000457,
          "durationTicks": 38,
          "midi": 42,
          "name": "F#2",
          "ticks": 35518,
          "time": 142.2995371875,
          "velocity": 0.952755905511811
        },
        {
          "duration": 0.1762818750000008,
          "durationTicks": 44,
          "midi": 43,
          "name": "G2",
          "ticks": 35566,
          "time": 142.4918446875,
          "velocity": 0.968503937007874
        },
        {
          "duration": 0.12820500000000834,
          "durationTicks": 32,
          "midi": 35,
          "name": "B1",
          "ticks": 35614,
          "time": 142.6841521875,
          "velocity": 0.9763779527559056
        },
        {
          "duration": 0.12820500000000834,
          "durationTicks": 32,
          "midi": 45,
          "name": "A2",
          "ticks": 35614,
          "time": 142.6841521875,
          "velocity": 0.9606299212598425
        },
        {
          "duration": 1.0176271874999827,
          "durationTicks": 254,
          "midi": 35,
          "name": "B1",
          "ticks": 35710,
          "time": 143.06876718750001,
          "velocity": 0.968503937007874
        },
        {
          "duration": 0.3525637499999732,
          "durationTicks": 88,
          "midi": 49,
          "name": "C#3",
          "ticks": 35710,
          "time": 143.06876718750001,
          "velocity": 0.9606299212598425
        },
        {
          "duration": 0.20833312499996737,
          "durationTicks": 52,
          "midi": 51,
          "name": "D#3",
          "ticks": 35806,
          "time": 143.4533821875,
          "velocity": 0.9448818897637795
        },
        {
          "duration": 1.1618578124999885,
          "durationTicks": 290,
          "midi": 40,
          "name": "E2",
          "ticks": 35902,
          "time": 143.8379971875,
          "velocity": 0.9763779527559056
        },
        {
          "duration": 0.4166662499999916,
          "durationTicks": 104,
          "midi": 42,
          "name": "F#2",
          "ticks": 35902,
          "time": 143.8379971875,
          "velocity": 0.9606299212598425
        },
        {
          "duration": 0.16826906250000206,
          "durationTicks": 42,
          "midi": 51,
          "name": "D#3",
          "ticks": 35902,
          "time": 143.8379971875,
          "velocity": 0.9606299212598425
        },
        {
          "duration": 0.09615374999998494,
          "durationTicks": 24,
          "midi": 35,
          "name": "B1",
          "ticks": 35998,
          "time": 144.2226121875,
          "velocity": 0.9291338582677166
        },
        {
          "duration": 0.12820499999997992,
          "durationTicks": 32,
          "midi": 51,
          "name": "D#3",
          "ticks": 35998,
          "time": 144.2226121875,
          "velocity": 0.9448818897637795
        },
        {
          "duration": 0.8573709374999794,
          "durationTicks": 214,
          "midi": 35,
          "name": "B1",
          "ticks": 36094,
          "time": 144.6072271875,
          "velocity": 0.968503937007874
        },
        {
          "duration": 0.09615375000001336,
          "durationTicks": 24,
          "midi": 51,
          "name": "D#3",
          "ticks": 36094,
          "time": 144.6072271875,
          "velocity": 0.968503937007874
        },
        {
          "duration": 0.056089687499991214,
          "durationTicks": 14,
          "midi": 51,
          "name": "D#3",
          "ticks": 36190,
          "time": 144.9918421875,
          "velocity": 0.937007874015748
        },
        {
          "duration": 1.1778834375000145,
          "durationTicks": 294,
          "midi": 40,
          "name": "E2",
          "ticks": 36286,
          "time": 145.3764571875,
          "velocity": 0.9763779527559056
        },
        {
          "duration": 0.21634593749999453,
          "durationTicks": 54,
          "midi": 42,
          "name": "F#2",
          "ticks": 36286,
          "time": 145.3764571875,
          "velocity": 0.968503937007874
        },
        {
          "duration": 0.11217937499998243,
          "durationTicks": 28,
          "midi": 51,
          "name": "D#3",
          "ticks": 36286,
          "time": 145.3764571875,
          "velocity": 0.968503937007874
        },
        {
          "duration": 0.13621781250000708,
          "durationTicks": 34,
          "midi": 35,
          "name": "B1",
          "ticks": 36382,
          "time": 145.7610721875,
          "velocity": 0.8976377952755905
        },
        {
          "duration": 0.1201921875000096,
          "durationTicks": 30,
          "midi": 51,
          "name": "D#3",
          "ticks": 36382,
          "time": 145.7610721875,
          "velocity": 0.9291338582677166
        },
        {
          "duration": 0.9054478125000003,
          "durationTicks": 226,
          "midi": 35,
          "name": "B1",
          "ticks": 36478,
          "time": 146.1456871875,
          "velocity": 0.9763779527559056
        },
        {
          "duration": 0.1041665625000121,
          "durationTicks": 26,
          "midi": 51,
          "name": "D#3",
          "ticks": 36478,
          "time": 146.1456871875,
          "velocity": 0.968503937007874
        },
        {
          "duration": 0.09615374999998494,
          "durationTicks": 24,
          "midi": 51,
          "name": "D#3",
          "ticks": 36574,
          "time": 146.5303021875,
          "velocity": 0.8976377952755905
        },
        {
          "duration": 1.0657040624999752,
          "durationTicks": 266,
          "midi": 40,
          "name": "E2",
          "ticks": 36670,
          "time": 146.9149171875,
          "velocity": 0.9763779527559056
        },
        {
          "duration": 0.22435874999999328,
          "durationTicks": 56,
          "midi": 42,
          "name": "F#2",
          "ticks": 36670,
          "time": 146.9149171875,
          "velocity": 0.9606299212598425
        },
        {
          "duration": 0.12019218749998117,
          "durationTicks": 30,
          "midi": 51,
          "name": "D#3",
          "ticks": 36670,
          "time": 146.9149171875,
          "velocity": 0.968503937007874
        },
        {
          "duration": 0.11217937499998243,
          "durationTicks": 28,
          "midi": 35,
          "name": "B1",
          "ticks": 36766,
          "time": 147.2995321875,
          "velocity": 0.8976377952755905
        },
        {
          "duration": 0.10416656249998368,
          "durationTicks": 26,
          "midi": 51,
          "name": "D#3",
          "ticks": 36766,
          "time": 147.2995321875,
          "velocity": 0.905511811023622
        },
        {
          "duration": 0.8653837500000066,
          "durationTicks": 216,
          "midi": 35,
          "name": "B1",
          "ticks": 36862,
          "time": 147.6841471875,
          "velocity": 0.9763779527559056
        },
        {
          "duration": 0.11217937499998243,
          "durationTicks": 28,
          "midi": 51,
          "name": "D#3",
          "ticks": 36862,
          "time": 147.6841471875,
          "velocity": 0.9606299212598425
        },
        {
          "duration": 0.08012812499998745,
          "durationTicks": 20,
          "midi": 51,
          "name": "D#3",
          "ticks": 36958,
          "time": 148.0687621875,
          "velocity": 0.905511811023622
        },
        {
          "duration": 1.2099346875000094,
          "durationTicks": 302,
          "midi": 40,
          "name": "E2",
          "ticks": 37054,
          "time": 148.4533771875,
          "velocity": 0.968503937007874
        },
        {
          "duration": 0.27243562499998575,
          "durationTicks": 68,
          "midi": 42,
          "name": "F#2",
          "ticks": 37054,
          "time": 148.4533771875,
          "velocity": 0.9763779527559056
        },
        {
          "duration": 0.15224343750000457,
          "durationTicks": 38,
          "midi": 51,
          "name": "D#3",
          "ticks": 37054,
          "time": 148.4533771875,
          "velocity": 0.9606299212598425
        },
        {
          "duration": 0.12820500000000834,
          "durationTicks": 32,
          "midi": 35,
          "name": "B1",
          "ticks": 37150,
          "time": 148.8379921875,
          "velocity": 0.9291338582677166
        },
        {
          "duration": 0.13621781250000708,
          "durationTicks": 34,
          "midi": 51,
          "name": "D#3",
          "ticks": 37150,
          "time": 148.8379921875,
          "velocity": 0.952755905511811
        },
        {
          "duration": 0.8974350000000015,
          "durationTicks": 224,
          "midi": 35,
          "name": "B1",
          "ticks": 37246,
          "time": 149.2226071875,
          "velocity": 0.9763779527559056
        },
        {
          "duration": 0.3685893749999991,
          "durationTicks": 92,
          "midi": 49,
          "name": "C#3",
          "ticks": 37246,
          "time": 149.2226071875,
          "velocity": 0.968503937007874
        },
        {
          "duration": 0.11217937499998243,
          "durationTicks": 28,
          "midi": 51,
          "name": "D#3",
          "ticks": 37342,
          "time": 149.6072221875,
          "velocity": 0.9448818897637795
        },
        {
          "duration": 1.081729687500001,
          "durationTicks": 270,
          "midi": 40,
          "name": "E2",
          "ticks": 37438,
          "time": 149.9918371875,
          "velocity": 0.9763779527559056
        },
        {
          "duration": 0.28846124999998324,
          "durationTicks": 72,
          "midi": 42,
          "name": "F#2",
          "ticks": 37438,
          "time": 149.9918371875,
          "velocity": 0.968503937007874
        },
        {
          "duration": 0.40865343749999283,
          "durationTicks": 102,
          "midi": 51,
          "name": "D#3",
          "ticks": 37438,
          "time": 149.9918371875,
          "velocity": 0.9763779527559056
        },
        {
          "duration": 0.10416656249998368,
          "durationTicks": 26,
          "midi": 35,
          "name": "B1",
          "ticks": 37534,
          "time": 150.3764521875,
          "velocity": 0.9448818897637795
        },
        {
          "duration": 1.145832187499991,
          "durationTicks": 286,
          "midi": 35,
          "name": "B1",
          "ticks": 37630,
          "time": 150.7610671875,
          "velocity": 0.968503937007874
        },
        {
          "duration": 0.08012812499998745,
          "durationTicks": 20,
          "midi": 51,
          "name": "D#3",
          "ticks": 37630,
          "time": 150.7610671875,
          "velocity": 0.968503937007874
        },
        {
          "duration": 1.1778834375000145,
          "durationTicks": 294,
          "midi": 40,
          "name": "E2",
          "ticks": 37822,
          "time": 151.5302971875,
          "velocity": 0.9763779527559056
        },
        {
          "duration": 0.2964740625000104,
          "durationTicks": 74,
          "midi": 42,
          "name": "F#2",
          "ticks": 37822,
          "time": 151.5302971875,
          "velocity": 0.968503937007874
        },
        {
          "duration": 0.16826906250000206,
          "durationTicks": 42,
          "midi": 51,
          "name": "D#3",
          "ticks": 37822,
          "time": 151.5302971875,
          "velocity": 0.968503937007874
        },
        {
          "duration": 0.1041665625000121,
          "durationTicks": 26,
          "midi": 51,
          "name": "D#3",
          "ticks": 37918,
          "time": 151.9149121875,
          "velocity": 0.9448818897637795
        },
        {
          "duration": 0.8653837500000066,
          "durationTicks": 216,
          "midi": 35,
          "name": "B1",
          "ticks": 38014,
          "time": 152.2995271875,
          "velocity": 0.9763779527559056
        },
        {
          "duration": 0.18429468749999955,
          "durationTicks": 46,
          "midi": 49,
          "name": "C#3",
          "ticks": 38014,
          "time": 152.2995271875,
          "velocity": 0.968503937007874
        },
        {
          "duration": 0.12820499999997992,
          "durationTicks": 32,
          "midi": 51,
          "name": "D#3",
          "ticks": 38110,
          "time": 152.68414218750002,
          "velocity": 0.9212598425196851
        },
        {
          "duration": 1.0176271874999827,
          "durationTicks": 254,
          "midi": 40,
          "name": "E2",
          "ticks": 38206,
          "time": 153.0687571875,
          "velocity": 0.968503937007874
        },
        {
          "duration": 0.27243562499998575,
          "durationTicks": 68,
          "midi": 42,
          "name": "F#2",
          "ticks": 38206,
          "time": 153.0687571875,
          "velocity": 0.9763779527559056
        },
        {
          "duration": 0.1602562499999749,
          "durationTicks": 40,
          "midi": 51,
          "name": "D#3",
          "ticks": 38206,
          "time": 153.0687571875,
          "velocity": 0.968503937007874
        },
        {
          "duration": 0.16826906250000206,
          "durationTicks": 42,
          "midi": 35,
          "name": "B1",
          "ticks": 38302,
          "time": 153.4533721875,
          "velocity": 0.937007874015748
        },
        {
          "duration": 0.10416656249998368,
          "durationTicks": 26,
          "midi": 51,
          "name": "D#3",
          "ticks": 38302,
          "time": 153.4533721875,
          "velocity": 0.9448818897637795
        },
        {
          "duration": 0.8173068749999857,
          "durationTicks": 204,
          "midi": 35,
          "name": "B1",
          "ticks": 38398,
          "time": 153.8379871875,
          "velocity": 0.9606299212598425
        },
        {
          "duration": 0.12820499999997992,
          "durationTicks": 32,
          "midi": 51,
          "name": "D#3",
          "ticks": 38398,
          "time": 153.8379871875,
          "velocity": 0.968503937007874
        },
        {
          "duration": 0.09615375000001336,
          "durationTicks": 24,
          "midi": 40,
          "name": "E2",
          "ticks": 38494,
          "time": 154.2226021875,
          "velocity": 0.968503937007874
        },
        {
          "duration": 0.23237156249999202,
          "durationTicks": 58,
          "midi": 42,
          "name": "F#2",
          "ticks": 38494,
          "time": 154.2226021875,
          "velocity": 0.968503937007874
        },
        {
          "duration": 0.1201921875000096,
          "durationTicks": 30,
          "midi": 51,
          "name": "D#3",
          "ticks": 38494,
          "time": 154.2226021875,
          "velocity": 0.9606299212598425
        },
        {
          "duration": 0.13621781249997866,
          "durationTicks": 34,
          "midi": 40,
          "name": "E2",
          "ticks": 38590,
          "time": 154.6072171875,
          "velocity": 0.968503937007874
        },
        {
          "duration": 0.18429468749999955,
          "durationTicks": 46,
          "midi": 43,
          "name": "G2",
          "ticks": 38638,
          "time": 154.7995246875,
          "velocity": 0.9606299212598425
        },
        {
          "duration": 0.11217937499998243,
          "durationTicks": 28,
          "midi": 51,
          "name": "D#3",
          "ticks": 38638,
          "time": 154.7995246875,
          "velocity": 0.968503937007874
        },
        {
          "duration": 0.15224343750000457,
          "durationTicks": 38,
          "midi": 35,
          "name": "B1",
          "ticks": 38686,
          "time": 154.9918321875,
          "velocity": 0.968503937007874
        },
        {
          "duration": 0.0881409374999862,
          "durationTicks": 22,
          "midi": 42,
          "name": "F#2",
          "ticks": 38686,
          "time": 154.9918321875,
          "velocity": 0.968503937007874
        },
        {
          "duration": 0.36057656250000036,
          "durationTicks": 90,
          "midi": 45,
          "name": "A2",
          "ticks": 38686,
          "time": 154.9918321875,
          "velocity": 0.9606299212598425
        },
        {
          "duration": 0.8573709375000078,
          "durationTicks": 214,
          "midi": 35,
          "name": "B1",
          "ticks": 38782,
          "time": 155.3764471875,
          "velocity": 0.968503937007874
        },
        {
          "duration": 0.5128200000000049,
          "durationTicks": 128,
          "midi": 49,
          "name": "C#3",
          "ticks": 38782,
          "time": 155.3764471875,
          "velocity": 0.968503937007874
        },
        {
          "duration": 1.1858962499999848,
          "durationTicks": 296,
          "midi": 40,
          "name": "E2",
          "ticks": 38974,
          "time": 156.1456771875,
          "velocity": 0.9763779527559056
        },
        {
          "duration": 0.3525637499999732,
          "durationTicks": 88,
          "midi": 42,
          "name": "F#2",
          "ticks": 38974,
          "time": 156.1456771875,
          "velocity": 0.968503937007874
        },
        {
          "duration": 0.22435874999999328,
          "durationTicks": 56,
          "midi": 51,
          "name": "D#3",
          "ticks": 38974,
          "time": 156.1456771875,
          "velocity": 0.968503937007874
        },
        {
          "duration": 0.15224343749997615,
          "durationTicks": 38,
          "midi": 35,
          "name": "B1",
          "ticks": 39070,
          "time": 156.5302921875,
          "velocity": 0.9133858267716536
        },
        {
          "duration": 0.10416656249998368,
          "durationTicks": 26,
          "midi": 51,
          "name": "D#3",
          "ticks": 39070,
          "time": 156.5302921875,
          "velocity": 0.952755905511811
        },
        {
          "duration": 0.8814093749999756,
          "durationTicks": 220,
          "midi": 35,
          "name": "B1",
          "ticks": 39166,
          "time": 156.9149071875,
          "velocity": 0.968503937007874
        },
        {
          "duration": 0.1923074999999983,
          "durationTicks": 48,
          "midi": 49,
          "name": "C#3",
          "ticks": 39166,
          "time": 156.9149071875,
          "velocity": 0.968503937007874
        },
        {
          "duration": 0.1201921875000096,
          "durationTicks": 30,
          "midi": 51,
          "name": "D#3",
          "ticks": 39262,
          "time": 157.2995221875,
          "velocity": 0.9448818897637795
        },
        {
          "duration": 1.1858962499999848,
          "durationTicks": 296,
          "midi": 40,
          "name": "E2",
          "ticks": 39358,
          "time": 157.6841371875,
          "velocity": 0.9763779527559056
        },
        {
          "duration": 0.32051250000000664,
          "durationTicks": 80,
          "midi": 42,
          "name": "F#2",
          "ticks": 39358,
          "time": 157.6841371875,
          "velocity": 0.968503937007874
        },
        {
          "duration": 0.15224343750000457,
          "durationTicks": 38,
          "midi": 51,
          "name": "D#3",
          "ticks": 39358,
          "time": 157.6841371875,
          "velocity": 0.968503937007874
        },
        {
          "duration": 0.1762818750000008,
          "durationTicks": 44,
          "midi": 35,
          "name": "B1",
          "ticks": 39454,
          "time": 158.0687521875,
          "velocity": 0.952755905511811
        },
        {
          "duration": 0.09615375000001336,
          "durationTicks": 24,
          "midi": 51,
          "name": "D#3",
          "ticks": 39454,
          "time": 158.0687521875,
          "velocity": 0.9606299212598425
        },
        {
          "duration": 0.913460624999999,
          "durationTicks": 228,
          "midi": 35,
          "name": "B1",
          "ticks": 39550,
          "time": 158.4533671875,
          "velocity": 0.9763779527559056
        },
        {
          "duration": 0.22435874999999328,
          "durationTicks": 56,
          "midi": 49,
          "name": "C#3",
          "ticks": 39550,
          "time": 158.4533671875,
          "velocity": 0.968503937007874
        },
        {
          "duration": 0.11217937500001085,
          "durationTicks": 28,
          "midi": 51,
          "name": "D#3",
          "ticks": 39646,
          "time": 158.8379821875,
          "velocity": 0.9291338582677166
        },
        {
          "duration": 1.1298065624999936,
          "durationTicks": 282,
          "midi": 40,
          "name": "E2",
          "ticks": 39742,
          "time": 159.2225971875,
          "velocity": 0.9763779527559056
        },
        {
          "duration": 0.2804484374999845,
          "durationTicks": 70,
          "midi": 42,
          "name": "F#2",
          "ticks": 39742,
          "time": 159.2225971875,
          "velocity": 0.968503937007874
        },
        {
          "duration": 0.1602562499999749,
          "durationTicks": 40,
          "midi": 51,
          "name": "D#3",
          "ticks": 39742,
          "time": 159.2225971875,
          "velocity": 0.968503937007874
        },
        {
          "duration": 0.13621781249997866,
          "durationTicks": 34,
          "midi": 35,
          "name": "B1",
          "ticks": 39838,
          "time": 159.6072121875,
          "velocity": 0.952755905511811
        },
        {
          "duration": 0.12019218749998117,
          "durationTicks": 30,
          "midi": 51,
          "name": "D#3",
          "ticks": 39838,
          "time": 159.6072121875,
          "velocity": 0.9448818897637795
        },
        {
          "duration": 0.8974349999999731,
          "durationTicks": 224,
          "midi": 35,
          "name": "B1",
          "ticks": 39934,
          "time": 159.9918271875,
          "velocity": 0.9763779527559056
        },
        {
          "duration": 0.16826906250000206,
          "durationTicks": 42,
          "midi": 51,
          "name": "D#3",
          "ticks": 39934,
          "time": 159.9918271875,
          "velocity": 0.968503937007874
        },
        {
          "duration": 0.11217937499998243,
          "durationTicks": 28,
          "midi": 51,
          "name": "D#3",
          "ticks": 40030,
          "time": 160.3764421875,
          "velocity": 0.9448818897637795
        },
        {
          "duration": 1.2019218750000107,
          "durationTicks": 300,
          "midi": 40,
          "name": "E2",
          "ticks": 40126,
          "time": 160.7610571875,
          "velocity": 0.9763779527559056
        },
        {
          "duration": 0.4006406249999941,
          "durationTicks": 100,
          "midi": 42,
          "name": "F#2",
          "ticks": 40126,
          "time": 160.7610571875,
          "velocity": 0.968503937007874
        },
        {
          "duration": 0.1602562499999749,
          "durationTicks": 40,
          "midi": 51,
          "name": "D#3",
          "ticks": 40126,
          "time": 160.7610571875,
          "velocity": 0.9763779527559056
        },
        {
          "duration": 0.15224343750000457,
          "durationTicks": 38,
          "midi": 35,
          "name": "B1",
          "ticks": 40222,
          "time": 161.1456721875,
          "velocity": 0.968503937007874
        },
        {
          "duration": 0.13621781249997866,
          "durationTicks": 34,
          "midi": 51,
          "name": "D#3",
          "ticks": 40222,
          "time": 161.1456721875,
          "velocity": 0.9606299212598425
        },
        {
          "duration": 0.8733965625000053,
          "durationTicks": 218,
          "midi": 35,
          "name": "B1",
          "ticks": 40318,
          "time": 161.5302871875,
          "velocity": 0.968503937007874
        },
        {
          "duration": 0.20032031249999704,
          "durationTicks": 50,
          "midi": 49,
          "name": "C#3",
          "ticks": 40318,
          "time": 161.5302871875,
          "velocity": 0.968503937007874
        },
        {
          "duration": 0.11217937499998243,
          "durationTicks": 28,
          "midi": 51,
          "name": "D#3",
          "ticks": 40414,
          "time": 161.9149021875,
          "velocity": 0.952755905511811
        },
        {
          "duration": 0.384615000000025,
          "durationTicks": 96,
          "midi": 40,
          "name": "E2",
          "ticks": 40510,
          "time": 162.2995171875,
          "velocity": 0.968503937007874
        },
        {
          "duration": 0.32051250000000664,
          "durationTicks": 80,
          "midi": 42,
          "name": "F#2",
          "ticks": 40510,
          "time": 162.2995171875,
          "velocity": 0.968503937007874
        },
        {
          "duration": 0.23237156249999202,
          "durationTicks": 58,
          "midi": 51,
          "name": "D#3",
          "ticks": 40510,
          "time": 162.2995171875,
          "velocity": 0.968503937007874
        },
        {
          "duration": 0.296474062499982,
          "durationTicks": 74,
          "midi": 40,
          "name": "E2",
          "ticks": 40606,
          "time": 162.6841321875,
          "velocity": 0.9606299212598425
        },
        {
          "duration": 0.1923074999999983,
          "durationTicks": 48,
          "midi": 40,
          "name": "E2",
          "ticks": 40654,
          "time": 162.8764396875,
          "velocity": 0.9763779527559056
        },
        {
          "duration": 1.2339731249999772,
          "durationTicks": 308,
          "midi": 35,
          "name": "B1",
          "ticks": 40702,
          "time": 163.0687471875,
          "velocity": 0.9763779527559056
        },
        {
          "duration": 0.30448687499998073,
          "durationTicks": 76,
          "midi": 49,
          "name": "C#3",
          "ticks": 40702,
          "time": 163.0687471875,
          "velocity": 0.9448818897637795
        },
        {
          "duration": 1.3141012499999931,
          "durationTicks": 328,
          "midi": 40,
          "name": "E2",
          "ticks": 40894,
          "time": 163.8379771875,
          "velocity": 0.9763779527559056
        },
        {
          "duration": 0.1762818750000008,
          "durationTicks": 44,
          "midi": 57,
          "name": "A3",
          "ticks": 40894,
          "time": 163.8379771875,
          "velocity": 0.952755905511811
        },
        {
          "duration": 0.8413453125000103,
          "durationTicks": 210,
          "midi": 35,
          "name": "B1",
          "ticks": 41086,
          "time": 164.6072071875,
          "velocity": 0.9763779527559056
        },
        {
          "duration": 0.2083331249999958,
          "durationTicks": 52,
          "midi": 49,
          "name": "C#3",
          "ticks": 41086,
          "time": 164.6072071875,
          "velocity": 0.952755905511811
        },
        {
          "duration": 0.23237156249999202,
          "durationTicks": 58,
          "midi": 40,
          "name": "E2",
          "ticks": 41278,
          "time": 165.3764371875,
          "velocity": 0.9763779527559056
        },
        {
          "duration": 0.13621781250000708,
          "durationTicks": 34,
          "midi": 51,
          "name": "D#3",
          "ticks": 41278,
          "time": 165.3764371875,
          "velocity": 0.9606299212598425
        },
        {
          "duration": 0.16826906249997364,
          "durationTicks": 42,
          "midi": 35,
          "name": "B1",
          "ticks": 41326,
          "time": 165.56874468750001,
          "velocity": 0.968503937007874
        },
        {
          "duration": 0.12820499999997992,
          "durationTicks": 32,
          "midi": 52,
          "name": "E3",
          "ticks": 41326,
          "time": 165.56874468750001,
          "velocity": 0.9606299212598425
        },
        {
          "duration": 0.1602562499999749,
          "durationTicks": 40,
          "midi": 35,
          "name": "B1",
          "ticks": 41398,
          "time": 165.8572059375,
          "velocity": 0.9763779527559056
        },
        {
          "duration": 0.16826906250000206,
          "durationTicks": 42,
          "midi": 49,
          "name": "C#3",
          "ticks": 41398,
          "time": 165.8572059375,
          "velocity": 0.9448818897637795
        },
        {
          "duration": 1.1858962499999848,
          "durationTicks": 296,
          "midi": 35,
          "name": "B1",
          "ticks": 41470,
          "time": 166.1456671875,
          "velocity": 0.9763779527559056
        },
        {
          "duration": 0.296474062499982,
          "durationTicks": 74,
          "midi": 57,
          "name": "A3",
          "ticks": 41470,
          "time": 166.1456671875,
          "velocity": 0.952755905511811
        },
        {
          "duration": 0.4727559374999828,
          "durationTicks": 118,
          "midi": 40,
          "name": "E2",
          "ticks": 41662,
          "time": 166.9148971875,
          "velocity": 0.9763779527559056
        },
        {
          "duration": 0.48076875000000996,
          "durationTicks": 120,
          "midi": 43,
          "name": "G2",
          "ticks": 41662,
          "time": 166.9148971875,
          "velocity": 0.9763779527559056
        },
        {
          "duration": 0.1602562499999749,
          "durationTicks": 40,
          "midi": 49,
          "name": "C#3",
          "ticks": 41662,
          "time": 166.9148971875,
          "velocity": 0.968503937007874
        },
        {
          "duration": 0.03205124999999498,
          "durationTicks": 8,
          "midi": 40,
          "name": "E2",
          "ticks": 41856,
          "time": 167.69214,
          "velocity": 0.9763779527559056
        },
        {
          "duration": 0.3445509375000029,
          "durationTicks": 86,
          "midi": 40,
          "name": "E2",
          "ticks": 41866,
          "time": 167.7322040625,
          "velocity": 0.968503937007874
        },
        {
          "duration": 0.11217937500001085,
          "durationTicks": 28,
          "midi": 81,
          "name": "A5",
          "ticks": 41956,
          "time": 168.092780625,
          "velocity": 0.8110236220472441
        },
        {
          "duration": 0.09615375000001336,
          "durationTicks": 24,
          "midi": 81,
          "name": "A5",
          "ticks": 42046,
          "time": 168.4533571875,
          "velocity": 0.8110236220472441
        },
        {
          "duration": 0.09615375000001336,
          "durationTicks": 24,
          "midi": 81,
          "name": "A5",
          "ticks": 42138,
          "time": 168.8219465625,
          "velocity": 0.8188976377952756
        },
        {
          "duration": 0.10416656249998368,
          "durationTicks": 26,
          "midi": 81,
          "name": "A5",
          "ticks": 42232,
          "time": 169.19854875000001,
          "velocity": 0.8110236220472441
        },
        {
          "duration": 0.11217937500001085,
          "durationTicks": 28,
          "midi": 81,
          "name": "A5",
          "ticks": 42330,
          "time": 169.59117656249998,
          "velocity": 0.8188976377952756
        },
        {
          "duration": 0.11217937499998243,
          "durationTicks": 28,
          "midi": 81,
          "name": "A5",
          "ticks": 42426,
          "time": 169.9757915625,
          "velocity": 0.8188976377952756
        },
        {
          "duration": 0.11217937500001085,
          "durationTicks": 28,
          "midi": 81,
          "name": "A5",
          "ticks": 42522,
          "time": 170.3604065625,
          "velocity": 0.8188976377952756
        },
        {
          "duration": 0.09615375000001336,
          "durationTicks": 24,
          "midi": 81,
          "name": "A5",
          "ticks": 42622,
          "time": 170.7610471875,
          "velocity": 0.8188976377952756
        },
        {
          "duration": 0.09615374999998494,
          "durationTicks": 24,
          "midi": 81,
          "name": "A5",
          "ticks": 42714,
          "time": 171.1296365625,
          "velocity": 0.8188976377952756
        },
        {
          "duration": 0.11217937500001085,
          "durationTicks": 28,
          "midi": 81,
          "name": "A5",
          "ticks": 42810,
          "time": 171.5142515625,
          "velocity": 0.8188976377952756
        },
        {
          "duration": 0.09615374999998494,
          "durationTicks": 24,
          "midi": 81,
          "name": "A5",
          "ticks": 42908,
          "time": 171.906879375,
          "velocity": 0.8346456692913385
        },
        {
          "duration": 0.11217937500001085,
          "durationTicks": 28,
          "midi": 81,
          "name": "A5",
          "ticks": 43002,
          "time": 172.2834815625,
          "velocity": 0.8031496062992126
        },
        {
          "duration": 0.09615374999998494,
          "durationTicks": 24,
          "midi": 81,
          "name": "A5",
          "ticks": 43096,
          "time": 172.66008375,
          "velocity": 0.8188976377952756
        },
        {
          "duration": 0.09615375000001336,
          "durationTicks": 24,
          "midi": 81,
          "name": "A5",
          "ticks": 43196,
          "time": 173.06072437499998,
          "velocity": 0.8031496062992126
        },
        {
          "duration": 0.09615375000001336,
          "durationTicks": 24,
          "midi": 81,
          "name": "A5",
          "ticks": 43292,
          "time": 173.44533937499997,
          "velocity": 0.8110236220472441
        },
        {
          "duration": 0.0881409374999862,
          "durationTicks": 22,
          "midi": 81,
          "name": "A5",
          "ticks": 43390,
          "time": 173.8379671875,
          "velocity": 0.8110236220472441
        },
        {
          "duration": 0.08012812499998745,
          "durationTicks": 20,
          "midi": 81,
          "name": "A5",
          "ticks": 43494,
          "time": 174.2546334375,
          "velocity": 0.8188976377952756
        },
        {
          "duration": 0.08814093750001462,
          "durationTicks": 22,
          "midi": 81,
          "name": "A5",
          "ticks": 43592,
          "time": 174.64726124999999,
          "velocity": 0.8110236220472441
        },
        {
          "duration": 0.08814093750001462,
          "durationTicks": 22,
          "midi": 81,
          "name": "A5",
          "ticks": 43688,
          "time": 175.03187624999998,
          "velocity": 0.8267716535433071
        },
        {
          "duration": 0.1041665625000121,
          "durationTicks": 26,
          "midi": 81,
          "name": "A5",
          "ticks": 43784,
          "time": 175.41649124999998,
          "velocity": 0.8110236220472441
        },
        {
          "duration": 0.09615374999998494,
          "durationTicks": 24,
          "midi": 81,
          "name": "A5",
          "ticks": 43878,
          "time": 175.7930934375,
          "velocity": 0.8031496062992126
        },
        {
          "duration": 0.09615374999998494,
          "durationTicks": 24,
          "midi": 81,
          "name": "A5",
          "ticks": 43974,
          "time": 176.1777084375,
          "velocity": 0.8110236220472441
        },
        {
          "duration": 0.11217937499998243,
          "durationTicks": 28,
          "midi": 81,
          "name": "A5",
          "ticks": 44072,
          "time": 176.57033625,
          "velocity": 0.8188976377952756
        },
        {
          "duration": 0.06410249999998996,
          "durationTicks": 16,
          "midi": 35,
          "name": "B1",
          "ticks": 44158,
          "time": 176.9148871875,
          "velocity": 0.968503937007874
        },
        {
          "duration": 0.06410249999998996,
          "durationTicks": 16,
          "midi": 45,
          "name": "A2",
          "ticks": 44158,
          "time": 176.9148871875,
          "velocity": 0.968503937007874
        },
        {
          "duration": 0.03205124999999498,
          "durationTicks": 8,
          "midi": 47,
          "name": "B2",
          "ticks": 44158,
          "time": 176.9148871875,
          "velocity": 0.9291338582677166
        },
        {
          "duration": 0.08012812499998745,
          "durationTicks": 20,
          "midi": 81,
          "name": "A5",
          "ticks": 44166,
          "time": 176.9469384375,
          "velocity": 0.8031496062992126
        },
        {
          "duration": 0.0881409374999862,
          "durationTicks": 22,
          "midi": 35,
          "name": "B1",
          "ticks": 44206,
          "time": 177.1071946875,
          "velocity": 0.968503937007874
        },
        {
          "duration": 0.09615375000001336,
          "durationTicks": 24,
          "midi": 45,
          "name": "A2",
          "ticks": 44206,
          "time": 177.1071946875,
          "velocity": 0.968503937007874
        },
        {
          "duration": 0.0721153124999887,
          "durationTicks": 18,
          "midi": 81,
          "name": "A5",
          "ticks": 44214,
          "time": 177.1392459375,
          "velocity": 0.7795275590551181
        },
        {
          "duration": 0.0881409374999862,
          "durationTicks": 22,
          "midi": 35,
          "name": "B1",
          "ticks": 44254,
          "time": 177.2995021875,
          "velocity": 0.968503937007874
        },
        {
          "duration": 0.0881409374999862,
          "durationTicks": 22,
          "midi": 45,
          "name": "A2",
          "ticks": 44254,
          "time": 177.2995021875,
          "velocity": 0.9763779527559056
        },
        {
          "duration": 0.0881409374999862,
          "durationTicks": 22,
          "midi": 81,
          "name": "A5",
          "ticks": 44254,
          "time": 177.2995021875,
          "velocity": 0.8188976377952756
        },
        {
          "duration": 0.08814093750001462,
          "durationTicks": 22,
          "midi": 81,
          "name": "A5",
          "ticks": 44298,
          "time": 177.4757840625,
          "velocity": 0.8661417322834646
        },
        {
          "duration": 0.09615375000001336,
          "durationTicks": 24,
          "midi": 35,
          "name": "B1",
          "ticks": 44302,
          "time": 177.4918096875,
          "velocity": 0.968503937007874
        },
        {
          "duration": 0.12820500000000834,
          "durationTicks": 32,
          "midi": 45,
          "name": "A2",
          "ticks": 44302,
          "time": 177.4918096875,
          "velocity": 0.9606299212598425
        },
        {
          "duration": 0.16826906250000206,
          "durationTicks": 42,
          "midi": 35,
          "name": "B1",
          "ticks": 44350,
          "time": 177.6841171875,
          "velocity": 0.9763779527559056
        },
        {
          "duration": 0.18429468749999955,
          "durationTicks": 46,
          "midi": 43,
          "name": "G2",
          "ticks": 44350,
          "time": 177.6841171875,
          "velocity": 0.9763779527559056
        },
        {
          "duration": 0.08814093750001462,
          "durationTicks": 22,
          "midi": 81,
          "name": "A5",
          "ticks": 44352,
          "time": 177.69213,
          "velocity": 0.8976377952755905
        },
        {
          "duration": 0.1762818750000008,
          "durationTicks": 44,
          "midi": 35,
          "name": "B1",
          "ticks": 44446,
          "time": 178.0687321875,
          "velocity": 0.9763779527559056
        },
        {
          "duration": 0.18429468749999955,
          "durationTicks": 46,
          "midi": 43,
          "name": "G2",
          "ticks": 44446,
          "time": 178.0687321875,
          "velocity": 0.968503937007874
        },
        {
          "duration": 0.056089687499991214,
          "durationTicks": 14,
          "midi": 45,
          "name": "A2",
          "ticks": 44446,
          "time": 178.0687321875,
          "velocity": 0.952755905511811
        },
        {
          "duration": 0.09615375000001336,
          "durationTicks": 24,
          "midi": 81,
          "name": "A5",
          "ticks": 44448,
          "time": 178.076745,
          "velocity": 0.8582677165354331
        },
        {
          "duration": 0.06410249999998996,
          "durationTicks": 16,
          "midi": 35,
          "name": "B1",
          "ticks": 44542,
          "time": 178.4533471875,
          "velocity": 0.9763779527559056
        },
        {
          "duration": 0.0881409374999862,
          "durationTicks": 22,
          "midi": 43,
          "name": "G2",
          "ticks": 44542,
          "time": 178.4533471875,
          "velocity": 0.968503937007874
        },
        {
          "duration": 0.07211531250001713,
          "durationTicks": 18,
          "midi": 81,
          "name": "A5",
          "ticks": 44542,
          "time": 178.4533471875,
          "velocity": 0.8503937007874016
        },
        {
          "duration": 0.08012812499998745,
          "durationTicks": 20,
          "midi": 81,
          "name": "A5",
          "ticks": 44586,
          "time": 178.6296290625,
          "velocity": 0.8346456692913385
        },
        {
          "duration": 0.08012812499998745,
          "durationTicks": 20,
          "midi": 35,
          "name": "B1",
          "ticks": 44590,
          "time": 178.6456546875,
          "velocity": 0.968503937007874
        },
        {
          "duration": 0.0881409374999862,
          "durationTicks": 22,
          "midi": 43,
          "name": "G2",
          "ticks": 44590,
          "time": 178.6456546875,
          "velocity": 0.968503937007874
        },
        {
          "duration": 0.08814093750001462,
          "durationTicks": 22,
          "midi": 81,
          "name": "A5",
          "ticks": 44630,
          "time": 178.8059109375,
          "velocity": 0.8503937007874016
        },
        {
          "duration": 0.0881409374999862,
          "durationTicks": 22,
          "midi": 35,
          "name": "B1",
          "ticks": 44638,
          "time": 178.8379621875,
          "velocity": 0.968503937007874
        },
        {
          "duration": 0.0881409374999862,
          "durationTicks": 22,
          "midi": 43,
          "name": "G2",
          "ticks": 44638,
          "time": 178.8379621875,
          "velocity": 0.968503937007874
        },
        {
          "duration": 0.08814093750001462,
          "durationTicks": 22,
          "midi": 81,
          "name": "A5",
          "ticks": 44678,
          "time": 178.9982184375,
          "velocity": 0.8740157480314961
        },
        {
          "duration": 0.10416656249998368,
          "durationTicks": 26,
          "midi": 35,
          "name": "B1",
          "ticks": 44686,
          "time": 179.0302696875,
          "velocity": 0.9606299212598425
        },
        {
          "duration": 0.11217937499998243,
          "durationTicks": 28,
          "midi": 43,
          "name": "G2",
          "ticks": 44686,
          "time": 179.0302696875,
          "velocity": 0.968503937007874
        },
        {
          "duration": 0.10416656249998368,
          "durationTicks": 26,
          "midi": 81,
          "name": "A5",
          "ticks": 44728,
          "time": 179.19853875,
          "velocity": 0.8818897637795275
        },
        {
          "duration": 0.16826906250000206,
          "durationTicks": 42,
          "midi": 35,
          "name": "B1",
          "ticks": 44734,
          "time": 179.2225771875,
          "velocity": 0.968503937007874
        },
        {
          "duration": 0.1923074999999983,
          "durationTicks": 48,
          "midi": 45,
          "name": "A2",
          "ticks": 44734,
          "time": 179.2225771875,
          "velocity": 0.9763779527559056
        },
        {
          "duration": 0.10416656249998368,
          "durationTicks": 26,
          "midi": 81,
          "name": "A5",
          "ticks": 44824,
          "time": 179.58315375,
          "velocity": 0.8818897637795275
        },
        {
          "duration": 0.16826906250000206,
          "durationTicks": 42,
          "midi": 35,
          "name": "B1",
          "ticks": 44830,
          "time": 179.6071921875,
          "velocity": 0.9763779527559056
        },
        {
          "duration": 0.16826906250000206,
          "durationTicks": 42,
          "midi": 43,
          "name": "G2",
          "ticks": 44830,
          "time": 179.6071921875,
          "velocity": 0.9763779527559056
        },
        {
          "duration": 0.3205124999999782,
          "durationTicks": 80,
          "midi": 35,
          "name": "B1",
          "ticks": 44926,
          "time": 179.9918071875,
          "velocity": 0.9763779527559056
        },
        {
          "duration": 0.3205124999999782,
          "durationTicks": 80,
          "midi": 40,
          "name": "E2",
          "ticks": 44926,
          "time": 179.9918071875,
          "velocity": 0.9763779527559056
        },
        {
          "duration": 0.0721153124999887,
          "durationTicks": 18,
          "midi": 81,
          "name": "A5",
          "ticks": 44928,
          "time": 179.99982,
          "velocity": 0.9212598425196851
        },
        {
          "duration": 0.20032031249999704,
          "durationTicks": 50,
          "midi": 35,
          "name": "B1",
          "ticks": 47518,
          "time": 190.3764121875,
          "velocity": 0.968503937007874
        },
        {
          "duration": 0.21634593749999453,
          "durationTicks": 54,
          "midi": 43,
          "name": "G2",
          "ticks": 47518,
          "time": 190.3764121875,
          "velocity": 0.968503937007874
        },
        {
          "duration": 0.09615375000001336,
          "durationTicks": 24,
          "midi": 81,
          "name": "A5",
          "ticks": 47530,
          "time": 190.4244890625,
          "velocity": 0.8976377952755905
        },
        {
          "duration": 0.08012812499998745,
          "durationTicks": 20,
          "midi": 35,
          "name": "B1",
          "ticks": 47614,
          "time": 190.7610271875,
          "velocity": 0.9606299212598425
        },
        {
          "duration": 0.08012812499998745,
          "durationTicks": 20,
          "midi": 43,
          "name": "G2",
          "ticks": 47614,
          "time": 190.7610271875,
          "velocity": 0.9606299212598425
        },
        {
          "duration": 0.08814093750001462,
          "durationTicks": 22,
          "midi": 81,
          "name": "A5",
          "ticks": 47622,
          "time": 190.7930784375,
          "velocity": 0.8503937007874016
        },
        {
          "duration": 0.07211531250001713,
          "durationTicks": 18,
          "midi": 35,
          "name": "B1",
          "ticks": 47662,
          "time": 190.9533346875,
          "velocity": 0.952755905511811
        },
        {
          "duration": 0.06410249999998996,
          "durationTicks": 16,
          "midi": 43,
          "name": "G2",
          "ticks": 47662,
          "time": 190.9533346875,
          "velocity": 0.952755905511811
        },
        {
          "duration": 0.08012812499998745,
          "durationTicks": 20,
          "midi": 81,
          "name": "A5",
          "ticks": 47670,
          "time": 190.98538593749998,
          "velocity": 0.8503937007874016
        },
        {
          "duration": 0.20032031249999704,
          "durationTicks": 50,
          "midi": 35,
          "name": "B1",
          "ticks": 47710,
          "time": 191.1456421875,
          "velocity": 0.9606299212598425
        },
        {
          "duration": 0.22435874999999328,
          "durationTicks": 56,
          "midi": 43,
          "name": "G2",
          "ticks": 47710,
          "time": 191.1456421875,
          "velocity": 0.952755905511811
        },
        {
          "duration": 0.09615375000001336,
          "durationTicks": 24,
          "midi": 81,
          "name": "A5",
          "ticks": 47720,
          "time": 191.18570624999998,
          "velocity": 0.8740157480314961
        },
        {
          "duration": 0.2483971874999895,
          "durationTicks": 62,
          "midi": 35,
          "name": "B1",
          "ticks": 47806,
          "time": 191.5302571875,
          "velocity": 0.968503937007874
        },
        {
          "duration": 0.2483971874999895,
          "durationTicks": 62,
          "midi": 43,
          "name": "G2",
          "ticks": 47806,
          "time": 191.5302571875,
          "velocity": 0.968503937007874
        },
        {
          "duration": 0.08814093750001462,
          "durationTicks": 22,
          "midi": 81,
          "name": "A5",
          "ticks": 47816,
          "time": 191.57032124999998,
          "velocity": 0.889763779527559
        },
        {
          "duration": 0.0881409374999862,
          "durationTicks": 22,
          "midi": 35,
          "name": "B1",
          "ticks": 47902,
          "time": 191.9148721875,
          "velocity": 0.968503937007874
        },
        {
          "duration": 0.0881409374999862,
          "durationTicks": 22,
          "midi": 45,
          "name": "A2",
          "ticks": 47902,
          "time": 191.9148721875,
          "velocity": 0.9606299212598425
        },
        {
          "duration": 0.06410249999998996,
          "durationTicks": 16,
          "midi": 81,
          "name": "A5",
          "ticks": 47910,
          "time": 191.9469234375,
          "velocity": 0.8740157480314961
        },
        {
          "duration": 0.10416656249998368,
          "durationTicks": 26,
          "midi": 35,
          "name": "B1",
          "ticks": 47950,
          "time": 192.1071796875,
          "velocity": 0.952755905511811
        },
        {
          "duration": 0.0881409374999862,
          "durationTicks": 22,
          "midi": 45,
          "name": "A2",
          "ticks": 47950,
          "time": 192.1071796875,
          "velocity": 0.9448818897637795
        },
        {
          "duration": 0.0881409374999862,
          "durationTicks": 22,
          "midi": 81,
          "name": "A5",
          "ticks": 47956,
          "time": 192.131218125,
          "velocity": 0.8582677165354331
        },
        {
          "duration": 0.2804484374999845,
          "durationTicks": 70,
          "midi": 35,
          "name": "B1",
          "ticks": 47998,
          "time": 192.2994871875,
          "velocity": 0.9763779527559056
        },
        {
          "duration": 0.27243562499998575,
          "durationTicks": 68,
          "midi": 43,
          "name": "G2",
          "ticks": 47998,
          "time": 192.2994871875,
          "velocity": 0.968503937007874
        },
        {
          "duration": 0.09615374999998494,
          "durationTicks": 24,
          "midi": 81,
          "name": "A5",
          "ticks": 48004,
          "time": 192.323525625,
          "velocity": 0.8661417322834646
        },
        {
          "duration": 0.09615374999998494,
          "durationTicks": 24,
          "midi": 35,
          "name": "B1",
          "ticks": 48094,
          "time": 192.6841021875,
          "velocity": 0.9606299212598425
        },
        {
          "duration": 0.09615374999998494,
          "durationTicks": 24,
          "midi": 41,
          "name": "F2",
          "ticks": 48094,
          "time": 192.6841021875,
          "velocity": 0.968503937007874
        },
        {
          "duration": 0.08012812499998745,
          "durationTicks": 20,
          "midi": 81,
          "name": "A5",
          "ticks": 48094,
          "time": 192.6841021875,
          "velocity": 0.889763779527559
        },
        {
          "duration": 0.11217937499998243,
          "durationTicks": 28,
          "midi": 35,
          "name": "B1",
          "ticks": 48142,
          "time": 192.8764096875,
          "velocity": 0.9606299212598425
        },
        {
          "duration": 0.09615374999998494,
          "durationTicks": 24,
          "midi": 41,
          "name": "F2",
          "ticks": 48142,
          "time": 192.8764096875,
          "velocity": 0.952755905511811
        },
        {
          "duration": 0.08012812499998745,
          "durationTicks": 20,
          "midi": 81,
          "name": "A5",
          "ticks": 48142,
          "time": 192.8764096875,
          "velocity": 0.84251968503937
        },
        {
          "duration": 0.27243562499998575,
          "durationTicks": 68,
          "midi": 35,
          "name": "B1",
          "ticks": 48190,
          "time": 193.0687171875,
          "velocity": 0.9763779527559056
        },
        {
          "duration": 0.24038437499999077,
          "durationTicks": 60,
          "midi": 43,
          "name": "G2",
          "ticks": 48190,
          "time": 193.0687171875,
          "velocity": 0.968503937007874
        },
        {
          "duration": 0.09615374999998494,
          "durationTicks": 24,
          "midi": 81,
          "name": "A5",
          "ticks": 48192,
          "time": 193.07673,
          "velocity": 0.8582677165354331
        },
        {
          "duration": 0.3846149999999966,
          "durationTicks": 96,
          "midi": 35,
          "name": "B1",
          "ticks": 48286,
          "time": 193.4533321875,
          "velocity": 0.9763779527559056
        },
        {
          "duration": 0.6169865624999886,
          "durationTicks": 154,
          "midi": 49,
          "name": "C#3",
          "ticks": 48286,
          "time": 193.4533321875,
          "velocity": 0.968503937007874
        },
        {
          "duration": 0.09615374999998494,
          "durationTicks": 24,
          "midi": 81,
          "name": "A5",
          "ticks": 48288,
          "time": 193.461345,
          "velocity": 0.8976377952755905
        },
        {
          "duration": 0.1923074999999983,
          "durationTicks": 48,
          "midi": 35,
          "name": "B1",
          "ticks": 48382,
          "time": 193.8379471875,
          "velocity": 0.952755905511811
        },
        {
          "duration": 0.1923074999999983,
          "durationTicks": 48,
          "midi": 43,
          "name": "G2",
          "ticks": 48382,
          "time": 193.8379471875,
          "velocity": 0.952755905511811
        },
        {
          "duration": 0.056089687499991214,
          "durationTicks": 14,
          "midi": 81,
          "name": "A5",
          "ticks": 48388,
          "time": 193.861985625,
          "velocity": 0.8503937007874016
        },
        {
          "duration": 0.1923074999999983,
          "durationTicks": 48,
          "midi": 35,
          "name": "B1",
          "ticks": 48430,
          "time": 194.0302546875,
          "velocity": 0.9763779527559056
        },
        {
          "duration": 0.1923074999999983,
          "durationTicks": 48,
          "midi": 43,
          "name": "G2",
          "ticks": 48430,
          "time": 194.0302546875,
          "velocity": 0.9763779527559056
        },
        {
          "duration": 0.08012812500001587,
          "durationTicks": 20,
          "midi": 81,
          "name": "A5",
          "ticks": 48430,
          "time": 194.0302546875,
          "velocity": 0.8346456692913385
        },
        {
          "duration": 0.3846149999999966,
          "durationTicks": 96,
          "midi": 35,
          "name": "B1",
          "ticks": 48478,
          "time": 194.2225621875,
          "velocity": 0.9763779527559056
        },
        {
          "duration": 0.49679437500000745,
          "durationTicks": 124,
          "midi": 57,
          "name": "A3",
          "ticks": 48478,
          "time": 194.2225621875,
          "velocity": 0.968503937007874
        },
        {
          "duration": 0.09615375000001336,
          "durationTicks": 24,
          "midi": 81,
          "name": "A5",
          "ticks": 48480,
          "time": 194.230575,
          "velocity": 0.889763779527559
        },
        {
          "duration": 0.19230750000002672,
          "durationTicks": 48,
          "midi": 35,
          "name": "B1",
          "ticks": 48574,
          "time": 194.60717718749999,
          "velocity": 0.9448818897637795
        },
        {
          "duration": 0.19230750000002672,
          "durationTicks": 48,
          "midi": 43,
          "name": "G2",
          "ticks": 48574,
          "time": 194.60717718749999,
          "velocity": 0.9448818897637795
        },
        {
          "duration": 0.07211531250001713,
          "durationTicks": 18,
          "midi": 81,
          "name": "A5",
          "ticks": 48582,
          "time": 194.63922843749998,
          "velocity": 0.8976377952755905
        },
        {
          "duration": 0.1923074999999983,
          "durationTicks": 48,
          "midi": 35,
          "name": "B1",
          "ticks": 48622,
          "time": 194.7994846875,
          "velocity": 0.968503937007874
        },
        {
          "duration": 0.1923074999999983,
          "durationTicks": 48,
          "midi": 43,
          "name": "G2",
          "ticks": 48622,
          "time": 194.7994846875,
          "velocity": 0.968503937007874
        },
        {
          "duration": 0.09615375000001336,
          "durationTicks": 24,
          "midi": 81,
          "name": "A5",
          "ticks": 48624,
          "time": 194.80749749999998,
          "velocity": 0.8740157480314961
        },
        {
          "duration": 0.24038437499999077,
          "durationTicks": 60,
          "midi": 35,
          "name": "B1",
          "ticks": 48670,
          "time": 194.9917921875,
          "velocity": 0.9763779527559056
        },
        {
          "duration": 0.43269187499998907,
          "durationTicks": 108,
          "midi": 49,
          "name": "C#3",
          "ticks": 48670,
          "time": 194.9917921875,
          "velocity": 0.9763779527559056
        },
        {
          "duration": 0.08012812500001587,
          "durationTicks": 20,
          "midi": 81,
          "name": "A5",
          "ticks": 48674,
          "time": 195.00781781249998,
          "velocity": 0.9133858267716536
        },
        {
          "duration": 0.0721153124999887,
          "durationTicks": 18,
          "midi": 35,
          "name": "B1",
          "ticks": 48766,
          "time": 195.3764071875,
          "velocity": 0.968503937007874
        },
        {
          "duration": 0.08012812499998745,
          "durationTicks": 20,
          "midi": 43,
          "name": "G2",
          "ticks": 48766,
          "time": 195.3764071875,
          "velocity": 0.968503937007874
        },
        {
          "duration": 0.08814093750001462,
          "durationTicks": 22,
          "midi": 81,
          "name": "A5",
          "ticks": 48776,
          "time": 195.41647124999997,
          "velocity": 0.905511811023622
        },
        {
          "duration": 0.09615374999998494,
          "durationTicks": 24,
          "midi": 35,
          "name": "B1",
          "ticks": 48814,
          "time": 195.5687146875,
          "velocity": 0.9763779527559056
        },
        {
          "duration": 0.0721153124999887,
          "durationTicks": 18,
          "midi": 43,
          "name": "G2",
          "ticks": 48814,
          "time": 195.5687146875,
          "velocity": 0.968503937007874
        },
        {
          "duration": 0.08012812499998745,
          "durationTicks": 20,
          "midi": 81,
          "name": "A5",
          "ticks": 48822,
          "time": 195.6007659375,
          "velocity": 0.8818897637795275
        },
        {
          "duration": 0.6169865624999886,
          "durationTicks": 154,
          "midi": 35,
          "name": "B1",
          "ticks": 48862,
          "time": 195.7610221875,
          "velocity": 0.9763779527559056
        },
        {
          "duration": 0.3846149999999966,
          "durationTicks": 96,
          "midi": 46,
          "name": "A#2",
          "ticks": 48862,
          "time": 195.7610221875,
          "velocity": 0.968503937007874
        },
        {
          "duration": 0.09615375000001336,
          "durationTicks": 24,
          "midi": 81,
          "name": "A5",
          "ticks": 48866,
          "time": 195.77704781249997,
          "velocity": 0.9212598425196851
        },
        {
          "duration": 0.11217937500001085,
          "durationTicks": 28,
          "midi": 35,
          "name": "B1",
          "ticks": 50110,
          "time": 200.7610171875,
          "velocity": 0.9763779527559056
        },
        {
          "duration": 0.16025625000003174,
          "durationTicks": 40,
          "midi": 49,
          "name": "C#3",
          "ticks": 50110,
          "time": 200.7610171875,
          "velocity": 0.968503937007874
        },
        {
          "duration": 0.08012812499995903,
          "durationTicks": 20,
          "midi": 81,
          "name": "A5",
          "ticks": 50114,
          "time": 200.7770428125,
          "velocity": 0.8740157480314961
        },
        {
          "duration": 0.1762818750000008,
          "durationTicks": 44,
          "midi": 35,
          "name": "B1",
          "ticks": 50206,
          "time": 201.14563218749998,
          "velocity": 0.9763779527559056
        },
        {
          "duration": 0.18429468750002798,
          "durationTicks": 46,
          "midi": 52,
          "name": "E3",
          "ticks": 50206,
          "time": 201.14563218749998,
          "velocity": 0.968503937007874
        },
        {
          "duration": 0.08814093750001462,
          "durationTicks": 22,
          "midi": 81,
          "name": "A5",
          "ticks": 50212,
          "time": 201.16967062499998,
          "velocity": 0.9212598425196851
        },
        {
          "duration": 0.11217937500003927,
          "durationTicks": 28,
          "midi": 35,
          "name": "B1",
          "ticks": 50302,
          "time": 201.53024718749998,
          "velocity": 0.9763779527559056
        },
        {
          "duration": 0.18429468750002798,
          "durationTicks": 46,
          "midi": 49,
          "name": "C#3",
          "ticks": 50302,
          "time": 201.53024718749998,
          "velocity": 0.9606299212598425
        },
        {
          "duration": 0.08012812499998745,
          "durationTicks": 20,
          "midi": 81,
          "name": "A5",
          "ticks": 50312,
          "time": 201.57031125,
          "velocity": 0.9212598425196851
        },
        {
          "duration": 0.3846149999999966,
          "durationTicks": 96,
          "midi": 35,
          "name": "B1",
          "ticks": 50398,
          "time": 201.91486218749998,
          "velocity": 0.9763779527559056
        },
        {
          "duration": 0.47275593750003964,
          "durationTicks": 118,
          "midi": 57,
          "name": "A3",
          "ticks": 50398,
          "time": 201.91486218749998,
          "velocity": 0.968503937007874
        },
        {
          "duration": 0.09615375000001336,
          "durationTicks": 24,
          "midi": 81,
          "name": "A5",
          "ticks": 50408,
          "time": 201.95492625,
          "velocity": 0.937007874015748
        },
        {
          "duration": 0.08012812499998745,
          "durationTicks": 20,
          "midi": 81,
          "name": "A5",
          "ticks": 50546,
          "time": 202.5078103125,
          "velocity": 0.8188976377952756
        },
        {
          "duration": 0.08012812500001587,
          "durationTicks": 20,
          "midi": 81,
          "name": "A5",
          "ticks": 50590,
          "time": 202.68409218749997,
          "velocity": 0.8503937007874016
        },
        {
          "duration": 0.0721153124999887,
          "durationTicks": 18,
          "midi": 81,
          "name": "A5",
          "ticks": 50640,
          "time": 202.8844125,
          "velocity": 0.889763779527559
        },
        {
          "duration": 0.08012812500001587,
          "durationTicks": 20,
          "midi": 81,
          "name": "A5",
          "ticks": 50686,
          "time": 203.06870718749997,
          "velocity": 0.9133858267716536
        },
        {
          "duration": 0.0881409374999862,
          "durationTicks": 22,
          "midi": 81,
          "name": "A5",
          "ticks": 50732,
          "time": 203.253001875,
          "velocity": 0.9291338582677166
        },
        {
          "duration": 0.09615375000001336,
          "durationTicks": 24,
          "midi": 81,
          "name": "A5",
          "ticks": 50784,
          "time": 203.461335,
          "velocity": 0.9448818897637795
        },
        {
          "duration": 0.08012812499998745,
          "durationTicks": 20,
          "midi": 35,
          "name": "B1",
          "ticks": 50830,
          "time": 203.6456296875,
          "velocity": 0.9606299212598425
        },
        {
          "duration": 0.0721153124999887,
          "durationTicks": 18,
          "midi": 49,
          "name": "C#3",
          "ticks": 50830,
          "time": 203.6456296875,
          "velocity": 0.968503937007874
        },
        {
          "duration": 0.08814093750001462,
          "durationTicks": 22,
          "midi": 35,
          "name": "B1",
          "ticks": 50878,
          "time": 203.8379371875,
          "velocity": 0.9763779527559056
        },
        {
          "duration": 0.08814093750001462,
          "durationTicks": 22,
          "midi": 57,
          "name": "A3",
          "ticks": 50878,
          "time": 203.8379371875,
          "velocity": 0.9606299212598425
        },
        {
          "duration": 0.39262781249999534,
          "durationTicks": 98,
          "midi": 35,
          "name": "B1",
          "ticks": 50926,
          "time": 204.0302446875,
          "velocity": 0.9763779527559056
        },
        {
          "duration": 0.39262781249999534,
          "durationTicks": 98,
          "midi": 49,
          "name": "C#3",
          "ticks": 50926,
          "time": 204.0302446875,
          "velocity": 0.968503937007874
        },
        {
          "duration": 0.16826906250000206,
          "durationTicks": 42,
          "midi": 35,
          "name": "B1",
          "ticks": 51070,
          "time": 204.60716718749998,
          "velocity": 0.9763779527559056
        },
        {
          "duration": 0.18429468750002798,
          "durationTicks": 46,
          "midi": 43,
          "name": "G2",
          "ticks": 51070,
          "time": 204.60716718749998,
          "velocity": 0.9763779527559056
        },
        {
          "duration": 0.1041665625000121,
          "durationTicks": 26,
          "midi": 81,
          "name": "A5",
          "ticks": 51076,
          "time": 204.63120562499998,
          "velocity": 0.9606299212598425
        },
        {
          "duration": 0.14423062500000583,
          "durationTicks": 36,
          "midi": 35,
          "name": "B1",
          "ticks": 51166,
          "time": 204.99178218749998,
          "velocity": 0.9763779527559056
        },
        {
          "duration": 0.16826906250000206,
          "durationTicks": 42,
          "midi": 43,
          "name": "G2",
          "ticks": 51166,
          "time": 204.99178218749998,
          "velocity": 0.9763779527559056
        },
        {
          "duration": 0.09615374999998494,
          "durationTicks": 24,
          "midi": 81,
          "name": "A5",
          "ticks": 51174,
          "time": 205.0238334375,
          "velocity": 0.9291338582677166
        },
        {
          "duration": 0.16025625000003174,
          "durationTicks": 40,
          "midi": 35,
          "name": "B1",
          "ticks": 51262,
          "time": 205.37639718749998,
          "velocity": 0.9763779527559056
        },
        {
          "duration": 0.15224343750000457,
          "durationTicks": 38,
          "midi": 43,
          "name": "G2",
          "ticks": 51262,
          "time": 205.37639718749998,
          "velocity": 0.9763779527559056
        },
        {
          "duration": 0.1041665625000121,
          "durationTicks": 26,
          "midi": 81,
          "name": "A5",
          "ticks": 51268,
          "time": 205.40043562499997,
          "velocity": 0.9133858267716536
        },
        {
          "duration": 0.8413453125000103,
          "durationTicks": 210,
          "midi": 35,
          "name": "B1",
          "ticks": 51358,
          "time": 205.76101218749997,
          "velocity": 0.9763779527559056
        },
        {
          "duration": 0.8092940625000438,
          "durationTicks": 202,
          "midi": 49,
          "name": "C#3",
          "ticks": 51358,
          "time": 205.76101218749997,
          "velocity": 0.968503937007874
        },
        {
          "duration": 0.09615374999998494,
          "durationTicks": 24,
          "midi": 81,
          "name": "A5",
          "ticks": 51366,
          "time": 205.7930634375,
          "velocity": 0.9291338582677166
        },
        {
          "duration": 0.08814093750004304,
          "durationTicks": 22,
          "midi": 81,
          "name": "A5",
          "ticks": 51496,
          "time": 206.31389624999997,
          "velocity": 0.7874015748031497
        },
        {
          "duration": 0.08012812499998745,
          "durationTicks": 20,
          "midi": 81,
          "name": "A5",
          "ticks": 51548,
          "time": 206.522229375,
          "velocity": 0.84251968503937
        },
        {
          "duration": 0.0721153124999887,
          "durationTicks": 18,
          "midi": 81,
          "name": "A5",
          "ticks": 51594,
          "time": 206.7065240625,
          "velocity": 0.8976377952755905
        },
        {
          "duration": 0.0721153124999887,
          "durationTicks": 18,
          "midi": 81,
          "name": "A5",
          "ticks": 51642,
          "time": 206.8988315625,
          "velocity": 0.9291338582677166
        },
        {
          "duration": 0.08012812500001587,
          "durationTicks": 20,
          "midi": 81,
          "name": "A5",
          "ticks": 51690,
          "time": 207.0911390625,
          "velocity": 0.9291338582677166
        },
        {
          "duration": 0.09615374999998494,
          "durationTicks": 24,
          "midi": 81,
          "name": "A5",
          "ticks": 51740,
          "time": 207.29145937500002,
          "velocity": 0.937007874015748
        },
        {
          "duration": 0.08814093750001462,
          "durationTicks": 22,
          "midi": 35,
          "name": "B1",
          "ticks": 51790,
          "time": 207.49177968749999,
          "velocity": 0.9763779527559056
        },
        {
          "duration": 0.08814093750001462,
          "durationTicks": 22,
          "midi": 43,
          "name": "G2",
          "ticks": 51790,
          "time": 207.49177968749999,
          "velocity": 0.968503937007874
        },
        {
          "duration": 0.09615374999998494,
          "durationTicks": 24,
          "midi": 35,
          "name": "B1",
          "ticks": 51838,
          "time": 207.68408718749998,
          "velocity": 0.9763779527559056
        },
        {
          "duration": 0.09615374999998494,
          "durationTicks": 24,
          "midi": 43,
          "name": "G2",
          "ticks": 51838,
          "time": 207.68408718749998,
          "velocity": 0.9763779527559056
        },
        {
          "duration": 0.24038437499999077,
          "durationTicks": 60,
          "midi": 35,
          "name": "B1",
          "ticks": 51886,
          "time": 207.87639468749998,
          "velocity": 0.9763779527559056
        },
        {
          "duration": 0.24038437499999077,
          "durationTicks": 60,
          "midi": 43,
          "name": "G2",
          "ticks": 51886,
          "time": 207.87639468749998,
          "velocity": 0.9763779527559056
        },
        {
          "duration": 0.09615375000001336,
          "durationTicks": 24,
          "midi": 81,
          "name": "A5",
          "ticks": 51950,
          "time": 208.1328046875,
          "velocity": 0.8031496062992126
        },
        {
          "duration": 0.08012812499998745,
          "durationTicks": 20,
          "midi": 81,
          "name": "A5",
          "ticks": 51992,
          "time": 208.30107375,
          "velocity": 0.8346456692913385
        },
        {
          "duration": 0.0881409374999862,
          "durationTicks": 22,
          "midi": 81,
          "name": "A5",
          "ticks": 52038,
          "time": 208.4853684375,
          "velocity": 0.9212598425196851
        },
        {
          "duration": 0.08012812500001587,
          "durationTicks": 20,
          "midi": 81,
          "name": "A5",
          "ticks": 52086,
          "time": 208.6776759375,
          "velocity": 0.9291338582677166
        },
        {
          "duration": 0.08012812500001587,
          "durationTicks": 20,
          "midi": 81,
          "name": "A5",
          "ticks": 52134,
          "time": 208.8699834375,
          "velocity": 0.952755905511811
        },
        {
          "duration": 0.08012812500001587,
          "durationTicks": 20,
          "midi": 35,
          "name": "B1",
          "ticks": 52174,
          "time": 209.03023968749997,
          "velocity": 0.968503937007874
        },
        {
          "duration": 0.08814093750004304,
          "durationTicks": 22,
          "midi": 43,
          "name": "G2",
          "ticks": 52174,
          "time": 209.03023968749997,
          "velocity": 0.9763779527559056
        },
        {
          "duration": 0.09615375000001336,
          "durationTicks": 24,
          "midi": 35,
          "name": "B1",
          "ticks": 52222,
          "time": 209.22254718749997,
          "velocity": 0.9763779527559056
        },
        {
          "duration": 0.09615375000001336,
          "durationTicks": 24,
          "midi": 43,
          "name": "G2",
          "ticks": 52222,
          "time": 209.22254718749997,
          "velocity": 0.9763779527559056
        },
        {
          "duration": 0.16025625000003174,
          "durationTicks": 40,
          "midi": 35,
          "name": "B1",
          "ticks": 52270,
          "time": 209.41485468749997,
          "velocity": 0.9763779527559056
        },
        {
          "duration": 0.16826906250000206,
          "durationTicks": 42,
          "midi": 43,
          "name": "G2",
          "ticks": 52270,
          "time": 209.41485468749997,
          "velocity": 0.9763779527559056
        },
        {
          "duration": 0.08814093750001462,
          "durationTicks": 22,
          "midi": 81,
          "name": "A5",
          "ticks": 52330,
          "time": 209.6552390625,
          "velocity": 0.8188976377952756
        },
        {
          "duration": 0.0881409374999862,
          "durationTicks": 22,
          "midi": 81,
          "name": "A5",
          "ticks": 52374,
          "time": 209.8315209375,
          "velocity": 0.8661417322834646
        },
        {
          "duration": 0.07211531250001713,
          "durationTicks": 18,
          "midi": 81,
          "name": "A5",
          "ticks": 52422,
          "time": 210.0238284375,
          "velocity": 0.9291338582677166
        },
        {
          "duration": 0.0721153124999887,
          "durationTicks": 18,
          "midi": 81,
          "name": "A5",
          "ticks": 52466,
          "time": 210.20011031250002,
          "velocity": 0.9291338582677166
        },
        {
          "duration": 0.09615374999998494,
          "durationTicks": 24,
          "midi": 81,
          "name": "A5",
          "ticks": 52514,
          "time": 210.3924178125,
          "velocity": 0.952755905511811
        },
        {
          "duration": 0.22435874999999328,
          "durationTicks": 56,
          "midi": 35,
          "name": "B1",
          "ticks": 53230,
          "time": 213.2610046875,
          "velocity": 0.968503937007874
        },
        {
          "duration": 0.22435874999999328,
          "durationTicks": 56,
          "midi": 43,
          "name": "G2",
          "ticks": 53230,
          "time": 213.2610046875,
          "velocity": 0.9763779527559056
        },
        {
          "duration": 0.09615374999998494,
          "durationTicks": 24,
          "midi": 81,
          "name": "A5",
          "ticks": 53230,
          "time": 213.2610046875,
          "velocity": 0.9291338582677166
        },
        {
          "duration": 0.24038437499999077,
          "durationTicks": 60,
          "midi": 35,
          "name": "B1",
          "ticks": 53326,
          "time": 213.6456196875,
          "velocity": 0.9763779527559056
        },
        {
          "duration": 0.20032031249999704,
          "durationTicks": 50,
          "midi": 43,
          "name": "G2",
          "ticks": 53326,
          "time": 213.6456196875,
          "velocity": 0.9763779527559056
        },
        {
          "duration": 0.23237156250002045,
          "durationTicks": 58,
          "midi": 45,
          "name": "A2",
          "ticks": 53326,
          "time": 213.6456196875,
          "velocity": 0.9763779527559056
        },
        {
          "duration": 0.1041665625000121,
          "durationTicks": 26,
          "midi": 81,
          "name": "A5",
          "ticks": 53328,
          "time": 213.6536325,
          "velocity": 0.952755905511811
        },
        {
          "duration": 0.21634593749999453,
          "durationTicks": 54,
          "midi": 35,
          "name": "B1",
          "ticks": 53422,
          "time": 214.03023468749998,
          "velocity": 0.9763779527559056
        },
        {
          "duration": 0.22435874999999328,
          "durationTicks": 56,
          "midi": 45,
          "name": "A2",
          "ticks": 53422,
          "time": 214.03023468749998,
          "velocity": 0.9763779527559056
        },
        {
          "duration": 0.10416656249995526,
          "durationTicks": 26,
          "midi": 81,
          "name": "A5",
          "ticks": 53426,
          "time": 214.0462603125,
          "velocity": 0.952755905511811
        },
        {
          "duration": 0.1923074999999983,
          "durationTicks": 48,
          "midi": 35,
          "name": "B1",
          "ticks": 53518,
          "time": 214.41484968749998,
          "velocity": 0.9763779527559056
        },
        {
          "duration": 0.20032031249999704,
          "durationTicks": 50,
          "midi": 43,
          "name": "G2",
          "ticks": 53518,
          "time": 214.41484968749998,
          "velocity": 0.9763779527559056
        },
        {
          "duration": 0.11217937500003927,
          "durationTicks": 28,
          "midi": 81,
          "name": "A5",
          "ticks": 53518,
          "time": 214.41484968749998,
          "velocity": 0.937007874015748
        },
        {
          "duration": 0.1923074999999983,
          "durationTicks": 48,
          "midi": 35,
          "name": "B1",
          "ticks": 53614,
          "time": 214.79946468749998,
          "velocity": 0.9763779527559056
        },
        {
          "duration": 0.20032031250002547,
          "durationTicks": 50,
          "midi": 45,
          "name": "A2",
          "ticks": 53614,
          "time": 214.79946468749998,
          "velocity": 0.9763779527559056
        },
        {
          "duration": 0.1201921875000096,
          "durationTicks": 30,
          "midi": 81,
          "name": "A5",
          "ticks": 53614,
          "time": 214.79946468749998,
          "velocity": 0.9448818897637795
        },
        {
          "duration": 0.2243587500000217,
          "durationTicks": 56,
          "midi": 35,
          "name": "B1",
          "ticks": 53710,
          "time": 215.18407968749997,
          "velocity": 0.9763779527559056
        },
        {
          "duration": 0.16025625000003174,
          "durationTicks": 40,
          "midi": 43,
          "name": "G2",
          "ticks": 53710,
          "time": 215.18407968749997,
          "velocity": 0.9763779527559056
        },
        {
          "duration": 0.1201921875000096,
          "durationTicks": 30,
          "midi": 81,
          "name": "A5",
          "ticks": 53714,
          "time": 215.2001053125,
          "velocity": 0.9448818897637795
        },
        {
          "duration": 0.14423062500000583,
          "durationTicks": 36,
          "midi": 81,
          "name": "A5",
          "ticks": 53804,
          "time": 215.560681875,
          "velocity": 0.9448818897637795
        },
        {
          "duration": 0.2403843750000192,
          "durationTicks": 60,
          "midi": 35,
          "name": "B1",
          "ticks": 53806,
          "time": 215.56869468749997,
          "velocity": 0.9763779527559056
        },
        {
          "duration": 0.24839718750001794,
          "durationTicks": 62,
          "midi": 49,
          "name": "C#3",
          "ticks": 53806,
          "time": 215.56869468749997,
          "velocity": 0.968503937007874
        },
        {
          "duration": 0.09615375000001336,
          "durationTicks": 24,
          "midi": 81,
          "name": "A5",
          "ticks": 54296,
          "time": 217.53183375,
          "velocity": 0.8110236220472441
        },
        {
          "duration": 0.08814093750004304,
          "durationTicks": 22,
          "midi": 81,
          "name": "A5",
          "ticks": 54340,
          "time": 217.70811562499998,
          "velocity": 0.8110236220472441
        },
        {
          "duration": 0.0881409374999862,
          "durationTicks": 22,
          "midi": 81,
          "name": "A5",
          "ticks": 54390,
          "time": 217.9084359375,
          "velocity": 0.8976377952755905
        },
        {
          "duration": 0.0881409374999862,
          "durationTicks": 22,
          "midi": 81,
          "name": "A5",
          "ticks": 54438,
          "time": 218.1007434375,
          "velocity": 0.9212598425196851
        },
        {
          "duration": 0.08012812500001587,
          "durationTicks": 20,
          "midi": 81,
          "name": "A5",
          "ticks": 54486,
          "time": 218.2930509375,
          "velocity": 0.9212598425196851
        },
        {
          "duration": 0.09615374999998494,
          "durationTicks": 24,
          "midi": 81,
          "name": "A5",
          "ticks": 54534,
          "time": 218.4853584375,
          "velocity": 0.9291338582677166
        },
        {
          "duration": 0.09615375000001336,
          "durationTicks": 24,
          "midi": 81,
          "name": "A5",
          "ticks": 54584,
          "time": 218.68567875,
          "velocity": 0.9448818897637795
        },
        {
          "duration": 0.5448712500000283,
          "durationTicks": 136,
          "midi": 35,
          "name": "B1",
          "ticks": 54766,
          "time": 219.41484468749996,
          "velocity": 0.968503937007874
        },
        {
          "duration": 0.5448712500000283,
          "durationTicks": 136,
          "midi": 49,
          "name": "C#3",
          "ticks": 54766,
          "time": 219.41484468749996,
          "velocity": 0.968503937007874
        },
        {
          "duration": 0.09615375000001336,
          "durationTicks": 24,
          "midi": 81,
          "name": "A5",
          "ticks": 54774,
          "time": 219.4468959375,
          "velocity": 0.9448818897637795
        },
        {
          "duration": 0.11217937499998243,
          "durationTicks": 28,
          "midi": 81,
          "name": "A5",
          "ticks": 54864,
          "time": 219.8074725,
          "velocity": 0.8346456692913385
        },
        {
          "duration": 0.1923074999999983,
          "durationTicks": 48,
          "midi": 35,
          "name": "B1",
          "ticks": 54910,
          "time": 219.9917671875,
          "velocity": 0.937007874015748
        },
        {
          "duration": 0.1923074999999983,
          "durationTicks": 48,
          "midi": 57,
          "name": "A3",
          "ticks": 54910,
          "time": 219.9917671875,
          "velocity": 0.937007874015748
        },
        {
          "duration": 0.1923074999999983,
          "durationTicks": 48,
          "midi": 35,
          "name": "B1",
          "ticks": 54958,
          "time": 220.1840746875,
          "velocity": 0.9606299212598425
        },
        {
          "duration": 0.5769224999999949,
          "durationTicks": 144,
          "midi": 52,
          "name": "E3",
          "ticks": 54958,
          "time": 220.1840746875,
          "velocity": 0.9763779527559056
        },
        {
          "duration": 0.09615375000001336,
          "durationTicks": 24,
          "midi": 81,
          "name": "A5",
          "ticks": 54960,
          "time": 220.19208749999999,
          "velocity": 0.9212598425196851
        },
        {
          "duration": 0.08012812500001587,
          "durationTicks": 20,
          "midi": 81,
          "name": "A5",
          "ticks": 55066,
          "time": 220.61676656249998,
          "velocity": 0.9133858267716536
        },
        {
          "duration": 0.2964740625000104,
          "durationTicks": 74,
          "midi": 35,
          "name": "B1",
          "ticks": 55150,
          "time": 220.95330468749998,
          "velocity": 0.9763779527559056
        },
        {
          "duration": 0.2964740625000104,
          "durationTicks": 74,
          "midi": 55,
          "name": "G3",
          "ticks": 55150,
          "time": 220.95330468749998,
          "velocity": 1
        },
        {
          "duration": 0.09615374999998494,
          "durationTicks": 24,
          "midi": 81,
          "name": "A5",
          "ticks": 55158,
          "time": 220.9853559375,
          "velocity": 0.9291338582677166
        },
        {
          "duration": 0.2564100000000167,
          "durationTicks": 64,
          "midi": 35,
          "name": "B1",
          "ticks": 55246,
          "time": 221.33791968749998,
          "velocity": 0.968503937007874
        },
        {
          "duration": 0.2243587500000217,
          "durationTicks": 56,
          "midi": 49,
          "name": "C#3",
          "ticks": 55246,
          "time": 221.33791968749998,
          "velocity": 0.968503937007874
        },
        {
          "duration": 0.09615375000001336,
          "durationTicks": 24,
          "midi": 81,
          "name": "A5",
          "ticks": 55252,
          "time": 221.36195812499997,
          "velocity": 0.9133858267716536
        },
        {
          "duration": 0.6570506250000108,
          "durationTicks": 164,
          "midi": 35,
          "name": "B1",
          "ticks": 55342,
          "time": 221.72253468749997,
          "velocity": 0.9763779527559056
        },
        {
          "duration": 0.6249993750000158,
          "durationTicks": 156,
          "midi": 57,
          "name": "A3",
          "ticks": 55342,
          "time": 221.72253468749997,
          "velocity": 0.968503937007874
        },
        {
          "duration": 0.09615375000001336,
          "durationTicks": 24,
          "midi": 81,
          "name": "A5",
          "ticks": 55348,
          "time": 221.74657312499997,
          "velocity": 0.937007874015748
        },
        {
          "duration": 0.11217937500001085,
          "durationTicks": 28,
          "midi": 81,
          "name": "A5",
          "ticks": 55450,
          "time": 222.1552265625,
          "velocity": 0.9291338582677166
        },
        {
          "duration": 0.28044843750004134,
          "durationTicks": 70,
          "midi": 35,
          "name": "B1",
          "ticks": 55534,
          "time": 222.49176468749997,
          "velocity": 0.9763779527559056
        },
        {
          "duration": 1.3782037500000115,
          "durationTicks": 344,
          "midi": 49,
          "name": "C#3",
          "ticks": 55534,
          "time": 222.49176468749997,
          "velocity": 0.968503937007874
        },
        {
          "duration": 0.09615374999998494,
          "durationTicks": 24,
          "midi": 81,
          "name": "A5",
          "ticks": 55546,
          "time": 222.5398415625,
          "velocity": 0.9212598425196851
        },
        {
          "duration": 0.23237156250004887,
          "durationTicks": 58,
          "midi": 35,
          "name": "B1",
          "ticks": 55630,
          "time": 222.87637968749996,
          "velocity": 0.968503937007874
        },
        {
          "duration": 0.11217937500001085,
          "durationTicks": 28,
          "midi": 81,
          "name": "A5",
          "ticks": 55636,
          "time": 222.900418125,
          "velocity": 0.905511811023622
        },
        {
          "duration": 0.28846124999998324,
          "durationTicks": 72,
          "midi": 35,
          "name": "B1",
          "ticks": 55726,
          "time": 223.2609946875,
          "velocity": 0.968503937007874
        },
        {
          "duration": 0.11217937499998243,
          "durationTicks": 28,
          "midi": 81,
          "name": "A5",
          "ticks": 55728,
          "time": 223.2690075,
          "velocity": 0.9212598425196851
        },
        {
          "duration": 0.24839718750001794,
          "durationTicks": 62,
          "midi": 35,
          "name": "B1",
          "ticks": 55822,
          "time": 223.64560968749998,
          "velocity": 0.968503937007874
        },
        {
          "duration": 0.1041665625000121,
          "durationTicks": 26,
          "midi": 81,
          "name": "A5",
          "ticks": 55822,
          "time": 223.64560968749998,
          "velocity": 0.9133858267716536
        },
        {
          "duration": 0.11217937499998243,
          "durationTicks": 28,
          "midi": 81,
          "name": "A5",
          "ticks": 55914,
          "time": 224.01419906249998,
          "velocity": 0.84251968503937
        },
        {
          "duration": 0.24839718750001794,
          "durationTicks": 62,
          "midi": 35,
          "name": "B1",
          "ticks": 55918,
          "time": 224.03022468749998,
          "velocity": 0.9763779527559056
        },
        {
          "duration": 1.3862165625000387,
          "durationTicks": 346,
          "midi": 57,
          "name": "A3",
          "ticks": 55918,
          "time": 224.03022468749998,
          "velocity": 0.968503937007874
        },
        {
          "duration": 0.23237156250002045,
          "durationTicks": 58,
          "midi": 35,
          "name": "B1",
          "ticks": 56014,
          "time": 224.41483968749998,
          "velocity": 0.968503937007874
        },
        {
          "duration": 0.09615374999998494,
          "durationTicks": 24,
          "midi": 81,
          "name": "A5",
          "ticks": 56014,
          "time": 224.41483968749998,
          "velocity": 0.8661417322834646
        },
        {
          "duration": 0.27243562500001417,
          "durationTicks": 68,
          "midi": 35,
          "name": "B1",
          "ticks": 56110,
          "time": 224.79945468749997,
          "velocity": 0.9763779527559056
        },
        {
          "duration": 0.09615375000001336,
          "durationTicks": 24,
          "midi": 81,
          "name": "A5",
          "ticks": 56110,
          "time": 224.79945468749997,
          "velocity": 0.8740157480314961
        },
        {
          "duration": 0.2644228125000154,
          "durationTicks": 66,
          "midi": 35,
          "name": "B1",
          "ticks": 56206,
          "time": 225.18406968749997,
          "velocity": 0.968503937007874
        },
        {
          "duration": 0.09615375000001336,
          "durationTicks": 24,
          "midi": 81,
          "name": "A5",
          "ticks": 56206,
          "time": 225.18406968749997,
          "velocity": 0.8818897637795275
        },
        {
          "duration": 0.09615374999998494,
          "durationTicks": 24,
          "midi": 81,
          "name": "A5",
          "ticks": 56298,
          "time": 225.5526590625,
          "velocity": 0.889763779527559
        },
        {
          "duration": 0.27243562500001417,
          "durationTicks": 68,
          "midi": 35,
          "name": "B1",
          "ticks": 56302,
          "time": 225.56868468749997,
          "velocity": 0.968503937007874
        },
        {
          "duration": 1.4423062500000015,
          "durationTicks": 360,
          "midi": 49,
          "name": "C#3",
          "ticks": 56302,
          "time": 225.56868468749997,
          "velocity": 0.968503937007874
        },
        {
          "duration": 0.27243562500001417,
          "durationTicks": 68,
          "midi": 35,
          "name": "B1",
          "ticks": 56398,
          "time": 225.95329968749996,
          "velocity": 0.9606299212598425
        },
        {
          "duration": 0.09615375000001336,
          "durationTicks": 24,
          "midi": 81,
          "name": "A5",
          "ticks": 56398,
          "time": 225.95329968749996,
          "velocity": 0.8818897637795275
        },
        {
          "duration": 0.27243562500001417,
          "durationTicks": 68,
          "midi": 35,
          "name": "B1",
          "ticks": 56494,
          "time": 226.3379146875,
          "velocity": 0.968503937007874
        },
        {
          "duration": 0.09615374999998494,
          "durationTicks": 24,
          "midi": 81,
          "name": "A5",
          "ticks": 56494,
          "time": 226.3379146875,
          "velocity": 0.8740157480314961
        },
        {
          "duration": 0.28846124999998324,
          "durationTicks": 72,
          "midi": 35,
          "name": "B1",
          "ticks": 56590,
          "time": 226.72252968749999,
          "velocity": 0.968503937007874
        },
        {
          "duration": 0.09615374999998494,
          "durationTicks": 24,
          "midi": 81,
          "name": "A5",
          "ticks": 56590,
          "time": 226.72252968749999,
          "velocity": 0.8740157480314961
        },
        {
          "duration": 0.09615375000001336,
          "durationTicks": 24,
          "midi": 81,
          "name": "A5",
          "ticks": 56676,
          "time": 227.067080625,
          "velocity": 0.905511811023622
        },
        {
          "duration": 0.2564100000000167,
          "durationTicks": 64,
          "midi": 35,
          "name": "B1",
          "ticks": 56686,
          "time": 227.10714468749998,
          "velocity": 0.9763779527559056
        },
        {
          "duration": 1.1125321875000225,
          "durationTicks": 406,
          "midi": 49,
          "name": "C#3",
          "ticks": 56686,
          "time": 227.10714468749998,
          "velocity": 0.9763779527559056
        },
        {
          "duration": 0.008012812499970323,
          "durationTicks": 2,
          "midi": 81,
          "name": "A5",
          "ticks": 56714,
          "time": 227.2193240625,
          "velocity": 0.8031496062992126
        },
        {
          "duration": 0.06410250000001838,
          "durationTicks": 16,
          "midi": 81,
          "name": "A5",
          "ticks": 56740,
          "time": 227.32349062499998,
          "velocity": 0.8818897637795275
        },
        {
          "duration": 0.008012812499970323,
          "durationTicks": 2,
          "midi": 81,
          "name": "A5",
          "ticks": 56774,
          "time": 227.4597084375,
          "velocity": 0.8267716535433071
        },
        {
          "duration": 0.03205124999999498,
          "durationTicks": 8,
          "midi": 81,
          "name": "A5",
          "ticks": 56804,
          "time": 227.579900625,
          "velocity": 0.905511811023622
        },
        {
          "duration": 0.04870124999999348,
          "durationTicks": 24,
          "midi": 40,
          "name": "E2",
          "ticks": 57022,
          "time": 228.07763156250002,
          "velocity": 0.937007874015748
        },
        {
          "duration": 0.04870124999999348,
          "durationTicks": 24,
          "midi": 40,
          "name": "E2",
          "ticks": 57086,
          "time": 228.2075015625,
          "velocity": 0.9606299212598425
        },
        {
          "duration": 0.04870124999999348,
          "durationTicks": 24,
          "midi": 45,
          "name": "A2",
          "ticks": 57150,
          "time": 228.3373715625,
          "velocity": 0.9606299212598425
        },
        {
          "duration": 0.16233750000000668,
          "durationTicks": 80,
          "midi": 35,
          "name": "B1",
          "ticks": 57214,
          "time": 228.4672415625,
          "velocity": 0.952755905511811
        },
        {
          "duration": 3.948859687500004,
          "durationTicks": 1946,
          "midi": 49,
          "name": "C#3",
          "ticks": 57214,
          "time": 228.4672415625,
          "velocity": 0.9606299212598425
        },
        {
          "duration": 0.40178531249998173,
          "durationTicks": 198,
          "midi": 35,
          "name": "B1",
          "ticks": 57342,
          "time": 228.72698156250001,
          "velocity": 0.9448818897637795
        },
        {
          "duration": 0.6615253125000038,
          "durationTicks": 326,
          "midi": 40,
          "name": "E2",
          "ticks": 57406,
          "time": 228.8568515625,
          "velocity": 0.952755905511811
        },
        {
          "duration": 0.46672031250000146,
          "durationTicks": 230,
          "midi": 42,
          "name": "F#2",
          "ticks": 57406,
          "time": 228.8568515625,
          "velocity": 0.952755905511811
        },
        {
          "duration": 0.1988634374999947,
          "durationTicks": 98,
          "midi": 51,
          "name": "D#3",
          "ticks": 57406,
          "time": 228.8568515625,
          "velocity": 0.9606299212598425
        },
        {
          "duration": 0.18262968749999686,
          "durationTicks": 90,
          "midi": 35,
          "name": "B1",
          "ticks": 57598,
          "time": 229.2464615625,
          "velocity": 0.952755905511811
        },
        {
          "duration": 0.19074656250001,
          "durationTicks": 94,
          "midi": 51,
          "name": "D#3",
          "ticks": 57598,
          "time": 229.2464615625,
          "velocity": 0.9606299212598425
        },
        {
          "duration": 0.4220775000000003,
          "durationTicks": 208,
          "midi": 35,
          "name": "B1",
          "ticks": 57726,
          "time": 229.5062015625,
          "velocity": 0.9448818897637795
        },
        {
          "duration": 0.6858759374999863,
          "durationTicks": 338,
          "midi": 40,
          "name": "E2",
          "ticks": 57790,
          "time": 229.6360715625,
          "velocity": 0.952755905511811
        },
        {
          "duration": 0.5275968750000004,
          "durationTicks": 260,
          "midi": 42,
          "name": "F#2",
          "ticks": 57790,
          "time": 229.6360715625,
          "velocity": 0.952755905511811
        },
        {
          "duration": 0.1988634374999947,
          "durationTicks": 98,
          "midi": 51,
          "name": "D#3",
          "ticks": 57790,
          "time": 229.6360715625,
          "velocity": 0.952755905511811
        },
        {
          "duration": 0.1785712500000045,
          "durationTicks": 88,
          "midi": 35,
          "name": "B1",
          "ticks": 57982,
          "time": 230.0256815625,
          "velocity": 0.9448818897637795
        },
        {
          "duration": 0.227272499999998,
          "durationTicks": 112,
          "midi": 51,
          "name": "D#3",
          "ticks": 57982,
          "time": 230.0256815625,
          "velocity": 0.9606299212598425
        },
        {
          "duration": 0.4261359374999927,
          "durationTicks": 210,
          "midi": 35,
          "name": "B1",
          "ticks": 58110,
          "time": 230.2854215625,
          "velocity": 0.952755905511811
        },
        {
          "duration": 0.6696421874999885,
          "durationTicks": 330,
          "midi": 40,
          "name": "E2",
          "ticks": 58174,
          "time": 230.41529156250002,
          "velocity": 0.968503937007874
        },
        {
          "duration": 0.5681812499999808,
          "durationTicks": 280,
          "midi": 42,
          "name": "F#2",
          "ticks": 58174,
          "time": 230.41529156250002,
          "velocity": 0.952755905511811
        },
        {
          "duration": 0.22321406249997722,
          "durationTicks": 110,
          "midi": 51,
          "name": "D#3",
          "ticks": 58174,
          "time": 230.41529156250002,
          "velocity": 0.9606299212598425
        },
        {
          "duration": 0.15827906250001433,
          "durationTicks": 78,
          "midi": 35,
          "name": "B1",
          "ticks": 58366,
          "time": 230.8049015625,
          "velocity": 0.952755905511811
        },
        {
          "duration": 0.21103875000000016,
          "durationTicks": 104,
          "midi": 51,
          "name": "D#3",
          "ticks": 58366,
          "time": 230.8049015625,
          "velocity": 0.952755905511811
        },
        {
          "duration": 0.1866881249999892,
          "durationTicks": 92,
          "midi": 35,
          "name": "B1",
          "ticks": 58494,
          "time": 231.06464156250001,
          "velocity": 0.952755905511811
        },
        {
          "duration": 0.6696421875000169,
          "durationTicks": 330,
          "midi": 40,
          "name": "E2",
          "ticks": 58558,
          "time": 231.1945115625,
          "velocity": 0.968503937007874
        },
        {
          "duration": 0.5438306249999982,
          "durationTicks": 268,
          "midi": 42,
          "name": "F#2",
          "ticks": 58558,
          "time": 231.1945115625,
          "velocity": 0.952755905511811
        },
        {
          "duration": 0.24350624999999582,
          "durationTicks": 120,
          "midi": 51,
          "name": "D#3",
          "ticks": 58558,
          "time": 231.1945115625,
          "velocity": 0.9606299212598425
        },
        {
          "duration": 0.06899343750001208,
          "durationTicks": 34,
          "midi": 35,
          "name": "B1",
          "ticks": 58686,
          "time": 231.4542515625,
          "velocity": 0.9448818897637795
        },
        {
          "duration": 0.2069803125000078,
          "durationTicks": 102,
          "midi": 35,
          "name": "B1",
          "ticks": 58750,
          "time": 231.5841215625,
          "velocity": 0.9606299212598425
        },
        {
          "duration": 0.2191556250000133,
          "durationTicks": 108,
          "midi": 51,
          "name": "D#3",
          "ticks": 58750,
          "time": 231.5841215625,
          "velocity": 0.9606299212598425
        },
        {
          "duration": 0.4261359375000211,
          "durationTicks": 210,
          "midi": 35,
          "name": "B1",
          "ticks": 58878,
          "time": 231.8438615625,
          "velocity": 0.9606299212598425
        },
        {
          "duration": 0.681817499999994,
          "durationTicks": 336,
          "midi": 40,
          "name": "E2",
          "ticks": 58942,
          "time": 231.9737315625,
          "velocity": 0.9763779527559056
        },
        {
          "duration": 0.620940937499995,
          "durationTicks": 306,
          "midi": 42,
          "name": "F#2",
          "ticks": 58942,
          "time": 231.9737315625,
          "velocity": 0.9606299212598425
        },
        {
          "duration": 0.21915562499998487,
          "durationTicks": 108,
          "midi": 51,
          "name": "D#3",
          "ticks": 58942,
          "time": 231.9737315625,
          "velocity": 0.9606299212598425
        },
        {
          "duration": 0.14610374999998044,
          "durationTicks": 72,
          "midi": 35,
          "name": "B1",
          "ticks": 59134,
          "time": 232.3633415625,
          "velocity": 0.952755905511811
        },
        {
          "duration": 0.24350624999999582,
          "durationTicks": 120,
          "midi": 51,
          "name": "D#3",
          "ticks": 59134,
          "time": 232.3633415625,
          "velocity": 0.9606299212598425
        },
        {
          "duration": 0.418019062500008,
          "durationTicks": 206,
          "midi": 35,
          "name": "B1",
          "ticks": 59262,
          "time": 232.6230815625,
          "velocity": 0.968503937007874
        },
        {
          "duration": 0.6858759374999863,
          "durationTicks": 338,
          "midi": 40,
          "name": "E2",
          "ticks": 59326,
          "time": 232.75295156250002,
          "velocity": 0.968503937007874
        },
        {
          "duration": 0.5641228124999884,
          "durationTicks": 278,
          "midi": 42,
          "name": "F#2",
          "ticks": 59326,
          "time": 232.75295156250002,
          "velocity": 0.952755905511811
        },
        {
          "duration": 0.23133093749999034,
          "durationTicks": 114,
          "midi": 51,
          "name": "D#3",
          "ticks": 59326,
          "time": 232.75295156250002,
          "velocity": 0.9606299212598425
        },
        {
          "duration": 0.1501621875000012,
          "durationTicks": 74,
          "midi": 35,
          "name": "B1",
          "ticks": 59518,
          "time": 233.1425615625,
          "velocity": 0.952755905511811
        },
        {
          "duration": 0.24350625000002424,
          "durationTicks": 120,
          "midi": 51,
          "name": "D#3",
          "ticks": 59518,
          "time": 233.1425615625,
          "velocity": 0.9606299212598425
        },
        {
          "duration": 0.3693178124999861,
          "durationTicks": 182,
          "midi": 35,
          "name": "B1",
          "ticks": 59646,
          "time": 233.4023015625,
          "velocity": 0.968503937007874
        },
        {
          "duration": 0.4139606250000156,
          "durationTicks": 204,
          "midi": 40,
          "name": "E2",
          "ticks": 59710,
          "time": 233.5321715625,
          "velocity": 0.968503937007874
        },
        {
          "duration": 0.6128240625000103,
          "durationTicks": 302,
          "midi": 42,
          "name": "F#2",
          "ticks": 59710,
          "time": 233.5321715625,
          "velocity": 0.952755905511811
        },
        {
          "duration": 0.23538937500001111,
          "durationTicks": 116,
          "midi": 51,
          "name": "D#3",
          "ticks": 59710,
          "time": 233.5321715625,
          "velocity": 0.9606299212598425
        },
        {
          "duration": 0.0852271875000099,
          "durationTicks": 42,
          "midi": 35,
          "name": "B1",
          "ticks": 59902,
          "time": 233.9217815625,
          "velocity": 0.952755905511811
        },
        {
          "duration": 0.227272499999998,
          "durationTicks": 112,
          "midi": 51,
          "name": "D#3",
          "ticks": 59902,
          "time": 233.9217815625,
          "velocity": 0.9606299212598425
        },
        {
          "duration": 0.08928562500000226,
          "durationTicks": 44,
          "midi": 40,
          "name": "E2",
          "ticks": 59966,
          "time": 234.0516515625,
          "velocity": 0.9606299212598425
        },
        {
          "duration": 0.0568181250000066,
          "durationTicks": 28,
          "midi": 40,
          "name": "E2",
          "ticks": 60030,
          "time": 234.1815215625,
          "velocity": 0.952755905511811
        },
        {
          "duration": 0.3612009375000014,
          "durationTicks": 178,
          "midi": 42,
          "name": "F#2",
          "ticks": 60094,
          "time": 234.3113915625,
          "velocity": 0.952755905511811
        },
        {
          "duration": 0.07711031249999678,
          "durationTicks": 38,
          "midi": 43,
          "name": "G2",
          "ticks": 60094,
          "time": 234.3113915625,
          "velocity": 0.9606299212598425
        },
        {
          "duration": 0.35308406249998825,
          "durationTicks": 174,
          "midi": 51,
          "name": "D#3",
          "ticks": 60094,
          "time": 234.3113915625,
          "velocity": 0.968503937007874
        },
        {
          "duration": 0.04870124999999348,
          "durationTicks": 24,
          "midi": 40,
          "name": "E2",
          "ticks": 60158,
          "time": 234.44126156250002,
          "velocity": 0.952755905511811
        },
        {
          "duration": 0.13798687499999573,
          "durationTicks": 68,
          "midi": 45,
          "name": "A2",
          "ticks": 60222,
          "time": 234.5711315625,
          "velocity": 0.968503937007874
        },
        {
          "duration": 0.1785712500000045,
          "durationTicks": 88,
          "midi": 35,
          "name": "B1",
          "ticks": 60286,
          "time": 234.7010015625,
          "velocity": 0.9763779527559056
        },
        {
          "duration": 0.40990218749999485,
          "durationTicks": 202,
          "midi": 49,
          "name": "C#3",
          "ticks": 60286,
          "time": 234.7010015625,
          "velocity": 0.968503937007874
        },
        {
          "duration": 0.3490256249999959,
          "durationTicks": 172,
          "midi": 35,
          "name": "B1",
          "ticks": 60414,
          "time": 234.9607415625,
          "velocity": 0.937007874015748
        },
        {
          "duration": 0.6737006249999808,
          "durationTicks": 332,
          "midi": 40,
          "name": "E2",
          "ticks": 60478,
          "time": 235.09061156250002,
          "velocity": 0.968503937007874
        },
        {
          "duration": 0.43831124999999815,
          "durationTicks": 216,
          "midi": 42,
          "name": "F#2",
          "ticks": 60478,
          "time": 235.09061156250002,
          "velocity": 0.9606299212598425
        },
        {
          "duration": 0.21509718749999251,
          "durationTicks": 106,
          "midi": 46,
          "name": "A#2",
          "ticks": 60478,
          "time": 235.09061156250002,
          "velocity": 0.9606299212598425
        },
        {
          "duration": 0.1420453125000165,
          "durationTicks": 70,
          "midi": 35,
          "name": "B1",
          "ticks": 60670,
          "time": 235.4802215625,
          "velocity": 0.9606299212598425
        },
        {
          "duration": 0.33279187499999807,
          "durationTicks": 164,
          "midi": 46,
          "name": "A#2",
          "ticks": 60670,
          "time": 235.4802215625,
          "velocity": 0.9606299212598425
        },
        {
          "duration": 0.38149312499999155,
          "durationTicks": 188,
          "midi": 35,
          "name": "B1",
          "ticks": 60798,
          "time": 235.7399615625,
          "velocity": 0.9448818897637795
        },
        {
          "duration": 0.6696421875000169,
          "durationTicks": 330,
          "midi": 40,
          "name": "E2",
          "ticks": 60862,
          "time": 235.8698315625,
          "velocity": 0.968503937007874
        },
        {
          "duration": 0.38149312500002,
          "durationTicks": 188,
          "midi": 42,
          "name": "F#2",
          "ticks": 60862,
          "time": 235.8698315625,
          "velocity": 0.9606299212598425
        },
        {
          "duration": 0.21103875000000016,
          "durationTicks": 104,
          "midi": 46,
          "name": "A#2",
          "ticks": 60862,
          "time": 235.8698315625,
          "velocity": 0.9606299212598425
        },
        {
          "duration": 0.13798687499999573,
          "durationTicks": 68,
          "midi": 35,
          "name": "B1",
          "ticks": 61054,
          "time": 236.2594415625,
          "velocity": 0.9291338582677166
        },
        {
          "duration": 0.2069803125000078,
          "durationTicks": 102,
          "midi": 46,
          "name": "A#2",
          "ticks": 61054,
          "time": 236.2594415625,
          "velocity": 0.9606299212598425
        },
        {
          "duration": 0.3774346874999992,
          "durationTicks": 186,
          "midi": 35,
          "name": "B1",
          "ticks": 61182,
          "time": 236.5191815625,
          "velocity": 0.952755905511811
        },
        {
          "duration": 0.6412331249999852,
          "durationTicks": 316,
          "midi": 40,
          "name": "E2",
          "ticks": 61246,
          "time": 236.6490515625,
          "velocity": 0.968503937007874
        },
        {
          "duration": 0.2719153124999991,
          "durationTicks": 134,
          "midi": 46,
          "name": "A#2",
          "ticks": 61246,
          "time": 236.6490515625,
          "velocity": 0.968503937007874
        },
        {
          "duration": 0.10146093750000773,
          "durationTicks": 50,
          "midi": 35,
          "name": "B1",
          "ticks": 61438,
          "time": 237.0386615625,
          "velocity": 0.968503937007874
        },
        {
          "duration": 0.27597374999999147,
          "durationTicks": 136,
          "midi": 46,
          "name": "A#2",
          "ticks": 61438,
          "time": 237.0386615625,
          "velocity": 0.968503937007874
        },
        {
          "duration": 0.393668437499997,
          "durationTicks": 194,
          "midi": 35,
          "name": "B1",
          "ticks": 61566,
          "time": 237.2984015625,
          "velocity": 0.9606299212598425
        },
        {
          "duration": 0.6249993749999874,
          "durationTicks": 308,
          "midi": 40,
          "name": "E2",
          "ticks": 61630,
          "time": 237.42827156250002,
          "velocity": 0.968503937007874
        },
        {
          "duration": 0.28409062499997617,
          "durationTicks": 140,
          "midi": 46,
          "name": "A#2",
          "ticks": 61630,
          "time": 237.42827156250002,
          "velocity": 0.968503937007874
        },
        {
          "duration": 0.13392843750000338,
          "durationTicks": 66,
          "midi": 35,
          "name": "B1",
          "ticks": 61822,
          "time": 237.8178815625,
          "velocity": 0.968503937007874
        },
        {
          "duration": 0.28814906250002537,
          "durationTicks": 142,
          "midi": 46,
          "name": "A#2",
          "ticks": 61822,
          "time": 237.8178815625,
          "velocity": 0.968503937007874
        },
        {
          "duration": 0.3733762499999784,
          "durationTicks": 184,
          "midi": 35,
          "name": "B1",
          "ticks": 61950,
          "time": 238.0776215625,
          "velocity": 0.952755905511811
        },
        {
          "duration": 0.6980512500000202,
          "durationTicks": 344,
          "midi": 40,
          "name": "E2",
          "ticks": 62014,
          "time": 238.2074915625,
          "velocity": 0.968503937007874
        },
        {
          "duration": 0.30844125000001554,
          "durationTicks": 152,
          "midi": 46,
          "name": "A#2",
          "ticks": 62014,
          "time": 238.2074915625,
          "velocity": 0.9606299212598425
        },
        {
          "duration": 0.12581156249999026,
          "durationTicks": 62,
          "midi": 35,
          "name": "B1",
          "ticks": 62206,
          "time": 238.5971015625,
          "velocity": 0.968503937007874
        },
        {
          "duration": 0.3124996875000079,
          "durationTicks": 154,
          "midi": 46,
          "name": "A#2",
          "ticks": 62206,
          "time": 238.5971015625,
          "velocity": 0.9606299212598425
        },
        {
          "duration": 0.26785687500000677,
          "durationTicks": 132,
          "midi": 35,
          "name": "B1",
          "ticks": 62334,
          "time": 238.8568415625,
          "velocity": 0.968503937007874
        },
        {
          "duration": 0.3977268749999894,
          "durationTicks": 196,
          "midi": 40,
          "name": "E2",
          "ticks": 62398,
          "time": 238.9867115625,
          "velocity": 0.968503937007874
        },
        {
          "duration": 0.33279187499999807,
          "durationTicks": 164,
          "midi": 46,
          "name": "A#2",
          "ticks": 62398,
          "time": 238.9867115625,
          "velocity": 0.9606299212598425
        },
        {
          "duration": 0.0649349999999913,
          "durationTicks": 32,
          "midi": 35,
          "name": "B1",
          "ticks": 62526,
          "time": 239.2464515625,
          "velocity": 0.968503937007874
        },
        {
          "duration": 0.08116874999998913,
          "durationTicks": 40,
          "midi": 35,
          "name": "B1",
          "ticks": 62590,
          "time": 239.3763215625,
          "velocity": 0.968503937007874
        },
        {
          "duration": 0.30438281249999477,
          "durationTicks": 150,
          "midi": 46,
          "name": "A#2",
          "ticks": 62590,
          "time": 239.3763215625,
          "velocity": 0.9606299212598425
        },
        {
          "duration": 0.06493500000001973,
          "durationTicks": 32,
          "midi": 40,
          "name": "E2",
          "ticks": 62654,
          "time": 239.5061915625,
          "velocity": 0.968503937007874
        },
        {
          "duration": 0.07305187500000443,
          "durationTicks": 36,
          "midi": 40,
          "name": "E2",
          "ticks": 62718,
          "time": 239.6360615625,
          "velocity": 0.9606299212598425
        },
        {
          "duration": 0.10146093749997931,
          "durationTicks": 50,
          "midi": 40,
          "name": "E2",
          "ticks": 62782,
          "time": 239.76593156250001,
          "velocity": 0.9606299212598425
        },
        {
          "duration": 0.21103875000000016,
          "durationTicks": 104,
          "midi": 46,
          "name": "A#2",
          "ticks": 62782,
          "time": 239.76593156250001,
          "velocity": 0.9606299212598425
        },
        {
          "duration": 0.19480500000000234,
          "durationTicks": 96,
          "midi": 35,
          "name": "B1",
          "ticks": 62846,
          "time": 239.8958015625,
          "velocity": 0.968503937007874
        },
        {
          "duration": 0.1298699999999826,
          "durationTicks": 64,
          "midi": 40,
          "name": "E2",
          "ticks": 62910,
          "time": 240.0256715625,
          "velocity": 0.9763779527559056
        },
        {
          "duration": 0.848213437499993,
          "durationTicks": 418,
          "midi": 49,
          "name": "C#3",
          "ticks": 62910,
          "time": 240.0256715625,
          "velocity": 0.9763779527559056
        },
        {
          "duration": 0.08116874999998913,
          "durationTicks": 40,
          "midi": 40,
          "name": "E2",
          "ticks": 63230,
          "time": 240.6750215625,
          "velocity": 0.968503937007874
        },
        {
          "duration": 0.08522718749998148,
          "durationTicks": 42,
          "midi": 40,
          "name": "E2",
          "ticks": 63294,
          "time": 240.80489156250002,
          "velocity": 0.968503937007874
        },
        {
          "duration": 0.21103875000000016,
          "durationTicks": 104,
          "midi": 35,
          "name": "B1",
          "ticks": 63358,
          "time": 240.9347615625,
          "velocity": 0.9763779527559056
        },
        {
          "duration": 0.4058437500000025,
          "durationTicks": 200,
          "midi": 49,
          "name": "C#3",
          "ticks": 63358,
          "time": 240.9347615625,
          "velocity": 0.9606299212598425
        },
        {
          "duration": 0.32467500000001337,
          "durationTicks": 160,
          "midi": 35,
          "name": "B1",
          "ticks": 63486,
          "time": 241.1945015625,
          "velocity": 0.9606299212598425
        },
        {
          "duration": 0.7021096875000126,
          "durationTicks": 346,
          "midi": 40,
          "name": "E2",
          "ticks": 63550,
          "time": 241.3243715625,
          "velocity": 0.9763779527559056
        },
        {
          "duration": 0.31655812500000025,
          "durationTicks": 156,
          "midi": 46,
          "name": "A#2",
          "ticks": 63550,
          "time": 241.3243715625,
          "velocity": 0.9606299212598425
        },
        {
          "duration": 0.060876562499998954,
          "durationTicks": 30,
          "midi": 35,
          "name": "B1",
          "ticks": 63678,
          "time": 241.5841115625,
          "velocity": 0.952755905511811
        },
        {
          "duration": 0.20292187499998704,
          "durationTicks": 100,
          "midi": 35,
          "name": "B1",
          "ticks": 63742,
          "time": 241.7139815625,
          "velocity": 0.9448818897637795
        },
        {
          "duration": 0.3287334375000057,
          "durationTicks": 162,
          "midi": 46,
          "name": "A#2",
          "ticks": 63742,
          "time": 241.7139815625,
          "velocity": 0.9606299212598425
        },
        {
          "duration": 0.28003218750001224,
          "durationTicks": 138,
          "midi": 35,
          "name": "B1",
          "ticks": 63870,
          "time": 241.9737215625,
          "velocity": 0.952755905511811
        },
        {
          "duration": 0.6655837499999961,
          "durationTicks": 328,
          "midi": 40,
          "name": "E2",
          "ticks": 63934,
          "time": 242.10359156250001,
          "velocity": 0.968503937007874
        },
        {
          "duration": 0.3368503124999904,
          "durationTicks": 166,
          "midi": 46,
          "name": "A#2",
          "ticks": 63934,
          "time": 242.10359156250001,
          "velocity": 0.9606299212598425
        },
        {
          "duration": 0.07711031249999678,
          "durationTicks": 38,
          "midi": 35,
          "name": "B1",
          "ticks": 64062,
          "time": 242.3633315625,
          "velocity": 0.9133858267716536
        },
        {
          "duration": 0.20292187499998704,
          "durationTicks": 100,
          "midi": 35,
          "name": "B1",
          "ticks": 64126,
          "time": 242.49320156250002,
          "velocity": 0.968503937007874
        },
        {
          "duration": 0.33279187499999807,
          "durationTicks": 164,
          "midi": 46,
          "name": "A#2",
          "ticks": 64126,
          "time": 242.49320156250002,
          "velocity": 0.9606299212598425
        },
        {
          "duration": 0.29626593749998165,
          "durationTicks": 146,
          "midi": 35,
          "name": "B1",
          "ticks": 64254,
          "time": 242.7529415625,
          "velocity": 0.952755905511811
        },
        {
          "duration": 0.6737006250000093,
          "durationTicks": 332,
          "midi": 40,
          "name": "E2",
          "ticks": 64318,
          "time": 242.8828115625,
          "velocity": 0.968503937007874
        },
        {
          "duration": 0.3287334375000057,
          "durationTicks": 162,
          "midi": 46,
          "name": "A#2",
          "ticks": 64318,
          "time": 242.8828115625,
          "velocity": 0.9606299212598425
        },
        {
          "duration": 0.07305187499997601,
          "durationTicks": 36,
          "midi": 35,
          "name": "B1",
          "ticks": 64446,
          "time": 243.14255156250002,
          "velocity": 0.952755905511811
        },
        {
          "duration": 0.15827906250001433,
          "durationTicks": 78,
          "midi": 35,
          "name": "B1",
          "ticks": 64510,
          "time": 243.2724215625,
          "velocity": 0.952755905511811
        },
        {
          "duration": 0.32467500000001337,
          "durationTicks": 160,
          "midi": 46,
          "name": "A#2",
          "ticks": 64510,
          "time": 243.2724215625,
          "velocity": 0.9606299212598425
        },
        {
          "duration": 0.12581156250001868,
          "durationTicks": 62,
          "midi": 35,
          "name": "B1",
          "ticks": 64638,
          "time": 243.5321615625,
          "velocity": 0.9606299212598425
        },
        {
          "duration": 0.09740250000001538,
          "durationTicks": 48,
          "midi": 40,
          "name": "E2",
          "ticks": 64702,
          "time": 243.6620315625,
          "velocity": 0.968503937007874
        },
        {
          "duration": 0.357142500000009,
          "durationTicks": 176,
          "midi": 46,
          "name": "A#2",
          "ticks": 64702,
          "time": 243.6620315625,
          "velocity": 0.9606299212598425
        },
        {
          "duration": 0.0933440624999946,
          "durationTicks": 46,
          "midi": 40,
          "name": "E2",
          "ticks": 64766,
          "time": 243.79190156250002,
          "velocity": 0.9606299212598425
        },
        {
          "duration": 0.4220775000000003,
          "durationTicks": 208,
          "midi": 40,
          "name": "E2",
          "ticks": 64830,
          "time": 243.9217715625,
          "velocity": 0.952755905511811
        },
        {
          "duration": 0.21509718749999251,
          "durationTicks": 106,
          "midi": 35,
          "name": "B1",
          "ticks": 64894,
          "time": 244.0516415625,
          "velocity": 0.968503937007874
        },
        {
          "duration": 0.3490256249999959,
          "durationTicks": 172,
          "midi": 49,
          "name": "C#3",
          "ticks": 64894,
          "time": 244.0516415625,
          "velocity": 0.9606299212598425
        },
        {
          "duration": 0.28003218750001224,
          "durationTicks": 138,
          "midi": 35,
          "name": "B1",
          "ticks": 65022,
          "time": 244.3113815625,
          "velocity": 0.952755905511811
        },
        {
          "duration": 0.6858759374999863,
          "durationTicks": 338,
          "midi": 40,
          "name": "E2",
          "ticks": 65086,
          "time": 244.4412515625,
          "velocity": 0.9763779527559056
        },
        {
          "duration": 0.33279187499999807,
          "durationTicks": 164,
          "midi": 46,
          "name": "A#2",
          "ticks": 65086,
          "time": 244.4412515625,
          "velocity": 0.968503937007874
        },
        {
          "duration": 0.06899343750001208,
          "durationTicks": 34,
          "midi": 35,
          "name": "B1",
          "ticks": 65214,
          "time": 244.7009915625,
          "velocity": 0.9448818897637795
        },
        {
          "duration": 0.15827906250001433,
          "durationTicks": 78,
          "midi": 35,
          "name": "B1",
          "ticks": 65278,
          "time": 244.8308615625,
          "velocity": 0.952755905511811
        },
        {
          "duration": 0.32467500000001337,
          "durationTicks": 160,
          "midi": 46,
          "name": "A#2",
          "ticks": 65278,
          "time": 244.8308615625,
          "velocity": 0.9606299212598425
        },
        {
          "duration": 0.2069803124999794,
          "durationTicks": 102,
          "midi": 35,
          "name": "B1",
          "ticks": 65406,
          "time": 245.0906015625,
          "velocity": 0.968503937007874
        },
        {
          "duration": 0.1420453125000165,
          "durationTicks": 70,
          "midi": 40,
          "name": "E2",
          "ticks": 65470,
          "time": 245.2204715625,
          "velocity": 0.968503937007874
        },
        {
          "duration": 0.33685031250001884,
          "durationTicks": 166,
          "midi": 46,
          "name": "A#2",
          "ticks": 65470,
          "time": 245.2204715625,
          "velocity": 0.968503937007874
        },
        {
          "duration": 0.1501621875000012,
          "durationTicks": 74,
          "midi": 43,
          "name": "G2",
          "ticks": 65534,
          "time": 245.3503415625,
          "velocity": 0.952755905511811
        },
        {
          "duration": 0.28409062499997617,
          "durationTicks": 140,
          "midi": 45,
          "name": "A2",
          "ticks": 65598,
          "time": 245.48021156250002,
          "velocity": 0.952755905511811
        },
        {
          "duration": 0.18668812500001764,
          "durationTicks": 92,
          "midi": 35,
          "name": "B1",
          "ticks": 65662,
          "time": 245.6100815625,
          "velocity": 0.9763779527559056
        },
        {
          "duration": 0.37337625000000685,
          "durationTicks": 184,
          "midi": 49,
          "name": "C#3",
          "ticks": 65662,
          "time": 245.6100815625,
          "velocity": 0.9606299212598425
        },
        {
          "duration": 0.19074656250001,
          "durationTicks": 94,
          "midi": 35,
          "name": "B1",
          "ticks": 65790,
          "time": 245.8698215625,
          "velocity": 0.968503937007874
        },
        {
          "duration": 0.7183434375000104,
          "durationTicks": 354,
          "midi": 40,
          "name": "E2",
          "ticks": 65854,
          "time": 245.9996915625,
          "velocity": 0.9763779527559056
        },
        {
          "duration": 0.33279187499999807,
          "durationTicks": 164,
          "midi": 46,
          "name": "A#2",
          "ticks": 65854,
          "time": 245.9996915625,
          "velocity": 0.968503937007874
        },
        {
          "duration": 0.07711031249999678,
          "durationTicks": 38,
          "midi": 35,
          "name": "B1",
          "ticks": 65982,
          "time": 246.2594315625,
          "velocity": 0.952755905511811
        },
        {
          "duration": 0.1866881249999892,
          "durationTicks": 92,
          "midi": 35,
          "name": "B1",
          "ticks": 66046,
          "time": 246.3893015625,
          "velocity": 0.952755905511811
        },
        {
          "duration": 0.2719153124999991,
          "durationTicks": 134,
          "midi": 46,
          "name": "A#2",
          "ticks": 66046,
          "time": 246.3893015625,
          "velocity": 0.9606299212598425
        },
        {
          "duration": 0.1785712500000045,
          "durationTicks": 88,
          "midi": 35,
          "name": "B1",
          "ticks": 66174,
          "time": 246.6490415625,
          "velocity": 0.968503937007874
        },
        {
          "duration": 0.6534084374999907,
          "durationTicks": 322,
          "midi": 40,
          "name": "E2",
          "ticks": 66238,
          "time": 246.7789115625,
          "velocity": 0.9763779527559056
        },
        {
          "duration": 0.3206165624999926,
          "durationTicks": 158,
          "midi": 46,
          "name": "A#2",
          "ticks": 66238,
          "time": 246.7789115625,
          "velocity": 0.9606299212598425
        },
        {
          "duration": 0.08116874999998913,
          "durationTicks": 40,
          "midi": 35,
          "name": "B1",
          "ticks": 66366,
          "time": 247.0386515625,
          "velocity": 0.952755905511811
        },
        {
          "duration": 0.1988634374999947,
          "durationTicks": 98,
          "midi": 35,
          "name": "B1",
          "ticks": 66430,
          "time": 247.16852156250002,
          "velocity": 0.9606299212598425
        },
        {
          "duration": 0.36120093749997295,
          "durationTicks": 178,
          "midi": 49,
          "name": "C#3",
          "ticks": 66430,
          "time": 247.16852156250002,
          "velocity": 0.968503937007874
        },
        {
          "duration": 0.1866881249999892,
          "durationTicks": 92,
          "midi": 35,
          "name": "B1",
          "ticks": 66558,
          "time": 247.4282615625,
          "velocity": 0.952755905511811
        },
        {
          "duration": 0.7061681250000049,
          "durationTicks": 348,
          "midi": 40,
          "name": "E2",
          "ticks": 66622,
          "time": 247.5581315625,
          "velocity": 0.968503937007874
        },
        {
          "duration": 0.26785687500000677,
          "durationTicks": 132,
          "midi": 46,
          "name": "A#2",
          "ticks": 66622,
          "time": 247.5581315625,
          "velocity": 0.9606299212598425
        },
        {
          "duration": 0.08116874999998913,
          "durationTicks": 40,
          "midi": 35,
          "name": "B1",
          "ticks": 66750,
          "time": 247.81787156250002,
          "velocity": 0.952755905511811
        },
        {
          "duration": 0.1704543749999914,
          "durationTicks": 84,
          "midi": 35,
          "name": "B1",
          "ticks": 66814,
          "time": 247.9477415625,
          "velocity": 0.952755905511811
        },
        {
          "duration": 0.2759737500000199,
          "durationTicks": 136,
          "midi": 46,
          "name": "A#2",
          "ticks": 66814,
          "time": 247.9477415625,
          "velocity": 0.9606299212598425
        },
        {
          "duration": 0.28003218750001224,
          "durationTicks": 138,
          "midi": 35,
          "name": "B1",
          "ticks": 66942,
          "time": 248.2074815625,
          "velocity": 0.952755905511811
        },
        {
          "duration": 0.681817499999994,
          "durationTicks": 336,
          "midi": 40,
          "name": "E2",
          "ticks": 67006,
          "time": 248.3373515625,
          "velocity": 0.9763779527559056
        },
        {
          "duration": 0.31655812500000025,
          "durationTicks": 156,
          "midi": 46,
          "name": "A#2",
          "ticks": 67006,
          "time": 248.3373515625,
          "velocity": 0.9606299212598425
        },
        {
          "duration": 0.07711031249999678,
          "durationTicks": 38,
          "midi": 35,
          "name": "B1",
          "ticks": 67134,
          "time": 248.5970915625,
          "velocity": 0.9606299212598425
        },
        {
          "duration": 0.19480500000000234,
          "durationTicks": 96,
          "midi": 35,
          "name": "B1",
          "ticks": 67198,
          "time": 248.7269615625,
          "velocity": 0.952755905511811
        },
        {
          "duration": 0.263798437499986,
          "durationTicks": 130,
          "midi": 46,
          "name": "A#2",
          "ticks": 67198,
          "time": 248.7269615625,
          "velocity": 0.9606299212598425
        },
        {
          "duration": 0.27597374999999147,
          "durationTicks": 136,
          "midi": 35,
          "name": "B1",
          "ticks": 67326,
          "time": 248.9867015625,
          "velocity": 0.952755905511811
        },
        {
          "duration": 0.6899343749999787,
          "durationTicks": 340,
          "midi": 40,
          "name": "E2",
          "ticks": 67390,
          "time": 249.1165715625,
          "velocity": 0.968503937007874
        },
        {
          "duration": 0.2840906250000046,
          "durationTicks": 140,
          "midi": 46,
          "name": "A#2",
          "ticks": 67390,
          "time": 249.1165715625,
          "velocity": 0.9606299212598425
        },
        {
          "duration": 0.08116874999998913,
          "durationTicks": 40,
          "midi": 35,
          "name": "B1",
          "ticks": 67518,
          "time": 249.3763115625,
          "velocity": 0.9448818897637795
        },
        {
          "duration": 0.16639593749997061,
          "durationTicks": 82,
          "midi": 35,
          "name": "B1",
          "ticks": 67582,
          "time": 249.50618156250002,
          "velocity": 0.952755905511811
        },
        {
          "duration": 0.2800321874999838,
          "durationTicks": 138,
          "midi": 46,
          "name": "A#2",
          "ticks": 67582,
          "time": 249.50618156250002,
          "velocity": 0.9606299212598425
        },
        {
          "duration": 0.28814906249999694,
          "durationTicks": 142,
          "midi": 35,
          "name": "B1",
          "ticks": 67710,
          "time": 249.7659215625,
          "velocity": 0.952755905511811
        },
        {
          "duration": 0.6777590625000016,
          "durationTicks": 334,
          "midi": 40,
          "name": "E2",
          "ticks": 67774,
          "time": 249.8957915625,
          "velocity": 0.9763779527559056
        },
        {
          "duration": 0.3003243750000024,
          "durationTicks": 148,
          "midi": 46,
          "name": "A#2",
          "ticks": 67774,
          "time": 249.8957915625,
          "velocity": 0.9606299212598425
        },
        {
          "duration": 0.08116874999998913,
          "durationTicks": 40,
          "midi": 35,
          "name": "B1",
          "ticks": 67902,
          "time": 250.15553156250002,
          "velocity": 0.952755905511811
        },
        {
          "duration": 0.17451281250001216,
          "durationTicks": 86,
          "midi": 35,
          "name": "B1",
          "ticks": 67966,
          "time": 250.2854015625,
          "velocity": 0.968503937007874
        },
        {
          "duration": 0.28003218750001224,
          "durationTicks": 138,
          "midi": 46,
          "name": "A#2",
          "ticks": 67966,
          "time": 250.2854015625,
          "velocity": 0.9606299212598425
        },
        {
          "duration": 0.26785687499997834,
          "durationTicks": 132,
          "midi": 35,
          "name": "B1",
          "ticks": 68094,
          "time": 250.54514156250002,
          "velocity": 0.952755905511811
        },
        {
          "duration": 0.6939928124999994,
          "durationTicks": 342,
          "midi": 40,
          "name": "E2",
          "ticks": 68158,
          "time": 250.6750115625,
          "velocity": 0.968503937007874
        },
        {
          "duration": 0.28814906249999694,
          "durationTicks": 142,
          "midi": 46,
          "name": "A#2",
          "ticks": 68158,
          "time": 250.6750115625,
          "velocity": 0.9606299212598425
        },
        {
          "duration": 0.08116875000001755,
          "durationTicks": 40,
          "midi": 35,
          "name": "B1",
          "ticks": 68286,
          "time": 250.9347515625,
          "velocity": 0.968503937007874
        },
        {
          "duration": 0.1582790624999859,
          "durationTicks": 78,
          "midi": 35,
          "name": "B1",
          "ticks": 68350,
          "time": 251.0646215625,
          "velocity": 0.9606299212598425
        },
        {
          "duration": 0.26785687500000677,
          "durationTicks": 132,
          "midi": 46,
          "name": "A#2",
          "ticks": 68350,
          "time": 251.0646215625,
          "velocity": 0.952755905511811
        },
        {
          "duration": 0.19074656250001,
          "durationTicks": 94,
          "midi": 35,
          "name": "B1",
          "ticks": 68478,
          "time": 251.3243615625,
          "velocity": 0.968503937007874
        },
        {
          "duration": 0.7102265624999973,
          "durationTicks": 350,
          "midi": 40,
          "name": "E2",
          "ticks": 68542,
          "time": 251.4542315625,
          "velocity": 0.968503937007874
        },
        {
          "duration": 0.34496718750000355,
          "durationTicks": 170,
          "midi": 46,
          "name": "A#2",
          "ticks": 68542,
          "time": 251.4542315625,
          "velocity": 0.952755905511811
        },
        {
          "duration": 0.08116874999998913,
          "durationTicks": 40,
          "midi": 35,
          "name": "B1",
          "ticks": 68670,
          "time": 251.7139715625,
          "velocity": 0.968503937007874
        },
        {
          "duration": 0.23133093749999034,
          "durationTicks": 114,
          "midi": 35,
          "name": "B1",
          "ticks": 68734,
          "time": 251.84384156250002,
          "velocity": 0.9763779527559056
        },
        {
          "duration": 0.6899343749999787,
          "durationTicks": 340,
          "midi": 49,
          "name": "C#3",
          "ticks": 68734,
          "time": 251.84384156250002,
          "velocity": 0.968503937007874
        },
        {
          "duration": 0.1704543749999914,
          "durationTicks": 84,
          "midi": 35,
          "name": "B1",
          "ticks": 68862,
          "time": 252.1035815625,
          "velocity": 0.968503937007874
        },
        {
          "duration": 0.7183434375000104,
          "durationTicks": 354,
          "midi": 40,
          "name": "E2",
          "ticks": 68926,
          "time": 252.2334515625,
          "velocity": 0.968503937007874
        },
        {
          "duration": 0.28814906250002537,
          "durationTicks": 142,
          "midi": 46,
          "name": "A#2",
          "ticks": 68926,
          "time": 252.2334515625,
          "velocity": 0.9606299212598425
        },
        {
          "duration": 0.3855515624999839,
          "durationTicks": 190,
          "midi": 35,
          "name": "B1",
          "ticks": 69054,
          "time": 252.49319156250002,
          "velocity": 0.9763779527559056
        },
        {
          "duration": 0.6371746874999928,
          "durationTicks": 314,
          "midi": 49,
          "name": "C#3",
          "ticks": 69118,
          "time": 252.6230615625,
          "velocity": 0.968503937007874
        },
        {
          "duration": 0.31655812500002867,
          "durationTicks": 156,
          "midi": 35,
          "name": "B1",
          "ticks": 69246,
          "time": 252.8828015625,
          "velocity": 0.968503937007874
        },
        {
          "duration": 0.7386356250000006,
          "durationTicks": 364,
          "midi": 40,
          "name": "E2",
          "ticks": 69310,
          "time": 253.0126715625,
          "velocity": 0.968503937007874
        },
        {
          "duration": 0.23538937500001111,
          "durationTicks": 116,
          "midi": 46,
          "name": "A#2",
          "ticks": 69310,
          "time": 253.0126715625,
          "velocity": 0.9606299212598425
        },
        {
          "duration": 0.08116875000001755,
          "durationTicks": 40,
          "midi": 35,
          "name": "B1",
          "ticks": 69438,
          "time": 253.2724115625,
          "velocity": 0.952755905511811
        },
        {
          "duration": 0.2353893749999827,
          "durationTicks": 116,
          "midi": 35,
          "name": "B1",
          "ticks": 69502,
          "time": 253.4022815625,
          "velocity": 0.9606299212598425
        },
        {
          "duration": 0.657466874999983,
          "durationTicks": 324,
          "midi": 49,
          "name": "C#3",
          "ticks": 69502,
          "time": 253.4022815625,
          "velocity": 0.968503937007874
        },
        {
          "duration": 0.12987000000001103,
          "durationTicks": 64,
          "midi": 35,
          "name": "B1",
          "ticks": 69630,
          "time": 253.6620215625,
          "velocity": 0.9763779527559056
        },
        {
          "duration": 0.19480500000000234,
          "durationTicks": 96,
          "midi": 40,
          "name": "E2",
          "ticks": 69694,
          "time": 253.7918915625,
          "velocity": 0.9763779527559056
        },
        {
          "duration": 0.2353893749999827,
          "durationTicks": 116,
          "midi": 46,
          "name": "A#2",
          "ticks": 69694,
          "time": 253.7918915625,
          "velocity": 0.9606299212598425
        },
        {
          "duration": 0.12987000000001103,
          "durationTicks": 64,
          "midi": 35,
          "name": "B1",
          "ticks": 69886,
          "time": 254.1815015625,
          "velocity": 0.968503937007874
        },
        {
          "duration": 0.3977268750000178,
          "durationTicks": 196,
          "midi": 49,
          "name": "C#3",
          "ticks": 69886,
          "time": 254.1815015625,
          "velocity": 0.968503937007874
        },
        {
          "duration": 0.08928562500000226,
          "durationTicks": 44,
          "midi": 35,
          "name": "B1",
          "ticks": 70014,
          "time": 254.4412415625,
          "velocity": 0.968503937007874
        },
        {
          "duration": 0.19480500000000234,
          "durationTicks": 96,
          "midi": 40,
          "name": "E2",
          "ticks": 70078,
          "time": 254.5711115625,
          "velocity": 0.9763779527559056
        },
        {
          "duration": 0.10957781250002085,
          "durationTicks": 54,
          "midi": 46,
          "name": "A#2",
          "ticks": 70078,
          "time": 254.5711115625,
          "velocity": 0.9606299212598425
        },
        {
          "duration": 0.12987000000001103,
          "durationTicks": 64,
          "midi": 35,
          "name": "B1",
          "ticks": 70142,
          "time": 254.7009815625,
          "velocity": 0.9763779527559056
        },
        {
          "duration": 0.12175312499999791,
          "durationTicks": 60,
          "midi": 49,
          "name": "C#3",
          "ticks": 70142,
          "time": 254.7009815625,
          "velocity": 0.968503937007874
        },
        {
          "duration": 0.41801906249997955,
          "durationTicks": 206,
          "midi": 40,
          "name": "E2",
          "ticks": 70206,
          "time": 254.83085156250002,
          "velocity": 0.968503937007874
        },
        {
          "duration": 0.2556815625000013,
          "durationTicks": 126,
          "midi": 46,
          "name": "A#2",
          "ticks": 70206,
          "time": 254.83085156250002,
          "velocity": 0.968503937007874
        },
        {
          "duration": 0.19480500000000234,
          "durationTicks": 96,
          "midi": 35,
          "name": "B1",
          "ticks": 70270,
          "time": 254.9607215625,
          "velocity": 0.968503937007874
        },
        {
          "duration": 2.337660000000028,
          "durationTicks": 1152,
          "midi": 49,
          "name": "C#3",
          "ticks": 70270,
          "time": 254.9607215625,
          "velocity": 0.968503937007874
        },
        {
          "duration": 0.3733762499999784,
          "durationTicks": 184,
          "midi": 35,
          "name": "B1",
          "ticks": 70398,
          "time": 255.22046156250002,
          "velocity": 0.952755905511811
        },
        {
          "duration": 0.6574668750000114,
          "durationTicks": 324,
          "midi": 40,
          "name": "E2",
          "ticks": 70462,
          "time": 255.3503315625,
          "velocity": 0.968503937007874
        },
        {
          "duration": 0.33685031250001884,
          "durationTicks": 166,
          "midi": 46,
          "name": "A#2",
          "ticks": 70462,
          "time": 255.3503315625,
          "velocity": 0.9606299212598425
        },
        {
          "duration": 0.1501621875000012,
          "durationTicks": 74,
          "midi": 35,
          "name": "B1",
          "ticks": 70654,
          "time": 255.7399415625,
          "velocity": 0.968503937007874
        },
        {
          "duration": 0.27597374999999147,
          "durationTicks": 136,
          "midi": 46,
          "name": "A#2",
          "ticks": 70654,
          "time": 255.7399415625,
          "velocity": 0.9606299212598425
        },
        {
          "duration": 0.40178531249998173,
          "durationTicks": 198,
          "midi": 35,
          "name": "B1",
          "ticks": 70782,
          "time": 255.9996815625,
          "velocity": 0.952755905511811
        },
        {
          "duration": 0.6655837499999961,
          "durationTicks": 328,
          "midi": 40,
          "name": "E2",
          "ticks": 70846,
          "time": 256.1295515625,
          "velocity": 0.968503937007874
        },
        {
          "duration": 0.28409062499997617,
          "durationTicks": 140,
          "midi": 46,
          "name": "A#2",
          "ticks": 70846,
          "time": 256.1295515625,
          "velocity": 0.9606299212598425
        },
        {
          "duration": 0.16233749999997826,
          "durationTicks": 80,
          "midi": 35,
          "name": "B1",
          "ticks": 71038,
          "time": 256.5191615625,
          "velocity": 0.968503937007874
        },
        {
          "duration": 0.28409062499997617,
          "durationTicks": 140,
          "midi": 46,
          "name": "A#2",
          "ticks": 71038,
          "time": 256.5191615625,
          "velocity": 0.968503937007874
        },
        {
          "duration": 0.3612009375000298,
          "durationTicks": 178,
          "midi": 35,
          "name": "B1",
          "ticks": 71166,
          "time": 256.7789015625,
          "velocity": 0.9448818897637795
        },
        {
          "duration": 0.6858759374999863,
          "durationTicks": 338,
          "midi": 40,
          "name": "E2",
          "ticks": 71230,
          "time": 256.9087715625,
          "velocity": 0.968503937007874
        },
        {
          "duration": 0.29626593749998165,
          "durationTicks": 146,
          "midi": 46,
          "name": "A#2",
          "ticks": 71230,
          "time": 256.9087715625,
          "velocity": 0.968503937007874
        },
        {
          "duration": 0.11363624999995636,
          "durationTicks": 56,
          "midi": 35,
          "name": "B1",
          "ticks": 71422,
          "time": 257.2983815625,
          "velocity": 0.952755905511811
        },
        {
          "duration": 0.27597374999999147,
          "durationTicks": 136,
          "midi": 46,
          "name": "A#2",
          "ticks": 71422,
          "time": 257.2983815625,
          "velocity": 0.968503937007874
        },
        {
          "duration": 0.357142500000009,
          "durationTicks": 176,
          "midi": 35,
          "name": "B1",
          "ticks": 71550,
          "time": 257.5581215625,
          "velocity": 0.9606299212598425
        },
        {
          "duration": 0.665583750000053,
          "durationTicks": 328,
          "midi": 40,
          "name": "E2",
          "ticks": 71614,
          "time": 257.6879915625,
          "velocity": 0.968503937007874
        },
        {
          "duration": 0.284090625000033,
          "durationTicks": 140,
          "midi": 46,
          "name": "A#2",
          "ticks": 71614,
          "time": 257.6879915625,
          "velocity": 0.9606299212598425
        },
        {
          "duration": 0.1136362500000132,
          "durationTicks": 56,
          "midi": 35,
          "name": "B1",
          "ticks": 71806,
          "time": 258.0776015625,
          "velocity": 0.968503937007874
        },
        {
          "duration": 0.28003218750001224,
          "durationTicks": 138,
          "midi": 46,
          "name": "A#2",
          "ticks": 71806,
          "time": 258.0776015625,
          "velocity": 0.9606299212598425
        },
        {
          "duration": 0.34496718750000355,
          "durationTicks": 170,
          "midi": 35,
          "name": "B1",
          "ticks": 71934,
          "time": 258.3373415625,
          "velocity": 0.9606299212598425
        },
        {
          "duration": 0.7021096875000126,
          "durationTicks": 346,
          "midi": 40,
          "name": "E2",
          "ticks": 71998,
          "time": 258.4672115625,
          "velocity": 0.968503937007874
        },
        {
          "duration": 0.284090625000033,
          "durationTicks": 140,
          "midi": 46,
          "name": "A#2",
          "ticks": 71998,
          "time": 258.4672115625,
          "velocity": 0.9606299212598425
        },
        {
          "duration": 0.12175312499999791,
          "durationTicks": 60,
          "midi": 35,
          "name": "B1",
          "ticks": 72190,
          "time": 258.8568215625,
          "velocity": 0.968503937007874
        },
        {
          "duration": 0.2922075000000177,
          "durationTicks": 144,
          "midi": 46,
          "name": "A#2",
          "ticks": 72190,
          "time": 258.8568215625,
          "velocity": 0.9606299212598425
        },
        {
          "duration": 0.357142500000009,
          "durationTicks": 176,
          "midi": 35,
          "name": "B1",
          "ticks": 72318,
          "time": 259.1165615625,
          "velocity": 0.968503937007874
        },
        {
          "duration": 0.6615253125000322,
          "durationTicks": 326,
          "midi": 40,
          "name": "E2",
          "ticks": 72382,
          "time": 259.2464315625,
          "velocity": 0.968503937007874
        },
        {
          "duration": 0.31655812500002867,
          "durationTicks": 156,
          "midi": 46,
          "name": "A#2",
          "ticks": 72382,
          "time": 259.2464315625,
          "velocity": 0.968503937007874
        },
        {
          "duration": 0.13798687500002416,
          "durationTicks": 68,
          "midi": 35,
          "name": "B1",
          "ticks": 72574,
          "time": 259.6360415625,
          "velocity": 0.968503937007874
        },
        {
          "duration": 0.23133093749999034,
          "durationTicks": 114,
          "midi": 49,
          "name": "C#3",
          "ticks": 72574,
          "time": 259.6360415625,
          "velocity": 0.968503937007874
        },
        {
          "duration": 0.33279187499999807,
          "durationTicks": 164,
          "midi": 35,
          "name": "B1",
          "ticks": 72702,
          "time": 259.8957815625,
          "velocity": 0.968503937007874
        },
        {
          "duration": 0.6939928125000279,
          "durationTicks": 342,
          "midi": 40,
          "name": "E2",
          "ticks": 72766,
          "time": 260.0256515625,
          "velocity": 0.968503937007874
        },
        {
          "duration": 0.27597374999999147,
          "durationTicks": 136,
          "midi": 46,
          "name": "A#2",
          "ticks": 72766,
          "time": 260.0256515625,
          "velocity": 0.9606299212598425
        },
        {
          "duration": 0.14610375000000886,
          "durationTicks": 72,
          "midi": 35,
          "name": "B1",
          "ticks": 72958,
          "time": 260.4152615625,
          "velocity": 0.9606299212598425
        },
        {
          "duration": 0.3003243750000024,
          "durationTicks": 148,
          "midi": 46,
          "name": "A#2",
          "ticks": 72958,
          "time": 260.4152615625,
          "velocity": 0.9606299212598425
        },
        {
          "duration": 0.1379868749999673,
          "durationTicks": 68,
          "midi": 35,
          "name": "B1",
          "ticks": 73086,
          "time": 260.67500156250003,
          "velocity": 0.968503937007874
        },
        {
          "duration": 0.1501621874999728,
          "durationTicks": 74,
          "midi": 40,
          "name": "E2",
          "ticks": 73150,
          "time": 260.8048715625,
          "velocity": 0.968503937007874
        },
        {
          "duration": 0.40178531250001015,
          "durationTicks": 198,
          "midi": 46,
          "name": "A#2",
          "ticks": 73150,
          "time": 260.8048715625,
          "velocity": 0.968503937007874
        },
        {
          "duration": 0.15422062499999356,
          "durationTicks": 76,
          "midi": 43,
          "name": "G2",
          "ticks": 73214,
          "time": 260.9347415625,
          "velocity": 0.952755905511811
        },
        {
          "duration": 0.12581156250001868,
          "durationTicks": 62,
          "midi": 45,
          "name": "A2",
          "ticks": 73278,
          "time": 261.0646115625,
          "velocity": 0.9606299212598425
        },
        {
          "duration": 0.4991878124999971,
          "durationTicks": 246,
          "midi": 35,
          "name": "B1",
          "ticks": 73342,
          "time": 261.1944815625,
          "velocity": 0.9606299212598425
        },
        {
          "duration": 0.42613593749996426,
          "durationTicks": 210,
          "midi": 49,
          "name": "C#3",
          "ticks": 73342,
          "time": 261.1944815625,
          "velocity": 0.9606299212598425
        },
        {
          "duration": 0.12581156249996184,
          "durationTicks": 62,
          "midi": 40,
          "name": "E2",
          "ticks": 73534,
          "time": 261.5840915625,
          "velocity": 0.9763779527559056
        },
        {
          "duration": 0.10957781249999243,
          "durationTicks": 54,
          "midi": 40,
          "name": "E2",
          "ticks": 73598,
          "time": 261.7139615625,
          "velocity": 0.968503937007874
        },
        {
          "duration": 0.18262968750002528,
          "durationTicks": 90,
          "midi": 43,
          "name": "G2",
          "ticks": 73662,
          "time": 261.8438315625,
          "velocity": 0.952755905511811
        },
        {
          "duration": 0.28409062499997617,
          "durationTicks": 140,
          "midi": 35,
          "name": "B1",
          "ticks": 73726,
          "time": 261.9737015625,
          "velocity": 0.952755905511811
        },
        {
          "duration": 0.3896100000000047,
          "durationTicks": 192,
          "midi": 49,
          "name": "C#3",
          "ticks": 73726,
          "time": 261.9737015625,
          "velocity": 0.952755905511811
        },
        {
          "duration": 0.11363624999995636,
          "durationTicks": 56,
          "midi": 40,
          "name": "E2",
          "ticks": 73918,
          "time": 262.36331156250003,
          "velocity": 0.9606299212598425
        },
        {
          "duration": 0.13392843750000338,
          "durationTicks": 66,
          "midi": 43,
          "name": "G2",
          "ticks": 73982,
          "time": 262.4931815625,
          "velocity": 0.952755905511811
        },
        {
          "duration": 0.0649349999999913,
          "durationTicks": 32,
          "midi": 35,
          "name": "B1",
          "ticks": 74046,
          "time": 262.6230515625,
          "velocity": 0.9606299212598425
        },
        {
          "duration": 0.08116875000001755,
          "durationTicks": 40,
          "midi": 57,
          "name": "A3",
          "ticks": 74046,
          "time": 262.6230515625,
          "velocity": 0.9606299212598425
        },
        {
          "duration": 1.2743493750000425,
          "durationTicks": 628,
          "midi": 35,
          "name": "B1",
          "ticks": 74110,
          "time": 262.7529215625,
          "velocity": 0.9606299212598425
        },
        {
          "duration": 1.3636350000000448,
          "durationTicks": 672,
          "midi": 49,
          "name": "C#3",
          "ticks": 74110,
          "time": 262.7529215625,
          "velocity": 0.9606299212598425
        },
        {
          "duration": 0.7061681250000333,
          "durationTicks": 348,
          "midi": 46,
          "name": "A#2",
          "ticks": 74302,
          "time": 263.1425315625,
          "velocity": 0.9606299212598425
        },
        {
          "duration": 0.47483718749998616,
          "durationTicks": 234,
          "midi": 46,
          "name": "A#2",
          "ticks": 74686,
          "time": 263.9217515625,
          "velocity": 0.968503937007874
        },
        {
          "duration": 1.3433428124999978,
          "durationTicks": 662,
          "midi": 35,
          "name": "B1",
          "ticks": 74878,
          "time": 264.3113615625,
          "velocity": 0.9763779527559056
        },
        {
          "duration": 1.525972500000023,
          "durationTicks": 752,
          "midi": 43,
          "name": "G2",
          "ticks": 74878,
          "time": 264.3113615625,
          "velocity": 0.968503937007874
        },
        {
          "duration": 0.6534084374999907,
          "durationTicks": 322,
          "midi": 46,
          "name": "A#2",
          "ticks": 75070,
          "time": 264.7009715625,
          "velocity": 0.9606299212598425
        },
        {
          "duration": 0.38149312499996313,
          "durationTicks": 188,
          "midi": 46,
          "name": "A#2",
          "ticks": 75454,
          "time": 265.4801915625,
          "velocity": 0.9606299212598425
        },
        {
          "duration": 3.084412499999985,
          "durationTicks": 1520,
          "midi": 35,
          "name": "B1",
          "ticks": 75646,
          "time": 265.8698015625,
          "velocity": 0.9763779527559056
        },
        {
          "duration": 2.5689909374999615,
          "durationTicks": 1266,
          "midi": 49,
          "name": "C#3",
          "ticks": 75646,
          "time": 265.8698015625,
          "velocity": 0.968503937007874
        },
        {
          "duration": 1.0136728125000332,
          "durationTicks": 254,
          "midi": 35,
          "name": "B1",
          "ticks": 78718,
          "time": 272.1035615625,
          "velocity": 0.9763779527559056
        },
        {
          "duration": 1.3662365625000348,
          "durationTicks": 342,
          "midi": 52,
          "name": "E3",
          "ticks": 78718,
          "time": 272.1035615625,
          "velocity": 0.968503937007874
        },
        {
          "duration": 0.11217937499998243,
          "durationTicks": 28,
          "midi": 46,
          "name": "A#2",
          "ticks": 78814,
          "time": 272.4842221875,
          "velocity": 0.9448818897637795
        },
        {
          "duration": 1.2499987500000316,
          "durationTicks": 312,
          "midi": 40,
          "name": "E2",
          "ticks": 78910,
          "time": 272.8688371875,
          "velocity": 0.9763779527559056
        },
        {
          "duration": 0.30448687500000915,
          "durationTicks": 76,
          "midi": 46,
          "name": "A#2",
          "ticks": 78910,
          "time": 272.8688371875,
          "velocity": 0.9606299212598425
        },
        {
          "duration": 0.17628187500002923,
          "durationTicks": 44,
          "midi": 35,
          "name": "B1",
          "ticks": 79006,
          "time": 273.2534521875,
          "velocity": 0.952755905511811
        },
        {
          "duration": 0.4727559374999828,
          "durationTicks": 118,
          "midi": 46,
          "name": "A#2",
          "ticks": 79006,
          "time": 273.2534521875,
          "velocity": 0.937007874015748
        },
        {
          "duration": 0.9374990625000237,
          "durationTicks": 234,
          "midi": 35,
          "name": "B1",
          "ticks": 79102,
          "time": 273.6380671875,
          "velocity": 0.9763779527559056
        },
        {
          "duration": 1.3381396875000178,
          "durationTicks": 334,
          "midi": 49,
          "name": "C#3",
          "ticks": 79102,
          "time": 273.6380671875,
          "velocity": 0.968503937007874
        },
        {
          "duration": 0.20032031250002547,
          "durationTicks": 50,
          "midi": 46,
          "name": "A#2",
          "ticks": 79198,
          "time": 274.0226821875,
          "velocity": 0.937007874015748
        },
        {
          "duration": 1.1378193749999923,
          "durationTicks": 284,
          "midi": 40,
          "name": "E2",
          "ticks": 79294,
          "time": 274.4072971875,
          "velocity": 0.9763779527559056
        },
        {
          "duration": 0.27243562500001417,
          "durationTicks": 68,
          "midi": 46,
          "name": "A#2",
          "ticks": 79294,
          "time": 274.4072971875,
          "velocity": 0.9606299212598425
        },
        {
          "duration": 0.14423062500003425,
          "durationTicks": 36,
          "midi": 35,
          "name": "B1",
          "ticks": 79390,
          "time": 274.7919121875,
          "velocity": 0.9448818897637795
        },
        {
          "duration": 0.5689096875000246,
          "durationTicks": 142,
          "midi": 46,
          "name": "A#2",
          "ticks": 79390,
          "time": 274.7919121875,
          "velocity": 0.9448818897637795
        },
        {
          "duration": 0.9615375000000199,
          "durationTicks": 240,
          "midi": 35,
          "name": "B1",
          "ticks": 79486,
          "time": 275.17652718749997,
          "velocity": 0.9763779527559056
        },
        {
          "duration": 1.2580115625000303,
          "durationTicks": 314,
          "midi": 57,
          "name": "A3",
          "ticks": 79486,
          "time": 275.17652718749997,
          "velocity": 0.968503937007874
        },
        {
          "duration": 0.12820499999997992,
          "durationTicks": 32,
          "midi": 46,
          "name": "A#2",
          "ticks": 79582,
          "time": 275.5611421875,
          "velocity": 0.937007874015748
        },
        {
          "duration": 0.5849353124999652,
          "durationTicks": 146,
          "midi": 40,
          "name": "E2",
          "ticks": 79678,
          "time": 275.9457571875,
          "velocity": 0.9763779527559056
        },
        {
          "duration": 0.2884612499999548,
          "durationTicks": 72,
          "midi": 46,
          "name": "A#2",
          "ticks": 79678,
          "time": 275.9457571875,
          "velocity": 0.9606299212598425
        },
        {
          "duration": 0.12820499999997992,
          "durationTicks": 32,
          "midi": 35,
          "name": "B1",
          "ticks": 79774,
          "time": 276.3303721875,
          "velocity": 0.9448818897637795
        },
        {
          "duration": 0.39262781249999534,
          "durationTicks": 98,
          "midi": 46,
          "name": "A#2",
          "ticks": 79774,
          "time": 276.3303721875,
          "velocity": 0.9606299212598425
        },
        {
          "duration": 0.528845624999974,
          "durationTicks": 132,
          "midi": 35,
          "name": "B1",
          "ticks": 79870,
          "time": 276.7149871875,
          "velocity": 0.968503937007874
        },
        {
          "duration": 0.6650634375000095,
          "durationTicks": 166,
          "midi": 49,
          "name": "C#3",
          "ticks": 79870,
          "time": 276.7149871875,
          "velocity": 0.9606299212598425
        },
        {
          "duration": 0.3285253125000054,
          "durationTicks": 82,
          "midi": 35,
          "name": "B1",
          "ticks": 80062,
          "time": 277.4842171875,
          "velocity": 0.9763779527559056
        },
        {
          "duration": 0.44871749999998656,
          "durationTicks": 112,
          "midi": 52,
          "name": "E3",
          "ticks": 80062,
          "time": 277.4842171875,
          "velocity": 0.968503937007874
        },
        {
          "duration": 0.560896874999969,
          "durationTicks": 140,
          "midi": 35,
          "name": "B1",
          "ticks": 80254,
          "time": 278.2534471875,
          "velocity": 0.9763779527559056
        },
        {
          "duration": 0.6730762500000083,
          "durationTicks": 168,
          "midi": 55,
          "name": "G3",
          "ticks": 80254,
          "time": 278.2534471875,
          "velocity": 1
        },
        {
          "duration": 0.30448687500000915,
          "durationTicks": 76,
          "midi": 35,
          "name": "B1",
          "ticks": 80446,
          "time": 279.0226771875,
          "velocity": 0.9763779527559056
        },
        {
          "duration": 0.2564100000000167,
          "durationTicks": 64,
          "midi": 57,
          "name": "A3",
          "ticks": 80446,
          "time": 279.0226771875,
          "velocity": 0.968503937007874
        },
        {
          "duration": 0.4567303124999853,
          "durationTicks": 114,
          "midi": 35,
          "name": "B1",
          "ticks": 80638,
          "time": 279.7919071875,
          "velocity": 0.9763779527559056
        },
        {
          "duration": 0.5528840625000271,
          "durationTicks": 138,
          "midi": 52,
          "name": "E3",
          "ticks": 80638,
          "time": 279.7919071875,
          "velocity": 0.968503937007874
        },
        {
          "duration": 0.4807687500000384,
          "durationTicks": 120,
          "midi": 35,
          "name": "B1",
          "ticks": 80830,
          "time": 280.5611371875,
          "velocity": 0.968503937007874
        },
        {
          "duration": 0.4407046874999878,
          "durationTicks": 110,
          "midi": 49,
          "name": "C#3",
          "ticks": 80830,
          "time": 280.5611371875,
          "velocity": 0.968503937007874
        },
        {
          "duration": 0.8733965625000337,
          "durationTicks": 218,
          "midi": 35,
          "name": "B1",
          "ticks": 81022,
          "time": 281.3303671875,
          "velocity": 0.9763779527559056
        },
        {
          "duration": 2.8044843750000155,
          "durationTicks": 700,
          "midi": 57,
          "name": "A3",
          "ticks": 81022,
          "time": 281.3303671875,
          "velocity": 0.968503937007874
        },
        {
          "duration": 1.3141012499999647,
          "durationTicks": 328,
          "midi": 40,
          "name": "E2",
          "ticks": 81214,
          "time": 282.0995971875,
          "velocity": 0.9763779527559056
        },
        {
          "duration": 0.2483971874999611,
          "durationTicks": 62,
          "midi": 46,
          "name": "A#2",
          "ticks": 81214,
          "time": 282.0995971875,
          "velocity": 0.9606299212598425
        },
        {
          "duration": 0.1762818749999724,
          "durationTicks": 44,
          "midi": 35,
          "name": "B1",
          "ticks": 81310,
          "time": 282.4842121875,
          "velocity": 0.968503937007874
        },
        {
          "duration": 0.13621781249997866,
          "durationTicks": 34,
          "midi": 46,
          "name": "A#2",
          "ticks": 81310,
          "time": 282.4842121875,
          "velocity": 0.8818897637795275
        },
        {
          "duration": 0.8173068749999857,
          "durationTicks": 204,
          "midi": 35,
          "name": "B1",
          "ticks": 81406,
          "time": 282.8688271875,
          "velocity": 0.9763779527559056
        },
        {
          "duration": 0.20833312499996737,
          "durationTicks": 52,
          "midi": 46,
          "name": "A#2",
          "ticks": 81406,
          "time": 282.8688271875,
          "velocity": 0.9606299212598425
        },
        {
          "duration": 0.10416656249998368,
          "durationTicks": 26,
          "midi": 46,
          "name": "A#2",
          "ticks": 81502,
          "time": 283.2534421875,
          "velocity": 0.8818897637795275
        },
        {
          "duration": 0.22435874999996486,
          "durationTicks": 56,
          "midi": 40,
          "name": "E2",
          "ticks": 81598,
          "time": 283.6380571875,
          "velocity": 0.968503937007874
        },
        {
          "duration": 0.2163459374999661,
          "durationTicks": 54,
          "midi": 46,
          "name": "A#2",
          "ticks": 81598,
          "time": 283.6380571875,
          "velocity": 0.9606299212598425
        },
        {
          "duration": 0.2083331250000242,
          "durationTicks": 52,
          "midi": 43,
          "name": "G2",
          "ticks": 81646,
          "time": 283.8303646875,
          "velocity": 0.9606299212598425
        },
        {
          "duration": 0.1602562499999749,
          "durationTicks": 40,
          "midi": 35,
          "name": "B1",
          "ticks": 81694,
          "time": 284.0226721875,
          "velocity": 0.9763779527559056
        },
        {
          "duration": 0.3445509375000029,
          "durationTicks": 86,
          "midi": 45,
          "name": "A2",
          "ticks": 81694,
          "time": 284.0226721875,
          "velocity": 0.9606299212598425
        },
        {
          "duration": 0.8573709374999794,
          "durationTicks": 214,
          "midi": 35,
          "name": "B1",
          "ticks": 81790,
          "time": 284.4072871875,
          "velocity": 0.9763779527559056
        },
        {
          "duration": 2.820510000000013,
          "durationTicks": 704,
          "midi": 49,
          "name": "C#3",
          "ticks": 81790,
          "time": 284.4072871875,
          "velocity": 0.968503937007874
        },
        {
          "duration": 0.19230749999996988,
          "durationTicks": 48,
          "midi": 46,
          "name": "A#2",
          "ticks": 81886,
          "time": 284.7919021875,
          "velocity": 0.8740157480314961
        },
        {
          "duration": 1.2740371875000278,
          "durationTicks": 318,
          "midi": 40,
          "name": "E2",
          "ticks": 81982,
          "time": 285.1765171875,
          "velocity": 0.9606299212598425
        },
        {
          "duration": 0.20032031250002547,
          "durationTicks": 50,
          "midi": 46,
          "name": "A#2",
          "ticks": 81982,
          "time": 285.1765171875,
          "velocity": 0.9606299212598425
        },
        {
          "duration": 0.17628187500002923,
          "durationTicks": 44,
          "midi": 35,
          "name": "B1",
          "ticks": 82078,
          "time": 285.5611321875,
          "velocity": 0.968503937007874
        },
        {
          "duration": 0.0881409374999862,
          "durationTicks": 22,
          "midi": 46,
          "name": "A#2",
          "ticks": 82078,
          "time": 285.5611321875,
          "velocity": 0.8976377952755905
        },
        {
          "duration": 1.0016015625000136,
          "durationTicks": 250,
          "midi": 35,
          "name": "B1",
          "ticks": 82174,
          "time": 285.9457471875,
          "velocity": 0.968503937007874
        },
        {
          "duration": 0.11217937499998243,
          "durationTicks": 28,
          "midi": 46,
          "name": "A#2",
          "ticks": 82174,
          "time": 285.9457471875,
          "velocity": 0.9606299212598425
        },
        {
          "duration": 0.19230750000002672,
          "durationTicks": 48,
          "midi": 46,
          "name": "A#2",
          "ticks": 82270,
          "time": 286.3303621875,
          "velocity": 0.8740157480314961
        },
        {
          "duration": 0.4567303124999853,
          "durationTicks": 114,
          "midi": 40,
          "name": "E2",
          "ticks": 82366,
          "time": 286.7149771875,
          "velocity": 0.9763779527559056
        },
        {
          "duration": 0.1362178125000355,
          "durationTicks": 34,
          "midi": 46,
          "name": "A#2",
          "ticks": 82366,
          "time": 286.7149771875,
          "velocity": 0.968503937007874
        },
        {
          "duration": 0.3525637500000016,
          "durationTicks": 88,
          "midi": 35,
          "name": "B1",
          "ticks": 82462,
          "time": 287.0995921875,
          "velocity": 0.968503937007874
        },
        {
          "duration": 0.10416656250004053,
          "durationTicks": 26,
          "midi": 46,
          "name": "A#2",
          "ticks": 82462,
          "time": 287.0995921875,
          "velocity": 0.9448818897637795
        },
        {
          "duration": 0.9134606250000274,
          "durationTicks": 228,
          "midi": 35,
          "name": "B1",
          "ticks": 82558,
          "time": 287.4842071875,
          "velocity": 0.968503937007874
        },
        {
          "duration": 0.7211531250000007,
          "durationTicks": 180,
          "midi": 49,
          "name": "C#3",
          "ticks": 82558,
          "time": 287.4842071875,
          "velocity": 0.9606299212598425
        },
        {
          "duration": 1.2580115625000303,
          "durationTicks": 314,
          "midi": 40,
          "name": "E2",
          "ticks": 82750,
          "time": 288.25343718749997,
          "velocity": 0.968503937007874
        },
        {
          "duration": 0.2964740625000104,
          "durationTicks": 74,
          "midi": 42,
          "name": "F#2",
          "ticks": 82750,
          "time": 288.25343718749997,
          "velocity": 0.9606299212598425
        },
        {
          "duration": 0.19230750000002672,
          "durationTicks": 48,
          "midi": 35,
          "name": "B1",
          "ticks": 82846,
          "time": 288.63805218749997,
          "velocity": 0.9291338582677166
        },
        {
          "duration": 0.16025625000003174,
          "durationTicks": 40,
          "midi": 42,
          "name": "F#2",
          "ticks": 82846,
          "time": 288.63805218749997,
          "velocity": 0.9212598425196851
        },
        {
          "duration": 1.2660243749999722,
          "durationTicks": 316,
          "midi": 35,
          "name": "B1",
          "ticks": 82942,
          "time": 289.0226671875,
          "velocity": 0.9606299212598425
        },
        {
          "duration": 0.2163459374999661,
          "durationTicks": 54,
          "midi": 42,
          "name": "F#2",
          "ticks": 82942,
          "time": 289.0226671875,
          "velocity": 0.952755905511811
        },
        {
          "duration": 0.12019218749998117,
          "durationTicks": 30,
          "midi": 42,
          "name": "F#2",
          "ticks": 83038,
          "time": 289.4072821875,
          "velocity": 0.8740157480314961
        },
        {
          "duration": 1.209934687499981,
          "durationTicks": 302,
          "midi": 40,
          "name": "E2",
          "ticks": 83134,
          "time": 289.7918971875,
          "velocity": 0.9763779527559056
        },
        {
          "duration": 0.25640999999995984,
          "durationTicks": 64,
          "midi": 42,
          "name": "F#2",
          "ticks": 83134,
          "time": 289.7918971875,
          "velocity": 0.968503937007874
        },
        {
          "duration": 0.15224343749997615,
          "durationTicks": 38,
          "midi": 42,
          "name": "F#2",
          "ticks": 83230,
          "time": 290.1765121875,
          "velocity": 0.889763779527559
        },
        {
          "duration": 0.9134606249999706,
          "durationTicks": 228,
          "midi": 35,
          "name": "B1",
          "ticks": 83326,
          "time": 290.5611271875,
          "velocity": 0.968503937007874
        },
        {
          "duration": 0.2163459374999661,
          "durationTicks": 54,
          "midi": 42,
          "name": "F#2",
          "ticks": 83326,
          "time": 290.5611271875,
          "velocity": 0.9606299212598425
        },
        {
          "duration": 0.1442306249999774,
          "durationTicks": 36,
          "midi": 42,
          "name": "F#2",
          "ticks": 83422,
          "time": 290.9457421875,
          "velocity": 0.8976377952755905
        },
        {
          "duration": 1.2339731249999772,
          "durationTicks": 308,
          "midi": 40,
          "name": "E2",
          "ticks": 83518,
          "time": 291.3303571875,
          "velocity": 0.9763779527559056
        },
        {
          "duration": 0.24839718750001794,
          "durationTicks": 62,
          "midi": 42,
          "name": "F#2",
          "ticks": 83518,
          "time": 291.3303571875,
          "velocity": 0.9606299212598425
        },
        {
          "duration": 0.19230750000002672,
          "durationTicks": 48,
          "midi": 35,
          "name": "B1",
          "ticks": 83614,
          "time": 291.7149721875,
          "velocity": 0.968503937007874
        },
        {
          "duration": 0.13621781249997866,
          "durationTicks": 34,
          "midi": 42,
          "name": "F#2",
          "ticks": 83614,
          "time": 291.7149721875,
          "velocity": 0.9212598425196851
        },
        {
          "duration": 0.9455118750000224,
          "durationTicks": 236,
          "midi": 35,
          "name": "B1",
          "ticks": 83710,
          "time": 292.0995871875,
          "velocity": 0.968503937007874
        },
        {
          "duration": 0.3285253125000054,
          "durationTicks": 82,
          "midi": 42,
          "name": "F#2",
          "ticks": 83710,
          "time": 292.0995871875,
          "velocity": 0.9606299212598425
        },
        {
          "duration": 0.39262781249999534,
          "durationTicks": 98,
          "midi": 46,
          "name": "A#2",
          "ticks": 83806,
          "time": 292.4842021875,
          "velocity": 0.952755905511811
        },
        {
          "duration": 23.076900000000023,
          "durationTicks": 5760,
          "midi": 40,
          "name": "E2",
          "ticks": 83902,
          "time": 292.8688171875,
          "velocity": 0.9763779527559056
        },
        {
          "duration": 0.33653812500000413,
          "durationTicks": 84,
          "midi": 42,
          "name": "F#2",
          "ticks": 83902,
          "time": 292.8688171875,
          "velocity": 0.9606299212598425
        },
        {
          "duration": 0.1682690625000305,
          "durationTicks": 42,
          "midi": 35,
          "name": "B1",
          "ticks": 83998,
          "time": 293.2534321875,
          "velocity": 0.968503937007874
        },
        {
          "duration": 0.3846149999999966,
          "durationTicks": 96,
          "midi": 46,
          "name": "A#2",
          "ticks": 83998,
          "time": 293.2534321875,
          "velocity": 0.9606299212598425
        },
        {
          "duration": 1.2099346875000379,
          "durationTicks": 302,
          "midi": 35,
          "name": "B1",
          "ticks": 84094,
          "time": 293.6380471875,
          "velocity": 0.9763779527559056
        },
        {
          "duration": 1.0576912500000049,
          "durationTicks": 264,
          "midi": 49,
          "name": "C#3",
          "ticks": 84094,
          "time": 293.6380471875,
          "velocity": 0.9606299212598425
        },
        {
          "duration": 2.8365356249999536,
          "durationTicks": 708,
          "midi": 35,
          "name": "B1",
          "ticks": 84478,
          "time": 295.1765071875,
          "velocity": 0.9763779527559056
        },
        {
          "duration": 2.8124971874999574,
          "durationTicks": 702,
          "midi": 57,
          "name": "A3",
          "ticks": 84478,
          "time": 295.1765071875,
          "velocity": 0.968503937007874
        },
        {
          "duration": 0.20833312499996737,
          "durationTicks": 52,
          "midi": 51,
          "name": "D#3",
          "ticks": 84862,
          "time": 296.7149671875,
          "velocity": 0.9448818897637795
        },
        {
          "duration": 0.44871749999998656,
          "durationTicks": 112,
          "midi": 51,
          "name": "D#3",
          "ticks": 84958,
          "time": 297.0995821875,
          "velocity": 0.937007874015748
        },
        {
          "duration": 3.7900603124999748,
          "durationTicks": 946,
          "midi": 51,
          "name": "D#3",
          "ticks": 85102,
          "time": 297.6765046875,
          "velocity": 0.9448818897637795
        },
        {
          "duration": 2.940702187499994,
          "durationTicks": 734,
          "midi": 35,
          "name": "B1",
          "ticks": 85246,
          "time": 298.2534271875,
          "velocity": 0.9763779527559056
        },
        {
          "duration": 3.044868749999978,
          "durationTicks": 760,
          "midi": 49,
          "name": "C#3",
          "ticks": 85246,
          "time": 298.2534271875,
          "velocity": 0.968503937007874
        },
        {
          "duration": 1.089742499999943,
          "durationTicks": 272,
          "midi": 35,
          "name": "B1",
          "ticks": 86014,
          "time": 301.3303471875,
          "velocity": 0.9606299212598425
        },
        {
          "duration": 11.578514062499949,
          "durationTicks": 2890,
          "midi": 52,
          "name": "E3",
          "ticks": 86014,
          "time": 301.3303471875,
          "velocity": 0.937007874015748
        },
        {
          "duration": 0.3846149999999966,
          "durationTicks": 96,
          "midi": 51,
          "name": "D#3",
          "ticks": 86206,
          "time": 302.0995771875,
          "velocity": 0.937007874015748
        },
        {
          "duration": 0.28044843749995607,
          "durationTicks": 70,
          "midi": 35,
          "name": "B1",
          "ticks": 86302,
          "time": 302.4841921875,
          "velocity": 0.952755905511811
        },
        {
          "duration": 1.4503190625000002,
          "durationTicks": 362,
          "midi": 35,
          "name": "B1",
          "ticks": 86398,
          "time": 302.8688071875,
          "velocity": 0.968503937007874
        },
        {
          "duration": 0.3846149999999966,
          "durationTicks": 96,
          "midi": 51,
          "name": "D#3",
          "ticks": 86398,
          "time": 302.8688071875,
          "velocity": 0.937007874015748
        },
        {
          "duration": 0.3846149999999966,
          "durationTicks": 96,
          "midi": 51,
          "name": "D#3",
          "ticks": 86590,
          "time": 303.6380371875,
          "velocity": 0.937007874015748
        },
        {
          "duration": 1.1298065624999936,
          "durationTicks": 282,
          "midi": 35,
          "name": "B1",
          "ticks": 86782,
          "time": 304.4072671875,
          "velocity": 0.9606299212598425
        },
        {
          "duration": 0.3846149999999966,
          "durationTicks": 96,
          "midi": 51,
          "name": "D#3",
          "ticks": 86782,
          "time": 304.4072671875,
          "velocity": 0.937007874015748
        },
        {
          "duration": 0.44871749999998656,
          "durationTicks": 112,
          "midi": 51,
          "name": "D#3",
          "ticks": 86974,
          "time": 305.1764971875,
          "velocity": 0.937007874015748
        },
        {
          "duration": 0.2804484375000129,
          "durationTicks": 70,
          "midi": 35,
          "name": "B1",
          "ticks": 87070,
          "time": 305.5611121875,
          "velocity": 0.9212598425196851
        },
        {
          "duration": 1.4102550000000065,
          "durationTicks": 352,
          "midi": 35,
          "name": "B1",
          "ticks": 87166,
          "time": 305.9457271875,
          "velocity": 0.9606299212598425
        },
        {
          "duration": 0.4887815625000371,
          "durationTicks": 122,
          "midi": 51,
          "name": "D#3",
          "ticks": 87166,
          "time": 305.9457271875,
          "velocity": 0.9448818897637795
        },
        {
          "duration": 0.6009609375000196,
          "durationTicks": 150,
          "midi": 51,
          "name": "D#3",
          "ticks": 87358,
          "time": 306.7149571875,
          "velocity": 0.937007874015748
        },
        {
          "duration": 1.4983959375000495,
          "durationTicks": 374,
          "midi": 35,
          "name": "B1",
          "ticks": 87550,
          "time": 307.48418718749997,
          "velocity": 0.952755905511811
        },
        {
          "duration": 0.5288456250000309,
          "durationTicks": 132,
          "midi": 51,
          "name": "D#3",
          "ticks": 87550,
          "time": 307.48418718749997,
          "velocity": 0.937007874015748
        },
        {
          "duration": 0.496794374999979,
          "durationTicks": 124,
          "midi": 51,
          "name": "D#3",
          "ticks": 87742,
          "time": 308.2534171875,
          "velocity": 0.937007874015748
        },
        {
          "duration": 0.9775631249999606,
          "durationTicks": 244,
          "midi": 35,
          "name": "B1",
          "ticks": 87934,
          "time": 309.0226471875,
          "velocity": 0.9448818897637795
        },
        {
          "duration": 0.5048071874999778,
          "durationTicks": 126,
          "midi": 51,
          "name": "D#3",
          "ticks": 87934,
          "time": 309.0226471875,
          "velocity": 0.9448818897637795
        },
        {
          "duration": 0.44871749999998656,
          "durationTicks": 112,
          "midi": 51,
          "name": "D#3",
          "ticks": 88126,
          "time": 309.7918771875,
          "velocity": 0.9291338582677166
        },
        {
          "duration": 0.28846125000001166,
          "durationTicks": 72,
          "midi": 35,
          "name": "B1",
          "ticks": 88222,
          "time": 310.1764921875,
          "velocity": 0.9291338582677166
        },
        {
          "duration": 5.8733915624999895,
          "durationTicks": 1466,
          "midi": 35,
          "name": "B1",
          "ticks": 88318,
          "time": 310.5611071875,
          "velocity": 0.952755905511811
        },
        {
          "duration": 0.496794374999979,
          "durationTicks": 124,
          "midi": 51,
          "name": "D#3",
          "ticks": 88318,
          "time": 310.5611071875,
          "velocity": 0.9291338582677166
        },
        {
          "duration": 0.48076874999998154,
          "durationTicks": 120,
          "midi": 51,
          "name": "D#3",
          "ticks": 88510,
          "time": 311.3303371875,
          "velocity": 0.9291338582677166
        },
        {
          "duration": 0.43269187499998907,
          "durationTicks": 108,
          "midi": 51,
          "name": "D#3",
          "ticks": 88702,
          "time": 312.0995671875,
          "velocity": 0.9291338582677166
        },
        {
          "duration": 0.5689096875000246,
          "durationTicks": 142,
          "midi": 51,
          "name": "D#3",
          "ticks": 88894,
          "time": 312.8687971875,
          "velocity": 0.937007874015748
        },
        {
          "duration": 0.624999374999959,
          "durationTicks": 156,
          "midi": 51,
          "name": "D#3",
          "ticks": 89086,
          "time": 313.63802718750003,
          "velocity": 0.9291338582677166
        },
        {
          "duration": 0.8413453124999819,
          "durationTicks": 210,
          "midi": 51,
          "name": "D#3",
          "ticks": 89278,
          "time": 314.4072571875,
          "velocity": 0.8503937007874016
        },
        {
          "duration": 1.610575312499975,
          "durationTicks": 402,
          "midi": 49,
          "name": "C#3",
          "ticks": 89470,
          "time": 315.1764871875,
          "velocity": 0.9212598425196851
        }
      ],
      "endOfTrackTicks": 92928
    },
    {
      "channel": 0,
      "controlChanges": {
        "0": [
          {
            "number": 0,
            "ticks": 292,
            "time": 1.169870625,
            "value": 0
          }
        ],
        "32": [
          {
            "number": 32,
            "ticks": 294,
            "time": 1.1778834375,
            "value": 0
          }
        ],
        "121": [
          {
            "number": 121,
            "ticks": 180,
            "time": 0.721153125,
            "value": 0
          }
        ]
      },
      "pitchBends": [],
      "instrument": {
        "family": "piano",
        "number": 0,
        "name": "acoustic grand piano"
      },
      "name": "",
      "notes": [],
      "endOfTrackTicks": 92930
    },
    {
      "channel": 10,
      "controlChanges": {
        "7": [
          {
            "number": 7,
            "ticks": 298,
            "time": 1.1939090625,
            "value": 0.968503937007874
          }
        ],
        "10": [
          {
            "number": 10,
            "ticks": 298,
            "time": 1.1939090625,
            "value": 0.5039370078740157
          }
        ],
        "11": [
          {
            "number": 11,
            "ticks": 298,
            "time": 1.1939090625,
            "value": 0.8661417322834646
          }
        ],
        "91": [
          {
            "number": 91,
            "ticks": 300,
            "time": 1.201921875,
            "value": 1
          }
        ],
        "93": [
          {
            "number": 93,
            "ticks": 300,
            "time": 1.201921875,
            "value": 0.15748031496062992
          }
        ],
        "120": [
          {
            "number": 120,
            "ticks": 92928,
            "time": 329.03064,
            "value": 0
          }
        ],
        "123": [
          {
            "number": 123,
            "ticks": 92930,
            "time": 329.0386528125,
            "value": 0
          }
        ]
      },
      "pitchBends": [],
      "instrument": {
        "family": "strings",
        "number": 47,
        "name": "timpani"
      },
      "name": "",
      "notes": [
        {
          "duration": 0.06410249999998996,
          "durationTicks": 16,
          "midi": 36,
          "name": "C2",
          "ticks": 44160,
          "time": 176.9229,
          "velocity": 0.9606299212598425
        },
        {
          "duration": 0.0721153124999887,
          "durationTicks": 18,
          "midi": 48,
          "name": "C3",
          "ticks": 44160,
          "time": 176.9229,
          "velocity": 0.9291338582677166
        },
        {
          "duration": 0.08814093750001462,
          "durationTicks": 22,
          "midi": 36,
          "name": "C2",
          "ticks": 44208,
          "time": 177.1152075,
          "velocity": 0.9606299212598425
        },
        {
          "duration": 0.0721153124999887,
          "durationTicks": 18,
          "midi": 48,
          "name": "C3",
          "ticks": 44208,
          "time": 177.1152075,
          "velocity": 0.9212598425196851
        },
        {
          "duration": 0.0721153124999887,
          "durationTicks": 18,
          "midi": 36,
          "name": "C2",
          "ticks": 44256,
          "time": 177.307515,
          "velocity": 0.9448818897637795
        },
        {
          "duration": 0.0721153124999887,
          "durationTicks": 18,
          "midi": 48,
          "name": "C3",
          "ticks": 44256,
          "time": 177.307515,
          "velocity": 0.9212598425196851
        },
        {
          "duration": 0.0721153124999887,
          "durationTicks": 18,
          "midi": 36,
          "name": "C2",
          "ticks": 44304,
          "time": 177.4998225,
          "velocity": 0.9448818897637795
        },
        {
          "duration": 0.0721153124999887,
          "durationTicks": 18,
          "midi": 48,
          "name": "C3",
          "ticks": 44304,
          "time": 177.4998225,
          "velocity": 0.9291338582677166
        },
        {
          "duration": 0.08012812499998745,
          "durationTicks": 20,
          "midi": 36,
          "name": "C2",
          "ticks": 44352,
          "time": 177.69213,
          "velocity": 0.937007874015748
        },
        {
          "duration": 0.08012812499998745,
          "durationTicks": 20,
          "midi": 48,
          "name": "C3",
          "ticks": 44352,
          "time": 177.69213,
          "velocity": 0.9448818897637795
        },
        {
          "duration": 0.08012812499998745,
          "durationTicks": 20,
          "midi": 36,
          "name": "C2",
          "ticks": 44448,
          "time": 178.076745,
          "velocity": 0.9606299212598425
        },
        {
          "duration": 0.07211531250001713,
          "durationTicks": 18,
          "midi": 48,
          "name": "C3",
          "ticks": 44448,
          "time": 178.076745,
          "velocity": 0.9606299212598425
        },
        {
          "duration": 0.08012812499998745,
          "durationTicks": 20,
          "midi": 36,
          "name": "C2",
          "ticks": 44544,
          "time": 178.46135999999998,
          "velocity": 0.937007874015748
        },
        {
          "duration": 0.07211531250001713,
          "durationTicks": 18,
          "midi": 48,
          "name": "C3",
          "ticks": 44544,
          "time": 178.46135999999998,
          "velocity": 0.9448818897637795
        },
        {
          "duration": 0.07211531250001713,
          "durationTicks": 18,
          "midi": 36,
          "name": "C2",
          "ticks": 44592,
          "time": 178.65366749999998,
          "velocity": 0.952755905511811
        },
        {
          "duration": 0.07211531250001713,
          "durationTicks": 18,
          "midi": 48,
          "name": "C3",
          "ticks": 44592,
          "time": 178.65366749999998,
          "velocity": 0.9291338582677166
        },
        {
          "duration": 0.07211531250001713,
          "durationTicks": 18,
          "midi": 36,
          "name": "C2",
          "ticks": 44640,
          "time": 178.84597499999998,
          "velocity": 0.9606299212598425
        },
        {
          "duration": 0.056089687499991214,
          "durationTicks": 14,
          "midi": 48,
          "name": "C3",
          "ticks": 44640,
          "time": 178.84597499999998,
          "velocity": 0.937007874015748
        },
        {
          "duration": 0.08012812500001587,
          "durationTicks": 20,
          "midi": 36,
          "name": "C2",
          "ticks": 44688,
          "time": 179.03828249999998,
          "velocity": 0.9606299212598425
        },
        {
          "duration": 0.07211531250001713,
          "durationTicks": 18,
          "midi": 48,
          "name": "C3",
          "ticks": 44688,
          "time": 179.03828249999998,
          "velocity": 0.937007874015748
        },
        {
          "duration": 0.0881409374999862,
          "durationTicks": 22,
          "midi": 36,
          "name": "C2",
          "ticks": 44736,
          "time": 179.23059,
          "velocity": 0.9606299212598425
        },
        {
          "duration": 0.08012812499998745,
          "durationTicks": 20,
          "midi": 48,
          "name": "C3",
          "ticks": 44736,
          "time": 179.23059,
          "velocity": 0.9448818897637795
        },
        {
          "duration": 0.09615374999998494,
          "durationTicks": 24,
          "midi": 36,
          "name": "C2",
          "ticks": 44832,
          "time": 179.615205,
          "velocity": 0.9448818897637795
        },
        {
          "duration": 0.08012812499998745,
          "durationTicks": 20,
          "midi": 48,
          "name": "C3",
          "ticks": 44832,
          "time": 179.615205,
          "velocity": 0.9448818897637795
        },
        {
          "duration": 0.08012812499998745,
          "durationTicks": 20,
          "midi": 36,
          "name": "C2",
          "ticks": 44928,
          "time": 179.99982,
          "velocity": 0.9606299212598425
        },
        {
          "duration": 0.0881409374999862,
          "durationTicks": 22,
          "midi": 48,
          "name": "C3",
          "ticks": 44928,
          "time": 179.99982,
          "velocity": 0.9448818897637795
        },
        {
          "duration": 0.0721153124999887,
          "durationTicks": 18,
          "midi": 36,
          "name": "C2",
          "ticks": 47520,
          "time": 190.384425,
          "velocity": 0.952755905511811
        },
        {
          "duration": 0.056089687499991214,
          "durationTicks": 14,
          "midi": 48,
          "name": "C3",
          "ticks": 47520,
          "time": 190.384425,
          "velocity": 0.9606299212598425
        },
        {
          "duration": 0.0721153124999887,
          "durationTicks": 18,
          "midi": 36,
          "name": "C2",
          "ticks": 47616,
          "time": 190.76904,
          "velocity": 0.9606299212598425
        },
        {
          "duration": 0.06410250000001838,
          "durationTicks": 16,
          "midi": 48,
          "name": "C3",
          "ticks": 47616,
          "time": 190.76904,
          "velocity": 0.952755905511811
        },
        {
          "duration": 0.056089687499991214,
          "durationTicks": 14,
          "midi": 36,
          "name": "C2",
          "ticks": 47712,
          "time": 191.153655,
          "velocity": 0.952755905511811
        },
        {
          "duration": 0.056089687499991214,
          "durationTicks": 14,
          "midi": 48,
          "name": "C3",
          "ticks": 47712,
          "time": 191.153655,
          "velocity": 0.952755905511811
        },
        {
          "duration": 0.07211531250001713,
          "durationTicks": 18,
          "midi": 36,
          "name": "C2",
          "ticks": 47808,
          "time": 191.53826999999998,
          "velocity": 0.9448818897637795
        },
        {
          "duration": 0.07211531250001713,
          "durationTicks": 18,
          "midi": 48,
          "name": "C3",
          "ticks": 47808,
          "time": 191.53826999999998,
          "velocity": 0.952755905511811
        },
        {
          "duration": 0.07211531250001713,
          "durationTicks": 18,
          "midi": 36,
          "name": "C2",
          "ticks": 47904,
          "time": 191.92288499999998,
          "velocity": 0.9448818897637795
        },
        {
          "duration": 0.056089687500019636,
          "durationTicks": 14,
          "midi": 48,
          "name": "C3",
          "ticks": 47904,
          "time": 191.92288499999998,
          "velocity": 0.952755905511811
        },
        {
          "duration": 0.056089687499991214,
          "durationTicks": 14,
          "midi": 36,
          "name": "C2",
          "ticks": 48000,
          "time": 192.3075,
          "velocity": 0.952755905511811
        },
        {
          "duration": 0.056089687499991214,
          "durationTicks": 14,
          "midi": 48,
          "name": "C3",
          "ticks": 48000,
          "time": 192.3075,
          "velocity": 0.937007874015748
        },
        {
          "duration": 0.056089687499991214,
          "durationTicks": 14,
          "midi": 36,
          "name": "C2",
          "ticks": 48096,
          "time": 192.692115,
          "velocity": 0.9448818897637795
        },
        {
          "duration": 0.056089687499991214,
          "durationTicks": 14,
          "midi": 48,
          "name": "C3",
          "ticks": 48096,
          "time": 192.692115,
          "velocity": 0.952755905511811
        },
        {
          "duration": 0.0721153124999887,
          "durationTicks": 18,
          "midi": 36,
          "name": "C2",
          "ticks": 48192,
          "time": 193.07673,
          "velocity": 0.952755905511811
        },
        {
          "duration": 0.0721153124999887,
          "durationTicks": 18,
          "midi": 48,
          "name": "C3",
          "ticks": 48192,
          "time": 193.07673,
          "velocity": 0.9606299212598425
        },
        {
          "duration": 0.056089687499991214,
          "durationTicks": 14,
          "midi": 36,
          "name": "C2",
          "ticks": 48288,
          "time": 193.461345,
          "velocity": 0.9606299212598425
        },
        {
          "duration": 0.0721153124999887,
          "durationTicks": 18,
          "midi": 48,
          "name": "C3",
          "ticks": 48288,
          "time": 193.461345,
          "velocity": 0.9606299212598425
        },
        {
          "duration": 0.07211531250001713,
          "durationTicks": 18,
          "midi": 36,
          "name": "C2",
          "ticks": 48480,
          "time": 194.230575,
          "velocity": 0.9606299212598425
        },
        {
          "duration": 0.07211531250001713,
          "durationTicks": 18,
          "midi": 48,
          "name": "C3",
          "ticks": 48480,
          "time": 194.230575,
          "velocity": 0.9606299212598425
        },
        {
          "duration": 0.07211531250001713,
          "durationTicks": 18,
          "midi": 36,
          "name": "C2",
          "ticks": 48672,
          "time": 194.99980499999998,
          "velocity": 0.9606299212598425
        },
        {
          "duration": 0.07211531250001713,
          "durationTicks": 18,
          "midi": 48,
          "name": "C3",
          "ticks": 48672,
          "time": 194.99980499999998,
          "velocity": 0.9606299212598425
        },
        {
          "duration": 0.08012812499998745,
          "durationTicks": 20,
          "midi": 36,
          "name": "C2",
          "ticks": 48768,
          "time": 195.38442,
          "velocity": 0.9606299212598425
        },
        {
          "duration": 0.06410249999998996,
          "durationTicks": 16,
          "midi": 48,
          "name": "C3",
          "ticks": 48768,
          "time": 195.38442,
          "velocity": 0.952755905511811
        },
        {
          "duration": 0.09615374999998494,
          "durationTicks": 24,
          "midi": 36,
          "name": "C2",
          "ticks": 48864,
          "time": 195.769035,
          "velocity": 0.9606299212598425
        },
        {
          "duration": 0.0721153124999887,
          "durationTicks": 18,
          "midi": 48,
          "name": "C3",
          "ticks": 48864,
          "time": 195.769035,
          "velocity": 0.9606299212598425
        },
        {
          "duration": 0.07211531250001713,
          "durationTicks": 18,
          "midi": 36,
          "name": "C2",
          "ticks": 50112,
          "time": 200.76903,
          "velocity": 0.9606299212598425
        },
        {
          "duration": 0.07211531250001713,
          "durationTicks": 18,
          "midi": 48,
          "name": "C3",
          "ticks": 50112,
          "time": 200.76903,
          "velocity": 0.952755905511811
        },
        {
          "duration": 0.07211531250001713,
          "durationTicks": 18,
          "midi": 36,
          "name": "C2",
          "ticks": 50208,
          "time": 201.15364499999998,
          "velocity": 0.968503937007874
        },
        {
          "duration": 0.07211531250001713,
          "durationTicks": 18,
          "midi": 48,
          "name": "C3",
          "ticks": 50208,
          "time": 201.15364499999998,
          "velocity": 0.952755905511811
        },
        {
          "duration": 0.07211531250001713,
          "durationTicks": 18,
          "midi": 36,
          "name": "C2",
          "ticks": 50304,
          "time": 201.53825999999998,
          "velocity": 0.9606299212598425
        },
        {
          "duration": 0.07211531250001713,
          "durationTicks": 18,
          "midi": 48,
          "name": "C3",
          "ticks": 50304,
          "time": 201.53825999999998,
          "velocity": 0.952755905511811
        },
        {
          "duration": 0.08012812500001587,
          "durationTicks": 20,
          "midi": 36,
          "name": "C2",
          "ticks": 50400,
          "time": 201.922875,
          "velocity": 0.9606299212598425
        },
        {
          "duration": 0.08012812500001587,
          "durationTicks": 20,
          "midi": 48,
          "name": "C3",
          "ticks": 50400,
          "time": 201.922875,
          "velocity": 0.9606299212598425
        },
        {
          "duration": 0.0721153124999887,
          "durationTicks": 18,
          "midi": 36,
          "name": "C2",
          "ticks": 50544,
          "time": 202.4997975,
          "velocity": 0.8976377952755905
        },
        {
          "duration": 0.056089687500019636,
          "durationTicks": 14,
          "midi": 48,
          "name": "C3",
          "ticks": 50544,
          "time": 202.4997975,
          "velocity": 0.8740157480314961
        },
        {
          "duration": 0.056089687500019636,
          "durationTicks": 14,
          "midi": 36,
          "name": "C2",
          "ticks": 50592,
          "time": 202.692105,
          "velocity": 0.9133858267716536
        },
        {
          "duration": 0.056089687500019636,
          "durationTicks": 14,
          "midi": 48,
          "name": "C3",
          "ticks": 50592,
          "time": 202.692105,
          "velocity": 0.8818897637795275
        },
        {
          "duration": 0.0721153124999887,
          "durationTicks": 18,
          "midi": 36,
          "name": "C2",
          "ticks": 50640,
          "time": 202.8844125,
          "velocity": 0.9606299212598425
        },
        {
          "duration": 0.056089687500019636,
          "durationTicks": 14,
          "midi": 48,
          "name": "C3",
          "ticks": 50640,
          "time": 202.8844125,
          "velocity": 0.9291338582677166
        },
        {
          "duration": 0.0721153124999887,
          "durationTicks": 18,
          "midi": 36,
          "name": "C2",
          "ticks": 50688,
          "time": 203.07672,
          "velocity": 0.9448818897637795
        },
        {
          "duration": 0.0721153124999887,
          "durationTicks": 18,
          "midi": 48,
          "name": "C3",
          "ticks": 50688,
          "time": 203.07672,
          "velocity": 0.9212598425196851
        },
        {
          "duration": 0.0721153124999887,
          "durationTicks": 18,
          "midi": 36,
          "name": "C2",
          "ticks": 50736,
          "time": 203.2690275,
          "velocity": 0.9606299212598425
        },
        {
          "duration": 0.0721153124999887,
          "durationTicks": 18,
          "midi": 48,
          "name": "C3",
          "ticks": 50736,
          "time": 203.2690275,
          "velocity": 0.937007874015748
        },
        {
          "duration": 0.08012812500001587,
          "durationTicks": 20,
          "midi": 36,
          "name": "C2",
          "ticks": 50784,
          "time": 203.461335,
          "velocity": 0.9448818897637795
        },
        {
          "duration": 0.0721153124999887,
          "durationTicks": 18,
          "midi": 48,
          "name": "C3",
          "ticks": 50784,
          "time": 203.461335,
          "velocity": 0.952755905511811
        },
        {
          "duration": 0.07211531250001713,
          "durationTicks": 18,
          "midi": 36,
          "name": "C2",
          "ticks": 51072,
          "time": 204.61517999999998,
          "velocity": 0.968503937007874
        },
        {
          "duration": 0.07211531250001713,
          "durationTicks": 18,
          "midi": 48,
          "name": "C3",
          "ticks": 51072,
          "time": 204.61517999999998,
          "velocity": 0.952755905511811
        },
        {
          "duration": 0.0721153124999887,
          "durationTicks": 18,
          "midi": 36,
          "name": "C2",
          "ticks": 51168,
          "time": 204.999795,
          "velocity": 0.9606299212598425
        },
        {
          "duration": 0.0721153124999887,
          "durationTicks": 18,
          "midi": 48,
          "name": "C3",
          "ticks": 51168,
          "time": 204.999795,
          "velocity": 0.9606299212598425
        },
        {
          "duration": 0.0721153124999887,
          "durationTicks": 18,
          "midi": 36,
          "name": "C2",
          "ticks": 51264,
          "time": 205.38441,
          "velocity": 0.9606299212598425
        },
        {
          "duration": 0.08012812500001587,
          "durationTicks": 20,
          "midi": 48,
          "name": "C3",
          "ticks": 51264,
          "time": 205.38441,
          "velocity": 0.952755905511811
        },
        {
          "duration": 0.0881409374999862,
          "durationTicks": 22,
          "midi": 36,
          "name": "C2",
          "ticks": 51360,
          "time": 205.769025,
          "velocity": 0.952755905511811
        },
        {
          "duration": 0.0721153124999887,
          "durationTicks": 18,
          "midi": 48,
          "name": "C3",
          "ticks": 51360,
          "time": 205.769025,
          "velocity": 0.9448818897637795
        },
        {
          "duration": 0.056089687500019636,
          "durationTicks": 14,
          "midi": 36,
          "name": "C2",
          "ticks": 51504,
          "time": 206.3459475,
          "velocity": 0.8740157480314961
        },
        {
          "duration": 0.0721153124999887,
          "durationTicks": 18,
          "midi": 48,
          "name": "C3",
          "ticks": 51504,
          "time": 206.3459475,
          "velocity": 0.8267716535433071
        },
        {
          "duration": 0.0721153124999887,
          "durationTicks": 18,
          "midi": 36,
          "name": "C2",
          "ticks": 51552,
          "time": 206.538255,
          "velocity": 0.889763779527559
        },
        {
          "duration": 0.06410249999998996,
          "durationTicks": 16,
          "midi": 48,
          "name": "C3",
          "ticks": 51552,
          "time": 206.538255,
          "velocity": 0.8661417322834646
        },
        {
          "duration": 0.08012812500001587,
          "durationTicks": 20,
          "midi": 36,
          "name": "C2",
          "ticks": 51600,
          "time": 206.7305625,
          "velocity": 0.9606299212598425
        },
        {
          "duration": 0.0721153124999887,
          "durationTicks": 18,
          "midi": 48,
          "name": "C3",
          "ticks": 51600,
          "time": 206.7305625,
          "velocity": 0.9448818897637795
        },
        {
          "duration": 0.0721153124999887,
          "durationTicks": 18,
          "midi": 36,
          "name": "C2",
          "ticks": 51648,
          "time": 206.92287,
          "velocity": 0.9606299212598425
        },
        {
          "duration": 0.056089687500019636,
          "durationTicks": 14,
          "midi": 48,
          "name": "C3",
          "ticks": 51648,
          "time": 206.92287,
          "velocity": 0.9448818897637795
        },
        {
          "duration": 0.0881409374999862,
          "durationTicks": 22,
          "midi": 36,
          "name": "C2",
          "ticks": 51696,
          "time": 207.1151775,
          "velocity": 0.9448818897637795
        },
        {
          "duration": 0.07211531250001713,
          "durationTicks": 18,
          "midi": 48,
          "name": "C3",
          "ticks": 51696,
          "time": 207.1151775,
          "velocity": 0.9291338582677166
        },
        {
          "duration": 0.0881409374999862,
          "durationTicks": 22,
          "midi": 36,
          "name": "C2",
          "ticks": 51744,
          "time": 207.30748499999999,
          "velocity": 0.9448818897637795
        },
        {
          "duration": 0.0881409374999862,
          "durationTicks": 22,
          "midi": 48,
          "name": "C3",
          "ticks": 51744,
          "time": 207.30748499999999,
          "velocity": 0.9606299212598425
        },
        {
          "duration": 0.06410249999998996,
          "durationTicks": 16,
          "midi": 36,
          "name": "C2",
          "ticks": 51936,
          "time": 208.07671499999998,
          "velocity": 0.937007874015748
        },
        {
          "duration": 0.08012812500001587,
          "durationTicks": 20,
          "midi": 48,
          "name": "C3",
          "ticks": 51936,
          "time": 208.07671499999998,
          "velocity": 0.8976377952755905
        },
        {
          "duration": 0.056089687499991214,
          "durationTicks": 14,
          "midi": 36,
          "name": "C2",
          "ticks": 51984,
          "time": 208.2690225,
          "velocity": 0.952755905511811
        },
        {
          "duration": 0.056089687499991214,
          "durationTicks": 14,
          "midi": 48,
          "name": "C3",
          "ticks": 51984,
          "time": 208.2690225,
          "velocity": 0.9133858267716536
        },
        {
          "duration": 0.06410249999996154,
          "durationTicks": 16,
          "midi": 36,
          "name": "C2",
          "ticks": 52032,
          "time": 208.46133,
          "velocity": 0.9606299212598425
        },
        {
          "duration": 0.0721153124999887,
          "durationTicks": 18,
          "midi": 48,
          "name": "C3",
          "ticks": 52032,
          "time": 208.46133,
          "velocity": 0.9291338582677166
        },
        {
          "duration": 0.0881409374999862,
          "durationTicks": 22,
          "midi": 36,
          "name": "C2",
          "ticks": 52080,
          "time": 208.6536375,
          "velocity": 0.937007874015748
        },
        {
          "duration": 0.0721153124999887,
          "durationTicks": 18,
          "midi": 48,
          "name": "C3",
          "ticks": 52080,
          "time": 208.6536375,
          "velocity": 0.9448818897637795
        },
        {
          "duration": 0.0881409374999862,
          "durationTicks": 22,
          "midi": 36,
          "name": "C2",
          "ticks": 52128,
          "time": 208.845945,
          "velocity": 0.952755905511811
        },
        {
          "duration": 0.0721153124999887,
          "durationTicks": 18,
          "midi": 48,
          "name": "C3",
          "ticks": 52128,
          "time": 208.845945,
          "velocity": 0.9606299212598425
        },
        {
          "duration": 0.056089687500019636,
          "durationTicks": 14,
          "midi": 36,
          "name": "C2",
          "ticks": 52320,
          "time": 209.615175,
          "velocity": 0.9133858267716536
        },
        {
          "duration": 0.0721153124999887,
          "durationTicks": 18,
          "midi": 48,
          "name": "C3",
          "ticks": 52320,
          "time": 209.615175,
          "velocity": 0.9291338582677166
        },
        {
          "duration": 0.056089687500019636,
          "durationTicks": 14,
          "midi": 36,
          "name": "C2",
          "ticks": 52368,
          "time": 209.8074825,
          "velocity": 0.952755905511811
        },
        {
          "duration": 0.056089687500019636,
          "durationTicks": 14,
          "midi": 48,
          "name": "C3",
          "ticks": 52368,
          "time": 209.8074825,
          "velocity": 0.937007874015748
        },
        {
          "duration": 0.0721153124999887,
          "durationTicks": 18,
          "midi": 36,
          "name": "C2",
          "ticks": 52416,
          "time": 209.99979,
          "velocity": 0.9606299212598425
        },
        {
          "duration": 0.056089687500019636,
          "durationTicks": 14,
          "midi": 48,
          "name": "C3",
          "ticks": 52416,
          "time": 209.99979,
          "velocity": 0.9291338582677166
        },
        {
          "duration": 0.0881409374999862,
          "durationTicks": 22,
          "midi": 36,
          "name": "C2",
          "ticks": 52464,
          "time": 210.1920975,
          "velocity": 0.937007874015748
        },
        {
          "duration": 0.06410249999998996,
          "durationTicks": 16,
          "midi": 48,
          "name": "C3",
          "ticks": 52464,
          "time": 210.1920975,
          "velocity": 0.9448818897637795
        },
        {
          "duration": 0.07211531250001713,
          "durationTicks": 18,
          "midi": 36,
          "name": "C2",
          "ticks": 52512,
          "time": 210.384405,
          "velocity": 0.9448818897637795
        },
        {
          "duration": 0.0881409374999862,
          "durationTicks": 22,
          "midi": 48,
          "name": "C3",
          "ticks": 52512,
          "time": 210.384405,
          "velocity": 0.9606299212598425
        },
        {
          "duration": 0.08012812500001587,
          "durationTicks": 20,
          "midi": 36,
          "name": "C2",
          "ticks": 53232,
          "time": 213.2690175,
          "velocity": 0.8503937007874016
        },
        {
          "duration": 0.1041665625000121,
          "durationTicks": 26,
          "midi": 36,
          "name": "C2",
          "ticks": 53328,
          "time": 213.6536325,
          "velocity": 0.8267716535433071
        },
        {
          "duration": 0.12820500000003676,
          "durationTicks": 32,
          "midi": 36,
          "name": "C2",
          "ticks": 53424,
          "time": 214.03824749999998,
          "velocity": 0.9212598425196851
        },
        {
          "duration": 0.1201921875000096,
          "durationTicks": 30,
          "midi": 36,
          "name": "C2",
          "ticks": 53520,
          "time": 214.42286249999998,
          "velocity": 0.9606299212598425
        },
        {
          "duration": 0.12019218749998117,
          "durationTicks": 30,
          "midi": 36,
          "name": "C2",
          "ticks": 53616,
          "time": 214.8074775,
          "velocity": 0.952755905511811
        },
        {
          "duration": 0.12019218749998117,
          "durationTicks": 30,
          "midi": 36,
          "name": "C2",
          "ticks": 53712,
          "time": 215.1920925,
          "velocity": 0.9606299212598425
        },
        {
          "duration": 0.1041665625000121,
          "durationTicks": 26,
          "midi": 36,
          "name": "C2",
          "ticks": 53808,
          "time": 215.5767075,
          "velocity": 0.968503937007874
        },
        {
          "duration": 0.07211531250001713,
          "durationTicks": 18,
          "midi": 36,
          "name": "C2",
          "ticks": 54288,
          "time": 217.49978249999998,
          "velocity": 0.905511811023622
        },
        {
          "duration": 0.056089687500019636,
          "durationTicks": 14,
          "midi": 48,
          "name": "C3",
          "ticks": 54288,
          "time": 217.49978249999998,
          "velocity": 0.8661417322834646
        },
        {
          "duration": 0.06410249999998996,
          "durationTicks": 16,
          "midi": 36,
          "name": "C2",
          "ticks": 54336,
          "time": 217.69208999999998,
          "velocity": 0.8740157480314961
        },
        {
          "duration": 0.056089687500019636,
          "durationTicks": 14,
          "midi": 48,
          "name": "C3",
          "ticks": 54336,
          "time": 217.69208999999998,
          "velocity": 0.8661417322834646
        },
        {
          "duration": 0.07211531250001713,
          "durationTicks": 18,
          "midi": 36,
          "name": "C2",
          "ticks": 54384,
          "time": 217.88439749999998,
          "velocity": 0.952755905511811
        },
        {
          "duration": 0.07211531250001713,
          "durationTicks": 18,
          "midi": 48,
          "name": "C3",
          "ticks": 54384,
          "time": 217.88439749999998,
          "velocity": 0.937007874015748
        },
        {
          "duration": 0.04807687499999247,
          "durationTicks": 12,
          "midi": 36,
          "name": "C2",
          "ticks": 54432,
          "time": 218.076705,
          "velocity": 0.9212598425196851
        },
        {
          "duration": 0.0400640624999653,
          "durationTicks": 10,
          "midi": 48,
          "name": "C3",
          "ticks": 54432,
          "time": 218.076705,
          "velocity": 0.84251968503937
        },
        {
          "duration": 0.0881409374999862,
          "durationTicks": 22,
          "midi": 36,
          "name": "C2",
          "ticks": 54480,
          "time": 218.2690125,
          "velocity": 0.9606299212598425
        },
        {
          "duration": 0.0721153124999887,
          "durationTicks": 18,
          "midi": 48,
          "name": "C3",
          "ticks": 54480,
          "time": 218.2690125,
          "velocity": 0.937007874015748
        },
        {
          "duration": 0.0721153124999887,
          "durationTicks": 18,
          "midi": 36,
          "name": "C2",
          "ticks": 54528,
          "time": 218.46132,
          "velocity": 0.952755905511811
        },
        {
          "duration": 0.0721153124999887,
          "durationTicks": 18,
          "midi": 48,
          "name": "C3",
          "ticks": 54528,
          "time": 218.46132,
          "velocity": 0.937007874015748
        },
        {
          "duration": 0.08012812500001587,
          "durationTicks": 20,
          "midi": 36,
          "name": "C2",
          "ticks": 54576,
          "time": 218.6536275,
          "velocity": 0.952755905511811
        },
        {
          "duration": 0.0881409374999862,
          "durationTicks": 22,
          "midi": 48,
          "name": "C3",
          "ticks": 54576,
          "time": 218.6536275,
          "velocity": 0.952755905511811
        },
        {
          "duration": 0.08012812500001587,
          "durationTicks": 20,
          "midi": 36,
          "name": "C2",
          "ticks": 54912,
          "time": 219.99978,
          "velocity": 0.9212598425196851
        },
        {
          "duration": 0.08012812500001587,
          "durationTicks": 20,
          "midi": 48,
          "name": "C3",
          "ticks": 54912,
          "time": 219.99978,
          "velocity": 0.8661417322834646
        },
        {
          "duration": 0.07211531250001713,
          "durationTicks": 18,
          "midi": 36,
          "name": "C2",
          "ticks": 54960,
          "time": 220.19208749999999,
          "velocity": 0.9606299212598425
        },
        {
          "duration": 0.0881409374999862,
          "durationTicks": 22,
          "midi": 48,
          "name": "C3",
          "ticks": 54960,
          "time": 220.19208749999999,
          "velocity": 0.9606299212598425
        },
        {
          "duration": 0.09615375000001336,
          "durationTicks": 24,
          "midi": 36,
          "name": "C2",
          "ticks": 55152,
          "time": 220.96131749999998,
          "velocity": 0.9606299212598425
        },
        {
          "duration": 0.06410249999998996,
          "durationTicks": 16,
          "midi": 48,
          "name": "C3",
          "ticks": 55152,
          "time": 220.96131749999998,
          "velocity": 0.9606299212598425
        },
        {
          "duration": 0.0721153124999887,
          "durationTicks": 18,
          "midi": 36,
          "name": "C2",
          "ticks": 55296,
          "time": 221.53824,
          "velocity": 0.9291338582677166
        },
        {
          "duration": 0.0721153124999887,
          "durationTicks": 18,
          "midi": 48,
          "name": "C3",
          "ticks": 55296,
          "time": 221.53824,
          "velocity": 0.905511811023622
        },
        {
          "duration": 0.0721153124999887,
          "durationTicks": 18,
          "midi": 36,
          "name": "C2",
          "ticks": 55344,
          "time": 221.7305475,
          "velocity": 0.952755905511811
        },
        {
          "duration": 0.0721153124999887,
          "durationTicks": 18,
          "midi": 48,
          "name": "C3",
          "ticks": 55344,
          "time": 221.7305475,
          "velocity": 0.9606299212598425
        },
        {
          "duration": 0.11217937499998243,
          "durationTicks": 28,
          "midi": 36,
          "name": "C2",
          "ticks": 55536,
          "time": 222.4997775,
          "velocity": 0.9606299212598425
        },
        {
          "duration": 0.09615374999998494,
          "durationTicks": 24,
          "midi": 48,
          "name": "C3",
          "ticks": 55536,
          "time": 222.4997775,
          "velocity": 0.937007874015748
        },
        {
          "duration": 0.06410249999998996,
          "durationTicks": 16,
          "midi": 36,
          "name": "C2",
          "ticks": 55632,
          "time": 222.8843925,
          "velocity": 0.84251968503937
        },
        {
          "duration": 0.0721153124999887,
          "durationTicks": 18,
          "midi": 48,
          "name": "C3",
          "ticks": 55632,
          "time": 222.8843925,
          "velocity": 0.84251968503937
        },
        {
          "duration": 0.04807687499999247,
          "durationTicks": 12,
          "midi": 36,
          "name": "C2",
          "ticks": 55728,
          "time": 223.2690075,
          "velocity": 0.8503937007874016
        },
        {
          "duration": 0.0320512500000234,
          "durationTicks": 8,
          "midi": 48,
          "name": "C3",
          "ticks": 55776,
          "time": 223.46131499999998,
          "velocity": 0.6299212598425197
        },
        {
          "duration": 0.06410249999998996,
          "durationTicks": 16,
          "midi": 36,
          "name": "C2",
          "ticks": 55824,
          "time": 223.65362249999998,
          "velocity": 0.8661417322834646
        },
        {
          "duration": 0.07211531250001713,
          "durationTicks": 18,
          "midi": 48,
          "name": "C3",
          "ticks": 55824,
          "time": 223.65362249999998,
          "velocity": 0.8661417322834646
        },
        {
          "duration": 0.07211531250001713,
          "durationTicks": 18,
          "midi": 36,
          "name": "C2",
          "ticks": 55920,
          "time": 224.03823749999998,
          "velocity": 0.8661417322834646
        },
        {
          "duration": 0.07211531250001713,
          "durationTicks": 18,
          "midi": 48,
          "name": "C3",
          "ticks": 55920,
          "time": 224.03823749999998,
          "velocity": 0.8503937007874016
        },
        {
          "duration": 0.0721153124999887,
          "durationTicks": 18,
          "midi": 36,
          "name": "C2",
          "ticks": 56016,
          "time": 224.4228525,
          "velocity": 0.8661417322834646
        },
        {
          "duration": 0.0721153124999887,
          "durationTicks": 18,
          "midi": 48,
          "name": "C3",
          "ticks": 56016,
          "time": 224.4228525,
          "velocity": 0.8267716535433071
        },
        {
          "duration": 0.08012812500001587,
          "durationTicks": 20,
          "midi": 36,
          "name": "C2",
          "ticks": 56112,
          "time": 224.8074675,
          "velocity": 0.8818897637795275
        },
        {
          "duration": 0.0721153124999887,
          "durationTicks": 18,
          "midi": 48,
          "name": "C3",
          "ticks": 56112,
          "time": 224.8074675,
          "velocity": 0.8818897637795275
        },
        {
          "duration": 0.056089687500019636,
          "durationTicks": 14,
          "midi": 36,
          "name": "C2",
          "ticks": 56208,
          "time": 225.1920825,
          "velocity": 0.9133858267716536
        },
        {
          "duration": 0.06410249999998996,
          "durationTicks": 16,
          "midi": 48,
          "name": "C3",
          "ticks": 56208,
          "time": 225.1920825,
          "velocity": 0.937007874015748
        },
        {
          "duration": 0.01602562499999749,
          "durationTicks": 4,
          "midi": 47,
          "name": "B2",
          "ticks": 56352,
          "time": 225.769005,
          "velocity": 0.5826771653543307
        },
        {
          "duration": 0.056089687500019636,
          "durationTicks": 14,
          "midi": 48,
          "name": "C3",
          "ticks": 56352,
          "time": 225.769005,
          "velocity": 0.84251968503937
        },
        {
          "duration": 0.008012812500027167,
          "durationTicks": 2,
          "midi": 48,
          "name": "C3",
          "ticks": 56400,
          "time": 225.9613125,
          "velocity": 0.7716535433070866
        },
        {
          "duration": 0.04807687499999247,
          "durationTicks": 12,
          "midi": 48,
          "name": "C3",
          "ticks": 56448,
          "time": 226.15362,
          "velocity": 0.7874015748031497
        },
        {
          "duration": 0.056089687500019636,
          "durationTicks": 14,
          "midi": 48,
          "name": "C3",
          "ticks": 56496,
          "time": 226.3459275,
          "velocity": 0.7165354330708661
        },
        {
          "duration": 0.056089687500019636,
          "durationTicks": 14,
          "midi": 48,
          "name": "C3",
          "ticks": 56544,
          "time": 226.538235,
          "velocity": 0.9606299212598425
        },
        {
          "duration": 0.056089687500019636,
          "durationTicks": 14,
          "midi": 48,
          "name": "C3",
          "ticks": 56592,
          "time": 226.73054249999998,
          "velocity": 0.9291338582677166
        },
        {
          "duration": 0.056089687500019636,
          "durationTicks": 14,
          "midi": 48,
          "name": "C3",
          "ticks": 56640,
          "time": 226.92284999999998,
          "velocity": 0.9212598425196851
        },
        {
          "duration": 0.008012812500027167,
          "durationTicks": 2,
          "midi": 48,
          "name": "C3",
          "ticks": 56736,
          "time": 227.30746499999998,
          "velocity": 0.7086614173228346
        },
        {
          "duration": 0.008012812500027167,
          "durationTicks": 2,
          "midi": 48,
          "name": "C3",
          "ticks": 56784,
          "time": 227.49977249999998,
          "velocity": 0.7007874015748031
        },
        {
          "duration": 0.0284090625000033,
          "durationTicks": 14,
          "midi": 48,
          "name": "C3",
          "ticks": 56832,
          "time": 227.69208,
          "velocity": 0.6771653543307087
        },
        {
          "duration": 0.05275968750001425,
          "durationTicks": 26,
          "midi": 48,
          "name": "C3",
          "ticks": 56880,
          "time": 227.7894825,
          "velocity": 0.968503937007874
        },
        {
          "duration": 0.05275968749998583,
          "durationTicks": 26,
          "midi": 48,
          "name": "C3",
          "ticks": 56928,
          "time": 227.886885,
          "velocity": 0.6771653543307087
        },
        {
          "duration": 0.0487012500000219,
          "durationTicks": 24,
          "midi": 48,
          "name": "C3",
          "ticks": 56976,
          "time": 227.9842875,
          "velocity": 0.7165354330708661
        },
        {
          "duration": 0.0568181250000066,
          "durationTicks": 28,
          "midi": 48,
          "name": "C3",
          "ticks": 57024,
          "time": 228.08169,
          "velocity": 0.968503937007874
        },
        {
          "duration": 0.04058437500000878,
          "durationTicks": 20,
          "midi": 48,
          "name": "C3",
          "ticks": 57072,
          "time": 228.1790925,
          "velocity": 0.7637795275590551
        },
        {
          "duration": 0.04870124999999348,
          "durationTicks": 24,
          "midi": 48,
          "name": "C3",
          "ticks": 57120,
          "time": 228.276495,
          "velocity": 0.968503937007874
        },
        {
          "duration": 0.05275968750001425,
          "durationTicks": 26,
          "midi": 48,
          "name": "C3",
          "ticks": 57168,
          "time": 228.3738975,
          "velocity": 0.9606299212598425
        },
        {
          "duration": 0.05275968750001425,
          "durationTicks": 26,
          "midi": 48,
          "name": "C3",
          "ticks": 57264,
          "time": 228.5687025,
          "velocity": 0.968503937007874
        }
      ]
    }
  ]
}