{
  "header": {
    "keySignatures": [],
    "meta": [],
    "name": "",
    "ppq": 384,
    "tempos": [
      {
        "bpm": 230.00049833441307,
        "ticks": 0
      }
    ],
    "timeSignatures": [
      {
        "ticks": 0,
        "timeSignature": [
          1,
          4
        ],
        "measures": 0
      }
    ]
  },
  "tracks": [
    {
      "channel": 0,
      "controlChanges": {},
      "pitchBends": [],
      "instrument": {
        "family": "piano",
        "number": 0,
        "name": "acoustic grand piano"
      },
      "name": "Grand Piano (Classic)",
      "notes": [
        {
          "duration": 0.782607,
          "durationTicks": 1152,
          "midi": 30,
          "name": "F#1",
          "ticks": 0,
          "time": 0,
          "velocity": 0.3937007874015748
        },
        {
          "duration": 0.782607,
          "durationTicks": 1152,
          "midi": 37,
          "name": "C#2",
          "ticks": 0,
          "time": 0,
          "velocity": 0.3937007874015748
        },
        {
          "duration": 1.043476,
          "durationTicks": 1536,
          "midi": 49,
          "name": "C#3",
          "ticks": 0,
          "time": 0,
          "velocity": 0.3937007874015748
        },
        {
          "duration": 0.1304345,
          "durationTicks": 192,
          "midi": 54,
          "name": "F#3",
          "ticks": 0,
          "time": 0,
          "velocity": 0.3937007874015748
        },
        {
          "duration": 0.782607,
          "durationTicks": 1152,
          "midi": 42,
          "name": "F#2",
          "ticks": 0,
          "time": 0,
          "velocity": 0.3937007874015748
        },
        {
          "duration": 0.1304345,
          "durationTicks": 192,
          "midi": 61,
          "name": "C#4",
          "ticks": 0,
          "time": 0,
          "velocity": 0.3937007874015748
        },
        {
          "duration": 0.1304345,
          "durationTicks": 192,
          "midi": 66,
          "name": "F#4",
          "ticks": 192,
          "time": 0.1304345,
          "velocity": 0.3937007874015748
        },
        {
          "duration": 0.1304345,
          "durationTicks": 192,
          "midi": 57,
          "name": "A3",
          "ticks": 192,
          "time": 0.1304345,
          "velocity": 0.3937007874015748
        },
        {
          "duration": 0.1304345,
          "durationTicks": 192,
          "midi": 61,
          "name": "C#4",
          "ticks": 384,
          "time": 0.260869,
          "velocity": 0.3937007874015748
        },
        {
          "duration": 0.1304345,
          "durationTicks": 192,
          "midi": 69,
          "name": "A4",
          "ticks": 384,
          "time": 0.260869,
          "velocity": 0.3937007874015748
        },
        {
          "duration": 0.1304345,
          "durationTicks": 192,
          "midi": 61,
          "name": "C#4",
          "ticks": 576,
          "time": 0.3913035,
          "velocity": 0.3937007874015748
        },
        {
          "duration": 0.1304345,
          "durationTicks": 192,
          "midi": 69,
          "name": "A4",
          "ticks": 576,
          "time": 0.3913035,
          "velocity": 0.3937007874015748
        },
        {
          "duration": 0.1304345,
          "durationTicks": 192,
          "midi": 59,
          "name": "B3",
          "ticks": 768,
          "time": 0.521738,
          "velocity": 0.3937007874015748
        },
        {
          "duration": 0.1304345,
          "durationTicks": 192,
          "midi": 68,
          "name": "G#4",
          "ticks": 768,
          "time": 0.521738,
          "velocity": 0.3937007874015748
        },
        {
          "duration": 0.1304345,
          "durationTicks": 192,
          "midi": 68,
          "name": "G#4",
          "ticks": 960,
          "time": 0.6521725,
          "velocity": 0.3937007874015748
        },
        {
          "duration": 0.1304345,
          "durationTicks": 192,
          "midi": 59,
          "name": "B3",
          "ticks": 960,
          "time": 0.6521725,
          "velocity": 0.3937007874015748
        },
        {
          "duration": 0.1304345,
          "durationTicks": 192,
          "midi": 64,
          "name": "E4",
          "ticks": 1344,
          "time": 0.9130415000000001,
          "velocity": 0.3937007874015748
        },
        {
          "duration": 0.260869,
          "durationTicks": 384,
          "midi": 49,
          "name": "C#3",
          "ticks": 1344,
          "time": 0.9130415000000001,
          "velocity": 0.3937007874015748
        },
        {
          "duration": 0.260869,
          "durationTicks": 384,
          "midi": 37,
          "name": "C#2",
          "ticks": 1344,
          "time": 0.9130415000000001,
          "velocity": 0.3937007874015748
        },
        {
          "duration": 0.1304345,
          "durationTicks": 192,
          "midi": 59,
          "name": "B3",
          "ticks": 1344,
          "time": 0.9130415000000001,
          "velocity": 0.3937007874015748
        },
        {
          "duration": 0.1304345,
          "durationTicks": 192,
          "midi": 64,
          "name": "E4",
          "ticks": 1728,
          "time": 1.1739105,
          "velocity": 0.3937007874015748
        },
        {
          "duration": 0.1304345,
          "durationTicks": 192,
          "midi": 37,
          "name": "C#2",
          "ticks": 1728,
          "time": 1.1739105,
          "velocity": 0.3937007874015748
        },
        {
          "duration": 0.1304345,
          "durationTicks": 192,
          "midi": 56,
          "name": "G#3",
          "ticks": 1728,
          "time": 1.1739105,
          "velocity": 0.3937007874015748
        },
        {
          "duration": 0.1304345,
          "durationTicks": 192,
          "midi": 49,
          "name": "C#3",
          "ticks": 1728,
          "time": 1.1739105,
          "velocity": 0.3937007874015748
        },
        {
          "duration": 0.260869,
          "durationTicks": 384,
          "midi": 37,
          "name": "C#2",
          "ticks": 1920,
          "time": 1.304345,
          "velocity": 0.3937007874015748
        },
        {
          "duration": 0.260869,
          "durationTicks": 384,
          "midi": 25,
          "name": "C#1",
          "ticks": 1920,
          "time": 1.304345,
          "velocity": 0.3937007874015748
        },
        {
          "duration": 0.1304345,
          "durationTicks": 192,
          "midi": 59,
          "name": "B3",
          "ticks": 1920,
          "time": 1.304345,
          "velocity": 0.3937007874015748
        },
        {
          "duration": 0.1304345,
          "durationTicks": 192,
          "midi": 64,
          "name": "E4",
          "ticks": 1920,
          "time": 1.304345,
          "velocity": 0.3937007874015748
        },
        {
          "duration": 0.1304345,
          "durationTicks": 192,
          "midi": 59,
          "name": "B3",
          "ticks": 2112,
          "time": 1.4347795,
          "velocity": 0.3937007874015748
        },
        {
          "duration": 0.1304345,
          "durationTicks": 192,
          "midi": 64,
          "name": "E4",
          "ticks": 2112,
          "time": 1.4347795,
          "velocity": 0.3937007874015748
        },
        {
          "duration": 0.260869,
          "durationTicks": 384,
          "midi": 30,
          "name": "F#1",
          "ticks": 2304,
          "time": 1.565214,
          "velocity": 0.3937007874015748
        },
        {
          "duration": 0.260869,
          "durationTicks": 384,
          "midi": 37,
          "name": "C#2",
          "ticks": 2304,
          "time": 1.565214,
          "velocity": 0.3937007874015748
        },
        {
          "duration": 0.260869,
          "durationTicks": 384,
          "midi": 42,
          "name": "F#2",
          "ticks": 2304,
          "time": 1.565214,
          "velocity": 0.3937007874015748
        },
        {
          "duration": 0.1304345,
          "durationTicks": 192,
          "midi": 57,
          "name": "A3",
          "ticks": 2304,
          "time": 1.565214,
          "velocity": 0.3937007874015748
        },
        {
          "duration": 0.1304345,
          "durationTicks": 192,
          "midi": 66,
          "name": "F#4",
          "ticks": 2304,
          "time": 1.565214,
          "velocity": 0.3937007874015748
        },
        {
          "duration": 0.1304345,
          "durationTicks": 192,
          "midi": 66,
          "name": "F#4",
          "ticks": 2496,
          "time": 1.6956485000000001,
          "velocity": 0.3937007874015748
        },
        {
          "duration": 0.1304345,
          "durationTicks": 192,
          "midi": 57,
          "name": "A3",
          "ticks": 2496,
          "time": 1.6956485000000001,
          "velocity": 0.3937007874015748
        },
        {
          "duration": 0.260869,
          "durationTicks": 384,
          "midi": 30,
          "name": "F#1",
          "ticks": 3072,
          "time": 2.086952,
          "velocity": 0.3937007874015748
        },
        {
          "duration": 0.260869,
          "durationTicks": 384,
          "midi": 49,
          "name": "C#3",
          "ticks": 3072,
          "time": 2.086952,
          "velocity": 0.3937007874015748
        },
        {
          "duration": 0.260869,
          "durationTicks": 384,
          "midi": 54,
          "name": "F#3",
          "ticks": 3072,
          "time": 2.086952,
          "velocity": 0.3937007874015748
        },
        {
          "duration": 0.260869,
          "durationTicks": 384,
          "midi": 61,
          "name": "C#4",
          "ticks": 3072,
          "time": 2.086952,
          "velocity": 0.3937007874015748
        },
        {
          "duration": 0.260869,
          "durationTicks": 384,
          "midi": 66,
          "name": "F#4",
          "ticks": 3456,
          "time": 2.347821,
          "velocity": 0.3937007874015748
        },
        {
          "duration": 0.260869,
          "durationTicks": 384,
          "midi": 69,
          "name": "A4",
          "ticks": 3456,
          "time": 2.347821,
          "velocity": 0.3937007874015748
        },
        {
          "duration": 0.260869,
          "durationTicks": 384,
          "midi": 57,
          "name": "A3",
          "ticks": 3456,
          "time": 2.347821,
          "velocity": 0.3937007874015748
        },
        {
          "duration": 0.260869,
          "durationTicks": 384,
          "midi": 37,
          "name": "C#2",
          "ticks": 3456,
          "time": 2.347821,
          "velocity": 0.3937007874015748
        },
        {
          "duration": 0.260869,
          "durationTicks": 384,
          "midi": 42,
          "name": "F#2",
          "ticks": 3456,
          "time": 2.347821,
          "velocity": 0.3937007874015748
        },
        {
          "duration": 0.1304344999999998,
          "durationTicks": 192,
          "midi": 37,
          "name": "C#2",
          "ticks": 3840,
          "time": 2.60869,
          "velocity": 0.3937007874015748
        },
        {
          "duration": 0.1304344999999998,
          "durationTicks": 192,
          "midi": 61,
          "name": "C#4",
          "ticks": 3840,
          "time": 2.60869,
          "velocity": 0.3937007874015748
        },
        {
          "duration": 0.1304344999999998,
          "durationTicks": 192,
          "midi": 30,
          "name": "F#1",
          "ticks": 3840,
          "time": 2.60869,
          "velocity": 0.3937007874015748
        },
        {
          "duration": 0.1304344999999998,
          "durationTicks": 192,
          "midi": 56,
          "name": "G#3",
          "ticks": 3840,
          "time": 2.60869,
          "velocity": 0.3937007874015748
        },
        {
          "duration": 0.1304344999999998,
          "durationTicks": 192,
          "midi": 68,
          "name": "G#4",
          "ticks": 3840,
          "time": 2.60869,
          "velocity": 0.3937007874015748
        },
        {
          "duration": 0.26086900000000046,
          "durationTicks": 384,
          "midi": 56,
          "name": "G#3",
          "ticks": 4032,
          "time": 2.7391245,
          "velocity": 0.3937007874015748
        },
        {
          "duration": 0.13043450000000023,
          "durationTicks": 192,
          "midi": 30,
          "name": "F#1",
          "ticks": 4032,
          "time": 2.7391245,
          "velocity": 0.3937007874015748
        },
        {
          "duration": 0.13043450000000023,
          "durationTicks": 192,
          "midi": 42,
          "name": "F#2",
          "ticks": 4032,
          "time": 2.7391245,
          "velocity": 0.3937007874015748
        },
        {
          "duration": 0.26086900000000046,
          "durationTicks": 384,
          "midi": 68,
          "name": "G#4",
          "ticks": 4032,
          "time": 2.7391245,
          "velocity": 0.3937007874015748
        },
        {
          "duration": 0.26086900000000046,
          "durationTicks": 384,
          "midi": 61,
          "name": "C#4",
          "ticks": 4032,
          "time": 2.7391245,
          "velocity": 0.3937007874015748
        },
        {
          "duration": 0.260869,
          "durationTicks": 384,
          "midi": 42,
          "name": "F#2",
          "ticks": 4224,
          "time": 2.869559,
          "velocity": 0.3937007874015748
        },
        {
          "duration": 0.260869,
          "durationTicks": 384,
          "midi": 37,
          "name": "C#2",
          "ticks": 4224,
          "time": 2.869559,
          "velocity": 0.3937007874015748
        },
        {
          "duration": 0.2608689999999996,
          "durationTicks": 384,
          "midi": 52,
          "name": "E3",
          "ticks": 4416,
          "time": 2.9999935000000004,
          "velocity": 0.3937007874015748
        },
        {
          "duration": 0.2608689999999996,
          "durationTicks": 384,
          "midi": 64,
          "name": "E4",
          "ticks": 4416,
          "time": 2.9999935000000004,
          "velocity": 0.3937007874015748
        },
        {
          "duration": 0.2608689999999996,
          "durationTicks": 384,
          "midi": 57,
          "name": "A3",
          "ticks": 4416,
          "time": 2.9999935000000004,
          "velocity": 0.3937007874015748
        },
        {
          "duration": 0.260869,
          "durationTicks": 384,
          "midi": 30,
          "name": "F#1",
          "ticks": 4608,
          "time": 3.130428,
          "velocity": 0.3937007874015748
        },
        {
          "duration": 0.260869,
          "durationTicks": 384,
          "midi": 42,
          "name": "F#2",
          "ticks": 4608,
          "time": 3.130428,
          "velocity": 0.3937007874015748
        },
        {
          "duration": 0.13043450000000023,
          "durationTicks": 192,
          "midi": 54,
          "name": "F#3",
          "ticks": 4800,
          "time": 3.2608625,
          "velocity": 0.3937007874015748
        },
        {
          "duration": 0.13043450000000023,
          "durationTicks": 192,
          "midi": 61,
          "name": "C#4",
          "ticks": 4800,
          "time": 3.2608625,
          "velocity": 0.3937007874015748
        },
        {
          "duration": 0.13043450000000023,
          "durationTicks": 192,
          "midi": 49,
          "name": "C#3",
          "ticks": 4800,
          "time": 3.2608625,
          "velocity": 0.3937007874015748
        },
        {
          "duration": 0.260869,
          "durationTicks": 384,
          "midi": 57,
          "name": "A3",
          "ticks": 4992,
          "time": 3.3912970000000002,
          "velocity": 0.3937007874015748
        },
        {
          "duration": 0.260869,
          "durationTicks": 384,
          "midi": 64,
          "name": "E4",
          "ticks": 4992,
          "time": 3.3912970000000002,
          "velocity": 0.3937007874015748
        },
        {
          "duration": 0.260869,
          "durationTicks": 384,
          "midi": 42,
          "name": "F#2",
          "ticks": 4992,
          "time": 3.3912970000000002,
          "velocity": 0.3937007874015748
        },
        {
          "duration": 0.260869,
          "durationTicks": 384,
          "midi": 52,
          "name": "E3",
          "ticks": 4992,
          "time": 3.3912970000000002,
          "velocity": 0.3937007874015748
        },
        {
          "duration": 0.260869,
          "durationTicks": 384,
          "midi": 37,
          "name": "C#2",
          "ticks": 4992,
          "time": 3.3912970000000002,
          "velocity": 0.3937007874015748
        },
        {
          "duration": 0.1304344999999998,
          "durationTicks": 192,
          "midi": 30,
          "name": "F#1",
          "ticks": 5376,
          "time": 3.6521660000000002,
          "velocity": 0.3937007874015748
        },
        {
          "duration": 0.39130350000000025,
          "durationTicks": 576,
          "midi": 61,
          "name": "C#4",
          "ticks": 5376,
          "time": 3.6521660000000002,
          "velocity": 0.3937007874015748
        },
        {
          "duration": 0.39130350000000025,
          "durationTicks": 576,
          "midi": 54,
          "name": "F#3",
          "ticks": 5376,
          "time": 3.6521660000000002,
          "velocity": 0.3937007874015748
        },
        {
          "duration": 0.39130350000000025,
          "durationTicks": 576,
          "midi": 66,
          "name": "F#4",
          "ticks": 5376,
          "time": 3.6521660000000002,
          "velocity": 0.3937007874015748
        },
        {
          "duration": 0.1304344999999998,
          "durationTicks": 192,
          "midi": 37,
          "name": "C#2",
          "ticks": 5376,
          "time": 3.6521660000000002,
          "velocity": 0.3937007874015748
        },
        {
          "duration": 0.13043450000000023,
          "durationTicks": 192,
          "midi": 42,
          "name": "F#2",
          "ticks": 5568,
          "time": 3.7826005,
          "velocity": 0.3937007874015748
        },
        {
          "duration": 0.13043450000000023,
          "durationTicks": 192,
          "midi": 30,
          "name": "F#1",
          "ticks": 5568,
          "time": 3.7826005,
          "velocity": 0.3937007874015748
        },
        {
          "duration": 0.260869,
          "durationTicks": 384,
          "midi": 37,
          "name": "C#2",
          "ticks": 5760,
          "time": 3.9130350000000003,
          "velocity": 0.3937007874015748
        },
        {
          "duration": 0.260869,
          "durationTicks": 384,
          "midi": 42,
          "name": "F#2",
          "ticks": 5760,
          "time": 3.9130350000000003,
          "velocity": 0.3937007874015748
        },
        {
          "duration": 0.2608689999999996,
          "durationTicks": 384,
          "midi": 28,
          "name": "E1",
          "ticks": 6144,
          "time": 4.173904,
          "velocity": 0.3937007874015748
        },
        {
          "duration": 0.2608689999999996,
          "durationTicks": 384,
          "midi": 49,
          "name": "C#3",
          "ticks": 6144,
          "time": 4.173904,
          "velocity": 0.3937007874015748
        },
        {
          "duration": 0.2608689999999996,
          "durationTicks": 384,
          "midi": 61,
          "name": "C#4",
          "ticks": 6144,
          "time": 4.173904,
          "velocity": 0.3937007874015748
        },
        {
          "duration": 0.2608689999999996,
          "durationTicks": 384,
          "midi": 56,
          "name": "G#3",
          "ticks": 6144,
          "time": 4.173904,
          "velocity": 0.3937007874015748
        },
        {
          "duration": 0.26086900000000046,
          "durationTicks": 384,
          "midi": 71,
          "name": "B4",
          "ticks": 6528,
          "time": 4.434773,
          "velocity": 0.3937007874015748
        },
        {
          "duration": 0.26086900000000046,
          "durationTicks": 384,
          "midi": 64,
          "name": "E4",
          "ticks": 6528,
          "time": 4.434773,
          "velocity": 0.3937007874015748
        },
        {
          "duration": 0.26086900000000046,
          "durationTicks": 384,
          "midi": 59,
          "name": "B3",
          "ticks": 6528,
          "time": 4.434773,
          "velocity": 0.3937007874015748
        },
        {
          "duration": 0.26086900000000046,
          "durationTicks": 384,
          "midi": 35,
          "name": "B1",
          "ticks": 6528,
          "time": 4.434773,
          "velocity": 0.3937007874015748
        },
        {
          "duration": 0.26086900000000046,
          "durationTicks": 384,
          "midi": 44,
          "name": "G#2",
          "ticks": 6528,
          "time": 4.434773,
          "velocity": 0.3937007874015748
        },
        {
          "duration": 0.1304344999999998,
          "durationTicks": 192,
          "midi": 64,
          "name": "E4",
          "ticks": 6912,
          "time": 4.695642,
          "velocity": 0.3937007874015748
        },
        {
          "duration": 0.1304344999999998,
          "durationTicks": 192,
          "midi": 35,
          "name": "B1",
          "ticks": 6912,
          "time": 4.695642,
          "velocity": 0.3937007874015748
        },
        {
          "duration": 0.1304344999999998,
          "durationTicks": 192,
          "midi": 28,
          "name": "E1",
          "ticks": 6912,
          "time": 4.695642,
          "velocity": 0.3937007874015748
        },
        {
          "duration": 0.1304344999999998,
          "durationTicks": 192,
          "midi": 69,
          "name": "A4",
          "ticks": 6912,
          "time": 4.695642,
          "velocity": 0.3937007874015748
        },
        {
          "duration": 0.1304344999999998,
          "durationTicks": 192,
          "midi": 57,
          "name": "A3",
          "ticks": 6912,
          "time": 4.695642,
          "velocity": 0.3937007874015748
        },
        {
          "duration": 0.26086900000000046,
          "durationTicks": 384,
          "midi": 57,
          "name": "A3",
          "ticks": 7104,
          "time": 4.8260765,
          "velocity": 0.3937007874015748
        },
        {
          "duration": 0.13043450000000067,
          "durationTicks": 192,
          "midi": 28,
          "name": "E1",
          "ticks": 7104,
          "time": 4.8260765,
          "velocity": 0.3937007874015748
        },
        {
          "duration": 0.26086900000000046,
          "durationTicks": 384,
          "midi": 64,
          "name": "E4",
          "ticks": 7104,
          "time": 4.8260765,
          "velocity": 0.3937007874015748
        },
        {
          "duration": 0.13043450000000067,
          "durationTicks": 192,
          "midi": 44,
          "name": "G#2",
          "ticks": 7104,
          "time": 4.8260765,
          "velocity": 0.3937007874015748
        },
        {
          "duration": 0.26086900000000046,
          "durationTicks": 384,
          "midi": 69,
          "name": "A4",
          "ticks": 7104,
          "time": 4.8260765,
          "velocity": 0.3937007874015748
        },
        {
          "duration": 0.2608689999999996,
          "durationTicks": 384,
          "midi": 44,
          "name": "G#2",
          "ticks": 7296,
          "time": 4.956511000000001,
          "velocity": 0.3937007874015748
        },
        {
          "duration": 0.2608689999999996,
          "durationTicks": 384,
          "midi": 35,
          "name": "B1",
          "ticks": 7296,
          "time": 4.956511000000001,
          "velocity": 0.3937007874015748
        },
        {
          "duration": 0.2608689999999996,
          "durationTicks": 384,
          "midi": 68,
          "name": "G#4",
          "ticks": 7488,
          "time": 5.086945500000001,
          "velocity": 0.3937007874015748
        },
        {
          "duration": 0.2608689999999996,
          "durationTicks": 384,
          "midi": 64,
          "name": "E4",
          "ticks": 7488,
          "time": 5.086945500000001,
          "velocity": 0.3937007874015748
        },
        {
          "duration": 0.2608689999999996,
          "durationTicks": 384,
          "midi": 56,
          "name": "G#3",
          "ticks": 7488,
          "time": 5.086945500000001,
          "velocity": 0.3937007874015748
        },
        {
          "duration": 0.2608689999999996,
          "durationTicks": 384,
          "midi": 28,
          "name": "E1",
          "ticks": 7680,
          "time": 5.21738,
          "velocity": 0.3937007874015748
        },
        {
          "duration": 0.1304344999999998,
          "durationTicks": 192,
          "midi": 59,
          "name": "B3",
          "ticks": 7872,
          "time": 5.3478145,
          "velocity": 0.3937007874015748
        },
        {
          "duration": 0.1304344999999998,
          "durationTicks": 192,
          "midi": 68,
          "name": "G#4",
          "ticks": 7872,
          "time": 5.3478145,
          "velocity": 0.3937007874015748
        },
        {
          "duration": 0.1304344999999998,
          "durationTicks": 192,
          "midi": 56,
          "name": "G#3",
          "ticks": 7872,
          "time": 5.3478145,
          "velocity": 0.3937007874015748
        },
        {
          "duration": 0.26086900000000046,
          "durationTicks": 384,
          "midi": 44,
          "name": "G#2",
          "ticks": 8064,
          "time": 5.478249,
          "velocity": 0.3937007874015748
        },
        {
          "duration": 0.26086900000000046,
          "durationTicks": 384,
          "midi": 68,
          "name": "G#4",
          "ticks": 8064,
          "time": 5.478249,
          "velocity": 0.3937007874015748
        },
        {
          "duration": 0.26086900000000046,
          "durationTicks": 384,
          "midi": 35,
          "name": "B1",
          "ticks": 8064,
          "time": 5.478249,
          "velocity": 0.3937007874015748
        },
        {
          "duration": 0.26086900000000046,
          "durationTicks": 384,
          "midi": 64,
          "name": "E4",
          "ticks": 8064,
          "time": 5.478249,
          "velocity": 0.3937007874015748
        },
        {
          "duration": 0.26086900000000046,
          "durationTicks": 384,
          "midi": 56,
          "name": "G#3",
          "ticks": 8064,
          "time": 5.478249,
          "velocity": 0.3937007874015748
        },
        {
          "duration": 0.39130350000000025,
          "durationTicks": 576,
          "midi": 64,
          "name": "E4",
          "ticks": 8448,
          "time": 5.739118,
          "velocity": 0.3937007874015748
        },
        {
          "duration": 0.39130350000000025,
          "durationTicks": 576,
          "midi": 57,
          "name": "A3",
          "ticks": 8448,
          "time": 5.739118,
          "velocity": 0.3937007874015748
        },
        {
          "duration": 0.1304344999999998,
          "durationTicks": 192,
          "midi": 28,
          "name": "E1",
          "ticks": 8448,
          "time": 5.739118,
          "velocity": 0.3937007874015748
        },
        {
          "duration": 0.1304344999999998,
          "durationTicks": 192,
          "midi": 35,
          "name": "B1",
          "ticks": 8448,
          "time": 5.739118,
          "velocity": 0.3937007874015748
        },
        {
          "duration": 0.39130350000000025,
          "durationTicks": 576,
          "midi": 69,
          "name": "A4",
          "ticks": 8448,
          "time": 5.739118,
          "velocity": 0.3937007874015748
        },
        {
          "duration": 0.13043450000000067,
          "durationTicks": 192,
          "midi": 44,
          "name": "G#2",
          "ticks": 8640,
          "time": 5.8695525,
          "velocity": 0.3937007874015748
        },
        {
          "duration": 0.13043450000000067,
          "durationTicks": 192,
          "midi": 28,
          "name": "E1",
          "ticks": 8640,
          "time": 5.8695525,
          "velocity": 0.3937007874015748
        },
        {
          "duration": 0.2608689999999996,
          "durationTicks": 384,
          "midi": 35,
          "name": "B1",
          "ticks": 8832,
          "time": 5.999987000000001,
          "velocity": 0.3937007874015748
        },
        {
          "duration": 0.2608689999999996,
          "durationTicks": 384,
          "midi": 44,
          "name": "G#2",
          "ticks": 8832,
          "time": 5.999987000000001,
          "velocity": 0.3937007874015748
        },
        {
          "duration": 0.2608689999999996,
          "durationTicks": 384,
          "midi": 61,
          "name": "C#4",
          "ticks": 9216,
          "time": 6.260856,
          "velocity": 0.3937007874015748
        },
        {
          "duration": 0.2608689999999996,
          "durationTicks": 384,
          "midi": 73,
          "name": "C#5",
          "ticks": 9216,
          "time": 6.260856,
          "velocity": 0.3937007874015748
        },
        {
          "duration": 0.2608689999999996,
          "durationTicks": 384,
          "midi": 26,
          "name": "D1",
          "ticks": 9216,
          "time": 6.260856,
          "velocity": 0.3937007874015748
        },
        {
          "duration": 0.2608689999999996,
          "durationTicks": 384,
          "midi": 66,
          "name": "F#4",
          "ticks": 9216,
          "time": 6.260856,
          "velocity": 0.3937007874015748
        },
        {
          "duration": 0.26086900000000046,
          "durationTicks": 384,
          "midi": 69,
          "name": "A4",
          "ticks": 9600,
          "time": 6.521725,
          "velocity": 0.3937007874015748
        },
        {
          "duration": 0.26086900000000046,
          "durationTicks": 384,
          "midi": 57,
          "name": "A3",
          "ticks": 9600,
          "time": 6.521725,
          "velocity": 0.3937007874015748
        },
        {
          "duration": 0.26086900000000046,
          "durationTicks": 384,
          "midi": 62,
          "name": "D4",
          "ticks": 9600,
          "time": 6.521725,
          "velocity": 0.3937007874015748
        },
        {
          "duration": 0.26086900000000046,
          "durationTicks": 384,
          "midi": 33,
          "name": "A1",
          "ticks": 9600,
          "time": 6.521725,
          "velocity": 0.3937007874015748
        },
        {
          "duration": 0.26086900000000046,
          "durationTicks": 384,
          "midi": 42,
          "name": "F#2",
          "ticks": 9600,
          "time": 6.521725,
          "velocity": 0.3937007874015748
        },
        {
          "duration": 0.1304344999999998,
          "durationTicks": 192,
          "midi": 56,
          "name": "G#3",
          "ticks": 9984,
          "time": 6.7825940000000005,
          "velocity": 0.3937007874015748
        },
        {
          "duration": 0.1304344999999998,
          "durationTicks": 192,
          "midi": 68,
          "name": "G#4",
          "ticks": 9984,
          "time": 6.7825940000000005,
          "velocity": 0.3937007874015748
        },
        {
          "duration": 0.1304344999999998,
          "durationTicks": 192,
          "midi": 33,
          "name": "A1",
          "ticks": 9984,
          "time": 6.7825940000000005,
          "velocity": 0.3937007874015748
        },
        {
          "duration": 0.1304344999999998,
          "durationTicks": 192,
          "midi": 26,
          "name": "D1",
          "ticks": 9984,
          "time": 6.7825940000000005,
          "velocity": 0.3937007874015748
        },
        {
          "duration": 0.1304344999999998,
          "durationTicks": 192,
          "midi": 62,
          "name": "D4",
          "ticks": 9984,
          "time": 6.7825940000000005,
          "velocity": 0.3937007874015748
        },
        {
          "duration": 0.13043450000000067,
          "durationTicks": 192,
          "midi": 42,
          "name": "F#2",
          "ticks": 10176,
          "time": 6.9130285,
          "velocity": 0.3937007874015748
        },
        {
          "duration": 0.13043450000000067,
          "durationTicks": 192,
          "midi": 26,
          "name": "D1",
          "ticks": 10176,
          "time": 6.9130285,
          "velocity": 0.3937007874015748
        },
        {
          "duration": 0.26086900000000046,
          "durationTicks": 384,
          "midi": 62,
          "name": "D4",
          "ticks": 10176,
          "time": 6.9130285,
          "velocity": 0.3937007874015748
        },
        {
          "duration": 0.26086900000000046,
          "durationTicks": 384,
          "midi": 56,
          "name": "G#3",
          "ticks": 10176,
          "time": 6.9130285,
          "velocity": 0.3937007874015748
        },
        {
          "duration": 0.26086900000000046,
          "durationTicks": 384,
          "midi": 68,
          "name": "G#4",
          "ticks": 10176,
          "time": 6.9130285,
          "velocity": 0.3937007874015748
        },
        {
          "duration": 0.2608689999999996,
          "durationTicks": 384,
          "midi": 33,
          "name": "A1",
          "ticks": 10368,
          "time": 7.043463000000001,
          "velocity": 0.3937007874015748
        },
        {
          "duration": 0.2608689999999996,
          "durationTicks": 384,
          "midi": 42,
          "name": "F#2",
          "ticks": 10368,
          "time": 7.043463000000001,
          "velocity": 0.3937007874015748
        },
        {
          "duration": 0.2608689999999996,
          "durationTicks": 384,
          "midi": 52,
          "name": "E3",
          "ticks": 10560,
          "time": 7.173897500000001,
          "velocity": 0.3937007874015748
        },
        {
          "duration": 0.2608689999999996,
          "durationTicks": 384,
          "midi": 57,
          "name": "A3",
          "ticks": 10560,
          "time": 7.173897500000001,
          "velocity": 0.3937007874015748
        },
        {
          "duration": 0.2608689999999996,
          "durationTicks": 384,
          "midi": 64,
          "name": "E4",
          "ticks": 10560,
          "time": 7.173897500000001,
          "velocity": 0.3937007874015748
        },
        {
          "duration": 0.2608689999999996,
          "durationTicks": 384,
          "midi": 26,
          "name": "D1",
          "ticks": 10752,
          "time": 7.3043320000000005,
          "velocity": 0.3937007874015748
        },
        {
          "duration": 0.2608689999999996,
          "durationTicks": 384,
          "midi": 38,
          "name": "D2",
          "ticks": 10752,
          "time": 7.3043320000000005,
          "velocity": 0.3937007874015748
        },
        {
          "duration": 0.1304344999999998,
          "durationTicks": 192,
          "midi": 64,
          "name": "E4",
          "ticks": 10944,
          "time": 7.4347665,
          "velocity": 0.3937007874015748
        },
        {
          "duration": 0.1304344999999998,
          "durationTicks": 192,
          "midi": 52,
          "name": "E3",
          "ticks": 10944,
          "time": 7.4347665,
          "velocity": 0.3937007874015748
        },
        {
          "duration": 0.1304344999999998,
          "durationTicks": 192,
          "midi": 57,
          "name": "A3",
          "ticks": 10944,
          "time": 7.4347665,
          "velocity": 0.3937007874015748
        },
        {
          "duration": 0.26086900000000046,
          "durationTicks": 384,
          "midi": 33,
          "name": "A1",
          "ticks": 11136,
          "time": 7.565201,
          "velocity": 0.3937007874015748
        },
        {
          "duration": 0.26086900000000046,
          "durationTicks": 384,
          "midi": 57,
          "name": "A3",
          "ticks": 11136,
          "time": 7.565201,
          "velocity": 0.3937007874015748
        },
        {
          "duration": 0.26086900000000046,
          "durationTicks": 384,
          "midi": 64,
          "name": "E4",
          "ticks": 11136,
          "time": 7.565201,
          "velocity": 0.3937007874015748
        },
        {
          "duration": 0.26086900000000046,
          "durationTicks": 384,
          "midi": 42,
          "name": "F#2",
          "ticks": 11136,
          "time": 7.565201,
          "velocity": 0.3937007874015748
        },
        {
          "duration": 0.26086900000000046,
          "durationTicks": 384,
          "midi": 52,
          "name": "E3",
          "ticks": 11136,
          "time": 7.565201,
          "velocity": 0.3937007874015748
        },
        {
          "duration": 0.39130350000000025,
          "durationTicks": 576,
          "midi": 66,
          "name": "F#4",
          "ticks": 11520,
          "time": 7.8260700000000005,
          "velocity": 0.3937007874015748
        },
        {
          "duration": 0.1304344999999998,
          "durationTicks": 192,
          "midi": 26,
          "name": "D1",
          "ticks": 11520,
          "time": 7.8260700000000005,
          "velocity": 0.3937007874015748
        },
        {
          "duration": 0.1304344999999998,
          "durationTicks": 192,
          "midi": 33,
          "name": "A1",
          "ticks": 11520,
          "time": 7.8260700000000005,
          "velocity": 0.3937007874015748
        },
        {
          "duration": 0.39130350000000025,
          "durationTicks": 576,
          "midi": 54,
          "name": "F#3",
          "ticks": 11520,
          "time": 7.8260700000000005,
          "velocity": 0.3937007874015748
        },
        {
          "duration": 0.39130350000000025,
          "durationTicks": 576,
          "midi": 62,
          "name": "D4",
          "ticks": 11520,
          "time": 7.8260700000000005,
          "velocity": 0.3937007874015748
        },
        {
          "duration": 0.13043450000000067,
          "durationTicks": 192,
          "midi": 26,
          "name": "D1",
          "ticks": 11712,
          "time": 7.9565045,
          "velocity": 0.3937007874015748
        },
        {
          "duration": 0.13043450000000067,
          "durationTicks": 192,
          "midi": 42,
          "name": "F#2",
          "ticks": 11712,
          "time": 7.9565045,
          "velocity": 0.3937007874015748
        },
        {
          "duration": 0.2608689999999996,
          "durationTicks": 384,
          "midi": 33,
          "name": "A1",
          "ticks": 11904,
          "time": 8.086939000000001,
          "velocity": 0.3937007874015748
        },
        {
          "duration": 0.2608689999999996,
          "durationTicks": 384,
          "midi": 42,
          "name": "F#2",
          "ticks": 11904,
          "time": 8.086939000000001,
          "velocity": 0.3937007874015748
        },
        {
          "duration": 0.2608689999999996,
          "durationTicks": 384,
          "midi": 29,
          "name": "F1",
          "ticks": 12288,
          "time": 8.347808,
          "velocity": 0.3937007874015748
        },
        {
          "duration": 0.1304344999999998,
          "durationTicks": 192,
          "midi": 47,
          "name": "B2",
          "ticks": 12288,
          "time": 8.347808,
          "velocity": 0.3937007874015748
        },
        {
          "duration": 0.1304344999999998,
          "durationTicks": 192,
          "midi": 53,
          "name": "F3",
          "ticks": 12288,
          "time": 8.347808,
          "velocity": 0.3937007874015748
        },
        {
          "duration": 0.1304344999999998,
          "durationTicks": 192,
          "midi": 59,
          "name": "B3",
          "ticks": 12288,
          "time": 8.347808,
          "velocity": 0.3937007874015748
        },
        {
          "duration": 0.1304344999999998,
          "durationTicks": 192,
          "midi": 47,
          "name": "B2",
          "ticks": 12480,
          "time": 8.4782425,
          "velocity": 0.3937007874015748
        },
        {
          "duration": 0.1304344999999998,
          "durationTicks": 192,
          "midi": 59,
          "name": "B3",
          "ticks": 12480,
          "time": 8.4782425,
          "velocity": 0.3937007874015748
        },
        {
          "duration": 0.1304344999999998,
          "durationTicks": 192,
          "midi": 53,
          "name": "F3",
          "ticks": 12480,
          "time": 8.4782425,
          "velocity": 0.3937007874015748
        },
        {
          "duration": 0.2608689999999996,
          "durationTicks": 384,
          "midi": 53,
          "name": "F3",
          "ticks": 12672,
          "time": 8.608677,
          "velocity": 0.3937007874015748
        },
        {
          "duration": 0.2608689999999996,
          "durationTicks": 384,
          "midi": 32,
          "name": "G#1",
          "ticks": 12672,
          "time": 8.608677,
          "velocity": 0.3937007874015748
        },
        {
          "duration": 0.2608689999999996,
          "durationTicks": 384,
          "midi": 47,
          "name": "B2",
          "ticks": 12672,
          "time": 8.608677,
          "velocity": 0.3937007874015748
        },
        {
          "duration": 0.2608689999999996,
          "durationTicks": 384,
          "midi": 59,
          "name": "B3",
          "ticks": 12672,
          "time": 8.608677,
          "velocity": 0.3937007874015748
        },
        {
          "duration": 0.2608689999999996,
          "durationTicks": 384,
          "midi": 41,
          "name": "F2",
          "ticks": 12672,
          "time": 8.608677,
          "velocity": 0.3937007874015748
        },
        {
          "duration": 0.13043450000000156,
          "durationTicks": 192,
          "midi": 53,
          "name": "F3",
          "ticks": 13056,
          "time": 8.869546,
          "velocity": 0.3937007874015748
        },
        {
          "duration": 0.13043450000000156,
          "durationTicks": 192,
          "midi": 61,
          "name": "C#4",
          "ticks": 13056,
          "time": 8.869546,
          "velocity": 0.3937007874015748
        },
        {
          "duration": 0.13043450000000156,
          "durationTicks": 192,
          "midi": 49,
          "name": "C#3",
          "ticks": 13056,
          "time": 8.869546,
          "velocity": 0.3937007874015748
        },
        {
          "duration": 0.13043450000000156,
          "durationTicks": 192,
          "midi": 29,
          "name": "F1",
          "ticks": 13056,
          "time": 8.869546,
          "velocity": 0.3937007874015748
        },
        {
          "duration": 0.13043450000000156,
          "durationTicks": 192,
          "midi": 35,
          "name": "B1",
          "ticks": 13056,
          "time": 8.869546,
          "velocity": 0.3937007874015748
        },
        {
          "duration": 0.1304344999999998,
          "durationTicks": 192,
          "midi": 29,
          "name": "F1",
          "ticks": 13248,
          "time": 8.999980500000001,
          "velocity": 0.3937007874015748
        },
        {
          "duration": 0.2608689999999996,
          "durationTicks": 384,
          "midi": 56,
          "name": "G#3",
          "ticks": 13248,
          "time": 8.999980500000001,
          "velocity": 0.3937007874015748
        },
        {
          "duration": 0.2608689999999996,
          "durationTicks": 384,
          "midi": 49,
          "name": "C#3",
          "ticks": 13248,
          "time": 8.999980500000001,
          "velocity": 0.3937007874015748
        },
        {
          "duration": 0.2608689999999996,
          "durationTicks": 384,
          "midi": 61,
          "name": "C#4",
          "ticks": 13248,
          "time": 8.999980500000001,
          "velocity": 0.3937007874015748
        },
        {
          "duration": 0.1304344999999998,
          "durationTicks": 192,
          "midi": 41,
          "name": "F2",
          "ticks": 13248,
          "time": 8.999980500000001,
          "velocity": 0.3937007874015748
        },
        {
          "duration": 0.2608689999999996,
          "durationTicks": 384,
          "midi": 44,
          "name": "G#2",
          "ticks": 13440,
          "time": 9.130415000000001,
          "velocity": 0.3937007874015748
        },
        {
          "duration": 0.2608689999999996,
          "durationTicks": 384,
          "midi": 35,
          "name": "B1",
          "ticks": 13440,
          "time": 9.130415000000001,
          "velocity": 0.3937007874015748
        },
        {
          "duration": 0.2608689999999996,
          "durationTicks": 384,
          "midi": 52,
          "name": "E3",
          "ticks": 13632,
          "time": 9.2608495,
          "velocity": 0.3937007874015748
        },
        {
          "duration": 0.2608689999999996,
          "durationTicks": 384,
          "midi": 64,
          "name": "E4",
          "ticks": 13632,
          "time": 9.2608495,
          "velocity": 0.3937007874015748
        },
        {
          "duration": 0.2608689999999996,
          "durationTicks": 384,
          "midi": 59,
          "name": "B3",
          "ticks": 13632,
          "time": 9.2608495,
          "velocity": 0.3937007874015748
        },
        {
          "duration": 0.2608689999999996,
          "durationTicks": 384,
          "midi": 29,
          "name": "F1",
          "ticks": 13824,
          "time": 9.391284,
          "velocity": 0.3937007874015748
        },
        {
          "duration": 0.2608689999999996,
          "durationTicks": 384,
          "midi": 41,
          "name": "F2",
          "ticks": 13824,
          "time": 9.391284,
          "velocity": 0.3937007874015748
        },
        {
          "duration": 0.2608689999999996,
          "durationTicks": 384,
          "midi": 66,
          "name": "F#4",
          "ticks": 14016,
          "time": 9.5217185,
          "velocity": 0.3937007874015748
        },
        {
          "duration": 0.2608689999999996,
          "durationTicks": 384,
          "midi": 54,
          "name": "F#3",
          "ticks": 14016,
          "time": 9.5217185,
          "velocity": 0.3937007874015748
        },
        {
          "duration": 0.2608689999999996,
          "durationTicks": 384,
          "midi": 59,
          "name": "B3",
          "ticks": 14016,
          "time": 9.5217185,
          "velocity": 0.3937007874015748
        },
        {
          "duration": 0.26086900000000135,
          "durationTicks": 384,
          "midi": 41,
          "name": "F2",
          "ticks": 14208,
          "time": 9.652153,
          "velocity": 0.3937007874015748
        },
        {
          "duration": 0.26086900000000135,
          "durationTicks": 384,
          "midi": 32,
          "name": "G#1",
          "ticks": 14208,
          "time": 9.652153,
          "velocity": 0.3937007874015748
        },
        {
          "duration": 0.5217380000000009,
          "durationTicks": 768,
          "midi": 66,
          "name": "F#4",
          "ticks": 14400,
          "time": 9.7825875,
          "velocity": 0.3937007874015748
        },
        {
          "duration": 0.5217380000000009,
          "durationTicks": 768,
          "midi": 59,
          "name": "B3",
          "ticks": 14400,
          "time": 9.7825875,
          "velocity": 0.3937007874015748
        },
        {
          "duration": 0.5217380000000009,
          "durationTicks": 768,
          "midi": 54,
          "name": "F#3",
          "ticks": 14400,
          "time": 9.7825875,
          "velocity": 0.3937007874015748
        },
        {
          "duration": 0.1304344999999998,
          "durationTicks": 192,
          "midi": 35,
          "name": "B1",
          "ticks": 14592,
          "time": 9.913022000000002,
          "velocity": 0.3937007874015748
        },
        {
          "duration": 0.1304344999999998,
          "durationTicks": 192,
          "midi": 29,
          "name": "F1",
          "ticks": 14592,
          "time": 9.913022000000002,
          "velocity": 0.3937007874015748
        },
        {
          "duration": 0.1304344999999998,
          "durationTicks": 192,
          "midi": 29,
          "name": "F1",
          "ticks": 14784,
          "time": 10.043456500000001,
          "velocity": 0.3937007874015748
        },
        {
          "duration": 0.1304344999999998,
          "durationTicks": 192,
          "midi": 41,
          "name": "F2",
          "ticks": 14784,
          "time": 10.043456500000001,
          "velocity": 0.3937007874015748
        },
        {
          "duration": 0.2608689999999996,
          "durationTicks": 384,
          "midi": 44,
          "name": "G#2",
          "ticks": 14976,
          "time": 10.173891000000001,
          "velocity": 0.3937007874015748
        },
        {
          "duration": 0.2608689999999996,
          "durationTicks": 384,
          "midi": 35,
          "name": "B1",
          "ticks": 14976,
          "time": 10.173891000000001,
          "velocity": 0.3937007874015748
        },
        {
          "duration": 0.2608689999999996,
          "durationTicks": 384,
          "midi": 54,
          "name": "F#3",
          "ticks": 15360,
          "time": 10.43476,
          "velocity": 0.3937007874015748
        },
        {
          "duration": 0.2608689999999996,
          "durationTicks": 384,
          "midi": 61,
          "name": "C#4",
          "ticks": 15360,
          "time": 10.43476,
          "velocity": 0.3937007874015748
        },
        {
          "duration": 0.2608689999999996,
          "durationTicks": 384,
          "midi": 49,
          "name": "C#3",
          "ticks": 15360,
          "time": 10.43476,
          "velocity": 0.3937007874015748
        },
        {
          "duration": 0.2608689999999996,
          "durationTicks": 384,
          "midi": 30,
          "name": "F#1",
          "ticks": 15360,
          "time": 10.43476,
          "velocity": 0.3937007874015748
        },
        {
          "duration": 0.2608689999999996,
          "durationTicks": 384,
          "midi": 66,
          "name": "F#4",
          "ticks": 15744,
          "time": 10.695629,
          "velocity": 0.3937007874015748
        },
        {
          "duration": 0.2608689999999996,
          "durationTicks": 384,
          "midi": 69,
          "name": "A4",
          "ticks": 15744,
          "time": 10.695629,
          "velocity": 0.3937007874015748
        },
        {
          "duration": 0.2608689999999996,
          "durationTicks": 384,
          "midi": 42,
          "name": "F#2",
          "ticks": 15744,
          "time": 10.695629,
          "velocity": 0.3937007874015748
        },
        {
          "duration": 0.2608689999999996,
          "durationTicks": 384,
          "midi": 37,
          "name": "C#2",
          "ticks": 15744,
          "time": 10.695629,
          "velocity": 0.3937007874015748
        },
        {
          "duration": 0.2608689999999996,
          "durationTicks": 384,
          "midi": 57,
          "name": "A3",
          "ticks": 15744,
          "time": 10.695629,
          "velocity": 0.3937007874015748
        },
        {
          "duration": 0.13043450000000156,
          "durationTicks": 192,
          "midi": 30,
          "name": "F#1",
          "ticks": 16128,
          "time": 10.956498,
          "velocity": 0.3937007874015748
        },
        {
          "duration": 0.13043450000000156,
          "durationTicks": 192,
          "midi": 37,
          "name": "C#2",
          "ticks": 16128,
          "time": 10.956498,
          "velocity": 0.3937007874015748
        },
        {
          "duration": 0.13043450000000156,
          "durationTicks": 192,
          "midi": 61,
          "name": "C#4",
          "ticks": 16128,
          "time": 10.956498,
          "velocity": 0.3937007874015748
        },
        {
          "duration": 0.13043450000000156,
          "durationTicks": 192,
          "midi": 56,
          "name": "G#3",
          "ticks": 16128,
          "time": 10.956498,
          "velocity": 0.3937007874015748
        },
        {
          "duration": 0.13043450000000156,
          "durationTicks": 192,
          "midi": 68,
          "name": "G#4",
          "ticks": 16128,
          "time": 10.956498,
          "velocity": 0.3937007874015748
        },
        {
          "duration": 0.1304344999999998,
          "durationTicks": 192,
          "midi": 42,
          "name": "F#2",
          "ticks": 16320,
          "time": 11.086932500000001,
          "velocity": 0.3937007874015748
        },
        {
          "duration": 0.2608689999999996,
          "durationTicks": 384,
          "midi": 61,
          "name": "C#4",
          "ticks": 16320,
          "time": 11.086932500000001,
          "velocity": 0.3937007874015748
        },
        {
          "duration": 0.2608689999999996,
          "durationTicks": 384,
          "midi": 68,
          "name": "G#4",
          "ticks": 16320,
          "time": 11.086932500000001,
          "velocity": 0.3937007874015748
        },
        {
          "duration": 0.2608689999999996,
          "durationTicks": 384,
          "midi": 56,
          "name": "G#3",
          "ticks": 16320,
          "time": 11.086932500000001,
          "velocity": 0.3937007874015748
        },
        {
          "duration": 0.1304344999999998,
          "durationTicks": 192,
          "midi": 30,
          "name": "F#1",
          "ticks": 16320,
          "time": 11.086932500000001,
          "velocity": 0.3937007874015748
        },
        {
          "duration": 0.2608689999999996,
          "durationTicks": 384,
          "midi": 42,
          "name": "F#2",
          "ticks": 16512,
          "time": 11.217367000000001,
          "velocity": 0.3937007874015748
        },
        {
          "duration": 0.2608689999999996,
          "durationTicks": 384,
          "midi": 37,
          "name": "C#2",
          "ticks": 16512,
          "time": 11.217367000000001,
          "velocity": 0.3937007874015748
        },
        {
          "duration": 0.2608689999999996,
          "durationTicks": 384,
          "midi": 57,
          "name": "A3",
          "ticks": 16704,
          "time": 11.347801500000001,
          "velocity": 0.3937007874015748
        },
        {
          "duration": 0.2608689999999996,
          "durationTicks": 384,
          "midi": 52,
          "name": "E3",
          "ticks": 16704,
          "time": 11.347801500000001,
          "velocity": 0.3937007874015748
        },
        {
          "duration": 0.2608689999999996,
          "durationTicks": 384,
          "midi": 64,
          "name": "E4",
          "ticks": 16704,
          "time": 11.347801500000001,
          "velocity": 0.3937007874015748
        },
        {
          "duration": 0.2608689999999996,
          "durationTicks": 384,
          "midi": 42,
          "name": "F#2",
          "ticks": 16896,
          "time": 11.478236,
          "velocity": 0.3937007874015748
        },
        {
          "duration": 0.2608689999999996,
          "durationTicks": 384,
          "midi": 30,
          "name": "F#1",
          "ticks": 16896,
          "time": 11.478236,
          "velocity": 0.3937007874015748
        },
        {
          "duration": 0.1304344999999998,
          "durationTicks": 192,
          "midi": 61,
          "name": "C#4",
          "ticks": 17088,
          "time": 11.6086705,
          "velocity": 0.3937007874015748
        },
        {
          "duration": 0.1304344999999998,
          "durationTicks": 192,
          "midi": 54,
          "name": "F#3",
          "ticks": 17088,
          "time": 11.6086705,
          "velocity": 0.3937007874015748
        },
        {
          "duration": 0.1304344999999998,
          "durationTicks": 192,
          "midi": 49,
          "name": "C#3",
          "ticks": 17088,
          "time": 11.6086705,
          "velocity": 0.3937007874015748
        },
        {
          "duration": 0.26086900000000135,
          "durationTicks": 384,
          "midi": 42,
          "name": "F#2",
          "ticks": 17280,
          "time": 11.739105,
          "velocity": 0.3937007874015748
        },
        {
          "duration": 0.26086900000000135,
          "durationTicks": 384,
          "midi": 64,
          "name": "E4",
          "ticks": 17280,
          "time": 11.739105,
          "velocity": 0.3937007874015748
        },
        {
          "duration": 0.26086900000000135,
          "durationTicks": 384,
          "midi": 52,
          "name": "E3",
          "ticks": 17280,
          "time": 11.739105,
          "velocity": 0.3937007874015748
        },
        {
          "duration": 0.26086900000000135,
          "durationTicks": 384,
          "midi": 57,
          "name": "A3",
          "ticks": 17280,
          "time": 11.739105,
          "velocity": 0.3937007874015748
        },
        {
          "duration": 0.26086900000000135,
          "durationTicks": 384,
          "midi": 37,
          "name": "C#2",
          "ticks": 17280,
          "time": 11.739105,
          "velocity": 0.3937007874015748
        },
        {
          "duration": 0.39130349999999936,
          "durationTicks": 576,
          "midi": 61,
          "name": "C#4",
          "ticks": 17664,
          "time": 11.999974000000002,
          "velocity": 0.3937007874015748
        },
        {
          "duration": 0.1304344999999998,
          "durationTicks": 192,
          "midi": 37,
          "name": "C#2",
          "ticks": 17664,
          "time": 11.999974000000002,
          "velocity": 0.3937007874015748
        },
        {
          "duration": 0.1304344999999998,
          "durationTicks": 192,
          "midi": 30,
          "name": "F#1",
          "ticks": 17664,
          "time": 11.999974000000002,
          "velocity": 0.3937007874015748
        },
        {
          "duration": 0.39130349999999936,
          "durationTicks": 576,
          "midi": 54,
          "name": "F#3",
          "ticks": 17664,
          "time": 11.999974000000002,
          "velocity": 0.3937007874015748
        },
        {
          "duration": 0.39130349999999936,
          "durationTicks": 576,
          "midi": 66,
          "name": "F#4",
          "ticks": 17664,
          "time": 11.999974000000002,
          "velocity": 0.3937007874015748
        },
        {
          "duration": 0.1304344999999998,
          "durationTicks": 192,
          "midi": 30,
          "name": "F#1",
          "ticks": 17856,
          "time": 12.130408500000001,
          "velocity": 0.3937007874015748
        },
        {
          "duration": 0.1304344999999998,
          "durationTicks": 192,
          "midi": 42,
          "name": "F#2",
          "ticks": 17856,
          "time": 12.130408500000001,
          "velocity": 0.3937007874015748
        },
        {
          "duration": 0.2608689999999996,
          "durationTicks": 384,
          "midi": 37,
          "name": "C#2",
          "ticks": 18048,
          "time": 12.260843000000001,
          "velocity": 0.3937007874015748
        },
        {
          "duration": 0.2608689999999996,
          "durationTicks": 384,
          "midi": 42,
          "name": "F#2",
          "ticks": 18048,
          "time": 12.260843000000001,
          "velocity": 0.3937007874015748
        },
        {
          "duration": 0.2608689999999996,
          "durationTicks": 384,
          "midi": 49,
          "name": "C#3",
          "ticks": 18432,
          "time": 12.521712,
          "velocity": 0.3937007874015748
        },
        {
          "duration": 0.2608689999999996,
          "durationTicks": 384,
          "midi": 56,
          "name": "G#3",
          "ticks": 18432,
          "time": 12.521712,
          "velocity": 0.3937007874015748
        },
        {
          "duration": 0.2608689999999996,
          "durationTicks": 384,
          "midi": 61,
          "name": "C#4",
          "ticks": 18432,
          "time": 12.521712,
          "velocity": 0.3937007874015748
        },
        {
          "duration": 0.2608689999999996,
          "durationTicks": 384,
          "midi": 28,
          "name": "E1",
          "ticks": 18432,
          "time": 12.521712,
          "velocity": 0.3937007874015748
        },
        {
          "duration": 0.2608689999999996,
          "durationTicks": 384,
          "midi": 44,
          "name": "G#2",
          "ticks": 18816,
          "time": 12.782581,
          "velocity": 0.3937007874015748
        },
        {
          "duration": 0.2608689999999996,
          "durationTicks": 384,
          "midi": 35,
          "name": "B1",
          "ticks": 18816,
          "time": 12.782581,
          "velocity": 0.3937007874015748
        },
        {
          "duration": 0.2608689999999996,
          "durationTicks": 384,
          "midi": 64,
          "name": "E4",
          "ticks": 18816,
          "time": 12.782581,
          "velocity": 0.3937007874015748
        },
        {
          "duration": 0.2608689999999996,
          "durationTicks": 384,
          "midi": 71,
          "name": "B4",
          "ticks": 18816,
          "time": 12.782581,
          "velocity": 0.3937007874015748
        },
        {
          "duration": 0.2608689999999996,
          "durationTicks": 384,
          "midi": 59,
          "name": "B3",
          "ticks": 18816,
          "time": 12.782581,
          "velocity": 0.3937007874015748
        },
        {
          "duration": 0.13043450000000156,
          "durationTicks": 192,
          "midi": 35,
          "name": "B1",
          "ticks": 19200,
          "time": 13.04345,
          "velocity": 0.3937007874015748
        },
        {
          "duration": 0.13043450000000156,
          "durationTicks": 192,
          "midi": 57,
          "name": "A3",
          "ticks": 19200,
          "time": 13.04345,
          "velocity": 0.3937007874015748
        },
        {
          "duration": 0.13043450000000156,
          "durationTicks": 192,
          "midi": 64,
          "name": "E4",
          "ticks": 19200,
          "time": 13.04345,
          "velocity": 0.3937007874015748
        },
        {
          "duration": 0.13043450000000156,
          "durationTicks": 192,
          "midi": 69,
          "name": "A4",
          "ticks": 19200,
          "time": 13.04345,
          "velocity": 0.3937007874015748
        },
        {
          "duration": 0.13043450000000156,
          "durationTicks": 192,
          "midi": 28,
          "name": "E1",
          "ticks": 19200,
          "time": 13.04345,
          "velocity": 0.3937007874015748
        },
        {
          "duration": 0.1304344999999998,
          "durationTicks": 192,
          "midi": 44,
          "name": "G#2",
          "ticks": 19392,
          "time": 13.173884500000002,
          "velocity": 0.3937007874015748
        },
        {
          "duration": 0.2608689999999996,
          "durationTicks": 384,
          "midi": 69,
          "name": "A4",
          "ticks": 19392,
          "time": 13.173884500000002,
          "velocity": 0.3937007874015748
        },
        {
          "duration": 0.2608689999999996,
          "durationTicks": 384,
          "midi": 57,
          "name": "A3",
          "ticks": 19392,
          "time": 13.173884500000002,
          "velocity": 0.3937007874015748
        },
        {
          "duration": 0.1304344999999998,
          "durationTicks": 192,
          "midi": 28,
          "name": "E1",
          "ticks": 19392,
          "time": 13.173884500000002,
          "velocity": 0.3937007874015748
        },
        {
          "duration": 0.2608689999999996,
          "durationTicks": 384,
          "midi": 64,
          "name": "E4",
          "ticks": 19392,
          "time": 13.173884500000002,
          "velocity": 0.3937007874015748
        },
        {
          "duration": 0.2608689999999996,
          "durationTicks": 384,
          "midi": 35,
          "name": "B1",
          "ticks": 19584,
          "time": 13.304319000000001,
          "velocity": 0.3937007874015748
        },
        {
          "duration": 0.2608689999999996,
          "durationTicks": 384,
          "midi": 44,
          "name": "G#2",
          "ticks": 19584,
          "time": 13.304319000000001,
          "velocity": 0.3937007874015748
        },
        {
          "duration": 0.2608689999999996,
          "durationTicks": 384,
          "midi": 68,
          "name": "G#4",
          "ticks": 19776,
          "time": 13.434753500000001,
          "velocity": 0.3937007874015748
        },
        {
          "duration": 0.2608689999999996,
          "durationTicks": 384,
          "midi": 56,
          "name": "G#3",
          "ticks": 19776,
          "time": 13.434753500000001,
          "velocity": 0.3937007874015748
        },
        {
          "duration": 0.2608689999999996,
          "durationTicks": 384,
          "midi": 64,
          "name": "E4",
          "ticks": 19776,
          "time": 13.434753500000001,
          "velocity": 0.3937007874015748
        },
        {
          "duration": 0.2608689999999996,
          "durationTicks": 384,
          "midi": 28,
          "name": "E1",
          "ticks": 19968,
          "time": 13.565188000000001,
          "velocity": 0.3937007874015748
        },
        {
          "duration": 0.1304344999999998,
          "durationTicks": 192,
          "midi": 68,
          "name": "G#4",
          "ticks": 20160,
          "time": 13.6956225,
          "velocity": 0.3937007874015748
        },
        {
          "duration": 0.1304344999999998,
          "durationTicks": 192,
          "midi": 59,
          "name": "B3",
          "ticks": 20160,
          "time": 13.6956225,
          "velocity": 0.3937007874015748
        },
        {
          "duration": 0.1304344999999998,
          "durationTicks": 192,
          "midi": 56,
          "name": "G#3",
          "ticks": 20160,
          "time": 13.6956225,
          "velocity": 0.3937007874015748
        },
        {
          "duration": 0.26086900000000135,
          "durationTicks": 384,
          "midi": 64,
          "name": "E4",
          "ticks": 20352,
          "time": 13.826057,
          "velocity": 0.3937007874015748
        },
        {
          "duration": 0.26086900000000135,
          "durationTicks": 384,
          "midi": 44,
          "name": "G#2",
          "ticks": 20352,
          "time": 13.826057,
          "velocity": 0.3937007874015748
        },
        {
          "duration": 0.26086900000000135,
          "durationTicks": 384,
          "midi": 56,
          "name": "G#3",
          "ticks": 20352,
          "time": 13.826057,
          "velocity": 0.3937007874015748
        },
        {
          "duration": 0.26086900000000135,
          "durationTicks": 384,
          "midi": 35,
          "name": "B1",
          "ticks": 20352,
          "time": 13.826057,
          "velocity": 0.3937007874015748
        },
        {
          "duration": 0.26086900000000135,
          "durationTicks": 384,
          "midi": 68,
          "name": "G#4",
          "ticks": 20352,
          "time": 13.826057,
          "velocity": 0.3937007874015748
        },
        {
          "duration": 0.39130349999999936,
          "durationTicks": 576,
          "midi": 64,
          "name": "E4",
          "ticks": 20736,
          "time": 14.086926000000002,
          "velocity": 0.3937007874015748
        },
        {
          "duration": 0.1304344999999998,
          "durationTicks": 192,
          "midi": 28,
          "name": "E1",
          "ticks": 20736,
          "time": 14.086926000000002,
          "velocity": 0.3937007874015748
        },
        {
          "duration": 0.39130349999999936,
          "durationTicks": 576,
          "midi": 69,
          "name": "A4",
          "ticks": 20736,
          "time": 14.086926000000002,
          "velocity": 0.3937007874015748
        },
        {
          "duration": 0.1304344999999998,
          "durationTicks": 192,
          "midi": 35,
          "name": "B1",
          "ticks": 20736,
          "time": 14.086926000000002,
          "velocity": 0.3937007874015748
        },
        {
          "duration": 0.39130349999999936,
          "durationTicks": 576,
          "midi": 57,
          "name": "A3",
          "ticks": 20736,
          "time": 14.086926000000002,
          "velocity": 0.3937007874015748
        },
        {
          "duration": 0.1304344999999998,
          "durationTicks": 192,
          "midi": 28,
          "name": "E1",
          "ticks": 20928,
          "time": 14.217360500000002,
          "velocity": 0.3937007874015748
        },
        {
          "duration": 0.1304344999999998,
          "durationTicks": 192,
          "midi": 44,
          "name": "G#2",
          "ticks": 20928,
          "time": 14.217360500000002,
          "velocity": 0.3937007874015748
        },
        {
          "duration": 0.2608689999999996,
          "durationTicks": 384,
          "midi": 44,
          "name": "G#2",
          "ticks": 21120,
          "time": 14.347795000000001,
          "velocity": 0.3937007874015748
        },
        {
          "duration": 0.2608689999999996,
          "durationTicks": 384,
          "midi": 35,
          "name": "B1",
          "ticks": 21120,
          "time": 14.347795000000001,
          "velocity": 0.3937007874015748
        },
        {
          "duration": 0.2608689999999996,
          "durationTicks": 384,
          "midi": 73,
          "name": "C#5",
          "ticks": 21504,
          "time": 14.608664000000001,
          "velocity": 0.3937007874015748
        },
        {
          "duration": 0.2608689999999996,
          "durationTicks": 384,
          "midi": 61,
          "name": "C#4",
          "ticks": 21504,
          "time": 14.608664000000001,
          "velocity": 0.3937007874015748
        },
        {
          "duration": 0.2608689999999996,
          "durationTicks": 384,
          "midi": 66,
          "name": "F#4",
          "ticks": 21504,
          "time": 14.608664000000001,
          "velocity": 0.3937007874015748
        },
        {
          "duration": 0.2608689999999996,
          "durationTicks": 384,
          "midi": 26,
          "name": "D1",
          "ticks": 21504,
          "time": 14.608664000000001,
          "velocity": 0.3937007874015748
        },
        {
          "duration": 0.2608689999999996,
          "durationTicks": 384,
          "midi": 62,
          "name": "D4",
          "ticks": 21888,
          "time": 14.869533,
          "velocity": 0.3937007874015748
        },
        {
          "duration": 0.2608689999999996,
          "durationTicks": 384,
          "midi": 57,
          "name": "A3",
          "ticks": 21888,
          "time": 14.869533,
          "velocity": 0.3937007874015748
        },
        {
          "duration": 0.2608689999999996,
          "durationTicks": 384,
          "midi": 69,
          "name": "A4",
          "ticks": 21888,
          "time": 14.869533,
          "velocity": 0.3937007874015748
        },
        {
          "duration": 0.2608689999999996,
          "durationTicks": 384,
          "midi": 33,
          "name": "A1",
          "ticks": 21888,
          "time": 14.869533,
          "velocity": 0.3937007874015748
        },
        {
          "duration": 0.2608689999999996,
          "durationTicks": 384,
          "midi": 42,
          "name": "F#2",
          "ticks": 21888,
          "time": 14.869533,
          "velocity": 0.3937007874015748
        },
        {
          "duration": 0.13043450000000156,
          "durationTicks": 192,
          "midi": 62,
          "name": "D4",
          "ticks": 22272,
          "time": 15.130402,
          "velocity": 0.3937007874015748
        },
        {
          "duration": 0.13043450000000156,
          "durationTicks": 192,
          "midi": 56,
          "name": "G#3",
          "ticks": 22272,
          "time": 15.130402,
          "velocity": 0.3937007874015748
        },
        {
          "duration": 0.13043450000000156,
          "durationTicks": 192,
          "midi": 26,
          "name": "D1",
          "ticks": 22272,
          "time": 15.130402,
          "velocity": 0.3937007874015748
        },
        {
          "duration": 0.13043450000000156,
          "durationTicks": 192,
          "midi": 33,
          "name": "A1",
          "ticks": 22272,
          "time": 15.130402,
          "velocity": 0.3937007874015748
        },
        {
          "duration": 0.13043450000000156,
          "durationTicks": 192,
          "midi": 68,
          "name": "G#4",
          "ticks": 22272,
          "time": 15.130402,
          "velocity": 0.3937007874015748
        },
        {
          "duration": 0.2608689999999996,
          "durationTicks": 384,
          "midi": 62,
          "name": "D4",
          "ticks": 22464,
          "time": 15.260836500000002,
          "velocity": 0.3937007874015748
        },
        {
          "duration": 0.2608689999999996,
          "durationTicks": 384,
          "midi": 56,
          "name": "G#3",
          "ticks": 22464,
          "time": 15.260836500000002,
          "velocity": 0.3937007874015748
        },
        {
          "duration": 0.1304344999999998,
          "durationTicks": 192,
          "midi": 42,
          "name": "F#2",
          "ticks": 22464,
          "time": 15.260836500000002,
          "velocity": 0.3937007874015748
        },
        {
          "duration": 0.1304344999999998,
          "durationTicks": 192,
          "midi": 26,
          "name": "D1",
          "ticks": 22464,
          "time": 15.260836500000002,
          "velocity": 0.3937007874015748
        },
        {
          "duration": 0.2608689999999996,
          "durationTicks": 384,
          "midi": 68,
          "name": "G#4",
          "ticks": 22464,
          "time": 15.260836500000002,
          "velocity": 0.3937007874015748
        },
        {
          "duration": 0.2608689999999996,
          "durationTicks": 384,
          "midi": 42,
          "name": "F#2",
          "ticks": 22656,
          "time": 15.391271000000001,
          "velocity": 0.3937007874015748
        },
        {
          "duration": 0.2608689999999996,
          "durationTicks": 384,
          "midi": 33,
          "name": "A1",
          "ticks": 22656,
          "time": 15.391271000000001,
          "velocity": 0.3937007874015748
        },
        {
          "duration": 0.2608689999999996,
          "durationTicks": 384,
          "midi": 52,
          "name": "E3",
          "ticks": 22848,
          "time": 15.521705500000001,
          "velocity": 0.3937007874015748
        },
        {
          "duration": 0.2608689999999996,
          "durationTicks": 384,
          "midi": 57,
          "name": "A3",
          "ticks": 22848,
          "time": 15.521705500000001,
          "velocity": 0.3937007874015748
        },
        {
          "duration": 0.2608689999999996,
          "durationTicks": 384,
          "midi": 64,
          "name": "E4",
          "ticks": 22848,
          "time": 15.521705500000001,
          "velocity": 0.3937007874015748
        },
        {
          "duration": 0.2608689999999996,
          "durationTicks": 384,
          "midi": 26,
          "name": "D1",
          "ticks": 23040,
          "time": 15.652140000000001,
          "velocity": 0.3937007874015748
        },
        {
          "duration": 0.2608689999999996,
          "durationTicks": 384,
          "midi": 38,
          "name": "D2",
          "ticks": 23040,
          "time": 15.652140000000001,
          "velocity": 0.3937007874015748
        },
        {
          "duration": 0.1304344999999998,
          "durationTicks": 192,
          "midi": 57,
          "name": "A3",
          "ticks": 23232,
          "time": 15.7825745,
          "velocity": 0.3937007874015748
        },
        {
          "duration": 0.1304344999999998,
          "durationTicks": 192,
          "midi": 52,
          "name": "E3",
          "ticks": 23232,
          "time": 15.7825745,
          "velocity": 0.3937007874015748
        },
        {
          "duration": 0.1304344999999998,
          "durationTicks": 192,
          "midi": 64,
          "name": "E4",
          "ticks": 23232,
          "time": 15.7825745,
          "velocity": 0.3937007874015748
        },
        {
          "duration": 0.26086900000000135,
          "durationTicks": 384,
          "midi": 64,
          "name": "E4",
          "ticks": 23424,
          "time": 15.913009,
          "velocity": 0.3937007874015748
        },
        {
          "duration": 0.26086900000000135,
          "durationTicks": 384,
          "midi": 42,
          "name": "F#2",
          "ticks": 23424,
          "time": 15.913009,
          "velocity": 0.3937007874015748
        },
        {
          "duration": 0.26086900000000135,
          "durationTicks": 384,
          "midi": 57,
          "name": "A3",
          "ticks": 23424,
          "time": 15.913009,
          "velocity": 0.3937007874015748
        },
        {
          "duration": 0.26086900000000135,
          "durationTicks": 384,
          "midi": 33,
          "name": "A1",
          "ticks": 23424,
          "time": 15.913009,
          "velocity": 0.3937007874015748
        },
        {
          "duration": 0.26086900000000135,
          "durationTicks": 384,
          "midi": 52,
          "name": "E3",
          "ticks": 23424,
          "time": 15.913009,
          "velocity": 0.3937007874015748
        },
        {
          "duration": 0.39130349999999936,
          "durationTicks": 576,
          "midi": 66,
          "name": "F#4",
          "ticks": 23808,
          "time": 16.173878000000002,
          "velocity": 0.3937007874015748
        },
        {
          "duration": 0.39130349999999936,
          "durationTicks": 576,
          "midi": 62,
          "name": "D4",
          "ticks": 23808,
          "time": 16.173878000000002,
          "velocity": 0.3937007874015748
        },
        {
          "duration": 0.1304344999999998,
          "durationTicks": 192,
          "midi": 33,
          "name": "A1",
          "ticks": 23808,
          "time": 16.173878000000002,
          "velocity": 0.3937007874015748
        },
        {
          "duration": 0.1304344999999998,
          "durationTicks": 192,
          "midi": 26,
          "name": "D1",
          "ticks": 23808,
          "time": 16.173878000000002,
          "velocity": 0.3937007874015748
        },
        {
          "duration": 0.39130349999999936,
          "durationTicks": 576,
          "midi": 54,
          "name": "F#3",
          "ticks": 23808,
          "time": 16.173878000000002,
          "velocity": 0.3937007874015748
        },
        {
          "duration": 0.1304344999999998,
          "durationTicks": 192,
          "midi": 42,
          "name": "F#2",
          "ticks": 24000,
          "time": 16.3043125,
          "velocity": 0.3937007874015748
        },
        {
          "duration": 0.1304344999999998,
          "durationTicks": 192,
          "midi": 26,
          "name": "D1",
          "ticks": 24000,
          "time": 16.3043125,
          "velocity": 0.3937007874015748
        },
        {
          "duration": 0.2608689999999996,
          "durationTicks": 384,
          "midi": 33,
          "name": "A1",
          "ticks": 24192,
          "time": 16.434747,
          "velocity": 0.3937007874015748
        },
        {
          "duration": 0.2608689999999996,
          "durationTicks": 384,
          "midi": 42,
          "name": "F#2",
          "ticks": 24192,
          "time": 16.434747,
          "velocity": 0.3937007874015748
        },
        {
          "duration": 0.2608689999999996,
          "durationTicks": 384,
          "midi": 29,
          "name": "F1",
          "ticks": 24576,
          "time": 16.695616,
          "velocity": 0.3937007874015748
        },
        {
          "duration": 0.1304344999999998,
          "durationTicks": 192,
          "midi": 59,
          "name": "B3",
          "ticks": 24576,
          "time": 16.695616,
          "velocity": 0.3937007874015748
        },
        {
          "duration": 0.1304344999999998,
          "durationTicks": 192,
          "midi": 52,
          "name": "E3",
          "ticks": 24576,
          "time": 16.695616,
          "velocity": 0.3937007874015748
        },
        {
          "duration": 0.1304344999999998,
          "durationTicks": 192,
          "midi": 64,
          "name": "E4",
          "ticks": 24576,
          "time": 16.695616,
          "velocity": 0.3937007874015748
        },
        {
          "duration": 0.1304344999999998,
          "durationTicks": 192,
          "midi": 64,
          "name": "E4",
          "ticks": 24768,
          "time": 16.8260505,
          "velocity": 0.3937007874015748
        },
        {
          "duration": 0.1304344999999998,
          "durationTicks": 192,
          "midi": 52,
          "name": "E3",
          "ticks": 24768,
          "time": 16.8260505,
          "velocity": 0.3937007874015748
        },
        {
          "duration": 0.1304344999999998,
          "durationTicks": 192,
          "midi": 59,
          "name": "B3",
          "ticks": 24768,
          "time": 16.8260505,
          "velocity": 0.3937007874015748
        },
        {
          "duration": 0.1304344999999998,
          "durationTicks": 192,
          "midi": 64,
          "name": "E4",
          "ticks": 24960,
          "time": 16.956485,
          "velocity": 0.3937007874015748
        },
        {
          "duration": 0.2608689999999996,
          "durationTicks": 384,
          "midi": 41,
          "name": "F2",
          "ticks": 24960,
          "time": 16.956485,
          "velocity": 0.3937007874015748
        },
        {
          "duration": 0.1304344999999998,
          "durationTicks": 192,
          "midi": 59,
          "name": "B3",
          "ticks": 24960,
          "time": 16.956485,
          "velocity": 0.3937007874015748
        },
        {
          "duration": 0.1304344999999998,
          "durationTicks": 192,
          "midi": 52,
          "name": "E3",
          "ticks": 24960,
          "time": 16.956485,
          "velocity": 0.3937007874015748
        },
        {
          "duration": 0.2608689999999996,
          "durationTicks": 384,
          "midi": 32,
          "name": "G#1",
          "ticks": 24960,
          "time": 16.956485,
          "velocity": 0.3937007874015748
        },
        {
          "duration": 0.1304344999999998,
          "durationTicks": 192,
          "midi": 52,
          "name": "E3",
          "ticks": 25152,
          "time": 17.0869195,
          "velocity": 0.3937007874015748
        },
        {
          "duration": 0.1304344999999998,
          "durationTicks": 192,
          "midi": 59,
          "name": "B3",
          "ticks": 25152,
          "time": 17.0869195,
          "velocity": 0.3937007874015748
        },
        {
          "duration": 0.1304344999999998,
          "durationTicks": 192,
          "midi": 64,
          "name": "E4",
          "ticks": 25152,
          "time": 17.0869195,
          "velocity": 0.3937007874015748
        },
        {
          "duration": 0.1304344999999998,
          "durationTicks": 192,
          "midi": 64,
          "name": "E4",
          "ticks": 25344,
          "time": 17.217354,
          "velocity": 0.3937007874015748
        },
        {
          "duration": 0.1304344999999998,
          "durationTicks": 192,
          "midi": 59,
          "name": "B3",
          "ticks": 25344,
          "time": 17.217354,
          "velocity": 0.3937007874015748
        },
        {
          "duration": 0.1304344999999998,
          "durationTicks": 192,
          "midi": 52,
          "name": "E3",
          "ticks": 25344,
          "time": 17.217354,
          "velocity": 0.3937007874015748
        },
        {
          "duration": 0.1304344999999998,
          "durationTicks": 192,
          "midi": 35,
          "name": "B1",
          "ticks": 25344,
          "time": 17.217354,
          "velocity": 0.3937007874015748
        },
        {
          "duration": 0.1304344999999998,
          "durationTicks": 192,
          "midi": 29,
          "name": "F1",
          "ticks": 25344,
          "time": 17.217354,
          "velocity": 0.3937007874015748
        },
        {
          "duration": 0.1304344999999998,
          "durationTicks": 192,
          "midi": 64,
          "name": "E4",
          "ticks": 25536,
          "time": 17.3477885,
          "velocity": 0.3937007874015748
        },
        {
          "duration": 0.1304344999999998,
          "durationTicks": 192,
          "midi": 41,
          "name": "F2",
          "ticks": 25536,
          "time": 17.3477885,
          "velocity": 0.3937007874015748
        },
        {
          "duration": 0.1304344999999998,
          "durationTicks": 192,
          "midi": 52,
          "name": "E3",
          "ticks": 25536,
          "time": 17.3477885,
          "velocity": 0.3937007874015748
        },
        {
          "duration": 0.1304344999999998,
          "durationTicks": 192,
          "midi": 59,
          "name": "B3",
          "ticks": 25536,
          "time": 17.3477885,
          "velocity": 0.3937007874015748
        },
        {
          "duration": 0.1304344999999998,
          "durationTicks": 192,
          "midi": 29,
          "name": "F1",
          "ticks": 25536,
          "time": 17.3477885,
          "velocity": 0.3937007874015748
        },
        {
          "duration": 0.2608689999999996,
          "durationTicks": 384,
          "midi": 35,
          "name": "B1",
          "ticks": 25728,
          "time": 17.478223,
          "velocity": 0.3937007874015748
        },
        {
          "duration": 0.1304344999999998,
          "durationTicks": 192,
          "midi": 59,
          "name": "B3",
          "ticks": 25728,
          "time": 17.478223,
          "velocity": 0.3937007874015748
        },
        {
          "duration": 0.2608689999999996,
          "durationTicks": 384,
          "midi": 44,
          "name": "G#2",
          "ticks": 25728,
          "time": 17.478223,
          "velocity": 0.3937007874015748
        },
        {
          "duration": 0.1304344999999998,
          "durationTicks": 192,
          "midi": 52,
          "name": "E3",
          "ticks": 25728,
          "time": 17.478223,
          "velocity": 0.3937007874015748
        },
        {
          "duration": 0.1304344999999998,
          "durationTicks": 192,
          "midi": 64,
          "name": "E4",
          "ticks": 25728,
          "time": 17.478223,
          "velocity": 0.3937007874015748
        },
        {
          "duration": 0.1304344999999998,
          "durationTicks": 192,
          "midi": 64,
          "name": "E4",
          "ticks": 25920,
          "time": 17.6086575,
          "velocity": 0.3937007874015748
        },
        {
          "duration": 0.1304344999999998,
          "durationTicks": 192,
          "midi": 59,
          "name": "B3",
          "ticks": 25920,
          "time": 17.6086575,
          "velocity": 0.3937007874015748
        },
        {
          "duration": 0.1304344999999998,
          "durationTicks": 192,
          "midi": 52,
          "name": "E3",
          "ticks": 25920,
          "time": 17.6086575,
          "velocity": 0.3937007874015748
        },
        {
          "duration": 0.2608690000000031,
          "durationTicks": 384,
          "midi": 41,
          "name": "F2",
          "ticks": 26112,
          "time": 17.739092,
          "velocity": 0.3937007874015748
        },
        {
          "duration": 0.2608690000000031,
          "durationTicks": 384,
          "midi": 29,
          "name": "F1",
          "ticks": 26112,
          "time": 17.739092,
          "velocity": 0.3937007874015748
        },
        {
          "duration": 0.13043450000000334,
          "durationTicks": 192,
          "midi": 59,
          "name": "B3",
          "ticks": 26112,
          "time": 17.739092,
          "velocity": 0.3937007874015748
        },
        {
          "duration": 0.13043450000000334,
          "durationTicks": 192,
          "midi": 52,
          "name": "E3",
          "ticks": 26112,
          "time": 17.739092,
          "velocity": 0.3937007874015748
        },
        {
          "duration": 0.13043450000000334,
          "durationTicks": 192,
          "midi": 64,
          "name": "E4",
          "ticks": 26112,
          "time": 17.739092,
          "velocity": 0.3937007874015748
        },
        {
          "duration": 0.2608689999999996,
          "durationTicks": 384,
          "midi": 54,
          "name": "F#3",
          "ticks": 26304,
          "time": 17.869526500000003,
          "velocity": 0.3937007874015748
        },
        {
          "duration": 0.2608689999999996,
          "durationTicks": 384,
          "midi": 59,
          "name": "B3",
          "ticks": 26304,
          "time": 17.869526500000003,
          "velocity": 0.3937007874015748
        },
        {
          "duration": 0.2608689999999996,
          "durationTicks": 384,
          "midi": 66,
          "name": "F#4",
          "ticks": 26304,
          "time": 17.869526500000003,
          "velocity": 0.3937007874015748
        },
        {
          "duration": 0.2608689999999996,
          "durationTicks": 384,
          "midi": 32,
          "name": "G#1",
          "ticks": 26496,
          "time": 17.999961000000003,
          "velocity": 0.3937007874015748
        },
        {
          "duration": 0.2608689999999996,
          "durationTicks": 384,
          "midi": 41,
          "name": "F2",
          "ticks": 26496,
          "time": 17.999961000000003,
          "velocity": 0.3937007874015748
        },
        {
          "duration": 0.5217379999999991,
          "durationTicks": 768,
          "midi": 59,
          "name": "B3",
          "ticks": 26688,
          "time": 18.130395500000002,
          "velocity": 0.3937007874015748
        },
        {
          "duration": 0.5217379999999991,
          "durationTicks": 768,
          "midi": 66,
          "name": "F#4",
          "ticks": 26688,
          "time": 18.130395500000002,
          "velocity": 0.3937007874015748
        },
        {
          "duration": 0.5217379999999991,
          "durationTicks": 768,
          "midi": 54,
          "name": "F#3",
          "ticks": 26688,
          "time": 18.130395500000002,
          "velocity": 0.3937007874015748
        },
        {
          "duration": 0.5217379999999991,
          "durationTicks": 768,
          "midi": 56,
          "name": "G#3",
          "ticks": 26688,
          "time": 18.130395500000002,
          "velocity": 0.3937007874015748
        },
        {
          "duration": 0.1304344999999998,
          "durationTicks": 192,
          "midi": 29,
          "name": "F1",
          "ticks": 26880,
          "time": 18.260830000000002,
          "velocity": 0.3937007874015748
        },
        {
          "duration": 0.1304344999999998,
          "durationTicks": 192,
          "midi": 35,
          "name": "B1",
          "ticks": 26880,
          "time": 18.260830000000002,
          "velocity": 0.3937007874015748
        },
        {
          "duration": 0.1304344999999998,
          "durationTicks": 192,
          "midi": 29,
          "name": "F1",
          "ticks": 27072,
          "time": 18.391264500000002,
          "velocity": 0.3937007874015748
        },
        {
          "duration": 0.1304344999999998,
          "durationTicks": 192,
          "midi": 41,
          "name": "F2",
          "ticks": 27072,
          "time": 18.391264500000002,
          "velocity": 0.3937007874015748
        },
        {
          "duration": 0.0652172499999999,
          "durationTicks": 96,
          "midi": 42,
          "name": "F#2",
          "ticks": 27264,
          "time": 18.521699,
          "velocity": 0.3937007874015748
        },
        {
          "duration": 0.0652172499999999,
          "durationTicks": 96,
          "midi": 40,
          "name": "E2",
          "ticks": 27360,
          "time": 18.58691625,
          "velocity": 0.3937007874015748
        },
        {
          "duration": 0.0652172499999999,
          "durationTicks": 96,
          "midi": 38,
          "name": "D2",
          "ticks": 27456,
          "time": 18.6521335,
          "velocity": 0.3937007874015748
        },
        {
          "duration": 0.0652172499999999,
          "durationTicks": 96,
          "midi": 37,
          "name": "C#2",
          "ticks": 27552,
          "time": 18.71735075,
          "velocity": 0.3937007874015748
        },
        {
          "duration": 0.2608689999999996,
          "durationTicks": 384,
          "midi": 61,
          "name": "C#4",
          "ticks": 27648,
          "time": 18.782568,
          "velocity": 0.3937007874015748
        },
        {
          "duration": 0.39130349999999936,
          "durationTicks": 576,
          "midi": 42,
          "name": "F#2",
          "ticks": 27648,
          "time": 18.782568,
          "velocity": 0.3937007874015748
        },
        {
          "duration": 0.6521724999999989,
          "durationTicks": 960,
          "midi": 30,
          "name": "F#1",
          "ticks": 27648,
          "time": 18.782568,
          "velocity": 0.3937007874015748
        },
        {
          "duration": 0.2608689999999996,
          "durationTicks": 384,
          "midi": 49,
          "name": "C#3",
          "ticks": 27648,
          "time": 18.782568,
          "velocity": 0.3937007874015748
        },
        {
          "duration": 0.1304344999999998,
          "durationTicks": 192,
          "midi": 37,
          "name": "C#2",
          "ticks": 27840,
          "time": 18.9130025,
          "velocity": 0.3937007874015748
        },
        {
          "duration": 0.1304344999999998,
          "durationTicks": 192,
          "midi": 61,
          "name": "C#4",
          "ticks": 28032,
          "time": 19.043437,
          "velocity": 0.3937007874015748
        },
        {
          "duration": 0.6521724999999989,
          "durationTicks": 960,
          "midi": 42,
          "name": "F#2",
          "ticks": 28032,
          "time": 19.043437,
          "velocity": 0.3937007874015748
        },
        {
          "duration": 0.1304344999999998,
          "durationTicks": 192,
          "midi": 49,
          "name": "C#3",
          "ticks": 28032,
          "time": 19.043437,
          "velocity": 0.3937007874015748
        },
        {
          "duration": 0.1304344999999998,
          "durationTicks": 192,
          "midi": 49,
          "name": "C#3",
          "ticks": 28224,
          "time": 19.1738715,
          "velocity": 0.3937007874015748
        },
        {
          "duration": 0.1304344999999998,
          "durationTicks": 192,
          "midi": 61,
          "name": "C#4",
          "ticks": 28224,
          "time": 19.1738715,
          "velocity": 0.3937007874015748
        },
        {
          "duration": 0.1304344999999998,
          "durationTicks": 192,
          "midi": 37,
          "name": "C#2",
          "ticks": 28224,
          "time": 19.1738715,
          "velocity": 0.3937007874015748
        },
        {
          "duration": 0.5217380000000027,
          "durationTicks": 768,
          "midi": 30,
          "name": "F#1",
          "ticks": 28416,
          "time": 19.304306,
          "velocity": 0.3937007874015748
        },
        {
          "duration": 0.1304344999999998,
          "durationTicks": 192,
          "midi": 61,
          "name": "C#4",
          "ticks": 28416,
          "time": 19.304306,
          "velocity": 0.3937007874015748
        },
        {
          "duration": 0.1304344999999998,
          "durationTicks": 192,
          "midi": 49,
          "name": "C#3",
          "ticks": 28416,
          "time": 19.304306,
          "velocity": 0.3937007874015748
        },
        {
          "duration": 0.1304344999999998,
          "durationTicks": 192,
          "midi": 61,
          "name": "C#4",
          "ticks": 28608,
          "time": 19.4347405,
          "velocity": 0.3937007874015748
        },
        {
          "duration": 0.1304344999999998,
          "durationTicks": 192,
          "midi": 49,
          "name": "C#3",
          "ticks": 28608,
          "time": 19.4347405,
          "velocity": 0.3937007874015748
        },
        {
          "duration": 0.1304344999999998,
          "durationTicks": 192,
          "midi": 37,
          "name": "C#2",
          "ticks": 28608,
          "time": 19.4347405,
          "velocity": 0.3937007874015748
        },
        {
          "duration": 0.1304344999999998,
          "durationTicks": 192,
          "midi": 61,
          "name": "C#4",
          "ticks": 28800,
          "time": 19.565175,
          "velocity": 0.3937007874015748
        },
        {
          "duration": 0.1304344999999998,
          "durationTicks": 192,
          "midi": 49,
          "name": "C#3",
          "ticks": 28800,
          "time": 19.565175,
          "velocity": 0.3937007874015748
        },
        {
          "duration": 0.2608690000000031,
          "durationTicks": 384,
          "midi": 42,
          "name": "F#2",
          "ticks": 28800,
          "time": 19.565175,
          "velocity": 0.3937007874015748
        },
        {
          "duration": 0.13043450000000334,
          "durationTicks": 192,
          "midi": 37,
          "name": "C#2",
          "ticks": 28992,
          "time": 19.6956095,
          "velocity": 0.3937007874015748
        },
        {
          "duration": 0.13043450000000334,
          "durationTicks": 192,
          "midi": 61,
          "name": "C#4",
          "ticks": 28992,
          "time": 19.6956095,
          "velocity": 0.3937007874015748
        },
        {
          "duration": 0.13043450000000334,
          "durationTicks": 192,
          "midi": 49,
          "name": "C#3",
          "ticks": 28992,
          "time": 19.6956095,
          "velocity": 0.3937007874015748
        },
        {
          "duration": 0.1304344999999998,
          "durationTicks": 192,
          "midi": 30,
          "name": "F#1",
          "ticks": 29184,
          "time": 19.826044000000003,
          "velocity": 0.3937007874015748
        },
        {
          "duration": 0.1304344999999998,
          "durationTicks": 192,
          "midi": 61,
          "name": "C#4",
          "ticks": 29184,
          "time": 19.826044000000003,
          "velocity": 0.3937007874015748
        },
        {
          "duration": 0.1304344999999998,
          "durationTicks": 192,
          "midi": 49,
          "name": "C#3",
          "ticks": 29184,
          "time": 19.826044000000003,
          "velocity": 0.3937007874015748
        },
        {
          "duration": 0.1304344999999998,
          "durationTicks": 192,
          "midi": 49,
          "name": "C#3",
          "ticks": 29376,
          "time": 19.956478500000003,
          "velocity": 0.3937007874015748
        },
        {
          "duration": 0.1304344999999998,
          "durationTicks": 192,
          "midi": 61,
          "name": "C#4",
          "ticks": 29376,
          "time": 19.956478500000003,
          "velocity": 0.3937007874015748
        },
        {
          "duration": 0.1304344999999998,
          "durationTicks": 192,
          "midi": 37,
          "name": "C#2",
          "ticks": 29376,
          "time": 19.956478500000003,
          "velocity": 0.3937007874015748
        },
        {
          "duration": 0.1304344999999998,
          "durationTicks": 192,
          "midi": 62,
          "name": "D4",
          "ticks": 29568,
          "time": 20.086913000000003,
          "velocity": 0.3937007874015748
        },
        {
          "duration": 0.1304344999999998,
          "durationTicks": 192,
          "midi": 50,
          "name": "D3",
          "ticks": 29568,
          "time": 20.086913000000003,
          "velocity": 0.3937007874015748
        },
        {
          "duration": 0.1304344999999998,
          "durationTicks": 192,
          "midi": 42,
          "name": "F#2",
          "ticks": 29568,
          "time": 20.086913000000003,
          "velocity": 0.3937007874015748
        },
        {
          "duration": 0.1304344999999998,
          "durationTicks": 192,
          "midi": 62,
          "name": "D4",
          "ticks": 29760,
          "time": 20.217347500000002,
          "velocity": 0.3937007874015748
        },
        {
          "duration": 0.1304344999999998,
          "durationTicks": 192,
          "midi": 37,
          "name": "C#2",
          "ticks": 29760,
          "time": 20.217347500000002,
          "velocity": 0.3937007874015748
        },
        {
          "duration": 0.1304344999999998,
          "durationTicks": 192,
          "midi": 50,
          "name": "D3",
          "ticks": 29760,
          "time": 20.217347500000002,
          "velocity": 0.3937007874015748
        },
        {
          "duration": 0.39130349999999936,
          "durationTicks": 576,
          "midi": 61,
          "name": "C#4",
          "ticks": 29952,
          "time": 20.347782000000002,
          "velocity": 0.3937007874015748
        },
        {
          "duration": 0.39130349999999936,
          "durationTicks": 576,
          "midi": 49,
          "name": "C#3",
          "ticks": 29952,
          "time": 20.347782000000002,
          "velocity": 0.3937007874015748
        },
        {
          "duration": 0.1304344999999998,
          "durationTicks": 192,
          "midi": 30,
          "name": "F#1",
          "ticks": 29952,
          "time": 20.347782000000002,
          "velocity": 0.3937007874015748
        },
        {
          "duration": 0.1304344999999998,
          "durationTicks": 192,
          "midi": 37,
          "name": "C#2",
          "ticks": 30144,
          "time": 20.478216500000002,
          "velocity": 0.3937007874015748
        },
        {
          "duration": 0.1304344999999998,
          "durationTicks": 192,
          "midi": 42,
          "name": "F#2",
          "ticks": 30336,
          "time": 20.608651000000002,
          "velocity": 0.3937007874015748
        },
        {
          "duration": 0.1304344999999998,
          "durationTicks": 192,
          "midi": 37,
          "name": "C#2",
          "ticks": 30528,
          "time": 20.7390855,
          "velocity": 0.3937007874015748
        },
        {
          "duration": 0.1304344999999998,
          "durationTicks": 192,
          "midi": 52,
          "name": "E3",
          "ticks": 30720,
          "time": 20.86952,
          "velocity": 0.3937007874015748
        },
        {
          "duration": 0.39130349999999936,
          "durationTicks": 576,
          "midi": 40,
          "name": "E2",
          "ticks": 30720,
          "time": 20.86952,
          "velocity": 0.3937007874015748
        },
        {
          "duration": 0.6521724999999989,
          "durationTicks": 960,
          "midi": 28,
          "name": "E1",
          "ticks": 30720,
          "time": 20.86952,
          "velocity": 0.3937007874015748
        },
        {
          "duration": 0.1304344999999998,
          "durationTicks": 192,
          "midi": 59,
          "name": "B3",
          "ticks": 30720,
          "time": 20.86952,
          "velocity": 0.3937007874015748
        },
        {
          "duration": 0.1304344999999998,
          "durationTicks": 192,
          "midi": 35,
          "name": "B1",
          "ticks": 30912,
          "time": 20.9999545,
          "velocity": 0.3937007874015748
        },
        {
          "duration": 0.1304344999999998,
          "durationTicks": 192,
          "midi": 59,
          "name": "B3",
          "ticks": 30912,
          "time": 20.9999545,
          "velocity": 0.3937007874015748
        },
        {
          "duration": 0.1304344999999998,
          "durationTicks": 192,
          "midi": 52,
          "name": "E3",
          "ticks": 30912,
          "time": 20.9999545,
          "velocity": 0.3937007874015748
        },
        {
          "duration": 0.2608689999999996,
          "durationTicks": 384,
          "midi": 52,
          "name": "E3",
          "ticks": 31104,
          "time": 21.130389,
          "velocity": 0.3937007874015748
        },
        {
          "duration": 0.6521724999999989,
          "durationTicks": 960,
          "midi": 40,
          "name": "E2",
          "ticks": 31104,
          "time": 21.130389,
          "velocity": 0.3937007874015748
        },
        {
          "duration": 0.2608689999999996,
          "durationTicks": 384,
          "midi": 59,
          "name": "B3",
          "ticks": 31104,
          "time": 21.130389,
          "velocity": 0.3937007874015748
        },
        {
          "duration": 0.1304344999999998,
          "durationTicks": 192,
          "midi": 35,
          "name": "B1",
          "ticks": 31296,
          "time": 21.2608235,
          "velocity": 0.3937007874015748
        },
        {
          "duration": 0.5217379999999991,
          "durationTicks": 768,
          "midi": 28,
          "name": "E1",
          "ticks": 31488,
          "time": 21.391258,
          "velocity": 0.3937007874015748
        },
        {
          "duration": 0.1304344999999998,
          "durationTicks": 192,
          "midi": 59,
          "name": "B3",
          "ticks": 31488,
          "time": 21.391258,
          "velocity": 0.3937007874015748
        },
        {
          "duration": 0.1304344999999998,
          "durationTicks": 192,
          "midi": 52,
          "name": "E3",
          "ticks": 31488,
          "time": 21.391258,
          "velocity": 0.3937007874015748
        },
        {
          "duration": 0.1304344999999998,
          "durationTicks": 192,
          "midi": 35,
          "name": "B1",
          "ticks": 31680,
          "time": 21.5216925,
          "velocity": 0.3937007874015748
        },
        {
          "duration": 0.1304344999999998,
          "durationTicks": 192,
          "midi": 57,
          "name": "A3",
          "ticks": 31680,
          "time": 21.5216925,
          "velocity": 0.3937007874015748
        },
        {
          "duration": 0.1304344999999998,
          "durationTicks": 192,
          "midi": 52,
          "name": "E3",
          "ticks": 31680,
          "time": 21.5216925,
          "velocity": 0.3937007874015748
        },
        {
          "duration": 0.2608689999999996,
          "durationTicks": 384,
          "midi": 40,
          "name": "E2",
          "ticks": 31872,
          "time": 21.652127,
          "velocity": 0.3937007874015748
        },
        {
          "duration": 0.1304344999999998,
          "durationTicks": 192,
          "midi": 57,
          "name": "A3",
          "ticks": 31872,
          "time": 21.652127,
          "velocity": 0.3937007874015748
        },
        {
          "duration": 0.1304344999999998,
          "durationTicks": 192,
          "midi": 52,
          "name": "E3",
          "ticks": 31872,
          "time": 21.652127,
          "velocity": 0.3937007874015748
        },
        {
          "duration": 0.1304344999999998,
          "durationTicks": 192,
          "midi": 35,
          "name": "B1",
          "ticks": 32064,
          "time": 21.7825615,
          "velocity": 0.3937007874015748
        },
        {
          "duration": 0.1304344999999998,
          "durationTicks": 192,
          "midi": 52,
          "name": "E3",
          "ticks": 32064,
          "time": 21.7825615,
          "velocity": 0.3937007874015748
        },
        {
          "duration": 0.1304344999999998,
          "durationTicks": 192,
          "midi": 57,
          "name": "A3",
          "ticks": 32064,
          "time": 21.7825615,
          "velocity": 0.3937007874015748
        },
        {
          "duration": 0.2608690000000031,
          "durationTicks": 384,
          "midi": 56,
          "name": "G#3",
          "ticks": 32256,
          "time": 21.912996,
          "velocity": 0.3937007874015748
        },
        {
          "duration": 0.2608690000000031,
          "durationTicks": 384,
          "midi": 52,
          "name": "E3",
          "ticks": 32256,
          "time": 21.912996,
          "velocity": 0.3937007874015748
        },
        {
          "duration": 0.13043450000000334,
          "durationTicks": 192,
          "midi": 28,
          "name": "E1",
          "ticks": 32256,
          "time": 21.912996,
          "velocity": 0.3937007874015748
        },
        {
          "duration": 0.1304344999999998,
          "durationTicks": 192,
          "midi": 35,
          "name": "B1",
          "ticks": 32448,
          "time": 22.043430500000003,
          "velocity": 0.3937007874015748
        },
        {
          "duration": 0.2608689999999996,
          "durationTicks": 384,
          "midi": 62,
          "name": "D4",
          "ticks": 32640,
          "time": 22.173865000000003,
          "velocity": 0.3937007874015748
        },
        {
          "duration": 0.2608689999999996,
          "durationTicks": 384,
          "midi": 52,
          "name": "E3",
          "ticks": 32640,
          "time": 22.173865000000003,
          "velocity": 0.3937007874015748
        },
        {
          "duration": 0.1304344999999998,
          "durationTicks": 192,
          "midi": 40,
          "name": "E2",
          "ticks": 32640,
          "time": 22.173865000000003,
          "velocity": 0.3937007874015748
        },
        {
          "duration": 0.1304344999999998,
          "durationTicks": 192,
          "midi": 35,
          "name": "B1",
          "ticks": 32832,
          "time": 22.304299500000003,
          "velocity": 0.3937007874015748
        },
        {
          "duration": 0.1304344999999998,
          "durationTicks": 192,
          "midi": 28,
          "name": "E1",
          "ticks": 33024,
          "time": 22.434734000000002,
          "velocity": 0.3937007874015748
        },
        {
          "duration": 0.2608689999999996,
          "durationTicks": 384,
          "midi": 61,
          "name": "C#4",
          "ticks": 33024,
          "time": 22.434734000000002,
          "velocity": 0.3937007874015748
        },
        {
          "duration": 0.2608689999999996,
          "durationTicks": 384,
          "midi": 52,
          "name": "E3",
          "ticks": 33024,
          "time": 22.434734000000002,
          "velocity": 0.3937007874015748
        },
        {
          "duration": 0.1304344999999998,
          "durationTicks": 192,
          "midi": 35,
          "name": "B1",
          "ticks": 33216,
          "time": 22.565168500000002,
          "velocity": 0.3937007874015748
        },
        {
          "duration": 0.1304344999999998,
          "durationTicks": 192,
          "midi": 59,
          "name": "B3",
          "ticks": 33408,
          "time": 22.695603000000002,
          "velocity": 0.3937007874015748
        },
        {
          "duration": 0.1304344999999998,
          "durationTicks": 192,
          "midi": 52,
          "name": "E3",
          "ticks": 33408,
          "time": 22.695603000000002,
          "velocity": 0.3937007874015748
        },
        {
          "duration": 0.1304344999999998,
          "durationTicks": 192,
          "midi": 40,
          "name": "E2",
          "ticks": 33408,
          "time": 22.695603000000002,
          "velocity": 0.3937007874015748
        },
        {
          "duration": 0.1304344999999998,
          "durationTicks": 192,
          "midi": 35,
          "name": "B1",
          "ticks": 33600,
          "time": 22.8260375,
          "velocity": 0.3937007874015748
        },
        {
          "duration": 0.39130349999999936,
          "durationTicks": 576,
          "midi": 38,
          "name": "D2",
          "ticks": 33792,
          "time": 22.956472,
          "velocity": 0.3937007874015748
        },
        {
          "duration": 0.6521724999999989,
          "durationTicks": 960,
          "midi": 26,
          "name": "D1",
          "ticks": 33792,
          "time": 22.956472,
          "velocity": 0.3937007874015748
        },
        {
          "duration": 0.1304344999999998,
          "durationTicks": 192,
          "midi": 33,
          "name": "A1",
          "ticks": 33984,
          "time": 23.0869065,
          "velocity": 0.3937007874015748
        },
        {
          "duration": 0.0652172499999999,
          "durationTicks": 96,
          "midi": 61,
          "name": "C#4",
          "ticks": 34176,
          "time": 23.217341,
          "velocity": 0.3937007874015748
        },
        {
          "duration": 0.2608689999999996,
          "durationTicks": 384,
          "midi": 50,
          "name": "D3",
          "ticks": 34176,
          "time": 23.217341,
          "velocity": 0.3937007874015748
        },
        {
          "duration": 0.6521724999999989,
          "durationTicks": 960,
          "midi": 38,
          "name": "D2",
          "ticks": 34176,
          "time": 23.217341,
          "velocity": 0.3937007874015748
        },
        {
          "duration": 0.19565174999999968,
          "durationTicks": 288,
          "midi": 62,
          "name": "D4",
          "ticks": 34272,
          "time": 23.28255825,
          "velocity": 0.3937007874015748
        },
        {
          "duration": 0.1304344999999998,
          "durationTicks": 192,
          "midi": 33,
          "name": "A1",
          "ticks": 34368,
          "time": 23.3477755,
          "velocity": 0.3937007874015748
        },
        {
          "duration": 0.2608689999999996,
          "durationTicks": 384,
          "midi": 50,
          "name": "D3",
          "ticks": 34560,
          "time": 23.47821,
          "velocity": 0.3937007874015748
        },
        {
          "duration": 0.5217380000000027,
          "durationTicks": 768,
          "midi": 26,
          "name": "D1",
          "ticks": 34560,
          "time": 23.47821,
          "velocity": 0.3937007874015748
        },
        {
          "duration": 0.2608689999999996,
          "durationTicks": 384,
          "midi": 61,
          "name": "C#4",
          "ticks": 34560,
          "time": 23.47821,
          "velocity": 0.3937007874015748
        },
        {
          "duration": 0.1304344999999998,
          "durationTicks": 192,
          "midi": 33,
          "name": "A1",
          "ticks": 34752,
          "time": 23.6086445,
          "velocity": 0.3937007874015748
        },
        {
          "duration": 0.2608690000000031,
          "durationTicks": 384,
          "midi": 38,
          "name": "D2",
          "ticks": 34944,
          "time": 23.739079,
          "velocity": 0.3937007874015748
        },
        {
          "duration": 0.1304344999999998,
          "durationTicks": 192,
          "midi": 50,
          "name": "D3",
          "ticks": 34944,
          "time": 23.739079,
          "velocity": 0.3937007874015748
        },
        {
          "duration": 0.1304344999999998,
          "durationTicks": 192,
          "midi": 59,
          "name": "B3",
          "ticks": 34944,
          "time": 23.739079,
          "velocity": 0.3937007874015748
        },
        {
          "duration": 0.13043450000000334,
          "durationTicks": 192,
          "midi": 50,
          "name": "D3",
          "ticks": 35136,
          "time": 23.8695135,
          "velocity": 0.3937007874015748
        },
        {
          "duration": 0.13043450000000334,
          "durationTicks": 192,
          "midi": 59,
          "name": "B3",
          "ticks": 35136,
          "time": 23.8695135,
          "velocity": 0.3937007874015748
        },
        {
          "duration": 0.13043450000000334,
          "durationTicks": 192,
          "midi": 33,
          "name": "A1",
          "ticks": 35136,
          "time": 23.8695135,
          "velocity": 0.3937007874015748
        },
        {
          "duration": 0.2608689999999996,
          "durationTicks": 384,
          "midi": 61,
          "name": "C#4",
          "ticks": 35328,
          "time": 23.999948000000003,
          "velocity": 0.3937007874015748
        },
        {
          "duration": 0.1304344999999998,
          "durationTicks": 192,
          "midi": 26,
          "name": "D1",
          "ticks": 35328,
          "time": 23.999948000000003,
          "velocity": 0.3937007874015748
        },
        {
          "duration": 0.2608689999999996,
          "durationTicks": 384,
          "midi": 50,
          "name": "D3",
          "ticks": 35328,
          "time": 23.999948000000003,
          "velocity": 0.3937007874015748
        },
        {
          "duration": 0.1304344999999998,
          "durationTicks": 192,
          "midi": 33,
          "name": "A1",
          "ticks": 35520,
          "time": 24.130382500000003,
          "velocity": 0.3937007874015748
        },
        {
          "duration": 0.1304344999999998,
          "durationTicks": 192,
          "midi": 62,
          "name": "D4",
          "ticks": 35712,
          "time": 24.260817000000003,
          "velocity": 0.3937007874015748
        },
        {
          "duration": 0.1304344999999998,
          "durationTicks": 192,
          "midi": 38,
          "name": "D2",
          "ticks": 35712,
          "time": 24.260817000000003,
          "velocity": 0.3937007874015748
        },
        {
          "duration": 0.1304344999999998,
          "durationTicks": 192,
          "midi": 50,
          "name": "D3",
          "ticks": 35712,
          "time": 24.260817000000003,
          "velocity": 0.3937007874015748
        },
        {
          "duration": 0.1304344999999998,
          "durationTicks": 192,
          "midi": 50,
          "name": "D3",
          "ticks": 35904,
          "time": 24.391251500000003,
          "velocity": 0.3937007874015748
        },
        {
          "duration": 0.1304344999999998,
          "durationTicks": 192,
          "midi": 33,
          "name": "A1",
          "ticks": 35904,
          "time": 24.391251500000003,
          "velocity": 0.3937007874015748
        },
        {
          "duration": 0.1304344999999998,
          "durationTicks": 192,
          "midi": 62,
          "name": "D4",
          "ticks": 35904,
          "time": 24.391251500000003,
          "velocity": 0.3937007874015748
        },
        {
          "duration": 0.1304344999999998,
          "durationTicks": 192,
          "midi": 50,
          "name": "D3",
          "ticks": 36096,
          "time": 24.521686000000003,
          "velocity": 0.3937007874015748
        },
        {
          "duration": 0.1304344999999998,
          "durationTicks": 192,
          "midi": 26,
          "name": "D1",
          "ticks": 36096,
          "time": 24.521686000000003,
          "velocity": 0.3937007874015748
        },
        {
          "duration": 0.1304344999999998,
          "durationTicks": 192,
          "midi": 61,
          "name": "C#4",
          "ticks": 36096,
          "time": 24.521686000000003,
          "velocity": 0.3937007874015748
        },
        {
          "duration": 0.1304344999999998,
          "durationTicks": 192,
          "midi": 61,
          "name": "C#4",
          "ticks": 36288,
          "time": 24.652120500000002,
          "velocity": 0.3937007874015748
        },
        {
          "duration": 0.1304344999999998,
          "durationTicks": 192,
          "midi": 50,
          "name": "D3",
          "ticks": 36288,
          "time": 24.652120500000002,
          "velocity": 0.3937007874015748
        },
        {
          "duration": 0.1304344999999998,
          "durationTicks": 192,
          "midi": 33,
          "name": "A1",
          "ticks": 36288,
          "time": 24.652120500000002,
          "velocity": 0.3937007874015748
        },
        {
          "duration": 0.2608689999999996,
          "durationTicks": 384,
          "midi": 50,
          "name": "D3",
          "ticks": 36480,
          "time": 24.782555000000002,
          "velocity": 0.3937007874015748
        },
        {
          "duration": 0.2608689999999996,
          "durationTicks": 384,
          "midi": 57,
          "name": "A3",
          "ticks": 36480,
          "time": 24.782555000000002,
          "velocity": 0.3937007874015748
        },
        {
          "duration": 0.1304344999999998,
          "durationTicks": 192,
          "midi": 38,
          "name": "D2",
          "ticks": 36480,
          "time": 24.782555000000002,
          "velocity": 0.3937007874015748
        },
        {
          "duration": 0.1304344999999998,
          "durationTicks": 192,
          "midi": 33,
          "name": "A1",
          "ticks": 36672,
          "time": 24.912989500000002,
          "velocity": 0.3937007874015748
        },
        {
          "duration": 0.39130349999999936,
          "durationTicks": 576,
          "midi": 53,
          "name": "F3",
          "ticks": 36864,
          "time": 25.043424,
          "velocity": 0.3937007874015748
        },
        {
          "duration": 0.39130349999999936,
          "durationTicks": 576,
          "midi": 59,
          "name": "B3",
          "ticks": 36864,
          "time": 25.043424,
          "velocity": 0.3937007874015748
        },
        {
          "duration": 0.6521724999999989,
          "durationTicks": 960,
          "midi": 29,
          "name": "F1",
          "ticks": 36864,
          "time": 25.043424,
          "velocity": 0.3937007874015748
        },
        {
          "duration": 0.39130349999999936,
          "durationTicks": 576,
          "midi": 41,
          "name": "F2",
          "ticks": 36864,
          "time": 25.043424,
          "velocity": 0.3937007874015748
        },
        {
          "duration": 0.1304344999999998,
          "durationTicks": 192,
          "midi": 35,
          "name": "B1",
          "ticks": 37056,
          "time": 25.1738585,
          "velocity": 0.3937007874015748
        },
        {
          "duration": 0.6521724999999989,
          "durationTicks": 960,
          "midi": 41,
          "name": "F2",
          "ticks": 37248,
          "time": 25.304293,
          "velocity": 0.3937007874015748
        },
        {
          "duration": 0.1304344999999998,
          "durationTicks": 192,
          "midi": 32,
          "name": "G#1",
          "ticks": 37440,
          "time": 25.4347275,
          "velocity": 0.3937007874015748
        },
        {
          "duration": 0.1304344999999998,
          "durationTicks": 192,
          "midi": 47,
          "name": "B2",
          "ticks": 37440,
          "time": 25.4347275,
          "velocity": 0.3937007874015748
        },
        {
          "duration": 0.1304344999999998,
          "durationTicks": 192,
          "midi": 57,
          "name": "A3",
          "ticks": 37440,
          "time": 25.4347275,
          "velocity": 0.3937007874015748
        },
        {
          "duration": 0.5217379999999991,
          "durationTicks": 768,
          "midi": 29,
          "name": "F1",
          "ticks": 37632,
          "time": 25.565162,
          "velocity": 0.3937007874015748
        },
        {
          "duration": 1.3043450000000014,
          "durationTicks": 1920,
          "midi": 56,
          "name": "G#3",
          "ticks": 37632,
          "time": 25.565162,
          "velocity": 0.3937007874015748
        },
        {
          "duration": 1.3043450000000014,
          "durationTicks": 1920,
          "midi": 47,
          "name": "B2",
          "ticks": 37632,
          "time": 25.565162,
          "velocity": 0.3937007874015748
        },
        {
          "duration": 0.1304344999999998,
          "durationTicks": 192,
          "midi": 35,
          "name": "B1",
          "ticks": 37824,
          "time": 25.6955965,
          "velocity": 0.3937007874015748
        },
        {
          "duration": 0.2608689999999996,
          "durationTicks": 384,
          "midi": 41,
          "name": "F2",
          "ticks": 38016,
          "time": 25.826031,
          "velocity": 0.3937007874015748
        },
        {
          "duration": 0.1304344999999998,
          "durationTicks": 192,
          "midi": 32,
          "name": "G#1",
          "ticks": 38208,
          "time": 25.9564655,
          "velocity": 0.3937007874015748
        },
        {
          "duration": 0.13043450000000334,
          "durationTicks": 192,
          "midi": 29,
          "name": "F1",
          "ticks": 38400,
          "time": 26.0869,
          "velocity": 0.3937007874015748
        },
        {
          "duration": 0.1304344999999998,
          "durationTicks": 192,
          "midi": 35,
          "name": "B1",
          "ticks": 38592,
          "time": 26.217334500000003,
          "velocity": 0.3937007874015748
        },
        {
          "duration": 0.1304344999999998,
          "durationTicks": 192,
          "midi": 41,
          "name": "F2",
          "ticks": 38784,
          "time": 26.347769000000003,
          "velocity": 0.3937007874015748
        },
        {
          "duration": 0.1304344999999998,
          "durationTicks": 192,
          "midi": 32,
          "name": "G#1",
          "ticks": 38976,
          "time": 26.478203500000003,
          "velocity": 0.3937007874015748
        },
        {
          "duration": 0.1304344999999998,
          "durationTicks": 192,
          "midi": 29,
          "name": "F1",
          "ticks": 39168,
          "time": 26.608638000000003,
          "velocity": 0.3937007874015748
        },
        {
          "duration": 0.1304344999999998,
          "durationTicks": 192,
          "midi": 35,
          "name": "B1",
          "ticks": 39360,
          "time": 26.739072500000002,
          "velocity": 0.3937007874015748
        },
        {
          "duration": 0.1304344999999998,
          "durationTicks": 192,
          "midi": 41,
          "name": "F2",
          "ticks": 39552,
          "time": 26.869507000000002,
          "velocity": 0.3937007874015748
        },
        {
          "duration": 0.1304344999999998,
          "durationTicks": 192,
          "midi": 32,
          "name": "G#1",
          "ticks": 39744,
          "time": 26.999941500000002,
          "velocity": 0.3937007874015748
        },
        {
          "duration": 0.1304344999999998,
          "durationTicks": 192,
          "midi": 61,
          "name": "C#4",
          "ticks": 39936,
          "time": 27.130376000000002,
          "velocity": 0.3937007874015748
        },
        {
          "duration": 0.1304344999999998,
          "durationTicks": 192,
          "midi": 73,
          "name": "C#5",
          "ticks": 39936,
          "time": 27.130376000000002,
          "velocity": 0.3937007874015748
        },
        {
          "duration": 0.6521724999999989,
          "durationTicks": 960,
          "midi": 30,
          "name": "F#1",
          "ticks": 39936,
          "time": 27.130376000000002,
          "velocity": 0.3937007874015748
        },
        {
          "duration": 0.2608689999999996,
          "durationTicks": 384,
          "midi": 37,
          "name": "C#2",
          "ticks": 39936,
          "time": 27.130376000000002,
          "velocity": 0.3937007874015748
        },
        {
          "duration": 0.39130349999999936,
          "durationTicks": 576,
          "midi": 42,
          "name": "F#2",
          "ticks": 39936,
          "time": 27.130376000000002,
          "velocity": 0.3937007874015748
        },
        {
          "duration": 0.1304344999999998,
          "durationTicks": 192,
          "midi": 66,
          "name": "F#4",
          "ticks": 39936,
          "time": 27.130376000000002,
          "velocity": 0.3937007874015748
        },
        {
          "duration": 0.1304344999999998,
          "durationTicks": 192,
          "midi": 73,
          "name": "C#5",
          "ticks": 40128,
          "time": 27.2608105,
          "velocity": 0.3937007874015748
        },
        {
          "duration": 0.1304344999999998,
          "durationTicks": 192,
          "midi": 61,
          "name": "C#4",
          "ticks": 40128,
          "time": 27.2608105,
          "velocity": 0.3937007874015748
        },
        {
          "duration": 0.39130349999999936,
          "durationTicks": 576,
          "midi": 37,
          "name": "C#2",
          "ticks": 40128,
          "time": 27.2608105,
          "velocity": 0.3937007874015748
        },
        {
          "duration": 0.1304344999999998,
          "durationTicks": 192,
          "midi": 73,
          "name": "C#5",
          "ticks": 40320,
          "time": 27.391245,
          "velocity": 0.3937007874015748
        },
        {
          "duration": 0.6521724999999989,
          "durationTicks": 960,
          "midi": 42,
          "name": "F#2",
          "ticks": 40320,
          "time": 27.391245,
          "velocity": 0.3937007874015748
        },
        {
          "duration": 0.1304344999999998,
          "durationTicks": 192,
          "midi": 66,
          "name": "F#4",
          "ticks": 40320,
          "time": 27.391245,
          "velocity": 0.3937007874015748
        },
        {
          "duration": 0.1304344999999998,
          "durationTicks": 192,
          "midi": 45,
          "name": "A2",
          "ticks": 40320,
          "time": 27.391245,
          "velocity": 0.3937007874015748
        },
        {
          "duration": 0.1304344999999998,
          "durationTicks": 192,
          "midi": 61,
          "name": "C#4",
          "ticks": 40320,
          "time": 27.391245,
          "velocity": 0.3937007874015748
        },
        {
          "duration": 0.39130349999999936,
          "durationTicks": 576,
          "midi": 37,
          "name": "C#2",
          "ticks": 40512,
          "time": 27.5216795,
          "velocity": 0.3937007874015748
        },
        {
          "duration": 0.2608689999999996,
          "durationTicks": 384,
          "midi": 73,
          "name": "C#5",
          "ticks": 40512,
          "time": 27.5216795,
          "velocity": 0.3937007874015748
        },
        {
          "duration": 0.2608689999999996,
          "durationTicks": 384,
          "midi": 61,
          "name": "C#4",
          "ticks": 40512,
          "time": 27.5216795,
          "velocity": 0.3937007874015748
        },
        {
          "duration": 0.5217380000000027,
          "durationTicks": 768,
          "midi": 30,
          "name": "F#1",
          "ticks": 40704,
          "time": 27.652114,
          "velocity": 0.3937007874015748
        },
        {
          "duration": 0.1304344999999998,
          "durationTicks": 192,
          "midi": 44,
          "name": "G#2",
          "ticks": 40704,
          "time": 27.652114,
          "velocity": 0.3937007874015748
        },
        {
          "duration": 0.1304344999999998,
          "durationTicks": 192,
          "midi": 61,
          "name": "C#4",
          "ticks": 40896,
          "time": 27.7825485,
          "velocity": 0.3937007874015748
        },
        {
          "duration": 0.3913035000000029,
          "durationTicks": 576,
          "midi": 37,
          "name": "C#2",
          "ticks": 40896,
          "time": 27.7825485,
          "velocity": 0.3937007874015748
        },
        {
          "duration": 0.1304344999999998,
          "durationTicks": 192,
          "midi": 73,
          "name": "C#5",
          "ticks": 40896,
          "time": 27.7825485,
          "velocity": 0.3937007874015748
        },
        {
          "duration": 0.1304344999999998,
          "durationTicks": 192,
          "midi": 73,
          "name": "C#5",
          "ticks": 41088,
          "time": 27.912983,
          "velocity": 0.3937007874015748
        },
        {
          "duration": 0.1304344999999998,
          "durationTicks": 192,
          "midi": 66,
          "name": "F#4",
          "ticks": 41088,
          "time": 27.912983,
          "velocity": 0.3937007874015748
        },
        {
          "duration": 0.1304344999999998,
          "durationTicks": 192,
          "midi": 61,
          "name": "C#4",
          "ticks": 41088,
          "time": 27.912983,
          "velocity": 0.3937007874015748
        },
        {
          "duration": 0.2608690000000031,
          "durationTicks": 384,
          "midi": 42,
          "name": "F#2",
          "ticks": 41088,
          "time": 27.912983,
          "velocity": 0.3937007874015748
        },
        {
          "duration": 0.13043450000000334,
          "durationTicks": 192,
          "midi": 37,
          "name": "C#2",
          "ticks": 41280,
          "time": 28.0434175,
          "velocity": 0.3937007874015748
        },
        {
          "duration": 0.13043450000000334,
          "durationTicks": 192,
          "midi": 40,
          "name": "E2",
          "ticks": 41280,
          "time": 28.0434175,
          "velocity": 0.3937007874015748
        },
        {
          "duration": 0.13043450000000334,
          "durationTicks": 192,
          "midi": 73,
          "name": "C#5",
          "ticks": 41280,
          "time": 28.0434175,
          "velocity": 0.3937007874015748
        },
        {
          "duration": 0.13043450000000334,
          "durationTicks": 192,
          "midi": 61,
          "name": "C#4",
          "ticks": 41280,
          "time": 28.0434175,
          "velocity": 0.3937007874015748
        },
        {
          "duration": 0.1304344999999998,
          "durationTicks": 192,
          "midi": 30,
          "name": "F#1",
          "ticks": 41472,
          "time": 28.173852000000004,
          "velocity": 0.3937007874015748
        },
        {
          "duration": 0.1304344999999998,
          "durationTicks": 192,
          "midi": 66,
          "name": "F#4",
          "ticks": 41472,
          "time": 28.173852000000004,
          "velocity": 0.3937007874015748
        },
        {
          "duration": 0.1304344999999998,
          "durationTicks": 192,
          "midi": 73,
          "name": "C#5",
          "ticks": 41472,
          "time": 28.173852000000004,
          "velocity": 0.3937007874015748
        },
        {
          "duration": 0.1304344999999998,
          "durationTicks": 192,
          "midi": 61,
          "name": "C#4",
          "ticks": 41472,
          "time": 28.173852000000004,
          "velocity": 0.3937007874015748
        },
        {
          "duration": 0.1304344999999998,
          "durationTicks": 192,
          "midi": 37,
          "name": "C#2",
          "ticks": 41664,
          "time": 28.304286500000003,
          "velocity": 0.3937007874015748
        },
        {
          "duration": 0.1304344999999998,
          "durationTicks": 192,
          "midi": 73,
          "name": "C#5",
          "ticks": 41664,
          "time": 28.304286500000003,
          "velocity": 0.3937007874015748
        },
        {
          "duration": 0.1304344999999998,
          "durationTicks": 192,
          "midi": 61,
          "name": "C#4",
          "ticks": 41664,
          "time": 28.304286500000003,
          "velocity": 0.3937007874015748
        },
        {
          "duration": 0.1304344999999998,
          "durationTicks": 192,
          "midi": 74,
          "name": "D5",
          "ticks": 41856,
          "time": 28.434721000000003,
          "velocity": 0.3937007874015748
        },
        {
          "duration": 0.1304344999999998,
          "durationTicks": 192,
          "midi": 42,
          "name": "F#2",
          "ticks": 41856,
          "time": 28.434721000000003,
          "velocity": 0.3937007874015748
        },
        {
          "duration": 0.1304344999999998,
          "durationTicks": 192,
          "midi": 69,
          "name": "A4",
          "ticks": 41856,
          "time": 28.434721000000003,
          "velocity": 0.3937007874015748
        },
        {
          "duration": 0.1304344999999998,
          "durationTicks": 192,
          "midi": 62,
          "name": "D4",
          "ticks": 41856,
          "time": 28.434721000000003,
          "velocity": 0.3937007874015748
        },
        {
          "duration": 0.1304344999999998,
          "durationTicks": 192,
          "midi": 40,
          "name": "E2",
          "ticks": 42048,
          "time": 28.565155500000003,
          "velocity": 0.3937007874015748
        },
        {
          "duration": 0.1304344999999998,
          "durationTicks": 192,
          "midi": 37,
          "name": "C#2",
          "ticks": 42048,
          "time": 28.565155500000003,
          "velocity": 0.3937007874015748
        },
        {
          "duration": 0.5217379999999991,
          "durationTicks": 768,
          "midi": 73,
          "name": "C#5",
          "ticks": 42048,
          "time": 28.565155500000003,
          "velocity": 0.3937007874015748
        },
        {
          "duration": 0.5217379999999991,
          "durationTicks": 768,
          "midi": 61,
          "name": "C#4",
          "ticks": 42048,
          "time": 28.565155500000003,
          "velocity": 0.3937007874015748
        },
        {
          "duration": 0.1304344999999998,
          "durationTicks": 192,
          "midi": 30,
          "name": "F#1",
          "ticks": 42240,
          "time": 28.695590000000003,
          "velocity": 0.3937007874015748
        },
        {
          "duration": 0.1304344999999998,
          "durationTicks": 192,
          "midi": 42,
          "name": "F#2",
          "ticks": 42240,
          "time": 28.695590000000003,
          "velocity": 0.3937007874015748
        },
        {
          "duration": 0.1304344999999998,
          "durationTicks": 192,
          "midi": 37,
          "name": "C#2",
          "ticks": 42432,
          "time": 28.826024500000003,
          "velocity": 0.3937007874015748
        },
        {
          "duration": 0.1304344999999998,
          "durationTicks": 192,
          "midi": 42,
          "name": "F#2",
          "ticks": 42624,
          "time": 28.956459000000002,
          "velocity": 0.3937007874015748
        },
        {
          "duration": 0.1304344999999998,
          "durationTicks": 192,
          "midi": 37,
          "name": "C#2",
          "ticks": 42816,
          "time": 29.086893500000002,
          "velocity": 0.3937007874015748
        },
        {
          "duration": 0.1304344999999998,
          "durationTicks": 192,
          "midi": 64,
          "name": "E4",
          "ticks": 43008,
          "time": 29.217328000000002,
          "velocity": 0.3937007874015748
        },
        {
          "duration": 0.1304344999999998,
          "durationTicks": 192,
          "midi": 59,
          "name": "B3",
          "ticks": 43008,
          "time": 29.217328000000002,
          "velocity": 0.3937007874015748
        },
        {
          "duration": 0.1304344999999998,
          "durationTicks": 192,
          "midi": 71,
          "name": "B4",
          "ticks": 43008,
          "time": 29.217328000000002,
          "velocity": 0.3937007874015748
        },
        {
          "duration": 0.39130349999999936,
          "durationTicks": 576,
          "midi": 40,
          "name": "E2",
          "ticks": 43008,
          "time": 29.217328000000002,
          "velocity": 0.3937007874015748
        },
        {
          "duration": 0.6521724999999989,
          "durationTicks": 960,
          "midi": 28,
          "name": "E1",
          "ticks": 43008,
          "time": 29.217328000000002,
          "velocity": 0.3937007874015748
        },
        {
          "duration": 0.1304344999999998,
          "durationTicks": 192,
          "midi": 71,
          "name": "B4",
          "ticks": 43200,
          "time": 29.3477625,
          "velocity": 0.3937007874015748
        },
        {
          "duration": 0.1304344999999998,
          "durationTicks": 192,
          "midi": 59,
          "name": "B3",
          "ticks": 43200,
          "time": 29.3477625,
          "velocity": 0.3937007874015748
        },
        {
          "duration": 0.1304344999999998,
          "durationTicks": 192,
          "midi": 35,
          "name": "B1",
          "ticks": 43200,
          "time": 29.3477625,
          "velocity": 0.3937007874015748
        },
        {
          "duration": 0.1304344999999998,
          "durationTicks": 192,
          "midi": 59,
          "name": "B3",
          "ticks": 43392,
          "time": 29.478197,
          "velocity": 0.3937007874015748
        },
        {
          "duration": 0.1304344999999998,
          "durationTicks": 192,
          "midi": 47,
          "name": "B2",
          "ticks": 43392,
          "time": 29.478197,
          "velocity": 0.3937007874015748
        },
        {
          "duration": 0.1304344999999998,
          "durationTicks": 192,
          "midi": 71,
          "name": "B4",
          "ticks": 43392,
          "time": 29.478197,
          "velocity": 0.3937007874015748
        },
        {
          "duration": 0.6521724999999989,
          "durationTicks": 960,
          "midi": 40,
          "name": "E2",
          "ticks": 43392,
          "time": 29.478197,
          "velocity": 0.3937007874015748
        },
        {
          "duration": 0.1304344999999998,
          "durationTicks": 192,
          "midi": 64,
          "name": "E4",
          "ticks": 43392,
          "time": 29.478197,
          "velocity": 0.3937007874015748
        },
        {
          "duration": 0.1304344999999998,
          "durationTicks": 192,
          "midi": 35,
          "name": "B1",
          "ticks": 43584,
          "time": 29.6086315,
          "velocity": 0.3937007874015748
        },
        {
          "duration": 0.2608689999999996,
          "durationTicks": 384,
          "midi": 59,
          "name": "B3",
          "ticks": 43584,
          "time": 29.6086315,
          "velocity": 0.3937007874015748
        },
        {
          "duration": 0.2608689999999996,
          "durationTicks": 384,
          "midi": 71,
          "name": "B4",
          "ticks": 43584,
          "time": 29.6086315,
          "velocity": 0.3937007874015748
        },
        {
          "duration": 0.5217379999999991,
          "durationTicks": 768,
          "midi": 28,
          "name": "E1",
          "ticks": 43776,
          "time": 29.739066,
          "velocity": 0.3937007874015748
        },
        {
          "duration": 0.1304344999999998,
          "durationTicks": 192,
          "midi": 33,
          "name": "A1",
          "ticks": 43776,
          "time": 29.739066,
          "velocity": 0.3937007874015748
        },
        {
          "duration": 0.1304344999999998,
          "durationTicks": 192,
          "midi": 69,
          "name": "A4",
          "ticks": 43968,
          "time": 29.8695005,
          "velocity": 0.3937007874015748
        },
        {
          "duration": 0.1304344999999998,
          "durationTicks": 192,
          "midi": 35,
          "name": "B1",
          "ticks": 43968,
          "time": 29.8695005,
          "velocity": 0.3937007874015748
        },
        {
          "duration": 0.1304344999999998,
          "durationTicks": 192,
          "midi": 33,
          "name": "A1",
          "ticks": 44160,
          "time": 29.999935,
          "velocity": 0.3937007874015748
        },
        {
          "duration": 0.2608689999999996,
          "durationTicks": 384,
          "midi": 40,
          "name": "E2",
          "ticks": 44160,
          "time": 29.999935,
          "velocity": 0.3937007874015748
        },
        {
          "duration": 0.1304344999999998,
          "durationTicks": 192,
          "midi": 57,
          "name": "A3",
          "ticks": 44160,
          "time": 29.999935,
          "velocity": 0.3937007874015748
        },
        {
          "duration": 0.1304344999999998,
          "durationTicks": 192,
          "midi": 69,
          "name": "A4",
          "ticks": 44160,
          "time": 29.999935,
          "velocity": 0.3937007874015748
        },
        {
          "duration": 0.1304344999999998,
          "durationTicks": 192,
          "midi": 64,
          "name": "E4",
          "ticks": 44160,
          "time": 29.999935,
          "velocity": 0.3937007874015748
        },
        {
          "duration": 0.1304344999999998,
          "durationTicks": 192,
          "midi": 44,
          "name": "G#2",
          "ticks": 44352,
          "time": 30.1303695,
          "velocity": 0.3937007874015748
        },
        {
          "duration": 0.1304344999999998,
          "durationTicks": 192,
          "midi": 35,
          "name": "B1",
          "ticks": 44352,
          "time": 30.1303695,
          "velocity": 0.3937007874015748
        },
        {
          "duration": 0.1304344999999998,
          "durationTicks": 192,
          "midi": 69,
          "name": "A4",
          "ticks": 44352,
          "time": 30.1303695,
          "velocity": 0.3937007874015748
        },
        {
          "duration": 0.13043450000000334,
          "durationTicks": 192,
          "midi": 64,
          "name": "E4",
          "ticks": 44544,
          "time": 30.260804,
          "velocity": 0.3937007874015748
        },
        {
          "duration": 0.13043450000000334,
          "durationTicks": 192,
          "midi": 68,
          "name": "G#4",
          "ticks": 44544,
          "time": 30.260804,
          "velocity": 0.3937007874015748
        },
        {
          "duration": 0.13043450000000334,
          "durationTicks": 192,
          "midi": 28,
          "name": "E1",
          "ticks": 44544,
          "time": 30.260804,
          "velocity": 0.3937007874015748
        },
        {
          "duration": 0.13043450000000334,
          "durationTicks": 192,
          "midi": 56,
          "name": "G#3",
          "ticks": 44544,
          "time": 30.260804,
          "velocity": 0.3937007874015748
        },
        {
          "duration": 0.1304344999999998,
          "durationTicks": 192,
          "midi": 68,
          "name": "G#4",
          "ticks": 44736,
          "time": 30.391238500000004,
          "velocity": 0.3937007874015748
        },
        {
          "duration": 0.1304344999999998,
          "durationTicks": 192,
          "midi": 35,
          "name": "B1",
          "ticks": 44736,
          "time": 30.391238500000004,
          "velocity": 0.3937007874015748
        },
        {
          "duration": 0.1304344999999998,
          "durationTicks": 192,
          "midi": 44,
          "name": "G#2",
          "ticks": 44736,
          "time": 30.391238500000004,
          "velocity": 0.3937007874015748
        },
        {
          "duration": 0.1304344999999998,
          "durationTicks": 192,
          "midi": 40,
          "name": "E2",
          "ticks": 44928,
          "time": 30.521673000000003,
          "velocity": 0.3937007874015748
        },
        {
          "duration": 0.1304344999999998,
          "durationTicks": 192,
          "midi": 44,
          "name": "G#2",
          "ticks": 44928,
          "time": 30.521673000000003,
          "velocity": 0.3937007874015748
        },
        {
          "duration": 0.2608689999999996,
          "durationTicks": 384,
          "midi": 74,
          "name": "D5",
          "ticks": 44928,
          "time": 30.521673000000003,
          "velocity": 0.3937007874015748
        },
        {
          "duration": 0.2608689999999996,
          "durationTicks": 384,
          "midi": 68,
          "name": "G#4",
          "ticks": 44928,
          "time": 30.521673000000003,
          "velocity": 0.3937007874015748
        },
        {
          "duration": 0.2608689999999996,
          "durationTicks": 384,
          "midi": 62,
          "name": "D4",
          "ticks": 44928,
          "time": 30.521673000000003,
          "velocity": 0.3937007874015748
        },
        {
          "duration": 0.1304344999999998,
          "durationTicks": 192,
          "midi": 35,
          "name": "B1",
          "ticks": 45120,
          "time": 30.652107500000003,
          "velocity": 0.3937007874015748
        },
        {
          "duration": 0.2608689999999996,
          "durationTicks": 384,
          "midi": 73,
          "name": "C#5",
          "ticks": 45312,
          "time": 30.782542000000003,
          "velocity": 0.3937007874015748
        },
        {
          "duration": 0.1304344999999998,
          "durationTicks": 192,
          "midi": 28,
          "name": "E1",
          "ticks": 45312,
          "time": 30.782542000000003,
          "velocity": 0.3937007874015748
        },
        {
          "duration": 0.1304344999999998,
          "durationTicks": 192,
          "midi": 33,
          "name": "A1",
          "ticks": 45312,
          "time": 30.782542000000003,
          "velocity": 0.3937007874015748
        },
        {
          "duration": 0.2608689999999996,
          "durationTicks": 384,
          "midi": 61,
          "name": "C#4",
          "ticks": 45312,
          "time": 30.782542000000003,
          "velocity": 0.3937007874015748
        },
        {
          "duration": 0.2608689999999996,
          "durationTicks": 384,
          "midi": 68,
          "name": "G#4",
          "ticks": 45312,
          "time": 30.782542000000003,
          "velocity": 0.3937007874015748
        },
        {
          "duration": 0.1304344999999998,
          "durationTicks": 192,
          "midi": 35,
          "name": "B1",
          "ticks": 45504,
          "time": 30.912976500000003,
          "velocity": 0.3937007874015748
        },
        {
          "duration": 0.1304344999999998,
          "durationTicks": 192,
          "midi": 59,
          "name": "B3",
          "ticks": 45696,
          "time": 31.043411000000003,
          "velocity": 0.3937007874015748
        },
        {
          "duration": 0.1304344999999998,
          "durationTicks": 192,
          "midi": 40,
          "name": "E2",
          "ticks": 45696,
          "time": 31.043411000000003,
          "velocity": 0.3937007874015748
        },
        {
          "duration": 0.1304344999999998,
          "durationTicks": 192,
          "midi": 71,
          "name": "B4",
          "ticks": 45696,
          "time": 31.043411000000003,
          "velocity": 0.3937007874015748
        },
        {
          "duration": 0.1304344999999998,
          "durationTicks": 192,
          "midi": 64,
          "name": "E4",
          "ticks": 45696,
          "time": 31.043411000000003,
          "velocity": 0.3937007874015748
        },
        {
          "duration": 0.1304344999999998,
          "durationTicks": 192,
          "midi": 35,
          "name": "B1",
          "ticks": 45888,
          "time": 31.173845500000002,
          "velocity": 0.3937007874015748
        },
        {
          "duration": 0.39130349999999936,
          "durationTicks": 576,
          "midi": 38,
          "name": "D2",
          "ticks": 46080,
          "time": 31.304280000000002,
          "velocity": 0.3937007874015748
        },
        {
          "duration": 0.6521724999999989,
          "durationTicks": 960,
          "midi": 26,
          "name": "D1",
          "ticks": 46080,
          "time": 31.304280000000002,
          "velocity": 0.3937007874015748
        },
        {
          "duration": 0.1304344999999998,
          "durationTicks": 192,
          "midi": 33,
          "name": "A1",
          "ticks": 46272,
          "time": 31.434714500000002,
          "velocity": 0.3937007874015748
        },
        {
          "duration": 0.1304344999999998,
          "durationTicks": 192,
          "midi": 37,
          "name": "C#2",
          "ticks": 46272,
          "time": 31.434714500000002,
          "velocity": 0.3937007874015748
        },
        {
          "duration": 0.1304344999999998,
          "durationTicks": 192,
          "midi": 45,
          "name": "A2",
          "ticks": 46464,
          "time": 31.565149,
          "velocity": 0.3937007874015748
        },
        {
          "duration": 0.1304344999999998,
          "durationTicks": 192,
          "midi": 69,
          "name": "A4",
          "ticks": 46464,
          "time": 31.565149,
          "velocity": 0.3937007874015748
        },
        {
          "duration": 0.1304344999999998,
          "durationTicks": 192,
          "midi": 74,
          "name": "D5",
          "ticks": 46464,
          "time": 31.565149,
          "velocity": 0.3937007874015748
        },
        {
          "duration": 0.1304344999999998,
          "durationTicks": 192,
          "midi": 62,
          "name": "D4",
          "ticks": 46464,
          "time": 31.565149,
          "velocity": 0.3937007874015748
        },
        {
          "duration": 0.6521725000000025,
          "durationTicks": 960,
          "midi": 38,
          "name": "D2",
          "ticks": 46464,
          "time": 31.565149,
          "velocity": 0.3937007874015748
        },
        {
          "duration": 0.1304344999999998,
          "durationTicks": 192,
          "midi": 33,
          "name": "A1",
          "ticks": 46656,
          "time": 31.6955835,
          "velocity": 0.3937007874015748
        },
        {
          "duration": 0.1304344999999998,
          "durationTicks": 192,
          "midi": 74,
          "name": "D5",
          "ticks": 46656,
          "time": 31.6955835,
          "velocity": 0.3937007874015748
        },
        {
          "duration": 0.1304344999999998,
          "durationTicks": 192,
          "midi": 62,
          "name": "D4",
          "ticks": 46656,
          "time": 31.6955835,
          "velocity": 0.3937007874015748
        },
        {
          "duration": 0.2608690000000031,
          "durationTicks": 384,
          "midi": 66,
          "name": "F#4",
          "ticks": 46848,
          "time": 31.826018,
          "velocity": 0.3937007874015748
        },
        {
          "duration": 0.2608690000000031,
          "durationTicks": 384,
          "midi": 61,
          "name": "C#4",
          "ticks": 46848,
          "time": 31.826018,
          "velocity": 0.3937007874015748
        },
        {
          "duration": 0.1304344999999998,
          "durationTicks": 192,
          "midi": 32,
          "name": "G#1",
          "ticks": 46848,
          "time": 31.826018,
          "velocity": 0.3937007874015748
        },
        {
          "duration": 0.5217380000000027,
          "durationTicks": 768,
          "midi": 26,
          "name": "D1",
          "ticks": 46848,
          "time": 31.826018,
          "velocity": 0.3937007874015748
        },
        {
          "duration": 0.2608690000000031,
          "durationTicks": 384,
          "midi": 73,
          "name": "C#5",
          "ticks": 46848,
          "time": 31.826018,
          "velocity": 0.3937007874015748
        },
        {
          "duration": 0.13043450000000334,
          "durationTicks": 192,
          "midi": 33,
          "name": "A1",
          "ticks": 47040,
          "time": 31.9564525,
          "velocity": 0.3937007874015748
        },
        {
          "duration": 0.1304344999999998,
          "durationTicks": 192,
          "midi": 44,
          "name": "G#2",
          "ticks": 47232,
          "time": 32.086887000000004,
          "velocity": 0.3937007874015748
        },
        {
          "duration": 0.2608689999999996,
          "durationTicks": 384,
          "midi": 38,
          "name": "D2",
          "ticks": 47232,
          "time": 32.086887000000004,
          "velocity": 0.3937007874015748
        },
        {
          "duration": 0.1304344999999998,
          "durationTicks": 192,
          "midi": 59,
          "name": "B3",
          "ticks": 47232,
          "time": 32.086887000000004,
          "velocity": 0.3937007874015748
        },
        {
          "duration": 0.1304344999999998,
          "durationTicks": 192,
          "midi": 66,
          "name": "F#4",
          "ticks": 47232,
          "time": 32.086887000000004,
          "velocity": 0.3937007874015748
        },
        {
          "duration": 0.1304344999999998,
          "durationTicks": 192,
          "midi": 71,
          "name": "B4",
          "ticks": 47232,
          "time": 32.086887000000004,
          "velocity": 0.3937007874015748
        },
        {
          "duration": 0.1304344999999998,
          "durationTicks": 192,
          "midi": 40,
          "name": "E2",
          "ticks": 47424,
          "time": 32.217321500000004,
          "velocity": 0.3937007874015748
        },
        {
          "duration": 0.39130349999999936,
          "durationTicks": 576,
          "midi": 73,
          "name": "C#5",
          "ticks": 47424,
          "time": 32.217321500000004,
          "velocity": 0.3937007874015748
        },
        {
          "duration": 0.1304344999999998,
          "durationTicks": 192,
          "midi": 33,
          "name": "A1",
          "ticks": 47424,
          "time": 32.217321500000004,
          "velocity": 0.3937007874015748
        },
        {
          "duration": 0.39130349999999936,
          "durationTicks": 576,
          "midi": 61,
          "name": "C#4",
          "ticks": 47424,
          "time": 32.217321500000004,
          "velocity": 0.3937007874015748
        },
        {
          "duration": 0.1304344999999998,
          "durationTicks": 192,
          "midi": 26,
          "name": "D1",
          "ticks": 47616,
          "time": 32.347756000000004,
          "velocity": 0.3937007874015748
        },
        {
          "duration": 0.1304344999999998,
          "durationTicks": 192,
          "midi": 33,
          "name": "A1",
          "ticks": 47808,
          "time": 32.478190500000004,
          "velocity": 0.3937007874015748
        },
        {
          "duration": 0.1304344999999998,
          "durationTicks": 192,
          "midi": 37,
          "name": "C#2",
          "ticks": 47808,
          "time": 32.478190500000004,
          "velocity": 0.3937007874015748
        },
        {
          "duration": 0.1304344999999998,
          "durationTicks": 192,
          "midi": 38,
          "name": "D2",
          "ticks": 48000,
          "time": 32.608625,
          "velocity": 0.3937007874015748
        },
        {
          "duration": 0.2608689999999996,
          "durationTicks": 384,
          "midi": 62,
          "name": "D4",
          "ticks": 48000,
          "time": 32.608625,
          "velocity": 0.3937007874015748
        },
        {
          "duration": 0.2608689999999996,
          "durationTicks": 384,
          "midi": 69,
          "name": "A4",
          "ticks": 48000,
          "time": 32.608625,
          "velocity": 0.3937007874015748
        },
        {
          "duration": 0.2608689999999996,
          "durationTicks": 384,
          "midi": 74,
          "name": "D5",
          "ticks": 48000,
          "time": 32.608625,
          "velocity": 0.3937007874015748
        },
        {
          "duration": 0.1304344999999998,
          "durationTicks": 192,
          "midi": 33,
          "name": "A1",
          "ticks": 48192,
          "time": 32.7390595,
          "velocity": 0.3937007874015748
        },
        {
          "duration": 0.1304344999999998,
          "durationTicks": 192,
          "midi": 40,
          "name": "E2",
          "ticks": 48192,
          "time": 32.7390595,
          "velocity": 0.3937007874015748
        },
        {
          "duration": 0.2608689999999996,
          "durationTicks": 384,
          "midi": 73,
          "name": "C#5",
          "ticks": 48384,
          "time": 32.869494,
          "velocity": 0.3937007874015748
        },
        {
          "duration": 0.1304344999999998,
          "durationTicks": 192,
          "midi": 30,
          "name": "F#1",
          "ticks": 48384,
          "time": 32.869494,
          "velocity": 0.3937007874015748
        },
        {
          "duration": 0.2608689999999996,
          "durationTicks": 384,
          "midi": 61,
          "name": "C#4",
          "ticks": 48384,
          "time": 32.869494,
          "velocity": 0.3937007874015748
        },
        {
          "duration": 0.1304344999999998,
          "durationTicks": 192,
          "midi": 26,
          "name": "D1",
          "ticks": 48384,
          "time": 32.869494,
          "velocity": 0.3937007874015748
        },
        {
          "duration": 0.2608689999999996,
          "durationTicks": 384,
          "midi": 66,
          "name": "F#4",
          "ticks": 48384,
          "time": 32.869494,
          "velocity": 0.3937007874015748
        },
        {
          "duration": 0.1304344999999998,
          "durationTicks": 192,
          "midi": 33,
          "name": "A1",
          "ticks": 48576,
          "time": 32.9999285,
          "velocity": 0.3937007874015748
        },
        {
          "duration": 0.1304344999999998,
          "durationTicks": 192,
          "midi": 38,
          "name": "D2",
          "ticks": 48768,
          "time": 33.130363,
          "velocity": 0.3937007874015748
        },
        {
          "duration": 0.2608689999999996,
          "durationTicks": 384,
          "midi": 62,
          "name": "D4",
          "ticks": 48768,
          "time": 33.130363,
          "velocity": 0.3937007874015748
        },
        {
          "duration": 0.2608689999999996,
          "durationTicks": 384,
          "midi": 57,
          "name": "A3",
          "ticks": 48768,
          "time": 33.130363,
          "velocity": 0.3937007874015748
        },
        {
          "duration": 0.2608689999999996,
          "durationTicks": 384,
          "midi": 69,
          "name": "A4",
          "ticks": 48768,
          "time": 33.130363,
          "velocity": 0.3937007874015748
        },
        {
          "duration": 0.1304344999999998,
          "durationTicks": 192,
          "midi": 33,
          "name": "A1",
          "ticks": 48960,
          "time": 33.2607975,
          "velocity": 0.3937007874015748
        },
        {
          "duration": 0.2608689999999996,
          "durationTicks": 384,
          "midi": 35,
          "name": "B1",
          "ticks": 49152,
          "time": 33.391232,
          "velocity": 0.3937007874015748
        },
        {
          "duration": 0.6521724999999989,
          "durationTicks": 960,
          "midi": 29,
          "name": "F1",
          "ticks": 49152,
          "time": 33.391232,
          "velocity": 0.3937007874015748
        },
        {
          "duration": 0.39130349999999936,
          "durationTicks": 576,
          "midi": 59,
          "name": "B3",
          "ticks": 49152,
          "time": 33.391232,
          "velocity": 0.3937007874015748
        },
        {
          "duration": 0.39130349999999936,
          "durationTicks": 576,
          "midi": 41,
          "name": "F2",
          "ticks": 49152,
          "time": 33.391232,
          "velocity": 0.3937007874015748
        },
        {
          "duration": 0.39130349999999936,
          "durationTicks": 576,
          "midi": 71,
          "name": "B4",
          "ticks": 49152,
          "time": 33.391232,
          "velocity": 0.3937007874015748
        },
        {
          "duration": 0.39130349999999936,
          "durationTicks": 576,
          "midi": 65,
          "name": "F4",
          "ticks": 49152,
          "time": 33.391232,
          "velocity": 0.3937007874015748
        },
        {
          "duration": 0.2608689999999996,
          "durationTicks": 384,
          "midi": 35,
          "name": "B1",
          "ticks": 49344,
          "time": 33.5216665,
          "velocity": 0.3937007874015748
        },
        {
          "duration": 0.6521724999999989,
          "durationTicks": 960,
          "midi": 41,
          "name": "F2",
          "ticks": 49536,
          "time": 33.652101,
          "velocity": 0.3937007874015748
        },
        {
          "duration": 0.5217379999999991,
          "durationTicks": 768,
          "midi": 35,
          "name": "B1",
          "ticks": 49536,
          "time": 33.652101,
          "velocity": 0.3937007874015748
        },
        {
          "duration": 0.1304344999999998,
          "durationTicks": 192,
          "midi": 69,
          "name": "A4",
          "ticks": 49728,
          "time": 33.7825355,
          "velocity": 0.3937007874015748
        },
        {
          "duration": 0.1304344999999998,
          "durationTicks": 192,
          "midi": 57,
          "name": "A3",
          "ticks": 49728,
          "time": 33.7825355,
          "velocity": 0.3937007874015748
        },
        {
          "duration": 0.1304344999999998,
          "durationTicks": 192,
          "midi": 32,
          "name": "G#1",
          "ticks": 49728,
          "time": 33.7825355,
          "velocity": 0.3937007874015748
        },
        {
          "duration": 0.9130414999999985,
          "durationTicks": 1344,
          "midi": 68,
          "name": "G#4",
          "ticks": 49920,
          "time": 33.91297,
          "velocity": 0.3937007874015748
        },
        {
          "duration": 0.9130414999999985,
          "durationTicks": 1344,
          "midi": 56,
          "name": "G#3",
          "ticks": 49920,
          "time": 33.91297,
          "velocity": 0.3937007874015748
        },
        {
          "duration": 0.5217379999999991,
          "durationTicks": 768,
          "midi": 29,
          "name": "F1",
          "ticks": 49920,
          "time": 33.91297,
          "velocity": 0.3937007874015748
        },
        {
          "duration": 0.1304344999999998,
          "durationTicks": 192,
          "midi": 37,
          "name": "C#2",
          "ticks": 49920,
          "time": 33.91297,
          "velocity": 0.3937007874015748
        },
        {
          "duration": 0.9130414999999985,
          "durationTicks": 1344,
          "midi": 59,
          "name": "B3",
          "ticks": 49920,
          "time": 33.91297,
          "velocity": 0.3937007874015748
        },
        {
          "duration": 0.1304344999999998,
          "durationTicks": 192,
          "midi": 40,
          "name": "E2",
          "ticks": 50112,
          "time": 34.0434045,
          "velocity": 0.3937007874015748
        },
        {
          "duration": 0.39130349999999936,
          "durationTicks": 576,
          "midi": 35,
          "name": "B1",
          "ticks": 50112,
          "time": 34.0434045,
          "velocity": 0.3937007874015748
        },
        {
          "duration": 0.2608689999999996,
          "durationTicks": 384,
          "midi": 41,
          "name": "F2",
          "ticks": 50304,
          "time": 34.173839,
          "velocity": 0.3937007874015748
        },
        {
          "duration": 0.1304344999999998,
          "durationTicks": 192,
          "midi": 40,
          "name": "E2",
          "ticks": 50496,
          "time": 34.3042735,
          "velocity": 0.3937007874015748
        },
        {
          "duration": 0.1304344999999998,
          "durationTicks": 192,
          "midi": 32,
          "name": "G#1",
          "ticks": 50496,
          "time": 34.3042735,
          "velocity": 0.3937007874015748
        },
        {
          "duration": 0.1304344999999998,
          "durationTicks": 192,
          "midi": 29,
          "name": "F1",
          "ticks": 50688,
          "time": 34.434708,
          "velocity": 0.3937007874015748
        },
        {
          "duration": 0.1304344999999998,
          "durationTicks": 192,
          "midi": 35,
          "name": "B1",
          "ticks": 50880,
          "time": 34.5651425,
          "velocity": 0.3937007874015748
        },
        {
          "duration": 0.1304344999999998,
          "durationTicks": 192,
          "midi": 41,
          "name": "F2",
          "ticks": 51072,
          "time": 34.695577,
          "velocity": 0.3937007874015748
        },
        {
          "duration": 0.1304344999999998,
          "durationTicks": 192,
          "midi": 44,
          "name": "G#2",
          "ticks": 51264,
          "time": 34.8260115,
          "velocity": 0.3937007874015748
        },
        {
          "duration": 0.1304344999999998,
          "durationTicks": 192,
          "midi": 66,
          "name": "F#4",
          "ticks": 51456,
          "time": 34.956446,
          "velocity": 0.3937007874015748
        },
        {
          "duration": 0.1304344999999998,
          "durationTicks": 192,
          "midi": 54,
          "name": "F#3",
          "ticks": 51456,
          "time": 34.956446,
          "velocity": 0.3937007874015748
        },
        {
          "duration": 0.1304344999999998,
          "durationTicks": 192,
          "midi": 30,
          "name": "F#1",
          "ticks": 51456,
          "time": 34.956446,
          "velocity": 0.3937007874015748
        },
        {
          "duration": 0.1304344999999998,
          "durationTicks": 192,
          "midi": 42,
          "name": "F#2",
          "ticks": 51456,
          "time": 34.956446,
          "velocity": 0.3937007874015748
        },
        {
          "duration": 0.1304344999999998,
          "durationTicks": 192,
          "midi": 28,
          "name": "E1",
          "ticks": 51648,
          "time": 35.0868805,
          "velocity": 0.3937007874015748
        },
        {
          "duration": 0.1304344999999998,
          "durationTicks": 192,
          "midi": 61,
          "name": "C#4",
          "ticks": 51648,
          "time": 35.0868805,
          "velocity": 0.3937007874015748
        },
        {
          "duration": 0.1304344999999998,
          "durationTicks": 192,
          "midi": 40,
          "name": "E2",
          "ticks": 51648,
          "time": 35.0868805,
          "velocity": 0.3937007874015748
        },
        {
          "duration": 0.1304344999999998,
          "durationTicks": 192,
          "midi": 73,
          "name": "C#5",
          "ticks": 51648,
          "time": 35.0868805,
          "velocity": 0.3937007874015748
        },
        {
          "duration": 0.39130350000000647,
          "durationTicks": 576,
          "midi": 71,
          "name": "B4",
          "ticks": 52032,
          "time": 35.3477495,
          "velocity": 0.3937007874015748
        },
        {
          "duration": 0.39130350000000647,
          "durationTicks": 576,
          "midi": 59,
          "name": "B3",
          "ticks": 52032,
          "time": 35.3477495,
          "velocity": 0.3937007874015748
        },
        {
          "duration": 0.39130350000000647,
          "durationTicks": 576,
          "midi": 30,
          "name": "F#1",
          "ticks": 52032,
          "time": 35.3477495,
          "velocity": 0.3937007874015748
        },
        {
          "duration": 0.39130350000000647,
          "durationTicks": 576,
          "midi": 35,
          "name": "B1",
          "ticks": 52032,
          "time": 35.3477495,
          "velocity": 0.3937007874015748
        },
        {
          "duration": 0.39130350000000647,
          "durationTicks": 576,
          "midi": 66,
          "name": "F#4",
          "ticks": 52032,
          "time": 35.3477495,
          "velocity": 0.3937007874015748
        },
        {
          "duration": 0.1304344999999998,
          "durationTicks": 192,
          "midi": 69,
          "name": "A4",
          "ticks": 52608,
          "time": 35.739053000000006,
          "velocity": 0.3937007874015748
        },
        {
          "duration": 0.1304344999999998,
          "durationTicks": 192,
          "midi": 30,
          "name": "F#1",
          "ticks": 52608,
          "time": 35.739053000000006,
          "velocity": 0.3937007874015748
        },
        {
          "duration": 0.1304344999999998,
          "durationTicks": 192,
          "midi": 35,
          "name": "B1",
          "ticks": 52608,
          "time": 35.739053000000006,
          "velocity": 0.3937007874015748
        },
        {
          "duration": 0.1304344999999998,
          "durationTicks": 192,
          "midi": 62,
          "name": "D4",
          "ticks": 52608,
          "time": 35.739053000000006,
          "velocity": 0.3937007874015748
        },
        {
          "duration": 0.1304344999999998,
          "durationTicks": 192,
          "midi": 57,
          "name": "A3",
          "ticks": 52608,
          "time": 35.739053000000006,
          "velocity": 0.3937007874015748
        },
        {
          "duration": 0.1304344999999998,
          "durationTicks": 192,
          "midi": 47,
          "name": "B2",
          "ticks": 52992,
          "time": 35.999922000000005,
          "velocity": 0.3937007874015748
        },
        {
          "duration": 0.1304344999999998,
          "durationTicks": 192,
          "midi": 35,
          "name": "B1",
          "ticks": 52992,
          "time": 35.999922000000005,
          "velocity": 0.3937007874015748
        },
        {
          "duration": 0.1304344999999998,
          "durationTicks": 192,
          "midi": 69,
          "name": "A4",
          "ticks": 52992,
          "time": 35.999922000000005,
          "velocity": 0.3937007874015748
        },
        {
          "duration": 0.1304344999999998,
          "durationTicks": 192,
          "midi": 57,
          "name": "A3",
          "ticks": 52992,
          "time": 35.999922000000005,
          "velocity": 0.3937007874015748
        },
        {
          "duration": 0.1304344999999998,
          "durationTicks": 192,
          "midi": 35,
          "name": "B1",
          "ticks": 53184,
          "time": 36.130356500000005,
          "velocity": 0.3937007874015748
        },
        {
          "duration": 0.1304344999999998,
          "durationTicks": 192,
          "midi": 61,
          "name": "C#4",
          "ticks": 53184,
          "time": 36.130356500000005,
          "velocity": 0.3937007874015748
        },
        {
          "duration": 0.1304344999999998,
          "durationTicks": 192,
          "midi": 73,
          "name": "C#5",
          "ticks": 53184,
          "time": 36.130356500000005,
          "velocity": 0.3937007874015748
        },
        {
          "duration": 0.1304344999999998,
          "durationTicks": 192,
          "midi": 47,
          "name": "B2",
          "ticks": 53184,
          "time": 36.130356500000005,
          "velocity": 0.3937007874015748
        },
        {
          "duration": 0.39130349999999936,
          "durationTicks": 576,
          "midi": 64,
          "name": "E4",
          "ticks": 53568,
          "time": 36.391225500000004,
          "velocity": 0.3937007874015748
        },
        {
          "duration": 0.39130349999999936,
          "durationTicks": 576,
          "midi": 37,
          "name": "C#2",
          "ticks": 53568,
          "time": 36.391225500000004,
          "velocity": 0.3937007874015748
        },
        {
          "duration": 0.39130349999999936,
          "durationTicks": 576,
          "midi": 28,
          "name": "E1",
          "ticks": 53568,
          "time": 36.391225500000004,
          "velocity": 0.3937007874015748
        },
        {
          "duration": 0.39130349999999936,
          "durationTicks": 576,
          "midi": 59,
          "name": "B3",
          "ticks": 53568,
          "time": 36.391225500000004,
          "velocity": 0.3937007874015748
        },
        {
          "duration": 0.39130349999999936,
          "durationTicks": 576,
          "midi": 71,
          "name": "B4",
          "ticks": 53568,
          "time": 36.391225500000004,
          "velocity": 0.3937007874015748
        },
        {
          "duration": 0.1304344999999998,
          "durationTicks": 192,
          "midi": 28,
          "name": "E1",
          "ticks": 54144,
          "time": 36.782529000000004,
          "velocity": 0.3937007874015748
        },
        {
          "duration": 0.1304344999999998,
          "durationTicks": 192,
          "midi": 37,
          "name": "C#2",
          "ticks": 54144,
          "time": 36.782529000000004,
          "velocity": 0.3937007874015748
        },
        {
          "duration": 0.1304344999999998,
          "durationTicks": 192,
          "midi": 69,
          "name": "A4",
          "ticks": 54144,
          "time": 36.782529000000004,
          "velocity": 0.3937007874015748
        },
        {
          "duration": 0.1304344999999998,
          "durationTicks": 192,
          "midi": 57,
          "name": "A3",
          "ticks": 54144,
          "time": 36.782529000000004,
          "velocity": 0.3937007874015748
        },
        {
          "duration": 0.1304344999999998,
          "durationTicks": 192,
          "midi": 64,
          "name": "E4",
          "ticks": 54144,
          "time": 36.782529000000004,
          "velocity": 0.3937007874015748
        },
        {
          "duration": 0.1304344999999998,
          "durationTicks": 192,
          "midi": 54,
          "name": "F#3",
          "ticks": 54528,
          "time": 37.043398,
          "velocity": 0.3937007874015748
        },
        {
          "duration": 0.1304344999999998,
          "durationTicks": 192,
          "midi": 49,
          "name": "C#3",
          "ticks": 54528,
          "time": 37.043398,
          "velocity": 0.3937007874015748
        },
        {
          "duration": 0.1304344999999998,
          "durationTicks": 192,
          "midi": 37,
          "name": "C#2",
          "ticks": 54528,
          "time": 37.043398,
          "velocity": 0.3937007874015748
        },
        {
          "duration": 0.1304344999999998,
          "durationTicks": 192,
          "midi": 66,
          "name": "F#4",
          "ticks": 54528,
          "time": 37.043398,
          "velocity": 0.3937007874015748
        },
        {
          "duration": 0.1304344999999998,
          "durationTicks": 192,
          "midi": 49,
          "name": "C#3",
          "ticks": 54720,
          "time": 37.1738325,
          "velocity": 0.3937007874015748
        },
        {
          "duration": 0.1304344999999998,
          "durationTicks": 192,
          "midi": 37,
          "name": "C#2",
          "ticks": 54720,
          "time": 37.1738325,
          "velocity": 0.3937007874015748
        },
        {
          "duration": 0.1304344999999998,
          "durationTicks": 192,
          "midi": 52,
          "name": "E3",
          "ticks": 54720,
          "time": 37.1738325,
          "velocity": 0.3937007874015748
        },
        {
          "duration": 0.1304344999999998,
          "durationTicks": 192,
          "midi": 64,
          "name": "E4",
          "ticks": 54720,
          "time": 37.1738325,
          "velocity": 0.3937007874015748
        },
        {
          "duration": 0.39130349999999936,
          "durationTicks": 576,
          "midi": 37,
          "name": "C#2",
          "ticks": 55104,
          "time": 37.4347015,
          "velocity": 0.3937007874015748
        },
        {
          "duration": 0.2608689999999996,
          "durationTicks": 384,
          "midi": 66,
          "name": "F#4",
          "ticks": 55104,
          "time": 37.4347015,
          "velocity": 0.3937007874015748
        },
        {
          "duration": 0.39130349999999936,
          "durationTicks": 576,
          "midi": 30,
          "name": "F#1",
          "ticks": 55104,
          "time": 37.4347015,
          "velocity": 0.3937007874015748
        },
        {
          "duration": 0.2608689999999996,
          "durationTicks": 384,
          "midi": 54,
          "name": "F#3",
          "ticks": 55104,
          "time": 37.4347015,
          "velocity": 0.3937007874015748
        },
        {
          "duration": 0.39130349999999936,
          "durationTicks": 576,
          "midi": 42,
          "name": "F#2",
          "ticks": 55104,
          "time": 37.4347015,
          "velocity": 0.3937007874015748
        },
        {
          "duration": 0.2608689999999996,
          "durationTicks": 384,
          "midi": 61,
          "name": "C#4",
          "ticks": 55104,
          "time": 37.4347015,
          "velocity": 0.3937007874015748
        },
        {
          "duration": 0.1304344999999998,
          "durationTicks": 192,
          "midi": 61,
          "name": "C#4",
          "ticks": 55488,
          "time": 37.6955705,
          "velocity": 0.3937007874015748
        },
        {
          "duration": 0.1304344999999998,
          "durationTicks": 192,
          "midi": 68,
          "name": "G#4",
          "ticks": 55488,
          "time": 37.6955705,
          "velocity": 0.3937007874015748
        },
        {
          "duration": 0.1304344999999998,
          "durationTicks": 192,
          "midi": 56,
          "name": "G#3",
          "ticks": 55488,
          "time": 37.6955705,
          "velocity": 0.3937007874015748
        },
        {
          "duration": 0.1304344999999998,
          "durationTicks": 192,
          "midi": 30,
          "name": "F#1",
          "ticks": 55680,
          "time": 37.826005,
          "velocity": 0.3937007874015748
        },
        {
          "duration": 0.1304344999999998,
          "durationTicks": 192,
          "midi": 66,
          "name": "F#4",
          "ticks": 55680,
          "time": 37.826005,
          "velocity": 0.3937007874015748
        },
        {
          "duration": 0.1304344999999998,
          "durationTicks": 192,
          "midi": 57,
          "name": "A3",
          "ticks": 55680,
          "time": 37.826005,
          "velocity": 0.3937007874015748
        },
        {
          "duration": 0.1304344999999998,
          "durationTicks": 192,
          "midi": 69,
          "name": "A4",
          "ticks": 55680,
          "time": 37.826005,
          "velocity": 0.3937007874015748
        },
        {
          "duration": 0.1304344999999998,
          "durationTicks": 192,
          "midi": 42,
          "name": "F#2",
          "ticks": 55680,
          "time": 37.826005,
          "velocity": 0.3937007874015748
        },
        {
          "duration": 0.1304344999999998,
          "durationTicks": 192,
          "midi": 37,
          "name": "C#2",
          "ticks": 55680,
          "time": 37.826005,
          "velocity": 0.3937007874015748
        },
        {
          "duration": 0.1304344999999998,
          "durationTicks": 192,
          "midi": 42,
          "name": "F#2",
          "ticks": 56064,
          "time": 38.086874,
          "velocity": 0.3937007874015748
        },
        {
          "duration": 0.1304344999999998,
          "durationTicks": 192,
          "midi": 49,
          "name": "C#3",
          "ticks": 56064,
          "time": 38.086874,
          "velocity": 0.3937007874015748
        },
        {
          "duration": 0.1304344999999998,
          "durationTicks": 192,
          "midi": 49,
          "name": "C#3",
          "ticks": 56256,
          "time": 38.2173085,
          "velocity": 0.3937007874015748
        },
        {
          "duration": 0.1304344999999998,
          "durationTicks": 192,
          "midi": 42,
          "name": "F#2",
          "ticks": 56256,
          "time": 38.2173085,
          "velocity": 0.3937007874015748
        },
        {
          "duration": 0.06521725000000345,
          "durationTicks": 96,
          "midi": 54,
          "name": "F#3",
          "ticks": 56448,
          "time": 38.347743,
          "velocity": 0.3937007874015748
        },
        {
          "duration": 0.4565207499999957,
          "durationTicks": 672,
          "midi": 66,
          "name": "F#4",
          "ticks": 56544,
          "time": 38.412960250000005,
          "velocity": 0.3937007874015748
        },
        {
          "duration": 0.4239121250000011,
          "durationTicks": 624,
          "midi": 73,
          "name": "C#5",
          "ticks": 56592,
          "time": 38.445568875,
          "velocity": 0.3937007874015748
        },
        {
          "duration": 0.39130349999999936,
          "durationTicks": 576,
          "midi": 37,
          "name": "C#2",
          "ticks": 56640,
          "time": 38.4781775,
          "velocity": 0.3937007874015748
        },
        {
          "duration": 0.39130349999999936,
          "durationTicks": 576,
          "midi": 42,
          "name": "F#2",
          "ticks": 56640,
          "time": 38.4781775,
          "velocity": 0.3937007874015748
        },
        {
          "duration": 0.39130349999999936,
          "durationTicks": 576,
          "midi": 78,
          "name": "F#5",
          "ticks": 56640,
          "time": 38.4781775,
          "velocity": 0.3937007874015748
        },
        {
          "duration": 0.39130349999999936,
          "durationTicks": 576,
          "midi": 30,
          "name": "F#1",
          "ticks": 56640,
          "time": 38.4781775,
          "velocity": 0.3937007874015748
        },
        {
          "duration": 0.1304344999999998,
          "durationTicks": 192,
          "midi": 42,
          "name": "F#2",
          "ticks": 57216,
          "time": 38.869481,
          "velocity": 0.3937007874015748
        },
        {
          "duration": 0.1304344999999998,
          "durationTicks": 192,
          "midi": 30,
          "name": "F#1",
          "ticks": 57216,
          "time": 38.869481,
          "velocity": 0.3937007874015748
        },
        {
          "duration": 0.2608689999999996,
          "durationTicks": 384,
          "midi": 66,
          "name": "F#4",
          "ticks": 57216,
          "time": 38.869481,
          "velocity": 0.3937007874015748
        },
        {
          "duration": 0.2608689999999996,
          "durationTicks": 384,
          "midi": 78,
          "name": "F#5",
          "ticks": 57216,
          "time": 38.869481,
          "velocity": 0.3937007874015748
        },
        {
          "duration": 0.2608689999999996,
          "durationTicks": 384,
          "midi": 73,
          "name": "C#5",
          "ticks": 57216,
          "time": 38.869481,
          "velocity": 0.3937007874015748
        },
        {
          "duration": 0.1304344999999998,
          "durationTicks": 192,
          "midi": 37,
          "name": "C#2",
          "ticks": 57216,
          "time": 38.869481,
          "velocity": 0.3937007874015748
        },
        {
          "duration": 0.1304344999999998,
          "durationTicks": 192,
          "midi": 54,
          "name": "F#3",
          "ticks": 57600,
          "time": 39.13035,
          "velocity": 0.3937007874015748
        },
        {
          "duration": 0.1304344999999998,
          "durationTicks": 192,
          "midi": 42,
          "name": "F#2",
          "ticks": 57600,
          "time": 39.13035,
          "velocity": 0.3937007874015748
        },
        {
          "duration": 0.1304344999999998,
          "durationTicks": 192,
          "midi": 66,
          "name": "F#4",
          "ticks": 57600,
          "time": 39.13035,
          "velocity": 0.3937007874015748
        },
        {
          "duration": 0.1304344999999998,
          "durationTicks": 192,
          "midi": 49,
          "name": "C#3",
          "ticks": 57600,
          "time": 39.13035,
          "velocity": 0.3937007874015748
        },
        {
          "duration": 0.1304344999999998,
          "durationTicks": 192,
          "midi": 66,
          "name": "F#4",
          "ticks": 57792,
          "time": 39.2607845,
          "velocity": 0.3937007874015748
        },
        {
          "duration": 0.1304344999999998,
          "durationTicks": 192,
          "midi": 54,
          "name": "F#3",
          "ticks": 57792,
          "time": 39.2607845,
          "velocity": 0.3937007874015748
        },
        {
          "duration": 0.1304344999999998,
          "durationTicks": 192,
          "midi": 49,
          "name": "C#3",
          "ticks": 57792,
          "time": 39.2607845,
          "velocity": 0.3937007874015748
        },
        {
          "duration": 0.1304344999999998,
          "durationTicks": 192,
          "midi": 42,
          "name": "F#2",
          "ticks": 57792,
          "time": 39.2607845,
          "velocity": 0.3937007874015748
        },
        {
          "duration": 0.1304344999999998,
          "durationTicks": 192,
          "midi": 68,
          "name": "G#4",
          "ticks": 57984,
          "time": 39.391219,
          "velocity": 0.3937007874015748
        },
        {
          "duration": 0.1304344999999998,
          "durationTicks": 192,
          "midi": 56,
          "name": "G#3",
          "ticks": 57984,
          "time": 39.391219,
          "velocity": 0.3937007874015748
        },
        {
          "duration": 0.39130350000000647,
          "durationTicks": 576,
          "midi": 62,
          "name": "D4",
          "ticks": 58176,
          "time": 39.5216535,
          "velocity": 0.3937007874015748
        },
        {
          "duration": 0.39130350000000647,
          "durationTicks": 576,
          "midi": 57,
          "name": "A3",
          "ticks": 58176,
          "time": 39.5216535,
          "velocity": 0.3937007874015748
        },
        {
          "duration": 0.39130350000000647,
          "durationTicks": 576,
          "midi": 69,
          "name": "A4",
          "ticks": 58176,
          "time": 39.5216535,
          "velocity": 0.3937007874015748
        },
        {
          "duration": 0.39130350000000647,
          "durationTicks": 576,
          "midi": 35,
          "name": "B1",
          "ticks": 58176,
          "time": 39.5216535,
          "velocity": 0.3937007874015748
        },
        {
          "duration": 0.39130350000000647,
          "durationTicks": 576,
          "midi": 30,
          "name": "F#1",
          "ticks": 58176,
          "time": 39.5216535,
          "velocity": 0.3937007874015748
        },
        {
          "duration": 0.1304344999999998,
          "durationTicks": 192,
          "midi": 66,
          "name": "F#4",
          "ticks": 58752,
          "time": 39.912957000000006,
          "velocity": 0.3937007874015748
        },
        {
          "duration": 0.1304344999999998,
          "durationTicks": 192,
          "midi": 59,
          "name": "B3",
          "ticks": 58752,
          "time": 39.912957000000006,
          "velocity": 0.3937007874015748
        },
        {
          "duration": 0.1304344999999998,
          "durationTicks": 192,
          "midi": 54,
          "name": "F#3",
          "ticks": 58752,
          "time": 39.912957000000006,
          "velocity": 0.3937007874015748
        },
        {
          "duration": 0.1304344999999998,
          "durationTicks": 192,
          "midi": 30,
          "name": "F#1",
          "ticks": 58752,
          "time": 39.912957000000006,
          "velocity": 0.3937007874015748
        },
        {
          "duration": 0.1304344999999998,
          "durationTicks": 192,
          "midi": 35,
          "name": "B1",
          "ticks": 58752,
          "time": 39.912957000000006,
          "velocity": 0.3937007874015748
        },
        {
          "duration": 0.1304344999999998,
          "durationTicks": 192,
          "midi": 57,
          "name": "A3",
          "ticks": 59136,
          "time": 40.173826000000005,
          "velocity": 0.3937007874015748
        },
        {
          "duration": 0.1304344999999998,
          "durationTicks": 192,
          "midi": 35,
          "name": "B1",
          "ticks": 59136,
          "time": 40.173826000000005,
          "velocity": 0.3937007874015748
        },
        {
          "duration": 0.1304344999999998,
          "durationTicks": 192,
          "midi": 47,
          "name": "B2",
          "ticks": 59136,
          "time": 40.173826000000005,
          "velocity": 0.3937007874015748
        },
        {
          "duration": 0.1304344999999998,
          "durationTicks": 192,
          "midi": 69,
          "name": "A4",
          "ticks": 59136,
          "time": 40.173826000000005,
          "velocity": 0.3937007874015748
        },
        {
          "duration": 0.1304344999999998,
          "durationTicks": 192,
          "midi": 47,
          "name": "B2",
          "ticks": 59328,
          "time": 40.304260500000005,
          "velocity": 0.3937007874015748
        },
        {
          "duration": 0.2608689999999996,
          "durationTicks": 384,
          "midi": 66,
          "name": "F#4",
          "ticks": 59328,
          "time": 40.304260500000005,
          "velocity": 0.3937007874015748
        },
        {
          "duration": 0.2608689999999996,
          "durationTicks": 384,
          "midi": 54,
          "name": "F#3",
          "ticks": 59328,
          "time": 40.304260500000005,
          "velocity": 0.3937007874015748
        },
        {
          "duration": 0.1304344999999998,
          "durationTicks": 192,
          "midi": 35,
          "name": "B1",
          "ticks": 59328,
          "time": 40.304260500000005,
          "velocity": 0.3937007874015748
        },
        {
          "duration": 0.39130349999999936,
          "durationTicks": 576,
          "midi": 57,
          "name": "A3",
          "ticks": 59712,
          "time": 40.565129500000005,
          "velocity": 0.3937007874015748
        },
        {
          "duration": 0.39130349999999936,
          "durationTicks": 576,
          "midi": 24,
          "name": "C1",
          "ticks": 59712,
          "time": 40.565129500000005,
          "velocity": 0.3937007874015748
        },
        {
          "duration": 0.39130349999999936,
          "durationTicks": 576,
          "midi": 69,
          "name": "A4",
          "ticks": 59712,
          "time": 40.565129500000005,
          "velocity": 0.3937007874015748
        },
        {
          "duration": 0.39130349999999936,
          "durationTicks": 576,
          "midi": 36,
          "name": "C2",
          "ticks": 59712,
          "time": 40.565129500000005,
          "velocity": 0.3937007874015748
        },
        {
          "duration": 0.39130349999999936,
          "durationTicks": 576,
          "midi": 30,
          "name": "F#1",
          "ticks": 59712,
          "time": 40.565129500000005,
          "velocity": 0.3937007874015748
        },
        {
          "duration": 0.39130349999999936,
          "durationTicks": 576,
          "midi": 63,
          "name": "D#4",
          "ticks": 59712,
          "time": 40.565129500000005,
          "velocity": 0.3937007874015748
        },
        {
          "duration": 0.1304344999999998,
          "durationTicks": 192,
          "midi": 30,
          "name": "F#1",
          "ticks": 60288,
          "time": 40.956433000000004,
          "velocity": 0.3937007874015748
        },
        {
          "duration": 0.1304344999999998,
          "durationTicks": 192,
          "midi": 66,
          "name": "F#4",
          "ticks": 60288,
          "time": 40.956433000000004,
          "velocity": 0.3937007874015748
        },
        {
          "duration": 0.1304344999999998,
          "durationTicks": 192,
          "midi": 61,
          "name": "C#4",
          "ticks": 60288,
          "time": 40.956433000000004,
          "velocity": 0.3937007874015748
        },
        {
          "duration": 0.1304344999999998,
          "durationTicks": 192,
          "midi": 54,
          "name": "F#3",
          "ticks": 60288,
          "time": 40.956433000000004,
          "velocity": 0.3937007874015748
        },
        {
          "duration": 0.1304344999999998,
          "durationTicks": 192,
          "midi": 36,
          "name": "C2",
          "ticks": 60288,
          "time": 40.956433000000004,
          "velocity": 0.3937007874015748
        },
        {
          "duration": 0.1304344999999998,
          "durationTicks": 192,
          "midi": 24,
          "name": "C1",
          "ticks": 60288,
          "time": 40.956433000000004,
          "velocity": 0.3937007874015748
        },
        {
          "duration": 0.1304344999999998,
          "durationTicks": 192,
          "midi": 36,
          "name": "C2",
          "ticks": 60672,
          "time": 41.217302000000004,
          "velocity": 0.3937007874015748
        },
        {
          "duration": 0.1304344999999998,
          "durationTicks": 192,
          "midi": 48,
          "name": "C3",
          "ticks": 60672,
          "time": 41.217302000000004,
          "velocity": 0.3937007874015748
        },
        {
          "duration": 0.1304344999999998,
          "durationTicks": 192,
          "midi": 57,
          "name": "A3",
          "ticks": 60672,
          "time": 41.217302000000004,
          "velocity": 0.3937007874015748
        },
        {
          "duration": 0.1304344999999998,
          "durationTicks": 192,
          "midi": 69,
          "name": "A4",
          "ticks": 60672,
          "time": 41.217302000000004,
          "velocity": 0.3937007874015748
        },
        {
          "duration": 0.1304344999999998,
          "durationTicks": 192,
          "midi": 48,
          "name": "C3",
          "ticks": 60864,
          "time": 41.3477365,
          "velocity": 0.3937007874015748
        },
        {
          "duration": 0.2608689999999996,
          "durationTicks": 384,
          "midi": 66,
          "name": "F#4",
          "ticks": 60864,
          "time": 41.3477365,
          "velocity": 0.3937007874015748
        },
        {
          "duration": 0.1304344999999998,
          "durationTicks": 192,
          "midi": 36,
          "name": "C2",
          "ticks": 60864,
          "time": 41.3477365,
          "velocity": 0.3937007874015748
        },
        {
          "duration": 0.2608689999999996,
          "durationTicks": 384,
          "midi": 54,
          "name": "F#3",
          "ticks": 60864,
          "time": 41.3477365,
          "velocity": 0.3937007874015748
        },
        {
          "duration": 0.39130349999999936,
          "durationTicks": 576,
          "midi": 68,
          "name": "G#4",
          "ticks": 61248,
          "time": 41.6086055,
          "velocity": 0.3937007874015748
        },
        {
          "duration": 0.39130349999999936,
          "durationTicks": 576,
          "midi": 29,
          "name": "F1",
          "ticks": 61248,
          "time": 41.6086055,
          "velocity": 0.3937007874015748
        },
        {
          "duration": 0.39130349999999936,
          "durationTicks": 576,
          "midi": 37,
          "name": "C#2",
          "ticks": 61248,
          "time": 41.6086055,
          "velocity": 0.3937007874015748
        },
        {
          "duration": 0.39130349999999936,
          "durationTicks": 576,
          "midi": 25,
          "name": "C#1",
          "ticks": 61248,
          "time": 41.6086055,
          "velocity": 0.3937007874015748
        },
        {
          "duration": 0.39130349999999936,
          "durationTicks": 576,
          "midi": 65,
          "name": "F4",
          "ticks": 61248,
          "time": 41.6086055,
          "velocity": 0.3937007874015748
        },
        {
          "duration": 0.39130349999999936,
          "durationTicks": 576,
          "midi": 61,
          "name": "C#4",
          "ticks": 61248,
          "time": 41.6086055,
          "velocity": 0.3937007874015748
        },
        {
          "duration": 0.39130349999999936,
          "durationTicks": 576,
          "midi": 32,
          "name": "G#1",
          "ticks": 61248,
          "time": 41.6086055,
          "velocity": 0.3937007874015748
        },
        {
          "duration": 0.39130349999999936,
          "durationTicks": 576,
          "midi": 73,
          "name": "C#5",
          "ticks": 61248,
          "time": 41.6086055,
          "velocity": 0.3937007874015748
        },
        {
          "duration": 0.2608689999999996,
          "durationTicks": 384,
          "midi": 29,
          "name": "F1",
          "ticks": 61824,
          "time": 41.999909,
          "velocity": 0.3937007874015748
        },
        {
          "duration": 0.2608689999999996,
          "durationTicks": 384,
          "midi": 25,
          "name": "C#1",
          "ticks": 61824,
          "time": 41.999909,
          "velocity": 0.3937007874015748
        },
        {
          "duration": 0.2608689999999996,
          "durationTicks": 384,
          "midi": 73,
          "name": "C#5",
          "ticks": 61824,
          "time": 41.999909,
          "velocity": 0.3937007874015748
        },
        {
          "duration": 0.2608689999999996,
          "durationTicks": 384,
          "midi": 61,
          "name": "C#4",
          "ticks": 61824,
          "time": 41.999909,
          "velocity": 0.3937007874015748
        },
        {
          "duration": 0.2608689999999996,
          "durationTicks": 384,
          "midi": 32,
          "name": "G#1",
          "ticks": 61824,
          "time": 41.999909,
          "velocity": 0.3937007874015748
        },
        {
          "duration": 0.2608689999999996,
          "durationTicks": 384,
          "midi": 37,
          "name": "C#2",
          "ticks": 61824,
          "time": 41.999909,
          "velocity": 0.3937007874015748
        },
        {
          "duration": 0.2608689999999996,
          "durationTicks": 384,
          "midi": 73,
          "name": "C#5",
          "ticks": 62208,
          "time": 42.260778,
          "velocity": 0.3937007874015748
        },
        {
          "duration": 0.2608689999999996,
          "durationTicks": 384,
          "midi": 61,
          "name": "C#4",
          "ticks": 62208,
          "time": 42.260778,
          "velocity": 0.3937007874015748
        },
        {
          "duration": 0.2608689999999996,
          "durationTicks": 384,
          "midi": 25,
          "name": "C#1",
          "ticks": 62208,
          "time": 42.260778,
          "velocity": 0.3937007874015748
        },
        {
          "duration": 0.2608689999999996,
          "durationTicks": 384,
          "midi": 37,
          "name": "C#2",
          "ticks": 62208,
          "time": 42.260778,
          "velocity": 0.3937007874015748
        },
        {
          "duration": 0.2608689999999996,
          "durationTicks": 384,
          "midi": 32,
          "name": "G#1",
          "ticks": 62208,
          "time": 42.260778,
          "velocity": 0.3937007874015748
        },
        {
          "duration": 0.2608689999999996,
          "durationTicks": 384,
          "midi": 29,
          "name": "F1",
          "ticks": 62208,
          "time": 42.260778,
          "velocity": 0.3937007874015748
        },
        {
          "duration": 0.2608689999999996,
          "durationTicks": 384,
          "midi": 37,
          "name": "C#2",
          "ticks": 62592,
          "time": 42.521647,
          "velocity": 0.3937007874015748
        },
        {
          "duration": 0.2608689999999996,
          "durationTicks": 384,
          "midi": 29,
          "name": "F1",
          "ticks": 62592,
          "time": 42.521647,
          "velocity": 0.3937007874015748
        },
        {
          "duration": 0.2608689999999996,
          "durationTicks": 384,
          "midi": 64,
          "name": "E4",
          "ticks": 62592,
          "time": 42.521647,
          "velocity": 0.3937007874015748
        },
        {
          "duration": 0.2608689999999996,
          "durationTicks": 384,
          "midi": 52,
          "name": "E3",
          "ticks": 62592,
          "time": 42.521647,
          "velocity": 0.3937007874015748
        },
        {
          "duration": 0.2608689999999996,
          "durationTicks": 384,
          "midi": 25,
          "name": "C#1",
          "ticks": 62592,
          "time": 42.521647,
          "velocity": 0.3937007874015748
        },
        {
          "duration": 0.2608689999999996,
          "durationTicks": 384,
          "midi": 32,
          "name": "G#1",
          "ticks": 62592,
          "time": 42.521647,
          "velocity": 0.3937007874015748
        },
        {
          "duration": 0.2608689999999996,
          "durationTicks": 384,
          "midi": 61,
          "name": "C#4",
          "ticks": 62976,
          "time": 42.782516,
          "velocity": 0.3937007874015748
        },
        {
          "duration": 0.2608689999999996,
          "durationTicks": 384,
          "midi": 73,
          "name": "C#5",
          "ticks": 62976,
          "time": 42.782516,
          "velocity": 0.3937007874015748
        },
        {
          "duration": 0.2608689999999996,
          "durationTicks": 384,
          "midi": 59,
          "name": "B3",
          "ticks": 63360,
          "time": 43.043385,
          "velocity": 0.3937007874015748
        },
        {
          "duration": 0.2608689999999996,
          "durationTicks": 384,
          "midi": 71,
          "name": "B4",
          "ticks": 63360,
          "time": 43.043385,
          "velocity": 0.3937007874015748
        },
        {
          "duration": 0.2608689999999996,
          "durationTicks": 384,
          "midi": 73,
          "name": "C#5",
          "ticks": 63744,
          "time": 43.304254,
          "velocity": 0.3937007874015748
        },
        {
          "duration": 0.2608689999999996,
          "durationTicks": 384,
          "midi": 61,
          "name": "C#4",
          "ticks": 63744,
          "time": 43.304254,
          "velocity": 0.3937007874015748
        },
        {
          "duration": 0.2608689999999996,
          "durationTicks": 384,
          "midi": 62,
          "name": "D4",
          "ticks": 64128,
          "time": 43.565123,
          "velocity": 0.3937007874015748
        },
        {
          "duration": 0.2608689999999996,
          "durationTicks": 384,
          "midi": 74,
          "name": "D5",
          "ticks": 64128,
          "time": 43.565123,
          "velocity": 0.3937007874015748
        },
        {
          "duration": 0.5217380000000063,
          "durationTicks": 768,
          "midi": 69,
          "name": "A4",
          "ticks": 64512,
          "time": 43.825992,
          "velocity": 0.3937007874015748
        },
        {
          "duration": 0.5217380000000063,
          "durationTicks": 768,
          "midi": 76,
          "name": "E5",
          "ticks": 64512,
          "time": 43.825992,
          "velocity": 0.3937007874015748
        },
        {
          "duration": 0.1304345000000069,
          "durationTicks": 192,
          "midi": 26,
          "name": "D1",
          "ticks": 64512,
          "time": 43.825992,
          "velocity": 0.3937007874015748
        },
        {
          "duration": 0.5217380000000063,
          "durationTicks": 768,
          "midi": 64,
          "name": "E4",
          "ticks": 64512,
          "time": 43.825992,
          "velocity": 0.3937007874015748
        },
        {
          "duration": 0.1304344999999998,
          "durationTicks": 192,
          "midi": 33,
          "name": "A1",
          "ticks": 64704,
          "time": 43.956426500000006,
          "velocity": 0.3937007874015748
        },
        {
          "duration": 0.1304344999999998,
          "durationTicks": 192,
          "midi": 38,
          "name": "D2",
          "ticks": 64896,
          "time": 44.086861000000006,
          "velocity": 0.3937007874015748
        },
        {
          "duration": 0.1304344999999998,
          "durationTicks": 192,
          "midi": 30,
          "name": "F#1",
          "ticks": 64896,
          "time": 44.086861000000006,
          "velocity": 0.3937007874015748
        },
        {
          "duration": 0.1304344999999998,
          "durationTicks": 192,
          "midi": 33,
          "name": "A1",
          "ticks": 65088,
          "time": 44.217295500000006,
          "velocity": 0.3937007874015748
        },
        {
          "duration": 0.2608689999999996,
          "durationTicks": 384,
          "midi": 66,
          "name": "F#4",
          "ticks": 65280,
          "time": 44.347730000000006,
          "velocity": 0.3937007874015748
        },
        {
          "duration": 0.2608689999999996,
          "durationTicks": 384,
          "midi": 69,
          "name": "A4",
          "ticks": 65280,
          "time": 44.347730000000006,
          "velocity": 0.3937007874015748
        },
        {
          "duration": 0.2608689999999996,
          "durationTicks": 384,
          "midi": 74,
          "name": "D5",
          "ticks": 65280,
          "time": 44.347730000000006,
          "velocity": 0.3937007874015748
        },
        {
          "duration": 0.1304344999999998,
          "durationTicks": 192,
          "midi": 42,
          "name": "F#2",
          "ticks": 65280,
          "time": 44.347730000000006,
          "velocity": 0.3937007874015748
        },
        {
          "duration": 0.2608689999999996,
          "durationTicks": 384,
          "midi": 78,
          "name": "F#5",
          "ticks": 65280,
          "time": 44.347730000000006,
          "velocity": 0.3937007874015748
        },
        {
          "duration": 0.1304344999999998,
          "durationTicks": 192,
          "midi": 30,
          "name": "F#1",
          "ticks": 65280,
          "time": 44.347730000000006,
          "velocity": 0.3937007874015748
        },
        {
          "duration": 0.1304344999999998,
          "durationTicks": 192,
          "midi": 38,
          "name": "D2",
          "ticks": 65472,
          "time": 44.478164500000005,
          "velocity": 0.3937007874015748
        },
        {
          "duration": 0.2608689999999996,
          "durationTicks": 384,
          "midi": 69,
          "name": "A4",
          "ticks": 65664,
          "time": 44.608599000000005,
          "velocity": 0.3937007874015748
        },
        {
          "duration": 0.1304344999999998,
          "durationTicks": 192,
          "midi": 33,
          "name": "A1",
          "ticks": 65664,
          "time": 44.608599000000005,
          "velocity": 0.3937007874015748
        },
        {
          "duration": 0.2608689999999996,
          "durationTicks": 384,
          "midi": 76,
          "name": "E5",
          "ticks": 65664,
          "time": 44.608599000000005,
          "velocity": 0.3937007874015748
        },
        {
          "duration": 0.1304344999999998,
          "durationTicks": 192,
          "midi": 26,
          "name": "D1",
          "ticks": 65664,
          "time": 44.608599000000005,
          "velocity": 0.3937007874015748
        },
        {
          "duration": 0.2608689999999996,
          "durationTicks": 384,
          "midi": 64,
          "name": "E4",
          "ticks": 65664,
          "time": 44.608599000000005,
          "velocity": 0.3937007874015748
        },
        {
          "duration": 0.1304344999999998,
          "durationTicks": 192,
          "midi": 30,
          "name": "F#1",
          "ticks": 65856,
          "time": 44.739033500000005,
          "velocity": 0.3937007874015748
        },
        {
          "duration": 0.1304344999999998,
          "durationTicks": 192,
          "midi": 29,
          "name": "F1",
          "ticks": 66048,
          "time": 44.869468000000005,
          "velocity": 0.3937007874015748
        },
        {
          "duration": 0.1304344999999998,
          "durationTicks": 192,
          "midi": 35,
          "name": "B1",
          "ticks": 66240,
          "time": 44.999902500000005,
          "velocity": 0.3937007874015748
        },
        {
          "duration": 0.2608689999999996,
          "durationTicks": 384,
          "midi": 62,
          "name": "D4",
          "ticks": 66432,
          "time": 45.130337000000004,
          "velocity": 0.3937007874015748
        },
        {
          "duration": 0.2608689999999996,
          "durationTicks": 384,
          "midi": 74,
          "name": "D5",
          "ticks": 66432,
          "time": 45.130337000000004,
          "velocity": 0.3937007874015748
        },
        {
          "duration": 0.1304344999999998,
          "durationTicks": 192,
          "midi": 41,
          "name": "F2",
          "ticks": 66432,
          "time": 45.130337000000004,
          "velocity": 0.3937007874015748
        },
        {
          "duration": 0.2608689999999996,
          "durationTicks": 384,
          "midi": 68,
          "name": "G#4",
          "ticks": 66432,
          "time": 45.130337000000004,
          "velocity": 0.3937007874015748
        },
        {
          "duration": 0.1304344999999998,
          "durationTicks": 192,
          "midi": 32,
          "name": "G#1",
          "ticks": 66432,
          "time": 45.130337000000004,
          "velocity": 0.3937007874015748
        },
        {
          "duration": 0.1304344999999998,
          "durationTicks": 192,
          "midi": 44,
          "name": "G#2",
          "ticks": 66624,
          "time": 45.260771500000004,
          "velocity": 0.3937007874015748
        },
        {
          "duration": 0.2608689999999996,
          "durationTicks": 384,
          "midi": 73,
          "name": "C#5",
          "ticks": 66816,
          "time": 45.391206000000004,
          "velocity": 0.3937007874015748
        },
        {
          "duration": 0.1304344999999998,
          "durationTicks": 192,
          "midi": 47,
          "name": "B2",
          "ticks": 66816,
          "time": 45.391206000000004,
          "velocity": 0.3937007874015748
        },
        {
          "duration": 0.2608689999999996,
          "durationTicks": 384,
          "midi": 61,
          "name": "C#4",
          "ticks": 66816,
          "time": 45.391206000000004,
          "velocity": 0.3937007874015748
        },
        {
          "duration": 0.1304344999999998,
          "durationTicks": 192,
          "midi": 35,
          "name": "B1",
          "ticks": 66816,
          "time": 45.391206000000004,
          "velocity": 0.3937007874015748
        },
        {
          "duration": 0.2608689999999996,
          "durationTicks": 384,
          "midi": 65,
          "name": "F4",
          "ticks": 66816,
          "time": 45.391206000000004,
          "velocity": 0.3937007874015748
        },
        {
          "duration": 0.1304344999999998,
          "durationTicks": 192,
          "midi": 41,
          "name": "F2",
          "ticks": 67008,
          "time": 45.521640500000004,
          "velocity": 0.3937007874015748
        },
        {
          "duration": 0.1304344999999998,
          "durationTicks": 192,
          "midi": 35,
          "name": "B1",
          "ticks": 67200,
          "time": 45.652075,
          "velocity": 0.3937007874015748
        },
        {
          "duration": 0.1304344999999998,
          "durationTicks": 192,
          "midi": 29,
          "name": "F1",
          "ticks": 67200,
          "time": 45.652075,
          "velocity": 0.3937007874015748
        },
        {
          "duration": 0.2608689999999996,
          "durationTicks": 384,
          "midi": 62,
          "name": "D4",
          "ticks": 67200,
          "time": 45.652075,
          "velocity": 0.3937007874015748
        },
        {
          "duration": 0.2608689999999996,
          "durationTicks": 384,
          "midi": 68,
          "name": "G#4",
          "ticks": 67200,
          "time": 45.652075,
          "velocity": 0.3937007874015748
        },
        {
          "duration": 0.2608689999999996,
          "durationTicks": 384,
          "midi": 74,
          "name": "D5",
          "ticks": 67200,
          "time": 45.652075,
          "velocity": 0.3937007874015748
        },
        {
          "duration": 0.1304344999999998,
          "durationTicks": 192,
          "midi": 32,
          "name": "G#1",
          "ticks": 67392,
          "time": 45.7825095,
          "velocity": 0.3937007874015748
        },
        {
          "duration": 0.5217379999999991,
          "durationTicks": 768,
          "midi": 64,
          "name": "E4",
          "ticks": 67584,
          "time": 45.912944,
          "velocity": 0.3937007874015748
        },
        {
          "duration": 0.5217379999999991,
          "durationTicks": 768,
          "midi": 69,
          "name": "A4",
          "ticks": 67584,
          "time": 45.912944,
          "velocity": 0.3937007874015748
        },
        {
          "duration": 0.5217379999999991,
          "durationTicks": 768,
          "midi": 76,
          "name": "E5",
          "ticks": 67584,
          "time": 45.912944,
          "velocity": 0.3937007874015748
        },
        {
          "duration": 0.1304344999999998,
          "durationTicks": 192,
          "midi": 30,
          "name": "F#1",
          "ticks": 67584,
          "time": 45.912944,
          "velocity": 0.3937007874015748
        },
        {
          "duration": 0.5217379999999991,
          "durationTicks": 768,
          "midi": 73,
          "name": "C#5",
          "ticks": 67584,
          "time": 45.912944,
          "velocity": 0.3937007874015748
        },
        {
          "duration": 0.1304344999999998,
          "durationTicks": 192,
          "midi": 37,
          "name": "C#2",
          "ticks": 67776,
          "time": 46.0433785,
          "velocity": 0.3937007874015748
        },
        {
          "duration": 0.1304344999999998,
          "durationTicks": 192,
          "midi": 42,
          "name": "F#2",
          "ticks": 67968,
          "time": 46.173813,
          "velocity": 0.3937007874015748
        },
        {
          "duration": 0.1304344999999998,
          "durationTicks": 192,
          "midi": 33,
          "name": "A1",
          "ticks": 67968,
          "time": 46.173813,
          "velocity": 0.3937007874015748
        },
        {
          "duration": 0.1304344999999998,
          "durationTicks": 192,
          "midi": 45,
          "name": "A2",
          "ticks": 68160,
          "time": 46.3042475,
          "velocity": 0.3937007874015748
        },
        {
          "duration": 0.2608689999999996,
          "durationTicks": 384,
          "midi": 69,
          "name": "A4",
          "ticks": 68352,
          "time": 46.434682,
          "velocity": 0.3937007874015748
        },
        {
          "duration": 0.1304344999999998,
          "durationTicks": 192,
          "midi": 37,
          "name": "C#2",
          "ticks": 68352,
          "time": 46.434682,
          "velocity": 0.3937007874015748
        },
        {
          "duration": 0.2608689999999996,
          "durationTicks": 384,
          "midi": 78,
          "name": "F#5",
          "ticks": 68352,
          "time": 46.434682,
          "velocity": 0.3937007874015748
        },
        {
          "duration": 0.1304344999999998,
          "durationTicks": 192,
          "midi": 49,
          "name": "C#3",
          "ticks": 68352,
          "time": 46.434682,
          "velocity": 0.3937007874015748
        },
        {
          "duration": 0.2608689999999996,
          "durationTicks": 384,
          "midi": 66,
          "name": "F#4",
          "ticks": 68352,
          "time": 46.434682,
          "velocity": 0.3937007874015748
        },
        {
          "duration": 0.2608689999999996,
          "durationTicks": 384,
          "midi": 73,
          "name": "C#5",
          "ticks": 68352,
          "time": 46.434682,
          "velocity": 0.3937007874015748
        },
        {
          "duration": 0.1304344999999998,
          "durationTicks": 192,
          "midi": 42,
          "name": "F#2",
          "ticks": 68544,
          "time": 46.5651165,
          "velocity": 0.3937007874015748
        },
        {
          "duration": 0.2608689999999996,
          "durationTicks": 384,
          "midi": 76,
          "name": "E5",
          "ticks": 68736,
          "time": 46.695551,
          "velocity": 0.3937007874015748
        },
        {
          "duration": 0.1304344999999998,
          "durationTicks": 192,
          "midi": 30,
          "name": "F#1",
          "ticks": 68736,
          "time": 46.695551,
          "velocity": 0.3937007874015748
        },
        {
          "duration": 0.2608689999999996,
          "durationTicks": 384,
          "midi": 69,
          "name": "A4",
          "ticks": 68736,
          "time": 46.695551,
          "velocity": 0.3937007874015748
        },
        {
          "duration": 0.2608689999999996,
          "durationTicks": 384,
          "midi": 64,
          "name": "E4",
          "ticks": 68736,
          "time": 46.695551,
          "velocity": 0.3937007874015748
        },
        {
          "duration": 0.2608689999999996,
          "durationTicks": 384,
          "midi": 73,
          "name": "C#5",
          "ticks": 68736,
          "time": 46.695551,
          "velocity": 0.3937007874015748
        },
        {
          "duration": 0.1304344999999998,
          "durationTicks": 192,
          "midi": 37,
          "name": "C#2",
          "ticks": 68736,
          "time": 46.695551,
          "velocity": 0.3937007874015748
        },
        {
          "duration": 0.1304344999999998,
          "durationTicks": 192,
          "midi": 33,
          "name": "A1",
          "ticks": 68928,
          "time": 46.8259855,
          "velocity": 0.3937007874015748
        },
        {
          "duration": 0.1304344999999998,
          "durationTicks": 192,
          "midi": 28,
          "name": "E1",
          "ticks": 69120,
          "time": 46.95642,
          "velocity": 0.3937007874015748
        },
        {
          "duration": 0.1304344999999998,
          "durationTicks": 192,
          "midi": 35,
          "name": "B1",
          "ticks": 69312,
          "time": 47.0868545,
          "velocity": 0.3937007874015748
        },
        {
          "duration": 0.2608689999999996,
          "durationTicks": 384,
          "midi": 62,
          "name": "D4",
          "ticks": 69504,
          "time": 47.217289,
          "velocity": 0.3937007874015748
        },
        {
          "duration": 0.2608689999999996,
          "durationTicks": 384,
          "midi": 68,
          "name": "G#4",
          "ticks": 69504,
          "time": 47.217289,
          "velocity": 0.3937007874015748
        },
        {
          "duration": 0.1304344999999998,
          "durationTicks": 192,
          "midi": 40,
          "name": "E2",
          "ticks": 69504,
          "time": 47.217289,
          "velocity": 0.3937007874015748
        },
        {
          "duration": 0.1304344999999998,
          "durationTicks": 192,
          "midi": 32,
          "name": "G#1",
          "ticks": 69504,
          "time": 47.217289,
          "velocity": 0.3937007874015748
        },
        {
          "duration": 0.2608689999999996,
          "durationTicks": 384,
          "midi": 74,
          "name": "D5",
          "ticks": 69504,
          "time": 47.217289,
          "velocity": 0.3937007874015748
        },
        {
          "duration": 0.1304344999999998,
          "durationTicks": 192,
          "midi": 44,
          "name": "G#2",
          "ticks": 69696,
          "time": 47.3477235,
          "velocity": 0.3937007874015748
        },
        {
          "duration": 0.2608689999999996,
          "durationTicks": 384,
          "midi": 68,
          "name": "G#4",
          "ticks": 69888,
          "time": 47.478158,
          "velocity": 0.3937007874015748
        },
        {
          "duration": 0.2608689999999996,
          "durationTicks": 384,
          "midi": 61,
          "name": "C#4",
          "ticks": 69888,
          "time": 47.478158,
          "velocity": 0.3937007874015748
        },
        {
          "duration": 0.1304344999999998,
          "durationTicks": 192,
          "midi": 47,
          "name": "B2",
          "ticks": 69888,
          "time": 47.478158,
          "velocity": 0.3937007874015748
        },
        {
          "duration": 0.2608689999999996,
          "durationTicks": 384,
          "midi": 73,
          "name": "C#5",
          "ticks": 69888,
          "time": 47.478158,
          "velocity": 0.3937007874015748
        },
        {
          "duration": 0.1304344999999998,
          "durationTicks": 192,
          "midi": 35,
          "name": "B1",
          "ticks": 69888,
          "time": 47.478158,
          "velocity": 0.3937007874015748
        },
        {
          "duration": 0.1304344999999998,
          "durationTicks": 192,
          "midi": 40,
          "name": "E2",
          "ticks": 70080,
          "time": 47.6085925,
          "velocity": 0.3937007874015748
        },
        {
          "duration": 0.2608690000000067,
          "durationTicks": 384,
          "midi": 62,
          "name": "D4",
          "ticks": 70272,
          "time": 47.739027,
          "velocity": 0.3937007874015748
        },
        {
          "duration": 0.2608690000000067,
          "durationTicks": 384,
          "midi": 68,
          "name": "G#4",
          "ticks": 70272,
          "time": 47.739027,
          "velocity": 0.3937007874015748
        },
        {
          "duration": 0.1304344999999998,
          "durationTicks": 192,
          "midi": 28,
          "name": "E1",
          "ticks": 70272,
          "time": 47.739027,
          "velocity": 0.3937007874015748
        },
        {
          "duration": 0.2608690000000067,
          "durationTicks": 384,
          "midi": 74,
          "name": "D5",
          "ticks": 70272,
          "time": 47.739027,
          "velocity": 0.3937007874015748
        },
        {
          "duration": 0.1304344999999998,
          "durationTicks": 192,
          "midi": 35,
          "name": "B1",
          "ticks": 70272,
          "time": 47.739027,
          "velocity": 0.3937007874015748
        },
        {
          "duration": 0.1304345000000069,
          "durationTicks": 192,
          "midi": 32,
          "name": "G#1",
          "ticks": 70464,
          "time": 47.8694615,
          "velocity": 0.3937007874015748
        },
        {
          "duration": 0.1304344999999998,
          "durationTicks": 192,
          "midi": 26,
          "name": "D1",
          "ticks": 70656,
          "time": 47.99989600000001,
          "velocity": 0.3937007874015748
        },
        {
          "duration": 0.5217379999999991,
          "durationTicks": 768,
          "midi": 69,
          "name": "A4",
          "ticks": 70656,
          "time": 47.99989600000001,
          "velocity": 0.3937007874015748
        },
        {
          "duration": 0.5217379999999991,
          "durationTicks": 768,
          "midi": 64,
          "name": "E4",
          "ticks": 70656,
          "time": 47.99989600000001,
          "velocity": 0.3937007874015748
        },
        {
          "duration": 0.5217379999999991,
          "durationTicks": 768,
          "midi": 76,
          "name": "E5",
          "ticks": 70656,
          "time": 47.99989600000001,
          "velocity": 0.3937007874015748
        },
        {
          "duration": 0.1304344999999998,
          "durationTicks": 192,
          "midi": 33,
          "name": "A1",
          "ticks": 70848,
          "time": 48.13033050000001,
          "velocity": 0.3937007874015748
        },
        {
          "duration": 0.1304344999999998,
          "durationTicks": 192,
          "midi": 38,
          "name": "D2",
          "ticks": 71040,
          "time": 48.260765000000006,
          "velocity": 0.3937007874015748
        },
        {
          "duration": 0.1304344999999998,
          "durationTicks": 192,
          "midi": 30,
          "name": "F#1",
          "ticks": 71040,
          "time": 48.260765000000006,
          "velocity": 0.3937007874015748
        },
        {
          "duration": 0.1304344999999998,
          "durationTicks": 192,
          "midi": 33,
          "name": "A1",
          "ticks": 71232,
          "time": 48.391199500000006,
          "velocity": 0.3937007874015748
        },
        {
          "duration": 0.1304344999999998,
          "durationTicks": 192,
          "midi": 30,
          "name": "F#1",
          "ticks": 71424,
          "time": 48.521634000000006,
          "velocity": 0.3937007874015748
        },
        {
          "duration": 0.2608689999999996,
          "durationTicks": 384,
          "midi": 74,
          "name": "D5",
          "ticks": 71424,
          "time": 48.521634000000006,
          "velocity": 0.3937007874015748
        },
        {
          "duration": 0.2608689999999996,
          "durationTicks": 384,
          "midi": 66,
          "name": "F#4",
          "ticks": 71424,
          "time": 48.521634000000006,
          "velocity": 0.3937007874015748
        },
        {
          "duration": 0.2608689999999996,
          "durationTicks": 384,
          "midi": 69,
          "name": "A4",
          "ticks": 71424,
          "time": 48.521634000000006,
          "velocity": 0.3937007874015748
        },
        {
          "duration": 0.1304344999999998,
          "durationTicks": 192,
          "midi": 42,
          "name": "F#2",
          "ticks": 71424,
          "time": 48.521634000000006,
          "velocity": 0.3937007874015748
        },
        {
          "duration": 0.2608689999999996,
          "durationTicks": 384,
          "midi": 78,
          "name": "F#5",
          "ticks": 71424,
          "time": 48.521634000000006,
          "velocity": 0.3937007874015748
        },
        {
          "duration": 0.1304344999999998,
          "durationTicks": 192,
          "midi": 38,
          "name": "D2",
          "ticks": 71616,
          "time": 48.652068500000006,
          "velocity": 0.3937007874015748
        },
        {
          "duration": 0.2608689999999996,
          "durationTicks": 384,
          "midi": 69,
          "name": "A4",
          "ticks": 71808,
          "time": 48.782503000000005,
          "velocity": 0.3937007874015748
        },
        {
          "duration": 0.2608689999999996,
          "durationTicks": 384,
          "midi": 64,
          "name": "E4",
          "ticks": 71808,
          "time": 48.782503000000005,
          "velocity": 0.3937007874015748
        },
        {
          "duration": 0.1304344999999998,
          "durationTicks": 192,
          "midi": 33,
          "name": "A1",
          "ticks": 71808,
          "time": 48.782503000000005,
          "velocity": 0.3937007874015748
        },
        {
          "duration": 0.2608689999999996,
          "durationTicks": 384,
          "midi": 76,
          "name": "E5",
          "ticks": 71808,
          "time": 48.782503000000005,
          "velocity": 0.3937007874015748
        },
        {
          "duration": 0.1304344999999998,
          "durationTicks": 192,
          "midi": 26,
          "name": "D1",
          "ticks": 71808,
          "time": 48.782503000000005,
          "velocity": 0.3937007874015748
        },
        {
          "duration": 0.1304344999999998,
          "durationTicks": 192,
          "midi": 30,
          "name": "F#1",
          "ticks": 72000,
          "time": 48.912937500000005,
          "velocity": 0.3937007874015748
        },
        {
          "duration": 0.1304344999999998,
          "durationTicks": 192,
          "midi": 29,
          "name": "F1",
          "ticks": 72192,
          "time": 49.043372000000005,
          "velocity": 0.3937007874015748
        },
        {
          "duration": 0.1304344999999998,
          "durationTicks": 192,
          "midi": 35,
          "name": "B1",
          "ticks": 72384,
          "time": 49.173806500000005,
          "velocity": 0.3937007874015748
        },
        {
          "duration": 0.1304344999999998,
          "durationTicks": 192,
          "midi": 41,
          "name": "F2",
          "ticks": 72576,
          "time": 49.304241000000005,
          "velocity": 0.3937007874015748
        },
        {
          "duration": 0.2608689999999996,
          "durationTicks": 384,
          "midi": 62,
          "name": "D4",
          "ticks": 72576,
          "time": 49.304241000000005,
          "velocity": 0.3937007874015748
        },
        {
          "duration": 0.2608689999999996,
          "durationTicks": 384,
          "midi": 68,
          "name": "G#4",
          "ticks": 72576,
          "time": 49.304241000000005,
          "velocity": 0.3937007874015748
        },
        {
          "duration": 0.2608689999999996,
          "durationTicks": 384,
          "midi": 74,
          "name": "D5",
          "ticks": 72576,
          "time": 49.304241000000005,
          "velocity": 0.3937007874015748
        },
        {
          "duration": 0.1304344999999998,
          "durationTicks": 192,
          "midi": 32,
          "name": "G#1",
          "ticks": 72576,
          "time": 49.304241000000005,
          "velocity": 0.3937007874015748
        },
        {
          "duration": 0.1304344999999998,
          "durationTicks": 192,
          "midi": 44,
          "name": "G#2",
          "ticks": 72768,
          "time": 49.434675500000004,
          "velocity": 0.3937007874015748
        },
        {
          "duration": 0.1304344999999998,
          "durationTicks": 192,
          "midi": 47,
          "name": "B2",
          "ticks": 72960,
          "time": 49.565110000000004,
          "velocity": 0.3937007874015748
        },
        {
          "duration": 0.2608689999999996,
          "durationTicks": 384,
          "midi": 65,
          "name": "F4",
          "ticks": 72960,
          "time": 49.565110000000004,
          "velocity": 0.3937007874015748
        },
        {
          "duration": 0.1304344999999998,
          "durationTicks": 192,
          "midi": 35,
          "name": "B1",
          "ticks": 72960,
          "time": 49.565110000000004,
          "velocity": 0.3937007874015748
        },
        {
          "duration": 0.2608689999999996,
          "durationTicks": 384,
          "midi": 61,
          "name": "C#4",
          "ticks": 72960,
          "time": 49.565110000000004,
          "velocity": 0.3937007874015748
        },
        {
          "duration": 0.2608689999999996,
          "durationTicks": 384,
          "midi": 73,
          "name": "C#5",
          "ticks": 72960,
          "time": 49.565110000000004,
          "velocity": 0.3937007874015748
        },
        {
          "duration": 0.1304344999999998,
          "durationTicks": 192,
          "midi": 41,
          "name": "F2",
          "ticks": 73152,
          "time": 49.695544500000004,
          "velocity": 0.3937007874015748
        },
        {
          "duration": 0.1304344999999998,
          "durationTicks": 192,
          "midi": 35,
          "name": "B1",
          "ticks": 73344,
          "time": 49.825979000000004,
          "velocity": 0.3937007874015748
        },
        {
          "duration": 0.1304344999999998,
          "durationTicks": 192,
          "midi": 29,
          "name": "F1",
          "ticks": 73344,
          "time": 49.825979000000004,
          "velocity": 0.3937007874015748
        },
        {
          "duration": 0.2608689999999996,
          "durationTicks": 384,
          "midi": 71,
          "name": "B4",
          "ticks": 73344,
          "time": 49.825979000000004,
          "velocity": 0.3937007874015748
        },
        {
          "duration": 0.2608689999999996,
          "durationTicks": 384,
          "midi": 65,
          "name": "F4",
          "ticks": 73344,
          "time": 49.825979000000004,
          "velocity": 0.3937007874015748
        },
        {
          "duration": 0.2608689999999996,
          "durationTicks": 384,
          "midi": 59,
          "name": "B3",
          "ticks": 73344,
          "time": 49.825979000000004,
          "velocity": 0.3937007874015748
        },
        {
          "duration": 0.1304344999999998,
          "durationTicks": 192,
          "midi": 32,
          "name": "G#1",
          "ticks": 73536,
          "time": 49.956413500000004,
          "velocity": 0.3937007874015748
        },
        {
          "duration": 0.1304344999999998,
          "durationTicks": 192,
          "midi": 30,
          "name": "F#1",
          "ticks": 73728,
          "time": 50.086848,
          "velocity": 0.3937007874015748
        },
        {
          "duration": 0.2608689999999996,
          "durationTicks": 384,
          "midi": 66,
          "name": "F#4",
          "ticks": 73728,
          "time": 50.086848,
          "velocity": 0.3937007874015748
        },
        {
          "duration": 0.2608689999999996,
          "durationTicks": 384,
          "midi": 57,
          "name": "A3",
          "ticks": 73728,
          "time": 50.086848,
          "velocity": 0.3937007874015748
        },
        {
          "duration": 0.2608689999999996,
          "durationTicks": 384,
          "midi": 61,
          "name": "C#4",
          "ticks": 73728,
          "time": 50.086848,
          "velocity": 0.3937007874015748
        },
        {
          "duration": 0.2608689999999996,
          "durationTicks": 384,
          "midi": 69,
          "name": "A4",
          "ticks": 73728,
          "time": 50.086848,
          "velocity": 0.3937007874015748
        },
        {
          "duration": 0.1304344999999998,
          "durationTicks": 192,
          "midi": 37,
          "name": "C#2",
          "ticks": 73920,
          "time": 50.2172825,
          "velocity": 0.3937007874015748
        },
        {
          "duration": 0.39130349999999936,
          "durationTicks": 576,
          "midi": 73,
          "name": "C#5",
          "ticks": 74112,
          "time": 50.347717,
          "velocity": 0.3937007874015748
        },
        {
          "duration": 0.39130349999999936,
          "durationTicks": 576,
          "midi": 66,
          "name": "F#4",
          "ticks": 74112,
          "time": 50.347717,
          "velocity": 0.3937007874015748
        },
        {
          "duration": 0.39130349999999936,
          "durationTicks": 576,
          "midi": 61,
          "name": "C#4",
          "ticks": 74112,
          "time": 50.347717,
          "velocity": 0.3937007874015748
        },
        {
          "duration": 0.1304344999999998,
          "durationTicks": 192,
          "midi": 42,
          "name": "F#2",
          "ticks": 74112,
          "time": 50.347717,
          "velocity": 0.3937007874015748
        },
        {
          "duration": 0.39130349999999936,
          "durationTicks": 576,
          "midi": 69,
          "name": "A4",
          "ticks": 74112,
          "time": 50.347717,
          "velocity": 0.3937007874015748
        },
        {
          "duration": 0.1304344999999998,
          "durationTicks": 192,
          "midi": 33,
          "name": "A1",
          "ticks": 74112,
          "time": 50.347717,
          "velocity": 0.3937007874015748
        },
        {
          "duration": 0.1304344999999998,
          "durationTicks": 192,
          "midi": 45,
          "name": "A2",
          "ticks": 74304,
          "time": 50.4781515,
          "velocity": 0.3937007874015748
        },
        {
          "duration": 0.1304344999999998,
          "durationTicks": 192,
          "midi": 37,
          "name": "C#2",
          "ticks": 74496,
          "time": 50.608586,
          "velocity": 0.3937007874015748
        },
        {
          "duration": 0.1304344999999998,
          "durationTicks": 192,
          "midi": 49,
          "name": "C#3",
          "ticks": 74496,
          "time": 50.608586,
          "velocity": 0.3937007874015748
        },
        {
          "duration": 0.1304344999999998,
          "durationTicks": 192,
          "midi": 42,
          "name": "F#2",
          "ticks": 74688,
          "time": 50.7390205,
          "velocity": 0.3937007874015748
        },
        {
          "duration": 0.1304344999999998,
          "durationTicks": 192,
          "midi": 30,
          "name": "F#1",
          "ticks": 74880,
          "time": 50.869455,
          "velocity": 0.3937007874015748
        },
        {
          "duration": 0.1304344999999998,
          "durationTicks": 192,
          "midi": 37,
          "name": "C#2",
          "ticks": 74880,
          "time": 50.869455,
          "velocity": 0.3937007874015748
        },
        {
          "duration": 0.2608689999999996,
          "durationTicks": 384,
          "midi": 64,
          "name": "E4",
          "ticks": 74880,
          "time": 50.869455,
          "velocity": 0.3937007874015748
        },
        {
          "duration": 0.2608689999999996,
          "durationTicks": 384,
          "midi": 57,
          "name": "A3",
          "ticks": 74880,
          "time": 50.869455,
          "velocity": 0.3937007874015748
        },
        {
          "duration": 0.2608689999999996,
          "durationTicks": 384,
          "midi": 52,
          "name": "E3",
          "ticks": 74880,
          "time": 50.869455,
          "velocity": 0.3937007874015748
        },
        {
          "duration": 0.1304344999999998,
          "durationTicks": 192,
          "midi": 33,
          "name": "A1",
          "ticks": 75072,
          "time": 50.9998895,
          "velocity": 0.3937007874015748
        },
        {
          "duration": 0.1304344999999998,
          "durationTicks": 192,
          "midi": 28,
          "name": "E1",
          "ticks": 75264,
          "time": 51.130324,
          "velocity": 0.3937007874015748
        },
        {
          "duration": 0.2608689999999996,
          "durationTicks": 384,
          "midi": 61,
          "name": "C#4",
          "ticks": 75264,
          "time": 51.130324,
          "velocity": 0.3937007874015748
        },
        {
          "duration": 0.2608689999999996,
          "durationTicks": 384,
          "midi": 73,
          "name": "C#5",
          "ticks": 75264,
          "time": 51.130324,
          "velocity": 0.3937007874015748
        },
        {
          "duration": 0.2608689999999996,
          "durationTicks": 384,
          "midi": 68,
          "name": "G#4",
          "ticks": 75264,
          "time": 51.130324,
          "velocity": 0.3937007874015748
        },
        {
          "duration": 0.1304344999999998,
          "durationTicks": 192,
          "midi": 35,
          "name": "B1",
          "ticks": 75456,
          "time": 51.2607585,
          "velocity": 0.3937007874015748
        },
        {
          "duration": 0.2608689999999996,
          "durationTicks": 384,
          "midi": 71,
          "name": "B4",
          "ticks": 75648,
          "time": 51.391193,
          "velocity": 0.3937007874015748
        },
        {
          "duration": 0.1304344999999998,
          "durationTicks": 192,
          "midi": 32,
          "name": "G#1",
          "ticks": 75648,
          "time": 51.391193,
          "velocity": 0.3937007874015748
        },
        {
          "duration": 0.1304344999999998,
          "durationTicks": 192,
          "midi": 40,
          "name": "E2",
          "ticks": 75648,
          "time": 51.391193,
          "velocity": 0.3937007874015748
        },
        {
          "duration": 0.2608689999999996,
          "durationTicks": 384,
          "midi": 64,
          "name": "E4",
          "ticks": 75648,
          "time": 51.391193,
          "velocity": 0.3937007874015748
        },
        {
          "duration": 0.2608689999999996,
          "durationTicks": 384,
          "midi": 59,
          "name": "B3",
          "ticks": 75648,
          "time": 51.391193,
          "velocity": 0.3937007874015748
        },
        {
          "duration": 0.1304344999999998,
          "durationTicks": 192,
          "midi": 44,
          "name": "G#2",
          "ticks": 75840,
          "time": 51.5216275,
          "velocity": 0.3937007874015748
        },
        {
          "duration": 0.2608689999999996,
          "durationTicks": 384,
          "midi": 73,
          "name": "C#5",
          "ticks": 76032,
          "time": 51.652062,
          "velocity": 0.3937007874015748
        },
        {
          "duration": 0.1304344999999998,
          "durationTicks": 192,
          "midi": 35,
          "name": "B1",
          "ticks": 76032,
          "time": 51.652062,
          "velocity": 0.3937007874015748
        },
        {
          "duration": 0.1304344999999998,
          "durationTicks": 192,
          "midi": 47,
          "name": "B2",
          "ticks": 76032,
          "time": 51.652062,
          "velocity": 0.3937007874015748
        },
        {
          "duration": 0.2608689999999996,
          "durationTicks": 384,
          "midi": 61,
          "name": "C#4",
          "ticks": 76032,
          "time": 51.652062,
          "velocity": 0.3937007874015748
        },
        {
          "duration": 0.2608689999999996,
          "durationTicks": 384,
          "midi": 68,
          "name": "G#4",
          "ticks": 76032,
          "time": 51.652062,
          "velocity": 0.3937007874015748
        },
        {
          "duration": 0.1304344999999998,
          "durationTicks": 192,
          "midi": 40,
          "name": "E2",
          "ticks": 76224,
          "time": 51.7824965,
          "velocity": 0.3937007874015748
        },
        {
          "duration": 0.2608689999999996,
          "durationTicks": 384,
          "midi": 68,
          "name": "G#4",
          "ticks": 76416,
          "time": 51.912931,
          "velocity": 0.3937007874015748
        },
        {
          "duration": 0.2608689999999996,
          "durationTicks": 384,
          "midi": 74,
          "name": "D5",
          "ticks": 76416,
          "time": 51.912931,
          "velocity": 0.3937007874015748
        },
        {
          "duration": 0.1304344999999998,
          "durationTicks": 192,
          "midi": 28,
          "name": "E1",
          "ticks": 76416,
          "time": 51.912931,
          "velocity": 0.3937007874015748
        },
        {
          "duration": 0.2608689999999996,
          "durationTicks": 384,
          "midi": 62,
          "name": "D4",
          "ticks": 76416,
          "time": 51.912931,
          "velocity": 0.3937007874015748
        },
        {
          "duration": 0.1304344999999998,
          "durationTicks": 192,
          "midi": 35,
          "name": "B1",
          "ticks": 76416,
          "time": 51.912931,
          "velocity": 0.3937007874015748
        },
        {
          "duration": 0.1304344999999998,
          "durationTicks": 192,
          "midi": 32,
          "name": "G#1",
          "ticks": 76608,
          "time": 52.0433655,
          "velocity": 0.3937007874015748
        },
        {
          "duration": 0.5217380000000063,
          "durationTicks": 768,
          "midi": 76,
          "name": "E5",
          "ticks": 76800,
          "time": 52.1738,
          "velocity": 0.3937007874015748
        },
        {
          "duration": 0.5217380000000063,
          "durationTicks": 768,
          "midi": 64,
          "name": "E4",
          "ticks": 76800,
          "time": 52.1738,
          "velocity": 0.3937007874015748
        },
        {
          "duration": 0.5217380000000063,
          "durationTicks": 768,
          "midi": 69,
          "name": "A4",
          "ticks": 76800,
          "time": 52.1738,
          "velocity": 0.3937007874015748
        },
        {
          "duration": 0.1304345000000069,
          "durationTicks": 192,
          "midi": 27,
          "name": "D#1",
          "ticks": 76800,
          "time": 52.1738,
          "velocity": 0.3937007874015748
        },
        {
          "duration": 0.1304344999999998,
          "durationTicks": 192,
          "midi": 33,
          "name": "A1",
          "ticks": 76992,
          "time": 52.30423450000001,
          "velocity": 0.3937007874015748
        },
        {
          "duration": 0.1304344999999998,
          "durationTicks": 192,
          "midi": 39,
          "name": "D#2",
          "ticks": 77184,
          "time": 52.43466900000001,
          "velocity": 0.3937007874015748
        },
        {
          "duration": 0.1304344999999998,
          "durationTicks": 192,
          "midi": 30,
          "name": "F#1",
          "ticks": 77184,
          "time": 52.43466900000001,
          "velocity": 0.3937007874015748
        },
        {
          "duration": 0.1304344999999998,
          "durationTicks": 192,
          "midi": 42,
          "name": "F#2",
          "ticks": 77376,
          "time": 52.565103500000006,
          "velocity": 0.3937007874015748
        },
        {
          "duration": 0.1304344999999998,
          "durationTicks": 192,
          "midi": 39,
          "name": "D#2",
          "ticks": 77568,
          "time": 52.695538000000006,
          "velocity": 0.3937007874015748
        },
        {
          "duration": 0.2608689999999996,
          "durationTicks": 384,
          "midi": 69,
          "name": "A4",
          "ticks": 77568,
          "time": 52.695538000000006,
          "velocity": 0.3937007874015748
        },
        {
          "duration": 0.2608689999999996,
          "durationTicks": 384,
          "midi": 78,
          "name": "F#5",
          "ticks": 77568,
          "time": 52.695538000000006,
          "velocity": 0.3937007874015748
        },
        {
          "duration": 0.2608689999999996,
          "durationTicks": 384,
          "midi": 75,
          "name": "D#5",
          "ticks": 77568,
          "time": 52.695538000000006,
          "velocity": 0.3937007874015748
        },
        {
          "duration": 0.1304344999999998,
          "durationTicks": 192,
          "midi": 51,
          "name": "D#3",
          "ticks": 77568,
          "time": 52.695538000000006,
          "velocity": 0.3937007874015748
        },
        {
          "duration": 0.2608689999999996,
          "durationTicks": 384,
          "midi": 66,
          "name": "F#4",
          "ticks": 77568,
          "time": 52.695538000000006,
          "velocity": 0.3937007874015748
        },
        {
          "duration": 0.1304344999999998,
          "durationTicks": 192,
          "midi": 42,
          "name": "F#2",
          "ticks": 77760,
          "time": 52.825972500000006,
          "velocity": 0.3937007874015748
        },
        {
          "duration": 0.1304344999999998,
          "durationTicks": 192,
          "midi": 39,
          "name": "D#2",
          "ticks": 77952,
          "time": 52.956407000000006,
          "velocity": 0.3937007874015748
        },
        {
          "duration": 0.2608689999999996,
          "durationTicks": 384,
          "midi": 76,
          "name": "E5",
          "ticks": 77952,
          "time": 52.956407000000006,
          "velocity": 0.3937007874015748
        },
        {
          "duration": 0.1304344999999998,
          "durationTicks": 192,
          "midi": 30,
          "name": "F#1",
          "ticks": 77952,
          "time": 52.956407000000006,
          "velocity": 0.3937007874015748
        },
        {
          "duration": 0.2608689999999996,
          "durationTicks": 384,
          "midi": 64,
          "name": "E4",
          "ticks": 77952,
          "time": 52.956407000000006,
          "velocity": 0.3937007874015748
        },
        {
          "duration": 0.2608689999999996,
          "durationTicks": 384,
          "midi": 69,
          "name": "A4",
          "ticks": 77952,
          "time": 52.956407000000006,
          "velocity": 0.3937007874015748
        },
        {
          "duration": 0.1304344999999998,
          "durationTicks": 192,
          "midi": 33,
          "name": "A1",
          "ticks": 78144,
          "time": 53.086841500000006,
          "velocity": 0.3937007874015748
        },
        {
          "duration": 0.1304344999999998,
          "durationTicks": 192,
          "midi": 26,
          "name": "D1",
          "ticks": 78336,
          "time": 53.217276000000005,
          "velocity": 0.3937007874015748
        },
        {
          "duration": 0.1304344999999998,
          "durationTicks": 192,
          "midi": 33,
          "name": "A1",
          "ticks": 78528,
          "time": 53.347710500000005,
          "velocity": 0.3937007874015748
        },
        {
          "duration": 0.1304344999999998,
          "durationTicks": 192,
          "midi": 38,
          "name": "D2",
          "ticks": 78720,
          "time": 53.478145000000005,
          "velocity": 0.3937007874015748
        },
        {
          "duration": 0.2608689999999996,
          "durationTicks": 384,
          "midi": 62,
          "name": "D4",
          "ticks": 78720,
          "time": 53.478145000000005,
          "velocity": 0.3937007874015748
        },
        {
          "duration": 0.1304344999999998,
          "durationTicks": 192,
          "midi": 30,
          "name": "F#1",
          "ticks": 78720,
          "time": 53.478145000000005,
          "velocity": 0.3937007874015748
        },
        {
          "duration": 0.2608689999999996,
          "durationTicks": 384,
          "midi": 74,
          "name": "D5",
          "ticks": 78720,
          "time": 53.478145000000005,
          "velocity": 0.3937007874015748
        },
        {
          "duration": 0.2608689999999996,
          "durationTicks": 384,
          "midi": 69,
          "name": "A4",
          "ticks": 78720,
          "time": 53.478145000000005,
          "velocity": 0.3937007874015748
        },
        {
          "duration": 0.1304344999999998,
          "durationTicks": 192,
          "midi": 33,
          "name": "A1",
          "ticks": 78912,
          "time": 53.608579500000005,
          "velocity": 0.3937007874015748
        },
        {
          "duration": 0.2608689999999996,
          "durationTicks": 384,
          "midi": 66,
          "name": "F#4",
          "ticks": 79104,
          "time": 53.739014000000005,
          "velocity": 0.3937007874015748
        },
        {
          "duration": 0.2608689999999996,
          "durationTicks": 384,
          "midi": 73,
          "name": "C#5",
          "ticks": 79104,
          "time": 53.739014000000005,
          "velocity": 0.3937007874015748
        },
        {
          "duration": 0.1304344999999998,
          "durationTicks": 192,
          "midi": 30,
          "name": "F#1",
          "ticks": 79104,
          "time": 53.739014000000005,
          "velocity": 0.3937007874015748
        },
        {
          "duration": 0.2608689999999996,
          "durationTicks": 384,
          "midi": 61,
          "name": "C#4",
          "ticks": 79104,
          "time": 53.739014000000005,
          "velocity": 0.3937007874015748
        },
        {
          "duration": 0.1304344999999998,
          "durationTicks": 192,
          "midi": 42,
          "name": "F#2",
          "ticks": 79104,
          "time": 53.739014000000005,
          "velocity": 0.3937007874015748
        },
        {
          "duration": 0.1304344999999998,
          "durationTicks": 192,
          "midi": 38,
          "name": "D2",
          "ticks": 79296,
          "time": 53.869448500000004,
          "velocity": 0.3937007874015748
        },
        {
          "duration": 0.2608689999999996,
          "durationTicks": 384,
          "midi": 69,
          "name": "A4",
          "ticks": 79488,
          "time": 53.999883000000004,
          "velocity": 0.3937007874015748
        },
        {
          "duration": 0.2608689999999996,
          "durationTicks": 384,
          "midi": 62,
          "name": "D4",
          "ticks": 79488,
          "time": 53.999883000000004,
          "velocity": 0.3937007874015748
        },
        {
          "duration": 0.2608689999999996,
          "durationTicks": 384,
          "midi": 74,
          "name": "D5",
          "ticks": 79488,
          "time": 53.999883000000004,
          "velocity": 0.3937007874015748
        },
        {
          "duration": 0.1304344999999998,
          "durationTicks": 192,
          "midi": 26,
          "name": "D1",
          "ticks": 79488,
          "time": 53.999883000000004,
          "velocity": 0.3937007874015748
        },
        {
          "duration": 0.1304344999999998,
          "durationTicks": 192,
          "midi": 33,
          "name": "A1",
          "ticks": 79488,
          "time": 53.999883000000004,
          "velocity": 0.3937007874015748
        },
        {
          "duration": 0.1304344999999998,
          "durationTicks": 192,
          "midi": 30,
          "name": "F#1",
          "ticks": 79680,
          "time": 54.130317500000004,
          "velocity": 0.3937007874015748
        },
        {
          "duration": 0.5217379999999991,
          "durationTicks": 768,
          "midi": 71,
          "name": "B4",
          "ticks": 79872,
          "time": 54.260752000000004,
          "velocity": 0.3937007874015748
        },
        {
          "duration": 0.5217379999999991,
          "durationTicks": 768,
          "midi": 64,
          "name": "E4",
          "ticks": 79872,
          "time": 54.260752000000004,
          "velocity": 0.3937007874015748
        },
        {
          "duration": 0.5217379999999991,
          "durationTicks": 768,
          "midi": 68,
          "name": "G#4",
          "ticks": 79872,
          "time": 54.260752000000004,
          "velocity": 0.3937007874015748
        },
        {
          "duration": 0.1304344999999998,
          "durationTicks": 192,
          "midi": 25,
          "name": "C#1",
          "ticks": 79872,
          "time": 54.260752000000004,
          "velocity": 0.3937007874015748
        },
        {
          "duration": 0.5217379999999991,
          "durationTicks": 768,
          "midi": 76,
          "name": "E5",
          "ticks": 79872,
          "time": 54.260752000000004,
          "velocity": 0.3937007874015748
        },
        {
          "duration": 0.1304344999999998,
          "durationTicks": 192,
          "midi": 28,
          "name": "E1",
          "ticks": 80064,
          "time": 54.3911865,
          "velocity": 0.3937007874015748
        },
        {
          "duration": 0.1304344999999998,
          "durationTicks": 192,
          "midi": 25,
          "name": "C#1",
          "ticks": 80256,
          "time": 54.521621,
          "velocity": 0.3937007874015748
        },
        {
          "duration": 0.1304344999999998,
          "durationTicks": 192,
          "midi": 37,
          "name": "C#2",
          "ticks": 80256,
          "time": 54.521621,
          "velocity": 0.3937007874015748
        },
        {
          "duration": 0.1304344999999998,
          "durationTicks": 192,
          "midi": 44,
          "name": "G#2",
          "ticks": 80448,
          "time": 54.6520555,
          "velocity": 0.3937007874015748
        },
        {
          "duration": 0.2608689999999996,
          "durationTicks": 384,
          "midi": 66,
          "name": "F#4",
          "ticks": 80640,
          "time": 54.78249,
          "velocity": 0.3937007874015748
        },
        {
          "duration": 0.1304344999999998,
          "durationTicks": 192,
          "midi": 47,
          "name": "B2",
          "ticks": 80640,
          "time": 54.78249,
          "velocity": 0.3937007874015748
        },
        {
          "duration": 0.2608689999999996,
          "durationTicks": 384,
          "midi": 73,
          "name": "C#5",
          "ticks": 80640,
          "time": 54.78249,
          "velocity": 0.3937007874015748
        },
        {
          "duration": 0.2608689999999996,
          "durationTicks": 384,
          "midi": 78,
          "name": "F#5",
          "ticks": 80640,
          "time": 54.78249,
          "velocity": 0.3937007874015748
        },
        {
          "duration": 0.1304344999999998,
          "durationTicks": 192,
          "midi": 35,
          "name": "B1",
          "ticks": 80640,
          "time": 54.78249,
          "velocity": 0.3937007874015748
        },
        {
          "duration": 0.1304344999999998,
          "durationTicks": 192,
          "midi": 40,
          "name": "E2",
          "ticks": 80832,
          "time": 54.9129245,
          "velocity": 0.3937007874015748
        },
        {
          "duration": 0.2608689999999996,
          "durationTicks": 384,
          "midi": 64,
          "name": "E4",
          "ticks": 81024,
          "time": 55.043359,
          "velocity": 0.3937007874015748
        },
        {
          "duration": 0.2608689999999996,
          "durationTicks": 384,
          "midi": 68,
          "name": "G#4",
          "ticks": 81024,
          "time": 55.043359,
          "velocity": 0.3937007874015748
        },
        {
          "duration": 0.1304344999999998,
          "durationTicks": 192,
          "midi": 25,
          "name": "C#1",
          "ticks": 81024,
          "time": 55.043359,
          "velocity": 0.3937007874015748
        },
        {
          "duration": 0.1304344999999998,
          "durationTicks": 192,
          "midi": 35,
          "name": "B1",
          "ticks": 81024,
          "time": 55.043359,
          "velocity": 0.3937007874015748
        },
        {
          "duration": 0.2608689999999996,
          "durationTicks": 384,
          "midi": 76,
          "name": "E5",
          "ticks": 81024,
          "time": 55.043359,
          "velocity": 0.3937007874015748
        },
        {
          "duration": 0.2608689999999996,
          "durationTicks": 384,
          "midi": 71,
          "name": "B4",
          "ticks": 81024,
          "time": 55.043359,
          "velocity": 0.3937007874015748
        },
        {
          "duration": 0.1304344999999998,
          "durationTicks": 192,
          "midi": 32,
          "name": "G#1",
          "ticks": 81216,
          "time": 55.1737935,
          "velocity": 0.3937007874015748
        },
        {
          "duration": 0.1304344999999998,
          "durationTicks": 192,
          "midi": 24,
          "name": "C1",
          "ticks": 81408,
          "time": 55.304228,
          "velocity": 0.3937007874015748
        },
        {
          "duration": 0.1304344999999998,
          "durationTicks": 192,
          "midi": 28,
          "name": "E1",
          "ticks": 81600,
          "time": 55.4346625,
          "velocity": 0.3937007874015748
        },
        {
          "duration": 0.1304344999999998,
          "durationTicks": 192,
          "midi": 24,
          "name": "C1",
          "ticks": 81792,
          "time": 55.565097,
          "velocity": 0.3937007874015748
        },
        {
          "duration": 0.2608689999999996,
          "durationTicks": 384,
          "midi": 74,
          "name": "D5",
          "ticks": 81792,
          "time": 55.565097,
          "velocity": 0.3937007874015748
        },
        {
          "duration": 0.2608689999999996,
          "durationTicks": 384,
          "midi": 68,
          "name": "G#4",
          "ticks": 81792,
          "time": 55.565097,
          "velocity": 0.3937007874015748
        },
        {
          "duration": 0.2608689999999996,
          "durationTicks": 384,
          "midi": 62,
          "name": "D4",
          "ticks": 81792,
          "time": 55.565097,
          "velocity": 0.3937007874015748
        },
        {
          "duration": 0.1304344999999998,
          "durationTicks": 192,
          "midi": 36,
          "name": "C2",
          "ticks": 81792,
          "time": 55.565097,
          "velocity": 0.3937007874015748
        },
        {
          "duration": 0.1304344999999998,
          "durationTicks": 192,
          "midi": 43,
          "name": "G2",
          "ticks": 81984,
          "time": 55.6955315,
          "velocity": 0.3937007874015748
        },
        {
          "duration": 0.2608689999999996,
          "durationTicks": 384,
          "midi": 68,
          "name": "G#4",
          "ticks": 82176,
          "time": 55.825966,
          "velocity": 0.3937007874015748
        },
        {
          "duration": 0.2608689999999996,
          "durationTicks": 384,
          "midi": 61,
          "name": "C#4",
          "ticks": 82176,
          "time": 55.825966,
          "velocity": 0.3937007874015748
        },
        {
          "duration": 0.2608689999999996,
          "durationTicks": 384,
          "midi": 73,
          "name": "C#5",
          "ticks": 82176,
          "time": 55.825966,
          "velocity": 0.3937007874015748
        },
        {
          "duration": 0.1304344999999998,
          "durationTicks": 192,
          "midi": 48,
          "name": "C3",
          "ticks": 82176,
          "time": 55.825966,
          "velocity": 0.3937007874015748
        },
        {
          "duration": 0.1304344999999998,
          "durationTicks": 192,
          "midi": 36,
          "name": "C2",
          "ticks": 82176,
          "time": 55.825966,
          "velocity": 0.3937007874015748
        },
        {
          "duration": 0.1304344999999998,
          "durationTicks": 192,
          "midi": 40,
          "name": "E2",
          "ticks": 82368,
          "time": 55.9564005,
          "velocity": 0.3937007874015748
        },
        {
          "duration": 0.2608690000000067,
          "durationTicks": 384,
          "midi": 71,
          "name": "B4",
          "ticks": 82560,
          "time": 56.086835,
          "velocity": 0.3937007874015748
        },
        {
          "duration": 0.2608690000000067,
          "durationTicks": 384,
          "midi": 64,
          "name": "E4",
          "ticks": 82560,
          "time": 56.086835,
          "velocity": 0.3937007874015748
        },
        {
          "duration": 0.1304344999999998,
          "durationTicks": 192,
          "midi": 24,
          "name": "C1",
          "ticks": 82560,
          "time": 56.086835,
          "velocity": 0.3937007874015748
        },
        {
          "duration": 0.2608690000000067,
          "durationTicks": 384,
          "midi": 59,
          "name": "B3",
          "ticks": 82560,
          "time": 56.086835,
          "velocity": 0.3937007874015748
        },
        {
          "duration": 0.1304344999999998,
          "durationTicks": 192,
          "midi": 36,
          "name": "C2",
          "ticks": 82560,
          "time": 56.086835,
          "velocity": 0.3937007874015748
        },
        {
          "duration": 0.1304345000000069,
          "durationTicks": 192,
          "midi": 31,
          "name": "G1",
          "ticks": 82752,
          "time": 56.2172695,
          "velocity": 0.3937007874015748
        },
        {
          "duration": 0.2608689999999996,
          "durationTicks": 384,
          "midi": 66,
          "name": "F#4",
          "ticks": 82944,
          "time": 56.34770400000001,
          "velocity": 0.3937007874015748
        },
        {
          "duration": 0.2608689999999996,
          "durationTicks": 384,
          "midi": 62,
          "name": "D4",
          "ticks": 82944,
          "time": 56.34770400000001,
          "velocity": 0.3937007874015748
        },
        {
          "duration": 0.2608689999999996,
          "durationTicks": 384,
          "midi": 57,
          "name": "A3",
          "ticks": 82944,
          "time": 56.34770400000001,
          "velocity": 0.3937007874015748
        },
        {
          "duration": 0.2608689999999996,
          "durationTicks": 384,
          "midi": 69,
          "name": "A4",
          "ticks": 82944,
          "time": 56.34770400000001,
          "velocity": 0.3937007874015748
        },
        {
          "duration": 0.1304344999999998,
          "durationTicks": 192,
          "midi": 30,
          "name": "F#1",
          "ticks": 83136,
          "time": 56.47813850000001,
          "velocity": 0.3937007874015748
        },
        {
          "duration": 0.1304344999999998,
          "durationTicks": 192,
          "midi": 26,
          "name": "D1",
          "ticks": 83328,
          "time": 56.60857300000001,
          "velocity": 0.3937007874015748
        },
        {
          "duration": 0.1304344999999998,
          "durationTicks": 192,
          "midi": 38,
          "name": "D2",
          "ticks": 83328,
          "time": 56.60857300000001,
          "velocity": 0.3937007874015748
        },
        {
          "duration": 0.2608689999999996,
          "durationTicks": 384,
          "midi": 66,
          "name": "F#4",
          "ticks": 83328,
          "time": 56.60857300000001,
          "velocity": 0.3937007874015748
        },
        {
          "duration": 0.2608689999999996,
          "durationTicks": 384,
          "midi": 59,
          "name": "B3",
          "ticks": 83328,
          "time": 56.60857300000001,
          "velocity": 0.3937007874015748
        },
        {
          "duration": 0.2608689999999996,
          "durationTicks": 384,
          "midi": 62,
          "name": "D4",
          "ticks": 83328,
          "time": 56.60857300000001,
          "velocity": 0.3937007874015748
        },
        {
          "duration": 0.2608689999999996,
          "durationTicks": 384,
          "midi": 54,
          "name": "F#3",
          "ticks": 83328,
          "time": 56.60857300000001,
          "velocity": 0.3937007874015748
        },
        {
          "duration": 0.1304344999999998,
          "durationTicks": 192,
          "midi": 42,
          "name": "F#2",
          "ticks": 83520,
          "time": 56.73900750000001,
          "velocity": 0.3937007874015748
        },
        {
          "duration": 0.2608689999999996,
          "durationTicks": 384,
          "midi": 69,
          "name": "A4",
          "ticks": 83712,
          "time": 56.86944200000001,
          "velocity": 0.3937007874015748
        },
        {
          "duration": 0.2608689999999996,
          "durationTicks": 384,
          "midi": 57,
          "name": "A3",
          "ticks": 83712,
          "time": 56.86944200000001,
          "velocity": 0.3937007874015748
        },
        {
          "duration": 0.1304344999999998,
          "durationTicks": 192,
          "midi": 33,
          "name": "A1",
          "ticks": 83712,
          "time": 56.86944200000001,
          "velocity": 0.3937007874015748
        },
        {
          "duration": 0.2608689999999996,
          "durationTicks": 384,
          "midi": 66,
          "name": "F#4",
          "ticks": 83712,
          "time": 56.86944200000001,
          "velocity": 0.3937007874015748
        },
        {
          "duration": 0.1304344999999998,
          "durationTicks": 192,
          "midi": 45,
          "name": "A2",
          "ticks": 83712,
          "time": 56.86944200000001,
          "velocity": 0.3937007874015748
        },
        {
          "duration": 0.2608689999999996,
          "durationTicks": 384,
          "midi": 62,
          "name": "D4",
          "ticks": 83712,
          "time": 56.86944200000001,
          "velocity": 0.3937007874015748
        },
        {
          "duration": 0.1304344999999998,
          "durationTicks": 192,
          "midi": 38,
          "name": "D2",
          "ticks": 83904,
          "time": 56.999876500000006,
          "velocity": 0.3937007874015748
        },
        {
          "duration": 0.1304344999999998,
          "durationTicks": 192,
          "midi": 33,
          "name": "A1",
          "ticks": 84096,
          "time": 57.130311000000006,
          "velocity": 0.3937007874015748
        },
        {
          "duration": 0.2608689999999996,
          "durationTicks": 384,
          "midi": 61,
          "name": "C#4",
          "ticks": 84096,
          "time": 57.130311000000006,
          "velocity": 0.3937007874015748
        },
        {
          "duration": 0.2608689999999996,
          "durationTicks": 384,
          "midi": 73,
          "name": "C#5",
          "ticks": 84096,
          "time": 57.130311000000006,
          "velocity": 0.3937007874015748
        },
        {
          "duration": 0.2608689999999996,
          "durationTicks": 384,
          "midi": 69,
          "name": "A4",
          "ticks": 84096,
          "time": 57.130311000000006,
          "velocity": 0.3937007874015748
        },
        {
          "duration": 0.2608689999999996,
          "durationTicks": 384,
          "midi": 66,
          "name": "F#4",
          "ticks": 84096,
          "time": 57.130311000000006,
          "velocity": 0.3937007874015748
        },
        {
          "duration": 0.1304344999999998,
          "durationTicks": 192,
          "midi": 26,
          "name": "D1",
          "ticks": 84096,
          "time": 57.130311000000006,
          "velocity": 0.3937007874015748
        },
        {
          "duration": 0.1304344999999998,
          "durationTicks": 192,
          "midi": 30,
          "name": "F#1",
          "ticks": 84288,
          "time": 57.260745500000006,
          "velocity": 0.3937007874015748
        },
        {
          "duration": 0.2608689999999996,
          "durationTicks": 384,
          "midi": 74,
          "name": "D5",
          "ticks": 84480,
          "time": 57.391180000000006,
          "velocity": 0.3937007874015748
        },
        {
          "duration": 0.1304344999999998,
          "durationTicks": 192,
          "midi": 25,
          "name": "C#1",
          "ticks": 84480,
          "time": 57.391180000000006,
          "velocity": 0.3937007874015748
        },
        {
          "duration": 0.2608689999999996,
          "durationTicks": 384,
          "midi": 65,
          "name": "F4",
          "ticks": 84480,
          "time": 57.391180000000006,
          "velocity": 0.3937007874015748
        },
        {
          "duration": 0.2608689999999996,
          "durationTicks": 384,
          "midi": 62,
          "name": "D4",
          "ticks": 84480,
          "time": 57.391180000000006,
          "velocity": 0.3937007874015748
        },
        {
          "duration": 0.2608689999999996,
          "durationTicks": 384,
          "midi": 71,
          "name": "B4",
          "ticks": 84480,
          "time": 57.391180000000006,
          "velocity": 0.3937007874015748
        },
        {
          "duration": 0.1304344999999998,
          "durationTicks": 192,
          "midi": 29,
          "name": "F1",
          "ticks": 84672,
          "time": 57.521614500000005,
          "velocity": 0.3937007874015748
        },
        {
          "duration": 0.1304344999999998,
          "durationTicks": 192,
          "midi": 25,
          "name": "C#1",
          "ticks": 84864,
          "time": 57.652049000000005,
          "velocity": 0.3937007874015748
        },
        {
          "duration": 0.1304344999999998,
          "durationTicks": 192,
          "midi": 35,
          "name": "B1",
          "ticks": 84864,
          "time": 57.652049000000005,
          "velocity": 0.3937007874015748
        },
        {
          "duration": 0.2608689999999996,
          "durationTicks": 384,
          "midi": 73,
          "name": "C#5",
          "ticks": 84864,
          "time": 57.652049000000005,
          "velocity": 0.3937007874015748
        },
        {
          "duration": 0.2608689999999996,
          "durationTicks": 384,
          "midi": 65,
          "name": "F4",
          "ticks": 84864,
          "time": 57.652049000000005,
          "velocity": 0.3937007874015748
        },
        {
          "duration": 0.2608689999999996,
          "durationTicks": 384,
          "midi": 61,
          "name": "C#4",
          "ticks": 84864,
          "time": 57.652049000000005,
          "velocity": 0.3937007874015748
        },
        {
          "duration": 0.1304344999999998,
          "durationTicks": 192,
          "midi": 41,
          "name": "F2",
          "ticks": 85056,
          "time": 57.782483500000005,
          "velocity": 0.3937007874015748
        },
        {
          "duration": 0.2608689999999996,
          "durationTicks": 384,
          "midi": 37,
          "name": "C#2",
          "ticks": 85248,
          "time": 57.912918000000005,
          "velocity": 0.3937007874015748
        },
        {
          "duration": 0.2608689999999996,
          "durationTicks": 384,
          "midi": 49,
          "name": "C#3",
          "ticks": 85248,
          "time": 57.912918000000005,
          "velocity": 0.3937007874015748
        },
        {
          "duration": 0.2608689999999996,
          "durationTicks": 384,
          "midi": 65,
          "name": "F4",
          "ticks": 85248,
          "time": 57.912918000000005,
          "velocity": 0.3937007874015748
        },
        {
          "duration": 0.2608689999999996,
          "durationTicks": 384,
          "midi": 57,
          "name": "A3",
          "ticks": 85248,
          "time": 57.912918000000005,
          "velocity": 0.3937007874015748
        },
        {
          "duration": 0.2608689999999996,
          "durationTicks": 384,
          "midi": 69,
          "name": "A4",
          "ticks": 85248,
          "time": 57.912918000000005,
          "velocity": 0.3937007874015748
        },
        {
          "duration": 0.2608689999999996,
          "durationTicks": 384,
          "midi": 61,
          "name": "C#4",
          "ticks": 85248,
          "time": 57.912918000000005,
          "velocity": 0.3937007874015748
        },
        {
          "duration": 0.06521724999999634,
          "durationTicks": 96,
          "midi": 49,
          "name": "C#3",
          "ticks": 85632,
          "time": 58.173787000000004,
          "velocity": 0.3937007874015748
        },
        {
          "duration": 0.06521725000000345,
          "durationTicks": 96,
          "midi": 44,
          "name": "G#2",
          "ticks": 85728,
          "time": 58.23900425,
          "velocity": 0.3937007874015748
        },
        {
          "duration": 0.06521724999999634,
          "durationTicks": 96,
          "midi": 41,
          "name": "F2",
          "ticks": 85824,
          "time": 58.304221500000004,
          "velocity": 0.3937007874015748
        },
        {
          "duration": 0.06521725000000345,
          "durationTicks": 96,
          "midi": 37,
          "name": "C#2",
          "ticks": 85920,
          "time": 58.36943875,
          "velocity": 0.3937007874015748
        },
        {
          "duration": 0.39130349999999936,
          "durationTicks": 576,
          "midi": 30,
          "name": "F#1",
          "ticks": 86016,
          "time": 58.434656000000004,
          "velocity": 0.3937007874015748
        },
        {
          "duration": 0.39130349999999936,
          "durationTicks": 576,
          "midi": 61,
          "name": "C#4",
          "ticks": 86016,
          "time": 58.434656000000004,
          "velocity": 0.3937007874015748
        },
        {
          "duration": 0.39130349999999936,
          "durationTicks": 576,
          "midi": 66,
          "name": "F#4",
          "ticks": 86016,
          "time": 58.434656000000004,
          "velocity": 0.3937007874015748
        },
        {
          "duration": 0.39130349999999936,
          "durationTicks": 576,
          "midi": 26,
          "name": "D1",
          "ticks": 86016,
          "time": 58.434656000000004,
          "velocity": 0.3937007874015748
        },
        {
          "duration": 0.39130349999999936,
          "durationTicks": 576,
          "midi": 69,
          "name": "A4",
          "ticks": 86016,
          "time": 58.434656000000004,
          "velocity": 0.3937007874015748
        },
        {
          "duration": 0.39130349999999936,
          "durationTicks": 576,
          "midi": 73,
          "name": "C#5",
          "ticks": 86016,
          "time": 58.434656000000004,
          "velocity": 0.3937007874015748
        },
        {
          "duration": 0.39130349999999936,
          "durationTicks": 576,
          "midi": 38,
          "name": "D2",
          "ticks": 86016,
          "time": 58.434656000000004,
          "velocity": 0.3937007874015748
        },
        {
          "duration": 0.39130349999999936,
          "durationTicks": 576,
          "midi": 33,
          "name": "A1",
          "ticks": 86016,
          "time": 58.434656000000004,
          "velocity": 0.3937007874015748
        },
        {
          "duration": 0.2608689999999996,
          "durationTicks": 384,
          "midi": 59,
          "name": "B3",
          "ticks": 86592,
          "time": 58.8259595,
          "velocity": 0.3937007874015748
        },
        {
          "duration": 0.2608689999999996,
          "durationTicks": 384,
          "midi": 71,
          "name": "B4",
          "ticks": 86592,
          "time": 58.8259595,
          "velocity": 0.3937007874015748
        },
        {
          "duration": 0.2608689999999996,
          "durationTicks": 384,
          "midi": 65,
          "name": "F4",
          "ticks": 86592,
          "time": 58.8259595,
          "velocity": 0.3937007874015748
        },
        {
          "duration": 0.39130349999999936,
          "durationTicks": 576,
          "midi": 32,
          "name": "G#1",
          "ticks": 86592,
          "time": 58.8259595,
          "velocity": 0.3937007874015748
        },
        {
          "duration": 0.39130349999999936,
          "durationTicks": 576,
          "midi": 37,
          "name": "C#2",
          "ticks": 86592,
          "time": 58.8259595,
          "velocity": 0.3937007874015748
        },
        {
          "duration": 0.39130349999999936,
          "durationTicks": 576,
          "midi": 25,
          "name": "C#1",
          "ticks": 86592,
          "time": 58.8259595,
          "velocity": 0.3937007874015748
        },
        {
          "duration": 0.39130349999999936,
          "durationTicks": 576,
          "midi": 29,
          "name": "F1",
          "ticks": 86592,
          "time": 58.8259595,
          "velocity": 0.3937007874015748
        },
        {
          "duration": 0.1304344999999998,
          "durationTicks": 192,
          "midi": 61,
          "name": "C#4",
          "ticks": 86976,
          "time": 59.0868285,
          "velocity": 0.3937007874015748
        },
        {
          "duration": 0.1304344999999998,
          "durationTicks": 192,
          "midi": 57,
          "name": "A3",
          "ticks": 86976,
          "time": 59.0868285,
          "velocity": 0.3937007874015748
        },
        {
          "duration": 0.1304344999999998,
          "durationTicks": 192,
          "midi": 65,
          "name": "F4",
          "ticks": 86976,
          "time": 59.0868285,
          "velocity": 0.3937007874015748
        },
        {
          "duration": 0.1304344999999998,
          "durationTicks": 192,
          "midi": 69,
          "name": "A4",
          "ticks": 86976,
          "time": 59.0868285,
          "velocity": 0.3937007874015748
        },
        {
          "duration": 0.5217379999999991,
          "durationTicks": 768,
          "midi": 57,
          "name": "A3",
          "ticks": 87168,
          "time": 59.217263,
          "velocity": 0.3937007874015748
        },
        {
          "duration": 0.5869552500000026,
          "durationTicks": 864,
          "midi": 61,
          "name": "C#4",
          "ticks": 87168,
          "time": 59.217263,
          "velocity": 0.3937007874015748
        },
        {
          "duration": 0.6521724999999989,
          "durationTicks": 960,
          "midi": 30,
          "name": "F#1",
          "ticks": 87168,
          "time": 59.217263,
          "velocity": 0.3937007874015748
        },
        {
          "duration": 0.6521724999999989,
          "durationTicks": 960,
          "midi": 66,
          "name": "F#4",
          "ticks": 87168,
          "time": 59.217263,
          "velocity": 0.3937007874015748
        },
        {
          "duration": 0.6521724999999989,
          "durationTicks": 960,
          "midi": 25,
          "name": "C#1",
          "ticks": 87168,
          "time": 59.217263,
          "velocity": 0.3937007874015748
        },
        {
          "duration": 0.7826069999999987,
          "durationTicks": 1152,
          "midi": 69,
          "name": "A4",
          "ticks": 87168,
          "time": 59.217263,
          "velocity": 0.3937007874015748
        },
        {
          "duration": 0.06521725000000345,
          "durationTicks": 96,
          "midi": 49,
          "name": "C#3",
          "ticks": 87552,
          "time": 59.478132,
          "velocity": 0.3937007874015748
        },
        {
          "duration": 0.06521724999999634,
          "durationTicks": 96,
          "midi": 54,
          "name": "F#3",
          "ticks": 87648,
          "time": 59.543349250000006,
          "velocity": 0.3937007874015748
        },
        {
          "duration": 0.06521725000000345,
          "durationTicks": 96,
          "midi": 56,
          "name": "G#3",
          "ticks": 87744,
          "time": 59.6085665,
          "velocity": 0.3937007874015748
        },
        {
          "duration": 0.5869552499999955,
          "durationTicks": 864,
          "midi": 57,
          "name": "A3",
          "ticks": 87840,
          "time": 59.673783750000005,
          "velocity": 0.3937007874015748
        },
        {
          "duration": 0.5217379999999991,
          "durationTicks": 768,
          "midi": 61,
          "name": "C#4",
          "ticks": 87936,
          "time": 59.739001,
          "velocity": 0.3937007874015748
        },
        {
          "duration": 0.4565207499999957,
          "durationTicks": 672,
          "midi": 66,
          "name": "F#4",
          "ticks": 88032,
          "time": 59.804218250000005,
          "velocity": 0.3937007874015748
        },
        {
          "duration": 0.06521725000000345,
          "durationTicks": 96,
          "midi": 68,
          "name": "G#4",
          "ticks": 88128,
          "time": 59.8694355,
          "velocity": 0.3937007874015748
        },
        {
          "duration": 0.3260862499999959,
          "durationTicks": 480,
          "midi": 69,
          "name": "A4",
          "ticks": 88224,
          "time": 59.934652750000005,
          "velocity": 0.3937007874015748
        },
        {
          "duration": 0.06521725000000345,
          "durationTicks": 96,
          "midi": 73,
          "name": "C#5",
          "ticks": 88320,
          "time": 59.99987,
          "velocity": 0.3937007874015748
        },
        {
          "duration": 0.06521725000000345,
          "durationTicks": 96,
          "midi": 30,
          "name": "F#1",
          "ticks": 88320,
          "time": 59.99987,
          "velocity": 0.3937007874015748
        },
        {
          "duration": 0.06521724999999634,
          "durationTicks": 96,
          "midi": 42,
          "name": "F#2",
          "ticks": 88416,
          "time": 60.065087250000005,
          "velocity": 0.3937007874015748
        },
        {
          "duration": 0.06521724999999634,
          "durationTicks": 96,
          "midi": 78,
          "name": "F#5",
          "ticks": 88416,
          "time": 60.065087250000005,
          "velocity": 0.3937007874015748
        },
        {
          "duration": 0.06521725000000345,
          "durationTicks": 96,
          "midi": 30,
          "name": "F#1",
          "ticks": 88512,
          "time": 60.1303045,
          "velocity": 0.3937007874015748
        },
        {
          "duration": 0.1304344999999998,
          "durationTicks": 192,
          "midi": 90,
          "name": "F#6",
          "ticks": 88512,
          "time": 60.1303045,
          "velocity": 0.3937007874015748
        },
        {
          "duration": 0.1304344999999998,
          "durationTicks": 192,
          "midi": 85,
          "name": "C#6",
          "ticks": 88512,
          "time": 60.1303045,
          "velocity": 0.3937007874015748
        },
        {
          "duration": 0.06521724999999634,
          "durationTicks": 96,
          "midi": 42,
          "name": "F#2",
          "ticks": 88608,
          "time": 60.195521750000005,
          "velocity": 0.3937007874015748
        },
        {
          "duration": 0.1304344999999998,
          "durationTicks": 192,
          "midi": 37,
          "name": "C#2",
          "ticks": 88704,
          "time": 60.260739,
          "velocity": 0.3937007874015748
        },
        {
          "duration": 0.1304344999999998,
          "durationTicks": 192,
          "midi": 42,
          "name": "F#2",
          "ticks": 88704,
          "time": 60.260739,
          "velocity": 0.3937007874015748
        },
        {
          "duration": 0.2608690000000067,
          "durationTicks": 384,
          "midi": 69,
          "name": "A4",
          "ticks": 89088,
          "time": 60.521608,
          "velocity": 0.3937007874015748
        },
        {
          "duration": 0.39130350000000647,
          "durationTicks": 576,
          "midi": 38,
          "name": "D2",
          "ticks": 89088,
          "time": 60.521608,
          "velocity": 0.3937007874015748
        },
        {
          "duration": 0.39130350000000647,
          "durationTicks": 576,
          "midi": 33,
          "name": "A1",
          "ticks": 89088,
          "time": 60.521608,
          "velocity": 0.3937007874015748
        },
        {
          "duration": 0.2608690000000067,
          "durationTicks": 384,
          "midi": 61,
          "name": "C#4",
          "ticks": 89088,
          "time": 60.521608,
          "velocity": 0.3937007874015748
        },
        {
          "duration": 0.2608690000000067,
          "durationTicks": 384,
          "midi": 66,
          "name": "F#4",
          "ticks": 89088,
          "time": 60.521608,
          "velocity": 0.3937007874015748
        },
        {
          "duration": 0.2608690000000067,
          "durationTicks": 384,
          "midi": 73,
          "name": "C#5",
          "ticks": 89088,
          "time": 60.521608,
          "velocity": 0.3937007874015748
        },
        {
          "duration": 0.39130350000000647,
          "durationTicks": 576,
          "midi": 26,
          "name": "D1",
          "ticks": 89088,
          "time": 60.521608,
          "velocity": 0.3937007874015748
        },
        {
          "duration": 0.39130350000000647,
          "durationTicks": 576,
          "midi": 30,
          "name": "F#1",
          "ticks": 89088,
          "time": 60.521608,
          "velocity": 0.3937007874015748
        },
        {
          "duration": 0.1304344999999998,
          "durationTicks": 192,
          "midi": 69,
          "name": "A4",
          "ticks": 89472,
          "time": 60.78247700000001,
          "velocity": 0.3937007874015748
        },
        {
          "duration": 0.1304344999999998,
          "durationTicks": 192,
          "midi": 73,
          "name": "C#5",
          "ticks": 89472,
          "time": 60.78247700000001,
          "velocity": 0.3937007874015748
        },
        {
          "duration": 0.1304344999999998,
          "durationTicks": 192,
          "midi": 66,
          "name": "F#4",
          "ticks": 89472,
          "time": 60.78247700000001,
          "velocity": 0.3937007874015748
        },
        {
          "duration": 0.1304344999999998,
          "durationTicks": 192,
          "midi": 61,
          "name": "C#4",
          "ticks": 89472,
          "time": 60.78247700000001,
          "velocity": 0.3937007874015748
        },
        {
          "duration": 0.39130349999999936,
          "durationTicks": 576,
          "midi": 32,
          "name": "G#1",
          "ticks": 89664,
          "time": 60.91291150000001,
          "velocity": 0.3937007874015748
        },
        {
          "duration": 0.39130349999999936,
          "durationTicks": 576,
          "midi": 37,
          "name": "C#2",
          "ticks": 89664,
          "time": 60.91291150000001,
          "velocity": 0.3937007874015748
        },
        {
          "duration": 0.2608689999999996,
          "durationTicks": 384,
          "midi": 65,
          "name": "F4",
          "ticks": 89664,
          "time": 60.91291150000001,
          "velocity": 0.3937007874015748
        },
        {
          "duration": 0.2608689999999996,
          "durationTicks": 384,
          "midi": 71,
          "name": "B4",
          "ticks": 89664,
          "time": 60.91291150000001,
          "velocity": 0.3937007874015748
        },
        {
          "duration": 0.39130349999999936,
          "durationTicks": 576,
          "midi": 25,
          "name": "C#1",
          "ticks": 89664,
          "time": 60.91291150000001,
          "velocity": 0.3937007874015748
        },
        {
          "duration": 0.2608689999999996,
          "durationTicks": 384,
          "midi": 59,
          "name": "B3",
          "ticks": 89664,
          "time": 60.91291150000001,
          "velocity": 0.3937007874015748
        },
        {
          "duration": 0.39130349999999936,
          "durationTicks": 576,
          "midi": 29,
          "name": "F1",
          "ticks": 89664,
          "time": 60.91291150000001,
          "velocity": 0.3937007874015748
        },
        {
          "duration": 0.1304344999999998,
          "durationTicks": 192,
          "midi": 71,
          "name": "B4",
          "ticks": 90048,
          "time": 61.17378050000001,
          "velocity": 0.3937007874015748
        },
        {
          "duration": 0.1304344999999998,
          "durationTicks": 192,
          "midi": 62,
          "name": "D4",
          "ticks": 90048,
          "time": 61.17378050000001,
          "velocity": 0.3937007874015748
        },
        {
          "duration": 0.1304344999999998,
          "durationTicks": 192,
          "midi": 74,
          "name": "D5",
          "ticks": 90048,
          "time": 61.17378050000001,
          "velocity": 0.3937007874015748
        },
        {
          "duration": 0.1304344999999998,
          "durationTicks": 192,
          "midi": 65,
          "name": "F4",
          "ticks": 90048,
          "time": 61.17378050000001,
          "velocity": 0.3937007874015748
        },
        {
          "duration": 0.5217379999999991,
          "durationTicks": 768,
          "midi": 57,
          "name": "A3",
          "ticks": 90240,
          "time": 61.304215000000006,
          "velocity": 0.3937007874015748
        },
        {
          "duration": 0.6521724999999989,
          "durationTicks": 960,
          "midi": 30,
          "name": "F#1",
          "ticks": 90240,
          "time": 61.304215000000006,
          "velocity": 0.3937007874015748
        },
        {
          "duration": 0.6521724999999989,
          "durationTicks": 960,
          "midi": 66,
          "name": "F#4",
          "ticks": 90240,
          "time": 61.304215000000006,
          "velocity": 0.3937007874015748
        },
        {
          "duration": 0.7826069999999987,
          "durationTicks": 1152,
          "midi": 69,
          "name": "A4",
          "ticks": 90240,
          "time": 61.304215000000006,
          "velocity": 0.3937007874015748
        },
        {
          "duration": 0.5869552499999955,
          "durationTicks": 864,
          "midi": 61,
          "name": "C#4",
          "ticks": 90240,
          "time": 61.304215000000006,
          "velocity": 0.3937007874015748
        },
        {
          "duration": 0.6521724999999989,
          "durationTicks": 960,
          "midi": 25,
          "name": "C#1",
          "ticks": 90240,
          "time": 61.304215000000006,
          "velocity": 0.3937007874015748
        },
        {
          "duration": 0.06521724999999634,
          "durationTicks": 96,
          "midi": 49,
          "name": "C#3",
          "ticks": 90624,
          "time": 61.565084000000006,
          "velocity": 0.3937007874015748
        },
        {
          "duration": 0.06521725000000345,
          "durationTicks": 96,
          "midi": 54,
          "name": "F#3",
          "ticks": 90720,
          "time": 61.63030125,
          "velocity": 0.3937007874015748
        },
        {
          "duration": 0.06521724999999634,
          "durationTicks": 96,
          "midi": 56,
          "name": "G#3",
          "ticks": 90816,
          "time": 61.695518500000006,
          "velocity": 0.3937007874015748
        },
        {
          "duration": 0.5869552500000026,
          "durationTicks": 864,
          "midi": 57,
          "name": "A3",
          "ticks": 90912,
          "time": 61.76073575,
          "velocity": 0.3937007874015748
        },
        {
          "duration": 0.5217379999999991,
          "durationTicks": 768,
          "midi": 61,
          "name": "C#4",
          "ticks": 91008,
          "time": 61.825953000000005,
          "velocity": 0.3937007874015748
        },
        {
          "duration": 0.4565207500000028,
          "durationTicks": 672,
          "midi": 66,
          "name": "F#4",
          "ticks": 91104,
          "time": 61.89117025,
          "velocity": 0.3937007874015748
        },
        {
          "duration": 0.06521724999999634,
          "durationTicks": 96,
          "midi": 68,
          "name": "G#4",
          "ticks": 91200,
          "time": 61.956387500000005,
          "velocity": 0.3937007874015748
        },
        {
          "duration": 0.326086250000003,
          "durationTicks": 480,
          "midi": 69,
          "name": "A4",
          "ticks": 91296,
          "time": 62.02160475,
          "velocity": 0.3937007874015748
        },
        {
          "duration": 0.06521724999999634,
          "durationTicks": 96,
          "midi": 30,
          "name": "F#1",
          "ticks": 91392,
          "time": 62.086822000000005,
          "velocity": 0.3937007874015748
        },
        {
          "duration": 0.06521724999999634,
          "durationTicks": 96,
          "midi": 73,
          "name": "C#5",
          "ticks": 91392,
          "time": 62.086822000000005,
          "velocity": 0.3937007874015748
        },
        {
          "duration": 0.06521725000000345,
          "durationTicks": 96,
          "midi": 78,
          "name": "F#5",
          "ticks": 91488,
          "time": 62.15203925,
          "velocity": 0.3937007874015748
        },
        {
          "duration": 0.06521725000000345,
          "durationTicks": 96,
          "midi": 42,
          "name": "F#2",
          "ticks": 91488,
          "time": 62.15203925,
          "velocity": 0.3937007874015748
        },
        {
          "duration": 0.1304344999999998,
          "durationTicks": 192,
          "midi": 90,
          "name": "F#6",
          "ticks": 91584,
          "time": 62.217256500000005,
          "velocity": 0.3937007874015748
        },
        {
          "duration": 0.1304344999999998,
          "durationTicks": 192,
          "midi": 85,
          "name": "C#6",
          "ticks": 91584,
          "time": 62.217256500000005,
          "velocity": 0.3937007874015748
        },
        {
          "duration": 0.06521724999999634,
          "durationTicks": 96,
          "midi": 30,
          "name": "F#1",
          "ticks": 91584,
          "time": 62.217256500000005,
          "velocity": 0.3937007874015748
        },
        {
          "duration": 0.06521725000000345,
          "durationTicks": 96,
          "midi": 42,
          "name": "F#2",
          "ticks": 91680,
          "time": 62.28247375,
          "velocity": 0.3937007874015748
        },
        {
          "duration": 0.1304344999999998,
          "durationTicks": 192,
          "midi": 37,
          "name": "C#2",
          "ticks": 91776,
          "time": 62.347691000000005,
          "velocity": 0.3937007874015748
        },
        {
          "duration": 0.1304344999999998,
          "durationTicks": 192,
          "midi": 42,
          "name": "F#2",
          "ticks": 91776,
          "time": 62.347691000000005,
          "velocity": 0.3937007874015748
        },
        {
          "duration": 0.39130349999999936,
          "durationTicks": 576,
          "midi": 66,
          "name": "F#4",
          "ticks": 92160,
          "time": 62.608560000000004,
          "velocity": 0.3937007874015748
        },
        {
          "duration": 0.39130349999999936,
          "durationTicks": 576,
          "midi": 69,
          "name": "A4",
          "ticks": 92160,
          "time": 62.608560000000004,
          "velocity": 0.3937007874015748
        },
        {
          "duration": 0.39130349999999936,
          "durationTicks": 576,
          "midi": 26,
          "name": "D1",
          "ticks": 92160,
          "time": 62.608560000000004,
          "velocity": 0.3937007874015748
        },
        {
          "duration": 0.39130349999999936,
          "durationTicks": 576,
          "midi": 33,
          "name": "A1",
          "ticks": 92160,
          "time": 62.608560000000004,
          "velocity": 0.3937007874015748
        },
        {
          "duration": 0.39130349999999936,
          "durationTicks": 576,
          "midi": 73,
          "name": "C#5",
          "ticks": 92160,
          "time": 62.608560000000004,
          "velocity": 0.3937007874015748
        },
        {
          "duration": 0.39130349999999936,
          "durationTicks": 576,
          "midi": 30,
          "name": "F#1",
          "ticks": 92160,
          "time": 62.608560000000004,
          "velocity": 0.3937007874015748
        },
        {
          "duration": 0.39130349999999936,
          "durationTicks": 576,
          "midi": 38,
          "name": "D2",
          "ticks": 92160,
          "time": 62.608560000000004,
          "velocity": 0.3937007874015748
        },
        {
          "duration": 0.39130349999999936,
          "durationTicks": 576,
          "midi": 61,
          "name": "C#4",
          "ticks": 92160,
          "time": 62.608560000000004,
          "velocity": 0.3937007874015748
        },
        {
          "duration": 0.2608689999999996,
          "durationTicks": 384,
          "midi": 71,
          "name": "B4",
          "ticks": 92736,
          "time": 62.999863500000004,
          "velocity": 0.3937007874015748
        },
        {
          "duration": 0.39130349999999936,
          "durationTicks": 576,
          "midi": 25,
          "name": "C#1",
          "ticks": 92736,
          "time": 62.999863500000004,
          "velocity": 0.3937007874015748
        },
        {
          "duration": 0.39130349999999936,
          "durationTicks": 576,
          "midi": 29,
          "name": "F1",
          "ticks": 92736,
          "time": 62.999863500000004,
          "velocity": 0.3937007874015748
        },
        {
          "duration": 0.2608689999999996,
          "durationTicks": 384,
          "midi": 65,
          "name": "F4",
          "ticks": 92736,
          "time": 62.999863500000004,
          "velocity": 0.3937007874015748
        },
        {
          "duration": 0.2608689999999996,
          "durationTicks": 384,
          "midi": 59,
          "name": "B3",
          "ticks": 92736,
          "time": 62.999863500000004,
          "velocity": 0.3937007874015748
        },
        {
          "duration": 0.39130349999999936,
          "durationTicks": 576,
          "midi": 32,
          "name": "G#1",
          "ticks": 92736,
          "time": 62.999863500000004,
          "velocity": 0.3937007874015748
        },
        {
          "duration": 0.39130349999999936,
          "durationTicks": 576,
          "midi": 37,
          "name": "C#2",
          "ticks": 92736,
          "time": 62.999863500000004,
          "velocity": 0.3937007874015748
        },
        {
          "duration": 0.1304344999999998,
          "durationTicks": 192,
          "midi": 61,
          "name": "C#4",
          "ticks": 93120,
          "time": 63.2607325,
          "velocity": 0.3937007874015748
        },
        {
          "duration": 0.1304344999999998,
          "durationTicks": 192,
          "midi": 69,
          "name": "A4",
          "ticks": 93120,
          "time": 63.2607325,
          "velocity": 0.3937007874015748
        },
        {
          "duration": 0.1304344999999998,
          "durationTicks": 192,
          "midi": 65,
          "name": "F4",
          "ticks": 93120,
          "time": 63.2607325,
          "velocity": 0.3937007874015748
        },
        {
          "duration": 0.1304344999999998,
          "durationTicks": 192,
          "midi": 57,
          "name": "A3",
          "ticks": 93120,
          "time": 63.2607325,
          "velocity": 0.3937007874015748
        },
        {
          "duration": 0.5217379999999991,
          "durationTicks": 768,
          "midi": 57,
          "name": "A3",
          "ticks": 93312,
          "time": 63.391167,
          "velocity": 0.3937007874015748
        },
        {
          "duration": 0.5217379999999991,
          "durationTicks": 768,
          "midi": 30,
          "name": "F#1",
          "ticks": 93312,
          "time": 63.391167,
          "velocity": 0.3937007874015748
        },
        {
          "duration": 0.5217379999999991,
          "durationTicks": 768,
          "midi": 66,
          "name": "F#4",
          "ticks": 93312,
          "time": 63.391167,
          "velocity": 0.3937007874015748
        },
        {
          "duration": 0.5217379999999991,
          "durationTicks": 768,
          "midi": 61,
          "name": "C#4",
          "ticks": 93312,
          "time": 63.391167,
          "velocity": 0.3937007874015748
        },
        {
          "duration": 0.5217379999999991,
          "durationTicks": 768,
          "midi": 25,
          "name": "C#1",
          "ticks": 93312,
          "time": 63.391167,
          "velocity": 0.3937007874015748
        },
        {
          "duration": 0.5217379999999991,
          "durationTicks": 768,
          "midi": 69,
          "name": "A4",
          "ticks": 93312,
          "time": 63.391167,
          "velocity": 0.3937007874015748
        },
        {
          "duration": 0.2608690000000067,
          "durationTicks": 384,
          "midi": 57,
          "name": "A3",
          "ticks": 94080,
          "time": 63.912905,
          "velocity": 0.3937007874015748
        },
        {
          "duration": 0.2608690000000067,
          "durationTicks": 384,
          "midi": 25,
          "name": "C#1",
          "ticks": 94080,
          "time": 63.912905,
          "velocity": 0.3937007874015748
        },
        {
          "duration": 0.2608690000000067,
          "durationTicks": 384,
          "midi": 66,
          "name": "F#4",
          "ticks": 94080,
          "time": 63.912905,
          "velocity": 0.3937007874015748
        },
        {
          "duration": 0.2608690000000067,
          "durationTicks": 384,
          "midi": 37,
          "name": "C#2",
          "ticks": 94080,
          "time": 63.912905,
          "velocity": 0.3937007874015748
        },
        {
          "duration": 0.2608690000000067,
          "durationTicks": 384,
          "midi": 30,
          "name": "F#1",
          "ticks": 94080,
          "time": 63.912905,
          "velocity": 0.3937007874015748
        },
        {
          "duration": 0.2608690000000067,
          "durationTicks": 384,
          "midi": 54,
          "name": "F#3",
          "ticks": 94080,
          "time": 63.912905,
          "velocity": 0.3937007874015748
        },
        {
          "duration": 0.2608690000000067,
          "durationTicks": 384,
          "midi": 61,
          "name": "C#4",
          "ticks": 94080,
          "time": 63.912905,
          "velocity": 0.3937007874015748
        },
        {
          "duration": 0.2608689999999996,
          "durationTicks": 384,
          "midi": 30,
          "name": "F#1",
          "ticks": 94464,
          "time": 64.17377400000001,
          "velocity": 0.3937007874015748
        },
        {
          "duration": 0.2608689999999996,
          "durationTicks": 384,
          "midi": 69,
          "name": "A4",
          "ticks": 94464,
          "time": 64.17377400000001,
          "velocity": 0.3937007874015748
        },
        {
          "duration": 0.2608689999999996,
          "durationTicks": 384,
          "midi": 37,
          "name": "C#2",
          "ticks": 94464,
          "time": 64.17377400000001,
          "velocity": 0.3937007874015748
        },
        {
          "duration": 0.2608689999999996,
          "durationTicks": 384,
          "midi": 66,
          "name": "F#4",
          "ticks": 94464,
          "time": 64.17377400000001,
          "velocity": 0.3937007874015748
        },
        {
          "duration": 0.2608689999999996,
          "durationTicks": 384,
          "midi": 61,
          "name": "C#4",
          "ticks": 94464,
          "time": 64.17377400000001,
          "velocity": 0.3937007874015748
        },
        {
          "duration": 0.2608689999999996,
          "durationTicks": 384,
          "midi": 57,
          "name": "A3",
          "ticks": 94464,
          "time": 64.17377400000001,
          "velocity": 0.3937007874015748
        },
        {
          "duration": 0.2608689999999996,
          "durationTicks": 384,
          "midi": 42,
          "name": "F#2",
          "ticks": 94464,
          "time": 64.17377400000001,
          "velocity": 0.3937007874015748
        },
        {
          "duration": 0.2608689999999996,
          "durationTicks": 384,
          "midi": 54,
          "name": "F#3",
          "ticks": 94848,
          "time": 64.43464300000001,
          "velocity": 0.3937007874015748
        },
        {
          "duration": 0.2608689999999996,
          "durationTicks": 384,
          "midi": 66,
          "name": "F#4",
          "ticks": 94848,
          "time": 64.43464300000001,
          "velocity": 0.3937007874015748
        },
        {
          "duration": 0.2608689999999996,
          "durationTicks": 384,
          "midi": 57,
          "name": "A3",
          "ticks": 94848,
          "time": 64.43464300000001,
          "velocity": 0.3937007874015748
        },
        {
          "duration": 0.2608689999999996,
          "durationTicks": 384,
          "midi": 42,
          "name": "F#2",
          "ticks": 94848,
          "time": 64.43464300000001,
          "velocity": 0.3937007874015748
        },
        {
          "duration": 0.2608689999999996,
          "durationTicks": 384,
          "midi": 49,
          "name": "C#3",
          "ticks": 94848,
          "time": 64.43464300000001,
          "velocity": 0.3937007874015748
        },
        {
          "duration": 0.2608689999999996,
          "durationTicks": 384,
          "midi": 61,
          "name": "C#4",
          "ticks": 94848,
          "time": 64.43464300000001,
          "velocity": 0.3937007874015748
        },
        {
          "duration": 0.2608689999999996,
          "durationTicks": 384,
          "midi": 69,
          "name": "A4",
          "ticks": 94848,
          "time": 64.43464300000001,
          "velocity": 0.3937007874015748
        },
        {
          "duration": 0.39130349999999225,
          "durationTicks": 576,
          "midi": 38,
          "name": "D2",
          "ticks": 95232,
          "time": 64.69551200000001,
          "velocity": 0.3937007874015748
        },
        {
          "duration": 0.39130349999999225,
          "durationTicks": 576,
          "midi": 33,
          "name": "A1",
          "ticks": 95232,
          "time": 64.69551200000001,
          "velocity": 0.3937007874015748
        },
        {
          "duration": 0.39130349999999225,
          "durationTicks": 576,
          "midi": 62,
          "name": "D4",
          "ticks": 95232,
          "time": 64.69551200000001,
          "velocity": 0.3937007874015748
        },
        {
          "duration": 0.39130349999999225,
          "durationTicks": 576,
          "midi": 66,
          "name": "F#4",
          "ticks": 95232,
          "time": 64.69551200000001,
          "velocity": 0.3937007874015748
        },
        {
          "duration": 0.39130349999999225,
          "durationTicks": 576,
          "midi": 26,
          "name": "D1",
          "ticks": 95232,
          "time": 64.69551200000001,
          "velocity": 0.3937007874015748
        },
        {
          "duration": 0.39130349999999225,
          "durationTicks": 576,
          "midi": 69,
          "name": "A4",
          "ticks": 95232,
          "time": 64.69551200000001,
          "velocity": 0.3937007874015748
        },
        {
          "duration": 0.39130349999999225,
          "durationTicks": 576,
          "midi": 57,
          "name": "A3",
          "ticks": 95232,
          "time": 64.69551200000001,
          "velocity": 0.3937007874015748
        },
        {
          "duration": 0.39130349999999225,
          "durationTicks": 576,
          "midi": 30,
          "name": "F#1",
          "ticks": 95232,
          "time": 64.69551200000001,
          "velocity": 0.3937007874015748
        },
        {
          "duration": 0.39130350000000647,
          "durationTicks": 576,
          "midi": 37,
          "name": "C#2",
          "ticks": 95808,
          "time": 65.0868155,
          "velocity": 0.3937007874015748
        },
        {
          "duration": 0.39130350000000647,
          "durationTicks": 576,
          "midi": 32,
          "name": "G#1",
          "ticks": 95808,
          "time": 65.0868155,
          "velocity": 0.3937007874015748
        },
        {
          "duration": 0.39130350000000647,
          "durationTicks": 576,
          "midi": 68,
          "name": "G#4",
          "ticks": 95808,
          "time": 65.0868155,
          "velocity": 0.3937007874015748
        },
        {
          "duration": 0.39130350000000647,
          "durationTicks": 576,
          "midi": 61,
          "name": "C#4",
          "ticks": 95808,
          "time": 65.0868155,
          "velocity": 0.3937007874015748
        },
        {
          "duration": 0.39130350000000647,
          "durationTicks": 576,
          "midi": 56,
          "name": "G#3",
          "ticks": 95808,
          "time": 65.0868155,
          "velocity": 0.3937007874015748
        },
        {
          "duration": 0.39130350000000647,
          "durationTicks": 576,
          "midi": 25,
          "name": "C#1",
          "ticks": 95808,
          "time": 65.0868155,
          "velocity": 0.3937007874015748
        },
        {
          "duration": 0.39130350000000647,
          "durationTicks": 576,
          "midi": 29,
          "name": "F1",
          "ticks": 95808,
          "time": 65.0868155,
          "velocity": 0.3937007874015748
        },
        {
          "duration": 3.3912969999999945,
          "durationTicks": 4992,
          "midi": 33,
          "name": "A1",
          "ticks": 96384,
          "time": 65.478119,
          "velocity": 0.3937007874015748
        },
        {
          "duration": 3.3912969999999945,
          "durationTicks": 4992,
          "midi": 30,
          "name": "F#1",
          "ticks": 96384,
          "time": 65.478119,
          "velocity": 0.3937007874015748
        },
        {
          "duration": 3.3912969999999945,
          "durationTicks": 4992,
          "midi": 37,
          "name": "C#2",
          "ticks": 96384,
          "time": 65.478119,
          "velocity": 0.3937007874015748
        },
        {
          "duration": 3.3912969999999945,
          "durationTicks": 4992,
          "midi": 57,
          "name": "A3",
          "ticks": 96384,
          "time": 65.478119,
          "velocity": 0.3937007874015748
        },
        {
          "duration": 3.3912969999999945,
          "durationTicks": 4992,
          "midi": 42,
          "name": "F#2",
          "ticks": 96384,
          "time": 65.478119,
          "velocity": 0.3937007874015748
        },
        {
          "duration": 3.3912969999999945,
          "durationTicks": 4992,
          "midi": 66,
          "name": "F#4",
          "ticks": 96384,
          "time": 65.478119,
          "velocity": 0.3937007874015748
        },
        {
          "duration": 3.3912969999999945,
          "durationTicks": 4992,
          "midi": 69,
          "name": "A4",
          "ticks": 96384,
          "time": 65.478119,
          "velocity": 0.3937007874015748
        },
        {
          "duration": 3.3912969999999945,
          "durationTicks": 4992,
          "midi": 61,
          "name": "C#4",
          "ticks": 96384,
          "time": 65.478119,
          "velocity": 0.3937007874015748
        }
      ],
      "endOfTrackTicks": 101376
    }
  ]
}
