{
  "header": {
    "keySignatures": [
      {
        "key": "E",
        "scale": "major",
        "ticks": 0
      },
      {
        "key": "A",
        "scale": "major",
        "ticks": 0
      },
      {
        "key": "E",
        "scale": "major",
        "ticks": 0
      },
      {
        "key": "A",
        "scale": "major",
        "ticks": 0
      },
      {
        "key": "A",
        "scale": "major",
        "ticks": 0
      },
      {
        "key": "G",
        "scale": "major",
        "ticks": 0
      },
      {
        "key": "G",
        "scale": "major",
        "ticks": 0
      },
      {
        "key": "G",
        "scale": "major",
        "ticks": 0
      },
      {
        "key": "G",
        "scale": "major",
        "ticks": 0
      },
      {
        "key": "G",
        "scale": "major",
        "ticks": 0
      },
      {
        "key": "G",
        "scale": "major",
        "ticks": 0
      },
      {
        "key": "C",
        "scale": "major",
        "ticks": 0
      }
    ],
    "meta": [],
    "name": "",
    "ppq": 480,
    "tempos": [
      {
        "bpm": 136.0001450668214,
        "ticks": 0
      }
    ],
    "timeSignatures": [
      {
        "ticks": 0,
        "timeSignature": [
          4,
          4
        ],
        "measures": 0
      },
      {
        "ticks": 3840,
        "timeSignature": [
          2,
          4
        ],
        "measures": 2
      },
      {
        "ticks": 4800,
        "timeSignature": [
          4,
          4
        ],
        "measures": 3
      }
    ]
  },
  "tracks": [
    {
      "channel": 0,
      "controlChanges": {
        "7": [
          {
            "number": 7,
            "ticks": 0,
            "time": 0,
            "value": 0.889763779527559
          }
        ],
        "10": [
          {
            "number": 10,
            "ticks": 0,
            "time": 0,
            "value": 0.5039370078740157
          }
        ],
        "91": [
          {
            "number": 91,
            "ticks": 0,
            "time": 0,
            "value": 0
          }
        ],
        "93": [
          {
            "number": 93,
            "ticks": 0,
            "time": 0,
            "value": 0
          }
        ]
      },
      "pitchBends": [],
      "instrument": {
        "family": "reed",
        "number": 65,
        "name": "alto sax"
      },
      "name": "",
      "notes": [
        {
          "duration": 0.10937488333333334,
          "durationTicks": 119,
          "midi": 69,
          "name": "A4",
          "ticks": 0,
          "time": 0,
          "velocity": 0.6299212598425197
        },
        {
          "duration": 0.10937488333333334,
          "durationTicks": 119,
          "midi": 70,
          "name": "A#4",
          "ticks": 120,
          "time": 0.110294,
          "velocity": 0.6299212598425197
        },
        {
          "duration": 0.10937488333333334,
          "durationTicks": 119,
          "midi": 71,
          "name": "B4",
          "ticks": 240,
          "time": 0.220588,
          "velocity": 0.6299212598425197
        },
        {
          "duration": 0.10937488333333334,
          "durationTicks": 119,
          "midi": 74,
          "name": "D5",
          "ticks": 360,
          "time": 0.330882,
          "velocity": 0.6299212598425197
        },
        {
          "duration": 0.10937488333333334,
          "durationTicks": 119,
          "midi": 69,
          "name": "A4",
          "ticks": 720,
          "time": 0.661764,
          "velocity": 0.6299212598425197
        },
        {
          "duration": 0.10937488333333334,
          "durationTicks": 119,
          "midi": 70,
          "name": "A#4",
          "ticks": 840,
          "time": 0.772058,
          "velocity": 0.6299212598425197
        },
        {
          "duration": 0.10937488333333334,
          "durationTicks": 119,
          "midi": 71,
          "name": "B4",
          "ticks": 960,
          "time": 0.882352,
          "velocity": 0.6299212598425197
        },
        {
          "duration": 0.10937488333333334,
          "durationTicks": 119,
          "midi": 74,
          "name": "D5",
          "ticks": 1080,
          "time": 0.992646,
          "velocity": 0.6299212598425197
        },
        {
          "duration": 0.10937488333333345,
          "durationTicks": 119,
          "midi": 74,
          "name": "D5",
          "ticks": 1440,
          "time": 1.323528,
          "velocity": 0.6299212598425197
        },
        {
          "duration": 0.10937488333333323,
          "durationTicks": 119,
          "midi": 74,
          "name": "D5",
          "ticks": 1560,
          "time": 1.4338220000000002,
          "velocity": 0.6299212598425197
        },
        {
          "duration": 0.10937488333333345,
          "durationTicks": 119,
          "midi": 69,
          "name": "A4",
          "ticks": 1920,
          "time": 1.764704,
          "velocity": 0.6299212598425197
        },
        {
          "duration": 0.10937488333333323,
          "durationTicks": 119,
          "midi": 70,
          "name": "A#4",
          "ticks": 2040,
          "time": 1.8749980000000002,
          "velocity": 0.6299212598425197
        },
        {
          "duration": 0.10937488333333323,
          "durationTicks": 119,
          "midi": 71,
          "name": "B4",
          "ticks": 2160,
          "time": 1.985292,
          "velocity": 0.6299212598425197
        },
        {
          "duration": 0.10937488333333345,
          "durationTicks": 119,
          "midi": 74,
          "name": "D5",
          "ticks": 2280,
          "time": 2.095586,
          "velocity": 0.6299212598425197
        },
        {
          "duration": 0.10937488333333345,
          "durationTicks": 119,
          "midi": 71,
          "name": "B4",
          "ticks": 2640,
          "time": 2.426468,
          "velocity": 0.6299212598425197
        },
        {
          "duration": 0.10937488333333345,
          "durationTicks": 119,
          "midi": 69,
          "name": "A4",
          "ticks": 2760,
          "time": 2.536762,
          "velocity": 0.6299212598425197
        },
        {
          "duration": 0.10937488333333345,
          "durationTicks": 119,
          "midi": 67,
          "name": "G4",
          "ticks": 2880,
          "time": 2.647056,
          "velocity": 0.6299212598425197
        },
        {
          "duration": 0.10937488333333345,
          "durationTicks": 119,
          "midi": 64,
          "name": "E4",
          "ticks": 3000,
          "time": 2.75735,
          "velocity": 0.6299212598425197
        },
        {
          "duration": 0.10937488333333345,
          "durationTicks": 119,
          "midi": 76,
          "name": "E5",
          "ticks": 3360,
          "time": 3.088232,
          "velocity": 0.6299212598425197
        },
        {
          "duration": 0.10937488333333345,
          "durationTicks": 119,
          "midi": 76,
          "name": "E5",
          "ticks": 3480,
          "time": 3.198526,
          "velocity": 0.6299212598425197
        },
        {
          "duration": 0.10937488333333345,
          "durationTicks": 119,
          "midi": 67,
          "name": "G4",
          "ticks": 4800,
          "time": 4.41176,
          "velocity": 0.6299212598425197
        },
        {
          "duration": 0.10937488333333345,
          "durationTicks": 119,
          "midi": 64,
          "name": "E4",
          "ticks": 4920,
          "time": 4.522054,
          "velocity": 0.6299212598425197
        },
        {
          "duration": 0.10937488333333345,
          "durationTicks": 119,
          "midi": 62,
          "name": "D4",
          "ticks": 5040,
          "time": 4.632348,
          "velocity": 0.6299212598425197
        },
        {
          "duration": 0.10937488333333345,
          "durationTicks": 119,
          "midi": 64,
          "name": "E4",
          "ticks": 5160,
          "time": 4.742642,
          "velocity": 0.6299212598425197
        },
        {
          "duration": 0.10937488333333345,
          "durationTicks": 119,
          "midi": 67,
          "name": "G4",
          "ticks": 5520,
          "time": 5.073524,
          "velocity": 0.6299212598425197
        },
        {
          "duration": 0.10937488333333345,
          "durationTicks": 119,
          "midi": 64,
          "name": "E4",
          "ticks": 5640,
          "time": 5.1838180000000005,
          "velocity": 0.6299212598425197
        },
        {
          "duration": 0.10937488333333345,
          "durationTicks": 119,
          "midi": 62,
          "name": "D4",
          "ticks": 5760,
          "time": 5.294112,
          "velocity": 0.6299212598425197
        },
        {
          "duration": 0.10937488333333345,
          "durationTicks": 119,
          "midi": 64,
          "name": "E4",
          "ticks": 5880,
          "time": 5.404406,
          "velocity": 0.6299212598425197
        },
        {
          "duration": 0.10937488333333256,
          "durationTicks": 119,
          "midi": 67,
          "name": "G4",
          "ticks": 6240,
          "time": 5.735288000000001,
          "velocity": 0.6299212598425197
        },
        {
          "duration": 0.10937488333333345,
          "durationTicks": 119,
          "midi": 64,
          "name": "E4",
          "ticks": 6360,
          "time": 5.845582,
          "velocity": 0.6299212598425197
        },
        {
          "duration": 0.10937488333333345,
          "durationTicks": 119,
          "midi": 62,
          "name": "D4",
          "ticks": 6480,
          "time": 5.955876,
          "velocity": 0.6299212598425197
        },
        {
          "duration": 0.10937488333333345,
          "durationTicks": 119,
          "midi": 64,
          "name": "E4",
          "ticks": 6600,
          "time": 6.0661700000000005,
          "velocity": 0.6299212598425197
        },
        {
          "duration": 0.10937488333333345,
          "durationTicks": 119,
          "midi": 62,
          "name": "D4",
          "ticks": 6840,
          "time": 6.286758,
          "velocity": 0.6299212598425197
        },
        {
          "duration": 0.6608448833333336,
          "durationTicks": 719,
          "midi": 64,
          "name": "E4",
          "ticks": 6960,
          "time": 6.397052,
          "velocity": 0.6299212598425197
        },
        {
          "duration": 0.21966888333333223,
          "durationTicks": 239,
          "midi": 59,
          "name": "B3",
          "ticks": 7920,
          "time": 7.279404,
          "velocity": 0.6299212598425197
        },
        {
          "duration": 0.10937488333333256,
          "durationTicks": 119,
          "midi": 67,
          "name": "G4",
          "ticks": 8160,
          "time": 7.499992000000001,
          "velocity": 0.6299212598425197
        },
        {
          "duration": 0.10937488333333256,
          "durationTicks": 119,
          "midi": 66,
          "name": "F#4",
          "ticks": 8280,
          "time": 7.610286,
          "velocity": 0.6299212598425197
        },
        {
          "duration": 0.10937488333333256,
          "durationTicks": 119,
          "midi": 64,
          "name": "E4",
          "ticks": 8400,
          "time": 7.72058,
          "velocity": 0.6299212598425197
        },
        {
          "duration": 0.3299628833333328,
          "durationTicks": 359,
          "midi": 62,
          "name": "D4",
          "ticks": 8520,
          "time": 7.830874000000001,
          "velocity": 0.6299212598425197
        },
        {
          "duration": 0.21966888333333223,
          "durationTicks": 239,
          "midi": 64,
          "name": "E4",
          "ticks": 8880,
          "time": 8.161756,
          "velocity": 0.6299212598425197
        },
        {
          "duration": 0.04319848333333276,
          "durationTicks": 47,
          "midi": 62,
          "name": "D4",
          "ticks": 10320,
          "time": 9.485284,
          "velocity": 0.6299212598425197
        },
        {
          "duration": 0.04319848333333276,
          "durationTicks": 47,
          "midi": 63,
          "name": "D#4",
          "ticks": 10368,
          "time": 9.529401600000002,
          "velocity": 0.6299212598425197
        },
        {
          "duration": 0.04319848333333276,
          "durationTicks": 47,
          "midi": 64,
          "name": "E4",
          "ticks": 10416,
          "time": 9.5735192,
          "velocity": 0.6299212598425197
        },
        {
          "duration": 0.04319848333333276,
          "durationTicks": 47,
          "midi": 65,
          "name": "F4",
          "ticks": 10464,
          "time": 9.617636800000001,
          "velocity": 0.6299212598425197
        },
        {
          "duration": 0.04319848333333276,
          "durationTicks": 47,
          "midi": 66,
          "name": "F#4",
          "ticks": 10512,
          "time": 9.6617544,
          "velocity": 0.6299212598425197
        },
        {
          "duration": 0.29411733333333423,
          "durationTicks": 320,
          "midi": 67,
          "name": "G4",
          "ticks": 10560,
          "time": 9.705872,
          "velocity": 0.7559055118110236
        },
        {
          "duration": 0.29411733333333423,
          "durationTicks": 320,
          "midi": 66,
          "name": "F#4",
          "ticks": 11040,
          "time": 10.147048,
          "velocity": 0.7559055118110236
        },
        {
          "duration": 0.3299628833333319,
          "durationTicks": 359,
          "midi": 64,
          "name": "E4",
          "ticks": 11520,
          "time": 10.588224,
          "velocity": 0.7559055118110236
        },
        {
          "duration": 0.21966888333333223,
          "durationTicks": 239,
          "midi": 62,
          "name": "D4",
          "ticks": 11880,
          "time": 10.919106000000001,
          "velocity": 0.7559055118110236
        },
        {
          "duration": 0.3299628833333319,
          "durationTicks": 359,
          "midi": 62,
          "name": "D4",
          "ticks": 12120,
          "time": 11.139694,
          "velocity": 0.7559055118110236
        },
        {
          "duration": 0.10937488333333256,
          "durationTicks": 119,
          "midi": 67,
          "name": "G4",
          "ticks": 12480,
          "time": 11.470576000000001,
          "velocity": 0.6299212598425197
        },
        {
          "duration": 0.10937488333333256,
          "durationTicks": 119,
          "midi": 67,
          "name": "G4",
          "ticks": 12600,
          "time": 11.58087,
          "velocity": 0.6299212598425197
        },
        {
          "duration": 0.10937488333333256,
          "durationTicks": 119,
          "midi": 67,
          "name": "G4",
          "ticks": 12720,
          "time": 11.691164,
          "velocity": 0.6299212598425197
        },
        {
          "duration": 0.10937488333333256,
          "durationTicks": 119,
          "midi": 67,
          "name": "G4",
          "ticks": 12840,
          "time": 11.801458,
          "velocity": 0.6299212598425197
        },
        {
          "duration": 0.10937488333333256,
          "durationTicks": 119,
          "midi": 67,
          "name": "G4",
          "ticks": 13200,
          "time": 12.132340000000001,
          "velocity": 0.6299212598425197
        },
        {
          "duration": 0.10937488333333256,
          "durationTicks": 119,
          "midi": 67,
          "name": "G4",
          "ticks": 13320,
          "time": 12.242634,
          "velocity": 0.6299212598425197
        },
        {
          "duration": 0.10937488333333256,
          "durationTicks": 119,
          "midi": 67,
          "name": "G4",
          "ticks": 13440,
          "time": 12.352928,
          "velocity": 0.6299212598425197
        },
        {
          "duration": 0.10937488333333256,
          "durationTicks": 119,
          "midi": 67,
          "name": "G4",
          "ticks": 13560,
          "time": 12.463222,
          "velocity": 0.6299212598425197
        },
        {
          "duration": 0.10937488333333256,
          "durationTicks": 119,
          "midi": 67,
          "name": "G4",
          "ticks": 13920,
          "time": 12.794104,
          "velocity": 0.6299212598425197
        },
        {
          "duration": 0.10937488333333256,
          "durationTicks": 119,
          "midi": 67,
          "name": "G4",
          "ticks": 14040,
          "time": 12.904398,
          "velocity": 0.6299212598425197
        },
        {
          "duration": 0.10937488333333256,
          "durationTicks": 119,
          "midi": 67,
          "name": "G4",
          "ticks": 14160,
          "time": 13.014692,
          "velocity": 0.6299212598425197
        },
        {
          "duration": 0.10937488333333256,
          "durationTicks": 119,
          "midi": 67,
          "name": "G4",
          "ticks": 14280,
          "time": 13.124986,
          "velocity": 0.6299212598425197
        },
        {
          "duration": 0.10937488333333256,
          "durationTicks": 119,
          "midi": 62,
          "name": "D4",
          "ticks": 14520,
          "time": 13.345574000000001,
          "velocity": 0.6299212598425197
        },
        {
          "duration": 1.1020208833333331,
          "durationTicks": 1199,
          "midi": 64,
          "name": "E4",
          "ticks": 14640,
          "time": 13.455868,
          "velocity": 0.6299212598425197
        },
        {
          "duration": 0.6608448833333345,
          "durationTicks": 719,
          "midi": 66,
          "name": "F#4",
          "ticks": 16080,
          "time": 14.779396,
          "velocity": 0.6299212598425197
        },
        {
          "duration": 0.8814328833333338,
          "durationTicks": 959,
          "midi": 67,
          "name": "G4",
          "ticks": 17040,
          "time": 15.661748000000001,
          "velocity": 0.6299212598425197
        },
        {
          "duration": 0.44025688333333335,
          "durationTicks": 479,
          "midi": 69,
          "name": "A4",
          "ticks": 18000,
          "time": 16.5441,
          "velocity": 0.6299212598425197
        },
        {
          "duration": 0.219668883333334,
          "durationTicks": 239,
          "midi": 71,
          "name": "B4",
          "ticks": 18480,
          "time": 16.985276,
          "velocity": 0.6299212598425197
        },
        {
          "duration": 0.219668883333334,
          "durationTicks": 239,
          "midi": 69,
          "name": "A4",
          "ticks": 18720,
          "time": 17.205864000000002,
          "velocity": 0.6299212598425197
        },
        {
          "duration": 0.44025688333333335,
          "durationTicks": 479,
          "midi": 72,
          "name": "C5",
          "ticks": 18960,
          "time": 17.426452,
          "velocity": 0.6299212598425197
        },
        {
          "duration": 0.10937488333333434,
          "durationTicks": 119,
          "midi": 76,
          "name": "E5",
          "ticks": 19440,
          "time": 17.867628,
          "velocity": 0.6299212598425197
        },
        {
          "duration": 0.10937488333333434,
          "durationTicks": 119,
          "midi": 76,
          "name": "E5",
          "ticks": 19680,
          "time": 18.088216,
          "velocity": 0.6299212598425197
        },
        {
          "duration": 0.10937488333333434,
          "durationTicks": 119,
          "midi": 76,
          "name": "E5",
          "ticks": 19920,
          "time": 18.308804000000002,
          "velocity": 0.6299212598425197
        },
        {
          "duration": 0.219668883333334,
          "durationTicks": 239,
          "midi": 76,
          "name": "E5",
          "ticks": 20160,
          "time": 18.529392,
          "velocity": 0.7559055118110236
        },
        {
          "duration": 0.10937488333333434,
          "durationTicks": 119,
          "midi": 74,
          "name": "D5",
          "ticks": 23280,
          "time": 21.397036,
          "velocity": 0.6299212598425197
        },
        {
          "duration": 0.10937488333333434,
          "durationTicks": 119,
          "midi": 76,
          "name": "E5",
          "ticks": 23400,
          "time": 21.50733,
          "velocity": 0.6299212598425197
        },
        {
          "duration": 0.10937488333333434,
          "durationTicks": 119,
          "midi": 74,
          "name": "D5",
          "ticks": 23520,
          "time": 21.617624,
          "velocity": 0.6299212598425197
        },
        {
          "duration": 0.10937488333333434,
          "durationTicks": 119,
          "midi": 71,
          "name": "B4",
          "ticks": 23640,
          "time": 21.727918,
          "velocity": 0.6299212598425197
        },
        {
          "duration": 0.10937488333333434,
          "durationTicks": 119,
          "midi": 67,
          "name": "G4",
          "ticks": 23760,
          "time": 21.838212000000002,
          "velocity": 0.6299212598425197
        },
        {
          "duration": 0.10937488333333434,
          "durationTicks": 119,
          "midi": 66,
          "name": "F#4",
          "ticks": 23880,
          "time": 21.948506000000002,
          "velocity": 0.6299212598425197
        },
        {
          "duration": 0.10937488333333434,
          "durationTicks": 119,
          "midi": 71,
          "name": "B4",
          "ticks": 27120,
          "time": 24.926444,
          "velocity": 0.6299212598425197
        },
        {
          "duration": 0.10937488333333434,
          "durationTicks": 119,
          "midi": 72,
          "name": "C5",
          "ticks": 27240,
          "time": 25.036738,
          "velocity": 0.6299212598425197
        },
        {
          "duration": 0.10937488333333434,
          "durationTicks": 119,
          "midi": 74,
          "name": "D5",
          "ticks": 27360,
          "time": 25.147032,
          "velocity": 0.6299212598425197
        },
        {
          "duration": 0.10937488333333434,
          "durationTicks": 119,
          "midi": 71,
          "name": "B4",
          "ticks": 27480,
          "time": 25.257326,
          "velocity": 0.6299212598425197
        },
        {
          "duration": 0.10937488333333434,
          "durationTicks": 119,
          "midi": 72,
          "name": "C5",
          "ticks": 27600,
          "time": 25.367620000000002,
          "velocity": 0.6299212598425197
        },
        {
          "duration": 0.10937488333333434,
          "durationTicks": 119,
          "midi": 74,
          "name": "D5",
          "ticks": 27720,
          "time": 25.477914000000002,
          "velocity": 0.6299212598425197
        },
        {
          "duration": 0.6608448833333327,
          "durationTicks": 719,
          "midi": 71,
          "name": "B4",
          "ticks": 27840,
          "time": 25.588208,
          "velocity": 0.6299212598425197
        },
        {
          "duration": 1.102020883333335,
          "durationTicks": 1199,
          "midi": 71,
          "name": "B4",
          "ticks": 28560,
          "time": 26.249972,
          "velocity": 0.6299212598425197
        },
        {
          "duration": 0.6608448833333362,
          "durationTicks": 719,
          "midi": 71,
          "name": "B4",
          "ticks": 29760,
          "time": 27.352912,
          "velocity": 0.6299212598425197
        },
        {
          "duration": 1.102020883333335,
          "durationTicks": 1199,
          "midi": 71,
          "name": "B4",
          "ticks": 30480,
          "time": 28.014676,
          "velocity": 0.6299212598425197
        },
        {
          "duration": 1.763784883333333,
          "durationTicks": 1919,
          "midi": 71,
          "name": "B4",
          "ticks": 31680,
          "time": 29.117616,
          "velocity": 0.6299212598425197
        },
        {
          "duration": 0.44025688333333335,
          "durationTicks": 479,
          "midi": 67,
          "name": "G4",
          "ticks": 33600,
          "time": 30.88232,
          "velocity": 0.6299212598425197
        },
        {
          "duration": 0.44025688333333335,
          "durationTicks": 479,
          "midi": 69,
          "name": "A4",
          "ticks": 34080,
          "time": 31.323496000000002,
          "velocity": 0.6299212598425197
        },
        {
          "duration": 0.4402568833333369,
          "durationTicks": 479,
          "midi": 71,
          "name": "B4",
          "ticks": 34560,
          "time": 31.764672,
          "velocity": 0.6299212598425197
        },
        {
          "duration": 0.44025688333333335,
          "durationTicks": 479,
          "midi": 72,
          "name": "C5",
          "ticks": 35040,
          "time": 32.205848,
          "velocity": 0.6299212598425197
        },
        {
          "duration": 0.44025688333333335,
          "durationTicks": 479,
          "midi": 62,
          "name": "D4",
          "ticks": 37200,
          "time": 34.191140000000004,
          "velocity": 0.7559055118110236
        },
        {
          "duration": 0.219668883333334,
          "durationTicks": 239,
          "midi": 60,
          "name": "C4",
          "ticks": 37680,
          "time": 34.632316,
          "velocity": 0.6299212598425197
        },
        {
          "duration": 0.219668883333334,
          "durationTicks": 239,
          "midi": 59,
          "name": "B3",
          "ticks": 37920,
          "time": 34.852904,
          "velocity": 0.6299212598425197
        },
        {
          "duration": 0.219668883333334,
          "durationTicks": 239,
          "midi": 60,
          "name": "C4",
          "ticks": 38160,
          "time": 35.073492,
          "velocity": 0.6299212598425197
        },
        {
          "duration": 0.219668883333334,
          "durationTicks": 239,
          "midi": 59,
          "name": "B3",
          "ticks": 38400,
          "time": 35.29408,
          "velocity": 0.6299212598425197
        },
        {
          "duration": 0.6608448833333327,
          "durationTicks": 719,
          "midi": 55,
          "name": "G3",
          "ticks": 38640,
          "time": 35.514668,
          "velocity": 0.6299212598425197
        },
        {
          "duration": 0.219668883333334,
          "durationTicks": 239,
          "midi": 62,
          "name": "D4",
          "ticks": 40560,
          "time": 37.279372,
          "velocity": 0.6299212598425197
        },
        {
          "duration": 0.219668883333334,
          "durationTicks": 239,
          "midi": 62,
          "name": "D4",
          "ticks": 40800,
          "time": 37.49996,
          "velocity": 0.6299212598425197
        },
        {
          "duration": 0.44025688333333335,
          "durationTicks": 479,
          "midi": 67,
          "name": "G4",
          "ticks": 41040,
          "time": 37.720548,
          "velocity": 0.7559055118110236
        },
        {
          "duration": 0.219668883333334,
          "durationTicks": 239,
          "midi": 62,
          "name": "D4",
          "ticks": 41520,
          "time": 38.161724,
          "velocity": 0.6299212598425197
        },
        {
          "duration": 0.219668883333334,
          "durationTicks": 239,
          "midi": 62,
          "name": "D4",
          "ticks": 41760,
          "time": 38.382312,
          "velocity": 0.6299212598425197
        },
        {
          "duration": 0.44025688333334045,
          "durationTicks": 479,
          "midi": 64,
          "name": "E4",
          "ticks": 42000,
          "time": 38.6029,
          "velocity": 0.6299212598425197
        },
        {
          "duration": 0.219668883333334,
          "durationTicks": 239,
          "midi": 62,
          "name": "D4",
          "ticks": 42480,
          "time": 39.044076000000004,
          "velocity": 0.6299212598425197
        },
        {
          "duration": 0.44025688333333335,
          "durationTicks": 479,
          "midi": 62,
          "name": "D4",
          "ticks": 42720,
          "time": 39.264664,
          "velocity": 0.6299212598425197
        },
        {
          "duration": 0.219668883333334,
          "durationTicks": 239,
          "midi": 74,
          "name": "D5",
          "ticks": 44400,
          "time": 40.80878,
          "velocity": 0.8818897637795275
        },
        {
          "duration": 0.219668883333334,
          "durationTicks": 239,
          "midi": 74,
          "name": "D5",
          "ticks": 44640,
          "time": 41.029368,
          "velocity": 0.8818897637795275
        },
        {
          "duration": 0.44025688333333335,
          "durationTicks": 479,
          "midi": 74,
          "name": "D5",
          "ticks": 44880,
          "time": 41.249956000000005,
          "velocity": 0.8818897637795275
        },
        {
          "duration": 0.219668883333334,
          "durationTicks": 239,
          "midi": 72,
          "name": "C5",
          "ticks": 45360,
          "time": 41.691132,
          "velocity": 0.8818897637795275
        },
        {
          "duration": 0.219668883333334,
          "durationTicks": 239,
          "midi": 71,
          "name": "B4",
          "ticks": 45600,
          "time": 41.91172,
          "velocity": 0.8818897637795275
        },
        {
          "duration": 0.219668883333334,
          "durationTicks": 239,
          "midi": 72,
          "name": "C5",
          "ticks": 45840,
          "time": 42.132308,
          "velocity": 0.8818897637795275
        },
        {
          "duration": 0.219668883333334,
          "durationTicks": 239,
          "midi": 71,
          "name": "B4",
          "ticks": 46080,
          "time": 42.352896,
          "velocity": 0.8818897637795275
        },
        {
          "duration": 0.219668883333334,
          "durationTicks": 239,
          "midi": 67,
          "name": "G4",
          "ticks": 46320,
          "time": 42.573484,
          "velocity": 0.8818897637795275
        },
        {
          "duration": 0.219668883333334,
          "durationTicks": 239,
          "midi": 67,
          "name": "G4",
          "ticks": 46560,
          "time": 42.794072,
          "velocity": 0.8818897637795275
        },
        {
          "duration": 0.219668883333334,
          "durationTicks": 239,
          "midi": 67,
          "name": "G4",
          "ticks": 46800,
          "time": 43.01466,
          "velocity": 0.8818897637795275
        },
        {
          "duration": 0.219668883333334,
          "durationTicks": 239,
          "midi": 72,
          "name": "C5",
          "ticks": 47040,
          "time": 43.235248,
          "velocity": 0.8818897637795275
        },
        {
          "duration": 0.219668883333334,
          "durationTicks": 239,
          "midi": 72,
          "name": "C5",
          "ticks": 47280,
          "time": 43.455836,
          "velocity": 0.8818897637795275
        },
        {
          "duration": 0.219668883333334,
          "durationTicks": 239,
          "midi": 72,
          "name": "C5",
          "ticks": 47520,
          "time": 43.676424000000004,
          "velocity": 0.8818897637795275
        },
        {
          "duration": 0.219668883333334,
          "durationTicks": 239,
          "midi": 71,
          "name": "B4",
          "ticks": 47760,
          "time": 43.897012000000004,
          "velocity": 0.8818897637795275
        },
        {
          "duration": 0.219668883333334,
          "durationTicks": 239,
          "midi": 67,
          "name": "G4",
          "ticks": 48240,
          "time": 44.338188,
          "velocity": 0.8818897637795275
        },
        {
          "duration": 1.5431968833333372,
          "durationTicks": 1679,
          "midi": 69,
          "name": "A4",
          "ticks": 48720,
          "time": 44.779364,
          "velocity": 0.8818897637795275
        },
        {
          "duration": 0.44025688333333335,
          "durationTicks": 479,
          "midi": 74,
          "name": "D5",
          "ticks": 50640,
          "time": 46.544068,
          "velocity": 0.8818897637795275
        },
        {
          "duration": 0.219668883333334,
          "durationTicks": 239,
          "midi": 74,
          "name": "D5",
          "ticks": 51120,
          "time": 46.985244,
          "velocity": 0.8818897637795275
        },
        {
          "duration": 0.219668883333334,
          "durationTicks": 239,
          "midi": 74,
          "name": "D5",
          "ticks": 51360,
          "time": 47.205832,
          "velocity": 0.8818897637795275
        },
        {
          "duration": 0.219668883333334,
          "durationTicks": 239,
          "midi": 74,
          "name": "D5",
          "ticks": 51600,
          "time": 47.42642,
          "velocity": 0.8818897637795275
        },
        {
          "duration": 0.219668883333334,
          "durationTicks": 239,
          "midi": 76,
          "name": "E5",
          "ticks": 51840,
          "time": 47.647008,
          "velocity": 1
        },
        {
          "duration": 0.219668883333334,
          "durationTicks": 239,
          "midi": 59,
          "name": "B3",
          "ticks": 53040,
          "time": 48.749948,
          "velocity": 0.8818897637795275
        },
        {
          "duration": 0.219668883333334,
          "durationTicks": 239,
          "midi": 74,
          "name": "D5",
          "ticks": 53040,
          "time": 48.749948,
          "velocity": 0.8818897637795275
        },
        {
          "duration": 0.219668883333334,
          "durationTicks": 239,
          "midi": 59,
          "name": "B3",
          "ticks": 53280,
          "time": 48.970536,
          "velocity": 0.8818897637795275
        },
        {
          "duration": 0.219668883333334,
          "durationTicks": 239,
          "midi": 74,
          "name": "D5",
          "ticks": 53280,
          "time": 48.970536,
          "velocity": 0.8818897637795275
        },
        {
          "duration": 0.219668883333334,
          "durationTicks": 239,
          "midi": 59,
          "name": "B3",
          "ticks": 53520,
          "time": 49.191124,
          "velocity": 0.8818897637795275
        },
        {
          "duration": 0.219668883333334,
          "durationTicks": 239,
          "midi": 74,
          "name": "D5",
          "ticks": 53520,
          "time": 49.191124,
          "velocity": 0.8818897637795275
        },
        {
          "duration": 0.44025688333333335,
          "durationTicks": 479,
          "midi": 59,
          "name": "B3",
          "ticks": 53760,
          "time": 49.411712,
          "velocity": 0.8818897637795275
        },
        {
          "duration": 0.44025688333333335,
          "durationTicks": 479,
          "midi": 74,
          "name": "D5",
          "ticks": 53760,
          "time": 49.411712,
          "velocity": 0.8818897637795275
        },
        {
          "duration": 0.44025688333333335,
          "durationTicks": 479,
          "midi": 59,
          "name": "B3",
          "ticks": 54240,
          "time": 49.852888,
          "velocity": 0.8818897637795275
        },
        {
          "duration": 0.44025688333333335,
          "durationTicks": 479,
          "midi": 67,
          "name": "G4",
          "ticks": 54240,
          "time": 49.852888,
          "velocity": 0.8818897637795275
        },
        {
          "duration": 0.219668883333334,
          "durationTicks": 239,
          "midi": 57,
          "name": "A3",
          "ticks": 54720,
          "time": 50.294064,
          "velocity": 0.8818897637795275
        },
        {
          "duration": 0.219668883333334,
          "durationTicks": 239,
          "midi": 66,
          "name": "F#4",
          "ticks": 54720,
          "time": 50.294064,
          "velocity": 0.8818897637795275
        },
        {
          "duration": 0.44025688333334045,
          "durationTicks": 479,
          "midi": 59,
          "name": "B3",
          "ticks": 54960,
          "time": 50.514652,
          "velocity": 0.8818897637795275
        },
        {
          "duration": 0.44025688333334045,
          "durationTicks": 479,
          "midi": 67,
          "name": "G4",
          "ticks": 54960,
          "time": 50.514652,
          "velocity": 0.8818897637795275
        },
        {
          "duration": 1.1020208833333314,
          "durationTicks": 1199,
          "midi": 59,
          "name": "B3",
          "ticks": 55440,
          "time": 50.955828000000004,
          "velocity": 0.8818897637795275
        },
        {
          "duration": 1.1020208833333314,
          "durationTicks": 1199,
          "midi": 67,
          "name": "G4",
          "ticks": 55440,
          "time": 50.955828000000004,
          "velocity": 0.8818897637795275
        },
        {
          "duration": 0.44025688333333335,
          "durationTicks": 479,
          "midi": 59,
          "name": "B3",
          "ticks": 56880,
          "time": 52.279356,
          "velocity": 0.8818897637795275
        },
        {
          "duration": 0.44025688333333335,
          "durationTicks": 479,
          "midi": 74,
          "name": "D5",
          "ticks": 56880,
          "time": 52.279356,
          "velocity": 0.8818897637795275
        },
        {
          "duration": 0.219668883333334,
          "durationTicks": 239,
          "midi": 59,
          "name": "B3",
          "ticks": 57360,
          "time": 52.720532,
          "velocity": 0.8818897637795275
        },
        {
          "duration": 0.219668883333334,
          "durationTicks": 239,
          "midi": 74,
          "name": "D5",
          "ticks": 57360,
          "time": 52.720532,
          "velocity": 0.8818897637795275
        },
        {
          "duration": 0.44025688333334045,
          "durationTicks": 479,
          "midi": 59,
          "name": "B3",
          "ticks": 57600,
          "time": 52.94112,
          "velocity": 0.8818897637795275
        },
        {
          "duration": 0.44025688333334045,
          "durationTicks": 479,
          "midi": 74,
          "name": "D5",
          "ticks": 57600,
          "time": 52.94112,
          "velocity": 0.8818897637795275
        },
        {
          "duration": 0.44025688333333335,
          "durationTicks": 479,
          "midi": 59,
          "name": "B3",
          "ticks": 58080,
          "time": 53.382296000000004,
          "velocity": 0.8818897637795275
        },
        {
          "duration": 0.44025688333333335,
          "durationTicks": 479,
          "midi": 67,
          "name": "G4",
          "ticks": 58080,
          "time": 53.382296000000004,
          "velocity": 0.8818897637795275
        },
        {
          "duration": 0.219668883333334,
          "durationTicks": 239,
          "midi": 57,
          "name": "A3",
          "ticks": 58560,
          "time": 53.823472,
          "velocity": 0.8818897637795275
        },
        {
          "duration": 0.219668883333334,
          "durationTicks": 239,
          "midi": 65,
          "name": "F4",
          "ticks": 58560,
          "time": 53.823472,
          "velocity": 0.8818897637795275
        },
        {
          "duration": 0.219668883333334,
          "durationTicks": 239,
          "midi": 59,
          "name": "B3",
          "ticks": 58800,
          "time": 54.04406,
          "velocity": 0.8818897637795275
        },
        {
          "duration": 0.219668883333334,
          "durationTicks": 239,
          "midi": 67,
          "name": "G4",
          "ticks": 58800,
          "time": 54.04406,
          "velocity": 0.8818897637795275
        },
        {
          "duration": 0.219668883333334,
          "durationTicks": 239,
          "midi": 60,
          "name": "C4",
          "ticks": 59040,
          "time": 54.264648,
          "velocity": 0.8818897637795275
        },
        {
          "duration": 0.219668883333334,
          "durationTicks": 239,
          "midi": 69,
          "name": "A4",
          "ticks": 59040,
          "time": 54.264648,
          "velocity": 0.8818897637795275
        },
        {
          "duration": 1.1020208833333385,
          "durationTicks": 1199,
          "midi": 59,
          "name": "B3",
          "ticks": 59280,
          "time": 54.485236,
          "velocity": 0.8818897637795275
        },
        {
          "duration": 1.1020208833333385,
          "durationTicks": 1199,
          "midi": 67,
          "name": "G4",
          "ticks": 59280,
          "time": 54.485236,
          "velocity": 0.8818897637795275
        },
        {
          "duration": 0.219668883333334,
          "durationTicks": 239,
          "midi": 59,
          "name": "B3",
          "ticks": 60720,
          "time": 55.808764000000004,
          "velocity": 0.8818897637795275
        },
        {
          "duration": 0.219668883333334,
          "durationTicks": 239,
          "midi": 62,
          "name": "D4",
          "ticks": 60720,
          "time": 55.808764000000004,
          "velocity": 0.8818897637795275
        },
        {
          "duration": 0.219668883333334,
          "durationTicks": 239,
          "midi": 59,
          "name": "B3",
          "ticks": 60960,
          "time": 56.029352,
          "velocity": 0.8818897637795275
        },
        {
          "duration": 0.219668883333334,
          "durationTicks": 239,
          "midi": 62,
          "name": "D4",
          "ticks": 60960,
          "time": 56.029352,
          "velocity": 0.8818897637795275
        },
        {
          "duration": 0.219668883333334,
          "durationTicks": 239,
          "midi": 59,
          "name": "B3",
          "ticks": 61200,
          "time": 56.24994,
          "velocity": 0.8818897637795275
        },
        {
          "duration": 0.219668883333334,
          "durationTicks": 239,
          "midi": 62,
          "name": "D4",
          "ticks": 61200,
          "time": 56.24994,
          "velocity": 0.8818897637795275
        },
        {
          "duration": 0.44025688333333335,
          "durationTicks": 479,
          "midi": 59,
          "name": "B3",
          "ticks": 61440,
          "time": 56.470528,
          "velocity": 0.8818897637795275
        },
        {
          "duration": 0.44025688333333335,
          "durationTicks": 479,
          "midi": 62,
          "name": "D4",
          "ticks": 61440,
          "time": 56.470528,
          "velocity": 0.8818897637795275
        },
        {
          "duration": 0.44025688333333335,
          "durationTicks": 479,
          "midi": 64,
          "name": "E4",
          "ticks": 61920,
          "time": 56.911704,
          "velocity": 0.8818897637795275
        },
        {
          "duration": 0.44025688333333335,
          "durationTicks": 479,
          "midi": 67,
          "name": "G4",
          "ticks": 61920,
          "time": 56.911704,
          "velocity": 0.8818897637795275
        },
        {
          "duration": 0.44025688333333335,
          "durationTicks": 479,
          "midi": 63,
          "name": "D#4",
          "ticks": 62400,
          "time": 57.35288,
          "velocity": 0.8818897637795275
        },
        {
          "duration": 0.44025688333333335,
          "durationTicks": 479,
          "midi": 66,
          "name": "F#4",
          "ticks": 62400,
          "time": 57.35288,
          "velocity": 0.8818897637795275
        },
        {
          "duration": 0.219668883333334,
          "durationTicks": 239,
          "midi": 64,
          "name": "E4",
          "ticks": 62880,
          "time": 57.794056000000005,
          "velocity": 0.8818897637795275
        },
        {
          "duration": 0.219668883333334,
          "durationTicks": 239,
          "midi": 67,
          "name": "G4",
          "ticks": 62880,
          "time": 57.794056000000005,
          "velocity": 0.8818897637795275
        },
        {
          "duration": 1.1020208833333314,
          "durationTicks": 1199,
          "midi": 64,
          "name": "E4",
          "ticks": 63120,
          "time": 58.014644000000004,
          "velocity": 0.8818897637795275
        },
        {
          "duration": 1.1020208833333314,
          "durationTicks": 1199,
          "midi": 67,
          "name": "G4",
          "ticks": 63120,
          "time": 58.014644000000004,
          "velocity": 0.8818897637795275
        },
        {
          "duration": 0.44025688333333335,
          "durationTicks": 479,
          "midi": 67,
          "name": "G4",
          "ticks": 64320,
          "time": 59.117584,
          "velocity": 0.9921259842519685
        },
        {
          "duration": 0.44025688333333335,
          "durationTicks": 479,
          "midi": 79,
          "name": "G5",
          "ticks": 64320,
          "time": 59.117584,
          "velocity": 0.9921259842519685
        },
        {
          "duration": 0.44025688333333335,
          "durationTicks": 479,
          "midi": 64,
          "name": "E4",
          "ticks": 64800,
          "time": 59.55876,
          "velocity": 0.9921259842519685
        },
        {
          "duration": 0.44025688333333335,
          "durationTicks": 479,
          "midi": 76,
          "name": "E5",
          "ticks": 64800,
          "time": 59.55876,
          "velocity": 0.9921259842519685
        },
        {
          "duration": 0.44025688333333335,
          "durationTicks": 479,
          "midi": 60,
          "name": "C4",
          "ticks": 65280,
          "time": 59.999936000000005,
          "velocity": 0.9921259842519685
        },
        {
          "duration": 0.44025688333333335,
          "durationTicks": 479,
          "midi": 72,
          "name": "C5",
          "ticks": 65280,
          "time": 59.999936000000005,
          "velocity": 0.9921259842519685
        },
        {
          "duration": 0.44025688333333335,
          "durationTicks": 479,
          "midi": 57,
          "name": "A3",
          "ticks": 65760,
          "time": 60.441112000000004,
          "velocity": 0.9921259842519685
        },
        {
          "duration": 0.44025688333333335,
          "durationTicks": 479,
          "midi": 69,
          "name": "A4",
          "ticks": 65760,
          "time": 60.441112000000004,
          "velocity": 0.9921259842519685
        },
        {
          "duration": 0.881432883333332,
          "durationTicks": 959,
          "midi": 55,
          "name": "G3",
          "ticks": 66240,
          "time": 60.882288,
          "velocity": 0.9921259842519685
        },
        {
          "duration": 0.881432883333332,
          "durationTicks": 959,
          "midi": 67,
          "name": "G4",
          "ticks": 66240,
          "time": 60.882288,
          "velocity": 0.9921259842519685
        },
        {
          "duration": 0.6608448833333327,
          "durationTicks": 719,
          "midi": 54,
          "name": "F#3",
          "ticks": 67200,
          "time": 61.76464,
          "velocity": 0.9921259842519685
        },
        {
          "duration": 0.6608448833333327,
          "durationTicks": 719,
          "midi": 66,
          "name": "F#4",
          "ticks": 67200,
          "time": 61.76464,
          "velocity": 0.9921259842519685
        },
        {
          "duration": 0.881432883333332,
          "durationTicks": 959,
          "midi": 54,
          "name": "F#3",
          "ticks": 67920,
          "time": 62.426404000000005,
          "velocity": 0.9921259842519685
        },
        {
          "duration": 0.881432883333332,
          "durationTicks": 959,
          "midi": 66,
          "name": "F#4",
          "ticks": 67920,
          "time": 62.426404000000005,
          "velocity": 0.9921259842519685
        },
        {
          "duration": 0.6608448833333327,
          "durationTicks": 719,
          "midi": 67,
          "name": "G4",
          "ticks": 68880,
          "time": 63.308756,
          "velocity": 0.9921259842519685
        },
        {
          "duration": 0.44025688333333335,
          "durationTicks": 479,
          "midi": 69,
          "name": "A4",
          "ticks": 69840,
          "time": 64.191108,
          "velocity": 0.9921259842519685
        },
        {
          "duration": 0.21966888333334111,
          "durationTicks": 239,
          "midi": 71,
          "name": "B4",
          "ticks": 70320,
          "time": 64.632284,
          "velocity": 0.9921259842519685
        },
        {
          "duration": 0.2196688833333269,
          "durationTicks": 239,
          "midi": 69,
          "name": "A4",
          "ticks": 70560,
          "time": 64.852872,
          "velocity": 0.9921259842519685
        },
        {
          "duration": 1.1020208833333385,
          "durationTicks": 1199,
          "midi": 72,
          "name": "C5",
          "ticks": 70800,
          "time": 65.07346,
          "velocity": 0.9921259842519685
        },
        {
          "duration": 0.10937488333333079,
          "durationTicks": 119,
          "midi": 67,
          "name": "G4",
          "ticks": 72000,
          "time": 66.1764,
          "velocity": 0.6299212598425197
        },
        {
          "duration": 0.109374883333345,
          "durationTicks": 119,
          "midi": 67,
          "name": "G4",
          "ticks": 72120,
          "time": 66.286694,
          "velocity": 0.6299212598425197
        },
        {
          "duration": 0.10937488333333079,
          "durationTicks": 119,
          "midi": 67,
          "name": "G4",
          "ticks": 72240,
          "time": 66.39698800000001,
          "velocity": 0.6299212598425197
        },
        {
          "duration": 0.10937488333333079,
          "durationTicks": 119,
          "midi": 67,
          "name": "G4",
          "ticks": 72360,
          "time": 66.507282,
          "velocity": 0.6299212598425197
        },
        {
          "duration": 0.10937488333333079,
          "durationTicks": 119,
          "midi": 67,
          "name": "G4",
          "ticks": 72720,
          "time": 66.838164,
          "velocity": 0.6299212598425197
        },
        {
          "duration": 0.10937488333333079,
          "durationTicks": 119,
          "midi": 67,
          "name": "G4",
          "ticks": 72840,
          "time": 66.948458,
          "velocity": 0.6299212598425197
        },
        {
          "duration": 0.10937488333333079,
          "durationTicks": 119,
          "midi": 67,
          "name": "G4",
          "ticks": 72960,
          "time": 67.058752,
          "velocity": 0.6299212598425197
        },
        {
          "duration": 0.10937488333333079,
          "durationTicks": 119,
          "midi": 67,
          "name": "G4",
          "ticks": 73080,
          "time": 67.16904600000001,
          "velocity": 0.6299212598425197
        },
        {
          "duration": 0.109374883333345,
          "durationTicks": 119,
          "midi": 67,
          "name": "G4",
          "ticks": 73440,
          "time": 67.499928,
          "velocity": 0.6299212598425197
        },
        {
          "duration": 0.10937488333333079,
          "durationTicks": 119,
          "midi": 67,
          "name": "G4",
          "ticks": 73560,
          "time": 67.61022200000001,
          "velocity": 0.6299212598425197
        },
        {
          "duration": 0.10937488333333079,
          "durationTicks": 119,
          "midi": 67,
          "name": "G4",
          "ticks": 73680,
          "time": 67.720516,
          "velocity": 0.6299212598425197
        },
        {
          "duration": 0.10937488333333079,
          "durationTicks": 119,
          "midi": 67,
          "name": "G4",
          "ticks": 73800,
          "time": 67.83081,
          "velocity": 0.6299212598425197
        },
        {
          "duration": 0.10937488333333079,
          "durationTicks": 119,
          "midi": 62,
          "name": "D4",
          "ticks": 74040,
          "time": 68.051398,
          "velocity": 0.6299212598425197
        },
        {
          "duration": 0.6608448833333398,
          "durationTicks": 719,
          "midi": 64,
          "name": "E4",
          "ticks": 74160,
          "time": 68.161692,
          "velocity": 0.6299212598425197
        },
        {
          "duration": 0.21966888333334111,
          "durationTicks": 239,
          "midi": 59,
          "name": "B3",
          "ticks": 75120,
          "time": 69.044044,
          "velocity": 0.6299212598425197
        },
        {
          "duration": 0.10937488333333079,
          "durationTicks": 119,
          "midi": 67,
          "name": "G4",
          "ticks": 75360,
          "time": 69.264632,
          "velocity": 0.6299212598425197
        },
        {
          "duration": 0.10937488333333079,
          "durationTicks": 119,
          "midi": 66,
          "name": "F#4",
          "ticks": 75480,
          "time": 69.374926,
          "velocity": 0.6299212598425197
        },
        {
          "duration": 0.109374883333345,
          "durationTicks": 119,
          "midi": 64,
          "name": "E4",
          "ticks": 75600,
          "time": 69.48522,
          "velocity": 0.6299212598425197
        },
        {
          "duration": 0.329962883333323,
          "durationTicks": 359,
          "midi": 62,
          "name": "D4",
          "ticks": 75720,
          "time": 69.59551400000001,
          "velocity": 0.6299212598425197
        },
        {
          "duration": 0.21966888333334111,
          "durationTicks": 239,
          "midi": 64,
          "name": "E4",
          "ticks": 76080,
          "time": 69.926396,
          "velocity": 0.6299212598425197
        },
        {
          "duration": 0.04319848333332743,
          "durationTicks": 47,
          "midi": 62,
          "name": "D4",
          "ticks": 77520,
          "time": 71.24992400000001,
          "velocity": 0.6299212598425197
        },
        {
          "duration": 0.04319848333332743,
          "durationTicks": 47,
          "midi": 63,
          "name": "D#4",
          "ticks": 77568,
          "time": 71.2940416,
          "velocity": 0.6299212598425197
        },
        {
          "duration": 0.04319848333334164,
          "durationTicks": 47,
          "midi": 64,
          "name": "E4",
          "ticks": 77616,
          "time": 71.33815919999999,
          "velocity": 0.6299212598425197
        },
        {
          "duration": 0.04319848333332743,
          "durationTicks": 47,
          "midi": 65,
          "name": "F4",
          "ticks": 77664,
          "time": 71.38227680000001,
          "velocity": 0.6299212598425197
        },
        {
          "duration": 0.04319848333332743,
          "durationTicks": 47,
          "midi": 66,
          "name": "F#4",
          "ticks": 77712,
          "time": 71.4263944,
          "velocity": 0.6299212598425197
        },
        {
          "duration": 0.29411733333333245,
          "durationTicks": 320,
          "midi": 67,
          "name": "G4",
          "ticks": 77760,
          "time": 71.470512,
          "velocity": 0.7559055118110236
        },
        {
          "duration": 0.29411733333333245,
          "durationTicks": 320,
          "midi": 66,
          "name": "F#4",
          "ticks": 78240,
          "time": 71.911688,
          "velocity": 0.7559055118110236
        },
        {
          "duration": 0.32996288333333723,
          "durationTicks": 359,
          "midi": 64,
          "name": "E4",
          "ticks": 78720,
          "time": 72.352864,
          "velocity": 0.7559055118110236
        },
        {
          "duration": 0.21966888333334111,
          "durationTicks": 239,
          "midi": 62,
          "name": "D4",
          "ticks": 79080,
          "time": 72.683746,
          "velocity": 0.7559055118110236
        },
        {
          "duration": 0.32996288333333723,
          "durationTicks": 359,
          "midi": 62,
          "name": "D4",
          "ticks": 79320,
          "time": 72.904334,
          "velocity": 0.7559055118110236
        },
        {
          "duration": 0.10937488333333079,
          "durationTicks": 119,
          "midi": 67,
          "name": "G4",
          "ticks": 79680,
          "time": 73.23521600000001,
          "velocity": 0.6299212598425197
        },
        {
          "duration": 0.10937488333333079,
          "durationTicks": 119,
          "midi": 67,
          "name": "G4",
          "ticks": 79800,
          "time": 73.34551,
          "velocity": 0.6299212598425197
        },
        {
          "duration": 0.10937488333333079,
          "durationTicks": 119,
          "midi": 67,
          "name": "G4",
          "ticks": 79920,
          "time": 73.455804,
          "velocity": 0.6299212598425197
        },
        {
          "duration": 0.109374883333345,
          "durationTicks": 119,
          "midi": 67,
          "name": "G4",
          "ticks": 80040,
          "time": 73.566098,
          "velocity": 0.6299212598425197
        },
        {
          "duration": 0.10937488333333079,
          "durationTicks": 119,
          "midi": 67,
          "name": "G4",
          "ticks": 80400,
          "time": 73.89698,
          "velocity": 0.6299212598425197
        },
        {
          "duration": 0.109374883333345,
          "durationTicks": 119,
          "midi": 67,
          "name": "G4",
          "ticks": 80520,
          "time": 74.007274,
          "velocity": 0.6299212598425197
        },
        {
          "duration": 0.10937488333333079,
          "durationTicks": 119,
          "midi": 67,
          "name": "G4",
          "ticks": 80640,
          "time": 74.117568,
          "velocity": 0.6299212598425197
        },
        {
          "duration": 0.10937488333333079,
          "durationTicks": 119,
          "midi": 67,
          "name": "G4",
          "ticks": 80760,
          "time": 74.227862,
          "velocity": 0.6299212598425197
        },
        {
          "duration": 0.10937488333333079,
          "durationTicks": 119,
          "midi": 67,
          "name": "G4",
          "ticks": 81120,
          "time": 74.558744,
          "velocity": 0.6299212598425197
        },
        {
          "duration": 0.10937488333333079,
          "durationTicks": 119,
          "midi": 67,
          "name": "G4",
          "ticks": 81240,
          "time": 74.669038,
          "velocity": 0.6299212598425197
        },
        {
          "duration": 0.109374883333345,
          "durationTicks": 119,
          "midi": 67,
          "name": "G4",
          "ticks": 81360,
          "time": 74.779332,
          "velocity": 0.6299212598425197
        },
        {
          "duration": 0.10937488333333079,
          "durationTicks": 119,
          "midi": 67,
          "name": "G4",
          "ticks": 81480,
          "time": 74.889626,
          "velocity": 0.6299212598425197
        },
        {
          "duration": 0.10937488333333079,
          "durationTicks": 119,
          "midi": 62,
          "name": "D4",
          "ticks": 81720,
          "time": 75.110214,
          "velocity": 0.6299212598425197
        },
        {
          "duration": 1.1020208833333385,
          "durationTicks": 1199,
          "midi": 64,
          "name": "E4",
          "ticks": 81840,
          "time": 75.220508,
          "velocity": 0.6299212598425197
        },
        {
          "duration": 0.881432883333332,
          "durationTicks": 959,
          "midi": 66,
          "name": "F#4",
          "ticks": 83280,
          "time": 76.544036,
          "velocity": 0.6299212598425197
        },
        {
          "duration": 0.881432883333332,
          "durationTicks": 959,
          "midi": 67,
          "name": "G4",
          "ticks": 84240,
          "time": 77.426388,
          "velocity": 0.6299212598425197
        },
        {
          "duration": 0.44025688333333335,
          "durationTicks": 479,
          "midi": 69,
          "name": "A4",
          "ticks": 85200,
          "time": 78.30874,
          "velocity": 0.6299212598425197
        },
        {
          "duration": 0.21966888333334111,
          "durationTicks": 239,
          "midi": 71,
          "name": "B4",
          "ticks": 85680,
          "time": 78.749916,
          "velocity": 0.6299212598425197
        },
        {
          "duration": 0.2196688833333269,
          "durationTicks": 239,
          "midi": 69,
          "name": "A4",
          "ticks": 85920,
          "time": 78.970504,
          "velocity": 0.6299212598425197
        },
        {
          "duration": 1.1020208833333385,
          "durationTicks": 1199,
          "midi": 72,
          "name": "C5",
          "ticks": 86160,
          "time": 79.191092,
          "velocity": 0.6299212598425197
        },
        {
          "duration": 0.44025688333333335,
          "durationTicks": 479,
          "midi": 76,
          "name": "E5",
          "ticks": 88560,
          "time": 81.396972,
          "velocity": 0.7559055118110236
        },
        {
          "duration": 0.10937488333333079,
          "durationTicks": 119,
          "midi": 74,
          "name": "D5",
          "ticks": 90480,
          "time": 83.161676,
          "velocity": 0.6299212598425197
        },
        {
          "duration": 0.109374883333345,
          "durationTicks": 119,
          "midi": 76,
          "name": "E5",
          "ticks": 90600,
          "time": 83.27197,
          "velocity": 0.6299212598425197
        },
        {
          "duration": 0.10937488333333079,
          "durationTicks": 119,
          "midi": 74,
          "name": "D5",
          "ticks": 90720,
          "time": 83.382264,
          "velocity": 0.6299212598425197
        },
        {
          "duration": 0.10937488333333079,
          "durationTicks": 119,
          "midi": 71,
          "name": "B4",
          "ticks": 90840,
          "time": 83.492558,
          "velocity": 0.6299212598425197
        },
        {
          "duration": 0.109374883333345,
          "durationTicks": 119,
          "midi": 67,
          "name": "G4",
          "ticks": 90960,
          "time": 83.602852,
          "velocity": 0.6299212598425197
        },
        {
          "duration": 0.10937488333333079,
          "durationTicks": 119,
          "midi": 66,
          "name": "F#4",
          "ticks": 91080,
          "time": 83.71314600000001,
          "velocity": 0.6299212598425197
        },
        {
          "duration": 0.10937488333333079,
          "durationTicks": 119,
          "midi": 71,
          "name": "B4",
          "ticks": 94320,
          "time": 86.691084,
          "velocity": 0.6299212598425197
        },
        {
          "duration": 0.10937488333333079,
          "durationTicks": 119,
          "midi": 72,
          "name": "C5",
          "ticks": 94440,
          "time": 86.801378,
          "velocity": 0.6299212598425197
        },
        {
          "duration": 0.109374883333345,
          "durationTicks": 119,
          "midi": 74,
          "name": "D5",
          "ticks": 94560,
          "time": 86.911672,
          "velocity": 0.6299212598425197
        },
        {
          "duration": 0.10937488333333079,
          "durationTicks": 119,
          "midi": 71,
          "name": "B4",
          "ticks": 94680,
          "time": 87.021966,
          "velocity": 0.6299212598425197
        },
        {
          "duration": 0.10937488333333079,
          "durationTicks": 119,
          "midi": 72,
          "name": "C5",
          "ticks": 94800,
          "time": 87.13226,
          "velocity": 0.6299212598425197
        },
        {
          "duration": 0.109374883333345,
          "durationTicks": 119,
          "midi": 74,
          "name": "D5",
          "ticks": 94920,
          "time": 87.242554,
          "velocity": 0.6299212598425197
        },
        {
          "duration": 0.6608448833333256,
          "durationTicks": 719,
          "midi": 71,
          "name": "B4",
          "ticks": 95040,
          "time": 87.35284800000001,
          "velocity": 0.6299212598425197
        },
        {
          "duration": 1.1020208833333385,
          "durationTicks": 1199,
          "midi": 71,
          "name": "B4",
          "ticks": 95760,
          "time": 88.014612,
          "velocity": 0.6299212598425197
        },
        {
          "duration": 0.6608448833333398,
          "durationTicks": 719,
          "midi": 71,
          "name": "B4",
          "ticks": 96960,
          "time": 89.117552,
          "velocity": 0.6299212598425197
        },
        {
          "duration": 1.1020208833333243,
          "durationTicks": 1199,
          "midi": 71,
          "name": "B4",
          "ticks": 97680,
          "time": 89.77931600000001,
          "velocity": 0.6299212598425197
        },
        {
          "duration": 1.7637848833333436,
          "durationTicks": 1919,
          "midi": 71,
          "name": "B4",
          "ticks": 98880,
          "time": 90.882256,
          "velocity": 0.6299212598425197
        },
        {
          "duration": 0.44025688333333335,
          "durationTicks": 479,
          "midi": 67,
          "name": "G4",
          "ticks": 100800,
          "time": 92.64696,
          "velocity": 0.6299212598425197
        },
        {
          "duration": 0.44025688333333335,
          "durationTicks": 479,
          "midi": 69,
          "name": "A4",
          "ticks": 101280,
          "time": 93.088136,
          "velocity": 0.6299212598425197
        },
        {
          "duration": 0.44025688333333335,
          "durationTicks": 479,
          "midi": 71,
          "name": "B4",
          "ticks": 101760,
          "time": 93.529312,
          "velocity": 0.6299212598425197
        },
        {
          "duration": 0.44025688333333335,
          "durationTicks": 479,
          "midi": 72,
          "name": "C5",
          "ticks": 102240,
          "time": 93.970488,
          "velocity": 0.6299212598425197
        },
        {
          "duration": 0.44025688333333335,
          "durationTicks": 479,
          "midi": 62,
          "name": "D4",
          "ticks": 104400,
          "time": 95.95578,
          "velocity": 0.7559055118110236
        },
        {
          "duration": 0.2196688833333269,
          "durationTicks": 239,
          "midi": 60,
          "name": "C4",
          "ticks": 104880,
          "time": 96.396956,
          "velocity": 0.6299212598425197
        },
        {
          "duration": 0.2196688833333269,
          "durationTicks": 239,
          "midi": 59,
          "name": "B3",
          "ticks": 105120,
          "time": 96.61754400000001,
          "velocity": 0.6299212598425197
        },
        {
          "duration": 0.21966888333334111,
          "durationTicks": 239,
          "midi": 60,
          "name": "C4",
          "ticks": 105360,
          "time": 96.838132,
          "velocity": 0.6299212598425197
        },
        {
          "duration": 0.2196688833333269,
          "durationTicks": 239,
          "midi": 59,
          "name": "B3",
          "ticks": 105600,
          "time": 97.05872000000001,
          "velocity": 0.6299212598425197
        },
        {
          "duration": 0.21966888333334111,
          "durationTicks": 239,
          "midi": 55,
          "name": "G3",
          "ticks": 105840,
          "time": 97.279308,
          "velocity": 0.6299212598425197
        },
        {
          "duration": 0.44025688333333335,
          "durationTicks": 479,
          "midi": 55,
          "name": "G3",
          "ticks": 106080,
          "time": 97.499896,
          "velocity": 0.6299212598425197
        },
        {
          "duration": 0.2196688833333269,
          "durationTicks": 239,
          "midi": 62,
          "name": "D4",
          "ticks": 107760,
          "time": 99.04401200000001,
          "velocity": 0.6299212598425197
        },
        {
          "duration": 0.21966888333334111,
          "durationTicks": 239,
          "midi": 62,
          "name": "D4",
          "ticks": 108000,
          "time": 99.2646,
          "velocity": 0.6299212598425197
        },
        {
          "duration": 0.44025688333333335,
          "durationTicks": 479,
          "midi": 67,
          "name": "G4",
          "ticks": 108240,
          "time": 99.48518800000001,
          "velocity": 0.7559055118110236
        },
        {
          "duration": 0.2196688833333269,
          "durationTicks": 239,
          "midi": 62,
          "name": "D4",
          "ticks": 108720,
          "time": 99.926364,
          "velocity": 0.6299212598425197
        },
        {
          "duration": 0.21966888333334111,
          "durationTicks": 239,
          "midi": 62,
          "name": "D4",
          "ticks": 108960,
          "time": 100.146952,
          "velocity": 0.6299212598425197
        },
        {
          "duration": 0.44025688333333335,
          "durationTicks": 479,
          "midi": 64,
          "name": "E4",
          "ticks": 109200,
          "time": 100.36754,
          "velocity": 0.6299212598425197
        },
        {
          "duration": 0.2196688833333269,
          "durationTicks": 239,
          "midi": 62,
          "name": "D4",
          "ticks": 109680,
          "time": 100.808716,
          "velocity": 0.6299212598425197
        },
        {
          "duration": 0.44025688333334756,
          "durationTicks": 479,
          "midi": 62,
          "name": "D4",
          "ticks": 109920,
          "time": 101.029304,
          "velocity": 0.6299212598425197
        },
        {
          "duration": 0.21966888333334111,
          "durationTicks": 239,
          "midi": 74,
          "name": "D5",
          "ticks": 111600,
          "time": 102.57342,
          "velocity": 0.8818897637795275
        },
        {
          "duration": 0.2196688833333269,
          "durationTicks": 239,
          "midi": 74,
          "name": "D5",
          "ticks": 111840,
          "time": 102.794008,
          "velocity": 0.8818897637795275
        },
        {
          "duration": 0.44025688333333335,
          "durationTicks": 479,
          "midi": 74,
          "name": "D5",
          "ticks": 112080,
          "time": 103.014596,
          "velocity": 0.8818897637795275
        },
        {
          "duration": 0.21966888333334111,
          "durationTicks": 239,
          "midi": 72,
          "name": "C5",
          "ticks": 112560,
          "time": 103.455772,
          "velocity": 0.8818897637795275
        },
        {
          "duration": 0.21966888333334111,
          "durationTicks": 239,
          "midi": 71,
          "name": "B4",
          "ticks": 112800,
          "time": 103.67636,
          "velocity": 0.8818897637795275
        },
        {
          "duration": 0.2196688833333269,
          "durationTicks": 239,
          "midi": 72,
          "name": "C5",
          "ticks": 113040,
          "time": 103.89694800000001,
          "velocity": 0.8818897637795275
        },
        {
          "duration": 0.21966888333334111,
          "durationTicks": 239,
          "midi": 71,
          "name": "B4",
          "ticks": 113280,
          "time": 104.117536,
          "velocity": 0.8818897637795275
        },
        {
          "duration": 0.2196688833333269,
          "durationTicks": 239,
          "midi": 67,
          "name": "G4",
          "ticks": 113520,
          "time": 104.33812400000001,
          "velocity": 0.8818897637795275
        },
        {
          "duration": 0.21966888333334111,
          "durationTicks": 239,
          "midi": 67,
          "name": "G4",
          "ticks": 113760,
          "time": 104.558712,
          "velocity": 0.8818897637795275
        },
        {
          "duration": 0.2196688833333269,
          "durationTicks": 239,
          "midi": 67,
          "name": "G4",
          "ticks": 114000,
          "time": 104.7793,
          "velocity": 0.8818897637795275
        },
        {
          "duration": 0.21966888333334111,
          "durationTicks": 239,
          "midi": 72,
          "name": "C5",
          "ticks": 114240,
          "time": 104.999888,
          "velocity": 0.8818897637795275
        },
        {
          "duration": 0.2196688833333269,
          "durationTicks": 239,
          "midi": 72,
          "name": "C5",
          "ticks": 114480,
          "time": 105.220476,
          "velocity": 0.8818897637795275
        },
        {
          "duration": 0.21966888333334111,
          "durationTicks": 239,
          "midi": 72,
          "name": "C5",
          "ticks": 114720,
          "time": 105.441064,
          "velocity": 0.8818897637795275
        },
        {
          "duration": 0.2196688833333269,
          "durationTicks": 239,
          "midi": 71,
          "name": "B4",
          "ticks": 114960,
          "time": 105.661652,
          "velocity": 0.8818897637795275
        },
        {
          "duration": 0.21966888333334111,
          "durationTicks": 239,
          "midi": 67,
          "name": "G4",
          "ticks": 115440,
          "time": 106.102828,
          "velocity": 0.8818897637795275
        },
        {
          "duration": 1.5431968833333372,
          "durationTicks": 1679,
          "midi": 69,
          "name": "A4",
          "ticks": 115920,
          "time": 106.544004,
          "velocity": 0.8818897637795275
        },
        {
          "duration": 0.44025688333333335,
          "durationTicks": 479,
          "midi": 74,
          "name": "D5",
          "ticks": 117840,
          "time": 108.30870800000001,
          "velocity": 0.8818897637795275
        },
        {
          "duration": 0.2196688833333269,
          "durationTicks": 239,
          "midi": 74,
          "name": "D5",
          "ticks": 118320,
          "time": 108.74988400000001,
          "velocity": 0.8818897637795275
        },
        {
          "duration": 0.21966888333334111,
          "durationTicks": 239,
          "midi": 74,
          "name": "D5",
          "ticks": 118560,
          "time": 108.970472,
          "velocity": 0.8818897637795275
        },
        {
          "duration": 0.2196688833333269,
          "durationTicks": 239,
          "midi": 74,
          "name": "D5",
          "ticks": 118800,
          "time": 109.19106000000001,
          "velocity": 0.8818897637795275
        },
        {
          "duration": 0.21966888333334111,
          "durationTicks": 239,
          "midi": 76,
          "name": "E5",
          "ticks": 119040,
          "time": 109.411648,
          "velocity": 0.8818897637795275
        },
        {
          "duration": 0.2196688833333269,
          "durationTicks": 239,
          "midi": 59,
          "name": "B3",
          "ticks": 120240,
          "time": 110.514588,
          "velocity": 0.8818897637795275
        },
        {
          "duration": 0.2196688833333269,
          "durationTicks": 239,
          "midi": 74,
          "name": "D5",
          "ticks": 120240,
          "time": 110.514588,
          "velocity": 0.8818897637795275
        },
        {
          "duration": 0.2196688833333269,
          "durationTicks": 239,
          "midi": 59,
          "name": "B3",
          "ticks": 120480,
          "time": 110.73517600000001,
          "velocity": 0.8818897637795275
        },
        {
          "duration": 0.2196688833333269,
          "durationTicks": 239,
          "midi": 74,
          "name": "D5",
          "ticks": 120480,
          "time": 110.73517600000001,
          "velocity": 0.8818897637795275
        },
        {
          "duration": 0.21966888333334111,
          "durationTicks": 239,
          "midi": 59,
          "name": "B3",
          "ticks": 120720,
          "time": 110.955764,
          "velocity": 0.8818897637795275
        },
        {
          "duration": 0.21966888333334111,
          "durationTicks": 239,
          "midi": 74,
          "name": "D5",
          "ticks": 120720,
          "time": 110.955764,
          "velocity": 0.8818897637795275
        },
        {
          "duration": 0.44025688333333335,
          "durationTicks": 479,
          "midi": 59,
          "name": "B3",
          "ticks": 120960,
          "time": 111.17635200000001,
          "velocity": 0.8818897637795275
        },
        {
          "duration": 0.44025688333333335,
          "durationTicks": 479,
          "midi": 74,
          "name": "D5",
          "ticks": 120960,
          "time": 111.17635200000001,
          "velocity": 0.8818897637795275
        },
        {
          "duration": 0.44025688333333335,
          "durationTicks": 479,
          "midi": 59,
          "name": "B3",
          "ticks": 121440,
          "time": 111.61752800000001,
          "velocity": 0.8818897637795275
        },
        {
          "duration": 0.44025688333333335,
          "durationTicks": 479,
          "midi": 67,
          "name": "G4",
          "ticks": 121440,
          "time": 111.61752800000001,
          "velocity": 0.8818897637795275
        },
        {
          "duration": 0.2196688833333269,
          "durationTicks": 239,
          "midi": 57,
          "name": "A3",
          "ticks": 121920,
          "time": 112.058704,
          "velocity": 0.8818897637795275
        },
        {
          "duration": 0.2196688833333269,
          "durationTicks": 239,
          "midi": 66,
          "name": "F#4",
          "ticks": 121920,
          "time": 112.058704,
          "velocity": 0.8818897637795275
        },
        {
          "duration": 0.44025688333333335,
          "durationTicks": 479,
          "midi": 59,
          "name": "B3",
          "ticks": 122160,
          "time": 112.279292,
          "velocity": 0.8818897637795275
        },
        {
          "duration": 0.44025688333333335,
          "durationTicks": 479,
          "midi": 67,
          "name": "G4",
          "ticks": 122160,
          "time": 112.279292,
          "velocity": 0.8818897637795275
        },
        {
          "duration": 1.1020208833333243,
          "durationTicks": 1199,
          "midi": 59,
          "name": "B3",
          "ticks": 122640,
          "time": 112.720468,
          "velocity": 0.8818897637795275
        },
        {
          "duration": 1.1020208833333243,
          "durationTicks": 1199,
          "midi": 67,
          "name": "G4",
          "ticks": 122640,
          "time": 112.720468,
          "velocity": 0.8818897637795275
        },
        {
          "duration": 0.44025688333331914,
          "durationTicks": 479,
          "midi": 59,
          "name": "B3",
          "ticks": 124080,
          "time": 114.043996,
          "velocity": 0.8818897637795275
        },
        {
          "duration": 0.44025688333331914,
          "durationTicks": 479,
          "midi": 74,
          "name": "D5",
          "ticks": 124080,
          "time": 114.043996,
          "velocity": 0.8818897637795275
        },
        {
          "duration": 0.2196688833333127,
          "durationTicks": 239,
          "midi": 59,
          "name": "B3",
          "ticks": 124560,
          "time": 114.485172,
          "velocity": 0.8818897637795275
        },
        {
          "duration": 0.2196688833333127,
          "durationTicks": 239,
          "midi": 74,
          "name": "D5",
          "ticks": 124560,
          "time": 114.485172,
          "velocity": 0.8818897637795275
        },
        {
          "duration": 0.44025688333333335,
          "durationTicks": 479,
          "midi": 59,
          "name": "B3",
          "ticks": 124800,
          "time": 114.70576,
          "velocity": 0.8818897637795275
        },
        {
          "duration": 0.44025688333333335,
          "durationTicks": 479,
          "midi": 74,
          "name": "D5",
          "ticks": 124800,
          "time": 114.70576,
          "velocity": 0.8818897637795275
        },
        {
          "duration": 0.44025688333333335,
          "durationTicks": 479,
          "midi": 59,
          "name": "B3",
          "ticks": 125280,
          "time": 115.146936,
          "velocity": 0.8818897637795275
        },
        {
          "duration": 0.44025688333333335,
          "durationTicks": 479,
          "midi": 67,
          "name": "G4",
          "ticks": 125280,
          "time": 115.146936,
          "velocity": 0.8818897637795275
        },
        {
          "duration": 0.2196688833333127,
          "durationTicks": 239,
          "midi": 57,
          "name": "A3",
          "ticks": 125760,
          "time": 115.58811200000001,
          "velocity": 0.8818897637795275
        },
        {
          "duration": 0.2196688833333127,
          "durationTicks": 239,
          "midi": 65,
          "name": "F4",
          "ticks": 125760,
          "time": 115.58811200000001,
          "velocity": 0.8818897637795275
        },
        {
          "duration": 0.2196688833333269,
          "durationTicks": 239,
          "midi": 59,
          "name": "B3",
          "ticks": 126000,
          "time": 115.8087,
          "velocity": 0.8818897637795275
        },
        {
          "duration": 0.2196688833333269,
          "durationTicks": 239,
          "midi": 67,
          "name": "G4",
          "ticks": 126000,
          "time": 115.8087,
          "velocity": 0.8818897637795275
        },
        {
          "duration": 0.2196688833333127,
          "durationTicks": 239,
          "midi": 60,
          "name": "C4",
          "ticks": 126240,
          "time": 116.02928800000001,
          "velocity": 0.8818897637795275
        },
        {
          "duration": 0.2196688833333127,
          "durationTicks": 239,
          "midi": 69,
          "name": "A4",
          "ticks": 126240,
          "time": 116.02928800000001,
          "velocity": 0.8818897637795275
        },
        {
          "duration": 1.1020208833333243,
          "durationTicks": 1199,
          "midi": 59,
          "name": "B3",
          "ticks": 126480,
          "time": 116.249876,
          "velocity": 0.8818897637795275
        },
        {
          "duration": 1.1020208833333243,
          "durationTicks": 1199,
          "midi": 67,
          "name": "G4",
          "ticks": 126480,
          "time": 116.249876,
          "velocity": 0.8818897637795275
        },
        {
          "duration": 0.2196688833333269,
          "durationTicks": 239,
          "midi": 59,
          "name": "B3",
          "ticks": 127920,
          "time": 117.573404,
          "velocity": 0.8818897637795275
        },
        {
          "duration": 0.2196688833333269,
          "durationTicks": 239,
          "midi": 62,
          "name": "D4",
          "ticks": 127920,
          "time": 117.573404,
          "velocity": 0.8818897637795275
        },
        {
          "duration": 0.2196688833333269,
          "durationTicks": 239,
          "midi": 59,
          "name": "B3",
          "ticks": 128160,
          "time": 117.793992,
          "velocity": 0.8818897637795275
        },
        {
          "duration": 0.2196688833333269,
          "durationTicks": 239,
          "midi": 62,
          "name": "D4",
          "ticks": 128160,
          "time": 117.793992,
          "velocity": 0.8818897637795275
        },
        {
          "duration": 0.2196688833333127,
          "durationTicks": 239,
          "midi": 59,
          "name": "B3",
          "ticks": 128400,
          "time": 118.01458000000001,
          "velocity": 0.8818897637795275
        },
        {
          "duration": 0.2196688833333127,
          "durationTicks": 239,
          "midi": 62,
          "name": "D4",
          "ticks": 128400,
          "time": 118.01458000000001,
          "velocity": 0.8818897637795275
        },
        {
          "duration": 0.44025688333331914,
          "durationTicks": 479,
          "midi": 59,
          "name": "B3",
          "ticks": 128640,
          "time": 118.235168,
          "velocity": 0.8818897637795275
        },
        {
          "duration": 0.44025688333331914,
          "durationTicks": 479,
          "midi": 62,
          "name": "D4",
          "ticks": 128640,
          "time": 118.235168,
          "velocity": 0.8818897637795275
        },
        {
          "duration": 0.44025688333331914,
          "durationTicks": 479,
          "midi": 64,
          "name": "E4",
          "ticks": 129120,
          "time": 118.676344,
          "velocity": 0.8818897637795275
        },
        {
          "duration": 0.44025688333331914,
          "durationTicks": 479,
          "midi": 67,
          "name": "G4",
          "ticks": 129120,
          "time": 118.676344,
          "velocity": 0.8818897637795275
        },
        {
          "duration": 0.44025688333331914,
          "durationTicks": 479,
          "midi": 63,
          "name": "D#4",
          "ticks": 129600,
          "time": 119.11752,
          "velocity": 0.8818897637795275
        },
        {
          "duration": 0.44025688333331914,
          "durationTicks": 479,
          "midi": 66,
          "name": "F#4",
          "ticks": 129600,
          "time": 119.11752,
          "velocity": 0.8818897637795275
        },
        {
          "duration": 0.2196688833333269,
          "durationTicks": 239,
          "midi": 64,
          "name": "E4",
          "ticks": 130080,
          "time": 119.558696,
          "velocity": 0.8818897637795275
        },
        {
          "duration": 0.2196688833333269,
          "durationTicks": 239,
          "midi": 67,
          "name": "G4",
          "ticks": 130080,
          "time": 119.558696,
          "velocity": 0.8818897637795275
        },
        {
          "duration": 1.1020208833333243,
          "durationTicks": 1199,
          "midi": 64,
          "name": "E4",
          "ticks": 130320,
          "time": 119.779284,
          "velocity": 0.8818897637795275
        },
        {
          "duration": 1.1020208833333243,
          "durationTicks": 1199,
          "midi": 67,
          "name": "G4",
          "ticks": 130320,
          "time": 119.779284,
          "velocity": 0.8818897637795275
        },
        {
          "duration": 0.44025688333331914,
          "durationTicks": 479,
          "midi": 67,
          "name": "G4",
          "ticks": 131520,
          "time": 120.88222400000001,
          "velocity": 0.8818897637795275
        },
        {
          "duration": 0.44025688333331914,
          "durationTicks": 479,
          "midi": 79,
          "name": "G5",
          "ticks": 131520,
          "time": 120.88222400000001,
          "velocity": 0.8818897637795275
        },
        {
          "duration": 0.44025688333331914,
          "durationTicks": 479,
          "midi": 64,
          "name": "E4",
          "ticks": 132000,
          "time": 121.3234,
          "velocity": 0.8818897637795275
        },
        {
          "duration": 0.44025688333331914,
          "durationTicks": 479,
          "midi": 76,
          "name": "E5",
          "ticks": 132000,
          "time": 121.3234,
          "velocity": 0.8818897637795275
        },
        {
          "duration": 0.44025688333331914,
          "durationTicks": 479,
          "midi": 60,
          "name": "C4",
          "ticks": 132480,
          "time": 121.764576,
          "velocity": 0.8818897637795275
        },
        {
          "duration": 0.44025688333331914,
          "durationTicks": 479,
          "midi": 72,
          "name": "C5",
          "ticks": 132480,
          "time": 121.764576,
          "velocity": 0.8818897637795275
        },
        {
          "duration": 0.44025688333331914,
          "durationTicks": 479,
          "midi": 57,
          "name": "A3",
          "ticks": 132960,
          "time": 122.205752,
          "velocity": 0.8818897637795275
        },
        {
          "duration": 0.44025688333331914,
          "durationTicks": 479,
          "midi": 69,
          "name": "A4",
          "ticks": 132960,
          "time": 122.205752,
          "velocity": 0.8818897637795275
        },
        {
          "duration": 0.8814328833333178,
          "durationTicks": 959,
          "midi": 55,
          "name": "G3",
          "ticks": 133440,
          "time": 122.646928,
          "velocity": 0.8818897637795275
        },
        {
          "duration": 0.8814328833333178,
          "durationTicks": 959,
          "midi": 67,
          "name": "G4",
          "ticks": 133440,
          "time": 122.646928,
          "velocity": 0.8818897637795275
        },
        {
          "duration": 0.6608448833333256,
          "durationTicks": 719,
          "midi": 54,
          "name": "F#3",
          "ticks": 134400,
          "time": 123.52928,
          "velocity": 0.8818897637795275
        },
        {
          "duration": 0.6608448833333256,
          "durationTicks": 719,
          "midi": 66,
          "name": "F#4",
          "ticks": 134400,
          "time": 123.52928,
          "velocity": 0.8818897637795275
        },
        {
          "duration": 0.2196688833333269,
          "durationTicks": 239,
          "midi": 55,
          "name": "G3",
          "ticks": 135120,
          "time": 124.191044,
          "velocity": 0.8818897637795275
        },
        {
          "duration": 0.2196688833333269,
          "durationTicks": 239,
          "midi": 67,
          "name": "G4",
          "ticks": 135120,
          "time": 124.191044,
          "velocity": 0.8818897637795275
        },
        {
          "duration": 0.10937488333331657,
          "durationTicks": 119,
          "midi": 69,
          "name": "A4",
          "ticks": 135600,
          "time": 124.63222,
          "velocity": 0.8818897637795275
        },
        {
          "duration": 0.10937488333333079,
          "durationTicks": 119,
          "midi": 70,
          "name": "A#4",
          "ticks": 135720,
          "time": 124.742514,
          "velocity": 0.8818897637795275
        },
        {
          "duration": 0.10937488333331657,
          "durationTicks": 119,
          "midi": 71,
          "name": "B4",
          "ticks": 135840,
          "time": 124.85280800000001,
          "velocity": 0.8818897637795275
        },
        {
          "duration": 0.10937488333331657,
          "durationTicks": 119,
          "midi": 74,
          "name": "D5",
          "ticks": 135960,
          "time": 124.963102,
          "velocity": 0.8818897637795275
        },
        {
          "duration": 0.10937488333331657,
          "durationTicks": 119,
          "midi": 69,
          "name": "A4",
          "ticks": 136320,
          "time": 125.29398400000001,
          "velocity": 0.8818897637795275
        },
        {
          "duration": 0.10937488333331657,
          "durationTicks": 119,
          "midi": 70,
          "name": "A#4",
          "ticks": 136440,
          "time": 125.404278,
          "velocity": 0.8818897637795275
        },
        {
          "duration": 0.10937488333333079,
          "durationTicks": 119,
          "midi": 71,
          "name": "B4",
          "ticks": 136560,
          "time": 125.514572,
          "velocity": 0.8818897637795275
        },
        {
          "duration": 0.10937488333333079,
          "durationTicks": 119,
          "midi": 74,
          "name": "D5",
          "ticks": 136680,
          "time": 125.624866,
          "velocity": 0.8818897637795275
        },
        {
          "duration": 0.10937488333333079,
          "durationTicks": 119,
          "midi": 76,
          "name": "E5",
          "ticks": 137040,
          "time": 125.955748,
          "velocity": 0.8818897637795275
        },
        {
          "duration": 0.10937488333331657,
          "durationTicks": 119,
          "midi": 76,
          "name": "E5",
          "ticks": 137160,
          "time": 126.06604200000001,
          "velocity": 0.8818897637795275
        },
        {
          "duration": 0.10937488333333079,
          "durationTicks": 119,
          "midi": 69,
          "name": "A4",
          "ticks": 137520,
          "time": 126.396924,
          "velocity": 0.8818897637795275
        },
        {
          "duration": 0.10937488333331657,
          "durationTicks": 119,
          "midi": 70,
          "name": "A#4",
          "ticks": 137640,
          "time": 126.50721800000001,
          "velocity": 0.8818897637795275
        },
        {
          "duration": 0.10937488333331657,
          "durationTicks": 119,
          "midi": 71,
          "name": "B4",
          "ticks": 137760,
          "time": 126.617512,
          "velocity": 0.8818897637795275
        },
        {
          "duration": 0.10937488333333079,
          "durationTicks": 119,
          "midi": 74,
          "name": "D5",
          "ticks": 137880,
          "time": 126.727806,
          "velocity": 0.8818897637795275
        },
        {
          "duration": 0.44025688333331914,
          "durationTicks": 479,
          "midi": 67,
          "name": "G4",
          "ticks": 138240,
          "time": 127.058688,
          "velocity": 0.8818897637795275
        },
        {
          "duration": 0.329962883333323,
          "durationTicks": 359,
          "midi": 69,
          "name": "A4",
          "ticks": 138720,
          "time": 127.499864,
          "velocity": 0.8818897637795275
        },
        {
          "duration": 0.10937488333331657,
          "durationTicks": 119,
          "midi": 64,
          "name": "E4",
          "ticks": 139080,
          "time": 127.830746,
          "velocity": 0.8818897637795275
        },
        {
          "duration": 0.10937488333331657,
          "durationTicks": 119,
          "midi": 69,
          "name": "A4",
          "ticks": 139440,
          "time": 128.161628,
          "velocity": 0.8818897637795275
        },
        {
          "duration": 0.10937488333331657,
          "durationTicks": 119,
          "midi": 70,
          "name": "A#4",
          "ticks": 139560,
          "time": 128.27192200000002,
          "velocity": 0.8818897637795275
        },
        {
          "duration": 0.10937488333331657,
          "durationTicks": 119,
          "midi": 71,
          "name": "B4",
          "ticks": 139680,
          "time": 128.382216,
          "velocity": 0.8818897637795275
        },
        {
          "duration": 0.10937488333331657,
          "durationTicks": 119,
          "midi": 74,
          "name": "D5",
          "ticks": 139800,
          "time": 128.49251,
          "velocity": 0.8818897637795275
        },
        {
          "duration": 0.10937488333331657,
          "durationTicks": 119,
          "midi": 69,
          "name": "A4",
          "ticks": 140160,
          "time": 128.823392,
          "velocity": 0.8818897637795275
        },
        {
          "duration": 0.109374883333345,
          "durationTicks": 119,
          "midi": 70,
          "name": "A#4",
          "ticks": 140280,
          "time": 128.933686,
          "velocity": 0.8818897637795275
        },
        {
          "duration": 0.10937488333331657,
          "durationTicks": 119,
          "midi": 71,
          "name": "B4",
          "ticks": 140400,
          "time": 129.04398,
          "velocity": 0.8818897637795275
        },
        {
          "duration": 0.10937488333331657,
          "durationTicks": 119,
          "midi": 74,
          "name": "D5",
          "ticks": 140520,
          "time": 129.15427400000002,
          "velocity": 0.8818897637795275
        },
        {
          "duration": 0.10937488333331657,
          "durationTicks": 119,
          "midi": 76,
          "name": "E5",
          "ticks": 140880,
          "time": 129.48515600000002,
          "velocity": 0.8818897637795275
        },
        {
          "duration": 0.10937488333331657,
          "durationTicks": 119,
          "midi": 76,
          "name": "E5",
          "ticks": 141000,
          "time": 129.59545,
          "velocity": 0.8818897637795275
        },
        {
          "duration": 0.10937488333331657,
          "durationTicks": 119,
          "midi": 71,
          "name": "B4",
          "ticks": 141360,
          "time": 129.926332,
          "velocity": 0.8818897637795275
        },
        {
          "duration": 0.10937488333331657,
          "durationTicks": 119,
          "midi": 69,
          "name": "A4",
          "ticks": 141480,
          "time": 130.036626,
          "velocity": 0.8818897637795275
        },
        {
          "duration": 0.109374883333345,
          "durationTicks": 119,
          "midi": 67,
          "name": "G4",
          "ticks": 141600,
          "time": 130.14692,
          "velocity": 0.8818897637795275
        },
        {
          "duration": 0.10937488333331657,
          "durationTicks": 119,
          "midi": 64,
          "name": "E4",
          "ticks": 141720,
          "time": 130.257214,
          "velocity": 0.8818897637795275
        },
        {
          "duration": 0.44025688333331914,
          "durationTicks": 479,
          "midi": 67,
          "name": "G4",
          "ticks": 142080,
          "time": 130.588096,
          "velocity": 0.8818897637795275
        },
        {
          "duration": 0.32996288333333723,
          "durationTicks": 359,
          "midi": 69,
          "name": "A4",
          "ticks": 142560,
          "time": 131.029272,
          "velocity": 0.8818897637795275
        },
        {
          "duration": 0.109374883333345,
          "durationTicks": 119,
          "midi": 64,
          "name": "E4",
          "ticks": 142920,
          "time": 131.360154,
          "velocity": 0.8818897637795275
        },
        {
          "duration": 0.10937488333331657,
          "durationTicks": 119,
          "midi": 69,
          "name": "A4",
          "ticks": 143280,
          "time": 131.691036,
          "velocity": 0.8818897637795275
        },
        {
          "duration": 0.10937488333331657,
          "durationTicks": 119,
          "midi": 70,
          "name": "A#4",
          "ticks": 143400,
          "time": 131.80133,
          "velocity": 0.8818897637795275
        },
        {
          "duration": 0.10937488333331657,
          "durationTicks": 119,
          "midi": 71,
          "name": "B4",
          "ticks": 143520,
          "time": 131.91162400000002,
          "velocity": 0.8818897637795275
        },
        {
          "duration": 0.10937488333331657,
          "durationTicks": 119,
          "midi": 74,
          "name": "D5",
          "ticks": 143640,
          "time": 132.021918,
          "velocity": 0.8818897637795275
        },
        {
          "duration": 0.10937488333331657,
          "durationTicks": 119,
          "midi": 69,
          "name": "A4",
          "ticks": 144000,
          "time": 132.3528,
          "velocity": 0.8818897637795275
        },
        {
          "duration": 0.10937488333331657,
          "durationTicks": 119,
          "midi": 70,
          "name": "A#4",
          "ticks": 144120,
          "time": 132.463094,
          "velocity": 0.8818897637795275
        },
        {
          "duration": 0.109374883333345,
          "durationTicks": 119,
          "midi": 71,
          "name": "B4",
          "ticks": 144240,
          "time": 132.573388,
          "velocity": 0.8818897637795275
        },
        {
          "duration": 0.10937488333331657,
          "durationTicks": 119,
          "midi": 74,
          "name": "D5",
          "ticks": 144360,
          "time": 132.683682,
          "velocity": 0.8818897637795275
        },
        {
          "duration": 0.10937488333331657,
          "durationTicks": 119,
          "midi": 76,
          "name": "E5",
          "ticks": 144720,
          "time": 133.014564,
          "velocity": 0.8818897637795275
        },
        {
          "duration": 0.10937488333331657,
          "durationTicks": 119,
          "midi": 76,
          "name": "E5",
          "ticks": 144840,
          "time": 133.12485800000002,
          "velocity": 0.8818897637795275
        },
        {
          "duration": 0.109374883333345,
          "durationTicks": 119,
          "midi": 69,
          "name": "A4",
          "ticks": 145200,
          "time": 133.45574,
          "velocity": 0.8818897637795275
        },
        {
          "duration": 0.10937488333331657,
          "durationTicks": 119,
          "midi": 70,
          "name": "A#4",
          "ticks": 145320,
          "time": 133.566034,
          "velocity": 0.8818897637795275
        },
        {
          "duration": 0.10937488333331657,
          "durationTicks": 119,
          "midi": 71,
          "name": "B4",
          "ticks": 145440,
          "time": 133.676328,
          "velocity": 0.8818897637795275
        },
        {
          "duration": 0.109374883333345,
          "durationTicks": 119,
          "midi": 74,
          "name": "D5",
          "ticks": 145560,
          "time": 133.786622,
          "velocity": 0.8818897637795275
        },
        {
          "duration": 0.44025688333331914,
          "durationTicks": 479,
          "midi": 67,
          "name": "G4",
          "ticks": 145920,
          "time": 134.117504,
          "velocity": 0.8818897637795275
        },
        {
          "duration": 0.3299628833333088,
          "durationTicks": 359,
          "midi": 69,
          "name": "A4",
          "ticks": 146400,
          "time": 134.55868,
          "velocity": 0.8818897637795275
        },
        {
          "duration": 0.10937488333331657,
          "durationTicks": 119,
          "midi": 64,
          "name": "E4",
          "ticks": 146760,
          "time": 134.889562,
          "velocity": 0.8818897637795275
        },
        {
          "duration": 0.10937488333331657,
          "durationTicks": 119,
          "midi": 69,
          "name": "A4",
          "ticks": 147120,
          "time": 135.22044400000001,
          "velocity": 0.8818897637795275
        },
        {
          "duration": 0.10937488333331657,
          "durationTicks": 119,
          "midi": 70,
          "name": "A#4",
          "ticks": 147240,
          "time": 135.330738,
          "velocity": 0.8818897637795275
        },
        {
          "duration": 0.10937488333331657,
          "durationTicks": 119,
          "midi": 71,
          "name": "B4",
          "ticks": 147360,
          "time": 135.441032,
          "velocity": 0.8818897637795275
        },
        {
          "duration": 0.10937488333331657,
          "durationTicks": 119,
          "midi": 74,
          "name": "D5",
          "ticks": 147480,
          "time": 135.55132600000002,
          "velocity": 0.8818897637795275
        },
        {
          "duration": 0.109374883333345,
          "durationTicks": 119,
          "midi": 69,
          "name": "A4",
          "ticks": 147840,
          "time": 135.882208,
          "velocity": 0.8818897637795275
        },
        {
          "duration": 0.10937488333331657,
          "durationTicks": 119,
          "midi": 70,
          "name": "A#4",
          "ticks": 147960,
          "time": 135.992502,
          "velocity": 0.8818897637795275
        },
        {
          "duration": 0.10937488333331657,
          "durationTicks": 119,
          "midi": 71,
          "name": "B4",
          "ticks": 148080,
          "time": 136.102796,
          "velocity": 0.8818897637795275
        },
        {
          "duration": 0.109374883333345,
          "durationTicks": 119,
          "midi": 74,
          "name": "D5",
          "ticks": 148200,
          "time": 136.21309,
          "velocity": 0.8818897637795275
        },
        {
          "duration": 0.10937488333331657,
          "durationTicks": 119,
          "midi": 76,
          "name": "E5",
          "ticks": 148560,
          "time": 136.543972,
          "velocity": 0.8818897637795275
        },
        {
          "duration": 0.10937488333331657,
          "durationTicks": 119,
          "midi": 76,
          "name": "E5",
          "ticks": 148680,
          "time": 136.654266,
          "velocity": 0.8818897637795275
        },
        {
          "duration": 0.10937488333331657,
          "durationTicks": 119,
          "midi": 71,
          "name": "B4",
          "ticks": 149040,
          "time": 136.985148,
          "velocity": 0.8818897637795275
        },
        {
          "duration": 0.109374883333345,
          "durationTicks": 119,
          "midi": 69,
          "name": "A4",
          "ticks": 149160,
          "time": 137.095442,
          "velocity": 0.8818897637795275
        },
        {
          "duration": 0.10937488333331657,
          "durationTicks": 119,
          "midi": 67,
          "name": "G4",
          "ticks": 149280,
          "time": 137.205736,
          "velocity": 0.8818897637795275
        },
        {
          "duration": 0.10937488333331657,
          "durationTicks": 119,
          "midi": 64,
          "name": "E4",
          "ticks": 149400,
          "time": 137.31603,
          "velocity": 0.8818897637795275
        },
        {
          "duration": 0.44025688333331914,
          "durationTicks": 479,
          "midi": 67,
          "name": "G4",
          "ticks": 149760,
          "time": 137.64691200000001,
          "velocity": 0.8818897637795275
        },
        {
          "duration": 0.32996288333333723,
          "durationTicks": 359,
          "midi": 69,
          "name": "A4",
          "ticks": 150240,
          "time": 138.088088,
          "velocity": 0.8818897637795275
        },
        {
          "duration": 0.10937488333331657,
          "durationTicks": 119,
          "midi": 64,
          "name": "E4",
          "ticks": 150600,
          "time": 138.41897,
          "velocity": 0.8818897637795275
        },
        {
          "duration": 0.029411733333319035,
          "durationTicks": 32,
          "midi": 52,
          "name": "E3",
          "ticks": 151440,
          "time": 139.19102800000002,
          "velocity": 0.8818897637795275
        },
        {
          "duration": 0.029411733333347456,
          "durationTicks": 32,
          "midi": 53,
          "name": "F3",
          "ticks": 151473,
          "time": 139.22135885,
          "velocity": 0.8818897637795275
        },
        {
          "duration": 0.029411733333319035,
          "durationTicks": 32,
          "midi": 54,
          "name": "F#3",
          "ticks": 151507,
          "time": 139.25260881666668,
          "velocity": 0.8818897637795275
        },
        {
          "duration": 0.029411733333319035,
          "durationTicks": 32,
          "midi": 55,
          "name": "G3",
          "ticks": 151542,
          "time": 139.2847779,
          "velocity": 0.8818897637795275
        },
        {
          "duration": 0.029411733333319035,
          "durationTicks": 32,
          "midi": 56,
          "name": "G#3",
          "ticks": 151575,
          "time": 139.31510875,
          "velocity": 0.8818897637795275
        },
        {
          "duration": 0.029411733333347456,
          "durationTicks": 32,
          "midi": 57,
          "name": "A3",
          "ticks": 151609,
          "time": 139.34635871666666,
          "velocity": 0.8818897637795275
        },
        {
          "duration": 0.03216908333331503,
          "durationTicks": 35,
          "midi": 58,
          "name": "A#3",
          "ticks": 151644,
          "time": 139.3785278,
          "velocity": 0.8818897637795275
        },
        {
          "duration": 0.10937488333331657,
          "durationTicks": 119,
          "midi": 59,
          "name": "B3",
          "ticks": 151680,
          "time": 139.411616,
          "velocity": 0.8818897637795275
        },
        {
          "duration": 0.10937488333331657,
          "durationTicks": 119,
          "midi": 57,
          "name": "A3",
          "ticks": 151920,
          "time": 139.632204,
          "velocity": 0.8818897637795275
        },
        {
          "duration": 0.109374883333345,
          "durationTicks": 119,
          "midi": 55,
          "name": "G3",
          "ticks": 152160,
          "time": 139.852792,
          "velocity": 0.8818897637795275
        },
        {
          "duration": 0.2196688833333269,
          "durationTicks": 239,
          "midi": 52,
          "name": "E3",
          "ticks": 152280,
          "time": 139.963086,
          "velocity": 0.8818897637795275
        },
        {
          "duration": 0.2196688833333269,
          "durationTicks": 239,
          "midi": 59,
          "name": "B3",
          "ticks": 154800,
          "time": 142.27926,
          "velocity": 0.6299212598425197
        },
        {
          "duration": 0.2196688833333269,
          "durationTicks": 239,
          "midi": 74,
          "name": "D5",
          "ticks": 154800,
          "time": 142.27926,
          "velocity": 0.6299212598425197
        },
        {
          "duration": 0.21966888333329848,
          "durationTicks": 239,
          "midi": 59,
          "name": "B3",
          "ticks": 155040,
          "time": 142.49984800000001,
          "velocity": 0.6299212598425197
        },
        {
          "duration": 0.21966888333329848,
          "durationTicks": 239,
          "midi": 74,
          "name": "D5",
          "ticks": 155040,
          "time": 142.49984800000001,
          "velocity": 0.6299212598425197
        },
        {
          "duration": 0.2196688833333269,
          "durationTicks": 239,
          "midi": 59,
          "name": "B3",
          "ticks": 155280,
          "time": 142.720436,
          "velocity": 0.6299212598425197
        },
        {
          "duration": 0.2196688833333269,
          "durationTicks": 239,
          "midi": 74,
          "name": "D5",
          "ticks": 155280,
          "time": 142.720436,
          "velocity": 0.6299212598425197
        },
        {
          "duration": 0.44025688333331914,
          "durationTicks": 479,
          "midi": 59,
          "name": "B3",
          "ticks": 155520,
          "time": 142.941024,
          "velocity": 0.6299212598425197
        },
        {
          "duration": 0.44025688333331914,
          "durationTicks": 479,
          "midi": 74,
          "name": "D5",
          "ticks": 155520,
          "time": 142.941024,
          "velocity": 0.6299212598425197
        },
        {
          "duration": 0.44025688333331914,
          "durationTicks": 479,
          "midi": 59,
          "name": "B3",
          "ticks": 156000,
          "time": 143.3822,
          "velocity": 0.6299212598425197
        },
        {
          "duration": 0.44025688333331914,
          "durationTicks": 479,
          "midi": 67,
          "name": "G4",
          "ticks": 156000,
          "time": 143.3822,
          "velocity": 0.6299212598425197
        },
        {
          "duration": 0.2196688833333269,
          "durationTicks": 239,
          "midi": 57,
          "name": "A3",
          "ticks": 156480,
          "time": 143.823376,
          "velocity": 0.6299212598425197
        },
        {
          "duration": 0.2196688833333269,
          "durationTicks": 239,
          "midi": 66,
          "name": "F#4",
          "ticks": 156480,
          "time": 143.823376,
          "velocity": 0.6299212598425197
        },
        {
          "duration": 0.44025688333331914,
          "durationTicks": 479,
          "midi": 59,
          "name": "B3",
          "ticks": 156720,
          "time": 144.04396400000002,
          "velocity": 0.6299212598425197
        },
        {
          "duration": 0.44025688333331914,
          "durationTicks": 479,
          "midi": 67,
          "name": "G4",
          "ticks": 156720,
          "time": 144.04396400000002,
          "velocity": 0.6299212598425197
        },
        {
          "duration": 1.1020208833333243,
          "durationTicks": 1199,
          "midi": 59,
          "name": "B3",
          "ticks": 157200,
          "time": 144.48514,
          "velocity": 0.6299212598425197
        },
        {
          "duration": 1.1020208833333243,
          "durationTicks": 1199,
          "midi": 67,
          "name": "G4",
          "ticks": 157200,
          "time": 144.48514,
          "velocity": 0.6299212598425197
        },
        {
          "duration": 0.44025688333331914,
          "durationTicks": 479,
          "midi": 59,
          "name": "B3",
          "ticks": 158640,
          "time": 145.808668,
          "velocity": 0.6299212598425197
        },
        {
          "duration": 0.44025688333331914,
          "durationTicks": 479,
          "midi": 74,
          "name": "D5",
          "ticks": 158640,
          "time": 145.808668,
          "velocity": 0.6299212598425197
        },
        {
          "duration": 0.2196688833333269,
          "durationTicks": 239,
          "midi": 59,
          "name": "B3",
          "ticks": 159120,
          "time": 146.249844,
          "velocity": 0.6299212598425197
        },
        {
          "duration": 0.2196688833333269,
          "durationTicks": 239,
          "midi": 74,
          "name": "D5",
          "ticks": 159120,
          "time": 146.249844,
          "velocity": 0.6299212598425197
        },
        {
          "duration": 0.44025688333331914,
          "durationTicks": 479,
          "midi": 59,
          "name": "B3",
          "ticks": 159360,
          "time": 146.47043200000002,
          "velocity": 0.6299212598425197
        },
        {
          "duration": 0.44025688333331914,
          "durationTicks": 479,
          "midi": 74,
          "name": "D5",
          "ticks": 159360,
          "time": 146.47043200000002,
          "velocity": 0.6299212598425197
        },
        {
          "duration": 0.44025688333331914,
          "durationTicks": 479,
          "midi": 59,
          "name": "B3",
          "ticks": 159840,
          "time": 146.911608,
          "velocity": 0.6299212598425197
        },
        {
          "duration": 0.44025688333331914,
          "durationTicks": 479,
          "midi": 67,
          "name": "G4",
          "ticks": 159840,
          "time": 146.911608,
          "velocity": 0.6299212598425197
        },
        {
          "duration": 0.21966888333329848,
          "durationTicks": 239,
          "midi": 57,
          "name": "A3",
          "ticks": 160320,
          "time": 147.352784,
          "velocity": 0.6299212598425197
        },
        {
          "duration": 0.21966888333329848,
          "durationTicks": 239,
          "midi": 65,
          "name": "F4",
          "ticks": 160320,
          "time": 147.352784,
          "velocity": 0.6299212598425197
        },
        {
          "duration": 0.2196688833333269,
          "durationTicks": 239,
          "midi": 59,
          "name": "B3",
          "ticks": 160560,
          "time": 147.573372,
          "velocity": 0.6299212598425197
        },
        {
          "duration": 0.2196688833333269,
          "durationTicks": 239,
          "midi": 67,
          "name": "G4",
          "ticks": 160560,
          "time": 147.573372,
          "velocity": 0.6299212598425197
        },
        {
          "duration": 0.2196688833333269,
          "durationTicks": 239,
          "midi": 60,
          "name": "C4",
          "ticks": 160800,
          "time": 147.79396,
          "velocity": 0.6299212598425197
        },
        {
          "duration": 0.2196688833333269,
          "durationTicks": 239,
          "midi": 69,
          "name": "A4",
          "ticks": 160800,
          "time": 147.79396,
          "velocity": 0.6299212598425197
        },
        {
          "duration": 1.1020208833333243,
          "durationTicks": 1199,
          "midi": 59,
          "name": "B3",
          "ticks": 161040,
          "time": 148.014548,
          "velocity": 0.6299212598425197
        },
        {
          "duration": 1.1020208833333243,
          "durationTicks": 1199,
          "midi": 67,
          "name": "G4",
          "ticks": 161040,
          "time": 148.014548,
          "velocity": 0.6299212598425197
        },
        {
          "duration": 0.2196688833333269,
          "durationTicks": 239,
          "midi": 59,
          "name": "B3",
          "ticks": 162480,
          "time": 149.338076,
          "velocity": 0.6299212598425197
        },
        {
          "duration": 0.2196688833333269,
          "durationTicks": 239,
          "midi": 62,
          "name": "D4",
          "ticks": 162480,
          "time": 149.338076,
          "velocity": 0.6299212598425197
        },
        {
          "duration": 0.2196688833333269,
          "durationTicks": 239,
          "midi": 59,
          "name": "B3",
          "ticks": 162720,
          "time": 149.558664,
          "velocity": 0.6299212598425197
        },
        {
          "duration": 0.2196688833333269,
          "durationTicks": 239,
          "midi": 62,
          "name": "D4",
          "ticks": 162720,
          "time": 149.558664,
          "velocity": 0.6299212598425197
        },
        {
          "duration": 0.21966888333329848,
          "durationTicks": 239,
          "midi": 59,
          "name": "B3",
          "ticks": 162960,
          "time": 149.779252,
          "velocity": 0.6299212598425197
        },
        {
          "duration": 0.21966888333329848,
          "durationTicks": 239,
          "midi": 62,
          "name": "D4",
          "ticks": 162960,
          "time": 149.779252,
          "velocity": 0.6299212598425197
        },
        {
          "duration": 0.44025688333331914,
          "durationTicks": 479,
          "midi": 59,
          "name": "B3",
          "ticks": 163200,
          "time": 149.99984,
          "velocity": 0.6299212598425197
        },
        {
          "duration": 0.44025688333331914,
          "durationTicks": 479,
          "midi": 62,
          "name": "D4",
          "ticks": 163200,
          "time": 149.99984,
          "velocity": 0.6299212598425197
        },
        {
          "duration": 0.44025688333334756,
          "durationTicks": 479,
          "midi": 64,
          "name": "E4",
          "ticks": 163680,
          "time": 150.441016,
          "velocity": 0.6299212598425197
        },
        {
          "duration": 0.44025688333334756,
          "durationTicks": 479,
          "midi": 67,
          "name": "G4",
          "ticks": 163680,
          "time": 150.441016,
          "velocity": 0.6299212598425197
        },
        {
          "duration": 0.44025688333331914,
          "durationTicks": 479,
          "midi": 63,
          "name": "D#4",
          "ticks": 164160,
          "time": 150.882192,
          "velocity": 0.6299212598425197
        },
        {
          "duration": 0.44025688333331914,
          "durationTicks": 479,
          "midi": 66,
          "name": "F#4",
          "ticks": 164160,
          "time": 150.882192,
          "velocity": 0.6299212598425197
        },
        {
          "duration": 0.21966888333329848,
          "durationTicks": 239,
          "midi": 64,
          "name": "E4",
          "ticks": 164640,
          "time": 151.32336800000002,
          "velocity": 0.6299212598425197
        },
        {
          "duration": 0.21966888333329848,
          "durationTicks": 239,
          "midi": 67,
          "name": "G4",
          "ticks": 164640,
          "time": 151.32336800000002,
          "velocity": 0.6299212598425197
        },
        {
          "duration": 1.1020208833333243,
          "durationTicks": 1199,
          "midi": 64,
          "name": "E4",
          "ticks": 164880,
          "time": 151.543956,
          "velocity": 0.6299212598425197
        },
        {
          "duration": 1.1020208833333243,
          "durationTicks": 1199,
          "midi": 67,
          "name": "G4",
          "ticks": 164880,
          "time": 151.543956,
          "velocity": 0.6299212598425197
        },
        {
          "duration": 0.44025688333331914,
          "durationTicks": 479,
          "midi": 67,
          "name": "G4",
          "ticks": 166080,
          "time": 152.646896,
          "velocity": 0.7559055118110236
        },
        {
          "duration": 0.44025688333331914,
          "durationTicks": 479,
          "midi": 79,
          "name": "G5",
          "ticks": 166080,
          "time": 152.646896,
          "velocity": 0.7559055118110236
        },
        {
          "duration": 0.44025688333331914,
          "durationTicks": 479,
          "midi": 64,
          "name": "E4",
          "ticks": 166560,
          "time": 153.088072,
          "velocity": 0.7559055118110236
        },
        {
          "duration": 0.44025688333331914,
          "durationTicks": 479,
          "midi": 76,
          "name": "E5",
          "ticks": 166560,
          "time": 153.088072,
          "velocity": 0.7559055118110236
        },
        {
          "duration": 0.44025688333331914,
          "durationTicks": 479,
          "midi": 60,
          "name": "C4",
          "ticks": 167040,
          "time": 153.529248,
          "velocity": 0.7559055118110236
        },
        {
          "duration": 0.44025688333331914,
          "durationTicks": 479,
          "midi": 72,
          "name": "C5",
          "ticks": 167040,
          "time": 153.529248,
          "velocity": 0.7559055118110236
        },
        {
          "duration": 0.44025688333331914,
          "durationTicks": 479,
          "midi": 57,
          "name": "A3",
          "ticks": 167520,
          "time": 153.970424,
          "velocity": 0.7559055118110236
        },
        {
          "duration": 0.44025688333331914,
          "durationTicks": 479,
          "midi": 69,
          "name": "A4",
          "ticks": 167520,
          "time": 153.970424,
          "velocity": 0.7559055118110236
        },
        {
          "duration": 0.881432883333332,
          "durationTicks": 959,
          "midi": 55,
          "name": "G3",
          "ticks": 168000,
          "time": 154.4116,
          "velocity": 0.7559055118110236
        },
        {
          "duration": 0.881432883333332,
          "durationTicks": 959,
          "midi": 67,
          "name": "G4",
          "ticks": 168000,
          "time": 154.4116,
          "velocity": 0.7559055118110236
        },
        {
          "duration": 0.6608448833333398,
          "durationTicks": 719,
          "midi": 54,
          "name": "F#3",
          "ticks": 168960,
          "time": 155.293952,
          "velocity": 0.7559055118110236
        },
        {
          "duration": 0.6608448833333398,
          "durationTicks": 719,
          "midi": 66,
          "name": "F#4",
          "ticks": 168960,
          "time": 155.293952,
          "velocity": 0.7559055118110236
        },
        {
          "duration": 0.44025688333331914,
          "durationTicks": 479,
          "midi": 55,
          "name": "G3",
          "ticks": 169680,
          "time": 155.955716,
          "velocity": 0.7559055118110236
        },
        {
          "duration": 0.44025688333331914,
          "durationTicks": 479,
          "midi": 67,
          "name": "G4",
          "ticks": 169680,
          "time": 155.955716,
          "velocity": 0.7559055118110236
        },
        {
          "duration": 0.2196688833333269,
          "durationTicks": 239,
          "midi": 59,
          "name": "B3",
          "ticks": 172080,
          "time": 158.161596,
          "velocity": 0.8818897637795275
        },
        {
          "duration": 0.2196688833333269,
          "durationTicks": 239,
          "midi": 74,
          "name": "D5",
          "ticks": 172080,
          "time": 158.161596,
          "velocity": 0.8818897637795275
        },
        {
          "duration": 0.2196688833333269,
          "durationTicks": 239,
          "midi": 59,
          "name": "B3",
          "ticks": 172320,
          "time": 158.382184,
          "velocity": 0.8818897637795275
        },
        {
          "duration": 0.2196688833333269,
          "durationTicks": 239,
          "midi": 74,
          "name": "D5",
          "ticks": 172320,
          "time": 158.382184,
          "velocity": 0.8818897637795275
        },
        {
          "duration": 0.21966888333329848,
          "durationTicks": 239,
          "midi": 59,
          "name": "B3",
          "ticks": 172560,
          "time": 158.60277200000002,
          "velocity": 0.8818897637795275
        },
        {
          "duration": 0.21966888333329848,
          "durationTicks": 239,
          "midi": 74,
          "name": "D5",
          "ticks": 172560,
          "time": 158.60277200000002,
          "velocity": 0.8818897637795275
        },
        {
          "duration": 0.44025688333331914,
          "durationTicks": 479,
          "midi": 59,
          "name": "B3",
          "ticks": 172800,
          "time": 158.82336,
          "velocity": 0.8818897637795275
        },
        {
          "duration": 0.44025688333331914,
          "durationTicks": 479,
          "midi": 74,
          "name": "D5",
          "ticks": 172800,
          "time": 158.82336,
          "velocity": 0.8818897637795275
        },
        {
          "duration": 0.44025688333334756,
          "durationTicks": 479,
          "midi": 59,
          "name": "B3",
          "ticks": 173280,
          "time": 159.264536,
          "velocity": 0.8818897637795275
        },
        {
          "duration": 0.44025688333334756,
          "durationTicks": 479,
          "midi": 67,
          "name": "G4",
          "ticks": 173280,
          "time": 159.264536,
          "velocity": 0.8818897637795275
        },
        {
          "duration": 0.2196688833333269,
          "durationTicks": 239,
          "midi": 57,
          "name": "A3",
          "ticks": 173760,
          "time": 159.705712,
          "velocity": 0.8818897637795275
        },
        {
          "duration": 0.2196688833333269,
          "durationTicks": 239,
          "midi": 66,
          "name": "F#4",
          "ticks": 173760,
          "time": 159.705712,
          "velocity": 0.8818897637795275
        },
        {
          "duration": 0.44025688333331914,
          "durationTicks": 479,
          "midi": 59,
          "name": "B3",
          "ticks": 174000,
          "time": 159.9263,
          "velocity": 0.8818897637795275
        },
        {
          "duration": 0.44025688333331914,
          "durationTicks": 479,
          "midi": 67,
          "name": "G4",
          "ticks": 174000,
          "time": 159.9263,
          "velocity": 0.8818897637795275
        },
        {
          "duration": 1.1020208833333243,
          "durationTicks": 1199,
          "midi": 59,
          "name": "B3",
          "ticks": 174480,
          "time": 160.367476,
          "velocity": 0.8818897637795275
        },
        {
          "duration": 1.1020208833333243,
          "durationTicks": 1199,
          "midi": 67,
          "name": "G4",
          "ticks": 174480,
          "time": 160.367476,
          "velocity": 0.8818897637795275
        },
        {
          "duration": 0.44025688333334756,
          "durationTicks": 479,
          "midi": 59,
          "name": "B3",
          "ticks": 175920,
          "time": 161.691004,
          "velocity": 0.8818897637795275
        },
        {
          "duration": 0.44025688333334756,
          "durationTicks": 479,
          "midi": 74,
          "name": "D5",
          "ticks": 175920,
          "time": 161.691004,
          "velocity": 0.8818897637795275
        },
        {
          "duration": 0.2196688833333269,
          "durationTicks": 239,
          "midi": 59,
          "name": "B3",
          "ticks": 176400,
          "time": 162.13218,
          "velocity": 0.8818897637795275
        },
        {
          "duration": 0.2196688833333269,
          "durationTicks": 239,
          "midi": 74,
          "name": "D5",
          "ticks": 176400,
          "time": 162.13218,
          "velocity": 0.8818897637795275
        },
        {
          "duration": 0.44025688333331914,
          "durationTicks": 479,
          "midi": 59,
          "name": "B3",
          "ticks": 176640,
          "time": 162.352768,
          "velocity": 0.8818897637795275
        },
        {
          "duration": 0.44025688333331914,
          "durationTicks": 479,
          "midi": 74,
          "name": "D5",
          "ticks": 176640,
          "time": 162.352768,
          "velocity": 0.8818897637795275
        },
        {
          "duration": 0.44025688333331914,
          "durationTicks": 479,
          "midi": 59,
          "name": "B3",
          "ticks": 177120,
          "time": 162.793944,
          "velocity": 0.8818897637795275
        },
        {
          "duration": 0.44025688333331914,
          "durationTicks": 479,
          "midi": 67,
          "name": "G4",
          "ticks": 177120,
          "time": 162.793944,
          "velocity": 0.8818897637795275
        },
        {
          "duration": 0.2196688833333269,
          "durationTicks": 239,
          "midi": 57,
          "name": "A3",
          "ticks": 177600,
          "time": 163.23512,
          "velocity": 0.8818897637795275
        },
        {
          "duration": 0.2196688833333269,
          "durationTicks": 239,
          "midi": 65,
          "name": "F4",
          "ticks": 177600,
          "time": 163.23512,
          "velocity": 0.8818897637795275
        },
        {
          "duration": 0.21966888333329848,
          "durationTicks": 239,
          "midi": 59,
          "name": "B3",
          "ticks": 177840,
          "time": 163.45570800000002,
          "velocity": 0.8818897637795275
        },
        {
          "duration": 0.21966888333329848,
          "durationTicks": 239,
          "midi": 67,
          "name": "G4",
          "ticks": 177840,
          "time": 163.45570800000002,
          "velocity": 0.8818897637795275
        },
        {
          "duration": 0.2196688833333269,
          "durationTicks": 239,
          "midi": 60,
          "name": "C4",
          "ticks": 178080,
          "time": 163.676296,
          "velocity": 0.8818897637795275
        },
        {
          "duration": 0.2196688833333269,
          "durationTicks": 239,
          "midi": 69,
          "name": "A4",
          "ticks": 178080,
          "time": 163.676296,
          "velocity": 0.8818897637795275
        },
        {
          "duration": 1.1020208833333243,
          "durationTicks": 1199,
          "midi": 59,
          "name": "B3",
          "ticks": 178320,
          "time": 163.896884,
          "velocity": 0.8818897637795275
        },
        {
          "duration": 1.1020208833333243,
          "durationTicks": 1199,
          "midi": 67,
          "name": "G4",
          "ticks": 178320,
          "time": 163.896884,
          "velocity": 0.8818897637795275
        },
        {
          "duration": 0.2196688833333269,
          "durationTicks": 239,
          "midi": 59,
          "name": "B3",
          "ticks": 179760,
          "time": 165.220412,
          "velocity": 0.8818897637795275
        },
        {
          "duration": 0.2196688833333269,
          "durationTicks": 239,
          "midi": 62,
          "name": "D4",
          "ticks": 179760,
          "time": 165.220412,
          "velocity": 0.8818897637795275
        },
        {
          "duration": 0.2196688833333269,
          "durationTicks": 239,
          "midi": 74,
          "name": "D5",
          "ticks": 179760,
          "time": 165.220412,
          "velocity": 0.8818897637795275
        },
        {
          "duration": 0.2196688833333269,
          "durationTicks": 239,
          "midi": 59,
          "name": "B3",
          "ticks": 180000,
          "time": 165.441,
          "velocity": 0.8818897637795275
        },
        {
          "duration": 0.2196688833333269,
          "durationTicks": 239,
          "midi": 62,
          "name": "D4",
          "ticks": 180000,
          "time": 165.441,
          "velocity": 0.8818897637795275
        },
        {
          "duration": 0.2196688833333269,
          "durationTicks": 239,
          "midi": 74,
          "name": "D5",
          "ticks": 180000,
          "time": 165.441,
          "velocity": 0.8818897637795275
        },
        {
          "duration": 0.2196688833333269,
          "durationTicks": 239,
          "midi": 59,
          "name": "B3",
          "ticks": 180240,
          "time": 165.661588,
          "velocity": 0.8818897637795275
        },
        {
          "duration": 0.2196688833333269,
          "durationTicks": 239,
          "midi": 62,
          "name": "D4",
          "ticks": 180240,
          "time": 165.661588,
          "velocity": 0.8818897637795275
        },
        {
          "duration": 0.2196688833333269,
          "durationTicks": 239,
          "midi": 74,
          "name": "D5",
          "ticks": 180240,
          "time": 165.661588,
          "velocity": 0.8818897637795275
        },
        {
          "duration": 0.44025688333331914,
          "durationTicks": 479,
          "midi": 59,
          "name": "B3",
          "ticks": 180480,
          "time": 165.88217600000002,
          "velocity": 0.8818897637795275
        },
        {
          "duration": 0.44025688333331914,
          "durationTicks": 479,
          "midi": 62,
          "name": "D4",
          "ticks": 180480,
          "time": 165.88217600000002,
          "velocity": 0.8818897637795275
        },
        {
          "duration": 0.44025688333331914,
          "durationTicks": 479,
          "midi": 74,
          "name": "D5",
          "ticks": 180480,
          "time": 165.88217600000002,
          "velocity": 0.8818897637795275
        },
        {
          "duration": 0.44025688333331914,
          "durationTicks": 479,
          "midi": 64,
          "name": "E4",
          "ticks": 180960,
          "time": 166.323352,
          "velocity": 0.8818897637795275
        },
        {
          "duration": 0.44025688333331914,
          "durationTicks": 479,
          "midi": 67,
          "name": "G4",
          "ticks": 180960,
          "time": 166.323352,
          "velocity": 0.8818897637795275
        },
        {
          "duration": 0.44025688333331914,
          "durationTicks": 479,
          "midi": 79,
          "name": "G5",
          "ticks": 180960,
          "time": 166.323352,
          "velocity": 0.8818897637795275
        },
        {
          "duration": 0.44025688333331914,
          "durationTicks": 479,
          "midi": 63,
          "name": "D#4",
          "ticks": 181440,
          "time": 166.764528,
          "velocity": 0.8818897637795275
        },
        {
          "duration": 0.44025688333331914,
          "durationTicks": 479,
          "midi": 66,
          "name": "F#4",
          "ticks": 181440,
          "time": 166.764528,
          "velocity": 0.8818897637795275
        },
        {
          "duration": 0.44025688333331914,
          "durationTicks": 479,
          "midi": 78,
          "name": "F#5",
          "ticks": 181440,
          "time": 166.764528,
          "velocity": 0.8818897637795275
        },
        {
          "duration": 0.2196688833333269,
          "durationTicks": 239,
          "midi": 64,
          "name": "E4",
          "ticks": 181920,
          "time": 167.205704,
          "velocity": 0.8818897637795275
        },
        {
          "duration": 0.2196688833333269,
          "durationTicks": 239,
          "midi": 67,
          "name": "G4",
          "ticks": 181920,
          "time": 167.205704,
          "velocity": 0.8818897637795275
        },
        {
          "duration": 0.2196688833333269,
          "durationTicks": 239,
          "midi": 79,
          "name": "G5",
          "ticks": 181920,
          "time": 167.205704,
          "velocity": 0.8818897637795275
        },
        {
          "duration": 1.1020208833332958,
          "durationTicks": 1199,
          "midi": 64,
          "name": "E4",
          "ticks": 182160,
          "time": 167.42629200000002,
          "velocity": 0.8818897637795275
        },
        {
          "duration": 1.1020208833332958,
          "durationTicks": 1199,
          "midi": 67,
          "name": "G4",
          "ticks": 182160,
          "time": 167.42629200000002,
          "velocity": 0.8818897637795275
        },
        {
          "duration": 1.1020208833332958,
          "durationTicks": 1199,
          "midi": 79,
          "name": "G5",
          "ticks": 182160,
          "time": 167.42629200000002,
          "velocity": 0.8818897637795275
        },
        {
          "duration": 0.44025688333331914,
          "durationTicks": 479,
          "midi": 67,
          "name": "G4",
          "ticks": 183360,
          "time": 168.529232,
          "velocity": 0.7559055118110236
        },
        {
          "duration": 0.44025688333331914,
          "durationTicks": 479,
          "midi": 79,
          "name": "G5",
          "ticks": 183360,
          "time": 168.529232,
          "velocity": 0.7559055118110236
        },
        {
          "duration": 0.44025688333334756,
          "durationTicks": 479,
          "midi": 64,
          "name": "E4",
          "ticks": 183840,
          "time": 168.970408,
          "velocity": 0.7559055118110236
        },
        {
          "duration": 0.44025688333334756,
          "durationTicks": 479,
          "midi": 76,
          "name": "E5",
          "ticks": 183840,
          "time": 168.970408,
          "velocity": 0.7559055118110236
        },
        {
          "duration": 0.44025688333331914,
          "durationTicks": 479,
          "midi": 60,
          "name": "C4",
          "ticks": 184320,
          "time": 169.411584,
          "velocity": 0.7559055118110236
        },
        {
          "duration": 0.44025688333331914,
          "durationTicks": 479,
          "midi": 72,
          "name": "C5",
          "ticks": 184320,
          "time": 169.411584,
          "velocity": 0.7559055118110236
        },
        {
          "duration": 0.44025688333331914,
          "durationTicks": 479,
          "midi": 57,
          "name": "A3",
          "ticks": 184800,
          "time": 169.85276000000002,
          "velocity": 0.7559055118110236
        },
        {
          "duration": 0.44025688333331914,
          "durationTicks": 479,
          "midi": 69,
          "name": "A4",
          "ticks": 184800,
          "time": 169.85276000000002,
          "velocity": 0.7559055118110236
        },
        {
          "duration": 0.881432883333332,
          "durationTicks": 959,
          "midi": 55,
          "name": "G3",
          "ticks": 185280,
          "time": 170.293936,
          "velocity": 0.7559055118110236
        },
        {
          "duration": 0.881432883333332,
          "durationTicks": 959,
          "midi": 67,
          "name": "G4",
          "ticks": 185280,
          "time": 170.293936,
          "velocity": 0.7559055118110236
        },
        {
          "duration": 0.6608448833333398,
          "durationTicks": 719,
          "midi": 54,
          "name": "F#3",
          "ticks": 186240,
          "time": 171.176288,
          "velocity": 0.7559055118110236
        },
        {
          "duration": 0.6608448833333398,
          "durationTicks": 719,
          "midi": 66,
          "name": "F#4",
          "ticks": 186240,
          "time": 171.176288,
          "velocity": 0.7559055118110236
        },
        {
          "duration": 0.881432883333332,
          "durationTicks": 959,
          "midi": 54,
          "name": "F#3",
          "ticks": 186960,
          "time": 171.838052,
          "velocity": 0.7559055118110236
        },
        {
          "duration": 0.881432883333332,
          "durationTicks": 959,
          "midi": 66,
          "name": "F#4",
          "ticks": 186960,
          "time": 171.838052,
          "velocity": 0.7559055118110236
        },
        {
          "duration": 0.6608448833333114,
          "durationTicks": 719,
          "midi": 67,
          "name": "G4",
          "ticks": 187920,
          "time": 172.720404,
          "velocity": 0.7559055118110236
        },
        {
          "duration": 0.44025688333331914,
          "durationTicks": 479,
          "midi": 69,
          "name": "A4",
          "ticks": 188880,
          "time": 173.602756,
          "velocity": 0.7559055118110236
        },
        {
          "duration": 0.2196688833333269,
          "durationTicks": 239,
          "midi": 71,
          "name": "B4",
          "ticks": 189360,
          "time": 174.043932,
          "velocity": 0.7559055118110236
        },
        {
          "duration": 0.2196688833333269,
          "durationTicks": 239,
          "midi": 69,
          "name": "A4",
          "ticks": 189600,
          "time": 174.26452,
          "velocity": 0.7559055118110236
        },
        {
          "duration": 1.1020208833333243,
          "durationTicks": 1199,
          "midi": 72,
          "name": "C5",
          "ticks": 189840,
          "time": 174.485108,
          "velocity": 0.7559055118110236
        },
        {
          "duration": 0.10937488333331657,
          "durationTicks": 119,
          "midi": 67,
          "name": "G4",
          "ticks": 191040,
          "time": 175.58804800000001,
          "velocity": 0.7559055118110236
        },
        {
          "duration": 0.10937488333331657,
          "durationTicks": 119,
          "midi": 64,
          "name": "E4",
          "ticks": 191160,
          "time": 175.698342,
          "velocity": 0.7559055118110236
        },
        {
          "duration": 0.10937488333331657,
          "durationTicks": 119,
          "midi": 62,
          "name": "D4",
          "ticks": 191280,
          "time": 175.808636,
          "velocity": 0.7559055118110236
        },
        {
          "duration": 0.10937488333331657,
          "durationTicks": 119,
          "midi": 59,
          "name": "B3",
          "ticks": 191400,
          "time": 175.91893000000002,
          "velocity": 0.7559055118110236
        },
        {
          "duration": 0.109374883333345,
          "durationTicks": 119,
          "midi": 64,
          "name": "E4",
          "ticks": 191760,
          "time": 176.249812,
          "velocity": 0.7559055118110236
        },
        {
          "duration": 0.10937488333331657,
          "durationTicks": 119,
          "midi": 62,
          "name": "D4",
          "ticks": 191880,
          "time": 176.360106,
          "velocity": 0.7559055118110236
        },
        {
          "duration": 0.10937488333331657,
          "durationTicks": 119,
          "midi": 59,
          "name": "B3",
          "ticks": 192000,
          "time": 176.4704,
          "velocity": 0.7559055118110236
        },
        {
          "duration": 0.109374883333345,
          "durationTicks": 119,
          "midi": 57,
          "name": "A3",
          "ticks": 192120,
          "time": 176.580694,
          "velocity": 0.7559055118110236
        },
        {
          "duration": 0.10937488333331657,
          "durationTicks": 119,
          "midi": 62,
          "name": "D4",
          "ticks": 192480,
          "time": 176.911576,
          "velocity": 0.7559055118110236
        },
        {
          "duration": 0.10937488333331657,
          "durationTicks": 119,
          "midi": 59,
          "name": "B3",
          "ticks": 192600,
          "time": 177.02187,
          "velocity": 0.7559055118110236
        },
        {
          "duration": 0.10937488333331657,
          "durationTicks": 119,
          "midi": 57,
          "name": "A3",
          "ticks": 192720,
          "time": 177.13216400000002,
          "velocity": 0.7559055118110236
        },
        {
          "duration": 0.10937488333331657,
          "durationTicks": 119,
          "midi": 55,
          "name": "G3",
          "ticks": 192840,
          "time": 177.242458,
          "velocity": 0.7559055118110236
        },
        {
          "duration": 0.10937488333331657,
          "durationTicks": 119,
          "midi": 59,
          "name": "B3",
          "ticks": 193200,
          "time": 177.57334,
          "velocity": 0.7559055118110236
        },
        {
          "duration": 0.10937488333331657,
          "durationTicks": 119,
          "midi": 57,
          "name": "A3",
          "ticks": 193320,
          "time": 177.683634,
          "velocity": 0.7559055118110236
        },
        {
          "duration": 0.109374883333345,
          "durationTicks": 119,
          "midi": 55,
          "name": "G3",
          "ticks": 193440,
          "time": 177.793928,
          "velocity": 0.7559055118110236
        },
        {
          "duration": 0.10937488333331657,
          "durationTicks": 119,
          "midi": 52,
          "name": "E3",
          "ticks": 193560,
          "time": 177.904222,
          "velocity": 0.7559055118110236
        },
        {
          "duration": 0.10937488333331657,
          "durationTicks": 119,
          "midi": 57,
          "name": "A3",
          "ticks": 194160,
          "time": 178.455692,
          "velocity": 0.7559055118110236
        },
        {
          "duration": 0.10937488333331657,
          "durationTicks": 119,
          "midi": 59,
          "name": "B3",
          "ticks": 194280,
          "time": 178.565986,
          "velocity": 0.7559055118110236
        },
        {
          "duration": 0.109374883333345,
          "durationTicks": 119,
          "midi": 67,
          "name": "G4",
          "ticks": 194400,
          "time": 178.67628,
          "velocity": 0.7559055118110236
        },
        {
          "duration": 0.10937488333331657,
          "durationTicks": 119,
          "midi": 66,
          "name": "F#4",
          "ticks": 194520,
          "time": 178.786574,
          "velocity": 0.7559055118110236
        },
        {
          "duration": 0.10937488333331657,
          "durationTicks": 119,
          "midi": 59,
          "name": "B3",
          "ticks": 194640,
          "time": 178.896868,
          "velocity": 0.7559055118110236
        },
        {
          "duration": 0.32996288333333723,
          "durationTicks": 359,
          "midi": 62,
          "name": "D4",
          "ticks": 194760,
          "time": 179.007162,
          "velocity": 0.7559055118110236
        },
        {
          "duration": 0.2196688833333269,
          "durationTicks": 239,
          "midi": 64,
          "name": "E4",
          "ticks": 195120,
          "time": 179.338044,
          "velocity": 0.7559055118110236
        }
      ]
    },
    {
      "channel": 0,
      "controlChanges": {
        "121": [
          {
            "number": 121,
            "ticks": 0,
            "time": 0,
            "value": 0
          }
        ]
      },
      "pitchBends": [],
      "instrument": {
        "family": "piano",
        "number": 0,
        "name": "acoustic grand piano"
      },
      "name": "",
      "notes": [],
      "endOfTrackTicks": 195360
    },
    {
      "channel": 1,
      "controlChanges": {
        "7": [
          {
            "number": 7,
            "ticks": 0,
            "time": 0,
            "value": 0.889763779527559
          }
        ],
        "10": [
          {
            "number": 10,
            "ticks": 0,
            "time": 0,
            "value": 0.5039370078740157
          }
        ],
        "91": [
          {
            "number": 91,
            "ticks": 0,
            "time": 0,
            "value": 0
          }
        ],
        "93": [
          {
            "number": 93,
            "ticks": 0,
            "time": 0,
            "value": 0
          }
        ]
      },
      "pitchBends": [],
      "instrument": {
        "family": "reed",
        "number": 66,
        "name": "tenor sax"
      },
      "name": "",
      "notes": [
        {
          "duration": 0.10937488333333334,
          "durationTicks": 119,
          "midi": 57,
          "name": "A3",
          "ticks": 0,
          "time": 0,
          "velocity": 0.6299212598425197
        },
        {
          "duration": 0.10937488333333334,
          "durationTicks": 119,
          "midi": 58,
          "name": "A#3",
          "ticks": 120,
          "time": 0.110294,
          "velocity": 0.6299212598425197
        },
        {
          "duration": 0.10937488333333334,
          "durationTicks": 119,
          "midi": 59,
          "name": "B3",
          "ticks": 240,
          "time": 0.220588,
          "velocity": 0.6299212598425197
        },
        {
          "duration": 0.10937488333333334,
          "durationTicks": 119,
          "midi": 62,
          "name": "D4",
          "ticks": 360,
          "time": 0.330882,
          "velocity": 0.6299212598425197
        },
        {
          "duration": 0.10937488333333334,
          "durationTicks": 119,
          "midi": 57,
          "name": "A3",
          "ticks": 720,
          "time": 0.661764,
          "velocity": 0.6299212598425197
        },
        {
          "duration": 0.10937488333333334,
          "durationTicks": 119,
          "midi": 58,
          "name": "A#3",
          "ticks": 840,
          "time": 0.772058,
          "velocity": 0.6299212598425197
        },
        {
          "duration": 0.10937488333333334,
          "durationTicks": 119,
          "midi": 59,
          "name": "B3",
          "ticks": 960,
          "time": 0.882352,
          "velocity": 0.6299212598425197
        },
        {
          "duration": 0.10937488333333334,
          "durationTicks": 119,
          "midi": 62,
          "name": "D4",
          "ticks": 1080,
          "time": 0.992646,
          "velocity": 0.6299212598425197
        },
        {
          "duration": 0.10937488333333345,
          "durationTicks": 119,
          "midi": 62,
          "name": "D4",
          "ticks": 1440,
          "time": 1.323528,
          "velocity": 0.6299212598425197
        },
        {
          "duration": 0.10937488333333323,
          "durationTicks": 119,
          "midi": 62,
          "name": "D4",
          "ticks": 1560,
          "time": 1.4338220000000002,
          "velocity": 0.6299212598425197
        },
        {
          "duration": 0.10937488333333345,
          "durationTicks": 119,
          "midi": 57,
          "name": "A3",
          "ticks": 1920,
          "time": 1.764704,
          "velocity": 0.6299212598425197
        },
        {
          "duration": 0.10937488333333323,
          "durationTicks": 119,
          "midi": 58,
          "name": "A#3",
          "ticks": 2040,
          "time": 1.8749980000000002,
          "velocity": 0.6299212598425197
        },
        {
          "duration": 0.10937488333333323,
          "durationTicks": 119,
          "midi": 59,
          "name": "B3",
          "ticks": 2160,
          "time": 1.985292,
          "velocity": 0.6299212598425197
        },
        {
          "duration": 0.10937488333333345,
          "durationTicks": 119,
          "midi": 62,
          "name": "D4",
          "ticks": 2280,
          "time": 2.095586,
          "velocity": 0.6299212598425197
        },
        {
          "duration": 0.10937488333333345,
          "durationTicks": 119,
          "midi": 59,
          "name": "B3",
          "ticks": 2640,
          "time": 2.426468,
          "velocity": 0.6299212598425197
        },
        {
          "duration": 0.10937488333333345,
          "durationTicks": 119,
          "midi": 57,
          "name": "A3",
          "ticks": 2760,
          "time": 2.536762,
          "velocity": 0.6299212598425197
        },
        {
          "duration": 0.10937488333333345,
          "durationTicks": 119,
          "midi": 55,
          "name": "G3",
          "ticks": 2880,
          "time": 2.647056,
          "velocity": 0.6299212598425197
        },
        {
          "duration": 0.10937488333333345,
          "durationTicks": 119,
          "midi": 52,
          "name": "E3",
          "ticks": 3000,
          "time": 2.75735,
          "velocity": 0.6299212598425197
        },
        {
          "duration": 0.10937488333333345,
          "durationTicks": 119,
          "midi": 64,
          "name": "E4",
          "ticks": 3360,
          "time": 3.088232,
          "velocity": 0.6299212598425197
        },
        {
          "duration": 0.10937488333333345,
          "durationTicks": 119,
          "midi": 64,
          "name": "E4",
          "ticks": 3480,
          "time": 3.198526,
          "velocity": 0.6299212598425197
        },
        {
          "duration": 0.10937488333333345,
          "durationTicks": 119,
          "midi": 67,
          "name": "G4",
          "ticks": 4800,
          "time": 4.41176,
          "velocity": 0.6299212598425197
        },
        {
          "duration": 0.10937488333333345,
          "durationTicks": 119,
          "midi": 64,
          "name": "E4",
          "ticks": 4920,
          "time": 4.522054,
          "velocity": 0.6299212598425197
        },
        {
          "duration": 0.10937488333333345,
          "durationTicks": 119,
          "midi": 62,
          "name": "D4",
          "ticks": 5040,
          "time": 4.632348,
          "velocity": 0.6299212598425197
        },
        {
          "duration": 0.10937488333333345,
          "durationTicks": 119,
          "midi": 64,
          "name": "E4",
          "ticks": 5160,
          "time": 4.742642,
          "velocity": 0.6299212598425197
        },
        {
          "duration": 0.10937488333333345,
          "durationTicks": 119,
          "midi": 67,
          "name": "G4",
          "ticks": 5520,
          "time": 5.073524,
          "velocity": 0.6299212598425197
        },
        {
          "duration": 0.10937488333333345,
          "durationTicks": 119,
          "midi": 64,
          "name": "E4",
          "ticks": 5640,
          "time": 5.1838180000000005,
          "velocity": 0.6299212598425197
        },
        {
          "duration": 0.10937488333333345,
          "durationTicks": 119,
          "midi": 62,
          "name": "D4",
          "ticks": 5760,
          "time": 5.294112,
          "velocity": 0.6299212598425197
        },
        {
          "duration": 0.10937488333333345,
          "durationTicks": 119,
          "midi": 64,
          "name": "E4",
          "ticks": 5880,
          "time": 5.404406,
          "velocity": 0.6299212598425197
        },
        {
          "duration": 0.10937488333333256,
          "durationTicks": 119,
          "midi": 67,
          "name": "G4",
          "ticks": 6240,
          "time": 5.735288000000001,
          "velocity": 0.6299212598425197
        },
        {
          "duration": 0.10937488333333345,
          "durationTicks": 119,
          "midi": 64,
          "name": "E4",
          "ticks": 6360,
          "time": 5.845582,
          "velocity": 0.6299212598425197
        },
        {
          "duration": 0.10937488333333345,
          "durationTicks": 119,
          "midi": 62,
          "name": "D4",
          "ticks": 6480,
          "time": 5.955876,
          "velocity": 0.6299212598425197
        },
        {
          "duration": 0.10937488333333345,
          "durationTicks": 119,
          "midi": 64,
          "name": "E4",
          "ticks": 6600,
          "time": 6.0661700000000005,
          "velocity": 0.6299212598425197
        },
        {
          "duration": 0.10937488333333345,
          "durationTicks": 119,
          "midi": 59,
          "name": "B3",
          "ticks": 6840,
          "time": 6.286758,
          "velocity": 0.6299212598425197
        },
        {
          "duration": 0.6608448833333336,
          "durationTicks": 719,
          "midi": 61,
          "name": "C#4",
          "ticks": 6960,
          "time": 6.397052,
          "velocity": 0.6299212598425197
        },
        {
          "duration": 0.21966888333333223,
          "durationTicks": 239,
          "midi": 59,
          "name": "B3",
          "ticks": 7920,
          "time": 7.279404,
          "velocity": 0.6299212598425197
        },
        {
          "duration": 0.10937488333333256,
          "durationTicks": 119,
          "midi": 67,
          "name": "G4",
          "ticks": 8160,
          "time": 7.499992000000001,
          "velocity": 0.6299212598425197
        },
        {
          "duration": 0.10937488333333256,
          "durationTicks": 119,
          "midi": 66,
          "name": "F#4",
          "ticks": 8280,
          "time": 7.610286,
          "velocity": 0.6299212598425197
        },
        {
          "duration": 0.10937488333333256,
          "durationTicks": 119,
          "midi": 64,
          "name": "E4",
          "ticks": 8400,
          "time": 7.72058,
          "velocity": 0.6299212598425197
        },
        {
          "duration": 0.3299628833333328,
          "durationTicks": 359,
          "midi": 62,
          "name": "D4",
          "ticks": 8520,
          "time": 7.830874000000001,
          "velocity": 0.6299212598425197
        },
        {
          "duration": 0.21966888333333223,
          "durationTicks": 239,
          "midi": 64,
          "name": "E4",
          "ticks": 8880,
          "time": 8.161756,
          "velocity": 0.6299212598425197
        },
        {
          "duration": 0.04319848333333276,
          "durationTicks": 47,
          "midi": 62,
          "name": "D4",
          "ticks": 10320,
          "time": 9.485284,
          "velocity": 0.6299212598425197
        },
        {
          "duration": 0.04319848333333276,
          "durationTicks": 47,
          "midi": 63,
          "name": "D#4",
          "ticks": 10368,
          "time": 9.529401600000002,
          "velocity": 0.6299212598425197
        },
        {
          "duration": 0.04319848333333276,
          "durationTicks": 47,
          "midi": 64,
          "name": "E4",
          "ticks": 10416,
          "time": 9.5735192,
          "velocity": 0.6299212598425197
        },
        {
          "duration": 0.04319848333333276,
          "durationTicks": 47,
          "midi": 65,
          "name": "F4",
          "ticks": 10464,
          "time": 9.617636800000001,
          "velocity": 0.6299212598425197
        },
        {
          "duration": 0.04319848333333276,
          "durationTicks": 47,
          "midi": 66,
          "name": "F#4",
          "ticks": 10512,
          "time": 9.6617544,
          "velocity": 0.6299212598425197
        },
        {
          "duration": 0.29411733333333423,
          "durationTicks": 320,
          "midi": 67,
          "name": "G4",
          "ticks": 10560,
          "time": 9.705872,
          "velocity": 0.7559055118110236
        },
        {
          "duration": 0.29411733333333423,
          "durationTicks": 320,
          "midi": 66,
          "name": "F#4",
          "ticks": 11040,
          "time": 10.147048,
          "velocity": 0.7559055118110236
        },
        {
          "duration": 0.3299628833333319,
          "durationTicks": 359,
          "midi": 64,
          "name": "E4",
          "ticks": 11520,
          "time": 10.588224,
          "velocity": 0.7559055118110236
        },
        {
          "duration": 0.21966888333333223,
          "durationTicks": 239,
          "midi": 62,
          "name": "D4",
          "ticks": 11880,
          "time": 10.919106000000001,
          "velocity": 0.7559055118110236
        },
        {
          "duration": 0.3299628833333319,
          "durationTicks": 359,
          "midi": 62,
          "name": "D4",
          "ticks": 12120,
          "time": 11.139694,
          "velocity": 0.7559055118110236
        },
        {
          "duration": 0.10937488333333256,
          "durationTicks": 119,
          "midi": 55,
          "name": "G3",
          "ticks": 12480,
          "time": 11.470576000000001,
          "velocity": 0.6299212598425197
        },
        {
          "duration": 0.10937488333333256,
          "durationTicks": 119,
          "midi": 55,
          "name": "G3",
          "ticks": 12600,
          "time": 11.58087,
          "velocity": 0.6299212598425197
        },
        {
          "duration": 0.10937488333333256,
          "durationTicks": 119,
          "midi": 55,
          "name": "G3",
          "ticks": 12720,
          "time": 11.691164,
          "velocity": 0.6299212598425197
        },
        {
          "duration": 0.10937488333333256,
          "durationTicks": 119,
          "midi": 55,
          "name": "G3",
          "ticks": 12840,
          "time": 11.801458,
          "velocity": 0.6299212598425197
        },
        {
          "duration": 0.10937488333333256,
          "durationTicks": 119,
          "midi": 55,
          "name": "G3",
          "ticks": 13200,
          "time": 12.132340000000001,
          "velocity": 0.6299212598425197
        },
        {
          "duration": 0.10937488333333256,
          "durationTicks": 119,
          "midi": 55,
          "name": "G3",
          "ticks": 13320,
          "time": 12.242634,
          "velocity": 0.6299212598425197
        },
        {
          "duration": 0.10937488333333256,
          "durationTicks": 119,
          "midi": 55,
          "name": "G3",
          "ticks": 13440,
          "time": 12.352928,
          "velocity": 0.6299212598425197
        },
        {
          "duration": 0.10937488333333256,
          "durationTicks": 119,
          "midi": 55,
          "name": "G3",
          "ticks": 13560,
          "time": 12.463222,
          "velocity": 0.6299212598425197
        },
        {
          "duration": 0.10937488333333256,
          "durationTicks": 119,
          "midi": 55,
          "name": "G3",
          "ticks": 13920,
          "time": 12.794104,
          "velocity": 0.6299212598425197
        },
        {
          "duration": 0.10937488333333256,
          "durationTicks": 119,
          "midi": 55,
          "name": "G3",
          "ticks": 14040,
          "time": 12.904398,
          "velocity": 0.6299212598425197
        },
        {
          "duration": 0.10937488333333256,
          "durationTicks": 119,
          "midi": 55,
          "name": "G3",
          "ticks": 14160,
          "time": 13.014692,
          "velocity": 0.6299212598425197
        },
        {
          "duration": 0.10937488333333256,
          "durationTicks": 119,
          "midi": 55,
          "name": "G3",
          "ticks": 14280,
          "time": 13.124986,
          "velocity": 0.6299212598425197
        },
        {
          "duration": 0.10937488333333256,
          "durationTicks": 119,
          "midi": 59,
          "name": "B3",
          "ticks": 14520,
          "time": 13.345574000000001,
          "velocity": 0.6299212598425197
        },
        {
          "duration": 1.1020208833333331,
          "durationTicks": 1199,
          "midi": 61,
          "name": "C#4",
          "ticks": 14640,
          "time": 13.455868,
          "velocity": 0.6299212598425197
        },
        {
          "duration": 0.6608448833333345,
          "durationTicks": 719,
          "midi": 66,
          "name": "F#4",
          "ticks": 16080,
          "time": 14.779396,
          "velocity": 0.6299212598425197
        },
        {
          "duration": 0.8814328833333338,
          "durationTicks": 959,
          "midi": 67,
          "name": "G4",
          "ticks": 17040,
          "time": 15.661748000000001,
          "velocity": 0.6299212598425197
        },
        {
          "duration": 0.44025688333333335,
          "durationTicks": 479,
          "midi": 69,
          "name": "A4",
          "ticks": 18000,
          "time": 16.5441,
          "velocity": 0.6299212598425197
        },
        {
          "duration": 0.219668883333334,
          "durationTicks": 239,
          "midi": 71,
          "name": "B4",
          "ticks": 18480,
          "time": 16.985276,
          "velocity": 0.6299212598425197
        },
        {
          "duration": 0.219668883333334,
          "durationTicks": 239,
          "midi": 69,
          "name": "A4",
          "ticks": 18720,
          "time": 17.205864000000002,
          "velocity": 0.6299212598425197
        },
        {
          "duration": 0.44025688333333335,
          "durationTicks": 479,
          "midi": 72,
          "name": "C5",
          "ticks": 18960,
          "time": 17.426452,
          "velocity": 0.6299212598425197
        },
        {
          "duration": 0.10937488333333434,
          "durationTicks": 119,
          "midi": 64,
          "name": "E4",
          "ticks": 19440,
          "time": 17.867628,
          "velocity": 0.6299212598425197
        },
        {
          "duration": 0.10937488333333434,
          "durationTicks": 119,
          "midi": 64,
          "name": "E4",
          "ticks": 19680,
          "time": 18.088216,
          "velocity": 0.6299212598425197
        },
        {
          "duration": 0.10937488333333434,
          "durationTicks": 119,
          "midi": 64,
          "name": "E4",
          "ticks": 19920,
          "time": 18.308804000000002,
          "velocity": 0.6299212598425197
        },
        {
          "duration": 0.219668883333334,
          "durationTicks": 239,
          "midi": 64,
          "name": "E4",
          "ticks": 20160,
          "time": 18.529392,
          "velocity": 0.7559055118110236
        },
        {
          "duration": 0.10937488333333434,
          "durationTicks": 119,
          "midi": 62,
          "name": "D4",
          "ticks": 23280,
          "time": 21.397036,
          "velocity": 0.6299212598425197
        },
        {
          "duration": 0.10937488333333434,
          "durationTicks": 119,
          "midi": 64,
          "name": "E4",
          "ticks": 23400,
          "time": 21.50733,
          "velocity": 0.6299212598425197
        },
        {
          "duration": 0.10937488333333434,
          "durationTicks": 119,
          "midi": 62,
          "name": "D4",
          "ticks": 23520,
          "time": 21.617624,
          "velocity": 0.6299212598425197
        },
        {
          "duration": 0.10937488333333434,
          "durationTicks": 119,
          "midi": 59,
          "name": "B3",
          "ticks": 23640,
          "time": 21.727918,
          "velocity": 0.6299212598425197
        },
        {
          "duration": 0.10937488333333434,
          "durationTicks": 119,
          "midi": 55,
          "name": "G3",
          "ticks": 23760,
          "time": 21.838212000000002,
          "velocity": 0.6299212598425197
        },
        {
          "duration": 0.10937488333333434,
          "durationTicks": 119,
          "midi": 54,
          "name": "F#3",
          "ticks": 23880,
          "time": 21.948506000000002,
          "velocity": 0.6299212598425197
        },
        {
          "duration": 0.10937488333333434,
          "durationTicks": 119,
          "midi": 59,
          "name": "B3",
          "ticks": 27120,
          "time": 24.926444,
          "velocity": 0.6299212598425197
        },
        {
          "duration": 0.10937488333333434,
          "durationTicks": 119,
          "midi": 60,
          "name": "C4",
          "ticks": 27240,
          "time": 25.036738,
          "velocity": 0.6299212598425197
        },
        {
          "duration": 0.10937488333333434,
          "durationTicks": 119,
          "midi": 62,
          "name": "D4",
          "ticks": 27360,
          "time": 25.147032,
          "velocity": 0.6299212598425197
        },
        {
          "duration": 0.10937488333333434,
          "durationTicks": 119,
          "midi": 59,
          "name": "B3",
          "ticks": 27480,
          "time": 25.257326,
          "velocity": 0.6299212598425197
        },
        {
          "duration": 0.10937488333333434,
          "durationTicks": 119,
          "midi": 60,
          "name": "C4",
          "ticks": 27600,
          "time": 25.367620000000002,
          "velocity": 0.6299212598425197
        },
        {
          "duration": 0.10937488333333434,
          "durationTicks": 119,
          "midi": 62,
          "name": "D4",
          "ticks": 27720,
          "time": 25.477914000000002,
          "velocity": 0.6299212598425197
        },
        {
          "duration": 0.6608448833333327,
          "durationTicks": 719,
          "midi": 71,
          "name": "B4",
          "ticks": 27840,
          "time": 25.588208,
          "velocity": 0.6299212598425197
        },
        {
          "duration": 1.102020883333335,
          "durationTicks": 1199,
          "midi": 71,
          "name": "B4",
          "ticks": 28560,
          "time": 26.249972,
          "velocity": 0.6299212598425197
        },
        {
          "duration": 0.6608448833333362,
          "durationTicks": 719,
          "midi": 71,
          "name": "B4",
          "ticks": 29760,
          "time": 27.352912,
          "velocity": 0.6299212598425197
        },
        {
          "duration": 1.102020883333335,
          "durationTicks": 1199,
          "midi": 71,
          "name": "B4",
          "ticks": 30480,
          "time": 28.014676,
          "velocity": 0.6299212598425197
        },
        {
          "duration": 1.763784883333333,
          "durationTicks": 1919,
          "midi": 64,
          "name": "E4",
          "ticks": 31680,
          "time": 29.117616,
          "velocity": 0.6299212598425197
        },
        {
          "duration": 0.44025688333333335,
          "durationTicks": 479,
          "midi": 55,
          "name": "G3",
          "ticks": 33600,
          "time": 30.88232,
          "velocity": 0.6299212598425197
        },
        {
          "duration": 0.44025688333333335,
          "durationTicks": 479,
          "midi": 57,
          "name": "A3",
          "ticks": 34080,
          "time": 31.323496000000002,
          "velocity": 0.6299212598425197
        },
        {
          "duration": 0.4402568833333369,
          "durationTicks": 479,
          "midi": 59,
          "name": "B3",
          "ticks": 34560,
          "time": 31.764672,
          "velocity": 0.6299212598425197
        },
        {
          "duration": 0.44025688333333335,
          "durationTicks": 479,
          "midi": 60,
          "name": "C4",
          "ticks": 35040,
          "time": 32.205848,
          "velocity": 0.6299212598425197
        },
        {
          "duration": 0.44025688333333335,
          "durationTicks": 479,
          "midi": 62,
          "name": "D4",
          "ticks": 37200,
          "time": 34.191140000000004,
          "velocity": 0.7559055118110236
        },
        {
          "duration": 0.219668883333334,
          "durationTicks": 239,
          "midi": 60,
          "name": "C4",
          "ticks": 37680,
          "time": 34.632316,
          "velocity": 0.6299212598425197
        },
        {
          "duration": 0.219668883333334,
          "durationTicks": 239,
          "midi": 59,
          "name": "B3",
          "ticks": 37920,
          "time": 34.852904,
          "velocity": 0.6299212598425197
        },
        {
          "duration": 0.219668883333334,
          "durationTicks": 239,
          "midi": 60,
          "name": "C4",
          "ticks": 38160,
          "time": 35.073492,
          "velocity": 0.6299212598425197
        },
        {
          "duration": 0.219668883333334,
          "durationTicks": 239,
          "midi": 59,
          "name": "B3",
          "ticks": 38400,
          "time": 35.29408,
          "velocity": 0.6299212598425197
        },
        {
          "duration": 0.6608448833333327,
          "durationTicks": 719,
          "midi": 55,
          "name": "G3",
          "ticks": 38640,
          "time": 35.514668,
          "velocity": 0.6299212598425197
        },
        {
          "duration": 0.219668883333334,
          "durationTicks": 239,
          "midi": 62,
          "name": "D4",
          "ticks": 40560,
          "time": 37.279372,
          "velocity": 0.6299212598425197
        },
        {
          "duration": 0.219668883333334,
          "durationTicks": 239,
          "midi": 62,
          "name": "D4",
          "ticks": 40800,
          "time": 37.49996,
          "velocity": 0.6299212598425197
        },
        {
          "duration": 0.44025688333333335,
          "durationTicks": 479,
          "midi": 67,
          "name": "G4",
          "ticks": 41040,
          "time": 37.720548,
          "velocity": 0.7559055118110236
        },
        {
          "duration": 0.219668883333334,
          "durationTicks": 239,
          "midi": 62,
          "name": "D4",
          "ticks": 41520,
          "time": 38.161724,
          "velocity": 0.6299212598425197
        },
        {
          "duration": 0.219668883333334,
          "durationTicks": 239,
          "midi": 62,
          "name": "D4",
          "ticks": 41760,
          "time": 38.382312,
          "velocity": 0.6299212598425197
        },
        {
          "duration": 0.44025688333334045,
          "durationTicks": 479,
          "midi": 64,
          "name": "E4",
          "ticks": 42000,
          "time": 38.6029,
          "velocity": 0.6299212598425197
        },
        {
          "duration": 0.219668883333334,
          "durationTicks": 239,
          "midi": 62,
          "name": "D4",
          "ticks": 42480,
          "time": 39.044076000000004,
          "velocity": 0.6299212598425197
        },
        {
          "duration": 0.44025688333333335,
          "durationTicks": 479,
          "midi": 62,
          "name": "D4",
          "ticks": 42720,
          "time": 39.264664,
          "velocity": 0.6299212598425197
        },
        {
          "duration": 0.219668883333334,
          "durationTicks": 239,
          "midi": 62,
          "name": "D4",
          "ticks": 44400,
          "time": 40.80878,
          "velocity": 0.8818897637795275
        },
        {
          "duration": 0.219668883333334,
          "durationTicks": 239,
          "midi": 62,
          "name": "D4",
          "ticks": 44640,
          "time": 41.029368,
          "velocity": 0.8818897637795275
        },
        {
          "duration": 0.44025688333333335,
          "durationTicks": 479,
          "midi": 62,
          "name": "D4",
          "ticks": 44880,
          "time": 41.249956000000005,
          "velocity": 0.8818897637795275
        },
        {
          "duration": 0.219668883333334,
          "durationTicks": 239,
          "midi": 60,
          "name": "C4",
          "ticks": 45360,
          "time": 41.691132,
          "velocity": 0.8818897637795275
        },
        {
          "duration": 0.219668883333334,
          "durationTicks": 239,
          "midi": 59,
          "name": "B3",
          "ticks": 45600,
          "time": 41.91172,
          "velocity": 0.8818897637795275
        },
        {
          "duration": 0.219668883333334,
          "durationTicks": 239,
          "midi": 60,
          "name": "C4",
          "ticks": 45840,
          "time": 42.132308,
          "velocity": 0.8818897637795275
        },
        {
          "duration": 0.219668883333334,
          "durationTicks": 239,
          "midi": 59,
          "name": "B3",
          "ticks": 46080,
          "time": 42.352896,
          "velocity": 0.8818897637795275
        },
        {
          "duration": 0.219668883333334,
          "durationTicks": 239,
          "midi": 55,
          "name": "G3",
          "ticks": 46320,
          "time": 42.573484,
          "velocity": 0.8818897637795275
        },
        {
          "duration": 0.219668883333334,
          "durationTicks": 239,
          "midi": 55,
          "name": "G3",
          "ticks": 46560,
          "time": 42.794072,
          "velocity": 0.8818897637795275
        },
        {
          "duration": 0.219668883333334,
          "durationTicks": 239,
          "midi": 55,
          "name": "G3",
          "ticks": 46800,
          "time": 43.01466,
          "velocity": 0.8818897637795275
        },
        {
          "duration": 0.219668883333334,
          "durationTicks": 239,
          "midi": 60,
          "name": "C4",
          "ticks": 47040,
          "time": 43.235248,
          "velocity": 0.8818897637795275
        },
        {
          "duration": 0.219668883333334,
          "durationTicks": 239,
          "midi": 60,
          "name": "C4",
          "ticks": 47280,
          "time": 43.455836,
          "velocity": 0.8818897637795275
        },
        {
          "duration": 0.219668883333334,
          "durationTicks": 239,
          "midi": 60,
          "name": "C4",
          "ticks": 47520,
          "time": 43.676424000000004,
          "velocity": 0.8818897637795275
        },
        {
          "duration": 0.219668883333334,
          "durationTicks": 239,
          "midi": 59,
          "name": "B3",
          "ticks": 47760,
          "time": 43.897012000000004,
          "velocity": 0.8818897637795275
        },
        {
          "duration": 0.219668883333334,
          "durationTicks": 239,
          "midi": 55,
          "name": "G3",
          "ticks": 48240,
          "time": 44.338188,
          "velocity": 0.8818897637795275
        },
        {
          "duration": 1.5431968833333372,
          "durationTicks": 1679,
          "midi": 57,
          "name": "A3",
          "ticks": 48720,
          "time": 44.779364,
          "velocity": 0.8818897637795275
        },
        {
          "duration": 0.44025688333333335,
          "durationTicks": 479,
          "midi": 69,
          "name": "A4",
          "ticks": 50640,
          "time": 46.544068,
          "velocity": 0.8818897637795275
        },
        {
          "duration": 0.10937488333333079,
          "durationTicks": 119,
          "midi": 69,
          "name": "A4",
          "ticks": 51120,
          "time": 46.985244,
          "velocity": 0.8818897637795275
        },
        {
          "duration": 0.10937488333333789,
          "durationTicks": 119,
          "midi": 69,
          "name": "A4",
          "ticks": 51360,
          "time": 47.205832,
          "velocity": 0.8818897637795275
        },
        {
          "duration": 0.10937488333333789,
          "durationTicks": 119,
          "midi": 69,
          "name": "A4",
          "ticks": 51600,
          "time": 47.42642,
          "velocity": 0.8818897637795275
        },
        {
          "duration": 0.219668883333334,
          "durationTicks": 239,
          "midi": 68,
          "name": "G#4",
          "ticks": 51840,
          "time": 47.647008,
          "velocity": 1
        },
        {
          "duration": 0.219668883333334,
          "durationTicks": 239,
          "midi": 62,
          "name": "D4",
          "ticks": 53040,
          "time": 48.749948,
          "velocity": 0.8818897637795275
        },
        {
          "duration": 0.219668883333334,
          "durationTicks": 239,
          "midi": 62,
          "name": "D4",
          "ticks": 53280,
          "time": 48.970536,
          "velocity": 0.8818897637795275
        },
        {
          "duration": 0.219668883333334,
          "durationTicks": 239,
          "midi": 62,
          "name": "D4",
          "ticks": 53520,
          "time": 49.191124,
          "velocity": 0.8818897637795275
        },
        {
          "duration": 0.44025688333333335,
          "durationTicks": 479,
          "midi": 62,
          "name": "D4",
          "ticks": 53760,
          "time": 49.411712,
          "velocity": 0.8818897637795275
        },
        {
          "duration": 0.44025688333333335,
          "durationTicks": 479,
          "midi": 55,
          "name": "G3",
          "ticks": 54240,
          "time": 49.852888,
          "velocity": 0.8818897637795275
        },
        {
          "duration": 0.219668883333334,
          "durationTicks": 239,
          "midi": 54,
          "name": "F#3",
          "ticks": 54720,
          "time": 50.294064,
          "velocity": 0.8818897637795275
        },
        {
          "duration": 0.44025688333334045,
          "durationTicks": 479,
          "midi": 55,
          "name": "G3",
          "ticks": 54960,
          "time": 50.514652,
          "velocity": 0.8818897637795275
        },
        {
          "duration": 1.1020208833333314,
          "durationTicks": 1199,
          "midi": 55,
          "name": "G3",
          "ticks": 55440,
          "time": 50.955828000000004,
          "velocity": 0.8818897637795275
        },
        {
          "duration": 0.44025688333333335,
          "durationTicks": 479,
          "midi": 62,
          "name": "D4",
          "ticks": 56880,
          "time": 52.279356,
          "velocity": 0.8818897637795275
        },
        {
          "duration": 0.219668883333334,
          "durationTicks": 239,
          "midi": 62,
          "name": "D4",
          "ticks": 57360,
          "time": 52.720532,
          "velocity": 0.8818897637795275
        },
        {
          "duration": 0.44025688333334045,
          "durationTicks": 479,
          "midi": 62,
          "name": "D4",
          "ticks": 57600,
          "time": 52.94112,
          "velocity": 0.8818897637795275
        },
        {
          "duration": 0.44025688333333335,
          "durationTicks": 479,
          "midi": 55,
          "name": "G3",
          "ticks": 58080,
          "time": 53.382296000000004,
          "velocity": 0.8818897637795275
        },
        {
          "duration": 0.219668883333334,
          "durationTicks": 239,
          "midi": 53,
          "name": "F3",
          "ticks": 58560,
          "time": 53.823472,
          "velocity": 0.8818897637795275
        },
        {
          "duration": 0.219668883333334,
          "durationTicks": 239,
          "midi": 55,
          "name": "G3",
          "ticks": 58800,
          "time": 54.04406,
          "velocity": 0.8818897637795275
        },
        {
          "duration": 0.219668883333334,
          "durationTicks": 239,
          "midi": 57,
          "name": "A3",
          "ticks": 59040,
          "time": 54.264648,
          "velocity": 0.8818897637795275
        },
        {
          "duration": 1.1020208833333385,
          "durationTicks": 1199,
          "midi": 55,
          "name": "G3",
          "ticks": 59280,
          "time": 54.485236,
          "velocity": 0.8818897637795275
        },
        {
          "duration": 0.219668883333334,
          "durationTicks": 239,
          "midi": 62,
          "name": "D4",
          "ticks": 60720,
          "time": 55.808764000000004,
          "velocity": 0.8818897637795275
        },
        {
          "duration": 0.219668883333334,
          "durationTicks": 239,
          "midi": 62,
          "name": "D4",
          "ticks": 60960,
          "time": 56.029352,
          "velocity": 0.8818897637795275
        },
        {
          "duration": 0.219668883333334,
          "durationTicks": 239,
          "midi": 62,
          "name": "D4",
          "ticks": 61200,
          "time": 56.24994,
          "velocity": 0.8818897637795275
        },
        {
          "duration": 0.44025688333333335,
          "durationTicks": 479,
          "midi": 62,
          "name": "D4",
          "ticks": 61440,
          "time": 56.470528,
          "velocity": 0.8818897637795275
        },
        {
          "duration": 0.44025688333333335,
          "durationTicks": 479,
          "midi": 67,
          "name": "G4",
          "ticks": 61920,
          "time": 56.911704,
          "velocity": 0.8818897637795275
        },
        {
          "duration": 0.44025688333333335,
          "durationTicks": 479,
          "midi": 66,
          "name": "F#4",
          "ticks": 62400,
          "time": 57.35288,
          "velocity": 0.8818897637795275
        },
        {
          "duration": 0.219668883333334,
          "durationTicks": 239,
          "midi": 67,
          "name": "G4",
          "ticks": 62880,
          "time": 57.794056000000005,
          "velocity": 0.8818897637795275
        },
        {
          "duration": 1.1020208833333314,
          "durationTicks": 1199,
          "midi": 67,
          "name": "G4",
          "ticks": 63120,
          "time": 58.014644000000004,
          "velocity": 0.8818897637795275
        },
        {
          "duration": 0.44025688333333335,
          "durationTicks": 479,
          "midi": 67,
          "name": "G4",
          "ticks": 64320,
          "time": 59.117584,
          "velocity": 0.9921259842519685
        },
        {
          "duration": 0.44025688333333335,
          "durationTicks": 479,
          "midi": 64,
          "name": "E4",
          "ticks": 64800,
          "time": 59.55876,
          "velocity": 0.9921259842519685
        },
        {
          "duration": 0.44025688333333335,
          "durationTicks": 479,
          "midi": 60,
          "name": "C4",
          "ticks": 65280,
          "time": 59.999936000000005,
          "velocity": 0.9921259842519685
        },
        {
          "duration": 0.44025688333333335,
          "durationTicks": 479,
          "midi": 57,
          "name": "A3",
          "ticks": 65760,
          "time": 60.441112000000004,
          "velocity": 0.9921259842519685
        },
        {
          "duration": 0.881432883333332,
          "durationTicks": 959,
          "midi": 55,
          "name": "G3",
          "ticks": 66240,
          "time": 60.882288,
          "velocity": 0.9921259842519685
        },
        {
          "duration": 0.6608448833333327,
          "durationTicks": 719,
          "midi": 54,
          "name": "F#3",
          "ticks": 67200,
          "time": 61.76464,
          "velocity": 0.9921259842519685
        },
        {
          "duration": 0.881432883333332,
          "durationTicks": 959,
          "midi": 54,
          "name": "F#3",
          "ticks": 67920,
          "time": 62.426404000000005,
          "velocity": 0.9921259842519685
        },
        {
          "duration": 0.6608448833333327,
          "durationTicks": 719,
          "midi": 55,
          "name": "G3",
          "ticks": 68880,
          "time": 63.308756,
          "velocity": 0.9921259842519685
        },
        {
          "duration": 0.44025688333333335,
          "durationTicks": 479,
          "midi": 57,
          "name": "A3",
          "ticks": 69840,
          "time": 64.191108,
          "velocity": 0.9921259842519685
        },
        {
          "duration": 0.21966888333334111,
          "durationTicks": 239,
          "midi": 59,
          "name": "B3",
          "ticks": 70320,
          "time": 64.632284,
          "velocity": 0.9921259842519685
        },
        {
          "duration": 0.2196688833333269,
          "durationTicks": 239,
          "midi": 57,
          "name": "A3",
          "ticks": 70560,
          "time": 64.852872,
          "velocity": 0.9921259842519685
        },
        {
          "duration": 1.1020208833333385,
          "durationTicks": 1199,
          "midi": 60,
          "name": "C4",
          "ticks": 70800,
          "time": 65.07346,
          "velocity": 0.9921259842519685
        },
        {
          "duration": 0.10937488333333079,
          "durationTicks": 119,
          "midi": 55,
          "name": "G3",
          "ticks": 72000,
          "time": 66.1764,
          "velocity": 0.6299212598425197
        },
        {
          "duration": 0.109374883333345,
          "durationTicks": 119,
          "midi": 55,
          "name": "G3",
          "ticks": 72120,
          "time": 66.286694,
          "velocity": 0.6299212598425197
        },
        {
          "duration": 0.10937488333333079,
          "durationTicks": 119,
          "midi": 55,
          "name": "G3",
          "ticks": 72240,
          "time": 66.39698800000001,
          "velocity": 0.6299212598425197
        },
        {
          "duration": 0.10937488333333079,
          "durationTicks": 119,
          "midi": 55,
          "name": "G3",
          "ticks": 72360,
          "time": 66.507282,
          "velocity": 0.6299212598425197
        },
        {
          "duration": 0.10937488333333079,
          "durationTicks": 119,
          "midi": 55,
          "name": "G3",
          "ticks": 72720,
          "time": 66.838164,
          "velocity": 0.6299212598425197
        },
        {
          "duration": 0.10937488333333079,
          "durationTicks": 119,
          "midi": 55,
          "name": "G3",
          "ticks": 72840,
          "time": 66.948458,
          "velocity": 0.6299212598425197
        },
        {
          "duration": 0.10937488333333079,
          "durationTicks": 119,
          "midi": 55,
          "name": "G3",
          "ticks": 72960,
          "time": 67.058752,
          "velocity": 0.6299212598425197
        },
        {
          "duration": 0.10937488333333079,
          "durationTicks": 119,
          "midi": 55,
          "name": "G3",
          "ticks": 73080,
          "time": 67.16904600000001,
          "velocity": 0.6299212598425197
        },
        {
          "duration": 0.109374883333345,
          "durationTicks": 119,
          "midi": 55,
          "name": "G3",
          "ticks": 73440,
          "time": 67.499928,
          "velocity": 0.6299212598425197
        },
        {
          "duration": 0.10937488333333079,
          "durationTicks": 119,
          "midi": 55,
          "name": "G3",
          "ticks": 73560,
          "time": 67.61022200000001,
          "velocity": 0.6299212598425197
        },
        {
          "duration": 0.10937488333333079,
          "durationTicks": 119,
          "midi": 55,
          "name": "G3",
          "ticks": 73680,
          "time": 67.720516,
          "velocity": 0.6299212598425197
        },
        {
          "duration": 0.10937488333333079,
          "durationTicks": 119,
          "midi": 55,
          "name": "G3",
          "ticks": 73800,
          "time": 67.83081,
          "velocity": 0.6299212598425197
        },
        {
          "duration": 0.10937488333333079,
          "durationTicks": 119,
          "midi": 59,
          "name": "B3",
          "ticks": 74040,
          "time": 68.051398,
          "velocity": 0.6299212598425197
        },
        {
          "duration": 0.6608448833333398,
          "durationTicks": 719,
          "midi": 61,
          "name": "C#4",
          "ticks": 74160,
          "time": 68.161692,
          "velocity": 0.6299212598425197
        },
        {
          "duration": 0.21966888333334111,
          "durationTicks": 239,
          "midi": 59,
          "name": "B3",
          "ticks": 75120,
          "time": 69.044044,
          "velocity": 0.6299212598425197
        },
        {
          "duration": 0.10937488333333079,
          "durationTicks": 119,
          "midi": 67,
          "name": "G4",
          "ticks": 75360,
          "time": 69.264632,
          "velocity": 0.6299212598425197
        },
        {
          "duration": 0.10937488333333079,
          "durationTicks": 119,
          "midi": 66,
          "name": "F#4",
          "ticks": 75480,
          "time": 69.374926,
          "velocity": 0.6299212598425197
        },
        {
          "duration": 0.109374883333345,
          "durationTicks": 119,
          "midi": 64,
          "name": "E4",
          "ticks": 75600,
          "time": 69.48522,
          "velocity": 0.6299212598425197
        },
        {
          "duration": 0.329962883333323,
          "durationTicks": 359,
          "midi": 62,
          "name": "D4",
          "ticks": 75720,
          "time": 69.59551400000001,
          "velocity": 0.6299212598425197
        },
        {
          "duration": 0.21966888333334111,
          "durationTicks": 239,
          "midi": 64,
          "name": "E4",
          "ticks": 76080,
          "time": 69.926396,
          "velocity": 0.6299212598425197
        },
        {
          "duration": 0.04319848333332743,
          "durationTicks": 47,
          "midi": 62,
          "name": "D4",
          "ticks": 77520,
          "time": 71.24992400000001,
          "velocity": 0.6299212598425197
        },
        {
          "duration": 0.04319848333332743,
          "durationTicks": 47,
          "midi": 63,
          "name": "D#4",
          "ticks": 77568,
          "time": 71.2940416,
          "velocity": 0.6299212598425197
        },
        {
          "duration": 0.04319848333334164,
          "durationTicks": 47,
          "midi": 64,
          "name": "E4",
          "ticks": 77616,
          "time": 71.33815919999999,
          "velocity": 0.6299212598425197
        },
        {
          "duration": 0.04319848333332743,
          "durationTicks": 47,
          "midi": 65,
          "name": "F4",
          "ticks": 77664,
          "time": 71.38227680000001,
          "velocity": 0.6299212598425197
        },
        {
          "duration": 0.04319848333332743,
          "durationTicks": 47,
          "midi": 66,
          "name": "F#4",
          "ticks": 77712,
          "time": 71.4263944,
          "velocity": 0.6299212598425197
        },
        {
          "duration": 0.29411733333333245,
          "durationTicks": 320,
          "midi": 67,
          "name": "G4",
          "ticks": 77760,
          "time": 71.470512,
          "velocity": 0.7559055118110236
        },
        {
          "duration": 0.29411733333333245,
          "durationTicks": 320,
          "midi": 66,
          "name": "F#4",
          "ticks": 78240,
          "time": 71.911688,
          "velocity": 0.7559055118110236
        },
        {
          "duration": 0.32996288333333723,
          "durationTicks": 359,
          "midi": 64,
          "name": "E4",
          "ticks": 78720,
          "time": 72.352864,
          "velocity": 0.7559055118110236
        },
        {
          "duration": 0.21966888333334111,
          "durationTicks": 239,
          "midi": 62,
          "name": "D4",
          "ticks": 79080,
          "time": 72.683746,
          "velocity": 0.7559055118110236
        },
        {
          "duration": 0.32996288333333723,
          "durationTicks": 359,
          "midi": 62,
          "name": "D4",
          "ticks": 79320,
          "time": 72.904334,
          "velocity": 0.7559055118110236
        },
        {
          "duration": 0.10937488333333079,
          "durationTicks": 119,
          "midi": 55,
          "name": "G3",
          "ticks": 79680,
          "time": 73.23521600000001,
          "velocity": 0.6299212598425197
        },
        {
          "duration": 0.10937488333333079,
          "durationTicks": 119,
          "midi": 55,
          "name": "G3",
          "ticks": 79800,
          "time": 73.34551,
          "velocity": 0.6299212598425197
        },
        {
          "duration": 0.10937488333333079,
          "durationTicks": 119,
          "midi": 55,
          "name": "G3",
          "ticks": 79920,
          "time": 73.455804,
          "velocity": 0.6299212598425197
        },
        {
          "duration": 0.109374883333345,
          "durationTicks": 119,
          "midi": 55,
          "name": "G3",
          "ticks": 80040,
          "time": 73.566098,
          "velocity": 0.6299212598425197
        },
        {
          "duration": 0.10937488333333079,
          "durationTicks": 119,
          "midi": 55,
          "name": "G3",
          "ticks": 80400,
          "time": 73.89698,
          "velocity": 0.6299212598425197
        },
        {
          "duration": 0.109374883333345,
          "durationTicks": 119,
          "midi": 55,
          "name": "G3",
          "ticks": 80520,
          "time": 74.007274,
          "velocity": 0.6299212598425197
        },
        {
          "duration": 0.10937488333333079,
          "durationTicks": 119,
          "midi": 55,
          "name": "G3",
          "ticks": 80640,
          "time": 74.117568,
          "velocity": 0.6299212598425197
        },
        {
          "duration": 0.10937488333333079,
          "durationTicks": 119,
          "midi": 55,
          "name": "G3",
          "ticks": 80760,
          "time": 74.227862,
          "velocity": 0.6299212598425197
        },
        {
          "duration": 0.10937488333333079,
          "durationTicks": 119,
          "midi": 55,
          "name": "G3",
          "ticks": 81120,
          "time": 74.558744,
          "velocity": 0.6299212598425197
        },
        {
          "duration": 0.10937488333333079,
          "durationTicks": 119,
          "midi": 55,
          "name": "G3",
          "ticks": 81240,
          "time": 74.669038,
          "velocity": 0.6299212598425197
        },
        {
          "duration": 0.109374883333345,
          "durationTicks": 119,
          "midi": 55,
          "name": "G3",
          "ticks": 81360,
          "time": 74.779332,
          "velocity": 0.6299212598425197
        },
        {
          "duration": 0.10937488333333079,
          "durationTicks": 119,
          "midi": 55,
          "name": "G3",
          "ticks": 81480,
          "time": 74.889626,
          "velocity": 0.6299212598425197
        },
        {
          "duration": 0.10937488333333079,
          "durationTicks": 119,
          "midi": 59,
          "name": "B3",
          "ticks": 81720,
          "time": 75.110214,
          "velocity": 0.6299212598425197
        },
        {
          "duration": 1.1020208833333385,
          "durationTicks": 1199,
          "midi": 61,
          "name": "C#4",
          "ticks": 81840,
          "time": 75.220508,
          "velocity": 0.6299212598425197
        },
        {
          "duration": 0.881432883333332,
          "durationTicks": 959,
          "midi": 66,
          "name": "F#4",
          "ticks": 83280,
          "time": 76.544036,
          "velocity": 0.6299212598425197
        },
        {
          "duration": 0.881432883333332,
          "durationTicks": 959,
          "midi": 67,
          "name": "G4",
          "ticks": 84240,
          "time": 77.426388,
          "velocity": 0.6299212598425197
        },
        {
          "duration": 0.44025688333333335,
          "durationTicks": 479,
          "midi": 69,
          "name": "A4",
          "ticks": 85200,
          "time": 78.30874,
          "velocity": 0.6299212598425197
        },
        {
          "duration": 0.21966888333334111,
          "durationTicks": 239,
          "midi": 71,
          "name": "B4",
          "ticks": 85680,
          "time": 78.749916,
          "velocity": 0.6299212598425197
        },
        {
          "duration": 0.2196688833333269,
          "durationTicks": 239,
          "midi": 69,
          "name": "A4",
          "ticks": 85920,
          "time": 78.970504,
          "velocity": 0.6299212598425197
        },
        {
          "duration": 1.1020208833333385,
          "durationTicks": 1199,
          "midi": 72,
          "name": "C5",
          "ticks": 86160,
          "time": 79.191092,
          "velocity": 0.6299212598425197
        },
        {
          "duration": 0.2196688833333269,
          "durationTicks": 239,
          "midi": 64,
          "name": "E4",
          "ticks": 88560,
          "time": 81.396972,
          "velocity": 0.7559055118110236
        },
        {
          "duration": 0.10937488333333079,
          "durationTicks": 119,
          "midi": 62,
          "name": "D4",
          "ticks": 90480,
          "time": 83.161676,
          "velocity": 0.6299212598425197
        },
        {
          "duration": 0.109374883333345,
          "durationTicks": 119,
          "midi": 64,
          "name": "E4",
          "ticks": 90600,
          "time": 83.27197,
          "velocity": 0.6299212598425197
        },
        {
          "duration": 0.10937488333333079,
          "durationTicks": 119,
          "midi": 62,
          "name": "D4",
          "ticks": 90720,
          "time": 83.382264,
          "velocity": 0.6299212598425197
        },
        {
          "duration": 0.10937488333333079,
          "durationTicks": 119,
          "midi": 59,
          "name": "B3",
          "ticks": 90840,
          "time": 83.492558,
          "velocity": 0.6299212598425197
        },
        {
          "duration": 0.109374883333345,
          "durationTicks": 119,
          "midi": 55,
          "name": "G3",
          "ticks": 90960,
          "time": 83.602852,
          "velocity": 0.6299212598425197
        },
        {
          "duration": 0.10937488333333079,
          "durationTicks": 119,
          "midi": 54,
          "name": "F#3",
          "ticks": 91080,
          "time": 83.71314600000001,
          "velocity": 0.6299212598425197
        },
        {
          "duration": 0.10937488333333079,
          "durationTicks": 119,
          "midi": 59,
          "name": "B3",
          "ticks": 94320,
          "time": 86.691084,
          "velocity": 0.6299212598425197
        },
        {
          "duration": 0.10937488333333079,
          "durationTicks": 119,
          "midi": 60,
          "name": "C4",
          "ticks": 94440,
          "time": 86.801378,
          "velocity": 0.6299212598425197
        },
        {
          "duration": 0.109374883333345,
          "durationTicks": 119,
          "midi": 62,
          "name": "D4",
          "ticks": 94560,
          "time": 86.911672,
          "velocity": 0.6299212598425197
        },
        {
          "duration": 0.10937488333333079,
          "durationTicks": 119,
          "midi": 59,
          "name": "B3",
          "ticks": 94680,
          "time": 87.021966,
          "velocity": 0.6299212598425197
        },
        {
          "duration": 0.10937488333333079,
          "durationTicks": 119,
          "midi": 60,
          "name": "C4",
          "ticks": 94800,
          "time": 87.13226,
          "velocity": 0.6299212598425197
        },
        {
          "duration": 0.109374883333345,
          "durationTicks": 119,
          "midi": 62,
          "name": "D4",
          "ticks": 94920,
          "time": 87.242554,
          "velocity": 0.6299212598425197
        },
        {
          "duration": 0.6608448833333256,
          "durationTicks": 719,
          "midi": 71,
          "name": "B4",
          "ticks": 95040,
          "time": 87.35284800000001,
          "velocity": 0.6299212598425197
        },
        {
          "duration": 1.1020208833333385,
          "durationTicks": 1199,
          "midi": 71,
          "name": "B4",
          "ticks": 95760,
          "time": 88.014612,
          "velocity": 0.6299212598425197
        },
        {
          "duration": 0.6608448833333398,
          "durationTicks": 719,
          "midi": 71,
          "name": "B4",
          "ticks": 96960,
          "time": 89.117552,
          "velocity": 0.6299212598425197
        },
        {
          "duration": 1.1020208833333243,
          "durationTicks": 1199,
          "midi": 71,
          "name": "B4",
          "ticks": 97680,
          "time": 89.77931600000001,
          "velocity": 0.6299212598425197
        },
        {
          "duration": 1.7637848833333436,
          "durationTicks": 1919,
          "midi": 64,
          "name": "E4",
          "ticks": 98880,
          "time": 90.882256,
          "velocity": 0.6299212598425197
        },
        {
          "duration": 0.44025688333333335,
          "durationTicks": 479,
          "midi": 55,
          "name": "G3",
          "ticks": 100800,
          "time": 92.64696,
          "velocity": 0.6299212598425197
        },
        {
          "duration": 0.44025688333333335,
          "durationTicks": 479,
          "midi": 57,
          "name": "A3",
          "ticks": 101280,
          "time": 93.088136,
          "velocity": 0.6299212598425197
        },
        {
          "duration": 0.44025688333333335,
          "durationTicks": 479,
          "midi": 59,
          "name": "B3",
          "ticks": 101760,
          "time": 93.529312,
          "velocity": 0.6299212598425197
        },
        {
          "duration": 0.44025688333333335,
          "durationTicks": 479,
          "midi": 60,
          "name": "C4",
          "ticks": 102240,
          "time": 93.970488,
          "velocity": 0.6299212598425197
        },
        {
          "duration": 0.44025688333333335,
          "durationTicks": 479,
          "midi": 62,
          "name": "D4",
          "ticks": 104400,
          "time": 95.95578,
          "velocity": 0.7559055118110236
        },
        {
          "duration": 0.2196688833333269,
          "durationTicks": 239,
          "midi": 60,
          "name": "C4",
          "ticks": 104880,
          "time": 96.396956,
          "velocity": 0.6299212598425197
        },
        {
          "duration": 0.2196688833333269,
          "durationTicks": 239,
          "midi": 59,
          "name": "B3",
          "ticks": 105120,
          "time": 96.61754400000001,
          "velocity": 0.6299212598425197
        },
        {
          "duration": 0.21966888333334111,
          "durationTicks": 239,
          "midi": 60,
          "name": "C4",
          "ticks": 105360,
          "time": 96.838132,
          "velocity": 0.6299212598425197
        },
        {
          "duration": 0.2196688833333269,
          "durationTicks": 239,
          "midi": 59,
          "name": "B3",
          "ticks": 105600,
          "time": 97.05872000000001,
          "velocity": 0.6299212598425197
        },
        {
          "duration": 0.21966888333334111,
          "durationTicks": 239,
          "midi": 55,
          "name": "G3",
          "ticks": 105840,
          "time": 97.279308,
          "velocity": 0.6299212598425197
        },
        {
          "duration": 0.44025688333333335,
          "durationTicks": 479,
          "midi": 55,
          "name": "G3",
          "ticks": 106080,
          "time": 97.499896,
          "velocity": 0.6299212598425197
        },
        {
          "duration": 0.2196688833333269,
          "durationTicks": 239,
          "midi": 62,
          "name": "D4",
          "ticks": 107760,
          "time": 99.04401200000001,
          "velocity": 0.6299212598425197
        },
        {
          "duration": 0.21966888333334111,
          "durationTicks": 239,
          "midi": 62,
          "name": "D4",
          "ticks": 108000,
          "time": 99.2646,
          "velocity": 0.6299212598425197
        },
        {
          "duration": 0.44025688333333335,
          "durationTicks": 479,
          "midi": 67,
          "name": "G4",
          "ticks": 108240,
          "time": 99.48518800000001,
          "velocity": 0.7559055118110236
        },
        {
          "duration": 0.2196688833333269,
          "durationTicks": 239,
          "midi": 62,
          "name": "D4",
          "ticks": 108720,
          "time": 99.926364,
          "velocity": 0.6299212598425197
        },
        {
          "duration": 0.21966888333334111,
          "durationTicks": 239,
          "midi": 62,
          "name": "D4",
          "ticks": 108960,
          "time": 100.146952,
          "velocity": 0.6299212598425197
        },
        {
          "duration": 0.44025688333333335,
          "durationTicks": 479,
          "midi": 64,
          "name": "E4",
          "ticks": 109200,
          "time": 100.36754,
          "velocity": 0.6299212598425197
        },
        {
          "duration": 0.2196688833333269,
          "durationTicks": 239,
          "midi": 62,
          "name": "D4",
          "ticks": 109680,
          "time": 100.808716,
          "velocity": 0.6299212598425197
        },
        {
          "duration": 0.44025688333334756,
          "durationTicks": 479,
          "midi": 62,
          "name": "D4",
          "ticks": 109920,
          "time": 101.029304,
          "velocity": 0.6299212598425197
        },
        {
          "duration": 0.21966888333334111,
          "durationTicks": 239,
          "midi": 62,
          "name": "D4",
          "ticks": 111600,
          "time": 102.57342,
          "velocity": 0.8818897637795275
        },
        {
          "duration": 0.2196688833333269,
          "durationTicks": 239,
          "midi": 62,
          "name": "D4",
          "ticks": 111840,
          "time": 102.794008,
          "velocity": 0.8818897637795275
        },
        {
          "duration": 0.44025688333333335,
          "durationTicks": 479,
          "midi": 62,
          "name": "D4",
          "ticks": 112080,
          "time": 103.014596,
          "velocity": 0.8818897637795275
        },
        {
          "duration": 0.21966888333334111,
          "durationTicks": 239,
          "midi": 60,
          "name": "C4",
          "ticks": 112560,
          "time": 103.455772,
          "velocity": 0.8818897637795275
        },
        {
          "duration": 0.21966888333334111,
          "durationTicks": 239,
          "midi": 59,
          "name": "B3",
          "ticks": 112800,
          "time": 103.67636,
          "velocity": 0.8818897637795275
        },
        {
          "duration": 0.2196688833333269,
          "durationTicks": 239,
          "midi": 60,
          "name": "C4",
          "ticks": 113040,
          "time": 103.89694800000001,
          "velocity": 0.8818897637795275
        },
        {
          "duration": 0.21966888333334111,
          "durationTicks": 239,
          "midi": 59,
          "name": "B3",
          "ticks": 113280,
          "time": 104.117536,
          "velocity": 0.8818897637795275
        },
        {
          "duration": 0.2196688833333269,
          "durationTicks": 239,
          "midi": 55,
          "name": "G3",
          "ticks": 113520,
          "time": 104.33812400000001,
          "velocity": 0.8818897637795275
        },
        {
          "duration": 0.21966888333334111,
          "durationTicks": 239,
          "midi": 55,
          "name": "G3",
          "ticks": 113760,
          "time": 104.558712,
          "velocity": 0.8818897637795275
        },
        {
          "duration": 0.2196688833333269,
          "durationTicks": 239,
          "midi": 55,
          "name": "G3",
          "ticks": 114000,
          "time": 104.7793,
          "velocity": 0.8818897637795275
        },
        {
          "duration": 0.21966888333334111,
          "durationTicks": 239,
          "midi": 60,
          "name": "C4",
          "ticks": 114240,
          "time": 104.999888,
          "velocity": 0.8818897637795275
        },
        {
          "duration": 0.2196688833333269,
          "durationTicks": 239,
          "midi": 60,
          "name": "C4",
          "ticks": 114480,
          "time": 105.220476,
          "velocity": 0.8818897637795275
        },
        {
          "duration": 0.21966888333334111,
          "durationTicks": 239,
          "midi": 60,
          "name": "C4",
          "ticks": 114720,
          "time": 105.441064,
          "velocity": 0.8818897637795275
        },
        {
          "duration": 0.2196688833333269,
          "durationTicks": 239,
          "midi": 59,
          "name": "B3",
          "ticks": 114960,
          "time": 105.661652,
          "velocity": 0.8818897637795275
        },
        {
          "duration": 0.21966888333334111,
          "durationTicks": 239,
          "midi": 55,
          "name": "G3",
          "ticks": 115440,
          "time": 106.102828,
          "velocity": 0.8818897637795275
        },
        {
          "duration": 1.5431968833333372,
          "durationTicks": 1679,
          "midi": 57,
          "name": "A3",
          "ticks": 115920,
          "time": 106.544004,
          "velocity": 0.8818897637795275
        },
        {
          "duration": 0.44025688333333335,
          "durationTicks": 479,
          "midi": 69,
          "name": "A4",
          "ticks": 117840,
          "time": 108.30870800000001,
          "velocity": 0.8818897637795275
        },
        {
          "duration": 0.10937488333333079,
          "durationTicks": 119,
          "midi": 69,
          "name": "A4",
          "ticks": 118320,
          "time": 108.74988400000001,
          "velocity": 0.8818897637795275
        },
        {
          "duration": 0.10937488333333079,
          "durationTicks": 119,
          "midi": 69,
          "name": "A4",
          "ticks": 118560,
          "time": 108.970472,
          "velocity": 0.8818897637795275
        },
        {
          "duration": 0.10937488333333079,
          "durationTicks": 119,
          "midi": 69,
          "name": "A4",
          "ticks": 118800,
          "time": 109.19106000000001,
          "velocity": 0.8818897637795275
        },
        {
          "duration": 0.21966888333334111,
          "durationTicks": 239,
          "midi": 68,
          "name": "G#4",
          "ticks": 119040,
          "time": 109.411648,
          "velocity": 0.8818897637795275
        },
        {
          "duration": 0.2196688833333269,
          "durationTicks": 239,
          "midi": 62,
          "name": "D4",
          "ticks": 120240,
          "time": 110.514588,
          "velocity": 0.8818897637795275
        },
        {
          "duration": 0.2196688833333269,
          "durationTicks": 239,
          "midi": 62,
          "name": "D4",
          "ticks": 120480,
          "time": 110.73517600000001,
          "velocity": 0.8818897637795275
        },
        {
          "duration": 0.21966888333334111,
          "durationTicks": 239,
          "midi": 62,
          "name": "D4",
          "ticks": 120720,
          "time": 110.955764,
          "velocity": 0.8818897637795275
        },
        {
          "duration": 0.44025688333333335,
          "durationTicks": 479,
          "midi": 62,
          "name": "D4",
          "ticks": 120960,
          "time": 111.17635200000001,
          "velocity": 0.8818897637795275
        },
        {
          "duration": 0.44025688333333335,
          "durationTicks": 479,
          "midi": 55,
          "name": "G3",
          "ticks": 121440,
          "time": 111.61752800000001,
          "velocity": 0.8818897637795275
        },
        {
          "duration": 0.2196688833333269,
          "durationTicks": 239,
          "midi": 54,
          "name": "F#3",
          "ticks": 121920,
          "time": 112.058704,
          "velocity": 0.8818897637795275
        },
        {
          "duration": 0.44025688333333335,
          "durationTicks": 479,
          "midi": 55,
          "name": "G3",
          "ticks": 122160,
          "time": 112.279292,
          "velocity": 0.8818897637795275
        },
        {
          "duration": 1.1020208833333243,
          "durationTicks": 1199,
          "midi": 55,
          "name": "G3",
          "ticks": 122640,
          "time": 112.720468,
          "velocity": 0.8818897637795275
        },
        {
          "duration": 0.44025688333331914,
          "durationTicks": 479,
          "midi": 62,
          "name": "D4",
          "ticks": 124080,
          "time": 114.043996,
          "velocity": 0.8818897637795275
        },
        {
          "duration": 0.2196688833333127,
          "durationTicks": 239,
          "midi": 62,
          "name": "D4",
          "ticks": 124560,
          "time": 114.485172,
          "velocity": 0.8818897637795275
        },
        {
          "duration": 0.44025688333333335,
          "durationTicks": 479,
          "midi": 62,
          "name": "D4",
          "ticks": 124800,
          "time": 114.70576,
          "velocity": 0.8818897637795275
        },
        {
          "duration": 0.44025688333333335,
          "durationTicks": 479,
          "midi": 55,
          "name": "G3",
          "ticks": 125280,
          "time": 115.146936,
          "velocity": 0.8818897637795275
        },
        {
          "duration": 0.2196688833333127,
          "durationTicks": 239,
          "midi": 53,
          "name": "F3",
          "ticks": 125760,
          "time": 115.58811200000001,
          "velocity": 0.8818897637795275
        },
        {
          "duration": 0.2196688833333269,
          "durationTicks": 239,
          "midi": 55,
          "name": "G3",
          "ticks": 126000,
          "time": 115.8087,
          "velocity": 0.8818897637795275
        },
        {
          "duration": 0.2196688833333127,
          "durationTicks": 239,
          "midi": 57,
          "name": "A3",
          "ticks": 126240,
          "time": 116.02928800000001,
          "velocity": 0.8818897637795275
        },
        {
          "duration": 1.1020208833333243,
          "durationTicks": 1199,
          "midi": 55,
          "name": "G3",
          "ticks": 126480,
          "time": 116.249876,
          "velocity": 0.8818897637795275
        },
        {
          "duration": 0.2196688833333269,
          "durationTicks": 239,
          "midi": 62,
          "name": "D4",
          "ticks": 127920,
          "time": 117.573404,
          "velocity": 0.8818897637795275
        },
        {
          "duration": 0.2196688833333269,
          "durationTicks": 239,
          "midi": 62,
          "name": "D4",
          "ticks": 128160,
          "time": 117.793992,
          "velocity": 0.8818897637795275
        },
        {
          "duration": 0.2196688833333127,
          "durationTicks": 239,
          "midi": 62,
          "name": "D4",
          "ticks": 128400,
          "time": 118.01458000000001,
          "velocity": 0.8818897637795275
        },
        {
          "duration": 0.44025688333331914,
          "durationTicks": 479,
          "midi": 62,
          "name": "D4",
          "ticks": 128640,
          "time": 118.235168,
          "velocity": 0.8818897637795275
        },
        {
          "duration": 0.44025688333331914,
          "durationTicks": 479,
          "midi": 67,
          "name": "G4",
          "ticks": 129120,
          "time": 118.676344,
          "velocity": 0.8818897637795275
        },
        {
          "duration": 0.44025688333331914,
          "durationTicks": 479,
          "midi": 66,
          "name": "F#4",
          "ticks": 129600,
          "time": 119.11752,
          "velocity": 0.8818897637795275
        },
        {
          "duration": 0.2196688833333269,
          "durationTicks": 239,
          "midi": 67,
          "name": "G4",
          "ticks": 130080,
          "time": 119.558696,
          "velocity": 0.8818897637795275
        },
        {
          "duration": 1.1020208833333243,
          "durationTicks": 1199,
          "midi": 67,
          "name": "G4",
          "ticks": 130320,
          "time": 119.779284,
          "velocity": 0.8818897637795275
        },
        {
          "duration": 0.44025688333331914,
          "durationTicks": 479,
          "midi": 67,
          "name": "G4",
          "ticks": 131520,
          "time": 120.88222400000001,
          "velocity": 0.8818897637795275
        },
        {
          "duration": 0.44025688333331914,
          "durationTicks": 479,
          "midi": 64,
          "name": "E4",
          "ticks": 132000,
          "time": 121.3234,
          "velocity": 0.8818897637795275
        },
        {
          "duration": 0.44025688333331914,
          "durationTicks": 479,
          "midi": 60,
          "name": "C4",
          "ticks": 132480,
          "time": 121.764576,
          "velocity": 0.8818897637795275
        },
        {
          "duration": 0.44025688333331914,
          "durationTicks": 479,
          "midi": 57,
          "name": "A3",
          "ticks": 132960,
          "time": 122.205752,
          "velocity": 0.8818897637795275
        },
        {
          "duration": 0.8814328833333178,
          "durationTicks": 959,
          "midi": 55,
          "name": "G3",
          "ticks": 133440,
          "time": 122.646928,
          "velocity": 0.8818897637795275
        },
        {
          "duration": 0.6608448833333256,
          "durationTicks": 719,
          "midi": 54,
          "name": "F#3",
          "ticks": 134400,
          "time": 123.52928,
          "velocity": 0.8818897637795275
        },
        {
          "duration": 0.2196688833333269,
          "durationTicks": 239,
          "midi": 55,
          "name": "G3",
          "ticks": 135120,
          "time": 124.191044,
          "velocity": 0.8818897637795275
        },
        {
          "duration": 0.10937488333331657,
          "durationTicks": 119,
          "midi": 57,
          "name": "A3",
          "ticks": 135600,
          "time": 124.63222,
          "velocity": 0.8818897637795275
        },
        {
          "duration": 0.10937488333333079,
          "durationTicks": 119,
          "midi": 58,
          "name": "A#3",
          "ticks": 135720,
          "time": 124.742514,
          "velocity": 0.8818897637795275
        },
        {
          "duration": 0.10937488333331657,
          "durationTicks": 119,
          "midi": 59,
          "name": "B3",
          "ticks": 135840,
          "time": 124.85280800000001,
          "velocity": 0.8818897637795275
        },
        {
          "duration": 0.10937488333331657,
          "durationTicks": 119,
          "midi": 62,
          "name": "D4",
          "ticks": 135960,
          "time": 124.963102,
          "velocity": 0.8818897637795275
        },
        {
          "duration": 0.10937488333331657,
          "durationTicks": 119,
          "midi": 57,
          "name": "A3",
          "ticks": 136320,
          "time": 125.29398400000001,
          "velocity": 0.8818897637795275
        },
        {
          "duration": 0.10937488333331657,
          "durationTicks": 119,
          "midi": 58,
          "name": "A#3",
          "ticks": 136440,
          "time": 125.404278,
          "velocity": 0.8818897637795275
        },
        {
          "duration": 0.10937488333333079,
          "durationTicks": 119,
          "midi": 59,
          "name": "B3",
          "ticks": 136560,
          "time": 125.514572,
          "velocity": 0.8818897637795275
        },
        {
          "duration": 0.10937488333333079,
          "durationTicks": 119,
          "midi": 62,
          "name": "D4",
          "ticks": 136680,
          "time": 125.624866,
          "velocity": 0.8818897637795275
        },
        {
          "duration": 0.10937488333333079,
          "durationTicks": 119,
          "midi": 64,
          "name": "E4",
          "ticks": 137040,
          "time": 125.955748,
          "velocity": 0.8818897637795275
        },
        {
          "duration": 0.10937488333331657,
          "durationTicks": 119,
          "midi": 64,
          "name": "E4",
          "ticks": 137160,
          "time": 126.06604200000001,
          "velocity": 0.8818897637795275
        },
        {
          "duration": 0.10937488333333079,
          "durationTicks": 119,
          "midi": 57,
          "name": "A3",
          "ticks": 137520,
          "time": 126.396924,
          "velocity": 0.8818897637795275
        },
        {
          "duration": 0.10937488333331657,
          "durationTicks": 119,
          "midi": 58,
          "name": "A#3",
          "ticks": 137640,
          "time": 126.50721800000001,
          "velocity": 0.8818897637795275
        },
        {
          "duration": 0.10937488333331657,
          "durationTicks": 119,
          "midi": 59,
          "name": "B3",
          "ticks": 137760,
          "time": 126.617512,
          "velocity": 0.8818897637795275
        },
        {
          "duration": 0.10937488333333079,
          "durationTicks": 119,
          "midi": 62,
          "name": "D4",
          "ticks": 137880,
          "time": 126.727806,
          "velocity": 0.8818897637795275
        },
        {
          "duration": 0.44025688333331914,
          "durationTicks": 479,
          "midi": 55,
          "name": "G3",
          "ticks": 138240,
          "time": 127.058688,
          "velocity": 0.8818897637795275
        },
        {
          "duration": 0.329962883333323,
          "durationTicks": 359,
          "midi": 57,
          "name": "A3",
          "ticks": 138720,
          "time": 127.499864,
          "velocity": 0.8818897637795275
        },
        {
          "duration": 0.10937488333331657,
          "durationTicks": 119,
          "midi": 52,
          "name": "E3",
          "ticks": 139080,
          "time": 127.830746,
          "velocity": 0.8818897637795275
        },
        {
          "duration": 0.10937488333331657,
          "durationTicks": 119,
          "midi": 57,
          "name": "A3",
          "ticks": 139440,
          "time": 128.161628,
          "velocity": 0.8818897637795275
        },
        {
          "duration": 0.10937488333331657,
          "durationTicks": 119,
          "midi": 58,
          "name": "A#3",
          "ticks": 139560,
          "time": 128.27192200000002,
          "velocity": 0.8818897637795275
        },
        {
          "duration": 0.10937488333331657,
          "durationTicks": 119,
          "midi": 59,
          "name": "B3",
          "ticks": 139680,
          "time": 128.382216,
          "velocity": 0.8818897637795275
        },
        {
          "duration": 0.10937488333331657,
          "durationTicks": 119,
          "midi": 62,
          "name": "D4",
          "ticks": 139800,
          "time": 128.49251,
          "velocity": 0.8818897637795275
        },
        {
          "duration": 0.10937488333331657,
          "durationTicks": 119,
          "midi": 57,
          "name": "A3",
          "ticks": 140160,
          "time": 128.823392,
          "velocity": 0.8818897637795275
        },
        {
          "duration": 0.109374883333345,
          "durationTicks": 119,
          "midi": 58,
          "name": "A#3",
          "ticks": 140280,
          "time": 128.933686,
          "velocity": 0.8818897637795275
        },
        {
          "duration": 0.10937488333331657,
          "durationTicks": 119,
          "midi": 59,
          "name": "B3",
          "ticks": 140400,
          "time": 129.04398,
          "velocity": 0.8818897637795275
        },
        {
          "duration": 0.10937488333331657,
          "durationTicks": 119,
          "midi": 62,
          "name": "D4",
          "ticks": 140520,
          "time": 129.15427400000002,
          "velocity": 0.8818897637795275
        },
        {
          "duration": 0.10937488333331657,
          "durationTicks": 119,
          "midi": 64,
          "name": "E4",
          "ticks": 140880,
          "time": 129.48515600000002,
          "velocity": 0.8818897637795275
        },
        {
          "duration": 0.10937488333331657,
          "durationTicks": 119,
          "midi": 64,
          "name": "E4",
          "ticks": 141000,
          "time": 129.59545,
          "velocity": 0.8818897637795275
        },
        {
          "duration": 0.10937488333331657,
          "durationTicks": 119,
          "midi": 59,
          "name": "B3",
          "ticks": 141360,
          "time": 129.926332,
          "velocity": 0.8818897637795275
        },
        {
          "duration": 0.10937488333331657,
          "durationTicks": 119,
          "midi": 57,
          "name": "A3",
          "ticks": 141480,
          "time": 130.036626,
          "velocity": 0.8818897637795275
        },
        {
          "duration": 0.109374883333345,
          "durationTicks": 119,
          "midi": 55,
          "name": "G3",
          "ticks": 141600,
          "time": 130.14692,
          "velocity": 0.8818897637795275
        },
        {
          "duration": 0.10937488333331657,
          "durationTicks": 119,
          "midi": 52,
          "name": "E3",
          "ticks": 141720,
          "time": 130.257214,
          "velocity": 0.8818897637795275
        },
        {
          "duration": 0.44025688333331914,
          "durationTicks": 479,
          "midi": 55,
          "name": "G3",
          "ticks": 142080,
          "time": 130.588096,
          "velocity": 0.8818897637795275
        },
        {
          "duration": 0.32996288333333723,
          "durationTicks": 359,
          "midi": 57,
          "name": "A3",
          "ticks": 142560,
          "time": 131.029272,
          "velocity": 0.8818897637795275
        },
        {
          "duration": 0.109374883333345,
          "durationTicks": 119,
          "midi": 52,
          "name": "E3",
          "ticks": 142920,
          "time": 131.360154,
          "velocity": 0.8818897637795275
        },
        {
          "duration": 0.10937488333331657,
          "durationTicks": 119,
          "midi": 57,
          "name": "A3",
          "ticks": 143280,
          "time": 131.691036,
          "velocity": 0.8818897637795275
        },
        {
          "duration": 0.10937488333331657,
          "durationTicks": 119,
          "midi": 58,
          "name": "A#3",
          "ticks": 143400,
          "time": 131.80133,
          "velocity": 0.8818897637795275
        },
        {
          "duration": 0.10937488333331657,
          "durationTicks": 119,
          "midi": 59,
          "name": "B3",
          "ticks": 143520,
          "time": 131.91162400000002,
          "velocity": 0.8818897637795275
        },
        {
          "duration": 0.10937488333331657,
          "durationTicks": 119,
          "midi": 62,
          "name": "D4",
          "ticks": 143640,
          "time": 132.021918,
          "velocity": 0.8818897637795275
        },
        {
          "duration": 0.10937488333331657,
          "durationTicks": 119,
          "midi": 57,
          "name": "A3",
          "ticks": 144000,
          "time": 132.3528,
          "velocity": 0.8818897637795275
        },
        {
          "duration": 0.10937488333331657,
          "durationTicks": 119,
          "midi": 58,
          "name": "A#3",
          "ticks": 144120,
          "time": 132.463094,
          "velocity": 0.8818897637795275
        },
        {
          "duration": 0.109374883333345,
          "durationTicks": 119,
          "midi": 59,
          "name": "B3",
          "ticks": 144240,
          "time": 132.573388,
          "velocity": 0.8818897637795275
        },
        {
          "duration": 0.10937488333331657,
          "durationTicks": 119,
          "midi": 62,
          "name": "D4",
          "ticks": 144360,
          "time": 132.683682,
          "velocity": 0.8818897637795275
        },
        {
          "duration": 0.10937488333331657,
          "durationTicks": 119,
          "midi": 64,
          "name": "E4",
          "ticks": 144720,
          "time": 133.014564,
          "velocity": 0.8818897637795275
        },
        {
          "duration": 0.10937488333331657,
          "durationTicks": 119,
          "midi": 64,
          "name": "E4",
          "ticks": 144840,
          "time": 133.12485800000002,
          "velocity": 0.8818897637795275
        },
        {
          "duration": 0.109374883333345,
          "durationTicks": 119,
          "midi": 57,
          "name": "A3",
          "ticks": 145200,
          "time": 133.45574,
          "velocity": 0.8818897637795275
        },
        {
          "duration": 0.10937488333331657,
          "durationTicks": 119,
          "midi": 58,
          "name": "A#3",
          "ticks": 145320,
          "time": 133.566034,
          "velocity": 0.8818897637795275
        },
        {
          "duration": 0.10937488333331657,
          "durationTicks": 119,
          "midi": 59,
          "name": "B3",
          "ticks": 145440,
          "time": 133.676328,
          "velocity": 0.8818897637795275
        },
        {
          "duration": 0.109374883333345,
          "durationTicks": 119,
          "midi": 62,
          "name": "D4",
          "ticks": 145560,
          "time": 133.786622,
          "velocity": 0.8818897637795275
        },
        {
          "duration": 0.44025688333331914,
          "durationTicks": 479,
          "midi": 55,
          "name": "G3",
          "ticks": 145920,
          "time": 134.117504,
          "velocity": 0.8818897637795275
        },
        {
          "duration": 0.3299628833333088,
          "durationTicks": 359,
          "midi": 57,
          "name": "A3",
          "ticks": 146400,
          "time": 134.55868,
          "velocity": 0.8818897637795275
        },
        {
          "duration": 0.10937488333331657,
          "durationTicks": 119,
          "midi": 52,
          "name": "E3",
          "ticks": 146760,
          "time": 134.889562,
          "velocity": 0.8818897637795275
        },
        {
          "duration": 0.10937488333331657,
          "durationTicks": 119,
          "midi": 57,
          "name": "A3",
          "ticks": 147120,
          "time": 135.22044400000001,
          "velocity": 0.8818897637795275
        },
        {
          "duration": 0.10937488333331657,
          "durationTicks": 119,
          "midi": 58,
          "name": "A#3",
          "ticks": 147240,
          "time": 135.330738,
          "velocity": 0.8818897637795275
        },
        {
          "duration": 0.10937488333331657,
          "durationTicks": 119,
          "midi": 59,
          "name": "B3",
          "ticks": 147360,
          "time": 135.441032,
          "velocity": 0.8818897637795275
        },
        {
          "duration": 0.10937488333331657,
          "durationTicks": 119,
          "midi": 62,
          "name": "D4",
          "ticks": 147480,
          "time": 135.55132600000002,
          "velocity": 0.8818897637795275
        },
        {
          "duration": 0.109374883333345,
          "durationTicks": 119,
          "midi": 57,
          "name": "A3",
          "ticks": 147840,
          "time": 135.882208,
          "velocity": 0.8818897637795275
        },
        {
          "duration": 0.10937488333331657,
          "durationTicks": 119,
          "midi": 58,
          "name": "A#3",
          "ticks": 147960,
          "time": 135.992502,
          "velocity": 0.8818897637795275
        },
        {
          "duration": 0.10937488333331657,
          "durationTicks": 119,
          "midi": 59,
          "name": "B3",
          "ticks": 148080,
          "time": 136.102796,
          "velocity": 0.8818897637795275
        },
        {
          "duration": 0.109374883333345,
          "durationTicks": 119,
          "midi": 62,
          "name": "D4",
          "ticks": 148200,
          "time": 136.21309,
          "velocity": 0.8818897637795275
        },
        {
          "duration": 0.10937488333331657,
          "durationTicks": 119,
          "midi": 64,
          "name": "E4",
          "ticks": 148560,
          "time": 136.543972,
          "velocity": 0.8818897637795275
        },
        {
          "duration": 0.10937488333331657,
          "durationTicks": 119,
          "midi": 64,
          "name": "E4",
          "ticks": 148680,
          "time": 136.654266,
          "velocity": 0.8818897637795275
        },
        {
          "duration": 0.10937488333331657,
          "durationTicks": 119,
          "midi": 59,
          "name": "B3",
          "ticks": 149040,
          "time": 136.985148,
          "velocity": 0.8818897637795275
        },
        {
          "duration": 0.109374883333345,
          "durationTicks": 119,
          "midi": 57,
          "name": "A3",
          "ticks": 149160,
          "time": 137.095442,
          "velocity": 0.8818897637795275
        },
        {
          "duration": 0.10937488333331657,
          "durationTicks": 119,
          "midi": 55,
          "name": "G3",
          "ticks": 149280,
          "time": 137.205736,
          "velocity": 0.8818897637795275
        },
        {
          "duration": 0.10937488333331657,
          "durationTicks": 119,
          "midi": 52,
          "name": "E3",
          "ticks": 149400,
          "time": 137.31603,
          "velocity": 0.8818897637795275
        },
        {
          "duration": 0.44025688333331914,
          "durationTicks": 479,
          "midi": 55,
          "name": "G3",
          "ticks": 149760,
          "time": 137.64691200000001,
          "velocity": 0.8818897637795275
        },
        {
          "duration": 0.32996288333333723,
          "durationTicks": 359,
          "midi": 57,
          "name": "A3",
          "ticks": 150240,
          "time": 138.088088,
          "velocity": 0.8818897637795275
        },
        {
          "duration": 0.10937488333331657,
          "durationTicks": 119,
          "midi": 52,
          "name": "E3",
          "ticks": 150600,
          "time": 138.41897,
          "velocity": 0.8818897637795275
        },
        {
          "duration": 0.029411733333319035,
          "durationTicks": 32,
          "midi": 52,
          "name": "E3",
          "ticks": 151440,
          "time": 139.19102800000002,
          "velocity": 0.8818897637795275
        },
        {
          "duration": 0.029411733333347456,
          "durationTicks": 32,
          "midi": 53,
          "name": "F3",
          "ticks": 151473,
          "time": 139.22135885,
          "velocity": 0.8818897637795275
        },
        {
          "duration": 0.029411733333319035,
          "durationTicks": 32,
          "midi": 54,
          "name": "F#3",
          "ticks": 151507,
          "time": 139.25260881666668,
          "velocity": 0.8818897637795275
        },
        {
          "duration": 0.029411733333319035,
          "durationTicks": 32,
          "midi": 55,
          "name": "G3",
          "ticks": 151542,
          "time": 139.2847779,
          "velocity": 0.8818897637795275
        },
        {
          "duration": 0.029411733333319035,
          "durationTicks": 32,
          "midi": 56,
          "name": "G#3",
          "ticks": 151575,
          "time": 139.31510875,
          "velocity": 0.8818897637795275
        },
        {
          "duration": 0.029411733333347456,
          "durationTicks": 32,
          "midi": 57,
          "name": "A3",
          "ticks": 151609,
          "time": 139.34635871666666,
          "velocity": 0.8818897637795275
        },
        {
          "duration": 0.03216908333331503,
          "durationTicks": 35,
          "midi": 58,
          "name": "A#3",
          "ticks": 151644,
          "time": 139.3785278,
          "velocity": 0.8818897637795275
        },
        {
          "duration": 0.10937488333331657,
          "durationTicks": 119,
          "midi": 59,
          "name": "B3",
          "ticks": 151680,
          "time": 139.411616,
          "velocity": 0.8818897637795275
        },
        {
          "duration": 0.10937488333331657,
          "durationTicks": 119,
          "midi": 57,
          "name": "A3",
          "ticks": 151920,
          "time": 139.632204,
          "velocity": 0.8818897637795275
        },
        {
          "duration": 0.109374883333345,
          "durationTicks": 119,
          "midi": 55,
          "name": "G3",
          "ticks": 152160,
          "time": 139.852792,
          "velocity": 0.8818897637795275
        },
        {
          "duration": 0.2196688833333269,
          "durationTicks": 239,
          "midi": 52,
          "name": "E3",
          "ticks": 152280,
          "time": 139.963086,
          "velocity": 0.8818897637795275
        },
        {
          "duration": 0.2196688833333269,
          "durationTicks": 239,
          "midi": 62,
          "name": "D4",
          "ticks": 154800,
          "time": 142.27926,
          "velocity": 0.6299212598425197
        },
        {
          "duration": 0.21966888333329848,
          "durationTicks": 239,
          "midi": 62,
          "name": "D4",
          "ticks": 155040,
          "time": 142.49984800000001,
          "velocity": 0.6299212598425197
        },
        {
          "duration": 0.2196688833333269,
          "durationTicks": 239,
          "midi": 62,
          "name": "D4",
          "ticks": 155280,
          "time": 142.720436,
          "velocity": 0.6299212598425197
        },
        {
          "duration": 0.44025688333331914,
          "durationTicks": 479,
          "midi": 62,
          "name": "D4",
          "ticks": 155520,
          "time": 142.941024,
          "velocity": 0.6299212598425197
        },
        {
          "duration": 0.44025688333331914,
          "durationTicks": 479,
          "midi": 55,
          "name": "G3",
          "ticks": 156000,
          "time": 143.3822,
          "velocity": 0.6299212598425197
        },
        {
          "duration": 0.2196688833333269,
          "durationTicks": 239,
          "midi": 54,
          "name": "F#3",
          "ticks": 156480,
          "time": 143.823376,
          "velocity": 0.6299212598425197
        },
        {
          "duration": 0.44025688333331914,
          "durationTicks": 479,
          "midi": 55,
          "name": "G3",
          "ticks": 156720,
          "time": 144.04396400000002,
          "velocity": 0.6299212598425197
        },
        {
          "duration": 1.1020208833333243,
          "durationTicks": 1199,
          "midi": 55,
          "name": "G3",
          "ticks": 157200,
          "time": 144.48514,
          "velocity": 0.6299212598425197
        },
        {
          "duration": 0.44025688333331914,
          "durationTicks": 479,
          "midi": 62,
          "name": "D4",
          "ticks": 158640,
          "time": 145.808668,
          "velocity": 0.6299212598425197
        },
        {
          "duration": 0.2196688833333269,
          "durationTicks": 239,
          "midi": 62,
          "name": "D4",
          "ticks": 159120,
          "time": 146.249844,
          "velocity": 0.6299212598425197
        },
        {
          "duration": 0.44025688333331914,
          "durationTicks": 479,
          "midi": 62,
          "name": "D4",
          "ticks": 159360,
          "time": 146.47043200000002,
          "velocity": 0.6299212598425197
        },
        {
          "duration": 0.44025688333331914,
          "durationTicks": 479,
          "midi": 55,
          "name": "G3",
          "ticks": 159840,
          "time": 146.911608,
          "velocity": 0.6299212598425197
        },
        {
          "duration": 0.21966888333329848,
          "durationTicks": 239,
          "midi": 53,
          "name": "F3",
          "ticks": 160320,
          "time": 147.352784,
          "velocity": 0.6299212598425197
        },
        {
          "duration": 0.2196688833333269,
          "durationTicks": 239,
          "midi": 55,
          "name": "G3",
          "ticks": 160560,
          "time": 147.573372,
          "velocity": 0.6299212598425197
        },
        {
          "duration": 0.2196688833333269,
          "durationTicks": 239,
          "midi": 57,
          "name": "A3",
          "ticks": 160800,
          "time": 147.79396,
          "velocity": 0.6299212598425197
        },
        {
          "duration": 1.1020208833333243,
          "durationTicks": 1199,
          "midi": 55,
          "name": "G3",
          "ticks": 161040,
          "time": 148.014548,
          "velocity": 0.6299212598425197
        },
        {
          "duration": 0.2196688833333269,
          "durationTicks": 239,
          "midi": 62,
          "name": "D4",
          "ticks": 162480,
          "time": 149.338076,
          "velocity": 0.6299212598425197
        },
        {
          "duration": 0.2196688833333269,
          "durationTicks": 239,
          "midi": 62,
          "name": "D4",
          "ticks": 162720,
          "time": 149.558664,
          "velocity": 0.6299212598425197
        },
        {
          "duration": 0.21966888333329848,
          "durationTicks": 239,
          "midi": 62,
          "name": "D4",
          "ticks": 162960,
          "time": 149.779252,
          "velocity": 0.6299212598425197
        },
        {
          "duration": 0.44025688333331914,
          "durationTicks": 479,
          "midi": 62,
          "name": "D4",
          "ticks": 163200,
          "time": 149.99984,
          "velocity": 0.6299212598425197
        },
        {
          "duration": 0.44025688333334756,
          "durationTicks": 479,
          "midi": 67,
          "name": "G4",
          "ticks": 163680,
          "time": 150.441016,
          "velocity": 0.6299212598425197
        },
        {
          "duration": 0.44025688333331914,
          "durationTicks": 479,
          "midi": 66,
          "name": "F#4",
          "ticks": 164160,
          "time": 150.882192,
          "velocity": 0.6299212598425197
        },
        {
          "duration": 0.21966888333329848,
          "durationTicks": 239,
          "midi": 67,
          "name": "G4",
          "ticks": 164640,
          "time": 151.32336800000002,
          "velocity": 0.6299212598425197
        },
        {
          "duration": 1.1020208833333243,
          "durationTicks": 1199,
          "midi": 67,
          "name": "G4",
          "ticks": 164880,
          "time": 151.543956,
          "velocity": 0.6299212598425197
        },
        {
          "duration": 0.44025688333331914,
          "durationTicks": 479,
          "midi": 67,
          "name": "G4",
          "ticks": 166080,
          "time": 152.646896,
          "velocity": 0.7559055118110236
        },
        {
          "duration": 0.44025688333331914,
          "durationTicks": 479,
          "midi": 64,
          "name": "E4",
          "ticks": 166560,
          "time": 153.088072,
          "velocity": 0.7559055118110236
        },
        {
          "duration": 0.44025688333331914,
          "durationTicks": 479,
          "midi": 60,
          "name": "C4",
          "ticks": 167040,
          "time": 153.529248,
          "velocity": 0.7559055118110236
        },
        {
          "duration": 0.44025688333331914,
          "durationTicks": 479,
          "midi": 57,
          "name": "A3",
          "ticks": 167520,
          "time": 153.970424,
          "velocity": 0.7559055118110236
        },
        {
          "duration": 0.881432883333332,
          "durationTicks": 959,
          "midi": 55,
          "name": "G3",
          "ticks": 168000,
          "time": 154.4116,
          "velocity": 0.7559055118110236
        },
        {
          "duration": 0.6608448833333398,
          "durationTicks": 719,
          "midi": 54,
          "name": "F#3",
          "ticks": 168960,
          "time": 155.293952,
          "velocity": 0.7559055118110236
        },
        {
          "duration": 0.44025688333331914,
          "durationTicks": 479,
          "midi": 55,
          "name": "G3",
          "ticks": 169680,
          "time": 155.955716,
          "velocity": 0.7559055118110236
        },
        {
          "duration": 0.2196688833333269,
          "durationTicks": 239,
          "midi": 59,
          "name": "B3",
          "ticks": 172080,
          "time": 158.161596,
          "velocity": 0.8818897637795275
        },
        {
          "duration": 0.2196688833333269,
          "durationTicks": 239,
          "midi": 62,
          "name": "D4",
          "ticks": 172080,
          "time": 158.161596,
          "velocity": 0.8818897637795275
        },
        {
          "duration": 0.2196688833333269,
          "durationTicks": 239,
          "midi": 59,
          "name": "B3",
          "ticks": 172320,
          "time": 158.382184,
          "velocity": 0.8818897637795275
        },
        {
          "duration": 0.2196688833333269,
          "durationTicks": 239,
          "midi": 62,
          "name": "D4",
          "ticks": 172320,
          "time": 158.382184,
          "velocity": 0.8818897637795275
        },
        {
          "duration": 0.21966888333329848,
          "durationTicks": 239,
          "midi": 59,
          "name": "B3",
          "ticks": 172560,
          "time": 158.60277200000002,
          "velocity": 0.8818897637795275
        },
        {
          "duration": 0.21966888333329848,
          "durationTicks": 239,
          "midi": 62,
          "name": "D4",
          "ticks": 172560,
          "time": 158.60277200000002,
          "velocity": 0.8818897637795275
        },
        {
          "duration": 0.44025688333331914,
          "durationTicks": 479,
          "midi": 59,
          "name": "B3",
          "ticks": 172800,
          "time": 158.82336,
          "velocity": 0.8818897637795275
        },
        {
          "duration": 0.44025688333331914,
          "durationTicks": 479,
          "midi": 62,
          "name": "D4",
          "ticks": 172800,
          "time": 158.82336,
          "velocity": 0.8818897637795275
        },
        {
          "duration": 0.44025688333334756,
          "durationTicks": 479,
          "midi": 55,
          "name": "G3",
          "ticks": 173280,
          "time": 159.264536,
          "velocity": 0.8818897637795275
        },
        {
          "duration": 0.44025688333334756,
          "durationTicks": 479,
          "midi": 59,
          "name": "B3",
          "ticks": 173280,
          "time": 159.264536,
          "velocity": 0.8818897637795275
        },
        {
          "duration": 0.2196688833333269,
          "durationTicks": 239,
          "midi": 54,
          "name": "F#3",
          "ticks": 173760,
          "time": 159.705712,
          "velocity": 0.8818897637795275
        },
        {
          "duration": 0.2196688833333269,
          "durationTicks": 239,
          "midi": 57,
          "name": "A3",
          "ticks": 173760,
          "time": 159.705712,
          "velocity": 0.8818897637795275
        },
        {
          "duration": 0.44025688333331914,
          "durationTicks": 479,
          "midi": 55,
          "name": "G3",
          "ticks": 174000,
          "time": 159.9263,
          "velocity": 0.8818897637795275
        },
        {
          "duration": 0.44025688333331914,
          "durationTicks": 479,
          "midi": 59,
          "name": "B3",
          "ticks": 174000,
          "time": 159.9263,
          "velocity": 0.8818897637795275
        },
        {
          "duration": 1.1020208833333243,
          "durationTicks": 1199,
          "midi": 55,
          "name": "G3",
          "ticks": 174480,
          "time": 160.367476,
          "velocity": 0.8818897637795275
        },
        {
          "duration": 1.1020208833333243,
          "durationTicks": 1199,
          "midi": 59,
          "name": "B3",
          "ticks": 174480,
          "time": 160.367476,
          "velocity": 0.8818897637795275
        },
        {
          "duration": 0.44025688333334756,
          "durationTicks": 479,
          "midi": 59,
          "name": "B3",
          "ticks": 175920,
          "time": 161.691004,
          "velocity": 0.8818897637795275
        },
        {
          "duration": 0.44025688333334756,
          "durationTicks": 479,
          "midi": 62,
          "name": "D4",
          "ticks": 175920,
          "time": 161.691004,
          "velocity": 0.8818897637795275
        },
        {
          "duration": 0.2196688833333269,
          "durationTicks": 239,
          "midi": 59,
          "name": "B3",
          "ticks": 176400,
          "time": 162.13218,
          "velocity": 0.8818897637795275
        },
        {
          "duration": 0.2196688833333269,
          "durationTicks": 239,
          "midi": 62,
          "name": "D4",
          "ticks": 176400,
          "time": 162.13218,
          "velocity": 0.8818897637795275
        },
        {
          "duration": 0.44025688333331914,
          "durationTicks": 479,
          "midi": 59,
          "name": "B3",
          "ticks": 176640,
          "time": 162.352768,
          "velocity": 0.8818897637795275
        },
        {
          "duration": 0.44025688333331914,
          "durationTicks": 479,
          "midi": 62,
          "name": "D4",
          "ticks": 176640,
          "time": 162.352768,
          "velocity": 0.8818897637795275
        },
        {
          "duration": 0.44025688333331914,
          "durationTicks": 479,
          "midi": 55,
          "name": "G3",
          "ticks": 177120,
          "time": 162.793944,
          "velocity": 0.8818897637795275
        },
        {
          "duration": 0.44025688333331914,
          "durationTicks": 479,
          "midi": 59,
          "name": "B3",
          "ticks": 177120,
          "time": 162.793944,
          "velocity": 0.8818897637795275
        },
        {
          "duration": 0.2196688833333269,
          "durationTicks": 239,
          "midi": 53,
          "name": "F3",
          "ticks": 177600,
          "time": 163.23512,
          "velocity": 0.8818897637795275
        },
        {
          "duration": 0.21966888333329848,
          "durationTicks": 239,
          "midi": 55,
          "name": "G3",
          "ticks": 177840,
          "time": 163.45570800000002,
          "velocity": 0.8818897637795275
        },
        {
          "duration": 0.2196688833333269,
          "durationTicks": 239,
          "midi": 57,
          "name": "A3",
          "ticks": 178080,
          "time": 163.676296,
          "velocity": 0.8818897637795275
        },
        {
          "duration": 1.1020208833333243,
          "durationTicks": 1199,
          "midi": 55,
          "name": "G3",
          "ticks": 178320,
          "time": 163.896884,
          "velocity": 0.8818897637795275
        },
        {
          "duration": 0.2196688833333269,
          "durationTicks": 239,
          "midi": 59,
          "name": "B3",
          "ticks": 179760,
          "time": 165.220412,
          "velocity": 0.8818897637795275
        },
        {
          "duration": 0.2196688833333269,
          "durationTicks": 239,
          "midi": 62,
          "name": "D4",
          "ticks": 179760,
          "time": 165.220412,
          "velocity": 0.8818897637795275
        },
        {
          "duration": 0.2196688833333269,
          "durationTicks": 239,
          "midi": 59,
          "name": "B3",
          "ticks": 180000,
          "time": 165.441,
          "velocity": 0.8818897637795275
        },
        {
          "duration": 0.2196688833333269,
          "durationTicks": 239,
          "midi": 62,
          "name": "D4",
          "ticks": 180000,
          "time": 165.441,
          "velocity": 0.8818897637795275
        },
        {
          "duration": 0.2196688833333269,
          "durationTicks": 239,
          "midi": 59,
          "name": "B3",
          "ticks": 180240,
          "time": 165.661588,
          "velocity": 0.8818897637795275
        },
        {
          "duration": 0.2196688833333269,
          "durationTicks": 239,
          "midi": 62,
          "name": "D4",
          "ticks": 180240,
          "time": 165.661588,
          "velocity": 0.8818897637795275
        },
        {
          "duration": 0.44025688333331914,
          "durationTicks": 479,
          "midi": 59,
          "name": "B3",
          "ticks": 180480,
          "time": 165.88217600000002,
          "velocity": 0.8818897637795275
        },
        {
          "duration": 0.44025688333331914,
          "durationTicks": 479,
          "midi": 62,
          "name": "D4",
          "ticks": 180480,
          "time": 165.88217600000002,
          "velocity": 0.8818897637795275
        },
        {
          "duration": 0.44025688333331914,
          "durationTicks": 479,
          "midi": 64,
          "name": "E4",
          "ticks": 180960,
          "time": 166.323352,
          "velocity": 0.8818897637795275
        },
        {
          "duration": 0.44025688333331914,
          "durationTicks": 479,
          "midi": 67,
          "name": "G4",
          "ticks": 180960,
          "time": 166.323352,
          "velocity": 0.8818897637795275
        },
        {
          "duration": 0.44025688333331914,
          "durationTicks": 479,
          "midi": 63,
          "name": "D#4",
          "ticks": 181440,
          "time": 166.764528,
          "velocity": 0.8818897637795275
        },
        {
          "duration": 0.44025688333331914,
          "durationTicks": 479,
          "midi": 66,
          "name": "F#4",
          "ticks": 181440,
          "time": 166.764528,
          "velocity": 0.8818897637795275
        },
        {
          "duration": 0.2196688833333269,
          "durationTicks": 239,
          "midi": 64,
          "name": "E4",
          "ticks": 181920,
          "time": 167.205704,
          "velocity": 0.8818897637795275
        },
        {
          "duration": 0.2196688833333269,
          "durationTicks": 239,
          "midi": 67,
          "name": "G4",
          "ticks": 181920,
          "time": 167.205704,
          "velocity": 0.8818897637795275
        },
        {
          "duration": 1.1020208833332958,
          "durationTicks": 1199,
          "midi": 64,
          "name": "E4",
          "ticks": 182160,
          "time": 167.42629200000002,
          "velocity": 0.8818897637795275
        },
        {
          "duration": 1.1020208833332958,
          "durationTicks": 1199,
          "midi": 67,
          "name": "G4",
          "ticks": 182160,
          "time": 167.42629200000002,
          "velocity": 0.8818897637795275
        },
        {
          "duration": 0.44025688333331914,
          "durationTicks": 479,
          "midi": 67,
          "name": "G4",
          "ticks": 183360,
          "time": 168.529232,
          "velocity": 0.7559055118110236
        },
        {
          "duration": 0.44025688333334756,
          "durationTicks": 479,
          "midi": 64,
          "name": "E4",
          "ticks": 183840,
          "time": 168.970408,
          "velocity": 0.7559055118110236
        },
        {
          "duration": 0.44025688333331914,
          "durationTicks": 479,
          "midi": 60,
          "name": "C4",
          "ticks": 184320,
          "time": 169.411584,
          "velocity": 0.7559055118110236
        },
        {
          "duration": 0.44025688333331914,
          "durationTicks": 479,
          "midi": 57,
          "name": "A3",
          "ticks": 184800,
          "time": 169.85276000000002,
          "velocity": 0.7559055118110236
        },
        {
          "duration": 0.881432883333332,
          "durationTicks": 959,
          "midi": 55,
          "name": "G3",
          "ticks": 185280,
          "time": 170.293936,
          "velocity": 0.7559055118110236
        },
        {
          "duration": 0.6608448833333398,
          "durationTicks": 719,
          "midi": 54,
          "name": "F#3",
          "ticks": 186240,
          "time": 171.176288,
          "velocity": 0.7559055118110236
        },
        {
          "duration": 0.881432883333332,
          "durationTicks": 959,
          "midi": 54,
          "name": "F#3",
          "ticks": 186960,
          "time": 171.838052,
          "velocity": 0.7559055118110236
        },
        {
          "duration": 0.6608448833333114,
          "durationTicks": 719,
          "midi": 55,
          "name": "G3",
          "ticks": 187920,
          "time": 172.720404,
          "velocity": 0.7559055118110236
        },
        {
          "duration": 0.44025688333331914,
          "durationTicks": 479,
          "midi": 57,
          "name": "A3",
          "ticks": 188880,
          "time": 173.602756,
          "velocity": 0.7559055118110236
        },
        {
          "duration": 0.2196688833333269,
          "durationTicks": 239,
          "midi": 59,
          "name": "B3",
          "ticks": 189360,
          "time": 174.043932,
          "velocity": 0.7559055118110236
        },
        {
          "duration": 0.2196688833333269,
          "durationTicks": 239,
          "midi": 57,
          "name": "A3",
          "ticks": 189600,
          "time": 174.26452,
          "velocity": 0.7559055118110236
        },
        {
          "duration": 1.1020208833333243,
          "durationTicks": 1199,
          "midi": 60,
          "name": "C4",
          "ticks": 189840,
          "time": 174.485108,
          "velocity": 0.7559055118110236
        },
        {
          "duration": 0.10937488333331657,
          "durationTicks": 119,
          "midi": 67,
          "name": "G4",
          "ticks": 191040,
          "time": 175.58804800000001,
          "velocity": 0.7559055118110236
        },
        {
          "duration": 0.10937488333331657,
          "durationTicks": 119,
          "midi": 64,
          "name": "E4",
          "ticks": 191160,
          "time": 175.698342,
          "velocity": 0.7559055118110236
        },
        {
          "duration": 0.10937488333331657,
          "durationTicks": 119,
          "midi": 62,
          "name": "D4",
          "ticks": 191280,
          "time": 175.808636,
          "velocity": 0.7559055118110236
        },
        {
          "duration": 0.10937488333331657,
          "durationTicks": 119,
          "midi": 59,
          "name": "B3",
          "ticks": 191400,
          "time": 175.91893000000002,
          "velocity": 0.7559055118110236
        },
        {
          "duration": 0.109374883333345,
          "durationTicks": 119,
          "midi": 64,
          "name": "E4",
          "ticks": 191760,
          "time": 176.249812,
          "velocity": 0.7559055118110236
        },
        {
          "duration": 0.10937488333331657,
          "durationTicks": 119,
          "midi": 62,
          "name": "D4",
          "ticks": 191880,
          "time": 176.360106,
          "velocity": 0.7559055118110236
        },
        {
          "duration": 0.10937488333331657,
          "durationTicks": 119,
          "midi": 59,
          "name": "B3",
          "ticks": 192000,
          "time": 176.4704,
          "velocity": 0.7559055118110236
        },
        {
          "duration": 0.109374883333345,
          "durationTicks": 119,
          "midi": 57,
          "name": "A3",
          "ticks": 192120,
          "time": 176.580694,
          "velocity": 0.7559055118110236
        },
        {
          "duration": 0.10937488333331657,
          "durationTicks": 119,
          "midi": 62,
          "name": "D4",
          "ticks": 192480,
          "time": 176.911576,
          "velocity": 0.7559055118110236
        },
        {
          "duration": 0.10937488333331657,
          "durationTicks": 119,
          "midi": 59,
          "name": "B3",
          "ticks": 192600,
          "time": 177.02187,
          "velocity": 0.7559055118110236
        },
        {
          "duration": 0.10937488333331657,
          "durationTicks": 119,
          "midi": 57,
          "name": "A3",
          "ticks": 192720,
          "time": 177.13216400000002,
          "velocity": 0.7559055118110236
        },
        {
          "duration": 0.10937488333331657,
          "durationTicks": 119,
          "midi": 55,
          "name": "G3",
          "ticks": 192840,
          "time": 177.242458,
          "velocity": 0.7559055118110236
        },
        {
          "duration": 0.10937488333331657,
          "durationTicks": 119,
          "midi": 59,
          "name": "B3",
          "ticks": 193200,
          "time": 177.57334,
          "velocity": 0.7559055118110236
        },
        {
          "duration": 0.10937488333331657,
          "durationTicks": 119,
          "midi": 57,
          "name": "A3",
          "ticks": 193320,
          "time": 177.683634,
          "velocity": 0.7559055118110236
        },
        {
          "duration": 0.109374883333345,
          "durationTicks": 119,
          "midi": 55,
          "name": "G3",
          "ticks": 193440,
          "time": 177.793928,
          "velocity": 0.7559055118110236
        },
        {
          "duration": 0.10937488333331657,
          "durationTicks": 119,
          "midi": 52,
          "name": "E3",
          "ticks": 193560,
          "time": 177.904222,
          "velocity": 0.7559055118110236
        },
        {
          "duration": 0.10937488333331657,
          "durationTicks": 119,
          "midi": 57,
          "name": "A3",
          "ticks": 194160,
          "time": 178.455692,
          "velocity": 0.7559055118110236
        },
        {
          "duration": 0.10937488333331657,
          "durationTicks": 119,
          "midi": 59,
          "name": "B3",
          "ticks": 194280,
          "time": 178.565986,
          "velocity": 0.7559055118110236
        },
        {
          "duration": 0.109374883333345,
          "durationTicks": 119,
          "midi": 67,
          "name": "G4",
          "ticks": 194400,
          "time": 178.67628,
          "velocity": 0.7559055118110236
        },
        {
          "duration": 0.10937488333331657,
          "durationTicks": 119,
          "midi": 66,
          "name": "F#4",
          "ticks": 194520,
          "time": 178.786574,
          "velocity": 0.7559055118110236
        },
        {
          "duration": 0.10937488333331657,
          "durationTicks": 119,
          "midi": 59,
          "name": "B3",
          "ticks": 194640,
          "time": 178.896868,
          "velocity": 0.7559055118110236
        },
        {
          "duration": 0.32996288333333723,
          "durationTicks": 359,
          "midi": 62,
          "name": "D4",
          "ticks": 194760,
          "time": 179.007162,
          "velocity": 0.7559055118110236
        },
        {
          "duration": 0.2196688833333269,
          "durationTicks": 239,
          "midi": 64,
          "name": "E4",
          "ticks": 195120,
          "time": 179.338044,
          "velocity": 0.7559055118110236
        }
      ]
    },
    {
      "channel": 0,
      "controlChanges": {
        "121": [
          {
            "number": 121,
            "ticks": 0,
            "time": 0,
            "value": 0
          }
        ]
      },
      "pitchBends": [],
      "instrument": {
        "family": "piano",
        "number": 0,
        "name": "acoustic grand piano"
      },
      "name": "",
      "notes": [],
      "endOfTrackTicks": 195360
    },
    {
      "channel": 2,
      "controlChanges": {
        "7": [
          {
            "number": 7,
            "ticks": 0,
            "time": 0,
            "value": 0.8976377952755905
          }
        ],
        "10": [
          {
            "number": 10,
            "ticks": 0,
            "time": 0,
            "value": 0.5039370078740157
          }
        ],
        "91": [
          {
            "number": 91,
            "ticks": 0,
            "time": 0,
            "value": 0
          }
        ],
        "93": [
          {
            "number": 93,
            "ticks": 0,
            "time": 0,
            "value": 0
          }
        ]
      },
      "pitchBends": [],
      "instrument": {
        "family": "reed",
        "number": 67,
        "name": "baritone sax"
      },
      "name": "",
      "notes": [
        {
          "duration": 0.10937488333333345,
          "durationTicks": 119,
          "midi": 38,
          "name": "D2",
          "ticks": 1440,
          "time": 1.323528,
          "velocity": 0.6299212598425197
        },
        {
          "duration": 0.10937488333333323,
          "durationTicks": 119,
          "midi": 38,
          "name": "D2",
          "ticks": 1560,
          "time": 1.4338220000000002,
          "velocity": 0.6299212598425197
        },
        {
          "duration": 0.10937488333333345,
          "durationTicks": 119,
          "midi": 40,
          "name": "E2",
          "ticks": 3360,
          "time": 3.088232,
          "velocity": 0.6299212598425197
        },
        {
          "duration": 0.10937488333333345,
          "durationTicks": 119,
          "midi": 40,
          "name": "E2",
          "ticks": 3480,
          "time": 3.198526,
          "velocity": 0.6299212598425197
        },
        {
          "duration": 0.21966888333333312,
          "durationTicks": 239,
          "midi": 40,
          "name": "E2",
          "ticks": 4800,
          "time": 4.41176,
          "velocity": 0.6299212598425197
        },
        {
          "duration": 0.219668883333334,
          "durationTicks": 239,
          "midi": 42,
          "name": "F#2",
          "ticks": 5280,
          "time": 4.852936,
          "velocity": 0.6299212598425197
        },
        {
          "duration": 0.21966888333333312,
          "durationTicks": 239,
          "midi": 43,
          "name": "G2",
          "ticks": 5760,
          "time": 5.294112,
          "velocity": 0.6299212598425197
        },
        {
          "duration": 0.10937488333333345,
          "durationTicks": 119,
          "midi": 40,
          "name": "E2",
          "ticks": 6000,
          "time": 5.5147,
          "velocity": 0.6299212598425197
        },
        {
          "duration": 0.21966888333333312,
          "durationTicks": 239,
          "midi": 43,
          "name": "G2",
          "ticks": 6120,
          "time": 5.624994,
          "velocity": 0.6299212598425197
        },
        {
          "duration": 0.10937488333333345,
          "durationTicks": 119,
          "midi": 40,
          "name": "E2",
          "ticks": 6360,
          "time": 5.845582,
          "velocity": 0.6299212598425197
        },
        {
          "duration": 0.219668883333334,
          "durationTicks": 239,
          "midi": 44,
          "name": "G#2",
          "ticks": 6480,
          "time": 5.955876,
          "velocity": 0.6299212598425197
        },
        {
          "duration": 0.44025688333333335,
          "durationTicks": 479,
          "midi": 45,
          "name": "A2",
          "ticks": 6720,
          "time": 6.176464,
          "velocity": 0.6299212598425197
        },
        {
          "duration": 0.219668883333334,
          "durationTicks": 239,
          "midi": 40,
          "name": "E2",
          "ticks": 7440,
          "time": 6.838228,
          "velocity": 0.6299212598425197
        },
        {
          "duration": 0.21966888333333223,
          "durationTicks": 239,
          "midi": 45,
          "name": "A2",
          "ticks": 7680,
          "time": 7.058816,
          "velocity": 0.6299212598425197
        },
        {
          "duration": 0.10937488333333256,
          "durationTicks": 119,
          "midi": 40,
          "name": "E2",
          "ticks": 7920,
          "time": 7.279404,
          "velocity": 0.6299212598425197
        },
        {
          "duration": 0.21966888333333312,
          "durationTicks": 239,
          "midi": 45,
          "name": "A2",
          "ticks": 8040,
          "time": 7.389698,
          "velocity": 0.6299212598425197
        },
        {
          "duration": 0.10937488333333256,
          "durationTicks": 119,
          "midi": 40,
          "name": "E2",
          "ticks": 8280,
          "time": 7.610286,
          "velocity": 0.6299212598425197
        },
        {
          "duration": 0.21966888333333312,
          "durationTicks": 239,
          "midi": 43,
          "name": "G2",
          "ticks": 8400,
          "time": 7.72058,
          "velocity": 0.6299212598425197
        },
        {
          "duration": 0.21966888333333312,
          "durationTicks": 239,
          "midi": 40,
          "name": "E2",
          "ticks": 8640,
          "time": 7.941168,
          "velocity": 0.6299212598425197
        },
        {
          "duration": 0.21966888333333223,
          "durationTicks": 239,
          "midi": 42,
          "name": "F#2",
          "ticks": 9120,
          "time": 8.382344,
          "velocity": 0.6299212598425197
        },
        {
          "duration": 0.21966888333333223,
          "durationTicks": 239,
          "midi": 43,
          "name": "G2",
          "ticks": 9600,
          "time": 8.82352,
          "velocity": 0.6299212598425197
        },
        {
          "duration": 0.10937488333333256,
          "durationTicks": 119,
          "midi": 40,
          "name": "E2",
          "ticks": 9840,
          "time": 9.044108,
          "velocity": 0.6299212598425197
        },
        {
          "duration": 0.21966888333333223,
          "durationTicks": 239,
          "midi": 43,
          "name": "G2",
          "ticks": 9960,
          "time": 9.154402000000001,
          "velocity": 0.6299212598425197
        },
        {
          "duration": 0.10937488333333256,
          "durationTicks": 119,
          "midi": 40,
          "name": "E2",
          "ticks": 10200,
          "time": 9.37499,
          "velocity": 0.6299212598425197
        },
        {
          "duration": 0.21966888333333223,
          "durationTicks": 239,
          "midi": 44,
          "name": "G#2",
          "ticks": 10320,
          "time": 9.485284,
          "velocity": 0.6299212598425197
        },
        {
          "duration": 0.44025688333333335,
          "durationTicks": 479,
          "midi": 45,
          "name": "A2",
          "ticks": 10560,
          "time": 9.705872,
          "velocity": 0.6299212598425197
        },
        {
          "duration": 0.21966888333333223,
          "durationTicks": 239,
          "midi": 40,
          "name": "E2",
          "ticks": 11280,
          "time": 10.367636000000001,
          "velocity": 0.6299212598425197
        },
        {
          "duration": 0.21966888333333223,
          "durationTicks": 239,
          "midi": 47,
          "name": "B2",
          "ticks": 11520,
          "time": 10.588224,
          "velocity": 0.6299212598425197
        },
        {
          "duration": 0.10937488333333256,
          "durationTicks": 119,
          "midi": 45,
          "name": "A2",
          "ticks": 11760,
          "time": 10.808812,
          "velocity": 0.6299212598425197
        },
        {
          "duration": 0.21966888333333223,
          "durationTicks": 239,
          "midi": 47,
          "name": "B2",
          "ticks": 11880,
          "time": 10.919106000000001,
          "velocity": 0.6299212598425197
        },
        {
          "duration": 0.10937488333333256,
          "durationTicks": 119,
          "midi": 45,
          "name": "A2",
          "ticks": 12120,
          "time": 11.139694,
          "velocity": 0.6299212598425197
        },
        {
          "duration": 0.21966888333333223,
          "durationTicks": 239,
          "midi": 50,
          "name": "D3",
          "ticks": 12240,
          "time": 11.249988,
          "velocity": 0.6299212598425197
        },
        {
          "duration": 0.21966888333333223,
          "durationTicks": 239,
          "midi": 40,
          "name": "E2",
          "ticks": 12480,
          "time": 11.470576000000001,
          "velocity": 0.6299212598425197
        },
        {
          "duration": 0.21966888333333223,
          "durationTicks": 239,
          "midi": 42,
          "name": "F#2",
          "ticks": 12960,
          "time": 11.911752,
          "velocity": 0.6299212598425197
        },
        {
          "duration": 0.21966888333333223,
          "durationTicks": 239,
          "midi": 43,
          "name": "G2",
          "ticks": 13440,
          "time": 12.352928,
          "velocity": 0.6299212598425197
        },
        {
          "duration": 0.10937488333333256,
          "durationTicks": 119,
          "midi": 40,
          "name": "E2",
          "ticks": 13680,
          "time": 12.573516,
          "velocity": 0.6299212598425197
        },
        {
          "duration": 0.21966888333333223,
          "durationTicks": 239,
          "midi": 43,
          "name": "G2",
          "ticks": 13800,
          "time": 12.683810000000001,
          "velocity": 0.6299212598425197
        },
        {
          "duration": 0.10937488333333256,
          "durationTicks": 119,
          "midi": 40,
          "name": "E2",
          "ticks": 14040,
          "time": 12.904398,
          "velocity": 0.6299212598425197
        },
        {
          "duration": 0.21966888333333223,
          "durationTicks": 239,
          "midi": 44,
          "name": "G#2",
          "ticks": 14160,
          "time": 13.014692,
          "velocity": 0.6299212598425197
        },
        {
          "duration": 0.44025688333333335,
          "durationTicks": 479,
          "midi": 45,
          "name": "A2",
          "ticks": 14400,
          "time": 13.23528,
          "velocity": 0.6299212598425197
        },
        {
          "duration": 0.21966888333333223,
          "durationTicks": 239,
          "midi": 40,
          "name": "E2",
          "ticks": 15120,
          "time": 13.897044000000001,
          "velocity": 0.6299212598425197
        },
        {
          "duration": 0.219668883333334,
          "durationTicks": 239,
          "midi": 45,
          "name": "A2",
          "ticks": 15360,
          "time": 14.117632,
          "velocity": 0.6299212598425197
        },
        {
          "duration": 0.10937488333333434,
          "durationTicks": 119,
          "midi": 40,
          "name": "E2",
          "ticks": 15600,
          "time": 14.33822,
          "velocity": 0.6299212598425197
        },
        {
          "duration": 0.219668883333334,
          "durationTicks": 239,
          "midi": 45,
          "name": "A2",
          "ticks": 15720,
          "time": 14.448514000000001,
          "velocity": 0.6299212598425197
        },
        {
          "duration": 0.10937488333333434,
          "durationTicks": 119,
          "midi": 40,
          "name": "E2",
          "ticks": 15960,
          "time": 14.669102,
          "velocity": 0.6299212598425197
        },
        {
          "duration": 0.8814328833333338,
          "durationTicks": 959,
          "midi": 43,
          "name": "G2",
          "ticks": 16080,
          "time": 14.779396,
          "velocity": 0.6299212598425197
        },
        {
          "duration": 0.4402568833333351,
          "durationTicks": 479,
          "midi": 48,
          "name": "C3",
          "ticks": 17040,
          "time": 15.661748000000001,
          "velocity": 0.6299212598425197
        },
        {
          "duration": 0.219668883333334,
          "durationTicks": 239,
          "midi": 45,
          "name": "A2",
          "ticks": 17520,
          "time": 16.102924,
          "velocity": 0.6299212598425197
        },
        {
          "duration": 0.219668883333334,
          "durationTicks": 239,
          "midi": 48,
          "name": "C3",
          "ticks": 17760,
          "time": 16.323512,
          "velocity": 0.6299212598425197
        },
        {
          "duration": 0.44025688333333335,
          "durationTicks": 479,
          "midi": 42,
          "name": "F#2",
          "ticks": 18000,
          "time": 16.5441,
          "velocity": 0.6299212598425197
        },
        {
          "duration": 0.219668883333334,
          "durationTicks": 239,
          "midi": 45,
          "name": "A2",
          "ticks": 18480,
          "time": 16.985276,
          "velocity": 0.6299212598425197
        },
        {
          "duration": 0.219668883333334,
          "durationTicks": 239,
          "midi": 46,
          "name": "A#2",
          "ticks": 18720,
          "time": 17.205864000000002,
          "velocity": 0.6299212598425197
        },
        {
          "duration": 0.219668883333334,
          "durationTicks": 239,
          "midi": 47,
          "name": "B2",
          "ticks": 18960,
          "time": 17.426452,
          "velocity": 0.6299212598425197
        },
        {
          "duration": 0.219668883333334,
          "durationTicks": 239,
          "midi": 47,
          "name": "B2",
          "ticks": 19440,
          "time": 17.867628,
          "velocity": 0.6299212598425197
        },
        {
          "duration": 0.10937488333333434,
          "durationTicks": 119,
          "midi": 47,
          "name": "B2",
          "ticks": 19680,
          "time": 18.088216,
          "velocity": 0.6299212598425197
        },
        {
          "duration": 0.10937488333333434,
          "durationTicks": 119,
          "midi": 45,
          "name": "A2",
          "ticks": 19800,
          "time": 18.19851,
          "velocity": 0.6299212598425197
        },
        {
          "duration": 0.219668883333334,
          "durationTicks": 239,
          "midi": 43,
          "name": "G2",
          "ticks": 19920,
          "time": 18.308804000000002,
          "velocity": 0.6299212598425197
        },
        {
          "duration": 0.219668883333334,
          "durationTicks": 239,
          "midi": 40,
          "name": "E2",
          "ticks": 20160,
          "time": 18.529392,
          "velocity": 0.6299212598425197
        },
        {
          "duration": 0.219668883333334,
          "durationTicks": 239,
          "midi": 42,
          "name": "F#2",
          "ticks": 20640,
          "time": 18.970568,
          "velocity": 0.6299212598425197
        },
        {
          "duration": 0.21966888333333756,
          "durationTicks": 239,
          "midi": 43,
          "name": "G2",
          "ticks": 21120,
          "time": 19.411744,
          "velocity": 0.6299212598425197
        },
        {
          "duration": 0.10937488333333434,
          "durationTicks": 119,
          "midi": 40,
          "name": "E2",
          "ticks": 21360,
          "time": 19.632332,
          "velocity": 0.6299212598425197
        },
        {
          "duration": 0.219668883333334,
          "durationTicks": 239,
          "midi": 43,
          "name": "G2",
          "ticks": 21480,
          "time": 19.742626,
          "velocity": 0.6299212598425197
        },
        {
          "duration": 0.10937488333333434,
          "durationTicks": 119,
          "midi": 40,
          "name": "E2",
          "ticks": 21720,
          "time": 19.963214,
          "velocity": 0.6299212598425197
        },
        {
          "duration": 0.219668883333334,
          "durationTicks": 239,
          "midi": 44,
          "name": "G#2",
          "ticks": 21840,
          "time": 20.073508,
          "velocity": 0.6299212598425197
        },
        {
          "duration": 0.44025688333333335,
          "durationTicks": 479,
          "midi": 45,
          "name": "A2",
          "ticks": 22080,
          "time": 20.294096,
          "velocity": 0.6299212598425197
        },
        {
          "duration": 0.219668883333334,
          "durationTicks": 239,
          "midi": 40,
          "name": "E2",
          "ticks": 22800,
          "time": 20.95586,
          "velocity": 0.6299212598425197
        },
        {
          "duration": 0.219668883333334,
          "durationTicks": 239,
          "midi": 45,
          "name": "A2",
          "ticks": 23040,
          "time": 21.176448,
          "velocity": 0.6299212598425197
        },
        {
          "duration": 0.10937488333333434,
          "durationTicks": 119,
          "midi": 40,
          "name": "E2",
          "ticks": 23280,
          "time": 21.397036,
          "velocity": 0.6299212598425197
        },
        {
          "duration": 0.219668883333334,
          "durationTicks": 239,
          "midi": 45,
          "name": "A2",
          "ticks": 23400,
          "time": 21.50733,
          "velocity": 0.6299212598425197
        },
        {
          "duration": 0.10937488333333434,
          "durationTicks": 119,
          "midi": 40,
          "name": "E2",
          "ticks": 23640,
          "time": 21.727918,
          "velocity": 0.6299212598425197
        },
        {
          "duration": 0.219668883333334,
          "durationTicks": 239,
          "midi": 43,
          "name": "G2",
          "ticks": 23760,
          "time": 21.838212000000002,
          "velocity": 0.6299212598425197
        },
        {
          "duration": 0.219668883333334,
          "durationTicks": 239,
          "midi": 40,
          "name": "E2",
          "ticks": 24000,
          "time": 22.0588,
          "velocity": 0.6299212598425197
        },
        {
          "duration": 0.219668883333334,
          "durationTicks": 239,
          "midi": 42,
          "name": "F#2",
          "ticks": 24480,
          "time": 22.499976,
          "velocity": 0.6299212598425197
        },
        {
          "duration": 0.219668883333334,
          "durationTicks": 239,
          "midi": 43,
          "name": "G2",
          "ticks": 24960,
          "time": 22.941152000000002,
          "velocity": 0.6299212598425197
        },
        {
          "duration": 0.10937488333333434,
          "durationTicks": 119,
          "midi": 40,
          "name": "E2",
          "ticks": 25200,
          "time": 23.16174,
          "velocity": 0.6299212598425197
        },
        {
          "duration": 0.219668883333334,
          "durationTicks": 239,
          "midi": 43,
          "name": "G2",
          "ticks": 25320,
          "time": 23.272034,
          "velocity": 0.6299212598425197
        },
        {
          "duration": 0.10937488333333434,
          "durationTicks": 119,
          "midi": 40,
          "name": "E2",
          "ticks": 25560,
          "time": 23.492622,
          "velocity": 0.6299212598425197
        },
        {
          "duration": 0.219668883333334,
          "durationTicks": 239,
          "midi": 44,
          "name": "G#2",
          "ticks": 25680,
          "time": 23.602916,
          "velocity": 0.6299212598425197
        },
        {
          "duration": 0.44025688333333335,
          "durationTicks": 479,
          "midi": 45,
          "name": "A2",
          "ticks": 25920,
          "time": 23.823504,
          "velocity": 0.6299212598425197
        },
        {
          "duration": 0.219668883333334,
          "durationTicks": 239,
          "midi": 46,
          "name": "A#2",
          "ticks": 26640,
          "time": 24.485268,
          "velocity": 0.6299212598425197
        },
        {
          "duration": 0.219668883333334,
          "durationTicks": 239,
          "midi": 47,
          "name": "B2",
          "ticks": 26880,
          "time": 24.705856,
          "velocity": 0.6299212598425197
        },
        {
          "duration": 0.219668883333334,
          "durationTicks": 239,
          "midi": 48,
          "name": "C3",
          "ticks": 27120,
          "time": 24.926444,
          "velocity": 0.6299212598425197
        },
        {
          "duration": 0.219668883333334,
          "durationTicks": 239,
          "midi": 49,
          "name": "C#3",
          "ticks": 27360,
          "time": 25.147032,
          "velocity": 0.6299212598425197
        },
        {
          "duration": 0.219668883333334,
          "durationTicks": 239,
          "midi": 51,
          "name": "D#3",
          "ticks": 27600,
          "time": 25.367620000000002,
          "velocity": 0.6299212598425197
        },
        {
          "duration": 0.6608448833333327,
          "durationTicks": 719,
          "midi": 52,
          "name": "E3",
          "ticks": 27840,
          "time": 25.588208,
          "velocity": 0.6299212598425197
        },
        {
          "duration": 0.4402568833333369,
          "durationTicks": 479,
          "midi": 50,
          "name": "D3",
          "ticks": 28560,
          "time": 26.249972,
          "velocity": 0.6299212598425197
        },
        {
          "duration": 0.219668883333334,
          "durationTicks": 239,
          "midi": 43,
          "name": "G2",
          "ticks": 29040,
          "time": 26.691148000000002,
          "velocity": 0.6299212598425197
        },
        {
          "duration": 0.219668883333334,
          "durationTicks": 239,
          "midi": 47,
          "name": "B2",
          "ticks": 29280,
          "time": 26.911736,
          "velocity": 0.6299212598425197
        },
        {
          "duration": 0.219668883333334,
          "durationTicks": 239,
          "midi": 50,
          "name": "D3",
          "ticks": 29520,
          "time": 27.132324,
          "velocity": 0.6299212598425197
        },
        {
          "duration": 0.6608448833333362,
          "durationTicks": 719,
          "midi": 48,
          "name": "C3",
          "ticks": 29760,
          "time": 27.352912,
          "velocity": 0.6299212598425197
        },
        {
          "duration": 0.44025688333333335,
          "durationTicks": 479,
          "midi": 43,
          "name": "G2",
          "ticks": 30480,
          "time": 28.014676,
          "velocity": 0.6299212598425197
        },
        {
          "duration": 0.219668883333334,
          "durationTicks": 239,
          "midi": 43,
          "name": "G2",
          "ticks": 30960,
          "time": 28.455852,
          "velocity": 0.6299212598425197
        },
        {
          "duration": 0.219668883333334,
          "durationTicks": 239,
          "midi": 43,
          "name": "G2",
          "ticks": 31200,
          "time": 28.67644,
          "velocity": 0.6299212598425197
        },
        {
          "duration": 0.219668883333334,
          "durationTicks": 239,
          "midi": 43,
          "name": "G2",
          "ticks": 31440,
          "time": 28.897028000000002,
          "velocity": 0.6299212598425197
        },
        {
          "duration": 0.44025688333333335,
          "durationTicks": 479,
          "midi": 49,
          "name": "C#3",
          "ticks": 31680,
          "time": 29.117616,
          "velocity": 0.6299212598425197
        },
        {
          "duration": 0.44025688333333335,
          "durationTicks": 479,
          "midi": 49,
          "name": "C#3",
          "ticks": 32160,
          "time": 29.558792,
          "velocity": 0.6299212598425197
        },
        {
          "duration": 0.44025688333333335,
          "durationTicks": 479,
          "midi": 49,
          "name": "C#3",
          "ticks": 32640,
          "time": 29.999968000000003,
          "velocity": 0.6299212598425197
        },
        {
          "duration": 0.219668883333334,
          "durationTicks": 239,
          "midi": 45,
          "name": "A2",
          "ticks": 33120,
          "time": 30.441144,
          "velocity": 0.6299212598425197
        },
        {
          "duration": 0.219668883333334,
          "durationTicks": 239,
          "midi": 49,
          "name": "C#3",
          "ticks": 33360,
          "time": 30.661732,
          "velocity": 0.6299212598425197
        },
        {
          "duration": 0.44025688333333335,
          "durationTicks": 479,
          "midi": 38,
          "name": "D2",
          "ticks": 33600,
          "time": 30.88232,
          "velocity": 0.6299212598425197
        },
        {
          "duration": 0.44025688333333335,
          "durationTicks": 479,
          "midi": 38,
          "name": "D2",
          "ticks": 34080,
          "time": 31.323496000000002,
          "velocity": 0.6299212598425197
        },
        {
          "duration": 0.219668883333334,
          "durationTicks": 239,
          "midi": 38,
          "name": "D2",
          "ticks": 34560,
          "time": 31.764672,
          "velocity": 0.6299212598425197
        },
        {
          "duration": 0.21966888333333756,
          "durationTicks": 239,
          "midi": 38,
          "name": "D2",
          "ticks": 34800,
          "time": 31.98526,
          "velocity": 0.6299212598425197
        },
        {
          "duration": 0.219668883333334,
          "durationTicks": 239,
          "midi": 36,
          "name": "C2",
          "ticks": 35040,
          "time": 32.205848,
          "velocity": 0.6299212598425197
        },
        {
          "duration": 0.219668883333334,
          "durationTicks": 239,
          "midi": 36,
          "name": "C2",
          "ticks": 35280,
          "time": 32.426436,
          "velocity": 0.6299212598425197
        },
        {
          "duration": 0.44025688333333335,
          "durationTicks": 479,
          "midi": 50,
          "name": "D3",
          "ticks": 37200,
          "time": 34.191140000000004,
          "velocity": 0.7559055118110236
        },
        {
          "duration": 0.219668883333334,
          "durationTicks": 239,
          "midi": 48,
          "name": "C3",
          "ticks": 37680,
          "time": 34.632316,
          "velocity": 0.6299212598425197
        },
        {
          "duration": 0.219668883333334,
          "durationTicks": 239,
          "midi": 47,
          "name": "B2",
          "ticks": 37920,
          "time": 34.852904,
          "velocity": 0.6299212598425197
        },
        {
          "duration": 0.219668883333334,
          "durationTicks": 239,
          "midi": 48,
          "name": "C3",
          "ticks": 38160,
          "time": 35.073492,
          "velocity": 0.6299212598425197
        },
        {
          "duration": 0.219668883333334,
          "durationTicks": 239,
          "midi": 47,
          "name": "B2",
          "ticks": 38400,
          "time": 35.29408,
          "velocity": 0.6299212598425197
        },
        {
          "duration": 0.6608448833333327,
          "durationTicks": 719,
          "midi": 43,
          "name": "G2",
          "ticks": 38640,
          "time": 35.514668,
          "velocity": 0.6299212598425197
        },
        {
          "duration": 0.219668883333334,
          "durationTicks": 239,
          "midi": 50,
          "name": "D3",
          "ticks": 40560,
          "time": 37.279372,
          "velocity": 0.6299212598425197
        },
        {
          "duration": 0.219668883333334,
          "durationTicks": 239,
          "midi": 50,
          "name": "D3",
          "ticks": 40800,
          "time": 37.49996,
          "velocity": 0.6299212598425197
        },
        {
          "duration": 0.44025688333333335,
          "durationTicks": 479,
          "midi": 55,
          "name": "G3",
          "ticks": 41040,
          "time": 37.720548,
          "velocity": 0.7559055118110236
        },
        {
          "duration": 0.219668883333334,
          "durationTicks": 239,
          "midi": 50,
          "name": "D3",
          "ticks": 41520,
          "time": 38.161724,
          "velocity": 0.6299212598425197
        },
        {
          "duration": 0.219668883333334,
          "durationTicks": 239,
          "midi": 50,
          "name": "D3",
          "ticks": 41760,
          "time": 38.382312,
          "velocity": 0.6299212598425197
        },
        {
          "duration": 0.44025688333334045,
          "durationTicks": 479,
          "midi": 52,
          "name": "E3",
          "ticks": 42000,
          "time": 38.6029,
          "velocity": 0.6299212598425197
        },
        {
          "duration": 0.219668883333334,
          "durationTicks": 239,
          "midi": 50,
          "name": "D3",
          "ticks": 42480,
          "time": 39.044076000000004,
          "velocity": 0.6299212598425197
        },
        {
          "duration": 0.44025688333333335,
          "durationTicks": 479,
          "midi": 50,
          "name": "D3",
          "ticks": 42720,
          "time": 39.264664,
          "velocity": 0.6299212598425197
        },
        {
          "duration": 0.219668883333334,
          "durationTicks": 239,
          "midi": 62,
          "name": "D4",
          "ticks": 44400,
          "time": 40.80878,
          "velocity": 0.8818897637795275
        },
        {
          "duration": 0.219668883333334,
          "durationTicks": 239,
          "midi": 62,
          "name": "D4",
          "ticks": 44640,
          "time": 41.029368,
          "velocity": 0.8818897637795275
        },
        {
          "duration": 0.44025688333333335,
          "durationTicks": 479,
          "midi": 62,
          "name": "D4",
          "ticks": 44880,
          "time": 41.249956000000005,
          "velocity": 0.8818897637795275
        },
        {
          "duration": 0.219668883333334,
          "durationTicks": 239,
          "midi": 60,
          "name": "C4",
          "ticks": 45360,
          "time": 41.691132,
          "velocity": 0.8818897637795275
        },
        {
          "duration": 0.219668883333334,
          "durationTicks": 239,
          "midi": 59,
          "name": "B3",
          "ticks": 45600,
          "time": 41.91172,
          "velocity": 0.8818897637795275
        },
        {
          "duration": 0.219668883333334,
          "durationTicks": 239,
          "midi": 60,
          "name": "C4",
          "ticks": 45840,
          "time": 42.132308,
          "velocity": 0.8818897637795275
        },
        {
          "duration": 0.219668883333334,
          "durationTicks": 239,
          "midi": 59,
          "name": "B3",
          "ticks": 46080,
          "time": 42.352896,
          "velocity": 0.8818897637795275
        },
        {
          "duration": 0.219668883333334,
          "durationTicks": 239,
          "midi": 55,
          "name": "G3",
          "ticks": 46320,
          "time": 42.573484,
          "velocity": 0.8818897637795275
        },
        {
          "duration": 0.219668883333334,
          "durationTicks": 239,
          "midi": 55,
          "name": "G3",
          "ticks": 46560,
          "time": 42.794072,
          "velocity": 0.8818897637795275
        },
        {
          "duration": 0.219668883333334,
          "durationTicks": 239,
          "midi": 55,
          "name": "G3",
          "ticks": 46800,
          "time": 43.01466,
          "velocity": 0.8818897637795275
        },
        {
          "duration": 0.219668883333334,
          "durationTicks": 239,
          "midi": 60,
          "name": "C4",
          "ticks": 47040,
          "time": 43.235248,
          "velocity": 0.8818897637795275
        },
        {
          "duration": 0.219668883333334,
          "durationTicks": 239,
          "midi": 60,
          "name": "C4",
          "ticks": 47280,
          "time": 43.455836,
          "velocity": 0.8818897637795275
        },
        {
          "duration": 0.219668883333334,
          "durationTicks": 239,
          "midi": 60,
          "name": "C4",
          "ticks": 47520,
          "time": 43.676424000000004,
          "velocity": 0.8818897637795275
        },
        {
          "duration": 0.219668883333334,
          "durationTicks": 239,
          "midi": 59,
          "name": "B3",
          "ticks": 47760,
          "time": 43.897012000000004,
          "velocity": 0.8818897637795275
        },
        {
          "duration": 0.219668883333334,
          "durationTicks": 239,
          "midi": 55,
          "name": "G3",
          "ticks": 48240,
          "time": 44.338188,
          "velocity": 0.8818897637795275
        },
        {
          "duration": 1.5431968833333372,
          "durationTicks": 1679,
          "midi": 57,
          "name": "A3",
          "ticks": 48720,
          "time": 44.779364,
          "velocity": 0.8818897637795275
        },
        {
          "duration": 0.44025688333333335,
          "durationTicks": 479,
          "midi": 40,
          "name": "E2",
          "ticks": 50640,
          "time": 46.544068,
          "velocity": 0.8818897637795275
        },
        {
          "duration": 0.219668883333334,
          "durationTicks": 239,
          "midi": 40,
          "name": "E2",
          "ticks": 51120,
          "time": 46.985244,
          "velocity": 0.8818897637795275
        },
        {
          "duration": 0.219668883333334,
          "durationTicks": 239,
          "midi": 40,
          "name": "E2",
          "ticks": 51360,
          "time": 47.205832,
          "velocity": 0.8818897637795275
        },
        {
          "duration": 0.219668883333334,
          "durationTicks": 239,
          "midi": 40,
          "name": "E2",
          "ticks": 51600,
          "time": 47.42642,
          "velocity": 0.8818897637795275
        },
        {
          "duration": 0.219668883333334,
          "durationTicks": 239,
          "midi": 40,
          "name": "E2",
          "ticks": 51840,
          "time": 47.647008,
          "velocity": 1
        },
        {
          "duration": 0.44025688333333335,
          "durationTicks": 479,
          "midi": 48,
          "name": "C3",
          "ticks": 52800,
          "time": 48.529360000000004,
          "velocity": 0.6299212598425197
        },
        {
          "duration": 0.3299628833333301,
          "durationTicks": 359,
          "midi": 48,
          "name": "C3",
          "ticks": 53280,
          "time": 48.970536,
          "velocity": 0.6299212598425197
        },
        {
          "duration": 0.10937488333333789,
          "durationTicks": 119,
          "midi": 43,
          "name": "G2",
          "ticks": 53640,
          "time": 49.301418,
          "velocity": 0.6299212598425197
        },
        {
          "duration": 0.219668883333334,
          "durationTicks": 239,
          "midi": 48,
          "name": "C3",
          "ticks": 53760,
          "time": 49.411712,
          "velocity": 0.6299212598425197
        },
        {
          "duration": 0.219668883333334,
          "durationTicks": 239,
          "midi": 43,
          "name": "G2",
          "ticks": 54000,
          "time": 49.6323,
          "velocity": 0.6299212598425197
        },
        {
          "duration": 0.219668883333334,
          "durationTicks": 239,
          "midi": 45,
          "name": "A2",
          "ticks": 54240,
          "time": 49.852888,
          "velocity": 0.6299212598425197
        },
        {
          "duration": 0.219668883333334,
          "durationTicks": 239,
          "midi": 46,
          "name": "A#2",
          "ticks": 54480,
          "time": 50.073476,
          "velocity": 0.6299212598425197
        },
        {
          "duration": 0.219668883333334,
          "durationTicks": 239,
          "midi": 47,
          "name": "B2",
          "ticks": 54720,
          "time": 50.294064,
          "velocity": 0.6299212598425197
        },
        {
          "duration": 0.44025688333334045,
          "durationTicks": 479,
          "midi": 47,
          "name": "B2",
          "ticks": 54960,
          "time": 50.514652,
          "velocity": 0.6299212598425197
        },
        {
          "duration": 0.44025688333333335,
          "durationTicks": 479,
          "midi": 40,
          "name": "E2",
          "ticks": 55440,
          "time": 50.955828000000004,
          "velocity": 0.6299212598425197
        },
        {
          "duration": 0.219668883333334,
          "durationTicks": 239,
          "midi": 42,
          "name": "F#2",
          "ticks": 55920,
          "time": 51.397004,
          "velocity": 0.6299212598425197
        },
        {
          "duration": 0.219668883333334,
          "durationTicks": 239,
          "midi": 43,
          "name": "G2",
          "ticks": 56160,
          "time": 51.617592,
          "velocity": 0.6299212598425197
        },
        {
          "duration": 0.219668883333334,
          "durationTicks": 239,
          "midi": 40,
          "name": "E2",
          "ticks": 56400,
          "time": 51.83818,
          "velocity": 0.6299212598425197
        },
        {
          "duration": 0.44025688333333335,
          "durationTicks": 479,
          "midi": 48,
          "name": "C3",
          "ticks": 56640,
          "time": 52.058768,
          "velocity": 0.6299212598425197
        },
        {
          "duration": 0.32996288333333723,
          "durationTicks": 359,
          "midi": 48,
          "name": "C3",
          "ticks": 57120,
          "time": 52.499944,
          "velocity": 0.6299212598425197
        },
        {
          "duration": 0.10937488333333079,
          "durationTicks": 119,
          "midi": 43,
          "name": "G2",
          "ticks": 57480,
          "time": 52.830826,
          "velocity": 0.6299212598425197
        },
        {
          "duration": 0.21966888333334111,
          "durationTicks": 239,
          "midi": 48,
          "name": "C3",
          "ticks": 57600,
          "time": 52.94112,
          "velocity": 0.6299212598425197
        },
        {
          "duration": 0.219668883333334,
          "durationTicks": 239,
          "midi": 43,
          "name": "G2",
          "ticks": 57840,
          "time": 53.161708000000004,
          "velocity": 0.6299212598425197
        },
        {
          "duration": 0.219668883333334,
          "durationTicks": 239,
          "midi": 45,
          "name": "A2",
          "ticks": 58080,
          "time": 53.382296000000004,
          "velocity": 0.6299212598425197
        },
        {
          "duration": 0.219668883333334,
          "durationTicks": 239,
          "midi": 48,
          "name": "C3",
          "ticks": 58320,
          "time": 53.602884,
          "velocity": 0.6299212598425197
        },
        {
          "duration": 0.219668883333334,
          "durationTicks": 239,
          "midi": 50,
          "name": "D3",
          "ticks": 58560,
          "time": 53.823472,
          "velocity": 0.6299212598425197
        },
        {
          "duration": 0.219668883333334,
          "durationTicks": 239,
          "midi": 41,
          "name": "F2",
          "ticks": 58800,
          "time": 54.04406,
          "velocity": 0.6299212598425197
        },
        {
          "duration": 0.219668883333334,
          "durationTicks": 239,
          "midi": 42,
          "name": "F#2",
          "ticks": 59040,
          "time": 54.264648,
          "velocity": 0.6299212598425197
        },
        {
          "duration": 0.44025688333333335,
          "durationTicks": 479,
          "midi": 43,
          "name": "G2",
          "ticks": 59280,
          "time": 54.485236,
          "velocity": 0.6299212598425197
        },
        {
          "duration": 0.219668883333334,
          "durationTicks": 239,
          "midi": 45,
          "name": "A2",
          "ticks": 59760,
          "time": 54.926412,
          "velocity": 0.6299212598425197
        },
        {
          "duration": 0.219668883333334,
          "durationTicks": 239,
          "midi": 47,
          "name": "B2",
          "ticks": 60000,
          "time": 55.147,
          "velocity": 0.6299212598425197
        },
        {
          "duration": 0.219668883333334,
          "durationTicks": 239,
          "midi": 43,
          "name": "G2",
          "ticks": 60240,
          "time": 55.367588000000005,
          "velocity": 0.6299212598425197
        },
        {
          "duration": 0.44025688333333335,
          "durationTicks": 479,
          "midi": 48,
          "name": "C3",
          "ticks": 60480,
          "time": 55.588176000000004,
          "velocity": 0.6299212598425197
        },
        {
          "duration": 0.3299628833333301,
          "durationTicks": 359,
          "midi": 48,
          "name": "C3",
          "ticks": 60960,
          "time": 56.029352,
          "velocity": 0.6299212598425197
        },
        {
          "duration": 0.10937488333333789,
          "durationTicks": 119,
          "midi": 43,
          "name": "G2",
          "ticks": 61320,
          "time": 56.360234,
          "velocity": 0.6299212598425197
        },
        {
          "duration": 0.219668883333334,
          "durationTicks": 239,
          "midi": 48,
          "name": "C3",
          "ticks": 61440,
          "time": 56.470528,
          "velocity": 0.6299212598425197
        },
        {
          "duration": 0.219668883333334,
          "durationTicks": 239,
          "midi": 43,
          "name": "G2",
          "ticks": 61680,
          "time": 56.691116,
          "velocity": 0.6299212598425197
        },
        {
          "duration": 0.219668883333334,
          "durationTicks": 239,
          "midi": 50,
          "name": "D3",
          "ticks": 61920,
          "time": 56.911704,
          "velocity": 0.6299212598425197
        },
        {
          "duration": 0.219668883333334,
          "durationTicks": 239,
          "midi": 48,
          "name": "C3",
          "ticks": 62160,
          "time": 57.132292,
          "velocity": 0.6299212598425197
        },
        {
          "duration": 0.219668883333334,
          "durationTicks": 239,
          "midi": 47,
          "name": "B2",
          "ticks": 62400,
          "time": 57.35288,
          "velocity": 0.6299212598425197
        },
        {
          "duration": 0.219668883333334,
          "durationTicks": 239,
          "midi": 47,
          "name": "B2",
          "ticks": 62640,
          "time": 57.573468,
          "velocity": 0.6299212598425197
        },
        {
          "duration": 0.219668883333334,
          "durationTicks": 239,
          "midi": 50,
          "name": "D3",
          "ticks": 62880,
          "time": 57.794056000000005,
          "velocity": 0.6299212598425197
        },
        {
          "duration": 0.44025688333333335,
          "durationTicks": 479,
          "midi": 52,
          "name": "E3",
          "ticks": 63120,
          "time": 58.014644000000004,
          "velocity": 0.6299212598425197
        },
        {
          "duration": 0.219668883333334,
          "durationTicks": 239,
          "midi": 50,
          "name": "D3",
          "ticks": 63600,
          "time": 58.45582,
          "velocity": 0.6299212598425197
        },
        {
          "duration": 0.10937488333333079,
          "durationTicks": 119,
          "midi": 47,
          "name": "B2",
          "ticks": 63840,
          "time": 58.676408,
          "velocity": 0.6299212598425197
        },
        {
          "duration": 0.10937488333333789,
          "durationTicks": 119,
          "midi": 45,
          "name": "A2",
          "ticks": 63960,
          "time": 58.786702,
          "velocity": 0.6299212598425197
        },
        {
          "duration": 0.219668883333334,
          "durationTicks": 239,
          "midi": 43,
          "name": "G2",
          "ticks": 64080,
          "time": 58.896996,
          "velocity": 0.6299212598425197
        },
        {
          "duration": 1.7637848833333365,
          "durationTicks": 1919,
          "midi": 45,
          "name": "A2",
          "ticks": 64320,
          "time": 59.117584,
          "velocity": 1
        },
        {
          "duration": 0.881432883333332,
          "durationTicks": 959,
          "midi": 48,
          "name": "C3",
          "ticks": 66240,
          "time": 60.882288,
          "velocity": 0.7559055118110236
        },
        {
          "duration": 0.6608448833333327,
          "durationTicks": 719,
          "midi": 50,
          "name": "D3",
          "ticks": 67200,
          "time": 61.76464,
          "velocity": 0.7559055118110236
        },
        {
          "duration": 0.881432883333332,
          "durationTicks": 959,
          "midi": 43,
          "name": "G2",
          "ticks": 67920,
          "time": 62.426404000000005,
          "velocity": 0.7559055118110236
        },
        {
          "duration": 0.44025688333333335,
          "durationTicks": 479,
          "midi": 48,
          "name": "C3",
          "ticks": 68880,
          "time": 63.308756,
          "velocity": 0.7559055118110236
        },
        {
          "duration": 0.219668883333334,
          "durationTicks": 239,
          "midi": 45,
          "name": "A2",
          "ticks": 69360,
          "time": 63.749932,
          "velocity": 0.7559055118110236
        },
        {
          "duration": 0.219668883333334,
          "durationTicks": 239,
          "midi": 48,
          "name": "C3",
          "ticks": 69600,
          "time": 63.97052,
          "velocity": 0.7559055118110236
        },
        {
          "duration": 0.44025688333333335,
          "durationTicks": 479,
          "midi": 54,
          "name": "F#3",
          "ticks": 69840,
          "time": 64.191108,
          "velocity": 0.7559055118110236
        },
        {
          "duration": 0.21966888333334111,
          "durationTicks": 239,
          "midi": 45,
          "name": "A2",
          "ticks": 70320,
          "time": 64.632284,
          "velocity": 0.7559055118110236
        },
        {
          "duration": 0.2196688833333269,
          "durationTicks": 239,
          "midi": 46,
          "name": "A#2",
          "ticks": 70560,
          "time": 64.852872,
          "velocity": 0.7559055118110236
        },
        {
          "duration": 0.44025688333333335,
          "durationTicks": 479,
          "midi": 47,
          "name": "B2",
          "ticks": 70800,
          "time": 65.07346,
          "velocity": 0.7559055118110236
        },
        {
          "duration": 0.21966888333334111,
          "durationTicks": 239,
          "midi": 40,
          "name": "E2",
          "ticks": 72000,
          "time": 66.1764,
          "velocity": 0.7559055118110236
        },
        {
          "duration": 0.21966888333334111,
          "durationTicks": 239,
          "midi": 42,
          "name": "F#2",
          "ticks": 72480,
          "time": 66.617576,
          "velocity": 0.7559055118110236
        },
        {
          "duration": 0.21966888333334111,
          "durationTicks": 239,
          "midi": 43,
          "name": "G2",
          "ticks": 72960,
          "time": 67.058752,
          "velocity": 0.7559055118110236
        },
        {
          "duration": 0.10937488333333079,
          "durationTicks": 119,
          "midi": 40,
          "name": "E2",
          "ticks": 73200,
          "time": 67.27934,
          "velocity": 0.7559055118110236
        },
        {
          "duration": 0.21966888333334111,
          "durationTicks": 239,
          "midi": 43,
          "name": "G2",
          "ticks": 73320,
          "time": 67.389634,
          "velocity": 0.7559055118110236
        },
        {
          "duration": 0.10937488333333079,
          "durationTicks": 119,
          "midi": 40,
          "name": "E2",
          "ticks": 73560,
          "time": 67.61022200000001,
          "velocity": 0.7559055118110236
        },
        {
          "duration": 0.2196688833333269,
          "durationTicks": 239,
          "midi": 44,
          "name": "G#2",
          "ticks": 73680,
          "time": 67.720516,
          "velocity": 0.7559055118110236
        },
        {
          "duration": 0.44025688333333335,
          "durationTicks": 479,
          "midi": 45,
          "name": "A2",
          "ticks": 73920,
          "time": 67.941104,
          "velocity": 0.7559055118110236
        },
        {
          "duration": 0.21966888333334111,
          "durationTicks": 239,
          "midi": 40,
          "name": "E2",
          "ticks": 74640,
          "time": 68.602868,
          "velocity": 0.7559055118110236
        },
        {
          "duration": 0.2196688833333269,
          "durationTicks": 239,
          "midi": 45,
          "name": "A2",
          "ticks": 74880,
          "time": 68.82345600000001,
          "velocity": 0.7559055118110236
        },
        {
          "duration": 0.10937488333333079,
          "durationTicks": 119,
          "midi": 40,
          "name": "E2",
          "ticks": 75120,
          "time": 69.044044,
          "velocity": 0.7559055118110236
        },
        {
          "duration": 0.21966888333334111,
          "durationTicks": 239,
          "midi": 45,
          "name": "A2",
          "ticks": 75240,
          "time": 69.154338,
          "velocity": 0.7559055118110236
        },
        {
          "duration": 0.10937488333333079,
          "durationTicks": 119,
          "midi": 40,
          "name": "E2",
          "ticks": 75480,
          "time": 69.374926,
          "velocity": 0.7559055118110236
        },
        {
          "duration": 0.21966888333334111,
          "durationTicks": 239,
          "midi": 43,
          "name": "G2",
          "ticks": 75600,
          "time": 69.48522,
          "velocity": 0.7559055118110236
        },
        {
          "duration": 0.2196688833333269,
          "durationTicks": 239,
          "midi": 40,
          "name": "E2",
          "ticks": 75840,
          "time": 69.705808,
          "velocity": 0.7559055118110236
        },
        {
          "duration": 0.2196688833333269,
          "durationTicks": 239,
          "midi": 42,
          "name": "F#2",
          "ticks": 76320,
          "time": 70.146984,
          "velocity": 0.7559055118110236
        },
        {
          "duration": 0.21966888333334111,
          "durationTicks": 239,
          "midi": 43,
          "name": "G2",
          "ticks": 76800,
          "time": 70.58816,
          "velocity": 0.7559055118110236
        },
        {
          "duration": 0.10937488333333079,
          "durationTicks": 119,
          "midi": 40,
          "name": "E2",
          "ticks": 77040,
          "time": 70.80874800000001,
          "velocity": 0.7559055118110236
        },
        {
          "duration": 0.2196688833333269,
          "durationTicks": 239,
          "midi": 43,
          "name": "G2",
          "ticks": 77160,
          "time": 70.919042,
          "velocity": 0.7559055118110236
        },
        {
          "duration": 0.109374883333345,
          "durationTicks": 119,
          "midi": 40,
          "name": "E2",
          "ticks": 77400,
          "time": 71.13963,
          "velocity": 0.7559055118110236
        },
        {
          "duration": 0.2196688833333269,
          "durationTicks": 239,
          "midi": 44,
          "name": "G#2",
          "ticks": 77520,
          "time": 71.24992400000001,
          "velocity": 0.7559055118110236
        },
        {
          "duration": 0.44025688333333335,
          "durationTicks": 479,
          "midi": 45,
          "name": "A2",
          "ticks": 77760,
          "time": 71.470512,
          "velocity": 0.7559055118110236
        },
        {
          "duration": 0.2196688833333269,
          "durationTicks": 239,
          "midi": 40,
          "name": "E2",
          "ticks": 78480,
          "time": 72.132276,
          "velocity": 0.7559055118110236
        },
        {
          "duration": 0.21966888333334111,
          "durationTicks": 239,
          "midi": 47,
          "name": "B2",
          "ticks": 78720,
          "time": 72.352864,
          "velocity": 0.7559055118110236
        },
        {
          "duration": 0.10937488333333079,
          "durationTicks": 119,
          "midi": 45,
          "name": "A2",
          "ticks": 78960,
          "time": 72.573452,
          "velocity": 0.7559055118110236
        },
        {
          "duration": 0.21966888333334111,
          "durationTicks": 239,
          "midi": 47,
          "name": "B2",
          "ticks": 79080,
          "time": 72.683746,
          "velocity": 0.7559055118110236
        },
        {
          "duration": 0.10937488333333079,
          "durationTicks": 119,
          "midi": 45,
          "name": "A2",
          "ticks": 79320,
          "time": 72.904334,
          "velocity": 0.7559055118110236
        },
        {
          "duration": 0.21966888333334111,
          "durationTicks": 239,
          "midi": 50,
          "name": "D3",
          "ticks": 79440,
          "time": 73.014628,
          "velocity": 0.7559055118110236
        },
        {
          "duration": 0.2196688833333269,
          "durationTicks": 239,
          "midi": 40,
          "name": "E2",
          "ticks": 79680,
          "time": 73.23521600000001,
          "velocity": 0.7559055118110236
        },
        {
          "duration": 0.2196688833333269,
          "durationTicks": 239,
          "midi": 42,
          "name": "F#2",
          "ticks": 80160,
          "time": 73.676392,
          "velocity": 0.7559055118110236
        },
        {
          "duration": 0.2196688833333269,
          "durationTicks": 239,
          "midi": 43,
          "name": "G2",
          "ticks": 80640,
          "time": 74.117568,
          "velocity": 0.7559055118110236
        },
        {
          "duration": 0.109374883333345,
          "durationTicks": 119,
          "midi": 40,
          "name": "E2",
          "ticks": 80880,
          "time": 74.338156,
          "velocity": 0.7559055118110236
        },
        {
          "duration": 0.2196688833333269,
          "durationTicks": 239,
          "midi": 43,
          "name": "G2",
          "ticks": 81000,
          "time": 74.44845000000001,
          "velocity": 0.7559055118110236
        },
        {
          "duration": 0.10937488333333079,
          "durationTicks": 119,
          "midi": 40,
          "name": "E2",
          "ticks": 81240,
          "time": 74.669038,
          "velocity": 0.7559055118110236
        },
        {
          "duration": 0.21966888333334111,
          "durationTicks": 239,
          "midi": 44,
          "name": "G#2",
          "ticks": 81360,
          "time": 74.779332,
          "velocity": 0.7559055118110236
        },
        {
          "duration": 0.44025688333333335,
          "durationTicks": 479,
          "midi": 45,
          "name": "A2",
          "ticks": 81600,
          "time": 74.99992,
          "velocity": 0.7559055118110236
        },
        {
          "duration": 0.2196688833333269,
          "durationTicks": 239,
          "midi": 40,
          "name": "E2",
          "ticks": 82320,
          "time": 75.66168400000001,
          "velocity": 0.7559055118110236
        },
        {
          "duration": 0.21966888333334111,
          "durationTicks": 239,
          "midi": 45,
          "name": "A2",
          "ticks": 82560,
          "time": 75.882272,
          "velocity": 0.7559055118110236
        },
        {
          "duration": 0.10937488333333079,
          "durationTicks": 119,
          "midi": 40,
          "name": "E2",
          "ticks": 82800,
          "time": 76.10286,
          "velocity": 0.7559055118110236
        },
        {
          "duration": 0.2196688833333269,
          "durationTicks": 239,
          "midi": 45,
          "name": "A2",
          "ticks": 82920,
          "time": 76.213154,
          "velocity": 0.7559055118110236
        },
        {
          "duration": 0.109374883333345,
          "durationTicks": 119,
          "midi": 40,
          "name": "E2",
          "ticks": 83160,
          "time": 76.433742,
          "velocity": 0.7559055118110236
        },
        {
          "duration": 0.881432883333332,
          "durationTicks": 959,
          "midi": 43,
          "name": "G2",
          "ticks": 83280,
          "time": 76.544036,
          "velocity": 0.7559055118110236
        },
        {
          "duration": 0.44025688333333335,
          "durationTicks": 479,
          "midi": 48,
          "name": "C3",
          "ticks": 84240,
          "time": 77.426388,
          "velocity": 0.7559055118110236
        },
        {
          "duration": 0.21966888333334111,
          "durationTicks": 239,
          "midi": 45,
          "name": "A2",
          "ticks": 84720,
          "time": 77.867564,
          "velocity": 0.7559055118110236
        },
        {
          "duration": 0.2196688833333269,
          "durationTicks": 239,
          "midi": 48,
          "name": "C3",
          "ticks": 84960,
          "time": 78.08815200000001,
          "velocity": 0.7559055118110236
        },
        {
          "duration": 0.44025688333333335,
          "durationTicks": 479,
          "midi": 42,
          "name": "F#2",
          "ticks": 85200,
          "time": 78.30874,
          "velocity": 0.7559055118110236
        },
        {
          "duration": 0.21966888333334111,
          "durationTicks": 239,
          "midi": 45,
          "name": "A2",
          "ticks": 85680,
          "time": 78.749916,
          "velocity": 0.7559055118110236
        },
        {
          "duration": 0.2196688833333269,
          "durationTicks": 239,
          "midi": 46,
          "name": "A#2",
          "ticks": 85920,
          "time": 78.970504,
          "velocity": 0.7559055118110236
        },
        {
          "duration": 0.44025688333333335,
          "durationTicks": 479,
          "midi": 47,
          "name": "B2",
          "ticks": 86160,
          "time": 79.191092,
          "velocity": 0.7559055118110236
        },
        {
          "duration": 0.2196688833333269,
          "durationTicks": 239,
          "midi": 64,
          "name": "E4",
          "ticks": 88560,
          "time": 81.396972,
          "velocity": 0.905511811023622
        },
        {
          "duration": 0.44025688333333335,
          "durationTicks": 479,
          "midi": 45,
          "name": "A2",
          "ticks": 89280,
          "time": 82.058736,
          "velocity": 0.6299212598425197
        },
        {
          "duration": 0.21966888333334111,
          "durationTicks": 239,
          "midi": 40,
          "name": "E2",
          "ticks": 90000,
          "time": 82.7205,
          "velocity": 0.6299212598425197
        },
        {
          "duration": 0.2196688833333269,
          "durationTicks": 239,
          "midi": 45,
          "name": "A2",
          "ticks": 90240,
          "time": 82.94108800000001,
          "velocity": 0.6299212598425197
        },
        {
          "duration": 0.10937488333333079,
          "durationTicks": 119,
          "midi": 40,
          "name": "E2",
          "ticks": 90480,
          "time": 83.161676,
          "velocity": 0.6299212598425197
        },
        {
          "duration": 0.21966888333334111,
          "durationTicks": 239,
          "midi": 45,
          "name": "A2",
          "ticks": 90600,
          "time": 83.27197,
          "velocity": 0.6299212598425197
        },
        {
          "duration": 0.10937488333333079,
          "durationTicks": 119,
          "midi": 40,
          "name": "E2",
          "ticks": 90840,
          "time": 83.492558,
          "velocity": 0.6299212598425197
        },
        {
          "duration": 0.21966888333334111,
          "durationTicks": 239,
          "midi": 43,
          "name": "G2",
          "ticks": 90960,
          "time": 83.602852,
          "velocity": 0.6299212598425197
        },
        {
          "duration": 0.2196688833333269,
          "durationTicks": 239,
          "midi": 40,
          "name": "E2",
          "ticks": 91200,
          "time": 83.82344,
          "velocity": 0.6299212598425197
        },
        {
          "duration": 0.2196688833333269,
          "durationTicks": 239,
          "midi": 42,
          "name": "F#2",
          "ticks": 91680,
          "time": 84.264616,
          "velocity": 0.6299212598425197
        },
        {
          "duration": 0.21966888333334111,
          "durationTicks": 239,
          "midi": 43,
          "name": "G2",
          "ticks": 92160,
          "time": 84.705792,
          "velocity": 0.6299212598425197
        },
        {
          "duration": 0.10937488333333079,
          "durationTicks": 119,
          "midi": 40,
          "name": "E2",
          "ticks": 92400,
          "time": 84.92638000000001,
          "velocity": 0.6299212598425197
        },
        {
          "duration": 0.2196688833333269,
          "durationTicks": 239,
          "midi": 43,
          "name": "G2",
          "ticks": 92520,
          "time": 85.036674,
          "velocity": 0.6299212598425197
        },
        {
          "duration": 0.109374883333345,
          "durationTicks": 119,
          "midi": 40,
          "name": "E2",
          "ticks": 92760,
          "time": 85.257262,
          "velocity": 0.6299212598425197
        },
        {
          "duration": 0.2196688833333269,
          "durationTicks": 239,
          "midi": 44,
          "name": "G#2",
          "ticks": 92880,
          "time": 85.36755600000001,
          "velocity": 0.6299212598425197
        },
        {
          "duration": 0.44025688333333335,
          "durationTicks": 479,
          "midi": 45,
          "name": "A2",
          "ticks": 93120,
          "time": 85.588144,
          "velocity": 0.6299212598425197
        },
        {
          "duration": 0.2196688833333269,
          "durationTicks": 239,
          "midi": 46,
          "name": "A#2",
          "ticks": 93840,
          "time": 86.249908,
          "velocity": 0.6299212598425197
        },
        {
          "duration": 0.21966888333334111,
          "durationTicks": 239,
          "midi": 47,
          "name": "B2",
          "ticks": 94080,
          "time": 86.470496,
          "velocity": 0.6299212598425197
        },
        {
          "duration": 0.2196688833333269,
          "durationTicks": 239,
          "midi": 48,
          "name": "C3",
          "ticks": 94320,
          "time": 86.691084,
          "velocity": 0.6299212598425197
        },
        {
          "duration": 0.21966888333334111,
          "durationTicks": 239,
          "midi": 49,
          "name": "C#3",
          "ticks": 94560,
          "time": 86.911672,
          "velocity": 0.6299212598425197
        },
        {
          "duration": 0.21966888333334111,
          "durationTicks": 239,
          "midi": 51,
          "name": "D#3",
          "ticks": 94800,
          "time": 87.13226,
          "velocity": 0.6299212598425197
        },
        {
          "duration": 0.6608448833333256,
          "durationTicks": 719,
          "midi": 52,
          "name": "E3",
          "ticks": 95040,
          "time": 87.35284800000001,
          "velocity": 0.6299212598425197
        },
        {
          "duration": 0.44025688333333335,
          "durationTicks": 479,
          "midi": 50,
          "name": "D3",
          "ticks": 95760,
          "time": 88.014612,
          "velocity": 0.6299212598425197
        },
        {
          "duration": 0.21966888333334111,
          "durationTicks": 239,
          "midi": 43,
          "name": "G2",
          "ticks": 96240,
          "time": 88.455788,
          "velocity": 0.6299212598425197
        },
        {
          "duration": 0.2196688833333269,
          "durationTicks": 239,
          "midi": 47,
          "name": "B2",
          "ticks": 96480,
          "time": 88.676376,
          "velocity": 0.6299212598425197
        },
        {
          "duration": 0.21966888333334111,
          "durationTicks": 239,
          "midi": 50,
          "name": "D3",
          "ticks": 96720,
          "time": 88.896964,
          "velocity": 0.6299212598425197
        },
        {
          "duration": 0.6608448833333398,
          "durationTicks": 719,
          "midi": 48,
          "name": "C3",
          "ticks": 96960,
          "time": 89.117552,
          "velocity": 0.6299212598425197
        },
        {
          "duration": 0.44025688333333335,
          "durationTicks": 479,
          "midi": 43,
          "name": "G2",
          "ticks": 97680,
          "time": 89.77931600000001,
          "velocity": 0.6299212598425197
        },
        {
          "duration": 0.2196688833333269,
          "durationTicks": 239,
          "midi": 43,
          "name": "G2",
          "ticks": 98160,
          "time": 90.22049200000001,
          "velocity": 0.6299212598425197
        },
        {
          "duration": 0.21966888333334111,
          "durationTicks": 239,
          "midi": 43,
          "name": "G2",
          "ticks": 98400,
          "time": 90.44108,
          "velocity": 0.6299212598425197
        },
        {
          "duration": 0.2196688833333269,
          "durationTicks": 239,
          "midi": 43,
          "name": "G2",
          "ticks": 98640,
          "time": 90.661668,
          "velocity": 0.6299212598425197
        },
        {
          "duration": 0.44025688333333335,
          "durationTicks": 479,
          "midi": 49,
          "name": "C#3",
          "ticks": 98880,
          "time": 90.882256,
          "velocity": 0.6299212598425197
        },
        {
          "duration": 0.44025688333333335,
          "durationTicks": 479,
          "midi": 49,
          "name": "C#3",
          "ticks": 99360,
          "time": 91.323432,
          "velocity": 0.6299212598425197
        },
        {
          "duration": 0.44025688333333335,
          "durationTicks": 479,
          "midi": 49,
          "name": "C#3",
          "ticks": 99840,
          "time": 91.76460800000001,
          "velocity": 0.6299212598425197
        },
        {
          "duration": 0.2196688833333269,
          "durationTicks": 239,
          "midi": 45,
          "name": "A2",
          "ticks": 100320,
          "time": 92.20578400000001,
          "velocity": 0.6299212598425197
        },
        {
          "duration": 0.21966888333334111,
          "durationTicks": 239,
          "midi": 49,
          "name": "C#3",
          "ticks": 100560,
          "time": 92.426372,
          "velocity": 0.6299212598425197
        },
        {
          "duration": 0.44025688333333335,
          "durationTicks": 479,
          "midi": 38,
          "name": "D2",
          "ticks": 100800,
          "time": 92.64696,
          "velocity": 0.6299212598425197
        },
        {
          "duration": 0.44025688333333335,
          "durationTicks": 479,
          "midi": 38,
          "name": "D2",
          "ticks": 101280,
          "time": 93.088136,
          "velocity": 0.6299212598425197
        },
        {
          "duration": 0.2196688833333269,
          "durationTicks": 239,
          "midi": 38,
          "name": "D2",
          "ticks": 101760,
          "time": 93.529312,
          "velocity": 0.6299212598425197
        },
        {
          "duration": 0.21966888333334111,
          "durationTicks": 239,
          "midi": 38,
          "name": "D2",
          "ticks": 102000,
          "time": 93.7499,
          "velocity": 0.6299212598425197
        },
        {
          "duration": 0.2196688833333269,
          "durationTicks": 239,
          "midi": 36,
          "name": "C2",
          "ticks": 102240,
          "time": 93.970488,
          "velocity": 0.6299212598425197
        },
        {
          "duration": 0.2196688833333269,
          "durationTicks": 239,
          "midi": 36,
          "name": "C2",
          "ticks": 102480,
          "time": 94.19107600000001,
          "velocity": 0.6299212598425197
        },
        {
          "duration": 0.44025688333333335,
          "durationTicks": 479,
          "midi": 50,
          "name": "D3",
          "ticks": 104400,
          "time": 95.95578,
          "velocity": 0.7559055118110236
        },
        {
          "duration": 0.2196688833333269,
          "durationTicks": 239,
          "midi": 48,
          "name": "C3",
          "ticks": 104880,
          "time": 96.396956,
          "velocity": 0.6299212598425197
        },
        {
          "duration": 0.2196688833333269,
          "durationTicks": 239,
          "midi": 47,
          "name": "B2",
          "ticks": 105120,
          "time": 96.61754400000001,
          "velocity": 0.6299212598425197
        },
        {
          "duration": 0.21966888333334111,
          "durationTicks": 239,
          "midi": 48,
          "name": "C3",
          "ticks": 105360,
          "time": 96.838132,
          "velocity": 0.6299212598425197
        },
        {
          "duration": 0.2196688833333269,
          "durationTicks": 239,
          "midi": 47,
          "name": "B2",
          "ticks": 105600,
          "time": 97.05872000000001,
          "velocity": 0.6299212598425197
        },
        {
          "duration": 0.21966888333334111,
          "durationTicks": 239,
          "midi": 43,
          "name": "G2",
          "ticks": 105840,
          "time": 97.279308,
          "velocity": 0.6299212598425197
        },
        {
          "duration": 0.44025688333333335,
          "durationTicks": 479,
          "midi": 43,
          "name": "G2",
          "ticks": 106080,
          "time": 97.499896,
          "velocity": 0.6299212598425197
        },
        {
          "duration": 0.2196688833333269,
          "durationTicks": 239,
          "midi": 50,
          "name": "D3",
          "ticks": 107760,
          "time": 99.04401200000001,
          "velocity": 0.6299212598425197
        },
        {
          "duration": 0.21966888333334111,
          "durationTicks": 239,
          "midi": 50,
          "name": "D3",
          "ticks": 108000,
          "time": 99.2646,
          "velocity": 0.6299212598425197
        },
        {
          "duration": 0.44025688333333335,
          "durationTicks": 479,
          "midi": 55,
          "name": "G3",
          "ticks": 108240,
          "time": 99.48518800000001,
          "velocity": 0.7559055118110236
        },
        {
          "duration": 0.2196688833333269,
          "durationTicks": 239,
          "midi": 50,
          "name": "D3",
          "ticks": 108720,
          "time": 99.926364,
          "velocity": 0.6299212598425197
        },
        {
          "duration": 0.21966888333334111,
          "durationTicks": 239,
          "midi": 50,
          "name": "D3",
          "ticks": 108960,
          "time": 100.146952,
          "velocity": 0.6299212598425197
        },
        {
          "duration": 0.44025688333333335,
          "durationTicks": 479,
          "midi": 52,
          "name": "E3",
          "ticks": 109200,
          "time": 100.36754,
          "velocity": 0.6299212598425197
        },
        {
          "duration": 0.2196688833333269,
          "durationTicks": 239,
          "midi": 50,
          "name": "D3",
          "ticks": 109680,
          "time": 100.808716,
          "velocity": 0.6299212598425197
        },
        {
          "duration": 0.44025688333334756,
          "durationTicks": 479,
          "midi": 50,
          "name": "D3",
          "ticks": 109920,
          "time": 101.029304,
          "velocity": 0.6299212598425197
        },
        {
          "duration": 0.21966888333334111,
          "durationTicks": 239,
          "midi": 62,
          "name": "D4",
          "ticks": 111600,
          "time": 102.57342,
          "velocity": 0.8818897637795275
        },
        {
          "duration": 0.2196688833333269,
          "durationTicks": 239,
          "midi": 62,
          "name": "D4",
          "ticks": 111840,
          "time": 102.794008,
          "velocity": 0.8818897637795275
        },
        {
          "duration": 0.44025688333333335,
          "durationTicks": 479,
          "midi": 62,
          "name": "D4",
          "ticks": 112080,
          "time": 103.014596,
          "velocity": 0.8818897637795275
        },
        {
          "duration": 0.21966888333334111,
          "durationTicks": 239,
          "midi": 60,
          "name": "C4",
          "ticks": 112560,
          "time": 103.455772,
          "velocity": 0.8818897637795275
        },
        {
          "duration": 0.21966888333334111,
          "durationTicks": 239,
          "midi": 59,
          "name": "B3",
          "ticks": 112800,
          "time": 103.67636,
          "velocity": 0.8818897637795275
        },
        {
          "duration": 0.2196688833333269,
          "durationTicks": 239,
          "midi": 60,
          "name": "C4",
          "ticks": 113040,
          "time": 103.89694800000001,
          "velocity": 0.8818897637795275
        },
        {
          "duration": 0.21966888333334111,
          "durationTicks": 239,
          "midi": 59,
          "name": "B3",
          "ticks": 113280,
          "time": 104.117536,
          "velocity": 0.8818897637795275
        },
        {
          "duration": 0.2196688833333269,
          "durationTicks": 239,
          "midi": 55,
          "name": "G3",
          "ticks": 113520,
          "time": 104.33812400000001,
          "velocity": 0.8818897637795275
        },
        {
          "duration": 0.21966888333334111,
          "durationTicks": 239,
          "midi": 55,
          "name": "G3",
          "ticks": 113760,
          "time": 104.558712,
          "velocity": 0.8818897637795275
        },
        {
          "duration": 0.2196688833333269,
          "durationTicks": 239,
          "midi": 55,
          "name": "G3",
          "ticks": 114000,
          "time": 104.7793,
          "velocity": 0.8818897637795275
        },
        {
          "duration": 0.21966888333334111,
          "durationTicks": 239,
          "midi": 60,
          "name": "C4",
          "ticks": 114240,
          "time": 104.999888,
          "velocity": 0.8818897637795275
        },
        {
          "duration": 0.2196688833333269,
          "durationTicks": 239,
          "midi": 60,
          "name": "C4",
          "ticks": 114480,
          "time": 105.220476,
          "velocity": 0.8818897637795275
        },
        {
          "duration": 0.21966888333334111,
          "durationTicks": 239,
          "midi": 60,
          "name": "C4",
          "ticks": 114720,
          "time": 105.441064,
          "velocity": 0.8818897637795275
        },
        {
          "duration": 0.2196688833333269,
          "durationTicks": 239,
          "midi": 59,
          "name": "B3",
          "ticks": 114960,
          "time": 105.661652,
          "velocity": 0.8818897637795275
        },
        {
          "duration": 0.21966888333334111,
          "durationTicks": 239,
          "midi": 55,
          "name": "G3",
          "ticks": 115440,
          "time": 106.102828,
          "velocity": 0.8818897637795275
        },
        {
          "duration": 1.5431968833333372,
          "durationTicks": 1679,
          "midi": 57,
          "name": "A3",
          "ticks": 115920,
          "time": 106.544004,
          "velocity": 0.8818897637795275
        },
        {
          "duration": 0.44025688333333335,
          "durationTicks": 479,
          "midi": 40,
          "name": "E2",
          "ticks": 117840,
          "time": 108.30870800000001,
          "velocity": 0.8818897637795275
        },
        {
          "duration": 0.2196688833333269,
          "durationTicks": 239,
          "midi": 40,
          "name": "E2",
          "ticks": 118320,
          "time": 108.74988400000001,
          "velocity": 0.8818897637795275
        },
        {
          "duration": 0.21966888333334111,
          "durationTicks": 239,
          "midi": 40,
          "name": "E2",
          "ticks": 118560,
          "time": 108.970472,
          "velocity": 0.8818897637795275
        },
        {
          "duration": 0.2196688833333269,
          "durationTicks": 239,
          "midi": 40,
          "name": "E2",
          "ticks": 118800,
          "time": 109.19106000000001,
          "velocity": 0.8818897637795275
        },
        {
          "duration": 0.21966888333334111,
          "durationTicks": 239,
          "midi": 40,
          "name": "E2",
          "ticks": 119040,
          "time": 109.411648,
          "velocity": 0.8818897637795275
        },
        {
          "duration": 0.44025688333333335,
          "durationTicks": 479,
          "midi": 48,
          "name": "C3",
          "ticks": 120000,
          "time": 110.294,
          "velocity": 0.6299212598425197
        },
        {
          "duration": 0.329962883333323,
          "durationTicks": 359,
          "midi": 48,
          "name": "C3",
          "ticks": 120480,
          "time": 110.73517600000001,
          "velocity": 0.6299212598425197
        },
        {
          "duration": 0.109374883333345,
          "durationTicks": 119,
          "midi": 43,
          "name": "G2",
          "ticks": 120840,
          "time": 111.066058,
          "velocity": 0.6299212598425197
        },
        {
          "duration": 0.2196688833333269,
          "durationTicks": 239,
          "midi": 48,
          "name": "C3",
          "ticks": 120960,
          "time": 111.17635200000001,
          "velocity": 0.6299212598425197
        },
        {
          "duration": 0.21966888333334111,
          "durationTicks": 239,
          "midi": 43,
          "name": "G2",
          "ticks": 121200,
          "time": 111.39694,
          "velocity": 0.6299212598425197
        },
        {
          "duration": 0.2196688833333269,
          "durationTicks": 239,
          "midi": 45,
          "name": "A2",
          "ticks": 121440,
          "time": 111.61752800000001,
          "velocity": 0.6299212598425197
        },
        {
          "duration": 0.21966888333334111,
          "durationTicks": 239,
          "midi": 46,
          "name": "A#2",
          "ticks": 121680,
          "time": 111.838116,
          "velocity": 0.6299212598425197
        },
        {
          "duration": 0.2196688833333269,
          "durationTicks": 239,
          "midi": 47,
          "name": "B2",
          "ticks": 121920,
          "time": 112.058704,
          "velocity": 0.6299212598425197
        },
        {
          "duration": 0.44025688333333335,
          "durationTicks": 479,
          "midi": 47,
          "name": "B2",
          "ticks": 122160,
          "time": 112.279292,
          "velocity": 0.6299212598425197
        },
        {
          "duration": 0.44025688333333335,
          "durationTicks": 479,
          "midi": 40,
          "name": "E2",
          "ticks": 122640,
          "time": 112.720468,
          "velocity": 0.6299212598425197
        },
        {
          "duration": 0.2196688833333127,
          "durationTicks": 239,
          "midi": 42,
          "name": "F#2",
          "ticks": 123120,
          "time": 113.16164400000001,
          "velocity": 0.6299212598425197
        },
        {
          "duration": 0.2196688833333269,
          "durationTicks": 239,
          "midi": 43,
          "name": "G2",
          "ticks": 123360,
          "time": 113.382232,
          "velocity": 0.6299212598425197
        },
        {
          "duration": 0.2196688833333127,
          "durationTicks": 239,
          "midi": 40,
          "name": "E2",
          "ticks": 123600,
          "time": 113.60282000000001,
          "velocity": 0.6299212598425197
        },
        {
          "duration": 0.44025688333331914,
          "durationTicks": 479,
          "midi": 48,
          "name": "C3",
          "ticks": 123840,
          "time": 113.823408,
          "velocity": 0.6299212598425197
        },
        {
          "duration": 0.329962883333323,
          "durationTicks": 359,
          "midi": 48,
          "name": "C3",
          "ticks": 124320,
          "time": 114.264584,
          "velocity": 0.6299212598425197
        },
        {
          "duration": 0.10937488333331657,
          "durationTicks": 119,
          "midi": 43,
          "name": "G2",
          "ticks": 124680,
          "time": 114.595466,
          "velocity": 0.6299212598425197
        },
        {
          "duration": 0.2196688833333269,
          "durationTicks": 239,
          "midi": 48,
          "name": "C3",
          "ticks": 124800,
          "time": 114.70576,
          "velocity": 0.6299212598425197
        },
        {
          "duration": 0.2196688833333269,
          "durationTicks": 239,
          "midi": 43,
          "name": "G2",
          "ticks": 125040,
          "time": 114.926348,
          "velocity": 0.6299212598425197
        },
        {
          "duration": 0.2196688833333269,
          "durationTicks": 239,
          "midi": 45,
          "name": "A2",
          "ticks": 125280,
          "time": 115.146936,
          "velocity": 0.6299212598425197
        },
        {
          "duration": 0.2196688833333269,
          "durationTicks": 239,
          "midi": 48,
          "name": "C3",
          "ticks": 125520,
          "time": 115.367524,
          "velocity": 0.6299212598425197
        },
        {
          "duration": 0.2196688833333127,
          "durationTicks": 239,
          "midi": 50,
          "name": "D3",
          "ticks": 125760,
          "time": 115.58811200000001,
          "velocity": 0.6299212598425197
        },
        {
          "duration": 0.2196688833333269,
          "durationTicks": 239,
          "midi": 41,
          "name": "F2",
          "ticks": 126000,
          "time": 115.8087,
          "velocity": 0.6299212598425197
        },
        {
          "duration": 0.2196688833333127,
          "durationTicks": 239,
          "midi": 42,
          "name": "F#2",
          "ticks": 126240,
          "time": 116.02928800000001,
          "velocity": 0.6299212598425197
        },
        {
          "duration": 0.44025688333331914,
          "durationTicks": 479,
          "midi": 43,
          "name": "G2",
          "ticks": 126480,
          "time": 116.249876,
          "velocity": 0.6299212598425197
        },
        {
          "duration": 0.2196688833333269,
          "durationTicks": 239,
          "midi": 45,
          "name": "A2",
          "ticks": 126960,
          "time": 116.691052,
          "velocity": 0.6299212598425197
        },
        {
          "duration": 0.2196688833333127,
          "durationTicks": 239,
          "midi": 47,
          "name": "B2",
          "ticks": 127200,
          "time": 116.91164,
          "velocity": 0.6299212598425197
        },
        {
          "duration": 0.2196688833333269,
          "durationTicks": 239,
          "midi": 43,
          "name": "G2",
          "ticks": 127440,
          "time": 117.132228,
          "velocity": 0.6299212598425197
        },
        {
          "duration": 0.44025688333331914,
          "durationTicks": 479,
          "midi": 48,
          "name": "C3",
          "ticks": 127680,
          "time": 117.352816,
          "velocity": 0.6299212598425197
        },
        {
          "duration": 0.329962883333323,
          "durationTicks": 359,
          "midi": 48,
          "name": "C3",
          "ticks": 128160,
          "time": 117.793992,
          "velocity": 0.6299212598425197
        },
        {
          "duration": 0.10937488333331657,
          "durationTicks": 119,
          "midi": 43,
          "name": "G2",
          "ticks": 128520,
          "time": 118.124874,
          "velocity": 0.6299212598425197
        },
        {
          "duration": 0.2196688833333269,
          "durationTicks": 239,
          "midi": 48,
          "name": "C3",
          "ticks": 128640,
          "time": 118.235168,
          "velocity": 0.6299212598425197
        },
        {
          "duration": 0.2196688833333127,
          "durationTicks": 239,
          "midi": 43,
          "name": "G2",
          "ticks": 128880,
          "time": 118.45575600000001,
          "velocity": 0.6299212598425197
        },
        {
          "duration": 0.2196688833333269,
          "durationTicks": 239,
          "midi": 50,
          "name": "D3",
          "ticks": 129120,
          "time": 118.676344,
          "velocity": 0.6299212598425197
        },
        {
          "duration": 0.2196688833333127,
          "durationTicks": 239,
          "midi": 48,
          "name": "C3",
          "ticks": 129360,
          "time": 118.896932,
          "velocity": 0.6299212598425197
        },
        {
          "duration": 0.2196688833333269,
          "durationTicks": 239,
          "midi": 47,
          "name": "B2",
          "ticks": 129600,
          "time": 119.11752,
          "velocity": 0.6299212598425197
        },
        {
          "duration": 0.2196688833333127,
          "durationTicks": 239,
          "midi": 47,
          "name": "B2",
          "ticks": 129840,
          "time": 119.338108,
          "velocity": 0.6299212598425197
        },
        {
          "duration": 0.2196688833333269,
          "durationTicks": 239,
          "midi": 50,
          "name": "D3",
          "ticks": 130080,
          "time": 119.558696,
          "velocity": 0.6299212598425197
        },
        {
          "duration": 0.44025688333331914,
          "durationTicks": 479,
          "midi": 52,
          "name": "E3",
          "ticks": 130320,
          "time": 119.779284,
          "velocity": 0.6299212598425197
        },
        {
          "duration": 0.2196688833333269,
          "durationTicks": 239,
          "midi": 50,
          "name": "D3",
          "ticks": 130800,
          "time": 120.22046,
          "velocity": 0.6299212598425197
        },
        {
          "duration": 0.10937488333331657,
          "durationTicks": 119,
          "midi": 47,
          "name": "B2",
          "ticks": 131040,
          "time": 120.44104800000001,
          "velocity": 0.6299212598425197
        },
        {
          "duration": 0.10937488333331657,
          "durationTicks": 119,
          "midi": 45,
          "name": "A2",
          "ticks": 131160,
          "time": 120.551342,
          "velocity": 0.6299212598425197
        },
        {
          "duration": 0.2196688833333269,
          "durationTicks": 239,
          "midi": 43,
          "name": "G2",
          "ticks": 131280,
          "time": 120.661636,
          "velocity": 0.6299212598425197
        },
        {
          "duration": 1.7637848833333152,
          "durationTicks": 1919,
          "midi": 45,
          "name": "A2",
          "ticks": 131520,
          "time": 120.88222400000001,
          "velocity": 1
        },
        {
          "duration": 0.8814328833333178,
          "durationTicks": 959,
          "midi": 48,
          "name": "C3",
          "ticks": 133440,
          "time": 122.646928,
          "velocity": 0.7559055118110236
        },
        {
          "duration": 0.6608448833333256,
          "durationTicks": 719,
          "midi": 50,
          "name": "D3",
          "ticks": 134400,
          "time": 123.52928,
          "velocity": 0.7559055118110236
        },
        {
          "duration": 0.2196688833333269,
          "durationTicks": 239,
          "midi": 43,
          "name": "G2",
          "ticks": 135120,
          "time": 124.191044,
          "velocity": 0.7559055118110236
        },
        {
          "duration": 0.10937488333331657,
          "durationTicks": 119,
          "midi": 45,
          "name": "A2",
          "ticks": 135600,
          "time": 124.63222,
          "velocity": 0.8818897637795275
        },
        {
          "duration": 0.10937488333333079,
          "durationTicks": 119,
          "midi": 46,
          "name": "A#2",
          "ticks": 135720,
          "time": 124.742514,
          "velocity": 0.8818897637795275
        },
        {
          "duration": 0.10937488333331657,
          "durationTicks": 119,
          "midi": 47,
          "name": "B2",
          "ticks": 135840,
          "time": 124.85280800000001,
          "velocity": 0.8818897637795275
        },
        {
          "duration": 0.10937488333331657,
          "durationTicks": 119,
          "midi": 50,
          "name": "D3",
          "ticks": 135960,
          "time": 124.963102,
          "velocity": 0.8818897637795275
        },
        {
          "duration": 0.10937488333331657,
          "durationTicks": 119,
          "midi": 45,
          "name": "A2",
          "ticks": 136320,
          "time": 125.29398400000001,
          "velocity": 0.8818897637795275
        },
        {
          "duration": 0.10937488333331657,
          "durationTicks": 119,
          "midi": 46,
          "name": "A#2",
          "ticks": 136440,
          "time": 125.404278,
          "velocity": 0.8818897637795275
        },
        {
          "duration": 0.10937488333333079,
          "durationTicks": 119,
          "midi": 47,
          "name": "B2",
          "ticks": 136560,
          "time": 125.514572,
          "velocity": 0.8818897637795275
        },
        {
          "duration": 0.10937488333333079,
          "durationTicks": 119,
          "midi": 50,
          "name": "D3",
          "ticks": 136680,
          "time": 125.624866,
          "velocity": 0.8818897637795275
        },
        {
          "duration": 0.10937488333333079,
          "durationTicks": 119,
          "midi": 40,
          "name": "E2",
          "ticks": 137040,
          "time": 125.955748,
          "velocity": 0.8818897637795275
        },
        {
          "duration": 0.10937488333331657,
          "durationTicks": 119,
          "midi": 40,
          "name": "E2",
          "ticks": 137160,
          "time": 126.06604200000001,
          "velocity": 0.8818897637795275
        },
        {
          "duration": 0.10937488333333079,
          "durationTicks": 119,
          "midi": 45,
          "name": "A2",
          "ticks": 137520,
          "time": 126.396924,
          "velocity": 0.8818897637795275
        },
        {
          "duration": 0.10937488333331657,
          "durationTicks": 119,
          "midi": 46,
          "name": "A#2",
          "ticks": 137640,
          "time": 126.50721800000001,
          "velocity": 0.8818897637795275
        },
        {
          "duration": 0.10937488333331657,
          "durationTicks": 119,
          "midi": 47,
          "name": "B2",
          "ticks": 137760,
          "time": 126.617512,
          "velocity": 0.8818897637795275
        },
        {
          "duration": 0.10937488333333079,
          "durationTicks": 119,
          "midi": 50,
          "name": "D3",
          "ticks": 137880,
          "time": 126.727806,
          "velocity": 0.8818897637795275
        },
        {
          "duration": 0.44025688333331914,
          "durationTicks": 479,
          "midi": 43,
          "name": "G2",
          "ticks": 138240,
          "time": 127.058688,
          "velocity": 0.8818897637795275
        },
        {
          "duration": 0.329962883333323,
          "durationTicks": 359,
          "midi": 45,
          "name": "A2",
          "ticks": 138720,
          "time": 127.499864,
          "velocity": 0.8818897637795275
        },
        {
          "duration": 0.10937488333331657,
          "durationTicks": 119,
          "midi": 40,
          "name": "E2",
          "ticks": 139080,
          "time": 127.830746,
          "velocity": 0.8818897637795275
        },
        {
          "duration": 0.10937488333331657,
          "durationTicks": 119,
          "midi": 45,
          "name": "A2",
          "ticks": 139440,
          "time": 128.161628,
          "velocity": 0.8818897637795275
        },
        {
          "duration": 0.10937488333331657,
          "durationTicks": 119,
          "midi": 46,
          "name": "A#2",
          "ticks": 139560,
          "time": 128.27192200000002,
          "velocity": 0.8818897637795275
        },
        {
          "duration": 0.10937488333331657,
          "durationTicks": 119,
          "midi": 47,
          "name": "B2",
          "ticks": 139680,
          "time": 128.382216,
          "velocity": 0.8818897637795275
        },
        {
          "duration": 0.10937488333331657,
          "durationTicks": 119,
          "midi": 50,
          "name": "D3",
          "ticks": 139800,
          "time": 128.49251,
          "velocity": 0.8818897637795275
        },
        {
          "duration": 0.10937488333331657,
          "durationTicks": 119,
          "midi": 45,
          "name": "A2",
          "ticks": 140160,
          "time": 128.823392,
          "velocity": 0.8818897637795275
        },
        {
          "duration": 0.109374883333345,
          "durationTicks": 119,
          "midi": 46,
          "name": "A#2",
          "ticks": 140280,
          "time": 128.933686,
          "velocity": 0.8818897637795275
        },
        {
          "duration": 0.10937488333331657,
          "durationTicks": 119,
          "midi": 47,
          "name": "B2",
          "ticks": 140400,
          "time": 129.04398,
          "velocity": 0.8818897637795275
        },
        {
          "duration": 0.10937488333331657,
          "durationTicks": 119,
          "midi": 50,
          "name": "D3",
          "ticks": 140520,
          "time": 129.15427400000002,
          "velocity": 0.8818897637795275
        },
        {
          "duration": 0.10937488333331657,
          "durationTicks": 119,
          "midi": 40,
          "name": "E2",
          "ticks": 140880,
          "time": 129.48515600000002,
          "velocity": 0.8818897637795275
        },
        {
          "duration": 0.10937488333331657,
          "durationTicks": 119,
          "midi": 40,
          "name": "E2",
          "ticks": 141000,
          "time": 129.59545,
          "velocity": 0.8818897637795275
        },
        {
          "duration": 0.10937488333331657,
          "durationTicks": 119,
          "midi": 47,
          "name": "B2",
          "ticks": 141360,
          "time": 129.926332,
          "velocity": 0.8818897637795275
        },
        {
          "duration": 0.10937488333331657,
          "durationTicks": 119,
          "midi": 45,
          "name": "A2",
          "ticks": 141480,
          "time": 130.036626,
          "velocity": 0.8818897637795275
        },
        {
          "duration": 0.109374883333345,
          "durationTicks": 119,
          "midi": 43,
          "name": "G2",
          "ticks": 141600,
          "time": 130.14692,
          "velocity": 0.8818897637795275
        },
        {
          "duration": 0.10937488333331657,
          "durationTicks": 119,
          "midi": 40,
          "name": "E2",
          "ticks": 141720,
          "time": 130.257214,
          "velocity": 0.8818897637795275
        },
        {
          "duration": 0.44025688333331914,
          "durationTicks": 479,
          "midi": 43,
          "name": "G2",
          "ticks": 142080,
          "time": 130.588096,
          "velocity": 0.8818897637795275
        },
        {
          "duration": 0.32996288333333723,
          "durationTicks": 359,
          "midi": 45,
          "name": "A2",
          "ticks": 142560,
          "time": 131.029272,
          "velocity": 0.8818897637795275
        },
        {
          "duration": 0.109374883333345,
          "durationTicks": 119,
          "midi": 40,
          "name": "E2",
          "ticks": 142920,
          "time": 131.360154,
          "velocity": 0.8818897637795275
        },
        {
          "duration": 0.10937488333331657,
          "durationTicks": 119,
          "midi": 45,
          "name": "A2",
          "ticks": 143280,
          "time": 131.691036,
          "velocity": 0.8818897637795275
        },
        {
          "duration": 0.10937488333331657,
          "durationTicks": 119,
          "midi": 46,
          "name": "A#2",
          "ticks": 143400,
          "time": 131.80133,
          "velocity": 0.8818897637795275
        },
        {
          "duration": 0.10937488333331657,
          "durationTicks": 119,
          "midi": 47,
          "name": "B2",
          "ticks": 143520,
          "time": 131.91162400000002,
          "velocity": 0.8818897637795275
        },
        {
          "duration": 0.10937488333331657,
          "durationTicks": 119,
          "midi": 50,
          "name": "D3",
          "ticks": 143640,
          "time": 132.021918,
          "velocity": 0.8818897637795275
        },
        {
          "duration": 0.10937488333331657,
          "durationTicks": 119,
          "midi": 45,
          "name": "A2",
          "ticks": 144000,
          "time": 132.3528,
          "velocity": 0.8818897637795275
        },
        {
          "duration": 0.10937488333331657,
          "durationTicks": 119,
          "midi": 46,
          "name": "A#2",
          "ticks": 144120,
          "time": 132.463094,
          "velocity": 0.8818897637795275
        },
        {
          "duration": 0.109374883333345,
          "durationTicks": 119,
          "midi": 47,
          "name": "B2",
          "ticks": 144240,
          "time": 132.573388,
          "velocity": 0.8818897637795275
        },
        {
          "duration": 0.10937488333331657,
          "durationTicks": 119,
          "midi": 50,
          "name": "D3",
          "ticks": 144360,
          "time": 132.683682,
          "velocity": 0.8818897637795275
        },
        {
          "duration": 0.10937488333331657,
          "durationTicks": 119,
          "midi": 40,
          "name": "E2",
          "ticks": 144720,
          "time": 133.014564,
          "velocity": 0.8818897637795275
        },
        {
          "duration": 0.10937488333331657,
          "durationTicks": 119,
          "midi": 40,
          "name": "E2",
          "ticks": 144840,
          "time": 133.12485800000002,
          "velocity": 0.8818897637795275
        },
        {
          "duration": 0.109374883333345,
          "durationTicks": 119,
          "midi": 45,
          "name": "A2",
          "ticks": 145200,
          "time": 133.45574,
          "velocity": 0.8818897637795275
        },
        {
          "duration": 0.10937488333331657,
          "durationTicks": 119,
          "midi": 46,
          "name": "A#2",
          "ticks": 145320,
          "time": 133.566034,
          "velocity": 0.8818897637795275
        },
        {
          "duration": 0.10937488333331657,
          "durationTicks": 119,
          "midi": 47,
          "name": "B2",
          "ticks": 145440,
          "time": 133.676328,
          "velocity": 0.8818897637795275
        },
        {
          "duration": 0.109374883333345,
          "durationTicks": 119,
          "midi": 50,
          "name": "D3",
          "ticks": 145560,
          "time": 133.786622,
          "velocity": 0.8818897637795275
        },
        {
          "duration": 0.44025688333331914,
          "durationTicks": 479,
          "midi": 43,
          "name": "G2",
          "ticks": 145920,
          "time": 134.117504,
          "velocity": 0.8818897637795275
        },
        {
          "duration": 0.3299628833333088,
          "durationTicks": 359,
          "midi": 45,
          "name": "A2",
          "ticks": 146400,
          "time": 134.55868,
          "velocity": 0.8818897637795275
        },
        {
          "duration": 0.10937488333331657,
          "durationTicks": 119,
          "midi": 40,
          "name": "E2",
          "ticks": 146760,
          "time": 134.889562,
          "velocity": 0.8818897637795275
        },
        {
          "duration": 0.10937488333331657,
          "durationTicks": 119,
          "midi": 45,
          "name": "A2",
          "ticks": 147120,
          "time": 135.22044400000001,
          "velocity": 0.8818897637795275
        },
        {
          "duration": 0.10937488333331657,
          "durationTicks": 119,
          "midi": 46,
          "name": "A#2",
          "ticks": 147240,
          "time": 135.330738,
          "velocity": 0.8818897637795275
        },
        {
          "duration": 0.10937488333331657,
          "durationTicks": 119,
          "midi": 47,
          "name": "B2",
          "ticks": 147360,
          "time": 135.441032,
          "velocity": 0.8818897637795275
        },
        {
          "duration": 0.10937488333331657,
          "durationTicks": 119,
          "midi": 50,
          "name": "D3",
          "ticks": 147480,
          "time": 135.55132600000002,
          "velocity": 0.8818897637795275
        },
        {
          "duration": 0.109374883333345,
          "durationTicks": 119,
          "midi": 45,
          "name": "A2",
          "ticks": 147840,
          "time": 135.882208,
          "velocity": 0.8818897637795275
        },
        {
          "duration": 0.10937488333331657,
          "durationTicks": 119,
          "midi": 46,
          "name": "A#2",
          "ticks": 147960,
          "time": 135.992502,
          "velocity": 0.8818897637795275
        },
        {
          "duration": 0.10937488333331657,
          "durationTicks": 119,
          "midi": 47,
          "name": "B2",
          "ticks": 148080,
          "time": 136.102796,
          "velocity": 0.8818897637795275
        },
        {
          "duration": 0.109374883333345,
          "durationTicks": 119,
          "midi": 50,
          "name": "D3",
          "ticks": 148200,
          "time": 136.21309,
          "velocity": 0.8818897637795275
        },
        {
          "duration": 0.10937488333331657,
          "durationTicks": 119,
          "midi": 40,
          "name": "E2",
          "ticks": 148560,
          "time": 136.543972,
          "velocity": 0.8818897637795275
        },
        {
          "duration": 0.10937488333331657,
          "durationTicks": 119,
          "midi": 40,
          "name": "E2",
          "ticks": 148680,
          "time": 136.654266,
          "velocity": 0.8818897637795275
        },
        {
          "duration": 0.10937488333331657,
          "durationTicks": 119,
          "midi": 47,
          "name": "B2",
          "ticks": 149040,
          "time": 136.985148,
          "velocity": 0.8818897637795275
        },
        {
          "duration": 0.109374883333345,
          "durationTicks": 119,
          "midi": 45,
          "name": "A2",
          "ticks": 149160,
          "time": 137.095442,
          "velocity": 0.8818897637795275
        },
        {
          "duration": 0.10937488333331657,
          "durationTicks": 119,
          "midi": 43,
          "name": "G2",
          "ticks": 149280,
          "time": 137.205736,
          "velocity": 0.8818897637795275
        },
        {
          "duration": 0.10937488333331657,
          "durationTicks": 119,
          "midi": 40,
          "name": "E2",
          "ticks": 149400,
          "time": 137.31603,
          "velocity": 0.8818897637795275
        },
        {
          "duration": 0.44025688333331914,
          "durationTicks": 479,
          "midi": 43,
          "name": "G2",
          "ticks": 149760,
          "time": 137.64691200000001,
          "velocity": 0.8818897637795275
        },
        {
          "duration": 0.32996288333333723,
          "durationTicks": 359,
          "midi": 45,
          "name": "A2",
          "ticks": 150240,
          "time": 138.088088,
          "velocity": 0.8818897637795275
        },
        {
          "duration": 0.10937488333331657,
          "durationTicks": 119,
          "midi": 40,
          "name": "E2",
          "ticks": 150600,
          "time": 138.41897,
          "velocity": 0.8818897637795275
        },
        {
          "duration": 0.029411733333319035,
          "durationTicks": 32,
          "midi": 40,
          "name": "E2",
          "ticks": 151440,
          "time": 139.19102800000002,
          "velocity": 0.8818897637795275
        },
        {
          "duration": 0.029411733333347456,
          "durationTicks": 32,
          "midi": 41,
          "name": "F2",
          "ticks": 151473,
          "time": 139.22135885,
          "velocity": 0.8818897637795275
        },
        {
          "duration": 0.029411733333319035,
          "durationTicks": 32,
          "midi": 42,
          "name": "F#2",
          "ticks": 151507,
          "time": 139.25260881666668,
          "velocity": 0.8818897637795275
        },
        {
          "duration": 0.029411733333319035,
          "durationTicks": 32,
          "midi": 43,
          "name": "G2",
          "ticks": 151542,
          "time": 139.2847779,
          "velocity": 0.8818897637795275
        },
        {
          "duration": 0.029411733333319035,
          "durationTicks": 32,
          "midi": 44,
          "name": "G#2",
          "ticks": 151575,
          "time": 139.31510875,
          "velocity": 0.8818897637795275
        },
        {
          "duration": 0.029411733333347456,
          "durationTicks": 32,
          "midi": 45,
          "name": "A2",
          "ticks": 151609,
          "time": 139.34635871666666,
          "velocity": 0.8818897637795275
        },
        {
          "duration": 0.03216908333331503,
          "durationTicks": 35,
          "midi": 46,
          "name": "A#2",
          "ticks": 151644,
          "time": 139.3785278,
          "velocity": 0.8818897637795275
        },
        {
          "duration": 0.10937488333331657,
          "durationTicks": 119,
          "midi": 47,
          "name": "B2",
          "ticks": 151680,
          "time": 139.411616,
          "velocity": 0.8818897637795275
        },
        {
          "duration": 0.10937488333331657,
          "durationTicks": 119,
          "midi": 45,
          "name": "A2",
          "ticks": 151920,
          "time": 139.632204,
          "velocity": 0.8818897637795275
        },
        {
          "duration": 0.109374883333345,
          "durationTicks": 119,
          "midi": 43,
          "name": "G2",
          "ticks": 152160,
          "time": 139.852792,
          "velocity": 0.8818897637795275
        },
        {
          "duration": 0.2196688833333269,
          "durationTicks": 239,
          "midi": 40,
          "name": "E2",
          "ticks": 152280,
          "time": 139.963086,
          "velocity": 0.8818897637795275
        },
        {
          "duration": 0.2196688833333269,
          "durationTicks": 239,
          "midi": 62,
          "name": "D4",
          "ticks": 154800,
          "time": 142.27926,
          "velocity": 0.6299212598425197
        },
        {
          "duration": 0.21966888333329848,
          "durationTicks": 239,
          "midi": 62,
          "name": "D4",
          "ticks": 155040,
          "time": 142.49984800000001,
          "velocity": 0.6299212598425197
        },
        {
          "duration": 0.2196688833333269,
          "durationTicks": 239,
          "midi": 62,
          "name": "D4",
          "ticks": 155280,
          "time": 142.720436,
          "velocity": 0.6299212598425197
        },
        {
          "duration": 0.44025688333331914,
          "durationTicks": 479,
          "midi": 62,
          "name": "D4",
          "ticks": 155520,
          "time": 142.941024,
          "velocity": 0.6299212598425197
        },
        {
          "duration": 0.44025688333331914,
          "durationTicks": 479,
          "midi": 55,
          "name": "G3",
          "ticks": 156000,
          "time": 143.3822,
          "velocity": 0.6299212598425197
        },
        {
          "duration": 0.2196688833333269,
          "durationTicks": 239,
          "midi": 54,
          "name": "F#3",
          "ticks": 156480,
          "time": 143.823376,
          "velocity": 0.6299212598425197
        },
        {
          "duration": 0.44025688333331914,
          "durationTicks": 479,
          "midi": 55,
          "name": "G3",
          "ticks": 156720,
          "time": 144.04396400000002,
          "velocity": 0.6299212598425197
        },
        {
          "duration": 1.1020208833333243,
          "durationTicks": 1199,
          "midi": 55,
          "name": "G3",
          "ticks": 157200,
          "time": 144.48514,
          "velocity": 0.6299212598425197
        },
        {
          "duration": 0.44025688333331914,
          "durationTicks": 479,
          "midi": 62,
          "name": "D4",
          "ticks": 158640,
          "time": 145.808668,
          "velocity": 0.6299212598425197
        },
        {
          "duration": 0.2196688833333269,
          "durationTicks": 239,
          "midi": 62,
          "name": "D4",
          "ticks": 159120,
          "time": 146.249844,
          "velocity": 0.6299212598425197
        },
        {
          "duration": 0.44025688333331914,
          "durationTicks": 479,
          "midi": 62,
          "name": "D4",
          "ticks": 159360,
          "time": 146.47043200000002,
          "velocity": 0.6299212598425197
        },
        {
          "duration": 0.44025688333331914,
          "durationTicks": 479,
          "midi": 55,
          "name": "G3",
          "ticks": 159840,
          "time": 146.911608,
          "velocity": 0.6299212598425197
        },
        {
          "duration": 0.21966888333329848,
          "durationTicks": 239,
          "midi": 53,
          "name": "F3",
          "ticks": 160320,
          "time": 147.352784,
          "velocity": 0.6299212598425197
        },
        {
          "duration": 0.2196688833333269,
          "durationTicks": 239,
          "midi": 55,
          "name": "G3",
          "ticks": 160560,
          "time": 147.573372,
          "velocity": 0.6299212598425197
        },
        {
          "duration": 0.2196688833333269,
          "durationTicks": 239,
          "midi": 57,
          "name": "A3",
          "ticks": 160800,
          "time": 147.79396,
          "velocity": 0.6299212598425197
        },
        {
          "duration": 1.1020208833333243,
          "durationTicks": 1199,
          "midi": 55,
          "name": "G3",
          "ticks": 161040,
          "time": 148.014548,
          "velocity": 0.6299212598425197
        },
        {
          "duration": 0.2196688833333269,
          "durationTicks": 239,
          "midi": 62,
          "name": "D4",
          "ticks": 162480,
          "time": 149.338076,
          "velocity": 0.6299212598425197
        },
        {
          "duration": 0.2196688833333269,
          "durationTicks": 239,
          "midi": 62,
          "name": "D4",
          "ticks": 162720,
          "time": 149.558664,
          "velocity": 0.6299212598425197
        },
        {
          "duration": 0.21966888333329848,
          "durationTicks": 239,
          "midi": 62,
          "name": "D4",
          "ticks": 162960,
          "time": 149.779252,
          "velocity": 0.6299212598425197
        },
        {
          "duration": 0.44025688333331914,
          "durationTicks": 479,
          "midi": 62,
          "name": "D4",
          "ticks": 163200,
          "time": 149.99984,
          "velocity": 0.6299212598425197
        },
        {
          "duration": 0.44025688333334756,
          "durationTicks": 479,
          "midi": 67,
          "name": "G4",
          "ticks": 163680,
          "time": 150.441016,
          "velocity": 0.6299212598425197
        },
        {
          "duration": 0.44025688333331914,
          "durationTicks": 479,
          "midi": 66,
          "name": "F#4",
          "ticks": 164160,
          "time": 150.882192,
          "velocity": 0.6299212598425197
        },
        {
          "duration": 0.21966888333329848,
          "durationTicks": 239,
          "midi": 67,
          "name": "G4",
          "ticks": 164640,
          "time": 151.32336800000002,
          "velocity": 0.6299212598425197
        },
        {
          "duration": 1.1020208833333243,
          "durationTicks": 1199,
          "midi": 67,
          "name": "G4",
          "ticks": 164880,
          "time": 151.543956,
          "velocity": 0.6299212598425197
        },
        {
          "duration": 1.7637848833333294,
          "durationTicks": 1919,
          "midi": 45,
          "name": "A2",
          "ticks": 166080,
          "time": 152.646896,
          "velocity": 0.9921259842519685
        },
        {
          "duration": 0.881432883333332,
          "durationTicks": 959,
          "midi": 48,
          "name": "C3",
          "ticks": 168000,
          "time": 154.4116,
          "velocity": 0.7559055118110236
        },
        {
          "duration": 0.6608448833333398,
          "durationTicks": 719,
          "midi": 50,
          "name": "D3",
          "ticks": 168960,
          "time": 155.293952,
          "velocity": 0.7559055118110236
        },
        {
          "duration": 0.44025688333331914,
          "durationTicks": 479,
          "midi": 43,
          "name": "G2",
          "ticks": 169680,
          "time": 155.955716,
          "velocity": 0.7559055118110236
        },
        {
          "duration": 0.2196688833333269,
          "durationTicks": 239,
          "midi": 62,
          "name": "D4",
          "ticks": 172080,
          "time": 158.161596,
          "velocity": 0.9921259842519685
        },
        {
          "duration": 0.2196688833333269,
          "durationTicks": 239,
          "midi": 62,
          "name": "D4",
          "ticks": 172320,
          "time": 158.382184,
          "velocity": 0.9921259842519685
        },
        {
          "duration": 0.21966888333329848,
          "durationTicks": 239,
          "midi": 62,
          "name": "D4",
          "ticks": 172560,
          "time": 158.60277200000002,
          "velocity": 0.9921259842519685
        },
        {
          "duration": 0.44025688333331914,
          "durationTicks": 479,
          "midi": 62,
          "name": "D4",
          "ticks": 172800,
          "time": 158.82336,
          "velocity": 0.9921259842519685
        },
        {
          "duration": 0.44025688333334756,
          "durationTicks": 479,
          "midi": 55,
          "name": "G3",
          "ticks": 173280,
          "time": 159.264536,
          "velocity": 0.9921259842519685
        },
        {
          "duration": 0.2196688833333269,
          "durationTicks": 239,
          "midi": 54,
          "name": "F#3",
          "ticks": 173760,
          "time": 159.705712,
          "velocity": 0.9921259842519685
        },
        {
          "duration": 0.44025688333331914,
          "durationTicks": 479,
          "midi": 55,
          "name": "G3",
          "ticks": 174000,
          "time": 159.9263,
          "velocity": 0.9921259842519685
        },
        {
          "duration": 1.1020208833333243,
          "durationTicks": 1199,
          "midi": 55,
          "name": "G3",
          "ticks": 174480,
          "time": 160.367476,
          "velocity": 0.9921259842519685
        },
        {
          "duration": 0.44025688333334756,
          "durationTicks": 479,
          "midi": 62,
          "name": "D4",
          "ticks": 175920,
          "time": 161.691004,
          "velocity": 0.9921259842519685
        },
        {
          "duration": 0.2196688833333269,
          "durationTicks": 239,
          "midi": 62,
          "name": "D4",
          "ticks": 176400,
          "time": 162.13218,
          "velocity": 0.9921259842519685
        },
        {
          "duration": 0.44025688333331914,
          "durationTicks": 479,
          "midi": 62,
          "name": "D4",
          "ticks": 176640,
          "time": 162.352768,
          "velocity": 0.9921259842519685
        },
        {
          "duration": 0.44025688333331914,
          "durationTicks": 479,
          "midi": 55,
          "name": "G3",
          "ticks": 177120,
          "time": 162.793944,
          "velocity": 0.9921259842519685
        },
        {
          "duration": 0.2196688833333269,
          "durationTicks": 239,
          "midi": 53,
          "name": "F3",
          "ticks": 177600,
          "time": 163.23512,
          "velocity": 0.9921259842519685
        },
        {
          "duration": 0.21966888333329848,
          "durationTicks": 239,
          "midi": 55,
          "name": "G3",
          "ticks": 177840,
          "time": 163.45570800000002,
          "velocity": 0.9921259842519685
        },
        {
          "duration": 0.2196688833333269,
          "durationTicks": 239,
          "midi": 57,
          "name": "A3",
          "ticks": 178080,
          "time": 163.676296,
          "velocity": 0.9921259842519685
        },
        {
          "duration": 1.1020208833333243,
          "durationTicks": 1199,
          "midi": 55,
          "name": "G3",
          "ticks": 178320,
          "time": 163.896884,
          "velocity": 0.9921259842519685
        },
        {
          "duration": 0.2196688833333269,
          "durationTicks": 239,
          "midi": 62,
          "name": "D4",
          "ticks": 179760,
          "time": 165.220412,
          "velocity": 0.9921259842519685
        },
        {
          "duration": 0.2196688833333269,
          "durationTicks": 239,
          "midi": 62,
          "name": "D4",
          "ticks": 180000,
          "time": 165.441,
          "velocity": 0.9921259842519685
        },
        {
          "duration": 0.2196688833333269,
          "durationTicks": 239,
          "midi": 62,
          "name": "D4",
          "ticks": 180240,
          "time": 165.661588,
          "velocity": 0.9921259842519685
        },
        {
          "duration": 0.44025688333331914,
          "durationTicks": 479,
          "midi": 62,
          "name": "D4",
          "ticks": 180480,
          "time": 165.88217600000002,
          "velocity": 0.9921259842519685
        },
        {
          "duration": 0.44025688333331914,
          "durationTicks": 479,
          "midi": 67,
          "name": "G4",
          "ticks": 180960,
          "time": 166.323352,
          "velocity": 0.9921259842519685
        },
        {
          "duration": 0.44025688333331914,
          "durationTicks": 479,
          "midi": 66,
          "name": "F#4",
          "ticks": 181440,
          "time": 166.764528,
          "velocity": 0.9921259842519685
        },
        {
          "duration": 0.2196688833333269,
          "durationTicks": 239,
          "midi": 67,
          "name": "G4",
          "ticks": 181920,
          "time": 167.205704,
          "velocity": 0.9921259842519685
        },
        {
          "duration": 1.1020208833332958,
          "durationTicks": 1199,
          "midi": 67,
          "name": "G4",
          "ticks": 182160,
          "time": 167.42629200000002,
          "velocity": 0.9921259842519685
        },
        {
          "duration": 1.7637848833333294,
          "durationTicks": 1919,
          "midi": 45,
          "name": "A2",
          "ticks": 183360,
          "time": 168.529232,
          "velocity": 1
        },
        {
          "duration": 0.881432883333332,
          "durationTicks": 959,
          "midi": 48,
          "name": "C3",
          "ticks": 185280,
          "time": 170.293936,
          "velocity": 0.9921259842519685
        },
        {
          "duration": 0.6608448833333398,
          "durationTicks": 719,
          "midi": 50,
          "name": "D3",
          "ticks": 186240,
          "time": 171.176288,
          "velocity": 0.9921259842519685
        },
        {
          "duration": 0.881432883333332,
          "durationTicks": 959,
          "midi": 43,
          "name": "G2",
          "ticks": 186960,
          "time": 171.838052,
          "velocity": 0.9921259842519685
        },
        {
          "duration": 0.44025688333331914,
          "durationTicks": 479,
          "midi": 48,
          "name": "C3",
          "ticks": 187920,
          "time": 172.720404,
          "velocity": 0.9921259842519685
        },
        {
          "duration": 0.21966888333329848,
          "durationTicks": 239,
          "midi": 45,
          "name": "A2",
          "ticks": 188400,
          "time": 173.16158000000001,
          "velocity": 0.9921259842519685
        },
        {
          "duration": 0.2196688833333269,
          "durationTicks": 239,
          "midi": 48,
          "name": "C3",
          "ticks": 188640,
          "time": 173.382168,
          "velocity": 0.9921259842519685
        },
        {
          "duration": 0.44025688333331914,
          "durationTicks": 479,
          "midi": 54,
          "name": "F#3",
          "ticks": 188880,
          "time": 173.602756,
          "velocity": 0.9921259842519685
        },
        {
          "duration": 0.2196688833333269,
          "durationTicks": 239,
          "midi": 45,
          "name": "A2",
          "ticks": 189360,
          "time": 174.043932,
          "velocity": 0.9921259842519685
        },
        {
          "duration": 0.2196688833333269,
          "durationTicks": 239,
          "midi": 46,
          "name": "A#2",
          "ticks": 189600,
          "time": 174.26452,
          "velocity": 0.9921259842519685
        },
        {
          "duration": 1.1020208833333243,
          "durationTicks": 1199,
          "midi": 47,
          "name": "B2",
          "ticks": 189840,
          "time": 174.485108,
          "velocity": 0.9921259842519685
        },
        {
          "duration": 0.10937488333331657,
          "durationTicks": 119,
          "midi": 55,
          "name": "G3",
          "ticks": 191040,
          "time": 175.58804800000001,
          "velocity": 0.9921259842519685
        },
        {
          "duration": 0.10937488333331657,
          "durationTicks": 119,
          "midi": 52,
          "name": "E3",
          "ticks": 191160,
          "time": 175.698342,
          "velocity": 0.9921259842519685
        },
        {
          "duration": 0.10937488333331657,
          "durationTicks": 119,
          "midi": 50,
          "name": "D3",
          "ticks": 191280,
          "time": 175.808636,
          "velocity": 0.9921259842519685
        },
        {
          "duration": 0.10937488333331657,
          "durationTicks": 119,
          "midi": 47,
          "name": "B2",
          "ticks": 191400,
          "time": 175.91893000000002,
          "velocity": 0.9921259842519685
        },
        {
          "duration": 0.109374883333345,
          "durationTicks": 119,
          "midi": 52,
          "name": "E3",
          "ticks": 191760,
          "time": 176.249812,
          "velocity": 0.9921259842519685
        },
        {
          "duration": 0.10937488333331657,
          "durationTicks": 119,
          "midi": 50,
          "name": "D3",
          "ticks": 191880,
          "time": 176.360106,
          "velocity": 0.9921259842519685
        },
        {
          "duration": 0.10937488333331657,
          "durationTicks": 119,
          "midi": 47,
          "name": "B2",
          "ticks": 192000,
          "time": 176.4704,
          "velocity": 0.9921259842519685
        },
        {
          "duration": 0.109374883333345,
          "durationTicks": 119,
          "midi": 45,
          "name": "A2",
          "ticks": 192120,
          "time": 176.580694,
          "velocity": 0.9921259842519685
        },
        {
          "duration": 0.10937488333331657,
          "durationTicks": 119,
          "midi": 50,
          "name": "D3",
          "ticks": 192480,
          "time": 176.911576,
          "velocity": 0.9921259842519685
        },
        {
          "duration": 0.10937488333331657,
          "durationTicks": 119,
          "midi": 47,
          "name": "B2",
          "ticks": 192600,
          "time": 177.02187,
          "velocity": 0.9921259842519685
        },
        {
          "duration": 0.10937488333331657,
          "durationTicks": 119,
          "midi": 45,
          "name": "A2",
          "ticks": 192720,
          "time": 177.13216400000002,
          "velocity": 0.9921259842519685
        },
        {
          "duration": 0.10937488333331657,
          "durationTicks": 119,
          "midi": 43,
          "name": "G2",
          "ticks": 192840,
          "time": 177.242458,
          "velocity": 0.9921259842519685
        },
        {
          "duration": 0.10937488333331657,
          "durationTicks": 119,
          "midi": 47,
          "name": "B2",
          "ticks": 193200,
          "time": 177.57334,
          "velocity": 0.9921259842519685
        },
        {
          "duration": 0.10937488333331657,
          "durationTicks": 119,
          "midi": 45,
          "name": "A2",
          "ticks": 193320,
          "time": 177.683634,
          "velocity": 0.9921259842519685
        },
        {
          "duration": 0.109374883333345,
          "durationTicks": 119,
          "midi": 43,
          "name": "G2",
          "ticks": 193440,
          "time": 177.793928,
          "velocity": 0.9921259842519685
        },
        {
          "duration": 0.10937488333331657,
          "durationTicks": 119,
          "midi": 40,
          "name": "E2",
          "ticks": 193560,
          "time": 177.904222,
          "velocity": 0.9921259842519685
        },
        {
          "duration": 0.10937488333331657,
          "durationTicks": 119,
          "midi": 45,
          "name": "A2",
          "ticks": 194160,
          "time": 178.455692,
          "velocity": 0.9921259842519685
        },
        {
          "duration": 0.10937488333331657,
          "durationTicks": 119,
          "midi": 47,
          "name": "B2",
          "ticks": 194280,
          "time": 178.565986,
          "velocity": 0.9921259842519685
        },
        {
          "duration": 0.109374883333345,
          "durationTicks": 119,
          "midi": 55,
          "name": "G3",
          "ticks": 194400,
          "time": 178.67628,
          "velocity": 0.9921259842519685
        },
        {
          "duration": 0.10937488333331657,
          "durationTicks": 119,
          "midi": 54,
          "name": "F#3",
          "ticks": 194520,
          "time": 178.786574,
          "velocity": 0.9921259842519685
        },
        {
          "duration": 0.10937488333331657,
          "durationTicks": 119,
          "midi": 47,
          "name": "B2",
          "ticks": 194640,
          "time": 178.896868,
          "velocity": 0.9921259842519685
        },
        {
          "duration": 0.32996288333333723,
          "durationTicks": 359,
          "midi": 38,
          "name": "D2",
          "ticks": 194760,
          "time": 179.007162,
          "velocity": 0.9921259842519685
        },
        {
          "duration": 0.32996288333333723,
          "durationTicks": 359,
          "midi": 50,
          "name": "D3",
          "ticks": 194760,
          "time": 179.007162,
          "velocity": 0.9921259842519685
        },
        {
          "duration": 0.2196688833333269,
          "durationTicks": 239,
          "midi": 40,
          "name": "E2",
          "ticks": 195120,
          "time": 179.338044,
          "velocity": 0.9921259842519685
        },
        {
          "duration": 0.2196688833333269,
          "durationTicks": 239,
          "midi": 52,
          "name": "E3",
          "ticks": 195120,
          "time": 179.338044,
          "velocity": 0.9921259842519685
        }
      ]
    },
    {
      "channel": 0,
      "controlChanges": {
        "121": [
          {
            "number": 121,
            "ticks": 0,
            "time": 0,
            "value": 0
          }
        ]
      },
      "pitchBends": [],
      "instrument": {
        "family": "piano",
        "number": 0,
        "name": "acoustic grand piano"
      },
      "name": "",
      "notes": [],
      "endOfTrackTicks": 195360
    },
    {
      "channel": 3,
      "controlChanges": {
        "7": [
          {
            "number": 7,
            "ticks": 0,
            "time": 0,
            "value": 0.7874015748031497
          }
        ],
        "10": [
          {
            "number": 10,
            "ticks": 0,
            "time": 0,
            "value": 0.5039370078740157
          }
        ],
        "91": [
          {
            "number": 91,
            "ticks": 0,
            "time": 0,
            "value": 0
          }
        ],
        "93": [
          {
            "number": 93,
            "ticks": 0,
            "time": 0,
            "value": 0
          }
        ]
      },
      "pitchBends": [],
      "instrument": {
        "family": "brass",
        "number": 56,
        "name": "trumpet"
      },
      "name": "",
      "notes": [
        {
          "duration": 0.10937488333333334,
          "durationTicks": 119,
          "midi": 69,
          "name": "A4",
          "ticks": 0,
          "time": 0,
          "velocity": 0.6299212598425197
        },
        {
          "duration": 0.10937488333333334,
          "durationTicks": 119,
          "midi": 70,
          "name": "A#4",
          "ticks": 120,
          "time": 0.110294,
          "velocity": 0.6299212598425197
        },
        {
          "duration": 0.10937488333333334,
          "durationTicks": 119,
          "midi": 71,
          "name": "B4",
          "ticks": 240,
          "time": 0.220588,
          "velocity": 0.6299212598425197
        },
        {
          "duration": 0.10937488333333334,
          "durationTicks": 119,
          "midi": 74,
          "name": "D5",
          "ticks": 360,
          "time": 0.330882,
          "velocity": 0.6299212598425197
        },
        {
          "duration": 0.10937488333333334,
          "durationTicks": 119,
          "midi": 69,
          "name": "A4",
          "ticks": 720,
          "time": 0.661764,
          "velocity": 0.6299212598425197
        },
        {
          "duration": 0.10937488333333334,
          "durationTicks": 119,
          "midi": 70,
          "name": "A#4",
          "ticks": 840,
          "time": 0.772058,
          "velocity": 0.6299212598425197
        },
        {
          "duration": 0.10937488333333334,
          "durationTicks": 119,
          "midi": 71,
          "name": "B4",
          "ticks": 960,
          "time": 0.882352,
          "velocity": 0.6299212598425197
        },
        {
          "duration": 0.10937488333333334,
          "durationTicks": 119,
          "midi": 74,
          "name": "D5",
          "ticks": 1080,
          "time": 0.992646,
          "velocity": 0.6299212598425197
        },
        {
          "duration": 0.10937488333333345,
          "durationTicks": 119,
          "midi": 74,
          "name": "D5",
          "ticks": 1440,
          "time": 1.323528,
          "velocity": 0.6299212598425197
        },
        {
          "duration": 0.10937488333333323,
          "durationTicks": 119,
          "midi": 74,
          "name": "D5",
          "ticks": 1560,
          "time": 1.4338220000000002,
          "velocity": 0.6299212598425197
        },
        {
          "duration": 0.10937488333333345,
          "durationTicks": 119,
          "midi": 69,
          "name": "A4",
          "ticks": 1920,
          "time": 1.764704,
          "velocity": 0.6299212598425197
        },
        {
          "duration": 0.10937488333333323,
          "durationTicks": 119,
          "midi": 70,
          "name": "A#4",
          "ticks": 2040,
          "time": 1.8749980000000002,
          "velocity": 0.6299212598425197
        },
        {
          "duration": 0.10937488333333323,
          "durationTicks": 119,
          "midi": 71,
          "name": "B4",
          "ticks": 2160,
          "time": 1.985292,
          "velocity": 0.6299212598425197
        },
        {
          "duration": 0.10937488333333345,
          "durationTicks": 119,
          "midi": 74,
          "name": "D5",
          "ticks": 2280,
          "time": 2.095586,
          "velocity": 0.6299212598425197
        },
        {
          "duration": 0.10937488333333345,
          "durationTicks": 119,
          "midi": 71,
          "name": "B4",
          "ticks": 2640,
          "time": 2.426468,
          "velocity": 0.6299212598425197
        },
        {
          "duration": 0.10937488333333345,
          "durationTicks": 119,
          "midi": 69,
          "name": "A4",
          "ticks": 2760,
          "time": 2.536762,
          "velocity": 0.6299212598425197
        },
        {
          "duration": 0.10937488333333345,
          "durationTicks": 119,
          "midi": 67,
          "name": "G4",
          "ticks": 2880,
          "time": 2.647056,
          "velocity": 0.6299212598425197
        },
        {
          "duration": 0.10937488333333345,
          "durationTicks": 119,
          "midi": 64,
          "name": "E4",
          "ticks": 3000,
          "time": 2.75735,
          "velocity": 0.6299212598425197
        },
        {
          "duration": 0.10937488333333345,
          "durationTicks": 119,
          "midi": 76,
          "name": "E5",
          "ticks": 3360,
          "time": 3.088232,
          "velocity": 0.6299212598425197
        },
        {
          "duration": 0.10937488333333345,
          "durationTicks": 119,
          "midi": 76,
          "name": "E5",
          "ticks": 3480,
          "time": 3.198526,
          "velocity": 0.6299212598425197
        },
        {
          "duration": 0.10937488333333345,
          "durationTicks": 119,
          "midi": 79,
          "name": "G5",
          "ticks": 4800,
          "time": 4.41176,
          "velocity": 0.6299212598425197
        },
        {
          "duration": 0.10937488333333345,
          "durationTicks": 119,
          "midi": 76,
          "name": "E5",
          "ticks": 4920,
          "time": 4.522054,
          "velocity": 0.6299212598425197
        },
        {
          "duration": 0.10937488333333345,
          "durationTicks": 119,
          "midi": 74,
          "name": "D5",
          "ticks": 5040,
          "time": 4.632348,
          "velocity": 0.6299212598425197
        },
        {
          "duration": 0.10937488333333345,
          "durationTicks": 119,
          "midi": 76,
          "name": "E5",
          "ticks": 5160,
          "time": 4.742642,
          "velocity": 0.6299212598425197
        },
        {
          "duration": 0.10937488333333345,
          "durationTicks": 119,
          "midi": 79,
          "name": "G5",
          "ticks": 5520,
          "time": 5.073524,
          "velocity": 0.6299212598425197
        },
        {
          "duration": 0.10937488333333345,
          "durationTicks": 119,
          "midi": 76,
          "name": "E5",
          "ticks": 5640,
          "time": 5.1838180000000005,
          "velocity": 0.6299212598425197
        },
        {
          "duration": 0.10937488333333345,
          "durationTicks": 119,
          "midi": 74,
          "name": "D5",
          "ticks": 5760,
          "time": 5.294112,
          "velocity": 0.6299212598425197
        },
        {
          "duration": 0.10937488333333345,
          "durationTicks": 119,
          "midi": 76,
          "name": "E5",
          "ticks": 5880,
          "time": 5.404406,
          "velocity": 0.6299212598425197
        },
        {
          "duration": 0.10937488333333256,
          "durationTicks": 119,
          "midi": 79,
          "name": "G5",
          "ticks": 6240,
          "time": 5.735288000000001,
          "velocity": 0.6299212598425197
        },
        {
          "duration": 0.10937488333333345,
          "durationTicks": 119,
          "midi": 76,
          "name": "E5",
          "ticks": 6360,
          "time": 5.845582,
          "velocity": 0.6299212598425197
        },
        {
          "duration": 0.10937488333333345,
          "durationTicks": 119,
          "midi": 74,
          "name": "D5",
          "ticks": 6480,
          "time": 5.955876,
          "velocity": 0.6299212598425197
        },
        {
          "duration": 0.10937488333333345,
          "durationTicks": 119,
          "midi": 76,
          "name": "E5",
          "ticks": 6600,
          "time": 6.0661700000000005,
          "velocity": 0.6299212598425197
        },
        {
          "duration": 0.10937488333333345,
          "durationTicks": 119,
          "midi": 74,
          "name": "D5",
          "ticks": 6840,
          "time": 6.286758,
          "velocity": 0.6299212598425197
        },
        {
          "duration": 0.6608448833333336,
          "durationTicks": 719,
          "midi": 76,
          "name": "E5",
          "ticks": 6960,
          "time": 6.397052,
          "velocity": 0.6299212598425197
        },
        {
          "duration": 0.21966888333333223,
          "durationTicks": 239,
          "midi": 71,
          "name": "B4",
          "ticks": 7920,
          "time": 7.279404,
          "velocity": 0.6299212598425197
        },
        {
          "duration": 0.10937488333333256,
          "durationTicks": 119,
          "midi": 79,
          "name": "G5",
          "ticks": 8160,
          "time": 7.499992000000001,
          "velocity": 0.6299212598425197
        },
        {
          "duration": 0.10937488333333256,
          "durationTicks": 119,
          "midi": 78,
          "name": "F#5",
          "ticks": 8280,
          "time": 7.610286,
          "velocity": 0.6299212598425197
        },
        {
          "duration": 0.10937488333333256,
          "durationTicks": 119,
          "midi": 76,
          "name": "E5",
          "ticks": 8400,
          "time": 7.72058,
          "velocity": 0.6299212598425197
        },
        {
          "duration": 0.3299628833333328,
          "durationTicks": 359,
          "midi": 74,
          "name": "D5",
          "ticks": 8520,
          "time": 7.830874000000001,
          "velocity": 0.6299212598425197
        },
        {
          "duration": 0.21966888333333223,
          "durationTicks": 239,
          "midi": 76,
          "name": "E5",
          "ticks": 8880,
          "time": 8.161756,
          "velocity": 0.6299212598425197
        },
        {
          "duration": 0.04319848333333276,
          "durationTicks": 47,
          "midi": 74,
          "name": "D5",
          "ticks": 10320,
          "time": 9.485284,
          "velocity": 0.6299212598425197
        },
        {
          "duration": 0.04319848333333276,
          "durationTicks": 47,
          "midi": 75,
          "name": "D#5",
          "ticks": 10368,
          "time": 9.529401600000002,
          "velocity": 0.6299212598425197
        },
        {
          "duration": 0.04319848333333276,
          "durationTicks": 47,
          "midi": 76,
          "name": "E5",
          "ticks": 10416,
          "time": 9.5735192,
          "velocity": 0.6299212598425197
        },
        {
          "duration": 0.04319848333333276,
          "durationTicks": 47,
          "midi": 77,
          "name": "F5",
          "ticks": 10464,
          "time": 9.617636800000001,
          "velocity": 0.6299212598425197
        },
        {
          "duration": 0.04319848333333276,
          "durationTicks": 47,
          "midi": 78,
          "name": "F#5",
          "ticks": 10512,
          "time": 9.6617544,
          "velocity": 0.6299212598425197
        },
        {
          "duration": 0.29411733333333423,
          "durationTicks": 320,
          "midi": 79,
          "name": "G5",
          "ticks": 10560,
          "time": 9.705872,
          "velocity": 0.7559055118110236
        },
        {
          "duration": 0.29411733333333423,
          "durationTicks": 320,
          "midi": 78,
          "name": "F#5",
          "ticks": 11040,
          "time": 10.147048,
          "velocity": 0.7559055118110236
        },
        {
          "duration": 0.3299628833333319,
          "durationTicks": 359,
          "midi": 76,
          "name": "E5",
          "ticks": 11520,
          "time": 10.588224,
          "velocity": 0.7559055118110236
        },
        {
          "duration": 0.21966888333333223,
          "durationTicks": 239,
          "midi": 74,
          "name": "D5",
          "ticks": 11880,
          "time": 10.919106000000001,
          "velocity": 0.7559055118110236
        },
        {
          "duration": 0.3299628833333319,
          "durationTicks": 359,
          "midi": 74,
          "name": "D5",
          "ticks": 12120,
          "time": 11.139694,
          "velocity": 0.7559055118110236
        },
        {
          "duration": 0.10937488333333256,
          "durationTicks": 119,
          "midi": 79,
          "name": "G5",
          "ticks": 12480,
          "time": 11.470576000000001,
          "velocity": 0.6299212598425197
        },
        {
          "duration": 0.10937488333333256,
          "durationTicks": 119,
          "midi": 79,
          "name": "G5",
          "ticks": 12600,
          "time": 11.58087,
          "velocity": 0.6299212598425197
        },
        {
          "duration": 0.10937488333333256,
          "durationTicks": 119,
          "midi": 79,
          "name": "G5",
          "ticks": 12720,
          "time": 11.691164,
          "velocity": 0.6299212598425197
        },
        {
          "duration": 0.10937488333333256,
          "durationTicks": 119,
          "midi": 79,
          "name": "G5",
          "ticks": 12840,
          "time": 11.801458,
          "velocity": 0.6299212598425197
        },
        {
          "duration": 0.10937488333333256,
          "durationTicks": 119,
          "midi": 79,
          "name": "G5",
          "ticks": 13200,
          "time": 12.132340000000001,
          "velocity": 0.6299212598425197
        },
        {
          "duration": 0.10937488333333256,
          "durationTicks": 119,
          "midi": 79,
          "name": "G5",
          "ticks": 13320,
          "time": 12.242634,
          "velocity": 0.6299212598425197
        },
        {
          "duration": 0.10937488333333256,
          "durationTicks": 119,
          "midi": 79,
          "name": "G5",
          "ticks": 13440,
          "time": 12.352928,
          "velocity": 0.6299212598425197
        },
        {
          "duration": 0.10937488333333256,
          "durationTicks": 119,
          "midi": 79,
          "name": "G5",
          "ticks": 13560,
          "time": 12.463222,
          "velocity": 0.6299212598425197
        },
        {
          "duration": 0.10937488333333256,
          "durationTicks": 119,
          "midi": 79,
          "name": "G5",
          "ticks": 13920,
          "time": 12.794104,
          "velocity": 0.6299212598425197
        },
        {
          "duration": 0.10937488333333256,
          "durationTicks": 119,
          "midi": 79,
          "name": "G5",
          "ticks": 14040,
          "time": 12.904398,
          "velocity": 0.6299212598425197
        },
        {
          "duration": 0.10937488333333256,
          "durationTicks": 119,
          "midi": 79,
          "name": "G5",
          "ticks": 14160,
          "time": 13.014692,
          "velocity": 0.6299212598425197
        },
        {
          "duration": 0.10937488333333256,
          "durationTicks": 119,
          "midi": 79,
          "name": "G5",
          "ticks": 14280,
          "time": 13.124986,
          "velocity": 0.6299212598425197
        },
        {
          "duration": 0.10937488333333256,
          "durationTicks": 119,
          "midi": 74,
          "name": "D5",
          "ticks": 14520,
          "time": 13.345574000000001,
          "velocity": 0.6299212598425197
        },
        {
          "duration": 1.1020208833333331,
          "durationTicks": 1199,
          "midi": 76,
          "name": "E5",
          "ticks": 14640,
          "time": 13.455868,
          "velocity": 0.6299212598425197
        },
        {
          "duration": 0.6608448833333345,
          "durationTicks": 719,
          "midi": 66,
          "name": "F#4",
          "ticks": 16080,
          "time": 14.779396,
          "velocity": 0.6299212598425197
        },
        {
          "duration": 0.8814328833333338,
          "durationTicks": 959,
          "midi": 67,
          "name": "G4",
          "ticks": 17040,
          "time": 15.661748000000001,
          "velocity": 0.6299212598425197
        },
        {
          "duration": 0.44025688333333335,
          "durationTicks": 479,
          "midi": 69,
          "name": "A4",
          "ticks": 18000,
          "time": 16.5441,
          "velocity": 0.6299212598425197
        },
        {
          "duration": 0.219668883333334,
          "durationTicks": 239,
          "midi": 71,
          "name": "B4",
          "ticks": 18480,
          "time": 16.985276,
          "velocity": 0.6299212598425197
        },
        {
          "duration": 0.219668883333334,
          "durationTicks": 239,
          "midi": 69,
          "name": "A4",
          "ticks": 18720,
          "time": 17.205864000000002,
          "velocity": 0.6299212598425197
        },
        {
          "duration": 0.44025688333333335,
          "durationTicks": 479,
          "midi": 72,
          "name": "C5",
          "ticks": 18960,
          "time": 17.426452,
          "velocity": 0.6299212598425197
        },
        {
          "duration": 0.10937488333333434,
          "durationTicks": 119,
          "midi": 76,
          "name": "E5",
          "ticks": 19440,
          "time": 17.867628,
          "velocity": 0.6299212598425197
        },
        {
          "duration": 0.10937488333333434,
          "durationTicks": 119,
          "midi": 88,
          "name": "E6",
          "ticks": 19440,
          "time": 17.867628,
          "velocity": 0.6299212598425197
        },
        {
          "duration": 0.10937488333333434,
          "durationTicks": 119,
          "midi": 76,
          "name": "E5",
          "ticks": 19680,
          "time": 18.088216,
          "velocity": 0.6299212598425197
        },
        {
          "duration": 0.10937488333333434,
          "durationTicks": 119,
          "midi": 88,
          "name": "E6",
          "ticks": 19680,
          "time": 18.088216,
          "velocity": 0.6299212598425197
        },
        {
          "duration": 0.10937488333333434,
          "durationTicks": 119,
          "midi": 76,
          "name": "E5",
          "ticks": 19920,
          "time": 18.308804000000002,
          "velocity": 0.6299212598425197
        },
        {
          "duration": 0.10937488333333434,
          "durationTicks": 119,
          "midi": 88,
          "name": "E6",
          "ticks": 19920,
          "time": 18.308804000000002,
          "velocity": 0.6299212598425197
        },
        {
          "duration": 0.219668883333334,
          "durationTicks": 239,
          "midi": 76,
          "name": "E5",
          "ticks": 20160,
          "time": 18.529392,
          "velocity": 0.7559055118110236
        },
        {
          "duration": 0.219668883333334,
          "durationTicks": 239,
          "midi": 88,
          "name": "E6",
          "ticks": 20160,
          "time": 18.529392,
          "velocity": 0.7559055118110236
        },
        {
          "duration": 0.10937488333333434,
          "durationTicks": 119,
          "midi": 74,
          "name": "D5",
          "ticks": 23280,
          "time": 21.397036,
          "velocity": 0.6299212598425197
        },
        {
          "duration": 0.10937488333333434,
          "durationTicks": 119,
          "midi": 76,
          "name": "E5",
          "ticks": 23400,
          "time": 21.50733,
          "velocity": 0.6299212598425197
        },
        {
          "duration": 0.10937488333333434,
          "durationTicks": 119,
          "midi": 74,
          "name": "D5",
          "ticks": 23520,
          "time": 21.617624,
          "velocity": 0.6299212598425197
        },
        {
          "duration": 0.10937488333333434,
          "durationTicks": 119,
          "midi": 71,
          "name": "B4",
          "ticks": 23640,
          "time": 21.727918,
          "velocity": 0.6299212598425197
        },
        {
          "duration": 0.10937488333333434,
          "durationTicks": 119,
          "midi": 67,
          "name": "G4",
          "ticks": 23760,
          "time": 21.838212000000002,
          "velocity": 0.6299212598425197
        },
        {
          "duration": 0.10937488333333434,
          "durationTicks": 119,
          "midi": 66,
          "name": "F#4",
          "ticks": 23880,
          "time": 21.948506000000002,
          "velocity": 0.6299212598425197
        },
        {
          "duration": 0.10937488333333434,
          "durationTicks": 119,
          "midi": 71,
          "name": "B4",
          "ticks": 27120,
          "time": 24.926444,
          "velocity": 0.6299212598425197
        },
        {
          "duration": 0.10937488333333434,
          "durationTicks": 119,
          "midi": 72,
          "name": "C5",
          "ticks": 27240,
          "time": 25.036738,
          "velocity": 0.6299212598425197
        },
        {
          "duration": 0.10937488333333434,
          "durationTicks": 119,
          "midi": 74,
          "name": "D5",
          "ticks": 27360,
          "time": 25.147032,
          "velocity": 0.6299212598425197
        },
        {
          "duration": 0.10937488333333434,
          "durationTicks": 119,
          "midi": 71,
          "name": "B4",
          "ticks": 27480,
          "time": 25.257326,
          "velocity": 0.6299212598425197
        },
        {
          "duration": 0.10937488333333434,
          "durationTicks": 119,
          "midi": 72,
          "name": "C5",
          "ticks": 27600,
          "time": 25.367620000000002,
          "velocity": 0.6299212598425197
        },
        {
          "duration": 0.10937488333333434,
          "durationTicks": 119,
          "midi": 74,
          "name": "D5",
          "ticks": 27720,
          "time": 25.477914000000002,
          "velocity": 0.6299212598425197
        },
        {
          "duration": 0.44025688333333335,
          "durationTicks": 479,
          "midi": 67,
          "name": "G4",
          "ticks": 33600,
          "time": 30.88232,
          "velocity": 0.6299212598425197
        },
        {
          "duration": 0.44025688333333335,
          "durationTicks": 479,
          "midi": 69,
          "name": "A4",
          "ticks": 34080,
          "time": 31.323496000000002,
          "velocity": 0.6299212598425197
        },
        {
          "duration": 0.4402568833333369,
          "durationTicks": 479,
          "midi": 71,
          "name": "B4",
          "ticks": 34560,
          "time": 31.764672,
          "velocity": 0.6299212598425197
        },
        {
          "duration": 0.44025688333333335,
          "durationTicks": 479,
          "midi": 72,
          "name": "C5",
          "ticks": 35040,
          "time": 32.205848,
          "velocity": 0.6299212598425197
        },
        {
          "duration": 0.10937488333333079,
          "durationTicks": 119,
          "midi": 74,
          "name": "D5",
          "ticks": 35520,
          "time": 32.647024,
          "velocity": 0.6299212598425197
        },
        {
          "duration": 0.10937488333333079,
          "durationTicks": 119,
          "midi": 74,
          "name": "D5",
          "ticks": 35760,
          "time": 32.867612,
          "velocity": 0.6299212598425197
        },
        {
          "duration": 0.44025688333333335,
          "durationTicks": 479,
          "midi": 74,
          "name": "D5",
          "ticks": 36240,
          "time": 33.308788,
          "velocity": 0.6299212598425197
        },
        {
          "duration": 0.10937488333333789,
          "durationTicks": 119,
          "midi": 76,
          "name": "E5",
          "ticks": 36720,
          "time": 33.749964,
          "velocity": 0.6299212598425197
        },
        {
          "duration": 0.44025688333334045,
          "durationTicks": 479,
          "midi": 76,
          "name": "E5",
          "ticks": 36960,
          "time": 33.970552,
          "velocity": 0.6299212598425197
        },
        {
          "duration": 0.10937488333333789,
          "durationTicks": 119,
          "midi": 74,
          "name": "D5",
          "ticks": 39360,
          "time": 36.176432,
          "velocity": 0.6299212598425197
        },
        {
          "duration": 0.10937488333333789,
          "durationTicks": 119,
          "midi": 74,
          "name": "D5",
          "ticks": 39600,
          "time": 36.39702,
          "velocity": 0.6299212598425197
        },
        {
          "duration": 0.44025688333333335,
          "durationTicks": 479,
          "midi": 74,
          "name": "D5",
          "ticks": 40080,
          "time": 36.838196,
          "velocity": 0.6299212598425197
        },
        {
          "duration": 0.10937488333333079,
          "durationTicks": 119,
          "midi": 76,
          "name": "E5",
          "ticks": 40560,
          "time": 37.279372,
          "velocity": 0.6299212598425197
        },
        {
          "duration": 0.44025688333333335,
          "durationTicks": 479,
          "midi": 76,
          "name": "E5",
          "ticks": 40800,
          "time": 37.49996,
          "velocity": 0.6299212598425197
        },
        {
          "duration": 0.44025688333334045,
          "durationTicks": 479,
          "midi": 71,
          "name": "B4",
          "ticks": 42240,
          "time": 38.823488,
          "velocity": 0.6299212598425197
        },
        {
          "duration": 0.44025688333333335,
          "durationTicks": 479,
          "midi": 72,
          "name": "C5",
          "ticks": 42720,
          "time": 39.264664,
          "velocity": 0.6299212598425197
        },
        {
          "duration": 0.10937488333333079,
          "durationTicks": 119,
          "midi": 74,
          "name": "D5",
          "ticks": 43200,
          "time": 39.70584,
          "velocity": 0.6299212598425197
        },
        {
          "duration": 0.10937488333333079,
          "durationTicks": 119,
          "midi": 74,
          "name": "D5",
          "ticks": 43440,
          "time": 39.926428,
          "velocity": 0.6299212598425197
        },
        {
          "duration": 0.44025688333333335,
          "durationTicks": 479,
          "midi": 74,
          "name": "D5",
          "ticks": 43920,
          "time": 40.367604,
          "velocity": 0.6299212598425197
        },
        {
          "duration": 0.219668883333334,
          "durationTicks": 239,
          "midi": 76,
          "name": "E5",
          "ticks": 44400,
          "time": 40.80878,
          "velocity": 0.6299212598425197
        },
        {
          "duration": 0.6608448833333327,
          "durationTicks": 719,
          "midi": 74,
          "name": "D5",
          "ticks": 44880,
          "time": 41.249956000000005,
          "velocity": 0.7559055118110236
        },
        {
          "duration": 0.44025688333333335,
          "durationTicks": 479,
          "midi": 72,
          "name": "C5",
          "ticks": 45600,
          "time": 41.91172,
          "velocity": 0.6299212598425197
        },
        {
          "duration": 0.44025688333333335,
          "durationTicks": 479,
          "midi": 71,
          "name": "B4",
          "ticks": 46080,
          "time": 42.352896,
          "velocity": 0.6299212598425197
        },
        {
          "duration": 0.44025688333333335,
          "durationTicks": 479,
          "midi": 67,
          "name": "G4",
          "ticks": 46560,
          "time": 42.794072,
          "velocity": 0.8818897637795275
        },
        {
          "duration": 0.0873160833333344,
          "durationTicks": 95,
          "midi": 79,
          "name": "G5",
          "ticks": 46560,
          "time": 42.794072,
          "velocity": 0.8818897637795275
        },
        {
          "duration": 0.0873160833333344,
          "durationTicks": 95,
          "midi": 80,
          "name": "G#5",
          "ticks": 46656,
          "time": 42.8823072,
          "velocity": 0.8818897637795275
        },
        {
          "duration": 0.0873160833333273,
          "durationTicks": 95,
          "midi": 81,
          "name": "A5",
          "ticks": 46752,
          "time": 42.97054240000001,
          "velocity": 0.8818897637795275
        },
        {
          "duration": 0.0873160833333344,
          "durationTicks": 95,
          "midi": 82,
          "name": "A#5",
          "ticks": 46848,
          "time": 43.0587776,
          "velocity": 0.8818897637795275
        },
        {
          "duration": 0.0873160833333344,
          "durationTicks": 95,
          "midi": 83,
          "name": "B5",
          "ticks": 46944,
          "time": 43.1470128,
          "velocity": 0.8818897637795275
        },
        {
          "duration": 0.219668883333334,
          "durationTicks": 239,
          "midi": 72,
          "name": "C5",
          "ticks": 47040,
          "time": 43.235248,
          "velocity": 0.8818897637795275
        },
        {
          "duration": 0.219668883333334,
          "durationTicks": 239,
          "midi": 84,
          "name": "C6",
          "ticks": 47040,
          "time": 43.235248,
          "velocity": 0.8818897637795275
        },
        {
          "duration": 0.219668883333334,
          "durationTicks": 239,
          "midi": 72,
          "name": "C5",
          "ticks": 47280,
          "time": 43.455836,
          "velocity": 0.8818897637795275
        },
        {
          "duration": 0.219668883333334,
          "durationTicks": 239,
          "midi": 84,
          "name": "C6",
          "ticks": 47280,
          "time": 43.455836,
          "velocity": 0.8818897637795275
        },
        {
          "duration": 0.219668883333334,
          "durationTicks": 239,
          "midi": 72,
          "name": "C5",
          "ticks": 47520,
          "time": 43.676424000000004,
          "velocity": 0.8818897637795275
        },
        {
          "duration": 0.219668883333334,
          "durationTicks": 239,
          "midi": 84,
          "name": "C6",
          "ticks": 47520,
          "time": 43.676424000000004,
          "velocity": 0.8818897637795275
        },
        {
          "duration": 0.219668883333334,
          "durationTicks": 239,
          "midi": 71,
          "name": "B4",
          "ticks": 47760,
          "time": 43.897012000000004,
          "velocity": 0.8818897637795275
        },
        {
          "duration": 0.219668883333334,
          "durationTicks": 239,
          "midi": 83,
          "name": "B5",
          "ticks": 47760,
          "time": 43.897012000000004,
          "velocity": 0.8818897637795275
        },
        {
          "duration": 0.219668883333334,
          "durationTicks": 239,
          "midi": 67,
          "name": "G4",
          "ticks": 48240,
          "time": 44.338188,
          "velocity": 0.8818897637795275
        },
        {
          "duration": 0.219668883333334,
          "durationTicks": 239,
          "midi": 79,
          "name": "G5",
          "ticks": 48240,
          "time": 44.338188,
          "velocity": 0.8818897637795275
        },
        {
          "duration": 1.5431968833333372,
          "durationTicks": 1679,
          "midi": 69,
          "name": "A4",
          "ticks": 48720,
          "time": 44.779364,
          "velocity": 0.8818897637795275
        },
        {
          "duration": 1.5431968833333372,
          "durationTicks": 1679,
          "midi": 81,
          "name": "A5",
          "ticks": 48720,
          "time": 44.779364,
          "velocity": 0.8818897637795275
        },
        {
          "duration": 0.44025688333333335,
          "durationTicks": 479,
          "midi": 74,
          "name": "D5",
          "ticks": 50640,
          "time": 46.544068,
          "velocity": 0.8818897637795275
        },
        {
          "duration": 0.10937488333333079,
          "durationTicks": 119,
          "midi": 74,
          "name": "D5",
          "ticks": 51120,
          "time": 46.985244,
          "velocity": 0.8818897637795275
        },
        {
          "duration": 0.10937488333333789,
          "durationTicks": 119,
          "midi": 74,
          "name": "D5",
          "ticks": 51360,
          "time": 47.205832,
          "velocity": 0.8818897637795275
        },
        {
          "duration": 0.10937488333333789,
          "durationTicks": 119,
          "midi": 74,
          "name": "D5",
          "ticks": 51600,
          "time": 47.42642,
          "velocity": 0.8818897637795275
        },
        {
          "duration": 0.219668883333334,
          "durationTicks": 239,
          "midi": 76,
          "name": "E5",
          "ticks": 51840,
          "time": 47.647008,
          "velocity": 1
        },
        {
          "duration": 0.44025688333333335,
          "durationTicks": 479,
          "midi": 79,
          "name": "G5",
          "ticks": 53280,
          "time": 48.970536,
          "velocity": 0.905511811023622
        },
        {
          "duration": 0.10937488333333789,
          "durationTicks": 119,
          "midi": 74,
          "name": "D5",
          "ticks": 54000,
          "time": 49.6323,
          "velocity": 0.7559055118110236
        },
        {
          "duration": 0.219668883333334,
          "durationTicks": 239,
          "midi": 78,
          "name": "F#5",
          "ticks": 54240,
          "time": 49.852888,
          "velocity": 0.7559055118110236
        },
        {
          "duration": 0.219668883333334,
          "durationTicks": 239,
          "midi": 79,
          "name": "G5",
          "ticks": 54480,
          "time": 50.073476,
          "velocity": 0.7559055118110236
        },
        {
          "duration": 0.219668883333334,
          "durationTicks": 239,
          "midi": 78,
          "name": "F#5",
          "ticks": 54720,
          "time": 50.294064,
          "velocity": 0.7559055118110236
        },
        {
          "duration": 0.219668883333334,
          "durationTicks": 239,
          "midi": 79,
          "name": "G5",
          "ticks": 54960,
          "time": 50.514652,
          "velocity": 0.7559055118110236
        },
        {
          "duration": 0.6608448833333327,
          "durationTicks": 719,
          "midi": 79,
          "name": "G5",
          "ticks": 55440,
          "time": 50.955828000000004,
          "velocity": 0.905511811023622
        },
        {
          "duration": 0.219668883333334,
          "durationTicks": 239,
          "midi": 78,
          "name": "F#5",
          "ticks": 56160,
          "time": 51.617592,
          "velocity": 0.7559055118110236
        },
        {
          "duration": 0.219668883333334,
          "durationTicks": 239,
          "midi": 79,
          "name": "G5",
          "ticks": 56400,
          "time": 51.83818,
          "velocity": 0.7559055118110236
        },
        {
          "duration": 0.219668883333334,
          "durationTicks": 239,
          "midi": 79,
          "name": "G5",
          "ticks": 58080,
          "time": 53.382296000000004,
          "velocity": 0.7559055118110236
        },
        {
          "duration": 0.10937488333333079,
          "durationTicks": 119,
          "midi": 78,
          "name": "F#5",
          "ticks": 58320,
          "time": 53.602884,
          "velocity": 0.7559055118110236
        },
        {
          "duration": 0.219668883333334,
          "durationTicks": 239,
          "midi": 77,
          "name": "F5",
          "ticks": 58560,
          "time": 53.823472,
          "velocity": 0.7559055118110236
        },
        {
          "duration": 0.219668883333334,
          "durationTicks": 239,
          "midi": 79,
          "name": "G5",
          "ticks": 58800,
          "time": 54.04406,
          "velocity": 0.7559055118110236
        },
        {
          "duration": 0.10937488333333789,
          "durationTicks": 119,
          "midi": 81,
          "name": "A5",
          "ticks": 59040,
          "time": 54.264648,
          "velocity": 0.7559055118110236
        },
        {
          "duration": 0.44025688333333335,
          "durationTicks": 479,
          "midi": 83,
          "name": "B5",
          "ticks": 59280,
          "time": 54.485236,
          "velocity": 0.7559055118110236
        },
        {
          "duration": 0.10937488333333789,
          "durationTicks": 119,
          "midi": 81,
          "name": "A5",
          "ticks": 59760,
          "time": 54.926412,
          "velocity": 0.7559055118110236
        },
        {
          "duration": 0.44025688333334045,
          "durationTicks": 479,
          "midi": 79,
          "name": "G5",
          "ticks": 60000,
          "time": 55.147,
          "velocity": 0.7559055118110236
        },
        {
          "duration": 0.219668883333334,
          "durationTicks": 239,
          "midi": 74,
          "name": "D5",
          "ticks": 61200,
          "time": 56.24994,
          "velocity": 0.7559055118110236
        },
        {
          "duration": 0.219668883333334,
          "durationTicks": 239,
          "midi": 76,
          "name": "E5",
          "ticks": 61440,
          "time": 56.470528,
          "velocity": 0.7559055118110236
        },
        {
          "duration": 0.219668883333334,
          "durationTicks": 239,
          "midi": 78,
          "name": "F#5",
          "ticks": 61680,
          "time": 56.691116,
          "velocity": 0.7559055118110236
        },
        {
          "duration": 0.219668883333334,
          "durationTicks": 239,
          "midi": 79,
          "name": "G5",
          "ticks": 61920,
          "time": 56.911704,
          "velocity": 0.7559055118110236
        },
        {
          "duration": 0.219668883333334,
          "durationTicks": 239,
          "midi": 81,
          "name": "A5",
          "ticks": 62160,
          "time": 57.132292,
          "velocity": 0.7559055118110236
        },
        {
          "duration": 0.219668883333334,
          "durationTicks": 239,
          "midi": 79,
          "name": "G5",
          "ticks": 62640,
          "time": 57.573468,
          "velocity": 0.7559055118110236
        },
        {
          "duration": 0.219668883333334,
          "durationTicks": 239,
          "midi": 78,
          "name": "F#5",
          "ticks": 62880,
          "time": 57.794056000000005,
          "velocity": 0.7559055118110236
        },
        {
          "duration": 0.44025688333333335,
          "durationTicks": 479,
          "midi": 79,
          "name": "G5",
          "ticks": 63120,
          "time": 58.014644000000004,
          "velocity": 0.7559055118110236
        },
        {
          "duration": 0.219668883333334,
          "durationTicks": 239,
          "midi": 78,
          "name": "F#5",
          "ticks": 63600,
          "time": 58.45582,
          "velocity": 0.7559055118110236
        },
        {
          "duration": 0.219668883333334,
          "durationTicks": 239,
          "midi": 76,
          "name": "E5",
          "ticks": 63840,
          "time": 58.676408,
          "velocity": 0.7559055118110236
        },
        {
          "duration": 0.219668883333334,
          "durationTicks": 239,
          "midi": 74,
          "name": "D5",
          "ticks": 64080,
          "time": 58.896996,
          "velocity": 0.7559055118110236
        },
        {
          "duration": 0.44025688333333335,
          "durationTicks": 479,
          "midi": 69,
          "name": "A4",
          "ticks": 64320,
          "time": 59.117584,
          "velocity": 0.7559055118110236
        },
        {
          "duration": 0.44025688333333335,
          "durationTicks": 479,
          "midi": 72,
          "name": "C5",
          "ticks": 64800,
          "time": 59.55876,
          "velocity": 0.7559055118110236
        },
        {
          "duration": 0.44025688333333335,
          "durationTicks": 479,
          "midi": 76,
          "name": "E5",
          "ticks": 65280,
          "time": 59.999936000000005,
          "velocity": 0.7559055118110236
        },
        {
          "duration": 0.44025688333333335,
          "durationTicks": 479,
          "midi": 79,
          "name": "G5",
          "ticks": 65760,
          "time": 60.441112000000004,
          "velocity": 0.7559055118110236
        },
        {
          "duration": 0.881432883333332,
          "durationTicks": 959,
          "midi": 67,
          "name": "G4",
          "ticks": 66240,
          "time": 60.882288,
          "velocity": 0.7559055118110236
        },
        {
          "duration": 0.6608448833333327,
          "durationTicks": 719,
          "midi": 66,
          "name": "F#4",
          "ticks": 67200,
          "time": 61.76464,
          "velocity": 0.7559055118110236
        },
        {
          "duration": 0.881432883333332,
          "durationTicks": 959,
          "midi": 66,
          "name": "F#4",
          "ticks": 67920,
          "time": 62.426404000000005,
          "velocity": 0.7559055118110236
        },
        {
          "duration": 0.881432883333332,
          "durationTicks": 959,
          "midi": 78,
          "name": "F#5",
          "ticks": 67920,
          "time": 62.426404000000005,
          "velocity": 0.7559055118110236
        },
        {
          "duration": 0.6608448833333327,
          "durationTicks": 719,
          "midi": 67,
          "name": "G4",
          "ticks": 68880,
          "time": 63.308756,
          "velocity": 0.7559055118110236
        },
        {
          "duration": 0.6608448833333327,
          "durationTicks": 719,
          "midi": 79,
          "name": "G5",
          "ticks": 68880,
          "time": 63.308756,
          "velocity": 0.7559055118110236
        },
        {
          "duration": 0.44025688333333335,
          "durationTicks": 479,
          "midi": 69,
          "name": "A4",
          "ticks": 69840,
          "time": 64.191108,
          "velocity": 0.7559055118110236
        },
        {
          "duration": 0.44025688333333335,
          "durationTicks": 479,
          "midi": 81,
          "name": "A5",
          "ticks": 69840,
          "time": 64.191108,
          "velocity": 0.7559055118110236
        },
        {
          "duration": 0.21966888333334111,
          "durationTicks": 239,
          "midi": 71,
          "name": "B4",
          "ticks": 70320,
          "time": 64.632284,
          "velocity": 0.7559055118110236
        },
        {
          "duration": 0.21966888333334111,
          "durationTicks": 239,
          "midi": 83,
          "name": "B5",
          "ticks": 70320,
          "time": 64.632284,
          "velocity": 0.7559055118110236
        },
        {
          "duration": 0.2196688833333269,
          "durationTicks": 239,
          "midi": 69,
          "name": "A4",
          "ticks": 70560,
          "time": 64.852872,
          "velocity": 0.7559055118110236
        },
        {
          "duration": 0.2196688833333269,
          "durationTicks": 239,
          "midi": 81,
          "name": "A5",
          "ticks": 70560,
          "time": 64.852872,
          "velocity": 0.7559055118110236
        },
        {
          "duration": 0.21966888333334111,
          "durationTicks": 239,
          "midi": 72,
          "name": "C5",
          "ticks": 70800,
          "time": 65.07346,
          "velocity": 0.7559055118110236
        },
        {
          "duration": 0.21966888333334111,
          "durationTicks": 239,
          "midi": 84,
          "name": "C6",
          "ticks": 70800,
          "time": 65.07346,
          "velocity": 0.7559055118110236
        },
        {
          "duration": 0.1461395500000151,
          "durationTicks": 159,
          "midi": 76,
          "name": "E5",
          "ticks": 71280,
          "time": 65.514636,
          "velocity": 0.8661417322834646
        },
        {
          "duration": 0.1461395500000151,
          "durationTicks": 159,
          "midi": 88,
          "name": "E6",
          "ticks": 71280,
          "time": 65.514636,
          "velocity": 0.8661417322834646
        },
        {
          "duration": 0.1461395500000009,
          "durationTicks": 159,
          "midi": 76,
          "name": "E5",
          "ticks": 71520,
          "time": 65.735224,
          "velocity": 0.8267716535433071
        },
        {
          "duration": 0.1461395500000009,
          "durationTicks": 159,
          "midi": 88,
          "name": "E6",
          "ticks": 71520,
          "time": 65.735224,
          "velocity": 0.8267716535433071
        },
        {
          "duration": 0.1461395500000009,
          "durationTicks": 159,
          "midi": 76,
          "name": "E5",
          "ticks": 71760,
          "time": 65.95581200000001,
          "velocity": 0.7874015748031497
        },
        {
          "duration": 0.1461395500000009,
          "durationTicks": 159,
          "midi": 88,
          "name": "E6",
          "ticks": 71760,
          "time": 65.95581200000001,
          "velocity": 0.7874015748031497
        },
        {
          "duration": 0.10937488333333079,
          "durationTicks": 119,
          "midi": 79,
          "name": "G5",
          "ticks": 72000,
          "time": 66.1764,
          "velocity": 0.6299212598425197
        },
        {
          "duration": 0.109374883333345,
          "durationTicks": 119,
          "midi": 79,
          "name": "G5",
          "ticks": 72120,
          "time": 66.286694,
          "velocity": 0.6299212598425197
        },
        {
          "duration": 0.10937488333333079,
          "durationTicks": 119,
          "midi": 79,
          "name": "G5",
          "ticks": 72240,
          "time": 66.39698800000001,
          "velocity": 0.6299212598425197
        },
        {
          "duration": 0.10937488333333079,
          "durationTicks": 119,
          "midi": 79,
          "name": "G5",
          "ticks": 72360,
          "time": 66.507282,
          "velocity": 0.6299212598425197
        },
        {
          "duration": 0.10937488333333079,
          "durationTicks": 119,
          "midi": 79,
          "name": "G5",
          "ticks": 72720,
          "time": 66.838164,
          "velocity": 0.6299212598425197
        },
        {
          "duration": 0.10937488333333079,
          "durationTicks": 119,
          "midi": 79,
          "name": "G5",
          "ticks": 72840,
          "time": 66.948458,
          "velocity": 0.6299212598425197
        },
        {
          "duration": 0.10937488333333079,
          "durationTicks": 119,
          "midi": 79,
          "name": "G5",
          "ticks": 72960,
          "time": 67.058752,
          "velocity": 0.6299212598425197
        },
        {
          "duration": 0.10937488333333079,
          "durationTicks": 119,
          "midi": 79,
          "name": "G5",
          "ticks": 73080,
          "time": 67.16904600000001,
          "velocity": 0.6299212598425197
        },
        {
          "duration": 0.109374883333345,
          "durationTicks": 119,
          "midi": 79,
          "name": "G5",
          "ticks": 73440,
          "time": 67.499928,
          "velocity": 0.6299212598425197
        },
        {
          "duration": 0.10937488333333079,
          "durationTicks": 119,
          "midi": 79,
          "name": "G5",
          "ticks": 73560,
          "time": 67.61022200000001,
          "velocity": 0.6299212598425197
        },
        {
          "duration": 0.10937488333333079,
          "durationTicks": 119,
          "midi": 79,
          "name": "G5",
          "ticks": 73680,
          "time": 67.720516,
          "velocity": 0.6299212598425197
        },
        {
          "duration": 0.10937488333333079,
          "durationTicks": 119,
          "midi": 79,
          "name": "G5",
          "ticks": 73800,
          "time": 67.83081,
          "velocity": 0.6299212598425197
        },
        {
          "duration": 0.10937488333333079,
          "durationTicks": 119,
          "midi": 74,
          "name": "D5",
          "ticks": 74040,
          "time": 68.051398,
          "velocity": 0.6299212598425197
        },
        {
          "duration": 0.6608448833333398,
          "durationTicks": 719,
          "midi": 76,
          "name": "E5",
          "ticks": 74160,
          "time": 68.161692,
          "velocity": 0.6299212598425197
        },
        {
          "duration": 0.21966888333334111,
          "durationTicks": 239,
          "midi": 71,
          "name": "B4",
          "ticks": 75120,
          "time": 69.044044,
          "velocity": 0.6299212598425197
        },
        {
          "duration": 0.10937488333333079,
          "durationTicks": 119,
          "midi": 79,
          "name": "G5",
          "ticks": 75360,
          "time": 69.264632,
          "velocity": 0.6299212598425197
        },
        {
          "duration": 0.10937488333333079,
          "durationTicks": 119,
          "midi": 78,
          "name": "F#5",
          "ticks": 75480,
          "time": 69.374926,
          "velocity": 0.6299212598425197
        },
        {
          "duration": 0.109374883333345,
          "durationTicks": 119,
          "midi": 76,
          "name": "E5",
          "ticks": 75600,
          "time": 69.48522,
          "velocity": 0.6299212598425197
        },
        {
          "duration": 0.329962883333323,
          "durationTicks": 359,
          "midi": 74,
          "name": "D5",
          "ticks": 75720,
          "time": 69.59551400000001,
          "velocity": 0.6299212598425197
        },
        {
          "duration": 0.21966888333334111,
          "durationTicks": 239,
          "midi": 76,
          "name": "E5",
          "ticks": 76080,
          "time": 69.926396,
          "velocity": 0.6299212598425197
        },
        {
          "duration": 0.04319848333332743,
          "durationTicks": 47,
          "midi": 74,
          "name": "D5",
          "ticks": 77520,
          "time": 71.24992400000001,
          "velocity": 0.6299212598425197
        },
        {
          "duration": 0.04319848333332743,
          "durationTicks": 47,
          "midi": 75,
          "name": "D#5",
          "ticks": 77568,
          "time": 71.2940416,
          "velocity": 0.6299212598425197
        },
        {
          "duration": 0.04319848333334164,
          "durationTicks": 47,
          "midi": 76,
          "name": "E5",
          "ticks": 77616,
          "time": 71.33815919999999,
          "velocity": 0.6299212598425197
        },
        {
          "duration": 0.04319848333332743,
          "durationTicks": 47,
          "midi": 77,
          "name": "F5",
          "ticks": 77664,
          "time": 71.38227680000001,
          "velocity": 0.6299212598425197
        },
        {
          "duration": 0.04319848333332743,
          "durationTicks": 47,
          "midi": 78,
          "name": "F#5",
          "ticks": 77712,
          "time": 71.4263944,
          "velocity": 0.6299212598425197
        },
        {
          "duration": 0.29411733333333245,
          "durationTicks": 320,
          "midi": 79,
          "name": "G5",
          "ticks": 77760,
          "time": 71.470512,
          "velocity": 0.7559055118110236
        },
        {
          "duration": 0.29411733333333245,
          "durationTicks": 320,
          "midi": 78,
          "name": "F#5",
          "ticks": 78240,
          "time": 71.911688,
          "velocity": 0.7559055118110236
        },
        {
          "duration": 0.32996288333333723,
          "durationTicks": 359,
          "midi": 76,
          "name": "E5",
          "ticks": 78720,
          "time": 72.352864,
          "velocity": 0.7559055118110236
        },
        {
          "duration": 0.21966888333334111,
          "durationTicks": 239,
          "midi": 74,
          "name": "D5",
          "ticks": 79080,
          "time": 72.683746,
          "velocity": 0.7559055118110236
        },
        {
          "duration": 0.32996288333333723,
          "durationTicks": 359,
          "midi": 74,
          "name": "D5",
          "ticks": 79320,
          "time": 72.904334,
          "velocity": 0.7559055118110236
        },
        {
          "duration": 0.10937488333333079,
          "durationTicks": 119,
          "midi": 79,
          "name": "G5",
          "ticks": 79680,
          "time": 73.23521600000001,
          "velocity": 0.6299212598425197
        },
        {
          "duration": 0.10937488333333079,
          "durationTicks": 119,
          "midi": 79,
          "name": "G5",
          "ticks": 79800,
          "time": 73.34551,
          "velocity": 0.6299212598425197
        },
        {
          "duration": 0.10937488333333079,
          "durationTicks": 119,
          "midi": 79,
          "name": "G5",
          "ticks": 79920,
          "time": 73.455804,
          "velocity": 0.6299212598425197
        },
        {
          "duration": 0.109374883333345,
          "durationTicks": 119,
          "midi": 79,
          "name": "G5",
          "ticks": 80040,
          "time": 73.566098,
          "velocity": 0.6299212598425197
        },
        {
          "duration": 0.10937488333333079,
          "durationTicks": 119,
          "midi": 79,
          "name": "G5",
          "ticks": 80400,
          "time": 73.89698,
          "velocity": 0.6299212598425197
        },
        {
          "duration": 0.109374883333345,
          "durationTicks": 119,
          "midi": 79,
          "name": "G5",
          "ticks": 80520,
          "time": 74.007274,
          "velocity": 0.6299212598425197
        },
        {
          "duration": 0.10937488333333079,
          "durationTicks": 119,
          "midi": 79,
          "name": "G5",
          "ticks": 80640,
          "time": 74.117568,
          "velocity": 0.6299212598425197
        },
        {
          "duration": 0.10937488333333079,
          "durationTicks": 119,
          "midi": 79,
          "name": "G5",
          "ticks": 80760,
          "time": 74.227862,
          "velocity": 0.6299212598425197
        },
        {
          "duration": 0.10937488333333079,
          "durationTicks": 119,
          "midi": 79,
          "name": "G5",
          "ticks": 81120,
          "time": 74.558744,
          "velocity": 0.6299212598425197
        },
        {
          "duration": 0.10937488333333079,
          "durationTicks": 119,
          "midi": 79,
          "name": "G5",
          "ticks": 81240,
          "time": 74.669038,
          "velocity": 0.6299212598425197
        },
        {
          "duration": 0.109374883333345,
          "durationTicks": 119,
          "midi": 79,
          "name": "G5",
          "ticks": 81360,
          "time": 74.779332,
          "velocity": 0.6299212598425197
        },
        {
          "duration": 0.10937488333333079,
          "durationTicks": 119,
          "midi": 79,
          "name": "G5",
          "ticks": 81480,
          "time": 74.889626,
          "velocity": 0.6299212598425197
        },
        {
          "duration": 0.10937488333333079,
          "durationTicks": 119,
          "midi": 74,
          "name": "D5",
          "ticks": 81720,
          "time": 75.110214,
          "velocity": 0.6299212598425197
        },
        {
          "duration": 1.1020208833333385,
          "durationTicks": 1199,
          "midi": 76,
          "name": "E5",
          "ticks": 81840,
          "time": 75.220508,
          "velocity": 0.6299212598425197
        },
        {
          "duration": 0.881432883333332,
          "durationTicks": 959,
          "midi": 66,
          "name": "F#4",
          "ticks": 83280,
          "time": 76.544036,
          "velocity": 0.6299212598425197
        },
        {
          "duration": 0.881432883333332,
          "durationTicks": 959,
          "midi": 67,
          "name": "G4",
          "ticks": 84240,
          "time": 77.426388,
          "velocity": 0.6299212598425197
        },
        {
          "duration": 0.44025688333333335,
          "durationTicks": 479,
          "midi": 69,
          "name": "A4",
          "ticks": 85200,
          "time": 78.30874,
          "velocity": 0.6299212598425197
        },
        {
          "duration": 0.21966888333334111,
          "durationTicks": 239,
          "midi": 71,
          "name": "B4",
          "ticks": 85680,
          "time": 78.749916,
          "velocity": 0.6299212598425197
        },
        {
          "duration": 0.2196688833333269,
          "durationTicks": 239,
          "midi": 69,
          "name": "A4",
          "ticks": 85920,
          "time": 78.970504,
          "velocity": 0.6299212598425197
        },
        {
          "duration": 1.1020208833333385,
          "durationTicks": 1199,
          "midi": 72,
          "name": "C5",
          "ticks": 86160,
          "time": 79.191092,
          "velocity": 0.6299212598425197
        },
        {
          "duration": 0.2196688833333269,
          "durationTicks": 239,
          "midi": 88,
          "name": "E6",
          "ticks": 88560,
          "time": 81.396972,
          "velocity": 0.7559055118110236
        },
        {
          "duration": 0.10937488333333079,
          "durationTicks": 119,
          "midi": 74,
          "name": "D5",
          "ticks": 90480,
          "time": 83.161676,
          "velocity": 0.6299212598425197
        },
        {
          "duration": 0.109374883333345,
          "durationTicks": 119,
          "midi": 76,
          "name": "E5",
          "ticks": 90600,
          "time": 83.27197,
          "velocity": 0.6299212598425197
        },
        {
          "duration": 0.10937488333333079,
          "durationTicks": 119,
          "midi": 74,
          "name": "D5",
          "ticks": 90720,
          "time": 83.382264,
          "velocity": 0.6299212598425197
        },
        {
          "duration": 0.10937488333333079,
          "durationTicks": 119,
          "midi": 71,
          "name": "B4",
          "ticks": 90840,
          "time": 83.492558,
          "velocity": 0.6299212598425197
        },
        {
          "duration": 0.109374883333345,
          "durationTicks": 119,
          "midi": 67,
          "name": "G4",
          "ticks": 90960,
          "time": 83.602852,
          "velocity": 0.6299212598425197
        },
        {
          "duration": 0.10937488333333079,
          "durationTicks": 119,
          "midi": 66,
          "name": "F#4",
          "ticks": 91080,
          "time": 83.71314600000001,
          "velocity": 0.6299212598425197
        },
        {
          "duration": 0.10937488333333079,
          "durationTicks": 119,
          "midi": 71,
          "name": "B4",
          "ticks": 94320,
          "time": 86.691084,
          "velocity": 0.6299212598425197
        },
        {
          "duration": 0.10937488333333079,
          "durationTicks": 119,
          "midi": 72,
          "name": "C5",
          "ticks": 94440,
          "time": 86.801378,
          "velocity": 0.6299212598425197
        },
        {
          "duration": 0.109374883333345,
          "durationTicks": 119,
          "midi": 74,
          "name": "D5",
          "ticks": 94560,
          "time": 86.911672,
          "velocity": 0.6299212598425197
        },
        {
          "duration": 0.10937488333333079,
          "durationTicks": 119,
          "midi": 71,
          "name": "B4",
          "ticks": 94680,
          "time": 87.021966,
          "velocity": 0.6299212598425197
        },
        {
          "duration": 0.10937488333333079,
          "durationTicks": 119,
          "midi": 72,
          "name": "C5",
          "ticks": 94800,
          "time": 87.13226,
          "velocity": 0.6299212598425197
        },
        {
          "duration": 0.109374883333345,
          "durationTicks": 119,
          "midi": 74,
          "name": "D5",
          "ticks": 94920,
          "time": 87.242554,
          "velocity": 0.6299212598425197
        },
        {
          "duration": 0.44025688333333335,
          "durationTicks": 479,
          "midi": 67,
          "name": "G4",
          "ticks": 100800,
          "time": 92.64696,
          "velocity": 0.6299212598425197
        },
        {
          "duration": 0.44025688333333335,
          "durationTicks": 479,
          "midi": 69,
          "name": "A4",
          "ticks": 101280,
          "time": 93.088136,
          "velocity": 0.6299212598425197
        },
        {
          "duration": 0.44025688333333335,
          "durationTicks": 479,
          "midi": 71,
          "name": "B4",
          "ticks": 101760,
          "time": 93.529312,
          "velocity": 0.6299212598425197
        },
        {
          "duration": 0.44025688333333335,
          "durationTicks": 479,
          "midi": 72,
          "name": "C5",
          "ticks": 102240,
          "time": 93.970488,
          "velocity": 0.6299212598425197
        },
        {
          "duration": 0.10937488333333079,
          "durationTicks": 119,
          "midi": 74,
          "name": "D5",
          "ticks": 102720,
          "time": 94.411664,
          "velocity": 0.6299212598425197
        },
        {
          "duration": 0.10937488333333079,
          "durationTicks": 119,
          "midi": 74,
          "name": "D5",
          "ticks": 102960,
          "time": 94.63225200000001,
          "velocity": 0.6299212598425197
        },
        {
          "duration": 0.44025688333333335,
          "durationTicks": 479,
          "midi": 74,
          "name": "D5",
          "ticks": 103440,
          "time": 95.073428,
          "velocity": 0.6299212598425197
        },
        {
          "duration": 0.10937488333333079,
          "durationTicks": 119,
          "midi": 76,
          "name": "E5",
          "ticks": 103920,
          "time": 95.514604,
          "velocity": 0.6299212598425197
        },
        {
          "duration": 0.44025688333333335,
          "durationTicks": 479,
          "midi": 76,
          "name": "E5",
          "ticks": 104160,
          "time": 95.735192,
          "velocity": 0.6299212598425197
        },
        {
          "duration": 0.10937488333333079,
          "durationTicks": 119,
          "midi": 74,
          "name": "D5",
          "ticks": 106560,
          "time": 97.941072,
          "velocity": 0.6299212598425197
        },
        {
          "duration": 0.109374883333345,
          "durationTicks": 119,
          "midi": 74,
          "name": "D5",
          "ticks": 106800,
          "time": 98.16166,
          "velocity": 0.6299212598425197
        },
        {
          "duration": 0.44025688333334756,
          "durationTicks": 479,
          "midi": 74,
          "name": "D5",
          "ticks": 107280,
          "time": 98.602836,
          "velocity": 0.6299212598425197
        },
        {
          "duration": 0.10937488333333079,
          "durationTicks": 119,
          "midi": 76,
          "name": "E5",
          "ticks": 107760,
          "time": 99.04401200000001,
          "velocity": 0.6299212598425197
        },
        {
          "duration": 0.44025688333333335,
          "durationTicks": 479,
          "midi": 76,
          "name": "E5",
          "ticks": 108000,
          "time": 99.2646,
          "velocity": 0.6299212598425197
        },
        {
          "duration": 0.44025688333333335,
          "durationTicks": 479,
          "midi": 71,
          "name": "B4",
          "ticks": 109440,
          "time": 100.588128,
          "velocity": 0.6299212598425197
        },
        {
          "duration": 0.44025688333334756,
          "durationTicks": 479,
          "midi": 72,
          "name": "C5",
          "ticks": 109920,
          "time": 101.029304,
          "velocity": 0.6299212598425197
        },
        {
          "duration": 0.10937488333333079,
          "durationTicks": 119,
          "midi": 74,
          "name": "D5",
          "ticks": 110400,
          "time": 101.47048000000001,
          "velocity": 0.6299212598425197
        },
        {
          "duration": 0.10937488333333079,
          "durationTicks": 119,
          "midi": 74,
          "name": "D5",
          "ticks": 110640,
          "time": 101.691068,
          "velocity": 0.6299212598425197
        },
        {
          "duration": 0.44025688333333335,
          "durationTicks": 479,
          "midi": 74,
          "name": "D5",
          "ticks": 111120,
          "time": 102.132244,
          "velocity": 0.6299212598425197
        },
        {
          "duration": 0.21966888333334111,
          "durationTicks": 239,
          "midi": 76,
          "name": "E5",
          "ticks": 111600,
          "time": 102.57342,
          "velocity": 0.6299212598425197
        },
        {
          "duration": 0.6608448833333398,
          "durationTicks": 719,
          "midi": 74,
          "name": "D5",
          "ticks": 112080,
          "time": 103.014596,
          "velocity": 0.7559055118110236
        },
        {
          "duration": 0.44025688333333335,
          "durationTicks": 479,
          "midi": 72,
          "name": "C5",
          "ticks": 112800,
          "time": 103.67636,
          "velocity": 0.6299212598425197
        },
        {
          "duration": 0.44025688333333335,
          "durationTicks": 479,
          "midi": 71,
          "name": "B4",
          "ticks": 113280,
          "time": 104.117536,
          "velocity": 0.6299212598425197
        },
        {
          "duration": 0.0873160833333344,
          "durationTicks": 95,
          "midi": 79,
          "name": "G5",
          "ticks": 113760,
          "time": 104.558712,
          "velocity": 0.8818897637795275
        },
        {
          "duration": 0.0873160833333344,
          "durationTicks": 95,
          "midi": 80,
          "name": "G#5",
          "ticks": 113856,
          "time": 104.6469472,
          "velocity": 0.8818897637795275
        },
        {
          "duration": 0.0873160833333344,
          "durationTicks": 95,
          "midi": 81,
          "name": "A5",
          "ticks": 113952,
          "time": 104.7351824,
          "velocity": 0.8818897637795275
        },
        {
          "duration": 0.08731608333334862,
          "durationTicks": 95,
          "midi": 82,
          "name": "A#5",
          "ticks": 114048,
          "time": 104.8234176,
          "velocity": 0.8818897637795275
        },
        {
          "duration": 0.0873160833333202,
          "durationTicks": 95,
          "midi": 83,
          "name": "B5",
          "ticks": 114144,
          "time": 104.91165280000001,
          "velocity": 0.8818897637795275
        },
        {
          "duration": 0.21966888333334111,
          "durationTicks": 239,
          "midi": 72,
          "name": "C5",
          "ticks": 114240,
          "time": 104.999888,
          "velocity": 0.8818897637795275
        },
        {
          "duration": 0.21966888333334111,
          "durationTicks": 239,
          "midi": 84,
          "name": "C6",
          "ticks": 114240,
          "time": 104.999888,
          "velocity": 0.8818897637795275
        },
        {
          "duration": 0.2196688833333269,
          "durationTicks": 239,
          "midi": 72,
          "name": "C5",
          "ticks": 114480,
          "time": 105.220476,
          "velocity": 0.8818897637795275
        },
        {
          "duration": 0.2196688833333269,
          "durationTicks": 239,
          "midi": 84,
          "name": "C6",
          "ticks": 114480,
          "time": 105.220476,
          "velocity": 0.8818897637795275
        },
        {
          "duration": 0.21966888333334111,
          "durationTicks": 239,
          "midi": 72,
          "name": "C5",
          "ticks": 114720,
          "time": 105.441064,
          "velocity": 0.8818897637795275
        },
        {
          "duration": 0.21966888333334111,
          "durationTicks": 239,
          "midi": 84,
          "name": "C6",
          "ticks": 114720,
          "time": 105.441064,
          "velocity": 0.8818897637795275
        },
        {
          "duration": 0.2196688833333269,
          "durationTicks": 239,
          "midi": 71,
          "name": "B4",
          "ticks": 114960,
          "time": 105.661652,
          "velocity": 0.8818897637795275
        },
        {
          "duration": 0.2196688833333269,
          "durationTicks": 239,
          "midi": 83,
          "name": "B5",
          "ticks": 114960,
          "time": 105.661652,
          "velocity": 0.8818897637795275
        },
        {
          "duration": 0.21966888333334111,
          "durationTicks": 239,
          "midi": 67,
          "name": "G4",
          "ticks": 115440,
          "time": 106.102828,
          "velocity": 0.8818897637795275
        },
        {
          "duration": 0.21966888333334111,
          "durationTicks": 239,
          "midi": 79,
          "name": "G5",
          "ticks": 115440,
          "time": 106.102828,
          "velocity": 0.8818897637795275
        },
        {
          "duration": 1.5431968833333372,
          "durationTicks": 1679,
          "midi": 69,
          "name": "A4",
          "ticks": 115920,
          "time": 106.544004,
          "velocity": 0.8818897637795275
        },
        {
          "duration": 1.5431968833333372,
          "durationTicks": 1679,
          "midi": 81,
          "name": "A5",
          "ticks": 115920,
          "time": 106.544004,
          "velocity": 0.8818897637795275
        },
        {
          "duration": 0.44025688333333335,
          "durationTicks": 479,
          "midi": 74,
          "name": "D5",
          "ticks": 117840,
          "time": 108.30870800000001,
          "velocity": 0.8818897637795275
        },
        {
          "duration": 0.10937488333333079,
          "durationTicks": 119,
          "midi": 74,
          "name": "D5",
          "ticks": 118320,
          "time": 108.74988400000001,
          "velocity": 0.8818897637795275
        },
        {
          "duration": 0.10937488333333079,
          "durationTicks": 119,
          "midi": 74,
          "name": "D5",
          "ticks": 118560,
          "time": 108.970472,
          "velocity": 0.8818897637795275
        },
        {
          "duration": 0.10937488333333079,
          "durationTicks": 119,
          "midi": 74,
          "name": "D5",
          "ticks": 118800,
          "time": 109.19106000000001,
          "velocity": 0.8818897637795275
        },
        {
          "duration": 0.21966888333334111,
          "durationTicks": 239,
          "midi": 76,
          "name": "E5",
          "ticks": 119040,
          "time": 109.411648,
          "velocity": 0.8818897637795275
        },
        {
          "duration": 0.44025688333333335,
          "durationTicks": 479,
          "midi": 79,
          "name": "G5",
          "ticks": 120480,
          "time": 110.73517600000001,
          "velocity": 0.905511811023622
        },
        {
          "duration": 0.10937488333333079,
          "durationTicks": 119,
          "midi": 74,
          "name": "D5",
          "ticks": 121200,
          "time": 111.39694,
          "velocity": 0.7559055118110236
        },
        {
          "duration": 0.2196688833333269,
          "durationTicks": 239,
          "midi": 78,
          "name": "F#5",
          "ticks": 121440,
          "time": 111.61752800000001,
          "velocity": 0.7559055118110236
        },
        {
          "duration": 0.21966888333334111,
          "durationTicks": 239,
          "midi": 79,
          "name": "G5",
          "ticks": 121680,
          "time": 111.838116,
          "velocity": 0.7559055118110236
        },
        {
          "duration": 0.2196688833333269,
          "durationTicks": 239,
          "midi": 78,
          "name": "F#5",
          "ticks": 121920,
          "time": 112.058704,
          "velocity": 0.7559055118110236
        },
        {
          "duration": 0.109374883333345,
          "durationTicks": 119,
          "midi": 79,
          "name": "G5",
          "ticks": 122160,
          "time": 112.279292,
          "velocity": 0.7559055118110236
        },
        {
          "duration": 0.6608448833333256,
          "durationTicks": 719,
          "midi": 79,
          "name": "G5",
          "ticks": 122640,
          "time": 112.720468,
          "velocity": 0.905511811023622
        },
        {
          "duration": 0.2196688833333269,
          "durationTicks": 239,
          "midi": 78,
          "name": "F#5",
          "ticks": 123360,
          "time": 113.382232,
          "velocity": 0.7559055118110236
        },
        {
          "duration": 0.2196688833333127,
          "durationTicks": 239,
          "midi": 79,
          "name": "G5",
          "ticks": 123600,
          "time": 113.60282000000001,
          "velocity": 0.7559055118110236
        },
        {
          "duration": 0.2196688833333269,
          "durationTicks": 239,
          "midi": 79,
          "name": "G5",
          "ticks": 125280,
          "time": 115.146936,
          "velocity": 0.7559055118110236
        },
        {
          "duration": 0.10937488333331657,
          "durationTicks": 119,
          "midi": 78,
          "name": "F#5",
          "ticks": 125520,
          "time": 115.367524,
          "velocity": 0.7559055118110236
        },
        {
          "duration": 0.2196688833333127,
          "durationTicks": 239,
          "midi": 77,
          "name": "F5",
          "ticks": 125760,
          "time": 115.58811200000001,
          "velocity": 0.7559055118110236
        },
        {
          "duration": 0.2196688833333269,
          "durationTicks": 239,
          "midi": 79,
          "name": "G5",
          "ticks": 126000,
          "time": 115.8087,
          "velocity": 0.7559055118110236
        },
        {
          "duration": 0.10937488333331657,
          "durationTicks": 119,
          "midi": 81,
          "name": "A5",
          "ticks": 126240,
          "time": 116.02928800000001,
          "velocity": 0.7559055118110236
        },
        {
          "duration": 0.44025688333331914,
          "durationTicks": 479,
          "midi": 83,
          "name": "B5",
          "ticks": 126480,
          "time": 116.249876,
          "velocity": 0.7559055118110236
        },
        {
          "duration": 0.10937488333333079,
          "durationTicks": 119,
          "midi": 81,
          "name": "A5",
          "ticks": 126960,
          "time": 116.691052,
          "velocity": 0.7559055118110236
        },
        {
          "duration": 0.44025688333331914,
          "durationTicks": 479,
          "midi": 79,
          "name": "G5",
          "ticks": 127200,
          "time": 116.91164,
          "velocity": 0.7559055118110236
        },
        {
          "duration": 0.2196688833333127,
          "durationTicks": 239,
          "midi": 74,
          "name": "D5",
          "ticks": 128400,
          "time": 118.01458000000001,
          "velocity": 0.7559055118110236
        },
        {
          "duration": 0.2196688833333269,
          "durationTicks": 239,
          "midi": 76,
          "name": "E5",
          "ticks": 128640,
          "time": 118.235168,
          "velocity": 0.7559055118110236
        },
        {
          "duration": 0.2196688833333127,
          "durationTicks": 239,
          "midi": 78,
          "name": "F#5",
          "ticks": 128880,
          "time": 118.45575600000001,
          "velocity": 0.7559055118110236
        },
        {
          "duration": 0.2196688833333269,
          "durationTicks": 239,
          "midi": 79,
          "name": "G5",
          "ticks": 129120,
          "time": 118.676344,
          "velocity": 0.7559055118110236
        },
        {
          "duration": 0.2196688833333127,
          "durationTicks": 239,
          "midi": 81,
          "name": "A5",
          "ticks": 129360,
          "time": 118.896932,
          "velocity": 0.7559055118110236
        },
        {
          "duration": 0.2196688833333127,
          "durationTicks": 239,
          "midi": 79,
          "name": "G5",
          "ticks": 129840,
          "time": 119.338108,
          "velocity": 0.7559055118110236
        },
        {
          "duration": 0.2196688833333269,
          "durationTicks": 239,
          "midi": 78,
          "name": "F#5",
          "ticks": 130080,
          "time": 119.558696,
          "velocity": 0.7559055118110236
        },
        {
          "duration": 0.44025688333331914,
          "durationTicks": 479,
          "midi": 79,
          "name": "G5",
          "ticks": 130320,
          "time": 119.779284,
          "velocity": 0.7559055118110236
        },
        {
          "duration": 0.2196688833333269,
          "durationTicks": 239,
          "midi": 78,
          "name": "F#5",
          "ticks": 130800,
          "time": 120.22046,
          "velocity": 0.7559055118110236
        },
        {
          "duration": 0.2196688833333127,
          "durationTicks": 239,
          "midi": 76,
          "name": "E5",
          "ticks": 131040,
          "time": 120.44104800000001,
          "velocity": 0.7559055118110236
        },
        {
          "duration": 0.2196688833333269,
          "durationTicks": 239,
          "midi": 74,
          "name": "D5",
          "ticks": 131280,
          "time": 120.661636,
          "velocity": 0.7559055118110236
        },
        {
          "duration": 0.44025688333331914,
          "durationTicks": 479,
          "midi": 69,
          "name": "A4",
          "ticks": 131520,
          "time": 120.88222400000001,
          "velocity": 0.7559055118110236
        },
        {
          "duration": 0.44025688333331914,
          "durationTicks": 479,
          "midi": 72,
          "name": "C5",
          "ticks": 132000,
          "time": 121.3234,
          "velocity": 0.7559055118110236
        },
        {
          "duration": 0.44025688333331914,
          "durationTicks": 479,
          "midi": 76,
          "name": "E5",
          "ticks": 132480,
          "time": 121.764576,
          "velocity": 0.7559055118110236
        },
        {
          "duration": 0.44025688333331914,
          "durationTicks": 479,
          "midi": 79,
          "name": "G5",
          "ticks": 132960,
          "time": 122.205752,
          "velocity": 0.7559055118110236
        },
        {
          "duration": 0.8814328833333178,
          "durationTicks": 959,
          "midi": 79,
          "name": "G5",
          "ticks": 133440,
          "time": 122.646928,
          "velocity": 0.7559055118110236
        },
        {
          "duration": 0.6608448833333256,
          "durationTicks": 719,
          "midi": 78,
          "name": "F#5",
          "ticks": 134400,
          "time": 123.52928,
          "velocity": 0.7559055118110236
        },
        {
          "duration": 0.2196688833333269,
          "durationTicks": 239,
          "midi": 79,
          "name": "G5",
          "ticks": 135120,
          "time": 124.191044,
          "velocity": 0.7559055118110236
        },
        {
          "duration": 0.10937488333333079,
          "durationTicks": 119,
          "midi": 76,
          "name": "E5",
          "ticks": 137040,
          "time": 125.955748,
          "velocity": 0.7559055118110236
        },
        {
          "duration": 0.10937488333331657,
          "durationTicks": 119,
          "midi": 76,
          "name": "E5",
          "ticks": 137160,
          "time": 126.06604200000001,
          "velocity": 0.7559055118110236
        },
        {
          "duration": 0.44025688333331914,
          "durationTicks": 479,
          "midi": 67,
          "name": "G4",
          "ticks": 138240,
          "time": 127.058688,
          "velocity": 0.7559055118110236
        },
        {
          "duration": 0.329962883333323,
          "durationTicks": 359,
          "midi": 69,
          "name": "A4",
          "ticks": 138720,
          "time": 127.499864,
          "velocity": 0.7559055118110236
        },
        {
          "duration": 0.10937488333331657,
          "durationTicks": 119,
          "midi": 64,
          "name": "E4",
          "ticks": 139080,
          "time": 127.830746,
          "velocity": 0.7559055118110236
        },
        {
          "duration": 0.10937488333331657,
          "durationTicks": 119,
          "midi": 76,
          "name": "E5",
          "ticks": 140880,
          "time": 129.48515600000002,
          "velocity": 0.7559055118110236
        },
        {
          "duration": 0.10937488333331657,
          "durationTicks": 119,
          "midi": 76,
          "name": "E5",
          "ticks": 141000,
          "time": 129.59545,
          "velocity": 0.7559055118110236
        },
        {
          "duration": 0.10937488333331657,
          "durationTicks": 119,
          "midi": 83,
          "name": "B5",
          "ticks": 141360,
          "time": 129.926332,
          "velocity": 0.7559055118110236
        },
        {
          "duration": 0.10937488333331657,
          "durationTicks": 119,
          "midi": 81,
          "name": "A5",
          "ticks": 141480,
          "time": 130.036626,
          "velocity": 0.7559055118110236
        },
        {
          "duration": 0.109374883333345,
          "durationTicks": 119,
          "midi": 79,
          "name": "G5",
          "ticks": 141600,
          "time": 130.14692,
          "velocity": 0.7559055118110236
        },
        {
          "duration": 0.10937488333331657,
          "durationTicks": 119,
          "midi": 76,
          "name": "E5",
          "ticks": 141720,
          "time": 130.257214,
          "velocity": 0.7559055118110236
        },
        {
          "duration": 0.44025688333331914,
          "durationTicks": 479,
          "midi": 67,
          "name": "G4",
          "ticks": 142080,
          "time": 130.588096,
          "velocity": 0.7559055118110236
        },
        {
          "duration": 0.32996288333333723,
          "durationTicks": 359,
          "midi": 69,
          "name": "A4",
          "ticks": 142560,
          "time": 131.029272,
          "velocity": 0.7559055118110236
        },
        {
          "duration": 0.109374883333345,
          "durationTicks": 119,
          "midi": 64,
          "name": "E4",
          "ticks": 142920,
          "time": 131.360154,
          "velocity": 0.7559055118110236
        },
        {
          "duration": 0.10937488333331657,
          "durationTicks": 119,
          "midi": 76,
          "name": "E5",
          "ticks": 144720,
          "time": 133.014564,
          "velocity": 0.7559055118110236
        },
        {
          "duration": 0.10937488333331657,
          "durationTicks": 119,
          "midi": 76,
          "name": "E5",
          "ticks": 144840,
          "time": 133.12485800000002,
          "velocity": 0.7559055118110236
        },
        {
          "duration": 0.44025688333331914,
          "durationTicks": 479,
          "midi": 67,
          "name": "G4",
          "ticks": 145920,
          "time": 134.117504,
          "velocity": 0.7559055118110236
        },
        {
          "duration": 0.3299628833333088,
          "durationTicks": 359,
          "midi": 69,
          "name": "A4",
          "ticks": 146400,
          "time": 134.55868,
          "velocity": 0.7559055118110236
        },
        {
          "duration": 0.10937488333331657,
          "durationTicks": 119,
          "midi": 64,
          "name": "E4",
          "ticks": 146760,
          "time": 134.889562,
          "velocity": 0.7559055118110236
        },
        {
          "duration": 0.10937488333331657,
          "durationTicks": 119,
          "midi": 76,
          "name": "E5",
          "ticks": 148560,
          "time": 136.543972,
          "velocity": 0.7559055118110236
        },
        {
          "duration": 0.10937488333331657,
          "durationTicks": 119,
          "midi": 76,
          "name": "E5",
          "ticks": 148680,
          "time": 136.654266,
          "velocity": 0.7559055118110236
        },
        {
          "duration": 0.10937488333331657,
          "durationTicks": 119,
          "midi": 83,
          "name": "B5",
          "ticks": 149040,
          "time": 136.985148,
          "velocity": 0.7559055118110236
        },
        {
          "duration": 0.109374883333345,
          "durationTicks": 119,
          "midi": 81,
          "name": "A5",
          "ticks": 149160,
          "time": 137.095442,
          "velocity": 0.7559055118110236
        },
        {
          "duration": 0.10937488333331657,
          "durationTicks": 119,
          "midi": 79,
          "name": "G5",
          "ticks": 149280,
          "time": 137.205736,
          "velocity": 0.7559055118110236
        },
        {
          "duration": 0.10937488333331657,
          "durationTicks": 119,
          "midi": 76,
          "name": "E5",
          "ticks": 149400,
          "time": 137.31603,
          "velocity": 0.7559055118110236
        },
        {
          "duration": 0.44025688333331914,
          "durationTicks": 479,
          "midi": 67,
          "name": "G4",
          "ticks": 149760,
          "time": 137.64691200000001,
          "velocity": 0.7559055118110236
        },
        {
          "duration": 0.32996288333333723,
          "durationTicks": 359,
          "midi": 69,
          "name": "A4",
          "ticks": 150240,
          "time": 138.088088,
          "velocity": 0.7559055118110236
        },
        {
          "duration": 0.10937488333331657,
          "durationTicks": 119,
          "midi": 64,
          "name": "E4",
          "ticks": 150600,
          "time": 138.41897,
          "velocity": 0.7559055118110236
        },
        {
          "duration": 0.029411733333319035,
          "durationTicks": 32,
          "midi": 76,
          "name": "E5",
          "ticks": 151440,
          "time": 139.19102800000002,
          "velocity": 0.7559055118110236
        },
        {
          "duration": 0.029411733333347456,
          "durationTicks": 32,
          "midi": 77,
          "name": "F5",
          "ticks": 151473,
          "time": 139.22135885,
          "velocity": 0.7559055118110236
        },
        {
          "duration": 0.029411733333319035,
          "durationTicks": 32,
          "midi": 78,
          "name": "F#5",
          "ticks": 151507,
          "time": 139.25260881666668,
          "velocity": 0.7559055118110236
        },
        {
          "duration": 0.029411733333319035,
          "durationTicks": 32,
          "midi": 79,
          "name": "G5",
          "ticks": 151542,
          "time": 139.2847779,
          "velocity": 0.7559055118110236
        },
        {
          "duration": 0.029411733333319035,
          "durationTicks": 32,
          "midi": 80,
          "name": "G#5",
          "ticks": 151575,
          "time": 139.31510875,
          "velocity": 0.7559055118110236
        },
        {
          "duration": 0.029411733333347456,
          "durationTicks": 32,
          "midi": 81,
          "name": "A5",
          "ticks": 151609,
          "time": 139.34635871666666,
          "velocity": 0.7559055118110236
        },
        {
          "duration": 0.03216908333331503,
          "durationTicks": 35,
          "midi": 82,
          "name": "A#5",
          "ticks": 151644,
          "time": 139.3785278,
          "velocity": 0.7559055118110236
        },
        {
          "duration": 0.10937488333331657,
          "durationTicks": 119,
          "midi": 83,
          "name": "B5",
          "ticks": 151680,
          "time": 139.411616,
          "velocity": 0.7559055118110236
        },
        {
          "duration": 0.10937488333331657,
          "durationTicks": 119,
          "midi": 81,
          "name": "A5",
          "ticks": 151920,
          "time": 139.632204,
          "velocity": 0.7559055118110236
        },
        {
          "duration": 0.109374883333345,
          "durationTicks": 119,
          "midi": 79,
          "name": "G5",
          "ticks": 152160,
          "time": 139.852792,
          "velocity": 0.7559055118110236
        },
        {
          "duration": 0.2196688833333269,
          "durationTicks": 239,
          "midi": 76,
          "name": "E5",
          "ticks": 152280,
          "time": 139.963086,
          "velocity": 0.7559055118110236
        },
        {
          "duration": 1.7637848833333294,
          "durationTicks": 1919,
          "midi": 81,
          "name": "A5",
          "ticks": 152640,
          "time": 140.293968,
          "velocity": 0.25984251968503935
        },
        {
          "duration": 1.7637848833333294,
          "durationTicks": 1919,
          "midi": 84,
          "name": "C6",
          "ticks": 152640,
          "time": 140.293968,
          "velocity": 0.25984251968503935
        },
        {
          "duration": 0.881432883333332,
          "durationTicks": 959,
          "midi": 76,
          "name": "E5",
          "ticks": 154560,
          "time": 142.058672,
          "velocity": 0.6299212598425197
        },
        {
          "duration": 0.881432883333332,
          "durationTicks": 959,
          "midi": 79,
          "name": "G5",
          "ticks": 154560,
          "time": 142.058672,
          "velocity": 0.6299212598425197
        },
        {
          "duration": 0.44025688333331914,
          "durationTicks": 479,
          "midi": 69,
          "name": "A4",
          "ticks": 166080,
          "time": 152.646896,
          "velocity": 0.6299212598425197
        },
        {
          "duration": 0.44025688333331914,
          "durationTicks": 479,
          "midi": 72,
          "name": "C5",
          "ticks": 166560,
          "time": 153.088072,
          "velocity": 0.6299212598425197
        },
        {
          "duration": 0.44025688333331914,
          "durationTicks": 479,
          "midi": 76,
          "name": "E5",
          "ticks": 167040,
          "time": 153.529248,
          "velocity": 0.6299212598425197
        },
        {
          "duration": 0.44025688333331914,
          "durationTicks": 479,
          "midi": 79,
          "name": "G5",
          "ticks": 167520,
          "time": 153.970424,
          "velocity": 0.6299212598425197
        },
        {
          "duration": 0.881432883333332,
          "durationTicks": 959,
          "midi": 79,
          "name": "G5",
          "ticks": 168000,
          "time": 154.4116,
          "velocity": 0.6299212598425197
        },
        {
          "duration": 0.6608448833333398,
          "durationTicks": 719,
          "midi": 78,
          "name": "F#5",
          "ticks": 168960,
          "time": 155.293952,
          "velocity": 0.6299212598425197
        },
        {
          "duration": 0.2196688833333269,
          "durationTicks": 239,
          "midi": 79,
          "name": "G5",
          "ticks": 169680,
          "time": 155.955716,
          "velocity": 0.6299212598425197
        },
        {
          "duration": 0.10937488333331657,
          "durationTicks": 119,
          "midi": 79,
          "name": "G5",
          "ticks": 170160,
          "time": 156.396892,
          "velocity": 0.9921259842519685
        },
        {
          "duration": 0.44025688333331914,
          "durationTicks": 479,
          "midi": 78,
          "name": "F#5",
          "ticks": 170400,
          "time": 156.61748,
          "velocity": 1
        },
        {
          "duration": 0.44025688333331914,
          "durationTicks": 479,
          "midi": 81,
          "name": "A5",
          "ticks": 170400,
          "time": 156.61748,
          "velocity": 1
        },
        {
          "duration": 0.10937488333331657,
          "durationTicks": 119,
          "midi": 79,
          "name": "G5",
          "ticks": 170880,
          "time": 157.058656,
          "velocity": 0.9921259842519685
        },
        {
          "duration": 0.10937488333331657,
          "durationTicks": 119,
          "midi": 81,
          "name": "A5",
          "ticks": 171120,
          "time": 157.279244,
          "velocity": 0.9921259842519685
        },
        {
          "duration": 0.44025688333331914,
          "durationTicks": 479,
          "midi": 79,
          "name": "G5",
          "ticks": 171360,
          "time": 157.499832,
          "velocity": 1
        },
        {
          "duration": 0.44025688333331914,
          "durationTicks": 479,
          "midi": 83,
          "name": "B5",
          "ticks": 171360,
          "time": 157.499832,
          "velocity": 1
        },
        {
          "duration": 0.44025688333331914,
          "durationTicks": 479,
          "midi": 79,
          "name": "G5",
          "ticks": 172320,
          "time": 158.382184,
          "velocity": 0.905511811023622
        },
        {
          "duration": 0.10937488333331657,
          "durationTicks": 119,
          "midi": 74,
          "name": "D5",
          "ticks": 173040,
          "time": 159.043948,
          "velocity": 0.7559055118110236
        },
        {
          "duration": 0.2196688833333269,
          "durationTicks": 239,
          "midi": 78,
          "name": "F#5",
          "ticks": 173280,
          "time": 159.264536,
          "velocity": 0.7559055118110236
        },
        {
          "duration": 0.2196688833333269,
          "durationTicks": 239,
          "midi": 79,
          "name": "G5",
          "ticks": 173520,
          "time": 159.485124,
          "velocity": 0.7559055118110236
        },
        {
          "duration": 0.2196688833333269,
          "durationTicks": 239,
          "midi": 78,
          "name": "F#5",
          "ticks": 173760,
          "time": 159.705712,
          "velocity": 0.7559055118110236
        },
        {
          "duration": 0.2196688833333269,
          "durationTicks": 239,
          "midi": 79,
          "name": "G5",
          "ticks": 174000,
          "time": 159.9263,
          "velocity": 0.7559055118110236
        },
        {
          "duration": 0.6608448833333114,
          "durationTicks": 719,
          "midi": 79,
          "name": "G5",
          "ticks": 174480,
          "time": 160.367476,
          "velocity": 0.905511811023622
        },
        {
          "duration": 0.21966888333329848,
          "durationTicks": 239,
          "midi": 78,
          "name": "F#5",
          "ticks": 175200,
          "time": 161.02924000000002,
          "velocity": 0.7559055118110236
        },
        {
          "duration": 0.2196688833333269,
          "durationTicks": 239,
          "midi": 79,
          "name": "G5",
          "ticks": 175440,
          "time": 161.249828,
          "velocity": 0.7559055118110236
        },
        {
          "duration": 0.2196688833333269,
          "durationTicks": 239,
          "midi": 79,
          "name": "G5",
          "ticks": 177120,
          "time": 162.793944,
          "velocity": 0.7559055118110236
        },
        {
          "duration": 0.10937488333331657,
          "durationTicks": 119,
          "midi": 78,
          "name": "F#5",
          "ticks": 177360,
          "time": 163.014532,
          "velocity": 0.7559055118110236
        },
        {
          "duration": 0.2196688833333269,
          "durationTicks": 239,
          "midi": 77,
          "name": "F5",
          "ticks": 177600,
          "time": 163.23512,
          "velocity": 0.7559055118110236
        },
        {
          "duration": 0.21966888333329848,
          "durationTicks": 239,
          "midi": 79,
          "name": "G5",
          "ticks": 177840,
          "time": 163.45570800000002,
          "velocity": 0.7559055118110236
        },
        {
          "duration": 0.10937488333331657,
          "durationTicks": 119,
          "midi": 81,
          "name": "A5",
          "ticks": 178080,
          "time": 163.676296,
          "velocity": 0.7559055118110236
        },
        {
          "duration": 0.44025688333331914,
          "durationTicks": 479,
          "midi": 83,
          "name": "B5",
          "ticks": 178320,
          "time": 163.896884,
          "velocity": 0.7559055118110236
        },
        {
          "duration": 0.10937488333331657,
          "durationTicks": 119,
          "midi": 81,
          "name": "A5",
          "ticks": 178800,
          "time": 164.33806,
          "velocity": 0.7559055118110236
        },
        {
          "duration": 0.44025688333331914,
          "durationTicks": 479,
          "midi": 79,
          "name": "G5",
          "ticks": 179040,
          "time": 164.558648,
          "velocity": 0.7559055118110236
        },
        {
          "duration": 0.2196688833333269,
          "durationTicks": 239,
          "midi": 74,
          "name": "D5",
          "ticks": 180240,
          "time": 165.661588,
          "velocity": 0.7559055118110236
        },
        {
          "duration": 0.21966888333329848,
          "durationTicks": 239,
          "midi": 76,
          "name": "E5",
          "ticks": 180480,
          "time": 165.88217600000002,
          "velocity": 0.7559055118110236
        },
        {
          "duration": 0.2196688833333269,
          "durationTicks": 239,
          "midi": 78,
          "name": "F#5",
          "ticks": 180720,
          "time": 166.102764,
          "velocity": 0.7559055118110236
        },
        {
          "duration": 0.2196688833333269,
          "durationTicks": 239,
          "midi": 79,
          "name": "G5",
          "ticks": 180960,
          "time": 166.323352,
          "velocity": 0.7559055118110236
        },
        {
          "duration": 0.2196688833333269,
          "durationTicks": 239,
          "midi": 81,
          "name": "A5",
          "ticks": 181200,
          "time": 166.54394,
          "velocity": 0.7559055118110236
        },
        {
          "duration": 0.2196688833333269,
          "durationTicks": 239,
          "midi": 79,
          "name": "G5",
          "ticks": 181680,
          "time": 166.985116,
          "velocity": 0.7559055118110236
        },
        {
          "duration": 0.2196688833333269,
          "durationTicks": 239,
          "midi": 78,
          "name": "F#5",
          "ticks": 181920,
          "time": 167.205704,
          "velocity": 0.7559055118110236
        },
        {
          "duration": 0.44025688333331914,
          "durationTicks": 479,
          "midi": 79,
          "name": "G5",
          "ticks": 182160,
          "time": 167.42629200000002,
          "velocity": 0.7559055118110236
        },
        {
          "duration": 0.2196688833333269,
          "durationTicks": 239,
          "midi": 78,
          "name": "F#5",
          "ticks": 182640,
          "time": 167.867468,
          "velocity": 0.7559055118110236
        },
        {
          "duration": 0.2196688833333269,
          "durationTicks": 239,
          "midi": 76,
          "name": "E5",
          "ticks": 182880,
          "time": 168.088056,
          "velocity": 0.7559055118110236
        },
        {
          "duration": 0.21966888333329848,
          "durationTicks": 239,
          "midi": 74,
          "name": "D5",
          "ticks": 183120,
          "time": 168.30864400000002,
          "velocity": 0.7559055118110236
        },
        {
          "duration": 0.44025688333331914,
          "durationTicks": 479,
          "midi": 69,
          "name": "A4",
          "ticks": 183360,
          "time": 168.529232,
          "velocity": 0.9921259842519685
        },
        {
          "duration": 0.44025688333331914,
          "durationTicks": 479,
          "midi": 81,
          "name": "A5",
          "ticks": 183360,
          "time": 168.529232,
          "velocity": 0.9921259842519685
        },
        {
          "duration": 0.44025688333334756,
          "durationTicks": 479,
          "midi": 72,
          "name": "C5",
          "ticks": 183840,
          "time": 168.970408,
          "velocity": 0.9921259842519685
        },
        {
          "duration": 0.44025688333334756,
          "durationTicks": 479,
          "midi": 84,
          "name": "C6",
          "ticks": 183840,
          "time": 168.970408,
          "velocity": 0.9921259842519685
        },
        {
          "duration": 0.44025688333331914,
          "durationTicks": 479,
          "midi": 76,
          "name": "E5",
          "ticks": 184320,
          "time": 169.411584,
          "velocity": 0.9921259842519685
        },
        {
          "duration": 0.44025688333331914,
          "durationTicks": 479,
          "midi": 88,
          "name": "E6",
          "ticks": 184320,
          "time": 169.411584,
          "velocity": 0.9921259842519685
        },
        {
          "duration": 0.44025688333331914,
          "durationTicks": 479,
          "midi": 79,
          "name": "G5",
          "ticks": 184800,
          "time": 169.85276000000002,
          "velocity": 0.9921259842519685
        },
        {
          "duration": 0.44025688333331914,
          "durationTicks": 479,
          "midi": 91,
          "name": "G6",
          "ticks": 184800,
          "time": 169.85276000000002,
          "velocity": 0.9921259842519685
        },
        {
          "duration": 0.881432883333332,
          "durationTicks": 959,
          "midi": 67,
          "name": "G4",
          "ticks": 185280,
          "time": 170.293936,
          "velocity": 0.9921259842519685
        },
        {
          "duration": 0.881432883333332,
          "durationTicks": 959,
          "midi": 79,
          "name": "G5",
          "ticks": 185280,
          "time": 170.293936,
          "velocity": 0.9921259842519685
        },
        {
          "duration": 0.881432883333332,
          "durationTicks": 959,
          "midi": 91,
          "name": "G6",
          "ticks": 185280,
          "time": 170.293936,
          "velocity": 0.9921259842519685
        },
        {
          "duration": 0.6608448833333398,
          "durationTicks": 719,
          "midi": 66,
          "name": "F#4",
          "ticks": 186240,
          "time": 171.176288,
          "velocity": 0.9921259842519685
        },
        {
          "duration": 0.6608448833333398,
          "durationTicks": 719,
          "midi": 78,
          "name": "F#5",
          "ticks": 186240,
          "time": 171.176288,
          "velocity": 0.9921259842519685
        },
        {
          "duration": 0.6608448833333398,
          "durationTicks": 719,
          "midi": 90,
          "name": "F#6",
          "ticks": 186240,
          "time": 171.176288,
          "velocity": 0.9921259842519685
        },
        {
          "duration": 0.881432883333332,
          "durationTicks": 959,
          "midi": 66,
          "name": "F#4",
          "ticks": 186960,
          "time": 171.838052,
          "velocity": 0.9921259842519685
        },
        {
          "duration": 0.881432883333332,
          "durationTicks": 959,
          "midi": 78,
          "name": "F#5",
          "ticks": 186960,
          "time": 171.838052,
          "velocity": 0.9921259842519685
        },
        {
          "duration": 0.881432883333332,
          "durationTicks": 959,
          "midi": 90,
          "name": "F#6",
          "ticks": 186960,
          "time": 171.838052,
          "velocity": 0.9921259842519685
        },
        {
          "duration": 0.6608448833333114,
          "durationTicks": 719,
          "midi": 67,
          "name": "G4",
          "ticks": 187920,
          "time": 172.720404,
          "velocity": 0.9921259842519685
        },
        {
          "duration": 0.6608448833333114,
          "durationTicks": 719,
          "midi": 79,
          "name": "G5",
          "ticks": 187920,
          "time": 172.720404,
          "velocity": 0.9921259842519685
        },
        {
          "duration": 0.6608448833333114,
          "durationTicks": 719,
          "midi": 91,
          "name": "G6",
          "ticks": 187920,
          "time": 172.720404,
          "velocity": 0.9921259842519685
        },
        {
          "duration": 0.44025688333331914,
          "durationTicks": 479,
          "midi": 69,
          "name": "A4",
          "ticks": 188880,
          "time": 173.602756,
          "velocity": 0.6299212598425197
        },
        {
          "duration": 0.44025688333331914,
          "durationTicks": 479,
          "midi": 81,
          "name": "A5",
          "ticks": 188880,
          "time": 173.602756,
          "velocity": 0.6299212598425197
        },
        {
          "duration": 0.2196688833333269,
          "durationTicks": 239,
          "midi": 71,
          "name": "B4",
          "ticks": 189360,
          "time": 174.043932,
          "velocity": 0.6299212598425197
        },
        {
          "duration": 0.2196688833333269,
          "durationTicks": 239,
          "midi": 83,
          "name": "B5",
          "ticks": 189360,
          "time": 174.043932,
          "velocity": 0.6299212598425197
        },
        {
          "duration": 0.2196688833333269,
          "durationTicks": 239,
          "midi": 69,
          "name": "A4",
          "ticks": 189600,
          "time": 174.26452,
          "velocity": 0.6299212598425197
        },
        {
          "duration": 0.2196688833333269,
          "durationTicks": 239,
          "midi": 81,
          "name": "A5",
          "ticks": 189600,
          "time": 174.26452,
          "velocity": 0.6299212598425197
        },
        {
          "duration": 1.1020208833333243,
          "durationTicks": 1199,
          "midi": 72,
          "name": "C5",
          "ticks": 189840,
          "time": 174.485108,
          "velocity": 0.6299212598425197
        },
        {
          "duration": 1.1020208833333243,
          "durationTicks": 1199,
          "midi": 84,
          "name": "C6",
          "ticks": 189840,
          "time": 174.485108,
          "velocity": 0.6299212598425197
        },
        {
          "duration": 0.10937488333331657,
          "durationTicks": 119,
          "midi": 79,
          "name": "G5",
          "ticks": 191040,
          "time": 175.58804800000001,
          "velocity": 0.6299212598425197
        },
        {
          "duration": 0.10937488333331657,
          "durationTicks": 119,
          "midi": 76,
          "name": "E5",
          "ticks": 191160,
          "time": 175.698342,
          "velocity": 0.6299212598425197
        },
        {
          "duration": 0.10937488333331657,
          "durationTicks": 119,
          "midi": 74,
          "name": "D5",
          "ticks": 191280,
          "time": 175.808636,
          "velocity": 0.6299212598425197
        },
        {
          "duration": 0.10937488333331657,
          "durationTicks": 119,
          "midi": 71,
          "name": "B4",
          "ticks": 191400,
          "time": 175.91893000000002,
          "velocity": 0.6299212598425197
        },
        {
          "duration": 0.109374883333345,
          "durationTicks": 119,
          "midi": 76,
          "name": "E5",
          "ticks": 191760,
          "time": 176.249812,
          "velocity": 0.6299212598425197
        },
        {
          "duration": 0.10937488333331657,
          "durationTicks": 119,
          "midi": 74,
          "name": "D5",
          "ticks": 191880,
          "time": 176.360106,
          "velocity": 0.6299212598425197
        },
        {
          "duration": 0.10937488333331657,
          "durationTicks": 119,
          "midi": 71,
          "name": "B4",
          "ticks": 192000,
          "time": 176.4704,
          "velocity": 0.6299212598425197
        },
        {
          "duration": 0.109374883333345,
          "durationTicks": 119,
          "midi": 69,
          "name": "A4",
          "ticks": 192120,
          "time": 176.580694,
          "velocity": 0.6299212598425197
        },
        {
          "duration": 0.10937488333331657,
          "durationTicks": 119,
          "midi": 74,
          "name": "D5",
          "ticks": 192480,
          "time": 176.911576,
          "velocity": 0.6299212598425197
        },
        {
          "duration": 0.10937488333331657,
          "durationTicks": 119,
          "midi": 71,
          "name": "B4",
          "ticks": 192600,
          "time": 177.02187,
          "velocity": 0.6299212598425197
        },
        {
          "duration": 0.10937488333331657,
          "durationTicks": 119,
          "midi": 69,
          "name": "A4",
          "ticks": 192720,
          "time": 177.13216400000002,
          "velocity": 0.6299212598425197
        },
        {
          "duration": 0.10937488333331657,
          "durationTicks": 119,
          "midi": 67,
          "name": "G4",
          "ticks": 192840,
          "time": 177.242458,
          "velocity": 0.6299212598425197
        },
        {
          "duration": 0.10937488333331657,
          "durationTicks": 119,
          "midi": 71,
          "name": "B4",
          "ticks": 193200,
          "time": 177.57334,
          "velocity": 0.6299212598425197
        },
        {
          "duration": 0.10937488333331657,
          "durationTicks": 119,
          "midi": 69,
          "name": "A4",
          "ticks": 193320,
          "time": 177.683634,
          "velocity": 0.6299212598425197
        },
        {
          "duration": 0.109374883333345,
          "durationTicks": 119,
          "midi": 67,
          "name": "G4",
          "ticks": 193440,
          "time": 177.793928,
          "velocity": 0.6299212598425197
        },
        {
          "duration": 0.10937488333331657,
          "durationTicks": 119,
          "midi": 64,
          "name": "E4",
          "ticks": 193560,
          "time": 177.904222,
          "velocity": 0.6299212598425197
        },
        {
          "duration": 0.10937488333331657,
          "durationTicks": 119,
          "midi": 69,
          "name": "A4",
          "ticks": 194160,
          "time": 178.455692,
          "velocity": 0.6299212598425197
        },
        {
          "duration": 0.10937488333331657,
          "durationTicks": 119,
          "midi": 71,
          "name": "B4",
          "ticks": 194280,
          "time": 178.565986,
          "velocity": 0.6299212598425197
        },
        {
          "duration": 0.109374883333345,
          "durationTicks": 119,
          "midi": 79,
          "name": "G5",
          "ticks": 194400,
          "time": 178.67628,
          "velocity": 0.6299212598425197
        },
        {
          "duration": 0.10937488333331657,
          "durationTicks": 119,
          "midi": 78,
          "name": "F#5",
          "ticks": 194520,
          "time": 178.786574,
          "velocity": 0.6299212598425197
        },
        {
          "duration": 0.10937488333331657,
          "durationTicks": 119,
          "midi": 71,
          "name": "B4",
          "ticks": 194640,
          "time": 178.896868,
          "velocity": 0.6299212598425197
        },
        {
          "duration": 0.32996288333333723,
          "durationTicks": 359,
          "midi": 74,
          "name": "D5",
          "ticks": 194760,
          "time": 179.007162,
          "velocity": 0.6299212598425197
        },
        {
          "duration": 0.2196688833333269,
          "durationTicks": 239,
          "midi": 76,
          "name": "E5",
          "ticks": 195120,
          "time": 179.338044,
          "velocity": 0.6299212598425197
        }
      ]
    },
    {
      "channel": 0,
      "controlChanges": {
        "121": [
          {
            "number": 121,
            "ticks": 0,
            "time": 0,
            "value": 0
          }
        ]
      },
      "pitchBends": [],
      "instrument": {
        "family": "piano",
        "number": 0,
        "name": "acoustic grand piano"
      },
      "name": "",
      "notes": []
    },
    {
      "channel": 0,
      "controlChanges": {
        "7": [
          {
            "number": 7,
            "ticks": 0,
            "time": 0,
            "value": 0.7874015748031497
          }
        ],
        "10": [
          {
            "number": 10,
            "ticks": 0,
            "time": 0,
            "value": 0.5039370078740157
          }
        ],
        "91": [
          {
            "number": 91,
            "ticks": 0,
            "time": 0,
            "value": 0
          }
        ],
        "93": [
          {
            "number": 93,
            "ticks": 0,
            "time": 0,
            "value": 0
          }
        ]
      },
      "pitchBends": [],
      "instrument": {
        "family": "brass",
        "number": 59,
        "name": "muted trumpet"
      },
      "name": "",
      "notes": []
    },
    {
      "channel": 0,
      "controlChanges": {
        "121": [
          {
            "number": 121,
            "ticks": 0,
            "time": 0,
            "value": 0
          }
        ]
      },
      "pitchBends": [],
      "instrument": {
        "family": "piano",
        "number": 0,
        "name": "acoustic grand piano"
      },
      "name": "",
      "notes": [],
      "endOfTrackTicks": 195360
    },
    {
      "channel": 5,
      "controlChanges": {
        "7": [
          {
            "number": 7,
            "ticks": 0,
            "time": 0,
            "value": 0.7874015748031497
          }
        ],
        "10": [
          {
            "number": 10,
            "ticks": 0,
            "time": 0,
            "value": 0.5039370078740157
          }
        ],
        "91": [
          {
            "number": 91,
            "ticks": 0,
            "time": 0,
            "value": 0
          }
        ],
        "93": [
          {
            "number": 93,
            "ticks": 0,
            "time": 0,
            "value": 0
          }
        ]
      },
      "pitchBends": [],
      "instrument": {
        "family": "brass",
        "number": 56,
        "name": "trumpet"
      },
      "name": "",
      "notes": [
        {
          "duration": 0.10937488333333334,
          "durationTicks": 119,
          "midi": 69,
          "name": "A4",
          "ticks": 0,
          "time": 0,
          "velocity": 0.6299212598425197
        },
        {
          "duration": 0.10937488333333334,
          "durationTicks": 119,
          "midi": 70,
          "name": "A#4",
          "ticks": 120,
          "time": 0.110294,
          "velocity": 0.6299212598425197
        },
        {
          "duration": 0.10937488333333334,
          "durationTicks": 119,
          "midi": 71,
          "name": "B4",
          "ticks": 240,
          "time": 0.220588,
          "velocity": 0.6299212598425197
        },
        {
          "duration": 0.10937488333333334,
          "durationTicks": 119,
          "midi": 74,
          "name": "D5",
          "ticks": 360,
          "time": 0.330882,
          "velocity": 0.6299212598425197
        },
        {
          "duration": 0.10937488333333334,
          "durationTicks": 119,
          "midi": 69,
          "name": "A4",
          "ticks": 720,
          "time": 0.661764,
          "velocity": 0.6299212598425197
        },
        {
          "duration": 0.10937488333333334,
          "durationTicks": 119,
          "midi": 70,
          "name": "A#4",
          "ticks": 840,
          "time": 0.772058,
          "velocity": 0.6299212598425197
        },
        {
          "duration": 0.10937488333333334,
          "durationTicks": 119,
          "midi": 71,
          "name": "B4",
          "ticks": 960,
          "time": 0.882352,
          "velocity": 0.6299212598425197
        },
        {
          "duration": 0.10937488333333334,
          "durationTicks": 119,
          "midi": 74,
          "name": "D5",
          "ticks": 1080,
          "time": 0.992646,
          "velocity": 0.6299212598425197
        },
        {
          "duration": 0.10937488333333345,
          "durationTicks": 119,
          "midi": 74,
          "name": "D5",
          "ticks": 1440,
          "time": 1.323528,
          "velocity": 0.6299212598425197
        },
        {
          "duration": 0.10937488333333323,
          "durationTicks": 119,
          "midi": 74,
          "name": "D5",
          "ticks": 1560,
          "time": 1.4338220000000002,
          "velocity": 0.6299212598425197
        },
        {
          "duration": 0.10937488333333345,
          "durationTicks": 119,
          "midi": 69,
          "name": "A4",
          "ticks": 1920,
          "time": 1.764704,
          "velocity": 0.6299212598425197
        },
        {
          "duration": 0.10937488333333323,
          "durationTicks": 119,
          "midi": 70,
          "name": "A#4",
          "ticks": 2040,
          "time": 1.8749980000000002,
          "velocity": 0.6299212598425197
        },
        {
          "duration": 0.10937488333333323,
          "durationTicks": 119,
          "midi": 71,
          "name": "B4",
          "ticks": 2160,
          "time": 1.985292,
          "velocity": 0.6299212598425197
        },
        {
          "duration": 0.10937488333333345,
          "durationTicks": 119,
          "midi": 74,
          "name": "D5",
          "ticks": 2280,
          "time": 2.095586,
          "velocity": 0.6299212598425197
        },
        {
          "duration": 0.10937488333333345,
          "durationTicks": 119,
          "midi": 71,
          "name": "B4",
          "ticks": 2640,
          "time": 2.426468,
          "velocity": 0.6299212598425197
        },
        {
          "duration": 0.10937488333333345,
          "durationTicks": 119,
          "midi": 69,
          "name": "A4",
          "ticks": 2760,
          "time": 2.536762,
          "velocity": 0.6299212598425197
        },
        {
          "duration": 0.10937488333333345,
          "durationTicks": 119,
          "midi": 67,
          "name": "G4",
          "ticks": 2880,
          "time": 2.647056,
          "velocity": 0.6299212598425197
        },
        {
          "duration": 0.10937488333333345,
          "durationTicks": 119,
          "midi": 64,
          "name": "E4",
          "ticks": 3000,
          "time": 2.75735,
          "velocity": 0.6299212598425197
        },
        {
          "duration": 0.10937488333333345,
          "durationTicks": 119,
          "midi": 76,
          "name": "E5",
          "ticks": 3360,
          "time": 3.088232,
          "velocity": 0.6299212598425197
        },
        {
          "duration": 0.10937488333333345,
          "durationTicks": 119,
          "midi": 76,
          "name": "E5",
          "ticks": 3480,
          "time": 3.198526,
          "velocity": 0.6299212598425197
        },
        {
          "duration": 0.10937488333333345,
          "durationTicks": 119,
          "midi": 67,
          "name": "G4",
          "ticks": 4800,
          "time": 4.41176,
          "velocity": 0.6299212598425197
        },
        {
          "duration": 0.10937488333333345,
          "durationTicks": 119,
          "midi": 64,
          "name": "E4",
          "ticks": 4920,
          "time": 4.522054,
          "velocity": 0.6299212598425197
        },
        {
          "duration": 0.10937488333333345,
          "durationTicks": 119,
          "midi": 62,
          "name": "D4",
          "ticks": 5040,
          "time": 4.632348,
          "velocity": 0.6299212598425197
        },
        {
          "duration": 0.10937488333333345,
          "durationTicks": 119,
          "midi": 64,
          "name": "E4",
          "ticks": 5160,
          "time": 4.742642,
          "velocity": 0.6299212598425197
        },
        {
          "duration": 0.10937488333333345,
          "durationTicks": 119,
          "midi": 67,
          "name": "G4",
          "ticks": 5520,
          "time": 5.073524,
          "velocity": 0.6299212598425197
        },
        {
          "duration": 0.10937488333333345,
          "durationTicks": 119,
          "midi": 64,
          "name": "E4",
          "ticks": 5640,
          "time": 5.1838180000000005,
          "velocity": 0.6299212598425197
        },
        {
          "duration": 0.10937488333333345,
          "durationTicks": 119,
          "midi": 62,
          "name": "D4",
          "ticks": 5760,
          "time": 5.294112,
          "velocity": 0.6299212598425197
        },
        {
          "duration": 0.10937488333333345,
          "durationTicks": 119,
          "midi": 64,
          "name": "E4",
          "ticks": 5880,
          "time": 5.404406,
          "velocity": 0.6299212598425197
        },
        {
          "duration": 0.10937488333333256,
          "durationTicks": 119,
          "midi": 67,
          "name": "G4",
          "ticks": 6240,
          "time": 5.735288000000001,
          "velocity": 0.6299212598425197
        },
        {
          "duration": 0.10937488333333345,
          "durationTicks": 119,
          "midi": 64,
          "name": "E4",
          "ticks": 6360,
          "time": 5.845582,
          "velocity": 0.6299212598425197
        },
        {
          "duration": 0.10937488333333345,
          "durationTicks": 119,
          "midi": 62,
          "name": "D4",
          "ticks": 6480,
          "time": 5.955876,
          "velocity": 0.6299212598425197
        },
        {
          "duration": 0.10937488333333345,
          "durationTicks": 119,
          "midi": 64,
          "name": "E4",
          "ticks": 6600,
          "time": 6.0661700000000005,
          "velocity": 0.6299212598425197
        },
        {
          "duration": 0.10937488333333345,
          "durationTicks": 119,
          "midi": 71,
          "name": "B4",
          "ticks": 6840,
          "time": 6.286758,
          "velocity": 0.6299212598425197
        },
        {
          "duration": 0.6608448833333336,
          "durationTicks": 719,
          "midi": 73,
          "name": "C#5",
          "ticks": 6960,
          "time": 6.397052,
          "velocity": 0.6299212598425197
        },
        {
          "duration": 0.21966888333333223,
          "durationTicks": 239,
          "midi": 59,
          "name": "B3",
          "ticks": 7920,
          "time": 7.279404,
          "velocity": 0.6299212598425197
        },
        {
          "duration": 0.10937488333333256,
          "durationTicks": 119,
          "midi": 67,
          "name": "G4",
          "ticks": 8160,
          "time": 7.499992000000001,
          "velocity": 0.6299212598425197
        },
        {
          "duration": 0.10937488333333256,
          "durationTicks": 119,
          "midi": 66,
          "name": "F#4",
          "ticks": 8280,
          "time": 7.610286,
          "velocity": 0.6299212598425197
        },
        {
          "duration": 0.10937488333333256,
          "durationTicks": 119,
          "midi": 64,
          "name": "E4",
          "ticks": 8400,
          "time": 7.72058,
          "velocity": 0.6299212598425197
        },
        {
          "duration": 0.3299628833333328,
          "durationTicks": 359,
          "midi": 62,
          "name": "D4",
          "ticks": 8520,
          "time": 7.830874000000001,
          "velocity": 0.6299212598425197
        },
        {
          "duration": 0.21966888333333223,
          "durationTicks": 239,
          "midi": 64,
          "name": "E4",
          "ticks": 8880,
          "time": 8.161756,
          "velocity": 0.6299212598425197
        },
        {
          "duration": 0.04319848333333276,
          "durationTicks": 47,
          "midi": 62,
          "name": "D4",
          "ticks": 10320,
          "time": 9.485284,
          "velocity": 0.6299212598425197
        },
        {
          "duration": 0.04319848333333276,
          "durationTicks": 47,
          "midi": 63,
          "name": "D#4",
          "ticks": 10368,
          "time": 9.529401600000002,
          "velocity": 0.6299212598425197
        },
        {
          "duration": 0.04319848333333276,
          "durationTicks": 47,
          "midi": 64,
          "name": "E4",
          "ticks": 10416,
          "time": 9.5735192,
          "velocity": 0.6299212598425197
        },
        {
          "duration": 0.04319848333333276,
          "durationTicks": 47,
          "midi": 65,
          "name": "F4",
          "ticks": 10464,
          "time": 9.617636800000001,
          "velocity": 0.6299212598425197
        },
        {
          "duration": 0.04319848333333276,
          "durationTicks": 47,
          "midi": 66,
          "name": "F#4",
          "ticks": 10512,
          "time": 9.6617544,
          "velocity": 0.6299212598425197
        },
        {
          "duration": 0.29411733333333423,
          "durationTicks": 320,
          "midi": 67,
          "name": "G4",
          "ticks": 10560,
          "time": 9.705872,
          "velocity": 0.7559055118110236
        },
        {
          "duration": 0.29411733333333423,
          "durationTicks": 320,
          "midi": 66,
          "name": "F#4",
          "ticks": 11040,
          "time": 10.147048,
          "velocity": 0.7559055118110236
        },
        {
          "duration": 0.3299628833333319,
          "durationTicks": 359,
          "midi": 64,
          "name": "E4",
          "ticks": 11520,
          "time": 10.588224,
          "velocity": 0.7559055118110236
        },
        {
          "duration": 0.21966888333333223,
          "durationTicks": 239,
          "midi": 62,
          "name": "D4",
          "ticks": 11880,
          "time": 10.919106000000001,
          "velocity": 0.7559055118110236
        },
        {
          "duration": 0.3299628833333319,
          "durationTicks": 359,
          "midi": 62,
          "name": "D4",
          "ticks": 12120,
          "time": 11.139694,
          "velocity": 0.7559055118110236
        },
        {
          "duration": 0.10937488333333256,
          "durationTicks": 119,
          "midi": 67,
          "name": "G4",
          "ticks": 12480,
          "time": 11.470576000000001,
          "velocity": 0.6299212598425197
        },
        {
          "duration": 0.10937488333333256,
          "durationTicks": 119,
          "midi": 67,
          "name": "G4",
          "ticks": 12600,
          "time": 11.58087,
          "velocity": 0.6299212598425197
        },
        {
          "duration": 0.10937488333333256,
          "durationTicks": 119,
          "midi": 67,
          "name": "G4",
          "ticks": 12720,
          "time": 11.691164,
          "velocity": 0.6299212598425197
        },
        {
          "duration": 0.10937488333333256,
          "durationTicks": 119,
          "midi": 67,
          "name": "G4",
          "ticks": 12840,
          "time": 11.801458,
          "velocity": 0.6299212598425197
        },
        {
          "duration": 0.10937488333333256,
          "durationTicks": 119,
          "midi": 67,
          "name": "G4",
          "ticks": 13200,
          "time": 12.132340000000001,
          "velocity": 0.6299212598425197
        },
        {
          "duration": 0.10937488333333256,
          "durationTicks": 119,
          "midi": 67,
          "name": "G4",
          "ticks": 13320,
          "time": 12.242634,
          "velocity": 0.6299212598425197
        },
        {
          "duration": 0.10937488333333256,
          "durationTicks": 119,
          "midi": 67,
          "name": "G4",
          "ticks": 13440,
          "time": 12.352928,
          "velocity": 0.6299212598425197
        },
        {
          "duration": 0.10937488333333256,
          "durationTicks": 119,
          "midi": 67,
          "name": "G4",
          "ticks": 13560,
          "time": 12.463222,
          "velocity": 0.6299212598425197
        },
        {
          "duration": 0.10937488333333256,
          "durationTicks": 119,
          "midi": 67,
          "name": "G4",
          "ticks": 13920,
          "time": 12.794104,
          "velocity": 0.6299212598425197
        },
        {
          "duration": 0.10937488333333256,
          "durationTicks": 119,
          "midi": 67,
          "name": "G4",
          "ticks": 14040,
          "time": 12.904398,
          "velocity": 0.6299212598425197
        },
        {
          "duration": 0.10937488333333256,
          "durationTicks": 119,
          "midi": 67,
          "name": "G4",
          "ticks": 14160,
          "time": 13.014692,
          "velocity": 0.6299212598425197
        },
        {
          "duration": 0.10937488333333256,
          "durationTicks": 119,
          "midi": 67,
          "name": "G4",
          "ticks": 14280,
          "time": 13.124986,
          "velocity": 0.6299212598425197
        },
        {
          "duration": 0.10937488333333256,
          "durationTicks": 119,
          "midi": 71,
          "name": "B4",
          "ticks": 14520,
          "time": 13.345574000000001,
          "velocity": 0.6299212598425197
        },
        {
          "duration": 1.1020208833333331,
          "durationTicks": 1199,
          "midi": 73,
          "name": "C#5",
          "ticks": 14640,
          "time": 13.455868,
          "velocity": 0.6299212598425197
        },
        {
          "duration": 0.6608448833333345,
          "durationTicks": 719,
          "midi": 66,
          "name": "F#4",
          "ticks": 16080,
          "time": 14.779396,
          "velocity": 0.6299212598425197
        },
        {
          "duration": 0.8814328833333338,
          "durationTicks": 959,
          "midi": 67,
          "name": "G4",
          "ticks": 17040,
          "time": 15.661748000000001,
          "velocity": 0.6299212598425197
        },
        {
          "duration": 0.44025688333333335,
          "durationTicks": 479,
          "midi": 69,
          "name": "A4",
          "ticks": 18000,
          "time": 16.5441,
          "velocity": 0.6299212598425197
        },
        {
          "duration": 0.219668883333334,
          "durationTicks": 239,
          "midi": 71,
          "name": "B4",
          "ticks": 18480,
          "time": 16.985276,
          "velocity": 0.6299212598425197
        },
        {
          "duration": 0.219668883333334,
          "durationTicks": 239,
          "midi": 69,
          "name": "A4",
          "ticks": 18720,
          "time": 17.205864000000002,
          "velocity": 0.6299212598425197
        },
        {
          "duration": 0.44025688333333335,
          "durationTicks": 479,
          "midi": 72,
          "name": "C5",
          "ticks": 18960,
          "time": 17.426452,
          "velocity": 0.6299212598425197
        },
        {
          "duration": 0.10937488333333434,
          "durationTicks": 119,
          "midi": 64,
          "name": "E4",
          "ticks": 19440,
          "time": 17.867628,
          "velocity": 0.6299212598425197
        },
        {
          "duration": 0.10937488333333434,
          "durationTicks": 119,
          "midi": 64,
          "name": "E4",
          "ticks": 19680,
          "time": 18.088216,
          "velocity": 0.6299212598425197
        },
        {
          "duration": 0.10937488333333434,
          "durationTicks": 119,
          "midi": 64,
          "name": "E4",
          "ticks": 19920,
          "time": 18.308804000000002,
          "velocity": 0.6299212598425197
        },
        {
          "duration": 0.219668883333334,
          "durationTicks": 239,
          "midi": 64,
          "name": "E4",
          "ticks": 20160,
          "time": 18.529392,
          "velocity": 0.7559055118110236
        },
        {
          "duration": 0.10937488333333434,
          "durationTicks": 119,
          "midi": 74,
          "name": "D5",
          "ticks": 23280,
          "time": 21.397036,
          "velocity": 0.6299212598425197
        },
        {
          "duration": 0.10937488333333434,
          "durationTicks": 119,
          "midi": 76,
          "name": "E5",
          "ticks": 23400,
          "time": 21.50733,
          "velocity": 0.6299212598425197
        },
        {
          "duration": 0.10937488333333434,
          "durationTicks": 119,
          "midi": 74,
          "name": "D5",
          "ticks": 23520,
          "time": 21.617624,
          "velocity": 0.6299212598425197
        },
        {
          "duration": 0.10937488333333434,
          "durationTicks": 119,
          "midi": 71,
          "name": "B4",
          "ticks": 23640,
          "time": 21.727918,
          "velocity": 0.6299212598425197
        },
        {
          "duration": 0.10937488333333434,
          "durationTicks": 119,
          "midi": 67,
          "name": "G4",
          "ticks": 23760,
          "time": 21.838212000000002,
          "velocity": 0.6299212598425197
        },
        {
          "duration": 0.10937488333333434,
          "durationTicks": 119,
          "midi": 66,
          "name": "F#4",
          "ticks": 23880,
          "time": 21.948506000000002,
          "velocity": 0.6299212598425197
        },
        {
          "duration": 0.10937488333333434,
          "durationTicks": 119,
          "midi": 71,
          "name": "B4",
          "ticks": 27120,
          "time": 24.926444,
          "velocity": 0.6299212598425197
        },
        {
          "duration": 0.10937488333333434,
          "durationTicks": 119,
          "midi": 72,
          "name": "C5",
          "ticks": 27240,
          "time": 25.036738,
          "velocity": 0.6299212598425197
        },
        {
          "duration": 0.10937488333333434,
          "durationTicks": 119,
          "midi": 74,
          "name": "D5",
          "ticks": 27360,
          "time": 25.147032,
          "velocity": 0.6299212598425197
        },
        {
          "duration": 0.10937488333333434,
          "durationTicks": 119,
          "midi": 71,
          "name": "B4",
          "ticks": 27480,
          "time": 25.257326,
          "velocity": 0.6299212598425197
        },
        {
          "duration": 0.10937488333333434,
          "durationTicks": 119,
          "midi": 72,
          "name": "C5",
          "ticks": 27600,
          "time": 25.367620000000002,
          "velocity": 0.6299212598425197
        },
        {
          "duration": 0.10937488333333434,
          "durationTicks": 119,
          "midi": 74,
          "name": "D5",
          "ticks": 27720,
          "time": 25.477914000000002,
          "velocity": 0.6299212598425197
        },
        {
          "duration": 0.44025688333333335,
          "durationTicks": 479,
          "midi": 67,
          "name": "G4",
          "ticks": 33600,
          "time": 30.88232,
          "velocity": 0.6299212598425197
        },
        {
          "duration": 0.44025688333333335,
          "durationTicks": 479,
          "midi": 69,
          "name": "A4",
          "ticks": 34080,
          "time": 31.323496000000002,
          "velocity": 0.6299212598425197
        },
        {
          "duration": 0.4402568833333369,
          "durationTicks": 479,
          "midi": 71,
          "name": "B4",
          "ticks": 34560,
          "time": 31.764672,
          "velocity": 0.6299212598425197
        },
        {
          "duration": 0.44025688333333335,
          "durationTicks": 479,
          "midi": 72,
          "name": "C5",
          "ticks": 35040,
          "time": 32.205848,
          "velocity": 0.6299212598425197
        },
        {
          "duration": 0.10937488333333079,
          "durationTicks": 119,
          "midi": 74,
          "name": "D5",
          "ticks": 35520,
          "time": 32.647024,
          "velocity": 0.6299212598425197
        },
        {
          "duration": 0.10937488333333079,
          "durationTicks": 119,
          "midi": 74,
          "name": "D5",
          "ticks": 35760,
          "time": 32.867612,
          "velocity": 0.6299212598425197
        },
        {
          "duration": 0.44025688333333335,
          "durationTicks": 479,
          "midi": 74,
          "name": "D5",
          "ticks": 36240,
          "time": 33.308788,
          "velocity": 0.6299212598425197
        },
        {
          "duration": 0.10937488333333789,
          "durationTicks": 119,
          "midi": 76,
          "name": "E5",
          "ticks": 36720,
          "time": 33.749964,
          "velocity": 0.6299212598425197
        },
        {
          "duration": 0.44025688333334045,
          "durationTicks": 479,
          "midi": 76,
          "name": "E5",
          "ticks": 36960,
          "time": 33.970552,
          "velocity": 0.6299212598425197
        },
        {
          "duration": 0.10937488333333789,
          "durationTicks": 119,
          "midi": 74,
          "name": "D5",
          "ticks": 39360,
          "time": 36.176432,
          "velocity": 0.6299212598425197
        },
        {
          "duration": 0.10937488333333789,
          "durationTicks": 119,
          "midi": 74,
          "name": "D5",
          "ticks": 39600,
          "time": 36.39702,
          "velocity": 0.6299212598425197
        },
        {
          "duration": 0.44025688333333335,
          "durationTicks": 479,
          "midi": 74,
          "name": "D5",
          "ticks": 40080,
          "time": 36.838196,
          "velocity": 0.6299212598425197
        },
        {
          "duration": 0.10937488333333079,
          "durationTicks": 119,
          "midi": 76,
          "name": "E5",
          "ticks": 40560,
          "time": 37.279372,
          "velocity": 0.6299212598425197
        },
        {
          "duration": 0.44025688333333335,
          "durationTicks": 479,
          "midi": 76,
          "name": "E5",
          "ticks": 40800,
          "time": 37.49996,
          "velocity": 0.6299212598425197
        },
        {
          "duration": 0.44025688333334045,
          "durationTicks": 479,
          "midi": 71,
          "name": "B4",
          "ticks": 42240,
          "time": 38.823488,
          "velocity": 0.6299212598425197
        },
        {
          "duration": 0.44025688333333335,
          "durationTicks": 479,
          "midi": 72,
          "name": "C5",
          "ticks": 42720,
          "time": 39.264664,
          "velocity": 0.6299212598425197
        },
        {
          "duration": 0.10937488333333079,
          "durationTicks": 119,
          "midi": 74,
          "name": "D5",
          "ticks": 43200,
          "time": 39.70584,
          "velocity": 0.6299212598425197
        },
        {
          "duration": 0.10937488333333079,
          "durationTicks": 119,
          "midi": 74,
          "name": "D5",
          "ticks": 43440,
          "time": 39.926428,
          "velocity": 0.6299212598425197
        },
        {
          "duration": 0.44025688333333335,
          "durationTicks": 479,
          "midi": 74,
          "name": "D5",
          "ticks": 43920,
          "time": 40.367604,
          "velocity": 0.6299212598425197
        },
        {
          "duration": 0.219668883333334,
          "durationTicks": 239,
          "midi": 76,
          "name": "E5",
          "ticks": 44400,
          "time": 40.80878,
          "velocity": 0.6299212598425197
        },
        {
          "duration": 0.6608448833333327,
          "durationTicks": 719,
          "midi": 74,
          "name": "D5",
          "ticks": 44880,
          "time": 41.249956000000005,
          "velocity": 0.7559055118110236
        },
        {
          "duration": 0.44025688333333335,
          "durationTicks": 479,
          "midi": 72,
          "name": "C5",
          "ticks": 45600,
          "time": 41.91172,
          "velocity": 0.6299212598425197
        },
        {
          "duration": 0.44025688333333335,
          "durationTicks": 479,
          "midi": 71,
          "name": "B4",
          "ticks": 46080,
          "time": 42.352896,
          "velocity": 0.6299212598425197
        },
        {
          "duration": 0.0873160833333344,
          "durationTicks": 95,
          "midi": 67,
          "name": "G4",
          "ticks": 46560,
          "time": 42.794072,
          "velocity": 0.8818897637795275
        },
        {
          "duration": 0.0873160833333344,
          "durationTicks": 95,
          "midi": 68,
          "name": "G#4",
          "ticks": 46656,
          "time": 42.8823072,
          "velocity": 0.8818897637795275
        },
        {
          "duration": 0.0873160833333273,
          "durationTicks": 95,
          "midi": 69,
          "name": "A4",
          "ticks": 46752,
          "time": 42.97054240000001,
          "velocity": 0.8818897637795275
        },
        {
          "duration": 0.0873160833333344,
          "durationTicks": 95,
          "midi": 70,
          "name": "A#4",
          "ticks": 46848,
          "time": 43.0587776,
          "velocity": 0.8818897637795275
        },
        {
          "duration": 0.0873160833333344,
          "durationTicks": 95,
          "midi": 71,
          "name": "B4",
          "ticks": 46944,
          "time": 43.1470128,
          "velocity": 0.8818897637795275
        },
        {
          "duration": 0.219668883333334,
          "durationTicks": 239,
          "midi": 72,
          "name": "C5",
          "ticks": 47040,
          "time": 43.235248,
          "velocity": 0.8818897637795275
        },
        {
          "duration": 0.219668883333334,
          "durationTicks": 239,
          "midi": 72,
          "name": "C5",
          "ticks": 47280,
          "time": 43.455836,
          "velocity": 0.8818897637795275
        },
        {
          "duration": 0.219668883333334,
          "durationTicks": 239,
          "midi": 72,
          "name": "C5",
          "ticks": 47520,
          "time": 43.676424000000004,
          "velocity": 0.8818897637795275
        },
        {
          "duration": 0.219668883333334,
          "durationTicks": 239,
          "midi": 71,
          "name": "B4",
          "ticks": 47760,
          "time": 43.897012000000004,
          "velocity": 0.8818897637795275
        },
        {
          "duration": 0.219668883333334,
          "durationTicks": 239,
          "midi": 67,
          "name": "G4",
          "ticks": 48240,
          "time": 44.338188,
          "velocity": 0.8818897637795275
        },
        {
          "duration": 1.5431968833333372,
          "durationTicks": 1679,
          "midi": 69,
          "name": "A4",
          "ticks": 48720,
          "time": 44.779364,
          "velocity": 0.8818897637795275
        },
        {
          "duration": 0.44025688333333335,
          "durationTicks": 479,
          "midi": 69,
          "name": "A4",
          "ticks": 50640,
          "time": 46.544068,
          "velocity": 0.8818897637795275
        },
        {
          "duration": 0.10937488333333079,
          "durationTicks": 119,
          "midi": 69,
          "name": "A4",
          "ticks": 51120,
          "time": 46.985244,
          "velocity": 0.8818897637795275
        },
        {
          "duration": 0.10937488333333789,
          "durationTicks": 119,
          "midi": 69,
          "name": "A4",
          "ticks": 51360,
          "time": 47.205832,
          "velocity": 0.8818897637795275
        },
        {
          "duration": 0.10937488333333789,
          "durationTicks": 119,
          "midi": 69,
          "name": "A4",
          "ticks": 51600,
          "time": 47.42642,
          "velocity": 0.8818897637795275
        },
        {
          "duration": 0.219668883333334,
          "durationTicks": 239,
          "midi": 68,
          "name": "G#4",
          "ticks": 51840,
          "time": 47.647008,
          "velocity": 1
        },
        {
          "duration": 0.44025688333333335,
          "durationTicks": 479,
          "midi": 67,
          "name": "G4",
          "ticks": 53280,
          "time": 48.970536,
          "velocity": 0.905511811023622
        },
        {
          "duration": 0.10937488333333789,
          "durationTicks": 119,
          "midi": 62,
          "name": "D4",
          "ticks": 54000,
          "time": 49.6323,
          "velocity": 0.7559055118110236
        },
        {
          "duration": 0.219668883333334,
          "durationTicks": 239,
          "midi": 66,
          "name": "F#4",
          "ticks": 54240,
          "time": 49.852888,
          "velocity": 0.7559055118110236
        },
        {
          "duration": 0.219668883333334,
          "durationTicks": 239,
          "midi": 67,
          "name": "G4",
          "ticks": 54480,
          "time": 50.073476,
          "velocity": 0.7559055118110236
        },
        {
          "duration": 0.219668883333334,
          "durationTicks": 239,
          "midi": 66,
          "name": "F#4",
          "ticks": 54720,
          "time": 50.294064,
          "velocity": 0.7559055118110236
        },
        {
          "duration": 0.219668883333334,
          "durationTicks": 239,
          "midi": 67,
          "name": "G4",
          "ticks": 54960,
          "time": 50.514652,
          "velocity": 0.7559055118110236
        },
        {
          "duration": 0.6608448833333327,
          "durationTicks": 719,
          "midi": 67,
          "name": "G4",
          "ticks": 55440,
          "time": 50.955828000000004,
          "velocity": 0.905511811023622
        },
        {
          "duration": 0.219668883333334,
          "durationTicks": 239,
          "midi": 66,
          "name": "F#4",
          "ticks": 56160,
          "time": 51.617592,
          "velocity": 0.7559055118110236
        },
        {
          "duration": 0.219668883333334,
          "durationTicks": 239,
          "midi": 67,
          "name": "G4",
          "ticks": 56400,
          "time": 51.83818,
          "velocity": 0.7559055118110236
        },
        {
          "duration": 0.219668883333334,
          "durationTicks": 239,
          "midi": 67,
          "name": "G4",
          "ticks": 58080,
          "time": 53.382296000000004,
          "velocity": 0.7559055118110236
        },
        {
          "duration": 0.10937488333333079,
          "durationTicks": 119,
          "midi": 66,
          "name": "F#4",
          "ticks": 58320,
          "time": 53.602884,
          "velocity": 0.7559055118110236
        },
        {
          "duration": 0.219668883333334,
          "durationTicks": 239,
          "midi": 65,
          "name": "F4",
          "ticks": 58560,
          "time": 53.823472,
          "velocity": 0.7559055118110236
        },
        {
          "duration": 0.219668883333334,
          "durationTicks": 239,
          "midi": 67,
          "name": "G4",
          "ticks": 58800,
          "time": 54.04406,
          "velocity": 0.7559055118110236
        },
        {
          "duration": 0.10937488333333789,
          "durationTicks": 119,
          "midi": 69,
          "name": "A4",
          "ticks": 59040,
          "time": 54.264648,
          "velocity": 0.7559055118110236
        },
        {
          "duration": 0.44025688333333335,
          "durationTicks": 479,
          "midi": 71,
          "name": "B4",
          "ticks": 59280,
          "time": 54.485236,
          "velocity": 0.7559055118110236
        },
        {
          "duration": 0.10937488333333789,
          "durationTicks": 119,
          "midi": 69,
          "name": "A4",
          "ticks": 59760,
          "time": 54.926412,
          "velocity": 0.7559055118110236
        },
        {
          "duration": 0.44025688333334045,
          "durationTicks": 479,
          "midi": 67,
          "name": "G4",
          "ticks": 60000,
          "time": 55.147,
          "velocity": 0.7559055118110236
        },
        {
          "duration": 0.219668883333334,
          "durationTicks": 239,
          "midi": 62,
          "name": "D4",
          "ticks": 61200,
          "time": 56.24994,
          "velocity": 0.7559055118110236
        },
        {
          "duration": 0.219668883333334,
          "durationTicks": 239,
          "midi": 64,
          "name": "E4",
          "ticks": 61440,
          "time": 56.470528,
          "velocity": 0.7559055118110236
        },
        {
          "duration": 0.219668883333334,
          "durationTicks": 239,
          "midi": 66,
          "name": "F#4",
          "ticks": 61680,
          "time": 56.691116,
          "velocity": 0.7559055118110236
        },
        {
          "duration": 0.219668883333334,
          "durationTicks": 239,
          "midi": 67,
          "name": "G4",
          "ticks": 61920,
          "time": 56.911704,
          "velocity": 0.7559055118110236
        },
        {
          "duration": 0.219668883333334,
          "durationTicks": 239,
          "midi": 69,
          "name": "A4",
          "ticks": 62160,
          "time": 57.132292,
          "velocity": 0.7559055118110236
        },
        {
          "duration": 0.219668883333334,
          "durationTicks": 239,
          "midi": 67,
          "name": "G4",
          "ticks": 62640,
          "time": 57.573468,
          "velocity": 0.7559055118110236
        },
        {
          "duration": 0.219668883333334,
          "durationTicks": 239,
          "midi": 66,
          "name": "F#4",
          "ticks": 62880,
          "time": 57.794056000000005,
          "velocity": 0.7559055118110236
        },
        {
          "duration": 0.44025688333333335,
          "durationTicks": 479,
          "midi": 67,
          "name": "G4",
          "ticks": 63120,
          "time": 58.014644000000004,
          "velocity": 0.7559055118110236
        },
        {
          "duration": 0.219668883333334,
          "durationTicks": 239,
          "midi": 66,
          "name": "F#4",
          "ticks": 63600,
          "time": 58.45582,
          "velocity": 0.7559055118110236
        },
        {
          "duration": 0.219668883333334,
          "durationTicks": 239,
          "midi": 64,
          "name": "E4",
          "ticks": 63840,
          "time": 58.676408,
          "velocity": 0.7559055118110236
        },
        {
          "duration": 0.219668883333334,
          "durationTicks": 239,
          "midi": 62,
          "name": "D4",
          "ticks": 64080,
          "time": 58.896996,
          "velocity": 0.7559055118110236
        },
        {
          "duration": 0.44025688333333335,
          "durationTicks": 479,
          "midi": 57,
          "name": "A3",
          "ticks": 64320,
          "time": 59.117584,
          "velocity": 0.7559055118110236
        },
        {
          "duration": 0.44025688333333335,
          "durationTicks": 479,
          "midi": 60,
          "name": "C4",
          "ticks": 64800,
          "time": 59.55876,
          "velocity": 0.7559055118110236
        },
        {
          "duration": 0.44025688333333335,
          "durationTicks": 479,
          "midi": 64,
          "name": "E4",
          "ticks": 65280,
          "time": 59.999936000000005,
          "velocity": 0.7559055118110236
        },
        {
          "duration": 0.44025688333333335,
          "durationTicks": 479,
          "midi": 67,
          "name": "G4",
          "ticks": 65760,
          "time": 60.441112000000004,
          "velocity": 0.7559055118110236
        },
        {
          "duration": 0.881432883333332,
          "durationTicks": 959,
          "midi": 67,
          "name": "G4",
          "ticks": 66240,
          "time": 60.882288,
          "velocity": 0.7559055118110236
        },
        {
          "duration": 0.6608448833333327,
          "durationTicks": 719,
          "midi": 66,
          "name": "F#4",
          "ticks": 67200,
          "time": 61.76464,
          "velocity": 0.7559055118110236
        },
        {
          "duration": 0.881432883333332,
          "durationTicks": 959,
          "midi": 66,
          "name": "F#4",
          "ticks": 67920,
          "time": 62.426404000000005,
          "velocity": 0.7559055118110236
        },
        {
          "duration": 0.6608448833333327,
          "durationTicks": 719,
          "midi": 67,
          "name": "G4",
          "ticks": 68880,
          "time": 63.308756,
          "velocity": 0.7559055118110236
        },
        {
          "duration": 0.44025688333333335,
          "durationTicks": 479,
          "midi": 69,
          "name": "A4",
          "ticks": 69840,
          "time": 64.191108,
          "velocity": 0.7559055118110236
        },
        {
          "duration": 0.21966888333334111,
          "durationTicks": 239,
          "midi": 71,
          "name": "B4",
          "ticks": 70320,
          "time": 64.632284,
          "velocity": 0.7559055118110236
        },
        {
          "duration": 0.2196688833333269,
          "durationTicks": 239,
          "midi": 69,
          "name": "A4",
          "ticks": 70560,
          "time": 64.852872,
          "velocity": 0.7559055118110236
        },
        {
          "duration": 0.21966888333334111,
          "durationTicks": 239,
          "midi": 72,
          "name": "C5",
          "ticks": 70800,
          "time": 65.07346,
          "velocity": 0.7559055118110236
        },
        {
          "duration": 0.1461395500000151,
          "durationTicks": 159,
          "midi": 76,
          "name": "E5",
          "ticks": 71280,
          "time": 65.514636,
          "velocity": 0.8661417322834646
        },
        {
          "duration": 0.1461395500000009,
          "durationTicks": 159,
          "midi": 76,
          "name": "E5",
          "ticks": 71520,
          "time": 65.735224,
          "velocity": 0.8267716535433071
        },
        {
          "duration": 0.1461395500000009,
          "durationTicks": 159,
          "midi": 76,
          "name": "E5",
          "ticks": 71760,
          "time": 65.95581200000001,
          "velocity": 0.7874015748031497
        },
        {
          "duration": 0.10937488333333079,
          "durationTicks": 119,
          "midi": 67,
          "name": "G4",
          "ticks": 72000,
          "time": 66.1764,
          "velocity": 0.6299212598425197
        },
        {
          "duration": 0.109374883333345,
          "durationTicks": 119,
          "midi": 67,
          "name": "G4",
          "ticks": 72120,
          "time": 66.286694,
          "velocity": 0.6299212598425197
        },
        {
          "duration": 0.10937488333333079,
          "durationTicks": 119,
          "midi": 67,
          "name": "G4",
          "ticks": 72240,
          "time": 66.39698800000001,
          "velocity": 0.6299212598425197
        },
        {
          "duration": 0.10937488333333079,
          "durationTicks": 119,
          "midi": 67,
          "name": "G4",
          "ticks": 72360,
          "time": 66.507282,
          "velocity": 0.6299212598425197
        },
        {
          "duration": 0.10937488333333079,
          "durationTicks": 119,
          "midi": 67,
          "name": "G4",
          "ticks": 72720,
          "time": 66.838164,
          "velocity": 0.6299212598425197
        },
        {
          "duration": 0.10937488333333079,
          "durationTicks": 119,
          "midi": 67,
          "name": "G4",
          "ticks": 72840,
          "time": 66.948458,
          "velocity": 0.6299212598425197
        },
        {
          "duration": 0.10937488333333079,
          "durationTicks": 119,
          "midi": 67,
          "name": "G4",
          "ticks": 72960,
          "time": 67.058752,
          "velocity": 0.6299212598425197
        },
        {
          "duration": 0.10937488333333079,
          "durationTicks": 119,
          "midi": 67,
          "name": "G4",
          "ticks": 73080,
          "time": 67.16904600000001,
          "velocity": 0.6299212598425197
        },
        {
          "duration": 0.109374883333345,
          "durationTicks": 119,
          "midi": 67,
          "name": "G4",
          "ticks": 73440,
          "time": 67.499928,
          "velocity": 0.6299212598425197
        },
        {
          "duration": 0.10937488333333079,
          "durationTicks": 119,
          "midi": 67,
          "name": "G4",
          "ticks": 73560,
          "time": 67.61022200000001,
          "velocity": 0.6299212598425197
        },
        {
          "duration": 0.10937488333333079,
          "durationTicks": 119,
          "midi": 67,
          "name": "G4",
          "ticks": 73680,
          "time": 67.720516,
          "velocity": 0.6299212598425197
        },
        {
          "duration": 0.10937488333333079,
          "durationTicks": 119,
          "midi": 67,
          "name": "G4",
          "ticks": 73800,
          "time": 67.83081,
          "velocity": 0.6299212598425197
        },
        {
          "duration": 0.10937488333333079,
          "durationTicks": 119,
          "midi": 71,
          "name": "B4",
          "ticks": 74040,
          "time": 68.051398,
          "velocity": 0.6299212598425197
        },
        {
          "duration": 0.6608448833333398,
          "durationTicks": 719,
          "midi": 73,
          "name": "C#5",
          "ticks": 74160,
          "time": 68.161692,
          "velocity": 0.6299212598425197
        },
        {
          "duration": 0.21966888333334111,
          "durationTicks": 239,
          "midi": 59,
          "name": "B3",
          "ticks": 75120,
          "time": 69.044044,
          "velocity": 0.6299212598425197
        },
        {
          "duration": 0.10937488333333079,
          "durationTicks": 119,
          "midi": 67,
          "name": "G4",
          "ticks": 75360,
          "time": 69.264632,
          "velocity": 0.6299212598425197
        },
        {
          "duration": 0.10937488333333079,
          "durationTicks": 119,
          "midi": 66,
          "name": "F#4",
          "ticks": 75480,
          "time": 69.374926,
          "velocity": 0.6299212598425197
        },
        {
          "duration": 0.109374883333345,
          "durationTicks": 119,
          "midi": 64,
          "name": "E4",
          "ticks": 75600,
          "time": 69.48522,
          "velocity": 0.6299212598425197
        },
        {
          "duration": 0.329962883333323,
          "durationTicks": 359,
          "midi": 62,
          "name": "D4",
          "ticks": 75720,
          "time": 69.59551400000001,
          "velocity": 0.6299212598425197
        },
        {
          "duration": 0.21966888333334111,
          "durationTicks": 239,
          "midi": 64,
          "name": "E4",
          "ticks": 76080,
          "time": 69.926396,
          "velocity": 0.6299212598425197
        },
        {
          "duration": 0.04319848333332743,
          "durationTicks": 47,
          "midi": 62,
          "name": "D4",
          "ticks": 77520,
          "time": 71.24992400000001,
          "velocity": 0.6299212598425197
        },
        {
          "duration": 0.04319848333332743,
          "durationTicks": 47,
          "midi": 63,
          "name": "D#4",
          "ticks": 77568,
          "time": 71.2940416,
          "velocity": 0.6299212598425197
        },
        {
          "duration": 0.04319848333334164,
          "durationTicks": 47,
          "midi": 64,
          "name": "E4",
          "ticks": 77616,
          "time": 71.33815919999999,
          "velocity": 0.6299212598425197
        },
        {
          "duration": 0.04319848333332743,
          "durationTicks": 47,
          "midi": 65,
          "name": "F4",
          "ticks": 77664,
          "time": 71.38227680000001,
          "velocity": 0.6299212598425197
        },
        {
          "duration": 0.04319848333332743,
          "durationTicks": 47,
          "midi": 66,
          "name": "F#4",
          "ticks": 77712,
          "time": 71.4263944,
          "velocity": 0.6299212598425197
        },
        {
          "duration": 0.29411733333333245,
          "durationTicks": 320,
          "midi": 67,
          "name": "G4",
          "ticks": 77760,
          "time": 71.470512,
          "velocity": 0.7559055118110236
        },
        {
          "duration": 0.29411733333333245,
          "durationTicks": 320,
          "midi": 66,
          "name": "F#4",
          "ticks": 78240,
          "time": 71.911688,
          "velocity": 0.7559055118110236
        },
        {
          "duration": 0.32996288333333723,
          "durationTicks": 359,
          "midi": 64,
          "name": "E4",
          "ticks": 78720,
          "time": 72.352864,
          "velocity": 0.7559055118110236
        },
        {
          "duration": 0.21966888333334111,
          "durationTicks": 239,
          "midi": 62,
          "name": "D4",
          "ticks": 79080,
          "time": 72.683746,
          "velocity": 0.7559055118110236
        },
        {
          "duration": 0.32996288333333723,
          "durationTicks": 359,
          "midi": 62,
          "name": "D4",
          "ticks": 79320,
          "time": 72.904334,
          "velocity": 0.7559055118110236
        },
        {
          "duration": 0.10937488333333079,
          "durationTicks": 119,
          "midi": 67,
          "name": "G4",
          "ticks": 79680,
          "time": 73.23521600000001,
          "velocity": 0.6299212598425197
        },
        {
          "duration": 0.10937488333333079,
          "durationTicks": 119,
          "midi": 67,
          "name": "G4",
          "ticks": 79800,
          "time": 73.34551,
          "velocity": 0.6299212598425197
        },
        {
          "duration": 0.10937488333333079,
          "durationTicks": 119,
          "midi": 67,
          "name": "G4",
          "ticks": 79920,
          "time": 73.455804,
          "velocity": 0.6299212598425197
        },
        {
          "duration": 0.109374883333345,
          "durationTicks": 119,
          "midi": 67,
          "name": "G4",
          "ticks": 80040,
          "time": 73.566098,
          "velocity": 0.6299212598425197
        },
        {
          "duration": 0.10937488333333079,
          "durationTicks": 119,
          "midi": 67,
          "name": "G4",
          "ticks": 80400,
          "time": 73.89698,
          "velocity": 0.6299212598425197
        },
        {
          "duration": 0.109374883333345,
          "durationTicks": 119,
          "midi": 67,
          "name": "G4",
          "ticks": 80520,
          "time": 74.007274,
          "velocity": 0.6299212598425197
        },
        {
          "duration": 0.10937488333333079,
          "durationTicks": 119,
          "midi": 67,
          "name": "G4",
          "ticks": 80640,
          "time": 74.117568,
          "velocity": 0.6299212598425197
        },
        {
          "duration": 0.10937488333333079,
          "durationTicks": 119,
          "midi": 67,
          "name": "G4",
          "ticks": 80760,
          "time": 74.227862,
          "velocity": 0.6299212598425197
        },
        {
          "duration": 0.10937488333333079,
          "durationTicks": 119,
          "midi": 67,
          "name": "G4",
          "ticks": 81120,
          "time": 74.558744,
          "velocity": 0.6299212598425197
        },
        {
          "duration": 0.10937488333333079,
          "durationTicks": 119,
          "midi": 67,
          "name": "G4",
          "ticks": 81240,
          "time": 74.669038,
          "velocity": 0.6299212598425197
        },
        {
          "duration": 0.109374883333345,
          "durationTicks": 119,
          "midi": 67,
          "name": "G4",
          "ticks": 81360,
          "time": 74.779332,
          "velocity": 0.6299212598425197
        },
        {
          "duration": 0.10937488333333079,
          "durationTicks": 119,
          "midi": 67,
          "name": "G4",
          "ticks": 81480,
          "time": 74.889626,
          "velocity": 0.6299212598425197
        },
        {
          "duration": 0.10937488333333079,
          "durationTicks": 119,
          "midi": 71,
          "name": "B4",
          "ticks": 81720,
          "time": 75.110214,
          "velocity": 0.6299212598425197
        },
        {
          "duration": 1.1020208833333385,
          "durationTicks": 1199,
          "midi": 73,
          "name": "C#5",
          "ticks": 81840,
          "time": 75.220508,
          "velocity": 0.6299212598425197
        },
        {
          "duration": 0.881432883333332,
          "durationTicks": 959,
          "midi": 66,
          "name": "F#4",
          "ticks": 83280,
          "time": 76.544036,
          "velocity": 0.6299212598425197
        },
        {
          "duration": 0.881432883333332,
          "durationTicks": 959,
          "midi": 67,
          "name": "G4",
          "ticks": 84240,
          "time": 77.426388,
          "velocity": 0.6299212598425197
        },
        {
          "duration": 0.44025688333333335,
          "durationTicks": 479,
          "midi": 69,
          "name": "A4",
          "ticks": 85200,
          "time": 78.30874,
          "velocity": 0.6299212598425197
        },
        {
          "duration": 0.21966888333334111,
          "durationTicks": 239,
          "midi": 71,
          "name": "B4",
          "ticks": 85680,
          "time": 78.749916,
          "velocity": 0.6299212598425197
        },
        {
          "duration": 0.2196688833333269,
          "durationTicks": 239,
          "midi": 69,
          "name": "A4",
          "ticks": 85920,
          "time": 78.970504,
          "velocity": 0.6299212598425197
        },
        {
          "duration": 1.1020208833333385,
          "durationTicks": 1199,
          "midi": 72,
          "name": "C5",
          "ticks": 86160,
          "time": 79.191092,
          "velocity": 0.6299212598425197
        },
        {
          "duration": 0.2196688833333269,
          "durationTicks": 239,
          "midi": 76,
          "name": "E5",
          "ticks": 88560,
          "time": 81.396972,
          "velocity": 0.7559055118110236
        },
        {
          "duration": 0.10937488333333079,
          "durationTicks": 119,
          "midi": 74,
          "name": "D5",
          "ticks": 90480,
          "time": 83.161676,
          "velocity": 0.6299212598425197
        },
        {
          "duration": 0.109374883333345,
          "durationTicks": 119,
          "midi": 76,
          "name": "E5",
          "ticks": 90600,
          "time": 83.27197,
          "velocity": 0.6299212598425197
        },
        {
          "duration": 0.10937488333333079,
          "durationTicks": 119,
          "midi": 74,
          "name": "D5",
          "ticks": 90720,
          "time": 83.382264,
          "velocity": 0.6299212598425197
        },
        {
          "duration": 0.10937488333333079,
          "durationTicks": 119,
          "midi": 71,
          "name": "B4",
          "ticks": 90840,
          "time": 83.492558,
          "velocity": 0.6299212598425197
        },
        {
          "duration": 0.109374883333345,
          "durationTicks": 119,
          "midi": 67,
          "name": "G4",
          "ticks": 90960,
          "time": 83.602852,
          "velocity": 0.6299212598425197
        },
        {
          "duration": 0.10937488333333079,
          "durationTicks": 119,
          "midi": 66,
          "name": "F#4",
          "ticks": 91080,
          "time": 83.71314600000001,
          "velocity": 0.6299212598425197
        },
        {
          "duration": 0.10937488333333079,
          "durationTicks": 119,
          "midi": 71,
          "name": "B4",
          "ticks": 94320,
          "time": 86.691084,
          "velocity": 0.6299212598425197
        },
        {
          "duration": 0.10937488333333079,
          "durationTicks": 119,
          "midi": 72,
          "name": "C5",
          "ticks": 94440,
          "time": 86.801378,
          "velocity": 0.6299212598425197
        },
        {
          "duration": 0.109374883333345,
          "durationTicks": 119,
          "midi": 74,
          "name": "D5",
          "ticks": 94560,
          "time": 86.911672,
          "velocity": 0.6299212598425197
        },
        {
          "duration": 0.10937488333333079,
          "durationTicks": 119,
          "midi": 71,
          "name": "B4",
          "ticks": 94680,
          "time": 87.021966,
          "velocity": 0.6299212598425197
        },
        {
          "duration": 0.10937488333333079,
          "durationTicks": 119,
          "midi": 72,
          "name": "C5",
          "ticks": 94800,
          "time": 87.13226,
          "velocity": 0.6299212598425197
        },
        {
          "duration": 0.109374883333345,
          "durationTicks": 119,
          "midi": 74,
          "name": "D5",
          "ticks": 94920,
          "time": 87.242554,
          "velocity": 0.6299212598425197
        },
        {
          "duration": 0.44025688333333335,
          "durationTicks": 479,
          "midi": 67,
          "name": "G4",
          "ticks": 100800,
          "time": 92.64696,
          "velocity": 0.6299212598425197
        },
        {
          "duration": 0.44025688333333335,
          "durationTicks": 479,
          "midi": 69,
          "name": "A4",
          "ticks": 101280,
          "time": 93.088136,
          "velocity": 0.6299212598425197
        },
        {
          "duration": 0.44025688333333335,
          "durationTicks": 479,
          "midi": 71,
          "name": "B4",
          "ticks": 101760,
          "time": 93.529312,
          "velocity": 0.6299212598425197
        },
        {
          "duration": 0.44025688333333335,
          "durationTicks": 479,
          "midi": 72,
          "name": "C5",
          "ticks": 102240,
          "time": 93.970488,
          "velocity": 0.6299212598425197
        },
        {
          "duration": 0.10937488333333079,
          "durationTicks": 119,
          "midi": 74,
          "name": "D5",
          "ticks": 102720,
          "time": 94.411664,
          "velocity": 0.6299212598425197
        },
        {
          "duration": 0.10937488333333079,
          "durationTicks": 119,
          "midi": 74,
          "name": "D5",
          "ticks": 102960,
          "time": 94.63225200000001,
          "velocity": 0.6299212598425197
        },
        {
          "duration": 0.44025688333333335,
          "durationTicks": 479,
          "midi": 74,
          "name": "D5",
          "ticks": 103440,
          "time": 95.073428,
          "velocity": 0.6299212598425197
        },
        {
          "duration": 0.10937488333333079,
          "durationTicks": 119,
          "midi": 76,
          "name": "E5",
          "ticks": 103920,
          "time": 95.514604,
          "velocity": 0.6299212598425197
        },
        {
          "duration": 0.44025688333333335,
          "durationTicks": 479,
          "midi": 76,
          "name": "E5",
          "ticks": 104160,
          "time": 95.735192,
          "velocity": 0.6299212598425197
        },
        {
          "duration": 0.10937488333333079,
          "durationTicks": 119,
          "midi": 74,
          "name": "D5",
          "ticks": 106560,
          "time": 97.941072,
          "velocity": 0.6299212598425197
        },
        {
          "duration": 0.109374883333345,
          "durationTicks": 119,
          "midi": 74,
          "name": "D5",
          "ticks": 106800,
          "time": 98.16166,
          "velocity": 0.6299212598425197
        },
        {
          "duration": 0.44025688333334756,
          "durationTicks": 479,
          "midi": 74,
          "name": "D5",
          "ticks": 107280,
          "time": 98.602836,
          "velocity": 0.6299212598425197
        },
        {
          "duration": 0.10937488333333079,
          "durationTicks": 119,
          "midi": 76,
          "name": "E5",
          "ticks": 107760,
          "time": 99.04401200000001,
          "velocity": 0.6299212598425197
        },
        {
          "duration": 0.44025688333333335,
          "durationTicks": 479,
          "midi": 76,
          "name": "E5",
          "ticks": 108000,
          "time": 99.2646,
          "velocity": 0.6299212598425197
        },
        {
          "duration": 0.44025688333333335,
          "durationTicks": 479,
          "midi": 71,
          "name": "B4",
          "ticks": 109440,
          "time": 100.588128,
          "velocity": 0.6299212598425197
        },
        {
          "duration": 0.44025688333334756,
          "durationTicks": 479,
          "midi": 72,
          "name": "C5",
          "ticks": 109920,
          "time": 101.029304,
          "velocity": 0.6299212598425197
        },
        {
          "duration": 0.10937488333333079,
          "durationTicks": 119,
          "midi": 74,
          "name": "D5",
          "ticks": 110400,
          "time": 101.47048000000001,
          "velocity": 0.6299212598425197
        },
        {
          "duration": 0.10937488333333079,
          "durationTicks": 119,
          "midi": 74,
          "name": "D5",
          "ticks": 110640,
          "time": 101.691068,
          "velocity": 0.6299212598425197
        },
        {
          "duration": 0.44025688333333335,
          "durationTicks": 479,
          "midi": 74,
          "name": "D5",
          "ticks": 111120,
          "time": 102.132244,
          "velocity": 0.6299212598425197
        },
        {
          "duration": 0.21966888333334111,
          "durationTicks": 239,
          "midi": 76,
          "name": "E5",
          "ticks": 111600,
          "time": 102.57342,
          "velocity": 0.6299212598425197
        },
        {
          "duration": 0.6608448833333398,
          "durationTicks": 719,
          "midi": 74,
          "name": "D5",
          "ticks": 112080,
          "time": 103.014596,
          "velocity": 0.7559055118110236
        },
        {
          "duration": 0.44025688333333335,
          "durationTicks": 479,
          "midi": 72,
          "name": "C5",
          "ticks": 112800,
          "time": 103.67636,
          "velocity": 0.6299212598425197
        },
        {
          "duration": 0.44025688333333335,
          "durationTicks": 479,
          "midi": 71,
          "name": "B4",
          "ticks": 113280,
          "time": 104.117536,
          "velocity": 0.6299212598425197
        },
        {
          "duration": 0.0873160833333344,
          "durationTicks": 95,
          "midi": 67,
          "name": "G4",
          "ticks": 113760,
          "time": 104.558712,
          "velocity": 0.8818897637795275
        },
        {
          "duration": 0.0873160833333344,
          "durationTicks": 95,
          "midi": 68,
          "name": "G#4",
          "ticks": 113856,
          "time": 104.6469472,
          "velocity": 0.8818897637795275
        },
        {
          "duration": 0.0873160833333344,
          "durationTicks": 95,
          "midi": 69,
          "name": "A4",
          "ticks": 113952,
          "time": 104.7351824,
          "velocity": 0.8818897637795275
        },
        {
          "duration": 0.08731608333334862,
          "durationTicks": 95,
          "midi": 70,
          "name": "A#4",
          "ticks": 114048,
          "time": 104.8234176,
          "velocity": 0.8818897637795275
        },
        {
          "duration": 0.0873160833333202,
          "durationTicks": 95,
          "midi": 71,
          "name": "B4",
          "ticks": 114144,
          "time": 104.91165280000001,
          "velocity": 0.8818897637795275
        },
        {
          "duration": 0.21966888333334111,
          "durationTicks": 239,
          "midi": 72,
          "name": "C5",
          "ticks": 114240,
          "time": 104.999888,
          "velocity": 0.8818897637795275
        },
        {
          "duration": 0.2196688833333269,
          "durationTicks": 239,
          "midi": 72,
          "name": "C5",
          "ticks": 114480,
          "time": 105.220476,
          "velocity": 0.8818897637795275
        },
        {
          "duration": 0.21966888333334111,
          "durationTicks": 239,
          "midi": 72,
          "name": "C5",
          "ticks": 114720,
          "time": 105.441064,
          "velocity": 0.8818897637795275
        },
        {
          "duration": 0.2196688833333269,
          "durationTicks": 239,
          "midi": 71,
          "name": "B4",
          "ticks": 114960,
          "time": 105.661652,
          "velocity": 0.8818897637795275
        },
        {
          "duration": 0.21966888333334111,
          "durationTicks": 239,
          "midi": 67,
          "name": "G4",
          "ticks": 115440,
          "time": 106.102828,
          "velocity": 0.8818897637795275
        },
        {
          "duration": 1.5431968833333372,
          "durationTicks": 1679,
          "midi": 69,
          "name": "A4",
          "ticks": 115920,
          "time": 106.544004,
          "velocity": 0.8818897637795275
        },
        {
          "duration": 0.44025688333333335,
          "durationTicks": 479,
          "midi": 69,
          "name": "A4",
          "ticks": 117840,
          "time": 108.30870800000001,
          "velocity": 0.8818897637795275
        },
        {
          "duration": 0.10937488333333079,
          "durationTicks": 119,
          "midi": 69,
          "name": "A4",
          "ticks": 118320,
          "time": 108.74988400000001,
          "velocity": 0.8818897637795275
        },
        {
          "duration": 0.10937488333333079,
          "durationTicks": 119,
          "midi": 69,
          "name": "A4",
          "ticks": 118560,
          "time": 108.970472,
          "velocity": 0.8818897637795275
        },
        {
          "duration": 0.10937488333333079,
          "durationTicks": 119,
          "midi": 69,
          "name": "A4",
          "ticks": 118800,
          "time": 109.19106000000001,
          "velocity": 0.8818897637795275
        },
        {
          "duration": 0.21966888333334111,
          "durationTicks": 239,
          "midi": 68,
          "name": "G#4",
          "ticks": 119040,
          "time": 109.411648,
          "velocity": 0.8818897637795275
        },
        {
          "duration": 0.44025688333333335,
          "durationTicks": 479,
          "midi": 67,
          "name": "G4",
          "ticks": 120480,
          "time": 110.73517600000001,
          "velocity": 0.905511811023622
        },
        {
          "duration": 0.10937488333333079,
          "durationTicks": 119,
          "midi": 62,
          "name": "D4",
          "ticks": 121200,
          "time": 111.39694,
          "velocity": 0.7559055118110236
        },
        {
          "duration": 0.2196688833333269,
          "durationTicks": 239,
          "midi": 66,
          "name": "F#4",
          "ticks": 121440,
          "time": 111.61752800000001,
          "velocity": 0.7559055118110236
        },
        {
          "duration": 0.21966888333334111,
          "durationTicks": 239,
          "midi": 67,
          "name": "G4",
          "ticks": 121680,
          "time": 111.838116,
          "velocity": 0.7559055118110236
        },
        {
          "duration": 0.2196688833333269,
          "durationTicks": 239,
          "midi": 66,
          "name": "F#4",
          "ticks": 121920,
          "time": 112.058704,
          "velocity": 0.7559055118110236
        },
        {
          "duration": 0.109374883333345,
          "durationTicks": 119,
          "midi": 67,
          "name": "G4",
          "ticks": 122160,
          "time": 112.279292,
          "velocity": 0.7559055118110236
        },
        {
          "duration": 0.6608448833333256,
          "durationTicks": 719,
          "midi": 67,
          "name": "G4",
          "ticks": 122640,
          "time": 112.720468,
          "velocity": 0.905511811023622
        },
        {
          "duration": 0.2196688833333269,
          "durationTicks": 239,
          "midi": 66,
          "name": "F#4",
          "ticks": 123360,
          "time": 113.382232,
          "velocity": 0.7559055118110236
        },
        {
          "duration": 0.2196688833333127,
          "durationTicks": 239,
          "midi": 67,
          "name": "G4",
          "ticks": 123600,
          "time": 113.60282000000001,
          "velocity": 0.7559055118110236
        },
        {
          "duration": 0.2196688833333269,
          "durationTicks": 239,
          "midi": 67,
          "name": "G4",
          "ticks": 125280,
          "time": 115.146936,
          "velocity": 0.7559055118110236
        },
        {
          "duration": 0.10937488333331657,
          "durationTicks": 119,
          "midi": 66,
          "name": "F#4",
          "ticks": 125520,
          "time": 115.367524,
          "velocity": 0.7559055118110236
        },
        {
          "duration": 0.2196688833333127,
          "durationTicks": 239,
          "midi": 65,
          "name": "F4",
          "ticks": 125760,
          "time": 115.58811200000001,
          "velocity": 0.7559055118110236
        },
        {
          "duration": 0.2196688833333269,
          "durationTicks": 239,
          "midi": 67,
          "name": "G4",
          "ticks": 126000,
          "time": 115.8087,
          "velocity": 0.7559055118110236
        },
        {
          "duration": 0.10937488333331657,
          "durationTicks": 119,
          "midi": 69,
          "name": "A4",
          "ticks": 126240,
          "time": 116.02928800000001,
          "velocity": 0.7559055118110236
        },
        {
          "duration": 0.44025688333331914,
          "durationTicks": 479,
          "midi": 71,
          "name": "B4",
          "ticks": 126480,
          "time": 116.249876,
          "velocity": 0.7559055118110236
        },
        {
          "duration": 0.10937488333333079,
          "durationTicks": 119,
          "midi": 69,
          "name": "A4",
          "ticks": 126960,
          "time": 116.691052,
          "velocity": 0.7559055118110236
        },
        {
          "duration": 0.44025688333331914,
          "durationTicks": 479,
          "midi": 67,
          "name": "G4",
          "ticks": 127200,
          "time": 116.91164,
          "velocity": 0.7559055118110236
        },
        {
          "duration": 0.2196688833333127,
          "durationTicks": 239,
          "midi": 62,
          "name": "D4",
          "ticks": 128400,
          "time": 118.01458000000001,
          "velocity": 0.7559055118110236
        },
        {
          "duration": 0.2196688833333269,
          "durationTicks": 239,
          "midi": 64,
          "name": "E4",
          "ticks": 128640,
          "time": 118.235168,
          "velocity": 0.7559055118110236
        },
        {
          "duration": 0.2196688833333127,
          "durationTicks": 239,
          "midi": 66,
          "name": "F#4",
          "ticks": 128880,
          "time": 118.45575600000001,
          "velocity": 0.7559055118110236
        },
        {
          "duration": 0.2196688833333269,
          "durationTicks": 239,
          "midi": 67,
          "name": "G4",
          "ticks": 129120,
          "time": 118.676344,
          "velocity": 0.7559055118110236
        },
        {
          "duration": 0.2196688833333127,
          "durationTicks": 239,
          "midi": 69,
          "name": "A4",
          "ticks": 129360,
          "time": 118.896932,
          "velocity": 0.7559055118110236
        },
        {
          "duration": 0.2196688833333127,
          "durationTicks": 239,
          "midi": 67,
          "name": "G4",
          "ticks": 129840,
          "time": 119.338108,
          "velocity": 0.7559055118110236
        },
        {
          "duration": 0.2196688833333269,
          "durationTicks": 239,
          "midi": 66,
          "name": "F#4",
          "ticks": 130080,
          "time": 119.558696,
          "velocity": 0.7559055118110236
        },
        {
          "duration": 0.44025688333331914,
          "durationTicks": 479,
          "midi": 67,
          "name": "G4",
          "ticks": 130320,
          "time": 119.779284,
          "velocity": 0.7559055118110236
        },
        {
          "duration": 0.2196688833333269,
          "durationTicks": 239,
          "midi": 66,
          "name": "F#4",
          "ticks": 130800,
          "time": 120.22046,
          "velocity": 0.7559055118110236
        },
        {
          "duration": 0.2196688833333127,
          "durationTicks": 239,
          "midi": 64,
          "name": "E4",
          "ticks": 131040,
          "time": 120.44104800000001,
          "velocity": 0.7559055118110236
        },
        {
          "duration": 0.2196688833333269,
          "durationTicks": 239,
          "midi": 62,
          "name": "D4",
          "ticks": 131280,
          "time": 120.661636,
          "velocity": 0.7559055118110236
        },
        {
          "duration": 0.44025688333331914,
          "durationTicks": 479,
          "midi": 57,
          "name": "A3",
          "ticks": 131520,
          "time": 120.88222400000001,
          "velocity": 0.7559055118110236
        },
        {
          "duration": 0.44025688333331914,
          "durationTicks": 479,
          "midi": 60,
          "name": "C4",
          "ticks": 132000,
          "time": 121.3234,
          "velocity": 0.7559055118110236
        },
        {
          "duration": 0.44025688333331914,
          "durationTicks": 479,
          "midi": 64,
          "name": "E4",
          "ticks": 132480,
          "time": 121.764576,
          "velocity": 0.7559055118110236
        },
        {
          "duration": 0.44025688333331914,
          "durationTicks": 479,
          "midi": 67,
          "name": "G4",
          "ticks": 132960,
          "time": 122.205752,
          "velocity": 0.7559055118110236
        },
        {
          "duration": 0.8814328833333178,
          "durationTicks": 959,
          "midi": 67,
          "name": "G4",
          "ticks": 133440,
          "time": 122.646928,
          "velocity": 0.7559055118110236
        },
        {
          "duration": 0.6608448833333256,
          "durationTicks": 719,
          "midi": 66,
          "name": "F#4",
          "ticks": 134400,
          "time": 123.52928,
          "velocity": 0.7559055118110236
        },
        {
          "duration": 0.2196688833333269,
          "durationTicks": 239,
          "midi": 67,
          "name": "G4",
          "ticks": 135120,
          "time": 124.191044,
          "velocity": 0.7559055118110236
        },
        {
          "duration": 0.10937488333333079,
          "durationTicks": 119,
          "midi": 64,
          "name": "E4",
          "ticks": 137040,
          "time": 125.955748,
          "velocity": 0.7559055118110236
        },
        {
          "duration": 0.10937488333331657,
          "durationTicks": 119,
          "midi": 64,
          "name": "E4",
          "ticks": 137160,
          "time": 126.06604200000001,
          "velocity": 0.7559055118110236
        },
        {
          "duration": 0.44025688333331914,
          "durationTicks": 479,
          "midi": 64,
          "name": "E4",
          "ticks": 138240,
          "time": 127.058688,
          "velocity": 0.7559055118110236
        },
        {
          "duration": 0.329962883333323,
          "durationTicks": 359,
          "midi": 64,
          "name": "E4",
          "ticks": 138720,
          "time": 127.499864,
          "velocity": 0.7559055118110236
        },
        {
          "duration": 0.10937488333331657,
          "durationTicks": 119,
          "midi": 64,
          "name": "E4",
          "ticks": 139080,
          "time": 127.830746,
          "velocity": 0.7559055118110236
        },
        {
          "duration": 0.10937488333331657,
          "durationTicks": 119,
          "midi": 64,
          "name": "E4",
          "ticks": 140880,
          "time": 129.48515600000002,
          "velocity": 0.7559055118110236
        },
        {
          "duration": 0.10937488333331657,
          "durationTicks": 119,
          "midi": 64,
          "name": "E4",
          "ticks": 141000,
          "time": 129.59545,
          "velocity": 0.7559055118110236
        },
        {
          "duration": 0.10937488333331657,
          "durationTicks": 119,
          "midi": 71,
          "name": "B4",
          "ticks": 141360,
          "time": 129.926332,
          "velocity": 0.7559055118110236
        },
        {
          "duration": 0.10937488333331657,
          "durationTicks": 119,
          "midi": 69,
          "name": "A4",
          "ticks": 141480,
          "time": 130.036626,
          "velocity": 0.7559055118110236
        },
        {
          "duration": 0.109374883333345,
          "durationTicks": 119,
          "midi": 67,
          "name": "G4",
          "ticks": 141600,
          "time": 130.14692,
          "velocity": 0.7559055118110236
        },
        {
          "duration": 0.10937488333331657,
          "durationTicks": 119,
          "midi": 64,
          "name": "E4",
          "ticks": 141720,
          "time": 130.257214,
          "velocity": 0.7559055118110236
        },
        {
          "duration": 0.10937488333331657,
          "durationTicks": 119,
          "midi": 64,
          "name": "E4",
          "ticks": 144720,
          "time": 133.014564,
          "velocity": 0.7559055118110236
        },
        {
          "duration": 0.10937488333331657,
          "durationTicks": 119,
          "midi": 64,
          "name": "E4",
          "ticks": 144840,
          "time": 133.12485800000002,
          "velocity": 0.7559055118110236
        },
        {
          "duration": 0.44025688333331914,
          "durationTicks": 479,
          "midi": 64,
          "name": "E4",
          "ticks": 145920,
          "time": 134.117504,
          "velocity": 0.7559055118110236
        },
        {
          "duration": 0.3299628833333088,
          "durationTicks": 359,
          "midi": 64,
          "name": "E4",
          "ticks": 146400,
          "time": 134.55868,
          "velocity": 0.7559055118110236
        },
        {
          "duration": 0.10937488333331657,
          "durationTicks": 119,
          "midi": 64,
          "name": "E4",
          "ticks": 146760,
          "time": 134.889562,
          "velocity": 0.7559055118110236
        },
        {
          "duration": 0.10937488333331657,
          "durationTicks": 119,
          "midi": 64,
          "name": "E4",
          "ticks": 148560,
          "time": 136.543972,
          "velocity": 0.7559055118110236
        },
        {
          "duration": 0.10937488333331657,
          "durationTicks": 119,
          "midi": 64,
          "name": "E4",
          "ticks": 148680,
          "time": 136.654266,
          "velocity": 0.7559055118110236
        },
        {
          "duration": 0.10937488333331657,
          "durationTicks": 119,
          "midi": 71,
          "name": "B4",
          "ticks": 149040,
          "time": 136.985148,
          "velocity": 0.7559055118110236
        },
        {
          "duration": 0.109374883333345,
          "durationTicks": 119,
          "midi": 69,
          "name": "A4",
          "ticks": 149160,
          "time": 137.095442,
          "velocity": 0.7559055118110236
        },
        {
          "duration": 0.10937488333331657,
          "durationTicks": 119,
          "midi": 67,
          "name": "G4",
          "ticks": 149280,
          "time": 137.205736,
          "velocity": 0.7559055118110236
        },
        {
          "duration": 0.10937488333331657,
          "durationTicks": 119,
          "midi": 64,
          "name": "E4",
          "ticks": 149400,
          "time": 137.31603,
          "velocity": 0.7559055118110236
        },
        {
          "duration": 0.44025688333331914,
          "durationTicks": 479,
          "midi": 64,
          "name": "E4",
          "ticks": 149760,
          "time": 137.64691200000001,
          "velocity": 0.7559055118110236
        },
        {
          "duration": 0.32996288333333723,
          "durationTicks": 359,
          "midi": 64,
          "name": "E4",
          "ticks": 150240,
          "time": 138.088088,
          "velocity": 0.7559055118110236
        },
        {
          "duration": 0.10937488333331657,
          "durationTicks": 119,
          "midi": 64,
          "name": "E4",
          "ticks": 150600,
          "time": 138.41897,
          "velocity": 0.7559055118110236
        },
        {
          "duration": 0.029411733333319035,
          "durationTicks": 32,
          "midi": 64,
          "name": "E4",
          "ticks": 151440,
          "time": 139.19102800000002,
          "velocity": 0.7559055118110236
        },
        {
          "duration": 0.029411733333347456,
          "durationTicks": 32,
          "midi": 65,
          "name": "F4",
          "ticks": 151473,
          "time": 139.22135885,
          "velocity": 0.7559055118110236
        },
        {
          "duration": 0.029411733333319035,
          "durationTicks": 32,
          "midi": 66,
          "name": "F#4",
          "ticks": 151507,
          "time": 139.25260881666668,
          "velocity": 0.7559055118110236
        },
        {
          "duration": 0.029411733333319035,
          "durationTicks": 32,
          "midi": 67,
          "name": "G4",
          "ticks": 151542,
          "time": 139.2847779,
          "velocity": 0.7559055118110236
        },
        {
          "duration": 0.029411733333319035,
          "durationTicks": 32,
          "midi": 68,
          "name": "G#4",
          "ticks": 151575,
          "time": 139.31510875,
          "velocity": 0.7559055118110236
        },
        {
          "duration": 0.029411733333347456,
          "durationTicks": 32,
          "midi": 69,
          "name": "A4",
          "ticks": 151609,
          "time": 139.34635871666666,
          "velocity": 0.7559055118110236
        },
        {
          "duration": 0.03216908333331503,
          "durationTicks": 35,
          "midi": 70,
          "name": "A#4",
          "ticks": 151644,
          "time": 139.3785278,
          "velocity": 0.7559055118110236
        },
        {
          "duration": 0.10937488333331657,
          "durationTicks": 119,
          "midi": 71,
          "name": "B4",
          "ticks": 151680,
          "time": 139.411616,
          "velocity": 0.7559055118110236
        },
        {
          "duration": 0.10937488333331657,
          "durationTicks": 119,
          "midi": 69,
          "name": "A4",
          "ticks": 151920,
          "time": 139.632204,
          "velocity": 0.7559055118110236
        },
        {
          "duration": 0.109374883333345,
          "durationTicks": 119,
          "midi": 67,
          "name": "G4",
          "ticks": 152160,
          "time": 139.852792,
          "velocity": 0.7559055118110236
        },
        {
          "duration": 0.2196688833333269,
          "durationTicks": 239,
          "midi": 64,
          "name": "E4",
          "ticks": 152280,
          "time": 139.963086,
          "velocity": 0.7559055118110236
        },
        {
          "duration": 1.7637848833333294,
          "durationTicks": 1919,
          "midi": 76,
          "name": "E5",
          "ticks": 152640,
          "time": 140.293968,
          "velocity": 0.25984251968503935
        },
        {
          "duration": 0.881432883333332,
          "durationTicks": 959,
          "midi": 72,
          "name": "C5",
          "ticks": 154560,
          "time": 142.058672,
          "velocity": 0.6299212598425197
        },
        {
          "duration": 0.44025688333331914,
          "durationTicks": 479,
          "midi": 57,
          "name": "A3",
          "ticks": 166080,
          "time": 152.646896,
          "velocity": 0.6299212598425197
        },
        {
          "duration": 0.44025688333331914,
          "durationTicks": 479,
          "midi": 60,
          "name": "C4",
          "ticks": 166560,
          "time": 153.088072,
          "velocity": 0.6299212598425197
        },
        {
          "duration": 0.44025688333331914,
          "durationTicks": 479,
          "midi": 64,
          "name": "E4",
          "ticks": 167040,
          "time": 153.529248,
          "velocity": 0.6299212598425197
        },
        {
          "duration": 0.44025688333331914,
          "durationTicks": 479,
          "midi": 67,
          "name": "G4",
          "ticks": 167520,
          "time": 153.970424,
          "velocity": 0.6299212598425197
        },
        {
          "duration": 0.881432883333332,
          "durationTicks": 959,
          "midi": 67,
          "name": "G4",
          "ticks": 168000,
          "time": 154.4116,
          "velocity": 0.6299212598425197
        },
        {
          "duration": 0.6608448833333398,
          "durationTicks": 719,
          "midi": 66,
          "name": "F#4",
          "ticks": 168960,
          "time": 155.293952,
          "velocity": 0.6299212598425197
        },
        {
          "duration": 0.2196688833333269,
          "durationTicks": 239,
          "midi": 67,
          "name": "G4",
          "ticks": 169680,
          "time": 155.955716,
          "velocity": 0.6299212598425197
        },
        {
          "duration": 0.10937488333331657,
          "durationTicks": 119,
          "midi": 76,
          "name": "E5",
          "ticks": 170160,
          "time": 156.396892,
          "velocity": 0.8818897637795275
        },
        {
          "duration": 0.44025688333331914,
          "durationTicks": 479,
          "midi": 74,
          "name": "D5",
          "ticks": 170400,
          "time": 156.61748,
          "velocity": 1
        },
        {
          "duration": 0.10937488333331657,
          "durationTicks": 119,
          "midi": 76,
          "name": "E5",
          "ticks": 170880,
          "time": 157.058656,
          "velocity": 0.8818897637795275
        },
        {
          "duration": 0.10937488333331657,
          "durationTicks": 119,
          "midi": 78,
          "name": "F#5",
          "ticks": 171120,
          "time": 157.279244,
          "velocity": 0.8818897637795275
        },
        {
          "duration": 0.44025688333331914,
          "durationTicks": 479,
          "midi": 76,
          "name": "E5",
          "ticks": 171360,
          "time": 157.499832,
          "velocity": 1
        },
        {
          "duration": 0.44025688333331914,
          "durationTicks": 479,
          "midi": 67,
          "name": "G4",
          "ticks": 172320,
          "time": 158.382184,
          "velocity": 0.905511811023622
        },
        {
          "duration": 0.10937488333331657,
          "durationTicks": 119,
          "midi": 62,
          "name": "D4",
          "ticks": 173040,
          "time": 159.043948,
          "velocity": 0.7559055118110236
        },
        {
          "duration": 0.2196688833333269,
          "durationTicks": 239,
          "midi": 66,
          "name": "F#4",
          "ticks": 173280,
          "time": 159.264536,
          "velocity": 0.7559055118110236
        },
        {
          "duration": 0.2196688833333269,
          "durationTicks": 239,
          "midi": 67,
          "name": "G4",
          "ticks": 173520,
          "time": 159.485124,
          "velocity": 0.7559055118110236
        },
        {
          "duration": 0.2196688833333269,
          "durationTicks": 239,
          "midi": 66,
          "name": "F#4",
          "ticks": 173760,
          "time": 159.705712,
          "velocity": 0.7559055118110236
        },
        {
          "duration": 0.2196688833333269,
          "durationTicks": 239,
          "midi": 67,
          "name": "G4",
          "ticks": 174000,
          "time": 159.9263,
          "velocity": 0.7559055118110236
        },
        {
          "duration": 0.6608448833333114,
          "durationTicks": 719,
          "midi": 67,
          "name": "G4",
          "ticks": 174480,
          "time": 160.367476,
          "velocity": 0.905511811023622
        },
        {
          "duration": 0.21966888333329848,
          "durationTicks": 239,
          "midi": 66,
          "name": "F#4",
          "ticks": 175200,
          "time": 161.02924000000002,
          "velocity": 0.7559055118110236
        },
        {
          "duration": 0.2196688833333269,
          "durationTicks": 239,
          "midi": 67,
          "name": "G4",
          "ticks": 175440,
          "time": 161.249828,
          "velocity": 0.7559055118110236
        },
        {
          "duration": 0.2196688833333269,
          "durationTicks": 239,
          "midi": 67,
          "name": "G4",
          "ticks": 177120,
          "time": 162.793944,
          "velocity": 0.7559055118110236
        },
        {
          "duration": 0.10937488333331657,
          "durationTicks": 119,
          "midi": 66,
          "name": "F#4",
          "ticks": 177360,
          "time": 163.014532,
          "velocity": 0.7559055118110236
        },
        {
          "duration": 0.2196688833333269,
          "durationTicks": 239,
          "midi": 65,
          "name": "F4",
          "ticks": 177600,
          "time": 163.23512,
          "velocity": 0.7559055118110236
        },
        {
          "duration": 0.21966888333329848,
          "durationTicks": 239,
          "midi": 67,
          "name": "G4",
          "ticks": 177840,
          "time": 163.45570800000002,
          "velocity": 0.7559055118110236
        },
        {
          "duration": 0.10937488333331657,
          "durationTicks": 119,
          "midi": 69,
          "name": "A4",
          "ticks": 178080,
          "time": 163.676296,
          "velocity": 0.7559055118110236
        },
        {
          "duration": 0.44025688333331914,
          "durationTicks": 479,
          "midi": 71,
          "name": "B4",
          "ticks": 178320,
          "time": 163.896884,
          "velocity": 0.7559055118110236
        },
        {
          "duration": 0.10937488333331657,
          "durationTicks": 119,
          "midi": 69,
          "name": "A4",
          "ticks": 178800,
          "time": 164.33806,
          "velocity": 0.7559055118110236
        },
        {
          "duration": 0.44025688333331914,
          "durationTicks": 479,
          "midi": 67,
          "name": "G4",
          "ticks": 179040,
          "time": 164.558648,
          "velocity": 0.7559055118110236
        },
        {
          "duration": 0.2196688833333269,
          "durationTicks": 239,
          "midi": 62,
          "name": "D4",
          "ticks": 180240,
          "time": 165.661588,
          "velocity": 0.7559055118110236
        },
        {
          "duration": 0.21966888333329848,
          "durationTicks": 239,
          "midi": 64,
          "name": "E4",
          "ticks": 180480,
          "time": 165.88217600000002,
          "velocity": 0.7559055118110236
        },
        {
          "duration": 0.2196688833333269,
          "durationTicks": 239,
          "midi": 66,
          "name": "F#4",
          "ticks": 180720,
          "time": 166.102764,
          "velocity": 0.7559055118110236
        },
        {
          "duration": 0.2196688833333269,
          "durationTicks": 239,
          "midi": 67,
          "name": "G4",
          "ticks": 180960,
          "time": 166.323352,
          "velocity": 0.7559055118110236
        },
        {
          "duration": 0.2196688833333269,
          "durationTicks": 239,
          "midi": 69,
          "name": "A4",
          "ticks": 181200,
          "time": 166.54394,
          "velocity": 0.7559055118110236
        },
        {
          "duration": 0.2196688833333269,
          "durationTicks": 239,
          "midi": 67,
          "name": "G4",
          "ticks": 181680,
          "time": 166.985116,
          "velocity": 0.7559055118110236
        },
        {
          "duration": 0.2196688833333269,
          "durationTicks": 239,
          "midi": 66,
          "name": "F#4",
          "ticks": 181920,
          "time": 167.205704,
          "velocity": 0.7559055118110236
        },
        {
          "duration": 0.44025688333331914,
          "durationTicks": 479,
          "midi": 67,
          "name": "G4",
          "ticks": 182160,
          "time": 167.42629200000002,
          "velocity": 0.7559055118110236
        },
        {
          "duration": 0.2196688833333269,
          "durationTicks": 239,
          "midi": 66,
          "name": "F#4",
          "ticks": 182640,
          "time": 167.867468,
          "velocity": 0.7559055118110236
        },
        {
          "duration": 0.2196688833333269,
          "durationTicks": 239,
          "midi": 64,
          "name": "E4",
          "ticks": 182880,
          "time": 168.088056,
          "velocity": 0.7559055118110236
        },
        {
          "duration": 0.21966888333329848,
          "durationTicks": 239,
          "midi": 62,
          "name": "D4",
          "ticks": 183120,
          "time": 168.30864400000002,
          "velocity": 0.7559055118110236
        },
        {
          "duration": 0.44025688333331914,
          "durationTicks": 479,
          "midi": 57,
          "name": "A3",
          "ticks": 183360,
          "time": 168.529232,
          "velocity": 0.6299212598425197
        },
        {
          "duration": 0.44025688333334756,
          "durationTicks": 479,
          "midi": 60,
          "name": "C4",
          "ticks": 183840,
          "time": 168.970408,
          "velocity": 0.6299212598425197
        },
        {
          "duration": 0.44025688333331914,
          "durationTicks": 479,
          "midi": 64,
          "name": "E4",
          "ticks": 184320,
          "time": 169.411584,
          "velocity": 0.6299212598425197
        },
        {
          "duration": 0.44025688333331914,
          "durationTicks": 479,
          "midi": 67,
          "name": "G4",
          "ticks": 184800,
          "time": 169.85276000000002,
          "velocity": 0.6299212598425197
        },
        {
          "duration": 0.881432883333332,
          "durationTicks": 959,
          "midi": 67,
          "name": "G4",
          "ticks": 185280,
          "time": 170.293936,
          "velocity": 0.6299212598425197
        },
        {
          "duration": 0.6608448833333398,
          "durationTicks": 719,
          "midi": 66,
          "name": "F#4",
          "ticks": 186240,
          "time": 171.176288,
          "velocity": 0.6299212598425197
        },
        {
          "duration": 0.881432883333332,
          "durationTicks": 959,
          "midi": 66,
          "name": "F#4",
          "ticks": 186960,
          "time": 171.838052,
          "velocity": 0.6299212598425197
        },
        {
          "duration": 0.6608448833333114,
          "durationTicks": 719,
          "midi": 67,
          "name": "G4",
          "ticks": 187920,
          "time": 172.720404,
          "velocity": 0.6299212598425197
        },
        {
          "duration": 0.44025688333331914,
          "durationTicks": 479,
          "midi": 69,
          "name": "A4",
          "ticks": 188880,
          "time": 173.602756,
          "velocity": 0.6299212598425197
        },
        {
          "duration": 0.2196688833333269,
          "durationTicks": 239,
          "midi": 71,
          "name": "B4",
          "ticks": 189360,
          "time": 174.043932,
          "velocity": 0.6299212598425197
        },
        {
          "duration": 0.2196688833333269,
          "durationTicks": 239,
          "midi": 69,
          "name": "A4",
          "ticks": 189600,
          "time": 174.26452,
          "velocity": 0.6299212598425197
        },
        {
          "duration": 1.1020208833333243,
          "durationTicks": 1199,
          "midi": 72,
          "name": "C5",
          "ticks": 189840,
          "time": 174.485108,
          "velocity": 0.6299212598425197
        },
        {
          "duration": 0.10937488333331657,
          "durationTicks": 119,
          "midi": 79,
          "name": "G5",
          "ticks": 191040,
          "time": 175.58804800000001,
          "velocity": 0.6299212598425197
        },
        {
          "duration": 0.10937488333331657,
          "durationTicks": 119,
          "midi": 76,
          "name": "E5",
          "ticks": 191160,
          "time": 175.698342,
          "velocity": 0.6299212598425197
        },
        {
          "duration": 0.10937488333331657,
          "durationTicks": 119,
          "midi": 74,
          "name": "D5",
          "ticks": 191280,
          "time": 175.808636,
          "velocity": 0.6299212598425197
        },
        {
          "duration": 0.10937488333331657,
          "durationTicks": 119,
          "midi": 71,
          "name": "B4",
          "ticks": 191400,
          "time": 175.91893000000002,
          "velocity": 0.6299212598425197
        },
        {
          "duration": 0.109374883333345,
          "durationTicks": 119,
          "midi": 76,
          "name": "E5",
          "ticks": 191760,
          "time": 176.249812,
          "velocity": 0.6299212598425197
        },
        {
          "duration": 0.10937488333331657,
          "durationTicks": 119,
          "midi": 74,
          "name": "D5",
          "ticks": 191880,
          "time": 176.360106,
          "velocity": 0.6299212598425197
        },
        {
          "duration": 0.10937488333331657,
          "durationTicks": 119,
          "midi": 71,
          "name": "B4",
          "ticks": 192000,
          "time": 176.4704,
          "velocity": 0.6299212598425197
        },
        {
          "duration": 0.109374883333345,
          "durationTicks": 119,
          "midi": 69,
          "name": "A4",
          "ticks": 192120,
          "time": 176.580694,
          "velocity": 0.6299212598425197
        },
        {
          "duration": 0.10937488333331657,
          "durationTicks": 119,
          "midi": 74,
          "name": "D5",
          "ticks": 192480,
          "time": 176.911576,
          "velocity": 0.6299212598425197
        },
        {
          "duration": 0.10937488333331657,
          "durationTicks": 119,
          "midi": 71,
          "name": "B4",
          "ticks": 192600,
          "time": 177.02187,
          "velocity": 0.6299212598425197
        },
        {
          "duration": 0.10937488333331657,
          "durationTicks": 119,
          "midi": 69,
          "name": "A4",
          "ticks": 192720,
          "time": 177.13216400000002,
          "velocity": 0.6299212598425197
        },
        {
          "duration": 0.10937488333331657,
          "durationTicks": 119,
          "midi": 67,
          "name": "G4",
          "ticks": 192840,
          "time": 177.242458,
          "velocity": 0.6299212598425197
        },
        {
          "duration": 0.10937488333331657,
          "durationTicks": 119,
          "midi": 71,
          "name": "B4",
          "ticks": 193200,
          "time": 177.57334,
          "velocity": 0.6299212598425197
        },
        {
          "duration": 0.10937488333331657,
          "durationTicks": 119,
          "midi": 69,
          "name": "A4",
          "ticks": 193320,
          "time": 177.683634,
          "velocity": 0.6299212598425197
        },
        {
          "duration": 0.109374883333345,
          "durationTicks": 119,
          "midi": 67,
          "name": "G4",
          "ticks": 193440,
          "time": 177.793928,
          "velocity": 0.6299212598425197
        },
        {
          "duration": 0.10937488333331657,
          "durationTicks": 119,
          "midi": 64,
          "name": "E4",
          "ticks": 193560,
          "time": 177.904222,
          "velocity": 0.6299212598425197
        },
        {
          "duration": 0.10937488333331657,
          "durationTicks": 119,
          "midi": 69,
          "name": "A4",
          "ticks": 194160,
          "time": 178.455692,
          "velocity": 0.6299212598425197
        },
        {
          "duration": 0.10937488333331657,
          "durationTicks": 119,
          "midi": 71,
          "name": "B4",
          "ticks": 194280,
          "time": 178.565986,
          "velocity": 0.6299212598425197
        },
        {
          "duration": 0.109374883333345,
          "durationTicks": 119,
          "midi": 79,
          "name": "G5",
          "ticks": 194400,
          "time": 178.67628,
          "velocity": 0.6299212598425197
        },
        {
          "duration": 0.10937488333331657,
          "durationTicks": 119,
          "midi": 78,
          "name": "F#5",
          "ticks": 194520,
          "time": 178.786574,
          "velocity": 0.6299212598425197
        },
        {
          "duration": 0.10937488333331657,
          "durationTicks": 119,
          "midi": 71,
          "name": "B4",
          "ticks": 194640,
          "time": 178.896868,
          "velocity": 0.6299212598425197
        },
        {
          "duration": 0.32996288333333723,
          "durationTicks": 359,
          "midi": 74,
          "name": "D5",
          "ticks": 194760,
          "time": 179.007162,
          "velocity": 0.6299212598425197
        },
        {
          "duration": 0.2196688833333269,
          "durationTicks": 239,
          "midi": 76,
          "name": "E5",
          "ticks": 195120,
          "time": 179.338044,
          "velocity": 0.6299212598425197
        }
      ]
    },
    {
      "channel": 0,
      "controlChanges": {
        "121": [
          {
            "number": 121,
            "ticks": 0,
            "time": 0,
            "value": 0
          }
        ]
      },
      "pitchBends": [],
      "instrument": {
        "family": "piano",
        "number": 0,
        "name": "acoustic grand piano"
      },
      "name": "",
      "notes": []
    },
    {
      "channel": 0,
      "controlChanges": {
        "7": [
          {
            "number": 7,
            "ticks": 0,
            "time": 0,
            "value": 0.7874015748031497
          }
        ],
        "10": [
          {
            "number": 10,
            "ticks": 0,
            "time": 0,
            "value": 0.5039370078740157
          }
        ],
        "91": [
          {
            "number": 91,
            "ticks": 0,
            "time": 0,
            "value": 0
          }
        ],
        "93": [
          {
            "number": 93,
            "ticks": 0,
            "time": 0,
            "value": 0
          }
        ]
      },
      "pitchBends": [],
      "instrument": {
        "family": "brass",
        "number": 59,
        "name": "muted trumpet"
      },
      "name": "",
      "notes": []
    },
    {
      "channel": 0,
      "controlChanges": {
        "121": [
          {
            "number": 121,
            "ticks": 0,
            "time": 0,
            "value": 0
          }
        ]
      },
      "pitchBends": [],
      "instrument": {
        "family": "piano",
        "number": 0,
        "name": "acoustic grand piano"
      },
      "name": "",
      "notes": [],
      "endOfTrackTicks": 195360
    },
    {
      "channel": 7,
      "controlChanges": {
        "7": [
          {
            "number": 7,
            "ticks": 0,
            "time": 0,
            "value": 0.7874015748031497
          }
        ],
        "10": [
          {
            "number": 10,
            "ticks": 0,
            "time": 0,
            "value": 0.5039370078740157
          }
        ],
        "91": [
          {
            "number": 91,
            "ticks": 0,
            "time": 0,
            "value": 0
          }
        ],
        "93": [
          {
            "number": 93,
            "ticks": 0,
            "time": 0,
            "value": 0
          }
        ]
      },
      "pitchBends": [],
      "instrument": {
        "family": "brass",
        "number": 57,
        "name": "trombone"
      },
      "name": "",
      "notes": [
        {
          "duration": 0.10937488333333345,
          "durationTicks": 119,
          "midi": 50,
          "name": "D3",
          "ticks": 1440,
          "time": 1.323528,
          "velocity": 0.6299212598425197
        },
        {
          "duration": 0.10937488333333323,
          "durationTicks": 119,
          "midi": 50,
          "name": "D3",
          "ticks": 1560,
          "time": 1.4338220000000002,
          "velocity": 0.6299212598425197
        },
        {
          "duration": 0.10937488333333345,
          "durationTicks": 119,
          "midi": 52,
          "name": "E3",
          "ticks": 3360,
          "time": 3.088232,
          "velocity": 0.6299212598425197
        },
        {
          "duration": 0.10937488333333345,
          "durationTicks": 119,
          "midi": 52,
          "name": "E3",
          "ticks": 3480,
          "time": 3.198526,
          "velocity": 0.6299212598425197
        },
        {
          "duration": 0.10937488333333345,
          "durationTicks": 119,
          "midi": 55,
          "name": "G3",
          "ticks": 4800,
          "time": 4.41176,
          "velocity": 0.6299212598425197
        },
        {
          "duration": 0.10937488333333345,
          "durationTicks": 119,
          "midi": 55,
          "name": "G3",
          "ticks": 4920,
          "time": 4.522054,
          "velocity": 0.6299212598425197
        },
        {
          "duration": 0.10937488333333345,
          "durationTicks": 119,
          "midi": 55,
          "name": "G3",
          "ticks": 5040,
          "time": 4.632348,
          "velocity": 0.6299212598425197
        },
        {
          "duration": 0.10937488333333345,
          "durationTicks": 119,
          "midi": 55,
          "name": "G3",
          "ticks": 5160,
          "time": 4.742642,
          "velocity": 0.6299212598425197
        },
        {
          "duration": 0.10937488333333345,
          "durationTicks": 119,
          "midi": 55,
          "name": "G3",
          "ticks": 5520,
          "time": 5.073524,
          "velocity": 0.6299212598425197
        },
        {
          "duration": 0.10937488333333345,
          "durationTicks": 119,
          "midi": 55,
          "name": "G3",
          "ticks": 5640,
          "time": 5.1838180000000005,
          "velocity": 0.6299212598425197
        },
        {
          "duration": 0.10937488333333345,
          "durationTicks": 119,
          "midi": 55,
          "name": "G3",
          "ticks": 5760,
          "time": 5.294112,
          "velocity": 0.6299212598425197
        },
        {
          "duration": 0.10937488333333345,
          "durationTicks": 119,
          "midi": 55,
          "name": "G3",
          "ticks": 5880,
          "time": 5.404406,
          "velocity": 0.6299212598425197
        },
        {
          "duration": 0.10937488333333256,
          "durationTicks": 119,
          "midi": 55,
          "name": "G3",
          "ticks": 6240,
          "time": 5.735288000000001,
          "velocity": 0.6299212598425197
        },
        {
          "duration": 0.10937488333333345,
          "durationTicks": 119,
          "midi": 55,
          "name": "G3",
          "ticks": 6360,
          "time": 5.845582,
          "velocity": 0.6299212598425197
        },
        {
          "duration": 0.10937488333333345,
          "durationTicks": 119,
          "midi": 55,
          "name": "G3",
          "ticks": 6480,
          "time": 5.955876,
          "velocity": 0.6299212598425197
        },
        {
          "duration": 0.10937488333333345,
          "durationTicks": 119,
          "midi": 55,
          "name": "G3",
          "ticks": 6600,
          "time": 6.0661700000000005,
          "velocity": 0.6299212598425197
        },
        {
          "duration": 0.10937488333333345,
          "durationTicks": 119,
          "midi": 59,
          "name": "B3",
          "ticks": 6840,
          "time": 6.286758,
          "velocity": 0.6299212598425197
        },
        {
          "duration": 0.6608448833333336,
          "durationTicks": 719,
          "midi": 61,
          "name": "C#4",
          "ticks": 6960,
          "time": 6.397052,
          "velocity": 0.6299212598425197
        },
        {
          "duration": 0.04319848333333276,
          "durationTicks": 47,
          "midi": 50,
          "name": "D3",
          "ticks": 10320,
          "time": 9.485284,
          "velocity": 0.6299212598425197
        },
        {
          "duration": 0.04319848333333276,
          "durationTicks": 47,
          "midi": 51,
          "name": "D#3",
          "ticks": 10368,
          "time": 9.529401600000002,
          "velocity": 0.6299212598425197
        },
        {
          "duration": 0.04319848333333276,
          "durationTicks": 47,
          "midi": 52,
          "name": "E3",
          "ticks": 10416,
          "time": 9.5735192,
          "velocity": 0.6299212598425197
        },
        {
          "duration": 0.04319848333333276,
          "durationTicks": 47,
          "midi": 53,
          "name": "F3",
          "ticks": 10464,
          "time": 9.617636800000001,
          "velocity": 0.6299212598425197
        },
        {
          "duration": 0.04319848333333276,
          "durationTicks": 47,
          "midi": 54,
          "name": "F#3",
          "ticks": 10512,
          "time": 9.6617544,
          "velocity": 0.6299212598425197
        },
        {
          "duration": 0.29411733333333423,
          "durationTicks": 320,
          "midi": 55,
          "name": "G3",
          "ticks": 10560,
          "time": 9.705872,
          "velocity": 0.7559055118110236
        },
        {
          "duration": 0.29411733333333423,
          "durationTicks": 320,
          "midi": 54,
          "name": "F#3",
          "ticks": 11040,
          "time": 10.147048,
          "velocity": 0.7559055118110236
        },
        {
          "duration": 0.3299628833333319,
          "durationTicks": 359,
          "midi": 52,
          "name": "E3",
          "ticks": 11520,
          "time": 10.588224,
          "velocity": 0.7559055118110236
        },
        {
          "duration": 0.21966888333333223,
          "durationTicks": 239,
          "midi": 50,
          "name": "D3",
          "ticks": 11880,
          "time": 10.919106000000001,
          "velocity": 0.7559055118110236
        },
        {
          "duration": 0.3299628833333319,
          "durationTicks": 359,
          "midi": 50,
          "name": "D3",
          "ticks": 12120,
          "time": 11.139694,
          "velocity": 0.7559055118110236
        },
        {
          "duration": 0.10937488333333256,
          "durationTicks": 119,
          "midi": 55,
          "name": "G3",
          "ticks": 12480,
          "time": 11.470576000000001,
          "velocity": 0.6299212598425197
        },
        {
          "duration": 0.10937488333333256,
          "durationTicks": 119,
          "midi": 55,
          "name": "G3",
          "ticks": 12600,
          "time": 11.58087,
          "velocity": 0.6299212598425197
        },
        {
          "duration": 0.10937488333333256,
          "durationTicks": 119,
          "midi": 55,
          "name": "G3",
          "ticks": 12720,
          "time": 11.691164,
          "velocity": 0.6299212598425197
        },
        {
          "duration": 0.10937488333333256,
          "durationTicks": 119,
          "midi": 55,
          "name": "G3",
          "ticks": 12840,
          "time": 11.801458,
          "velocity": 0.6299212598425197
        },
        {
          "duration": 0.10937488333333256,
          "durationTicks": 119,
          "midi": 55,
          "name": "G3",
          "ticks": 13200,
          "time": 12.132340000000001,
          "velocity": 0.6299212598425197
        },
        {
          "duration": 0.10937488333333256,
          "durationTicks": 119,
          "midi": 55,
          "name": "G3",
          "ticks": 13320,
          "time": 12.242634,
          "velocity": 0.6299212598425197
        },
        {
          "duration": 0.10937488333333256,
          "durationTicks": 119,
          "midi": 55,
          "name": "G3",
          "ticks": 13440,
          "time": 12.352928,
          "velocity": 0.6299212598425197
        },
        {
          "duration": 0.10937488333333256,
          "durationTicks": 119,
          "midi": 55,
          "name": "G3",
          "ticks": 13560,
          "time": 12.463222,
          "velocity": 0.6299212598425197
        },
        {
          "duration": 0.10937488333333256,
          "durationTicks": 119,
          "midi": 55,
          "name": "G3",
          "ticks": 13920,
          "time": 12.794104,
          "velocity": 0.6299212598425197
        },
        {
          "duration": 0.10937488333333256,
          "durationTicks": 119,
          "midi": 55,
          "name": "G3",
          "ticks": 14040,
          "time": 12.904398,
          "velocity": 0.6299212598425197
        },
        {
          "duration": 0.10937488333333256,
          "durationTicks": 119,
          "midi": 55,
          "name": "G3",
          "ticks": 14160,
          "time": 13.014692,
          "velocity": 0.6299212598425197
        },
        {
          "duration": 0.10937488333333256,
          "durationTicks": 119,
          "midi": 55,
          "name": "G3",
          "ticks": 14280,
          "time": 13.124986,
          "velocity": 0.6299212598425197
        },
        {
          "duration": 0.10937488333333256,
          "durationTicks": 119,
          "midi": 62,
          "name": "D4",
          "ticks": 14520,
          "time": 13.345574000000001,
          "velocity": 0.6299212598425197
        },
        {
          "duration": 1.1020208833333331,
          "durationTicks": 1199,
          "midi": 64,
          "name": "E4",
          "ticks": 14640,
          "time": 13.455868,
          "velocity": 0.6299212598425197
        },
        {
          "duration": 0.219668883333334,
          "durationTicks": 239,
          "midi": 57,
          "name": "A3",
          "ticks": 20160,
          "time": 18.529392,
          "velocity": 0.7559055118110236
        },
        {
          "duration": 0.219668883333334,
          "durationTicks": 239,
          "midi": 57,
          "name": "A3",
          "ticks": 20400,
          "time": 18.74998,
          "velocity": 0.7559055118110236
        },
        {
          "duration": 0.219668883333334,
          "durationTicks": 239,
          "midi": 57,
          "name": "A3",
          "ticks": 20640,
          "time": 18.970568,
          "velocity": 0.7559055118110236
        },
        {
          "duration": 0.219668883333334,
          "durationTicks": 239,
          "midi": 55,
          "name": "G3",
          "ticks": 20880,
          "time": 19.191156,
          "velocity": 0.7559055118110236
        },
        {
          "duration": 0.219668883333334,
          "durationTicks": 239,
          "midi": 59,
          "name": "B3",
          "ticks": 21360,
          "time": 19.632332,
          "velocity": 0.7559055118110236
        },
        {
          "duration": 0.219668883333334,
          "durationTicks": 239,
          "midi": 59,
          "name": "B3",
          "ticks": 21600,
          "time": 19.85292,
          "velocity": 0.7559055118110236
        },
        {
          "duration": 0.219668883333334,
          "durationTicks": 239,
          "midi": 59,
          "name": "B3",
          "ticks": 21840,
          "time": 20.073508,
          "velocity": 0.7559055118110236
        },
        {
          "duration": 0.219668883333334,
          "durationTicks": 239,
          "midi": 57,
          "name": "A3",
          "ticks": 22080,
          "time": 20.294096,
          "velocity": 0.7559055118110236
        },
        {
          "duration": 0.219668883333334,
          "durationTicks": 239,
          "midi": 57,
          "name": "A3",
          "ticks": 22320,
          "time": 20.514684,
          "velocity": 0.7559055118110236
        },
        {
          "duration": 0.219668883333334,
          "durationTicks": 239,
          "midi": 57,
          "name": "A3",
          "ticks": 22560,
          "time": 20.735272000000002,
          "velocity": 0.7559055118110236
        },
        {
          "duration": 0.219668883333334,
          "durationTicks": 239,
          "midi": 55,
          "name": "G3",
          "ticks": 22800,
          "time": 20.95586,
          "velocity": 0.7559055118110236
        },
        {
          "duration": 0.10937488333333434,
          "durationTicks": 119,
          "midi": 55,
          "name": "G3",
          "ticks": 23760,
          "time": 21.838212000000002,
          "velocity": 0.7559055118110236
        },
        {
          "duration": 0.10937488333333434,
          "durationTicks": 119,
          "midi": 55,
          "name": "G3",
          "ticks": 23880,
          "time": 21.948506000000002,
          "velocity": 0.7559055118110236
        },
        {
          "duration": 0.219668883333334,
          "durationTicks": 239,
          "midi": 57,
          "name": "A3",
          "ticks": 24000,
          "time": 22.0588,
          "velocity": 0.7559055118110236
        },
        {
          "duration": 0.219668883333334,
          "durationTicks": 239,
          "midi": 57,
          "name": "A3",
          "ticks": 24240,
          "time": 22.279388,
          "velocity": 0.7559055118110236
        },
        {
          "duration": 0.219668883333334,
          "durationTicks": 239,
          "midi": 57,
          "name": "A3",
          "ticks": 24480,
          "time": 22.499976,
          "velocity": 0.7559055118110236
        },
        {
          "duration": 0.219668883333334,
          "durationTicks": 239,
          "midi": 55,
          "name": "G3",
          "ticks": 24720,
          "time": 22.720564,
          "velocity": 0.7559055118110236
        },
        {
          "duration": 0.219668883333334,
          "durationTicks": 239,
          "midi": 59,
          "name": "B3",
          "ticks": 25200,
          "time": 23.16174,
          "velocity": 0.7559055118110236
        },
        {
          "duration": 0.219668883333334,
          "durationTicks": 239,
          "midi": 59,
          "name": "B3",
          "ticks": 25440,
          "time": 23.382328,
          "velocity": 0.7559055118110236
        },
        {
          "duration": 0.219668883333334,
          "durationTicks": 239,
          "midi": 59,
          "name": "B3",
          "ticks": 25680,
          "time": 23.602916,
          "velocity": 0.7559055118110236
        },
        {
          "duration": 0.219668883333334,
          "durationTicks": 239,
          "midi": 57,
          "name": "A3",
          "ticks": 25920,
          "time": 23.823504,
          "velocity": 0.7559055118110236
        },
        {
          "duration": 0.4402568833333369,
          "durationTicks": 479,
          "midi": 59,
          "name": "B3",
          "ticks": 26160,
          "time": 24.044092,
          "velocity": 0.7559055118110236
        },
        {
          "duration": 0.6608448833333327,
          "durationTicks": 719,
          "midi": 59,
          "name": "B3",
          "ticks": 26640,
          "time": 24.485268,
          "velocity": 0.7559055118110236
        },
        {
          "duration": 0.219668883333334,
          "durationTicks": 239,
          "midi": 55,
          "name": "G3",
          "ticks": 27600,
          "time": 25.367620000000002,
          "velocity": 0.7559055118110236
        },
        {
          "duration": 0.219668883333334,
          "durationTicks": 239,
          "midi": 57,
          "name": "A3",
          "ticks": 27840,
          "time": 25.588208,
          "velocity": 0.7559055118110236
        },
        {
          "duration": 0.219668883333334,
          "durationTicks": 239,
          "midi": 57,
          "name": "A3",
          "ticks": 28080,
          "time": 25.808796,
          "velocity": 0.7559055118110236
        },
        {
          "duration": 0.219668883333334,
          "durationTicks": 239,
          "midi": 57,
          "name": "A3",
          "ticks": 28320,
          "time": 26.029384,
          "velocity": 0.7559055118110236
        },
        {
          "duration": 0.219668883333334,
          "durationTicks": 239,
          "midi": 55,
          "name": "G3",
          "ticks": 28560,
          "time": 26.249972,
          "velocity": 0.7559055118110236
        },
        {
          "duration": 0.219668883333334,
          "durationTicks": 239,
          "midi": 62,
          "name": "D4",
          "ticks": 29040,
          "time": 26.691148000000002,
          "velocity": 0.7559055118110236
        },
        {
          "duration": 0.219668883333334,
          "durationTicks": 239,
          "midi": 62,
          "name": "D4",
          "ticks": 29280,
          "time": 26.911736,
          "velocity": 0.7559055118110236
        },
        {
          "duration": 0.44025688333333335,
          "durationTicks": 479,
          "midi": 62,
          "name": "D4",
          "ticks": 29520,
          "time": 27.132324,
          "velocity": 0.7559055118110236
        },
        {
          "duration": 0.219668883333334,
          "durationTicks": 239,
          "midi": 55,
          "name": "G3",
          "ticks": 30000,
          "time": 27.5735,
          "velocity": 0.7559055118110236
        },
        {
          "duration": 0.219668883333334,
          "durationTicks": 239,
          "midi": 55,
          "name": "G3",
          "ticks": 30240,
          "time": 27.794088000000002,
          "velocity": 0.7559055118110236
        },
        {
          "duration": 0.219668883333334,
          "durationTicks": 239,
          "midi": 55,
          "name": "G3",
          "ticks": 30480,
          "time": 28.014676,
          "velocity": 0.7559055118110236
        },
        {
          "duration": 0.219668883333334,
          "durationTicks": 239,
          "midi": 54,
          "name": "F#3",
          "ticks": 30720,
          "time": 28.235264,
          "velocity": 0.7559055118110236
        },
        {
          "duration": 0.219668883333334,
          "durationTicks": 239,
          "midi": 55,
          "name": "G3",
          "ticks": 30960,
          "time": 28.455852,
          "velocity": 0.7559055118110236
        },
        {
          "duration": 0.219668883333334,
          "durationTicks": 239,
          "midi": 54,
          "name": "F#3",
          "ticks": 31200,
          "time": 28.67644,
          "velocity": 0.7559055118110236
        },
        {
          "duration": 0.219668883333334,
          "durationTicks": 239,
          "midi": 50,
          "name": "D3",
          "ticks": 31440,
          "time": 28.897028000000002,
          "velocity": 0.7559055118110236
        },
        {
          "duration": 0.881432883333332,
          "durationTicks": 959,
          "midi": 52,
          "name": "E3",
          "ticks": 31680,
          "time": 29.117616,
          "velocity": 0.7559055118110236
        },
        {
          "duration": 0.219668883333334,
          "durationTicks": 239,
          "midi": 52,
          "name": "E3",
          "ticks": 32880,
          "time": 30.220556000000002,
          "velocity": 0.7559055118110236
        },
        {
          "duration": 0.219668883333334,
          "durationTicks": 239,
          "midi": 59,
          "name": "B3",
          "ticks": 33120,
          "time": 30.441144,
          "velocity": 0.7559055118110236
        },
        {
          "duration": 1.102020883333335,
          "durationTicks": 1199,
          "midi": 59,
          "name": "B3",
          "ticks": 33360,
          "time": 30.661732,
          "velocity": 0.7559055118110236
        },
        {
          "duration": 0.219668883333334,
          "durationTicks": 239,
          "midi": 54,
          "name": "F#3",
          "ticks": 35520,
          "time": 32.647024,
          "velocity": 0.6299212598425197
        },
        {
          "duration": 0.219668883333334,
          "durationTicks": 239,
          "midi": 54,
          "name": "F#3",
          "ticks": 35760,
          "time": 32.867612,
          "velocity": 0.6299212598425197
        },
        {
          "duration": 0.219668883333334,
          "durationTicks": 239,
          "midi": 54,
          "name": "F#3",
          "ticks": 36000,
          "time": 33.0882,
          "velocity": 0.6299212598425197
        },
        {
          "duration": 0.219668883333334,
          "durationTicks": 239,
          "midi": 50,
          "name": "D3",
          "ticks": 36240,
          "time": 33.308788,
          "velocity": 0.6299212598425197
        },
        {
          "duration": 0.219668883333334,
          "durationTicks": 239,
          "midi": 54,
          "name": "F#3",
          "ticks": 36480,
          "time": 33.529376,
          "velocity": 0.6299212598425197
        },
        {
          "duration": 0.219668883333334,
          "durationTicks": 239,
          "midi": 55,
          "name": "G3",
          "ticks": 36720,
          "time": 33.749964,
          "velocity": 0.6299212598425197
        },
        {
          "duration": 0.219668883333334,
          "durationTicks": 239,
          "midi": 55,
          "name": "G3",
          "ticks": 36960,
          "time": 33.970552,
          "velocity": 0.6299212598425197
        },
        {
          "duration": 0.219668883333334,
          "durationTicks": 239,
          "midi": 55,
          "name": "G3",
          "ticks": 39120,
          "time": 35.955844,
          "velocity": 0.6299212598425197
        },
        {
          "duration": 0.219668883333334,
          "durationTicks": 239,
          "midi": 54,
          "name": "F#3",
          "ticks": 39360,
          "time": 36.176432,
          "velocity": 0.6299212598425197
        },
        {
          "duration": 0.219668883333334,
          "durationTicks": 239,
          "midi": 54,
          "name": "F#3",
          "ticks": 39600,
          "time": 36.39702,
          "velocity": 0.6299212598425197
        },
        {
          "duration": 0.219668883333334,
          "durationTicks": 239,
          "midi": 54,
          "name": "F#3",
          "ticks": 39840,
          "time": 36.617608000000004,
          "velocity": 0.6299212598425197
        },
        {
          "duration": 0.219668883333334,
          "durationTicks": 239,
          "midi": 50,
          "name": "D3",
          "ticks": 40080,
          "time": 36.838196,
          "velocity": 0.6299212598425197
        },
        {
          "duration": 0.219668883333334,
          "durationTicks": 239,
          "midi": 57,
          "name": "A3",
          "ticks": 40320,
          "time": 37.058784,
          "velocity": 0.6299212598425197
        },
        {
          "duration": 0.219668883333334,
          "durationTicks": 239,
          "midi": 55,
          "name": "G3",
          "ticks": 40560,
          "time": 37.279372,
          "velocity": 0.6299212598425197
        },
        {
          "duration": 0.219668883333334,
          "durationTicks": 239,
          "midi": 55,
          "name": "G3",
          "ticks": 40800,
          "time": 37.49996,
          "velocity": 0.6299212598425197
        },
        {
          "duration": 0.219668883333334,
          "durationTicks": 239,
          "midi": 55,
          "name": "G3",
          "ticks": 42960,
          "time": 39.485252,
          "velocity": 0.6299212598425197
        },
        {
          "duration": 0.219668883333334,
          "durationTicks": 239,
          "midi": 54,
          "name": "F#3",
          "ticks": 43200,
          "time": 39.70584,
          "velocity": 0.6299212598425197
        },
        {
          "duration": 0.219668883333334,
          "durationTicks": 239,
          "midi": 54,
          "name": "F#3",
          "ticks": 43440,
          "time": 39.926428,
          "velocity": 0.6299212598425197
        },
        {
          "duration": 0.219668883333334,
          "durationTicks": 239,
          "midi": 54,
          "name": "F#3",
          "ticks": 43680,
          "time": 40.147016,
          "velocity": 0.6299212598425197
        },
        {
          "duration": 0.219668883333334,
          "durationTicks": 239,
          "midi": 50,
          "name": "D3",
          "ticks": 43920,
          "time": 40.367604,
          "velocity": 0.6299212598425197
        },
        {
          "duration": 0.219668883333334,
          "durationTicks": 239,
          "midi": 54,
          "name": "F#3",
          "ticks": 44160,
          "time": 40.588192,
          "velocity": 0.6299212598425197
        },
        {
          "duration": 0.219668883333334,
          "durationTicks": 239,
          "midi": 55,
          "name": "G3",
          "ticks": 44400,
          "time": 40.80878,
          "velocity": 0.6299212598425197
        },
        {
          "duration": 0.6608448833333327,
          "durationTicks": 719,
          "midi": 62,
          "name": "D4",
          "ticks": 44880,
          "time": 41.249956000000005,
          "velocity": 0.7559055118110236
        },
        {
          "duration": 0.44025688333333335,
          "durationTicks": 479,
          "midi": 60,
          "name": "C4",
          "ticks": 45600,
          "time": 41.91172,
          "velocity": 0.6299212598425197
        },
        {
          "duration": 0.44025688333333335,
          "durationTicks": 479,
          "midi": 59,
          "name": "B3",
          "ticks": 46080,
          "time": 42.352896,
          "velocity": 0.6299212598425197
        },
        {
          "duration": 0.44025688333333335,
          "durationTicks": 479,
          "midi": 62,
          "name": "D4",
          "ticks": 50640,
          "time": 46.544068,
          "velocity": 0.6299212598425197
        },
        {
          "duration": 0.10937488333333079,
          "durationTicks": 119,
          "midi": 62,
          "name": "D4",
          "ticks": 51120,
          "time": 46.985244,
          "velocity": 0.6299212598425197
        },
        {
          "duration": 0.10937488333333789,
          "durationTicks": 119,
          "midi": 62,
          "name": "D4",
          "ticks": 51360,
          "time": 47.205832,
          "velocity": 0.6299212598425197
        },
        {
          "duration": 0.10937488333333789,
          "durationTicks": 119,
          "midi": 62,
          "name": "D4",
          "ticks": 51600,
          "time": 47.42642,
          "velocity": 0.6299212598425197
        },
        {
          "duration": 0.219668883333334,
          "durationTicks": 239,
          "midi": 64,
          "name": "E4",
          "ticks": 51840,
          "time": 47.647008,
          "velocity": 0.7559055118110236
        },
        {
          "duration": 0.44025688333333335,
          "durationTicks": 479,
          "midi": 67,
          "name": "G4",
          "ticks": 53280,
          "time": 48.970536,
          "velocity": 0.905511811023622
        },
        {
          "duration": 0.10937488333333789,
          "durationTicks": 119,
          "midi": 62,
          "name": "D4",
          "ticks": 54000,
          "time": 49.6323,
          "velocity": 0.7559055118110236
        },
        {
          "duration": 0.219668883333334,
          "durationTicks": 239,
          "midi": 66,
          "name": "F#4",
          "ticks": 54240,
          "time": 49.852888,
          "velocity": 0.7559055118110236
        },
        {
          "duration": 0.219668883333334,
          "durationTicks": 239,
          "midi": 67,
          "name": "G4",
          "ticks": 54480,
          "time": 50.073476,
          "velocity": 0.7559055118110236
        },
        {
          "duration": 0.219668883333334,
          "durationTicks": 239,
          "midi": 66,
          "name": "F#4",
          "ticks": 54720,
          "time": 50.294064,
          "velocity": 0.7559055118110236
        },
        {
          "duration": 0.219668883333334,
          "durationTicks": 239,
          "midi": 67,
          "name": "G4",
          "ticks": 54960,
          "time": 50.514652,
          "velocity": 0.7559055118110236
        },
        {
          "duration": 0.6608448833333327,
          "durationTicks": 719,
          "midi": 67,
          "name": "G4",
          "ticks": 55440,
          "time": 50.955828000000004,
          "velocity": 0.905511811023622
        },
        {
          "duration": 0.219668883333334,
          "durationTicks": 239,
          "midi": 66,
          "name": "F#4",
          "ticks": 56160,
          "time": 51.617592,
          "velocity": 0.7559055118110236
        },
        {
          "duration": 0.219668883333334,
          "durationTicks": 239,
          "midi": 67,
          "name": "G4",
          "ticks": 56400,
          "time": 51.83818,
          "velocity": 0.7559055118110236
        },
        {
          "duration": 0.219668883333334,
          "durationTicks": 239,
          "midi": 55,
          "name": "G3",
          "ticks": 58080,
          "time": 53.382296000000004,
          "velocity": 0.7559055118110236
        },
        {
          "duration": 0.10937488333333079,
          "durationTicks": 119,
          "midi": 54,
          "name": "F#3",
          "ticks": 58320,
          "time": 53.602884,
          "velocity": 0.7559055118110236
        },
        {
          "duration": 0.219668883333334,
          "durationTicks": 239,
          "midi": 53,
          "name": "F3",
          "ticks": 58560,
          "time": 53.823472,
          "velocity": 0.7559055118110236
        },
        {
          "duration": 0.219668883333334,
          "durationTicks": 239,
          "midi": 55,
          "name": "G3",
          "ticks": 58800,
          "time": 54.04406,
          "velocity": 0.7559055118110236
        },
        {
          "duration": 0.10937488333333789,
          "durationTicks": 119,
          "midi": 57,
          "name": "A3",
          "ticks": 59040,
          "time": 54.264648,
          "velocity": 0.7559055118110236
        },
        {
          "duration": 0.44025688333333335,
          "durationTicks": 479,
          "midi": 59,
          "name": "B3",
          "ticks": 59280,
          "time": 54.485236,
          "velocity": 0.7559055118110236
        },
        {
          "duration": 0.10937488333333789,
          "durationTicks": 119,
          "midi": 57,
          "name": "A3",
          "ticks": 59760,
          "time": 54.926412,
          "velocity": 0.7559055118110236
        },
        {
          "duration": 0.44025688333334045,
          "durationTicks": 479,
          "midi": 55,
          "name": "G3",
          "ticks": 60000,
          "time": 55.147,
          "velocity": 0.7559055118110236
        },
        {
          "duration": 0.219668883333334,
          "durationTicks": 239,
          "midi": 50,
          "name": "D3",
          "ticks": 61200,
          "time": 56.24994,
          "velocity": 0.7559055118110236
        },
        {
          "duration": 0.219668883333334,
          "durationTicks": 239,
          "midi": 52,
          "name": "E3",
          "ticks": 61440,
          "time": 56.470528,
          "velocity": 0.7559055118110236
        },
        {
          "duration": 0.219668883333334,
          "durationTicks": 239,
          "midi": 54,
          "name": "F#3",
          "ticks": 61680,
          "time": 56.691116,
          "velocity": 0.7559055118110236
        },
        {
          "duration": 0.219668883333334,
          "durationTicks": 239,
          "midi": 55,
          "name": "G3",
          "ticks": 61920,
          "time": 56.911704,
          "velocity": 0.7559055118110236
        },
        {
          "duration": 0.219668883333334,
          "durationTicks": 239,
          "midi": 57,
          "name": "A3",
          "ticks": 62160,
          "time": 57.132292,
          "velocity": 0.7559055118110236
        },
        {
          "duration": 0.219668883333334,
          "durationTicks": 239,
          "midi": 55,
          "name": "G3",
          "ticks": 62640,
          "time": 57.573468,
          "velocity": 0.7559055118110236
        },
        {
          "duration": 0.219668883333334,
          "durationTicks": 239,
          "midi": 54,
          "name": "F#3",
          "ticks": 62880,
          "time": 57.794056000000005,
          "velocity": 0.7559055118110236
        },
        {
          "duration": 0.44025688333333335,
          "durationTicks": 479,
          "midi": 55,
          "name": "G3",
          "ticks": 63120,
          "time": 58.014644000000004,
          "velocity": 0.7559055118110236
        },
        {
          "duration": 0.219668883333334,
          "durationTicks": 239,
          "midi": 54,
          "name": "F#3",
          "ticks": 63600,
          "time": 58.45582,
          "velocity": 0.7559055118110236
        },
        {
          "duration": 0.219668883333334,
          "durationTicks": 239,
          "midi": 52,
          "name": "E3",
          "ticks": 63840,
          "time": 58.676408,
          "velocity": 0.7559055118110236
        },
        {
          "duration": 0.219668883333334,
          "durationTicks": 239,
          "midi": 50,
          "name": "D3",
          "ticks": 64080,
          "time": 58.896996,
          "velocity": 0.7559055118110236
        },
        {
          "duration": 0.44025688333333335,
          "durationTicks": 479,
          "midi": 57,
          "name": "A3",
          "ticks": 64320,
          "time": 59.117584,
          "velocity": 0.7559055118110236
        },
        {
          "duration": 0.44025688333333335,
          "durationTicks": 479,
          "midi": 59,
          "name": "B3",
          "ticks": 64800,
          "time": 59.55876,
          "velocity": 0.7559055118110236
        },
        {
          "duration": 0.44025688333333335,
          "durationTicks": 479,
          "midi": 60,
          "name": "C4",
          "ticks": 65280,
          "time": 59.999936000000005,
          "velocity": 0.7559055118110236
        },
        {
          "duration": 0.44025688333333335,
          "durationTicks": 479,
          "midi": 57,
          "name": "A3",
          "ticks": 65760,
          "time": 60.441112000000004,
          "velocity": 0.7559055118110236
        },
        {
          "duration": 0.881432883333332,
          "durationTicks": 959,
          "midi": 55,
          "name": "G3",
          "ticks": 66240,
          "time": 60.882288,
          "velocity": 0.7559055118110236
        },
        {
          "duration": 0.6608448833333327,
          "durationTicks": 719,
          "midi": 54,
          "name": "F#3",
          "ticks": 67200,
          "time": 61.76464,
          "velocity": 0.7559055118110236
        },
        {
          "duration": 0.881432883333332,
          "durationTicks": 959,
          "midi": 54,
          "name": "F#3",
          "ticks": 67920,
          "time": 62.426404000000005,
          "velocity": 0.7559055118110236
        },
        {
          "duration": 0.6608448833333327,
          "durationTicks": 719,
          "midi": 55,
          "name": "G3",
          "ticks": 68880,
          "time": 63.308756,
          "velocity": 0.7559055118110236
        },
        {
          "duration": 0.44025688333333335,
          "durationTicks": 479,
          "midi": 57,
          "name": "A3",
          "ticks": 69840,
          "time": 64.191108,
          "velocity": 0.7559055118110236
        },
        {
          "duration": 0.21966888333334111,
          "durationTicks": 239,
          "midi": 59,
          "name": "B3",
          "ticks": 70320,
          "time": 64.632284,
          "velocity": 0.7559055118110236
        },
        {
          "duration": 0.2196688833333269,
          "durationTicks": 239,
          "midi": 57,
          "name": "A3",
          "ticks": 70560,
          "time": 64.852872,
          "velocity": 0.7559055118110236
        },
        {
          "duration": 1.1020208833333385,
          "durationTicks": 1199,
          "midi": 60,
          "name": "C4",
          "ticks": 70800,
          "time": 65.07346,
          "velocity": 0.7559055118110236
        },
        {
          "duration": 0.10937488333333079,
          "durationTicks": 119,
          "midi": 55,
          "name": "G3",
          "ticks": 72000,
          "time": 66.1764,
          "velocity": 0.6299212598425197
        },
        {
          "duration": 0.109374883333345,
          "durationTicks": 119,
          "midi": 55,
          "name": "G3",
          "ticks": 72120,
          "time": 66.286694,
          "velocity": 0.6299212598425197
        },
        {
          "duration": 0.10937488333333079,
          "durationTicks": 119,
          "midi": 55,
          "name": "G3",
          "ticks": 72240,
          "time": 66.39698800000001,
          "velocity": 0.6299212598425197
        },
        {
          "duration": 0.10937488333333079,
          "durationTicks": 119,
          "midi": 55,
          "name": "G3",
          "ticks": 72360,
          "time": 66.507282,
          "velocity": 0.6299212598425197
        },
        {
          "duration": 0.10937488333333079,
          "durationTicks": 119,
          "midi": 55,
          "name": "G3",
          "ticks": 72720,
          "time": 66.838164,
          "velocity": 0.6299212598425197
        },
        {
          "duration": 0.10937488333333079,
          "durationTicks": 119,
          "midi": 55,
          "name": "G3",
          "ticks": 72840,
          "time": 66.948458,
          "velocity": 0.6299212598425197
        },
        {
          "duration": 0.10937488333333079,
          "durationTicks": 119,
          "midi": 55,
          "name": "G3",
          "ticks": 72960,
          "time": 67.058752,
          "velocity": 0.6299212598425197
        },
        {
          "duration": 0.10937488333333079,
          "durationTicks": 119,
          "midi": 55,
          "name": "G3",
          "ticks": 73080,
          "time": 67.16904600000001,
          "velocity": 0.6299212598425197
        },
        {
          "duration": 0.109374883333345,
          "durationTicks": 119,
          "midi": 55,
          "name": "G3",
          "ticks": 73440,
          "time": 67.499928,
          "velocity": 0.6299212598425197
        },
        {
          "duration": 0.10937488333333079,
          "durationTicks": 119,
          "midi": 55,
          "name": "G3",
          "ticks": 73560,
          "time": 67.61022200000001,
          "velocity": 0.6299212598425197
        },
        {
          "duration": 0.10937488333333079,
          "durationTicks": 119,
          "midi": 55,
          "name": "G3",
          "ticks": 73680,
          "time": 67.720516,
          "velocity": 0.6299212598425197
        },
        {
          "duration": 0.10937488333333079,
          "durationTicks": 119,
          "midi": 55,
          "name": "G3",
          "ticks": 73800,
          "time": 67.83081,
          "velocity": 0.6299212598425197
        },
        {
          "duration": 0.10937488333333079,
          "durationTicks": 119,
          "midi": 59,
          "name": "B3",
          "ticks": 74040,
          "time": 68.051398,
          "velocity": 0.6299212598425197
        },
        {
          "duration": 0.6608448833333398,
          "durationTicks": 719,
          "midi": 61,
          "name": "C#4",
          "ticks": 74160,
          "time": 68.161692,
          "velocity": 0.6299212598425197
        },
        {
          "duration": 0.04319848333332743,
          "durationTicks": 47,
          "midi": 50,
          "name": "D3",
          "ticks": 77520,
          "time": 71.24992400000001,
          "velocity": 0.6299212598425197
        },
        {
          "duration": 0.04319848333332743,
          "durationTicks": 47,
          "midi": 51,
          "name": "D#3",
          "ticks": 77568,
          "time": 71.2940416,
          "velocity": 0.6299212598425197
        },
        {
          "duration": 0.04319848333334164,
          "durationTicks": 47,
          "midi": 52,
          "name": "E3",
          "ticks": 77616,
          "time": 71.33815919999999,
          "velocity": 0.6299212598425197
        },
        {
          "duration": 0.04319848333332743,
          "durationTicks": 47,
          "midi": 53,
          "name": "F3",
          "ticks": 77664,
          "time": 71.38227680000001,
          "velocity": 0.6299212598425197
        },
        {
          "duration": 0.04319848333332743,
          "durationTicks": 47,
          "midi": 54,
          "name": "F#3",
          "ticks": 77712,
          "time": 71.4263944,
          "velocity": 0.6299212598425197
        },
        {
          "duration": 0.29411733333333245,
          "durationTicks": 320,
          "midi": 55,
          "name": "G3",
          "ticks": 77760,
          "time": 71.470512,
          "velocity": 0.7559055118110236
        },
        {
          "duration": 0.29411733333333245,
          "durationTicks": 320,
          "midi": 54,
          "name": "F#3",
          "ticks": 78240,
          "time": 71.911688,
          "velocity": 0.7559055118110236
        },
        {
          "duration": 0.32996288333333723,
          "durationTicks": 359,
          "midi": 52,
          "name": "E3",
          "ticks": 78720,
          "time": 72.352864,
          "velocity": 0.7559055118110236
        },
        {
          "duration": 0.21966888333334111,
          "durationTicks": 239,
          "midi": 50,
          "name": "D3",
          "ticks": 79080,
          "time": 72.683746,
          "velocity": 0.7559055118110236
        },
        {
          "duration": 0.32996288333333723,
          "durationTicks": 359,
          "midi": 50,
          "name": "D3",
          "ticks": 79320,
          "time": 72.904334,
          "velocity": 0.7559055118110236
        },
        {
          "duration": 0.10937488333333079,
          "durationTicks": 119,
          "midi": 55,
          "name": "G3",
          "ticks": 79680,
          "time": 73.23521600000001,
          "velocity": 0.6299212598425197
        },
        {
          "duration": 0.10937488333333079,
          "durationTicks": 119,
          "midi": 55,
          "name": "G3",
          "ticks": 79800,
          "time": 73.34551,
          "velocity": 0.6299212598425197
        },
        {
          "duration": 0.10937488333333079,
          "durationTicks": 119,
          "midi": 55,
          "name": "G3",
          "ticks": 79920,
          "time": 73.455804,
          "velocity": 0.6299212598425197
        },
        {
          "duration": 0.109374883333345,
          "durationTicks": 119,
          "midi": 55,
          "name": "G3",
          "ticks": 80040,
          "time": 73.566098,
          "velocity": 0.6299212598425197
        },
        {
          "duration": 0.10937488333333079,
          "durationTicks": 119,
          "midi": 55,
          "name": "G3",
          "ticks": 80400,
          "time": 73.89698,
          "velocity": 0.6299212598425197
        },
        {
          "duration": 0.109374883333345,
          "durationTicks": 119,
          "midi": 55,
          "name": "G3",
          "ticks": 80520,
          "time": 74.007274,
          "velocity": 0.6299212598425197
        },
        {
          "duration": 0.10937488333333079,
          "durationTicks": 119,
          "midi": 55,
          "name": "G3",
          "ticks": 80640,
          "time": 74.117568,
          "velocity": 0.6299212598425197
        },
        {
          "duration": 0.10937488333333079,
          "durationTicks": 119,
          "midi": 55,
          "name": "G3",
          "ticks": 80760,
          "time": 74.227862,
          "velocity": 0.6299212598425197
        },
        {
          "duration": 0.10937488333333079,
          "durationTicks": 119,
          "midi": 55,
          "name": "G3",
          "ticks": 81120,
          "time": 74.558744,
          "velocity": 0.6299212598425197
        },
        {
          "duration": 0.10937488333333079,
          "durationTicks": 119,
          "midi": 55,
          "name": "G3",
          "ticks": 81240,
          "time": 74.669038,
          "velocity": 0.6299212598425197
        },
        {
          "duration": 0.109374883333345,
          "durationTicks": 119,
          "midi": 55,
          "name": "G3",
          "ticks": 81360,
          "time": 74.779332,
          "velocity": 0.6299212598425197
        },
        {
          "duration": 0.10937488333333079,
          "durationTicks": 119,
          "midi": 55,
          "name": "G3",
          "ticks": 81480,
          "time": 74.889626,
          "velocity": 0.6299212598425197
        },
        {
          "duration": 0.10937488333333079,
          "durationTicks": 119,
          "midi": 62,
          "name": "D4",
          "ticks": 81720,
          "time": 75.110214,
          "velocity": 0.6299212598425197
        },
        {
          "duration": 1.1020208833333385,
          "durationTicks": 1199,
          "midi": 64,
          "name": "E4",
          "ticks": 81840,
          "time": 75.220508,
          "velocity": 0.6299212598425197
        },
        {
          "duration": 0.10937488333333079,
          "durationTicks": 119,
          "midi": 57,
          "name": "A3",
          "ticks": 87120,
          "time": 80.07344400000001,
          "velocity": 0.7559055118110236
        },
        {
          "duration": 0.10937488333333079,
          "durationTicks": 119,
          "midi": 57,
          "name": "A3",
          "ticks": 87240,
          "time": 80.183738,
          "velocity": 0.7559055118110236
        },
        {
          "duration": 0.21966888333334111,
          "durationTicks": 239,
          "midi": 57,
          "name": "A3",
          "ticks": 87360,
          "time": 80.294032,
          "velocity": 0.7559055118110236
        },
        {
          "duration": 0.2196688833333269,
          "durationTicks": 239,
          "midi": 57,
          "name": "A3",
          "ticks": 87600,
          "time": 80.51462000000001,
          "velocity": 0.7559055118110236
        },
        {
          "duration": 0.21966888333334111,
          "durationTicks": 239,
          "midi": 57,
          "name": "A3",
          "ticks": 87840,
          "time": 80.735208,
          "velocity": 0.7559055118110236
        },
        {
          "duration": 0.2196688833333269,
          "durationTicks": 239,
          "midi": 55,
          "name": "G3",
          "ticks": 88080,
          "time": 80.955796,
          "velocity": 0.7559055118110236
        },
        {
          "duration": 0.2196688833333269,
          "durationTicks": 239,
          "midi": 59,
          "name": "B3",
          "ticks": 88560,
          "time": 81.396972,
          "velocity": 0.7559055118110236
        },
        {
          "duration": 0.21966888333334111,
          "durationTicks": 239,
          "midi": 59,
          "name": "B3",
          "ticks": 88800,
          "time": 81.61756,
          "velocity": 0.7559055118110236
        },
        {
          "duration": 0.2196688833333269,
          "durationTicks": 239,
          "midi": 59,
          "name": "B3",
          "ticks": 89040,
          "time": 81.838148,
          "velocity": 0.7559055118110236
        },
        {
          "duration": 0.44025688333333335,
          "durationTicks": 479,
          "midi": 57,
          "name": "A3",
          "ticks": 89280,
          "time": 82.058736,
          "velocity": 0.7559055118110236
        },
        {
          "duration": 0.2196688833333269,
          "durationTicks": 239,
          "midi": 57,
          "name": "A3",
          "ticks": 89760,
          "time": 82.49991200000001,
          "velocity": 0.7559055118110236
        },
        {
          "duration": 0.21966888333334111,
          "durationTicks": 239,
          "midi": 55,
          "name": "G3",
          "ticks": 90000,
          "time": 82.7205,
          "velocity": 0.7559055118110236
        },
        {
          "duration": 0.109374883333345,
          "durationTicks": 119,
          "midi": 55,
          "name": "G3",
          "ticks": 90960,
          "time": 83.602852,
          "velocity": 0.7559055118110236
        },
        {
          "duration": 0.10937488333333079,
          "durationTicks": 119,
          "midi": 55,
          "name": "G3",
          "ticks": 91080,
          "time": 83.71314600000001,
          "velocity": 0.7559055118110236
        },
        {
          "duration": 0.2196688833333269,
          "durationTicks": 239,
          "midi": 57,
          "name": "A3",
          "ticks": 91200,
          "time": 83.82344,
          "velocity": 0.7559055118110236
        },
        {
          "duration": 0.21966888333334111,
          "durationTicks": 239,
          "midi": 57,
          "name": "A3",
          "ticks": 91440,
          "time": 84.044028,
          "velocity": 0.7559055118110236
        },
        {
          "duration": 0.2196688833333269,
          "durationTicks": 239,
          "midi": 57,
          "name": "A3",
          "ticks": 91680,
          "time": 84.264616,
          "velocity": 0.7559055118110236
        },
        {
          "duration": 0.21966888333334111,
          "durationTicks": 239,
          "midi": 55,
          "name": "G3",
          "ticks": 91920,
          "time": 84.485204,
          "velocity": 0.7559055118110236
        },
        {
          "duration": 0.10937488333333079,
          "durationTicks": 119,
          "midi": 59,
          "name": "B3",
          "ticks": 92400,
          "time": 84.92638000000001,
          "velocity": 0.7559055118110236
        },
        {
          "duration": 0.10937488333333079,
          "durationTicks": 119,
          "midi": 59,
          "name": "B3",
          "ticks": 92520,
          "time": 85.036674,
          "velocity": 0.7559055118110236
        },
        {
          "duration": 0.21966888333334111,
          "durationTicks": 239,
          "midi": 59,
          "name": "B3",
          "ticks": 92640,
          "time": 85.146968,
          "velocity": 0.7559055118110236
        },
        {
          "duration": 0.2196688833333269,
          "durationTicks": 239,
          "midi": 59,
          "name": "B3",
          "ticks": 92880,
          "time": 85.36755600000001,
          "velocity": 0.7559055118110236
        },
        {
          "duration": 0.21966888333334111,
          "durationTicks": 239,
          "midi": 57,
          "name": "A3",
          "ticks": 93120,
          "time": 85.588144,
          "velocity": 0.7559055118110236
        },
        {
          "duration": 0.44025688333333335,
          "durationTicks": 479,
          "midi": 59,
          "name": "B3",
          "ticks": 93360,
          "time": 85.808732,
          "velocity": 0.7559055118110236
        },
        {
          "duration": 0.6608448833333256,
          "durationTicks": 719,
          "midi": 59,
          "name": "B3",
          "ticks": 93840,
          "time": 86.249908,
          "velocity": 0.7559055118110236
        },
        {
          "duration": 0.21966888333334111,
          "durationTicks": 239,
          "midi": 57,
          "name": "A3",
          "ticks": 94800,
          "time": 87.13226,
          "velocity": 0.7559055118110236
        },
        {
          "duration": 0.2196688833333269,
          "durationTicks": 239,
          "midi": 59,
          "name": "B3",
          "ticks": 95040,
          "time": 87.35284800000001,
          "velocity": 0.7559055118110236
        },
        {
          "duration": 0.21966888333334111,
          "durationTicks": 239,
          "midi": 59,
          "name": "B3",
          "ticks": 95280,
          "time": 87.573436,
          "velocity": 0.7559055118110236
        },
        {
          "duration": 0.2196688833333269,
          "durationTicks": 239,
          "midi": 59,
          "name": "B3",
          "ticks": 95520,
          "time": 87.79402400000001,
          "velocity": 0.7559055118110236
        },
        {
          "duration": 0.21966888333334111,
          "durationTicks": 239,
          "midi": 55,
          "name": "G3",
          "ticks": 95760,
          "time": 88.014612,
          "velocity": 0.7559055118110236
        },
        {
          "duration": 0.21966888333334111,
          "durationTicks": 239,
          "midi": 62,
          "name": "D4",
          "ticks": 96240,
          "time": 88.455788,
          "velocity": 0.7559055118110236
        },
        {
          "duration": 0.2196688833333269,
          "durationTicks": 239,
          "midi": 62,
          "name": "D4",
          "ticks": 96480,
          "time": 88.676376,
          "velocity": 0.7559055118110236
        },
        {
          "duration": 0.44025688333333335,
          "durationTicks": 479,
          "midi": 62,
          "name": "D4",
          "ticks": 96720,
          "time": 88.896964,
          "velocity": 0.7559055118110236
        },
        {
          "duration": 0.21966888333334111,
          "durationTicks": 239,
          "midi": 55,
          "name": "G3",
          "ticks": 97200,
          "time": 89.33814,
          "velocity": 0.7559055118110236
        },
        {
          "duration": 0.21966888333334111,
          "durationTicks": 239,
          "midi": 55,
          "name": "G3",
          "ticks": 97440,
          "time": 89.558728,
          "velocity": 0.7559055118110236
        },
        {
          "duration": 0.2196688833333269,
          "durationTicks": 239,
          "midi": 55,
          "name": "G3",
          "ticks": 97680,
          "time": 89.77931600000001,
          "velocity": 0.7559055118110236
        },
        {
          "duration": 0.21966888333334111,
          "durationTicks": 239,
          "midi": 54,
          "name": "F#3",
          "ticks": 97920,
          "time": 89.999904,
          "velocity": 0.7559055118110236
        },
        {
          "duration": 0.2196688833333269,
          "durationTicks": 239,
          "midi": 55,
          "name": "G3",
          "ticks": 98160,
          "time": 90.22049200000001,
          "velocity": 0.7559055118110236
        },
        {
          "duration": 0.21966888333334111,
          "durationTicks": 239,
          "midi": 54,
          "name": "F#3",
          "ticks": 98400,
          "time": 90.44108,
          "velocity": 0.7559055118110236
        },
        {
          "duration": 0.2196688833333269,
          "durationTicks": 239,
          "midi": 50,
          "name": "D3",
          "ticks": 98640,
          "time": 90.661668,
          "velocity": 0.7559055118110236
        },
        {
          "duration": 0.881432883333332,
          "durationTicks": 959,
          "midi": 52,
          "name": "E3",
          "ticks": 98880,
          "time": 90.882256,
          "velocity": 0.7559055118110236
        },
        {
          "duration": 0.21966888333334111,
          "durationTicks": 239,
          "midi": 52,
          "name": "E3",
          "ticks": 100080,
          "time": 91.985196,
          "velocity": 0.7559055118110236
        },
        {
          "duration": 0.2196688833333269,
          "durationTicks": 239,
          "midi": 59,
          "name": "B3",
          "ticks": 100320,
          "time": 92.20578400000001,
          "velocity": 0.7559055118110236
        },
        {
          "duration": 1.1020208833333385,
          "durationTicks": 1199,
          "midi": 59,
          "name": "B3",
          "ticks": 100560,
          "time": 92.426372,
          "velocity": 0.7559055118110236
        },
        {
          "duration": 0.21966888333334111,
          "durationTicks": 239,
          "midi": 54,
          "name": "F#3",
          "ticks": 102720,
          "time": 94.411664,
          "velocity": 0.6299212598425197
        },
        {
          "duration": 0.2196688833333269,
          "durationTicks": 239,
          "midi": 54,
          "name": "F#3",
          "ticks": 102960,
          "time": 94.63225200000001,
          "velocity": 0.6299212598425197
        },
        {
          "duration": 0.21966888333334111,
          "durationTicks": 239,
          "midi": 54,
          "name": "F#3",
          "ticks": 103200,
          "time": 94.85284,
          "velocity": 0.6299212598425197
        },
        {
          "duration": 0.2196688833333269,
          "durationTicks": 239,
          "midi": 50,
          "name": "D3",
          "ticks": 103440,
          "time": 95.073428,
          "velocity": 0.6299212598425197
        },
        {
          "duration": 0.21966888333334111,
          "durationTicks": 239,
          "midi": 54,
          "name": "F#3",
          "ticks": 103680,
          "time": 95.294016,
          "velocity": 0.6299212598425197
        },
        {
          "duration": 0.2196688833333269,
          "durationTicks": 239,
          "midi": 55,
          "name": "G3",
          "ticks": 103920,
          "time": 95.514604,
          "velocity": 0.6299212598425197
        },
        {
          "duration": 0.21966888333334111,
          "durationTicks": 239,
          "midi": 55,
          "name": "G3",
          "ticks": 104160,
          "time": 95.735192,
          "velocity": 0.6299212598425197
        },
        {
          "duration": 0.21966888333334111,
          "durationTicks": 239,
          "midi": 55,
          "name": "G3",
          "ticks": 106320,
          "time": 97.720484,
          "velocity": 0.6299212598425197
        },
        {
          "duration": 0.2196688833333269,
          "durationTicks": 239,
          "midi": 54,
          "name": "F#3",
          "ticks": 106560,
          "time": 97.941072,
          "velocity": 0.6299212598425197
        },
        {
          "duration": 0.21966888333334111,
          "durationTicks": 239,
          "midi": 54,
          "name": "F#3",
          "ticks": 106800,
          "time": 98.16166,
          "velocity": 0.6299212598425197
        },
        {
          "duration": 0.2196688833333269,
          "durationTicks": 239,
          "midi": 54,
          "name": "F#3",
          "ticks": 107040,
          "time": 98.382248,
          "velocity": 0.6299212598425197
        },
        {
          "duration": 0.21966888333334111,
          "durationTicks": 239,
          "midi": 50,
          "name": "D3",
          "ticks": 107280,
          "time": 98.602836,
          "velocity": 0.6299212598425197
        },
        {
          "duration": 0.21966888333334111,
          "durationTicks": 239,
          "midi": 57,
          "name": "A3",
          "ticks": 107520,
          "time": 98.823424,
          "velocity": 0.6299212598425197
        },
        {
          "duration": 0.2196688833333269,
          "durationTicks": 239,
          "midi": 55,
          "name": "G3",
          "ticks": 107760,
          "time": 99.04401200000001,
          "velocity": 0.6299212598425197
        },
        {
          "duration": 0.21966888333334111,
          "durationTicks": 239,
          "midi": 55,
          "name": "G3",
          "ticks": 108000,
          "time": 99.2646,
          "velocity": 0.6299212598425197
        },
        {
          "duration": 0.21966888333334111,
          "durationTicks": 239,
          "midi": 55,
          "name": "G3",
          "ticks": 110160,
          "time": 101.249892,
          "velocity": 0.6299212598425197
        },
        {
          "duration": 0.2196688833333269,
          "durationTicks": 239,
          "midi": 54,
          "name": "F#3",
          "ticks": 110400,
          "time": 101.47048000000001,
          "velocity": 0.6299212598425197
        },
        {
          "duration": 0.21966888333334111,
          "durationTicks": 239,
          "midi": 54,
          "name": "F#3",
          "ticks": 110640,
          "time": 101.691068,
          "velocity": 0.6299212598425197
        },
        {
          "duration": 0.2196688833333269,
          "durationTicks": 239,
          "midi": 54,
          "name": "F#3",
          "ticks": 110880,
          "time": 101.91165600000001,
          "velocity": 0.6299212598425197
        },
        {
          "duration": 0.21966888333334111,
          "durationTicks": 239,
          "midi": 50,
          "name": "D3",
          "ticks": 111120,
          "time": 102.132244,
          "velocity": 0.6299212598425197
        },
        {
          "duration": 0.2196688833333269,
          "durationTicks": 239,
          "midi": 54,
          "name": "F#3",
          "ticks": 111360,
          "time": 102.352832,
          "velocity": 0.6299212598425197
        },
        {
          "duration": 0.21966888333334111,
          "durationTicks": 239,
          "midi": 55,
          "name": "G3",
          "ticks": 111600,
          "time": 102.57342,
          "velocity": 0.6299212598425197
        },
        {
          "duration": 0.6608448833333398,
          "durationTicks": 719,
          "midi": 62,
          "name": "D4",
          "ticks": 112080,
          "time": 103.014596,
          "velocity": 0.7559055118110236
        },
        {
          "duration": 0.44025688333333335,
          "durationTicks": 479,
          "midi": 60,
          "name": "C4",
          "ticks": 112800,
          "time": 103.67636,
          "velocity": 0.6299212598425197
        },
        {
          "duration": 0.44025688333333335,
          "durationTicks": 479,
          "midi": 59,
          "name": "B3",
          "ticks": 113280,
          "time": 104.117536,
          "velocity": 0.6299212598425197
        },
        {
          "duration": 0.44025688333333335,
          "durationTicks": 479,
          "midi": 62,
          "name": "D4",
          "ticks": 117840,
          "time": 108.30870800000001,
          "velocity": 0.6299212598425197
        },
        {
          "duration": 0.10937488333333079,
          "durationTicks": 119,
          "midi": 62,
          "name": "D4",
          "ticks": 118320,
          "time": 108.74988400000001,
          "velocity": 0.6299212598425197
        },
        {
          "duration": 0.10937488333333079,
          "durationTicks": 119,
          "midi": 62,
          "name": "D4",
          "ticks": 118560,
          "time": 108.970472,
          "velocity": 0.6299212598425197
        },
        {
          "duration": 0.10937488333333079,
          "durationTicks": 119,
          "midi": 62,
          "name": "D4",
          "ticks": 118800,
          "time": 109.19106000000001,
          "velocity": 0.6299212598425197
        },
        {
          "duration": 0.21966888333334111,
          "durationTicks": 239,
          "midi": 64,
          "name": "E4",
          "ticks": 119040,
          "time": 109.411648,
          "velocity": 0.6299212598425197
        },
        {
          "duration": 0.44025688333333335,
          "durationTicks": 479,
          "midi": 67,
          "name": "G4",
          "ticks": 120480,
          "time": 110.73517600000001,
          "velocity": 0.905511811023622
        },
        {
          "duration": 0.10937488333333079,
          "durationTicks": 119,
          "midi": 62,
          "name": "D4",
          "ticks": 121200,
          "time": 111.39694,
          "velocity": 0.7559055118110236
        },
        {
          "duration": 0.2196688833333269,
          "durationTicks": 239,
          "midi": 66,
          "name": "F#4",
          "ticks": 121440,
          "time": 111.61752800000001,
          "velocity": 0.7559055118110236
        },
        {
          "duration": 0.21966888333334111,
          "durationTicks": 239,
          "midi": 67,
          "name": "G4",
          "ticks": 121680,
          "time": 111.838116,
          "velocity": 0.7559055118110236
        },
        {
          "duration": 0.2196688833333269,
          "durationTicks": 239,
          "midi": 66,
          "name": "F#4",
          "ticks": 121920,
          "time": 112.058704,
          "velocity": 0.7559055118110236
        },
        {
          "duration": 0.109374883333345,
          "durationTicks": 119,
          "midi": 67,
          "name": "G4",
          "ticks": 122160,
          "time": 112.279292,
          "velocity": 0.7559055118110236
        },
        {
          "duration": 0.6608448833333256,
          "durationTicks": 719,
          "midi": 67,
          "name": "G4",
          "ticks": 122640,
          "time": 112.720468,
          "velocity": 0.905511811023622
        },
        {
          "duration": 0.2196688833333269,
          "durationTicks": 239,
          "midi": 66,
          "name": "F#4",
          "ticks": 123360,
          "time": 113.382232,
          "velocity": 0.7559055118110236
        },
        {
          "duration": 0.2196688833333127,
          "durationTicks": 239,
          "midi": 67,
          "name": "G4",
          "ticks": 123600,
          "time": 113.60282000000001,
          "velocity": 0.7559055118110236
        },
        {
          "duration": 0.2196688833333269,
          "durationTicks": 239,
          "midi": 55,
          "name": "G3",
          "ticks": 125280,
          "time": 115.146936,
          "velocity": 0.7559055118110236
        },
        {
          "duration": 0.10937488333331657,
          "durationTicks": 119,
          "midi": 54,
          "name": "F#3",
          "ticks": 125520,
          "time": 115.367524,
          "velocity": 0.7559055118110236
        },
        {
          "duration": 0.2196688833333127,
          "durationTicks": 239,
          "midi": 53,
          "name": "F3",
          "ticks": 125760,
          "time": 115.58811200000001,
          "velocity": 0.7559055118110236
        },
        {
          "duration": 0.2196688833333269,
          "durationTicks": 239,
          "midi": 55,
          "name": "G3",
          "ticks": 126000,
          "time": 115.8087,
          "velocity": 0.7559055118110236
        },
        {
          "duration": 0.10937488333331657,
          "durationTicks": 119,
          "midi": 57,
          "name": "A3",
          "ticks": 126240,
          "time": 116.02928800000001,
          "velocity": 0.7559055118110236
        },
        {
          "duration": 0.44025688333331914,
          "durationTicks": 479,
          "midi": 59,
          "name": "B3",
          "ticks": 126480,
          "time": 116.249876,
          "velocity": 0.7559055118110236
        },
        {
          "duration": 0.10937488333333079,
          "durationTicks": 119,
          "midi": 57,
          "name": "A3",
          "ticks": 126960,
          "time": 116.691052,
          "velocity": 0.7559055118110236
        },
        {
          "duration": 0.44025688333331914,
          "durationTicks": 479,
          "midi": 55,
          "name": "G3",
          "ticks": 127200,
          "time": 116.91164,
          "velocity": 0.7559055118110236
        },
        {
          "duration": 0.2196688833333127,
          "durationTicks": 239,
          "midi": 50,
          "name": "D3",
          "ticks": 128400,
          "time": 118.01458000000001,
          "velocity": 0.7559055118110236
        },
        {
          "duration": 0.2196688833333269,
          "durationTicks": 239,
          "midi": 52,
          "name": "E3",
          "ticks": 128640,
          "time": 118.235168,
          "velocity": 0.7559055118110236
        },
        {
          "duration": 0.2196688833333127,
          "durationTicks": 239,
          "midi": 54,
          "name": "F#3",
          "ticks": 128880,
          "time": 118.45575600000001,
          "velocity": 0.7559055118110236
        },
        {
          "duration": 0.2196688833333269,
          "durationTicks": 239,
          "midi": 55,
          "name": "G3",
          "ticks": 129120,
          "time": 118.676344,
          "velocity": 0.7559055118110236
        },
        {
          "duration": 0.2196688833333127,
          "durationTicks": 239,
          "midi": 57,
          "name": "A3",
          "ticks": 129360,
          "time": 118.896932,
          "velocity": 0.7559055118110236
        },
        {
          "duration": 0.2196688833333127,
          "durationTicks": 239,
          "midi": 55,
          "name": "G3",
          "ticks": 129840,
          "time": 119.338108,
          "velocity": 0.7559055118110236
        },
        {
          "duration": 0.2196688833333269,
          "durationTicks": 239,
          "midi": 54,
          "name": "F#3",
          "ticks": 130080,
          "time": 119.558696,
          "velocity": 0.7559055118110236
        },
        {
          "duration": 0.44025688333331914,
          "durationTicks": 479,
          "midi": 55,
          "name": "G3",
          "ticks": 130320,
          "time": 119.779284,
          "velocity": 0.7559055118110236
        },
        {
          "duration": 0.2196688833333269,
          "durationTicks": 239,
          "midi": 54,
          "name": "F#3",
          "ticks": 130800,
          "time": 120.22046,
          "velocity": 0.7559055118110236
        },
        {
          "duration": 0.2196688833333127,
          "durationTicks": 239,
          "midi": 52,
          "name": "E3",
          "ticks": 131040,
          "time": 120.44104800000001,
          "velocity": 0.7559055118110236
        },
        {
          "duration": 0.2196688833333269,
          "durationTicks": 239,
          "midi": 50,
          "name": "D3",
          "ticks": 131280,
          "time": 120.661636,
          "velocity": 0.7559055118110236
        },
        {
          "duration": 0.44025688333331914,
          "durationTicks": 479,
          "midi": 57,
          "name": "A3",
          "ticks": 131520,
          "time": 120.88222400000001,
          "velocity": 0.7559055118110236
        },
        {
          "duration": 0.44025688333331914,
          "durationTicks": 479,
          "midi": 59,
          "name": "B3",
          "ticks": 132000,
          "time": 121.3234,
          "velocity": 0.7559055118110236
        },
        {
          "duration": 0.44025688333331914,
          "durationTicks": 479,
          "midi": 60,
          "name": "C4",
          "ticks": 132480,
          "time": 121.764576,
          "velocity": 0.7559055118110236
        },
        {
          "duration": 0.44025688333331914,
          "durationTicks": 479,
          "midi": 57,
          "name": "A3",
          "ticks": 132960,
          "time": 122.205752,
          "velocity": 0.7559055118110236
        },
        {
          "duration": 0.8814328833333178,
          "durationTicks": 959,
          "midi": 55,
          "name": "G3",
          "ticks": 133440,
          "time": 122.646928,
          "velocity": 0.7559055118110236
        },
        {
          "duration": 0.6608448833333256,
          "durationTicks": 719,
          "midi": 54,
          "name": "F#3",
          "ticks": 134400,
          "time": 123.52928,
          "velocity": 0.7559055118110236
        },
        {
          "duration": 0.2196688833333269,
          "durationTicks": 239,
          "midi": 55,
          "name": "G3",
          "ticks": 135120,
          "time": 124.191044,
          "velocity": 0.7559055118110236
        },
        {
          "duration": 0.029411733333319035,
          "durationTicks": 32,
          "midi": 52,
          "name": "E3",
          "ticks": 151440,
          "time": 139.19102800000002,
          "velocity": 0.7559055118110236
        },
        {
          "duration": 0.029411733333347456,
          "durationTicks": 32,
          "midi": 53,
          "name": "F3",
          "ticks": 151473,
          "time": 139.22135885,
          "velocity": 0.7559055118110236
        },
        {
          "duration": 0.029411733333319035,
          "durationTicks": 32,
          "midi": 54,
          "name": "F#3",
          "ticks": 151507,
          "time": 139.25260881666668,
          "velocity": 0.7559055118110236
        },
        {
          "duration": 0.029411733333319035,
          "durationTicks": 32,
          "midi": 55,
          "name": "G3",
          "ticks": 151542,
          "time": 139.2847779,
          "velocity": 0.7559055118110236
        },
        {
          "duration": 0.029411733333319035,
          "durationTicks": 32,
          "midi": 56,
          "name": "G#3",
          "ticks": 151575,
          "time": 139.31510875,
          "velocity": 0.7559055118110236
        },
        {
          "duration": 0.029411733333347456,
          "durationTicks": 32,
          "midi": 57,
          "name": "A3",
          "ticks": 151609,
          "time": 139.34635871666666,
          "velocity": 0.7559055118110236
        },
        {
          "duration": 0.03216908333331503,
          "durationTicks": 35,
          "midi": 58,
          "name": "A#3",
          "ticks": 151644,
          "time": 139.3785278,
          "velocity": 0.7559055118110236
        },
        {
          "duration": 0.10937488333331657,
          "durationTicks": 119,
          "midi": 59,
          "name": "B3",
          "ticks": 151680,
          "time": 139.411616,
          "velocity": 0.7559055118110236
        },
        {
          "duration": 0.10937488333331657,
          "durationTicks": 119,
          "midi": 57,
          "name": "A3",
          "ticks": 151920,
          "time": 139.632204,
          "velocity": 0.7559055118110236
        },
        {
          "duration": 0.109374883333345,
          "durationTicks": 119,
          "midi": 55,
          "name": "G3",
          "ticks": 152160,
          "time": 139.852792,
          "velocity": 0.7559055118110236
        },
        {
          "duration": 0.2196688833333269,
          "durationTicks": 239,
          "midi": 52,
          "name": "E3",
          "ticks": 152280,
          "time": 139.963086,
          "velocity": 0.7559055118110236
        },
        {
          "duration": 0.881432883333332,
          "durationTicks": 959,
          "midi": 60,
          "name": "C4",
          "ticks": 154560,
          "time": 142.058672,
          "velocity": 0.25984251968503935
        },
        {
          "duration": 0.44025688333331914,
          "durationTicks": 479,
          "midi": 57,
          "name": "A3",
          "ticks": 166080,
          "time": 152.646896,
          "velocity": 0.25984251968503935
        },
        {
          "duration": 0.44025688333331914,
          "durationTicks": 479,
          "midi": 59,
          "name": "B3",
          "ticks": 166560,
          "time": 153.088072,
          "velocity": 0.25984251968503935
        },
        {
          "duration": 0.44025688333331914,
          "durationTicks": 479,
          "midi": 60,
          "name": "C4",
          "ticks": 167040,
          "time": 153.529248,
          "velocity": 0.25984251968503935
        },
        {
          "duration": 0.44025688333331914,
          "durationTicks": 479,
          "midi": 57,
          "name": "A3",
          "ticks": 167520,
          "time": 153.970424,
          "velocity": 0.25984251968503935
        },
        {
          "duration": 0.881432883333332,
          "durationTicks": 959,
          "midi": 55,
          "name": "G3",
          "ticks": 168000,
          "time": 154.4116,
          "velocity": 0.25984251968503935
        },
        {
          "duration": 0.6608448833333398,
          "durationTicks": 719,
          "midi": 54,
          "name": "F#3",
          "ticks": 168960,
          "time": 155.293952,
          "velocity": 0.25984251968503935
        },
        {
          "duration": 0.2196688833333269,
          "durationTicks": 239,
          "midi": 55,
          "name": "G3",
          "ticks": 169680,
          "time": 155.955716,
          "velocity": 0.25984251968503935
        },
        {
          "duration": 0.8814328833333036,
          "durationTicks": 959,
          "midi": 43,
          "name": "G2",
          "ticks": 169920,
          "time": 156.17630400000002,
          "velocity": 0.9921259842519685
        },
        {
          "duration": 0.8814328833333036,
          "durationTicks": 959,
          "midi": 47,
          "name": "B2",
          "ticks": 170880,
          "time": 157.058656,
          "velocity": 0.9921259842519685
        },
        {
          "duration": 0.44025688333331914,
          "durationTicks": 479,
          "midi": 67,
          "name": "G4",
          "ticks": 172320,
          "time": 158.382184,
          "velocity": 0.905511811023622
        },
        {
          "duration": 0.10937488333331657,
          "durationTicks": 119,
          "midi": 62,
          "name": "D4",
          "ticks": 173040,
          "time": 159.043948,
          "velocity": 0.7559055118110236
        },
        {
          "duration": 0.2196688833333269,
          "durationTicks": 239,
          "midi": 66,
          "name": "F#4",
          "ticks": 173280,
          "time": 159.264536,
          "velocity": 0.7559055118110236
        },
        {
          "duration": 0.2196688833333269,
          "durationTicks": 239,
          "midi": 67,
          "name": "G4",
          "ticks": 173520,
          "time": 159.485124,
          "velocity": 0.7559055118110236
        },
        {
          "duration": 0.2196688833333269,
          "durationTicks": 239,
          "midi": 66,
          "name": "F#4",
          "ticks": 173760,
          "time": 159.705712,
          "velocity": 0.7559055118110236
        },
        {
          "duration": 0.2196688833333269,
          "durationTicks": 239,
          "midi": 67,
          "name": "G4",
          "ticks": 174000,
          "time": 159.9263,
          "velocity": 0.7559055118110236
        },
        {
          "duration": 0.6608448833333114,
          "durationTicks": 719,
          "midi": 67,
          "name": "G4",
          "ticks": 174480,
          "time": 160.367476,
          "velocity": 0.905511811023622
        },
        {
          "duration": 0.21966888333329848,
          "durationTicks": 239,
          "midi": 66,
          "name": "F#4",
          "ticks": 175200,
          "time": 161.02924000000002,
          "velocity": 0.7559055118110236
        },
        {
          "duration": 0.2196688833333269,
          "durationTicks": 239,
          "midi": 67,
          "name": "G4",
          "ticks": 175440,
          "time": 161.249828,
          "velocity": 0.7559055118110236
        },
        {
          "duration": 0.2196688833333269,
          "durationTicks": 239,
          "midi": 55,
          "name": "G3",
          "ticks": 177120,
          "time": 162.793944,
          "velocity": 0.7559055118110236
        },
        {
          "duration": 0.10937488333331657,
          "durationTicks": 119,
          "midi": 54,
          "name": "F#3",
          "ticks": 177360,
          "time": 163.014532,
          "velocity": 0.7559055118110236
        },
        {
          "duration": 0.2196688833333269,
          "durationTicks": 239,
          "midi": 53,
          "name": "F3",
          "ticks": 177600,
          "time": 163.23512,
          "velocity": 0.7559055118110236
        },
        {
          "duration": 0.21966888333329848,
          "durationTicks": 239,
          "midi": 55,
          "name": "G3",
          "ticks": 177840,
          "time": 163.45570800000002,
          "velocity": 0.7559055118110236
        },
        {
          "duration": 0.10937488333331657,
          "durationTicks": 119,
          "midi": 57,
          "name": "A3",
          "ticks": 178080,
          "time": 163.676296,
          "velocity": 0.7559055118110236
        },
        {
          "duration": 0.44025688333331914,
          "durationTicks": 479,
          "midi": 59,
          "name": "B3",
          "ticks": 178320,
          "time": 163.896884,
          "velocity": 0.7559055118110236
        },
        {
          "duration": 0.10937488333331657,
          "durationTicks": 119,
          "midi": 57,
          "name": "A3",
          "ticks": 178800,
          "time": 164.33806,
          "velocity": 0.7559055118110236
        },
        {
          "duration": 0.44025688333331914,
          "durationTicks": 479,
          "midi": 55,
          "name": "G3",
          "ticks": 179040,
          "time": 164.558648,
          "velocity": 0.7559055118110236
        },
        {
          "duration": 0.2196688833333269,
          "durationTicks": 239,
          "midi": 50,
          "name": "D3",
          "ticks": 180240,
          "time": 165.661588,
          "velocity": 0.7559055118110236
        },
        {
          "duration": 0.21966888333329848,
          "durationTicks": 239,
          "midi": 52,
          "name": "E3",
          "ticks": 180480,
          "time": 165.88217600000002,
          "velocity": 0.7559055118110236
        },
        {
          "duration": 0.2196688833333269,
          "durationTicks": 239,
          "midi": 54,
          "name": "F#3",
          "ticks": 180720,
          "time": 166.102764,
          "velocity": 0.7559055118110236
        },
        {
          "duration": 0.2196688833333269,
          "durationTicks": 239,
          "midi": 55,
          "name": "G3",
          "ticks": 180960,
          "time": 166.323352,
          "velocity": 0.7559055118110236
        },
        {
          "duration": 0.2196688833333269,
          "durationTicks": 239,
          "midi": 57,
          "name": "A3",
          "ticks": 181200,
          "time": 166.54394,
          "velocity": 0.7559055118110236
        },
        {
          "duration": 0.2196688833333269,
          "durationTicks": 239,
          "midi": 55,
          "name": "G3",
          "ticks": 181680,
          "time": 166.985116,
          "velocity": 0.7559055118110236
        },
        {
          "duration": 0.2196688833333269,
          "durationTicks": 239,
          "midi": 54,
          "name": "F#3",
          "ticks": 181920,
          "time": 167.205704,
          "velocity": 0.7559055118110236
        },
        {
          "duration": 0.44025688333331914,
          "durationTicks": 479,
          "midi": 55,
          "name": "G3",
          "ticks": 182160,
          "time": 167.42629200000002,
          "velocity": 0.7559055118110236
        },
        {
          "duration": 0.2196688833333269,
          "durationTicks": 239,
          "midi": 54,
          "name": "F#3",
          "ticks": 182640,
          "time": 167.867468,
          "velocity": 0.7559055118110236
        },
        {
          "duration": 0.2196688833333269,
          "durationTicks": 239,
          "midi": 52,
          "name": "E3",
          "ticks": 182880,
          "time": 168.088056,
          "velocity": 0.7559055118110236
        },
        {
          "duration": 0.21966888333329848,
          "durationTicks": 239,
          "midi": 50,
          "name": "D3",
          "ticks": 183120,
          "time": 168.30864400000002,
          "velocity": 0.7559055118110236
        },
        {
          "duration": 0.44025688333331914,
          "durationTicks": 479,
          "midi": 57,
          "name": "A3",
          "ticks": 183360,
          "time": 168.529232,
          "velocity": 0.6299212598425197
        },
        {
          "duration": 0.44025688333334756,
          "durationTicks": 479,
          "midi": 59,
          "name": "B3",
          "ticks": 183840,
          "time": 168.970408,
          "velocity": 0.6299212598425197
        },
        {
          "duration": 0.44025688333331914,
          "durationTicks": 479,
          "midi": 60,
          "name": "C4",
          "ticks": 184320,
          "time": 169.411584,
          "velocity": 0.6299212598425197
        },
        {
          "duration": 0.44025688333331914,
          "durationTicks": 479,
          "midi": 57,
          "name": "A3",
          "ticks": 184800,
          "time": 169.85276000000002,
          "velocity": 0.6299212598425197
        },
        {
          "duration": 0.881432883333332,
          "durationTicks": 959,
          "midi": 55,
          "name": "G3",
          "ticks": 185280,
          "time": 170.293936,
          "velocity": 0.6299212598425197
        },
        {
          "duration": 0.6608448833333398,
          "durationTicks": 719,
          "midi": 54,
          "name": "F#3",
          "ticks": 186240,
          "time": 171.176288,
          "velocity": 0.6299212598425197
        },
        {
          "duration": 0.881432883333332,
          "durationTicks": 959,
          "midi": 54,
          "name": "F#3",
          "ticks": 186960,
          "time": 171.838052,
          "velocity": 0.6299212598425197
        },
        {
          "duration": 0.6608448833333114,
          "durationTicks": 719,
          "midi": 55,
          "name": "G3",
          "ticks": 187920,
          "time": 172.720404,
          "velocity": 0.6299212598425197
        },
        {
          "duration": 0.44025688333331914,
          "durationTicks": 479,
          "midi": 57,
          "name": "A3",
          "ticks": 188880,
          "time": 173.602756,
          "velocity": 0.6299212598425197
        },
        {
          "duration": 0.2196688833333269,
          "durationTicks": 239,
          "midi": 59,
          "name": "B3",
          "ticks": 189360,
          "time": 174.043932,
          "velocity": 0.6299212598425197
        },
        {
          "duration": 0.2196688833333269,
          "durationTicks": 239,
          "midi": 57,
          "name": "A3",
          "ticks": 189600,
          "time": 174.26452,
          "velocity": 0.6299212598425197
        },
        {
          "duration": 1.1020208833333243,
          "durationTicks": 1199,
          "midi": 60,
          "name": "C4",
          "ticks": 189840,
          "time": 174.485108,
          "velocity": 0.6299212598425197
        },
        {
          "duration": 0.10937488333331657,
          "durationTicks": 119,
          "midi": 67,
          "name": "G4",
          "ticks": 191040,
          "time": 175.58804800000001,
          "velocity": 0.6299212598425197
        },
        {
          "duration": 0.10937488333331657,
          "durationTicks": 119,
          "midi": 64,
          "name": "E4",
          "ticks": 191160,
          "time": 175.698342,
          "velocity": 0.6299212598425197
        },
        {
          "duration": 0.10937488333331657,
          "durationTicks": 119,
          "midi": 62,
          "name": "D4",
          "ticks": 191280,
          "time": 175.808636,
          "velocity": 0.6299212598425197
        },
        {
          "duration": 0.10937488333331657,
          "durationTicks": 119,
          "midi": 59,
          "name": "B3",
          "ticks": 191400,
          "time": 175.91893000000002,
          "velocity": 0.6299212598425197
        },
        {
          "duration": 0.109374883333345,
          "durationTicks": 119,
          "midi": 64,
          "name": "E4",
          "ticks": 191760,
          "time": 176.249812,
          "velocity": 0.6299212598425197
        },
        {
          "duration": 0.10937488333331657,
          "durationTicks": 119,
          "midi": 62,
          "name": "D4",
          "ticks": 191880,
          "time": 176.360106,
          "velocity": 0.6299212598425197
        },
        {
          "duration": 0.10937488333331657,
          "durationTicks": 119,
          "midi": 59,
          "name": "B3",
          "ticks": 192000,
          "time": 176.4704,
          "velocity": 0.6299212598425197
        },
        {
          "duration": 0.109374883333345,
          "durationTicks": 119,
          "midi": 57,
          "name": "A3",
          "ticks": 192120,
          "time": 176.580694,
          "velocity": 0.6299212598425197
        },
        {
          "duration": 0.10937488333331657,
          "durationTicks": 119,
          "midi": 62,
          "name": "D4",
          "ticks": 192480,
          "time": 176.911576,
          "velocity": 0.6299212598425197
        },
        {
          "duration": 0.10937488333331657,
          "durationTicks": 119,
          "midi": 59,
          "name": "B3",
          "ticks": 192600,
          "time": 177.02187,
          "velocity": 0.6299212598425197
        },
        {
          "duration": 0.10937488333331657,
          "durationTicks": 119,
          "midi": 57,
          "name": "A3",
          "ticks": 192720,
          "time": 177.13216400000002,
          "velocity": 0.6299212598425197
        },
        {
          "duration": 0.10937488333331657,
          "durationTicks": 119,
          "midi": 55,
          "name": "G3",
          "ticks": 192840,
          "time": 177.242458,
          "velocity": 0.6299212598425197
        },
        {
          "duration": 0.10937488333331657,
          "durationTicks": 119,
          "midi": 59,
          "name": "B3",
          "ticks": 193200,
          "time": 177.57334,
          "velocity": 0.6299212598425197
        },
        {
          "duration": 0.10937488333331657,
          "durationTicks": 119,
          "midi": 57,
          "name": "A3",
          "ticks": 193320,
          "time": 177.683634,
          "velocity": 0.6299212598425197
        },
        {
          "duration": 0.109374883333345,
          "durationTicks": 119,
          "midi": 55,
          "name": "G3",
          "ticks": 193440,
          "time": 177.793928,
          "velocity": 0.6299212598425197
        },
        {
          "duration": 0.10937488333331657,
          "durationTicks": 119,
          "midi": 52,
          "name": "E3",
          "ticks": 193560,
          "time": 177.904222,
          "velocity": 0.6299212598425197
        },
        {
          "duration": 0.10937488333331657,
          "durationTicks": 119,
          "midi": 57,
          "name": "A3",
          "ticks": 194160,
          "time": 178.455692,
          "velocity": 0.6299212598425197
        },
        {
          "duration": 0.10937488333331657,
          "durationTicks": 119,
          "midi": 59,
          "name": "B3",
          "ticks": 194280,
          "time": 178.565986,
          "velocity": 0.6299212598425197
        },
        {
          "duration": 0.109374883333345,
          "durationTicks": 119,
          "midi": 67,
          "name": "G4",
          "ticks": 194400,
          "time": 178.67628,
          "velocity": 0.6299212598425197
        },
        {
          "duration": 0.10937488333331657,
          "durationTicks": 119,
          "midi": 66,
          "name": "F#4",
          "ticks": 194520,
          "time": 178.786574,
          "velocity": 0.6299212598425197
        },
        {
          "duration": 0.10937488333331657,
          "durationTicks": 119,
          "midi": 59,
          "name": "B3",
          "ticks": 194640,
          "time": 178.896868,
          "velocity": 0.6299212598425197
        },
        {
          "duration": 0.32996288333333723,
          "durationTicks": 359,
          "midi": 62,
          "name": "D4",
          "ticks": 194760,
          "time": 179.007162,
          "velocity": 0.6299212598425197
        },
        {
          "duration": 0.2196688833333269,
          "durationTicks": 239,
          "midi": 64,
          "name": "E4",
          "ticks": 195120,
          "time": 179.338044,
          "velocity": 0.6299212598425197
        }
      ]
    },
    {
      "channel": 0,
      "controlChanges": {
        "121": [
          {
            "number": 121,
            "ticks": 0,
            "time": 0,
            "value": 0
          }
        ]
      },
      "pitchBends": [],
      "instrument": {
        "family": "piano",
        "number": 0,
        "name": "acoustic grand piano"
      },
      "name": "",
      "notes": [],
      "endOfTrackTicks": 195360
    },
    {
      "channel": 8,
      "controlChanges": {
        "7": [
          {
            "number": 7,
            "ticks": 0,
            "time": 0,
            "value": 0.7874015748031497
          }
        ],
        "10": [
          {
            "number": 10,
            "ticks": 0,
            "time": 0,
            "value": 0.5039370078740157
          }
        ],
        "91": [
          {
            "number": 91,
            "ticks": 0,
            "time": 0,
            "value": 0
          }
        ],
        "93": [
          {
            "number": 93,
            "ticks": 0,
            "time": 0,
            "value": 0
          }
        ]
      },
      "pitchBends": [],
      "instrument": {
        "family": "brass",
        "number": 57,
        "name": "trombone"
      },
      "name": "",
      "notes": [
        {
          "duration": 0.10937488333333345,
          "durationTicks": 119,
          "midi": 50,
          "name": "D3",
          "ticks": 1440,
          "time": 1.323528,
          "velocity": 0.6299212598425197
        },
        {
          "duration": 0.10937488333333323,
          "durationTicks": 119,
          "midi": 50,
          "name": "D3",
          "ticks": 1560,
          "time": 1.4338220000000002,
          "velocity": 0.6299212598425197
        },
        {
          "duration": 0.10937488333333345,
          "durationTicks": 119,
          "midi": 52,
          "name": "E3",
          "ticks": 3360,
          "time": 3.088232,
          "velocity": 0.6299212598425197
        },
        {
          "duration": 0.10937488333333345,
          "durationTicks": 119,
          "midi": 52,
          "name": "E3",
          "ticks": 3480,
          "time": 3.198526,
          "velocity": 0.6299212598425197
        },
        {
          "duration": 0.10937488333333345,
          "durationTicks": 119,
          "midi": 55,
          "name": "G3",
          "ticks": 4800,
          "time": 4.41176,
          "velocity": 0.6299212598425197
        },
        {
          "duration": 0.10937488333333345,
          "durationTicks": 119,
          "midi": 55,
          "name": "G3",
          "ticks": 4920,
          "time": 4.522054,
          "velocity": 0.6299212598425197
        },
        {
          "duration": 0.10937488333333345,
          "durationTicks": 119,
          "midi": 55,
          "name": "G3",
          "ticks": 5040,
          "time": 4.632348,
          "velocity": 0.6299212598425197
        },
        {
          "duration": 0.10937488333333345,
          "durationTicks": 119,
          "midi": 55,
          "name": "G3",
          "ticks": 5160,
          "time": 4.742642,
          "velocity": 0.6299212598425197
        },
        {
          "duration": 0.10937488333333345,
          "durationTicks": 119,
          "midi": 55,
          "name": "G3",
          "ticks": 5520,
          "time": 5.073524,
          "velocity": 0.6299212598425197
        },
        {
          "duration": 0.10937488333333345,
          "durationTicks": 119,
          "midi": 55,
          "name": "G3",
          "ticks": 5640,
          "time": 5.1838180000000005,
          "velocity": 0.6299212598425197
        },
        {
          "duration": 0.10937488333333345,
          "durationTicks": 119,
          "midi": 55,
          "name": "G3",
          "ticks": 5760,
          "time": 5.294112,
          "velocity": 0.6299212598425197
        },
        {
          "duration": 0.10937488333333345,
          "durationTicks": 119,
          "midi": 55,
          "name": "G3",
          "ticks": 5880,
          "time": 5.404406,
          "velocity": 0.6299212598425197
        },
        {
          "duration": 0.10937488333333256,
          "durationTicks": 119,
          "midi": 55,
          "name": "G3",
          "ticks": 6240,
          "time": 5.735288000000001,
          "velocity": 0.6299212598425197
        },
        {
          "duration": 0.10937488333333345,
          "durationTicks": 119,
          "midi": 55,
          "name": "G3",
          "ticks": 6360,
          "time": 5.845582,
          "velocity": 0.6299212598425197
        },
        {
          "duration": 0.10937488333333345,
          "durationTicks": 119,
          "midi": 55,
          "name": "G3",
          "ticks": 6480,
          "time": 5.955876,
          "velocity": 0.6299212598425197
        },
        {
          "duration": 0.10937488333333345,
          "durationTicks": 119,
          "midi": 55,
          "name": "G3",
          "ticks": 6600,
          "time": 6.0661700000000005,
          "velocity": 0.6299212598425197
        },
        {
          "duration": 0.10937488333333345,
          "durationTicks": 119,
          "midi": 59,
          "name": "B3",
          "ticks": 6840,
          "time": 6.286758,
          "velocity": 0.6299212598425197
        },
        {
          "duration": 0.6608448833333336,
          "durationTicks": 719,
          "midi": 61,
          "name": "C#4",
          "ticks": 6960,
          "time": 6.397052,
          "velocity": 0.6299212598425197
        },
        {
          "duration": 0.04319848333333276,
          "durationTicks": 47,
          "midi": 50,
          "name": "D3",
          "ticks": 10320,
          "time": 9.485284,
          "velocity": 0.6299212598425197
        },
        {
          "duration": 0.04319848333333276,
          "durationTicks": 47,
          "midi": 51,
          "name": "D#3",
          "ticks": 10368,
          "time": 9.529401600000002,
          "velocity": 0.6299212598425197
        },
        {
          "duration": 0.04319848333333276,
          "durationTicks": 47,
          "midi": 52,
          "name": "E3",
          "ticks": 10416,
          "time": 9.5735192,
          "velocity": 0.6299212598425197
        },
        {
          "duration": 0.04319848333333276,
          "durationTicks": 47,
          "midi": 53,
          "name": "F3",
          "ticks": 10464,
          "time": 9.617636800000001,
          "velocity": 0.6299212598425197
        },
        {
          "duration": 0.04319848333333276,
          "durationTicks": 47,
          "midi": 54,
          "name": "F#3",
          "ticks": 10512,
          "time": 9.6617544,
          "velocity": 0.6299212598425197
        },
        {
          "duration": 0.29411733333333423,
          "durationTicks": 320,
          "midi": 55,
          "name": "G3",
          "ticks": 10560,
          "time": 9.705872,
          "velocity": 0.7559055118110236
        },
        {
          "duration": 0.29411733333333423,
          "durationTicks": 320,
          "midi": 54,
          "name": "F#3",
          "ticks": 11040,
          "time": 10.147048,
          "velocity": 0.7559055118110236
        },
        {
          "duration": 0.3299628833333319,
          "durationTicks": 359,
          "midi": 52,
          "name": "E3",
          "ticks": 11520,
          "time": 10.588224,
          "velocity": 0.7559055118110236
        },
        {
          "duration": 0.21966888333333223,
          "durationTicks": 239,
          "midi": 50,
          "name": "D3",
          "ticks": 11880,
          "time": 10.919106000000001,
          "velocity": 0.7559055118110236
        },
        {
          "duration": 0.3299628833333319,
          "durationTicks": 359,
          "midi": 50,
          "name": "D3",
          "ticks": 12120,
          "time": 11.139694,
          "velocity": 0.7559055118110236
        },
        {
          "duration": 0.10937488333333256,
          "durationTicks": 119,
          "midi": 55,
          "name": "G3",
          "ticks": 12480,
          "time": 11.470576000000001,
          "velocity": 0.6299212598425197
        },
        {
          "duration": 0.10937488333333256,
          "durationTicks": 119,
          "midi": 55,
          "name": "G3",
          "ticks": 12600,
          "time": 11.58087,
          "velocity": 0.6299212598425197
        },
        {
          "duration": 0.10937488333333256,
          "durationTicks": 119,
          "midi": 55,
          "name": "G3",
          "ticks": 12720,
          "time": 11.691164,
          "velocity": 0.6299212598425197
        },
        {
          "duration": 0.10937488333333256,
          "durationTicks": 119,
          "midi": 55,
          "name": "G3",
          "ticks": 12840,
          "time": 11.801458,
          "velocity": 0.6299212598425197
        },
        {
          "duration": 0.10937488333333256,
          "durationTicks": 119,
          "midi": 55,
          "name": "G3",
          "ticks": 13200,
          "time": 12.132340000000001,
          "velocity": 0.6299212598425197
        },
        {
          "duration": 0.10937488333333256,
          "durationTicks": 119,
          "midi": 55,
          "name": "G3",
          "ticks": 13320,
          "time": 12.242634,
          "velocity": 0.6299212598425197
        },
        {
          "duration": 0.10937488333333256,
          "durationTicks": 119,
          "midi": 55,
          "name": "G3",
          "ticks": 13440,
          "time": 12.352928,
          "velocity": 0.6299212598425197
        },
        {
          "duration": 0.10937488333333256,
          "durationTicks": 119,
          "midi": 55,
          "name": "G3",
          "ticks": 13560,
          "time": 12.463222,
          "velocity": 0.6299212598425197
        },
        {
          "duration": 0.10937488333333256,
          "durationTicks": 119,
          "midi": 55,
          "name": "G3",
          "ticks": 13920,
          "time": 12.794104,
          "velocity": 0.6299212598425197
        },
        {
          "duration": 0.10937488333333256,
          "durationTicks": 119,
          "midi": 55,
          "name": "G3",
          "ticks": 14040,
          "time": 12.904398,
          "velocity": 0.6299212598425197
        },
        {
          "duration": 0.10937488333333256,
          "durationTicks": 119,
          "midi": 55,
          "name": "G3",
          "ticks": 14160,
          "time": 13.014692,
          "velocity": 0.6299212598425197
        },
        {
          "duration": 0.10937488333333256,
          "durationTicks": 119,
          "midi": 55,
          "name": "G3",
          "ticks": 14280,
          "time": 13.124986,
          "velocity": 0.6299212598425197
        },
        {
          "duration": 0.10937488333333256,
          "durationTicks": 119,
          "midi": 59,
          "name": "B3",
          "ticks": 14520,
          "time": 13.345574000000001,
          "velocity": 0.6299212598425197
        },
        {
          "duration": 1.1020208833333331,
          "durationTicks": 1199,
          "midi": 61,
          "name": "C#4",
          "ticks": 14640,
          "time": 13.455868,
          "velocity": 0.6299212598425197
        },
        {
          "duration": 0.219668883333334,
          "durationTicks": 239,
          "midi": 57,
          "name": "A3",
          "ticks": 20160,
          "time": 18.529392,
          "velocity": 0.7559055118110236
        },
        {
          "duration": 0.219668883333334,
          "durationTicks": 239,
          "midi": 57,
          "name": "A3",
          "ticks": 20400,
          "time": 18.74998,
          "velocity": 0.7559055118110236
        },
        {
          "duration": 0.219668883333334,
          "durationTicks": 239,
          "midi": 57,
          "name": "A3",
          "ticks": 20640,
          "time": 18.970568,
          "velocity": 0.7559055118110236
        },
        {
          "duration": 0.219668883333334,
          "durationTicks": 239,
          "midi": 55,
          "name": "G3",
          "ticks": 20880,
          "time": 19.191156,
          "velocity": 0.7559055118110236
        },
        {
          "duration": 0.219668883333334,
          "durationTicks": 239,
          "midi": 59,
          "name": "B3",
          "ticks": 21360,
          "time": 19.632332,
          "velocity": 0.7559055118110236
        },
        {
          "duration": 0.219668883333334,
          "durationTicks": 239,
          "midi": 59,
          "name": "B3",
          "ticks": 21600,
          "time": 19.85292,
          "velocity": 0.7559055118110236
        },
        {
          "duration": 0.219668883333334,
          "durationTicks": 239,
          "midi": 59,
          "name": "B3",
          "ticks": 21840,
          "time": 20.073508,
          "velocity": 0.7559055118110236
        },
        {
          "duration": 0.219668883333334,
          "durationTicks": 239,
          "midi": 57,
          "name": "A3",
          "ticks": 22080,
          "time": 20.294096,
          "velocity": 0.7559055118110236
        },
        {
          "duration": 0.219668883333334,
          "durationTicks": 239,
          "midi": 57,
          "name": "A3",
          "ticks": 22320,
          "time": 20.514684,
          "velocity": 0.7559055118110236
        },
        {
          "duration": 0.219668883333334,
          "durationTicks": 239,
          "midi": 57,
          "name": "A3",
          "ticks": 22560,
          "time": 20.735272000000002,
          "velocity": 0.7559055118110236
        },
        {
          "duration": 0.219668883333334,
          "durationTicks": 239,
          "midi": 55,
          "name": "G3",
          "ticks": 22800,
          "time": 20.95586,
          "velocity": 0.7559055118110236
        },
        {
          "duration": 0.10937488333333434,
          "durationTicks": 119,
          "midi": 55,
          "name": "G3",
          "ticks": 23760,
          "time": 21.838212000000002,
          "velocity": 0.7559055118110236
        },
        {
          "duration": 0.10937488333333434,
          "durationTicks": 119,
          "midi": 55,
          "name": "G3",
          "ticks": 23880,
          "time": 21.948506000000002,
          "velocity": 0.7559055118110236
        },
        {
          "duration": 0.219668883333334,
          "durationTicks": 239,
          "midi": 57,
          "name": "A3",
          "ticks": 24000,
          "time": 22.0588,
          "velocity": 0.7559055118110236
        },
        {
          "duration": 0.219668883333334,
          "durationTicks": 239,
          "midi": 57,
          "name": "A3",
          "ticks": 24240,
          "time": 22.279388,
          "velocity": 0.7559055118110236
        },
        {
          "duration": 0.219668883333334,
          "durationTicks": 239,
          "midi": 57,
          "name": "A3",
          "ticks": 24480,
          "time": 22.499976,
          "velocity": 0.7559055118110236
        },
        {
          "duration": 0.219668883333334,
          "durationTicks": 239,
          "midi": 55,
          "name": "G3",
          "ticks": 24720,
          "time": 22.720564,
          "velocity": 0.7559055118110236
        },
        {
          "duration": 0.219668883333334,
          "durationTicks": 239,
          "midi": 59,
          "name": "B3",
          "ticks": 25200,
          "time": 23.16174,
          "velocity": 0.7559055118110236
        },
        {
          "duration": 0.219668883333334,
          "durationTicks": 239,
          "midi": 59,
          "name": "B3",
          "ticks": 25440,
          "time": 23.382328,
          "velocity": 0.7559055118110236
        },
        {
          "duration": 0.219668883333334,
          "durationTicks": 239,
          "midi": 59,
          "name": "B3",
          "ticks": 25680,
          "time": 23.602916,
          "velocity": 0.7559055118110236
        },
        {
          "duration": 0.219668883333334,
          "durationTicks": 239,
          "midi": 57,
          "name": "A3",
          "ticks": 25920,
          "time": 23.823504,
          "velocity": 0.7559055118110236
        },
        {
          "duration": 0.4402568833333369,
          "durationTicks": 479,
          "midi": 59,
          "name": "B3",
          "ticks": 26160,
          "time": 24.044092,
          "velocity": 0.7559055118110236
        },
        {
          "duration": 0.6608448833333327,
          "durationTicks": 719,
          "midi": 59,
          "name": "B3",
          "ticks": 26640,
          "time": 24.485268,
          "velocity": 0.7559055118110236
        },
        {
          "duration": 0.219668883333334,
          "durationTicks": 239,
          "midi": 55,
          "name": "G3",
          "ticks": 27600,
          "time": 25.367620000000002,
          "velocity": 0.7559055118110236
        },
        {
          "duration": 0.219668883333334,
          "durationTicks": 239,
          "midi": 57,
          "name": "A3",
          "ticks": 27840,
          "time": 25.588208,
          "velocity": 0.7559055118110236
        },
        {
          "duration": 0.219668883333334,
          "durationTicks": 239,
          "midi": 57,
          "name": "A3",
          "ticks": 28080,
          "time": 25.808796,
          "velocity": 0.7559055118110236
        },
        {
          "duration": 0.219668883333334,
          "durationTicks": 239,
          "midi": 57,
          "name": "A3",
          "ticks": 28320,
          "time": 26.029384,
          "velocity": 0.7559055118110236
        },
        {
          "duration": 0.219668883333334,
          "durationTicks": 239,
          "midi": 55,
          "name": "G3",
          "ticks": 28560,
          "time": 26.249972,
          "velocity": 0.7559055118110236
        },
        {
          "duration": 0.219668883333334,
          "durationTicks": 239,
          "midi": 62,
          "name": "D4",
          "ticks": 29040,
          "time": 26.691148000000002,
          "velocity": 0.7559055118110236
        },
        {
          "duration": 0.219668883333334,
          "durationTicks": 239,
          "midi": 62,
          "name": "D4",
          "ticks": 29280,
          "time": 26.911736,
          "velocity": 0.7559055118110236
        },
        {
          "duration": 0.44025688333333335,
          "durationTicks": 479,
          "midi": 62,
          "name": "D4",
          "ticks": 29520,
          "time": 27.132324,
          "velocity": 0.7559055118110236
        },
        {
          "duration": 0.219668883333334,
          "durationTicks": 239,
          "midi": 55,
          "name": "G3",
          "ticks": 30000,
          "time": 27.5735,
          "velocity": 0.7559055118110236
        },
        {
          "duration": 0.219668883333334,
          "durationTicks": 239,
          "midi": 55,
          "name": "G3",
          "ticks": 30240,
          "time": 27.794088000000002,
          "velocity": 0.7559055118110236
        },
        {
          "duration": 0.219668883333334,
          "durationTicks": 239,
          "midi": 55,
          "name": "G3",
          "ticks": 30480,
          "time": 28.014676,
          "velocity": 0.7559055118110236
        },
        {
          "duration": 0.219668883333334,
          "durationTicks": 239,
          "midi": 54,
          "name": "F#3",
          "ticks": 30720,
          "time": 28.235264,
          "velocity": 0.7559055118110236
        },
        {
          "duration": 0.219668883333334,
          "durationTicks": 239,
          "midi": 55,
          "name": "G3",
          "ticks": 30960,
          "time": 28.455852,
          "velocity": 0.7559055118110236
        },
        {
          "duration": 0.219668883333334,
          "durationTicks": 239,
          "midi": 54,
          "name": "F#3",
          "ticks": 31200,
          "time": 28.67644,
          "velocity": 0.7559055118110236
        },
        {
          "duration": 0.219668883333334,
          "durationTicks": 239,
          "midi": 50,
          "name": "D3",
          "ticks": 31440,
          "time": 28.897028000000002,
          "velocity": 0.7559055118110236
        },
        {
          "duration": 0.881432883333332,
          "durationTicks": 959,
          "midi": 52,
          "name": "E3",
          "ticks": 31680,
          "time": 29.117616,
          "velocity": 0.7559055118110236
        },
        {
          "duration": 0.219668883333334,
          "durationTicks": 239,
          "midi": 52,
          "name": "E3",
          "ticks": 32880,
          "time": 30.220556000000002,
          "velocity": 0.7559055118110236
        },
        {
          "duration": 0.219668883333334,
          "durationTicks": 239,
          "midi": 59,
          "name": "B3",
          "ticks": 33120,
          "time": 30.441144,
          "velocity": 0.7559055118110236
        },
        {
          "duration": 1.102020883333335,
          "durationTicks": 1199,
          "midi": 59,
          "name": "B3",
          "ticks": 33360,
          "time": 30.661732,
          "velocity": 0.7559055118110236
        },
        {
          "duration": 0.219668883333334,
          "durationTicks": 239,
          "midi": 50,
          "name": "D3",
          "ticks": 35520,
          "time": 32.647024,
          "velocity": 0.6299212598425197
        },
        {
          "duration": 0.219668883333334,
          "durationTicks": 239,
          "midi": 50,
          "name": "D3",
          "ticks": 35760,
          "time": 32.867612,
          "velocity": 0.6299212598425197
        },
        {
          "duration": 0.219668883333334,
          "durationTicks": 239,
          "midi": 50,
          "name": "D3",
          "ticks": 36000,
          "time": 33.0882,
          "velocity": 0.6299212598425197
        },
        {
          "duration": 0.219668883333334,
          "durationTicks": 239,
          "midi": 47,
          "name": "B2",
          "ticks": 36240,
          "time": 33.308788,
          "velocity": 0.6299212598425197
        },
        {
          "duration": 0.219668883333334,
          "durationTicks": 239,
          "midi": 50,
          "name": "D3",
          "ticks": 36480,
          "time": 33.529376,
          "velocity": 0.6299212598425197
        },
        {
          "duration": 0.219668883333334,
          "durationTicks": 239,
          "midi": 52,
          "name": "E3",
          "ticks": 36720,
          "time": 33.749964,
          "velocity": 0.6299212598425197
        },
        {
          "duration": 0.219668883333334,
          "durationTicks": 239,
          "midi": 52,
          "name": "E3",
          "ticks": 36960,
          "time": 33.970552,
          "velocity": 0.6299212598425197
        },
        {
          "duration": 0.219668883333334,
          "durationTicks": 239,
          "midi": 52,
          "name": "E3",
          "ticks": 39120,
          "time": 35.955844,
          "velocity": 0.6299212598425197
        },
        {
          "duration": 0.219668883333334,
          "durationTicks": 239,
          "midi": 50,
          "name": "D3",
          "ticks": 39360,
          "time": 36.176432,
          "velocity": 0.6299212598425197
        },
        {
          "duration": 0.219668883333334,
          "durationTicks": 239,
          "midi": 50,
          "name": "D3",
          "ticks": 39600,
          "time": 36.39702,
          "velocity": 0.6299212598425197
        },
        {
          "duration": 0.219668883333334,
          "durationTicks": 239,
          "midi": 50,
          "name": "D3",
          "ticks": 39840,
          "time": 36.617608000000004,
          "velocity": 0.6299212598425197
        },
        {
          "duration": 0.219668883333334,
          "durationTicks": 239,
          "midi": 47,
          "name": "B2",
          "ticks": 40080,
          "time": 36.838196,
          "velocity": 0.6299212598425197
        },
        {
          "duration": 0.219668883333334,
          "durationTicks": 239,
          "midi": 54,
          "name": "F#3",
          "ticks": 40320,
          "time": 37.058784,
          "velocity": 0.6299212598425197
        },
        {
          "duration": 0.219668883333334,
          "durationTicks": 239,
          "midi": 52,
          "name": "E3",
          "ticks": 40560,
          "time": 37.279372,
          "velocity": 0.6299212598425197
        },
        {
          "duration": 0.219668883333334,
          "durationTicks": 239,
          "midi": 52,
          "name": "E3",
          "ticks": 40800,
          "time": 37.49996,
          "velocity": 0.6299212598425197
        },
        {
          "duration": 0.219668883333334,
          "durationTicks": 239,
          "midi": 52,
          "name": "E3",
          "ticks": 42960,
          "time": 39.485252,
          "velocity": 0.6299212598425197
        },
        {
          "duration": 0.219668883333334,
          "durationTicks": 239,
          "midi": 50,
          "name": "D3",
          "ticks": 43200,
          "time": 39.70584,
          "velocity": 0.6299212598425197
        },
        {
          "duration": 0.219668883333334,
          "durationTicks": 239,
          "midi": 50,
          "name": "D3",
          "ticks": 43440,
          "time": 39.926428,
          "velocity": 0.6299212598425197
        },
        {
          "duration": 0.219668883333334,
          "durationTicks": 239,
          "midi": 50,
          "name": "D3",
          "ticks": 43680,
          "time": 40.147016,
          "velocity": 0.6299212598425197
        },
        {
          "duration": 0.219668883333334,
          "durationTicks": 239,
          "midi": 47,
          "name": "B2",
          "ticks": 43920,
          "time": 40.367604,
          "velocity": 0.6299212598425197
        },
        {
          "duration": 0.219668883333334,
          "durationTicks": 239,
          "midi": 50,
          "name": "D3",
          "ticks": 44160,
          "time": 40.588192,
          "velocity": 0.6299212598425197
        },
        {
          "duration": 0.219668883333334,
          "durationTicks": 239,
          "midi": 52,
          "name": "E3",
          "ticks": 44400,
          "time": 40.80878,
          "velocity": 0.6299212598425197
        },
        {
          "duration": 0.6608448833333327,
          "durationTicks": 719,
          "midi": 62,
          "name": "D4",
          "ticks": 44880,
          "time": 41.249956000000005,
          "velocity": 0.7559055118110236
        },
        {
          "duration": 0.44025688333333335,
          "durationTicks": 479,
          "midi": 60,
          "name": "C4",
          "ticks": 45600,
          "time": 41.91172,
          "velocity": 0.6299212598425197
        },
        {
          "duration": 0.44025688333333335,
          "durationTicks": 479,
          "midi": 59,
          "name": "B3",
          "ticks": 46080,
          "time": 42.352896,
          "velocity": 0.6299212598425197
        },
        {
          "duration": 0.44025688333333335,
          "durationTicks": 479,
          "midi": 57,
          "name": "A3",
          "ticks": 50640,
          "time": 46.544068,
          "velocity": 0.6299212598425197
        },
        {
          "duration": 0.10937488333333079,
          "durationTicks": 119,
          "midi": 57,
          "name": "A3",
          "ticks": 51120,
          "time": 46.985244,
          "velocity": 0.6299212598425197
        },
        {
          "duration": 0.10937488333333789,
          "durationTicks": 119,
          "midi": 57,
          "name": "A3",
          "ticks": 51360,
          "time": 47.205832,
          "velocity": 0.6299212598425197
        },
        {
          "duration": 0.10937488333333789,
          "durationTicks": 119,
          "midi": 57,
          "name": "A3",
          "ticks": 51600,
          "time": 47.42642,
          "velocity": 0.6299212598425197
        },
        {
          "duration": 0.219668883333334,
          "durationTicks": 239,
          "midi": 56,
          "name": "G#3",
          "ticks": 51840,
          "time": 47.647008,
          "velocity": 0.7559055118110236
        },
        {
          "duration": 0.44025688333333335,
          "durationTicks": 479,
          "midi": 55,
          "name": "G3",
          "ticks": 53280,
          "time": 48.970536,
          "velocity": 0.905511811023622
        },
        {
          "duration": 0.10937488333333789,
          "durationTicks": 119,
          "midi": 50,
          "name": "D3",
          "ticks": 54000,
          "time": 49.6323,
          "velocity": 0.7559055118110236
        },
        {
          "duration": 0.219668883333334,
          "durationTicks": 239,
          "midi": 54,
          "name": "F#3",
          "ticks": 54240,
          "time": 49.852888,
          "velocity": 0.7559055118110236
        },
        {
          "duration": 0.219668883333334,
          "durationTicks": 239,
          "midi": 55,
          "name": "G3",
          "ticks": 54480,
          "time": 50.073476,
          "velocity": 0.7559055118110236
        },
        {
          "duration": 0.219668883333334,
          "durationTicks": 239,
          "midi": 54,
          "name": "F#3",
          "ticks": 54720,
          "time": 50.294064,
          "velocity": 0.7559055118110236
        },
        {
          "duration": 0.219668883333334,
          "durationTicks": 239,
          "midi": 55,
          "name": "G3",
          "ticks": 54960,
          "time": 50.514652,
          "velocity": 0.7559055118110236
        },
        {
          "duration": 0.6608448833333327,
          "durationTicks": 719,
          "midi": 55,
          "name": "G3",
          "ticks": 55440,
          "time": 50.955828000000004,
          "velocity": 0.905511811023622
        },
        {
          "duration": 0.219668883333334,
          "durationTicks": 239,
          "midi": 54,
          "name": "F#3",
          "ticks": 56160,
          "time": 51.617592,
          "velocity": 0.7559055118110236
        },
        {
          "duration": 0.219668883333334,
          "durationTicks": 239,
          "midi": 55,
          "name": "G3",
          "ticks": 56400,
          "time": 51.83818,
          "velocity": 0.7559055118110236
        },
        {
          "duration": 0.219668883333334,
          "durationTicks": 239,
          "midi": 55,
          "name": "G3",
          "ticks": 58080,
          "time": 53.382296000000004,
          "velocity": 0.7559055118110236
        },
        {
          "duration": 0.10937488333333079,
          "durationTicks": 119,
          "midi": 54,
          "name": "F#3",
          "ticks": 58320,
          "time": 53.602884,
          "velocity": 0.7559055118110236
        },
        {
          "duration": 0.219668883333334,
          "durationTicks": 239,
          "midi": 53,
          "name": "F3",
          "ticks": 58560,
          "time": 53.823472,
          "velocity": 0.7559055118110236
        },
        {
          "duration": 0.219668883333334,
          "durationTicks": 239,
          "midi": 55,
          "name": "G3",
          "ticks": 58800,
          "time": 54.04406,
          "velocity": 0.7559055118110236
        },
        {
          "duration": 0.10937488333333789,
          "durationTicks": 119,
          "midi": 57,
          "name": "A3",
          "ticks": 59040,
          "time": 54.264648,
          "velocity": 0.7559055118110236
        },
        {
          "duration": 0.44025688333333335,
          "durationTicks": 479,
          "midi": 59,
          "name": "B3",
          "ticks": 59280,
          "time": 54.485236,
          "velocity": 0.7559055118110236
        },
        {
          "duration": 0.10937488333333789,
          "durationTicks": 119,
          "midi": 57,
          "name": "A3",
          "ticks": 59760,
          "time": 54.926412,
          "velocity": 0.7559055118110236
        },
        {
          "duration": 0.44025688333334045,
          "durationTicks": 479,
          "midi": 55,
          "name": "G3",
          "ticks": 60000,
          "time": 55.147,
          "velocity": 0.7559055118110236
        },
        {
          "duration": 0.219668883333334,
          "durationTicks": 239,
          "midi": 50,
          "name": "D3",
          "ticks": 61200,
          "time": 56.24994,
          "velocity": 0.7559055118110236
        },
        {
          "duration": 0.219668883333334,
          "durationTicks": 239,
          "midi": 52,
          "name": "E3",
          "ticks": 61440,
          "time": 56.470528,
          "velocity": 0.7559055118110236
        },
        {
          "duration": 0.219668883333334,
          "durationTicks": 239,
          "midi": 54,
          "name": "F#3",
          "ticks": 61680,
          "time": 56.691116,
          "velocity": 0.7559055118110236
        },
        {
          "duration": 0.219668883333334,
          "durationTicks": 239,
          "midi": 55,
          "name": "G3",
          "ticks": 61920,
          "time": 56.911704,
          "velocity": 0.7559055118110236
        },
        {
          "duration": 0.219668883333334,
          "durationTicks": 239,
          "midi": 57,
          "name": "A3",
          "ticks": 62160,
          "time": 57.132292,
          "velocity": 0.7559055118110236
        },
        {
          "duration": 0.219668883333334,
          "durationTicks": 239,
          "midi": 55,
          "name": "G3",
          "ticks": 62640,
          "time": 57.573468,
          "velocity": 0.7559055118110236
        },
        {
          "duration": 0.219668883333334,
          "durationTicks": 239,
          "midi": 54,
          "name": "F#3",
          "ticks": 62880,
          "time": 57.794056000000005,
          "velocity": 0.7559055118110236
        },
        {
          "duration": 0.44025688333333335,
          "durationTicks": 479,
          "midi": 55,
          "name": "G3",
          "ticks": 63120,
          "time": 58.014644000000004,
          "velocity": 0.7559055118110236
        },
        {
          "duration": 0.219668883333334,
          "durationTicks": 239,
          "midi": 54,
          "name": "F#3",
          "ticks": 63600,
          "time": 58.45582,
          "velocity": 0.7559055118110236
        },
        {
          "duration": 0.219668883333334,
          "durationTicks": 239,
          "midi": 52,
          "name": "E3",
          "ticks": 63840,
          "time": 58.676408,
          "velocity": 0.7559055118110236
        },
        {
          "duration": 0.219668883333334,
          "durationTicks": 239,
          "midi": 50,
          "name": "D3",
          "ticks": 64080,
          "time": 58.896996,
          "velocity": 0.7559055118110236
        },
        {
          "duration": 0.44025688333333335,
          "durationTicks": 479,
          "midi": 45,
          "name": "A2",
          "ticks": 64320,
          "time": 59.117584,
          "velocity": 0.7559055118110236
        },
        {
          "duration": 0.44025688333333335,
          "durationTicks": 479,
          "midi": 47,
          "name": "B2",
          "ticks": 64800,
          "time": 59.55876,
          "velocity": 0.7559055118110236
        },
        {
          "duration": 0.44025688333333335,
          "durationTicks": 479,
          "midi": 48,
          "name": "C3",
          "ticks": 65280,
          "time": 59.999936000000005,
          "velocity": 0.7559055118110236
        },
        {
          "duration": 0.44025688333333335,
          "durationTicks": 479,
          "midi": 45,
          "name": "A2",
          "ticks": 65760,
          "time": 60.441112000000004,
          "velocity": 0.7559055118110236
        },
        {
          "duration": 0.881432883333332,
          "durationTicks": 959,
          "midi": 55,
          "name": "G3",
          "ticks": 66240,
          "time": 60.882288,
          "velocity": 0.7559055118110236
        },
        {
          "duration": 0.6608448833333327,
          "durationTicks": 719,
          "midi": 54,
          "name": "F#3",
          "ticks": 67200,
          "time": 61.76464,
          "velocity": 0.7559055118110236
        },
        {
          "duration": 0.881432883333332,
          "durationTicks": 959,
          "midi": 54,
          "name": "F#3",
          "ticks": 67920,
          "time": 62.426404000000005,
          "velocity": 0.7559055118110236
        },
        {
          "duration": 0.6608448833333327,
          "durationTicks": 719,
          "midi": 55,
          "name": "G3",
          "ticks": 68880,
          "time": 63.308756,
          "velocity": 0.7559055118110236
        },
        {
          "duration": 0.44025688333333335,
          "durationTicks": 479,
          "midi": 57,
          "name": "A3",
          "ticks": 69840,
          "time": 64.191108,
          "velocity": 0.7559055118110236
        },
        {
          "duration": 0.21966888333334111,
          "durationTicks": 239,
          "midi": 59,
          "name": "B3",
          "ticks": 70320,
          "time": 64.632284,
          "velocity": 0.7559055118110236
        },
        {
          "duration": 0.2196688833333269,
          "durationTicks": 239,
          "midi": 57,
          "name": "A3",
          "ticks": 70560,
          "time": 64.852872,
          "velocity": 0.7559055118110236
        },
        {
          "duration": 1.1020208833333385,
          "durationTicks": 1199,
          "midi": 60,
          "name": "C4",
          "ticks": 70800,
          "time": 65.07346,
          "velocity": 0.7559055118110236
        },
        {
          "duration": 0.10937488333333079,
          "durationTicks": 119,
          "midi": 55,
          "name": "G3",
          "ticks": 72000,
          "time": 66.1764,
          "velocity": 0.6299212598425197
        },
        {
          "duration": 0.109374883333345,
          "durationTicks": 119,
          "midi": 55,
          "name": "G3",
          "ticks": 72120,
          "time": 66.286694,
          "velocity": 0.6299212598425197
        },
        {
          "duration": 0.10937488333333079,
          "durationTicks": 119,
          "midi": 55,
          "name": "G3",
          "ticks": 72240,
          "time": 66.39698800000001,
          "velocity": 0.6299212598425197
        },
        {
          "duration": 0.10937488333333079,
          "durationTicks": 119,
          "midi": 55,
          "name": "G3",
          "ticks": 72360,
          "time": 66.507282,
          "velocity": 0.6299212598425197
        },
        {
          "duration": 0.10937488333333079,
          "durationTicks": 119,
          "midi": 55,
          "name": "G3",
          "ticks": 72720,
          "time": 66.838164,
          "velocity": 0.6299212598425197
        },
        {
          "duration": 0.10937488333333079,
          "durationTicks": 119,
          "midi": 55,
          "name": "G3",
          "ticks": 72840,
          "time": 66.948458,
          "velocity": 0.6299212598425197
        },
        {
          "duration": 0.10937488333333079,
          "durationTicks": 119,
          "midi": 55,
          "name": "G3",
          "ticks": 72960,
          "time": 67.058752,
          "velocity": 0.6299212598425197
        },
        {
          "duration": 0.10937488333333079,
          "durationTicks": 119,
          "midi": 55,
          "name": "G3",
          "ticks": 73080,
          "time": 67.16904600000001,
          "velocity": 0.6299212598425197
        },
        {
          "duration": 0.109374883333345,
          "durationTicks": 119,
          "midi": 55,
          "name": "G3",
          "ticks": 73440,
          "time": 67.499928,
          "velocity": 0.6299212598425197
        },
        {
          "duration": 0.10937488333333079,
          "durationTicks": 119,
          "midi": 55,
          "name": "G3",
          "ticks": 73560,
          "time": 67.61022200000001,
          "velocity": 0.6299212598425197
        },
        {
          "duration": 0.10937488333333079,
          "durationTicks": 119,
          "midi": 55,
          "name": "G3",
          "ticks": 73680,
          "time": 67.720516,
          "velocity": 0.6299212598425197
        },
        {
          "duration": 0.10937488333333079,
          "durationTicks": 119,
          "midi": 55,
          "name": "G3",
          "ticks": 73800,
          "time": 67.83081,
          "velocity": 0.6299212598425197
        },
        {
          "duration": 0.10937488333333079,
          "durationTicks": 119,
          "midi": 47,
          "name": "B2",
          "ticks": 74040,
          "time": 68.051398,
          "velocity": 0.6299212598425197
        },
        {
          "duration": 0.6608448833333398,
          "durationTicks": 719,
          "midi": 49,
          "name": "C#3",
          "ticks": 74160,
          "time": 68.161692,
          "velocity": 0.6299212598425197
        },
        {
          "duration": 0.04319848333332743,
          "durationTicks": 47,
          "midi": 50,
          "name": "D3",
          "ticks": 77520,
          "time": 71.24992400000001,
          "velocity": 0.6299212598425197
        },
        {
          "duration": 0.04319848333332743,
          "durationTicks": 47,
          "midi": 51,
          "name": "D#3",
          "ticks": 77568,
          "time": 71.2940416,
          "velocity": 0.6299212598425197
        },
        {
          "duration": 0.04319848333334164,
          "durationTicks": 47,
          "midi": 52,
          "name": "E3",
          "ticks": 77616,
          "time": 71.33815919999999,
          "velocity": 0.6299212598425197
        },
        {
          "duration": 0.04319848333332743,
          "durationTicks": 47,
          "midi": 53,
          "name": "F3",
          "ticks": 77664,
          "time": 71.38227680000001,
          "velocity": 0.6299212598425197
        },
        {
          "duration": 0.04319848333332743,
          "durationTicks": 47,
          "midi": 54,
          "name": "F#3",
          "ticks": 77712,
          "time": 71.4263944,
          "velocity": 0.6299212598425197
        },
        {
          "duration": 0.29411733333333245,
          "durationTicks": 320,
          "midi": 55,
          "name": "G3",
          "ticks": 77760,
          "time": 71.470512,
          "velocity": 0.7559055118110236
        },
        {
          "duration": 0.29411733333333245,
          "durationTicks": 320,
          "midi": 54,
          "name": "F#3",
          "ticks": 78240,
          "time": 71.911688,
          "velocity": 0.7559055118110236
        },
        {
          "duration": 0.32996288333333723,
          "durationTicks": 359,
          "midi": 52,
          "name": "E3",
          "ticks": 78720,
          "time": 72.352864,
          "velocity": 0.7559055118110236
        },
        {
          "duration": 0.21966888333334111,
          "durationTicks": 239,
          "midi": 50,
          "name": "D3",
          "ticks": 79080,
          "time": 72.683746,
          "velocity": 0.7559055118110236
        },
        {
          "duration": 0.32996288333333723,
          "durationTicks": 359,
          "midi": 50,
          "name": "D3",
          "ticks": 79320,
          "time": 72.904334,
          "velocity": 0.7559055118110236
        },
        {
          "duration": 0.10937488333333079,
          "durationTicks": 119,
          "midi": 55,
          "name": "G3",
          "ticks": 79680,
          "time": 73.23521600000001,
          "velocity": 0.6299212598425197
        },
        {
          "duration": 0.10937488333333079,
          "durationTicks": 119,
          "midi": 55,
          "name": "G3",
          "ticks": 79800,
          "time": 73.34551,
          "velocity": 0.6299212598425197
        },
        {
          "duration": 0.10937488333333079,
          "durationTicks": 119,
          "midi": 55,
          "name": "G3",
          "ticks": 79920,
          "time": 73.455804,
          "velocity": 0.6299212598425197
        },
        {
          "duration": 0.109374883333345,
          "durationTicks": 119,
          "midi": 55,
          "name": "G3",
          "ticks": 80040,
          "time": 73.566098,
          "velocity": 0.6299212598425197
        },
        {
          "duration": 0.10937488333333079,
          "durationTicks": 119,
          "midi": 55,
          "name": "G3",
          "ticks": 80400,
          "time": 73.89698,
          "velocity": 0.6299212598425197
        },
        {
          "duration": 0.109374883333345,
          "durationTicks": 119,
          "midi": 55,
          "name": "G3",
          "ticks": 80520,
          "time": 74.007274,
          "velocity": 0.6299212598425197
        },
        {
          "duration": 0.10937488333333079,
          "durationTicks": 119,
          "midi": 55,
          "name": "G3",
          "ticks": 80640,
          "time": 74.117568,
          "velocity": 0.6299212598425197
        },
        {
          "duration": 0.10937488333333079,
          "durationTicks": 119,
          "midi": 55,
          "name": "G3",
          "ticks": 80760,
          "time": 74.227862,
          "velocity": 0.6299212598425197
        },
        {
          "duration": 0.10937488333333079,
          "durationTicks": 119,
          "midi": 55,
          "name": "G3",
          "ticks": 81120,
          "time": 74.558744,
          "velocity": 0.6299212598425197
        },
        {
          "duration": 0.10937488333333079,
          "durationTicks": 119,
          "midi": 55,
          "name": "G3",
          "ticks": 81240,
          "time": 74.669038,
          "velocity": 0.6299212598425197
        },
        {
          "duration": 0.109374883333345,
          "durationTicks": 119,
          "midi": 55,
          "name": "G3",
          "ticks": 81360,
          "time": 74.779332,
          "velocity": 0.6299212598425197
        },
        {
          "duration": 0.10937488333333079,
          "durationTicks": 119,
          "midi": 55,
          "name": "G3",
          "ticks": 81480,
          "time": 74.889626,
          "velocity": 0.6299212598425197
        },
        {
          "duration": 0.10937488333333079,
          "durationTicks": 119,
          "midi": 59,
          "name": "B3",
          "ticks": 81720,
          "time": 75.110214,
          "velocity": 0.6299212598425197
        },
        {
          "duration": 1.1020208833333385,
          "durationTicks": 1199,
          "midi": 61,
          "name": "C#4",
          "ticks": 81840,
          "time": 75.220508,
          "velocity": 0.6299212598425197
        },
        {
          "duration": 0.10937488333333079,
          "durationTicks": 119,
          "midi": 57,
          "name": "A3",
          "ticks": 87120,
          "time": 80.07344400000001,
          "velocity": 0.7559055118110236
        },
        {
          "duration": 0.10937488333333079,
          "durationTicks": 119,
          "midi": 57,
          "name": "A3",
          "ticks": 87240,
          "time": 80.183738,
          "velocity": 0.7559055118110236
        },
        {
          "duration": 0.21966888333334111,
          "durationTicks": 239,
          "midi": 57,
          "name": "A3",
          "ticks": 87360,
          "time": 80.294032,
          "velocity": 0.7559055118110236
        },
        {
          "duration": 0.2196688833333269,
          "durationTicks": 239,
          "midi": 57,
          "name": "A3",
          "ticks": 87600,
          "time": 80.51462000000001,
          "velocity": 0.7559055118110236
        },
        {
          "duration": 0.21966888333334111,
          "durationTicks": 239,
          "midi": 57,
          "name": "A3",
          "ticks": 87840,
          "time": 80.735208,
          "velocity": 0.7559055118110236
        },
        {
          "duration": 0.2196688833333269,
          "durationTicks": 239,
          "midi": 55,
          "name": "G3",
          "ticks": 88080,
          "time": 80.955796,
          "velocity": 0.7559055118110236
        },
        {
          "duration": 0.2196688833333269,
          "durationTicks": 239,
          "midi": 59,
          "name": "B3",
          "ticks": 88560,
          "time": 81.396972,
          "velocity": 0.7559055118110236
        },
        {
          "duration": 0.21966888333334111,
          "durationTicks": 239,
          "midi": 59,
          "name": "B3",
          "ticks": 88800,
          "time": 81.61756,
          "velocity": 0.7559055118110236
        },
        {
          "duration": 0.2196688833333269,
          "durationTicks": 239,
          "midi": 59,
          "name": "B3",
          "ticks": 89040,
          "time": 81.838148,
          "velocity": 0.7559055118110236
        },
        {
          "duration": 0.44025688333333335,
          "durationTicks": 479,
          "midi": 57,
          "name": "A3",
          "ticks": 89280,
          "time": 82.058736,
          "velocity": 0.7559055118110236
        },
        {
          "duration": 0.2196688833333269,
          "durationTicks": 239,
          "midi": 57,
          "name": "A3",
          "ticks": 89760,
          "time": 82.49991200000001,
          "velocity": 0.7559055118110236
        },
        {
          "duration": 0.21966888333334111,
          "durationTicks": 239,
          "midi": 55,
          "name": "G3",
          "ticks": 90000,
          "time": 82.7205,
          "velocity": 0.7559055118110236
        },
        {
          "duration": 0.109374883333345,
          "durationTicks": 119,
          "midi": 55,
          "name": "G3",
          "ticks": 90960,
          "time": 83.602852,
          "velocity": 0.7559055118110236
        },
        {
          "duration": 0.10937488333333079,
          "durationTicks": 119,
          "midi": 55,
          "name": "G3",
          "ticks": 91080,
          "time": 83.71314600000001,
          "velocity": 0.7559055118110236
        },
        {
          "duration": 0.2196688833333269,
          "durationTicks": 239,
          "midi": 57,
          "name": "A3",
          "ticks": 91200,
          "time": 83.82344,
          "velocity": 0.7559055118110236
        },
        {
          "duration": 0.21966888333334111,
          "durationTicks": 239,
          "midi": 57,
          "name": "A3",
          "ticks": 91440,
          "time": 84.044028,
          "velocity": 0.7559055118110236
        },
        {
          "duration": 0.2196688833333269,
          "durationTicks": 239,
          "midi": 57,
          "name": "A3",
          "ticks": 91680,
          "time": 84.264616,
          "velocity": 0.7559055118110236
        },
        {
          "duration": 0.21966888333334111,
          "durationTicks": 239,
          "midi": 55,
          "name": "G3",
          "ticks": 91920,
          "time": 84.485204,
          "velocity": 0.7559055118110236
        },
        {
          "duration": 0.10937488333333079,
          "durationTicks": 119,
          "midi": 59,
          "name": "B3",
          "ticks": 92400,
          "time": 84.92638000000001,
          "velocity": 0.7559055118110236
        },
        {
          "duration": 0.10937488333333079,
          "durationTicks": 119,
          "midi": 59,
          "name": "B3",
          "ticks": 92520,
          "time": 85.036674,
          "velocity": 0.7559055118110236
        },
        {
          "duration": 0.21966888333334111,
          "durationTicks": 239,
          "midi": 59,
          "name": "B3",
          "ticks": 92640,
          "time": 85.146968,
          "velocity": 0.7559055118110236
        },
        {
          "duration": 0.2196688833333269,
          "durationTicks": 239,
          "midi": 59,
          "name": "B3",
          "ticks": 92880,
          "time": 85.36755600000001,
          "velocity": 0.7559055118110236
        },
        {
          "duration": 0.21966888333334111,
          "durationTicks": 239,
          "midi": 57,
          "name": "A3",
          "ticks": 93120,
          "time": 85.588144,
          "velocity": 0.7559055118110236
        },
        {
          "duration": 0.44025688333333335,
          "durationTicks": 479,
          "midi": 59,
          "name": "B3",
          "ticks": 93360,
          "time": 85.808732,
          "velocity": 0.7559055118110236
        },
        {
          "duration": 0.6608448833333256,
          "durationTicks": 719,
          "midi": 59,
          "name": "B3",
          "ticks": 93840,
          "time": 86.249908,
          "velocity": 0.7559055118110236
        },
        {
          "duration": 0.21966888333334111,
          "durationTicks": 239,
          "midi": 57,
          "name": "A3",
          "ticks": 94800,
          "time": 87.13226,
          "velocity": 0.7559055118110236
        },
        {
          "duration": 0.2196688833333269,
          "durationTicks": 239,
          "midi": 59,
          "name": "B3",
          "ticks": 95040,
          "time": 87.35284800000001,
          "velocity": 0.7559055118110236
        },
        {
          "duration": 0.21966888333334111,
          "durationTicks": 239,
          "midi": 59,
          "name": "B3",
          "ticks": 95280,
          "time": 87.573436,
          "velocity": 0.7559055118110236
        },
        {
          "duration": 0.2196688833333269,
          "durationTicks": 239,
          "midi": 59,
          "name": "B3",
          "ticks": 95520,
          "time": 87.79402400000001,
          "velocity": 0.7559055118110236
        },
        {
          "duration": 0.21966888333334111,
          "durationTicks": 239,
          "midi": 55,
          "name": "G3",
          "ticks": 95760,
          "time": 88.014612,
          "velocity": 0.7559055118110236
        },
        {
          "duration": 0.21966888333334111,
          "durationTicks": 239,
          "midi": 62,
          "name": "D4",
          "ticks": 96240,
          "time": 88.455788,
          "velocity": 0.7559055118110236
        },
        {
          "duration": 0.2196688833333269,
          "durationTicks": 239,
          "midi": 62,
          "name": "D4",
          "ticks": 96480,
          "time": 88.676376,
          "velocity": 0.7559055118110236
        },
        {
          "duration": 0.44025688333333335,
          "durationTicks": 479,
          "midi": 62,
          "name": "D4",
          "ticks": 96720,
          "time": 88.896964,
          "velocity": 0.7559055118110236
        },
        {
          "duration": 0.21966888333334111,
          "durationTicks": 239,
          "midi": 55,
          "name": "G3",
          "ticks": 97200,
          "time": 89.33814,
          "velocity": 0.7559055118110236
        },
        {
          "duration": 0.21966888333334111,
          "durationTicks": 239,
          "midi": 55,
          "name": "G3",
          "ticks": 97440,
          "time": 89.558728,
          "velocity": 0.7559055118110236
        },
        {
          "duration": 0.2196688833333269,
          "durationTicks": 239,
          "midi": 55,
          "name": "G3",
          "ticks": 97680,
          "time": 89.77931600000001,
          "velocity": 0.7559055118110236
        },
        {
          "duration": 0.21966888333334111,
          "durationTicks": 239,
          "midi": 54,
          "name": "F#3",
          "ticks": 97920,
          "time": 89.999904,
          "velocity": 0.7559055118110236
        },
        {
          "duration": 0.2196688833333269,
          "durationTicks": 239,
          "midi": 55,
          "name": "G3",
          "ticks": 98160,
          "time": 90.22049200000001,
          "velocity": 0.7559055118110236
        },
        {
          "duration": 0.21966888333334111,
          "durationTicks": 239,
          "midi": 54,
          "name": "F#3",
          "ticks": 98400,
          "time": 90.44108,
          "velocity": 0.7559055118110236
        },
        {
          "duration": 0.2196688833333269,
          "durationTicks": 239,
          "midi": 50,
          "name": "D3",
          "ticks": 98640,
          "time": 90.661668,
          "velocity": 0.7559055118110236
        },
        {
          "duration": 0.881432883333332,
          "durationTicks": 959,
          "midi": 52,
          "name": "E3",
          "ticks": 98880,
          "time": 90.882256,
          "velocity": 0.7559055118110236
        },
        {
          "duration": 0.21966888333334111,
          "durationTicks": 239,
          "midi": 52,
          "name": "E3",
          "ticks": 100080,
          "time": 91.985196,
          "velocity": 0.7559055118110236
        },
        {
          "duration": 0.2196688833333269,
          "durationTicks": 239,
          "midi": 59,
          "name": "B3",
          "ticks": 100320,
          "time": 92.20578400000001,
          "velocity": 0.7559055118110236
        },
        {
          "duration": 1.1020208833333385,
          "durationTicks": 1199,
          "midi": 59,
          "name": "B3",
          "ticks": 100560,
          "time": 92.426372,
          "velocity": 0.7559055118110236
        },
        {
          "duration": 0.21966888333334111,
          "durationTicks": 239,
          "midi": 50,
          "name": "D3",
          "ticks": 102720,
          "time": 94.411664,
          "velocity": 0.6299212598425197
        },
        {
          "duration": 0.2196688833333269,
          "durationTicks": 239,
          "midi": 50,
          "name": "D3",
          "ticks": 102960,
          "time": 94.63225200000001,
          "velocity": 0.6299212598425197
        },
        {
          "duration": 0.21966888333334111,
          "durationTicks": 239,
          "midi": 50,
          "name": "D3",
          "ticks": 103200,
          "time": 94.85284,
          "velocity": 0.6299212598425197
        },
        {
          "duration": 0.2196688833333269,
          "durationTicks": 239,
          "midi": 47,
          "name": "B2",
          "ticks": 103440,
          "time": 95.073428,
          "velocity": 0.6299212598425197
        },
        {
          "duration": 0.21966888333334111,
          "durationTicks": 239,
          "midi": 50,
          "name": "D3",
          "ticks": 103680,
          "time": 95.294016,
          "velocity": 0.6299212598425197
        },
        {
          "duration": 0.2196688833333269,
          "durationTicks": 239,
          "midi": 52,
          "name": "E3",
          "ticks": 103920,
          "time": 95.514604,
          "velocity": 0.6299212598425197
        },
        {
          "duration": 0.21966888333334111,
          "durationTicks": 239,
          "midi": 52,
          "name": "E3",
          "ticks": 104160,
          "time": 95.735192,
          "velocity": 0.6299212598425197
        },
        {
          "duration": 0.21966888333334111,
          "durationTicks": 239,
          "midi": 52,
          "name": "E3",
          "ticks": 106320,
          "time": 97.720484,
          "velocity": 0.6299212598425197
        },
        {
          "duration": 0.2196688833333269,
          "durationTicks": 239,
          "midi": 50,
          "name": "D3",
          "ticks": 106560,
          "time": 97.941072,
          "velocity": 0.6299212598425197
        },
        {
          "duration": 0.21966888333334111,
          "durationTicks": 239,
          "midi": 50,
          "name": "D3",
          "ticks": 106800,
          "time": 98.16166,
          "velocity": 0.6299212598425197
        },
        {
          "duration": 0.2196688833333269,
          "durationTicks": 239,
          "midi": 50,
          "name": "D3",
          "ticks": 107040,
          "time": 98.382248,
          "velocity": 0.6299212598425197
        },
        {
          "duration": 0.21966888333334111,
          "durationTicks": 239,
          "midi": 47,
          "name": "B2",
          "ticks": 107280,
          "time": 98.602836,
          "velocity": 0.6299212598425197
        },
        {
          "duration": 0.21966888333334111,
          "durationTicks": 239,
          "midi": 54,
          "name": "F#3",
          "ticks": 107520,
          "time": 98.823424,
          "velocity": 0.6299212598425197
        },
        {
          "duration": 0.2196688833333269,
          "durationTicks": 239,
          "midi": 52,
          "name": "E3",
          "ticks": 107760,
          "time": 99.04401200000001,
          "velocity": 0.6299212598425197
        },
        {
          "duration": 0.21966888333334111,
          "durationTicks": 239,
          "midi": 52,
          "name": "E3",
          "ticks": 108000,
          "time": 99.2646,
          "velocity": 0.6299212598425197
        },
        {
          "duration": 0.21966888333334111,
          "durationTicks": 239,
          "midi": 52,
          "name": "E3",
          "ticks": 110160,
          "time": 101.249892,
          "velocity": 0.6299212598425197
        },
        {
          "duration": 0.2196688833333269,
          "durationTicks": 239,
          "midi": 50,
          "name": "D3",
          "ticks": 110400,
          "time": 101.47048000000001,
          "velocity": 0.6299212598425197
        },
        {
          "duration": 0.21966888333334111,
          "durationTicks": 239,
          "midi": 50,
          "name": "D3",
          "ticks": 110640,
          "time": 101.691068,
          "velocity": 0.6299212598425197
        },
        {
          "duration": 0.2196688833333269,
          "durationTicks": 239,
          "midi": 50,
          "name": "D3",
          "ticks": 110880,
          "time": 101.91165600000001,
          "velocity": 0.6299212598425197
        },
        {
          "duration": 0.21966888333334111,
          "durationTicks": 239,
          "midi": 47,
          "name": "B2",
          "ticks": 111120,
          "time": 102.132244,
          "velocity": 0.6299212598425197
        },
        {
          "duration": 0.2196688833333269,
          "durationTicks": 239,
          "midi": 50,
          "name": "D3",
          "ticks": 111360,
          "time": 102.352832,
          "velocity": 0.6299212598425197
        },
        {
          "duration": 0.21966888333334111,
          "durationTicks": 239,
          "midi": 52,
          "name": "E3",
          "ticks": 111600,
          "time": 102.57342,
          "velocity": 0.6299212598425197
        },
        {
          "duration": 0.6608448833333398,
          "durationTicks": 719,
          "midi": 62,
          "name": "D4",
          "ticks": 112080,
          "time": 103.014596,
          "velocity": 0.7559055118110236
        },
        {
          "duration": 0.44025688333333335,
          "durationTicks": 479,
          "midi": 60,
          "name": "C4",
          "ticks": 112800,
          "time": 103.67636,
          "velocity": 0.6299212598425197
        },
        {
          "duration": 0.44025688333333335,
          "durationTicks": 479,
          "midi": 59,
          "name": "B3",
          "ticks": 113280,
          "time": 104.117536,
          "velocity": 0.6299212598425197
        },
        {
          "duration": 0.44025688333333335,
          "durationTicks": 479,
          "midi": 57,
          "name": "A3",
          "ticks": 117840,
          "time": 108.30870800000001,
          "velocity": 0.6299212598425197
        },
        {
          "duration": 0.10937488333333079,
          "durationTicks": 119,
          "midi": 57,
          "name": "A3",
          "ticks": 118320,
          "time": 108.74988400000001,
          "velocity": 0.6299212598425197
        },
        {
          "duration": 0.10937488333333079,
          "durationTicks": 119,
          "midi": 57,
          "name": "A3",
          "ticks": 118560,
          "time": 108.970472,
          "velocity": 0.6299212598425197
        },
        {
          "duration": 0.10937488333333079,
          "durationTicks": 119,
          "midi": 57,
          "name": "A3",
          "ticks": 118800,
          "time": 109.19106000000001,
          "velocity": 0.6299212598425197
        },
        {
          "duration": 0.21966888333334111,
          "durationTicks": 239,
          "midi": 56,
          "name": "G#3",
          "ticks": 119040,
          "time": 109.411648,
          "velocity": 0.6299212598425197
        },
        {
          "duration": 0.44025688333333335,
          "durationTicks": 479,
          "midi": 55,
          "name": "G3",
          "ticks": 120480,
          "time": 110.73517600000001,
          "velocity": 0.905511811023622
        },
        {
          "duration": 0.10937488333333079,
          "durationTicks": 119,
          "midi": 50,
          "name": "D3",
          "ticks": 121200,
          "time": 111.39694,
          "velocity": 0.7559055118110236
        },
        {
          "duration": 0.2196688833333269,
          "durationTicks": 239,
          "midi": 54,
          "name": "F#3",
          "ticks": 121440,
          "time": 111.61752800000001,
          "velocity": 0.7559055118110236
        },
        {
          "duration": 0.21966888333334111,
          "durationTicks": 239,
          "midi": 55,
          "name": "G3",
          "ticks": 121680,
          "time": 111.838116,
          "velocity": 0.7559055118110236
        },
        {
          "duration": 0.2196688833333269,
          "durationTicks": 239,
          "midi": 54,
          "name": "F#3",
          "ticks": 121920,
          "time": 112.058704,
          "velocity": 0.7559055118110236
        },
        {
          "duration": 0.109374883333345,
          "durationTicks": 119,
          "midi": 55,
          "name": "G3",
          "ticks": 122160,
          "time": 112.279292,
          "velocity": 0.7559055118110236
        },
        {
          "duration": 0.6608448833333256,
          "durationTicks": 719,
          "midi": 55,
          "name": "G3",
          "ticks": 122640,
          "time": 112.720468,
          "velocity": 0.905511811023622
        },
        {
          "duration": 0.2196688833333269,
          "durationTicks": 239,
          "midi": 54,
          "name": "F#3",
          "ticks": 123360,
          "time": 113.382232,
          "velocity": 0.7559055118110236
        },
        {
          "duration": 0.2196688833333127,
          "durationTicks": 239,
          "midi": 55,
          "name": "G3",
          "ticks": 123600,
          "time": 113.60282000000001,
          "velocity": 0.7559055118110236
        },
        {
          "duration": 0.2196688833333269,
          "durationTicks": 239,
          "midi": 55,
          "name": "G3",
          "ticks": 125280,
          "time": 115.146936,
          "velocity": 0.7559055118110236
        },
        {
          "duration": 0.10937488333331657,
          "durationTicks": 119,
          "midi": 54,
          "name": "F#3",
          "ticks": 125520,
          "time": 115.367524,
          "velocity": 0.7559055118110236
        },
        {
          "duration": 0.2196688833333127,
          "durationTicks": 239,
          "midi": 53,
          "name": "F3",
          "ticks": 125760,
          "time": 115.58811200000001,
          "velocity": 0.7559055118110236
        },
        {
          "duration": 0.2196688833333269,
          "durationTicks": 239,
          "midi": 55,
          "name": "G3",
          "ticks": 126000,
          "time": 115.8087,
          "velocity": 0.7559055118110236
        },
        {
          "duration": 0.10937488333331657,
          "durationTicks": 119,
          "midi": 57,
          "name": "A3",
          "ticks": 126240,
          "time": 116.02928800000001,
          "velocity": 0.7559055118110236
        },
        {
          "duration": 0.44025688333331914,
          "durationTicks": 479,
          "midi": 59,
          "name": "B3",
          "ticks": 126480,
          "time": 116.249876,
          "velocity": 0.7559055118110236
        },
        {
          "duration": 0.10937488333333079,
          "durationTicks": 119,
          "midi": 57,
          "name": "A3",
          "ticks": 126960,
          "time": 116.691052,
          "velocity": 0.7559055118110236
        },
        {
          "duration": 0.44025688333331914,
          "durationTicks": 479,
          "midi": 55,
          "name": "G3",
          "ticks": 127200,
          "time": 116.91164,
          "velocity": 0.7559055118110236
        },
        {
          "duration": 0.2196688833333127,
          "durationTicks": 239,
          "midi": 50,
          "name": "D3",
          "ticks": 128400,
          "time": 118.01458000000001,
          "velocity": 0.7559055118110236
        },
        {
          "duration": 0.2196688833333269,
          "durationTicks": 239,
          "midi": 52,
          "name": "E3",
          "ticks": 128640,
          "time": 118.235168,
          "velocity": 0.7559055118110236
        },
        {
          "duration": 0.2196688833333127,
          "durationTicks": 239,
          "midi": 54,
          "name": "F#3",
          "ticks": 128880,
          "time": 118.45575600000001,
          "velocity": 0.7559055118110236
        },
        {
          "duration": 0.2196688833333269,
          "durationTicks": 239,
          "midi": 55,
          "name": "G3",
          "ticks": 129120,
          "time": 118.676344,
          "velocity": 0.7559055118110236
        },
        {
          "duration": 0.2196688833333127,
          "durationTicks": 239,
          "midi": 57,
          "name": "A3",
          "ticks": 129360,
          "time": 118.896932,
          "velocity": 0.7559055118110236
        },
        {
          "duration": 0.2196688833333127,
          "durationTicks": 239,
          "midi": 55,
          "name": "G3",
          "ticks": 129840,
          "time": 119.338108,
          "velocity": 0.7559055118110236
        },
        {
          "duration": 0.2196688833333269,
          "durationTicks": 239,
          "midi": 54,
          "name": "F#3",
          "ticks": 130080,
          "time": 119.558696,
          "velocity": 0.7559055118110236
        },
        {
          "duration": 0.44025688333331914,
          "durationTicks": 479,
          "midi": 55,
          "name": "G3",
          "ticks": 130320,
          "time": 119.779284,
          "velocity": 0.7559055118110236
        },
        {
          "duration": 0.2196688833333269,
          "durationTicks": 239,
          "midi": 54,
          "name": "F#3",
          "ticks": 130800,
          "time": 120.22046,
          "velocity": 0.7559055118110236
        },
        {
          "duration": 0.2196688833333127,
          "durationTicks": 239,
          "midi": 52,
          "name": "E3",
          "ticks": 131040,
          "time": 120.44104800000001,
          "velocity": 0.7559055118110236
        },
        {
          "duration": 0.2196688833333269,
          "durationTicks": 239,
          "midi": 50,
          "name": "D3",
          "ticks": 131280,
          "time": 120.661636,
          "velocity": 0.7559055118110236
        },
        {
          "duration": 0.44025688333331914,
          "durationTicks": 479,
          "midi": 45,
          "name": "A2",
          "ticks": 131520,
          "time": 120.88222400000001,
          "velocity": 0.7559055118110236
        },
        {
          "duration": 0.44025688333331914,
          "durationTicks": 479,
          "midi": 47,
          "name": "B2",
          "ticks": 132000,
          "time": 121.3234,
          "velocity": 0.7559055118110236
        },
        {
          "duration": 0.44025688333331914,
          "durationTicks": 479,
          "midi": 48,
          "name": "C3",
          "ticks": 132480,
          "time": 121.764576,
          "velocity": 0.7559055118110236
        },
        {
          "duration": 0.44025688333331914,
          "durationTicks": 479,
          "midi": 45,
          "name": "A2",
          "ticks": 132960,
          "time": 122.205752,
          "velocity": 0.7559055118110236
        },
        {
          "duration": 0.8814328833333178,
          "durationTicks": 959,
          "midi": 55,
          "name": "G3",
          "ticks": 133440,
          "time": 122.646928,
          "velocity": 0.7559055118110236
        },
        {
          "duration": 0.6608448833333256,
          "durationTicks": 719,
          "midi": 54,
          "name": "F#3",
          "ticks": 134400,
          "time": 123.52928,
          "velocity": 0.7559055118110236
        },
        {
          "duration": 0.2196688833333269,
          "durationTicks": 239,
          "midi": 55,
          "name": "G3",
          "ticks": 135120,
          "time": 124.191044,
          "velocity": 0.7559055118110236
        },
        {
          "duration": 0.10937488333331657,
          "durationTicks": 119,
          "midi": 45,
          "name": "A2",
          "ticks": 135600,
          "time": 124.63222,
          "velocity": 0.7559055118110236
        },
        {
          "duration": 0.10937488333333079,
          "durationTicks": 119,
          "midi": 46,
          "name": "A#2",
          "ticks": 135720,
          "time": 124.742514,
          "velocity": 0.7559055118110236
        },
        {
          "duration": 0.10937488333331657,
          "durationTicks": 119,
          "midi": 47,
          "name": "B2",
          "ticks": 135840,
          "time": 124.85280800000001,
          "velocity": 0.7559055118110236
        },
        {
          "duration": 0.10937488333331657,
          "durationTicks": 119,
          "midi": 50,
          "name": "D3",
          "ticks": 135960,
          "time": 124.963102,
          "velocity": 0.7559055118110236
        },
        {
          "duration": 0.10937488333331657,
          "durationTicks": 119,
          "midi": 45,
          "name": "A2",
          "ticks": 136320,
          "time": 125.29398400000001,
          "velocity": 0.7559055118110236
        },
        {
          "duration": 0.10937488333331657,
          "durationTicks": 119,
          "midi": 46,
          "name": "A#2",
          "ticks": 136440,
          "time": 125.404278,
          "velocity": 0.7559055118110236
        },
        {
          "duration": 0.10937488333333079,
          "durationTicks": 119,
          "midi": 47,
          "name": "B2",
          "ticks": 136560,
          "time": 125.514572,
          "velocity": 0.7559055118110236
        },
        {
          "duration": 0.10937488333333079,
          "durationTicks": 119,
          "midi": 50,
          "name": "D3",
          "ticks": 136680,
          "time": 125.624866,
          "velocity": 0.7559055118110236
        },
        {
          "duration": 0.10937488333333079,
          "durationTicks": 119,
          "midi": 52,
          "name": "E3",
          "ticks": 137040,
          "time": 125.955748,
          "velocity": 0.7559055118110236
        },
        {
          "duration": 0.10937488333331657,
          "durationTicks": 119,
          "midi": 52,
          "name": "E3",
          "ticks": 137160,
          "time": 126.06604200000001,
          "velocity": 0.7559055118110236
        },
        {
          "duration": 0.10937488333333079,
          "durationTicks": 119,
          "midi": 45,
          "name": "A2",
          "ticks": 137520,
          "time": 126.396924,
          "velocity": 0.7559055118110236
        },
        {
          "duration": 0.10937488333331657,
          "durationTicks": 119,
          "midi": 46,
          "name": "A#2",
          "ticks": 137640,
          "time": 126.50721800000001,
          "velocity": 0.7559055118110236
        },
        {
          "duration": 0.10937488333331657,
          "durationTicks": 119,
          "midi": 47,
          "name": "B2",
          "ticks": 137760,
          "time": 126.617512,
          "velocity": 0.7559055118110236
        },
        {
          "duration": 0.10937488333333079,
          "durationTicks": 119,
          "midi": 50,
          "name": "D3",
          "ticks": 137880,
          "time": 126.727806,
          "velocity": 0.7559055118110236
        },
        {
          "duration": 0.44025688333331914,
          "durationTicks": 479,
          "midi": 55,
          "name": "G3",
          "ticks": 138240,
          "time": 127.058688,
          "velocity": 0.7559055118110236
        },
        {
          "duration": 0.329962883333323,
          "durationTicks": 359,
          "midi": 57,
          "name": "A3",
          "ticks": 138720,
          "time": 127.499864,
          "velocity": 0.7559055118110236
        },
        {
          "duration": 0.10937488333331657,
          "durationTicks": 119,
          "midi": 52,
          "name": "E3",
          "ticks": 139080,
          "time": 127.830746,
          "velocity": 0.7559055118110236
        },
        {
          "duration": 0.10937488333331657,
          "durationTicks": 119,
          "midi": 45,
          "name": "A2",
          "ticks": 139440,
          "time": 128.161628,
          "velocity": 0.7559055118110236
        },
        {
          "duration": 0.10937488333331657,
          "durationTicks": 119,
          "midi": 46,
          "name": "A#2",
          "ticks": 139560,
          "time": 128.27192200000002,
          "velocity": 0.7559055118110236
        },
        {
          "duration": 0.10937488333331657,
          "durationTicks": 119,
          "midi": 47,
          "name": "B2",
          "ticks": 139680,
          "time": 128.382216,
          "velocity": 0.7559055118110236
        },
        {
          "duration": 0.10937488333331657,
          "durationTicks": 119,
          "midi": 50,
          "name": "D3",
          "ticks": 139800,
          "time": 128.49251,
          "velocity": 0.7559055118110236
        },
        {
          "duration": 0.10937488333331657,
          "durationTicks": 119,
          "midi": 45,
          "name": "A2",
          "ticks": 140160,
          "time": 128.823392,
          "velocity": 0.7559055118110236
        },
        {
          "duration": 0.109374883333345,
          "durationTicks": 119,
          "midi": 46,
          "name": "A#2",
          "ticks": 140280,
          "time": 128.933686,
          "velocity": 0.7559055118110236
        },
        {
          "duration": 0.10937488333331657,
          "durationTicks": 119,
          "midi": 47,
          "name": "B2",
          "ticks": 140400,
          "time": 129.04398,
          "velocity": 0.7559055118110236
        },
        {
          "duration": 0.10937488333331657,
          "durationTicks": 119,
          "midi": 50,
          "name": "D3",
          "ticks": 140520,
          "time": 129.15427400000002,
          "velocity": 0.7559055118110236
        },
        {
          "duration": 0.10937488333331657,
          "durationTicks": 119,
          "midi": 52,
          "name": "E3",
          "ticks": 140880,
          "time": 129.48515600000002,
          "velocity": 0.7559055118110236
        },
        {
          "duration": 0.10937488333331657,
          "durationTicks": 119,
          "midi": 52,
          "name": "E3",
          "ticks": 141000,
          "time": 129.59545,
          "velocity": 0.7559055118110236
        },
        {
          "duration": 0.10937488333331657,
          "durationTicks": 119,
          "midi": 59,
          "name": "B3",
          "ticks": 141360,
          "time": 129.926332,
          "velocity": 0.7559055118110236
        },
        {
          "duration": 0.10937488333331657,
          "durationTicks": 119,
          "midi": 57,
          "name": "A3",
          "ticks": 141480,
          "time": 130.036626,
          "velocity": 0.7559055118110236
        },
        {
          "duration": 0.109374883333345,
          "durationTicks": 119,
          "midi": 55,
          "name": "G3",
          "ticks": 141600,
          "time": 130.14692,
          "velocity": 0.7559055118110236
        },
        {
          "duration": 0.10937488333331657,
          "durationTicks": 119,
          "midi": 52,
          "name": "E3",
          "ticks": 141720,
          "time": 130.257214,
          "velocity": 0.7559055118110236
        },
        {
          "duration": 0.44025688333331914,
          "durationTicks": 479,
          "midi": 55,
          "name": "G3",
          "ticks": 142080,
          "time": 130.588096,
          "velocity": 0.7559055118110236
        },
        {
          "duration": 0.32996288333333723,
          "durationTicks": 359,
          "midi": 57,
          "name": "A3",
          "ticks": 142560,
          "time": 131.029272,
          "velocity": 0.7559055118110236
        },
        {
          "duration": 0.109374883333345,
          "durationTicks": 119,
          "midi": 52,
          "name": "E3",
          "ticks": 142920,
          "time": 131.360154,
          "velocity": 0.7559055118110236
        },
        {
          "duration": 0.10937488333331657,
          "durationTicks": 119,
          "midi": 45,
          "name": "A2",
          "ticks": 143280,
          "time": 131.691036,
          "velocity": 0.7559055118110236
        },
        {
          "duration": 0.10937488333331657,
          "durationTicks": 119,
          "midi": 46,
          "name": "A#2",
          "ticks": 143400,
          "time": 131.80133,
          "velocity": 0.7559055118110236
        },
        {
          "duration": 0.10937488333331657,
          "durationTicks": 119,
          "midi": 47,
          "name": "B2",
          "ticks": 143520,
          "time": 131.91162400000002,
          "velocity": 0.7559055118110236
        },
        {
          "duration": 0.10937488333331657,
          "durationTicks": 119,
          "midi": 50,
          "name": "D3",
          "ticks": 143640,
          "time": 132.021918,
          "velocity": 0.7559055118110236
        },
        {
          "duration": 0.10937488333331657,
          "durationTicks": 119,
          "midi": 45,
          "name": "A2",
          "ticks": 144000,
          "time": 132.3528,
          "velocity": 0.7559055118110236
        },
        {
          "duration": 0.10937488333331657,
          "durationTicks": 119,
          "midi": 46,
          "name": "A#2",
          "ticks": 144120,
          "time": 132.463094,
          "velocity": 0.7559055118110236
        },
        {
          "duration": 0.109374883333345,
          "durationTicks": 119,
          "midi": 47,
          "name": "B2",
          "ticks": 144240,
          "time": 132.573388,
          "velocity": 0.7559055118110236
        },
        {
          "duration": 0.10937488333331657,
          "durationTicks": 119,
          "midi": 50,
          "name": "D3",
          "ticks": 144360,
          "time": 132.683682,
          "velocity": 0.7559055118110236
        },
        {
          "duration": 0.10937488333331657,
          "durationTicks": 119,
          "midi": 52,
          "name": "E3",
          "ticks": 144720,
          "time": 133.014564,
          "velocity": 0.7559055118110236
        },
        {
          "duration": 0.10937488333331657,
          "durationTicks": 119,
          "midi": 52,
          "name": "E3",
          "ticks": 144840,
          "time": 133.12485800000002,
          "velocity": 0.7559055118110236
        },
        {
          "duration": 0.109374883333345,
          "durationTicks": 119,
          "midi": 45,
          "name": "A2",
          "ticks": 145200,
          "time": 133.45574,
          "velocity": 0.7559055118110236
        },
        {
          "duration": 0.10937488333331657,
          "durationTicks": 119,
          "midi": 46,
          "name": "A#2",
          "ticks": 145320,
          "time": 133.566034,
          "velocity": 0.7559055118110236
        },
        {
          "duration": 0.10937488333331657,
          "durationTicks": 119,
          "midi": 47,
          "name": "B2",
          "ticks": 145440,
          "time": 133.676328,
          "velocity": 0.7559055118110236
        },
        {
          "duration": 0.109374883333345,
          "durationTicks": 119,
          "midi": 50,
          "name": "D3",
          "ticks": 145560,
          "time": 133.786622,
          "velocity": 0.7559055118110236
        },
        {
          "duration": 0.44025688333331914,
          "durationTicks": 479,
          "midi": 55,
          "name": "G3",
          "ticks": 145920,
          "time": 134.117504,
          "velocity": 0.7559055118110236
        },
        {
          "duration": 0.3299628833333088,
          "durationTicks": 359,
          "midi": 57,
          "name": "A3",
          "ticks": 146400,
          "time": 134.55868,
          "velocity": 0.7559055118110236
        },
        {
          "duration": 0.10937488333331657,
          "durationTicks": 119,
          "midi": 52,
          "name": "E3",
          "ticks": 146760,
          "time": 134.889562,
          "velocity": 0.7559055118110236
        },
        {
          "duration": 0.10937488333331657,
          "durationTicks": 119,
          "midi": 45,
          "name": "A2",
          "ticks": 147120,
          "time": 135.22044400000001,
          "velocity": 0.7559055118110236
        },
        {
          "duration": 0.10937488333331657,
          "durationTicks": 119,
          "midi": 46,
          "name": "A#2",
          "ticks": 147240,
          "time": 135.330738,
          "velocity": 0.7559055118110236
        },
        {
          "duration": 0.10937488333331657,
          "durationTicks": 119,
          "midi": 47,
          "name": "B2",
          "ticks": 147360,
          "time": 135.441032,
          "velocity": 0.7559055118110236
        },
        {
          "duration": 0.10937488333331657,
          "durationTicks": 119,
          "midi": 50,
          "name": "D3",
          "ticks": 147480,
          "time": 135.55132600000002,
          "velocity": 0.7559055118110236
        },
        {
          "duration": 0.109374883333345,
          "durationTicks": 119,
          "midi": 45,
          "name": "A2",
          "ticks": 147840,
          "time": 135.882208,
          "velocity": 0.7559055118110236
        },
        {
          "duration": 0.10937488333331657,
          "durationTicks": 119,
          "midi": 46,
          "name": "A#2",
          "ticks": 147960,
          "time": 135.992502,
          "velocity": 0.7559055118110236
        },
        {
          "duration": 0.10937488333331657,
          "durationTicks": 119,
          "midi": 47,
          "name": "B2",
          "ticks": 148080,
          "time": 136.102796,
          "velocity": 0.7559055118110236
        },
        {
          "duration": 0.109374883333345,
          "durationTicks": 119,
          "midi": 50,
          "name": "D3",
          "ticks": 148200,
          "time": 136.21309,
          "velocity": 0.7559055118110236
        },
        {
          "duration": 0.10937488333331657,
          "durationTicks": 119,
          "midi": 52,
          "name": "E3",
          "ticks": 148560,
          "time": 136.543972,
          "velocity": 0.7559055118110236
        },
        {
          "duration": 0.10937488333331657,
          "durationTicks": 119,
          "midi": 52,
          "name": "E3",
          "ticks": 148680,
          "time": 136.654266,
          "velocity": 0.7559055118110236
        },
        {
          "duration": 0.10937488333331657,
          "durationTicks": 119,
          "midi": 59,
          "name": "B3",
          "ticks": 149040,
          "time": 136.985148,
          "velocity": 0.7559055118110236
        },
        {
          "duration": 0.109374883333345,
          "durationTicks": 119,
          "midi": 57,
          "name": "A3",
          "ticks": 149160,
          "time": 137.095442,
          "velocity": 0.7559055118110236
        },
        {
          "duration": 0.10937488333331657,
          "durationTicks": 119,
          "midi": 55,
          "name": "G3",
          "ticks": 149280,
          "time": 137.205736,
          "velocity": 0.7559055118110236
        },
        {
          "duration": 0.10937488333331657,
          "durationTicks": 119,
          "midi": 52,
          "name": "E3",
          "ticks": 149400,
          "time": 137.31603,
          "velocity": 0.7559055118110236
        },
        {
          "duration": 0.44025688333331914,
          "durationTicks": 479,
          "midi": 55,
          "name": "G3",
          "ticks": 149760,
          "time": 137.64691200000001,
          "velocity": 0.7559055118110236
        },
        {
          "duration": 0.32996288333333723,
          "durationTicks": 359,
          "midi": 57,
          "name": "A3",
          "ticks": 150240,
          "time": 138.088088,
          "velocity": 0.7559055118110236
        },
        {
          "duration": 0.10937488333331657,
          "durationTicks": 119,
          "midi": 52,
          "name": "E3",
          "ticks": 150600,
          "time": 138.41897,
          "velocity": 0.7559055118110236
        },
        {
          "duration": 0.029411733333319035,
          "durationTicks": 32,
          "midi": 52,
          "name": "E3",
          "ticks": 151440,
          "time": 139.19102800000002,
          "velocity": 0.7559055118110236
        },
        {
          "duration": 0.029411733333347456,
          "durationTicks": 32,
          "midi": 53,
          "name": "F3",
          "ticks": 151473,
          "time": 139.22135885,
          "velocity": 0.7559055118110236
        },
        {
          "duration": 0.029411733333319035,
          "durationTicks": 32,
          "midi": 54,
          "name": "F#3",
          "ticks": 151507,
          "time": 139.25260881666668,
          "velocity": 0.7559055118110236
        },
        {
          "duration": 0.029411733333319035,
          "durationTicks": 32,
          "midi": 55,
          "name": "G3",
          "ticks": 151542,
          "time": 139.2847779,
          "velocity": 0.7559055118110236
        },
        {
          "duration": 0.029411733333319035,
          "durationTicks": 32,
          "midi": 56,
          "name": "G#3",
          "ticks": 151575,
          "time": 139.31510875,
          "velocity": 0.7559055118110236
        },
        {
          "duration": 0.029411733333347456,
          "durationTicks": 32,
          "midi": 57,
          "name": "A3",
          "ticks": 151609,
          "time": 139.34635871666666,
          "velocity": 0.7559055118110236
        },
        {
          "duration": 0.03216908333331503,
          "durationTicks": 35,
          "midi": 58,
          "name": "A#3",
          "ticks": 151644,
          "time": 139.3785278,
          "velocity": 0.7559055118110236
        },
        {
          "duration": 0.10937488333331657,
          "durationTicks": 119,
          "midi": 59,
          "name": "B3",
          "ticks": 151680,
          "time": 139.411616,
          "velocity": 0.7559055118110236
        },
        {
          "duration": 0.10937488333331657,
          "durationTicks": 119,
          "midi": 57,
          "name": "A3",
          "ticks": 151920,
          "time": 139.632204,
          "velocity": 0.7559055118110236
        },
        {
          "duration": 0.109374883333345,
          "durationTicks": 119,
          "midi": 55,
          "name": "G3",
          "ticks": 152160,
          "time": 139.852792,
          "velocity": 0.7559055118110236
        },
        {
          "duration": 0.2196688833333269,
          "durationTicks": 239,
          "midi": 52,
          "name": "E3",
          "ticks": 152280,
          "time": 139.963086,
          "velocity": 0.7559055118110236
        },
        {
          "duration": 0.881432883333332,
          "durationTicks": 959,
          "midi": 60,
          "name": "C4",
          "ticks": 154560,
          "time": 142.058672,
          "velocity": 0.25984251968503935
        },
        {
          "duration": 0.44025688333331914,
          "durationTicks": 479,
          "midi": 45,
          "name": "A2",
          "ticks": 166080,
          "time": 152.646896,
          "velocity": 0.25984251968503935
        },
        {
          "duration": 0.44025688333331914,
          "durationTicks": 479,
          "midi": 47,
          "name": "B2",
          "ticks": 166560,
          "time": 153.088072,
          "velocity": 0.25984251968503935
        },
        {
          "duration": 0.44025688333331914,
          "durationTicks": 479,
          "midi": 48,
          "name": "C3",
          "ticks": 167040,
          "time": 153.529248,
          "velocity": 0.25984251968503935
        },
        {
          "duration": 0.44025688333331914,
          "durationTicks": 479,
          "midi": 45,
          "name": "A2",
          "ticks": 167520,
          "time": 153.970424,
          "velocity": 0.25984251968503935
        },
        {
          "duration": 0.881432883333332,
          "durationTicks": 959,
          "midi": 55,
          "name": "G3",
          "ticks": 168000,
          "time": 154.4116,
          "velocity": 0.25984251968503935
        },
        {
          "duration": 0.6608448833333398,
          "durationTicks": 719,
          "midi": 54,
          "name": "F#3",
          "ticks": 168960,
          "time": 155.293952,
          "velocity": 0.25984251968503935
        },
        {
          "duration": 0.2196688833333269,
          "durationTicks": 239,
          "midi": 55,
          "name": "G3",
          "ticks": 169680,
          "time": 155.955716,
          "velocity": 0.25984251968503935
        },
        {
          "duration": 0.8814328833333036,
          "durationTicks": 959,
          "midi": 48,
          "name": "C3",
          "ticks": 169920,
          "time": 156.17630400000002,
          "velocity": 0.9921259842519685
        },
        {
          "duration": 0.8814328833333036,
          "durationTicks": 959,
          "midi": 52,
          "name": "E3",
          "ticks": 170880,
          "time": 157.058656,
          "velocity": 0.9921259842519685
        },
        {
          "duration": 0.44025688333331914,
          "durationTicks": 479,
          "midi": 55,
          "name": "G3",
          "ticks": 172320,
          "time": 158.382184,
          "velocity": 0.905511811023622
        },
        {
          "duration": 0.10937488333331657,
          "durationTicks": 119,
          "midi": 50,
          "name": "D3",
          "ticks": 173040,
          "time": 159.043948,
          "velocity": 0.7559055118110236
        },
        {
          "duration": 0.2196688833333269,
          "durationTicks": 239,
          "midi": 54,
          "name": "F#3",
          "ticks": 173280,
          "time": 159.264536,
          "velocity": 0.7559055118110236
        },
        {
          "duration": 0.2196688833333269,
          "durationTicks": 239,
          "midi": 55,
          "name": "G3",
          "ticks": 173520,
          "time": 159.485124,
          "velocity": 0.7559055118110236
        },
        {
          "duration": 0.2196688833333269,
          "durationTicks": 239,
          "midi": 54,
          "name": "F#3",
          "ticks": 173760,
          "time": 159.705712,
          "velocity": 0.7559055118110236
        },
        {
          "duration": 0.2196688833333269,
          "durationTicks": 239,
          "midi": 55,
          "name": "G3",
          "ticks": 174000,
          "time": 159.9263,
          "velocity": 0.7559055118110236
        },
        {
          "duration": 0.6608448833333114,
          "durationTicks": 719,
          "midi": 55,
          "name": "G3",
          "ticks": 174480,
          "time": 160.367476,
          "velocity": 0.905511811023622
        },
        {
          "duration": 0.21966888333329848,
          "durationTicks": 239,
          "midi": 54,
          "name": "F#3",
          "ticks": 175200,
          "time": 161.02924000000002,
          "velocity": 0.7559055118110236
        },
        {
          "duration": 0.2196688833333269,
          "durationTicks": 239,
          "midi": 55,
          "name": "G3",
          "ticks": 175440,
          "time": 161.249828,
          "velocity": 0.7559055118110236
        },
        {
          "duration": 0.2196688833333269,
          "durationTicks": 239,
          "midi": 55,
          "name": "G3",
          "ticks": 177120,
          "time": 162.793944,
          "velocity": 0.7559055118110236
        },
        {
          "duration": 0.10937488333331657,
          "durationTicks": 119,
          "midi": 54,
          "name": "F#3",
          "ticks": 177360,
          "time": 163.014532,
          "velocity": 0.7559055118110236
        },
        {
          "duration": 0.2196688833333269,
          "durationTicks": 239,
          "midi": 53,
          "name": "F3",
          "ticks": 177600,
          "time": 163.23512,
          "velocity": 0.7559055118110236
        },
        {
          "duration": 0.21966888333329848,
          "durationTicks": 239,
          "midi": 55,
          "name": "G3",
          "ticks": 177840,
          "time": 163.45570800000002,
          "velocity": 0.7559055118110236
        },
        {
          "duration": 0.10937488333331657,
          "durationTicks": 119,
          "midi": 57,
          "name": "A3",
          "ticks": 178080,
          "time": 163.676296,
          "velocity": 0.7559055118110236
        },
        {
          "duration": 0.44025688333331914,
          "durationTicks": 479,
          "midi": 59,
          "name": "B3",
          "ticks": 178320,
          "time": 163.896884,
          "velocity": 0.7559055118110236
        },
        {
          "duration": 0.10937488333331657,
          "durationTicks": 119,
          "midi": 57,
          "name": "A3",
          "ticks": 178800,
          "time": 164.33806,
          "velocity": 0.7559055118110236
        },
        {
          "duration": 0.44025688333331914,
          "durationTicks": 479,
          "midi": 55,
          "name": "G3",
          "ticks": 179040,
          "time": 164.558648,
          "velocity": 0.7559055118110236
        },
        {
          "duration": 0.2196688833333269,
          "durationTicks": 239,
          "midi": 50,
          "name": "D3",
          "ticks": 180240,
          "time": 165.661588,
          "velocity": 0.7559055118110236
        },
        {
          "duration": 0.21966888333329848,
          "durationTicks": 239,
          "midi": 52,
          "name": "E3",
          "ticks": 180480,
          "time": 165.88217600000002,
          "velocity": 0.7559055118110236
        },
        {
          "duration": 0.2196688833333269,
          "durationTicks": 239,
          "midi": 54,
          "name": "F#3",
          "ticks": 180720,
          "time": 166.102764,
          "velocity": 0.7559055118110236
        },
        {
          "duration": 0.2196688833333269,
          "durationTicks": 239,
          "midi": 55,
          "name": "G3",
          "ticks": 180960,
          "time": 166.323352,
          "velocity": 0.7559055118110236
        },
        {
          "duration": 0.2196688833333269,
          "durationTicks": 239,
          "midi": 57,
          "name": "A3",
          "ticks": 181200,
          "time": 166.54394,
          "velocity": 0.7559055118110236
        },
        {
          "duration": 0.2196688833333269,
          "durationTicks": 239,
          "midi": 55,
          "name": "G3",
          "ticks": 181680,
          "time": 166.985116,
          "velocity": 0.7559055118110236
        },
        {
          "duration": 0.2196688833333269,
          "durationTicks": 239,
          "midi": 54,
          "name": "F#3",
          "ticks": 181920,
          "time": 167.205704,
          "velocity": 0.7559055118110236
        },
        {
          "duration": 0.44025688333331914,
          "durationTicks": 479,
          "midi": 55,
          "name": "G3",
          "ticks": 182160,
          "time": 167.42629200000002,
          "velocity": 0.7559055118110236
        },
        {
          "duration": 0.2196688833333269,
          "durationTicks": 239,
          "midi": 54,
          "name": "F#3",
          "ticks": 182640,
          "time": 167.867468,
          "velocity": 0.7559055118110236
        },
        {
          "duration": 0.2196688833333269,
          "durationTicks": 239,
          "midi": 52,
          "name": "E3",
          "ticks": 182880,
          "time": 168.088056,
          "velocity": 0.7559055118110236
        },
        {
          "duration": 0.21966888333329848,
          "durationTicks": 239,
          "midi": 50,
          "name": "D3",
          "ticks": 183120,
          "time": 168.30864400000002,
          "velocity": 0.7559055118110236
        },
        {
          "duration": 0.44025688333331914,
          "durationTicks": 479,
          "midi": 45,
          "name": "A2",
          "ticks": 183360,
          "time": 168.529232,
          "velocity": 0.6299212598425197
        },
        {
          "duration": 0.44025688333334756,
          "durationTicks": 479,
          "midi": 47,
          "name": "B2",
          "ticks": 183840,
          "time": 168.970408,
          "velocity": 0.6299212598425197
        },
        {
          "duration": 0.44025688333331914,
          "durationTicks": 479,
          "midi": 48,
          "name": "C3",
          "ticks": 184320,
          "time": 169.411584,
          "velocity": 0.6299212598425197
        },
        {
          "duration": 0.44025688333331914,
          "durationTicks": 479,
          "midi": 45,
          "name": "A2",
          "ticks": 184800,
          "time": 169.85276000000002,
          "velocity": 0.6299212598425197
        },
        {
          "duration": 0.881432883333332,
          "durationTicks": 959,
          "midi": 55,
          "name": "G3",
          "ticks": 185280,
          "time": 170.293936,
          "velocity": 0.6299212598425197
        },
        {
          "duration": 0.6608448833333398,
          "durationTicks": 719,
          "midi": 54,
          "name": "F#3",
          "ticks": 186240,
          "time": 171.176288,
          "velocity": 0.6299212598425197
        },
        {
          "duration": 0.881432883333332,
          "durationTicks": 959,
          "midi": 54,
          "name": "F#3",
          "ticks": 186960,
          "time": 171.838052,
          "velocity": 0.6299212598425197
        },
        {
          "duration": 0.6608448833333114,
          "durationTicks": 719,
          "midi": 55,
          "name": "G3",
          "ticks": 187920,
          "time": 172.720404,
          "velocity": 0.6299212598425197
        },
        {
          "duration": 0.44025688333331914,
          "durationTicks": 479,
          "midi": 57,
          "name": "A3",
          "ticks": 188880,
          "time": 173.602756,
          "velocity": 0.6299212598425197
        },
        {
          "duration": 0.2196688833333269,
          "durationTicks": 239,
          "midi": 59,
          "name": "B3",
          "ticks": 189360,
          "time": 174.043932,
          "velocity": 0.6299212598425197
        },
        {
          "duration": 0.2196688833333269,
          "durationTicks": 239,
          "midi": 57,
          "name": "A3",
          "ticks": 189600,
          "time": 174.26452,
          "velocity": 0.6299212598425197
        },
        {
          "duration": 1.1020208833333243,
          "durationTicks": 1199,
          "midi": 60,
          "name": "C4",
          "ticks": 189840,
          "time": 174.485108,
          "velocity": 0.6299212598425197
        },
        {
          "duration": 0.10937488333331657,
          "durationTicks": 119,
          "midi": 55,
          "name": "G3",
          "ticks": 191040,
          "time": 175.58804800000001,
          "velocity": 0.6299212598425197
        },
        {
          "duration": 0.10937488333331657,
          "durationTicks": 119,
          "midi": 52,
          "name": "E3",
          "ticks": 191160,
          "time": 175.698342,
          "velocity": 0.6299212598425197
        },
        {
          "duration": 0.10937488333331657,
          "durationTicks": 119,
          "midi": 50,
          "name": "D3",
          "ticks": 191280,
          "time": 175.808636,
          "velocity": 0.6299212598425197
        },
        {
          "duration": 0.10937488333331657,
          "durationTicks": 119,
          "midi": 47,
          "name": "B2",
          "ticks": 191400,
          "time": 175.91893000000002,
          "velocity": 0.6299212598425197
        },
        {
          "duration": 0.109374883333345,
          "durationTicks": 119,
          "midi": 52,
          "name": "E3",
          "ticks": 191760,
          "time": 176.249812,
          "velocity": 0.6299212598425197
        },
        {
          "duration": 0.10937488333331657,
          "durationTicks": 119,
          "midi": 50,
          "name": "D3",
          "ticks": 191880,
          "time": 176.360106,
          "velocity": 0.6299212598425197
        },
        {
          "duration": 0.10937488333331657,
          "durationTicks": 119,
          "midi": 47,
          "name": "B2",
          "ticks": 192000,
          "time": 176.4704,
          "velocity": 0.6299212598425197
        },
        {
          "duration": 0.109374883333345,
          "durationTicks": 119,
          "midi": 45,
          "name": "A2",
          "ticks": 192120,
          "time": 176.580694,
          "velocity": 0.6299212598425197
        },
        {
          "duration": 0.10937488333331657,
          "durationTicks": 119,
          "midi": 50,
          "name": "D3",
          "ticks": 192480,
          "time": 176.911576,
          "velocity": 0.6299212598425197
        },
        {
          "duration": 0.10937488333331657,
          "durationTicks": 119,
          "midi": 47,
          "name": "B2",
          "ticks": 192600,
          "time": 177.02187,
          "velocity": 0.6299212598425197
        },
        {
          "duration": 0.10937488333331657,
          "durationTicks": 119,
          "midi": 45,
          "name": "A2",
          "ticks": 192720,
          "time": 177.13216400000002,
          "velocity": 0.6299212598425197
        },
        {
          "duration": 0.10937488333331657,
          "durationTicks": 119,
          "midi": 43,
          "name": "G2",
          "ticks": 192840,
          "time": 177.242458,
          "velocity": 0.6299212598425197
        },
        {
          "duration": 0.10937488333331657,
          "durationTicks": 119,
          "midi": 47,
          "name": "B2",
          "ticks": 193200,
          "time": 177.57334,
          "velocity": 0.6299212598425197
        },
        {
          "duration": 0.10937488333331657,
          "durationTicks": 119,
          "midi": 45,
          "name": "A2",
          "ticks": 193320,
          "time": 177.683634,
          "velocity": 0.6299212598425197
        },
        {
          "duration": 0.109374883333345,
          "durationTicks": 119,
          "midi": 43,
          "name": "G2",
          "ticks": 193440,
          "time": 177.793928,
          "velocity": 0.6299212598425197
        },
        {
          "duration": 0.10937488333331657,
          "durationTicks": 119,
          "midi": 40,
          "name": "E2",
          "ticks": 193560,
          "time": 177.904222,
          "velocity": 0.6299212598425197
        },
        {
          "duration": 0.10937488333331657,
          "durationTicks": 119,
          "midi": 45,
          "name": "A2",
          "ticks": 194160,
          "time": 178.455692,
          "velocity": 0.6299212598425197
        },
        {
          "duration": 0.10937488333331657,
          "durationTicks": 119,
          "midi": 47,
          "name": "B2",
          "ticks": 194280,
          "time": 178.565986,
          "velocity": 0.6299212598425197
        },
        {
          "duration": 0.109374883333345,
          "durationTicks": 119,
          "midi": 55,
          "name": "G3",
          "ticks": 194400,
          "time": 178.67628,
          "velocity": 0.6299212598425197
        },
        {
          "duration": 0.10937488333331657,
          "durationTicks": 119,
          "midi": 54,
          "name": "F#3",
          "ticks": 194520,
          "time": 178.786574,
          "velocity": 0.6299212598425197
        },
        {
          "duration": 0.10937488333331657,
          "durationTicks": 119,
          "midi": 47,
          "name": "B2",
          "ticks": 194640,
          "time": 178.896868,
          "velocity": 0.6299212598425197
        },
        {
          "duration": 0.32996288333333723,
          "durationTicks": 359,
          "midi": 50,
          "name": "D3",
          "ticks": 194760,
          "time": 179.007162,
          "velocity": 0.6299212598425197
        },
        {
          "duration": 0.2196688833333269,
          "durationTicks": 239,
          "midi": 52,
          "name": "E3",
          "ticks": 195120,
          "time": 179.338044,
          "velocity": 0.6299212598425197
        }
      ]
    },
    {
      "channel": 0,
      "controlChanges": {
        "121": [
          {
            "number": 121,
            "ticks": 0,
            "time": 0,
            "value": 0
          }
        ]
      },
      "pitchBends": [],
      "instrument": {
        "family": "piano",
        "number": 0,
        "name": "acoustic grand piano"
      },
      "name": "",
      "notes": [],
      "endOfTrackTicks": 195360
    },
    {
      "channel": 10,
      "controlChanges": {
        "7": [
          {
            "number": 7,
            "ticks": 0,
            "time": 0,
            "value": 1
          }
        ],
        "10": [
          {
            "number": 10,
            "ticks": 0,
            "time": 0,
            "value": 0.5039370078740157
          }
        ],
        "91": [
          {
            "number": 91,
            "ticks": 0,
            "time": 0,
            "value": 0
          }
        ],
        "93": [
          {
            "number": 93,
            "ticks": 0,
            "time": 0,
            "value": 0
          }
        ]
      },
      "pitchBends": [],
      "instrument": {
        "family": "guitar",
        "number": 27,
        "name": "electric guitar (clean)"
      },
      "name": "",
      "notes": [
        {
          "duration": 0.10937488333333334,
          "durationTicks": 119,
          "midi": 69,
          "name": "A4",
          "ticks": 0,
          "time": 0,
          "velocity": 0.6299212598425197
        },
        {
          "duration": 0.10937488333333334,
          "durationTicks": 119,
          "midi": 70,
          "name": "A#4",
          "ticks": 120,
          "time": 0.110294,
          "velocity": 0.6299212598425197
        },
        {
          "duration": 0.10937488333333334,
          "durationTicks": 119,
          "midi": 71,
          "name": "B4",
          "ticks": 240,
          "time": 0.220588,
          "velocity": 0.6299212598425197
        },
        {
          "duration": 0.10937488333333334,
          "durationTicks": 119,
          "midi": 74,
          "name": "D5",
          "ticks": 360,
          "time": 0.330882,
          "velocity": 0.6299212598425197
        },
        {
          "duration": 0.10937488333333334,
          "durationTicks": 119,
          "midi": 69,
          "name": "A4",
          "ticks": 720,
          "time": 0.661764,
          "velocity": 0.6299212598425197
        },
        {
          "duration": 0.10937488333333334,
          "durationTicks": 119,
          "midi": 70,
          "name": "A#4",
          "ticks": 840,
          "time": 0.772058,
          "velocity": 0.6299212598425197
        },
        {
          "duration": 0.10937488333333334,
          "durationTicks": 119,
          "midi": 71,
          "name": "B4",
          "ticks": 960,
          "time": 0.882352,
          "velocity": 0.6299212598425197
        },
        {
          "duration": 0.10937488333333334,
          "durationTicks": 119,
          "midi": 74,
          "name": "D5",
          "ticks": 1080,
          "time": 0.992646,
          "velocity": 0.6299212598425197
        },
        {
          "duration": 0.10937488333333345,
          "durationTicks": 119,
          "midi": 74,
          "name": "D5",
          "ticks": 1440,
          "time": 1.323528,
          "velocity": 0.6299212598425197
        },
        {
          "duration": 0.10937488333333323,
          "durationTicks": 119,
          "midi": 74,
          "name": "D5",
          "ticks": 1560,
          "time": 1.4338220000000002,
          "velocity": 0.6299212598425197
        },
        {
          "duration": 0.10937488333333345,
          "durationTicks": 119,
          "midi": 69,
          "name": "A4",
          "ticks": 1920,
          "time": 1.764704,
          "velocity": 0.6299212598425197
        },
        {
          "duration": 0.10937488333333323,
          "durationTicks": 119,
          "midi": 70,
          "name": "A#4",
          "ticks": 2040,
          "time": 1.8749980000000002,
          "velocity": 0.6299212598425197
        },
        {
          "duration": 0.10937488333333323,
          "durationTicks": 119,
          "midi": 71,
          "name": "B4",
          "ticks": 2160,
          "time": 1.985292,
          "velocity": 0.6299212598425197
        },
        {
          "duration": 0.10937488333333345,
          "durationTicks": 119,
          "midi": 74,
          "name": "D5",
          "ticks": 2280,
          "time": 2.095586,
          "velocity": 0.6299212598425197
        },
        {
          "duration": 0.10937488333333345,
          "durationTicks": 119,
          "midi": 71,
          "name": "B4",
          "ticks": 2640,
          "time": 2.426468,
          "velocity": 0.6299212598425197
        },
        {
          "duration": 0.10937488333333345,
          "durationTicks": 119,
          "midi": 69,
          "name": "A4",
          "ticks": 2760,
          "time": 2.536762,
          "velocity": 0.6299212598425197
        },
        {
          "duration": 0.10937488333333345,
          "durationTicks": 119,
          "midi": 67,
          "name": "G4",
          "ticks": 2880,
          "time": 2.647056,
          "velocity": 0.6299212598425197
        },
        {
          "duration": 0.10937488333333345,
          "durationTicks": 119,
          "midi": 64,
          "name": "E4",
          "ticks": 3000,
          "time": 2.75735,
          "velocity": 0.6299212598425197
        },
        {
          "duration": 0.10937488333333345,
          "durationTicks": 119,
          "midi": 76,
          "name": "E5",
          "ticks": 3360,
          "time": 3.088232,
          "velocity": 0.6299212598425197
        },
        {
          "duration": 0.10937488333333345,
          "durationTicks": 119,
          "midi": 76,
          "name": "E5",
          "ticks": 3480,
          "time": 3.198526,
          "velocity": 0.6299212598425197
        },
        {
          "duration": 0.44025688333333335,
          "durationTicks": 479,
          "midi": 62,
          "name": "D4",
          "ticks": 4800,
          "time": 4.41176,
          "velocity": 0.6299212598425197
        },
        {
          "duration": 0.44025688333333335,
          "durationTicks": 479,
          "midi": 67,
          "name": "G4",
          "ticks": 4800,
          "time": 4.41176,
          "velocity": 0.6299212598425197
        },
        {
          "duration": 0.44025688333333335,
          "durationTicks": 479,
          "midi": 61,
          "name": "C#4",
          "ticks": 6720,
          "time": 6.176464,
          "velocity": 0.6299212598425197
        },
        {
          "duration": 0.44025688333333335,
          "durationTicks": 479,
          "midi": 67,
          "name": "G4",
          "ticks": 6720,
          "time": 6.176464,
          "velocity": 0.6299212598425197
        },
        {
          "duration": 0.44025688333333246,
          "durationTicks": 479,
          "midi": 62,
          "name": "D4",
          "ticks": 8640,
          "time": 7.941168,
          "velocity": 0.6299212598425197
        },
        {
          "duration": 0.44025688333333246,
          "durationTicks": 479,
          "midi": 67,
          "name": "G4",
          "ticks": 8640,
          "time": 7.941168,
          "velocity": 0.6299212598425197
        },
        {
          "duration": 0.29411733333333423,
          "durationTicks": 320,
          "midi": 62,
          "name": "D4",
          "ticks": 10560,
          "time": 9.705872,
          "velocity": 0.7559055118110236
        },
        {
          "duration": 0.29411733333333423,
          "durationTicks": 320,
          "midi": 67,
          "name": "G4",
          "ticks": 10560,
          "time": 9.705872,
          "velocity": 0.7559055118110236
        },
        {
          "duration": 0.29411733333333423,
          "durationTicks": 320,
          "midi": 61,
          "name": "C#4",
          "ticks": 11040,
          "time": 10.147048,
          "velocity": 0.7559055118110236
        },
        {
          "duration": 0.29411733333333423,
          "durationTicks": 320,
          "midi": 66,
          "name": "F#4",
          "ticks": 11040,
          "time": 10.147048,
          "velocity": 0.7559055118110236
        },
        {
          "duration": 0.3299628833333319,
          "durationTicks": 359,
          "midi": 59,
          "name": "B3",
          "ticks": 11520,
          "time": 10.588224,
          "velocity": 0.7559055118110236
        },
        {
          "duration": 0.3299628833333319,
          "durationTicks": 359,
          "midi": 64,
          "name": "E4",
          "ticks": 11520,
          "time": 10.588224,
          "velocity": 0.7559055118110236
        },
        {
          "duration": 0.21966888333333223,
          "durationTicks": 239,
          "midi": 57,
          "name": "A3",
          "ticks": 11880,
          "time": 10.919106000000001,
          "velocity": 0.7559055118110236
        },
        {
          "duration": 0.21966888333333223,
          "durationTicks": 239,
          "midi": 62,
          "name": "D4",
          "ticks": 11880,
          "time": 10.919106000000001,
          "velocity": 0.7559055118110236
        },
        {
          "duration": 0.3299628833333319,
          "durationTicks": 359,
          "midi": 57,
          "name": "A3",
          "ticks": 12120,
          "time": 11.139694,
          "velocity": 0.7559055118110236
        },
        {
          "duration": 0.3299628833333319,
          "durationTicks": 359,
          "midi": 62,
          "name": "D4",
          "ticks": 12120,
          "time": 11.139694,
          "velocity": 0.7559055118110236
        },
        {
          "duration": 0.4402568833333316,
          "durationTicks": 479,
          "midi": 62,
          "name": "D4",
          "ticks": 12480,
          "time": 11.470576000000001,
          "velocity": 0.6299212598425197
        },
        {
          "duration": 0.4402568833333316,
          "durationTicks": 479,
          "midi": 67,
          "name": "G4",
          "ticks": 12480,
          "time": 11.470576000000001,
          "velocity": 0.6299212598425197
        },
        {
          "duration": 0.44025688333333335,
          "durationTicks": 479,
          "midi": 61,
          "name": "C#4",
          "ticks": 14400,
          "time": 13.23528,
          "velocity": 0.6299212598425197
        },
        {
          "duration": 0.44025688333333335,
          "durationTicks": 479,
          "midi": 67,
          "name": "G4",
          "ticks": 14400,
          "time": 13.23528,
          "velocity": 0.6299212598425197
        },
        {
          "duration": 0.6608448833333345,
          "durationTicks": 719,
          "midi": 59,
          "name": "B3",
          "ticks": 16080,
          "time": 14.779396,
          "velocity": 0.6299212598425197
        },
        {
          "duration": 0.6608448833333345,
          "durationTicks": 719,
          "midi": 62,
          "name": "D4",
          "ticks": 16080,
          "time": 14.779396,
          "velocity": 0.6299212598425197
        },
        {
          "duration": 0.6608448833333345,
          "durationTicks": 719,
          "midi": 66,
          "name": "F#4",
          "ticks": 16080,
          "time": 14.779396,
          "velocity": 0.6299212598425197
        },
        {
          "duration": 0.10937488333333434,
          "durationTicks": 119,
          "midi": 59,
          "name": "B3",
          "ticks": 16800,
          "time": 15.44116,
          "velocity": 0.6299212598425197
        },
        {
          "duration": 0.10937488333333434,
          "durationTicks": 119,
          "midi": 62,
          "name": "D4",
          "ticks": 16800,
          "time": 15.44116,
          "velocity": 0.6299212598425197
        },
        {
          "duration": 0.10937488333333434,
          "durationTicks": 119,
          "midi": 66,
          "name": "F#4",
          "ticks": 16800,
          "time": 15.44116,
          "velocity": 0.6299212598425197
        },
        {
          "duration": 0.10937488333333434,
          "durationTicks": 119,
          "midi": 59,
          "name": "B3",
          "ticks": 16920,
          "time": 15.551454,
          "velocity": 0.6299212598425197
        },
        {
          "duration": 0.10937488333333434,
          "durationTicks": 119,
          "midi": 62,
          "name": "D4",
          "ticks": 16920,
          "time": 15.551454,
          "velocity": 0.6299212598425197
        },
        {
          "duration": 0.10937488333333434,
          "durationTicks": 119,
          "midi": 66,
          "name": "F#4",
          "ticks": 16920,
          "time": 15.551454,
          "velocity": 0.6299212598425197
        },
        {
          "duration": 0.6608448833333345,
          "durationTicks": 719,
          "midi": 60,
          "name": "C4",
          "ticks": 17040,
          "time": 15.661748000000001,
          "velocity": 0.6299212598425197
        },
        {
          "duration": 0.6608448833333345,
          "durationTicks": 719,
          "midi": 64,
          "name": "E4",
          "ticks": 17040,
          "time": 15.661748000000001,
          "velocity": 0.6299212598425197
        },
        {
          "duration": 0.6608448833333345,
          "durationTicks": 719,
          "midi": 67,
          "name": "G4",
          "ticks": 17040,
          "time": 15.661748000000001,
          "velocity": 0.6299212598425197
        },
        {
          "duration": 0.10937488333333434,
          "durationTicks": 119,
          "midi": 60,
          "name": "C4",
          "ticks": 17760,
          "time": 16.323512,
          "velocity": 0.6299212598425197
        },
        {
          "duration": 0.10937488333333434,
          "durationTicks": 119,
          "midi": 64,
          "name": "E4",
          "ticks": 17760,
          "time": 16.323512,
          "velocity": 0.6299212598425197
        },
        {
          "duration": 0.10937488333333434,
          "durationTicks": 119,
          "midi": 67,
          "name": "G4",
          "ticks": 17760,
          "time": 16.323512,
          "velocity": 0.6299212598425197
        },
        {
          "duration": 0.10937488333333434,
          "durationTicks": 119,
          "midi": 60,
          "name": "C4",
          "ticks": 17880,
          "time": 16.433806,
          "velocity": 0.6299212598425197
        },
        {
          "duration": 0.10937488333333434,
          "durationTicks": 119,
          "midi": 64,
          "name": "E4",
          "ticks": 17880,
          "time": 16.433806,
          "velocity": 0.6299212598425197
        },
        {
          "duration": 0.10937488333333434,
          "durationTicks": 119,
          "midi": 67,
          "name": "G4",
          "ticks": 17880,
          "time": 16.433806,
          "velocity": 0.6299212598425197
        },
        {
          "duration": 0.6608448833333327,
          "durationTicks": 719,
          "midi": 60,
          "name": "C4",
          "ticks": 18000,
          "time": 16.5441,
          "velocity": 0.6299212598425197
        },
        {
          "duration": 0.6608448833333327,
          "durationTicks": 719,
          "midi": 66,
          "name": "F#4",
          "ticks": 18000,
          "time": 16.5441,
          "velocity": 0.6299212598425197
        },
        {
          "duration": 0.6608448833333327,
          "durationTicks": 719,
          "midi": 69,
          "name": "A4",
          "ticks": 18000,
          "time": 16.5441,
          "velocity": 0.6299212598425197
        },
        {
          "duration": 0.10937488333333434,
          "durationTicks": 119,
          "midi": 60,
          "name": "C4",
          "ticks": 18720,
          "time": 17.205864000000002,
          "velocity": 0.6299212598425197
        },
        {
          "duration": 0.10937488333333434,
          "durationTicks": 119,
          "midi": 66,
          "name": "F#4",
          "ticks": 18720,
          "time": 17.205864000000002,
          "velocity": 0.6299212598425197
        },
        {
          "duration": 0.10937488333333434,
          "durationTicks": 119,
          "midi": 69,
          "name": "A4",
          "ticks": 18720,
          "time": 17.205864000000002,
          "velocity": 0.6299212598425197
        },
        {
          "duration": 0.10937488333333434,
          "durationTicks": 119,
          "midi": 60,
          "name": "C4",
          "ticks": 18840,
          "time": 17.316158,
          "velocity": 0.6299212598425197
        },
        {
          "duration": 0.10937488333333434,
          "durationTicks": 119,
          "midi": 66,
          "name": "F#4",
          "ticks": 18840,
          "time": 17.316158,
          "velocity": 0.6299212598425197
        },
        {
          "duration": 0.10937488333333434,
          "durationTicks": 119,
          "midi": 69,
          "name": "A4",
          "ticks": 18840,
          "time": 17.316158,
          "velocity": 0.6299212598425197
        },
        {
          "duration": 1.102020883333335,
          "durationTicks": 1199,
          "midi": 63,
          "name": "D#4",
          "ticks": 18960,
          "time": 17.426452,
          "velocity": 0.6299212598425197
        },
        {
          "duration": 1.102020883333335,
          "durationTicks": 1199,
          "midi": 66,
          "name": "F#4",
          "ticks": 18960,
          "time": 17.426452,
          "velocity": 0.6299212598425197
        },
        {
          "duration": 1.102020883333335,
          "durationTicks": 1199,
          "midi": 71,
          "name": "B4",
          "ticks": 18960,
          "time": 17.426452,
          "velocity": 0.6299212598425197
        },
        {
          "duration": 0.44025688333333335,
          "durationTicks": 479,
          "midi": 62,
          "name": "D4",
          "ticks": 20160,
          "time": 18.529392,
          "velocity": 0.7559055118110236
        },
        {
          "duration": 0.44025688333333335,
          "durationTicks": 479,
          "midi": 67,
          "name": "G4",
          "ticks": 20160,
          "time": 18.529392,
          "velocity": 0.7559055118110236
        },
        {
          "duration": 0.44025688333333335,
          "durationTicks": 479,
          "midi": 61,
          "name": "C#4",
          "ticks": 22080,
          "time": 20.294096,
          "velocity": 0.6299212598425197
        },
        {
          "duration": 0.44025688333333335,
          "durationTicks": 479,
          "midi": 67,
          "name": "G4",
          "ticks": 22080,
          "time": 20.294096,
          "velocity": 0.6299212598425197
        },
        {
          "duration": 0.44025688333333335,
          "durationTicks": 479,
          "midi": 62,
          "name": "D4",
          "ticks": 24000,
          "time": 22.0588,
          "velocity": 0.6299212598425197
        },
        {
          "duration": 0.44025688333333335,
          "durationTicks": 479,
          "midi": 67,
          "name": "G4",
          "ticks": 24000,
          "time": 22.0588,
          "velocity": 0.6299212598425197
        },
        {
          "duration": 0.44025688333333335,
          "durationTicks": 479,
          "midi": 61,
          "name": "C#4",
          "ticks": 25920,
          "time": 23.823504,
          "velocity": 0.6299212598425197
        },
        {
          "duration": 0.44025688333333335,
          "durationTicks": 479,
          "midi": 67,
          "name": "G4",
          "ticks": 25920,
          "time": 23.823504,
          "velocity": 0.6299212598425197
        },
        {
          "duration": 0.219668883333334,
          "durationTicks": 239,
          "midi": 64,
          "name": "E4",
          "ticks": 27840,
          "time": 25.588208,
          "velocity": 0.6299212598425197
        },
        {
          "duration": 0.219668883333334,
          "durationTicks": 239,
          "midi": 67,
          "name": "G4",
          "ticks": 28080,
          "time": 25.808796,
          "velocity": 0.6299212598425197
        },
        {
          "duration": 0.219668883333334,
          "durationTicks": 239,
          "midi": 74,
          "name": "D5",
          "ticks": 28320,
          "time": 26.029384,
          "velocity": 0.6299212598425197
        },
        {
          "duration": 0.4402568833333369,
          "durationTicks": 479,
          "midi": 62,
          "name": "D4",
          "ticks": 28560,
          "time": 26.249972,
          "velocity": 0.6299212598425197
        },
        {
          "duration": 0.219668883333334,
          "durationTicks": 239,
          "midi": 67,
          "name": "G4",
          "ticks": 29040,
          "time": 26.691148000000002,
          "velocity": 0.6299212598425197
        },
        {
          "duration": 0.219668883333334,
          "durationTicks": 239,
          "midi": 74,
          "name": "D5",
          "ticks": 29280,
          "time": 26.911736,
          "velocity": 0.6299212598425197
        },
        {
          "duration": 0.219668883333334,
          "durationTicks": 239,
          "midi": 72,
          "name": "C5",
          "ticks": 29760,
          "time": 27.352912,
          "velocity": 0.6299212598425197
        },
        {
          "duration": 0.07261021666666778,
          "durationTicks": 79,
          "midi": 71,
          "name": "B4",
          "ticks": 30000,
          "time": 27.5735,
          "velocity": 0.6299212598425197
        },
        {
          "duration": 0.07261021666666778,
          "durationTicks": 79,
          "midi": 72,
          "name": "C5",
          "ticks": 30080,
          "time": 27.647029333333332,
          "velocity": 0.6299212598425197
        },
        {
          "duration": 0.07261021666666423,
          "durationTicks": 79,
          "midi": 71,
          "name": "B4",
          "ticks": 30160,
          "time": 27.72055866666667,
          "velocity": 0.6299212598425197
        },
        {
          "duration": 0.10937488333333434,
          "durationTicks": 119,
          "midi": 67,
          "name": "G4",
          "ticks": 30240,
          "time": 27.794088000000002,
          "velocity": 0.6299212598425197
        },
        {
          "duration": 0.10937488333333434,
          "durationTicks": 119,
          "midi": 62,
          "name": "D4",
          "ticks": 30360,
          "time": 27.904382000000002,
          "velocity": 0.6299212598425197
        },
        {
          "duration": 0.10937488333333434,
          "durationTicks": 119,
          "midi": 60,
          "name": "C4",
          "ticks": 30480,
          "time": 28.014676,
          "velocity": 0.6299212598425197
        },
        {
          "duration": 0.3299628833333337,
          "durationTicks": 359,
          "midi": 59,
          "name": "B3",
          "ticks": 30600,
          "time": 28.12497,
          "velocity": 0.6299212598425197
        },
        {
          "duration": 0.219668883333334,
          "durationTicks": 239,
          "midi": 57,
          "name": "A3",
          "ticks": 30960,
          "time": 28.455852,
          "velocity": 0.6299212598425197
        },
        {
          "duration": 0.219668883333334,
          "durationTicks": 239,
          "midi": 59,
          "name": "B3",
          "ticks": 31200,
          "time": 28.67644,
          "velocity": 0.6299212598425197
        },
        {
          "duration": 0.219668883333334,
          "durationTicks": 239,
          "midi": 57,
          "name": "A3",
          "ticks": 31440,
          "time": 28.897028000000002,
          "velocity": 0.6299212598425197
        },
        {
          "duration": 0.219668883333334,
          "durationTicks": 239,
          "midi": 49,
          "name": "C#3",
          "ticks": 31680,
          "time": 29.117616,
          "velocity": 0.6299212598425197
        },
        {
          "duration": 0.219668883333334,
          "durationTicks": 239,
          "midi": 52,
          "name": "E3",
          "ticks": 31920,
          "time": 29.338204,
          "velocity": 0.6299212598425197
        },
        {
          "duration": 0.219668883333334,
          "durationTicks": 239,
          "midi": 55,
          "name": "G3",
          "ticks": 32160,
          "time": 29.558792,
          "velocity": 0.6299212598425197
        },
        {
          "duration": 0.4402568833333369,
          "durationTicks": 479,
          "midi": 64,
          "name": "E4",
          "ticks": 32400,
          "time": 29.77938,
          "velocity": 0.6299212598425197
        },
        {
          "duration": 0.219668883333334,
          "durationTicks": 239,
          "midi": 61,
          "name": "C#4",
          "ticks": 32880,
          "time": 30.220556000000002,
          "velocity": 0.6299212598425197
        },
        {
          "duration": 0.219668883333334,
          "durationTicks": 239,
          "midi": 64,
          "name": "E4",
          "ticks": 33120,
          "time": 30.441144,
          "velocity": 0.6299212598425197
        },
        {
          "duration": 0.219668883333334,
          "durationTicks": 239,
          "midi": 61,
          "name": "C#4",
          "ticks": 33360,
          "time": 30.661732,
          "velocity": 0.6299212598425197
        },
        {
          "duration": 0.44025688333333335,
          "durationTicks": 479,
          "midi": 55,
          "name": "G3",
          "ticks": 33600,
          "time": 30.88232,
          "velocity": 0.6299212598425197
        },
        {
          "duration": 0.44025688333333335,
          "durationTicks": 479,
          "midi": 59,
          "name": "B3",
          "ticks": 33600,
          "time": 30.88232,
          "velocity": 0.6299212598425197
        },
        {
          "duration": 0.44025688333333335,
          "durationTicks": 479,
          "midi": 62,
          "name": "D4",
          "ticks": 33600,
          "time": 30.88232,
          "velocity": 0.6299212598425197
        },
        {
          "duration": 0.44025688333333335,
          "durationTicks": 479,
          "midi": 57,
          "name": "A3",
          "ticks": 34080,
          "time": 31.323496000000002,
          "velocity": 0.6299212598425197
        },
        {
          "duration": 0.44025688333333335,
          "durationTicks": 479,
          "midi": 60,
          "name": "C4",
          "ticks": 34080,
          "time": 31.323496000000002,
          "velocity": 0.6299212598425197
        },
        {
          "duration": 0.44025688333333335,
          "durationTicks": 479,
          "midi": 64,
          "name": "E4",
          "ticks": 34080,
          "time": 31.323496000000002,
          "velocity": 0.6299212598425197
        },
        {
          "duration": 0.4402568833333369,
          "durationTicks": 479,
          "midi": 59,
          "name": "B3",
          "ticks": 34560,
          "time": 31.764672,
          "velocity": 0.6299212598425197
        },
        {
          "duration": 0.4402568833333369,
          "durationTicks": 479,
          "midi": 62,
          "name": "D4",
          "ticks": 34560,
          "time": 31.764672,
          "velocity": 0.6299212598425197
        },
        {
          "duration": 0.4402568833333369,
          "durationTicks": 479,
          "midi": 66,
          "name": "F#4",
          "ticks": 34560,
          "time": 31.764672,
          "velocity": 0.6299212598425197
        },
        {
          "duration": 0.44025688333333335,
          "durationTicks": 479,
          "midi": 60,
          "name": "C4",
          "ticks": 35040,
          "time": 32.205848,
          "velocity": 0.6299212598425197
        },
        {
          "duration": 0.44025688333333335,
          "durationTicks": 479,
          "midi": 64,
          "name": "E4",
          "ticks": 35040,
          "time": 32.205848,
          "velocity": 0.6299212598425197
        },
        {
          "duration": 0.44025688333333335,
          "durationTicks": 479,
          "midi": 67,
          "name": "G4",
          "ticks": 35040,
          "time": 32.205848,
          "velocity": 0.6299212598425197
        },
        {
          "duration": 0.219668883333334,
          "durationTicks": 239,
          "midi": 59,
          "name": "B3",
          "ticks": 35760,
          "time": 32.867612,
          "velocity": 0.5039370078740157
        },
        {
          "duration": 0.219668883333334,
          "durationTicks": 239,
          "midi": 62,
          "name": "D4",
          "ticks": 35760,
          "time": 32.867612,
          "velocity": 0.5039370078740157
        },
        {
          "duration": 0.219668883333334,
          "durationTicks": 239,
          "midi": 66,
          "name": "F#4",
          "ticks": 35760,
          "time": 32.867612,
          "velocity": 0.5039370078740157
        },
        {
          "duration": 0.219668883333334,
          "durationTicks": 239,
          "midi": 59,
          "name": "B3",
          "ticks": 36240,
          "time": 33.308788,
          "velocity": 0.5039370078740157
        },
        {
          "duration": 0.219668883333334,
          "durationTicks": 239,
          "midi": 62,
          "name": "D4",
          "ticks": 36240,
          "time": 33.308788,
          "velocity": 0.5039370078740157
        },
        {
          "duration": 0.219668883333334,
          "durationTicks": 239,
          "midi": 66,
          "name": "F#4",
          "ticks": 36240,
          "time": 33.308788,
          "velocity": 0.5039370078740157
        },
        {
          "duration": 0.219668883333334,
          "durationTicks": 239,
          "midi": 59,
          "name": "B3",
          "ticks": 36720,
          "time": 33.749964,
          "velocity": 0.5039370078740157
        },
        {
          "duration": 0.219668883333334,
          "durationTicks": 239,
          "midi": 62,
          "name": "D4",
          "ticks": 36720,
          "time": 33.749964,
          "velocity": 0.5039370078740157
        },
        {
          "duration": 0.219668883333334,
          "durationTicks": 239,
          "midi": 66,
          "name": "F#4",
          "ticks": 36720,
          "time": 33.749964,
          "velocity": 0.5039370078740157
        },
        {
          "duration": 0.219668883333334,
          "durationTicks": 239,
          "midi": 59,
          "name": "B3",
          "ticks": 37200,
          "time": 34.191140000000004,
          "velocity": 0.5039370078740157
        },
        {
          "duration": 0.219668883333334,
          "durationTicks": 239,
          "midi": 62,
          "name": "D4",
          "ticks": 37200,
          "time": 34.191140000000004,
          "velocity": 0.5039370078740157
        },
        {
          "duration": 0.219668883333334,
          "durationTicks": 239,
          "midi": 66,
          "name": "F#4",
          "ticks": 37200,
          "time": 34.191140000000004,
          "velocity": 0.5039370078740157
        },
        {
          "duration": 0.219668883333334,
          "durationTicks": 239,
          "midi": 59,
          "name": "B3",
          "ticks": 37440,
          "time": 34.411728000000004,
          "velocity": 0.5039370078740157
        },
        {
          "duration": 0.219668883333334,
          "durationTicks": 239,
          "midi": 62,
          "name": "D4",
          "ticks": 37440,
          "time": 34.411728000000004,
          "velocity": 0.5039370078740157
        },
        {
          "duration": 0.219668883333334,
          "durationTicks": 239,
          "midi": 66,
          "name": "F#4",
          "ticks": 37440,
          "time": 34.411728000000004,
          "velocity": 0.5039370078740157
        },
        {
          "duration": 0.219668883333334,
          "durationTicks": 239,
          "midi": 59,
          "name": "B3",
          "ticks": 37680,
          "time": 34.632316,
          "velocity": 0.5039370078740157
        },
        {
          "duration": 0.219668883333334,
          "durationTicks": 239,
          "midi": 62,
          "name": "D4",
          "ticks": 37680,
          "time": 34.632316,
          "velocity": 0.5039370078740157
        },
        {
          "duration": 0.219668883333334,
          "durationTicks": 239,
          "midi": 66,
          "name": "F#4",
          "ticks": 37680,
          "time": 34.632316,
          "velocity": 0.5039370078740157
        },
        {
          "duration": 0.219668883333334,
          "durationTicks": 239,
          "midi": 59,
          "name": "B3",
          "ticks": 37920,
          "time": 34.852904,
          "velocity": 0.5039370078740157
        },
        {
          "duration": 0.219668883333334,
          "durationTicks": 239,
          "midi": 62,
          "name": "D4",
          "ticks": 37920,
          "time": 34.852904,
          "velocity": 0.5039370078740157
        },
        {
          "duration": 0.219668883333334,
          "durationTicks": 239,
          "midi": 66,
          "name": "F#4",
          "ticks": 37920,
          "time": 34.852904,
          "velocity": 0.5039370078740157
        },
        {
          "duration": 0.219668883333334,
          "durationTicks": 239,
          "midi": 59,
          "name": "B3",
          "ticks": 38160,
          "time": 35.073492,
          "velocity": 0.5039370078740157
        },
        {
          "duration": 0.219668883333334,
          "durationTicks": 239,
          "midi": 62,
          "name": "D4",
          "ticks": 38160,
          "time": 35.073492,
          "velocity": 0.5039370078740157
        },
        {
          "duration": 0.219668883333334,
          "durationTicks": 239,
          "midi": 66,
          "name": "F#4",
          "ticks": 38160,
          "time": 35.073492,
          "velocity": 0.5039370078740157
        },
        {
          "duration": 0.44025688333333335,
          "durationTicks": 479,
          "midi": 59,
          "name": "B3",
          "ticks": 38400,
          "time": 35.29408,
          "velocity": 0.5039370078740157
        },
        {
          "duration": 0.44025688333333335,
          "durationTicks": 479,
          "midi": 62,
          "name": "D4",
          "ticks": 38400,
          "time": 35.29408,
          "velocity": 0.5039370078740157
        },
        {
          "duration": 0.44025688333333335,
          "durationTicks": 479,
          "midi": 66,
          "name": "F#4",
          "ticks": 38400,
          "time": 35.29408,
          "velocity": 0.5039370078740157
        },
        {
          "duration": 0.44025688333333335,
          "durationTicks": 479,
          "midi": 60,
          "name": "C4",
          "ticks": 38880,
          "time": 35.735256,
          "velocity": 0.5039370078740157
        },
        {
          "duration": 0.44025688333333335,
          "durationTicks": 479,
          "midi": 64,
          "name": "E4",
          "ticks": 38880,
          "time": 35.735256,
          "velocity": 0.5039370078740157
        },
        {
          "duration": 0.44025688333333335,
          "durationTicks": 479,
          "midi": 67,
          "name": "G4",
          "ticks": 38880,
          "time": 35.735256,
          "velocity": 0.5039370078740157
        },
        {
          "duration": 0.219668883333334,
          "durationTicks": 239,
          "midi": 59,
          "name": "B3",
          "ticks": 39600,
          "time": 36.39702,
          "velocity": 0.5039370078740157
        },
        {
          "duration": 0.219668883333334,
          "durationTicks": 239,
          "midi": 62,
          "name": "D4",
          "ticks": 39600,
          "time": 36.39702,
          "velocity": 0.5039370078740157
        },
        {
          "duration": 0.219668883333334,
          "durationTicks": 239,
          "midi": 66,
          "name": "F#4",
          "ticks": 39600,
          "time": 36.39702,
          "velocity": 0.5039370078740157
        },
        {
          "duration": 0.219668883333334,
          "durationTicks": 239,
          "midi": 59,
          "name": "B3",
          "ticks": 40080,
          "time": 36.838196,
          "velocity": 0.5039370078740157
        },
        {
          "duration": 0.219668883333334,
          "durationTicks": 239,
          "midi": 62,
          "name": "D4",
          "ticks": 40080,
          "time": 36.838196,
          "velocity": 0.5039370078740157
        },
        {
          "duration": 0.219668883333334,
          "durationTicks": 239,
          "midi": 66,
          "name": "F#4",
          "ticks": 40080,
          "time": 36.838196,
          "velocity": 0.5039370078740157
        },
        {
          "duration": 0.219668883333334,
          "durationTicks": 239,
          "midi": 59,
          "name": "B3",
          "ticks": 40560,
          "time": 37.279372,
          "velocity": 0.5039370078740157
        },
        {
          "duration": 0.219668883333334,
          "durationTicks": 239,
          "midi": 62,
          "name": "D4",
          "ticks": 40560,
          "time": 37.279372,
          "velocity": 0.5039370078740157
        },
        {
          "duration": 0.219668883333334,
          "durationTicks": 239,
          "midi": 66,
          "name": "F#4",
          "ticks": 40560,
          "time": 37.279372,
          "velocity": 0.5039370078740157
        },
        {
          "duration": 0.219668883333334,
          "durationTicks": 239,
          "midi": 59,
          "name": "B3",
          "ticks": 41040,
          "time": 37.720548,
          "velocity": 0.5039370078740157
        },
        {
          "duration": 0.219668883333334,
          "durationTicks": 239,
          "midi": 62,
          "name": "D4",
          "ticks": 41040,
          "time": 37.720548,
          "velocity": 0.5039370078740157
        },
        {
          "duration": 0.219668883333334,
          "durationTicks": 239,
          "midi": 66,
          "name": "F#4",
          "ticks": 41040,
          "time": 37.720548,
          "velocity": 0.5039370078740157
        },
        {
          "duration": 0.44025688333333335,
          "durationTicks": 479,
          "midi": 59,
          "name": "B3",
          "ticks": 41280,
          "time": 37.941136,
          "velocity": 0.5039370078740157
        },
        {
          "duration": 0.44025688333333335,
          "durationTicks": 479,
          "midi": 62,
          "name": "D4",
          "ticks": 41280,
          "time": 37.941136,
          "velocity": 0.5039370078740157
        },
        {
          "duration": 0.44025688333333335,
          "durationTicks": 479,
          "midi": 66,
          "name": "F#4",
          "ticks": 41280,
          "time": 37.941136,
          "velocity": 0.5039370078740157
        },
        {
          "duration": 0.44025688333333335,
          "durationTicks": 479,
          "midi": 60,
          "name": "C4",
          "ticks": 41760,
          "time": 38.382312,
          "velocity": 0.5039370078740157
        },
        {
          "duration": 0.44025688333333335,
          "durationTicks": 479,
          "midi": 64,
          "name": "E4",
          "ticks": 41760,
          "time": 38.382312,
          "velocity": 0.5039370078740157
        },
        {
          "duration": 0.44025688333333335,
          "durationTicks": 479,
          "midi": 67,
          "name": "G4",
          "ticks": 41760,
          "time": 38.382312,
          "velocity": 0.5039370078740157
        },
        {
          "duration": 0.21966888333334111,
          "durationTicks": 239,
          "midi": 62,
          "name": "D4",
          "ticks": 42240,
          "time": 38.823488,
          "velocity": 0.5039370078740157
        },
        {
          "duration": 0.21966888333334111,
          "durationTicks": 239,
          "midi": 66,
          "name": "F#4",
          "ticks": 42240,
          "time": 38.823488,
          "velocity": 0.5039370078740157
        },
        {
          "duration": 0.21966888333334111,
          "durationTicks": 239,
          "midi": 69,
          "name": "A4",
          "ticks": 42240,
          "time": 38.823488,
          "velocity": 0.5039370078740157
        },
        {
          "duration": 0.219668883333334,
          "durationTicks": 239,
          "midi": 62,
          "name": "D4",
          "ticks": 42480,
          "time": 39.044076000000004,
          "velocity": 0.5039370078740157
        },
        {
          "duration": 0.219668883333334,
          "durationTicks": 239,
          "midi": 66,
          "name": "F#4",
          "ticks": 42480,
          "time": 39.044076000000004,
          "velocity": 0.5039370078740157
        },
        {
          "duration": 0.219668883333334,
          "durationTicks": 239,
          "midi": 69,
          "name": "A4",
          "ticks": 42480,
          "time": 39.044076000000004,
          "velocity": 0.5039370078740157
        },
        {
          "duration": 0.219668883333334,
          "durationTicks": 239,
          "midi": 60,
          "name": "C4",
          "ticks": 42720,
          "time": 39.264664,
          "velocity": 0.5039370078740157
        },
        {
          "duration": 0.219668883333334,
          "durationTicks": 239,
          "midi": 64,
          "name": "E4",
          "ticks": 42720,
          "time": 39.264664,
          "velocity": 0.5039370078740157
        },
        {
          "duration": 0.219668883333334,
          "durationTicks": 239,
          "midi": 67,
          "name": "G4",
          "ticks": 42720,
          "time": 39.264664,
          "velocity": 0.5039370078740157
        },
        {
          "duration": 0.219668883333334,
          "durationTicks": 239,
          "midi": 60,
          "name": "C4",
          "ticks": 42960,
          "time": 39.485252,
          "velocity": 0.5039370078740157
        },
        {
          "duration": 0.219668883333334,
          "durationTicks": 239,
          "midi": 64,
          "name": "E4",
          "ticks": 42960,
          "time": 39.485252,
          "velocity": 0.5039370078740157
        },
        {
          "duration": 0.219668883333334,
          "durationTicks": 239,
          "midi": 67,
          "name": "G4",
          "ticks": 42960,
          "time": 39.485252,
          "velocity": 0.5039370078740157
        },
        {
          "duration": 0.219668883333334,
          "durationTicks": 239,
          "midi": 59,
          "name": "B3",
          "ticks": 43440,
          "time": 39.926428,
          "velocity": 0.5039370078740157
        },
        {
          "duration": 0.219668883333334,
          "durationTicks": 239,
          "midi": 62,
          "name": "D4",
          "ticks": 43440,
          "time": 39.926428,
          "velocity": 0.5039370078740157
        },
        {
          "duration": 0.219668883333334,
          "durationTicks": 239,
          "midi": 66,
          "name": "F#4",
          "ticks": 43440,
          "time": 39.926428,
          "velocity": 0.5039370078740157
        },
        {
          "duration": 0.219668883333334,
          "durationTicks": 239,
          "midi": 59,
          "name": "B3",
          "ticks": 43920,
          "time": 40.367604,
          "velocity": 0.5039370078740157
        },
        {
          "duration": 0.219668883333334,
          "durationTicks": 239,
          "midi": 62,
          "name": "D4",
          "ticks": 43920,
          "time": 40.367604,
          "velocity": 0.5039370078740157
        },
        {
          "duration": 0.219668883333334,
          "durationTicks": 239,
          "midi": 66,
          "name": "F#4",
          "ticks": 43920,
          "time": 40.367604,
          "velocity": 0.5039370078740157
        },
        {
          "duration": 0.219668883333334,
          "durationTicks": 239,
          "midi": 59,
          "name": "B3",
          "ticks": 44400,
          "time": 40.80878,
          "velocity": 0.5039370078740157
        },
        {
          "duration": 0.219668883333334,
          "durationTicks": 239,
          "midi": 62,
          "name": "D4",
          "ticks": 44400,
          "time": 40.80878,
          "velocity": 0.5039370078740157
        },
        {
          "duration": 0.219668883333334,
          "durationTicks": 239,
          "midi": 66,
          "name": "F#4",
          "ticks": 44400,
          "time": 40.80878,
          "velocity": 0.5039370078740157
        },
        {
          "duration": 0.6608448833333327,
          "durationTicks": 719,
          "midi": 62,
          "name": "D4",
          "ticks": 44880,
          "time": 41.249956000000005,
          "velocity": 0.5039370078740157
        },
        {
          "duration": 0.6608448833333327,
          "durationTicks": 719,
          "midi": 66,
          "name": "F#4",
          "ticks": 44880,
          "time": 41.249956000000005,
          "velocity": 0.5039370078740157
        },
        {
          "duration": 0.6608448833333327,
          "durationTicks": 719,
          "midi": 69,
          "name": "A4",
          "ticks": 44880,
          "time": 41.249956000000005,
          "velocity": 0.5039370078740157
        },
        {
          "duration": 0.44025688333333335,
          "durationTicks": 479,
          "midi": 63,
          "name": "D#4",
          "ticks": 45600,
          "time": 41.91172,
          "velocity": 0.5039370078740157
        },
        {
          "duration": 0.44025688333333335,
          "durationTicks": 479,
          "midi": 67,
          "name": "G4",
          "ticks": 45600,
          "time": 41.91172,
          "velocity": 0.5039370078740157
        },
        {
          "duration": 0.44025688333333335,
          "durationTicks": 479,
          "midi": 70,
          "name": "A#4",
          "ticks": 45600,
          "time": 41.91172,
          "velocity": 0.5039370078740157
        },
        {
          "duration": 0.44025688333333335,
          "durationTicks": 479,
          "midi": 64,
          "name": "E4",
          "ticks": 46080,
          "time": 42.352896,
          "velocity": 0.5039370078740157
        },
        {
          "duration": 0.44025688333333335,
          "durationTicks": 479,
          "midi": 67,
          "name": "G4",
          "ticks": 46080,
          "time": 42.352896,
          "velocity": 0.5039370078740157
        },
        {
          "duration": 0.44025688333333335,
          "durationTicks": 479,
          "midi": 71,
          "name": "B4",
          "ticks": 46080,
          "time": 42.352896,
          "velocity": 0.5039370078740157
        },
        {
          "duration": 0.219668883333334,
          "durationTicks": 239,
          "midi": 71,
          "name": "B4",
          "ticks": 46560,
          "time": 42.794072,
          "velocity": 0.5039370078740157
        },
        {
          "duration": 0.219668883333334,
          "durationTicks": 239,
          "midi": 72,
          "name": "C5",
          "ticks": 46800,
          "time": 43.01466,
          "velocity": 0.5039370078740157
        },
        {
          "duration": 0.219668883333334,
          "durationTicks": 239,
          "midi": 65,
          "name": "F4",
          "ticks": 47040,
          "time": 43.235248,
          "velocity": 0.8818897637795275
        },
        {
          "duration": 0.219668883333334,
          "durationTicks": 239,
          "midi": 72,
          "name": "C5",
          "ticks": 47040,
          "time": 43.235248,
          "velocity": 0.8818897637795275
        },
        {
          "duration": 0.219668883333334,
          "durationTicks": 239,
          "midi": 65,
          "name": "F4",
          "ticks": 47280,
          "time": 43.455836,
          "velocity": 0.8818897637795275
        },
        {
          "duration": 0.219668883333334,
          "durationTicks": 239,
          "midi": 72,
          "name": "C5",
          "ticks": 47280,
          "time": 43.455836,
          "velocity": 0.8818897637795275
        },
        {
          "duration": 0.219668883333334,
          "durationTicks": 239,
          "midi": 65,
          "name": "F4",
          "ticks": 47520,
          "time": 43.676424000000004,
          "velocity": 0.8818897637795275
        },
        {
          "duration": 0.219668883333334,
          "durationTicks": 239,
          "midi": 72,
          "name": "C5",
          "ticks": 47520,
          "time": 43.676424000000004,
          "velocity": 0.8818897637795275
        },
        {
          "duration": 0.219668883333334,
          "durationTicks": 239,
          "midi": 64,
          "name": "E4",
          "ticks": 47760,
          "time": 43.897012000000004,
          "velocity": 0.8818897637795275
        },
        {
          "duration": 0.219668883333334,
          "durationTicks": 239,
          "midi": 71,
          "name": "B4",
          "ticks": 47760,
          "time": 43.897012000000004,
          "velocity": 0.8818897637795275
        },
        {
          "duration": 0.219668883333334,
          "durationTicks": 239,
          "midi": 60,
          "name": "C4",
          "ticks": 48240,
          "time": 44.338188,
          "velocity": 0.8818897637795275
        },
        {
          "duration": 0.219668883333334,
          "durationTicks": 239,
          "midi": 67,
          "name": "G4",
          "ticks": 48240,
          "time": 44.338188,
          "velocity": 0.8818897637795275
        },
        {
          "duration": 1.5431968833333372,
          "durationTicks": 1679,
          "midi": 62,
          "name": "D4",
          "ticks": 48720,
          "time": 44.779364,
          "velocity": 0.8818897637795275
        },
        {
          "duration": 1.5431968833333372,
          "durationTicks": 1679,
          "midi": 69,
          "name": "A4",
          "ticks": 48720,
          "time": 44.779364,
          "velocity": 0.8818897637795275
        },
        {
          "duration": 0.44025688333333335,
          "durationTicks": 479,
          "midi": 67,
          "name": "G4",
          "ticks": 50640,
          "time": 46.544068,
          "velocity": 0.8818897637795275
        },
        {
          "duration": 0.44025688333333335,
          "durationTicks": 479,
          "midi": 71,
          "name": "B4",
          "ticks": 50640,
          "time": 46.544068,
          "velocity": 0.8818897637795275
        },
        {
          "duration": 0.44025688333333335,
          "durationTicks": 479,
          "midi": 74,
          "name": "D5",
          "ticks": 50640,
          "time": 46.544068,
          "velocity": 0.8818897637795275
        },
        {
          "duration": 0.219668883333334,
          "durationTicks": 239,
          "midi": 67,
          "name": "G4",
          "ticks": 51120,
          "time": 46.985244,
          "velocity": 0.8818897637795275
        },
        {
          "duration": 0.219668883333334,
          "durationTicks": 239,
          "midi": 71,
          "name": "B4",
          "ticks": 51120,
          "time": 46.985244,
          "velocity": 0.8818897637795275
        },
        {
          "duration": 0.219668883333334,
          "durationTicks": 239,
          "midi": 74,
          "name": "D5",
          "ticks": 51120,
          "time": 46.985244,
          "velocity": 0.8818897637795275
        },
        {
          "duration": 0.219668883333334,
          "durationTicks": 239,
          "midi": 67,
          "name": "G4",
          "ticks": 51360,
          "time": 47.205832,
          "velocity": 0.8818897637795275
        },
        {
          "duration": 0.219668883333334,
          "durationTicks": 239,
          "midi": 71,
          "name": "B4",
          "ticks": 51360,
          "time": 47.205832,
          "velocity": 0.8818897637795275
        },
        {
          "duration": 0.219668883333334,
          "durationTicks": 239,
          "midi": 74,
          "name": "D5",
          "ticks": 51360,
          "time": 47.205832,
          "velocity": 0.8818897637795275
        },
        {
          "duration": 0.219668883333334,
          "durationTicks": 239,
          "midi": 67,
          "name": "G4",
          "ticks": 51600,
          "time": 47.42642,
          "velocity": 0.8818897637795275
        },
        {
          "duration": 0.219668883333334,
          "durationTicks": 239,
          "midi": 71,
          "name": "B4",
          "ticks": 51600,
          "time": 47.42642,
          "velocity": 0.8818897637795275
        },
        {
          "duration": 0.219668883333334,
          "durationTicks": 239,
          "midi": 74,
          "name": "D5",
          "ticks": 51600,
          "time": 47.42642,
          "velocity": 0.8818897637795275
        },
        {
          "duration": 0.219668883333334,
          "durationTicks": 239,
          "midi": 68,
          "name": "G#4",
          "ticks": 51840,
          "time": 47.647008,
          "velocity": 1
        },
        {
          "duration": 0.219668883333334,
          "durationTicks": 239,
          "midi": 71,
          "name": "B4",
          "ticks": 51840,
          "time": 47.647008,
          "velocity": 1
        },
        {
          "duration": 0.219668883333334,
          "durationTicks": 239,
          "midi": 76,
          "name": "E5",
          "ticks": 51840,
          "time": 47.647008,
          "velocity": 1
        },
        {
          "duration": 1.7637848833333294,
          "durationTicks": 1919,
          "midi": 60,
          "name": "C4",
          "ticks": 52800,
          "time": 48.529360000000004,
          "velocity": 0.6299212598425197
        },
        {
          "duration": 1.7637848833333294,
          "durationTicks": 1919,
          "midi": 64,
          "name": "E4",
          "ticks": 52800,
          "time": 48.529360000000004,
          "velocity": 0.6299212598425197
        },
        {
          "duration": 1.7637848833333294,
          "durationTicks": 1919,
          "midi": 67,
          "name": "G4",
          "ticks": 52800,
          "time": 48.529360000000004,
          "velocity": 0.6299212598425197
        },
        {
          "duration": 1.7637848833333294,
          "durationTicks": 1919,
          "midi": 71,
          "name": "B4",
          "ticks": 52800,
          "time": 48.529360000000004,
          "velocity": 0.6299212598425197
        },
        {
          "duration": 0.6608448833333398,
          "durationTicks": 719,
          "midi": 59,
          "name": "B3",
          "ticks": 54720,
          "time": 50.294064,
          "velocity": 0.6299212598425197
        },
        {
          "duration": 0.6608448833333398,
          "durationTicks": 719,
          "midi": 62,
          "name": "D4",
          "ticks": 54720,
          "time": 50.294064,
          "velocity": 0.6299212598425197
        },
        {
          "duration": 0.6608448833333398,
          "durationTicks": 719,
          "midi": 66,
          "name": "F#4",
          "ticks": 54720,
          "time": 50.294064,
          "velocity": 0.6299212598425197
        },
        {
          "duration": 0.6608448833333398,
          "durationTicks": 719,
          "midi": 69,
          "name": "A4",
          "ticks": 54720,
          "time": 50.294064,
          "velocity": 0.6299212598425197
        },
        {
          "duration": 1.1020208833333314,
          "durationTicks": 1199,
          "midi": 64,
          "name": "E4",
          "ticks": 55440,
          "time": 50.955828000000004,
          "velocity": 0.6299212598425197
        },
        {
          "duration": 1.1020208833333314,
          "durationTicks": 1199,
          "midi": 67,
          "name": "G4",
          "ticks": 55440,
          "time": 50.955828000000004,
          "velocity": 0.6299212598425197
        },
        {
          "duration": 1.1020208833333314,
          "durationTicks": 1199,
          "midi": 71,
          "name": "B4",
          "ticks": 55440,
          "time": 50.955828000000004,
          "velocity": 0.6299212598425197
        },
        {
          "duration": 1.1020208833333314,
          "durationTicks": 1199,
          "midi": 74,
          "name": "D5",
          "ticks": 55440,
          "time": 50.955828000000004,
          "velocity": 0.6299212598425197
        },
        {
          "duration": 1.7637848833333365,
          "durationTicks": 1919,
          "midi": 60,
          "name": "C4",
          "ticks": 56640,
          "time": 52.058768,
          "velocity": 0.6299212598425197
        },
        {
          "duration": 1.7637848833333365,
          "durationTicks": 1919,
          "midi": 64,
          "name": "E4",
          "ticks": 56640,
          "time": 52.058768,
          "velocity": 0.6299212598425197
        },
        {
          "duration": 1.7637848833333365,
          "durationTicks": 1919,
          "midi": 67,
          "name": "G4",
          "ticks": 56640,
          "time": 52.058768,
          "velocity": 0.6299212598425197
        },
        {
          "duration": 1.7637848833333365,
          "durationTicks": 1919,
          "midi": 71,
          "name": "B4",
          "ticks": 56640,
          "time": 52.058768,
          "velocity": 0.6299212598425197
        },
        {
          "duration": 0.6608448833333327,
          "durationTicks": 719,
          "midi": 62,
          "name": "D4",
          "ticks": 58560,
          "time": 53.823472,
          "velocity": 0.6299212598425197
        },
        {
          "duration": 0.6608448833333327,
          "durationTicks": 719,
          "midi": 66,
          "name": "F#4",
          "ticks": 58560,
          "time": 53.823472,
          "velocity": 0.6299212598425197
        },
        {
          "duration": 0.6608448833333327,
          "durationTicks": 719,
          "midi": 69,
          "name": "A4",
          "ticks": 58560,
          "time": 53.823472,
          "velocity": 0.6299212598425197
        },
        {
          "duration": 0.6608448833333327,
          "durationTicks": 719,
          "midi": 72,
          "name": "C5",
          "ticks": 58560,
          "time": 53.823472,
          "velocity": 0.6299212598425197
        },
        {
          "duration": 1.1020208833333385,
          "durationTicks": 1199,
          "midi": 55,
          "name": "G3",
          "ticks": 59280,
          "time": 54.485236,
          "velocity": 0.6299212598425197
        },
        {
          "duration": 1.1020208833333385,
          "durationTicks": 1199,
          "midi": 59,
          "name": "B3",
          "ticks": 59280,
          "time": 54.485236,
          "velocity": 0.6299212598425197
        },
        {
          "duration": 1.1020208833333385,
          "durationTicks": 1199,
          "midi": 62,
          "name": "D4",
          "ticks": 59280,
          "time": 54.485236,
          "velocity": 0.6299212598425197
        },
        {
          "duration": 1.1020208833333385,
          "durationTicks": 1199,
          "midi": 65,
          "name": "F4",
          "ticks": 59280,
          "time": 54.485236,
          "velocity": 0.6299212598425197
        },
        {
          "duration": 1.7637848833333294,
          "durationTicks": 1919,
          "midi": 60,
          "name": "C4",
          "ticks": 60480,
          "time": 55.588176000000004,
          "velocity": 0.6299212598425197
        },
        {
          "duration": 1.7637848833333294,
          "durationTicks": 1919,
          "midi": 64,
          "name": "E4",
          "ticks": 60480,
          "time": 55.588176000000004,
          "velocity": 0.6299212598425197
        },
        {
          "duration": 1.7637848833333294,
          "durationTicks": 1919,
          "midi": 67,
          "name": "G4",
          "ticks": 60480,
          "time": 55.588176000000004,
          "velocity": 0.6299212598425197
        },
        {
          "duration": 1.7637848833333294,
          "durationTicks": 1919,
          "midi": 71,
          "name": "B4",
          "ticks": 60480,
          "time": 55.588176000000004,
          "velocity": 0.6299212598425197
        },
        {
          "duration": 0.6608448833333398,
          "durationTicks": 719,
          "midi": 59,
          "name": "B3",
          "ticks": 62400,
          "time": 57.35288,
          "velocity": 0.6299212598425197
        },
        {
          "duration": 0.6608448833333398,
          "durationTicks": 719,
          "midi": 63,
          "name": "D#4",
          "ticks": 62400,
          "time": 57.35288,
          "velocity": 0.6299212598425197
        },
        {
          "duration": 0.6608448833333398,
          "durationTicks": 719,
          "midi": 66,
          "name": "F#4",
          "ticks": 62400,
          "time": 57.35288,
          "velocity": 0.6299212598425197
        },
        {
          "duration": 0.6608448833333398,
          "durationTicks": 719,
          "midi": 69,
          "name": "A4",
          "ticks": 62400,
          "time": 57.35288,
          "velocity": 0.6299212598425197
        },
        {
          "duration": 1.1020208833333314,
          "durationTicks": 1199,
          "midi": 64,
          "name": "E4",
          "ticks": 63120,
          "time": 58.014644000000004,
          "velocity": 0.6299212598425197
        },
        {
          "duration": 1.1020208833333314,
          "durationTicks": 1199,
          "midi": 67,
          "name": "G4",
          "ticks": 63120,
          "time": 58.014644000000004,
          "velocity": 0.6299212598425197
        },
        {
          "duration": 1.1020208833333314,
          "durationTicks": 1199,
          "midi": 71,
          "name": "B4",
          "ticks": 63120,
          "time": 58.014644000000004,
          "velocity": 0.6299212598425197
        },
        {
          "duration": 1.1020208833333314,
          "durationTicks": 1199,
          "midi": 74,
          "name": "D5",
          "ticks": 63120,
          "time": 58.014644000000004,
          "velocity": 0.6299212598425197
        },
        {
          "duration": 1.7637848833333365,
          "durationTicks": 1919,
          "midi": 57,
          "name": "A3",
          "ticks": 64320,
          "time": 59.117584,
          "velocity": 0.6299212598425197
        },
        {
          "duration": 1.7637848833333365,
          "durationTicks": 1919,
          "midi": 60,
          "name": "C4",
          "ticks": 64320,
          "time": 59.117584,
          "velocity": 0.6299212598425197
        },
        {
          "duration": 1.7637848833333365,
          "durationTicks": 1919,
          "midi": 64,
          "name": "E4",
          "ticks": 64320,
          "time": 59.117584,
          "velocity": 0.6299212598425197
        },
        {
          "duration": 1.7637848833333365,
          "durationTicks": 1919,
          "midi": 67,
          "name": "G4",
          "ticks": 64320,
          "time": 59.117584,
          "velocity": 0.6299212598425197
        },
        {
          "duration": 1.54319688333333,
          "durationTicks": 1679,
          "midi": 60,
          "name": "C4",
          "ticks": 66240,
          "time": 60.882288,
          "velocity": 0.6299212598425197
        },
        {
          "duration": 1.54319688333333,
          "durationTicks": 1679,
          "midi": 64,
          "name": "E4",
          "ticks": 66240,
          "time": 60.882288,
          "velocity": 0.6299212598425197
        },
        {
          "duration": 1.54319688333333,
          "durationTicks": 1679,
          "midi": 67,
          "name": "G4",
          "ticks": 66240,
          "time": 60.882288,
          "velocity": 0.6299212598425197
        },
        {
          "duration": 0.881432883333332,
          "durationTicks": 959,
          "midi": 71,
          "name": "B4",
          "ticks": 66240,
          "time": 60.882288,
          "velocity": 0.6299212598425197
        },
        {
          "duration": 0.881432883333332,
          "durationTicks": 959,
          "midi": 59,
          "name": "B3",
          "ticks": 67920,
          "time": 62.426404000000005,
          "velocity": 0.6299212598425197
        },
        {
          "duration": 0.881432883333332,
          "durationTicks": 959,
          "midi": 62,
          "name": "D4",
          "ticks": 67920,
          "time": 62.426404000000005,
          "velocity": 0.6299212598425197
        },
        {
          "duration": 0.881432883333332,
          "durationTicks": 959,
          "midi": 66,
          "name": "F#4",
          "ticks": 67920,
          "time": 62.426404000000005,
          "velocity": 0.6299212598425197
        },
        {
          "duration": 0.881432883333332,
          "durationTicks": 959,
          "midi": 60,
          "name": "C4",
          "ticks": 68880,
          "time": 63.308756,
          "velocity": 0.6299212598425197
        },
        {
          "duration": 0.881432883333332,
          "durationTicks": 959,
          "midi": 64,
          "name": "E4",
          "ticks": 68880,
          "time": 63.308756,
          "velocity": 0.6299212598425197
        },
        {
          "duration": 0.881432883333332,
          "durationTicks": 959,
          "midi": 67,
          "name": "G4",
          "ticks": 68880,
          "time": 63.308756,
          "velocity": 0.6299212598425197
        },
        {
          "duration": 0.881432883333332,
          "durationTicks": 959,
          "midi": 60,
          "name": "C4",
          "ticks": 69840,
          "time": 64.191108,
          "velocity": 0.6299212598425197
        },
        {
          "duration": 0.881432883333332,
          "durationTicks": 959,
          "midi": 66,
          "name": "F#4",
          "ticks": 69840,
          "time": 64.191108,
          "velocity": 0.6299212598425197
        },
        {
          "duration": 0.881432883333332,
          "durationTicks": 959,
          "midi": 69,
          "name": "A4",
          "ticks": 69840,
          "time": 64.191108,
          "velocity": 0.6299212598425197
        },
        {
          "duration": 1.1020208833333385,
          "durationTicks": 1199,
          "midi": 63,
          "name": "D#4",
          "ticks": 70800,
          "time": 65.07346,
          "velocity": 0.6299212598425197
        },
        {
          "duration": 1.1020208833333385,
          "durationTicks": 1199,
          "midi": 66,
          "name": "F#4",
          "ticks": 70800,
          "time": 65.07346,
          "velocity": 0.6299212598425197
        },
        {
          "duration": 1.1020208833333385,
          "durationTicks": 1199,
          "midi": 71,
          "name": "B4",
          "ticks": 70800,
          "time": 65.07346,
          "velocity": 0.6299212598425197
        },
        {
          "duration": 0.44025688333333335,
          "durationTicks": 479,
          "midi": 62,
          "name": "D4",
          "ticks": 72000,
          "time": 66.1764,
          "velocity": 0.6299212598425197
        },
        {
          "duration": 0.44025688333333335,
          "durationTicks": 479,
          "midi": 67,
          "name": "G4",
          "ticks": 72000,
          "time": 66.1764,
          "velocity": 0.6299212598425197
        },
        {
          "duration": 0.44025688333333335,
          "durationTicks": 479,
          "midi": 61,
          "name": "C#4",
          "ticks": 73920,
          "time": 67.941104,
          "velocity": 0.6299212598425197
        },
        {
          "duration": 0.44025688333333335,
          "durationTicks": 479,
          "midi": 67,
          "name": "G4",
          "ticks": 73920,
          "time": 67.941104,
          "velocity": 0.6299212598425197
        },
        {
          "duration": 0.44025688333333335,
          "durationTicks": 479,
          "midi": 62,
          "name": "D4",
          "ticks": 75840,
          "time": 69.705808,
          "velocity": 0.6299212598425197
        },
        {
          "duration": 0.44025688333333335,
          "durationTicks": 479,
          "midi": 67,
          "name": "G4",
          "ticks": 75840,
          "time": 69.705808,
          "velocity": 0.6299212598425197
        },
        {
          "duration": 0.44025688333333335,
          "durationTicks": 479,
          "midi": 62,
          "name": "D4",
          "ticks": 77760,
          "time": 71.470512,
          "velocity": 0.7559055118110236
        },
        {
          "duration": 0.44025688333333335,
          "durationTicks": 479,
          "midi": 67,
          "name": "G4",
          "ticks": 77760,
          "time": 71.470512,
          "velocity": 0.7559055118110236
        },
        {
          "duration": 0.44025688333333335,
          "durationTicks": 479,
          "midi": 61,
          "name": "C#4",
          "ticks": 78240,
          "time": 71.911688,
          "velocity": 0.7559055118110236
        },
        {
          "duration": 0.44025688333333335,
          "durationTicks": 479,
          "midi": 66,
          "name": "F#4",
          "ticks": 78240,
          "time": 71.911688,
          "velocity": 0.7559055118110236
        },
        {
          "duration": 0.32996288333333723,
          "durationTicks": 359,
          "midi": 59,
          "name": "B3",
          "ticks": 78720,
          "time": 72.352864,
          "velocity": 0.7559055118110236
        },
        {
          "duration": 0.32996288333333723,
          "durationTicks": 359,
          "midi": 64,
          "name": "E4",
          "ticks": 78720,
          "time": 72.352864,
          "velocity": 0.7559055118110236
        },
        {
          "duration": 0.21966888333334111,
          "durationTicks": 239,
          "midi": 57,
          "name": "A3",
          "ticks": 79080,
          "time": 72.683746,
          "velocity": 0.7559055118110236
        },
        {
          "duration": 0.21966888333334111,
          "durationTicks": 239,
          "midi": 62,
          "name": "D4",
          "ticks": 79080,
          "time": 72.683746,
          "velocity": 0.7559055118110236
        },
        {
          "duration": 0.32996288333333723,
          "durationTicks": 359,
          "midi": 57,
          "name": "A3",
          "ticks": 79320,
          "time": 72.904334,
          "velocity": 0.7559055118110236
        },
        {
          "duration": 0.32996288333333723,
          "durationTicks": 359,
          "midi": 62,
          "name": "D4",
          "ticks": 79320,
          "time": 72.904334,
          "velocity": 0.7559055118110236
        },
        {
          "duration": 0.44025688333333335,
          "durationTicks": 479,
          "midi": 62,
          "name": "D4",
          "ticks": 79680,
          "time": 73.23521600000001,
          "velocity": 0.6299212598425197
        },
        {
          "duration": 0.44025688333333335,
          "durationTicks": 479,
          "midi": 67,
          "name": "G4",
          "ticks": 79680,
          "time": 73.23521600000001,
          "velocity": 0.6299212598425197
        },
        {
          "duration": 0.44025688333333335,
          "durationTicks": 479,
          "midi": 61,
          "name": "C#4",
          "ticks": 81600,
          "time": 74.99992,
          "velocity": 0.6299212598425197
        },
        {
          "duration": 0.44025688333333335,
          "durationTicks": 479,
          "midi": 67,
          "name": "G4",
          "ticks": 81600,
          "time": 74.99992,
          "velocity": 0.6299212598425197
        },
        {
          "duration": 0.6608448833333256,
          "durationTicks": 719,
          "midi": 59,
          "name": "B3",
          "ticks": 83280,
          "time": 76.544036,
          "velocity": 0.6299212598425197
        },
        {
          "duration": 0.6608448833333256,
          "durationTicks": 719,
          "midi": 62,
          "name": "D4",
          "ticks": 83280,
          "time": 76.544036,
          "velocity": 0.6299212598425197
        },
        {
          "duration": 0.6608448833333256,
          "durationTicks": 719,
          "midi": 66,
          "name": "F#4",
          "ticks": 83280,
          "time": 76.544036,
          "velocity": 0.6299212598425197
        },
        {
          "duration": 0.109374883333345,
          "durationTicks": 119,
          "midi": 59,
          "name": "B3",
          "ticks": 84000,
          "time": 77.2058,
          "velocity": 0.6299212598425197
        },
        {
          "duration": 0.109374883333345,
          "durationTicks": 119,
          "midi": 62,
          "name": "D4",
          "ticks": 84000,
          "time": 77.2058,
          "velocity": 0.6299212598425197
        },
        {
          "duration": 0.109374883333345,
          "durationTicks": 119,
          "midi": 66,
          "name": "F#4",
          "ticks": 84000,
          "time": 77.2058,
          "velocity": 0.6299212598425197
        },
        {
          "duration": 0.10937488333333079,
          "durationTicks": 119,
          "midi": 59,
          "name": "B3",
          "ticks": 84120,
          "time": 77.316094,
          "velocity": 0.6299212598425197
        },
        {
          "duration": 0.10937488333333079,
          "durationTicks": 119,
          "midi": 62,
          "name": "D4",
          "ticks": 84120,
          "time": 77.316094,
          "velocity": 0.6299212598425197
        },
        {
          "duration": 0.10937488333333079,
          "durationTicks": 119,
          "midi": 66,
          "name": "F#4",
          "ticks": 84120,
          "time": 77.316094,
          "velocity": 0.6299212598425197
        },
        {
          "duration": 0.6608448833333398,
          "durationTicks": 719,
          "midi": 60,
          "name": "C4",
          "ticks": 84240,
          "time": 77.426388,
          "velocity": 0.6299212598425197
        },
        {
          "duration": 0.6608448833333398,
          "durationTicks": 719,
          "midi": 64,
          "name": "E4",
          "ticks": 84240,
          "time": 77.426388,
          "velocity": 0.6299212598425197
        },
        {
          "duration": 0.6608448833333398,
          "durationTicks": 719,
          "midi": 67,
          "name": "G4",
          "ticks": 84240,
          "time": 77.426388,
          "velocity": 0.6299212598425197
        },
        {
          "duration": 0.10937488333333079,
          "durationTicks": 119,
          "midi": 60,
          "name": "C4",
          "ticks": 84960,
          "time": 78.08815200000001,
          "velocity": 0.6299212598425197
        },
        {
          "duration": 0.10937488333333079,
          "durationTicks": 119,
          "midi": 64,
          "name": "E4",
          "ticks": 84960,
          "time": 78.08815200000001,
          "velocity": 0.6299212598425197
        },
        {
          "duration": 0.10937488333333079,
          "durationTicks": 119,
          "midi": 67,
          "name": "G4",
          "ticks": 84960,
          "time": 78.08815200000001,
          "velocity": 0.6299212598425197
        },
        {
          "duration": 0.10937488333333079,
          "durationTicks": 119,
          "midi": 60,
          "name": "C4",
          "ticks": 85080,
          "time": 78.198446,
          "velocity": 0.6299212598425197
        },
        {
          "duration": 0.10937488333333079,
          "durationTicks": 119,
          "midi": 64,
          "name": "E4",
          "ticks": 85080,
          "time": 78.198446,
          "velocity": 0.6299212598425197
        },
        {
          "duration": 0.10937488333333079,
          "durationTicks": 119,
          "midi": 67,
          "name": "G4",
          "ticks": 85080,
          "time": 78.198446,
          "velocity": 0.6299212598425197
        },
        {
          "duration": 0.6608448833333398,
          "durationTicks": 719,
          "midi": 60,
          "name": "C4",
          "ticks": 85200,
          "time": 78.30874,
          "velocity": 0.6299212598425197
        },
        {
          "duration": 0.6608448833333398,
          "durationTicks": 719,
          "midi": 66,
          "name": "F#4",
          "ticks": 85200,
          "time": 78.30874,
          "velocity": 0.6299212598425197
        },
        {
          "duration": 0.6608448833333398,
          "durationTicks": 719,
          "midi": 69,
          "name": "A4",
          "ticks": 85200,
          "time": 78.30874,
          "velocity": 0.6299212598425197
        },
        {
          "duration": 0.10937488333333079,
          "durationTicks": 119,
          "midi": 60,
          "name": "C4",
          "ticks": 85920,
          "time": 78.970504,
          "velocity": 0.6299212598425197
        },
        {
          "duration": 0.10937488333333079,
          "durationTicks": 119,
          "midi": 66,
          "name": "F#4",
          "ticks": 85920,
          "time": 78.970504,
          "velocity": 0.6299212598425197
        },
        {
          "duration": 0.10937488333333079,
          "durationTicks": 119,
          "midi": 69,
          "name": "A4",
          "ticks": 85920,
          "time": 78.970504,
          "velocity": 0.6299212598425197
        },
        {
          "duration": 0.10937488333333079,
          "durationTicks": 119,
          "midi": 60,
          "name": "C4",
          "ticks": 86040,
          "time": 79.080798,
          "velocity": 0.6299212598425197
        },
        {
          "duration": 0.10937488333333079,
          "durationTicks": 119,
          "midi": 66,
          "name": "F#4",
          "ticks": 86040,
          "time": 79.080798,
          "velocity": 0.6299212598425197
        },
        {
          "duration": 0.10937488333333079,
          "durationTicks": 119,
          "midi": 69,
          "name": "A4",
          "ticks": 86040,
          "time": 79.080798,
          "velocity": 0.6299212598425197
        },
        {
          "duration": 1.1020208833333385,
          "durationTicks": 1199,
          "midi": 63,
          "name": "D#4",
          "ticks": 86160,
          "time": 79.191092,
          "velocity": 0.6299212598425197
        },
        {
          "duration": 1.1020208833333385,
          "durationTicks": 1199,
          "midi": 66,
          "name": "F#4",
          "ticks": 86160,
          "time": 79.191092,
          "velocity": 0.6299212598425197
        },
        {
          "duration": 1.1020208833333385,
          "durationTicks": 1199,
          "midi": 71,
          "name": "B4",
          "ticks": 86160,
          "time": 79.191092,
          "velocity": 0.6299212598425197
        },
        {
          "duration": 0.44025688333333335,
          "durationTicks": 479,
          "midi": 62,
          "name": "D4",
          "ticks": 91200,
          "time": 83.82344,
          "velocity": 0.6299212598425197
        },
        {
          "duration": 0.44025688333333335,
          "durationTicks": 479,
          "midi": 67,
          "name": "G4",
          "ticks": 91200,
          "time": 83.82344,
          "velocity": 0.6299212598425197
        },
        {
          "duration": 0.44025688333333335,
          "durationTicks": 479,
          "midi": 61,
          "name": "C#4",
          "ticks": 93120,
          "time": 85.588144,
          "velocity": 0.6299212598425197
        },
        {
          "duration": 0.44025688333333335,
          "durationTicks": 479,
          "midi": 67,
          "name": "G4",
          "ticks": 93120,
          "time": 85.588144,
          "velocity": 0.6299212598425197
        },
        {
          "duration": 0.2196688833333269,
          "durationTicks": 239,
          "midi": 64,
          "name": "E4",
          "ticks": 95040,
          "time": 87.35284800000001,
          "velocity": 0.6299212598425197
        },
        {
          "duration": 0.21966888333334111,
          "durationTicks": 239,
          "midi": 67,
          "name": "G4",
          "ticks": 95280,
          "time": 87.573436,
          "velocity": 0.6299212598425197
        },
        {
          "duration": 0.2196688833333269,
          "durationTicks": 239,
          "midi": 74,
          "name": "D5",
          "ticks": 95520,
          "time": 87.79402400000001,
          "velocity": 0.6299212598425197
        },
        {
          "duration": 0.44025688333333335,
          "durationTicks": 479,
          "midi": 62,
          "name": "D4",
          "ticks": 95760,
          "time": 88.014612,
          "velocity": 0.6299212598425197
        },
        {
          "duration": 0.21966888333334111,
          "durationTicks": 239,
          "midi": 67,
          "name": "G4",
          "ticks": 96240,
          "time": 88.455788,
          "velocity": 0.6299212598425197
        },
        {
          "duration": 0.2196688833333269,
          "durationTicks": 239,
          "midi": 74,
          "name": "D5",
          "ticks": 96480,
          "time": 88.676376,
          "velocity": 0.6299212598425197
        },
        {
          "duration": 0.2196688833333269,
          "durationTicks": 239,
          "midi": 72,
          "name": "C5",
          "ticks": 96960,
          "time": 89.117552,
          "velocity": 0.6299212598425197
        },
        {
          "duration": 0.07261021666667489,
          "durationTicks": 79,
          "midi": 71,
          "name": "B4",
          "ticks": 97200,
          "time": 89.33814,
          "velocity": 0.6299212598425197
        },
        {
          "duration": 0.07261021666667489,
          "durationTicks": 79,
          "midi": 72,
          "name": "C5",
          "ticks": 97280,
          "time": 89.41166933333334,
          "velocity": 0.6299212598425197
        },
        {
          "duration": 0.07261021666666068,
          "durationTicks": 79,
          "midi": 71,
          "name": "B4",
          "ticks": 97360,
          "time": 89.48519866666668,
          "velocity": 0.6299212598425197
        },
        {
          "duration": 0.10937488333333079,
          "durationTicks": 119,
          "midi": 67,
          "name": "G4",
          "ticks": 97440,
          "time": 89.558728,
          "velocity": 0.6299212598425197
        },
        {
          "duration": 0.109374883333345,
          "durationTicks": 119,
          "midi": 62,
          "name": "D4",
          "ticks": 97560,
          "time": 89.669022,
          "velocity": 0.6299212598425197
        },
        {
          "duration": 0.10937488333333079,
          "durationTicks": 119,
          "midi": 60,
          "name": "C4",
          "ticks": 97680,
          "time": 89.77931600000001,
          "velocity": 0.6299212598425197
        },
        {
          "duration": 0.32996288333333723,
          "durationTicks": 359,
          "midi": 59,
          "name": "B3",
          "ticks": 97800,
          "time": 89.88961,
          "velocity": 0.6299212598425197
        },
        {
          "duration": 0.2196688833333269,
          "durationTicks": 239,
          "midi": 57,
          "name": "A3",
          "ticks": 98160,
          "time": 90.22049200000001,
          "velocity": 0.6299212598425197
        },
        {
          "duration": 0.21966888333334111,
          "durationTicks": 239,
          "midi": 59,
          "name": "B3",
          "ticks": 98400,
          "time": 90.44108,
          "velocity": 0.6299212598425197
        },
        {
          "duration": 0.2196688833333269,
          "durationTicks": 239,
          "midi": 57,
          "name": "A3",
          "ticks": 98640,
          "time": 90.661668,
          "velocity": 0.6299212598425197
        },
        {
          "duration": 0.21966888333334111,
          "durationTicks": 239,
          "midi": 49,
          "name": "C#3",
          "ticks": 98880,
          "time": 90.882256,
          "velocity": 0.6299212598425197
        },
        {
          "duration": 0.2196688833333269,
          "durationTicks": 239,
          "midi": 52,
          "name": "E3",
          "ticks": 99120,
          "time": 91.102844,
          "velocity": 0.6299212598425197
        },
        {
          "duration": 0.21966888333334111,
          "durationTicks": 239,
          "midi": 55,
          "name": "G3",
          "ticks": 99360,
          "time": 91.323432,
          "velocity": 0.6299212598425197
        },
        {
          "duration": 0.44025688333333335,
          "durationTicks": 479,
          "midi": 64,
          "name": "E4",
          "ticks": 99600,
          "time": 91.54402,
          "velocity": 0.6299212598425197
        },
        {
          "duration": 0.21966888333334111,
          "durationTicks": 239,
          "midi": 61,
          "name": "C#4",
          "ticks": 100080,
          "time": 91.985196,
          "velocity": 0.6299212598425197
        },
        {
          "duration": 0.2196688833333269,
          "durationTicks": 239,
          "midi": 64,
          "name": "E4",
          "ticks": 100320,
          "time": 92.20578400000001,
          "velocity": 0.6299212598425197
        },
        {
          "duration": 0.21966888333334111,
          "durationTicks": 239,
          "midi": 61,
          "name": "C#4",
          "ticks": 100560,
          "time": 92.426372,
          "velocity": 0.6299212598425197
        },
        {
          "duration": 0.44025688333333335,
          "durationTicks": 479,
          "midi": 50,
          "name": "D3",
          "ticks": 100800,
          "time": 92.64696,
          "velocity": 0.6299212598425197
        },
        {
          "duration": 0.44025688333333335,
          "durationTicks": 479,
          "midi": 55,
          "name": "G3",
          "ticks": 100800,
          "time": 92.64696,
          "velocity": 0.6299212598425197
        },
        {
          "duration": 0.44025688333333335,
          "durationTicks": 479,
          "midi": 52,
          "name": "E3",
          "ticks": 101280,
          "time": 93.088136,
          "velocity": 0.6299212598425197
        },
        {
          "duration": 0.44025688333333335,
          "durationTicks": 479,
          "midi": 57,
          "name": "A3",
          "ticks": 101280,
          "time": 93.088136,
          "velocity": 0.6299212598425197
        },
        {
          "duration": 0.44025688333333335,
          "durationTicks": 479,
          "midi": 54,
          "name": "F#3",
          "ticks": 101760,
          "time": 93.529312,
          "velocity": 0.6299212598425197
        },
        {
          "duration": 0.44025688333333335,
          "durationTicks": 479,
          "midi": 59,
          "name": "B3",
          "ticks": 101760,
          "time": 93.529312,
          "velocity": 0.6299212598425197
        },
        {
          "duration": 0.44025688333333335,
          "durationTicks": 479,
          "midi": 55,
          "name": "G3",
          "ticks": 102240,
          "time": 93.970488,
          "velocity": 0.6299212598425197
        },
        {
          "duration": 0.44025688333333335,
          "durationTicks": 479,
          "midi": 60,
          "name": "C4",
          "ticks": 102240,
          "time": 93.970488,
          "velocity": 0.6299212598425197
        },
        {
          "duration": 0.2196688833333269,
          "durationTicks": 239,
          "midi": 59,
          "name": "B3",
          "ticks": 102960,
          "time": 94.63225200000001,
          "velocity": 0.5039370078740157
        },
        {
          "duration": 0.2196688833333269,
          "durationTicks": 239,
          "midi": 62,
          "name": "D4",
          "ticks": 102960,
          "time": 94.63225200000001,
          "velocity": 0.5039370078740157
        },
        {
          "duration": 0.2196688833333269,
          "durationTicks": 239,
          "midi": 66,
          "name": "F#4",
          "ticks": 102960,
          "time": 94.63225200000001,
          "velocity": 0.5039370078740157
        },
        {
          "duration": 0.2196688833333269,
          "durationTicks": 239,
          "midi": 59,
          "name": "B3",
          "ticks": 103440,
          "time": 95.073428,
          "velocity": 0.5039370078740157
        },
        {
          "duration": 0.2196688833333269,
          "durationTicks": 239,
          "midi": 62,
          "name": "D4",
          "ticks": 103440,
          "time": 95.073428,
          "velocity": 0.5039370078740157
        },
        {
          "duration": 0.2196688833333269,
          "durationTicks": 239,
          "midi": 66,
          "name": "F#4",
          "ticks": 103440,
          "time": 95.073428,
          "velocity": 0.5039370078740157
        },
        {
          "duration": 0.2196688833333269,
          "durationTicks": 239,
          "midi": 59,
          "name": "B3",
          "ticks": 103920,
          "time": 95.514604,
          "velocity": 0.5039370078740157
        },
        {
          "duration": 0.2196688833333269,
          "durationTicks": 239,
          "midi": 62,
          "name": "D4",
          "ticks": 103920,
          "time": 95.514604,
          "velocity": 0.5039370078740157
        },
        {
          "duration": 0.2196688833333269,
          "durationTicks": 239,
          "midi": 66,
          "name": "F#4",
          "ticks": 103920,
          "time": 95.514604,
          "velocity": 0.5039370078740157
        },
        {
          "duration": 0.2196688833333269,
          "durationTicks": 239,
          "midi": 59,
          "name": "B3",
          "ticks": 104400,
          "time": 95.95578,
          "velocity": 0.5039370078740157
        },
        {
          "duration": 0.2196688833333269,
          "durationTicks": 239,
          "midi": 62,
          "name": "D4",
          "ticks": 104400,
          "time": 95.95578,
          "velocity": 0.5039370078740157
        },
        {
          "duration": 0.2196688833333269,
          "durationTicks": 239,
          "midi": 66,
          "name": "F#4",
          "ticks": 104400,
          "time": 95.95578,
          "velocity": 0.5039370078740157
        },
        {
          "duration": 0.21966888333334111,
          "durationTicks": 239,
          "midi": 59,
          "name": "B3",
          "ticks": 104640,
          "time": 96.176368,
          "velocity": 0.5039370078740157
        },
        {
          "duration": 0.21966888333334111,
          "durationTicks": 239,
          "midi": 62,
          "name": "D4",
          "ticks": 104640,
          "time": 96.176368,
          "velocity": 0.5039370078740157
        },
        {
          "duration": 0.21966888333334111,
          "durationTicks": 239,
          "midi": 66,
          "name": "F#4",
          "ticks": 104640,
          "time": 96.176368,
          "velocity": 0.5039370078740157
        },
        {
          "duration": 0.2196688833333269,
          "durationTicks": 239,
          "midi": 59,
          "name": "B3",
          "ticks": 104880,
          "time": 96.396956,
          "velocity": 0.5039370078740157
        },
        {
          "duration": 0.2196688833333269,
          "durationTicks": 239,
          "midi": 62,
          "name": "D4",
          "ticks": 104880,
          "time": 96.396956,
          "velocity": 0.5039370078740157
        },
        {
          "duration": 0.2196688833333269,
          "durationTicks": 239,
          "midi": 66,
          "name": "F#4",
          "ticks": 104880,
          "time": 96.396956,
          "velocity": 0.5039370078740157
        },
        {
          "duration": 0.2196688833333269,
          "durationTicks": 239,
          "midi": 59,
          "name": "B3",
          "ticks": 105120,
          "time": 96.61754400000001,
          "velocity": 0.5039370078740157
        },
        {
          "duration": 0.2196688833333269,
          "durationTicks": 239,
          "midi": 62,
          "name": "D4",
          "ticks": 105120,
          "time": 96.61754400000001,
          "velocity": 0.5039370078740157
        },
        {
          "duration": 0.2196688833333269,
          "durationTicks": 239,
          "midi": 66,
          "name": "F#4",
          "ticks": 105120,
          "time": 96.61754400000001,
          "velocity": 0.5039370078740157
        },
        {
          "duration": 0.21966888333334111,
          "durationTicks": 239,
          "midi": 59,
          "name": "B3",
          "ticks": 105360,
          "time": 96.838132,
          "velocity": 0.5039370078740157
        },
        {
          "duration": 0.21966888333334111,
          "durationTicks": 239,
          "midi": 62,
          "name": "D4",
          "ticks": 105360,
          "time": 96.838132,
          "velocity": 0.5039370078740157
        },
        {
          "duration": 0.21966888333334111,
          "durationTicks": 239,
          "midi": 66,
          "name": "F#4",
          "ticks": 105360,
          "time": 96.838132,
          "velocity": 0.5039370078740157
        },
        {
          "duration": 0.44025688333333335,
          "durationTicks": 479,
          "midi": 59,
          "name": "B3",
          "ticks": 105600,
          "time": 97.05872000000001,
          "velocity": 0.5039370078740157
        },
        {
          "duration": 0.44025688333333335,
          "durationTicks": 479,
          "midi": 62,
          "name": "D4",
          "ticks": 105600,
          "time": 97.05872000000001,
          "velocity": 0.5039370078740157
        },
        {
          "duration": 0.44025688333333335,
          "durationTicks": 479,
          "midi": 66,
          "name": "F#4",
          "ticks": 105600,
          "time": 97.05872000000001,
          "velocity": 0.5039370078740157
        },
        {
          "duration": 0.44025688333333335,
          "durationTicks": 479,
          "midi": 60,
          "name": "C4",
          "ticks": 106080,
          "time": 97.499896,
          "velocity": 0.5039370078740157
        },
        {
          "duration": 0.44025688333333335,
          "durationTicks": 479,
          "midi": 64,
          "name": "E4",
          "ticks": 106080,
          "time": 97.499896,
          "velocity": 0.5039370078740157
        },
        {
          "duration": 0.44025688333333335,
          "durationTicks": 479,
          "midi": 67,
          "name": "G4",
          "ticks": 106080,
          "time": 97.499896,
          "velocity": 0.5039370078740157
        },
        {
          "duration": 0.21966888333334111,
          "durationTicks": 239,
          "midi": 59,
          "name": "B3",
          "ticks": 106800,
          "time": 98.16166,
          "velocity": 0.5039370078740157
        },
        {
          "duration": 0.21966888333334111,
          "durationTicks": 239,
          "midi": 62,
          "name": "D4",
          "ticks": 106800,
          "time": 98.16166,
          "velocity": 0.5039370078740157
        },
        {
          "duration": 0.21966888333334111,
          "durationTicks": 239,
          "midi": 66,
          "name": "F#4",
          "ticks": 106800,
          "time": 98.16166,
          "velocity": 0.5039370078740157
        },
        {
          "duration": 0.21966888333334111,
          "durationTicks": 239,
          "midi": 59,
          "name": "B3",
          "ticks": 107280,
          "time": 98.602836,
          "velocity": 0.5039370078740157
        },
        {
          "duration": 0.21966888333334111,
          "durationTicks": 239,
          "midi": 62,
          "name": "D4",
          "ticks": 107280,
          "time": 98.602836,
          "velocity": 0.5039370078740157
        },
        {
          "duration": 0.21966888333334111,
          "durationTicks": 239,
          "midi": 66,
          "name": "F#4",
          "ticks": 107280,
          "time": 98.602836,
          "velocity": 0.5039370078740157
        },
        {
          "duration": 0.2196688833333269,
          "durationTicks": 239,
          "midi": 59,
          "name": "B3",
          "ticks": 107760,
          "time": 99.04401200000001,
          "velocity": 0.5039370078740157
        },
        {
          "duration": 0.2196688833333269,
          "durationTicks": 239,
          "midi": 62,
          "name": "D4",
          "ticks": 107760,
          "time": 99.04401200000001,
          "velocity": 0.5039370078740157
        },
        {
          "duration": 0.2196688833333269,
          "durationTicks": 239,
          "midi": 66,
          "name": "F#4",
          "ticks": 107760,
          "time": 99.04401200000001,
          "velocity": 0.5039370078740157
        },
        {
          "duration": 0.2196688833333269,
          "durationTicks": 239,
          "midi": 59,
          "name": "B3",
          "ticks": 108240,
          "time": 99.48518800000001,
          "velocity": 0.5039370078740157
        },
        {
          "duration": 0.2196688833333269,
          "durationTicks": 239,
          "midi": 62,
          "name": "D4",
          "ticks": 108240,
          "time": 99.48518800000001,
          "velocity": 0.5039370078740157
        },
        {
          "duration": 0.2196688833333269,
          "durationTicks": 239,
          "midi": 66,
          "name": "F#4",
          "ticks": 108240,
          "time": 99.48518800000001,
          "velocity": 0.5039370078740157
        },
        {
          "duration": 0.44025688333333335,
          "durationTicks": 479,
          "midi": 59,
          "name": "B3",
          "ticks": 108480,
          "time": 99.705776,
          "velocity": 0.5039370078740157
        },
        {
          "duration": 0.44025688333333335,
          "durationTicks": 479,
          "midi": 62,
          "name": "D4",
          "ticks": 108480,
          "time": 99.705776,
          "velocity": 0.5039370078740157
        },
        {
          "duration": 0.44025688333333335,
          "durationTicks": 479,
          "midi": 66,
          "name": "F#4",
          "ticks": 108480,
          "time": 99.705776,
          "velocity": 0.5039370078740157
        },
        {
          "duration": 0.44025688333333335,
          "durationTicks": 479,
          "midi": 60,
          "name": "C4",
          "ticks": 108960,
          "time": 100.146952,
          "velocity": 0.5039370078740157
        },
        {
          "duration": 0.44025688333333335,
          "durationTicks": 479,
          "midi": 64,
          "name": "E4",
          "ticks": 108960,
          "time": 100.146952,
          "velocity": 0.5039370078740157
        },
        {
          "duration": 0.44025688333333335,
          "durationTicks": 479,
          "midi": 67,
          "name": "G4",
          "ticks": 108960,
          "time": 100.146952,
          "velocity": 0.5039370078740157
        },
        {
          "duration": 0.21966888333334111,
          "durationTicks": 239,
          "midi": 62,
          "name": "D4",
          "ticks": 109440,
          "time": 100.588128,
          "velocity": 0.5039370078740157
        },
        {
          "duration": 0.21966888333334111,
          "durationTicks": 239,
          "midi": 66,
          "name": "F#4",
          "ticks": 109440,
          "time": 100.588128,
          "velocity": 0.5039370078740157
        },
        {
          "duration": 0.21966888333334111,
          "durationTicks": 239,
          "midi": 69,
          "name": "A4",
          "ticks": 109440,
          "time": 100.588128,
          "velocity": 0.5039370078740157
        },
        {
          "duration": 0.2196688833333269,
          "durationTicks": 239,
          "midi": 62,
          "name": "D4",
          "ticks": 109680,
          "time": 100.808716,
          "velocity": 0.5039370078740157
        },
        {
          "duration": 0.2196688833333269,
          "durationTicks": 239,
          "midi": 66,
          "name": "F#4",
          "ticks": 109680,
          "time": 100.808716,
          "velocity": 0.5039370078740157
        },
        {
          "duration": 0.2196688833333269,
          "durationTicks": 239,
          "midi": 69,
          "name": "A4",
          "ticks": 109680,
          "time": 100.808716,
          "velocity": 0.5039370078740157
        },
        {
          "duration": 0.21966888333334111,
          "durationTicks": 239,
          "midi": 60,
          "name": "C4",
          "ticks": 109920,
          "time": 101.029304,
          "velocity": 0.5039370078740157
        },
        {
          "duration": 0.21966888333334111,
          "durationTicks": 239,
          "midi": 64,
          "name": "E4",
          "ticks": 109920,
          "time": 101.029304,
          "velocity": 0.5039370078740157
        },
        {
          "duration": 0.21966888333334111,
          "durationTicks": 239,
          "midi": 67,
          "name": "G4",
          "ticks": 109920,
          "time": 101.029304,
          "velocity": 0.5039370078740157
        },
        {
          "duration": 0.21966888333334111,
          "durationTicks": 239,
          "midi": 60,
          "name": "C4",
          "ticks": 110160,
          "time": 101.249892,
          "velocity": 0.5039370078740157
        },
        {
          "duration": 0.21966888333334111,
          "durationTicks": 239,
          "midi": 64,
          "name": "E4",
          "ticks": 110160,
          "time": 101.249892,
          "velocity": 0.5039370078740157
        },
        {
          "duration": 0.21966888333334111,
          "durationTicks": 239,
          "midi": 67,
          "name": "G4",
          "ticks": 110160,
          "time": 101.249892,
          "velocity": 0.5039370078740157
        },
        {
          "duration": 0.21966888333334111,
          "durationTicks": 239,
          "midi": 59,
          "name": "B3",
          "ticks": 110640,
          "time": 101.691068,
          "velocity": 0.5039370078740157
        },
        {
          "duration": 0.21966888333334111,
          "durationTicks": 239,
          "midi": 62,
          "name": "D4",
          "ticks": 110640,
          "time": 101.691068,
          "velocity": 0.5039370078740157
        },
        {
          "duration": 0.21966888333334111,
          "durationTicks": 239,
          "midi": 66,
          "name": "F#4",
          "ticks": 110640,
          "time": 101.691068,
          "velocity": 0.5039370078740157
        },
        {
          "duration": 0.21966888333334111,
          "durationTicks": 239,
          "midi": 59,
          "name": "B3",
          "ticks": 111120,
          "time": 102.132244,
          "velocity": 0.5039370078740157
        },
        {
          "duration": 0.21966888333334111,
          "durationTicks": 239,
          "midi": 62,
          "name": "D4",
          "ticks": 111120,
          "time": 102.132244,
          "velocity": 0.5039370078740157
        },
        {
          "duration": 0.21966888333334111,
          "durationTicks": 239,
          "midi": 66,
          "name": "F#4",
          "ticks": 111120,
          "time": 102.132244,
          "velocity": 0.5039370078740157
        },
        {
          "duration": 0.21966888333334111,
          "durationTicks": 239,
          "midi": 59,
          "name": "B3",
          "ticks": 111600,
          "time": 102.57342,
          "velocity": 0.5039370078740157
        },
        {
          "duration": 0.21966888333334111,
          "durationTicks": 239,
          "midi": 62,
          "name": "D4",
          "ticks": 111600,
          "time": 102.57342,
          "velocity": 0.5039370078740157
        },
        {
          "duration": 0.21966888333334111,
          "durationTicks": 239,
          "midi": 66,
          "name": "F#4",
          "ticks": 111600,
          "time": 102.57342,
          "velocity": 0.5039370078740157
        },
        {
          "duration": 0.6608448833333398,
          "durationTicks": 719,
          "midi": 62,
          "name": "D4",
          "ticks": 112080,
          "time": 103.014596,
          "velocity": 0.5039370078740157
        },
        {
          "duration": 0.6608448833333398,
          "durationTicks": 719,
          "midi": 66,
          "name": "F#4",
          "ticks": 112080,
          "time": 103.014596,
          "velocity": 0.5039370078740157
        },
        {
          "duration": 0.6608448833333398,
          "durationTicks": 719,
          "midi": 69,
          "name": "A4",
          "ticks": 112080,
          "time": 103.014596,
          "velocity": 0.5039370078740157
        },
        {
          "duration": 0.44025688333333335,
          "durationTicks": 479,
          "midi": 63,
          "name": "D#4",
          "ticks": 112800,
          "time": 103.67636,
          "velocity": 0.5039370078740157
        },
        {
          "duration": 0.44025688333333335,
          "durationTicks": 479,
          "midi": 67,
          "name": "G4",
          "ticks": 112800,
          "time": 103.67636,
          "velocity": 0.5039370078740157
        },
        {
          "duration": 0.44025688333333335,
          "durationTicks": 479,
          "midi": 70,
          "name": "A#4",
          "ticks": 112800,
          "time": 103.67636,
          "velocity": 0.5039370078740157
        },
        {
          "duration": 0.44025688333333335,
          "durationTicks": 479,
          "midi": 64,
          "name": "E4",
          "ticks": 113280,
          "time": 104.117536,
          "velocity": 0.5039370078740157
        },
        {
          "duration": 0.44025688333333335,
          "durationTicks": 479,
          "midi": 67,
          "name": "G4",
          "ticks": 113280,
          "time": 104.117536,
          "velocity": 0.5039370078740157
        },
        {
          "duration": 0.44025688333333335,
          "durationTicks": 479,
          "midi": 71,
          "name": "B4",
          "ticks": 113280,
          "time": 104.117536,
          "velocity": 0.5039370078740157
        },
        {
          "duration": 0.21966888333334111,
          "durationTicks": 239,
          "midi": 71,
          "name": "B4",
          "ticks": 113760,
          "time": 104.558712,
          "velocity": 0.5039370078740157
        },
        {
          "duration": 0.2196688833333269,
          "durationTicks": 239,
          "midi": 72,
          "name": "C5",
          "ticks": 114000,
          "time": 104.7793,
          "velocity": 0.5039370078740157
        },
        {
          "duration": 0.21966888333334111,
          "durationTicks": 239,
          "midi": 65,
          "name": "F4",
          "ticks": 114240,
          "time": 104.999888,
          "velocity": 0.8818897637795275
        },
        {
          "duration": 0.21966888333334111,
          "durationTicks": 239,
          "midi": 72,
          "name": "C5",
          "ticks": 114240,
          "time": 104.999888,
          "velocity": 0.8818897637795275
        },
        {
          "duration": 0.2196688833333269,
          "durationTicks": 239,
          "midi": 65,
          "name": "F4",
          "ticks": 114480,
          "time": 105.220476,
          "velocity": 0.8818897637795275
        },
        {
          "duration": 0.2196688833333269,
          "durationTicks": 239,
          "midi": 72,
          "name": "C5",
          "ticks": 114480,
          "time": 105.220476,
          "velocity": 0.8818897637795275
        },
        {
          "duration": 0.21966888333334111,
          "durationTicks": 239,
          "midi": 65,
          "name": "F4",
          "ticks": 114720,
          "time": 105.441064,
          "velocity": 0.8818897637795275
        },
        {
          "duration": 0.21966888333334111,
          "durationTicks": 239,
          "midi": 72,
          "name": "C5",
          "ticks": 114720,
          "time": 105.441064,
          "velocity": 0.8818897637795275
        },
        {
          "duration": 0.2196688833333269,
          "durationTicks": 239,
          "midi": 64,
          "name": "E4",
          "ticks": 114960,
          "time": 105.661652,
          "velocity": 0.8818897637795275
        },
        {
          "duration": 0.2196688833333269,
          "durationTicks": 239,
          "midi": 71,
          "name": "B4",
          "ticks": 114960,
          "time": 105.661652,
          "velocity": 0.8818897637795275
        },
        {
          "duration": 0.21966888333334111,
          "durationTicks": 239,
          "midi": 60,
          "name": "C4",
          "ticks": 115440,
          "time": 106.102828,
          "velocity": 0.8818897637795275
        },
        {
          "duration": 0.21966888333334111,
          "durationTicks": 239,
          "midi": 67,
          "name": "G4",
          "ticks": 115440,
          "time": 106.102828,
          "velocity": 0.8818897637795275
        },
        {
          "duration": 1.5431968833333372,
          "durationTicks": 1679,
          "midi": 62,
          "name": "D4",
          "ticks": 115920,
          "time": 106.544004,
          "velocity": 0.8818897637795275
        },
        {
          "duration": 1.5431968833333372,
          "durationTicks": 1679,
          "midi": 69,
          "name": "A4",
          "ticks": 115920,
          "time": 106.544004,
          "velocity": 0.8818897637795275
        },
        {
          "duration": 0.44025688333333335,
          "durationTicks": 479,
          "midi": 67,
          "name": "G4",
          "ticks": 117840,
          "time": 108.30870800000001,
          "velocity": 0.8818897637795275
        },
        {
          "duration": 0.44025688333333335,
          "durationTicks": 479,
          "midi": 71,
          "name": "B4",
          "ticks": 117840,
          "time": 108.30870800000001,
          "velocity": 0.8818897637795275
        },
        {
          "duration": 0.44025688333333335,
          "durationTicks": 479,
          "midi": 74,
          "name": "D5",
          "ticks": 117840,
          "time": 108.30870800000001,
          "velocity": 0.8818897637795275
        },
        {
          "duration": 0.2196688833333269,
          "durationTicks": 239,
          "midi": 67,
          "name": "G4",
          "ticks": 118320,
          "time": 108.74988400000001,
          "velocity": 0.8818897637795275
        },
        {
          "duration": 0.2196688833333269,
          "durationTicks": 239,
          "midi": 71,
          "name": "B4",
          "ticks": 118320,
          "time": 108.74988400000001,
          "velocity": 0.8818897637795275
        },
        {
          "duration": 0.2196688833333269,
          "durationTicks": 239,
          "midi": 74,
          "name": "D5",
          "ticks": 118320,
          "time": 108.74988400000001,
          "velocity": 0.8818897637795275
        },
        {
          "duration": 0.21966888333334111,
          "durationTicks": 239,
          "midi": 67,
          "name": "G4",
          "ticks": 118560,
          "time": 108.970472,
          "velocity": 0.8818897637795275
        },
        {
          "duration": 0.21966888333334111,
          "durationTicks": 239,
          "midi": 71,
          "name": "B4",
          "ticks": 118560,
          "time": 108.970472,
          "velocity": 0.8818897637795275
        },
        {
          "duration": 0.21966888333334111,
          "durationTicks": 239,
          "midi": 74,
          "name": "D5",
          "ticks": 118560,
          "time": 108.970472,
          "velocity": 0.8818897637795275
        },
        {
          "duration": 0.2196688833333269,
          "durationTicks": 239,
          "midi": 67,
          "name": "G4",
          "ticks": 118800,
          "time": 109.19106000000001,
          "velocity": 0.8818897637795275
        },
        {
          "duration": 0.2196688833333269,
          "durationTicks": 239,
          "midi": 71,
          "name": "B4",
          "ticks": 118800,
          "time": 109.19106000000001,
          "velocity": 0.8818897637795275
        },
        {
          "duration": 0.2196688833333269,
          "durationTicks": 239,
          "midi": 74,
          "name": "D5",
          "ticks": 118800,
          "time": 109.19106000000001,
          "velocity": 0.8818897637795275
        },
        {
          "duration": 0.21966888333334111,
          "durationTicks": 239,
          "midi": 68,
          "name": "G#4",
          "ticks": 119040,
          "time": 109.411648,
          "velocity": 0.8818897637795275
        },
        {
          "duration": 0.21966888333334111,
          "durationTicks": 239,
          "midi": 71,
          "name": "B4",
          "ticks": 119040,
          "time": 109.411648,
          "velocity": 0.8818897637795275
        },
        {
          "duration": 0.21966888333334111,
          "durationTicks": 239,
          "midi": 76,
          "name": "E5",
          "ticks": 119040,
          "time": 109.411648,
          "velocity": 0.8818897637795275
        },
        {
          "duration": 1.7637848833333436,
          "durationTicks": 1919,
          "midi": 60,
          "name": "C4",
          "ticks": 120000,
          "time": 110.294,
          "velocity": 0.5039370078740157
        },
        {
          "duration": 1.7637848833333436,
          "durationTicks": 1919,
          "midi": 64,
          "name": "E4",
          "ticks": 120000,
          "time": 110.294,
          "velocity": 0.5039370078740157
        },
        {
          "duration": 1.7637848833333436,
          "durationTicks": 1919,
          "midi": 67,
          "name": "G4",
          "ticks": 120000,
          "time": 110.294,
          "velocity": 0.5039370078740157
        },
        {
          "duration": 1.7637848833333436,
          "durationTicks": 1919,
          "midi": 71,
          "name": "B4",
          "ticks": 120000,
          "time": 110.294,
          "velocity": 0.5039370078740157
        },
        {
          "duration": 0.6608448833333256,
          "durationTicks": 719,
          "midi": 59,
          "name": "B3",
          "ticks": 121920,
          "time": 112.058704,
          "velocity": 0.5039370078740157
        },
        {
          "duration": 0.6608448833333256,
          "durationTicks": 719,
          "midi": 62,
          "name": "D4",
          "ticks": 121920,
          "time": 112.058704,
          "velocity": 0.5039370078740157
        },
        {
          "duration": 0.6608448833333256,
          "durationTicks": 719,
          "midi": 66,
          "name": "F#4",
          "ticks": 121920,
          "time": 112.058704,
          "velocity": 0.5039370078740157
        },
        {
          "duration": 0.6608448833333256,
          "durationTicks": 719,
          "midi": 69,
          "name": "A4",
          "ticks": 121920,
          "time": 112.058704,
          "velocity": 0.5039370078740157
        },
        {
          "duration": 1.1020208833333243,
          "durationTicks": 1199,
          "midi": 64,
          "name": "E4",
          "ticks": 122640,
          "time": 112.720468,
          "velocity": 0.5039370078740157
        },
        {
          "duration": 1.1020208833333243,
          "durationTicks": 1199,
          "midi": 67,
          "name": "G4",
          "ticks": 122640,
          "time": 112.720468,
          "velocity": 0.5039370078740157
        },
        {
          "duration": 1.1020208833333243,
          "durationTicks": 1199,
          "midi": 71,
          "name": "B4",
          "ticks": 122640,
          "time": 112.720468,
          "velocity": 0.5039370078740157
        },
        {
          "duration": 1.1020208833333243,
          "durationTicks": 1199,
          "midi": 74,
          "name": "D5",
          "ticks": 122640,
          "time": 112.720468,
          "velocity": 0.5039370078740157
        },
        {
          "duration": 1.7637848833333294,
          "durationTicks": 1919,
          "midi": 60,
          "name": "C4",
          "ticks": 123840,
          "time": 113.823408,
          "velocity": 0.5039370078740157
        },
        {
          "duration": 1.7637848833333294,
          "durationTicks": 1919,
          "midi": 64,
          "name": "E4",
          "ticks": 123840,
          "time": 113.823408,
          "velocity": 0.5039370078740157
        },
        {
          "duration": 1.7637848833333294,
          "durationTicks": 1919,
          "midi": 67,
          "name": "G4",
          "ticks": 123840,
          "time": 113.823408,
          "velocity": 0.5039370078740157
        },
        {
          "duration": 1.7637848833333294,
          "durationTicks": 1919,
          "midi": 71,
          "name": "B4",
          "ticks": 123840,
          "time": 113.823408,
          "velocity": 0.5039370078740157
        },
        {
          "duration": 0.6608448833333114,
          "durationTicks": 719,
          "midi": 62,
          "name": "D4",
          "ticks": 125760,
          "time": 115.58811200000001,
          "velocity": 0.5039370078740157
        },
        {
          "duration": 0.6608448833333114,
          "durationTicks": 719,
          "midi": 66,
          "name": "F#4",
          "ticks": 125760,
          "time": 115.58811200000001,
          "velocity": 0.5039370078740157
        },
        {
          "duration": 0.6608448833333114,
          "durationTicks": 719,
          "midi": 69,
          "name": "A4",
          "ticks": 125760,
          "time": 115.58811200000001,
          "velocity": 0.5039370078740157
        },
        {
          "duration": 0.6608448833333114,
          "durationTicks": 719,
          "midi": 72,
          "name": "C5",
          "ticks": 125760,
          "time": 115.58811200000001,
          "velocity": 0.5039370078740157
        },
        {
          "duration": 1.1020208833333243,
          "durationTicks": 1199,
          "midi": 55,
          "name": "G3",
          "ticks": 126480,
          "time": 116.249876,
          "velocity": 0.5039370078740157
        },
        {
          "duration": 1.1020208833333243,
          "durationTicks": 1199,
          "midi": 59,
          "name": "B3",
          "ticks": 126480,
          "time": 116.249876,
          "velocity": 0.5039370078740157
        },
        {
          "duration": 1.1020208833333243,
          "durationTicks": 1199,
          "midi": 62,
          "name": "D4",
          "ticks": 126480,
          "time": 116.249876,
          "velocity": 0.5039370078740157
        },
        {
          "duration": 1.1020208833333243,
          "durationTicks": 1199,
          "midi": 65,
          "name": "F4",
          "ticks": 126480,
          "time": 116.249876,
          "velocity": 0.5039370078740157
        },
        {
          "duration": 1.7637848833333152,
          "durationTicks": 1919,
          "midi": 60,
          "name": "C4",
          "ticks": 127680,
          "time": 117.352816,
          "velocity": 0.5039370078740157
        },
        {
          "duration": 1.7637848833333152,
          "durationTicks": 1919,
          "midi": 64,
          "name": "E4",
          "ticks": 127680,
          "time": 117.352816,
          "velocity": 0.5039370078740157
        },
        {
          "duration": 1.7637848833333152,
          "durationTicks": 1919,
          "midi": 67,
          "name": "G4",
          "ticks": 127680,
          "time": 117.352816,
          "velocity": 0.5039370078740157
        },
        {
          "duration": 1.7637848833333152,
          "durationTicks": 1919,
          "midi": 71,
          "name": "B4",
          "ticks": 127680,
          "time": 117.352816,
          "velocity": 0.5039370078740157
        },
        {
          "duration": 0.6608448833333256,
          "durationTicks": 719,
          "midi": 59,
          "name": "B3",
          "ticks": 129600,
          "time": 119.11752,
          "velocity": 0.5039370078740157
        },
        {
          "duration": 0.6608448833333256,
          "durationTicks": 719,
          "midi": 63,
          "name": "D#4",
          "ticks": 129600,
          "time": 119.11752,
          "velocity": 0.5039370078740157
        },
        {
          "duration": 0.6608448833333256,
          "durationTicks": 719,
          "midi": 66,
          "name": "F#4",
          "ticks": 129600,
          "time": 119.11752,
          "velocity": 0.5039370078740157
        },
        {
          "duration": 0.6608448833333256,
          "durationTicks": 719,
          "midi": 69,
          "name": "A4",
          "ticks": 129600,
          "time": 119.11752,
          "velocity": 0.5039370078740157
        },
        {
          "duration": 1.1020208833333243,
          "durationTicks": 1199,
          "midi": 52,
          "name": "E3",
          "ticks": 130320,
          "time": 119.779284,
          "velocity": 0.5039370078740157
        },
        {
          "duration": 1.1020208833333243,
          "durationTicks": 1199,
          "midi": 55,
          "name": "G3",
          "ticks": 130320,
          "time": 119.779284,
          "velocity": 0.5039370078740157
        },
        {
          "duration": 1.1020208833333243,
          "durationTicks": 1199,
          "midi": 59,
          "name": "B3",
          "ticks": 130320,
          "time": 119.779284,
          "velocity": 0.5039370078740157
        },
        {
          "duration": 1.1020208833333243,
          "durationTicks": 1199,
          "midi": 62,
          "name": "D4",
          "ticks": 130320,
          "time": 119.779284,
          "velocity": 0.5039370078740157
        },
        {
          "duration": 1.7637848833333152,
          "durationTicks": 1919,
          "midi": 57,
          "name": "A3",
          "ticks": 131520,
          "time": 120.88222400000001,
          "velocity": 0.5039370078740157
        },
        {
          "duration": 1.7637848833333152,
          "durationTicks": 1919,
          "midi": 60,
          "name": "C4",
          "ticks": 131520,
          "time": 120.88222400000001,
          "velocity": 0.5039370078740157
        },
        {
          "duration": 1.7637848833333152,
          "durationTicks": 1919,
          "midi": 64,
          "name": "E4",
          "ticks": 131520,
          "time": 120.88222400000001,
          "velocity": 0.5039370078740157
        },
        {
          "duration": 1.7637848833333152,
          "durationTicks": 1919,
          "midi": 67,
          "name": "G4",
          "ticks": 131520,
          "time": 120.88222400000001,
          "velocity": 0.5039370078740157
        },
        {
          "duration": 1.543196883333323,
          "durationTicks": 1679,
          "midi": 60,
          "name": "C4",
          "ticks": 133440,
          "time": 122.646928,
          "velocity": 0.5039370078740157
        },
        {
          "duration": 1.543196883333323,
          "durationTicks": 1679,
          "midi": 64,
          "name": "E4",
          "ticks": 133440,
          "time": 122.646928,
          "velocity": 0.5039370078740157
        },
        {
          "duration": 1.543196883333323,
          "durationTicks": 1679,
          "midi": 67,
          "name": "G4",
          "ticks": 133440,
          "time": 122.646928,
          "velocity": 0.5039370078740157
        },
        {
          "duration": 0.2196688833333269,
          "durationTicks": 239,
          "midi": 59,
          "name": "B3",
          "ticks": 135120,
          "time": 124.191044,
          "velocity": 0.5039370078740157
        },
        {
          "duration": 0.2196688833333269,
          "durationTicks": 239,
          "midi": 62,
          "name": "D4",
          "ticks": 135120,
          "time": 124.191044,
          "velocity": 0.5039370078740157
        },
        {
          "duration": 0.2196688833333269,
          "durationTicks": 239,
          "midi": 66,
          "name": "F#4",
          "ticks": 135120,
          "time": 124.191044,
          "velocity": 0.5039370078740157
        },
        {
          "duration": 0.10937488333331657,
          "durationTicks": 119,
          "midi": 57,
          "name": "A3",
          "ticks": 135600,
          "time": 124.63222,
          "velocity": 0.5039370078740157
        },
        {
          "duration": 0.10937488333333079,
          "durationTicks": 119,
          "midi": 58,
          "name": "A#3",
          "ticks": 135720,
          "time": 124.742514,
          "velocity": 0.5039370078740157
        },
        {
          "duration": 0.10937488333331657,
          "durationTicks": 119,
          "midi": 59,
          "name": "B3",
          "ticks": 135840,
          "time": 124.85280800000001,
          "velocity": 0.5039370078740157
        },
        {
          "duration": 0.10937488333331657,
          "durationTicks": 119,
          "midi": 62,
          "name": "D4",
          "ticks": 135960,
          "time": 124.963102,
          "velocity": 0.5039370078740157
        },
        {
          "duration": 0.10937488333331657,
          "durationTicks": 119,
          "midi": 57,
          "name": "A3",
          "ticks": 136320,
          "time": 125.29398400000001,
          "velocity": 0.5039370078740157
        },
        {
          "duration": 0.10937488333331657,
          "durationTicks": 119,
          "midi": 58,
          "name": "A#3",
          "ticks": 136440,
          "time": 125.404278,
          "velocity": 0.5039370078740157
        },
        {
          "duration": 0.10937488333333079,
          "durationTicks": 119,
          "midi": 59,
          "name": "B3",
          "ticks": 136560,
          "time": 125.514572,
          "velocity": 0.5039370078740157
        },
        {
          "duration": 0.10937488333333079,
          "durationTicks": 119,
          "midi": 62,
          "name": "D4",
          "ticks": 136680,
          "time": 125.624866,
          "velocity": 0.5039370078740157
        },
        {
          "duration": 0.10937488333333079,
          "durationTicks": 119,
          "midi": 64,
          "name": "E4",
          "ticks": 137040,
          "time": 125.955748,
          "velocity": 0.5039370078740157
        },
        {
          "duration": 0.10937488333331657,
          "durationTicks": 119,
          "midi": 64,
          "name": "E4",
          "ticks": 137160,
          "time": 126.06604200000001,
          "velocity": 0.5039370078740157
        },
        {
          "duration": 0.10937488333333079,
          "durationTicks": 119,
          "midi": 57,
          "name": "A3",
          "ticks": 137520,
          "time": 126.396924,
          "velocity": 0.5039370078740157
        },
        {
          "duration": 0.10937488333331657,
          "durationTicks": 119,
          "midi": 58,
          "name": "A#3",
          "ticks": 137640,
          "time": 126.50721800000001,
          "velocity": 0.5039370078740157
        },
        {
          "duration": 0.10937488333331657,
          "durationTicks": 119,
          "midi": 59,
          "name": "B3",
          "ticks": 137760,
          "time": 126.617512,
          "velocity": 0.5039370078740157
        },
        {
          "duration": 0.10937488333333079,
          "durationTicks": 119,
          "midi": 62,
          "name": "D4",
          "ticks": 137880,
          "time": 126.727806,
          "velocity": 0.5039370078740157
        },
        {
          "duration": 0.44025688333331914,
          "durationTicks": 479,
          "midi": 67,
          "name": "G4",
          "ticks": 138240,
          "time": 127.058688,
          "velocity": 0.5039370078740157
        },
        {
          "duration": 0.329962883333323,
          "durationTicks": 359,
          "midi": 69,
          "name": "A4",
          "ticks": 138720,
          "time": 127.499864,
          "velocity": 0.5039370078740157
        },
        {
          "duration": 0.10937488333331657,
          "durationTicks": 119,
          "midi": 64,
          "name": "E4",
          "ticks": 139080,
          "time": 127.830746,
          "velocity": 0.5039370078740157
        },
        {
          "duration": 0.10937488333331657,
          "durationTicks": 119,
          "midi": 57,
          "name": "A3",
          "ticks": 139440,
          "time": 128.161628,
          "velocity": 0.5039370078740157
        },
        {
          "duration": 0.10937488333331657,
          "durationTicks": 119,
          "midi": 58,
          "name": "A#3",
          "ticks": 139560,
          "time": 128.27192200000002,
          "velocity": 0.5039370078740157
        },
        {
          "duration": 0.10937488333331657,
          "durationTicks": 119,
          "midi": 59,
          "name": "B3",
          "ticks": 139680,
          "time": 128.382216,
          "velocity": 0.5039370078740157
        },
        {
          "duration": 0.10937488333331657,
          "durationTicks": 119,
          "midi": 62,
          "name": "D4",
          "ticks": 139800,
          "time": 128.49251,
          "velocity": 0.5039370078740157
        },
        {
          "duration": 0.10937488333331657,
          "durationTicks": 119,
          "midi": 57,
          "name": "A3",
          "ticks": 140160,
          "time": 128.823392,
          "velocity": 0.5039370078740157
        },
        {
          "duration": 0.109374883333345,
          "durationTicks": 119,
          "midi": 58,
          "name": "A#3",
          "ticks": 140280,
          "time": 128.933686,
          "velocity": 0.5039370078740157
        },
        {
          "duration": 0.10937488333331657,
          "durationTicks": 119,
          "midi": 59,
          "name": "B3",
          "ticks": 140400,
          "time": 129.04398,
          "velocity": 0.5039370078740157
        },
        {
          "duration": 0.10937488333331657,
          "durationTicks": 119,
          "midi": 62,
          "name": "D4",
          "ticks": 140520,
          "time": 129.15427400000002,
          "velocity": 0.5039370078740157
        },
        {
          "duration": 0.10937488333331657,
          "durationTicks": 119,
          "midi": 64,
          "name": "E4",
          "ticks": 140880,
          "time": 129.48515600000002,
          "velocity": 0.5039370078740157
        },
        {
          "duration": 0.10937488333331657,
          "durationTicks": 119,
          "midi": 64,
          "name": "E4",
          "ticks": 141000,
          "time": 129.59545,
          "velocity": 0.5039370078740157
        },
        {
          "duration": 0.10937488333331657,
          "durationTicks": 119,
          "midi": 59,
          "name": "B3",
          "ticks": 141360,
          "time": 129.926332,
          "velocity": 0.5039370078740157
        },
        {
          "duration": 0.10937488333331657,
          "durationTicks": 119,
          "midi": 57,
          "name": "A3",
          "ticks": 141480,
          "time": 130.036626,
          "velocity": 0.5039370078740157
        },
        {
          "duration": 0.109374883333345,
          "durationTicks": 119,
          "midi": 55,
          "name": "G3",
          "ticks": 141600,
          "time": 130.14692,
          "velocity": 0.5039370078740157
        },
        {
          "duration": 0.10937488333331657,
          "durationTicks": 119,
          "midi": 52,
          "name": "E3",
          "ticks": 141720,
          "time": 130.257214,
          "velocity": 0.5039370078740157
        },
        {
          "duration": 0.44025688333331914,
          "durationTicks": 479,
          "midi": 67,
          "name": "G4",
          "ticks": 142080,
          "time": 130.588096,
          "velocity": 0.5039370078740157
        },
        {
          "duration": 0.32996288333333723,
          "durationTicks": 359,
          "midi": 69,
          "name": "A4",
          "ticks": 142560,
          "time": 131.029272,
          "velocity": 0.5039370078740157
        },
        {
          "duration": 0.109374883333345,
          "durationTicks": 119,
          "midi": 64,
          "name": "E4",
          "ticks": 142920,
          "time": 131.360154,
          "velocity": 0.5039370078740157
        },
        {
          "duration": 0.10937488333331657,
          "durationTicks": 119,
          "midi": 57,
          "name": "A3",
          "ticks": 143280,
          "time": 131.691036,
          "velocity": 0.5039370078740157
        },
        {
          "duration": 0.10937488333331657,
          "durationTicks": 119,
          "midi": 58,
          "name": "A#3",
          "ticks": 143400,
          "time": 131.80133,
          "velocity": 0.5039370078740157
        },
        {
          "duration": 0.10937488333331657,
          "durationTicks": 119,
          "midi": 59,
          "name": "B3",
          "ticks": 143520,
          "time": 131.91162400000002,
          "velocity": 0.5039370078740157
        },
        {
          "duration": 0.10937488333331657,
          "durationTicks": 119,
          "midi": 62,
          "name": "D4",
          "ticks": 143640,
          "time": 132.021918,
          "velocity": 0.5039370078740157
        },
        {
          "duration": 0.10937488333331657,
          "durationTicks": 119,
          "midi": 57,
          "name": "A3",
          "ticks": 144000,
          "time": 132.3528,
          "velocity": 0.5039370078740157
        },
        {
          "duration": 0.10937488333331657,
          "durationTicks": 119,
          "midi": 58,
          "name": "A#3",
          "ticks": 144120,
          "time": 132.463094,
          "velocity": 0.5039370078740157
        },
        {
          "duration": 0.109374883333345,
          "durationTicks": 119,
          "midi": 59,
          "name": "B3",
          "ticks": 144240,
          "time": 132.573388,
          "velocity": 0.5039370078740157
        },
        {
          "duration": 0.10937488333331657,
          "durationTicks": 119,
          "midi": 62,
          "name": "D4",
          "ticks": 144360,
          "time": 132.683682,
          "velocity": 0.5039370078740157
        },
        {
          "duration": 0.10937488333331657,
          "durationTicks": 119,
          "midi": 64,
          "name": "E4",
          "ticks": 144720,
          "time": 133.014564,
          "velocity": 0.5039370078740157
        },
        {
          "duration": 0.10937488333331657,
          "durationTicks": 119,
          "midi": 64,
          "name": "E4",
          "ticks": 144840,
          "time": 133.12485800000002,
          "velocity": 0.5039370078740157
        },
        {
          "duration": 0.109374883333345,
          "durationTicks": 119,
          "midi": 57,
          "name": "A3",
          "ticks": 145200,
          "time": 133.45574,
          "velocity": 0.5039370078740157
        },
        {
          "duration": 0.10937488333331657,
          "durationTicks": 119,
          "midi": 58,
          "name": "A#3",
          "ticks": 145320,
          "time": 133.566034,
          "velocity": 0.5039370078740157
        },
        {
          "duration": 0.10937488333331657,
          "durationTicks": 119,
          "midi": 59,
          "name": "B3",
          "ticks": 145440,
          "time": 133.676328,
          "velocity": 0.5039370078740157
        },
        {
          "duration": 0.109374883333345,
          "durationTicks": 119,
          "midi": 62,
          "name": "D4",
          "ticks": 145560,
          "time": 133.786622,
          "velocity": 0.5039370078740157
        },
        {
          "duration": 0.44025688333331914,
          "durationTicks": 479,
          "midi": 67,
          "name": "G4",
          "ticks": 145920,
          "time": 134.117504,
          "velocity": 0.5039370078740157
        },
        {
          "duration": 0.3299628833333088,
          "durationTicks": 359,
          "midi": 69,
          "name": "A4",
          "ticks": 146400,
          "time": 134.55868,
          "velocity": 0.5039370078740157
        },
        {
          "duration": 0.10937488333331657,
          "durationTicks": 119,
          "midi": 64,
          "name": "E4",
          "ticks": 146760,
          "time": 134.889562,
          "velocity": 0.5039370078740157
        },
        {
          "duration": 0.10937488333331657,
          "durationTicks": 119,
          "midi": 57,
          "name": "A3",
          "ticks": 147120,
          "time": 135.22044400000001,
          "velocity": 0.5039370078740157
        },
        {
          "duration": 0.10937488333331657,
          "durationTicks": 119,
          "midi": 58,
          "name": "A#3",
          "ticks": 147240,
          "time": 135.330738,
          "velocity": 0.5039370078740157
        },
        {
          "duration": 0.10937488333331657,
          "durationTicks": 119,
          "midi": 59,
          "name": "B3",
          "ticks": 147360,
          "time": 135.441032,
          "velocity": 0.5039370078740157
        },
        {
          "duration": 0.10937488333331657,
          "durationTicks": 119,
          "midi": 62,
          "name": "D4",
          "ticks": 147480,
          "time": 135.55132600000002,
          "velocity": 0.5039370078740157
        },
        {
          "duration": 0.109374883333345,
          "durationTicks": 119,
          "midi": 57,
          "name": "A3",
          "ticks": 147840,
          "time": 135.882208,
          "velocity": 0.5039370078740157
        },
        {
          "duration": 0.10937488333331657,
          "durationTicks": 119,
          "midi": 58,
          "name": "A#3",
          "ticks": 147960,
          "time": 135.992502,
          "velocity": 0.5039370078740157
        },
        {
          "duration": 0.10937488333331657,
          "durationTicks": 119,
          "midi": 59,
          "name": "B3",
          "ticks": 148080,
          "time": 136.102796,
          "velocity": 0.5039370078740157
        },
        {
          "duration": 0.109374883333345,
          "durationTicks": 119,
          "midi": 62,
          "name": "D4",
          "ticks": 148200,
          "time": 136.21309,
          "velocity": 0.5039370078740157
        },
        {
          "duration": 0.10937488333331657,
          "durationTicks": 119,
          "midi": 64,
          "name": "E4",
          "ticks": 148560,
          "time": 136.543972,
          "velocity": 0.5039370078740157
        },
        {
          "duration": 0.10937488333331657,
          "durationTicks": 119,
          "midi": 64,
          "name": "E4",
          "ticks": 148680,
          "time": 136.654266,
          "velocity": 0.5039370078740157
        },
        {
          "duration": 0.10937488333331657,
          "durationTicks": 119,
          "midi": 59,
          "name": "B3",
          "ticks": 149040,
          "time": 136.985148,
          "velocity": 0.5039370078740157
        },
        {
          "duration": 0.109374883333345,
          "durationTicks": 119,
          "midi": 57,
          "name": "A3",
          "ticks": 149160,
          "time": 137.095442,
          "velocity": 0.5039370078740157
        },
        {
          "duration": 0.10937488333331657,
          "durationTicks": 119,
          "midi": 55,
          "name": "G3",
          "ticks": 149280,
          "time": 137.205736,
          "velocity": 0.5039370078740157
        },
        {
          "duration": 0.10937488333331657,
          "durationTicks": 119,
          "midi": 52,
          "name": "E3",
          "ticks": 149400,
          "time": 137.31603,
          "velocity": 0.5039370078740157
        },
        {
          "duration": 0.44025688333331914,
          "durationTicks": 479,
          "midi": 67,
          "name": "G4",
          "ticks": 149760,
          "time": 137.64691200000001,
          "velocity": 0.5039370078740157
        },
        {
          "duration": 0.32996288333333723,
          "durationTicks": 359,
          "midi": 69,
          "name": "A4",
          "ticks": 150240,
          "time": 138.088088,
          "velocity": 0.5039370078740157
        },
        {
          "duration": 0.10937488333331657,
          "durationTicks": 119,
          "midi": 64,
          "name": "E4",
          "ticks": 150600,
          "time": 138.41897,
          "velocity": 0.5039370078740157
        },
        {
          "duration": 0.029411733333319035,
          "durationTicks": 32,
          "midi": 64,
          "name": "E4",
          "ticks": 151440,
          "time": 139.19102800000002,
          "velocity": 0.5039370078740157
        },
        {
          "duration": 0.029411733333347456,
          "durationTicks": 32,
          "midi": 65,
          "name": "F4",
          "ticks": 151473,
          "time": 139.22135885,
          "velocity": 0.5039370078740157
        },
        {
          "duration": 0.029411733333319035,
          "durationTicks": 32,
          "midi": 66,
          "name": "F#4",
          "ticks": 151507,
          "time": 139.25260881666668,
          "velocity": 0.5039370078740157
        },
        {
          "duration": 0.029411733333319035,
          "durationTicks": 32,
          "midi": 67,
          "name": "G4",
          "ticks": 151542,
          "time": 139.2847779,
          "velocity": 0.5039370078740157
        },
        {
          "duration": 0.029411733333319035,
          "durationTicks": 32,
          "midi": 68,
          "name": "G#4",
          "ticks": 151575,
          "time": 139.31510875,
          "velocity": 0.5039370078740157
        },
        {
          "duration": 0.029411733333347456,
          "durationTicks": 32,
          "midi": 69,
          "name": "A4",
          "ticks": 151609,
          "time": 139.34635871666666,
          "velocity": 0.5039370078740157
        },
        {
          "duration": 0.03216908333331503,
          "durationTicks": 35,
          "midi": 70,
          "name": "A#4",
          "ticks": 151644,
          "time": 139.3785278,
          "velocity": 0.5039370078740157
        },
        {
          "duration": 0.10937488333331657,
          "durationTicks": 119,
          "midi": 71,
          "name": "B4",
          "ticks": 151680,
          "time": 139.411616,
          "velocity": 0.5039370078740157
        },
        {
          "duration": 0.10937488333331657,
          "durationTicks": 119,
          "midi": 69,
          "name": "A4",
          "ticks": 151920,
          "time": 139.632204,
          "velocity": 0.5039370078740157
        },
        {
          "duration": 0.109374883333345,
          "durationTicks": 119,
          "midi": 67,
          "name": "G4",
          "ticks": 152160,
          "time": 139.852792,
          "velocity": 0.5039370078740157
        },
        {
          "duration": 0.2196688833333269,
          "durationTicks": 239,
          "midi": 64,
          "name": "E4",
          "ticks": 152280,
          "time": 139.963086,
          "velocity": 0.5039370078740157
        },
        {
          "duration": 1.7637848833333294,
          "durationTicks": 1919,
          "midi": 60,
          "name": "C4",
          "ticks": 154560,
          "time": 142.058672,
          "velocity": 0.3858267716535433
        },
        {
          "duration": 1.7637848833333294,
          "durationTicks": 1919,
          "midi": 64,
          "name": "E4",
          "ticks": 154560,
          "time": 142.058672,
          "velocity": 0.3858267716535433
        },
        {
          "duration": 1.7637848833333294,
          "durationTicks": 1919,
          "midi": 67,
          "name": "G4",
          "ticks": 154560,
          "time": 142.058672,
          "velocity": 0.3858267716535433
        },
        {
          "duration": 1.7637848833333294,
          "durationTicks": 1919,
          "midi": 71,
          "name": "B4",
          "ticks": 154560,
          "time": 142.058672,
          "velocity": 0.3858267716535433
        },
        {
          "duration": 0.6608448833333398,
          "durationTicks": 719,
          "midi": 59,
          "name": "B3",
          "ticks": 156480,
          "time": 143.823376,
          "velocity": 0.3858267716535433
        },
        {
          "duration": 0.6608448833333398,
          "durationTicks": 719,
          "midi": 62,
          "name": "D4",
          "ticks": 156480,
          "time": 143.823376,
          "velocity": 0.3858267716535433
        },
        {
          "duration": 0.6608448833333398,
          "durationTicks": 719,
          "midi": 66,
          "name": "F#4",
          "ticks": 156480,
          "time": 143.823376,
          "velocity": 0.3858267716535433
        },
        {
          "duration": 0.6608448833333398,
          "durationTicks": 719,
          "midi": 69,
          "name": "A4",
          "ticks": 156480,
          "time": 143.823376,
          "velocity": 0.3858267716535433
        },
        {
          "duration": 1.1020208833333243,
          "durationTicks": 1199,
          "midi": 64,
          "name": "E4",
          "ticks": 157200,
          "time": 144.48514,
          "velocity": 0.3858267716535433
        },
        {
          "duration": 1.1020208833333243,
          "durationTicks": 1199,
          "midi": 67,
          "name": "G4",
          "ticks": 157200,
          "time": 144.48514,
          "velocity": 0.3858267716535433
        },
        {
          "duration": 1.1020208833333243,
          "durationTicks": 1199,
          "midi": 71,
          "name": "B4",
          "ticks": 157200,
          "time": 144.48514,
          "velocity": 0.3858267716535433
        },
        {
          "duration": 1.1020208833333243,
          "durationTicks": 1199,
          "midi": 74,
          "name": "D5",
          "ticks": 157200,
          "time": 144.48514,
          "velocity": 0.3858267716535433
        },
        {
          "duration": 1.7637848833333294,
          "durationTicks": 1919,
          "midi": 60,
          "name": "C4",
          "ticks": 158400,
          "time": 145.58808,
          "velocity": 0.3858267716535433
        },
        {
          "duration": 1.7637848833333294,
          "durationTicks": 1919,
          "midi": 64,
          "name": "E4",
          "ticks": 158400,
          "time": 145.58808,
          "velocity": 0.3858267716535433
        },
        {
          "duration": 1.7637848833333294,
          "durationTicks": 1919,
          "midi": 67,
          "name": "G4",
          "ticks": 158400,
          "time": 145.58808,
          "velocity": 0.3858267716535433
        },
        {
          "duration": 1.7637848833333294,
          "durationTicks": 1919,
          "midi": 71,
          "name": "B4",
          "ticks": 158400,
          "time": 145.58808,
          "velocity": 0.3858267716535433
        },
        {
          "duration": 0.6608448833333114,
          "durationTicks": 719,
          "midi": 62,
          "name": "D4",
          "ticks": 160320,
          "time": 147.352784,
          "velocity": 0.3858267716535433
        },
        {
          "duration": 0.6608448833333114,
          "durationTicks": 719,
          "midi": 66,
          "name": "F#4",
          "ticks": 160320,
          "time": 147.352784,
          "velocity": 0.3858267716535433
        },
        {
          "duration": 0.6608448833333114,
          "durationTicks": 719,
          "midi": 69,
          "name": "A4",
          "ticks": 160320,
          "time": 147.352784,
          "velocity": 0.3858267716535433
        },
        {
          "duration": 0.6608448833333114,
          "durationTicks": 719,
          "midi": 72,
          "name": "C5",
          "ticks": 160320,
          "time": 147.352784,
          "velocity": 0.3858267716535433
        },
        {
          "duration": 1.1020208833333243,
          "durationTicks": 1199,
          "midi": 55,
          "name": "G3",
          "ticks": 161040,
          "time": 148.014548,
          "velocity": 0.3858267716535433
        },
        {
          "duration": 1.1020208833333243,
          "durationTicks": 1199,
          "midi": 59,
          "name": "B3",
          "ticks": 161040,
          "time": 148.014548,
          "velocity": 0.3858267716535433
        },
        {
          "duration": 1.1020208833333243,
          "durationTicks": 1199,
          "midi": 62,
          "name": "D4",
          "ticks": 161040,
          "time": 148.014548,
          "velocity": 0.3858267716535433
        },
        {
          "duration": 1.1020208833333243,
          "durationTicks": 1199,
          "midi": 65,
          "name": "F4",
          "ticks": 161040,
          "time": 148.014548,
          "velocity": 0.3858267716535433
        },
        {
          "duration": 1.7637848833333294,
          "durationTicks": 1919,
          "midi": 60,
          "name": "C4",
          "ticks": 162240,
          "time": 149.117488,
          "velocity": 0.3858267716535433
        },
        {
          "duration": 1.7637848833333294,
          "durationTicks": 1919,
          "midi": 64,
          "name": "E4",
          "ticks": 162240,
          "time": 149.117488,
          "velocity": 0.3858267716535433
        },
        {
          "duration": 1.7637848833333294,
          "durationTicks": 1919,
          "midi": 67,
          "name": "G4",
          "ticks": 162240,
          "time": 149.117488,
          "velocity": 0.3858267716535433
        },
        {
          "duration": 1.7637848833333294,
          "durationTicks": 1919,
          "midi": 71,
          "name": "B4",
          "ticks": 162240,
          "time": 149.117488,
          "velocity": 0.3858267716535433
        },
        {
          "duration": 0.6608448833333114,
          "durationTicks": 719,
          "midi": 59,
          "name": "B3",
          "ticks": 164160,
          "time": 150.882192,
          "velocity": 0.3858267716535433
        },
        {
          "duration": 0.6608448833333114,
          "durationTicks": 719,
          "midi": 63,
          "name": "D#4",
          "ticks": 164160,
          "time": 150.882192,
          "velocity": 0.3858267716535433
        },
        {
          "duration": 0.6608448833333114,
          "durationTicks": 719,
          "midi": 66,
          "name": "F#4",
          "ticks": 164160,
          "time": 150.882192,
          "velocity": 0.3858267716535433
        },
        {
          "duration": 0.6608448833333114,
          "durationTicks": 719,
          "midi": 69,
          "name": "A4",
          "ticks": 164160,
          "time": 150.882192,
          "velocity": 0.3858267716535433
        },
        {
          "duration": 1.1020208833333243,
          "durationTicks": 1199,
          "midi": 52,
          "name": "E3",
          "ticks": 164880,
          "time": 151.543956,
          "velocity": 0.3858267716535433
        },
        {
          "duration": 1.1020208833333243,
          "durationTicks": 1199,
          "midi": 55,
          "name": "G3",
          "ticks": 164880,
          "time": 151.543956,
          "velocity": 0.3858267716535433
        },
        {
          "duration": 1.1020208833333243,
          "durationTicks": 1199,
          "midi": 59,
          "name": "B3",
          "ticks": 164880,
          "time": 151.543956,
          "velocity": 0.3858267716535433
        },
        {
          "duration": 1.1020208833333243,
          "durationTicks": 1199,
          "midi": 62,
          "name": "D4",
          "ticks": 164880,
          "time": 151.543956,
          "velocity": 0.3858267716535433
        },
        {
          "duration": 0.44025688333331914,
          "durationTicks": 479,
          "midi": 67,
          "name": "G4",
          "ticks": 166080,
          "time": 152.646896,
          "velocity": 0.3858267716535433
        },
        {
          "duration": 0.44025688333331914,
          "durationTicks": 479,
          "midi": 64,
          "name": "E4",
          "ticks": 166560,
          "time": 153.088072,
          "velocity": 0.3858267716535433
        },
        {
          "duration": 0.44025688333331914,
          "durationTicks": 479,
          "midi": 60,
          "name": "C4",
          "ticks": 167040,
          "time": 153.529248,
          "velocity": 0.3858267716535433
        },
        {
          "duration": 0.44025688333331914,
          "durationTicks": 479,
          "midi": 57,
          "name": "A3",
          "ticks": 167520,
          "time": 153.970424,
          "velocity": 0.3858267716535433
        },
        {
          "duration": 0.881432883333332,
          "durationTicks": 959,
          "midi": 55,
          "name": "G3",
          "ticks": 168000,
          "time": 154.4116,
          "velocity": 0.3858267716535433
        },
        {
          "duration": 0.6608448833333398,
          "durationTicks": 719,
          "midi": 54,
          "name": "F#3",
          "ticks": 168960,
          "time": 155.293952,
          "velocity": 0.3858267716535433
        },
        {
          "duration": 0.2196688833333269,
          "durationTicks": 239,
          "midi": 55,
          "name": "G3",
          "ticks": 169680,
          "time": 155.955716,
          "velocity": 0.3858267716535433
        },
        {
          "duration": 1.7637848833333294,
          "durationTicks": 1919,
          "midi": 60,
          "name": "C4",
          "ticks": 171840,
          "time": 157.941008,
          "velocity": 0.7559055118110236
        },
        {
          "duration": 1.7637848833333294,
          "durationTicks": 1919,
          "midi": 64,
          "name": "E4",
          "ticks": 171840,
          "time": 157.941008,
          "velocity": 0.7559055118110236
        },
        {
          "duration": 1.7637848833333294,
          "durationTicks": 1919,
          "midi": 67,
          "name": "G4",
          "ticks": 171840,
          "time": 157.941008,
          "velocity": 0.7559055118110236
        },
        {
          "duration": 1.7637848833333294,
          "durationTicks": 1919,
          "midi": 71,
          "name": "B4",
          "ticks": 171840,
          "time": 157.941008,
          "velocity": 0.7559055118110236
        },
        {
          "duration": 0.6608448833333114,
          "durationTicks": 719,
          "midi": 59,
          "name": "B3",
          "ticks": 173760,
          "time": 159.705712,
          "velocity": 0.7559055118110236
        },
        {
          "duration": 0.6608448833333114,
          "durationTicks": 719,
          "midi": 62,
          "name": "D4",
          "ticks": 173760,
          "time": 159.705712,
          "velocity": 0.7559055118110236
        },
        {
          "duration": 0.6608448833333114,
          "durationTicks": 719,
          "midi": 66,
          "name": "F#4",
          "ticks": 173760,
          "time": 159.705712,
          "velocity": 0.7559055118110236
        },
        {
          "duration": 0.6608448833333114,
          "durationTicks": 719,
          "midi": 69,
          "name": "A4",
          "ticks": 173760,
          "time": 159.705712,
          "velocity": 0.7559055118110236
        },
        {
          "duration": 1.1020208833333243,
          "durationTicks": 1199,
          "midi": 64,
          "name": "E4",
          "ticks": 174480,
          "time": 160.367476,
          "velocity": 0.7559055118110236
        },
        {
          "duration": 1.1020208833333243,
          "durationTicks": 1199,
          "midi": 67,
          "name": "G4",
          "ticks": 174480,
          "time": 160.367476,
          "velocity": 0.7559055118110236
        },
        {
          "duration": 1.1020208833333243,
          "durationTicks": 1199,
          "midi": 71,
          "name": "B4",
          "ticks": 174480,
          "time": 160.367476,
          "velocity": 0.7559055118110236
        },
        {
          "duration": 1.1020208833333243,
          "durationTicks": 1199,
          "midi": 74,
          "name": "D5",
          "ticks": 174480,
          "time": 160.367476,
          "velocity": 0.7559055118110236
        },
        {
          "duration": 1.7637848833333294,
          "durationTicks": 1919,
          "midi": 60,
          "name": "C4",
          "ticks": 175680,
          "time": 161.470416,
          "velocity": 0.7559055118110236
        },
        {
          "duration": 1.7637848833333294,
          "durationTicks": 1919,
          "midi": 64,
          "name": "E4",
          "ticks": 175680,
          "time": 161.470416,
          "velocity": 0.7559055118110236
        },
        {
          "duration": 1.7637848833333294,
          "durationTicks": 1919,
          "midi": 67,
          "name": "G4",
          "ticks": 175680,
          "time": 161.470416,
          "velocity": 0.7559055118110236
        },
        {
          "duration": 1.7637848833333294,
          "durationTicks": 1919,
          "midi": 71,
          "name": "B4",
          "ticks": 175680,
          "time": 161.470416,
          "velocity": 0.7559055118110236
        },
        {
          "duration": 0.6608448833333398,
          "durationTicks": 719,
          "midi": 62,
          "name": "D4",
          "ticks": 177600,
          "time": 163.23512,
          "velocity": 0.7559055118110236
        },
        {
          "duration": 0.6608448833333398,
          "durationTicks": 719,
          "midi": 66,
          "name": "F#4",
          "ticks": 177600,
          "time": 163.23512,
          "velocity": 0.7559055118110236
        },
        {
          "duration": 0.6608448833333398,
          "durationTicks": 719,
          "midi": 69,
          "name": "A4",
          "ticks": 177600,
          "time": 163.23512,
          "velocity": 0.7559055118110236
        },
        {
          "duration": 0.6608448833333398,
          "durationTicks": 719,
          "midi": 72,
          "name": "C5",
          "ticks": 177600,
          "time": 163.23512,
          "velocity": 0.7559055118110236
        },
        {
          "duration": 1.1020208833333243,
          "durationTicks": 1199,
          "midi": 55,
          "name": "G3",
          "ticks": 178320,
          "time": 163.896884,
          "velocity": 0.7559055118110236
        },
        {
          "duration": 1.1020208833333243,
          "durationTicks": 1199,
          "midi": 59,
          "name": "B3",
          "ticks": 178320,
          "time": 163.896884,
          "velocity": 0.7559055118110236
        },
        {
          "duration": 1.1020208833333243,
          "durationTicks": 1199,
          "midi": 62,
          "name": "D4",
          "ticks": 178320,
          "time": 163.896884,
          "velocity": 0.7559055118110236
        },
        {
          "duration": 1.1020208833333243,
          "durationTicks": 1199,
          "midi": 65,
          "name": "F4",
          "ticks": 178320,
          "time": 163.896884,
          "velocity": 0.7559055118110236
        },
        {
          "duration": 1.763784883333301,
          "durationTicks": 1919,
          "midi": 60,
          "name": "C4",
          "ticks": 179520,
          "time": 164.99982400000002,
          "velocity": 0.7559055118110236
        },
        {
          "duration": 1.763784883333301,
          "durationTicks": 1919,
          "midi": 64,
          "name": "E4",
          "ticks": 179520,
          "time": 164.99982400000002,
          "velocity": 0.7559055118110236
        },
        {
          "duration": 1.763784883333301,
          "durationTicks": 1919,
          "midi": 67,
          "name": "G4",
          "ticks": 179520,
          "time": 164.99982400000002,
          "velocity": 0.7559055118110236
        },
        {
          "duration": 1.763784883333301,
          "durationTicks": 1919,
          "midi": 71,
          "name": "B4",
          "ticks": 179520,
          "time": 164.99982400000002,
          "velocity": 0.7559055118110236
        },
        {
          "duration": 0.6608448833333114,
          "durationTicks": 719,
          "midi": 59,
          "name": "B3",
          "ticks": 181440,
          "time": 166.764528,
          "velocity": 0.7559055118110236
        },
        {
          "duration": 0.6608448833333114,
          "durationTicks": 719,
          "midi": 63,
          "name": "D#4",
          "ticks": 181440,
          "time": 166.764528,
          "velocity": 0.7559055118110236
        },
        {
          "duration": 0.6608448833333114,
          "durationTicks": 719,
          "midi": 66,
          "name": "F#4",
          "ticks": 181440,
          "time": 166.764528,
          "velocity": 0.7559055118110236
        },
        {
          "duration": 0.6608448833333114,
          "durationTicks": 719,
          "midi": 69,
          "name": "A4",
          "ticks": 181440,
          "time": 166.764528,
          "velocity": 0.7559055118110236
        },
        {
          "duration": 1.1020208833332958,
          "durationTicks": 1199,
          "midi": 52,
          "name": "E3",
          "ticks": 182160,
          "time": 167.42629200000002,
          "velocity": 0.7559055118110236
        },
        {
          "duration": 1.1020208833332958,
          "durationTicks": 1199,
          "midi": 55,
          "name": "G3",
          "ticks": 182160,
          "time": 167.42629200000002,
          "velocity": 0.7559055118110236
        },
        {
          "duration": 1.1020208833332958,
          "durationTicks": 1199,
          "midi": 59,
          "name": "B3",
          "ticks": 182160,
          "time": 167.42629200000002,
          "velocity": 0.7559055118110236
        },
        {
          "duration": 1.1020208833332958,
          "durationTicks": 1199,
          "midi": 62,
          "name": "D4",
          "ticks": 182160,
          "time": 167.42629200000002,
          "velocity": 0.7559055118110236
        },
        {
          "duration": 1.7637848833333294,
          "durationTicks": 1919,
          "midi": 57,
          "name": "A3",
          "ticks": 183360,
          "time": 168.529232,
          "velocity": 0.7559055118110236
        },
        {
          "duration": 1.7637848833333294,
          "durationTicks": 1919,
          "midi": 60,
          "name": "C4",
          "ticks": 183360,
          "time": 168.529232,
          "velocity": 0.7559055118110236
        },
        {
          "duration": 1.7637848833333294,
          "durationTicks": 1919,
          "midi": 64,
          "name": "E4",
          "ticks": 183360,
          "time": 168.529232,
          "velocity": 0.7559055118110236
        },
        {
          "duration": 1.7637848833333294,
          "durationTicks": 1919,
          "midi": 67,
          "name": "G4",
          "ticks": 183360,
          "time": 168.529232,
          "velocity": 0.7559055118110236
        },
        {
          "duration": 1.5431968833333372,
          "durationTicks": 1679,
          "midi": 60,
          "name": "C4",
          "ticks": 185280,
          "time": 170.293936,
          "velocity": 0.7559055118110236
        },
        {
          "duration": 1.5431968833333372,
          "durationTicks": 1679,
          "midi": 64,
          "name": "E4",
          "ticks": 185280,
          "time": 170.293936,
          "velocity": 0.7559055118110236
        },
        {
          "duration": 1.5431968833333372,
          "durationTicks": 1679,
          "midi": 67,
          "name": "G4",
          "ticks": 185280,
          "time": 170.293936,
          "velocity": 0.7559055118110236
        },
        {
          "duration": 0.881432883333332,
          "durationTicks": 959,
          "midi": 59,
          "name": "B3",
          "ticks": 186960,
          "time": 171.838052,
          "velocity": 0.7559055118110236
        },
        {
          "duration": 0.881432883333332,
          "durationTicks": 959,
          "midi": 62,
          "name": "D4",
          "ticks": 186960,
          "time": 171.838052,
          "velocity": 0.7559055118110236
        },
        {
          "duration": 0.881432883333332,
          "durationTicks": 959,
          "midi": 66,
          "name": "F#4",
          "ticks": 186960,
          "time": 171.838052,
          "velocity": 0.7559055118110236
        },
        {
          "duration": 0.881432883333332,
          "durationTicks": 959,
          "midi": 60,
          "name": "C4",
          "ticks": 187920,
          "time": 172.720404,
          "velocity": 0.7559055118110236
        },
        {
          "duration": 0.881432883333332,
          "durationTicks": 959,
          "midi": 64,
          "name": "E4",
          "ticks": 187920,
          "time": 172.720404,
          "velocity": 0.7559055118110236
        },
        {
          "duration": 0.881432883333332,
          "durationTicks": 959,
          "midi": 67,
          "name": "G4",
          "ticks": 187920,
          "time": 172.720404,
          "velocity": 0.7559055118110236
        },
        {
          "duration": 1.9843728833333216,
          "durationTicks": 2159,
          "midi": 60,
          "name": "C4",
          "ticks": 188880,
          "time": 173.602756,
          "velocity": 0.7559055118110236
        },
        {
          "duration": 1.9843728833333216,
          "durationTicks": 2159,
          "midi": 66,
          "name": "F#4",
          "ticks": 188880,
          "time": 173.602756,
          "velocity": 0.7559055118110236
        },
        {
          "duration": 1.9843728833333216,
          "durationTicks": 2159,
          "midi": 69,
          "name": "A4",
          "ticks": 188880,
          "time": 173.602756,
          "velocity": 0.7559055118110236
        },
        {
          "duration": 0.10937488333331657,
          "durationTicks": 119,
          "midi": 67,
          "name": "G4",
          "ticks": 191040,
          "time": 175.58804800000001,
          "velocity": 0.7559055118110236
        },
        {
          "duration": 0.10937488333331657,
          "durationTicks": 119,
          "midi": 64,
          "name": "E4",
          "ticks": 191160,
          "time": 175.698342,
          "velocity": 0.7559055118110236
        },
        {
          "duration": 0.10937488333331657,
          "durationTicks": 119,
          "midi": 62,
          "name": "D4",
          "ticks": 191280,
          "time": 175.808636,
          "velocity": 0.7559055118110236
        },
        {
          "duration": 0.10937488333331657,
          "durationTicks": 119,
          "midi": 59,
          "name": "B3",
          "ticks": 191400,
          "time": 175.91893000000002,
          "velocity": 0.7559055118110236
        },
        {
          "duration": 0.109374883333345,
          "durationTicks": 119,
          "midi": 64,
          "name": "E4",
          "ticks": 191760,
          "time": 176.249812,
          "velocity": 0.7559055118110236
        },
        {
          "duration": 0.10937488333331657,
          "durationTicks": 119,
          "midi": 62,
          "name": "D4",
          "ticks": 191880,
          "time": 176.360106,
          "velocity": 0.7559055118110236
        },
        {
          "duration": 0.10937488333331657,
          "durationTicks": 119,
          "midi": 59,
          "name": "B3",
          "ticks": 192000,
          "time": 176.4704,
          "velocity": 0.7559055118110236
        },
        {
          "duration": 0.109374883333345,
          "durationTicks": 119,
          "midi": 57,
          "name": "A3",
          "ticks": 192120,
          "time": 176.580694,
          "velocity": 0.7559055118110236
        },
        {
          "duration": 0.10937488333331657,
          "durationTicks": 119,
          "midi": 62,
          "name": "D4",
          "ticks": 192480,
          "time": 176.911576,
          "velocity": 0.7559055118110236
        },
        {
          "duration": 0.10937488333331657,
          "durationTicks": 119,
          "midi": 59,
          "name": "B3",
          "ticks": 192600,
          "time": 177.02187,
          "velocity": 0.7559055118110236
        },
        {
          "duration": 0.10937488333331657,
          "durationTicks": 119,
          "midi": 57,
          "name": "A3",
          "ticks": 192720,
          "time": 177.13216400000002,
          "velocity": 0.7559055118110236
        },
        {
          "duration": 0.10937488333331657,
          "durationTicks": 119,
          "midi": 55,
          "name": "G3",
          "ticks": 192840,
          "time": 177.242458,
          "velocity": 0.7559055118110236
        },
        {
          "duration": 0.10937488333331657,
          "durationTicks": 119,
          "midi": 59,
          "name": "B3",
          "ticks": 193200,
          "time": 177.57334,
          "velocity": 0.7559055118110236
        },
        {
          "duration": 0.10937488333331657,
          "durationTicks": 119,
          "midi": 57,
          "name": "A3",
          "ticks": 193320,
          "time": 177.683634,
          "velocity": 0.7559055118110236
        },
        {
          "duration": 0.109374883333345,
          "durationTicks": 119,
          "midi": 55,
          "name": "G3",
          "ticks": 193440,
          "time": 177.793928,
          "velocity": 0.7559055118110236
        },
        {
          "duration": 0.10937488333331657,
          "durationTicks": 119,
          "midi": 52,
          "name": "E3",
          "ticks": 193560,
          "time": 177.904222,
          "velocity": 0.7559055118110236
        },
        {
          "duration": 0.10937488333331657,
          "durationTicks": 119,
          "midi": 57,
          "name": "A3",
          "ticks": 194160,
          "time": 178.455692,
          "velocity": 0.7559055118110236
        },
        {
          "duration": 0.10937488333331657,
          "durationTicks": 119,
          "midi": 59,
          "name": "B3",
          "ticks": 194280,
          "time": 178.565986,
          "velocity": 0.7559055118110236
        },
        {
          "duration": 0.109374883333345,
          "durationTicks": 119,
          "midi": 67,
          "name": "G4",
          "ticks": 194400,
          "time": 178.67628,
          "velocity": 0.7559055118110236
        },
        {
          "duration": 0.10937488333331657,
          "durationTicks": 119,
          "midi": 66,
          "name": "F#4",
          "ticks": 194520,
          "time": 178.786574,
          "velocity": 0.7559055118110236
        },
        {
          "duration": 0.10937488333331657,
          "durationTicks": 119,
          "midi": 59,
          "name": "B3",
          "ticks": 194640,
          "time": 178.896868,
          "velocity": 0.7559055118110236
        },
        {
          "duration": 0.32996288333333723,
          "durationTicks": 359,
          "midi": 62,
          "name": "D4",
          "ticks": 194760,
          "time": 179.007162,
          "velocity": 0.7559055118110236
        },
        {
          "duration": 0.2196688833333269,
          "durationTicks": 239,
          "midi": 64,
          "name": "E4",
          "ticks": 195120,
          "time": 179.338044,
          "velocity": 0.7559055118110236
        }
      ]
    },
    {
      "channel": 11,
      "controlChanges": {
        "7": [
          {
            "number": 7,
            "ticks": 0,
            "time": 0,
            "value": 0.7874015748031497
          }
        ],
        "10": [
          {
            "number": 10,
            "ticks": 0,
            "time": 0,
            "value": 0.5039370078740157
          }
        ],
        "91": [
          {
            "number": 91,
            "ticks": 0,
            "time": 0,
            "value": 0
          }
        ],
        "93": [
          {
            "number": 93,
            "ticks": 0,
            "time": 0,
            "value": 0
          }
        ],
        "121": [
          {
            "number": 121,
            "ticks": 0,
            "time": 0,
            "value": 0
          }
        ]
      },
      "pitchBends": [],
      "instrument": {
        "family": "piano",
        "number": 0,
        "name": "acoustic grand piano"
      },
      "name": "",
      "notes": [
        {
          "duration": 0.10386018333333333,
          "durationTicks": 113,
          "midi": 69,
          "name": "A4",
          "ticks": 0,
          "time": 0,
          "velocity": 0.6299212598425197
        },
        {
          "duration": 0.10386018333333333,
          "durationTicks": 113,
          "midi": 70,
          "name": "A#4",
          "ticks": 120,
          "time": 0.110294,
          "velocity": 0.6299212598425197
        },
        {
          "duration": 0.10386018333333336,
          "durationTicks": 113,
          "midi": 71,
          "name": "B4",
          "ticks": 240,
          "time": 0.220588,
          "velocity": 0.6299212598425197
        },
        {
          "duration": 0.10386018333333336,
          "durationTicks": 113,
          "midi": 74,
          "name": "D5",
          "ticks": 360,
          "time": 0.330882,
          "velocity": 0.6299212598425197
        },
        {
          "duration": 0.10386018333333336,
          "durationTicks": 113,
          "midi": 69,
          "name": "A4",
          "ticks": 720,
          "time": 0.661764,
          "velocity": 0.6299212598425197
        },
        {
          "duration": 0.10386018333333336,
          "durationTicks": 113,
          "midi": 70,
          "name": "A#4",
          "ticks": 840,
          "time": 0.772058,
          "velocity": 0.6299212598425197
        },
        {
          "duration": 0.10386018333333336,
          "durationTicks": 113,
          "midi": 71,
          "name": "B4",
          "ticks": 960,
          "time": 0.882352,
          "velocity": 0.6299212598425197
        },
        {
          "duration": 0.10386018333333336,
          "durationTicks": 113,
          "midi": 74,
          "name": "D5",
          "ticks": 1080,
          "time": 0.992646,
          "velocity": 0.6299212598425197
        },
        {
          "duration": 0.10386018333333324,
          "durationTicks": 113,
          "midi": 74,
          "name": "D5",
          "ticks": 1440,
          "time": 1.323528,
          "velocity": 0.6299212598425197
        },
        {
          "duration": 0.10386018333333324,
          "durationTicks": 113,
          "midi": 74,
          "name": "D5",
          "ticks": 1560,
          "time": 1.4338220000000002,
          "velocity": 0.6299212598425197
        },
        {
          "duration": 0.10386018333333324,
          "durationTicks": 113,
          "midi": 69,
          "name": "A4",
          "ticks": 1920,
          "time": 1.764704,
          "velocity": 0.6299212598425197
        },
        {
          "duration": 0.10386018333333324,
          "durationTicks": 113,
          "midi": 70,
          "name": "A#4",
          "ticks": 2040,
          "time": 1.8749980000000002,
          "velocity": 0.6299212598425197
        },
        {
          "duration": 0.10386018333333324,
          "durationTicks": 113,
          "midi": 71,
          "name": "B4",
          "ticks": 2160,
          "time": 1.985292,
          "velocity": 0.6299212598425197
        },
        {
          "duration": 0.10386018333333347,
          "durationTicks": 113,
          "midi": 74,
          "name": "D5",
          "ticks": 2280,
          "time": 2.095586,
          "velocity": 0.6299212598425197
        },
        {
          "duration": 0.10386018333333347,
          "durationTicks": 113,
          "midi": 71,
          "name": "B4",
          "ticks": 2640,
          "time": 2.426468,
          "velocity": 0.6299212598425197
        },
        {
          "duration": 0.10386018333333347,
          "durationTicks": 113,
          "midi": 69,
          "name": "A4",
          "ticks": 2760,
          "time": 2.536762,
          "velocity": 0.6299212598425197
        },
        {
          "duration": 0.10386018333333347,
          "durationTicks": 113,
          "midi": 67,
          "name": "G4",
          "ticks": 2880,
          "time": 2.647056,
          "velocity": 0.6299212598425197
        },
        {
          "duration": 0.10386018333333302,
          "durationTicks": 113,
          "midi": 64,
          "name": "E4",
          "ticks": 3000,
          "time": 2.75735,
          "velocity": 0.6299212598425197
        },
        {
          "duration": 0.10386018333333347,
          "durationTicks": 113,
          "midi": 76,
          "name": "E5",
          "ticks": 3360,
          "time": 3.088232,
          "velocity": 0.6299212598425197
        },
        {
          "duration": 0.10386018333333302,
          "durationTicks": 113,
          "midi": 76,
          "name": "E5",
          "ticks": 3480,
          "time": 3.198526,
          "velocity": 0.6299212598425197
        },
        {
          "duration": 0.4181980833333334,
          "durationTicks": 455,
          "midi": 74,
          "name": "D5",
          "ticks": 4800,
          "time": 4.41176,
          "velocity": 0.6299212598425197
        },
        {
          "duration": 0.4181980833333334,
          "durationTicks": 455,
          "midi": 79,
          "name": "G5",
          "ticks": 4800,
          "time": 4.41176,
          "velocity": 0.6299212598425197
        },
        {
          "duration": 0.4181980833333334,
          "durationTicks": 455,
          "midi": 73,
          "name": "C#5",
          "ticks": 6720,
          "time": 6.176464,
          "velocity": 0.6299212598425197
        },
        {
          "duration": 0.4181980833333334,
          "durationTicks": 455,
          "midi": 79,
          "name": "G5",
          "ticks": 6720,
          "time": 6.176464,
          "velocity": 0.6299212598425197
        },
        {
          "duration": 0.4181980833333343,
          "durationTicks": 455,
          "midi": 74,
          "name": "D5",
          "ticks": 8640,
          "time": 7.941168,
          "velocity": 0.6299212598425197
        },
        {
          "duration": 0.4181980833333343,
          "durationTicks": 455,
          "midi": 79,
          "name": "G5",
          "ticks": 8640,
          "time": 7.941168,
          "velocity": 0.6299212598425197
        },
        {
          "duration": 0.29411733333333423,
          "durationTicks": 320,
          "midi": 74,
          "name": "D5",
          "ticks": 10560,
          "time": 9.705872,
          "velocity": 0.7559055118110236
        },
        {
          "duration": 0.29411733333333423,
          "durationTicks": 320,
          "midi": 79,
          "name": "G5",
          "ticks": 10560,
          "time": 9.705872,
          "velocity": 0.7559055118110236
        },
        {
          "duration": 0.29411733333333423,
          "durationTicks": 320,
          "midi": 73,
          "name": "C#5",
          "ticks": 11040,
          "time": 10.147048,
          "velocity": 0.7559055118110236
        },
        {
          "duration": 0.29411733333333423,
          "durationTicks": 320,
          "midi": 78,
          "name": "F#5",
          "ticks": 11040,
          "time": 10.147048,
          "velocity": 0.7559055118110236
        },
        {
          "duration": 0.3299628833333319,
          "durationTicks": 359,
          "midi": 71,
          "name": "B4",
          "ticks": 11520,
          "time": 10.588224,
          "velocity": 0.7559055118110236
        },
        {
          "duration": 0.3299628833333319,
          "durationTicks": 359,
          "midi": 76,
          "name": "E5",
          "ticks": 11520,
          "time": 10.588224,
          "velocity": 0.7559055118110236
        },
        {
          "duration": 0.21966888333333223,
          "durationTicks": 239,
          "midi": 69,
          "name": "A4",
          "ticks": 11880,
          "time": 10.919106000000001,
          "velocity": 0.7559055118110236
        },
        {
          "duration": 0.21966888333333223,
          "durationTicks": 239,
          "midi": 74,
          "name": "D5",
          "ticks": 11880,
          "time": 10.919106000000001,
          "velocity": 0.7559055118110236
        },
        {
          "duration": 0.3299628833333319,
          "durationTicks": 359,
          "midi": 69,
          "name": "A4",
          "ticks": 12120,
          "time": 11.139694,
          "velocity": 0.7559055118110236
        },
        {
          "duration": 0.3299628833333319,
          "durationTicks": 359,
          "midi": 74,
          "name": "D5",
          "ticks": 12120,
          "time": 11.139694,
          "velocity": 0.7559055118110236
        },
        {
          "duration": 0.4181980833333334,
          "durationTicks": 455,
          "midi": 74,
          "name": "D5",
          "ticks": 12480,
          "time": 11.470576000000001,
          "velocity": 0.6299212598425197
        },
        {
          "duration": 0.4181980833333334,
          "durationTicks": 455,
          "midi": 79,
          "name": "G5",
          "ticks": 12480,
          "time": 11.470576000000001,
          "velocity": 0.6299212598425197
        },
        {
          "duration": 0.4181980833333352,
          "durationTicks": 455,
          "midi": 73,
          "name": "C#5",
          "ticks": 14400,
          "time": 13.23528,
          "velocity": 0.6299212598425197
        },
        {
          "duration": 0.4181980833333352,
          "durationTicks": 455,
          "midi": 79,
          "name": "G5",
          "ticks": 14400,
          "time": 13.23528,
          "velocity": 0.6299212598425197
        },
        {
          "duration": 0.6277566833333328,
          "durationTicks": 683,
          "midi": 71,
          "name": "B4",
          "ticks": 16080,
          "time": 14.779396,
          "velocity": 0.6299212598425197
        },
        {
          "duration": 0.6277566833333328,
          "durationTicks": 683,
          "midi": 74,
          "name": "D5",
          "ticks": 16080,
          "time": 14.779396,
          "velocity": 0.6299212598425197
        },
        {
          "duration": 0.6277566833333328,
          "durationTicks": 683,
          "midi": 78,
          "name": "F#5",
          "ticks": 16080,
          "time": 14.779396,
          "velocity": 0.6299212598425197
        },
        {
          "duration": 0.10386018333333347,
          "durationTicks": 113,
          "midi": 71,
          "name": "B4",
          "ticks": 16800,
          "time": 15.44116,
          "velocity": 0.6299212598425197
        },
        {
          "duration": 0.10386018333333347,
          "durationTicks": 113,
          "midi": 74,
          "name": "D5",
          "ticks": 16800,
          "time": 15.44116,
          "velocity": 0.6299212598425197
        },
        {
          "duration": 0.10386018333333347,
          "durationTicks": 113,
          "midi": 78,
          "name": "F#5",
          "ticks": 16800,
          "time": 15.44116,
          "velocity": 0.6299212598425197
        },
        {
          "duration": 0.10386018333333347,
          "durationTicks": 113,
          "midi": 71,
          "name": "B4",
          "ticks": 16920,
          "time": 15.551454,
          "velocity": 0.6299212598425197
        },
        {
          "duration": 0.10386018333333347,
          "durationTicks": 113,
          "midi": 74,
          "name": "D5",
          "ticks": 16920,
          "time": 15.551454,
          "velocity": 0.6299212598425197
        },
        {
          "duration": 0.10386018333333347,
          "durationTicks": 113,
          "midi": 78,
          "name": "F#5",
          "ticks": 16920,
          "time": 15.551454,
          "velocity": 0.6299212598425197
        },
        {
          "duration": 0.6277566833333328,
          "durationTicks": 683,
          "midi": 72,
          "name": "C5",
          "ticks": 17040,
          "time": 15.661748000000001,
          "velocity": 0.6299212598425197
        },
        {
          "duration": 0.6277566833333328,
          "durationTicks": 683,
          "midi": 76,
          "name": "E5",
          "ticks": 17040,
          "time": 15.661748000000001,
          "velocity": 0.6299212598425197
        },
        {
          "duration": 0.6277566833333328,
          "durationTicks": 683,
          "midi": 79,
          "name": "G5",
          "ticks": 17040,
          "time": 15.661748000000001,
          "velocity": 0.6299212598425197
        },
        {
          "duration": 0.10386018333333169,
          "durationTicks": 113,
          "midi": 72,
          "name": "C5",
          "ticks": 17760,
          "time": 16.323512,
          "velocity": 0.6299212598425197
        },
        {
          "duration": 0.10386018333333169,
          "durationTicks": 113,
          "midi": 76,
          "name": "E5",
          "ticks": 17760,
          "time": 16.323512,
          "velocity": 0.6299212598425197
        },
        {
          "duration": 0.10386018333333169,
          "durationTicks": 113,
          "midi": 79,
          "name": "G5",
          "ticks": 17760,
          "time": 16.323512,
          "velocity": 0.6299212598425197
        },
        {
          "duration": 0.10386018333333169,
          "durationTicks": 113,
          "midi": 72,
          "name": "C5",
          "ticks": 17880,
          "time": 16.433806,
          "velocity": 0.6299212598425197
        },
        {
          "duration": 0.10386018333333169,
          "durationTicks": 113,
          "midi": 76,
          "name": "E5",
          "ticks": 17880,
          "time": 16.433806,
          "velocity": 0.6299212598425197
        },
        {
          "duration": 0.10386018333333169,
          "durationTicks": 113,
          "midi": 79,
          "name": "G5",
          "ticks": 17880,
          "time": 16.433806,
          "velocity": 0.6299212598425197
        },
        {
          "duration": 0.6277566833333346,
          "durationTicks": 683,
          "midi": 72,
          "name": "C5",
          "ticks": 18000,
          "time": 16.5441,
          "velocity": 0.6299212598425197
        },
        {
          "duration": 0.6277566833333346,
          "durationTicks": 683,
          "midi": 78,
          "name": "F#5",
          "ticks": 18000,
          "time": 16.5441,
          "velocity": 0.6299212598425197
        },
        {
          "duration": 0.6277566833333346,
          "durationTicks": 683,
          "midi": 81,
          "name": "A5",
          "ticks": 18000,
          "time": 16.5441,
          "velocity": 0.6299212598425197
        },
        {
          "duration": 0.10386018333333169,
          "durationTicks": 113,
          "midi": 72,
          "name": "C5",
          "ticks": 18720,
          "time": 17.205864000000002,
          "velocity": 0.6299212598425197
        },
        {
          "duration": 0.10386018333333169,
          "durationTicks": 113,
          "midi": 78,
          "name": "F#5",
          "ticks": 18720,
          "time": 17.205864000000002,
          "velocity": 0.6299212598425197
        },
        {
          "duration": 0.10386018333333169,
          "durationTicks": 113,
          "midi": 81,
          "name": "A5",
          "ticks": 18720,
          "time": 17.205864000000002,
          "velocity": 0.6299212598425197
        },
        {
          "duration": 0.10386018333333169,
          "durationTicks": 113,
          "midi": 72,
          "name": "C5",
          "ticks": 18840,
          "time": 17.316158,
          "velocity": 0.6299212598425197
        },
        {
          "duration": 0.10386018333333169,
          "durationTicks": 113,
          "midi": 78,
          "name": "F#5",
          "ticks": 18840,
          "time": 17.316158,
          "velocity": 0.6299212598425197
        },
        {
          "duration": 0.10386018333333169,
          "durationTicks": 113,
          "midi": 81,
          "name": "A5",
          "ticks": 18840,
          "time": 17.316158,
          "velocity": 0.6299212598425197
        },
        {
          "duration": 1.0468738833333333,
          "durationTicks": 1139,
          "midi": 75,
          "name": "D#5",
          "ticks": 18960,
          "time": 17.426452,
          "velocity": 0.6299212598425197
        },
        {
          "duration": 1.0468738833333333,
          "durationTicks": 1139,
          "midi": 78,
          "name": "F#5",
          "ticks": 18960,
          "time": 17.426452,
          "velocity": 0.6299212598425197
        },
        {
          "duration": 1.0468738833333333,
          "durationTicks": 1139,
          "midi": 83,
          "name": "B5",
          "ticks": 18960,
          "time": 17.426452,
          "velocity": 0.6299212598425197
        },
        {
          "duration": 0.41819808333332986,
          "durationTicks": 455,
          "midi": 74,
          "name": "D5",
          "ticks": 20160,
          "time": 18.529392,
          "velocity": 0.6299212598425197
        },
        {
          "duration": 0.41819808333332986,
          "durationTicks": 455,
          "midi": 79,
          "name": "G5",
          "ticks": 20160,
          "time": 18.529392,
          "velocity": 0.6299212598425197
        },
        {
          "duration": 0.4181980833333334,
          "durationTicks": 455,
          "midi": 73,
          "name": "C#5",
          "ticks": 22080,
          "time": 20.294096,
          "velocity": 0.6299212598425197
        },
        {
          "duration": 0.4181980833333334,
          "durationTicks": 455,
          "midi": 79,
          "name": "G5",
          "ticks": 22080,
          "time": 20.294096,
          "velocity": 0.6299212598425197
        },
        {
          "duration": 0.41819808333332986,
          "durationTicks": 455,
          "midi": 74,
          "name": "D5",
          "ticks": 24000,
          "time": 22.0588,
          "velocity": 0.6299212598425197
        },
        {
          "duration": 0.41819808333332986,
          "durationTicks": 455,
          "midi": 79,
          "name": "G5",
          "ticks": 24000,
          "time": 22.0588,
          "velocity": 0.6299212598425197
        },
        {
          "duration": 0.4181980833333334,
          "durationTicks": 455,
          "midi": 73,
          "name": "C#5",
          "ticks": 25920,
          "time": 23.823504,
          "velocity": 0.6299212598425197
        },
        {
          "duration": 0.4181980833333334,
          "durationTicks": 455,
          "midi": 79,
          "name": "G5",
          "ticks": 25920,
          "time": 23.823504,
          "velocity": 0.6299212598425197
        },
        {
          "duration": 0.41819808333332986,
          "durationTicks": 455,
          "midi": 76,
          "name": "E5",
          "ticks": 27840,
          "time": 25.588208,
          "velocity": 0.6299212598425197
        },
        {
          "duration": 0.41819808333332986,
          "durationTicks": 455,
          "midi": 79,
          "name": "G5",
          "ticks": 27840,
          "time": 25.588208,
          "velocity": 0.6299212598425197
        },
        {
          "duration": 0.41819808333332986,
          "durationTicks": 455,
          "midi": 83,
          "name": "B5",
          "ticks": 27840,
          "time": 25.588208,
          "velocity": 0.6299212598425197
        },
        {
          "duration": 0.4181980833333334,
          "durationTicks": 455,
          "midi": 72,
          "name": "C5",
          "ticks": 29760,
          "time": 27.352912,
          "velocity": 0.6299212598425197
        },
        {
          "duration": 0.4181980833333334,
          "durationTicks": 455,
          "midi": 76,
          "name": "E5",
          "ticks": 29760,
          "time": 27.352912,
          "velocity": 0.6299212598425197
        },
        {
          "duration": 0.4181980833333334,
          "durationTicks": 455,
          "midi": 79,
          "name": "G5",
          "ticks": 29760,
          "time": 27.352912,
          "velocity": 0.6299212598425197
        },
        {
          "duration": 0.4181980833333334,
          "durationTicks": 455,
          "midi": 73,
          "name": "C#5",
          "ticks": 31680,
          "time": 29.117616,
          "velocity": 0.6299212598425197
        },
        {
          "duration": 0.4181980833333334,
          "durationTicks": 455,
          "midi": 76,
          "name": "E5",
          "ticks": 31680,
          "time": 29.117616,
          "velocity": 0.6299212598425197
        },
        {
          "duration": 0.41819808333333697,
          "durationTicks": 455,
          "midi": 67,
          "name": "G4",
          "ticks": 33600,
          "time": 30.88232,
          "velocity": 0.6299212598425197
        },
        {
          "duration": 0.41819808333333697,
          "durationTicks": 455,
          "midi": 71,
          "name": "B4",
          "ticks": 33600,
          "time": 30.88232,
          "velocity": 0.6299212598425197
        },
        {
          "duration": 0.41819808333333697,
          "durationTicks": 455,
          "midi": 74,
          "name": "D5",
          "ticks": 33600,
          "time": 30.88232,
          "velocity": 0.6299212598425197
        },
        {
          "duration": 0.4181980833333334,
          "durationTicks": 455,
          "midi": 69,
          "name": "A4",
          "ticks": 34080,
          "time": 31.323496000000002,
          "velocity": 0.6299212598425197
        },
        {
          "duration": 0.4181980833333334,
          "durationTicks": 455,
          "midi": 72,
          "name": "C5",
          "ticks": 34080,
          "time": 31.323496000000002,
          "velocity": 0.6299212598425197
        },
        {
          "duration": 0.4181980833333334,
          "durationTicks": 455,
          "midi": 76,
          "name": "E5",
          "ticks": 34080,
          "time": 31.323496000000002,
          "velocity": 0.6299212598425197
        },
        {
          "duration": 0.4181980833333334,
          "durationTicks": 455,
          "midi": 71,
          "name": "B4",
          "ticks": 34560,
          "time": 31.764672,
          "velocity": 0.6299212598425197
        },
        {
          "duration": 0.4181980833333334,
          "durationTicks": 455,
          "midi": 74,
          "name": "D5",
          "ticks": 34560,
          "time": 31.764672,
          "velocity": 0.6299212598425197
        },
        {
          "duration": 0.4181980833333334,
          "durationTicks": 455,
          "midi": 78,
          "name": "F#5",
          "ticks": 34560,
          "time": 31.764672,
          "velocity": 0.6299212598425197
        },
        {
          "duration": 0.41819808333332986,
          "durationTicks": 455,
          "midi": 72,
          "name": "C5",
          "ticks": 35040,
          "time": 32.205848,
          "velocity": 0.6299212598425197
        },
        {
          "duration": 0.41819808333332986,
          "durationTicks": 455,
          "midi": 76,
          "name": "E5",
          "ticks": 35040,
          "time": 32.205848,
          "velocity": 0.6299212598425197
        },
        {
          "duration": 0.41819808333332986,
          "durationTicks": 455,
          "midi": 79,
          "name": "G5",
          "ticks": 35040,
          "time": 32.205848,
          "velocity": 0.6299212598425197
        },
        {
          "duration": 0.41819808333332986,
          "durationTicks": 455,
          "midi": 72,
          "name": "C5",
          "ticks": 52800,
          "time": 48.529360000000004,
          "velocity": 0.9921259842519685
        },
        {
          "duration": 0.41819808333332986,
          "durationTicks": 455,
          "midi": 76,
          "name": "E5",
          "ticks": 52800,
          "time": 48.529360000000004,
          "velocity": 0.9921259842519685
        },
        {
          "duration": 0.41819808333332986,
          "durationTicks": 455,
          "midi": 79,
          "name": "G5",
          "ticks": 52800,
          "time": 48.529360000000004,
          "velocity": 0.9921259842519685
        },
        {
          "duration": 0.41819808333332986,
          "durationTicks": 455,
          "midi": 83,
          "name": "B5",
          "ticks": 52800,
          "time": 48.529360000000004,
          "velocity": 0.9921259842519685
        },
        {
          "duration": 0.6277566833333381,
          "durationTicks": 683,
          "midi": 71,
          "name": "B4",
          "ticks": 54720,
          "time": 50.294064,
          "velocity": 0.9921259842519685
        },
        {
          "duration": 0.6277566833333381,
          "durationTicks": 683,
          "midi": 74,
          "name": "D5",
          "ticks": 54720,
          "time": 50.294064,
          "velocity": 0.9921259842519685
        },
        {
          "duration": 0.6277566833333381,
          "durationTicks": 683,
          "midi": 78,
          "name": "F#5",
          "ticks": 54720,
          "time": 50.294064,
          "velocity": 0.9921259842519685
        },
        {
          "duration": 0.6277566833333381,
          "durationTicks": 683,
          "midi": 81,
          "name": "A5",
          "ticks": 54720,
          "time": 50.294064,
          "velocity": 0.9921259842519685
        },
        {
          "duration": 0.41819808333332986,
          "durationTicks": 455,
          "midi": 76,
          "name": "E5",
          "ticks": 55440,
          "time": 50.955828000000004,
          "velocity": 0.9921259842519685
        },
        {
          "duration": 0.41819808333332986,
          "durationTicks": 455,
          "midi": 79,
          "name": "G5",
          "ticks": 55440,
          "time": 50.955828000000004,
          "velocity": 0.9921259842519685
        },
        {
          "duration": 0.41819808333332986,
          "durationTicks": 455,
          "midi": 83,
          "name": "B5",
          "ticks": 55440,
          "time": 50.955828000000004,
          "velocity": 0.9921259842519685
        },
        {
          "duration": 0.41819808333332986,
          "durationTicks": 455,
          "midi": 86,
          "name": "D6",
          "ticks": 55440,
          "time": 50.955828000000004,
          "velocity": 0.9921259842519685
        },
        {
          "duration": 0.41819808333333697,
          "durationTicks": 455,
          "midi": 72,
          "name": "C5",
          "ticks": 56640,
          "time": 52.058768,
          "velocity": 0.9921259842519685
        },
        {
          "duration": 0.41819808333333697,
          "durationTicks": 455,
          "midi": 76,
          "name": "E5",
          "ticks": 56640,
          "time": 52.058768,
          "velocity": 0.9921259842519685
        },
        {
          "duration": 0.41819808333333697,
          "durationTicks": 455,
          "midi": 79,
          "name": "G5",
          "ticks": 56640,
          "time": 52.058768,
          "velocity": 0.9921259842519685
        },
        {
          "duration": 0.41819808333333697,
          "durationTicks": 455,
          "midi": 83,
          "name": "B5",
          "ticks": 56640,
          "time": 52.058768,
          "velocity": 0.9921259842519685
        },
        {
          "duration": 0.627756683333331,
          "durationTicks": 683,
          "midi": 74,
          "name": "D5",
          "ticks": 58560,
          "time": 53.823472,
          "velocity": 0.9921259842519685
        },
        {
          "duration": 0.627756683333331,
          "durationTicks": 683,
          "midi": 78,
          "name": "F#5",
          "ticks": 58560,
          "time": 53.823472,
          "velocity": 0.9921259842519685
        },
        {
          "duration": 0.627756683333331,
          "durationTicks": 683,
          "midi": 81,
          "name": "A5",
          "ticks": 58560,
          "time": 53.823472,
          "velocity": 0.9921259842519685
        },
        {
          "duration": 0.627756683333331,
          "durationTicks": 683,
          "midi": 84,
          "name": "C6",
          "ticks": 58560,
          "time": 53.823472,
          "velocity": 0.9921259842519685
        },
        {
          "duration": 0.41819808333333697,
          "durationTicks": 455,
          "midi": 67,
          "name": "G4",
          "ticks": 59280,
          "time": 54.485236,
          "velocity": 0.9921259842519685
        },
        {
          "duration": 0.41819808333333697,
          "durationTicks": 455,
          "midi": 71,
          "name": "B4",
          "ticks": 59280,
          "time": 54.485236,
          "velocity": 0.9921259842519685
        },
        {
          "duration": 0.41819808333333697,
          "durationTicks": 455,
          "midi": 74,
          "name": "D5",
          "ticks": 59280,
          "time": 54.485236,
          "velocity": 0.9921259842519685
        },
        {
          "duration": 0.41819808333333697,
          "durationTicks": 455,
          "midi": 77,
          "name": "F5",
          "ticks": 59280,
          "time": 54.485236,
          "velocity": 0.9921259842519685
        },
        {
          "duration": 0.41819808333332986,
          "durationTicks": 455,
          "midi": 72,
          "name": "C5",
          "ticks": 60480,
          "time": 55.588176000000004,
          "velocity": 0.9921259842519685
        },
        {
          "duration": 0.41819808333332986,
          "durationTicks": 455,
          "midi": 76,
          "name": "E5",
          "ticks": 60480,
          "time": 55.588176000000004,
          "velocity": 0.9921259842519685
        },
        {
          "duration": 0.41819808333332986,
          "durationTicks": 455,
          "midi": 79,
          "name": "G5",
          "ticks": 60480,
          "time": 55.588176000000004,
          "velocity": 0.9921259842519685
        },
        {
          "duration": 0.41819808333332986,
          "durationTicks": 455,
          "midi": 83,
          "name": "B5",
          "ticks": 60480,
          "time": 55.588176000000004,
          "velocity": 0.9921259842519685
        },
        {
          "duration": 0.6277566833333452,
          "durationTicks": 683,
          "midi": 71,
          "name": "B4",
          "ticks": 62400,
          "time": 57.35288,
          "velocity": 0.9921259842519685
        },
        {
          "duration": 0.6277566833333452,
          "durationTicks": 683,
          "midi": 75,
          "name": "D#5",
          "ticks": 62400,
          "time": 57.35288,
          "velocity": 0.9921259842519685
        },
        {
          "duration": 0.6277566833333452,
          "durationTicks": 683,
          "midi": 78,
          "name": "F#5",
          "ticks": 62400,
          "time": 57.35288,
          "velocity": 0.9921259842519685
        },
        {
          "duration": 0.6277566833333452,
          "durationTicks": 683,
          "midi": 81,
          "name": "A5",
          "ticks": 62400,
          "time": 57.35288,
          "velocity": 0.9921259842519685
        },
        {
          "duration": 0.6277566833333381,
          "durationTicks": 683,
          "midi": 76,
          "name": "E5",
          "ticks": 63120,
          "time": 58.014644000000004,
          "velocity": 0.9921259842519685
        },
        {
          "duration": 0.6277566833333381,
          "durationTicks": 683,
          "midi": 79,
          "name": "G5",
          "ticks": 63120,
          "time": 58.014644000000004,
          "velocity": 0.9921259842519685
        },
        {
          "duration": 0.6277566833333381,
          "durationTicks": 683,
          "midi": 83,
          "name": "B5",
          "ticks": 63120,
          "time": 58.014644000000004,
          "velocity": 0.9921259842519685
        },
        {
          "duration": 0.6277566833333381,
          "durationTicks": 683,
          "midi": 86,
          "name": "D6",
          "ticks": 63120,
          "time": 58.014644000000004,
          "velocity": 0.9921259842519685
        },
        {
          "duration": 1.6755496833333368,
          "durationTicks": 1823,
          "midi": 69,
          "name": "A4",
          "ticks": 64320,
          "time": 59.117584,
          "velocity": 0.9921259842519685
        },
        {
          "duration": 1.6755496833333368,
          "durationTicks": 1823,
          "midi": 72,
          "name": "C5",
          "ticks": 64320,
          "time": 59.117584,
          "velocity": 0.9921259842519685
        },
        {
          "duration": 1.6755496833333368,
          "durationTicks": 1823,
          "midi": 76,
          "name": "E5",
          "ticks": 64320,
          "time": 59.117584,
          "velocity": 0.9921259842519685
        },
        {
          "duration": 1.6755496833333368,
          "durationTicks": 1823,
          "midi": 79,
          "name": "G5",
          "ticks": 64320,
          "time": 59.117584,
          "velocity": 0.9921259842519685
        },
        {
          "duration": 0.41819808333333697,
          "durationTicks": 455,
          "midi": 74,
          "name": "D5",
          "ticks": 72000,
          "time": 66.1764,
          "velocity": 0.7559055118110236
        },
        {
          "duration": 0.41819808333333697,
          "durationTicks": 455,
          "midi": 79,
          "name": "G5",
          "ticks": 72000,
          "time": 66.1764,
          "velocity": 0.7559055118110236
        },
        {
          "duration": 0.41819808333333697,
          "durationTicks": 455,
          "midi": 73,
          "name": "C#5",
          "ticks": 73920,
          "time": 67.941104,
          "velocity": 0.7559055118110236
        },
        {
          "duration": 0.41819808333333697,
          "durationTicks": 455,
          "midi": 79,
          "name": "G5",
          "ticks": 73920,
          "time": 67.941104,
          "velocity": 0.7559055118110236
        },
        {
          "duration": 0.41819808333332276,
          "durationTicks": 455,
          "midi": 74,
          "name": "D5",
          "ticks": 75840,
          "time": 69.705808,
          "velocity": 0.7559055118110236
        },
        {
          "duration": 0.41819808333332276,
          "durationTicks": 455,
          "midi": 79,
          "name": "G5",
          "ticks": 75840,
          "time": 69.705808,
          "velocity": 0.7559055118110236
        },
        {
          "duration": 0.44025688333333335,
          "durationTicks": 479,
          "midi": 74,
          "name": "D5",
          "ticks": 77760,
          "time": 71.470512,
          "velocity": 0.905511811023622
        },
        {
          "duration": 0.44025688333333335,
          "durationTicks": 479,
          "midi": 79,
          "name": "G5",
          "ticks": 77760,
          "time": 71.470512,
          "velocity": 0.905511811023622
        },
        {
          "duration": 0.44025688333333335,
          "durationTicks": 479,
          "midi": 73,
          "name": "C#5",
          "ticks": 78240,
          "time": 71.911688,
          "velocity": 0.905511811023622
        },
        {
          "duration": 0.44025688333333335,
          "durationTicks": 479,
          "midi": 78,
          "name": "F#5",
          "ticks": 78240,
          "time": 71.911688,
          "velocity": 0.905511811023622
        },
        {
          "duration": 0.32996288333333723,
          "durationTicks": 359,
          "midi": 71,
          "name": "B4",
          "ticks": 78720,
          "time": 72.352864,
          "velocity": 0.905511811023622
        },
        {
          "duration": 0.32996288333333723,
          "durationTicks": 359,
          "midi": 76,
          "name": "E5",
          "ticks": 78720,
          "time": 72.352864,
          "velocity": 0.905511811023622
        },
        {
          "duration": 0.21966888333334111,
          "durationTicks": 239,
          "midi": 69,
          "name": "A4",
          "ticks": 79080,
          "time": 72.683746,
          "velocity": 0.905511811023622
        },
        {
          "duration": 0.21966888333334111,
          "durationTicks": 239,
          "midi": 74,
          "name": "D5",
          "ticks": 79080,
          "time": 72.683746,
          "velocity": 0.905511811023622
        },
        {
          "duration": 0.32996288333333723,
          "durationTicks": 359,
          "midi": 69,
          "name": "A4",
          "ticks": 79320,
          "time": 72.904334,
          "velocity": 0.905511811023622
        },
        {
          "duration": 0.32996288333333723,
          "durationTicks": 359,
          "midi": 74,
          "name": "D5",
          "ticks": 79320,
          "time": 72.904334,
          "velocity": 0.905511811023622
        },
        {
          "duration": 0.41819808333332276,
          "durationTicks": 455,
          "midi": 74,
          "name": "D5",
          "ticks": 79680,
          "time": 73.23521600000001,
          "velocity": 0.7559055118110236
        },
        {
          "duration": 0.41819808333332276,
          "durationTicks": 455,
          "midi": 79,
          "name": "G5",
          "ticks": 79680,
          "time": 73.23521600000001,
          "velocity": 0.7559055118110236
        },
        {
          "duration": 0.41819808333332276,
          "durationTicks": 455,
          "midi": 73,
          "name": "C#5",
          "ticks": 81600,
          "time": 74.99992,
          "velocity": 0.7559055118110236
        },
        {
          "duration": 0.41819808333332276,
          "durationTicks": 455,
          "midi": 79,
          "name": "G5",
          "ticks": 81600,
          "time": 74.99992,
          "velocity": 0.7559055118110236
        },
        {
          "duration": 0.627756683333331,
          "durationTicks": 683,
          "midi": 71,
          "name": "B4",
          "ticks": 83280,
          "time": 76.544036,
          "velocity": 0.7559055118110236
        },
        {
          "duration": 0.627756683333331,
          "durationTicks": 683,
          "midi": 74,
          "name": "D5",
          "ticks": 83280,
          "time": 76.544036,
          "velocity": 0.7559055118110236
        },
        {
          "duration": 0.627756683333331,
          "durationTicks": 683,
          "midi": 78,
          "name": "F#5",
          "ticks": 83280,
          "time": 76.544036,
          "velocity": 0.7559055118110236
        },
        {
          "duration": 0.1038601833333388,
          "durationTicks": 113,
          "midi": 71,
          "name": "B4",
          "ticks": 84000,
          "time": 77.2058,
          "velocity": 0.7559055118110236
        },
        {
          "duration": 0.1038601833333388,
          "durationTicks": 113,
          "midi": 74,
          "name": "D5",
          "ticks": 84000,
          "time": 77.2058,
          "velocity": 0.7559055118110236
        },
        {
          "duration": 0.1038601833333388,
          "durationTicks": 113,
          "midi": 78,
          "name": "F#5",
          "ticks": 84000,
          "time": 77.2058,
          "velocity": 0.7559055118110236
        },
        {
          "duration": 0.1038601833333388,
          "durationTicks": 113,
          "midi": 71,
          "name": "B4",
          "ticks": 84120,
          "time": 77.316094,
          "velocity": 0.7559055118110236
        },
        {
          "duration": 0.1038601833333388,
          "durationTicks": 113,
          "midi": 74,
          "name": "D5",
          "ticks": 84120,
          "time": 77.316094,
          "velocity": 0.7559055118110236
        },
        {
          "duration": 0.1038601833333388,
          "durationTicks": 113,
          "midi": 78,
          "name": "F#5",
          "ticks": 84120,
          "time": 77.316094,
          "velocity": 0.7559055118110236
        },
        {
          "duration": 0.6277566833333452,
          "durationTicks": 683,
          "midi": 72,
          "name": "C5",
          "ticks": 84240,
          "time": 77.426388,
          "velocity": 0.7559055118110236
        },
        {
          "duration": 0.6277566833333452,
          "durationTicks": 683,
          "midi": 76,
          "name": "E5",
          "ticks": 84240,
          "time": 77.426388,
          "velocity": 0.7559055118110236
        },
        {
          "duration": 0.6277566833333452,
          "durationTicks": 683,
          "midi": 79,
          "name": "G5",
          "ticks": 84240,
          "time": 77.426388,
          "velocity": 0.7559055118110236
        },
        {
          "duration": 0.1038601833333388,
          "durationTicks": 113,
          "midi": 72,
          "name": "C5",
          "ticks": 84960,
          "time": 78.08815200000001,
          "velocity": 0.7559055118110236
        },
        {
          "duration": 0.1038601833333388,
          "durationTicks": 113,
          "midi": 76,
          "name": "E5",
          "ticks": 84960,
          "time": 78.08815200000001,
          "velocity": 0.7559055118110236
        },
        {
          "duration": 0.1038601833333388,
          "durationTicks": 113,
          "midi": 79,
          "name": "G5",
          "ticks": 84960,
          "time": 78.08815200000001,
          "velocity": 0.7559055118110236
        },
        {
          "duration": 0.1038601833333388,
          "durationTicks": 113,
          "midi": 72,
          "name": "C5",
          "ticks": 85080,
          "time": 78.198446,
          "velocity": 0.7559055118110236
        },
        {
          "duration": 0.1038601833333388,
          "durationTicks": 113,
          "midi": 76,
          "name": "E5",
          "ticks": 85080,
          "time": 78.198446,
          "velocity": 0.7559055118110236
        },
        {
          "duration": 0.1038601833333388,
          "durationTicks": 113,
          "midi": 79,
          "name": "G5",
          "ticks": 85080,
          "time": 78.198446,
          "velocity": 0.7559055118110236
        },
        {
          "duration": 0.6277566833333452,
          "durationTicks": 683,
          "midi": 72,
          "name": "C5",
          "ticks": 85200,
          "time": 78.30874,
          "velocity": 0.7559055118110236
        },
        {
          "duration": 0.6277566833333452,
          "durationTicks": 683,
          "midi": 78,
          "name": "F#5",
          "ticks": 85200,
          "time": 78.30874,
          "velocity": 0.7559055118110236
        },
        {
          "duration": 0.6277566833333452,
          "durationTicks": 683,
          "midi": 81,
          "name": "A5",
          "ticks": 85200,
          "time": 78.30874,
          "velocity": 0.7559055118110236
        },
        {
          "duration": 0.1038601833333388,
          "durationTicks": 113,
          "midi": 72,
          "name": "C5",
          "ticks": 85920,
          "time": 78.970504,
          "velocity": 0.7559055118110236
        },
        {
          "duration": 0.1038601833333388,
          "durationTicks": 113,
          "midi": 78,
          "name": "F#5",
          "ticks": 85920,
          "time": 78.970504,
          "velocity": 0.7559055118110236
        },
        {
          "duration": 0.1038601833333388,
          "durationTicks": 113,
          "midi": 81,
          "name": "A5",
          "ticks": 85920,
          "time": 78.970504,
          "velocity": 0.7559055118110236
        },
        {
          "duration": 0.1038601833333388,
          "durationTicks": 113,
          "midi": 72,
          "name": "C5",
          "ticks": 86040,
          "time": 79.080798,
          "velocity": 0.7559055118110236
        },
        {
          "duration": 0.1038601833333388,
          "durationTicks": 113,
          "midi": 78,
          "name": "F#5",
          "ticks": 86040,
          "time": 79.080798,
          "velocity": 0.7559055118110236
        },
        {
          "duration": 0.1038601833333388,
          "durationTicks": 113,
          "midi": 81,
          "name": "A5",
          "ticks": 86040,
          "time": 79.080798,
          "velocity": 0.7559055118110236
        },
        {
          "duration": 1.0468738833333333,
          "durationTicks": 1139,
          "midi": 75,
          "name": "D#5",
          "ticks": 86160,
          "time": 79.191092,
          "velocity": 0.7559055118110236
        },
        {
          "duration": 1.0468738833333333,
          "durationTicks": 1139,
          "midi": 78,
          "name": "F#5",
          "ticks": 86160,
          "time": 79.191092,
          "velocity": 0.7559055118110236
        },
        {
          "duration": 1.0468738833333333,
          "durationTicks": 1139,
          "midi": 83,
          "name": "B5",
          "ticks": 86160,
          "time": 79.191092,
          "velocity": 0.7559055118110236
        },
        {
          "duration": 0.2086394833333287,
          "durationTicks": 227,
          "midi": 76,
          "name": "E5",
          "ticks": 88560,
          "time": 81.396972,
          "velocity": 0.7559055118110236
        },
        {
          "duration": 0.2086394833333287,
          "durationTicks": 227,
          "midi": 79,
          "name": "G5",
          "ticks": 88560,
          "time": 81.396972,
          "velocity": 0.7559055118110236
        },
        {
          "duration": 0.2086394833333287,
          "durationTicks": 227,
          "midi": 83,
          "name": "B5",
          "ticks": 88560,
          "time": 81.396972,
          "velocity": 0.7559055118110236
        },
        {
          "duration": 0.2086394833333287,
          "durationTicks": 227,
          "midi": 86,
          "name": "D6",
          "ticks": 88560,
          "time": 81.396972,
          "velocity": 0.7559055118110236
        },
        {
          "duration": 0.41819808333332276,
          "durationTicks": 455,
          "midi": 74,
          "name": "D5",
          "ticks": 91200,
          "time": 83.82344,
          "velocity": 0.6299212598425197
        },
        {
          "duration": 0.41819808333332276,
          "durationTicks": 455,
          "midi": 79,
          "name": "G5",
          "ticks": 91200,
          "time": 83.82344,
          "velocity": 0.6299212598425197
        },
        {
          "duration": 0.41819808333333697,
          "durationTicks": 455,
          "midi": 73,
          "name": "C#5",
          "ticks": 93120,
          "time": 85.588144,
          "velocity": 0.6299212598425197
        },
        {
          "duration": 0.41819808333333697,
          "durationTicks": 455,
          "midi": 79,
          "name": "G5",
          "ticks": 93120,
          "time": 85.588144,
          "velocity": 0.6299212598425197
        },
        {
          "duration": 0.41819808333332276,
          "durationTicks": 455,
          "midi": 76,
          "name": "E5",
          "ticks": 95040,
          "time": 87.35284800000001,
          "velocity": 0.6299212598425197
        },
        {
          "duration": 0.41819808333332276,
          "durationTicks": 455,
          "midi": 79,
          "name": "G5",
          "ticks": 95040,
          "time": 87.35284800000001,
          "velocity": 0.6299212598425197
        },
        {
          "duration": 0.41819808333332276,
          "durationTicks": 455,
          "midi": 83,
          "name": "B5",
          "ticks": 95040,
          "time": 87.35284800000001,
          "velocity": 0.6299212598425197
        },
        {
          "duration": 0.41819808333332276,
          "durationTicks": 455,
          "midi": 72,
          "name": "C5",
          "ticks": 96960,
          "time": 89.117552,
          "velocity": 0.6299212598425197
        },
        {
          "duration": 0.41819808333332276,
          "durationTicks": 455,
          "midi": 76,
          "name": "E5",
          "ticks": 96960,
          "time": 89.117552,
          "velocity": 0.6299212598425197
        },
        {
          "duration": 0.41819808333332276,
          "durationTicks": 455,
          "midi": 79,
          "name": "G5",
          "ticks": 96960,
          "time": 89.117552,
          "velocity": 0.6299212598425197
        },
        {
          "duration": 0.41819808333333697,
          "durationTicks": 455,
          "midi": 73,
          "name": "C#5",
          "ticks": 98880,
          "time": 90.882256,
          "velocity": 0.6299212598425197
        },
        {
          "duration": 0.41819808333333697,
          "durationTicks": 455,
          "midi": 76,
          "name": "E5",
          "ticks": 98880,
          "time": 90.882256,
          "velocity": 0.6299212598425197
        },
        {
          "duration": 0.41819808333332276,
          "durationTicks": 455,
          "midi": 67,
          "name": "G4",
          "ticks": 100800,
          "time": 92.64696,
          "velocity": 0.6299212598425197
        },
        {
          "duration": 0.41819808333332276,
          "durationTicks": 455,
          "midi": 71,
          "name": "B4",
          "ticks": 100800,
          "time": 92.64696,
          "velocity": 0.6299212598425197
        },
        {
          "duration": 0.41819808333332276,
          "durationTicks": 455,
          "midi": 74,
          "name": "D5",
          "ticks": 100800,
          "time": 92.64696,
          "velocity": 0.6299212598425197
        },
        {
          "duration": 0.41819808333332276,
          "durationTicks": 455,
          "midi": 69,
          "name": "A4",
          "ticks": 101280,
          "time": 93.088136,
          "velocity": 0.6299212598425197
        },
        {
          "duration": 0.41819808333332276,
          "durationTicks": 455,
          "midi": 72,
          "name": "C5",
          "ticks": 101280,
          "time": 93.088136,
          "velocity": 0.6299212598425197
        },
        {
          "duration": 0.41819808333332276,
          "durationTicks": 455,
          "midi": 76,
          "name": "E5",
          "ticks": 101280,
          "time": 93.088136,
          "velocity": 0.6299212598425197
        },
        {
          "duration": 0.41819808333332276,
          "durationTicks": 455,
          "midi": 71,
          "name": "B4",
          "ticks": 101760,
          "time": 93.529312,
          "velocity": 0.6299212598425197
        },
        {
          "duration": 0.41819808333332276,
          "durationTicks": 455,
          "midi": 74,
          "name": "D5",
          "ticks": 101760,
          "time": 93.529312,
          "velocity": 0.6299212598425197
        },
        {
          "duration": 0.41819808333332276,
          "durationTicks": 455,
          "midi": 78,
          "name": "F#5",
          "ticks": 101760,
          "time": 93.529312,
          "velocity": 0.6299212598425197
        },
        {
          "duration": 0.41819808333332276,
          "durationTicks": 455,
          "midi": 72,
          "name": "C5",
          "ticks": 102240,
          "time": 93.970488,
          "velocity": 0.6299212598425197
        },
        {
          "duration": 0.41819808333332276,
          "durationTicks": 455,
          "midi": 76,
          "name": "E5",
          "ticks": 102240,
          "time": 93.970488,
          "velocity": 0.6299212598425197
        },
        {
          "duration": 0.41819808333332276,
          "durationTicks": 455,
          "midi": 79,
          "name": "G5",
          "ticks": 102240,
          "time": 93.970488,
          "velocity": 0.6299212598425197
        },
        {
          "duration": 0.41819808333333697,
          "durationTicks": 455,
          "midi": 72,
          "name": "C5",
          "ticks": 120000,
          "time": 110.294,
          "velocity": 0.7559055118110236
        },
        {
          "duration": 0.41819808333333697,
          "durationTicks": 455,
          "midi": 76,
          "name": "E5",
          "ticks": 120000,
          "time": 110.294,
          "velocity": 0.7559055118110236
        },
        {
          "duration": 0.41819808333333697,
          "durationTicks": 455,
          "midi": 79,
          "name": "G5",
          "ticks": 120000,
          "time": 110.294,
          "velocity": 0.7559055118110236
        },
        {
          "duration": 0.41819808333333697,
          "durationTicks": 455,
          "midi": 83,
          "name": "B5",
          "ticks": 120000,
          "time": 110.294,
          "velocity": 0.7559055118110236
        },
        {
          "duration": 0.627756683333331,
          "durationTicks": 683,
          "midi": 71,
          "name": "B4",
          "ticks": 121920,
          "time": 112.058704,
          "velocity": 0.7559055118110236
        },
        {
          "duration": 0.627756683333331,
          "durationTicks": 683,
          "midi": 74,
          "name": "D5",
          "ticks": 121920,
          "time": 112.058704,
          "velocity": 0.7559055118110236
        },
        {
          "duration": 0.627756683333331,
          "durationTicks": 683,
          "midi": 78,
          "name": "F#5",
          "ticks": 121920,
          "time": 112.058704,
          "velocity": 0.7559055118110236
        },
        {
          "duration": 0.627756683333331,
          "durationTicks": 683,
          "midi": 81,
          "name": "A5",
          "ticks": 121920,
          "time": 112.058704,
          "velocity": 0.7559055118110236
        },
        {
          "duration": 0.4181980833333512,
          "durationTicks": 455,
          "midi": 76,
          "name": "E5",
          "ticks": 122640,
          "time": 112.720468,
          "velocity": 0.7559055118110236
        },
        {
          "duration": 0.4181980833333512,
          "durationTicks": 455,
          "midi": 79,
          "name": "G5",
          "ticks": 122640,
          "time": 112.720468,
          "velocity": 0.7559055118110236
        },
        {
          "duration": 0.4181980833333512,
          "durationTicks": 455,
          "midi": 83,
          "name": "B5",
          "ticks": 122640,
          "time": 112.720468,
          "velocity": 0.7559055118110236
        },
        {
          "duration": 0.4181980833333512,
          "durationTicks": 455,
          "midi": 86,
          "name": "D6",
          "ticks": 122640,
          "time": 112.720468,
          "velocity": 0.7559055118110236
        },
        {
          "duration": 0.4181980833333512,
          "durationTicks": 455,
          "midi": 72,
          "name": "C5",
          "ticks": 123840,
          "time": 113.823408,
          "velocity": 0.7559055118110236
        },
        {
          "duration": 0.4181980833333512,
          "durationTicks": 455,
          "midi": 76,
          "name": "E5",
          "ticks": 123840,
          "time": 113.823408,
          "velocity": 0.7559055118110236
        },
        {
          "duration": 0.4181980833333512,
          "durationTicks": 455,
          "midi": 79,
          "name": "G5",
          "ticks": 123840,
          "time": 113.823408,
          "velocity": 0.7559055118110236
        },
        {
          "duration": 0.4181980833333512,
          "durationTicks": 455,
          "midi": 83,
          "name": "B5",
          "ticks": 123840,
          "time": 113.823408,
          "velocity": 0.7559055118110236
        },
        {
          "duration": 0.6277566833333168,
          "durationTicks": 683,
          "midi": 74,
          "name": "D5",
          "ticks": 125760,
          "time": 115.58811200000001,
          "velocity": 0.7559055118110236
        },
        {
          "duration": 0.6277566833333168,
          "durationTicks": 683,
          "midi": 78,
          "name": "F#5",
          "ticks": 125760,
          "time": 115.58811200000001,
          "velocity": 0.7559055118110236
        },
        {
          "duration": 0.6277566833333168,
          "durationTicks": 683,
          "midi": 81,
          "name": "A5",
          "ticks": 125760,
          "time": 115.58811200000001,
          "velocity": 0.7559055118110236
        },
        {
          "duration": 0.6277566833333168,
          "durationTicks": 683,
          "midi": 84,
          "name": "C6",
          "ticks": 125760,
          "time": 115.58811200000001,
          "velocity": 0.7559055118110236
        },
        {
          "duration": 0.4181980833333512,
          "durationTicks": 455,
          "midi": 67,
          "name": "G4",
          "ticks": 126480,
          "time": 116.249876,
          "velocity": 0.7559055118110236
        },
        {
          "duration": 0.4181980833333512,
          "durationTicks": 455,
          "midi": 71,
          "name": "B4",
          "ticks": 126480,
          "time": 116.249876,
          "velocity": 0.7559055118110236
        },
        {
          "duration": 0.4181980833333512,
          "durationTicks": 455,
          "midi": 74,
          "name": "D5",
          "ticks": 126480,
          "time": 116.249876,
          "velocity": 0.7559055118110236
        },
        {
          "duration": 0.4181980833333512,
          "durationTicks": 455,
          "midi": 77,
          "name": "F5",
          "ticks": 126480,
          "time": 116.249876,
          "velocity": 0.7559055118110236
        },
        {
          "duration": 0.41819808333333697,
          "durationTicks": 455,
          "midi": 72,
          "name": "C5",
          "ticks": 127680,
          "time": 117.352816,
          "velocity": 0.7559055118110236
        },
        {
          "duration": 0.41819808333333697,
          "durationTicks": 455,
          "midi": 76,
          "name": "E5",
          "ticks": 127680,
          "time": 117.352816,
          "velocity": 0.7559055118110236
        },
        {
          "duration": 0.41819808333333697,
          "durationTicks": 455,
          "midi": 79,
          "name": "G5",
          "ticks": 127680,
          "time": 117.352816,
          "velocity": 0.7559055118110236
        },
        {
          "duration": 0.41819808333333697,
          "durationTicks": 455,
          "midi": 83,
          "name": "B5",
          "ticks": 127680,
          "time": 117.352816,
          "velocity": 0.7559055118110236
        },
        {
          "duration": 0.627756683333331,
          "durationTicks": 683,
          "midi": 71,
          "name": "B4",
          "ticks": 129600,
          "time": 119.11752,
          "velocity": 0.7559055118110236
        },
        {
          "duration": 0.627756683333331,
          "durationTicks": 683,
          "midi": 75,
          "name": "D#5",
          "ticks": 129600,
          "time": 119.11752,
          "velocity": 0.7559055118110236
        },
        {
          "duration": 0.627756683333331,
          "durationTicks": 683,
          "midi": 78,
          "name": "F#5",
          "ticks": 129600,
          "time": 119.11752,
          "velocity": 0.7559055118110236
        },
        {
          "duration": 0.627756683333331,
          "durationTicks": 683,
          "midi": 81,
          "name": "A5",
          "ticks": 129600,
          "time": 119.11752,
          "velocity": 0.7559055118110236
        },
        {
          "duration": 0.627756683333331,
          "durationTicks": 683,
          "midi": 76,
          "name": "E5",
          "ticks": 130320,
          "time": 119.779284,
          "velocity": 0.7559055118110236
        },
        {
          "duration": 0.627756683333331,
          "durationTicks": 683,
          "midi": 79,
          "name": "G5",
          "ticks": 130320,
          "time": 119.779284,
          "velocity": 0.7559055118110236
        },
        {
          "duration": 0.627756683333331,
          "durationTicks": 683,
          "midi": 83,
          "name": "B5",
          "ticks": 130320,
          "time": 119.779284,
          "velocity": 0.7559055118110236
        },
        {
          "duration": 0.627756683333331,
          "durationTicks": 683,
          "midi": 86,
          "name": "D6",
          "ticks": 130320,
          "time": 119.779284,
          "velocity": 0.7559055118110236
        },
        {
          "duration": 0.41819808333333697,
          "durationTicks": 455,
          "midi": 69,
          "name": "A4",
          "ticks": 131520,
          "time": 120.88222400000001,
          "velocity": 0.7559055118110236
        },
        {
          "duration": 0.41819808333333697,
          "durationTicks": 455,
          "midi": 72,
          "name": "C5",
          "ticks": 131520,
          "time": 120.88222400000001,
          "velocity": 0.7559055118110236
        },
        {
          "duration": 0.41819808333333697,
          "durationTicks": 455,
          "midi": 76,
          "name": "E5",
          "ticks": 131520,
          "time": 120.88222400000001,
          "velocity": 0.7559055118110236
        },
        {
          "duration": 0.41819808333333697,
          "durationTicks": 455,
          "midi": 79,
          "name": "G5",
          "ticks": 131520,
          "time": 120.88222400000001,
          "velocity": 0.7559055118110236
        },
        {
          "duration": 0.8373152833333393,
          "durationTicks": 911,
          "midi": 79,
          "name": "G5",
          "ticks": 133440,
          "time": 122.646928,
          "velocity": 0.7559055118110236
        },
        {
          "duration": 0.627756683333331,
          "durationTicks": 683,
          "midi": 78,
          "name": "F#5",
          "ticks": 134400,
          "time": 123.52928,
          "velocity": 0.7559055118110236
        },
        {
          "duration": 0.2086394833333287,
          "durationTicks": 227,
          "midi": 79,
          "name": "G5",
          "ticks": 135120,
          "time": 124.191044,
          "velocity": 0.7559055118110236
        },
        {
          "duration": 0.10386018333332458,
          "durationTicks": 113,
          "midi": 69,
          "name": "A4",
          "ticks": 135600,
          "time": 124.63222,
          "velocity": 0.7559055118110236
        },
        {
          "duration": 0.10386018333332458,
          "durationTicks": 113,
          "midi": 70,
          "name": "A#4",
          "ticks": 135720,
          "time": 124.742514,
          "velocity": 0.7559055118110236
        },
        {
          "duration": 0.10386018333332458,
          "durationTicks": 113,
          "midi": 71,
          "name": "B4",
          "ticks": 135840,
          "time": 124.85280800000001,
          "velocity": 0.7559055118110236
        },
        {
          "duration": 0.10386018333332458,
          "durationTicks": 113,
          "midi": 74,
          "name": "D5",
          "ticks": 135960,
          "time": 124.963102,
          "velocity": 0.7559055118110236
        },
        {
          "duration": 0.10386018333332458,
          "durationTicks": 113,
          "midi": 69,
          "name": "A4",
          "ticks": 136320,
          "time": 125.29398400000001,
          "velocity": 0.7559055118110236
        },
        {
          "duration": 0.10386018333332458,
          "durationTicks": 113,
          "midi": 70,
          "name": "A#4",
          "ticks": 136440,
          "time": 125.404278,
          "velocity": 0.7559055118110236
        },
        {
          "duration": 0.10386018333332458,
          "durationTicks": 113,
          "midi": 71,
          "name": "B4",
          "ticks": 136560,
          "time": 125.514572,
          "velocity": 0.7559055118110236
        },
        {
          "duration": 0.1038601833333388,
          "durationTicks": 113,
          "midi": 74,
          "name": "D5",
          "ticks": 136680,
          "time": 125.624866,
          "velocity": 0.7559055118110236
        },
        {
          "duration": 0.10386018333332458,
          "durationTicks": 113,
          "midi": 76,
          "name": "E5",
          "ticks": 137040,
          "time": 125.955748,
          "velocity": 0.7559055118110236
        },
        {
          "duration": 0.10386018333332458,
          "durationTicks": 113,
          "midi": 76,
          "name": "E5",
          "ticks": 137160,
          "time": 126.06604200000001,
          "velocity": 0.7559055118110236
        },
        {
          "duration": 0.1038601833333388,
          "durationTicks": 113,
          "midi": 69,
          "name": "A4",
          "ticks": 137520,
          "time": 126.396924,
          "velocity": 0.7559055118110236
        },
        {
          "duration": 0.10386018333332458,
          "durationTicks": 113,
          "midi": 70,
          "name": "A#4",
          "ticks": 137640,
          "time": 126.50721800000001,
          "velocity": 0.7559055118110236
        },
        {
          "duration": 0.10386018333332458,
          "durationTicks": 113,
          "midi": 71,
          "name": "B4",
          "ticks": 137760,
          "time": 126.617512,
          "velocity": 0.7559055118110236
        },
        {
          "duration": 0.10386018333332458,
          "durationTicks": 113,
          "midi": 74,
          "name": "D5",
          "ticks": 137880,
          "time": 126.727806,
          "velocity": 0.7559055118110236
        },
        {
          "duration": 0.41819808333333697,
          "durationTicks": 455,
          "midi": 67,
          "name": "G4",
          "ticks": 138240,
          "time": 127.058688,
          "velocity": 0.7559055118110236
        },
        {
          "duration": 0.31341878333333284,
          "durationTicks": 341,
          "midi": 69,
          "name": "A4",
          "ticks": 138720,
          "time": 127.499864,
          "velocity": 0.7559055118110236
        },
        {
          "duration": 0.10386018333332458,
          "durationTicks": 113,
          "midi": 64,
          "name": "E4",
          "ticks": 139080,
          "time": 127.830746,
          "velocity": 0.7559055118110236
        },
        {
          "duration": 0.10386018333332458,
          "durationTicks": 113,
          "midi": 69,
          "name": "A4",
          "ticks": 139440,
          "time": 128.161628,
          "velocity": 0.7559055118110236
        },
        {
          "duration": 0.10386018333332458,
          "durationTicks": 113,
          "midi": 70,
          "name": "A#4",
          "ticks": 139560,
          "time": 128.27192200000002,
          "velocity": 0.7559055118110236
        },
        {
          "duration": 0.10386018333332458,
          "durationTicks": 113,
          "midi": 71,
          "name": "B4",
          "ticks": 139680,
          "time": 128.382216,
          "velocity": 0.7559055118110236
        },
        {
          "duration": 0.10386018333332458,
          "durationTicks": 113,
          "midi": 74,
          "name": "D5",
          "ticks": 139800,
          "time": 128.49251,
          "velocity": 0.7559055118110236
        },
        {
          "duration": 0.10386018333332458,
          "durationTicks": 113,
          "midi": 69,
          "name": "A4",
          "ticks": 140160,
          "time": 128.823392,
          "velocity": 0.7559055118110236
        },
        {
          "duration": 0.10386018333332458,
          "durationTicks": 113,
          "midi": 70,
          "name": "A#4",
          "ticks": 140280,
          "time": 128.933686,
          "velocity": 0.7559055118110236
        },
        {
          "duration": 0.10386018333332458,
          "durationTicks": 113,
          "midi": 71,
          "name": "B4",
          "ticks": 140400,
          "time": 129.04398,
          "velocity": 0.7559055118110236
        },
        {
          "duration": 0.10386018333332458,
          "durationTicks": 113,
          "midi": 74,
          "name": "D5",
          "ticks": 140520,
          "time": 129.15427400000002,
          "velocity": 0.7559055118110236
        },
        {
          "duration": 0.10386018333332458,
          "durationTicks": 113,
          "midi": 76,
          "name": "E5",
          "ticks": 140880,
          "time": 129.48515600000002,
          "velocity": 0.7559055118110236
        },
        {
          "duration": 0.10386018333332458,
          "durationTicks": 113,
          "midi": 76,
          "name": "E5",
          "ticks": 141000,
          "time": 129.59545,
          "velocity": 0.7559055118110236
        },
        {
          "duration": 0.10386018333332458,
          "durationTicks": 113,
          "midi": 71,
          "name": "B4",
          "ticks": 141360,
          "time": 129.926332,
          "velocity": 0.7559055118110236
        },
        {
          "duration": 0.10386018333332458,
          "durationTicks": 113,
          "midi": 69,
          "name": "A4",
          "ticks": 141480,
          "time": 130.036626,
          "velocity": 0.7559055118110236
        },
        {
          "duration": 0.10386018333332458,
          "durationTicks": 113,
          "midi": 67,
          "name": "G4",
          "ticks": 141600,
          "time": 130.14692,
          "velocity": 0.7559055118110236
        },
        {
          "duration": 0.10386018333332458,
          "durationTicks": 113,
          "midi": 64,
          "name": "E4",
          "ticks": 141720,
          "time": 130.257214,
          "velocity": 0.7559055118110236
        },
        {
          "duration": 0.4181980833333512,
          "durationTicks": 455,
          "midi": 67,
          "name": "G4",
          "ticks": 142080,
          "time": 130.588096,
          "velocity": 0.7559055118110236
        },
        {
          "duration": 0.31341878333336126,
          "durationTicks": 341,
          "midi": 69,
          "name": "A4",
          "ticks": 142560,
          "time": 131.029272,
          "velocity": 0.7559055118110236
        },
        {
          "duration": 0.10386018333332458,
          "durationTicks": 113,
          "midi": 64,
          "name": "E4",
          "ticks": 142920,
          "time": 131.360154,
          "velocity": 0.7559055118110236
        },
        {
          "duration": 0.10386018333332458,
          "durationTicks": 113,
          "midi": 69,
          "name": "A4",
          "ticks": 143280,
          "time": 131.691036,
          "velocity": 0.7559055118110236
        },
        {
          "duration": 0.10386018333332458,
          "durationTicks": 113,
          "midi": 70,
          "name": "A#4",
          "ticks": 143400,
          "time": 131.80133,
          "velocity": 0.7559055118110236
        },
        {
          "duration": 0.10386018333332458,
          "durationTicks": 113,
          "midi": 71,
          "name": "B4",
          "ticks": 143520,
          "time": 131.91162400000002,
          "velocity": 0.7559055118110236
        },
        {
          "duration": 0.10386018333332458,
          "durationTicks": 113,
          "midi": 74,
          "name": "D5",
          "ticks": 143640,
          "time": 132.021918,
          "velocity": 0.7559055118110236
        },
        {
          "duration": 0.10386018333332458,
          "durationTicks": 113,
          "midi": 69,
          "name": "A4",
          "ticks": 144000,
          "time": 132.3528,
          "velocity": 0.7559055118110236
        },
        {
          "duration": 0.10386018333332458,
          "durationTicks": 113,
          "midi": 70,
          "name": "A#4",
          "ticks": 144120,
          "time": 132.463094,
          "velocity": 0.7559055118110236
        },
        {
          "duration": 0.10386018333332458,
          "durationTicks": 113,
          "midi": 71,
          "name": "B4",
          "ticks": 144240,
          "time": 132.573388,
          "velocity": 0.7559055118110236
        },
        {
          "duration": 0.10386018333332458,
          "durationTicks": 113,
          "midi": 74,
          "name": "D5",
          "ticks": 144360,
          "time": 132.683682,
          "velocity": 0.7559055118110236
        },
        {
          "duration": 0.10386018333332458,
          "durationTicks": 113,
          "midi": 76,
          "name": "E5",
          "ticks": 144720,
          "time": 133.014564,
          "velocity": 0.7559055118110236
        },
        {
          "duration": 0.10386018333332458,
          "durationTicks": 113,
          "midi": 76,
          "name": "E5",
          "ticks": 144840,
          "time": 133.12485800000002,
          "velocity": 0.7559055118110236
        },
        {
          "duration": 0.103860183333353,
          "durationTicks": 113,
          "midi": 69,
          "name": "A4",
          "ticks": 145200,
          "time": 133.45574,
          "velocity": 0.7559055118110236
        },
        {
          "duration": 0.10386018333332458,
          "durationTicks": 113,
          "midi": 70,
          "name": "A#4",
          "ticks": 145320,
          "time": 133.566034,
          "velocity": 0.7559055118110236
        },
        {
          "duration": 0.10386018333332458,
          "durationTicks": 113,
          "midi": 71,
          "name": "B4",
          "ticks": 145440,
          "time": 133.676328,
          "velocity": 0.7559055118110236
        },
        {
          "duration": 0.10386018333332458,
          "durationTicks": 113,
          "midi": 74,
          "name": "D5",
          "ticks": 145560,
          "time": 133.786622,
          "velocity": 0.7559055118110236
        },
        {
          "duration": 0.4181980833333512,
          "durationTicks": 455,
          "midi": 67,
          "name": "G4",
          "ticks": 145920,
          "time": 134.117504,
          "velocity": 0.7559055118110236
        },
        {
          "duration": 0.31341878333333284,
          "durationTicks": 341,
          "midi": 69,
          "name": "A4",
          "ticks": 146400,
          "time": 134.55868,
          "velocity": 0.7559055118110236
        },
        {
          "duration": 0.10386018333332458,
          "durationTicks": 113,
          "midi": 64,
          "name": "E4",
          "ticks": 146760,
          "time": 134.889562,
          "velocity": 0.7559055118110236
        },
        {
          "duration": 0.10386018333332458,
          "durationTicks": 113,
          "midi": 69,
          "name": "A4",
          "ticks": 147120,
          "time": 135.22044400000001,
          "velocity": 0.7559055118110236
        },
        {
          "duration": 0.10386018333332458,
          "durationTicks": 113,
          "midi": 70,
          "name": "A#4",
          "ticks": 147240,
          "time": 135.330738,
          "velocity": 0.7559055118110236
        },
        {
          "duration": 0.10386018333332458,
          "durationTicks": 113,
          "midi": 71,
          "name": "B4",
          "ticks": 147360,
          "time": 135.441032,
          "velocity": 0.7559055118110236
        },
        {
          "duration": 0.10386018333332458,
          "durationTicks": 113,
          "midi": 74,
          "name": "D5",
          "ticks": 147480,
          "time": 135.55132600000002,
          "velocity": 0.7559055118110236
        },
        {
          "duration": 0.103860183333353,
          "durationTicks": 113,
          "midi": 69,
          "name": "A4",
          "ticks": 147840,
          "time": 135.882208,
          "velocity": 0.7559055118110236
        },
        {
          "duration": 0.10386018333332458,
          "durationTicks": 113,
          "midi": 70,
          "name": "A#4",
          "ticks": 147960,
          "time": 135.992502,
          "velocity": 0.7559055118110236
        },
        {
          "duration": 0.10386018333332458,
          "durationTicks": 113,
          "midi": 71,
          "name": "B4",
          "ticks": 148080,
          "time": 136.102796,
          "velocity": 0.7559055118110236
        },
        {
          "duration": 0.10386018333332458,
          "durationTicks": 113,
          "midi": 74,
          "name": "D5",
          "ticks": 148200,
          "time": 136.21309,
          "velocity": 0.7559055118110236
        },
        {
          "duration": 0.10386018333332458,
          "durationTicks": 113,
          "midi": 76,
          "name": "E5",
          "ticks": 148560,
          "time": 136.543972,
          "velocity": 0.7559055118110236
        },
        {
          "duration": 0.10386018333332458,
          "durationTicks": 113,
          "midi": 76,
          "name": "E5",
          "ticks": 148680,
          "time": 136.654266,
          "velocity": 0.7559055118110236
        },
        {
          "duration": 0.10386018333332458,
          "durationTicks": 113,
          "midi": 71,
          "name": "B4",
          "ticks": 149040,
          "time": 136.985148,
          "velocity": 0.7559055118110236
        },
        {
          "duration": 0.103860183333353,
          "durationTicks": 113,
          "midi": 69,
          "name": "A4",
          "ticks": 149160,
          "time": 137.095442,
          "velocity": 0.7559055118110236
        },
        {
          "duration": 0.10386018333332458,
          "durationTicks": 113,
          "midi": 67,
          "name": "G4",
          "ticks": 149280,
          "time": 137.205736,
          "velocity": 0.7559055118110236
        },
        {
          "duration": 0.10386018333332458,
          "durationTicks": 113,
          "midi": 64,
          "name": "E4",
          "ticks": 149400,
          "time": 137.31603,
          "velocity": 0.7559055118110236
        },
        {
          "duration": 0.41819808333332276,
          "durationTicks": 455,
          "midi": 67,
          "name": "G4",
          "ticks": 149760,
          "time": 137.64691200000001,
          "velocity": 0.7559055118110236
        },
        {
          "duration": 0.31341878333333284,
          "durationTicks": 341,
          "midi": 69,
          "name": "A4",
          "ticks": 150240,
          "time": 138.088088,
          "velocity": 0.7559055118110236
        },
        {
          "duration": 0.10386018333332458,
          "durationTicks": 113,
          "midi": 64,
          "name": "E4",
          "ticks": 150600,
          "time": 138.41897,
          "velocity": 0.7559055118110236
        },
        {
          "duration": 0.02757349999998837,
          "durationTicks": 30,
          "midi": 76,
          "name": "E5",
          "ticks": 151440,
          "time": 139.19102800000002,
          "velocity": 0.7559055118110236
        },
        {
          "duration": 0.027573500000016793,
          "durationTicks": 30,
          "midi": 77,
          "name": "F5",
          "ticks": 151473,
          "time": 139.22135885,
          "velocity": 0.7559055118110236
        },
        {
          "duration": 0.02757349999998837,
          "durationTicks": 30,
          "midi": 78,
          "name": "F#5",
          "ticks": 151507,
          "time": 139.25260881666668,
          "velocity": 0.7559055118110236
        },
        {
          "duration": 0.02757349999998837,
          "durationTicks": 30,
          "midi": 79,
          "name": "G5",
          "ticks": 151542,
          "time": 139.2847779,
          "velocity": 0.7559055118110236
        },
        {
          "duration": 0.02757349999998837,
          "durationTicks": 30,
          "midi": 80,
          "name": "G#5",
          "ticks": 151575,
          "time": 139.31510875,
          "velocity": 0.7559055118110236
        },
        {
          "duration": 0.027573500000016793,
          "durationTicks": 30,
          "midi": 81,
          "name": "A5",
          "ticks": 151609,
          "time": 139.34635871666666,
          "velocity": 0.7559055118110236
        },
        {
          "duration": 0.030330849999984366,
          "durationTicks": 33,
          "midi": 82,
          "name": "A#5",
          "ticks": 151644,
          "time": 139.3785278,
          "velocity": 0.7559055118110236
        },
        {
          "duration": 0.10937488333331657,
          "durationTicks": 119,
          "midi": 83,
          "name": "B5",
          "ticks": 151680,
          "time": 139.411616,
          "velocity": 0.7559055118110236
        },
        {
          "duration": 0.10937488333331657,
          "durationTicks": 119,
          "midi": 81,
          "name": "A5",
          "ticks": 151920,
          "time": 139.632204,
          "velocity": 0.7559055118110236
        },
        {
          "duration": 0.10386018333332458,
          "durationTicks": 113,
          "midi": 79,
          "name": "G5",
          "ticks": 152160,
          "time": 139.852792,
          "velocity": 0.7559055118110236
        },
        {
          "duration": 0.20863948333334292,
          "durationTicks": 227,
          "midi": 76,
          "name": "E5",
          "ticks": 152280,
          "time": 139.963086,
          "velocity": 0.7559055118110236
        },
        {
          "duration": 0.4181980833333512,
          "durationTicks": 455,
          "midi": 72,
          "name": "C5",
          "ticks": 154560,
          "time": 142.058672,
          "velocity": 0.6299212598425197
        },
        {
          "duration": 0.4181980833333512,
          "durationTicks": 455,
          "midi": 76,
          "name": "E5",
          "ticks": 154560,
          "time": 142.058672,
          "velocity": 0.6299212598425197
        },
        {
          "duration": 0.4181980833333512,
          "durationTicks": 455,
          "midi": 79,
          "name": "G5",
          "ticks": 154560,
          "time": 142.058672,
          "velocity": 0.6299212598425197
        },
        {
          "duration": 0.4181980833333512,
          "durationTicks": 455,
          "midi": 83,
          "name": "B5",
          "ticks": 154560,
          "time": 142.058672,
          "velocity": 0.6299212598425197
        },
        {
          "duration": 0.627756683333331,
          "durationTicks": 683,
          "midi": 71,
          "name": "B4",
          "ticks": 156480,
          "time": 143.823376,
          "velocity": 0.6299212598425197
        },
        {
          "duration": 0.627756683333331,
          "durationTicks": 683,
          "midi": 74,
          "name": "D5",
          "ticks": 156480,
          "time": 143.823376,
          "velocity": 0.6299212598425197
        },
        {
          "duration": 0.627756683333331,
          "durationTicks": 683,
          "midi": 78,
          "name": "F#5",
          "ticks": 156480,
          "time": 143.823376,
          "velocity": 0.6299212598425197
        },
        {
          "duration": 0.627756683333331,
          "durationTicks": 683,
          "midi": 81,
          "name": "A5",
          "ticks": 156480,
          "time": 143.823376,
          "velocity": 0.6299212598425197
        },
        {
          "duration": 0.4181980833333512,
          "durationTicks": 455,
          "midi": 76,
          "name": "E5",
          "ticks": 157200,
          "time": 144.48514,
          "velocity": 0.6299212598425197
        },
        {
          "duration": 0.4181980833333512,
          "durationTicks": 455,
          "midi": 79,
          "name": "G5",
          "ticks": 157200,
          "time": 144.48514,
          "velocity": 0.6299212598425197
        },
        {
          "duration": 0.4181980833333512,
          "durationTicks": 455,
          "midi": 83,
          "name": "B5",
          "ticks": 157200,
          "time": 144.48514,
          "velocity": 0.6299212598425197
        },
        {
          "duration": 0.4181980833333512,
          "durationTicks": 455,
          "midi": 86,
          "name": "D6",
          "ticks": 157200,
          "time": 144.48514,
          "velocity": 0.6299212598425197
        },
        {
          "duration": 0.4181980833333512,
          "durationTicks": 455,
          "midi": 72,
          "name": "C5",
          "ticks": 158400,
          "time": 145.58808,
          "velocity": 0.6299212598425197
        },
        {
          "duration": 0.4181980833333512,
          "durationTicks": 455,
          "midi": 76,
          "name": "E5",
          "ticks": 158400,
          "time": 145.58808,
          "velocity": 0.6299212598425197
        },
        {
          "duration": 0.4181980833333512,
          "durationTicks": 455,
          "midi": 79,
          "name": "G5",
          "ticks": 158400,
          "time": 145.58808,
          "velocity": 0.6299212598425197
        },
        {
          "duration": 0.4181980833333512,
          "durationTicks": 455,
          "midi": 83,
          "name": "B5",
          "ticks": 158400,
          "time": 145.58808,
          "velocity": 0.6299212598425197
        },
        {
          "duration": 0.627756683333331,
          "durationTicks": 683,
          "midi": 74,
          "name": "D5",
          "ticks": 160320,
          "time": 147.352784,
          "velocity": 0.6299212598425197
        },
        {
          "duration": 0.627756683333331,
          "durationTicks": 683,
          "midi": 78,
          "name": "F#5",
          "ticks": 160320,
          "time": 147.352784,
          "velocity": 0.6299212598425197
        },
        {
          "duration": 0.627756683333331,
          "durationTicks": 683,
          "midi": 81,
          "name": "A5",
          "ticks": 160320,
          "time": 147.352784,
          "velocity": 0.6299212598425197
        },
        {
          "duration": 0.627756683333331,
          "durationTicks": 683,
          "midi": 84,
          "name": "C6",
          "ticks": 160320,
          "time": 147.352784,
          "velocity": 0.6299212598425197
        },
        {
          "duration": 0.4181980833333512,
          "durationTicks": 455,
          "midi": 67,
          "name": "G4",
          "ticks": 161040,
          "time": 148.014548,
          "velocity": 0.6299212598425197
        },
        {
          "duration": 0.4181980833333512,
          "durationTicks": 455,
          "midi": 71,
          "name": "B4",
          "ticks": 161040,
          "time": 148.014548,
          "velocity": 0.6299212598425197
        },
        {
          "duration": 0.4181980833333512,
          "durationTicks": 455,
          "midi": 74,
          "name": "D5",
          "ticks": 161040,
          "time": 148.014548,
          "velocity": 0.6299212598425197
        },
        {
          "duration": 0.4181980833333512,
          "durationTicks": 455,
          "midi": 77,
          "name": "F5",
          "ticks": 161040,
          "time": 148.014548,
          "velocity": 0.6299212598425197
        },
        {
          "duration": 0.4181980833333512,
          "durationTicks": 455,
          "midi": 72,
          "name": "C5",
          "ticks": 162240,
          "time": 149.117488,
          "velocity": 0.6299212598425197
        },
        {
          "duration": 0.4181980833333512,
          "durationTicks": 455,
          "midi": 76,
          "name": "E5",
          "ticks": 162240,
          "time": 149.117488,
          "velocity": 0.6299212598425197
        },
        {
          "duration": 0.4181980833333512,
          "durationTicks": 455,
          "midi": 79,
          "name": "G5",
          "ticks": 162240,
          "time": 149.117488,
          "velocity": 0.6299212598425197
        },
        {
          "duration": 0.4181980833333512,
          "durationTicks": 455,
          "midi": 83,
          "name": "B5",
          "ticks": 162240,
          "time": 149.117488,
          "velocity": 0.6299212598425197
        },
        {
          "duration": 0.627756683333331,
          "durationTicks": 683,
          "midi": 71,
          "name": "B4",
          "ticks": 164160,
          "time": 150.882192,
          "velocity": 0.6299212598425197
        },
        {
          "duration": 0.627756683333331,
          "durationTicks": 683,
          "midi": 75,
          "name": "D#5",
          "ticks": 164160,
          "time": 150.882192,
          "velocity": 0.6299212598425197
        },
        {
          "duration": 0.627756683333331,
          "durationTicks": 683,
          "midi": 78,
          "name": "F#5",
          "ticks": 164160,
          "time": 150.882192,
          "velocity": 0.6299212598425197
        },
        {
          "duration": 0.627756683333331,
          "durationTicks": 683,
          "midi": 81,
          "name": "A5",
          "ticks": 164160,
          "time": 150.882192,
          "velocity": 0.6299212598425197
        },
        {
          "duration": 0.627756683333331,
          "durationTicks": 683,
          "midi": 76,
          "name": "E5",
          "ticks": 164880,
          "time": 151.543956,
          "velocity": 0.6299212598425197
        },
        {
          "duration": 0.627756683333331,
          "durationTicks": 683,
          "midi": 79,
          "name": "G5",
          "ticks": 164880,
          "time": 151.543956,
          "velocity": 0.6299212598425197
        },
        {
          "duration": 0.627756683333331,
          "durationTicks": 683,
          "midi": 83,
          "name": "B5",
          "ticks": 164880,
          "time": 151.543956,
          "velocity": 0.6299212598425197
        },
        {
          "duration": 0.627756683333331,
          "durationTicks": 683,
          "midi": 86,
          "name": "D6",
          "ticks": 164880,
          "time": 151.543956,
          "velocity": 0.6299212598425197
        },
        {
          "duration": 0.4181980833333512,
          "durationTicks": 455,
          "midi": 69,
          "name": "A4",
          "ticks": 166080,
          "time": 152.646896,
          "velocity": 0.6299212598425197
        },
        {
          "duration": 0.4181980833333512,
          "durationTicks": 455,
          "midi": 72,
          "name": "C5",
          "ticks": 166080,
          "time": 152.646896,
          "velocity": 0.6299212598425197
        },
        {
          "duration": 0.4181980833333512,
          "durationTicks": 455,
          "midi": 76,
          "name": "E5",
          "ticks": 166080,
          "time": 152.646896,
          "velocity": 0.6299212598425197
        },
        {
          "duration": 0.4181980833333512,
          "durationTicks": 455,
          "midi": 79,
          "name": "G5",
          "ticks": 166080,
          "time": 152.646896,
          "velocity": 0.6299212598425197
        },
        {
          "duration": 0.41819808333332276,
          "durationTicks": 455,
          "midi": 72,
          "name": "C5",
          "ticks": 171840,
          "time": 157.941008,
          "velocity": 0.9921259842519685
        },
        {
          "duration": 0.41819808333332276,
          "durationTicks": 455,
          "midi": 76,
          "name": "E5",
          "ticks": 171840,
          "time": 157.941008,
          "velocity": 0.9921259842519685
        },
        {
          "duration": 0.41819808333332276,
          "durationTicks": 455,
          "midi": 79,
          "name": "G5",
          "ticks": 171840,
          "time": 157.941008,
          "velocity": 0.9921259842519685
        },
        {
          "duration": 0.41819808333332276,
          "durationTicks": 455,
          "midi": 83,
          "name": "B5",
          "ticks": 171840,
          "time": 157.941008,
          "velocity": 0.9921259842519685
        },
        {
          "duration": 0.627756683333331,
          "durationTicks": 683,
          "midi": 71,
          "name": "B4",
          "ticks": 173760,
          "time": 159.705712,
          "velocity": 0.9921259842519685
        },
        {
          "duration": 0.627756683333331,
          "durationTicks": 683,
          "midi": 74,
          "name": "D5",
          "ticks": 173760,
          "time": 159.705712,
          "velocity": 0.9921259842519685
        },
        {
          "duration": 0.627756683333331,
          "durationTicks": 683,
          "midi": 78,
          "name": "F#5",
          "ticks": 173760,
          "time": 159.705712,
          "velocity": 0.9921259842519685
        },
        {
          "duration": 0.627756683333331,
          "durationTicks": 683,
          "midi": 81,
          "name": "A5",
          "ticks": 173760,
          "time": 159.705712,
          "velocity": 0.9921259842519685
        },
        {
          "duration": 0.41819808333332276,
          "durationTicks": 455,
          "midi": 76,
          "name": "E5",
          "ticks": 174480,
          "time": 160.367476,
          "velocity": 0.9921259842519685
        },
        {
          "duration": 0.41819808333332276,
          "durationTicks": 455,
          "midi": 79,
          "name": "G5",
          "ticks": 174480,
          "time": 160.367476,
          "velocity": 0.9921259842519685
        },
        {
          "duration": 0.41819808333332276,
          "durationTicks": 455,
          "midi": 83,
          "name": "B5",
          "ticks": 174480,
          "time": 160.367476,
          "velocity": 0.9921259842519685
        },
        {
          "duration": 0.41819808333332276,
          "durationTicks": 455,
          "midi": 86,
          "name": "D6",
          "ticks": 174480,
          "time": 160.367476,
          "velocity": 0.9921259842519685
        },
        {
          "duration": 0.4181980833333512,
          "durationTicks": 455,
          "midi": 72,
          "name": "C5",
          "ticks": 175680,
          "time": 161.470416,
          "velocity": 0.9921259842519685
        },
        {
          "duration": 0.4181980833333512,
          "durationTicks": 455,
          "midi": 76,
          "name": "E5",
          "ticks": 175680,
          "time": 161.470416,
          "velocity": 0.9921259842519685
        },
        {
          "duration": 0.4181980833333512,
          "durationTicks": 455,
          "midi": 79,
          "name": "G5",
          "ticks": 175680,
          "time": 161.470416,
          "velocity": 0.9921259842519685
        },
        {
          "duration": 0.4181980833333512,
          "durationTicks": 455,
          "midi": 83,
          "name": "B5",
          "ticks": 175680,
          "time": 161.470416,
          "velocity": 0.9921259842519685
        },
        {
          "duration": 0.627756683333331,
          "durationTicks": 683,
          "midi": 74,
          "name": "D5",
          "ticks": 177600,
          "time": 163.23512,
          "velocity": 0.9921259842519685
        },
        {
          "duration": 0.627756683333331,
          "durationTicks": 683,
          "midi": 78,
          "name": "F#5",
          "ticks": 177600,
          "time": 163.23512,
          "velocity": 0.9921259842519685
        },
        {
          "duration": 0.627756683333331,
          "durationTicks": 683,
          "midi": 81,
          "name": "A5",
          "ticks": 177600,
          "time": 163.23512,
          "velocity": 0.9921259842519685
        },
        {
          "duration": 0.627756683333331,
          "durationTicks": 683,
          "midi": 84,
          "name": "C6",
          "ticks": 177600,
          "time": 163.23512,
          "velocity": 0.9921259842519685
        },
        {
          "duration": 0.4181980833333512,
          "durationTicks": 455,
          "midi": 67,
          "name": "G4",
          "ticks": 178320,
          "time": 163.896884,
          "velocity": 0.9921259842519685
        },
        {
          "duration": 0.4181980833333512,
          "durationTicks": 455,
          "midi": 71,
          "name": "B4",
          "ticks": 178320,
          "time": 163.896884,
          "velocity": 0.9921259842519685
        },
        {
          "duration": 0.4181980833333512,
          "durationTicks": 455,
          "midi": 74,
          "name": "D5",
          "ticks": 178320,
          "time": 163.896884,
          "velocity": 0.9921259842519685
        },
        {
          "duration": 0.4181980833333512,
          "durationTicks": 455,
          "midi": 77,
          "name": "F5",
          "ticks": 178320,
          "time": 163.896884,
          "velocity": 0.9921259842519685
        },
        {
          "duration": 0.41819808333332276,
          "durationTicks": 455,
          "midi": 72,
          "name": "C5",
          "ticks": 179520,
          "time": 164.99982400000002,
          "velocity": 0.9921259842519685
        },
        {
          "duration": 0.41819808333332276,
          "durationTicks": 455,
          "midi": 76,
          "name": "E5",
          "ticks": 179520,
          "time": 164.99982400000002,
          "velocity": 0.9921259842519685
        },
        {
          "duration": 0.41819808333332276,
          "durationTicks": 455,
          "midi": 79,
          "name": "G5",
          "ticks": 179520,
          "time": 164.99982400000002,
          "velocity": 0.9921259842519685
        },
        {
          "duration": 0.41819808333332276,
          "durationTicks": 455,
          "midi": 83,
          "name": "B5",
          "ticks": 179520,
          "time": 164.99982400000002,
          "velocity": 0.9921259842519685
        },
        {
          "duration": 0.627756683333331,
          "durationTicks": 683,
          "midi": 71,
          "name": "B4",
          "ticks": 181440,
          "time": 166.764528,
          "velocity": 0.9921259842519685
        },
        {
          "duration": 0.627756683333331,
          "durationTicks": 683,
          "midi": 75,
          "name": "D#5",
          "ticks": 181440,
          "time": 166.764528,
          "velocity": 0.9921259842519685
        },
        {
          "duration": 0.627756683333331,
          "durationTicks": 683,
          "midi": 78,
          "name": "F#5",
          "ticks": 181440,
          "time": 166.764528,
          "velocity": 0.9921259842519685
        },
        {
          "duration": 0.627756683333331,
          "durationTicks": 683,
          "midi": 81,
          "name": "A5",
          "ticks": 181440,
          "time": 166.764528,
          "velocity": 0.9921259842519685
        },
        {
          "duration": 0.6277566833333026,
          "durationTicks": 683,
          "midi": 76,
          "name": "E5",
          "ticks": 182160,
          "time": 167.42629200000002,
          "velocity": 0.9921259842519685
        },
        {
          "duration": 0.6277566833333026,
          "durationTicks": 683,
          "midi": 79,
          "name": "G5",
          "ticks": 182160,
          "time": 167.42629200000002,
          "velocity": 0.9921259842519685
        },
        {
          "duration": 0.6277566833333026,
          "durationTicks": 683,
          "midi": 83,
          "name": "B5",
          "ticks": 182160,
          "time": 167.42629200000002,
          "velocity": 0.9921259842519685
        },
        {
          "duration": 0.6277566833333026,
          "durationTicks": 683,
          "midi": 86,
          "name": "D6",
          "ticks": 182160,
          "time": 167.42629200000002,
          "velocity": 0.9921259842519685
        },
        {
          "duration": 0.4181980833333512,
          "durationTicks": 455,
          "midi": 69,
          "name": "A4",
          "ticks": 183360,
          "time": 168.529232,
          "velocity": 0.9921259842519685
        },
        {
          "duration": 0.4181980833333512,
          "durationTicks": 455,
          "midi": 72,
          "name": "C5",
          "ticks": 183360,
          "time": 168.529232,
          "velocity": 0.9921259842519685
        },
        {
          "duration": 0.4181980833333512,
          "durationTicks": 455,
          "midi": 76,
          "name": "E5",
          "ticks": 183360,
          "time": 168.529232,
          "velocity": 0.9921259842519685
        },
        {
          "duration": 0.4181980833333512,
          "durationTicks": 455,
          "midi": 79,
          "name": "G5",
          "ticks": 183360,
          "time": 168.529232,
          "velocity": 0.9921259842519685
        },
        {
          "duration": 0.10386018333332458,
          "durationTicks": 113,
          "midi": 79,
          "name": "G5",
          "ticks": 191040,
          "time": 175.58804800000001,
          "velocity": 0.9921259842519685
        },
        {
          "duration": 0.10386018333332458,
          "durationTicks": 113,
          "midi": 76,
          "name": "E5",
          "ticks": 191160,
          "time": 175.698342,
          "velocity": 0.9921259842519685
        },
        {
          "duration": 0.10386018333332458,
          "durationTicks": 113,
          "midi": 74,
          "name": "D5",
          "ticks": 191280,
          "time": 175.808636,
          "velocity": 0.9921259842519685
        },
        {
          "duration": 0.10386018333332458,
          "durationTicks": 113,
          "midi": 71,
          "name": "B4",
          "ticks": 191400,
          "time": 175.91893000000002,
          "velocity": 0.9921259842519685
        },
        {
          "duration": 0.103860183333353,
          "durationTicks": 113,
          "midi": 76,
          "name": "E5",
          "ticks": 191760,
          "time": 176.249812,
          "velocity": 0.9921259842519685
        },
        {
          "duration": 0.10386018333332458,
          "durationTicks": 113,
          "midi": 74,
          "name": "D5",
          "ticks": 191880,
          "time": 176.360106,
          "velocity": 0.9921259842519685
        },
        {
          "duration": 0.10386018333332458,
          "durationTicks": 113,
          "midi": 71,
          "name": "B4",
          "ticks": 192000,
          "time": 176.4704,
          "velocity": 0.9921259842519685
        },
        {
          "duration": 0.10386018333332458,
          "durationTicks": 113,
          "midi": 69,
          "name": "A4",
          "ticks": 192120,
          "time": 176.580694,
          "velocity": 0.9921259842519685
        },
        {
          "duration": 0.10386018333332458,
          "durationTicks": 113,
          "midi": 74,
          "name": "D5",
          "ticks": 192480,
          "time": 176.911576,
          "velocity": 0.9921259842519685
        },
        {
          "duration": 0.10386018333332458,
          "durationTicks": 113,
          "midi": 71,
          "name": "B4",
          "ticks": 192600,
          "time": 177.02187,
          "velocity": 0.9921259842519685
        },
        {
          "duration": 0.10386018333332458,
          "durationTicks": 113,
          "midi": 69,
          "name": "A4",
          "ticks": 192720,
          "time": 177.13216400000002,
          "velocity": 0.9921259842519685
        },
        {
          "duration": 0.10386018333332458,
          "durationTicks": 113,
          "midi": 67,
          "name": "G4",
          "ticks": 192840,
          "time": 177.242458,
          "velocity": 0.9921259842519685
        },
        {
          "duration": 0.10386018333332458,
          "durationTicks": 113,
          "midi": 71,
          "name": "B4",
          "ticks": 193200,
          "time": 177.57334,
          "velocity": 0.9921259842519685
        },
        {
          "duration": 0.10386018333332458,
          "durationTicks": 113,
          "midi": 69,
          "name": "A4",
          "ticks": 193320,
          "time": 177.683634,
          "velocity": 0.9921259842519685
        },
        {
          "duration": 0.10386018333332458,
          "durationTicks": 113,
          "midi": 67,
          "name": "G4",
          "ticks": 193440,
          "time": 177.793928,
          "velocity": 0.9921259842519685
        },
        {
          "duration": 0.10386018333332458,
          "durationTicks": 113,
          "midi": 64,
          "name": "E4",
          "ticks": 193560,
          "time": 177.904222,
          "velocity": 0.9921259842519685
        },
        {
          "duration": 0.10386018333332458,
          "durationTicks": 113,
          "midi": 69,
          "name": "A4",
          "ticks": 194160,
          "time": 178.455692,
          "velocity": 0.9921259842519685
        },
        {
          "duration": 0.10386018333332458,
          "durationTicks": 113,
          "midi": 71,
          "name": "B4",
          "ticks": 194280,
          "time": 178.565986,
          "velocity": 0.9921259842519685
        },
        {
          "duration": 0.103860183333353,
          "durationTicks": 113,
          "midi": 79,
          "name": "G5",
          "ticks": 194400,
          "time": 178.67628,
          "velocity": 0.9921259842519685
        },
        {
          "duration": 0.10386018333332458,
          "durationTicks": 113,
          "midi": 78,
          "name": "F#5",
          "ticks": 194520,
          "time": 178.786574,
          "velocity": 0.9921259842519685
        },
        {
          "duration": 0.10386018333332458,
          "durationTicks": 113,
          "midi": 71,
          "name": "B4",
          "ticks": 194640,
          "time": 178.896868,
          "velocity": 0.9921259842519685
        },
        {
          "duration": 0.31341878333336126,
          "durationTicks": 341,
          "midi": 74,
          "name": "D5",
          "ticks": 194760,
          "time": 179.007162,
          "velocity": 0.9921259842519685
        },
        {
          "duration": 0.20863948333334292,
          "durationTicks": 227,
          "midi": 76,
          "name": "E5",
          "ticks": 195120,
          "time": 179.338044,
          "velocity": 0.9921259842519685
        }
      ],
      "endOfTrackTicks": 195348
    },
    {
      "channel": 11,
      "controlChanges": {},
      "pitchBends": [],
      "instrument": {
        "family": "piano",
        "number": 0,
        "name": "acoustic grand piano"
      },
      "name": "",
      "notes": [
        {
          "duration": 0.20863948333333315,
          "durationTicks": 227,
          "midi": 40,
          "name": "E2",
          "ticks": 4800,
          "time": 4.41176,
          "velocity": 0.6299212598425197
        },
        {
          "duration": 0.20863948333333315,
          "durationTicks": 227,
          "midi": 52,
          "name": "E3",
          "ticks": 5040,
          "time": 4.632348,
          "velocity": 0.6299212598425197
        },
        {
          "duration": 0.20863948333333404,
          "durationTicks": 227,
          "midi": 42,
          "name": "F#2",
          "ticks": 5280,
          "time": 4.852936,
          "velocity": 0.6299212598425197
        },
        {
          "duration": 0.20863948333333315,
          "durationTicks": 227,
          "midi": 54,
          "name": "F#3",
          "ticks": 5520,
          "time": 5.073524,
          "velocity": 0.6299212598425197
        },
        {
          "duration": 0.20863948333333315,
          "durationTicks": 227,
          "midi": 43,
          "name": "G2",
          "ticks": 5760,
          "time": 5.294112,
          "velocity": 0.6299212598425197
        },
        {
          "duration": 0.10386018333333347,
          "durationTicks": 113,
          "midi": 40,
          "name": "E2",
          "ticks": 6000,
          "time": 5.5147,
          "velocity": 0.6299212598425197
        },
        {
          "duration": 0.20863948333333315,
          "durationTicks": 227,
          "midi": 43,
          "name": "G2",
          "ticks": 6120,
          "time": 5.624994,
          "velocity": 0.6299212598425197
        },
        {
          "duration": 0.10386018333333347,
          "durationTicks": 113,
          "midi": 40,
          "name": "E2",
          "ticks": 6360,
          "time": 5.845582,
          "velocity": 0.6299212598425197
        },
        {
          "duration": 0.20863948333333315,
          "durationTicks": 227,
          "midi": 44,
          "name": "G#2",
          "ticks": 6480,
          "time": 5.955876,
          "velocity": 0.6299212598425197
        },
        {
          "duration": 0.4181980833333334,
          "durationTicks": 455,
          "midi": 45,
          "name": "A2",
          "ticks": 6720,
          "time": 6.176464,
          "velocity": 0.6299212598425197
        },
        {
          "duration": 0.20863948333333315,
          "durationTicks": 227,
          "midi": 40,
          "name": "E2",
          "ticks": 7440,
          "time": 6.838228,
          "velocity": 0.6299212598425197
        },
        {
          "duration": 0.20863948333333315,
          "durationTicks": 227,
          "midi": 45,
          "name": "A2",
          "ticks": 7680,
          "time": 7.058816,
          "velocity": 0.6299212598425197
        },
        {
          "duration": 0.10386018333333258,
          "durationTicks": 113,
          "midi": 40,
          "name": "E2",
          "ticks": 7920,
          "time": 7.279404,
          "velocity": 0.6299212598425197
        },
        {
          "duration": 0.20863948333333315,
          "durationTicks": 227,
          "midi": 45,
          "name": "A2",
          "ticks": 8040,
          "time": 7.389698,
          "velocity": 0.6299212598425197
        },
        {
          "duration": 0.10386018333333258,
          "durationTicks": 113,
          "midi": 40,
          "name": "E2",
          "ticks": 8280,
          "time": 7.610286,
          "velocity": 0.6299212598425197
        },
        {
          "duration": 0.20863948333333315,
          "durationTicks": 227,
          "midi": 43,
          "name": "G2",
          "ticks": 8400,
          "time": 7.72058,
          "velocity": 0.6299212598425197
        },
        {
          "duration": 0.20863948333333315,
          "durationTicks": 227,
          "midi": 40,
          "name": "E2",
          "ticks": 8640,
          "time": 7.941168,
          "velocity": 0.6299212598425197
        },
        {
          "duration": 0.20863948333333227,
          "durationTicks": 227,
          "midi": 52,
          "name": "E3",
          "ticks": 8880,
          "time": 8.161756,
          "velocity": 0.6299212598425197
        },
        {
          "duration": 0.20863948333333404,
          "durationTicks": 227,
          "midi": 42,
          "name": "F#2",
          "ticks": 9120,
          "time": 8.382344,
          "velocity": 0.6299212598425197
        },
        {
          "duration": 0.20863948333333227,
          "durationTicks": 227,
          "midi": 54,
          "name": "F#3",
          "ticks": 9360,
          "time": 8.602932000000001,
          "velocity": 0.6299212598425197
        },
        {
          "duration": 0.20863948333333404,
          "durationTicks": 227,
          "midi": 43,
          "name": "G2",
          "ticks": 9600,
          "time": 8.82352,
          "velocity": 0.6299212598425197
        },
        {
          "duration": 0.10386018333333347,
          "durationTicks": 113,
          "midi": 40,
          "name": "E2",
          "ticks": 9840,
          "time": 9.044108,
          "velocity": 0.6299212598425197
        },
        {
          "duration": 0.20863948333333227,
          "durationTicks": 227,
          "midi": 43,
          "name": "G2",
          "ticks": 9960,
          "time": 9.154402000000001,
          "velocity": 0.6299212598425197
        },
        {
          "duration": 0.10386018333333347,
          "durationTicks": 113,
          "midi": 40,
          "name": "E2",
          "ticks": 10200,
          "time": 9.37499,
          "velocity": 0.6299212598425197
        },
        {
          "duration": 0.20863948333333404,
          "durationTicks": 227,
          "midi": 44,
          "name": "G#2",
          "ticks": 10320,
          "time": 9.485284,
          "velocity": 0.6299212598425197
        },
        {
          "duration": 0.4181980833333352,
          "durationTicks": 455,
          "midi": 45,
          "name": "A2",
          "ticks": 10560,
          "time": 9.705872,
          "velocity": 0.6299212598425197
        },
        {
          "duration": 0.20863948333333227,
          "durationTicks": 227,
          "midi": 40,
          "name": "E2",
          "ticks": 11280,
          "time": 10.367636000000001,
          "velocity": 0.6299212598425197
        },
        {
          "duration": 0.20863948333333404,
          "durationTicks": 227,
          "midi": 47,
          "name": "B2",
          "ticks": 11520,
          "time": 10.588224,
          "velocity": 0.6299212598425197
        },
        {
          "duration": 0.10386018333333347,
          "durationTicks": 113,
          "midi": 45,
          "name": "A2",
          "ticks": 11760,
          "time": 10.808812,
          "velocity": 0.6299212598425197
        },
        {
          "duration": 0.20863948333333227,
          "durationTicks": 227,
          "midi": 47,
          "name": "B2",
          "ticks": 11880,
          "time": 10.919106000000001,
          "velocity": 0.6299212598425197
        },
        {
          "duration": 0.10386018333333347,
          "durationTicks": 113,
          "midi": 45,
          "name": "A2",
          "ticks": 12120,
          "time": 11.139694,
          "velocity": 0.6299212598425197
        },
        {
          "duration": 0.20863948333333404,
          "durationTicks": 227,
          "midi": 50,
          "name": "D3",
          "ticks": 12240,
          "time": 11.249988,
          "velocity": 0.6299212598425197
        },
        {
          "duration": 0.20863948333333227,
          "durationTicks": 227,
          "midi": 40,
          "name": "E2",
          "ticks": 12480,
          "time": 11.470576000000001,
          "velocity": 0.6299212598425197
        },
        {
          "duration": 0.20863948333333227,
          "durationTicks": 227,
          "midi": 52,
          "name": "E3",
          "ticks": 12720,
          "time": 11.691164,
          "velocity": 0.6299212598425197
        },
        {
          "duration": 0.20863948333333404,
          "durationTicks": 227,
          "midi": 42,
          "name": "F#2",
          "ticks": 12960,
          "time": 11.911752,
          "velocity": 0.6299212598425197
        },
        {
          "duration": 0.20863948333333227,
          "durationTicks": 227,
          "midi": 54,
          "name": "F#3",
          "ticks": 13200,
          "time": 12.132340000000001,
          "velocity": 0.6299212598425197
        },
        {
          "duration": 0.20863948333333404,
          "durationTicks": 227,
          "midi": 43,
          "name": "G2",
          "ticks": 13440,
          "time": 12.352928,
          "velocity": 0.6299212598425197
        },
        {
          "duration": 0.10386018333333347,
          "durationTicks": 113,
          "midi": 40,
          "name": "E2",
          "ticks": 13680,
          "time": 12.573516,
          "velocity": 0.6299212598425197
        },
        {
          "duration": 0.20863948333333227,
          "durationTicks": 227,
          "midi": 43,
          "name": "G2",
          "ticks": 13800,
          "time": 12.683810000000001,
          "velocity": 0.6299212598425197
        },
        {
          "duration": 0.10386018333333347,
          "durationTicks": 113,
          "midi": 40,
          "name": "E2",
          "ticks": 14040,
          "time": 12.904398,
          "velocity": 0.6299212598425197
        },
        {
          "duration": 0.20863948333333404,
          "durationTicks": 227,
          "midi": 44,
          "name": "G#2",
          "ticks": 14160,
          "time": 13.014692,
          "velocity": 0.6299212598425197
        },
        {
          "duration": 0.4181980833333352,
          "durationTicks": 455,
          "midi": 45,
          "name": "A2",
          "ticks": 14400,
          "time": 13.23528,
          "velocity": 0.6299212598425197
        },
        {
          "duration": 0.20863948333333227,
          "durationTicks": 227,
          "midi": 40,
          "name": "E2",
          "ticks": 15120,
          "time": 13.897044000000001,
          "velocity": 0.6299212598425197
        },
        {
          "duration": 0.20863948333333404,
          "durationTicks": 227,
          "midi": 45,
          "name": "A2",
          "ticks": 15360,
          "time": 14.117632,
          "velocity": 0.6299212598425197
        },
        {
          "duration": 0.10386018333333347,
          "durationTicks": 113,
          "midi": 40,
          "name": "E2",
          "ticks": 15600,
          "time": 14.33822,
          "velocity": 0.6299212598425197
        },
        {
          "duration": 0.20863948333333404,
          "durationTicks": 227,
          "midi": 45,
          "name": "A2",
          "ticks": 15720,
          "time": 14.448514000000001,
          "velocity": 0.6299212598425197
        },
        {
          "duration": 0.10386018333333347,
          "durationTicks": 113,
          "midi": 40,
          "name": "E2",
          "ticks": 15960,
          "time": 14.669102,
          "velocity": 0.6299212598425197
        },
        {
          "duration": 0.8373152833333339,
          "durationTicks": 911,
          "midi": 43,
          "name": "G2",
          "ticks": 16080,
          "time": 14.779396,
          "velocity": 0.6299212598425197
        },
        {
          "duration": 0.41819808333333164,
          "durationTicks": 455,
          "midi": 48,
          "name": "C3",
          "ticks": 17040,
          "time": 15.661748000000001,
          "velocity": 0.6299212598425197
        },
        {
          "duration": 0.20863948333333227,
          "durationTicks": 227,
          "midi": 45,
          "name": "A2",
          "ticks": 17520,
          "time": 16.102924,
          "velocity": 0.6299212598425197
        },
        {
          "duration": 0.20863948333333582,
          "durationTicks": 227,
          "midi": 48,
          "name": "C3",
          "ticks": 17760,
          "time": 16.323512,
          "velocity": 0.6299212598425197
        },
        {
          "duration": 0.4181980833333334,
          "durationTicks": 455,
          "midi": 42,
          "name": "F#2",
          "ticks": 18000,
          "time": 16.5441,
          "velocity": 0.6299212598425197
        },
        {
          "duration": 0.20863948333333582,
          "durationTicks": 227,
          "midi": 45,
          "name": "A2",
          "ticks": 18480,
          "time": 16.985276,
          "velocity": 0.6299212598425197
        },
        {
          "duration": 0.20863948333333227,
          "durationTicks": 227,
          "midi": 46,
          "name": "A#2",
          "ticks": 18720,
          "time": 17.205864000000002,
          "velocity": 0.6299212598425197
        },
        {
          "duration": 0.20863948333333582,
          "durationTicks": 227,
          "midi": 47,
          "name": "B2",
          "ticks": 18960,
          "time": 17.426452,
          "velocity": 0.6299212598425197
        },
        {
          "duration": 0.20863948333333582,
          "durationTicks": 227,
          "midi": 47,
          "name": "B2",
          "ticks": 19440,
          "time": 17.867628,
          "velocity": 0.6299212598425197
        },
        {
          "duration": 0.10386018333333524,
          "durationTicks": 113,
          "midi": 47,
          "name": "B2",
          "ticks": 19680,
          "time": 18.088216,
          "velocity": 0.6299212598425197
        },
        {
          "duration": 0.10386018333333524,
          "durationTicks": 113,
          "midi": 45,
          "name": "A2",
          "ticks": 19800,
          "time": 18.19851,
          "velocity": 0.6299212598425197
        },
        {
          "duration": 0.20863948333333227,
          "durationTicks": 227,
          "midi": 43,
          "name": "G2",
          "ticks": 19920,
          "time": 18.308804000000002,
          "velocity": 0.6299212598425197
        },
        {
          "duration": 0.20863948333333227,
          "durationTicks": 227,
          "midi": 40,
          "name": "E2",
          "ticks": 20160,
          "time": 18.529392,
          "velocity": 0.6299212598425197
        },
        {
          "duration": 0.20863948333333582,
          "durationTicks": 227,
          "midi": 52,
          "name": "E3",
          "ticks": 20400,
          "time": 18.74998,
          "velocity": 0.6299212598425197
        },
        {
          "duration": 0.20863948333333582,
          "durationTicks": 227,
          "midi": 42,
          "name": "F#2",
          "ticks": 20640,
          "time": 18.970568,
          "velocity": 0.6299212598425197
        },
        {
          "duration": 0.20863948333333582,
          "durationTicks": 227,
          "midi": 54,
          "name": "F#3",
          "ticks": 20880,
          "time": 19.191156,
          "velocity": 0.6299212598425197
        },
        {
          "duration": 0.20863948333333582,
          "durationTicks": 227,
          "midi": 43,
          "name": "G2",
          "ticks": 21120,
          "time": 19.411744,
          "velocity": 0.6299212598425197
        },
        {
          "duration": 0.10386018333333169,
          "durationTicks": 113,
          "midi": 40,
          "name": "E2",
          "ticks": 21360,
          "time": 19.632332,
          "velocity": 0.6299212598425197
        },
        {
          "duration": 0.20863948333333227,
          "durationTicks": 227,
          "midi": 43,
          "name": "G2",
          "ticks": 21480,
          "time": 19.742626,
          "velocity": 0.6299212598425197
        },
        {
          "duration": 0.10386018333333169,
          "durationTicks": 113,
          "midi": 40,
          "name": "E2",
          "ticks": 21720,
          "time": 19.963214,
          "velocity": 0.6299212598425197
        },
        {
          "duration": 0.20863948333333582,
          "durationTicks": 227,
          "midi": 44,
          "name": "G#2",
          "ticks": 21840,
          "time": 20.073508,
          "velocity": 0.6299212598425197
        },
        {
          "duration": 0.4181980833333334,
          "durationTicks": 455,
          "midi": 45,
          "name": "A2",
          "ticks": 22080,
          "time": 20.294096,
          "velocity": 0.6299212598425197
        },
        {
          "duration": 0.20863948333333582,
          "durationTicks": 227,
          "midi": 40,
          "name": "E2",
          "ticks": 22800,
          "time": 20.95586,
          "velocity": 0.6299212598425197
        },
        {
          "duration": 0.20863948333333582,
          "durationTicks": 227,
          "midi": 45,
          "name": "A2",
          "ticks": 23040,
          "time": 21.176448,
          "velocity": 0.6299212598425197
        },
        {
          "duration": 0.10386018333333524,
          "durationTicks": 113,
          "midi": 40,
          "name": "E2",
          "ticks": 23280,
          "time": 21.397036,
          "velocity": 0.6299212598425197
        },
        {
          "duration": 0.20863948333333582,
          "durationTicks": 227,
          "midi": 45,
          "name": "A2",
          "ticks": 23400,
          "time": 21.50733,
          "velocity": 0.6299212598425197
        },
        {
          "duration": 0.10386018333333524,
          "durationTicks": 113,
          "midi": 40,
          "name": "E2",
          "ticks": 23640,
          "time": 21.727918,
          "velocity": 0.6299212598425197
        },
        {
          "duration": 0.20863948333333227,
          "durationTicks": 227,
          "midi": 43,
          "name": "G2",
          "ticks": 23760,
          "time": 21.838212000000002,
          "velocity": 0.6299212598425197
        },
        {
          "duration": 0.20863948333333227,
          "durationTicks": 227,
          "midi": 40,
          "name": "E2",
          "ticks": 24000,
          "time": 22.0588,
          "velocity": 0.6299212598425197
        },
        {
          "duration": 0.20863948333333582,
          "durationTicks": 227,
          "midi": 52,
          "name": "E3",
          "ticks": 24240,
          "time": 22.279388,
          "velocity": 0.6299212598425197
        },
        {
          "duration": 0.20863948333333582,
          "durationTicks": 227,
          "midi": 42,
          "name": "F#2",
          "ticks": 24480,
          "time": 22.499976,
          "velocity": 0.6299212598425197
        },
        {
          "duration": 0.20863948333333582,
          "durationTicks": 227,
          "midi": 54,
          "name": "F#3",
          "ticks": 24720,
          "time": 22.720564,
          "velocity": 0.6299212598425197
        },
        {
          "duration": 0.20863948333333227,
          "durationTicks": 227,
          "midi": 43,
          "name": "G2",
          "ticks": 24960,
          "time": 22.941152000000002,
          "velocity": 0.6299212598425197
        },
        {
          "duration": 0.10386018333333169,
          "durationTicks": 113,
          "midi": 40,
          "name": "E2",
          "ticks": 25200,
          "time": 23.16174,
          "velocity": 0.6299212598425197
        },
        {
          "duration": 0.20863948333333227,
          "durationTicks": 227,
          "midi": 43,
          "name": "G2",
          "ticks": 25320,
          "time": 23.272034,
          "velocity": 0.6299212598425197
        },
        {
          "duration": 0.10386018333333169,
          "durationTicks": 113,
          "midi": 40,
          "name": "E2",
          "ticks": 25560,
          "time": 23.492622,
          "velocity": 0.6299212598425197
        },
        {
          "duration": 0.20863948333333582,
          "durationTicks": 227,
          "midi": 44,
          "name": "G#2",
          "ticks": 25680,
          "time": 23.602916,
          "velocity": 0.6299212598425197
        },
        {
          "duration": 0.4181980833333334,
          "durationTicks": 455,
          "midi": 45,
          "name": "A2",
          "ticks": 25920,
          "time": 23.823504,
          "velocity": 0.6299212598425197
        },
        {
          "duration": 0.20863948333333582,
          "durationTicks": 227,
          "midi": 46,
          "name": "A#2",
          "ticks": 26640,
          "time": 24.485268,
          "velocity": 0.6299212598425197
        },
        {
          "duration": 0.20863948333333582,
          "durationTicks": 227,
          "midi": 47,
          "name": "B2",
          "ticks": 26880,
          "time": 24.705856,
          "velocity": 0.6299212598425197
        },
        {
          "duration": 0.20863948333333582,
          "durationTicks": 227,
          "midi": 48,
          "name": "C3",
          "ticks": 27120,
          "time": 24.926444,
          "velocity": 0.6299212598425197
        },
        {
          "duration": 0.20863948333333582,
          "durationTicks": 227,
          "midi": 49,
          "name": "C#3",
          "ticks": 27360,
          "time": 25.147032,
          "velocity": 0.6299212598425197
        },
        {
          "duration": 0.20863948333333227,
          "durationTicks": 227,
          "midi": 51,
          "name": "D#3",
          "ticks": 27600,
          "time": 25.367620000000002,
          "velocity": 0.6299212598425197
        },
        {
          "duration": 0.627756683333331,
          "durationTicks": 683,
          "midi": 52,
          "name": "E3",
          "ticks": 27840,
          "time": 25.588208,
          "velocity": 0.6299212598425197
        },
        {
          "duration": 0.4181980833333334,
          "durationTicks": 455,
          "midi": 50,
          "name": "D3",
          "ticks": 28560,
          "time": 26.249972,
          "velocity": 0.6299212598425197
        },
        {
          "duration": 0.20863948333333227,
          "durationTicks": 227,
          "midi": 43,
          "name": "G2",
          "ticks": 29040,
          "time": 26.691148000000002,
          "velocity": 0.6299212598425197
        },
        {
          "duration": 0.20863948333333582,
          "durationTicks": 227,
          "midi": 47,
          "name": "B2",
          "ticks": 29280,
          "time": 26.911736,
          "velocity": 0.6299212598425197
        },
        {
          "duration": 0.20863948333333582,
          "durationTicks": 227,
          "midi": 50,
          "name": "D3",
          "ticks": 29520,
          "time": 27.132324,
          "velocity": 0.6299212598425197
        },
        {
          "duration": 0.6277566833333346,
          "durationTicks": 683,
          "midi": 48,
          "name": "C3",
          "ticks": 29760,
          "time": 27.352912,
          "velocity": 0.6299212598425197
        },
        {
          "duration": 0.4181980833333334,
          "durationTicks": 455,
          "midi": 43,
          "name": "G2",
          "ticks": 30480,
          "time": 28.014676,
          "velocity": 0.6299212598425197
        },
        {
          "duration": 0.20863948333333227,
          "durationTicks": 227,
          "midi": 43,
          "name": "G2",
          "ticks": 30960,
          "time": 28.455852,
          "velocity": 0.6299212598425197
        },
        {
          "duration": 0.20863948333333227,
          "durationTicks": 227,
          "midi": 43,
          "name": "G2",
          "ticks": 31200,
          "time": 28.67644,
          "velocity": 0.6299212598425197
        },
        {
          "duration": 0.2086394833333287,
          "durationTicks": 227,
          "midi": 43,
          "name": "G2",
          "ticks": 31440,
          "time": 28.897028000000002,
          "velocity": 0.6299212598425197
        },
        {
          "duration": 0.4181980833333334,
          "durationTicks": 455,
          "midi": 49,
          "name": "C#3",
          "ticks": 31680,
          "time": 29.117616,
          "velocity": 0.6299212598425197
        },
        {
          "duration": 0.41819808333333697,
          "durationTicks": 455,
          "midi": 49,
          "name": "C#3",
          "ticks": 32160,
          "time": 29.558792,
          "velocity": 0.6299212598425197
        },
        {
          "duration": 0.4181980833333334,
          "durationTicks": 455,
          "midi": 49,
          "name": "C#3",
          "ticks": 32640,
          "time": 29.999968000000003,
          "velocity": 0.6299212598425197
        },
        {
          "duration": 0.20863948333333227,
          "durationTicks": 227,
          "midi": 45,
          "name": "A2",
          "ticks": 33120,
          "time": 30.441144,
          "velocity": 0.6299212598425197
        },
        {
          "duration": 0.20863948333333227,
          "durationTicks": 227,
          "midi": 49,
          "name": "C#3",
          "ticks": 33360,
          "time": 30.661732,
          "velocity": 0.6299212598425197
        },
        {
          "duration": 0.41819808333333697,
          "durationTicks": 455,
          "midi": 38,
          "name": "D2",
          "ticks": 33600,
          "time": 30.88232,
          "velocity": 0.6299212598425197
        },
        {
          "duration": 0.4181980833333334,
          "durationTicks": 455,
          "midi": 38,
          "name": "D2",
          "ticks": 34080,
          "time": 31.323496000000002,
          "velocity": 0.6299212598425197
        },
        {
          "duration": 0.20863948333333227,
          "durationTicks": 227,
          "midi": 38,
          "name": "D2",
          "ticks": 34560,
          "time": 31.764672,
          "velocity": 0.6299212598425197
        },
        {
          "duration": 0.20863948333333227,
          "durationTicks": 227,
          "midi": 38,
          "name": "D2",
          "ticks": 34800,
          "time": 31.98526,
          "velocity": 0.6299212598425197
        },
        {
          "duration": 0.2086394833333287,
          "durationTicks": 227,
          "midi": 36,
          "name": "C2",
          "ticks": 35040,
          "time": 32.205848,
          "velocity": 0.6299212598425197
        },
        {
          "duration": 0.2086394833333287,
          "durationTicks": 227,
          "midi": 36,
          "name": "C2",
          "ticks": 35280,
          "time": 32.426436,
          "velocity": 0.6299212598425197
        },
        {
          "duration": 0.41819808333333697,
          "durationTicks": 455,
          "midi": 47,
          "name": "B2",
          "ticks": 35520,
          "time": 32.647024,
          "velocity": 0.6299212598425197
        },
        {
          "duration": 0.2086394833333287,
          "durationTicks": 227,
          "midi": 47,
          "name": "B2",
          "ticks": 36000,
          "time": 33.0882,
          "velocity": 0.6299212598425197
        },
        {
          "duration": 0.20863948333333582,
          "durationTicks": 227,
          "midi": 47,
          "name": "B2",
          "ticks": 36240,
          "time": 33.308788,
          "velocity": 0.6299212598425197
        },
        {
          "duration": 0.31341878333333284,
          "durationTicks": 341,
          "midi": 48,
          "name": "C3",
          "ticks": 36480,
          "time": 33.529376,
          "velocity": 0.6299212598425197
        },
        {
          "duration": 0.10386018333333169,
          "durationTicks": 113,
          "midi": 48,
          "name": "C3",
          "ticks": 36840,
          "time": 33.860258,
          "velocity": 0.6299212598425197
        },
        {
          "duration": 0.41819808333332986,
          "durationTicks": 455,
          "midi": 38,
          "name": "D2",
          "ticks": 37200,
          "time": 34.191140000000004,
          "velocity": 0.6299212598425197
        },
        {
          "duration": 0.2086394833333287,
          "durationTicks": 227,
          "midi": 38,
          "name": "D2",
          "ticks": 37680,
          "time": 34.632316,
          "velocity": 0.6299212598425197
        },
        {
          "duration": 0.2086394833333287,
          "durationTicks": 227,
          "midi": 38,
          "name": "D2",
          "ticks": 37920,
          "time": 34.852904,
          "velocity": 0.6299212598425197
        },
        {
          "duration": 0.2086394833333287,
          "durationTicks": 227,
          "midi": 38,
          "name": "D2",
          "ticks": 38160,
          "time": 35.073492,
          "velocity": 0.6299212598425197
        },
        {
          "duration": 0.2086394833333287,
          "durationTicks": 227,
          "midi": 40,
          "name": "E2",
          "ticks": 38400,
          "time": 35.29408,
          "velocity": 0.6299212598425197
        },
        {
          "duration": 0.20863948333333582,
          "durationTicks": 227,
          "midi": 42,
          "name": "F#2",
          "ticks": 38640,
          "time": 35.514668,
          "velocity": 0.6299212598425197
        },
        {
          "duration": 0.20863948333333582,
          "durationTicks": 227,
          "midi": 43,
          "name": "G2",
          "ticks": 38880,
          "time": 35.735256,
          "velocity": 0.6299212598425197
        },
        {
          "duration": 0.20863948333333582,
          "durationTicks": 227,
          "midi": 40,
          "name": "E2",
          "ticks": 39120,
          "time": 35.955844,
          "velocity": 0.6299212598425197
        },
        {
          "duration": 0.41819808333333697,
          "durationTicks": 455,
          "midi": 47,
          "name": "B2",
          "ticks": 39360,
          "time": 36.176432,
          "velocity": 0.6299212598425197
        },
        {
          "duration": 0.2086394833333287,
          "durationTicks": 227,
          "midi": 47,
          "name": "B2",
          "ticks": 39840,
          "time": 36.617608000000004,
          "velocity": 0.6299212598425197
        },
        {
          "duration": 0.2086394833333287,
          "durationTicks": 227,
          "midi": 47,
          "name": "B2",
          "ticks": 40080,
          "time": 36.838196,
          "velocity": 0.6299212598425197
        },
        {
          "duration": 0.31341878333332573,
          "durationTicks": 341,
          "midi": 48,
          "name": "C3",
          "ticks": 40320,
          "time": 37.058784,
          "velocity": 0.6299212598425197
        },
        {
          "duration": 0.1038601833333388,
          "durationTicks": 113,
          "midi": 48,
          "name": "C3",
          "ticks": 40680,
          "time": 37.389666,
          "velocity": 0.6299212598425197
        },
        {
          "duration": 0.41819808333333697,
          "durationTicks": 455,
          "midi": 50,
          "name": "D3",
          "ticks": 41040,
          "time": 37.720548,
          "velocity": 0.6299212598425197
        },
        {
          "duration": 0.20863948333333582,
          "durationTicks": 227,
          "midi": 38,
          "name": "D2",
          "ticks": 41520,
          "time": 38.161724,
          "velocity": 0.6299212598425197
        },
        {
          "duration": 0.20863948333333582,
          "durationTicks": 227,
          "midi": 50,
          "name": "D3",
          "ticks": 41760,
          "time": 38.382312,
          "velocity": 0.6299212598425197
        },
        {
          "duration": 0.20863948333333582,
          "durationTicks": 227,
          "midi": 38,
          "name": "D2",
          "ticks": 42000,
          "time": 38.6029,
          "velocity": 0.6299212598425197
        },
        {
          "duration": 0.20863948333333582,
          "durationTicks": 227,
          "midi": 50,
          "name": "D3",
          "ticks": 42240,
          "time": 38.823488,
          "velocity": 0.6299212598425197
        },
        {
          "duration": 0.2086394833333287,
          "durationTicks": 227,
          "midi": 50,
          "name": "D3",
          "ticks": 42480,
          "time": 39.044076000000004,
          "velocity": 0.6299212598425197
        },
        {
          "duration": 0.2086394833333287,
          "durationTicks": 227,
          "midi": 48,
          "name": "C3",
          "ticks": 42720,
          "time": 39.264664,
          "velocity": 0.6299212598425197
        },
        {
          "duration": 0.2086394833333287,
          "durationTicks": 227,
          "midi": 48,
          "name": "C3",
          "ticks": 42960,
          "time": 39.485252,
          "velocity": 0.6299212598425197
        },
        {
          "duration": 0.41819808333333697,
          "durationTicks": 455,
          "midi": 47,
          "name": "B2",
          "ticks": 43200,
          "time": 39.70584,
          "velocity": 0.6299212598425197
        },
        {
          "duration": 0.2086394833333287,
          "durationTicks": 227,
          "midi": 47,
          "name": "B2",
          "ticks": 43680,
          "time": 40.147016,
          "velocity": 0.6299212598425197
        },
        {
          "duration": 0.20863948333333582,
          "durationTicks": 227,
          "midi": 47,
          "name": "B2",
          "ticks": 43920,
          "time": 40.367604,
          "velocity": 0.6299212598425197
        },
        {
          "duration": 0.31341878333333284,
          "durationTicks": 341,
          "midi": 48,
          "name": "C3",
          "ticks": 44160,
          "time": 40.588192,
          "velocity": 0.6299212598425197
        },
        {
          "duration": 0.10386018333333169,
          "durationTicks": 113,
          "midi": 48,
          "name": "C3",
          "ticks": 44520,
          "time": 40.919074,
          "velocity": 0.6299212598425197
        },
        {
          "duration": 0.627756683333331,
          "durationTicks": 683,
          "midi": 50,
          "name": "D3",
          "ticks": 44880,
          "time": 41.249956000000005,
          "velocity": 0.6299212598425197
        },
        {
          "duration": 0.41819808333333697,
          "durationTicks": 455,
          "midi": 51,
          "name": "D#3",
          "ticks": 45600,
          "time": 41.91172,
          "velocity": 0.6299212598425197
        },
        {
          "duration": 0.2086394833333287,
          "durationTicks": 227,
          "midi": 52,
          "name": "E3",
          "ticks": 46080,
          "time": 42.352896,
          "velocity": 0.6299212598425197
        },
        {
          "duration": 0.20863948333333582,
          "durationTicks": 227,
          "midi": 47,
          "name": "B2",
          "ticks": 46320,
          "time": 42.573484,
          "velocity": 0.6299212598425197
        },
        {
          "duration": 0.20863948333333582,
          "durationTicks": 227,
          "midi": 52,
          "name": "E3",
          "ticks": 46560,
          "time": 42.794072,
          "velocity": 0.6299212598425197
        },
        {
          "duration": 0.20863948333333582,
          "durationTicks": 227,
          "midi": 53,
          "name": "F3",
          "ticks": 46800,
          "time": 43.01466,
          "velocity": 0.6299212598425197
        },
        {
          "duration": 0.20863948333333582,
          "durationTicks": 227,
          "midi": 53,
          "name": "F3",
          "ticks": 47040,
          "time": 43.235248,
          "velocity": 0.6299212598425197
        },
        {
          "duration": 0.20863948333333582,
          "durationTicks": 227,
          "midi": 48,
          "name": "C3",
          "ticks": 47280,
          "time": 43.455836,
          "velocity": 0.6299212598425197
        },
        {
          "duration": 0.2086394833333287,
          "durationTicks": 227,
          "midi": 53,
          "name": "F3",
          "ticks": 47520,
          "time": 43.676424000000004,
          "velocity": 0.6299212598425197
        },
        {
          "duration": 0.2086394833333287,
          "durationTicks": 227,
          "midi": 52,
          "name": "E3",
          "ticks": 47760,
          "time": 43.897012000000004,
          "velocity": 0.6299212598425197
        },
        {
          "duration": 0.2086394833333287,
          "durationTicks": 227,
          "midi": 48,
          "name": "C3",
          "ticks": 48240,
          "time": 44.338188,
          "velocity": 0.6299212598425197
        },
        {
          "duration": 0.41819808333333697,
          "durationTicks": 455,
          "midi": 38,
          "name": "D2",
          "ticks": 48720,
          "time": 44.779364,
          "velocity": 0.9921259842519685
        },
        {
          "duration": 0.20863948333333582,
          "durationTicks": 227,
          "midi": 50,
          "name": "D3",
          "ticks": 49200,
          "time": 45.22054,
          "velocity": 0.9921259842519685
        },
        {
          "duration": 0.20863948333333582,
          "durationTicks": 227,
          "midi": 38,
          "name": "D2",
          "ticks": 49440,
          "time": 45.441128,
          "velocity": 0.9921259842519685
        },
        {
          "duration": 0.20863948333333582,
          "durationTicks": 227,
          "midi": 50,
          "name": "D3",
          "ticks": 49680,
          "time": 45.661716,
          "velocity": 0.9921259842519685
        },
        {
          "duration": 0.2086394833333287,
          "durationTicks": 227,
          "midi": 50,
          "name": "D3",
          "ticks": 49920,
          "time": 45.882304000000005,
          "velocity": 0.9921259842519685
        },
        {
          "duration": 0.2086394833333287,
          "durationTicks": 227,
          "midi": 45,
          "name": "A2",
          "ticks": 50160,
          "time": 46.102892000000004,
          "velocity": 0.9921259842519685
        },
        {
          "duration": 0.2086394833333287,
          "durationTicks": 227,
          "midi": 50,
          "name": "D3",
          "ticks": 50400,
          "time": 46.32348,
          "velocity": 0.9921259842519685
        },
        {
          "duration": 0.41819808333333697,
          "durationTicks": 455,
          "midi": 52,
          "name": "E3",
          "ticks": 50640,
          "time": 46.544068,
          "velocity": 0.9921259842519685
        },
        {
          "duration": 0.2086394833333287,
          "durationTicks": 227,
          "midi": 52,
          "name": "E3",
          "ticks": 51120,
          "time": 46.985244,
          "velocity": 0.9921259842519685
        },
        {
          "duration": 0.2086394833333287,
          "durationTicks": 227,
          "midi": 52,
          "name": "E3",
          "ticks": 51360,
          "time": 47.205832,
          "velocity": 0.9921259842519685
        },
        {
          "duration": 0.20863948333333582,
          "durationTicks": 227,
          "midi": 52,
          "name": "E3",
          "ticks": 51600,
          "time": 47.42642,
          "velocity": 0.9921259842519685
        },
        {
          "duration": 0.20863948333333582,
          "durationTicks": 227,
          "midi": 52,
          "name": "E3",
          "ticks": 51840,
          "time": 47.647008,
          "velocity": 0.9921259842519685
        },
        {
          "duration": 0.41819808333332986,
          "durationTicks": 455,
          "midi": 48,
          "name": "C3",
          "ticks": 52800,
          "time": 48.529360000000004,
          "velocity": 0.9921259842519685
        },
        {
          "duration": 0.31341878333332573,
          "durationTicks": 341,
          "midi": 48,
          "name": "C3",
          "ticks": 53280,
          "time": 48.970536,
          "velocity": 0.9921259842519685
        },
        {
          "duration": 0.1038601833333388,
          "durationTicks": 113,
          "midi": 43,
          "name": "G2",
          "ticks": 53640,
          "time": 49.301418,
          "velocity": 0.9921259842519685
        },
        {
          "duration": 0.2086394833333287,
          "durationTicks": 227,
          "midi": 48,
          "name": "C3",
          "ticks": 53760,
          "time": 49.411712,
          "velocity": 0.9921259842519685
        },
        {
          "duration": 0.20863948333333582,
          "durationTicks": 227,
          "midi": 43,
          "name": "G2",
          "ticks": 54000,
          "time": 49.6323,
          "velocity": 0.9921259842519685
        },
        {
          "duration": 0.20863948333333582,
          "durationTicks": 227,
          "midi": 45,
          "name": "A2",
          "ticks": 54240,
          "time": 49.852888,
          "velocity": 0.9921259842519685
        },
        {
          "duration": 0.20863948333333582,
          "durationTicks": 227,
          "midi": 46,
          "name": "A#2",
          "ticks": 54480,
          "time": 50.073476,
          "velocity": 0.9921259842519685
        },
        {
          "duration": 0.20863948333333582,
          "durationTicks": 227,
          "midi": 47,
          "name": "B2",
          "ticks": 54720,
          "time": 50.294064,
          "velocity": 0.9921259842519685
        },
        {
          "duration": 0.41819808333333697,
          "durationTicks": 455,
          "midi": 47,
          "name": "B2",
          "ticks": 54960,
          "time": 50.514652,
          "velocity": 0.9921259842519685
        },
        {
          "duration": 0.41819808333332986,
          "durationTicks": 455,
          "midi": 40,
          "name": "E2",
          "ticks": 55440,
          "time": 50.955828000000004,
          "velocity": 0.9921259842519685
        },
        {
          "duration": 0.2086394833333287,
          "durationTicks": 227,
          "midi": 42,
          "name": "F#2",
          "ticks": 55920,
          "time": 51.397004,
          "velocity": 0.9921259842519685
        },
        {
          "duration": 0.2086394833333287,
          "durationTicks": 227,
          "midi": 43,
          "name": "G2",
          "ticks": 56160,
          "time": 51.617592,
          "velocity": 0.9921259842519685
        },
        {
          "duration": 0.2086394833333287,
          "durationTicks": 227,
          "midi": 40,
          "name": "E2",
          "ticks": 56400,
          "time": 51.83818,
          "velocity": 0.9921259842519685
        },
        {
          "duration": 0.41819808333333697,
          "durationTicks": 455,
          "midi": 48,
          "name": "C3",
          "ticks": 56640,
          "time": 52.058768,
          "velocity": 0.9921259842519685
        },
        {
          "duration": 0.31341878333333284,
          "durationTicks": 341,
          "midi": 48,
          "name": "C3",
          "ticks": 57120,
          "time": 52.499944,
          "velocity": 0.9921259842519685
        },
        {
          "duration": 0.10386018333333169,
          "durationTicks": 113,
          "midi": 43,
          "name": "G2",
          "ticks": 57480,
          "time": 52.830826,
          "velocity": 0.9921259842519685
        },
        {
          "duration": 0.20863948333333582,
          "durationTicks": 227,
          "midi": 48,
          "name": "C3",
          "ticks": 57600,
          "time": 52.94112,
          "velocity": 0.9921259842519685
        },
        {
          "duration": 0.2086394833333287,
          "durationTicks": 227,
          "midi": 43,
          "name": "G2",
          "ticks": 57840,
          "time": 53.161708000000004,
          "velocity": 0.9921259842519685
        },
        {
          "duration": 0.2086394833333287,
          "durationTicks": 227,
          "midi": 45,
          "name": "A2",
          "ticks": 58080,
          "time": 53.382296000000004,
          "velocity": 0.9921259842519685
        },
        {
          "duration": 0.2086394833333287,
          "durationTicks": 227,
          "midi": 48,
          "name": "C3",
          "ticks": 58320,
          "time": 53.602884,
          "velocity": 0.9921259842519685
        },
        {
          "duration": 0.2086394833333287,
          "durationTicks": 227,
          "midi": 50,
          "name": "D3",
          "ticks": 58560,
          "time": 53.823472,
          "velocity": 0.9921259842519685
        },
        {
          "duration": 0.2086394833333287,
          "durationTicks": 227,
          "midi": 41,
          "name": "F2",
          "ticks": 58800,
          "time": 54.04406,
          "velocity": 0.9921259842519685
        },
        {
          "duration": 0.2086394833333287,
          "durationTicks": 227,
          "midi": 42,
          "name": "F#2",
          "ticks": 59040,
          "time": 54.264648,
          "velocity": 0.9921259842519685
        },
        {
          "duration": 0.41819808333333697,
          "durationTicks": 455,
          "midi": 43,
          "name": "G2",
          "ticks": 59280,
          "time": 54.485236,
          "velocity": 0.9921259842519685
        },
        {
          "duration": 0.20863948333333582,
          "durationTicks": 227,
          "midi": 45,
          "name": "A2",
          "ticks": 59760,
          "time": 54.926412,
          "velocity": 0.9921259842519685
        },
        {
          "duration": 0.20863948333333582,
          "durationTicks": 227,
          "midi": 47,
          "name": "B2",
          "ticks": 60000,
          "time": 55.147,
          "velocity": 0.9921259842519685
        },
        {
          "duration": 0.2086394833333287,
          "durationTicks": 227,
          "midi": 43,
          "name": "G2",
          "ticks": 60240,
          "time": 55.367588000000005,
          "velocity": 0.9921259842519685
        },
        {
          "duration": 0.41819808333332986,
          "durationTicks": 455,
          "midi": 48,
          "name": "C3",
          "ticks": 60480,
          "time": 55.588176000000004,
          "velocity": 0.9921259842519685
        },
        {
          "duration": 0.31341878333332573,
          "durationTicks": 341,
          "midi": 48,
          "name": "C3",
          "ticks": 60960,
          "time": 56.029352,
          "velocity": 0.9921259842519685
        },
        {
          "duration": 0.1038601833333388,
          "durationTicks": 113,
          "midi": 43,
          "name": "G2",
          "ticks": 61320,
          "time": 56.360234,
          "velocity": 0.9921259842519685
        },
        {
          "duration": 0.2086394833333287,
          "durationTicks": 227,
          "midi": 48,
          "name": "C3",
          "ticks": 61440,
          "time": 56.470528,
          "velocity": 0.9921259842519685
        },
        {
          "duration": 0.20863948333333582,
          "durationTicks": 227,
          "midi": 43,
          "name": "G2",
          "ticks": 61680,
          "time": 56.691116,
          "velocity": 0.9921259842519685
        },
        {
          "duration": 0.20863948333333582,
          "durationTicks": 227,
          "midi": 50,
          "name": "D3",
          "ticks": 61920,
          "time": 56.911704,
          "velocity": 0.9921259842519685
        },
        {
          "duration": 0.20863948333333582,
          "durationTicks": 227,
          "midi": 48,
          "name": "C3",
          "ticks": 62160,
          "time": 57.132292,
          "velocity": 0.9921259842519685
        },
        {
          "duration": 0.20863948333333582,
          "durationTicks": 227,
          "midi": 47,
          "name": "B2",
          "ticks": 62400,
          "time": 57.35288,
          "velocity": 0.9921259842519685
        },
        {
          "duration": 0.20863948333333582,
          "durationTicks": 227,
          "midi": 47,
          "name": "B2",
          "ticks": 62640,
          "time": 57.573468,
          "velocity": 0.9921259842519685
        },
        {
          "duration": 0.2086394833333287,
          "durationTicks": 227,
          "midi": 50,
          "name": "D3",
          "ticks": 62880,
          "time": 57.794056000000005,
          "velocity": 0.9921259842519685
        },
        {
          "duration": 0.41819808333332986,
          "durationTicks": 455,
          "midi": 52,
          "name": "E3",
          "ticks": 63120,
          "time": 58.014644000000004,
          "velocity": 0.9921259842519685
        },
        {
          "duration": 0.2086394833333287,
          "durationTicks": 227,
          "midi": 50,
          "name": "D3",
          "ticks": 63600,
          "time": 58.45582,
          "velocity": 0.9921259842519685
        },
        {
          "duration": 0.1038601833333388,
          "durationTicks": 113,
          "midi": 47,
          "name": "B2",
          "ticks": 63840,
          "time": 58.676408,
          "velocity": 0.9921259842519685
        },
        {
          "duration": 0.1038601833333459,
          "durationTicks": 113,
          "midi": 45,
          "name": "A2",
          "ticks": 63960,
          "time": 58.786702,
          "velocity": 0.9921259842519685
        },
        {
          "duration": 0.2086394833333287,
          "durationTicks": 227,
          "midi": 43,
          "name": "G2",
          "ticks": 64080,
          "time": 58.896996,
          "velocity": 0.9921259842519685
        },
        {
          "duration": 1.6755496833333368,
          "durationTicks": 1823,
          "midi": 45,
          "name": "A2",
          "ticks": 64320,
          "time": 59.117584,
          "velocity": 0.9921259842519685
        },
        {
          "duration": 0.8373152833333393,
          "durationTicks": 911,
          "midi": 48,
          "name": "C3",
          "ticks": 66240,
          "time": 60.882288,
          "velocity": 0.9921259842519685
        },
        {
          "duration": 0.6277566833333381,
          "durationTicks": 683,
          "midi": 50,
          "name": "D3",
          "ticks": 67200,
          "time": 61.76464,
          "velocity": 0.9921259842519685
        },
        {
          "duration": 0.8373152833333322,
          "durationTicks": 911,
          "midi": 43,
          "name": "G2",
          "ticks": 67920,
          "time": 62.426404000000005,
          "velocity": 0.9921259842519685
        },
        {
          "duration": 0.41819808333332986,
          "durationTicks": 455,
          "midi": 48,
          "name": "C3",
          "ticks": 68880,
          "time": 63.308756,
          "velocity": 0.9921259842519685
        },
        {
          "duration": 0.20863948333333582,
          "durationTicks": 227,
          "midi": 45,
          "name": "A2",
          "ticks": 69360,
          "time": 63.749932,
          "velocity": 0.9921259842519685
        },
        {
          "duration": 0.20863948333333582,
          "durationTicks": 227,
          "midi": 48,
          "name": "C3",
          "ticks": 69600,
          "time": 63.97052,
          "velocity": 0.9921259842519685
        },
        {
          "duration": 0.41819808333333697,
          "durationTicks": 455,
          "midi": 54,
          "name": "F#3",
          "ticks": 69840,
          "time": 64.191108,
          "velocity": 0.9921259842519685
        },
        {
          "duration": 0.2086394833333287,
          "durationTicks": 227,
          "midi": 45,
          "name": "A2",
          "ticks": 70320,
          "time": 64.632284,
          "velocity": 0.9921259842519685
        },
        {
          "duration": 0.2086394833333287,
          "durationTicks": 227,
          "midi": 46,
          "name": "A#2",
          "ticks": 70560,
          "time": 64.852872,
          "velocity": 0.9921259842519685
        },
        {
          "duration": 0.41819808333333697,
          "durationTicks": 455,
          "midi": 47,
          "name": "B2",
          "ticks": 70800,
          "time": 65.07346,
          "velocity": 0.9921259842519685
        },
        {
          "duration": 0.2086394833333287,
          "durationTicks": 227,
          "midi": 40,
          "name": "E2",
          "ticks": 72000,
          "time": 66.1764,
          "velocity": 0.7559055118110236
        },
        {
          "duration": 0.2086394833333287,
          "durationTicks": 227,
          "midi": 52,
          "name": "E3",
          "ticks": 72240,
          "time": 66.39698800000001,
          "velocity": 0.7559055118110236
        },
        {
          "duration": 0.2086394833333287,
          "durationTicks": 227,
          "midi": 42,
          "name": "F#2",
          "ticks": 72480,
          "time": 66.617576,
          "velocity": 0.7559055118110236
        },
        {
          "duration": 0.2086394833333287,
          "durationTicks": 227,
          "midi": 54,
          "name": "F#3",
          "ticks": 72720,
          "time": 66.838164,
          "velocity": 0.7559055118110236
        },
        {
          "duration": 0.2086394833333287,
          "durationTicks": 227,
          "midi": 43,
          "name": "G2",
          "ticks": 72960,
          "time": 67.058752,
          "velocity": 0.7559055118110236
        },
        {
          "duration": 0.1038601833333388,
          "durationTicks": 113,
          "midi": 40,
          "name": "E2",
          "ticks": 73200,
          "time": 67.27934,
          "velocity": 0.7559055118110236
        },
        {
          "duration": 0.2086394833333287,
          "durationTicks": 227,
          "midi": 43,
          "name": "G2",
          "ticks": 73320,
          "time": 67.389634,
          "velocity": 0.7559055118110236
        },
        {
          "duration": 0.1038601833333388,
          "durationTicks": 113,
          "midi": 40,
          "name": "E2",
          "ticks": 73560,
          "time": 67.61022200000001,
          "velocity": 0.7559055118110236
        },
        {
          "duration": 0.2086394833333287,
          "durationTicks": 227,
          "midi": 44,
          "name": "G#2",
          "ticks": 73680,
          "time": 67.720516,
          "velocity": 0.7559055118110236
        },
        {
          "duration": 0.41819808333333697,
          "durationTicks": 455,
          "midi": 45,
          "name": "A2",
          "ticks": 73920,
          "time": 67.941104,
          "velocity": 0.7559055118110236
        },
        {
          "duration": 0.2086394833333287,
          "durationTicks": 227,
          "midi": 40,
          "name": "E2",
          "ticks": 74640,
          "time": 68.602868,
          "velocity": 0.7559055118110236
        },
        {
          "duration": 0.2086394833333287,
          "durationTicks": 227,
          "midi": 45,
          "name": "A2",
          "ticks": 74880,
          "time": 68.82345600000001,
          "velocity": 0.7559055118110236
        },
        {
          "duration": 0.1038601833333388,
          "durationTicks": 113,
          "midi": 40,
          "name": "E2",
          "ticks": 75120,
          "time": 69.044044,
          "velocity": 0.7559055118110236
        },
        {
          "duration": 0.20863948333334292,
          "durationTicks": 227,
          "midi": 45,
          "name": "A2",
          "ticks": 75240,
          "time": 69.154338,
          "velocity": 0.7559055118110236
        },
        {
          "duration": 0.1038601833333388,
          "durationTicks": 113,
          "midi": 40,
          "name": "E2",
          "ticks": 75480,
          "time": 69.374926,
          "velocity": 0.7559055118110236
        },
        {
          "duration": 0.2086394833333287,
          "durationTicks": 227,
          "midi": 43,
          "name": "G2",
          "ticks": 75600,
          "time": 69.48522,
          "velocity": 0.7559055118110236
        },
        {
          "duration": 0.2086394833333287,
          "durationTicks": 227,
          "midi": 40,
          "name": "E2",
          "ticks": 75840,
          "time": 69.705808,
          "velocity": 0.7559055118110236
        },
        {
          "duration": 0.20863948333334292,
          "durationTicks": 227,
          "midi": 52,
          "name": "E3",
          "ticks": 76080,
          "time": 69.926396,
          "velocity": 0.7559055118110236
        },
        {
          "duration": 0.2086394833333287,
          "durationTicks": 227,
          "midi": 42,
          "name": "F#2",
          "ticks": 76320,
          "time": 70.146984,
          "velocity": 0.7559055118110236
        },
        {
          "duration": 0.20863948333334292,
          "durationTicks": 227,
          "midi": 54,
          "name": "F#3",
          "ticks": 76560,
          "time": 70.367572,
          "velocity": 0.7559055118110236
        },
        {
          "duration": 0.2086394833333287,
          "durationTicks": 227,
          "midi": 43,
          "name": "G2",
          "ticks": 76800,
          "time": 70.58816,
          "velocity": 0.7559055118110236
        },
        {
          "duration": 0.1038601833333388,
          "durationTicks": 113,
          "midi": 40,
          "name": "E2",
          "ticks": 77040,
          "time": 70.80874800000001,
          "velocity": 0.7559055118110236
        },
        {
          "duration": 0.2086394833333287,
          "durationTicks": 227,
          "midi": 43,
          "name": "G2",
          "ticks": 77160,
          "time": 70.919042,
          "velocity": 0.7559055118110236
        },
        {
          "duration": 0.1038601833333388,
          "durationTicks": 113,
          "midi": 40,
          "name": "E2",
          "ticks": 77400,
          "time": 71.13963,
          "velocity": 0.7559055118110236
        },
        {
          "duration": 0.2086394833333287,
          "durationTicks": 227,
          "midi": 44,
          "name": "G#2",
          "ticks": 77520,
          "time": 71.24992400000001,
          "velocity": 0.7559055118110236
        },
        {
          "duration": 0.41819808333333697,
          "durationTicks": 455,
          "midi": 45,
          "name": "A2",
          "ticks": 77760,
          "time": 71.470512,
          "velocity": 0.7559055118110236
        },
        {
          "duration": 0.2086394833333287,
          "durationTicks": 227,
          "midi": 40,
          "name": "E2",
          "ticks": 78480,
          "time": 72.132276,
          "velocity": 0.7559055118110236
        },
        {
          "duration": 0.20863948333334292,
          "durationTicks": 227,
          "midi": 47,
          "name": "B2",
          "ticks": 78720,
          "time": 72.352864,
          "velocity": 0.7559055118110236
        },
        {
          "duration": 0.1038601833333388,
          "durationTicks": 113,
          "midi": 45,
          "name": "A2",
          "ticks": 78960,
          "time": 72.573452,
          "velocity": 0.7559055118110236
        },
        {
          "duration": 0.2086394833333287,
          "durationTicks": 227,
          "midi": 47,
          "name": "B2",
          "ticks": 79080,
          "time": 72.683746,
          "velocity": 0.7559055118110236
        },
        {
          "duration": 0.1038601833333388,
          "durationTicks": 113,
          "midi": 45,
          "name": "A2",
          "ticks": 79320,
          "time": 72.904334,
          "velocity": 0.7559055118110236
        },
        {
          "duration": 0.2086394833333287,
          "durationTicks": 227,
          "midi": 50,
          "name": "D3",
          "ticks": 79440,
          "time": 73.014628,
          "velocity": 0.7559055118110236
        },
        {
          "duration": 0.2086394833333287,
          "durationTicks": 227,
          "midi": 40,
          "name": "E2",
          "ticks": 79680,
          "time": 73.23521600000001,
          "velocity": 0.7559055118110236
        },
        {
          "duration": 0.2086394833333287,
          "durationTicks": 227,
          "midi": 52,
          "name": "E3",
          "ticks": 79920,
          "time": 73.455804,
          "velocity": 0.7559055118110236
        },
        {
          "duration": 0.2086394833333287,
          "durationTicks": 227,
          "midi": 42,
          "name": "F#2",
          "ticks": 80160,
          "time": 73.676392,
          "velocity": 0.7559055118110236
        },
        {
          "duration": 0.2086394833333287,
          "durationTicks": 227,
          "midi": 54,
          "name": "F#3",
          "ticks": 80400,
          "time": 73.89698,
          "velocity": 0.7559055118110236
        },
        {
          "duration": 0.2086394833333287,
          "durationTicks": 227,
          "midi": 43,
          "name": "G2",
          "ticks": 80640,
          "time": 74.117568,
          "velocity": 0.7559055118110236
        },
        {
          "duration": 0.1038601833333388,
          "durationTicks": 113,
          "midi": 40,
          "name": "E2",
          "ticks": 80880,
          "time": 74.338156,
          "velocity": 0.7559055118110236
        },
        {
          "duration": 0.2086394833333287,
          "durationTicks": 227,
          "midi": 43,
          "name": "G2",
          "ticks": 81000,
          "time": 74.44845000000001,
          "velocity": 0.7559055118110236
        },
        {
          "duration": 0.1038601833333388,
          "durationTicks": 113,
          "midi": 40,
          "name": "E2",
          "ticks": 81240,
          "time": 74.669038,
          "velocity": 0.7559055118110236
        },
        {
          "duration": 0.20863948333334292,
          "durationTicks": 227,
          "midi": 44,
          "name": "G#2",
          "ticks": 81360,
          "time": 74.779332,
          "velocity": 0.7559055118110236
        },
        {
          "duration": 0.41819808333332276,
          "durationTicks": 455,
          "midi": 45,
          "name": "A2",
          "ticks": 81600,
          "time": 74.99992,
          "velocity": 0.7559055118110236
        },
        {
          "duration": 0.2086394833333287,
          "durationTicks": 227,
          "midi": 40,
          "name": "E2",
          "ticks": 82320,
          "time": 75.66168400000001,
          "velocity": 0.7559055118110236
        },
        {
          "duration": 0.2086394833333287,
          "durationTicks": 227,
          "midi": 45,
          "name": "A2",
          "ticks": 82560,
          "time": 75.882272,
          "velocity": 0.7559055118110236
        },
        {
          "duration": 0.1038601833333388,
          "durationTicks": 113,
          "midi": 40,
          "name": "E2",
          "ticks": 82800,
          "time": 76.10286,
          "velocity": 0.7559055118110236
        },
        {
          "duration": 0.2086394833333287,
          "durationTicks": 227,
          "midi": 45,
          "name": "A2",
          "ticks": 82920,
          "time": 76.213154,
          "velocity": 0.7559055118110236
        },
        {
          "duration": 0.103860183333353,
          "durationTicks": 113,
          "midi": 40,
          "name": "E2",
          "ticks": 83160,
          "time": 76.433742,
          "velocity": 0.7559055118110236
        },
        {
          "duration": 0.8373152833333393,
          "durationTicks": 911,
          "midi": 43,
          "name": "G2",
          "ticks": 83280,
          "time": 76.544036,
          "velocity": 0.7559055118110236
        },
        {
          "duration": 0.41819808333332276,
          "durationTicks": 455,
          "midi": 48,
          "name": "C3",
          "ticks": 84240,
          "time": 77.426388,
          "velocity": 0.7559055118110236
        },
        {
          "duration": 0.2086394833333287,
          "durationTicks": 227,
          "midi": 45,
          "name": "A2",
          "ticks": 84720,
          "time": 77.867564,
          "velocity": 0.7559055118110236
        },
        {
          "duration": 0.2086394833333287,
          "durationTicks": 227,
          "midi": 48,
          "name": "C3",
          "ticks": 84960,
          "time": 78.08815200000001,
          "velocity": 0.7559055118110236
        },
        {
          "duration": 0.41819808333333697,
          "durationTicks": 455,
          "midi": 42,
          "name": "F#2",
          "ticks": 85200,
          "time": 78.30874,
          "velocity": 0.7559055118110236
        },
        {
          "duration": 0.2086394833333287,
          "durationTicks": 227,
          "midi": 45,
          "name": "A2",
          "ticks": 85680,
          "time": 78.749916,
          "velocity": 0.7559055118110236
        },
        {
          "duration": 0.2086394833333287,
          "durationTicks": 227,
          "midi": 46,
          "name": "A#2",
          "ticks": 85920,
          "time": 78.970504,
          "velocity": 0.7559055118110236
        },
        {
          "duration": 0.41819808333333697,
          "durationTicks": 455,
          "midi": 47,
          "name": "B2",
          "ticks": 86160,
          "time": 79.191092,
          "velocity": 0.7559055118110236
        },
        {
          "duration": 0.41819808333333697,
          "durationTicks": 455,
          "midi": 45,
          "name": "A2",
          "ticks": 89280,
          "time": 82.058736,
          "velocity": 0.6299212598425197
        },
        {
          "duration": 0.2086394833333287,
          "durationTicks": 227,
          "midi": 40,
          "name": "E2",
          "ticks": 90000,
          "time": 82.7205,
          "velocity": 0.6299212598425197
        },
        {
          "duration": 0.2086394833333287,
          "durationTicks": 227,
          "midi": 45,
          "name": "A2",
          "ticks": 90240,
          "time": 82.94108800000001,
          "velocity": 0.6299212598425197
        },
        {
          "duration": 0.1038601833333388,
          "durationTicks": 113,
          "midi": 40,
          "name": "E2",
          "ticks": 90480,
          "time": 83.161676,
          "velocity": 0.6299212598425197
        },
        {
          "duration": 0.20863948333334292,
          "durationTicks": 227,
          "midi": 45,
          "name": "A2",
          "ticks": 90600,
          "time": 83.27197,
          "velocity": 0.6299212598425197
        },
        {
          "duration": 0.1038601833333388,
          "durationTicks": 113,
          "midi": 40,
          "name": "E2",
          "ticks": 90840,
          "time": 83.492558,
          "velocity": 0.6299212598425197
        },
        {
          "duration": 0.2086394833333287,
          "durationTicks": 227,
          "midi": 43,
          "name": "G2",
          "ticks": 90960,
          "time": 83.602852,
          "velocity": 0.6299212598425197
        },
        {
          "duration": 0.2086394833333287,
          "durationTicks": 227,
          "midi": 40,
          "name": "E2",
          "ticks": 91200,
          "time": 83.82344,
          "velocity": 0.6299212598425197
        },
        {
          "duration": 0.20863948333334292,
          "durationTicks": 227,
          "midi": 52,
          "name": "E3",
          "ticks": 91440,
          "time": 84.044028,
          "velocity": 0.6299212598425197
        },
        {
          "duration": 0.2086394833333287,
          "durationTicks": 227,
          "midi": 42,
          "name": "F#2",
          "ticks": 91680,
          "time": 84.264616,
          "velocity": 0.6299212598425197
        },
        {
          "duration": 0.20863948333334292,
          "durationTicks": 227,
          "midi": 54,
          "name": "F#3",
          "ticks": 91920,
          "time": 84.485204,
          "velocity": 0.6299212598425197
        },
        {
          "duration": 0.2086394833333287,
          "durationTicks": 227,
          "midi": 43,
          "name": "G2",
          "ticks": 92160,
          "time": 84.705792,
          "velocity": 0.6299212598425197
        },
        {
          "duration": 0.1038601833333388,
          "durationTicks": 113,
          "midi": 40,
          "name": "E2",
          "ticks": 92400,
          "time": 84.92638000000001,
          "velocity": 0.6299212598425197
        },
        {
          "duration": 0.2086394833333287,
          "durationTicks": 227,
          "midi": 43,
          "name": "G2",
          "ticks": 92520,
          "time": 85.036674,
          "velocity": 0.6299212598425197
        },
        {
          "duration": 0.1038601833333388,
          "durationTicks": 113,
          "midi": 40,
          "name": "E2",
          "ticks": 92760,
          "time": 85.257262,
          "velocity": 0.6299212598425197
        },
        {
          "duration": 0.2086394833333287,
          "durationTicks": 227,
          "midi": 44,
          "name": "G#2",
          "ticks": 92880,
          "time": 85.36755600000001,
          "velocity": 0.6299212598425197
        },
        {
          "duration": 0.41819808333333697,
          "durationTicks": 455,
          "midi": 45,
          "name": "A2",
          "ticks": 93120,
          "time": 85.588144,
          "velocity": 0.6299212598425197
        },
        {
          "duration": 0.2086394833333287,
          "durationTicks": 227,
          "midi": 46,
          "name": "A#2",
          "ticks": 93840,
          "time": 86.249908,
          "velocity": 0.6299212598425197
        },
        {
          "duration": 0.20863948333334292,
          "durationTicks": 227,
          "midi": 47,
          "name": "B2",
          "ticks": 94080,
          "time": 86.470496,
          "velocity": 0.6299212598425197
        },
        {
          "duration": 0.2086394833333287,
          "durationTicks": 227,
          "midi": 48,
          "name": "C3",
          "ticks": 94320,
          "time": 86.691084,
          "velocity": 0.6299212598425197
        },
        {
          "duration": 0.20863948333334292,
          "durationTicks": 227,
          "midi": 49,
          "name": "C#3",
          "ticks": 94560,
          "time": 86.911672,
          "velocity": 0.6299212598425197
        },
        {
          "duration": 0.2086394833333287,
          "durationTicks": 227,
          "midi": 51,
          "name": "D#3",
          "ticks": 94800,
          "time": 87.13226,
          "velocity": 0.6299212598425197
        },
        {
          "duration": 0.627756683333331,
          "durationTicks": 683,
          "midi": 52,
          "name": "E3",
          "ticks": 95040,
          "time": 87.35284800000001,
          "velocity": 0.6299212598425197
        },
        {
          "duration": 0.41819808333333697,
          "durationTicks": 455,
          "midi": 50,
          "name": "D3",
          "ticks": 95760,
          "time": 88.014612,
          "velocity": 0.6299212598425197
        },
        {
          "duration": 0.20863948333334292,
          "durationTicks": 227,
          "midi": 43,
          "name": "G2",
          "ticks": 96240,
          "time": 88.455788,
          "velocity": 0.6299212598425197
        },
        {
          "duration": 0.2086394833333287,
          "durationTicks": 227,
          "midi": 47,
          "name": "B2",
          "ticks": 96480,
          "time": 88.676376,
          "velocity": 0.6299212598425197
        },
        {
          "duration": 0.20863948333334292,
          "durationTicks": 227,
          "midi": 50,
          "name": "D3",
          "ticks": 96720,
          "time": 88.896964,
          "velocity": 0.6299212598425197
        },
        {
          "duration": 0.6277566833333452,
          "durationTicks": 683,
          "midi": 48,
          "name": "C3",
          "ticks": 96960,
          "time": 89.117552,
          "velocity": 0.6299212598425197
        },
        {
          "duration": 0.41819808333332276,
          "durationTicks": 455,
          "midi": 43,
          "name": "G2",
          "ticks": 97680,
          "time": 89.77931600000001,
          "velocity": 0.6299212598425197
        },
        {
          "duration": 0.2086394833333287,
          "durationTicks": 227,
          "midi": 43,
          "name": "G2",
          "ticks": 98160,
          "time": 90.22049200000001,
          "velocity": 0.6299212598425197
        },
        {
          "duration": 0.2086394833333287,
          "durationTicks": 227,
          "midi": 43,
          "name": "G2",
          "ticks": 98400,
          "time": 90.44108,
          "velocity": 0.6299212598425197
        },
        {
          "duration": 0.2086394833333287,
          "durationTicks": 227,
          "midi": 43,
          "name": "G2",
          "ticks": 98640,
          "time": 90.661668,
          "velocity": 0.6299212598425197
        },
        {
          "duration": 0.41819808333333697,
          "durationTicks": 455,
          "midi": 49,
          "name": "C#3",
          "ticks": 98880,
          "time": 90.882256,
          "velocity": 0.6299212598425197
        },
        {
          "duration": 0.41819808333333697,
          "durationTicks": 455,
          "midi": 49,
          "name": "C#3",
          "ticks": 99360,
          "time": 91.323432,
          "velocity": 0.6299212598425197
        },
        {
          "duration": 0.41819808333332276,
          "durationTicks": 455,
          "midi": 49,
          "name": "C#3",
          "ticks": 99840,
          "time": 91.76460800000001,
          "velocity": 0.6299212598425197
        },
        {
          "duration": 0.2086394833333287,
          "durationTicks": 227,
          "midi": 45,
          "name": "A2",
          "ticks": 100320,
          "time": 92.20578400000001,
          "velocity": 0.6299212598425197
        },
        {
          "duration": 0.2086394833333287,
          "durationTicks": 227,
          "midi": 49,
          "name": "C#3",
          "ticks": 100560,
          "time": 92.426372,
          "velocity": 0.6299212598425197
        },
        {
          "duration": 0.41819808333332276,
          "durationTicks": 455,
          "midi": 38,
          "name": "D2",
          "ticks": 100800,
          "time": 92.64696,
          "velocity": 0.6299212598425197
        },
        {
          "duration": 0.41819808333332276,
          "durationTicks": 455,
          "midi": 38,
          "name": "D2",
          "ticks": 101280,
          "time": 93.088136,
          "velocity": 0.6299212598425197
        },
        {
          "duration": 0.2086394833333287,
          "durationTicks": 227,
          "midi": 38,
          "name": "D2",
          "ticks": 101760,
          "time": 93.529312,
          "velocity": 0.6299212598425197
        },
        {
          "duration": 0.20863948333334292,
          "durationTicks": 227,
          "midi": 38,
          "name": "D2",
          "ticks": 102000,
          "time": 93.7499,
          "velocity": 0.6299212598425197
        },
        {
          "duration": 0.2086394833333287,
          "durationTicks": 227,
          "midi": 36,
          "name": "C2",
          "ticks": 102240,
          "time": 93.970488,
          "velocity": 0.6299212598425197
        },
        {
          "duration": 0.2086394833333287,
          "durationTicks": 227,
          "midi": 36,
          "name": "C2",
          "ticks": 102480,
          "time": 94.19107600000001,
          "velocity": 0.6299212598425197
        },
        {
          "duration": 0.41819808333333697,
          "durationTicks": 455,
          "midi": 47,
          "name": "B2",
          "ticks": 102720,
          "time": 94.411664,
          "velocity": 0.6299212598425197
        },
        {
          "duration": 0.2086394833333287,
          "durationTicks": 227,
          "midi": 47,
          "name": "B2",
          "ticks": 103200,
          "time": 94.85284,
          "velocity": 0.6299212598425197
        },
        {
          "duration": 0.2086394833333287,
          "durationTicks": 227,
          "midi": 47,
          "name": "B2",
          "ticks": 103440,
          "time": 95.073428,
          "velocity": 0.6299212598425197
        },
        {
          "duration": 0.31341878333334705,
          "durationTicks": 341,
          "midi": 48,
          "name": "C3",
          "ticks": 103680,
          "time": 95.294016,
          "velocity": 0.6299212598425197
        },
        {
          "duration": 0.1038601833333388,
          "durationTicks": 113,
          "midi": 48,
          "name": "C3",
          "ticks": 104040,
          "time": 95.624898,
          "velocity": 0.6299212598425197
        },
        {
          "duration": 0.41819808333332276,
          "durationTicks": 455,
          "midi": 38,
          "name": "D2",
          "ticks": 104400,
          "time": 95.95578,
          "velocity": 0.6299212598425197
        },
        {
          "duration": 0.2086394833333287,
          "durationTicks": 227,
          "midi": 38,
          "name": "D2",
          "ticks": 104880,
          "time": 96.396956,
          "velocity": 0.6299212598425197
        },
        {
          "duration": 0.2086394833333287,
          "durationTicks": 227,
          "midi": 38,
          "name": "D2",
          "ticks": 105120,
          "time": 96.61754400000001,
          "velocity": 0.6299212598425197
        },
        {
          "duration": 0.2086394833333287,
          "durationTicks": 227,
          "midi": 38,
          "name": "D2",
          "ticks": 105360,
          "time": 96.838132,
          "velocity": 0.6299212598425197
        },
        {
          "duration": 0.2086394833333287,
          "durationTicks": 227,
          "midi": 40,
          "name": "E2",
          "ticks": 105600,
          "time": 97.05872000000001,
          "velocity": 0.6299212598425197
        },
        {
          "duration": 0.2086394833333287,
          "durationTicks": 227,
          "midi": 42,
          "name": "F#2",
          "ticks": 105840,
          "time": 97.279308,
          "velocity": 0.6299212598425197
        },
        {
          "duration": 0.2086394833333287,
          "durationTicks": 227,
          "midi": 43,
          "name": "G2",
          "ticks": 106080,
          "time": 97.499896,
          "velocity": 0.6299212598425197
        },
        {
          "duration": 0.2086394833333287,
          "durationTicks": 227,
          "midi": 40,
          "name": "E2",
          "ticks": 106320,
          "time": 97.720484,
          "velocity": 0.6299212598425197
        },
        {
          "duration": 0.41819808333332276,
          "durationTicks": 455,
          "midi": 47,
          "name": "B2",
          "ticks": 106560,
          "time": 97.941072,
          "velocity": 0.6299212598425197
        },
        {
          "duration": 0.2086394833333287,
          "durationTicks": 227,
          "midi": 47,
          "name": "B2",
          "ticks": 107040,
          "time": 98.382248,
          "velocity": 0.6299212598425197
        },
        {
          "duration": 0.20863948333334292,
          "durationTicks": 227,
          "midi": 47,
          "name": "B2",
          "ticks": 107280,
          "time": 98.602836,
          "velocity": 0.6299212598425197
        },
        {
          "duration": 0.31341878333333284,
          "durationTicks": 341,
          "midi": 48,
          "name": "C3",
          "ticks": 107520,
          "time": 98.823424,
          "velocity": 0.6299212598425197
        },
        {
          "duration": 0.1038601833333388,
          "durationTicks": 113,
          "midi": 48,
          "name": "C3",
          "ticks": 107880,
          "time": 99.154306,
          "velocity": 0.6299212598425197
        },
        {
          "duration": 0.41819808333332276,
          "durationTicks": 455,
          "midi": 50,
          "name": "D3",
          "ticks": 108240,
          "time": 99.48518800000001,
          "velocity": 0.6299212598425197
        },
        {
          "duration": 0.2086394833333287,
          "durationTicks": 227,
          "midi": 38,
          "name": "D2",
          "ticks": 108720,
          "time": 99.926364,
          "velocity": 0.6299212598425197
        },
        {
          "duration": 0.2086394833333287,
          "durationTicks": 227,
          "midi": 50,
          "name": "D3",
          "ticks": 108960,
          "time": 100.146952,
          "velocity": 0.6299212598425197
        },
        {
          "duration": 0.2086394833333287,
          "durationTicks": 227,
          "midi": 38,
          "name": "D2",
          "ticks": 109200,
          "time": 100.36754,
          "velocity": 0.6299212598425197
        },
        {
          "duration": 0.20863948333334292,
          "durationTicks": 227,
          "midi": 50,
          "name": "D3",
          "ticks": 109440,
          "time": 100.588128,
          "velocity": 0.6299212598425197
        },
        {
          "duration": 0.2086394833333287,
          "durationTicks": 227,
          "midi": 50,
          "name": "D3",
          "ticks": 109680,
          "time": 100.808716,
          "velocity": 0.6299212598425197
        },
        {
          "duration": 0.20863948333334292,
          "durationTicks": 227,
          "midi": 48,
          "name": "C3",
          "ticks": 109920,
          "time": 101.029304,
          "velocity": 0.6299212598425197
        },
        {
          "duration": 0.2086394833333287,
          "durationTicks": 227,
          "midi": 48,
          "name": "C3",
          "ticks": 110160,
          "time": 101.249892,
          "velocity": 0.6299212598425197
        },
        {
          "duration": 0.41819808333332276,
          "durationTicks": 455,
          "midi": 47,
          "name": "B2",
          "ticks": 110400,
          "time": 101.47048000000001,
          "velocity": 0.6299212598425197
        },
        {
          "duration": 0.2086394833333287,
          "durationTicks": 227,
          "midi": 47,
          "name": "B2",
          "ticks": 110880,
          "time": 101.91165600000001,
          "velocity": 0.6299212598425197
        },
        {
          "duration": 0.2086394833333287,
          "durationTicks": 227,
          "midi": 47,
          "name": "B2",
          "ticks": 111120,
          "time": 102.132244,
          "velocity": 0.6299212598425197
        },
        {
          "duration": 0.31341878333333284,
          "durationTicks": 341,
          "midi": 48,
          "name": "C3",
          "ticks": 111360,
          "time": 102.352832,
          "velocity": 0.6299212598425197
        },
        {
          "duration": 0.1038601833333388,
          "durationTicks": 113,
          "midi": 48,
          "name": "C3",
          "ticks": 111720,
          "time": 102.68371400000001,
          "velocity": 0.6299212598425197
        },
        {
          "duration": 0.6277566833333452,
          "durationTicks": 683,
          "midi": 50,
          "name": "D3",
          "ticks": 112080,
          "time": 103.014596,
          "velocity": 0.6299212598425197
        },
        {
          "duration": 0.41819808333332276,
          "durationTicks": 455,
          "midi": 51,
          "name": "D#3",
          "ticks": 112800,
          "time": 103.67636,
          "velocity": 0.6299212598425197
        },
        {
          "duration": 0.2086394833333287,
          "durationTicks": 227,
          "midi": 52,
          "name": "E3",
          "ticks": 113280,
          "time": 104.117536,
          "velocity": 0.6299212598425197
        },
        {
          "duration": 0.2086394833333287,
          "durationTicks": 227,
          "midi": 47,
          "name": "B2",
          "ticks": 113520,
          "time": 104.33812400000001,
          "velocity": 0.6299212598425197
        },
        {
          "duration": 0.2086394833333287,
          "durationTicks": 227,
          "midi": 52,
          "name": "E3",
          "ticks": 113760,
          "time": 104.558712,
          "velocity": 0.6299212598425197
        },
        {
          "duration": 0.2086394833333287,
          "durationTicks": 227,
          "midi": 53,
          "name": "F3",
          "ticks": 114000,
          "time": 104.7793,
          "velocity": 0.6299212598425197
        },
        {
          "duration": 0.20863948333334292,
          "durationTicks": 227,
          "midi": 53,
          "name": "F3",
          "ticks": 114240,
          "time": 104.999888,
          "velocity": 0.6299212598425197
        },
        {
          "duration": 0.2086394833333287,
          "durationTicks": 227,
          "midi": 48,
          "name": "C3",
          "ticks": 114480,
          "time": 105.220476,
          "velocity": 0.6299212598425197
        },
        {
          "duration": 0.20863948333334292,
          "durationTicks": 227,
          "midi": 53,
          "name": "F3",
          "ticks": 114720,
          "time": 105.441064,
          "velocity": 0.6299212598425197
        },
        {
          "duration": 0.2086394833333287,
          "durationTicks": 227,
          "midi": 52,
          "name": "E3",
          "ticks": 114960,
          "time": 105.661652,
          "velocity": 0.6299212598425197
        },
        {
          "duration": 0.2086394833333287,
          "durationTicks": 227,
          "midi": 48,
          "name": "C3",
          "ticks": 115440,
          "time": 106.102828,
          "velocity": 0.6299212598425197
        },
        {
          "duration": 0.41819808333333697,
          "durationTicks": 455,
          "midi": 38,
          "name": "D2",
          "ticks": 115920,
          "time": 106.544004,
          "velocity": 0.9921259842519685
        },
        {
          "duration": 0.2086394833333287,
          "durationTicks": 227,
          "midi": 50,
          "name": "D3",
          "ticks": 116400,
          "time": 106.98518,
          "velocity": 0.9921259842519685
        },
        {
          "duration": 0.2086394833333287,
          "durationTicks": 227,
          "midi": 38,
          "name": "D2",
          "ticks": 116640,
          "time": 107.205768,
          "velocity": 0.9921259842519685
        },
        {
          "duration": 0.20863948333334292,
          "durationTicks": 227,
          "midi": 50,
          "name": "D3",
          "ticks": 116880,
          "time": 107.426356,
          "velocity": 0.9921259842519685
        },
        {
          "duration": 0.2086394833333287,
          "durationTicks": 227,
          "midi": 50,
          "name": "D3",
          "ticks": 117120,
          "time": 107.646944,
          "velocity": 0.9921259842519685
        },
        {
          "duration": 0.20863948333334292,
          "durationTicks": 227,
          "midi": 45,
          "name": "A2",
          "ticks": 117360,
          "time": 107.867532,
          "velocity": 0.9921259842519685
        },
        {
          "duration": 0.2086394833333287,
          "durationTicks": 227,
          "midi": 50,
          "name": "D3",
          "ticks": 117600,
          "time": 108.08812,
          "velocity": 0.9921259842519685
        },
        {
          "duration": 0.41819808333332276,
          "durationTicks": 455,
          "midi": 52,
          "name": "E3",
          "ticks": 117840,
          "time": 108.30870800000001,
          "velocity": 0.9921259842519685
        },
        {
          "duration": 0.2086394833333287,
          "durationTicks": 227,
          "midi": 52,
          "name": "E3",
          "ticks": 118320,
          "time": 108.74988400000001,
          "velocity": 0.9921259842519685
        },
        {
          "duration": 0.2086394833333287,
          "durationTicks": 227,
          "midi": 52,
          "name": "E3",
          "ticks": 118560,
          "time": 108.970472,
          "velocity": 0.9921259842519685
        },
        {
          "duration": 0.2086394833333287,
          "durationTicks": 227,
          "midi": 52,
          "name": "E3",
          "ticks": 118800,
          "time": 109.19106000000001,
          "velocity": 0.9921259842519685
        },
        {
          "duration": 0.2086394833333287,
          "durationTicks": 227,
          "midi": 52,
          "name": "E3",
          "ticks": 119040,
          "time": 109.411648,
          "velocity": 0.9921259842519685
        },
        {
          "duration": 0.41819808333333697,
          "durationTicks": 455,
          "midi": 48,
          "name": "C3",
          "ticks": 120000,
          "time": 110.294,
          "velocity": 0.7559055118110236
        },
        {
          "duration": 0.31341878333333284,
          "durationTicks": 341,
          "midi": 48,
          "name": "C3",
          "ticks": 120480,
          "time": 110.73517600000001,
          "velocity": 0.7559055118110236
        },
        {
          "duration": 0.1038601833333388,
          "durationTicks": 113,
          "midi": 43,
          "name": "G2",
          "ticks": 120840,
          "time": 111.066058,
          "velocity": 0.7559055118110236
        },
        {
          "duration": 0.2086394833333287,
          "durationTicks": 227,
          "midi": 48,
          "name": "C3",
          "ticks": 120960,
          "time": 111.17635200000001,
          "velocity": 0.7559055118110236
        },
        {
          "duration": 0.2086394833333287,
          "durationTicks": 227,
          "midi": 43,
          "name": "G2",
          "ticks": 121200,
          "time": 111.39694,
          "velocity": 0.7559055118110236
        },
        {
          "duration": 0.2086394833333287,
          "durationTicks": 227,
          "midi": 45,
          "name": "A2",
          "ticks": 121440,
          "time": 111.61752800000001,
          "velocity": 0.7559055118110236
        },
        {
          "duration": 0.2086394833333287,
          "durationTicks": 227,
          "midi": 46,
          "name": "A#2",
          "ticks": 121680,
          "time": 111.838116,
          "velocity": 0.7559055118110236
        },
        {
          "duration": 0.2086394833333287,
          "durationTicks": 227,
          "midi": 47,
          "name": "B2",
          "ticks": 121920,
          "time": 112.058704,
          "velocity": 0.7559055118110236
        },
        {
          "duration": 0.41819808333333697,
          "durationTicks": 455,
          "midi": 47,
          "name": "B2",
          "ticks": 122160,
          "time": 112.279292,
          "velocity": 0.7559055118110236
        },
        {
          "duration": 0.4181980833333512,
          "durationTicks": 455,
          "midi": 40,
          "name": "E2",
          "ticks": 122640,
          "time": 112.720468,
          "velocity": 0.7559055118110236
        },
        {
          "duration": 0.2086394833333287,
          "durationTicks": 227,
          "midi": 42,
          "name": "F#2",
          "ticks": 123120,
          "time": 113.16164400000001,
          "velocity": 0.7559055118110236
        },
        {
          "duration": 0.2086394833333287,
          "durationTicks": 227,
          "midi": 43,
          "name": "G2",
          "ticks": 123360,
          "time": 113.382232,
          "velocity": 0.7559055118110236
        },
        {
          "duration": 0.2086394833333287,
          "durationTicks": 227,
          "midi": 40,
          "name": "E2",
          "ticks": 123600,
          "time": 113.60282000000001,
          "velocity": 0.7559055118110236
        },
        {
          "duration": 0.4181980833333512,
          "durationTicks": 455,
          "midi": 48,
          "name": "C3",
          "ticks": 123840,
          "time": 113.823408,
          "velocity": 0.7559055118110236
        },
        {
          "duration": 0.31341878333334705,
          "durationTicks": 341,
          "midi": 48,
          "name": "C3",
          "ticks": 124320,
          "time": 114.264584,
          "velocity": 0.7559055118110236
        },
        {
          "duration": 0.10386018333332458,
          "durationTicks": 113,
          "midi": 43,
          "name": "G2",
          "ticks": 124680,
          "time": 114.595466,
          "velocity": 0.7559055118110236
        },
        {
          "duration": 0.20863948333334292,
          "durationTicks": 227,
          "midi": 48,
          "name": "C3",
          "ticks": 124800,
          "time": 114.70576,
          "velocity": 0.7559055118110236
        },
        {
          "duration": 0.2086394833333287,
          "durationTicks": 227,
          "midi": 43,
          "name": "G2",
          "ticks": 125040,
          "time": 114.926348,
          "velocity": 0.7559055118110236
        },
        {
          "duration": 0.20863948333334292,
          "durationTicks": 227,
          "midi": 45,
          "name": "A2",
          "ticks": 125280,
          "time": 115.146936,
          "velocity": 0.7559055118110236
        },
        {
          "duration": 0.2086394833333287,
          "durationTicks": 227,
          "midi": 48,
          "name": "C3",
          "ticks": 125520,
          "time": 115.367524,
          "velocity": 0.7559055118110236
        },
        {
          "duration": 0.2086394833333287,
          "durationTicks": 227,
          "midi": 50,
          "name": "D3",
          "ticks": 125760,
          "time": 115.58811200000001,
          "velocity": 0.7559055118110236
        },
        {
          "duration": 0.2086394833333287,
          "durationTicks": 227,
          "midi": 41,
          "name": "F2",
          "ticks": 126000,
          "time": 115.8087,
          "velocity": 0.7559055118110236
        },
        {
          "duration": 0.2086394833333287,
          "durationTicks": 227,
          "midi": 42,
          "name": "F#2",
          "ticks": 126240,
          "time": 116.02928800000001,
          "velocity": 0.7559055118110236
        },
        {
          "duration": 0.4181980833333512,
          "durationTicks": 455,
          "midi": 43,
          "name": "G2",
          "ticks": 126480,
          "time": 116.249876,
          "velocity": 0.7559055118110236
        },
        {
          "duration": 0.20863948333334292,
          "durationTicks": 227,
          "midi": 45,
          "name": "A2",
          "ticks": 126960,
          "time": 116.691052,
          "velocity": 0.7559055118110236
        },
        {
          "duration": 0.2086394833333287,
          "durationTicks": 227,
          "midi": 47,
          "name": "B2",
          "ticks": 127200,
          "time": 116.91164,
          "velocity": 0.7559055118110236
        },
        {
          "duration": 0.20863948333334292,
          "durationTicks": 227,
          "midi": 43,
          "name": "G2",
          "ticks": 127440,
          "time": 117.132228,
          "velocity": 0.7559055118110236
        },
        {
          "duration": 0.41819808333333697,
          "durationTicks": 455,
          "midi": 48,
          "name": "C3",
          "ticks": 127680,
          "time": 117.352816,
          "velocity": 0.7559055118110236
        },
        {
          "duration": 0.31341878333333284,
          "durationTicks": 341,
          "midi": 48,
          "name": "C3",
          "ticks": 128160,
          "time": 117.793992,
          "velocity": 0.7559055118110236
        },
        {
          "duration": 0.10386018333332458,
          "durationTicks": 113,
          "midi": 43,
          "name": "G2",
          "ticks": 128520,
          "time": 118.124874,
          "velocity": 0.7559055118110236
        },
        {
          "duration": 0.2086394833333287,
          "durationTicks": 227,
          "midi": 48,
          "name": "C3",
          "ticks": 128640,
          "time": 118.235168,
          "velocity": 0.7559055118110236
        },
        {
          "duration": 0.2086394833333287,
          "durationTicks": 227,
          "midi": 43,
          "name": "G2",
          "ticks": 128880,
          "time": 118.45575600000001,
          "velocity": 0.7559055118110236
        },
        {
          "duration": 0.2086394833333287,
          "durationTicks": 227,
          "midi": 50,
          "name": "D3",
          "ticks": 129120,
          "time": 118.676344,
          "velocity": 0.7559055118110236
        },
        {
          "duration": 0.2086394833333287,
          "durationTicks": 227,
          "midi": 48,
          "name": "C3",
          "ticks": 129360,
          "time": 118.896932,
          "velocity": 0.7559055118110236
        },
        {
          "duration": 0.20863948333334292,
          "durationTicks": 227,
          "midi": 47,
          "name": "B2",
          "ticks": 129600,
          "time": 119.11752,
          "velocity": 0.7559055118110236
        },
        {
          "duration": 0.2086394833333287,
          "durationTicks": 227,
          "midi": 47,
          "name": "B2",
          "ticks": 129840,
          "time": 119.338108,
          "velocity": 0.7559055118110236
        },
        {
          "duration": 0.20863948333334292,
          "durationTicks": 227,
          "midi": 50,
          "name": "D3",
          "ticks": 130080,
          "time": 119.558696,
          "velocity": 0.7559055118110236
        },
        {
          "duration": 0.41819808333333697,
          "durationTicks": 455,
          "midi": 52,
          "name": "E3",
          "ticks": 130320,
          "time": 119.779284,
          "velocity": 0.7559055118110236
        },
        {
          "duration": 0.2086394833333287,
          "durationTicks": 227,
          "midi": 50,
          "name": "D3",
          "ticks": 130800,
          "time": 120.22046,
          "velocity": 0.7559055118110236
        },
        {
          "duration": 0.10386018333332458,
          "durationTicks": 113,
          "midi": 47,
          "name": "B2",
          "ticks": 131040,
          "time": 120.44104800000001,
          "velocity": 0.7559055118110236
        },
        {
          "duration": 0.10386018333332458,
          "durationTicks": 113,
          "midi": 45,
          "name": "A2",
          "ticks": 131160,
          "time": 120.551342,
          "velocity": 0.7559055118110236
        },
        {
          "duration": 0.2086394833333287,
          "durationTicks": 227,
          "midi": 43,
          "name": "G2",
          "ticks": 131280,
          "time": 120.661636,
          "velocity": 0.7559055118110236
        },
        {
          "duration": 0.41819808333333697,
          "durationTicks": 455,
          "midi": 45,
          "name": "A2",
          "ticks": 131520,
          "time": 120.88222400000001,
          "velocity": 0.7559055118110236
        },
        {
          "duration": 0.8373152833333393,
          "durationTicks": 911,
          "midi": 48,
          "name": "C3",
          "ticks": 133440,
          "time": 122.646928,
          "velocity": 0.7559055118110236
        },
        {
          "duration": 0.627756683333331,
          "durationTicks": 683,
          "midi": 50,
          "name": "D3",
          "ticks": 134400,
          "time": 123.52928,
          "velocity": 0.7559055118110236
        },
        {
          "duration": 0.2086394833333287,
          "durationTicks": 227,
          "midi": 43,
          "name": "G2",
          "ticks": 135120,
          "time": 124.191044,
          "velocity": 0.7559055118110236
        },
        {
          "duration": 0.4181980833333512,
          "durationTicks": 455,
          "midi": 48,
          "name": "C3",
          "ticks": 154560,
          "time": 142.058672,
          "velocity": 0.6299212598425197
        },
        {
          "duration": 0.31341878333333284,
          "durationTicks": 341,
          "midi": 48,
          "name": "C3",
          "ticks": 155040,
          "time": 142.49984800000001,
          "velocity": 0.6299212598425197
        },
        {
          "duration": 0.10386018333332458,
          "durationTicks": 113,
          "midi": 43,
          "name": "G2",
          "ticks": 155400,
          "time": 142.83073000000002,
          "velocity": 0.6299212598425197
        },
        {
          "duration": 0.20863948333334292,
          "durationTicks": 227,
          "midi": 48,
          "name": "C3",
          "ticks": 155520,
          "time": 142.941024,
          "velocity": 0.6299212598425197
        },
        {
          "duration": 0.20863948333334292,
          "durationTicks": 227,
          "midi": 43,
          "name": "G2",
          "ticks": 155760,
          "time": 143.161612,
          "velocity": 0.6299212598425197
        },
        {
          "duration": 0.2086394833333145,
          "durationTicks": 227,
          "midi": 45,
          "name": "A2",
          "ticks": 156000,
          "time": 143.3822,
          "velocity": 0.6299212598425197
        },
        {
          "duration": 0.20863948333334292,
          "durationTicks": 227,
          "midi": 46,
          "name": "A#2",
          "ticks": 156240,
          "time": 143.602788,
          "velocity": 0.6299212598425197
        },
        {
          "duration": 0.20863948333334292,
          "durationTicks": 227,
          "midi": 47,
          "name": "B2",
          "ticks": 156480,
          "time": 143.823376,
          "velocity": 0.6299212598425197
        },
        {
          "duration": 0.41819808333332276,
          "durationTicks": 455,
          "midi": 47,
          "name": "B2",
          "ticks": 156720,
          "time": 144.04396400000002,
          "velocity": 0.6299212598425197
        },
        {
          "duration": 0.4181980833333512,
          "durationTicks": 455,
          "midi": 40,
          "name": "E2",
          "ticks": 157200,
          "time": 144.48514,
          "velocity": 0.6299212598425197
        },
        {
          "duration": 0.2086394833333145,
          "durationTicks": 227,
          "midi": 42,
          "name": "F#2",
          "ticks": 157680,
          "time": 144.926316,
          "velocity": 0.6299212598425197
        },
        {
          "duration": 0.20863948333334292,
          "durationTicks": 227,
          "midi": 43,
          "name": "G2",
          "ticks": 157920,
          "time": 145.146904,
          "velocity": 0.6299212598425197
        },
        {
          "duration": 0.20863948333334292,
          "durationTicks": 227,
          "midi": 40,
          "name": "E2",
          "ticks": 158160,
          "time": 145.367492,
          "velocity": 0.6299212598425197
        },
        {
          "duration": 0.4181980833333512,
          "durationTicks": 455,
          "midi": 48,
          "name": "C3",
          "ticks": 158400,
          "time": 145.58808,
          "velocity": 0.6299212598425197
        },
        {
          "duration": 0.31341878333333284,
          "durationTicks": 341,
          "midi": 48,
          "name": "C3",
          "ticks": 158880,
          "time": 146.029256,
          "velocity": 0.6299212598425197
        },
        {
          "duration": 0.10386018333332458,
          "durationTicks": 113,
          "midi": 43,
          "name": "G2",
          "ticks": 159240,
          "time": 146.360138,
          "velocity": 0.6299212598425197
        },
        {
          "duration": 0.2086394833333145,
          "durationTicks": 227,
          "midi": 48,
          "name": "C3",
          "ticks": 159360,
          "time": 146.47043200000002,
          "velocity": 0.6299212598425197
        },
        {
          "duration": 0.2086394833333145,
          "durationTicks": 227,
          "midi": 43,
          "name": "G2",
          "ticks": 159600,
          "time": 146.69102,
          "velocity": 0.6299212598425197
        },
        {
          "duration": 0.20863948333334292,
          "durationTicks": 227,
          "midi": 45,
          "name": "A2",
          "ticks": 159840,
          "time": 146.911608,
          "velocity": 0.6299212598425197
        },
        {
          "duration": 0.20863948333334292,
          "durationTicks": 227,
          "midi": 48,
          "name": "C3",
          "ticks": 160080,
          "time": 147.132196,
          "velocity": 0.6299212598425197
        },
        {
          "duration": 0.2086394833333145,
          "durationTicks": 227,
          "midi": 50,
          "name": "D3",
          "ticks": 160320,
          "time": 147.352784,
          "velocity": 0.6299212598425197
        },
        {
          "duration": 0.20863948333334292,
          "durationTicks": 227,
          "midi": 41,
          "name": "F2",
          "ticks": 160560,
          "time": 147.573372,
          "velocity": 0.6299212598425197
        },
        {
          "duration": 0.20863948333334292,
          "durationTicks": 227,
          "midi": 42,
          "name": "F#2",
          "ticks": 160800,
          "time": 147.79396,
          "velocity": 0.6299212598425197
        },
        {
          "duration": 0.4181980833333512,
          "durationTicks": 455,
          "midi": 43,
          "name": "G2",
          "ticks": 161040,
          "time": 148.014548,
          "velocity": 0.6299212598425197
        },
        {
          "duration": 0.20863948333334292,
          "durationTicks": 227,
          "midi": 45,
          "name": "A2",
          "ticks": 161520,
          "time": 148.455724,
          "velocity": 0.6299212598425197
        },
        {
          "duration": 0.20863948333334292,
          "durationTicks": 227,
          "midi": 47,
          "name": "B2",
          "ticks": 161760,
          "time": 148.676312,
          "velocity": 0.6299212598425197
        },
        {
          "duration": 0.2086394833333145,
          "durationTicks": 227,
          "midi": 43,
          "name": "G2",
          "ticks": 162000,
          "time": 148.89690000000002,
          "velocity": 0.6299212598425197
        },
        {
          "duration": 0.4181980833333512,
          "durationTicks": 455,
          "midi": 48,
          "name": "C3",
          "ticks": 162240,
          "time": 149.117488,
          "velocity": 0.6299212598425197
        },
        {
          "duration": 0.31341878333336126,
          "durationTicks": 341,
          "midi": 48,
          "name": "C3",
          "ticks": 162720,
          "time": 149.558664,
          "velocity": 0.6299212598425197
        },
        {
          "duration": 0.10386018333332458,
          "durationTicks": 113,
          "midi": 43,
          "name": "G2",
          "ticks": 163080,
          "time": 149.889546,
          "velocity": 0.6299212598425197
        },
        {
          "duration": 0.20863948333334292,
          "durationTicks": 227,
          "midi": 48,
          "name": "C3",
          "ticks": 163200,
          "time": 149.99984,
          "velocity": 0.6299212598425197
        },
        {
          "duration": 0.20863948333334292,
          "durationTicks": 227,
          "midi": 43,
          "name": "G2",
          "ticks": 163440,
          "time": 150.220428,
          "velocity": 0.6299212598425197
        },
        {
          "duration": 0.20863948333334292,
          "durationTicks": 227,
          "midi": 50,
          "name": "D3",
          "ticks": 163680,
          "time": 150.441016,
          "velocity": 0.6299212598425197
        },
        {
          "duration": 0.2086394833333145,
          "durationTicks": 227,
          "midi": 48,
          "name": "C3",
          "ticks": 163920,
          "time": 150.661604,
          "velocity": 0.6299212598425197
        },
        {
          "duration": 0.20863948333334292,
          "durationTicks": 227,
          "midi": 47,
          "name": "B2",
          "ticks": 164160,
          "time": 150.882192,
          "velocity": 0.6299212598425197
        },
        {
          "duration": 0.20863948333334292,
          "durationTicks": 227,
          "midi": 47,
          "name": "B2",
          "ticks": 164400,
          "time": 151.10278,
          "velocity": 0.6299212598425197
        },
        {
          "duration": 0.2086394833333145,
          "durationTicks": 227,
          "midi": 50,
          "name": "D3",
          "ticks": 164640,
          "time": 151.32336800000002,
          "velocity": 0.6299212598425197
        },
        {
          "duration": 0.4181980833333512,
          "durationTicks": 455,
          "midi": 52,
          "name": "E3",
          "ticks": 164880,
          "time": 151.543956,
          "velocity": 0.6299212598425197
        },
        {
          "duration": 0.20863948333334292,
          "durationTicks": 227,
          "midi": 50,
          "name": "D3",
          "ticks": 165360,
          "time": 151.985132,
          "velocity": 0.6299212598425197
        },
        {
          "duration": 0.10386018333332458,
          "durationTicks": 113,
          "midi": 47,
          "name": "B2",
          "ticks": 165600,
          "time": 152.20572,
          "velocity": 0.6299212598425197
        },
        {
          "duration": 0.10386018333332458,
          "durationTicks": 113,
          "midi": 45,
          "name": "A2",
          "ticks": 165720,
          "time": 152.316014,
          "velocity": 0.6299212598425197
        },
        {
          "duration": 0.20863948333334292,
          "durationTicks": 227,
          "midi": 43,
          "name": "G2",
          "ticks": 165840,
          "time": 152.426308,
          "velocity": 0.6299212598425197
        },
        {
          "duration": 0.4181980833333512,
          "durationTicks": 455,
          "midi": 45,
          "name": "A2",
          "ticks": 166080,
          "time": 152.646896,
          "velocity": 0.6299212598425197
        },
        {
          "duration": 0.8373152833333393,
          "durationTicks": 911,
          "midi": 48,
          "name": "C3",
          "ticks": 168000,
          "time": 154.4116,
          "velocity": 0.6299212598425197
        },
        {
          "duration": 0.627756683333331,
          "durationTicks": 683,
          "midi": 50,
          "name": "D3",
          "ticks": 168960,
          "time": 155.293952,
          "velocity": 0.6299212598425197
        },
        {
          "duration": 0.20863948333334292,
          "durationTicks": 227,
          "midi": 43,
          "name": "G2",
          "ticks": 169680,
          "time": 155.955716,
          "velocity": 0.6299212598425197
        },
        {
          "duration": 0.41819808333332276,
          "durationTicks": 455,
          "midi": 48,
          "name": "C3",
          "ticks": 171840,
          "time": 157.941008,
          "velocity": 0.9921259842519685
        },
        {
          "duration": 0.31341878333333284,
          "durationTicks": 341,
          "midi": 48,
          "name": "C3",
          "ticks": 172320,
          "time": 158.382184,
          "velocity": 0.9921259842519685
        },
        {
          "duration": 0.10386018333332458,
          "durationTicks": 113,
          "midi": 43,
          "name": "G2",
          "ticks": 172680,
          "time": 158.713066,
          "velocity": 0.9921259842519685
        },
        {
          "duration": 0.2086394833333145,
          "durationTicks": 227,
          "midi": 48,
          "name": "C3",
          "ticks": 172800,
          "time": 158.82336,
          "velocity": 0.9921259842519685
        },
        {
          "duration": 0.20863948333334292,
          "durationTicks": 227,
          "midi": 43,
          "name": "G2",
          "ticks": 173040,
          "time": 159.043948,
          "velocity": 0.9921259842519685
        },
        {
          "duration": 0.20863948333334292,
          "durationTicks": 227,
          "midi": 45,
          "name": "A2",
          "ticks": 173280,
          "time": 159.264536,
          "velocity": 0.9921259842519685
        },
        {
          "duration": 0.2086394833333145,
          "durationTicks": 227,
          "midi": 46,
          "name": "A#2",
          "ticks": 173520,
          "time": 159.485124,
          "velocity": 0.9921259842519685
        },
        {
          "duration": 0.20863948333334292,
          "durationTicks": 227,
          "midi": 47,
          "name": "B2",
          "ticks": 173760,
          "time": 159.705712,
          "velocity": 0.9921259842519685
        },
        {
          "duration": 0.4181980833333512,
          "durationTicks": 455,
          "midi": 47,
          "name": "B2",
          "ticks": 174000,
          "time": 159.9263,
          "velocity": 0.9921259842519685
        },
        {
          "duration": 0.41819808333332276,
          "durationTicks": 455,
          "midi": 40,
          "name": "E2",
          "ticks": 174480,
          "time": 160.367476,
          "velocity": 0.9921259842519685
        },
        {
          "duration": 0.20863948333334292,
          "durationTicks": 227,
          "midi": 42,
          "name": "F#2",
          "ticks": 174960,
          "time": 160.808652,
          "velocity": 0.9921259842519685
        },
        {
          "duration": 0.2086394833333145,
          "durationTicks": 227,
          "midi": 43,
          "name": "G2",
          "ticks": 175200,
          "time": 161.02924000000002,
          "velocity": 0.9921259842519685
        },
        {
          "duration": 0.2086394833333145,
          "durationTicks": 227,
          "midi": 40,
          "name": "E2",
          "ticks": 175440,
          "time": 161.249828,
          "velocity": 0.9921259842519685
        },
        {
          "duration": 0.4181980833333512,
          "durationTicks": 455,
          "midi": 48,
          "name": "C3",
          "ticks": 175680,
          "time": 161.470416,
          "velocity": 0.9921259842519685
        },
        {
          "duration": 0.31341878333333284,
          "durationTicks": 341,
          "midi": 48,
          "name": "C3",
          "ticks": 176160,
          "time": 161.911592,
          "velocity": 0.9921259842519685
        },
        {
          "duration": 0.10386018333332458,
          "durationTicks": 113,
          "midi": 43,
          "name": "G2",
          "ticks": 176520,
          "time": 162.24247400000002,
          "velocity": 0.9921259842519685
        },
        {
          "duration": 0.20863948333334292,
          "durationTicks": 227,
          "midi": 48,
          "name": "C3",
          "ticks": 176640,
          "time": 162.352768,
          "velocity": 0.9921259842519685
        },
        {
          "duration": 0.2086394833333145,
          "durationTicks": 227,
          "midi": 43,
          "name": "G2",
          "ticks": 176880,
          "time": 162.57335600000002,
          "velocity": 0.9921259842519685
        },
        {
          "duration": 0.2086394833333145,
          "durationTicks": 227,
          "midi": 45,
          "name": "A2",
          "ticks": 177120,
          "time": 162.793944,
          "velocity": 0.9921259842519685
        },
        {
          "duration": 0.20863948333334292,
          "durationTicks": 227,
          "midi": 48,
          "name": "C3",
          "ticks": 177360,
          "time": 163.014532,
          "velocity": 0.9921259842519685
        },
        {
          "duration": 0.20863948333334292,
          "durationTicks": 227,
          "midi": 50,
          "name": "D3",
          "ticks": 177600,
          "time": 163.23512,
          "velocity": 0.9921259842519685
        },
        {
          "duration": 0.2086394833333145,
          "durationTicks": 227,
          "midi": 41,
          "name": "F2",
          "ticks": 177840,
          "time": 163.45570800000002,
          "velocity": 0.9921259842519685
        },
        {
          "duration": 0.2086394833333145,
          "durationTicks": 227,
          "midi": 42,
          "name": "F#2",
          "ticks": 178080,
          "time": 163.676296,
          "velocity": 0.9921259842519685
        },
        {
          "duration": 0.4181980833333512,
          "durationTicks": 455,
          "midi": 43,
          "name": "G2",
          "ticks": 178320,
          "time": 163.896884,
          "velocity": 0.9921259842519685
        },
        {
          "duration": 0.2086394833333145,
          "durationTicks": 227,
          "midi": 45,
          "name": "A2",
          "ticks": 178800,
          "time": 164.33806,
          "velocity": 0.9921259842519685
        },
        {
          "duration": 0.20863948333334292,
          "durationTicks": 227,
          "midi": 47,
          "name": "B2",
          "ticks": 179040,
          "time": 164.558648,
          "velocity": 0.9921259842519685
        },
        {
          "duration": 0.20863948333334292,
          "durationTicks": 227,
          "midi": 43,
          "name": "G2",
          "ticks": 179280,
          "time": 164.779236,
          "velocity": 0.9921259842519685
        },
        {
          "duration": 0.41819808333332276,
          "durationTicks": 455,
          "midi": 48,
          "name": "C3",
          "ticks": 179520,
          "time": 164.99982400000002,
          "velocity": 0.9921259842519685
        },
        {
          "duration": 0.31341878333333284,
          "durationTicks": 341,
          "midi": 48,
          "name": "C3",
          "ticks": 180000,
          "time": 165.441,
          "velocity": 0.9921259842519685
        },
        {
          "duration": 0.10386018333332458,
          "durationTicks": 113,
          "midi": 43,
          "name": "G2",
          "ticks": 180360,
          "time": 165.771882,
          "velocity": 0.9921259842519685
        },
        {
          "duration": 0.2086394833333145,
          "durationTicks": 227,
          "midi": 48,
          "name": "C3",
          "ticks": 180480,
          "time": 165.88217600000002,
          "velocity": 0.9921259842519685
        },
        {
          "duration": 0.20863948333334292,
          "durationTicks": 227,
          "midi": 43,
          "name": "G2",
          "ticks": 180720,
          "time": 166.102764,
          "velocity": 0.9921259842519685
        },
        {
          "duration": 0.20863948333334292,
          "durationTicks": 227,
          "midi": 50,
          "name": "D3",
          "ticks": 180960,
          "time": 166.323352,
          "velocity": 0.9921259842519685
        },
        {
          "duration": 0.20863948333334292,
          "durationTicks": 227,
          "midi": 48,
          "name": "C3",
          "ticks": 181200,
          "time": 166.54394,
          "velocity": 0.9921259842519685
        },
        {
          "duration": 0.2086394833333145,
          "durationTicks": 227,
          "midi": 47,
          "name": "B2",
          "ticks": 181440,
          "time": 166.764528,
          "velocity": 0.9921259842519685
        },
        {
          "duration": 0.20863948333334292,
          "durationTicks": 227,
          "midi": 47,
          "name": "B2",
          "ticks": 181680,
          "time": 166.985116,
          "velocity": 0.9921259842519685
        },
        {
          "duration": 0.20863948333334292,
          "durationTicks": 227,
          "midi": 50,
          "name": "D3",
          "ticks": 181920,
          "time": 167.205704,
          "velocity": 0.9921259842519685
        },
        {
          "duration": 0.41819808333332276,
          "durationTicks": 455,
          "midi": 52,
          "name": "E3",
          "ticks": 182160,
          "time": 167.42629200000002,
          "velocity": 0.9921259842519685
        },
        {
          "duration": 0.20863948333334292,
          "durationTicks": 227,
          "midi": 50,
          "name": "D3",
          "ticks": 182640,
          "time": 167.867468,
          "velocity": 0.9921259842519685
        },
        {
          "duration": 0.10386018333332458,
          "durationTicks": 113,
          "midi": 47,
          "name": "B2",
          "ticks": 182880,
          "time": 168.088056,
          "velocity": 0.9921259842519685
        },
        {
          "duration": 0.10386018333332458,
          "durationTicks": 113,
          "midi": 45,
          "name": "A2",
          "ticks": 183000,
          "time": 168.19835,
          "velocity": 0.9921259842519685
        },
        {
          "duration": 0.2086394833333145,
          "durationTicks": 227,
          "midi": 43,
          "name": "G2",
          "ticks": 183120,
          "time": 168.30864400000002,
          "velocity": 0.9921259842519685
        },
        {
          "duration": 0.4181980833333512,
          "durationTicks": 455,
          "midi": 45,
          "name": "A2",
          "ticks": 183360,
          "time": 168.529232,
          "velocity": 0.9921259842519685
        },
        {
          "duration": 0.8373152833333393,
          "durationTicks": 911,
          "midi": 48,
          "name": "C3",
          "ticks": 185280,
          "time": 170.293936,
          "velocity": 0.9921259842519685
        },
        {
          "duration": 0.627756683333331,
          "durationTicks": 683,
          "midi": 50,
          "name": "D3",
          "ticks": 186240,
          "time": 171.176288,
          "velocity": 0.9921259842519685
        },
        {
          "duration": 0.8373152833333393,
          "durationTicks": 911,
          "midi": 43,
          "name": "G2",
          "ticks": 186960,
          "time": 171.838052,
          "velocity": 0.9921259842519685
        },
        {
          "duration": 0.4181980833333512,
          "durationTicks": 455,
          "midi": 48,
          "name": "C3",
          "ticks": 187920,
          "time": 172.720404,
          "velocity": 0.9921259842519685
        },
        {
          "duration": 0.2086394833333145,
          "durationTicks": 227,
          "midi": 45,
          "name": "A2",
          "ticks": 188400,
          "time": 173.16158000000001,
          "velocity": 0.9921259842519685
        },
        {
          "duration": 0.20863948333334292,
          "durationTicks": 227,
          "midi": 48,
          "name": "C3",
          "ticks": 188640,
          "time": 173.382168,
          "velocity": 0.9921259842519685
        },
        {
          "duration": 0.4181980833333512,
          "durationTicks": 455,
          "midi": 54,
          "name": "F#3",
          "ticks": 188880,
          "time": 173.602756,
          "velocity": 0.9921259842519685
        },
        {
          "duration": 0.2086394833333145,
          "durationTicks": 227,
          "midi": 45,
          "name": "A2",
          "ticks": 189360,
          "time": 174.043932,
          "velocity": 0.9921259842519685
        },
        {
          "duration": 0.20863948333334292,
          "durationTicks": 227,
          "midi": 46,
          "name": "A#2",
          "ticks": 189600,
          "time": 174.26452,
          "velocity": 0.9921259842519685
        },
        {
          "duration": 1.046873883333319,
          "durationTicks": 1139,
          "midi": 47,
          "name": "B2",
          "ticks": 189840,
          "time": 174.485108,
          "velocity": 0.9921259842519685
        }
      ],
      "endOfTrackTicks": 190980
    },
    {
      "channel": 0,
      "controlChanges": {
        "121": [
          {
            "number": 121,
            "ticks": 0,
            "time": 0,
            "value": 0
          }
        ]
      },
      "pitchBends": [],
      "instrument": {
        "family": "piano",
        "number": 0,
        "name": "acoustic grand piano"
      },
      "name": "",
      "notes": [],
      "endOfTrackTicks": 195360
    },
    {
      "channel": 12,
      "controlChanges": {
        "7": [
          {
            "number": 7,
            "ticks": 0,
            "time": 0,
            "value": 0.7874015748031497
          }
        ],
        "10": [
          {
            "number": 10,
            "ticks": 0,
            "time": 0,
            "value": 0.5039370078740157
          }
        ],
        "91": [
          {
            "number": 91,
            "ticks": 0,
            "time": 0,
            "value": 0
          }
        ],
        "93": [
          {
            "number": 93,
            "ticks": 0,
            "time": 0,
            "value": 0
          }
        ]
      },
      "pitchBends": [],
      "instrument": {
        "family": "bass",
        "number": 33,
        "name": "electric bass (finger)"
      },
      "name": "",
      "notes": [
        {
          "duration": 0.10937488333333334,
          "durationTicks": 119,
          "midi": 33,
          "name": "A1",
          "ticks": 0,
          "time": 0,
          "velocity": 0.6299212598425197
        },
        {
          "duration": 0.10937488333333334,
          "durationTicks": 119,
          "midi": 34,
          "name": "A#1",
          "ticks": 120,
          "time": 0.110294,
          "velocity": 0.6299212598425197
        },
        {
          "duration": 0.10937488333333334,
          "durationTicks": 119,
          "midi": 35,
          "name": "B1",
          "ticks": 240,
          "time": 0.220588,
          "velocity": 0.6299212598425197
        },
        {
          "duration": 0.10937488333333334,
          "durationTicks": 119,
          "midi": 38,
          "name": "D2",
          "ticks": 360,
          "time": 0.330882,
          "velocity": 0.6299212598425197
        },
        {
          "duration": 0.10937488333333334,
          "durationTicks": 119,
          "midi": 33,
          "name": "A1",
          "ticks": 720,
          "time": 0.661764,
          "velocity": 0.6299212598425197
        },
        {
          "duration": 0.10937488333333334,
          "durationTicks": 119,
          "midi": 34,
          "name": "A#1",
          "ticks": 840,
          "time": 0.772058,
          "velocity": 0.6299212598425197
        },
        {
          "duration": 0.10937488333333334,
          "durationTicks": 119,
          "midi": 35,
          "name": "B1",
          "ticks": 960,
          "time": 0.882352,
          "velocity": 0.6299212598425197
        },
        {
          "duration": 0.10937488333333334,
          "durationTicks": 119,
          "midi": 38,
          "name": "D2",
          "ticks": 1080,
          "time": 0.992646,
          "velocity": 0.6299212598425197
        },
        {
          "duration": 0.10937488333333345,
          "durationTicks": 119,
          "midi": 26,
          "name": "D1",
          "ticks": 1440,
          "time": 1.323528,
          "velocity": 0.6299212598425197
        },
        {
          "duration": 0.10937488333333323,
          "durationTicks": 119,
          "midi": 26,
          "name": "D1",
          "ticks": 1560,
          "time": 1.4338220000000002,
          "velocity": 0.6299212598425197
        },
        {
          "duration": 0.10937488333333345,
          "durationTicks": 119,
          "midi": 33,
          "name": "A1",
          "ticks": 1920,
          "time": 1.764704,
          "velocity": 0.6299212598425197
        },
        {
          "duration": 0.10937488333333323,
          "durationTicks": 119,
          "midi": 34,
          "name": "A#1",
          "ticks": 2040,
          "time": 1.8749980000000002,
          "velocity": 0.6299212598425197
        },
        {
          "duration": 0.10937488333333323,
          "durationTicks": 119,
          "midi": 35,
          "name": "B1",
          "ticks": 2160,
          "time": 1.985292,
          "velocity": 0.6299212598425197
        },
        {
          "duration": 0.10937488333333345,
          "durationTicks": 119,
          "midi": 38,
          "name": "D2",
          "ticks": 2280,
          "time": 2.095586,
          "velocity": 0.6299212598425197
        },
        {
          "duration": 0.10937488333333345,
          "durationTicks": 119,
          "midi": 35,
          "name": "B1",
          "ticks": 2640,
          "time": 2.426468,
          "velocity": 0.6299212598425197
        },
        {
          "duration": 0.10937488333333345,
          "durationTicks": 119,
          "midi": 33,
          "name": "A1",
          "ticks": 2760,
          "time": 2.536762,
          "velocity": 0.6299212598425197
        },
        {
          "duration": 0.10937488333333345,
          "durationTicks": 119,
          "midi": 31,
          "name": "G1",
          "ticks": 2880,
          "time": 2.647056,
          "velocity": 0.6299212598425197
        },
        {
          "duration": 0.10937488333333345,
          "durationTicks": 119,
          "midi": 28,
          "name": "E1",
          "ticks": 3000,
          "time": 2.75735,
          "velocity": 0.6299212598425197
        },
        {
          "duration": 0.10937488333333345,
          "durationTicks": 119,
          "midi": 28,
          "name": "E1",
          "ticks": 3360,
          "time": 3.088232,
          "velocity": 0.6299212598425197
        },
        {
          "duration": 0.10937488333333345,
          "durationTicks": 119,
          "midi": 28,
          "name": "E1",
          "ticks": 3480,
          "time": 3.198526,
          "velocity": 0.6299212598425197
        },
        {
          "duration": 0.03492643333333367,
          "durationTicks": 38,
          "midi": 40,
          "name": "E2",
          "ticks": 4320,
          "time": 3.970584,
          "velocity": 0.7559055118110236
        },
        {
          "duration": 0.03492643333333323,
          "durationTicks": 38,
          "midi": 39,
          "name": "D#2",
          "ticks": 4359,
          "time": 4.00642955,
          "velocity": 0.7559055118110236
        },
        {
          "duration": 0.03492643333333412,
          "durationTicks": 38,
          "midi": 38,
          "name": "D2",
          "ticks": 4399,
          "time": 4.043194216666667,
          "velocity": 0.7559055118110236
        },
        {
          "duration": 0.03492643333333323,
          "durationTicks": 38,
          "midi": 37,
          "name": "C#2",
          "ticks": 4440,
          "time": 4.080878,
          "velocity": 0.7559055118110236
        },
        {
          "duration": 0.03492643333333234,
          "durationTicks": 38,
          "midi": 36,
          "name": "C2",
          "ticks": 4479,
          "time": 4.116723550000001,
          "velocity": 0.7559055118110236
        },
        {
          "duration": 0.03492643333333412,
          "durationTicks": 38,
          "midi": 35,
          "name": "B1",
          "ticks": 4519,
          "time": 4.153488216666666,
          "velocity": 0.7559055118110236
        },
        {
          "duration": 0.03492643333333412,
          "durationTicks": 38,
          "midi": 34,
          "name": "A#1",
          "ticks": 4560,
          "time": 4.191172,
          "velocity": 0.7559055118110236
        },
        {
          "duration": 0.03492643333333323,
          "durationTicks": 38,
          "midi": 33,
          "name": "A1",
          "ticks": 4599,
          "time": 4.22701755,
          "velocity": 0.7559055118110236
        },
        {
          "duration": 0.03492643333333323,
          "durationTicks": 38,
          "midi": 32,
          "name": "G#1",
          "ticks": 4639,
          "time": 4.263782216666667,
          "velocity": 0.7559055118110236
        },
        {
          "duration": 0.03492643333333323,
          "durationTicks": 38,
          "midi": 31,
          "name": "G1",
          "ticks": 4680,
          "time": 4.3014660000000005,
          "velocity": 0.7559055118110236
        },
        {
          "duration": 0.03492643333333234,
          "durationTicks": 38,
          "midi": 30,
          "name": "F#1",
          "ticks": 4719,
          "time": 4.337311550000001,
          "velocity": 0.7559055118110236
        },
        {
          "duration": 0.03492643333333412,
          "durationTicks": 38,
          "midi": 29,
          "name": "F1",
          "ticks": 4759,
          "time": 4.3740762166666665,
          "velocity": 0.7559055118110236
        },
        {
          "duration": 0.21966888333333312,
          "durationTicks": 239,
          "midi": 28,
          "name": "E1",
          "ticks": 4800,
          "time": 4.41176,
          "velocity": 0.7559055118110236
        },
        {
          "duration": 0.21966888333333312,
          "durationTicks": 239,
          "midi": 40,
          "name": "E2",
          "ticks": 5040,
          "time": 4.632348,
          "velocity": 0.7559055118110236
        },
        {
          "duration": 0.219668883333334,
          "durationTicks": 239,
          "midi": 30,
          "name": "F#1",
          "ticks": 5280,
          "time": 4.852936,
          "velocity": 0.7559055118110236
        },
        {
          "duration": 0.219668883333334,
          "durationTicks": 239,
          "midi": 42,
          "name": "F#2",
          "ticks": 5520,
          "time": 5.073524,
          "velocity": 0.7559055118110236
        },
        {
          "duration": 0.21966888333333312,
          "durationTicks": 239,
          "midi": 31,
          "name": "G1",
          "ticks": 5760,
          "time": 5.294112,
          "velocity": 0.7559055118110236
        },
        {
          "duration": 0.10937488333333345,
          "durationTicks": 119,
          "midi": 28,
          "name": "E1",
          "ticks": 6000,
          "time": 5.5147,
          "velocity": 0.7559055118110236
        },
        {
          "duration": 0.21966888333333312,
          "durationTicks": 239,
          "midi": 31,
          "name": "G1",
          "ticks": 6120,
          "time": 5.624994,
          "velocity": 0.7559055118110236
        },
        {
          "duration": 0.10937488333333345,
          "durationTicks": 119,
          "midi": 28,
          "name": "E1",
          "ticks": 6360,
          "time": 5.845582,
          "velocity": 0.7559055118110236
        },
        {
          "duration": 0.219668883333334,
          "durationTicks": 239,
          "midi": 32,
          "name": "G#1",
          "ticks": 6480,
          "time": 5.955876,
          "velocity": 0.7559055118110236
        },
        {
          "duration": 0.44025688333333335,
          "durationTicks": 479,
          "midi": 33,
          "name": "A1",
          "ticks": 6720,
          "time": 6.176464,
          "velocity": 0.7559055118110236
        },
        {
          "duration": 0.219668883333334,
          "durationTicks": 239,
          "midi": 28,
          "name": "E1",
          "ticks": 7440,
          "time": 6.838228,
          "velocity": 0.7559055118110236
        },
        {
          "duration": 0.21966888333333223,
          "durationTicks": 239,
          "midi": 33,
          "name": "A1",
          "ticks": 7680,
          "time": 7.058816,
          "velocity": 0.7559055118110236
        },
        {
          "duration": 0.10937488333333256,
          "durationTicks": 119,
          "midi": 28,
          "name": "E1",
          "ticks": 7920,
          "time": 7.279404,
          "velocity": 0.7559055118110236
        },
        {
          "duration": 0.21966888333333312,
          "durationTicks": 239,
          "midi": 33,
          "name": "A1",
          "ticks": 8040,
          "time": 7.389698,
          "velocity": 0.7559055118110236
        },
        {
          "duration": 0.10937488333333256,
          "durationTicks": 119,
          "midi": 28,
          "name": "E1",
          "ticks": 8280,
          "time": 7.610286,
          "velocity": 0.7559055118110236
        },
        {
          "duration": 0.21966888333333312,
          "durationTicks": 239,
          "midi": 31,
          "name": "G1",
          "ticks": 8400,
          "time": 7.72058,
          "velocity": 0.7559055118110236
        },
        {
          "duration": 0.21966888333333312,
          "durationTicks": 239,
          "midi": 28,
          "name": "E1",
          "ticks": 8640,
          "time": 7.941168,
          "velocity": 0.7559055118110236
        },
        {
          "duration": 0.21966888333333223,
          "durationTicks": 239,
          "midi": 40,
          "name": "E2",
          "ticks": 8880,
          "time": 8.161756,
          "velocity": 0.7559055118110236
        },
        {
          "duration": 0.21966888333333223,
          "durationTicks": 239,
          "midi": 30,
          "name": "F#1",
          "ticks": 9120,
          "time": 8.382344,
          "velocity": 0.7559055118110236
        },
        {
          "duration": 0.21966888333333223,
          "durationTicks": 239,
          "midi": 42,
          "name": "F#2",
          "ticks": 9360,
          "time": 8.602932000000001,
          "velocity": 0.7559055118110236
        },
        {
          "duration": 0.21966888333333223,
          "durationTicks": 239,
          "midi": 31,
          "name": "G1",
          "ticks": 9600,
          "time": 8.82352,
          "velocity": 0.7559055118110236
        },
        {
          "duration": 0.10937488333333256,
          "durationTicks": 119,
          "midi": 28,
          "name": "E1",
          "ticks": 9840,
          "time": 9.044108,
          "velocity": 0.7559055118110236
        },
        {
          "duration": 0.21966888333333223,
          "durationTicks": 239,
          "midi": 31,
          "name": "G1",
          "ticks": 9960,
          "time": 9.154402000000001,
          "velocity": 0.7559055118110236
        },
        {
          "duration": 0.10937488333333256,
          "durationTicks": 119,
          "midi": 28,
          "name": "E1",
          "ticks": 10200,
          "time": 9.37499,
          "velocity": 0.7559055118110236
        },
        {
          "duration": 0.21966888333333223,
          "durationTicks": 239,
          "midi": 32,
          "name": "G#1",
          "ticks": 10320,
          "time": 9.485284,
          "velocity": 0.7559055118110236
        },
        {
          "duration": 0.44025688333333335,
          "durationTicks": 479,
          "midi": 33,
          "name": "A1",
          "ticks": 10560,
          "time": 9.705872,
          "velocity": 0.7559055118110236
        },
        {
          "duration": 0.21966888333333223,
          "durationTicks": 239,
          "midi": 28,
          "name": "E1",
          "ticks": 11280,
          "time": 10.367636000000001,
          "velocity": 0.7559055118110236
        },
        {
          "duration": 0.21966888333333223,
          "durationTicks": 239,
          "midi": 35,
          "name": "B1",
          "ticks": 11520,
          "time": 10.588224,
          "velocity": 0.7559055118110236
        },
        {
          "duration": 0.10937488333333256,
          "durationTicks": 119,
          "midi": 33,
          "name": "A1",
          "ticks": 11760,
          "time": 10.808812,
          "velocity": 0.7559055118110236
        },
        {
          "duration": 0.21966888333333223,
          "durationTicks": 239,
          "midi": 35,
          "name": "B1",
          "ticks": 11880,
          "time": 10.919106000000001,
          "velocity": 0.7559055118110236
        },
        {
          "duration": 0.10937488333333256,
          "durationTicks": 119,
          "midi": 33,
          "name": "A1",
          "ticks": 12120,
          "time": 11.139694,
          "velocity": 0.7559055118110236
        },
        {
          "duration": 0.21966888333333223,
          "durationTicks": 239,
          "midi": 38,
          "name": "D2",
          "ticks": 12240,
          "time": 11.249988,
          "velocity": 0.7559055118110236
        },
        {
          "duration": 0.21966888333333223,
          "durationTicks": 239,
          "midi": 28,
          "name": "E1",
          "ticks": 12480,
          "time": 11.470576000000001,
          "velocity": 0.7559055118110236
        },
        {
          "duration": 0.21966888333333223,
          "durationTicks": 239,
          "midi": 40,
          "name": "E2",
          "ticks": 12720,
          "time": 11.691164,
          "velocity": 0.7559055118110236
        },
        {
          "duration": 0.21966888333333223,
          "durationTicks": 239,
          "midi": 30,
          "name": "F#1",
          "ticks": 12960,
          "time": 11.911752,
          "velocity": 0.7559055118110236
        },
        {
          "duration": 0.21966888333333223,
          "durationTicks": 239,
          "midi": 42,
          "name": "F#2",
          "ticks": 13200,
          "time": 12.132340000000001,
          "velocity": 0.7559055118110236
        },
        {
          "duration": 0.21966888333333223,
          "durationTicks": 239,
          "midi": 31,
          "name": "G1",
          "ticks": 13440,
          "time": 12.352928,
          "velocity": 0.7559055118110236
        },
        {
          "duration": 0.10937488333333256,
          "durationTicks": 119,
          "midi": 28,
          "name": "E1",
          "ticks": 13680,
          "time": 12.573516,
          "velocity": 0.7559055118110236
        },
        {
          "duration": 0.21966888333333223,
          "durationTicks": 239,
          "midi": 31,
          "name": "G1",
          "ticks": 13800,
          "time": 12.683810000000001,
          "velocity": 0.7559055118110236
        },
        {
          "duration": 0.10937488333333256,
          "durationTicks": 119,
          "midi": 28,
          "name": "E1",
          "ticks": 14040,
          "time": 12.904398,
          "velocity": 0.7559055118110236
        },
        {
          "duration": 0.21966888333333223,
          "durationTicks": 239,
          "midi": 32,
          "name": "G#1",
          "ticks": 14160,
          "time": 13.014692,
          "velocity": 0.7559055118110236
        },
        {
          "duration": 0.44025688333333335,
          "durationTicks": 479,
          "midi": 33,
          "name": "A1",
          "ticks": 14400,
          "time": 13.23528,
          "velocity": 0.7559055118110236
        },
        {
          "duration": 0.21966888333333223,
          "durationTicks": 239,
          "midi": 28,
          "name": "E1",
          "ticks": 15120,
          "time": 13.897044000000001,
          "velocity": 0.7559055118110236
        },
        {
          "duration": 0.219668883333334,
          "durationTicks": 239,
          "midi": 33,
          "name": "A1",
          "ticks": 15360,
          "time": 14.117632,
          "velocity": 0.7559055118110236
        },
        {
          "duration": 0.10937488333333434,
          "durationTicks": 119,
          "midi": 28,
          "name": "E1",
          "ticks": 15600,
          "time": 14.33822,
          "velocity": 0.7559055118110236
        },
        {
          "duration": 0.219668883333334,
          "durationTicks": 239,
          "midi": 33,
          "name": "A1",
          "ticks": 15720,
          "time": 14.448514000000001,
          "velocity": 0.7559055118110236
        },
        {
          "duration": 0.10937488333333434,
          "durationTicks": 119,
          "midi": 28,
          "name": "E1",
          "ticks": 15960,
          "time": 14.669102,
          "velocity": 0.7559055118110236
        },
        {
          "duration": 0.8814328833333338,
          "durationTicks": 959,
          "midi": 31,
          "name": "G1",
          "ticks": 16080,
          "time": 14.779396,
          "velocity": 0.7559055118110236
        },
        {
          "duration": 0.4402568833333351,
          "durationTicks": 479,
          "midi": 36,
          "name": "C2",
          "ticks": 17040,
          "time": 15.661748000000001,
          "velocity": 0.7559055118110236
        },
        {
          "duration": 0.219668883333334,
          "durationTicks": 239,
          "midi": 33,
          "name": "A1",
          "ticks": 17520,
          "time": 16.102924,
          "velocity": 0.7559055118110236
        },
        {
          "duration": 0.219668883333334,
          "durationTicks": 239,
          "midi": 36,
          "name": "C2",
          "ticks": 17760,
          "time": 16.323512,
          "velocity": 0.7559055118110236
        },
        {
          "duration": 0.44025688333333335,
          "durationTicks": 479,
          "midi": 42,
          "name": "F#2",
          "ticks": 18000,
          "time": 16.5441,
          "velocity": 0.7559055118110236
        },
        {
          "duration": 0.219668883333334,
          "durationTicks": 239,
          "midi": 33,
          "name": "A1",
          "ticks": 18480,
          "time": 16.985276,
          "velocity": 0.7559055118110236
        },
        {
          "duration": 0.219668883333334,
          "durationTicks": 239,
          "midi": 34,
          "name": "A#1",
          "ticks": 18720,
          "time": 17.205864000000002,
          "velocity": 0.7559055118110236
        },
        {
          "duration": 0.219668883333334,
          "durationTicks": 239,
          "midi": 35,
          "name": "B1",
          "ticks": 18960,
          "time": 17.426452,
          "velocity": 0.7559055118110236
        },
        {
          "duration": 0.219668883333334,
          "durationTicks": 239,
          "midi": 35,
          "name": "B1",
          "ticks": 19440,
          "time": 17.867628,
          "velocity": 0.7559055118110236
        },
        {
          "duration": 0.10937488333333434,
          "durationTicks": 119,
          "midi": 35,
          "name": "B1",
          "ticks": 19680,
          "time": 18.088216,
          "velocity": 0.7559055118110236
        },
        {
          "duration": 0.10937488333333434,
          "durationTicks": 119,
          "midi": 33,
          "name": "A1",
          "ticks": 19800,
          "time": 18.19851,
          "velocity": 0.7559055118110236
        },
        {
          "duration": 0.219668883333334,
          "durationTicks": 239,
          "midi": 31,
          "name": "G1",
          "ticks": 19920,
          "time": 18.308804000000002,
          "velocity": 0.7559055118110236
        },
        {
          "duration": 0.219668883333334,
          "durationTicks": 239,
          "midi": 28,
          "name": "E1",
          "ticks": 20160,
          "time": 18.529392,
          "velocity": 0.7559055118110236
        },
        {
          "duration": 0.219668883333334,
          "durationTicks": 239,
          "midi": 40,
          "name": "E2",
          "ticks": 20400,
          "time": 18.74998,
          "velocity": 0.7559055118110236
        },
        {
          "duration": 0.219668883333334,
          "durationTicks": 239,
          "midi": 30,
          "name": "F#1",
          "ticks": 20640,
          "time": 18.970568,
          "velocity": 0.7559055118110236
        },
        {
          "duration": 0.219668883333334,
          "durationTicks": 239,
          "midi": 42,
          "name": "F#2",
          "ticks": 20880,
          "time": 19.191156,
          "velocity": 0.7559055118110236
        },
        {
          "duration": 0.21966888333333756,
          "durationTicks": 239,
          "midi": 31,
          "name": "G1",
          "ticks": 21120,
          "time": 19.411744,
          "velocity": 0.7559055118110236
        },
        {
          "duration": 0.10937488333333434,
          "durationTicks": 119,
          "midi": 28,
          "name": "E1",
          "ticks": 21360,
          "time": 19.632332,
          "velocity": 0.7559055118110236
        },
        {
          "duration": 0.219668883333334,
          "durationTicks": 239,
          "midi": 31,
          "name": "G1",
          "ticks": 21480,
          "time": 19.742626,
          "velocity": 0.7559055118110236
        },
        {
          "duration": 0.10937488333333434,
          "durationTicks": 119,
          "midi": 28,
          "name": "E1",
          "ticks": 21720,
          "time": 19.963214,
          "velocity": 0.7559055118110236
        },
        {
          "duration": 0.219668883333334,
          "durationTicks": 239,
          "midi": 32,
          "name": "G#1",
          "ticks": 21840,
          "time": 20.073508,
          "velocity": 0.7559055118110236
        },
        {
          "duration": 0.44025688333333335,
          "durationTicks": 479,
          "midi": 33,
          "name": "A1",
          "ticks": 22080,
          "time": 20.294096,
          "velocity": 0.7559055118110236
        },
        {
          "duration": 0.219668883333334,
          "durationTicks": 239,
          "midi": 28,
          "name": "E1",
          "ticks": 22800,
          "time": 20.95586,
          "velocity": 0.7559055118110236
        },
        {
          "duration": 0.219668883333334,
          "durationTicks": 239,
          "midi": 33,
          "name": "A1",
          "ticks": 23040,
          "time": 21.176448,
          "velocity": 0.7559055118110236
        },
        {
          "duration": 0.10937488333333434,
          "durationTicks": 119,
          "midi": 28,
          "name": "E1",
          "ticks": 23280,
          "time": 21.397036,
          "velocity": 0.7559055118110236
        },
        {
          "duration": 0.219668883333334,
          "durationTicks": 239,
          "midi": 33,
          "name": "A1",
          "ticks": 23400,
          "time": 21.50733,
          "velocity": 0.7559055118110236
        },
        {
          "duration": 0.10937488333333434,
          "durationTicks": 119,
          "midi": 28,
          "name": "E1",
          "ticks": 23640,
          "time": 21.727918,
          "velocity": 0.7559055118110236
        },
        {
          "duration": 0.219668883333334,
          "durationTicks": 239,
          "midi": 31,
          "name": "G1",
          "ticks": 23760,
          "time": 21.838212000000002,
          "velocity": 0.7559055118110236
        },
        {
          "duration": 0.219668883333334,
          "durationTicks": 239,
          "midi": 28,
          "name": "E1",
          "ticks": 24000,
          "time": 22.0588,
          "velocity": 0.7559055118110236
        },
        {
          "duration": 0.219668883333334,
          "durationTicks": 239,
          "midi": 40,
          "name": "E2",
          "ticks": 24240,
          "time": 22.279388,
          "velocity": 0.7559055118110236
        },
        {
          "duration": 0.219668883333334,
          "durationTicks": 239,
          "midi": 30,
          "name": "F#1",
          "ticks": 24480,
          "time": 22.499976,
          "velocity": 0.7559055118110236
        },
        {
          "duration": 0.219668883333334,
          "durationTicks": 239,
          "midi": 42,
          "name": "F#2",
          "ticks": 24720,
          "time": 22.720564,
          "velocity": 0.7559055118110236
        },
        {
          "duration": 0.219668883333334,
          "durationTicks": 239,
          "midi": 31,
          "name": "G1",
          "ticks": 24960,
          "time": 22.941152000000002,
          "velocity": 0.7559055118110236
        },
        {
          "duration": 0.10937488333333434,
          "durationTicks": 119,
          "midi": 28,
          "name": "E1",
          "ticks": 25200,
          "time": 23.16174,
          "velocity": 0.7559055118110236
        },
        {
          "duration": 0.219668883333334,
          "durationTicks": 239,
          "midi": 31,
          "name": "G1",
          "ticks": 25320,
          "time": 23.272034,
          "velocity": 0.7559055118110236
        },
        {
          "duration": 0.10937488333333434,
          "durationTicks": 119,
          "midi": 28,
          "name": "E1",
          "ticks": 25560,
          "time": 23.492622,
          "velocity": 0.7559055118110236
        },
        {
          "duration": 0.219668883333334,
          "durationTicks": 239,
          "midi": 32,
          "name": "G#1",
          "ticks": 25680,
          "time": 23.602916,
          "velocity": 0.7559055118110236
        },
        {
          "duration": 0.44025688333333335,
          "durationTicks": 479,
          "midi": 33,
          "name": "A1",
          "ticks": 25920,
          "time": 23.823504,
          "velocity": 0.7559055118110236
        },
        {
          "duration": 0.219668883333334,
          "durationTicks": 239,
          "midi": 34,
          "name": "A#1",
          "ticks": 26640,
          "time": 24.485268,
          "velocity": 0.7559055118110236
        },
        {
          "duration": 0.219668883333334,
          "durationTicks": 239,
          "midi": 35,
          "name": "B1",
          "ticks": 26880,
          "time": 24.705856,
          "velocity": 0.7559055118110236
        },
        {
          "duration": 0.219668883333334,
          "durationTicks": 239,
          "midi": 36,
          "name": "C2",
          "ticks": 27120,
          "time": 24.926444,
          "velocity": 0.7559055118110236
        },
        {
          "duration": 0.219668883333334,
          "durationTicks": 239,
          "midi": 37,
          "name": "C#2",
          "ticks": 27360,
          "time": 25.147032,
          "velocity": 0.7559055118110236
        },
        {
          "duration": 0.219668883333334,
          "durationTicks": 239,
          "midi": 39,
          "name": "D#2",
          "ticks": 27600,
          "time": 25.367620000000002,
          "velocity": 0.7559055118110236
        },
        {
          "duration": 0.6608448833333327,
          "durationTicks": 719,
          "midi": 40,
          "name": "E2",
          "ticks": 27840,
          "time": 25.588208,
          "velocity": 0.7559055118110236
        },
        {
          "duration": 0.4402568833333369,
          "durationTicks": 479,
          "midi": 38,
          "name": "D2",
          "ticks": 28560,
          "time": 26.249972,
          "velocity": 0.7559055118110236
        },
        {
          "duration": 0.219668883333334,
          "durationTicks": 239,
          "midi": 31,
          "name": "G1",
          "ticks": 29040,
          "time": 26.691148000000002,
          "velocity": 0.7559055118110236
        },
        {
          "duration": 0.219668883333334,
          "durationTicks": 239,
          "midi": 35,
          "name": "B1",
          "ticks": 29280,
          "time": 26.911736,
          "velocity": 0.7559055118110236
        },
        {
          "duration": 0.219668883333334,
          "durationTicks": 239,
          "midi": 38,
          "name": "D2",
          "ticks": 29520,
          "time": 27.132324,
          "velocity": 0.7559055118110236
        },
        {
          "duration": 0.6608448833333362,
          "durationTicks": 719,
          "midi": 36,
          "name": "C2",
          "ticks": 29760,
          "time": 27.352912,
          "velocity": 0.7559055118110236
        },
        {
          "duration": 0.44025688333333335,
          "durationTicks": 479,
          "midi": 31,
          "name": "G1",
          "ticks": 30480,
          "time": 28.014676,
          "velocity": 0.7559055118110236
        },
        {
          "duration": 0.219668883333334,
          "durationTicks": 239,
          "midi": 31,
          "name": "G1",
          "ticks": 30960,
          "time": 28.455852,
          "velocity": 0.7559055118110236
        },
        {
          "duration": 0.219668883333334,
          "durationTicks": 239,
          "midi": 31,
          "name": "G1",
          "ticks": 31200,
          "time": 28.67644,
          "velocity": 0.7559055118110236
        },
        {
          "duration": 0.219668883333334,
          "durationTicks": 239,
          "midi": 31,
          "name": "G1",
          "ticks": 31440,
          "time": 28.897028000000002,
          "velocity": 0.7559055118110236
        },
        {
          "duration": 0.44025688333333335,
          "durationTicks": 479,
          "midi": 37,
          "name": "C#2",
          "ticks": 31680,
          "time": 29.117616,
          "velocity": 0.7559055118110236
        },
        {
          "duration": 0.44025688333333335,
          "durationTicks": 479,
          "midi": 37,
          "name": "C#2",
          "ticks": 32160,
          "time": 29.558792,
          "velocity": 0.7559055118110236
        },
        {
          "duration": 0.44025688333333335,
          "durationTicks": 479,
          "midi": 37,
          "name": "C#2",
          "ticks": 32640,
          "time": 29.999968000000003,
          "velocity": 0.7559055118110236
        },
        {
          "duration": 0.219668883333334,
          "durationTicks": 239,
          "midi": 33,
          "name": "A1",
          "ticks": 33120,
          "time": 30.441144,
          "velocity": 0.7559055118110236
        },
        {
          "duration": 0.219668883333334,
          "durationTicks": 239,
          "midi": 37,
          "name": "C#2",
          "ticks": 33360,
          "time": 30.661732,
          "velocity": 0.7559055118110236
        },
        {
          "duration": 0.44025688333333335,
          "durationTicks": 479,
          "midi": 38,
          "name": "D2",
          "ticks": 33600,
          "time": 30.88232,
          "velocity": 0.7559055118110236
        },
        {
          "duration": 0.44025688333333335,
          "durationTicks": 479,
          "midi": 38,
          "name": "D2",
          "ticks": 34080,
          "time": 31.323496000000002,
          "velocity": 0.7559055118110236
        },
        {
          "duration": 0.219668883333334,
          "durationTicks": 239,
          "midi": 38,
          "name": "D2",
          "ticks": 34560,
          "time": 31.764672,
          "velocity": 0.7559055118110236
        },
        {
          "duration": 0.21966888333333756,
          "durationTicks": 239,
          "midi": 38,
          "name": "D2",
          "ticks": 34800,
          "time": 31.98526,
          "velocity": 0.7559055118110236
        },
        {
          "duration": 0.219668883333334,
          "durationTicks": 239,
          "midi": 36,
          "name": "C2",
          "ticks": 35040,
          "time": 32.205848,
          "velocity": 0.7559055118110236
        },
        {
          "duration": 0.219668883333334,
          "durationTicks": 239,
          "midi": 36,
          "name": "C2",
          "ticks": 35280,
          "time": 32.426436,
          "velocity": 0.7559055118110236
        },
        {
          "duration": 0.219668883333334,
          "durationTicks": 239,
          "midi": 35,
          "name": "B1",
          "ticks": 35520,
          "time": 32.647024,
          "velocity": 0.7559055118110236
        },
        {
          "duration": 0.219668883333334,
          "durationTicks": 239,
          "midi": 35,
          "name": "B1",
          "ticks": 36000,
          "time": 33.0882,
          "velocity": 0.7559055118110236
        },
        {
          "duration": 0.219668883333334,
          "durationTicks": 239,
          "midi": 35,
          "name": "B1",
          "ticks": 36240,
          "time": 33.308788,
          "velocity": 0.7559055118110236
        },
        {
          "duration": 0.32996288333333723,
          "durationTicks": 359,
          "midi": 36,
          "name": "C2",
          "ticks": 36480,
          "time": 33.529376,
          "velocity": 0.7559055118110236
        },
        {
          "duration": 0.10937488333333079,
          "durationTicks": 119,
          "midi": 36,
          "name": "C2",
          "ticks": 36840,
          "time": 33.860258,
          "velocity": 0.7559055118110236
        },
        {
          "duration": 0.44025688333333335,
          "durationTicks": 479,
          "midi": 26,
          "name": "D1",
          "ticks": 37200,
          "time": 34.191140000000004,
          "velocity": 0.7559055118110236
        },
        {
          "duration": 0.219668883333334,
          "durationTicks": 239,
          "midi": 26,
          "name": "D1",
          "ticks": 37680,
          "time": 34.632316,
          "velocity": 0.7559055118110236
        },
        {
          "duration": 0.219668883333334,
          "durationTicks": 239,
          "midi": 26,
          "name": "D1",
          "ticks": 37920,
          "time": 34.852904,
          "velocity": 0.7559055118110236
        },
        {
          "duration": 0.219668883333334,
          "durationTicks": 239,
          "midi": 26,
          "name": "D1",
          "ticks": 38160,
          "time": 35.073492,
          "velocity": 0.7559055118110236
        },
        {
          "duration": 0.219668883333334,
          "durationTicks": 239,
          "midi": 28,
          "name": "E1",
          "ticks": 38400,
          "time": 35.29408,
          "velocity": 0.7559055118110236
        },
        {
          "duration": 0.219668883333334,
          "durationTicks": 239,
          "midi": 30,
          "name": "F#1",
          "ticks": 38640,
          "time": 35.514668,
          "velocity": 0.7559055118110236
        },
        {
          "duration": 0.219668883333334,
          "durationTicks": 239,
          "midi": 31,
          "name": "G1",
          "ticks": 38880,
          "time": 35.735256,
          "velocity": 0.7559055118110236
        },
        {
          "duration": 0.219668883333334,
          "durationTicks": 239,
          "midi": 28,
          "name": "E1",
          "ticks": 39120,
          "time": 35.955844,
          "velocity": 0.7559055118110236
        },
        {
          "duration": 0.219668883333334,
          "durationTicks": 239,
          "midi": 35,
          "name": "B1",
          "ticks": 39360,
          "time": 36.176432,
          "velocity": 0.7559055118110236
        },
        {
          "duration": 0.219668883333334,
          "durationTicks": 239,
          "midi": 35,
          "name": "B1",
          "ticks": 39840,
          "time": 36.617608000000004,
          "velocity": 0.7559055118110236
        },
        {
          "duration": 0.219668883333334,
          "durationTicks": 239,
          "midi": 35,
          "name": "B1",
          "ticks": 40080,
          "time": 36.838196,
          "velocity": 0.7559055118110236
        },
        {
          "duration": 0.3299628833333301,
          "durationTicks": 359,
          "midi": 36,
          "name": "C2",
          "ticks": 40320,
          "time": 37.058784,
          "velocity": 0.7559055118110236
        },
        {
          "duration": 0.10937488333333789,
          "durationTicks": 119,
          "midi": 36,
          "name": "C2",
          "ticks": 40680,
          "time": 37.389666,
          "velocity": 0.7559055118110236
        },
        {
          "duration": 0.44025688333333335,
          "durationTicks": 479,
          "midi": 38,
          "name": "D2",
          "ticks": 41040,
          "time": 37.720548,
          "velocity": 0.7559055118110236
        },
        {
          "duration": 0.219668883333334,
          "durationTicks": 239,
          "midi": 26,
          "name": "D1",
          "ticks": 41520,
          "time": 38.161724,
          "velocity": 0.7559055118110236
        },
        {
          "duration": 0.219668883333334,
          "durationTicks": 239,
          "midi": 38,
          "name": "D2",
          "ticks": 41760,
          "time": 38.382312,
          "velocity": 0.7559055118110236
        },
        {
          "duration": 0.219668883333334,
          "durationTicks": 239,
          "midi": 26,
          "name": "D1",
          "ticks": 42000,
          "time": 38.6029,
          "velocity": 0.7559055118110236
        },
        {
          "duration": 0.21966888333334111,
          "durationTicks": 239,
          "midi": 38,
          "name": "D2",
          "ticks": 42240,
          "time": 38.823488,
          "velocity": 0.7559055118110236
        },
        {
          "duration": 0.219668883333334,
          "durationTicks": 239,
          "midi": 38,
          "name": "D2",
          "ticks": 42480,
          "time": 39.044076000000004,
          "velocity": 0.7559055118110236
        },
        {
          "duration": 0.219668883333334,
          "durationTicks": 239,
          "midi": 36,
          "name": "C2",
          "ticks": 42720,
          "time": 39.264664,
          "velocity": 0.7559055118110236
        },
        {
          "duration": 0.219668883333334,
          "durationTicks": 239,
          "midi": 36,
          "name": "C2",
          "ticks": 42960,
          "time": 39.485252,
          "velocity": 0.7559055118110236
        },
        {
          "duration": 0.44025688333333335,
          "durationTicks": 479,
          "midi": 35,
          "name": "B1",
          "ticks": 43200,
          "time": 39.70584,
          "velocity": 0.7559055118110236
        },
        {
          "duration": 0.219668883333334,
          "durationTicks": 239,
          "midi": 35,
          "name": "B1",
          "ticks": 43680,
          "time": 40.147016,
          "velocity": 0.7559055118110236
        },
        {
          "duration": 0.219668883333334,
          "durationTicks": 239,
          "midi": 35,
          "name": "B1",
          "ticks": 43920,
          "time": 40.367604,
          "velocity": 0.7559055118110236
        },
        {
          "duration": 0.32996288333333723,
          "durationTicks": 359,
          "midi": 36,
          "name": "C2",
          "ticks": 44160,
          "time": 40.588192,
          "velocity": 0.7559055118110236
        },
        {
          "duration": 0.10937488333333079,
          "durationTicks": 119,
          "midi": 36,
          "name": "C2",
          "ticks": 44520,
          "time": 40.919074,
          "velocity": 0.7559055118110236
        },
        {
          "duration": 0.6608448833333327,
          "durationTicks": 719,
          "midi": 38,
          "name": "D2",
          "ticks": 44880,
          "time": 41.249956000000005,
          "velocity": 0.7559055118110236
        },
        {
          "duration": 0.44025688333333335,
          "durationTicks": 479,
          "midi": 39,
          "name": "D#2",
          "ticks": 45600,
          "time": 41.91172,
          "velocity": 0.7559055118110236
        },
        {
          "duration": 0.219668883333334,
          "durationTicks": 239,
          "midi": 40,
          "name": "E2",
          "ticks": 46080,
          "time": 42.352896,
          "velocity": 0.7559055118110236
        },
        {
          "duration": 0.219668883333334,
          "durationTicks": 239,
          "midi": 35,
          "name": "B1",
          "ticks": 46320,
          "time": 42.573484,
          "velocity": 0.7559055118110236
        },
        {
          "duration": 0.219668883333334,
          "durationTicks": 239,
          "midi": 40,
          "name": "E2",
          "ticks": 46560,
          "time": 42.794072,
          "velocity": 0.7559055118110236
        },
        {
          "duration": 0.219668883333334,
          "durationTicks": 239,
          "midi": 41,
          "name": "F2",
          "ticks": 46800,
          "time": 43.01466,
          "velocity": 0.7559055118110236
        },
        {
          "duration": 0.219668883333334,
          "durationTicks": 239,
          "midi": 41,
          "name": "F2",
          "ticks": 47040,
          "time": 43.235248,
          "velocity": 0.7559055118110236
        },
        {
          "duration": 0.219668883333334,
          "durationTicks": 239,
          "midi": 36,
          "name": "C2",
          "ticks": 47280,
          "time": 43.455836,
          "velocity": 0.7559055118110236
        },
        {
          "duration": 0.219668883333334,
          "durationTicks": 239,
          "midi": 41,
          "name": "F2",
          "ticks": 47520,
          "time": 43.676424000000004,
          "velocity": 0.7559055118110236
        },
        {
          "duration": 0.219668883333334,
          "durationTicks": 239,
          "midi": 40,
          "name": "E2",
          "ticks": 47760,
          "time": 43.897012000000004,
          "velocity": 0.7559055118110236
        },
        {
          "duration": 0.219668883333334,
          "durationTicks": 239,
          "midi": 36,
          "name": "C2",
          "ticks": 48240,
          "time": 44.338188,
          "velocity": 0.7559055118110236
        },
        {
          "duration": 0.44025688333333335,
          "durationTicks": 479,
          "midi": 26,
          "name": "D1",
          "ticks": 48720,
          "time": 44.779364,
          "velocity": 0.9921259842519685
        },
        {
          "duration": 0.219668883333334,
          "durationTicks": 239,
          "midi": 38,
          "name": "D2",
          "ticks": 49200,
          "time": 45.22054,
          "velocity": 0.9921259842519685
        },
        {
          "duration": 0.219668883333334,
          "durationTicks": 239,
          "midi": 26,
          "name": "D1",
          "ticks": 49440,
          "time": 45.441128,
          "velocity": 0.9921259842519685
        },
        {
          "duration": 0.219668883333334,
          "durationTicks": 239,
          "midi": 38,
          "name": "D2",
          "ticks": 49680,
          "time": 45.661716,
          "velocity": 0.9921259842519685
        },
        {
          "duration": 0.219668883333334,
          "durationTicks": 239,
          "midi": 38,
          "name": "D2",
          "ticks": 49920,
          "time": 45.882304000000005,
          "velocity": 0.9921259842519685
        },
        {
          "duration": 0.219668883333334,
          "durationTicks": 239,
          "midi": 33,
          "name": "A1",
          "ticks": 50160,
          "time": 46.102892000000004,
          "velocity": 0.9921259842519685
        },
        {
          "duration": 0.219668883333334,
          "durationTicks": 239,
          "midi": 38,
          "name": "D2",
          "ticks": 50400,
          "time": 46.32348,
          "velocity": 0.9921259842519685
        },
        {
          "duration": 0.44025688333333335,
          "durationTicks": 479,
          "midi": 40,
          "name": "E2",
          "ticks": 50640,
          "time": 46.544068,
          "velocity": 0.9921259842519685
        },
        {
          "duration": 0.10937488333333079,
          "durationTicks": 119,
          "midi": 40,
          "name": "E2",
          "ticks": 51120,
          "time": 46.985244,
          "velocity": 0.9921259842519685
        },
        {
          "duration": 0.10937488333333789,
          "durationTicks": 119,
          "midi": 40,
          "name": "E2",
          "ticks": 51360,
          "time": 47.205832,
          "velocity": 0.9921259842519685
        },
        {
          "duration": 0.10937488333333789,
          "durationTicks": 119,
          "midi": 40,
          "name": "E2",
          "ticks": 51600,
          "time": 47.42642,
          "velocity": 0.9921259842519685
        },
        {
          "duration": 0.219668883333334,
          "durationTicks": 239,
          "midi": 40,
          "name": "E2",
          "ticks": 51840,
          "time": 47.647008,
          "velocity": 0.9921259842519685
        },
        {
          "duration": 0.44025688333333335,
          "durationTicks": 479,
          "midi": 36,
          "name": "C2",
          "ticks": 52800,
          "time": 48.529360000000004,
          "velocity": 0.9921259842519685
        },
        {
          "duration": 0.3299628833333301,
          "durationTicks": 359,
          "midi": 36,
          "name": "C2",
          "ticks": 53280,
          "time": 48.970536,
          "velocity": 0.9921259842519685
        },
        {
          "duration": 0.10937488333333789,
          "durationTicks": 119,
          "midi": 31,
          "name": "G1",
          "ticks": 53640,
          "time": 49.301418,
          "velocity": 0.9921259842519685
        },
        {
          "duration": 0.219668883333334,
          "durationTicks": 239,
          "midi": 36,
          "name": "C2",
          "ticks": 53760,
          "time": 49.411712,
          "velocity": 0.9921259842519685
        },
        {
          "duration": 0.219668883333334,
          "durationTicks": 239,
          "midi": 31,
          "name": "G1",
          "ticks": 54000,
          "time": 49.6323,
          "velocity": 0.9921259842519685
        },
        {
          "duration": 0.219668883333334,
          "durationTicks": 239,
          "midi": 33,
          "name": "A1",
          "ticks": 54240,
          "time": 49.852888,
          "velocity": 0.9921259842519685
        },
        {
          "duration": 0.219668883333334,
          "durationTicks": 239,
          "midi": 34,
          "name": "A#1",
          "ticks": 54480,
          "time": 50.073476,
          "velocity": 0.9921259842519685
        },
        {
          "duration": 0.219668883333334,
          "durationTicks": 239,
          "midi": 35,
          "name": "B1",
          "ticks": 54720,
          "time": 50.294064,
          "velocity": 0.9921259842519685
        },
        {
          "duration": 0.44025688333334045,
          "durationTicks": 479,
          "midi": 35,
          "name": "B1",
          "ticks": 54960,
          "time": 50.514652,
          "velocity": 0.9921259842519685
        },
        {
          "duration": 0.44025688333333335,
          "durationTicks": 479,
          "midi": 28,
          "name": "E1",
          "ticks": 55440,
          "time": 50.955828000000004,
          "velocity": 0.9921259842519685
        },
        {
          "duration": 0.219668883333334,
          "durationTicks": 239,
          "midi": 30,
          "name": "F#1",
          "ticks": 55920,
          "time": 51.397004,
          "velocity": 0.9921259842519685
        },
        {
          "duration": 0.219668883333334,
          "durationTicks": 239,
          "midi": 31,
          "name": "G1",
          "ticks": 56160,
          "time": 51.617592,
          "velocity": 0.9921259842519685
        },
        {
          "duration": 0.219668883333334,
          "durationTicks": 239,
          "midi": 28,
          "name": "E1",
          "ticks": 56400,
          "time": 51.83818,
          "velocity": 0.9921259842519685
        },
        {
          "duration": 0.44025688333333335,
          "durationTicks": 479,
          "midi": 36,
          "name": "C2",
          "ticks": 56640,
          "time": 52.058768,
          "velocity": 0.9921259842519685
        },
        {
          "duration": 0.32996288333333723,
          "durationTicks": 359,
          "midi": 36,
          "name": "C2",
          "ticks": 57120,
          "time": 52.499944,
          "velocity": 0.9921259842519685
        },
        {
          "duration": 0.10937488333333079,
          "durationTicks": 119,
          "midi": 31,
          "name": "G1",
          "ticks": 57480,
          "time": 52.830826,
          "velocity": 0.9921259842519685
        },
        {
          "duration": 0.21966888333334111,
          "durationTicks": 239,
          "midi": 36,
          "name": "C2",
          "ticks": 57600,
          "time": 52.94112,
          "velocity": 0.9921259842519685
        },
        {
          "duration": 0.219668883333334,
          "durationTicks": 239,
          "midi": 31,
          "name": "G1",
          "ticks": 57840,
          "time": 53.161708000000004,
          "velocity": 0.9921259842519685
        },
        {
          "duration": 0.219668883333334,
          "durationTicks": 239,
          "midi": 33,
          "name": "A1",
          "ticks": 58080,
          "time": 53.382296000000004,
          "velocity": 0.9921259842519685
        },
        {
          "duration": 0.219668883333334,
          "durationTicks": 239,
          "midi": 36,
          "name": "C2",
          "ticks": 58320,
          "time": 53.602884,
          "velocity": 0.9921259842519685
        },
        {
          "duration": 0.219668883333334,
          "durationTicks": 239,
          "midi": 38,
          "name": "D2",
          "ticks": 58560,
          "time": 53.823472,
          "velocity": 0.9921259842519685
        },
        {
          "duration": 0.219668883333334,
          "durationTicks": 239,
          "midi": 29,
          "name": "F1",
          "ticks": 58800,
          "time": 54.04406,
          "velocity": 0.9921259842519685
        },
        {
          "duration": 0.219668883333334,
          "durationTicks": 239,
          "midi": 30,
          "name": "F#1",
          "ticks": 59040,
          "time": 54.264648,
          "velocity": 0.9921259842519685
        },
        {
          "duration": 0.44025688333333335,
          "durationTicks": 479,
          "midi": 31,
          "name": "G1",
          "ticks": 59280,
          "time": 54.485236,
          "velocity": 0.9921259842519685
        },
        {
          "duration": 0.219668883333334,
          "durationTicks": 239,
          "midi": 33,
          "name": "A1",
          "ticks": 59760,
          "time": 54.926412,
          "velocity": 0.9921259842519685
        },
        {
          "duration": 0.219668883333334,
          "durationTicks": 239,
          "midi": 35,
          "name": "B1",
          "ticks": 60000,
          "time": 55.147,
          "velocity": 0.9921259842519685
        },
        {
          "duration": 0.219668883333334,
          "durationTicks": 239,
          "midi": 31,
          "name": "G1",
          "ticks": 60240,
          "time": 55.367588000000005,
          "velocity": 0.9921259842519685
        },
        {
          "duration": 0.44025688333333335,
          "durationTicks": 479,
          "midi": 36,
          "name": "C2",
          "ticks": 60480,
          "time": 55.588176000000004,
          "velocity": 0.9921259842519685
        },
        {
          "duration": 0.3299628833333301,
          "durationTicks": 359,
          "midi": 36,
          "name": "C2",
          "ticks": 60960,
          "time": 56.029352,
          "velocity": 0.9921259842519685
        },
        {
          "duration": 0.10937488333333789,
          "durationTicks": 119,
          "midi": 31,
          "name": "G1",
          "ticks": 61320,
          "time": 56.360234,
          "velocity": 0.9921259842519685
        },
        {
          "duration": 0.219668883333334,
          "durationTicks": 239,
          "midi": 36,
          "name": "C2",
          "ticks": 61440,
          "time": 56.470528,
          "velocity": 0.9921259842519685
        },
        {
          "duration": 0.219668883333334,
          "durationTicks": 239,
          "midi": 31,
          "name": "G1",
          "ticks": 61680,
          "time": 56.691116,
          "velocity": 0.9921259842519685
        },
        {
          "duration": 0.219668883333334,
          "durationTicks": 239,
          "midi": 38,
          "name": "D2",
          "ticks": 61920,
          "time": 56.911704,
          "velocity": 0.9921259842519685
        },
        {
          "duration": 0.219668883333334,
          "durationTicks": 239,
          "midi": 36,
          "name": "C2",
          "ticks": 62160,
          "time": 57.132292,
          "velocity": 0.9921259842519685
        },
        {
          "duration": 0.219668883333334,
          "durationTicks": 239,
          "midi": 35,
          "name": "B1",
          "ticks": 62400,
          "time": 57.35288,
          "velocity": 0.9921259842519685
        },
        {
          "duration": 0.219668883333334,
          "durationTicks": 239,
          "midi": 35,
          "name": "B1",
          "ticks": 62640,
          "time": 57.573468,
          "velocity": 0.9921259842519685
        },
        {
          "duration": 0.219668883333334,
          "durationTicks": 239,
          "midi": 38,
          "name": "D2",
          "ticks": 62880,
          "time": 57.794056000000005,
          "velocity": 0.9921259842519685
        },
        {
          "duration": 0.44025688333333335,
          "durationTicks": 479,
          "midi": 40,
          "name": "E2",
          "ticks": 63120,
          "time": 58.014644000000004,
          "velocity": 0.9921259842519685
        },
        {
          "duration": 0.219668883333334,
          "durationTicks": 239,
          "midi": 38,
          "name": "D2",
          "ticks": 63600,
          "time": 58.45582,
          "velocity": 0.9921259842519685
        },
        {
          "duration": 0.10937488333333079,
          "durationTicks": 119,
          "midi": 35,
          "name": "B1",
          "ticks": 63840,
          "time": 58.676408,
          "velocity": 0.9921259842519685
        },
        {
          "duration": 0.10937488333333789,
          "durationTicks": 119,
          "midi": 33,
          "name": "A1",
          "ticks": 63960,
          "time": 58.786702,
          "velocity": 0.9921259842519685
        },
        {
          "duration": 0.219668883333334,
          "durationTicks": 239,
          "midi": 31,
          "name": "G1",
          "ticks": 64080,
          "time": 58.896996,
          "velocity": 0.9921259842519685
        },
        {
          "duration": 0.219668883333334,
          "durationTicks": 239,
          "midi": 33,
          "name": "A1",
          "ticks": 64320,
          "time": 59.117584,
          "velocity": 0.9921259842519685
        },
        {
          "duration": 0.219668883333334,
          "durationTicks": 239,
          "midi": 33,
          "name": "A1",
          "ticks": 64560,
          "time": 59.338172,
          "velocity": 0.9921259842519685
        },
        {
          "duration": 0.219668883333334,
          "durationTicks": 239,
          "midi": 35,
          "name": "B1",
          "ticks": 64800,
          "time": 59.55876,
          "velocity": 0.9921259842519685
        },
        {
          "duration": 0.219668883333334,
          "durationTicks": 239,
          "midi": 33,
          "name": "A1",
          "ticks": 65040,
          "time": 59.779348,
          "velocity": 0.9921259842519685
        },
        {
          "duration": 0.219668883333334,
          "durationTicks": 239,
          "midi": 36,
          "name": "C2",
          "ticks": 65280,
          "time": 59.999936000000005,
          "velocity": 0.9921259842519685
        },
        {
          "duration": 0.219668883333334,
          "durationTicks": 239,
          "midi": 33,
          "name": "A1",
          "ticks": 65520,
          "time": 60.220524000000005,
          "velocity": 0.9921259842519685
        },
        {
          "duration": 0.219668883333334,
          "durationTicks": 239,
          "midi": 35,
          "name": "B1",
          "ticks": 65760,
          "time": 60.441112000000004,
          "velocity": 0.9921259842519685
        },
        {
          "duration": 0.219668883333334,
          "durationTicks": 239,
          "midi": 33,
          "name": "A1",
          "ticks": 66000,
          "time": 60.6617,
          "velocity": 0.9921259842519685
        },
        {
          "duration": 0.881432883333332,
          "durationTicks": 959,
          "midi": 36,
          "name": "C2",
          "ticks": 66240,
          "time": 60.882288,
          "velocity": 0.9921259842519685
        },
        {
          "duration": 0.6608448833333327,
          "durationTicks": 719,
          "midi": 38,
          "name": "D2",
          "ticks": 67200,
          "time": 61.76464,
          "velocity": 0.9921259842519685
        },
        {
          "duration": 0.881432883333332,
          "durationTicks": 959,
          "midi": 31,
          "name": "G1",
          "ticks": 67920,
          "time": 62.426404000000005,
          "velocity": 0.9921259842519685
        },
        {
          "duration": 0.44025688333333335,
          "durationTicks": 479,
          "midi": 36,
          "name": "C2",
          "ticks": 68880,
          "time": 63.308756,
          "velocity": 0.9921259842519685
        },
        {
          "duration": 0.219668883333334,
          "durationTicks": 239,
          "midi": 33,
          "name": "A1",
          "ticks": 69360,
          "time": 63.749932,
          "velocity": 0.9921259842519685
        },
        {
          "duration": 0.219668883333334,
          "durationTicks": 239,
          "midi": 36,
          "name": "C2",
          "ticks": 69600,
          "time": 63.97052,
          "velocity": 0.9921259842519685
        },
        {
          "duration": 0.44025688333333335,
          "durationTicks": 479,
          "midi": 42,
          "name": "F#2",
          "ticks": 69840,
          "time": 64.191108,
          "velocity": 0.9921259842519685
        },
        {
          "duration": 0.21966888333334111,
          "durationTicks": 239,
          "midi": 33,
          "name": "A1",
          "ticks": 70320,
          "time": 64.632284,
          "velocity": 0.9921259842519685
        },
        {
          "duration": 0.2196688833333269,
          "durationTicks": 239,
          "midi": 34,
          "name": "A#1",
          "ticks": 70560,
          "time": 64.852872,
          "velocity": 0.9921259842519685
        },
        {
          "duration": 0.44025688333333335,
          "durationTicks": 479,
          "midi": 35,
          "name": "B1",
          "ticks": 70800,
          "time": 65.07346,
          "velocity": 0.9921259842519685
        },
        {
          "duration": 0.21966888333334111,
          "durationTicks": 239,
          "midi": 35,
          "name": "B1",
          "ticks": 71280,
          "time": 65.514636,
          "velocity": 0.9921259842519685
        },
        {
          "duration": 0.10937488333333079,
          "durationTicks": 119,
          "midi": 35,
          "name": "B1",
          "ticks": 71520,
          "time": 65.735224,
          "velocity": 0.9921259842519685
        },
        {
          "duration": 0.10937488333333079,
          "durationTicks": 119,
          "midi": 33,
          "name": "A1",
          "ticks": 71640,
          "time": 65.845518,
          "velocity": 0.9921259842519685
        },
        {
          "duration": 0.10937488333333079,
          "durationTicks": 119,
          "midi": 31,
          "name": "G1",
          "ticks": 71760,
          "time": 65.95581200000001,
          "velocity": 0.9921259842519685
        },
        {
          "duration": 0.10937488333333079,
          "durationTicks": 119,
          "midi": 26,
          "name": "D1",
          "ticks": 71880,
          "time": 66.066106,
          "velocity": 0.9921259842519685
        },
        {
          "duration": 0.21966888333334111,
          "durationTicks": 239,
          "midi": 28,
          "name": "E1",
          "ticks": 72000,
          "time": 66.1764,
          "velocity": 0.7559055118110236
        },
        {
          "duration": 0.2196688833333269,
          "durationTicks": 239,
          "midi": 40,
          "name": "E2",
          "ticks": 72240,
          "time": 66.39698800000001,
          "velocity": 0.7559055118110236
        },
        {
          "duration": 0.21966888333334111,
          "durationTicks": 239,
          "midi": 30,
          "name": "F#1",
          "ticks": 72480,
          "time": 66.617576,
          "velocity": 0.7559055118110236
        },
        {
          "duration": 0.2196688833333269,
          "durationTicks": 239,
          "midi": 42,
          "name": "F#2",
          "ticks": 72720,
          "time": 66.838164,
          "velocity": 0.7559055118110236
        },
        {
          "duration": 0.21966888333334111,
          "durationTicks": 239,
          "midi": 31,
          "name": "G1",
          "ticks": 72960,
          "time": 67.058752,
          "velocity": 0.7559055118110236
        },
        {
          "duration": 0.10937488333333079,
          "durationTicks": 119,
          "midi": 28,
          "name": "E1",
          "ticks": 73200,
          "time": 67.27934,
          "velocity": 0.7559055118110236
        },
        {
          "duration": 0.21966888333334111,
          "durationTicks": 239,
          "midi": 31,
          "name": "G1",
          "ticks": 73320,
          "time": 67.389634,
          "velocity": 0.7559055118110236
        },
        {
          "duration": 0.10937488333333079,
          "durationTicks": 119,
          "midi": 28,
          "name": "E1",
          "ticks": 73560,
          "time": 67.61022200000001,
          "velocity": 0.7559055118110236
        },
        {
          "duration": 0.2196688833333269,
          "durationTicks": 239,
          "midi": 32,
          "name": "G#1",
          "ticks": 73680,
          "time": 67.720516,
          "velocity": 0.7559055118110236
        },
        {
          "duration": 0.44025688333333335,
          "durationTicks": 479,
          "midi": 33,
          "name": "A1",
          "ticks": 73920,
          "time": 67.941104,
          "velocity": 0.7559055118110236
        },
        {
          "duration": 0.21966888333334111,
          "durationTicks": 239,
          "midi": 28,
          "name": "E1",
          "ticks": 74640,
          "time": 68.602868,
          "velocity": 0.7559055118110236
        },
        {
          "duration": 0.2196688833333269,
          "durationTicks": 239,
          "midi": 33,
          "name": "A1",
          "ticks": 74880,
          "time": 68.82345600000001,
          "velocity": 0.7559055118110236
        },
        {
          "duration": 0.10937488333333079,
          "durationTicks": 119,
          "midi": 28,
          "name": "E1",
          "ticks": 75120,
          "time": 69.044044,
          "velocity": 0.7559055118110236
        },
        {
          "duration": 0.21966888333334111,
          "durationTicks": 239,
          "midi": 33,
          "name": "A1",
          "ticks": 75240,
          "time": 69.154338,
          "velocity": 0.7559055118110236
        },
        {
          "duration": 0.10937488333333079,
          "durationTicks": 119,
          "midi": 28,
          "name": "E1",
          "ticks": 75480,
          "time": 69.374926,
          "velocity": 0.7559055118110236
        },
        {
          "duration": 0.21966888333334111,
          "durationTicks": 239,
          "midi": 31,
          "name": "G1",
          "ticks": 75600,
          "time": 69.48522,
          "velocity": 0.7559055118110236
        },
        {
          "duration": 0.2196688833333269,
          "durationTicks": 239,
          "midi": 28,
          "name": "E1",
          "ticks": 75840,
          "time": 69.705808,
          "velocity": 0.7559055118110236
        },
        {
          "duration": 0.21966888333334111,
          "durationTicks": 239,
          "midi": 40,
          "name": "E2",
          "ticks": 76080,
          "time": 69.926396,
          "velocity": 0.7559055118110236
        },
        {
          "duration": 0.2196688833333269,
          "durationTicks": 239,
          "midi": 30,
          "name": "F#1",
          "ticks": 76320,
          "time": 70.146984,
          "velocity": 0.7559055118110236
        },
        {
          "duration": 0.21966888333334111,
          "durationTicks": 239,
          "midi": 42,
          "name": "F#2",
          "ticks": 76560,
          "time": 70.367572,
          "velocity": 0.7559055118110236
        },
        {
          "duration": 0.21966888333334111,
          "durationTicks": 239,
          "midi": 31,
          "name": "G1",
          "ticks": 76800,
          "time": 70.58816,
          "velocity": 0.7559055118110236
        },
        {
          "duration": 0.10937488333333079,
          "durationTicks": 119,
          "midi": 28,
          "name": "E1",
          "ticks": 77040,
          "time": 70.80874800000001,
          "velocity": 0.7559055118110236
        },
        {
          "duration": 0.2196688833333269,
          "durationTicks": 239,
          "midi": 31,
          "name": "G1",
          "ticks": 77160,
          "time": 70.919042,
          "velocity": 0.7559055118110236
        },
        {
          "duration": 0.109374883333345,
          "durationTicks": 119,
          "midi": 28,
          "name": "E1",
          "ticks": 77400,
          "time": 71.13963,
          "velocity": 0.7559055118110236
        },
        {
          "duration": 0.2196688833333269,
          "durationTicks": 239,
          "midi": 32,
          "name": "G#1",
          "ticks": 77520,
          "time": 71.24992400000001,
          "velocity": 0.7559055118110236
        },
        {
          "duration": 0.44025688333333335,
          "durationTicks": 479,
          "midi": 33,
          "name": "A1",
          "ticks": 77760,
          "time": 71.470512,
          "velocity": 0.7559055118110236
        },
        {
          "duration": 0.2196688833333269,
          "durationTicks": 239,
          "midi": 28,
          "name": "E1",
          "ticks": 78480,
          "time": 72.132276,
          "velocity": 0.7559055118110236
        },
        {
          "duration": 0.21966888333334111,
          "durationTicks": 239,
          "midi": 35,
          "name": "B1",
          "ticks": 78720,
          "time": 72.352864,
          "velocity": 0.7559055118110236
        },
        {
          "duration": 0.10937488333333079,
          "durationTicks": 119,
          "midi": 33,
          "name": "A1",
          "ticks": 78960,
          "time": 72.573452,
          "velocity": 0.7559055118110236
        },
        {
          "duration": 0.21966888333334111,
          "durationTicks": 239,
          "midi": 35,
          "name": "B1",
          "ticks": 79080,
          "time": 72.683746,
          "velocity": 0.7559055118110236
        },
        {
          "duration": 0.10937488333333079,
          "durationTicks": 119,
          "midi": 33,
          "name": "A1",
          "ticks": 79320,
          "time": 72.904334,
          "velocity": 0.7559055118110236
        },
        {
          "duration": 0.21966888333334111,
          "durationTicks": 239,
          "midi": 38,
          "name": "D2",
          "ticks": 79440,
          "time": 73.014628,
          "velocity": 0.7559055118110236
        },
        {
          "duration": 0.2196688833333269,
          "durationTicks": 239,
          "midi": 28,
          "name": "E1",
          "ticks": 79680,
          "time": 73.23521600000001,
          "velocity": 0.7559055118110236
        },
        {
          "duration": 0.21966888333334111,
          "durationTicks": 239,
          "midi": 40,
          "name": "E2",
          "ticks": 79920,
          "time": 73.455804,
          "velocity": 0.7559055118110236
        },
        {
          "duration": 0.2196688833333269,
          "durationTicks": 239,
          "midi": 30,
          "name": "F#1",
          "ticks": 80160,
          "time": 73.676392,
          "velocity": 0.7559055118110236
        },
        {
          "duration": 0.21966888333334111,
          "durationTicks": 239,
          "midi": 42,
          "name": "F#2",
          "ticks": 80400,
          "time": 73.89698,
          "velocity": 0.7559055118110236
        },
        {
          "duration": 0.2196688833333269,
          "durationTicks": 239,
          "midi": 31,
          "name": "G1",
          "ticks": 80640,
          "time": 74.117568,
          "velocity": 0.7559055118110236
        },
        {
          "duration": 0.109374883333345,
          "durationTicks": 119,
          "midi": 28,
          "name": "E1",
          "ticks": 80880,
          "time": 74.338156,
          "velocity": 0.7559055118110236
        },
        {
          "duration": 0.2196688833333269,
          "durationTicks": 239,
          "midi": 31,
          "name": "G1",
          "ticks": 81000,
          "time": 74.44845000000001,
          "velocity": 0.7559055118110236
        },
        {
          "duration": 0.10937488333333079,
          "durationTicks": 119,
          "midi": 28,
          "name": "E1",
          "ticks": 81240,
          "time": 74.669038,
          "velocity": 0.7559055118110236
        },
        {
          "duration": 0.21966888333334111,
          "durationTicks": 239,
          "midi": 32,
          "name": "G#1",
          "ticks": 81360,
          "time": 74.779332,
          "velocity": 0.7559055118110236
        },
        {
          "duration": 0.44025688333333335,
          "durationTicks": 479,
          "midi": 33,
          "name": "A1",
          "ticks": 81600,
          "time": 74.99992,
          "velocity": 0.7559055118110236
        },
        {
          "duration": 0.2196688833333269,
          "durationTicks": 239,
          "midi": 28,
          "name": "E1",
          "ticks": 82320,
          "time": 75.66168400000001,
          "velocity": 0.7559055118110236
        },
        {
          "duration": 0.21966888333334111,
          "durationTicks": 239,
          "midi": 33,
          "name": "A1",
          "ticks": 82560,
          "time": 75.882272,
          "velocity": 0.7559055118110236
        },
        {
          "duration": 0.10937488333333079,
          "durationTicks": 119,
          "midi": 28,
          "name": "E1",
          "ticks": 82800,
          "time": 76.10286,
          "velocity": 0.7559055118110236
        },
        {
          "duration": 0.2196688833333269,
          "durationTicks": 239,
          "midi": 33,
          "name": "A1",
          "ticks": 82920,
          "time": 76.213154,
          "velocity": 0.7559055118110236
        },
        {
          "duration": 0.109374883333345,
          "durationTicks": 119,
          "midi": 28,
          "name": "E1",
          "ticks": 83160,
          "time": 76.433742,
          "velocity": 0.7559055118110236
        },
        {
          "duration": 0.881432883333332,
          "durationTicks": 959,
          "midi": 31,
          "name": "G1",
          "ticks": 83280,
          "time": 76.544036,
          "velocity": 0.7559055118110236
        },
        {
          "duration": 0.44025688333333335,
          "durationTicks": 479,
          "midi": 36,
          "name": "C2",
          "ticks": 84240,
          "time": 77.426388,
          "velocity": 0.7559055118110236
        },
        {
          "duration": 0.21966888333334111,
          "durationTicks": 239,
          "midi": 33,
          "name": "A1",
          "ticks": 84720,
          "time": 77.867564,
          "velocity": 0.7559055118110236
        },
        {
          "duration": 0.2196688833333269,
          "durationTicks": 239,
          "midi": 36,
          "name": "C2",
          "ticks": 84960,
          "time": 78.08815200000001,
          "velocity": 0.7559055118110236
        },
        {
          "duration": 0.44025688333333335,
          "durationTicks": 479,
          "midi": 42,
          "name": "F#2",
          "ticks": 85200,
          "time": 78.30874,
          "velocity": 0.7559055118110236
        },
        {
          "duration": 0.21966888333334111,
          "durationTicks": 239,
          "midi": 33,
          "name": "A1",
          "ticks": 85680,
          "time": 78.749916,
          "velocity": 0.7559055118110236
        },
        {
          "duration": 0.2196688833333269,
          "durationTicks": 239,
          "midi": 34,
          "name": "A#1",
          "ticks": 85920,
          "time": 78.970504,
          "velocity": 0.7559055118110236
        },
        {
          "duration": 0.44025688333333335,
          "durationTicks": 479,
          "midi": 35,
          "name": "B1",
          "ticks": 86160,
          "time": 79.191092,
          "velocity": 0.7559055118110236
        },
        {
          "duration": 0.44025688333333335,
          "durationTicks": 479,
          "midi": 33,
          "name": "A1",
          "ticks": 89280,
          "time": 82.058736,
          "velocity": 0.6299212598425197
        },
        {
          "duration": 0.21966888333334111,
          "durationTicks": 239,
          "midi": 28,
          "name": "E1",
          "ticks": 90000,
          "time": 82.7205,
          "velocity": 0.6299212598425197
        },
        {
          "duration": 0.2196688833333269,
          "durationTicks": 239,
          "midi": 33,
          "name": "A1",
          "ticks": 90240,
          "time": 82.94108800000001,
          "velocity": 0.6299212598425197
        },
        {
          "duration": 0.10937488333333079,
          "durationTicks": 119,
          "midi": 28,
          "name": "E1",
          "ticks": 90480,
          "time": 83.161676,
          "velocity": 0.6299212598425197
        },
        {
          "duration": 0.21966888333334111,
          "durationTicks": 239,
          "midi": 33,
          "name": "A1",
          "ticks": 90600,
          "time": 83.27197,
          "velocity": 0.6299212598425197
        },
        {
          "duration": 0.10937488333333079,
          "durationTicks": 119,
          "midi": 28,
          "name": "E1",
          "ticks": 90840,
          "time": 83.492558,
          "velocity": 0.6299212598425197
        },
        {
          "duration": 0.21966888333334111,
          "durationTicks": 239,
          "midi": 31,
          "name": "G1",
          "ticks": 90960,
          "time": 83.602852,
          "velocity": 0.6299212598425197
        },
        {
          "duration": 0.2196688833333269,
          "durationTicks": 239,
          "midi": 28,
          "name": "E1",
          "ticks": 91200,
          "time": 83.82344,
          "velocity": 0.6299212598425197
        },
        {
          "duration": 0.21966888333334111,
          "durationTicks": 239,
          "midi": 40,
          "name": "E2",
          "ticks": 91440,
          "time": 84.044028,
          "velocity": 0.6299212598425197
        },
        {
          "duration": 0.2196688833333269,
          "durationTicks": 239,
          "midi": 30,
          "name": "F#1",
          "ticks": 91680,
          "time": 84.264616,
          "velocity": 0.6299212598425197
        },
        {
          "duration": 0.21966888333334111,
          "durationTicks": 239,
          "midi": 42,
          "name": "F#2",
          "ticks": 91920,
          "time": 84.485204,
          "velocity": 0.6299212598425197
        },
        {
          "duration": 0.21966888333334111,
          "durationTicks": 239,
          "midi": 31,
          "name": "G1",
          "ticks": 92160,
          "time": 84.705792,
          "velocity": 0.6299212598425197
        },
        {
          "duration": 0.10937488333333079,
          "durationTicks": 119,
          "midi": 28,
          "name": "E1",
          "ticks": 92400,
          "time": 84.92638000000001,
          "velocity": 0.6299212598425197
        },
        {
          "duration": 0.2196688833333269,
          "durationTicks": 239,
          "midi": 31,
          "name": "G1",
          "ticks": 92520,
          "time": 85.036674,
          "velocity": 0.6299212598425197
        },
        {
          "duration": 0.109374883333345,
          "durationTicks": 119,
          "midi": 28,
          "name": "E1",
          "ticks": 92760,
          "time": 85.257262,
          "velocity": 0.6299212598425197
        },
        {
          "duration": 0.2196688833333269,
          "durationTicks": 239,
          "midi": 32,
          "name": "G#1",
          "ticks": 92880,
          "time": 85.36755600000001,
          "velocity": 0.6299212598425197
        },
        {
          "duration": 0.44025688333333335,
          "durationTicks": 479,
          "midi": 33,
          "name": "A1",
          "ticks": 93120,
          "time": 85.588144,
          "velocity": 0.6299212598425197
        },
        {
          "duration": 0.2196688833333269,
          "durationTicks": 239,
          "midi": 34,
          "name": "A#1",
          "ticks": 93840,
          "time": 86.249908,
          "velocity": 0.6299212598425197
        },
        {
          "duration": 0.21966888333334111,
          "durationTicks": 239,
          "midi": 35,
          "name": "B1",
          "ticks": 94080,
          "time": 86.470496,
          "velocity": 0.6299212598425197
        },
        {
          "duration": 0.2196688833333269,
          "durationTicks": 239,
          "midi": 36,
          "name": "C2",
          "ticks": 94320,
          "time": 86.691084,
          "velocity": 0.6299212598425197
        },
        {
          "duration": 0.21966888333334111,
          "durationTicks": 239,
          "midi": 37,
          "name": "C#2",
          "ticks": 94560,
          "time": 86.911672,
          "velocity": 0.6299212598425197
        },
        {
          "duration": 0.21966888333334111,
          "durationTicks": 239,
          "midi": 39,
          "name": "D#2",
          "ticks": 94800,
          "time": 87.13226,
          "velocity": 0.6299212598425197
        },
        {
          "duration": 0.6608448833333256,
          "durationTicks": 719,
          "midi": 40,
          "name": "E2",
          "ticks": 95040,
          "time": 87.35284800000001,
          "velocity": 0.6299212598425197
        },
        {
          "duration": 0.44025688333333335,
          "durationTicks": 479,
          "midi": 38,
          "name": "D2",
          "ticks": 95760,
          "time": 88.014612,
          "velocity": 0.6299212598425197
        },
        {
          "duration": 0.21966888333334111,
          "durationTicks": 239,
          "midi": 31,
          "name": "G1",
          "ticks": 96240,
          "time": 88.455788,
          "velocity": 0.6299212598425197
        },
        {
          "duration": 0.2196688833333269,
          "durationTicks": 239,
          "midi": 35,
          "name": "B1",
          "ticks": 96480,
          "time": 88.676376,
          "velocity": 0.6299212598425197
        },
        {
          "duration": 0.21966888333334111,
          "durationTicks": 239,
          "midi": 38,
          "name": "D2",
          "ticks": 96720,
          "time": 88.896964,
          "velocity": 0.6299212598425197
        },
        {
          "duration": 0.6608448833333398,
          "durationTicks": 719,
          "midi": 36,
          "name": "C2",
          "ticks": 96960,
          "time": 89.117552,
          "velocity": 0.6299212598425197
        },
        {
          "duration": 0.44025688333333335,
          "durationTicks": 479,
          "midi": 31,
          "name": "G1",
          "ticks": 97680,
          "time": 89.77931600000001,
          "velocity": 0.6299212598425197
        },
        {
          "duration": 0.2196688833333269,
          "durationTicks": 239,
          "midi": 31,
          "name": "G1",
          "ticks": 98160,
          "time": 90.22049200000001,
          "velocity": 0.6299212598425197
        },
        {
          "duration": 0.21966888333334111,
          "durationTicks": 239,
          "midi": 31,
          "name": "G1",
          "ticks": 98400,
          "time": 90.44108,
          "velocity": 0.6299212598425197
        },
        {
          "duration": 0.2196688833333269,
          "durationTicks": 239,
          "midi": 31,
          "name": "G1",
          "ticks": 98640,
          "time": 90.661668,
          "velocity": 0.6299212598425197
        },
        {
          "duration": 0.44025688333333335,
          "durationTicks": 479,
          "midi": 37,
          "name": "C#2",
          "ticks": 98880,
          "time": 90.882256,
          "velocity": 0.6299212598425197
        },
        {
          "duration": 0.44025688333333335,
          "durationTicks": 479,
          "midi": 37,
          "name": "C#2",
          "ticks": 99360,
          "time": 91.323432,
          "velocity": 0.6299212598425197
        },
        {
          "duration": 0.44025688333333335,
          "durationTicks": 479,
          "midi": 37,
          "name": "C#2",
          "ticks": 99840,
          "time": 91.76460800000001,
          "velocity": 0.6299212598425197
        },
        {
          "duration": 0.2196688833333269,
          "durationTicks": 239,
          "midi": 33,
          "name": "A1",
          "ticks": 100320,
          "time": 92.20578400000001,
          "velocity": 0.6299212598425197
        },
        {
          "duration": 0.21966888333334111,
          "durationTicks": 239,
          "midi": 37,
          "name": "C#2",
          "ticks": 100560,
          "time": 92.426372,
          "velocity": 0.6299212598425197
        },
        {
          "duration": 0.44025688333333335,
          "durationTicks": 479,
          "midi": 38,
          "name": "D2",
          "ticks": 100800,
          "time": 92.64696,
          "velocity": 0.6299212598425197
        },
        {
          "duration": 0.44025688333333335,
          "durationTicks": 479,
          "midi": 38,
          "name": "D2",
          "ticks": 101280,
          "time": 93.088136,
          "velocity": 0.6299212598425197
        },
        {
          "duration": 0.2196688833333269,
          "durationTicks": 239,
          "midi": 38,
          "name": "D2",
          "ticks": 101760,
          "time": 93.529312,
          "velocity": 0.6299212598425197
        },
        {
          "duration": 0.21966888333334111,
          "durationTicks": 239,
          "midi": 38,
          "name": "D2",
          "ticks": 102000,
          "time": 93.7499,
          "velocity": 0.6299212598425197
        },
        {
          "duration": 0.2196688833333269,
          "durationTicks": 239,
          "midi": 36,
          "name": "C2",
          "ticks": 102240,
          "time": 93.970488,
          "velocity": 0.6299212598425197
        },
        {
          "duration": 0.2196688833333269,
          "durationTicks": 239,
          "midi": 36,
          "name": "C2",
          "ticks": 102480,
          "time": 94.19107600000001,
          "velocity": 0.6299212598425197
        },
        {
          "duration": 0.21966888333334111,
          "durationTicks": 239,
          "midi": 35,
          "name": "B1",
          "ticks": 102720,
          "time": 94.411664,
          "velocity": 0.6299212598425197
        },
        {
          "duration": 0.21966888333334111,
          "durationTicks": 239,
          "midi": 35,
          "name": "B1",
          "ticks": 103200,
          "time": 94.85284,
          "velocity": 0.6299212598425197
        },
        {
          "duration": 0.2196688833333269,
          "durationTicks": 239,
          "midi": 35,
          "name": "B1",
          "ticks": 103440,
          "time": 95.073428,
          "velocity": 0.6299212598425197
        },
        {
          "duration": 0.32996288333333723,
          "durationTicks": 359,
          "midi": 36,
          "name": "C2",
          "ticks": 103680,
          "time": 95.294016,
          "velocity": 0.6299212598425197
        },
        {
          "duration": 0.10937488333333079,
          "durationTicks": 119,
          "midi": 36,
          "name": "C2",
          "ticks": 104040,
          "time": 95.624898,
          "velocity": 0.6299212598425197
        },
        {
          "duration": 0.44025688333333335,
          "durationTicks": 479,
          "midi": 26,
          "name": "D1",
          "ticks": 104400,
          "time": 95.95578,
          "velocity": 0.6299212598425197
        },
        {
          "duration": 0.2196688833333269,
          "durationTicks": 239,
          "midi": 26,
          "name": "D1",
          "ticks": 104880,
          "time": 96.396956,
          "velocity": 0.6299212598425197
        },
        {
          "duration": 0.2196688833333269,
          "durationTicks": 239,
          "midi": 26,
          "name": "D1",
          "ticks": 105120,
          "time": 96.61754400000001,
          "velocity": 0.6299212598425197
        },
        {
          "duration": 0.21966888333334111,
          "durationTicks": 239,
          "midi": 26,
          "name": "D1",
          "ticks": 105360,
          "time": 96.838132,
          "velocity": 0.6299212598425197
        },
        {
          "duration": 0.2196688833333269,
          "durationTicks": 239,
          "midi": 28,
          "name": "E1",
          "ticks": 105600,
          "time": 97.05872000000001,
          "velocity": 0.6299212598425197
        },
        {
          "duration": 0.21966888333334111,
          "durationTicks": 239,
          "midi": 30,
          "name": "F#1",
          "ticks": 105840,
          "time": 97.279308,
          "velocity": 0.6299212598425197
        },
        {
          "duration": 0.2196688833333269,
          "durationTicks": 239,
          "midi": 31,
          "name": "G1",
          "ticks": 106080,
          "time": 97.499896,
          "velocity": 0.6299212598425197
        },
        {
          "duration": 0.21966888333334111,
          "durationTicks": 239,
          "midi": 28,
          "name": "E1",
          "ticks": 106320,
          "time": 97.720484,
          "velocity": 0.6299212598425197
        },
        {
          "duration": 0.2196688833333269,
          "durationTicks": 239,
          "midi": 35,
          "name": "B1",
          "ticks": 106560,
          "time": 97.941072,
          "velocity": 0.6299212598425197
        },
        {
          "duration": 0.2196688833333269,
          "durationTicks": 239,
          "midi": 35,
          "name": "B1",
          "ticks": 107040,
          "time": 98.382248,
          "velocity": 0.6299212598425197
        },
        {
          "duration": 0.21966888333334111,
          "durationTicks": 239,
          "midi": 35,
          "name": "B1",
          "ticks": 107280,
          "time": 98.602836,
          "velocity": 0.6299212598425197
        },
        {
          "duration": 0.32996288333333723,
          "durationTicks": 359,
          "midi": 36,
          "name": "C2",
          "ticks": 107520,
          "time": 98.823424,
          "velocity": 0.6299212598425197
        },
        {
          "duration": 0.10937488333333079,
          "durationTicks": 119,
          "midi": 36,
          "name": "C2",
          "ticks": 107880,
          "time": 99.154306,
          "velocity": 0.6299212598425197
        },
        {
          "duration": 0.44025688333333335,
          "durationTicks": 479,
          "midi": 38,
          "name": "D2",
          "ticks": 108240,
          "time": 99.48518800000001,
          "velocity": 0.6299212598425197
        },
        {
          "duration": 0.2196688833333269,
          "durationTicks": 239,
          "midi": 26,
          "name": "D1",
          "ticks": 108720,
          "time": 99.926364,
          "velocity": 0.6299212598425197
        },
        {
          "duration": 0.21966888333334111,
          "durationTicks": 239,
          "midi": 38,
          "name": "D2",
          "ticks": 108960,
          "time": 100.146952,
          "velocity": 0.6299212598425197
        },
        {
          "duration": 0.2196688833333269,
          "durationTicks": 239,
          "midi": 26,
          "name": "D1",
          "ticks": 109200,
          "time": 100.36754,
          "velocity": 0.6299212598425197
        },
        {
          "duration": 0.21966888333334111,
          "durationTicks": 239,
          "midi": 38,
          "name": "D2",
          "ticks": 109440,
          "time": 100.588128,
          "velocity": 0.6299212598425197
        },
        {
          "duration": 0.2196688833333269,
          "durationTicks": 239,
          "midi": 38,
          "name": "D2",
          "ticks": 109680,
          "time": 100.808716,
          "velocity": 0.6299212598425197
        },
        {
          "duration": 0.21966888333334111,
          "durationTicks": 239,
          "midi": 36,
          "name": "C2",
          "ticks": 109920,
          "time": 101.029304,
          "velocity": 0.6299212598425197
        },
        {
          "duration": 0.21966888333334111,
          "durationTicks": 239,
          "midi": 36,
          "name": "C2",
          "ticks": 110160,
          "time": 101.249892,
          "velocity": 0.6299212598425197
        },
        {
          "duration": 0.44025688333333335,
          "durationTicks": 479,
          "midi": 35,
          "name": "B1",
          "ticks": 110400,
          "time": 101.47048000000001,
          "velocity": 0.6299212598425197
        },
        {
          "duration": 0.2196688833333269,
          "durationTicks": 239,
          "midi": 35,
          "name": "B1",
          "ticks": 110880,
          "time": 101.91165600000001,
          "velocity": 0.6299212598425197
        },
        {
          "duration": 0.21966888333334111,
          "durationTicks": 239,
          "midi": 35,
          "name": "B1",
          "ticks": 111120,
          "time": 102.132244,
          "velocity": 0.6299212598425197
        },
        {
          "duration": 0.32996288333333723,
          "durationTicks": 359,
          "midi": 36,
          "name": "C2",
          "ticks": 111360,
          "time": 102.352832,
          "velocity": 0.6299212598425197
        },
        {
          "duration": 0.10937488333333079,
          "durationTicks": 119,
          "midi": 36,
          "name": "C2",
          "ticks": 111720,
          "time": 102.68371400000001,
          "velocity": 0.6299212598425197
        },
        {
          "duration": 0.6608448833333398,
          "durationTicks": 719,
          "midi": 38,
          "name": "D2",
          "ticks": 112080,
          "time": 103.014596,
          "velocity": 0.6299212598425197
        },
        {
          "duration": 0.44025688333333335,
          "durationTicks": 479,
          "midi": 39,
          "name": "D#2",
          "ticks": 112800,
          "time": 103.67636,
          "velocity": 0.6299212598425197
        },
        {
          "duration": 0.21966888333334111,
          "durationTicks": 239,
          "midi": 40,
          "name": "E2",
          "ticks": 113280,
          "time": 104.117536,
          "velocity": 0.6299212598425197
        },
        {
          "duration": 0.2196688833333269,
          "durationTicks": 239,
          "midi": 35,
          "name": "B1",
          "ticks": 113520,
          "time": 104.33812400000001,
          "velocity": 0.6299212598425197
        },
        {
          "duration": 0.21966888333334111,
          "durationTicks": 239,
          "midi": 40,
          "name": "E2",
          "ticks": 113760,
          "time": 104.558712,
          "velocity": 0.6299212598425197
        },
        {
          "duration": 0.2196688833333269,
          "durationTicks": 239,
          "midi": 41,
          "name": "F2",
          "ticks": 114000,
          "time": 104.7793,
          "velocity": 0.6299212598425197
        },
        {
          "duration": 0.21966888333334111,
          "durationTicks": 239,
          "midi": 41,
          "name": "F2",
          "ticks": 114240,
          "time": 104.999888,
          "velocity": 0.6299212598425197
        },
        {
          "duration": 0.2196688833333269,
          "durationTicks": 239,
          "midi": 36,
          "name": "C2",
          "ticks": 114480,
          "time": 105.220476,
          "velocity": 0.6299212598425197
        },
        {
          "duration": 0.21966888333334111,
          "durationTicks": 239,
          "midi": 41,
          "name": "F2",
          "ticks": 114720,
          "time": 105.441064,
          "velocity": 0.6299212598425197
        },
        {
          "duration": 0.2196688833333269,
          "durationTicks": 239,
          "midi": 40,
          "name": "E2",
          "ticks": 114960,
          "time": 105.661652,
          "velocity": 0.6299212598425197
        },
        {
          "duration": 0.21966888333334111,
          "durationTicks": 239,
          "midi": 36,
          "name": "C2",
          "ticks": 115440,
          "time": 106.102828,
          "velocity": 0.6299212598425197
        },
        {
          "duration": 0.44025688333333335,
          "durationTicks": 479,
          "midi": 26,
          "name": "D1",
          "ticks": 115920,
          "time": 106.544004,
          "velocity": 0.9921259842519685
        },
        {
          "duration": 0.21966888333334111,
          "durationTicks": 239,
          "midi": 38,
          "name": "D2",
          "ticks": 116400,
          "time": 106.98518,
          "velocity": 0.9921259842519685
        },
        {
          "duration": 0.2196688833333269,
          "durationTicks": 239,
          "midi": 26,
          "name": "D1",
          "ticks": 116640,
          "time": 107.205768,
          "velocity": 0.9921259842519685
        },
        {
          "duration": 0.21966888333334111,
          "durationTicks": 239,
          "midi": 38,
          "name": "D2",
          "ticks": 116880,
          "time": 107.426356,
          "velocity": 0.9921259842519685
        },
        {
          "duration": 0.2196688833333269,
          "durationTicks": 239,
          "midi": 38,
          "name": "D2",
          "ticks": 117120,
          "time": 107.646944,
          "velocity": 0.9921259842519685
        },
        {
          "duration": 0.21966888333334111,
          "durationTicks": 239,
          "midi": 33,
          "name": "A1",
          "ticks": 117360,
          "time": 107.867532,
          "velocity": 0.9921259842519685
        },
        {
          "duration": 0.2196688833333269,
          "durationTicks": 239,
          "midi": 38,
          "name": "D2",
          "ticks": 117600,
          "time": 108.08812,
          "velocity": 0.9921259842519685
        },
        {
          "duration": 0.44025688333333335,
          "durationTicks": 479,
          "midi": 40,
          "name": "E2",
          "ticks": 117840,
          "time": 108.30870800000001,
          "velocity": 0.9921259842519685
        },
        {
          "duration": 0.2196688833333269,
          "durationTicks": 239,
          "midi": 40,
          "name": "E2",
          "ticks": 118320,
          "time": 108.74988400000001,
          "velocity": 0.9921259842519685
        },
        {
          "duration": 0.21966888333334111,
          "durationTicks": 239,
          "midi": 40,
          "name": "E2",
          "ticks": 118560,
          "time": 108.970472,
          "velocity": 0.9921259842519685
        },
        {
          "duration": 0.2196688833333269,
          "durationTicks": 239,
          "midi": 40,
          "name": "E2",
          "ticks": 118800,
          "time": 109.19106000000001,
          "velocity": 0.9921259842519685
        },
        {
          "duration": 0.21966888333334111,
          "durationTicks": 239,
          "midi": 40,
          "name": "E2",
          "ticks": 119040,
          "time": 109.411648,
          "velocity": 0.9921259842519685
        },
        {
          "duration": 0.44025688333333335,
          "durationTicks": 479,
          "midi": 36,
          "name": "C2",
          "ticks": 120000,
          "time": 110.294,
          "velocity": 0.9921259842519685
        },
        {
          "duration": 0.329962883333323,
          "durationTicks": 359,
          "midi": 36,
          "name": "C2",
          "ticks": 120480,
          "time": 110.73517600000001,
          "velocity": 0.9921259842519685
        },
        {
          "duration": 0.109374883333345,
          "durationTicks": 119,
          "midi": 31,
          "name": "G1",
          "ticks": 120840,
          "time": 111.066058,
          "velocity": 0.9921259842519685
        },
        {
          "duration": 0.2196688833333269,
          "durationTicks": 239,
          "midi": 36,
          "name": "C2",
          "ticks": 120960,
          "time": 111.17635200000001,
          "velocity": 0.9921259842519685
        },
        {
          "duration": 0.21966888333334111,
          "durationTicks": 239,
          "midi": 31,
          "name": "G1",
          "ticks": 121200,
          "time": 111.39694,
          "velocity": 0.9921259842519685
        },
        {
          "duration": 0.2196688833333269,
          "durationTicks": 239,
          "midi": 33,
          "name": "A1",
          "ticks": 121440,
          "time": 111.61752800000001,
          "velocity": 0.9921259842519685
        },
        {
          "duration": 0.21966888333334111,
          "durationTicks": 239,
          "midi": 34,
          "name": "A#1",
          "ticks": 121680,
          "time": 111.838116,
          "velocity": 0.9921259842519685
        },
        {
          "duration": 0.2196688833333269,
          "durationTicks": 239,
          "midi": 35,
          "name": "B1",
          "ticks": 121920,
          "time": 112.058704,
          "velocity": 0.9921259842519685
        },
        {
          "duration": 0.44025688333333335,
          "durationTicks": 479,
          "midi": 35,
          "name": "B1",
          "ticks": 122160,
          "time": 112.279292,
          "velocity": 0.9921259842519685
        },
        {
          "duration": 0.44025688333333335,
          "durationTicks": 479,
          "midi": 28,
          "name": "E1",
          "ticks": 122640,
          "time": 112.720468,
          "velocity": 0.9921259842519685
        },
        {
          "duration": 0.2196688833333127,
          "durationTicks": 239,
          "midi": 30,
          "name": "F#1",
          "ticks": 123120,
          "time": 113.16164400000001,
          "velocity": 0.9921259842519685
        },
        {
          "duration": 0.2196688833333269,
          "durationTicks": 239,
          "midi": 31,
          "name": "G1",
          "ticks": 123360,
          "time": 113.382232,
          "velocity": 0.9921259842519685
        },
        {
          "duration": 0.2196688833333127,
          "durationTicks": 239,
          "midi": 28,
          "name": "E1",
          "ticks": 123600,
          "time": 113.60282000000001,
          "velocity": 0.9921259842519685
        },
        {
          "duration": 0.44025688333331914,
          "durationTicks": 479,
          "midi": 36,
          "name": "C2",
          "ticks": 123840,
          "time": 113.823408,
          "velocity": 0.9921259842519685
        },
        {
          "duration": 0.329962883333323,
          "durationTicks": 359,
          "midi": 36,
          "name": "C2",
          "ticks": 124320,
          "time": 114.264584,
          "velocity": 0.9921259842519685
        },
        {
          "duration": 0.10937488333331657,
          "durationTicks": 119,
          "midi": 31,
          "name": "G1",
          "ticks": 124680,
          "time": 114.595466,
          "velocity": 0.9921259842519685
        },
        {
          "duration": 0.2196688833333269,
          "durationTicks": 239,
          "midi": 36,
          "name": "C2",
          "ticks": 124800,
          "time": 114.70576,
          "velocity": 0.9921259842519685
        },
        {
          "duration": 0.2196688833333269,
          "durationTicks": 239,
          "midi": 31,
          "name": "G1",
          "ticks": 125040,
          "time": 114.926348,
          "velocity": 0.9921259842519685
        },
        {
          "duration": 0.2196688833333269,
          "durationTicks": 239,
          "midi": 33,
          "name": "A1",
          "ticks": 125280,
          "time": 115.146936,
          "velocity": 0.9921259842519685
        },
        {
          "duration": 0.2196688833333269,
          "durationTicks": 239,
          "midi": 36,
          "name": "C2",
          "ticks": 125520,
          "time": 115.367524,
          "velocity": 0.9921259842519685
        },
        {
          "duration": 0.2196688833333127,
          "durationTicks": 239,
          "midi": 38,
          "name": "D2",
          "ticks": 125760,
          "time": 115.58811200000001,
          "velocity": 0.9921259842519685
        },
        {
          "duration": 0.2196688833333269,
          "durationTicks": 239,
          "midi": 29,
          "name": "F1",
          "ticks": 126000,
          "time": 115.8087,
          "velocity": 0.9921259842519685
        },
        {
          "duration": 0.2196688833333127,
          "durationTicks": 239,
          "midi": 30,
          "name": "F#1",
          "ticks": 126240,
          "time": 116.02928800000001,
          "velocity": 0.9921259842519685
        },
        {
          "duration": 0.44025688333331914,
          "durationTicks": 479,
          "midi": 31,
          "name": "G1",
          "ticks": 126480,
          "time": 116.249876,
          "velocity": 0.9921259842519685
        },
        {
          "duration": 0.2196688833333269,
          "durationTicks": 239,
          "midi": 33,
          "name": "A1",
          "ticks": 126960,
          "time": 116.691052,
          "velocity": 0.9921259842519685
        },
        {
          "duration": 0.2196688833333127,
          "durationTicks": 239,
          "midi": 35,
          "name": "B1",
          "ticks": 127200,
          "time": 116.91164,
          "velocity": 0.9921259842519685
        },
        {
          "duration": 0.2196688833333269,
          "durationTicks": 239,
          "midi": 31,
          "name": "G1",
          "ticks": 127440,
          "time": 117.132228,
          "velocity": 0.9921259842519685
        },
        {
          "duration": 0.44025688333331914,
          "durationTicks": 479,
          "midi": 36,
          "name": "C2",
          "ticks": 127680,
          "time": 117.352816,
          "velocity": 0.9921259842519685
        },
        {
          "duration": 0.329962883333323,
          "durationTicks": 359,
          "midi": 36,
          "name": "C2",
          "ticks": 128160,
          "time": 117.793992,
          "velocity": 0.9921259842519685
        },
        {
          "duration": 0.10937488333331657,
          "durationTicks": 119,
          "midi": 31,
          "name": "G1",
          "ticks": 128520,
          "time": 118.124874,
          "velocity": 0.9921259842519685
        },
        {
          "duration": 0.2196688833333269,
          "durationTicks": 239,
          "midi": 36,
          "name": "C2",
          "ticks": 128640,
          "time": 118.235168,
          "velocity": 0.9921259842519685
        },
        {
          "duration": 0.2196688833333127,
          "durationTicks": 239,
          "midi": 31,
          "name": "G1",
          "ticks": 128880,
          "time": 118.45575600000001,
          "velocity": 0.9921259842519685
        },
        {
          "duration": 0.2196688833333269,
          "durationTicks": 239,
          "midi": 38,
          "name": "D2",
          "ticks": 129120,
          "time": 118.676344,
          "velocity": 0.9921259842519685
        },
        {
          "duration": 0.2196688833333127,
          "durationTicks": 239,
          "midi": 36,
          "name": "C2",
          "ticks": 129360,
          "time": 118.896932,
          "velocity": 0.9921259842519685
        },
        {
          "duration": 0.2196688833333269,
          "durationTicks": 239,
          "midi": 35,
          "name": "B1",
          "ticks": 129600,
          "time": 119.11752,
          "velocity": 0.9921259842519685
        },
        {
          "duration": 0.2196688833333127,
          "durationTicks": 239,
          "midi": 35,
          "name": "B1",
          "ticks": 129840,
          "time": 119.338108,
          "velocity": 0.9921259842519685
        },
        {
          "duration": 0.2196688833333269,
          "durationTicks": 239,
          "midi": 38,
          "name": "D2",
          "ticks": 130080,
          "time": 119.558696,
          "velocity": 0.9921259842519685
        },
        {
          "duration": 0.44025688333331914,
          "durationTicks": 479,
          "midi": 40,
          "name": "E2",
          "ticks": 130320,
          "time": 119.779284,
          "velocity": 0.9921259842519685
        },
        {
          "duration": 0.2196688833333269,
          "durationTicks": 239,
          "midi": 38,
          "name": "D2",
          "ticks": 130800,
          "time": 120.22046,
          "velocity": 0.9921259842519685
        },
        {
          "duration": 0.10937488333331657,
          "durationTicks": 119,
          "midi": 35,
          "name": "B1",
          "ticks": 131040,
          "time": 120.44104800000001,
          "velocity": 0.9921259842519685
        },
        {
          "duration": 0.10937488333331657,
          "durationTicks": 119,
          "midi": 33,
          "name": "A1",
          "ticks": 131160,
          "time": 120.551342,
          "velocity": 0.9921259842519685
        },
        {
          "duration": 0.2196688833333269,
          "durationTicks": 239,
          "midi": 31,
          "name": "G1",
          "ticks": 131280,
          "time": 120.661636,
          "velocity": 0.9921259842519685
        },
        {
          "duration": 0.2196688833333127,
          "durationTicks": 239,
          "midi": 33,
          "name": "A1",
          "ticks": 131520,
          "time": 120.88222400000001,
          "velocity": 0.9921259842519685
        },
        {
          "duration": 0.2196688833333269,
          "durationTicks": 239,
          "midi": 33,
          "name": "A1",
          "ticks": 131760,
          "time": 121.102812,
          "velocity": 0.9921259842519685
        },
        {
          "duration": 0.2196688833333127,
          "durationTicks": 239,
          "midi": 35,
          "name": "B1",
          "ticks": 132000,
          "time": 121.3234,
          "velocity": 0.9921259842519685
        },
        {
          "duration": 0.2196688833333269,
          "durationTicks": 239,
          "midi": 33,
          "name": "A1",
          "ticks": 132240,
          "time": 121.543988,
          "velocity": 0.9921259842519685
        },
        {
          "duration": 0.2196688833333269,
          "durationTicks": 239,
          "midi": 36,
          "name": "C2",
          "ticks": 132480,
          "time": 121.764576,
          "velocity": 0.9921259842519685
        },
        {
          "duration": 0.2196688833333269,
          "durationTicks": 239,
          "midi": 33,
          "name": "A1",
          "ticks": 132720,
          "time": 121.985164,
          "velocity": 0.9921259842519685
        },
        {
          "duration": 0.2196688833333269,
          "durationTicks": 239,
          "midi": 35,
          "name": "B1",
          "ticks": 132960,
          "time": 122.205752,
          "velocity": 0.9921259842519685
        },
        {
          "duration": 0.2196688833333127,
          "durationTicks": 239,
          "midi": 33,
          "name": "A1",
          "ticks": 133200,
          "time": 122.42634000000001,
          "velocity": 0.9921259842519685
        },
        {
          "duration": 0.8814328833333178,
          "durationTicks": 959,
          "midi": 36,
          "name": "C2",
          "ticks": 133440,
          "time": 122.646928,
          "velocity": 0.9921259842519685
        },
        {
          "duration": 0.6608448833333256,
          "durationTicks": 719,
          "midi": 38,
          "name": "D2",
          "ticks": 134400,
          "time": 123.52928,
          "velocity": 0.9921259842519685
        },
        {
          "duration": 0.2196688833333269,
          "durationTicks": 239,
          "midi": 31,
          "name": "G1",
          "ticks": 135120,
          "time": 124.191044,
          "velocity": 0.9921259842519685
        },
        {
          "duration": 0.10937488333331657,
          "durationTicks": 119,
          "midi": 45,
          "name": "A2",
          "ticks": 135600,
          "time": 124.63222,
          "velocity": 0.7559055118110236
        },
        {
          "duration": 0.10937488333333079,
          "durationTicks": 119,
          "midi": 46,
          "name": "A#2",
          "ticks": 135720,
          "time": 124.742514,
          "velocity": 0.7559055118110236
        },
        {
          "duration": 0.10937488333331657,
          "durationTicks": 119,
          "midi": 47,
          "name": "B2",
          "ticks": 135840,
          "time": 124.85280800000001,
          "velocity": 0.7559055118110236
        },
        {
          "duration": 0.10937488333331657,
          "durationTicks": 119,
          "midi": 50,
          "name": "D3",
          "ticks": 135960,
          "time": 124.963102,
          "velocity": 0.7559055118110236
        },
        {
          "duration": 0.10937488333331657,
          "durationTicks": 119,
          "midi": 45,
          "name": "A2",
          "ticks": 136320,
          "time": 125.29398400000001,
          "velocity": 0.7559055118110236
        },
        {
          "duration": 0.10937488333331657,
          "durationTicks": 119,
          "midi": 46,
          "name": "A#2",
          "ticks": 136440,
          "time": 125.404278,
          "velocity": 0.7559055118110236
        },
        {
          "duration": 0.10937488333333079,
          "durationTicks": 119,
          "midi": 47,
          "name": "B2",
          "ticks": 136560,
          "time": 125.514572,
          "velocity": 0.7559055118110236
        },
        {
          "duration": 0.10937488333333079,
          "durationTicks": 119,
          "midi": 50,
          "name": "D3",
          "ticks": 136680,
          "time": 125.624866,
          "velocity": 0.7559055118110236
        },
        {
          "duration": 0.10937488333333079,
          "durationTicks": 119,
          "midi": 40,
          "name": "E2",
          "ticks": 137040,
          "time": 125.955748,
          "velocity": 0.7559055118110236
        },
        {
          "duration": 0.10937488333331657,
          "durationTicks": 119,
          "midi": 40,
          "name": "E2",
          "ticks": 137160,
          "time": 126.06604200000001,
          "velocity": 0.7559055118110236
        },
        {
          "duration": 0.10937488333333079,
          "durationTicks": 119,
          "midi": 45,
          "name": "A2",
          "ticks": 137520,
          "time": 126.396924,
          "velocity": 0.7559055118110236
        },
        {
          "duration": 0.10937488333331657,
          "durationTicks": 119,
          "midi": 46,
          "name": "A#2",
          "ticks": 137640,
          "time": 126.50721800000001,
          "velocity": 0.7559055118110236
        },
        {
          "duration": 0.10937488333331657,
          "durationTicks": 119,
          "midi": 47,
          "name": "B2",
          "ticks": 137760,
          "time": 126.617512,
          "velocity": 0.7559055118110236
        },
        {
          "duration": 0.10937488333333079,
          "durationTicks": 119,
          "midi": 50,
          "name": "D3",
          "ticks": 137880,
          "time": 126.727806,
          "velocity": 0.7559055118110236
        },
        {
          "duration": 0.44025688333331914,
          "durationTicks": 479,
          "midi": 43,
          "name": "G2",
          "ticks": 138240,
          "time": 127.058688,
          "velocity": 0.7559055118110236
        },
        {
          "duration": 0.329962883333323,
          "durationTicks": 359,
          "midi": 45,
          "name": "A2",
          "ticks": 138720,
          "time": 127.499864,
          "velocity": 0.7559055118110236
        },
        {
          "duration": 0.10937488333331657,
          "durationTicks": 119,
          "midi": 40,
          "name": "E2",
          "ticks": 139080,
          "time": 127.830746,
          "velocity": 0.7559055118110236
        },
        {
          "duration": 0.10937488333331657,
          "durationTicks": 119,
          "midi": 45,
          "name": "A2",
          "ticks": 139440,
          "time": 128.161628,
          "velocity": 0.7559055118110236
        },
        {
          "duration": 0.10937488333331657,
          "durationTicks": 119,
          "midi": 46,
          "name": "A#2",
          "ticks": 139560,
          "time": 128.27192200000002,
          "velocity": 0.7559055118110236
        },
        {
          "duration": 0.10937488333331657,
          "durationTicks": 119,
          "midi": 47,
          "name": "B2",
          "ticks": 139680,
          "time": 128.382216,
          "velocity": 0.7559055118110236
        },
        {
          "duration": 0.10937488333331657,
          "durationTicks": 119,
          "midi": 50,
          "name": "D3",
          "ticks": 139800,
          "time": 128.49251,
          "velocity": 0.7559055118110236
        },
        {
          "duration": 0.10937488333331657,
          "durationTicks": 119,
          "midi": 45,
          "name": "A2",
          "ticks": 140160,
          "time": 128.823392,
          "velocity": 0.7559055118110236
        },
        {
          "duration": 0.109374883333345,
          "durationTicks": 119,
          "midi": 46,
          "name": "A#2",
          "ticks": 140280,
          "time": 128.933686,
          "velocity": 0.7559055118110236
        },
        {
          "duration": 0.10937488333331657,
          "durationTicks": 119,
          "midi": 47,
          "name": "B2",
          "ticks": 140400,
          "time": 129.04398,
          "velocity": 0.7559055118110236
        },
        {
          "duration": 0.10937488333331657,
          "durationTicks": 119,
          "midi": 50,
          "name": "D3",
          "ticks": 140520,
          "time": 129.15427400000002,
          "velocity": 0.7559055118110236
        },
        {
          "duration": 0.10937488333331657,
          "durationTicks": 119,
          "midi": 40,
          "name": "E2",
          "ticks": 140880,
          "time": 129.48515600000002,
          "velocity": 0.7559055118110236
        },
        {
          "duration": 0.10937488333331657,
          "durationTicks": 119,
          "midi": 40,
          "name": "E2",
          "ticks": 141000,
          "time": 129.59545,
          "velocity": 0.7559055118110236
        },
        {
          "duration": 0.10937488333331657,
          "durationTicks": 119,
          "midi": 47,
          "name": "B2",
          "ticks": 141360,
          "time": 129.926332,
          "velocity": 0.7559055118110236
        },
        {
          "duration": 0.10937488333331657,
          "durationTicks": 119,
          "midi": 45,
          "name": "A2",
          "ticks": 141480,
          "time": 130.036626,
          "velocity": 0.7559055118110236
        },
        {
          "duration": 0.109374883333345,
          "durationTicks": 119,
          "midi": 43,
          "name": "G2",
          "ticks": 141600,
          "time": 130.14692,
          "velocity": 0.7559055118110236
        },
        {
          "duration": 0.10937488333331657,
          "durationTicks": 119,
          "midi": 40,
          "name": "E2",
          "ticks": 141720,
          "time": 130.257214,
          "velocity": 0.7559055118110236
        },
        {
          "duration": 0.44025688333331914,
          "durationTicks": 479,
          "midi": 43,
          "name": "G2",
          "ticks": 142080,
          "time": 130.588096,
          "velocity": 0.7559055118110236
        },
        {
          "duration": 0.32996288333333723,
          "durationTicks": 359,
          "midi": 45,
          "name": "A2",
          "ticks": 142560,
          "time": 131.029272,
          "velocity": 0.7559055118110236
        },
        {
          "duration": 0.109374883333345,
          "durationTicks": 119,
          "midi": 40,
          "name": "E2",
          "ticks": 142920,
          "time": 131.360154,
          "velocity": 0.7559055118110236
        },
        {
          "duration": 0.10937488333331657,
          "durationTicks": 119,
          "midi": 45,
          "name": "A2",
          "ticks": 143280,
          "time": 131.691036,
          "velocity": 0.7559055118110236
        },
        {
          "duration": 0.10937488333331657,
          "durationTicks": 119,
          "midi": 46,
          "name": "A#2",
          "ticks": 143400,
          "time": 131.80133,
          "velocity": 0.7559055118110236
        },
        {
          "duration": 0.10937488333331657,
          "durationTicks": 119,
          "midi": 47,
          "name": "B2",
          "ticks": 143520,
          "time": 131.91162400000002,
          "velocity": 0.7559055118110236
        },
        {
          "duration": 0.10937488333331657,
          "durationTicks": 119,
          "midi": 50,
          "name": "D3",
          "ticks": 143640,
          "time": 132.021918,
          "velocity": 0.7559055118110236
        },
        {
          "duration": 0.10937488333331657,
          "durationTicks": 119,
          "midi": 45,
          "name": "A2",
          "ticks": 144000,
          "time": 132.3528,
          "velocity": 0.7559055118110236
        },
        {
          "duration": 0.10937488333331657,
          "durationTicks": 119,
          "midi": 46,
          "name": "A#2",
          "ticks": 144120,
          "time": 132.463094,
          "velocity": 0.7559055118110236
        },
        {
          "duration": 0.109374883333345,
          "durationTicks": 119,
          "midi": 47,
          "name": "B2",
          "ticks": 144240,
          "time": 132.573388,
          "velocity": 0.7559055118110236
        },
        {
          "duration": 0.10937488333331657,
          "durationTicks": 119,
          "midi": 50,
          "name": "D3",
          "ticks": 144360,
          "time": 132.683682,
          "velocity": 0.7559055118110236
        },
        {
          "duration": 0.10937488333331657,
          "durationTicks": 119,
          "midi": 40,
          "name": "E2",
          "ticks": 144720,
          "time": 133.014564,
          "velocity": 0.7559055118110236
        },
        {
          "duration": 0.10937488333331657,
          "durationTicks": 119,
          "midi": 40,
          "name": "E2",
          "ticks": 144840,
          "time": 133.12485800000002,
          "velocity": 0.7559055118110236
        },
        {
          "duration": 0.109374883333345,
          "durationTicks": 119,
          "midi": 45,
          "name": "A2",
          "ticks": 145200,
          "time": 133.45574,
          "velocity": 0.7559055118110236
        },
        {
          "duration": 0.10937488333331657,
          "durationTicks": 119,
          "midi": 46,
          "name": "A#2",
          "ticks": 145320,
          "time": 133.566034,
          "velocity": 0.7559055118110236
        },
        {
          "duration": 0.10937488333331657,
          "durationTicks": 119,
          "midi": 47,
          "name": "B2",
          "ticks": 145440,
          "time": 133.676328,
          "velocity": 0.7559055118110236
        },
        {
          "duration": 0.109374883333345,
          "durationTicks": 119,
          "midi": 50,
          "name": "D3",
          "ticks": 145560,
          "time": 133.786622,
          "velocity": 0.7559055118110236
        },
        {
          "duration": 0.44025688333331914,
          "durationTicks": 479,
          "midi": 43,
          "name": "G2",
          "ticks": 145920,
          "time": 134.117504,
          "velocity": 0.7559055118110236
        },
        {
          "duration": 0.3299628833333088,
          "durationTicks": 359,
          "midi": 45,
          "name": "A2",
          "ticks": 146400,
          "time": 134.55868,
          "velocity": 0.7559055118110236
        },
        {
          "duration": 0.10937488333331657,
          "durationTicks": 119,
          "midi": 40,
          "name": "E2",
          "ticks": 146760,
          "time": 134.889562,
          "velocity": 0.7559055118110236
        },
        {
          "duration": 0.10937488333331657,
          "durationTicks": 119,
          "midi": 45,
          "name": "A2",
          "ticks": 147120,
          "time": 135.22044400000001,
          "velocity": 0.7559055118110236
        },
        {
          "duration": 0.10937488333331657,
          "durationTicks": 119,
          "midi": 46,
          "name": "A#2",
          "ticks": 147240,
          "time": 135.330738,
          "velocity": 0.7559055118110236
        },
        {
          "duration": 0.10937488333331657,
          "durationTicks": 119,
          "midi": 47,
          "name": "B2",
          "ticks": 147360,
          "time": 135.441032,
          "velocity": 0.7559055118110236
        },
        {
          "duration": 0.10937488333331657,
          "durationTicks": 119,
          "midi": 50,
          "name": "D3",
          "ticks": 147480,
          "time": 135.55132600000002,
          "velocity": 0.7559055118110236
        },
        {
          "duration": 0.109374883333345,
          "durationTicks": 119,
          "midi": 45,
          "name": "A2",
          "ticks": 147840,
          "time": 135.882208,
          "velocity": 0.7559055118110236
        },
        {
          "duration": 0.10937488333331657,
          "durationTicks": 119,
          "midi": 46,
          "name": "A#2",
          "ticks": 147960,
          "time": 135.992502,
          "velocity": 0.7559055118110236
        },
        {
          "duration": 0.10937488333331657,
          "durationTicks": 119,
          "midi": 47,
          "name": "B2",
          "ticks": 148080,
          "time": 136.102796,
          "velocity": 0.7559055118110236
        },
        {
          "duration": 0.109374883333345,
          "durationTicks": 119,
          "midi": 50,
          "name": "D3",
          "ticks": 148200,
          "time": 136.21309,
          "velocity": 0.7559055118110236
        },
        {
          "duration": 0.10937488333331657,
          "durationTicks": 119,
          "midi": 40,
          "name": "E2",
          "ticks": 148560,
          "time": 136.543972,
          "velocity": 0.7559055118110236
        },
        {
          "duration": 0.10937488333331657,
          "durationTicks": 119,
          "midi": 40,
          "name": "E2",
          "ticks": 148680,
          "time": 136.654266,
          "velocity": 0.7559055118110236
        },
        {
          "duration": 0.10937488333331657,
          "durationTicks": 119,
          "midi": 47,
          "name": "B2",
          "ticks": 149040,
          "time": 136.985148,
          "velocity": 0.7559055118110236
        },
        {
          "duration": 0.109374883333345,
          "durationTicks": 119,
          "midi": 45,
          "name": "A2",
          "ticks": 149160,
          "time": 137.095442,
          "velocity": 0.7559055118110236
        },
        {
          "duration": 0.10937488333331657,
          "durationTicks": 119,
          "midi": 43,
          "name": "G2",
          "ticks": 149280,
          "time": 137.205736,
          "velocity": 0.7559055118110236
        },
        {
          "duration": 0.10937488333331657,
          "durationTicks": 119,
          "midi": 40,
          "name": "E2",
          "ticks": 149400,
          "time": 137.31603,
          "velocity": 0.7559055118110236
        },
        {
          "duration": 0.44025688333331914,
          "durationTicks": 479,
          "midi": 43,
          "name": "G2",
          "ticks": 149760,
          "time": 137.64691200000001,
          "velocity": 0.7559055118110236
        },
        {
          "duration": 0.32996288333333723,
          "durationTicks": 359,
          "midi": 45,
          "name": "A2",
          "ticks": 150240,
          "time": 138.088088,
          "velocity": 0.7559055118110236
        },
        {
          "duration": 0.10937488333331657,
          "durationTicks": 119,
          "midi": 40,
          "name": "E2",
          "ticks": 150600,
          "time": 138.41897,
          "velocity": 0.7559055118110236
        },
        {
          "duration": 0.029411733333319035,
          "durationTicks": 32,
          "midi": 40,
          "name": "E2",
          "ticks": 151440,
          "time": 139.19102800000002,
          "velocity": 0.7559055118110236
        },
        {
          "duration": 0.029411733333347456,
          "durationTicks": 32,
          "midi": 41,
          "name": "F2",
          "ticks": 151473,
          "time": 139.22135885,
          "velocity": 0.7559055118110236
        },
        {
          "duration": 0.029411733333319035,
          "durationTicks": 32,
          "midi": 42,
          "name": "F#2",
          "ticks": 151507,
          "time": 139.25260881666668,
          "velocity": 0.7559055118110236
        },
        {
          "duration": 0.029411733333319035,
          "durationTicks": 32,
          "midi": 43,
          "name": "G2",
          "ticks": 151542,
          "time": 139.2847779,
          "velocity": 0.7559055118110236
        },
        {
          "duration": 0.029411733333319035,
          "durationTicks": 32,
          "midi": 44,
          "name": "G#2",
          "ticks": 151575,
          "time": 139.31510875,
          "velocity": 0.7559055118110236
        },
        {
          "duration": 0.029411733333347456,
          "durationTicks": 32,
          "midi": 45,
          "name": "A2",
          "ticks": 151609,
          "time": 139.34635871666666,
          "velocity": 0.7559055118110236
        },
        {
          "duration": 0.03216908333331503,
          "durationTicks": 35,
          "midi": 46,
          "name": "A#2",
          "ticks": 151644,
          "time": 139.3785278,
          "velocity": 0.7559055118110236
        },
        {
          "duration": 0.10937488333331657,
          "durationTicks": 119,
          "midi": 47,
          "name": "B2",
          "ticks": 151680,
          "time": 139.411616,
          "velocity": 0.7559055118110236
        },
        {
          "duration": 0.10937488333331657,
          "durationTicks": 119,
          "midi": 45,
          "name": "A2",
          "ticks": 151920,
          "time": 139.632204,
          "velocity": 0.7559055118110236
        },
        {
          "duration": 0.109374883333345,
          "durationTicks": 119,
          "midi": 43,
          "name": "G2",
          "ticks": 152160,
          "time": 139.852792,
          "velocity": 0.7559055118110236
        },
        {
          "duration": 0.2196688833333269,
          "durationTicks": 239,
          "midi": 40,
          "name": "E2",
          "ticks": 152280,
          "time": 139.963086,
          "velocity": 0.7559055118110236
        },
        {
          "duration": 0.44025688333331914,
          "durationTicks": 479,
          "midi": 33,
          "name": "A1",
          "ticks": 166080,
          "time": 152.646896,
          "velocity": 0.7559055118110236
        },
        {
          "duration": 0.44025688333331914,
          "durationTicks": 479,
          "midi": 35,
          "name": "B1",
          "ticks": 166560,
          "time": 153.088072,
          "velocity": 0.7559055118110236
        },
        {
          "duration": 0.44025688333331914,
          "durationTicks": 479,
          "midi": 36,
          "name": "C2",
          "ticks": 167040,
          "time": 153.529248,
          "velocity": 0.7559055118110236
        },
        {
          "duration": 0.44025688333331914,
          "durationTicks": 479,
          "midi": 33,
          "name": "A1",
          "ticks": 167520,
          "time": 153.970424,
          "velocity": 0.7559055118110236
        },
        {
          "duration": 0.881432883333332,
          "durationTicks": 959,
          "midi": 36,
          "name": "C2",
          "ticks": 168000,
          "time": 154.4116,
          "velocity": 0.7559055118110236
        },
        {
          "duration": 0.6608448833333398,
          "durationTicks": 719,
          "midi": 38,
          "name": "D2",
          "ticks": 168960,
          "time": 155.293952,
          "velocity": 0.7559055118110236
        },
        {
          "duration": 0.2196688833333269,
          "durationTicks": 239,
          "midi": 31,
          "name": "G1",
          "ticks": 169680,
          "time": 155.955716,
          "velocity": 0.7559055118110236
        },
        {
          "duration": 0.44025688333331914,
          "durationTicks": 479,
          "midi": 36,
          "name": "C2",
          "ticks": 171840,
          "time": 157.941008,
          "velocity": 0.9921259842519685
        },
        {
          "duration": 0.32996288333333723,
          "durationTicks": 359,
          "midi": 36,
          "name": "C2",
          "ticks": 172320,
          "time": 158.382184,
          "velocity": 0.9921259842519685
        },
        {
          "duration": 0.10937488333331657,
          "durationTicks": 119,
          "midi": 31,
          "name": "G1",
          "ticks": 172680,
          "time": 158.713066,
          "velocity": 0.9921259842519685
        },
        {
          "duration": 0.2196688833333269,
          "durationTicks": 239,
          "midi": 36,
          "name": "C2",
          "ticks": 172800,
          "time": 158.82336,
          "velocity": 0.9921259842519685
        },
        {
          "duration": 0.2196688833333269,
          "durationTicks": 239,
          "midi": 31,
          "name": "G1",
          "ticks": 173040,
          "time": 159.043948,
          "velocity": 0.9921259842519685
        },
        {
          "duration": 0.2196688833333269,
          "durationTicks": 239,
          "midi": 33,
          "name": "A1",
          "ticks": 173280,
          "time": 159.264536,
          "velocity": 0.9921259842519685
        },
        {
          "duration": 0.2196688833333269,
          "durationTicks": 239,
          "midi": 34,
          "name": "A#1",
          "ticks": 173520,
          "time": 159.485124,
          "velocity": 0.9921259842519685
        },
        {
          "duration": 0.2196688833333269,
          "durationTicks": 239,
          "midi": 35,
          "name": "B1",
          "ticks": 173760,
          "time": 159.705712,
          "velocity": 0.9921259842519685
        },
        {
          "duration": 0.44025688333331914,
          "durationTicks": 479,
          "midi": 35,
          "name": "B1",
          "ticks": 174000,
          "time": 159.9263,
          "velocity": 0.9921259842519685
        },
        {
          "duration": 0.44025688333331914,
          "durationTicks": 479,
          "midi": 28,
          "name": "E1",
          "ticks": 174480,
          "time": 160.367476,
          "velocity": 0.9921259842519685
        },
        {
          "duration": 0.2196688833333269,
          "durationTicks": 239,
          "midi": 30,
          "name": "F#1",
          "ticks": 174960,
          "time": 160.808652,
          "velocity": 0.9921259842519685
        },
        {
          "duration": 0.21966888333329848,
          "durationTicks": 239,
          "midi": 31,
          "name": "G1",
          "ticks": 175200,
          "time": 161.02924000000002,
          "velocity": 0.9921259842519685
        },
        {
          "duration": 0.2196688833333269,
          "durationTicks": 239,
          "midi": 28,
          "name": "E1",
          "ticks": 175440,
          "time": 161.249828,
          "velocity": 0.9921259842519685
        },
        {
          "duration": 0.44025688333331914,
          "durationTicks": 479,
          "midi": 36,
          "name": "C2",
          "ticks": 175680,
          "time": 161.470416,
          "velocity": 0.9921259842519685
        },
        {
          "duration": 0.3299628833333088,
          "durationTicks": 359,
          "midi": 36,
          "name": "C2",
          "ticks": 176160,
          "time": 161.911592,
          "velocity": 0.9921259842519685
        },
        {
          "duration": 0.10937488333331657,
          "durationTicks": 119,
          "midi": 31,
          "name": "G1",
          "ticks": 176520,
          "time": 162.24247400000002,
          "velocity": 0.9921259842519685
        },
        {
          "duration": 0.2196688833333269,
          "durationTicks": 239,
          "midi": 36,
          "name": "C2",
          "ticks": 176640,
          "time": 162.352768,
          "velocity": 0.9921259842519685
        },
        {
          "duration": 0.21966888333329848,
          "durationTicks": 239,
          "midi": 31,
          "name": "G1",
          "ticks": 176880,
          "time": 162.57335600000002,
          "velocity": 0.9921259842519685
        },
        {
          "duration": 0.2196688833333269,
          "durationTicks": 239,
          "midi": 33,
          "name": "A1",
          "ticks": 177120,
          "time": 162.793944,
          "velocity": 0.9921259842519685
        },
        {
          "duration": 0.2196688833333269,
          "durationTicks": 239,
          "midi": 36,
          "name": "C2",
          "ticks": 177360,
          "time": 163.014532,
          "velocity": 0.9921259842519685
        },
        {
          "duration": 0.2196688833333269,
          "durationTicks": 239,
          "midi": 38,
          "name": "D2",
          "ticks": 177600,
          "time": 163.23512,
          "velocity": 0.9921259842519685
        },
        {
          "duration": 0.21966888333329848,
          "durationTicks": 239,
          "midi": 29,
          "name": "F1",
          "ticks": 177840,
          "time": 163.45570800000002,
          "velocity": 0.9921259842519685
        },
        {
          "duration": 0.2196688833333269,
          "durationTicks": 239,
          "midi": 30,
          "name": "F#1",
          "ticks": 178080,
          "time": 163.676296,
          "velocity": 0.9921259842519685
        },
        {
          "duration": 0.44025688333331914,
          "durationTicks": 479,
          "midi": 31,
          "name": "G1",
          "ticks": 178320,
          "time": 163.896884,
          "velocity": 0.9921259842519685
        },
        {
          "duration": 0.2196688833333269,
          "durationTicks": 239,
          "midi": 33,
          "name": "A1",
          "ticks": 178800,
          "time": 164.33806,
          "velocity": 0.9921259842519685
        },
        {
          "duration": 0.2196688833333269,
          "durationTicks": 239,
          "midi": 35,
          "name": "B1",
          "ticks": 179040,
          "time": 164.558648,
          "velocity": 0.9921259842519685
        },
        {
          "duration": 0.2196688833333269,
          "durationTicks": 239,
          "midi": 31,
          "name": "G1",
          "ticks": 179280,
          "time": 164.779236,
          "velocity": 0.9921259842519685
        },
        {
          "duration": 0.44025688333331914,
          "durationTicks": 479,
          "midi": 36,
          "name": "C2",
          "ticks": 179520,
          "time": 164.99982400000002,
          "velocity": 0.9921259842519685
        },
        {
          "duration": 0.32996288333333723,
          "durationTicks": 359,
          "midi": 36,
          "name": "C2",
          "ticks": 180000,
          "time": 165.441,
          "velocity": 0.9921259842519685
        },
        {
          "duration": 0.10937488333331657,
          "durationTicks": 119,
          "midi": 31,
          "name": "G1",
          "ticks": 180360,
          "time": 165.771882,
          "velocity": 0.9921259842519685
        },
        {
          "duration": 0.21966888333329848,
          "durationTicks": 239,
          "midi": 36,
          "name": "C2",
          "ticks": 180480,
          "time": 165.88217600000002,
          "velocity": 0.9921259842519685
        },
        {
          "duration": 0.2196688833333269,
          "durationTicks": 239,
          "midi": 31,
          "name": "G1",
          "ticks": 180720,
          "time": 166.102764,
          "velocity": 0.9921259842519685
        },
        {
          "duration": 0.2196688833333269,
          "durationTicks": 239,
          "midi": 38,
          "name": "D2",
          "ticks": 180960,
          "time": 166.323352,
          "velocity": 0.9921259842519685
        },
        {
          "duration": 0.2196688833333269,
          "durationTicks": 239,
          "midi": 36,
          "name": "C2",
          "ticks": 181200,
          "time": 166.54394,
          "velocity": 0.9921259842519685
        },
        {
          "duration": 0.2196688833333269,
          "durationTicks": 239,
          "midi": 35,
          "name": "B1",
          "ticks": 181440,
          "time": 166.764528,
          "velocity": 0.9921259842519685
        },
        {
          "duration": 0.2196688833333269,
          "durationTicks": 239,
          "midi": 35,
          "name": "B1",
          "ticks": 181680,
          "time": 166.985116,
          "velocity": 0.9921259842519685
        },
        {
          "duration": 0.2196688833333269,
          "durationTicks": 239,
          "midi": 38,
          "name": "D2",
          "ticks": 181920,
          "time": 167.205704,
          "velocity": 0.9921259842519685
        },
        {
          "duration": 0.44025688333331914,
          "durationTicks": 479,
          "midi": 40,
          "name": "E2",
          "ticks": 182160,
          "time": 167.42629200000002,
          "velocity": 0.9921259842519685
        },
        {
          "duration": 0.2196688833333269,
          "durationTicks": 239,
          "midi": 38,
          "name": "D2",
          "ticks": 182640,
          "time": 167.867468,
          "velocity": 0.9921259842519685
        },
        {
          "duration": 0.109374883333345,
          "durationTicks": 119,
          "midi": 35,
          "name": "B1",
          "ticks": 182880,
          "time": 168.088056,
          "velocity": 0.9921259842519685
        },
        {
          "duration": 0.10937488333331657,
          "durationTicks": 119,
          "midi": 33,
          "name": "A1",
          "ticks": 183000,
          "time": 168.19835,
          "velocity": 0.9921259842519685
        },
        {
          "duration": 0.21966888333329848,
          "durationTicks": 239,
          "midi": 31,
          "name": "G1",
          "ticks": 183120,
          "time": 168.30864400000002,
          "velocity": 0.9921259842519685
        },
        {
          "duration": 0.2196688833333269,
          "durationTicks": 239,
          "midi": 33,
          "name": "A1",
          "ticks": 183360,
          "time": 168.529232,
          "velocity": 0.9921259842519685
        },
        {
          "duration": 0.2196688833333269,
          "durationTicks": 239,
          "midi": 33,
          "name": "A1",
          "ticks": 183600,
          "time": 168.74982,
          "velocity": 0.9921259842519685
        },
        {
          "duration": 0.2196688833333269,
          "durationTicks": 239,
          "midi": 35,
          "name": "B1",
          "ticks": 183840,
          "time": 168.970408,
          "velocity": 0.9921259842519685
        },
        {
          "duration": 0.2196688833333269,
          "durationTicks": 239,
          "midi": 33,
          "name": "A1",
          "ticks": 184080,
          "time": 169.190996,
          "velocity": 0.9921259842519685
        },
        {
          "duration": 0.2196688833333269,
          "durationTicks": 239,
          "midi": 36,
          "name": "C2",
          "ticks": 184320,
          "time": 169.411584,
          "velocity": 0.9921259842519685
        },
        {
          "duration": 0.2196688833333269,
          "durationTicks": 239,
          "midi": 33,
          "name": "A1",
          "ticks": 184560,
          "time": 169.632172,
          "velocity": 0.9921259842519685
        },
        {
          "duration": 0.21966888333329848,
          "durationTicks": 239,
          "midi": 35,
          "name": "B1",
          "ticks": 184800,
          "time": 169.85276000000002,
          "velocity": 0.9921259842519685
        },
        {
          "duration": 0.2196688833333269,
          "durationTicks": 239,
          "midi": 33,
          "name": "A1",
          "ticks": 185040,
          "time": 170.073348,
          "velocity": 0.9921259842519685
        },
        {
          "duration": 0.881432883333332,
          "durationTicks": 959,
          "midi": 36,
          "name": "C2",
          "ticks": 185280,
          "time": 170.293936,
          "velocity": 0.9921259842519685
        },
        {
          "duration": 0.6608448833333398,
          "durationTicks": 719,
          "midi": 38,
          "name": "D2",
          "ticks": 186240,
          "time": 171.176288,
          "velocity": 0.9921259842519685
        },
        {
          "duration": 0.881432883333332,
          "durationTicks": 959,
          "midi": 31,
          "name": "G1",
          "ticks": 186960,
          "time": 171.838052,
          "velocity": 0.9921259842519685
        },
        {
          "duration": 0.44025688333331914,
          "durationTicks": 479,
          "midi": 36,
          "name": "C2",
          "ticks": 187920,
          "time": 172.720404,
          "velocity": 0.9921259842519685
        },
        {
          "duration": 0.21966888333329848,
          "durationTicks": 239,
          "midi": 33,
          "name": "A1",
          "ticks": 188400,
          "time": 173.16158000000001,
          "velocity": 0.9921259842519685
        },
        {
          "duration": 0.2196688833333269,
          "durationTicks": 239,
          "midi": 36,
          "name": "C2",
          "ticks": 188640,
          "time": 173.382168,
          "velocity": 0.9921259842519685
        },
        {
          "duration": 0.44025688333331914,
          "durationTicks": 479,
          "midi": 42,
          "name": "F#2",
          "ticks": 188880,
          "time": 173.602756,
          "velocity": 0.9921259842519685
        },
        {
          "duration": 0.2196688833333269,
          "durationTicks": 239,
          "midi": 33,
          "name": "A1",
          "ticks": 189360,
          "time": 174.043932,
          "velocity": 0.9921259842519685
        },
        {
          "duration": 0.2196688833333269,
          "durationTicks": 239,
          "midi": 34,
          "name": "A#1",
          "ticks": 189600,
          "time": 174.26452,
          "velocity": 0.9921259842519685
        },
        {
          "duration": 1.1020208833333243,
          "durationTicks": 1199,
          "midi": 35,
          "name": "B1",
          "ticks": 189840,
          "time": 174.485108,
          "velocity": 0.9921259842519685
        },
        {
          "duration": 0.10937488333331657,
          "durationTicks": 119,
          "midi": 43,
          "name": "G2",
          "ticks": 191040,
          "time": 175.58804800000001,
          "velocity": 0.9921259842519685
        },
        {
          "duration": 0.10937488333331657,
          "durationTicks": 119,
          "midi": 40,
          "name": "E2",
          "ticks": 191160,
          "time": 175.698342,
          "velocity": 0.9921259842519685
        },
        {
          "duration": 0.10937488333331657,
          "durationTicks": 119,
          "midi": 38,
          "name": "D2",
          "ticks": 191280,
          "time": 175.808636,
          "velocity": 0.9921259842519685
        },
        {
          "duration": 0.10937488333331657,
          "durationTicks": 119,
          "midi": 35,
          "name": "B1",
          "ticks": 191400,
          "time": 175.91893000000002,
          "velocity": 0.9921259842519685
        },
        {
          "duration": 0.109374883333345,
          "durationTicks": 119,
          "midi": 40,
          "name": "E2",
          "ticks": 191760,
          "time": 176.249812,
          "velocity": 0.9921259842519685
        },
        {
          "duration": 0.10937488333331657,
          "durationTicks": 119,
          "midi": 38,
          "name": "D2",
          "ticks": 191880,
          "time": 176.360106,
          "velocity": 0.9921259842519685
        },
        {
          "duration": 0.10937488333331657,
          "durationTicks": 119,
          "midi": 35,
          "name": "B1",
          "ticks": 192000,
          "time": 176.4704,
          "velocity": 0.9921259842519685
        },
        {
          "duration": 0.109374883333345,
          "durationTicks": 119,
          "midi": 33,
          "name": "A1",
          "ticks": 192120,
          "time": 176.580694,
          "velocity": 0.9921259842519685
        },
        {
          "duration": 0.10937488333331657,
          "durationTicks": 119,
          "midi": 38,
          "name": "D2",
          "ticks": 192480,
          "time": 176.911576,
          "velocity": 0.9921259842519685
        },
        {
          "duration": 0.10937488333331657,
          "durationTicks": 119,
          "midi": 35,
          "name": "B1",
          "ticks": 192600,
          "time": 177.02187,
          "velocity": 0.9921259842519685
        },
        {
          "duration": 0.10937488333331657,
          "durationTicks": 119,
          "midi": 33,
          "name": "A1",
          "ticks": 192720,
          "time": 177.13216400000002,
          "velocity": 0.9921259842519685
        },
        {
          "duration": 0.10937488333331657,
          "durationTicks": 119,
          "midi": 31,
          "name": "G1",
          "ticks": 192840,
          "time": 177.242458,
          "velocity": 0.9921259842519685
        },
        {
          "duration": 0.10937488333331657,
          "durationTicks": 119,
          "midi": 35,
          "name": "B1",
          "ticks": 193200,
          "time": 177.57334,
          "velocity": 0.9921259842519685
        },
        {
          "duration": 0.10937488333331657,
          "durationTicks": 119,
          "midi": 33,
          "name": "A1",
          "ticks": 193320,
          "time": 177.683634,
          "velocity": 0.9921259842519685
        },
        {
          "duration": 0.109374883333345,
          "durationTicks": 119,
          "midi": 31,
          "name": "G1",
          "ticks": 193440,
          "time": 177.793928,
          "velocity": 0.9921259842519685
        },
        {
          "duration": 0.10937488333331657,
          "durationTicks": 119,
          "midi": 28,
          "name": "E1",
          "ticks": 193560,
          "time": 177.904222,
          "velocity": 0.9921259842519685
        },
        {
          "duration": 0.10937488333331657,
          "durationTicks": 119,
          "midi": 33,
          "name": "A1",
          "ticks": 194160,
          "time": 178.455692,
          "velocity": 0.9921259842519685
        },
        {
          "duration": 0.10937488333331657,
          "durationTicks": 119,
          "midi": 35,
          "name": "B1",
          "ticks": 194280,
          "time": 178.565986,
          "velocity": 0.9921259842519685
        },
        {
          "duration": 0.109374883333345,
          "durationTicks": 119,
          "midi": 43,
          "name": "G2",
          "ticks": 194400,
          "time": 178.67628,
          "velocity": 0.9921259842519685
        },
        {
          "duration": 0.10937488333331657,
          "durationTicks": 119,
          "midi": 42,
          "name": "F#2",
          "ticks": 194520,
          "time": 178.786574,
          "velocity": 0.9921259842519685
        },
        {
          "duration": 0.10937488333331657,
          "durationTicks": 119,
          "midi": 35,
          "name": "B1",
          "ticks": 194640,
          "time": 178.896868,
          "velocity": 0.9921259842519685
        },
        {
          "duration": 0.32996288333333723,
          "durationTicks": 359,
          "midi": 38,
          "name": "D2",
          "ticks": 194760,
          "time": 179.007162,
          "velocity": 0.9921259842519685
        },
        {
          "duration": 0.2196688833333269,
          "durationTicks": 239,
          "midi": 40,
          "name": "E2",
          "ticks": 195120,
          "time": 179.338044,
          "velocity": 0.9921259842519685
        }
      ]
    },
    {
      "channel": 9,
      "controlChanges": {
        "7": [
          {
            "number": 7,
            "ticks": 0,
            "time": 0,
            "value": 1
          }
        ],
        "10": [
          {
            "number": 10,
            "ticks": 0,
            "time": 0,
            "value": 0.5039370078740157
          }
        ],
        "91": [
          {
            "number": 91,
            "ticks": 0,
            "time": 0,
            "value": 0
          }
        ],
        "93": [
          {
            "number": 93,
            "ticks": 0,
            "time": 0,
            "value": 0
          }
        ],
        "121": [
          {
            "number": 121,
            "ticks": 0,
            "time": 0,
            "value": 0
          }
        ]
      },
      "pitchBends": [],
      "instrument": {
        "family": "drums",
        "number": 0,
        "name": "standard kit"
      },
      "name": "",
      "notes": [
        {
          "duration": 0.10937488333333334,
          "durationTicks": 119,
          "midi": 38,
          "name": "D2",
          "ticks": 0,
          "time": 0,
          "velocity": 0.6299212598425197
        },
        {
          "duration": 0.10937488333333334,
          "durationTicks": 119,
          "midi": 38,
          "name": "D2",
          "ticks": 120,
          "time": 0.110294,
          "velocity": 0.6299212598425197
        },
        {
          "duration": 0.10937488333333334,
          "durationTicks": 119,
          "midi": 38,
          "name": "D2",
          "ticks": 240,
          "time": 0.220588,
          "velocity": 0.6299212598425197
        },
        {
          "duration": 0.10937488333333334,
          "durationTicks": 119,
          "midi": 38,
          "name": "D2",
          "ticks": 360,
          "time": 0.330882,
          "velocity": 0.6299212598425197
        },
        {
          "duration": 0.10937488333333334,
          "durationTicks": 119,
          "midi": 38,
          "name": "D2",
          "ticks": 720,
          "time": 0.661764,
          "velocity": 0.6299212598425197
        },
        {
          "duration": 0.10937488333333334,
          "durationTicks": 119,
          "midi": 38,
          "name": "D2",
          "ticks": 840,
          "time": 0.772058,
          "velocity": 0.6299212598425197
        },
        {
          "duration": 0.10937488333333334,
          "durationTicks": 119,
          "midi": 38,
          "name": "D2",
          "ticks": 960,
          "time": 0.882352,
          "velocity": 0.6299212598425197
        },
        {
          "duration": 0.10937488333333334,
          "durationTicks": 119,
          "midi": 38,
          "name": "D2",
          "ticks": 1080,
          "time": 0.992646,
          "velocity": 0.6299212598425197
        },
        {
          "duration": 0.10937488333333345,
          "durationTicks": 119,
          "midi": 38,
          "name": "D2",
          "ticks": 1440,
          "time": 1.323528,
          "velocity": 0.6299212598425197
        },
        {
          "duration": 0.10937488333333323,
          "durationTicks": 119,
          "midi": 38,
          "name": "D2",
          "ticks": 1560,
          "time": 1.4338220000000002,
          "velocity": 0.6299212598425197
        },
        {
          "duration": 0.10937488333333345,
          "durationTicks": 119,
          "midi": 38,
          "name": "D2",
          "ticks": 1920,
          "time": 1.764704,
          "velocity": 0.6299212598425197
        },
        {
          "duration": 0.10937488333333323,
          "durationTicks": 119,
          "midi": 38,
          "name": "D2",
          "ticks": 2040,
          "time": 1.8749980000000002,
          "velocity": 0.6299212598425197
        },
        {
          "duration": 0.10937488333333323,
          "durationTicks": 119,
          "midi": 38,
          "name": "D2",
          "ticks": 2160,
          "time": 1.985292,
          "velocity": 0.6299212598425197
        },
        {
          "duration": 0.10937488333333345,
          "durationTicks": 119,
          "midi": 38,
          "name": "D2",
          "ticks": 2280,
          "time": 2.095586,
          "velocity": 0.6299212598425197
        },
        {
          "duration": 0.10937488333333345,
          "durationTicks": 119,
          "midi": 38,
          "name": "D2",
          "ticks": 2640,
          "time": 2.426468,
          "velocity": 0.6299212598425197
        },
        {
          "duration": 0.10937488333333345,
          "durationTicks": 119,
          "midi": 38,
          "name": "D2",
          "ticks": 2760,
          "time": 2.536762,
          "velocity": 0.6299212598425197
        },
        {
          "duration": 0.10937488333333345,
          "durationTicks": 119,
          "midi": 38,
          "name": "D2",
          "ticks": 2880,
          "time": 2.647056,
          "velocity": 0.6299212598425197
        },
        {
          "duration": 0.10937488333333345,
          "durationTicks": 119,
          "midi": 38,
          "name": "D2",
          "ticks": 3000,
          "time": 2.75735,
          "velocity": 0.6299212598425197
        },
        {
          "duration": 0.10937488333333345,
          "durationTicks": 119,
          "midi": 38,
          "name": "D2",
          "ticks": 3360,
          "time": 3.088232,
          "velocity": 0.6299212598425197
        },
        {
          "duration": 0.10937488333333345,
          "durationTicks": 119,
          "midi": 38,
          "name": "D2",
          "ticks": 3480,
          "time": 3.198526,
          "velocity": 0.6299212598425197
        },
        {
          "duration": 0.21966888333333312,
          "durationTicks": 239,
          "midi": 49,
          "name": "C#3",
          "ticks": 4800,
          "time": 4.41176,
          "velocity": 0.6299212598425197
        },
        {
          "duration": 0.44025688333333335,
          "durationTicks": 479,
          "midi": 36,
          "name": "C2",
          "ticks": 4800,
          "time": 4.41176,
          "velocity": 0.6299212598425197
        },
        {
          "duration": 0.21966888333333312,
          "durationTicks": 239,
          "midi": 42,
          "name": "F#2",
          "ticks": 5040,
          "time": 4.632348,
          "velocity": 0.6299212598425197
        },
        {
          "duration": 0.219668883333334,
          "durationTicks": 239,
          "midi": 38,
          "name": "D2",
          "ticks": 5280,
          "time": 4.852936,
          "velocity": 0.6299212598425197
        },
        {
          "duration": 0.219668883333334,
          "durationTicks": 239,
          "midi": 42,
          "name": "F#2",
          "ticks": 5520,
          "time": 5.073524,
          "velocity": 0.6299212598425197
        },
        {
          "duration": 0.44025688333333335,
          "durationTicks": 479,
          "midi": 36,
          "name": "C2",
          "ticks": 5760,
          "time": 5.294112,
          "velocity": 0.6299212598425197
        },
        {
          "duration": 0.21966888333333312,
          "durationTicks": 239,
          "midi": 42,
          "name": "F#2",
          "ticks": 6000,
          "time": 5.5147,
          "velocity": 0.6299212598425197
        },
        {
          "duration": 0.21966888333333312,
          "durationTicks": 239,
          "midi": 38,
          "name": "D2",
          "ticks": 6240,
          "time": 5.735288000000001,
          "velocity": 0.6299212598425197
        },
        {
          "duration": 0.219668883333334,
          "durationTicks": 239,
          "midi": 42,
          "name": "F#2",
          "ticks": 6480,
          "time": 5.955876,
          "velocity": 0.6299212598425197
        },
        {
          "duration": 0.44025688333333335,
          "durationTicks": 479,
          "midi": 36,
          "name": "C2",
          "ticks": 6720,
          "time": 6.176464,
          "velocity": 0.6299212598425197
        },
        {
          "duration": 0.21966888333333312,
          "durationTicks": 239,
          "midi": 42,
          "name": "F#2",
          "ticks": 6960,
          "time": 6.397052,
          "velocity": 0.6299212598425197
        },
        {
          "duration": 0.219668883333334,
          "durationTicks": 239,
          "midi": 38,
          "name": "D2",
          "ticks": 7200,
          "time": 6.61764,
          "velocity": 0.6299212598425197
        },
        {
          "duration": 0.219668883333334,
          "durationTicks": 239,
          "midi": 42,
          "name": "F#2",
          "ticks": 7440,
          "time": 6.838228,
          "velocity": 0.6299212598425197
        },
        {
          "duration": 0.44025688333333246,
          "durationTicks": 479,
          "midi": 36,
          "name": "C2",
          "ticks": 7680,
          "time": 7.058816,
          "velocity": 0.6299212598425197
        },
        {
          "duration": 0.21966888333333223,
          "durationTicks": 239,
          "midi": 42,
          "name": "F#2",
          "ticks": 7920,
          "time": 7.279404,
          "velocity": 0.6299212598425197
        },
        {
          "duration": 0.21966888333333223,
          "durationTicks": 239,
          "midi": 38,
          "name": "D2",
          "ticks": 8160,
          "time": 7.499992000000001,
          "velocity": 0.6299212598425197
        },
        {
          "duration": 0.21966888333333312,
          "durationTicks": 239,
          "midi": 42,
          "name": "F#2",
          "ticks": 8400,
          "time": 7.72058,
          "velocity": 0.6299212598425197
        },
        {
          "duration": 0.44025688333333246,
          "durationTicks": 479,
          "midi": 36,
          "name": "C2",
          "ticks": 8640,
          "time": 7.941168,
          "velocity": 0.6299212598425197
        },
        {
          "duration": 0.21966888333333223,
          "durationTicks": 239,
          "midi": 42,
          "name": "F#2",
          "ticks": 8880,
          "time": 8.161756,
          "velocity": 0.6299212598425197
        },
        {
          "duration": 0.21966888333333223,
          "durationTicks": 239,
          "midi": 38,
          "name": "D2",
          "ticks": 9120,
          "time": 8.382344,
          "velocity": 0.6299212598425197
        },
        {
          "duration": 0.21966888333333223,
          "durationTicks": 239,
          "midi": 42,
          "name": "F#2",
          "ticks": 9360,
          "time": 8.602932000000001,
          "velocity": 0.6299212598425197
        },
        {
          "duration": 0.44025688333333335,
          "durationTicks": 479,
          "midi": 36,
          "name": "C2",
          "ticks": 9600,
          "time": 8.82352,
          "velocity": 0.6299212598425197
        },
        {
          "duration": 0.219668883333334,
          "durationTicks": 239,
          "midi": 42,
          "name": "F#2",
          "ticks": 9840,
          "time": 9.044108,
          "velocity": 0.6299212598425197
        },
        {
          "duration": 0.21966888333333223,
          "durationTicks": 239,
          "midi": 38,
          "name": "D2",
          "ticks": 10080,
          "time": 9.264696,
          "velocity": 0.6299212598425197
        },
        {
          "duration": 0.21966888333333223,
          "durationTicks": 239,
          "midi": 42,
          "name": "F#2",
          "ticks": 10320,
          "time": 9.485284,
          "velocity": 0.6299212598425197
        },
        {
          "duration": 0.44025688333333335,
          "durationTicks": 479,
          "midi": 36,
          "name": "C2",
          "ticks": 10560,
          "time": 9.705872,
          "velocity": 0.6299212598425197
        },
        {
          "duration": 0.21966888333333223,
          "durationTicks": 239,
          "midi": 42,
          "name": "F#2",
          "ticks": 10800,
          "time": 9.92646,
          "velocity": 0.6299212598425197
        },
        {
          "duration": 0.21966888333333223,
          "durationTicks": 239,
          "midi": 38,
          "name": "D2",
          "ticks": 11040,
          "time": 10.147048,
          "velocity": 0.6299212598425197
        },
        {
          "duration": 0.21966888333333223,
          "durationTicks": 239,
          "midi": 42,
          "name": "F#2",
          "ticks": 11280,
          "time": 10.367636000000001,
          "velocity": 0.6299212598425197
        },
        {
          "duration": 0.44025688333333335,
          "durationTicks": 479,
          "midi": 36,
          "name": "C2",
          "ticks": 11520,
          "time": 10.588224,
          "velocity": 0.6299212598425197
        },
        {
          "duration": 0.219668883333334,
          "durationTicks": 239,
          "midi": 42,
          "name": "F#2",
          "ticks": 11760,
          "time": 10.808812,
          "velocity": 0.6299212598425197
        },
        {
          "duration": 0.21966888333333223,
          "durationTicks": 239,
          "midi": 38,
          "name": "D2",
          "ticks": 12000,
          "time": 11.0294,
          "velocity": 0.6299212598425197
        },
        {
          "duration": 0.21966888333333223,
          "durationTicks": 239,
          "midi": 42,
          "name": "F#2",
          "ticks": 12240,
          "time": 11.249988,
          "velocity": 0.6299212598425197
        },
        {
          "duration": 0.10937488333333256,
          "durationTicks": 119,
          "midi": 38,
          "name": "D2",
          "ticks": 12480,
          "time": 11.470576000000001,
          "velocity": 0.6299212598425197
        },
        {
          "duration": 0.4402568833333316,
          "durationTicks": 479,
          "midi": 36,
          "name": "C2",
          "ticks": 12480,
          "time": 11.470576000000001,
          "velocity": 0.6299212598425197
        },
        {
          "duration": 0.10937488333333256,
          "durationTicks": 119,
          "midi": 38,
          "name": "D2",
          "ticks": 12600,
          "time": 11.58087,
          "velocity": 0.6299212598425197
        },
        {
          "duration": 0.10937488333333256,
          "durationTicks": 119,
          "midi": 38,
          "name": "D2",
          "ticks": 12720,
          "time": 11.691164,
          "velocity": 0.6299212598425197
        },
        {
          "duration": 0.10937488333333256,
          "durationTicks": 119,
          "midi": 38,
          "name": "D2",
          "ticks": 12840,
          "time": 11.801458,
          "velocity": 0.6299212598425197
        },
        {
          "duration": 0.21966888333333223,
          "durationTicks": 239,
          "midi": 38,
          "name": "D2",
          "ticks": 12960,
          "time": 11.911752,
          "velocity": 0.6299212598425197
        },
        {
          "duration": 0.21966888333333223,
          "durationTicks": 239,
          "midi": 49,
          "name": "C#3",
          "ticks": 12960,
          "time": 11.911752,
          "velocity": 0.6299212598425197
        },
        {
          "duration": 0.21966888333333223,
          "durationTicks": 239,
          "midi": 38,
          "name": "D2",
          "ticks": 13200,
          "time": 12.132340000000001,
          "velocity": 0.6299212598425197
        },
        {
          "duration": 0.44025688333333335,
          "durationTicks": 479,
          "midi": 36,
          "name": "C2",
          "ticks": 13440,
          "time": 12.352928,
          "velocity": 0.6299212598425197
        },
        {
          "duration": 0.219668883333334,
          "durationTicks": 239,
          "midi": 42,
          "name": "F#2",
          "ticks": 13680,
          "time": 12.573516,
          "velocity": 0.6299212598425197
        },
        {
          "duration": 0.21966888333333223,
          "durationTicks": 239,
          "midi": 38,
          "name": "D2",
          "ticks": 13920,
          "time": 12.794104,
          "velocity": 0.6299212598425197
        },
        {
          "duration": 0.21966888333333223,
          "durationTicks": 239,
          "midi": 42,
          "name": "F#2",
          "ticks": 14160,
          "time": 13.014692,
          "velocity": 0.6299212598425197
        },
        {
          "duration": 0.44025688333333335,
          "durationTicks": 479,
          "midi": 36,
          "name": "C2",
          "ticks": 14400,
          "time": 13.23528,
          "velocity": 0.6299212598425197
        },
        {
          "duration": 0.21966888333333223,
          "durationTicks": 239,
          "midi": 42,
          "name": "F#2",
          "ticks": 14640,
          "time": 13.455868,
          "velocity": 0.6299212598425197
        },
        {
          "duration": 0.21966888333333223,
          "durationTicks": 239,
          "midi": 38,
          "name": "D2",
          "ticks": 14880,
          "time": 13.676456,
          "velocity": 0.6299212598425197
        },
        {
          "duration": 0.21966888333333223,
          "durationTicks": 239,
          "midi": 42,
          "name": "F#2",
          "ticks": 15120,
          "time": 13.897044000000001,
          "velocity": 0.6299212598425197
        },
        {
          "duration": 0.44025688333333335,
          "durationTicks": 479,
          "midi": 36,
          "name": "C2",
          "ticks": 15360,
          "time": 14.117632,
          "velocity": 0.6299212598425197
        },
        {
          "duration": 0.219668883333334,
          "durationTicks": 239,
          "midi": 42,
          "name": "F#2",
          "ticks": 15600,
          "time": 14.33822,
          "velocity": 0.6299212598425197
        },
        {
          "duration": 0.219668883333334,
          "durationTicks": 239,
          "midi": 38,
          "name": "D2",
          "ticks": 15840,
          "time": 14.558808,
          "velocity": 0.6299212598425197
        },
        {
          "duration": 0.6608448833333345,
          "durationTicks": 719,
          "midi": 38,
          "name": "D2",
          "ticks": 16080,
          "time": 14.779396,
          "velocity": 0.6299212598425197
        },
        {
          "duration": 0.10937488333333434,
          "durationTicks": 119,
          "midi": 50,
          "name": "D3",
          "ticks": 16800,
          "time": 15.44116,
          "velocity": 0.6299212598425197
        },
        {
          "duration": 0.10937488333333434,
          "durationTicks": 119,
          "midi": 50,
          "name": "D3",
          "ticks": 16920,
          "time": 15.551454,
          "velocity": 0.6299212598425197
        },
        {
          "duration": 0.6608448833333345,
          "durationTicks": 719,
          "midi": 38,
          "name": "D2",
          "ticks": 17040,
          "time": 15.661748000000001,
          "velocity": 0.6299212598425197
        },
        {
          "duration": 0.10937488333333434,
          "durationTicks": 119,
          "midi": 50,
          "name": "D3",
          "ticks": 17760,
          "time": 16.323512,
          "velocity": 0.6299212598425197
        },
        {
          "duration": 0.10937488333333434,
          "durationTicks": 119,
          "midi": 50,
          "name": "D3",
          "ticks": 17880,
          "time": 16.433806,
          "velocity": 0.6299212598425197
        },
        {
          "duration": 0.6608448833333327,
          "durationTicks": 719,
          "midi": 38,
          "name": "D2",
          "ticks": 18000,
          "time": 16.5441,
          "velocity": 0.6299212598425197
        },
        {
          "duration": 0.10937488333333434,
          "durationTicks": 119,
          "midi": 50,
          "name": "D3",
          "ticks": 18720,
          "time": 17.205864000000002,
          "velocity": 0.6299212598425197
        },
        {
          "duration": 0.10937488333333434,
          "durationTicks": 119,
          "midi": 50,
          "name": "D3",
          "ticks": 18840,
          "time": 17.316158,
          "velocity": 0.6299212598425197
        },
        {
          "duration": 0.44025688333333335,
          "durationTicks": 479,
          "midi": 38,
          "name": "D2",
          "ticks": 18960,
          "time": 17.426452,
          "velocity": 0.6299212598425197
        },
        {
          "duration": 0.219668883333334,
          "durationTicks": 239,
          "midi": 49,
          "name": "C#3",
          "ticks": 20160,
          "time": 18.529392,
          "velocity": 0.6299212598425197
        },
        {
          "duration": 0.44025688333333335,
          "durationTicks": 479,
          "midi": 36,
          "name": "C2",
          "ticks": 20160,
          "time": 18.529392,
          "velocity": 0.6299212598425197
        },
        {
          "duration": 0.219668883333334,
          "durationTicks": 239,
          "midi": 42,
          "name": "F#2",
          "ticks": 20400,
          "time": 18.74998,
          "velocity": 0.6299212598425197
        },
        {
          "duration": 0.219668883333334,
          "durationTicks": 239,
          "midi": 38,
          "name": "D2",
          "ticks": 20640,
          "time": 18.970568,
          "velocity": 0.6299212598425197
        },
        {
          "duration": 0.219668883333334,
          "durationTicks": 239,
          "midi": 42,
          "name": "F#2",
          "ticks": 20880,
          "time": 19.191156,
          "velocity": 0.6299212598425197
        },
        {
          "duration": 0.4402568833333369,
          "durationTicks": 479,
          "midi": 36,
          "name": "C2",
          "ticks": 21120,
          "time": 19.411744,
          "velocity": 0.6299212598425197
        },
        {
          "duration": 0.219668883333334,
          "durationTicks": 239,
          "midi": 42,
          "name": "F#2",
          "ticks": 21360,
          "time": 19.632332,
          "velocity": 0.6299212598425197
        },
        {
          "duration": 0.219668883333334,
          "durationTicks": 239,
          "midi": 38,
          "name": "D2",
          "ticks": 21600,
          "time": 19.85292,
          "velocity": 0.6299212598425197
        },
        {
          "duration": 0.219668883333334,
          "durationTicks": 239,
          "midi": 42,
          "name": "F#2",
          "ticks": 21840,
          "time": 20.073508,
          "velocity": 0.6299212598425197
        },
        {
          "duration": 0.44025688333333335,
          "durationTicks": 479,
          "midi": 36,
          "name": "C2",
          "ticks": 22080,
          "time": 20.294096,
          "velocity": 0.6299212598425197
        },
        {
          "duration": 0.219668883333334,
          "durationTicks": 239,
          "midi": 42,
          "name": "F#2",
          "ticks": 22320,
          "time": 20.514684,
          "velocity": 0.6299212598425197
        },
        {
          "duration": 0.219668883333334,
          "durationTicks": 239,
          "midi": 38,
          "name": "D2",
          "ticks": 22560,
          "time": 20.735272000000002,
          "velocity": 0.6299212598425197
        },
        {
          "duration": 0.219668883333334,
          "durationTicks": 239,
          "midi": 42,
          "name": "F#2",
          "ticks": 22800,
          "time": 20.95586,
          "velocity": 0.6299212598425197
        },
        {
          "duration": 0.44025688333333335,
          "durationTicks": 479,
          "midi": 36,
          "name": "C2",
          "ticks": 23040,
          "time": 21.176448,
          "velocity": 0.6299212598425197
        },
        {
          "duration": 0.219668883333334,
          "durationTicks": 239,
          "midi": 42,
          "name": "F#2",
          "ticks": 23280,
          "time": 21.397036,
          "velocity": 0.6299212598425197
        },
        {
          "duration": 0.219668883333334,
          "durationTicks": 239,
          "midi": 38,
          "name": "D2",
          "ticks": 23520,
          "time": 21.617624,
          "velocity": 0.6299212598425197
        },
        {
          "duration": 0.219668883333334,
          "durationTicks": 239,
          "midi": 42,
          "name": "F#2",
          "ticks": 23760,
          "time": 21.838212000000002,
          "velocity": 0.6299212598425197
        },
        {
          "duration": 0.44025688333333335,
          "durationTicks": 479,
          "midi": 36,
          "name": "C2",
          "ticks": 24000,
          "time": 22.0588,
          "velocity": 0.6299212598425197
        },
        {
          "duration": 0.219668883333334,
          "durationTicks": 239,
          "midi": 42,
          "name": "F#2",
          "ticks": 24240,
          "time": 22.279388,
          "velocity": 0.6299212598425197
        },
        {
          "duration": 0.219668883333334,
          "durationTicks": 239,
          "midi": 38,
          "name": "D2",
          "ticks": 24480,
          "time": 22.499976,
          "velocity": 0.6299212598425197
        },
        {
          "duration": 0.219668883333334,
          "durationTicks": 239,
          "midi": 42,
          "name": "F#2",
          "ticks": 24720,
          "time": 22.720564,
          "velocity": 0.6299212598425197
        },
        {
          "duration": 0.44025688333333335,
          "durationTicks": 479,
          "midi": 36,
          "name": "C2",
          "ticks": 24960,
          "time": 22.941152000000002,
          "velocity": 0.6299212598425197
        },
        {
          "duration": 0.219668883333334,
          "durationTicks": 239,
          "midi": 42,
          "name": "F#2",
          "ticks": 25200,
          "time": 23.16174,
          "velocity": 0.6299212598425197
        },
        {
          "duration": 0.219668883333334,
          "durationTicks": 239,
          "midi": 38,
          "name": "D2",
          "ticks": 25440,
          "time": 23.382328,
          "velocity": 0.6299212598425197
        },
        {
          "duration": 0.219668883333334,
          "durationTicks": 239,
          "midi": 42,
          "name": "F#2",
          "ticks": 25680,
          "time": 23.602916,
          "velocity": 0.6299212598425197
        },
        {
          "duration": 0.44025688333333335,
          "durationTicks": 479,
          "midi": 36,
          "name": "C2",
          "ticks": 25920,
          "time": 23.823504,
          "velocity": 0.6299212598425197
        },
        {
          "duration": 0.219668883333334,
          "durationTicks": 239,
          "midi": 42,
          "name": "F#2",
          "ticks": 26160,
          "time": 24.044092,
          "velocity": 0.6299212598425197
        },
        {
          "duration": 0.219668883333334,
          "durationTicks": 239,
          "midi": 38,
          "name": "D2",
          "ticks": 26400,
          "time": 24.264680000000002,
          "velocity": 0.6299212598425197
        },
        {
          "duration": 0.219668883333334,
          "durationTicks": 239,
          "midi": 42,
          "name": "F#2",
          "ticks": 26640,
          "time": 24.485268,
          "velocity": 0.6299212598425197
        },
        {
          "duration": 0.44025688333333335,
          "durationTicks": 479,
          "midi": 36,
          "name": "C2",
          "ticks": 26880,
          "time": 24.705856,
          "velocity": 0.6299212598425197
        },
        {
          "duration": 0.219668883333334,
          "durationTicks": 239,
          "midi": 42,
          "name": "F#2",
          "ticks": 27120,
          "time": 24.926444,
          "velocity": 0.6299212598425197
        },
        {
          "duration": 0.219668883333334,
          "durationTicks": 239,
          "midi": 38,
          "name": "D2",
          "ticks": 27360,
          "time": 25.147032,
          "velocity": 0.6299212598425197
        },
        {
          "duration": 0.219668883333334,
          "durationTicks": 239,
          "midi": 42,
          "name": "F#2",
          "ticks": 27600,
          "time": 25.367620000000002,
          "velocity": 0.6299212598425197
        },
        {
          "duration": 0.219668883333334,
          "durationTicks": 239,
          "midi": 49,
          "name": "C#3",
          "ticks": 27840,
          "time": 25.588208,
          "velocity": 0.6299212598425197
        },
        {
          "duration": 0.44025688333333335,
          "durationTicks": 479,
          "midi": 36,
          "name": "C2",
          "ticks": 27840,
          "time": 25.588208,
          "velocity": 0.6299212598425197
        },
        {
          "duration": 0.219668883333334,
          "durationTicks": 239,
          "midi": 42,
          "name": "F#2",
          "ticks": 28080,
          "time": 25.808796,
          "velocity": 0.6299212598425197
        },
        {
          "duration": 0.219668883333334,
          "durationTicks": 239,
          "midi": 38,
          "name": "D2",
          "ticks": 28320,
          "time": 26.029384,
          "velocity": 0.6299212598425197
        },
        {
          "duration": 0.4402568833333369,
          "durationTicks": 479,
          "midi": 49,
          "name": "C#3",
          "ticks": 28560,
          "time": 26.249972,
          "velocity": 0.6299212598425197
        },
        {
          "duration": 0.4402568833333369,
          "durationTicks": 479,
          "midi": 36,
          "name": "C2",
          "ticks": 28800,
          "time": 26.47056,
          "velocity": 0.6299212598425197
        },
        {
          "duration": 0.219668883333334,
          "durationTicks": 239,
          "midi": 42,
          "name": "F#2",
          "ticks": 29040,
          "time": 26.691148000000002,
          "velocity": 0.6299212598425197
        },
        {
          "duration": 0.219668883333334,
          "durationTicks": 239,
          "midi": 38,
          "name": "D2",
          "ticks": 29280,
          "time": 26.911736,
          "velocity": 0.6299212598425197
        },
        {
          "duration": 0.219668883333334,
          "durationTicks": 239,
          "midi": 42,
          "name": "F#2",
          "ticks": 29520,
          "time": 27.132324,
          "velocity": 0.6299212598425197
        },
        {
          "duration": 0.219668883333334,
          "durationTicks": 239,
          "midi": 49,
          "name": "C#3",
          "ticks": 29760,
          "time": 27.352912,
          "velocity": 0.6299212598425197
        },
        {
          "duration": 0.44025688333333335,
          "durationTicks": 479,
          "midi": 36,
          "name": "C2",
          "ticks": 29760,
          "time": 27.352912,
          "velocity": 0.6299212598425197
        },
        {
          "duration": 0.219668883333334,
          "durationTicks": 239,
          "midi": 42,
          "name": "F#2",
          "ticks": 30000,
          "time": 27.5735,
          "velocity": 0.6299212598425197
        },
        {
          "duration": 0.219668883333334,
          "durationTicks": 239,
          "midi": 38,
          "name": "D2",
          "ticks": 30240,
          "time": 27.794088000000002,
          "velocity": 0.6299212598425197
        },
        {
          "duration": 0.44025688333333335,
          "durationTicks": 479,
          "midi": 49,
          "name": "C#3",
          "ticks": 30480,
          "time": 28.014676,
          "velocity": 0.6299212598425197
        },
        {
          "duration": 0.44025688333333335,
          "durationTicks": 479,
          "midi": 36,
          "name": "C2",
          "ticks": 30720,
          "time": 28.235264,
          "velocity": 0.6299212598425197
        },
        {
          "duration": 0.219668883333334,
          "durationTicks": 239,
          "midi": 42,
          "name": "F#2",
          "ticks": 30960,
          "time": 28.455852,
          "velocity": 0.6299212598425197
        },
        {
          "duration": 0.219668883333334,
          "durationTicks": 239,
          "midi": 38,
          "name": "D2",
          "ticks": 31200,
          "time": 28.67644,
          "velocity": 0.6299212598425197
        },
        {
          "duration": 0.219668883333334,
          "durationTicks": 239,
          "midi": 42,
          "name": "F#2",
          "ticks": 31440,
          "time": 28.897028000000002,
          "velocity": 0.6299212598425197
        },
        {
          "duration": 0.219668883333334,
          "durationTicks": 239,
          "midi": 49,
          "name": "C#3",
          "ticks": 31680,
          "time": 29.117616,
          "velocity": 0.6299212598425197
        },
        {
          "duration": 0.44025688333333335,
          "durationTicks": 479,
          "midi": 36,
          "name": "C2",
          "ticks": 31680,
          "time": 29.117616,
          "velocity": 0.6299212598425197
        },
        {
          "duration": 0.219668883333334,
          "durationTicks": 239,
          "midi": 42,
          "name": "F#2",
          "ticks": 31920,
          "time": 29.338204,
          "velocity": 0.6299212598425197
        },
        {
          "duration": 0.219668883333334,
          "durationTicks": 239,
          "midi": 38,
          "name": "D2",
          "ticks": 32160,
          "time": 29.558792,
          "velocity": 0.6299212598425197
        },
        {
          "duration": 0.219668883333334,
          "durationTicks": 239,
          "midi": 42,
          "name": "F#2",
          "ticks": 32400,
          "time": 29.77938,
          "velocity": 0.6299212598425197
        },
        {
          "duration": 0.44025688333333335,
          "durationTicks": 479,
          "midi": 36,
          "name": "C2",
          "ticks": 32640,
          "time": 29.999968000000003,
          "velocity": 0.6299212598425197
        },
        {
          "duration": 0.219668883333334,
          "durationTicks": 239,
          "midi": 42,
          "name": "F#2",
          "ticks": 32880,
          "time": 30.220556000000002,
          "velocity": 0.6299212598425197
        },
        {
          "duration": 0.219668883333334,
          "durationTicks": 239,
          "midi": 38,
          "name": "D2",
          "ticks": 33120,
          "time": 30.441144,
          "velocity": 0.6299212598425197
        },
        {
          "duration": 0.219668883333334,
          "durationTicks": 239,
          "midi": 42,
          "name": "F#2",
          "ticks": 33360,
          "time": 30.661732,
          "velocity": 0.6299212598425197
        },
        {
          "duration": 0.44025688333333335,
          "durationTicks": 479,
          "midi": 50,
          "name": "D3",
          "ticks": 33600,
          "time": 30.88232,
          "velocity": 0.6299212598425197
        },
        {
          "duration": 0.44025688333333335,
          "durationTicks": 479,
          "midi": 47,
          "name": "B2",
          "ticks": 34080,
          "time": 31.323496000000002,
          "velocity": 0.6299212598425197
        },
        {
          "duration": 0.3299628833333337,
          "durationTicks": 359,
          "midi": 45,
          "name": "A2",
          "ticks": 34560,
          "time": 31.764672,
          "velocity": 0.6299212598425197
        },
        {
          "duration": 0.10937488333333789,
          "durationTicks": 119,
          "midi": 45,
          "name": "A2",
          "ticks": 34920,
          "time": 32.095554,
          "velocity": 0.6299212598425197
        },
        {
          "duration": 0.219668883333334,
          "durationTicks": 239,
          "midi": 35,
          "name": "B1",
          "ticks": 35040,
          "time": 32.205848,
          "velocity": 0.6299212598425197
        },
        {
          "duration": 0.219668883333334,
          "durationTicks": 239,
          "midi": 45,
          "name": "A2",
          "ticks": 35040,
          "time": 32.205848,
          "velocity": 0.6299212598425197
        },
        {
          "duration": 0.219668883333334,
          "durationTicks": 239,
          "midi": 35,
          "name": "B1",
          "ticks": 35280,
          "time": 32.426436,
          "velocity": 0.6299212598425197
        },
        {
          "duration": 0.219668883333334,
          "durationTicks": 239,
          "midi": 45,
          "name": "A2",
          "ticks": 35280,
          "time": 32.426436,
          "velocity": 0.6299212598425197
        },
        {
          "duration": 0.219668883333334,
          "durationTicks": 239,
          "midi": 49,
          "name": "C#3",
          "ticks": 35520,
          "time": 32.647024,
          "velocity": 0.6299212598425197
        },
        {
          "duration": 0.44025688333333335,
          "durationTicks": 479,
          "midi": 36,
          "name": "C2",
          "ticks": 35520,
          "time": 32.647024,
          "velocity": 0.6299212598425197
        },
        {
          "duration": 0.219668883333334,
          "durationTicks": 239,
          "midi": 53,
          "name": "F3",
          "ticks": 35760,
          "time": 32.867612,
          "velocity": 0.6299212598425197
        },
        {
          "duration": 0.219668883333334,
          "durationTicks": 239,
          "midi": 38,
          "name": "D2",
          "ticks": 36000,
          "time": 33.0882,
          "velocity": 0.6299212598425197
        },
        {
          "duration": 0.219668883333334,
          "durationTicks": 239,
          "midi": 53,
          "name": "F3",
          "ticks": 36240,
          "time": 33.308788,
          "velocity": 0.6299212598425197
        },
        {
          "duration": 0.44025688333333335,
          "durationTicks": 479,
          "midi": 36,
          "name": "C2",
          "ticks": 36480,
          "time": 33.529376,
          "velocity": 0.6299212598425197
        },
        {
          "duration": 0.219668883333334,
          "durationTicks": 239,
          "midi": 53,
          "name": "F3",
          "ticks": 36720,
          "time": 33.749964,
          "velocity": 0.6299212598425197
        },
        {
          "duration": 0.219668883333334,
          "durationTicks": 239,
          "midi": 38,
          "name": "D2",
          "ticks": 36960,
          "time": 33.970552,
          "velocity": 0.6299212598425197
        },
        {
          "duration": 0.219668883333334,
          "durationTicks": 239,
          "midi": 49,
          "name": "C#3",
          "ticks": 37200,
          "time": 34.191140000000004,
          "velocity": 0.6299212598425197
        },
        {
          "duration": 0.44025688333333335,
          "durationTicks": 479,
          "midi": 36,
          "name": "C2",
          "ticks": 37440,
          "time": 34.411728000000004,
          "velocity": 0.6299212598425197
        },
        {
          "duration": 0.219668883333334,
          "durationTicks": 239,
          "midi": 53,
          "name": "F3",
          "ticks": 37680,
          "time": 34.632316,
          "velocity": 0.6299212598425197
        },
        {
          "duration": 0.219668883333334,
          "durationTicks": 239,
          "midi": 38,
          "name": "D2",
          "ticks": 37920,
          "time": 34.852904,
          "velocity": 0.6299212598425197
        },
        {
          "duration": 0.219668883333334,
          "durationTicks": 239,
          "midi": 53,
          "name": "F3",
          "ticks": 38160,
          "time": 35.073492,
          "velocity": 0.6299212598425197
        },
        {
          "duration": 0.44025688333333335,
          "durationTicks": 479,
          "midi": 36,
          "name": "C2",
          "ticks": 38400,
          "time": 35.29408,
          "velocity": 0.6299212598425197
        },
        {
          "duration": 0.219668883333334,
          "durationTicks": 239,
          "midi": 53,
          "name": "F3",
          "ticks": 38640,
          "time": 35.514668,
          "velocity": 0.6299212598425197
        },
        {
          "duration": 0.219668883333334,
          "durationTicks": 239,
          "midi": 38,
          "name": "D2",
          "ticks": 38880,
          "time": 35.735256,
          "velocity": 0.6299212598425197
        },
        {
          "duration": 0.219668883333334,
          "durationTicks": 239,
          "midi": 53,
          "name": "F3",
          "ticks": 39120,
          "time": 35.955844,
          "velocity": 0.6299212598425197
        },
        {
          "duration": 0.44025688333333335,
          "durationTicks": 479,
          "midi": 36,
          "name": "C2",
          "ticks": 39360,
          "time": 36.176432,
          "velocity": 0.6299212598425197
        },
        {
          "duration": 0.219668883333334,
          "durationTicks": 239,
          "midi": 53,
          "name": "F3",
          "ticks": 39600,
          "time": 36.39702,
          "velocity": 0.6299212598425197
        },
        {
          "duration": 0.219668883333334,
          "durationTicks": 239,
          "midi": 38,
          "name": "D2",
          "ticks": 39840,
          "time": 36.617608000000004,
          "velocity": 0.6299212598425197
        },
        {
          "duration": 0.219668883333334,
          "durationTicks": 239,
          "midi": 53,
          "name": "F3",
          "ticks": 40080,
          "time": 36.838196,
          "velocity": 0.6299212598425197
        },
        {
          "duration": 0.44025688333333335,
          "durationTicks": 479,
          "midi": 36,
          "name": "C2",
          "ticks": 40320,
          "time": 37.058784,
          "velocity": 0.6299212598425197
        },
        {
          "duration": 0.219668883333334,
          "durationTicks": 239,
          "midi": 53,
          "name": "F3",
          "ticks": 40560,
          "time": 37.279372,
          "velocity": 0.6299212598425197
        },
        {
          "duration": 0.219668883333334,
          "durationTicks": 239,
          "midi": 38,
          "name": "D2",
          "ticks": 40800,
          "time": 37.49996,
          "velocity": 0.6299212598425197
        },
        {
          "duration": 0.219668883333334,
          "durationTicks": 239,
          "midi": 49,
          "name": "C#3",
          "ticks": 41040,
          "time": 37.720548,
          "velocity": 0.6299212598425197
        },
        {
          "duration": 0.44025688333333335,
          "durationTicks": 479,
          "midi": 36,
          "name": "C2",
          "ticks": 41280,
          "time": 37.941136,
          "velocity": 0.6299212598425197
        },
        {
          "duration": 0.219668883333334,
          "durationTicks": 239,
          "midi": 53,
          "name": "F3",
          "ticks": 41520,
          "time": 38.161724,
          "velocity": 0.6299212598425197
        },
        {
          "duration": 0.219668883333334,
          "durationTicks": 239,
          "midi": 38,
          "name": "D2",
          "ticks": 41760,
          "time": 38.382312,
          "velocity": 0.6299212598425197
        },
        {
          "duration": 0.219668883333334,
          "durationTicks": 239,
          "midi": 53,
          "name": "F3",
          "ticks": 42000,
          "time": 38.6029,
          "velocity": 0.6299212598425197
        },
        {
          "duration": 0.44025688333334045,
          "durationTicks": 479,
          "midi": 36,
          "name": "C2",
          "ticks": 42240,
          "time": 38.823488,
          "velocity": 0.6299212598425197
        },
        {
          "duration": 0.219668883333334,
          "durationTicks": 239,
          "midi": 53,
          "name": "F3",
          "ticks": 42480,
          "time": 39.044076000000004,
          "velocity": 0.6299212598425197
        },
        {
          "duration": 0.219668883333334,
          "durationTicks": 239,
          "midi": 38,
          "name": "D2",
          "ticks": 42720,
          "time": 39.264664,
          "velocity": 0.6299212598425197
        },
        {
          "duration": 0.219668883333334,
          "durationTicks": 239,
          "midi": 53,
          "name": "F3",
          "ticks": 42960,
          "time": 39.485252,
          "velocity": 0.6299212598425197
        },
        {
          "duration": 0.44025688333333335,
          "durationTicks": 479,
          "midi": 36,
          "name": "C2",
          "ticks": 43200,
          "time": 39.70584,
          "velocity": 0.6299212598425197
        },
        {
          "duration": 0.219668883333334,
          "durationTicks": 239,
          "midi": 53,
          "name": "F3",
          "ticks": 43440,
          "time": 39.926428,
          "velocity": 0.6299212598425197
        },
        {
          "duration": 0.219668883333334,
          "durationTicks": 239,
          "midi": 38,
          "name": "D2",
          "ticks": 43680,
          "time": 40.147016,
          "velocity": 0.6299212598425197
        },
        {
          "duration": 0.219668883333334,
          "durationTicks": 239,
          "midi": 53,
          "name": "F3",
          "ticks": 43920,
          "time": 40.367604,
          "velocity": 0.6299212598425197
        },
        {
          "duration": 0.44025688333333335,
          "durationTicks": 479,
          "midi": 36,
          "name": "C2",
          "ticks": 44160,
          "time": 40.588192,
          "velocity": 0.6299212598425197
        },
        {
          "duration": 0.219668883333334,
          "durationTicks": 239,
          "midi": 53,
          "name": "F3",
          "ticks": 44400,
          "time": 40.80878,
          "velocity": 0.6299212598425197
        },
        {
          "duration": 0.219668883333334,
          "durationTicks": 239,
          "midi": 38,
          "name": "D2",
          "ticks": 44640,
          "time": 41.029368,
          "velocity": 0.6299212598425197
        },
        {
          "duration": 0.219668883333334,
          "durationTicks": 239,
          "midi": 49,
          "name": "C#3",
          "ticks": 44880,
          "time": 41.249956000000005,
          "velocity": 0.6299212598425197
        },
        {
          "duration": 0.44025688333333335,
          "durationTicks": 479,
          "midi": 36,
          "name": "C2",
          "ticks": 45120,
          "time": 41.470544000000004,
          "velocity": 0.6299212598425197
        },
        {
          "duration": 0.219668883333334,
          "durationTicks": 239,
          "midi": 53,
          "name": "F3",
          "ticks": 45360,
          "time": 41.691132,
          "velocity": 0.6299212598425197
        },
        {
          "duration": 0.219668883333334,
          "durationTicks": 239,
          "midi": 38,
          "name": "D2",
          "ticks": 45600,
          "time": 41.91172,
          "velocity": 0.6299212598425197
        },
        {
          "duration": 0.219668883333334,
          "durationTicks": 239,
          "midi": 53,
          "name": "F3",
          "ticks": 45840,
          "time": 42.132308,
          "velocity": 0.6299212598425197
        },
        {
          "duration": 0.44025688333333335,
          "durationTicks": 479,
          "midi": 36,
          "name": "C2",
          "ticks": 46080,
          "time": 42.352896,
          "velocity": 0.6299212598425197
        },
        {
          "duration": 0.219668883333334,
          "durationTicks": 239,
          "midi": 53,
          "name": "F3",
          "ticks": 46320,
          "time": 42.573484,
          "velocity": 0.6299212598425197
        },
        {
          "duration": 0.219668883333334,
          "durationTicks": 239,
          "midi": 38,
          "name": "D2",
          "ticks": 46560,
          "time": 42.794072,
          "velocity": 0.6299212598425197
        },
        {
          "duration": 0.219668883333334,
          "durationTicks": 239,
          "midi": 53,
          "name": "F3",
          "ticks": 46800,
          "time": 43.01466,
          "velocity": 0.6299212598425197
        },
        {
          "duration": 0.219668883333334,
          "durationTicks": 239,
          "midi": 38,
          "name": "D2",
          "ticks": 47040,
          "time": 43.235248,
          "velocity": 0.6299212598425197
        },
        {
          "duration": 0.219668883333334,
          "durationTicks": 239,
          "midi": 38,
          "name": "D2",
          "ticks": 47280,
          "time": 43.455836,
          "velocity": 0.6299212598425197
        },
        {
          "duration": 0.219668883333334,
          "durationTicks": 239,
          "midi": 38,
          "name": "D2",
          "ticks": 47520,
          "time": 43.676424000000004,
          "velocity": 0.6299212598425197
        },
        {
          "duration": 0.219668883333334,
          "durationTicks": 239,
          "midi": 38,
          "name": "D2",
          "ticks": 47760,
          "time": 43.897012000000004,
          "velocity": 0.6299212598425197
        },
        {
          "duration": 0.219668883333334,
          "durationTicks": 239,
          "midi": 38,
          "name": "D2",
          "ticks": 48240,
          "time": 44.338188,
          "velocity": 0.6299212598425197
        },
        {
          "duration": 0.219668883333334,
          "durationTicks": 239,
          "midi": 38,
          "name": "D2",
          "ticks": 48720,
          "time": 44.779364,
          "velocity": 0.6299212598425197
        },
        {
          "duration": 0.219668883333334,
          "durationTicks": 239,
          "midi": 35,
          "name": "B1",
          "ticks": 48960,
          "time": 44.999952,
          "velocity": 0.6299212598425197
        },
        {
          "duration": 0.219668883333334,
          "durationTicks": 239,
          "midi": 38,
          "name": "D2",
          "ticks": 49200,
          "time": 45.22054,
          "velocity": 0.6299212598425197
        },
        {
          "duration": 0.219668883333334,
          "durationTicks": 239,
          "midi": 42,
          "name": "F#2",
          "ticks": 49200,
          "time": 45.22054,
          "velocity": 0.6299212598425197
        },
        {
          "duration": 0.219668883333334,
          "durationTicks": 239,
          "midi": 35,
          "name": "B1",
          "ticks": 49440,
          "time": 45.441128,
          "velocity": 0.6299212598425197
        },
        {
          "duration": 0.219668883333334,
          "durationTicks": 239,
          "midi": 38,
          "name": "D2",
          "ticks": 49680,
          "time": 45.661716,
          "velocity": 0.6299212598425197
        },
        {
          "duration": 0.219668883333334,
          "durationTicks": 239,
          "midi": 42,
          "name": "F#2",
          "ticks": 49680,
          "time": 45.661716,
          "velocity": 0.6299212598425197
        },
        {
          "duration": 0.219668883333334,
          "durationTicks": 239,
          "midi": 38,
          "name": "D2",
          "ticks": 49920,
          "time": 45.882304000000005,
          "velocity": 0.6299212598425197
        },
        {
          "duration": 0.219668883333334,
          "durationTicks": 239,
          "midi": 42,
          "name": "F#2",
          "ticks": 50160,
          "time": 46.102892000000004,
          "velocity": 0.6299212598425197
        },
        {
          "duration": 0.219668883333334,
          "durationTicks": 239,
          "midi": 35,
          "name": "B1",
          "ticks": 50160,
          "time": 46.102892000000004,
          "velocity": 0.6299212598425197
        },
        {
          "duration": 0.219668883333334,
          "durationTicks": 239,
          "midi": 38,
          "name": "D2",
          "ticks": 50400,
          "time": 46.32348,
          "velocity": 0.6299212598425197
        },
        {
          "duration": 0.44025688333333335,
          "durationTicks": 479,
          "midi": 38,
          "name": "D2",
          "ticks": 50640,
          "time": 46.544068,
          "velocity": 0.6299212598425197
        },
        {
          "duration": 0.44025688333333335,
          "durationTicks": 479,
          "midi": 50,
          "name": "D3",
          "ticks": 50640,
          "time": 46.544068,
          "velocity": 0.6299212598425197
        },
        {
          "duration": 0.44025688333333335,
          "durationTicks": 479,
          "midi": 35,
          "name": "B1",
          "ticks": 50640,
          "time": 46.544068,
          "velocity": 0.6299212598425197
        },
        {
          "duration": 0.219668883333334,
          "durationTicks": 239,
          "midi": 38,
          "name": "D2",
          "ticks": 51120,
          "time": 46.985244,
          "velocity": 0.6299212598425197
        },
        {
          "duration": 0.219668883333334,
          "durationTicks": 239,
          "midi": 50,
          "name": "D3",
          "ticks": 51120,
          "time": 46.985244,
          "velocity": 0.6299212598425197
        },
        {
          "duration": 0.219668883333334,
          "durationTicks": 239,
          "midi": 35,
          "name": "B1",
          "ticks": 51120,
          "time": 46.985244,
          "velocity": 0.6299212598425197
        },
        {
          "duration": 0.219668883333334,
          "durationTicks": 239,
          "midi": 38,
          "name": "D2",
          "ticks": 51360,
          "time": 47.205832,
          "velocity": 0.6299212598425197
        },
        {
          "duration": 0.219668883333334,
          "durationTicks": 239,
          "midi": 50,
          "name": "D3",
          "ticks": 51360,
          "time": 47.205832,
          "velocity": 0.6299212598425197
        },
        {
          "duration": 0.219668883333334,
          "durationTicks": 239,
          "midi": 35,
          "name": "B1",
          "ticks": 51360,
          "time": 47.205832,
          "velocity": 0.6299212598425197
        },
        {
          "duration": 0.219668883333334,
          "durationTicks": 239,
          "midi": 38,
          "name": "D2",
          "ticks": 51600,
          "time": 47.42642,
          "velocity": 0.6299212598425197
        },
        {
          "duration": 0.219668883333334,
          "durationTicks": 239,
          "midi": 50,
          "name": "D3",
          "ticks": 51600,
          "time": 47.42642,
          "velocity": 0.6299212598425197
        },
        {
          "duration": 0.219668883333334,
          "durationTicks": 239,
          "midi": 35,
          "name": "B1",
          "ticks": 51600,
          "time": 47.42642,
          "velocity": 0.6299212598425197
        },
        {
          "duration": 0.219668883333334,
          "durationTicks": 239,
          "midi": 38,
          "name": "D2",
          "ticks": 51840,
          "time": 47.647008,
          "velocity": 0.6299212598425197
        },
        {
          "duration": 0.219668883333334,
          "durationTicks": 239,
          "midi": 50,
          "name": "D3",
          "ticks": 51840,
          "time": 47.647008,
          "velocity": 0.6299212598425197
        },
        {
          "duration": 0.219668883333334,
          "durationTicks": 239,
          "midi": 35,
          "name": "B1",
          "ticks": 51840,
          "time": 47.647008,
          "velocity": 0.6299212598425197
        },
        {
          "duration": 0.219668883333334,
          "durationTicks": 239,
          "midi": 49,
          "name": "C#3",
          "ticks": 52800,
          "time": 48.529360000000004,
          "velocity": 0.6299212598425197
        },
        {
          "duration": 0.44025688333333335,
          "durationTicks": 479,
          "midi": 36,
          "name": "C2",
          "ticks": 52800,
          "time": 48.529360000000004,
          "velocity": 0.6299212598425197
        },
        {
          "duration": 0.219668883333334,
          "durationTicks": 239,
          "midi": 42,
          "name": "F#2",
          "ticks": 53040,
          "time": 48.749948,
          "velocity": 0.6299212598425197
        },
        {
          "duration": 0.219668883333334,
          "durationTicks": 239,
          "midi": 38,
          "name": "D2",
          "ticks": 53280,
          "time": 48.970536,
          "velocity": 0.6299212598425197
        },
        {
          "duration": 0.219668883333334,
          "durationTicks": 239,
          "midi": 42,
          "name": "F#2",
          "ticks": 53520,
          "time": 49.191124,
          "velocity": 0.6299212598425197
        },
        {
          "duration": 0.44025688333333335,
          "durationTicks": 479,
          "midi": 36,
          "name": "C2",
          "ticks": 53760,
          "time": 49.411712,
          "velocity": 0.6299212598425197
        },
        {
          "duration": 0.219668883333334,
          "durationTicks": 239,
          "midi": 42,
          "name": "F#2",
          "ticks": 54000,
          "time": 49.6323,
          "velocity": 0.6299212598425197
        },
        {
          "duration": 0.219668883333334,
          "durationTicks": 239,
          "midi": 38,
          "name": "D2",
          "ticks": 54240,
          "time": 49.852888,
          "velocity": 0.6299212598425197
        },
        {
          "duration": 0.219668883333334,
          "durationTicks": 239,
          "midi": 42,
          "name": "F#2",
          "ticks": 54480,
          "time": 50.073476,
          "velocity": 0.6299212598425197
        },
        {
          "duration": 0.219668883333334,
          "durationTicks": 239,
          "midi": 49,
          "name": "C#3",
          "ticks": 54720,
          "time": 50.294064,
          "velocity": 0.6299212598425197
        },
        {
          "duration": 0.44025688333333335,
          "durationTicks": 479,
          "midi": 36,
          "name": "C2",
          "ticks": 54720,
          "time": 50.294064,
          "velocity": 0.6299212598425197
        },
        {
          "duration": 0.219668883333334,
          "durationTicks": 239,
          "midi": 42,
          "name": "F#2",
          "ticks": 54960,
          "time": 50.514652,
          "velocity": 0.6299212598425197
        },
        {
          "duration": 0.219668883333334,
          "durationTicks": 239,
          "midi": 38,
          "name": "D2",
          "ticks": 55200,
          "time": 50.735240000000005,
          "velocity": 0.6299212598425197
        },
        {
          "duration": 0.44025688333333335,
          "durationTicks": 479,
          "midi": 49,
          "name": "C#3",
          "ticks": 55440,
          "time": 50.955828000000004,
          "velocity": 0.6299212598425197
        },
        {
          "duration": 0.44025688333333335,
          "durationTicks": 479,
          "midi": 36,
          "name": "C2",
          "ticks": 55680,
          "time": 51.176416,
          "velocity": 0.6299212598425197
        },
        {
          "duration": 0.219668883333334,
          "durationTicks": 239,
          "midi": 42,
          "name": "F#2",
          "ticks": 55920,
          "time": 51.397004,
          "velocity": 0.6299212598425197
        },
        {
          "duration": 0.219668883333334,
          "durationTicks": 239,
          "midi": 38,
          "name": "D2",
          "ticks": 56160,
          "time": 51.617592,
          "velocity": 0.6299212598425197
        },
        {
          "duration": 0.219668883333334,
          "durationTicks": 239,
          "midi": 42,
          "name": "F#2",
          "ticks": 56400,
          "time": 51.83818,
          "velocity": 0.6299212598425197
        },
        {
          "duration": 0.44025688333333335,
          "durationTicks": 479,
          "midi": 36,
          "name": "C2",
          "ticks": 56640,
          "time": 52.058768,
          "velocity": 0.6299212598425197
        },
        {
          "duration": 0.219668883333334,
          "durationTicks": 239,
          "midi": 42,
          "name": "F#2",
          "ticks": 56880,
          "time": 52.279356,
          "velocity": 0.6299212598425197
        },
        {
          "duration": 0.219668883333334,
          "durationTicks": 239,
          "midi": 38,
          "name": "D2",
          "ticks": 57120,
          "time": 52.499944,
          "velocity": 0.6299212598425197
        },
        {
          "duration": 0.219668883333334,
          "durationTicks": 239,
          "midi": 42,
          "name": "F#2",
          "ticks": 57360,
          "time": 52.720532,
          "velocity": 0.6299212598425197
        },
        {
          "duration": 0.44025688333334045,
          "durationTicks": 479,
          "midi": 36,
          "name": "C2",
          "ticks": 57600,
          "time": 52.94112,
          "velocity": 0.6299212598425197
        },
        {
          "duration": 0.219668883333334,
          "durationTicks": 239,
          "midi": 42,
          "name": "F#2",
          "ticks": 57840,
          "time": 53.161708000000004,
          "velocity": 0.6299212598425197
        },
        {
          "duration": 0.219668883333334,
          "durationTicks": 239,
          "midi": 38,
          "name": "D2",
          "ticks": 58080,
          "time": 53.382296000000004,
          "velocity": 0.6299212598425197
        },
        {
          "duration": 0.219668883333334,
          "durationTicks": 239,
          "midi": 42,
          "name": "F#2",
          "ticks": 58320,
          "time": 53.602884,
          "velocity": 0.6299212598425197
        },
        {
          "duration": 0.219668883333334,
          "durationTicks": 239,
          "midi": 49,
          "name": "C#3",
          "ticks": 58560,
          "time": 53.823472,
          "velocity": 0.6299212598425197
        },
        {
          "duration": 0.44025688333333335,
          "durationTicks": 479,
          "midi": 36,
          "name": "C2",
          "ticks": 58560,
          "time": 53.823472,
          "velocity": 0.6299212598425197
        },
        {
          "duration": 0.219668883333334,
          "durationTicks": 239,
          "midi": 42,
          "name": "F#2",
          "ticks": 58800,
          "time": 54.04406,
          "velocity": 0.6299212598425197
        },
        {
          "duration": 0.219668883333334,
          "durationTicks": 239,
          "midi": 38,
          "name": "D2",
          "ticks": 59040,
          "time": 54.264648,
          "velocity": 0.6299212598425197
        },
        {
          "duration": 0.44025688333333335,
          "durationTicks": 479,
          "midi": 49,
          "name": "C#3",
          "ticks": 59280,
          "time": 54.485236,
          "velocity": 0.6299212598425197
        },
        {
          "duration": 0.44025688333333335,
          "durationTicks": 479,
          "midi": 36,
          "name": "C2",
          "ticks": 59520,
          "time": 54.705824,
          "velocity": 0.6299212598425197
        },
        {
          "duration": 0.219668883333334,
          "durationTicks": 239,
          "midi": 42,
          "name": "F#2",
          "ticks": 59760,
          "time": 54.926412,
          "velocity": 0.6299212598425197
        },
        {
          "duration": 0.219668883333334,
          "durationTicks": 239,
          "midi": 38,
          "name": "D2",
          "ticks": 60000,
          "time": 55.147,
          "velocity": 0.6299212598425197
        },
        {
          "duration": 0.219668883333334,
          "durationTicks": 239,
          "midi": 42,
          "name": "F#2",
          "ticks": 60240,
          "time": 55.367588000000005,
          "velocity": 0.6299212598425197
        },
        {
          "duration": 0.44025688333333335,
          "durationTicks": 479,
          "midi": 36,
          "name": "C2",
          "ticks": 60480,
          "time": 55.588176000000004,
          "velocity": 0.6299212598425197
        },
        {
          "duration": 0.219668883333334,
          "durationTicks": 239,
          "midi": 42,
          "name": "F#2",
          "ticks": 60720,
          "time": 55.808764000000004,
          "velocity": 0.6299212598425197
        },
        {
          "duration": 0.219668883333334,
          "durationTicks": 239,
          "midi": 38,
          "name": "D2",
          "ticks": 60960,
          "time": 56.029352,
          "velocity": 0.6299212598425197
        },
        {
          "duration": 0.219668883333334,
          "durationTicks": 239,
          "midi": 42,
          "name": "F#2",
          "ticks": 61200,
          "time": 56.24994,
          "velocity": 0.6299212598425197
        },
        {
          "duration": 0.44025688333333335,
          "durationTicks": 479,
          "midi": 36,
          "name": "C2",
          "ticks": 61440,
          "time": 56.470528,
          "velocity": 0.6299212598425197
        },
        {
          "duration": 0.219668883333334,
          "durationTicks": 239,
          "midi": 42,
          "name": "F#2",
          "ticks": 61680,
          "time": 56.691116,
          "velocity": 0.6299212598425197
        },
        {
          "duration": 0.219668883333334,
          "durationTicks": 239,
          "midi": 38,
          "name": "D2",
          "ticks": 61920,
          "time": 56.911704,
          "velocity": 0.6299212598425197
        },
        {
          "duration": 0.219668883333334,
          "durationTicks": 239,
          "midi": 42,
          "name": "F#2",
          "ticks": 62160,
          "time": 57.132292,
          "velocity": 0.6299212598425197
        },
        {
          "duration": 0.219668883333334,
          "durationTicks": 239,
          "midi": 49,
          "name": "C#3",
          "ticks": 62400,
          "time": 57.35288,
          "velocity": 0.6299212598425197
        },
        {
          "duration": 0.44025688333333335,
          "durationTicks": 479,
          "midi": 36,
          "name": "C2",
          "ticks": 62400,
          "time": 57.35288,
          "velocity": 0.6299212598425197
        },
        {
          "duration": 0.219668883333334,
          "durationTicks": 239,
          "midi": 42,
          "name": "F#2",
          "ticks": 62640,
          "time": 57.573468,
          "velocity": 0.6299212598425197
        },
        {
          "duration": 0.219668883333334,
          "durationTicks": 239,
          "midi": 38,
          "name": "D2",
          "ticks": 62880,
          "time": 57.794056000000005,
          "velocity": 0.6299212598425197
        },
        {
          "duration": 0.44025688333333335,
          "durationTicks": 479,
          "midi": 49,
          "name": "C#3",
          "ticks": 63120,
          "time": 58.014644000000004,
          "velocity": 0.6299212598425197
        },
        {
          "duration": 0.44025688333333335,
          "durationTicks": 479,
          "midi": 36,
          "name": "C2",
          "ticks": 63360,
          "time": 58.235232,
          "velocity": 0.6299212598425197
        },
        {
          "duration": 0.219668883333334,
          "durationTicks": 239,
          "midi": 42,
          "name": "F#2",
          "ticks": 63600,
          "time": 58.45582,
          "velocity": 0.6299212598425197
        },
        {
          "duration": 0.219668883333334,
          "durationTicks": 239,
          "midi": 38,
          "name": "D2",
          "ticks": 63840,
          "time": 58.676408,
          "velocity": 0.6299212598425197
        },
        {
          "duration": 0.219668883333334,
          "durationTicks": 239,
          "midi": 42,
          "name": "F#2",
          "ticks": 64080,
          "time": 58.896996,
          "velocity": 0.6299212598425197
        },
        {
          "duration": 0.219668883333334,
          "durationTicks": 239,
          "midi": 38,
          "name": "D2",
          "ticks": 64320,
          "time": 59.117584,
          "velocity": 0.6299212598425197
        },
        {
          "duration": 0.219668883333334,
          "durationTicks": 239,
          "midi": 36,
          "name": "C2",
          "ticks": 64560,
          "time": 59.338172,
          "velocity": 0.6299212598425197
        },
        {
          "duration": 0.219668883333334,
          "durationTicks": 239,
          "midi": 38,
          "name": "D2",
          "ticks": 64800,
          "time": 59.55876,
          "velocity": 0.6299212598425197
        },
        {
          "duration": 0.219668883333334,
          "durationTicks": 239,
          "midi": 42,
          "name": "F#2",
          "ticks": 64800,
          "time": 59.55876,
          "velocity": 0.6299212598425197
        },
        {
          "duration": 0.219668883333334,
          "durationTicks": 239,
          "midi": 36,
          "name": "C2",
          "ticks": 65040,
          "time": 59.779348,
          "velocity": 0.6299212598425197
        },
        {
          "duration": 0.219668883333334,
          "durationTicks": 239,
          "midi": 38,
          "name": "D2",
          "ticks": 65280,
          "time": 59.999936000000005,
          "velocity": 0.6299212598425197
        },
        {
          "duration": 0.219668883333334,
          "durationTicks": 239,
          "midi": 36,
          "name": "C2",
          "ticks": 65520,
          "time": 60.220524000000005,
          "velocity": 0.6299212598425197
        },
        {
          "duration": 0.219668883333334,
          "durationTicks": 239,
          "midi": 38,
          "name": "D2",
          "ticks": 65760,
          "time": 60.441112000000004,
          "velocity": 0.6299212598425197
        },
        {
          "duration": 0.219668883333334,
          "durationTicks": 239,
          "midi": 42,
          "name": "F#2",
          "ticks": 65760,
          "time": 60.441112000000004,
          "velocity": 0.6299212598425197
        },
        {
          "duration": 0.219668883333334,
          "durationTicks": 239,
          "midi": 36,
          "name": "C2",
          "ticks": 66000,
          "time": 60.6617,
          "velocity": 0.6299212598425197
        },
        {
          "duration": 0.881432883333332,
          "durationTicks": 959,
          "midi": 38,
          "name": "D2",
          "ticks": 66240,
          "time": 60.882288,
          "velocity": 0.6299212598425197
        },
        {
          "duration": 0.6608448833333327,
          "durationTicks": 719,
          "midi": 38,
          "name": "D2",
          "ticks": 67200,
          "time": 61.76464,
          "velocity": 0.6299212598425197
        },
        {
          "duration": 0.881432883333332,
          "durationTicks": 959,
          "midi": 38,
          "name": "D2",
          "ticks": 67920,
          "time": 62.426404000000005,
          "velocity": 0.6299212598425197
        },
        {
          "duration": 0.881432883333332,
          "durationTicks": 959,
          "midi": 38,
          "name": "D2",
          "ticks": 68880,
          "time": 63.308756,
          "velocity": 0.6299212598425197
        },
        {
          "duration": 0.881432883333332,
          "durationTicks": 959,
          "midi": 38,
          "name": "D2",
          "ticks": 69840,
          "time": 64.191108,
          "velocity": 0.6299212598425197
        },
        {
          "duration": 0.21966888333334111,
          "durationTicks": 239,
          "midi": 49,
          "name": "C#3",
          "ticks": 69840,
          "time": 64.191108,
          "velocity": 0.6299212598425197
        },
        {
          "duration": 1.1020208833333385,
          "durationTicks": 1199,
          "midi": 38,
          "name": "D2",
          "ticks": 70800,
          "time": 65.07346,
          "velocity": 0.6299212598425197
        },
        {
          "duration": 0.21966888333334111,
          "durationTicks": 239,
          "midi": 49,
          "name": "C#3",
          "ticks": 70800,
          "time": 65.07346,
          "velocity": 0.6299212598425197
        },
        {
          "duration": 0.21966888333334111,
          "durationTicks": 239,
          "midi": 49,
          "name": "C#3",
          "ticks": 72000,
          "time": 66.1764,
          "velocity": 0.6299212598425197
        },
        {
          "duration": 0.44025688333333335,
          "durationTicks": 479,
          "midi": 36,
          "name": "C2",
          "ticks": 72000,
          "time": 66.1764,
          "velocity": 0.6299212598425197
        },
        {
          "duration": 0.2196688833333269,
          "durationTicks": 239,
          "midi": 42,
          "name": "F#2",
          "ticks": 72240,
          "time": 66.39698800000001,
          "velocity": 0.6299212598425197
        },
        {
          "duration": 0.21966888333334111,
          "durationTicks": 239,
          "midi": 38,
          "name": "D2",
          "ticks": 72480,
          "time": 66.617576,
          "velocity": 0.6299212598425197
        },
        {
          "duration": 0.2196688833333269,
          "durationTicks": 239,
          "midi": 42,
          "name": "F#2",
          "ticks": 72720,
          "time": 66.838164,
          "velocity": 0.6299212598425197
        },
        {
          "duration": 0.44025688333333335,
          "durationTicks": 479,
          "midi": 36,
          "name": "C2",
          "ticks": 72960,
          "time": 67.058752,
          "velocity": 0.6299212598425197
        },
        {
          "duration": 0.2196688833333269,
          "durationTicks": 239,
          "midi": 42,
          "name": "F#2",
          "ticks": 73200,
          "time": 67.27934,
          "velocity": 0.6299212598425197
        },
        {
          "duration": 0.21966888333334111,
          "durationTicks": 239,
          "midi": 38,
          "name": "D2",
          "ticks": 73440,
          "time": 67.499928,
          "velocity": 0.6299212598425197
        },
        {
          "duration": 0.2196688833333269,
          "durationTicks": 239,
          "midi": 42,
          "name": "F#2",
          "ticks": 73680,
          "time": 67.720516,
          "velocity": 0.6299212598425197
        },
        {
          "duration": 0.44025688333333335,
          "durationTicks": 479,
          "midi": 36,
          "name": "C2",
          "ticks": 73920,
          "time": 67.941104,
          "velocity": 0.6299212598425197
        },
        {
          "duration": 0.2196688833333269,
          "durationTicks": 239,
          "midi": 42,
          "name": "F#2",
          "ticks": 74160,
          "time": 68.161692,
          "velocity": 0.6299212598425197
        },
        {
          "duration": 0.2196688833333269,
          "durationTicks": 239,
          "midi": 38,
          "name": "D2",
          "ticks": 74400,
          "time": 68.38228000000001,
          "velocity": 0.6299212598425197
        },
        {
          "duration": 0.21966888333334111,
          "durationTicks": 239,
          "midi": 42,
          "name": "F#2",
          "ticks": 74640,
          "time": 68.602868,
          "velocity": 0.6299212598425197
        },
        {
          "duration": 0.44025688333333335,
          "durationTicks": 479,
          "midi": 36,
          "name": "C2",
          "ticks": 74880,
          "time": 68.82345600000001,
          "velocity": 0.6299212598425197
        },
        {
          "duration": 0.21966888333334111,
          "durationTicks": 239,
          "midi": 42,
          "name": "F#2",
          "ticks": 75120,
          "time": 69.044044,
          "velocity": 0.6299212598425197
        },
        {
          "duration": 0.2196688833333269,
          "durationTicks": 239,
          "midi": 38,
          "name": "D2",
          "ticks": 75360,
          "time": 69.264632,
          "velocity": 0.6299212598425197
        },
        {
          "duration": 0.21966888333334111,
          "durationTicks": 239,
          "midi": 42,
          "name": "F#2",
          "ticks": 75600,
          "time": 69.48522,
          "velocity": 0.6299212598425197
        },
        {
          "duration": 0.44025688333333335,
          "durationTicks": 479,
          "midi": 36,
          "name": "C2",
          "ticks": 75840,
          "time": 69.705808,
          "velocity": 0.6299212598425197
        },
        {
          "duration": 0.21966888333334111,
          "durationTicks": 239,
          "midi": 42,
          "name": "F#2",
          "ticks": 76080,
          "time": 69.926396,
          "velocity": 0.6299212598425197
        },
        {
          "duration": 0.2196688833333269,
          "durationTicks": 239,
          "midi": 38,
          "name": "D2",
          "ticks": 76320,
          "time": 70.146984,
          "velocity": 0.6299212598425197
        },
        {
          "duration": 0.21966888333334111,
          "durationTicks": 239,
          "midi": 42,
          "name": "F#2",
          "ticks": 76560,
          "time": 70.367572,
          "velocity": 0.6299212598425197
        },
        {
          "duration": 0.44025688333333335,
          "durationTicks": 479,
          "midi": 36,
          "name": "C2",
          "ticks": 76800,
          "time": 70.58816,
          "velocity": 0.6299212598425197
        },
        {
          "duration": 0.2196688833333269,
          "durationTicks": 239,
          "midi": 42,
          "name": "F#2",
          "ticks": 77040,
          "time": 70.80874800000001,
          "velocity": 0.6299212598425197
        },
        {
          "duration": 0.21966888333334111,
          "durationTicks": 239,
          "midi": 38,
          "name": "D2",
          "ticks": 77280,
          "time": 71.029336,
          "velocity": 0.6299212598425197
        },
        {
          "duration": 0.2196688833333269,
          "durationTicks": 239,
          "midi": 42,
          "name": "F#2",
          "ticks": 77520,
          "time": 71.24992400000001,
          "velocity": 0.6299212598425197
        },
        {
          "duration": 0.44025688333333335,
          "durationTicks": 479,
          "midi": 36,
          "name": "C2",
          "ticks": 77760,
          "time": 71.470512,
          "velocity": 0.6299212598425197
        },
        {
          "duration": 0.2196688833333269,
          "durationTicks": 239,
          "midi": 42,
          "name": "F#2",
          "ticks": 78000,
          "time": 71.6911,
          "velocity": 0.6299212598425197
        },
        {
          "duration": 0.21966888333334111,
          "durationTicks": 239,
          "midi": 38,
          "name": "D2",
          "ticks": 78240,
          "time": 71.911688,
          "velocity": 0.6299212598425197
        },
        {
          "duration": 0.2196688833333269,
          "durationTicks": 239,
          "midi": 42,
          "name": "F#2",
          "ticks": 78480,
          "time": 72.132276,
          "velocity": 0.6299212598425197
        },
        {
          "duration": 0.44025688333333335,
          "durationTicks": 479,
          "midi": 36,
          "name": "C2",
          "ticks": 78720,
          "time": 72.352864,
          "velocity": 0.6299212598425197
        },
        {
          "duration": 0.2196688833333269,
          "durationTicks": 239,
          "midi": 42,
          "name": "F#2",
          "ticks": 78960,
          "time": 72.573452,
          "velocity": 0.6299212598425197
        },
        {
          "duration": 0.21966888333334111,
          "durationTicks": 239,
          "midi": 38,
          "name": "D2",
          "ticks": 79200,
          "time": 72.79404,
          "velocity": 0.6299212598425197
        },
        {
          "duration": 0.21966888333334111,
          "durationTicks": 239,
          "midi": 42,
          "name": "F#2",
          "ticks": 79440,
          "time": 73.014628,
          "velocity": 0.6299212598425197
        },
        {
          "duration": 0.10937488333333079,
          "durationTicks": 119,
          "midi": 38,
          "name": "D2",
          "ticks": 79680,
          "time": 73.23521600000001,
          "velocity": 0.6299212598425197
        },
        {
          "duration": 0.44025688333333335,
          "durationTicks": 479,
          "midi": 36,
          "name": "C2",
          "ticks": 79680,
          "time": 73.23521600000001,
          "velocity": 0.6299212598425197
        },
        {
          "duration": 0.10937488333333079,
          "durationTicks": 119,
          "midi": 38,
          "name": "D2",
          "ticks": 79800,
          "time": 73.34551,
          "velocity": 0.6299212598425197
        },
        {
          "duration": 0.10937488333333079,
          "durationTicks": 119,
          "midi": 38,
          "name": "D2",
          "ticks": 79920,
          "time": 73.455804,
          "velocity": 0.6299212598425197
        },
        {
          "duration": 0.109374883333345,
          "durationTicks": 119,
          "midi": 38,
          "name": "D2",
          "ticks": 80040,
          "time": 73.566098,
          "velocity": 0.6299212598425197
        },
        {
          "duration": 0.2196688833333269,
          "durationTicks": 239,
          "midi": 38,
          "name": "D2",
          "ticks": 80160,
          "time": 73.676392,
          "velocity": 0.6299212598425197
        },
        {
          "duration": 0.2196688833333269,
          "durationTicks": 239,
          "midi": 49,
          "name": "C#3",
          "ticks": 80160,
          "time": 73.676392,
          "velocity": 0.6299212598425197
        },
        {
          "duration": 0.21966888333334111,
          "durationTicks": 239,
          "midi": 42,
          "name": "F#2",
          "ticks": 80400,
          "time": 73.89698,
          "velocity": 0.6299212598425197
        },
        {
          "duration": 0.44025688333333335,
          "durationTicks": 479,
          "midi": 36,
          "name": "C2",
          "ticks": 80640,
          "time": 74.117568,
          "velocity": 0.6299212598425197
        },
        {
          "duration": 0.21966888333334111,
          "durationTicks": 239,
          "midi": 42,
          "name": "F#2",
          "ticks": 80880,
          "time": 74.338156,
          "velocity": 0.6299212598425197
        },
        {
          "duration": 0.2196688833333269,
          "durationTicks": 239,
          "midi": 38,
          "name": "D2",
          "ticks": 81120,
          "time": 74.558744,
          "velocity": 0.6299212598425197
        },
        {
          "duration": 0.21966888333334111,
          "durationTicks": 239,
          "midi": 42,
          "name": "F#2",
          "ticks": 81360,
          "time": 74.779332,
          "velocity": 0.6299212598425197
        },
        {
          "duration": 0.44025688333333335,
          "durationTicks": 479,
          "midi": 36,
          "name": "C2",
          "ticks": 81600,
          "time": 74.99992,
          "velocity": 0.6299212598425197
        },
        {
          "duration": 0.21966888333334111,
          "durationTicks": 239,
          "midi": 42,
          "name": "F#2",
          "ticks": 81840,
          "time": 75.220508,
          "velocity": 0.6299212598425197
        },
        {
          "duration": 0.21966888333334111,
          "durationTicks": 239,
          "midi": 38,
          "name": "D2",
          "ticks": 82080,
          "time": 75.441096,
          "velocity": 0.6299212598425197
        },
        {
          "duration": 0.2196688833333269,
          "durationTicks": 239,
          "midi": 42,
          "name": "F#2",
          "ticks": 82320,
          "time": 75.66168400000001,
          "velocity": 0.6299212598425197
        },
        {
          "duration": 0.44025688333333335,
          "durationTicks": 479,
          "midi": 36,
          "name": "C2",
          "ticks": 82560,
          "time": 75.882272,
          "velocity": 0.6299212598425197
        },
        {
          "duration": 0.2196688833333269,
          "durationTicks": 239,
          "midi": 42,
          "name": "F#2",
          "ticks": 82800,
          "time": 76.10286,
          "velocity": 0.6299212598425197
        },
        {
          "duration": 0.21966888333334111,
          "durationTicks": 239,
          "midi": 38,
          "name": "D2",
          "ticks": 83040,
          "time": 76.323448,
          "velocity": 0.6299212598425197
        },
        {
          "duration": 0.881432883333332,
          "durationTicks": 959,
          "midi": 38,
          "name": "D2",
          "ticks": 83280,
          "time": 76.544036,
          "velocity": 0.6299212598425197
        },
        {
          "duration": 0.881432883333332,
          "durationTicks": 959,
          "midi": 38,
          "name": "D2",
          "ticks": 84240,
          "time": 77.426388,
          "velocity": 0.6299212598425197
        },
        {
          "duration": 0.881432883333332,
          "durationTicks": 959,
          "midi": 38,
          "name": "D2",
          "ticks": 85200,
          "time": 78.30874,
          "velocity": 0.6299212598425197
        },
        {
          "duration": 0.21966888333334111,
          "durationTicks": 239,
          "midi": 38,
          "name": "D2",
          "ticks": 86160,
          "time": 79.191092,
          "velocity": 0.6299212598425197
        },
        {
          "duration": 0.21966888333334111,
          "durationTicks": 239,
          "midi": 35,
          "name": "B1",
          "ticks": 88320,
          "time": 81.176384,
          "velocity": 0.6299212598425197
        },
        {
          "duration": 0.2196688833333269,
          "durationTicks": 239,
          "midi": 49,
          "name": "C#3",
          "ticks": 88560,
          "time": 81.396972,
          "velocity": 0.6299212598425197
        },
        {
          "duration": 0.44025688333333335,
          "durationTicks": 479,
          "midi": 36,
          "name": "C2",
          "ticks": 89280,
          "time": 82.058736,
          "velocity": 0.6299212598425197
        },
        {
          "duration": 0.2196688833333269,
          "durationTicks": 239,
          "midi": 42,
          "name": "F#2",
          "ticks": 89520,
          "time": 82.279324,
          "velocity": 0.6299212598425197
        },
        {
          "duration": 0.2196688833333269,
          "durationTicks": 239,
          "midi": 38,
          "name": "D2",
          "ticks": 89760,
          "time": 82.49991200000001,
          "velocity": 0.6299212598425197
        },
        {
          "duration": 0.21966888333334111,
          "durationTicks": 239,
          "midi": 42,
          "name": "F#2",
          "ticks": 90000,
          "time": 82.7205,
          "velocity": 0.6299212598425197
        },
        {
          "duration": 0.44025688333333335,
          "durationTicks": 479,
          "midi": 36,
          "name": "C2",
          "ticks": 90240,
          "time": 82.94108800000001,
          "velocity": 0.6299212598425197
        },
        {
          "duration": 0.21966888333334111,
          "durationTicks": 239,
          "midi": 42,
          "name": "F#2",
          "ticks": 90480,
          "time": 83.161676,
          "velocity": 0.6299212598425197
        },
        {
          "duration": 0.2196688833333269,
          "durationTicks": 239,
          "midi": 38,
          "name": "D2",
          "ticks": 90720,
          "time": 83.382264,
          "velocity": 0.6299212598425197
        },
        {
          "duration": 0.21966888333334111,
          "durationTicks": 239,
          "midi": 42,
          "name": "F#2",
          "ticks": 90960,
          "time": 83.602852,
          "velocity": 0.6299212598425197
        },
        {
          "duration": 0.44025688333333335,
          "durationTicks": 479,
          "midi": 36,
          "name": "C2",
          "ticks": 91200,
          "time": 83.82344,
          "velocity": 0.6299212598425197
        },
        {
          "duration": 0.21966888333334111,
          "durationTicks": 239,
          "midi": 42,
          "name": "F#2",
          "ticks": 91440,
          "time": 84.044028,
          "velocity": 0.6299212598425197
        },
        {
          "duration": 0.2196688833333269,
          "durationTicks": 239,
          "midi": 38,
          "name": "D2",
          "ticks": 91680,
          "time": 84.264616,
          "velocity": 0.6299212598425197
        },
        {
          "duration": 0.21966888333334111,
          "durationTicks": 239,
          "midi": 42,
          "name": "F#2",
          "ticks": 91920,
          "time": 84.485204,
          "velocity": 0.6299212598425197
        },
        {
          "duration": 0.44025688333333335,
          "durationTicks": 479,
          "midi": 36,
          "name": "C2",
          "ticks": 92160,
          "time": 84.705792,
          "velocity": 0.6299212598425197
        },
        {
          "duration": 0.2196688833333269,
          "durationTicks": 239,
          "midi": 42,
          "name": "F#2",
          "ticks": 92400,
          "time": 84.92638000000001,
          "velocity": 0.6299212598425197
        },
        {
          "duration": 0.21966888333334111,
          "durationTicks": 239,
          "midi": 38,
          "name": "D2",
          "ticks": 92640,
          "time": 85.146968,
          "velocity": 0.6299212598425197
        },
        {
          "duration": 0.2196688833333269,
          "durationTicks": 239,
          "midi": 42,
          "name": "F#2",
          "ticks": 92880,
          "time": 85.36755600000001,
          "velocity": 0.6299212598425197
        },
        {
          "duration": 0.44025688333333335,
          "durationTicks": 479,
          "midi": 36,
          "name": "C2",
          "ticks": 93120,
          "time": 85.588144,
          "velocity": 0.6299212598425197
        },
        {
          "duration": 0.2196688833333269,
          "durationTicks": 239,
          "midi": 42,
          "name": "F#2",
          "ticks": 93360,
          "time": 85.808732,
          "velocity": 0.6299212598425197
        },
        {
          "duration": 0.21966888333334111,
          "durationTicks": 239,
          "midi": 38,
          "name": "D2",
          "ticks": 93600,
          "time": 86.02932,
          "velocity": 0.6299212598425197
        },
        {
          "duration": 0.2196688833333269,
          "durationTicks": 239,
          "midi": 42,
          "name": "F#2",
          "ticks": 93840,
          "time": 86.249908,
          "velocity": 0.6299212598425197
        },
        {
          "duration": 0.44025688333333335,
          "durationTicks": 479,
          "midi": 36,
          "name": "C2",
          "ticks": 94080,
          "time": 86.470496,
          "velocity": 0.6299212598425197
        },
        {
          "duration": 0.2196688833333269,
          "durationTicks": 239,
          "midi": 42,
          "name": "F#2",
          "ticks": 94320,
          "time": 86.691084,
          "velocity": 0.6299212598425197
        },
        {
          "duration": 0.21966888333334111,
          "durationTicks": 239,
          "midi": 38,
          "name": "D2",
          "ticks": 94560,
          "time": 86.911672,
          "velocity": 0.6299212598425197
        },
        {
          "duration": 0.21966888333334111,
          "durationTicks": 239,
          "midi": 42,
          "name": "F#2",
          "ticks": 94800,
          "time": 87.13226,
          "velocity": 0.6299212598425197
        },
        {
          "duration": 0.44025688333333335,
          "durationTicks": 479,
          "midi": 36,
          "name": "C2",
          "ticks": 95040,
          "time": 87.35284800000001,
          "velocity": 0.6299212598425197
        },
        {
          "duration": 0.21966888333334111,
          "durationTicks": 239,
          "midi": 42,
          "name": "F#2",
          "ticks": 95280,
          "time": 87.573436,
          "velocity": 0.6299212598425197
        },
        {
          "duration": 0.2196688833333269,
          "durationTicks": 239,
          "midi": 38,
          "name": "D2",
          "ticks": 95520,
          "time": 87.79402400000001,
          "velocity": 0.6299212598425197
        },
        {
          "duration": 0.21966888333334111,
          "durationTicks": 239,
          "midi": 42,
          "name": "F#2",
          "ticks": 95760,
          "time": 88.014612,
          "velocity": 0.6299212598425197
        },
        {
          "duration": 0.44025688333333335,
          "durationTicks": 479,
          "midi": 36,
          "name": "C2",
          "ticks": 96000,
          "time": 88.2352,
          "velocity": 0.6299212598425197
        },
        {
          "duration": 0.21966888333334111,
          "durationTicks": 239,
          "midi": 42,
          "name": "F#2",
          "ticks": 96240,
          "time": 88.455788,
          "velocity": 0.6299212598425197
        },
        {
          "duration": 0.2196688833333269,
          "durationTicks": 239,
          "midi": 38,
          "name": "D2",
          "ticks": 96480,
          "time": 88.676376,
          "velocity": 0.6299212598425197
        },
        {
          "duration": 0.21966888333334111,
          "durationTicks": 239,
          "midi": 42,
          "name": "F#2",
          "ticks": 96720,
          "time": 88.896964,
          "velocity": 0.6299212598425197
        },
        {
          "duration": 0.44025688333333335,
          "durationTicks": 479,
          "midi": 36,
          "name": "C2",
          "ticks": 96960,
          "time": 89.117552,
          "velocity": 0.6299212598425197
        },
        {
          "duration": 0.21966888333334111,
          "durationTicks": 239,
          "midi": 42,
          "name": "F#2",
          "ticks": 97200,
          "time": 89.33814,
          "velocity": 0.6299212598425197
        },
        {
          "duration": 0.21966888333334111,
          "durationTicks": 239,
          "midi": 38,
          "name": "D2",
          "ticks": 97440,
          "time": 89.558728,
          "velocity": 0.6299212598425197
        },
        {
          "duration": 0.2196688833333269,
          "durationTicks": 239,
          "midi": 42,
          "name": "F#2",
          "ticks": 97680,
          "time": 89.77931600000001,
          "velocity": 0.6299212598425197
        },
        {
          "duration": 0.44025688333333335,
          "durationTicks": 479,
          "midi": 36,
          "name": "C2",
          "ticks": 97920,
          "time": 89.999904,
          "velocity": 0.6299212598425197
        },
        {
          "duration": 0.2196688833333269,
          "durationTicks": 239,
          "midi": 42,
          "name": "F#2",
          "ticks": 98160,
          "time": 90.22049200000001,
          "velocity": 0.6299212598425197
        },
        {
          "duration": 0.21966888333334111,
          "durationTicks": 239,
          "midi": 38,
          "name": "D2",
          "ticks": 98400,
          "time": 90.44108,
          "velocity": 0.6299212598425197
        },
        {
          "duration": 0.2196688833333269,
          "durationTicks": 239,
          "midi": 42,
          "name": "F#2",
          "ticks": 98640,
          "time": 90.661668,
          "velocity": 0.6299212598425197
        },
        {
          "duration": 0.44025688333333335,
          "durationTicks": 479,
          "midi": 36,
          "name": "C2",
          "ticks": 98880,
          "time": 90.882256,
          "velocity": 0.6299212598425197
        },
        {
          "duration": 0.2196688833333269,
          "durationTicks": 239,
          "midi": 42,
          "name": "F#2",
          "ticks": 99120,
          "time": 91.102844,
          "velocity": 0.6299212598425197
        },
        {
          "duration": 0.21966888333334111,
          "durationTicks": 239,
          "midi": 38,
          "name": "D2",
          "ticks": 99360,
          "time": 91.323432,
          "velocity": 0.6299212598425197
        },
        {
          "duration": 0.2196688833333269,
          "durationTicks": 239,
          "midi": 42,
          "name": "F#2",
          "ticks": 99600,
          "time": 91.54402,
          "velocity": 0.6299212598425197
        },
        {
          "duration": 0.44025688333333335,
          "durationTicks": 479,
          "midi": 36,
          "name": "C2",
          "ticks": 99840,
          "time": 91.76460800000001,
          "velocity": 0.6299212598425197
        },
        {
          "duration": 0.21966888333334111,
          "durationTicks": 239,
          "midi": 42,
          "name": "F#2",
          "ticks": 100080,
          "time": 91.985196,
          "velocity": 0.6299212598425197
        },
        {
          "duration": 0.2196688833333269,
          "durationTicks": 239,
          "midi": 38,
          "name": "D2",
          "ticks": 100320,
          "time": 92.20578400000001,
          "velocity": 0.6299212598425197
        },
        {
          "duration": 0.21966888333334111,
          "durationTicks": 239,
          "midi": 42,
          "name": "F#2",
          "ticks": 100560,
          "time": 92.426372,
          "velocity": 0.6299212598425197
        },
        {
          "duration": 0.2196688833333269,
          "durationTicks": 239,
          "midi": 49,
          "name": "C#3",
          "ticks": 100800,
          "time": 92.64696,
          "velocity": 0.6299212598425197
        },
        {
          "duration": 0.44025688333333335,
          "durationTicks": 479,
          "midi": 36,
          "name": "C2",
          "ticks": 100800,
          "time": 92.64696,
          "velocity": 0.6299212598425197
        },
        {
          "duration": 0.21966888333334111,
          "durationTicks": 239,
          "midi": 42,
          "name": "F#2",
          "ticks": 101040,
          "time": 92.867548,
          "velocity": 0.6299212598425197
        },
        {
          "duration": 0.2196688833333269,
          "durationTicks": 239,
          "midi": 38,
          "name": "D2",
          "ticks": 101280,
          "time": 93.088136,
          "velocity": 0.6299212598425197
        },
        {
          "duration": 0.21966888333334111,
          "durationTicks": 239,
          "midi": 42,
          "name": "F#2",
          "ticks": 101520,
          "time": 93.308724,
          "velocity": 0.6299212598425197
        },
        {
          "duration": 0.2196688833333269,
          "durationTicks": 239,
          "midi": 49,
          "name": "C#3",
          "ticks": 101760,
          "time": 93.529312,
          "velocity": 0.6299212598425197
        },
        {
          "duration": 0.44025688333333335,
          "durationTicks": 479,
          "midi": 36,
          "name": "C2",
          "ticks": 101760,
          "time": 93.529312,
          "velocity": 0.6299212598425197
        },
        {
          "duration": 0.21966888333334111,
          "durationTicks": 239,
          "midi": 42,
          "name": "F#2",
          "ticks": 102000,
          "time": 93.7499,
          "velocity": 0.6299212598425197
        },
        {
          "duration": 0.2196688833333269,
          "durationTicks": 239,
          "midi": 38,
          "name": "D2",
          "ticks": 102240,
          "time": 93.970488,
          "velocity": 0.6299212598425197
        },
        {
          "duration": 0.2196688833333269,
          "durationTicks": 239,
          "midi": 49,
          "name": "C#3",
          "ticks": 102240,
          "time": 93.970488,
          "velocity": 0.6299212598425197
        },
        {
          "duration": 0.2196688833333269,
          "durationTicks": 239,
          "midi": 42,
          "name": "F#2",
          "ticks": 102480,
          "time": 94.19107600000001,
          "velocity": 0.6299212598425197
        },
        {
          "duration": 0.21966888333334111,
          "durationTicks": 239,
          "midi": 49,
          "name": "C#3",
          "ticks": 102720,
          "time": 94.411664,
          "velocity": 0.6299212598425197
        },
        {
          "duration": 0.44025688333333335,
          "durationTicks": 479,
          "midi": 36,
          "name": "C2",
          "ticks": 102720,
          "time": 94.411664,
          "velocity": 0.6299212598425197
        },
        {
          "duration": 0.2196688833333269,
          "durationTicks": 239,
          "midi": 53,
          "name": "F3",
          "ticks": 102960,
          "time": 94.63225200000001,
          "velocity": 0.6299212598425197
        },
        {
          "duration": 0.21966888333334111,
          "durationTicks": 239,
          "midi": 38,
          "name": "D2",
          "ticks": 103200,
          "time": 94.85284,
          "velocity": 0.6299212598425197
        },
        {
          "duration": 0.2196688833333269,
          "durationTicks": 239,
          "midi": 53,
          "name": "F3",
          "ticks": 103440,
          "time": 95.073428,
          "velocity": 0.6299212598425197
        },
        {
          "duration": 0.44025688333333335,
          "durationTicks": 479,
          "midi": 36,
          "name": "C2",
          "ticks": 103680,
          "time": 95.294016,
          "velocity": 0.6299212598425197
        },
        {
          "duration": 0.2196688833333269,
          "durationTicks": 239,
          "midi": 53,
          "name": "F3",
          "ticks": 103920,
          "time": 95.514604,
          "velocity": 0.6299212598425197
        },
        {
          "duration": 0.21966888333334111,
          "durationTicks": 239,
          "midi": 38,
          "name": "D2",
          "ticks": 104160,
          "time": 95.735192,
          "velocity": 0.6299212598425197
        },
        {
          "duration": 0.2196688833333269,
          "durationTicks": 239,
          "midi": 49,
          "name": "C#3",
          "ticks": 104400,
          "time": 95.95578,
          "velocity": 0.6299212598425197
        },
        {
          "duration": 0.44025688333333335,
          "durationTicks": 479,
          "midi": 36,
          "name": "C2",
          "ticks": 104640,
          "time": 96.176368,
          "velocity": 0.6299212598425197
        },
        {
          "duration": 0.2196688833333269,
          "durationTicks": 239,
          "midi": 53,
          "name": "F3",
          "ticks": 104880,
          "time": 96.396956,
          "velocity": 0.6299212598425197
        },
        {
          "duration": 0.2196688833333269,
          "durationTicks": 239,
          "midi": 38,
          "name": "D2",
          "ticks": 105120,
          "time": 96.61754400000001,
          "velocity": 0.6299212598425197
        },
        {
          "duration": 0.21966888333334111,
          "durationTicks": 239,
          "midi": 53,
          "name": "F3",
          "ticks": 105360,
          "time": 96.838132,
          "velocity": 0.6299212598425197
        },
        {
          "duration": 0.44025688333333335,
          "durationTicks": 479,
          "midi": 36,
          "name": "C2",
          "ticks": 105600,
          "time": 97.05872000000001,
          "velocity": 0.6299212598425197
        },
        {
          "duration": 0.21966888333334111,
          "durationTicks": 239,
          "midi": 53,
          "name": "F3",
          "ticks": 105840,
          "time": 97.279308,
          "velocity": 0.6299212598425197
        },
        {
          "duration": 0.2196688833333269,
          "durationTicks": 239,
          "midi": 38,
          "name": "D2",
          "ticks": 106080,
          "time": 97.499896,
          "velocity": 0.6299212598425197
        },
        {
          "duration": 0.21966888333334111,
          "durationTicks": 239,
          "midi": 53,
          "name": "F3",
          "ticks": 106320,
          "time": 97.720484,
          "velocity": 0.6299212598425197
        },
        {
          "duration": 0.44025688333333335,
          "durationTicks": 479,
          "midi": 36,
          "name": "C2",
          "ticks": 106560,
          "time": 97.941072,
          "velocity": 0.6299212598425197
        },
        {
          "duration": 0.21966888333334111,
          "durationTicks": 239,
          "midi": 53,
          "name": "F3",
          "ticks": 106800,
          "time": 98.16166,
          "velocity": 0.6299212598425197
        },
        {
          "duration": 0.2196688833333269,
          "durationTicks": 239,
          "midi": 38,
          "name": "D2",
          "ticks": 107040,
          "time": 98.382248,
          "velocity": 0.6299212598425197
        },
        {
          "duration": 0.21966888333334111,
          "durationTicks": 239,
          "midi": 53,
          "name": "F3",
          "ticks": 107280,
          "time": 98.602836,
          "velocity": 0.6299212598425197
        },
        {
          "duration": 0.44025688333333335,
          "durationTicks": 479,
          "midi": 36,
          "name": "C2",
          "ticks": 107520,
          "time": 98.823424,
          "velocity": 0.6299212598425197
        },
        {
          "duration": 0.2196688833333269,
          "durationTicks": 239,
          "midi": 53,
          "name": "F3",
          "ticks": 107760,
          "time": 99.04401200000001,
          "velocity": 0.6299212598425197
        },
        {
          "duration": 0.21966888333334111,
          "durationTicks": 239,
          "midi": 38,
          "name": "D2",
          "ticks": 108000,
          "time": 99.2646,
          "velocity": 0.6299212598425197
        },
        {
          "duration": 0.2196688833333269,
          "durationTicks": 239,
          "midi": 49,
          "name": "C#3",
          "ticks": 108240,
          "time": 99.48518800000001,
          "velocity": 0.6299212598425197
        },
        {
          "duration": 0.44025688333333335,
          "durationTicks": 479,
          "midi": 36,
          "name": "C2",
          "ticks": 108480,
          "time": 99.705776,
          "velocity": 0.6299212598425197
        },
        {
          "duration": 0.2196688833333269,
          "durationTicks": 239,
          "midi": 53,
          "name": "F3",
          "ticks": 108720,
          "time": 99.926364,
          "velocity": 0.6299212598425197
        },
        {
          "duration": 0.21966888333334111,
          "durationTicks": 239,
          "midi": 38,
          "name": "D2",
          "ticks": 108960,
          "time": 100.146952,
          "velocity": 0.6299212598425197
        },
        {
          "duration": 0.2196688833333269,
          "durationTicks": 239,
          "midi": 53,
          "name": "F3",
          "ticks": 109200,
          "time": 100.36754,
          "velocity": 0.6299212598425197
        },
        {
          "duration": 0.44025688333333335,
          "durationTicks": 479,
          "midi": 36,
          "name": "C2",
          "ticks": 109440,
          "time": 100.588128,
          "velocity": 0.6299212598425197
        },
        {
          "duration": 0.2196688833333269,
          "durationTicks": 239,
          "midi": 53,
          "name": "F3",
          "ticks": 109680,
          "time": 100.808716,
          "velocity": 0.6299212598425197
        },
        {
          "duration": 0.21966888333334111,
          "durationTicks": 239,
          "midi": 38,
          "name": "D2",
          "ticks": 109920,
          "time": 101.029304,
          "velocity": 0.6299212598425197
        },
        {
          "duration": 0.21966888333334111,
          "durationTicks": 239,
          "midi": 53,
          "name": "F3",
          "ticks": 110160,
          "time": 101.249892,
          "velocity": 0.6299212598425197
        },
        {
          "duration": 0.44025688333333335,
          "durationTicks": 479,
          "midi": 36,
          "name": "C2",
          "ticks": 110400,
          "time": 101.47048000000001,
          "velocity": 0.6299212598425197
        },
        {
          "duration": 0.21966888333334111,
          "durationTicks": 239,
          "midi": 53,
          "name": "F3",
          "ticks": 110640,
          "time": 101.691068,
          "velocity": 0.6299212598425197
        },
        {
          "duration": 0.2196688833333269,
          "durationTicks": 239,
          "midi": 38,
          "name": "D2",
          "ticks": 110880,
          "time": 101.91165600000001,
          "velocity": 0.6299212598425197
        },
        {
          "duration": 0.21966888333334111,
          "durationTicks": 239,
          "midi": 53,
          "name": "F3",
          "ticks": 111120,
          "time": 102.132244,
          "velocity": 0.6299212598425197
        },
        {
          "duration": 0.44025688333333335,
          "durationTicks": 479,
          "midi": 36,
          "name": "C2",
          "ticks": 111360,
          "time": 102.352832,
          "velocity": 0.6299212598425197
        },
        {
          "duration": 0.21966888333334111,
          "durationTicks": 239,
          "midi": 53,
          "name": "F3",
          "ticks": 111600,
          "time": 102.57342,
          "velocity": 0.6299212598425197
        },
        {
          "duration": 0.2196688833333269,
          "durationTicks": 239,
          "midi": 38,
          "name": "D2",
          "ticks": 111840,
          "time": 102.794008,
          "velocity": 0.6299212598425197
        },
        {
          "duration": 0.21966888333334111,
          "durationTicks": 239,
          "midi": 49,
          "name": "C#3",
          "ticks": 112080,
          "time": 103.014596,
          "velocity": 0.6299212598425197
        },
        {
          "duration": 0.44025688333333335,
          "durationTicks": 479,
          "midi": 36,
          "name": "C2",
          "ticks": 112320,
          "time": 103.235184,
          "velocity": 0.6299212598425197
        },
        {
          "duration": 0.21966888333334111,
          "durationTicks": 239,
          "midi": 53,
          "name": "F3",
          "ticks": 112560,
          "time": 103.455772,
          "velocity": 0.6299212598425197
        },
        {
          "duration": 0.21966888333334111,
          "durationTicks": 239,
          "midi": 38,
          "name": "D2",
          "ticks": 112800,
          "time": 103.67636,
          "velocity": 0.6299212598425197
        },
        {
          "duration": 0.2196688833333269,
          "durationTicks": 239,
          "midi": 53,
          "name": "F3",
          "ticks": 113040,
          "time": 103.89694800000001,
          "velocity": 0.6299212598425197
        },
        {
          "duration": 0.44025688333333335,
          "durationTicks": 479,
          "midi": 36,
          "name": "C2",
          "ticks": 113280,
          "time": 104.117536,
          "velocity": 0.6299212598425197
        },
        {
          "duration": 0.2196688833333269,
          "durationTicks": 239,
          "midi": 53,
          "name": "F3",
          "ticks": 113520,
          "time": 104.33812400000001,
          "velocity": 0.6299212598425197
        },
        {
          "duration": 0.21966888333334111,
          "durationTicks": 239,
          "midi": 38,
          "name": "D2",
          "ticks": 113760,
          "time": 104.558712,
          "velocity": 0.6299212598425197
        },
        {
          "duration": 0.2196688833333269,
          "durationTicks": 239,
          "midi": 53,
          "name": "F3",
          "ticks": 114000,
          "time": 104.7793,
          "velocity": 0.6299212598425197
        },
        {
          "duration": 0.21966888333334111,
          "durationTicks": 239,
          "midi": 38,
          "name": "D2",
          "ticks": 114240,
          "time": 104.999888,
          "velocity": 0.6299212598425197
        },
        {
          "duration": 0.2196688833333269,
          "durationTicks": 239,
          "midi": 38,
          "name": "D2",
          "ticks": 114480,
          "time": 105.220476,
          "velocity": 0.6299212598425197
        },
        {
          "duration": 0.21966888333334111,
          "durationTicks": 239,
          "midi": 38,
          "name": "D2",
          "ticks": 114720,
          "time": 105.441064,
          "velocity": 0.6299212598425197
        },
        {
          "duration": 0.2196688833333269,
          "durationTicks": 239,
          "midi": 38,
          "name": "D2",
          "ticks": 114960,
          "time": 105.661652,
          "velocity": 0.6299212598425197
        },
        {
          "duration": 0.21966888333334111,
          "durationTicks": 239,
          "midi": 38,
          "name": "D2",
          "ticks": 115440,
          "time": 106.102828,
          "velocity": 0.6299212598425197
        },
        {
          "duration": 0.21966888333334111,
          "durationTicks": 239,
          "midi": 38,
          "name": "D2",
          "ticks": 115920,
          "time": 106.544004,
          "velocity": 0.6299212598425197
        },
        {
          "duration": 0.2196688833333269,
          "durationTicks": 239,
          "midi": 35,
          "name": "B1",
          "ticks": 116160,
          "time": 106.76459200000001,
          "velocity": 0.6299212598425197
        },
        {
          "duration": 0.21966888333334111,
          "durationTicks": 239,
          "midi": 38,
          "name": "D2",
          "ticks": 116400,
          "time": 106.98518,
          "velocity": 0.6299212598425197
        },
        {
          "duration": 0.21966888333334111,
          "durationTicks": 239,
          "midi": 42,
          "name": "F#2",
          "ticks": 116400,
          "time": 106.98518,
          "velocity": 0.6299212598425197
        },
        {
          "duration": 0.2196688833333269,
          "durationTicks": 239,
          "midi": 35,
          "name": "B1",
          "ticks": 116640,
          "time": 107.205768,
          "velocity": 0.6299212598425197
        },
        {
          "duration": 0.21966888333334111,
          "durationTicks": 239,
          "midi": 38,
          "name": "D2",
          "ticks": 116880,
          "time": 107.426356,
          "velocity": 0.6299212598425197
        },
        {
          "duration": 0.21966888333334111,
          "durationTicks": 239,
          "midi": 42,
          "name": "F#2",
          "ticks": 116880,
          "time": 107.426356,
          "velocity": 0.6299212598425197
        },
        {
          "duration": 0.2196688833333269,
          "durationTicks": 239,
          "midi": 38,
          "name": "D2",
          "ticks": 117120,
          "time": 107.646944,
          "velocity": 0.6299212598425197
        },
        {
          "duration": 0.21966888333334111,
          "durationTicks": 239,
          "midi": 42,
          "name": "F#2",
          "ticks": 117360,
          "time": 107.867532,
          "velocity": 0.6299212598425197
        },
        {
          "duration": 0.21966888333334111,
          "durationTicks": 239,
          "midi": 35,
          "name": "B1",
          "ticks": 117360,
          "time": 107.867532,
          "velocity": 0.6299212598425197
        },
        {
          "duration": 0.2196688833333269,
          "durationTicks": 239,
          "midi": 38,
          "name": "D2",
          "ticks": 117600,
          "time": 108.08812,
          "velocity": 0.6299212598425197
        },
        {
          "duration": 0.44025688333333335,
          "durationTicks": 479,
          "midi": 38,
          "name": "D2",
          "ticks": 117840,
          "time": 108.30870800000001,
          "velocity": 0.6299212598425197
        },
        {
          "duration": 0.44025688333333335,
          "durationTicks": 479,
          "midi": 50,
          "name": "D3",
          "ticks": 117840,
          "time": 108.30870800000001,
          "velocity": 0.6299212598425197
        },
        {
          "duration": 0.44025688333333335,
          "durationTicks": 479,
          "midi": 35,
          "name": "B1",
          "ticks": 117840,
          "time": 108.30870800000001,
          "velocity": 0.6299212598425197
        },
        {
          "duration": 0.2196688833333269,
          "durationTicks": 239,
          "midi": 38,
          "name": "D2",
          "ticks": 118320,
          "time": 108.74988400000001,
          "velocity": 0.6299212598425197
        },
        {
          "duration": 0.2196688833333269,
          "durationTicks": 239,
          "midi": 50,
          "name": "D3",
          "ticks": 118320,
          "time": 108.74988400000001,
          "velocity": 0.6299212598425197
        },
        {
          "duration": 0.2196688833333269,
          "durationTicks": 239,
          "midi": 35,
          "name": "B1",
          "ticks": 118320,
          "time": 108.74988400000001,
          "velocity": 0.6299212598425197
        },
        {
          "duration": 0.21966888333334111,
          "durationTicks": 239,
          "midi": 38,
          "name": "D2",
          "ticks": 118560,
          "time": 108.970472,
          "velocity": 0.6299212598425197
        },
        {
          "duration": 0.21966888333334111,
          "durationTicks": 239,
          "midi": 50,
          "name": "D3",
          "ticks": 118560,
          "time": 108.970472,
          "velocity": 0.6299212598425197
        },
        {
          "duration": 0.21966888333334111,
          "durationTicks": 239,
          "midi": 35,
          "name": "B1",
          "ticks": 118560,
          "time": 108.970472,
          "velocity": 0.6299212598425197
        },
        {
          "duration": 0.2196688833333269,
          "durationTicks": 239,
          "midi": 38,
          "name": "D2",
          "ticks": 118800,
          "time": 109.19106000000001,
          "velocity": 0.6299212598425197
        },
        {
          "duration": 0.2196688833333269,
          "durationTicks": 239,
          "midi": 50,
          "name": "D3",
          "ticks": 118800,
          "time": 109.19106000000001,
          "velocity": 0.6299212598425197
        },
        {
          "duration": 0.2196688833333269,
          "durationTicks": 239,
          "midi": 35,
          "name": "B1",
          "ticks": 118800,
          "time": 109.19106000000001,
          "velocity": 0.6299212598425197
        },
        {
          "duration": 0.21966888333334111,
          "durationTicks": 239,
          "midi": 38,
          "name": "D2",
          "ticks": 119040,
          "time": 109.411648,
          "velocity": 0.6299212598425197
        },
        {
          "duration": 0.21966888333334111,
          "durationTicks": 239,
          "midi": 50,
          "name": "D3",
          "ticks": 119040,
          "time": 109.411648,
          "velocity": 0.6299212598425197
        },
        {
          "duration": 0.21966888333334111,
          "durationTicks": 239,
          "midi": 35,
          "name": "B1",
          "ticks": 119040,
          "time": 109.411648,
          "velocity": 0.6299212598425197
        },
        {
          "duration": 0.21966888333334111,
          "durationTicks": 239,
          "midi": 49,
          "name": "C#3",
          "ticks": 120000,
          "time": 110.294,
          "velocity": 0.6299212598425197
        },
        {
          "duration": 0.44025688333333335,
          "durationTicks": 479,
          "midi": 36,
          "name": "C2",
          "ticks": 120000,
          "time": 110.294,
          "velocity": 0.6299212598425197
        },
        {
          "duration": 0.2196688833333269,
          "durationTicks": 239,
          "midi": 42,
          "name": "F#2",
          "ticks": 120240,
          "time": 110.514588,
          "velocity": 0.6299212598425197
        },
        {
          "duration": 0.2196688833333269,
          "durationTicks": 239,
          "midi": 38,
          "name": "D2",
          "ticks": 120480,
          "time": 110.73517600000001,
          "velocity": 0.6299212598425197
        },
        {
          "duration": 0.21966888333334111,
          "durationTicks": 239,
          "midi": 42,
          "name": "F#2",
          "ticks": 120720,
          "time": 110.955764,
          "velocity": 0.6299212598425197
        },
        {
          "duration": 0.44025688333333335,
          "durationTicks": 479,
          "midi": 36,
          "name": "C2",
          "ticks": 120960,
          "time": 111.17635200000001,
          "velocity": 0.6299212598425197
        },
        {
          "duration": 0.21966888333334111,
          "durationTicks": 239,
          "midi": 42,
          "name": "F#2",
          "ticks": 121200,
          "time": 111.39694,
          "velocity": 0.6299212598425197
        },
        {
          "duration": 0.2196688833333269,
          "durationTicks": 239,
          "midi": 38,
          "name": "D2",
          "ticks": 121440,
          "time": 111.61752800000001,
          "velocity": 0.6299212598425197
        },
        {
          "duration": 0.21966888333334111,
          "durationTicks": 239,
          "midi": 42,
          "name": "F#2",
          "ticks": 121680,
          "time": 111.838116,
          "velocity": 0.6299212598425197
        },
        {
          "duration": 0.2196688833333269,
          "durationTicks": 239,
          "midi": 49,
          "name": "C#3",
          "ticks": 121920,
          "time": 112.058704,
          "velocity": 0.6299212598425197
        },
        {
          "duration": 0.44025688333333335,
          "durationTicks": 479,
          "midi": 36,
          "name": "C2",
          "ticks": 121920,
          "time": 112.058704,
          "velocity": 0.6299212598425197
        },
        {
          "duration": 0.21966888333334111,
          "durationTicks": 239,
          "midi": 42,
          "name": "F#2",
          "ticks": 122160,
          "time": 112.279292,
          "velocity": 0.6299212598425197
        },
        {
          "duration": 0.2196688833333269,
          "durationTicks": 239,
          "midi": 38,
          "name": "D2",
          "ticks": 122400,
          "time": 112.49988,
          "velocity": 0.6299212598425197
        },
        {
          "duration": 0.44025688333333335,
          "durationTicks": 479,
          "midi": 49,
          "name": "C#3",
          "ticks": 122640,
          "time": 112.720468,
          "velocity": 0.6299212598425197
        },
        {
          "duration": 0.44025688333331914,
          "durationTicks": 479,
          "midi": 36,
          "name": "C2",
          "ticks": 122880,
          "time": 112.941056,
          "velocity": 0.6299212598425197
        },
        {
          "duration": 0.2196688833333127,
          "durationTicks": 239,
          "midi": 42,
          "name": "F#2",
          "ticks": 123120,
          "time": 113.16164400000001,
          "velocity": 0.6299212598425197
        },
        {
          "duration": 0.2196688833333269,
          "durationTicks": 239,
          "midi": 38,
          "name": "D2",
          "ticks": 123360,
          "time": 113.382232,
          "velocity": 0.6299212598425197
        },
        {
          "duration": 0.2196688833333127,
          "durationTicks": 239,
          "midi": 42,
          "name": "F#2",
          "ticks": 123600,
          "time": 113.60282000000001,
          "velocity": 0.6299212598425197
        },
        {
          "duration": 0.44025688333331914,
          "durationTicks": 479,
          "midi": 36,
          "name": "C2",
          "ticks": 123840,
          "time": 113.823408,
          "velocity": 0.6299212598425197
        },
        {
          "duration": 0.2196688833333127,
          "durationTicks": 239,
          "midi": 42,
          "name": "F#2",
          "ticks": 124080,
          "time": 114.043996,
          "velocity": 0.6299212598425197
        },
        {
          "duration": 0.2196688833333269,
          "durationTicks": 239,
          "midi": 38,
          "name": "D2",
          "ticks": 124320,
          "time": 114.264584,
          "velocity": 0.6299212598425197
        },
        {
          "duration": 0.2196688833333127,
          "durationTicks": 239,
          "midi": 42,
          "name": "F#2",
          "ticks": 124560,
          "time": 114.485172,
          "velocity": 0.6299212598425197
        },
        {
          "duration": 0.44025688333333335,
          "durationTicks": 479,
          "midi": 36,
          "name": "C2",
          "ticks": 124800,
          "time": 114.70576,
          "velocity": 0.6299212598425197
        },
        {
          "duration": 0.2196688833333269,
          "durationTicks": 239,
          "midi": 42,
          "name": "F#2",
          "ticks": 125040,
          "time": 114.926348,
          "velocity": 0.6299212598425197
        },
        {
          "duration": 0.2196688833333269,
          "durationTicks": 239,
          "midi": 38,
          "name": "D2",
          "ticks": 125280,
          "time": 115.146936,
          "velocity": 0.6299212598425197
        },
        {
          "duration": 0.2196688833333269,
          "durationTicks": 239,
          "midi": 42,
          "name": "F#2",
          "ticks": 125520,
          "time": 115.367524,
          "velocity": 0.6299212598425197
        },
        {
          "duration": 0.2196688833333127,
          "durationTicks": 239,
          "midi": 49,
          "name": "C#3",
          "ticks": 125760,
          "time": 115.58811200000001,
          "velocity": 0.6299212598425197
        },
        {
          "duration": 0.44025688333331914,
          "durationTicks": 479,
          "midi": 36,
          "name": "C2",
          "ticks": 125760,
          "time": 115.58811200000001,
          "velocity": 0.6299212598425197
        },
        {
          "duration": 0.2196688833333269,
          "durationTicks": 239,
          "midi": 42,
          "name": "F#2",
          "ticks": 126000,
          "time": 115.8087,
          "velocity": 0.6299212598425197
        },
        {
          "duration": 0.2196688833333127,
          "durationTicks": 239,
          "midi": 38,
          "name": "D2",
          "ticks": 126240,
          "time": 116.02928800000001,
          "velocity": 0.6299212598425197
        },
        {
          "duration": 0.44025688333331914,
          "durationTicks": 479,
          "midi": 49,
          "name": "C#3",
          "ticks": 126480,
          "time": 116.249876,
          "velocity": 0.6299212598425197
        },
        {
          "duration": 0.44025688333331914,
          "durationTicks": 479,
          "midi": 36,
          "name": "C2",
          "ticks": 126720,
          "time": 116.470464,
          "velocity": 0.6299212598425197
        },
        {
          "duration": 0.2196688833333269,
          "durationTicks": 239,
          "midi": 42,
          "name": "F#2",
          "ticks": 126960,
          "time": 116.691052,
          "velocity": 0.6299212598425197
        },
        {
          "duration": 0.2196688833333127,
          "durationTicks": 239,
          "midi": 38,
          "name": "D2",
          "ticks": 127200,
          "time": 116.91164,
          "velocity": 0.6299212598425197
        },
        {
          "duration": 0.2196688833333269,
          "durationTicks": 239,
          "midi": 42,
          "name": "F#2",
          "ticks": 127440,
          "time": 117.132228,
          "velocity": 0.6299212598425197
        },
        {
          "duration": 0.44025688333331914,
          "durationTicks": 479,
          "midi": 36,
          "name": "C2",
          "ticks": 127680,
          "time": 117.352816,
          "velocity": 0.6299212598425197
        },
        {
          "duration": 0.2196688833333269,
          "durationTicks": 239,
          "midi": 42,
          "name": "F#2",
          "ticks": 127920,
          "time": 117.573404,
          "velocity": 0.6299212598425197
        },
        {
          "duration": 0.2196688833333269,
          "durationTicks": 239,
          "midi": 38,
          "name": "D2",
          "ticks": 128160,
          "time": 117.793992,
          "velocity": 0.6299212598425197
        },
        {
          "duration": 0.2196688833333127,
          "durationTicks": 239,
          "midi": 42,
          "name": "F#2",
          "ticks": 128400,
          "time": 118.01458000000001,
          "velocity": 0.6299212598425197
        },
        {
          "duration": 0.44025688333331914,
          "durationTicks": 479,
          "midi": 36,
          "name": "C2",
          "ticks": 128640,
          "time": 118.235168,
          "velocity": 0.6299212598425197
        },
        {
          "duration": 0.2196688833333127,
          "durationTicks": 239,
          "midi": 42,
          "name": "F#2",
          "ticks": 128880,
          "time": 118.45575600000001,
          "velocity": 0.6299212598425197
        },
        {
          "duration": 0.2196688833333269,
          "durationTicks": 239,
          "midi": 38,
          "name": "D2",
          "ticks": 129120,
          "time": 118.676344,
          "velocity": 0.6299212598425197
        },
        {
          "duration": 0.2196688833333127,
          "durationTicks": 239,
          "midi": 42,
          "name": "F#2",
          "ticks": 129360,
          "time": 118.896932,
          "velocity": 0.6299212598425197
        },
        {
          "duration": 0.2196688833333269,
          "durationTicks": 239,
          "midi": 49,
          "name": "C#3",
          "ticks": 129600,
          "time": 119.11752,
          "velocity": 0.6299212598425197
        },
        {
          "duration": 0.44025688333331914,
          "durationTicks": 479,
          "midi": 36,
          "name": "C2",
          "ticks": 129600,
          "time": 119.11752,
          "velocity": 0.6299212598425197
        },
        {
          "duration": 0.2196688833333127,
          "durationTicks": 239,
          "midi": 42,
          "name": "F#2",
          "ticks": 129840,
          "time": 119.338108,
          "velocity": 0.6299212598425197
        },
        {
          "duration": 0.2196688833333269,
          "durationTicks": 239,
          "midi": 38,
          "name": "D2",
          "ticks": 130080,
          "time": 119.558696,
          "velocity": 0.6299212598425197
        },
        {
          "duration": 0.44025688333331914,
          "durationTicks": 479,
          "midi": 49,
          "name": "C#3",
          "ticks": 130320,
          "time": 119.779284,
          "velocity": 0.6299212598425197
        },
        {
          "duration": 0.44025688333331914,
          "durationTicks": 479,
          "midi": 36,
          "name": "C2",
          "ticks": 130560,
          "time": 119.99987200000001,
          "velocity": 0.6299212598425197
        },
        {
          "duration": 0.2196688833333269,
          "durationTicks": 239,
          "midi": 42,
          "name": "F#2",
          "ticks": 130800,
          "time": 120.22046,
          "velocity": 0.6299212598425197
        },
        {
          "duration": 0.2196688833333127,
          "durationTicks": 239,
          "midi": 38,
          "name": "D2",
          "ticks": 131040,
          "time": 120.44104800000001,
          "velocity": 0.6299212598425197
        },
        {
          "duration": 0.2196688833333269,
          "durationTicks": 239,
          "midi": 42,
          "name": "F#2",
          "ticks": 131280,
          "time": 120.661636,
          "velocity": 0.6299212598425197
        },
        {
          "duration": 0.2196688833333127,
          "durationTicks": 239,
          "midi": 38,
          "name": "D2",
          "ticks": 131520,
          "time": 120.88222400000001,
          "velocity": 0.6299212598425197
        },
        {
          "duration": 0.2196688833333269,
          "durationTicks": 239,
          "midi": 36,
          "name": "C2",
          "ticks": 131760,
          "time": 121.102812,
          "velocity": 0.6299212598425197
        },
        {
          "duration": 0.2196688833333127,
          "durationTicks": 239,
          "midi": 38,
          "name": "D2",
          "ticks": 132000,
          "time": 121.3234,
          "velocity": 0.6299212598425197
        },
        {
          "duration": 0.2196688833333127,
          "durationTicks": 239,
          "midi": 42,
          "name": "F#2",
          "ticks": 132000,
          "time": 121.3234,
          "velocity": 0.6299212598425197
        },
        {
          "duration": 0.2196688833333269,
          "durationTicks": 239,
          "midi": 36,
          "name": "C2",
          "ticks": 132240,
          "time": 121.543988,
          "velocity": 0.6299212598425197
        },
        {
          "duration": 0.2196688833333269,
          "durationTicks": 239,
          "midi": 38,
          "name": "D2",
          "ticks": 132480,
          "time": 121.764576,
          "velocity": 0.6299212598425197
        },
        {
          "duration": 0.2196688833333269,
          "durationTicks": 239,
          "midi": 36,
          "name": "C2",
          "ticks": 132480,
          "time": 121.764576,
          "velocity": 0.6299212598425197
        },
        {
          "duration": 0.2196688833333269,
          "durationTicks": 239,
          "midi": 36,
          "name": "C2",
          "ticks": 132720,
          "time": 121.985164,
          "velocity": 0.6299212598425197
        },
        {
          "duration": 0.2196688833333269,
          "durationTicks": 239,
          "midi": 38,
          "name": "D2",
          "ticks": 132960,
          "time": 122.205752,
          "velocity": 0.6299212598425197
        },
        {
          "duration": 0.2196688833333269,
          "durationTicks": 239,
          "midi": 42,
          "name": "F#2",
          "ticks": 132960,
          "time": 122.205752,
          "velocity": 0.6299212598425197
        },
        {
          "duration": 0.2196688833333127,
          "durationTicks": 239,
          "midi": 36,
          "name": "C2",
          "ticks": 133200,
          "time": 122.42634000000001,
          "velocity": 0.6299212598425197
        },
        {
          "duration": 0.44025688333331914,
          "durationTicks": 479,
          "midi": 38,
          "name": "D2",
          "ticks": 133440,
          "time": 122.646928,
          "velocity": 0.6299212598425197
        },
        {
          "duration": 0.44025688333331914,
          "durationTicks": 479,
          "midi": 38,
          "name": "D2",
          "ticks": 133920,
          "time": 123.088104,
          "velocity": 0.6299212598425197
        },
        {
          "duration": 0.2196688833333269,
          "durationTicks": 239,
          "midi": 52,
          "name": "E3",
          "ticks": 135360,
          "time": 124.411632,
          "velocity": 0.7559055118110236
        },
        {
          "duration": 0.44025688333333335,
          "durationTicks": 479,
          "midi": 35,
          "name": "B1",
          "ticks": 135360,
          "time": 124.411632,
          "velocity": 0.7559055118110236
        },
        {
          "duration": 0.2196688833333127,
          "durationTicks": 239,
          "midi": 38,
          "name": "D2",
          "ticks": 135840,
          "time": 124.85280800000001,
          "velocity": 0.7559055118110236
        },
        {
          "duration": 0.2196688833333127,
          "durationTicks": 239,
          "midi": 52,
          "name": "E3",
          "ticks": 135840,
          "time": 124.85280800000001,
          "velocity": 0.7559055118110236
        },
        {
          "duration": 0.2196688833333127,
          "durationTicks": 239,
          "midi": 52,
          "name": "E3",
          "ticks": 136320,
          "time": 125.29398400000001,
          "velocity": 0.7559055118110236
        },
        {
          "duration": 0.44025688333331914,
          "durationTicks": 479,
          "midi": 35,
          "name": "B1",
          "ticks": 136320,
          "time": 125.29398400000001,
          "velocity": 0.7559055118110236
        },
        {
          "duration": 0.2196688833333269,
          "durationTicks": 239,
          "midi": 38,
          "name": "D2",
          "ticks": 136560,
          "time": 125.514572,
          "velocity": 0.7559055118110236
        },
        {
          "duration": 0.2196688833333127,
          "durationTicks": 239,
          "midi": 38,
          "name": "D2",
          "ticks": 136800,
          "time": 125.73516000000001,
          "velocity": 0.7559055118110236
        },
        {
          "duration": 0.2196688833333127,
          "durationTicks": 239,
          "midi": 52,
          "name": "E3",
          "ticks": 136800,
          "time": 125.73516000000001,
          "velocity": 0.7559055118110236
        },
        {
          "duration": 0.2196688833333127,
          "durationTicks": 239,
          "midi": 52,
          "name": "E3",
          "ticks": 137280,
          "time": 126.176336,
          "velocity": 0.7559055118110236
        },
        {
          "duration": 0.44025688333331914,
          "durationTicks": 479,
          "midi": 35,
          "name": "B1",
          "ticks": 137280,
          "time": 126.176336,
          "velocity": 0.7559055118110236
        },
        {
          "duration": 0.2196688833333269,
          "durationTicks": 239,
          "midi": 38,
          "name": "D2",
          "ticks": 137520,
          "time": 126.396924,
          "velocity": 0.7559055118110236
        },
        {
          "duration": 0.2196688833333269,
          "durationTicks": 239,
          "midi": 38,
          "name": "D2",
          "ticks": 137760,
          "time": 126.617512,
          "velocity": 0.7559055118110236
        },
        {
          "duration": 0.2196688833333269,
          "durationTicks": 239,
          "midi": 52,
          "name": "E3",
          "ticks": 137760,
          "time": 126.617512,
          "velocity": 0.7559055118110236
        },
        {
          "duration": 0.2196688833333269,
          "durationTicks": 239,
          "midi": 45,
          "name": "A2",
          "ticks": 138240,
          "time": 127.058688,
          "velocity": 0.7559055118110236
        },
        {
          "duration": 0.2196688833333269,
          "durationTicks": 239,
          "midi": 52,
          "name": "E3",
          "ticks": 138240,
          "time": 127.058688,
          "velocity": 0.7559055118110236
        },
        {
          "duration": 0.44025688333331914,
          "durationTicks": 479,
          "midi": 35,
          "name": "B1",
          "ticks": 138240,
          "time": 127.058688,
          "velocity": 0.7559055118110236
        },
        {
          "duration": 0.2196688833333127,
          "durationTicks": 239,
          "midi": 45,
          "name": "A2",
          "ticks": 138480,
          "time": 127.27927600000001,
          "velocity": 0.7559055118110236
        },
        {
          "duration": 0.10937488333331657,
          "durationTicks": 119,
          "midi": 45,
          "name": "A2",
          "ticks": 138720,
          "time": 127.499864,
          "velocity": 0.7559055118110236
        },
        {
          "duration": 0.10937488333331657,
          "durationTicks": 119,
          "midi": 52,
          "name": "E3",
          "ticks": 138720,
          "time": 127.499864,
          "velocity": 0.7559055118110236
        },
        {
          "duration": 0.10937488333333079,
          "durationTicks": 119,
          "midi": 45,
          "name": "A2",
          "ticks": 138840,
          "time": 127.610158,
          "velocity": 0.7559055118110236
        },
        {
          "duration": 0.2196688833333127,
          "durationTicks": 239,
          "midi": 45,
          "name": "A2",
          "ticks": 138960,
          "time": 127.72045200000001,
          "velocity": 0.7559055118110236
        },
        {
          "duration": 0.2196688833333127,
          "durationTicks": 239,
          "midi": 49,
          "name": "C#3",
          "ticks": 139200,
          "time": 127.94104,
          "velocity": 0.7559055118110236
        },
        {
          "duration": 0.2196688833333127,
          "durationTicks": 239,
          "midi": 52,
          "name": "E3",
          "ticks": 139200,
          "time": 127.94104,
          "velocity": 0.7559055118110236
        },
        {
          "duration": 0.44025688333333335,
          "durationTicks": 479,
          "midi": 35,
          "name": "B1",
          "ticks": 139200,
          "time": 127.94104,
          "velocity": 0.7559055118110236
        },
        {
          "duration": 0.2196688833333269,
          "durationTicks": 239,
          "midi": 38,
          "name": "D2",
          "ticks": 139440,
          "time": 128.161628,
          "velocity": 0.7559055118110236
        },
        {
          "duration": 0.2196688833333269,
          "durationTicks": 239,
          "midi": 38,
          "name": "D2",
          "ticks": 139680,
          "time": 128.382216,
          "velocity": 0.7559055118110236
        },
        {
          "duration": 0.2196688833333269,
          "durationTicks": 239,
          "midi": 52,
          "name": "E3",
          "ticks": 139680,
          "time": 128.382216,
          "velocity": 0.7559055118110236
        },
        {
          "duration": 0.2196688833333269,
          "durationTicks": 239,
          "midi": 52,
          "name": "E3",
          "ticks": 140160,
          "time": 128.823392,
          "velocity": 0.7559055118110236
        },
        {
          "duration": 0.44025688333331914,
          "durationTicks": 479,
          "midi": 35,
          "name": "B1",
          "ticks": 140160,
          "time": 128.823392,
          "velocity": 0.7559055118110236
        },
        {
          "duration": 0.2196688833333269,
          "durationTicks": 239,
          "midi": 38,
          "name": "D2",
          "ticks": 140400,
          "time": 129.04398,
          "velocity": 0.7559055118110236
        },
        {
          "duration": 0.2196688833333269,
          "durationTicks": 239,
          "midi": 38,
          "name": "D2",
          "ticks": 140640,
          "time": 129.264568,
          "velocity": 0.7559055118110236
        },
        {
          "duration": 0.2196688833333269,
          "durationTicks": 239,
          "midi": 52,
          "name": "E3",
          "ticks": 140640,
          "time": 129.264568,
          "velocity": 0.7559055118110236
        },
        {
          "duration": 0.2196688833333269,
          "durationTicks": 239,
          "midi": 52,
          "name": "E3",
          "ticks": 141120,
          "time": 129.705744,
          "velocity": 0.7559055118110236
        },
        {
          "duration": 0.44025688333331914,
          "durationTicks": 479,
          "midi": 35,
          "name": "B1",
          "ticks": 141120,
          "time": 129.705744,
          "velocity": 0.7559055118110236
        },
        {
          "duration": 0.2196688833333269,
          "durationTicks": 239,
          "midi": 38,
          "name": "D2",
          "ticks": 141360,
          "time": 129.926332,
          "velocity": 0.7559055118110236
        },
        {
          "duration": 0.2196688833333269,
          "durationTicks": 239,
          "midi": 38,
          "name": "D2",
          "ticks": 141600,
          "time": 130.14692,
          "velocity": 0.7559055118110236
        },
        {
          "duration": 0.2196688833333269,
          "durationTicks": 239,
          "midi": 52,
          "name": "E3",
          "ticks": 141600,
          "time": 130.14692,
          "velocity": 0.7559055118110236
        },
        {
          "duration": 0.2196688833333269,
          "durationTicks": 239,
          "midi": 45,
          "name": "A2",
          "ticks": 142080,
          "time": 130.588096,
          "velocity": 0.7559055118110236
        },
        {
          "duration": 0.2196688833333269,
          "durationTicks": 239,
          "midi": 52,
          "name": "E3",
          "ticks": 142080,
          "time": 130.588096,
          "velocity": 0.7559055118110236
        },
        {
          "duration": 0.44025688333331914,
          "durationTicks": 479,
          "midi": 35,
          "name": "B1",
          "ticks": 142080,
          "time": 130.588096,
          "velocity": 0.7559055118110236
        },
        {
          "duration": 0.2196688833333269,
          "durationTicks": 239,
          "midi": 45,
          "name": "A2",
          "ticks": 142320,
          "time": 130.808684,
          "velocity": 0.7559055118110236
        },
        {
          "duration": 0.109374883333345,
          "durationTicks": 119,
          "midi": 45,
          "name": "A2",
          "ticks": 142560,
          "time": 131.029272,
          "velocity": 0.7559055118110236
        },
        {
          "duration": 0.109374883333345,
          "durationTicks": 119,
          "midi": 52,
          "name": "E3",
          "ticks": 142560,
          "time": 131.029272,
          "velocity": 0.7559055118110236
        },
        {
          "duration": 0.10937488333331657,
          "durationTicks": 119,
          "midi": 45,
          "name": "A2",
          "ticks": 142680,
          "time": 131.139566,
          "velocity": 0.7559055118110236
        },
        {
          "duration": 0.2196688833333269,
          "durationTicks": 239,
          "midi": 45,
          "name": "A2",
          "ticks": 142800,
          "time": 131.24986,
          "velocity": 0.7559055118110236
        },
        {
          "duration": 0.2196688833333269,
          "durationTicks": 239,
          "midi": 49,
          "name": "C#3",
          "ticks": 143040,
          "time": 131.470448,
          "velocity": 0.7559055118110236
        },
        {
          "duration": 0.2196688833333269,
          "durationTicks": 239,
          "midi": 52,
          "name": "E3",
          "ticks": 143040,
          "time": 131.470448,
          "velocity": 0.7559055118110236
        },
        {
          "duration": 0.44025688333331914,
          "durationTicks": 479,
          "midi": 35,
          "name": "B1",
          "ticks": 143040,
          "time": 131.470448,
          "velocity": 0.7559055118110236
        },
        {
          "duration": 0.2196688833333269,
          "durationTicks": 239,
          "midi": 38,
          "name": "D2",
          "ticks": 143280,
          "time": 131.691036,
          "velocity": 0.7559055118110236
        },
        {
          "duration": 0.21966888333329848,
          "durationTicks": 239,
          "midi": 38,
          "name": "D2",
          "ticks": 143520,
          "time": 131.91162400000002,
          "velocity": 0.7559055118110236
        },
        {
          "duration": 0.21966888333329848,
          "durationTicks": 239,
          "midi": 52,
          "name": "E3",
          "ticks": 143520,
          "time": 131.91162400000002,
          "velocity": 0.7559055118110236
        },
        {
          "duration": 0.2196688833333269,
          "durationTicks": 239,
          "midi": 52,
          "name": "E3",
          "ticks": 144000,
          "time": 132.3528,
          "velocity": 0.7559055118110236
        },
        {
          "duration": 0.44025688333331914,
          "durationTicks": 479,
          "midi": 35,
          "name": "B1",
          "ticks": 144000,
          "time": 132.3528,
          "velocity": 0.7559055118110236
        },
        {
          "duration": 0.2196688833333269,
          "durationTicks": 239,
          "midi": 38,
          "name": "D2",
          "ticks": 144240,
          "time": 132.573388,
          "velocity": 0.7559055118110236
        },
        {
          "duration": 0.21966888333329848,
          "durationTicks": 239,
          "midi": 38,
          "name": "D2",
          "ticks": 144480,
          "time": 132.79397600000001,
          "velocity": 0.7559055118110236
        },
        {
          "duration": 0.21966888333329848,
          "durationTicks": 239,
          "midi": 52,
          "name": "E3",
          "ticks": 144480,
          "time": 132.79397600000001,
          "velocity": 0.7559055118110236
        },
        {
          "duration": 0.2196688833333269,
          "durationTicks": 239,
          "midi": 52,
          "name": "E3",
          "ticks": 144960,
          "time": 133.235152,
          "velocity": 0.7559055118110236
        },
        {
          "duration": 0.44025688333331914,
          "durationTicks": 479,
          "midi": 35,
          "name": "B1",
          "ticks": 144960,
          "time": 133.235152,
          "velocity": 0.7559055118110236
        },
        {
          "duration": 0.2196688833333269,
          "durationTicks": 239,
          "midi": 38,
          "name": "D2",
          "ticks": 145200,
          "time": 133.45574,
          "velocity": 0.7559055118110236
        },
        {
          "duration": 0.2196688833333269,
          "durationTicks": 239,
          "midi": 38,
          "name": "D2",
          "ticks": 145440,
          "time": 133.676328,
          "velocity": 0.7559055118110236
        },
        {
          "duration": 0.2196688833333269,
          "durationTicks": 239,
          "midi": 52,
          "name": "E3",
          "ticks": 145440,
          "time": 133.676328,
          "velocity": 0.7559055118110236
        },
        {
          "duration": 0.2196688833333269,
          "durationTicks": 239,
          "midi": 45,
          "name": "A2",
          "ticks": 145920,
          "time": 134.117504,
          "velocity": 0.7559055118110236
        },
        {
          "duration": 0.2196688833333269,
          "durationTicks": 239,
          "midi": 52,
          "name": "E3",
          "ticks": 145920,
          "time": 134.117504,
          "velocity": 0.7559055118110236
        },
        {
          "duration": 0.44025688333331914,
          "durationTicks": 479,
          "midi": 35,
          "name": "B1",
          "ticks": 145920,
          "time": 134.117504,
          "velocity": 0.7559055118110236
        },
        {
          "duration": 0.21966888333329848,
          "durationTicks": 239,
          "midi": 45,
          "name": "A2",
          "ticks": 146160,
          "time": 134.33809200000002,
          "velocity": 0.7559055118110236
        },
        {
          "duration": 0.10937488333331657,
          "durationTicks": 119,
          "midi": 45,
          "name": "A2",
          "ticks": 146400,
          "time": 134.55868,
          "velocity": 0.7559055118110236
        },
        {
          "duration": 0.10937488333331657,
          "durationTicks": 119,
          "midi": 52,
          "name": "E3",
          "ticks": 146400,
          "time": 134.55868,
          "velocity": 0.7559055118110236
        },
        {
          "duration": 0.109374883333345,
          "durationTicks": 119,
          "midi": 45,
          "name": "A2",
          "ticks": 146520,
          "time": 134.668974,
          "velocity": 0.7559055118110236
        },
        {
          "duration": 0.2196688833333269,
          "durationTicks": 239,
          "midi": 45,
          "name": "A2",
          "ticks": 146640,
          "time": 134.779268,
          "velocity": 0.7559055118110236
        },
        {
          "duration": 0.2196688833333269,
          "durationTicks": 239,
          "midi": 49,
          "name": "C#3",
          "ticks": 146880,
          "time": 134.999856,
          "velocity": 0.7559055118110236
        },
        {
          "duration": 0.2196688833333269,
          "durationTicks": 239,
          "midi": 52,
          "name": "E3",
          "ticks": 146880,
          "time": 134.999856,
          "velocity": 0.7559055118110236
        },
        {
          "duration": 0.44025688333331914,
          "durationTicks": 479,
          "midi": 35,
          "name": "B1",
          "ticks": 146880,
          "time": 134.999856,
          "velocity": 0.7559055118110236
        },
        {
          "duration": 0.21966888333329848,
          "durationTicks": 239,
          "midi": 38,
          "name": "D2",
          "ticks": 147120,
          "time": 135.22044400000001,
          "velocity": 0.7559055118110236
        },
        {
          "duration": 0.2196688833333269,
          "durationTicks": 239,
          "midi": 38,
          "name": "D2",
          "ticks": 147360,
          "time": 135.441032,
          "velocity": 0.7559055118110236
        },
        {
          "duration": 0.2196688833333269,
          "durationTicks": 239,
          "midi": 52,
          "name": "E3",
          "ticks": 147360,
          "time": 135.441032,
          "velocity": 0.7559055118110236
        },
        {
          "duration": 0.2196688833333269,
          "durationTicks": 239,
          "midi": 52,
          "name": "E3",
          "ticks": 147840,
          "time": 135.882208,
          "velocity": 0.7559055118110236
        },
        {
          "duration": 0.44025688333334756,
          "durationTicks": 479,
          "midi": 35,
          "name": "B1",
          "ticks": 147840,
          "time": 135.882208,
          "velocity": 0.7559055118110236
        },
        {
          "duration": 0.2196688833333269,
          "durationTicks": 239,
          "midi": 38,
          "name": "D2",
          "ticks": 148080,
          "time": 136.102796,
          "velocity": 0.7559055118110236
        },
        {
          "duration": 0.2196688833333269,
          "durationTicks": 239,
          "midi": 38,
          "name": "D2",
          "ticks": 148320,
          "time": 136.323384,
          "velocity": 0.7559055118110236
        },
        {
          "duration": 0.2196688833333269,
          "durationTicks": 239,
          "midi": 52,
          "name": "E3",
          "ticks": 148320,
          "time": 136.323384,
          "velocity": 0.7559055118110236
        },
        {
          "duration": 0.21966888333329848,
          "durationTicks": 239,
          "midi": 52,
          "name": "E3",
          "ticks": 148800,
          "time": 136.76456000000002,
          "velocity": 0.7559055118110236
        },
        {
          "duration": 0.44025688333331914,
          "durationTicks": 479,
          "midi": 35,
          "name": "B1",
          "ticks": 148800,
          "time": 136.76456000000002,
          "velocity": 0.7559055118110236
        },
        {
          "duration": 0.2196688833333269,
          "durationTicks": 239,
          "midi": 38,
          "name": "D2",
          "ticks": 149040,
          "time": 136.985148,
          "velocity": 0.7559055118110236
        },
        {
          "duration": 0.2196688833333269,
          "durationTicks": 239,
          "midi": 38,
          "name": "D2",
          "ticks": 149280,
          "time": 137.205736,
          "velocity": 0.7559055118110236
        },
        {
          "duration": 0.2196688833333269,
          "durationTicks": 239,
          "midi": 52,
          "name": "E3",
          "ticks": 149280,
          "time": 137.205736,
          "velocity": 0.7559055118110236
        },
        {
          "duration": 0.21966888333329848,
          "durationTicks": 239,
          "midi": 45,
          "name": "A2",
          "ticks": 149760,
          "time": 137.64691200000001,
          "velocity": 0.7559055118110236
        },
        {
          "duration": 0.21966888333329848,
          "durationTicks": 239,
          "midi": 52,
          "name": "E3",
          "ticks": 149760,
          "time": 137.64691200000001,
          "velocity": 0.7559055118110236
        },
        {
          "duration": 0.44025688333331914,
          "durationTicks": 479,
          "midi": 35,
          "name": "B1",
          "ticks": 149760,
          "time": 137.64691200000001,
          "velocity": 0.7559055118110236
        },
        {
          "duration": 0.2196688833333269,
          "durationTicks": 239,
          "midi": 45,
          "name": "A2",
          "ticks": 150000,
          "time": 137.8675,
          "velocity": 0.7559055118110236
        },
        {
          "duration": 0.10937488333331657,
          "durationTicks": 119,
          "midi": 45,
          "name": "A2",
          "ticks": 150240,
          "time": 138.088088,
          "velocity": 0.7559055118110236
        },
        {
          "duration": 0.10937488333331657,
          "durationTicks": 119,
          "midi": 52,
          "name": "E3",
          "ticks": 150240,
          "time": 138.088088,
          "velocity": 0.7559055118110236
        },
        {
          "duration": 0.10937488333331657,
          "durationTicks": 119,
          "midi": 45,
          "name": "A2",
          "ticks": 150360,
          "time": 138.198382,
          "velocity": 0.7559055118110236
        },
        {
          "duration": 0.2196688833333269,
          "durationTicks": 239,
          "midi": 45,
          "name": "A2",
          "ticks": 150480,
          "time": 138.308676,
          "velocity": 0.7559055118110236
        },
        {
          "duration": 0.2196688833333269,
          "durationTicks": 239,
          "midi": 49,
          "name": "C#3",
          "ticks": 150720,
          "time": 138.529264,
          "velocity": 0.7559055118110236
        },
        {
          "duration": 0.44025688333331914,
          "durationTicks": 479,
          "midi": 35,
          "name": "B1",
          "ticks": 150720,
          "time": 138.529264,
          "velocity": 0.7559055118110236
        },
        {
          "duration": 0.05422788333333983,
          "durationTicks": 59,
          "midi": 38,
          "name": "D2",
          "ticks": 151200,
          "time": 138.97044,
          "velocity": 0.7559055118110236
        },
        {
          "duration": 0.05422788333331141,
          "durationTicks": 59,
          "midi": 38,
          "name": "D2",
          "ticks": 151260,
          "time": 139.025587,
          "velocity": 0.7559055118110236
        },
        {
          "duration": 0.05422788333331141,
          "durationTicks": 59,
          "midi": 38,
          "name": "D2",
          "ticks": 151320,
          "time": 139.080734,
          "velocity": 0.7559055118110236
        },
        {
          "duration": 0.05422788333331141,
          "durationTicks": 59,
          "midi": 38,
          "name": "D2",
          "ticks": 151380,
          "time": 139.135881,
          "velocity": 0.7559055118110236
        },
        {
          "duration": 0.05422788333331141,
          "durationTicks": 59,
          "midi": 38,
          "name": "D2",
          "ticks": 151440,
          "time": 139.19102800000002,
          "velocity": 0.7559055118110236
        },
        {
          "duration": 0.05422788333333983,
          "durationTicks": 59,
          "midi": 38,
          "name": "D2",
          "ticks": 151500,
          "time": 139.246175,
          "velocity": 0.7559055118110236
        },
        {
          "duration": 0.05422788333333983,
          "durationTicks": 59,
          "midi": 38,
          "name": "D2",
          "ticks": 151560,
          "time": 139.301322,
          "velocity": 0.7559055118110236
        },
        {
          "duration": 0.05422788333331141,
          "durationTicks": 59,
          "midi": 38,
          "name": "D2",
          "ticks": 151620,
          "time": 139.356469,
          "velocity": 0.7559055118110236
        },
        {
          "duration": 0.2196688833333269,
          "durationTicks": 239,
          "midi": 38,
          "name": "D2",
          "ticks": 151680,
          "time": 139.411616,
          "velocity": 0.7559055118110236
        },
        {
          "duration": 0.2196688833333269,
          "durationTicks": 239,
          "midi": 38,
          "name": "D2",
          "ticks": 151920,
          "time": 139.632204,
          "velocity": 0.7559055118110236
        },
        {
          "duration": 0.109374883333345,
          "durationTicks": 119,
          "midi": 38,
          "name": "D2",
          "ticks": 152160,
          "time": 139.852792,
          "velocity": 0.7559055118110236
        },
        {
          "duration": 0.2196688833333269,
          "durationTicks": 239,
          "midi": 38,
          "name": "D2",
          "ticks": 152280,
          "time": 139.963086,
          "velocity": 0.7559055118110236
        },
        {
          "duration": 0.44025688333331914,
          "durationTicks": 479,
          "midi": 42,
          "name": "F#2",
          "ticks": 155040,
          "time": 142.49984800000001,
          "velocity": 0.5039370078740157
        },
        {
          "duration": 0.44025688333331914,
          "durationTicks": 479,
          "midi": 42,
          "name": "F#2",
          "ticks": 156000,
          "time": 143.3822,
          "velocity": 0.5039370078740157
        },
        {
          "duration": 0.44025688333331914,
          "durationTicks": 479,
          "midi": 42,
          "name": "F#2",
          "ticks": 156960,
          "time": 144.264552,
          "velocity": 0.5039370078740157
        },
        {
          "duration": 0.44025688333331914,
          "durationTicks": 479,
          "midi": 42,
          "name": "F#2",
          "ticks": 157920,
          "time": 145.146904,
          "velocity": 0.5039370078740157
        },
        {
          "duration": 0.44025688333331914,
          "durationTicks": 479,
          "midi": 42,
          "name": "F#2",
          "ticks": 158880,
          "time": 146.029256,
          "velocity": 0.5039370078740157
        },
        {
          "duration": 0.44025688333331914,
          "durationTicks": 479,
          "midi": 42,
          "name": "F#2",
          "ticks": 159840,
          "time": 146.911608,
          "velocity": 0.5039370078740157
        },
        {
          "duration": 0.44025688333331914,
          "durationTicks": 479,
          "midi": 42,
          "name": "F#2",
          "ticks": 160800,
          "time": 147.79396,
          "velocity": 0.5039370078740157
        },
        {
          "duration": 0.44025688333331914,
          "durationTicks": 479,
          "midi": 42,
          "name": "F#2",
          "ticks": 161760,
          "time": 148.676312,
          "velocity": 0.5039370078740157
        },
        {
          "duration": 0.44025688333331914,
          "durationTicks": 479,
          "midi": 42,
          "name": "F#2",
          "ticks": 162720,
          "time": 149.558664,
          "velocity": 0.5039370078740157
        },
        {
          "duration": 0.44025688333334756,
          "durationTicks": 479,
          "midi": 42,
          "name": "F#2",
          "ticks": 163680,
          "time": 150.441016,
          "velocity": 0.5039370078740157
        },
        {
          "duration": 0.44025688333331914,
          "durationTicks": 479,
          "midi": 42,
          "name": "F#2",
          "ticks": 164640,
          "time": 151.32336800000002,
          "velocity": 0.5039370078740157
        },
        {
          "duration": 0.44025688333331914,
          "durationTicks": 479,
          "midi": 42,
          "name": "F#2",
          "ticks": 165600,
          "time": 152.20572,
          "velocity": 0.5039370078740157
        },
        {
          "duration": 0.44025688333331914,
          "durationTicks": 479,
          "midi": 49,
          "name": "C#3",
          "ticks": 166080,
          "time": 152.646896,
          "velocity": 0.7559055118110236
        },
        {
          "duration": 0.44025688333331914,
          "durationTicks": 479,
          "midi": 42,
          "name": "F#2",
          "ticks": 166560,
          "time": 153.088072,
          "velocity": 0.7559055118110236
        },
        {
          "duration": 0.44025688333331914,
          "durationTicks": 479,
          "midi": 42,
          "name": "F#2",
          "ticks": 167040,
          "time": 153.529248,
          "velocity": 0.7559055118110236
        },
        {
          "duration": 0.44025688333331914,
          "durationTicks": 479,
          "midi": 42,
          "name": "F#2",
          "ticks": 167520,
          "time": 153.970424,
          "velocity": 0.7559055118110236
        },
        {
          "duration": 0.44025688333331914,
          "durationTicks": 479,
          "midi": 42,
          "name": "F#2",
          "ticks": 168000,
          "time": 154.4116,
          "velocity": 0.7559055118110236
        },
        {
          "duration": 0.6608448833333398,
          "durationTicks": 719,
          "midi": 42,
          "name": "F#2",
          "ticks": 168960,
          "time": 155.293952,
          "velocity": 0.7559055118110236
        },
        {
          "duration": 0.2196688833333269,
          "durationTicks": 239,
          "midi": 42,
          "name": "F#2",
          "ticks": 169680,
          "time": 155.955716,
          "velocity": 0.7559055118110236
        },
        {
          "duration": 0.44025688333331914,
          "durationTicks": 479,
          "midi": 35,
          "name": "B1",
          "ticks": 169920,
          "time": 156.17630400000002,
          "velocity": 0.9921259842519685
        },
        {
          "duration": 0.2196688833333269,
          "durationTicks": 239,
          "midi": 50,
          "name": "D3",
          "ticks": 170160,
          "time": 156.396892,
          "velocity": 0.9921259842519685
        },
        {
          "duration": 0.2196688833333269,
          "durationTicks": 239,
          "midi": 48,
          "name": "C3",
          "ticks": 170400,
          "time": 156.61748,
          "velocity": 0.9921259842519685
        },
        {
          "duration": 0.44025688333331914,
          "durationTicks": 479,
          "midi": 35,
          "name": "B1",
          "ticks": 170400,
          "time": 156.61748,
          "velocity": 0.9921259842519685
        },
        {
          "duration": 0.109374883333345,
          "durationTicks": 119,
          "midi": 38,
          "name": "D2",
          "ticks": 170640,
          "time": 156.838068,
          "velocity": 0.9921259842519685
        },
        {
          "duration": 0.10937488333331657,
          "durationTicks": 119,
          "midi": 38,
          "name": "D2",
          "ticks": 170760,
          "time": 156.948362,
          "velocity": 0.9921259842519685
        },
        {
          "duration": 0.2196688833333269,
          "durationTicks": 239,
          "midi": 50,
          "name": "D3",
          "ticks": 170880,
          "time": 157.058656,
          "velocity": 0.9921259842519685
        },
        {
          "duration": 0.44025688333331914,
          "durationTicks": 479,
          "midi": 35,
          "name": "B1",
          "ticks": 170880,
          "time": 157.058656,
          "velocity": 0.9921259842519685
        },
        {
          "duration": 0.2196688833333269,
          "durationTicks": 239,
          "midi": 50,
          "name": "D3",
          "ticks": 171120,
          "time": 157.279244,
          "velocity": 0.9921259842519685
        },
        {
          "duration": 0.2196688833333269,
          "durationTicks": 239,
          "midi": 50,
          "name": "D3",
          "ticks": 171360,
          "time": 157.499832,
          "velocity": 0.9921259842519685
        },
        {
          "duration": 0.44025688333331914,
          "durationTicks": 479,
          "midi": 35,
          "name": "B1",
          "ticks": 171360,
          "time": 157.499832,
          "velocity": 0.9921259842519685
        },
        {
          "duration": 0.10937488333331657,
          "durationTicks": 119,
          "midi": 38,
          "name": "D2",
          "ticks": 171600,
          "time": 157.72042000000002,
          "velocity": 0.9921259842519685
        },
        {
          "duration": 0.10937488333331657,
          "durationTicks": 119,
          "midi": 38,
          "name": "D2",
          "ticks": 171720,
          "time": 157.830714,
          "velocity": 0.9921259842519685
        },
        {
          "duration": 0.44025688333331914,
          "durationTicks": 479,
          "midi": 49,
          "name": "C#3",
          "ticks": 171840,
          "time": 157.941008,
          "velocity": 0.7559055118110236
        },
        {
          "duration": 0.44025688333331914,
          "durationTicks": 479,
          "midi": 35,
          "name": "B1",
          "ticks": 171840,
          "time": 157.941008,
          "velocity": 0.7559055118110236
        },
        {
          "duration": 0.2196688833333269,
          "durationTicks": 239,
          "midi": 38,
          "name": "D2",
          "ticks": 172320,
          "time": 158.382184,
          "velocity": 0.7559055118110236
        },
        {
          "duration": 0.2196688833333269,
          "durationTicks": 239,
          "midi": 49,
          "name": "C#3",
          "ticks": 172320,
          "time": 158.382184,
          "velocity": 0.7559055118110236
        },
        {
          "duration": 0.44025688333331914,
          "durationTicks": 479,
          "midi": 35,
          "name": "B1",
          "ticks": 172320,
          "time": 158.382184,
          "velocity": 0.7559055118110236
        },
        {
          "duration": 0.21966888333329848,
          "durationTicks": 239,
          "midi": 42,
          "name": "F#2",
          "ticks": 172560,
          "time": 158.60277200000002,
          "velocity": 0.7559055118110236
        },
        {
          "duration": 0.44025688333331914,
          "durationTicks": 479,
          "midi": 36,
          "name": "C2",
          "ticks": 172800,
          "time": 158.82336,
          "velocity": 0.7559055118110236
        },
        {
          "duration": 0.2196688833333269,
          "durationTicks": 239,
          "midi": 42,
          "name": "F#2",
          "ticks": 173040,
          "time": 159.043948,
          "velocity": 0.7559055118110236
        },
        {
          "duration": 0.2196688833333269,
          "durationTicks": 239,
          "midi": 38,
          "name": "D2",
          "ticks": 173280,
          "time": 159.264536,
          "velocity": 0.7559055118110236
        },
        {
          "duration": 0.2196688833333269,
          "durationTicks": 239,
          "midi": 42,
          "name": "F#2",
          "ticks": 173520,
          "time": 159.485124,
          "velocity": 0.7559055118110236
        },
        {
          "duration": 0.2196688833333269,
          "durationTicks": 239,
          "midi": 49,
          "name": "C#3",
          "ticks": 173760,
          "time": 159.705712,
          "velocity": 0.7559055118110236
        },
        {
          "duration": 0.44025688333331914,
          "durationTicks": 479,
          "midi": 36,
          "name": "C2",
          "ticks": 173760,
          "time": 159.705712,
          "velocity": 0.7559055118110236
        },
        {
          "duration": 0.2196688833333269,
          "durationTicks": 239,
          "midi": 42,
          "name": "F#2",
          "ticks": 174000,
          "time": 159.9263,
          "velocity": 0.7559055118110236
        },
        {
          "duration": 0.21966888333329848,
          "durationTicks": 239,
          "midi": 38,
          "name": "D2",
          "ticks": 174240,
          "time": 160.14688800000002,
          "velocity": 0.7559055118110236
        },
        {
          "duration": 0.44025688333331914,
          "durationTicks": 479,
          "midi": 49,
          "name": "C#3",
          "ticks": 174480,
          "time": 160.367476,
          "velocity": 0.7559055118110236
        },
        {
          "duration": 0.44025688333331914,
          "durationTicks": 479,
          "midi": 36,
          "name": "C2",
          "ticks": 174720,
          "time": 160.588064,
          "velocity": 0.7559055118110236
        },
        {
          "duration": 0.2196688833333269,
          "durationTicks": 239,
          "midi": 42,
          "name": "F#2",
          "ticks": 174960,
          "time": 160.808652,
          "velocity": 0.7559055118110236
        },
        {
          "duration": 0.21966888333329848,
          "durationTicks": 239,
          "midi": 38,
          "name": "D2",
          "ticks": 175200,
          "time": 161.02924000000002,
          "velocity": 0.7559055118110236
        },
        {
          "duration": 0.2196688833333269,
          "durationTicks": 239,
          "midi": 42,
          "name": "F#2",
          "ticks": 175440,
          "time": 161.249828,
          "velocity": 0.7559055118110236
        },
        {
          "duration": 0.44025688333331914,
          "durationTicks": 479,
          "midi": 36,
          "name": "C2",
          "ticks": 175680,
          "time": 161.470416,
          "velocity": 0.7559055118110236
        },
        {
          "duration": 0.2196688833333269,
          "durationTicks": 239,
          "midi": 42,
          "name": "F#2",
          "ticks": 175920,
          "time": 161.691004,
          "velocity": 0.7559055118110236
        },
        {
          "duration": 0.2196688833333269,
          "durationTicks": 239,
          "midi": 38,
          "name": "D2",
          "ticks": 176160,
          "time": 161.911592,
          "velocity": 0.7559055118110236
        },
        {
          "duration": 0.2196688833333269,
          "durationTicks": 239,
          "midi": 42,
          "name": "F#2",
          "ticks": 176400,
          "time": 162.13218,
          "velocity": 0.7559055118110236
        },
        {
          "duration": 0.44025688333331914,
          "durationTicks": 479,
          "midi": 36,
          "name": "C2",
          "ticks": 176640,
          "time": 162.352768,
          "velocity": 0.7559055118110236
        },
        {
          "duration": 0.21966888333329848,
          "durationTicks": 239,
          "midi": 42,
          "name": "F#2",
          "ticks": 176880,
          "time": 162.57335600000002,
          "velocity": 0.7559055118110236
        },
        {
          "duration": 0.2196688833333269,
          "durationTicks": 239,
          "midi": 38,
          "name": "D2",
          "ticks": 177120,
          "time": 162.793944,
          "velocity": 0.7559055118110236
        },
        {
          "duration": 0.2196688833333269,
          "durationTicks": 239,
          "midi": 42,
          "name": "F#2",
          "ticks": 177360,
          "time": 163.014532,
          "velocity": 0.7559055118110236
        },
        {
          "duration": 0.2196688833333269,
          "durationTicks": 239,
          "midi": 49,
          "name": "C#3",
          "ticks": 177600,
          "time": 163.23512,
          "velocity": 0.7559055118110236
        },
        {
          "duration": 0.44025688333331914,
          "durationTicks": 479,
          "midi": 36,
          "name": "C2",
          "ticks": 177600,
          "time": 163.23512,
          "velocity": 0.7559055118110236
        },
        {
          "duration": 0.21966888333329848,
          "durationTicks": 239,
          "midi": 42,
          "name": "F#2",
          "ticks": 177840,
          "time": 163.45570800000002,
          "velocity": 0.7559055118110236
        },
        {
          "duration": 0.2196688833333269,
          "durationTicks": 239,
          "midi": 38,
          "name": "D2",
          "ticks": 178080,
          "time": 163.676296,
          "velocity": 0.7559055118110236
        },
        {
          "duration": 0.44025688333331914,
          "durationTicks": 479,
          "midi": 49,
          "name": "C#3",
          "ticks": 178320,
          "time": 163.896884,
          "velocity": 0.7559055118110236
        },
        {
          "duration": 0.44025688333334756,
          "durationTicks": 479,
          "midi": 36,
          "name": "C2",
          "ticks": 178560,
          "time": 164.117472,
          "velocity": 0.7559055118110236
        },
        {
          "duration": 0.2196688833333269,
          "durationTicks": 239,
          "midi": 42,
          "name": "F#2",
          "ticks": 178800,
          "time": 164.33806,
          "velocity": 0.7559055118110236
        },
        {
          "duration": 0.2196688833333269,
          "durationTicks": 239,
          "midi": 38,
          "name": "D2",
          "ticks": 179040,
          "time": 164.558648,
          "velocity": 0.7559055118110236
        },
        {
          "duration": 0.2196688833333269,
          "durationTicks": 239,
          "midi": 42,
          "name": "F#2",
          "ticks": 179280,
          "time": 164.779236,
          "velocity": 0.7559055118110236
        },
        {
          "duration": 0.44025688333331914,
          "durationTicks": 479,
          "midi": 36,
          "name": "C2",
          "ticks": 179520,
          "time": 164.99982400000002,
          "velocity": 0.7559055118110236
        },
        {
          "duration": 0.2196688833333269,
          "durationTicks": 239,
          "midi": 42,
          "name": "F#2",
          "ticks": 179760,
          "time": 165.220412,
          "velocity": 0.7559055118110236
        },
        {
          "duration": 0.2196688833333269,
          "durationTicks": 239,
          "midi": 38,
          "name": "D2",
          "ticks": 180000,
          "time": 165.441,
          "velocity": 0.7559055118110236
        },
        {
          "duration": 0.2196688833333269,
          "durationTicks": 239,
          "midi": 42,
          "name": "F#2",
          "ticks": 180240,
          "time": 165.661588,
          "velocity": 0.7559055118110236
        },
        {
          "duration": 0.44025688333331914,
          "durationTicks": 479,
          "midi": 36,
          "name": "C2",
          "ticks": 180480,
          "time": 165.88217600000002,
          "velocity": 0.7559055118110236
        },
        {
          "duration": 0.2196688833333269,
          "durationTicks": 239,
          "midi": 42,
          "name": "F#2",
          "ticks": 180720,
          "time": 166.102764,
          "velocity": 0.7559055118110236
        },
        {
          "duration": 0.2196688833333269,
          "durationTicks": 239,
          "midi": 38,
          "name": "D2",
          "ticks": 180960,
          "time": 166.323352,
          "velocity": 0.7559055118110236
        },
        {
          "duration": 0.2196688833333269,
          "durationTicks": 239,
          "midi": 42,
          "name": "F#2",
          "ticks": 181200,
          "time": 166.54394,
          "velocity": 0.7559055118110236
        },
        {
          "duration": 0.2196688833333269,
          "durationTicks": 239,
          "midi": 49,
          "name": "C#3",
          "ticks": 181440,
          "time": 166.764528,
          "velocity": 0.7559055118110236
        },
        {
          "duration": 0.44025688333331914,
          "durationTicks": 479,
          "midi": 36,
          "name": "C2",
          "ticks": 181440,
          "time": 166.764528,
          "velocity": 0.7559055118110236
        },
        {
          "duration": 0.2196688833333269,
          "durationTicks": 239,
          "midi": 42,
          "name": "F#2",
          "ticks": 181680,
          "time": 166.985116,
          "velocity": 0.7559055118110236
        },
        {
          "duration": 0.2196688833333269,
          "durationTicks": 239,
          "midi": 38,
          "name": "D2",
          "ticks": 181920,
          "time": 167.205704,
          "velocity": 0.7559055118110236
        },
        {
          "duration": 0.44025688333331914,
          "durationTicks": 479,
          "midi": 49,
          "name": "C#3",
          "ticks": 182160,
          "time": 167.42629200000002,
          "velocity": 0.7559055118110236
        },
        {
          "duration": 0.44025688333331914,
          "durationTicks": 479,
          "midi": 36,
          "name": "C2",
          "ticks": 182400,
          "time": 167.64688,
          "velocity": 0.7559055118110236
        },
        {
          "duration": 0.2196688833333269,
          "durationTicks": 239,
          "midi": 42,
          "name": "F#2",
          "ticks": 182640,
          "time": 167.867468,
          "velocity": 0.7559055118110236
        },
        {
          "duration": 0.2196688833333269,
          "durationTicks": 239,
          "midi": 38,
          "name": "D2",
          "ticks": 182880,
          "time": 168.088056,
          "velocity": 0.7559055118110236
        },
        {
          "duration": 0.21966888333329848,
          "durationTicks": 239,
          "midi": 42,
          "name": "F#2",
          "ticks": 183120,
          "time": 168.30864400000002,
          "velocity": 0.7559055118110236
        },
        {
          "duration": 0.2196688833333269,
          "durationTicks": 239,
          "midi": 38,
          "name": "D2",
          "ticks": 183360,
          "time": 168.529232,
          "velocity": 0.7559055118110236
        },
        {
          "duration": 0.2196688833333269,
          "durationTicks": 239,
          "midi": 36,
          "name": "C2",
          "ticks": 183600,
          "time": 168.74982,
          "velocity": 0.7559055118110236
        },
        {
          "duration": 0.2196688833333269,
          "durationTicks": 239,
          "midi": 38,
          "name": "D2",
          "ticks": 183840,
          "time": 168.970408,
          "velocity": 0.7559055118110236
        },
        {
          "duration": 0.2196688833333269,
          "durationTicks": 239,
          "midi": 42,
          "name": "F#2",
          "ticks": 183840,
          "time": 168.970408,
          "velocity": 0.7559055118110236
        },
        {
          "duration": 0.2196688833333269,
          "durationTicks": 239,
          "midi": 36,
          "name": "C2",
          "ticks": 184080,
          "time": 169.190996,
          "velocity": 0.7559055118110236
        },
        {
          "duration": 0.2196688833333269,
          "durationTicks": 239,
          "midi": 38,
          "name": "D2",
          "ticks": 184320,
          "time": 169.411584,
          "velocity": 0.7559055118110236
        },
        {
          "duration": 0.2196688833333269,
          "durationTicks": 239,
          "midi": 36,
          "name": "C2",
          "ticks": 184560,
          "time": 169.632172,
          "velocity": 0.7559055118110236
        },
        {
          "duration": 0.21966888333329848,
          "durationTicks": 239,
          "midi": 38,
          "name": "D2",
          "ticks": 184800,
          "time": 169.85276000000002,
          "velocity": 0.7559055118110236
        },
        {
          "duration": 0.21966888333329848,
          "durationTicks": 239,
          "midi": 42,
          "name": "F#2",
          "ticks": 184800,
          "time": 169.85276000000002,
          "velocity": 0.7559055118110236
        },
        {
          "duration": 0.2196688833333269,
          "durationTicks": 239,
          "midi": 36,
          "name": "C2",
          "ticks": 185040,
          "time": 170.073348,
          "velocity": 0.7559055118110236
        },
        {
          "duration": 0.10937488333331657,
          "durationTicks": 119,
          "midi": 38,
          "name": "D2",
          "ticks": 191040,
          "time": 175.58804800000001,
          "velocity": 0.7559055118110236
        },
        {
          "duration": 0.10937488333331657,
          "durationTicks": 119,
          "midi": 38,
          "name": "D2",
          "ticks": 191160,
          "time": 175.698342,
          "velocity": 0.7559055118110236
        },
        {
          "duration": 0.10937488333331657,
          "durationTicks": 119,
          "midi": 38,
          "name": "D2",
          "ticks": 191280,
          "time": 175.808636,
          "velocity": 0.7559055118110236
        },
        {
          "duration": 0.10937488333331657,
          "durationTicks": 119,
          "midi": 38,
          "name": "D2",
          "ticks": 191400,
          "time": 175.91893000000002,
          "velocity": 0.7559055118110236
        },
        {
          "duration": 0.109374883333345,
          "durationTicks": 119,
          "midi": 38,
          "name": "D2",
          "ticks": 191760,
          "time": 176.249812,
          "velocity": 0.7559055118110236
        },
        {
          "duration": 0.10937488333331657,
          "durationTicks": 119,
          "midi": 38,
          "name": "D2",
          "ticks": 191880,
          "time": 176.360106,
          "velocity": 0.7559055118110236
        },
        {
          "duration": 0.10937488333331657,
          "durationTicks": 119,
          "midi": 38,
          "name": "D2",
          "ticks": 192000,
          "time": 176.4704,
          "velocity": 0.7559055118110236
        },
        {
          "duration": 0.109374883333345,
          "durationTicks": 119,
          "midi": 38,
          "name": "D2",
          "ticks": 192120,
          "time": 176.580694,
          "velocity": 0.7559055118110236
        },
        {
          "duration": 0.10937488333331657,
          "durationTicks": 119,
          "midi": 38,
          "name": "D2",
          "ticks": 192480,
          "time": 176.911576,
          "velocity": 0.7559055118110236
        },
        {
          "duration": 0.10937488333331657,
          "durationTicks": 119,
          "midi": 38,
          "name": "D2",
          "ticks": 192600,
          "time": 177.02187,
          "velocity": 0.7559055118110236
        },
        {
          "duration": 0.10937488333331657,
          "durationTicks": 119,
          "midi": 38,
          "name": "D2",
          "ticks": 192720,
          "time": 177.13216400000002,
          "velocity": 0.7559055118110236
        },
        {
          "duration": 0.10937488333331657,
          "durationTicks": 119,
          "midi": 38,
          "name": "D2",
          "ticks": 192840,
          "time": 177.242458,
          "velocity": 0.7559055118110236
        },
        {
          "duration": 0.10937488333331657,
          "durationTicks": 119,
          "midi": 38,
          "name": "D2",
          "ticks": 193200,
          "time": 177.57334,
          "velocity": 0.7559055118110236
        },
        {
          "duration": 0.10937488333331657,
          "durationTicks": 119,
          "midi": 38,
          "name": "D2",
          "ticks": 193320,
          "time": 177.683634,
          "velocity": 0.7559055118110236
        },
        {
          "duration": 0.109374883333345,
          "durationTicks": 119,
          "midi": 38,
          "name": "D2",
          "ticks": 193440,
          "time": 177.793928,
          "velocity": 0.7559055118110236
        },
        {
          "duration": 0.10937488333331657,
          "durationTicks": 119,
          "midi": 38,
          "name": "D2",
          "ticks": 193560,
          "time": 177.904222,
          "velocity": 0.7559055118110236
        },
        {
          "duration": 0.10937488333331657,
          "durationTicks": 119,
          "midi": 38,
          "name": "D2",
          "ticks": 194160,
          "time": 178.455692,
          "velocity": 0.7559055118110236
        },
        {
          "duration": 0.10937488333331657,
          "durationTicks": 119,
          "midi": 38,
          "name": "D2",
          "ticks": 194280,
          "time": 178.565986,
          "velocity": 0.7559055118110236
        },
        {
          "duration": 0.109374883333345,
          "durationTicks": 119,
          "midi": 38,
          "name": "D2",
          "ticks": 194400,
          "time": 178.67628,
          "velocity": 0.7559055118110236
        },
        {
          "duration": 0.10937488333331657,
          "durationTicks": 119,
          "midi": 38,
          "name": "D2",
          "ticks": 194520,
          "time": 178.786574,
          "velocity": 0.7559055118110236
        },
        {
          "duration": 0.10937488333331657,
          "durationTicks": 119,
          "midi": 38,
          "name": "D2",
          "ticks": 194640,
          "time": 178.896868,
          "velocity": 0.7559055118110236
        },
        {
          "duration": 0.32996288333333723,
          "durationTicks": 359,
          "midi": 49,
          "name": "C#3",
          "ticks": 194760,
          "time": 179.007162,
          "velocity": 0.7559055118110236
        },
        {
          "duration": 0.2196688833333269,
          "durationTicks": 239,
          "midi": 49,
          "name": "C#3",
          "ticks": 195120,
          "time": 179.338044,
          "velocity": 0.7559055118110236
        }
      ],
      "endOfTrackTicks": 195360
    }
  ]
}