{
  "header": {
    "keySignatures": [
      {
        "key": "C",
        "scale": "major",
        "ticks": 0
      }
    ],
    "meta": [],
    "name": "",
    "ppq": 480,
    "tempos": [
      {
        "bpm": 140.00014000014,
        "ticks": 0
      }
    ],
    "timeSignatures": [
      {
        "ticks": 0,
        "timeSignature": [
          4,
          4
        ],
        "measures": 0
      }
    ]
  },
  "tracks": [
    {
      "channel": 0,
      "controlChanges": {
        "7": [
          {
            "number": 7,
            "ticks": 0,
            "time": 0,
            "value": 1
          }
        ],
        "10": [
          {
            "number": 10,
            "ticks": 0,
            "time": 0,
            "value": 0.5039370078740157
          }
        ],
        "91": [
          {
            "number": 91,
            "ticks": 0,
            "time": 0,
            "value": 0
          }
        ],
        "93": [
          {
            "number": 93,
            "ticks": 0,
            "time": 0,
            "value": 0
          }
        ]
      },
      "pitchBends": [],
      "instrument": {
        "family": "piano",
        "number": 0,
        "name": "acoustic grand piano"
      },
      "name": "Rhythm",
      "notes": [],
      "endOfTrackTicks": 224640
    },
    {
      "channel": 0,
      "controlChanges": {},
      "pitchBends": [],
      "instrument": {
        "family": "piano",
        "number": 0,
        "name": "acoustic grand piano"
      },
      "name": "",
      "notes": []
    },
    {
      "channel": 0,
      "controlChanges": {
        "7": [
          {
            "number": 7,
            "ticks": 0,
            "time": 0,
            "value": 1
          }
        ],
        "10": [
          {
            "number": 10,
            "ticks": 0,
            "time": 0,
            "value": 0.5039370078740157
          }
        ],
        "91": [
          {
            "number": 91,
            "ticks": 0,
            "time": 0,
            "value": 0
          }
        ],
        "93": [
          {
            "number": 93,
            "ticks": 0,
            "time": 0,
            "value": 0
          }
        ]
      },
      "pitchBends": [],
      "instrument": {
        "family": "piano",
        "number": 0,
        "name": "acoustic grand piano"
      },
      "name": "",
      "notes": []
    },
    {
      "channel": 0,
      "controlChanges": {},
      "pitchBends": [
        {
          "ticks": 38160,
          "time": 34.071394500000004,
          "value": 0
        },
        {
          "ticks": 45840,
          "time": 40.9285305,
          "value": 0
        },
        {
          "ticks": 53520,
          "time": 47.785666500000005,
          "value": 0
        },
        {
          "ticks": 55440,
          "time": 49.499950500000004,
          "value": 0
        },
        {
          "ticks": 57360,
          "time": 51.2142345,
          "value": 0
        },
        {
          "ticks": 59280,
          "time": 52.9285185,
          "value": 0
        },
        {
          "ticks": 80400,
          "time": 71.78564250000001,
          "value": 0
        },
        {
          "ticks": 88080,
          "time": 78.6427785,
          "value": 0
        },
        {
          "ticks": 95760,
          "time": 85.4999145,
          "value": 0
        },
        {
          "ticks": 103440,
          "time": 92.35705050000001,
          "value": 0
        },
        {
          "ticks": 105360,
          "time": 94.0713345,
          "value": 0
        },
        {
          "ticks": 107280,
          "time": 95.78561850000001,
          "value": 0
        },
        {
          "ticks": 109200,
          "time": 97.4999025,
          "value": 0
        },
        {
          "ticks": 164880,
          "time": 147.21413850000002,
          "value": 0
        },
        {
          "ticks": 172560,
          "time": 154.07127450000002,
          "value": 0
        },
        {
          "ticks": 180240,
          "time": 160.9284105,
          "value": 0
        },
        {
          "ticks": 182160,
          "time": 162.6426945,
          "value": 0
        },
        {
          "ticks": 184080,
          "time": 164.35697850000003,
          "value": 0
        },
        {
          "ticks": 186000,
          "time": 166.07126250000002,
          "value": 0
        }
      ],
      "instrument": {
        "family": "guitar",
        "number": 29,
        "name": "overdriven guitar"
      },
      "name": "",
      "notes": [
        {
          "duration": 1.4999985000000002,
          "durationTicks": 1680,
          "midi": 56,
          "name": "G#3",
          "ticks": 0,
          "time": 0,
          "velocity": 1
        },
        {
          "duration": 1.4999985000000002,
          "durationTicks": 1680,
          "midi": 52,
          "name": "E3",
          "ticks": 0,
          "time": 0,
          "velocity": 1
        },
        {
          "duration": 1.4999985000000002,
          "durationTicks": 1680,
          "midi": 47,
          "name": "B2",
          "ticks": 0,
          "time": 0,
          "velocity": 1
        },
        {
          "duration": 1.4999985000000002,
          "durationTicks": 1680,
          "midi": 40,
          "name": "E2",
          "ticks": 0,
          "time": 0,
          "velocity": 1
        },
        {
          "duration": 0.4285709999999998,
          "durationTicks": 480,
          "midi": 55,
          "name": "G3",
          "ticks": 1680,
          "time": 1.4999985000000002,
          "velocity": 1
        },
        {
          "duration": 0.4285709999999998,
          "durationTicks": 480,
          "midi": 50,
          "name": "D3",
          "ticks": 1680,
          "time": 1.4999985000000002,
          "velocity": 1
        },
        {
          "duration": 0.4285709999999998,
          "durationTicks": 480,
          "midi": 43,
          "name": "G2",
          "ticks": 1680,
          "time": 1.4999985000000002,
          "velocity": 1
        },
        {
          "duration": 1.2857130000000003,
          "durationTicks": 1440,
          "midi": 56,
          "name": "G#3",
          "ticks": 2160,
          "time": 1.9285695,
          "velocity": 1
        },
        {
          "duration": 1.2857130000000003,
          "durationTicks": 1440,
          "midi": 52,
          "name": "E3",
          "ticks": 2160,
          "time": 1.9285695,
          "velocity": 1
        },
        {
          "duration": 1.2857130000000003,
          "durationTicks": 1440,
          "midi": 47,
          "name": "B2",
          "ticks": 2160,
          "time": 1.9285695,
          "velocity": 1
        },
        {
          "duration": 1.2857130000000003,
          "durationTicks": 1440,
          "midi": 40,
          "name": "E2",
          "ticks": 2160,
          "time": 1.9285695,
          "velocity": 1
        },
        {
          "duration": 0.4285709999999998,
          "durationTicks": 480,
          "midi": 57,
          "name": "A3",
          "ticks": 3600,
          "time": 3.2142825000000004,
          "velocity": 1
        },
        {
          "duration": 0.4285709999999998,
          "durationTicks": 480,
          "midi": 52,
          "name": "E3",
          "ticks": 3600,
          "time": 3.2142825000000004,
          "velocity": 1
        },
        {
          "duration": 0.4285709999999998,
          "durationTicks": 480,
          "midi": 45,
          "name": "A2",
          "ticks": 3600,
          "time": 3.2142825000000004,
          "velocity": 1
        },
        {
          "duration": 1.2857130000000003,
          "durationTicks": 1440,
          "midi": 56,
          "name": "G#3",
          "ticks": 4080,
          "time": 3.6428535,
          "velocity": 1
        },
        {
          "duration": 1.2857130000000003,
          "durationTicks": 1440,
          "midi": 52,
          "name": "E3",
          "ticks": 4080,
          "time": 3.6428535,
          "velocity": 1
        },
        {
          "duration": 1.2857130000000003,
          "durationTicks": 1440,
          "midi": 47,
          "name": "B2",
          "ticks": 4080,
          "time": 3.6428535,
          "velocity": 1
        },
        {
          "duration": 1.2857130000000003,
          "durationTicks": 1440,
          "midi": 40,
          "name": "E2",
          "ticks": 4080,
          "time": 3.6428535,
          "velocity": 1
        },
        {
          "duration": 0.4285709999999998,
          "durationTicks": 480,
          "midi": 62,
          "name": "D4",
          "ticks": 5520,
          "time": 4.9285665000000005,
          "velocity": 1
        },
        {
          "duration": 0.4285709999999998,
          "durationTicks": 480,
          "midi": 57,
          "name": "A3",
          "ticks": 5520,
          "time": 4.9285665000000005,
          "velocity": 1
        },
        {
          "duration": 0.4285709999999998,
          "durationTicks": 480,
          "midi": 50,
          "name": "D3",
          "ticks": 5520,
          "time": 4.9285665000000005,
          "velocity": 1
        },
        {
          "duration": 0.4285709999999998,
          "durationTicks": 480,
          "midi": 45,
          "name": "A2",
          "ticks": 5520,
          "time": 4.9285665000000005,
          "velocity": 1
        },
        {
          "duration": 1.4999985000000002,
          "durationTicks": 1680,
          "midi": 56,
          "name": "G#3",
          "ticks": 6000,
          "time": 5.3571375,
          "velocity": 1
        },
        {
          "duration": 1.4999985000000002,
          "durationTicks": 1680,
          "midi": 52,
          "name": "E3",
          "ticks": 6000,
          "time": 5.3571375,
          "velocity": 1
        },
        {
          "duration": 1.4999985000000002,
          "durationTicks": 1680,
          "midi": 47,
          "name": "B2",
          "ticks": 6000,
          "time": 5.3571375,
          "velocity": 1
        },
        {
          "duration": 1.4999985000000002,
          "durationTicks": 1680,
          "midi": 40,
          "name": "E2",
          "ticks": 6000,
          "time": 5.3571375,
          "velocity": 1
        },
        {
          "duration": 1.4999985000000002,
          "durationTicks": 1680,
          "midi": 56,
          "name": "G#3",
          "ticks": 7680,
          "time": 6.857136000000001,
          "velocity": 1
        },
        {
          "duration": 1.4999985000000002,
          "durationTicks": 1680,
          "midi": 52,
          "name": "E3",
          "ticks": 7680,
          "time": 6.857136000000001,
          "velocity": 1
        },
        {
          "duration": 1.4999985000000002,
          "durationTicks": 1680,
          "midi": 47,
          "name": "B2",
          "ticks": 7680,
          "time": 6.857136000000001,
          "velocity": 1
        },
        {
          "duration": 1.4999985000000002,
          "durationTicks": 1680,
          "midi": 40,
          "name": "E2",
          "ticks": 7680,
          "time": 6.857136000000001,
          "velocity": 1
        },
        {
          "duration": 0.4285709999999998,
          "durationTicks": 480,
          "midi": 55,
          "name": "G3",
          "ticks": 9360,
          "time": 8.3571345,
          "velocity": 1
        },
        {
          "duration": 0.4285709999999998,
          "durationTicks": 480,
          "midi": 50,
          "name": "D3",
          "ticks": 9360,
          "time": 8.3571345,
          "velocity": 1
        },
        {
          "duration": 0.4285709999999998,
          "durationTicks": 480,
          "midi": 43,
          "name": "G2",
          "ticks": 9360,
          "time": 8.3571345,
          "velocity": 1
        },
        {
          "duration": 1.2857129999999994,
          "durationTicks": 1440,
          "midi": 56,
          "name": "G#3",
          "ticks": 9840,
          "time": 8.7857055,
          "velocity": 1
        },
        {
          "duration": 1.2857129999999994,
          "durationTicks": 1440,
          "midi": 52,
          "name": "E3",
          "ticks": 9840,
          "time": 8.7857055,
          "velocity": 1
        },
        {
          "duration": 1.2857129999999994,
          "durationTicks": 1440,
          "midi": 47,
          "name": "B2",
          "ticks": 9840,
          "time": 8.7857055,
          "velocity": 1
        },
        {
          "duration": 1.2857129999999994,
          "durationTicks": 1440,
          "midi": 40,
          "name": "E2",
          "ticks": 9840,
          "time": 8.7857055,
          "velocity": 1
        },
        {
          "duration": 0.4285710000000016,
          "durationTicks": 480,
          "midi": 57,
          "name": "A3",
          "ticks": 11280,
          "time": 10.0714185,
          "velocity": 1
        },
        {
          "duration": 0.4285710000000016,
          "durationTicks": 480,
          "midi": 52,
          "name": "E3",
          "ticks": 11280,
          "time": 10.0714185,
          "velocity": 1
        },
        {
          "duration": 0.4285710000000016,
          "durationTicks": 480,
          "midi": 45,
          "name": "A2",
          "ticks": 11280,
          "time": 10.0714185,
          "velocity": 1
        },
        {
          "duration": 1.2857129999999994,
          "durationTicks": 1440,
          "midi": 56,
          "name": "G#3",
          "ticks": 11760,
          "time": 10.499989500000002,
          "velocity": 1
        },
        {
          "duration": 1.2857129999999994,
          "durationTicks": 1440,
          "midi": 52,
          "name": "E3",
          "ticks": 11760,
          "time": 10.499989500000002,
          "velocity": 1
        },
        {
          "duration": 1.2857129999999994,
          "durationTicks": 1440,
          "midi": 47,
          "name": "B2",
          "ticks": 11760,
          "time": 10.499989500000002,
          "velocity": 1
        },
        {
          "duration": 1.2857129999999994,
          "durationTicks": 1440,
          "midi": 40,
          "name": "E2",
          "ticks": 11760,
          "time": 10.499989500000002,
          "velocity": 1
        },
        {
          "duration": 0.4285709999999998,
          "durationTicks": 480,
          "midi": 62,
          "name": "D4",
          "ticks": 13200,
          "time": 11.785702500000001,
          "velocity": 1
        },
        {
          "duration": 0.4285709999999998,
          "durationTicks": 480,
          "midi": 57,
          "name": "A3",
          "ticks": 13200,
          "time": 11.785702500000001,
          "velocity": 1
        },
        {
          "duration": 0.4285709999999998,
          "durationTicks": 480,
          "midi": 50,
          "name": "D3",
          "ticks": 13200,
          "time": 11.785702500000001,
          "velocity": 1
        },
        {
          "duration": 0.4285709999999998,
          "durationTicks": 480,
          "midi": 45,
          "name": "A2",
          "ticks": 13200,
          "time": 11.785702500000001,
          "velocity": 1
        },
        {
          "duration": 1.4999985000000002,
          "durationTicks": 1680,
          "midi": 56,
          "name": "G#3",
          "ticks": 13680,
          "time": 12.214273500000001,
          "velocity": 1
        },
        {
          "duration": 1.4999985000000002,
          "durationTicks": 1680,
          "midi": 52,
          "name": "E3",
          "ticks": 13680,
          "time": 12.214273500000001,
          "velocity": 1
        },
        {
          "duration": 1.4999985000000002,
          "durationTicks": 1680,
          "midi": 47,
          "name": "B2",
          "ticks": 13680,
          "time": 12.214273500000001,
          "velocity": 1
        },
        {
          "duration": 1.4999985000000002,
          "durationTicks": 1680,
          "midi": 40,
          "name": "E2",
          "ticks": 13680,
          "time": 12.214273500000001,
          "velocity": 1
        },
        {
          "duration": 1.4999985000000002,
          "durationTicks": 1680,
          "midi": 56,
          "name": "G#3",
          "ticks": 15360,
          "time": 13.714272000000001,
          "velocity": 1
        },
        {
          "duration": 1.4999985000000002,
          "durationTicks": 1680,
          "midi": 52,
          "name": "E3",
          "ticks": 15360,
          "time": 13.714272000000001,
          "velocity": 1
        },
        {
          "duration": 1.4999985000000002,
          "durationTicks": 1680,
          "midi": 47,
          "name": "B2",
          "ticks": 15360,
          "time": 13.714272000000001,
          "velocity": 1
        },
        {
          "duration": 1.4999985000000002,
          "durationTicks": 1680,
          "midi": 40,
          "name": "E2",
          "ticks": 15360,
          "time": 13.714272000000001,
          "velocity": 1
        },
        {
          "duration": 0.4285709999999998,
          "durationTicks": 480,
          "midi": 55,
          "name": "G3",
          "ticks": 17040,
          "time": 15.214270500000001,
          "velocity": 1
        },
        {
          "duration": 0.4285709999999998,
          "durationTicks": 480,
          "midi": 50,
          "name": "D3",
          "ticks": 17040,
          "time": 15.214270500000001,
          "velocity": 1
        },
        {
          "duration": 0.4285709999999998,
          "durationTicks": 480,
          "midi": 43,
          "name": "G2",
          "ticks": 17040,
          "time": 15.214270500000001,
          "velocity": 1
        },
        {
          "duration": 1.2857129999999994,
          "durationTicks": 1440,
          "midi": 56,
          "name": "G#3",
          "ticks": 17520,
          "time": 15.642841500000001,
          "velocity": 1
        },
        {
          "duration": 1.2857129999999994,
          "durationTicks": 1440,
          "midi": 52,
          "name": "E3",
          "ticks": 17520,
          "time": 15.642841500000001,
          "velocity": 1
        },
        {
          "duration": 1.2857129999999994,
          "durationTicks": 1440,
          "midi": 47,
          "name": "B2",
          "ticks": 17520,
          "time": 15.642841500000001,
          "velocity": 1
        },
        {
          "duration": 1.2857129999999994,
          "durationTicks": 1440,
          "midi": 40,
          "name": "E2",
          "ticks": 17520,
          "time": 15.642841500000001,
          "velocity": 1
        },
        {
          "duration": 0.4285710000000016,
          "durationTicks": 480,
          "midi": 57,
          "name": "A3",
          "ticks": 18960,
          "time": 16.9285545,
          "velocity": 1
        },
        {
          "duration": 0.4285710000000016,
          "durationTicks": 480,
          "midi": 52,
          "name": "E3",
          "ticks": 18960,
          "time": 16.9285545,
          "velocity": 1
        },
        {
          "duration": 0.4285710000000016,
          "durationTicks": 480,
          "midi": 45,
          "name": "A2",
          "ticks": 18960,
          "time": 16.9285545,
          "velocity": 1
        },
        {
          "duration": 1.2857129999999977,
          "durationTicks": 1440,
          "midi": 56,
          "name": "G#3",
          "ticks": 19440,
          "time": 17.357125500000002,
          "velocity": 1
        },
        {
          "duration": 1.2857129999999977,
          "durationTicks": 1440,
          "midi": 52,
          "name": "E3",
          "ticks": 19440,
          "time": 17.357125500000002,
          "velocity": 1
        },
        {
          "duration": 1.2857129999999977,
          "durationTicks": 1440,
          "midi": 47,
          "name": "B2",
          "ticks": 19440,
          "time": 17.357125500000002,
          "velocity": 1
        },
        {
          "duration": 1.2857129999999977,
          "durationTicks": 1440,
          "midi": 40,
          "name": "E2",
          "ticks": 19440,
          "time": 17.357125500000002,
          "velocity": 1
        },
        {
          "duration": 0.4285710000000016,
          "durationTicks": 480,
          "midi": 62,
          "name": "D4",
          "ticks": 20880,
          "time": 18.6428385,
          "velocity": 1
        },
        {
          "duration": 0.4285710000000016,
          "durationTicks": 480,
          "midi": 57,
          "name": "A3",
          "ticks": 20880,
          "time": 18.6428385,
          "velocity": 1
        },
        {
          "duration": 0.4285710000000016,
          "durationTicks": 480,
          "midi": 50,
          "name": "D3",
          "ticks": 20880,
          "time": 18.6428385,
          "velocity": 1
        },
        {
          "duration": 0.4285710000000016,
          "durationTicks": 480,
          "midi": 45,
          "name": "A2",
          "ticks": 20880,
          "time": 18.6428385,
          "velocity": 1
        },
        {
          "duration": 1.4999985000000002,
          "durationTicks": 1680,
          "midi": 56,
          "name": "G#3",
          "ticks": 21360,
          "time": 19.0714095,
          "velocity": 1
        },
        {
          "duration": 1.4999985000000002,
          "durationTicks": 1680,
          "midi": 52,
          "name": "E3",
          "ticks": 21360,
          "time": 19.0714095,
          "velocity": 1
        },
        {
          "duration": 1.4999985000000002,
          "durationTicks": 1680,
          "midi": 47,
          "name": "B2",
          "ticks": 21360,
          "time": 19.0714095,
          "velocity": 1
        },
        {
          "duration": 1.4999985000000002,
          "durationTicks": 1680,
          "midi": 40,
          "name": "E2",
          "ticks": 21360,
          "time": 19.0714095,
          "velocity": 1
        },
        {
          "duration": 1.4999985000000002,
          "durationTicks": 1680,
          "midi": 56,
          "name": "G#3",
          "ticks": 23040,
          "time": 20.571408,
          "velocity": 1
        },
        {
          "duration": 1.4999985000000002,
          "durationTicks": 1680,
          "midi": 52,
          "name": "E3",
          "ticks": 23040,
          "time": 20.571408,
          "velocity": 1
        },
        {
          "duration": 1.4999985000000002,
          "durationTicks": 1680,
          "midi": 47,
          "name": "B2",
          "ticks": 23040,
          "time": 20.571408,
          "velocity": 1
        },
        {
          "duration": 1.4999985000000002,
          "durationTicks": 1680,
          "midi": 40,
          "name": "E2",
          "ticks": 23040,
          "time": 20.571408,
          "velocity": 1
        },
        {
          "duration": 0.4285710000000016,
          "durationTicks": 480,
          "midi": 55,
          "name": "G3",
          "ticks": 24720,
          "time": 22.071406500000002,
          "velocity": 1
        },
        {
          "duration": 0.4285710000000016,
          "durationTicks": 480,
          "midi": 50,
          "name": "D3",
          "ticks": 24720,
          "time": 22.071406500000002,
          "velocity": 1
        },
        {
          "duration": 0.4285710000000016,
          "durationTicks": 480,
          "midi": 43,
          "name": "G2",
          "ticks": 24720,
          "time": 22.071406500000002,
          "velocity": 1
        },
        {
          "duration": 1.2857129999999977,
          "durationTicks": 1440,
          "midi": 56,
          "name": "G#3",
          "ticks": 25200,
          "time": 22.499977500000004,
          "velocity": 1
        },
        {
          "duration": 1.2857129999999977,
          "durationTicks": 1440,
          "midi": 52,
          "name": "E3",
          "ticks": 25200,
          "time": 22.499977500000004,
          "velocity": 1
        },
        {
          "duration": 1.2857129999999977,
          "durationTicks": 1440,
          "midi": 47,
          "name": "B2",
          "ticks": 25200,
          "time": 22.499977500000004,
          "velocity": 1
        },
        {
          "duration": 1.2857129999999977,
          "durationTicks": 1440,
          "midi": 40,
          "name": "E2",
          "ticks": 25200,
          "time": 22.499977500000004,
          "velocity": 1
        },
        {
          "duration": 0.4285710000000016,
          "durationTicks": 480,
          "midi": 57,
          "name": "A3",
          "ticks": 26640,
          "time": 23.7856905,
          "velocity": 1
        },
        {
          "duration": 0.4285710000000016,
          "durationTicks": 480,
          "midi": 52,
          "name": "E3",
          "ticks": 26640,
          "time": 23.7856905,
          "velocity": 1
        },
        {
          "duration": 0.4285710000000016,
          "durationTicks": 480,
          "midi": 45,
          "name": "A2",
          "ticks": 26640,
          "time": 23.7856905,
          "velocity": 1
        },
        {
          "duration": 1.2857129999999977,
          "durationTicks": 1440,
          "midi": 56,
          "name": "G#3",
          "ticks": 27120,
          "time": 24.214261500000003,
          "velocity": 1
        },
        {
          "duration": 1.2857129999999977,
          "durationTicks": 1440,
          "midi": 52,
          "name": "E3",
          "ticks": 27120,
          "time": 24.214261500000003,
          "velocity": 1
        },
        {
          "duration": 1.2857129999999977,
          "durationTicks": 1440,
          "midi": 47,
          "name": "B2",
          "ticks": 27120,
          "time": 24.214261500000003,
          "velocity": 1
        },
        {
          "duration": 1.2857129999999977,
          "durationTicks": 1440,
          "midi": 40,
          "name": "E2",
          "ticks": 27120,
          "time": 24.214261500000003,
          "velocity": 1
        },
        {
          "duration": 0.4285710000000016,
          "durationTicks": 480,
          "midi": 62,
          "name": "D4",
          "ticks": 28560,
          "time": 25.4999745,
          "velocity": 1
        },
        {
          "duration": 0.4285710000000016,
          "durationTicks": 480,
          "midi": 57,
          "name": "A3",
          "ticks": 28560,
          "time": 25.4999745,
          "velocity": 1
        },
        {
          "duration": 0.4285710000000016,
          "durationTicks": 480,
          "midi": 50,
          "name": "D3",
          "ticks": 28560,
          "time": 25.4999745,
          "velocity": 1
        },
        {
          "duration": 0.4285710000000016,
          "durationTicks": 480,
          "midi": 45,
          "name": "A2",
          "ticks": 28560,
          "time": 25.4999745,
          "velocity": 1
        },
        {
          "duration": 0.8571419999999996,
          "durationTicks": 960,
          "midi": 56,
          "name": "G#3",
          "ticks": 29040,
          "time": 25.928545500000002,
          "velocity": 1
        },
        {
          "duration": 0.8571419999999996,
          "durationTicks": 960,
          "midi": 52,
          "name": "E3",
          "ticks": 29040,
          "time": 25.928545500000002,
          "velocity": 1
        },
        {
          "duration": 0.8571419999999996,
          "durationTicks": 960,
          "midi": 47,
          "name": "B2",
          "ticks": 29040,
          "time": 25.928545500000002,
          "velocity": 1
        },
        {
          "duration": 0.8571419999999996,
          "durationTicks": 960,
          "midi": 40,
          "name": "E2",
          "ticks": 29040,
          "time": 25.928545500000002,
          "velocity": 1
        },
        {
          "duration": 0.4285710000000016,
          "durationTicks": 480,
          "midi": 62,
          "name": "D4",
          "ticks": 30000,
          "time": 26.7856875,
          "velocity": 1
        },
        {
          "duration": 0.4285710000000016,
          "durationTicks": 480,
          "midi": 57,
          "name": "A3",
          "ticks": 30000,
          "time": 26.7856875,
          "velocity": 1
        },
        {
          "duration": 0.4285710000000016,
          "durationTicks": 480,
          "midi": 50,
          "name": "D3",
          "ticks": 30000,
          "time": 26.7856875,
          "velocity": 1
        },
        {
          "duration": 6.4285650000000025,
          "durationTicks": 7200,
          "midi": 68,
          "name": "G#4",
          "ticks": 30480,
          "time": 27.214258500000003,
          "velocity": 1
        },
        {
          "duration": 6.4285650000000025,
          "durationTicks": 7200,
          "midi": 64,
          "name": "E4",
          "ticks": 30480,
          "time": 27.214258500000003,
          "velocity": 1
        },
        {
          "duration": 6.4285650000000025,
          "durationTicks": 7200,
          "midi": 59,
          "name": "B3",
          "ticks": 30480,
          "time": 27.214258500000003,
          "velocity": 1
        },
        {
          "duration": 6.4285650000000025,
          "durationTicks": 7200,
          "midi": 52,
          "name": "E3",
          "ticks": 30480,
          "time": 27.214258500000003,
          "velocity": 1
        },
        {
          "duration": 6.4285650000000025,
          "durationTicks": 7200,
          "midi": 40,
          "name": "E2",
          "ticks": 30480,
          "time": 27.214258500000003,
          "velocity": 1
        },
        {
          "duration": 0.21428549999999547,
          "durationTicks": 240,
          "midi": 66,
          "name": "F#4",
          "ticks": 37680,
          "time": 33.642823500000006,
          "velocity": 1
        },
        {
          "duration": 0.21428549999999547,
          "durationTicks": 240,
          "midi": 62,
          "name": "D4",
          "ticks": 37680,
          "time": 33.642823500000006,
          "velocity": 1
        },
        {
          "duration": 0.21428549999999547,
          "durationTicks": 240,
          "midi": 57,
          "name": "A3",
          "ticks": 37680,
          "time": 33.642823500000006,
          "velocity": 1
        },
        {
          "duration": 0.21428549999999547,
          "durationTicks": 240,
          "midi": 50,
          "name": "D3",
          "ticks": 37680,
          "time": 33.642823500000006,
          "velocity": 1
        },
        {
          "duration": 6.428564999999999,
          "durationTicks": 7200,
          "midi": 68,
          "name": "G#4",
          "ticks": 38160,
          "time": 34.071394500000004,
          "velocity": 1
        },
        {
          "duration": 6.428564999999999,
          "durationTicks": 7200,
          "midi": 64,
          "name": "E4",
          "ticks": 38160,
          "time": 34.071394500000004,
          "velocity": 1
        },
        {
          "duration": 6.428564999999999,
          "durationTicks": 7200,
          "midi": 59,
          "name": "B3",
          "ticks": 38160,
          "time": 34.071394500000004,
          "velocity": 1
        },
        {
          "duration": 6.428564999999999,
          "durationTicks": 7200,
          "midi": 52,
          "name": "E3",
          "ticks": 38160,
          "time": 34.071394500000004,
          "velocity": 1
        },
        {
          "duration": 0.21428550000000257,
          "durationTicks": 240,
          "midi": 66,
          "name": "F#4",
          "ticks": 45360,
          "time": 40.4999595,
          "velocity": 1
        },
        {
          "duration": 0.21428550000000257,
          "durationTicks": 240,
          "midi": 62,
          "name": "D4",
          "ticks": 45360,
          "time": 40.4999595,
          "velocity": 1
        },
        {
          "duration": 0.21428550000000257,
          "durationTicks": 240,
          "midi": 57,
          "name": "A3",
          "ticks": 45360,
          "time": 40.4999595,
          "velocity": 1
        },
        {
          "duration": 0.21428550000000257,
          "durationTicks": 240,
          "midi": 50,
          "name": "D3",
          "ticks": 45360,
          "time": 40.4999595,
          "velocity": 1
        },
        {
          "duration": 6.428565000000006,
          "durationTicks": 7200,
          "midi": 68,
          "name": "G#4",
          "ticks": 45840,
          "time": 40.9285305,
          "velocity": 1
        },
        {
          "duration": 6.428565000000006,
          "durationTicks": 7200,
          "midi": 64,
          "name": "E4",
          "ticks": 45840,
          "time": 40.9285305,
          "velocity": 1
        },
        {
          "duration": 6.428565000000006,
          "durationTicks": 7200,
          "midi": 59,
          "name": "B3",
          "ticks": 45840,
          "time": 40.9285305,
          "velocity": 1
        },
        {
          "duration": 6.428565000000006,
          "durationTicks": 7200,
          "midi": 52,
          "name": "E3",
          "ticks": 45840,
          "time": 40.9285305,
          "velocity": 1
        },
        {
          "duration": 0.21428549999999547,
          "durationTicks": 240,
          "midi": 66,
          "name": "F#4",
          "ticks": 53040,
          "time": 47.35709550000001,
          "velocity": 1
        },
        {
          "duration": 0.21428549999999547,
          "durationTicks": 240,
          "midi": 62,
          "name": "D4",
          "ticks": 53040,
          "time": 47.35709550000001,
          "velocity": 1
        },
        {
          "duration": 0.21428549999999547,
          "durationTicks": 240,
          "midi": 57,
          "name": "A3",
          "ticks": 53040,
          "time": 47.35709550000001,
          "velocity": 1
        },
        {
          "duration": 0.21428549999999547,
          "durationTicks": 240,
          "midi": 50,
          "name": "D3",
          "ticks": 53040,
          "time": 47.35709550000001,
          "velocity": 1
        },
        {
          "duration": 0.21428550000000257,
          "durationTicks": 240,
          "midi": 68,
          "name": "G#4",
          "ticks": 53520,
          "time": 47.785666500000005,
          "velocity": 1
        },
        {
          "duration": 0.21428550000000257,
          "durationTicks": 240,
          "midi": 64,
          "name": "E4",
          "ticks": 53520,
          "time": 47.785666500000005,
          "velocity": 1
        },
        {
          "duration": 0.21428550000000257,
          "durationTicks": 240,
          "midi": 59,
          "name": "B3",
          "ticks": 53520,
          "time": 47.785666500000005,
          "velocity": 1
        },
        {
          "duration": 0.21428550000000257,
          "durationTicks": 240,
          "midi": 52,
          "name": "E3",
          "ticks": 53520,
          "time": 47.785666500000005,
          "velocity": 1
        },
        {
          "duration": 1.0714274999999986,
          "durationTicks": 1200,
          "midi": 68,
          "name": "G#4",
          "ticks": 53760,
          "time": 47.99995200000001,
          "velocity": 1
        },
        {
          "duration": 1.0714274999999986,
          "durationTicks": 1200,
          "midi": 64,
          "name": "E4",
          "ticks": 53760,
          "time": 47.99995200000001,
          "velocity": 1
        },
        {
          "duration": 1.0714274999999986,
          "durationTicks": 1200,
          "midi": 59,
          "name": "B3",
          "ticks": 53760,
          "time": 47.99995200000001,
          "velocity": 1
        },
        {
          "duration": 1.0714274999999986,
          "durationTicks": 1200,
          "midi": 52,
          "name": "E3",
          "ticks": 53760,
          "time": 47.99995200000001,
          "velocity": 1
        },
        {
          "duration": 1.0714274999999986,
          "durationTicks": 1200,
          "midi": 40,
          "name": "E2",
          "ticks": 53760,
          "time": 47.99995200000001,
          "velocity": 1
        },
        {
          "duration": 0.21428549999999547,
          "durationTicks": 240,
          "midi": 66,
          "name": "F#4",
          "ticks": 54960,
          "time": 49.071379500000006,
          "velocity": 1
        },
        {
          "duration": 0.21428549999999547,
          "durationTicks": 240,
          "midi": 62,
          "name": "D4",
          "ticks": 54960,
          "time": 49.071379500000006,
          "velocity": 1
        },
        {
          "duration": 0.21428549999999547,
          "durationTicks": 240,
          "midi": 57,
          "name": "A3",
          "ticks": 54960,
          "time": 49.071379500000006,
          "velocity": 1
        },
        {
          "duration": 0.21428549999999547,
          "durationTicks": 240,
          "midi": 50,
          "name": "D3",
          "ticks": 54960,
          "time": 49.071379500000006,
          "velocity": 1
        },
        {
          "duration": 0.21428550000000257,
          "durationTicks": 240,
          "midi": 68,
          "name": "G#4",
          "ticks": 55440,
          "time": 49.499950500000004,
          "velocity": 1
        },
        {
          "duration": 0.21428550000000257,
          "durationTicks": 240,
          "midi": 64,
          "name": "E4",
          "ticks": 55440,
          "time": 49.499950500000004,
          "velocity": 1
        },
        {
          "duration": 0.21428550000000257,
          "durationTicks": 240,
          "midi": 59,
          "name": "B3",
          "ticks": 55440,
          "time": 49.499950500000004,
          "velocity": 1
        },
        {
          "duration": 0.21428550000000257,
          "durationTicks": 240,
          "midi": 52,
          "name": "E3",
          "ticks": 55440,
          "time": 49.499950500000004,
          "velocity": 1
        },
        {
          "duration": 1.0714274999999986,
          "durationTicks": 1200,
          "midi": 68,
          "name": "G#4",
          "ticks": 55680,
          "time": 49.71423600000001,
          "velocity": 1
        },
        {
          "duration": 1.0714274999999986,
          "durationTicks": 1200,
          "midi": 64,
          "name": "E4",
          "ticks": 55680,
          "time": 49.71423600000001,
          "velocity": 1
        },
        {
          "duration": 1.0714274999999986,
          "durationTicks": 1200,
          "midi": 59,
          "name": "B3",
          "ticks": 55680,
          "time": 49.71423600000001,
          "velocity": 1
        },
        {
          "duration": 1.0714274999999986,
          "durationTicks": 1200,
          "midi": 52,
          "name": "E3",
          "ticks": 55680,
          "time": 49.71423600000001,
          "velocity": 1
        },
        {
          "duration": 1.0714274999999986,
          "durationTicks": 1200,
          "midi": 40,
          "name": "E2",
          "ticks": 55680,
          "time": 49.71423600000001,
          "velocity": 1
        },
        {
          "duration": 0.21428549999999547,
          "durationTicks": 240,
          "midi": 66,
          "name": "F#4",
          "ticks": 56880,
          "time": 50.785663500000005,
          "velocity": 1
        },
        {
          "duration": 0.21428549999999547,
          "durationTicks": 240,
          "midi": 62,
          "name": "D4",
          "ticks": 56880,
          "time": 50.785663500000005,
          "velocity": 1
        },
        {
          "duration": 0.21428549999999547,
          "durationTicks": 240,
          "midi": 57,
          "name": "A3",
          "ticks": 56880,
          "time": 50.785663500000005,
          "velocity": 1
        },
        {
          "duration": 0.21428549999999547,
          "durationTicks": 240,
          "midi": 50,
          "name": "D3",
          "ticks": 56880,
          "time": 50.785663500000005,
          "velocity": 1
        },
        {
          "duration": 0.21428550000000257,
          "durationTicks": 240,
          "midi": 68,
          "name": "G#4",
          "ticks": 57360,
          "time": 51.2142345,
          "velocity": 1
        },
        {
          "duration": 0.21428550000000257,
          "durationTicks": 240,
          "midi": 64,
          "name": "E4",
          "ticks": 57360,
          "time": 51.2142345,
          "velocity": 1
        },
        {
          "duration": 0.21428550000000257,
          "durationTicks": 240,
          "midi": 59,
          "name": "B3",
          "ticks": 57360,
          "time": 51.2142345,
          "velocity": 1
        },
        {
          "duration": 0.21428550000000257,
          "durationTicks": 240,
          "midi": 52,
          "name": "E3",
          "ticks": 57360,
          "time": 51.2142345,
          "velocity": 1
        },
        {
          "duration": 1.0714274999999986,
          "durationTicks": 1200,
          "midi": 68,
          "name": "G#4",
          "ticks": 57600,
          "time": 51.428520000000006,
          "velocity": 1
        },
        {
          "duration": 1.0714274999999986,
          "durationTicks": 1200,
          "midi": 64,
          "name": "E4",
          "ticks": 57600,
          "time": 51.428520000000006,
          "velocity": 1
        },
        {
          "duration": 1.0714274999999986,
          "durationTicks": 1200,
          "midi": 59,
          "name": "B3",
          "ticks": 57600,
          "time": 51.428520000000006,
          "velocity": 1
        },
        {
          "duration": 1.0714274999999986,
          "durationTicks": 1200,
          "midi": 52,
          "name": "E3",
          "ticks": 57600,
          "time": 51.428520000000006,
          "velocity": 1
        },
        {
          "duration": 1.0714274999999986,
          "durationTicks": 1200,
          "midi": 40,
          "name": "E2",
          "ticks": 57600,
          "time": 51.428520000000006,
          "velocity": 1
        },
        {
          "duration": 0.21428550000000257,
          "durationTicks": 240,
          "midi": 66,
          "name": "F#4",
          "ticks": 58800,
          "time": 52.499947500000005,
          "velocity": 1
        },
        {
          "duration": 0.21428550000000257,
          "durationTicks": 240,
          "midi": 62,
          "name": "D4",
          "ticks": 58800,
          "time": 52.499947500000005,
          "velocity": 1
        },
        {
          "duration": 0.21428550000000257,
          "durationTicks": 240,
          "midi": 57,
          "name": "A3",
          "ticks": 58800,
          "time": 52.499947500000005,
          "velocity": 1
        },
        {
          "duration": 0.21428550000000257,
          "durationTicks": 240,
          "midi": 50,
          "name": "D3",
          "ticks": 58800,
          "time": 52.499947500000005,
          "velocity": 1
        },
        {
          "duration": 0.21428550000000257,
          "durationTicks": 240,
          "midi": 68,
          "name": "G#4",
          "ticks": 59280,
          "time": 52.9285185,
          "velocity": 1
        },
        {
          "duration": 0.21428550000000257,
          "durationTicks": 240,
          "midi": 64,
          "name": "E4",
          "ticks": 59280,
          "time": 52.9285185,
          "velocity": 1
        },
        {
          "duration": 0.21428550000000257,
          "durationTicks": 240,
          "midi": 59,
          "name": "B3",
          "ticks": 59280,
          "time": 52.9285185,
          "velocity": 1
        },
        {
          "duration": 0.21428550000000257,
          "durationTicks": 240,
          "midi": 52,
          "name": "E3",
          "ticks": 59280,
          "time": 52.9285185,
          "velocity": 1
        },
        {
          "duration": 0.21428550000000257,
          "durationTicks": 240,
          "midi": 68,
          "name": "G#4",
          "ticks": 59520,
          "time": 53.142804000000005,
          "velocity": 1
        },
        {
          "duration": 0.21428550000000257,
          "durationTicks": 240,
          "midi": 64,
          "name": "E4",
          "ticks": 59520,
          "time": 53.142804000000005,
          "velocity": 1
        },
        {
          "duration": 0.21428550000000257,
          "durationTicks": 240,
          "midi": 59,
          "name": "B3",
          "ticks": 59520,
          "time": 53.142804000000005,
          "velocity": 1
        },
        {
          "duration": 0.21428550000000257,
          "durationTicks": 240,
          "midi": 52,
          "name": "E3",
          "ticks": 59520,
          "time": 53.142804000000005,
          "velocity": 1
        },
        {
          "duration": 0.21428550000000257,
          "durationTicks": 240,
          "midi": 40,
          "name": "E2",
          "ticks": 59520,
          "time": 53.142804000000005,
          "velocity": 1
        },
        {
          "duration": 0.21428549999999547,
          "durationTicks": 240,
          "midi": 68,
          "name": "G#4",
          "ticks": 59760,
          "time": 53.35708950000001,
          "velocity": 1
        },
        {
          "duration": 0.21428549999999547,
          "durationTicks": 240,
          "midi": 64,
          "name": "E4",
          "ticks": 59760,
          "time": 53.35708950000001,
          "velocity": 1
        },
        {
          "duration": 0.21428549999999547,
          "durationTicks": 240,
          "midi": 59,
          "name": "B3",
          "ticks": 59760,
          "time": 53.35708950000001,
          "velocity": 1
        },
        {
          "duration": 0.21428549999999547,
          "durationTicks": 240,
          "midi": 52,
          "name": "E3",
          "ticks": 59760,
          "time": 53.35708950000001,
          "velocity": 1
        },
        {
          "duration": 0.21428549999999547,
          "durationTicks": 240,
          "midi": 40,
          "name": "E2",
          "ticks": 59760,
          "time": 53.35708950000001,
          "velocity": 1
        },
        {
          "duration": 0.21428550000000257,
          "durationTicks": 240,
          "midi": 68,
          "name": "G#4",
          "ticks": 60000,
          "time": 53.571375,
          "velocity": 1
        },
        {
          "duration": 0.21428550000000257,
          "durationTicks": 240,
          "midi": 64,
          "name": "E4",
          "ticks": 60000,
          "time": 53.571375,
          "velocity": 1
        },
        {
          "duration": 0.21428550000000257,
          "durationTicks": 240,
          "midi": 59,
          "name": "B3",
          "ticks": 60000,
          "time": 53.571375,
          "velocity": 1
        },
        {
          "duration": 0.21428550000000257,
          "durationTicks": 240,
          "midi": 52,
          "name": "E3",
          "ticks": 60000,
          "time": 53.571375,
          "velocity": 1
        },
        {
          "duration": 0.21428550000000257,
          "durationTicks": 240,
          "midi": 40,
          "name": "E2",
          "ticks": 60000,
          "time": 53.571375,
          "velocity": 1
        },
        {
          "duration": 0.21428549999999547,
          "durationTicks": 240,
          "midi": 68,
          "name": "G#4",
          "ticks": 60240,
          "time": 53.785660500000006,
          "velocity": 1
        },
        {
          "duration": 0.21428549999999547,
          "durationTicks": 240,
          "midi": 64,
          "name": "E4",
          "ticks": 60240,
          "time": 53.785660500000006,
          "velocity": 1
        },
        {
          "duration": 0.21428549999999547,
          "durationTicks": 240,
          "midi": 59,
          "name": "B3",
          "ticks": 60240,
          "time": 53.785660500000006,
          "velocity": 1
        },
        {
          "duration": 0.21428549999999547,
          "durationTicks": 240,
          "midi": 52,
          "name": "E3",
          "ticks": 60240,
          "time": 53.785660500000006,
          "velocity": 1
        },
        {
          "duration": 0.21428549999999547,
          "durationTicks": 240,
          "midi": 40,
          "name": "E2",
          "ticks": 60240,
          "time": 53.785660500000006,
          "velocity": 1
        },
        {
          "duration": 0.42857100000000514,
          "durationTicks": 480,
          "midi": 68,
          "name": "G#4",
          "ticks": 60480,
          "time": 53.999946,
          "velocity": 1
        },
        {
          "duration": 0.42857100000000514,
          "durationTicks": 480,
          "midi": 64,
          "name": "E4",
          "ticks": 60480,
          "time": 53.999946,
          "velocity": 1
        },
        {
          "duration": 0.42857100000000514,
          "durationTicks": 480,
          "midi": 59,
          "name": "B3",
          "ticks": 60480,
          "time": 53.999946,
          "velocity": 1
        },
        {
          "duration": 0.42857100000000514,
          "durationTicks": 480,
          "midi": 52,
          "name": "E3",
          "ticks": 60480,
          "time": 53.999946,
          "velocity": 1
        },
        {
          "duration": 0.42857100000000514,
          "durationTicks": 480,
          "midi": 40,
          "name": "E2",
          "ticks": 60480,
          "time": 53.999946,
          "velocity": 1
        },
        {
          "duration": 1.7142839999999993,
          "durationTicks": 1920,
          "midi": 57,
          "name": "A3",
          "ticks": 61440,
          "time": 54.857088000000005,
          "velocity": 1
        },
        {
          "duration": 1.7142839999999993,
          "durationTicks": 1920,
          "midi": 52,
          "name": "E3",
          "ticks": 61440,
          "time": 54.857088000000005,
          "velocity": 1
        },
        {
          "duration": 1.7142839999999993,
          "durationTicks": 1920,
          "midi": 45,
          "name": "A2",
          "ticks": 61440,
          "time": 54.857088000000005,
          "velocity": 1
        },
        {
          "duration": 0.42857099999999804,
          "durationTicks": 480,
          "midi": 57,
          "name": "A3",
          "ticks": 63360,
          "time": 56.571372000000004,
          "velocity": 1
        },
        {
          "duration": 0.42857099999999804,
          "durationTicks": 480,
          "midi": 52,
          "name": "E3",
          "ticks": 63360,
          "time": 56.571372000000004,
          "velocity": 1
        },
        {
          "duration": 0.42857099999999804,
          "durationTicks": 480,
          "midi": 45,
          "name": "A2",
          "ticks": 63360,
          "time": 56.571372000000004,
          "velocity": 1
        },
        {
          "duration": 0.42857100000000514,
          "durationTicks": 480,
          "midi": 67,
          "name": "G4",
          "ticks": 63840,
          "time": 56.999943,
          "velocity": 1
        },
        {
          "duration": 0.42857100000000514,
          "durationTicks": 480,
          "midi": 62,
          "name": "D4",
          "ticks": 63840,
          "time": 56.999943,
          "velocity": 1
        },
        {
          "duration": 0.42857100000000514,
          "durationTicks": 480,
          "midi": 55,
          "name": "G3",
          "ticks": 63840,
          "time": 56.999943,
          "velocity": 1
        },
        {
          "duration": 0.42857100000000514,
          "durationTicks": 480,
          "midi": 50,
          "name": "D3",
          "ticks": 63840,
          "time": 56.999943,
          "velocity": 1
        },
        {
          "duration": 0.013392843750004602,
          "durationTicks": 15,
          "midi": 45,
          "name": "A2",
          "ticks": 63840,
          "time": 56.999943,
          "velocity": 1
        },
        {
          "duration": 0.42857100000000514,
          "durationTicks": 480,
          "midi": 43,
          "name": "G2",
          "ticks": 63840,
          "time": 56.999943,
          "velocity": 1
        },
        {
          "duration": 0.8571419999999961,
          "durationTicks": 960,
          "midi": 57,
          "name": "A3",
          "ticks": 64320,
          "time": 57.42851400000001,
          "velocity": 1
        },
        {
          "duration": 0.8571419999999961,
          "durationTicks": 960,
          "midi": 52,
          "name": "E3",
          "ticks": 64320,
          "time": 57.42851400000001,
          "velocity": 1
        },
        {
          "duration": 0.8571419999999961,
          "durationTicks": 960,
          "midi": 45,
          "name": "A2",
          "ticks": 64320,
          "time": 57.42851400000001,
          "velocity": 1
        },
        {
          "duration": 1.7142839999999993,
          "durationTicks": 1920,
          "midi": 68,
          "name": "G#4",
          "ticks": 65280,
          "time": 58.285656,
          "velocity": 1
        },
        {
          "duration": 1.7142839999999993,
          "durationTicks": 1920,
          "midi": 64,
          "name": "E4",
          "ticks": 65280,
          "time": 58.285656,
          "velocity": 1
        },
        {
          "duration": 1.7142839999999993,
          "durationTicks": 1920,
          "midi": 59,
          "name": "B3",
          "ticks": 65280,
          "time": 58.285656,
          "velocity": 1
        },
        {
          "duration": 1.7142839999999993,
          "durationTicks": 1920,
          "midi": 52,
          "name": "E3",
          "ticks": 65280,
          "time": 58.285656,
          "velocity": 1
        },
        {
          "duration": 1.7142839999999993,
          "durationTicks": 1920,
          "midi": 40,
          "name": "E2",
          "ticks": 65280,
          "time": 58.285656,
          "velocity": 1
        },
        {
          "duration": 0.42857100000000514,
          "durationTicks": 480,
          "midi": 68,
          "name": "G#4",
          "ticks": 67200,
          "time": 59.99994,
          "velocity": 1
        },
        {
          "duration": 0.42857100000000514,
          "durationTicks": 480,
          "midi": 64,
          "name": "E4",
          "ticks": 67200,
          "time": 59.99994,
          "velocity": 1
        },
        {
          "duration": 0.42857100000000514,
          "durationTicks": 480,
          "midi": 59,
          "name": "B3",
          "ticks": 67200,
          "time": 59.99994,
          "velocity": 1
        },
        {
          "duration": 0.42857100000000514,
          "durationTicks": 480,
          "midi": 52,
          "name": "E3",
          "ticks": 67200,
          "time": 59.99994,
          "velocity": 1
        },
        {
          "duration": 0.42857100000000514,
          "durationTicks": 480,
          "midi": 40,
          "name": "E2",
          "ticks": 67200,
          "time": 59.99994,
          "velocity": 1
        },
        {
          "duration": 0.42857099999999804,
          "durationTicks": 480,
          "midi": 66,
          "name": "F#4",
          "ticks": 67680,
          "time": 60.42851100000001,
          "velocity": 1
        },
        {
          "duration": 0.42857099999999804,
          "durationTicks": 480,
          "midi": 62,
          "name": "D4",
          "ticks": 67680,
          "time": 60.42851100000001,
          "velocity": 1
        },
        {
          "duration": 0.42857099999999804,
          "durationTicks": 480,
          "midi": 57,
          "name": "A3",
          "ticks": 67680,
          "time": 60.42851100000001,
          "velocity": 1
        },
        {
          "duration": 0.42857099999999804,
          "durationTicks": 480,
          "midi": 50,
          "name": "D3",
          "ticks": 67680,
          "time": 60.42851100000001,
          "velocity": 1
        },
        {
          "duration": 0.8571419999999961,
          "durationTicks": 960,
          "midi": 68,
          "name": "G#4",
          "ticks": 68160,
          "time": 60.857082000000005,
          "velocity": 1
        },
        {
          "duration": 0.8571419999999961,
          "durationTicks": 960,
          "midi": 64,
          "name": "E4",
          "ticks": 68160,
          "time": 60.857082000000005,
          "velocity": 1
        },
        {
          "duration": 0.8571419999999961,
          "durationTicks": 960,
          "midi": 59,
          "name": "B3",
          "ticks": 68160,
          "time": 60.857082000000005,
          "velocity": 1
        },
        {
          "duration": 0.8571419999999961,
          "durationTicks": 960,
          "midi": 52,
          "name": "E3",
          "ticks": 68160,
          "time": 60.857082000000005,
          "velocity": 1
        },
        {
          "duration": 0.8571419999999961,
          "durationTicks": 960,
          "midi": 40,
          "name": "E2",
          "ticks": 68160,
          "time": 60.857082000000005,
          "velocity": 1
        },
        {
          "duration": 1.7142840000000064,
          "durationTicks": 1920,
          "midi": 57,
          "name": "A3",
          "ticks": 69120,
          "time": 61.714224,
          "velocity": 1
        },
        {
          "duration": 1.7142840000000064,
          "durationTicks": 1920,
          "midi": 52,
          "name": "E3",
          "ticks": 69120,
          "time": 61.714224,
          "velocity": 1
        },
        {
          "duration": 1.7142840000000064,
          "durationTicks": 1920,
          "midi": 45,
          "name": "A2",
          "ticks": 69120,
          "time": 61.714224,
          "velocity": 1
        },
        {
          "duration": 0.42857099999999804,
          "durationTicks": 480,
          "midi": 57,
          "name": "A3",
          "ticks": 71040,
          "time": 63.42850800000001,
          "velocity": 1
        },
        {
          "duration": 0.42857099999999804,
          "durationTicks": 480,
          "midi": 52,
          "name": "E3",
          "ticks": 71040,
          "time": 63.42850800000001,
          "velocity": 1
        },
        {
          "duration": 0.42857099999999804,
          "durationTicks": 480,
          "midi": 45,
          "name": "A2",
          "ticks": 71040,
          "time": 63.42850800000001,
          "velocity": 1
        },
        {
          "duration": 0.42857099999999804,
          "durationTicks": 480,
          "midi": 67,
          "name": "G4",
          "ticks": 71520,
          "time": 63.857079000000006,
          "velocity": 1
        },
        {
          "duration": 0.42857099999999804,
          "durationTicks": 480,
          "midi": 62,
          "name": "D4",
          "ticks": 71520,
          "time": 63.857079000000006,
          "velocity": 1
        },
        {
          "duration": 0.42857099999999804,
          "durationTicks": 480,
          "midi": 55,
          "name": "G3",
          "ticks": 71520,
          "time": 63.857079000000006,
          "velocity": 1
        },
        {
          "duration": 0.42857099999999804,
          "durationTicks": 480,
          "midi": 50,
          "name": "D3",
          "ticks": 71520,
          "time": 63.857079000000006,
          "velocity": 1
        },
        {
          "duration": 0.42857099999999804,
          "durationTicks": 480,
          "midi": 43,
          "name": "G2",
          "ticks": 71520,
          "time": 63.857079000000006,
          "velocity": 1
        },
        {
          "duration": 0.8571419999999961,
          "durationTicks": 960,
          "midi": 57,
          "name": "A3",
          "ticks": 72000,
          "time": 64.28565,
          "velocity": 1
        },
        {
          "duration": 0.8571419999999961,
          "durationTicks": 960,
          "midi": 52,
          "name": "E3",
          "ticks": 72000,
          "time": 64.28565,
          "velocity": 1
        },
        {
          "duration": 0.8571419999999961,
          "durationTicks": 960,
          "midi": 45,
          "name": "A2",
          "ticks": 72000,
          "time": 64.28565,
          "velocity": 1
        },
        {
          "duration": 3.4285679999999985,
          "durationTicks": 3840,
          "midi": 68,
          "name": "G#4",
          "ticks": 72960,
          "time": 65.142792,
          "velocity": 1
        },
        {
          "duration": 3.4285679999999985,
          "durationTicks": 3840,
          "midi": 64,
          "name": "E4",
          "ticks": 72960,
          "time": 65.142792,
          "velocity": 1
        },
        {
          "duration": 3.4285679999999985,
          "durationTicks": 3840,
          "midi": 59,
          "name": "B3",
          "ticks": 72960,
          "time": 65.142792,
          "velocity": 1
        },
        {
          "duration": 3.4285679999999985,
          "durationTicks": 3840,
          "midi": 52,
          "name": "E3",
          "ticks": 72960,
          "time": 65.142792,
          "velocity": 1
        },
        {
          "duration": 3.4285679999999985,
          "durationTicks": 3840,
          "midi": 40,
          "name": "E2",
          "ticks": 72960,
          "time": 65.142792,
          "velocity": 1
        },
        {
          "duration": 2.785711500000005,
          "durationTicks": 3120,
          "midi": 68,
          "name": "G#4",
          "ticks": 76800,
          "time": 68.57136,
          "velocity": 1
        },
        {
          "duration": 2.785711500000005,
          "durationTicks": 3120,
          "midi": 64,
          "name": "E4",
          "ticks": 76800,
          "time": 68.57136,
          "velocity": 1
        },
        {
          "duration": 2.785711500000005,
          "durationTicks": 3120,
          "midi": 59,
          "name": "B3",
          "ticks": 76800,
          "time": 68.57136,
          "velocity": 1
        },
        {
          "duration": 2.785711500000005,
          "durationTicks": 3120,
          "midi": 52,
          "name": "E3",
          "ticks": 76800,
          "time": 68.57136,
          "velocity": 1
        },
        {
          "duration": 2.785711500000005,
          "durationTicks": 3120,
          "midi": 40,
          "name": "E2",
          "ticks": 76800,
          "time": 68.57136,
          "velocity": 1
        },
        {
          "duration": 0.21428550000000257,
          "durationTicks": 240,
          "midi": 66,
          "name": "F#4",
          "ticks": 79920,
          "time": 71.3570715,
          "velocity": 1
        },
        {
          "duration": 0.21428550000000257,
          "durationTicks": 240,
          "midi": 62,
          "name": "D4",
          "ticks": 79920,
          "time": 71.3570715,
          "velocity": 1
        },
        {
          "duration": 0.21428550000000257,
          "durationTicks": 240,
          "midi": 57,
          "name": "A3",
          "ticks": 79920,
          "time": 71.3570715,
          "velocity": 1
        },
        {
          "duration": 0.21428550000000257,
          "durationTicks": 240,
          "midi": 50,
          "name": "D3",
          "ticks": 79920,
          "time": 71.3570715,
          "velocity": 1
        },
        {
          "duration": 6.428564999999992,
          "durationTicks": 7200,
          "midi": 68,
          "name": "G#4",
          "ticks": 80400,
          "time": 71.78564250000001,
          "velocity": 1
        },
        {
          "duration": 6.428564999999992,
          "durationTicks": 7200,
          "midi": 64,
          "name": "E4",
          "ticks": 80400,
          "time": 71.78564250000001,
          "velocity": 1
        },
        {
          "duration": 6.428564999999992,
          "durationTicks": 7200,
          "midi": 59,
          "name": "B3",
          "ticks": 80400,
          "time": 71.78564250000001,
          "velocity": 1
        },
        {
          "duration": 6.428564999999992,
          "durationTicks": 7200,
          "midi": 52,
          "name": "E3",
          "ticks": 80400,
          "time": 71.78564250000001,
          "velocity": 1
        },
        {
          "duration": 0.21428550000000257,
          "durationTicks": 240,
          "midi": 66,
          "name": "F#4",
          "ticks": 87600,
          "time": 78.2142075,
          "velocity": 1
        },
        {
          "duration": 0.21428550000000257,
          "durationTicks": 240,
          "midi": 62,
          "name": "D4",
          "ticks": 87600,
          "time": 78.2142075,
          "velocity": 1
        },
        {
          "duration": 0.21428550000000257,
          "durationTicks": 240,
          "midi": 57,
          "name": "A3",
          "ticks": 87600,
          "time": 78.2142075,
          "velocity": 1
        },
        {
          "duration": 0.21428550000000257,
          "durationTicks": 240,
          "midi": 50,
          "name": "D3",
          "ticks": 87600,
          "time": 78.2142075,
          "velocity": 1
        },
        {
          "duration": 6.428565000000006,
          "durationTicks": 7200,
          "midi": 68,
          "name": "G#4",
          "ticks": 88080,
          "time": 78.6427785,
          "velocity": 1
        },
        {
          "duration": 6.428565000000006,
          "durationTicks": 7200,
          "midi": 64,
          "name": "E4",
          "ticks": 88080,
          "time": 78.6427785,
          "velocity": 1
        },
        {
          "duration": 6.428565000000006,
          "durationTicks": 7200,
          "midi": 59,
          "name": "B3",
          "ticks": 88080,
          "time": 78.6427785,
          "velocity": 1
        },
        {
          "duration": 6.428565000000006,
          "durationTicks": 7200,
          "midi": 52,
          "name": "E3",
          "ticks": 88080,
          "time": 78.6427785,
          "velocity": 1
        },
        {
          "duration": 0.21428549999998836,
          "durationTicks": 240,
          "midi": 66,
          "name": "F#4",
          "ticks": 95280,
          "time": 85.07134350000001,
          "velocity": 1
        },
        {
          "duration": 0.21428549999998836,
          "durationTicks": 240,
          "midi": 62,
          "name": "D4",
          "ticks": 95280,
          "time": 85.07134350000001,
          "velocity": 1
        },
        {
          "duration": 0.21428549999998836,
          "durationTicks": 240,
          "midi": 57,
          "name": "A3",
          "ticks": 95280,
          "time": 85.07134350000001,
          "velocity": 1
        },
        {
          "duration": 0.21428549999998836,
          "durationTicks": 240,
          "midi": 50,
          "name": "D3",
          "ticks": 95280,
          "time": 85.07134350000001,
          "velocity": 1
        },
        {
          "duration": 6.428565000000006,
          "durationTicks": 7200,
          "midi": 68,
          "name": "G#4",
          "ticks": 95760,
          "time": 85.4999145,
          "velocity": 1
        },
        {
          "duration": 6.428565000000006,
          "durationTicks": 7200,
          "midi": 64,
          "name": "E4",
          "ticks": 95760,
          "time": 85.4999145,
          "velocity": 1
        },
        {
          "duration": 6.428565000000006,
          "durationTicks": 7200,
          "midi": 59,
          "name": "B3",
          "ticks": 95760,
          "time": 85.4999145,
          "velocity": 1
        },
        {
          "duration": 6.428565000000006,
          "durationTicks": 7200,
          "midi": 52,
          "name": "E3",
          "ticks": 95760,
          "time": 85.4999145,
          "velocity": 1
        },
        {
          "duration": 0.21428550000000257,
          "durationTicks": 240,
          "midi": 66,
          "name": "F#4",
          "ticks": 102960,
          "time": 91.92847950000001,
          "velocity": 1
        },
        {
          "duration": 0.21428550000000257,
          "durationTicks": 240,
          "midi": 62,
          "name": "D4",
          "ticks": 102960,
          "time": 91.92847950000001,
          "velocity": 1
        },
        {
          "duration": 0.21428550000000257,
          "durationTicks": 240,
          "midi": 57,
          "name": "A3",
          "ticks": 102960,
          "time": 91.92847950000001,
          "velocity": 1
        },
        {
          "duration": 0.21428550000000257,
          "durationTicks": 240,
          "midi": 50,
          "name": "D3",
          "ticks": 102960,
          "time": 91.92847950000001,
          "velocity": 1
        },
        {
          "duration": 0.21428549999998836,
          "durationTicks": 240,
          "midi": 68,
          "name": "G#4",
          "ticks": 103440,
          "time": 92.35705050000001,
          "velocity": 1
        },
        {
          "duration": 0.21428549999998836,
          "durationTicks": 240,
          "midi": 64,
          "name": "E4",
          "ticks": 103440,
          "time": 92.35705050000001,
          "velocity": 1
        },
        {
          "duration": 0.21428549999998836,
          "durationTicks": 240,
          "midi": 59,
          "name": "B3",
          "ticks": 103440,
          "time": 92.35705050000001,
          "velocity": 1
        },
        {
          "duration": 0.21428549999998836,
          "durationTicks": 240,
          "midi": 52,
          "name": "E3",
          "ticks": 103440,
          "time": 92.35705050000001,
          "velocity": 1
        },
        {
          "duration": 1.0714274999999986,
          "durationTicks": 1200,
          "midi": 68,
          "name": "G#4",
          "ticks": 103680,
          "time": 92.571336,
          "velocity": 1
        },
        {
          "duration": 1.0714274999999986,
          "durationTicks": 1200,
          "midi": 64,
          "name": "E4",
          "ticks": 103680,
          "time": 92.571336,
          "velocity": 1
        },
        {
          "duration": 1.0714274999999986,
          "durationTicks": 1200,
          "midi": 59,
          "name": "B3",
          "ticks": 103680,
          "time": 92.571336,
          "velocity": 1
        },
        {
          "duration": 1.0714274999999986,
          "durationTicks": 1200,
          "midi": 52,
          "name": "E3",
          "ticks": 103680,
          "time": 92.571336,
          "velocity": 1
        },
        {
          "duration": 1.0714274999999986,
          "durationTicks": 1200,
          "midi": 40,
          "name": "E2",
          "ticks": 103680,
          "time": 92.571336,
          "velocity": 1
        },
        {
          "duration": 0.21428550000000257,
          "durationTicks": 240,
          "midi": 66,
          "name": "F#4",
          "ticks": 104880,
          "time": 93.6427635,
          "velocity": 1
        },
        {
          "duration": 0.21428550000000257,
          "durationTicks": 240,
          "midi": 62,
          "name": "D4",
          "ticks": 104880,
          "time": 93.6427635,
          "velocity": 1
        },
        {
          "duration": 0.21428550000000257,
          "durationTicks": 240,
          "midi": 57,
          "name": "A3",
          "ticks": 104880,
          "time": 93.6427635,
          "velocity": 1
        },
        {
          "duration": 0.21428550000000257,
          "durationTicks": 240,
          "midi": 50,
          "name": "D3",
          "ticks": 104880,
          "time": 93.6427635,
          "velocity": 1
        },
        {
          "duration": 0.21428550000000257,
          "durationTicks": 240,
          "midi": 68,
          "name": "G#4",
          "ticks": 105360,
          "time": 94.0713345,
          "velocity": 1
        },
        {
          "duration": 0.21428550000000257,
          "durationTicks": 240,
          "midi": 64,
          "name": "E4",
          "ticks": 105360,
          "time": 94.0713345,
          "velocity": 1
        },
        {
          "duration": 0.21428550000000257,
          "durationTicks": 240,
          "midi": 59,
          "name": "B3",
          "ticks": 105360,
          "time": 94.0713345,
          "velocity": 1
        },
        {
          "duration": 0.21428550000000257,
          "durationTicks": 240,
          "midi": 52,
          "name": "E3",
          "ticks": 105360,
          "time": 94.0713345,
          "velocity": 1
        },
        {
          "duration": 1.0714274999999986,
          "durationTicks": 1200,
          "midi": 68,
          "name": "G#4",
          "ticks": 105600,
          "time": 94.28562000000001,
          "velocity": 1
        },
        {
          "duration": 1.0714274999999986,
          "durationTicks": 1200,
          "midi": 64,
          "name": "E4",
          "ticks": 105600,
          "time": 94.28562000000001,
          "velocity": 1
        },
        {
          "duration": 1.0714274999999986,
          "durationTicks": 1200,
          "midi": 59,
          "name": "B3",
          "ticks": 105600,
          "time": 94.28562000000001,
          "velocity": 1
        },
        {
          "duration": 1.0714274999999986,
          "durationTicks": 1200,
          "midi": 52,
          "name": "E3",
          "ticks": 105600,
          "time": 94.28562000000001,
          "velocity": 1
        },
        {
          "duration": 1.0714274999999986,
          "durationTicks": 1200,
          "midi": 40,
          "name": "E2",
          "ticks": 105600,
          "time": 94.28562000000001,
          "velocity": 1
        },
        {
          "duration": 0.21428550000000257,
          "durationTicks": 240,
          "midi": 66,
          "name": "F#4",
          "ticks": 106800,
          "time": 95.35704750000001,
          "velocity": 1
        },
        {
          "duration": 0.21428550000000257,
          "durationTicks": 240,
          "midi": 62,
          "name": "D4",
          "ticks": 106800,
          "time": 95.35704750000001,
          "velocity": 1
        },
        {
          "duration": 0.21428550000000257,
          "durationTicks": 240,
          "midi": 57,
          "name": "A3",
          "ticks": 106800,
          "time": 95.35704750000001,
          "velocity": 1
        },
        {
          "duration": 0.21428550000000257,
          "durationTicks": 240,
          "midi": 50,
          "name": "D3",
          "ticks": 106800,
          "time": 95.35704750000001,
          "velocity": 1
        },
        {
          "duration": 0.21428550000000257,
          "durationTicks": 240,
          "midi": 68,
          "name": "G#4",
          "ticks": 107280,
          "time": 95.78561850000001,
          "velocity": 1
        },
        {
          "duration": 0.21428550000000257,
          "durationTicks": 240,
          "midi": 64,
          "name": "E4",
          "ticks": 107280,
          "time": 95.78561850000001,
          "velocity": 1
        },
        {
          "duration": 0.21428550000000257,
          "durationTicks": 240,
          "midi": 59,
          "name": "B3",
          "ticks": 107280,
          "time": 95.78561850000001,
          "velocity": 1
        },
        {
          "duration": 0.21428550000000257,
          "durationTicks": 240,
          "midi": 52,
          "name": "E3",
          "ticks": 107280,
          "time": 95.78561850000001,
          "velocity": 1
        },
        {
          "duration": 1.0714274999999986,
          "durationTicks": 1200,
          "midi": 68,
          "name": "G#4",
          "ticks": 107520,
          "time": 95.99990400000002,
          "velocity": 1
        },
        {
          "duration": 1.0714274999999986,
          "durationTicks": 1200,
          "midi": 64,
          "name": "E4",
          "ticks": 107520,
          "time": 95.99990400000002,
          "velocity": 1
        },
        {
          "duration": 1.0714274999999986,
          "durationTicks": 1200,
          "midi": 59,
          "name": "B3",
          "ticks": 107520,
          "time": 95.99990400000002,
          "velocity": 1
        },
        {
          "duration": 1.0714274999999986,
          "durationTicks": 1200,
          "midi": 52,
          "name": "E3",
          "ticks": 107520,
          "time": 95.99990400000002,
          "velocity": 1
        },
        {
          "duration": 1.0714274999999986,
          "durationTicks": 1200,
          "midi": 40,
          "name": "E2",
          "ticks": 107520,
          "time": 95.99990400000002,
          "velocity": 1
        },
        {
          "duration": 0.21428549999998836,
          "durationTicks": 240,
          "midi": 66,
          "name": "F#4",
          "ticks": 108720,
          "time": 97.07133150000001,
          "velocity": 1
        },
        {
          "duration": 0.21428549999998836,
          "durationTicks": 240,
          "midi": 62,
          "name": "D4",
          "ticks": 108720,
          "time": 97.07133150000001,
          "velocity": 1
        },
        {
          "duration": 0.21428549999998836,
          "durationTicks": 240,
          "midi": 57,
          "name": "A3",
          "ticks": 108720,
          "time": 97.07133150000001,
          "velocity": 1
        },
        {
          "duration": 0.21428549999998836,
          "durationTicks": 240,
          "midi": 50,
          "name": "D3",
          "ticks": 108720,
          "time": 97.07133150000001,
          "velocity": 1
        },
        {
          "duration": 0.21428550000000257,
          "durationTicks": 240,
          "midi": 68,
          "name": "G#4",
          "ticks": 109200,
          "time": 97.4999025,
          "velocity": 1
        },
        {
          "duration": 0.21428550000000257,
          "durationTicks": 240,
          "midi": 64,
          "name": "E4",
          "ticks": 109200,
          "time": 97.4999025,
          "velocity": 1
        },
        {
          "duration": 0.21428550000000257,
          "durationTicks": 240,
          "midi": 59,
          "name": "B3",
          "ticks": 109200,
          "time": 97.4999025,
          "velocity": 1
        },
        {
          "duration": 0.21428550000000257,
          "durationTicks": 240,
          "midi": 52,
          "name": "E3",
          "ticks": 109200,
          "time": 97.4999025,
          "velocity": 1
        },
        {
          "duration": 0.21428550000000257,
          "durationTicks": 240,
          "midi": 68,
          "name": "G#4",
          "ticks": 109440,
          "time": 97.71418800000001,
          "velocity": 1
        },
        {
          "duration": 0.21428550000000257,
          "durationTicks": 240,
          "midi": 64,
          "name": "E4",
          "ticks": 109440,
          "time": 97.71418800000001,
          "velocity": 1
        },
        {
          "duration": 0.21428550000000257,
          "durationTicks": 240,
          "midi": 59,
          "name": "B3",
          "ticks": 109440,
          "time": 97.71418800000001,
          "velocity": 1
        },
        {
          "duration": 0.21428550000000257,
          "durationTicks": 240,
          "midi": 52,
          "name": "E3",
          "ticks": 109440,
          "time": 97.71418800000001,
          "velocity": 1
        },
        {
          "duration": 0.21428550000000257,
          "durationTicks": 240,
          "midi": 40,
          "name": "E2",
          "ticks": 109440,
          "time": 97.71418800000001,
          "velocity": 1
        },
        {
          "duration": 0.21428550000000257,
          "durationTicks": 240,
          "midi": 68,
          "name": "G#4",
          "ticks": 109680,
          "time": 97.92847350000001,
          "velocity": 1
        },
        {
          "duration": 0.21428550000000257,
          "durationTicks": 240,
          "midi": 64,
          "name": "E4",
          "ticks": 109680,
          "time": 97.92847350000001,
          "velocity": 1
        },
        {
          "duration": 0.21428550000000257,
          "durationTicks": 240,
          "midi": 59,
          "name": "B3",
          "ticks": 109680,
          "time": 97.92847350000001,
          "velocity": 1
        },
        {
          "duration": 0.21428550000000257,
          "durationTicks": 240,
          "midi": 52,
          "name": "E3",
          "ticks": 109680,
          "time": 97.92847350000001,
          "velocity": 1
        },
        {
          "duration": 0.21428550000000257,
          "durationTicks": 240,
          "midi": 40,
          "name": "E2",
          "ticks": 109680,
          "time": 97.92847350000001,
          "velocity": 1
        },
        {
          "duration": 0.21428550000000257,
          "durationTicks": 240,
          "midi": 68,
          "name": "G#4",
          "ticks": 109920,
          "time": 98.14275900000001,
          "velocity": 1
        },
        {
          "duration": 0.21428550000000257,
          "durationTicks": 240,
          "midi": 64,
          "name": "E4",
          "ticks": 109920,
          "time": 98.14275900000001,
          "velocity": 1
        },
        {
          "duration": 0.21428550000000257,
          "durationTicks": 240,
          "midi": 59,
          "name": "B3",
          "ticks": 109920,
          "time": 98.14275900000001,
          "velocity": 1
        },
        {
          "duration": 0.21428550000000257,
          "durationTicks": 240,
          "midi": 52,
          "name": "E3",
          "ticks": 109920,
          "time": 98.14275900000001,
          "velocity": 1
        },
        {
          "duration": 0.21428550000000257,
          "durationTicks": 240,
          "midi": 40,
          "name": "E2",
          "ticks": 109920,
          "time": 98.14275900000001,
          "velocity": 1
        },
        {
          "duration": 0.21428549999998836,
          "durationTicks": 240,
          "midi": 68,
          "name": "G#4",
          "ticks": 110160,
          "time": 98.35704450000001,
          "velocity": 1
        },
        {
          "duration": 0.21428549999998836,
          "durationTicks": 240,
          "midi": 64,
          "name": "E4",
          "ticks": 110160,
          "time": 98.35704450000001,
          "velocity": 1
        },
        {
          "duration": 0.21428549999998836,
          "durationTicks": 240,
          "midi": 59,
          "name": "B3",
          "ticks": 110160,
          "time": 98.35704450000001,
          "velocity": 1
        },
        {
          "duration": 0.21428549999998836,
          "durationTicks": 240,
          "midi": 52,
          "name": "E3",
          "ticks": 110160,
          "time": 98.35704450000001,
          "velocity": 1
        },
        {
          "duration": 0.21428549999998836,
          "durationTicks": 240,
          "midi": 40,
          "name": "E2",
          "ticks": 110160,
          "time": 98.35704450000001,
          "velocity": 1
        },
        {
          "duration": 0.42857100000000514,
          "durationTicks": 480,
          "midi": 68,
          "name": "G#4",
          "ticks": 110400,
          "time": 98.57133,
          "velocity": 1
        },
        {
          "duration": 0.42857100000000514,
          "durationTicks": 480,
          "midi": 64,
          "name": "E4",
          "ticks": 110400,
          "time": 98.57133,
          "velocity": 1
        },
        {
          "duration": 0.42857100000000514,
          "durationTicks": 480,
          "midi": 59,
          "name": "B3",
          "ticks": 110400,
          "time": 98.57133,
          "velocity": 1
        },
        {
          "duration": 0.42857100000000514,
          "durationTicks": 480,
          "midi": 52,
          "name": "E3",
          "ticks": 110400,
          "time": 98.57133,
          "velocity": 1
        },
        {
          "duration": 0.42857100000000514,
          "durationTicks": 480,
          "midi": 40,
          "name": "E2",
          "ticks": 110400,
          "time": 98.57133,
          "velocity": 1
        },
        {
          "duration": 1.7142839999999921,
          "durationTicks": 1920,
          "midi": 57,
          "name": "A3",
          "ticks": 111360,
          "time": 99.42847200000001,
          "velocity": 1
        },
        {
          "duration": 1.7142839999999921,
          "durationTicks": 1920,
          "midi": 52,
          "name": "E3",
          "ticks": 111360,
          "time": 99.42847200000001,
          "velocity": 1
        },
        {
          "duration": 1.7142839999999921,
          "durationTicks": 1920,
          "midi": 45,
          "name": "A2",
          "ticks": 111360,
          "time": 99.42847200000001,
          "velocity": 1
        },
        {
          "duration": 0.42857100000000514,
          "durationTicks": 480,
          "midi": 57,
          "name": "A3",
          "ticks": 113280,
          "time": 101.142756,
          "velocity": 1
        },
        {
          "duration": 0.42857100000000514,
          "durationTicks": 480,
          "midi": 52,
          "name": "E3",
          "ticks": 113280,
          "time": 101.142756,
          "velocity": 1
        },
        {
          "duration": 0.42857100000000514,
          "durationTicks": 480,
          "midi": 45,
          "name": "A2",
          "ticks": 113280,
          "time": 101.142756,
          "velocity": 1
        },
        {
          "duration": 0.42857099999999093,
          "durationTicks": 480,
          "midi": 67,
          "name": "G4",
          "ticks": 113760,
          "time": 101.57132700000001,
          "velocity": 1
        },
        {
          "duration": 0.42857099999999093,
          "durationTicks": 480,
          "midi": 62,
          "name": "D4",
          "ticks": 113760,
          "time": 101.57132700000001,
          "velocity": 1
        },
        {
          "duration": 0.42857099999999093,
          "durationTicks": 480,
          "midi": 55,
          "name": "G3",
          "ticks": 113760,
          "time": 101.57132700000001,
          "velocity": 1
        },
        {
          "duration": 0.42857099999999093,
          "durationTicks": 480,
          "midi": 50,
          "name": "D3",
          "ticks": 113760,
          "time": 101.57132700000001,
          "velocity": 1
        },
        {
          "duration": 0.013392843749997496,
          "durationTicks": 15,
          "midi": 45,
          "name": "A2",
          "ticks": 113760,
          "time": 101.57132700000001,
          "velocity": 1
        },
        {
          "duration": 0.42857099999999093,
          "durationTicks": 480,
          "midi": 43,
          "name": "G2",
          "ticks": 113760,
          "time": 101.57132700000001,
          "velocity": 1
        },
        {
          "duration": 0.8571420000000103,
          "durationTicks": 960,
          "midi": 57,
          "name": "A3",
          "ticks": 114240,
          "time": 101.999898,
          "velocity": 1
        },
        {
          "duration": 0.8571420000000103,
          "durationTicks": 960,
          "midi": 52,
          "name": "E3",
          "ticks": 114240,
          "time": 101.999898,
          "velocity": 1
        },
        {
          "duration": 0.8571420000000103,
          "durationTicks": 960,
          "midi": 45,
          "name": "A2",
          "ticks": 114240,
          "time": 101.999898,
          "velocity": 1
        },
        {
          "duration": 1.7142839999999921,
          "durationTicks": 1920,
          "midi": 68,
          "name": "G#4",
          "ticks": 115200,
          "time": 102.85704000000001,
          "velocity": 1
        },
        {
          "duration": 1.7142839999999921,
          "durationTicks": 1920,
          "midi": 64,
          "name": "E4",
          "ticks": 115200,
          "time": 102.85704000000001,
          "velocity": 1
        },
        {
          "duration": 1.7142839999999921,
          "durationTicks": 1920,
          "midi": 59,
          "name": "B3",
          "ticks": 115200,
          "time": 102.85704000000001,
          "velocity": 1
        },
        {
          "duration": 1.7142839999999921,
          "durationTicks": 1920,
          "midi": 52,
          "name": "E3",
          "ticks": 115200,
          "time": 102.85704000000001,
          "velocity": 1
        },
        {
          "duration": 1.7142839999999921,
          "durationTicks": 1920,
          "midi": 40,
          "name": "E2",
          "ticks": 115200,
          "time": 102.85704000000001,
          "velocity": 1
        },
        {
          "duration": 0.42857100000000514,
          "durationTicks": 480,
          "midi": 68,
          "name": "G#4",
          "ticks": 117120,
          "time": 104.571324,
          "velocity": 1
        },
        {
          "duration": 0.42857100000000514,
          "durationTicks": 480,
          "midi": 64,
          "name": "E4",
          "ticks": 117120,
          "time": 104.571324,
          "velocity": 1
        },
        {
          "duration": 0.42857100000000514,
          "durationTicks": 480,
          "midi": 59,
          "name": "B3",
          "ticks": 117120,
          "time": 104.571324,
          "velocity": 1
        },
        {
          "duration": 0.42857100000000514,
          "durationTicks": 480,
          "midi": 52,
          "name": "E3",
          "ticks": 117120,
          "time": 104.571324,
          "velocity": 1
        },
        {
          "duration": 0.42857100000000514,
          "durationTicks": 480,
          "midi": 40,
          "name": "E2",
          "ticks": 117120,
          "time": 104.571324,
          "velocity": 1
        },
        {
          "duration": 0.42857100000000514,
          "durationTicks": 480,
          "midi": 66,
          "name": "F#4",
          "ticks": 117600,
          "time": 104.99989500000001,
          "velocity": 1
        },
        {
          "duration": 0.42857100000000514,
          "durationTicks": 480,
          "midi": 62,
          "name": "D4",
          "ticks": 117600,
          "time": 104.99989500000001,
          "velocity": 1
        },
        {
          "duration": 0.42857100000000514,
          "durationTicks": 480,
          "midi": 57,
          "name": "A3",
          "ticks": 117600,
          "time": 104.99989500000001,
          "velocity": 1
        },
        {
          "duration": 0.42857100000000514,
          "durationTicks": 480,
          "midi": 50,
          "name": "D3",
          "ticks": 117600,
          "time": 104.99989500000001,
          "velocity": 1
        },
        {
          "duration": 0.8571419999999961,
          "durationTicks": 960,
          "midi": 68,
          "name": "G#4",
          "ticks": 118080,
          "time": 105.42846600000001,
          "velocity": 1
        },
        {
          "duration": 0.8571419999999961,
          "durationTicks": 960,
          "midi": 64,
          "name": "E4",
          "ticks": 118080,
          "time": 105.42846600000001,
          "velocity": 1
        },
        {
          "duration": 0.8571419999999961,
          "durationTicks": 960,
          "midi": 59,
          "name": "B3",
          "ticks": 118080,
          "time": 105.42846600000001,
          "velocity": 1
        },
        {
          "duration": 0.8571419999999961,
          "durationTicks": 960,
          "midi": 52,
          "name": "E3",
          "ticks": 118080,
          "time": 105.42846600000001,
          "velocity": 1
        },
        {
          "duration": 0.8571419999999961,
          "durationTicks": 960,
          "midi": 40,
          "name": "E2",
          "ticks": 118080,
          "time": 105.42846600000001,
          "velocity": 1
        },
        {
          "duration": 1.7142839999999921,
          "durationTicks": 1920,
          "midi": 57,
          "name": "A3",
          "ticks": 119040,
          "time": 106.28560800000001,
          "velocity": 1
        },
        {
          "duration": 1.7142839999999921,
          "durationTicks": 1920,
          "midi": 52,
          "name": "E3",
          "ticks": 119040,
          "time": 106.28560800000001,
          "velocity": 1
        },
        {
          "duration": 1.7142839999999921,
          "durationTicks": 1920,
          "midi": 45,
          "name": "A2",
          "ticks": 119040,
          "time": 106.28560800000001,
          "velocity": 1
        },
        {
          "duration": 0.42857100000000514,
          "durationTicks": 480,
          "midi": 57,
          "name": "A3",
          "ticks": 120960,
          "time": 107.999892,
          "velocity": 1
        },
        {
          "duration": 0.42857100000000514,
          "durationTicks": 480,
          "midi": 52,
          "name": "E3",
          "ticks": 120960,
          "time": 107.999892,
          "velocity": 1
        },
        {
          "duration": 0.42857100000000514,
          "durationTicks": 480,
          "midi": 45,
          "name": "A2",
          "ticks": 120960,
          "time": 107.999892,
          "velocity": 1
        },
        {
          "duration": 0.42857100000000514,
          "durationTicks": 480,
          "midi": 67,
          "name": "G4",
          "ticks": 121440,
          "time": 108.42846300000001,
          "velocity": 1
        },
        {
          "duration": 0.42857100000000514,
          "durationTicks": 480,
          "midi": 62,
          "name": "D4",
          "ticks": 121440,
          "time": 108.42846300000001,
          "velocity": 1
        },
        {
          "duration": 0.42857100000000514,
          "durationTicks": 480,
          "midi": 55,
          "name": "G3",
          "ticks": 121440,
          "time": 108.42846300000001,
          "velocity": 1
        },
        {
          "duration": 0.42857100000000514,
          "durationTicks": 480,
          "midi": 50,
          "name": "D3",
          "ticks": 121440,
          "time": 108.42846300000001,
          "velocity": 1
        },
        {
          "duration": 0.42857100000000514,
          "durationTicks": 480,
          "midi": 43,
          "name": "G2",
          "ticks": 121440,
          "time": 108.42846300000001,
          "velocity": 1
        },
        {
          "duration": 0.8571419999999961,
          "durationTicks": 960,
          "midi": 57,
          "name": "A3",
          "ticks": 121920,
          "time": 108.85703400000001,
          "velocity": 1
        },
        {
          "duration": 0.8571419999999961,
          "durationTicks": 960,
          "midi": 52,
          "name": "E3",
          "ticks": 121920,
          "time": 108.85703400000001,
          "velocity": 1
        },
        {
          "duration": 0.8571419999999961,
          "durationTicks": 960,
          "midi": 45,
          "name": "A2",
          "ticks": 121920,
          "time": 108.85703400000001,
          "velocity": 1
        },
        {
          "duration": 3.4285679999999985,
          "durationTicks": 3840,
          "midi": 68,
          "name": "G#4",
          "ticks": 122880,
          "time": 109.71417600000001,
          "velocity": 1
        },
        {
          "duration": 3.4285679999999985,
          "durationTicks": 3840,
          "midi": 64,
          "name": "E4",
          "ticks": 122880,
          "time": 109.71417600000001,
          "velocity": 1
        },
        {
          "duration": 3.4285679999999985,
          "durationTicks": 3840,
          "midi": 59,
          "name": "B3",
          "ticks": 122880,
          "time": 109.71417600000001,
          "velocity": 1
        },
        {
          "duration": 3.4285679999999985,
          "durationTicks": 3840,
          "midi": 52,
          "name": "E3",
          "ticks": 122880,
          "time": 109.71417600000001,
          "velocity": 1
        },
        {
          "duration": 3.4285679999999985,
          "durationTicks": 3840,
          "midi": 40,
          "name": "E2",
          "ticks": 122880,
          "time": 109.71417600000001,
          "velocity": 1
        },
        {
          "duration": 2.3571405,
          "durationTicks": 2640,
          "midi": 63,
          "name": "D#4",
          "ticks": 126720,
          "time": 113.14274400000001,
          "velocity": 1
        },
        {
          "duration": 2.3571405,
          "durationTicks": 2640,
          "midi": 59,
          "name": "B3",
          "ticks": 126720,
          "time": 113.14274400000001,
          "velocity": 1
        },
        {
          "duration": 2.3571405,
          "durationTicks": 2640,
          "midi": 54,
          "name": "F#3",
          "ticks": 126720,
          "time": 113.14274400000001,
          "velocity": 1
        },
        {
          "duration": 2.3571405,
          "durationTicks": 2640,
          "midi": 47,
          "name": "B2",
          "ticks": 126720,
          "time": 113.14274400000001,
          "velocity": 1
        },
        {
          "duration": 0.42857100000000514,
          "durationTicks": 480,
          "midi": 61,
          "name": "C#4",
          "ticks": 129360,
          "time": 115.49988450000001,
          "velocity": 1
        },
        {
          "duration": 0.42857100000000514,
          "durationTicks": 480,
          "midi": 57,
          "name": "A3",
          "ticks": 129360,
          "time": 115.49988450000001,
          "velocity": 1
        },
        {
          "duration": 0.42857100000000514,
          "durationTicks": 480,
          "midi": 52,
          "name": "E3",
          "ticks": 129360,
          "time": 115.49988450000001,
          "velocity": 1
        },
        {
          "duration": 0.42857100000000514,
          "durationTicks": 480,
          "midi": 45,
          "name": "A2",
          "ticks": 129360,
          "time": 115.49988450000001,
          "velocity": 1
        },
        {
          "duration": 0.42857099999999093,
          "durationTicks": 480,
          "midi": 61,
          "name": "C#4",
          "ticks": 129840,
          "time": 115.92845550000001,
          "velocity": 1
        },
        {
          "duration": 0.42857099999999093,
          "durationTicks": 480,
          "midi": 57,
          "name": "A3",
          "ticks": 129840,
          "time": 115.92845550000001,
          "velocity": 1
        },
        {
          "duration": 0.42857099999999093,
          "durationTicks": 480,
          "midi": 52,
          "name": "E3",
          "ticks": 129840,
          "time": 115.92845550000001,
          "velocity": 1
        },
        {
          "duration": 0.42857099999999093,
          "durationTicks": 480,
          "midi": 45,
          "name": "A2",
          "ticks": 129840,
          "time": 115.92845550000001,
          "velocity": 1
        },
        {
          "duration": 0.21428550000000257,
          "durationTicks": 240,
          "midi": 61,
          "name": "C#4",
          "ticks": 130320,
          "time": 116.3570265,
          "velocity": 1
        },
        {
          "duration": 0.21428550000000257,
          "durationTicks": 240,
          "midi": 57,
          "name": "A3",
          "ticks": 130320,
          "time": 116.3570265,
          "velocity": 1
        },
        {
          "duration": 0.21428550000000257,
          "durationTicks": 240,
          "midi": 52,
          "name": "E3",
          "ticks": 130320,
          "time": 116.3570265,
          "velocity": 1
        },
        {
          "duration": 0.21428550000000257,
          "durationTicks": 240,
          "midi": 45,
          "name": "A2",
          "ticks": 130320,
          "time": 116.3570265,
          "velocity": 1
        },
        {
          "duration": 2.3571405,
          "durationTicks": 2640,
          "midi": 63,
          "name": "D#4",
          "ticks": 130560,
          "time": 116.571312,
          "velocity": 1
        },
        {
          "duration": 2.3571405,
          "durationTicks": 2640,
          "midi": 59,
          "name": "B3",
          "ticks": 130560,
          "time": 116.571312,
          "velocity": 1
        },
        {
          "duration": 2.3571405,
          "durationTicks": 2640,
          "midi": 54,
          "name": "F#3",
          "ticks": 130560,
          "time": 116.571312,
          "velocity": 1
        },
        {
          "duration": 2.3571405,
          "durationTicks": 2640,
          "midi": 47,
          "name": "B2",
          "ticks": 130560,
          "time": 116.571312,
          "velocity": 1
        },
        {
          "duration": 0.42857100000000514,
          "durationTicks": 480,
          "midi": 61,
          "name": "C#4",
          "ticks": 133200,
          "time": 118.9284525,
          "velocity": 1
        },
        {
          "duration": 0.42857100000000514,
          "durationTicks": 480,
          "midi": 57,
          "name": "A3",
          "ticks": 133200,
          "time": 118.9284525,
          "velocity": 1
        },
        {
          "duration": 0.42857100000000514,
          "durationTicks": 480,
          "midi": 52,
          "name": "E3",
          "ticks": 133200,
          "time": 118.9284525,
          "velocity": 1
        },
        {
          "duration": 0.42857100000000514,
          "durationTicks": 480,
          "midi": 45,
          "name": "A2",
          "ticks": 133200,
          "time": 118.9284525,
          "velocity": 1
        },
        {
          "duration": 0.42857100000000514,
          "durationTicks": 480,
          "midi": 61,
          "name": "C#4",
          "ticks": 133680,
          "time": 119.35702350000001,
          "velocity": 1
        },
        {
          "duration": 0.42857100000000514,
          "durationTicks": 480,
          "midi": 57,
          "name": "A3",
          "ticks": 133680,
          "time": 119.35702350000001,
          "velocity": 1
        },
        {
          "duration": 0.42857100000000514,
          "durationTicks": 480,
          "midi": 52,
          "name": "E3",
          "ticks": 133680,
          "time": 119.35702350000001,
          "velocity": 1
        },
        {
          "duration": 0.42857100000000514,
          "durationTicks": 480,
          "midi": 45,
          "name": "A2",
          "ticks": 133680,
          "time": 119.35702350000001,
          "velocity": 1
        },
        {
          "duration": 0.21428549999998836,
          "durationTicks": 240,
          "midi": 61,
          "name": "C#4",
          "ticks": 134160,
          "time": 119.78559450000002,
          "velocity": 1
        },
        {
          "duration": 0.21428549999998836,
          "durationTicks": 240,
          "midi": 57,
          "name": "A3",
          "ticks": 134160,
          "time": 119.78559450000002,
          "velocity": 1
        },
        {
          "duration": 0.21428549999998836,
          "durationTicks": 240,
          "midi": 52,
          "name": "E3",
          "ticks": 134160,
          "time": 119.78559450000002,
          "velocity": 1
        },
        {
          "duration": 0.21428549999998836,
          "durationTicks": 240,
          "midi": 45,
          "name": "A2",
          "ticks": 134160,
          "time": 119.78559450000002,
          "velocity": 1
        },
        {
          "duration": 2.3571405,
          "durationTicks": 2640,
          "midi": 63,
          "name": "D#4",
          "ticks": 134400,
          "time": 119.99988,
          "velocity": 1
        },
        {
          "duration": 2.3571405,
          "durationTicks": 2640,
          "midi": 59,
          "name": "B3",
          "ticks": 134400,
          "time": 119.99988,
          "velocity": 1
        },
        {
          "duration": 2.3571405,
          "durationTicks": 2640,
          "midi": 54,
          "name": "F#3",
          "ticks": 134400,
          "time": 119.99988,
          "velocity": 1
        },
        {
          "duration": 2.3571405,
          "durationTicks": 2640,
          "midi": 47,
          "name": "B2",
          "ticks": 134400,
          "time": 119.99988,
          "velocity": 1
        },
        {
          "duration": 0.42857100000000514,
          "durationTicks": 480,
          "midi": 61,
          "name": "C#4",
          "ticks": 137040,
          "time": 122.3570205,
          "velocity": 1
        },
        {
          "duration": 0.42857100000000514,
          "durationTicks": 480,
          "midi": 57,
          "name": "A3",
          "ticks": 137040,
          "time": 122.3570205,
          "velocity": 1
        },
        {
          "duration": 0.42857100000000514,
          "durationTicks": 480,
          "midi": 52,
          "name": "E3",
          "ticks": 137040,
          "time": 122.3570205,
          "velocity": 1
        },
        {
          "duration": 0.42857100000000514,
          "durationTicks": 480,
          "midi": 45,
          "name": "A2",
          "ticks": 137040,
          "time": 122.3570205,
          "velocity": 1
        },
        {
          "duration": 0.42857100000000514,
          "durationTicks": 480,
          "midi": 61,
          "name": "C#4",
          "ticks": 137520,
          "time": 122.78559150000001,
          "velocity": 1
        },
        {
          "duration": 0.42857100000000514,
          "durationTicks": 480,
          "midi": 57,
          "name": "A3",
          "ticks": 137520,
          "time": 122.78559150000001,
          "velocity": 1
        },
        {
          "duration": 0.42857100000000514,
          "durationTicks": 480,
          "midi": 52,
          "name": "E3",
          "ticks": 137520,
          "time": 122.78559150000001,
          "velocity": 1
        },
        {
          "duration": 0.42857100000000514,
          "durationTicks": 480,
          "midi": 45,
          "name": "A2",
          "ticks": 137520,
          "time": 122.78559150000001,
          "velocity": 1
        },
        {
          "duration": 0.21428549999998836,
          "durationTicks": 240,
          "midi": 61,
          "name": "C#4",
          "ticks": 138000,
          "time": 123.21416250000001,
          "velocity": 1
        },
        {
          "duration": 0.21428549999998836,
          "durationTicks": 240,
          "midi": 57,
          "name": "A3",
          "ticks": 138000,
          "time": 123.21416250000001,
          "velocity": 1
        },
        {
          "duration": 0.21428549999998836,
          "durationTicks": 240,
          "midi": 52,
          "name": "E3",
          "ticks": 138000,
          "time": 123.21416250000001,
          "velocity": 1
        },
        {
          "duration": 0.21428549999998836,
          "durationTicks": 240,
          "midi": 45,
          "name": "A2",
          "ticks": 138000,
          "time": 123.21416250000001,
          "velocity": 1
        },
        {
          "duration": 1.928569500000009,
          "durationTicks": 2160,
          "midi": 63,
          "name": "D#4",
          "ticks": 138240,
          "time": 123.428448,
          "velocity": 1
        },
        {
          "duration": 1.928569500000009,
          "durationTicks": 2160,
          "midi": 59,
          "name": "B3",
          "ticks": 138240,
          "time": 123.428448,
          "velocity": 1
        },
        {
          "duration": 1.928569500000009,
          "durationTicks": 2160,
          "midi": 54,
          "name": "F#3",
          "ticks": 138240,
          "time": 123.428448,
          "velocity": 1
        },
        {
          "duration": 1.928569500000009,
          "durationTicks": 2160,
          "midi": 47,
          "name": "B2",
          "ticks": 138240,
          "time": 123.428448,
          "velocity": 1
        },
        {
          "duration": 0.42857100000000514,
          "durationTicks": 480,
          "midi": 66,
          "name": "F#4",
          "ticks": 140400,
          "time": 125.35701750000001,
          "velocity": 1
        },
        {
          "duration": 0.42857100000000514,
          "durationTicks": 480,
          "midi": 62,
          "name": "D4",
          "ticks": 140400,
          "time": 125.35701750000001,
          "velocity": 1
        },
        {
          "duration": 0.42857100000000514,
          "durationTicks": 480,
          "midi": 57,
          "name": "A3",
          "ticks": 140400,
          "time": 125.35701750000001,
          "velocity": 1
        },
        {
          "duration": 0.42857100000000514,
          "durationTicks": 480,
          "midi": 50,
          "name": "D3",
          "ticks": 140400,
          "time": 125.35701750000001,
          "velocity": 1
        },
        {
          "duration": 0.42857099999999093,
          "durationTicks": 480,
          "midi": 66,
          "name": "F#4",
          "ticks": 140880,
          "time": 125.78558850000002,
          "velocity": 1
        },
        {
          "duration": 0.42857099999999093,
          "durationTicks": 480,
          "midi": 62,
          "name": "D4",
          "ticks": 140880,
          "time": 125.78558850000002,
          "velocity": 1
        },
        {
          "duration": 0.42857099999999093,
          "durationTicks": 480,
          "midi": 57,
          "name": "A3",
          "ticks": 140880,
          "time": 125.78558850000002,
          "velocity": 1
        },
        {
          "duration": 0.42857099999999093,
          "durationTicks": 480,
          "midi": 50,
          "name": "D3",
          "ticks": 140880,
          "time": 125.78558850000002,
          "velocity": 1
        },
        {
          "duration": 0.42857100000000514,
          "durationTicks": 480,
          "midi": 66,
          "name": "F#4",
          "ticks": 141360,
          "time": 126.21415950000001,
          "velocity": 1
        },
        {
          "duration": 0.42857100000000514,
          "durationTicks": 480,
          "midi": 62,
          "name": "D4",
          "ticks": 141360,
          "time": 126.21415950000001,
          "velocity": 1
        },
        {
          "duration": 0.42857100000000514,
          "durationTicks": 480,
          "midi": 57,
          "name": "A3",
          "ticks": 141360,
          "time": 126.21415950000001,
          "velocity": 1
        },
        {
          "duration": 0.42857100000000514,
          "durationTicks": 480,
          "midi": 50,
          "name": "D3",
          "ticks": 141360,
          "time": 126.21415950000001,
          "velocity": 1
        },
        {
          "duration": 0.21428550000000257,
          "durationTicks": 240,
          "midi": 66,
          "name": "F#4",
          "ticks": 141840,
          "time": 126.64273050000001,
          "velocity": 1
        },
        {
          "duration": 0.21428550000000257,
          "durationTicks": 240,
          "midi": 62,
          "name": "D4",
          "ticks": 141840,
          "time": 126.64273050000001,
          "velocity": 1
        },
        {
          "duration": 0.21428550000000257,
          "durationTicks": 240,
          "midi": 57,
          "name": "A3",
          "ticks": 141840,
          "time": 126.64273050000001,
          "velocity": 1
        },
        {
          "duration": 0.21428550000000257,
          "durationTicks": 240,
          "midi": 50,
          "name": "D3",
          "ticks": 141840,
          "time": 126.64273050000001,
          "velocity": 1
        },
        {
          "duration": 1.4999985000000038,
          "durationTicks": 1680,
          "midi": 56,
          "name": "G#3",
          "ticks": 142080,
          "time": 126.85701600000002,
          "velocity": 1
        },
        {
          "duration": 1.4999985000000038,
          "durationTicks": 1680,
          "midi": 52,
          "name": "E3",
          "ticks": 142080,
          "time": 126.85701600000002,
          "velocity": 1
        },
        {
          "duration": 1.4999985000000038,
          "durationTicks": 1680,
          "midi": 47,
          "name": "B2",
          "ticks": 142080,
          "time": 126.85701600000002,
          "velocity": 1
        },
        {
          "duration": 1.4999985000000038,
          "durationTicks": 1680,
          "midi": 40,
          "name": "E2",
          "ticks": 142080,
          "time": 126.85701600000002,
          "velocity": 1
        },
        {
          "duration": 0.42857100000000514,
          "durationTicks": 480,
          "midi": 55,
          "name": "G3",
          "ticks": 143760,
          "time": 128.35701450000002,
          "velocity": 1
        },
        {
          "duration": 0.42857100000000514,
          "durationTicks": 480,
          "midi": 50,
          "name": "D3",
          "ticks": 143760,
          "time": 128.35701450000002,
          "velocity": 1
        },
        {
          "duration": 0.42857100000000514,
          "durationTicks": 480,
          "midi": 43,
          "name": "G2",
          "ticks": 143760,
          "time": 128.35701450000002,
          "velocity": 1
        },
        {
          "duration": 1.285712999999987,
          "durationTicks": 1440,
          "midi": 56,
          "name": "G#3",
          "ticks": 144240,
          "time": 128.78558550000002,
          "velocity": 1
        },
        {
          "duration": 1.285712999999987,
          "durationTicks": 1440,
          "midi": 52,
          "name": "E3",
          "ticks": 144240,
          "time": 128.78558550000002,
          "velocity": 1
        },
        {
          "duration": 1.285712999999987,
          "durationTicks": 1440,
          "midi": 47,
          "name": "B2",
          "ticks": 144240,
          "time": 128.78558550000002,
          "velocity": 1
        },
        {
          "duration": 1.285712999999987,
          "durationTicks": 1440,
          "midi": 40,
          "name": "E2",
          "ticks": 144240,
          "time": 128.78558550000002,
          "velocity": 1
        },
        {
          "duration": 0.42857100000000514,
          "durationTicks": 480,
          "midi": 57,
          "name": "A3",
          "ticks": 145680,
          "time": 130.0712985,
          "velocity": 1
        },
        {
          "duration": 0.42857100000000514,
          "durationTicks": 480,
          "midi": 52,
          "name": "E3",
          "ticks": 145680,
          "time": 130.0712985,
          "velocity": 1
        },
        {
          "duration": 0.42857100000000514,
          "durationTicks": 480,
          "midi": 45,
          "name": "A2",
          "ticks": 145680,
          "time": 130.0712985,
          "velocity": 1
        },
        {
          "duration": 1.285712999999987,
          "durationTicks": 1440,
          "midi": 56,
          "name": "G#3",
          "ticks": 146160,
          "time": 130.49986950000002,
          "velocity": 1
        },
        {
          "duration": 1.285712999999987,
          "durationTicks": 1440,
          "midi": 52,
          "name": "E3",
          "ticks": 146160,
          "time": 130.49986950000002,
          "velocity": 1
        },
        {
          "duration": 1.285712999999987,
          "durationTicks": 1440,
          "midi": 47,
          "name": "B2",
          "ticks": 146160,
          "time": 130.49986950000002,
          "velocity": 1
        },
        {
          "duration": 1.285712999999987,
          "durationTicks": 1440,
          "midi": 40,
          "name": "E2",
          "ticks": 146160,
          "time": 130.49986950000002,
          "velocity": 1
        },
        {
          "duration": 0.42857100000000514,
          "durationTicks": 480,
          "midi": 62,
          "name": "D4",
          "ticks": 147600,
          "time": 131.7855825,
          "velocity": 1
        },
        {
          "duration": 0.42857100000000514,
          "durationTicks": 480,
          "midi": 57,
          "name": "A3",
          "ticks": 147600,
          "time": 131.7855825,
          "velocity": 1
        },
        {
          "duration": 0.42857100000000514,
          "durationTicks": 480,
          "midi": 50,
          "name": "D3",
          "ticks": 147600,
          "time": 131.7855825,
          "velocity": 1
        },
        {
          "duration": 0.42857100000000514,
          "durationTicks": 480,
          "midi": 45,
          "name": "A2",
          "ticks": 147600,
          "time": 131.7855825,
          "velocity": 1
        },
        {
          "duration": 1.4999985000000038,
          "durationTicks": 1680,
          "midi": 56,
          "name": "G#3",
          "ticks": 148080,
          "time": 132.2141535,
          "velocity": 1
        },
        {
          "duration": 1.4999985000000038,
          "durationTicks": 1680,
          "midi": 52,
          "name": "E3",
          "ticks": 148080,
          "time": 132.2141535,
          "velocity": 1
        },
        {
          "duration": 1.4999985000000038,
          "durationTicks": 1680,
          "midi": 47,
          "name": "B2",
          "ticks": 148080,
          "time": 132.2141535,
          "velocity": 1
        },
        {
          "duration": 1.4999985000000038,
          "durationTicks": 1680,
          "midi": 40,
          "name": "E2",
          "ticks": 148080,
          "time": 132.2141535,
          "velocity": 1
        },
        {
          "duration": 1.4999985000000038,
          "durationTicks": 1680,
          "midi": 56,
          "name": "G#3",
          "ticks": 149760,
          "time": 133.714152,
          "velocity": 1
        },
        {
          "duration": 1.4999985000000038,
          "durationTicks": 1680,
          "midi": 52,
          "name": "E3",
          "ticks": 149760,
          "time": 133.714152,
          "velocity": 1
        },
        {
          "duration": 1.4999985000000038,
          "durationTicks": 1680,
          "midi": 47,
          "name": "B2",
          "ticks": 149760,
          "time": 133.714152,
          "velocity": 1
        },
        {
          "duration": 1.4999985000000038,
          "durationTicks": 1680,
          "midi": 40,
          "name": "E2",
          "ticks": 149760,
          "time": 133.714152,
          "velocity": 1
        },
        {
          "duration": 0.42857100000000514,
          "durationTicks": 480,
          "midi": 55,
          "name": "G3",
          "ticks": 151440,
          "time": 135.21415050000002,
          "velocity": 1
        },
        {
          "duration": 0.42857100000000514,
          "durationTicks": 480,
          "midi": 50,
          "name": "D3",
          "ticks": 151440,
          "time": 135.21415050000002,
          "velocity": 1
        },
        {
          "duration": 0.42857100000000514,
          "durationTicks": 480,
          "midi": 43,
          "name": "G2",
          "ticks": 151440,
          "time": 135.21415050000002,
          "velocity": 1
        },
        {
          "duration": 1.285712999999987,
          "durationTicks": 1440,
          "midi": 56,
          "name": "G#3",
          "ticks": 151920,
          "time": 135.64272150000002,
          "velocity": 1
        },
        {
          "duration": 1.285712999999987,
          "durationTicks": 1440,
          "midi": 52,
          "name": "E3",
          "ticks": 151920,
          "time": 135.64272150000002,
          "velocity": 1
        },
        {
          "duration": 1.285712999999987,
          "durationTicks": 1440,
          "midi": 47,
          "name": "B2",
          "ticks": 151920,
          "time": 135.64272150000002,
          "velocity": 1
        },
        {
          "duration": 1.285712999999987,
          "durationTicks": 1440,
          "midi": 40,
          "name": "E2",
          "ticks": 151920,
          "time": 135.64272150000002,
          "velocity": 1
        },
        {
          "duration": 0.42857100000000514,
          "durationTicks": 480,
          "midi": 57,
          "name": "A3",
          "ticks": 153360,
          "time": 136.9284345,
          "velocity": 1
        },
        {
          "duration": 0.42857100000000514,
          "durationTicks": 480,
          "midi": 52,
          "name": "E3",
          "ticks": 153360,
          "time": 136.9284345,
          "velocity": 1
        },
        {
          "duration": 0.42857100000000514,
          "durationTicks": 480,
          "midi": 45,
          "name": "A2",
          "ticks": 153360,
          "time": 136.9284345,
          "velocity": 1
        },
        {
          "duration": 1.285712999999987,
          "durationTicks": 1440,
          "midi": 56,
          "name": "G#3",
          "ticks": 153840,
          "time": 137.3570055,
          "velocity": 1
        },
        {
          "duration": 1.285712999999987,
          "durationTicks": 1440,
          "midi": 52,
          "name": "E3",
          "ticks": 153840,
          "time": 137.3570055,
          "velocity": 1
        },
        {
          "duration": 1.285712999999987,
          "durationTicks": 1440,
          "midi": 47,
          "name": "B2",
          "ticks": 153840,
          "time": 137.3570055,
          "velocity": 1
        },
        {
          "duration": 1.285712999999987,
          "durationTicks": 1440,
          "midi": 40,
          "name": "E2",
          "ticks": 153840,
          "time": 137.3570055,
          "velocity": 1
        },
        {
          "duration": 0.42857100000000514,
          "durationTicks": 480,
          "midi": 62,
          "name": "D4",
          "ticks": 155280,
          "time": 138.6427185,
          "velocity": 1
        },
        {
          "duration": 0.42857100000000514,
          "durationTicks": 480,
          "midi": 57,
          "name": "A3",
          "ticks": 155280,
          "time": 138.6427185,
          "velocity": 1
        },
        {
          "duration": 0.42857100000000514,
          "durationTicks": 480,
          "midi": 50,
          "name": "D3",
          "ticks": 155280,
          "time": 138.6427185,
          "velocity": 1
        },
        {
          "duration": 0.42857100000000514,
          "durationTicks": 480,
          "midi": 45,
          "name": "A2",
          "ticks": 155280,
          "time": 138.6427185,
          "velocity": 1
        },
        {
          "duration": 0.6428564999999935,
          "durationTicks": 720,
          "midi": 56,
          "name": "G#3",
          "ticks": 155760,
          "time": 139.0712895,
          "velocity": 1
        },
        {
          "duration": 0.6428564999999935,
          "durationTicks": 720,
          "midi": 52,
          "name": "E3",
          "ticks": 155760,
          "time": 139.0712895,
          "velocity": 1
        },
        {
          "duration": 0.6428564999999935,
          "durationTicks": 720,
          "midi": 47,
          "name": "B2",
          "ticks": 155760,
          "time": 139.0712895,
          "velocity": 1
        },
        {
          "duration": 0.6428564999999935,
          "durationTicks": 720,
          "midi": 40,
          "name": "E2",
          "ticks": 155760,
          "time": 139.0712895,
          "velocity": 1
        },
        {
          "duration": 0.21428550000001678,
          "durationTicks": 240,
          "midi": 56,
          "name": "G#3",
          "ticks": 156480,
          "time": 139.714146,
          "velocity": 1
        },
        {
          "duration": 0.21428550000001678,
          "durationTicks": 240,
          "midi": 52,
          "name": "E3",
          "ticks": 156480,
          "time": 139.714146,
          "velocity": 1
        },
        {
          "duration": 0.21428550000001678,
          "durationTicks": 240,
          "midi": 47,
          "name": "B2",
          "ticks": 156480,
          "time": 139.714146,
          "velocity": 1
        },
        {
          "duration": 0.21428550000001678,
          "durationTicks": 240,
          "midi": 40,
          "name": "E2",
          "ticks": 156480,
          "time": 139.714146,
          "velocity": 1
        },
        {
          "duration": 0.21428549999998836,
          "durationTicks": 240,
          "midi": 66,
          "name": "F#4",
          "ticks": 156720,
          "time": 139.92843150000002,
          "velocity": 1
        },
        {
          "duration": 0.21428549999998836,
          "durationTicks": 240,
          "midi": 62,
          "name": "D4",
          "ticks": 156720,
          "time": 139.92843150000002,
          "velocity": 1
        },
        {
          "duration": 0.21428549999998836,
          "durationTicks": 240,
          "midi": 57,
          "name": "A3",
          "ticks": 156720,
          "time": 139.92843150000002,
          "velocity": 1
        },
        {
          "duration": 0.21428549999998836,
          "durationTicks": 240,
          "midi": 50,
          "name": "D3",
          "ticks": 156720,
          "time": 139.92843150000002,
          "velocity": 1
        },
        {
          "duration": 0.21428550000001678,
          "durationTicks": 240,
          "midi": 66,
          "name": "F#4",
          "ticks": 156960,
          "time": 140.142717,
          "velocity": 1
        },
        {
          "duration": 0.21428550000001678,
          "durationTicks": 240,
          "midi": 62,
          "name": "D4",
          "ticks": 156960,
          "time": 140.142717,
          "velocity": 1
        },
        {
          "duration": 0.21428550000001678,
          "durationTicks": 240,
          "midi": 57,
          "name": "A3",
          "ticks": 156960,
          "time": 140.142717,
          "velocity": 1
        },
        {
          "duration": 0.21428550000001678,
          "durationTicks": 240,
          "midi": 50,
          "name": "D3",
          "ticks": 156960,
          "time": 140.142717,
          "velocity": 1
        },
        {
          "duration": 6.428564999999992,
          "durationTicks": 7200,
          "midi": 56,
          "name": "G#3",
          "ticks": 157200,
          "time": 140.35700250000002,
          "velocity": 1
        },
        {
          "duration": 6.428564999999992,
          "durationTicks": 7200,
          "midi": 52,
          "name": "E3",
          "ticks": 157200,
          "time": 140.35700250000002,
          "velocity": 1
        },
        {
          "duration": 6.428564999999992,
          "durationTicks": 7200,
          "midi": 47,
          "name": "B2",
          "ticks": 157200,
          "time": 140.35700250000002,
          "velocity": 1
        },
        {
          "duration": 6.428564999999992,
          "durationTicks": 7200,
          "midi": 40,
          "name": "E2",
          "ticks": 157200,
          "time": 140.35700250000002,
          "velocity": 1
        },
        {
          "duration": 0.21428549999998836,
          "durationTicks": 240,
          "midi": 66,
          "name": "F#4",
          "ticks": 164400,
          "time": 146.7855675,
          "velocity": 1
        },
        {
          "duration": 0.21428549999998836,
          "durationTicks": 240,
          "midi": 62,
          "name": "D4",
          "ticks": 164400,
          "time": 146.7855675,
          "velocity": 1
        },
        {
          "duration": 0.21428549999998836,
          "durationTicks": 240,
          "midi": 57,
          "name": "A3",
          "ticks": 164400,
          "time": 146.7855675,
          "velocity": 1
        },
        {
          "duration": 0.21428549999998836,
          "durationTicks": 240,
          "midi": 50,
          "name": "D3",
          "ticks": 164400,
          "time": 146.7855675,
          "velocity": 1
        },
        {
          "duration": 6.428564999999992,
          "durationTicks": 7200,
          "midi": 68,
          "name": "G#4",
          "ticks": 164880,
          "time": 147.21413850000002,
          "velocity": 1
        },
        {
          "duration": 6.428564999999992,
          "durationTicks": 7200,
          "midi": 64,
          "name": "E4",
          "ticks": 164880,
          "time": 147.21413850000002,
          "velocity": 1
        },
        {
          "duration": 6.428564999999992,
          "durationTicks": 7200,
          "midi": 59,
          "name": "B3",
          "ticks": 164880,
          "time": 147.21413850000002,
          "velocity": 1
        },
        {
          "duration": 6.428564999999992,
          "durationTicks": 7200,
          "midi": 52,
          "name": "E3",
          "ticks": 164880,
          "time": 147.21413850000002,
          "velocity": 1
        },
        {
          "duration": 0.21428549999998836,
          "durationTicks": 240,
          "midi": 66,
          "name": "F#4",
          "ticks": 172080,
          "time": 153.6427035,
          "velocity": 1
        },
        {
          "duration": 0.21428549999998836,
          "durationTicks": 240,
          "midi": 62,
          "name": "D4",
          "ticks": 172080,
          "time": 153.6427035,
          "velocity": 1
        },
        {
          "duration": 0.21428549999998836,
          "durationTicks": 240,
          "midi": 57,
          "name": "A3",
          "ticks": 172080,
          "time": 153.6427035,
          "velocity": 1
        },
        {
          "duration": 0.21428549999998836,
          "durationTicks": 240,
          "midi": 50,
          "name": "D3",
          "ticks": 172080,
          "time": 153.6427035,
          "velocity": 1
        },
        {
          "duration": 6.428564999999992,
          "durationTicks": 7200,
          "midi": 68,
          "name": "G#4",
          "ticks": 172560,
          "time": 154.07127450000002,
          "velocity": 1
        },
        {
          "duration": 6.428564999999992,
          "durationTicks": 7200,
          "midi": 64,
          "name": "E4",
          "ticks": 172560,
          "time": 154.07127450000002,
          "velocity": 1
        },
        {
          "duration": 6.428564999999992,
          "durationTicks": 7200,
          "midi": 59,
          "name": "B3",
          "ticks": 172560,
          "time": 154.07127450000002,
          "velocity": 1
        },
        {
          "duration": 6.428564999999992,
          "durationTicks": 7200,
          "midi": 52,
          "name": "E3",
          "ticks": 172560,
          "time": 154.07127450000002,
          "velocity": 1
        },
        {
          "duration": 0.21428550000001678,
          "durationTicks": 240,
          "midi": 66,
          "name": "F#4",
          "ticks": 179760,
          "time": 160.4998395,
          "velocity": 1
        },
        {
          "duration": 0.21428550000001678,
          "durationTicks": 240,
          "midi": 62,
          "name": "D4",
          "ticks": 179760,
          "time": 160.4998395,
          "velocity": 1
        },
        {
          "duration": 0.21428550000001678,
          "durationTicks": 240,
          "midi": 57,
          "name": "A3",
          "ticks": 179760,
          "time": 160.4998395,
          "velocity": 1
        },
        {
          "duration": 0.21428550000001678,
          "durationTicks": 240,
          "midi": 50,
          "name": "D3",
          "ticks": 179760,
          "time": 160.4998395,
          "velocity": 1
        },
        {
          "duration": 0.21428549999998836,
          "durationTicks": 240,
          "midi": 68,
          "name": "G#4",
          "ticks": 180240,
          "time": 160.9284105,
          "velocity": 1
        },
        {
          "duration": 0.21428549999998836,
          "durationTicks": 240,
          "midi": 64,
          "name": "E4",
          "ticks": 180240,
          "time": 160.9284105,
          "velocity": 1
        },
        {
          "duration": 0.21428549999998836,
          "durationTicks": 240,
          "midi": 59,
          "name": "B3",
          "ticks": 180240,
          "time": 160.9284105,
          "velocity": 1
        },
        {
          "duration": 0.21428549999998836,
          "durationTicks": 240,
          "midi": 52,
          "name": "E3",
          "ticks": 180240,
          "time": 160.9284105,
          "velocity": 1
        },
        {
          "duration": 1.0714274999999986,
          "durationTicks": 1200,
          "midi": 68,
          "name": "G#4",
          "ticks": 180480,
          "time": 161.142696,
          "velocity": 1
        },
        {
          "duration": 1.0714274999999986,
          "durationTicks": 1200,
          "midi": 64,
          "name": "E4",
          "ticks": 180480,
          "time": 161.142696,
          "velocity": 1
        },
        {
          "duration": 1.0714274999999986,
          "durationTicks": 1200,
          "midi": 59,
          "name": "B3",
          "ticks": 180480,
          "time": 161.142696,
          "velocity": 1
        },
        {
          "duration": 1.0714274999999986,
          "durationTicks": 1200,
          "midi": 52,
          "name": "E3",
          "ticks": 180480,
          "time": 161.142696,
          "velocity": 1
        },
        {
          "duration": 1.0714274999999986,
          "durationTicks": 1200,
          "midi": 40,
          "name": "E2",
          "ticks": 180480,
          "time": 161.142696,
          "velocity": 1
        },
        {
          "duration": 0.21428550000001678,
          "durationTicks": 240,
          "midi": 66,
          "name": "F#4",
          "ticks": 181680,
          "time": 162.2141235,
          "velocity": 1
        },
        {
          "duration": 0.21428550000001678,
          "durationTicks": 240,
          "midi": 62,
          "name": "D4",
          "ticks": 181680,
          "time": 162.2141235,
          "velocity": 1
        },
        {
          "duration": 0.21428550000001678,
          "durationTicks": 240,
          "midi": 57,
          "name": "A3",
          "ticks": 181680,
          "time": 162.2141235,
          "velocity": 1
        },
        {
          "duration": 0.21428550000001678,
          "durationTicks": 240,
          "midi": 50,
          "name": "D3",
          "ticks": 181680,
          "time": 162.2141235,
          "velocity": 1
        },
        {
          "duration": 0.21428550000001678,
          "durationTicks": 240,
          "midi": 68,
          "name": "G#4",
          "ticks": 182160,
          "time": 162.6426945,
          "velocity": 1
        },
        {
          "duration": 0.21428550000001678,
          "durationTicks": 240,
          "midi": 64,
          "name": "E4",
          "ticks": 182160,
          "time": 162.6426945,
          "velocity": 1
        },
        {
          "duration": 0.21428550000001678,
          "durationTicks": 240,
          "midi": 59,
          "name": "B3",
          "ticks": 182160,
          "time": 162.6426945,
          "velocity": 1
        },
        {
          "duration": 0.21428550000001678,
          "durationTicks": 240,
          "midi": 52,
          "name": "E3",
          "ticks": 182160,
          "time": 162.6426945,
          "velocity": 1
        },
        {
          "duration": 1.0714274999999986,
          "durationTicks": 1200,
          "midi": 68,
          "name": "G#4",
          "ticks": 182400,
          "time": 162.85698000000002,
          "velocity": 1
        },
        {
          "duration": 1.0714274999999986,
          "durationTicks": 1200,
          "midi": 64,
          "name": "E4",
          "ticks": 182400,
          "time": 162.85698000000002,
          "velocity": 1
        },
        {
          "duration": 1.0714274999999986,
          "durationTicks": 1200,
          "midi": 59,
          "name": "B3",
          "ticks": 182400,
          "time": 162.85698000000002,
          "velocity": 1
        },
        {
          "duration": 1.0714274999999986,
          "durationTicks": 1200,
          "midi": 52,
          "name": "E3",
          "ticks": 182400,
          "time": 162.85698000000002,
          "velocity": 1
        },
        {
          "duration": 1.0714274999999986,
          "durationTicks": 1200,
          "midi": 40,
          "name": "E2",
          "ticks": 182400,
          "time": 162.85698000000002,
          "velocity": 1
        },
        {
          "duration": 0.21428549999998836,
          "durationTicks": 240,
          "midi": 66,
          "name": "F#4",
          "ticks": 183600,
          "time": 163.92840750000002,
          "velocity": 1
        },
        {
          "duration": 0.21428549999998836,
          "durationTicks": 240,
          "midi": 62,
          "name": "D4",
          "ticks": 183600,
          "time": 163.92840750000002,
          "velocity": 1
        },
        {
          "duration": 0.21428549999998836,
          "durationTicks": 240,
          "midi": 57,
          "name": "A3",
          "ticks": 183600,
          "time": 163.92840750000002,
          "velocity": 1
        },
        {
          "duration": 0.21428549999998836,
          "durationTicks": 240,
          "midi": 50,
          "name": "D3",
          "ticks": 183600,
          "time": 163.92840750000002,
          "velocity": 1
        },
        {
          "duration": 0.21428549999998836,
          "durationTicks": 240,
          "midi": 68,
          "name": "G#4",
          "ticks": 184080,
          "time": 164.35697850000003,
          "velocity": 1
        },
        {
          "duration": 0.21428549999998836,
          "durationTicks": 240,
          "midi": 64,
          "name": "E4",
          "ticks": 184080,
          "time": 164.35697850000003,
          "velocity": 1
        },
        {
          "duration": 0.21428549999998836,
          "durationTicks": 240,
          "midi": 59,
          "name": "B3",
          "ticks": 184080,
          "time": 164.35697850000003,
          "velocity": 1
        },
        {
          "duration": 0.21428549999998836,
          "durationTicks": 240,
          "midi": 52,
          "name": "E3",
          "ticks": 184080,
          "time": 164.35697850000003,
          "velocity": 1
        },
        {
          "duration": 1.0714274999999986,
          "durationTicks": 1200,
          "midi": 68,
          "name": "G#4",
          "ticks": 184320,
          "time": 164.571264,
          "velocity": 1
        },
        {
          "duration": 1.0714274999999986,
          "durationTicks": 1200,
          "midi": 64,
          "name": "E4",
          "ticks": 184320,
          "time": 164.571264,
          "velocity": 1
        },
        {
          "duration": 1.0714274999999986,
          "durationTicks": 1200,
          "midi": 59,
          "name": "B3",
          "ticks": 184320,
          "time": 164.571264,
          "velocity": 1
        },
        {
          "duration": 1.0714274999999986,
          "durationTicks": 1200,
          "midi": 52,
          "name": "E3",
          "ticks": 184320,
          "time": 164.571264,
          "velocity": 1
        },
        {
          "duration": 1.0714274999999986,
          "durationTicks": 1200,
          "midi": 40,
          "name": "E2",
          "ticks": 184320,
          "time": 164.571264,
          "velocity": 1
        },
        {
          "duration": 0.21428549999998836,
          "durationTicks": 240,
          "midi": 66,
          "name": "F#4",
          "ticks": 185520,
          "time": 165.6426915,
          "velocity": 1
        },
        {
          "duration": 0.21428549999998836,
          "durationTicks": 240,
          "midi": 62,
          "name": "D4",
          "ticks": 185520,
          "time": 165.6426915,
          "velocity": 1
        },
        {
          "duration": 0.21428549999998836,
          "durationTicks": 240,
          "midi": 57,
          "name": "A3",
          "ticks": 185520,
          "time": 165.6426915,
          "velocity": 1
        },
        {
          "duration": 0.21428549999998836,
          "durationTicks": 240,
          "midi": 50,
          "name": "D3",
          "ticks": 185520,
          "time": 165.6426915,
          "velocity": 1
        },
        {
          "duration": 0.21428549999998836,
          "durationTicks": 240,
          "midi": 68,
          "name": "G#4",
          "ticks": 186000,
          "time": 166.07126250000002,
          "velocity": 1
        },
        {
          "duration": 0.21428549999998836,
          "durationTicks": 240,
          "midi": 64,
          "name": "E4",
          "ticks": 186000,
          "time": 166.07126250000002,
          "velocity": 1
        },
        {
          "duration": 0.21428549999998836,
          "durationTicks": 240,
          "midi": 59,
          "name": "B3",
          "ticks": 186000,
          "time": 166.07126250000002,
          "velocity": 1
        },
        {
          "duration": 0.21428549999998836,
          "durationTicks": 240,
          "midi": 52,
          "name": "E3",
          "ticks": 186000,
          "time": 166.07126250000002,
          "velocity": 1
        },
        {
          "duration": 0.21428550000001678,
          "durationTicks": 240,
          "midi": 68,
          "name": "G#4",
          "ticks": 186240,
          "time": 166.285548,
          "velocity": 1
        },
        {
          "duration": 0.21428550000001678,
          "durationTicks": 240,
          "midi": 64,
          "name": "E4",
          "ticks": 186240,
          "time": 166.285548,
          "velocity": 1
        },
        {
          "duration": 0.21428550000001678,
          "durationTicks": 240,
          "midi": 59,
          "name": "B3",
          "ticks": 186240,
          "time": 166.285548,
          "velocity": 1
        },
        {
          "duration": 0.21428550000001678,
          "durationTicks": 240,
          "midi": 52,
          "name": "E3",
          "ticks": 186240,
          "time": 166.285548,
          "velocity": 1
        },
        {
          "duration": 0.21428550000001678,
          "durationTicks": 240,
          "midi": 40,
          "name": "E2",
          "ticks": 186240,
          "time": 166.285548,
          "velocity": 1
        },
        {
          "duration": 0.21428549999998836,
          "durationTicks": 240,
          "midi": 68,
          "name": "G#4",
          "ticks": 186480,
          "time": 166.49983350000002,
          "velocity": 1
        },
        {
          "duration": 0.21428549999998836,
          "durationTicks": 240,
          "midi": 64,
          "name": "E4",
          "ticks": 186480,
          "time": 166.49983350000002,
          "velocity": 1
        },
        {
          "duration": 0.21428549999998836,
          "durationTicks": 240,
          "midi": 59,
          "name": "B3",
          "ticks": 186480,
          "time": 166.49983350000002,
          "velocity": 1
        },
        {
          "duration": 0.21428549999998836,
          "durationTicks": 240,
          "midi": 52,
          "name": "E3",
          "ticks": 186480,
          "time": 166.49983350000002,
          "velocity": 1
        },
        {
          "duration": 0.21428549999998836,
          "durationTicks": 240,
          "midi": 40,
          "name": "E2",
          "ticks": 186480,
          "time": 166.49983350000002,
          "velocity": 1
        },
        {
          "duration": 0.21428550000001678,
          "durationTicks": 240,
          "midi": 68,
          "name": "G#4",
          "ticks": 186720,
          "time": 166.714119,
          "velocity": 1
        },
        {
          "duration": 0.21428550000001678,
          "durationTicks": 240,
          "midi": 64,
          "name": "E4",
          "ticks": 186720,
          "time": 166.714119,
          "velocity": 1
        },
        {
          "duration": 0.21428550000001678,
          "durationTicks": 240,
          "midi": 59,
          "name": "B3",
          "ticks": 186720,
          "time": 166.714119,
          "velocity": 1
        },
        {
          "duration": 0.21428550000001678,
          "durationTicks": 240,
          "midi": 52,
          "name": "E3",
          "ticks": 186720,
          "time": 166.714119,
          "velocity": 1
        },
        {
          "duration": 0.21428550000001678,
          "durationTicks": 240,
          "midi": 40,
          "name": "E2",
          "ticks": 186720,
          "time": 166.714119,
          "velocity": 1
        },
        {
          "duration": 0.21428549999998836,
          "durationTicks": 240,
          "midi": 68,
          "name": "G#4",
          "ticks": 186960,
          "time": 166.92840450000003,
          "velocity": 1
        },
        {
          "duration": 0.21428549999998836,
          "durationTicks": 240,
          "midi": 64,
          "name": "E4",
          "ticks": 186960,
          "time": 166.92840450000003,
          "velocity": 1
        },
        {
          "duration": 0.21428549999998836,
          "durationTicks": 240,
          "midi": 59,
          "name": "B3",
          "ticks": 186960,
          "time": 166.92840450000003,
          "velocity": 1
        },
        {
          "duration": 0.21428549999998836,
          "durationTicks": 240,
          "midi": 52,
          "name": "E3",
          "ticks": 186960,
          "time": 166.92840450000003,
          "velocity": 1
        },
        {
          "duration": 0.21428549999998836,
          "durationTicks": 240,
          "midi": 40,
          "name": "E2",
          "ticks": 186960,
          "time": 166.92840450000003,
          "velocity": 1
        },
        {
          "duration": 0.42857100000000514,
          "durationTicks": 480,
          "midi": 68,
          "name": "G#4",
          "ticks": 187200,
          "time": 167.14269000000002,
          "velocity": 1
        },
        {
          "duration": 0.42857100000000514,
          "durationTicks": 480,
          "midi": 64,
          "name": "E4",
          "ticks": 187200,
          "time": 167.14269000000002,
          "velocity": 1
        },
        {
          "duration": 0.42857100000000514,
          "durationTicks": 480,
          "midi": 59,
          "name": "B3",
          "ticks": 187200,
          "time": 167.14269000000002,
          "velocity": 1
        },
        {
          "duration": 0.42857100000000514,
          "durationTicks": 480,
          "midi": 52,
          "name": "E3",
          "ticks": 187200,
          "time": 167.14269000000002,
          "velocity": 1
        },
        {
          "duration": 0.42857100000000514,
          "durationTicks": 480,
          "midi": 40,
          "name": "E2",
          "ticks": 187200,
          "time": 167.14269000000002,
          "velocity": 1
        },
        {
          "duration": 1.7142839999999921,
          "durationTicks": 1920,
          "midi": 57,
          "name": "A3",
          "ticks": 188160,
          "time": 167.99983200000003,
          "velocity": 1
        },
        {
          "duration": 1.7142839999999921,
          "durationTicks": 1920,
          "midi": 52,
          "name": "E3",
          "ticks": 188160,
          "time": 167.99983200000003,
          "velocity": 1
        },
        {
          "duration": 1.7142839999999921,
          "durationTicks": 1920,
          "midi": 45,
          "name": "A2",
          "ticks": 188160,
          "time": 167.99983200000003,
          "velocity": 1
        },
        {
          "duration": 0.42857100000000514,
          "durationTicks": 480,
          "midi": 57,
          "name": "A3",
          "ticks": 190080,
          "time": 169.71411600000002,
          "velocity": 1
        },
        {
          "duration": 0.42857100000000514,
          "durationTicks": 480,
          "midi": 52,
          "name": "E3",
          "ticks": 190080,
          "time": 169.71411600000002,
          "velocity": 1
        },
        {
          "duration": 0.42857100000000514,
          "durationTicks": 480,
          "midi": 45,
          "name": "A2",
          "ticks": 190080,
          "time": 169.71411600000002,
          "velocity": 1
        },
        {
          "duration": 0.4285709999999767,
          "durationTicks": 480,
          "midi": 67,
          "name": "G4",
          "ticks": 190560,
          "time": 170.14268700000002,
          "velocity": 1
        },
        {
          "duration": 0.4285709999999767,
          "durationTicks": 480,
          "midi": 62,
          "name": "D4",
          "ticks": 190560,
          "time": 170.14268700000002,
          "velocity": 1
        },
        {
          "duration": 0.4285709999999767,
          "durationTicks": 480,
          "midi": 55,
          "name": "G3",
          "ticks": 190560,
          "time": 170.14268700000002,
          "velocity": 1
        },
        {
          "duration": 0.4285709999999767,
          "durationTicks": 480,
          "midi": 50,
          "name": "D3",
          "ticks": 190560,
          "time": 170.14268700000002,
          "velocity": 1
        },
        {
          "duration": 0.013392843749983285,
          "durationTicks": 15,
          "midi": 45,
          "name": "A2",
          "ticks": 190560,
          "time": 170.14268700000002,
          "velocity": 1
        },
        {
          "duration": 0.4285709999999767,
          "durationTicks": 480,
          "midi": 43,
          "name": "G2",
          "ticks": 190560,
          "time": 170.14268700000002,
          "velocity": 1
        },
        {
          "duration": 0.8571420000000103,
          "durationTicks": 960,
          "midi": 57,
          "name": "A3",
          "ticks": 191040,
          "time": 170.571258,
          "velocity": 1
        },
        {
          "duration": 0.8571420000000103,
          "durationTicks": 960,
          "midi": 52,
          "name": "E3",
          "ticks": 191040,
          "time": 170.571258,
          "velocity": 1
        },
        {
          "duration": 0.8571420000000103,
          "durationTicks": 960,
          "midi": 45,
          "name": "A2",
          "ticks": 191040,
          "time": 170.571258,
          "velocity": 1
        },
        {
          "duration": 1.7142839999999921,
          "durationTicks": 1920,
          "midi": 68,
          "name": "G#4",
          "ticks": 192000,
          "time": 171.4284,
          "velocity": 1
        },
        {
          "duration": 1.7142839999999921,
          "durationTicks": 1920,
          "midi": 64,
          "name": "E4",
          "ticks": 192000,
          "time": 171.4284,
          "velocity": 1
        },
        {
          "duration": 1.7142839999999921,
          "durationTicks": 1920,
          "midi": 59,
          "name": "B3",
          "ticks": 192000,
          "time": 171.4284,
          "velocity": 1
        },
        {
          "duration": 1.7142839999999921,
          "durationTicks": 1920,
          "midi": 52,
          "name": "E3",
          "ticks": 192000,
          "time": 171.4284,
          "velocity": 1
        },
        {
          "duration": 1.7142839999999921,
          "durationTicks": 1920,
          "midi": 40,
          "name": "E2",
          "ticks": 192000,
          "time": 171.4284,
          "velocity": 1
        },
        {
          "duration": 0.42857100000000514,
          "durationTicks": 480,
          "midi": 68,
          "name": "G#4",
          "ticks": 193920,
          "time": 173.142684,
          "velocity": 1
        },
        {
          "duration": 0.42857100000000514,
          "durationTicks": 480,
          "midi": 64,
          "name": "E4",
          "ticks": 193920,
          "time": 173.142684,
          "velocity": 1
        },
        {
          "duration": 0.42857100000000514,
          "durationTicks": 480,
          "midi": 59,
          "name": "B3",
          "ticks": 193920,
          "time": 173.142684,
          "velocity": 1
        },
        {
          "duration": 0.42857100000000514,
          "durationTicks": 480,
          "midi": 52,
          "name": "E3",
          "ticks": 193920,
          "time": 173.142684,
          "velocity": 1
        },
        {
          "duration": 0.42857100000000514,
          "durationTicks": 480,
          "midi": 40,
          "name": "E2",
          "ticks": 193920,
          "time": 173.142684,
          "velocity": 1
        },
        {
          "duration": 0.42857100000000514,
          "durationTicks": 480,
          "midi": 66,
          "name": "F#4",
          "ticks": 194400,
          "time": 173.571255,
          "velocity": 1
        },
        {
          "duration": 0.42857100000000514,
          "durationTicks": 480,
          "midi": 62,
          "name": "D4",
          "ticks": 194400,
          "time": 173.571255,
          "velocity": 1
        },
        {
          "duration": 0.42857100000000514,
          "durationTicks": 480,
          "midi": 57,
          "name": "A3",
          "ticks": 194400,
          "time": 173.571255,
          "velocity": 1
        },
        {
          "duration": 0.42857100000000514,
          "durationTicks": 480,
          "midi": 50,
          "name": "D3",
          "ticks": 194400,
          "time": 173.571255,
          "velocity": 1
        },
        {
          "duration": 0.8571420000000103,
          "durationTicks": 960,
          "midi": 68,
          "name": "G#4",
          "ticks": 194880,
          "time": 173.999826,
          "velocity": 1
        },
        {
          "duration": 0.8571420000000103,
          "durationTicks": 960,
          "midi": 64,
          "name": "E4",
          "ticks": 194880,
          "time": 173.999826,
          "velocity": 1
        },
        {
          "duration": 0.8571420000000103,
          "durationTicks": 960,
          "midi": 59,
          "name": "B3",
          "ticks": 194880,
          "time": 173.999826,
          "velocity": 1
        },
        {
          "duration": 0.8571420000000103,
          "durationTicks": 960,
          "midi": 52,
          "name": "E3",
          "ticks": 194880,
          "time": 173.999826,
          "velocity": 1
        },
        {
          "duration": 0.8571420000000103,
          "durationTicks": 960,
          "midi": 40,
          "name": "E2",
          "ticks": 194880,
          "time": 173.999826,
          "velocity": 1
        },
        {
          "duration": 1.7142839999999921,
          "durationTicks": 1920,
          "midi": 57,
          "name": "A3",
          "ticks": 195840,
          "time": 174.85696800000002,
          "velocity": 1
        },
        {
          "duration": 1.7142839999999921,
          "durationTicks": 1920,
          "midi": 52,
          "name": "E3",
          "ticks": 195840,
          "time": 174.85696800000002,
          "velocity": 1
        },
        {
          "duration": 1.7142839999999921,
          "durationTicks": 1920,
          "midi": 45,
          "name": "A2",
          "ticks": 195840,
          "time": 174.85696800000002,
          "velocity": 1
        },
        {
          "duration": 0.42857100000000514,
          "durationTicks": 480,
          "midi": 57,
          "name": "A3",
          "ticks": 197760,
          "time": 176.57125200000002,
          "velocity": 1
        },
        {
          "duration": 0.42857100000000514,
          "durationTicks": 480,
          "midi": 52,
          "name": "E3",
          "ticks": 197760,
          "time": 176.57125200000002,
          "velocity": 1
        },
        {
          "duration": 0.42857100000000514,
          "durationTicks": 480,
          "midi": 45,
          "name": "A2",
          "ticks": 197760,
          "time": 176.57125200000002,
          "velocity": 1
        },
        {
          "duration": 0.42857100000000514,
          "durationTicks": 480,
          "midi": 67,
          "name": "G4",
          "ticks": 198240,
          "time": 176.99982300000002,
          "velocity": 1
        },
        {
          "duration": 0.42857100000000514,
          "durationTicks": 480,
          "midi": 62,
          "name": "D4",
          "ticks": 198240,
          "time": 176.99982300000002,
          "velocity": 1
        },
        {
          "duration": 0.42857100000000514,
          "durationTicks": 480,
          "midi": 55,
          "name": "G3",
          "ticks": 198240,
          "time": 176.99982300000002,
          "velocity": 1
        },
        {
          "duration": 0.42857100000000514,
          "durationTicks": 480,
          "midi": 50,
          "name": "D3",
          "ticks": 198240,
          "time": 176.99982300000002,
          "velocity": 1
        },
        {
          "duration": 0.42857100000000514,
          "durationTicks": 480,
          "midi": 43,
          "name": "G2",
          "ticks": 198240,
          "time": 176.99982300000002,
          "velocity": 1
        },
        {
          "duration": 0.8571419999999819,
          "durationTicks": 960,
          "midi": 57,
          "name": "A3",
          "ticks": 198720,
          "time": 177.42839400000003,
          "velocity": 1
        },
        {
          "duration": 0.8571419999999819,
          "durationTicks": 960,
          "midi": 52,
          "name": "E3",
          "ticks": 198720,
          "time": 177.42839400000003,
          "velocity": 1
        },
        {
          "duration": 0.8571419999999819,
          "durationTicks": 960,
          "midi": 45,
          "name": "A2",
          "ticks": 198720,
          "time": 177.42839400000003,
          "velocity": 1
        },
        {
          "duration": 1.7142840000000206,
          "durationTicks": 1920,
          "midi": 68,
          "name": "G#4",
          "ticks": 199680,
          "time": 178.285536,
          "velocity": 1
        },
        {
          "duration": 1.7142840000000206,
          "durationTicks": 1920,
          "midi": 64,
          "name": "E4",
          "ticks": 199680,
          "time": 178.285536,
          "velocity": 1
        },
        {
          "duration": 1.7142840000000206,
          "durationTicks": 1920,
          "midi": 59,
          "name": "B3",
          "ticks": 199680,
          "time": 178.285536,
          "velocity": 1
        },
        {
          "duration": 1.7142840000000206,
          "durationTicks": 1920,
          "midi": 52,
          "name": "E3",
          "ticks": 199680,
          "time": 178.285536,
          "velocity": 1
        },
        {
          "duration": 1.7142840000000206,
          "durationTicks": 1920,
          "midi": 40,
          "name": "E2",
          "ticks": 199680,
          "time": 178.285536,
          "velocity": 1
        },
        {
          "duration": 1.4999984999999754,
          "durationTicks": 1680,
          "midi": 56,
          "name": "G#3",
          "ticks": 201600,
          "time": 179.99982000000003,
          "velocity": 1
        },
        {
          "duration": 1.4999984999999754,
          "durationTicks": 1680,
          "midi": 52,
          "name": "E3",
          "ticks": 201600,
          "time": 179.99982000000003,
          "velocity": 1
        },
        {
          "duration": 1.4999984999999754,
          "durationTicks": 1680,
          "midi": 47,
          "name": "B2",
          "ticks": 201600,
          "time": 179.99982000000003,
          "velocity": 1
        },
        {
          "duration": 1.4999984999999754,
          "durationTicks": 1680,
          "midi": 40,
          "name": "E2",
          "ticks": 201600,
          "time": 179.99982000000003,
          "velocity": 1
        },
        {
          "duration": 0.42857100000000514,
          "durationTicks": 480,
          "midi": 55,
          "name": "G3",
          "ticks": 203280,
          "time": 181.4998185,
          "velocity": 1
        },
        {
          "duration": 0.42857100000000514,
          "durationTicks": 480,
          "midi": 50,
          "name": "D3",
          "ticks": 203280,
          "time": 181.4998185,
          "velocity": 1
        },
        {
          "duration": 0.42857100000000514,
          "durationTicks": 480,
          "midi": 43,
          "name": "G2",
          "ticks": 203280,
          "time": 181.4998185,
          "velocity": 1
        },
        {
          "duration": 1.2857130000000154,
          "durationTicks": 1440,
          "midi": 56,
          "name": "G#3",
          "ticks": 203760,
          "time": 181.9283895,
          "velocity": 1
        },
        {
          "duration": 1.2857130000000154,
          "durationTicks": 1440,
          "midi": 52,
          "name": "E3",
          "ticks": 203760,
          "time": 181.9283895,
          "velocity": 1
        },
        {
          "duration": 1.2857130000000154,
          "durationTicks": 1440,
          "midi": 47,
          "name": "B2",
          "ticks": 203760,
          "time": 181.9283895,
          "velocity": 1
        },
        {
          "duration": 1.2857130000000154,
          "durationTicks": 1440,
          "midi": 40,
          "name": "E2",
          "ticks": 203760,
          "time": 181.9283895,
          "velocity": 1
        },
        {
          "duration": 0.42857100000000514,
          "durationTicks": 480,
          "midi": 57,
          "name": "A3",
          "ticks": 205200,
          "time": 183.21410250000002,
          "velocity": 1
        },
        {
          "duration": 0.42857100000000514,
          "durationTicks": 480,
          "midi": 52,
          "name": "E3",
          "ticks": 205200,
          "time": 183.21410250000002,
          "velocity": 1
        },
        {
          "duration": 0.42857100000000514,
          "durationTicks": 480,
          "midi": 45,
          "name": "A2",
          "ticks": 205200,
          "time": 183.21410250000002,
          "velocity": 1
        },
        {
          "duration": 1.4999984999999754,
          "durationTicks": 1680,
          "midi": 56,
          "name": "G#3",
          "ticks": 205680,
          "time": 183.64267350000003,
          "velocity": 1
        },
        {
          "duration": 1.4999984999999754,
          "durationTicks": 1680,
          "midi": 52,
          "name": "E3",
          "ticks": 205680,
          "time": 183.64267350000003,
          "velocity": 1
        },
        {
          "duration": 1.4999984999999754,
          "durationTicks": 1680,
          "midi": 47,
          "name": "B2",
          "ticks": 205680,
          "time": 183.64267350000003,
          "velocity": 1
        },
        {
          "duration": 1.4999984999999754,
          "durationTicks": 1680,
          "midi": 40,
          "name": "E2",
          "ticks": 205680,
          "time": 183.64267350000003,
          "velocity": 1
        },
        {
          "duration": 0.42857100000000514,
          "durationTicks": 480,
          "midi": 68,
          "name": "G#4",
          "ticks": 207360,
          "time": 185.142672,
          "velocity": 1
        },
        {
          "duration": 0.42857100000000514,
          "durationTicks": 480,
          "midi": 64,
          "name": "E4",
          "ticks": 207360,
          "time": 185.142672,
          "velocity": 1
        },
        {
          "duration": 0.42857100000000514,
          "durationTicks": 480,
          "midi": 59,
          "name": "B3",
          "ticks": 207360,
          "time": 185.142672,
          "velocity": 1
        },
        {
          "duration": 0.42857100000000514,
          "durationTicks": 480,
          "midi": 52,
          "name": "E3",
          "ticks": 207360,
          "time": 185.142672,
          "velocity": 1
        },
        {
          "duration": 0.42857100000000514,
          "durationTicks": 480,
          "midi": 40,
          "name": "E2",
          "ticks": 207360,
          "time": 185.142672,
          "velocity": 1
        },
        {
          "duration": 0.42857100000000514,
          "durationTicks": 480,
          "midi": 50,
          "name": "D3",
          "ticks": 207840,
          "time": 185.571243,
          "velocity": 1
        },
        {
          "duration": 0.42857100000000514,
          "durationTicks": 480,
          "midi": 68,
          "name": "G#4",
          "ticks": 208320,
          "time": 185.99981400000001,
          "velocity": 1
        },
        {
          "duration": 0.42857100000000514,
          "durationTicks": 480,
          "midi": 64,
          "name": "E4",
          "ticks": 208320,
          "time": 185.99981400000001,
          "velocity": 1
        },
        {
          "duration": 0.42857100000000514,
          "durationTicks": 480,
          "midi": 59,
          "name": "B3",
          "ticks": 208320,
          "time": 185.99981400000001,
          "velocity": 1
        },
        {
          "duration": 0.42857100000000514,
          "durationTicks": 480,
          "midi": 52,
          "name": "E3",
          "ticks": 208320,
          "time": 185.99981400000001,
          "velocity": 1
        },
        {
          "duration": 0.42857100000000514,
          "durationTicks": 480,
          "midi": 40,
          "name": "E2",
          "ticks": 208320,
          "time": 185.99981400000001,
          "velocity": 1
        },
        {
          "duration": 0.4285709999999767,
          "durationTicks": 480,
          "midi": 68,
          "name": "G#4",
          "ticks": 209280,
          "time": 186.85695600000003,
          "velocity": 1
        },
        {
          "duration": 0.4285709999999767,
          "durationTicks": 480,
          "midi": 64,
          "name": "E4",
          "ticks": 209280,
          "time": 186.85695600000003,
          "velocity": 1
        },
        {
          "duration": 0.4285709999999767,
          "durationTicks": 480,
          "midi": 59,
          "name": "B3",
          "ticks": 209280,
          "time": 186.85695600000003,
          "velocity": 1
        },
        {
          "duration": 0.4285709999999767,
          "durationTicks": 480,
          "midi": 52,
          "name": "E3",
          "ticks": 209280,
          "time": 186.85695600000003,
          "velocity": 1
        },
        {
          "duration": 0.4285709999999767,
          "durationTicks": 480,
          "midi": 40,
          "name": "E2",
          "ticks": 209280,
          "time": 186.85695600000003,
          "velocity": 1
        },
        {
          "duration": 0.42857100000000514,
          "durationTicks": 480,
          "midi": 68,
          "name": "G#4",
          "ticks": 209760,
          "time": 187.285527,
          "velocity": 1
        },
        {
          "duration": 0.42857100000000514,
          "durationTicks": 480,
          "midi": 64,
          "name": "E4",
          "ticks": 209760,
          "time": 187.285527,
          "velocity": 1
        },
        {
          "duration": 0.42857100000000514,
          "durationTicks": 480,
          "midi": 59,
          "name": "B3",
          "ticks": 209760,
          "time": 187.285527,
          "velocity": 1
        },
        {
          "duration": 0.42857100000000514,
          "durationTicks": 480,
          "midi": 52,
          "name": "E3",
          "ticks": 209760,
          "time": 187.285527,
          "velocity": 1
        },
        {
          "duration": 0.42857100000000514,
          "durationTicks": 480,
          "midi": 40,
          "name": "E2",
          "ticks": 209760,
          "time": 187.285527,
          "velocity": 1
        },
        {
          "duration": 0.42857100000000514,
          "durationTicks": 480,
          "midi": 68,
          "name": "G#4",
          "ticks": 210240,
          "time": 187.714098,
          "velocity": 1
        },
        {
          "duration": 0.42857100000000514,
          "durationTicks": 480,
          "midi": 64,
          "name": "E4",
          "ticks": 210240,
          "time": 187.714098,
          "velocity": 1
        },
        {
          "duration": 0.42857100000000514,
          "durationTicks": 480,
          "midi": 59,
          "name": "B3",
          "ticks": 210240,
          "time": 187.714098,
          "velocity": 1
        },
        {
          "duration": 0.42857100000000514,
          "durationTicks": 480,
          "midi": 52,
          "name": "E3",
          "ticks": 210240,
          "time": 187.714098,
          "velocity": 1
        },
        {
          "duration": 0.42857100000000514,
          "durationTicks": 480,
          "midi": 40,
          "name": "E2",
          "ticks": 210240,
          "time": 187.714098,
          "velocity": 1
        },
        {
          "duration": 0.013392843750011707,
          "durationTicks": 15,
          "midi": 50,
          "name": "D3",
          "ticks": 210720,
          "time": 188.142669,
          "velocity": 1
        },
        {
          "duration": 0.013392843750011707,
          "durationTicks": 15,
          "midi": 45,
          "name": "A2",
          "ticks": 210720,
          "time": 188.142669,
          "velocity": 1
        },
        {
          "duration": 0.013392843750011707,
          "durationTicks": 15,
          "midi": 40,
          "name": "E2",
          "ticks": 210720,
          "time": 188.142669,
          "velocity": 1
        },
        {
          "duration": 0.4285709999999767,
          "durationTicks": 480,
          "midi": 71,
          "name": "B4",
          "ticks": 210960,
          "time": 188.35695450000003,
          "velocity": 1
        },
        {
          "duration": 0.4285709999999767,
          "durationTicks": 480,
          "midi": 67,
          "name": "G4",
          "ticks": 210960,
          "time": 188.35695450000003,
          "velocity": 1
        },
        {
          "duration": 0.4285709999999767,
          "durationTicks": 480,
          "midi": 62,
          "name": "D4",
          "ticks": 210960,
          "time": 188.35695450000003,
          "velocity": 1
        },
        {
          "duration": 0.4285709999999767,
          "durationTicks": 480,
          "midi": 55,
          "name": "G3",
          "ticks": 210960,
          "time": 188.35695450000003,
          "velocity": 1
        },
        {
          "duration": 0.6428565000000219,
          "durationTicks": 720,
          "midi": 68,
          "name": "G#4",
          "ticks": 211440,
          "time": 188.7855255,
          "velocity": 1
        },
        {
          "duration": 0.6428565000000219,
          "durationTicks": 720,
          "midi": 64,
          "name": "E4",
          "ticks": 211440,
          "time": 188.7855255,
          "velocity": 1
        },
        {
          "duration": 0.6428565000000219,
          "durationTicks": 720,
          "midi": 59,
          "name": "B3",
          "ticks": 211440,
          "time": 188.7855255,
          "velocity": 1
        },
        {
          "duration": 0.6428565000000219,
          "durationTicks": 720,
          "midi": 52,
          "name": "E3",
          "ticks": 211440,
          "time": 188.7855255,
          "velocity": 1
        },
        {
          "duration": 0.6428565000000219,
          "durationTicks": 720,
          "midi": 40,
          "name": "E2",
          "ticks": 211440,
          "time": 188.7855255,
          "velocity": 1
        },
        {
          "duration": 0.6428564999999935,
          "durationTicks": 720,
          "midi": 68,
          "name": "G#4",
          "ticks": 212160,
          "time": 189.42838200000003,
          "velocity": 1
        },
        {
          "duration": 0.6428564999999935,
          "durationTicks": 720,
          "midi": 64,
          "name": "E4",
          "ticks": 212160,
          "time": 189.42838200000003,
          "velocity": 1
        },
        {
          "duration": 0.6428564999999935,
          "durationTicks": 720,
          "midi": 59,
          "name": "B3",
          "ticks": 212160,
          "time": 189.42838200000003,
          "velocity": 1
        },
        {
          "duration": 0.6428564999999935,
          "durationTicks": 720,
          "midi": 52,
          "name": "E3",
          "ticks": 212160,
          "time": 189.42838200000003,
          "velocity": 1
        },
        {
          "duration": 0.6428564999999935,
          "durationTicks": 720,
          "midi": 40,
          "name": "E2",
          "ticks": 212160,
          "time": 189.42838200000003,
          "velocity": 1
        },
        {
          "duration": 0.42857100000000514,
          "durationTicks": 480,
          "midi": 69,
          "name": "A4",
          "ticks": 212880,
          "time": 190.07123850000002,
          "velocity": 1
        },
        {
          "duration": 0.42857100000000514,
          "durationTicks": 480,
          "midi": 64,
          "name": "E4",
          "ticks": 212880,
          "time": 190.07123850000002,
          "velocity": 1
        },
        {
          "duration": 0.42857100000000514,
          "durationTicks": 480,
          "midi": 61,
          "name": "C#4",
          "ticks": 212880,
          "time": 190.07123850000002,
          "velocity": 1
        },
        {
          "duration": 0.42857100000000514,
          "durationTicks": 480,
          "midi": 57,
          "name": "A3",
          "ticks": 212880,
          "time": 190.07123850000002,
          "velocity": 1
        },
        {
          "duration": 0.42857100000000514,
          "durationTicks": 480,
          "midi": 52,
          "name": "E3",
          "ticks": 212880,
          "time": 190.07123850000002,
          "velocity": 1
        },
        {
          "duration": 0.42857100000000514,
          "durationTicks": 480,
          "midi": 45,
          "name": "A2",
          "ticks": 212880,
          "time": 190.07123850000002,
          "velocity": 1
        },
        {
          "duration": 0.6428564999999935,
          "durationTicks": 720,
          "midi": 68,
          "name": "G#4",
          "ticks": 213360,
          "time": 190.49980950000003,
          "velocity": 1
        },
        {
          "duration": 0.6428564999999935,
          "durationTicks": 720,
          "midi": 64,
          "name": "E4",
          "ticks": 213360,
          "time": 190.49980950000003,
          "velocity": 1
        },
        {
          "duration": 0.6428564999999935,
          "durationTicks": 720,
          "midi": 59,
          "name": "B3",
          "ticks": 213360,
          "time": 190.49980950000003,
          "velocity": 1
        },
        {
          "duration": 0.6428564999999935,
          "durationTicks": 720,
          "midi": 52,
          "name": "E3",
          "ticks": 213360,
          "time": 190.49980950000003,
          "velocity": 1
        },
        {
          "duration": 0.6428564999999935,
          "durationTicks": 720,
          "midi": 40,
          "name": "E2",
          "ticks": 213360,
          "time": 190.49980950000003,
          "velocity": 1
        },
        {
          "duration": 0.42857100000000514,
          "durationTicks": 480,
          "midi": 68,
          "name": "G#4",
          "ticks": 214080,
          "time": 191.14266600000002,
          "velocity": 1
        },
        {
          "duration": 0.42857100000000514,
          "durationTicks": 480,
          "midi": 64,
          "name": "E4",
          "ticks": 214080,
          "time": 191.14266600000002,
          "velocity": 1
        },
        {
          "duration": 0.42857100000000514,
          "durationTicks": 480,
          "midi": 59,
          "name": "B3",
          "ticks": 214080,
          "time": 191.14266600000002,
          "velocity": 1
        },
        {
          "duration": 0.42857100000000514,
          "durationTicks": 480,
          "midi": 52,
          "name": "E3",
          "ticks": 214080,
          "time": 191.14266600000002,
          "velocity": 1
        },
        {
          "duration": 0.42857100000000514,
          "durationTicks": 480,
          "midi": 40,
          "name": "E2",
          "ticks": 214080,
          "time": 191.14266600000002,
          "velocity": 1
        },
        {
          "duration": 0.21428549999998836,
          "durationTicks": 240,
          "midi": 68,
          "name": "G#4",
          "ticks": 214560,
          "time": 191.57123700000002,
          "velocity": 1
        },
        {
          "duration": 0.21428549999998836,
          "durationTicks": 240,
          "midi": 64,
          "name": "E4",
          "ticks": 214560,
          "time": 191.57123700000002,
          "velocity": 1
        },
        {
          "duration": 0.21428549999998836,
          "durationTicks": 240,
          "midi": 59,
          "name": "B3",
          "ticks": 214560,
          "time": 191.57123700000002,
          "velocity": 1
        },
        {
          "duration": 0.21428549999998836,
          "durationTicks": 240,
          "midi": 52,
          "name": "E3",
          "ticks": 214560,
          "time": 191.57123700000002,
          "velocity": 1
        },
        {
          "duration": 0.21428549999998836,
          "durationTicks": 240,
          "midi": 40,
          "name": "E2",
          "ticks": 214560,
          "time": 191.57123700000002,
          "velocity": 1
        },
        {
          "duration": 0.10714275000000839,
          "durationTicks": 120,
          "midi": 68,
          "name": "G#4",
          "ticks": 214800,
          "time": 191.7855225,
          "velocity": 1
        },
        {
          "duration": 0.10714275000000839,
          "durationTicks": 120,
          "midi": 64,
          "name": "E4",
          "ticks": 214800,
          "time": 191.7855225,
          "velocity": 1
        },
        {
          "duration": 0.10714275000000839,
          "durationTicks": 120,
          "midi": 59,
          "name": "B3",
          "ticks": 214800,
          "time": 191.7855225,
          "velocity": 1
        },
        {
          "duration": 0.10714275000000839,
          "durationTicks": 120,
          "midi": 52,
          "name": "E3",
          "ticks": 214800,
          "time": 191.7855225,
          "velocity": 1
        },
        {
          "duration": 0.10714275000000839,
          "durationTicks": 120,
          "midi": 40,
          "name": "E2",
          "ticks": 214800,
          "time": 191.7855225,
          "velocity": 1
        },
        {
          "duration": 0.10714275000000839,
          "durationTicks": 120,
          "midi": 68,
          "name": "G#4",
          "ticks": 214920,
          "time": 191.89266525000002,
          "velocity": 1
        },
        {
          "duration": 0.10714275000000839,
          "durationTicks": 120,
          "midi": 64,
          "name": "E4",
          "ticks": 214920,
          "time": 191.89266525000002,
          "velocity": 1
        },
        {
          "duration": 0.10714275000000839,
          "durationTicks": 120,
          "midi": 59,
          "name": "B3",
          "ticks": 214920,
          "time": 191.89266525000002,
          "velocity": 1
        },
        {
          "duration": 0.10714275000000839,
          "durationTicks": 120,
          "midi": 52,
          "name": "E3",
          "ticks": 214920,
          "time": 191.89266525000002,
          "velocity": 1
        },
        {
          "duration": 0.10714275000000839,
          "durationTicks": 120,
          "midi": 40,
          "name": "E2",
          "ticks": 214920,
          "time": 191.89266525000002,
          "velocity": 1
        },
        {
          "duration": 0.4285709999999767,
          "durationTicks": 480,
          "midi": 68,
          "name": "G#4",
          "ticks": 215040,
          "time": 191.99980800000003,
          "velocity": 1
        },
        {
          "duration": 0.4285709999999767,
          "durationTicks": 480,
          "midi": 64,
          "name": "E4",
          "ticks": 215040,
          "time": 191.99980800000003,
          "velocity": 1
        },
        {
          "duration": 0.4285709999999767,
          "durationTicks": 480,
          "midi": 59,
          "name": "B3",
          "ticks": 215040,
          "time": 191.99980800000003,
          "velocity": 1
        },
        {
          "duration": 0.4285709999999767,
          "durationTicks": 480,
          "midi": 52,
          "name": "E3",
          "ticks": 215040,
          "time": 191.99980800000003,
          "velocity": 1
        },
        {
          "duration": 0.4285709999999767,
          "durationTicks": 480,
          "midi": 40,
          "name": "E2",
          "ticks": 215040,
          "time": 191.99980800000003,
          "velocity": 1
        },
        {
          "duration": 0.42857100000000514,
          "durationTicks": 480,
          "midi": 66,
          "name": "F#4",
          "ticks": 215520,
          "time": 192.428379,
          "velocity": 1
        },
        {
          "duration": 0.42857100000000514,
          "durationTicks": 480,
          "midi": 62,
          "name": "D4",
          "ticks": 215520,
          "time": 192.428379,
          "velocity": 1
        },
        {
          "duration": 0.42857100000000514,
          "durationTicks": 480,
          "midi": 57,
          "name": "A3",
          "ticks": 215520,
          "time": 192.428379,
          "velocity": 1
        },
        {
          "duration": 0.42857100000000514,
          "durationTicks": 480,
          "midi": 50,
          "name": "D3",
          "ticks": 215520,
          "time": 192.428379,
          "velocity": 1
        },
        {
          "duration": 0.42857100000000514,
          "durationTicks": 480,
          "midi": 68,
          "name": "G#4",
          "ticks": 216000,
          "time": 192.85695,
          "velocity": 1
        },
        {
          "duration": 0.42857100000000514,
          "durationTicks": 480,
          "midi": 64,
          "name": "E4",
          "ticks": 216000,
          "time": 192.85695,
          "velocity": 1
        },
        {
          "duration": 0.42857100000000514,
          "durationTicks": 480,
          "midi": 59,
          "name": "B3",
          "ticks": 216000,
          "time": 192.85695,
          "velocity": 1
        },
        {
          "duration": 0.42857100000000514,
          "durationTicks": 480,
          "midi": 52,
          "name": "E3",
          "ticks": 216000,
          "time": 192.85695,
          "velocity": 1
        },
        {
          "duration": 0.42857100000000514,
          "durationTicks": 480,
          "midi": 40,
          "name": "E2",
          "ticks": 216000,
          "time": 192.85695,
          "velocity": 1
        },
        {
          "duration": 0.21428550000001678,
          "durationTicks": 240,
          "midi": 68,
          "name": "G#4",
          "ticks": 216720,
          "time": 193.4998065,
          "velocity": 1
        },
        {
          "duration": 0.21428550000001678,
          "durationTicks": 240,
          "midi": 64,
          "name": "E4",
          "ticks": 216720,
          "time": 193.4998065,
          "velocity": 1
        },
        {
          "duration": 0.21428550000001678,
          "durationTicks": 240,
          "midi": 59,
          "name": "B3",
          "ticks": 216720,
          "time": 193.4998065,
          "velocity": 1
        },
        {
          "duration": 0.21428550000001678,
          "durationTicks": 240,
          "midi": 52,
          "name": "E3",
          "ticks": 216720,
          "time": 193.4998065,
          "velocity": 1
        },
        {
          "duration": 0.21428550000001678,
          "durationTicks": 240,
          "midi": 40,
          "name": "E2",
          "ticks": 216720,
          "time": 193.4998065,
          "velocity": 1
        },
        {
          "duration": 0.42857100000000514,
          "durationTicks": 480,
          "midi": 68,
          "name": "G#4",
          "ticks": 216960,
          "time": 193.71409200000002,
          "velocity": 1
        },
        {
          "duration": 0.42857100000000514,
          "durationTicks": 480,
          "midi": 64,
          "name": "E4",
          "ticks": 216960,
          "time": 193.71409200000002,
          "velocity": 1
        },
        {
          "duration": 0.42857100000000514,
          "durationTicks": 480,
          "midi": 59,
          "name": "B3",
          "ticks": 216960,
          "time": 193.71409200000002,
          "velocity": 1
        },
        {
          "duration": 0.42857100000000514,
          "durationTicks": 480,
          "midi": 52,
          "name": "E3",
          "ticks": 216960,
          "time": 193.71409200000002,
          "velocity": 1
        },
        {
          "duration": 0.42857100000000514,
          "durationTicks": 480,
          "midi": 40,
          "name": "E2",
          "ticks": 216960,
          "time": 193.71409200000002,
          "velocity": 1
        },
        {
          "duration": 0.4285709999999767,
          "durationTicks": 480,
          "midi": 68,
          "name": "G#4",
          "ticks": 217440,
          "time": 194.14266300000003,
          "velocity": 1
        },
        {
          "duration": 0.4285709999999767,
          "durationTicks": 480,
          "midi": 64,
          "name": "E4",
          "ticks": 217440,
          "time": 194.14266300000003,
          "velocity": 1
        },
        {
          "duration": 0.4285709999999767,
          "durationTicks": 480,
          "midi": 59,
          "name": "B3",
          "ticks": 217440,
          "time": 194.14266300000003,
          "velocity": 1
        },
        {
          "duration": 0.4285709999999767,
          "durationTicks": 480,
          "midi": 52,
          "name": "E3",
          "ticks": 217440,
          "time": 194.14266300000003,
          "velocity": 1
        },
        {
          "duration": 0.4285709999999767,
          "durationTicks": 480,
          "midi": 40,
          "name": "E2",
          "ticks": 217440,
          "time": 194.14266300000003,
          "velocity": 1
        },
        {
          "duration": 0.42857100000000514,
          "durationTicks": 480,
          "midi": 68,
          "name": "G#4",
          "ticks": 217920,
          "time": 194.571234,
          "velocity": 1
        },
        {
          "duration": 0.42857100000000514,
          "durationTicks": 480,
          "midi": 64,
          "name": "E4",
          "ticks": 217920,
          "time": 194.571234,
          "velocity": 1
        },
        {
          "duration": 0.42857100000000514,
          "durationTicks": 480,
          "midi": 59,
          "name": "B3",
          "ticks": 217920,
          "time": 194.571234,
          "velocity": 1
        },
        {
          "duration": 0.42857100000000514,
          "durationTicks": 480,
          "midi": 52,
          "name": "E3",
          "ticks": 217920,
          "time": 194.571234,
          "velocity": 1
        },
        {
          "duration": 0.42857100000000514,
          "durationTicks": 480,
          "midi": 40,
          "name": "E2",
          "ticks": 217920,
          "time": 194.571234,
          "velocity": 1
        },
        {
          "duration": 0.013392843750011707,
          "durationTicks": 15,
          "midi": 50,
          "name": "D3",
          "ticks": 218400,
          "time": 194.999805,
          "velocity": 1
        },
        {
          "duration": 0.013392843750011707,
          "durationTicks": 15,
          "midi": 45,
          "name": "A2",
          "ticks": 218400,
          "time": 194.999805,
          "velocity": 1
        },
        {
          "duration": 0.013392843750011707,
          "durationTicks": 15,
          "midi": 40,
          "name": "E2",
          "ticks": 218400,
          "time": 194.999805,
          "velocity": 1
        },
        {
          "duration": 0.4285709999999767,
          "durationTicks": 480,
          "midi": 71,
          "name": "B4",
          "ticks": 218640,
          "time": 195.21409050000003,
          "velocity": 1
        },
        {
          "duration": 0.4285709999999767,
          "durationTicks": 480,
          "midi": 67,
          "name": "G4",
          "ticks": 218640,
          "time": 195.21409050000003,
          "velocity": 1
        },
        {
          "duration": 0.4285709999999767,
          "durationTicks": 480,
          "midi": 62,
          "name": "D4",
          "ticks": 218640,
          "time": 195.21409050000003,
          "velocity": 1
        },
        {
          "duration": 0.4285709999999767,
          "durationTicks": 480,
          "midi": 55,
          "name": "G3",
          "ticks": 218640,
          "time": 195.21409050000003,
          "velocity": 1
        },
        {
          "duration": 0.6428565000000219,
          "durationTicks": 720,
          "midi": 68,
          "name": "G#4",
          "ticks": 219120,
          "time": 195.6426615,
          "velocity": 1
        },
        {
          "duration": 0.6428565000000219,
          "durationTicks": 720,
          "midi": 64,
          "name": "E4",
          "ticks": 219120,
          "time": 195.6426615,
          "velocity": 1
        },
        {
          "duration": 0.6428565000000219,
          "durationTicks": 720,
          "midi": 59,
          "name": "B3",
          "ticks": 219120,
          "time": 195.6426615,
          "velocity": 1
        },
        {
          "duration": 0.6428565000000219,
          "durationTicks": 720,
          "midi": 52,
          "name": "E3",
          "ticks": 219120,
          "time": 195.6426615,
          "velocity": 1
        },
        {
          "duration": 0.6428565000000219,
          "durationTicks": 720,
          "midi": 40,
          "name": "E2",
          "ticks": 219120,
          "time": 195.6426615,
          "velocity": 1
        },
        {
          "duration": 0.6428564999999935,
          "durationTicks": 720,
          "midi": 68,
          "name": "G#4",
          "ticks": 219840,
          "time": 196.28551800000002,
          "velocity": 1
        },
        {
          "duration": 0.6428564999999935,
          "durationTicks": 720,
          "midi": 64,
          "name": "E4",
          "ticks": 219840,
          "time": 196.28551800000002,
          "velocity": 1
        },
        {
          "duration": 0.6428564999999935,
          "durationTicks": 720,
          "midi": 59,
          "name": "B3",
          "ticks": 219840,
          "time": 196.28551800000002,
          "velocity": 1
        },
        {
          "duration": 0.6428564999999935,
          "durationTicks": 720,
          "midi": 52,
          "name": "E3",
          "ticks": 219840,
          "time": 196.28551800000002,
          "velocity": 1
        },
        {
          "duration": 0.6428564999999935,
          "durationTicks": 720,
          "midi": 40,
          "name": "E2",
          "ticks": 219840,
          "time": 196.28551800000002,
          "velocity": 1
        },
        {
          "duration": 0.42857100000000514,
          "durationTicks": 480,
          "midi": 69,
          "name": "A4",
          "ticks": 220560,
          "time": 196.92837450000002,
          "velocity": 1
        },
        {
          "duration": 0.42857100000000514,
          "durationTicks": 480,
          "midi": 64,
          "name": "E4",
          "ticks": 220560,
          "time": 196.92837450000002,
          "velocity": 1
        },
        {
          "duration": 0.42857100000000514,
          "durationTicks": 480,
          "midi": 61,
          "name": "C#4",
          "ticks": 220560,
          "time": 196.92837450000002,
          "velocity": 1
        },
        {
          "duration": 0.42857100000000514,
          "durationTicks": 480,
          "midi": 57,
          "name": "A3",
          "ticks": 220560,
          "time": 196.92837450000002,
          "velocity": 1
        },
        {
          "duration": 0.42857100000000514,
          "durationTicks": 480,
          "midi": 52,
          "name": "E3",
          "ticks": 220560,
          "time": 196.92837450000002,
          "velocity": 1
        },
        {
          "duration": 0.42857100000000514,
          "durationTicks": 480,
          "midi": 45,
          "name": "A2",
          "ticks": 220560,
          "time": 196.92837450000002,
          "velocity": 1
        },
        {
          "duration": 0.6428564999999935,
          "durationTicks": 720,
          "midi": 68,
          "name": "G#4",
          "ticks": 221040,
          "time": 197.35694550000002,
          "velocity": 1
        },
        {
          "duration": 0.6428564999999935,
          "durationTicks": 720,
          "midi": 64,
          "name": "E4",
          "ticks": 221040,
          "time": 197.35694550000002,
          "velocity": 1
        },
        {
          "duration": 0.6428564999999935,
          "durationTicks": 720,
          "midi": 59,
          "name": "B3",
          "ticks": 221040,
          "time": 197.35694550000002,
          "velocity": 1
        },
        {
          "duration": 0.6428564999999935,
          "durationTicks": 720,
          "midi": 52,
          "name": "E3",
          "ticks": 221040,
          "time": 197.35694550000002,
          "velocity": 1
        },
        {
          "duration": 0.6428564999999935,
          "durationTicks": 720,
          "midi": 40,
          "name": "E2",
          "ticks": 221040,
          "time": 197.35694550000002,
          "velocity": 1
        },
        {
          "duration": 0.42857100000000514,
          "durationTicks": 480,
          "midi": 68,
          "name": "G#4",
          "ticks": 221760,
          "time": 197.99980200000002,
          "velocity": 1
        },
        {
          "duration": 0.42857100000000514,
          "durationTicks": 480,
          "midi": 64,
          "name": "E4",
          "ticks": 221760,
          "time": 197.99980200000002,
          "velocity": 1
        },
        {
          "duration": 0.42857100000000514,
          "durationTicks": 480,
          "midi": 59,
          "name": "B3",
          "ticks": 221760,
          "time": 197.99980200000002,
          "velocity": 1
        },
        {
          "duration": 0.42857100000000514,
          "durationTicks": 480,
          "midi": 52,
          "name": "E3",
          "ticks": 221760,
          "time": 197.99980200000002,
          "velocity": 1
        },
        {
          "duration": 0.42857100000000514,
          "durationTicks": 480,
          "midi": 40,
          "name": "E2",
          "ticks": 221760,
          "time": 197.99980200000002,
          "velocity": 1
        },
        {
          "duration": 0.21428549999998836,
          "durationTicks": 240,
          "midi": 68,
          "name": "G#4",
          "ticks": 222240,
          "time": 198.42837300000002,
          "velocity": 1
        },
        {
          "duration": 0.21428549999998836,
          "durationTicks": 240,
          "midi": 64,
          "name": "E4",
          "ticks": 222240,
          "time": 198.42837300000002,
          "velocity": 1
        },
        {
          "duration": 0.21428549999998836,
          "durationTicks": 240,
          "midi": 59,
          "name": "B3",
          "ticks": 222240,
          "time": 198.42837300000002,
          "velocity": 1
        },
        {
          "duration": 0.21428549999998836,
          "durationTicks": 240,
          "midi": 52,
          "name": "E3",
          "ticks": 222240,
          "time": 198.42837300000002,
          "velocity": 1
        },
        {
          "duration": 0.21428549999998836,
          "durationTicks": 240,
          "midi": 40,
          "name": "E2",
          "ticks": 222240,
          "time": 198.42837300000002,
          "velocity": 1
        },
        {
          "duration": 0.10714275000000839,
          "durationTicks": 120,
          "midi": 68,
          "name": "G#4",
          "ticks": 222480,
          "time": 198.6426585,
          "velocity": 1
        },
        {
          "duration": 0.10714275000000839,
          "durationTicks": 120,
          "midi": 64,
          "name": "E4",
          "ticks": 222480,
          "time": 198.6426585,
          "velocity": 1
        },
        {
          "duration": 0.10714275000000839,
          "durationTicks": 120,
          "midi": 59,
          "name": "B3",
          "ticks": 222480,
          "time": 198.6426585,
          "velocity": 1
        },
        {
          "duration": 0.10714275000000839,
          "durationTicks": 120,
          "midi": 52,
          "name": "E3",
          "ticks": 222480,
          "time": 198.6426585,
          "velocity": 1
        },
        {
          "duration": 0.10714275000000839,
          "durationTicks": 120,
          "midi": 40,
          "name": "E2",
          "ticks": 222480,
          "time": 198.6426585,
          "velocity": 1
        },
        {
          "duration": 0.10714275000000839,
          "durationTicks": 120,
          "midi": 68,
          "name": "G#4",
          "ticks": 222600,
          "time": 198.74980125000002,
          "velocity": 1
        },
        {
          "duration": 0.10714275000000839,
          "durationTicks": 120,
          "midi": 64,
          "name": "E4",
          "ticks": 222600,
          "time": 198.74980125000002,
          "velocity": 1
        },
        {
          "duration": 0.10714275000000839,
          "durationTicks": 120,
          "midi": 59,
          "name": "B3",
          "ticks": 222600,
          "time": 198.74980125000002,
          "velocity": 1
        },
        {
          "duration": 0.10714275000000839,
          "durationTicks": 120,
          "midi": 52,
          "name": "E3",
          "ticks": 222600,
          "time": 198.74980125000002,
          "velocity": 1
        },
        {
          "duration": 0.10714275000000839,
          "durationTicks": 120,
          "midi": 40,
          "name": "E2",
          "ticks": 222600,
          "time": 198.74980125000002,
          "velocity": 1
        },
        {
          "duration": 0.4285709999999767,
          "durationTicks": 480,
          "midi": 68,
          "name": "G#4",
          "ticks": 222720,
          "time": 198.85694400000003,
          "velocity": 1
        },
        {
          "duration": 0.4285709999999767,
          "durationTicks": 480,
          "midi": 64,
          "name": "E4",
          "ticks": 222720,
          "time": 198.85694400000003,
          "velocity": 1
        },
        {
          "duration": 0.4285709999999767,
          "durationTicks": 480,
          "midi": 59,
          "name": "B3",
          "ticks": 222720,
          "time": 198.85694400000003,
          "velocity": 1
        },
        {
          "duration": 0.4285709999999767,
          "durationTicks": 480,
          "midi": 52,
          "name": "E3",
          "ticks": 222720,
          "time": 198.85694400000003,
          "velocity": 1
        },
        {
          "duration": 0.4285709999999767,
          "durationTicks": 480,
          "midi": 40,
          "name": "E2",
          "ticks": 222720,
          "time": 198.85694400000003,
          "velocity": 1
        },
        {
          "duration": 0.42857100000000514,
          "durationTicks": 480,
          "midi": 66,
          "name": "F#4",
          "ticks": 223200,
          "time": 199.285515,
          "velocity": 1
        },
        {
          "duration": 0.42857100000000514,
          "durationTicks": 480,
          "midi": 62,
          "name": "D4",
          "ticks": 223200,
          "time": 199.285515,
          "velocity": 1
        },
        {
          "duration": 0.42857100000000514,
          "durationTicks": 480,
          "midi": 57,
          "name": "A3",
          "ticks": 223200,
          "time": 199.285515,
          "velocity": 1
        },
        {
          "duration": 0.42857100000000514,
          "durationTicks": 480,
          "midi": 50,
          "name": "D3",
          "ticks": 223200,
          "time": 199.285515,
          "velocity": 1
        },
        {
          "duration": 0.8571420000000103,
          "durationTicks": 960,
          "midi": 68,
          "name": "G#4",
          "ticks": 223680,
          "time": 199.714086,
          "velocity": 1
        },
        {
          "duration": 0.8571420000000103,
          "durationTicks": 960,
          "midi": 64,
          "name": "E4",
          "ticks": 223680,
          "time": 199.714086,
          "velocity": 1
        },
        {
          "duration": 0.8571420000000103,
          "durationTicks": 960,
          "midi": 59,
          "name": "B3",
          "ticks": 223680,
          "time": 199.714086,
          "velocity": 1
        },
        {
          "duration": 0.8571420000000103,
          "durationTicks": 960,
          "midi": 52,
          "name": "E3",
          "ticks": 223680,
          "time": 199.714086,
          "velocity": 1
        },
        {
          "duration": 0.8571420000000103,
          "durationTicks": 960,
          "midi": 40,
          "name": "E2",
          "ticks": 223680,
          "time": 199.714086,
          "velocity": 1
        }
      ]
    },
    {
      "channel": 1,
      "controlChanges": {
        "6": [
          {
            "number": 6,
            "ticks": 37920,
            "time": 33.857109,
            "value": 0.25196850393700787
          },
          {
            "number": 6,
            "ticks": 45600,
            "time": 40.714245000000005,
            "value": 0.25196850393700787
          },
          {
            "number": 6,
            "ticks": 53280,
            "time": 47.571381,
            "value": 0.25196850393700787
          },
          {
            "number": 6,
            "ticks": 55200,
            "time": 49.285665,
            "value": 0.25196850393700787
          },
          {
            "number": 6,
            "ticks": 57120,
            "time": 50.999949,
            "value": 0.25196850393700787
          },
          {
            "number": 6,
            "ticks": 59040,
            "time": 52.71423300000001,
            "value": 0.25196850393700787
          },
          {
            "number": 6,
            "ticks": 80160,
            "time": 71.571357,
            "value": 0.25196850393700787
          },
          {
            "number": 6,
            "ticks": 87840,
            "time": 78.428493,
            "value": 0.25196850393700787
          },
          {
            "number": 6,
            "ticks": 95520,
            "time": 85.285629,
            "value": 0.25196850393700787
          },
          {
            "number": 6,
            "ticks": 103200,
            "time": 92.14276500000001,
            "value": 0.25196850393700787
          },
          {
            "number": 6,
            "ticks": 105120,
            "time": 93.857049,
            "value": 0.25196850393700787
          },
          {
            "number": 6,
            "ticks": 107040,
            "time": 95.57133300000001,
            "value": 0.25196850393700787
          },
          {
            "number": 6,
            "ticks": 108960,
            "time": 97.285617,
            "value": 0.25196850393700787
          },
          {
            "number": 6,
            "ticks": 164640,
            "time": 146.999853,
            "value": 0.25196850393700787
          },
          {
            "number": 6,
            "ticks": 172320,
            "time": 153.856989,
            "value": 0.25196850393700787
          },
          {
            "number": 6,
            "ticks": 180000,
            "time": 160.71412500000002,
            "value": 0.25196850393700787
          },
          {
            "number": 6,
            "ticks": 181920,
            "time": 162.42840900000002,
            "value": 0.25196850393700787
          },
          {
            "number": 6,
            "ticks": 183840,
            "time": 164.142693,
            "value": 0.25196850393700787
          },
          {
            "number": 6,
            "ticks": 185760,
            "time": 165.856977,
            "value": 0.25196850393700787
          }
        ]
      },
      "pitchBends": [
        {
          "ticks": 38040,
          "time": 33.96425175,
          "value": 0.03125
        },
        {
          "ticks": 38040,
          "time": 33.96425175,
          "value": 0.03125
        },
        {
          "ticks": 38040,
          "time": 33.96425175,
          "value": 0.03125
        },
        {
          "ticks": 38040,
          "time": 33.96425175,
          "value": 0.03125
        },
        {
          "ticks": 38160,
          "time": 34.071394500000004,
          "value": 0
        },
        {
          "ticks": 45720,
          "time": 40.82138775000001,
          "value": 0.03125
        },
        {
          "ticks": 45720,
          "time": 40.82138775000001,
          "value": 0.03125
        },
        {
          "ticks": 45720,
          "time": 40.82138775000001,
          "value": 0.03125
        },
        {
          "ticks": 45720,
          "time": 40.82138775000001,
          "value": 0.03125
        },
        {
          "ticks": 45840,
          "time": 40.9285305,
          "value": 0
        },
        {
          "ticks": 53400,
          "time": 47.678523750000004,
          "value": 0.03125
        },
        {
          "ticks": 53400,
          "time": 47.678523750000004,
          "value": 0.03125
        },
        {
          "ticks": 53400,
          "time": 47.678523750000004,
          "value": 0.03125
        },
        {
          "ticks": 53400,
          "time": 47.678523750000004,
          "value": 0.03125
        },
        {
          "ticks": 53520,
          "time": 47.785666500000005,
          "value": 0
        },
        {
          "ticks": 55320,
          "time": 49.39280775,
          "value": 0.03125
        },
        {
          "ticks": 55320,
          "time": 49.39280775,
          "value": 0.03125
        },
        {
          "ticks": 55320,
          "time": 49.39280775,
          "value": 0.03125
        },
        {
          "ticks": 55320,
          "time": 49.39280775,
          "value": 0.03125
        },
        {
          "ticks": 55440,
          "time": 49.499950500000004,
          "value": 0
        },
        {
          "ticks": 57240,
          "time": 51.10709175,
          "value": 0.03125
        },
        {
          "ticks": 57240,
          "time": 51.10709175,
          "value": 0.03125
        },
        {
          "ticks": 57240,
          "time": 51.10709175,
          "value": 0.03125
        },
        {
          "ticks": 57240,
          "time": 51.10709175,
          "value": 0.03125
        },
        {
          "ticks": 57360,
          "time": 51.2142345,
          "value": 0
        },
        {
          "ticks": 59160,
          "time": 52.82137575,
          "value": 0.03125
        },
        {
          "ticks": 59160,
          "time": 52.82137575,
          "value": 0.03125
        },
        {
          "ticks": 59160,
          "time": 52.82137575,
          "value": 0.03125
        },
        {
          "ticks": 59160,
          "time": 52.82137575,
          "value": 0.03125
        },
        {
          "ticks": 59280,
          "time": 52.9285185,
          "value": 0
        },
        {
          "ticks": 80280,
          "time": 71.67849975,
          "value": 0.03125
        },
        {
          "ticks": 80280,
          "time": 71.67849975,
          "value": 0.03125
        },
        {
          "ticks": 80280,
          "time": 71.67849975,
          "value": 0.03125
        },
        {
          "ticks": 80280,
          "time": 71.67849975,
          "value": 0.03125
        },
        {
          "ticks": 80400,
          "time": 71.78564250000001,
          "value": 0
        },
        {
          "ticks": 87960,
          "time": 78.53563575000001,
          "value": 0.03125
        },
        {
          "ticks": 87960,
          "time": 78.53563575000001,
          "value": 0.03125
        },
        {
          "ticks": 87960,
          "time": 78.53563575000001,
          "value": 0.03125
        },
        {
          "ticks": 87960,
          "time": 78.53563575000001,
          "value": 0.03125
        },
        {
          "ticks": 88080,
          "time": 78.6427785,
          "value": 0
        },
        {
          "ticks": 95640,
          "time": 85.39277175000001,
          "value": 0.03125
        },
        {
          "ticks": 95640,
          "time": 85.39277175000001,
          "value": 0.03125
        },
        {
          "ticks": 95640,
          "time": 85.39277175000001,
          "value": 0.03125
        },
        {
          "ticks": 95640,
          "time": 85.39277175000001,
          "value": 0.03125
        },
        {
          "ticks": 95760,
          "time": 85.4999145,
          "value": 0
        },
        {
          "ticks": 103320,
          "time": 92.24990775,
          "value": 0.03125
        },
        {
          "ticks": 103320,
          "time": 92.24990775,
          "value": 0.03125
        },
        {
          "ticks": 103320,
          "time": 92.24990775,
          "value": 0.03125
        },
        {
          "ticks": 103320,
          "time": 92.24990775,
          "value": 0.03125
        },
        {
          "ticks": 103440,
          "time": 92.35705050000001,
          "value": 0
        },
        {
          "ticks": 105240,
          "time": 93.96419175000001,
          "value": 0.03125
        },
        {
          "ticks": 105240,
          "time": 93.96419175000001,
          "value": 0.03125
        },
        {
          "ticks": 105240,
          "time": 93.96419175000001,
          "value": 0.03125
        },
        {
          "ticks": 105240,
          "time": 93.96419175000001,
          "value": 0.03125
        },
        {
          "ticks": 105360,
          "time": 94.0713345,
          "value": 0
        },
        {
          "ticks": 107160,
          "time": 95.67847575,
          "value": 0.03125
        },
        {
          "ticks": 107160,
          "time": 95.67847575,
          "value": 0.03125
        },
        {
          "ticks": 107160,
          "time": 95.67847575,
          "value": 0.03125
        },
        {
          "ticks": 107160,
          "time": 95.67847575,
          "value": 0.03125
        },
        {
          "ticks": 107280,
          "time": 95.78561850000001,
          "value": 0
        },
        {
          "ticks": 109080,
          "time": 97.39275975000001,
          "value": 0.03125
        },
        {
          "ticks": 109080,
          "time": 97.39275975000001,
          "value": 0.03125
        },
        {
          "ticks": 109080,
          "time": 97.39275975000001,
          "value": 0.03125
        },
        {
          "ticks": 109080,
          "time": 97.39275975000001,
          "value": 0.03125
        },
        {
          "ticks": 109200,
          "time": 97.4999025,
          "value": 0
        },
        {
          "ticks": 164760,
          "time": 147.10699575,
          "value": 0.03125
        },
        {
          "ticks": 164760,
          "time": 147.10699575,
          "value": 0.03125
        },
        {
          "ticks": 164760,
          "time": 147.10699575,
          "value": 0.03125
        },
        {
          "ticks": 164760,
          "time": 147.10699575,
          "value": 0.03125
        },
        {
          "ticks": 164880,
          "time": 147.21413850000002,
          "value": 0
        },
        {
          "ticks": 172440,
          "time": 153.96413175,
          "value": 0.03125
        },
        {
          "ticks": 172440,
          "time": 153.96413175,
          "value": 0.03125
        },
        {
          "ticks": 172440,
          "time": 153.96413175,
          "value": 0.03125
        },
        {
          "ticks": 172440,
          "time": 153.96413175,
          "value": 0.03125
        },
        {
          "ticks": 172560,
          "time": 154.07127450000002,
          "value": 0
        },
        {
          "ticks": 180120,
          "time": 160.82126775,
          "value": 0.03125
        },
        {
          "ticks": 180120,
          "time": 160.82126775,
          "value": 0.03125
        },
        {
          "ticks": 180120,
          "time": 160.82126775,
          "value": 0.03125
        },
        {
          "ticks": 180120,
          "time": 160.82126775,
          "value": 0.03125
        },
        {
          "ticks": 180240,
          "time": 160.9284105,
          "value": 0
        },
        {
          "ticks": 182040,
          "time": 162.53555175000002,
          "value": 0.03125
        },
        {
          "ticks": 182040,
          "time": 162.53555175000002,
          "value": 0.03125
        },
        {
          "ticks": 182040,
          "time": 162.53555175000002,
          "value": 0.03125
        },
        {
          "ticks": 182040,
          "time": 162.53555175000002,
          "value": 0.03125
        },
        {
          "ticks": 182160,
          "time": 162.6426945,
          "value": 0
        },
        {
          "ticks": 183960,
          "time": 164.24983575000002,
          "value": 0.03125
        },
        {
          "ticks": 183960,
          "time": 164.24983575000002,
          "value": 0.03125
        },
        {
          "ticks": 183960,
          "time": 164.24983575000002,
          "value": 0.03125
        },
        {
          "ticks": 183960,
          "time": 164.24983575000002,
          "value": 0.03125
        },
        {
          "ticks": 184080,
          "time": 164.35697850000003,
          "value": 0
        },
        {
          "ticks": 185880,
          "time": 165.96411975,
          "value": 0.03125
        },
        {
          "ticks": 185880,
          "time": 165.96411975,
          "value": 0.03125
        },
        {
          "ticks": 185880,
          "time": 165.96411975,
          "value": 0.03125
        },
        {
          "ticks": 185880,
          "time": 165.96411975,
          "value": 0.03125
        },
        {
          "ticks": 186000,
          "time": 166.07126250000002,
          "value": 0
        }
      ],
      "instrument": {
        "family": "guitar",
        "number": 29,
        "name": "overdriven guitar"
      },
      "name": "",
      "notes": [
        {
          "duration": 0.21428550000000257,
          "durationTicks": 240,
          "midi": 66,
          "name": "F#4",
          "ticks": 37920,
          "time": 33.857109,
          "velocity": 1
        },
        {
          "duration": 0.21428550000000257,
          "durationTicks": 240,
          "midi": 62,
          "name": "D4",
          "ticks": 37920,
          "time": 33.857109,
          "velocity": 1
        },
        {
          "duration": 0.21428550000000257,
          "durationTicks": 240,
          "midi": 57,
          "name": "A3",
          "ticks": 37920,
          "time": 33.857109,
          "velocity": 1
        },
        {
          "duration": 0.21428550000000257,
          "durationTicks": 240,
          "midi": 50,
          "name": "D3",
          "ticks": 37920,
          "time": 33.857109,
          "velocity": 1
        },
        {
          "duration": 0.21428549999999547,
          "durationTicks": 240,
          "midi": 66,
          "name": "F#4",
          "ticks": 45600,
          "time": 40.714245000000005,
          "velocity": 1
        },
        {
          "duration": 0.21428549999999547,
          "durationTicks": 240,
          "midi": 62,
          "name": "D4",
          "ticks": 45600,
          "time": 40.714245000000005,
          "velocity": 1
        },
        {
          "duration": 0.21428549999999547,
          "durationTicks": 240,
          "midi": 57,
          "name": "A3",
          "ticks": 45600,
          "time": 40.714245000000005,
          "velocity": 1
        },
        {
          "duration": 0.21428549999999547,
          "durationTicks": 240,
          "midi": 50,
          "name": "D3",
          "ticks": 45600,
          "time": 40.714245000000005,
          "velocity": 1
        },
        {
          "duration": 0.21428550000000257,
          "durationTicks": 240,
          "midi": 66,
          "name": "F#4",
          "ticks": 53280,
          "time": 47.571381,
          "velocity": 1
        },
        {
          "duration": 0.21428550000000257,
          "durationTicks": 240,
          "midi": 62,
          "name": "D4",
          "ticks": 53280,
          "time": 47.571381,
          "velocity": 1
        },
        {
          "duration": 0.21428550000000257,
          "durationTicks": 240,
          "midi": 57,
          "name": "A3",
          "ticks": 53280,
          "time": 47.571381,
          "velocity": 1
        },
        {
          "duration": 0.21428550000000257,
          "durationTicks": 240,
          "midi": 50,
          "name": "D3",
          "ticks": 53280,
          "time": 47.571381,
          "velocity": 1
        },
        {
          "duration": 0.21428550000000257,
          "durationTicks": 240,
          "midi": 66,
          "name": "F#4",
          "ticks": 55200,
          "time": 49.285665,
          "velocity": 1
        },
        {
          "duration": 0.21428550000000257,
          "durationTicks": 240,
          "midi": 62,
          "name": "D4",
          "ticks": 55200,
          "time": 49.285665,
          "velocity": 1
        },
        {
          "duration": 0.21428550000000257,
          "durationTicks": 240,
          "midi": 57,
          "name": "A3",
          "ticks": 55200,
          "time": 49.285665,
          "velocity": 1
        },
        {
          "duration": 0.21428550000000257,
          "durationTicks": 240,
          "midi": 50,
          "name": "D3",
          "ticks": 55200,
          "time": 49.285665,
          "velocity": 1
        },
        {
          "duration": 0.21428550000000257,
          "durationTicks": 240,
          "midi": 66,
          "name": "F#4",
          "ticks": 57120,
          "time": 50.999949,
          "velocity": 1
        },
        {
          "duration": 0.21428550000000257,
          "durationTicks": 240,
          "midi": 62,
          "name": "D4",
          "ticks": 57120,
          "time": 50.999949,
          "velocity": 1
        },
        {
          "duration": 0.21428550000000257,
          "durationTicks": 240,
          "midi": 57,
          "name": "A3",
          "ticks": 57120,
          "time": 50.999949,
          "velocity": 1
        },
        {
          "duration": 0.21428550000000257,
          "durationTicks": 240,
          "midi": 50,
          "name": "D3",
          "ticks": 57120,
          "time": 50.999949,
          "velocity": 1
        },
        {
          "duration": 0.21428549999999547,
          "durationTicks": 240,
          "midi": 66,
          "name": "F#4",
          "ticks": 59040,
          "time": 52.71423300000001,
          "velocity": 1
        },
        {
          "duration": 0.21428549999999547,
          "durationTicks": 240,
          "midi": 62,
          "name": "D4",
          "ticks": 59040,
          "time": 52.71423300000001,
          "velocity": 1
        },
        {
          "duration": 0.21428549999999547,
          "durationTicks": 240,
          "midi": 57,
          "name": "A3",
          "ticks": 59040,
          "time": 52.71423300000001,
          "velocity": 1
        },
        {
          "duration": 0.21428549999999547,
          "durationTicks": 240,
          "midi": 50,
          "name": "D3",
          "ticks": 59040,
          "time": 52.71423300000001,
          "velocity": 1
        },
        {
          "duration": 0.21428550000000257,
          "durationTicks": 240,
          "midi": 66,
          "name": "F#4",
          "ticks": 80160,
          "time": 71.571357,
          "velocity": 1
        },
        {
          "duration": 0.21428550000000257,
          "durationTicks": 240,
          "midi": 62,
          "name": "D4",
          "ticks": 80160,
          "time": 71.571357,
          "velocity": 1
        },
        {
          "duration": 0.21428550000000257,
          "durationTicks": 240,
          "midi": 57,
          "name": "A3",
          "ticks": 80160,
          "time": 71.571357,
          "velocity": 1
        },
        {
          "duration": 0.21428550000000257,
          "durationTicks": 240,
          "midi": 50,
          "name": "D3",
          "ticks": 80160,
          "time": 71.571357,
          "velocity": 1
        },
        {
          "duration": 0.21428550000000257,
          "durationTicks": 240,
          "midi": 66,
          "name": "F#4",
          "ticks": 87840,
          "time": 78.428493,
          "velocity": 1
        },
        {
          "duration": 0.21428550000000257,
          "durationTicks": 240,
          "midi": 62,
          "name": "D4",
          "ticks": 87840,
          "time": 78.428493,
          "velocity": 1
        },
        {
          "duration": 0.21428550000000257,
          "durationTicks": 240,
          "midi": 57,
          "name": "A3",
          "ticks": 87840,
          "time": 78.428493,
          "velocity": 1
        },
        {
          "duration": 0.21428550000000257,
          "durationTicks": 240,
          "midi": 50,
          "name": "D3",
          "ticks": 87840,
          "time": 78.428493,
          "velocity": 1
        },
        {
          "duration": 0.21428550000000257,
          "durationTicks": 240,
          "midi": 66,
          "name": "F#4",
          "ticks": 95520,
          "time": 85.285629,
          "velocity": 1
        },
        {
          "duration": 0.21428550000000257,
          "durationTicks": 240,
          "midi": 62,
          "name": "D4",
          "ticks": 95520,
          "time": 85.285629,
          "velocity": 1
        },
        {
          "duration": 0.21428550000000257,
          "durationTicks": 240,
          "midi": 57,
          "name": "A3",
          "ticks": 95520,
          "time": 85.285629,
          "velocity": 1
        },
        {
          "duration": 0.21428550000000257,
          "durationTicks": 240,
          "midi": 50,
          "name": "D3",
          "ticks": 95520,
          "time": 85.285629,
          "velocity": 1
        },
        {
          "duration": 0.21428550000000257,
          "durationTicks": 240,
          "midi": 66,
          "name": "F#4",
          "ticks": 103200,
          "time": 92.14276500000001,
          "velocity": 1
        },
        {
          "duration": 0.21428550000000257,
          "durationTicks": 240,
          "midi": 62,
          "name": "D4",
          "ticks": 103200,
          "time": 92.14276500000001,
          "velocity": 1
        },
        {
          "duration": 0.21428550000000257,
          "durationTicks": 240,
          "midi": 57,
          "name": "A3",
          "ticks": 103200,
          "time": 92.14276500000001,
          "velocity": 1
        },
        {
          "duration": 0.21428550000000257,
          "durationTicks": 240,
          "midi": 50,
          "name": "D3",
          "ticks": 103200,
          "time": 92.14276500000001,
          "velocity": 1
        },
        {
          "duration": 0.21428550000000257,
          "durationTicks": 240,
          "midi": 66,
          "name": "F#4",
          "ticks": 105120,
          "time": 93.857049,
          "velocity": 1
        },
        {
          "duration": 0.21428550000000257,
          "durationTicks": 240,
          "midi": 62,
          "name": "D4",
          "ticks": 105120,
          "time": 93.857049,
          "velocity": 1
        },
        {
          "duration": 0.21428550000000257,
          "durationTicks": 240,
          "midi": 57,
          "name": "A3",
          "ticks": 105120,
          "time": 93.857049,
          "velocity": 1
        },
        {
          "duration": 0.21428550000000257,
          "durationTicks": 240,
          "midi": 50,
          "name": "D3",
          "ticks": 105120,
          "time": 93.857049,
          "velocity": 1
        },
        {
          "duration": 0.21428550000000257,
          "durationTicks": 240,
          "midi": 66,
          "name": "F#4",
          "ticks": 107040,
          "time": 95.57133300000001,
          "velocity": 1
        },
        {
          "duration": 0.21428550000000257,
          "durationTicks": 240,
          "midi": 62,
          "name": "D4",
          "ticks": 107040,
          "time": 95.57133300000001,
          "velocity": 1
        },
        {
          "duration": 0.21428550000000257,
          "durationTicks": 240,
          "midi": 57,
          "name": "A3",
          "ticks": 107040,
          "time": 95.57133300000001,
          "velocity": 1
        },
        {
          "duration": 0.21428550000000257,
          "durationTicks": 240,
          "midi": 50,
          "name": "D3",
          "ticks": 107040,
          "time": 95.57133300000001,
          "velocity": 1
        },
        {
          "duration": 0.21428550000000257,
          "durationTicks": 240,
          "midi": 66,
          "name": "F#4",
          "ticks": 108960,
          "time": 97.285617,
          "velocity": 1
        },
        {
          "duration": 0.21428550000000257,
          "durationTicks": 240,
          "midi": 62,
          "name": "D4",
          "ticks": 108960,
          "time": 97.285617,
          "velocity": 1
        },
        {
          "duration": 0.21428550000000257,
          "durationTicks": 240,
          "midi": 57,
          "name": "A3",
          "ticks": 108960,
          "time": 97.285617,
          "velocity": 1
        },
        {
          "duration": 0.21428550000000257,
          "durationTicks": 240,
          "midi": 50,
          "name": "D3",
          "ticks": 108960,
          "time": 97.285617,
          "velocity": 1
        },
        {
          "duration": 0.21428550000001678,
          "durationTicks": 240,
          "midi": 66,
          "name": "F#4",
          "ticks": 164640,
          "time": 146.999853,
          "velocity": 1
        },
        {
          "duration": 0.21428550000001678,
          "durationTicks": 240,
          "midi": 62,
          "name": "D4",
          "ticks": 164640,
          "time": 146.999853,
          "velocity": 1
        },
        {
          "duration": 0.21428550000001678,
          "durationTicks": 240,
          "midi": 57,
          "name": "A3",
          "ticks": 164640,
          "time": 146.999853,
          "velocity": 1
        },
        {
          "duration": 0.21428550000001678,
          "durationTicks": 240,
          "midi": 50,
          "name": "D3",
          "ticks": 164640,
          "time": 146.999853,
          "velocity": 1
        },
        {
          "duration": 0.21428550000001678,
          "durationTicks": 240,
          "midi": 66,
          "name": "F#4",
          "ticks": 172320,
          "time": 153.856989,
          "velocity": 1
        },
        {
          "duration": 0.21428550000001678,
          "durationTicks": 240,
          "midi": 62,
          "name": "D4",
          "ticks": 172320,
          "time": 153.856989,
          "velocity": 1
        },
        {
          "duration": 0.21428550000001678,
          "durationTicks": 240,
          "midi": 57,
          "name": "A3",
          "ticks": 172320,
          "time": 153.856989,
          "velocity": 1
        },
        {
          "duration": 0.21428550000001678,
          "durationTicks": 240,
          "midi": 50,
          "name": "D3",
          "ticks": 172320,
          "time": 153.856989,
          "velocity": 1
        },
        {
          "duration": 0.21428549999998836,
          "durationTicks": 240,
          "midi": 66,
          "name": "F#4",
          "ticks": 180000,
          "time": 160.71412500000002,
          "velocity": 1
        },
        {
          "duration": 0.21428549999998836,
          "durationTicks": 240,
          "midi": 62,
          "name": "D4",
          "ticks": 180000,
          "time": 160.71412500000002,
          "velocity": 1
        },
        {
          "duration": 0.21428549999998836,
          "durationTicks": 240,
          "midi": 57,
          "name": "A3",
          "ticks": 180000,
          "time": 160.71412500000002,
          "velocity": 1
        },
        {
          "duration": 0.21428549999998836,
          "durationTicks": 240,
          "midi": 50,
          "name": "D3",
          "ticks": 180000,
          "time": 160.71412500000002,
          "velocity": 1
        },
        {
          "duration": 0.21428549999998836,
          "durationTicks": 240,
          "midi": 66,
          "name": "F#4",
          "ticks": 181920,
          "time": 162.42840900000002,
          "velocity": 1
        },
        {
          "duration": 0.21428549999998836,
          "durationTicks": 240,
          "midi": 62,
          "name": "D4",
          "ticks": 181920,
          "time": 162.42840900000002,
          "velocity": 1
        },
        {
          "duration": 0.21428549999998836,
          "durationTicks": 240,
          "midi": 57,
          "name": "A3",
          "ticks": 181920,
          "time": 162.42840900000002,
          "velocity": 1
        },
        {
          "duration": 0.21428549999998836,
          "durationTicks": 240,
          "midi": 50,
          "name": "D3",
          "ticks": 181920,
          "time": 162.42840900000002,
          "velocity": 1
        },
        {
          "duration": 0.21428550000001678,
          "durationTicks": 240,
          "midi": 66,
          "name": "F#4",
          "ticks": 183840,
          "time": 164.142693,
          "velocity": 1
        },
        {
          "duration": 0.21428550000001678,
          "durationTicks": 240,
          "midi": 62,
          "name": "D4",
          "ticks": 183840,
          "time": 164.142693,
          "velocity": 1
        },
        {
          "duration": 0.21428550000001678,
          "durationTicks": 240,
          "midi": 57,
          "name": "A3",
          "ticks": 183840,
          "time": 164.142693,
          "velocity": 1
        },
        {
          "duration": 0.21428550000001678,
          "durationTicks": 240,
          "midi": 50,
          "name": "D3",
          "ticks": 183840,
          "time": 164.142693,
          "velocity": 1
        },
        {
          "duration": 0.21428550000001678,
          "durationTicks": 240,
          "midi": 66,
          "name": "F#4",
          "ticks": 185760,
          "time": 165.856977,
          "velocity": 1
        },
        {
          "duration": 0.21428550000001678,
          "durationTicks": 240,
          "midi": 62,
          "name": "D4",
          "ticks": 185760,
          "time": 165.856977,
          "velocity": 1
        },
        {
          "duration": 0.21428550000001678,
          "durationTicks": 240,
          "midi": 57,
          "name": "A3",
          "ticks": 185760,
          "time": 165.856977,
          "velocity": 1
        },
        {
          "duration": 0.21428550000001678,
          "durationTicks": 240,
          "midi": 50,
          "name": "D3",
          "ticks": 185760,
          "time": 165.856977,
          "velocity": 1
        }
      ]
    },
    {
      "channel": 0,
      "controlChanges": {
        "7": [
          {
            "number": 7,
            "ticks": 0,
            "time": 0,
            "value": 1
          }
        ],
        "10": [
          {
            "number": 10,
            "ticks": 0,
            "time": 0,
            "value": 0.5039370078740157
          }
        ],
        "91": [
          {
            "number": 91,
            "ticks": 0,
            "time": 0,
            "value": 0
          }
        ],
        "93": [
          {
            "number": 93,
            "ticks": 0,
            "time": 0,
            "value": 0
          }
        ]
      },
      "pitchBends": [],
      "instrument": {
        "family": "piano",
        "number": 0,
        "name": "acoustic grand piano"
      },
      "name": "Solo",
      "notes": [],
      "endOfTrackTicks": 159360
    },
    {
      "channel": 0,
      "controlChanges": {},
      "pitchBends": [],
      "instrument": {
        "family": "piano",
        "number": 0,
        "name": "acoustic grand piano"
      },
      "name": "",
      "notes": []
    },
    {
      "channel": 0,
      "controlChanges": {
        "7": [
          {
            "number": 7,
            "ticks": 0,
            "time": 0,
            "value": 1
          }
        ],
        "10": [
          {
            "number": 10,
            "ticks": 0,
            "time": 0,
            "value": 0.5039370078740157
          }
        ],
        "91": [
          {
            "number": 91,
            "ticks": 0,
            "time": 0,
            "value": 0
          }
        ],
        "93": [
          {
            "number": 93,
            "ticks": 0,
            "time": 0,
            "value": 0
          }
        ]
      },
      "pitchBends": [],
      "instrument": {
        "family": "piano",
        "number": 0,
        "name": "acoustic grand piano"
      },
      "name": "",
      "notes": []
    },
    {
      "channel": 2,
      "controlChanges": {
        "6": [
          {
            "number": 6,
            "ticks": 126720,
            "time": 113.14274400000001,
            "value": 0.06299212598425197
          },
          {
            "number": 6,
            "ticks": 130560,
            "time": 116.571312,
            "value": 0.06299212598425197
          },
          {
            "number": 6,
            "ticks": 137280,
            "time": 122.571306,
            "value": 0.06299212598425197
          },
          {
            "number": 6,
            "ticks": 140160,
            "time": 125.14273200000001,
            "value": 0.06299212598425197
          }
        ]
      },
      "pitchBends": [
        {
          "ticks": 126785,
          "time": 113.20077965625002,
          "value": 0.03125
        },
        {
          "ticks": 126850,
          "time": 113.2588153125,
          "value": 0
        },
        {
          "ticks": 126915,
          "time": 113.31685096875,
          "value": 0.03125
        },
        {
          "ticks": 126980,
          "time": 113.37488662500002,
          "value": 0
        },
        {
          "ticks": 127045,
          "time": 113.43292228125,
          "value": 0.03125
        },
        {
          "ticks": 127110,
          "time": 113.49095793750001,
          "value": 0
        },
        {
          "ticks": 127175,
          "time": 113.54899359375001,
          "value": 0.03125
        },
        {
          "ticks": 127240,
          "time": 113.60702925,
          "value": 0
        },
        {
          "ticks": 127305,
          "time": 113.66506490625001,
          "value": 0.03125
        },
        {
          "ticks": 127370,
          "time": 113.72310056250002,
          "value": 0
        },
        {
          "ticks": 127435,
          "time": 113.78113621875,
          "value": 0.03125
        },
        {
          "ticks": 127500,
          "time": 113.839171875,
          "value": 0
        },
        {
          "ticks": 127565,
          "time": 113.89720753125002,
          "value": 0.03125
        },
        {
          "ticks": 127630,
          "time": 113.9552431875,
          "value": 0
        },
        {
          "ticks": 127695,
          "time": 114.01327884375002,
          "value": 0.03125
        },
        {
          "ticks": 127760,
          "time": 114.07131450000001,
          "value": 0
        },
        {
          "ticks": 127825,
          "time": 114.12935015625,
          "value": 0.03125
        },
        {
          "ticks": 127890,
          "time": 114.18738581250001,
          "value": 0
        },
        {
          "ticks": 127955,
          "time": 114.24542146875002,
          "value": 0.03125
        },
        {
          "ticks": 128020,
          "time": 114.303457125,
          "value": 0
        },
        {
          "ticks": 128085,
          "time": 114.36149278125,
          "value": 0.03125
        },
        {
          "ticks": 128150,
          "time": 114.41952843750002,
          "value": 0
        },
        {
          "ticks": 128215,
          "time": 114.47756409375,
          "value": 0.03125
        },
        {
          "ticks": 128280,
          "time": 114.53559975,
          "value": 0
        },
        {
          "ticks": 128345,
          "time": 114.59363540625002,
          "value": 0.03125
        },
        {
          "ticks": 128410,
          "time": 114.6516710625,
          "value": 0
        },
        {
          "ticks": 128475,
          "time": 114.70970671875001,
          "value": 0.03125
        },
        {
          "ticks": 128540,
          "time": 114.76774237500001,
          "value": 0
        },
        {
          "ticks": 128605,
          "time": 114.82577803125,
          "value": 0.03125
        },
        {
          "ticks": 128670,
          "time": 114.88381368750001,
          "value": 0
        },
        {
          "ticks": 128735,
          "time": 114.94184934375002,
          "value": 0.03125
        },
        {
          "ticks": 128800,
          "time": 114.999885,
          "value": 0
        },
        {
          "ticks": 128865,
          "time": 115.05792065625,
          "value": 0.03125
        },
        {
          "ticks": 128930,
          "time": 115.11595631250002,
          "value": 0
        },
        {
          "ticks": 128995,
          "time": 115.17399196875,
          "value": 0.03125
        },
        {
          "ticks": 129060,
          "time": 115.23202762500001,
          "value": 0
        },
        {
          "ticks": 129120,
          "time": 115.285599,
          "value": 0
        },
        {
          "ticks": 130320,
          "time": 116.3570265,
          "value": 0
        },
        {
          "ticks": 130625,
          "time": 116.62934765625002,
          "value": 0.03125
        },
        {
          "ticks": 130690,
          "time": 116.6873833125,
          "value": 0
        },
        {
          "ticks": 130755,
          "time": 116.74541896875002,
          "value": 0.03125
        },
        {
          "ticks": 130820,
          "time": 116.80345462500001,
          "value": 0
        },
        {
          "ticks": 130885,
          "time": 116.86149028125,
          "value": 0.03125
        },
        {
          "ticks": 130950,
          "time": 116.91952593750001,
          "value": 0
        },
        {
          "ticks": 131015,
          "time": 116.97756159375002,
          "value": 0.03125
        },
        {
          "ticks": 131080,
          "time": 117.03559725,
          "value": 0
        },
        {
          "ticks": 131145,
          "time": 117.09363290625001,
          "value": 0.03125
        },
        {
          "ticks": 131210,
          "time": 117.15166856250002,
          "value": 0
        },
        {
          "ticks": 131275,
          "time": 117.20970421875,
          "value": 0.03125
        },
        {
          "ticks": 131340,
          "time": 117.267739875,
          "value": 0
        },
        {
          "ticks": 131405,
          "time": 117.32577553125002,
          "value": 0.03125
        },
        {
          "ticks": 131470,
          "time": 117.3838111875,
          "value": 0
        },
        {
          "ticks": 131535,
          "time": 117.44184684375001,
          "value": 0.03125
        },
        {
          "ticks": 131600,
          "time": 117.49988250000001,
          "value": 0
        },
        {
          "ticks": 131665,
          "time": 117.55791815625,
          "value": 0.03125
        },
        {
          "ticks": 131730,
          "time": 117.61595381250001,
          "value": 0
        },
        {
          "ticks": 131795,
          "time": 117.67398946875002,
          "value": 0.03125
        },
        {
          "ticks": 131860,
          "time": 117.732025125,
          "value": 0
        },
        {
          "ticks": 131925,
          "time": 117.79006078125,
          "value": 0.03125
        },
        {
          "ticks": 131990,
          "time": 117.84809643750002,
          "value": 0
        },
        {
          "ticks": 132000,
          "time": 117.85702500000001,
          "value": 0
        },
        {
          "ticks": 133680,
          "time": 119.35702350000001,
          "value": 0
        },
        {
          "ticks": 134760,
          "time": 120.32130825000002,
          "value": 0
        },
        {
          "ticks": 137345,
          "time": 122.62934165625002,
          "value": 0.03125
        },
        {
          "ticks": 137410,
          "time": 122.6873773125,
          "value": 0
        },
        {
          "ticks": 137475,
          "time": 122.74541296875002,
          "value": 0.03125
        },
        {
          "ticks": 137540,
          "time": 122.80344862500002,
          "value": 0
        },
        {
          "ticks": 137605,
          "time": 122.86148428125,
          "value": 0.03125
        },
        {
          "ticks": 137670,
          "time": 122.91951993750001,
          "value": 0
        },
        {
          "ticks": 137735,
          "time": 122.97755559375001,
          "value": 0.03125
        },
        {
          "ticks": 137800,
          "time": 123.03559125,
          "value": 0
        },
        {
          "ticks": 137865,
          "time": 123.09362690625001,
          "value": 0.03125
        },
        {
          "ticks": 137930,
          "time": 123.15166256250002,
          "value": 0
        },
        {
          "ticks": 137995,
          "time": 123.20969821875,
          "value": 0.03125
        },
        {
          "ticks": 138060,
          "time": 123.267733875,
          "value": 0
        },
        {
          "ticks": 138125,
          "time": 123.32576953125002,
          "value": 0.03125
        },
        {
          "ticks": 138190,
          "time": 123.3838051875,
          "value": 0
        },
        {
          "ticks": 138360,
          "time": 123.53559075000001,
          "value": 0
        },
        {
          "ticks": 140225,
          "time": 125.20076765625002,
          "value": 0.03125
        },
        {
          "ticks": 140290,
          "time": 125.2588033125,
          "value": 0
        },
        {
          "ticks": 140355,
          "time": 125.31683896875,
          "value": 0.03125
        },
        {
          "ticks": 140420,
          "time": 125.37487462500002,
          "value": 0
        },
        {
          "ticks": 140485,
          "time": 125.43291028125,
          "value": 0.03125
        },
        {
          "ticks": 140550,
          "time": 125.49094593750002,
          "value": 0
        },
        {
          "ticks": 140640,
          "time": 125.57130300000001,
          "value": 0
        },
        {
          "ticks": 141600,
          "time": 126.42844500000001,
          "value": 0
        },
        {
          "ticks": 142080,
          "time": 126.85701600000002,
          "value": 0
        }
      ],
      "instrument": {
        "family": "guitar",
        "number": 30,
        "name": "distortion guitar"
      },
      "name": "",
      "notes": [
        {
          "duration": 0.28571399999997027,
          "durationTicks": 320,
          "midi": 62,
          "name": "D4",
          "ticks": 126080,
          "time": 112.57131600000002,
          "velocity": 1
        },
        {
          "duration": 0.2857140000000129,
          "durationTicks": 320,
          "midi": 62,
          "name": "D4",
          "ticks": 126400,
          "time": 112.85703,
          "velocity": 1
        },
        {
          "duration": 2.1428549999999973,
          "durationTicks": 2400,
          "midi": 59,
          "name": "B3",
          "ticks": 126720,
          "time": 113.14274400000001,
          "velocity": 1
        },
        {
          "duration": 0.10714275000000839,
          "durationTicks": 120,
          "midi": 64,
          "name": "E4",
          "ticks": 130320,
          "time": 116.3570265,
          "velocity": 1
        },
        {
          "duration": 0.10714274999999418,
          "durationTicks": 120,
          "midi": 62,
          "name": "D4",
          "ticks": 130440,
          "time": 116.46416925000001,
          "velocity": 1
        },
        {
          "duration": 1.2857130000000012,
          "durationTicks": 1440,
          "midi": 62,
          "name": "D4",
          "ticks": 130560,
          "time": 116.571312,
          "velocity": 1
        },
        {
          "duration": 0.21428550000000257,
          "durationTicks": 240,
          "midi": 62,
          "name": "D4",
          "ticks": 132000,
          "time": 117.85702500000001,
          "velocity": 1
        },
        {
          "duration": 0.21428550000000257,
          "durationTicks": 240,
          "midi": 69,
          "name": "A4",
          "ticks": 132240,
          "time": 118.07131050000001,
          "velocity": 1
        },
        {
          "duration": 0.32142824999999675,
          "durationTicks": 360,
          "midi": 71,
          "name": "B4",
          "ticks": 133680,
          "time": 119.35702350000001,
          "velocity": 1
        },
        {
          "duration": 0.10714275000000839,
          "durationTicks": 120,
          "midi": 66,
          "name": "F#4",
          "ticks": 134040,
          "time": 119.67845175000001,
          "velocity": 1
        },
        {
          "duration": 0.21428549999998836,
          "durationTicks": 240,
          "midi": 69,
          "name": "A4",
          "ticks": 134160,
          "time": 119.78559450000002,
          "velocity": 1
        },
        {
          "duration": 0.32142824999999675,
          "durationTicks": 360,
          "midi": 71,
          "name": "B4",
          "ticks": 134760,
          "time": 120.32130825000002,
          "velocity": 1
        },
        {
          "duration": 0.32142824999999675,
          "durationTicks": 360,
          "midi": 59,
          "name": "B3",
          "ticks": 134760,
          "time": 120.32130825000002,
          "velocity": 1
        },
        {
          "duration": 0.10714274999999418,
          "durationTicks": 120,
          "midi": 71,
          "name": "B4",
          "ticks": 135120,
          "time": 120.64273650000001,
          "velocity": 1
        },
        {
          "duration": 0.10714274999999418,
          "durationTicks": 120,
          "midi": 59,
          "name": "B3",
          "ticks": 135120,
          "time": 120.64273650000001,
          "velocity": 1
        },
        {
          "duration": 0.10714275000000839,
          "durationTicks": 120,
          "midi": 71,
          "name": "B4",
          "ticks": 135240,
          "time": 120.74987925,
          "velocity": 1
        },
        {
          "duration": 0.10714275000000839,
          "durationTicks": 120,
          "midi": 59,
          "name": "B3",
          "ticks": 135240,
          "time": 120.74987925,
          "velocity": 1
        },
        {
          "duration": 0.10714274999999418,
          "durationTicks": 120,
          "midi": 71,
          "name": "B4",
          "ticks": 135360,
          "time": 120.85702200000001,
          "velocity": 1
        },
        {
          "duration": 0.10714274999999418,
          "durationTicks": 120,
          "midi": 59,
          "name": "B3",
          "ticks": 135360,
          "time": 120.85702200000001,
          "velocity": 1
        },
        {
          "duration": 0.21428550000000257,
          "durationTicks": 240,
          "midi": 71,
          "name": "B4",
          "ticks": 135480,
          "time": 120.96416475000001,
          "velocity": 1
        },
        {
          "duration": 0.21428550000000257,
          "durationTicks": 240,
          "midi": 59,
          "name": "B3",
          "ticks": 135480,
          "time": 120.96416475000001,
          "velocity": 1
        },
        {
          "duration": 0.10714274999999418,
          "durationTicks": 120,
          "midi": 71,
          "name": "B4",
          "ticks": 135720,
          "time": 121.17845025000001,
          "velocity": 1
        },
        {
          "duration": 0.10714274999999418,
          "durationTicks": 120,
          "midi": 59,
          "name": "B3",
          "ticks": 135720,
          "time": 121.17845025000001,
          "velocity": 1
        },
        {
          "duration": 0.21428550000000257,
          "durationTicks": 240,
          "midi": 71,
          "name": "B4",
          "ticks": 135840,
          "time": 121.285593,
          "velocity": 1
        },
        {
          "duration": 0.21428550000000257,
          "durationTicks": 240,
          "midi": 59,
          "name": "B3",
          "ticks": 135840,
          "time": 121.285593,
          "velocity": 1
        },
        {
          "duration": 0.10714275000000839,
          "durationTicks": 120,
          "midi": 71,
          "name": "B4",
          "ticks": 136080,
          "time": 121.49987850000001,
          "velocity": 1
        },
        {
          "duration": 0.10714275000000839,
          "durationTicks": 120,
          "midi": 59,
          "name": "B3",
          "ticks": 136080,
          "time": 121.49987850000001,
          "velocity": 1
        },
        {
          "duration": 0.10714274999999418,
          "durationTicks": 120,
          "midi": 71,
          "name": "B4",
          "ticks": 136200,
          "time": 121.60702125000002,
          "velocity": 1
        },
        {
          "duration": 0.10714274999999418,
          "durationTicks": 120,
          "midi": 59,
          "name": "B3",
          "ticks": 136200,
          "time": 121.60702125000002,
          "velocity": 1
        },
        {
          "duration": 0.10714274999999418,
          "durationTicks": 120,
          "midi": 71,
          "name": "B4",
          "ticks": 136320,
          "time": 121.71416400000001,
          "velocity": 1
        },
        {
          "duration": 0.10714274999999418,
          "durationTicks": 120,
          "midi": 59,
          "name": "B3",
          "ticks": 136320,
          "time": 121.71416400000001,
          "velocity": 1
        },
        {
          "duration": 0.10714275000000839,
          "durationTicks": 120,
          "midi": 71,
          "name": "B4",
          "ticks": 136440,
          "time": 121.82130675,
          "velocity": 1
        },
        {
          "duration": 0.10714275000000839,
          "durationTicks": 120,
          "midi": 59,
          "name": "B3",
          "ticks": 136440,
          "time": 121.82130675,
          "velocity": 1
        },
        {
          "duration": 0.21428550000000257,
          "durationTicks": 240,
          "midi": 71,
          "name": "B4",
          "ticks": 136560,
          "time": 121.92844950000001,
          "velocity": 1
        },
        {
          "duration": 0.21428550000000257,
          "durationTicks": 240,
          "midi": 59,
          "name": "B3",
          "ticks": 136560,
          "time": 121.92844950000001,
          "velocity": 1
        },
        {
          "duration": 0.10714274999999418,
          "durationTicks": 120,
          "midi": 71,
          "name": "B4",
          "ticks": 136800,
          "time": 122.14273500000002,
          "velocity": 1
        },
        {
          "duration": 0.10714274999999418,
          "durationTicks": 120,
          "midi": 59,
          "name": "B3",
          "ticks": 136800,
          "time": 122.14273500000002,
          "velocity": 1
        },
        {
          "duration": 0.10714274999999418,
          "durationTicks": 120,
          "midi": 71,
          "name": "B4",
          "ticks": 136920,
          "time": 122.24987775000001,
          "velocity": 1
        },
        {
          "duration": 0.10714274999999418,
          "durationTicks": 120,
          "midi": 59,
          "name": "B3",
          "ticks": 136920,
          "time": 122.24987775000001,
          "velocity": 1
        },
        {
          "duration": 0.21428550000000257,
          "durationTicks": 240,
          "midi": 71,
          "name": "B4",
          "ticks": 137040,
          "time": 122.3570205,
          "velocity": 1
        },
        {
          "duration": 0.21428550000000257,
          "durationTicks": 240,
          "midi": 59,
          "name": "B3",
          "ticks": 137040,
          "time": 122.3570205,
          "velocity": 1
        },
        {
          "duration": 0.8571419999999961,
          "durationTicks": 960,
          "midi": 71,
          "name": "B4",
          "ticks": 137280,
          "time": 122.571306,
          "velocity": 1
        },
        {
          "duration": 0.8571419999999961,
          "durationTicks": 960,
          "midi": 59,
          "name": "B3",
          "ticks": 137280,
          "time": 122.571306,
          "velocity": 1
        },
        {
          "duration": 0.10714274999999418,
          "durationTicks": 120,
          "midi": 71,
          "name": "B4",
          "ticks": 138360,
          "time": 123.53559075000001,
          "velocity": 1
        },
        {
          "duration": 0.07142850000001033,
          "durationTicks": 80,
          "midi": 74,
          "name": "D5",
          "ticks": 138480,
          "time": 123.6427335,
          "velocity": 1
        },
        {
          "duration": 0.07142849999998191,
          "durationTicks": 80,
          "midi": 71,
          "name": "B4",
          "ticks": 138560,
          "time": 123.71416200000002,
          "velocity": 1
        },
        {
          "duration": 0.07142850000001033,
          "durationTicks": 80,
          "midi": 73,
          "name": "C#5",
          "ticks": 138640,
          "time": 123.7855905,
          "velocity": 1
        },
        {
          "duration": 0.21428550000000257,
          "durationTicks": 240,
          "midi": 71,
          "name": "B4",
          "ticks": 138720,
          "time": 123.85701900000001,
          "velocity": 1
        },
        {
          "duration": 0.07142850000001033,
          "durationTicks": 80,
          "midi": 69,
          "name": "A4",
          "ticks": 138960,
          "time": 124.07130450000001,
          "velocity": 1
        },
        {
          "duration": 0.07142849999998191,
          "durationTicks": 80,
          "midi": 66,
          "name": "F#4",
          "ticks": 139040,
          "time": 124.14273300000002,
          "velocity": 1
        },
        {
          "duration": 0.07142850000001033,
          "durationTicks": 80,
          "midi": 68,
          "name": "G#4",
          "ticks": 139120,
          "time": 124.2141615,
          "velocity": 1
        },
        {
          "duration": 0.21428550000000257,
          "durationTicks": 240,
          "midi": 66,
          "name": "F#4",
          "ticks": 139200,
          "time": 124.28559000000001,
          "velocity": 1
        },
        {
          "duration": 0.07142849999999612,
          "durationTicks": 80,
          "midi": 66,
          "name": "F#4",
          "ticks": 139440,
          "time": 124.49987550000002,
          "velocity": 1
        },
        {
          "duration": 0.07142849999999612,
          "durationTicks": 80,
          "midi": 64,
          "name": "E4",
          "ticks": 139520,
          "time": 124.57130400000001,
          "velocity": 1
        },
        {
          "duration": 0.07142849999999612,
          "durationTicks": 80,
          "midi": 66,
          "name": "F#4",
          "ticks": 139600,
          "time": 124.64273250000001,
          "velocity": 1
        },
        {
          "duration": 0.07142850000001033,
          "durationTicks": 80,
          "midi": 64,
          "name": "E4",
          "ticks": 139680,
          "time": 124.714161,
          "velocity": 1
        },
        {
          "duration": 0.07142849999998191,
          "durationTicks": 80,
          "midi": 62,
          "name": "D4",
          "ticks": 139760,
          "time": 124.78558950000001,
          "velocity": 1
        },
        {
          "duration": 0.07142850000001033,
          "durationTicks": 80,
          "midi": 59,
          "name": "B3",
          "ticks": 139840,
          "time": 124.857018,
          "velocity": 1
        },
        {
          "duration": 0.21428550000000257,
          "durationTicks": 240,
          "midi": 62,
          "name": "D4",
          "ticks": 139920,
          "time": 124.9284465,
          "velocity": 1
        },
        {
          "duration": 0.42857100000000514,
          "durationTicks": 480,
          "midi": 59,
          "name": "B3",
          "ticks": 140160,
          "time": 125.14273200000001,
          "velocity": 1
        },
        {
          "duration": 0.07142849999999612,
          "durationTicks": 80,
          "midi": 71,
          "name": "B4",
          "ticks": 142080,
          "time": 126.85701600000002,
          "velocity": 1
        },
        {
          "duration": 0.07142849999999612,
          "durationTicks": 80,
          "midi": 68,
          "name": "G#4",
          "ticks": 142160,
          "time": 126.92844450000001,
          "velocity": 1
        },
        {
          "duration": 0.07142849999999612,
          "durationTicks": 80,
          "midi": 64,
          "name": "E4",
          "ticks": 142240,
          "time": 126.99987300000001,
          "velocity": 1
        },
        {
          "duration": 0.07142850000001033,
          "durationTicks": 80,
          "midi": 71,
          "name": "B4",
          "ticks": 142320,
          "time": 127.0713015,
          "velocity": 1
        },
        {
          "duration": 0.07142849999998191,
          "durationTicks": 80,
          "midi": 68,
          "name": "G#4",
          "ticks": 142400,
          "time": 127.14273000000001,
          "velocity": 1
        },
        {
          "duration": 0.07142850000001033,
          "durationTicks": 80,
          "midi": 64,
          "name": "E4",
          "ticks": 142480,
          "time": 127.2141585,
          "velocity": 1
        },
        {
          "duration": 0.07142850000001033,
          "durationTicks": 80,
          "midi": 71,
          "name": "B4",
          "ticks": 142560,
          "time": 127.285587,
          "velocity": 1
        },
        {
          "duration": 0.07142849999998191,
          "durationTicks": 80,
          "midi": 68,
          "name": "G#4",
          "ticks": 142640,
          "time": 127.35701550000002,
          "velocity": 1
        },
        {
          "duration": 0.07142850000001033,
          "durationTicks": 80,
          "midi": 64,
          "name": "E4",
          "ticks": 142720,
          "time": 127.428444,
          "velocity": 1
        },
        {
          "duration": 0.07142850000001033,
          "durationTicks": 80,
          "midi": 71,
          "name": "B4",
          "ticks": 142800,
          "time": 127.49987250000001,
          "velocity": 1
        },
        {
          "duration": 0.07142849999998191,
          "durationTicks": 80,
          "midi": 68,
          "name": "G#4",
          "ticks": 142880,
          "time": 127.57130100000002,
          "velocity": 1
        },
        {
          "duration": 0.07142850000001033,
          "durationTicks": 80,
          "midi": 64,
          "name": "E4",
          "ticks": 142960,
          "time": 127.6427295,
          "velocity": 1
        },
        {
          "duration": 0.07142850000001033,
          "durationTicks": 80,
          "midi": 71,
          "name": "B4",
          "ticks": 143040,
          "time": 127.71415800000001,
          "velocity": 1
        },
        {
          "duration": 0.07142849999998191,
          "durationTicks": 80,
          "midi": 68,
          "name": "G#4",
          "ticks": 143120,
          "time": 127.78558650000002,
          "velocity": 1
        },
        {
          "duration": 0.07142850000001033,
          "durationTicks": 80,
          "midi": 64,
          "name": "E4",
          "ticks": 143200,
          "time": 127.857015,
          "velocity": 1
        },
        {
          "duration": 0.07142850000001033,
          "durationTicks": 80,
          "midi": 71,
          "name": "B4",
          "ticks": 143280,
          "time": 127.92844350000001,
          "velocity": 1
        },
        {
          "duration": 0.07142849999998191,
          "durationTicks": 80,
          "midi": 68,
          "name": "G#4",
          "ticks": 143360,
          "time": 127.99987200000002,
          "velocity": 1
        },
        {
          "duration": 0.07142849999999612,
          "durationTicks": 80,
          "midi": 64,
          "name": "E4",
          "ticks": 143440,
          "time": 128.0713005,
          "velocity": 1
        },
        {
          "duration": 0.07142850000002454,
          "durationTicks": 80,
          "midi": 71,
          "name": "B4",
          "ticks": 143520,
          "time": 128.142729,
          "velocity": 1
        },
        {
          "duration": 0.0714284999999677,
          "durationTicks": 80,
          "midi": 68,
          "name": "G#4",
          "ticks": 143600,
          "time": 128.21415750000003,
          "velocity": 1
        },
        {
          "duration": 0.07142850000002454,
          "durationTicks": 80,
          "midi": 64,
          "name": "E4",
          "ticks": 143680,
          "time": 128.285586,
          "velocity": 1
        },
        {
          "duration": 0.07142849999999612,
          "durationTicks": 80,
          "midi": 71,
          "name": "B4",
          "ticks": 143760,
          "time": 128.35701450000002,
          "velocity": 1
        },
        {
          "duration": 0.07142849999999612,
          "durationTicks": 80,
          "midi": 68,
          "name": "G#4",
          "ticks": 143840,
          "time": 128.42844300000002,
          "velocity": 1
        },
        {
          "duration": 0.07142849999999612,
          "durationTicks": 80,
          "midi": 64,
          "name": "E4",
          "ticks": 143920,
          "time": 128.4998715,
          "velocity": 1
        },
        {
          "duration": 0.07142850000002454,
          "durationTicks": 80,
          "midi": 72,
          "name": "C5",
          "ticks": 144000,
          "time": 128.5713,
          "velocity": 1
        },
        {
          "duration": 0.0714284999999677,
          "durationTicks": 80,
          "midi": 69,
          "name": "A4",
          "ticks": 144080,
          "time": 128.64272850000003,
          "velocity": 1
        },
        {
          "duration": 0.07142850000002454,
          "durationTicks": 80,
          "midi": 64,
          "name": "E4",
          "ticks": 144160,
          "time": 128.714157,
          "velocity": 1
        },
        {
          "duration": 0.07142849999999612,
          "durationTicks": 80,
          "midi": 72,
          "name": "C5",
          "ticks": 144240,
          "time": 128.78558550000002,
          "velocity": 1
        },
        {
          "duration": 0.0714284999999677,
          "durationTicks": 80,
          "midi": 69,
          "name": "A4",
          "ticks": 144320,
          "time": 128.85701400000002,
          "velocity": 1
        },
        {
          "duration": 0.07142850000002454,
          "durationTicks": 80,
          "midi": 64,
          "name": "E4",
          "ticks": 144400,
          "time": 128.9284425,
          "velocity": 1
        },
        {
          "duration": 0.07142849999999612,
          "durationTicks": 80,
          "midi": 72,
          "name": "C5",
          "ticks": 144480,
          "time": 128.999871,
          "velocity": 1
        },
        {
          "duration": 0.07142849999999612,
          "durationTicks": 80,
          "midi": 69,
          "name": "A4",
          "ticks": 144560,
          "time": 129.0712995,
          "velocity": 1
        },
        {
          "duration": 0.07142849999999612,
          "durationTicks": 80,
          "midi": 64,
          "name": "E4",
          "ticks": 144640,
          "time": 129.142728,
          "velocity": 1
        },
        {
          "duration": 0.07142850000002454,
          "durationTicks": 80,
          "midi": 72,
          "name": "C5",
          "ticks": 144720,
          "time": 129.2141565,
          "velocity": 1
        },
        {
          "duration": 0.0714284999999677,
          "durationTicks": 80,
          "midi": 69,
          "name": "A4",
          "ticks": 144800,
          "time": 129.28558500000003,
          "velocity": 1
        },
        {
          "duration": 0.07142850000002454,
          "durationTicks": 80,
          "midi": 64,
          "name": "E4",
          "ticks": 144880,
          "time": 129.3570135,
          "velocity": 1
        },
        {
          "duration": 0.07142849999999612,
          "durationTicks": 80,
          "midi": 72,
          "name": "C5",
          "ticks": 144960,
          "time": 129.42844200000002,
          "velocity": 1
        },
        {
          "duration": 0.07142849999999612,
          "durationTicks": 80,
          "midi": 69,
          "name": "A4",
          "ticks": 145040,
          "time": 129.49987050000001,
          "velocity": 1
        },
        {
          "duration": 0.07142849999999612,
          "durationTicks": 80,
          "midi": 64,
          "name": "E4",
          "ticks": 145120,
          "time": 129.571299,
          "velocity": 1
        },
        {
          "duration": 0.07142850000002454,
          "durationTicks": 80,
          "midi": 72,
          "name": "C5",
          "ticks": 145200,
          "time": 129.6427275,
          "velocity": 1
        },
        {
          "duration": 0.0714284999999677,
          "durationTicks": 80,
          "midi": 69,
          "name": "A4",
          "ticks": 145280,
          "time": 129.71415600000003,
          "velocity": 1
        },
        {
          "duration": 0.07142850000002454,
          "durationTicks": 80,
          "midi": 64,
          "name": "E4",
          "ticks": 145360,
          "time": 129.7855845,
          "velocity": 1
        },
        {
          "duration": 0.07142849999999612,
          "durationTicks": 80,
          "midi": 72,
          "name": "C5",
          "ticks": 145440,
          "time": 129.85701300000002,
          "velocity": 1
        },
        {
          "duration": 0.07142849999999612,
          "durationTicks": 80,
          "midi": 69,
          "name": "A4",
          "ticks": 145520,
          "time": 129.92844150000002,
          "velocity": 1
        },
        {
          "duration": 0.07142849999999612,
          "durationTicks": 80,
          "midi": 64,
          "name": "E4",
          "ticks": 145600,
          "time": 129.99987000000002,
          "velocity": 1
        },
        {
          "duration": 0.07142849999999612,
          "durationTicks": 80,
          "midi": 72,
          "name": "C5",
          "ticks": 145680,
          "time": 130.0712985,
          "velocity": 1
        },
        {
          "duration": 0.07142849999999612,
          "durationTicks": 80,
          "midi": 69,
          "name": "A4",
          "ticks": 145760,
          "time": 130.142727,
          "velocity": 1
        },
        {
          "duration": 0.07142849999999612,
          "durationTicks": 80,
          "midi": 64,
          "name": "E4",
          "ticks": 145840,
          "time": 130.2141555,
          "velocity": 1
        },
        {
          "duration": 0.07142850000002454,
          "durationTicks": 80,
          "midi": 73,
          "name": "C#5",
          "ticks": 145920,
          "time": 130.285584,
          "velocity": 1
        },
        {
          "duration": 0.0714284999999677,
          "durationTicks": 80,
          "midi": 70,
          "name": "A#4",
          "ticks": 146000,
          "time": 130.35701250000002,
          "velocity": 1
        },
        {
          "duration": 0.07142850000002454,
          "durationTicks": 80,
          "midi": 64,
          "name": "E4",
          "ticks": 146080,
          "time": 130.428441,
          "velocity": 1
        },
        {
          "duration": 0.07142849999999612,
          "durationTicks": 80,
          "midi": 73,
          "name": "C#5",
          "ticks": 146160,
          "time": 130.49986950000002,
          "velocity": 1
        },
        {
          "duration": 0.07142849999999612,
          "durationTicks": 80,
          "midi": 70,
          "name": "A#4",
          "ticks": 146240,
          "time": 130.571298,
          "velocity": 1
        },
        {
          "duration": 0.07142849999999612,
          "durationTicks": 80,
          "midi": 64,
          "name": "E4",
          "ticks": 146320,
          "time": 130.6427265,
          "velocity": 1
        },
        {
          "duration": 0.07142850000002454,
          "durationTicks": 80,
          "midi": 73,
          "name": "C#5",
          "ticks": 146400,
          "time": 130.714155,
          "velocity": 1
        },
        {
          "duration": 0.0714284999999677,
          "durationTicks": 80,
          "midi": 70,
          "name": "A#4",
          "ticks": 146480,
          "time": 130.78558350000003,
          "velocity": 1
        },
        {
          "duration": 0.07142850000002454,
          "durationTicks": 80,
          "midi": 64,
          "name": "E4",
          "ticks": 146560,
          "time": 130.857012,
          "velocity": 1
        },
        {
          "duration": 0.07142849999999612,
          "durationTicks": 80,
          "midi": 73,
          "name": "C#5",
          "ticks": 146640,
          "time": 130.92844050000002,
          "velocity": 1
        },
        {
          "duration": 0.07142849999999612,
          "durationTicks": 80,
          "midi": 70,
          "name": "A#4",
          "ticks": 146720,
          "time": 130.99986900000002,
          "velocity": 1
        },
        {
          "duration": 0.07142849999999612,
          "durationTicks": 80,
          "midi": 64,
          "name": "E4",
          "ticks": 146800,
          "time": 131.07129750000001,
          "velocity": 1
        },
        {
          "duration": 0.07142849999999612,
          "durationTicks": 80,
          "midi": 73,
          "name": "C#5",
          "ticks": 146880,
          "time": 131.142726,
          "velocity": 1
        },
        {
          "duration": 0.07142849999999612,
          "durationTicks": 80,
          "midi": 70,
          "name": "A#4",
          "ticks": 146960,
          "time": 131.2141545,
          "velocity": 1
        },
        {
          "duration": 0.07142849999999612,
          "durationTicks": 80,
          "midi": 64,
          "name": "E4",
          "ticks": 147040,
          "time": 131.285583,
          "velocity": 1
        },
        {
          "duration": 0.07142850000002454,
          "durationTicks": 80,
          "midi": 73,
          "name": "C#5",
          "ticks": 147120,
          "time": 131.3570115,
          "velocity": 1
        },
        {
          "duration": 0.0714284999999677,
          "durationTicks": 80,
          "midi": 70,
          "name": "A#4",
          "ticks": 147200,
          "time": 131.42844000000002,
          "velocity": 1
        },
        {
          "duration": 0.07142850000002454,
          "durationTicks": 80,
          "midi": 64,
          "name": "E4",
          "ticks": 147280,
          "time": 131.4998685,
          "velocity": 1
        },
        {
          "duration": 0.07142849999999612,
          "durationTicks": 80,
          "midi": 73,
          "name": "C#5",
          "ticks": 147360,
          "time": 131.57129700000002,
          "velocity": 1
        },
        {
          "duration": 0.07142849999999612,
          "durationTicks": 80,
          "midi": 70,
          "name": "A#4",
          "ticks": 147440,
          "time": 131.6427255,
          "velocity": 1
        },
        {
          "duration": 0.07142849999999612,
          "durationTicks": 80,
          "midi": 64,
          "name": "E4",
          "ticks": 147520,
          "time": 131.714154,
          "velocity": 1
        },
        {
          "duration": 0.07142850000002454,
          "durationTicks": 80,
          "midi": 73,
          "name": "C#5",
          "ticks": 147600,
          "time": 131.7855825,
          "velocity": 1
        },
        {
          "duration": 0.0714284999999677,
          "durationTicks": 80,
          "midi": 70,
          "name": "A#4",
          "ticks": 147680,
          "time": 131.85701100000003,
          "velocity": 1
        },
        {
          "duration": 0.07142850000002454,
          "durationTicks": 80,
          "midi": 64,
          "name": "E4",
          "ticks": 147760,
          "time": 131.9284395,
          "velocity": 1
        },
        {
          "duration": 0.07142849999999612,
          "durationTicks": 80,
          "midi": 74,
          "name": "D5",
          "ticks": 147840,
          "time": 131.99986800000002,
          "velocity": 1
        },
        {
          "duration": 0.07142849999999612,
          "durationTicks": 80,
          "midi": 71,
          "name": "B4",
          "ticks": 147920,
          "time": 132.07129650000002,
          "velocity": 1
        },
        {
          "duration": 0.07142849999999612,
          "durationTicks": 80,
          "midi": 64,
          "name": "E4",
          "ticks": 148000,
          "time": 132.142725,
          "velocity": 1
        },
        {
          "duration": 0.07142849999999612,
          "durationTicks": 80,
          "midi": 74,
          "name": "D5",
          "ticks": 148080,
          "time": 132.2141535,
          "velocity": 1
        },
        {
          "duration": 0.07142849999999612,
          "durationTicks": 80,
          "midi": 71,
          "name": "B4",
          "ticks": 148160,
          "time": 132.285582,
          "velocity": 1
        },
        {
          "duration": 0.07142849999999612,
          "durationTicks": 80,
          "midi": 64,
          "name": "E4",
          "ticks": 148240,
          "time": 132.3570105,
          "velocity": 1
        },
        {
          "duration": 0.07142850000002454,
          "durationTicks": 80,
          "midi": 74,
          "name": "D5",
          "ticks": 148320,
          "time": 132.428439,
          "velocity": 1
        },
        {
          "duration": 0.0714284999999677,
          "durationTicks": 80,
          "midi": 71,
          "name": "B4",
          "ticks": 148400,
          "time": 132.49986750000002,
          "velocity": 1
        },
        {
          "duration": 0.07142850000002454,
          "durationTicks": 80,
          "midi": 64,
          "name": "E4",
          "ticks": 148480,
          "time": 132.571296,
          "velocity": 1
        },
        {
          "duration": 0.07142849999999612,
          "durationTicks": 80,
          "midi": 74,
          "name": "D5",
          "ticks": 148560,
          "time": 132.6427245,
          "velocity": 1
        },
        {
          "duration": 0.07142849999999612,
          "durationTicks": 80,
          "midi": 71,
          "name": "B4",
          "ticks": 148640,
          "time": 132.714153,
          "velocity": 1
        },
        {
          "duration": 0.07142849999999612,
          "durationTicks": 80,
          "midi": 64,
          "name": "E4",
          "ticks": 148720,
          "time": 132.7855815,
          "velocity": 1
        },
        {
          "duration": 0.07142850000002454,
          "durationTicks": 80,
          "midi": 74,
          "name": "D5",
          "ticks": 148800,
          "time": 132.85701,
          "velocity": 1
        },
        {
          "duration": 0.0714284999999677,
          "durationTicks": 80,
          "midi": 71,
          "name": "B4",
          "ticks": 148880,
          "time": 132.92843850000003,
          "velocity": 1
        },
        {
          "duration": 0.07142850000002454,
          "durationTicks": 80,
          "midi": 64,
          "name": "E4",
          "ticks": 148960,
          "time": 132.999867,
          "velocity": 1
        },
        {
          "duration": 0.07142849999999612,
          "durationTicks": 80,
          "midi": 74,
          "name": "D5",
          "ticks": 149040,
          "time": 133.07129550000002,
          "velocity": 1
        },
        {
          "duration": 0.07142849999999612,
          "durationTicks": 80,
          "midi": 71,
          "name": "B4",
          "ticks": 149120,
          "time": 133.14272400000002,
          "velocity": 1
        },
        {
          "duration": 0.07142849999999612,
          "durationTicks": 80,
          "midi": 64,
          "name": "E4",
          "ticks": 149200,
          "time": 133.2141525,
          "velocity": 1
        },
        {
          "duration": 0.07142850000002454,
          "durationTicks": 80,
          "midi": 74,
          "name": "D5",
          "ticks": 149280,
          "time": 133.285581,
          "velocity": 1
        },
        {
          "duration": 0.0714284999999677,
          "durationTicks": 80,
          "midi": 71,
          "name": "B4",
          "ticks": 149360,
          "time": 133.35700950000003,
          "velocity": 1
        },
        {
          "duration": 0.07142850000002454,
          "durationTicks": 80,
          "midi": 64,
          "name": "E4",
          "ticks": 149440,
          "time": 133.428438,
          "velocity": 1
        },
        {
          "duration": 0.07142849999999612,
          "durationTicks": 80,
          "midi": 74,
          "name": "D5",
          "ticks": 149520,
          "time": 133.49986650000002,
          "velocity": 1
        },
        {
          "duration": 0.07142849999999612,
          "durationTicks": 80,
          "midi": 71,
          "name": "B4",
          "ticks": 149600,
          "time": 133.57129500000002,
          "velocity": 1
        },
        {
          "duration": 0.07142849999999612,
          "durationTicks": 80,
          "midi": 64,
          "name": "E4",
          "ticks": 149680,
          "time": 133.64272350000002,
          "velocity": 1
        },
        {
          "duration": 0.07142849999999612,
          "durationTicks": 80,
          "midi": 75,
          "name": "D#5",
          "ticks": 149760,
          "time": 133.714152,
          "velocity": 1
        },
        {
          "duration": 0.07142849999999612,
          "durationTicks": 80,
          "midi": 72,
          "name": "C5",
          "ticks": 149840,
          "time": 133.7855805,
          "velocity": 1
        },
        {
          "duration": 0.07142849999999612,
          "durationTicks": 80,
          "midi": 64,
          "name": "E4",
          "ticks": 149920,
          "time": 133.857009,
          "velocity": 1
        },
        {
          "duration": 0.07142850000002454,
          "durationTicks": 80,
          "midi": 75,
          "name": "D#5",
          "ticks": 150000,
          "time": 133.9284375,
          "velocity": 1
        },
        {
          "duration": 0.0714284999999677,
          "durationTicks": 80,
          "midi": 72,
          "name": "C5",
          "ticks": 150080,
          "time": 133.99986600000003,
          "velocity": 1
        },
        {
          "duration": 0.07142850000002454,
          "durationTicks": 80,
          "midi": 64,
          "name": "E4",
          "ticks": 150160,
          "time": 134.0712945,
          "velocity": 1
        },
        {
          "duration": 0.07142849999999612,
          "durationTicks": 80,
          "midi": 75,
          "name": "D#5",
          "ticks": 150240,
          "time": 134.14272300000002,
          "velocity": 1
        },
        {
          "duration": 0.07142849999999612,
          "durationTicks": 80,
          "midi": 72,
          "name": "C5",
          "ticks": 150320,
          "time": 134.2141515,
          "velocity": 1
        },
        {
          "duration": 0.07142849999999612,
          "durationTicks": 80,
          "midi": 64,
          "name": "E4",
          "ticks": 150400,
          "time": 134.28558,
          "velocity": 1
        },
        {
          "duration": 0.07142850000002454,
          "durationTicks": 80,
          "midi": 75,
          "name": "D#5",
          "ticks": 150480,
          "time": 134.3570085,
          "velocity": 1
        },
        {
          "duration": 0.0714284999999677,
          "durationTicks": 80,
          "midi": 72,
          "name": "C5",
          "ticks": 150560,
          "time": 134.42843700000003,
          "velocity": 1
        },
        {
          "duration": 0.07142850000002454,
          "durationTicks": 80,
          "midi": 64,
          "name": "E4",
          "ticks": 150640,
          "time": 134.4998655,
          "velocity": 1
        },
        {
          "duration": 0.07142849999999612,
          "durationTicks": 80,
          "midi": 76,
          "name": "E5",
          "ticks": 150720,
          "time": 134.57129400000002,
          "velocity": 1
        },
        {
          "duration": 0.07142849999999612,
          "durationTicks": 80,
          "midi": 73,
          "name": "C#5",
          "ticks": 150800,
          "time": 134.64272250000002,
          "velocity": 1
        },
        {
          "duration": 0.07142849999999612,
          "durationTicks": 80,
          "midi": 64,
          "name": "E4",
          "ticks": 150880,
          "time": 134.71415100000002,
          "velocity": 1
        },
        {
          "duration": 0.07142849999999612,
          "durationTicks": 80,
          "midi": 76,
          "name": "E5",
          "ticks": 150960,
          "time": 134.7855795,
          "velocity": 1
        },
        {
          "duration": 0.07142849999999612,
          "durationTicks": 80,
          "midi": 73,
          "name": "C#5",
          "ticks": 151040,
          "time": 134.857008,
          "velocity": 1
        },
        {
          "duration": 0.07142849999999612,
          "durationTicks": 80,
          "midi": 64,
          "name": "E4",
          "ticks": 151120,
          "time": 134.9284365,
          "velocity": 1
        },
        {
          "duration": 0.07142850000002454,
          "durationTicks": 80,
          "midi": 76,
          "name": "E5",
          "ticks": 151200,
          "time": 134.999865,
          "velocity": 1
        },
        {
          "duration": 0.0714284999999677,
          "durationTicks": 80,
          "midi": 73,
          "name": "C#5",
          "ticks": 151280,
          "time": 135.07129350000002,
          "velocity": 1
        },
        {
          "duration": 0.07142850000002454,
          "durationTicks": 80,
          "midi": 64,
          "name": "E4",
          "ticks": 151360,
          "time": 135.142722,
          "velocity": 1
        },
        {
          "duration": 0.07142849999999612,
          "durationTicks": 80,
          "midi": 76,
          "name": "E5",
          "ticks": 151440,
          "time": 135.21415050000002,
          "velocity": 1
        },
        {
          "duration": 0.07142849999999612,
          "durationTicks": 80,
          "midi": 73,
          "name": "C#5",
          "ticks": 151520,
          "time": 135.285579,
          "velocity": 1
        },
        {
          "duration": 0.07142849999999612,
          "durationTicks": 80,
          "midi": 64,
          "name": "E4",
          "ticks": 151600,
          "time": 135.3570075,
          "velocity": 1
        },
        {
          "duration": 0.07142850000002454,
          "durationTicks": 80,
          "midi": 77,
          "name": "F5",
          "ticks": 151680,
          "time": 135.428436,
          "velocity": 1
        },
        {
          "duration": 0.0714284999999677,
          "durationTicks": 80,
          "midi": 74,
          "name": "D5",
          "ticks": 151760,
          "time": 135.49986450000003,
          "velocity": 1
        },
        {
          "duration": 0.07142850000002454,
          "durationTicks": 80,
          "midi": 64,
          "name": "E4",
          "ticks": 151840,
          "time": 135.571293,
          "velocity": 1
        },
        {
          "duration": 0.07142849999999612,
          "durationTicks": 80,
          "midi": 77,
          "name": "F5",
          "ticks": 151920,
          "time": 135.64272150000002,
          "velocity": 1
        },
        {
          "duration": 0.07142849999999612,
          "durationTicks": 80,
          "midi": 74,
          "name": "D5",
          "ticks": 152000,
          "time": 135.71415000000002,
          "velocity": 1
        },
        {
          "duration": 0.07142849999999612,
          "durationTicks": 80,
          "midi": 64,
          "name": "E4",
          "ticks": 152080,
          "time": 135.7855785,
          "velocity": 1
        },
        {
          "duration": 0.07142849999999612,
          "durationTicks": 80,
          "midi": 77,
          "name": "F5",
          "ticks": 152160,
          "time": 135.857007,
          "velocity": 1
        },
        {
          "duration": 0.07142849999999612,
          "durationTicks": 80,
          "midi": 74,
          "name": "D5",
          "ticks": 152240,
          "time": 135.9284355,
          "velocity": 1
        },
        {
          "duration": 0.07142849999999612,
          "durationTicks": 80,
          "midi": 64,
          "name": "E4",
          "ticks": 152320,
          "time": 135.999864,
          "velocity": 1
        },
        {
          "duration": 0.07142850000002454,
          "durationTicks": 80,
          "midi": 77,
          "name": "F5",
          "ticks": 152400,
          "time": 136.0712925,
          "velocity": 1
        },
        {
          "duration": 0.0714284999999677,
          "durationTicks": 80,
          "midi": 74,
          "name": "D5",
          "ticks": 152480,
          "time": 136.14272100000002,
          "velocity": 1
        },
        {
          "duration": 0.07142850000002454,
          "durationTicks": 80,
          "midi": 64,
          "name": "E4",
          "ticks": 152560,
          "time": 136.2141495,
          "velocity": 1
        },
        {
          "duration": 0.07142849999999612,
          "durationTicks": 80,
          "midi": 78,
          "name": "F#5",
          "ticks": 152640,
          "time": 136.28557800000002,
          "velocity": 1
        },
        {
          "duration": 0.07142849999999612,
          "durationTicks": 80,
          "midi": 75,
          "name": "D#5",
          "ticks": 152720,
          "time": 136.3570065,
          "velocity": 1
        },
        {
          "duration": 0.07142849999999612,
          "durationTicks": 80,
          "midi": 64,
          "name": "E4",
          "ticks": 152800,
          "time": 136.428435,
          "velocity": 1
        },
        {
          "duration": 0.07142850000002454,
          "durationTicks": 80,
          "midi": 78,
          "name": "F#5",
          "ticks": 152880,
          "time": 136.4998635,
          "velocity": 1
        },
        {
          "duration": 0.0714284999999677,
          "durationTicks": 80,
          "midi": 75,
          "name": "D#5",
          "ticks": 152960,
          "time": 136.57129200000003,
          "velocity": 1
        },
        {
          "duration": 0.07142850000002454,
          "durationTicks": 80,
          "midi": 64,
          "name": "E4",
          "ticks": 153040,
          "time": 136.6427205,
          "velocity": 1
        },
        {
          "duration": 0.07142849999999612,
          "durationTicks": 80,
          "midi": 78,
          "name": "F#5",
          "ticks": 153120,
          "time": 136.71414900000002,
          "velocity": 1
        },
        {
          "duration": 0.07142849999999612,
          "durationTicks": 80,
          "midi": 75,
          "name": "D#5",
          "ticks": 153200,
          "time": 136.78557750000002,
          "velocity": 1
        },
        {
          "duration": 0.07142849999999612,
          "durationTicks": 80,
          "midi": 64,
          "name": "E4",
          "ticks": 153280,
          "time": 136.857006,
          "velocity": 1
        },
        {
          "duration": 0.07142850000002454,
          "durationTicks": 80,
          "midi": 78,
          "name": "F#5",
          "ticks": 153360,
          "time": 136.9284345,
          "velocity": 1
        },
        {
          "duration": 0.0714284999999677,
          "durationTicks": 80,
          "midi": 75,
          "name": "D#5",
          "ticks": 153440,
          "time": 136.99986300000003,
          "velocity": 1
        },
        {
          "duration": 0.07142849999999612,
          "durationTicks": 80,
          "midi": 64,
          "name": "E4",
          "ticks": 153520,
          "time": 137.0712915,
          "velocity": 1
        },
        {
          "duration": 0.07142850000002454,
          "durationTicks": 80,
          "midi": 79,
          "name": "G5",
          "ticks": 153600,
          "time": 137.14272,
          "velocity": 1
        },
        {
          "duration": 0.0714284999999677,
          "durationTicks": 80,
          "midi": 76,
          "name": "E5",
          "ticks": 153680,
          "time": 137.21414850000002,
          "velocity": 1
        },
        {
          "duration": 0.07142850000002454,
          "durationTicks": 80,
          "midi": 64,
          "name": "E4",
          "ticks": 153760,
          "time": 137.285577,
          "velocity": 1
        },
        {
          "duration": 0.07142849999999612,
          "durationTicks": 80,
          "midi": 79,
          "name": "G5",
          "ticks": 153840,
          "time": 137.3570055,
          "velocity": 1
        },
        {
          "duration": 0.07142849999999612,
          "durationTicks": 80,
          "midi": 76,
          "name": "E5",
          "ticks": 153920,
          "time": 137.428434,
          "velocity": 1
        },
        {
          "duration": 0.07142849999999612,
          "durationTicks": 80,
          "midi": 64,
          "name": "E4",
          "ticks": 154000,
          "time": 137.4998625,
          "velocity": 1
        },
        {
          "duration": 0.07142850000002454,
          "durationTicks": 80,
          "midi": 79,
          "name": "G5",
          "ticks": 154080,
          "time": 137.571291,
          "velocity": 1
        },
        {
          "duration": 0.0714284999999677,
          "durationTicks": 80,
          "midi": 76,
          "name": "E5",
          "ticks": 154160,
          "time": 137.64271950000003,
          "velocity": 1
        },
        {
          "duration": 0.07142850000002454,
          "durationTicks": 80,
          "midi": 64,
          "name": "E4",
          "ticks": 154240,
          "time": 137.714148,
          "velocity": 1
        },
        {
          "duration": 0.07142849999999612,
          "durationTicks": 80,
          "midi": 79,
          "name": "G5",
          "ticks": 154320,
          "time": 137.78557650000002,
          "velocity": 1
        },
        {
          "duration": 0.07142849999999612,
          "durationTicks": 80,
          "midi": 76,
          "name": "E5",
          "ticks": 154400,
          "time": 137.85700500000002,
          "velocity": 1
        },
        {
          "duration": 0.07142849999999612,
          "durationTicks": 80,
          "midi": 64,
          "name": "E4",
          "ticks": 154480,
          "time": 137.9284335,
          "velocity": 1
        },
        {
          "duration": 0.07142850000002454,
          "durationTicks": 80,
          "midi": 80,
          "name": "G#5",
          "ticks": 154560,
          "time": 137.999862,
          "velocity": 1
        },
        {
          "duration": 0.0714284999999677,
          "durationTicks": 80,
          "midi": 77,
          "name": "F5",
          "ticks": 154640,
          "time": 138.07129050000003,
          "velocity": 1
        },
        {
          "duration": 0.07142850000002454,
          "durationTicks": 80,
          "midi": 64,
          "name": "E4",
          "ticks": 154720,
          "time": 138.142719,
          "velocity": 1
        },
        {
          "duration": 0.07142849999999612,
          "durationTicks": 80,
          "midi": 80,
          "name": "G#5",
          "ticks": 154800,
          "time": 138.21414750000002,
          "velocity": 1
        },
        {
          "duration": 0.07142849999999612,
          "durationTicks": 80,
          "midi": 77,
          "name": "F5",
          "ticks": 154880,
          "time": 138.28557600000002,
          "velocity": 1
        },
        {
          "duration": 0.07142849999999612,
          "durationTicks": 80,
          "midi": 64,
          "name": "E4",
          "ticks": 154960,
          "time": 138.35700450000002,
          "velocity": 1
        },
        {
          "duration": 0.07142849999999612,
          "durationTicks": 80,
          "midi": 80,
          "name": "G#5",
          "ticks": 155040,
          "time": 138.428433,
          "velocity": 1
        },
        {
          "duration": 0.07142849999999612,
          "durationTicks": 80,
          "midi": 77,
          "name": "F5",
          "ticks": 155120,
          "time": 138.4998615,
          "velocity": 1
        },
        {
          "duration": 0.07142849999999612,
          "durationTicks": 80,
          "midi": 64,
          "name": "E4",
          "ticks": 155200,
          "time": 138.57129,
          "velocity": 1
        },
        {
          "duration": 0.07142850000002454,
          "durationTicks": 80,
          "midi": 80,
          "name": "G#5",
          "ticks": 155280,
          "time": 138.6427185,
          "velocity": 1
        },
        {
          "duration": 0.0714284999999677,
          "durationTicks": 80,
          "midi": 77,
          "name": "F5",
          "ticks": 155360,
          "time": 138.71414700000003,
          "velocity": 1
        },
        {
          "duration": 0.07142850000002454,
          "durationTicks": 80,
          "midi": 64,
          "name": "E4",
          "ticks": 155440,
          "time": 138.7855755,
          "velocity": 1
        },
        {
          "duration": 0.07142849999999612,
          "durationTicks": 80,
          "midi": 81,
          "name": "A5",
          "ticks": 155520,
          "time": 138.85700400000002,
          "velocity": 1
        },
        {
          "duration": 0.07142849999999612,
          "durationTicks": 80,
          "midi": 78,
          "name": "F#5",
          "ticks": 155600,
          "time": 138.9284325,
          "velocity": 1
        },
        {
          "duration": 0.07142849999999612,
          "durationTicks": 80,
          "midi": 64,
          "name": "E4",
          "ticks": 155680,
          "time": 138.999861,
          "velocity": 1
        },
        {
          "duration": 0.07142850000002454,
          "durationTicks": 80,
          "midi": 81,
          "name": "A5",
          "ticks": 155760,
          "time": 139.0712895,
          "velocity": 1
        },
        {
          "duration": 0.0714284999999677,
          "durationTicks": 80,
          "midi": 78,
          "name": "F#5",
          "ticks": 155840,
          "time": 139.14271800000003,
          "velocity": 1
        },
        {
          "duration": 0.07142850000002454,
          "durationTicks": 80,
          "midi": 64,
          "name": "E4",
          "ticks": 155920,
          "time": 139.2141465,
          "velocity": 1
        },
        {
          "duration": 0.07142849999999612,
          "durationTicks": 80,
          "midi": 81,
          "name": "A5",
          "ticks": 156000,
          "time": 139.28557500000002,
          "velocity": 1
        },
        {
          "duration": 0.07142849999999612,
          "durationTicks": 80,
          "midi": 78,
          "name": "F#5",
          "ticks": 156080,
          "time": 139.35700350000002,
          "velocity": 1
        },
        {
          "duration": 0.07142849999999612,
          "durationTicks": 80,
          "midi": 64,
          "name": "E4",
          "ticks": 156160,
          "time": 139.42843200000002,
          "velocity": 1
        },
        {
          "duration": 0.07142849999999612,
          "durationTicks": 80,
          "midi": 81,
          "name": "A5",
          "ticks": 156240,
          "time": 139.4998605,
          "velocity": 1
        },
        {
          "duration": 0.07142849999999612,
          "durationTicks": 80,
          "midi": 78,
          "name": "F#5",
          "ticks": 156320,
          "time": 139.571289,
          "velocity": 1
        },
        {
          "duration": 0.07142849999999612,
          "durationTicks": 80,
          "midi": 64,
          "name": "E4",
          "ticks": 156400,
          "time": 139.6427175,
          "velocity": 1
        },
        {
          "duration": 0.07142850000002454,
          "durationTicks": 80,
          "midi": 81,
          "name": "A5",
          "ticks": 156480,
          "time": 139.714146,
          "velocity": 1
        },
        {
          "duration": 0.0714284999999677,
          "durationTicks": 80,
          "midi": 78,
          "name": "F#5",
          "ticks": 156560,
          "time": 139.78557450000002,
          "velocity": 1
        },
        {
          "duration": 0.07142850000002454,
          "durationTicks": 80,
          "midi": 64,
          "name": "E4",
          "ticks": 156640,
          "time": 139.857003,
          "velocity": 1
        },
        {
          "duration": 0.07142849999999612,
          "durationTicks": 80,
          "midi": 81,
          "name": "A5",
          "ticks": 156720,
          "time": 139.92843150000002,
          "velocity": 1
        },
        {
          "duration": 0.07142849999999612,
          "durationTicks": 80,
          "midi": 78,
          "name": "F#5",
          "ticks": 156800,
          "time": 139.99986,
          "velocity": 1
        },
        {
          "duration": 0.07142849999999612,
          "durationTicks": 80,
          "midi": 64,
          "name": "E4",
          "ticks": 156880,
          "time": 140.0712885,
          "velocity": 1
        },
        {
          "duration": 0.07142850000002454,
          "durationTicks": 80,
          "midi": 81,
          "name": "A5",
          "ticks": 156960,
          "time": 140.142717,
          "velocity": 1
        },
        {
          "duration": 0.0714284999999677,
          "durationTicks": 80,
          "midi": 78,
          "name": "F#5",
          "ticks": 157040,
          "time": 140.21414550000003,
          "velocity": 1
        },
        {
          "duration": 0.07142850000002454,
          "durationTicks": 80,
          "midi": 64,
          "name": "E4",
          "ticks": 157120,
          "time": 140.285574,
          "velocity": 1
        },
        {
          "duration": 0.07142849999999612,
          "durationTicks": 80,
          "midi": 81,
          "name": "A5",
          "ticks": 157200,
          "time": 140.35700250000002,
          "velocity": 1
        },
        {
          "duration": 0.07142849999999612,
          "durationTicks": 80,
          "midi": 78,
          "name": "F#5",
          "ticks": 157280,
          "time": 140.42843100000002,
          "velocity": 1
        },
        {
          "duration": 0.07142849999999612,
          "durationTicks": 80,
          "midi": 64,
          "name": "E4",
          "ticks": 157360,
          "time": 140.4998595,
          "velocity": 1
        }
      ]
    },
    {
      "channel": 3,
      "controlChanges": {
        "6": [
          {
            "number": 6,
            "ticks": 129120,
            "time": 115.285599,
            "value": 0.06299212598425197
          },
          {
            "number": 6,
            "ticks": 132480,
            "time": 118.28559600000001,
            "value": 0.06299212598425197
          },
          {
            "number": 6,
            "ticks": 134400,
            "time": 119.99988,
            "value": 0.06299212598425197
          },
          {
            "number": 6,
            "ticks": 140640,
            "time": 125.57130300000001,
            "value": 0.06299212598425197
          },
          {
            "number": 6,
            "ticks": 141600,
            "time": 126.42844500000001,
            "value": 0.06299212598425197
          },
          {
            "number": 6,
            "ticks": 157440,
            "time": 140.571288,
            "value": 0.06299212598425197
          }
        ]
      },
      "pitchBends": [
        {
          "ticks": 129120,
          "time": 115.285599,
          "value": 0
        },
        {
          "ticks": 129157,
          "time": 115.31863468125002,
          "value": 0.015625
        },
        {
          "ticks": 129194,
          "time": 115.3516703625,
          "value": 0.03125
        },
        {
          "ticks": 129231,
          "time": 115.38470604375,
          "value": 0.046875
        },
        {
          "ticks": 129268,
          "time": 115.41774172500001,
          "value": 0.0625
        },
        {
          "ticks": 129305,
          "time": 115.45077740625001,
          "value": 0.078125
        },
        {
          "ticks": 129342,
          "time": 115.4838130875,
          "value": 0.09375
        },
        {
          "ticks": 129379,
          "time": 115.51684876875001,
          "value": 0.109375
        },
        {
          "ticks": 129416,
          "time": 115.54988445000001,
          "value": 0.125
        },
        {
          "ticks": 129453,
          "time": 115.58292013125002,
          "value": 0.140625
        },
        {
          "ticks": 129490,
          "time": 115.6159558125,
          "value": 0.15625
        },
        {
          "ticks": 129527,
          "time": 115.64899149375,
          "value": 0.171875
        },
        {
          "ticks": 129564,
          "time": 115.68202717500002,
          "value": 0.1875
        },
        {
          "ticks": 129601,
          "time": 115.71506285625001,
          "value": 0.203125
        },
        {
          "ticks": 129638,
          "time": 115.7480985375,
          "value": 0.21875
        },
        {
          "ticks": 129675,
          "time": 115.78113421875001,
          "value": 0.234375
        },
        {
          "ticks": 129712,
          "time": 115.81416990000001,
          "value": 0.25
        },
        {
          "ticks": 130320,
          "time": 116.3570265,
          "value": 0
        },
        {
          "ticks": 132000,
          "time": 117.85702500000001,
          "value": 0
        },
        {
          "ticks": 132517,
          "time": 118.31863168125001,
          "value": 0.015625
        },
        {
          "ticks": 132554,
          "time": 118.3516673625,
          "value": 0.03125
        },
        {
          "ticks": 132591,
          "time": 118.38470304375001,
          "value": 0.046875
        },
        {
          "ticks": 132628,
          "time": 118.417738725,
          "value": 0.0625
        },
        {
          "ticks": 132665,
          "time": 118.45077440625002,
          "value": 0.078125
        },
        {
          "ticks": 132702,
          "time": 118.4838100875,
          "value": 0.09375
        },
        {
          "ticks": 132739,
          "time": 118.51684576875,
          "value": 0.109375
        },
        {
          "ticks": 132776,
          "time": 118.54988145000002,
          "value": 0.125
        },
        {
          "ticks": 132813,
          "time": 118.58291713125001,
          "value": 0.140625
        },
        {
          "ticks": 132850,
          "time": 118.6159528125,
          "value": 0.15625
        },
        {
          "ticks": 132887,
          "time": 118.64898849375001,
          "value": 0.171875
        },
        {
          "ticks": 132924,
          "time": 118.68202417500001,
          "value": 0.1875
        },
        {
          "ticks": 132961,
          "time": 118.71505985625002,
          "value": 0.203125
        },
        {
          "ticks": 132998,
          "time": 118.7480955375,
          "value": 0.21875
        },
        {
          "ticks": 133035,
          "time": 118.78113121875,
          "value": 0.234375
        },
        {
          "ticks": 133072,
          "time": 118.81416690000002,
          "value": 0.25
        },
        {
          "ticks": 133680,
          "time": 119.35702350000001,
          "value": 0
        },
        {
          "ticks": 134411,
          "time": 120.00970141875001,
          "value": 0.015625
        },
        {
          "ticks": 134422,
          "time": 120.01952283750002,
          "value": 0.03125
        },
        {
          "ticks": 134433,
          "time": 120.02934425625001,
          "value": 0.046875
        },
        {
          "ticks": 134444,
          "time": 120.03916567499999,
          "value": 0.0625
        },
        {
          "ticks": 134455,
          "time": 120.04898709375,
          "value": 0.078125
        },
        {
          "ticks": 134466,
          "time": 120.05880851250001,
          "value": 0.09375
        },
        {
          "ticks": 134477,
          "time": 120.06862993125,
          "value": 0.109375
        },
        {
          "ticks": 134488,
          "time": 120.07845135000001,
          "value": 0.125
        },
        {
          "ticks": 134499,
          "time": 120.08827276875002,
          "value": 0.140625
        },
        {
          "ticks": 134510,
          "time": 120.09809418750002,
          "value": 0.15625
        },
        {
          "ticks": 134521,
          "time": 120.10791560625002,
          "value": 0.171875
        },
        {
          "ticks": 134532,
          "time": 120.117737025,
          "value": 0.1875
        },
        {
          "ticks": 134543,
          "time": 120.12755844375,
          "value": 0.203125
        },
        {
          "ticks": 134554,
          "time": 120.13737986250001,
          "value": 0.21875
        },
        {
          "ticks": 134565,
          "time": 120.14720128125,
          "value": 0.234375
        },
        {
          "ticks": 134576,
          "time": 120.15702270000001,
          "value": 0.25
        },
        {
          "ticks": 134760,
          "time": 120.32130825000002,
          "value": 0
        },
        {
          "ticks": 138360,
          "time": 123.53559075000001,
          "value": 0
        },
        {
          "ticks": 140640,
          "time": 125.57130300000001,
          "value": 0
        },
        {
          "ticks": 140655,
          "time": 125.58469584375001,
          "value": 0.015625
        },
        {
          "ticks": 140670,
          "time": 125.59808868750001,
          "value": 0.03125
        },
        {
          "ticks": 140685,
          "time": 125.61148153125,
          "value": 0.046875
        },
        {
          "ticks": 140700,
          "time": 125.624874375,
          "value": 0.0625
        },
        {
          "ticks": 140715,
          "time": 125.63826721875002,
          "value": 0.078125
        },
        {
          "ticks": 140730,
          "time": 125.65166006250001,
          "value": 0.09375
        },
        {
          "ticks": 140745,
          "time": 125.66505290625001,
          "value": 0.109375
        },
        {
          "ticks": 140760,
          "time": 125.67844575000001,
          "value": 0.125
        },
        {
          "ticks": 140775,
          "time": 125.69183859375,
          "value": 0.140625
        },
        {
          "ticks": 140790,
          "time": 125.7052314375,
          "value": 0.15625
        },
        {
          "ticks": 140805,
          "time": 125.71862428125002,
          "value": 0.171875
        },
        {
          "ticks": 140820,
          "time": 125.73201712500001,
          "value": 0.1875
        },
        {
          "ticks": 140835,
          "time": 125.74540996875001,
          "value": 0.203125
        },
        {
          "ticks": 140850,
          "time": 125.75880281250001,
          "value": 0.21875
        },
        {
          "ticks": 140865,
          "time": 125.77219565625,
          "value": 0.234375
        },
        {
          "ticks": 140880,
          "time": 125.78558850000002,
          "value": 0.25
        },
        {
          "ticks": 140895,
          "time": 125.79898134375001,
          "value": 0.265625
        },
        {
          "ticks": 140910,
          "time": 125.81237418750001,
          "value": 0.28125
        },
        {
          "ticks": 140925,
          "time": 125.82576703125001,
          "value": 0.296875
        },
        {
          "ticks": 140940,
          "time": 125.839159875,
          "value": 0.3125
        },
        {
          "ticks": 140955,
          "time": 125.85255271875,
          "value": 0.328125
        },
        {
          "ticks": 140970,
          "time": 125.86594556250002,
          "value": 0.34375
        },
        {
          "ticks": 140985,
          "time": 125.87933840625001,
          "value": 0.359375
        },
        {
          "ticks": 141000,
          "time": 125.89273125000001,
          "value": 0.375
        },
        {
          "ticks": 141015,
          "time": 125.90612409375001,
          "value": 0.390625
        },
        {
          "ticks": 141030,
          "time": 125.9195169375,
          "value": 0.40625
        },
        {
          "ticks": 141045,
          "time": 125.93290978125,
          "value": 0.421875
        },
        {
          "ticks": 141060,
          "time": 125.94630262500002,
          "value": 0.4375
        },
        {
          "ticks": 141075,
          "time": 125.95969546875001,
          "value": 0.453125
        },
        {
          "ticks": 141090,
          "time": 125.97308831250001,
          "value": 0.46875
        },
        {
          "ticks": 141105,
          "time": 125.98648115625001,
          "value": 0.484375
        },
        {
          "ticks": 141120,
          "time": 125.999874,
          "value": 0.5
        },
        {
          "ticks": 141600,
          "time": 126.42844500000001,
          "value": 0
        },
        {
          "ticks": 141615,
          "time": 126.44183784375001,
          "value": 0.015625
        },
        {
          "ticks": 141630,
          "time": 126.4552306875,
          "value": 0.03125
        },
        {
          "ticks": 141645,
          "time": 126.46862353125002,
          "value": 0.046875
        },
        {
          "ticks": 141660,
          "time": 126.48201637500001,
          "value": 0.0625
        },
        {
          "ticks": 141675,
          "time": 126.49540921875001,
          "value": 0.078125
        },
        {
          "ticks": 141690,
          "time": 126.50880206250001,
          "value": 0.09375
        },
        {
          "ticks": 141705,
          "time": 126.52219490625001,
          "value": 0.109375
        },
        {
          "ticks": 141720,
          "time": 126.53558775,
          "value": 0.125
        },
        {
          "ticks": 141735,
          "time": 126.54898059375002,
          "value": 0.140625
        },
        {
          "ticks": 141750,
          "time": 126.56237343750001,
          "value": 0.15625
        },
        {
          "ticks": 141765,
          "time": 126.57576628125001,
          "value": 0.171875
        },
        {
          "ticks": 141780,
          "time": 126.58915912500001,
          "value": 0.1875
        },
        {
          "ticks": 141795,
          "time": 126.60255196875,
          "value": 0.203125
        },
        {
          "ticks": 141810,
          "time": 126.6159448125,
          "value": 0.21875
        },
        {
          "ticks": 141825,
          "time": 126.62933765625002,
          "value": 0.234375
        },
        {
          "ticks": 141840,
          "time": 126.64273050000001,
          "value": 0.25
        },
        {
          "ticks": 142080,
          "time": 126.85701600000002,
          "value": 0
        },
        {
          "ticks": 157500,
          "time": 140.624859375,
          "value": 0.015625
        },
        {
          "ticks": 157560,
          "time": 140.67843075000002,
          "value": 0.03125
        },
        {
          "ticks": 157620,
          "time": 140.732002125,
          "value": 0.046875
        },
        {
          "ticks": 157680,
          "time": 140.7855735,
          "value": 0.0625
        },
        {
          "ticks": 157740,
          "time": 140.83914487500002,
          "value": 0.078125
        },
        {
          "ticks": 157800,
          "time": 140.89271625,
          "value": 0.09375
        },
        {
          "ticks": 157860,
          "time": 140.94628762500002,
          "value": 0.109375
        },
        {
          "ticks": 157920,
          "time": 140.99985900000001,
          "value": 0.125
        },
        {
          "ticks": 157980,
          "time": 141.053430375,
          "value": 0.140625
        },
        {
          "ticks": 158040,
          "time": 141.10700175000002,
          "value": 0.15625
        },
        {
          "ticks": 158100,
          "time": 141.160573125,
          "value": 0.171875
        },
        {
          "ticks": 158160,
          "time": 141.2141445,
          "value": 0.1875
        },
        {
          "ticks": 158220,
          "time": 141.26771587500002,
          "value": 0.203125
        },
        {
          "ticks": 158280,
          "time": 141.32128725,
          "value": 0.21875
        },
        {
          "ticks": 158340,
          "time": 141.374858625,
          "value": 0.234375
        },
        {
          "ticks": 158400,
          "time": 141.42843000000002,
          "value": 0.25
        }
      ],
      "instrument": {
        "family": "guitar",
        "number": 30,
        "name": "distortion guitar"
      },
      "name": "",
      "notes": [
        {
          "duration": 1.0714274999999986,
          "durationTicks": 1200,
          "midi": 64,
          "name": "E4",
          "ticks": 129120,
          "time": 115.285599,
          "velocity": 1
        },
        {
          "duration": 1.0714274999999986,
          "durationTicks": 1200,
          "midi": 69,
          "name": "A4",
          "ticks": 132480,
          "time": 118.28559600000001,
          "velocity": 1
        },
        {
          "duration": 0.32142825000001096,
          "durationTicks": 360,
          "midi": 69,
          "name": "A4",
          "ticks": 134400,
          "time": 119.99988,
          "velocity": 1
        },
        {
          "duration": 0.8571419999999961,
          "durationTicks": 960,
          "midi": 62,
          "name": "D4",
          "ticks": 140640,
          "time": 125.57130300000001,
          "velocity": 1
        },
        {
          "duration": 0.42857100000000514,
          "durationTicks": 480,
          "midi": 62,
          "name": "D4",
          "ticks": 141600,
          "time": 126.42844500000001,
          "velocity": 1
        },
        {
          "duration": 1.7142839999999921,
          "durationTicks": 1920,
          "midi": 81,
          "name": "A5",
          "ticks": 157440,
          "time": 140.571288,
          "velocity": 1
        }
      ]
    },
    {
      "channel": 0,
      "controlChanges": {
        "7": [
          {
            "number": 7,
            "ticks": 0,
            "time": 0,
            "value": 1
          }
        ],
        "10": [
          {
            "number": 10,
            "ticks": 0,
            "time": 0,
            "value": 0.5039370078740157
          }
        ],
        "91": [
          {
            "number": 91,
            "ticks": 0,
            "time": 0,
            "value": 0
          }
        ],
        "93": [
          {
            "number": 93,
            "ticks": 0,
            "time": 0,
            "value": 0
          }
        ]
      },
      "pitchBends": [],
      "instrument": {
        "family": "piano",
        "number": 0,
        "name": "acoustic grand piano"
      },
      "name": "Bass",
      "notes": [],
      "endOfTrackTicks": 224160
    },
    {
      "channel": 0,
      "controlChanges": {},
      "pitchBends": [],
      "instrument": {
        "family": "piano",
        "number": 0,
        "name": "acoustic grand piano"
      },
      "name": "",
      "notes": []
    },
    {
      "channel": 0,
      "controlChanges": {
        "7": [
          {
            "number": 7,
            "ticks": 0,
            "time": 0,
            "value": 1
          }
        ],
        "10": [
          {
            "number": 10,
            "ticks": 0,
            "time": 0,
            "value": 0.5039370078740157
          }
        ],
        "91": [
          {
            "number": 91,
            "ticks": 0,
            "time": 0,
            "value": 0
          }
        ],
        "93": [
          {
            "number": 93,
            "ticks": 0,
            "time": 0,
            "value": 0
          }
        ]
      },
      "pitchBends": [],
      "instrument": {
        "family": "piano",
        "number": 0,
        "name": "acoustic grand piano"
      },
      "name": "",
      "notes": []
    },
    {
      "channel": 14,
      "controlChanges": {},
      "pitchBends": [],
      "instrument": {
        "family": "bass",
        "number": 34,
        "name": "electric bass (pick)"
      },
      "name": "",
      "notes": [
        {
          "duration": 0.21428550000000002,
          "durationTicks": 240,
          "midi": 28,
          "name": "E1",
          "ticks": 0,
          "time": 0,
          "velocity": 1
        },
        {
          "duration": 0.21428550000000002,
          "durationTicks": 240,
          "midi": 28,
          "name": "E1",
          "ticks": 240,
          "time": 0.21428550000000002,
          "velocity": 1
        },
        {
          "duration": 0.21428550000000002,
          "durationTicks": 240,
          "midi": 28,
          "name": "E1",
          "ticks": 480,
          "time": 0.42857100000000004,
          "velocity": 1
        },
        {
          "duration": 0.21428550000000002,
          "durationTicks": 240,
          "midi": 28,
          "name": "E1",
          "ticks": 720,
          "time": 0.6428565,
          "velocity": 1
        },
        {
          "duration": 0.2142854999999999,
          "durationTicks": 240,
          "midi": 28,
          "name": "E1",
          "ticks": 960,
          "time": 0.8571420000000001,
          "velocity": 1
        },
        {
          "duration": 0.21428550000000013,
          "durationTicks": 240,
          "midi": 28,
          "name": "E1",
          "ticks": 1200,
          "time": 1.0714275,
          "velocity": 1
        },
        {
          "duration": 0.21428550000000013,
          "durationTicks": 240,
          "midi": 28,
          "name": "E1",
          "ticks": 1440,
          "time": 1.285713,
          "velocity": 1
        },
        {
          "duration": 0.2142854999999999,
          "durationTicks": 240,
          "midi": 31,
          "name": "G1",
          "ticks": 1680,
          "time": 1.4999985000000002,
          "velocity": 1
        },
        {
          "duration": 0.2142854999999999,
          "durationTicks": 240,
          "midi": 31,
          "name": "G1",
          "ticks": 1920,
          "time": 1.7142840000000001,
          "velocity": 1
        },
        {
          "duration": 0.2142854999999999,
          "durationTicks": 240,
          "midi": 28,
          "name": "E1",
          "ticks": 2160,
          "time": 1.9285695,
          "velocity": 1
        },
        {
          "duration": 0.21428550000000035,
          "durationTicks": 240,
          "midi": 28,
          "name": "E1",
          "ticks": 2400,
          "time": 2.142855,
          "velocity": 1
        },
        {
          "duration": 0.2142854999999999,
          "durationTicks": 240,
          "midi": 28,
          "name": "E1",
          "ticks": 2640,
          "time": 2.3571405000000003,
          "velocity": 1
        },
        {
          "duration": 0.2142854999999999,
          "durationTicks": 240,
          "midi": 28,
          "name": "E1",
          "ticks": 2880,
          "time": 2.571426,
          "velocity": 1
        },
        {
          "duration": 0.21428550000000035,
          "durationTicks": 240,
          "midi": 28,
          "name": "E1",
          "ticks": 3120,
          "time": 2.7857115,
          "velocity": 1
        },
        {
          "duration": 0.2142854999999999,
          "durationTicks": 240,
          "midi": 28,
          "name": "E1",
          "ticks": 3360,
          "time": 2.9999970000000005,
          "velocity": 1
        },
        {
          "duration": 0.2142854999999999,
          "durationTicks": 240,
          "midi": 33,
          "name": "A1",
          "ticks": 3600,
          "time": 3.2142825000000004,
          "velocity": 1
        },
        {
          "duration": 0.2142854999999999,
          "durationTicks": 240,
          "midi": 33,
          "name": "A1",
          "ticks": 3840,
          "time": 3.4285680000000003,
          "velocity": 1
        },
        {
          "duration": 0.2142854999999999,
          "durationTicks": 240,
          "midi": 28,
          "name": "E1",
          "ticks": 4080,
          "time": 3.6428535,
          "velocity": 1
        },
        {
          "duration": 0.2142854999999999,
          "durationTicks": 240,
          "midi": 28,
          "name": "E1",
          "ticks": 4320,
          "time": 3.857139,
          "velocity": 1
        },
        {
          "duration": 0.2142854999999999,
          "durationTicks": 240,
          "midi": 28,
          "name": "E1",
          "ticks": 4560,
          "time": 4.0714245,
          "velocity": 1
        },
        {
          "duration": 0.2142855000000008,
          "durationTicks": 240,
          "midi": 28,
          "name": "E1",
          "ticks": 4800,
          "time": 4.28571,
          "velocity": 1
        },
        {
          "duration": 0.2142854999999999,
          "durationTicks": 240,
          "midi": 28,
          "name": "E1",
          "ticks": 5040,
          "time": 4.499995500000001,
          "velocity": 1
        },
        {
          "duration": 0.2142854999999999,
          "durationTicks": 240,
          "midi": 28,
          "name": "E1",
          "ticks": 5280,
          "time": 4.714281000000001,
          "velocity": 1
        },
        {
          "duration": 0.2142854999999999,
          "durationTicks": 240,
          "midi": 38,
          "name": "D2",
          "ticks": 5520,
          "time": 4.9285665000000005,
          "velocity": 1
        },
        {
          "duration": 0.2142854999999999,
          "durationTicks": 240,
          "midi": 38,
          "name": "D2",
          "ticks": 5760,
          "time": 5.142852,
          "velocity": 1
        },
        {
          "duration": 0.2142854999999999,
          "durationTicks": 240,
          "midi": 28,
          "name": "E1",
          "ticks": 6000,
          "time": 5.3571375,
          "velocity": 1
        },
        {
          "duration": 0.2142854999999999,
          "durationTicks": 240,
          "midi": 28,
          "name": "E1",
          "ticks": 6240,
          "time": 5.571423,
          "velocity": 1
        },
        {
          "duration": 0.2142855000000008,
          "durationTicks": 240,
          "midi": 28,
          "name": "E1",
          "ticks": 6480,
          "time": 5.7857085,
          "velocity": 1
        },
        {
          "duration": 0.2142854999999999,
          "durationTicks": 240,
          "midi": 28,
          "name": "E1",
          "ticks": 6720,
          "time": 5.999994000000001,
          "velocity": 1
        },
        {
          "duration": 0.2142854999999999,
          "durationTicks": 240,
          "midi": 28,
          "name": "E1",
          "ticks": 6960,
          "time": 6.214279500000001,
          "velocity": 1
        },
        {
          "duration": 0.2142854999999999,
          "durationTicks": 240,
          "midi": 28,
          "name": "E1",
          "ticks": 7200,
          "time": 6.428565000000001,
          "velocity": 1
        },
        {
          "duration": 0.2142854999999999,
          "durationTicks": 240,
          "midi": 28,
          "name": "E1",
          "ticks": 7440,
          "time": 6.642850500000001,
          "velocity": 1
        },
        {
          "duration": 0.2142854999999999,
          "durationTicks": 240,
          "midi": 28,
          "name": "E1",
          "ticks": 7680,
          "time": 6.857136000000001,
          "velocity": 1
        },
        {
          "duration": 0.2142854999999999,
          "durationTicks": 240,
          "midi": 28,
          "name": "E1",
          "ticks": 7920,
          "time": 7.0714215000000005,
          "velocity": 1
        },
        {
          "duration": 0.2142854999999999,
          "durationTicks": 240,
          "midi": 28,
          "name": "E1",
          "ticks": 8160,
          "time": 7.285707,
          "velocity": 1
        },
        {
          "duration": 0.2142854999999999,
          "durationTicks": 240,
          "midi": 28,
          "name": "E1",
          "ticks": 8400,
          "time": 7.4999925,
          "velocity": 1
        },
        {
          "duration": 0.2142855000000008,
          "durationTicks": 240,
          "midi": 28,
          "name": "E1",
          "ticks": 8640,
          "time": 7.714278,
          "velocity": 1
        },
        {
          "duration": 0.21428549999999902,
          "durationTicks": 240,
          "midi": 28,
          "name": "E1",
          "ticks": 8880,
          "time": 7.928563500000001,
          "velocity": 1
        },
        {
          "duration": 0.2142855000000008,
          "durationTicks": 240,
          "midi": 28,
          "name": "E1",
          "ticks": 9120,
          "time": 8.142849,
          "velocity": 1
        },
        {
          "duration": 0.21428549999999902,
          "durationTicks": 240,
          "midi": 31,
          "name": "G1",
          "ticks": 9360,
          "time": 8.3571345,
          "velocity": 1
        },
        {
          "duration": 0.2142855000000008,
          "durationTicks": 240,
          "midi": 31,
          "name": "G1",
          "ticks": 9600,
          "time": 8.57142,
          "velocity": 1
        },
        {
          "duration": 0.2142855000000008,
          "durationTicks": 240,
          "midi": 28,
          "name": "E1",
          "ticks": 9840,
          "time": 8.7857055,
          "velocity": 1
        },
        {
          "duration": 0.21428549999999902,
          "durationTicks": 240,
          "midi": 28,
          "name": "E1",
          "ticks": 10080,
          "time": 8.999991000000001,
          "velocity": 1
        },
        {
          "duration": 0.2142855000000008,
          "durationTicks": 240,
          "midi": 28,
          "name": "E1",
          "ticks": 10320,
          "time": 9.2142765,
          "velocity": 1
        },
        {
          "duration": 0.21428549999999902,
          "durationTicks": 240,
          "midi": 28,
          "name": "E1",
          "ticks": 10560,
          "time": 9.428562000000001,
          "velocity": 1
        },
        {
          "duration": 0.2142855000000008,
          "durationTicks": 240,
          "midi": 28,
          "name": "E1",
          "ticks": 10800,
          "time": 9.6428475,
          "velocity": 1
        },
        {
          "duration": 0.21428549999999902,
          "durationTicks": 240,
          "midi": 28,
          "name": "E1",
          "ticks": 11040,
          "time": 9.857133000000001,
          "velocity": 1
        },
        {
          "duration": 0.2142855000000008,
          "durationTicks": 240,
          "midi": 33,
          "name": "A1",
          "ticks": 11280,
          "time": 10.0714185,
          "velocity": 1
        },
        {
          "duration": 0.2142855000000008,
          "durationTicks": 240,
          "midi": 33,
          "name": "A1",
          "ticks": 11520,
          "time": 10.285704,
          "velocity": 1
        },
        {
          "duration": 0.21428549999999902,
          "durationTicks": 240,
          "midi": 28,
          "name": "E1",
          "ticks": 11760,
          "time": 10.499989500000002,
          "velocity": 1
        },
        {
          "duration": 0.2142855000000008,
          "durationTicks": 240,
          "midi": 28,
          "name": "E1",
          "ticks": 12000,
          "time": 10.714275,
          "velocity": 1
        },
        {
          "duration": 0.21428549999999902,
          "durationTicks": 240,
          "midi": 28,
          "name": "E1",
          "ticks": 12240,
          "time": 10.928560500000001,
          "velocity": 1
        },
        {
          "duration": 0.2142855000000008,
          "durationTicks": 240,
          "midi": 28,
          "name": "E1",
          "ticks": 12480,
          "time": 11.142846,
          "velocity": 1
        },
        {
          "duration": 0.21428549999999902,
          "durationTicks": 240,
          "midi": 28,
          "name": "E1",
          "ticks": 12720,
          "time": 11.357131500000001,
          "velocity": 1
        },
        {
          "duration": 0.2142855000000008,
          "durationTicks": 240,
          "midi": 28,
          "name": "E1",
          "ticks": 12960,
          "time": 11.571417,
          "velocity": 1
        },
        {
          "duration": 0.2142855000000008,
          "durationTicks": 240,
          "midi": 38,
          "name": "D2",
          "ticks": 13200,
          "time": 11.785702500000001,
          "velocity": 1
        },
        {
          "duration": 0.21428549999999902,
          "durationTicks": 240,
          "midi": 38,
          "name": "D2",
          "ticks": 13440,
          "time": 11.999988000000002,
          "velocity": 1
        },
        {
          "duration": 0.2142855000000008,
          "durationTicks": 240,
          "midi": 28,
          "name": "E1",
          "ticks": 13680,
          "time": 12.214273500000001,
          "velocity": 1
        },
        {
          "duration": 0.21428549999999902,
          "durationTicks": 240,
          "midi": 28,
          "name": "E1",
          "ticks": 13920,
          "time": 12.428559000000002,
          "velocity": 1
        },
        {
          "duration": 0.2142855000000008,
          "durationTicks": 240,
          "midi": 28,
          "name": "E1",
          "ticks": 14160,
          "time": 12.6428445,
          "velocity": 1
        },
        {
          "duration": 0.21428549999999902,
          "durationTicks": 240,
          "midi": 28,
          "name": "E1",
          "ticks": 14400,
          "time": 12.857130000000002,
          "velocity": 1
        },
        {
          "duration": 0.2142855000000008,
          "durationTicks": 240,
          "midi": 28,
          "name": "E1",
          "ticks": 14640,
          "time": 13.0714155,
          "velocity": 1
        },
        {
          "duration": 0.21428549999999902,
          "durationTicks": 240,
          "midi": 28,
          "name": "E1",
          "ticks": 14880,
          "time": 13.285701000000001,
          "velocity": 1
        },
        {
          "duration": 0.2142855000000008,
          "durationTicks": 240,
          "midi": 28,
          "name": "E1",
          "ticks": 15120,
          "time": 13.4999865,
          "velocity": 1
        },
        {
          "duration": 0.2142855000000008,
          "durationTicks": 240,
          "midi": 28,
          "name": "E1",
          "ticks": 15360,
          "time": 13.714272000000001,
          "velocity": 1
        },
        {
          "duration": 0.21428549999999902,
          "durationTicks": 240,
          "midi": 28,
          "name": "E1",
          "ticks": 15600,
          "time": 13.928557500000002,
          "velocity": 1
        },
        {
          "duration": 0.2142855000000008,
          "durationTicks": 240,
          "midi": 28,
          "name": "E1",
          "ticks": 15840,
          "time": 14.142843000000001,
          "velocity": 1
        },
        {
          "duration": 0.21428549999999902,
          "durationTicks": 240,
          "midi": 28,
          "name": "E1",
          "ticks": 16080,
          "time": 14.357128500000002,
          "velocity": 1
        },
        {
          "duration": 0.2142855000000008,
          "durationTicks": 240,
          "midi": 28,
          "name": "E1",
          "ticks": 16320,
          "time": 14.571414,
          "velocity": 1
        },
        {
          "duration": 0.21428549999999902,
          "durationTicks": 240,
          "midi": 28,
          "name": "E1",
          "ticks": 16560,
          "time": 14.785699500000002,
          "velocity": 1
        },
        {
          "duration": 0.2142855000000008,
          "durationTicks": 240,
          "midi": 28,
          "name": "E1",
          "ticks": 16800,
          "time": 14.999985,
          "velocity": 1
        },
        {
          "duration": 0.21428549999999902,
          "durationTicks": 240,
          "midi": 31,
          "name": "G1",
          "ticks": 17040,
          "time": 15.214270500000001,
          "velocity": 1
        },
        {
          "duration": 0.2142855000000008,
          "durationTicks": 240,
          "midi": 31,
          "name": "G1",
          "ticks": 17280,
          "time": 15.428556,
          "velocity": 1
        },
        {
          "duration": 0.2142855000000008,
          "durationTicks": 240,
          "midi": 28,
          "name": "E1",
          "ticks": 17520,
          "time": 15.642841500000001,
          "velocity": 1
        },
        {
          "duration": 0.21428549999999902,
          "durationTicks": 240,
          "midi": 28,
          "name": "E1",
          "ticks": 17760,
          "time": 15.857127000000002,
          "velocity": 1
        },
        {
          "duration": 0.21428549999999902,
          "durationTicks": 240,
          "midi": 28,
          "name": "E1",
          "ticks": 18000,
          "time": 16.0714125,
          "velocity": 1
        },
        {
          "duration": 0.21428550000000257,
          "durationTicks": 240,
          "midi": 28,
          "name": "E1",
          "ticks": 18240,
          "time": 16.285698,
          "velocity": 1
        },
        {
          "duration": 0.21428549999999902,
          "durationTicks": 240,
          "midi": 28,
          "name": "E1",
          "ticks": 18480,
          "time": 16.499983500000003,
          "velocity": 1
        },
        {
          "duration": 0.21428549999999902,
          "durationTicks": 240,
          "midi": 28,
          "name": "E1",
          "ticks": 18720,
          "time": 16.714269,
          "velocity": 1
        },
        {
          "duration": 0.21428549999999902,
          "durationTicks": 240,
          "midi": 33,
          "name": "A1",
          "ticks": 18960,
          "time": 16.9285545,
          "velocity": 1
        },
        {
          "duration": 0.21428550000000257,
          "durationTicks": 240,
          "midi": 33,
          "name": "A1",
          "ticks": 19200,
          "time": 17.14284,
          "velocity": 1
        },
        {
          "duration": 0.21428549999999902,
          "durationTicks": 240,
          "midi": 28,
          "name": "E1",
          "ticks": 19440,
          "time": 17.357125500000002,
          "velocity": 1
        },
        {
          "duration": 0.21428549999999902,
          "durationTicks": 240,
          "midi": 28,
          "name": "E1",
          "ticks": 19680,
          "time": 17.571411,
          "velocity": 1
        },
        {
          "duration": 0.21428550000000257,
          "durationTicks": 240,
          "midi": 28,
          "name": "E1",
          "ticks": 19920,
          "time": 17.7856965,
          "velocity": 1
        },
        {
          "duration": 0.21428549999999902,
          "durationTicks": 240,
          "midi": 28,
          "name": "E1",
          "ticks": 20160,
          "time": 17.999982000000003,
          "velocity": 1
        },
        {
          "duration": 0.21428549999999902,
          "durationTicks": 240,
          "midi": 28,
          "name": "E1",
          "ticks": 20400,
          "time": 18.214267500000002,
          "velocity": 1
        },
        {
          "duration": 0.21428549999999902,
          "durationTicks": 240,
          "midi": 28,
          "name": "E1",
          "ticks": 20640,
          "time": 18.428553,
          "velocity": 1
        },
        {
          "duration": 0.21428550000000257,
          "durationTicks": 240,
          "midi": 38,
          "name": "D2",
          "ticks": 20880,
          "time": 18.6428385,
          "velocity": 1
        },
        {
          "duration": 0.21428549999999902,
          "durationTicks": 240,
          "midi": 38,
          "name": "D2",
          "ticks": 21120,
          "time": 18.857124000000002,
          "velocity": 1
        },
        {
          "duration": 0.21428549999999902,
          "durationTicks": 240,
          "midi": 28,
          "name": "E1",
          "ticks": 21360,
          "time": 19.0714095,
          "velocity": 1
        },
        {
          "duration": 0.21428550000000257,
          "durationTicks": 240,
          "midi": 28,
          "name": "E1",
          "ticks": 21600,
          "time": 19.285695,
          "velocity": 1
        },
        {
          "duration": 0.21428549999999902,
          "durationTicks": 240,
          "midi": 28,
          "name": "E1",
          "ticks": 21840,
          "time": 19.499980500000003,
          "velocity": 1
        },
        {
          "duration": 0.21428549999999902,
          "durationTicks": 240,
          "midi": 28,
          "name": "E1",
          "ticks": 22080,
          "time": 19.714266000000002,
          "velocity": 1
        },
        {
          "duration": 0.21428549999999902,
          "durationTicks": 240,
          "midi": 28,
          "name": "E1",
          "ticks": 22320,
          "time": 19.9285515,
          "velocity": 1
        },
        {
          "duration": 0.21428550000000257,
          "durationTicks": 240,
          "midi": 28,
          "name": "E1",
          "ticks": 22560,
          "time": 20.142837,
          "velocity": 1
        },
        {
          "duration": 0.21428549999999902,
          "durationTicks": 240,
          "midi": 28,
          "name": "E1",
          "ticks": 22800,
          "time": 20.357122500000003,
          "velocity": 1
        },
        {
          "duration": 0.21428549999999902,
          "durationTicks": 240,
          "midi": 28,
          "name": "E1",
          "ticks": 23040,
          "time": 20.571408,
          "velocity": 1
        },
        {
          "duration": 0.21428550000000257,
          "durationTicks": 240,
          "midi": 28,
          "name": "E1",
          "ticks": 23280,
          "time": 20.7856935,
          "velocity": 1
        },
        {
          "duration": 0.21428549999999902,
          "durationTicks": 240,
          "midi": 28,
          "name": "E1",
          "ticks": 23520,
          "time": 20.999979000000003,
          "velocity": 1
        },
        {
          "duration": 0.21428549999999902,
          "durationTicks": 240,
          "midi": 28,
          "name": "E1",
          "ticks": 23760,
          "time": 21.214264500000002,
          "velocity": 1
        },
        {
          "duration": 0.21428549999999902,
          "durationTicks": 240,
          "midi": 28,
          "name": "E1",
          "ticks": 24000,
          "time": 21.42855,
          "velocity": 1
        },
        {
          "duration": 0.21428550000000257,
          "durationTicks": 240,
          "midi": 28,
          "name": "E1",
          "ticks": 24240,
          "time": 21.6428355,
          "velocity": 1
        },
        {
          "duration": 0.21428549999999902,
          "durationTicks": 240,
          "midi": 28,
          "name": "E1",
          "ticks": 24480,
          "time": 21.857121000000003,
          "velocity": 1
        },
        {
          "duration": 0.21428549999999902,
          "durationTicks": 240,
          "midi": 31,
          "name": "G1",
          "ticks": 24720,
          "time": 22.071406500000002,
          "velocity": 1
        },
        {
          "duration": 0.21428550000000257,
          "durationTicks": 240,
          "midi": 31,
          "name": "G1",
          "ticks": 24960,
          "time": 22.285692,
          "velocity": 1
        },
        {
          "duration": 0.21428549999999902,
          "durationTicks": 240,
          "midi": 28,
          "name": "E1",
          "ticks": 25200,
          "time": 22.499977500000004,
          "velocity": 1
        },
        {
          "duration": 0.21428549999999902,
          "durationTicks": 240,
          "midi": 28,
          "name": "E1",
          "ticks": 25440,
          "time": 22.714263000000003,
          "velocity": 1
        },
        {
          "duration": 0.21428549999999902,
          "durationTicks": 240,
          "midi": 28,
          "name": "E1",
          "ticks": 25680,
          "time": 22.9285485,
          "velocity": 1
        },
        {
          "duration": 0.21428550000000257,
          "durationTicks": 240,
          "midi": 28,
          "name": "E1",
          "ticks": 25920,
          "time": 23.142834,
          "velocity": 1
        },
        {
          "duration": 0.21428549999999902,
          "durationTicks": 240,
          "midi": 28,
          "name": "E1",
          "ticks": 26160,
          "time": 23.357119500000003,
          "velocity": 1
        },
        {
          "duration": 0.21428549999999902,
          "durationTicks": 240,
          "midi": 28,
          "name": "E1",
          "ticks": 26400,
          "time": 23.571405000000002,
          "velocity": 1
        },
        {
          "duration": 0.21428550000000257,
          "durationTicks": 240,
          "midi": 33,
          "name": "A1",
          "ticks": 26640,
          "time": 23.7856905,
          "velocity": 1
        },
        {
          "duration": 0.21428549999999902,
          "durationTicks": 240,
          "midi": 33,
          "name": "A1",
          "ticks": 26880,
          "time": 23.999976000000004,
          "velocity": 1
        },
        {
          "duration": 0.21428549999999902,
          "durationTicks": 240,
          "midi": 28,
          "name": "E1",
          "ticks": 27120,
          "time": 24.214261500000003,
          "velocity": 1
        },
        {
          "duration": 0.21428549999999902,
          "durationTicks": 240,
          "midi": 28,
          "name": "E1",
          "ticks": 27360,
          "time": 24.428547000000002,
          "velocity": 1
        },
        {
          "duration": 0.21428550000000257,
          "durationTicks": 240,
          "midi": 28,
          "name": "E1",
          "ticks": 27600,
          "time": 24.6428325,
          "velocity": 1
        },
        {
          "duration": 0.21428549999999902,
          "durationTicks": 240,
          "midi": 28,
          "name": "E1",
          "ticks": 27840,
          "time": 24.857118000000003,
          "velocity": 1
        },
        {
          "duration": 0.21428549999999902,
          "durationTicks": 240,
          "midi": 28,
          "name": "E1",
          "ticks": 28080,
          "time": 25.071403500000002,
          "velocity": 1
        },
        {
          "duration": 0.21428549999999902,
          "durationTicks": 240,
          "midi": 28,
          "name": "E1",
          "ticks": 28320,
          "time": 25.285689,
          "velocity": 1
        },
        {
          "duration": 0.21428550000000257,
          "durationTicks": 240,
          "midi": 38,
          "name": "D2",
          "ticks": 28560,
          "time": 25.4999745,
          "velocity": 1
        },
        {
          "duration": 0.21428549999999902,
          "durationTicks": 240,
          "midi": 38,
          "name": "D2",
          "ticks": 28800,
          "time": 25.714260000000003,
          "velocity": 1
        },
        {
          "duration": 0.21428549999999902,
          "durationTicks": 240,
          "midi": 28,
          "name": "E1",
          "ticks": 29040,
          "time": 25.928545500000002,
          "velocity": 1
        },
        {
          "duration": 0.21428550000000257,
          "durationTicks": 240,
          "midi": 28,
          "name": "E1",
          "ticks": 29280,
          "time": 26.142831,
          "velocity": 1
        },
        {
          "duration": 0.21428549999999902,
          "durationTicks": 240,
          "midi": 28,
          "name": "E1",
          "ticks": 29520,
          "time": 26.357116500000004,
          "velocity": 1
        },
        {
          "duration": 0.21428549999999902,
          "durationTicks": 240,
          "midi": 28,
          "name": "E1",
          "ticks": 29760,
          "time": 26.571402000000003,
          "velocity": 1
        },
        {
          "duration": 0.21428549999999902,
          "durationTicks": 240,
          "midi": 38,
          "name": "D2",
          "ticks": 30000,
          "time": 26.7856875,
          "velocity": 1
        },
        {
          "duration": 0.21428550000000257,
          "durationTicks": 240,
          "midi": 38,
          "name": "D2",
          "ticks": 30240,
          "time": 26.999973,
          "velocity": 1
        },
        {
          "duration": 0.21428549999999902,
          "durationTicks": 240,
          "midi": 28,
          "name": "E1",
          "ticks": 30480,
          "time": 27.214258500000003,
          "velocity": 1
        },
        {
          "duration": 0.21428549999999902,
          "durationTicks": 240,
          "midi": 28,
          "name": "E1",
          "ticks": 30720,
          "time": 27.428544000000002,
          "velocity": 1
        },
        {
          "duration": 0.21428550000000257,
          "durationTicks": 240,
          "midi": 28,
          "name": "E1",
          "ticks": 30960,
          "time": 27.6428295,
          "velocity": 1
        },
        {
          "duration": 0.21428549999999902,
          "durationTicks": 240,
          "midi": 28,
          "name": "E1",
          "ticks": 31200,
          "time": 27.857115000000004,
          "velocity": 1
        },
        {
          "duration": 0.21428549999999902,
          "durationTicks": 240,
          "midi": 28,
          "name": "E1",
          "ticks": 31440,
          "time": 28.071400500000003,
          "velocity": 1
        },
        {
          "duration": 0.21428549999999902,
          "durationTicks": 240,
          "midi": 28,
          "name": "E1",
          "ticks": 31680,
          "time": 28.285686000000002,
          "velocity": 1
        },
        {
          "duration": 0.21428550000000257,
          "durationTicks": 240,
          "midi": 28,
          "name": "E1",
          "ticks": 31920,
          "time": 28.4999715,
          "velocity": 1
        },
        {
          "duration": 0.21428549999999902,
          "durationTicks": 240,
          "midi": 28,
          "name": "E1",
          "ticks": 32160,
          "time": 28.714257000000003,
          "velocity": 1
        },
        {
          "duration": 0.21428549999999902,
          "durationTicks": 240,
          "midi": 28,
          "name": "E1",
          "ticks": 32400,
          "time": 28.928542500000002,
          "velocity": 1
        },
        {
          "duration": 0.21428550000000257,
          "durationTicks": 240,
          "midi": 28,
          "name": "E1",
          "ticks": 32640,
          "time": 29.142828,
          "velocity": 1
        },
        {
          "duration": 0.21428549999999902,
          "durationTicks": 240,
          "midi": 28,
          "name": "E1",
          "ticks": 32880,
          "time": 29.357113500000004,
          "velocity": 1
        },
        {
          "duration": 0.21428549999999902,
          "durationTicks": 240,
          "midi": 28,
          "name": "E1",
          "ticks": 33120,
          "time": 29.571399000000003,
          "velocity": 1
        },
        {
          "duration": 0.21428549999999902,
          "durationTicks": 240,
          "midi": 28,
          "name": "E1",
          "ticks": 33360,
          "time": 29.785684500000002,
          "velocity": 1
        },
        {
          "duration": 0.21428550000000257,
          "durationTicks": 240,
          "midi": 28,
          "name": "E1",
          "ticks": 33600,
          "time": 29.99997,
          "velocity": 1
        },
        {
          "duration": 0.21428549999999902,
          "durationTicks": 240,
          "midi": 28,
          "name": "E1",
          "ticks": 33840,
          "time": 30.214255500000004,
          "velocity": 1
        },
        {
          "duration": 0.21428549999999902,
          "durationTicks": 240,
          "midi": 28,
          "name": "E1",
          "ticks": 34080,
          "time": 30.428541000000003,
          "velocity": 1
        },
        {
          "duration": 0.21428549999999902,
          "durationTicks": 240,
          "midi": 28,
          "name": "E1",
          "ticks": 34320,
          "time": 30.6428265,
          "velocity": 1
        },
        {
          "duration": 0.21428550000000257,
          "durationTicks": 240,
          "midi": 28,
          "name": "E1",
          "ticks": 34560,
          "time": 30.857112,
          "velocity": 1
        },
        {
          "duration": 0.21428549999999902,
          "durationTicks": 240,
          "midi": 28,
          "name": "E1",
          "ticks": 34800,
          "time": 31.071397500000003,
          "velocity": 1
        },
        {
          "duration": 0.21428549999999902,
          "durationTicks": 240,
          "midi": 28,
          "name": "E1",
          "ticks": 35040,
          "time": 31.285683000000002,
          "velocity": 1
        },
        {
          "duration": 0.21428550000000257,
          "durationTicks": 240,
          "midi": 28,
          "name": "E1",
          "ticks": 35280,
          "time": 31.4999685,
          "velocity": 1
        },
        {
          "duration": 0.21428549999999902,
          "durationTicks": 240,
          "midi": 28,
          "name": "E1",
          "ticks": 35520,
          "time": 31.714254000000004,
          "velocity": 1
        },
        {
          "duration": 0.21428549999999902,
          "durationTicks": 240,
          "midi": 28,
          "name": "E1",
          "ticks": 35760,
          "time": 31.928539500000003,
          "velocity": 1
        },
        {
          "duration": 0.21428550000000257,
          "durationTicks": 240,
          "midi": 28,
          "name": "E1",
          "ticks": 36000,
          "time": 32.142825,
          "velocity": 1
        },
        {
          "duration": 0.21428549999999547,
          "durationTicks": 240,
          "midi": 28,
          "name": "E1",
          "ticks": 36240,
          "time": 32.357110500000005,
          "velocity": 1
        },
        {
          "duration": 0.21428550000000257,
          "durationTicks": 240,
          "midi": 28,
          "name": "E1",
          "ticks": 36480,
          "time": 32.571396,
          "velocity": 1
        },
        {
          "duration": 0.21428550000000257,
          "durationTicks": 240,
          "midi": 28,
          "name": "E1",
          "ticks": 36720,
          "time": 32.7856815,
          "velocity": 1
        },
        {
          "duration": 0.21428549999999547,
          "durationTicks": 240,
          "midi": 28,
          "name": "E1",
          "ticks": 36960,
          "time": 32.999967000000005,
          "velocity": 1
        },
        {
          "duration": 0.21428550000000257,
          "durationTicks": 240,
          "midi": 28,
          "name": "E1",
          "ticks": 37200,
          "time": 33.2142525,
          "velocity": 1
        },
        {
          "duration": 0.21428550000000257,
          "durationTicks": 240,
          "midi": 28,
          "name": "E1",
          "ticks": 37440,
          "time": 33.428538,
          "velocity": 1
        },
        {
          "duration": 0.21428549999999547,
          "durationTicks": 240,
          "midi": 38,
          "name": "D2",
          "ticks": 37680,
          "time": 33.642823500000006,
          "velocity": 1
        },
        {
          "duration": 0.21428550000000257,
          "durationTicks": 240,
          "midi": 38,
          "name": "D2",
          "ticks": 37920,
          "time": 33.857109,
          "velocity": 1
        },
        {
          "duration": 0.21428549999999547,
          "durationTicks": 240,
          "midi": 28,
          "name": "E1",
          "ticks": 38160,
          "time": 34.071394500000004,
          "velocity": 1
        },
        {
          "duration": 0.21428550000000257,
          "durationTicks": 240,
          "midi": 28,
          "name": "E1",
          "ticks": 38400,
          "time": 34.28568,
          "velocity": 1
        },
        {
          "duration": 0.21428550000000257,
          "durationTicks": 240,
          "midi": 28,
          "name": "E1",
          "ticks": 38640,
          "time": 34.4999655,
          "velocity": 1
        },
        {
          "duration": 0.21428549999999547,
          "durationTicks": 240,
          "midi": 28,
          "name": "E1",
          "ticks": 38880,
          "time": 34.714251000000004,
          "velocity": 1
        },
        {
          "duration": 0.21428550000000257,
          "durationTicks": 240,
          "midi": 28,
          "name": "E1",
          "ticks": 39120,
          "time": 34.9285365,
          "velocity": 1
        },
        {
          "duration": 0.21428550000000257,
          "durationTicks": 240,
          "midi": 28,
          "name": "E1",
          "ticks": 39360,
          "time": 35.142822,
          "velocity": 1
        },
        {
          "duration": 0.21428549999999547,
          "durationTicks": 240,
          "midi": 28,
          "name": "E1",
          "ticks": 39600,
          "time": 35.357107500000005,
          "velocity": 1
        },
        {
          "duration": 0.21428550000000257,
          "durationTicks": 240,
          "midi": 28,
          "name": "E1",
          "ticks": 39840,
          "time": 35.571393,
          "velocity": 1
        },
        {
          "duration": 0.21428550000000257,
          "durationTicks": 240,
          "midi": 28,
          "name": "E1",
          "ticks": 40080,
          "time": 35.7856785,
          "velocity": 1
        },
        {
          "duration": 0.21428549999999547,
          "durationTicks": 240,
          "midi": 28,
          "name": "E1",
          "ticks": 40320,
          "time": 35.999964000000006,
          "velocity": 1
        },
        {
          "duration": 0.21428550000000257,
          "durationTicks": 240,
          "midi": 28,
          "name": "E1",
          "ticks": 40560,
          "time": 36.2142495,
          "velocity": 1
        },
        {
          "duration": 0.21428550000000257,
          "durationTicks": 240,
          "midi": 28,
          "name": "E1",
          "ticks": 40800,
          "time": 36.428535000000004,
          "velocity": 1
        },
        {
          "duration": 0.21428549999999547,
          "durationTicks": 240,
          "midi": 28,
          "name": "E1",
          "ticks": 41040,
          "time": 36.642820500000006,
          "velocity": 1
        },
        {
          "duration": 0.21428550000000257,
          "durationTicks": 240,
          "midi": 28,
          "name": "E1",
          "ticks": 41280,
          "time": 36.857106,
          "velocity": 1
        },
        {
          "duration": 0.21428549999999547,
          "durationTicks": 240,
          "midi": 28,
          "name": "E1",
          "ticks": 41520,
          "time": 37.071391500000004,
          "velocity": 1
        },
        {
          "duration": 0.21428550000000257,
          "durationTicks": 240,
          "midi": 28,
          "name": "E1",
          "ticks": 41760,
          "time": 37.285677,
          "velocity": 1
        },
        {
          "duration": 0.21428550000000257,
          "durationTicks": 240,
          "midi": 28,
          "name": "E1",
          "ticks": 42000,
          "time": 37.4999625,
          "velocity": 1
        },
        {
          "duration": 0.21428549999999547,
          "durationTicks": 240,
          "midi": 28,
          "name": "E1",
          "ticks": 42240,
          "time": 37.714248000000005,
          "velocity": 1
        },
        {
          "duration": 0.21428550000000257,
          "durationTicks": 240,
          "midi": 28,
          "name": "E1",
          "ticks": 42480,
          "time": 37.9285335,
          "velocity": 1
        },
        {
          "duration": 0.21428550000000257,
          "durationTicks": 240,
          "midi": 28,
          "name": "E1",
          "ticks": 42720,
          "time": 38.142819,
          "velocity": 1
        },
        {
          "duration": 0.21428549999999547,
          "durationTicks": 240,
          "midi": 28,
          "name": "E1",
          "ticks": 42960,
          "time": 38.357104500000005,
          "velocity": 1
        },
        {
          "duration": 0.21428550000000257,
          "durationTicks": 240,
          "midi": 28,
          "name": "E1",
          "ticks": 43200,
          "time": 38.57139,
          "velocity": 1
        },
        {
          "duration": 0.21428550000000257,
          "durationTicks": 240,
          "midi": 28,
          "name": "E1",
          "ticks": 43440,
          "time": 38.7856755,
          "velocity": 1
        },
        {
          "duration": 0.21428549999999547,
          "durationTicks": 240,
          "midi": 28,
          "name": "E1",
          "ticks": 43680,
          "time": 38.999961000000006,
          "velocity": 1
        },
        {
          "duration": 0.21428550000000257,
          "durationTicks": 240,
          "midi": 28,
          "name": "E1",
          "ticks": 43920,
          "time": 39.2142465,
          "velocity": 1
        },
        {
          "duration": 0.21428550000000257,
          "durationTicks": 240,
          "midi": 28,
          "name": "E1",
          "ticks": 44160,
          "time": 39.428532000000004,
          "velocity": 1
        },
        {
          "duration": 0.21428549999999547,
          "durationTicks": 240,
          "midi": 28,
          "name": "E1",
          "ticks": 44400,
          "time": 39.64281750000001,
          "velocity": 1
        },
        {
          "duration": 0.21428550000000257,
          "durationTicks": 240,
          "midi": 28,
          "name": "E1",
          "ticks": 44640,
          "time": 39.857103,
          "velocity": 1
        },
        {
          "duration": 0.21428549999999547,
          "durationTicks": 240,
          "midi": 28,
          "name": "E1",
          "ticks": 44880,
          "time": 40.071388500000005,
          "velocity": 1
        },
        {
          "duration": 0.21428550000000257,
          "durationTicks": 240,
          "midi": 28,
          "name": "E1",
          "ticks": 45120,
          "time": 40.285674,
          "velocity": 1
        },
        {
          "duration": 0.21428550000000257,
          "durationTicks": 240,
          "midi": 38,
          "name": "D2",
          "ticks": 45360,
          "time": 40.4999595,
          "velocity": 1
        },
        {
          "duration": 0.21428549999999547,
          "durationTicks": 240,
          "midi": 38,
          "name": "D2",
          "ticks": 45600,
          "time": 40.714245000000005,
          "velocity": 1
        },
        {
          "duration": 0.21428550000000257,
          "durationTicks": 240,
          "midi": 28,
          "name": "E1",
          "ticks": 45840,
          "time": 40.9285305,
          "velocity": 1
        },
        {
          "duration": 0.21428550000000257,
          "durationTicks": 240,
          "midi": 28,
          "name": "E1",
          "ticks": 46080,
          "time": 41.142816,
          "velocity": 1
        },
        {
          "duration": 0.21428549999999547,
          "durationTicks": 240,
          "midi": 28,
          "name": "E1",
          "ticks": 46320,
          "time": 41.357101500000006,
          "velocity": 1
        },
        {
          "duration": 0.21428550000000257,
          "durationTicks": 240,
          "midi": 28,
          "name": "E1",
          "ticks": 46560,
          "time": 41.571387,
          "velocity": 1
        },
        {
          "duration": 0.21428550000000257,
          "durationTicks": 240,
          "midi": 28,
          "name": "E1",
          "ticks": 46800,
          "time": 41.785672500000004,
          "velocity": 1
        },
        {
          "duration": 0.21428549999999547,
          "durationTicks": 240,
          "midi": 28,
          "name": "E1",
          "ticks": 47040,
          "time": 41.99995800000001,
          "velocity": 1
        },
        {
          "duration": 0.21428550000000257,
          "durationTicks": 240,
          "midi": 28,
          "name": "E1",
          "ticks": 47280,
          "time": 42.2142435,
          "velocity": 1
        },
        {
          "duration": 0.21428549999999547,
          "durationTicks": 240,
          "midi": 28,
          "name": "E1",
          "ticks": 47520,
          "time": 42.428529000000005,
          "velocity": 1
        },
        {
          "duration": 0.21428550000000257,
          "durationTicks": 240,
          "midi": 28,
          "name": "E1",
          "ticks": 47760,
          "time": 42.6428145,
          "velocity": 1
        },
        {
          "duration": 0.21428550000000257,
          "durationTicks": 240,
          "midi": 28,
          "name": "E1",
          "ticks": 48000,
          "time": 42.8571,
          "velocity": 1
        },
        {
          "duration": 0.21428549999999547,
          "durationTicks": 240,
          "midi": 28,
          "name": "E1",
          "ticks": 48240,
          "time": 43.071385500000005,
          "velocity": 1
        },
        {
          "duration": 0.21428550000000257,
          "durationTicks": 240,
          "midi": 28,
          "name": "E1",
          "ticks": 48480,
          "time": 43.285671,
          "velocity": 1
        },
        {
          "duration": 0.21428550000000257,
          "durationTicks": 240,
          "midi": 28,
          "name": "E1",
          "ticks": 48720,
          "time": 43.4999565,
          "velocity": 1
        },
        {
          "duration": 0.21428549999999547,
          "durationTicks": 240,
          "midi": 28,
          "name": "E1",
          "ticks": 48960,
          "time": 43.714242000000006,
          "velocity": 1
        },
        {
          "duration": 0.21428550000000257,
          "durationTicks": 240,
          "midi": 28,
          "name": "E1",
          "ticks": 49200,
          "time": 43.9285275,
          "velocity": 1
        },
        {
          "duration": 0.21428550000000257,
          "durationTicks": 240,
          "midi": 28,
          "name": "E1",
          "ticks": 49440,
          "time": 44.142813000000004,
          "velocity": 1
        },
        {
          "duration": 0.21428549999999547,
          "durationTicks": 240,
          "midi": 28,
          "name": "E1",
          "ticks": 49680,
          "time": 44.357098500000006,
          "velocity": 1
        },
        {
          "duration": 0.21428550000000257,
          "durationTicks": 240,
          "midi": 28,
          "name": "E1",
          "ticks": 49920,
          "time": 44.571384,
          "velocity": 1
        },
        {
          "duration": 0.21428550000000257,
          "durationTicks": 240,
          "midi": 28,
          "name": "E1",
          "ticks": 50160,
          "time": 44.785669500000004,
          "velocity": 1
        },
        {
          "duration": 0.21428549999999547,
          "durationTicks": 240,
          "midi": 28,
          "name": "E1",
          "ticks": 50400,
          "time": 44.99995500000001,
          "velocity": 1
        },
        {
          "duration": 0.21428550000000257,
          "durationTicks": 240,
          "midi": 28,
          "name": "E1",
          "ticks": 50640,
          "time": 45.2142405,
          "velocity": 1
        },
        {
          "duration": 0.21428549999999547,
          "durationTicks": 240,
          "midi": 28,
          "name": "E1",
          "ticks": 50880,
          "time": 45.428526000000005,
          "velocity": 1
        },
        {
          "duration": 0.21428550000000257,
          "durationTicks": 240,
          "midi": 28,
          "name": "E1",
          "ticks": 51120,
          "time": 45.6428115,
          "velocity": 1
        },
        {
          "duration": 0.21428550000000257,
          "durationTicks": 240,
          "midi": 28,
          "name": "E1",
          "ticks": 51360,
          "time": 45.857097,
          "velocity": 1
        },
        {
          "duration": 0.21428549999999547,
          "durationTicks": 240,
          "midi": 28,
          "name": "E1",
          "ticks": 51600,
          "time": 46.071382500000006,
          "velocity": 1
        },
        {
          "duration": 0.21428550000000257,
          "durationTicks": 240,
          "midi": 28,
          "name": "E1",
          "ticks": 51840,
          "time": 46.285668,
          "velocity": 1
        },
        {
          "duration": 0.21428550000000257,
          "durationTicks": 240,
          "midi": 28,
          "name": "E1",
          "ticks": 52080,
          "time": 46.499953500000004,
          "velocity": 1
        },
        {
          "duration": 0.21428549999999547,
          "durationTicks": 240,
          "midi": 28,
          "name": "E1",
          "ticks": 52320,
          "time": 46.714239000000006,
          "velocity": 1
        },
        {
          "duration": 0.21428550000000257,
          "durationTicks": 240,
          "midi": 28,
          "name": "E1",
          "ticks": 52560,
          "time": 46.9285245,
          "velocity": 1
        },
        {
          "duration": 0.21428550000000257,
          "durationTicks": 240,
          "midi": 28,
          "name": "E1",
          "ticks": 52800,
          "time": 47.142810000000004,
          "velocity": 1
        },
        {
          "duration": 0.21428549999999547,
          "durationTicks": 240,
          "midi": 38,
          "name": "D2",
          "ticks": 53040,
          "time": 47.35709550000001,
          "velocity": 1
        },
        {
          "duration": 0.21428550000000257,
          "durationTicks": 240,
          "midi": 38,
          "name": "D2",
          "ticks": 53280,
          "time": 47.571381,
          "velocity": 1
        },
        {
          "duration": 0.21428550000000257,
          "durationTicks": 240,
          "midi": 28,
          "name": "E1",
          "ticks": 53520,
          "time": 47.785666500000005,
          "velocity": 1
        },
        {
          "duration": 0.21428549999999547,
          "durationTicks": 240,
          "midi": 28,
          "name": "E1",
          "ticks": 53760,
          "time": 47.99995200000001,
          "velocity": 1
        },
        {
          "duration": 0.21428550000000257,
          "durationTicks": 240,
          "midi": 28,
          "name": "E1",
          "ticks": 54000,
          "time": 48.2142375,
          "velocity": 1
        },
        {
          "duration": 0.21428549999999547,
          "durationTicks": 240,
          "midi": 28,
          "name": "E1",
          "ticks": 54240,
          "time": 48.428523000000006,
          "velocity": 1
        },
        {
          "duration": 0.21428550000000257,
          "durationTicks": 240,
          "midi": 28,
          "name": "E1",
          "ticks": 54480,
          "time": 48.6428085,
          "velocity": 1
        },
        {
          "duration": 0.21428550000000257,
          "durationTicks": 240,
          "midi": 28,
          "name": "E1",
          "ticks": 54720,
          "time": 48.857094000000004,
          "velocity": 1
        },
        {
          "duration": 0.21428549999999547,
          "durationTicks": 240,
          "midi": 38,
          "name": "D2",
          "ticks": 54960,
          "time": 49.071379500000006,
          "velocity": 1
        },
        {
          "duration": 0.21428550000000257,
          "durationTicks": 240,
          "midi": 38,
          "name": "D2",
          "ticks": 55200,
          "time": 49.285665,
          "velocity": 1
        },
        {
          "duration": 0.21428550000000257,
          "durationTicks": 240,
          "midi": 28,
          "name": "E1",
          "ticks": 55440,
          "time": 49.499950500000004,
          "velocity": 1
        },
        {
          "duration": 0.21428549999999547,
          "durationTicks": 240,
          "midi": 28,
          "name": "E1",
          "ticks": 55680,
          "time": 49.71423600000001,
          "velocity": 1
        },
        {
          "duration": 0.21428550000000257,
          "durationTicks": 240,
          "midi": 28,
          "name": "E1",
          "ticks": 55920,
          "time": 49.9285215,
          "velocity": 1
        },
        {
          "duration": 0.21428550000000257,
          "durationTicks": 240,
          "midi": 28,
          "name": "E1",
          "ticks": 56160,
          "time": 50.142807000000005,
          "velocity": 1
        },
        {
          "duration": 0.21428549999999547,
          "durationTicks": 240,
          "midi": 28,
          "name": "E1",
          "ticks": 56400,
          "time": 50.35709250000001,
          "velocity": 1
        },
        {
          "duration": 0.21428550000000257,
          "durationTicks": 240,
          "midi": 28,
          "name": "E1",
          "ticks": 56640,
          "time": 50.571378,
          "velocity": 1
        },
        {
          "duration": 0.21428549999999547,
          "durationTicks": 240,
          "midi": 38,
          "name": "D2",
          "ticks": 56880,
          "time": 50.785663500000005,
          "velocity": 1
        },
        {
          "duration": 0.21428550000000257,
          "durationTicks": 240,
          "midi": 38,
          "name": "D2",
          "ticks": 57120,
          "time": 50.999949,
          "velocity": 1
        },
        {
          "duration": 0.21428550000000257,
          "durationTicks": 240,
          "midi": 28,
          "name": "E1",
          "ticks": 57360,
          "time": 51.2142345,
          "velocity": 1
        },
        {
          "duration": 0.21428549999999547,
          "durationTicks": 240,
          "midi": 28,
          "name": "E1",
          "ticks": 57600,
          "time": 51.428520000000006,
          "velocity": 1
        },
        {
          "duration": 0.21428550000000257,
          "durationTicks": 240,
          "midi": 28,
          "name": "E1",
          "ticks": 57840,
          "time": 51.6428055,
          "velocity": 1
        },
        {
          "duration": 0.21428550000000257,
          "durationTicks": 240,
          "midi": 28,
          "name": "E1",
          "ticks": 58080,
          "time": 51.857091000000004,
          "velocity": 1
        },
        {
          "duration": 0.21428549999999547,
          "durationTicks": 240,
          "midi": 28,
          "name": "E1",
          "ticks": 58320,
          "time": 52.07137650000001,
          "velocity": 1
        },
        {
          "duration": 0.21428550000000257,
          "durationTicks": 240,
          "midi": 28,
          "name": "E1",
          "ticks": 58560,
          "time": 52.285662,
          "velocity": 1
        },
        {
          "duration": 0.21428550000000257,
          "durationTicks": 240,
          "midi": 38,
          "name": "D2",
          "ticks": 58800,
          "time": 52.499947500000005,
          "velocity": 1
        },
        {
          "duration": 0.21428549999999547,
          "durationTicks": 240,
          "midi": 38,
          "name": "D2",
          "ticks": 59040,
          "time": 52.71423300000001,
          "velocity": 1
        },
        {
          "duration": 0.21428550000000257,
          "durationTicks": 240,
          "midi": 28,
          "name": "E1",
          "ticks": 59280,
          "time": 52.9285185,
          "velocity": 1
        },
        {
          "duration": 0.21428550000000257,
          "durationTicks": 240,
          "midi": 28,
          "name": "E1",
          "ticks": 59520,
          "time": 53.142804000000005,
          "velocity": 1
        },
        {
          "duration": 0.21428549999999547,
          "durationTicks": 240,
          "midi": 28,
          "name": "E1",
          "ticks": 59760,
          "time": 53.35708950000001,
          "velocity": 1
        },
        {
          "duration": 0.21428550000000257,
          "durationTicks": 240,
          "midi": 28,
          "name": "E1",
          "ticks": 60000,
          "time": 53.571375,
          "velocity": 1
        },
        {
          "duration": 0.21428549999999547,
          "durationTicks": 240,
          "midi": 28,
          "name": "E1",
          "ticks": 60240,
          "time": 53.785660500000006,
          "velocity": 1
        },
        {
          "duration": 0.42857100000000514,
          "durationTicks": 480,
          "midi": 28,
          "name": "E1",
          "ticks": 60480,
          "time": 53.999946,
          "velocity": 1
        },
        {
          "duration": 0.42857099999999804,
          "durationTicks": 480,
          "midi": 33,
          "name": "A1",
          "ticks": 61440,
          "time": 54.857088000000005,
          "velocity": 1
        },
        {
          "duration": 0.42857100000000514,
          "durationTicks": 480,
          "midi": 33,
          "name": "A1",
          "ticks": 61920,
          "time": 55.285659,
          "velocity": 1
        },
        {
          "duration": 0.42857099999999804,
          "durationTicks": 480,
          "midi": 33,
          "name": "A1",
          "ticks": 62400,
          "time": 55.71423000000001,
          "velocity": 1
        },
        {
          "duration": 0.42857099999999804,
          "durationTicks": 480,
          "midi": 33,
          "name": "A1",
          "ticks": 62880,
          "time": 56.142801000000006,
          "velocity": 1
        },
        {
          "duration": 0.42857099999999804,
          "durationTicks": 480,
          "midi": 33,
          "name": "A1",
          "ticks": 63360,
          "time": 56.571372000000004,
          "velocity": 1
        },
        {
          "duration": 0.42857100000000514,
          "durationTicks": 480,
          "midi": 31,
          "name": "G1",
          "ticks": 63840,
          "time": 56.999943,
          "velocity": 1
        },
        {
          "duration": 0.8571419999999961,
          "durationTicks": 960,
          "midi": 33,
          "name": "A1",
          "ticks": 64320,
          "time": 57.42851400000001,
          "velocity": 1
        },
        {
          "duration": 0.42857100000000514,
          "durationTicks": 480,
          "midi": 28,
          "name": "E1",
          "ticks": 65280,
          "time": 58.285656,
          "velocity": 1
        },
        {
          "duration": 0.42857099999999804,
          "durationTicks": 480,
          "midi": 28,
          "name": "E1",
          "ticks": 65760,
          "time": 58.71422700000001,
          "velocity": 1
        },
        {
          "duration": 0.42857099999999804,
          "durationTicks": 480,
          "midi": 28,
          "name": "E1",
          "ticks": 66240,
          "time": 59.142798000000006,
          "velocity": 1
        },
        {
          "duration": 0.42857099999999804,
          "durationTicks": 480,
          "midi": 28,
          "name": "E1",
          "ticks": 66720,
          "time": 59.571369000000004,
          "velocity": 1
        },
        {
          "duration": 0.42857100000000514,
          "durationTicks": 480,
          "midi": 28,
          "name": "E1",
          "ticks": 67200,
          "time": 59.99994,
          "velocity": 1
        },
        {
          "duration": 0.42857099999999804,
          "durationTicks": 480,
          "midi": 38,
          "name": "D2",
          "ticks": 67680,
          "time": 60.42851100000001,
          "velocity": 1
        },
        {
          "duration": 0.42857099999999804,
          "durationTicks": 480,
          "midi": 40,
          "name": "E2",
          "ticks": 68160,
          "time": 60.857082000000005,
          "velocity": 1
        },
        {
          "duration": 0.42857099999999804,
          "durationTicks": 480,
          "midi": 28,
          "name": "E1",
          "ticks": 68640,
          "time": 61.285653,
          "velocity": 1
        },
        {
          "duration": 0.42857100000000514,
          "durationTicks": 480,
          "midi": 33,
          "name": "A1",
          "ticks": 69120,
          "time": 61.714224,
          "velocity": 1
        },
        {
          "duration": 0.42857099999999804,
          "durationTicks": 480,
          "midi": 33,
          "name": "A1",
          "ticks": 69600,
          "time": 62.14279500000001,
          "velocity": 1
        },
        {
          "duration": 0.42857099999999804,
          "durationTicks": 480,
          "midi": 33,
          "name": "A1",
          "ticks": 70080,
          "time": 62.571366000000005,
          "velocity": 1
        },
        {
          "duration": 0.42857100000000514,
          "durationTicks": 480,
          "midi": 33,
          "name": "A1",
          "ticks": 70560,
          "time": 62.999937,
          "velocity": 1
        },
        {
          "duration": 0.42857099999999804,
          "durationTicks": 480,
          "midi": 33,
          "name": "A1",
          "ticks": 71040,
          "time": 63.42850800000001,
          "velocity": 1
        },
        {
          "duration": 0.42857099999999804,
          "durationTicks": 480,
          "midi": 31,
          "name": "G1",
          "ticks": 71520,
          "time": 63.857079000000006,
          "velocity": 1
        },
        {
          "duration": 0.8571419999999961,
          "durationTicks": 960,
          "midi": 33,
          "name": "A1",
          "ticks": 72000,
          "time": 64.28565,
          "velocity": 1
        },
        {
          "duration": 0.42857100000000514,
          "durationTicks": 480,
          "midi": 28,
          "name": "E1",
          "ticks": 72960,
          "time": 65.142792,
          "velocity": 1
        },
        {
          "duration": 0.42857100000000514,
          "durationTicks": 480,
          "midi": 28,
          "name": "E1",
          "ticks": 73440,
          "time": 65.571363,
          "velocity": 1
        },
        {
          "duration": 0.42857099999999093,
          "durationTicks": 480,
          "midi": 28,
          "name": "E1",
          "ticks": 73920,
          "time": 65.99993400000001,
          "velocity": 1
        },
        {
          "duration": 0.42857100000000514,
          "durationTicks": 480,
          "midi": 28,
          "name": "E1",
          "ticks": 74400,
          "time": 66.428505,
          "velocity": 1
        },
        {
          "duration": 0.42857100000000514,
          "durationTicks": 480,
          "midi": 28,
          "name": "E1",
          "ticks": 74880,
          "time": 66.857076,
          "velocity": 1
        },
        {
          "duration": 0.42857099999999093,
          "durationTicks": 480,
          "midi": 28,
          "name": "E1",
          "ticks": 75360,
          "time": 67.28564700000001,
          "velocity": 1
        },
        {
          "duration": 0.42857100000000514,
          "durationTicks": 480,
          "midi": 28,
          "name": "E1",
          "ticks": 75840,
          "time": 67.714218,
          "velocity": 1
        },
        {
          "duration": 0.42857099999999093,
          "durationTicks": 480,
          "midi": 28,
          "name": "E1",
          "ticks": 76320,
          "time": 68.14278900000001,
          "velocity": 1
        },
        {
          "duration": 0.42857100000000514,
          "durationTicks": 480,
          "midi": 28,
          "name": "E1",
          "ticks": 76800,
          "time": 68.57136,
          "velocity": 1
        },
        {
          "duration": 0.42857100000000514,
          "durationTicks": 480,
          "midi": 28,
          "name": "E1",
          "ticks": 77280,
          "time": 68.999931,
          "velocity": 1
        },
        {
          "duration": 0.42857099999999093,
          "durationTicks": 480,
          "midi": 28,
          "name": "E1",
          "ticks": 77760,
          "time": 69.42850200000001,
          "velocity": 1
        },
        {
          "duration": 0.42857100000000514,
          "durationTicks": 480,
          "midi": 28,
          "name": "E1",
          "ticks": 78240,
          "time": 69.857073,
          "velocity": 1
        },
        {
          "duration": 0.21428550000000257,
          "durationTicks": 240,
          "midi": 28,
          "name": "E1",
          "ticks": 78720,
          "time": 70.285644,
          "velocity": 1
        },
        {
          "duration": 0.21428550000000257,
          "durationTicks": 240,
          "midi": 28,
          "name": "E1",
          "ticks": 78960,
          "time": 70.49992950000001,
          "velocity": 1
        },
        {
          "duration": 0.21428550000000257,
          "durationTicks": 240,
          "midi": 28,
          "name": "E1",
          "ticks": 79200,
          "time": 70.71421500000001,
          "velocity": 1
        },
        {
          "duration": 0.21428549999998836,
          "durationTicks": 240,
          "midi": 28,
          "name": "E1",
          "ticks": 79440,
          "time": 70.92850050000001,
          "velocity": 1
        },
        {
          "duration": 0.21428550000000257,
          "durationTicks": 240,
          "midi": 28,
          "name": "E1",
          "ticks": 79680,
          "time": 71.142786,
          "velocity": 1
        },
        {
          "duration": 0.21428550000000257,
          "durationTicks": 240,
          "midi": 38,
          "name": "D2",
          "ticks": 79920,
          "time": 71.3570715,
          "velocity": 1
        },
        {
          "duration": 0.21428550000000257,
          "durationTicks": 240,
          "midi": 38,
          "name": "D2",
          "ticks": 80160,
          "time": 71.571357,
          "velocity": 1
        },
        {
          "duration": 0.21428550000000257,
          "durationTicks": 240,
          "midi": 28,
          "name": "E1",
          "ticks": 80400,
          "time": 71.78564250000001,
          "velocity": 1
        },
        {
          "duration": 0.21428549999998836,
          "durationTicks": 240,
          "midi": 28,
          "name": "E1",
          "ticks": 80640,
          "time": 71.99992800000001,
          "velocity": 1
        },
        {
          "duration": 0.21428550000000257,
          "durationTicks": 240,
          "midi": 28,
          "name": "E1",
          "ticks": 80880,
          "time": 72.2142135,
          "velocity": 1
        },
        {
          "duration": 0.21428550000000257,
          "durationTicks": 240,
          "midi": 28,
          "name": "E1",
          "ticks": 81120,
          "time": 72.428499,
          "velocity": 1
        },
        {
          "duration": 0.21428550000000257,
          "durationTicks": 240,
          "midi": 28,
          "name": "E1",
          "ticks": 81360,
          "time": 72.6427845,
          "velocity": 1
        },
        {
          "duration": 0.21428550000000257,
          "durationTicks": 240,
          "midi": 28,
          "name": "E1",
          "ticks": 81600,
          "time": 72.85707000000001,
          "velocity": 1
        },
        {
          "duration": 0.21428550000000257,
          "durationTicks": 240,
          "midi": 28,
          "name": "E1",
          "ticks": 81840,
          "time": 73.07135550000001,
          "velocity": 1
        },
        {
          "duration": 0.21428549999998836,
          "durationTicks": 240,
          "midi": 28,
          "name": "E1",
          "ticks": 82080,
          "time": 73.28564100000001,
          "velocity": 1
        },
        {
          "duration": 0.21428550000000257,
          "durationTicks": 240,
          "midi": 28,
          "name": "E1",
          "ticks": 82320,
          "time": 73.4999265,
          "velocity": 1
        },
        {
          "duration": 0.21428550000000257,
          "durationTicks": 240,
          "midi": 28,
          "name": "E1",
          "ticks": 82560,
          "time": 73.714212,
          "velocity": 1
        },
        {
          "duration": 0.21428550000000257,
          "durationTicks": 240,
          "midi": 28,
          "name": "E1",
          "ticks": 82800,
          "time": 73.9284975,
          "velocity": 1
        },
        {
          "duration": 0.21428550000000257,
          "durationTicks": 240,
          "midi": 28,
          "name": "E1",
          "ticks": 83040,
          "time": 74.14278300000001,
          "velocity": 1
        },
        {
          "duration": 0.21428549999998836,
          "durationTicks": 240,
          "midi": 28,
          "name": "E1",
          "ticks": 83280,
          "time": 74.35706850000001,
          "velocity": 1
        },
        {
          "duration": 0.21428550000000257,
          "durationTicks": 240,
          "midi": 28,
          "name": "E1",
          "ticks": 83520,
          "time": 74.571354,
          "velocity": 1
        },
        {
          "duration": 0.21428550000000257,
          "durationTicks": 240,
          "midi": 28,
          "name": "E1",
          "ticks": 83760,
          "time": 74.7856395,
          "velocity": 1
        },
        {
          "duration": 0.21428550000000257,
          "durationTicks": 240,
          "midi": 28,
          "name": "E1",
          "ticks": 84000,
          "time": 74.999925,
          "velocity": 1
        },
        {
          "duration": 0.21428550000000257,
          "durationTicks": 240,
          "midi": 28,
          "name": "E1",
          "ticks": 84240,
          "time": 75.21421050000001,
          "velocity": 1
        },
        {
          "duration": 0.21428550000000257,
          "durationTicks": 240,
          "midi": 28,
          "name": "E1",
          "ticks": 84480,
          "time": 75.42849600000001,
          "velocity": 1
        },
        {
          "duration": 0.21428549999998836,
          "durationTicks": 240,
          "midi": 28,
          "name": "E1",
          "ticks": 84720,
          "time": 75.64278150000001,
          "velocity": 1
        },
        {
          "duration": 0.21428550000000257,
          "durationTicks": 240,
          "midi": 28,
          "name": "E1",
          "ticks": 84960,
          "time": 75.857067,
          "velocity": 1
        },
        {
          "duration": 0.21428550000000257,
          "durationTicks": 240,
          "midi": 28,
          "name": "E1",
          "ticks": 85200,
          "time": 76.0713525,
          "velocity": 1
        },
        {
          "duration": 0.21428550000000257,
          "durationTicks": 240,
          "midi": 28,
          "name": "E1",
          "ticks": 85440,
          "time": 76.285638,
          "velocity": 1
        },
        {
          "duration": 0.21428550000000257,
          "durationTicks": 240,
          "midi": 28,
          "name": "E1",
          "ticks": 85680,
          "time": 76.49992350000001,
          "velocity": 1
        },
        {
          "duration": 0.21428549999998836,
          "durationTicks": 240,
          "midi": 28,
          "name": "E1",
          "ticks": 85920,
          "time": 76.71420900000001,
          "velocity": 1
        },
        {
          "duration": 0.21428550000000257,
          "durationTicks": 240,
          "midi": 28,
          "name": "E1",
          "ticks": 86160,
          "time": 76.9284945,
          "velocity": 1
        },
        {
          "duration": 0.21428550000000257,
          "durationTicks": 240,
          "midi": 28,
          "name": "E1",
          "ticks": 86400,
          "time": 77.14278,
          "velocity": 1
        },
        {
          "duration": 0.21428550000000257,
          "durationTicks": 240,
          "midi": 28,
          "name": "E1",
          "ticks": 86640,
          "time": 77.3570655,
          "velocity": 1
        },
        {
          "duration": 0.21428550000000257,
          "durationTicks": 240,
          "midi": 28,
          "name": "E1",
          "ticks": 86880,
          "time": 77.571351,
          "velocity": 1
        },
        {
          "duration": 0.21428550000000257,
          "durationTicks": 240,
          "midi": 28,
          "name": "E1",
          "ticks": 87120,
          "time": 77.78563650000001,
          "velocity": 1
        },
        {
          "duration": 0.21428549999998836,
          "durationTicks": 240,
          "midi": 28,
          "name": "E1",
          "ticks": 87360,
          "time": 77.99992200000001,
          "velocity": 1
        },
        {
          "duration": 0.21428550000000257,
          "durationTicks": 240,
          "midi": 38,
          "name": "D2",
          "ticks": 87600,
          "time": 78.2142075,
          "velocity": 1
        },
        {
          "duration": 0.21428550000000257,
          "durationTicks": 240,
          "midi": 38,
          "name": "D2",
          "ticks": 87840,
          "time": 78.428493,
          "velocity": 1
        },
        {
          "duration": 0.21428550000000257,
          "durationTicks": 240,
          "midi": 28,
          "name": "E1",
          "ticks": 88080,
          "time": 78.6427785,
          "velocity": 1
        },
        {
          "duration": 0.21428550000000257,
          "durationTicks": 240,
          "midi": 28,
          "name": "E1",
          "ticks": 88320,
          "time": 78.85706400000001,
          "velocity": 1
        },
        {
          "duration": 0.21428550000000257,
          "durationTicks": 240,
          "midi": 28,
          "name": "E1",
          "ticks": 88560,
          "time": 79.07134950000001,
          "velocity": 1
        },
        {
          "duration": 0.21428549999998836,
          "durationTicks": 240,
          "midi": 28,
          "name": "E1",
          "ticks": 88800,
          "time": 79.28563500000001,
          "velocity": 1
        },
        {
          "duration": 0.21428550000000257,
          "durationTicks": 240,
          "midi": 28,
          "name": "E1",
          "ticks": 89040,
          "time": 79.4999205,
          "velocity": 1
        },
        {
          "duration": 0.21428550000000257,
          "durationTicks": 240,
          "midi": 28,
          "name": "E1",
          "ticks": 89280,
          "time": 79.714206,
          "velocity": 1
        },
        {
          "duration": 0.21428550000000257,
          "durationTicks": 240,
          "midi": 28,
          "name": "E1",
          "ticks": 89520,
          "time": 79.9284915,
          "velocity": 1
        },
        {
          "duration": 0.21428550000000257,
          "durationTicks": 240,
          "midi": 28,
          "name": "E1",
          "ticks": 89760,
          "time": 80.14277700000001,
          "velocity": 1
        },
        {
          "duration": 0.21428549999998836,
          "durationTicks": 240,
          "midi": 28,
          "name": "E1",
          "ticks": 90000,
          "time": 80.35706250000001,
          "velocity": 1
        },
        {
          "duration": 0.21428550000000257,
          "durationTicks": 240,
          "midi": 28,
          "name": "E1",
          "ticks": 90240,
          "time": 80.571348,
          "velocity": 1
        },
        {
          "duration": 0.21428550000000257,
          "durationTicks": 240,
          "midi": 28,
          "name": "E1",
          "ticks": 90480,
          "time": 80.7856335,
          "velocity": 1
        },
        {
          "duration": 0.21428550000000257,
          "durationTicks": 240,
          "midi": 28,
          "name": "E1",
          "ticks": 90720,
          "time": 80.999919,
          "velocity": 1
        },
        {
          "duration": 0.21428550000000257,
          "durationTicks": 240,
          "midi": 28,
          "name": "E1",
          "ticks": 90960,
          "time": 81.21420450000001,
          "velocity": 1
        },
        {
          "duration": 0.21428550000000257,
          "durationTicks": 240,
          "midi": 28,
          "name": "E1",
          "ticks": 91200,
          "time": 81.42849000000001,
          "velocity": 1
        },
        {
          "duration": 0.21428549999998836,
          "durationTicks": 240,
          "midi": 28,
          "name": "E1",
          "ticks": 91440,
          "time": 81.64277550000001,
          "velocity": 1
        },
        {
          "duration": 0.21428550000000257,
          "durationTicks": 240,
          "midi": 28,
          "name": "E1",
          "ticks": 91680,
          "time": 81.857061,
          "velocity": 1
        },
        {
          "duration": 0.21428550000000257,
          "durationTicks": 240,
          "midi": 28,
          "name": "E1",
          "ticks": 91920,
          "time": 82.0713465,
          "velocity": 1
        },
        {
          "duration": 0.21428550000000257,
          "durationTicks": 240,
          "midi": 28,
          "name": "E1",
          "ticks": 92160,
          "time": 82.285632,
          "velocity": 1
        },
        {
          "duration": 0.21428550000000257,
          "durationTicks": 240,
          "midi": 28,
          "name": "E1",
          "ticks": 92400,
          "time": 82.49991750000001,
          "velocity": 1
        },
        {
          "duration": 0.21428549999998836,
          "durationTicks": 240,
          "midi": 28,
          "name": "E1",
          "ticks": 92640,
          "time": 82.71420300000001,
          "velocity": 1
        },
        {
          "duration": 0.21428550000000257,
          "durationTicks": 240,
          "midi": 28,
          "name": "E1",
          "ticks": 92880,
          "time": 82.9284885,
          "velocity": 1
        },
        {
          "duration": 0.21428550000000257,
          "durationTicks": 240,
          "midi": 28,
          "name": "E1",
          "ticks": 93120,
          "time": 83.142774,
          "velocity": 1
        },
        {
          "duration": 0.21428550000000257,
          "durationTicks": 240,
          "midi": 28,
          "name": "E1",
          "ticks": 93360,
          "time": 83.3570595,
          "velocity": 1
        },
        {
          "duration": 0.21428550000000257,
          "durationTicks": 240,
          "midi": 28,
          "name": "E1",
          "ticks": 93600,
          "time": 83.57134500000001,
          "velocity": 1
        },
        {
          "duration": 0.21428550000000257,
          "durationTicks": 240,
          "midi": 28,
          "name": "E1",
          "ticks": 93840,
          "time": 83.78563050000001,
          "velocity": 1
        },
        {
          "duration": 0.21428549999998836,
          "durationTicks": 240,
          "midi": 28,
          "name": "E1",
          "ticks": 94080,
          "time": 83.99991600000001,
          "velocity": 1
        },
        {
          "duration": 0.21428550000000257,
          "durationTicks": 240,
          "midi": 28,
          "name": "E1",
          "ticks": 94320,
          "time": 84.2142015,
          "velocity": 1
        },
        {
          "duration": 0.21428550000000257,
          "durationTicks": 240,
          "midi": 28,
          "name": "E1",
          "ticks": 94560,
          "time": 84.428487,
          "velocity": 1
        },
        {
          "duration": 0.21428550000000257,
          "durationTicks": 240,
          "midi": 28,
          "name": "E1",
          "ticks": 94800,
          "time": 84.6427725,
          "velocity": 1
        },
        {
          "duration": 0.21428550000000257,
          "durationTicks": 240,
          "midi": 28,
          "name": "E1",
          "ticks": 95040,
          "time": 84.85705800000001,
          "velocity": 1
        },
        {
          "duration": 0.21428549999998836,
          "durationTicks": 240,
          "midi": 38,
          "name": "D2",
          "ticks": 95280,
          "time": 85.07134350000001,
          "velocity": 1
        },
        {
          "duration": 0.21428550000000257,
          "durationTicks": 240,
          "midi": 38,
          "name": "D2",
          "ticks": 95520,
          "time": 85.285629,
          "velocity": 1
        },
        {
          "duration": 0.21428550000000257,
          "durationTicks": 240,
          "midi": 28,
          "name": "E1",
          "ticks": 95760,
          "time": 85.4999145,
          "velocity": 1
        },
        {
          "duration": 0.21428550000000257,
          "durationTicks": 240,
          "midi": 28,
          "name": "E1",
          "ticks": 96000,
          "time": 85.7142,
          "velocity": 1
        },
        {
          "duration": 0.21428550000000257,
          "durationTicks": 240,
          "midi": 28,
          "name": "E1",
          "ticks": 96240,
          "time": 85.92848550000001,
          "velocity": 1
        },
        {
          "duration": 0.21428550000000257,
          "durationTicks": 240,
          "midi": 28,
          "name": "E1",
          "ticks": 96480,
          "time": 86.14277100000001,
          "velocity": 1
        },
        {
          "duration": 0.21428549999998836,
          "durationTicks": 240,
          "midi": 28,
          "name": "E1",
          "ticks": 96720,
          "time": 86.35705650000001,
          "velocity": 1
        },
        {
          "duration": 0.21428550000000257,
          "durationTicks": 240,
          "midi": 28,
          "name": "E1",
          "ticks": 96960,
          "time": 86.571342,
          "velocity": 1
        },
        {
          "duration": 0.21428550000000257,
          "durationTicks": 240,
          "midi": 28,
          "name": "E1",
          "ticks": 97200,
          "time": 86.7856275,
          "velocity": 1
        },
        {
          "duration": 0.21428550000000257,
          "durationTicks": 240,
          "midi": 28,
          "name": "E1",
          "ticks": 97440,
          "time": 86.999913,
          "velocity": 1
        },
        {
          "duration": 0.21428550000000257,
          "durationTicks": 240,
          "midi": 28,
          "name": "E1",
          "ticks": 97680,
          "time": 87.21419850000001,
          "velocity": 1
        },
        {
          "duration": 0.21428550000000257,
          "durationTicks": 240,
          "midi": 28,
          "name": "E1",
          "ticks": 97920,
          "time": 87.42848400000001,
          "velocity": 1
        },
        {
          "duration": 0.21428549999998836,
          "durationTicks": 240,
          "midi": 28,
          "name": "E1",
          "ticks": 98160,
          "time": 87.64276950000001,
          "velocity": 1
        },
        {
          "duration": 0.21428550000000257,
          "durationTicks": 240,
          "midi": 28,
          "name": "E1",
          "ticks": 98400,
          "time": 87.857055,
          "velocity": 1
        },
        {
          "duration": 0.21428550000000257,
          "durationTicks": 240,
          "midi": 28,
          "name": "E1",
          "ticks": 98640,
          "time": 88.0713405,
          "velocity": 1
        },
        {
          "duration": 0.21428550000000257,
          "durationTicks": 240,
          "midi": 28,
          "name": "E1",
          "ticks": 98880,
          "time": 88.28562600000001,
          "velocity": 1
        },
        {
          "duration": 0.21428550000000257,
          "durationTicks": 240,
          "midi": 28,
          "name": "E1",
          "ticks": 99120,
          "time": 88.49991150000001,
          "velocity": 1
        },
        {
          "duration": 0.21428549999998836,
          "durationTicks": 240,
          "midi": 28,
          "name": "E1",
          "ticks": 99360,
          "time": 88.71419700000001,
          "velocity": 1
        },
        {
          "duration": 0.21428550000000257,
          "durationTicks": 240,
          "midi": 28,
          "name": "E1",
          "ticks": 99600,
          "time": 88.9284825,
          "velocity": 1
        },
        {
          "duration": 0.21428550000000257,
          "durationTicks": 240,
          "midi": 28,
          "name": "E1",
          "ticks": 99840,
          "time": 89.142768,
          "velocity": 1
        },
        {
          "duration": 0.21428550000000257,
          "durationTicks": 240,
          "midi": 28,
          "name": "E1",
          "ticks": 100080,
          "time": 89.3570535,
          "velocity": 1
        },
        {
          "duration": 0.21428550000000257,
          "durationTicks": 240,
          "midi": 28,
          "name": "E1",
          "ticks": 100320,
          "time": 89.57133900000001,
          "velocity": 1
        },
        {
          "duration": 0.21428550000000257,
          "durationTicks": 240,
          "midi": 28,
          "name": "E1",
          "ticks": 100560,
          "time": 89.78562450000001,
          "velocity": 1
        },
        {
          "duration": 0.21428549999998836,
          "durationTicks": 240,
          "midi": 28,
          "name": "E1",
          "ticks": 100800,
          "time": 89.99991000000001,
          "velocity": 1
        },
        {
          "duration": 0.21428550000000257,
          "durationTicks": 240,
          "midi": 28,
          "name": "E1",
          "ticks": 101040,
          "time": 90.2141955,
          "velocity": 1
        },
        {
          "duration": 0.21428550000000257,
          "durationTicks": 240,
          "midi": 28,
          "name": "E1",
          "ticks": 101280,
          "time": 90.428481,
          "velocity": 1
        },
        {
          "duration": 0.21428550000000257,
          "durationTicks": 240,
          "midi": 28,
          "name": "E1",
          "ticks": 101520,
          "time": 90.64276650000001,
          "velocity": 1
        },
        {
          "duration": 0.21428550000000257,
          "durationTicks": 240,
          "midi": 28,
          "name": "E1",
          "ticks": 101760,
          "time": 90.85705200000001,
          "velocity": 1
        },
        {
          "duration": 0.21428549999998836,
          "durationTicks": 240,
          "midi": 28,
          "name": "E1",
          "ticks": 102000,
          "time": 91.07133750000001,
          "velocity": 1
        },
        {
          "duration": 0.21428550000000257,
          "durationTicks": 240,
          "midi": 28,
          "name": "E1",
          "ticks": 102240,
          "time": 91.285623,
          "velocity": 1
        },
        {
          "duration": 0.21428550000000257,
          "durationTicks": 240,
          "midi": 28,
          "name": "E1",
          "ticks": 102480,
          "time": 91.4999085,
          "velocity": 1
        },
        {
          "duration": 0.21428550000000257,
          "durationTicks": 240,
          "midi": 28,
          "name": "E1",
          "ticks": 102720,
          "time": 91.714194,
          "velocity": 1
        },
        {
          "duration": 0.21428550000000257,
          "durationTicks": 240,
          "midi": 38,
          "name": "D2",
          "ticks": 102960,
          "time": 91.92847950000001,
          "velocity": 1
        },
        {
          "duration": 0.21428550000000257,
          "durationTicks": 240,
          "midi": 38,
          "name": "D2",
          "ticks": 103200,
          "time": 92.14276500000001,
          "velocity": 1
        },
        {
          "duration": 0.21428549999998836,
          "durationTicks": 240,
          "midi": 28,
          "name": "E1",
          "ticks": 103440,
          "time": 92.35705050000001,
          "velocity": 1
        },
        {
          "duration": 0.21428550000000257,
          "durationTicks": 240,
          "midi": 28,
          "name": "E1",
          "ticks": 103680,
          "time": 92.571336,
          "velocity": 1
        },
        {
          "duration": 0.21428550000000257,
          "durationTicks": 240,
          "midi": 28,
          "name": "E1",
          "ticks": 103920,
          "time": 92.7856215,
          "velocity": 1
        },
        {
          "duration": 0.21428550000000257,
          "durationTicks": 240,
          "midi": 28,
          "name": "E1",
          "ticks": 104160,
          "time": 92.99990700000001,
          "velocity": 1
        },
        {
          "duration": 0.21428550000000257,
          "durationTicks": 240,
          "midi": 28,
          "name": "E1",
          "ticks": 104400,
          "time": 93.21419250000001,
          "velocity": 1
        },
        {
          "duration": 0.21428549999998836,
          "durationTicks": 240,
          "midi": 28,
          "name": "E1",
          "ticks": 104640,
          "time": 93.42847800000001,
          "velocity": 1
        },
        {
          "duration": 0.21428550000000257,
          "durationTicks": 240,
          "midi": 38,
          "name": "D2",
          "ticks": 104880,
          "time": 93.6427635,
          "velocity": 1
        },
        {
          "duration": 0.21428550000000257,
          "durationTicks": 240,
          "midi": 38,
          "name": "D2",
          "ticks": 105120,
          "time": 93.857049,
          "velocity": 1
        },
        {
          "duration": 0.21428550000000257,
          "durationTicks": 240,
          "midi": 28,
          "name": "E1",
          "ticks": 105360,
          "time": 94.0713345,
          "velocity": 1
        },
        {
          "duration": 0.21428550000000257,
          "durationTicks": 240,
          "midi": 28,
          "name": "E1",
          "ticks": 105600,
          "time": 94.28562000000001,
          "velocity": 1
        },
        {
          "duration": 0.21428550000000257,
          "durationTicks": 240,
          "midi": 28,
          "name": "E1",
          "ticks": 105840,
          "time": 94.49990550000001,
          "velocity": 1
        },
        {
          "duration": 0.21428549999998836,
          "durationTicks": 240,
          "midi": 28,
          "name": "E1",
          "ticks": 106080,
          "time": 94.71419100000001,
          "velocity": 1
        },
        {
          "duration": 0.21428550000000257,
          "durationTicks": 240,
          "midi": 28,
          "name": "E1",
          "ticks": 106320,
          "time": 94.9284765,
          "velocity": 1
        },
        {
          "duration": 0.21428550000000257,
          "durationTicks": 240,
          "midi": 28,
          "name": "E1",
          "ticks": 106560,
          "time": 95.142762,
          "velocity": 1
        },
        {
          "duration": 0.21428550000000257,
          "durationTicks": 240,
          "midi": 38,
          "name": "D2",
          "ticks": 106800,
          "time": 95.35704750000001,
          "velocity": 1
        },
        {
          "duration": 0.21428550000000257,
          "durationTicks": 240,
          "midi": 38,
          "name": "D2",
          "ticks": 107040,
          "time": 95.57133300000001,
          "velocity": 1
        },
        {
          "duration": 0.21428550000000257,
          "durationTicks": 240,
          "midi": 28,
          "name": "E1",
          "ticks": 107280,
          "time": 95.78561850000001,
          "velocity": 1
        },
        {
          "duration": 0.21428549999998836,
          "durationTicks": 240,
          "midi": 28,
          "name": "E1",
          "ticks": 107520,
          "time": 95.99990400000002,
          "velocity": 1
        },
        {
          "duration": 0.21428550000000257,
          "durationTicks": 240,
          "midi": 28,
          "name": "E1",
          "ticks": 107760,
          "time": 96.2141895,
          "velocity": 1
        },
        {
          "duration": 0.21428550000000257,
          "durationTicks": 240,
          "midi": 28,
          "name": "E1",
          "ticks": 108000,
          "time": 96.428475,
          "velocity": 1
        },
        {
          "duration": 0.21428550000000257,
          "durationTicks": 240,
          "midi": 28,
          "name": "E1",
          "ticks": 108240,
          "time": 96.64276050000001,
          "velocity": 1
        },
        {
          "duration": 0.21428550000000257,
          "durationTicks": 240,
          "midi": 28,
          "name": "E1",
          "ticks": 108480,
          "time": 96.85704600000001,
          "velocity": 1
        },
        {
          "duration": 0.21428549999998836,
          "durationTicks": 240,
          "midi": 38,
          "name": "D2",
          "ticks": 108720,
          "time": 97.07133150000001,
          "velocity": 1
        },
        {
          "duration": 0.21428550000000257,
          "durationTicks": 240,
          "midi": 38,
          "name": "D2",
          "ticks": 108960,
          "time": 97.285617,
          "velocity": 1
        },
        {
          "duration": 0.21428550000000257,
          "durationTicks": 240,
          "midi": 28,
          "name": "E1",
          "ticks": 109200,
          "time": 97.4999025,
          "velocity": 1
        },
        {
          "duration": 0.21428550000000257,
          "durationTicks": 240,
          "midi": 28,
          "name": "E1",
          "ticks": 109440,
          "time": 97.71418800000001,
          "velocity": 1
        },
        {
          "duration": 0.21428550000000257,
          "durationTicks": 240,
          "midi": 28,
          "name": "E1",
          "ticks": 109680,
          "time": 97.92847350000001,
          "velocity": 1
        },
        {
          "duration": 0.21428550000000257,
          "durationTicks": 240,
          "midi": 28,
          "name": "E1",
          "ticks": 109920,
          "time": 98.14275900000001,
          "velocity": 1
        },
        {
          "duration": 0.21428549999998836,
          "durationTicks": 240,
          "midi": 28,
          "name": "E1",
          "ticks": 110160,
          "time": 98.35704450000001,
          "velocity": 1
        },
        {
          "duration": 0.42857100000000514,
          "durationTicks": 480,
          "midi": 28,
          "name": "E1",
          "ticks": 110400,
          "time": 98.57133,
          "velocity": 1
        },
        {
          "duration": 0.42857099999999093,
          "durationTicks": 480,
          "midi": 33,
          "name": "A1",
          "ticks": 111360,
          "time": 99.42847200000001,
          "velocity": 1
        },
        {
          "duration": 0.42857100000000514,
          "durationTicks": 480,
          "midi": 33,
          "name": "A1",
          "ticks": 111840,
          "time": 99.857043,
          "velocity": 1
        },
        {
          "duration": 0.42857100000000514,
          "durationTicks": 480,
          "midi": 33,
          "name": "A1",
          "ticks": 112320,
          "time": 100.28561400000001,
          "velocity": 1
        },
        {
          "duration": 0.42857099999999093,
          "durationTicks": 480,
          "midi": 33,
          "name": "A1",
          "ticks": 112800,
          "time": 100.71418500000001,
          "velocity": 1
        },
        {
          "duration": 0.42857100000000514,
          "durationTicks": 480,
          "midi": 33,
          "name": "A1",
          "ticks": 113280,
          "time": 101.142756,
          "velocity": 1
        },
        {
          "duration": 0.42857099999999093,
          "durationTicks": 480,
          "midi": 31,
          "name": "G1",
          "ticks": 113760,
          "time": 101.57132700000001,
          "velocity": 1
        },
        {
          "duration": 0.8571420000000103,
          "durationTicks": 960,
          "midi": 33,
          "name": "A1",
          "ticks": 114240,
          "time": 101.999898,
          "velocity": 1
        },
        {
          "duration": 0.42857099999999093,
          "durationTicks": 480,
          "midi": 28,
          "name": "E1",
          "ticks": 115200,
          "time": 102.85704000000001,
          "velocity": 1
        },
        {
          "duration": 0.42857100000000514,
          "durationTicks": 480,
          "midi": 28,
          "name": "E1",
          "ticks": 115680,
          "time": 103.285611,
          "velocity": 1
        },
        {
          "duration": 0.42857100000000514,
          "durationTicks": 480,
          "midi": 28,
          "name": "E1",
          "ticks": 116160,
          "time": 103.71418200000001,
          "velocity": 1
        },
        {
          "duration": 0.42857099999999093,
          "durationTicks": 480,
          "midi": 28,
          "name": "E1",
          "ticks": 116640,
          "time": 104.14275300000001,
          "velocity": 1
        },
        {
          "duration": 0.42857100000000514,
          "durationTicks": 480,
          "midi": 28,
          "name": "E1",
          "ticks": 117120,
          "time": 104.571324,
          "velocity": 1
        },
        {
          "duration": 0.42857100000000514,
          "durationTicks": 480,
          "midi": 38,
          "name": "D2",
          "ticks": 117600,
          "time": 104.99989500000001,
          "velocity": 1
        },
        {
          "duration": 0.42857099999999093,
          "durationTicks": 480,
          "midi": 40,
          "name": "E2",
          "ticks": 118080,
          "time": 105.42846600000001,
          "velocity": 1
        },
        {
          "duration": 0.42857100000000514,
          "durationTicks": 480,
          "midi": 28,
          "name": "E1",
          "ticks": 118560,
          "time": 105.857037,
          "velocity": 1
        },
        {
          "duration": 0.42857100000000514,
          "durationTicks": 480,
          "midi": 33,
          "name": "A1",
          "ticks": 119040,
          "time": 106.28560800000001,
          "velocity": 1
        },
        {
          "duration": 0.42857099999999093,
          "durationTicks": 480,
          "midi": 33,
          "name": "A1",
          "ticks": 119520,
          "time": 106.71417900000002,
          "velocity": 1
        },
        {
          "duration": 0.42857100000000514,
          "durationTicks": 480,
          "midi": 33,
          "name": "A1",
          "ticks": 120000,
          "time": 107.14275,
          "velocity": 1
        },
        {
          "duration": 0.42857099999999093,
          "durationTicks": 480,
          "midi": 33,
          "name": "A1",
          "ticks": 120480,
          "time": 107.57132100000001,
          "velocity": 1
        },
        {
          "duration": 0.42857100000000514,
          "durationTicks": 480,
          "midi": 33,
          "name": "A1",
          "ticks": 120960,
          "time": 107.999892,
          "velocity": 1
        },
        {
          "duration": 0.42857100000000514,
          "durationTicks": 480,
          "midi": 31,
          "name": "G1",
          "ticks": 121440,
          "time": 108.42846300000001,
          "velocity": 1
        },
        {
          "duration": 0.8571419999999961,
          "durationTicks": 960,
          "midi": 33,
          "name": "A1",
          "ticks": 121920,
          "time": 108.85703400000001,
          "velocity": 1
        },
        {
          "duration": 0.42857100000000514,
          "durationTicks": 480,
          "midi": 28,
          "name": "E1",
          "ticks": 122880,
          "time": 109.71417600000001,
          "velocity": 1
        },
        {
          "duration": 0.42857099999999093,
          "durationTicks": 480,
          "midi": 28,
          "name": "E1",
          "ticks": 123360,
          "time": 110.14274700000001,
          "velocity": 1
        },
        {
          "duration": 0.42857100000000514,
          "durationTicks": 480,
          "midi": 28,
          "name": "E1",
          "ticks": 123840,
          "time": 110.571318,
          "velocity": 1
        },
        {
          "duration": 0.42857100000000514,
          "durationTicks": 480,
          "midi": 28,
          "name": "E1",
          "ticks": 124320,
          "time": 110.99988900000001,
          "velocity": 1
        },
        {
          "duration": 0.42857099999999093,
          "durationTicks": 480,
          "midi": 28,
          "name": "E1",
          "ticks": 124800,
          "time": 111.42846000000002,
          "velocity": 1
        },
        {
          "duration": 0.42857100000000514,
          "durationTicks": 480,
          "midi": 28,
          "name": "E1",
          "ticks": 125280,
          "time": 111.857031,
          "velocity": 1
        },
        {
          "duration": 0.42857099999999093,
          "durationTicks": 480,
          "midi": 28,
          "name": "E1",
          "ticks": 125760,
          "time": 112.28560200000001,
          "velocity": 1
        },
        {
          "duration": 0.42857100000000514,
          "durationTicks": 480,
          "midi": 28,
          "name": "E1",
          "ticks": 126240,
          "time": 112.714173,
          "velocity": 1
        },
        {
          "duration": 0.21428550000000257,
          "durationTicks": 240,
          "midi": 35,
          "name": "B1",
          "ticks": 126720,
          "time": 113.14274400000001,
          "velocity": 1
        },
        {
          "duration": 0.21428550000000257,
          "durationTicks": 240,
          "midi": 35,
          "name": "B1",
          "ticks": 126960,
          "time": 113.35702950000001,
          "velocity": 1
        },
        {
          "duration": 0.21428550000000257,
          "durationTicks": 240,
          "midi": 35,
          "name": "B1",
          "ticks": 127200,
          "time": 113.57131500000001,
          "velocity": 1
        },
        {
          "duration": 0.21428549999998836,
          "durationTicks": 240,
          "midi": 35,
          "name": "B1",
          "ticks": 127440,
          "time": 113.78560050000002,
          "velocity": 1
        },
        {
          "duration": 0.21428550000000257,
          "durationTicks": 240,
          "midi": 35,
          "name": "B1",
          "ticks": 127680,
          "time": 113.999886,
          "velocity": 1
        },
        {
          "duration": 0.21428550000000257,
          "durationTicks": 240,
          "midi": 35,
          "name": "B1",
          "ticks": 127920,
          "time": 114.2141715,
          "velocity": 1
        },
        {
          "duration": 0.21428550000000257,
          "durationTicks": 240,
          "midi": 35,
          "name": "B1",
          "ticks": 128160,
          "time": 114.42845700000001,
          "velocity": 1
        },
        {
          "duration": 0.21428550000000257,
          "durationTicks": 240,
          "midi": 35,
          "name": "B1",
          "ticks": 128400,
          "time": 114.64274250000001,
          "velocity": 1
        },
        {
          "duration": 0.21428550000000257,
          "durationTicks": 240,
          "midi": 35,
          "name": "B1",
          "ticks": 128640,
          "time": 114.85702800000001,
          "velocity": 1
        },
        {
          "duration": 0.21428549999998836,
          "durationTicks": 240,
          "midi": 35,
          "name": "B1",
          "ticks": 128880,
          "time": 115.07131350000002,
          "velocity": 1
        },
        {
          "duration": 0.21428550000000257,
          "durationTicks": 240,
          "midi": 35,
          "name": "B1",
          "ticks": 129120,
          "time": 115.285599,
          "velocity": 1
        },
        {
          "duration": 0.21428550000000257,
          "durationTicks": 240,
          "midi": 33,
          "name": "A1",
          "ticks": 129360,
          "time": 115.49988450000001,
          "velocity": 1
        },
        {
          "duration": 0.21428550000000257,
          "durationTicks": 240,
          "midi": 33,
          "name": "A1",
          "ticks": 129600,
          "time": 115.71417000000001,
          "velocity": 1
        },
        {
          "duration": 0.21428550000000257,
          "durationTicks": 240,
          "midi": 33,
          "name": "A1",
          "ticks": 129840,
          "time": 115.92845550000001,
          "velocity": 1
        },
        {
          "duration": 0.21428549999998836,
          "durationTicks": 240,
          "midi": 33,
          "name": "A1",
          "ticks": 130080,
          "time": 116.14274100000002,
          "velocity": 1
        },
        {
          "duration": 0.21428550000000257,
          "durationTicks": 240,
          "midi": 33,
          "name": "A1",
          "ticks": 130320,
          "time": 116.3570265,
          "velocity": 1
        },
        {
          "duration": 0.21428550000000257,
          "durationTicks": 240,
          "midi": 35,
          "name": "B1",
          "ticks": 130560,
          "time": 116.571312,
          "velocity": 1
        },
        {
          "duration": 0.21428550000000257,
          "durationTicks": 240,
          "midi": 35,
          "name": "B1",
          "ticks": 130800,
          "time": 116.78559750000001,
          "velocity": 1
        },
        {
          "duration": 0.21428550000000257,
          "durationTicks": 240,
          "midi": 35,
          "name": "B1",
          "ticks": 131040,
          "time": 116.99988300000001,
          "velocity": 1
        },
        {
          "duration": 0.21428550000000257,
          "durationTicks": 240,
          "midi": 35,
          "name": "B1",
          "ticks": 131280,
          "time": 117.21416850000001,
          "velocity": 1
        },
        {
          "duration": 0.21428549999998836,
          "durationTicks": 240,
          "midi": 35,
          "name": "B1",
          "ticks": 131520,
          "time": 117.42845400000002,
          "velocity": 1
        },
        {
          "duration": 0.21428550000000257,
          "durationTicks": 240,
          "midi": 35,
          "name": "B1",
          "ticks": 131760,
          "time": 117.6427395,
          "velocity": 1
        },
        {
          "duration": 0.21428550000000257,
          "durationTicks": 240,
          "midi": 35,
          "name": "B1",
          "ticks": 132000,
          "time": 117.85702500000001,
          "velocity": 1
        },
        {
          "duration": 0.21428550000000257,
          "durationTicks": 240,
          "midi": 35,
          "name": "B1",
          "ticks": 132240,
          "time": 118.07131050000001,
          "velocity": 1
        },
        {
          "duration": 0.21428550000000257,
          "durationTicks": 240,
          "midi": 35,
          "name": "B1",
          "ticks": 132480,
          "time": 118.28559600000001,
          "velocity": 1
        },
        {
          "duration": 0.21428549999998836,
          "durationTicks": 240,
          "midi": 35,
          "name": "B1",
          "ticks": 132720,
          "time": 118.49988150000001,
          "velocity": 1
        },
        {
          "duration": 0.21428550000000257,
          "durationTicks": 240,
          "midi": 35,
          "name": "B1",
          "ticks": 132960,
          "time": 118.714167,
          "velocity": 1
        },
        {
          "duration": 0.21428550000000257,
          "durationTicks": 240,
          "midi": 33,
          "name": "A1",
          "ticks": 133200,
          "time": 118.9284525,
          "velocity": 1
        },
        {
          "duration": 0.21428550000000257,
          "durationTicks": 240,
          "midi": 33,
          "name": "A1",
          "ticks": 133440,
          "time": 119.14273800000001,
          "velocity": 1
        },
        {
          "duration": 0.21428550000000257,
          "durationTicks": 240,
          "midi": 33,
          "name": "A1",
          "ticks": 133680,
          "time": 119.35702350000001,
          "velocity": 1
        },
        {
          "duration": 0.21428550000000257,
          "durationTicks": 240,
          "midi": 33,
          "name": "A1",
          "ticks": 133920,
          "time": 119.57130900000001,
          "velocity": 1
        },
        {
          "duration": 0.21428549999998836,
          "durationTicks": 240,
          "midi": 33,
          "name": "A1",
          "ticks": 134160,
          "time": 119.78559450000002,
          "velocity": 1
        },
        {
          "duration": 0.21428550000000257,
          "durationTicks": 240,
          "midi": 35,
          "name": "B1",
          "ticks": 134400,
          "time": 119.99988,
          "velocity": 1
        },
        {
          "duration": 0.21428550000000257,
          "durationTicks": 240,
          "midi": 35,
          "name": "B1",
          "ticks": 134640,
          "time": 120.21416550000001,
          "velocity": 1
        },
        {
          "duration": 0.21428550000000257,
          "durationTicks": 240,
          "midi": 35,
          "name": "B1",
          "ticks": 134880,
          "time": 120.42845100000001,
          "velocity": 1
        },
        {
          "duration": 0.21428550000000257,
          "durationTicks": 240,
          "midi": 35,
          "name": "B1",
          "ticks": 135120,
          "time": 120.64273650000001,
          "velocity": 1
        },
        {
          "duration": 0.21428549999998836,
          "durationTicks": 240,
          "midi": 35,
          "name": "B1",
          "ticks": 135360,
          "time": 120.85702200000001,
          "velocity": 1
        },
        {
          "duration": 0.21428550000000257,
          "durationTicks": 240,
          "midi": 35,
          "name": "B1",
          "ticks": 135600,
          "time": 121.0713075,
          "velocity": 1
        },
        {
          "duration": 0.21428550000000257,
          "durationTicks": 240,
          "midi": 35,
          "name": "B1",
          "ticks": 135840,
          "time": 121.285593,
          "velocity": 1
        },
        {
          "duration": 0.21428550000000257,
          "durationTicks": 240,
          "midi": 35,
          "name": "B1",
          "ticks": 136080,
          "time": 121.49987850000001,
          "velocity": 1
        },
        {
          "duration": 0.21428550000000257,
          "durationTicks": 240,
          "midi": 35,
          "name": "B1",
          "ticks": 136320,
          "time": 121.71416400000001,
          "velocity": 1
        },
        {
          "duration": 0.21428550000000257,
          "durationTicks": 240,
          "midi": 35,
          "name": "B1",
          "ticks": 136560,
          "time": 121.92844950000001,
          "velocity": 1
        },
        {
          "duration": 0.21428549999998836,
          "durationTicks": 240,
          "midi": 35,
          "name": "B1",
          "ticks": 136800,
          "time": 122.14273500000002,
          "velocity": 1
        },
        {
          "duration": 0.21428550000000257,
          "durationTicks": 240,
          "midi": 33,
          "name": "A1",
          "ticks": 137040,
          "time": 122.3570205,
          "velocity": 1
        },
        {
          "duration": 0.21428550000000257,
          "durationTicks": 240,
          "midi": 33,
          "name": "A1",
          "ticks": 137280,
          "time": 122.571306,
          "velocity": 1
        },
        {
          "duration": 0.21428550000000257,
          "durationTicks": 240,
          "midi": 33,
          "name": "A1",
          "ticks": 137520,
          "time": 122.78559150000001,
          "velocity": 1
        },
        {
          "duration": 0.21428550000000257,
          "durationTicks": 240,
          "midi": 33,
          "name": "A1",
          "ticks": 137760,
          "time": 122.99987700000001,
          "velocity": 1
        },
        {
          "duration": 0.21428549999998836,
          "durationTicks": 240,
          "midi": 33,
          "name": "A1",
          "ticks": 138000,
          "time": 123.21416250000001,
          "velocity": 1
        },
        {
          "duration": 0.21428550000000257,
          "durationTicks": 240,
          "midi": 35,
          "name": "B1",
          "ticks": 138240,
          "time": 123.428448,
          "velocity": 1
        },
        {
          "duration": 0.21428550000000257,
          "durationTicks": 240,
          "midi": 35,
          "name": "B1",
          "ticks": 138480,
          "time": 123.6427335,
          "velocity": 1
        },
        {
          "duration": 0.21428550000000257,
          "durationTicks": 240,
          "midi": 35,
          "name": "B1",
          "ticks": 138720,
          "time": 123.85701900000001,
          "velocity": 1
        },
        {
          "duration": 0.21428550000000257,
          "durationTicks": 240,
          "midi": 35,
          "name": "B1",
          "ticks": 138960,
          "time": 124.07130450000001,
          "velocity": 1
        },
        {
          "duration": 0.21428550000000257,
          "durationTicks": 240,
          "midi": 35,
          "name": "B1",
          "ticks": 139200,
          "time": 124.28559000000001,
          "velocity": 1
        },
        {
          "duration": 0.21428549999998836,
          "durationTicks": 240,
          "midi": 35,
          "name": "B1",
          "ticks": 139440,
          "time": 124.49987550000002,
          "velocity": 1
        },
        {
          "duration": 0.21428550000000257,
          "durationTicks": 240,
          "midi": 35,
          "name": "B1",
          "ticks": 139680,
          "time": 124.714161,
          "velocity": 1
        },
        {
          "duration": 0.21428550000000257,
          "durationTicks": 240,
          "midi": 35,
          "name": "B1",
          "ticks": 139920,
          "time": 124.9284465,
          "velocity": 1
        },
        {
          "duration": 0.21428550000000257,
          "durationTicks": 240,
          "midi": 28,
          "name": "E1",
          "ticks": 140160,
          "time": 125.14273200000001,
          "velocity": 1
        },
        {
          "duration": 0.42857100000000514,
          "durationTicks": 480,
          "midi": 38,
          "name": "D2",
          "ticks": 140400,
          "time": 125.35701750000001,
          "velocity": 1
        },
        {
          "duration": 0.42857099999999093,
          "durationTicks": 480,
          "midi": 38,
          "name": "D2",
          "ticks": 140880,
          "time": 125.78558850000002,
          "velocity": 1
        },
        {
          "duration": 0.6428565000000077,
          "durationTicks": 720,
          "midi": 38,
          "name": "D2",
          "ticks": 141360,
          "time": 126.21415950000001,
          "velocity": 1
        },
        {
          "duration": 0.21428549999998836,
          "durationTicks": 240,
          "midi": 28,
          "name": "E1",
          "ticks": 142080,
          "time": 126.85701600000002,
          "velocity": 1
        },
        {
          "duration": 0.21428550000000257,
          "durationTicks": 240,
          "midi": 28,
          "name": "E1",
          "ticks": 142320,
          "time": 127.0713015,
          "velocity": 1
        },
        {
          "duration": 0.21428550000000257,
          "durationTicks": 240,
          "midi": 28,
          "name": "E1",
          "ticks": 142560,
          "time": 127.285587,
          "velocity": 1
        },
        {
          "duration": 0.21428550000000257,
          "durationTicks": 240,
          "midi": 28,
          "name": "E1",
          "ticks": 142800,
          "time": 127.49987250000001,
          "velocity": 1
        },
        {
          "duration": 0.21428550000000257,
          "durationTicks": 240,
          "midi": 28,
          "name": "E1",
          "ticks": 143040,
          "time": 127.71415800000001,
          "velocity": 1
        },
        {
          "duration": 0.21428549999998836,
          "durationTicks": 240,
          "midi": 28,
          "name": "E1",
          "ticks": 143280,
          "time": 127.92844350000001,
          "velocity": 1
        },
        {
          "duration": 0.21428550000001678,
          "durationTicks": 240,
          "midi": 28,
          "name": "E1",
          "ticks": 143520,
          "time": 128.142729,
          "velocity": 1
        },
        {
          "duration": 0.21428549999998836,
          "durationTicks": 240,
          "midi": 31,
          "name": "G1",
          "ticks": 143760,
          "time": 128.35701450000002,
          "velocity": 1
        },
        {
          "duration": 0.21428550000001678,
          "durationTicks": 240,
          "midi": 31,
          "name": "G1",
          "ticks": 144000,
          "time": 128.5713,
          "velocity": 1
        },
        {
          "duration": 0.21428549999998836,
          "durationTicks": 240,
          "midi": 28,
          "name": "E1",
          "ticks": 144240,
          "time": 128.78558550000002,
          "velocity": 1
        },
        {
          "duration": 0.21428549999998836,
          "durationTicks": 240,
          "midi": 28,
          "name": "E1",
          "ticks": 144480,
          "time": 128.999871,
          "velocity": 1
        },
        {
          "duration": 0.21428550000001678,
          "durationTicks": 240,
          "midi": 28,
          "name": "E1",
          "ticks": 144720,
          "time": 129.2141565,
          "velocity": 1
        },
        {
          "duration": 0.21428549999998836,
          "durationTicks": 240,
          "midi": 28,
          "name": "E1",
          "ticks": 144960,
          "time": 129.42844200000002,
          "velocity": 1
        },
        {
          "duration": 0.21428550000001678,
          "durationTicks": 240,
          "midi": 28,
          "name": "E1",
          "ticks": 145200,
          "time": 129.6427275,
          "velocity": 1
        },
        {
          "duration": 0.21428549999998836,
          "durationTicks": 240,
          "midi": 28,
          "name": "E1",
          "ticks": 145440,
          "time": 129.85701300000002,
          "velocity": 1
        },
        {
          "duration": 0.21428549999998836,
          "durationTicks": 240,
          "midi": 33,
          "name": "A1",
          "ticks": 145680,
          "time": 130.0712985,
          "velocity": 1
        },
        {
          "duration": 0.21428550000001678,
          "durationTicks": 240,
          "midi": 33,
          "name": "A1",
          "ticks": 145920,
          "time": 130.285584,
          "velocity": 1
        },
        {
          "duration": 0.21428549999998836,
          "durationTicks": 240,
          "midi": 28,
          "name": "E1",
          "ticks": 146160,
          "time": 130.49986950000002,
          "velocity": 1
        },
        {
          "duration": 0.21428550000001678,
          "durationTicks": 240,
          "midi": 28,
          "name": "E1",
          "ticks": 146400,
          "time": 130.714155,
          "velocity": 1
        },
        {
          "duration": 0.21428549999998836,
          "durationTicks": 240,
          "midi": 28,
          "name": "E1",
          "ticks": 146640,
          "time": 130.92844050000002,
          "velocity": 1
        },
        {
          "duration": 0.21428549999998836,
          "durationTicks": 240,
          "midi": 28,
          "name": "E1",
          "ticks": 146880,
          "time": 131.142726,
          "velocity": 1
        },
        {
          "duration": 0.21428550000001678,
          "durationTicks": 240,
          "midi": 28,
          "name": "E1",
          "ticks": 147120,
          "time": 131.3570115,
          "velocity": 1
        },
        {
          "duration": 0.21428549999998836,
          "durationTicks": 240,
          "midi": 28,
          "name": "E1",
          "ticks": 147360,
          "time": 131.57129700000002,
          "velocity": 1
        },
        {
          "duration": 0.21428550000001678,
          "durationTicks": 240,
          "midi": 38,
          "name": "D2",
          "ticks": 147600,
          "time": 131.7855825,
          "velocity": 1
        },
        {
          "duration": 0.21428549999998836,
          "durationTicks": 240,
          "midi": 38,
          "name": "D2",
          "ticks": 147840,
          "time": 131.99986800000002,
          "velocity": 1
        },
        {
          "duration": 0.21428549999998836,
          "durationTicks": 240,
          "midi": 28,
          "name": "E1",
          "ticks": 148080,
          "time": 132.2141535,
          "velocity": 1
        },
        {
          "duration": 0.21428550000001678,
          "durationTicks": 240,
          "midi": 28,
          "name": "E1",
          "ticks": 148320,
          "time": 132.428439,
          "velocity": 1
        },
        {
          "duration": 0.21428549999998836,
          "durationTicks": 240,
          "midi": 28,
          "name": "E1",
          "ticks": 148560,
          "time": 132.6427245,
          "velocity": 1
        },
        {
          "duration": 0.21428550000001678,
          "durationTicks": 240,
          "midi": 28,
          "name": "E1",
          "ticks": 148800,
          "time": 132.85701,
          "velocity": 1
        },
        {
          "duration": 0.21428549999998836,
          "durationTicks": 240,
          "midi": 28,
          "name": "E1",
          "ticks": 149040,
          "time": 133.07129550000002,
          "velocity": 1
        },
        {
          "duration": 0.21428550000001678,
          "durationTicks": 240,
          "midi": 28,
          "name": "E1",
          "ticks": 149280,
          "time": 133.285581,
          "velocity": 1
        },
        {
          "duration": 0.21428549999998836,
          "durationTicks": 240,
          "midi": 28,
          "name": "E1",
          "ticks": 149520,
          "time": 133.49986650000002,
          "velocity": 1
        },
        {
          "duration": 0.21428549999998836,
          "durationTicks": 240,
          "midi": 28,
          "name": "E1",
          "ticks": 149760,
          "time": 133.714152,
          "velocity": 1
        },
        {
          "duration": 0.21428550000001678,
          "durationTicks": 240,
          "midi": 28,
          "name": "E1",
          "ticks": 150000,
          "time": 133.9284375,
          "velocity": 1
        },
        {
          "duration": 0.21428549999998836,
          "durationTicks": 240,
          "midi": 28,
          "name": "E1",
          "ticks": 150240,
          "time": 134.14272300000002,
          "velocity": 1
        },
        {
          "duration": 0.21428550000001678,
          "durationTicks": 240,
          "midi": 28,
          "name": "E1",
          "ticks": 150480,
          "time": 134.3570085,
          "velocity": 1
        },
        {
          "duration": 0.21428549999998836,
          "durationTicks": 240,
          "midi": 28,
          "name": "E1",
          "ticks": 150720,
          "time": 134.57129400000002,
          "velocity": 1
        },
        {
          "duration": 0.21428549999998836,
          "durationTicks": 240,
          "midi": 28,
          "name": "E1",
          "ticks": 150960,
          "time": 134.7855795,
          "velocity": 1
        },
        {
          "duration": 0.21428550000001678,
          "durationTicks": 240,
          "midi": 28,
          "name": "E1",
          "ticks": 151200,
          "time": 134.999865,
          "velocity": 1
        },
        {
          "duration": 0.21428549999998836,
          "durationTicks": 240,
          "midi": 31,
          "name": "G1",
          "ticks": 151440,
          "time": 135.21415050000002,
          "velocity": 1
        },
        {
          "duration": 0.21428550000001678,
          "durationTicks": 240,
          "midi": 31,
          "name": "G1",
          "ticks": 151680,
          "time": 135.428436,
          "velocity": 1
        },
        {
          "duration": 0.21428549999998836,
          "durationTicks": 240,
          "midi": 28,
          "name": "E1",
          "ticks": 151920,
          "time": 135.64272150000002,
          "velocity": 1
        },
        {
          "duration": 0.21428549999998836,
          "durationTicks": 240,
          "midi": 28,
          "name": "E1",
          "ticks": 152160,
          "time": 135.857007,
          "velocity": 1
        },
        {
          "duration": 0.21428550000001678,
          "durationTicks": 240,
          "midi": 28,
          "name": "E1",
          "ticks": 152400,
          "time": 136.0712925,
          "velocity": 1
        },
        {
          "duration": 0.21428549999998836,
          "durationTicks": 240,
          "midi": 28,
          "name": "E1",
          "ticks": 152640,
          "time": 136.28557800000002,
          "velocity": 1
        },
        {
          "duration": 0.21428550000001678,
          "durationTicks": 240,
          "midi": 28,
          "name": "E1",
          "ticks": 152880,
          "time": 136.4998635,
          "velocity": 1
        },
        {
          "duration": 0.21428549999998836,
          "durationTicks": 240,
          "midi": 28,
          "name": "E1",
          "ticks": 153120,
          "time": 136.71414900000002,
          "velocity": 1
        },
        {
          "duration": 0.21428549999998836,
          "durationTicks": 240,
          "midi": 33,
          "name": "A1",
          "ticks": 153360,
          "time": 136.9284345,
          "velocity": 1
        },
        {
          "duration": 0.21428550000001678,
          "durationTicks": 240,
          "midi": 33,
          "name": "A1",
          "ticks": 153600,
          "time": 137.14272,
          "velocity": 1
        },
        {
          "duration": 0.21428549999998836,
          "durationTicks": 240,
          "midi": 28,
          "name": "E1",
          "ticks": 153840,
          "time": 137.3570055,
          "velocity": 1
        },
        {
          "duration": 0.21428550000001678,
          "durationTicks": 240,
          "midi": 28,
          "name": "E1",
          "ticks": 154080,
          "time": 137.571291,
          "velocity": 1
        },
        {
          "duration": 0.21428549999998836,
          "durationTicks": 240,
          "midi": 28,
          "name": "E1",
          "ticks": 154320,
          "time": 137.78557650000002,
          "velocity": 1
        },
        {
          "duration": 0.21428550000001678,
          "durationTicks": 240,
          "midi": 28,
          "name": "E1",
          "ticks": 154560,
          "time": 137.999862,
          "velocity": 1
        },
        {
          "duration": 0.21428549999998836,
          "durationTicks": 240,
          "midi": 28,
          "name": "E1",
          "ticks": 154800,
          "time": 138.21414750000002,
          "velocity": 1
        },
        {
          "duration": 0.21428549999998836,
          "durationTicks": 240,
          "midi": 28,
          "name": "E1",
          "ticks": 155040,
          "time": 138.428433,
          "velocity": 1
        },
        {
          "duration": 0.21428550000001678,
          "durationTicks": 240,
          "midi": 38,
          "name": "D2",
          "ticks": 155280,
          "time": 138.6427185,
          "velocity": 1
        },
        {
          "duration": 0.21428549999998836,
          "durationTicks": 240,
          "midi": 38,
          "name": "D2",
          "ticks": 155520,
          "time": 138.85700400000002,
          "velocity": 1
        },
        {
          "duration": 0.21428550000001678,
          "durationTicks": 240,
          "midi": 28,
          "name": "E1",
          "ticks": 155760,
          "time": 139.0712895,
          "velocity": 1
        },
        {
          "duration": 0.21428549999998836,
          "durationTicks": 240,
          "midi": 28,
          "name": "E1",
          "ticks": 156000,
          "time": 139.28557500000002,
          "velocity": 1
        },
        {
          "duration": 0.21428549999998836,
          "durationTicks": 240,
          "midi": 28,
          "name": "E1",
          "ticks": 156240,
          "time": 139.4998605,
          "velocity": 1
        },
        {
          "duration": 0.21428550000001678,
          "durationTicks": 240,
          "midi": 28,
          "name": "E1",
          "ticks": 156480,
          "time": 139.714146,
          "velocity": 1
        },
        {
          "duration": 0.21428549999998836,
          "durationTicks": 240,
          "midi": 38,
          "name": "D2",
          "ticks": 156720,
          "time": 139.92843150000002,
          "velocity": 1
        },
        {
          "duration": 0.21428550000001678,
          "durationTicks": 240,
          "midi": 38,
          "name": "D2",
          "ticks": 156960,
          "time": 140.142717,
          "velocity": 1
        },
        {
          "duration": 0.21428549999998836,
          "durationTicks": 240,
          "midi": 28,
          "name": "E1",
          "ticks": 157200,
          "time": 140.35700250000002,
          "velocity": 1
        },
        {
          "duration": 0.21428549999998836,
          "durationTicks": 240,
          "midi": 28,
          "name": "E1",
          "ticks": 157440,
          "time": 140.571288,
          "velocity": 1
        },
        {
          "duration": 0.21428550000001678,
          "durationTicks": 240,
          "midi": 28,
          "name": "E1",
          "ticks": 157680,
          "time": 140.7855735,
          "velocity": 1
        },
        {
          "duration": 0.21428549999998836,
          "durationTicks": 240,
          "midi": 28,
          "name": "E1",
          "ticks": 157920,
          "time": 140.99985900000001,
          "velocity": 1
        },
        {
          "duration": 0.21428550000001678,
          "durationTicks": 240,
          "midi": 28,
          "name": "E1",
          "ticks": 158160,
          "time": 141.2141445,
          "velocity": 1
        },
        {
          "duration": 0.21428549999998836,
          "durationTicks": 240,
          "midi": 28,
          "name": "E1",
          "ticks": 158400,
          "time": 141.42843000000002,
          "velocity": 1
        },
        {
          "duration": 0.21428550000001678,
          "durationTicks": 240,
          "midi": 28,
          "name": "E1",
          "ticks": 158640,
          "time": 141.6427155,
          "velocity": 1
        },
        {
          "duration": 0.21428549999998836,
          "durationTicks": 240,
          "midi": 28,
          "name": "E1",
          "ticks": 158880,
          "time": 141.85700100000003,
          "velocity": 1
        },
        {
          "duration": 0.21428549999998836,
          "durationTicks": 240,
          "midi": 28,
          "name": "E1",
          "ticks": 159120,
          "time": 142.0712865,
          "velocity": 1
        },
        {
          "duration": 0.21428550000001678,
          "durationTicks": 240,
          "midi": 28,
          "name": "E1",
          "ticks": 159360,
          "time": 142.285572,
          "velocity": 1
        },
        {
          "duration": 0.21428549999998836,
          "durationTicks": 240,
          "midi": 28,
          "name": "E1",
          "ticks": 159600,
          "time": 142.49985750000002,
          "velocity": 1
        },
        {
          "duration": 0.21428550000001678,
          "durationTicks": 240,
          "midi": 28,
          "name": "E1",
          "ticks": 159840,
          "time": 142.714143,
          "velocity": 1
        },
        {
          "duration": 0.21428549999998836,
          "durationTicks": 240,
          "midi": 28,
          "name": "E1",
          "ticks": 160080,
          "time": 142.92842850000002,
          "velocity": 1
        },
        {
          "duration": 0.21428549999998836,
          "durationTicks": 240,
          "midi": 28,
          "name": "E1",
          "ticks": 160320,
          "time": 143.142714,
          "velocity": 1
        },
        {
          "duration": 0.21428550000001678,
          "durationTicks": 240,
          "midi": 28,
          "name": "E1",
          "ticks": 160560,
          "time": 143.3569995,
          "velocity": 1
        },
        {
          "duration": 0.21428549999998836,
          "durationTicks": 240,
          "midi": 28,
          "name": "E1",
          "ticks": 160800,
          "time": 143.57128500000002,
          "velocity": 1
        },
        {
          "duration": 0.21428550000001678,
          "durationTicks": 240,
          "midi": 28,
          "name": "E1",
          "ticks": 161040,
          "time": 143.7855705,
          "velocity": 1
        },
        {
          "duration": 0.21428549999998836,
          "durationTicks": 240,
          "midi": 28,
          "name": "E1",
          "ticks": 161280,
          "time": 143.99985600000002,
          "velocity": 1
        },
        {
          "duration": 0.21428549999998836,
          "durationTicks": 240,
          "midi": 28,
          "name": "E1",
          "ticks": 161520,
          "time": 144.2141415,
          "velocity": 1
        },
        {
          "duration": 0.21428550000001678,
          "durationTicks": 240,
          "midi": 28,
          "name": "E1",
          "ticks": 161760,
          "time": 144.428427,
          "velocity": 1
        },
        {
          "duration": 0.21428549999998836,
          "durationTicks": 240,
          "midi": 28,
          "name": "E1",
          "ticks": 162000,
          "time": 144.64271250000002,
          "velocity": 1
        },
        {
          "duration": 0.21428550000001678,
          "durationTicks": 240,
          "midi": 28,
          "name": "E1",
          "ticks": 162240,
          "time": 144.856998,
          "velocity": 1
        },
        {
          "duration": 0.21428549999998836,
          "durationTicks": 240,
          "midi": 28,
          "name": "E1",
          "ticks": 162480,
          "time": 145.07128350000002,
          "velocity": 1
        },
        {
          "duration": 0.21428549999998836,
          "durationTicks": 240,
          "midi": 28,
          "name": "E1",
          "ticks": 162720,
          "time": 145.285569,
          "velocity": 1
        },
        {
          "duration": 0.21428550000001678,
          "durationTicks": 240,
          "midi": 28,
          "name": "E1",
          "ticks": 162960,
          "time": 145.4998545,
          "velocity": 1
        },
        {
          "duration": 0.21428549999998836,
          "durationTicks": 240,
          "midi": 28,
          "name": "E1",
          "ticks": 163200,
          "time": 145.71414000000001,
          "velocity": 1
        },
        {
          "duration": 0.21428550000001678,
          "durationTicks": 240,
          "midi": 28,
          "name": "E1",
          "ticks": 163440,
          "time": 145.9284255,
          "velocity": 1
        },
        {
          "duration": 0.21428549999998836,
          "durationTicks": 240,
          "midi": 28,
          "name": "E1",
          "ticks": 163680,
          "time": 146.14271100000002,
          "velocity": 1
        },
        {
          "duration": 0.21428550000001678,
          "durationTicks": 240,
          "midi": 28,
          "name": "E1",
          "ticks": 163920,
          "time": 146.3569965,
          "velocity": 1
        },
        {
          "duration": 0.21428549999998836,
          "durationTicks": 240,
          "midi": 28,
          "name": "E1",
          "ticks": 164160,
          "time": 146.57128200000002,
          "velocity": 1
        },
        {
          "duration": 0.21428549999998836,
          "durationTicks": 240,
          "midi": 38,
          "name": "D2",
          "ticks": 164400,
          "time": 146.7855675,
          "velocity": 1
        },
        {
          "duration": 0.21428550000001678,
          "durationTicks": 240,
          "midi": 38,
          "name": "D2",
          "ticks": 164640,
          "time": 146.999853,
          "velocity": 1
        },
        {
          "duration": 0.21428549999998836,
          "durationTicks": 240,
          "midi": 28,
          "name": "E1",
          "ticks": 164880,
          "time": 147.21413850000002,
          "velocity": 1
        },
        {
          "duration": 0.21428550000001678,
          "durationTicks": 240,
          "midi": 28,
          "name": "E1",
          "ticks": 165120,
          "time": 147.428424,
          "velocity": 1
        },
        {
          "duration": 0.21428549999998836,
          "durationTicks": 240,
          "midi": 28,
          "name": "E1",
          "ticks": 165360,
          "time": 147.64270950000002,
          "velocity": 1
        },
        {
          "duration": 0.21428549999998836,
          "durationTicks": 240,
          "midi": 28,
          "name": "E1",
          "ticks": 165600,
          "time": 147.856995,
          "velocity": 1
        },
        {
          "duration": 0.21428550000001678,
          "durationTicks": 240,
          "midi": 28,
          "name": "E1",
          "ticks": 165840,
          "time": 148.0712805,
          "velocity": 1
        },
        {
          "duration": 0.21428549999998836,
          "durationTicks": 240,
          "midi": 28,
          "name": "E1",
          "ticks": 166080,
          "time": 148.28556600000002,
          "velocity": 1
        },
        {
          "duration": 0.21428550000001678,
          "durationTicks": 240,
          "midi": 28,
          "name": "E1",
          "ticks": 166320,
          "time": 148.4998515,
          "velocity": 1
        },
        {
          "duration": 0.21428549999998836,
          "durationTicks": 240,
          "midi": 28,
          "name": "E1",
          "ticks": 166560,
          "time": 148.71413700000002,
          "velocity": 1
        },
        {
          "duration": 0.21428549999998836,
          "durationTicks": 240,
          "midi": 28,
          "name": "E1",
          "ticks": 166800,
          "time": 148.9284225,
          "velocity": 1
        },
        {
          "duration": 0.21428550000001678,
          "durationTicks": 240,
          "midi": 28,
          "name": "E1",
          "ticks": 167040,
          "time": 149.142708,
          "velocity": 1
        },
        {
          "duration": 0.21428549999998836,
          "durationTicks": 240,
          "midi": 28,
          "name": "E1",
          "ticks": 167280,
          "time": 149.35699350000002,
          "velocity": 1
        },
        {
          "duration": 0.21428550000001678,
          "durationTicks": 240,
          "midi": 28,
          "name": "E1",
          "ticks": 167520,
          "time": 149.571279,
          "velocity": 1
        },
        {
          "duration": 0.21428549999998836,
          "durationTicks": 240,
          "midi": 28,
          "name": "E1",
          "ticks": 167760,
          "time": 149.78556450000002,
          "velocity": 1
        },
        {
          "duration": 0.21428550000001678,
          "durationTicks": 240,
          "midi": 28,
          "name": "E1",
          "ticks": 168000,
          "time": 149.99985,
          "velocity": 1
        },
        {
          "duration": 0.21428549999998836,
          "durationTicks": 240,
          "midi": 28,
          "name": "E1",
          "ticks": 168240,
          "time": 150.21413550000003,
          "velocity": 1
        },
        {
          "duration": 0.21428549999998836,
          "durationTicks": 240,
          "midi": 28,
          "name": "E1",
          "ticks": 168480,
          "time": 150.42842100000001,
          "velocity": 1
        },
        {
          "duration": 0.21428550000001678,
          "durationTicks": 240,
          "midi": 28,
          "name": "E1",
          "ticks": 168720,
          "time": 150.6427065,
          "velocity": 1
        },
        {
          "duration": 0.21428549999998836,
          "durationTicks": 240,
          "midi": 28,
          "name": "E1",
          "ticks": 168960,
          "time": 150.85699200000002,
          "velocity": 1
        },
        {
          "duration": 0.21428550000001678,
          "durationTicks": 240,
          "midi": 28,
          "name": "E1",
          "ticks": 169200,
          "time": 151.0712775,
          "velocity": 1
        },
        {
          "duration": 0.21428549999998836,
          "durationTicks": 240,
          "midi": 28,
          "name": "E1",
          "ticks": 169440,
          "time": 151.28556300000002,
          "velocity": 1
        },
        {
          "duration": 0.21428549999998836,
          "durationTicks": 240,
          "midi": 28,
          "name": "E1",
          "ticks": 169680,
          "time": 151.4998485,
          "velocity": 1
        },
        {
          "duration": 0.21428550000001678,
          "durationTicks": 240,
          "midi": 28,
          "name": "E1",
          "ticks": 169920,
          "time": 151.714134,
          "velocity": 1
        },
        {
          "duration": 0.21428549999998836,
          "durationTicks": 240,
          "midi": 28,
          "name": "E1",
          "ticks": 170160,
          "time": 151.92841950000002,
          "velocity": 1
        },
        {
          "duration": 0.21428550000001678,
          "durationTicks": 240,
          "midi": 28,
          "name": "E1",
          "ticks": 170400,
          "time": 152.142705,
          "velocity": 1
        },
        {
          "duration": 0.21428549999998836,
          "durationTicks": 240,
          "midi": 28,
          "name": "E1",
          "ticks": 170640,
          "time": 152.35699050000002,
          "velocity": 1
        },
        {
          "duration": 0.21428549999998836,
          "durationTicks": 240,
          "midi": 28,
          "name": "E1",
          "ticks": 170880,
          "time": 152.571276,
          "velocity": 1
        },
        {
          "duration": 0.21428550000001678,
          "durationTicks": 240,
          "midi": 28,
          "name": "E1",
          "ticks": 171120,
          "time": 152.7855615,
          "velocity": 1
        },
        {
          "duration": 0.21428549999998836,
          "durationTicks": 240,
          "midi": 28,
          "name": "E1",
          "ticks": 171360,
          "time": 152.99984700000002,
          "velocity": 1
        },
        {
          "duration": 0.21428550000001678,
          "durationTicks": 240,
          "midi": 28,
          "name": "E1",
          "ticks": 171600,
          "time": 153.2141325,
          "velocity": 1
        },
        {
          "duration": 0.21428549999998836,
          "durationTicks": 240,
          "midi": 28,
          "name": "E1",
          "ticks": 171840,
          "time": 153.42841800000002,
          "velocity": 1
        },
        {
          "duration": 0.21428549999998836,
          "durationTicks": 240,
          "midi": 38,
          "name": "D2",
          "ticks": 172080,
          "time": 153.6427035,
          "velocity": 1
        },
        {
          "duration": 0.21428550000001678,
          "durationTicks": 240,
          "midi": 38,
          "name": "D2",
          "ticks": 172320,
          "time": 153.856989,
          "velocity": 1
        },
        {
          "duration": 0.21428549999998836,
          "durationTicks": 240,
          "midi": 28,
          "name": "E1",
          "ticks": 172560,
          "time": 154.07127450000002,
          "velocity": 1
        },
        {
          "duration": 0.21428550000001678,
          "durationTicks": 240,
          "midi": 28,
          "name": "E1",
          "ticks": 172800,
          "time": 154.28556,
          "velocity": 1
        },
        {
          "duration": 0.21428549999998836,
          "durationTicks": 240,
          "midi": 28,
          "name": "E1",
          "ticks": 173040,
          "time": 154.49984550000002,
          "velocity": 1
        },
        {
          "duration": 0.21428550000001678,
          "durationTicks": 240,
          "midi": 28,
          "name": "E1",
          "ticks": 173280,
          "time": 154.714131,
          "velocity": 1
        },
        {
          "duration": 0.21428549999998836,
          "durationTicks": 240,
          "midi": 28,
          "name": "E1",
          "ticks": 173520,
          "time": 154.92841650000003,
          "velocity": 1
        },
        {
          "duration": 0.21428549999998836,
          "durationTicks": 240,
          "midi": 28,
          "name": "E1",
          "ticks": 173760,
          "time": 155.142702,
          "velocity": 1
        },
        {
          "duration": 0.21428550000001678,
          "durationTicks": 240,
          "midi": 28,
          "name": "E1",
          "ticks": 174000,
          "time": 155.3569875,
          "velocity": 1
        },
        {
          "duration": 0.21428549999998836,
          "durationTicks": 240,
          "midi": 28,
          "name": "E1",
          "ticks": 174240,
          "time": 155.57127300000002,
          "velocity": 1
        },
        {
          "duration": 0.21428550000001678,
          "durationTicks": 240,
          "midi": 28,
          "name": "E1",
          "ticks": 174480,
          "time": 155.7855585,
          "velocity": 1
        },
        {
          "duration": 0.21428549999998836,
          "durationTicks": 240,
          "midi": 28,
          "name": "E1",
          "ticks": 174720,
          "time": 155.99984400000002,
          "velocity": 1
        },
        {
          "duration": 0.21428549999998836,
          "durationTicks": 240,
          "midi": 28,
          "name": "E1",
          "ticks": 174960,
          "time": 156.2141295,
          "velocity": 1
        },
        {
          "duration": 0.21428550000001678,
          "durationTicks": 240,
          "midi": 28,
          "name": "E1",
          "ticks": 175200,
          "time": 156.428415,
          "velocity": 1
        },
        {
          "duration": 0.21428549999998836,
          "durationTicks": 240,
          "midi": 28,
          "name": "E1",
          "ticks": 175440,
          "time": 156.64270050000002,
          "velocity": 1
        },
        {
          "duration": 0.21428550000001678,
          "durationTicks": 240,
          "midi": 28,
          "name": "E1",
          "ticks": 175680,
          "time": 156.856986,
          "velocity": 1
        },
        {
          "duration": 0.21428549999998836,
          "durationTicks": 240,
          "midi": 28,
          "name": "E1",
          "ticks": 175920,
          "time": 157.07127150000002,
          "velocity": 1
        },
        {
          "duration": 0.21428549999998836,
          "durationTicks": 240,
          "midi": 28,
          "name": "E1",
          "ticks": 176160,
          "time": 157.285557,
          "velocity": 1
        },
        {
          "duration": 0.21428550000001678,
          "durationTicks": 240,
          "midi": 28,
          "name": "E1",
          "ticks": 176400,
          "time": 157.4998425,
          "velocity": 1
        },
        {
          "duration": 0.21428549999998836,
          "durationTicks": 240,
          "midi": 28,
          "name": "E1",
          "ticks": 176640,
          "time": 157.71412800000002,
          "velocity": 1
        },
        {
          "duration": 0.21428550000001678,
          "durationTicks": 240,
          "midi": 28,
          "name": "E1",
          "ticks": 176880,
          "time": 157.9284135,
          "velocity": 1
        },
        {
          "duration": 0.21428549999998836,
          "durationTicks": 240,
          "midi": 28,
          "name": "E1",
          "ticks": 177120,
          "time": 158.14269900000002,
          "velocity": 1
        },
        {
          "duration": 0.21428550000001678,
          "durationTicks": 240,
          "midi": 28,
          "name": "E1",
          "ticks": 177360,
          "time": 158.3569845,
          "velocity": 1
        },
        {
          "duration": 0.21428549999998836,
          "durationTicks": 240,
          "midi": 28,
          "name": "E1",
          "ticks": 177600,
          "time": 158.57127000000003,
          "velocity": 1
        },
        {
          "duration": 0.21428549999998836,
          "durationTicks": 240,
          "midi": 28,
          "name": "E1",
          "ticks": 177840,
          "time": 158.78555550000002,
          "velocity": 1
        },
        {
          "duration": 0.21428550000001678,
          "durationTicks": 240,
          "midi": 28,
          "name": "E1",
          "ticks": 178080,
          "time": 158.999841,
          "velocity": 1
        },
        {
          "duration": 0.21428549999998836,
          "durationTicks": 240,
          "midi": 28,
          "name": "E1",
          "ticks": 178320,
          "time": 159.21412650000002,
          "velocity": 1
        },
        {
          "duration": 0.21428550000001678,
          "durationTicks": 240,
          "midi": 28,
          "name": "E1",
          "ticks": 178560,
          "time": 159.428412,
          "velocity": 1
        },
        {
          "duration": 0.21428549999998836,
          "durationTicks": 240,
          "midi": 28,
          "name": "E1",
          "ticks": 178800,
          "time": 159.64269750000003,
          "velocity": 1
        },
        {
          "duration": 0.21428549999998836,
          "durationTicks": 240,
          "midi": 28,
          "name": "E1",
          "ticks": 179040,
          "time": 159.856983,
          "velocity": 1
        },
        {
          "duration": 0.21428550000001678,
          "durationTicks": 240,
          "midi": 28,
          "name": "E1",
          "ticks": 179280,
          "time": 160.0712685,
          "velocity": 1
        },
        {
          "duration": 0.21428549999998836,
          "durationTicks": 240,
          "midi": 28,
          "name": "E1",
          "ticks": 179520,
          "time": 160.28555400000002,
          "velocity": 1
        },
        {
          "duration": 0.21428550000001678,
          "durationTicks": 240,
          "midi": 38,
          "name": "D2",
          "ticks": 179760,
          "time": 160.4998395,
          "velocity": 1
        },
        {
          "duration": 0.21428549999998836,
          "durationTicks": 240,
          "midi": 38,
          "name": "D2",
          "ticks": 180000,
          "time": 160.71412500000002,
          "velocity": 1
        },
        {
          "duration": 0.21428549999998836,
          "durationTicks": 240,
          "midi": 28,
          "name": "E1",
          "ticks": 180240,
          "time": 160.9284105,
          "velocity": 1
        },
        {
          "duration": 0.21428550000001678,
          "durationTicks": 240,
          "midi": 28,
          "name": "E1",
          "ticks": 180480,
          "time": 161.142696,
          "velocity": 1
        },
        {
          "duration": 0.21428549999998836,
          "durationTicks": 240,
          "midi": 28,
          "name": "E1",
          "ticks": 180720,
          "time": 161.35698150000002,
          "velocity": 1
        },
        {
          "duration": 0.21428550000001678,
          "durationTicks": 240,
          "midi": 28,
          "name": "E1",
          "ticks": 180960,
          "time": 161.571267,
          "velocity": 1
        },
        {
          "duration": 0.21428549999998836,
          "durationTicks": 240,
          "midi": 28,
          "name": "E1",
          "ticks": 181200,
          "time": 161.78555250000002,
          "velocity": 1
        },
        {
          "duration": 0.21428549999998836,
          "durationTicks": 240,
          "midi": 28,
          "name": "E1",
          "ticks": 181440,
          "time": 161.999838,
          "velocity": 1
        },
        {
          "duration": 0.21428550000001678,
          "durationTicks": 240,
          "midi": 38,
          "name": "D2",
          "ticks": 181680,
          "time": 162.2141235,
          "velocity": 1
        },
        {
          "duration": 0.21428549999998836,
          "durationTicks": 240,
          "midi": 38,
          "name": "D2",
          "ticks": 181920,
          "time": 162.42840900000002,
          "velocity": 1
        },
        {
          "duration": 0.21428550000001678,
          "durationTicks": 240,
          "midi": 28,
          "name": "E1",
          "ticks": 182160,
          "time": 162.6426945,
          "velocity": 1
        },
        {
          "duration": 0.21428549999998836,
          "durationTicks": 240,
          "midi": 28,
          "name": "E1",
          "ticks": 182400,
          "time": 162.85698000000002,
          "velocity": 1
        },
        {
          "duration": 0.21428550000001678,
          "durationTicks": 240,
          "midi": 28,
          "name": "E1",
          "ticks": 182640,
          "time": 163.0712655,
          "velocity": 1
        },
        {
          "duration": 0.21428549999998836,
          "durationTicks": 240,
          "midi": 28,
          "name": "E1",
          "ticks": 182880,
          "time": 163.28555100000003,
          "velocity": 1
        },
        {
          "duration": 0.21428549999998836,
          "durationTicks": 240,
          "midi": 28,
          "name": "E1",
          "ticks": 183120,
          "time": 163.49983650000001,
          "velocity": 1
        },
        {
          "duration": 0.21428550000001678,
          "durationTicks": 240,
          "midi": 28,
          "name": "E1",
          "ticks": 183360,
          "time": 163.714122,
          "velocity": 1
        },
        {
          "duration": 0.21428549999998836,
          "durationTicks": 240,
          "midi": 38,
          "name": "D2",
          "ticks": 183600,
          "time": 163.92840750000002,
          "velocity": 1
        },
        {
          "duration": 0.21428550000001678,
          "durationTicks": 240,
          "midi": 38,
          "name": "D2",
          "ticks": 183840,
          "time": 164.142693,
          "velocity": 1
        },
        {
          "duration": 0.21428549999998836,
          "durationTicks": 240,
          "midi": 28,
          "name": "E1",
          "ticks": 184080,
          "time": 164.35697850000003,
          "velocity": 1
        },
        {
          "duration": 0.21428549999998836,
          "durationTicks": 240,
          "midi": 28,
          "name": "E1",
          "ticks": 184320,
          "time": 164.571264,
          "velocity": 1
        },
        {
          "duration": 0.21428550000001678,
          "durationTicks": 240,
          "midi": 28,
          "name": "E1",
          "ticks": 184560,
          "time": 164.7855495,
          "velocity": 1
        },
        {
          "duration": 0.21428549999998836,
          "durationTicks": 240,
          "midi": 28,
          "name": "E1",
          "ticks": 184800,
          "time": 164.99983500000002,
          "velocity": 1
        },
        {
          "duration": 0.21428550000001678,
          "durationTicks": 240,
          "midi": 28,
          "name": "E1",
          "ticks": 185040,
          "time": 165.2141205,
          "velocity": 1
        },
        {
          "duration": 0.21428549999998836,
          "durationTicks": 240,
          "midi": 28,
          "name": "E1",
          "ticks": 185280,
          "time": 165.42840600000002,
          "velocity": 1
        },
        {
          "duration": 0.21428549999998836,
          "durationTicks": 240,
          "midi": 38,
          "name": "D2",
          "ticks": 185520,
          "time": 165.6426915,
          "velocity": 1
        },
        {
          "duration": 0.21428550000001678,
          "durationTicks": 240,
          "midi": 38,
          "name": "D2",
          "ticks": 185760,
          "time": 165.856977,
          "velocity": 1
        },
        {
          "duration": 0.21428549999998836,
          "durationTicks": 240,
          "midi": 28,
          "name": "E1",
          "ticks": 186000,
          "time": 166.07126250000002,
          "velocity": 1
        },
        {
          "duration": 0.21428550000001678,
          "durationTicks": 240,
          "midi": 28,
          "name": "E1",
          "ticks": 186240,
          "time": 166.285548,
          "velocity": 1
        },
        {
          "duration": 0.21428549999998836,
          "durationTicks": 240,
          "midi": 28,
          "name": "E1",
          "ticks": 186480,
          "time": 166.49983350000002,
          "velocity": 1
        },
        {
          "duration": 0.21428550000001678,
          "durationTicks": 240,
          "midi": 28,
          "name": "E1",
          "ticks": 186720,
          "time": 166.714119,
          "velocity": 1
        },
        {
          "duration": 0.21428549999998836,
          "durationTicks": 240,
          "midi": 28,
          "name": "E1",
          "ticks": 186960,
          "time": 166.92840450000003,
          "velocity": 1
        },
        {
          "duration": 0.42857100000000514,
          "durationTicks": 480,
          "midi": 28,
          "name": "E1",
          "ticks": 187200,
          "time": 167.14269000000002,
          "velocity": 1
        },
        {
          "duration": 0.4285709999999767,
          "durationTicks": 480,
          "midi": 33,
          "name": "A1",
          "ticks": 188160,
          "time": 167.99983200000003,
          "velocity": 1
        },
        {
          "duration": 0.42857100000000514,
          "durationTicks": 480,
          "midi": 33,
          "name": "A1",
          "ticks": 188640,
          "time": 168.428403,
          "velocity": 1
        },
        {
          "duration": 0.42857100000000514,
          "durationTicks": 480,
          "midi": 33,
          "name": "A1",
          "ticks": 189120,
          "time": 168.856974,
          "velocity": 1
        },
        {
          "duration": 0.42857100000000514,
          "durationTicks": 480,
          "midi": 33,
          "name": "A1",
          "ticks": 189600,
          "time": 169.285545,
          "velocity": 1
        },
        {
          "duration": 0.42857100000000514,
          "durationTicks": 480,
          "midi": 33,
          "name": "A1",
          "ticks": 190080,
          "time": 169.71411600000002,
          "velocity": 1
        },
        {
          "duration": 0.4285709999999767,
          "durationTicks": 480,
          "midi": 31,
          "name": "G1",
          "ticks": 190560,
          "time": 170.14268700000002,
          "velocity": 1
        },
        {
          "duration": 0.8571420000000103,
          "durationTicks": 960,
          "midi": 33,
          "name": "A1",
          "ticks": 191040,
          "time": 170.571258,
          "velocity": 1
        },
        {
          "duration": 0.42857100000000514,
          "durationTicks": 480,
          "midi": 28,
          "name": "E1",
          "ticks": 192000,
          "time": 171.4284,
          "velocity": 1
        },
        {
          "duration": 0.42857100000000514,
          "durationTicks": 480,
          "midi": 28,
          "name": "E1",
          "ticks": 192480,
          "time": 171.85697100000002,
          "velocity": 1
        },
        {
          "duration": 0.42857100000000514,
          "durationTicks": 480,
          "midi": 28,
          "name": "E1",
          "ticks": 192960,
          "time": 172.28554200000002,
          "velocity": 1
        },
        {
          "duration": 0.4285709999999767,
          "durationTicks": 480,
          "midi": 28,
          "name": "E1",
          "ticks": 193440,
          "time": 172.71411300000003,
          "velocity": 1
        },
        {
          "duration": 0.42857100000000514,
          "durationTicks": 480,
          "midi": 28,
          "name": "E1",
          "ticks": 193920,
          "time": 173.142684,
          "velocity": 1
        },
        {
          "duration": 0.42857100000000514,
          "durationTicks": 480,
          "midi": 38,
          "name": "D2",
          "ticks": 194400,
          "time": 173.571255,
          "velocity": 1
        },
        {
          "duration": 0.42857100000000514,
          "durationTicks": 480,
          "midi": 40,
          "name": "E2",
          "ticks": 194880,
          "time": 173.999826,
          "velocity": 1
        },
        {
          "duration": 0.42857100000000514,
          "durationTicks": 480,
          "midi": 28,
          "name": "E1",
          "ticks": 195360,
          "time": 174.42839700000002,
          "velocity": 1
        },
        {
          "duration": 0.42857100000000514,
          "durationTicks": 480,
          "midi": 33,
          "name": "A1",
          "ticks": 195840,
          "time": 174.85696800000002,
          "velocity": 1
        },
        {
          "duration": 0.4285709999999767,
          "durationTicks": 480,
          "midi": 33,
          "name": "A1",
          "ticks": 196320,
          "time": 175.28553900000003,
          "velocity": 1
        },
        {
          "duration": 0.42857100000000514,
          "durationTicks": 480,
          "midi": 33,
          "name": "A1",
          "ticks": 196800,
          "time": 175.71411,
          "velocity": 1
        },
        {
          "duration": 0.42857100000000514,
          "durationTicks": 480,
          "midi": 33,
          "name": "A1",
          "ticks": 197280,
          "time": 176.142681,
          "velocity": 1
        },
        {
          "duration": 0.42857100000000514,
          "durationTicks": 480,
          "midi": 33,
          "name": "A1",
          "ticks": 197760,
          "time": 176.57125200000002,
          "velocity": 1
        },
        {
          "duration": 0.42857100000000514,
          "durationTicks": 480,
          "midi": 31,
          "name": "G1",
          "ticks": 198240,
          "time": 176.99982300000002,
          "velocity": 1
        },
        {
          "duration": 0.8571419999999819,
          "durationTicks": 960,
          "midi": 33,
          "name": "A1",
          "ticks": 198720,
          "time": 177.42839400000003,
          "velocity": 1
        },
        {
          "duration": 0.42857100000000514,
          "durationTicks": 480,
          "midi": 28,
          "name": "E1",
          "ticks": 199680,
          "time": 178.285536,
          "velocity": 1
        },
        {
          "duration": 0.42857100000000514,
          "durationTicks": 480,
          "midi": 28,
          "name": "E1",
          "ticks": 200160,
          "time": 178.714107,
          "velocity": 1
        },
        {
          "duration": 0.42857100000000514,
          "durationTicks": 480,
          "midi": 28,
          "name": "E1",
          "ticks": 200640,
          "time": 179.14267800000002,
          "velocity": 1
        },
        {
          "duration": 0.42857100000000514,
          "durationTicks": 480,
          "midi": 28,
          "name": "E1",
          "ticks": 201120,
          "time": 179.57124900000002,
          "velocity": 1
        },
        {
          "duration": 0.4285709999999767,
          "durationTicks": 480,
          "midi": 28,
          "name": "E1",
          "ticks": 201600,
          "time": 179.99982000000003,
          "velocity": 1
        },
        {
          "duration": 0.42857100000000514,
          "durationTicks": 480,
          "midi": 28,
          "name": "E1",
          "ticks": 202080,
          "time": 180.428391,
          "velocity": 1
        },
        {
          "duration": 0.42857100000000514,
          "durationTicks": 480,
          "midi": 28,
          "name": "E1",
          "ticks": 202560,
          "time": 180.856962,
          "velocity": 1
        },
        {
          "duration": 0.21428549999998836,
          "durationTicks": 240,
          "midi": 28,
          "name": "E1",
          "ticks": 203040,
          "time": 181.28553300000002,
          "velocity": 1
        },
        {
          "duration": 0.42857100000000514,
          "durationTicks": 480,
          "midi": 31,
          "name": "G1",
          "ticks": 203280,
          "time": 181.4998185,
          "velocity": 1
        },
        {
          "duration": 0.42857100000000514,
          "durationTicks": 480,
          "midi": 28,
          "name": "E1",
          "ticks": 203760,
          "time": 181.9283895,
          "velocity": 1
        },
        {
          "duration": 0.42857100000000514,
          "durationTicks": 480,
          "midi": 28,
          "name": "E1",
          "ticks": 204240,
          "time": 182.3569605,
          "velocity": 1
        },
        {
          "duration": 0.42857100000000514,
          "durationTicks": 480,
          "midi": 28,
          "name": "E1",
          "ticks": 204720,
          "time": 182.78553150000002,
          "velocity": 1
        },
        {
          "duration": 0.42857100000000514,
          "durationTicks": 480,
          "midi": 33,
          "name": "A1",
          "ticks": 205200,
          "time": 183.21410250000002,
          "velocity": 1
        },
        {
          "duration": 0.4285709999999767,
          "durationTicks": 480,
          "midi": 28,
          "name": "E1",
          "ticks": 205680,
          "time": 183.64267350000003,
          "velocity": 1
        },
        {
          "duration": 0.42857100000000514,
          "durationTicks": 480,
          "midi": 28,
          "name": "E1",
          "ticks": 206160,
          "time": 184.0712445,
          "velocity": 1
        },
        {
          "duration": 0.6428564999999935,
          "durationTicks": 720,
          "midi": 28,
          "name": "E1",
          "ticks": 206640,
          "time": 184.4998155,
          "velocity": 1
        },
        {
          "duration": 0.42857100000000514,
          "durationTicks": 480,
          "midi": 28,
          "name": "E1",
          "ticks": 207360,
          "time": 185.142672,
          "velocity": 1
        },
        {
          "duration": 0.42857100000000514,
          "durationTicks": 480,
          "midi": 38,
          "name": "D2",
          "ticks": 207840,
          "time": 185.571243,
          "velocity": 1
        },
        {
          "duration": 0.42857100000000514,
          "durationTicks": 480,
          "midi": 40,
          "name": "E2",
          "ticks": 208320,
          "time": 185.99981400000001,
          "velocity": 1
        },
        {
          "duration": 0.4285709999999767,
          "durationTicks": 480,
          "midi": 28,
          "name": "E1",
          "ticks": 209280,
          "time": 186.85695600000003,
          "velocity": 1
        },
        {
          "duration": 0.42857100000000514,
          "durationTicks": 480,
          "midi": 28,
          "name": "E1",
          "ticks": 209760,
          "time": 187.285527,
          "velocity": 1
        },
        {
          "duration": 0.42857100000000514,
          "durationTicks": 480,
          "midi": 28,
          "name": "E1",
          "ticks": 210240,
          "time": 187.714098,
          "velocity": 1
        },
        {
          "duration": 0.21428550000001678,
          "durationTicks": 240,
          "midi": 28,
          "name": "E1",
          "ticks": 210720,
          "time": 188.142669,
          "velocity": 1
        },
        {
          "duration": 0.4285709999999767,
          "durationTicks": 480,
          "midi": 31,
          "name": "G1",
          "ticks": 210960,
          "time": 188.35695450000003,
          "velocity": 1
        },
        {
          "duration": 0.42857100000000514,
          "durationTicks": 480,
          "midi": 28,
          "name": "E1",
          "ticks": 211440,
          "time": 188.7855255,
          "velocity": 1
        },
        {
          "duration": 0.42857100000000514,
          "durationTicks": 480,
          "midi": 28,
          "name": "E1",
          "ticks": 211920,
          "time": 189.2140965,
          "velocity": 1
        },
        {
          "duration": 0.42857100000000514,
          "durationTicks": 480,
          "midi": 28,
          "name": "E1",
          "ticks": 212400,
          "time": 189.64266750000002,
          "velocity": 1
        },
        {
          "duration": 0.42857100000000514,
          "durationTicks": 480,
          "midi": 33,
          "name": "A1",
          "ticks": 212880,
          "time": 190.07123850000002,
          "velocity": 1
        },
        {
          "duration": 0.4285709999999767,
          "durationTicks": 480,
          "midi": 28,
          "name": "E1",
          "ticks": 213360,
          "time": 190.49980950000003,
          "velocity": 1
        },
        {
          "duration": 0.42857100000000514,
          "durationTicks": 480,
          "midi": 28,
          "name": "E1",
          "ticks": 213840,
          "time": 190.9283805,
          "velocity": 1
        },
        {
          "duration": 0.6428565000000219,
          "durationTicks": 720,
          "midi": 28,
          "name": "E1",
          "ticks": 214320,
          "time": 191.3569515,
          "velocity": 1
        },
        {
          "duration": 0.4285709999999767,
          "durationTicks": 480,
          "midi": 28,
          "name": "E1",
          "ticks": 215040,
          "time": 191.99980800000003,
          "velocity": 1
        },
        {
          "duration": 0.42857100000000514,
          "durationTicks": 480,
          "midi": 38,
          "name": "D2",
          "ticks": 215520,
          "time": 192.428379,
          "velocity": 1
        },
        {
          "duration": 0.42857100000000514,
          "durationTicks": 480,
          "midi": 40,
          "name": "E2",
          "ticks": 216000,
          "time": 192.85695,
          "velocity": 1
        },
        {
          "duration": 0.42857100000000514,
          "durationTicks": 480,
          "midi": 28,
          "name": "E1",
          "ticks": 216960,
          "time": 193.71409200000002,
          "velocity": 1
        },
        {
          "duration": 0.4285709999999767,
          "durationTicks": 480,
          "midi": 28,
          "name": "E1",
          "ticks": 217440,
          "time": 194.14266300000003,
          "velocity": 1
        },
        {
          "duration": 0.42857100000000514,
          "durationTicks": 480,
          "midi": 28,
          "name": "E1",
          "ticks": 217920,
          "time": 194.571234,
          "velocity": 1
        },
        {
          "duration": 0.21428550000001678,
          "durationTicks": 240,
          "midi": 28,
          "name": "E1",
          "ticks": 218400,
          "time": 194.999805,
          "velocity": 1
        },
        {
          "duration": 0.4285709999999767,
          "durationTicks": 480,
          "midi": 31,
          "name": "G1",
          "ticks": 218640,
          "time": 195.21409050000003,
          "velocity": 1
        },
        {
          "duration": 0.42857100000000514,
          "durationTicks": 480,
          "midi": 28,
          "name": "E1",
          "ticks": 219120,
          "time": 195.6426615,
          "velocity": 1
        },
        {
          "duration": 0.42857100000000514,
          "durationTicks": 480,
          "midi": 28,
          "name": "E1",
          "ticks": 219600,
          "time": 196.0712325,
          "velocity": 1
        },
        {
          "duration": 0.42857100000000514,
          "durationTicks": 480,
          "midi": 28,
          "name": "E1",
          "ticks": 220080,
          "time": 196.4998035,
          "velocity": 1
        },
        {
          "duration": 0.42857100000000514,
          "durationTicks": 480,
          "midi": 33,
          "name": "A1",
          "ticks": 220560,
          "time": 196.92837450000002,
          "velocity": 1
        },
        {
          "duration": 0.42857100000000514,
          "durationTicks": 480,
          "midi": 28,
          "name": "E1",
          "ticks": 221040,
          "time": 197.35694550000002,
          "velocity": 1
        },
        {
          "duration": 0.4285709999999767,
          "durationTicks": 480,
          "midi": 28,
          "name": "E1",
          "ticks": 221520,
          "time": 197.78551650000003,
          "velocity": 1
        },
        {
          "duration": 0.6428565000000219,
          "durationTicks": 720,
          "midi": 28,
          "name": "E1",
          "ticks": 222000,
          "time": 198.2140875,
          "velocity": 1
        },
        {
          "duration": 0.4285709999999767,
          "durationTicks": 480,
          "midi": 28,
          "name": "E1",
          "ticks": 222720,
          "time": 198.85694400000003,
          "velocity": 1
        },
        {
          "duration": 0.42857100000000514,
          "durationTicks": 480,
          "midi": 38,
          "name": "D2",
          "ticks": 223200,
          "time": 199.285515,
          "velocity": 1
        },
        {
          "duration": 0.42857100000000514,
          "durationTicks": 480,
          "midi": 40,
          "name": "E2",
          "ticks": 223680,
          "time": 199.714086,
          "velocity": 1
        }
      ]
    },
    {
      "channel": 0,
      "controlChanges": {},
      "pitchBends": [],
      "instrument": {
        "family": "bass",
        "number": 34,
        "name": "electric bass (pick)"
      },
      "name": "",
      "notes": []
    },
    {
      "channel": 0,
      "controlChanges": {},
      "pitchBends": [],
      "instrument": {
        "family": "piano",
        "number": 0,
        "name": "acoustic grand piano"
      },
      "name": "Percussion",
      "notes": [],
      "endOfTrackTicks": 224160
    },
    {
      "channel": 0,
      "controlChanges": {
        "7": [
          {
            "number": 7,
            "ticks": 0,
            "time": 0,
            "value": 1
          },
          {
            "number": 7,
            "ticks": 0,
            "time": 0,
            "value": 1
          }
        ],
        "10": [
          {
            "number": 10,
            "ticks": 0,
            "time": 0,
            "value": 0.5039370078740157
          },
          {
            "number": 10,
            "ticks": 0,
            "time": 0,
            "value": 0.5039370078740157
          }
        ],
        "91": [
          {
            "number": 91,
            "ticks": 0,
            "time": 0,
            "value": 0
          },
          {
            "number": 91,
            "ticks": 0,
            "time": 0,
            "value": 0
          }
        ],
        "93": [
          {
            "number": 93,
            "ticks": 0,
            "time": 0,
            "value": 0
          },
          {
            "number": 93,
            "ticks": 0,
            "time": 0,
            "value": 0
          }
        ]
      },
      "pitchBends": [],
      "instrument": {
        "family": "piano",
        "number": 0,
        "name": "acoustic grand piano"
      },
      "name": "",
      "notes": []
    },
    {
      "channel": 9,
      "controlChanges": {},
      "pitchBends": [],
      "instrument": {
        "family": "drums",
        "number": 24,
        "name": "electronic kit"
      },
      "name": "",
      "notes": [
        {
          "duration": 0.21428550000000002,
          "durationTicks": 240,
          "midi": 42,
          "name": "F#2",
          "ticks": 0,
          "time": 0,
          "velocity": 1
        },
        {
          "duration": 0.21428550000000002,
          "durationTicks": 240,
          "midi": 35,
          "name": "B1",
          "ticks": 0,
          "time": 0,
          "velocity": 1
        },
        {
          "duration": 0.21428550000000002,
          "durationTicks": 240,
          "midi": 42,
          "name": "F#2",
          "ticks": 240,
          "time": 0.21428550000000002,
          "velocity": 1
        },
        {
          "duration": 0.21428550000000002,
          "durationTicks": 240,
          "midi": 42,
          "name": "F#2",
          "ticks": 480,
          "time": 0.42857100000000004,
          "velocity": 1
        },
        {
          "duration": 0.21428550000000002,
          "durationTicks": 240,
          "midi": 38,
          "name": "D2",
          "ticks": 480,
          "time": 0.42857100000000004,
          "velocity": 1
        },
        {
          "duration": 0.21428550000000002,
          "durationTicks": 240,
          "midi": 42,
          "name": "F#2",
          "ticks": 720,
          "time": 0.6428565,
          "velocity": 1
        },
        {
          "duration": 0.2142854999999999,
          "durationTicks": 240,
          "midi": 42,
          "name": "F#2",
          "ticks": 960,
          "time": 0.8571420000000001,
          "velocity": 1
        },
        {
          "duration": 0.21428550000000013,
          "durationTicks": 240,
          "midi": 42,
          "name": "F#2",
          "ticks": 1200,
          "time": 1.0714275,
          "velocity": 1
        },
        {
          "duration": 0.21428550000000013,
          "durationTicks": 240,
          "midi": 35,
          "name": "B1",
          "ticks": 1200,
          "time": 1.0714275,
          "velocity": 1
        },
        {
          "duration": 0.21428550000000013,
          "durationTicks": 240,
          "midi": 42,
          "name": "F#2",
          "ticks": 1440,
          "time": 1.285713,
          "velocity": 1
        },
        {
          "duration": 0.21428550000000013,
          "durationTicks": 240,
          "midi": 38,
          "name": "D2",
          "ticks": 1440,
          "time": 1.285713,
          "velocity": 1
        },
        {
          "duration": 0.2142854999999999,
          "durationTicks": 240,
          "midi": 42,
          "name": "F#2",
          "ticks": 1680,
          "time": 1.4999985000000002,
          "velocity": 1
        },
        {
          "duration": 0.2142854999999999,
          "durationTicks": 240,
          "midi": 42,
          "name": "F#2",
          "ticks": 1920,
          "time": 1.7142840000000001,
          "velocity": 1
        },
        {
          "duration": 0.2142854999999999,
          "durationTicks": 240,
          "midi": 35,
          "name": "B1",
          "ticks": 1920,
          "time": 1.7142840000000001,
          "velocity": 1
        },
        {
          "duration": 0.2142854999999999,
          "durationTicks": 240,
          "midi": 42,
          "name": "F#2",
          "ticks": 2160,
          "time": 1.9285695,
          "velocity": 1
        },
        {
          "duration": 0.21428550000000035,
          "durationTicks": 240,
          "midi": 42,
          "name": "F#2",
          "ticks": 2400,
          "time": 2.142855,
          "velocity": 1
        },
        {
          "duration": 0.21428550000000035,
          "durationTicks": 240,
          "midi": 38,
          "name": "D2",
          "ticks": 2400,
          "time": 2.142855,
          "velocity": 1
        },
        {
          "duration": 0.2142854999999999,
          "durationTicks": 240,
          "midi": 42,
          "name": "F#2",
          "ticks": 2640,
          "time": 2.3571405000000003,
          "velocity": 1
        },
        {
          "duration": 0.2142854999999999,
          "durationTicks": 240,
          "midi": 42,
          "name": "F#2",
          "ticks": 2880,
          "time": 2.571426,
          "velocity": 1
        },
        {
          "duration": 0.21428550000000035,
          "durationTicks": 240,
          "midi": 42,
          "name": "F#2",
          "ticks": 3120,
          "time": 2.7857115,
          "velocity": 1
        },
        {
          "duration": 0.21428550000000035,
          "durationTicks": 240,
          "midi": 35,
          "name": "B1",
          "ticks": 3120,
          "time": 2.7857115,
          "velocity": 1
        },
        {
          "duration": 0.2142854999999999,
          "durationTicks": 240,
          "midi": 42,
          "name": "F#2",
          "ticks": 3360,
          "time": 2.9999970000000005,
          "velocity": 1
        },
        {
          "duration": 0.2142854999999999,
          "durationTicks": 240,
          "midi": 38,
          "name": "D2",
          "ticks": 3360,
          "time": 2.9999970000000005,
          "velocity": 1
        },
        {
          "duration": 0.2142854999999999,
          "durationTicks": 240,
          "midi": 42,
          "name": "F#2",
          "ticks": 3600,
          "time": 3.2142825000000004,
          "velocity": 1
        },
        {
          "duration": 0.2142854999999999,
          "durationTicks": 240,
          "midi": 42,
          "name": "F#2",
          "ticks": 3840,
          "time": 3.4285680000000003,
          "velocity": 1
        },
        {
          "duration": 0.2142854999999999,
          "durationTicks": 240,
          "midi": 35,
          "name": "B1",
          "ticks": 3840,
          "time": 3.4285680000000003,
          "velocity": 1
        },
        {
          "duration": 0.2142854999999999,
          "durationTicks": 240,
          "midi": 42,
          "name": "F#2",
          "ticks": 4080,
          "time": 3.6428535,
          "velocity": 1
        },
        {
          "duration": 0.2142854999999999,
          "durationTicks": 240,
          "midi": 42,
          "name": "F#2",
          "ticks": 4320,
          "time": 3.857139,
          "velocity": 1
        },
        {
          "duration": 0.2142854999999999,
          "durationTicks": 240,
          "midi": 38,
          "name": "D2",
          "ticks": 4320,
          "time": 3.857139,
          "velocity": 1
        },
        {
          "duration": 0.2142854999999999,
          "durationTicks": 240,
          "midi": 42,
          "name": "F#2",
          "ticks": 4560,
          "time": 4.0714245,
          "velocity": 1
        },
        {
          "duration": 0.2142855000000008,
          "durationTicks": 240,
          "midi": 42,
          "name": "F#2",
          "ticks": 4800,
          "time": 4.28571,
          "velocity": 1
        },
        {
          "duration": 0.2142854999999999,
          "durationTicks": 240,
          "midi": 42,
          "name": "F#2",
          "ticks": 5040,
          "time": 4.499995500000001,
          "velocity": 1
        },
        {
          "duration": 0.2142854999999999,
          "durationTicks": 240,
          "midi": 35,
          "name": "B1",
          "ticks": 5040,
          "time": 4.499995500000001,
          "velocity": 1
        },
        {
          "duration": 0.2142854999999999,
          "durationTicks": 240,
          "midi": 42,
          "name": "F#2",
          "ticks": 5280,
          "time": 4.714281000000001,
          "velocity": 1
        },
        {
          "duration": 0.2142854999999999,
          "durationTicks": 240,
          "midi": 38,
          "name": "D2",
          "ticks": 5280,
          "time": 4.714281000000001,
          "velocity": 1
        },
        {
          "duration": 0.2142854999999999,
          "durationTicks": 240,
          "midi": 42,
          "name": "F#2",
          "ticks": 5520,
          "time": 4.9285665000000005,
          "velocity": 1
        },
        {
          "duration": 0.2142854999999999,
          "durationTicks": 240,
          "midi": 42,
          "name": "F#2",
          "ticks": 5760,
          "time": 5.142852,
          "velocity": 1
        },
        {
          "duration": 0.2142854999999999,
          "durationTicks": 240,
          "midi": 35,
          "name": "B1",
          "ticks": 5760,
          "time": 5.142852,
          "velocity": 1
        },
        {
          "duration": 0.2142854999999999,
          "durationTicks": 240,
          "midi": 42,
          "name": "F#2",
          "ticks": 6000,
          "time": 5.3571375,
          "velocity": 1
        },
        {
          "duration": 0.2142854999999999,
          "durationTicks": 240,
          "midi": 42,
          "name": "F#2",
          "ticks": 6240,
          "time": 5.571423,
          "velocity": 1
        },
        {
          "duration": 0.2142854999999999,
          "durationTicks": 240,
          "midi": 38,
          "name": "D2",
          "ticks": 6240,
          "time": 5.571423,
          "velocity": 1
        },
        {
          "duration": 0.2142855000000008,
          "durationTicks": 240,
          "midi": 42,
          "name": "F#2",
          "ticks": 6480,
          "time": 5.7857085,
          "velocity": 1
        },
        {
          "duration": 0.2142854999999999,
          "durationTicks": 240,
          "midi": 42,
          "name": "F#2",
          "ticks": 6720,
          "time": 5.999994000000001,
          "velocity": 1
        },
        {
          "duration": 0.2142854999999999,
          "durationTicks": 240,
          "midi": 42,
          "name": "F#2",
          "ticks": 6960,
          "time": 6.214279500000001,
          "velocity": 1
        },
        {
          "duration": 0.2142854999999999,
          "durationTicks": 240,
          "midi": 35,
          "name": "B1",
          "ticks": 6960,
          "time": 6.214279500000001,
          "velocity": 1
        },
        {
          "duration": 0.2142854999999999,
          "durationTicks": 240,
          "midi": 42,
          "name": "F#2",
          "ticks": 7200,
          "time": 6.428565000000001,
          "velocity": 1
        },
        {
          "duration": 0.2142854999999999,
          "durationTicks": 240,
          "midi": 38,
          "name": "D2",
          "ticks": 7200,
          "time": 6.428565000000001,
          "velocity": 1
        },
        {
          "duration": 0.2142854999999999,
          "durationTicks": 240,
          "midi": 42,
          "name": "F#2",
          "ticks": 7440,
          "time": 6.642850500000001,
          "velocity": 1
        },
        {
          "duration": 0.2142854999999999,
          "durationTicks": 240,
          "midi": 42,
          "name": "F#2",
          "ticks": 7680,
          "time": 6.857136000000001,
          "velocity": 1
        },
        {
          "duration": 0.2142854999999999,
          "durationTicks": 240,
          "midi": 35,
          "name": "B1",
          "ticks": 7680,
          "time": 6.857136000000001,
          "velocity": 1
        },
        {
          "duration": 0.2142854999999999,
          "durationTicks": 240,
          "midi": 42,
          "name": "F#2",
          "ticks": 7920,
          "time": 7.0714215000000005,
          "velocity": 1
        },
        {
          "duration": 0.2142854999999999,
          "durationTicks": 240,
          "midi": 42,
          "name": "F#2",
          "ticks": 8160,
          "time": 7.285707,
          "velocity": 1
        },
        {
          "duration": 0.2142854999999999,
          "durationTicks": 240,
          "midi": 38,
          "name": "D2",
          "ticks": 8160,
          "time": 7.285707,
          "velocity": 1
        },
        {
          "duration": 0.2142854999999999,
          "durationTicks": 240,
          "midi": 42,
          "name": "F#2",
          "ticks": 8400,
          "time": 7.4999925,
          "velocity": 1
        },
        {
          "duration": 0.2142855000000008,
          "durationTicks": 240,
          "midi": 42,
          "name": "F#2",
          "ticks": 8640,
          "time": 7.714278,
          "velocity": 1
        },
        {
          "duration": 0.21428549999999902,
          "durationTicks": 240,
          "midi": 42,
          "name": "F#2",
          "ticks": 8880,
          "time": 7.928563500000001,
          "velocity": 1
        },
        {
          "duration": 0.21428549999999902,
          "durationTicks": 240,
          "midi": 35,
          "name": "B1",
          "ticks": 8880,
          "time": 7.928563500000001,
          "velocity": 1
        },
        {
          "duration": 0.2142855000000008,
          "durationTicks": 240,
          "midi": 42,
          "name": "F#2",
          "ticks": 9120,
          "time": 8.142849,
          "velocity": 1
        },
        {
          "duration": 0.2142855000000008,
          "durationTicks": 240,
          "midi": 38,
          "name": "D2",
          "ticks": 9120,
          "time": 8.142849,
          "velocity": 1
        },
        {
          "duration": 0.21428549999999902,
          "durationTicks": 240,
          "midi": 42,
          "name": "F#2",
          "ticks": 9360,
          "time": 8.3571345,
          "velocity": 1
        },
        {
          "duration": 0.2142855000000008,
          "durationTicks": 240,
          "midi": 42,
          "name": "F#2",
          "ticks": 9600,
          "time": 8.57142,
          "velocity": 1
        },
        {
          "duration": 0.2142855000000008,
          "durationTicks": 240,
          "midi": 35,
          "name": "B1",
          "ticks": 9600,
          "time": 8.57142,
          "velocity": 1
        },
        {
          "duration": 0.2142855000000008,
          "durationTicks": 240,
          "midi": 42,
          "name": "F#2",
          "ticks": 9840,
          "time": 8.7857055,
          "velocity": 1
        },
        {
          "duration": 0.21428549999999902,
          "durationTicks": 240,
          "midi": 42,
          "name": "F#2",
          "ticks": 10080,
          "time": 8.999991000000001,
          "velocity": 1
        },
        {
          "duration": 0.21428549999999902,
          "durationTicks": 240,
          "midi": 38,
          "name": "D2",
          "ticks": 10080,
          "time": 8.999991000000001,
          "velocity": 1
        },
        {
          "duration": 0.2142855000000008,
          "durationTicks": 240,
          "midi": 42,
          "name": "F#2",
          "ticks": 10320,
          "time": 9.2142765,
          "velocity": 1
        },
        {
          "duration": 0.21428549999999902,
          "durationTicks": 240,
          "midi": 42,
          "name": "F#2",
          "ticks": 10560,
          "time": 9.428562000000001,
          "velocity": 1
        },
        {
          "duration": 0.2142855000000008,
          "durationTicks": 240,
          "midi": 42,
          "name": "F#2",
          "ticks": 10800,
          "time": 9.6428475,
          "velocity": 1
        },
        {
          "duration": 0.2142855000000008,
          "durationTicks": 240,
          "midi": 35,
          "name": "B1",
          "ticks": 10800,
          "time": 9.6428475,
          "velocity": 1
        },
        {
          "duration": 0.21428549999999902,
          "durationTicks": 240,
          "midi": 42,
          "name": "F#2",
          "ticks": 11040,
          "time": 9.857133000000001,
          "velocity": 1
        },
        {
          "duration": 0.21428549999999902,
          "durationTicks": 240,
          "midi": 38,
          "name": "D2",
          "ticks": 11040,
          "time": 9.857133000000001,
          "velocity": 1
        },
        {
          "duration": 0.2142855000000008,
          "durationTicks": 240,
          "midi": 42,
          "name": "F#2",
          "ticks": 11280,
          "time": 10.0714185,
          "velocity": 1
        },
        {
          "duration": 0.2142855000000008,
          "durationTicks": 240,
          "midi": 42,
          "name": "F#2",
          "ticks": 11520,
          "time": 10.285704,
          "velocity": 1
        },
        {
          "duration": 0.2142855000000008,
          "durationTicks": 240,
          "midi": 35,
          "name": "B1",
          "ticks": 11520,
          "time": 10.285704,
          "velocity": 1
        },
        {
          "duration": 0.21428549999999902,
          "durationTicks": 240,
          "midi": 42,
          "name": "F#2",
          "ticks": 11760,
          "time": 10.499989500000002,
          "velocity": 1
        },
        {
          "duration": 0.2142855000000008,
          "durationTicks": 240,
          "midi": 42,
          "name": "F#2",
          "ticks": 12000,
          "time": 10.714275,
          "velocity": 1
        },
        {
          "duration": 0.2142855000000008,
          "durationTicks": 240,
          "midi": 38,
          "name": "D2",
          "ticks": 12000,
          "time": 10.714275,
          "velocity": 1
        },
        {
          "duration": 0.21428549999999902,
          "durationTicks": 240,
          "midi": 42,
          "name": "F#2",
          "ticks": 12240,
          "time": 10.928560500000001,
          "velocity": 1
        },
        {
          "duration": 0.2142855000000008,
          "durationTicks": 240,
          "midi": 42,
          "name": "F#2",
          "ticks": 12480,
          "time": 11.142846,
          "velocity": 1
        },
        {
          "duration": 0.21428549999999902,
          "durationTicks": 240,
          "midi": 42,
          "name": "F#2",
          "ticks": 12720,
          "time": 11.357131500000001,
          "velocity": 1
        },
        {
          "duration": 0.21428549999999902,
          "durationTicks": 240,
          "midi": 35,
          "name": "B1",
          "ticks": 12720,
          "time": 11.357131500000001,
          "velocity": 1
        },
        {
          "duration": 0.2142855000000008,
          "durationTicks": 240,
          "midi": 42,
          "name": "F#2",
          "ticks": 12960,
          "time": 11.571417,
          "velocity": 1
        },
        {
          "duration": 0.2142855000000008,
          "durationTicks": 240,
          "midi": 38,
          "name": "D2",
          "ticks": 12960,
          "time": 11.571417,
          "velocity": 1
        },
        {
          "duration": 0.2142855000000008,
          "durationTicks": 240,
          "midi": 42,
          "name": "F#2",
          "ticks": 13200,
          "time": 11.785702500000001,
          "velocity": 1
        },
        {
          "duration": 0.21428549999999902,
          "durationTicks": 240,
          "midi": 42,
          "name": "F#2",
          "ticks": 13440,
          "time": 11.999988000000002,
          "velocity": 1
        },
        {
          "duration": 0.21428549999999902,
          "durationTicks": 240,
          "midi": 35,
          "name": "B1",
          "ticks": 13440,
          "time": 11.999988000000002,
          "velocity": 1
        },
        {
          "duration": 0.2142855000000008,
          "durationTicks": 240,
          "midi": 42,
          "name": "F#2",
          "ticks": 13680,
          "time": 12.214273500000001,
          "velocity": 1
        },
        {
          "duration": 0.21428549999999902,
          "durationTicks": 240,
          "midi": 42,
          "name": "F#2",
          "ticks": 13920,
          "time": 12.428559000000002,
          "velocity": 1
        },
        {
          "duration": 0.21428549999999902,
          "durationTicks": 240,
          "midi": 38,
          "name": "D2",
          "ticks": 13920,
          "time": 12.428559000000002,
          "velocity": 1
        },
        {
          "duration": 0.2142855000000008,
          "durationTicks": 240,
          "midi": 42,
          "name": "F#2",
          "ticks": 14160,
          "time": 12.6428445,
          "velocity": 1
        },
        {
          "duration": 0.21428549999999902,
          "durationTicks": 240,
          "midi": 42,
          "name": "F#2",
          "ticks": 14400,
          "time": 12.857130000000002,
          "velocity": 1
        },
        {
          "duration": 0.2142855000000008,
          "durationTicks": 240,
          "midi": 42,
          "name": "F#2",
          "ticks": 14640,
          "time": 13.0714155,
          "velocity": 1
        },
        {
          "duration": 0.2142855000000008,
          "durationTicks": 240,
          "midi": 35,
          "name": "B1",
          "ticks": 14640,
          "time": 13.0714155,
          "velocity": 1
        },
        {
          "duration": 0.21428549999999902,
          "durationTicks": 240,
          "midi": 42,
          "name": "F#2",
          "ticks": 14880,
          "time": 13.285701000000001,
          "velocity": 1
        },
        {
          "duration": 0.21428549999999902,
          "durationTicks": 240,
          "midi": 38,
          "name": "D2",
          "ticks": 14880,
          "time": 13.285701000000001,
          "velocity": 1
        },
        {
          "duration": 0.2142855000000008,
          "durationTicks": 240,
          "midi": 42,
          "name": "F#2",
          "ticks": 15120,
          "time": 13.4999865,
          "velocity": 1
        },
        {
          "duration": 0.2142855000000008,
          "durationTicks": 240,
          "midi": 42,
          "name": "F#2",
          "ticks": 15360,
          "time": 13.714272000000001,
          "velocity": 1
        },
        {
          "duration": 0.2142855000000008,
          "durationTicks": 240,
          "midi": 35,
          "name": "B1",
          "ticks": 15360,
          "time": 13.714272000000001,
          "velocity": 1
        },
        {
          "duration": 0.21428549999999902,
          "durationTicks": 240,
          "midi": 42,
          "name": "F#2",
          "ticks": 15600,
          "time": 13.928557500000002,
          "velocity": 1
        },
        {
          "duration": 0.2142855000000008,
          "durationTicks": 240,
          "midi": 42,
          "name": "F#2",
          "ticks": 15840,
          "time": 14.142843000000001,
          "velocity": 1
        },
        {
          "duration": 0.2142855000000008,
          "durationTicks": 240,
          "midi": 38,
          "name": "D2",
          "ticks": 15840,
          "time": 14.142843000000001,
          "velocity": 1
        },
        {
          "duration": 0.21428549999999902,
          "durationTicks": 240,
          "midi": 42,
          "name": "F#2",
          "ticks": 16080,
          "time": 14.357128500000002,
          "velocity": 1
        },
        {
          "duration": 0.2142855000000008,
          "durationTicks": 240,
          "midi": 42,
          "name": "F#2",
          "ticks": 16320,
          "time": 14.571414,
          "velocity": 1
        },
        {
          "duration": 0.21428549999999902,
          "durationTicks": 240,
          "midi": 42,
          "name": "F#2",
          "ticks": 16560,
          "time": 14.785699500000002,
          "velocity": 1
        },
        {
          "duration": 0.21428549999999902,
          "durationTicks": 240,
          "midi": 35,
          "name": "B1",
          "ticks": 16560,
          "time": 14.785699500000002,
          "velocity": 1
        },
        {
          "duration": 0.2142855000000008,
          "durationTicks": 240,
          "midi": 42,
          "name": "F#2",
          "ticks": 16800,
          "time": 14.999985,
          "velocity": 1
        },
        {
          "duration": 0.2142855000000008,
          "durationTicks": 240,
          "midi": 38,
          "name": "D2",
          "ticks": 16800,
          "time": 14.999985,
          "velocity": 1
        },
        {
          "duration": 0.21428549999999902,
          "durationTicks": 240,
          "midi": 42,
          "name": "F#2",
          "ticks": 17040,
          "time": 15.214270500000001,
          "velocity": 1
        },
        {
          "duration": 0.2142855000000008,
          "durationTicks": 240,
          "midi": 42,
          "name": "F#2",
          "ticks": 17280,
          "time": 15.428556,
          "velocity": 1
        },
        {
          "duration": 0.2142855000000008,
          "durationTicks": 240,
          "midi": 35,
          "name": "B1",
          "ticks": 17280,
          "time": 15.428556,
          "velocity": 1
        },
        {
          "duration": 0.2142855000000008,
          "durationTicks": 240,
          "midi": 42,
          "name": "F#2",
          "ticks": 17520,
          "time": 15.642841500000001,
          "velocity": 1
        },
        {
          "duration": 0.21428549999999902,
          "durationTicks": 240,
          "midi": 42,
          "name": "F#2",
          "ticks": 17760,
          "time": 15.857127000000002,
          "velocity": 1
        },
        {
          "duration": 0.21428549999999902,
          "durationTicks": 240,
          "midi": 38,
          "name": "D2",
          "ticks": 17760,
          "time": 15.857127000000002,
          "velocity": 1
        },
        {
          "duration": 0.21428549999999902,
          "durationTicks": 240,
          "midi": 42,
          "name": "F#2",
          "ticks": 18000,
          "time": 16.0714125,
          "velocity": 1
        },
        {
          "duration": 0.21428550000000257,
          "durationTicks": 240,
          "midi": 42,
          "name": "F#2",
          "ticks": 18240,
          "time": 16.285698,
          "velocity": 1
        },
        {
          "duration": 0.21428549999999902,
          "durationTicks": 240,
          "midi": 42,
          "name": "F#2",
          "ticks": 18480,
          "time": 16.499983500000003,
          "velocity": 1
        },
        {
          "duration": 0.21428549999999902,
          "durationTicks": 240,
          "midi": 35,
          "name": "B1",
          "ticks": 18480,
          "time": 16.499983500000003,
          "velocity": 1
        },
        {
          "duration": 0.21428549999999902,
          "durationTicks": 240,
          "midi": 42,
          "name": "F#2",
          "ticks": 18720,
          "time": 16.714269,
          "velocity": 1
        },
        {
          "duration": 0.21428549999999902,
          "durationTicks": 240,
          "midi": 38,
          "name": "D2",
          "ticks": 18720,
          "time": 16.714269,
          "velocity": 1
        },
        {
          "duration": 0.21428549999999902,
          "durationTicks": 240,
          "midi": 42,
          "name": "F#2",
          "ticks": 18960,
          "time": 16.9285545,
          "velocity": 1
        },
        {
          "duration": 0.21428550000000257,
          "durationTicks": 240,
          "midi": 42,
          "name": "F#2",
          "ticks": 19200,
          "time": 17.14284,
          "velocity": 1
        },
        {
          "duration": 0.21428550000000257,
          "durationTicks": 240,
          "midi": 35,
          "name": "B1",
          "ticks": 19200,
          "time": 17.14284,
          "velocity": 1
        },
        {
          "duration": 0.21428549999999902,
          "durationTicks": 240,
          "midi": 42,
          "name": "F#2",
          "ticks": 19440,
          "time": 17.357125500000002,
          "velocity": 1
        },
        {
          "duration": 0.21428549999999902,
          "durationTicks": 240,
          "midi": 42,
          "name": "F#2",
          "ticks": 19680,
          "time": 17.571411,
          "velocity": 1
        },
        {
          "duration": 0.21428549999999902,
          "durationTicks": 240,
          "midi": 38,
          "name": "D2",
          "ticks": 19680,
          "time": 17.571411,
          "velocity": 1
        },
        {
          "duration": 0.21428550000000257,
          "durationTicks": 240,
          "midi": 42,
          "name": "F#2",
          "ticks": 19920,
          "time": 17.7856965,
          "velocity": 1
        },
        {
          "duration": 0.21428549999999902,
          "durationTicks": 240,
          "midi": 42,
          "name": "F#2",
          "ticks": 20160,
          "time": 17.999982000000003,
          "velocity": 1
        },
        {
          "duration": 0.21428549999999902,
          "durationTicks": 240,
          "midi": 42,
          "name": "F#2",
          "ticks": 20400,
          "time": 18.214267500000002,
          "velocity": 1
        },
        {
          "duration": 0.21428549999999902,
          "durationTicks": 240,
          "midi": 35,
          "name": "B1",
          "ticks": 20400,
          "time": 18.214267500000002,
          "velocity": 1
        },
        {
          "duration": 0.21428549999999902,
          "durationTicks": 240,
          "midi": 42,
          "name": "F#2",
          "ticks": 20640,
          "time": 18.428553,
          "velocity": 1
        },
        {
          "duration": 0.21428549999999902,
          "durationTicks": 240,
          "midi": 38,
          "name": "D2",
          "ticks": 20640,
          "time": 18.428553,
          "velocity": 1
        },
        {
          "duration": 0.21428550000000257,
          "durationTicks": 240,
          "midi": 42,
          "name": "F#2",
          "ticks": 20880,
          "time": 18.6428385,
          "velocity": 1
        },
        {
          "duration": 0.21428549999999902,
          "durationTicks": 240,
          "midi": 42,
          "name": "F#2",
          "ticks": 21120,
          "time": 18.857124000000002,
          "velocity": 1
        },
        {
          "duration": 0.21428549999999902,
          "durationTicks": 240,
          "midi": 35,
          "name": "B1",
          "ticks": 21120,
          "time": 18.857124000000002,
          "velocity": 1
        },
        {
          "duration": 0.21428549999999902,
          "durationTicks": 240,
          "midi": 42,
          "name": "F#2",
          "ticks": 21360,
          "time": 19.0714095,
          "velocity": 1
        },
        {
          "duration": 0.21428550000000257,
          "durationTicks": 240,
          "midi": 42,
          "name": "F#2",
          "ticks": 21600,
          "time": 19.285695,
          "velocity": 1
        },
        {
          "duration": 0.21428550000000257,
          "durationTicks": 240,
          "midi": 38,
          "name": "D2",
          "ticks": 21600,
          "time": 19.285695,
          "velocity": 1
        },
        {
          "duration": 0.21428549999999902,
          "durationTicks": 240,
          "midi": 42,
          "name": "F#2",
          "ticks": 21840,
          "time": 19.499980500000003,
          "velocity": 1
        },
        {
          "duration": 0.21428549999999902,
          "durationTicks": 240,
          "midi": 42,
          "name": "F#2",
          "ticks": 22080,
          "time": 19.714266000000002,
          "velocity": 1
        },
        {
          "duration": 0.21428549999999902,
          "durationTicks": 240,
          "midi": 42,
          "name": "F#2",
          "ticks": 22320,
          "time": 19.9285515,
          "velocity": 1
        },
        {
          "duration": 0.21428549999999902,
          "durationTicks": 240,
          "midi": 35,
          "name": "B1",
          "ticks": 22320,
          "time": 19.9285515,
          "velocity": 1
        },
        {
          "duration": 0.21428550000000257,
          "durationTicks": 240,
          "midi": 42,
          "name": "F#2",
          "ticks": 22560,
          "time": 20.142837,
          "velocity": 1
        },
        {
          "duration": 0.21428550000000257,
          "durationTicks": 240,
          "midi": 38,
          "name": "D2",
          "ticks": 22560,
          "time": 20.142837,
          "velocity": 1
        },
        {
          "duration": 0.21428549999999902,
          "durationTicks": 240,
          "midi": 42,
          "name": "F#2",
          "ticks": 22800,
          "time": 20.357122500000003,
          "velocity": 1
        },
        {
          "duration": 0.21428549999999902,
          "durationTicks": 240,
          "midi": 42,
          "name": "F#2",
          "ticks": 23040,
          "time": 20.571408,
          "velocity": 1
        },
        {
          "duration": 0.21428549999999902,
          "durationTicks": 240,
          "midi": 35,
          "name": "B1",
          "ticks": 23040,
          "time": 20.571408,
          "velocity": 1
        },
        {
          "duration": 0.21428550000000257,
          "durationTicks": 240,
          "midi": 42,
          "name": "F#2",
          "ticks": 23280,
          "time": 20.7856935,
          "velocity": 1
        },
        {
          "duration": 0.21428549999999902,
          "durationTicks": 240,
          "midi": 42,
          "name": "F#2",
          "ticks": 23520,
          "time": 20.999979000000003,
          "velocity": 1
        },
        {
          "duration": 0.21428549999999902,
          "durationTicks": 240,
          "midi": 38,
          "name": "D2",
          "ticks": 23520,
          "time": 20.999979000000003,
          "velocity": 1
        },
        {
          "duration": 0.21428549999999902,
          "durationTicks": 240,
          "midi": 42,
          "name": "F#2",
          "ticks": 23760,
          "time": 21.214264500000002,
          "velocity": 1
        },
        {
          "duration": 0.21428549999999902,
          "durationTicks": 240,
          "midi": 42,
          "name": "F#2",
          "ticks": 24000,
          "time": 21.42855,
          "velocity": 1
        },
        {
          "duration": 0.21428550000000257,
          "durationTicks": 240,
          "midi": 42,
          "name": "F#2",
          "ticks": 24240,
          "time": 21.6428355,
          "velocity": 1
        },
        {
          "duration": 0.21428550000000257,
          "durationTicks": 240,
          "midi": 35,
          "name": "B1",
          "ticks": 24240,
          "time": 21.6428355,
          "velocity": 1
        },
        {
          "duration": 0.21428549999999902,
          "durationTicks": 240,
          "midi": 42,
          "name": "F#2",
          "ticks": 24480,
          "time": 21.857121000000003,
          "velocity": 1
        },
        {
          "duration": 0.21428549999999902,
          "durationTicks": 240,
          "midi": 38,
          "name": "D2",
          "ticks": 24480,
          "time": 21.857121000000003,
          "velocity": 1
        },
        {
          "duration": 0.21428549999999902,
          "durationTicks": 240,
          "midi": 42,
          "name": "F#2",
          "ticks": 24720,
          "time": 22.071406500000002,
          "velocity": 1
        },
        {
          "duration": 0.21428550000000257,
          "durationTicks": 240,
          "midi": 42,
          "name": "F#2",
          "ticks": 24960,
          "time": 22.285692,
          "velocity": 1
        },
        {
          "duration": 0.21428550000000257,
          "durationTicks": 240,
          "midi": 35,
          "name": "B1",
          "ticks": 24960,
          "time": 22.285692,
          "velocity": 1
        },
        {
          "duration": 0.21428549999999902,
          "durationTicks": 240,
          "midi": 42,
          "name": "F#2",
          "ticks": 25200,
          "time": 22.499977500000004,
          "velocity": 1
        },
        {
          "duration": 0.21428549999999902,
          "durationTicks": 240,
          "midi": 42,
          "name": "F#2",
          "ticks": 25440,
          "time": 22.714263000000003,
          "velocity": 1
        },
        {
          "duration": 0.21428549999999902,
          "durationTicks": 240,
          "midi": 38,
          "name": "D2",
          "ticks": 25440,
          "time": 22.714263000000003,
          "velocity": 1
        },
        {
          "duration": 0.21428549999999902,
          "durationTicks": 240,
          "midi": 42,
          "name": "F#2",
          "ticks": 25680,
          "time": 22.9285485,
          "velocity": 1
        },
        {
          "duration": 0.21428550000000257,
          "durationTicks": 240,
          "midi": 42,
          "name": "F#2",
          "ticks": 25920,
          "time": 23.142834,
          "velocity": 1
        },
        {
          "duration": 0.21428549999999902,
          "durationTicks": 240,
          "midi": 42,
          "name": "F#2",
          "ticks": 26160,
          "time": 23.357119500000003,
          "velocity": 1
        },
        {
          "duration": 0.21428549999999902,
          "durationTicks": 240,
          "midi": 35,
          "name": "B1",
          "ticks": 26160,
          "time": 23.357119500000003,
          "velocity": 1
        },
        {
          "duration": 0.21428549999999902,
          "durationTicks": 240,
          "midi": 42,
          "name": "F#2",
          "ticks": 26400,
          "time": 23.571405000000002,
          "velocity": 1
        },
        {
          "duration": 0.21428549999999902,
          "durationTicks": 240,
          "midi": 38,
          "name": "D2",
          "ticks": 26400,
          "time": 23.571405000000002,
          "velocity": 1
        },
        {
          "duration": 0.21428550000000257,
          "durationTicks": 240,
          "midi": 42,
          "name": "F#2",
          "ticks": 26640,
          "time": 23.7856905,
          "velocity": 1
        },
        {
          "duration": 0.21428549999999902,
          "durationTicks": 240,
          "midi": 42,
          "name": "F#2",
          "ticks": 26880,
          "time": 23.999976000000004,
          "velocity": 1
        },
        {
          "duration": 0.21428549999999902,
          "durationTicks": 240,
          "midi": 35,
          "name": "B1",
          "ticks": 26880,
          "time": 23.999976000000004,
          "velocity": 1
        },
        {
          "duration": 0.21428549999999902,
          "durationTicks": 240,
          "midi": 42,
          "name": "F#2",
          "ticks": 27120,
          "time": 24.214261500000003,
          "velocity": 1
        },
        {
          "duration": 0.21428549999999902,
          "durationTicks": 240,
          "midi": 42,
          "name": "F#2",
          "ticks": 27360,
          "time": 24.428547000000002,
          "velocity": 1
        },
        {
          "duration": 0.21428549999999902,
          "durationTicks": 240,
          "midi": 38,
          "name": "D2",
          "ticks": 27360,
          "time": 24.428547000000002,
          "velocity": 1
        },
        {
          "duration": 0.21428550000000257,
          "durationTicks": 240,
          "midi": 42,
          "name": "F#2",
          "ticks": 27600,
          "time": 24.6428325,
          "velocity": 1
        },
        {
          "duration": 0.21428549999999902,
          "durationTicks": 240,
          "midi": 42,
          "name": "F#2",
          "ticks": 27840,
          "time": 24.857118000000003,
          "velocity": 1
        },
        {
          "duration": 0.21428549999999902,
          "durationTicks": 240,
          "midi": 42,
          "name": "F#2",
          "ticks": 28080,
          "time": 25.071403500000002,
          "velocity": 1
        },
        {
          "duration": 0.21428549999999902,
          "durationTicks": 240,
          "midi": 35,
          "name": "B1",
          "ticks": 28080,
          "time": 25.071403500000002,
          "velocity": 1
        },
        {
          "duration": 0.21428549999999902,
          "durationTicks": 240,
          "midi": 42,
          "name": "F#2",
          "ticks": 28320,
          "time": 25.285689,
          "velocity": 1
        },
        {
          "duration": 0.21428549999999902,
          "durationTicks": 240,
          "midi": 38,
          "name": "D2",
          "ticks": 28320,
          "time": 25.285689,
          "velocity": 1
        },
        {
          "duration": 0.21428550000000257,
          "durationTicks": 240,
          "midi": 42,
          "name": "F#2",
          "ticks": 28560,
          "time": 25.4999745,
          "velocity": 1
        },
        {
          "duration": 0.21428549999999902,
          "durationTicks": 240,
          "midi": 42,
          "name": "F#2",
          "ticks": 28800,
          "time": 25.714260000000003,
          "velocity": 1
        },
        {
          "duration": 0.21428549999999902,
          "durationTicks": 240,
          "midi": 35,
          "name": "B1",
          "ticks": 28800,
          "time": 25.714260000000003,
          "velocity": 1
        },
        {
          "duration": 0.21428549999999902,
          "durationTicks": 240,
          "midi": 42,
          "name": "F#2",
          "ticks": 29040,
          "time": 25.928545500000002,
          "velocity": 1
        },
        {
          "duration": 0.21428550000000257,
          "durationTicks": 240,
          "midi": 42,
          "name": "F#2",
          "ticks": 29280,
          "time": 26.142831,
          "velocity": 1
        },
        {
          "duration": 0.21428550000000257,
          "durationTicks": 240,
          "midi": 38,
          "name": "D2",
          "ticks": 29280,
          "time": 26.142831,
          "velocity": 1
        },
        {
          "duration": 0.21428549999999902,
          "durationTicks": 240,
          "midi": 42,
          "name": "F#2",
          "ticks": 29520,
          "time": 26.357116500000004,
          "velocity": 1
        },
        {
          "duration": 0.21428549999999902,
          "durationTicks": 240,
          "midi": 42,
          "name": "F#2",
          "ticks": 29760,
          "time": 26.571402000000003,
          "velocity": 1
        },
        {
          "duration": 0.21428549999999902,
          "durationTicks": 240,
          "midi": 42,
          "name": "F#2",
          "ticks": 30000,
          "time": 26.7856875,
          "velocity": 1
        },
        {
          "duration": 0.21428549999999902,
          "durationTicks": 240,
          "midi": 35,
          "name": "B1",
          "ticks": 30000,
          "time": 26.7856875,
          "velocity": 1
        },
        {
          "duration": 0.21428550000000257,
          "durationTicks": 240,
          "midi": 42,
          "name": "F#2",
          "ticks": 30240,
          "time": 26.999973,
          "velocity": 1
        },
        {
          "duration": 0.21428550000000257,
          "durationTicks": 240,
          "midi": 38,
          "name": "D2",
          "ticks": 30240,
          "time": 26.999973,
          "velocity": 1
        },
        {
          "duration": 0.21428549999999902,
          "durationTicks": 240,
          "midi": 42,
          "name": "F#2",
          "ticks": 30480,
          "time": 27.214258500000003,
          "velocity": 1
        },
        {
          "duration": 0.21428549999999902,
          "durationTicks": 240,
          "midi": 42,
          "name": "F#2",
          "ticks": 30720,
          "time": 27.428544000000002,
          "velocity": 1
        },
        {
          "duration": 0.21428549999999902,
          "durationTicks": 240,
          "midi": 35,
          "name": "B1",
          "ticks": 30720,
          "time": 27.428544000000002,
          "velocity": 1
        },
        {
          "duration": 0.21428550000000257,
          "durationTicks": 240,
          "midi": 42,
          "name": "F#2",
          "ticks": 30960,
          "time": 27.6428295,
          "velocity": 1
        },
        {
          "duration": 0.21428549999999902,
          "durationTicks": 240,
          "midi": 42,
          "name": "F#2",
          "ticks": 31200,
          "time": 27.857115000000004,
          "velocity": 1
        },
        {
          "duration": 0.21428549999999902,
          "durationTicks": 240,
          "midi": 38,
          "name": "D2",
          "ticks": 31200,
          "time": 27.857115000000004,
          "velocity": 1
        },
        {
          "duration": 0.21428549999999902,
          "durationTicks": 240,
          "midi": 42,
          "name": "F#2",
          "ticks": 31440,
          "time": 28.071400500000003,
          "velocity": 1
        },
        {
          "duration": 0.21428549999999902,
          "durationTicks": 240,
          "midi": 42,
          "name": "F#2",
          "ticks": 31680,
          "time": 28.285686000000002,
          "velocity": 1
        },
        {
          "duration": 0.21428550000000257,
          "durationTicks": 240,
          "midi": 42,
          "name": "F#2",
          "ticks": 31920,
          "time": 28.4999715,
          "velocity": 1
        },
        {
          "duration": 0.21428550000000257,
          "durationTicks": 240,
          "midi": 35,
          "name": "B1",
          "ticks": 31920,
          "time": 28.4999715,
          "velocity": 1
        },
        {
          "duration": 0.21428549999999902,
          "durationTicks": 240,
          "midi": 42,
          "name": "F#2",
          "ticks": 32160,
          "time": 28.714257000000003,
          "velocity": 1
        },
        {
          "duration": 0.21428549999999902,
          "durationTicks": 240,
          "midi": 38,
          "name": "D2",
          "ticks": 32160,
          "time": 28.714257000000003,
          "velocity": 1
        },
        {
          "duration": 0.21428549999999902,
          "durationTicks": 240,
          "midi": 42,
          "name": "F#2",
          "ticks": 32400,
          "time": 28.928542500000002,
          "velocity": 1
        },
        {
          "duration": 0.21428550000000257,
          "durationTicks": 240,
          "midi": 42,
          "name": "F#2",
          "ticks": 32640,
          "time": 29.142828,
          "velocity": 1
        },
        {
          "duration": 0.21428550000000257,
          "durationTicks": 240,
          "midi": 35,
          "name": "B1",
          "ticks": 32640,
          "time": 29.142828,
          "velocity": 1
        },
        {
          "duration": 0.21428549999999902,
          "durationTicks": 240,
          "midi": 42,
          "name": "F#2",
          "ticks": 32880,
          "time": 29.357113500000004,
          "velocity": 1
        },
        {
          "duration": 0.21428549999999902,
          "durationTicks": 240,
          "midi": 42,
          "name": "F#2",
          "ticks": 33120,
          "time": 29.571399000000003,
          "velocity": 1
        },
        {
          "duration": 0.21428549999999902,
          "durationTicks": 240,
          "midi": 38,
          "name": "D2",
          "ticks": 33120,
          "time": 29.571399000000003,
          "velocity": 1
        },
        {
          "duration": 0.21428549999999902,
          "durationTicks": 240,
          "midi": 42,
          "name": "F#2",
          "ticks": 33360,
          "time": 29.785684500000002,
          "velocity": 1
        },
        {
          "duration": 0.21428550000000257,
          "durationTicks": 240,
          "midi": 42,
          "name": "F#2",
          "ticks": 33600,
          "time": 29.99997,
          "velocity": 1
        },
        {
          "duration": 0.21428549999999902,
          "durationTicks": 240,
          "midi": 42,
          "name": "F#2",
          "ticks": 33840,
          "time": 30.214255500000004,
          "velocity": 1
        },
        {
          "duration": 0.21428549999999902,
          "durationTicks": 240,
          "midi": 35,
          "name": "B1",
          "ticks": 33840,
          "time": 30.214255500000004,
          "velocity": 1
        },
        {
          "duration": 0.21428549999999902,
          "durationTicks": 240,
          "midi": 42,
          "name": "F#2",
          "ticks": 34080,
          "time": 30.428541000000003,
          "velocity": 1
        },
        {
          "duration": 0.21428549999999902,
          "durationTicks": 240,
          "midi": 38,
          "name": "D2",
          "ticks": 34080,
          "time": 30.428541000000003,
          "velocity": 1
        },
        {
          "duration": 0.21428549999999902,
          "durationTicks": 240,
          "midi": 42,
          "name": "F#2",
          "ticks": 34320,
          "time": 30.6428265,
          "velocity": 1
        },
        {
          "duration": 0.21428550000000257,
          "durationTicks": 240,
          "midi": 42,
          "name": "F#2",
          "ticks": 34560,
          "time": 30.857112,
          "velocity": 1
        },
        {
          "duration": 0.21428550000000257,
          "durationTicks": 240,
          "midi": 35,
          "name": "B1",
          "ticks": 34560,
          "time": 30.857112,
          "velocity": 1
        },
        {
          "duration": 0.21428549999999902,
          "durationTicks": 240,
          "midi": 42,
          "name": "F#2",
          "ticks": 34800,
          "time": 31.071397500000003,
          "velocity": 1
        },
        {
          "duration": 0.21428549999999902,
          "durationTicks": 240,
          "midi": 42,
          "name": "F#2",
          "ticks": 35040,
          "time": 31.285683000000002,
          "velocity": 1
        },
        {
          "duration": 0.21428549999999902,
          "durationTicks": 240,
          "midi": 38,
          "name": "D2",
          "ticks": 35040,
          "time": 31.285683000000002,
          "velocity": 1
        },
        {
          "duration": 0.21428550000000257,
          "durationTicks": 240,
          "midi": 42,
          "name": "F#2",
          "ticks": 35280,
          "time": 31.4999685,
          "velocity": 1
        },
        {
          "duration": 0.21428549999999902,
          "durationTicks": 240,
          "midi": 42,
          "name": "F#2",
          "ticks": 35520,
          "time": 31.714254000000004,
          "velocity": 1
        },
        {
          "duration": 0.21428549999999902,
          "durationTicks": 240,
          "midi": 42,
          "name": "F#2",
          "ticks": 35760,
          "time": 31.928539500000003,
          "velocity": 1
        },
        {
          "duration": 0.21428549999999902,
          "durationTicks": 240,
          "midi": 35,
          "name": "B1",
          "ticks": 35760,
          "time": 31.928539500000003,
          "velocity": 1
        },
        {
          "duration": 0.21428550000000257,
          "durationTicks": 240,
          "midi": 42,
          "name": "F#2",
          "ticks": 36000,
          "time": 32.142825,
          "velocity": 1
        },
        {
          "duration": 0.21428550000000257,
          "durationTicks": 240,
          "midi": 38,
          "name": "D2",
          "ticks": 36000,
          "time": 32.142825,
          "velocity": 1
        },
        {
          "duration": 0.21428549999999547,
          "durationTicks": 240,
          "midi": 42,
          "name": "F#2",
          "ticks": 36240,
          "time": 32.357110500000005,
          "velocity": 1
        },
        {
          "duration": 0.21428550000000257,
          "durationTicks": 240,
          "midi": 42,
          "name": "F#2",
          "ticks": 36480,
          "time": 32.571396,
          "velocity": 1
        },
        {
          "duration": 0.21428550000000257,
          "durationTicks": 240,
          "midi": 35,
          "name": "B1",
          "ticks": 36480,
          "time": 32.571396,
          "velocity": 1
        },
        {
          "duration": 0.21428550000000257,
          "durationTicks": 240,
          "midi": 42,
          "name": "F#2",
          "ticks": 36720,
          "time": 32.7856815,
          "velocity": 1
        },
        {
          "duration": 0.21428549999999547,
          "durationTicks": 240,
          "midi": 42,
          "name": "F#2",
          "ticks": 36960,
          "time": 32.999967000000005,
          "velocity": 1
        },
        {
          "duration": 0.21428549999999547,
          "durationTicks": 240,
          "midi": 38,
          "name": "D2",
          "ticks": 36960,
          "time": 32.999967000000005,
          "velocity": 1
        },
        {
          "duration": 0.21428550000000257,
          "durationTicks": 240,
          "midi": 42,
          "name": "F#2",
          "ticks": 37200,
          "time": 33.2142525,
          "velocity": 1
        },
        {
          "duration": 0.21428550000000257,
          "durationTicks": 240,
          "midi": 42,
          "name": "F#2",
          "ticks": 37440,
          "time": 33.428538,
          "velocity": 1
        },
        {
          "duration": 0.21428549999999547,
          "durationTicks": 240,
          "midi": 42,
          "name": "F#2",
          "ticks": 37680,
          "time": 33.642823500000006,
          "velocity": 1
        },
        {
          "duration": 0.21428549999999547,
          "durationTicks": 240,
          "midi": 35,
          "name": "B1",
          "ticks": 37680,
          "time": 33.642823500000006,
          "velocity": 1
        },
        {
          "duration": 0.21428550000000257,
          "durationTicks": 240,
          "midi": 42,
          "name": "F#2",
          "ticks": 37920,
          "time": 33.857109,
          "velocity": 1
        },
        {
          "duration": 0.21428550000000257,
          "durationTicks": 240,
          "midi": 38,
          "name": "D2",
          "ticks": 37920,
          "time": 33.857109,
          "velocity": 1
        },
        {
          "duration": 0.21428549999999547,
          "durationTicks": 240,
          "midi": 42,
          "name": "F#2",
          "ticks": 38160,
          "time": 34.071394500000004,
          "velocity": 1
        },
        {
          "duration": 0.21428550000000257,
          "durationTicks": 240,
          "midi": 42,
          "name": "F#2",
          "ticks": 38400,
          "time": 34.28568,
          "velocity": 1
        },
        {
          "duration": 0.21428550000000257,
          "durationTicks": 240,
          "midi": 35,
          "name": "B1",
          "ticks": 38400,
          "time": 34.28568,
          "velocity": 1
        },
        {
          "duration": 0.21428550000000257,
          "durationTicks": 240,
          "midi": 42,
          "name": "F#2",
          "ticks": 38640,
          "time": 34.4999655,
          "velocity": 1
        },
        {
          "duration": 0.21428549999999547,
          "durationTicks": 240,
          "midi": 42,
          "name": "F#2",
          "ticks": 38880,
          "time": 34.714251000000004,
          "velocity": 1
        },
        {
          "duration": 0.21428549999999547,
          "durationTicks": 240,
          "midi": 38,
          "name": "D2",
          "ticks": 38880,
          "time": 34.714251000000004,
          "velocity": 1
        },
        {
          "duration": 0.21428550000000257,
          "durationTicks": 240,
          "midi": 42,
          "name": "F#2",
          "ticks": 39120,
          "time": 34.9285365,
          "velocity": 1
        },
        {
          "duration": 0.21428550000000257,
          "durationTicks": 240,
          "midi": 42,
          "name": "F#2",
          "ticks": 39360,
          "time": 35.142822,
          "velocity": 1
        },
        {
          "duration": 0.21428549999999547,
          "durationTicks": 240,
          "midi": 42,
          "name": "F#2",
          "ticks": 39600,
          "time": 35.357107500000005,
          "velocity": 1
        },
        {
          "duration": 0.21428549999999547,
          "durationTicks": 240,
          "midi": 35,
          "name": "B1",
          "ticks": 39600,
          "time": 35.357107500000005,
          "velocity": 1
        },
        {
          "duration": 0.21428550000000257,
          "durationTicks": 240,
          "midi": 42,
          "name": "F#2",
          "ticks": 39840,
          "time": 35.571393,
          "velocity": 1
        },
        {
          "duration": 0.21428550000000257,
          "durationTicks": 240,
          "midi": 38,
          "name": "D2",
          "ticks": 39840,
          "time": 35.571393,
          "velocity": 1
        },
        {
          "duration": 0.21428550000000257,
          "durationTicks": 240,
          "midi": 42,
          "name": "F#2",
          "ticks": 40080,
          "time": 35.7856785,
          "velocity": 1
        },
        {
          "duration": 0.21428549999999547,
          "durationTicks": 240,
          "midi": 42,
          "name": "F#2",
          "ticks": 40320,
          "time": 35.999964000000006,
          "velocity": 1
        },
        {
          "duration": 0.21428549999999547,
          "durationTicks": 240,
          "midi": 35,
          "name": "B1",
          "ticks": 40320,
          "time": 35.999964000000006,
          "velocity": 1
        },
        {
          "duration": 0.21428550000000257,
          "durationTicks": 240,
          "midi": 42,
          "name": "F#2",
          "ticks": 40560,
          "time": 36.2142495,
          "velocity": 1
        },
        {
          "duration": 0.21428550000000257,
          "durationTicks": 240,
          "midi": 42,
          "name": "F#2",
          "ticks": 40800,
          "time": 36.428535000000004,
          "velocity": 1
        },
        {
          "duration": 0.21428550000000257,
          "durationTicks": 240,
          "midi": 38,
          "name": "D2",
          "ticks": 40800,
          "time": 36.428535000000004,
          "velocity": 1
        },
        {
          "duration": 0.21428549999999547,
          "durationTicks": 240,
          "midi": 42,
          "name": "F#2",
          "ticks": 41040,
          "time": 36.642820500000006,
          "velocity": 1
        },
        {
          "duration": 0.21428550000000257,
          "durationTicks": 240,
          "midi": 42,
          "name": "F#2",
          "ticks": 41280,
          "time": 36.857106,
          "velocity": 1
        },
        {
          "duration": 0.21428549999999547,
          "durationTicks": 240,
          "midi": 42,
          "name": "F#2",
          "ticks": 41520,
          "time": 37.071391500000004,
          "velocity": 1
        },
        {
          "duration": 0.21428549999999547,
          "durationTicks": 240,
          "midi": 35,
          "name": "B1",
          "ticks": 41520,
          "time": 37.071391500000004,
          "velocity": 1
        },
        {
          "duration": 0.21428550000000257,
          "durationTicks": 240,
          "midi": 42,
          "name": "F#2",
          "ticks": 41760,
          "time": 37.285677,
          "velocity": 1
        },
        {
          "duration": 0.21428550000000257,
          "durationTicks": 240,
          "midi": 38,
          "name": "D2",
          "ticks": 41760,
          "time": 37.285677,
          "velocity": 1
        },
        {
          "duration": 0.21428550000000257,
          "durationTicks": 240,
          "midi": 42,
          "name": "F#2",
          "ticks": 42000,
          "time": 37.4999625,
          "velocity": 1
        },
        {
          "duration": 0.21428549999999547,
          "durationTicks": 240,
          "midi": 42,
          "name": "F#2",
          "ticks": 42240,
          "time": 37.714248000000005,
          "velocity": 1
        },
        {
          "duration": 0.21428549999999547,
          "durationTicks": 240,
          "midi": 35,
          "name": "B1",
          "ticks": 42240,
          "time": 37.714248000000005,
          "velocity": 1
        },
        {
          "duration": 0.21428550000000257,
          "durationTicks": 240,
          "midi": 42,
          "name": "F#2",
          "ticks": 42480,
          "time": 37.9285335,
          "velocity": 1
        },
        {
          "duration": 0.21428550000000257,
          "durationTicks": 240,
          "midi": 42,
          "name": "F#2",
          "ticks": 42720,
          "time": 38.142819,
          "velocity": 1
        },
        {
          "duration": 0.21428550000000257,
          "durationTicks": 240,
          "midi": 38,
          "name": "D2",
          "ticks": 42720,
          "time": 38.142819,
          "velocity": 1
        },
        {
          "duration": 0.21428549999999547,
          "durationTicks": 240,
          "midi": 42,
          "name": "F#2",
          "ticks": 42960,
          "time": 38.357104500000005,
          "velocity": 1
        },
        {
          "duration": 0.21428550000000257,
          "durationTicks": 240,
          "midi": 42,
          "name": "F#2",
          "ticks": 43200,
          "time": 38.57139,
          "velocity": 1
        },
        {
          "duration": 0.21428550000000257,
          "durationTicks": 240,
          "midi": 42,
          "name": "F#2",
          "ticks": 43440,
          "time": 38.7856755,
          "velocity": 1
        },
        {
          "duration": 0.21428550000000257,
          "durationTicks": 240,
          "midi": 35,
          "name": "B1",
          "ticks": 43440,
          "time": 38.7856755,
          "velocity": 1
        },
        {
          "duration": 0.21428549999999547,
          "durationTicks": 240,
          "midi": 42,
          "name": "F#2",
          "ticks": 43680,
          "time": 38.999961000000006,
          "velocity": 1
        },
        {
          "duration": 0.21428549999999547,
          "durationTicks": 240,
          "midi": 38,
          "name": "D2",
          "ticks": 43680,
          "time": 38.999961000000006,
          "velocity": 1
        },
        {
          "duration": 0.21428550000000257,
          "durationTicks": 240,
          "midi": 42,
          "name": "F#2",
          "ticks": 43920,
          "time": 39.2142465,
          "velocity": 1
        },
        {
          "duration": 0.21428550000000257,
          "durationTicks": 240,
          "midi": 42,
          "name": "F#2",
          "ticks": 44160,
          "time": 39.428532000000004,
          "velocity": 1
        },
        {
          "duration": 0.21428550000000257,
          "durationTicks": 240,
          "midi": 35,
          "name": "B1",
          "ticks": 44160,
          "time": 39.428532000000004,
          "velocity": 1
        },
        {
          "duration": 0.21428549999999547,
          "durationTicks": 240,
          "midi": 42,
          "name": "F#2",
          "ticks": 44400,
          "time": 39.64281750000001,
          "velocity": 1
        },
        {
          "duration": 0.21428550000000257,
          "durationTicks": 240,
          "midi": 42,
          "name": "F#2",
          "ticks": 44640,
          "time": 39.857103,
          "velocity": 1
        },
        {
          "duration": 0.21428550000000257,
          "durationTicks": 240,
          "midi": 38,
          "name": "D2",
          "ticks": 44640,
          "time": 39.857103,
          "velocity": 1
        },
        {
          "duration": 0.21428549999999547,
          "durationTicks": 240,
          "midi": 42,
          "name": "F#2",
          "ticks": 44880,
          "time": 40.071388500000005,
          "velocity": 1
        },
        {
          "duration": 0.21428550000000257,
          "durationTicks": 240,
          "midi": 42,
          "name": "F#2",
          "ticks": 45120,
          "time": 40.285674,
          "velocity": 1
        },
        {
          "duration": 0.21428550000000257,
          "durationTicks": 240,
          "midi": 42,
          "name": "F#2",
          "ticks": 45360,
          "time": 40.4999595,
          "velocity": 1
        },
        {
          "duration": 0.21428550000000257,
          "durationTicks": 240,
          "midi": 35,
          "name": "B1",
          "ticks": 45360,
          "time": 40.4999595,
          "velocity": 1
        },
        {
          "duration": 0.21428549999999547,
          "durationTicks": 240,
          "midi": 42,
          "name": "F#2",
          "ticks": 45600,
          "time": 40.714245000000005,
          "velocity": 1
        },
        {
          "duration": 0.21428549999999547,
          "durationTicks": 240,
          "midi": 38,
          "name": "D2",
          "ticks": 45600,
          "time": 40.714245000000005,
          "velocity": 1
        },
        {
          "duration": 0.21428550000000257,
          "durationTicks": 240,
          "midi": 42,
          "name": "F#2",
          "ticks": 45840,
          "time": 40.9285305,
          "velocity": 1
        },
        {
          "duration": 0.21428550000000257,
          "durationTicks": 240,
          "midi": 42,
          "name": "F#2",
          "ticks": 46080,
          "time": 41.142816,
          "velocity": 1
        },
        {
          "duration": 0.21428550000000257,
          "durationTicks": 240,
          "midi": 35,
          "name": "B1",
          "ticks": 46080,
          "time": 41.142816,
          "velocity": 1
        },
        {
          "duration": 0.21428549999999547,
          "durationTicks": 240,
          "midi": 42,
          "name": "F#2",
          "ticks": 46320,
          "time": 41.357101500000006,
          "velocity": 1
        },
        {
          "duration": 0.21428550000000257,
          "durationTicks": 240,
          "midi": 42,
          "name": "F#2",
          "ticks": 46560,
          "time": 41.571387,
          "velocity": 1
        },
        {
          "duration": 0.21428550000000257,
          "durationTicks": 240,
          "midi": 38,
          "name": "D2",
          "ticks": 46560,
          "time": 41.571387,
          "velocity": 1
        },
        {
          "duration": 0.21428550000000257,
          "durationTicks": 240,
          "midi": 42,
          "name": "F#2",
          "ticks": 46800,
          "time": 41.785672500000004,
          "velocity": 1
        },
        {
          "duration": 0.21428549999999547,
          "durationTicks": 240,
          "midi": 42,
          "name": "F#2",
          "ticks": 47040,
          "time": 41.99995800000001,
          "velocity": 1
        },
        {
          "duration": 0.21428550000000257,
          "durationTicks": 240,
          "midi": 42,
          "name": "F#2",
          "ticks": 47280,
          "time": 42.2142435,
          "velocity": 1
        },
        {
          "duration": 0.21428550000000257,
          "durationTicks": 240,
          "midi": 35,
          "name": "B1",
          "ticks": 47280,
          "time": 42.2142435,
          "velocity": 1
        },
        {
          "duration": 0.21428549999999547,
          "durationTicks": 240,
          "midi": 42,
          "name": "F#2",
          "ticks": 47520,
          "time": 42.428529000000005,
          "velocity": 1
        },
        {
          "duration": 0.21428549999999547,
          "durationTicks": 240,
          "midi": 38,
          "name": "D2",
          "ticks": 47520,
          "time": 42.428529000000005,
          "velocity": 1
        },
        {
          "duration": 0.21428550000000257,
          "durationTicks": 240,
          "midi": 42,
          "name": "F#2",
          "ticks": 47760,
          "time": 42.6428145,
          "velocity": 1
        },
        {
          "duration": 0.21428550000000257,
          "durationTicks": 240,
          "midi": 42,
          "name": "F#2",
          "ticks": 48000,
          "time": 42.8571,
          "velocity": 1
        },
        {
          "duration": 0.21428550000000257,
          "durationTicks": 240,
          "midi": 35,
          "name": "B1",
          "ticks": 48000,
          "time": 42.8571,
          "velocity": 1
        },
        {
          "duration": 0.21428549999999547,
          "durationTicks": 240,
          "midi": 42,
          "name": "F#2",
          "ticks": 48240,
          "time": 43.071385500000005,
          "velocity": 1
        },
        {
          "duration": 0.21428550000000257,
          "durationTicks": 240,
          "midi": 42,
          "name": "F#2",
          "ticks": 48480,
          "time": 43.285671,
          "velocity": 1
        },
        {
          "duration": 0.21428550000000257,
          "durationTicks": 240,
          "midi": 38,
          "name": "D2",
          "ticks": 48480,
          "time": 43.285671,
          "velocity": 1
        },
        {
          "duration": 0.21428550000000257,
          "durationTicks": 240,
          "midi": 42,
          "name": "F#2",
          "ticks": 48720,
          "time": 43.4999565,
          "velocity": 1
        },
        {
          "duration": 0.21428549999999547,
          "durationTicks": 240,
          "midi": 42,
          "name": "F#2",
          "ticks": 48960,
          "time": 43.714242000000006,
          "velocity": 1
        },
        {
          "duration": 0.21428550000000257,
          "durationTicks": 240,
          "midi": 42,
          "name": "F#2",
          "ticks": 49200,
          "time": 43.9285275,
          "velocity": 1
        },
        {
          "duration": 0.21428550000000257,
          "durationTicks": 240,
          "midi": 35,
          "name": "B1",
          "ticks": 49200,
          "time": 43.9285275,
          "velocity": 1
        },
        {
          "duration": 0.21428550000000257,
          "durationTicks": 240,
          "midi": 42,
          "name": "F#2",
          "ticks": 49440,
          "time": 44.142813000000004,
          "velocity": 1
        },
        {
          "duration": 0.21428550000000257,
          "durationTicks": 240,
          "midi": 38,
          "name": "D2",
          "ticks": 49440,
          "time": 44.142813000000004,
          "velocity": 1
        },
        {
          "duration": 0.21428549999999547,
          "durationTicks": 240,
          "midi": 42,
          "name": "F#2",
          "ticks": 49680,
          "time": 44.357098500000006,
          "velocity": 1
        },
        {
          "duration": 0.21428550000000257,
          "durationTicks": 240,
          "midi": 42,
          "name": "F#2",
          "ticks": 49920,
          "time": 44.571384,
          "velocity": 1
        },
        {
          "duration": 0.21428550000000257,
          "durationTicks": 240,
          "midi": 35,
          "name": "B1",
          "ticks": 49920,
          "time": 44.571384,
          "velocity": 1
        },
        {
          "duration": 0.21428550000000257,
          "durationTicks": 240,
          "midi": 42,
          "name": "F#2",
          "ticks": 50160,
          "time": 44.785669500000004,
          "velocity": 1
        },
        {
          "duration": 0.21428549999999547,
          "durationTicks": 240,
          "midi": 42,
          "name": "F#2",
          "ticks": 50400,
          "time": 44.99995500000001,
          "velocity": 1
        },
        {
          "duration": 0.21428549999999547,
          "durationTicks": 240,
          "midi": 38,
          "name": "D2",
          "ticks": 50400,
          "time": 44.99995500000001,
          "velocity": 1
        },
        {
          "duration": 0.21428550000000257,
          "durationTicks": 240,
          "midi": 42,
          "name": "F#2",
          "ticks": 50640,
          "time": 45.2142405,
          "velocity": 1
        },
        {
          "duration": 0.21428549999999547,
          "durationTicks": 240,
          "midi": 42,
          "name": "F#2",
          "ticks": 50880,
          "time": 45.428526000000005,
          "velocity": 1
        },
        {
          "duration": 0.21428550000000257,
          "durationTicks": 240,
          "midi": 42,
          "name": "F#2",
          "ticks": 51120,
          "time": 45.6428115,
          "velocity": 1
        },
        {
          "duration": 0.21428550000000257,
          "durationTicks": 240,
          "midi": 35,
          "name": "B1",
          "ticks": 51120,
          "time": 45.6428115,
          "velocity": 1
        },
        {
          "duration": 0.21428550000000257,
          "durationTicks": 240,
          "midi": 42,
          "name": "F#2",
          "ticks": 51360,
          "time": 45.857097,
          "velocity": 1
        },
        {
          "duration": 0.21428550000000257,
          "durationTicks": 240,
          "midi": 38,
          "name": "D2",
          "ticks": 51360,
          "time": 45.857097,
          "velocity": 1
        },
        {
          "duration": 0.21428549999999547,
          "durationTicks": 240,
          "midi": 42,
          "name": "F#2",
          "ticks": 51600,
          "time": 46.071382500000006,
          "velocity": 1
        },
        {
          "duration": 0.21428550000000257,
          "durationTicks": 240,
          "midi": 42,
          "name": "F#2",
          "ticks": 51840,
          "time": 46.285668,
          "velocity": 1
        },
        {
          "duration": 0.21428550000000257,
          "durationTicks": 240,
          "midi": 35,
          "name": "B1",
          "ticks": 51840,
          "time": 46.285668,
          "velocity": 1
        },
        {
          "duration": 0.21428550000000257,
          "durationTicks": 240,
          "midi": 42,
          "name": "F#2",
          "ticks": 52080,
          "time": 46.499953500000004,
          "velocity": 1
        },
        {
          "duration": 0.21428549999999547,
          "durationTicks": 240,
          "midi": 42,
          "name": "F#2",
          "ticks": 52320,
          "time": 46.714239000000006,
          "velocity": 1
        },
        {
          "duration": 0.21428549999999547,
          "durationTicks": 240,
          "midi": 38,
          "name": "D2",
          "ticks": 52320,
          "time": 46.714239000000006,
          "velocity": 1
        },
        {
          "duration": 0.21428550000000257,
          "durationTicks": 240,
          "midi": 42,
          "name": "F#2",
          "ticks": 52560,
          "time": 46.9285245,
          "velocity": 1
        },
        {
          "duration": 0.21428550000000257,
          "durationTicks": 240,
          "midi": 42,
          "name": "F#2",
          "ticks": 52800,
          "time": 47.142810000000004,
          "velocity": 1
        },
        {
          "duration": 0.21428549999999547,
          "durationTicks": 240,
          "midi": 42,
          "name": "F#2",
          "ticks": 53040,
          "time": 47.35709550000001,
          "velocity": 1
        },
        {
          "duration": 0.21428549999999547,
          "durationTicks": 240,
          "midi": 35,
          "name": "B1",
          "ticks": 53040,
          "time": 47.35709550000001,
          "velocity": 1
        },
        {
          "duration": 0.21428550000000257,
          "durationTicks": 240,
          "midi": 42,
          "name": "F#2",
          "ticks": 53280,
          "time": 47.571381,
          "velocity": 1
        },
        {
          "duration": 0.21428550000000257,
          "durationTicks": 240,
          "midi": 38,
          "name": "D2",
          "ticks": 53280,
          "time": 47.571381,
          "velocity": 1
        },
        {
          "duration": 0.21428550000000257,
          "durationTicks": 240,
          "midi": 42,
          "name": "F#2",
          "ticks": 53520,
          "time": 47.785666500000005,
          "velocity": 1
        },
        {
          "duration": 0.21428549999999547,
          "durationTicks": 240,
          "midi": 42,
          "name": "F#2",
          "ticks": 53760,
          "time": 47.99995200000001,
          "velocity": 1
        },
        {
          "duration": 0.21428549999999547,
          "durationTicks": 240,
          "midi": 35,
          "name": "B1",
          "ticks": 53760,
          "time": 47.99995200000001,
          "velocity": 1
        },
        {
          "duration": 0.21428550000000257,
          "durationTicks": 240,
          "midi": 42,
          "name": "F#2",
          "ticks": 54000,
          "time": 48.2142375,
          "velocity": 1
        },
        {
          "duration": 0.21428549999999547,
          "durationTicks": 240,
          "midi": 42,
          "name": "F#2",
          "ticks": 54240,
          "time": 48.428523000000006,
          "velocity": 1
        },
        {
          "duration": 0.21428549999999547,
          "durationTicks": 240,
          "midi": 38,
          "name": "D2",
          "ticks": 54240,
          "time": 48.428523000000006,
          "velocity": 1
        },
        {
          "duration": 0.21428550000000257,
          "durationTicks": 240,
          "midi": 42,
          "name": "F#2",
          "ticks": 54480,
          "time": 48.6428085,
          "velocity": 1
        },
        {
          "duration": 0.21428550000000257,
          "durationTicks": 240,
          "midi": 42,
          "name": "F#2",
          "ticks": 54720,
          "time": 48.857094000000004,
          "velocity": 1
        },
        {
          "duration": 0.21428549999999547,
          "durationTicks": 240,
          "midi": 42,
          "name": "F#2",
          "ticks": 54960,
          "time": 49.071379500000006,
          "velocity": 1
        },
        {
          "duration": 0.21428549999999547,
          "durationTicks": 240,
          "midi": 35,
          "name": "B1",
          "ticks": 54960,
          "time": 49.071379500000006,
          "velocity": 1
        },
        {
          "duration": 0.21428550000000257,
          "durationTicks": 240,
          "midi": 42,
          "name": "F#2",
          "ticks": 55200,
          "time": 49.285665,
          "velocity": 1
        },
        {
          "duration": 0.21428550000000257,
          "durationTicks": 240,
          "midi": 38,
          "name": "D2",
          "ticks": 55200,
          "time": 49.285665,
          "velocity": 1
        },
        {
          "duration": 0.21428550000000257,
          "durationTicks": 240,
          "midi": 42,
          "name": "F#2",
          "ticks": 55440,
          "time": 49.499950500000004,
          "velocity": 1
        },
        {
          "duration": 0.21428549999999547,
          "durationTicks": 240,
          "midi": 42,
          "name": "F#2",
          "ticks": 55680,
          "time": 49.71423600000001,
          "velocity": 1
        },
        {
          "duration": 0.21428549999999547,
          "durationTicks": 240,
          "midi": 35,
          "name": "B1",
          "ticks": 55680,
          "time": 49.71423600000001,
          "velocity": 1
        },
        {
          "duration": 0.21428550000000257,
          "durationTicks": 240,
          "midi": 42,
          "name": "F#2",
          "ticks": 55920,
          "time": 49.9285215,
          "velocity": 1
        },
        {
          "duration": 0.21428550000000257,
          "durationTicks": 240,
          "midi": 42,
          "name": "F#2",
          "ticks": 56160,
          "time": 50.142807000000005,
          "velocity": 1
        },
        {
          "duration": 0.21428550000000257,
          "durationTicks": 240,
          "midi": 38,
          "name": "D2",
          "ticks": 56160,
          "time": 50.142807000000005,
          "velocity": 1
        },
        {
          "duration": 0.21428549999999547,
          "durationTicks": 240,
          "midi": 42,
          "name": "F#2",
          "ticks": 56400,
          "time": 50.35709250000001,
          "velocity": 1
        },
        {
          "duration": 0.21428550000000257,
          "durationTicks": 240,
          "midi": 42,
          "name": "F#2",
          "ticks": 56640,
          "time": 50.571378,
          "velocity": 1
        },
        {
          "duration": 0.21428549999999547,
          "durationTicks": 240,
          "midi": 42,
          "name": "F#2",
          "ticks": 56880,
          "time": 50.785663500000005,
          "velocity": 1
        },
        {
          "duration": 0.21428549999999547,
          "durationTicks": 240,
          "midi": 35,
          "name": "B1",
          "ticks": 56880,
          "time": 50.785663500000005,
          "velocity": 1
        },
        {
          "duration": 0.21428550000000257,
          "durationTicks": 240,
          "midi": 42,
          "name": "F#2",
          "ticks": 57120,
          "time": 50.999949,
          "velocity": 1
        },
        {
          "duration": 0.21428550000000257,
          "durationTicks": 240,
          "midi": 38,
          "name": "D2",
          "ticks": 57120,
          "time": 50.999949,
          "velocity": 1
        },
        {
          "duration": 0.21428550000000257,
          "durationTicks": 240,
          "midi": 42,
          "name": "F#2",
          "ticks": 57360,
          "time": 51.2142345,
          "velocity": 1
        },
        {
          "duration": 0.21428549999999547,
          "durationTicks": 240,
          "midi": 42,
          "name": "F#2",
          "ticks": 57600,
          "time": 51.428520000000006,
          "velocity": 1
        },
        {
          "duration": 0.21428549999999547,
          "durationTicks": 240,
          "midi": 35,
          "name": "B1",
          "ticks": 57600,
          "time": 51.428520000000006,
          "velocity": 1
        },
        {
          "duration": 0.21428550000000257,
          "durationTicks": 240,
          "midi": 42,
          "name": "F#2",
          "ticks": 57840,
          "time": 51.6428055,
          "velocity": 1
        },
        {
          "duration": 0.21428550000000257,
          "durationTicks": 240,
          "midi": 42,
          "name": "F#2",
          "ticks": 58080,
          "time": 51.857091000000004,
          "velocity": 1
        },
        {
          "duration": 0.21428550000000257,
          "durationTicks": 240,
          "midi": 38,
          "name": "D2",
          "ticks": 58080,
          "time": 51.857091000000004,
          "velocity": 1
        },
        {
          "duration": 0.21428549999999547,
          "durationTicks": 240,
          "midi": 42,
          "name": "F#2",
          "ticks": 58320,
          "time": 52.07137650000001,
          "velocity": 1
        },
        {
          "duration": 0.21428550000000257,
          "durationTicks": 240,
          "midi": 42,
          "name": "F#2",
          "ticks": 58560,
          "time": 52.285662,
          "velocity": 1
        },
        {
          "duration": 0.21428550000000257,
          "durationTicks": 240,
          "midi": 42,
          "name": "F#2",
          "ticks": 58800,
          "time": 52.499947500000005,
          "velocity": 1
        },
        {
          "duration": 0.21428550000000257,
          "durationTicks": 240,
          "midi": 35,
          "name": "B1",
          "ticks": 58800,
          "time": 52.499947500000005,
          "velocity": 1
        },
        {
          "duration": 0.21428549999999547,
          "durationTicks": 240,
          "midi": 42,
          "name": "F#2",
          "ticks": 59040,
          "time": 52.71423300000001,
          "velocity": 1
        },
        {
          "duration": 0.21428549999999547,
          "durationTicks": 240,
          "midi": 38,
          "name": "D2",
          "ticks": 59040,
          "time": 52.71423300000001,
          "velocity": 1
        },
        {
          "duration": 0.21428550000000257,
          "durationTicks": 240,
          "midi": 42,
          "name": "F#2",
          "ticks": 59280,
          "time": 52.9285185,
          "velocity": 1
        },
        {
          "duration": 0.21428550000000257,
          "durationTicks": 240,
          "midi": 42,
          "name": "F#2",
          "ticks": 59520,
          "time": 53.142804000000005,
          "velocity": 1
        },
        {
          "duration": 0.21428550000000257,
          "durationTicks": 240,
          "midi": 35,
          "name": "B1",
          "ticks": 59520,
          "time": 53.142804000000005,
          "velocity": 1
        },
        {
          "duration": 0.21428549999999547,
          "durationTicks": 240,
          "midi": 42,
          "name": "F#2",
          "ticks": 59760,
          "time": 53.35708950000001,
          "velocity": 1
        },
        {
          "duration": 0.21428549999999547,
          "durationTicks": 240,
          "midi": 35,
          "name": "B1",
          "ticks": 59760,
          "time": 53.35708950000001,
          "velocity": 1
        },
        {
          "duration": 0.21428550000000257,
          "durationTicks": 240,
          "midi": 42,
          "name": "F#2",
          "ticks": 60000,
          "time": 53.571375,
          "velocity": 1
        },
        {
          "duration": 0.21428550000000257,
          "durationTicks": 240,
          "midi": 35,
          "name": "B1",
          "ticks": 60000,
          "time": 53.571375,
          "velocity": 1
        },
        {
          "duration": 0.21428549999999547,
          "durationTicks": 240,
          "midi": 42,
          "name": "F#2",
          "ticks": 60240,
          "time": 53.785660500000006,
          "velocity": 1
        },
        {
          "duration": 0.21428549999999547,
          "durationTicks": 240,
          "midi": 35,
          "name": "B1",
          "ticks": 60240,
          "time": 53.785660500000006,
          "velocity": 1
        },
        {
          "duration": 0.42857100000000514,
          "durationTicks": 480,
          "midi": 46,
          "name": "A#2",
          "ticks": 60480,
          "time": 53.999946,
          "velocity": 1
        },
        {
          "duration": 0.42857100000000514,
          "durationTicks": 480,
          "midi": 35,
          "name": "B1",
          "ticks": 60480,
          "time": 53.999946,
          "velocity": 1
        },
        {
          "duration": 0.42857099999999804,
          "durationTicks": 480,
          "midi": 42,
          "name": "F#2",
          "ticks": 60960,
          "time": 54.42851700000001,
          "velocity": 1
        },
        {
          "duration": 0.42857099999999804,
          "durationTicks": 480,
          "midi": 38,
          "name": "D2",
          "ticks": 60960,
          "time": 54.42851700000001,
          "velocity": 1
        },
        {
          "duration": 0.42857099999999804,
          "durationTicks": 480,
          "midi": 35,
          "name": "B1",
          "ticks": 60960,
          "time": 54.42851700000001,
          "velocity": 1
        },
        {
          "duration": 0.21428550000000257,
          "durationTicks": 240,
          "midi": 42,
          "name": "F#2",
          "ticks": 61440,
          "time": 54.857088000000005,
          "velocity": 1
        },
        {
          "duration": 0.21428550000000257,
          "durationTicks": 240,
          "midi": 35,
          "name": "B1",
          "ticks": 61440,
          "time": 54.857088000000005,
          "velocity": 1
        },
        {
          "duration": 0.21428549999999547,
          "durationTicks": 240,
          "midi": 42,
          "name": "F#2",
          "ticks": 61680,
          "time": 55.07137350000001,
          "velocity": 1
        },
        {
          "duration": 0.21428550000000257,
          "durationTicks": 240,
          "midi": 42,
          "name": "F#2",
          "ticks": 61920,
          "time": 55.285659,
          "velocity": 1
        },
        {
          "duration": 0.21428550000000257,
          "durationTicks": 240,
          "midi": 38,
          "name": "D2",
          "ticks": 61920,
          "time": 55.285659,
          "velocity": 1
        },
        {
          "duration": 0.21428550000000257,
          "durationTicks": 240,
          "midi": 42,
          "name": "F#2",
          "ticks": 62160,
          "time": 55.499944500000005,
          "velocity": 1
        },
        {
          "duration": 0.21428549999999547,
          "durationTicks": 240,
          "midi": 42,
          "name": "F#2",
          "ticks": 62400,
          "time": 55.71423000000001,
          "velocity": 1
        },
        {
          "duration": 0.21428550000000257,
          "durationTicks": 240,
          "midi": 42,
          "name": "F#2",
          "ticks": 62640,
          "time": 55.9285155,
          "velocity": 1
        },
        {
          "duration": 0.21428550000000257,
          "durationTicks": 240,
          "midi": 35,
          "name": "B1",
          "ticks": 62640,
          "time": 55.9285155,
          "velocity": 1
        },
        {
          "duration": 0.21428549999999547,
          "durationTicks": 240,
          "midi": 42,
          "name": "F#2",
          "ticks": 62880,
          "time": 56.142801000000006,
          "velocity": 1
        },
        {
          "duration": 0.21428549999999547,
          "durationTicks": 240,
          "midi": 38,
          "name": "D2",
          "ticks": 62880,
          "time": 56.142801000000006,
          "velocity": 1
        },
        {
          "duration": 0.21428550000000257,
          "durationTicks": 240,
          "midi": 42,
          "name": "F#2",
          "ticks": 63120,
          "time": 56.3570865,
          "velocity": 1
        },
        {
          "duration": 0.21428550000000257,
          "durationTicks": 240,
          "midi": 42,
          "name": "F#2",
          "ticks": 63360,
          "time": 56.571372000000004,
          "velocity": 1
        },
        {
          "duration": 0.21428550000000257,
          "durationTicks": 240,
          "midi": 35,
          "name": "B1",
          "ticks": 63360,
          "time": 56.571372000000004,
          "velocity": 1
        },
        {
          "duration": 0.21428549999999547,
          "durationTicks": 240,
          "midi": 42,
          "name": "F#2",
          "ticks": 63600,
          "time": 56.785657500000006,
          "velocity": 1
        },
        {
          "duration": 0.21428550000000257,
          "durationTicks": 240,
          "midi": 42,
          "name": "F#2",
          "ticks": 63840,
          "time": 56.999943,
          "velocity": 1
        },
        {
          "duration": 0.21428550000000257,
          "durationTicks": 240,
          "midi": 38,
          "name": "D2",
          "ticks": 63840,
          "time": 56.999943,
          "velocity": 1
        },
        {
          "duration": 0.21428550000000257,
          "durationTicks": 240,
          "midi": 42,
          "name": "F#2",
          "ticks": 64080,
          "time": 57.214228500000004,
          "velocity": 1
        },
        {
          "duration": 0.21428549999999547,
          "durationTicks": 240,
          "midi": 42,
          "name": "F#2",
          "ticks": 64320,
          "time": 57.42851400000001,
          "velocity": 1
        },
        {
          "duration": 0.21428550000000257,
          "durationTicks": 240,
          "midi": 42,
          "name": "F#2",
          "ticks": 64560,
          "time": 57.6427995,
          "velocity": 1
        },
        {
          "duration": 0.21428550000000257,
          "durationTicks": 240,
          "midi": 35,
          "name": "B1",
          "ticks": 64560,
          "time": 57.6427995,
          "velocity": 1
        },
        {
          "duration": 0.21428550000000257,
          "durationTicks": 240,
          "midi": 42,
          "name": "F#2",
          "ticks": 64800,
          "time": 57.857085000000005,
          "velocity": 1
        },
        {
          "duration": 0.21428550000000257,
          "durationTicks": 240,
          "midi": 38,
          "name": "D2",
          "ticks": 64800,
          "time": 57.857085000000005,
          "velocity": 1
        },
        {
          "duration": 0.21428549999999547,
          "durationTicks": 240,
          "midi": 42,
          "name": "F#2",
          "ticks": 65040,
          "time": 58.07137050000001,
          "velocity": 1
        },
        {
          "duration": 0.21428550000000257,
          "durationTicks": 240,
          "midi": 42,
          "name": "F#2",
          "ticks": 65280,
          "time": 58.285656,
          "velocity": 1
        },
        {
          "duration": 0.21428550000000257,
          "durationTicks": 240,
          "midi": 35,
          "name": "B1",
          "ticks": 65280,
          "time": 58.285656,
          "velocity": 1
        },
        {
          "duration": 0.21428550000000257,
          "durationTicks": 240,
          "midi": 42,
          "name": "F#2",
          "ticks": 65520,
          "time": 58.499941500000006,
          "velocity": 1
        },
        {
          "duration": 0.21428549999999547,
          "durationTicks": 240,
          "midi": 42,
          "name": "F#2",
          "ticks": 65760,
          "time": 58.71422700000001,
          "velocity": 1
        },
        {
          "duration": 0.21428549999999547,
          "durationTicks": 240,
          "midi": 38,
          "name": "D2",
          "ticks": 65760,
          "time": 58.71422700000001,
          "velocity": 1
        },
        {
          "duration": 0.21428550000000257,
          "durationTicks": 240,
          "midi": 42,
          "name": "F#2",
          "ticks": 66000,
          "time": 58.928512500000004,
          "velocity": 1
        },
        {
          "duration": 0.21428549999999547,
          "durationTicks": 240,
          "midi": 42,
          "name": "F#2",
          "ticks": 66240,
          "time": 59.142798000000006,
          "velocity": 1
        },
        {
          "duration": 0.21428550000000257,
          "durationTicks": 240,
          "midi": 42,
          "name": "F#2",
          "ticks": 66480,
          "time": 59.3570835,
          "velocity": 1
        },
        {
          "duration": 0.21428550000000257,
          "durationTicks": 240,
          "midi": 35,
          "name": "B1",
          "ticks": 66480,
          "time": 59.3570835,
          "velocity": 1
        },
        {
          "duration": 0.21428550000000257,
          "durationTicks": 240,
          "midi": 42,
          "name": "F#2",
          "ticks": 66720,
          "time": 59.571369000000004,
          "velocity": 1
        },
        {
          "duration": 0.21428550000000257,
          "durationTicks": 240,
          "midi": 38,
          "name": "D2",
          "ticks": 66720,
          "time": 59.571369000000004,
          "velocity": 1
        },
        {
          "duration": 0.21428549999999547,
          "durationTicks": 240,
          "midi": 42,
          "name": "F#2",
          "ticks": 66960,
          "time": 59.78565450000001,
          "velocity": 1
        },
        {
          "duration": 0.21428550000000257,
          "durationTicks": 240,
          "midi": 42,
          "name": "F#2",
          "ticks": 67200,
          "time": 59.99994,
          "velocity": 1
        },
        {
          "duration": 0.21428550000000257,
          "durationTicks": 240,
          "midi": 35,
          "name": "B1",
          "ticks": 67200,
          "time": 59.99994,
          "velocity": 1
        },
        {
          "duration": 0.21428550000000257,
          "durationTicks": 240,
          "midi": 42,
          "name": "F#2",
          "ticks": 67440,
          "time": 60.214225500000005,
          "velocity": 1
        },
        {
          "duration": 0.21428549999999547,
          "durationTicks": 240,
          "midi": 42,
          "name": "F#2",
          "ticks": 67680,
          "time": 60.42851100000001,
          "velocity": 1
        },
        {
          "duration": 0.21428549999999547,
          "durationTicks": 240,
          "midi": 38,
          "name": "D2",
          "ticks": 67680,
          "time": 60.42851100000001,
          "velocity": 1
        },
        {
          "duration": 0.21428550000000257,
          "durationTicks": 240,
          "midi": 42,
          "name": "F#2",
          "ticks": 67920,
          "time": 60.6427965,
          "velocity": 1
        },
        {
          "duration": 0.21428550000000257,
          "durationTicks": 240,
          "midi": 42,
          "name": "F#2",
          "ticks": 68160,
          "time": 60.857082000000005,
          "velocity": 1
        },
        {
          "duration": 0.21428549999999547,
          "durationTicks": 240,
          "midi": 42,
          "name": "F#2",
          "ticks": 68400,
          "time": 61.07136750000001,
          "velocity": 1
        },
        {
          "duration": 0.21428549999999547,
          "durationTicks": 240,
          "midi": 35,
          "name": "B1",
          "ticks": 68400,
          "time": 61.07136750000001,
          "velocity": 1
        },
        {
          "duration": 0.21428550000000257,
          "durationTicks": 240,
          "midi": 42,
          "name": "F#2",
          "ticks": 68640,
          "time": 61.285653,
          "velocity": 1
        },
        {
          "duration": 0.21428550000000257,
          "durationTicks": 240,
          "midi": 38,
          "name": "D2",
          "ticks": 68640,
          "time": 61.285653,
          "velocity": 1
        },
        {
          "duration": 0.21428549999999547,
          "durationTicks": 240,
          "midi": 42,
          "name": "F#2",
          "ticks": 68880,
          "time": 61.499938500000006,
          "velocity": 1
        },
        {
          "duration": 0.21428550000000257,
          "durationTicks": 240,
          "midi": 42,
          "name": "F#2",
          "ticks": 69120,
          "time": 61.714224,
          "velocity": 1
        },
        {
          "duration": 0.21428550000000257,
          "durationTicks": 240,
          "midi": 35,
          "name": "B1",
          "ticks": 69120,
          "time": 61.714224,
          "velocity": 1
        },
        {
          "duration": 0.21428550000000257,
          "durationTicks": 240,
          "midi": 42,
          "name": "F#2",
          "ticks": 69360,
          "time": 61.928509500000004,
          "velocity": 1
        },
        {
          "duration": 0.21428549999999547,
          "durationTicks": 240,
          "midi": 42,
          "name": "F#2",
          "ticks": 69600,
          "time": 62.14279500000001,
          "velocity": 1
        },
        {
          "duration": 0.21428549999999547,
          "durationTicks": 240,
          "midi": 38,
          "name": "D2",
          "ticks": 69600,
          "time": 62.14279500000001,
          "velocity": 1
        },
        {
          "duration": 0.21428550000000257,
          "durationTicks": 240,
          "midi": 42,
          "name": "F#2",
          "ticks": 69840,
          "time": 62.3570805,
          "velocity": 1
        },
        {
          "duration": 0.21428550000000257,
          "durationTicks": 240,
          "midi": 42,
          "name": "F#2",
          "ticks": 70080,
          "time": 62.571366000000005,
          "velocity": 1
        },
        {
          "duration": 0.21428549999999547,
          "durationTicks": 240,
          "midi": 42,
          "name": "F#2",
          "ticks": 70320,
          "time": 62.78565150000001,
          "velocity": 1
        },
        {
          "duration": 0.21428549999999547,
          "durationTicks": 240,
          "midi": 35,
          "name": "B1",
          "ticks": 70320,
          "time": 62.78565150000001,
          "velocity": 1
        },
        {
          "duration": 0.21428550000000257,
          "durationTicks": 240,
          "midi": 42,
          "name": "F#2",
          "ticks": 70560,
          "time": 62.999937,
          "velocity": 1
        },
        {
          "duration": 0.21428550000000257,
          "durationTicks": 240,
          "midi": 38,
          "name": "D2",
          "ticks": 70560,
          "time": 62.999937,
          "velocity": 1
        },
        {
          "duration": 0.21428550000000257,
          "durationTicks": 240,
          "midi": 42,
          "name": "F#2",
          "ticks": 70800,
          "time": 63.214222500000005,
          "velocity": 1
        },
        {
          "duration": 0.21428549999999547,
          "durationTicks": 240,
          "midi": 42,
          "name": "F#2",
          "ticks": 71040,
          "time": 63.42850800000001,
          "velocity": 1
        },
        {
          "duration": 0.21428549999999547,
          "durationTicks": 240,
          "midi": 35,
          "name": "B1",
          "ticks": 71040,
          "time": 63.42850800000001,
          "velocity": 1
        },
        {
          "duration": 0.21428550000000257,
          "durationTicks": 240,
          "midi": 42,
          "name": "F#2",
          "ticks": 71280,
          "time": 63.6427935,
          "velocity": 1
        },
        {
          "duration": 0.21428549999999547,
          "durationTicks": 240,
          "midi": 42,
          "name": "F#2",
          "ticks": 71520,
          "time": 63.857079000000006,
          "velocity": 1
        },
        {
          "duration": 0.21428549999999547,
          "durationTicks": 240,
          "midi": 38,
          "name": "D2",
          "ticks": 71520,
          "time": 63.857079000000006,
          "velocity": 1
        },
        {
          "duration": 0.21428550000000257,
          "durationTicks": 240,
          "midi": 42,
          "name": "F#2",
          "ticks": 71760,
          "time": 64.0713645,
          "velocity": 1
        },
        {
          "duration": 0.21428550000000257,
          "durationTicks": 240,
          "midi": 42,
          "name": "F#2",
          "ticks": 72000,
          "time": 64.28565,
          "velocity": 1
        },
        {
          "duration": 0.21428550000000257,
          "durationTicks": 240,
          "midi": 42,
          "name": "F#2",
          "ticks": 72240,
          "time": 64.4999355,
          "velocity": 1
        },
        {
          "duration": 0.21428550000000257,
          "durationTicks": 240,
          "midi": 35,
          "name": "B1",
          "ticks": 72240,
          "time": 64.4999355,
          "velocity": 1
        },
        {
          "duration": 0.21428550000000257,
          "durationTicks": 240,
          "midi": 42,
          "name": "F#2",
          "ticks": 72480,
          "time": 64.71422100000001,
          "velocity": 1
        },
        {
          "duration": 0.21428550000000257,
          "durationTicks": 240,
          "midi": 38,
          "name": "D2",
          "ticks": 72480,
          "time": 64.71422100000001,
          "velocity": 1
        },
        {
          "duration": 0.21428549999998836,
          "durationTicks": 240,
          "midi": 42,
          "name": "F#2",
          "ticks": 72720,
          "time": 64.92850650000001,
          "velocity": 1
        },
        {
          "duration": 0.21428550000000257,
          "durationTicks": 240,
          "midi": 42,
          "name": "F#2",
          "ticks": 72960,
          "time": 65.142792,
          "velocity": 1
        },
        {
          "duration": 0.21428550000000257,
          "durationTicks": 240,
          "midi": 35,
          "name": "B1",
          "ticks": 72960,
          "time": 65.142792,
          "velocity": 1
        },
        {
          "duration": 0.21428550000000257,
          "durationTicks": 240,
          "midi": 42,
          "name": "F#2",
          "ticks": 73200,
          "time": 65.3570775,
          "velocity": 1
        },
        {
          "duration": 0.21428550000000257,
          "durationTicks": 240,
          "midi": 42,
          "name": "F#2",
          "ticks": 73440,
          "time": 65.571363,
          "velocity": 1
        },
        {
          "duration": 0.21428550000000257,
          "durationTicks": 240,
          "midi": 45,
          "name": "A2",
          "ticks": 73440,
          "time": 65.571363,
          "velocity": 1
        },
        {
          "duration": 0.21428550000000257,
          "durationTicks": 240,
          "midi": 42,
          "name": "F#2",
          "ticks": 73680,
          "time": 65.78564850000001,
          "velocity": 1
        },
        {
          "duration": 0.21428550000000257,
          "durationTicks": 240,
          "midi": 45,
          "name": "A2",
          "ticks": 73680,
          "time": 65.78564850000001,
          "velocity": 1
        },
        {
          "duration": 0.21428549999998836,
          "durationTicks": 240,
          "midi": 42,
          "name": "F#2",
          "ticks": 73920,
          "time": 65.99993400000001,
          "velocity": 1
        },
        {
          "duration": 0.21428550000000257,
          "durationTicks": 240,
          "midi": 42,
          "name": "F#2",
          "ticks": 74160,
          "time": 66.2142195,
          "velocity": 1
        },
        {
          "duration": 0.21428550000000257,
          "durationTicks": 240,
          "midi": 42,
          "name": "F#2",
          "ticks": 74400,
          "time": 66.428505,
          "velocity": 1
        },
        {
          "duration": 0.21428550000000257,
          "durationTicks": 240,
          "midi": 45,
          "name": "A2",
          "ticks": 74400,
          "time": 66.428505,
          "velocity": 1
        },
        {
          "duration": 0.21428550000000257,
          "durationTicks": 240,
          "midi": 42,
          "name": "F#2",
          "ticks": 74640,
          "time": 66.6427905,
          "velocity": 1
        },
        {
          "duration": 0.21428550000000257,
          "durationTicks": 240,
          "midi": 42,
          "name": "F#2",
          "ticks": 74880,
          "time": 66.857076,
          "velocity": 1
        },
        {
          "duration": 0.21428550000000257,
          "durationTicks": 240,
          "midi": 42,
          "name": "F#2",
          "ticks": 75120,
          "time": 67.07136150000001,
          "velocity": 1
        },
        {
          "duration": 0.21428549999998836,
          "durationTicks": 240,
          "midi": 42,
          "name": "F#2",
          "ticks": 75360,
          "time": 67.28564700000001,
          "velocity": 1
        },
        {
          "duration": 0.21428549999998836,
          "durationTicks": 240,
          "midi": 45,
          "name": "A2",
          "ticks": 75360,
          "time": 67.28564700000001,
          "velocity": 1
        },
        {
          "duration": 0.21428550000000257,
          "durationTicks": 240,
          "midi": 42,
          "name": "F#2",
          "ticks": 75600,
          "time": 67.4999325,
          "velocity": 1
        },
        {
          "duration": 0.21428550000000257,
          "durationTicks": 240,
          "midi": 45,
          "name": "A2",
          "ticks": 75600,
          "time": 67.4999325,
          "velocity": 1
        },
        {
          "duration": 0.21428550000000257,
          "durationTicks": 240,
          "midi": 42,
          "name": "F#2",
          "ticks": 75840,
          "time": 67.714218,
          "velocity": 1
        },
        {
          "duration": 0.21428550000000257,
          "durationTicks": 240,
          "midi": 42,
          "name": "F#2",
          "ticks": 76080,
          "time": 67.9285035,
          "velocity": 1
        },
        {
          "duration": 0.21428550000000257,
          "durationTicks": 240,
          "midi": 42,
          "name": "F#2",
          "ticks": 76320,
          "time": 68.14278900000001,
          "velocity": 1
        },
        {
          "duration": 0.21428550000000257,
          "durationTicks": 240,
          "midi": 45,
          "name": "A2",
          "ticks": 76320,
          "time": 68.14278900000001,
          "velocity": 1
        },
        {
          "duration": 0.21428549999998836,
          "durationTicks": 240,
          "midi": 42,
          "name": "F#2",
          "ticks": 76560,
          "time": 68.35707450000001,
          "velocity": 1
        },
        {
          "duration": 0.21428550000000257,
          "durationTicks": 240,
          "midi": 42,
          "name": "F#2",
          "ticks": 76800,
          "time": 68.57136,
          "velocity": 1
        },
        {
          "duration": 0.21428550000000257,
          "durationTicks": 240,
          "midi": 42,
          "name": "F#2",
          "ticks": 77040,
          "time": 68.7856455,
          "velocity": 1
        },
        {
          "duration": 0.21428550000000257,
          "durationTicks": 240,
          "midi": 42,
          "name": "F#2",
          "ticks": 77280,
          "time": 68.999931,
          "velocity": 1
        },
        {
          "duration": 0.21428550000000257,
          "durationTicks": 240,
          "midi": 45,
          "name": "A2",
          "ticks": 77280,
          "time": 68.999931,
          "velocity": 1
        },
        {
          "duration": 0.21428550000000257,
          "durationTicks": 240,
          "midi": 42,
          "name": "F#2",
          "ticks": 77520,
          "time": 69.2142165,
          "velocity": 1
        },
        {
          "duration": 0.21428550000000257,
          "durationTicks": 240,
          "midi": 45,
          "name": "A2",
          "ticks": 77520,
          "time": 69.2142165,
          "velocity": 1
        },
        {
          "duration": 0.21428550000000257,
          "durationTicks": 240,
          "midi": 42,
          "name": "F#2",
          "ticks": 77760,
          "time": 69.42850200000001,
          "velocity": 1
        },
        {
          "duration": 0.21428549999998836,
          "durationTicks": 240,
          "midi": 42,
          "name": "F#2",
          "ticks": 78000,
          "time": 69.64278750000001,
          "velocity": 1
        },
        {
          "duration": 0.21428550000000257,
          "durationTicks": 240,
          "midi": 42,
          "name": "F#2",
          "ticks": 78240,
          "time": 69.857073,
          "velocity": 1
        },
        {
          "duration": 0.21428550000000257,
          "durationTicks": 240,
          "midi": 45,
          "name": "A2",
          "ticks": 78240,
          "time": 69.857073,
          "velocity": 1
        },
        {
          "duration": 0.21428550000000257,
          "durationTicks": 240,
          "midi": 42,
          "name": "F#2",
          "ticks": 78480,
          "time": 70.0713585,
          "velocity": 1
        },
        {
          "duration": 0.21428550000000257,
          "durationTicks": 240,
          "midi": 42,
          "name": "F#2",
          "ticks": 78720,
          "time": 70.285644,
          "velocity": 1
        },
        {
          "duration": 0.21428550000000257,
          "durationTicks": 240,
          "midi": 35,
          "name": "B1",
          "ticks": 78720,
          "time": 70.285644,
          "velocity": 1
        },
        {
          "duration": 0.21428550000000257,
          "durationTicks": 240,
          "midi": 42,
          "name": "F#2",
          "ticks": 78960,
          "time": 70.49992950000001,
          "velocity": 1
        },
        {
          "duration": 0.21428550000000257,
          "durationTicks": 240,
          "midi": 42,
          "name": "F#2",
          "ticks": 79200,
          "time": 70.71421500000001,
          "velocity": 1
        },
        {
          "duration": 0.21428550000000257,
          "durationTicks": 240,
          "midi": 38,
          "name": "D2",
          "ticks": 79200,
          "time": 70.71421500000001,
          "velocity": 1
        },
        {
          "duration": 0.21428549999998836,
          "durationTicks": 240,
          "midi": 42,
          "name": "F#2",
          "ticks": 79440,
          "time": 70.92850050000001,
          "velocity": 1
        },
        {
          "duration": 0.21428550000000257,
          "durationTicks": 240,
          "midi": 42,
          "name": "F#2",
          "ticks": 79680,
          "time": 71.142786,
          "velocity": 1
        },
        {
          "duration": 0.21428550000000257,
          "durationTicks": 240,
          "midi": 42,
          "name": "F#2",
          "ticks": 79920,
          "time": 71.3570715,
          "velocity": 1
        },
        {
          "duration": 0.21428550000000257,
          "durationTicks": 240,
          "midi": 35,
          "name": "B1",
          "ticks": 79920,
          "time": 71.3570715,
          "velocity": 1
        },
        {
          "duration": 0.21428550000000257,
          "durationTicks": 240,
          "midi": 42,
          "name": "F#2",
          "ticks": 80160,
          "time": 71.571357,
          "velocity": 1
        },
        {
          "duration": 0.21428550000000257,
          "durationTicks": 240,
          "midi": 38,
          "name": "D2",
          "ticks": 80160,
          "time": 71.571357,
          "velocity": 1
        },
        {
          "duration": 0.21428550000000257,
          "durationTicks": 240,
          "midi": 42,
          "name": "F#2",
          "ticks": 80400,
          "time": 71.78564250000001,
          "velocity": 1
        },
        {
          "duration": 0.21428549999998836,
          "durationTicks": 240,
          "midi": 42,
          "name": "F#2",
          "ticks": 80640,
          "time": 71.99992800000001,
          "velocity": 1
        },
        {
          "duration": 0.21428549999998836,
          "durationTicks": 240,
          "midi": 35,
          "name": "B1",
          "ticks": 80640,
          "time": 71.99992800000001,
          "velocity": 1
        },
        {
          "duration": 0.21428550000000257,
          "durationTicks": 240,
          "midi": 42,
          "name": "F#2",
          "ticks": 80880,
          "time": 72.2142135,
          "velocity": 1
        },
        {
          "duration": 0.21428550000000257,
          "durationTicks": 240,
          "midi": 42,
          "name": "F#2",
          "ticks": 81120,
          "time": 72.428499,
          "velocity": 1
        },
        {
          "duration": 0.21428550000000257,
          "durationTicks": 240,
          "midi": 38,
          "name": "D2",
          "ticks": 81120,
          "time": 72.428499,
          "velocity": 1
        },
        {
          "duration": 0.21428550000000257,
          "durationTicks": 240,
          "midi": 42,
          "name": "F#2",
          "ticks": 81360,
          "time": 72.6427845,
          "velocity": 1
        },
        {
          "duration": 0.21428550000000257,
          "durationTicks": 240,
          "midi": 42,
          "name": "F#2",
          "ticks": 81600,
          "time": 72.85707000000001,
          "velocity": 1
        },
        {
          "duration": 0.21428550000000257,
          "durationTicks": 240,
          "midi": 42,
          "name": "F#2",
          "ticks": 81840,
          "time": 73.07135550000001,
          "velocity": 1
        },
        {
          "duration": 0.21428550000000257,
          "durationTicks": 240,
          "midi": 35,
          "name": "B1",
          "ticks": 81840,
          "time": 73.07135550000001,
          "velocity": 1
        },
        {
          "duration": 0.21428549999998836,
          "durationTicks": 240,
          "midi": 42,
          "name": "F#2",
          "ticks": 82080,
          "time": 73.28564100000001,
          "velocity": 1
        },
        {
          "duration": 0.21428549999998836,
          "durationTicks": 240,
          "midi": 38,
          "name": "D2",
          "ticks": 82080,
          "time": 73.28564100000001,
          "velocity": 1
        },
        {
          "duration": 0.21428550000000257,
          "durationTicks": 240,
          "midi": 42,
          "name": "F#2",
          "ticks": 82320,
          "time": 73.4999265,
          "velocity": 1
        },
        {
          "duration": 0.21428550000000257,
          "durationTicks": 240,
          "midi": 42,
          "name": "F#2",
          "ticks": 82560,
          "time": 73.714212,
          "velocity": 1
        },
        {
          "duration": 0.21428550000000257,
          "durationTicks": 240,
          "midi": 35,
          "name": "B1",
          "ticks": 82560,
          "time": 73.714212,
          "velocity": 1
        },
        {
          "duration": 0.21428550000000257,
          "durationTicks": 240,
          "midi": 42,
          "name": "F#2",
          "ticks": 82800,
          "time": 73.9284975,
          "velocity": 1
        },
        {
          "duration": 0.21428550000000257,
          "durationTicks": 240,
          "midi": 42,
          "name": "F#2",
          "ticks": 83040,
          "time": 74.14278300000001,
          "velocity": 1
        },
        {
          "duration": 0.21428550000000257,
          "durationTicks": 240,
          "midi": 38,
          "name": "D2",
          "ticks": 83040,
          "time": 74.14278300000001,
          "velocity": 1
        },
        {
          "duration": 0.21428549999998836,
          "durationTicks": 240,
          "midi": 42,
          "name": "F#2",
          "ticks": 83280,
          "time": 74.35706850000001,
          "velocity": 1
        },
        {
          "duration": 0.21428550000000257,
          "durationTicks": 240,
          "midi": 42,
          "name": "F#2",
          "ticks": 83520,
          "time": 74.571354,
          "velocity": 1
        },
        {
          "duration": 0.21428550000000257,
          "durationTicks": 240,
          "midi": 42,
          "name": "F#2",
          "ticks": 83760,
          "time": 74.7856395,
          "velocity": 1
        },
        {
          "duration": 0.21428550000000257,
          "durationTicks": 240,
          "midi": 35,
          "name": "B1",
          "ticks": 83760,
          "time": 74.7856395,
          "velocity": 1
        },
        {
          "duration": 0.21428550000000257,
          "durationTicks": 240,
          "midi": 42,
          "name": "F#2",
          "ticks": 84000,
          "time": 74.999925,
          "velocity": 1
        },
        {
          "duration": 0.21428550000000257,
          "durationTicks": 240,
          "midi": 38,
          "name": "D2",
          "ticks": 84000,
          "time": 74.999925,
          "velocity": 1
        },
        {
          "duration": 0.21428550000000257,
          "durationTicks": 240,
          "midi": 42,
          "name": "F#2",
          "ticks": 84240,
          "time": 75.21421050000001,
          "velocity": 1
        },
        {
          "duration": 0.21428550000000257,
          "durationTicks": 240,
          "midi": 42,
          "name": "F#2",
          "ticks": 84480,
          "time": 75.42849600000001,
          "velocity": 1
        },
        {
          "duration": 0.21428550000000257,
          "durationTicks": 240,
          "midi": 35,
          "name": "B1",
          "ticks": 84480,
          "time": 75.42849600000001,
          "velocity": 1
        },
        {
          "duration": 0.21428549999998836,
          "durationTicks": 240,
          "midi": 42,
          "name": "F#2",
          "ticks": 84720,
          "time": 75.64278150000001,
          "velocity": 1
        },
        {
          "duration": 0.21428550000000257,
          "durationTicks": 240,
          "midi": 42,
          "name": "F#2",
          "ticks": 84960,
          "time": 75.857067,
          "velocity": 1
        },
        {
          "duration": 0.21428550000000257,
          "durationTicks": 240,
          "midi": 38,
          "name": "D2",
          "ticks": 84960,
          "time": 75.857067,
          "velocity": 1
        },
        {
          "duration": 0.21428550000000257,
          "durationTicks": 240,
          "midi": 42,
          "name": "F#2",
          "ticks": 85200,
          "time": 76.0713525,
          "velocity": 1
        },
        {
          "duration": 0.21428550000000257,
          "durationTicks": 240,
          "midi": 42,
          "name": "F#2",
          "ticks": 85440,
          "time": 76.285638,
          "velocity": 1
        },
        {
          "duration": 0.21428550000000257,
          "durationTicks": 240,
          "midi": 42,
          "name": "F#2",
          "ticks": 85680,
          "time": 76.49992350000001,
          "velocity": 1
        },
        {
          "duration": 0.21428550000000257,
          "durationTicks": 240,
          "midi": 35,
          "name": "B1",
          "ticks": 85680,
          "time": 76.49992350000001,
          "velocity": 1
        },
        {
          "duration": 0.21428549999998836,
          "durationTicks": 240,
          "midi": 42,
          "name": "F#2",
          "ticks": 85920,
          "time": 76.71420900000001,
          "velocity": 1
        },
        {
          "duration": 0.21428549999998836,
          "durationTicks": 240,
          "midi": 38,
          "name": "D2",
          "ticks": 85920,
          "time": 76.71420900000001,
          "velocity": 1
        },
        {
          "duration": 0.21428550000000257,
          "durationTicks": 240,
          "midi": 42,
          "name": "F#2",
          "ticks": 86160,
          "time": 76.9284945,
          "velocity": 1
        },
        {
          "duration": 0.21428550000000257,
          "durationTicks": 240,
          "midi": 42,
          "name": "F#2",
          "ticks": 86400,
          "time": 77.14278,
          "velocity": 1
        },
        {
          "duration": 0.21428550000000257,
          "durationTicks": 240,
          "midi": 35,
          "name": "B1",
          "ticks": 86400,
          "time": 77.14278,
          "velocity": 1
        },
        {
          "duration": 0.21428550000000257,
          "durationTicks": 240,
          "midi": 42,
          "name": "F#2",
          "ticks": 86640,
          "time": 77.3570655,
          "velocity": 1
        },
        {
          "duration": 0.21428550000000257,
          "durationTicks": 240,
          "midi": 42,
          "name": "F#2",
          "ticks": 86880,
          "time": 77.571351,
          "velocity": 1
        },
        {
          "duration": 0.21428550000000257,
          "durationTicks": 240,
          "midi": 38,
          "name": "D2",
          "ticks": 86880,
          "time": 77.571351,
          "velocity": 1
        },
        {
          "duration": 0.21428550000000257,
          "durationTicks": 240,
          "midi": 42,
          "name": "F#2",
          "ticks": 87120,
          "time": 77.78563650000001,
          "velocity": 1
        },
        {
          "duration": 0.21428549999998836,
          "durationTicks": 240,
          "midi": 42,
          "name": "F#2",
          "ticks": 87360,
          "time": 77.99992200000001,
          "velocity": 1
        },
        {
          "duration": 0.21428550000000257,
          "durationTicks": 240,
          "midi": 42,
          "name": "F#2",
          "ticks": 87600,
          "time": 78.2142075,
          "velocity": 1
        },
        {
          "duration": 0.21428550000000257,
          "durationTicks": 240,
          "midi": 35,
          "name": "B1",
          "ticks": 87600,
          "time": 78.2142075,
          "velocity": 1
        },
        {
          "duration": 0.21428550000000257,
          "durationTicks": 240,
          "midi": 42,
          "name": "F#2",
          "ticks": 87840,
          "time": 78.428493,
          "velocity": 1
        },
        {
          "duration": 0.21428550000000257,
          "durationTicks": 240,
          "midi": 38,
          "name": "D2",
          "ticks": 87840,
          "time": 78.428493,
          "velocity": 1
        },
        {
          "duration": 0.21428550000000257,
          "durationTicks": 240,
          "midi": 42,
          "name": "F#2",
          "ticks": 88080,
          "time": 78.6427785,
          "velocity": 1
        },
        {
          "duration": 0.21428550000000257,
          "durationTicks": 240,
          "midi": 42,
          "name": "F#2",
          "ticks": 88320,
          "time": 78.85706400000001,
          "velocity": 1
        },
        {
          "duration": 0.21428550000000257,
          "durationTicks": 240,
          "midi": 35,
          "name": "B1",
          "ticks": 88320,
          "time": 78.85706400000001,
          "velocity": 1
        },
        {
          "duration": 0.21428550000000257,
          "durationTicks": 240,
          "midi": 42,
          "name": "F#2",
          "ticks": 88560,
          "time": 79.07134950000001,
          "velocity": 1
        },
        {
          "duration": 0.21428549999998836,
          "durationTicks": 240,
          "midi": 42,
          "name": "F#2",
          "ticks": 88800,
          "time": 79.28563500000001,
          "velocity": 1
        },
        {
          "duration": 0.21428549999998836,
          "durationTicks": 240,
          "midi": 38,
          "name": "D2",
          "ticks": 88800,
          "time": 79.28563500000001,
          "velocity": 1
        },
        {
          "duration": 0.21428550000000257,
          "durationTicks": 240,
          "midi": 42,
          "name": "F#2",
          "ticks": 89040,
          "time": 79.4999205,
          "velocity": 1
        },
        {
          "duration": 0.21428550000000257,
          "durationTicks": 240,
          "midi": 42,
          "name": "F#2",
          "ticks": 89280,
          "time": 79.714206,
          "velocity": 1
        },
        {
          "duration": 0.21428550000000257,
          "durationTicks": 240,
          "midi": 42,
          "name": "F#2",
          "ticks": 89520,
          "time": 79.9284915,
          "velocity": 1
        },
        {
          "duration": 0.21428550000000257,
          "durationTicks": 240,
          "midi": 35,
          "name": "B1",
          "ticks": 89520,
          "time": 79.9284915,
          "velocity": 1
        },
        {
          "duration": 0.21428550000000257,
          "durationTicks": 240,
          "midi": 42,
          "name": "F#2",
          "ticks": 89760,
          "time": 80.14277700000001,
          "velocity": 1
        },
        {
          "duration": 0.21428550000000257,
          "durationTicks": 240,
          "midi": 38,
          "name": "D2",
          "ticks": 89760,
          "time": 80.14277700000001,
          "velocity": 1
        },
        {
          "duration": 0.21428549999998836,
          "durationTicks": 240,
          "midi": 42,
          "name": "F#2",
          "ticks": 90000,
          "time": 80.35706250000001,
          "velocity": 1
        },
        {
          "duration": 0.21428550000000257,
          "durationTicks": 240,
          "midi": 42,
          "name": "F#2",
          "ticks": 90240,
          "time": 80.571348,
          "velocity": 1
        },
        {
          "duration": 0.21428550000000257,
          "durationTicks": 240,
          "midi": 35,
          "name": "B1",
          "ticks": 90240,
          "time": 80.571348,
          "velocity": 1
        },
        {
          "duration": 0.21428550000000257,
          "durationTicks": 240,
          "midi": 42,
          "name": "F#2",
          "ticks": 90480,
          "time": 80.7856335,
          "velocity": 1
        },
        {
          "duration": 0.21428550000000257,
          "durationTicks": 240,
          "midi": 42,
          "name": "F#2",
          "ticks": 90720,
          "time": 80.999919,
          "velocity": 1
        },
        {
          "duration": 0.21428550000000257,
          "durationTicks": 240,
          "midi": 38,
          "name": "D2",
          "ticks": 90720,
          "time": 80.999919,
          "velocity": 1
        },
        {
          "duration": 0.21428550000000257,
          "durationTicks": 240,
          "midi": 42,
          "name": "F#2",
          "ticks": 90960,
          "time": 81.21420450000001,
          "velocity": 1
        },
        {
          "duration": 0.21428550000000257,
          "durationTicks": 240,
          "midi": 42,
          "name": "F#2",
          "ticks": 91200,
          "time": 81.42849000000001,
          "velocity": 1
        },
        {
          "duration": 0.21428549999998836,
          "durationTicks": 240,
          "midi": 42,
          "name": "F#2",
          "ticks": 91440,
          "time": 81.64277550000001,
          "velocity": 1
        },
        {
          "duration": 0.21428549999998836,
          "durationTicks": 240,
          "midi": 35,
          "name": "B1",
          "ticks": 91440,
          "time": 81.64277550000001,
          "velocity": 1
        },
        {
          "duration": 0.21428550000000257,
          "durationTicks": 240,
          "midi": 42,
          "name": "F#2",
          "ticks": 91680,
          "time": 81.857061,
          "velocity": 1
        },
        {
          "duration": 0.21428550000000257,
          "durationTicks": 240,
          "midi": 38,
          "name": "D2",
          "ticks": 91680,
          "time": 81.857061,
          "velocity": 1
        },
        {
          "duration": 0.21428550000000257,
          "durationTicks": 240,
          "midi": 42,
          "name": "F#2",
          "ticks": 91920,
          "time": 82.0713465,
          "velocity": 1
        },
        {
          "duration": 0.21428550000000257,
          "durationTicks": 240,
          "midi": 42,
          "name": "F#2",
          "ticks": 92160,
          "time": 82.285632,
          "velocity": 1
        },
        {
          "duration": 0.21428550000000257,
          "durationTicks": 240,
          "midi": 35,
          "name": "B1",
          "ticks": 92160,
          "time": 82.285632,
          "velocity": 1
        },
        {
          "duration": 0.21428550000000257,
          "durationTicks": 240,
          "midi": 42,
          "name": "F#2",
          "ticks": 92400,
          "time": 82.49991750000001,
          "velocity": 1
        },
        {
          "duration": 0.21428549999998836,
          "durationTicks": 240,
          "midi": 42,
          "name": "F#2",
          "ticks": 92640,
          "time": 82.71420300000001,
          "velocity": 1
        },
        {
          "duration": 0.21428549999998836,
          "durationTicks": 240,
          "midi": 38,
          "name": "D2",
          "ticks": 92640,
          "time": 82.71420300000001,
          "velocity": 1
        },
        {
          "duration": 0.21428550000000257,
          "durationTicks": 240,
          "midi": 42,
          "name": "F#2",
          "ticks": 92880,
          "time": 82.9284885,
          "velocity": 1
        },
        {
          "duration": 0.21428550000000257,
          "durationTicks": 240,
          "midi": 42,
          "name": "F#2",
          "ticks": 93120,
          "time": 83.142774,
          "velocity": 1
        },
        {
          "duration": 0.21428550000000257,
          "durationTicks": 240,
          "midi": 42,
          "name": "F#2",
          "ticks": 93360,
          "time": 83.3570595,
          "velocity": 1
        },
        {
          "duration": 0.21428550000000257,
          "durationTicks": 240,
          "midi": 35,
          "name": "B1",
          "ticks": 93360,
          "time": 83.3570595,
          "velocity": 1
        },
        {
          "duration": 0.21428550000000257,
          "durationTicks": 240,
          "midi": 42,
          "name": "F#2",
          "ticks": 93600,
          "time": 83.57134500000001,
          "velocity": 1
        },
        {
          "duration": 0.21428550000000257,
          "durationTicks": 240,
          "midi": 38,
          "name": "D2",
          "ticks": 93600,
          "time": 83.57134500000001,
          "velocity": 1
        },
        {
          "duration": 0.21428550000000257,
          "durationTicks": 240,
          "midi": 42,
          "name": "F#2",
          "ticks": 93840,
          "time": 83.78563050000001,
          "velocity": 1
        },
        {
          "duration": 0.21428549999998836,
          "durationTicks": 240,
          "midi": 42,
          "name": "F#2",
          "ticks": 94080,
          "time": 83.99991600000001,
          "velocity": 1
        },
        {
          "duration": 0.21428549999998836,
          "durationTicks": 240,
          "midi": 35,
          "name": "B1",
          "ticks": 94080,
          "time": 83.99991600000001,
          "velocity": 1
        },
        {
          "duration": 0.21428550000000257,
          "durationTicks": 240,
          "midi": 42,
          "name": "F#2",
          "ticks": 94320,
          "time": 84.2142015,
          "velocity": 1
        },
        {
          "duration": 0.21428550000000257,
          "durationTicks": 240,
          "midi": 42,
          "name": "F#2",
          "ticks": 94560,
          "time": 84.428487,
          "velocity": 1
        },
        {
          "duration": 0.21428550000000257,
          "durationTicks": 240,
          "midi": 38,
          "name": "D2",
          "ticks": 94560,
          "time": 84.428487,
          "velocity": 1
        },
        {
          "duration": 0.21428550000000257,
          "durationTicks": 240,
          "midi": 42,
          "name": "F#2",
          "ticks": 94800,
          "time": 84.6427725,
          "velocity": 1
        },
        {
          "duration": 0.21428550000000257,
          "durationTicks": 240,
          "midi": 42,
          "name": "F#2",
          "ticks": 95040,
          "time": 84.85705800000001,
          "velocity": 1
        },
        {
          "duration": 0.21428549999998836,
          "durationTicks": 240,
          "midi": 42,
          "name": "F#2",
          "ticks": 95280,
          "time": 85.07134350000001,
          "velocity": 1
        },
        {
          "duration": 0.21428549999998836,
          "durationTicks": 240,
          "midi": 35,
          "name": "B1",
          "ticks": 95280,
          "time": 85.07134350000001,
          "velocity": 1
        },
        {
          "duration": 0.21428550000000257,
          "durationTicks": 240,
          "midi": 42,
          "name": "F#2",
          "ticks": 95520,
          "time": 85.285629,
          "velocity": 1
        },
        {
          "duration": 0.21428550000000257,
          "durationTicks": 240,
          "midi": 38,
          "name": "D2",
          "ticks": 95520,
          "time": 85.285629,
          "velocity": 1
        },
        {
          "duration": 0.21428550000000257,
          "durationTicks": 240,
          "midi": 42,
          "name": "F#2",
          "ticks": 95760,
          "time": 85.4999145,
          "velocity": 1
        },
        {
          "duration": 0.21428550000000257,
          "durationTicks": 240,
          "midi": 42,
          "name": "F#2",
          "ticks": 96000,
          "time": 85.7142,
          "velocity": 1
        },
        {
          "duration": 0.21428550000000257,
          "durationTicks": 240,
          "midi": 35,
          "name": "B1",
          "ticks": 96000,
          "time": 85.7142,
          "velocity": 1
        },
        {
          "duration": 0.21428550000000257,
          "durationTicks": 240,
          "midi": 42,
          "name": "F#2",
          "ticks": 96240,
          "time": 85.92848550000001,
          "velocity": 1
        },
        {
          "duration": 0.21428550000000257,
          "durationTicks": 240,
          "midi": 42,
          "name": "F#2",
          "ticks": 96480,
          "time": 86.14277100000001,
          "velocity": 1
        },
        {
          "duration": 0.21428550000000257,
          "durationTicks": 240,
          "midi": 38,
          "name": "D2",
          "ticks": 96480,
          "time": 86.14277100000001,
          "velocity": 1
        },
        {
          "duration": 0.21428549999998836,
          "durationTicks": 240,
          "midi": 42,
          "name": "F#2",
          "ticks": 96720,
          "time": 86.35705650000001,
          "velocity": 1
        },
        {
          "duration": 0.21428550000000257,
          "durationTicks": 240,
          "midi": 42,
          "name": "F#2",
          "ticks": 96960,
          "time": 86.571342,
          "velocity": 1
        },
        {
          "duration": 0.21428550000000257,
          "durationTicks": 240,
          "midi": 42,
          "name": "F#2",
          "ticks": 97200,
          "time": 86.7856275,
          "velocity": 1
        },
        {
          "duration": 0.21428550000000257,
          "durationTicks": 240,
          "midi": 35,
          "name": "B1",
          "ticks": 97200,
          "time": 86.7856275,
          "velocity": 1
        },
        {
          "duration": 0.21428550000000257,
          "durationTicks": 240,
          "midi": 42,
          "name": "F#2",
          "ticks": 97440,
          "time": 86.999913,
          "velocity": 1
        },
        {
          "duration": 0.21428550000000257,
          "durationTicks": 240,
          "midi": 38,
          "name": "D2",
          "ticks": 97440,
          "time": 86.999913,
          "velocity": 1
        },
        {
          "duration": 0.21428550000000257,
          "durationTicks": 240,
          "midi": 42,
          "name": "F#2",
          "ticks": 97680,
          "time": 87.21419850000001,
          "velocity": 1
        },
        {
          "duration": 0.21428550000000257,
          "durationTicks": 240,
          "midi": 42,
          "name": "F#2",
          "ticks": 97920,
          "time": 87.42848400000001,
          "velocity": 1
        },
        {
          "duration": 0.21428550000000257,
          "durationTicks": 240,
          "midi": 35,
          "name": "B1",
          "ticks": 97920,
          "time": 87.42848400000001,
          "velocity": 1
        },
        {
          "duration": 0.21428549999998836,
          "durationTicks": 240,
          "midi": 42,
          "name": "F#2",
          "ticks": 98160,
          "time": 87.64276950000001,
          "velocity": 1
        },
        {
          "duration": 0.21428550000000257,
          "durationTicks": 240,
          "midi": 42,
          "name": "F#2",
          "ticks": 98400,
          "time": 87.857055,
          "velocity": 1
        },
        {
          "duration": 0.21428550000000257,
          "durationTicks": 240,
          "midi": 38,
          "name": "D2",
          "ticks": 98400,
          "time": 87.857055,
          "velocity": 1
        },
        {
          "duration": 0.21428550000000257,
          "durationTicks": 240,
          "midi": 42,
          "name": "F#2",
          "ticks": 98640,
          "time": 88.0713405,
          "velocity": 1
        },
        {
          "duration": 0.21428550000000257,
          "durationTicks": 240,
          "midi": 42,
          "name": "F#2",
          "ticks": 98880,
          "time": 88.28562600000001,
          "velocity": 1
        },
        {
          "duration": 0.21428550000000257,
          "durationTicks": 240,
          "midi": 42,
          "name": "F#2",
          "ticks": 99120,
          "time": 88.49991150000001,
          "velocity": 1
        },
        {
          "duration": 0.21428550000000257,
          "durationTicks": 240,
          "midi": 35,
          "name": "B1",
          "ticks": 99120,
          "time": 88.49991150000001,
          "velocity": 1
        },
        {
          "duration": 0.21428549999998836,
          "durationTicks": 240,
          "midi": 42,
          "name": "F#2",
          "ticks": 99360,
          "time": 88.71419700000001,
          "velocity": 1
        },
        {
          "duration": 0.21428549999998836,
          "durationTicks": 240,
          "midi": 38,
          "name": "D2",
          "ticks": 99360,
          "time": 88.71419700000001,
          "velocity": 1
        },
        {
          "duration": 0.21428550000000257,
          "durationTicks": 240,
          "midi": 42,
          "name": "F#2",
          "ticks": 99600,
          "time": 88.9284825,
          "velocity": 1
        },
        {
          "duration": 0.21428550000000257,
          "durationTicks": 240,
          "midi": 42,
          "name": "F#2",
          "ticks": 99840,
          "time": 89.142768,
          "velocity": 1
        },
        {
          "duration": 0.21428550000000257,
          "durationTicks": 240,
          "midi": 35,
          "name": "B1",
          "ticks": 99840,
          "time": 89.142768,
          "velocity": 1
        },
        {
          "duration": 0.21428550000000257,
          "durationTicks": 240,
          "midi": 42,
          "name": "F#2",
          "ticks": 100080,
          "time": 89.3570535,
          "velocity": 1
        },
        {
          "duration": 0.21428550000000257,
          "durationTicks": 240,
          "midi": 42,
          "name": "F#2",
          "ticks": 100320,
          "time": 89.57133900000001,
          "velocity": 1
        },
        {
          "duration": 0.21428550000000257,
          "durationTicks": 240,
          "midi": 38,
          "name": "D2",
          "ticks": 100320,
          "time": 89.57133900000001,
          "velocity": 1
        },
        {
          "duration": 0.21428550000000257,
          "durationTicks": 240,
          "midi": 42,
          "name": "F#2",
          "ticks": 100560,
          "time": 89.78562450000001,
          "velocity": 1
        },
        {
          "duration": 0.21428549999998836,
          "durationTicks": 240,
          "midi": 42,
          "name": "F#2",
          "ticks": 100800,
          "time": 89.99991000000001,
          "velocity": 1
        },
        {
          "duration": 0.21428550000000257,
          "durationTicks": 240,
          "midi": 42,
          "name": "F#2",
          "ticks": 101040,
          "time": 90.2141955,
          "velocity": 1
        },
        {
          "duration": 0.21428550000000257,
          "durationTicks": 240,
          "midi": 35,
          "name": "B1",
          "ticks": 101040,
          "time": 90.2141955,
          "velocity": 1
        },
        {
          "duration": 0.21428550000000257,
          "durationTicks": 240,
          "midi": 42,
          "name": "F#2",
          "ticks": 101280,
          "time": 90.428481,
          "velocity": 1
        },
        {
          "duration": 0.21428550000000257,
          "durationTicks": 240,
          "midi": 38,
          "name": "D2",
          "ticks": 101280,
          "time": 90.428481,
          "velocity": 1
        },
        {
          "duration": 0.21428550000000257,
          "durationTicks": 240,
          "midi": 42,
          "name": "F#2",
          "ticks": 101520,
          "time": 90.64276650000001,
          "velocity": 1
        },
        {
          "duration": 0.21428550000000257,
          "durationTicks": 240,
          "midi": 42,
          "name": "F#2",
          "ticks": 101760,
          "time": 90.85705200000001,
          "velocity": 1
        },
        {
          "duration": 0.21428550000000257,
          "durationTicks": 240,
          "midi": 35,
          "name": "B1",
          "ticks": 101760,
          "time": 90.85705200000001,
          "velocity": 1
        },
        {
          "duration": 0.21428549999998836,
          "durationTicks": 240,
          "midi": 42,
          "name": "F#2",
          "ticks": 102000,
          "time": 91.07133750000001,
          "velocity": 1
        },
        {
          "duration": 0.21428550000000257,
          "durationTicks": 240,
          "midi": 42,
          "name": "F#2",
          "ticks": 102240,
          "time": 91.285623,
          "velocity": 1
        },
        {
          "duration": 0.21428550000000257,
          "durationTicks": 240,
          "midi": 38,
          "name": "D2",
          "ticks": 102240,
          "time": 91.285623,
          "velocity": 1
        },
        {
          "duration": 0.21428550000000257,
          "durationTicks": 240,
          "midi": 42,
          "name": "F#2",
          "ticks": 102480,
          "time": 91.4999085,
          "velocity": 1
        },
        {
          "duration": 0.21428550000000257,
          "durationTicks": 240,
          "midi": 42,
          "name": "F#2",
          "ticks": 102720,
          "time": 91.714194,
          "velocity": 1
        },
        {
          "duration": 0.21428550000000257,
          "durationTicks": 240,
          "midi": 42,
          "name": "F#2",
          "ticks": 102960,
          "time": 91.92847950000001,
          "velocity": 1
        },
        {
          "duration": 0.21428550000000257,
          "durationTicks": 240,
          "midi": 35,
          "name": "B1",
          "ticks": 102960,
          "time": 91.92847950000001,
          "velocity": 1
        },
        {
          "duration": 0.21428550000000257,
          "durationTicks": 240,
          "midi": 42,
          "name": "F#2",
          "ticks": 103200,
          "time": 92.14276500000001,
          "velocity": 1
        },
        {
          "duration": 0.21428550000000257,
          "durationTicks": 240,
          "midi": 38,
          "name": "D2",
          "ticks": 103200,
          "time": 92.14276500000001,
          "velocity": 1
        },
        {
          "duration": 0.21428549999998836,
          "durationTicks": 240,
          "midi": 42,
          "name": "F#2",
          "ticks": 103440,
          "time": 92.35705050000001,
          "velocity": 1
        },
        {
          "duration": 0.21428550000000257,
          "durationTicks": 240,
          "midi": 42,
          "name": "F#2",
          "ticks": 103680,
          "time": 92.571336,
          "velocity": 1
        },
        {
          "duration": 0.21428550000000257,
          "durationTicks": 240,
          "midi": 35,
          "name": "B1",
          "ticks": 103680,
          "time": 92.571336,
          "velocity": 1
        },
        {
          "duration": 0.21428550000000257,
          "durationTicks": 240,
          "midi": 42,
          "name": "F#2",
          "ticks": 103920,
          "time": 92.7856215,
          "velocity": 1
        },
        {
          "duration": 0.21428550000000257,
          "durationTicks": 240,
          "midi": 42,
          "name": "F#2",
          "ticks": 104160,
          "time": 92.99990700000001,
          "velocity": 1
        },
        {
          "duration": 0.21428550000000257,
          "durationTicks": 240,
          "midi": 38,
          "name": "D2",
          "ticks": 104160,
          "time": 92.99990700000001,
          "velocity": 1
        },
        {
          "duration": 0.21428550000000257,
          "durationTicks": 240,
          "midi": 42,
          "name": "F#2",
          "ticks": 104400,
          "time": 93.21419250000001,
          "velocity": 1
        },
        {
          "duration": 0.21428549999998836,
          "durationTicks": 240,
          "midi": 42,
          "name": "F#2",
          "ticks": 104640,
          "time": 93.42847800000001,
          "velocity": 1
        },
        {
          "duration": 0.21428550000000257,
          "durationTicks": 240,
          "midi": 42,
          "name": "F#2",
          "ticks": 104880,
          "time": 93.6427635,
          "velocity": 1
        },
        {
          "duration": 0.21428550000000257,
          "durationTicks": 240,
          "midi": 35,
          "name": "B1",
          "ticks": 104880,
          "time": 93.6427635,
          "velocity": 1
        },
        {
          "duration": 0.21428550000000257,
          "durationTicks": 240,
          "midi": 42,
          "name": "F#2",
          "ticks": 105120,
          "time": 93.857049,
          "velocity": 1
        },
        {
          "duration": 0.21428550000000257,
          "durationTicks": 240,
          "midi": 38,
          "name": "D2",
          "ticks": 105120,
          "time": 93.857049,
          "velocity": 1
        },
        {
          "duration": 0.21428550000000257,
          "durationTicks": 240,
          "midi": 42,
          "name": "F#2",
          "ticks": 105360,
          "time": 94.0713345,
          "velocity": 1
        },
        {
          "duration": 0.21428550000000257,
          "durationTicks": 240,
          "midi": 42,
          "name": "F#2",
          "ticks": 105600,
          "time": 94.28562000000001,
          "velocity": 1
        },
        {
          "duration": 0.21428550000000257,
          "durationTicks": 240,
          "midi": 35,
          "name": "B1",
          "ticks": 105600,
          "time": 94.28562000000001,
          "velocity": 1
        },
        {
          "duration": 0.21428550000000257,
          "durationTicks": 240,
          "midi": 42,
          "name": "F#2",
          "ticks": 105840,
          "time": 94.49990550000001,
          "velocity": 1
        },
        {
          "duration": 0.21428549999998836,
          "durationTicks": 240,
          "midi": 42,
          "name": "F#2",
          "ticks": 106080,
          "time": 94.71419100000001,
          "velocity": 1
        },
        {
          "duration": 0.21428549999998836,
          "durationTicks": 240,
          "midi": 38,
          "name": "D2",
          "ticks": 106080,
          "time": 94.71419100000001,
          "velocity": 1
        },
        {
          "duration": 0.21428550000000257,
          "durationTicks": 240,
          "midi": 42,
          "name": "F#2",
          "ticks": 106320,
          "time": 94.9284765,
          "velocity": 1
        },
        {
          "duration": 0.21428550000000257,
          "durationTicks": 240,
          "midi": 42,
          "name": "F#2",
          "ticks": 106560,
          "time": 95.142762,
          "velocity": 1
        },
        {
          "duration": 0.21428550000000257,
          "durationTicks": 240,
          "midi": 42,
          "name": "F#2",
          "ticks": 106800,
          "time": 95.35704750000001,
          "velocity": 1
        },
        {
          "duration": 0.21428550000000257,
          "durationTicks": 240,
          "midi": 35,
          "name": "B1",
          "ticks": 106800,
          "time": 95.35704750000001,
          "velocity": 1
        },
        {
          "duration": 0.21428550000000257,
          "durationTicks": 240,
          "midi": 42,
          "name": "F#2",
          "ticks": 107040,
          "time": 95.57133300000001,
          "velocity": 1
        },
        {
          "duration": 0.21428550000000257,
          "durationTicks": 240,
          "midi": 38,
          "name": "D2",
          "ticks": 107040,
          "time": 95.57133300000001,
          "velocity": 1
        },
        {
          "duration": 0.21428550000000257,
          "durationTicks": 240,
          "midi": 42,
          "name": "F#2",
          "ticks": 107280,
          "time": 95.78561850000001,
          "velocity": 1
        },
        {
          "duration": 0.21428549999998836,
          "durationTicks": 240,
          "midi": 42,
          "name": "F#2",
          "ticks": 107520,
          "time": 95.99990400000002,
          "velocity": 1
        },
        {
          "duration": 0.21428549999998836,
          "durationTicks": 240,
          "midi": 35,
          "name": "B1",
          "ticks": 107520,
          "time": 95.99990400000002,
          "velocity": 1
        },
        {
          "duration": 0.21428550000000257,
          "durationTicks": 240,
          "midi": 42,
          "name": "F#2",
          "ticks": 107760,
          "time": 96.2141895,
          "velocity": 1
        },
        {
          "duration": 0.21428550000000257,
          "durationTicks": 240,
          "midi": 42,
          "name": "F#2",
          "ticks": 108000,
          "time": 96.428475,
          "velocity": 1
        },
        {
          "duration": 0.21428550000000257,
          "durationTicks": 240,
          "midi": 38,
          "name": "D2",
          "ticks": 108000,
          "time": 96.428475,
          "velocity": 1
        },
        {
          "duration": 0.21428550000000257,
          "durationTicks": 240,
          "midi": 42,
          "name": "F#2",
          "ticks": 108240,
          "time": 96.64276050000001,
          "velocity": 1
        },
        {
          "duration": 0.21428550000000257,
          "durationTicks": 240,
          "midi": 42,
          "name": "F#2",
          "ticks": 108480,
          "time": 96.85704600000001,
          "velocity": 1
        },
        {
          "duration": 0.21428549999998836,
          "durationTicks": 240,
          "midi": 42,
          "name": "F#2",
          "ticks": 108720,
          "time": 97.07133150000001,
          "velocity": 1
        },
        {
          "duration": 0.21428549999998836,
          "durationTicks": 240,
          "midi": 35,
          "name": "B1",
          "ticks": 108720,
          "time": 97.07133150000001,
          "velocity": 1
        },
        {
          "duration": 0.21428550000000257,
          "durationTicks": 240,
          "midi": 42,
          "name": "F#2",
          "ticks": 108960,
          "time": 97.285617,
          "velocity": 1
        },
        {
          "duration": 0.21428550000000257,
          "durationTicks": 240,
          "midi": 38,
          "name": "D2",
          "ticks": 108960,
          "time": 97.285617,
          "velocity": 1
        },
        {
          "duration": 0.21428550000000257,
          "durationTicks": 240,
          "midi": 42,
          "name": "F#2",
          "ticks": 109200,
          "time": 97.4999025,
          "velocity": 1
        },
        {
          "duration": 0.21428550000000257,
          "durationTicks": 240,
          "midi": 42,
          "name": "F#2",
          "ticks": 109440,
          "time": 97.71418800000001,
          "velocity": 1
        },
        {
          "duration": 0.21428550000000257,
          "durationTicks": 240,
          "midi": 35,
          "name": "B1",
          "ticks": 109440,
          "time": 97.71418800000001,
          "velocity": 1
        },
        {
          "duration": 0.21428550000000257,
          "durationTicks": 240,
          "midi": 42,
          "name": "F#2",
          "ticks": 109680,
          "time": 97.92847350000001,
          "velocity": 1
        },
        {
          "duration": 0.21428550000000257,
          "durationTicks": 240,
          "midi": 35,
          "name": "B1",
          "ticks": 109680,
          "time": 97.92847350000001,
          "velocity": 1
        },
        {
          "duration": 0.21428550000000257,
          "durationTicks": 240,
          "midi": 42,
          "name": "F#2",
          "ticks": 109920,
          "time": 98.14275900000001,
          "velocity": 1
        },
        {
          "duration": 0.21428550000000257,
          "durationTicks": 240,
          "midi": 35,
          "name": "B1",
          "ticks": 109920,
          "time": 98.14275900000001,
          "velocity": 1
        },
        {
          "duration": 0.21428549999998836,
          "durationTicks": 240,
          "midi": 42,
          "name": "F#2",
          "ticks": 110160,
          "time": 98.35704450000001,
          "velocity": 1
        },
        {
          "duration": 0.21428549999998836,
          "durationTicks": 240,
          "midi": 35,
          "name": "B1",
          "ticks": 110160,
          "time": 98.35704450000001,
          "velocity": 1
        },
        {
          "duration": 0.42857100000000514,
          "durationTicks": 480,
          "midi": 46,
          "name": "A#2",
          "ticks": 110400,
          "time": 98.57133,
          "velocity": 1
        },
        {
          "duration": 0.42857100000000514,
          "durationTicks": 480,
          "midi": 35,
          "name": "B1",
          "ticks": 110400,
          "time": 98.57133,
          "velocity": 1
        },
        {
          "duration": 0.42857100000000514,
          "durationTicks": 480,
          "midi": 42,
          "name": "F#2",
          "ticks": 110880,
          "time": 98.99990100000001,
          "velocity": 1
        },
        {
          "duration": 0.42857100000000514,
          "durationTicks": 480,
          "midi": 38,
          "name": "D2",
          "ticks": 110880,
          "time": 98.99990100000001,
          "velocity": 1
        },
        {
          "duration": 0.42857100000000514,
          "durationTicks": 480,
          "midi": 35,
          "name": "B1",
          "ticks": 110880,
          "time": 98.99990100000001,
          "velocity": 1
        },
        {
          "duration": 0.21428549999998836,
          "durationTicks": 240,
          "midi": 42,
          "name": "F#2",
          "ticks": 111360,
          "time": 99.42847200000001,
          "velocity": 1
        },
        {
          "duration": 0.21428549999998836,
          "durationTicks": 240,
          "midi": 35,
          "name": "B1",
          "ticks": 111360,
          "time": 99.42847200000001,
          "velocity": 1
        },
        {
          "duration": 0.21428550000000257,
          "durationTicks": 240,
          "midi": 42,
          "name": "F#2",
          "ticks": 111600,
          "time": 99.6427575,
          "velocity": 1
        },
        {
          "duration": 0.21428550000000257,
          "durationTicks": 240,
          "midi": 42,
          "name": "F#2",
          "ticks": 111840,
          "time": 99.857043,
          "velocity": 1
        },
        {
          "duration": 0.21428550000000257,
          "durationTicks": 240,
          "midi": 38,
          "name": "D2",
          "ticks": 111840,
          "time": 99.857043,
          "velocity": 1
        },
        {
          "duration": 0.21428550000000257,
          "durationTicks": 240,
          "midi": 42,
          "name": "F#2",
          "ticks": 112080,
          "time": 100.0713285,
          "velocity": 1
        },
        {
          "duration": 0.21428550000000257,
          "durationTicks": 240,
          "midi": 42,
          "name": "F#2",
          "ticks": 112320,
          "time": 100.28561400000001,
          "velocity": 1
        },
        {
          "duration": 0.21428550000000257,
          "durationTicks": 240,
          "midi": 42,
          "name": "F#2",
          "ticks": 112560,
          "time": 100.49989950000001,
          "velocity": 1
        },
        {
          "duration": 0.21428550000000257,
          "durationTicks": 240,
          "midi": 35,
          "name": "B1",
          "ticks": 112560,
          "time": 100.49989950000001,
          "velocity": 1
        },
        {
          "duration": 0.21428549999998836,
          "durationTicks": 240,
          "midi": 42,
          "name": "F#2",
          "ticks": 112800,
          "time": 100.71418500000001,
          "velocity": 1
        },
        {
          "duration": 0.21428549999998836,
          "durationTicks": 240,
          "midi": 38,
          "name": "D2",
          "ticks": 112800,
          "time": 100.71418500000001,
          "velocity": 1
        },
        {
          "duration": 0.21428550000000257,
          "durationTicks": 240,
          "midi": 42,
          "name": "F#2",
          "ticks": 113040,
          "time": 100.9284705,
          "velocity": 1
        },
        {
          "duration": 0.21428550000000257,
          "durationTicks": 240,
          "midi": 42,
          "name": "F#2",
          "ticks": 113280,
          "time": 101.142756,
          "velocity": 1
        },
        {
          "duration": 0.21428550000000257,
          "durationTicks": 240,
          "midi": 35,
          "name": "B1",
          "ticks": 113280,
          "time": 101.142756,
          "velocity": 1
        },
        {
          "duration": 0.21428550000000257,
          "durationTicks": 240,
          "midi": 42,
          "name": "F#2",
          "ticks": 113520,
          "time": 101.35704150000001,
          "velocity": 1
        },
        {
          "duration": 0.21428550000000257,
          "durationTicks": 240,
          "midi": 42,
          "name": "F#2",
          "ticks": 113760,
          "time": 101.57132700000001,
          "velocity": 1
        },
        {
          "duration": 0.21428550000000257,
          "durationTicks": 240,
          "midi": 38,
          "name": "D2",
          "ticks": 113760,
          "time": 101.57132700000001,
          "velocity": 1
        },
        {
          "duration": 0.21428549999998836,
          "durationTicks": 240,
          "midi": 42,
          "name": "F#2",
          "ticks": 114000,
          "time": 101.78561250000001,
          "velocity": 1
        },
        {
          "duration": 0.21428550000000257,
          "durationTicks": 240,
          "midi": 42,
          "name": "F#2",
          "ticks": 114240,
          "time": 101.999898,
          "velocity": 1
        },
        {
          "duration": 0.21428550000000257,
          "durationTicks": 240,
          "midi": 42,
          "name": "F#2",
          "ticks": 114480,
          "time": 102.2141835,
          "velocity": 1
        },
        {
          "duration": 0.21428550000000257,
          "durationTicks": 240,
          "midi": 35,
          "name": "B1",
          "ticks": 114480,
          "time": 102.2141835,
          "velocity": 1
        },
        {
          "duration": 0.21428550000000257,
          "durationTicks": 240,
          "midi": 42,
          "name": "F#2",
          "ticks": 114720,
          "time": 102.428469,
          "velocity": 1
        },
        {
          "duration": 0.21428550000000257,
          "durationTicks": 240,
          "midi": 38,
          "name": "D2",
          "ticks": 114720,
          "time": 102.428469,
          "velocity": 1
        },
        {
          "duration": 0.21428550000000257,
          "durationTicks": 240,
          "midi": 42,
          "name": "F#2",
          "ticks": 114960,
          "time": 102.64275450000001,
          "velocity": 1
        },
        {
          "duration": 0.21428550000000257,
          "durationTicks": 240,
          "midi": 42,
          "name": "F#2",
          "ticks": 115200,
          "time": 102.85704000000001,
          "velocity": 1
        },
        {
          "duration": 0.21428550000000257,
          "durationTicks": 240,
          "midi": 35,
          "name": "B1",
          "ticks": 115200,
          "time": 102.85704000000001,
          "velocity": 1
        },
        {
          "duration": 0.21428549999998836,
          "durationTicks": 240,
          "midi": 42,
          "name": "F#2",
          "ticks": 115440,
          "time": 103.07132550000001,
          "velocity": 1
        },
        {
          "duration": 0.21428550000000257,
          "durationTicks": 240,
          "midi": 42,
          "name": "F#2",
          "ticks": 115680,
          "time": 103.285611,
          "velocity": 1
        },
        {
          "duration": 0.21428550000000257,
          "durationTicks": 240,
          "midi": 38,
          "name": "D2",
          "ticks": 115680,
          "time": 103.285611,
          "velocity": 1
        },
        {
          "duration": 0.21428550000000257,
          "durationTicks": 240,
          "midi": 42,
          "name": "F#2",
          "ticks": 115920,
          "time": 103.4998965,
          "velocity": 1
        },
        {
          "duration": 0.21428550000000257,
          "durationTicks": 240,
          "midi": 42,
          "name": "F#2",
          "ticks": 116160,
          "time": 103.71418200000001,
          "velocity": 1
        },
        {
          "duration": 0.21428550000000257,
          "durationTicks": 240,
          "midi": 42,
          "name": "F#2",
          "ticks": 116400,
          "time": 103.92846750000001,
          "velocity": 1
        },
        {
          "duration": 0.21428550000000257,
          "durationTicks": 240,
          "midi": 35,
          "name": "B1",
          "ticks": 116400,
          "time": 103.92846750000001,
          "velocity": 1
        },
        {
          "duration": 0.21428549999998836,
          "durationTicks": 240,
          "midi": 42,
          "name": "F#2",
          "ticks": 116640,
          "time": 104.14275300000001,
          "velocity": 1
        },
        {
          "duration": 0.21428549999998836,
          "durationTicks": 240,
          "midi": 38,
          "name": "D2",
          "ticks": 116640,
          "time": 104.14275300000001,
          "velocity": 1
        },
        {
          "duration": 0.21428550000000257,
          "durationTicks": 240,
          "midi": 42,
          "name": "F#2",
          "ticks": 116880,
          "time": 104.3570385,
          "velocity": 1
        },
        {
          "duration": 0.21428550000000257,
          "durationTicks": 240,
          "midi": 42,
          "name": "F#2",
          "ticks": 117120,
          "time": 104.571324,
          "velocity": 1
        },
        {
          "duration": 0.21428550000000257,
          "durationTicks": 240,
          "midi": 35,
          "name": "B1",
          "ticks": 117120,
          "time": 104.571324,
          "velocity": 1
        },
        {
          "duration": 0.21428550000000257,
          "durationTicks": 240,
          "midi": 42,
          "name": "F#2",
          "ticks": 117360,
          "time": 104.7856095,
          "velocity": 1
        },
        {
          "duration": 0.21428550000000257,
          "durationTicks": 240,
          "midi": 42,
          "name": "F#2",
          "ticks": 117600,
          "time": 104.99989500000001,
          "velocity": 1
        },
        {
          "duration": 0.21428550000000257,
          "durationTicks": 240,
          "midi": 38,
          "name": "D2",
          "ticks": 117600,
          "time": 104.99989500000001,
          "velocity": 1
        },
        {
          "duration": 0.21428550000000257,
          "durationTicks": 240,
          "midi": 42,
          "name": "F#2",
          "ticks": 117840,
          "time": 105.21418050000001,
          "velocity": 1
        },
        {
          "duration": 0.21428549999998836,
          "durationTicks": 240,
          "midi": 42,
          "name": "F#2",
          "ticks": 118080,
          "time": 105.42846600000001,
          "velocity": 1
        },
        {
          "duration": 0.21428550000000257,
          "durationTicks": 240,
          "midi": 42,
          "name": "F#2",
          "ticks": 118320,
          "time": 105.6427515,
          "velocity": 1
        },
        {
          "duration": 0.21428550000000257,
          "durationTicks": 240,
          "midi": 35,
          "name": "B1",
          "ticks": 118320,
          "time": 105.6427515,
          "velocity": 1
        },
        {
          "duration": 0.21428550000000257,
          "durationTicks": 240,
          "midi": 42,
          "name": "F#2",
          "ticks": 118560,
          "time": 105.857037,
          "velocity": 1
        },
        {
          "duration": 0.21428550000000257,
          "durationTicks": 240,
          "midi": 38,
          "name": "D2",
          "ticks": 118560,
          "time": 105.857037,
          "velocity": 1
        },
        {
          "duration": 0.21428550000000257,
          "durationTicks": 240,
          "midi": 42,
          "name": "F#2",
          "ticks": 118800,
          "time": 106.07132250000001,
          "velocity": 1
        },
        {
          "duration": 0.21428550000000257,
          "durationTicks": 240,
          "midi": 42,
          "name": "F#2",
          "ticks": 119040,
          "time": 106.28560800000001,
          "velocity": 1
        },
        {
          "duration": 0.21428550000000257,
          "durationTicks": 240,
          "midi": 35,
          "name": "B1",
          "ticks": 119040,
          "time": 106.28560800000001,
          "velocity": 1
        },
        {
          "duration": 0.21428550000000257,
          "durationTicks": 240,
          "midi": 42,
          "name": "F#2",
          "ticks": 119280,
          "time": 106.49989350000001,
          "velocity": 1
        },
        {
          "duration": 0.21428549999998836,
          "durationTicks": 240,
          "midi": 42,
          "name": "F#2",
          "ticks": 119520,
          "time": 106.71417900000002,
          "velocity": 1
        },
        {
          "duration": 0.21428549999998836,
          "durationTicks": 240,
          "midi": 38,
          "name": "D2",
          "ticks": 119520,
          "time": 106.71417900000002,
          "velocity": 1
        },
        {
          "duration": 0.21428550000000257,
          "durationTicks": 240,
          "midi": 42,
          "name": "F#2",
          "ticks": 119760,
          "time": 106.9284645,
          "velocity": 1
        },
        {
          "duration": 0.21428550000000257,
          "durationTicks": 240,
          "midi": 42,
          "name": "F#2",
          "ticks": 120000,
          "time": 107.14275,
          "velocity": 1
        },
        {
          "duration": 0.21428550000000257,
          "durationTicks": 240,
          "midi": 42,
          "name": "F#2",
          "ticks": 120240,
          "time": 107.35703550000001,
          "velocity": 1
        },
        {
          "duration": 0.21428550000000257,
          "durationTicks": 240,
          "midi": 35,
          "name": "B1",
          "ticks": 120240,
          "time": 107.35703550000001,
          "velocity": 1
        },
        {
          "duration": 0.21428550000000257,
          "durationTicks": 240,
          "midi": 42,
          "name": "F#2",
          "ticks": 120480,
          "time": 107.57132100000001,
          "velocity": 1
        },
        {
          "duration": 0.21428550000000257,
          "durationTicks": 240,
          "midi": 38,
          "name": "D2",
          "ticks": 120480,
          "time": 107.57132100000001,
          "velocity": 1
        },
        {
          "duration": 0.21428549999998836,
          "durationTicks": 240,
          "midi": 42,
          "name": "F#2",
          "ticks": 120720,
          "time": 107.78560650000001,
          "velocity": 1
        },
        {
          "duration": 0.21428550000000257,
          "durationTicks": 240,
          "midi": 42,
          "name": "F#2",
          "ticks": 120960,
          "time": 107.999892,
          "velocity": 1
        },
        {
          "duration": 0.21428550000000257,
          "durationTicks": 240,
          "midi": 35,
          "name": "B1",
          "ticks": 120960,
          "time": 107.999892,
          "velocity": 1
        },
        {
          "duration": 0.21428550000000257,
          "durationTicks": 240,
          "midi": 42,
          "name": "F#2",
          "ticks": 121200,
          "time": 108.2141775,
          "velocity": 1
        },
        {
          "duration": 0.21428550000000257,
          "durationTicks": 240,
          "midi": 42,
          "name": "F#2",
          "ticks": 121440,
          "time": 108.42846300000001,
          "velocity": 1
        },
        {
          "duration": 0.21428550000000257,
          "durationTicks": 240,
          "midi": 38,
          "name": "D2",
          "ticks": 121440,
          "time": 108.42846300000001,
          "velocity": 1
        },
        {
          "duration": 0.21428550000000257,
          "durationTicks": 240,
          "midi": 42,
          "name": "F#2",
          "ticks": 121680,
          "time": 108.64274850000001,
          "velocity": 1
        },
        {
          "duration": 0.21428550000000257,
          "durationTicks": 240,
          "midi": 42,
          "name": "F#2",
          "ticks": 121920,
          "time": 108.85703400000001,
          "velocity": 1
        },
        {
          "duration": 0.21428549999998836,
          "durationTicks": 240,
          "midi": 42,
          "name": "F#2",
          "ticks": 122160,
          "time": 109.07131950000002,
          "velocity": 1
        },
        {
          "duration": 0.21428549999998836,
          "durationTicks": 240,
          "midi": 35,
          "name": "B1",
          "ticks": 122160,
          "time": 109.07131950000002,
          "velocity": 1
        },
        {
          "duration": 0.21428550000000257,
          "durationTicks": 240,
          "midi": 42,
          "name": "F#2",
          "ticks": 122400,
          "time": 109.285605,
          "velocity": 1
        },
        {
          "duration": 0.21428550000000257,
          "durationTicks": 240,
          "midi": 38,
          "name": "D2",
          "ticks": 122400,
          "time": 109.285605,
          "velocity": 1
        },
        {
          "duration": 0.21428550000000257,
          "durationTicks": 240,
          "midi": 42,
          "name": "F#2",
          "ticks": 122640,
          "time": 109.4998905,
          "velocity": 1
        },
        {
          "duration": 0.21428550000000257,
          "durationTicks": 240,
          "midi": 42,
          "name": "F#2",
          "ticks": 122880,
          "time": 109.71417600000001,
          "velocity": 1
        },
        {
          "duration": 0.21428550000000257,
          "durationTicks": 240,
          "midi": 35,
          "name": "B1",
          "ticks": 122880,
          "time": 109.71417600000001,
          "velocity": 1
        },
        {
          "duration": 0.21428550000000257,
          "durationTicks": 240,
          "midi": 42,
          "name": "F#2",
          "ticks": 123120,
          "time": 109.92846150000001,
          "velocity": 1
        },
        {
          "duration": 0.21428549999998836,
          "durationTicks": 240,
          "midi": 42,
          "name": "F#2",
          "ticks": 123360,
          "time": 110.14274700000001,
          "velocity": 1
        },
        {
          "duration": 0.21428549999998836,
          "durationTicks": 240,
          "midi": 45,
          "name": "A2",
          "ticks": 123360,
          "time": 110.14274700000001,
          "velocity": 1
        },
        {
          "duration": 0.21428550000000257,
          "durationTicks": 240,
          "midi": 42,
          "name": "F#2",
          "ticks": 123600,
          "time": 110.3570325,
          "velocity": 1
        },
        {
          "duration": 0.21428550000000257,
          "durationTicks": 240,
          "midi": 45,
          "name": "A2",
          "ticks": 123600,
          "time": 110.3570325,
          "velocity": 1
        },
        {
          "duration": 0.21428550000000257,
          "durationTicks": 240,
          "midi": 42,
          "name": "F#2",
          "ticks": 123840,
          "time": 110.571318,
          "velocity": 1
        },
        {
          "duration": 0.21428550000000257,
          "durationTicks": 240,
          "midi": 42,
          "name": "F#2",
          "ticks": 124080,
          "time": 110.78560350000001,
          "velocity": 1
        },
        {
          "duration": 0.21428550000000257,
          "durationTicks": 240,
          "midi": 42,
          "name": "F#2",
          "ticks": 124320,
          "time": 110.99988900000001,
          "velocity": 1
        },
        {
          "duration": 0.21428550000000257,
          "durationTicks": 240,
          "midi": 45,
          "name": "A2",
          "ticks": 124320,
          "time": 110.99988900000001,
          "velocity": 1
        },
        {
          "duration": 0.21428550000000257,
          "durationTicks": 240,
          "midi": 42,
          "name": "F#2",
          "ticks": 124560,
          "time": 111.21417450000001,
          "velocity": 1
        },
        {
          "duration": 0.21428549999998836,
          "durationTicks": 240,
          "midi": 42,
          "name": "F#2",
          "ticks": 124800,
          "time": 111.42846000000002,
          "velocity": 1
        },
        {
          "duration": 0.21428549999998836,
          "durationTicks": 240,
          "midi": 35,
          "name": "B1",
          "ticks": 124800,
          "time": 111.42846000000002,
          "velocity": 1
        },
        {
          "duration": 0.21428550000000257,
          "durationTicks": 240,
          "midi": 42,
          "name": "F#2",
          "ticks": 125040,
          "time": 111.6427455,
          "velocity": 1
        },
        {
          "duration": 0.21428550000000257,
          "durationTicks": 240,
          "midi": 42,
          "name": "F#2",
          "ticks": 125280,
          "time": 111.857031,
          "velocity": 1
        },
        {
          "duration": 0.21428550000000257,
          "durationTicks": 240,
          "midi": 45,
          "name": "A2",
          "ticks": 125280,
          "time": 111.857031,
          "velocity": 1
        },
        {
          "duration": 0.21428550000000257,
          "durationTicks": 240,
          "midi": 42,
          "name": "F#2",
          "ticks": 125520,
          "time": 112.07131650000001,
          "velocity": 1
        },
        {
          "duration": 0.21428550000000257,
          "durationTicks": 240,
          "midi": 45,
          "name": "A2",
          "ticks": 125520,
          "time": 112.07131650000001,
          "velocity": 1
        },
        {
          "duration": 0.21428550000000257,
          "durationTicks": 240,
          "midi": 42,
          "name": "F#2",
          "ticks": 125760,
          "time": 112.28560200000001,
          "velocity": 1
        },
        {
          "duration": 0.21428549999998836,
          "durationTicks": 240,
          "midi": 42,
          "name": "F#2",
          "ticks": 126000,
          "time": 112.49988750000001,
          "velocity": 1
        },
        {
          "duration": 0.21428550000000257,
          "durationTicks": 240,
          "midi": 42,
          "name": "F#2",
          "ticks": 126240,
          "time": 112.714173,
          "velocity": 1
        },
        {
          "duration": 0.21428550000000257,
          "durationTicks": 240,
          "midi": 45,
          "name": "A2",
          "ticks": 126240,
          "time": 112.714173,
          "velocity": 1
        },
        {
          "duration": 0.21428550000000257,
          "durationTicks": 240,
          "midi": 42,
          "name": "F#2",
          "ticks": 126480,
          "time": 112.9284585,
          "velocity": 1
        },
        {
          "duration": 0.21428550000000257,
          "durationTicks": 240,
          "midi": 42,
          "name": "F#2",
          "ticks": 126720,
          "time": 113.14274400000001,
          "velocity": 1
        },
        {
          "duration": 0.21428550000000257,
          "durationTicks": 240,
          "midi": 35,
          "name": "B1",
          "ticks": 126720,
          "time": 113.14274400000001,
          "velocity": 1
        },
        {
          "duration": 0.21428550000000257,
          "durationTicks": 240,
          "midi": 42,
          "name": "F#2",
          "ticks": 126960,
          "time": 113.35702950000001,
          "velocity": 1
        },
        {
          "duration": 0.21428550000000257,
          "durationTicks": 240,
          "midi": 42,
          "name": "F#2",
          "ticks": 127200,
          "time": 113.57131500000001,
          "velocity": 1
        },
        {
          "duration": 0.21428550000000257,
          "durationTicks": 240,
          "midi": 45,
          "name": "A2",
          "ticks": 127200,
          "time": 113.57131500000001,
          "velocity": 1
        },
        {
          "duration": 0.21428549999998836,
          "durationTicks": 240,
          "midi": 42,
          "name": "F#2",
          "ticks": 127440,
          "time": 113.78560050000002,
          "velocity": 1
        },
        {
          "duration": 0.21428549999998836,
          "durationTicks": 240,
          "midi": 45,
          "name": "A2",
          "ticks": 127440,
          "time": 113.78560050000002,
          "velocity": 1
        },
        {
          "duration": 0.21428550000000257,
          "durationTicks": 240,
          "midi": 42,
          "name": "F#2",
          "ticks": 127680,
          "time": 113.999886,
          "velocity": 1
        },
        {
          "duration": 0.21428550000000257,
          "durationTicks": 240,
          "midi": 42,
          "name": "F#2",
          "ticks": 127920,
          "time": 114.2141715,
          "velocity": 1
        },
        {
          "duration": 0.21428550000000257,
          "durationTicks": 240,
          "midi": 42,
          "name": "F#2",
          "ticks": 128160,
          "time": 114.42845700000001,
          "velocity": 1
        },
        {
          "duration": 0.21428550000000257,
          "durationTicks": 240,
          "midi": 45,
          "name": "A2",
          "ticks": 128160,
          "time": 114.42845700000001,
          "velocity": 1
        },
        {
          "duration": 0.21428550000000257,
          "durationTicks": 240,
          "midi": 42,
          "name": "F#2",
          "ticks": 128400,
          "time": 114.64274250000001,
          "velocity": 1
        },
        {
          "duration": 0.21428550000000257,
          "durationTicks": 240,
          "midi": 42,
          "name": "F#2",
          "ticks": 128640,
          "time": 114.85702800000001,
          "velocity": 1
        },
        {
          "duration": 0.21428550000000257,
          "durationTicks": 240,
          "midi": 35,
          "name": "B1",
          "ticks": 128640,
          "time": 114.85702800000001,
          "velocity": 1
        },
        {
          "duration": 0.21428549999998836,
          "durationTicks": 240,
          "midi": 42,
          "name": "F#2",
          "ticks": 128880,
          "time": 115.07131350000002,
          "velocity": 1
        },
        {
          "duration": 0.21428550000000257,
          "durationTicks": 240,
          "midi": 42,
          "name": "F#2",
          "ticks": 129120,
          "time": 115.285599,
          "velocity": 1
        },
        {
          "duration": 0.21428550000000257,
          "durationTicks": 240,
          "midi": 45,
          "name": "A2",
          "ticks": 129120,
          "time": 115.285599,
          "velocity": 1
        },
        {
          "duration": 0.21428550000000257,
          "durationTicks": 240,
          "midi": 42,
          "name": "F#2",
          "ticks": 129360,
          "time": 115.49988450000001,
          "velocity": 1
        },
        {
          "duration": 0.21428550000000257,
          "durationTicks": 240,
          "midi": 45,
          "name": "A2",
          "ticks": 129360,
          "time": 115.49988450000001,
          "velocity": 1
        },
        {
          "duration": 0.21428550000000257,
          "durationTicks": 240,
          "midi": 42,
          "name": "F#2",
          "ticks": 129600,
          "time": 115.71417000000001,
          "velocity": 1
        },
        {
          "duration": 0.21428550000000257,
          "durationTicks": 240,
          "midi": 42,
          "name": "F#2",
          "ticks": 129840,
          "time": 115.92845550000001,
          "velocity": 1
        },
        {
          "duration": 0.21428549999998836,
          "durationTicks": 240,
          "midi": 42,
          "name": "F#2",
          "ticks": 130080,
          "time": 116.14274100000002,
          "velocity": 1
        },
        {
          "duration": 0.21428549999998836,
          "durationTicks": 240,
          "midi": 45,
          "name": "A2",
          "ticks": 130080,
          "time": 116.14274100000002,
          "velocity": 1
        },
        {
          "duration": 0.21428550000000257,
          "durationTicks": 240,
          "midi": 42,
          "name": "F#2",
          "ticks": 130320,
          "time": 116.3570265,
          "velocity": 1
        },
        {
          "duration": 0.21428550000000257,
          "durationTicks": 240,
          "midi": 42,
          "name": "F#2",
          "ticks": 130560,
          "time": 116.571312,
          "velocity": 1
        },
        {
          "duration": 0.21428550000000257,
          "durationTicks": 240,
          "midi": 35,
          "name": "B1",
          "ticks": 130560,
          "time": 116.571312,
          "velocity": 1
        },
        {
          "duration": 0.21428550000000257,
          "durationTicks": 240,
          "midi": 42,
          "name": "F#2",
          "ticks": 130800,
          "time": 116.78559750000001,
          "velocity": 1
        },
        {
          "duration": 0.21428550000000257,
          "durationTicks": 240,
          "midi": 42,
          "name": "F#2",
          "ticks": 131040,
          "time": 116.99988300000001,
          "velocity": 1
        },
        {
          "duration": 0.21428550000000257,
          "durationTicks": 240,
          "midi": 45,
          "name": "A2",
          "ticks": 131040,
          "time": 116.99988300000001,
          "velocity": 1
        },
        {
          "duration": 0.21428550000000257,
          "durationTicks": 240,
          "midi": 42,
          "name": "F#2",
          "ticks": 131280,
          "time": 117.21416850000001,
          "velocity": 1
        },
        {
          "duration": 0.21428550000000257,
          "durationTicks": 240,
          "midi": 45,
          "name": "A2",
          "ticks": 131280,
          "time": 117.21416850000001,
          "velocity": 1
        },
        {
          "duration": 0.21428549999998836,
          "durationTicks": 240,
          "midi": 42,
          "name": "F#2",
          "ticks": 131520,
          "time": 117.42845400000002,
          "velocity": 1
        },
        {
          "duration": 0.21428550000000257,
          "durationTicks": 240,
          "midi": 42,
          "name": "F#2",
          "ticks": 131760,
          "time": 117.6427395,
          "velocity": 1
        },
        {
          "duration": 0.21428550000000257,
          "durationTicks": 240,
          "midi": 42,
          "name": "F#2",
          "ticks": 132000,
          "time": 117.85702500000001,
          "velocity": 1
        },
        {
          "duration": 0.21428550000000257,
          "durationTicks": 240,
          "midi": 45,
          "name": "A2",
          "ticks": 132000,
          "time": 117.85702500000001,
          "velocity": 1
        },
        {
          "duration": 0.21428550000000257,
          "durationTicks": 240,
          "midi": 42,
          "name": "F#2",
          "ticks": 132240,
          "time": 118.07131050000001,
          "velocity": 1
        },
        {
          "duration": 0.21428550000000257,
          "durationTicks": 240,
          "midi": 42,
          "name": "F#2",
          "ticks": 132480,
          "time": 118.28559600000001,
          "velocity": 1
        },
        {
          "duration": 0.21428550000000257,
          "durationTicks": 240,
          "midi": 35,
          "name": "B1",
          "ticks": 132480,
          "time": 118.28559600000001,
          "velocity": 1
        },
        {
          "duration": 0.21428549999998836,
          "durationTicks": 240,
          "midi": 42,
          "name": "F#2",
          "ticks": 132720,
          "time": 118.49988150000001,
          "velocity": 1
        },
        {
          "duration": 0.21428550000000257,
          "durationTicks": 240,
          "midi": 42,
          "name": "F#2",
          "ticks": 132960,
          "time": 118.714167,
          "velocity": 1
        },
        {
          "duration": 0.21428550000000257,
          "durationTicks": 240,
          "midi": 45,
          "name": "A2",
          "ticks": 132960,
          "time": 118.714167,
          "velocity": 1
        },
        {
          "duration": 0.21428550000000257,
          "durationTicks": 240,
          "midi": 42,
          "name": "F#2",
          "ticks": 133200,
          "time": 118.9284525,
          "velocity": 1
        },
        {
          "duration": 0.21428550000000257,
          "durationTicks": 240,
          "midi": 45,
          "name": "A2",
          "ticks": 133200,
          "time": 118.9284525,
          "velocity": 1
        },
        {
          "duration": 0.21428550000000257,
          "durationTicks": 240,
          "midi": 42,
          "name": "F#2",
          "ticks": 133440,
          "time": 119.14273800000001,
          "velocity": 1
        },
        {
          "duration": 0.21428550000000257,
          "durationTicks": 240,
          "midi": 42,
          "name": "F#2",
          "ticks": 133680,
          "time": 119.35702350000001,
          "velocity": 1
        },
        {
          "duration": 0.21428550000000257,
          "durationTicks": 240,
          "midi": 42,
          "name": "F#2",
          "ticks": 133920,
          "time": 119.57130900000001,
          "velocity": 1
        },
        {
          "duration": 0.21428550000000257,
          "durationTicks": 240,
          "midi": 45,
          "name": "A2",
          "ticks": 133920,
          "time": 119.57130900000001,
          "velocity": 1
        },
        {
          "duration": 0.21428549999998836,
          "durationTicks": 240,
          "midi": 42,
          "name": "F#2",
          "ticks": 134160,
          "time": 119.78559450000002,
          "velocity": 1
        },
        {
          "duration": 0.21428550000000257,
          "durationTicks": 240,
          "midi": 42,
          "name": "F#2",
          "ticks": 134400,
          "time": 119.99988,
          "velocity": 1
        },
        {
          "duration": 0.21428550000000257,
          "durationTicks": 240,
          "midi": 35,
          "name": "B1",
          "ticks": 134400,
          "time": 119.99988,
          "velocity": 1
        },
        {
          "duration": 0.21428550000000257,
          "durationTicks": 240,
          "midi": 42,
          "name": "F#2",
          "ticks": 134640,
          "time": 120.21416550000001,
          "velocity": 1
        },
        {
          "duration": 0.21428550000000257,
          "durationTicks": 240,
          "midi": 42,
          "name": "F#2",
          "ticks": 134880,
          "time": 120.42845100000001,
          "velocity": 1
        },
        {
          "duration": 0.21428550000000257,
          "durationTicks": 240,
          "midi": 45,
          "name": "A2",
          "ticks": 134880,
          "time": 120.42845100000001,
          "velocity": 1
        },
        {
          "duration": 0.21428550000000257,
          "durationTicks": 240,
          "midi": 42,
          "name": "F#2",
          "ticks": 135120,
          "time": 120.64273650000001,
          "velocity": 1
        },
        {
          "duration": 0.21428550000000257,
          "durationTicks": 240,
          "midi": 45,
          "name": "A2",
          "ticks": 135120,
          "time": 120.64273650000001,
          "velocity": 1
        },
        {
          "duration": 0.21428549999998836,
          "durationTicks": 240,
          "midi": 42,
          "name": "F#2",
          "ticks": 135360,
          "time": 120.85702200000001,
          "velocity": 1
        },
        {
          "duration": 0.21428550000000257,
          "durationTicks": 240,
          "midi": 42,
          "name": "F#2",
          "ticks": 135600,
          "time": 121.0713075,
          "velocity": 1
        },
        {
          "duration": 0.21428550000000257,
          "durationTicks": 240,
          "midi": 42,
          "name": "F#2",
          "ticks": 135840,
          "time": 121.285593,
          "velocity": 1
        },
        {
          "duration": 0.21428550000000257,
          "durationTicks": 240,
          "midi": 45,
          "name": "A2",
          "ticks": 135840,
          "time": 121.285593,
          "velocity": 1
        },
        {
          "duration": 0.21428550000000257,
          "durationTicks": 240,
          "midi": 42,
          "name": "F#2",
          "ticks": 136080,
          "time": 121.49987850000001,
          "velocity": 1
        },
        {
          "duration": 0.21428550000000257,
          "durationTicks": 240,
          "midi": 42,
          "name": "F#2",
          "ticks": 136320,
          "time": 121.71416400000001,
          "velocity": 1
        },
        {
          "duration": 0.21428550000000257,
          "durationTicks": 240,
          "midi": 35,
          "name": "B1",
          "ticks": 136320,
          "time": 121.71416400000001,
          "velocity": 1
        },
        {
          "duration": 0.21428550000000257,
          "durationTicks": 240,
          "midi": 42,
          "name": "F#2",
          "ticks": 136560,
          "time": 121.92844950000001,
          "velocity": 1
        },
        {
          "duration": 0.21428549999998836,
          "durationTicks": 240,
          "midi": 42,
          "name": "F#2",
          "ticks": 136800,
          "time": 122.14273500000002,
          "velocity": 1
        },
        {
          "duration": 0.21428549999998836,
          "durationTicks": 240,
          "midi": 45,
          "name": "A2",
          "ticks": 136800,
          "time": 122.14273500000002,
          "velocity": 1
        },
        {
          "duration": 0.21428550000000257,
          "durationTicks": 240,
          "midi": 42,
          "name": "F#2",
          "ticks": 137040,
          "time": 122.3570205,
          "velocity": 1
        },
        {
          "duration": 0.21428550000000257,
          "durationTicks": 240,
          "midi": 45,
          "name": "A2",
          "ticks": 137040,
          "time": 122.3570205,
          "velocity": 1
        },
        {
          "duration": 0.21428550000000257,
          "durationTicks": 240,
          "midi": 42,
          "name": "F#2",
          "ticks": 137280,
          "time": 122.571306,
          "velocity": 1
        },
        {
          "duration": 0.21428550000000257,
          "durationTicks": 240,
          "midi": 42,
          "name": "F#2",
          "ticks": 137520,
          "time": 122.78559150000001,
          "velocity": 1
        },
        {
          "duration": 0.21428550000000257,
          "durationTicks": 240,
          "midi": 42,
          "name": "F#2",
          "ticks": 137760,
          "time": 122.99987700000001,
          "velocity": 1
        },
        {
          "duration": 0.21428550000000257,
          "durationTicks": 240,
          "midi": 45,
          "name": "A2",
          "ticks": 137760,
          "time": 122.99987700000001,
          "velocity": 1
        },
        {
          "duration": 0.21428549999998836,
          "durationTicks": 240,
          "midi": 42,
          "name": "F#2",
          "ticks": 138000,
          "time": 123.21416250000001,
          "velocity": 1
        },
        {
          "duration": 0.21428550000000257,
          "durationTicks": 240,
          "midi": 42,
          "name": "F#2",
          "ticks": 138240,
          "time": 123.428448,
          "velocity": 1
        },
        {
          "duration": 0.21428550000000257,
          "durationTicks": 240,
          "midi": 35,
          "name": "B1",
          "ticks": 138240,
          "time": 123.428448,
          "velocity": 1
        },
        {
          "duration": 0.21428550000000257,
          "durationTicks": 240,
          "midi": 42,
          "name": "F#2",
          "ticks": 138480,
          "time": 123.6427335,
          "velocity": 1
        },
        {
          "duration": 0.21428550000000257,
          "durationTicks": 240,
          "midi": 42,
          "name": "F#2",
          "ticks": 138720,
          "time": 123.85701900000001,
          "velocity": 1
        },
        {
          "duration": 0.21428550000000257,
          "durationTicks": 240,
          "midi": 45,
          "name": "A2",
          "ticks": 138720,
          "time": 123.85701900000001,
          "velocity": 1
        },
        {
          "duration": 0.21428550000000257,
          "durationTicks": 240,
          "midi": 42,
          "name": "F#2",
          "ticks": 138960,
          "time": 124.07130450000001,
          "velocity": 1
        },
        {
          "duration": 0.21428550000000257,
          "durationTicks": 240,
          "midi": 45,
          "name": "A2",
          "ticks": 138960,
          "time": 124.07130450000001,
          "velocity": 1
        },
        {
          "duration": 0.21428550000000257,
          "durationTicks": 240,
          "midi": 42,
          "name": "F#2",
          "ticks": 139200,
          "time": 124.28559000000001,
          "velocity": 1
        },
        {
          "duration": 0.21428549999998836,
          "durationTicks": 240,
          "midi": 42,
          "name": "F#2",
          "ticks": 139440,
          "time": 124.49987550000002,
          "velocity": 1
        },
        {
          "duration": 0.21428550000000257,
          "durationTicks": 240,
          "midi": 42,
          "name": "F#2",
          "ticks": 139680,
          "time": 124.714161,
          "velocity": 1
        },
        {
          "duration": 0.21428550000000257,
          "durationTicks": 240,
          "midi": 45,
          "name": "A2",
          "ticks": 139680,
          "time": 124.714161,
          "velocity": 1
        },
        {
          "duration": 0.21428550000000257,
          "durationTicks": 240,
          "midi": 42,
          "name": "F#2",
          "ticks": 139920,
          "time": 124.9284465,
          "velocity": 1
        },
        {
          "duration": 0.21428550000000257,
          "durationTicks": 240,
          "midi": 42,
          "name": "F#2",
          "ticks": 140160,
          "time": 125.14273200000001,
          "velocity": 1
        },
        {
          "duration": 0.21428550000000257,
          "durationTicks": 240,
          "midi": 38,
          "name": "D2",
          "ticks": 140160,
          "time": 125.14273200000001,
          "velocity": 1
        },
        {
          "duration": 0.42857100000000514,
          "durationTicks": 480,
          "midi": 46,
          "name": "A#2",
          "ticks": 140400,
          "time": 125.35701750000001,
          "velocity": 1
        },
        {
          "duration": 0.42857100000000514,
          "durationTicks": 480,
          "midi": 49,
          "name": "C#3",
          "ticks": 140400,
          "time": 125.35701750000001,
          "velocity": 1
        },
        {
          "duration": 0.42857100000000514,
          "durationTicks": 480,
          "midi": 50,
          "name": "D3",
          "ticks": 140400,
          "time": 125.35701750000001,
          "velocity": 1
        },
        {
          "duration": 0.42857099999999093,
          "durationTicks": 480,
          "midi": 46,
          "name": "A#2",
          "ticks": 140880,
          "time": 125.78558850000002,
          "velocity": 1
        },
        {
          "duration": 0.42857099999999093,
          "durationTicks": 480,
          "midi": 49,
          "name": "C#3",
          "ticks": 140880,
          "time": 125.78558850000002,
          "velocity": 1
        },
        {
          "duration": 0.42857099999999093,
          "durationTicks": 480,
          "midi": 48,
          "name": "C3",
          "ticks": 140880,
          "time": 125.78558850000002,
          "velocity": 1
        },
        {
          "duration": 0.42857100000000514,
          "durationTicks": 480,
          "midi": 46,
          "name": "A#2",
          "ticks": 141360,
          "time": 126.21415950000001,
          "velocity": 1
        },
        {
          "duration": 0.42857100000000514,
          "durationTicks": 480,
          "midi": 49,
          "name": "C#3",
          "ticks": 141360,
          "time": 126.21415950000001,
          "velocity": 1
        },
        {
          "duration": 0.42857100000000514,
          "durationTicks": 480,
          "midi": 47,
          "name": "B2",
          "ticks": 141360,
          "time": 126.21415950000001,
          "velocity": 1
        },
        {
          "duration": 0.21428550000000257,
          "durationTicks": 240,
          "midi": 42,
          "name": "F#2",
          "ticks": 141840,
          "time": 126.64273050000001,
          "velocity": 1
        },
        {
          "duration": 0.21428550000000257,
          "durationTicks": 240,
          "midi": 35,
          "name": "B1",
          "ticks": 141840,
          "time": 126.64273050000001,
          "velocity": 1
        },
        {
          "duration": 0.21428549999998836,
          "durationTicks": 240,
          "midi": 42,
          "name": "F#2",
          "ticks": 142080,
          "time": 126.85701600000002,
          "velocity": 1
        },
        {
          "duration": 0.21428549999998836,
          "durationTicks": 240,
          "midi": 35,
          "name": "B1",
          "ticks": 142080,
          "time": 126.85701600000002,
          "velocity": 1
        },
        {
          "duration": 0.21428550000000257,
          "durationTicks": 240,
          "midi": 42,
          "name": "F#2",
          "ticks": 142320,
          "time": 127.0713015,
          "velocity": 1
        },
        {
          "duration": 0.21428550000000257,
          "durationTicks": 240,
          "midi": 42,
          "name": "F#2",
          "ticks": 142560,
          "time": 127.285587,
          "velocity": 1
        },
        {
          "duration": 0.21428550000000257,
          "durationTicks": 240,
          "midi": 38,
          "name": "D2",
          "ticks": 142560,
          "time": 127.285587,
          "velocity": 1
        },
        {
          "duration": 0.21428550000000257,
          "durationTicks": 240,
          "midi": 42,
          "name": "F#2",
          "ticks": 142800,
          "time": 127.49987250000001,
          "velocity": 1
        },
        {
          "duration": 0.21428550000000257,
          "durationTicks": 240,
          "midi": 42,
          "name": "F#2",
          "ticks": 143040,
          "time": 127.71415800000001,
          "velocity": 1
        },
        {
          "duration": 0.21428549999998836,
          "durationTicks": 240,
          "midi": 42,
          "name": "F#2",
          "ticks": 143280,
          "time": 127.92844350000001,
          "velocity": 1
        },
        {
          "duration": 0.21428549999998836,
          "durationTicks": 240,
          "midi": 35,
          "name": "B1",
          "ticks": 143280,
          "time": 127.92844350000001,
          "velocity": 1
        },
        {
          "duration": 0.21428550000001678,
          "durationTicks": 240,
          "midi": 42,
          "name": "F#2",
          "ticks": 143520,
          "time": 128.142729,
          "velocity": 1
        },
        {
          "duration": 0.21428550000001678,
          "durationTicks": 240,
          "midi": 38,
          "name": "D2",
          "ticks": 143520,
          "time": 128.142729,
          "velocity": 1
        },
        {
          "duration": 0.21428549999998836,
          "durationTicks": 240,
          "midi": 42,
          "name": "F#2",
          "ticks": 143760,
          "time": 128.35701450000002,
          "velocity": 1
        },
        {
          "duration": 0.21428550000001678,
          "durationTicks": 240,
          "midi": 42,
          "name": "F#2",
          "ticks": 144000,
          "time": 128.5713,
          "velocity": 1
        },
        {
          "duration": 0.21428550000001678,
          "durationTicks": 240,
          "midi": 35,
          "name": "B1",
          "ticks": 144000,
          "time": 128.5713,
          "velocity": 1
        },
        {
          "duration": 0.21428549999998836,
          "durationTicks": 240,
          "midi": 42,
          "name": "F#2",
          "ticks": 144240,
          "time": 128.78558550000002,
          "velocity": 1
        },
        {
          "duration": 0.21428549999998836,
          "durationTicks": 240,
          "midi": 42,
          "name": "F#2",
          "ticks": 144480,
          "time": 128.999871,
          "velocity": 1
        },
        {
          "duration": 0.21428549999998836,
          "durationTicks": 240,
          "midi": 38,
          "name": "D2",
          "ticks": 144480,
          "time": 128.999871,
          "velocity": 1
        },
        {
          "duration": 0.21428550000001678,
          "durationTicks": 240,
          "midi": 42,
          "name": "F#2",
          "ticks": 144720,
          "time": 129.2141565,
          "velocity": 1
        },
        {
          "duration": 0.21428549999998836,
          "durationTicks": 240,
          "midi": 42,
          "name": "F#2",
          "ticks": 144960,
          "time": 129.42844200000002,
          "velocity": 1
        },
        {
          "duration": 0.21428550000001678,
          "durationTicks": 240,
          "midi": 42,
          "name": "F#2",
          "ticks": 145200,
          "time": 129.6427275,
          "velocity": 1
        },
        {
          "duration": 0.21428550000001678,
          "durationTicks": 240,
          "midi": 35,
          "name": "B1",
          "ticks": 145200,
          "time": 129.6427275,
          "velocity": 1
        },
        {
          "duration": 0.21428549999998836,
          "durationTicks": 240,
          "midi": 42,
          "name": "F#2",
          "ticks": 145440,
          "time": 129.85701300000002,
          "velocity": 1
        },
        {
          "duration": 0.21428549999998836,
          "durationTicks": 240,
          "midi": 38,
          "name": "D2",
          "ticks": 145440,
          "time": 129.85701300000002,
          "velocity": 1
        },
        {
          "duration": 0.21428549999998836,
          "durationTicks": 240,
          "midi": 42,
          "name": "F#2",
          "ticks": 145680,
          "time": 130.0712985,
          "velocity": 1
        },
        {
          "duration": 0.21428550000001678,
          "durationTicks": 240,
          "midi": 42,
          "name": "F#2",
          "ticks": 145920,
          "time": 130.285584,
          "velocity": 1
        },
        {
          "duration": 0.21428550000001678,
          "durationTicks": 240,
          "midi": 35,
          "name": "B1",
          "ticks": 145920,
          "time": 130.285584,
          "velocity": 1
        },
        {
          "duration": 0.21428549999998836,
          "durationTicks": 240,
          "midi": 42,
          "name": "F#2",
          "ticks": 146160,
          "time": 130.49986950000002,
          "velocity": 1
        },
        {
          "duration": 0.21428550000001678,
          "durationTicks": 240,
          "midi": 42,
          "name": "F#2",
          "ticks": 146400,
          "time": 130.714155,
          "velocity": 1
        },
        {
          "duration": 0.21428550000001678,
          "durationTicks": 240,
          "midi": 38,
          "name": "D2",
          "ticks": 146400,
          "time": 130.714155,
          "velocity": 1
        },
        {
          "duration": 0.21428549999998836,
          "durationTicks": 240,
          "midi": 42,
          "name": "F#2",
          "ticks": 146640,
          "time": 130.92844050000002,
          "velocity": 1
        },
        {
          "duration": 0.21428549999998836,
          "durationTicks": 240,
          "midi": 42,
          "name": "F#2",
          "ticks": 146880,
          "time": 131.142726,
          "velocity": 1
        },
        {
          "duration": 0.21428550000001678,
          "durationTicks": 240,
          "midi": 42,
          "name": "F#2",
          "ticks": 147120,
          "time": 131.3570115,
          "velocity": 1
        },
        {
          "duration": 0.21428550000001678,
          "durationTicks": 240,
          "midi": 35,
          "name": "B1",
          "ticks": 147120,
          "time": 131.3570115,
          "velocity": 1
        },
        {
          "duration": 0.21428549999998836,
          "durationTicks": 240,
          "midi": 42,
          "name": "F#2",
          "ticks": 147360,
          "time": 131.57129700000002,
          "velocity": 1
        },
        {
          "duration": 0.21428549999998836,
          "durationTicks": 240,
          "midi": 38,
          "name": "D2",
          "ticks": 147360,
          "time": 131.57129700000002,
          "velocity": 1
        },
        {
          "duration": 0.21428550000001678,
          "durationTicks": 240,
          "midi": 42,
          "name": "F#2",
          "ticks": 147600,
          "time": 131.7855825,
          "velocity": 1
        },
        {
          "duration": 0.21428549999998836,
          "durationTicks": 240,
          "midi": 42,
          "name": "F#2",
          "ticks": 147840,
          "time": 131.99986800000002,
          "velocity": 1
        },
        {
          "duration": 0.21428549999998836,
          "durationTicks": 240,
          "midi": 35,
          "name": "B1",
          "ticks": 147840,
          "time": 131.99986800000002,
          "velocity": 1
        },
        {
          "duration": 0.21428549999998836,
          "durationTicks": 240,
          "midi": 42,
          "name": "F#2",
          "ticks": 148080,
          "time": 132.2141535,
          "velocity": 1
        },
        {
          "duration": 0.21428550000001678,
          "durationTicks": 240,
          "midi": 42,
          "name": "F#2",
          "ticks": 148320,
          "time": 132.428439,
          "velocity": 1
        },
        {
          "duration": 0.21428550000001678,
          "durationTicks": 240,
          "midi": 38,
          "name": "D2",
          "ticks": 148320,
          "time": 132.428439,
          "velocity": 1
        },
        {
          "duration": 0.21428549999998836,
          "durationTicks": 240,
          "midi": 42,
          "name": "F#2",
          "ticks": 148560,
          "time": 132.6427245,
          "velocity": 1
        },
        {
          "duration": 0.21428550000001678,
          "durationTicks": 240,
          "midi": 42,
          "name": "F#2",
          "ticks": 148800,
          "time": 132.85701,
          "velocity": 1
        },
        {
          "duration": 0.21428549999998836,
          "durationTicks": 240,
          "midi": 42,
          "name": "F#2",
          "ticks": 149040,
          "time": 133.07129550000002,
          "velocity": 1
        },
        {
          "duration": 0.21428549999998836,
          "durationTicks": 240,
          "midi": 35,
          "name": "B1",
          "ticks": 149040,
          "time": 133.07129550000002,
          "velocity": 1
        },
        {
          "duration": 0.21428550000001678,
          "durationTicks": 240,
          "midi": 42,
          "name": "F#2",
          "ticks": 149280,
          "time": 133.285581,
          "velocity": 1
        },
        {
          "duration": 0.21428550000001678,
          "durationTicks": 240,
          "midi": 38,
          "name": "D2",
          "ticks": 149280,
          "time": 133.285581,
          "velocity": 1
        },
        {
          "duration": 0.21428549999998836,
          "durationTicks": 240,
          "midi": 42,
          "name": "F#2",
          "ticks": 149520,
          "time": 133.49986650000002,
          "velocity": 1
        },
        {
          "duration": 0.21428549999998836,
          "durationTicks": 240,
          "midi": 42,
          "name": "F#2",
          "ticks": 149760,
          "time": 133.714152,
          "velocity": 1
        },
        {
          "duration": 0.21428549999998836,
          "durationTicks": 240,
          "midi": 35,
          "name": "B1",
          "ticks": 149760,
          "time": 133.714152,
          "velocity": 1
        },
        {
          "duration": 0.21428550000001678,
          "durationTicks": 240,
          "midi": 42,
          "name": "F#2",
          "ticks": 150000,
          "time": 133.9284375,
          "velocity": 1
        },
        {
          "duration": 0.21428549999998836,
          "durationTicks": 240,
          "midi": 42,
          "name": "F#2",
          "ticks": 150240,
          "time": 134.14272300000002,
          "velocity": 1
        },
        {
          "duration": 0.21428549999998836,
          "durationTicks": 240,
          "midi": 38,
          "name": "D2",
          "ticks": 150240,
          "time": 134.14272300000002,
          "velocity": 1
        },
        {
          "duration": 0.21428550000001678,
          "durationTicks": 240,
          "midi": 42,
          "name": "F#2",
          "ticks": 150480,
          "time": 134.3570085,
          "velocity": 1
        },
        {
          "duration": 0.21428549999998836,
          "durationTicks": 240,
          "midi": 42,
          "name": "F#2",
          "ticks": 150720,
          "time": 134.57129400000002,
          "velocity": 1
        },
        {
          "duration": 0.21428549999998836,
          "durationTicks": 240,
          "midi": 42,
          "name": "F#2",
          "ticks": 150960,
          "time": 134.7855795,
          "velocity": 1
        },
        {
          "duration": 0.21428549999998836,
          "durationTicks": 240,
          "midi": 35,
          "name": "B1",
          "ticks": 150960,
          "time": 134.7855795,
          "velocity": 1
        },
        {
          "duration": 0.21428550000001678,
          "durationTicks": 240,
          "midi": 42,
          "name": "F#2",
          "ticks": 151200,
          "time": 134.999865,
          "velocity": 1
        },
        {
          "duration": 0.21428550000001678,
          "durationTicks": 240,
          "midi": 38,
          "name": "D2",
          "ticks": 151200,
          "time": 134.999865,
          "velocity": 1
        },
        {
          "duration": 0.21428549999998836,
          "durationTicks": 240,
          "midi": 42,
          "name": "F#2",
          "ticks": 151440,
          "time": 135.21415050000002,
          "velocity": 1
        },
        {
          "duration": 0.21428550000001678,
          "durationTicks": 240,
          "midi": 42,
          "name": "F#2",
          "ticks": 151680,
          "time": 135.428436,
          "velocity": 1
        },
        {
          "duration": 0.21428550000001678,
          "durationTicks": 240,
          "midi": 35,
          "name": "B1",
          "ticks": 151680,
          "time": 135.428436,
          "velocity": 1
        },
        {
          "duration": 0.21428549999998836,
          "durationTicks": 240,
          "midi": 42,
          "name": "F#2",
          "ticks": 151920,
          "time": 135.64272150000002,
          "velocity": 1
        },
        {
          "duration": 0.21428549999998836,
          "durationTicks": 240,
          "midi": 42,
          "name": "F#2",
          "ticks": 152160,
          "time": 135.857007,
          "velocity": 1
        },
        {
          "duration": 0.21428549999998836,
          "durationTicks": 240,
          "midi": 38,
          "name": "D2",
          "ticks": 152160,
          "time": 135.857007,
          "velocity": 1
        },
        {
          "duration": 0.21428550000001678,
          "durationTicks": 240,
          "midi": 42,
          "name": "F#2",
          "ticks": 152400,
          "time": 136.0712925,
          "velocity": 1
        },
        {
          "duration": 0.21428549999998836,
          "durationTicks": 240,
          "midi": 42,
          "name": "F#2",
          "ticks": 152640,
          "time": 136.28557800000002,
          "velocity": 1
        },
        {
          "duration": 0.21428550000001678,
          "durationTicks": 240,
          "midi": 42,
          "name": "F#2",
          "ticks": 152880,
          "time": 136.4998635,
          "velocity": 1
        },
        {
          "duration": 0.21428550000001678,
          "durationTicks": 240,
          "midi": 35,
          "name": "B1",
          "ticks": 152880,
          "time": 136.4998635,
          "velocity": 1
        },
        {
          "duration": 0.21428549999998836,
          "durationTicks": 240,
          "midi": 42,
          "name": "F#2",
          "ticks": 153120,
          "time": 136.71414900000002,
          "velocity": 1
        },
        {
          "duration": 0.21428549999998836,
          "durationTicks": 240,
          "midi": 38,
          "name": "D2",
          "ticks": 153120,
          "time": 136.71414900000002,
          "velocity": 1
        },
        {
          "duration": 0.21428549999998836,
          "durationTicks": 240,
          "midi": 42,
          "name": "F#2",
          "ticks": 153360,
          "time": 136.9284345,
          "velocity": 1
        },
        {
          "duration": 0.21428550000001678,
          "durationTicks": 240,
          "midi": 42,
          "name": "F#2",
          "ticks": 153600,
          "time": 137.14272,
          "velocity": 1
        },
        {
          "duration": 0.21428550000001678,
          "durationTicks": 240,
          "midi": 35,
          "name": "B1",
          "ticks": 153600,
          "time": 137.14272,
          "velocity": 1
        },
        {
          "duration": 0.21428549999998836,
          "durationTicks": 240,
          "midi": 42,
          "name": "F#2",
          "ticks": 153840,
          "time": 137.3570055,
          "velocity": 1
        },
        {
          "duration": 0.21428550000001678,
          "durationTicks": 240,
          "midi": 42,
          "name": "F#2",
          "ticks": 154080,
          "time": 137.571291,
          "velocity": 1
        },
        {
          "duration": 0.21428550000001678,
          "durationTicks": 240,
          "midi": 38,
          "name": "D2",
          "ticks": 154080,
          "time": 137.571291,
          "velocity": 1
        },
        {
          "duration": 0.21428549999998836,
          "durationTicks": 240,
          "midi": 42,
          "name": "F#2",
          "ticks": 154320,
          "time": 137.78557650000002,
          "velocity": 1
        },
        {
          "duration": 0.21428550000001678,
          "durationTicks": 240,
          "midi": 42,
          "name": "F#2",
          "ticks": 154560,
          "time": 137.999862,
          "velocity": 1
        },
        {
          "duration": 0.21428549999998836,
          "durationTicks": 240,
          "midi": 42,
          "name": "F#2",
          "ticks": 154800,
          "time": 138.21414750000002,
          "velocity": 1
        },
        {
          "duration": 0.21428549999998836,
          "durationTicks": 240,
          "midi": 35,
          "name": "B1",
          "ticks": 154800,
          "time": 138.21414750000002,
          "velocity": 1
        },
        {
          "duration": 0.21428549999998836,
          "durationTicks": 240,
          "midi": 42,
          "name": "F#2",
          "ticks": 155040,
          "time": 138.428433,
          "velocity": 1
        },
        {
          "duration": 0.21428549999998836,
          "durationTicks": 240,
          "midi": 38,
          "name": "D2",
          "ticks": 155040,
          "time": 138.428433,
          "velocity": 1
        },
        {
          "duration": 0.21428550000001678,
          "durationTicks": 240,
          "midi": 42,
          "name": "F#2",
          "ticks": 155280,
          "time": 138.6427185,
          "velocity": 1
        },
        {
          "duration": 0.21428549999998836,
          "durationTicks": 240,
          "midi": 42,
          "name": "F#2",
          "ticks": 155520,
          "time": 138.85700400000002,
          "velocity": 1
        },
        {
          "duration": 0.21428549999998836,
          "durationTicks": 240,
          "midi": 35,
          "name": "B1",
          "ticks": 155520,
          "time": 138.85700400000002,
          "velocity": 1
        },
        {
          "duration": 0.21428550000001678,
          "durationTicks": 240,
          "midi": 42,
          "name": "F#2",
          "ticks": 155760,
          "time": 139.0712895,
          "velocity": 1
        },
        {
          "duration": 0.21428549999998836,
          "durationTicks": 240,
          "midi": 42,
          "name": "F#2",
          "ticks": 156000,
          "time": 139.28557500000002,
          "velocity": 1
        },
        {
          "duration": 0.21428549999998836,
          "durationTicks": 240,
          "midi": 38,
          "name": "D2",
          "ticks": 156000,
          "time": 139.28557500000002,
          "velocity": 1
        },
        {
          "duration": 0.21428549999998836,
          "durationTicks": 240,
          "midi": 42,
          "name": "F#2",
          "ticks": 156240,
          "time": 139.4998605,
          "velocity": 1
        },
        {
          "duration": 0.21428550000001678,
          "durationTicks": 240,
          "midi": 42,
          "name": "F#2",
          "ticks": 156480,
          "time": 139.714146,
          "velocity": 1
        },
        {
          "duration": 0.21428549999998836,
          "durationTicks": 240,
          "midi": 42,
          "name": "F#2",
          "ticks": 156720,
          "time": 139.92843150000002,
          "velocity": 1
        },
        {
          "duration": 0.21428549999998836,
          "durationTicks": 240,
          "midi": 35,
          "name": "B1",
          "ticks": 156720,
          "time": 139.92843150000002,
          "velocity": 1
        },
        {
          "duration": 0.21428550000001678,
          "durationTicks": 240,
          "midi": 42,
          "name": "F#2",
          "ticks": 156960,
          "time": 140.142717,
          "velocity": 1
        },
        {
          "duration": 0.21428550000001678,
          "durationTicks": 240,
          "midi": 38,
          "name": "D2",
          "ticks": 156960,
          "time": 140.142717,
          "velocity": 1
        },
        {
          "duration": 0.21428549999998836,
          "durationTicks": 240,
          "midi": 42,
          "name": "F#2",
          "ticks": 157200,
          "time": 140.35700250000002,
          "velocity": 1
        },
        {
          "duration": 0.21428549999998836,
          "durationTicks": 240,
          "midi": 42,
          "name": "F#2",
          "ticks": 157440,
          "time": 140.571288,
          "velocity": 1
        },
        {
          "duration": 0.21428549999998836,
          "durationTicks": 240,
          "midi": 35,
          "name": "B1",
          "ticks": 157440,
          "time": 140.571288,
          "velocity": 1
        },
        {
          "duration": 0.21428550000001678,
          "durationTicks": 240,
          "midi": 42,
          "name": "F#2",
          "ticks": 157680,
          "time": 140.7855735,
          "velocity": 1
        },
        {
          "duration": 0.21428549999998836,
          "durationTicks": 240,
          "midi": 42,
          "name": "F#2",
          "ticks": 157920,
          "time": 140.99985900000001,
          "velocity": 1
        },
        {
          "duration": 0.21428549999998836,
          "durationTicks": 240,
          "midi": 38,
          "name": "D2",
          "ticks": 157920,
          "time": 140.99985900000001,
          "velocity": 1
        },
        {
          "duration": 0.21428550000001678,
          "durationTicks": 240,
          "midi": 42,
          "name": "F#2",
          "ticks": 158160,
          "time": 141.2141445,
          "velocity": 1
        },
        {
          "duration": 0.21428549999998836,
          "durationTicks": 240,
          "midi": 42,
          "name": "F#2",
          "ticks": 158400,
          "time": 141.42843000000002,
          "velocity": 1
        },
        {
          "duration": 0.21428550000001678,
          "durationTicks": 240,
          "midi": 42,
          "name": "F#2",
          "ticks": 158640,
          "time": 141.6427155,
          "velocity": 1
        },
        {
          "duration": 0.21428550000001678,
          "durationTicks": 240,
          "midi": 35,
          "name": "B1",
          "ticks": 158640,
          "time": 141.6427155,
          "velocity": 1
        },
        {
          "duration": 0.21428549999998836,
          "durationTicks": 240,
          "midi": 42,
          "name": "F#2",
          "ticks": 158880,
          "time": 141.85700100000003,
          "velocity": 1
        },
        {
          "duration": 0.21428549999998836,
          "durationTicks": 240,
          "midi": 38,
          "name": "D2",
          "ticks": 158880,
          "time": 141.85700100000003,
          "velocity": 1
        },
        {
          "duration": 0.21428549999998836,
          "durationTicks": 240,
          "midi": 42,
          "name": "F#2",
          "ticks": 159120,
          "time": 142.0712865,
          "velocity": 1
        },
        {
          "duration": 0.21428550000001678,
          "durationTicks": 240,
          "midi": 42,
          "name": "F#2",
          "ticks": 159360,
          "time": 142.285572,
          "velocity": 1
        },
        {
          "duration": 0.21428550000001678,
          "durationTicks": 240,
          "midi": 35,
          "name": "B1",
          "ticks": 159360,
          "time": 142.285572,
          "velocity": 1
        },
        {
          "duration": 0.21428549999998836,
          "durationTicks": 240,
          "midi": 42,
          "name": "F#2",
          "ticks": 159600,
          "time": 142.49985750000002,
          "velocity": 1
        },
        {
          "duration": 0.21428550000001678,
          "durationTicks": 240,
          "midi": 42,
          "name": "F#2",
          "ticks": 159840,
          "time": 142.714143,
          "velocity": 1
        },
        {
          "duration": 0.21428550000001678,
          "durationTicks": 240,
          "midi": 38,
          "name": "D2",
          "ticks": 159840,
          "time": 142.714143,
          "velocity": 1
        },
        {
          "duration": 0.21428549999998836,
          "durationTicks": 240,
          "midi": 42,
          "name": "F#2",
          "ticks": 160080,
          "time": 142.92842850000002,
          "velocity": 1
        },
        {
          "duration": 0.21428549999998836,
          "durationTicks": 240,
          "midi": 42,
          "name": "F#2",
          "ticks": 160320,
          "time": 143.142714,
          "velocity": 1
        },
        {
          "duration": 0.21428550000001678,
          "durationTicks": 240,
          "midi": 42,
          "name": "F#2",
          "ticks": 160560,
          "time": 143.3569995,
          "velocity": 1
        },
        {
          "duration": 0.21428550000001678,
          "durationTicks": 240,
          "midi": 35,
          "name": "B1",
          "ticks": 160560,
          "time": 143.3569995,
          "velocity": 1
        },
        {
          "duration": 0.21428549999998836,
          "durationTicks": 240,
          "midi": 42,
          "name": "F#2",
          "ticks": 160800,
          "time": 143.57128500000002,
          "velocity": 1
        },
        {
          "duration": 0.21428549999998836,
          "durationTicks": 240,
          "midi": 38,
          "name": "D2",
          "ticks": 160800,
          "time": 143.57128500000002,
          "velocity": 1
        },
        {
          "duration": 0.21428550000001678,
          "durationTicks": 240,
          "midi": 42,
          "name": "F#2",
          "ticks": 161040,
          "time": 143.7855705,
          "velocity": 1
        },
        {
          "duration": 0.21428549999998836,
          "durationTicks": 240,
          "midi": 42,
          "name": "F#2",
          "ticks": 161280,
          "time": 143.99985600000002,
          "velocity": 1
        },
        {
          "duration": 0.21428549999998836,
          "durationTicks": 240,
          "midi": 35,
          "name": "B1",
          "ticks": 161280,
          "time": 143.99985600000002,
          "velocity": 1
        },
        {
          "duration": 0.21428549999998836,
          "durationTicks": 240,
          "midi": 42,
          "name": "F#2",
          "ticks": 161520,
          "time": 144.2141415,
          "velocity": 1
        },
        {
          "duration": 0.21428550000001678,
          "durationTicks": 240,
          "midi": 42,
          "name": "F#2",
          "ticks": 161760,
          "time": 144.428427,
          "velocity": 1
        },
        {
          "duration": 0.21428550000001678,
          "durationTicks": 240,
          "midi": 38,
          "name": "D2",
          "ticks": 161760,
          "time": 144.428427,
          "velocity": 1
        },
        {
          "duration": 0.21428549999998836,
          "durationTicks": 240,
          "midi": 42,
          "name": "F#2",
          "ticks": 162000,
          "time": 144.64271250000002,
          "velocity": 1
        },
        {
          "duration": 0.21428550000001678,
          "durationTicks": 240,
          "midi": 42,
          "name": "F#2",
          "ticks": 162240,
          "time": 144.856998,
          "velocity": 1
        },
        {
          "duration": 0.21428549999998836,
          "durationTicks": 240,
          "midi": 42,
          "name": "F#2",
          "ticks": 162480,
          "time": 145.07128350000002,
          "velocity": 1
        },
        {
          "duration": 0.21428549999998836,
          "durationTicks": 240,
          "midi": 35,
          "name": "B1",
          "ticks": 162480,
          "time": 145.07128350000002,
          "velocity": 1
        },
        {
          "duration": 0.21428549999998836,
          "durationTicks": 240,
          "midi": 42,
          "name": "F#2",
          "ticks": 162720,
          "time": 145.285569,
          "velocity": 1
        },
        {
          "duration": 0.21428549999998836,
          "durationTicks": 240,
          "midi": 38,
          "name": "D2",
          "ticks": 162720,
          "time": 145.285569,
          "velocity": 1
        },
        {
          "duration": 0.21428550000001678,
          "durationTicks": 240,
          "midi": 42,
          "name": "F#2",
          "ticks": 162960,
          "time": 145.4998545,
          "velocity": 1
        },
        {
          "duration": 0.21428549999998836,
          "durationTicks": 240,
          "midi": 42,
          "name": "F#2",
          "ticks": 163200,
          "time": 145.71414000000001,
          "velocity": 1
        },
        {
          "duration": 0.21428549999998836,
          "durationTicks": 240,
          "midi": 35,
          "name": "B1",
          "ticks": 163200,
          "time": 145.71414000000001,
          "velocity": 1
        },
        {
          "duration": 0.21428550000001678,
          "durationTicks": 240,
          "midi": 42,
          "name": "F#2",
          "ticks": 163440,
          "time": 145.9284255,
          "velocity": 1
        },
        {
          "duration": 0.21428549999998836,
          "durationTicks": 240,
          "midi": 42,
          "name": "F#2",
          "ticks": 163680,
          "time": 146.14271100000002,
          "velocity": 1
        },
        {
          "duration": 0.21428549999998836,
          "durationTicks": 240,
          "midi": 38,
          "name": "D2",
          "ticks": 163680,
          "time": 146.14271100000002,
          "velocity": 1
        },
        {
          "duration": 0.21428550000001678,
          "durationTicks": 240,
          "midi": 42,
          "name": "F#2",
          "ticks": 163920,
          "time": 146.3569965,
          "velocity": 1
        },
        {
          "duration": 0.21428549999998836,
          "durationTicks": 240,
          "midi": 42,
          "name": "F#2",
          "ticks": 164160,
          "time": 146.57128200000002,
          "velocity": 1
        },
        {
          "duration": 0.21428549999998836,
          "durationTicks": 240,
          "midi": 42,
          "name": "F#2",
          "ticks": 164400,
          "time": 146.7855675,
          "velocity": 1
        },
        {
          "duration": 0.21428549999998836,
          "durationTicks": 240,
          "midi": 35,
          "name": "B1",
          "ticks": 164400,
          "time": 146.7855675,
          "velocity": 1
        },
        {
          "duration": 0.21428550000001678,
          "durationTicks": 240,
          "midi": 42,
          "name": "F#2",
          "ticks": 164640,
          "time": 146.999853,
          "velocity": 1
        },
        {
          "duration": 0.21428550000001678,
          "durationTicks": 240,
          "midi": 38,
          "name": "D2",
          "ticks": 164640,
          "time": 146.999853,
          "velocity": 1
        },
        {
          "duration": 0.21428549999998836,
          "durationTicks": 240,
          "midi": 42,
          "name": "F#2",
          "ticks": 164880,
          "time": 147.21413850000002,
          "velocity": 1
        },
        {
          "duration": 0.21428550000001678,
          "durationTicks": 240,
          "midi": 42,
          "name": "F#2",
          "ticks": 165120,
          "time": 147.428424,
          "velocity": 1
        },
        {
          "duration": 0.21428550000001678,
          "durationTicks": 240,
          "midi": 35,
          "name": "B1",
          "ticks": 165120,
          "time": 147.428424,
          "velocity": 1
        },
        {
          "duration": 0.21428549999998836,
          "durationTicks": 240,
          "midi": 42,
          "name": "F#2",
          "ticks": 165360,
          "time": 147.64270950000002,
          "velocity": 1
        },
        {
          "duration": 0.21428549999998836,
          "durationTicks": 240,
          "midi": 42,
          "name": "F#2",
          "ticks": 165600,
          "time": 147.856995,
          "velocity": 1
        },
        {
          "duration": 0.21428549999998836,
          "durationTicks": 240,
          "midi": 38,
          "name": "D2",
          "ticks": 165600,
          "time": 147.856995,
          "velocity": 1
        },
        {
          "duration": 0.21428550000001678,
          "durationTicks": 240,
          "midi": 42,
          "name": "F#2",
          "ticks": 165840,
          "time": 148.0712805,
          "velocity": 1
        },
        {
          "duration": 0.21428549999998836,
          "durationTicks": 240,
          "midi": 42,
          "name": "F#2",
          "ticks": 166080,
          "time": 148.28556600000002,
          "velocity": 1
        },
        {
          "duration": 0.21428550000001678,
          "durationTicks": 240,
          "midi": 42,
          "name": "F#2",
          "ticks": 166320,
          "time": 148.4998515,
          "velocity": 1
        },
        {
          "duration": 0.21428550000001678,
          "durationTicks": 240,
          "midi": 35,
          "name": "B1",
          "ticks": 166320,
          "time": 148.4998515,
          "velocity": 1
        },
        {
          "duration": 0.21428549999998836,
          "durationTicks": 240,
          "midi": 42,
          "name": "F#2",
          "ticks": 166560,
          "time": 148.71413700000002,
          "velocity": 1
        },
        {
          "duration": 0.21428549999998836,
          "durationTicks": 240,
          "midi": 38,
          "name": "D2",
          "ticks": 166560,
          "time": 148.71413700000002,
          "velocity": 1
        },
        {
          "duration": 0.21428549999998836,
          "durationTicks": 240,
          "midi": 42,
          "name": "F#2",
          "ticks": 166800,
          "time": 148.9284225,
          "velocity": 1
        },
        {
          "duration": 0.21428550000001678,
          "durationTicks": 240,
          "midi": 42,
          "name": "F#2",
          "ticks": 167040,
          "time": 149.142708,
          "velocity": 1
        },
        {
          "duration": 0.21428550000001678,
          "durationTicks": 240,
          "midi": 35,
          "name": "B1",
          "ticks": 167040,
          "time": 149.142708,
          "velocity": 1
        },
        {
          "duration": 0.21428549999998836,
          "durationTicks": 240,
          "midi": 42,
          "name": "F#2",
          "ticks": 167280,
          "time": 149.35699350000002,
          "velocity": 1
        },
        {
          "duration": 0.21428550000001678,
          "durationTicks": 240,
          "midi": 42,
          "name": "F#2",
          "ticks": 167520,
          "time": 149.571279,
          "velocity": 1
        },
        {
          "duration": 0.21428550000001678,
          "durationTicks": 240,
          "midi": 38,
          "name": "D2",
          "ticks": 167520,
          "time": 149.571279,
          "velocity": 1
        },
        {
          "duration": 0.21428549999998836,
          "durationTicks": 240,
          "midi": 42,
          "name": "F#2",
          "ticks": 167760,
          "time": 149.78556450000002,
          "velocity": 1
        },
        {
          "duration": 0.21428550000001678,
          "durationTicks": 240,
          "midi": 42,
          "name": "F#2",
          "ticks": 168000,
          "time": 149.99985,
          "velocity": 1
        },
        {
          "duration": 0.21428549999998836,
          "durationTicks": 240,
          "midi": 42,
          "name": "F#2",
          "ticks": 168240,
          "time": 150.21413550000003,
          "velocity": 1
        },
        {
          "duration": 0.21428549999998836,
          "durationTicks": 240,
          "midi": 35,
          "name": "B1",
          "ticks": 168240,
          "time": 150.21413550000003,
          "velocity": 1
        },
        {
          "duration": 0.21428549999998836,
          "durationTicks": 240,
          "midi": 42,
          "name": "F#2",
          "ticks": 168480,
          "time": 150.42842100000001,
          "velocity": 1
        },
        {
          "duration": 0.21428549999998836,
          "durationTicks": 240,
          "midi": 38,
          "name": "D2",
          "ticks": 168480,
          "time": 150.42842100000001,
          "velocity": 1
        },
        {
          "duration": 0.21428550000001678,
          "durationTicks": 240,
          "midi": 42,
          "name": "F#2",
          "ticks": 168720,
          "time": 150.6427065,
          "velocity": 1
        },
        {
          "duration": 0.21428549999998836,
          "durationTicks": 240,
          "midi": 42,
          "name": "F#2",
          "ticks": 168960,
          "time": 150.85699200000002,
          "velocity": 1
        },
        {
          "duration": 0.21428549999998836,
          "durationTicks": 240,
          "midi": 35,
          "name": "B1",
          "ticks": 168960,
          "time": 150.85699200000002,
          "velocity": 1
        },
        {
          "duration": 0.21428550000001678,
          "durationTicks": 240,
          "midi": 42,
          "name": "F#2",
          "ticks": 169200,
          "time": 151.0712775,
          "velocity": 1
        },
        {
          "duration": 0.21428549999998836,
          "durationTicks": 240,
          "midi": 42,
          "name": "F#2",
          "ticks": 169440,
          "time": 151.28556300000002,
          "velocity": 1
        },
        {
          "duration": 0.21428549999998836,
          "durationTicks": 240,
          "midi": 38,
          "name": "D2",
          "ticks": 169440,
          "time": 151.28556300000002,
          "velocity": 1
        },
        {
          "duration": 0.21428549999998836,
          "durationTicks": 240,
          "midi": 42,
          "name": "F#2",
          "ticks": 169680,
          "time": 151.4998485,
          "velocity": 1
        },
        {
          "duration": 0.21428550000001678,
          "durationTicks": 240,
          "midi": 42,
          "name": "F#2",
          "ticks": 169920,
          "time": 151.714134,
          "velocity": 1
        },
        {
          "duration": 0.21428549999998836,
          "durationTicks": 240,
          "midi": 42,
          "name": "F#2",
          "ticks": 170160,
          "time": 151.92841950000002,
          "velocity": 1
        },
        {
          "duration": 0.21428549999998836,
          "durationTicks": 240,
          "midi": 35,
          "name": "B1",
          "ticks": 170160,
          "time": 151.92841950000002,
          "velocity": 1
        },
        {
          "duration": 0.21428550000001678,
          "durationTicks": 240,
          "midi": 42,
          "name": "F#2",
          "ticks": 170400,
          "time": 152.142705,
          "velocity": 1
        },
        {
          "duration": 0.21428550000001678,
          "durationTicks": 240,
          "midi": 38,
          "name": "D2",
          "ticks": 170400,
          "time": 152.142705,
          "velocity": 1
        },
        {
          "duration": 0.21428549999998836,
          "durationTicks": 240,
          "midi": 42,
          "name": "F#2",
          "ticks": 170640,
          "time": 152.35699050000002,
          "velocity": 1
        },
        {
          "duration": 0.21428549999998836,
          "durationTicks": 240,
          "midi": 42,
          "name": "F#2",
          "ticks": 170880,
          "time": 152.571276,
          "velocity": 1
        },
        {
          "duration": 0.21428549999998836,
          "durationTicks": 240,
          "midi": 35,
          "name": "B1",
          "ticks": 170880,
          "time": 152.571276,
          "velocity": 1
        },
        {
          "duration": 0.21428550000001678,
          "durationTicks": 240,
          "midi": 42,
          "name": "F#2",
          "ticks": 171120,
          "time": 152.7855615,
          "velocity": 1
        },
        {
          "duration": 0.21428549999998836,
          "durationTicks": 240,
          "midi": 42,
          "name": "F#2",
          "ticks": 171360,
          "time": 152.99984700000002,
          "velocity": 1
        },
        {
          "duration": 0.21428549999998836,
          "durationTicks": 240,
          "midi": 38,
          "name": "D2",
          "ticks": 171360,
          "time": 152.99984700000002,
          "velocity": 1
        },
        {
          "duration": 0.21428550000001678,
          "durationTicks": 240,
          "midi": 42,
          "name": "F#2",
          "ticks": 171600,
          "time": 153.2141325,
          "velocity": 1
        },
        {
          "duration": 0.21428549999998836,
          "durationTicks": 240,
          "midi": 42,
          "name": "F#2",
          "ticks": 171840,
          "time": 153.42841800000002,
          "velocity": 1
        },
        {
          "duration": 0.21428549999998836,
          "durationTicks": 240,
          "midi": 42,
          "name": "F#2",
          "ticks": 172080,
          "time": 153.6427035,
          "velocity": 1
        },
        {
          "duration": 0.21428549999998836,
          "durationTicks": 240,
          "midi": 35,
          "name": "B1",
          "ticks": 172080,
          "time": 153.6427035,
          "velocity": 1
        },
        {
          "duration": 0.21428550000001678,
          "durationTicks": 240,
          "midi": 42,
          "name": "F#2",
          "ticks": 172320,
          "time": 153.856989,
          "velocity": 1
        },
        {
          "duration": 0.21428550000001678,
          "durationTicks": 240,
          "midi": 38,
          "name": "D2",
          "ticks": 172320,
          "time": 153.856989,
          "velocity": 1
        },
        {
          "duration": 0.21428549999998836,
          "durationTicks": 240,
          "midi": 42,
          "name": "F#2",
          "ticks": 172560,
          "time": 154.07127450000002,
          "velocity": 1
        },
        {
          "duration": 0.21428550000001678,
          "durationTicks": 240,
          "midi": 42,
          "name": "F#2",
          "ticks": 172800,
          "time": 154.28556,
          "velocity": 1
        },
        {
          "duration": 0.21428550000001678,
          "durationTicks": 240,
          "midi": 35,
          "name": "B1",
          "ticks": 172800,
          "time": 154.28556,
          "velocity": 1
        },
        {
          "duration": 0.21428549999998836,
          "durationTicks": 240,
          "midi": 42,
          "name": "F#2",
          "ticks": 173040,
          "time": 154.49984550000002,
          "velocity": 1
        },
        {
          "duration": 0.21428550000001678,
          "durationTicks": 240,
          "midi": 42,
          "name": "F#2",
          "ticks": 173280,
          "time": 154.714131,
          "velocity": 1
        },
        {
          "duration": 0.21428550000001678,
          "durationTicks": 240,
          "midi": 38,
          "name": "D2",
          "ticks": 173280,
          "time": 154.714131,
          "velocity": 1
        },
        {
          "duration": 0.21428549999998836,
          "durationTicks": 240,
          "midi": 42,
          "name": "F#2",
          "ticks": 173520,
          "time": 154.92841650000003,
          "velocity": 1
        },
        {
          "duration": 0.21428549999998836,
          "durationTicks": 240,
          "midi": 42,
          "name": "F#2",
          "ticks": 173760,
          "time": 155.142702,
          "velocity": 1
        },
        {
          "duration": 0.21428550000001678,
          "durationTicks": 240,
          "midi": 42,
          "name": "F#2",
          "ticks": 174000,
          "time": 155.3569875,
          "velocity": 1
        },
        {
          "duration": 0.21428550000001678,
          "durationTicks": 240,
          "midi": 35,
          "name": "B1",
          "ticks": 174000,
          "time": 155.3569875,
          "velocity": 1
        },
        {
          "duration": 0.21428549999998836,
          "durationTicks": 240,
          "midi": 42,
          "name": "F#2",
          "ticks": 174240,
          "time": 155.57127300000002,
          "velocity": 1
        },
        {
          "duration": 0.21428549999998836,
          "durationTicks": 240,
          "midi": 38,
          "name": "D2",
          "ticks": 174240,
          "time": 155.57127300000002,
          "velocity": 1
        },
        {
          "duration": 0.21428550000001678,
          "durationTicks": 240,
          "midi": 42,
          "name": "F#2",
          "ticks": 174480,
          "time": 155.7855585,
          "velocity": 1
        },
        {
          "duration": 0.21428549999998836,
          "durationTicks": 240,
          "midi": 42,
          "name": "F#2",
          "ticks": 174720,
          "time": 155.99984400000002,
          "velocity": 1
        },
        {
          "duration": 0.21428549999998836,
          "durationTicks": 240,
          "midi": 35,
          "name": "B1",
          "ticks": 174720,
          "time": 155.99984400000002,
          "velocity": 1
        },
        {
          "duration": 0.21428549999998836,
          "durationTicks": 240,
          "midi": 42,
          "name": "F#2",
          "ticks": 174960,
          "time": 156.2141295,
          "velocity": 1
        },
        {
          "duration": 0.21428550000001678,
          "durationTicks": 240,
          "midi": 42,
          "name": "F#2",
          "ticks": 175200,
          "time": 156.428415,
          "velocity": 1
        },
        {
          "duration": 0.21428550000001678,
          "durationTicks": 240,
          "midi": 38,
          "name": "D2",
          "ticks": 175200,
          "time": 156.428415,
          "velocity": 1
        },
        {
          "duration": 0.21428549999998836,
          "durationTicks": 240,
          "midi": 42,
          "name": "F#2",
          "ticks": 175440,
          "time": 156.64270050000002,
          "velocity": 1
        },
        {
          "duration": 0.21428550000001678,
          "durationTicks": 240,
          "midi": 42,
          "name": "F#2",
          "ticks": 175680,
          "time": 156.856986,
          "velocity": 1
        },
        {
          "duration": 0.21428549999998836,
          "durationTicks": 240,
          "midi": 42,
          "name": "F#2",
          "ticks": 175920,
          "time": 157.07127150000002,
          "velocity": 1
        },
        {
          "duration": 0.21428549999998836,
          "durationTicks": 240,
          "midi": 35,
          "name": "B1",
          "ticks": 175920,
          "time": 157.07127150000002,
          "velocity": 1
        },
        {
          "duration": 0.21428549999998836,
          "durationTicks": 240,
          "midi": 42,
          "name": "F#2",
          "ticks": 176160,
          "time": 157.285557,
          "velocity": 1
        },
        {
          "duration": 0.21428549999998836,
          "durationTicks": 240,
          "midi": 38,
          "name": "D2",
          "ticks": 176160,
          "time": 157.285557,
          "velocity": 1
        },
        {
          "duration": 0.21428550000001678,
          "durationTicks": 240,
          "midi": 42,
          "name": "F#2",
          "ticks": 176400,
          "time": 157.4998425,
          "velocity": 1
        },
        {
          "duration": 0.21428549999998836,
          "durationTicks": 240,
          "midi": 42,
          "name": "F#2",
          "ticks": 176640,
          "time": 157.71412800000002,
          "velocity": 1
        },
        {
          "duration": 0.21428549999998836,
          "durationTicks": 240,
          "midi": 35,
          "name": "B1",
          "ticks": 176640,
          "time": 157.71412800000002,
          "velocity": 1
        },
        {
          "duration": 0.21428550000001678,
          "durationTicks": 240,
          "midi": 42,
          "name": "F#2",
          "ticks": 176880,
          "time": 157.9284135,
          "velocity": 1
        },
        {
          "duration": 0.21428549999998836,
          "durationTicks": 240,
          "midi": 42,
          "name": "F#2",
          "ticks": 177120,
          "time": 158.14269900000002,
          "velocity": 1
        },
        {
          "duration": 0.21428549999998836,
          "durationTicks": 240,
          "midi": 38,
          "name": "D2",
          "ticks": 177120,
          "time": 158.14269900000002,
          "velocity": 1
        },
        {
          "duration": 0.21428550000001678,
          "durationTicks": 240,
          "midi": 42,
          "name": "F#2",
          "ticks": 177360,
          "time": 158.3569845,
          "velocity": 1
        },
        {
          "duration": 0.21428549999998836,
          "durationTicks": 240,
          "midi": 42,
          "name": "F#2",
          "ticks": 177600,
          "time": 158.57127000000003,
          "velocity": 1
        },
        {
          "duration": 0.21428549999998836,
          "durationTicks": 240,
          "midi": 42,
          "name": "F#2",
          "ticks": 177840,
          "time": 158.78555550000002,
          "velocity": 1
        },
        {
          "duration": 0.21428549999998836,
          "durationTicks": 240,
          "midi": 35,
          "name": "B1",
          "ticks": 177840,
          "time": 158.78555550000002,
          "velocity": 1
        },
        {
          "duration": 0.21428550000001678,
          "durationTicks": 240,
          "midi": 42,
          "name": "F#2",
          "ticks": 178080,
          "time": 158.999841,
          "velocity": 1
        },
        {
          "duration": 0.21428550000001678,
          "durationTicks": 240,
          "midi": 38,
          "name": "D2",
          "ticks": 178080,
          "time": 158.999841,
          "velocity": 1
        },
        {
          "duration": 0.21428549999998836,
          "durationTicks": 240,
          "midi": 42,
          "name": "F#2",
          "ticks": 178320,
          "time": 159.21412650000002,
          "velocity": 1
        },
        {
          "duration": 0.21428550000001678,
          "durationTicks": 240,
          "midi": 42,
          "name": "F#2",
          "ticks": 178560,
          "time": 159.428412,
          "velocity": 1
        },
        {
          "duration": 0.21428550000001678,
          "durationTicks": 240,
          "midi": 35,
          "name": "B1",
          "ticks": 178560,
          "time": 159.428412,
          "velocity": 1
        },
        {
          "duration": 0.21428549999998836,
          "durationTicks": 240,
          "midi": 42,
          "name": "F#2",
          "ticks": 178800,
          "time": 159.64269750000003,
          "velocity": 1
        },
        {
          "duration": 0.21428549999998836,
          "durationTicks": 240,
          "midi": 42,
          "name": "F#2",
          "ticks": 179040,
          "time": 159.856983,
          "velocity": 1
        },
        {
          "duration": 0.21428549999998836,
          "durationTicks": 240,
          "midi": 38,
          "name": "D2",
          "ticks": 179040,
          "time": 159.856983,
          "velocity": 1
        },
        {
          "duration": 0.21428550000001678,
          "durationTicks": 240,
          "midi": 42,
          "name": "F#2",
          "ticks": 179280,
          "time": 160.0712685,
          "velocity": 1
        },
        {
          "duration": 0.21428549999998836,
          "durationTicks": 240,
          "midi": 42,
          "name": "F#2",
          "ticks": 179520,
          "time": 160.28555400000002,
          "velocity": 1
        },
        {
          "duration": 0.21428550000001678,
          "durationTicks": 240,
          "midi": 42,
          "name": "F#2",
          "ticks": 179760,
          "time": 160.4998395,
          "velocity": 1
        },
        {
          "duration": 0.21428550000001678,
          "durationTicks": 240,
          "midi": 35,
          "name": "B1",
          "ticks": 179760,
          "time": 160.4998395,
          "velocity": 1
        },
        {
          "duration": 0.21428549999998836,
          "durationTicks": 240,
          "midi": 42,
          "name": "F#2",
          "ticks": 180000,
          "time": 160.71412500000002,
          "velocity": 1
        },
        {
          "duration": 0.21428549999998836,
          "durationTicks": 240,
          "midi": 38,
          "name": "D2",
          "ticks": 180000,
          "time": 160.71412500000002,
          "velocity": 1
        },
        {
          "duration": 0.21428549999998836,
          "durationTicks": 240,
          "midi": 42,
          "name": "F#2",
          "ticks": 180240,
          "time": 160.9284105,
          "velocity": 1
        },
        {
          "duration": 0.21428550000001678,
          "durationTicks": 240,
          "midi": 42,
          "name": "F#2",
          "ticks": 180480,
          "time": 161.142696,
          "velocity": 1
        },
        {
          "duration": 0.21428550000001678,
          "durationTicks": 240,
          "midi": 35,
          "name": "B1",
          "ticks": 180480,
          "time": 161.142696,
          "velocity": 1
        },
        {
          "duration": 0.21428549999998836,
          "durationTicks": 240,
          "midi": 42,
          "name": "F#2",
          "ticks": 180720,
          "time": 161.35698150000002,
          "velocity": 1
        },
        {
          "duration": 0.21428550000001678,
          "durationTicks": 240,
          "midi": 42,
          "name": "F#2",
          "ticks": 180960,
          "time": 161.571267,
          "velocity": 1
        },
        {
          "duration": 0.21428550000001678,
          "durationTicks": 240,
          "midi": 38,
          "name": "D2",
          "ticks": 180960,
          "time": 161.571267,
          "velocity": 1
        },
        {
          "duration": 0.21428549999998836,
          "durationTicks": 240,
          "midi": 42,
          "name": "F#2",
          "ticks": 181200,
          "time": 161.78555250000002,
          "velocity": 1
        },
        {
          "duration": 0.21428549999998836,
          "durationTicks": 240,
          "midi": 42,
          "name": "F#2",
          "ticks": 181440,
          "time": 161.999838,
          "velocity": 1
        },
        {
          "duration": 0.21428550000001678,
          "durationTicks": 240,
          "midi": 42,
          "name": "F#2",
          "ticks": 181680,
          "time": 162.2141235,
          "velocity": 1
        },
        {
          "duration": 0.21428550000001678,
          "durationTicks": 240,
          "midi": 35,
          "name": "B1",
          "ticks": 181680,
          "time": 162.2141235,
          "velocity": 1
        },
        {
          "duration": 0.21428549999998836,
          "durationTicks": 240,
          "midi": 42,
          "name": "F#2",
          "ticks": 181920,
          "time": 162.42840900000002,
          "velocity": 1
        },
        {
          "duration": 0.21428549999998836,
          "durationTicks": 240,
          "midi": 38,
          "name": "D2",
          "ticks": 181920,
          "time": 162.42840900000002,
          "velocity": 1
        },
        {
          "duration": 0.21428550000001678,
          "durationTicks": 240,
          "midi": 42,
          "name": "F#2",
          "ticks": 182160,
          "time": 162.6426945,
          "velocity": 1
        },
        {
          "duration": 0.21428549999998836,
          "durationTicks": 240,
          "midi": 42,
          "name": "F#2",
          "ticks": 182400,
          "time": 162.85698000000002,
          "velocity": 1
        },
        {
          "duration": 0.21428549999998836,
          "durationTicks": 240,
          "midi": 35,
          "name": "B1",
          "ticks": 182400,
          "time": 162.85698000000002,
          "velocity": 1
        },
        {
          "duration": 0.21428550000001678,
          "durationTicks": 240,
          "midi": 42,
          "name": "F#2",
          "ticks": 182640,
          "time": 163.0712655,
          "velocity": 1
        },
        {
          "duration": 0.21428549999998836,
          "durationTicks": 240,
          "midi": 42,
          "name": "F#2",
          "ticks": 182880,
          "time": 163.28555100000003,
          "velocity": 1
        },
        {
          "duration": 0.21428549999998836,
          "durationTicks": 240,
          "midi": 38,
          "name": "D2",
          "ticks": 182880,
          "time": 163.28555100000003,
          "velocity": 1
        },
        {
          "duration": 0.21428549999998836,
          "durationTicks": 240,
          "midi": 42,
          "name": "F#2",
          "ticks": 183120,
          "time": 163.49983650000001,
          "velocity": 1
        },
        {
          "duration": 0.21428550000001678,
          "durationTicks": 240,
          "midi": 42,
          "name": "F#2",
          "ticks": 183360,
          "time": 163.714122,
          "velocity": 1
        },
        {
          "duration": 0.21428549999998836,
          "durationTicks": 240,
          "midi": 42,
          "name": "F#2",
          "ticks": 183600,
          "time": 163.92840750000002,
          "velocity": 1
        },
        {
          "duration": 0.21428549999998836,
          "durationTicks": 240,
          "midi": 35,
          "name": "B1",
          "ticks": 183600,
          "time": 163.92840750000002,
          "velocity": 1
        },
        {
          "duration": 0.21428550000001678,
          "durationTicks": 240,
          "midi": 42,
          "name": "F#2",
          "ticks": 183840,
          "time": 164.142693,
          "velocity": 1
        },
        {
          "duration": 0.21428550000001678,
          "durationTicks": 240,
          "midi": 38,
          "name": "D2",
          "ticks": 183840,
          "time": 164.142693,
          "velocity": 1
        },
        {
          "duration": 0.21428549999998836,
          "durationTicks": 240,
          "midi": 42,
          "name": "F#2",
          "ticks": 184080,
          "time": 164.35697850000003,
          "velocity": 1
        },
        {
          "duration": 0.21428549999998836,
          "durationTicks": 240,
          "midi": 42,
          "name": "F#2",
          "ticks": 184320,
          "time": 164.571264,
          "velocity": 1
        },
        {
          "duration": 0.21428549999998836,
          "durationTicks": 240,
          "midi": 35,
          "name": "B1",
          "ticks": 184320,
          "time": 164.571264,
          "velocity": 1
        },
        {
          "duration": 0.21428550000001678,
          "durationTicks": 240,
          "midi": 42,
          "name": "F#2",
          "ticks": 184560,
          "time": 164.7855495,
          "velocity": 1
        },
        {
          "duration": 0.21428549999998836,
          "durationTicks": 240,
          "midi": 42,
          "name": "F#2",
          "ticks": 184800,
          "time": 164.99983500000002,
          "velocity": 1
        },
        {
          "duration": 0.21428549999998836,
          "durationTicks": 240,
          "midi": 38,
          "name": "D2",
          "ticks": 184800,
          "time": 164.99983500000002,
          "velocity": 1
        },
        {
          "duration": 0.21428550000001678,
          "durationTicks": 240,
          "midi": 42,
          "name": "F#2",
          "ticks": 185040,
          "time": 165.2141205,
          "velocity": 1
        },
        {
          "duration": 0.21428549999998836,
          "durationTicks": 240,
          "midi": 42,
          "name": "F#2",
          "ticks": 185280,
          "time": 165.42840600000002,
          "velocity": 1
        },
        {
          "duration": 0.21428549999998836,
          "durationTicks": 240,
          "midi": 42,
          "name": "F#2",
          "ticks": 185520,
          "time": 165.6426915,
          "velocity": 1
        },
        {
          "duration": 0.21428549999998836,
          "durationTicks": 240,
          "midi": 35,
          "name": "B1",
          "ticks": 185520,
          "time": 165.6426915,
          "velocity": 1
        },
        {
          "duration": 0.21428550000001678,
          "durationTicks": 240,
          "midi": 42,
          "name": "F#2",
          "ticks": 185760,
          "time": 165.856977,
          "velocity": 1
        },
        {
          "duration": 0.21428550000001678,
          "durationTicks": 240,
          "midi": 38,
          "name": "D2",
          "ticks": 185760,
          "time": 165.856977,
          "velocity": 1
        },
        {
          "duration": 0.21428549999998836,
          "durationTicks": 240,
          "midi": 42,
          "name": "F#2",
          "ticks": 186000,
          "time": 166.07126250000002,
          "velocity": 1
        },
        {
          "duration": 0.21428550000001678,
          "durationTicks": 240,
          "midi": 42,
          "name": "F#2",
          "ticks": 186240,
          "time": 166.285548,
          "velocity": 1
        },
        {
          "duration": 0.21428550000001678,
          "durationTicks": 240,
          "midi": 35,
          "name": "B1",
          "ticks": 186240,
          "time": 166.285548,
          "velocity": 1
        },
        {
          "duration": 0.21428549999998836,
          "durationTicks": 240,
          "midi": 42,
          "name": "F#2",
          "ticks": 186480,
          "time": 166.49983350000002,
          "velocity": 1
        },
        {
          "duration": 0.21428549999998836,
          "durationTicks": 240,
          "midi": 35,
          "name": "B1",
          "ticks": 186480,
          "time": 166.49983350000002,
          "velocity": 1
        },
        {
          "duration": 0.21428550000001678,
          "durationTicks": 240,
          "midi": 42,
          "name": "F#2",
          "ticks": 186720,
          "time": 166.714119,
          "velocity": 1
        },
        {
          "duration": 0.21428550000001678,
          "durationTicks": 240,
          "midi": 35,
          "name": "B1",
          "ticks": 186720,
          "time": 166.714119,
          "velocity": 1
        },
        {
          "duration": 0.21428549999998836,
          "durationTicks": 240,
          "midi": 42,
          "name": "F#2",
          "ticks": 186960,
          "time": 166.92840450000003,
          "velocity": 1
        },
        {
          "duration": 0.21428549999998836,
          "durationTicks": 240,
          "midi": 35,
          "name": "B1",
          "ticks": 186960,
          "time": 166.92840450000003,
          "velocity": 1
        },
        {
          "duration": 0.42857100000000514,
          "durationTicks": 480,
          "midi": 46,
          "name": "A#2",
          "ticks": 187200,
          "time": 167.14269000000002,
          "velocity": 1
        },
        {
          "duration": 0.42857100000000514,
          "durationTicks": 480,
          "midi": 35,
          "name": "B1",
          "ticks": 187200,
          "time": 167.14269000000002,
          "velocity": 1
        },
        {
          "duration": 0.42857100000000514,
          "durationTicks": 480,
          "midi": 42,
          "name": "F#2",
          "ticks": 187680,
          "time": 167.57126100000002,
          "velocity": 1
        },
        {
          "duration": 0.42857100000000514,
          "durationTicks": 480,
          "midi": 38,
          "name": "D2",
          "ticks": 187680,
          "time": 167.57126100000002,
          "velocity": 1
        },
        {
          "duration": 0.42857100000000514,
          "durationTicks": 480,
          "midi": 35,
          "name": "B1",
          "ticks": 187680,
          "time": 167.57126100000002,
          "velocity": 1
        },
        {
          "duration": 0.21428549999998836,
          "durationTicks": 240,
          "midi": 42,
          "name": "F#2",
          "ticks": 188160,
          "time": 167.99983200000003,
          "velocity": 1
        },
        {
          "duration": 0.21428549999998836,
          "durationTicks": 240,
          "midi": 35,
          "name": "B1",
          "ticks": 188160,
          "time": 167.99983200000003,
          "velocity": 1
        },
        {
          "duration": 0.21428549999998836,
          "durationTicks": 240,
          "midi": 42,
          "name": "F#2",
          "ticks": 188400,
          "time": 168.21411750000001,
          "velocity": 1
        },
        {
          "duration": 0.21428550000001678,
          "durationTicks": 240,
          "midi": 42,
          "name": "F#2",
          "ticks": 188640,
          "time": 168.428403,
          "velocity": 1
        },
        {
          "duration": 0.21428550000001678,
          "durationTicks": 240,
          "midi": 38,
          "name": "D2",
          "ticks": 188640,
          "time": 168.428403,
          "velocity": 1
        },
        {
          "duration": 0.21428549999998836,
          "durationTicks": 240,
          "midi": 42,
          "name": "F#2",
          "ticks": 188880,
          "time": 168.64268850000002,
          "velocity": 1
        },
        {
          "duration": 0.21428550000001678,
          "durationTicks": 240,
          "midi": 42,
          "name": "F#2",
          "ticks": 189120,
          "time": 168.856974,
          "velocity": 1
        },
        {
          "duration": 0.21428549999998836,
          "durationTicks": 240,
          "midi": 42,
          "name": "F#2",
          "ticks": 189360,
          "time": 169.07125950000002,
          "velocity": 1
        },
        {
          "duration": 0.21428549999998836,
          "durationTicks": 240,
          "midi": 35,
          "name": "B1",
          "ticks": 189360,
          "time": 169.07125950000002,
          "velocity": 1
        },
        {
          "duration": 0.21428549999998836,
          "durationTicks": 240,
          "midi": 42,
          "name": "F#2",
          "ticks": 189600,
          "time": 169.285545,
          "velocity": 1
        },
        {
          "duration": 0.21428549999998836,
          "durationTicks": 240,
          "midi": 38,
          "name": "D2",
          "ticks": 189600,
          "time": 169.285545,
          "velocity": 1
        },
        {
          "duration": 0.21428550000001678,
          "durationTicks": 240,
          "midi": 42,
          "name": "F#2",
          "ticks": 189840,
          "time": 169.4998305,
          "velocity": 1
        },
        {
          "duration": 0.21428549999998836,
          "durationTicks": 240,
          "midi": 42,
          "name": "F#2",
          "ticks": 190080,
          "time": 169.71411600000002,
          "velocity": 1
        },
        {
          "duration": 0.21428549999998836,
          "durationTicks": 240,
          "midi": 35,
          "name": "B1",
          "ticks": 190080,
          "time": 169.71411600000002,
          "velocity": 1
        },
        {
          "duration": 0.21428550000001678,
          "durationTicks": 240,
          "midi": 42,
          "name": "F#2",
          "ticks": 190320,
          "time": 169.9284015,
          "velocity": 1
        },
        {
          "duration": 0.21428549999998836,
          "durationTicks": 240,
          "midi": 42,
          "name": "F#2",
          "ticks": 190560,
          "time": 170.14268700000002,
          "velocity": 1
        },
        {
          "duration": 0.21428549999998836,
          "durationTicks": 240,
          "midi": 38,
          "name": "D2",
          "ticks": 190560,
          "time": 170.14268700000002,
          "velocity": 1
        },
        {
          "duration": 0.21428549999998836,
          "durationTicks": 240,
          "midi": 42,
          "name": "F#2",
          "ticks": 190800,
          "time": 170.3569725,
          "velocity": 1
        },
        {
          "duration": 0.21428550000001678,
          "durationTicks": 240,
          "midi": 42,
          "name": "F#2",
          "ticks": 191040,
          "time": 170.571258,
          "velocity": 1
        },
        {
          "duration": 0.21428549999998836,
          "durationTicks": 240,
          "midi": 42,
          "name": "F#2",
          "ticks": 191280,
          "time": 170.78554350000002,
          "velocity": 1
        },
        {
          "duration": 0.21428549999998836,
          "durationTicks": 240,
          "midi": 35,
          "name": "B1",
          "ticks": 191280,
          "time": 170.78554350000002,
          "velocity": 1
        },
        {
          "duration": 0.21428550000001678,
          "durationTicks": 240,
          "midi": 42,
          "name": "F#2",
          "ticks": 191520,
          "time": 170.999829,
          "velocity": 1
        },
        {
          "duration": 0.21428550000001678,
          "durationTicks": 240,
          "midi": 38,
          "name": "D2",
          "ticks": 191520,
          "time": 170.999829,
          "velocity": 1
        },
        {
          "duration": 0.21428549999998836,
          "durationTicks": 240,
          "midi": 42,
          "name": "F#2",
          "ticks": 191760,
          "time": 171.21411450000002,
          "velocity": 1
        },
        {
          "duration": 0.21428550000001678,
          "durationTicks": 240,
          "midi": 42,
          "name": "F#2",
          "ticks": 192000,
          "time": 171.4284,
          "velocity": 1
        },
        {
          "duration": 0.21428550000001678,
          "durationTicks": 240,
          "midi": 35,
          "name": "B1",
          "ticks": 192000,
          "time": 171.4284,
          "velocity": 1
        },
        {
          "duration": 0.21428549999998836,
          "durationTicks": 240,
          "midi": 42,
          "name": "F#2",
          "ticks": 192240,
          "time": 171.64268550000003,
          "velocity": 1
        },
        {
          "duration": 0.21428549999998836,
          "durationTicks": 240,
          "midi": 42,
          "name": "F#2",
          "ticks": 192480,
          "time": 171.85697100000002,
          "velocity": 1
        },
        {
          "duration": 0.21428549999998836,
          "durationTicks": 240,
          "midi": 38,
          "name": "D2",
          "ticks": 192480,
          "time": 171.85697100000002,
          "velocity": 1
        },
        {
          "duration": 0.21428550000001678,
          "durationTicks": 240,
          "midi": 42,
          "name": "F#2",
          "ticks": 192720,
          "time": 172.0712565,
          "velocity": 1
        },
        {
          "duration": 0.21428549999998836,
          "durationTicks": 240,
          "midi": 42,
          "name": "F#2",
          "ticks": 192960,
          "time": 172.28554200000002,
          "velocity": 1
        },
        {
          "duration": 0.21428550000001678,
          "durationTicks": 240,
          "midi": 42,
          "name": "F#2",
          "ticks": 193200,
          "time": 172.4998275,
          "velocity": 1
        },
        {
          "duration": 0.21428550000001678,
          "durationTicks": 240,
          "midi": 35,
          "name": "B1",
          "ticks": 193200,
          "time": 172.4998275,
          "velocity": 1
        },
        {
          "duration": 0.21428549999998836,
          "durationTicks": 240,
          "midi": 42,
          "name": "F#2",
          "ticks": 193440,
          "time": 172.71411300000003,
          "velocity": 1
        },
        {
          "duration": 0.21428549999998836,
          "durationTicks": 240,
          "midi": 38,
          "name": "D2",
          "ticks": 193440,
          "time": 172.71411300000003,
          "velocity": 1
        },
        {
          "duration": 0.21428549999998836,
          "durationTicks": 240,
          "midi": 42,
          "name": "F#2",
          "ticks": 193680,
          "time": 172.92839850000001,
          "velocity": 1
        },
        {
          "duration": 0.21428550000001678,
          "durationTicks": 240,
          "midi": 42,
          "name": "F#2",
          "ticks": 193920,
          "time": 173.142684,
          "velocity": 1
        },
        {
          "duration": 0.21428550000001678,
          "durationTicks": 240,
          "midi": 35,
          "name": "B1",
          "ticks": 193920,
          "time": 173.142684,
          "velocity": 1
        },
        {
          "duration": 0.21428549999998836,
          "durationTicks": 240,
          "midi": 42,
          "name": "F#2",
          "ticks": 194160,
          "time": 173.35696950000002,
          "velocity": 1
        },
        {
          "duration": 0.21428550000001678,
          "durationTicks": 240,
          "midi": 42,
          "name": "F#2",
          "ticks": 194400,
          "time": 173.571255,
          "velocity": 1
        },
        {
          "duration": 0.21428550000001678,
          "durationTicks": 240,
          "midi": 38,
          "name": "D2",
          "ticks": 194400,
          "time": 173.571255,
          "velocity": 1
        },
        {
          "duration": 0.21428549999998836,
          "durationTicks": 240,
          "midi": 42,
          "name": "F#2",
          "ticks": 194640,
          "time": 173.78554050000002,
          "velocity": 1
        },
        {
          "duration": 0.21428549999998836,
          "durationTicks": 240,
          "midi": 42,
          "name": "F#2",
          "ticks": 194880,
          "time": 173.999826,
          "velocity": 1
        },
        {
          "duration": 0.21428550000001678,
          "durationTicks": 240,
          "midi": 42,
          "name": "F#2",
          "ticks": 195120,
          "time": 174.2141115,
          "velocity": 1
        },
        {
          "duration": 0.21428550000001678,
          "durationTicks": 240,
          "midi": 35,
          "name": "B1",
          "ticks": 195120,
          "time": 174.2141115,
          "velocity": 1
        },
        {
          "duration": 0.21428549999998836,
          "durationTicks": 240,
          "midi": 42,
          "name": "F#2",
          "ticks": 195360,
          "time": 174.42839700000002,
          "velocity": 1
        },
        {
          "duration": 0.21428549999998836,
          "durationTicks": 240,
          "midi": 38,
          "name": "D2",
          "ticks": 195360,
          "time": 174.42839700000002,
          "velocity": 1
        },
        {
          "duration": 0.21428550000001678,
          "durationTicks": 240,
          "midi": 42,
          "name": "F#2",
          "ticks": 195600,
          "time": 174.6426825,
          "velocity": 1
        },
        {
          "duration": 0.21428549999998836,
          "durationTicks": 240,
          "midi": 42,
          "name": "F#2",
          "ticks": 195840,
          "time": 174.85696800000002,
          "velocity": 1
        },
        {
          "duration": 0.21428549999998836,
          "durationTicks": 240,
          "midi": 35,
          "name": "B1",
          "ticks": 195840,
          "time": 174.85696800000002,
          "velocity": 1
        },
        {
          "duration": 0.21428550000001678,
          "durationTicks": 240,
          "midi": 42,
          "name": "F#2",
          "ticks": 196080,
          "time": 175.0712535,
          "velocity": 1
        },
        {
          "duration": 0.21428549999998836,
          "durationTicks": 240,
          "midi": 42,
          "name": "F#2",
          "ticks": 196320,
          "time": 175.28553900000003,
          "velocity": 1
        },
        {
          "duration": 0.21428549999998836,
          "durationTicks": 240,
          "midi": 38,
          "name": "D2",
          "ticks": 196320,
          "time": 175.28553900000003,
          "velocity": 1
        },
        {
          "duration": 0.21428549999998836,
          "durationTicks": 240,
          "midi": 42,
          "name": "F#2",
          "ticks": 196560,
          "time": 175.49982450000002,
          "velocity": 1
        },
        {
          "duration": 0.21428550000001678,
          "durationTicks": 240,
          "midi": 42,
          "name": "F#2",
          "ticks": 196800,
          "time": 175.71411,
          "velocity": 1
        },
        {
          "duration": 0.21428549999998836,
          "durationTicks": 240,
          "midi": 42,
          "name": "F#2",
          "ticks": 197040,
          "time": 175.92839550000002,
          "velocity": 1
        },
        {
          "duration": 0.21428549999998836,
          "durationTicks": 240,
          "midi": 35,
          "name": "B1",
          "ticks": 197040,
          "time": 175.92839550000002,
          "velocity": 1
        },
        {
          "duration": 0.21428550000001678,
          "durationTicks": 240,
          "midi": 42,
          "name": "F#2",
          "ticks": 197280,
          "time": 176.142681,
          "velocity": 1
        },
        {
          "duration": 0.21428550000001678,
          "durationTicks": 240,
          "midi": 38,
          "name": "D2",
          "ticks": 197280,
          "time": 176.142681,
          "velocity": 1
        },
        {
          "duration": 0.21428549999998836,
          "durationTicks": 240,
          "midi": 42,
          "name": "F#2",
          "ticks": 197520,
          "time": 176.35696650000003,
          "velocity": 1
        },
        {
          "duration": 0.21428549999998836,
          "durationTicks": 240,
          "midi": 42,
          "name": "F#2",
          "ticks": 197760,
          "time": 176.57125200000002,
          "velocity": 1
        },
        {
          "duration": 0.21428549999998836,
          "durationTicks": 240,
          "midi": 35,
          "name": "B1",
          "ticks": 197760,
          "time": 176.57125200000002,
          "velocity": 1
        },
        {
          "duration": 0.21428550000001678,
          "durationTicks": 240,
          "midi": 42,
          "name": "F#2",
          "ticks": 198000,
          "time": 176.7855375,
          "velocity": 1
        },
        {
          "duration": 0.21428549999998836,
          "durationTicks": 240,
          "midi": 42,
          "name": "F#2",
          "ticks": 198240,
          "time": 176.99982300000002,
          "velocity": 1
        },
        {
          "duration": 0.21428549999998836,
          "durationTicks": 240,
          "midi": 38,
          "name": "D2",
          "ticks": 198240,
          "time": 176.99982300000002,
          "velocity": 1
        },
        {
          "duration": 0.21428550000001678,
          "durationTicks": 240,
          "midi": 42,
          "name": "F#2",
          "ticks": 198480,
          "time": 177.2141085,
          "velocity": 1
        },
        {
          "duration": 0.21428549999998836,
          "durationTicks": 240,
          "midi": 42,
          "name": "F#2",
          "ticks": 198720,
          "time": 177.42839400000003,
          "velocity": 1
        },
        {
          "duration": 0.21428549999998836,
          "durationTicks": 240,
          "midi": 42,
          "name": "F#2",
          "ticks": 198960,
          "time": 177.6426795,
          "velocity": 1
        },
        {
          "duration": 0.21428549999998836,
          "durationTicks": 240,
          "midi": 35,
          "name": "B1",
          "ticks": 198960,
          "time": 177.6426795,
          "velocity": 1
        },
        {
          "duration": 0.21428550000001678,
          "durationTicks": 240,
          "midi": 42,
          "name": "F#2",
          "ticks": 199200,
          "time": 177.856965,
          "velocity": 1
        },
        {
          "duration": 0.21428550000001678,
          "durationTicks": 240,
          "midi": 38,
          "name": "D2",
          "ticks": 199200,
          "time": 177.856965,
          "velocity": 1
        },
        {
          "duration": 0.21428549999998836,
          "durationTicks": 240,
          "midi": 42,
          "name": "F#2",
          "ticks": 199440,
          "time": 178.07125050000002,
          "velocity": 1
        },
        {
          "duration": 0.21428550000001678,
          "durationTicks": 240,
          "midi": 42,
          "name": "F#2",
          "ticks": 199680,
          "time": 178.285536,
          "velocity": 1
        },
        {
          "duration": 0.21428550000001678,
          "durationTicks": 240,
          "midi": 35,
          "name": "B1",
          "ticks": 199680,
          "time": 178.285536,
          "velocity": 1
        },
        {
          "duration": 0.21428549999998836,
          "durationTicks": 240,
          "midi": 42,
          "name": "F#2",
          "ticks": 199920,
          "time": 178.49982150000002,
          "velocity": 1
        },
        {
          "duration": 0.21428549999998836,
          "durationTicks": 240,
          "midi": 42,
          "name": "F#2",
          "ticks": 200160,
          "time": 178.714107,
          "velocity": 1
        },
        {
          "duration": 0.21428549999998836,
          "durationTicks": 240,
          "midi": 45,
          "name": "A2",
          "ticks": 200160,
          "time": 178.714107,
          "velocity": 1
        },
        {
          "duration": 0.21428550000001678,
          "durationTicks": 240,
          "midi": 42,
          "name": "F#2",
          "ticks": 200400,
          "time": 178.9283925,
          "velocity": 1
        },
        {
          "duration": 0.21428550000001678,
          "durationTicks": 240,
          "midi": 45,
          "name": "A2",
          "ticks": 200400,
          "time": 178.9283925,
          "velocity": 1
        },
        {
          "duration": 0.21428549999998836,
          "durationTicks": 240,
          "midi": 42,
          "name": "F#2",
          "ticks": 200640,
          "time": 179.14267800000002,
          "velocity": 1
        },
        {
          "duration": 0.21428550000001678,
          "durationTicks": 240,
          "midi": 42,
          "name": "F#2",
          "ticks": 200880,
          "time": 179.3569635,
          "velocity": 1
        },
        {
          "duration": 0.21428549999998836,
          "durationTicks": 240,
          "midi": 42,
          "name": "F#2",
          "ticks": 201120,
          "time": 179.57124900000002,
          "velocity": 1
        },
        {
          "duration": 0.21428549999998836,
          "durationTicks": 240,
          "midi": 45,
          "name": "A2",
          "ticks": 201120,
          "time": 179.57124900000002,
          "velocity": 1
        },
        {
          "duration": 0.21428550000001678,
          "durationTicks": 240,
          "midi": 42,
          "name": "F#2",
          "ticks": 201360,
          "time": 179.7855345,
          "velocity": 1
        },
        {
          "duration": 0.21428549999998836,
          "durationTicks": 240,
          "midi": 42,
          "name": "F#2",
          "ticks": 201600,
          "time": 179.99982000000003,
          "velocity": 1
        },
        {
          "duration": 0.21428549999998836,
          "durationTicks": 240,
          "midi": 42,
          "name": "F#2",
          "ticks": 201840,
          "time": 180.21410550000002,
          "velocity": 1
        },
        {
          "duration": 0.21428550000001678,
          "durationTicks": 240,
          "midi": 42,
          "name": "F#2",
          "ticks": 202080,
          "time": 180.428391,
          "velocity": 1
        },
        {
          "duration": 0.21428550000001678,
          "durationTicks": 240,
          "midi": 45,
          "name": "A2",
          "ticks": 202080,
          "time": 180.428391,
          "velocity": 1
        },
        {
          "duration": 0.21428549999998836,
          "durationTicks": 240,
          "midi": 42,
          "name": "F#2",
          "ticks": 202320,
          "time": 180.64267650000002,
          "velocity": 1
        },
        {
          "duration": 0.21428549999998836,
          "durationTicks": 240,
          "midi": 45,
          "name": "A2",
          "ticks": 202320,
          "time": 180.64267650000002,
          "velocity": 1
        },
        {
          "duration": 0.21428550000001678,
          "durationTicks": 240,
          "midi": 42,
          "name": "F#2",
          "ticks": 202560,
          "time": 180.856962,
          "velocity": 1
        },
        {
          "duration": 0.21428549999998836,
          "durationTicks": 240,
          "midi": 42,
          "name": "F#2",
          "ticks": 202800,
          "time": 181.07124750000003,
          "velocity": 1
        },
        {
          "duration": 0.21428549999998836,
          "durationTicks": 240,
          "midi": 42,
          "name": "F#2",
          "ticks": 203040,
          "time": 181.28553300000002,
          "velocity": 1
        },
        {
          "duration": 0.21428549999998836,
          "durationTicks": 240,
          "midi": 45,
          "name": "A2",
          "ticks": 203040,
          "time": 181.28553300000002,
          "velocity": 1
        },
        {
          "duration": 0.21428550000001678,
          "durationTicks": 240,
          "midi": 42,
          "name": "F#2",
          "ticks": 203280,
          "time": 181.4998185,
          "velocity": 1
        },
        {
          "duration": 0.21428549999998836,
          "durationTicks": 240,
          "midi": 42,
          "name": "F#2",
          "ticks": 203520,
          "time": 181.71410400000002,
          "velocity": 1
        },
        {
          "duration": 0.21428550000001678,
          "durationTicks": 240,
          "midi": 42,
          "name": "F#2",
          "ticks": 203760,
          "time": 181.9283895,
          "velocity": 1
        },
        {
          "duration": 0.21428549999998836,
          "durationTicks": 240,
          "midi": 42,
          "name": "F#2",
          "ticks": 204000,
          "time": 182.14267500000003,
          "velocity": 1
        },
        {
          "duration": 0.21428549999998836,
          "durationTicks": 240,
          "midi": 45,
          "name": "A2",
          "ticks": 204000,
          "time": 182.14267500000003,
          "velocity": 1
        },
        {
          "duration": 0.21428549999998836,
          "durationTicks": 240,
          "midi": 42,
          "name": "F#2",
          "ticks": 204240,
          "time": 182.3569605,
          "velocity": 1
        },
        {
          "duration": 0.21428549999998836,
          "durationTicks": 240,
          "midi": 45,
          "name": "A2",
          "ticks": 204240,
          "time": 182.3569605,
          "velocity": 1
        },
        {
          "duration": 0.21428550000001678,
          "durationTicks": 240,
          "midi": 42,
          "name": "F#2",
          "ticks": 204480,
          "time": 182.571246,
          "velocity": 1
        },
        {
          "duration": 0.21428549999998836,
          "durationTicks": 240,
          "midi": 42,
          "name": "F#2",
          "ticks": 204720,
          "time": 182.78553150000002,
          "velocity": 1
        },
        {
          "duration": 0.21428550000001678,
          "durationTicks": 240,
          "midi": 42,
          "name": "F#2",
          "ticks": 204960,
          "time": 182.999817,
          "velocity": 1
        },
        {
          "duration": 0.21428550000001678,
          "durationTicks": 240,
          "midi": 45,
          "name": "A2",
          "ticks": 204960,
          "time": 182.999817,
          "velocity": 1
        },
        {
          "duration": 0.21428549999998836,
          "durationTicks": 240,
          "midi": 42,
          "name": "F#2",
          "ticks": 205200,
          "time": 183.21410250000002,
          "velocity": 1
        },
        {
          "duration": 0.21428550000001678,
          "durationTicks": 240,
          "midi": 42,
          "name": "F#2",
          "ticks": 205440,
          "time": 183.428388,
          "velocity": 1
        },
        {
          "duration": 0.21428549999998836,
          "durationTicks": 240,
          "midi": 42,
          "name": "F#2",
          "ticks": 205680,
          "time": 183.64267350000003,
          "velocity": 1
        },
        {
          "duration": 0.21428549999998836,
          "durationTicks": 240,
          "midi": 42,
          "name": "F#2",
          "ticks": 205920,
          "time": 183.85695900000002,
          "velocity": 1
        },
        {
          "duration": 0.21428549999998836,
          "durationTicks": 240,
          "midi": 45,
          "name": "A2",
          "ticks": 205920,
          "time": 183.85695900000002,
          "velocity": 1
        },
        {
          "duration": 0.21428550000001678,
          "durationTicks": 240,
          "midi": 42,
          "name": "F#2",
          "ticks": 206160,
          "time": 184.0712445,
          "velocity": 1
        },
        {
          "duration": 0.21428550000001678,
          "durationTicks": 240,
          "midi": 45,
          "name": "A2",
          "ticks": 206160,
          "time": 184.0712445,
          "velocity": 1
        },
        {
          "duration": 0.21428549999998836,
          "durationTicks": 240,
          "midi": 42,
          "name": "F#2",
          "ticks": 206400,
          "time": 184.28553000000002,
          "velocity": 1
        },
        {
          "duration": 0.21428550000001678,
          "durationTicks": 240,
          "midi": 42,
          "name": "F#2",
          "ticks": 206640,
          "time": 184.4998155,
          "velocity": 1
        },
        {
          "duration": 0.21428549999998836,
          "durationTicks": 240,
          "midi": 42,
          "name": "F#2",
          "ticks": 206880,
          "time": 184.71410100000003,
          "velocity": 1
        },
        {
          "duration": 0.21428549999998836,
          "durationTicks": 240,
          "midi": 45,
          "name": "A2",
          "ticks": 206880,
          "time": 184.71410100000003,
          "velocity": 1
        },
        {
          "duration": 0.21428549999998836,
          "durationTicks": 240,
          "midi": 42,
          "name": "F#2",
          "ticks": 207120,
          "time": 184.92838650000002,
          "velocity": 1
        },
        {
          "duration": 0.42857100000000514,
          "durationTicks": 480,
          "midi": 49,
          "name": "C#3",
          "ticks": 207360,
          "time": 185.142672,
          "velocity": 1
        },
        {
          "duration": 0.42857100000000514,
          "durationTicks": 480,
          "midi": 38,
          "name": "D2",
          "ticks": 207840,
          "time": 185.571243,
          "velocity": 1
        },
        {
          "duration": 0.42857100000000514,
          "durationTicks": 480,
          "midi": 49,
          "name": "C#3",
          "ticks": 208320,
          "time": 185.99981400000001,
          "velocity": 1
        },
        {
          "duration": 0.21428549999998836,
          "durationTicks": 240,
          "midi": 42,
          "name": "F#2",
          "ticks": 209280,
          "time": 186.85695600000003,
          "velocity": 1
        },
        {
          "duration": 0.21428549999998836,
          "durationTicks": 240,
          "midi": 42,
          "name": "F#2",
          "ticks": 209520,
          "time": 187.0712415,
          "velocity": 1
        },
        {
          "duration": 0.21428550000001678,
          "durationTicks": 240,
          "midi": 42,
          "name": "F#2",
          "ticks": 209760,
          "time": 187.285527,
          "velocity": 1
        },
        {
          "duration": 0.21428550000001678,
          "durationTicks": 240,
          "midi": 45,
          "name": "A2",
          "ticks": 209760,
          "time": 187.285527,
          "velocity": 1
        },
        {
          "duration": 0.21428549999998836,
          "durationTicks": 240,
          "midi": 42,
          "name": "F#2",
          "ticks": 210000,
          "time": 187.49981250000002,
          "velocity": 1
        },
        {
          "duration": 0.21428549999998836,
          "durationTicks": 240,
          "midi": 45,
          "name": "A2",
          "ticks": 210000,
          "time": 187.49981250000002,
          "velocity": 1
        },
        {
          "duration": 0.21428550000001678,
          "durationTicks": 240,
          "midi": 42,
          "name": "F#2",
          "ticks": 210240,
          "time": 187.714098,
          "velocity": 1
        },
        {
          "duration": 0.21428549999998836,
          "durationTicks": 240,
          "midi": 42,
          "name": "F#2",
          "ticks": 210480,
          "time": 187.92838350000002,
          "velocity": 1
        },
        {
          "duration": 0.21428550000001678,
          "durationTicks": 240,
          "midi": 42,
          "name": "F#2",
          "ticks": 210720,
          "time": 188.142669,
          "velocity": 1
        },
        {
          "duration": 0.21428550000001678,
          "durationTicks": 240,
          "midi": 45,
          "name": "A2",
          "ticks": 210720,
          "time": 188.142669,
          "velocity": 1
        },
        {
          "duration": 0.21428549999998836,
          "durationTicks": 240,
          "midi": 42,
          "name": "F#2",
          "ticks": 210960,
          "time": 188.35695450000003,
          "velocity": 1
        },
        {
          "duration": 0.21428549999998836,
          "durationTicks": 240,
          "midi": 42,
          "name": "F#2",
          "ticks": 211200,
          "time": 188.57124000000002,
          "velocity": 1
        },
        {
          "duration": 0.21428550000001678,
          "durationTicks": 240,
          "midi": 42,
          "name": "F#2",
          "ticks": 211440,
          "time": 188.7855255,
          "velocity": 1
        },
        {
          "duration": 0.21428549999998836,
          "durationTicks": 240,
          "midi": 42,
          "name": "F#2",
          "ticks": 211680,
          "time": 188.99981100000002,
          "velocity": 1
        },
        {
          "duration": 0.21428549999998836,
          "durationTicks": 240,
          "midi": 45,
          "name": "A2",
          "ticks": 211680,
          "time": 188.99981100000002,
          "velocity": 1
        },
        {
          "duration": 0.21428550000001678,
          "durationTicks": 240,
          "midi": 42,
          "name": "F#2",
          "ticks": 211920,
          "time": 189.2140965,
          "velocity": 1
        },
        {
          "duration": 0.21428550000001678,
          "durationTicks": 240,
          "midi": 45,
          "name": "A2",
          "ticks": 211920,
          "time": 189.2140965,
          "velocity": 1
        },
        {
          "duration": 0.21428549999998836,
          "durationTicks": 240,
          "midi": 42,
          "name": "F#2",
          "ticks": 212160,
          "time": 189.42838200000003,
          "velocity": 1
        },
        {
          "duration": 0.21428549999998836,
          "durationTicks": 240,
          "midi": 42,
          "name": "F#2",
          "ticks": 212400,
          "time": 189.64266750000002,
          "velocity": 1
        },
        {
          "duration": 0.21428550000001678,
          "durationTicks": 240,
          "midi": 42,
          "name": "F#2",
          "ticks": 212640,
          "time": 189.856953,
          "velocity": 1
        },
        {
          "duration": 0.21428550000001678,
          "durationTicks": 240,
          "midi": 45,
          "name": "A2",
          "ticks": 212640,
          "time": 189.856953,
          "velocity": 1
        },
        {
          "duration": 0.21428549999998836,
          "durationTicks": 240,
          "midi": 42,
          "name": "F#2",
          "ticks": 212880,
          "time": 190.07123850000002,
          "velocity": 1
        },
        {
          "duration": 0.21428550000001678,
          "durationTicks": 240,
          "midi": 42,
          "name": "F#2",
          "ticks": 213120,
          "time": 190.285524,
          "velocity": 1
        },
        {
          "duration": 0.21428549999998836,
          "durationTicks": 240,
          "midi": 42,
          "name": "F#2",
          "ticks": 213360,
          "time": 190.49980950000003,
          "velocity": 1
        },
        {
          "duration": 0.21428549999998836,
          "durationTicks": 240,
          "midi": 42,
          "name": "F#2",
          "ticks": 213600,
          "time": 190.71409500000001,
          "velocity": 1
        },
        {
          "duration": 0.21428549999998836,
          "durationTicks": 240,
          "midi": 45,
          "name": "A2",
          "ticks": 213600,
          "time": 190.71409500000001,
          "velocity": 1
        },
        {
          "duration": 0.21428550000001678,
          "durationTicks": 240,
          "midi": 42,
          "name": "F#2",
          "ticks": 213840,
          "time": 190.9283805,
          "velocity": 1
        },
        {
          "duration": 0.21428550000001678,
          "durationTicks": 240,
          "midi": 45,
          "name": "A2",
          "ticks": 213840,
          "time": 190.9283805,
          "velocity": 1
        },
        {
          "duration": 0.21428549999998836,
          "durationTicks": 240,
          "midi": 42,
          "name": "F#2",
          "ticks": 214080,
          "time": 191.14266600000002,
          "velocity": 1
        },
        {
          "duration": 0.21428550000001678,
          "durationTicks": 240,
          "midi": 42,
          "name": "F#2",
          "ticks": 214320,
          "time": 191.3569515,
          "velocity": 1
        },
        {
          "duration": 0.21428549999998836,
          "durationTicks": 240,
          "midi": 42,
          "name": "F#2",
          "ticks": 214560,
          "time": 191.57123700000002,
          "velocity": 1
        },
        {
          "duration": 0.21428549999998836,
          "durationTicks": 240,
          "midi": 45,
          "name": "A2",
          "ticks": 214560,
          "time": 191.57123700000002,
          "velocity": 1
        },
        {
          "duration": 0.21428550000001678,
          "durationTicks": 240,
          "midi": 42,
          "name": "F#2",
          "ticks": 214800,
          "time": 191.7855225,
          "velocity": 1
        },
        {
          "duration": 0.4285709999999767,
          "durationTicks": 480,
          "midi": 49,
          "name": "C#3",
          "ticks": 215040,
          "time": 191.99980800000003,
          "velocity": 1
        },
        {
          "duration": 0.42857100000000514,
          "durationTicks": 480,
          "midi": 38,
          "name": "D2",
          "ticks": 215520,
          "time": 192.428379,
          "velocity": 1
        },
        {
          "duration": 0.42857100000000514,
          "durationTicks": 480,
          "midi": 49,
          "name": "C#3",
          "ticks": 216000,
          "time": 192.85695,
          "velocity": 1
        },
        {
          "duration": 0.21428549999998836,
          "durationTicks": 240,
          "midi": 42,
          "name": "F#2",
          "ticks": 216960,
          "time": 193.71409200000002,
          "velocity": 1
        },
        {
          "duration": 0.21428550000001678,
          "durationTicks": 240,
          "midi": 42,
          "name": "F#2",
          "ticks": 217200,
          "time": 193.9283775,
          "velocity": 1
        },
        {
          "duration": 0.21428549999998836,
          "durationTicks": 240,
          "midi": 42,
          "name": "F#2",
          "ticks": 217440,
          "time": 194.14266300000003,
          "velocity": 1
        },
        {
          "duration": 0.21428549999998836,
          "durationTicks": 240,
          "midi": 45,
          "name": "A2",
          "ticks": 217440,
          "time": 194.14266300000003,
          "velocity": 1
        },
        {
          "duration": 0.21428549999998836,
          "durationTicks": 240,
          "midi": 42,
          "name": "F#2",
          "ticks": 217680,
          "time": 194.35694850000002,
          "velocity": 1
        },
        {
          "duration": 0.21428549999998836,
          "durationTicks": 240,
          "midi": 45,
          "name": "A2",
          "ticks": 217680,
          "time": 194.35694850000002,
          "velocity": 1
        },
        {
          "duration": 0.21428550000001678,
          "durationTicks": 240,
          "midi": 42,
          "name": "F#2",
          "ticks": 217920,
          "time": 194.571234,
          "velocity": 1
        },
        {
          "duration": 0.21428549999998836,
          "durationTicks": 240,
          "midi": 42,
          "name": "F#2",
          "ticks": 218160,
          "time": 194.78551950000002,
          "velocity": 1
        },
        {
          "duration": 0.21428550000001678,
          "durationTicks": 240,
          "midi": 42,
          "name": "F#2",
          "ticks": 218400,
          "time": 194.999805,
          "velocity": 1
        },
        {
          "duration": 0.21428550000001678,
          "durationTicks": 240,
          "midi": 45,
          "name": "A2",
          "ticks": 218400,
          "time": 194.999805,
          "velocity": 1
        },
        {
          "duration": 0.21428549999998836,
          "durationTicks": 240,
          "midi": 42,
          "name": "F#2",
          "ticks": 218640,
          "time": 195.21409050000003,
          "velocity": 1
        },
        {
          "duration": 0.21428549999998836,
          "durationTicks": 240,
          "midi": 42,
          "name": "F#2",
          "ticks": 218880,
          "time": 195.42837600000001,
          "velocity": 1
        },
        {
          "duration": 0.21428550000001678,
          "durationTicks": 240,
          "midi": 42,
          "name": "F#2",
          "ticks": 219120,
          "time": 195.6426615,
          "velocity": 1
        },
        {
          "duration": 0.21428549999998836,
          "durationTicks": 240,
          "midi": 42,
          "name": "F#2",
          "ticks": 219360,
          "time": 195.85694700000002,
          "velocity": 1
        },
        {
          "duration": 0.21428549999998836,
          "durationTicks": 240,
          "midi": 45,
          "name": "A2",
          "ticks": 219360,
          "time": 195.85694700000002,
          "velocity": 1
        },
        {
          "duration": 0.21428550000001678,
          "durationTicks": 240,
          "midi": 42,
          "name": "F#2",
          "ticks": 219600,
          "time": 196.0712325,
          "velocity": 1
        },
        {
          "duration": 0.21428550000001678,
          "durationTicks": 240,
          "midi": 45,
          "name": "A2",
          "ticks": 219600,
          "time": 196.0712325,
          "velocity": 1
        },
        {
          "duration": 0.21428549999998836,
          "durationTicks": 240,
          "midi": 42,
          "name": "F#2",
          "ticks": 219840,
          "time": 196.28551800000002,
          "velocity": 1
        },
        {
          "duration": 0.21428550000001678,
          "durationTicks": 240,
          "midi": 42,
          "name": "F#2",
          "ticks": 220080,
          "time": 196.4998035,
          "velocity": 1
        },
        {
          "duration": 0.21428549999998836,
          "durationTicks": 240,
          "midi": 42,
          "name": "F#2",
          "ticks": 220320,
          "time": 196.71408900000003,
          "velocity": 1
        },
        {
          "duration": 0.21428549999998836,
          "durationTicks": 240,
          "midi": 45,
          "name": "A2",
          "ticks": 220320,
          "time": 196.71408900000003,
          "velocity": 1
        },
        {
          "duration": 0.21428549999998836,
          "durationTicks": 240,
          "midi": 42,
          "name": "F#2",
          "ticks": 220560,
          "time": 196.92837450000002,
          "velocity": 1
        },
        {
          "duration": 0.21428550000001678,
          "durationTicks": 240,
          "midi": 42,
          "name": "F#2",
          "ticks": 220800,
          "time": 197.14266,
          "velocity": 1
        },
        {
          "duration": 0.21428549999998836,
          "durationTicks": 240,
          "midi": 42,
          "name": "F#2",
          "ticks": 221040,
          "time": 197.35694550000002,
          "velocity": 1
        },
        {
          "duration": 0.21428550000001678,
          "durationTicks": 240,
          "midi": 42,
          "name": "F#2",
          "ticks": 221280,
          "time": 197.571231,
          "velocity": 1
        },
        {
          "duration": 0.21428550000001678,
          "durationTicks": 240,
          "midi": 45,
          "name": "A2",
          "ticks": 221280,
          "time": 197.571231,
          "velocity": 1
        },
        {
          "duration": 0.21428549999998836,
          "durationTicks": 240,
          "midi": 42,
          "name": "F#2",
          "ticks": 221520,
          "time": 197.78551650000003,
          "velocity": 1
        },
        {
          "duration": 0.21428549999998836,
          "durationTicks": 240,
          "midi": 45,
          "name": "A2",
          "ticks": 221520,
          "time": 197.78551650000003,
          "velocity": 1
        },
        {
          "duration": 0.21428549999998836,
          "durationTicks": 240,
          "midi": 42,
          "name": "F#2",
          "ticks": 221760,
          "time": 197.99980200000002,
          "velocity": 1
        },
        {
          "duration": 0.21428550000001678,
          "durationTicks": 240,
          "midi": 42,
          "name": "F#2",
          "ticks": 222000,
          "time": 198.2140875,
          "velocity": 1
        },
        {
          "duration": 0.21428549999998836,
          "durationTicks": 240,
          "midi": 42,
          "name": "F#2",
          "ticks": 222240,
          "time": 198.42837300000002,
          "velocity": 1
        },
        {
          "duration": 0.21428549999998836,
          "durationTicks": 240,
          "midi": 45,
          "name": "A2",
          "ticks": 222240,
          "time": 198.42837300000002,
          "velocity": 1
        },
        {
          "duration": 0.21428550000001678,
          "durationTicks": 240,
          "midi": 42,
          "name": "F#2",
          "ticks": 222480,
          "time": 198.6426585,
          "velocity": 1
        },
        {
          "duration": 0.4285709999999767,
          "durationTicks": 480,
          "midi": 49,
          "name": "C#3",
          "ticks": 222720,
          "time": 198.85694400000003,
          "velocity": 1
        },
        {
          "duration": 0.42857100000000514,
          "durationTicks": 480,
          "midi": 38,
          "name": "D2",
          "ticks": 223200,
          "time": 199.285515,
          "velocity": 1
        },
        {
          "duration": 0.42857100000000514,
          "durationTicks": 480,
          "midi": 49,
          "name": "C#3",
          "ticks": 223680,
          "time": 199.714086,
          "velocity": 1
        }
      ]
    }
  ]
}