{
  "header": {
    "keySignatures": [],
    "meta": [],
    "name": "",
    "ppq": 384,
    "tempos": [
      {
        "bpm": 195.000195000195,
        "ticks": 0
      }
    ],
    "timeSignatures": [
      {
        "ticks": 0,
        "timeSignature": [
          1,
          4
        ],
        "measures": 0
      }
    ]
  },
  "tracks": [
    {
      "channel": 0,
      "controlChanges": {},
      "pitchBends": [],
      "instrument": {
        "family": "piano",
        "number": 0,
        "name": "acoustic grand piano"
      },
      "name": "Elec. Piano (Classic)",
      "notes": [
        {
          "duration": 0.153846,
          "durationTicks": 192,
          "midi": 48,
          "name": "C3",
          "ticks": 0,
          "time": 0,
          "velocity": 0.3937007874015748
        },
        {
          "duration": 0.153846,
          "durationTicks": 192,
          "midi": 36,
          "name": "C2",
          "ticks": 0,
          "time": 0,
          "velocity": 0.3937007874015748
        },
        {
          "duration": 0.153846,
          "durationTicks": 192,
          "midi": 38,
          "name": "D2",
          "ticks": 192,
          "time": 0.153846,
          "velocity": 0.3937007874015748
        },
        {
          "duration": 0.153846,
          "durationTicks": 192,
          "midi": 50,
          "name": "D3",
          "ticks": 192,
          "time": 0.153846,
          "velocity": 0.3937007874015748
        },
        {
          "duration": 0.307692,
          "durationTicks": 384,
          "midi": 51,
          "name": "D#3",
          "ticks": 384,
          "time": 0.307692,
          "velocity": 0.3937007874015748
        },
        {
          "duration": 0.307692,
          "durationTicks": 384,
          "midi": 39,
          "name": "D#2",
          "ticks": 384,
          "time": 0.307692,
          "velocity": 0.3937007874015748
        },
        {
          "duration": 0.30769199999999997,
          "durationTicks": 384,
          "midi": 47,
          "name": "B2",
          "ticks": 768,
          "time": 0.615384,
          "velocity": 0.3937007874015748
        },
        {
          "duration": 0.30769199999999997,
          "durationTicks": 384,
          "midi": 35,
          "name": "B1",
          "ticks": 768,
          "time": 0.615384,
          "velocity": 0.3937007874015748
        },
        {
          "duration": 0.3076920000000001,
          "durationTicks": 384,
          "midi": 32,
          "name": "G#1",
          "ticks": 1152,
          "time": 0.923076,
          "velocity": 0.3937007874015748
        },
        {
          "duration": 0.3076920000000001,
          "durationTicks": 384,
          "midi": 44,
          "name": "G#2",
          "ticks": 1152,
          "time": 0.923076,
          "velocity": 0.3937007874015748
        },
        {
          "duration": 2.4615359999999997,
          "durationTicks": 3072,
          "midi": 55,
          "name": "G3",
          "ticks": 1536,
          "time": 1.230768,
          "velocity": 0.3937007874015748
        },
        {
          "duration": 0.15384599999999993,
          "durationTicks": 192,
          "midi": 60,
          "name": "C4",
          "ticks": 1536,
          "time": 1.230768,
          "velocity": 0.3937007874015748
        },
        {
          "duration": 2.4615359999999997,
          "durationTicks": 3072,
          "midi": 36,
          "name": "C2",
          "ticks": 1536,
          "time": 1.230768,
          "velocity": 0.3937007874015748
        },
        {
          "duration": 2.4615359999999997,
          "durationTicks": 3072,
          "midi": 48,
          "name": "C3",
          "ticks": 1536,
          "time": 1.230768,
          "velocity": 0.3937007874015748
        },
        {
          "duration": 2.4615359999999997,
          "durationTicks": 3072,
          "midi": 43,
          "name": "G2",
          "ticks": 1536,
          "time": 1.230768,
          "velocity": 0.3937007874015748
        },
        {
          "duration": 0.15384600000000015,
          "durationTicks": 192,
          "midi": 67,
          "name": "G4",
          "ticks": 1728,
          "time": 1.384614,
          "velocity": 0.3937007874015748
        },
        {
          "duration": 0.15384599999999993,
          "durationTicks": 192,
          "midi": 66,
          "name": "F#4",
          "ticks": 1920,
          "time": 1.5384600000000002,
          "velocity": 0.3937007874015748
        },
        {
          "duration": 0.15384599999999993,
          "durationTicks": 192,
          "midi": 60,
          "name": "C4",
          "ticks": 2112,
          "time": 1.692306,
          "velocity": 0.3937007874015748
        },
        {
          "duration": 0.3076920000000003,
          "durationTicks": 384,
          "midi": 60,
          "name": "C4",
          "ticks": 2304,
          "time": 1.846152,
          "velocity": 0.3937007874015748
        },
        {
          "duration": 1.2307680000000003,
          "durationTicks": 1536,
          "midi": 63,
          "name": "D#4",
          "ticks": 2304,
          "time": 1.846152,
          "velocity": 0.3937007874015748
        },
        {
          "duration": 0.461538,
          "durationTicks": 576,
          "midi": 60,
          "name": "C4",
          "ticks": 2688,
          "time": 2.1538440000000003,
          "velocity": 0.3937007874015748
        },
        {
          "duration": 0.1538459999999997,
          "durationTicks": 192,
          "midi": 60,
          "name": "C4",
          "ticks": 3264,
          "time": 2.6153820000000003,
          "velocity": 0.3937007874015748
        },
        {
          "duration": 0.923076,
          "durationTicks": 1152,
          "midi": 63,
          "name": "D#4",
          "ticks": 3456,
          "time": 2.769228,
          "velocity": 0.3937007874015748
        },
        {
          "duration": 0.30769199999999985,
          "durationTicks": 384,
          "midi": 62,
          "name": "D4",
          "ticks": 3840,
          "time": 3.0769200000000003,
          "velocity": 0.3937007874015748
        },
        {
          "duration": 0.30769199999999985,
          "durationTicks": 384,
          "midi": 60,
          "name": "C4",
          "ticks": 4224,
          "time": 3.384612,
          "velocity": 0.3937007874015748
        },
        {
          "duration": 2.462337281250001,
          "durationTicks": 3073,
          "midi": 44,
          "name": "G#2",
          "ticks": 4608,
          "time": 3.692304,
          "velocity": 0.3937007874015748
        },
        {
          "duration": 2.462337281250001,
          "durationTicks": 3073,
          "midi": 48,
          "name": "C3",
          "ticks": 4608,
          "time": 3.692304,
          "velocity": 0.3937007874015748
        },
        {
          "duration": 0.15384600000000015,
          "durationTicks": 192,
          "midi": 60,
          "name": "C4",
          "ticks": 4608,
          "time": 3.692304,
          "velocity": 0.3937007874015748
        },
        {
          "duration": 2.462337281250001,
          "durationTicks": 3073,
          "midi": 56,
          "name": "G#3",
          "ticks": 4608,
          "time": 3.692304,
          "velocity": 0.3937007874015748
        },
        {
          "duration": 0.6153840000000006,
          "durationTicks": 768,
          "midi": 60,
          "name": "C4",
          "ticks": 4608,
          "time": 3.692304,
          "velocity": 0.3937007874015748
        },
        {
          "duration": 2.462337281250001,
          "durationTicks": 3073,
          "midi": 32,
          "name": "G#1",
          "ticks": 4608,
          "time": 3.692304,
          "velocity": 0.3937007874015748
        },
        {
          "duration": 0.15384600000000015,
          "durationTicks": 192,
          "midi": 67,
          "name": "G4",
          "ticks": 4800,
          "time": 3.84615,
          "velocity": 0.3937007874015748
        },
        {
          "duration": 0.1538459999999997,
          "durationTicks": 192,
          "midi": 66,
          "name": "F#4",
          "ticks": 4992,
          "time": 3.9999960000000003,
          "velocity": 0.3937007874015748
        },
        {
          "duration": 0.1538460000000006,
          "durationTicks": 192,
          "midi": 60,
          "name": "C4",
          "ticks": 5184,
          "time": 4.153842,
          "velocity": 0.3937007874015748
        },
        {
          "duration": 0.1538459999999997,
          "durationTicks": 192,
          "midi": 60,
          "name": "C4",
          "ticks": 5376,
          "time": 4.307688000000001,
          "velocity": 0.3937007874015748
        },
        {
          "duration": 0.3076919999999994,
          "durationTicks": 384,
          "midi": 60,
          "name": "C4",
          "ticks": 5376,
          "time": 4.307688000000001,
          "velocity": 0.3937007874015748
        },
        {
          "duration": 1.6674662812499994,
          "durationTicks": 2081,
          "midi": 63,
          "name": "D#4",
          "ticks": 5376,
          "time": 4.307688000000001,
          "velocity": 0.3937007874015748
        },
        {
          "duration": 0.7692300000000003,
          "durationTicks": 960,
          "midi": 60,
          "name": "C4",
          "ticks": 5568,
          "time": 4.461534,
          "velocity": 0.3937007874015748
        },
        {
          "duration": 0.923076,
          "durationTicks": 1152,
          "midi": 60,
          "name": "C4",
          "ticks": 5760,
          "time": 4.61538,
          "velocity": 0.3937007874015748
        },
        {
          "duration": 0.9238772812500002,
          "durationTicks": 1153,
          "midi": 60,
          "name": "C4",
          "ticks": 6528,
          "time": 5.230764000000001,
          "velocity": 0.3937007874015748
        },
        {
          "duration": 0.23076900000000045,
          "durationTicks": 288,
          "midi": 65,
          "name": "F4",
          "ticks": 6912,
          "time": 5.538456,
          "velocity": 0.3937007874015748
        },
        {
          "duration": 0.41105728124999974,
          "durationTicks": 513,
          "midi": 63,
          "name": "D#4",
          "ticks": 7168,
          "time": 5.743584000000001,
          "velocity": 0.3937007874015748
        },
        {
          "duration": 0.2315702812499998,
          "durationTicks": 289,
          "midi": 60,
          "name": "C4",
          "ticks": 7424,
          "time": 5.948712,
          "velocity": 0.3937007874015748
        },
        {
          "duration": 2.4615360000000006,
          "durationTicks": 3072,
          "midi": 52,
          "name": "E3",
          "ticks": 7681,
          "time": 6.154641281250001,
          "velocity": 0.3937007874015748
        },
        {
          "duration": 2.4615360000000006,
          "durationTicks": 3072,
          "midi": 33,
          "name": "A1",
          "ticks": 7681,
          "time": 6.154641281250001,
          "velocity": 0.3937007874015748
        },
        {
          "duration": 0.1538459999999997,
          "durationTicks": 192,
          "midi": 60,
          "name": "C4",
          "ticks": 7681,
          "time": 6.154641281250001,
          "velocity": 0.3937007874015748
        },
        {
          "duration": 0.6153839999999997,
          "durationTicks": 768,
          "midi": 60,
          "name": "C4",
          "ticks": 7681,
          "time": 6.154641281250001,
          "velocity": 0.3937007874015748
        },
        {
          "duration": 2.4615360000000006,
          "durationTicks": 3072,
          "midi": 45,
          "name": "A2",
          "ticks": 7681,
          "time": 6.154641281250001,
          "velocity": 0.3937007874015748
        },
        {
          "duration": 2.4615360000000006,
          "durationTicks": 3072,
          "midi": 57,
          "name": "A3",
          "ticks": 7681,
          "time": 6.154641281250001,
          "velocity": 0.3937007874015748
        },
        {
          "duration": 0.1538460000000006,
          "durationTicks": 192,
          "midi": 67,
          "name": "G4",
          "ticks": 7873,
          "time": 6.308487281250001,
          "velocity": 0.3937007874015748
        },
        {
          "duration": 0.1538459999999997,
          "durationTicks": 192,
          "midi": 66,
          "name": "F#4",
          "ticks": 8065,
          "time": 6.462333281250001,
          "velocity": 0.3937007874015748
        },
        {
          "duration": 0.461538,
          "durationTicks": 576,
          "midi": 60,
          "name": "C4",
          "ticks": 8257,
          "time": 6.616179281250001,
          "velocity": 0.3937007874015748
        },
        {
          "duration": 0.461538,
          "durationTicks": 576,
          "midi": 63,
          "name": "D#4",
          "ticks": 8449,
          "time": 6.770025281250001,
          "velocity": 0.3937007874015748
        },
        {
          "duration": 0.3076920000000003,
          "durationTicks": 384,
          "midi": 63,
          "name": "D#4",
          "ticks": 8833,
          "time": 7.077717281250001,
          "velocity": 0.3937007874015748
        },
        {
          "duration": 0.1538459999999997,
          "durationTicks": 192,
          "midi": 60,
          "name": "C4",
          "ticks": 8833,
          "time": 7.077717281250001,
          "velocity": 0.3937007874015748
        },
        {
          "duration": 0.1538460000000006,
          "durationTicks": 192,
          "midi": 60,
          "name": "C4",
          "ticks": 9025,
          "time": 7.231563281250001,
          "velocity": 0.3937007874015748
        },
        {
          "duration": 0.461538,
          "durationTicks": 576,
          "midi": 63,
          "name": "D#4",
          "ticks": 9025,
          "time": 7.231563281250001,
          "velocity": 0.3937007874015748
        },
        {
          "duration": 0.3076919999999994,
          "durationTicks": 384,
          "midi": 60,
          "name": "C4",
          "ticks": 9217,
          "time": 7.385409281250001,
          "velocity": 0.3937007874015748
        },
        {
          "duration": 0.6153839999999997,
          "durationTicks": 768,
          "midi": 63,
          "name": "D#4",
          "ticks": 9217,
          "time": 7.385409281250001,
          "velocity": 0.3937007874015748
        },
        {
          "duration": 0.6153839999999997,
          "durationTicks": 768,
          "midi": 63,
          "name": "D#4",
          "ticks": 9601,
          "time": 7.693101281250001,
          "velocity": 0.3937007874015748
        },
        {
          "duration": 0.3076920000000003,
          "durationTicks": 384,
          "midi": 60,
          "name": "C4",
          "ticks": 9601,
          "time": 7.693101281250001,
          "velocity": 0.3937007874015748
        },
        {
          "duration": 0.6153840000000006,
          "durationTicks": 768,
          "midi": 63,
          "name": "D#4",
          "ticks": 9985,
          "time": 8.00079328125,
          "velocity": 0.3937007874015748
        },
        {
          "duration": 0.3076919999999994,
          "durationTicks": 384,
          "midi": 60,
          "name": "C4",
          "ticks": 9985,
          "time": 8.00079328125,
          "velocity": 0.3937007874015748
        },
        {
          "duration": 0.3076920000000012,
          "durationTicks": 384,
          "midi": 68,
          "name": "G#4",
          "ticks": 10369,
          "time": 8.30848528125,
          "velocity": 0.3937007874015748
        },
        {
          "duration": 2.4671449687500004,
          "durationTicks": 3079,
          "midi": 44,
          "name": "G#2",
          "ticks": 10753,
          "time": 8.616177281250001,
          "velocity": 0.3937007874015748
        },
        {
          "duration": 2.4671449687500004,
          "durationTicks": 3079,
          "midi": 72,
          "name": "C5",
          "ticks": 10753,
          "time": 8.616177281250001,
          "velocity": 0.3937007874015748
        },
        {
          "duration": 2.4671449687500004,
          "durationTicks": 3079,
          "midi": 48,
          "name": "C3",
          "ticks": 10753,
          "time": 8.616177281250001,
          "velocity": 0.3937007874015748
        },
        {
          "duration": 2.4671449687500004,
          "durationTicks": 3079,
          "midi": 63,
          "name": "D#4",
          "ticks": 10753,
          "time": 8.616177281250001,
          "velocity": 0.3937007874015748
        },
        {
          "duration": 2.4671449687500004,
          "durationTicks": 3079,
          "midi": 56,
          "name": "G#3",
          "ticks": 10753,
          "time": 8.616177281250001,
          "velocity": 0.3937007874015748
        },
        {
          "duration": 2.4671449687500004,
          "durationTicks": 3079,
          "midi": 60,
          "name": "C4",
          "ticks": 10753,
          "time": 8.616177281250001,
          "velocity": 0.3937007874015748
        },
        {
          "duration": 2.4671449687500004,
          "durationTicks": 3079,
          "midi": 32,
          "name": "G#1",
          "ticks": 10753,
          "time": 8.616177281250001,
          "velocity": 0.3937007874015748
        },
        {
          "duration": 0.07692300000000074,
          "durationTicks": 96,
          "midi": 84,
          "name": "C6",
          "ticks": 13057,
          "time": 10.46232928125,
          "velocity": 0.3937007874015748
        },
        {
          "duration": 0.0777242812499992,
          "durationTicks": 97,
          "midi": 92,
          "name": "G#6",
          "ticks": 13121,
          "time": 10.513611281250002,
          "velocity": 0.3937007874015748
        },
        {
          "duration": 0.0777242812499992,
          "durationTicks": 97,
          "midi": 89,
          "name": "F6",
          "ticks": 13185,
          "time": 10.56489328125,
          "velocity": 0.3937007874015748
        },
        {
          "duration": 0.0777242812499992,
          "durationTicks": 97,
          "midi": 84,
          "name": "C6",
          "ticks": 13250,
          "time": 10.616976562500001,
          "velocity": 0.3937007874015748
        },
        {
          "duration": 0.07772428125000097,
          "durationTicks": 97,
          "midi": 80,
          "name": "G#5",
          "ticks": 13315,
          "time": 10.66905984375,
          "velocity": 0.3937007874015748
        },
        {
          "duration": 0.0777242812499992,
          "durationTicks": 97,
          "midi": 77,
          "name": "F5",
          "ticks": 13379,
          "time": 10.72034184375,
          "velocity": 0.3937007874015748
        },
        {
          "duration": 0.07772428125000097,
          "durationTicks": 97,
          "midi": 79,
          "name": "G5",
          "ticks": 13444,
          "time": 10.772425125,
          "velocity": 0.3937007874015748
        },
        {
          "duration": 0.0777242812499992,
          "durationTicks": 97,
          "midi": 80,
          "name": "G#5",
          "ticks": 13509,
          "time": 10.82450840625,
          "velocity": 0.3937007874015748
        },
        {
          "duration": 0.07772428125000275,
          "durationTicks": 97,
          "midi": 84,
          "name": "C6",
          "ticks": 13573,
          "time": 10.87579040625,
          "velocity": 0.3937007874015748
        },
        {
          "duration": 0.0777242812499992,
          "durationTicks": 97,
          "midi": 86,
          "name": "D6",
          "ticks": 13638,
          "time": 10.9278736875,
          "velocity": 0.3937007874015748
        },
        {
          "duration": 0.0777242812499992,
          "durationTicks": 97,
          "midi": 87,
          "name": "D#6",
          "ticks": 13703,
          "time": 10.97995696875,
          "velocity": 0.3937007874015748
        },
        {
          "duration": 0.0777242812499992,
          "durationTicks": 97,
          "midi": 89,
          "name": "F6",
          "ticks": 13767,
          "time": 11.031238968750001,
          "velocity": 0.3937007874015748
        },
        {
          "duration": 0.3076919999999994,
          "durationTicks": 384,
          "midi": 36,
          "name": "C2",
          "ticks": 13832,
          "time": 11.083322250000002,
          "velocity": 0.3937007874015748
        },
        {
          "duration": 0.3076919999999994,
          "durationTicks": 384,
          "midi": 48,
          "name": "C3",
          "ticks": 13832,
          "time": 11.083322250000002,
          "velocity": 0.3937007874015748
        },
        {
          "duration": 0.1538459999999997,
          "durationTicks": 192,
          "midi": 67,
          "name": "G4",
          "ticks": 13832,
          "time": 11.083322250000002,
          "velocity": 0.3937007874015748
        },
        {
          "duration": 0.1538459999999997,
          "durationTicks": 192,
          "midi": 63,
          "name": "D#4",
          "ticks": 13832,
          "time": 11.083322250000002,
          "velocity": 0.3937007874015748
        },
        {
          "duration": 0.1538459999999997,
          "durationTicks": 192,
          "midi": 62,
          "name": "D4",
          "ticks": 14024,
          "time": 11.237168250000002,
          "velocity": 0.3937007874015748
        },
        {
          "duration": 0.1538459999999997,
          "durationTicks": 192,
          "midi": 42,
          "name": "F#2",
          "ticks": 14216,
          "time": 11.391014250000001,
          "velocity": 0.3937007874015748
        },
        {
          "duration": 0.1538459999999997,
          "durationTicks": 192,
          "midi": 63,
          "name": "D#4",
          "ticks": 14216,
          "time": 11.391014250000001,
          "velocity": 0.3937007874015748
        },
        {
          "duration": 0.1538459999999997,
          "durationTicks": 192,
          "midi": 54,
          "name": "F#3",
          "ticks": 14216,
          "time": 11.391014250000001,
          "velocity": 0.3937007874015748
        },
        {
          "duration": 0.3076920000000012,
          "durationTicks": 384,
          "midi": 41,
          "name": "F2",
          "ticks": 14408,
          "time": 11.544860250000001,
          "velocity": 0.3937007874015748
        },
        {
          "duration": 0.3076920000000012,
          "durationTicks": 384,
          "midi": 53,
          "name": "F3",
          "ticks": 14408,
          "time": 11.544860250000001,
          "velocity": 0.3937007874015748
        },
        {
          "duration": 0.1538459999999997,
          "durationTicks": 192,
          "midi": 60,
          "name": "C4",
          "ticks": 14408,
          "time": 11.544860250000001,
          "velocity": 0.3937007874015748
        },
        {
          "duration": 0.15384600000000148,
          "durationTicks": 192,
          "midi": 67,
          "name": "G4",
          "ticks": 14600,
          "time": 11.69870625,
          "velocity": 0.3937007874015748
        },
        {
          "duration": 0.15384600000000148,
          "durationTicks": 192,
          "midi": 63,
          "name": "D#4",
          "ticks": 14600,
          "time": 11.69870625,
          "velocity": 0.3937007874015748
        },
        {
          "duration": 0.1538459999999997,
          "durationTicks": 192,
          "midi": 48,
          "name": "C3",
          "ticks": 14792,
          "time": 11.852552250000002,
          "velocity": 0.3937007874015748
        },
        {
          "duration": 0.1538459999999997,
          "durationTicks": 192,
          "midi": 62,
          "name": "D4",
          "ticks": 14792,
          "time": 11.852552250000002,
          "velocity": 0.3937007874015748
        },
        {
          "duration": 0.1538459999999997,
          "durationTicks": 192,
          "midi": 36,
          "name": "C2",
          "ticks": 14792,
          "time": 11.852552250000002,
          "velocity": 0.3937007874015748
        },
        {
          "duration": 0.3076919999999994,
          "durationTicks": 384,
          "midi": 39,
          "name": "D#2",
          "ticks": 14984,
          "time": 12.006398250000002,
          "velocity": 0.3937007874015748
        },
        {
          "duration": 0.3076919999999994,
          "durationTicks": 384,
          "midi": 51,
          "name": "D#3",
          "ticks": 14984,
          "time": 12.006398250000002,
          "velocity": 0.3937007874015748
        },
        {
          "duration": 0.1538459999999997,
          "durationTicks": 192,
          "midi": 63,
          "name": "D#4",
          "ticks": 14984,
          "time": 12.006398250000002,
          "velocity": 0.3937007874015748
        },
        {
          "duration": 0.1538459999999997,
          "durationTicks": 192,
          "midi": 60,
          "name": "C4",
          "ticks": 15176,
          "time": 12.160244250000002,
          "velocity": 0.3937007874015748
        },
        {
          "duration": 0.3076919999999994,
          "durationTicks": 384,
          "midi": 39,
          "name": "D#2",
          "ticks": 15368,
          "time": 12.314090250000001,
          "velocity": 0.3937007874015748
        },
        {
          "duration": 0.1538459999999997,
          "durationTicks": 192,
          "midi": 65,
          "name": "F4",
          "ticks": 15368,
          "time": 12.314090250000001,
          "velocity": 0.3937007874015748
        },
        {
          "duration": 0.1538459999999997,
          "durationTicks": 192,
          "midi": 68,
          "name": "G#4",
          "ticks": 15368,
          "time": 12.314090250000001,
          "velocity": 0.3937007874015748
        },
        {
          "duration": 0.3076919999999994,
          "durationTicks": 384,
          "midi": 51,
          "name": "D#3",
          "ticks": 15368,
          "time": 12.314090250000001,
          "velocity": 0.3937007874015748
        },
        {
          "duration": 0.1538459999999997,
          "durationTicks": 192,
          "midi": 63,
          "name": "D#4",
          "ticks": 15560,
          "time": 12.467936250000001,
          "velocity": 0.3937007874015748
        },
        {
          "duration": 0.15384600000000148,
          "durationTicks": 192,
          "midi": 65,
          "name": "F4",
          "ticks": 15752,
          "time": 12.62178225,
          "velocity": 0.3937007874015748
        },
        {
          "duration": 0.15384600000000148,
          "durationTicks": 192,
          "midi": 56,
          "name": "G#3",
          "ticks": 15752,
          "time": 12.62178225,
          "velocity": 0.3937007874015748
        },
        {
          "duration": 0.15384600000000148,
          "durationTicks": 192,
          "midi": 44,
          "name": "G#2",
          "ticks": 15752,
          "time": 12.62178225,
          "velocity": 0.3937007874015748
        },
        {
          "duration": 0.3076919999999994,
          "durationTicks": 384,
          "midi": 43,
          "name": "G2",
          "ticks": 15944,
          "time": 12.775628250000002,
          "velocity": 0.3937007874015748
        },
        {
          "duration": 0.3076919999999994,
          "durationTicks": 384,
          "midi": 55,
          "name": "G3",
          "ticks": 15944,
          "time": 12.775628250000002,
          "velocity": 0.3937007874015748
        },
        {
          "duration": 0.1538459999999997,
          "durationTicks": 192,
          "midi": 62,
          "name": "D4",
          "ticks": 15944,
          "time": 12.775628250000002,
          "velocity": 0.3937007874015748
        },
        {
          "duration": 0.1538459999999997,
          "durationTicks": 192,
          "midi": 65,
          "name": "F4",
          "ticks": 16136,
          "time": 12.929474250000002,
          "velocity": 0.3937007874015748
        },
        {
          "duration": 0.1538459999999997,
          "durationTicks": 192,
          "midi": 68,
          "name": "G#4",
          "ticks": 16136,
          "time": 12.929474250000002,
          "velocity": 0.3937007874015748
        },
        {
          "duration": 0.4615380000000009,
          "durationTicks": 576,
          "midi": 38,
          "name": "D2",
          "ticks": 16328,
          "time": 13.083320250000002,
          "velocity": 0.3937007874015748
        },
        {
          "duration": 0.4615380000000009,
          "durationTicks": 576,
          "midi": 50,
          "name": "D3",
          "ticks": 16328,
          "time": 13.083320250000002,
          "velocity": 0.3937007874015748
        },
        {
          "duration": 0.1538459999999997,
          "durationTicks": 192,
          "midi": 63,
          "name": "D#4",
          "ticks": 16328,
          "time": 13.083320250000002,
          "velocity": 0.3937007874015748
        },
        {
          "duration": 0.1538459999999997,
          "durationTicks": 192,
          "midi": 65,
          "name": "F4",
          "ticks": 16520,
          "time": 13.237166250000001,
          "velocity": 0.3937007874015748
        },
        {
          "duration": 0.15384600000000148,
          "durationTicks": 192,
          "midi": 62,
          "name": "D4",
          "ticks": 16712,
          "time": 13.391012250000001,
          "velocity": 0.3937007874015748
        },
        {
          "duration": 0.1538459999999997,
          "durationTicks": 192,
          "midi": 68,
          "name": "G#4",
          "ticks": 16904,
          "time": 13.544858250000003,
          "velocity": 0.3937007874015748
        },
        {
          "duration": 0.1538459999999997,
          "durationTicks": 192,
          "midi": 71,
          "name": "B4",
          "ticks": 16904,
          "time": 13.544858250000003,
          "velocity": 0.3937007874015748
        },
        {
          "duration": 0.3076919999999994,
          "durationTicks": 384,
          "midi": 55,
          "name": "G3",
          "ticks": 16904,
          "time": 13.544858250000003,
          "velocity": 0.3937007874015748
        },
        {
          "duration": 0.3076919999999994,
          "durationTicks": 384,
          "midi": 43,
          "name": "G2",
          "ticks": 16904,
          "time": 13.544858250000003,
          "velocity": 0.3937007874015748
        },
        {
          "duration": 0.1538459999999997,
          "durationTicks": 192,
          "midi": 67,
          "name": "G4",
          "ticks": 17096,
          "time": 13.698704250000002,
          "velocity": 0.3937007874015748
        },
        {
          "duration": 0.1538459999999997,
          "durationTicks": 192,
          "midi": 68,
          "name": "G#4",
          "ticks": 17288,
          "time": 13.852550250000002,
          "velocity": 0.3937007874015748
        },
        {
          "duration": 0.3076919999999994,
          "durationTicks": 384,
          "midi": 53,
          "name": "F3",
          "ticks": 17288,
          "time": 13.852550250000002,
          "velocity": 0.3937007874015748
        },
        {
          "duration": 0.3076919999999994,
          "durationTicks": 384,
          "midi": 41,
          "name": "F2",
          "ticks": 17288,
          "time": 13.852550250000002,
          "velocity": 0.3937007874015748
        },
        {
          "duration": 0.1538459999999997,
          "durationTicks": 192,
          "midi": 65,
          "name": "F4",
          "ticks": 17480,
          "time": 14.006396250000002,
          "velocity": 0.3937007874015748
        },
        {
          "duration": 0.3076920000000012,
          "durationTicks": 384,
          "midi": 56,
          "name": "G#3",
          "ticks": 17672,
          "time": 14.160242250000001,
          "velocity": 0.3937007874015748
        },
        {
          "duration": 0.1538459999999997,
          "durationTicks": 192,
          "midi": 71,
          "name": "B4",
          "ticks": 17672,
          "time": 14.160242250000001,
          "velocity": 0.3937007874015748
        },
        {
          "duration": 0.3076920000000012,
          "durationTicks": 384,
          "midi": 44,
          "name": "G#2",
          "ticks": 17672,
          "time": 14.160242250000001,
          "velocity": 0.3937007874015748
        },
        {
          "duration": 0.1538459999999997,
          "durationTicks": 192,
          "midi": 74,
          "name": "D5",
          "ticks": 17672,
          "time": 14.160242250000001,
          "velocity": 0.3937007874015748
        },
        {
          "duration": 0.15384600000000148,
          "durationTicks": 192,
          "midi": 69,
          "name": "A4",
          "ticks": 17864,
          "time": 14.314088250000001,
          "velocity": 0.3937007874015748
        },
        {
          "duration": 0.1538459999999997,
          "durationTicks": 192,
          "midi": 71,
          "name": "B4",
          "ticks": 18056,
          "time": 14.467934250000003,
          "velocity": 0.3937007874015748
        },
        {
          "duration": 0.3076919999999994,
          "durationTicks": 384,
          "midi": 43,
          "name": "G2",
          "ticks": 18056,
          "time": 14.467934250000003,
          "velocity": 0.3937007874015748
        },
        {
          "duration": 0.3076919999999994,
          "durationTicks": 384,
          "midi": 55,
          "name": "G3",
          "ticks": 18056,
          "time": 14.467934250000003,
          "velocity": 0.3937007874015748
        },
        {
          "duration": 0.1538459999999997,
          "durationTicks": 192,
          "midi": 67,
          "name": "G4",
          "ticks": 18248,
          "time": 14.621780250000002,
          "velocity": 0.3937007874015748
        },
        {
          "duration": 0.1538459999999997,
          "durationTicks": 192,
          "midi": 43,
          "name": "G2",
          "ticks": 18440,
          "time": 14.775626250000002,
          "velocity": 0.3937007874015748
        },
        {
          "duration": 0.1538459999999997,
          "durationTicks": 192,
          "midi": 55,
          "name": "G3",
          "ticks": 18440,
          "time": 14.775626250000002,
          "velocity": 0.3937007874015748
        },
        {
          "duration": 0.1538459999999997,
          "durationTicks": 192,
          "midi": 77,
          "name": "F5",
          "ticks": 18440,
          "time": 14.775626250000002,
          "velocity": 0.3937007874015748
        },
        {
          "duration": 0.3076919999999994,
          "durationTicks": 384,
          "midi": 41,
          "name": "F2",
          "ticks": 18632,
          "time": 14.929472250000002,
          "velocity": 0.3937007874015748
        },
        {
          "duration": 0.3076919999999994,
          "durationTicks": 384,
          "midi": 53,
          "name": "F3",
          "ticks": 18632,
          "time": 14.929472250000002,
          "velocity": 0.3937007874015748
        },
        {
          "duration": 0.07692300000000074,
          "durationTicks": 96,
          "midi": 71,
          "name": "B4",
          "ticks": 18632,
          "time": 14.929472250000002,
          "velocity": 0.3937007874015748
        },
        {
          "duration": 0.07692299999999896,
          "durationTicks": 96,
          "midi": 72,
          "name": "C5",
          "ticks": 18728,
          "time": 15.006395250000002,
          "velocity": 0.3937007874015748
        },
        {
          "duration": 0.07692300000000074,
          "durationTicks": 96,
          "midi": 71,
          "name": "B4",
          "ticks": 18824,
          "time": 15.083318250000001,
          "velocity": 0.3937007874015748
        },
        {
          "duration": 0.07692299999999896,
          "durationTicks": 96,
          "midi": 72,
          "name": "C5",
          "ticks": 18920,
          "time": 15.160241250000002,
          "velocity": 0.3937007874015748
        },
        {
          "duration": 0.3076920000000012,
          "durationTicks": 384,
          "midi": 39,
          "name": "D#2",
          "ticks": 19016,
          "time": 15.237164250000001,
          "velocity": 0.3937007874015748
        },
        {
          "duration": 0.3076920000000012,
          "durationTicks": 384,
          "midi": 51,
          "name": "D#3",
          "ticks": 19016,
          "time": 15.237164250000001,
          "velocity": 0.3937007874015748
        },
        {
          "duration": 0.07692300000000074,
          "durationTicks": 96,
          "midi": 74,
          "name": "D5",
          "ticks": 19016,
          "time": 15.237164250000001,
          "velocity": 0.3937007874015748
        },
        {
          "duration": 0.07692300000000074,
          "durationTicks": 96,
          "midi": 75,
          "name": "D#5",
          "ticks": 19112,
          "time": 15.314087250000002,
          "velocity": 0.3937007874015748
        },
        {
          "duration": 0.07692299999999896,
          "durationTicks": 96,
          "midi": 74,
          "name": "D5",
          "ticks": 19208,
          "time": 15.391010250000003,
          "velocity": 0.3937007874015748
        },
        {
          "duration": 0.07692300000000074,
          "durationTicks": 96,
          "midi": 75,
          "name": "D#5",
          "ticks": 19304,
          "time": 15.467933250000002,
          "velocity": 0.3937007874015748
        },
        {
          "duration": 0.3076919999999994,
          "durationTicks": 384,
          "midi": 38,
          "name": "D2",
          "ticks": 19400,
          "time": 15.544856250000002,
          "velocity": 0.3937007874015748
        },
        {
          "duration": 0.3076919999999994,
          "durationTicks": 384,
          "midi": 50,
          "name": "D3",
          "ticks": 19400,
          "time": 15.544856250000002,
          "velocity": 0.3937007874015748
        },
        {
          "duration": 0.07692299999999896,
          "durationTicks": 96,
          "midi": 77,
          "name": "F5",
          "ticks": 19400,
          "time": 15.544856250000002,
          "velocity": 0.3937007874015748
        },
        {
          "duration": 0.07692300000000074,
          "durationTicks": 96,
          "midi": 79,
          "name": "G5",
          "ticks": 19496,
          "time": 15.621779250000001,
          "velocity": 0.3937007874015748
        },
        {
          "duration": 0.07692299999999896,
          "durationTicks": 96,
          "midi": 77,
          "name": "F5",
          "ticks": 19592,
          "time": 15.698702250000002,
          "velocity": 0.3937007874015748
        },
        {
          "duration": 0.07692300000000074,
          "durationTicks": 96,
          "midi": 79,
          "name": "G5",
          "ticks": 19688,
          "time": 15.775625250000001,
          "velocity": 0.3937007874015748
        },
        {
          "duration": 0.07692300000000074,
          "durationTicks": 96,
          "midi": 80,
          "name": "G#5",
          "ticks": 19784,
          "time": 15.852548250000002,
          "velocity": 0.3937007874015748
        },
        {
          "duration": 0.15384600000000148,
          "durationTicks": 192,
          "midi": 35,
          "name": "B1",
          "ticks": 19784,
          "time": 15.852548250000002,
          "velocity": 0.3937007874015748
        },
        {
          "duration": 0.15384600000000148,
          "durationTicks": 192,
          "midi": 47,
          "name": "B2",
          "ticks": 19784,
          "time": 15.852548250000002,
          "velocity": 0.3937007874015748
        },
        {
          "duration": 0.07692300000000074,
          "durationTicks": 96,
          "midi": 82,
          "name": "A#5",
          "ticks": 19880,
          "time": 15.929471250000002,
          "velocity": 0.3937007874015748
        },
        {
          "duration": 0.46153799999999734,
          "durationTicks": 576,
          "midi": 48,
          "name": "C3",
          "ticks": 19976,
          "time": 16.006394250000003,
          "velocity": 0.3937007874015748
        },
        {
          "duration": 0.46153799999999734,
          "durationTicks": 576,
          "midi": 63,
          "name": "D#4",
          "ticks": 19976,
          "time": 16.006394250000003,
          "velocity": 0.3937007874015748
        },
        {
          "duration": 0.46153799999999734,
          "durationTicks": 576,
          "midi": 84,
          "name": "C6",
          "ticks": 19976,
          "time": 16.006394250000003,
          "velocity": 0.3937007874015748
        },
        {
          "duration": 0.46153799999999734,
          "durationTicks": 576,
          "midi": 63,
          "name": "D#4",
          "ticks": 19976,
          "time": 16.006394250000003,
          "velocity": 0.3937007874015748
        },
        {
          "duration": 0.46153799999999734,
          "durationTicks": 576,
          "midi": 72,
          "name": "C5",
          "ticks": 19976,
          "time": 16.006394250000003,
          "velocity": 0.3937007874015748
        },
        {
          "duration": 0.15384600000000148,
          "durationTicks": 192,
          "midi": 62,
          "name": "D4",
          "ticks": 20552,
          "time": 16.46793225,
          "velocity": 0.3937007874015748
        },
        {
          "duration": 0.15384600000000148,
          "durationTicks": 192,
          "midi": 62,
          "name": "D4",
          "ticks": 20552,
          "time": 16.46793225,
          "velocity": 0.3937007874015748
        },
        {
          "duration": 0.15384600000000148,
          "durationTicks": 192,
          "midi": 48,
          "name": "C3",
          "ticks": 20552,
          "time": 16.46793225,
          "velocity": 0.3937007874015748
        },
        {
          "duration": 0.3076919999999994,
          "durationTicks": 384,
          "midi": 63,
          "name": "D#4",
          "ticks": 20744,
          "time": 16.621778250000002,
          "velocity": 0.3937007874015748
        },
        {
          "duration": 0.3076919999999994,
          "durationTicks": 384,
          "midi": 63,
          "name": "D#4",
          "ticks": 20744,
          "time": 16.621778250000002,
          "velocity": 0.3937007874015748
        },
        {
          "duration": 0.3076919999999994,
          "durationTicks": 384,
          "midi": 48,
          "name": "C3",
          "ticks": 20744,
          "time": 16.621778250000002,
          "velocity": 0.3937007874015748
        },
        {
          "duration": 0.3076919999999994,
          "durationTicks": 384,
          "midi": 62,
          "name": "D4",
          "ticks": 21128,
          "time": 16.92947025,
          "velocity": 0.3937007874015748
        },
        {
          "duration": 0.3076919999999994,
          "durationTicks": 384,
          "midi": 62,
          "name": "D4",
          "ticks": 21128,
          "time": 16.92947025,
          "velocity": 0.3937007874015748
        },
        {
          "duration": 0.3076919999999994,
          "durationTicks": 384,
          "midi": 53,
          "name": "F3",
          "ticks": 21128,
          "time": 16.92947025,
          "velocity": 0.3937007874015748
        },
        {
          "duration": 0.15384600000000148,
          "durationTicks": 192,
          "midi": 48,
          "name": "C3",
          "ticks": 21512,
          "time": 17.23716225,
          "velocity": 0.3937007874015748
        },
        {
          "duration": 0.15384600000000148,
          "durationTicks": 192,
          "midi": 63,
          "name": "D#4",
          "ticks": 21512,
          "time": 17.23716225,
          "velocity": 0.3937007874015748
        },
        {
          "duration": 0.15384600000000148,
          "durationTicks": 192,
          "midi": 63,
          "name": "D#4",
          "ticks": 21512,
          "time": 17.23716225,
          "velocity": 0.3937007874015748
        },
        {
          "duration": 0.3076919999999994,
          "durationTicks": 384,
          "midi": 62,
          "name": "D4",
          "ticks": 21704,
          "time": 17.391008250000002,
          "velocity": 0.3937007874015748
        },
        {
          "duration": 0.3076919999999994,
          "durationTicks": 384,
          "midi": 48,
          "name": "C3",
          "ticks": 21704,
          "time": 17.391008250000002,
          "velocity": 0.3937007874015748
        },
        {
          "duration": 0.3076919999999994,
          "durationTicks": 384,
          "midi": 62,
          "name": "D4",
          "ticks": 21704,
          "time": 17.391008250000002,
          "velocity": 0.3937007874015748
        },
        {
          "duration": 0.15384600000000148,
          "durationTicks": 192,
          "midi": 48,
          "name": "C3",
          "ticks": 22088,
          "time": 17.69870025,
          "velocity": 0.3937007874015748
        },
        {
          "duration": 0.15384600000000148,
          "durationTicks": 192,
          "midi": 62,
          "name": "D4",
          "ticks": 22088,
          "time": 17.69870025,
          "velocity": 0.3937007874015748
        },
        {
          "duration": 0.15384600000000148,
          "durationTicks": 192,
          "midi": 62,
          "name": "D4",
          "ticks": 22088,
          "time": 17.69870025,
          "velocity": 0.3937007874015748
        },
        {
          "duration": 0.3076919999999994,
          "durationTicks": 384,
          "midi": 63,
          "name": "D#4",
          "ticks": 22280,
          "time": 17.852546250000003,
          "velocity": 0.3937007874015748
        },
        {
          "duration": 0.15384599999999793,
          "durationTicks": 192,
          "midi": 44,
          "name": "G#2",
          "ticks": 22280,
          "time": 17.852546250000003,
          "velocity": 0.3937007874015748
        },
        {
          "duration": 0.3076919999999994,
          "durationTicks": 384,
          "midi": 65,
          "name": "F4",
          "ticks": 22280,
          "time": 17.852546250000003,
          "velocity": 0.3937007874015748
        },
        {
          "duration": 0.3076919999999994,
          "durationTicks": 384,
          "midi": 56,
          "name": "G#3",
          "ticks": 22280,
          "time": 17.852546250000003,
          "velocity": 0.3937007874015748
        },
        {
          "duration": 0.15384599999999793,
          "durationTicks": 192,
          "midi": 43,
          "name": "G2",
          "ticks": 22664,
          "time": 18.160238250000003,
          "velocity": 0.3937007874015748
        },
        {
          "duration": 0.3076919999999994,
          "durationTicks": 384,
          "midi": 62,
          "name": "D4",
          "ticks": 22664,
          "time": 18.160238250000003,
          "velocity": 0.3937007874015748
        },
        {
          "duration": 0.3076919999999994,
          "durationTicks": 384,
          "midi": 55,
          "name": "G3",
          "ticks": 22664,
          "time": 18.160238250000003,
          "velocity": 0.3937007874015748
        },
        {
          "duration": 0.3076919999999994,
          "durationTicks": 384,
          "midi": 62,
          "name": "D4",
          "ticks": 22664,
          "time": 18.160238250000003,
          "velocity": 0.3937007874015748
        },
        {
          "duration": 0.15384600000000148,
          "durationTicks": 192,
          "midi": 63,
          "name": "D#4",
          "ticks": 23048,
          "time": 18.467930250000002,
          "velocity": 0.3937007874015748
        },
        {
          "duration": 0.15384600000000148,
          "durationTicks": 192,
          "midi": 48,
          "name": "C3",
          "ticks": 23048,
          "time": 18.467930250000002,
          "velocity": 0.3937007874015748
        },
        {
          "duration": 0.15384600000000148,
          "durationTicks": 192,
          "midi": 63,
          "name": "D#4",
          "ticks": 23048,
          "time": 18.467930250000002,
          "velocity": 0.3937007874015748
        },
        {
          "duration": 0.3076919999999994,
          "durationTicks": 384,
          "midi": 63,
          "name": "D#4",
          "ticks": 23240,
          "time": 18.621776250000003,
          "velocity": 0.3937007874015748
        },
        {
          "duration": 0.3076919999999994,
          "durationTicks": 384,
          "midi": 48,
          "name": "C3",
          "ticks": 23240,
          "time": 18.621776250000003,
          "velocity": 0.3937007874015748
        },
        {
          "duration": 0.3076919999999994,
          "durationTicks": 384,
          "midi": 63,
          "name": "D#4",
          "ticks": 23240,
          "time": 18.621776250000003,
          "velocity": 0.3937007874015748
        },
        {
          "duration": 0.15384599999999793,
          "durationTicks": 192,
          "midi": 48,
          "name": "C3",
          "ticks": 23624,
          "time": 18.929468250000003,
          "velocity": 0.3937007874015748
        },
        {
          "duration": 0.15384599999999793,
          "durationTicks": 192,
          "midi": 63,
          "name": "D#4",
          "ticks": 23624,
          "time": 18.929468250000003,
          "velocity": 0.3937007874015748
        },
        {
          "duration": 0.15384599999999793,
          "durationTicks": 192,
          "midi": 63,
          "name": "D#4",
          "ticks": 23624,
          "time": 18.929468250000003,
          "velocity": 0.3937007874015748
        },
        {
          "duration": 0.23076900000000222,
          "durationTicks": 288,
          "midi": 65,
          "name": "F4",
          "ticks": 23816,
          "time": 19.08331425,
          "velocity": 0.3937007874015748
        },
        {
          "duration": 0.30769200000000296,
          "durationTicks": 384,
          "midi": 57,
          "name": "A3",
          "ticks": 23816,
          "time": 19.08331425,
          "velocity": 0.3937007874015748
        },
        {
          "duration": 0.30769200000000296,
          "durationTicks": 384,
          "midi": 45,
          "name": "A2",
          "ticks": 23816,
          "time": 19.08331425,
          "velocity": 0.3937007874015748
        },
        {
          "duration": 0.23076900000000222,
          "durationTicks": 288,
          "midi": 65,
          "name": "F4",
          "ticks": 23816,
          "time": 19.08331425,
          "velocity": 0.3937007874015748
        },
        {
          "duration": 0.23157028124999712,
          "durationTicks": 289,
          "midi": 63,
          "name": "D#4",
          "ticks": 24072,
          "time": 19.288442250000003,
          "velocity": 0.3937007874015748
        },
        {
          "duration": 0.23157028124999712,
          "durationTicks": 289,
          "midi": 63,
          "name": "D#4",
          "ticks": 24072,
          "time": 19.288442250000003,
          "velocity": 0.3937007874015748
        },
        {
          "duration": 0.30849328124999786,
          "durationTicks": 385,
          "midi": 45,
          "name": "A2",
          "ticks": 24200,
          "time": 19.391006250000004,
          "velocity": 0.3937007874015748
        },
        {
          "duration": 0.30849328124999786,
          "durationTicks": 385,
          "midi": 57,
          "name": "A3",
          "ticks": 24200,
          "time": 19.391006250000004,
          "velocity": 0.3937007874015748
        },
        {
          "duration": 0.23157028124999712,
          "durationTicks": 289,
          "midi": 62,
          "name": "D4",
          "ticks": 24328,
          "time": 19.49357025,
          "velocity": 0.3937007874015748
        },
        {
          "duration": 0.23157028124999712,
          "durationTicks": 289,
          "midi": 62,
          "name": "D4",
          "ticks": 24328,
          "time": 19.49357025,
          "velocity": 0.3937007874015748
        },
        {
          "duration": 0.15384600000000148,
          "durationTicks": 192,
          "midi": 56,
          "name": "G#3",
          "ticks": 24585,
          "time": 19.69949953125,
          "velocity": 0.3937007874015748
        },
        {
          "duration": 0.15384600000000148,
          "durationTicks": 192,
          "midi": 44,
          "name": "G#2",
          "ticks": 24585,
          "time": 19.69949953125,
          "velocity": 0.3937007874015748
        },
        {
          "duration": 0.9230759999999982,
          "durationTicks": 1152,
          "midi": 60,
          "name": "C4",
          "ticks": 24585,
          "time": 19.69949953125,
          "velocity": 0.3937007874015748
        },
        {
          "duration": 0.15384599999999793,
          "durationTicks": 192,
          "midi": 56,
          "name": "G#3",
          "ticks": 24777,
          "time": 19.853345531250003,
          "velocity": 0.3937007874015748
        },
        {
          "duration": 0.15384599999999793,
          "durationTicks": 192,
          "midi": 44,
          "name": "G#2",
          "ticks": 24777,
          "time": 19.853345531250003,
          "velocity": 0.3937007874015748
        },
        {
          "duration": 0.15384600000000148,
          "durationTicks": 192,
          "midi": 39,
          "name": "D#2",
          "ticks": 24969,
          "time": 20.00719153125,
          "velocity": 0.3937007874015748
        },
        {
          "duration": 0.15384600000000148,
          "durationTicks": 192,
          "midi": 51,
          "name": "D#3",
          "ticks": 24969,
          "time": 20.00719153125,
          "velocity": 0.3937007874015748
        },
        {
          "duration": 0.15384599999999793,
          "durationTicks": 192,
          "midi": 51,
          "name": "D#3",
          "ticks": 25161,
          "time": 20.161037531250003,
          "velocity": 0.3937007874015748
        },
        {
          "duration": 0.15384599999999793,
          "durationTicks": 192,
          "midi": 39,
          "name": "D#2",
          "ticks": 25161,
          "time": 20.161037531250003,
          "velocity": 0.3937007874015748
        },
        {
          "duration": 0.15384600000000148,
          "durationTicks": 192,
          "midi": 43,
          "name": "G2",
          "ticks": 25353,
          "time": 20.31488353125,
          "velocity": 0.3937007874015748
        },
        {
          "duration": 0.15384600000000148,
          "durationTicks": 192,
          "midi": 55,
          "name": "G3",
          "ticks": 25353,
          "time": 20.31488353125,
          "velocity": 0.3937007874015748
        },
        {
          "duration": 0.15384599999999793,
          "durationTicks": 192,
          "midi": 43,
          "name": "G2",
          "ticks": 25545,
          "time": 20.468729531250002,
          "velocity": 0.3937007874015748
        },
        {
          "duration": 0.15384599999999793,
          "durationTicks": 192,
          "midi": 55,
          "name": "G3",
          "ticks": 25545,
          "time": 20.468729531250002,
          "velocity": 0.3937007874015748
        },
        {
          "duration": 0.15384600000000148,
          "durationTicks": 192,
          "midi": 50,
          "name": "D3",
          "ticks": 25737,
          "time": 20.62257553125,
          "velocity": 0.3937007874015748
        },
        {
          "duration": 0.15384600000000148,
          "durationTicks": 192,
          "midi": 38,
          "name": "D2",
          "ticks": 25737,
          "time": 20.62257553125,
          "velocity": 0.3937007874015748
        },
        {
          "duration": 0.15384600000000148,
          "durationTicks": 192,
          "midi": 50,
          "name": "D3",
          "ticks": 25929,
          "time": 20.77642153125,
          "velocity": 0.3937007874015748
        },
        {
          "duration": 0.15384600000000148,
          "durationTicks": 192,
          "midi": 38,
          "name": "D2",
          "ticks": 25929,
          "time": 20.77642153125,
          "velocity": 0.3937007874015748
        },
        {
          "duration": 0.15384599999999793,
          "durationTicks": 192,
          "midi": 63,
          "name": "D#4",
          "ticks": 26121,
          "time": 20.930267531250003,
          "velocity": 0.3937007874015748
        },
        {
          "duration": 0.15384599999999793,
          "durationTicks": 192,
          "midi": 56,
          "name": "G#3",
          "ticks": 26121,
          "time": 20.930267531250003,
          "velocity": 0.3937007874015748
        },
        {
          "duration": 0.15384599999999793,
          "durationTicks": 192,
          "midi": 63,
          "name": "D#4",
          "ticks": 26121,
          "time": 20.930267531250003,
          "velocity": 0.3937007874015748
        },
        {
          "duration": 0.15384599999999793,
          "durationTicks": 192,
          "midi": 44,
          "name": "G#2",
          "ticks": 26121,
          "time": 20.930267531250003,
          "velocity": 0.3937007874015748
        },
        {
          "duration": 0.3076919999999994,
          "durationTicks": 384,
          "midi": 63,
          "name": "D#4",
          "ticks": 26313,
          "time": 21.08411353125,
          "velocity": 0.3937007874015748
        },
        {
          "duration": 0.3076919999999994,
          "durationTicks": 384,
          "midi": 56,
          "name": "G#3",
          "ticks": 26313,
          "time": 21.08411353125,
          "velocity": 0.3937007874015748
        },
        {
          "duration": 0.3076919999999994,
          "durationTicks": 384,
          "midi": 63,
          "name": "D#4",
          "ticks": 26313,
          "time": 21.08411353125,
          "velocity": 0.3937007874015748
        },
        {
          "duration": 0.3076919999999994,
          "durationTicks": 384,
          "midi": 44,
          "name": "G#2",
          "ticks": 26313,
          "time": 21.08411353125,
          "velocity": 0.3937007874015748
        },
        {
          "duration": 0.15384600000000148,
          "durationTicks": 192,
          "midi": 56,
          "name": "G#3",
          "ticks": 26697,
          "time": 21.39180553125,
          "velocity": 0.3937007874015748
        },
        {
          "duration": 0.15384600000000148,
          "durationTicks": 192,
          "midi": 44,
          "name": "G#2",
          "ticks": 26697,
          "time": 21.39180553125,
          "velocity": 0.3937007874015748
        },
        {
          "duration": 0.15384600000000148,
          "durationTicks": 192,
          "midi": 63,
          "name": "D#4",
          "ticks": 26697,
          "time": 21.39180553125,
          "velocity": 0.3937007874015748
        },
        {
          "duration": 0.15384600000000148,
          "durationTicks": 192,
          "midi": 63,
          "name": "D#4",
          "ticks": 26697,
          "time": 21.39180553125,
          "velocity": 0.3937007874015748
        },
        {
          "duration": 0.3076919999999994,
          "durationTicks": 384,
          "midi": 65,
          "name": "F4",
          "ticks": 26889,
          "time": 21.54565153125,
          "velocity": 0.3937007874015748
        },
        {
          "duration": 0.3076919999999994,
          "durationTicks": 384,
          "midi": 44,
          "name": "G#2",
          "ticks": 26889,
          "time": 21.54565153125,
          "velocity": 0.3937007874015748
        },
        {
          "duration": 0.3076919999999994,
          "durationTicks": 384,
          "midi": 56,
          "name": "G#3",
          "ticks": 26889,
          "time": 21.54565153125,
          "velocity": 0.3937007874015748
        },
        {
          "duration": 0.3076919999999994,
          "durationTicks": 384,
          "midi": 65,
          "name": "F4",
          "ticks": 26889,
          "time": 21.54565153125,
          "velocity": 0.3937007874015748
        },
        {
          "duration": 0.3076919999999994,
          "durationTicks": 384,
          "midi": 56,
          "name": "G#3",
          "ticks": 27273,
          "time": 21.85334353125,
          "velocity": 0.3937007874015748
        },
        {
          "duration": 0.3076919999999994,
          "durationTicks": 384,
          "midi": 63,
          "name": "D#4",
          "ticks": 27273,
          "time": 21.85334353125,
          "velocity": 0.3937007874015748
        },
        {
          "duration": 0.3076919999999994,
          "durationTicks": 384,
          "midi": 44,
          "name": "G#2",
          "ticks": 27273,
          "time": 21.85334353125,
          "velocity": 0.3937007874015748
        },
        {
          "duration": 0.3076919999999994,
          "durationTicks": 384,
          "midi": 63,
          "name": "D#4",
          "ticks": 27273,
          "time": 21.85334353125,
          "velocity": 0.3937007874015748
        },
        {
          "duration": 0.3076919999999994,
          "durationTicks": 384,
          "midi": 67,
          "name": "G4",
          "ticks": 27657,
          "time": 22.16103553125,
          "velocity": 0.3937007874015748
        },
        {
          "duration": 0.3076919999999994,
          "durationTicks": 384,
          "midi": 79,
          "name": "G5",
          "ticks": 27657,
          "time": 22.16103553125,
          "velocity": 0.3937007874015748
        },
        {
          "duration": 0.3076919999999994,
          "durationTicks": 384,
          "midi": 39,
          "name": "D#2",
          "ticks": 27657,
          "time": 22.16103553125,
          "velocity": 0.3937007874015748
        },
        {
          "duration": 0.3076919999999994,
          "durationTicks": 384,
          "midi": 63,
          "name": "D#4",
          "ticks": 27657,
          "time": 22.16103553125,
          "velocity": 0.3937007874015748
        },
        {
          "duration": 0.3076919999999994,
          "durationTicks": 384,
          "midi": 55,
          "name": "G3",
          "ticks": 27657,
          "time": 22.16103553125,
          "velocity": 0.3937007874015748
        },
        {
          "duration": 0.3076919999999994,
          "durationTicks": 384,
          "midi": 51,
          "name": "D#3",
          "ticks": 27657,
          "time": 22.16103553125,
          "velocity": 0.3937007874015748
        },
        {
          "duration": 0.3076919999999994,
          "durationTicks": 384,
          "midi": 67,
          "name": "G4",
          "ticks": 27657,
          "time": 22.16103553125,
          "velocity": 0.3937007874015748
        },
        {
          "duration": 0.30769200000000296,
          "durationTicks": 384,
          "midi": 81,
          "name": "A5",
          "ticks": 28041,
          "time": 22.46872753125,
          "velocity": 0.3937007874015748
        },
        {
          "duration": 0.30769200000000296,
          "durationTicks": 384,
          "midi": 69,
          "name": "A4",
          "ticks": 28041,
          "time": 22.46872753125,
          "velocity": 0.3937007874015748
        },
        {
          "duration": 0.30769200000000296,
          "durationTicks": 384,
          "midi": 57,
          "name": "A3",
          "ticks": 28041,
          "time": 22.46872753125,
          "velocity": 0.3937007874015748
        },
        {
          "duration": 0.30769200000000296,
          "durationTicks": 384,
          "midi": 65,
          "name": "F4",
          "ticks": 28041,
          "time": 22.46872753125,
          "velocity": 0.3937007874015748
        },
        {
          "duration": 0.30769200000000296,
          "durationTicks": 384,
          "midi": 53,
          "name": "F3",
          "ticks": 28041,
          "time": 22.46872753125,
          "velocity": 0.3937007874015748
        },
        {
          "duration": 0.30769200000000296,
          "durationTicks": 384,
          "midi": 41,
          "name": "F2",
          "ticks": 28041,
          "time": 22.46872753125,
          "velocity": 0.3937007874015748
        },
        {
          "duration": 0.30769200000000296,
          "durationTicks": 384,
          "midi": 69,
          "name": "A4",
          "ticks": 28041,
          "time": 22.46872753125,
          "velocity": 0.3937007874015748
        },
        {
          "duration": 0.6153839999999988,
          "durationTicks": 768,
          "midi": 82,
          "name": "A#5",
          "ticks": 28425,
          "time": 22.776419531250003,
          "velocity": 0.3937007874015748
        },
        {
          "duration": 0.6153839999999988,
          "durationTicks": 768,
          "midi": 70,
          "name": "A#4",
          "ticks": 28425,
          "time": 22.776419531250003,
          "velocity": 0.3937007874015748
        },
        {
          "duration": 0.6153839999999988,
          "durationTicks": 768,
          "midi": 70,
          "name": "A#4",
          "ticks": 28425,
          "time": 22.776419531250003,
          "velocity": 0.3937007874015748
        },
        {
          "duration": 0.6153839999999988,
          "durationTicks": 768,
          "midi": 58,
          "name": "A#3",
          "ticks": 28425,
          "time": 22.776419531250003,
          "velocity": 0.3937007874015748
        },
        {
          "duration": 0.6153839999999988,
          "durationTicks": 768,
          "midi": 43,
          "name": "G2",
          "ticks": 28425,
          "time": 22.776419531250003,
          "velocity": 0.3937007874015748
        },
        {
          "duration": 0.6153839999999988,
          "durationTicks": 768,
          "midi": 67,
          "name": "G4",
          "ticks": 28425,
          "time": 22.776419531250003,
          "velocity": 0.3937007874015748
        },
        {
          "duration": 0.6153839999999988,
          "durationTicks": 768,
          "midi": 55,
          "name": "G3",
          "ticks": 28425,
          "time": 22.776419531250003,
          "velocity": 0.3937007874015748
        },
        {
          "duration": 0.15384600000000148,
          "durationTicks": 192,
          "midi": 46,
          "name": "A#2",
          "ticks": 29193,
          "time": 23.39180353125,
          "velocity": 0.3937007874015748
        },
        {
          "duration": 0.15384600000000148,
          "durationTicks": 192,
          "midi": 67,
          "name": "G4",
          "ticks": 29193,
          "time": 23.39180353125,
          "velocity": 0.3937007874015748
        },
        {
          "duration": 0.15384600000000148,
          "durationTicks": 192,
          "midi": 67,
          "name": "G4",
          "ticks": 29193,
          "time": 23.39180353125,
          "velocity": 0.3937007874015748
        },
        {
          "duration": 0.15384600000000148,
          "durationTicks": 192,
          "midi": 58,
          "name": "A#3",
          "ticks": 29193,
          "time": 23.39180353125,
          "velocity": 0.3937007874015748
        },
        {
          "duration": 0.3076919999999994,
          "durationTicks": 384,
          "midi": 46,
          "name": "A#2",
          "ticks": 29385,
          "time": 23.545649531250003,
          "velocity": 0.3937007874015748
        },
        {
          "duration": 0.3076919999999994,
          "durationTicks": 384,
          "midi": 58,
          "name": "A#3",
          "ticks": 29385,
          "time": 23.545649531250003,
          "velocity": 0.3937007874015748
        },
        {
          "duration": 0.3076919999999994,
          "durationTicks": 384,
          "midi": 69,
          "name": "A4",
          "ticks": 29385,
          "time": 23.545649531250003,
          "velocity": 0.3937007874015748
        },
        {
          "duration": 0.3076919999999994,
          "durationTicks": 384,
          "midi": 69,
          "name": "A4",
          "ticks": 29385,
          "time": 23.545649531250003,
          "velocity": 0.3937007874015748
        },
        {
          "duration": 0.15384599999999793,
          "durationTicks": 192,
          "midi": 70,
          "name": "A#4",
          "ticks": 29769,
          "time": 23.853341531250003,
          "velocity": 0.3937007874015748
        },
        {
          "duration": 0.15384599999999793,
          "durationTicks": 192,
          "midi": 46,
          "name": "A#2",
          "ticks": 29769,
          "time": 23.853341531250003,
          "velocity": 0.3937007874015748
        },
        {
          "duration": 0.15384599999999793,
          "durationTicks": 192,
          "midi": 70,
          "name": "A#4",
          "ticks": 29769,
          "time": 23.853341531250003,
          "velocity": 0.3937007874015748
        },
        {
          "duration": 0.15384599999999793,
          "durationTicks": 192,
          "midi": 58,
          "name": "A#3",
          "ticks": 29769,
          "time": 23.853341531250003,
          "velocity": 0.3937007874015748
        },
        {
          "duration": 0.3076919999999994,
          "durationTicks": 384,
          "midi": 48,
          "name": "C3",
          "ticks": 29961,
          "time": 24.00718753125,
          "velocity": 0.3937007874015748
        },
        {
          "duration": 0.3076919999999994,
          "durationTicks": 384,
          "midi": 72,
          "name": "C5",
          "ticks": 29961,
          "time": 24.00718753125,
          "velocity": 0.3937007874015748
        },
        {
          "duration": 0.3076919999999994,
          "durationTicks": 384,
          "midi": 72,
          "name": "C5",
          "ticks": 29961,
          "time": 24.00718753125,
          "velocity": 0.3937007874015748
        },
        {
          "duration": 0.3076919999999994,
          "durationTicks": 384,
          "midi": 60,
          "name": "C4",
          "ticks": 29961,
          "time": 24.00718753125,
          "velocity": 0.3937007874015748
        },
        {
          "duration": 0.30769200000000296,
          "durationTicks": 384,
          "midi": 70,
          "name": "A#4",
          "ticks": 30345,
          "time": 24.31487953125,
          "velocity": 0.3937007874015748
        },
        {
          "duration": 0.30769200000000296,
          "durationTicks": 384,
          "midi": 70,
          "name": "A#4",
          "ticks": 30345,
          "time": 24.31487953125,
          "velocity": 0.3937007874015748
        },
        {
          "duration": 0.30769200000000296,
          "durationTicks": 384,
          "midi": 58,
          "name": "A#3",
          "ticks": 30345,
          "time": 24.31487953125,
          "velocity": 0.3937007874015748
        },
        {
          "duration": 0.30769200000000296,
          "durationTicks": 384,
          "midi": 46,
          "name": "A#2",
          "ticks": 30345,
          "time": 24.31487953125,
          "velocity": 0.3937007874015748
        },
        {
          "duration": 0.3076919999999994,
          "durationTicks": 384,
          "midi": 73,
          "name": "C#5",
          "ticks": 30729,
          "time": 24.622571531250003,
          "velocity": 0.3937007874015748
        },
        {
          "duration": 0.3076919999999994,
          "durationTicks": 384,
          "midi": 49,
          "name": "C#3",
          "ticks": 30729,
          "time": 24.622571531250003,
          "velocity": 0.3937007874015748
        },
        {
          "duration": 0.3076919999999994,
          "durationTicks": 384,
          "midi": 85,
          "name": "C#6",
          "ticks": 30729,
          "time": 24.622571531250003,
          "velocity": 0.3937007874015748
        },
        {
          "duration": 0.3076919999999994,
          "durationTicks": 384,
          "midi": 61,
          "name": "C#4",
          "ticks": 30729,
          "time": 24.622571531250003,
          "velocity": 0.3937007874015748
        },
        {
          "duration": 0.3076919999999994,
          "durationTicks": 384,
          "midi": 46,
          "name": "A#2",
          "ticks": 30729,
          "time": 24.622571531250003,
          "velocity": 0.3937007874015748
        },
        {
          "duration": 0.3076919999999994,
          "durationTicks": 384,
          "midi": 73,
          "name": "C#5",
          "ticks": 30729,
          "time": 24.622571531250003,
          "velocity": 0.3937007874015748
        },
        {
          "duration": 0.3076919999999994,
          "durationTicks": 384,
          "midi": 70,
          "name": "A#4",
          "ticks": 30729,
          "time": 24.622571531250003,
          "velocity": 0.3937007874015748
        },
        {
          "duration": 0.3076919999999994,
          "durationTicks": 384,
          "midi": 72,
          "name": "C5",
          "ticks": 31113,
          "time": 24.930263531250002,
          "velocity": 0.3937007874015748
        },
        {
          "duration": 0.3076919999999994,
          "durationTicks": 384,
          "midi": 87,
          "name": "D#6",
          "ticks": 31113,
          "time": 24.930263531250002,
          "velocity": 0.3937007874015748
        },
        {
          "duration": 0.3076919999999994,
          "durationTicks": 384,
          "midi": 63,
          "name": "D#4",
          "ticks": 31113,
          "time": 24.930263531250002,
          "velocity": 0.3937007874015748
        },
        {
          "duration": 0.3076919999999994,
          "durationTicks": 384,
          "midi": 75,
          "name": "D#5",
          "ticks": 31113,
          "time": 24.930263531250002,
          "velocity": 0.3937007874015748
        },
        {
          "duration": 0.3076919999999994,
          "durationTicks": 384,
          "midi": 48,
          "name": "C3",
          "ticks": 31113,
          "time": 24.930263531250002,
          "velocity": 0.3937007874015748
        },
        {
          "duration": 0.3076919999999994,
          "durationTicks": 384,
          "midi": 75,
          "name": "D#5",
          "ticks": 31113,
          "time": 24.930263531250002,
          "velocity": 0.3937007874015748
        },
        {
          "duration": 0.3076919999999994,
          "durationTicks": 384,
          "midi": 51,
          "name": "D#3",
          "ticks": 31113,
          "time": 24.930263531250002,
          "velocity": 0.3937007874015748
        },
        {
          "duration": 0.3076919999999994,
          "durationTicks": 384,
          "midi": 77,
          "name": "F5",
          "ticks": 31497,
          "time": 25.23795553125,
          "velocity": 0.3937007874015748
        },
        {
          "duration": 0.3076919999999994,
          "durationTicks": 384,
          "midi": 73,
          "name": "C#5",
          "ticks": 31497,
          "time": 25.23795553125,
          "velocity": 0.3937007874015748
        },
        {
          "duration": 0.6153839999999988,
          "durationTicks": 768,
          "midi": 65,
          "name": "F4",
          "ticks": 31497,
          "time": 25.23795553125,
          "velocity": 0.3937007874015748
        },
        {
          "duration": 0.6153839999999988,
          "durationTicks": 768,
          "midi": 53,
          "name": "F3",
          "ticks": 31497,
          "time": 25.23795553125,
          "velocity": 0.3937007874015748
        },
        {
          "duration": 0.6153839999999988,
          "durationTicks": 768,
          "midi": 77,
          "name": "F5",
          "ticks": 31497,
          "time": 25.23795553125,
          "velocity": 0.3937007874015748
        },
        {
          "duration": 0.6153839999999988,
          "durationTicks": 768,
          "midi": 49,
          "name": "C#3",
          "ticks": 31497,
          "time": 25.23795553125,
          "velocity": 0.3937007874015748
        },
        {
          "duration": 0.6153839999999988,
          "durationTicks": 768,
          "midi": 89,
          "name": "F6",
          "ticks": 31497,
          "time": 25.23795553125,
          "velocity": 0.3937007874015748
        },
        {
          "duration": 0.15384600000000148,
          "durationTicks": 192,
          "midi": 73,
          "name": "C#5",
          "ticks": 31881,
          "time": 25.54564753125,
          "velocity": 0.3937007874015748
        },
        {
          "duration": 0.3076919999999994,
          "durationTicks": 384,
          "midi": 73,
          "name": "C#5",
          "ticks": 31881,
          "time": 25.54564753125,
          "velocity": 0.3937007874015748
        },
        {
          "duration": 0.15384599999999793,
          "durationTicks": 192,
          "midi": 77,
          "name": "F5",
          "ticks": 32073,
          "time": 25.699493531250003,
          "velocity": 0.3937007874015748
        },
        {
          "duration": 0.6153840000000024,
          "durationTicks": 768,
          "midi": 75,
          "name": "D#5",
          "ticks": 32265,
          "time": 25.85333953125,
          "velocity": 0.3937007874015748
        },
        {
          "duration": 0.30769200000000296,
          "durationTicks": 384,
          "midi": 48,
          "name": "C3",
          "ticks": 32265,
          "time": 25.85333953125,
          "velocity": 0.3937007874015748
        },
        {
          "duration": 0.6153840000000024,
          "durationTicks": 768,
          "midi": 63,
          "name": "D#4",
          "ticks": 32265,
          "time": 25.85333953125,
          "velocity": 0.3937007874015748
        },
        {
          "duration": 0.30769200000000296,
          "durationTicks": 384,
          "midi": 36,
          "name": "C2",
          "ticks": 32265,
          "time": 25.85333953125,
          "velocity": 0.3937007874015748
        },
        {
          "duration": 0.15384599999999793,
          "durationTicks": 192,
          "midi": 39,
          "name": "D#2",
          "ticks": 32649,
          "time": 26.161031531250003,
          "velocity": 0.3937007874015748
        },
        {
          "duration": 0.15384599999999793,
          "durationTicks": 192,
          "midi": 51,
          "name": "D#3",
          "ticks": 32649,
          "time": 26.161031531250003,
          "velocity": 0.3937007874015748
        },
        {
          "duration": 0.15384600000000148,
          "durationTicks": 192,
          "midi": 48,
          "name": "C3",
          "ticks": 32841,
          "time": 26.31487753125,
          "velocity": 0.3937007874015748
        },
        {
          "duration": 0.15384600000000148,
          "durationTicks": 192,
          "midi": 36,
          "name": "C2",
          "ticks": 32841,
          "time": 26.31487753125,
          "velocity": 0.3937007874015748
        },
        {
          "duration": 0.15384599999999793,
          "durationTicks": 192,
          "midi": 54,
          "name": "F#3",
          "ticks": 33033,
          "time": 26.468723531250003,
          "velocity": 0.3937007874015748
        },
        {
          "duration": 0.15384599999999793,
          "durationTicks": 192,
          "midi": 42,
          "name": "F#2",
          "ticks": 33033,
          "time": 26.468723531250003,
          "velocity": 0.3937007874015748
        },
        {
          "duration": 0.3076919999999994,
          "durationTicks": 384,
          "midi": 53,
          "name": "F3",
          "ticks": 33225,
          "time": 26.62256953125,
          "velocity": 0.3937007874015748
        },
        {
          "duration": 0.15384600000000148,
          "durationTicks": 192,
          "midi": 72,
          "name": "C5",
          "ticks": 33225,
          "time": 26.62256953125,
          "velocity": 0.3937007874015748
        },
        {
          "duration": 0.15384600000000148,
          "durationTicks": 192,
          "midi": 72,
          "name": "C5",
          "ticks": 33225,
          "time": 26.62256953125,
          "velocity": 0.3937007874015748
        },
        {
          "duration": 0.3076919999999994,
          "durationTicks": 384,
          "midi": 41,
          "name": "F2",
          "ticks": 33225,
          "time": 26.62256953125,
          "velocity": 0.3937007874015748
        },
        {
          "duration": 0.15384599999999793,
          "durationTicks": 192,
          "midi": 71,
          "name": "B4",
          "ticks": 33417,
          "time": 26.776415531250002,
          "velocity": 0.3937007874015748
        },
        {
          "duration": 0.15384599999999793,
          "durationTicks": 192,
          "midi": 71,
          "name": "B4",
          "ticks": 33417,
          "time": 26.776415531250002,
          "velocity": 0.3937007874015748
        },
        {
          "duration": 0.15384600000000148,
          "durationTicks": 192,
          "midi": 72,
          "name": "C5",
          "ticks": 33609,
          "time": 26.93026153125,
          "velocity": 0.3937007874015748
        },
        {
          "duration": 0.15384600000000148,
          "durationTicks": 192,
          "midi": 72,
          "name": "C5",
          "ticks": 33609,
          "time": 26.93026153125,
          "velocity": 0.3937007874015748
        },
        {
          "duration": 0.15384600000000148,
          "durationTicks": 192,
          "midi": 35,
          "name": "B1",
          "ticks": 33609,
          "time": 26.93026153125,
          "velocity": 0.3937007874015748
        },
        {
          "duration": 0.15384600000000148,
          "durationTicks": 192,
          "midi": 47,
          "name": "B2",
          "ticks": 33609,
          "time": 26.93026153125,
          "velocity": 0.3937007874015748
        },
        {
          "duration": 0.6153839999999988,
          "durationTicks": 768,
          "midi": 75,
          "name": "D#5",
          "ticks": 33801,
          "time": 27.08410753125,
          "velocity": 0.3937007874015748
        },
        {
          "duration": 0.3076919999999994,
          "durationTicks": 384,
          "midi": 36,
          "name": "C2",
          "ticks": 33801,
          "time": 27.08410753125,
          "velocity": 0.3937007874015748
        },
        {
          "duration": 0.3076919999999994,
          "durationTicks": 384,
          "midi": 48,
          "name": "C3",
          "ticks": 33801,
          "time": 27.08410753125,
          "velocity": 0.3937007874015748
        },
        {
          "duration": 0.6153839999999988,
          "durationTicks": 768,
          "midi": 75,
          "name": "D#5",
          "ticks": 33801,
          "time": 27.08410753125,
          "velocity": 0.3937007874015748
        },
        {
          "duration": 0.15384600000000148,
          "durationTicks": 192,
          "midi": 39,
          "name": "D#2",
          "ticks": 34185,
          "time": 27.39179953125,
          "velocity": 0.3937007874015748
        },
        {
          "duration": 0.15384600000000148,
          "durationTicks": 192,
          "midi": 51,
          "name": "D#3",
          "ticks": 34185,
          "time": 27.39179953125,
          "velocity": 0.3937007874015748
        },
        {
          "duration": 0.4615380000000009,
          "durationTicks": 576,
          "midi": 48,
          "name": "C3",
          "ticks": 34377,
          "time": 27.545645531250003,
          "velocity": 0.3937007874015748
        },
        {
          "duration": 0.4615380000000009,
          "durationTicks": 576,
          "midi": 36,
          "name": "C2",
          "ticks": 34377,
          "time": 27.545645531250003,
          "velocity": 0.3937007874015748
        },
        {
          "duration": 0.30769200000000296,
          "durationTicks": 384,
          "midi": 72,
          "name": "C5",
          "ticks": 34569,
          "time": 27.69949153125,
          "velocity": 0.3937007874015748
        },
        {
          "duration": 0.30769200000000296,
          "durationTicks": 384,
          "midi": 72,
          "name": "C5",
          "ticks": 34569,
          "time": 27.69949153125,
          "velocity": 0.3937007874015748
        },
        {
          "duration": 0.15384599999999793,
          "durationTicks": 192,
          "midi": 71,
          "name": "B4",
          "ticks": 34953,
          "time": 28.007183531250003,
          "velocity": 0.3937007874015748
        },
        {
          "duration": 0.15384599999999793,
          "durationTicks": 192,
          "midi": 71,
          "name": "B4",
          "ticks": 34953,
          "time": 28.007183531250003,
          "velocity": 0.3937007874015748
        },
        {
          "duration": 0.15384599999999793,
          "durationTicks": 192,
          "midi": 35,
          "name": "B1",
          "ticks": 34953,
          "time": 28.007183531250003,
          "velocity": 0.3937007874015748
        },
        {
          "duration": 0.15384599999999793,
          "durationTicks": 192,
          "midi": 47,
          "name": "B2",
          "ticks": 34953,
          "time": 28.007183531250003,
          "velocity": 0.3937007874015748
        },
        {
          "duration": 0.15384600000000148,
          "durationTicks": 192,
          "midi": 34,
          "name": "A#1",
          "ticks": 35145,
          "time": 28.16102953125,
          "velocity": 0.3937007874015748
        },
        {
          "duration": 0.15384600000000148,
          "durationTicks": 192,
          "midi": 70,
          "name": "A#4",
          "ticks": 35145,
          "time": 28.16102953125,
          "velocity": 0.3937007874015748
        },
        {
          "duration": 0.15384600000000148,
          "durationTicks": 192,
          "midi": 70,
          "name": "A#4",
          "ticks": 35145,
          "time": 28.16102953125,
          "velocity": 0.3937007874015748
        },
        {
          "duration": 0.15384600000000148,
          "durationTicks": 192,
          "midi": 46,
          "name": "A#2",
          "ticks": 35145,
          "time": 28.16102953125,
          "velocity": 0.3937007874015748
        },
        {
          "duration": 0.3076919999999994,
          "durationTicks": 384,
          "midi": 69,
          "name": "A4",
          "ticks": 35337,
          "time": 28.314875531250003,
          "velocity": 0.3937007874015748
        },
        {
          "duration": 0.3076919999999994,
          "durationTicks": 384,
          "midi": 69,
          "name": "A4",
          "ticks": 35337,
          "time": 28.314875531250003,
          "velocity": 0.3937007874015748
        },
        {
          "duration": 0.46153799999999734,
          "durationTicks": 576,
          "midi": 45,
          "name": "A2",
          "ticks": 35337,
          "time": 28.314875531250003,
          "velocity": 0.3937007874015748
        },
        {
          "duration": 0.46153799999999734,
          "durationTicks": 576,
          "midi": 33,
          "name": "A1",
          "ticks": 35337,
          "time": 28.314875531250003,
          "velocity": 0.3937007874015748
        },
        {
          "duration": 0.15384599999999793,
          "durationTicks": 192,
          "midi": 70,
          "name": "A#4",
          "ticks": 35721,
          "time": 28.622567531250002,
          "velocity": 0.3937007874015748
        },
        {
          "duration": 0.15384599999999793,
          "durationTicks": 192,
          "midi": 70,
          "name": "A#4",
          "ticks": 35721,
          "time": 28.622567531250002,
          "velocity": 0.3937007874015748
        },
        {
          "duration": 0.4615380000000009,
          "durationTicks": 576,
          "midi": 42,
          "name": "F#2",
          "ticks": 35913,
          "time": 28.77641353125,
          "velocity": 0.3937007874015748
        },
        {
          "duration": 0.4615380000000009,
          "durationTicks": 576,
          "midi": 54,
          "name": "F#3",
          "ticks": 35913,
          "time": 28.77641353125,
          "velocity": 0.3937007874015748
        },
        {
          "duration": 1.3846140000000027,
          "durationTicks": 1728,
          "midi": 72,
          "name": "C5",
          "ticks": 35913,
          "time": 28.77641353125,
          "velocity": 0.3937007874015748
        },
        {
          "duration": 1.3846140000000027,
          "durationTicks": 1728,
          "midi": 72,
          "name": "C5",
          "ticks": 35913,
          "time": 28.77641353125,
          "velocity": 0.3937007874015748
        },
        {
          "duration": 0.3076919999999994,
          "durationTicks": 384,
          "midi": 36,
          "name": "C2",
          "ticks": 36489,
          "time": 29.23795153125,
          "velocity": 0.3937007874015748
        },
        {
          "duration": 0.3076919999999994,
          "durationTicks": 384,
          "midi": 48,
          "name": "C3",
          "ticks": 36489,
          "time": 29.23795153125,
          "velocity": 0.3937007874015748
        },
        {
          "duration": 0.4615380000000009,
          "durationTicks": 576,
          "midi": 39,
          "name": "D#2",
          "ticks": 36873,
          "time": 29.54564353125,
          "velocity": 0.3937007874015748
        },
        {
          "duration": 0.4615380000000009,
          "durationTicks": 576,
          "midi": 51,
          "name": "D#3",
          "ticks": 36873,
          "time": 29.54564353125,
          "velocity": 0.3937007874015748
        },
        {
          "duration": 0.15384600000000148,
          "durationTicks": 192,
          "midi": 57,
          "name": "A3",
          "ticks": 37449,
          "time": 30.00718153125,
          "velocity": 0.3937007874015748
        },
        {
          "duration": 0.15384600000000148,
          "durationTicks": 192,
          "midi": 45,
          "name": "A2",
          "ticks": 37449,
          "time": 30.00718153125,
          "velocity": 0.3937007874015748
        },
        {
          "duration": 0.4615380000000009,
          "durationTicks": 576,
          "midi": 45,
          "name": "A2",
          "ticks": 37833,
          "time": 30.31487353125,
          "velocity": 0.3937007874015748
        },
        {
          "duration": 0.4615380000000009,
          "durationTicks": 576,
          "midi": 33,
          "name": "A1",
          "ticks": 37833,
          "time": 30.31487353125,
          "velocity": 0.3937007874015748
        },
        {
          "duration": 0.4615380000000009,
          "durationTicks": 576,
          "midi": 57,
          "name": "A3",
          "ticks": 37833,
          "time": 30.31487353125,
          "velocity": 0.3937007874015748
        },
        {
          "duration": 0.4615380000000009,
          "durationTicks": 576,
          "midi": 72,
          "name": "C5",
          "ticks": 37833,
          "time": 30.31487353125,
          "velocity": 0.3937007874015748
        },
        {
          "duration": 0.4615380000000009,
          "durationTicks": 576,
          "midi": 48,
          "name": "C3",
          "ticks": 37833,
          "time": 30.31487353125,
          "velocity": 0.3937007874015748
        },
        {
          "duration": 0.4615380000000009,
          "durationTicks": 576,
          "midi": 60,
          "name": "C4",
          "ticks": 37833,
          "time": 30.31487353125,
          "velocity": 0.3937007874015748
        },
        {
          "duration": 0.4615380000000009,
          "durationTicks": 576,
          "midi": 69,
          "name": "A4",
          "ticks": 37833,
          "time": 30.31487353125,
          "velocity": 0.3937007874015748
        },
        {
          "duration": 0.3076919999999994,
          "durationTicks": 384,
          "midi": 41,
          "name": "F2",
          "ticks": 38409,
          "time": 30.77641153125,
          "velocity": 0.3937007874015748
        },
        {
          "duration": 2.4623372812500044,
          "durationTicks": 3073,
          "midi": 58,
          "name": "A#3",
          "ticks": 38409,
          "time": 30.77641153125,
          "velocity": 0.3937007874015748
        },
        {
          "duration": 0.3076919999999994,
          "durationTicks": 384,
          "midi": 77,
          "name": "F5",
          "ticks": 38409,
          "time": 30.77641153125,
          "velocity": 0.3937007874015748
        },
        {
          "duration": 0.23076899999999867,
          "durationTicks": 288,
          "midi": 70,
          "name": "A#4",
          "ticks": 38409,
          "time": 30.77641153125,
          "velocity": 0.3937007874015748
        },
        {
          "duration": 0.23076899999999867,
          "durationTicks": 288,
          "midi": 73,
          "name": "C#5",
          "ticks": 38409,
          "time": 30.77641153125,
          "velocity": 0.3937007874015748
        },
        {
          "duration": 2.4623372812500044,
          "durationTicks": 3073,
          "midi": 61,
          "name": "C#4",
          "ticks": 38409,
          "time": 30.77641153125,
          "velocity": 0.3937007874015748
        },
        {
          "duration": 0.23157028124999712,
          "durationTicks": 289,
          "midi": 69,
          "name": "A4",
          "ticks": 38665,
          "time": 30.981539531250004,
          "velocity": 0.3937007874015748
        },
        {
          "duration": 0.23157028124999712,
          "durationTicks": 289,
          "midi": 72,
          "name": "C5",
          "ticks": 38665,
          "time": 30.981539531250004,
          "velocity": 0.3937007874015748
        },
        {
          "duration": 0.3084932812500014,
          "durationTicks": 385,
          "midi": 41,
          "name": "F2",
          "ticks": 38793,
          "time": 31.08410353125,
          "velocity": 0.3937007874015748
        },
        {
          "duration": 0.23157028125000068,
          "durationTicks": 289,
          "midi": 73,
          "name": "C#5",
          "ticks": 38921,
          "time": 31.186667531250002,
          "velocity": 0.3937007874015748
        },
        {
          "duration": 0.23157028125000068,
          "durationTicks": 289,
          "midi": 70,
          "name": "A#4",
          "ticks": 38921,
          "time": 31.186667531250002,
          "velocity": 0.3937007874015748
        },
        {
          "duration": 0.3076919999999994,
          "durationTicks": 384,
          "midi": 41,
          "name": "F2",
          "ticks": 39178,
          "time": 31.392596812500003,
          "velocity": 0.3937007874015748
        },
        {
          "duration": 0.3076919999999994,
          "durationTicks": 384,
          "midi": 75,
          "name": "D#5",
          "ticks": 39178,
          "time": 31.392596812500003,
          "velocity": 0.3937007874015748
        },
        {
          "duration": 0.3076919999999994,
          "durationTicks": 384,
          "midi": 72,
          "name": "C5",
          "ticks": 39178,
          "time": 31.392596812500003,
          "velocity": 0.3937007874015748
        },
        {
          "duration": 0.3076919999999994,
          "durationTicks": 384,
          "midi": 41,
          "name": "F2",
          "ticks": 39562,
          "time": 31.700288812500002,
          "velocity": 0.3937007874015748
        },
        {
          "duration": 0.3076919999999994,
          "durationTicks": 384,
          "midi": 70,
          "name": "A#4",
          "ticks": 39562,
          "time": 31.700288812500002,
          "velocity": 0.3937007874015748
        },
        {
          "duration": 0.3076919999999994,
          "durationTicks": 384,
          "midi": 73,
          "name": "C#5",
          "ticks": 39562,
          "time": 31.700288812500002,
          "velocity": 0.3937007874015748
        },
        {
          "duration": 0.30769200000000296,
          "durationTicks": 384,
          "midi": 42,
          "name": "F#2",
          "ticks": 39946,
          "time": 32.0079808125,
          "velocity": 0.3937007874015748
        },
        {
          "duration": 0.30769200000000296,
          "durationTicks": 384,
          "midi": 69,
          "name": "A4",
          "ticks": 39946,
          "time": 32.0079808125,
          "velocity": 0.3937007874015748
        },
        {
          "duration": 0.30769200000000296,
          "durationTicks": 384,
          "midi": 78,
          "name": "F#5",
          "ticks": 39946,
          "time": 32.0079808125,
          "velocity": 0.3937007874015748
        },
        {
          "duration": 0.30769200000000296,
          "durationTicks": 384,
          "midi": 72,
          "name": "C5",
          "ticks": 39946,
          "time": 32.0079808125,
          "velocity": 0.3937007874015748
        },
        {
          "duration": 0.30769199999999586,
          "durationTicks": 384,
          "midi": 42,
          "name": "F#2",
          "ticks": 40330,
          "time": 32.315672812500004,
          "velocity": 0.3937007874015748
        },
        {
          "duration": 0.9230760000000018,
          "durationTicks": 1152,
          "midi": 73,
          "name": "C#5",
          "ticks": 40330,
          "time": 32.315672812500004,
          "velocity": 0.3937007874015748
        },
        {
          "duration": 0.9230760000000018,
          "durationTicks": 1152,
          "midi": 70,
          "name": "A#4",
          "ticks": 40330,
          "time": 32.315672812500004,
          "velocity": 0.3937007874015748
        },
        {
          "duration": 0.30769200000000296,
          "durationTicks": 384,
          "midi": 42,
          "name": "F#2",
          "ticks": 40714,
          "time": 32.6233648125,
          "velocity": 0.3937007874015748
        },
        {
          "duration": 0.30769200000000296,
          "durationTicks": 384,
          "midi": 42,
          "name": "F#2",
          "ticks": 41098,
          "time": 32.9310568125,
          "velocity": 0.3937007874015748
        },
        {
          "duration": 0.30769199999999586,
          "durationTicks": 384,
          "midi": 79,
          "name": "G5",
          "ticks": 41482,
          "time": 33.238748812500006,
          "velocity": 0.3937007874015748
        },
        {
          "duration": 1.231569281249996,
          "durationTicks": 1537,
          "midi": 58,
          "name": "A#3",
          "ticks": 41482,
          "time": 33.238748812500006,
          "velocity": 0.3937007874015748
        },
        {
          "duration": 0.30769199999999586,
          "durationTicks": 384,
          "midi": 43,
          "name": "G2",
          "ticks": 41482,
          "time": 33.238748812500006,
          "velocity": 0.3937007874015748
        },
        {
          "duration": 0.23076899999999512,
          "durationTicks": 288,
          "midi": 73,
          "name": "C#5",
          "ticks": 41482,
          "time": 33.238748812500006,
          "velocity": 0.3937007874015748
        },
        {
          "duration": 1.231569281249996,
          "durationTicks": 1537,
          "midi": 61,
          "name": "C#4",
          "ticks": 41482,
          "time": 33.238748812500006,
          "velocity": 0.3937007874015748
        },
        {
          "duration": 0.23076899999999512,
          "durationTicks": 288,
          "midi": 70,
          "name": "A#4",
          "ticks": 41482,
          "time": 33.238748812500006,
          "velocity": 0.3937007874015748
        },
        {
          "duration": 0.23157028125000068,
          "durationTicks": 289,
          "midi": 69,
          "name": "A4",
          "ticks": 41738,
          "time": 33.4438768125,
          "velocity": 0.3937007874015748
        },
        {
          "duration": 0.23157028125000068,
          "durationTicks": 289,
          "midi": 72,
          "name": "C5",
          "ticks": 41738,
          "time": 33.4438768125,
          "velocity": 0.3937007874015748
        },
        {
          "duration": 0.3084932812500014,
          "durationTicks": 385,
          "midi": 43,
          "name": "G2",
          "ticks": 41866,
          "time": 33.5464408125,
          "velocity": 0.3937007874015748
        },
        {
          "duration": 0.23157028125000068,
          "durationTicks": 289,
          "midi": 73,
          "name": "C#5",
          "ticks": 41994,
          "time": 33.6490048125,
          "velocity": 0.3937007874015748
        },
        {
          "duration": 0.23157028125000068,
          "durationTicks": 289,
          "midi": 70,
          "name": "A#4",
          "ticks": 41994,
          "time": 33.6490048125,
          "velocity": 0.3937007874015748
        },
        {
          "duration": 0.23076899999999512,
          "durationTicks": 288,
          "midi": 72,
          "name": "C5",
          "ticks": 42251,
          "time": 33.85493409375,
          "velocity": 0.3937007874015748
        },
        {
          "duration": 0.23076899999999512,
          "durationTicks": 288,
          "midi": 75,
          "name": "D#5",
          "ticks": 42251,
          "time": 33.85493409375,
          "velocity": 0.3937007874015748
        },
        {
          "duration": 0.30769199999999586,
          "durationTicks": 384,
          "midi": 43,
          "name": "G2",
          "ticks": 42251,
          "time": 33.85493409375,
          "velocity": 0.3937007874015748
        },
        {
          "duration": 0.23076900000000222,
          "durationTicks": 288,
          "midi": 73,
          "name": "C#5",
          "ticks": 42539,
          "time": 34.08570309375,
          "velocity": 0.3937007874015748
        },
        {
          "duration": 0.23076900000000222,
          "durationTicks": 288,
          "midi": 70,
          "name": "A#4",
          "ticks": 42539,
          "time": 34.08570309375,
          "velocity": 0.3937007874015748
        },
        {
          "duration": 0.30769200000000296,
          "durationTicks": 384,
          "midi": 43,
          "name": "G2",
          "ticks": 42635,
          "time": 34.16262609375,
          "velocity": 0.3937007874015748
        },
        {
          "duration": 0.15384600000000148,
          "durationTicks": 192,
          "midi": 72,
          "name": "C5",
          "ticks": 42827,
          "time": 34.31647209375,
          "velocity": 0.3937007874015748
        },
        {
          "duration": 0.15384600000000148,
          "durationTicks": 192,
          "midi": 69,
          "name": "A4",
          "ticks": 42827,
          "time": 34.31647209375,
          "velocity": 0.3937007874015748
        },
        {
          "duration": 1.2307679999999976,
          "durationTicks": 1536,
          "midi": 70,
          "name": "A#4",
          "ticks": 43019,
          "time": 34.47031809375,
          "velocity": 0.3937007874015748
        },
        {
          "duration": 0.30769199999999586,
          "durationTicks": 384,
          "midi": 44,
          "name": "G#2",
          "ticks": 43019,
          "time": 34.47031809375,
          "velocity": 0.3937007874015748
        },
        {
          "duration": 0.30769199999999586,
          "durationTicks": 384,
          "midi": 80,
          "name": "G#5",
          "ticks": 43019,
          "time": 34.47031809375,
          "velocity": 0.3937007874015748
        },
        {
          "duration": 1.2307679999999976,
          "durationTicks": 1536,
          "midi": 67,
          "name": "G4",
          "ticks": 43019,
          "time": 34.47031809375,
          "velocity": 0.3937007874015748
        },
        {
          "duration": 1.2307679999999976,
          "durationTicks": 1536,
          "midi": 56,
          "name": "G#3",
          "ticks": 43019,
          "time": 34.47031809375,
          "velocity": 0.3937007874015748
        },
        {
          "duration": 0.30769200000000296,
          "durationTicks": 384,
          "midi": 44,
          "name": "G#2",
          "ticks": 43403,
          "time": 34.77801009375,
          "velocity": 0.3937007874015748
        },
        {
          "duration": 0.30769200000000296,
          "durationTicks": 384,
          "midi": 44,
          "name": "G#2",
          "ticks": 43787,
          "time": 35.08570209375,
          "velocity": 0.3937007874015748
        },
        {
          "duration": 0.30769199999999586,
          "durationTicks": 384,
          "midi": 44,
          "name": "G#2",
          "ticks": 44171,
          "time": 35.393394093750004,
          "velocity": 0.3937007874015748
        },
        {
          "duration": 0.23076900000000222,
          "durationTicks": 288,
          "midi": 73,
          "name": "C#5",
          "ticks": 44555,
          "time": 35.70108609375,
          "velocity": 0.3937007874015748
        },
        {
          "duration": 0.30769200000000296,
          "durationTicks": 384,
          "midi": 77,
          "name": "F5",
          "ticks": 44555,
          "time": 35.70108609375,
          "velocity": 0.3937007874015748
        },
        {
          "duration": 2.462337281250001,
          "durationTicks": 3073,
          "midi": 61,
          "name": "C#4",
          "ticks": 44555,
          "time": 35.70108609375,
          "velocity": 0.3937007874015748
        },
        {
          "duration": 0.23076900000000222,
          "durationTicks": 288,
          "midi": 70,
          "name": "A#4",
          "ticks": 44555,
          "time": 35.70108609375,
          "velocity": 0.3937007874015748
        },
        {
          "duration": 2.462337281250001,
          "durationTicks": 3073,
          "midi": 58,
          "name": "A#3",
          "ticks": 44555,
          "time": 35.70108609375,
          "velocity": 0.3937007874015748
        },
        {
          "duration": 0.30769200000000296,
          "durationTicks": 384,
          "midi": 41,
          "name": "F2",
          "ticks": 44555,
          "time": 35.70108609375,
          "velocity": 0.3937007874015748
        },
        {
          "duration": 0.23157028125000068,
          "durationTicks": 289,
          "midi": 69,
          "name": "A4",
          "ticks": 44811,
          "time": 35.90621409375,
          "velocity": 0.3937007874015748
        },
        {
          "duration": 0.23157028125000068,
          "durationTicks": 289,
          "midi": 72,
          "name": "C5",
          "ticks": 44811,
          "time": 35.90621409375,
          "velocity": 0.3937007874015748
        },
        {
          "duration": 0.3084932812500014,
          "durationTicks": 385,
          "midi": 41,
          "name": "F2",
          "ticks": 44939,
          "time": 36.00877809375,
          "velocity": 0.3937007874015748
        },
        {
          "duration": 0.23157028125000068,
          "durationTicks": 289,
          "midi": 70,
          "name": "A#4",
          "ticks": 45067,
          "time": 36.111342093750004,
          "velocity": 0.3937007874015748
        },
        {
          "duration": 0.23157028125000068,
          "durationTicks": 289,
          "midi": 73,
          "name": "C#5",
          "ticks": 45067,
          "time": 36.111342093750004,
          "velocity": 0.3937007874015748
        },
        {
          "duration": 0.30769199999999586,
          "durationTicks": 384,
          "midi": 41,
          "name": "F2",
          "ticks": 45324,
          "time": 36.317271375000004,
          "velocity": 0.3937007874015748
        },
        {
          "duration": 0.30769199999999586,
          "durationTicks": 384,
          "midi": 72,
          "name": "C5",
          "ticks": 45324,
          "time": 36.317271375000004,
          "velocity": 0.3937007874015748
        },
        {
          "duration": 0.30769199999999586,
          "durationTicks": 384,
          "midi": 75,
          "name": "D#5",
          "ticks": 45324,
          "time": 36.317271375000004,
          "velocity": 0.3937007874015748
        },
        {
          "duration": 0.30769200000000296,
          "durationTicks": 384,
          "midi": 41,
          "name": "F2",
          "ticks": 45708,
          "time": 36.624963375,
          "velocity": 0.3937007874015748
        },
        {
          "duration": 0.30769200000000296,
          "durationTicks": 384,
          "midi": 70,
          "name": "A#4",
          "ticks": 45708,
          "time": 36.624963375,
          "velocity": 0.3937007874015748
        },
        {
          "duration": 0.30769200000000296,
          "durationTicks": 384,
          "midi": 73,
          "name": "C#5",
          "ticks": 45708,
          "time": 36.624963375,
          "velocity": 0.3937007874015748
        },
        {
          "duration": 0.30769200000000296,
          "durationTicks": 384,
          "midi": 72,
          "name": "C5",
          "ticks": 46092,
          "time": 36.932655375,
          "velocity": 0.3937007874015748
        },
        {
          "duration": 0.30769200000000296,
          "durationTicks": 384,
          "midi": 42,
          "name": "F#2",
          "ticks": 46092,
          "time": 36.932655375,
          "velocity": 0.3937007874015748
        },
        {
          "duration": 0.30769200000000296,
          "durationTicks": 384,
          "midi": 78,
          "name": "F#5",
          "ticks": 46092,
          "time": 36.932655375,
          "velocity": 0.3937007874015748
        },
        {
          "duration": 0.30769200000000296,
          "durationTicks": 384,
          "midi": 69,
          "name": "A4",
          "ticks": 46092,
          "time": 36.932655375,
          "velocity": 0.3937007874015748
        },
        {
          "duration": 0.9230759999999947,
          "durationTicks": 1152,
          "midi": 73,
          "name": "C#5",
          "ticks": 46476,
          "time": 37.240347375000006,
          "velocity": 0.3937007874015748
        },
        {
          "duration": 0.9230759999999947,
          "durationTicks": 1152,
          "midi": 70,
          "name": "A#4",
          "ticks": 46476,
          "time": 37.240347375000006,
          "velocity": 0.3937007874015748
        },
        {
          "duration": 0.30769199999999586,
          "durationTicks": 384,
          "midi": 42,
          "name": "F#2",
          "ticks": 46476,
          "time": 37.240347375000006,
          "velocity": 0.3937007874015748
        },
        {
          "duration": 0.30769200000000296,
          "durationTicks": 384,
          "midi": 42,
          "name": "F#2",
          "ticks": 46860,
          "time": 37.548039375,
          "velocity": 0.3937007874015748
        },
        {
          "duration": 0.30769199999999586,
          "durationTicks": 384,
          "midi": 42,
          "name": "F#2",
          "ticks": 47244,
          "time": 37.855731375000005,
          "velocity": 0.3937007874015748
        },
        {
          "duration": 0.46153800000000444,
          "durationTicks": 576,
          "midi": 73,
          "name": "C#5",
          "ticks": 47628,
          "time": 38.163423375,
          "velocity": 0.3937007874015748
        },
        {
          "duration": 0.46153800000000444,
          "durationTicks": 576,
          "midi": 70,
          "name": "A#4",
          "ticks": 47628,
          "time": 38.163423375,
          "velocity": 0.3937007874015748
        },
        {
          "duration": 1.2307680000000047,
          "durationTicks": 1536,
          "midi": 61,
          "name": "C#4",
          "ticks": 47628,
          "time": 38.163423375,
          "velocity": 0.3937007874015748
        },
        {
          "duration": 1.2307680000000047,
          "durationTicks": 1536,
          "midi": 58,
          "name": "A#3",
          "ticks": 47628,
          "time": 38.163423375,
          "velocity": 0.3937007874015748
        },
        {
          "duration": 0.6153839999999988,
          "durationTicks": 768,
          "midi": 42,
          "name": "F#2",
          "ticks": 47628,
          "time": 38.163423375,
          "velocity": 0.3937007874015748
        },
        {
          "duration": 0.6153839999999988,
          "durationTicks": 768,
          "midi": 78,
          "name": "F#5",
          "ticks": 47628,
          "time": 38.163423375,
          "velocity": 0.3937007874015748
        },
        {
          "duration": 0.46153799999999734,
          "durationTicks": 576,
          "midi": 72,
          "name": "C5",
          "ticks": 48204,
          "time": 38.624961375000005,
          "velocity": 0.3937007874015748
        },
        {
          "duration": 0.46153799999999734,
          "durationTicks": 576,
          "midi": 75,
          "name": "D#5",
          "ticks": 48204,
          "time": 38.624961375000005,
          "velocity": 0.3937007874015748
        },
        {
          "duration": 0.6153840000000059,
          "durationTicks": 768,
          "midi": 80,
          "name": "G#5",
          "ticks": 48396,
          "time": 38.778807375,
          "velocity": 0.3937007874015748
        },
        {
          "duration": 0.6153840000000059,
          "durationTicks": 768,
          "midi": 44,
          "name": "G#2",
          "ticks": 48396,
          "time": 38.778807375,
          "velocity": 0.3937007874015748
        },
        {
          "duration": 0.15384600000000148,
          "durationTicks": 192,
          "midi": 73,
          "name": "C#5",
          "ticks": 48780,
          "time": 39.086499375,
          "velocity": 0.3937007874015748
        },
        {
          "duration": 0.15384600000000148,
          "durationTicks": 192,
          "midi": 70,
          "name": "A#4",
          "ticks": 48780,
          "time": 39.086499375,
          "velocity": 0.3937007874015748
        },
        {
          "duration": 0.15384600000000148,
          "durationTicks": 192,
          "midi": 72,
          "name": "C5",
          "ticks": 48972,
          "time": 39.240345375000004,
          "velocity": 0.3937007874015748
        },
        {
          "duration": 0.15384600000000148,
          "durationTicks": 192,
          "midi": 75,
          "name": "D#5",
          "ticks": 48972,
          "time": 39.240345375000004,
          "velocity": 0.3937007874015748
        },
        {
          "duration": 0.9230759999999947,
          "durationTicks": 1152,
          "midi": 82,
          "name": "A#5",
          "ticks": 49164,
          "time": 39.394191375000005,
          "velocity": 0.3937007874015748
        },
        {
          "duration": 0.9230759999999947,
          "durationTicks": 1152,
          "midi": 77,
          "name": "F5",
          "ticks": 49164,
          "time": 39.394191375000005,
          "velocity": 0.3937007874015748
        },
        {
          "duration": 1.2307679999999976,
          "durationTicks": 1536,
          "midi": 46,
          "name": "A#2",
          "ticks": 49164,
          "time": 39.394191375000005,
          "velocity": 0.3937007874015748
        },
        {
          "duration": 1.2307679999999976,
          "durationTicks": 1536,
          "midi": 58,
          "name": "A#3",
          "ticks": 49164,
          "time": 39.394191375000005,
          "velocity": 0.3937007874015748
        },
        {
          "duration": 0.9230759999999947,
          "durationTicks": 1152,
          "midi": 73,
          "name": "C#5",
          "ticks": 49164,
          "time": 39.394191375000005,
          "velocity": 0.3937007874015748
        },
        {
          "duration": 0.15384600000000148,
          "durationTicks": 192,
          "midi": 70,
          "name": "A#4",
          "ticks": 50316,
          "time": 40.317267375,
          "velocity": 0.3937007874015748
        },
        {
          "duration": 0.15384600000000148,
          "durationTicks": 192,
          "midi": 73,
          "name": "C#5",
          "ticks": 50316,
          "time": 40.317267375,
          "velocity": 0.3937007874015748
        },
        {
          "duration": 0.15384600000000148,
          "durationTicks": 192,
          "midi": 72,
          "name": "C5",
          "ticks": 50508,
          "time": 40.471113375,
          "velocity": 0.3937007874015748
        },
        {
          "duration": 0.15384600000000148,
          "durationTicks": 192,
          "midi": 75,
          "name": "D#5",
          "ticks": 50508,
          "time": 40.471113375,
          "velocity": 0.3937007874015748
        },
        {
          "duration": 0.30769200000000296,
          "durationTicks": 384,
          "midi": 53,
          "name": "F3",
          "ticks": 50700,
          "time": 40.624959375,
          "velocity": 0.3937007874015748
        },
        {
          "duration": 0.30769200000000296,
          "durationTicks": 384,
          "midi": 73,
          "name": "C#5",
          "ticks": 50700,
          "time": 40.624959375,
          "velocity": 0.3937007874015748
        },
        {
          "duration": 0.30769200000000296,
          "durationTicks": 384,
          "midi": 60,
          "name": "C4",
          "ticks": 50700,
          "time": 40.624959375,
          "velocity": 0.3937007874015748
        },
        {
          "duration": 0.30769200000000296,
          "durationTicks": 384,
          "midi": 77,
          "name": "F5",
          "ticks": 50700,
          "time": 40.624959375,
          "velocity": 0.3937007874015748
        },
        {
          "duration": 0.30769200000000296,
          "durationTicks": 384,
          "midi": 56,
          "name": "G#3",
          "ticks": 50700,
          "time": 40.624959375,
          "velocity": 0.3937007874015748
        },
        {
          "duration": 0.30769200000000296,
          "durationTicks": 384,
          "midi": 41,
          "name": "F2",
          "ticks": 50700,
          "time": 40.624959375,
          "velocity": 0.3937007874015748
        },
        {
          "duration": 0.30769199999999586,
          "durationTicks": 384,
          "midi": 80,
          "name": "G#5",
          "ticks": 51084,
          "time": 40.932651375000006,
          "velocity": 0.3937007874015748
        },
        {
          "duration": 0.30769199999999586,
          "durationTicks": 384,
          "midi": 77,
          "name": "F5",
          "ticks": 51084,
          "time": 40.932651375000006,
          "velocity": 0.3937007874015748
        },
        {
          "duration": 0.30769200000000296,
          "durationTicks": 384,
          "midi": 79,
          "name": "G5",
          "ticks": 51468,
          "time": 41.240343375,
          "velocity": 0.3937007874015748
        },
        {
          "duration": 0.30769200000000296,
          "durationTicks": 384,
          "midi": 51,
          "name": "D#3",
          "ticks": 51468,
          "time": 41.240343375,
          "velocity": 0.3937007874015748
        },
        {
          "duration": 0.30769200000000296,
          "durationTicks": 384,
          "midi": 60,
          "name": "C4",
          "ticks": 51468,
          "time": 41.240343375,
          "velocity": 0.3937007874015748
        },
        {
          "duration": 0.30769200000000296,
          "durationTicks": 384,
          "midi": 75,
          "name": "D#5",
          "ticks": 51468,
          "time": 41.240343375,
          "velocity": 0.3937007874015748
        },
        {
          "duration": 0.30769200000000296,
          "durationTicks": 384,
          "midi": 39,
          "name": "D#2",
          "ticks": 51468,
          "time": 41.240343375,
          "velocity": 0.3937007874015748
        },
        {
          "duration": 0.30769200000000296,
          "durationTicks": 384,
          "midi": 56,
          "name": "G#3",
          "ticks": 51468,
          "time": 41.240343375,
          "velocity": 0.3937007874015748
        },
        {
          "duration": 0.30769199999999586,
          "durationTicks": 384,
          "midi": 75,
          "name": "D#5",
          "ticks": 51852,
          "time": 41.548035375000005,
          "velocity": 0.3937007874015748
        },
        {
          "duration": 0.30769199999999586,
          "durationTicks": 384,
          "midi": 72,
          "name": "C5",
          "ticks": 51852,
          "time": 41.548035375000005,
          "velocity": 0.3937007874015748
        },
        {
          "duration": 0.30769200000000296,
          "durationTicks": 384,
          "midi": 34,
          "name": "A#1",
          "ticks": 52236,
          "time": 41.855727375,
          "velocity": 0.3937007874015748
        },
        {
          "duration": 0.30769200000000296,
          "durationTicks": 384,
          "midi": 58,
          "name": "A#3",
          "ticks": 52236,
          "time": 41.855727375,
          "velocity": 0.3937007874015748
        },
        {
          "duration": 0.6153839999999988,
          "durationTicks": 768,
          "midi": 73,
          "name": "C#5",
          "ticks": 52236,
          "time": 41.855727375,
          "velocity": 0.3937007874015748
        },
        {
          "duration": 0.30769200000000296,
          "durationTicks": 384,
          "midi": 49,
          "name": "C#3",
          "ticks": 52236,
          "time": 41.855727375,
          "velocity": 0.3937007874015748
        },
        {
          "duration": 0.30769200000000296,
          "durationTicks": 384,
          "midi": 77,
          "name": "F5",
          "ticks": 52236,
          "time": 41.855727375,
          "velocity": 0.3937007874015748
        },
        {
          "duration": 0.30769200000000296,
          "durationTicks": 384,
          "midi": 46,
          "name": "A#2",
          "ticks": 52236,
          "time": 41.855727375,
          "velocity": 0.3937007874015748
        },
        {
          "duration": 0.30769199999999586,
          "durationTicks": 384,
          "midi": 70,
          "name": "A#4",
          "ticks": 52620,
          "time": 42.163419375000004,
          "velocity": 0.3937007874015748
        },
        {
          "duration": 0.30769200000000296,
          "durationTicks": 384,
          "midi": 53,
          "name": "F3",
          "ticks": 53004,
          "time": 42.471111375,
          "velocity": 0.3937007874015748
        },
        {
          "duration": 0.30769200000000296,
          "durationTicks": 384,
          "midi": 61,
          "name": "C#4",
          "ticks": 53004,
          "time": 42.471111375,
          "velocity": 0.3937007874015748
        },
        {
          "duration": 0.30769200000000296,
          "durationTicks": 384,
          "midi": 49,
          "name": "C#3",
          "ticks": 53004,
          "time": 42.471111375,
          "velocity": 0.3937007874015748
        },
        {
          "duration": 0.30769200000000296,
          "durationTicks": 384,
          "midi": 70,
          "name": "A#4",
          "ticks": 53004,
          "time": 42.471111375,
          "velocity": 0.3937007874015748
        },
        {
          "duration": 0.30769200000000296,
          "durationTicks": 384,
          "midi": 37,
          "name": "C#2",
          "ticks": 53004,
          "time": 42.471111375,
          "velocity": 0.3937007874015748
        },
        {
          "duration": 0.30769200000000296,
          "durationTicks": 384,
          "midi": 73,
          "name": "C#5",
          "ticks": 53004,
          "time": 42.471111375,
          "velocity": 0.3937007874015748
        },
        {
          "duration": 0.15384599999999438,
          "durationTicks": 192,
          "midi": 43,
          "name": "G2",
          "ticks": 53772,
          "time": 43.086495375000005,
          "velocity": 0.3937007874015748
        },
        {
          "duration": 0.15384599999999438,
          "durationTicks": 192,
          "midi": 48,
          "name": "C3",
          "ticks": 53772,
          "time": 43.086495375000005,
          "velocity": 0.3937007874015748
        },
        {
          "duration": 0.15384599999999438,
          "durationTicks": 192,
          "midi": 48,
          "name": "C3",
          "ticks": 53772,
          "time": 43.086495375000005,
          "velocity": 0.3937007874015748
        },
        {
          "duration": 0.15384600000000148,
          "durationTicks": 192,
          "midi": 48,
          "name": "C3",
          "ticks": 53964,
          "time": 43.240341375,
          "velocity": 0.3937007874015748
        },
        {
          "duration": 0.15384600000000148,
          "durationTicks": 192,
          "midi": 48,
          "name": "C3",
          "ticks": 53964,
          "time": 43.240341375,
          "velocity": 0.3937007874015748
        },
        {
          "duration": 0.15384600000000148,
          "durationTicks": 192,
          "midi": 43,
          "name": "G2",
          "ticks": 53964,
          "time": 43.240341375,
          "velocity": 0.3937007874015748
        },
        {
          "duration": 0.15384600000000148,
          "durationTicks": 192,
          "midi": 46,
          "name": "A#2",
          "ticks": 54156,
          "time": 43.394187375,
          "velocity": 0.3937007874015748
        },
        {
          "duration": 0.15384600000000148,
          "durationTicks": 192,
          "midi": 46,
          "name": "A#2",
          "ticks": 54156,
          "time": 43.394187375,
          "velocity": 0.3937007874015748
        },
        {
          "duration": 0.15384600000000148,
          "durationTicks": 192,
          "midi": 43,
          "name": "G2",
          "ticks": 54156,
          "time": 43.394187375,
          "velocity": 0.3937007874015748
        },
        {
          "duration": 0.30769200000000296,
          "durationTicks": 384,
          "midi": 48,
          "name": "C3",
          "ticks": 54348,
          "time": 43.548033375,
          "velocity": 0.3937007874015748
        },
        {
          "duration": 0.30769200000000296,
          "durationTicks": 384,
          "midi": 48,
          "name": "C3",
          "ticks": 54348,
          "time": 43.548033375,
          "velocity": 0.3937007874015748
        },
        {
          "duration": 0.30769200000000296,
          "durationTicks": 384,
          "midi": 43,
          "name": "G2",
          "ticks": 54348,
          "time": 43.548033375,
          "velocity": 0.3937007874015748
        },
        {
          "duration": 0.15384599999999438,
          "durationTicks": 192,
          "midi": 43,
          "name": "G2",
          "ticks": 54732,
          "time": 43.855725375000006,
          "velocity": 0.3937007874015748
        },
        {
          "duration": 0.15384599999999438,
          "durationTicks": 192,
          "midi": 55,
          "name": "G3",
          "ticks": 54732,
          "time": 43.855725375000006,
          "velocity": 0.3937007874015748
        },
        {
          "duration": 0.30769200000000296,
          "durationTicks": 384,
          "midi": 48,
          "name": "C3",
          "ticks": 54924,
          "time": 44.009571375,
          "velocity": 0.3937007874015748
        },
        {
          "duration": 0.30769200000000296,
          "durationTicks": 384,
          "midi": 48,
          "name": "C3",
          "ticks": 54924,
          "time": 44.009571375,
          "velocity": 0.3937007874015748
        },
        {
          "duration": 0.30769200000000296,
          "durationTicks": 384,
          "midi": 43,
          "name": "G2",
          "ticks": 54924,
          "time": 44.009571375,
          "velocity": 0.3937007874015748
        },
        {
          "duration": 1.2307679999999976,
          "durationTicks": 1536,
          "midi": 67,
          "name": "G4",
          "ticks": 55308,
          "time": 44.317263375,
          "velocity": 0.3937007874015748
        },
        {
          "duration": 1.2307679999999976,
          "durationTicks": 1536,
          "midi": 79,
          "name": "G5",
          "ticks": 55308,
          "time": 44.317263375,
          "velocity": 0.3937007874015748
        },
        {
          "duration": 1.2307679999999976,
          "durationTicks": 1536,
          "midi": 79,
          "name": "G5",
          "ticks": 55308,
          "time": 44.317263375,
          "velocity": 0.3937007874015748
        },
        {
          "duration": 1.2307679999999976,
          "durationTicks": 1536,
          "midi": 67,
          "name": "G4",
          "ticks": 55308,
          "time": 44.317263375,
          "velocity": 0.3937007874015748
        },
        {
          "duration": 1.2307679999999976,
          "durationTicks": 1536,
          "midi": 67,
          "name": "G4",
          "ticks": 55308,
          "time": 44.317263375,
          "velocity": 0.3937007874015748
        },
        {
          "duration": 1.2307679999999976,
          "durationTicks": 1536,
          "midi": 55,
          "name": "G3",
          "ticks": 55308,
          "time": 44.317263375,
          "velocity": 0.3937007874015748
        },
        {
          "duration": 1.2307679999999976,
          "durationTicks": 1536,
          "midi": 43,
          "name": "G2",
          "ticks": 55308,
          "time": 44.317263375,
          "velocity": 0.3937007874015748
        },
        {
          "duration": 0.30769200000000296,
          "durationTicks": 384,
          "midi": 41,
          "name": "F2",
          "ticks": 56844,
          "time": 45.548031375,
          "velocity": 0.3937007874015748
        },
        {
          "duration": 0.15384600000000148,
          "durationTicks": 192,
          "midi": 79,
          "name": "G5",
          "ticks": 56844,
          "time": 45.548031375,
          "velocity": 0.3937007874015748
        },
        {
          "duration": 0.15384600000000148,
          "durationTicks": 192,
          "midi": 67,
          "name": "G4",
          "ticks": 56844,
          "time": 45.548031375,
          "velocity": 0.3937007874015748
        },
        {
          "duration": 0.30769200000000296,
          "durationTicks": 384,
          "midi": 53,
          "name": "F3",
          "ticks": 56844,
          "time": 45.548031375,
          "velocity": 0.3937007874015748
        },
        {
          "duration": 0.15384600000000148,
          "durationTicks": 192,
          "midi": 67,
          "name": "G4",
          "ticks": 56844,
          "time": 45.548031375,
          "velocity": 0.3937007874015748
        },
        {
          "duration": 0.15384600000000148,
          "durationTicks": 192,
          "midi": 67,
          "name": "G4",
          "ticks": 56844,
          "time": 45.548031375,
          "velocity": 0.3937007874015748
        },
        {
          "duration": 0.15384600000000148,
          "durationTicks": 192,
          "midi": 79,
          "name": "G5",
          "ticks": 56844,
          "time": 45.548031375,
          "velocity": 0.3937007874015748
        },
        {
          "duration": 2.1538439999999994,
          "durationTicks": 2688,
          "midi": 77,
          "name": "F5",
          "ticks": 57228,
          "time": 45.855723375000004,
          "velocity": 0.3937007874015748
        },
        {
          "duration": 2.1538439999999994,
          "durationTicks": 2688,
          "midi": 77,
          "name": "F5",
          "ticks": 57228,
          "time": 45.855723375000004,
          "velocity": 0.3937007874015748
        },
        {
          "duration": 2.1538439999999994,
          "durationTicks": 2688,
          "midi": 65,
          "name": "F4",
          "ticks": 57228,
          "time": 45.855723375000004,
          "velocity": 0.3937007874015748
        },
        {
          "duration": 2.1538439999999994,
          "durationTicks": 2688,
          "midi": 65,
          "name": "F4",
          "ticks": 57228,
          "time": 45.855723375000004,
          "velocity": 0.3937007874015748
        },
        {
          "duration": 0.15384600000000148,
          "durationTicks": 192,
          "midi": 41,
          "name": "F2",
          "ticks": 57228,
          "time": 45.855723375000004,
          "velocity": 0.3937007874015748
        },
        {
          "duration": 2.1538439999999994,
          "durationTicks": 2688,
          "midi": 65,
          "name": "F4",
          "ticks": 57228,
          "time": 45.855723375000004,
          "velocity": 0.3937007874015748
        },
        {
          "duration": 0.15384600000000148,
          "durationTicks": 192,
          "midi": 53,
          "name": "F3",
          "ticks": 57228,
          "time": 45.855723375000004,
          "velocity": 0.3937007874015748
        },
        {
          "duration": 0.30769199999999586,
          "durationTicks": 384,
          "midi": 56,
          "name": "G#3",
          "ticks": 57420,
          "time": 46.009569375000005,
          "velocity": 0.3937007874015748
        },
        {
          "duration": 0.30769199999999586,
          "durationTicks": 384,
          "midi": 44,
          "name": "G#2",
          "ticks": 57420,
          "time": 46.009569375000005,
          "velocity": 0.3937007874015748
        },
        {
          "duration": 1.0769220000000033,
          "durationTicks": 1344,
          "midi": 39,
          "name": "D#2",
          "ticks": 57804,
          "time": 46.317261375,
          "velocity": 0.3937007874015748
        },
        {
          "duration": 1.0769220000000033,
          "durationTicks": 1344,
          "midi": 51,
          "name": "D#3",
          "ticks": 57804,
          "time": 46.317261375,
          "velocity": 0.3937007874015748
        },
        {
          "duration": 0.15384600000000148,
          "durationTicks": 192,
          "midi": 49,
          "name": "C#3",
          "ticks": 59148,
          "time": 47.394183375000004,
          "velocity": 0.3937007874015748
        },
        {
          "duration": 0.15384600000000148,
          "durationTicks": 192,
          "midi": 61,
          "name": "C#4",
          "ticks": 59148,
          "time": 47.394183375000004,
          "velocity": 0.3937007874015748
        },
        {
          "duration": 0.15384599999999438,
          "durationTicks": 192,
          "midi": 48,
          "name": "C3",
          "ticks": 59340,
          "time": 47.548029375000006,
          "velocity": 0.3937007874015748
        },
        {
          "duration": 0.15384599999999438,
          "durationTicks": 192,
          "midi": 60,
          "name": "C4",
          "ticks": 59340,
          "time": 47.548029375000006,
          "velocity": 0.3937007874015748
        },
        {
          "duration": 0.15384600000000148,
          "durationTicks": 192,
          "midi": 58,
          "name": "A#3",
          "ticks": 59532,
          "time": 47.701875375,
          "velocity": 0.3937007874015748
        },
        {
          "duration": 0.15384600000000148,
          "durationTicks": 192,
          "midi": 46,
          "name": "A#2",
          "ticks": 59532,
          "time": 47.701875375,
          "velocity": 0.3937007874015748
        },
        {
          "duration": 0.15384600000000148,
          "durationTicks": 192,
          "midi": 44,
          "name": "G#2",
          "ticks": 59724,
          "time": 47.855721375,
          "velocity": 0.3937007874015748
        },
        {
          "duration": 0.15384600000000148,
          "durationTicks": 192,
          "midi": 56,
          "name": "G#3",
          "ticks": 59724,
          "time": 47.855721375,
          "velocity": 0.3937007874015748
        },
        {
          "duration": 0.46153799999999734,
          "durationTicks": 576,
          "midi": 41,
          "name": "F2",
          "ticks": 59916,
          "time": 48.009567375,
          "velocity": 0.3937007874015748
        },
        {
          "duration": 1.2307679999999976,
          "durationTicks": 1536,
          "midi": 77,
          "name": "F5",
          "ticks": 59916,
          "time": 48.009567375,
          "velocity": 0.3937007874015748
        },
        {
          "duration": 0.46153799999999734,
          "durationTicks": 576,
          "midi": 53,
          "name": "F3",
          "ticks": 59916,
          "time": 48.009567375,
          "velocity": 0.3937007874015748
        },
        {
          "duration": 0.15384600000000148,
          "durationTicks": 192,
          "midi": 51,
          "name": "D#3",
          "ticks": 60492,
          "time": 48.471105375,
          "velocity": 0.3937007874015748
        },
        {
          "duration": 0.15384600000000148,
          "durationTicks": 192,
          "midi": 63,
          "name": "D#4",
          "ticks": 60492,
          "time": 48.471105375,
          "velocity": 0.3937007874015748
        },
        {
          "duration": 0.30769200000000296,
          "durationTicks": 384,
          "midi": 50,
          "name": "D3",
          "ticks": 60684,
          "time": 48.624951375,
          "velocity": 0.3937007874015748
        },
        {
          "duration": 0.30769200000000296,
          "durationTicks": 384,
          "midi": 62,
          "name": "D4",
          "ticks": 60684,
          "time": 48.624951375,
          "velocity": 0.3937007874015748
        },
        {
          "duration": 0.30769199999999586,
          "durationTicks": 384,
          "midi": 60,
          "name": "C4",
          "ticks": 61068,
          "time": 48.932643375000005,
          "velocity": 0.3937007874015748
        },
        {
          "duration": 0.30769199999999586,
          "durationTicks": 384,
          "midi": 48,
          "name": "C3",
          "ticks": 61068,
          "time": 48.932643375000005,
          "velocity": 0.3937007874015748
        },
        {
          "duration": 0.30769200000000296,
          "durationTicks": 384,
          "midi": 59,
          "name": "B3",
          "ticks": 61452,
          "time": 49.240335375,
          "velocity": 0.3937007874015748
        },
        {
          "duration": 0.30769200000000296,
          "durationTicks": 384,
          "midi": 47,
          "name": "B2",
          "ticks": 61452,
          "time": 49.240335375,
          "velocity": 0.3937007874015748
        },
        {
          "duration": 0.6153839999999988,
          "durationTicks": 768,
          "midi": 75,
          "name": "D#5",
          "ticks": 61836,
          "time": 49.548027375000004,
          "velocity": 0.3937007874015748
        },
        {
          "duration": 0.6153839999999988,
          "durationTicks": 768,
          "midi": 51,
          "name": "D#3",
          "ticks": 61836,
          "time": 49.548027375000004,
          "velocity": 0.3937007874015748
        },
        {
          "duration": 0.6153839999999988,
          "durationTicks": 768,
          "midi": 39,
          "name": "D#2",
          "ticks": 61836,
          "time": 49.548027375000004,
          "velocity": 0.3937007874015748
        },
        {
          "duration": 0.30769200000000296,
          "durationTicks": 384,
          "midi": 38,
          "name": "D2",
          "ticks": 62604,
          "time": 50.163411375,
          "velocity": 0.3937007874015748
        },
        {
          "duration": 0.30769200000000296,
          "durationTicks": 384,
          "midi": 50,
          "name": "D3",
          "ticks": 62604,
          "time": 50.163411375,
          "velocity": 0.3937007874015748
        },
        {
          "duration": 0.30769200000000296,
          "durationTicks": 384,
          "midi": 74,
          "name": "D5",
          "ticks": 62604,
          "time": 50.163411375,
          "velocity": 0.3937007874015748
        },
        {
          "duration": 0.46153799999999734,
          "durationTicks": 576,
          "midi": 48,
          "name": "C3",
          "ticks": 62988,
          "time": 50.471103375000006,
          "velocity": 0.3937007874015748
        },
        {
          "duration": 0.46153799999999734,
          "durationTicks": 576,
          "midi": 55,
          "name": "G3",
          "ticks": 62988,
          "time": 50.471103375000006,
          "velocity": 0.3937007874015748
        },
        {
          "duration": 0.46153799999999734,
          "durationTicks": 576,
          "midi": 43,
          "name": "G2",
          "ticks": 62988,
          "time": 50.471103375000006,
          "velocity": 0.3937007874015748
        },
        {
          "duration": 0.46153799999999734,
          "durationTicks": 576,
          "midi": 36,
          "name": "C2",
          "ticks": 62988,
          "time": 50.471103375000006,
          "velocity": 0.3937007874015748
        },
        {
          "duration": 0.30769199999999586,
          "durationTicks": 384,
          "midi": 72,
          "name": "C5",
          "ticks": 62988,
          "time": 50.471103375000006,
          "velocity": 0.3937007874015748
        },
        {
          "duration": 0.15384600000000148,
          "durationTicks": 192,
          "midi": 67,
          "name": "G4",
          "ticks": 63372,
          "time": 50.778795375,
          "velocity": 0.3937007874015748
        },
        {
          "duration": 0.15384600000000148,
          "durationTicks": 192,
          "midi": 71,
          "name": "B4",
          "ticks": 63564,
          "time": 50.932641375,
          "velocity": 0.3937007874015748
        },
        {
          "duration": 0.46153799999999734,
          "durationTicks": 576,
          "midi": 36,
          "name": "C2",
          "ticks": 63564,
          "time": 50.932641375,
          "velocity": 0.3937007874015748
        },
        {
          "duration": 0.46153799999999734,
          "durationTicks": 576,
          "midi": 43,
          "name": "G2",
          "ticks": 63564,
          "time": 50.932641375,
          "velocity": 0.3937007874015748
        },
        {
          "duration": 0.46153799999999734,
          "durationTicks": 576,
          "midi": 48,
          "name": "C3",
          "ticks": 63564,
          "time": 50.932641375,
          "velocity": 0.3937007874015748
        },
        {
          "duration": 0.46153799999999734,
          "durationTicks": 576,
          "midi": 55,
          "name": "G3",
          "ticks": 63564,
          "time": 50.932641375,
          "velocity": 0.3937007874015748
        },
        {
          "duration": 0.30769199999999586,
          "durationTicks": 384,
          "midi": 72,
          "name": "C5",
          "ticks": 63756,
          "time": 51.086487375000004,
          "velocity": 0.3937007874015748
        },
        {
          "duration": 0.15384600000000148,
          "durationTicks": 192,
          "midi": 67,
          "name": "G4",
          "ticks": 64140,
          "time": 51.394179375,
          "velocity": 0.3937007874015748
        },
        {
          "duration": 0.30769200000000296,
          "durationTicks": 384,
          "midi": 36,
          "name": "C2",
          "ticks": 64140,
          "time": 51.394179375,
          "velocity": 0.3937007874015748
        },
        {
          "duration": 0.30769200000000296,
          "durationTicks": 384,
          "midi": 43,
          "name": "G2",
          "ticks": 64140,
          "time": 51.394179375,
          "velocity": 0.3937007874015748
        },
        {
          "duration": 0.30769200000000296,
          "durationTicks": 384,
          "midi": 48,
          "name": "C3",
          "ticks": 64140,
          "time": 51.394179375,
          "velocity": 0.3937007874015748
        },
        {
          "duration": 0.30769200000000296,
          "durationTicks": 384,
          "midi": 55,
          "name": "G3",
          "ticks": 64140,
          "time": 51.394179375,
          "velocity": 0.3937007874015748
        },
        {
          "duration": 0.15384600000000148,
          "durationTicks": 192,
          "midi": 71,
          "name": "B4",
          "ticks": 64332,
          "time": 51.548025375,
          "velocity": 0.3937007874015748
        },
        {
          "duration": 0.46153799999999734,
          "durationTicks": 576,
          "midi": 55,
          "name": "G3",
          "ticks": 64524,
          "time": 51.701871375,
          "velocity": 0.3937007874015748
        },
        {
          "duration": 0.46153799999999734,
          "durationTicks": 576,
          "midi": 48,
          "name": "C3",
          "ticks": 64524,
          "time": 51.701871375,
          "velocity": 0.3937007874015748
        },
        {
          "duration": 0.46153799999999734,
          "durationTicks": 576,
          "midi": 36,
          "name": "C2",
          "ticks": 64524,
          "time": 51.701871375,
          "velocity": 0.3937007874015748
        },
        {
          "duration": 0.46153799999999734,
          "durationTicks": 576,
          "midi": 43,
          "name": "G2",
          "ticks": 64524,
          "time": 51.701871375,
          "velocity": 0.3937007874015748
        },
        {
          "duration": 0.15384600000000148,
          "durationTicks": 192,
          "midi": 72,
          "name": "C5",
          "ticks": 64524,
          "time": 51.701871375,
          "velocity": 0.3937007874015748
        },
        {
          "duration": 0.15384600000000148,
          "durationTicks": 192,
          "midi": 74,
          "name": "D5",
          "ticks": 64716,
          "time": 51.855717375000005,
          "velocity": 0.3937007874015748
        },
        {
          "duration": 0.15384599999999438,
          "durationTicks": 192,
          "midi": 75,
          "name": "D#5",
          "ticks": 64908,
          "time": 52.009563375000006,
          "velocity": 0.3937007874015748
        },
        {
          "duration": 0.15384600000000148,
          "durationTicks": 192,
          "midi": 77,
          "name": "F5",
          "ticks": 65100,
          "time": 52.163409375,
          "velocity": 0.3937007874015748
        },
        {
          "duration": 0.15384600000000148,
          "durationTicks": 192,
          "midi": 48,
          "name": "C3",
          "ticks": 65100,
          "time": 52.163409375,
          "velocity": 0.3937007874015748
        },
        {
          "duration": 0.15384600000000148,
          "durationTicks": 192,
          "midi": 43,
          "name": "G2",
          "ticks": 65100,
          "time": 52.163409375,
          "velocity": 0.3937007874015748
        },
        {
          "duration": 0.15384600000000148,
          "durationTicks": 192,
          "midi": 36,
          "name": "C2",
          "ticks": 65100,
          "time": 52.163409375,
          "velocity": 0.3937007874015748
        },
        {
          "duration": 0.15384600000000148,
          "durationTicks": 192,
          "midi": 55,
          "name": "G3",
          "ticks": 65100,
          "time": 52.163409375,
          "velocity": 0.3937007874015748
        },
        {
          "duration": 0.15384600000000148,
          "durationTicks": 192,
          "midi": 48,
          "name": "C3",
          "ticks": 65292,
          "time": 52.317255375,
          "velocity": 0.3937007874015748
        },
        {
          "duration": 0.46153800000000444,
          "durationTicks": 576,
          "midi": 72,
          "name": "C5",
          "ticks": 65292,
          "time": 52.317255375,
          "velocity": 0.3937007874015748
        },
        {
          "duration": 0.15384600000000148,
          "durationTicks": 192,
          "midi": 55,
          "name": "G3",
          "ticks": 65292,
          "time": 52.317255375,
          "velocity": 0.3937007874015748
        },
        {
          "duration": 0.15384600000000148,
          "durationTicks": 192,
          "midi": 36,
          "name": "C2",
          "ticks": 65292,
          "time": 52.317255375,
          "velocity": 0.3937007874015748
        },
        {
          "duration": 0.15384600000000148,
          "durationTicks": 192,
          "midi": 43,
          "name": "G2",
          "ticks": 65292,
          "time": 52.317255375,
          "velocity": 0.3937007874015748
        },
        {
          "duration": 0.46153800000000444,
          "durationTicks": 576,
          "midi": 60,
          "name": "C4",
          "ticks": 65292,
          "time": 52.317255375,
          "velocity": 0.3937007874015748
        },
        {
          "duration": 0.15384600000000148,
          "durationTicks": 192,
          "midi": 41,
          "name": "F2",
          "ticks": 65484,
          "time": 52.471101375,
          "velocity": 0.3937007874015748
        },
        {
          "duration": 0.15384600000000148,
          "durationTicks": 192,
          "midi": 34,
          "name": "A#1",
          "ticks": 65484,
          "time": 52.471101375,
          "velocity": 0.3937007874015748
        },
        {
          "duration": 0.15384600000000148,
          "durationTicks": 192,
          "midi": 46,
          "name": "A#2",
          "ticks": 65484,
          "time": 52.471101375,
          "velocity": 0.3937007874015748
        },
        {
          "duration": 0.15384600000000148,
          "durationTicks": 192,
          "midi": 53,
          "name": "F3",
          "ticks": 65484,
          "time": 52.471101375,
          "velocity": 0.3937007874015748
        },
        {
          "duration": 0.15384600000000148,
          "durationTicks": 192,
          "midi": 36,
          "name": "C2",
          "ticks": 65676,
          "time": 52.624947375000005,
          "velocity": 0.3937007874015748
        },
        {
          "duration": 0.15384600000000148,
          "durationTicks": 192,
          "midi": 51,
          "name": "D#3",
          "ticks": 65676,
          "time": 52.624947375000005,
          "velocity": 0.3937007874015748
        },
        {
          "duration": 0.15384600000000148,
          "durationTicks": 192,
          "midi": 39,
          "name": "D#2",
          "ticks": 65676,
          "time": 52.624947375000005,
          "velocity": 0.3937007874015748
        },
        {
          "duration": 0.15384600000000148,
          "durationTicks": 192,
          "midi": 48,
          "name": "C3",
          "ticks": 65676,
          "time": 52.624947375000005,
          "velocity": 0.3937007874015748
        },
        {
          "duration": 0.30769199999999586,
          "durationTicks": 384,
          "midi": 72,
          "name": "C5",
          "ticks": 65868,
          "time": 52.77879337500001,
          "velocity": 0.3937007874015748
        },
        {
          "duration": 0.15384599999999438,
          "durationTicks": 192,
          "midi": 41,
          "name": "F2",
          "ticks": 65868,
          "time": 52.77879337500001,
          "velocity": 0.3937007874015748
        },
        {
          "duration": 0.15384599999999438,
          "durationTicks": 192,
          "midi": 53,
          "name": "F3",
          "ticks": 65868,
          "time": 52.77879337500001,
          "velocity": 0.3937007874015748
        },
        {
          "duration": 0.15384599999999438,
          "durationTicks": 192,
          "midi": 38,
          "name": "D2",
          "ticks": 65868,
          "time": 52.77879337500001,
          "velocity": 0.3937007874015748
        },
        {
          "duration": 0.15384599999999438,
          "durationTicks": 192,
          "midi": 50,
          "name": "D3",
          "ticks": 65868,
          "time": 52.77879337500001,
          "velocity": 0.3937007874015748
        },
        {
          "duration": 0.15384600000000148,
          "durationTicks": 192,
          "midi": 43,
          "name": "G2",
          "ticks": 66060,
          "time": 52.932639375,
          "velocity": 0.3937007874015748
        },
        {
          "duration": 0.15384600000000148,
          "durationTicks": 192,
          "midi": 48,
          "name": "C3",
          "ticks": 66060,
          "time": 52.932639375,
          "velocity": 0.3937007874015748
        },
        {
          "duration": 0.15384600000000148,
          "durationTicks": 192,
          "midi": 36,
          "name": "C2",
          "ticks": 66060,
          "time": 52.932639375,
          "velocity": 0.3937007874015748
        },
        {
          "duration": 0.15384600000000148,
          "durationTicks": 192,
          "midi": 55,
          "name": "G3",
          "ticks": 66060,
          "time": 52.932639375,
          "velocity": 0.3937007874015748
        },
        {
          "duration": 0.30769200000000296,
          "durationTicks": 384,
          "midi": 43,
          "name": "G2",
          "ticks": 66252,
          "time": 53.086485375,
          "velocity": 0.3937007874015748
        },
        {
          "duration": 0.15384600000000148,
          "durationTicks": 192,
          "midi": 72,
          "name": "C5",
          "ticks": 66252,
          "time": 53.086485375,
          "velocity": 0.3937007874015748
        },
        {
          "duration": 0.30769200000000296,
          "durationTicks": 384,
          "midi": 36,
          "name": "C2",
          "ticks": 66252,
          "time": 53.086485375,
          "velocity": 0.3937007874015748
        },
        {
          "duration": 0.30769200000000296,
          "durationTicks": 384,
          "midi": 55,
          "name": "G3",
          "ticks": 66252,
          "time": 53.086485375,
          "velocity": 0.3937007874015748
        },
        {
          "duration": 0.30769200000000296,
          "durationTicks": 384,
          "midi": 48,
          "name": "C3",
          "ticks": 66252,
          "time": 53.086485375,
          "velocity": 0.3937007874015748
        },
        {
          "duration": 0.15384600000000148,
          "durationTicks": 192,
          "midi": 67,
          "name": "G4",
          "ticks": 66444,
          "time": 53.240331375000004,
          "velocity": 0.3937007874015748
        },
        {
          "duration": 0.30769199999999586,
          "durationTicks": 384,
          "midi": 43,
          "name": "G2",
          "ticks": 66636,
          "time": 53.394177375000005,
          "velocity": 0.3937007874015748
        },
        {
          "duration": 0.30769199999999586,
          "durationTicks": 384,
          "midi": 48,
          "name": "C3",
          "ticks": 66636,
          "time": 53.394177375000005,
          "velocity": 0.3937007874015748
        },
        {
          "duration": 0.30769199999999586,
          "durationTicks": 384,
          "midi": 55,
          "name": "G3",
          "ticks": 66636,
          "time": 53.394177375000005,
          "velocity": 0.3937007874015748
        },
        {
          "duration": 0.30769199999999586,
          "durationTicks": 384,
          "midi": 36,
          "name": "C2",
          "ticks": 66636,
          "time": 53.394177375000005,
          "velocity": 0.3937007874015748
        },
        {
          "duration": 0.15384600000000148,
          "durationTicks": 192,
          "midi": 67,
          "name": "G4",
          "ticks": 66636,
          "time": 53.394177375000005,
          "velocity": 0.3937007874015748
        },
        {
          "duration": 0.15384599999999438,
          "durationTicks": 192,
          "midi": 72,
          "name": "C5",
          "ticks": 66828,
          "time": 53.54802337500001,
          "velocity": 0.3937007874015748
        },
        {
          "duration": 0.30769200000000296,
          "durationTicks": 384,
          "midi": 55,
          "name": "G3",
          "ticks": 67020,
          "time": 53.701869375,
          "velocity": 0.3937007874015748
        },
        {
          "duration": 0.30769200000000296,
          "durationTicks": 384,
          "midi": 43,
          "name": "G2",
          "ticks": 67020,
          "time": 53.701869375,
          "velocity": 0.3937007874015748
        },
        {
          "duration": 0.30769200000000296,
          "durationTicks": 384,
          "midi": 36,
          "name": "C2",
          "ticks": 67020,
          "time": 53.701869375,
          "velocity": 0.3937007874015748
        },
        {
          "duration": 0.15384600000000148,
          "durationTicks": 192,
          "midi": 72,
          "name": "C5",
          "ticks": 67020,
          "time": 53.701869375,
          "velocity": 0.3937007874015748
        },
        {
          "duration": 0.30769200000000296,
          "durationTicks": 384,
          "midi": 48,
          "name": "C3",
          "ticks": 67020,
          "time": 53.701869375,
          "velocity": 0.3937007874015748
        },
        {
          "duration": 0.15384600000000148,
          "durationTicks": 192,
          "midi": 67,
          "name": "G4",
          "ticks": 67212,
          "time": 53.855715375,
          "velocity": 0.3937007874015748
        },
        {
          "duration": 0.15384600000000148,
          "durationTicks": 192,
          "midi": 36,
          "name": "C2",
          "ticks": 67404,
          "time": 54.009561375000004,
          "velocity": 0.3937007874015748
        },
        {
          "duration": 0.15384600000000148,
          "durationTicks": 192,
          "midi": 67,
          "name": "G4",
          "ticks": 67404,
          "time": 54.009561375000004,
          "velocity": 0.3937007874015748
        },
        {
          "duration": 0.15384600000000148,
          "durationTicks": 192,
          "midi": 43,
          "name": "G2",
          "ticks": 67404,
          "time": 54.009561375000004,
          "velocity": 0.3937007874015748
        },
        {
          "duration": 0.15384600000000148,
          "durationTicks": 192,
          "midi": 48,
          "name": "C3",
          "ticks": 67404,
          "time": 54.009561375000004,
          "velocity": 0.3937007874015748
        },
        {
          "duration": 0.15384600000000148,
          "durationTicks": 192,
          "midi": 55,
          "name": "G3",
          "ticks": 67404,
          "time": 54.009561375000004,
          "velocity": 0.3937007874015748
        },
        {
          "duration": 0.30769199999999586,
          "durationTicks": 384,
          "midi": 72,
          "name": "C5",
          "ticks": 67596,
          "time": 54.163407375000006,
          "velocity": 0.3937007874015748
        },
        {
          "duration": 0.30769199999999586,
          "durationTicks": 384,
          "midi": 75,
          "name": "D#5",
          "ticks": 67596,
          "time": 54.163407375000006,
          "velocity": 0.3937007874015748
        },
        {
          "duration": 0.15384600000000148,
          "durationTicks": 192,
          "midi": 43,
          "name": "G2",
          "ticks": 67596,
          "time": 54.163407375000006,
          "velocity": 0.3937007874015748
        },
        {
          "duration": 0.15384600000000148,
          "durationTicks": 192,
          "midi": 36,
          "name": "C2",
          "ticks": 67596,
          "time": 54.163407375000006,
          "velocity": 0.3937007874015748
        },
        {
          "duration": 0.15384600000000148,
          "durationTicks": 192,
          "midi": 48,
          "name": "C3",
          "ticks": 67596,
          "time": 54.163407375000006,
          "velocity": 0.3937007874015748
        },
        {
          "duration": 0.15384600000000148,
          "durationTicks": 192,
          "midi": 55,
          "name": "G3",
          "ticks": 67596,
          "time": 54.163407375000006,
          "velocity": 0.3937007874015748
        },
        {
          "duration": 0.15384599999999438,
          "durationTicks": 192,
          "midi": 46,
          "name": "A#2",
          "ticks": 67788,
          "time": 54.31725337500001,
          "velocity": 0.3937007874015748
        },
        {
          "duration": 0.15384599999999438,
          "durationTicks": 192,
          "midi": 34,
          "name": "A#1",
          "ticks": 67788,
          "time": 54.31725337500001,
          "velocity": 0.3937007874015748
        },
        {
          "duration": 0.15384599999999438,
          "durationTicks": 192,
          "midi": 53,
          "name": "F3",
          "ticks": 67788,
          "time": 54.31725337500001,
          "velocity": 0.3937007874015748
        },
        {
          "duration": 0.15384599999999438,
          "durationTicks": 192,
          "midi": 41,
          "name": "F2",
          "ticks": 67788,
          "time": 54.31725337500001,
          "velocity": 0.3937007874015748
        },
        {
          "duration": 0.30769200000000296,
          "durationTicks": 384,
          "midi": 72,
          "name": "C5",
          "ticks": 67980,
          "time": 54.471099375,
          "velocity": 0.3937007874015748
        },
        {
          "duration": 0.15384600000000148,
          "durationTicks": 192,
          "midi": 48,
          "name": "C3",
          "ticks": 67980,
          "time": 54.471099375,
          "velocity": 0.3937007874015748
        },
        {
          "duration": 0.15384600000000148,
          "durationTicks": 192,
          "midi": 51,
          "name": "D#3",
          "ticks": 67980,
          "time": 54.471099375,
          "velocity": 0.3937007874015748
        },
        {
          "duration": 0.15384600000000148,
          "durationTicks": 192,
          "midi": 36,
          "name": "C2",
          "ticks": 67980,
          "time": 54.471099375,
          "velocity": 0.3937007874015748
        },
        {
          "duration": 0.15384600000000148,
          "durationTicks": 192,
          "midi": 39,
          "name": "D#2",
          "ticks": 67980,
          "time": 54.471099375,
          "velocity": 0.3937007874015748
        },
        {
          "duration": 0.30769200000000296,
          "durationTicks": 384,
          "midi": 77,
          "name": "F5",
          "ticks": 67980,
          "time": 54.471099375,
          "velocity": 0.3937007874015748
        },
        {
          "duration": 0.15384600000000148,
          "durationTicks": 192,
          "midi": 38,
          "name": "D2",
          "ticks": 68172,
          "time": 54.624945375,
          "velocity": 0.3937007874015748
        },
        {
          "duration": 0.15384600000000148,
          "durationTicks": 192,
          "midi": 41,
          "name": "F2",
          "ticks": 68172,
          "time": 54.624945375,
          "velocity": 0.3937007874015748
        },
        {
          "duration": 0.15384600000000148,
          "durationTicks": 192,
          "midi": 50,
          "name": "D3",
          "ticks": 68172,
          "time": 54.624945375,
          "velocity": 0.3937007874015748
        },
        {
          "duration": 0.15384600000000148,
          "durationTicks": 192,
          "midi": 53,
          "name": "F3",
          "ticks": 68172,
          "time": 54.624945375,
          "velocity": 0.3937007874015748
        },
        {
          "duration": 0.6153839999999988,
          "durationTicks": 768,
          "midi": 43,
          "name": "G2",
          "ticks": 68364,
          "time": 54.778791375000004,
          "velocity": 0.3937007874015748
        },
        {
          "duration": 0.6153839999999988,
          "durationTicks": 768,
          "midi": 36,
          "name": "C2",
          "ticks": 68364,
          "time": 54.778791375000004,
          "velocity": 0.3937007874015748
        },
        {
          "duration": 0.6153839999999988,
          "durationTicks": 768,
          "midi": 67,
          "name": "G4",
          "ticks": 68364,
          "time": 54.778791375000004,
          "velocity": 0.3937007874015748
        },
        {
          "duration": 0.6153839999999988,
          "durationTicks": 768,
          "midi": 48,
          "name": "C3",
          "ticks": 68364,
          "time": 54.778791375000004,
          "velocity": 0.3937007874015748
        },
        {
          "duration": 0.6153839999999988,
          "durationTicks": 768,
          "midi": 55,
          "name": "G3",
          "ticks": 68364,
          "time": 54.778791375000004,
          "velocity": 0.3937007874015748
        },
        {
          "duration": 0.6153839999999988,
          "durationTicks": 768,
          "midi": 72,
          "name": "C5",
          "ticks": 68364,
          "time": 54.778791375000004,
          "velocity": 0.3937007874015748
        },
        {
          "duration": 0.15384600000000148,
          "durationTicks": 192,
          "midi": 73,
          "name": "C#5",
          "ticks": 69132,
          "time": 55.394175375,
          "velocity": 0.3937007874015748
        },
        {
          "duration": 0.15384600000000148,
          "durationTicks": 192,
          "midi": 70,
          "name": "A#4",
          "ticks": 69324,
          "time": 55.548021375000005,
          "velocity": 0.3937007874015748
        },
        {
          "duration": 0.15384599999999438,
          "durationTicks": 192,
          "midi": 73,
          "name": "C#5",
          "ticks": 69516,
          "time": 55.701867375000006,
          "velocity": 0.3937007874015748
        },
        {
          "duration": 0.15384600000000148,
          "durationTicks": 192,
          "midi": 70,
          "name": "A#4",
          "ticks": 69708,
          "time": 55.855713375,
          "velocity": 0.3937007874015748
        },
        {
          "duration": 0.15384600000000148,
          "durationTicks": 192,
          "midi": 73,
          "name": "C#5",
          "ticks": 69900,
          "time": 56.009559375,
          "velocity": 0.3937007874015748
        },
        {
          "duration": 0.15384600000000148,
          "durationTicks": 192,
          "midi": 70,
          "name": "A#4",
          "ticks": 70092,
          "time": 56.163405375,
          "velocity": 0.3937007874015748
        },
        {
          "duration": 0.15384600000000148,
          "durationTicks": 192,
          "midi": 73,
          "name": "C#5",
          "ticks": 70284,
          "time": 56.317251375000005,
          "velocity": 0.3937007874015748
        },
        {
          "duration": 0.15384599999999438,
          "durationTicks": 192,
          "midi": 70,
          "name": "A#4",
          "ticks": 70476,
          "time": 56.47109737500001,
          "velocity": 0.3937007874015748
        },
        {
          "duration": 0.30769200000000296,
          "durationTicks": 384,
          "midi": 61,
          "name": "C#4",
          "ticks": 70668,
          "time": 56.624943375,
          "velocity": 0.3937007874015748
        },
        {
          "duration": 0.30769200000000296,
          "durationTicks": 384,
          "midi": 73,
          "name": "C#5",
          "ticks": 70668,
          "time": 56.624943375,
          "velocity": 0.3937007874015748
        },
        {
          "duration": 0.30769200000000296,
          "durationTicks": 384,
          "midi": 63,
          "name": "D#4",
          "ticks": 71052,
          "time": 56.932635375000004,
          "velocity": 0.3937007874015748
        },
        {
          "duration": 0.30769200000000296,
          "durationTicks": 384,
          "midi": 75,
          "name": "D#5",
          "ticks": 71052,
          "time": 56.932635375000004,
          "velocity": 0.3937007874015748
        },
        {
          "duration": 0.6153839999999988,
          "durationTicks": 768,
          "midi": 77,
          "name": "F5",
          "ticks": 71436,
          "time": 57.24032737500001,
          "velocity": 0.3937007874015748
        },
        {
          "duration": 0.6153839999999988,
          "durationTicks": 768,
          "midi": 65,
          "name": "F4",
          "ticks": 71436,
          "time": 57.24032737500001,
          "velocity": 0.3937007874015748
        },
        {
          "duration": 1.23317184375,
          "durationTicks": 1539,
          "midi": 56,
          "name": "G#3",
          "ticks": 72204,
          "time": 57.855711375000006,
          "velocity": 0.3937007874015748
        },
        {
          "duration": 0.23076899999999512,
          "durationTicks": 288,
          "midi": 80,
          "name": "G#5",
          "ticks": 72204,
          "time": 57.855711375000006,
          "velocity": 0.3937007874015748
        },
        {
          "duration": 1.23317184375,
          "durationTicks": 1539,
          "midi": 53,
          "name": "F3",
          "ticks": 72204,
          "time": 57.855711375000006,
          "velocity": 0.3937007874015748
        },
        {
          "duration": 1.23317184375,
          "durationTicks": 1539,
          "midi": 48,
          "name": "C3",
          "ticks": 72204,
          "time": 57.855711375000006,
          "velocity": 0.3937007874015748
        },
        {
          "duration": 1.23317184375,
          "durationTicks": 1539,
          "midi": 44,
          "name": "G#2",
          "ticks": 72204,
          "time": 57.855711375000006,
          "velocity": 0.3937007874015748
        },
        {
          "duration": 1.23317184375,
          "durationTicks": 1539,
          "midi": 60,
          "name": "C4",
          "ticks": 72204,
          "time": 57.855711375000006,
          "velocity": 0.3937007874015748
        },
        {
          "duration": 1.23317184375,
          "durationTicks": 1539,
          "midi": 41,
          "name": "F2",
          "ticks": 72204,
          "time": 57.855711375000006,
          "velocity": 0.3937007874015748
        },
        {
          "duration": 0.23076899999999512,
          "durationTicks": 288,
          "midi": 68,
          "name": "G#4",
          "ticks": 72204,
          "time": 57.855711375000006,
          "velocity": 0.3937007874015748
        },
        {
          "duration": 0.23157028125000778,
          "durationTicks": 289,
          "midi": 67,
          "name": "G4",
          "ticks": 72460,
          "time": 58.060839375,
          "velocity": 0.3937007874015748
        },
        {
          "duration": 0.23157028125000778,
          "durationTicks": 289,
          "midi": 79,
          "name": "G5",
          "ticks": 72460,
          "time": 58.060839375,
          "velocity": 0.3937007874015748
        },
        {
          "duration": 0.23157028124999357,
          "durationTicks": 289,
          "midi": 65,
          "name": "F4",
          "ticks": 72716,
          "time": 58.26596737500001,
          "velocity": 0.3937007874015748
        },
        {
          "duration": 0.23157028124999357,
          "durationTicks": 289,
          "midi": 77,
          "name": "F5",
          "ticks": 72716,
          "time": 58.26596737500001,
          "velocity": 0.3937007874015748
        },
        {
          "duration": 0.23157028125000068,
          "durationTicks": 289,
          "midi": 68,
          "name": "G#4",
          "ticks": 72973,
          "time": 58.47189665625,
          "velocity": 0.3937007874015748
        },
        {
          "duration": 0.6169865625000028,
          "durationTicks": 770,
          "midi": 68,
          "name": "G#4",
          "ticks": 72973,
          "time": 58.47189665625,
          "velocity": 0.3937007874015748
        },
        {
          "duration": 0.23157028125000068,
          "durationTicks": 289,
          "midi": 80,
          "name": "G#5",
          "ticks": 72973,
          "time": 58.47189665625,
          "velocity": 0.3937007874015748
        },
        {
          "duration": 0.23157028125000068,
          "durationTicks": 289,
          "midi": 79,
          "name": "G5",
          "ticks": 73230,
          "time": 58.6778259375,
          "velocity": 0.3937007874015748
        },
        {
          "duration": 0.23157028125000068,
          "durationTicks": 289,
          "midi": 67,
          "name": "G4",
          "ticks": 73230,
          "time": 58.6778259375,
          "velocity": 0.3937007874015748
        },
        {
          "duration": 0.23157028125000778,
          "durationTicks": 289,
          "midi": 77,
          "name": "F5",
          "ticks": 73486,
          "time": 58.8829539375,
          "velocity": 0.3937007874015748
        },
        {
          "duration": 0.23157028125000778,
          "durationTicks": 289,
          "midi": 65,
          "name": "F4",
          "ticks": 73486,
          "time": 58.8829539375,
          "velocity": 0.3937007874015748
        },
        {
          "duration": 1.2307679999999976,
          "durationTicks": 1536,
          "midi": 61,
          "name": "C#4",
          "ticks": 73743,
          "time": 59.088883218750006,
          "velocity": 0.3937007874015748
        },
        {
          "duration": 0.30769199999999586,
          "durationTicks": 384,
          "midi": 65,
          "name": "F4",
          "ticks": 73743,
          "time": 59.088883218750006,
          "velocity": 0.3937007874015748
        },
        {
          "duration": 1.2307679999999976,
          "durationTicks": 1536,
          "midi": 49,
          "name": "C#3",
          "ticks": 73743,
          "time": 59.088883218750006,
          "velocity": 0.3937007874015748
        },
        {
          "duration": 0.7692300000000003,
          "durationTicks": 960,
          "midi": 65,
          "name": "F4",
          "ticks": 73743,
          "time": 59.088883218750006,
          "velocity": 0.3937007874015748
        },
        {
          "duration": 1.2307679999999976,
          "durationTicks": 1536,
          "midi": 41,
          "name": "F2",
          "ticks": 73743,
          "time": 59.088883218750006,
          "velocity": 0.3937007874015748
        },
        {
          "duration": 1.2307679999999976,
          "durationTicks": 1536,
          "midi": 56,
          "name": "G#3",
          "ticks": 73743,
          "time": 59.088883218750006,
          "velocity": 0.3937007874015748
        },
        {
          "duration": 1.2307679999999976,
          "durationTicks": 1536,
          "midi": 53,
          "name": "F3",
          "ticks": 73743,
          "time": 59.088883218750006,
          "velocity": 0.3937007874015748
        },
        {
          "duration": 1.2307679999999976,
          "durationTicks": 1536,
          "midi": 44,
          "name": "G#2",
          "ticks": 73743,
          "time": 59.088883218750006,
          "velocity": 0.3937007874015748
        },
        {
          "duration": 1.2307679999999976,
          "durationTicks": 1536,
          "midi": 37,
          "name": "C#2",
          "ticks": 73743,
          "time": 59.088883218750006,
          "velocity": 0.3937007874015748
        },
        {
          "duration": 0.30769199999999586,
          "durationTicks": 384,
          "midi": 77,
          "name": "F5",
          "ticks": 73743,
          "time": 59.088883218750006,
          "velocity": 0.3937007874015748
        },
        {
          "duration": 0.30769200000000296,
          "durationTicks": 384,
          "midi": 65,
          "name": "F4",
          "ticks": 74511,
          "time": 59.704267218750005,
          "velocity": 0.3937007874015748
        },
        {
          "duration": 0.15384600000000148,
          "durationTicks": 192,
          "midi": 77,
          "name": "F5",
          "ticks": 74511,
          "time": 59.704267218750005,
          "velocity": 0.3937007874015748
        },
        {
          "duration": 0.15384600000000148,
          "durationTicks": 192,
          "midi": 77,
          "name": "F5",
          "ticks": 74703,
          "time": 59.858113218750006,
          "velocity": 0.3937007874015748
        },
        {
          "duration": 0.46153799999999734,
          "durationTicks": 576,
          "midi": 65,
          "name": "F4",
          "ticks": 74703,
          "time": 59.858113218750006,
          "velocity": 0.3937007874015748
        },
        {
          "duration": 0.30769199999999586,
          "durationTicks": 384,
          "midi": 80,
          "name": "G#5",
          "ticks": 74895,
          "time": 60.01195921875001,
          "velocity": 0.3937007874015748
        },
        {
          "duration": 0.30769199999999586,
          "durationTicks": 384,
          "midi": 68,
          "name": "G#4",
          "ticks": 74895,
          "time": 60.01195921875001,
          "velocity": 0.3937007874015748
        },
        {
          "duration": 1.2307679999999976,
          "durationTicks": 1536,
          "midi": 59,
          "name": "B3",
          "ticks": 75279,
          "time": 60.31965121875,
          "velocity": 0.3937007874015748
        },
        {
          "duration": 0.6153839999999988,
          "durationTicks": 768,
          "midi": 55,
          "name": "G3",
          "ticks": 75279,
          "time": 60.31965121875,
          "velocity": 0.3937007874015748
        },
        {
          "duration": 2.4615360000000024,
          "durationTicks": 3072,
          "midi": 79,
          "name": "G5",
          "ticks": 75279,
          "time": 60.31965121875,
          "velocity": 0.3937007874015748
        },
        {
          "duration": 1.2307679999999976,
          "durationTicks": 1536,
          "midi": 62,
          "name": "D4",
          "ticks": 75279,
          "time": 60.31965121875,
          "velocity": 0.3937007874015748
        },
        {
          "duration": 1.2307679999999976,
          "durationTicks": 1536,
          "midi": 47,
          "name": "B2",
          "ticks": 75279,
          "time": 60.31965121875,
          "velocity": 0.3937007874015748
        },
        {
          "duration": 1.5384600000000006,
          "durationTicks": 1920,
          "midi": 74,
          "name": "D5",
          "ticks": 75279,
          "time": 60.31965121875,
          "velocity": 0.3937007874015748
        },
        {
          "duration": 2.4615360000000024,
          "durationTicks": 3072,
          "midi": 67,
          "name": "G4",
          "ticks": 75279,
          "time": 60.31965121875,
          "velocity": 0.3937007874015748
        },
        {
          "duration": 1.2307679999999976,
          "durationTicks": 1536,
          "midi": 43,
          "name": "G2",
          "ticks": 75279,
          "time": 60.31965121875,
          "velocity": 0.3937007874015748
        },
        {
          "duration": 0.6153839999999988,
          "durationTicks": 768,
          "midi": 50,
          "name": "D3",
          "ticks": 75279,
          "time": 60.31965121875,
          "velocity": 0.3937007874015748
        },
        {
          "duration": 0.9230759999999947,
          "durationTicks": 1152,
          "midi": 55,
          "name": "G3",
          "ticks": 75663,
          "time": 60.627343218750006,
          "velocity": 0.3937007874015748
        },
        {
          "duration": 0.9230759999999947,
          "durationTicks": 1152,
          "midi": 50,
          "name": "D3",
          "ticks": 75663,
          "time": 60.627343218750006,
          "velocity": 0.3937007874015748
        },
        {
          "duration": 0.30769199999999586,
          "durationTicks": 384,
          "midi": 50,
          "name": "D3",
          "ticks": 76431,
          "time": 61.242727218750005,
          "velocity": 0.3937007874015748
        },
        {
          "duration": 0.30769199999999586,
          "durationTicks": 384,
          "midi": 55,
          "name": "G3",
          "ticks": 76431,
          "time": 61.242727218750005,
          "velocity": 0.3937007874015748
        },
        {
          "duration": 0.6153840000000059,
          "durationTicks": 768,
          "midi": 55,
          "name": "G3",
          "ticks": 76815,
          "time": 61.55041921875,
          "velocity": 0.3937007874015748
        },
        {
          "duration": 1.2307680000000047,
          "durationTicks": 1536,
          "midi": 47,
          "name": "B2",
          "ticks": 76815,
          "time": 61.55041921875,
          "velocity": 0.3937007874015748
        },
        {
          "duration": 0.6153840000000059,
          "durationTicks": 768,
          "midi": 50,
          "name": "D3",
          "ticks": 76815,
          "time": 61.55041921875,
          "velocity": 0.3937007874015748
        },
        {
          "duration": 1.2307680000000047,
          "durationTicks": 1536,
          "midi": 59,
          "name": "B3",
          "ticks": 76815,
          "time": 61.55041921875,
          "velocity": 0.3937007874015748
        },
        {
          "duration": 1.2307680000000047,
          "durationTicks": 1536,
          "midi": 62,
          "name": "D4",
          "ticks": 76815,
          "time": 61.55041921875,
          "velocity": 0.3937007874015748
        },
        {
          "duration": 1.2307680000000047,
          "durationTicks": 1536,
          "midi": 67,
          "name": "G4",
          "ticks": 76815,
          "time": 61.55041921875,
          "velocity": 0.3937007874015748
        },
        {
          "duration": 1.2307680000000047,
          "durationTicks": 1536,
          "midi": 43,
          "name": "G2",
          "ticks": 76815,
          "time": 61.55041921875,
          "velocity": 0.3937007874015748
        },
        {
          "duration": 1.2307680000000047,
          "durationTicks": 1536,
          "midi": 71,
          "name": "B4",
          "ticks": 76815,
          "time": 61.55041921875,
          "velocity": 0.3937007874015748
        },
        {
          "duration": 0.9230760000000018,
          "durationTicks": 1152,
          "midi": 50,
          "name": "D3",
          "ticks": 77199,
          "time": 61.858111218750004,
          "velocity": 0.3937007874015748
        },
        {
          "duration": 0.9230760000000018,
          "durationTicks": 1152,
          "midi": 55,
          "name": "G3",
          "ticks": 77199,
          "time": 61.858111218750004,
          "velocity": 0.3937007874015748
        },
        {
          "duration": 0.6153839999999988,
          "durationTicks": 768,
          "midi": 55,
          "name": "G3",
          "ticks": 77967,
          "time": 62.47349521875,
          "velocity": 0.3937007874015748
        },
        {
          "duration": 0.6153839999999988,
          "durationTicks": 768,
          "midi": 50,
          "name": "D3",
          "ticks": 77967,
          "time": 62.47349521875,
          "velocity": 0.3937007874015748
        },
        {
          "duration": 1.2307679999999976,
          "durationTicks": 1536,
          "midi": 79,
          "name": "G5",
          "ticks": 78351,
          "time": 62.781187218750006,
          "velocity": 0.3937007874015748
        },
        {
          "duration": 0.46153799999999734,
          "durationTicks": 576,
          "midi": 51,
          "name": "D#3",
          "ticks": 78351,
          "time": 62.781187218750006,
          "velocity": 0.3937007874015748
        },
        {
          "duration": 0.46153799999999734,
          "durationTicks": 576,
          "midi": 36,
          "name": "C2",
          "ticks": 78351,
          "time": 62.781187218750006,
          "velocity": 0.3937007874015748
        },
        {
          "duration": 0.46153799999999734,
          "durationTicks": 576,
          "midi": 48,
          "name": "C3",
          "ticks": 78351,
          "time": 62.781187218750006,
          "velocity": 0.3937007874015748
        },
        {
          "duration": 0.46153799999999734,
          "durationTicks": 576,
          "midi": 63,
          "name": "D#4",
          "ticks": 78351,
          "time": 62.781187218750006,
          "velocity": 0.3937007874015748
        },
        {
          "duration": 0.15384600000000148,
          "durationTicks": 192,
          "midi": 63,
          "name": "D#4",
          "ticks": 78927,
          "time": 63.24272521875,
          "velocity": 0.3937007874015748
        },
        {
          "duration": 0.15384600000000148,
          "durationTicks": 192,
          "midi": 36,
          "name": "C2",
          "ticks": 78927,
          "time": 63.24272521875,
          "velocity": 0.3937007874015748
        },
        {
          "duration": 0.15384600000000148,
          "durationTicks": 192,
          "midi": 48,
          "name": "C3",
          "ticks": 78927,
          "time": 63.24272521875,
          "velocity": 0.3937007874015748
        },
        {
          "duration": 0.15384600000000148,
          "durationTicks": 192,
          "midi": 51,
          "name": "D#3",
          "ticks": 78927,
          "time": 63.24272521875,
          "velocity": 0.3937007874015748
        },
        {
          "duration": 0.30769200000000296,
          "durationTicks": 384,
          "midi": 65,
          "name": "F4",
          "ticks": 79119,
          "time": 63.396571218750005,
          "velocity": 0.3937007874015748
        },
        {
          "duration": 0.30769200000000296,
          "durationTicks": 384,
          "midi": 53,
          "name": "F3",
          "ticks": 79119,
          "time": 63.396571218750005,
          "velocity": 0.3937007874015748
        },
        {
          "duration": 0.15384600000000148,
          "durationTicks": 192,
          "midi": 48,
          "name": "C3",
          "ticks": 79119,
          "time": 63.396571218750005,
          "velocity": 0.3937007874015748
        },
        {
          "duration": 0.15384600000000148,
          "durationTicks": 192,
          "midi": 36,
          "name": "C2",
          "ticks": 79119,
          "time": 63.396571218750005,
          "velocity": 0.3937007874015748
        },
        {
          "duration": 0.15384600000000148,
          "durationTicks": 192,
          "midi": 31,
          "name": "G1",
          "ticks": 79311,
          "time": 63.550417218750006,
          "velocity": 0.3937007874015748
        },
        {
          "duration": 0.15384600000000148,
          "durationTicks": 192,
          "midi": 43,
          "name": "G2",
          "ticks": 79311,
          "time": 63.550417218750006,
          "velocity": 0.3937007874015748
        },
        {
          "duration": 0.30769199999999586,
          "durationTicks": 384,
          "midi": 36,
          "name": "C2",
          "ticks": 79503,
          "time": 63.70426321875001,
          "velocity": 0.3937007874015748
        },
        {
          "duration": 0.30769199999999586,
          "durationTicks": 384,
          "midi": 51,
          "name": "D#3",
          "ticks": 79503,
          "time": 63.70426321875001,
          "velocity": 0.3937007874015748
        },
        {
          "duration": 0.30769199999999586,
          "durationTicks": 384,
          "midi": 63,
          "name": "D#4",
          "ticks": 79503,
          "time": 63.70426321875001,
          "velocity": 0.3937007874015748
        },
        {
          "duration": 0.30769199999999586,
          "durationTicks": 384,
          "midi": 48,
          "name": "C3",
          "ticks": 79503,
          "time": 63.70426321875001,
          "velocity": 0.3937007874015748
        },
        {
          "duration": 0.23076899999999512,
          "durationTicks": 288,
          "midi": 63,
          "name": "D#4",
          "ticks": 79887,
          "time": 64.01195521875,
          "velocity": 0.3937007874015748
        },
        {
          "duration": 1.2315692812500032,
          "durationTicks": 1537,
          "midi": 80,
          "name": "G#5",
          "ticks": 79887,
          "time": 64.01195521875,
          "velocity": 0.3937007874015748
        },
        {
          "duration": 0.23076899999999512,
          "durationTicks": 288,
          "midi": 51,
          "name": "D#3",
          "ticks": 79887,
          "time": 64.01195521875,
          "velocity": 0.3937007874015748
        },
        {
          "duration": 0.15384600000000148,
          "durationTicks": 192,
          "midi": 36,
          "name": "C2",
          "ticks": 79887,
          "time": 64.01195521875,
          "velocity": 0.3937007874015748
        },
        {
          "duration": 0.15384600000000148,
          "durationTicks": 192,
          "midi": 48,
          "name": "C3",
          "ticks": 79887,
          "time": 64.01195521875,
          "velocity": 0.3937007874015748
        },
        {
          "duration": 0.15384600000000148,
          "durationTicks": 192,
          "midi": 36,
          "name": "C2",
          "ticks": 80079,
          "time": 64.16580121875,
          "velocity": 0.3937007874015748
        },
        {
          "duration": 0.15384600000000148,
          "durationTicks": 192,
          "midi": 48,
          "name": "C3",
          "ticks": 80079,
          "time": 64.16580121875,
          "velocity": 0.3937007874015748
        },
        {
          "duration": 0.23157028125000068,
          "durationTicks": 289,
          "midi": 50,
          "name": "D3",
          "ticks": 80143,
          "time": 64.21708321875,
          "velocity": 0.3937007874015748
        },
        {
          "duration": 0.23157028125000068,
          "durationTicks": 289,
          "midi": 62,
          "name": "D4",
          "ticks": 80143,
          "time": 64.21708321875,
          "velocity": 0.3937007874015748
        },
        {
          "duration": 0.15464728124999283,
          "durationTicks": 193,
          "midi": 36,
          "name": "C2",
          "ticks": 80271,
          "time": 64.31964721875,
          "velocity": 0.3937007874015748
        },
        {
          "duration": 0.15464728124999283,
          "durationTicks": 193,
          "midi": 48,
          "name": "C3",
          "ticks": 80271,
          "time": 64.31964721875,
          "velocity": 0.3937007874015748
        },
        {
          "duration": 0.23157028125000068,
          "durationTicks": 289,
          "midi": 63,
          "name": "D#4",
          "ticks": 80399,
          "time": 64.42221121875001,
          "velocity": 0.3937007874015748
        },
        {
          "duration": 0.23157028125000068,
          "durationTicks": 289,
          "midi": 51,
          "name": "D#3",
          "ticks": 80399,
          "time": 64.42221121875001,
          "velocity": 0.3937007874015748
        },
        {
          "duration": 0.15384600000000148,
          "durationTicks": 192,
          "midi": 36,
          "name": "C2",
          "ticks": 80464,
          "time": 64.4742945,
          "velocity": 0.3937007874015748
        },
        {
          "duration": 0.15384600000000148,
          "durationTicks": 192,
          "midi": 48,
          "name": "C3",
          "ticks": 80464,
          "time": 64.4742945,
          "velocity": 0.3937007874015748
        },
        {
          "duration": 0.30769200000000296,
          "durationTicks": 384,
          "midi": 53,
          "name": "F3",
          "ticks": 80656,
          "time": 64.6281405,
          "velocity": 0.3937007874015748
        },
        {
          "duration": 0.15384600000000148,
          "durationTicks": 192,
          "midi": 36,
          "name": "C2",
          "ticks": 80656,
          "time": 64.6281405,
          "velocity": 0.3937007874015748
        },
        {
          "duration": 0.15384600000000148,
          "durationTicks": 192,
          "midi": 48,
          "name": "C3",
          "ticks": 80656,
          "time": 64.6281405,
          "velocity": 0.3937007874015748
        },
        {
          "duration": 0.30769200000000296,
          "durationTicks": 384,
          "midi": 65,
          "name": "F4",
          "ticks": 80656,
          "time": 64.6281405,
          "velocity": 0.3937007874015748
        },
        {
          "duration": 0.15384600000000148,
          "durationTicks": 192,
          "midi": 31,
          "name": "G1",
          "ticks": 80848,
          "time": 64.7819865,
          "velocity": 0.3937007874015748
        },
        {
          "duration": 0.15384600000000148,
          "durationTicks": 192,
          "midi": 43,
          "name": "G2",
          "ticks": 80848,
          "time": 64.7819865,
          "velocity": 0.3937007874015748
        },
        {
          "duration": 0.30769200000000296,
          "durationTicks": 384,
          "midi": 63,
          "name": "D#4",
          "ticks": 81040,
          "time": 64.9358325,
          "velocity": 0.3937007874015748
        },
        {
          "duration": 0.30769200000000296,
          "durationTicks": 384,
          "midi": 48,
          "name": "C3",
          "ticks": 81040,
          "time": 64.9358325,
          "velocity": 0.3937007874015748
        },
        {
          "duration": 0.30769200000000296,
          "durationTicks": 384,
          "midi": 51,
          "name": "D#3",
          "ticks": 81040,
          "time": 64.9358325,
          "velocity": 0.3937007874015748
        },
        {
          "duration": 0.30769200000000296,
          "durationTicks": 384,
          "midi": 36,
          "name": "C2",
          "ticks": 81040,
          "time": 64.9358325,
          "velocity": 0.3937007874015748
        },
        {
          "duration": 0.46153799999999023,
          "durationTicks": 576,
          "midi": 62,
          "name": "D4",
          "ticks": 81424,
          "time": 65.2435245,
          "velocity": 0.3937007874015748
        },
        {
          "duration": 1.2307679999999976,
          "durationTicks": 1536,
          "midi": 81,
          "name": "A5",
          "ticks": 81424,
          "time": 65.2435245,
          "velocity": 0.3937007874015748
        },
        {
          "duration": 0.15384600000000148,
          "durationTicks": 192,
          "midi": 48,
          "name": "C3",
          "ticks": 81424,
          "time": 65.2435245,
          "velocity": 0.3937007874015748
        },
        {
          "duration": 0.46153799999999023,
          "durationTicks": 576,
          "midi": 50,
          "name": "D3",
          "ticks": 81424,
          "time": 65.2435245,
          "velocity": 0.3937007874015748
        },
        {
          "duration": 0.15384600000000148,
          "durationTicks": 192,
          "midi": 36,
          "name": "C2",
          "ticks": 81424,
          "time": 65.2435245,
          "velocity": 0.3937007874015748
        },
        {
          "duration": 0.30769199999998875,
          "durationTicks": 384,
          "midi": 36,
          "name": "C2",
          "ticks": 81616,
          "time": 65.39737050000001,
          "velocity": 0.3937007874015748
        },
        {
          "duration": 0.30769199999998875,
          "durationTicks": 384,
          "midi": 48,
          "name": "C3",
          "ticks": 81616,
          "time": 65.39737050000001,
          "velocity": 0.3937007874015748
        },
        {
          "duration": 0.7692300000000074,
          "durationTicks": 960,
          "midi": 60,
          "name": "C4",
          "ticks": 82000,
          "time": 65.7050625,
          "velocity": 0.3937007874015748
        },
        {
          "duration": 0.30769200000000296,
          "durationTicks": 384,
          "midi": 48,
          "name": "C3",
          "ticks": 82000,
          "time": 65.7050625,
          "velocity": 0.3937007874015748
        },
        {
          "duration": 0.30769200000000296,
          "durationTicks": 384,
          "midi": 36,
          "name": "C2",
          "ticks": 82000,
          "time": 65.7050625,
          "velocity": 0.3937007874015748
        },
        {
          "duration": 0.7692300000000074,
          "durationTicks": 960,
          "midi": 48,
          "name": "C3",
          "ticks": 82000,
          "time": 65.7050625,
          "velocity": 0.3937007874015748
        },
        {
          "duration": 0.15384600000000148,
          "durationTicks": 192,
          "midi": 31,
          "name": "G1",
          "ticks": 82384,
          "time": 66.0127545,
          "velocity": 0.3937007874015748
        },
        {
          "duration": 0.15384600000000148,
          "durationTicks": 192,
          "midi": 43,
          "name": "G2",
          "ticks": 82384,
          "time": 66.0127545,
          "velocity": 0.3937007874015748
        },
        {
          "duration": 0.30769200000000296,
          "durationTicks": 384,
          "midi": 48,
          "name": "C3",
          "ticks": 82576,
          "time": 66.1666005,
          "velocity": 0.3937007874015748
        },
        {
          "duration": 0.30769200000000296,
          "durationTicks": 384,
          "midi": 36,
          "name": "C2",
          "ticks": 82576,
          "time": 66.1666005,
          "velocity": 0.3937007874015748
        },
        {
          "duration": 0.15384600000000148,
          "durationTicks": 192,
          "midi": 36,
          "name": "C2",
          "ticks": 82960,
          "time": 66.4742925,
          "velocity": 0.3937007874015748
        },
        {
          "duration": 0.15384600000000148,
          "durationTicks": 192,
          "midi": 48,
          "name": "C3",
          "ticks": 82960,
          "time": 66.4742925,
          "velocity": 0.3937007874015748
        },
        {
          "duration": 1.2307679999999976,
          "durationTicks": 1536,
          "midi": 82,
          "name": "A#5",
          "ticks": 82960,
          "time": 66.4742925,
          "velocity": 0.3937007874015748
        },
        {
          "duration": 0.15384600000000148,
          "durationTicks": 192,
          "midi": 36,
          "name": "C2",
          "ticks": 83152,
          "time": 66.6281385,
          "velocity": 0.3937007874015748
        },
        {
          "duration": 0.15384600000000148,
          "durationTicks": 192,
          "midi": 48,
          "name": "C3",
          "ticks": 83152,
          "time": 66.6281385,
          "velocity": 0.3937007874015748
        },
        {
          "duration": 0.15384600000000148,
          "durationTicks": 192,
          "midi": 48,
          "name": "C3",
          "ticks": 83344,
          "time": 66.78198450000001,
          "velocity": 0.3937007874015748
        },
        {
          "duration": 0.30769199999998875,
          "durationTicks": 384,
          "midi": 55,
          "name": "G3",
          "ticks": 83344,
          "time": 66.78198450000001,
          "velocity": 0.3937007874015748
        },
        {
          "duration": 0.15384600000000148,
          "durationTicks": 192,
          "midi": 36,
          "name": "C2",
          "ticks": 83344,
          "time": 66.78198450000001,
          "velocity": 0.3937007874015748
        },
        {
          "duration": 0.30769199999998875,
          "durationTicks": 384,
          "midi": 67,
          "name": "G4",
          "ticks": 83344,
          "time": 66.78198450000001,
          "velocity": 0.3937007874015748
        },
        {
          "duration": 0.15384599999998727,
          "durationTicks": 192,
          "midi": 48,
          "name": "C3",
          "ticks": 83536,
          "time": 66.93583050000001,
          "velocity": 0.3937007874015748
        },
        {
          "duration": 0.15384599999998727,
          "durationTicks": 192,
          "midi": 36,
          "name": "C2",
          "ticks": 83536,
          "time": 66.93583050000001,
          "velocity": 0.3937007874015748
        },
        {
          "duration": 0.30769200000000296,
          "durationTicks": 384,
          "midi": 67,
          "name": "G4",
          "ticks": 83728,
          "time": 67.0896765,
          "velocity": 0.3937007874015748
        },
        {
          "duration": 0.15384600000000148,
          "durationTicks": 192,
          "midi": 36,
          "name": "C2",
          "ticks": 83728,
          "time": 67.0896765,
          "velocity": 0.3937007874015748
        },
        {
          "duration": 0.15384600000000148,
          "durationTicks": 192,
          "midi": 48,
          "name": "C3",
          "ticks": 83728,
          "time": 67.0896765,
          "velocity": 0.3937007874015748
        },
        {
          "duration": 0.30769200000000296,
          "durationTicks": 384,
          "midi": 55,
          "name": "G3",
          "ticks": 83728,
          "time": 67.0896765,
          "velocity": 0.3937007874015748
        },
        {
          "duration": 0.15384600000000148,
          "durationTicks": 192,
          "midi": 31,
          "name": "G1",
          "ticks": 83920,
          "time": 67.2435225,
          "velocity": 0.3937007874015748
        },
        {
          "duration": 0.15384600000000148,
          "durationTicks": 192,
          "midi": 43,
          "name": "G2",
          "ticks": 83920,
          "time": 67.2435225,
          "velocity": 0.3937007874015748
        },
        {
          "duration": 0.30769200000000296,
          "durationTicks": 384,
          "midi": 48,
          "name": "C3",
          "ticks": 84112,
          "time": 67.3973685,
          "velocity": 0.3937007874015748
        },
        {
          "duration": 0.30769200000000296,
          "durationTicks": 384,
          "midi": 67,
          "name": "G4",
          "ticks": 84112,
          "time": 67.3973685,
          "velocity": 0.3937007874015748
        },
        {
          "duration": 0.30769200000000296,
          "durationTicks": 384,
          "midi": 36,
          "name": "C2",
          "ticks": 84112,
          "time": 67.3973685,
          "velocity": 0.3937007874015748
        },
        {
          "duration": 0.30769200000000296,
          "durationTicks": 384,
          "midi": 79,
          "name": "G5",
          "ticks": 84112,
          "time": 67.3973685,
          "velocity": 0.3937007874015748
        },
        {
          "duration": 0.30769200000000296,
          "durationTicks": 384,
          "midi": 44,
          "name": "G#2",
          "ticks": 84496,
          "time": 67.7050605,
          "velocity": 0.3937007874015748
        },
        {
          "duration": 0.30769200000000296,
          "durationTicks": 384,
          "midi": 32,
          "name": "G#1",
          "ticks": 84496,
          "time": 67.7050605,
          "velocity": 0.3937007874015748
        },
        {
          "duration": 0.30769200000000296,
          "durationTicks": 384,
          "midi": 79,
          "name": "G5",
          "ticks": 84496,
          "time": 67.7050605,
          "velocity": 0.3937007874015748
        },
        {
          "duration": 0.30769200000000296,
          "durationTicks": 384,
          "midi": 67,
          "name": "G4",
          "ticks": 84496,
          "time": 67.7050605,
          "velocity": 0.3937007874015748
        },
        {
          "duration": 0.15384600000000148,
          "durationTicks": 192,
          "midi": 67,
          "name": "G4",
          "ticks": 84880,
          "time": 68.0127525,
          "velocity": 0.3937007874015748
        },
        {
          "duration": 0.15384600000000148,
          "durationTicks": 192,
          "midi": 79,
          "name": "G5",
          "ticks": 84880,
          "time": 68.0127525,
          "velocity": 0.3937007874015748
        },
        {
          "duration": 0.15384600000000148,
          "durationTicks": 192,
          "midi": 39,
          "name": "D#2",
          "ticks": 84880,
          "time": 68.0127525,
          "velocity": 0.3937007874015748
        },
        {
          "duration": 0.15384600000000148,
          "durationTicks": 192,
          "midi": 27,
          "name": "D#1",
          "ticks": 84880,
          "time": 68.0127525,
          "velocity": 0.3937007874015748
        },
        {
          "duration": 0.7692299999999932,
          "durationTicks": 960,
          "midi": 77,
          "name": "F5",
          "ticks": 85072,
          "time": 68.1665985,
          "velocity": 0.3937007874015748
        },
        {
          "duration": 0.7692299999999932,
          "durationTicks": 960,
          "midi": 65,
          "name": "F4",
          "ticks": 85072,
          "time": 68.1665985,
          "velocity": 0.3937007874015748
        },
        {
          "duration": 0.30769199999998875,
          "durationTicks": 384,
          "midi": 44,
          "name": "G#2",
          "ticks": 85072,
          "time": 68.1665985,
          "velocity": 0.3937007874015748
        },
        {
          "duration": 0.30769199999998875,
          "durationTicks": 384,
          "midi": 32,
          "name": "G#1",
          "ticks": 85072,
          "time": 68.1665985,
          "velocity": 0.3937007874015748
        },
        {
          "duration": 0.15384600000000148,
          "durationTicks": 192,
          "midi": 27,
          "name": "D#1",
          "ticks": 85456,
          "time": 68.4742905,
          "velocity": 0.3937007874015748
        },
        {
          "duration": 0.15384600000000148,
          "durationTicks": 192,
          "midi": 39,
          "name": "D#2",
          "ticks": 85456,
          "time": 68.4742905,
          "velocity": 0.3937007874015748
        },
        {
          "duration": 0.30769200000000296,
          "durationTicks": 384,
          "midi": 32,
          "name": "G#1",
          "ticks": 85648,
          "time": 68.6281365,
          "velocity": 0.3937007874015748
        },
        {
          "duration": 0.30769200000000296,
          "durationTicks": 384,
          "midi": 44,
          "name": "G#2",
          "ticks": 85648,
          "time": 68.6281365,
          "velocity": 0.3937007874015748
        },
        {
          "duration": 0.30769200000000296,
          "durationTicks": 384,
          "midi": 77,
          "name": "F5",
          "ticks": 86032,
          "time": 68.9358285,
          "velocity": 0.3937007874015748
        },
        {
          "duration": 0.30769200000000296,
          "durationTicks": 384,
          "midi": 65,
          "name": "F4",
          "ticks": 86032,
          "time": 68.9358285,
          "velocity": 0.3937007874015748
        },
        {
          "duration": 0.30769200000000296,
          "durationTicks": 384,
          "midi": 34,
          "name": "A#1",
          "ticks": 86032,
          "time": 68.9358285,
          "velocity": 0.3937007874015748
        },
        {
          "duration": 0.30769200000000296,
          "durationTicks": 384,
          "midi": 46,
          "name": "A#2",
          "ticks": 86032,
          "time": 68.9358285,
          "velocity": 0.3937007874015748
        },
        {
          "duration": 0.30769200000000296,
          "durationTicks": 384,
          "midi": 62,
          "name": "D4",
          "ticks": 86032,
          "time": 68.9358285,
          "velocity": 0.3937007874015748
        },
        {
          "duration": 0.30769200000000296,
          "durationTicks": 384,
          "midi": 65,
          "name": "F4",
          "ticks": 86416,
          "time": 69.2435205,
          "velocity": 0.3937007874015748
        },
        {
          "duration": 0.30769200000000296,
          "durationTicks": 384,
          "midi": 74,
          "name": "D5",
          "ticks": 86416,
          "time": 69.2435205,
          "velocity": 0.3937007874015748
        },
        {
          "duration": 0.30769200000000296,
          "durationTicks": 384,
          "midi": 62,
          "name": "D4",
          "ticks": 86416,
          "time": 69.2435205,
          "velocity": 0.3937007874015748
        },
        {
          "duration": 0.30769200000000296,
          "durationTicks": 384,
          "midi": 77,
          "name": "F5",
          "ticks": 86416,
          "time": 69.2435205,
          "velocity": 0.3937007874015748
        },
        {
          "duration": 0.15384600000000148,
          "durationTicks": 192,
          "midi": 41,
          "name": "F2",
          "ticks": 86416,
          "time": 69.2435205,
          "velocity": 0.3937007874015748
        },
        {
          "duration": 0.15384600000000148,
          "durationTicks": 192,
          "midi": 29,
          "name": "F1",
          "ticks": 86416,
          "time": 69.2435205,
          "velocity": 0.3937007874015748
        },
        {
          "duration": 0.30769200000000296,
          "durationTicks": 384,
          "midi": 46,
          "name": "A#2",
          "ticks": 86608,
          "time": 69.3973665,
          "velocity": 0.3937007874015748
        },
        {
          "duration": 0.30769200000000296,
          "durationTicks": 384,
          "midi": 34,
          "name": "A#1",
          "ticks": 86608,
          "time": 69.3973665,
          "velocity": 0.3937007874015748
        },
        {
          "duration": 0.30769200000000296,
          "durationTicks": 384,
          "midi": 67,
          "name": "G4",
          "ticks": 86800,
          "time": 69.5512125,
          "velocity": 0.3937007874015748
        },
        {
          "duration": 0.30769200000000296,
          "durationTicks": 384,
          "midi": 82,
          "name": "A#5",
          "ticks": 86800,
          "time": 69.5512125,
          "velocity": 0.3937007874015748
        },
        {
          "duration": 0.30769200000000296,
          "durationTicks": 384,
          "midi": 70,
          "name": "A#4",
          "ticks": 86800,
          "time": 69.5512125,
          "velocity": 0.3937007874015748
        },
        {
          "duration": 0.30769200000000296,
          "durationTicks": 384,
          "midi": 79,
          "name": "G5",
          "ticks": 86800,
          "time": 69.5512125,
          "velocity": 0.3937007874015748
        },
        {
          "duration": 0.15384600000000148,
          "durationTicks": 192,
          "midi": 41,
          "name": "F2",
          "ticks": 86992,
          "time": 69.7050585,
          "velocity": 0.3937007874015748
        },
        {
          "duration": 0.15384600000000148,
          "durationTicks": 192,
          "midi": 29,
          "name": "F1",
          "ticks": 86992,
          "time": 69.7050585,
          "velocity": 0.3937007874015748
        },
        {
          "duration": 0.30769199999998875,
          "durationTicks": 384,
          "midi": 34,
          "name": "A#1",
          "ticks": 87184,
          "time": 69.85890450000001,
          "velocity": 0.3937007874015748
        },
        {
          "duration": 0.15384599999998727,
          "durationTicks": 192,
          "midi": 79,
          "name": "G5",
          "ticks": 87184,
          "time": 69.85890450000001,
          "velocity": 0.3937007874015748
        },
        {
          "duration": 0.30769199999998875,
          "durationTicks": 384,
          "midi": 46,
          "name": "A#2",
          "ticks": 87184,
          "time": 69.85890450000001,
          "velocity": 0.3937007874015748
        },
        {
          "duration": 0.15384599999998727,
          "durationTicks": 192,
          "midi": 70,
          "name": "A#4",
          "ticks": 87184,
          "time": 69.85890450000001,
          "velocity": 0.3937007874015748
        },
        {
          "duration": 0.15384599999998727,
          "durationTicks": 192,
          "midi": 82,
          "name": "A#5",
          "ticks": 87184,
          "time": 69.85890450000001,
          "velocity": 0.3937007874015748
        },
        {
          "duration": 0.15384599999998727,
          "durationTicks": 192,
          "midi": 67,
          "name": "G4",
          "ticks": 87184,
          "time": 69.85890450000001,
          "velocity": 0.3937007874015748
        },
        {
          "duration": 1.3846140000000133,
          "durationTicks": 1728,
          "midi": 76,
          "name": "E5",
          "ticks": 87376,
          "time": 70.0127505,
          "velocity": 0.3937007874015748
        },
        {
          "duration": 1.3846140000000133,
          "durationTicks": 1728,
          "midi": 79,
          "name": "G5",
          "ticks": 87376,
          "time": 70.0127505,
          "velocity": 0.3937007874015748
        },
        {
          "duration": 1.3846140000000133,
          "durationTicks": 1728,
          "midi": 67,
          "name": "G4",
          "ticks": 87376,
          "time": 70.0127505,
          "velocity": 0.3937007874015748
        },
        {
          "duration": 1.3846140000000133,
          "durationTicks": 1728,
          "midi": 64,
          "name": "E4",
          "ticks": 87376,
          "time": 70.0127505,
          "velocity": 0.3937007874015748
        },
        {
          "duration": 0.30769200000000296,
          "durationTicks": 384,
          "midi": 36,
          "name": "C2",
          "ticks": 87568,
          "time": 70.1665965,
          "velocity": 0.3937007874015748
        },
        {
          "duration": 0.30769200000000296,
          "durationTicks": 384,
          "midi": 48,
          "name": "C3",
          "ticks": 87568,
          "time": 70.1665965,
          "velocity": 0.3937007874015748
        },
        {
          "duration": 0.15384600000000148,
          "durationTicks": 192,
          "midi": 43,
          "name": "G2",
          "ticks": 87952,
          "time": 70.4742885,
          "velocity": 0.3937007874015748
        },
        {
          "duration": 0.15384600000000148,
          "durationTicks": 192,
          "midi": 31,
          "name": "G1",
          "ticks": 87952,
          "time": 70.4742885,
          "velocity": 0.3937007874015748
        },
        {
          "duration": 0.30769200000000296,
          "durationTicks": 384,
          "midi": 36,
          "name": "C2",
          "ticks": 88144,
          "time": 70.6281345,
          "velocity": 0.3937007874015748
        },
        {
          "duration": 0.30769200000000296,
          "durationTicks": 384,
          "midi": 48,
          "name": "C3",
          "ticks": 88144,
          "time": 70.6281345,
          "velocity": 0.3937007874015748
        },
        {
          "duration": 0.6153840000000059,
          "durationTicks": 768,
          "midi": 70,
          "name": "A#4",
          "ticks": 88336,
          "time": 70.7819805,
          "velocity": 0.3937007874015748
        },
        {
          "duration": 0.15384600000000148,
          "durationTicks": 192,
          "midi": 31,
          "name": "G1",
          "ticks": 88528,
          "time": 70.9358265,
          "velocity": 0.3937007874015748
        },
        {
          "duration": 0.15384600000000148,
          "durationTicks": 192,
          "midi": 43,
          "name": "G2",
          "ticks": 88528,
          "time": 70.9358265,
          "velocity": 0.3937007874015748
        },
        {
          "duration": 0.30769200000000296,
          "durationTicks": 384,
          "midi": 36,
          "name": "C2",
          "ticks": 88720,
          "time": 71.0896725,
          "velocity": 0.3937007874015748
        },
        {
          "duration": 0.30769200000000296,
          "durationTicks": 384,
          "midi": 48,
          "name": "C3",
          "ticks": 88720,
          "time": 71.0896725,
          "velocity": 0.3937007874015748
        },
        {
          "duration": 1.2307679999999976,
          "durationTicks": 1536,
          "midi": 72,
          "name": "C5",
          "ticks": 89104,
          "time": 71.39736450000001,
          "velocity": 0.3937007874015748
        },
        {
          "duration": 0.30769199999998875,
          "durationTicks": 384,
          "midi": 36,
          "name": "C2",
          "ticks": 89104,
          "time": 71.39736450000001,
          "velocity": 0.3937007874015748
        },
        {
          "duration": 0.30769199999998875,
          "durationTicks": 384,
          "midi": 48,
          "name": "C3",
          "ticks": 89104,
          "time": 71.39736450000001,
          "velocity": 0.3937007874015748
        },
        {
          "duration": 0.30769200000000296,
          "durationTicks": 384,
          "midi": 67,
          "name": "G4",
          "ticks": 89488,
          "time": 71.7050565,
          "velocity": 0.3937007874015748
        },
        {
          "duration": 0.15384600000000148,
          "durationTicks": 192,
          "midi": 31,
          "name": "G1",
          "ticks": 89488,
          "time": 71.7050565,
          "velocity": 0.3937007874015748
        },
        {
          "duration": 0.30769200000000296,
          "durationTicks": 384,
          "midi": 55,
          "name": "G3",
          "ticks": 89488,
          "time": 71.7050565,
          "velocity": 0.3937007874015748
        },
        {
          "duration": 0.15384600000000148,
          "durationTicks": 192,
          "midi": 43,
          "name": "G2",
          "ticks": 89488,
          "time": 71.7050565,
          "velocity": 0.3937007874015748
        },
        {
          "duration": 0.30769200000000296,
          "durationTicks": 384,
          "midi": 36,
          "name": "C2",
          "ticks": 89680,
          "time": 71.8589025,
          "velocity": 0.3937007874015748
        },
        {
          "duration": 0.30769200000000296,
          "durationTicks": 384,
          "midi": 48,
          "name": "C3",
          "ticks": 89680,
          "time": 71.8589025,
          "velocity": 0.3937007874015748
        },
        {
          "duration": 0.30769200000000296,
          "durationTicks": 384,
          "midi": 55,
          "name": "G3",
          "ticks": 89872,
          "time": 72.0127485,
          "velocity": 0.3937007874015748
        },
        {
          "duration": 0.30769200000000296,
          "durationTicks": 384,
          "midi": 67,
          "name": "G4",
          "ticks": 89872,
          "time": 72.0127485,
          "velocity": 0.3937007874015748
        },
        {
          "duration": 0.15384600000000148,
          "durationTicks": 192,
          "midi": 43,
          "name": "G2",
          "ticks": 90064,
          "time": 72.1665945,
          "velocity": 0.3937007874015748
        },
        {
          "duration": 0.15384600000000148,
          "durationTicks": 192,
          "midi": 31,
          "name": "G1",
          "ticks": 90064,
          "time": 72.1665945,
          "velocity": 0.3937007874015748
        },
        {
          "duration": 0.30769200000000296,
          "durationTicks": 384,
          "midi": 55,
          "name": "G3",
          "ticks": 90256,
          "time": 72.3204405,
          "velocity": 0.3937007874015748
        },
        {
          "duration": 0.30769200000000296,
          "durationTicks": 384,
          "midi": 67,
          "name": "G4",
          "ticks": 90256,
          "time": 72.3204405,
          "velocity": 0.3937007874015748
        },
        {
          "duration": 0.30769200000000296,
          "durationTicks": 384,
          "midi": 79,
          "name": "G5",
          "ticks": 90256,
          "time": 72.3204405,
          "velocity": 0.3937007874015748
        },
        {
          "duration": 0.30769200000000296,
          "durationTicks": 384,
          "midi": 48,
          "name": "C3",
          "ticks": 90256,
          "time": 72.3204405,
          "velocity": 0.3937007874015748
        },
        {
          "duration": 0.30769200000000296,
          "durationTicks": 384,
          "midi": 36,
          "name": "C2",
          "ticks": 90256,
          "time": 72.3204405,
          "velocity": 0.3937007874015748
        },
        {
          "duration": 0.30769199999998875,
          "durationTicks": 384,
          "midi": 49,
          "name": "C#3",
          "ticks": 90640,
          "time": 72.6281325,
          "velocity": 0.3937007874015748
        },
        {
          "duration": 0.30769199999998875,
          "durationTicks": 384,
          "midi": 56,
          "name": "G#3",
          "ticks": 90640,
          "time": 72.6281325,
          "velocity": 0.3937007874015748
        },
        {
          "duration": 0.30769199999998875,
          "durationTicks": 384,
          "midi": 80,
          "name": "G#5",
          "ticks": 90640,
          "time": 72.6281325,
          "velocity": 0.3937007874015748
        },
        {
          "duration": 0.30769199999998875,
          "durationTicks": 384,
          "midi": 68,
          "name": "G#4",
          "ticks": 90640,
          "time": 72.6281325,
          "velocity": 0.3937007874015748
        },
        {
          "duration": 0.30769199999998875,
          "durationTicks": 384,
          "midi": 75,
          "name": "D#5",
          "ticks": 90640,
          "time": 72.6281325,
          "velocity": 0.3937007874015748
        },
        {
          "duration": 0.30769199999998875,
          "durationTicks": 384,
          "midi": 63,
          "name": "D#4",
          "ticks": 90640,
          "time": 72.6281325,
          "velocity": 0.3937007874015748
        },
        {
          "duration": 0.30769199999998875,
          "durationTicks": 384,
          "midi": 37,
          "name": "C#2",
          "ticks": 90640,
          "time": 72.6281325,
          "velocity": 0.3937007874015748
        },
        {
          "duration": 0.15384600000000148,
          "durationTicks": 192,
          "midi": 75,
          "name": "D#5",
          "ticks": 91024,
          "time": 72.9358245,
          "velocity": 0.3937007874015748
        },
        {
          "duration": 0.15384600000000148,
          "durationTicks": 192,
          "midi": 79,
          "name": "G5",
          "ticks": 91024,
          "time": 72.9358245,
          "velocity": 0.3937007874015748
        },
        {
          "duration": 0.15384600000000148,
          "durationTicks": 192,
          "midi": 63,
          "name": "D#4",
          "ticks": 91024,
          "time": 72.9358245,
          "velocity": 0.3937007874015748
        },
        {
          "duration": 0.15384600000000148,
          "durationTicks": 192,
          "midi": 55,
          "name": "G3",
          "ticks": 91024,
          "time": 72.9358245,
          "velocity": 0.3937007874015748
        },
        {
          "duration": 0.15384600000000148,
          "durationTicks": 192,
          "midi": 32,
          "name": "G#1",
          "ticks": 91024,
          "time": 72.9358245,
          "velocity": 0.3937007874015748
        },
        {
          "duration": 0.15384600000000148,
          "durationTicks": 192,
          "midi": 67,
          "name": "G4",
          "ticks": 91024,
          "time": 72.9358245,
          "velocity": 0.3937007874015748
        },
        {
          "duration": 0.15384600000000148,
          "durationTicks": 192,
          "midi": 44,
          "name": "G#2",
          "ticks": 91024,
          "time": 72.9358245,
          "velocity": 0.3937007874015748
        },
        {
          "duration": 1.0769220000000104,
          "durationTicks": 1344,
          "midi": 65,
          "name": "F4",
          "ticks": 91216,
          "time": 73.0896705,
          "velocity": 0.3937007874015748
        },
        {
          "duration": 1.0769220000000104,
          "durationTicks": 1344,
          "midi": 68,
          "name": "G#4",
          "ticks": 91216,
          "time": 73.0896705,
          "velocity": 0.3937007874015748
        },
        {
          "duration": 1.0769220000000104,
          "durationTicks": 1344,
          "midi": 77,
          "name": "F5",
          "ticks": 91216,
          "time": 73.0896705,
          "velocity": 0.3937007874015748
        },
        {
          "duration": 1.0769220000000104,
          "durationTicks": 1344,
          "midi": 61,
          "name": "C#4",
          "ticks": 91216,
          "time": 73.0896705,
          "velocity": 0.3937007874015748
        },
        {
          "duration": 1.0769220000000104,
          "durationTicks": 1344,
          "midi": 56,
          "name": "G#3",
          "ticks": 91216,
          "time": 73.0896705,
          "velocity": 0.3937007874015748
        },
        {
          "duration": 1.0769220000000104,
          "durationTicks": 1344,
          "midi": 53,
          "name": "F3",
          "ticks": 91216,
          "time": 73.0896705,
          "velocity": 0.3937007874015748
        },
        {
          "duration": 0.30769200000000296,
          "durationTicks": 384,
          "midi": 49,
          "name": "C#3",
          "ticks": 91216,
          "time": 73.0896705,
          "velocity": 0.3937007874015748
        },
        {
          "duration": 0.30769200000000296,
          "durationTicks": 384,
          "midi": 37,
          "name": "C#2",
          "ticks": 91216,
          "time": 73.0896705,
          "velocity": 0.3937007874015748
        },
        {
          "duration": 0.15384600000000148,
          "durationTicks": 192,
          "midi": 44,
          "name": "G#2",
          "ticks": 91600,
          "time": 73.3973625,
          "velocity": 0.3937007874015748
        },
        {
          "duration": 0.15384600000000148,
          "durationTicks": 192,
          "midi": 32,
          "name": "G#1",
          "ticks": 91600,
          "time": 73.3973625,
          "velocity": 0.3937007874015748
        },
        {
          "duration": 0.30769200000000296,
          "durationTicks": 384,
          "midi": 49,
          "name": "C#3",
          "ticks": 91792,
          "time": 73.5512085,
          "velocity": 0.3937007874015748
        },
        {
          "duration": 0.30769200000000296,
          "durationTicks": 384,
          "midi": 37,
          "name": "C#2",
          "ticks": 91792,
          "time": 73.5512085,
          "velocity": 0.3937007874015748
        },
        {
          "duration": 0.30769200000000296,
          "durationTicks": 384,
          "midi": 73,
          "name": "C#5",
          "ticks": 92176,
          "time": 73.8589005,
          "velocity": 0.3937007874015748
        },
        {
          "duration": 0.46153800000000444,
          "durationTicks": 576,
          "midi": 49,
          "name": "C#3",
          "ticks": 92176,
          "time": 73.8589005,
          "velocity": 0.3937007874015748
        },
        {
          "duration": 0.46153800000000444,
          "durationTicks": 576,
          "midi": 73,
          "name": "C#5",
          "ticks": 92176,
          "time": 73.8589005,
          "velocity": 0.3937007874015748
        },
        {
          "duration": 0.46153800000000444,
          "durationTicks": 576,
          "midi": 61,
          "name": "C#4",
          "ticks": 92176,
          "time": 73.8589005,
          "velocity": 0.3937007874015748
        },
        {
          "duration": 0.46153800000000444,
          "durationTicks": 576,
          "midi": 37,
          "name": "C#2",
          "ticks": 92176,
          "time": 73.8589005,
          "velocity": 0.3937007874015748
        },
        {
          "duration": 0.46153799999999023,
          "durationTicks": 576,
          "midi": 32,
          "name": "G#1",
          "ticks": 92752,
          "time": 74.32043850000001,
          "velocity": 0.3937007874015748
        },
        {
          "duration": 0.46153799999999023,
          "durationTicks": 576,
          "midi": 44,
          "name": "G#2",
          "ticks": 92752,
          "time": 74.32043850000001,
          "velocity": 0.3937007874015748
        },
        {
          "duration": 0.46153799999999023,
          "durationTicks": 576,
          "midi": 56,
          "name": "G#3",
          "ticks": 92752,
          "time": 74.32043850000001,
          "velocity": 0.3937007874015748
        },
        {
          "duration": 0.46153799999999023,
          "durationTicks": 576,
          "midi": 68,
          "name": "G#4",
          "ticks": 92752,
          "time": 74.32043850000001,
          "velocity": 0.3937007874015748
        },
        {
          "duration": 0.30769200000000296,
          "durationTicks": 384,
          "midi": 58,
          "name": "A#3",
          "ticks": 93328,
          "time": 74.7819765,
          "velocity": 0.3937007874015748
        },
        {
          "duration": 0.30769200000000296,
          "durationTicks": 384,
          "midi": 34,
          "name": "A#1",
          "ticks": 93328,
          "time": 74.7819765,
          "velocity": 0.3937007874015748
        },
        {
          "duration": 0.30769200000000296,
          "durationTicks": 384,
          "midi": 70,
          "name": "A#4",
          "ticks": 93328,
          "time": 74.7819765,
          "velocity": 0.3937007874015748
        },
        {
          "duration": 0.30769200000000296,
          "durationTicks": 384,
          "midi": 46,
          "name": "A#2",
          "ticks": 93328,
          "time": 74.7819765,
          "velocity": 0.3937007874015748
        },
        {
          "duration": 0.15384600000000148,
          "durationTicks": 192,
          "midi": 67,
          "name": "G4",
          "ticks": 93712,
          "time": 75.0896685,
          "velocity": 0.3937007874015748
        },
        {
          "duration": 0.15384600000000148,
          "durationTicks": 192,
          "midi": 31,
          "name": "G1",
          "ticks": 93712,
          "time": 75.0896685,
          "velocity": 0.3937007874015748
        },
        {
          "duration": 0.15384600000000148,
          "durationTicks": 192,
          "midi": 55,
          "name": "G3",
          "ticks": 93712,
          "time": 75.0896685,
          "velocity": 0.3937007874015748
        },
        {
          "duration": 0.15384600000000148,
          "durationTicks": 192,
          "midi": 43,
          "name": "G2",
          "ticks": 93712,
          "time": 75.0896685,
          "velocity": 0.3937007874015748
        },
        {
          "duration": 0.15384600000000148,
          "durationTicks": 192,
          "midi": 67,
          "name": "G4",
          "ticks": 93904,
          "time": 75.2435145,
          "velocity": 0.3937007874015748
        },
        {
          "duration": 0.15384600000000148,
          "durationTicks": 192,
          "midi": 55,
          "name": "G3",
          "ticks": 93904,
          "time": 75.2435145,
          "velocity": 0.3937007874015748
        },
        {
          "duration": 0.15384600000000148,
          "durationTicks": 192,
          "midi": 31,
          "name": "G1",
          "ticks": 93904,
          "time": 75.2435145,
          "velocity": 0.3937007874015748
        },
        {
          "duration": 0.15384600000000148,
          "durationTicks": 192,
          "midi": 43,
          "name": "G2",
          "ticks": 93904,
          "time": 75.2435145,
          "velocity": 0.3937007874015748
        },
        {
          "duration": 0.30769200000000296,
          "durationTicks": 384,
          "midi": 55,
          "name": "G3",
          "ticks": 94096,
          "time": 75.3973605,
          "velocity": 0.3937007874015748
        },
        {
          "duration": 0.30769200000000296,
          "durationTicks": 384,
          "midi": 67,
          "name": "G4",
          "ticks": 94096,
          "time": 75.3973605,
          "velocity": 0.3937007874015748
        },
        {
          "duration": 0.30769200000000296,
          "durationTicks": 384,
          "midi": 43,
          "name": "G2",
          "ticks": 94096,
          "time": 75.3973605,
          "velocity": 0.3937007874015748
        },
        {
          "duration": 0.30769200000000296,
          "durationTicks": 384,
          "midi": 31,
          "name": "G1",
          "ticks": 94096,
          "time": 75.3973605,
          "velocity": 0.3937007874015748
        },
        {
          "duration": 0.15384600000000148,
          "durationTicks": 192,
          "midi": 63,
          "name": "D#4",
          "ticks": 94864,
          "time": 76.0127445,
          "velocity": 0.3937007874015748
        },
        {
          "duration": 0.15384600000000148,
          "durationTicks": 192,
          "midi": 65,
          "name": "F4",
          "ticks": 95056,
          "time": 76.1665905,
          "velocity": 0.3937007874015748
        },
        {
          "duration": 0.30769200000000296,
          "durationTicks": 384,
          "midi": 63,
          "name": "D#4",
          "ticks": 95248,
          "time": 76.3204365,
          "velocity": 0.3937007874015748
        },
        {
          "duration": 0.30769200000000296,
          "durationTicks": 384,
          "midi": 62,
          "name": "D4",
          "ticks": 95632,
          "time": 76.6281285,
          "velocity": 0.3937007874015748
        },
        {
          "duration": 0.30769200000000296,
          "durationTicks": 384,
          "midi": 55,
          "name": "G3",
          "ticks": 96016,
          "time": 76.9358205,
          "velocity": 0.3937007874015748
        },
        {
          "duration": 0.30769199999998875,
          "durationTicks": 384,
          "midi": 58,
          "name": "A#3",
          "ticks": 96400,
          "time": 77.24351250000001,
          "velocity": 0.3937007874015748
        },
        {
          "duration": 1.5384600000000148,
          "durationTicks": 1920,
          "midi": 48,
          "name": "C3",
          "ticks": 96784,
          "time": 77.5512045,
          "velocity": 0.3937007874015748
        },
        {
          "duration": 0.6153840000000059,
          "durationTicks": 768,
          "midi": 67,
          "name": "G4",
          "ticks": 96784,
          "time": 77.5512045,
          "velocity": 0.3937007874015748
        },
        {
          "duration": 1.5384600000000148,
          "durationTicks": 1920,
          "midi": 51,
          "name": "D#3",
          "ticks": 96784,
          "time": 77.5512045,
          "velocity": 0.3937007874015748
        },
        {
          "duration": 1.5384600000000148,
          "durationTicks": 1920,
          "midi": 43,
          "name": "G2",
          "ticks": 96784,
          "time": 77.5512045,
          "velocity": 0.3937007874015748
        },
        {
          "duration": 1.2307680000000119,
          "durationTicks": 1536,
          "midi": 60,
          "name": "C4",
          "ticks": 96784,
          "time": 77.5512045,
          "velocity": 0.3937007874015748
        },
        {
          "duration": 0.6153840000000059,
          "durationTicks": 768,
          "midi": 65,
          "name": "F4",
          "ticks": 97552,
          "time": 78.1665885,
          "velocity": 0.3937007874015748
        },
        {
          "duration": 0.30769200000000296,
          "durationTicks": 384,
          "midi": 64,
          "name": "E4",
          "ticks": 98320,
          "time": 78.78197250000001,
          "velocity": 0.3937007874015748
        },
        {
          "duration": 1.2307679999999976,
          "durationTicks": 1536,
          "midi": 58,
          "name": "A#3",
          "ticks": 98320,
          "time": 78.78197250000001,
          "velocity": 0.3937007874015748
        },
        {
          "duration": 0.9230759999999947,
          "durationTicks": 1152,
          "midi": 50,
          "name": "D3",
          "ticks": 98704,
          "time": 79.08966450000001,
          "velocity": 0.3937007874015748
        },
        {
          "duration": 0.9230759999999947,
          "durationTicks": 1152,
          "midi": 41,
          "name": "F2",
          "ticks": 98704,
          "time": 79.08966450000001,
          "velocity": 0.3937007874015748
        },
        {
          "duration": 0.9230759999999947,
          "durationTicks": 1152,
          "midi": 46,
          "name": "A#2",
          "ticks": 98704,
          "time": 79.08966450000001,
          "velocity": 0.3937007874015748
        },
        {
          "duration": 0.9230759999999947,
          "durationTicks": 1152,
          "midi": 63,
          "name": "D#4",
          "ticks": 98704,
          "time": 79.08966450000001,
          "velocity": 0.3937007874015748
        },
        {
          "duration": 0.15384600000000148,
          "durationTicks": 192,
          "midi": 65,
          "name": "F4",
          "ticks": 99856,
          "time": 80.0127405,
          "velocity": 0.3937007874015748
        },
        {
          "duration": 0.15384600000000148,
          "durationTicks": 192,
          "midi": 65,
          "name": "F4",
          "ticks": 100048,
          "time": 80.16658650000001,
          "velocity": 0.3937007874015748
        },
        {
          "duration": 0.15384600000000148,
          "durationTicks": 192,
          "midi": 65,
          "name": "F4",
          "ticks": 100240,
          "time": 80.32043250000001,
          "velocity": 0.3937007874015748
        },
        {
          "duration": 0.15384600000000148,
          "durationTicks": 192,
          "midi": 65,
          "name": "F4",
          "ticks": 100432,
          "time": 80.47427850000001,
          "velocity": 0.3937007874015748
        },
        {
          "duration": 0.15384600000000148,
          "durationTicks": 192,
          "midi": 65,
          "name": "F4",
          "ticks": 100624,
          "time": 80.62812450000001,
          "velocity": 0.3937007874015748
        },
        {
          "duration": 0.15384600000000148,
          "durationTicks": 192,
          "midi": 65,
          "name": "F4",
          "ticks": 100816,
          "time": 80.78197050000001,
          "velocity": 0.3937007874015748
        },
        {
          "duration": 0.15384600000000148,
          "durationTicks": 192,
          "midi": 65,
          "name": "F4",
          "ticks": 101008,
          "time": 80.93581650000002,
          "velocity": 0.3937007874015748
        },
        {
          "duration": 0.15384599999998727,
          "durationTicks": 192,
          "midi": 65,
          "name": "F4",
          "ticks": 101200,
          "time": 81.08966250000002,
          "velocity": 0.3937007874015748
        },
        {
          "duration": 0.15384600000000148,
          "durationTicks": 192,
          "midi": 67,
          "name": "G4",
          "ticks": 101392,
          "time": 81.2435085,
          "velocity": 0.3937007874015748
        },
        {
          "duration": 0.15384600000000148,
          "durationTicks": 192,
          "midi": 67,
          "name": "G4",
          "ticks": 101584,
          "time": 81.3973545,
          "velocity": 0.3937007874015748
        },
        {
          "duration": 0.15384600000000148,
          "durationTicks": 192,
          "midi": 67,
          "name": "G4",
          "ticks": 101776,
          "time": 81.55120050000001,
          "velocity": 0.3937007874015748
        },
        {
          "duration": 0.15384600000000148,
          "durationTicks": 192,
          "midi": 67,
          "name": "G4",
          "ticks": 101968,
          "time": 81.70504650000001,
          "velocity": 0.3937007874015748
        },
        {
          "duration": 0.15384600000000148,
          "durationTicks": 192,
          "midi": 67,
          "name": "G4",
          "ticks": 102160,
          "time": 81.85889250000001,
          "velocity": 0.3937007874015748
        },
        {
          "duration": 0.15384600000000148,
          "durationTicks": 192,
          "midi": 67,
          "name": "G4",
          "ticks": 102352,
          "time": 82.01273850000001,
          "velocity": 0.3937007874015748
        },
        {
          "duration": 0.15384600000000148,
          "durationTicks": 192,
          "midi": 67,
          "name": "G4",
          "ticks": 102544,
          "time": 82.16658450000001,
          "velocity": 0.3937007874015748
        },
        {
          "duration": 0.15384600000000148,
          "durationTicks": 192,
          "midi": 67,
          "name": "G4",
          "ticks": 102736,
          "time": 82.32043050000001,
          "velocity": 0.3937007874015748
        },
        {
          "duration": 0.15384600000000148,
          "durationTicks": 192,
          "midi": 68,
          "name": "G#4",
          "ticks": 102928,
          "time": 82.47427650000002,
          "velocity": 0.3937007874015748
        },
        {
          "duration": 0.15384599999998727,
          "durationTicks": 192,
          "midi": 68,
          "name": "G#4",
          "ticks": 103120,
          "time": 82.62812250000002,
          "velocity": 0.3937007874015748
        },
        {
          "duration": 0.15384600000000148,
          "durationTicks": 192,
          "midi": 68,
          "name": "G#4",
          "ticks": 103312,
          "time": 82.7819685,
          "velocity": 0.3937007874015748
        },
        {
          "duration": 0.15384600000000148,
          "durationTicks": 192,
          "midi": 68,
          "name": "G#4",
          "ticks": 103504,
          "time": 82.9358145,
          "velocity": 0.3937007874015748
        },
        {
          "duration": 0.15384600000000148,
          "durationTicks": 192,
          "midi": 68,
          "name": "G#4",
          "ticks": 103696,
          "time": 83.08966050000001,
          "velocity": 0.3937007874015748
        },
        {
          "duration": 0.15384600000000148,
          "durationTicks": 192,
          "midi": 68,
          "name": "G#4",
          "ticks": 103888,
          "time": 83.24350650000001,
          "velocity": 0.3937007874015748
        },
        {
          "duration": 0.15384600000000148,
          "durationTicks": 192,
          "midi": 68,
          "name": "G#4",
          "ticks": 104080,
          "time": 83.39735250000001,
          "velocity": 0.3937007874015748
        },
        {
          "duration": 0.15384600000000148,
          "durationTicks": 192,
          "midi": 68,
          "name": "G#4",
          "ticks": 104272,
          "time": 83.55119850000001,
          "velocity": 0.3937007874015748
        },
        {
          "duration": 0.15384600000000148,
          "durationTicks": 192,
          "midi": 67,
          "name": "G4",
          "ticks": 104464,
          "time": 83.70504450000001,
          "velocity": 0.3937007874015748
        },
        {
          "duration": 0.15384600000000148,
          "durationTicks": 192,
          "midi": 70,
          "name": "A#4",
          "ticks": 104464,
          "time": 83.70504450000001,
          "velocity": 0.3937007874015748
        },
        {
          "duration": 0.15384600000000148,
          "durationTicks": 192,
          "midi": 67,
          "name": "G4",
          "ticks": 104656,
          "time": 83.85889050000002,
          "velocity": 0.3937007874015748
        },
        {
          "duration": 0.15384600000000148,
          "durationTicks": 192,
          "midi": 70,
          "name": "A#4",
          "ticks": 104656,
          "time": 83.85889050000002,
          "velocity": 0.3937007874015748
        },
        {
          "duration": 0.15384600000000148,
          "durationTicks": 192,
          "midi": 67,
          "name": "G4",
          "ticks": 104848,
          "time": 84.01273650000002,
          "velocity": 0.3937007874015748
        },
        {
          "duration": 0.15384600000000148,
          "durationTicks": 192,
          "midi": 70,
          "name": "A#4",
          "ticks": 104848,
          "time": 84.01273650000002,
          "velocity": 0.3937007874015748
        },
        {
          "duration": 0.15384599999998727,
          "durationTicks": 192,
          "midi": 67,
          "name": "G4",
          "ticks": 105040,
          "time": 84.16658250000002,
          "velocity": 0.3937007874015748
        },
        {
          "duration": 0.15384599999998727,
          "durationTicks": 192,
          "midi": 70,
          "name": "A#4",
          "ticks": 105040,
          "time": 84.16658250000002,
          "velocity": 0.3937007874015748
        },
        {
          "duration": 0.15384600000000148,
          "durationTicks": 192,
          "midi": 70,
          "name": "A#4",
          "ticks": 105232,
          "time": 84.3204285,
          "velocity": 0.3937007874015748
        },
        {
          "duration": 0.15384600000000148,
          "durationTicks": 192,
          "midi": 67,
          "name": "G4",
          "ticks": 105232,
          "time": 84.3204285,
          "velocity": 0.3937007874015748
        },
        {
          "duration": 0.15384600000000148,
          "durationTicks": 192,
          "midi": 67,
          "name": "G4",
          "ticks": 105424,
          "time": 84.4742745,
          "velocity": 0.3937007874015748
        },
        {
          "duration": 0.15384600000000148,
          "durationTicks": 192,
          "midi": 70,
          "name": "A#4",
          "ticks": 105424,
          "time": 84.4742745,
          "velocity": 0.3937007874015748
        },
        {
          "duration": 0.15384600000000148,
          "durationTicks": 192,
          "midi": 70,
          "name": "A#4",
          "ticks": 105616,
          "time": 84.62812050000001,
          "velocity": 0.3937007874015748
        },
        {
          "duration": 0.15384600000000148,
          "durationTicks": 192,
          "midi": 67,
          "name": "G4",
          "ticks": 105616,
          "time": 84.62812050000001,
          "velocity": 0.3937007874015748
        },
        {
          "duration": 0.15384600000000148,
          "durationTicks": 192,
          "midi": 67,
          "name": "G4",
          "ticks": 105808,
          "time": 84.78196650000001,
          "velocity": 0.3937007874015748
        },
        {
          "duration": 0.15384600000000148,
          "durationTicks": 192,
          "midi": 70,
          "name": "A#4",
          "ticks": 105808,
          "time": 84.78196650000001,
          "velocity": 0.3937007874015748
        },
        {
          "duration": 3.2307660000000027,
          "durationTicks": 4032,
          "midi": 36,
          "name": "C2",
          "ticks": 106576,
          "time": 85.39735050000002,
          "velocity": 0.3937007874015748
        },
        {
          "duration": 3.2307660000000027,
          "durationTicks": 4032,
          "midi": 48,
          "name": "C3",
          "ticks": 106576,
          "time": 85.39735050000002,
          "velocity": 0.3937007874015748
        },
        {
          "duration": 3.2307660000000027,
          "durationTicks": 4032,
          "midi": 43,
          "name": "G2",
          "ticks": 106576,
          "time": 85.39735050000002,
          "velocity": 0.3937007874015748
        },
        {
          "duration": 3.2307660000000027,
          "durationTicks": 4032,
          "midi": 60,
          "name": "C4",
          "ticks": 106576,
          "time": 85.39735050000002,
          "velocity": 0.3937007874015748
        },
        {
          "duration": 3.2307660000000027,
          "durationTicks": 4032,
          "midi": 72,
          "name": "C5",
          "ticks": 106576,
          "time": 85.39735050000002,
          "velocity": 0.3937007874015748
        },
        {
          "duration": 3.2307660000000027,
          "durationTicks": 4032,
          "midi": 55,
          "name": "G3",
          "ticks": 106576,
          "time": 85.39735050000002,
          "velocity": 0.3937007874015748
        },
        {
          "duration": 3.2307660000000027,
          "durationTicks": 4032,
          "midi": 52,
          "name": "E3",
          "ticks": 106576,
          "time": 85.39735050000002,
          "velocity": 0.3937007874015748
        },
        {
          "duration": 3.2307660000000027,
          "durationTicks": 4032,
          "midi": 40,
          "name": "E2",
          "ticks": 106576,
          "time": 85.39735050000002,
          "velocity": 0.3937007874015748
        },
        {
          "duration": 0.30769199999998875,
          "durationTicks": 384,
          "midi": 48,
          "name": "C3",
          "ticks": 110608,
          "time": 88.62811650000002,
          "velocity": 0.3937007874015748
        },
        {
          "duration": 0.30769200000000296,
          "durationTicks": 384,
          "midi": 48,
          "name": "C3",
          "ticks": 110992,
          "time": 88.93580850000001,
          "velocity": 0.3937007874015748
        },
        {
          "duration": 0.23076899999999512,
          "durationTicks": 288,
          "midi": 51,
          "name": "D#3",
          "ticks": 111376,
          "time": 89.24350050000001,
          "velocity": 0.3937007874015748
        },
        {
          "duration": 0.2315702812500149,
          "durationTicks": 289,
          "midi": 50,
          "name": "D3",
          "ticks": 111632,
          "time": 89.4486285,
          "velocity": 0.3937007874015748
        },
        {
          "duration": 0.2315702812500149,
          "durationTicks": 289,
          "midi": 46,
          "name": "A#2",
          "ticks": 111888,
          "time": 89.6537565,
          "velocity": 0.3937007874015748
        },
        {
          "duration": 0.2315702812500149,
          "durationTicks": 289,
          "midi": 48,
          "name": "C3",
          "ticks": 112145,
          "time": 89.85968578125,
          "velocity": 0.3937007874015748
        },
        {
          "duration": 0.23157028124998646,
          "durationTicks": 289,
          "midi": 41,
          "name": "F2",
          "ticks": 112402,
          "time": 90.06561506250002,
          "velocity": 0.3937007874015748
        },
        {
          "duration": 0.23157028125000068,
          "durationTicks": 289,
          "midi": 43,
          "name": "G2",
          "ticks": 112658,
          "time": 90.2707430625,
          "velocity": 0.3937007874015748
        },
        {
          "duration": 0.23157028124998646,
          "durationTicks": 289,
          "midi": 39,
          "name": "D#2",
          "ticks": 112915,
          "time": 90.47667234375001,
          "velocity": 0.3937007874015748
        },
        {
          "duration": 0.2315702812500149,
          "durationTicks": 289,
          "midi": 47,
          "name": "B2",
          "ticks": 113172,
          "time": 90.682601625,
          "velocity": 0.3937007874015748
        },
        {
          "duration": 0.23157028125000068,
          "durationTicks": 289,
          "midi": 43,
          "name": "G2",
          "ticks": 113428,
          "time": 90.887729625,
          "velocity": 0.3937007874015748
        },
        {
          "duration": 1.2307679999999976,
          "durationTicks": 1536,
          "midi": 36,
          "name": "C2",
          "ticks": 113685,
          "time": 91.09365890625001,
          "velocity": 0.3937007874015748
        },
        {
          "duration": 1.2307679999999976,
          "durationTicks": 1536,
          "midi": 43,
          "name": "G2",
          "ticks": 113685,
          "time": 91.09365890625001,
          "velocity": 0.3937007874015748
        },
        {
          "duration": 1.2307679999999976,
          "durationTicks": 1536,
          "midi": 48,
          "name": "C3",
          "ticks": 113685,
          "time": 91.09365890625001,
          "velocity": 0.3937007874015748
        }
      ],
      "endOfTrackTicks": 115221
    }
  ]
}
