{
  "header": {
    "keySignatures": [],
    "meta": [],
    "name": "Track 0",
    "ppq": 960,
    "tempos": [
      {
        "bpm": 69.99998833333528,
        "ticks": 0
      }
    ],
    "timeSignatures": [
      {
        "ticks": 0,
        "timeSignature": [
          3,
          8
        ],
        "measures": 0
      },
      {
        "ticks": 0,
        "timeSignature": [
          3,
          8
        ],
        "measures": 0
      },
      {
        "ticks": 0,
        "timeSignature": [
          3,
          8
        ],
        "measures": 0
      }
    ]
  },
  "tracks": [
    {
      "channel": 0,
      "controlChanges": {
        "64": [
          {
            "number": 64,
            "ticks": 185733,
            "time": 165.833063353125,
            "value": 1
          },
          {
            "number": 64,
            "ticks": 190048,
            "time": 169.68574256666668,
            "value": 0
          }
        ]
      },
      "pitchBends": [],
      "instrument": {
        "family": "piano",
        "number": 0,
        "name": "acoustic grand piano"
      },
      "name": "Für Elise",
      "notes": [
        {
          "duration": 0.21428574999999994,
          "durationTicks": 240,
          "midi": 76,
          "name": "E5",
          "ticks": 960,
          "time": 0.857143,
          "velocity": 0.5590551181102362
        },
        {
          "duration": 0.21428575000000016,
          "durationTicks": 240,
          "midi": 75,
          "name": "D#5",
          "ticks": 1200,
          "time": 1.07142875,
          "velocity": 0.2992125984251969
        },
        {
          "duration": 0.21428574999999994,
          "durationTicks": 240,
          "midi": 76,
          "name": "E5",
          "ticks": 1440,
          "time": 1.2857145,
          "velocity": 0.44881889763779526
        },
        {
          "duration": 0.21428574999999994,
          "durationTicks": 240,
          "midi": 75,
          "name": "D#5",
          "ticks": 1680,
          "time": 1.50000025,
          "velocity": 0.5511811023622047
        },
        {
          "duration": 0.21428574999999994,
          "durationTicks": 240,
          "midi": 76,
          "name": "E5",
          "ticks": 1920,
          "time": 1.714286,
          "velocity": 0.5984251968503937
        },
        {
          "duration": 0.21428574999999994,
          "durationTicks": 240,
          "midi": 71,
          "name": "B4",
          "ticks": 2160,
          "time": 1.92857175,
          "velocity": 0.5984251968503937
        },
        {
          "duration": 0.21428575000000016,
          "durationTicks": 240,
          "midi": 74,
          "name": "D5",
          "ticks": 2400,
          "time": 2.1428575,
          "velocity": 0.5984251968503937
        },
        {
          "duration": 0.21428575000000016,
          "durationTicks": 240,
          "midi": 72,
          "name": "C5",
          "ticks": 2640,
          "time": 2.35714325,
          "velocity": 0.6535433070866141
        },
        {
          "duration": 0.6428572499999996,
          "durationTicks": 720,
          "midi": 69,
          "name": "A4",
          "ticks": 2880,
          "time": 2.571429,
          "velocity": 0.7007874015748031
        },
        {
          "duration": 0.21428574999999972,
          "durationTicks": 240,
          "midi": 45,
          "name": "A2",
          "ticks": 2880,
          "time": 2.571429,
          "velocity": 0.5039370078740157
        },
        {
          "duration": 0.21428575000000016,
          "durationTicks": 240,
          "midi": 52,
          "name": "E3",
          "ticks": 3120,
          "time": 2.78571475,
          "velocity": 0.5039370078740157
        },
        {
          "duration": 0.21428574999999972,
          "durationTicks": 240,
          "midi": 57,
          "name": "A3",
          "ticks": 3360,
          "time": 3.0000005,
          "velocity": 0.5511811023622047
        },
        {
          "duration": 0.21428575000000016,
          "durationTicks": 240,
          "midi": 60,
          "name": "C4",
          "ticks": 3600,
          "time": 3.21428625,
          "velocity": 0.5984251968503937
        },
        {
          "duration": 0.21428575000000016,
          "durationTicks": 240,
          "midi": 64,
          "name": "E4",
          "ticks": 3840,
          "time": 3.428572,
          "velocity": 0.5984251968503937
        },
        {
          "duration": 0.21428574999999972,
          "durationTicks": 240,
          "midi": 69,
          "name": "A4",
          "ticks": 4080,
          "time": 3.64285775,
          "velocity": 0.5984251968503937
        },
        {
          "duration": 0.64285725,
          "durationTicks": 720,
          "midi": 71,
          "name": "B4",
          "ticks": 4320,
          "time": 3.8571435,
          "velocity": 0.6535433070866141
        },
        {
          "duration": 0.21428574999999972,
          "durationTicks": 240,
          "midi": 40,
          "name": "E2",
          "ticks": 4320,
          "time": 3.8571435,
          "velocity": 0.5039370078740157
        },
        {
          "duration": 0.21428575000000016,
          "durationTicks": 240,
          "midi": 52,
          "name": "E3",
          "ticks": 4560,
          "time": 4.0714292499999996,
          "velocity": 0.5039370078740157
        },
        {
          "duration": 0.21428575000000016,
          "durationTicks": 240,
          "midi": 56,
          "name": "G#3",
          "ticks": 4800,
          "time": 4.285715,
          "velocity": 0.5511811023622047
        },
        {
          "duration": 0.21428575000000016,
          "durationTicks": 240,
          "midi": 64,
          "name": "E4",
          "ticks": 5040,
          "time": 4.50000075,
          "velocity": 0.5984251968503937
        },
        {
          "duration": 0.21428575000000016,
          "durationTicks": 240,
          "midi": 68,
          "name": "G#4",
          "ticks": 5280,
          "time": 4.7142865,
          "velocity": 0.5984251968503937
        },
        {
          "duration": 0.21428575000000016,
          "durationTicks": 240,
          "midi": 71,
          "name": "B4",
          "ticks": 5520,
          "time": 4.92857225,
          "velocity": 0.5984251968503937
        },
        {
          "duration": 0.6428572499999996,
          "durationTicks": 720,
          "midi": 72,
          "name": "C5",
          "ticks": 5760,
          "time": 5.142858,
          "velocity": 0.6535433070866141
        },
        {
          "duration": 0.21428574999999928,
          "durationTicks": 240,
          "midi": 45,
          "name": "A2",
          "ticks": 5760,
          "time": 5.142858,
          "velocity": 0.5039370078740157
        },
        {
          "duration": 0.21428575000000016,
          "durationTicks": 240,
          "midi": 52,
          "name": "E3",
          "ticks": 6000,
          "time": 5.35714375,
          "velocity": 0.5511811023622047
        },
        {
          "duration": 0.21428575000000016,
          "durationTicks": 240,
          "midi": 57,
          "name": "A3",
          "ticks": 6240,
          "time": 5.5714295,
          "velocity": 0.5984251968503937
        },
        {
          "duration": 0.21428575000000016,
          "durationTicks": 240,
          "midi": 64,
          "name": "E4",
          "ticks": 6480,
          "time": 5.78571525,
          "velocity": 0.5984251968503937
        },
        {
          "duration": 0.21428575000000016,
          "durationTicks": 240,
          "midi": 76,
          "name": "E5",
          "ticks": 6720,
          "time": 6.000001,
          "velocity": 0.5984251968503937
        },
        {
          "duration": 0.21428574999999928,
          "durationTicks": 240,
          "midi": 75,
          "name": "D#5",
          "ticks": 6960,
          "time": 6.21428675,
          "velocity": 0.5039370078740157
        },
        {
          "duration": 0.21428575000000016,
          "durationTicks": 240,
          "midi": 76,
          "name": "E5",
          "ticks": 7200,
          "time": 6.4285725,
          "velocity": 0.5984251968503937
        },
        {
          "duration": 0.21428575000000016,
          "durationTicks": 240,
          "midi": 75,
          "name": "D#5",
          "ticks": 7440,
          "time": 6.64285825,
          "velocity": 0.5511811023622047
        },
        {
          "duration": 0.21428575000000016,
          "durationTicks": 240,
          "midi": 76,
          "name": "E5",
          "ticks": 7680,
          "time": 6.857144,
          "velocity": 0.5984251968503937
        },
        {
          "duration": 0.21428575000000016,
          "durationTicks": 240,
          "midi": 71,
          "name": "B4",
          "ticks": 7920,
          "time": 7.07142975,
          "velocity": 0.5984251968503937
        },
        {
          "duration": 0.21428574999999928,
          "durationTicks": 240,
          "midi": 74,
          "name": "D5",
          "ticks": 8160,
          "time": 7.2857155,
          "velocity": 0.5984251968503937
        },
        {
          "duration": 0.21428575000000016,
          "durationTicks": 240,
          "midi": 72,
          "name": "C5",
          "ticks": 8400,
          "time": 7.5000012499999995,
          "velocity": 0.5984251968503937
        },
        {
          "duration": 0.6428572499999996,
          "durationTicks": 720,
          "midi": 69,
          "name": "A4",
          "ticks": 8640,
          "time": 7.714287,
          "velocity": 0.6535433070866141
        },
        {
          "duration": 0.21428575000000016,
          "durationTicks": 240,
          "midi": 45,
          "name": "A2",
          "ticks": 8640,
          "time": 7.714287,
          "velocity": 0.44881889763779526
        },
        {
          "duration": 0.21428574999999928,
          "durationTicks": 240,
          "midi": 52,
          "name": "E3",
          "ticks": 8880,
          "time": 7.92857275,
          "velocity": 0.5039370078740157
        },
        {
          "duration": 0.21428575000000016,
          "durationTicks": 240,
          "midi": 57,
          "name": "A3",
          "ticks": 9120,
          "time": 8.142858499999999,
          "velocity": 0.5511811023622047
        },
        {
          "duration": 0.21428575000000016,
          "durationTicks": 240,
          "midi": 60,
          "name": "C4",
          "ticks": 9360,
          "time": 8.35714425,
          "velocity": 0.5984251968503937
        },
        {
          "duration": 0.21428575000000016,
          "durationTicks": 240,
          "midi": 64,
          "name": "E4",
          "ticks": 9600,
          "time": 8.57143,
          "velocity": 0.5984251968503937
        },
        {
          "duration": 0.21428575000000016,
          "durationTicks": 240,
          "midi": 69,
          "name": "A4",
          "ticks": 9840,
          "time": 8.78571575,
          "velocity": 0.5984251968503937
        },
        {
          "duration": 0.6428572500000005,
          "durationTicks": 720,
          "midi": 71,
          "name": "B4",
          "ticks": 10080,
          "time": 9.0000015,
          "velocity": 0.6535433070866141
        },
        {
          "duration": 0.21428575000000016,
          "durationTicks": 240,
          "midi": 40,
          "name": "E2",
          "ticks": 10080,
          "time": 9.0000015,
          "velocity": 0.5039370078740157
        },
        {
          "duration": 0.21428575000000016,
          "durationTicks": 240,
          "midi": 52,
          "name": "E3",
          "ticks": 10320,
          "time": 9.21428725,
          "velocity": 0.5511811023622047
        },
        {
          "duration": 0.21428575000000016,
          "durationTicks": 240,
          "midi": 56,
          "name": "G#3",
          "ticks": 10560,
          "time": 9.428573,
          "velocity": 0.5984251968503937
        },
        {
          "duration": 0.21428575000000016,
          "durationTicks": 240,
          "midi": 64,
          "name": "E4",
          "ticks": 10800,
          "time": 9.64285875,
          "velocity": 0.5984251968503937
        },
        {
          "duration": 0.21428575000000016,
          "durationTicks": 240,
          "midi": 72,
          "name": "C5",
          "ticks": 11040,
          "time": 9.8571445,
          "velocity": 0.5984251968503937
        },
        {
          "duration": 0.21428575000000016,
          "durationTicks": 240,
          "midi": 71,
          "name": "B4",
          "ticks": 11280,
          "time": 10.07143025,
          "velocity": 0.5984251968503937
        },
        {
          "duration": 0.6428572499999987,
          "durationTicks": 720,
          "midi": 69,
          "name": "A4",
          "ticks": 11520,
          "time": 10.285716,
          "velocity": 0.6535433070866141
        },
        {
          "duration": 0.2142857499999984,
          "durationTicks": 240,
          "midi": 45,
          "name": "A2",
          "ticks": 11520,
          "time": 10.285716,
          "velocity": 0.5039370078740157
        },
        {
          "duration": 0.21428575000000016,
          "durationTicks": 240,
          "midi": 52,
          "name": "E3",
          "ticks": 11760,
          "time": 10.50000175,
          "velocity": 0.5511811023622047
        },
        {
          "duration": 0.21428575000000016,
          "durationTicks": 240,
          "midi": 57,
          "name": "A3",
          "ticks": 12000,
          "time": 10.7142875,
          "velocity": 0.5511811023622047
        },
        {
          "duration": 0.21428575000000016,
          "durationTicks": 240,
          "midi": 76,
          "name": "E5",
          "ticks": 12480,
          "time": 11.142859,
          "velocity": 0.5039370078740157
        },
        {
          "duration": 0.21428575000000016,
          "durationTicks": 240,
          "midi": 75,
          "name": "D#5",
          "ticks": 12720,
          "time": 11.35714475,
          "velocity": 0.5511811023622047
        },
        {
          "duration": 0.21428575000000016,
          "durationTicks": 240,
          "midi": 76,
          "name": "E5",
          "ticks": 12960,
          "time": 11.5714305,
          "velocity": 0.5511811023622047
        },
        {
          "duration": 0.21428575000000016,
          "durationTicks": 240,
          "midi": 75,
          "name": "D#5",
          "ticks": 13200,
          "time": 11.78571625,
          "velocity": 0.5039370078740157
        },
        {
          "duration": 0.21428575000000016,
          "durationTicks": 240,
          "midi": 76,
          "name": "E5",
          "ticks": 13440,
          "time": 12.000002,
          "velocity": 0.5984251968503937
        },
        {
          "duration": 0.21428575000000016,
          "durationTicks": 240,
          "midi": 71,
          "name": "B4",
          "ticks": 13680,
          "time": 12.21428775,
          "velocity": 0.5984251968503937
        },
        {
          "duration": 0.2142857499999984,
          "durationTicks": 240,
          "midi": 74,
          "name": "D5",
          "ticks": 13920,
          "time": 12.4285735,
          "velocity": 0.5984251968503937
        },
        {
          "duration": 0.21428575000000016,
          "durationTicks": 240,
          "midi": 72,
          "name": "C5",
          "ticks": 14160,
          "time": 12.642859249999999,
          "velocity": 0.5984251968503937
        },
        {
          "duration": 0.6428572500000005,
          "durationTicks": 720,
          "midi": 69,
          "name": "A4",
          "ticks": 14400,
          "time": 12.857145,
          "velocity": 0.5984251968503937
        },
        {
          "duration": 0.21428575000000016,
          "durationTicks": 240,
          "midi": 45,
          "name": "A2",
          "ticks": 14400,
          "time": 12.857145,
          "velocity": 0.5984251968503937
        },
        {
          "duration": 0.21428575000000016,
          "durationTicks": 240,
          "midi": 52,
          "name": "E3",
          "ticks": 14640,
          "time": 13.07143075,
          "velocity": 0.5984251968503937
        },
        {
          "duration": 0.21428575000000016,
          "durationTicks": 240,
          "midi": 57,
          "name": "A3",
          "ticks": 14880,
          "time": 13.2857165,
          "velocity": 0.5984251968503937
        },
        {
          "duration": 0.21428575000000016,
          "durationTicks": 240,
          "midi": 60,
          "name": "C4",
          "ticks": 15120,
          "time": 13.50000225,
          "velocity": 0.5984251968503937
        },
        {
          "duration": 0.21428575000000016,
          "durationTicks": 240,
          "midi": 64,
          "name": "E4",
          "ticks": 15360,
          "time": 13.714288,
          "velocity": 0.5984251968503937
        },
        {
          "duration": 0.21428575000000016,
          "durationTicks": 240,
          "midi": 69,
          "name": "A4",
          "ticks": 15600,
          "time": 13.92857375,
          "velocity": 0.5984251968503937
        },
        {
          "duration": 0.6428572500000005,
          "durationTicks": 720,
          "midi": 71,
          "name": "B4",
          "ticks": 15840,
          "time": 14.1428595,
          "velocity": 0.6535433070866141
        },
        {
          "duration": 0.21428575000000016,
          "durationTicks": 240,
          "midi": 40,
          "name": "E2",
          "ticks": 15840,
          "time": 14.1428595,
          "velocity": 0.5039370078740157
        },
        {
          "duration": 0.21428575000000016,
          "durationTicks": 240,
          "midi": 52,
          "name": "E3",
          "ticks": 16080,
          "time": 14.35714525,
          "velocity": 0.5511811023622047
        },
        {
          "duration": 0.21428575000000016,
          "durationTicks": 240,
          "midi": 56,
          "name": "G#3",
          "ticks": 16320,
          "time": 14.571431,
          "velocity": 0.5984251968503937
        },
        {
          "duration": 0.2142857499999984,
          "durationTicks": 240,
          "midi": 64,
          "name": "E4",
          "ticks": 16560,
          "time": 14.78571675,
          "velocity": 0.5984251968503937
        },
        {
          "duration": 0.21428575000000016,
          "durationTicks": 240,
          "midi": 68,
          "name": "G#4",
          "ticks": 16800,
          "time": 15.000002499999999,
          "velocity": 0.5984251968503937
        },
        {
          "duration": 0.21428575000000016,
          "durationTicks": 240,
          "midi": 71,
          "name": "B4",
          "ticks": 17040,
          "time": 15.21428825,
          "velocity": 0.5984251968503937
        },
        {
          "duration": 0.4285715000000003,
          "durationTicks": 480,
          "midi": 72,
          "name": "C5",
          "ticks": 17280,
          "time": 15.428574,
          "velocity": 0.5984251968503937
        },
        {
          "duration": 0.21428575000000016,
          "durationTicks": 240,
          "midi": 45,
          "name": "A2",
          "ticks": 17280,
          "time": 15.428574,
          "velocity": 0.5039370078740157
        },
        {
          "duration": 0.21428575000000016,
          "durationTicks": 240,
          "midi": 52,
          "name": "E3",
          "ticks": 17520,
          "time": 15.64285975,
          "velocity": 0.5984251968503937
        },
        {
          "duration": 0.21428575000000016,
          "durationTicks": 240,
          "midi": 57,
          "name": "A3",
          "ticks": 17760,
          "time": 15.8571455,
          "velocity": 0.5984251968503937
        },
        {
          "duration": 0.2142857499999984,
          "durationTicks": 240,
          "midi": 64,
          "name": "E4",
          "ticks": 18000,
          "time": 16.07143125,
          "velocity": 0.5984251968503937
        },
        {
          "duration": 0.21428575000000194,
          "durationTicks": 240,
          "midi": 76,
          "name": "E5",
          "ticks": 18240,
          "time": 16.285716999999998,
          "velocity": 0.5984251968503937
        },
        {
          "duration": 0.2142857499999984,
          "durationTicks": 240,
          "midi": 75,
          "name": "D#5",
          "ticks": 18480,
          "time": 16.50000275,
          "velocity": 0.5511811023622047
        },
        {
          "duration": 0.21428575000000194,
          "durationTicks": 240,
          "midi": 76,
          "name": "E5",
          "ticks": 18720,
          "time": 16.7142885,
          "velocity": 0.5984251968503937
        },
        {
          "duration": 0.2142857499999984,
          "durationTicks": 240,
          "midi": 75,
          "name": "D#5",
          "ticks": 18960,
          "time": 16.92857425,
          "velocity": 0.5511811023622047
        },
        {
          "duration": 0.21428575000000194,
          "durationTicks": 240,
          "midi": 76,
          "name": "E5",
          "ticks": 19200,
          "time": 17.14286,
          "velocity": 0.5984251968503937
        },
        {
          "duration": 0.2142857499999984,
          "durationTicks": 240,
          "midi": 71,
          "name": "B4",
          "ticks": 19440,
          "time": 17.35714575,
          "velocity": 0.5984251968503937
        },
        {
          "duration": 0.21428575000000194,
          "durationTicks": 240,
          "midi": 74,
          "name": "D5",
          "ticks": 19680,
          "time": 17.5714315,
          "velocity": 0.5984251968503937
        },
        {
          "duration": 0.2142857499999984,
          "durationTicks": 240,
          "midi": 72,
          "name": "C5",
          "ticks": 19920,
          "time": 17.78571725,
          "velocity": 0.5984251968503937
        },
        {
          "duration": 0.4285715000000003,
          "durationTicks": 480,
          "midi": 69,
          "name": "A4",
          "ticks": 20160,
          "time": 18.000003,
          "velocity": 0.5984251968503937
        },
        {
          "duration": 0.21428575000000194,
          "durationTicks": 240,
          "midi": 45,
          "name": "A2",
          "ticks": 20160,
          "time": 18.000003,
          "velocity": 0.5511811023622047
        },
        {
          "duration": 0.2142857499999984,
          "durationTicks": 240,
          "midi": 52,
          "name": "E3",
          "ticks": 20400,
          "time": 18.21428875,
          "velocity": 0.5984251968503937
        },
        {
          "duration": 0.2142857499999984,
          "durationTicks": 240,
          "midi": 57,
          "name": "A3",
          "ticks": 20640,
          "time": 18.4285745,
          "velocity": 0.5984251968503937
        },
        {
          "duration": 0.21428575000000194,
          "durationTicks": 240,
          "midi": 60,
          "name": "C4",
          "ticks": 20880,
          "time": 18.64286025,
          "velocity": 0.5984251968503937
        },
        {
          "duration": 0.2142857499999984,
          "durationTicks": 240,
          "midi": 64,
          "name": "E4",
          "ticks": 21120,
          "time": 18.857146,
          "velocity": 0.5984251968503937
        },
        {
          "duration": 0.21428575000000194,
          "durationTicks": 240,
          "midi": 69,
          "name": "A4",
          "ticks": 21360,
          "time": 19.07143175,
          "velocity": 0.5984251968503937
        },
        {
          "duration": 0.4285715000000003,
          "durationTicks": 480,
          "midi": 71,
          "name": "B4",
          "ticks": 21600,
          "time": 19.2857175,
          "velocity": 0.5984251968503937
        },
        {
          "duration": 0.2142857499999984,
          "durationTicks": 240,
          "midi": 40,
          "name": "E2",
          "ticks": 21600,
          "time": 19.2857175,
          "velocity": 0.5039370078740157
        },
        {
          "duration": 0.21428575000000194,
          "durationTicks": 240,
          "midi": 52,
          "name": "E3",
          "ticks": 21840,
          "time": 19.50000325,
          "velocity": 0.5984251968503937
        },
        {
          "duration": 0.2142857499999984,
          "durationTicks": 240,
          "midi": 56,
          "name": "G#3",
          "ticks": 22080,
          "time": 19.714289,
          "velocity": 0.5984251968503937
        },
        {
          "duration": 0.21428575000000194,
          "durationTicks": 240,
          "midi": 64,
          "name": "E4",
          "ticks": 22320,
          "time": 19.92857475,
          "velocity": 0.5984251968503937
        },
        {
          "duration": 0.2142857499999984,
          "durationTicks": 240,
          "midi": 72,
          "name": "C5",
          "ticks": 22560,
          "time": 20.1428605,
          "velocity": 0.5984251968503937
        },
        {
          "duration": 0.21428575000000194,
          "durationTicks": 240,
          "midi": 71,
          "name": "B4",
          "ticks": 22800,
          "time": 20.35714625,
          "velocity": 0.5984251968503937
        },
        {
          "duration": 0.4285714999999968,
          "durationTicks": 480,
          "midi": 69,
          "name": "A4",
          "ticks": 23040,
          "time": 20.571432,
          "velocity": 0.6535433070866141
        },
        {
          "duration": 0.2142857499999984,
          "durationTicks": 240,
          "midi": 45,
          "name": "A2",
          "ticks": 23040,
          "time": 20.571432,
          "velocity": 0.5984251968503937
        },
        {
          "duration": 0.2142857499999984,
          "durationTicks": 240,
          "midi": 52,
          "name": "E3",
          "ticks": 23280,
          "time": 20.78571775,
          "velocity": 0.5984251968503937
        },
        {
          "duration": 0.21428575000000194,
          "durationTicks": 240,
          "midi": 57,
          "name": "A3",
          "ticks": 23520,
          "time": 21.0000035,
          "velocity": 0.5984251968503937
        },
        {
          "duration": 0.2142857499999984,
          "durationTicks": 240,
          "midi": 71,
          "name": "B4",
          "ticks": 23760,
          "time": 21.21428925,
          "velocity": 0.5984251968503937
        },
        {
          "duration": 0.21428575000000194,
          "durationTicks": 240,
          "midi": 72,
          "name": "C5",
          "ticks": 24000,
          "time": 21.428575,
          "velocity": 0.5984251968503937
        },
        {
          "duration": 0.2142857499999984,
          "durationTicks": 240,
          "midi": 74,
          "name": "D5",
          "ticks": 24240,
          "time": 21.64286075,
          "velocity": 0.5984251968503937
        },
        {
          "duration": 0.6428572500000023,
          "durationTicks": 720,
          "midi": 76,
          "name": "E5",
          "ticks": 24480,
          "time": 21.8571465,
          "velocity": 0.5984251968503937
        },
        {
          "duration": 0.21428575000000194,
          "durationTicks": 240,
          "midi": 48,
          "name": "C3",
          "ticks": 24480,
          "time": 21.8571465,
          "velocity": 0.5511811023622047
        },
        {
          "duration": 0.2142857499999984,
          "durationTicks": 240,
          "midi": 55,
          "name": "G3",
          "ticks": 24720,
          "time": 22.07143225,
          "velocity": 0.5984251968503937
        },
        {
          "duration": 0.21428575000000194,
          "durationTicks": 240,
          "midi": 60,
          "name": "C4",
          "ticks": 24960,
          "time": 22.285718,
          "velocity": 0.5984251968503937
        },
        {
          "duration": 0.2142857499999984,
          "durationTicks": 240,
          "midi": 67,
          "name": "G4",
          "ticks": 25200,
          "time": 22.50000375,
          "velocity": 0.5984251968503937
        },
        {
          "duration": 0.2142857499999984,
          "durationTicks": 240,
          "midi": 77,
          "name": "F5",
          "ticks": 25440,
          "time": 22.7142895,
          "velocity": 0.5984251968503937
        },
        {
          "duration": 0.21428575000000194,
          "durationTicks": 240,
          "midi": 76,
          "name": "E5",
          "ticks": 25680,
          "time": 22.928575249999998,
          "velocity": 0.5984251968503937
        },
        {
          "duration": 0.6428572499999987,
          "durationTicks": 720,
          "midi": 74,
          "name": "D5",
          "ticks": 25920,
          "time": 23.142861,
          "velocity": 0.5984251968503937
        },
        {
          "duration": 0.2142857499999984,
          "durationTicks": 240,
          "midi": 43,
          "name": "G2",
          "ticks": 25920,
          "time": 23.142861,
          "velocity": 0.5039370078740157
        },
        {
          "duration": 0.21428575000000194,
          "durationTicks": 240,
          "midi": 55,
          "name": "G3",
          "ticks": 26160,
          "time": 23.35714675,
          "velocity": 0.5984251968503937
        },
        {
          "duration": 0.2142857499999984,
          "durationTicks": 240,
          "midi": 59,
          "name": "B3",
          "ticks": 26400,
          "time": 23.5714325,
          "velocity": 0.5984251968503937
        },
        {
          "duration": 0.21428575000000194,
          "durationTicks": 240,
          "midi": 65,
          "name": "F4",
          "ticks": 26640,
          "time": 23.78571825,
          "velocity": 0.5984251968503937
        },
        {
          "duration": 0.2142857499999984,
          "durationTicks": 240,
          "midi": 76,
          "name": "E5",
          "ticks": 26880,
          "time": 24.000004,
          "velocity": 0.5984251968503937
        },
        {
          "duration": 0.21428575000000194,
          "durationTicks": 240,
          "midi": 74,
          "name": "D5",
          "ticks": 27120,
          "time": 24.21428975,
          "velocity": 0.5984251968503937
        },
        {
          "duration": 0.6428572499999987,
          "durationTicks": 720,
          "midi": 72,
          "name": "C5",
          "ticks": 27360,
          "time": 24.4285755,
          "velocity": 0.5984251968503937
        },
        {
          "duration": 0.2142857499999984,
          "durationTicks": 240,
          "midi": 45,
          "name": "A2",
          "ticks": 27360,
          "time": 24.4285755,
          "velocity": 0.5039370078740157
        },
        {
          "duration": 0.21428575000000194,
          "durationTicks": 240,
          "midi": 52,
          "name": "E3",
          "ticks": 27600,
          "time": 24.64286125,
          "velocity": 0.5984251968503937
        },
        {
          "duration": 0.2142857499999984,
          "durationTicks": 240,
          "midi": 57,
          "name": "A3",
          "ticks": 27840,
          "time": 24.857147,
          "velocity": 0.5984251968503937
        },
        {
          "duration": 0.2142857499999984,
          "durationTicks": 240,
          "midi": 64,
          "name": "E4",
          "ticks": 28080,
          "time": 25.07143275,
          "velocity": 0.5984251968503937
        },
        {
          "duration": 0.21428575000000194,
          "durationTicks": 240,
          "midi": 74,
          "name": "D5",
          "ticks": 28320,
          "time": 25.285718499999998,
          "velocity": 0.5984251968503937
        },
        {
          "duration": 0.2142857499999984,
          "durationTicks": 240,
          "midi": 72,
          "name": "C5",
          "ticks": 28560,
          "time": 25.50000425,
          "velocity": 0.5984251968503937
        },
        {
          "duration": 0.4285715000000003,
          "durationTicks": 480,
          "midi": 71,
          "name": "B4",
          "ticks": 28800,
          "time": 25.71429,
          "velocity": 0.5984251968503937
        },
        {
          "duration": 0.21428575000000194,
          "durationTicks": 240,
          "midi": 40,
          "name": "E2",
          "ticks": 28800,
          "time": 25.71429,
          "velocity": 0.5039370078740157
        },
        {
          "duration": 0.2142857499999984,
          "durationTicks": 240,
          "midi": 52,
          "name": "E3",
          "ticks": 29040,
          "time": 25.92857575,
          "velocity": 0.5984251968503937
        },
        {
          "duration": 0.21428575000000194,
          "durationTicks": 240,
          "midi": 64,
          "name": "E4",
          "ticks": 29280,
          "time": 26.1428615,
          "velocity": 0.5984251968503937
        },
        {
          "duration": 0.2142857499999984,
          "durationTicks": 240,
          "midi": 64,
          "name": "E4",
          "ticks": 29520,
          "time": 26.35714725,
          "velocity": 0.5984251968503937
        },
        {
          "duration": 0.21428575000000194,
          "durationTicks": 240,
          "midi": 76,
          "name": "E5",
          "ticks": 29760,
          "time": 26.571433,
          "velocity": 0.5984251968503937
        },
        {
          "duration": 0.2142857499999984,
          "durationTicks": 240,
          "midi": 64,
          "name": "E4",
          "ticks": 30000,
          "time": 26.78571875,
          "velocity": 0.5984251968503937
        },
        {
          "duration": 0.21428575000000194,
          "durationTicks": 240,
          "midi": 76,
          "name": "E5",
          "ticks": 30240,
          "time": 27.0000045,
          "velocity": 0.5984251968503937
        },
        {
          "duration": 0.2142857499999984,
          "durationTicks": 240,
          "midi": 76,
          "name": "E5",
          "ticks": 30480,
          "time": 27.21429025,
          "velocity": 0.5511811023622047
        },
        {
          "duration": 0.2142857499999984,
          "durationTicks": 240,
          "midi": 88,
          "name": "E6",
          "ticks": 30720,
          "time": 27.428576,
          "velocity": 0.5039370078740157
        },
        {
          "duration": 0.21428575000000194,
          "durationTicks": 240,
          "midi": 75,
          "name": "D#5",
          "ticks": 30960,
          "time": 27.642861749999998,
          "velocity": 0.5511811023622047
        },
        {
          "duration": 0.2142857499999984,
          "durationTicks": 240,
          "midi": 76,
          "name": "E5",
          "ticks": 31200,
          "time": 27.8571475,
          "velocity": 0.5984251968503937
        },
        {
          "duration": 0.21428575000000194,
          "durationTicks": 240,
          "midi": 75,
          "name": "D#5",
          "ticks": 31440,
          "time": 28.07143325,
          "velocity": 0.5984251968503937
        },
        {
          "duration": 0.2142857499999984,
          "durationTicks": 240,
          "midi": 76,
          "name": "E5",
          "ticks": 31680,
          "time": 28.285719,
          "velocity": 0.5984251968503937
        },
        {
          "duration": 0.21428575000000194,
          "durationTicks": 240,
          "midi": 75,
          "name": "D#5",
          "ticks": 31920,
          "time": 28.50000475,
          "velocity": 0.5984251968503937
        },
        {
          "duration": 0.2142857499999984,
          "durationTicks": 240,
          "midi": 76,
          "name": "E5",
          "ticks": 32160,
          "time": 28.7142905,
          "velocity": 0.5984251968503937
        },
        {
          "duration": 0.21428575000000194,
          "durationTicks": 240,
          "midi": 71,
          "name": "B4",
          "ticks": 32400,
          "time": 28.92857625,
          "velocity": 0.5984251968503937
        },
        {
          "duration": 0.2142857499999984,
          "durationTicks": 240,
          "midi": 74,
          "name": "D5",
          "ticks": 32640,
          "time": 29.142862,
          "velocity": 0.5511811023622047
        },
        {
          "duration": 0.21428575000000194,
          "durationTicks": 240,
          "midi": 72,
          "name": "C5",
          "ticks": 32880,
          "time": 29.35714775,
          "velocity": 0.5984251968503937
        },
        {
          "duration": 0.4285714999999968,
          "durationTicks": 480,
          "midi": 69,
          "name": "A4",
          "ticks": 33120,
          "time": 29.5714335,
          "velocity": 0.5984251968503937
        },
        {
          "duration": 0.2142857499999984,
          "durationTicks": 240,
          "midi": 45,
          "name": "A2",
          "ticks": 33120,
          "time": 29.5714335,
          "velocity": 0.5039370078740157
        },
        {
          "duration": 0.2142857499999984,
          "durationTicks": 240,
          "midi": 52,
          "name": "E3",
          "ticks": 33360,
          "time": 29.78571925,
          "velocity": 0.5511811023622047
        },
        {
          "duration": 0.21428575000000194,
          "durationTicks": 240,
          "midi": 57,
          "name": "A3",
          "ticks": 33600,
          "time": 30.000004999999998,
          "velocity": 0.5984251968503937
        },
        {
          "duration": 0.2142857499999984,
          "durationTicks": 240,
          "midi": 60,
          "name": "C4",
          "ticks": 33840,
          "time": 30.21429075,
          "velocity": 0.5984251968503937
        },
        {
          "duration": 0.21428575000000194,
          "durationTicks": 240,
          "midi": 64,
          "name": "E4",
          "ticks": 34080,
          "time": 30.4285765,
          "velocity": 0.5984251968503937
        },
        {
          "duration": 0.2142857499999984,
          "durationTicks": 240,
          "midi": 69,
          "name": "A4",
          "ticks": 34320,
          "time": 30.64286225,
          "velocity": 0.5984251968503937
        },
        {
          "duration": 0.4285715000000003,
          "durationTicks": 480,
          "midi": 71,
          "name": "B4",
          "ticks": 34560,
          "time": 30.857148,
          "velocity": 0.5984251968503937
        },
        {
          "duration": 0.21428575000000194,
          "durationTicks": 240,
          "midi": 40,
          "name": "E2",
          "ticks": 34560,
          "time": 30.857148,
          "velocity": 0.5039370078740157
        },
        {
          "duration": 0.2142857499999984,
          "durationTicks": 240,
          "midi": 52,
          "name": "E3",
          "ticks": 34800,
          "time": 31.07143375,
          "velocity": 0.5511811023622047
        },
        {
          "duration": 0.21428575000000194,
          "durationTicks": 240,
          "midi": 56,
          "name": "G#3",
          "ticks": 35040,
          "time": 31.2857195,
          "velocity": 0.5984251968503937
        },
        {
          "duration": 0.2142857499999984,
          "durationTicks": 240,
          "midi": 64,
          "name": "E4",
          "ticks": 35280,
          "time": 31.50000525,
          "velocity": 0.5984251968503937
        },
        {
          "duration": 0.21428575000000194,
          "durationTicks": 240,
          "midi": 68,
          "name": "G#4",
          "ticks": 35520,
          "time": 31.714291,
          "velocity": 0.5984251968503937
        },
        {
          "duration": 0.2142857499999984,
          "durationTicks": 240,
          "midi": 71,
          "name": "B4",
          "ticks": 35760,
          "time": 31.92857675,
          "velocity": 0.5984251968503937
        },
        {
          "duration": 0.4285714999999968,
          "durationTicks": 480,
          "midi": 72,
          "name": "C5",
          "ticks": 36000,
          "time": 32.1428625,
          "velocity": 0.5984251968503937
        },
        {
          "duration": 0.21428575000000194,
          "durationTicks": 240,
          "midi": 45,
          "name": "A2",
          "ticks": 36000,
          "time": 32.1428625,
          "velocity": 0.5511811023622047
        },
        {
          "duration": 0.21428574999999483,
          "durationTicks": 240,
          "midi": 52,
          "name": "E3",
          "ticks": 36240,
          "time": 32.35714825,
          "velocity": 0.5984251968503937
        },
        {
          "duration": 0.21428575000000194,
          "durationTicks": 240,
          "midi": 57,
          "name": "A3",
          "ticks": 36480,
          "time": 32.571433999999996,
          "velocity": 0.5984251968503937
        },
        {
          "duration": 0.21428575000000194,
          "durationTicks": 240,
          "midi": 64,
          "name": "E4",
          "ticks": 36720,
          "time": 32.78571975,
          "velocity": 0.5984251968503937
        },
        {
          "duration": 0.21428575000000194,
          "durationTicks": 240,
          "midi": 76,
          "name": "E5",
          "ticks": 36960,
          "time": 33.0000055,
          "velocity": 0.5984251968503937
        },
        {
          "duration": 0.21428574999999483,
          "durationTicks": 240,
          "midi": 75,
          "name": "D#5",
          "ticks": 37200,
          "time": 33.21429125,
          "velocity": 0.5984251968503937
        },
        {
          "duration": 0.21428575000000194,
          "durationTicks": 240,
          "midi": 76,
          "name": "E5",
          "ticks": 37440,
          "time": 33.428577,
          "velocity": 0.5984251968503937
        },
        {
          "duration": 0.21428575000000194,
          "durationTicks": 240,
          "midi": 75,
          "name": "D#5",
          "ticks": 37680,
          "time": 33.64286275,
          "velocity": 0.5511811023622047
        },
        {
          "duration": 0.21428575000000194,
          "durationTicks": 240,
          "midi": 76,
          "name": "E5",
          "ticks": 37920,
          "time": 33.8571485,
          "velocity": 0.5984251968503937
        },
        {
          "duration": 0.21428574999999483,
          "durationTicks": 240,
          "midi": 71,
          "name": "B4",
          "ticks": 38160,
          "time": 34.07143425,
          "velocity": 0.5511811023622047
        },
        {
          "duration": 0.21428575000000194,
          "durationTicks": 240,
          "midi": 74,
          "name": "D5",
          "ticks": 38400,
          "time": 34.28572,
          "velocity": 0.5984251968503937
        },
        {
          "duration": 0.21428575000000194,
          "durationTicks": 240,
          "midi": 72,
          "name": "C5",
          "ticks": 38640,
          "time": 34.50000575,
          "velocity": 0.5984251968503937
        },
        {
          "duration": 0.4285714999999968,
          "durationTicks": 480,
          "midi": 69,
          "name": "A4",
          "ticks": 38880,
          "time": 34.7142915,
          "velocity": 0.6535433070866141
        },
        {
          "duration": 0.21428574999999483,
          "durationTicks": 240,
          "midi": 45,
          "name": "A2",
          "ticks": 38880,
          "time": 34.7142915,
          "velocity": 0.5039370078740157
        },
        {
          "duration": 0.21428575000000194,
          "durationTicks": 240,
          "midi": 52,
          "name": "E3",
          "ticks": 39120,
          "time": 34.92857725,
          "velocity": 0.5984251968503937
        },
        {
          "duration": 0.21428575000000194,
          "durationTicks": 240,
          "midi": 57,
          "name": "A3",
          "ticks": 39360,
          "time": 35.142863,
          "velocity": 0.5984251968503937
        },
        {
          "duration": 0.21428575000000194,
          "durationTicks": 240,
          "midi": 60,
          "name": "C4",
          "ticks": 39600,
          "time": 35.35714875,
          "velocity": 0.5984251968503937
        },
        {
          "duration": 0.21428574999999483,
          "durationTicks": 240,
          "midi": 64,
          "name": "E4",
          "ticks": 39840,
          "time": 35.5714345,
          "velocity": 0.5984251968503937
        },
        {
          "duration": 0.21428575000000194,
          "durationTicks": 240,
          "midi": 69,
          "name": "A4",
          "ticks": 40080,
          "time": 35.78572025,
          "velocity": 0.5984251968503937
        },
        {
          "duration": 0.4285715000000039,
          "durationTicks": 480,
          "midi": 71,
          "name": "B4",
          "ticks": 40320,
          "time": 36.000006,
          "velocity": 0.5984251968503937
        },
        {
          "duration": 0.21428575000000194,
          "durationTicks": 240,
          "midi": 40,
          "name": "E2",
          "ticks": 40320,
          "time": 36.000006,
          "velocity": 0.5039370078740157
        },
        {
          "duration": 0.21428575000000194,
          "durationTicks": 240,
          "midi": 52,
          "name": "E3",
          "ticks": 40560,
          "time": 36.21429175,
          "velocity": 0.5511811023622047
        },
        {
          "duration": 0.21428574999999483,
          "durationTicks": 240,
          "midi": 56,
          "name": "G#3",
          "ticks": 40800,
          "time": 36.4285775,
          "velocity": 0.5984251968503937
        },
        {
          "duration": 0.21428575000000194,
          "durationTicks": 240,
          "midi": 64,
          "name": "E4",
          "ticks": 41040,
          "time": 36.64286325,
          "velocity": 0.5984251968503937
        },
        {
          "duration": 0.21428575000000194,
          "durationTicks": 240,
          "midi": 72,
          "name": "C5",
          "ticks": 41280,
          "time": 36.857149,
          "velocity": 0.5984251968503937
        },
        {
          "duration": 0.21428574999999483,
          "durationTicks": 240,
          "midi": 71,
          "name": "B4",
          "ticks": 41520,
          "time": 37.07143475,
          "velocity": 0.5984251968503937
        },
        {
          "duration": 0.4285715000000039,
          "durationTicks": 480,
          "midi": 69,
          "name": "A4",
          "ticks": 41760,
          "time": 37.2857205,
          "velocity": 0.5984251968503937
        },
        {
          "duration": 0.21428575000000194,
          "durationTicks": 240,
          "midi": 45,
          "name": "A2",
          "ticks": 41760,
          "time": 37.2857205,
          "velocity": 0.5511811023622047
        },
        {
          "duration": 0.21428575000000194,
          "durationTicks": 240,
          "midi": 52,
          "name": "E3",
          "ticks": 42000,
          "time": 37.50000625,
          "velocity": 0.5984251968503937
        },
        {
          "duration": 0.21428575000000194,
          "durationTicks": 240,
          "midi": 57,
          "name": "A3",
          "ticks": 42240,
          "time": 37.714292,
          "velocity": 0.5984251968503937
        },
        {
          "duration": 0.21428574999999483,
          "durationTicks": 240,
          "midi": 71,
          "name": "B4",
          "ticks": 42480,
          "time": 37.92857775,
          "velocity": 0.5984251968503937
        },
        {
          "duration": 0.21428575000000194,
          "durationTicks": 240,
          "midi": 72,
          "name": "C5",
          "ticks": 42720,
          "time": 38.1428635,
          "velocity": 0.5984251968503937
        },
        {
          "duration": 0.21428575000000194,
          "durationTicks": 240,
          "midi": 74,
          "name": "D5",
          "ticks": 42960,
          "time": 38.35714925,
          "velocity": 0.5984251968503937
        },
        {
          "duration": 0.6428572499999987,
          "durationTicks": 720,
          "midi": 76,
          "name": "E5",
          "ticks": 43200,
          "time": 38.571435,
          "velocity": 0.5984251968503937
        },
        {
          "duration": 0.21428575000000194,
          "durationTicks": 240,
          "midi": 48,
          "name": "C3",
          "ticks": 43200,
          "time": 38.571435,
          "velocity": 0.5039370078740157
        },
        {
          "duration": 0.21428574999999483,
          "durationTicks": 240,
          "midi": 55,
          "name": "G3",
          "ticks": 43440,
          "time": 38.78572075,
          "velocity": 0.5511811023622047
        },
        {
          "duration": 0.21428575000000194,
          "durationTicks": 240,
          "midi": 60,
          "name": "C4",
          "ticks": 43680,
          "time": 39.0000065,
          "velocity": 0.5984251968503937
        },
        {
          "duration": 0.21428575000000194,
          "durationTicks": 240,
          "midi": 67,
          "name": "G4",
          "ticks": 43920,
          "time": 39.21429225,
          "velocity": 0.5984251968503937
        },
        {
          "duration": 0.21428574999999483,
          "durationTicks": 240,
          "midi": 77,
          "name": "F5",
          "ticks": 44160,
          "time": 39.428578,
          "velocity": 0.5984251968503937
        },
        {
          "duration": 0.21428575000000194,
          "durationTicks": 240,
          "midi": 76,
          "name": "E5",
          "ticks": 44400,
          "time": 39.64286375,
          "velocity": 0.5984251968503937
        },
        {
          "duration": 0.6428572499999987,
          "durationTicks": 720,
          "midi": 74,
          "name": "D5",
          "ticks": 44640,
          "time": 39.8571495,
          "velocity": 0.5984251968503937
        },
        {
          "duration": 0.21428575000000194,
          "durationTicks": 240,
          "midi": 43,
          "name": "G2",
          "ticks": 44640,
          "time": 39.8571495,
          "velocity": 0.5039370078740157
        },
        {
          "duration": 0.21428575000000194,
          "durationTicks": 240,
          "midi": 55,
          "name": "G3",
          "ticks": 44880,
          "time": 40.07143525,
          "velocity": 0.5511811023622047
        },
        {
          "duration": 0.21428574999999483,
          "durationTicks": 240,
          "midi": 59,
          "name": "B3",
          "ticks": 45120,
          "time": 40.285721,
          "velocity": 0.5984251968503937
        },
        {
          "duration": 0.21428575000000194,
          "durationTicks": 240,
          "midi": 65,
          "name": "F4",
          "ticks": 45360,
          "time": 40.50000675,
          "velocity": 0.5984251968503937
        },
        {
          "duration": 0.21428575000000194,
          "durationTicks": 240,
          "midi": 76,
          "name": "E5",
          "ticks": 45600,
          "time": 40.7142925,
          "velocity": 0.5984251968503937
        },
        {
          "duration": 0.21428575000000194,
          "durationTicks": 240,
          "midi": 74,
          "name": "D5",
          "ticks": 45840,
          "time": 40.92857825,
          "velocity": 0.5984251968503937
        },
        {
          "duration": 0.6428572499999987,
          "durationTicks": 720,
          "midi": 72,
          "name": "C5",
          "ticks": 46080,
          "time": 41.142864,
          "velocity": 0.6535433070866141
        },
        {
          "duration": 0.21428574999999483,
          "durationTicks": 240,
          "midi": 45,
          "name": "A2",
          "ticks": 46080,
          "time": 41.142864,
          "velocity": 0.5511811023622047
        },
        {
          "duration": 0.21428575000000194,
          "durationTicks": 240,
          "midi": 52,
          "name": "E3",
          "ticks": 46320,
          "time": 41.35714975,
          "velocity": 0.5511811023622047
        },
        {
          "duration": 0.21428575000000194,
          "durationTicks": 240,
          "midi": 57,
          "name": "A3",
          "ticks": 46560,
          "time": 41.5714355,
          "velocity": 0.5984251968503937
        },
        {
          "duration": 0.21428574999999483,
          "durationTicks": 240,
          "midi": 64,
          "name": "E4",
          "ticks": 46800,
          "time": 41.78572125,
          "velocity": 0.5984251968503937
        },
        {
          "duration": 0.21428575000000194,
          "durationTicks": 240,
          "midi": 74,
          "name": "D5",
          "ticks": 47040,
          "time": 42.000007,
          "velocity": 0.5984251968503937
        },
        {
          "duration": 0.21428575000000194,
          "durationTicks": 240,
          "midi": 72,
          "name": "C5",
          "ticks": 47280,
          "time": 42.21429275,
          "velocity": 0.5984251968503937
        },
        {
          "duration": 0.4285714999999968,
          "durationTicks": 480,
          "midi": 71,
          "name": "B4",
          "ticks": 47520,
          "time": 42.4285785,
          "velocity": 0.6535433070866141
        },
        {
          "duration": 0.21428575000000194,
          "durationTicks": 240,
          "midi": 40,
          "name": "E2",
          "ticks": 47520,
          "time": 42.4285785,
          "velocity": 0.5039370078740157
        },
        {
          "duration": 0.21428574999999483,
          "durationTicks": 240,
          "midi": 52,
          "name": "E3",
          "ticks": 47760,
          "time": 42.64286425,
          "velocity": 0.5511811023622047
        },
        {
          "duration": 0.21428575000000194,
          "durationTicks": 240,
          "midi": 64,
          "name": "E4",
          "ticks": 48000,
          "time": 42.85715,
          "velocity": 0.5984251968503937
        },
        {
          "duration": 0.21428575000000194,
          "durationTicks": 240,
          "midi": 64,
          "name": "E4",
          "ticks": 48240,
          "time": 43.07143575,
          "velocity": 0.5984251968503937
        },
        {
          "duration": 0.21428574999999483,
          "durationTicks": 240,
          "midi": 76,
          "name": "E5",
          "ticks": 48480,
          "time": 43.2857215,
          "velocity": 0.6535433070866141
        },
        {
          "duration": 0.21428575000000194,
          "durationTicks": 240,
          "midi": 64,
          "name": "E4",
          "ticks": 48720,
          "time": 43.500007249999996,
          "velocity": 0.5984251968503937
        },
        {
          "duration": 0.21428575000000194,
          "durationTicks": 240,
          "midi": 76,
          "name": "E5",
          "ticks": 48960,
          "time": 43.714293,
          "velocity": 0.5984251968503937
        },
        {
          "duration": 0.21428575000000194,
          "durationTicks": 240,
          "midi": 76,
          "name": "E5",
          "ticks": 49200,
          "time": 43.92857875,
          "velocity": 0.5511811023622047
        },
        {
          "duration": 0.21428574999999483,
          "durationTicks": 240,
          "midi": 88,
          "name": "E6",
          "ticks": 49440,
          "time": 44.1428645,
          "velocity": 0.5039370078740157
        },
        {
          "duration": 0.21428575000000194,
          "durationTicks": 240,
          "midi": 75,
          "name": "D#5",
          "ticks": 49680,
          "time": 44.35715025,
          "velocity": 0.5984251968503937
        },
        {
          "duration": 0.21428575000000194,
          "durationTicks": 240,
          "midi": 76,
          "name": "E5",
          "ticks": 49920,
          "time": 44.571436,
          "velocity": 0.5511811023622047
        },
        {
          "duration": 0.21428575000000194,
          "durationTicks": 240,
          "midi": 75,
          "name": "D#5",
          "ticks": 50160,
          "time": 44.78572175,
          "velocity": 0.5984251968503937
        },
        {
          "duration": 0.21428574999999483,
          "durationTicks": 240,
          "midi": 76,
          "name": "E5",
          "ticks": 50400,
          "time": 45.0000075,
          "velocity": 0.5984251968503937
        },
        {
          "duration": 0.21428575000000194,
          "durationTicks": 240,
          "midi": 75,
          "name": "D#5",
          "ticks": 50640,
          "time": 45.21429325,
          "velocity": 0.5984251968503937
        },
        {
          "duration": 0.21428575000000194,
          "durationTicks": 240,
          "midi": 76,
          "name": "E5",
          "ticks": 50880,
          "time": 45.428579,
          "velocity": 0.5984251968503937
        },
        {
          "duration": 0.21428574999999483,
          "durationTicks": 240,
          "midi": 71,
          "name": "B4",
          "ticks": 51120,
          "time": 45.64286475,
          "velocity": 0.5984251968503937
        },
        {
          "duration": 0.21428575000000194,
          "durationTicks": 240,
          "midi": 74,
          "name": "D5",
          "ticks": 51360,
          "time": 45.857150499999996,
          "velocity": 0.5984251968503937
        },
        {
          "duration": 0.21428575000000194,
          "durationTicks": 240,
          "midi": 72,
          "name": "C5",
          "ticks": 51600,
          "time": 46.07143625,
          "velocity": 0.5984251968503937
        },
        {
          "duration": 0.4285714999999968,
          "durationTicks": 480,
          "midi": 69,
          "name": "A4",
          "ticks": 51840,
          "time": 46.285722,
          "velocity": 0.6535433070866141
        },
        {
          "duration": 0.21428575000000194,
          "durationTicks": 240,
          "midi": 45,
          "name": "A2",
          "ticks": 51840,
          "time": 46.285722,
          "velocity": 0.5039370078740157
        },
        {
          "duration": 0.21428574999999483,
          "durationTicks": 240,
          "midi": 52,
          "name": "E3",
          "ticks": 52080,
          "time": 46.50000775,
          "velocity": 0.5511811023622047
        },
        {
          "duration": 0.21428575000000194,
          "durationTicks": 240,
          "midi": 57,
          "name": "A3",
          "ticks": 52320,
          "time": 46.7142935,
          "velocity": 0.5984251968503937
        },
        {
          "duration": 0.21428575000000194,
          "durationTicks": 240,
          "midi": 60,
          "name": "C4",
          "ticks": 52560,
          "time": 46.92857925,
          "velocity": 0.5511811023622047
        },
        {
          "duration": 0.21428575000000194,
          "durationTicks": 240,
          "midi": 64,
          "name": "E4",
          "ticks": 52800,
          "time": 47.142865,
          "velocity": 0.5984251968503937
        },
        {
          "duration": 0.21428574999999483,
          "durationTicks": 240,
          "midi": 69,
          "name": "A4",
          "ticks": 53040,
          "time": 47.35715075,
          "velocity": 0.5984251968503937
        },
        {
          "duration": 0.4285715000000039,
          "durationTicks": 480,
          "midi": 71,
          "name": "B4",
          "ticks": 53280,
          "time": 47.5714365,
          "velocity": 0.5984251968503937
        },
        {
          "duration": 0.21428575000000194,
          "durationTicks": 240,
          "midi": 40,
          "name": "E2",
          "ticks": 53280,
          "time": 47.5714365,
          "velocity": 0.5039370078740157
        },
        {
          "duration": 0.21428575000000194,
          "durationTicks": 240,
          "midi": 52,
          "name": "E3",
          "ticks": 53520,
          "time": 47.78572225,
          "velocity": 0.5984251968503937
        },
        {
          "duration": 0.21428574999999483,
          "durationTicks": 240,
          "midi": 56,
          "name": "G#3",
          "ticks": 53760,
          "time": 48.000008,
          "velocity": 0.5984251968503937
        },
        {
          "duration": 0.21428575000000194,
          "durationTicks": 240,
          "midi": 64,
          "name": "E4",
          "ticks": 54000,
          "time": 48.214293749999996,
          "velocity": 0.5984251968503937
        },
        {
          "duration": 0.21428575000000194,
          "durationTicks": 240,
          "midi": 68,
          "name": "G#4",
          "ticks": 54240,
          "time": 48.4285795,
          "velocity": 0.5984251968503937
        },
        {
          "duration": 0.21428575000000194,
          "durationTicks": 240,
          "midi": 71,
          "name": "B4",
          "ticks": 54480,
          "time": 48.64286525,
          "velocity": 0.5984251968503937
        },
        {
          "duration": 0.4285714999999968,
          "durationTicks": 480,
          "midi": 72,
          "name": "C5",
          "ticks": 54720,
          "time": 48.857151,
          "velocity": 0.5984251968503937
        },
        {
          "duration": 0.21428574999999483,
          "durationTicks": 240,
          "midi": 45,
          "name": "A2",
          "ticks": 54720,
          "time": 48.857151,
          "velocity": 0.5984251968503937
        },
        {
          "duration": 0.21428575000000194,
          "durationTicks": 240,
          "midi": 52,
          "name": "E3",
          "ticks": 54960,
          "time": 49.07143675,
          "velocity": 0.5984251968503937
        },
        {
          "duration": 0.21428575000000194,
          "durationTicks": 240,
          "midi": 57,
          "name": "A3",
          "ticks": 55200,
          "time": 49.2857225,
          "velocity": 0.5984251968503937
        },
        {
          "duration": 0.21428575000000194,
          "durationTicks": 240,
          "midi": 64,
          "name": "E4",
          "ticks": 55440,
          "time": 49.50000825,
          "velocity": 0.5984251968503937
        },
        {
          "duration": 0.21428574999999483,
          "durationTicks": 240,
          "midi": 76,
          "name": "E5",
          "ticks": 55680,
          "time": 49.714294,
          "velocity": 0.5984251968503937
        },
        {
          "duration": 0.21428575000000194,
          "durationTicks": 240,
          "midi": 75,
          "name": "D#5",
          "ticks": 55920,
          "time": 49.92857975,
          "velocity": 0.5984251968503937
        },
        {
          "duration": 0.21428575000000194,
          "durationTicks": 240,
          "midi": 76,
          "name": "E5",
          "ticks": 56160,
          "time": 50.1428655,
          "velocity": 0.5984251968503937
        },
        {
          "duration": 0.21428574999999483,
          "durationTicks": 240,
          "midi": 75,
          "name": "D#5",
          "ticks": 56400,
          "time": 50.35715125,
          "velocity": 0.5511811023622047
        },
        {
          "duration": 0.21428575000000194,
          "durationTicks": 240,
          "midi": 76,
          "name": "E5",
          "ticks": 56640,
          "time": 50.571436999999996,
          "velocity": 0.5984251968503937
        },
        {
          "duration": 0.21428575000000194,
          "durationTicks": 240,
          "midi": 71,
          "name": "B4",
          "ticks": 56880,
          "time": 50.78572275,
          "velocity": 0.5984251968503937
        },
        {
          "duration": 0.21428575000000194,
          "durationTicks": 240,
          "midi": 74,
          "name": "D5",
          "ticks": 57120,
          "time": 51.0000085,
          "velocity": 0.5984251968503937
        },
        {
          "duration": 0.21428574999999483,
          "durationTicks": 240,
          "midi": 72,
          "name": "C5",
          "ticks": 57360,
          "time": 51.21429425,
          "velocity": 0.5511811023622047
        },
        {
          "duration": 0.4285715000000039,
          "durationTicks": 480,
          "midi": 69,
          "name": "A4",
          "ticks": 57600,
          "time": 51.42858,
          "velocity": 0.5984251968503937
        },
        {
          "duration": 0.21428575000000194,
          "durationTicks": 240,
          "midi": 45,
          "name": "A2",
          "ticks": 57600,
          "time": 51.42858,
          "velocity": 0.5039370078740157
        },
        {
          "duration": 0.21428575000000194,
          "durationTicks": 240,
          "midi": 52,
          "name": "E3",
          "ticks": 57840,
          "time": 51.64286575,
          "velocity": 0.5511811023622047
        },
        {
          "duration": 0.21428575000000194,
          "durationTicks": 240,
          "midi": 57,
          "name": "A3",
          "ticks": 58080,
          "time": 51.8571515,
          "velocity": 0.5984251968503937
        },
        {
          "duration": 0.21428574999999483,
          "durationTicks": 240,
          "midi": 60,
          "name": "C4",
          "ticks": 58320,
          "time": 52.07143725,
          "velocity": 0.5984251968503937
        },
        {
          "duration": 0.21428575000000194,
          "durationTicks": 240,
          "midi": 64,
          "name": "E4",
          "ticks": 58560,
          "time": 52.285723,
          "velocity": 0.5984251968503937
        },
        {
          "duration": 0.21428575000000194,
          "durationTicks": 240,
          "midi": 69,
          "name": "A4",
          "ticks": 58800,
          "time": 52.50000875,
          "velocity": 0.5984251968503937
        },
        {
          "duration": 0.4285714999999968,
          "durationTicks": 480,
          "midi": 71,
          "name": "B4",
          "ticks": 59040,
          "time": 52.7142945,
          "velocity": 0.5984251968503937
        },
        {
          "duration": 0.21428574999999483,
          "durationTicks": 240,
          "midi": 40,
          "name": "E2",
          "ticks": 59040,
          "time": 52.7142945,
          "velocity": 0.5039370078740157
        },
        {
          "duration": 0.21428575000000194,
          "durationTicks": 240,
          "midi": 52,
          "name": "E3",
          "ticks": 59280,
          "time": 52.928580249999996,
          "velocity": 0.5039370078740157
        },
        {
          "duration": 0.21428575000000194,
          "durationTicks": 240,
          "midi": 56,
          "name": "G#3",
          "ticks": 59520,
          "time": 53.142866,
          "velocity": 0.5511811023622047
        },
        {
          "duration": 0.21428575000000194,
          "durationTicks": 240,
          "midi": 64,
          "name": "E4",
          "ticks": 59760,
          "time": 53.35715175,
          "velocity": 0.5984251968503937
        },
        {
          "duration": 0.21428574999999483,
          "durationTicks": 240,
          "midi": 72,
          "name": "C5",
          "ticks": 60000,
          "time": 53.5714375,
          "velocity": 0.5984251968503937
        },
        {
          "duration": 0.21428575000000194,
          "durationTicks": 240,
          "midi": 71,
          "name": "B4",
          "ticks": 60240,
          "time": 53.78572325,
          "velocity": 0.5984251968503937
        },
        {
          "duration": 0.4285715000000039,
          "durationTicks": 480,
          "midi": 69,
          "name": "A4",
          "ticks": 60480,
          "time": 54.000009,
          "velocity": 0.7007874015748031
        },
        {
          "duration": 0.21428575000000194,
          "durationTicks": 240,
          "midi": 45,
          "name": "A2",
          "ticks": 60480,
          "time": 54.000009,
          "velocity": 0.5511811023622047
        },
        {
          "duration": 0.21428575000000194,
          "durationTicks": 240,
          "midi": 52,
          "name": "E3",
          "ticks": 60720,
          "time": 54.21429475,
          "velocity": 0.5984251968503937
        },
        {
          "duration": 0.21428574999999483,
          "durationTicks": 240,
          "midi": 57,
          "name": "A3",
          "ticks": 60960,
          "time": 54.4285805,
          "velocity": 0.6535433070866141
        },
        {
          "duration": 0.10714287500000097,
          "durationTicks": 120,
          "midi": 58,
          "name": "A#3",
          "ticks": 61200,
          "time": 54.64286625,
          "velocity": 0.4015748031496063
        },
        {
          "duration": 0.10714287500000097,
          "durationTicks": 120,
          "midi": 60,
          "name": "C4",
          "ticks": 61200,
          "time": 54.64286625,
          "velocity": 0.4015748031496063
        },
        {
          "duration": 0.10714287500000097,
          "durationTicks": 120,
          "midi": 64,
          "name": "E4",
          "ticks": 61200,
          "time": 54.64286625,
          "velocity": 0.4015748031496063
        },
        {
          "duration": 0.10714287500000097,
          "durationTicks": 120,
          "midi": 72,
          "name": "C5",
          "ticks": 61200,
          "time": 54.64286625,
          "velocity": 0.4015748031496063
        },
        {
          "duration": 0.10714287500000097,
          "durationTicks": 120,
          "midi": 60,
          "name": "C4",
          "ticks": 61440,
          "time": 54.857152,
          "velocity": 0.5039370078740157
        },
        {
          "duration": 0.10714287500000097,
          "durationTicks": 120,
          "midi": 57,
          "name": "A3",
          "ticks": 61440,
          "time": 54.857152,
          "velocity": 0.5039370078740157
        },
        {
          "duration": 0.10714287500000097,
          "durationTicks": 120,
          "midi": 65,
          "name": "F4",
          "ticks": 61440,
          "time": 54.857152,
          "velocity": 0.5039370078740157
        },
        {
          "duration": 0.10714287500000097,
          "durationTicks": 120,
          "midi": 72,
          "name": "C5",
          "ticks": 61440,
          "time": 54.857152,
          "velocity": 0.5039370078740157
        },
        {
          "duration": 0.10714287500000097,
          "durationTicks": 120,
          "midi": 58,
          "name": "A#3",
          "ticks": 61680,
          "time": 55.07143775,
          "velocity": 0.6141732283464567
        },
        {
          "duration": 0.10714287500000097,
          "durationTicks": 120,
          "midi": 60,
          "name": "C4",
          "ticks": 61680,
          "time": 55.07143775,
          "velocity": 0.6141732283464567
        },
        {
          "duration": 0.10714287500000097,
          "durationTicks": 120,
          "midi": 55,
          "name": "G3",
          "ticks": 61680,
          "time": 55.07143775,
          "velocity": 0.6141732283464567
        },
        {
          "duration": 0.10714287500000097,
          "durationTicks": 120,
          "midi": 64,
          "name": "E4",
          "ticks": 61680,
          "time": 55.07143775,
          "velocity": 0.5511811023622047
        },
        {
          "duration": 0.10714287500000097,
          "durationTicks": 120,
          "midi": 72,
          "name": "C5",
          "ticks": 61680,
          "time": 55.07143775,
          "velocity": 0.6535433070866141
        },
        {
          "duration": 0.10714287500000097,
          "durationTicks": 120,
          "midi": 67,
          "name": "G4",
          "ticks": 61680,
          "time": 55.07143775,
          "velocity": 0.5511811023622047
        },
        {
          "duration": 0.8571430000000007,
          "durationTicks": 960,
          "midi": 72,
          "name": "C5",
          "ticks": 61920,
          "time": 55.285723499999996,
          "velocity": 0.7480314960629921
        },
        {
          "duration": 0.21428575000000194,
          "durationTicks": 240,
          "midi": 53,
          "name": "F3",
          "ticks": 61920,
          "time": 55.285723499999996,
          "velocity": 0.5984251968503937
        },
        {
          "duration": 0.21428575000000194,
          "durationTicks": 240,
          "midi": 57,
          "name": "A3",
          "ticks": 62160,
          "time": 55.50000925,
          "velocity": 0.5984251968503937
        },
        {
          "duration": 0.21428575000000194,
          "durationTicks": 240,
          "midi": 60,
          "name": "C4",
          "ticks": 62400,
          "time": 55.714295,
          "velocity": 0.5984251968503937
        },
        {
          "duration": 0.21428574999999483,
          "durationTicks": 240,
          "midi": 57,
          "name": "A3",
          "ticks": 62640,
          "time": 55.92858075,
          "velocity": 0.5984251968503937
        },
        {
          "duration": 0.21428575000000194,
          "durationTicks": 240,
          "midi": 60,
          "name": "C4",
          "ticks": 62880,
          "time": 56.1428665,
          "velocity": 0.5984251968503937
        },
        {
          "duration": 0.3214286250000029,
          "durationTicks": 360,
          "midi": 77,
          "name": "F5",
          "ticks": 62880,
          "time": 56.1428665,
          "velocity": 0.5984251968503937
        },
        {
          "duration": 0.21428575000000194,
          "durationTicks": 240,
          "midi": 57,
          "name": "A3",
          "ticks": 63120,
          "time": 56.35715225,
          "velocity": 0.5984251968503937
        },
        {
          "duration": 0.10714287500000097,
          "durationTicks": 120,
          "midi": 76,
          "name": "E5",
          "ticks": 63240,
          "time": 56.464295125,
          "velocity": 0.5984251968503937
        },
        {
          "duration": 0.4285714999999968,
          "durationTicks": 480,
          "midi": 76,
          "name": "E5",
          "ticks": 63360,
          "time": 56.571438,
          "velocity": 0.5984251968503937
        },
        {
          "duration": 0.21428575000000194,
          "durationTicks": 240,
          "midi": 53,
          "name": "F3",
          "ticks": 63360,
          "time": 56.571438,
          "velocity": 0.5984251968503937
        },
        {
          "duration": 0.21428574999999483,
          "durationTicks": 240,
          "midi": 58,
          "name": "A#3",
          "ticks": 63600,
          "time": 56.78572375,
          "velocity": 0.5984251968503937
        },
        {
          "duration": 0.4285715000000039,
          "durationTicks": 480,
          "midi": 74,
          "name": "D5",
          "ticks": 63840,
          "time": 57.0000095,
          "velocity": 0.5984251968503937
        },
        {
          "duration": 0.21428575000000194,
          "durationTicks": 240,
          "midi": 62,
          "name": "D4",
          "ticks": 63840,
          "time": 57.0000095,
          "velocity": 0.5984251968503937
        },
        {
          "duration": 0.21428575000000194,
          "durationTicks": 240,
          "midi": 58,
          "name": "A#3",
          "ticks": 64080,
          "time": 57.21429525,
          "velocity": 0.5984251968503937
        },
        {
          "duration": 0.21428574999999483,
          "durationTicks": 240,
          "midi": 62,
          "name": "D4",
          "ticks": 64320,
          "time": 57.428581,
          "velocity": 0.5984251968503937
        },
        {
          "duration": 0.3214286249999958,
          "durationTicks": 360,
          "midi": 82,
          "name": "A#5",
          "ticks": 64320,
          "time": 57.428581,
          "velocity": 0.5984251968503937
        },
        {
          "duration": 0.21428575000000194,
          "durationTicks": 240,
          "midi": 58,
          "name": "A#3",
          "ticks": 64560,
          "time": 57.642866749999996,
          "velocity": 0.5984251968503937
        },
        {
          "duration": 0.10714287500000097,
          "durationTicks": 120,
          "midi": 81,
          "name": "A5",
          "ticks": 64680,
          "time": 57.750009625,
          "velocity": 0.5984251968503937
        },
        {
          "duration": 0.21428575000000194,
          "durationTicks": 240,
          "midi": 81,
          "name": "A5",
          "ticks": 64800,
          "time": 57.8571525,
          "velocity": 0.5984251968503937
        },
        {
          "duration": 0.21428575000000194,
          "durationTicks": 240,
          "midi": 53,
          "name": "F3",
          "ticks": 64800,
          "time": 57.8571525,
          "velocity": 0.5984251968503937
        },
        {
          "duration": 0.21428575000000194,
          "durationTicks": 240,
          "midi": 79,
          "name": "G5",
          "ticks": 65040,
          "time": 58.07143825,
          "velocity": 0.5984251968503937
        },
        {
          "duration": 0.21428575000000194,
          "durationTicks": 240,
          "midi": 64,
          "name": "E4",
          "ticks": 65040,
          "time": 58.07143825,
          "velocity": 0.5984251968503937
        },
        {
          "duration": 0.21428574999999483,
          "durationTicks": 240,
          "midi": 77,
          "name": "F5",
          "ticks": 65280,
          "time": 58.285724,
          "velocity": 0.5984251968503937
        },
        {
          "duration": 0.21428574999999483,
          "durationTicks": 240,
          "midi": 58,
          "name": "A#3",
          "ticks": 65280,
          "time": 58.285724,
          "velocity": 0.5039370078740157
        },
        {
          "duration": 0.21428574999999483,
          "durationTicks": 240,
          "midi": 55,
          "name": "G3",
          "ticks": 65280,
          "time": 58.285724,
          "velocity": 0.5511811023622047
        },
        {
          "duration": 0.21428574999999483,
          "durationTicks": 240,
          "midi": 53,
          "name": "F3",
          "ticks": 65280,
          "time": 58.285724,
          "velocity": 0.5984251968503937
        },
        {
          "duration": 0.21428575000000194,
          "durationTicks": 240,
          "midi": 76,
          "name": "E5",
          "ticks": 65520,
          "time": 58.50000975,
          "velocity": 0.5984251968503937
        },
        {
          "duration": 0.21428575000000194,
          "durationTicks": 240,
          "midi": 64,
          "name": "E4",
          "ticks": 65520,
          "time": 58.50000975,
          "velocity": 0.5984251968503937
        },
        {
          "duration": 0.21428575000000194,
          "durationTicks": 240,
          "midi": 74,
          "name": "D5",
          "ticks": 65760,
          "time": 58.7142955,
          "velocity": 0.5984251968503937
        },
        {
          "duration": 0.21428575000000194,
          "durationTicks": 240,
          "midi": 58,
          "name": "A#3",
          "ticks": 65760,
          "time": 58.7142955,
          "velocity": 0.5039370078740157
        },
        {
          "duration": 0.21428575000000194,
          "durationTicks": 240,
          "midi": 55,
          "name": "G3",
          "ticks": 65760,
          "time": 58.7142955,
          "velocity": 0.5511811023622047
        },
        {
          "duration": 0.21428575000000194,
          "durationTicks": 240,
          "midi": 53,
          "name": "F3",
          "ticks": 65760,
          "time": 58.7142955,
          "velocity": 0.5984251968503937
        },
        {
          "duration": 0.21428575000000194,
          "durationTicks": 240,
          "midi": 72,
          "name": "C5",
          "ticks": 66000,
          "time": 58.92858125,
          "velocity": 0.5984251968503937
        },
        {
          "duration": 0.21428575000000194,
          "durationTicks": 240,
          "midi": 64,
          "name": "E4",
          "ticks": 66000,
          "time": 58.92858125,
          "velocity": 0.5984251968503937
        },
        {
          "duration": 0.4285714999999968,
          "durationTicks": 480,
          "midi": 70,
          "name": "A#4",
          "ticks": 66240,
          "time": 59.142867,
          "velocity": 0.5984251968503937
        },
        {
          "duration": 0.21428574999999483,
          "durationTicks": 240,
          "midi": 53,
          "name": "F3",
          "ticks": 66240,
          "time": 59.142867,
          "velocity": 0.6141732283464567
        },
        {
          "duration": 0.21428575000000194,
          "durationTicks": 240,
          "midi": 57,
          "name": "A3",
          "ticks": 66480,
          "time": 59.35715275,
          "velocity": 0.6141732283464567
        },
        {
          "duration": 0.4285714999999968,
          "durationTicks": 480,
          "midi": 69,
          "name": "A4",
          "ticks": 66720,
          "time": 59.5714385,
          "velocity": 0.5984251968503937
        },
        {
          "duration": 0.21428575000000194,
          "durationTicks": 240,
          "midi": 60,
          "name": "C4",
          "ticks": 66720,
          "time": 59.5714385,
          "velocity": 0.6141732283464567
        },
        {
          "duration": 0.21428574999999483,
          "durationTicks": 240,
          "midi": 57,
          "name": "A3",
          "ticks": 66960,
          "time": 59.78572425,
          "velocity": 0.6141732283464567
        },
        {
          "duration": 0.10714287500000097,
          "durationTicks": 120,
          "midi": 69,
          "name": "A4",
          "ticks": 67200,
          "time": 60.000009999999996,
          "velocity": 0.6535433070866141
        },
        {
          "duration": 0.21428575000000194,
          "durationTicks": 240,
          "midi": 60,
          "name": "C4",
          "ticks": 67200,
          "time": 60.000009999999996,
          "velocity": 0.6141732283464567
        },
        {
          "duration": 0.10714287500000097,
          "durationTicks": 120,
          "midi": 67,
          "name": "G4",
          "ticks": 67320,
          "time": 60.107152875,
          "velocity": 0.5984251968503937
        },
        {
          "duration": 0.10714287500000097,
          "durationTicks": 120,
          "midi": 69,
          "name": "A4",
          "ticks": 67440,
          "time": 60.21429575,
          "velocity": 0.6535433070866141
        },
        {
          "duration": 0.21428575000000194,
          "durationTicks": 240,
          "midi": 57,
          "name": "A3",
          "ticks": 67440,
          "time": 60.21429575,
          "velocity": 0.6141732283464567
        },
        {
          "duration": 0.10714287500000097,
          "durationTicks": 120,
          "midi": 70,
          "name": "A#4",
          "ticks": 67560,
          "time": 60.321438625,
          "velocity": 0.7007874015748031
        },
        {
          "duration": 0.8571430000000007,
          "durationTicks": 960,
          "midi": 72,
          "name": "C5",
          "ticks": 67680,
          "time": 60.4285815,
          "velocity": 0.7480314960629921
        },
        {
          "duration": 0.21428575000000194,
          "durationTicks": 240,
          "midi": 53,
          "name": "F3",
          "ticks": 67680,
          "time": 60.4285815,
          "velocity": 0.5984251968503937
        },
        {
          "duration": 0.21428574999999483,
          "durationTicks": 240,
          "midi": 57,
          "name": "A3",
          "ticks": 67920,
          "time": 60.64286725,
          "velocity": 0.5984251968503937
        },
        {
          "duration": 0.21428575000000194,
          "durationTicks": 240,
          "midi": 60,
          "name": "C4",
          "ticks": 68160,
          "time": 60.857153,
          "velocity": 0.5984251968503937
        },
        {
          "duration": 0.21428575000000194,
          "durationTicks": 240,
          "midi": 57,
          "name": "A3",
          "ticks": 68400,
          "time": 61.07143875,
          "velocity": 0.5984251968503937
        },
        {
          "duration": 0.21428575000000194,
          "durationTicks": 240,
          "midi": 74,
          "name": "D5",
          "ticks": 68640,
          "time": 61.2857245,
          "velocity": 0.7086614173228346
        },
        {
          "duration": 0.21428575000000194,
          "durationTicks": 240,
          "midi": 60,
          "name": "C4",
          "ticks": 68640,
          "time": 61.2857245,
          "velocity": 0.5984251968503937
        },
        {
          "duration": 0.21428574999999483,
          "durationTicks": 240,
          "midi": 75,
          "name": "D#5",
          "ticks": 68880,
          "time": 61.50001025,
          "velocity": 0.7086614173228346
        },
        {
          "duration": 0.21428574999999483,
          "durationTicks": 240,
          "midi": 57,
          "name": "A3",
          "ticks": 68880,
          "time": 61.50001025,
          "velocity": 0.5984251968503937
        },
        {
          "duration": 0.6428572499999987,
          "durationTicks": 720,
          "midi": 76,
          "name": "E5",
          "ticks": 69120,
          "time": 61.714296,
          "velocity": 0.6141732283464567
        },
        {
          "duration": 0.21428575000000194,
          "durationTicks": 240,
          "midi": 52,
          "name": "E3",
          "ticks": 69120,
          "time": 61.714296,
          "velocity": 0.5984251968503937
        },
        {
          "duration": 0.21428575000000194,
          "durationTicks": 240,
          "midi": 57,
          "name": "A3",
          "ticks": 69360,
          "time": 61.92858175,
          "velocity": 0.5984251968503937
        },
        {
          "duration": 0.21428574999999483,
          "durationTicks": 240,
          "midi": 60,
          "name": "C4",
          "ticks": 69600,
          "time": 62.1428675,
          "velocity": 0.5984251968503937
        },
        {
          "duration": 0.21428575000000194,
          "durationTicks": 240,
          "midi": 76,
          "name": "E5",
          "ticks": 69840,
          "time": 62.357153249999996,
          "velocity": 0.7086614173228346
        },
        {
          "duration": 0.21428575000000194,
          "durationTicks": 240,
          "midi": 57,
          "name": "A3",
          "ticks": 69840,
          "time": 62.357153249999996,
          "velocity": 0.5984251968503937
        },
        {
          "duration": 0.21428575000000194,
          "durationTicks": 240,
          "midi": 77,
          "name": "F5",
          "ticks": 70080,
          "time": 62.571439,
          "velocity": 0.7086614173228346
        },
        {
          "duration": 0.21428575000000194,
          "durationTicks": 240,
          "midi": 62,
          "name": "D4",
          "ticks": 70080,
          "time": 62.571439,
          "velocity": 0.5984251968503937
        },
        {
          "duration": 0.21428575000000194,
          "durationTicks": 240,
          "midi": 50,
          "name": "D3",
          "ticks": 70080,
          "time": 62.571439,
          "velocity": 0.5984251968503937
        },
        {
          "duration": 0.21428575000000194,
          "durationTicks": 240,
          "midi": 69,
          "name": "A4",
          "ticks": 70320,
          "time": 62.78572475,
          "velocity": 0.7086614173228346
        },
        {
          "duration": 0.21428575000000194,
          "durationTicks": 240,
          "midi": 53,
          "name": "F3",
          "ticks": 70320,
          "time": 62.78572475,
          "velocity": 0.5984251968503937
        },
        {
          "duration": 0.8571430000000007,
          "durationTicks": 960,
          "midi": 72,
          "name": "C5",
          "ticks": 70560,
          "time": 63.0000105,
          "velocity": 0.7086614173228346
        },
        {
          "duration": 0.21428574999999483,
          "durationTicks": 240,
          "midi": 55,
          "name": "G3",
          "ticks": 70560,
          "time": 63.0000105,
          "velocity": 0.5984251968503937
        },
        {
          "duration": 0.21428575000000194,
          "durationTicks": 240,
          "midi": 64,
          "name": "E4",
          "ticks": 70800,
          "time": 63.21429625,
          "velocity": 0.5984251968503937
        },
        {
          "duration": 0.21428575000000194,
          "durationTicks": 240,
          "midi": 55,
          "name": "G3",
          "ticks": 71040,
          "time": 63.428582,
          "velocity": 0.5984251968503937
        },
        {
          "duration": 0.21428575000000194,
          "durationTicks": 240,
          "midi": 64,
          "name": "E4",
          "ticks": 71280,
          "time": 63.64286775,
          "velocity": 0.5984251968503937
        },
        {
          "duration": 0.3214286250000029,
          "durationTicks": 360,
          "midi": 74,
          "name": "D5",
          "ticks": 71520,
          "time": 63.8571535,
          "velocity": 0.7086614173228346
        },
        {
          "duration": 0.21428574999999483,
          "durationTicks": 240,
          "midi": 55,
          "name": "G3",
          "ticks": 71520,
          "time": 63.8571535,
          "velocity": 0.5984251968503937
        },
        {
          "duration": 0.21428575000000194,
          "durationTicks": 240,
          "midi": 65,
          "name": "F4",
          "ticks": 71760,
          "time": 64.07143925,
          "velocity": 0.5984251968503937
        },
        {
          "duration": 0.10714287499999386,
          "durationTicks": 120,
          "midi": 71,
          "name": "B4",
          "ticks": 71880,
          "time": 64.178582125,
          "velocity": 0.7086614173228346
        },
        {
          "duration": 0.10714287499999386,
          "durationTicks": 120,
          "midi": 72,
          "name": "C5",
          "ticks": 72000,
          "time": 64.285725,
          "velocity": 0.7086614173228346
        },
        {
          "duration": 0.4285715000000039,
          "durationTicks": 480,
          "midi": 60,
          "name": "C4",
          "ticks": 72000,
          "time": 64.285725,
          "velocity": 0.5984251968503937
        },
        {
          "duration": 0.4285715000000039,
          "durationTicks": 480,
          "midi": 64,
          "name": "E4",
          "ticks": 72000,
          "time": 64.285725,
          "velocity": 0.5984251968503937
        },
        {
          "duration": 0.10714287500000808,
          "durationTicks": 120,
          "midi": 79,
          "name": "G5",
          "ticks": 72120,
          "time": 64.392867875,
          "velocity": 0.7086614173228346
        },
        {
          "duration": 0.10714287499999386,
          "durationTicks": 120,
          "midi": 67,
          "name": "G4",
          "ticks": 72240,
          "time": 64.50001075,
          "velocity": 0.7086614173228346
        },
        {
          "duration": 0.10714287500000808,
          "durationTicks": 120,
          "midi": 79,
          "name": "G5",
          "ticks": 72360,
          "time": 64.607153625,
          "velocity": 0.7086614173228346
        },
        {
          "duration": 0.10714287499999386,
          "durationTicks": 120,
          "midi": 69,
          "name": "A4",
          "ticks": 72480,
          "time": 64.7142965,
          "velocity": 0.7086614173228346
        },
        {
          "duration": 0.10714287500000808,
          "durationTicks": 120,
          "midi": 79,
          "name": "G5",
          "ticks": 72600,
          "time": 64.821439375,
          "velocity": 0.7086614173228346
        },
        {
          "duration": 0.10714287499999386,
          "durationTicks": 120,
          "midi": 71,
          "name": "B4",
          "ticks": 72720,
          "time": 64.92858225,
          "velocity": 0.7086614173228346
        },
        {
          "duration": 0.10714287499999386,
          "durationTicks": 120,
          "midi": 67,
          "name": "G4",
          "ticks": 72720,
          "time": 64.92858225,
          "velocity": 0.5984251968503937
        },
        {
          "duration": 0.10714287499999386,
          "durationTicks": 120,
          "midi": 65,
          "name": "F4",
          "ticks": 72720,
          "time": 64.92858225,
          "velocity": 0.5984251968503937
        },
        {
          "duration": 0.10714287499999386,
          "durationTicks": 120,
          "midi": 79,
          "name": "G5",
          "ticks": 72840,
          "time": 65.035725125,
          "velocity": 0.7086614173228346
        },
        {
          "duration": 0.10714287500000808,
          "durationTicks": 120,
          "midi": 72,
          "name": "C5",
          "ticks": 72960,
          "time": 65.14286799999999,
          "velocity": 0.7086614173228346
        },
        {
          "duration": 0.10714287500000808,
          "durationTicks": 120,
          "midi": 67,
          "name": "G4",
          "ticks": 72960,
          "time": 65.14286799999999,
          "velocity": 0.5984251968503937
        },
        {
          "duration": 0.10714287500000808,
          "durationTicks": 120,
          "midi": 64,
          "name": "E4",
          "ticks": 72960,
          "time": 65.14286799999999,
          "velocity": 0.5984251968503937
        },
        {
          "duration": 0.10714287499999386,
          "durationTicks": 120,
          "midi": 79,
          "name": "G5",
          "ticks": 73080,
          "time": 65.250010875,
          "velocity": 0.7086614173228346
        },
        {
          "duration": 0.10714287500000808,
          "durationTicks": 120,
          "midi": 74,
          "name": "D5",
          "ticks": 73200,
          "time": 65.35715375,
          "velocity": 0.7086614173228346
        },
        {
          "duration": 0.10714287500000808,
          "durationTicks": 120,
          "midi": 67,
          "name": "G4",
          "ticks": 73200,
          "time": 65.35715375,
          "velocity": 0.5984251968503937
        },
        {
          "duration": 0.10714287500000808,
          "durationTicks": 120,
          "midi": 65,
          "name": "F4",
          "ticks": 73200,
          "time": 65.35715375,
          "velocity": 0.5984251968503937
        },
        {
          "duration": 0.10714287500000808,
          "durationTicks": 120,
          "midi": 62,
          "name": "D4",
          "ticks": 73200,
          "time": 65.35715375,
          "velocity": 0.5984251968503937
        },
        {
          "duration": 0.10714287499999386,
          "durationTicks": 120,
          "midi": 79,
          "name": "G5",
          "ticks": 73320,
          "time": 65.464296625,
          "velocity": 0.7086614173228346
        },
        {
          "duration": 0.10714287500000808,
          "durationTicks": 120,
          "midi": 76,
          "name": "E5",
          "ticks": 73440,
          "time": 65.5714395,
          "velocity": 0.7086614173228346
        },
        {
          "duration": 0.21428575000000194,
          "durationTicks": 240,
          "midi": 60,
          "name": "C4",
          "ticks": 73440,
          "time": 65.5714395,
          "velocity": 0.5984251968503937
        },
        {
          "duration": 0.21428575000000194,
          "durationTicks": 240,
          "midi": 64,
          "name": "E4",
          "ticks": 73440,
          "time": 65.5714395,
          "velocity": 0.5984251968503937
        },
        {
          "duration": 0.21428575000000194,
          "durationTicks": 240,
          "midi": 67,
          "name": "G4",
          "ticks": 73440,
          "time": 65.5714395,
          "velocity": 0.5984251968503937
        },
        {
          "duration": 0.10714287499999386,
          "durationTicks": 120,
          "midi": 79,
          "name": "G5",
          "ticks": 73560,
          "time": 65.678582375,
          "velocity": 0.7086614173228346
        },
        {
          "duration": 0.10714287499999386,
          "durationTicks": 120,
          "midi": 84,
          "name": "C6",
          "ticks": 73680,
          "time": 65.78572525,
          "velocity": 0.7086614173228346
        },
        {
          "duration": 0.10714287500000808,
          "durationTicks": 120,
          "midi": 83,
          "name": "B5",
          "ticks": 73800,
          "time": 65.89286812499999,
          "velocity": 0.7086614173228346
        },
        {
          "duration": 0.10714287499999386,
          "durationTicks": 120,
          "midi": 81,
          "name": "A5",
          "ticks": 73920,
          "time": 66.000011,
          "velocity": 0.7086614173228346
        },
        {
          "duration": 0.21428575000000194,
          "durationTicks": 240,
          "midi": 53,
          "name": "F3",
          "ticks": 73920,
          "time": 66.000011,
          "velocity": 0.5984251968503937
        },
        {
          "duration": 0.21428575000000194,
          "durationTicks": 240,
          "midi": 57,
          "name": "A3",
          "ticks": 73920,
          "time": 66.000011,
          "velocity": 0.5984251968503937
        },
        {
          "duration": 0.10714287500000808,
          "durationTicks": 120,
          "midi": 79,
          "name": "G5",
          "ticks": 74040,
          "time": 66.107153875,
          "velocity": 0.7086614173228346
        },
        {
          "duration": 0.10714287499999386,
          "durationTicks": 120,
          "midi": 77,
          "name": "F5",
          "ticks": 74160,
          "time": 66.21429675,
          "velocity": 0.7086614173228346
        },
        {
          "duration": 0.10714287500000808,
          "durationTicks": 120,
          "midi": 74,
          "name": "D5",
          "ticks": 74280,
          "time": 66.321439625,
          "velocity": 0.7086614173228346
        },
        {
          "duration": 0.10714287499999386,
          "durationTicks": 120,
          "midi": 72,
          "name": "C5",
          "ticks": 74400,
          "time": 66.4285825,
          "velocity": 0.7086614173228346
        },
        {
          "duration": 0.21428574999998773,
          "durationTicks": 240,
          "midi": 55,
          "name": "G3",
          "ticks": 74400,
          "time": 66.4285825,
          "velocity": 0.5984251968503937
        },
        {
          "duration": 0.21428574999998773,
          "durationTicks": 240,
          "midi": 59,
          "name": "B3",
          "ticks": 74400,
          "time": 66.4285825,
          "velocity": 0.5984251968503937
        },
        {
          "duration": 0.10714287499999386,
          "durationTicks": 120,
          "midi": 79,
          "name": "G5",
          "ticks": 74520,
          "time": 66.535725375,
          "velocity": 0.7086614173228346
        },
        {
          "duration": 0.10714287500000808,
          "durationTicks": 120,
          "midi": 77,
          "name": "F5",
          "ticks": 74640,
          "time": 66.64286824999999,
          "velocity": 0.7086614173228346
        },
        {
          "duration": 0.10714287499999386,
          "durationTicks": 120,
          "midi": 74,
          "name": "D5",
          "ticks": 74760,
          "time": 66.750011125,
          "velocity": 0.7086614173228346
        },
        {
          "duration": 0.10714287500000808,
          "durationTicks": 120,
          "midi": 72,
          "name": "C5",
          "ticks": 74880,
          "time": 66.857154,
          "velocity": 0.7086614173228346
        },
        {
          "duration": 0.21428575000000194,
          "durationTicks": 240,
          "midi": 60,
          "name": "C4",
          "ticks": 74880,
          "time": 66.857154,
          "velocity": 0.5984251968503937
        },
        {
          "duration": 0.10714287499999386,
          "durationTicks": 120,
          "midi": 79,
          "name": "G5",
          "ticks": 75000,
          "time": 66.964296875,
          "velocity": 0.7086614173228346
        },
        {
          "duration": 0.10714287500000808,
          "durationTicks": 120,
          "midi": 67,
          "name": "G4",
          "ticks": 75120,
          "time": 67.07143975,
          "velocity": 0.7086614173228346
        },
        {
          "duration": 0.10714287499999386,
          "durationTicks": 120,
          "midi": 79,
          "name": "G5",
          "ticks": 75240,
          "time": 67.178582625,
          "velocity": 0.7086614173228346
        },
        {
          "duration": 0.10714287500000808,
          "durationTicks": 120,
          "midi": 69,
          "name": "A4",
          "ticks": 75360,
          "time": 67.2857255,
          "velocity": 0.7086614173228346
        },
        {
          "duration": 0.10714287499999386,
          "durationTicks": 120,
          "midi": 79,
          "name": "G5",
          "ticks": 75480,
          "time": 67.392868375,
          "velocity": 0.7086614173228346
        },
        {
          "duration": 0.10714287499999386,
          "durationTicks": 120,
          "midi": 71,
          "name": "B4",
          "ticks": 75600,
          "time": 67.50001125,
          "velocity": 0.7086614173228346
        },
        {
          "duration": 0.10714287499999386,
          "durationTicks": 120,
          "midi": 67,
          "name": "G4",
          "ticks": 75600,
          "time": 67.50001125,
          "velocity": 0.5984251968503937
        },
        {
          "duration": 0.10714287499999386,
          "durationTicks": 120,
          "midi": 65,
          "name": "F4",
          "ticks": 75600,
          "time": 67.50001125,
          "velocity": 0.5984251968503937
        },
        {
          "duration": 0.10714287500000808,
          "durationTicks": 120,
          "midi": 79,
          "name": "G5",
          "ticks": 75720,
          "time": 67.607154125,
          "velocity": 0.7086614173228346
        },
        {
          "duration": 0.10714287499999386,
          "durationTicks": 120,
          "midi": 72,
          "name": "C5",
          "ticks": 75840,
          "time": 67.714297,
          "velocity": 0.7086614173228346
        },
        {
          "duration": 0.10714287499999386,
          "durationTicks": 120,
          "midi": 67,
          "name": "G4",
          "ticks": 75840,
          "time": 67.714297,
          "velocity": 0.5984251968503937
        },
        {
          "duration": 0.10714287499999386,
          "durationTicks": 120,
          "midi": 64,
          "name": "E4",
          "ticks": 75840,
          "time": 67.714297,
          "velocity": 0.5984251968503937
        },
        {
          "duration": 0.10714287500000808,
          "durationTicks": 120,
          "midi": 79,
          "name": "G5",
          "ticks": 75960,
          "time": 67.821439875,
          "velocity": 0.7086614173228346
        },
        {
          "duration": 0.10714287499999386,
          "durationTicks": 120,
          "midi": 74,
          "name": "D5",
          "ticks": 76080,
          "time": 67.92858275,
          "velocity": 0.7086614173228346
        },
        {
          "duration": 0.10714287499999386,
          "durationTicks": 120,
          "midi": 67,
          "name": "G4",
          "ticks": 76080,
          "time": 67.92858275,
          "velocity": 0.5984251968503937
        },
        {
          "duration": 0.10714287499999386,
          "durationTicks": 120,
          "midi": 65,
          "name": "F4",
          "ticks": 76080,
          "time": 67.92858275,
          "velocity": 0.5984251968503937
        },
        {
          "duration": 0.10714287499999386,
          "durationTicks": 120,
          "midi": 62,
          "name": "D4",
          "ticks": 76080,
          "time": 67.92858275,
          "velocity": 0.5984251968503937
        },
        {
          "duration": 0.10714287500000808,
          "durationTicks": 120,
          "midi": 79,
          "name": "G5",
          "ticks": 76200,
          "time": 68.035725625,
          "velocity": 0.7086614173228346
        },
        {
          "duration": 0.10714287499999386,
          "durationTicks": 120,
          "midi": 76,
          "name": "E5",
          "ticks": 76320,
          "time": 68.1428685,
          "velocity": 0.7086614173228346
        },
        {
          "duration": 0.21428574999998773,
          "durationTicks": 240,
          "midi": 60,
          "name": "C4",
          "ticks": 76320,
          "time": 68.1428685,
          "velocity": 0.5984251968503937
        },
        {
          "duration": 0.21428574999998773,
          "durationTicks": 240,
          "midi": 64,
          "name": "E4",
          "ticks": 76320,
          "time": 68.1428685,
          "velocity": 0.5984251968503937
        },
        {
          "duration": 0.21428574999998773,
          "durationTicks": 240,
          "midi": 67,
          "name": "G4",
          "ticks": 76320,
          "time": 68.1428685,
          "velocity": 0.5984251968503937
        },
        {
          "duration": 0.10714287499999386,
          "durationTicks": 120,
          "midi": 79,
          "name": "G5",
          "ticks": 76440,
          "time": 68.250011375,
          "velocity": 0.7086614173228346
        },
        {
          "duration": 0.10714287500000808,
          "durationTicks": 120,
          "midi": 84,
          "name": "C6",
          "ticks": 76560,
          "time": 68.35715425,
          "velocity": 0.7086614173228346
        },
        {
          "duration": 0.10714287499999386,
          "durationTicks": 120,
          "midi": 83,
          "name": "B5",
          "ticks": 76680,
          "time": 68.464297125,
          "velocity": 0.7086614173228346
        },
        {
          "duration": 0.10714287500000808,
          "durationTicks": 120,
          "midi": 81,
          "name": "A5",
          "ticks": 76800,
          "time": 68.57144,
          "velocity": 0.7086614173228346
        },
        {
          "duration": 0.21428575000000194,
          "durationTicks": 240,
          "midi": 53,
          "name": "F3",
          "ticks": 76800,
          "time": 68.57144,
          "velocity": 0.5984251968503937
        },
        {
          "duration": 0.21428575000000194,
          "durationTicks": 240,
          "midi": 57,
          "name": "A3",
          "ticks": 76800,
          "time": 68.57144,
          "velocity": 0.5984251968503937
        },
        {
          "duration": 0.10714287499999386,
          "durationTicks": 120,
          "midi": 79,
          "name": "G5",
          "ticks": 76920,
          "time": 68.678582875,
          "velocity": 0.7086614173228346
        },
        {
          "duration": 0.10714287500000808,
          "durationTicks": 120,
          "midi": 77,
          "name": "F5",
          "ticks": 77040,
          "time": 68.78572575,
          "velocity": 0.7086614173228346
        },
        {
          "duration": 0.10714287499999386,
          "durationTicks": 120,
          "midi": 76,
          "name": "E5",
          "ticks": 77160,
          "time": 68.892868625,
          "velocity": 0.7086614173228346
        },
        {
          "duration": 0.10714287499999386,
          "durationTicks": 120,
          "midi": 74,
          "name": "D5",
          "ticks": 77280,
          "time": 69.0000115,
          "velocity": 0.7086614173228346
        },
        {
          "duration": 0.21428575000000194,
          "durationTicks": 240,
          "midi": 55,
          "name": "G3",
          "ticks": 77280,
          "time": 69.0000115,
          "velocity": 0.5984251968503937
        },
        {
          "duration": 0.21428575000000194,
          "durationTicks": 240,
          "midi": 59,
          "name": "B3",
          "ticks": 77280,
          "time": 69.0000115,
          "velocity": 0.5984251968503937
        },
        {
          "duration": 0.10714287500000808,
          "durationTicks": 120,
          "midi": 79,
          "name": "G5",
          "ticks": 77400,
          "time": 69.107154375,
          "velocity": 0.7086614173228346
        },
        {
          "duration": 0.10714287499999386,
          "durationTicks": 120,
          "midi": 77,
          "name": "F5",
          "ticks": 77520,
          "time": 69.21429725,
          "velocity": 0.7086614173228346
        },
        {
          "duration": 0.10714287500000808,
          "durationTicks": 120,
          "midi": 74,
          "name": "D5",
          "ticks": 77640,
          "time": 69.321440125,
          "velocity": 0.7086614173228346
        },
        {
          "duration": 0.10714287499999386,
          "durationTicks": 120,
          "midi": 76,
          "name": "E5",
          "ticks": 77760,
          "time": 69.428583,
          "velocity": 0.7086614173228346
        },
        {
          "duration": 0.21428575000000194,
          "durationTicks": 240,
          "midi": 56,
          "name": "G#3",
          "ticks": 77760,
          "time": 69.428583,
          "velocity": 0.5984251968503937
        },
        {
          "duration": 0.21428575000000194,
          "durationTicks": 240,
          "midi": 59,
          "name": "B3",
          "ticks": 77760,
          "time": 69.428583,
          "velocity": 0.5984251968503937
        },
        {
          "duration": 0.10714287500000808,
          "durationTicks": 120,
          "midi": 77,
          "name": "F5",
          "ticks": 77880,
          "time": 69.535725875,
          "velocity": 0.7086614173228346
        },
        {
          "duration": 0.10714287499999386,
          "durationTicks": 120,
          "midi": 76,
          "name": "E5",
          "ticks": 78000,
          "time": 69.64286875,
          "velocity": 0.7086614173228346
        },
        {
          "duration": 0.10714287499999386,
          "durationTicks": 120,
          "midi": 75,
          "name": "D#5",
          "ticks": 78120,
          "time": 69.750011625,
          "velocity": 0.7086614173228346
        },
        {
          "duration": 0.10714287500000808,
          "durationTicks": 120,
          "midi": 76,
          "name": "E5",
          "ticks": 78240,
          "time": 69.8571545,
          "velocity": 0.7086614173228346
        },
        {
          "duration": 0.10714287499999386,
          "durationTicks": 120,
          "midi": 71,
          "name": "B4",
          "ticks": 78360,
          "time": 69.964297375,
          "velocity": 0.7086614173228346
        },
        {
          "duration": 0.10714287500000808,
          "durationTicks": 120,
          "midi": 76,
          "name": "E5",
          "ticks": 78480,
          "time": 70.07144025,
          "velocity": 0.7086614173228346
        },
        {
          "duration": 0.10714287499999386,
          "durationTicks": 120,
          "midi": 75,
          "name": "D#5",
          "ticks": 78600,
          "time": 70.178583125,
          "velocity": 0.7086614173228346
        },
        {
          "duration": 0.10714287500000808,
          "durationTicks": 120,
          "midi": 76,
          "name": "E5",
          "ticks": 78720,
          "time": 70.285726,
          "velocity": 0.7086614173228346
        },
        {
          "duration": 0.10714287499999386,
          "durationTicks": 120,
          "midi": 71,
          "name": "B4",
          "ticks": 78840,
          "time": 70.392868875,
          "velocity": 0.7086614173228346
        },
        {
          "duration": 0.10714287499999386,
          "durationTicks": 120,
          "midi": 76,
          "name": "E5",
          "ticks": 78960,
          "time": 70.50001175,
          "velocity": 0.7086614173228346
        },
        {
          "duration": 0.10714287500000808,
          "durationTicks": 120,
          "midi": 75,
          "name": "D#5",
          "ticks": 79080,
          "time": 70.60715462499999,
          "velocity": 0.7086614173228346
        },
        {
          "duration": 0.6428572499999916,
          "durationTicks": 720,
          "midi": 76,
          "name": "E5",
          "ticks": 79200,
          "time": 70.7142975,
          "velocity": 0.6535433070866141
        },
        {
          "duration": 0.21428575000000194,
          "durationTicks": 240,
          "midi": 71,
          "name": "B4",
          "ticks": 79920,
          "time": 71.35715474999999,
          "velocity": 0.6535433070866141
        },
        {
          "duration": 0.21428575000000194,
          "durationTicks": 240,
          "midi": 76,
          "name": "E5",
          "ticks": 80160,
          "time": 71.5714405,
          "velocity": 0.6535433070866141
        },
        {
          "duration": 0.21428575000000194,
          "durationTicks": 240,
          "midi": 75,
          "name": "D#5",
          "ticks": 80400,
          "time": 71.78572625,
          "velocity": 0.6535433070866141
        },
        {
          "duration": 0.6428572500000058,
          "durationTicks": 720,
          "midi": 76,
          "name": "E5",
          "ticks": 80640,
          "time": 72.000012,
          "velocity": 0.5511811023622047
        },
        {
          "duration": 0.21428575000000194,
          "durationTicks": 240,
          "midi": 71,
          "name": "B4",
          "ticks": 81360,
          "time": 72.64286925,
          "velocity": 0.5511811023622047
        },
        {
          "duration": 0.21428574999998773,
          "durationTicks": 240,
          "midi": 76,
          "name": "E5",
          "ticks": 81600,
          "time": 72.857155,
          "velocity": 0.5039370078740157
        },
        {
          "duration": 0.21428575000000194,
          "durationTicks": 240,
          "midi": 75,
          "name": "D#5",
          "ticks": 81840,
          "time": 73.07144075,
          "velocity": 0.5511811023622047
        },
        {
          "duration": 0.21428575000000194,
          "durationTicks": 240,
          "midi": 76,
          "name": "E5",
          "ticks": 82080,
          "time": 73.2857265,
          "velocity": 0.5984251968503937
        },
        {
          "duration": 0.21428575000000194,
          "durationTicks": 240,
          "midi": 75,
          "name": "D#5",
          "ticks": 82320,
          "time": 73.50001225,
          "velocity": 0.5511811023622047
        },
        {
          "duration": 0.21428575000000194,
          "durationTicks": 240,
          "midi": 76,
          "name": "E5",
          "ticks": 82560,
          "time": 73.714298,
          "velocity": 0.5984251968503937
        },
        {
          "duration": 0.21428575000000194,
          "durationTicks": 240,
          "midi": 75,
          "name": "D#5",
          "ticks": 82800,
          "time": 73.92858375,
          "velocity": 0.5511811023622047
        },
        {
          "duration": 0.21428575000000194,
          "durationTicks": 240,
          "midi": 76,
          "name": "E5",
          "ticks": 83040,
          "time": 74.1428695,
          "velocity": 0.5984251968503937
        },
        {
          "duration": 0.21428574999998773,
          "durationTicks": 240,
          "midi": 75,
          "name": "D#5",
          "ticks": 83280,
          "time": 74.35715525,
          "velocity": 0.5984251968503937
        },
        {
          "duration": 0.21428575000000194,
          "durationTicks": 240,
          "midi": 76,
          "name": "E5",
          "ticks": 83520,
          "time": 74.571441,
          "velocity": 0.44881889763779526
        },
        {
          "duration": 0.21428575000000194,
          "durationTicks": 240,
          "midi": 75,
          "name": "D#5",
          "ticks": 83760,
          "time": 74.78572675,
          "velocity": 0.5039370078740157
        },
        {
          "duration": 0.21428575000000194,
          "durationTicks": 240,
          "midi": 76,
          "name": "E5",
          "ticks": 84000,
          "time": 75.0000125,
          "velocity": 0.5984251968503937
        },
        {
          "duration": 0.21428575000000194,
          "durationTicks": 240,
          "midi": 71,
          "name": "B4",
          "ticks": 84240,
          "time": 75.21429825,
          "velocity": 0.5984251968503937
        },
        {
          "duration": 0.21428575000000194,
          "durationTicks": 240,
          "midi": 74,
          "name": "D5",
          "ticks": 84480,
          "time": 75.428584,
          "velocity": 0.5984251968503937
        },
        {
          "duration": 0.21428575000000194,
          "durationTicks": 240,
          "midi": 72,
          "name": "C5",
          "ticks": 84720,
          "time": 75.64286975,
          "velocity": 0.5984251968503937
        },
        {
          "duration": 0.6428572499999916,
          "durationTicks": 720,
          "midi": 69,
          "name": "A4",
          "ticks": 84960,
          "time": 75.8571555,
          "velocity": 0.5984251968503937
        },
        {
          "duration": 0.21428574999998773,
          "durationTicks": 240,
          "midi": 45,
          "name": "A2",
          "ticks": 84960,
          "time": 75.8571555,
          "velocity": 0.5039370078740157
        },
        {
          "duration": 0.21428575000000194,
          "durationTicks": 240,
          "midi": 52,
          "name": "E3",
          "ticks": 85200,
          "time": 76.07144124999999,
          "velocity": 0.5511811023622047
        },
        {
          "duration": 0.21428575000000194,
          "durationTicks": 240,
          "midi": 57,
          "name": "A3",
          "ticks": 85440,
          "time": 76.285727,
          "velocity": 0.5984251968503937
        },
        {
          "duration": 0.21428575000000194,
          "durationTicks": 240,
          "midi": 60,
          "name": "C4",
          "ticks": 85680,
          "time": 76.50001275,
          "velocity": 0.5984251968503937
        },
        {
          "duration": 0.21428575000000194,
          "durationTicks": 240,
          "midi": 64,
          "name": "E4",
          "ticks": 85920,
          "time": 76.7142985,
          "velocity": 0.5984251968503937
        },
        {
          "duration": 0.21428575000000194,
          "durationTicks": 240,
          "midi": 69,
          "name": "A4",
          "ticks": 86160,
          "time": 76.92858425,
          "velocity": 0.5984251968503937
        },
        {
          "duration": 0.6428572499999916,
          "durationTicks": 720,
          "midi": 71,
          "name": "B4",
          "ticks": 86400,
          "time": 77.14287,
          "velocity": 0.5984251968503937
        },
        {
          "duration": 0.21428575000000194,
          "durationTicks": 240,
          "midi": 40,
          "name": "E2",
          "ticks": 86400,
          "time": 77.14287,
          "velocity": 0.5039370078740157
        },
        {
          "duration": 0.21428575000000194,
          "durationTicks": 240,
          "midi": 52,
          "name": "E3",
          "ticks": 86640,
          "time": 77.35715575,
          "velocity": 0.5511811023622047
        },
        {
          "duration": 0.21428574999998773,
          "durationTicks": 240,
          "midi": 56,
          "name": "G#3",
          "ticks": 86880,
          "time": 77.5714415,
          "velocity": 0.5984251968503937
        },
        {
          "duration": 0.21428575000000194,
          "durationTicks": 240,
          "midi": 64,
          "name": "E4",
          "ticks": 87120,
          "time": 77.78572725,
          "velocity": 0.5984251968503937
        },
        {
          "duration": 0.21428575000000194,
          "durationTicks": 240,
          "midi": 68,
          "name": "G#4",
          "ticks": 87360,
          "time": 78.000013,
          "velocity": 0.5984251968503937
        },
        {
          "duration": 0.21428575000000194,
          "durationTicks": 240,
          "midi": 71,
          "name": "B4",
          "ticks": 87600,
          "time": 78.21429875,
          "velocity": 0.5984251968503937
        },
        {
          "duration": 0.6428572500000058,
          "durationTicks": 720,
          "midi": 72,
          "name": "C5",
          "ticks": 87840,
          "time": 78.4285845,
          "velocity": 0.5984251968503937
        },
        {
          "duration": 0.21428575000000194,
          "durationTicks": 240,
          "midi": 45,
          "name": "A2",
          "ticks": 87840,
          "time": 78.4285845,
          "velocity": 0.5511811023622047
        },
        {
          "duration": 0.21428575000000194,
          "durationTicks": 240,
          "midi": 52,
          "name": "E3",
          "ticks": 88080,
          "time": 78.64287025,
          "velocity": 0.5511811023622047
        },
        {
          "duration": 0.21428575000000194,
          "durationTicks": 240,
          "midi": 57,
          "name": "A3",
          "ticks": 88320,
          "time": 78.857156,
          "velocity": 0.5984251968503937
        },
        {
          "duration": 0.21428574999998773,
          "durationTicks": 240,
          "midi": 64,
          "name": "E4",
          "ticks": 88560,
          "time": 79.07144175,
          "velocity": 0.5984251968503937
        },
        {
          "duration": 0.21428575000000194,
          "durationTicks": 240,
          "midi": 76,
          "name": "E5",
          "ticks": 88800,
          "time": 79.2857275,
          "velocity": 0.5984251968503937
        },
        {
          "duration": 0.21428575000000194,
          "durationTicks": 240,
          "midi": 75,
          "name": "D#5",
          "ticks": 89040,
          "time": 79.50001325,
          "velocity": 0.5511811023622047
        },
        {
          "duration": 0.21428575000000194,
          "durationTicks": 240,
          "midi": 76,
          "name": "E5",
          "ticks": 89280,
          "time": 79.714299,
          "velocity": 0.5984251968503937
        },
        {
          "duration": 0.21428575000000194,
          "durationTicks": 240,
          "midi": 75,
          "name": "D#5",
          "ticks": 89520,
          "time": 79.92858475,
          "velocity": 0.5511811023622047
        },
        {
          "duration": 0.21428575000000194,
          "durationTicks": 240,
          "midi": 76,
          "name": "E5",
          "ticks": 89760,
          "time": 80.1428705,
          "velocity": 0.5984251968503937
        },
        {
          "duration": 0.21428575000000194,
          "durationTicks": 240,
          "midi": 71,
          "name": "B4",
          "ticks": 90000,
          "time": 80.35715625,
          "velocity": 0.5984251968503937
        },
        {
          "duration": 0.21428574999998773,
          "durationTicks": 240,
          "midi": 74,
          "name": "D5",
          "ticks": 90240,
          "time": 80.571442,
          "velocity": 0.5984251968503937
        },
        {
          "duration": 0.21428575000000194,
          "durationTicks": 240,
          "midi": 72,
          "name": "C5",
          "ticks": 90480,
          "time": 80.78572774999999,
          "velocity": 0.5984251968503937
        },
        {
          "duration": 0.6428572500000058,
          "durationTicks": 720,
          "midi": 69,
          "name": "A4",
          "ticks": 90720,
          "time": 81.0000135,
          "velocity": 0.5984251968503937
        },
        {
          "duration": 0.21428575000000194,
          "durationTicks": 240,
          "midi": 45,
          "name": "A2",
          "ticks": 90720,
          "time": 81.0000135,
          "velocity": 0.5511811023622047
        },
        {
          "duration": 0.21428575000000194,
          "durationTicks": 240,
          "midi": 52,
          "name": "E3",
          "ticks": 90960,
          "time": 81.21429925,
          "velocity": 0.5984251968503937
        },
        {
          "duration": 0.21428575000000194,
          "durationTicks": 240,
          "midi": 57,
          "name": "A3",
          "ticks": 91200,
          "time": 81.428585,
          "velocity": 0.5984251968503937
        },
        {
          "duration": 0.21428575000000194,
          "durationTicks": 240,
          "midi": 60,
          "name": "C4",
          "ticks": 91440,
          "time": 81.64287075,
          "velocity": 0.5984251968503937
        },
        {
          "duration": 0.21428575000000194,
          "durationTicks": 240,
          "midi": 64,
          "name": "E4",
          "ticks": 91680,
          "time": 81.8571565,
          "velocity": 0.5984251968503937
        },
        {
          "duration": 0.21428575000000194,
          "durationTicks": 240,
          "midi": 69,
          "name": "A4",
          "ticks": 91920,
          "time": 82.07144225,
          "velocity": 0.5984251968503937
        },
        {
          "duration": 0.6428572499999916,
          "durationTicks": 720,
          "midi": 71,
          "name": "B4",
          "ticks": 92160,
          "time": 82.285728,
          "velocity": 0.5984251968503937
        },
        {
          "duration": 0.21428574999998773,
          "durationTicks": 240,
          "midi": 40,
          "name": "E2",
          "ticks": 92160,
          "time": 82.285728,
          "velocity": 0.5511811023622047
        },
        {
          "duration": 0.21428575000000194,
          "durationTicks": 240,
          "midi": 52,
          "name": "E3",
          "ticks": 92400,
          "time": 82.50001375,
          "velocity": 0.5511811023622047
        },
        {
          "duration": 0.21428575000000194,
          "durationTicks": 240,
          "midi": 56,
          "name": "G#3",
          "ticks": 92640,
          "time": 82.7142995,
          "velocity": 0.5984251968503937
        },
        {
          "duration": 0.21428575000000194,
          "durationTicks": 240,
          "midi": 64,
          "name": "E4",
          "ticks": 92880,
          "time": 82.92858525,
          "velocity": 0.5984251968503937
        },
        {
          "duration": 0.21428575000000194,
          "durationTicks": 240,
          "midi": 72,
          "name": "C5",
          "ticks": 93120,
          "time": 83.142871,
          "velocity": 0.5984251968503937
        },
        {
          "duration": 0.21428575000000194,
          "durationTicks": 240,
          "midi": 71,
          "name": "B4",
          "ticks": 93360,
          "time": 83.35715675,
          "velocity": 0.5984251968503937
        },
        {
          "duration": 0.6428572499999916,
          "durationTicks": 720,
          "midi": 69,
          "name": "A4",
          "ticks": 93600,
          "time": 83.5714425,
          "velocity": 0.5984251968503937
        },
        {
          "duration": 0.21428575000000194,
          "durationTicks": 240,
          "midi": 45,
          "name": "A2",
          "ticks": 93600,
          "time": 83.5714425,
          "velocity": 0.5039370078740157
        },
        {
          "duration": 0.21428574999998773,
          "durationTicks": 240,
          "midi": 52,
          "name": "E3",
          "ticks": 93840,
          "time": 83.78572825,
          "velocity": 0.5511811023622047
        },
        {
          "duration": 0.21428575000000194,
          "durationTicks": 240,
          "midi": 57,
          "name": "A3",
          "ticks": 94080,
          "time": 84.000014,
          "velocity": 0.5984251968503937
        },
        {
          "duration": 0.21428575000000194,
          "durationTicks": 240,
          "midi": 76,
          "name": "E5",
          "ticks": 94560,
          "time": 84.4285855,
          "velocity": 0.5039370078740157
        },
        {
          "duration": 0.21428575000000194,
          "durationTicks": 240,
          "midi": 75,
          "name": "D#5",
          "ticks": 94800,
          "time": 84.64287125,
          "velocity": 0.5511811023622047
        },
        {
          "duration": 0.21428575000000194,
          "durationTicks": 240,
          "midi": 76,
          "name": "E5",
          "ticks": 95040,
          "time": 84.857157,
          "velocity": 0.5984251968503937
        },
        {
          "duration": 0.21428575000000194,
          "durationTicks": 240,
          "midi": 75,
          "name": "D#5",
          "ticks": 95280,
          "time": 85.07144275,
          "velocity": 0.5039370078740157
        },
        {
          "duration": 0.21428574999998773,
          "durationTicks": 240,
          "midi": 76,
          "name": "E5",
          "ticks": 95520,
          "time": 85.2857285,
          "velocity": 0.5984251968503937
        },
        {
          "duration": 0.21428575000000194,
          "durationTicks": 240,
          "midi": 71,
          "name": "B4",
          "ticks": 95760,
          "time": 85.50001424999999,
          "velocity": 0.5984251968503937
        },
        {
          "duration": 0.21428575000000194,
          "durationTicks": 240,
          "midi": 74,
          "name": "D5",
          "ticks": 96000,
          "time": 85.7143,
          "velocity": 0.5984251968503937
        },
        {
          "duration": 0.21428575000000194,
          "durationTicks": 240,
          "midi": 72,
          "name": "C5",
          "ticks": 96240,
          "time": 85.92858575,
          "velocity": 0.5984251968503937
        },
        {
          "duration": 0.6428572500000058,
          "durationTicks": 720,
          "midi": 69,
          "name": "A4",
          "ticks": 96480,
          "time": 86.1428715,
          "velocity": 0.5984251968503937
        },
        {
          "duration": 0.21428575000000194,
          "durationTicks": 240,
          "midi": 45,
          "name": "A2",
          "ticks": 96480,
          "time": 86.1428715,
          "velocity": 0.5039370078740157
        },
        {
          "duration": 0.21428575000000194,
          "durationTicks": 240,
          "midi": 52,
          "name": "E3",
          "ticks": 96720,
          "time": 86.35715725,
          "velocity": 0.5511811023622047
        },
        {
          "duration": 0.21428575000000194,
          "durationTicks": 240,
          "midi": 57,
          "name": "A3",
          "ticks": 96960,
          "time": 86.571443,
          "velocity": 0.5511811023622047
        },
        {
          "duration": 0.21428574999998773,
          "durationTicks": 240,
          "midi": 60,
          "name": "C4",
          "ticks": 97200,
          "time": 86.78572875,
          "velocity": 0.5984251968503937
        },
        {
          "duration": 0.21428575000000194,
          "durationTicks": 240,
          "midi": 64,
          "name": "E4",
          "ticks": 97440,
          "time": 87.00001449999999,
          "velocity": 0.5984251968503937
        },
        {
          "duration": 0.21428575000000194,
          "durationTicks": 240,
          "midi": 69,
          "name": "A4",
          "ticks": 97680,
          "time": 87.21430025,
          "velocity": 0.5984251968503937
        },
        {
          "duration": 0.6428572500000058,
          "durationTicks": 720,
          "midi": 71,
          "name": "B4",
          "ticks": 97920,
          "time": 87.428586,
          "velocity": 0.5984251968503937
        },
        {
          "duration": 0.21428575000000194,
          "durationTicks": 240,
          "midi": 40,
          "name": "E2",
          "ticks": 97920,
          "time": 87.428586,
          "velocity": 0.5039370078740157
        },
        {
          "duration": 0.21428575000000194,
          "durationTicks": 240,
          "midi": 52,
          "name": "E3",
          "ticks": 98160,
          "time": 87.64287175,
          "velocity": 0.5511811023622047
        },
        {
          "duration": 0.21428575000000194,
          "durationTicks": 240,
          "midi": 56,
          "name": "G#3",
          "ticks": 98400,
          "time": 87.8571575,
          "velocity": 0.5511811023622047
        },
        {
          "duration": 0.21428575000000194,
          "durationTicks": 240,
          "midi": 64,
          "name": "E4",
          "ticks": 98640,
          "time": 88.07144325,
          "velocity": 0.5511811023622047
        },
        {
          "duration": 0.21428575000000194,
          "durationTicks": 240,
          "midi": 68,
          "name": "G#4",
          "ticks": 98880,
          "time": 88.285729,
          "velocity": 0.5984251968503937
        },
        {
          "duration": 0.21428574999998773,
          "durationTicks": 240,
          "midi": 71,
          "name": "B4",
          "ticks": 99120,
          "time": 88.50001475,
          "velocity": 0.5984251968503937
        },
        {
          "duration": 0.4285715000000039,
          "durationTicks": 480,
          "midi": 72,
          "name": "C5",
          "ticks": 99360,
          "time": 88.7143005,
          "velocity": 0.6535433070866141
        },
        {
          "duration": 0.21428575000000194,
          "durationTicks": 240,
          "midi": 45,
          "name": "A2",
          "ticks": 99360,
          "time": 88.7143005,
          "velocity": 0.5511811023622047
        },
        {
          "duration": 0.21428575000000194,
          "durationTicks": 240,
          "midi": 52,
          "name": "E3",
          "ticks": 99600,
          "time": 88.92858625,
          "velocity": 0.5511811023622047
        },
        {
          "duration": 0.21428575000000194,
          "durationTicks": 240,
          "midi": 57,
          "name": "A3",
          "ticks": 99840,
          "time": 89.142872,
          "velocity": 0.5984251968503937
        },
        {
          "duration": 0.21428575000000194,
          "durationTicks": 240,
          "midi": 64,
          "name": "E4",
          "ticks": 100080,
          "time": 89.35715775,
          "velocity": 0.5984251968503937
        },
        {
          "duration": 0.21428575000000194,
          "durationTicks": 240,
          "midi": 76,
          "name": "E5",
          "ticks": 100320,
          "time": 89.5714435,
          "velocity": 0.5984251968503937
        },
        {
          "duration": 0.21428575000000194,
          "durationTicks": 240,
          "midi": 75,
          "name": "D#5",
          "ticks": 100560,
          "time": 89.78572925,
          "velocity": 0.5984251968503937
        },
        {
          "duration": 0.21428574999998773,
          "durationTicks": 240,
          "midi": 76,
          "name": "E5",
          "ticks": 100800,
          "time": 90.000015,
          "velocity": 0.5984251968503937
        },
        {
          "duration": 0.21428575000000194,
          "durationTicks": 240,
          "midi": 75,
          "name": "D#5",
          "ticks": 101040,
          "time": 90.21430074999999,
          "velocity": 0.5984251968503937
        },
        {
          "duration": 0.21428575000000194,
          "durationTicks": 240,
          "midi": 76,
          "name": "E5",
          "ticks": 101280,
          "time": 90.4285865,
          "velocity": 0.5984251968503937
        },
        {
          "duration": 0.21428575000000194,
          "durationTicks": 240,
          "midi": 71,
          "name": "B4",
          "ticks": 101520,
          "time": 90.64287225,
          "velocity": 0.5984251968503937
        },
        {
          "duration": 0.21428575000000194,
          "durationTicks": 240,
          "midi": 74,
          "name": "D5",
          "ticks": 101760,
          "time": 90.857158,
          "velocity": 0.5984251968503937
        },
        {
          "duration": 0.21428575000000194,
          "durationTicks": 240,
          "midi": 72,
          "name": "C5",
          "ticks": 102000,
          "time": 91.07144375,
          "velocity": 0.5984251968503937
        },
        {
          "duration": 0.42857149999998967,
          "durationTicks": 480,
          "midi": 69,
          "name": "A4",
          "ticks": 102240,
          "time": 91.2857295,
          "velocity": 0.5984251968503937
        },
        {
          "duration": 0.21428575000000194,
          "durationTicks": 240,
          "midi": 45,
          "name": "A2",
          "ticks": 102240,
          "time": 91.2857295,
          "velocity": 0.5511811023622047
        },
        {
          "duration": 0.21428574999998773,
          "durationTicks": 240,
          "midi": 52,
          "name": "E3",
          "ticks": 102480,
          "time": 91.50001525,
          "velocity": 0.5511811023622047
        },
        {
          "duration": 0.21428575000000194,
          "durationTicks": 240,
          "midi": 57,
          "name": "A3",
          "ticks": 102720,
          "time": 91.71430099999999,
          "velocity": 0.5511811023622047
        },
        {
          "duration": 0.21428575000000194,
          "durationTicks": 240,
          "midi": 60,
          "name": "C4",
          "ticks": 102960,
          "time": 91.92858675,
          "velocity": 0.5984251968503937
        },
        {
          "duration": 0.21428575000000194,
          "durationTicks": 240,
          "midi": 64,
          "name": "E4",
          "ticks": 103200,
          "time": 92.1428725,
          "velocity": 0.6535433070866141
        },
        {
          "duration": 0.21428575000000194,
          "durationTicks": 240,
          "midi": 69,
          "name": "A4",
          "ticks": 103440,
          "time": 92.35715825,
          "velocity": 0.6535433070866141
        },
        {
          "duration": 0.4285715000000039,
          "durationTicks": 480,
          "midi": 71,
          "name": "B4",
          "ticks": 103680,
          "time": 92.571444,
          "velocity": 0.6535433070866141
        },
        {
          "duration": 0.21428575000000194,
          "durationTicks": 240,
          "midi": 40,
          "name": "E2",
          "ticks": 103680,
          "time": 92.571444,
          "velocity": 0.5511811023622047
        },
        {
          "duration": 0.21428575000000194,
          "durationTicks": 240,
          "midi": 52,
          "name": "E3",
          "ticks": 103920,
          "time": 92.78572975,
          "velocity": 0.5511811023622047
        },
        {
          "duration": 0.21428575000000194,
          "durationTicks": 240,
          "midi": 56,
          "name": "G#3",
          "ticks": 104160,
          "time": 93.0000155,
          "velocity": 0.5511811023622047
        },
        {
          "duration": 0.21428574999998773,
          "durationTicks": 240,
          "midi": 64,
          "name": "E4",
          "ticks": 104400,
          "time": 93.21430125,
          "velocity": 0.5984251968503937
        },
        {
          "duration": 0.21428575000000194,
          "durationTicks": 240,
          "midi": 72,
          "name": "C5",
          "ticks": 104640,
          "time": 93.428587,
          "velocity": 0.5984251968503937
        },
        {
          "duration": 0.21428575000000194,
          "durationTicks": 240,
          "midi": 71,
          "name": "B4",
          "ticks": 104880,
          "time": 93.64287275,
          "velocity": 0.5984251968503937
        },
        {
          "duration": 0.4285715000000039,
          "durationTicks": 480,
          "midi": 69,
          "name": "A4",
          "ticks": 105120,
          "time": 93.8571585,
          "velocity": 0.6535433070866141
        },
        {
          "duration": 0.21428575000000194,
          "durationTicks": 240,
          "midi": 45,
          "name": "A2",
          "ticks": 105120,
          "time": 93.8571585,
          "velocity": 0.5039370078740157
        },
        {
          "duration": 0.21428575000000194,
          "durationTicks": 240,
          "midi": 52,
          "name": "E3",
          "ticks": 105360,
          "time": 94.07144425,
          "velocity": 0.5511811023622047
        },
        {
          "duration": 0.21428575000000194,
          "durationTicks": 240,
          "midi": 57,
          "name": "A3",
          "ticks": 105600,
          "time": 94.28573,
          "velocity": 0.5984251968503937
        },
        {
          "duration": 0.21428575000000194,
          "durationTicks": 240,
          "midi": 71,
          "name": "B4",
          "ticks": 105840,
          "time": 94.50001575,
          "velocity": 0.6535433070866141
        },
        {
          "duration": 0.21428574999998773,
          "durationTicks": 240,
          "midi": 72,
          "name": "C5",
          "ticks": 106080,
          "time": 94.7143015,
          "velocity": 0.5984251968503937
        },
        {
          "duration": 0.21428575000000194,
          "durationTicks": 240,
          "midi": 74,
          "name": "D5",
          "ticks": 106320,
          "time": 94.92858724999999,
          "velocity": 0.5984251968503937
        },
        {
          "duration": 0.6428572500000058,
          "durationTicks": 720,
          "midi": 76,
          "name": "E5",
          "ticks": 106560,
          "time": 95.142873,
          "velocity": 0.6535433070866141
        },
        {
          "duration": 0.21428575000000194,
          "durationTicks": 240,
          "midi": 48,
          "name": "C3",
          "ticks": 106560,
          "time": 95.142873,
          "velocity": 0.5039370078740157
        },
        {
          "duration": 0.21428575000000194,
          "durationTicks": 240,
          "midi": 55,
          "name": "G3",
          "ticks": 106800,
          "time": 95.35715875,
          "velocity": 0.5511811023622047
        },
        {
          "duration": 0.21428575000000194,
          "durationTicks": 240,
          "midi": 60,
          "name": "C4",
          "ticks": 107040,
          "time": 95.5714445,
          "velocity": 0.5984251968503937
        },
        {
          "duration": 0.21428575000000194,
          "durationTicks": 240,
          "midi": 67,
          "name": "G4",
          "ticks": 107280,
          "time": 95.78573025,
          "velocity": 0.5984251968503937
        },
        {
          "duration": 0.21428575000000194,
          "durationTicks": 240,
          "midi": 77,
          "name": "F5",
          "ticks": 107520,
          "time": 96.000016,
          "velocity": 0.5984251968503937
        },
        {
          "duration": 0.21428574999998773,
          "durationTicks": 240,
          "midi": 76,
          "name": "E5",
          "ticks": 107760,
          "time": 96.21430175,
          "velocity": 0.5984251968503937
        },
        {
          "duration": 0.6428572500000058,
          "durationTicks": 720,
          "midi": 74,
          "name": "D5",
          "ticks": 108000,
          "time": 96.42858749999999,
          "velocity": 0.5984251968503937
        },
        {
          "duration": 0.21428575000000194,
          "durationTicks": 240,
          "midi": 43,
          "name": "G2",
          "ticks": 108000,
          "time": 96.42858749999999,
          "velocity": 0.5511811023622047
        },
        {
          "duration": 0.21428575000000194,
          "durationTicks": 240,
          "midi": 55,
          "name": "G3",
          "ticks": 108240,
          "time": 96.64287325,
          "velocity": 0.5984251968503937
        },
        {
          "duration": 0.21428575000000194,
          "durationTicks": 240,
          "midi": 59,
          "name": "B3",
          "ticks": 108480,
          "time": 96.857159,
          "velocity": 0.5984251968503937
        },
        {
          "duration": 0.21428575000000194,
          "durationTicks": 240,
          "midi": 65,
          "name": "F4",
          "ticks": 108720,
          "time": 97.07144475,
          "velocity": 0.5984251968503937
        },
        {
          "duration": 0.21428575000000194,
          "durationTicks": 240,
          "midi": 76,
          "name": "E5",
          "ticks": 108960,
          "time": 97.2857305,
          "velocity": 0.5984251968503937
        },
        {
          "duration": 0.21428575000000194,
          "durationTicks": 240,
          "midi": 74,
          "name": "D5",
          "ticks": 109200,
          "time": 97.50001625,
          "velocity": 0.5984251968503937
        },
        {
          "duration": 0.6428572499999916,
          "durationTicks": 720,
          "midi": 72,
          "name": "C5",
          "ticks": 109440,
          "time": 97.714302,
          "velocity": 0.5984251968503937
        },
        {
          "duration": 0.21428575000000194,
          "durationTicks": 240,
          "midi": 45,
          "name": "A2",
          "ticks": 109440,
          "time": 97.714302,
          "velocity": 0.5511811023622047
        },
        {
          "duration": 0.21428574999998773,
          "durationTicks": 240,
          "midi": 52,
          "name": "E3",
          "ticks": 109680,
          "time": 97.92858775,
          "velocity": 0.5984251968503937
        },
        {
          "duration": 0.21428575000000194,
          "durationTicks": 240,
          "midi": 57,
          "name": "A3",
          "ticks": 109920,
          "time": 98.1428735,
          "velocity": 0.5984251968503937
        },
        {
          "duration": 0.21428575000000194,
          "durationTicks": 240,
          "midi": 64,
          "name": "E4",
          "ticks": 110160,
          "time": 98.35715925,
          "velocity": 0.5984251968503937
        },
        {
          "duration": 0.21428575000000194,
          "durationTicks": 240,
          "midi": 74,
          "name": "D5",
          "ticks": 110400,
          "time": 98.571445,
          "velocity": 0.5984251968503937
        },
        {
          "duration": 0.21428575000000194,
          "durationTicks": 240,
          "midi": 72,
          "name": "C5",
          "ticks": 110640,
          "time": 98.78573075,
          "velocity": 0.5984251968503937
        },
        {
          "duration": 0.4285715000000039,
          "durationTicks": 480,
          "midi": 71,
          "name": "B4",
          "ticks": 110880,
          "time": 99.0000165,
          "velocity": 0.5984251968503937
        },
        {
          "duration": 0.21428575000000194,
          "durationTicks": 240,
          "midi": 40,
          "name": "E2",
          "ticks": 110880,
          "time": 99.0000165,
          "velocity": 0.5984251968503937
        },
        {
          "duration": 0.21428575000000194,
          "durationTicks": 240,
          "midi": 52,
          "name": "E3",
          "ticks": 111120,
          "time": 99.21430225,
          "velocity": 0.5984251968503937
        },
        {
          "duration": 0.21428574999998773,
          "durationTicks": 240,
          "midi": 64,
          "name": "E4",
          "ticks": 111360,
          "time": 99.428588,
          "velocity": 0.5984251968503937
        },
        {
          "duration": 0.21428575000000194,
          "durationTicks": 240,
          "midi": 64,
          "name": "E4",
          "ticks": 111600,
          "time": 99.64287374999999,
          "velocity": 0.5984251968503937
        },
        {
          "duration": 0.21428575000000194,
          "durationTicks": 240,
          "midi": 76,
          "name": "E5",
          "ticks": 111840,
          "time": 99.8571595,
          "velocity": 0.5984251968503937
        },
        {
          "duration": 0.21428575000000194,
          "durationTicks": 240,
          "midi": 64,
          "name": "E4",
          "ticks": 112080,
          "time": 100.07144525,
          "velocity": 0.5984251968503937
        },
        {
          "duration": 0.21428575000000194,
          "durationTicks": 240,
          "midi": 76,
          "name": "E5",
          "ticks": 112320,
          "time": 100.285731,
          "velocity": 0.5984251968503937
        },
        {
          "duration": 0.21428575000000194,
          "durationTicks": 240,
          "midi": 76,
          "name": "E5",
          "ticks": 112560,
          "time": 100.50001675,
          "velocity": 0.5984251968503937
        },
        {
          "duration": 0.21428575000000194,
          "durationTicks": 240,
          "midi": 88,
          "name": "E6",
          "ticks": 112800,
          "time": 100.7143025,
          "velocity": 0.5984251968503937
        },
        {
          "duration": 0.21428574999998773,
          "durationTicks": 240,
          "midi": 75,
          "name": "D#5",
          "ticks": 113040,
          "time": 100.92858825,
          "velocity": 0.5984251968503937
        },
        {
          "duration": 0.21428575000000194,
          "durationTicks": 240,
          "midi": 76,
          "name": "E5",
          "ticks": 113280,
          "time": 101.14287399999999,
          "velocity": 0.5984251968503937
        },
        {
          "duration": 0.21428575000000194,
          "durationTicks": 240,
          "midi": 75,
          "name": "D#5",
          "ticks": 113520,
          "time": 101.35715975,
          "velocity": 0.5984251968503937
        },
        {
          "duration": 0.21428575000000194,
          "durationTicks": 240,
          "midi": 76,
          "name": "E5",
          "ticks": 113760,
          "time": 101.5714455,
          "velocity": 0.5984251968503937
        },
        {
          "duration": 0.21428575000000194,
          "durationTicks": 240,
          "midi": 75,
          "name": "D#5",
          "ticks": 114000,
          "time": 101.78573125,
          "velocity": 0.5984251968503937
        },
        {
          "duration": 0.21428575000000194,
          "durationTicks": 240,
          "midi": 76,
          "name": "E5",
          "ticks": 114240,
          "time": 102.000017,
          "velocity": 0.5984251968503937
        },
        {
          "duration": 0.21428575000000194,
          "durationTicks": 240,
          "midi": 71,
          "name": "B4",
          "ticks": 114480,
          "time": 102.21430275,
          "velocity": 0.5984251968503937
        },
        {
          "duration": 0.21428575000000194,
          "durationTicks": 240,
          "midi": 74,
          "name": "D5",
          "ticks": 114720,
          "time": 102.4285885,
          "velocity": 0.5984251968503937
        },
        {
          "duration": 0.21428574999998773,
          "durationTicks": 240,
          "midi": 72,
          "name": "C5",
          "ticks": 114960,
          "time": 102.64287425,
          "velocity": 0.5984251968503937
        },
        {
          "duration": 0.4285715000000039,
          "durationTicks": 480,
          "midi": 69,
          "name": "A4",
          "ticks": 115200,
          "time": 102.85716,
          "velocity": 0.5984251968503937
        },
        {
          "duration": 0.21428575000000194,
          "durationTicks": 240,
          "midi": 45,
          "name": "A2",
          "ticks": 115200,
          "time": 102.85716,
          "velocity": 0.5984251968503937
        },
        {
          "duration": 0.21428575000000194,
          "durationTicks": 240,
          "midi": 52,
          "name": "E3",
          "ticks": 115440,
          "time": 103.07144575,
          "velocity": 0.5984251968503937
        },
        {
          "duration": 0.21428575000000194,
          "durationTicks": 240,
          "midi": 57,
          "name": "A3",
          "ticks": 115680,
          "time": 103.2857315,
          "velocity": 0.5984251968503937
        },
        {
          "duration": 0.21428575000000194,
          "durationTicks": 240,
          "midi": 60,
          "name": "C4",
          "ticks": 115920,
          "time": 103.50001725,
          "velocity": 0.5984251968503937
        },
        {
          "duration": 0.21428575000000194,
          "durationTicks": 240,
          "midi": 64,
          "name": "E4",
          "ticks": 116160,
          "time": 103.714303,
          "velocity": 0.5984251968503937
        },
        {
          "duration": 0.21428575000000194,
          "durationTicks": 240,
          "midi": 69,
          "name": "A4",
          "ticks": 116400,
          "time": 103.92858875,
          "velocity": 0.5984251968503937
        },
        {
          "duration": 0.42857149999998967,
          "durationTicks": 480,
          "midi": 71,
          "name": "B4",
          "ticks": 116640,
          "time": 104.1428745,
          "velocity": 0.5984251968503937
        },
        {
          "duration": 0.21428574999998773,
          "durationTicks": 240,
          "midi": 40,
          "name": "E2",
          "ticks": 116640,
          "time": 104.1428745,
          "velocity": 0.5984251968503937
        },
        {
          "duration": 0.21428575000000194,
          "durationTicks": 240,
          "midi": 52,
          "name": "E3",
          "ticks": 116880,
          "time": 104.35716024999999,
          "velocity": 0.5984251968503937
        },
        {
          "duration": 0.21428575000000194,
          "durationTicks": 240,
          "midi": 56,
          "name": "G#3",
          "ticks": 117120,
          "time": 104.571446,
          "velocity": 0.5984251968503937
        },
        {
          "duration": 0.21428575000000194,
          "durationTicks": 240,
          "midi": 64,
          "name": "E4",
          "ticks": 117360,
          "time": 104.78573175,
          "velocity": 0.5984251968503937
        },
        {
          "duration": 0.21428575000000194,
          "durationTicks": 240,
          "midi": 68,
          "name": "G#4",
          "ticks": 117600,
          "time": 105.0000175,
          "velocity": 0.5984251968503937
        },
        {
          "duration": 0.21428575000000194,
          "durationTicks": 240,
          "midi": 71,
          "name": "B4",
          "ticks": 117840,
          "time": 105.21430325,
          "velocity": 0.5984251968503937
        },
        {
          "duration": 0.42857149999998967,
          "durationTicks": 480,
          "midi": 72,
          "name": "C5",
          "ticks": 118080,
          "time": 105.428589,
          "velocity": 0.5984251968503937
        },
        {
          "duration": 0.21428575000000194,
          "durationTicks": 240,
          "midi": 45,
          "name": "A2",
          "ticks": 118080,
          "time": 105.428589,
          "velocity": 0.5984251968503937
        },
        {
          "duration": 0.21428574999998773,
          "durationTicks": 240,
          "midi": 52,
          "name": "E3",
          "ticks": 118320,
          "time": 105.64287475,
          "velocity": 0.5984251968503937
        },
        {
          "duration": 0.21428575000000194,
          "durationTicks": 240,
          "midi": 57,
          "name": "A3",
          "ticks": 118560,
          "time": 105.85716049999999,
          "velocity": 0.5984251968503937
        },
        {
          "duration": 0.21428575000000194,
          "durationTicks": 240,
          "midi": 64,
          "name": "E4",
          "ticks": 118800,
          "time": 106.07144625,
          "velocity": 0.5984251968503937
        },
        {
          "duration": 0.21428575000000194,
          "durationTicks": 240,
          "midi": 76,
          "name": "E5",
          "ticks": 119040,
          "time": 106.285732,
          "velocity": 0.5984251968503937
        },
        {
          "duration": 0.21428575000000194,
          "durationTicks": 240,
          "midi": 75,
          "name": "D#5",
          "ticks": 119280,
          "time": 106.50001775,
          "velocity": 0.5984251968503937
        },
        {
          "duration": 0.21428575000000194,
          "durationTicks": 240,
          "midi": 76,
          "name": "E5",
          "ticks": 119520,
          "time": 106.7143035,
          "velocity": 0.5984251968503937
        },
        {
          "duration": 0.21428575000000194,
          "durationTicks": 240,
          "midi": 75,
          "name": "D#5",
          "ticks": 119760,
          "time": 106.92858925,
          "velocity": 0.5984251968503937
        },
        {
          "duration": 0.21428575000000194,
          "durationTicks": 240,
          "midi": 76,
          "name": "E5",
          "ticks": 120000,
          "time": 107.142875,
          "velocity": 0.5984251968503937
        },
        {
          "duration": 0.21428574999998773,
          "durationTicks": 240,
          "midi": 71,
          "name": "B4",
          "ticks": 120240,
          "time": 107.35716075,
          "velocity": 0.5984251968503937
        },
        {
          "duration": 0.21428575000000194,
          "durationTicks": 240,
          "midi": 74,
          "name": "D5",
          "ticks": 120480,
          "time": 107.5714465,
          "velocity": 0.5984251968503937
        },
        {
          "duration": 0.21428575000000194,
          "durationTicks": 240,
          "midi": 72,
          "name": "C5",
          "ticks": 120720,
          "time": 107.78573225,
          "velocity": 0.5984251968503937
        },
        {
          "duration": 0.4285715000000039,
          "durationTicks": 480,
          "midi": 69,
          "name": "A4",
          "ticks": 120960,
          "time": 108.000018,
          "velocity": 0.6535433070866141
        },
        {
          "duration": 0.21428575000000194,
          "durationTicks": 240,
          "midi": 45,
          "name": "A2",
          "ticks": 120960,
          "time": 108.000018,
          "velocity": 0.5511811023622047
        },
        {
          "duration": 0.21428575000000194,
          "durationTicks": 240,
          "midi": 52,
          "name": "E3",
          "ticks": 121200,
          "time": 108.21430375,
          "velocity": 0.5511811023622047
        },
        {
          "duration": 0.21428575000000194,
          "durationTicks": 240,
          "midi": 57,
          "name": "A3",
          "ticks": 121440,
          "time": 108.4285895,
          "velocity": 0.5984251968503937
        },
        {
          "duration": 0.21428575000000194,
          "durationTicks": 240,
          "midi": 60,
          "name": "C4",
          "ticks": 121680,
          "time": 108.64287525,
          "velocity": 0.6535433070866141
        },
        {
          "duration": 0.21428574999998773,
          "durationTicks": 240,
          "midi": 64,
          "name": "E4",
          "ticks": 121920,
          "time": 108.857161,
          "velocity": 0.6535433070866141
        },
        {
          "duration": 0.21428575000000194,
          "durationTicks": 240,
          "midi": 69,
          "name": "A4",
          "ticks": 122160,
          "time": 109.07144674999999,
          "velocity": 0.6535433070866141
        },
        {
          "duration": 0.4285715000000039,
          "durationTicks": 480,
          "midi": 71,
          "name": "B4",
          "ticks": 122400,
          "time": 109.2857325,
          "velocity": 0.7007874015748031
        },
        {
          "duration": 0.21428575000000194,
          "durationTicks": 240,
          "midi": 40,
          "name": "E2",
          "ticks": 122400,
          "time": 109.2857325,
          "velocity": 0.5039370078740157
        },
        {
          "duration": 0.21428575000000194,
          "durationTicks": 240,
          "midi": 52,
          "name": "E3",
          "ticks": 122640,
          "time": 109.50001825,
          "velocity": 0.5511811023622047
        },
        {
          "duration": 0.21428575000000194,
          "durationTicks": 240,
          "midi": 56,
          "name": "G#3",
          "ticks": 122880,
          "time": 109.714304,
          "velocity": 0.5984251968503937
        },
        {
          "duration": 0.21428575000000194,
          "durationTicks": 240,
          "midi": 64,
          "name": "E4",
          "ticks": 123120,
          "time": 109.92858975,
          "velocity": 0.5984251968503937
        },
        {
          "duration": 0.21428575000000194,
          "durationTicks": 240,
          "midi": 72,
          "name": "C5",
          "ticks": 123360,
          "time": 110.1428755,
          "velocity": 0.5984251968503937
        },
        {
          "duration": 0.21428574999998773,
          "durationTicks": 240,
          "midi": 71,
          "name": "B4",
          "ticks": 123600,
          "time": 110.35716125,
          "velocity": 0.6535433070866141
        },
        {
          "duration": 0.10714287500000808,
          "durationTicks": 120,
          "midi": 45,
          "name": "A2",
          "ticks": 123840,
          "time": 110.57144699999999,
          "velocity": 0.7007874015748031
        },
        {
          "duration": 0.4285715000000039,
          "durationTicks": 480,
          "midi": 69,
          "name": "A4",
          "ticks": 123840,
          "time": 110.57144699999999,
          "velocity": 0.7007874015748031
        },
        {
          "duration": 0.10714287500000808,
          "durationTicks": 120,
          "midi": 45,
          "name": "A2",
          "ticks": 124080,
          "time": 110.78573275,
          "velocity": 0.5984251968503937
        },
        {
          "duration": 0.10714287500000808,
          "durationTicks": 120,
          "midi": 45,
          "name": "A2",
          "ticks": 124320,
          "time": 111.0000185,
          "velocity": 0.6535433070866141
        },
        {
          "duration": 0.10714287499999386,
          "durationTicks": 120,
          "midi": 45,
          "name": "A2",
          "ticks": 124560,
          "time": 111.21430425,
          "velocity": 0.7007874015748031
        },
        {
          "duration": 0.10714287499999386,
          "durationTicks": 120,
          "midi": 45,
          "name": "A2",
          "ticks": 124800,
          "time": 111.42859,
          "velocity": 0.5984251968503937
        },
        {
          "duration": 0.10714287499999386,
          "durationTicks": 120,
          "midi": 45,
          "name": "A2",
          "ticks": 125040,
          "time": 111.64287575,
          "velocity": 0.6535433070866141
        },
        {
          "duration": 0.10714287499999386,
          "durationTicks": 120,
          "midi": 45,
          "name": "A2",
          "ticks": 125280,
          "time": 111.8571615,
          "velocity": 0.7007874015748031
        },
        {
          "duration": 1.2857144999999974,
          "durationTicks": 1440,
          "midi": 64,
          "name": "E4",
          "ticks": 125280,
          "time": 111.8571615,
          "velocity": 0.6141732283464567
        },
        {
          "duration": 1.2857144999999974,
          "durationTicks": 1440,
          "midi": 67,
          "name": "G4",
          "ticks": 125280,
          "time": 111.8571615,
          "velocity": 0.6141732283464567
        },
        {
          "duration": 1.2857144999999974,
          "durationTicks": 1440,
          "midi": 70,
          "name": "A#4",
          "ticks": 125280,
          "time": 111.8571615,
          "velocity": 0.6141732283464567
        },
        {
          "duration": 1.2857144999999974,
          "durationTicks": 1440,
          "midi": 73,
          "name": "C#5",
          "ticks": 125280,
          "time": 111.8571615,
          "velocity": 0.6141732283464567
        },
        {
          "duration": 0.10714287500000808,
          "durationTicks": 120,
          "midi": 45,
          "name": "A2",
          "ticks": 125520,
          "time": 112.07144724999999,
          "velocity": 0.5984251968503937
        },
        {
          "duration": 0.10714287500000808,
          "durationTicks": 120,
          "midi": 45,
          "name": "A2",
          "ticks": 125760,
          "time": 112.285733,
          "velocity": 0.6535433070866141
        },
        {
          "duration": 0.10714287500000808,
          "durationTicks": 120,
          "midi": 45,
          "name": "A2",
          "ticks": 126000,
          "time": 112.50001875,
          "velocity": 0.7007874015748031
        },
        {
          "duration": 0.10714287500000808,
          "durationTicks": 120,
          "midi": 45,
          "name": "A2",
          "ticks": 126240,
          "time": 112.7143045,
          "velocity": 0.5984251968503937
        },
        {
          "duration": 0.10714287499999386,
          "durationTicks": 120,
          "midi": 45,
          "name": "A2",
          "ticks": 126480,
          "time": 112.92859025,
          "velocity": 0.6535433070866141
        },
        {
          "duration": 0.10714287499999386,
          "durationTicks": 120,
          "midi": 45,
          "name": "A2",
          "ticks": 126720,
          "time": 113.142876,
          "velocity": 0.6141732283464567
        },
        {
          "duration": 0.8571429999999935,
          "durationTicks": 960,
          "midi": 74,
          "name": "D5",
          "ticks": 126720,
          "time": 113.142876,
          "velocity": 0.6141732283464567
        },
        {
          "duration": 0.8571429999999935,
          "durationTicks": 960,
          "midi": 65,
          "name": "F4",
          "ticks": 126720,
          "time": 113.142876,
          "velocity": 0.6141732283464567
        },
        {
          "duration": 0.8571429999999935,
          "durationTicks": 960,
          "midi": 69,
          "name": "A4",
          "ticks": 126720,
          "time": 113.142876,
          "velocity": 0.6141732283464567
        },
        {
          "duration": 0.10714287499999386,
          "durationTicks": 120,
          "midi": 45,
          "name": "A2",
          "ticks": 126960,
          "time": 113.35716175,
          "velocity": 0.6141732283464567
        },
        {
          "duration": 0.10714287499999386,
          "durationTicks": 120,
          "midi": 45,
          "name": "A2",
          "ticks": 127200,
          "time": 113.5714475,
          "velocity": 0.6141732283464567
        },
        {
          "duration": 0.10714287500000808,
          "durationTicks": 120,
          "midi": 45,
          "name": "A2",
          "ticks": 127440,
          "time": 113.78573324999999,
          "velocity": 0.6141732283464567
        },
        {
          "duration": 0.10714287500000808,
          "durationTicks": 120,
          "midi": 45,
          "name": "A2",
          "ticks": 127680,
          "time": 114.000019,
          "velocity": 0.6141732283464567
        },
        {
          "duration": 0.21428575000000194,
          "durationTicks": 240,
          "midi": 73,
          "name": "C#5",
          "ticks": 127680,
          "time": 114.000019,
          "velocity": 0.6141732283464567
        },
        {
          "duration": 0.21428575000000194,
          "durationTicks": 240,
          "midi": 76,
          "name": "E5",
          "ticks": 127680,
          "time": 114.000019,
          "velocity": 0.6141732283464567
        },
        {
          "duration": 0.10714287500000808,
          "durationTicks": 120,
          "midi": 45,
          "name": "A2",
          "ticks": 127920,
          "time": 114.21430475,
          "velocity": 0.6141732283464567
        },
        {
          "duration": 0.21428575000000194,
          "durationTicks": 240,
          "midi": 74,
          "name": "D5",
          "ticks": 127920,
          "time": 114.21430475,
          "velocity": 0.6141732283464567
        },
        {
          "duration": 0.21428575000000194,
          "durationTicks": 240,
          "midi": 77,
          "name": "F5",
          "ticks": 127920,
          "time": 114.21430475,
          "velocity": 0.6141732283464567
        },
        {
          "duration": 0.10714287499999386,
          "durationTicks": 120,
          "midi": 45,
          "name": "A2",
          "ticks": 128160,
          "time": 114.4285905,
          "velocity": 0.6141732283464567
        },
        {
          "duration": 0.8571429999999935,
          "durationTicks": 960,
          "midi": 77,
          "name": "F5",
          "ticks": 128160,
          "time": 114.4285905,
          "velocity": 0.6141732283464567
        },
        {
          "duration": 0.8571429999999935,
          "durationTicks": 960,
          "midi": 74,
          "name": "D5",
          "ticks": 128160,
          "time": 114.4285905,
          "velocity": 0.6141732283464567
        },
        {
          "duration": 0.8571429999999935,
          "durationTicks": 960,
          "midi": 68,
          "name": "G#4",
          "ticks": 128160,
          "time": 114.4285905,
          "velocity": 0.6141732283464567
        },
        {
          "duration": 0.10714287499999386,
          "durationTicks": 120,
          "midi": 45,
          "name": "A2",
          "ticks": 128400,
          "time": 114.64287625,
          "velocity": 0.6141732283464567
        },
        {
          "duration": 0.10714287499999386,
          "durationTicks": 120,
          "midi": 45,
          "name": "A2",
          "ticks": 128640,
          "time": 114.857162,
          "velocity": 0.6141732283464567
        },
        {
          "duration": 0.10714287499999386,
          "durationTicks": 120,
          "midi": 45,
          "name": "A2",
          "ticks": 128880,
          "time": 115.07144775,
          "velocity": 0.6141732283464567
        },
        {
          "duration": 0.10714287500000808,
          "durationTicks": 120,
          "midi": 45,
          "name": "A2",
          "ticks": 129120,
          "time": 115.28573349999999,
          "velocity": 0.6141732283464567
        },
        {
          "duration": 0.4285715000000039,
          "durationTicks": 480,
          "midi": 77,
          "name": "F5",
          "ticks": 129120,
          "time": 115.28573349999999,
          "velocity": 0.6141732283464567
        },
        {
          "duration": 0.4285715000000039,
          "durationTicks": 480,
          "midi": 74,
          "name": "D5",
          "ticks": 129120,
          "time": 115.28573349999999,
          "velocity": 0.6141732283464567
        },
        {
          "duration": 0.4285715000000039,
          "durationTicks": 480,
          "midi": 68,
          "name": "G#4",
          "ticks": 129120,
          "time": 115.28573349999999,
          "velocity": 0.6141732283464567
        },
        {
          "duration": 0.10714287500000808,
          "durationTicks": 120,
          "midi": 45,
          "name": "A2",
          "ticks": 129360,
          "time": 115.50001925,
          "velocity": 0.6141732283464567
        },
        {
          "duration": 0.10714287500000808,
          "durationTicks": 120,
          "midi": 45,
          "name": "A2",
          "ticks": 129600,
          "time": 115.714305,
          "velocity": 0.6141732283464567
        },
        {
          "duration": 1.2857144999999974,
          "durationTicks": 1440,
          "midi": 69,
          "name": "A4",
          "ticks": 129600,
          "time": 115.714305,
          "velocity": 0.6141732283464567
        },
        {
          "duration": 1.2857144999999974,
          "durationTicks": 1440,
          "midi": 72,
          "name": "C5",
          "ticks": 129600,
          "time": 115.714305,
          "velocity": 0.6141732283464567
        },
        {
          "duration": 1.2857144999999974,
          "durationTicks": 1440,
          "midi": 76,
          "name": "E5",
          "ticks": 129600,
          "time": 115.714305,
          "velocity": 0.6141732283464567
        },
        {
          "duration": 0.10714287499999386,
          "durationTicks": 120,
          "midi": 45,
          "name": "A2",
          "ticks": 129840,
          "time": 115.92859075,
          "velocity": 0.5984251968503937
        },
        {
          "duration": 0.10714287499999386,
          "durationTicks": 120,
          "midi": 45,
          "name": "A2",
          "ticks": 130080,
          "time": 116.1428765,
          "velocity": 0.6535433070866141
        },
        {
          "duration": 0.10714287499999386,
          "durationTicks": 120,
          "midi": 45,
          "name": "A2",
          "ticks": 130320,
          "time": 116.35716225,
          "velocity": 0.7007874015748031
        },
        {
          "duration": 0.10714287499999386,
          "durationTicks": 120,
          "midi": 45,
          "name": "A2",
          "ticks": 130560,
          "time": 116.571448,
          "velocity": 0.6535433070866141
        },
        {
          "duration": 0.10714287500000808,
          "durationTicks": 120,
          "midi": 45,
          "name": "A2",
          "ticks": 130800,
          "time": 116.78573374999999,
          "velocity": 0.5984251968503937
        },
        {
          "duration": 0.10714287500000808,
          "durationTicks": 120,
          "midi": 45,
          "name": "A2",
          "ticks": 131040,
          "time": 117.0000195,
          "velocity": 0.6535433070866141
        },
        {
          "duration": 0.10714287500000808,
          "durationTicks": 120,
          "midi": 38,
          "name": "D2",
          "ticks": 131040,
          "time": 117.0000195,
          "velocity": 0.7007874015748031
        },
        {
          "duration": 0.8571430000000078,
          "durationTicks": 960,
          "midi": 74,
          "name": "D5",
          "ticks": 131040,
          "time": 117.0000195,
          "velocity": 0.6535433070866141
        },
        {
          "duration": 0.8571430000000078,
          "durationTicks": 960,
          "midi": 65,
          "name": "F4",
          "ticks": 131040,
          "time": 117.0000195,
          "velocity": 0.7007874015748031
        },
        {
          "duration": 0.10714287500000808,
          "durationTicks": 120,
          "midi": 45,
          "name": "A2",
          "ticks": 131280,
          "time": 117.21430525,
          "velocity": 0.6535433070866141
        },
        {
          "duration": 0.10714287500000808,
          "durationTicks": 120,
          "midi": 38,
          "name": "D2",
          "ticks": 131280,
          "time": 117.21430525,
          "velocity": 0.6535433070866141
        },
        {
          "duration": 0.10714287500000808,
          "durationTicks": 120,
          "midi": 45,
          "name": "A2",
          "ticks": 131520,
          "time": 117.428591,
          "velocity": 0.5984251968503937
        },
        {
          "duration": 0.10714287500000808,
          "durationTicks": 120,
          "midi": 38,
          "name": "D2",
          "ticks": 131520,
          "time": 117.428591,
          "velocity": 0.6535433070866141
        },
        {
          "duration": 0.10714287499999386,
          "durationTicks": 120,
          "midi": 45,
          "name": "A2",
          "ticks": 131760,
          "time": 117.64287675,
          "velocity": 0.7007874015748031
        },
        {
          "duration": 0.10714287499999386,
          "durationTicks": 120,
          "midi": 38,
          "name": "D2",
          "ticks": 131760,
          "time": 117.64287675,
          "velocity": 0.6535433070866141
        },
        {
          "duration": 0.10714287499999386,
          "durationTicks": 120,
          "midi": 45,
          "name": "A2",
          "ticks": 132000,
          "time": 117.8571625,
          "velocity": 0.6141732283464567
        },
        {
          "duration": 0.10714287499999386,
          "durationTicks": 120,
          "midi": 38,
          "name": "D2",
          "ticks": 132000,
          "time": 117.8571625,
          "velocity": 0.6141732283464567
        },
        {
          "duration": 0.21428575000000194,
          "durationTicks": 240,
          "midi": 72,
          "name": "C5",
          "ticks": 132000,
          "time": 117.8571625,
          "velocity": 0.6535433070866141
        },
        {
          "duration": 0.21428575000000194,
          "durationTicks": 240,
          "midi": 64,
          "name": "E4",
          "ticks": 132000,
          "time": 117.8571625,
          "velocity": 0.6535433070866141
        },
        {
          "duration": 0.10714287499999386,
          "durationTicks": 120,
          "midi": 45,
          "name": "A2",
          "ticks": 132240,
          "time": 118.07144825,
          "velocity": 0.6141732283464567
        },
        {
          "duration": 0.10714287499999386,
          "durationTicks": 120,
          "midi": 38,
          "name": "D2",
          "ticks": 132240,
          "time": 118.07144825,
          "velocity": 0.6141732283464567
        },
        {
          "duration": 0.21428575000000194,
          "durationTicks": 240,
          "midi": 71,
          "name": "B4",
          "ticks": 132240,
          "time": 118.07144825,
          "velocity": 0.6141732283464567
        },
        {
          "duration": 0.21428575000000194,
          "durationTicks": 240,
          "midi": 62,
          "name": "D4",
          "ticks": 132240,
          "time": 118.07144825,
          "velocity": 0.6141732283464567
        },
        {
          "duration": 0.10714287499999386,
          "durationTicks": 120,
          "midi": 39,
          "name": "D#2",
          "ticks": 132480,
          "time": 118.285734,
          "velocity": 0.5984251968503937
        },
        {
          "duration": 0.10714287499999386,
          "durationTicks": 120,
          "midi": 45,
          "name": "A2",
          "ticks": 132480,
          "time": 118.285734,
          "velocity": 0.6535433070866141
        },
        {
          "duration": 0.8571429999999935,
          "durationTicks": 960,
          "midi": 60,
          "name": "C4",
          "ticks": 132480,
          "time": 118.285734,
          "velocity": 0.6535433070866141
        },
        {
          "duration": 0.8571429999999935,
          "durationTicks": 960,
          "midi": 66,
          "name": "F#4",
          "ticks": 132480,
          "time": 118.285734,
          "velocity": 0.6141732283464567
        },
        {
          "duration": 0.8571429999999935,
          "durationTicks": 960,
          "midi": 69,
          "name": "A4",
          "ticks": 132480,
          "time": 118.285734,
          "velocity": 0.6535433070866141
        },
        {
          "duration": 0.10714287500000808,
          "durationTicks": 120,
          "midi": 45,
          "name": "A2",
          "ticks": 132720,
          "time": 118.50001974999999,
          "velocity": 0.5984251968503937
        },
        {
          "duration": 0.05357143750001114,
          "durationTicks": 60,
          "midi": 39,
          "name": "D#2",
          "ticks": 132720,
          "time": 118.50001974999999,
          "velocity": 0.6141732283464567
        },
        {
          "duration": 0.10714287500000808,
          "durationTicks": 120,
          "midi": 45,
          "name": "A2",
          "ticks": 132960,
          "time": 118.7143055,
          "velocity": 0.6141732283464567
        },
        {
          "duration": 0.05357143749999693,
          "durationTicks": 60,
          "midi": 39,
          "name": "D#2",
          "ticks": 132960,
          "time": 118.7143055,
          "velocity": 0.6141732283464567
        },
        {
          "duration": 0.10714287500000808,
          "durationTicks": 120,
          "midi": 45,
          "name": "A2",
          "ticks": 133200,
          "time": 118.92859125,
          "velocity": 0.6141732283464567
        },
        {
          "duration": 0.013392859375002786,
          "durationTicks": 15,
          "midi": 39,
          "name": "D#2",
          "ticks": 133200,
          "time": 118.92859125,
          "velocity": 0.6141732283464567
        },
        {
          "duration": 0.10714287499999386,
          "durationTicks": 120,
          "midi": 45,
          "name": "A2",
          "ticks": 133440,
          "time": 119.142877,
          "velocity": 0.6141732283464567
        },
        {
          "duration": 0.4285715000000039,
          "durationTicks": 480,
          "midi": 60,
          "name": "C4",
          "ticks": 133440,
          "time": 119.142877,
          "velocity": 0.6141732283464567
        },
        {
          "duration": 0.4285715000000039,
          "durationTicks": 480,
          "midi": 69,
          "name": "A4",
          "ticks": 133440,
          "time": 119.142877,
          "velocity": 0.6141732283464567
        },
        {
          "duration": 0.05357143749999693,
          "durationTicks": 60,
          "midi": 39,
          "name": "D#2",
          "ticks": 133440,
          "time": 119.142877,
          "velocity": 0.6141732283464567
        },
        {
          "duration": 0.10714287499999386,
          "durationTicks": 120,
          "midi": 45,
          "name": "A2",
          "ticks": 133680,
          "time": 119.35716275,
          "velocity": 0.6141732283464567
        },
        {
          "duration": 0.05357143749999693,
          "durationTicks": 60,
          "midi": 39,
          "name": "D#2",
          "ticks": 133680,
          "time": 119.35716275,
          "velocity": 0.6141732283464567
        },
        {
          "duration": 0.10714287499999386,
          "durationTicks": 120,
          "midi": 45,
          "name": "A2",
          "ticks": 133920,
          "time": 119.5714485,
          "velocity": 0.6141732283464567
        },
        {
          "duration": 0.10714287499999386,
          "durationTicks": 120,
          "midi": 40,
          "name": "E2",
          "ticks": 133920,
          "time": 119.5714485,
          "velocity": 0.6141732283464567
        },
        {
          "duration": 0.42857149999998967,
          "durationTicks": 480,
          "midi": 69,
          "name": "A4",
          "ticks": 133920,
          "time": 119.5714485,
          "velocity": 0.6141732283464567
        },
        {
          "duration": 0.42857149999998967,
          "durationTicks": 480,
          "midi": 60,
          "name": "C4",
          "ticks": 133920,
          "time": 119.5714485,
          "velocity": 0.6141732283464567
        },
        {
          "duration": 0.10714287499999386,
          "durationTicks": 120,
          "midi": 45,
          "name": "A2",
          "ticks": 134160,
          "time": 119.78573425,
          "velocity": 0.6141732283464567
        },
        {
          "duration": 0.10714287499999386,
          "durationTicks": 120,
          "midi": 40,
          "name": "E2",
          "ticks": 134160,
          "time": 119.78573425,
          "velocity": 0.6141732283464567
        },
        {
          "duration": 0.10714287500000808,
          "durationTicks": 120,
          "midi": 45,
          "name": "A2",
          "ticks": 134400,
          "time": 120.00001999999999,
          "velocity": 0.6141732283464567
        },
        {
          "duration": 0.10714287500000808,
          "durationTicks": 120,
          "midi": 40,
          "name": "E2",
          "ticks": 134400,
          "time": 120.00001999999999,
          "velocity": 0.6141732283464567
        },
        {
          "duration": 0.4285715000000039,
          "durationTicks": 480,
          "midi": 72,
          "name": "C5",
          "ticks": 134400,
          "time": 120.00001999999999,
          "velocity": 0.6141732283464567
        },
        {
          "duration": 0.4285715000000039,
          "durationTicks": 480,
          "midi": 64,
          "name": "E4",
          "ticks": 134400,
          "time": 120.00001999999999,
          "velocity": 0.6141732283464567
        },
        {
          "duration": 0.10714287500000808,
          "durationTicks": 120,
          "midi": 45,
          "name": "A2",
          "ticks": 134640,
          "time": 120.21430575,
          "velocity": 0.6141732283464567
        },
        {
          "duration": 0.10714287500000808,
          "durationTicks": 120,
          "midi": 40,
          "name": "E2",
          "ticks": 134640,
          "time": 120.21430575,
          "velocity": 0.6141732283464567
        },
        {
          "duration": 0.10714287500000808,
          "durationTicks": 120,
          "midi": 44,
          "name": "G#2",
          "ticks": 134880,
          "time": 120.4285915,
          "velocity": 0.6141732283464567
        },
        {
          "duration": 0.10714287500000808,
          "durationTicks": 120,
          "midi": 40,
          "name": "E2",
          "ticks": 134880,
          "time": 120.4285915,
          "velocity": 0.6141732283464567
        },
        {
          "duration": 0.4285715000000039,
          "durationTicks": 480,
          "midi": 71,
          "name": "B4",
          "ticks": 134880,
          "time": 120.4285915,
          "velocity": 0.6141732283464567
        },
        {
          "duration": 0.4285715000000039,
          "durationTicks": 480,
          "midi": 62,
          "name": "D4",
          "ticks": 134880,
          "time": 120.4285915,
          "velocity": 0.6141732283464567
        },
        {
          "duration": 0.10714287499999386,
          "durationTicks": 120,
          "midi": 44,
          "name": "G#2",
          "ticks": 135120,
          "time": 120.64287725,
          "velocity": 0.6141732283464567
        },
        {
          "duration": 0.10714287499999386,
          "durationTicks": 120,
          "midi": 40,
          "name": "E2",
          "ticks": 135120,
          "time": 120.64287725,
          "velocity": 0.6141732283464567
        },
        {
          "duration": 0.10714287499999386,
          "durationTicks": 120,
          "midi": 45,
          "name": "A2",
          "ticks": 135360,
          "time": 120.857163,
          "velocity": 0.6141732283464567
        },
        {
          "duration": 0.10714287499999386,
          "durationTicks": 120,
          "midi": 33,
          "name": "A1",
          "ticks": 135360,
          "time": 120.857163,
          "velocity": 0.6141732283464567
        },
        {
          "duration": 1.2857144999999974,
          "durationTicks": 1440,
          "midi": 69,
          "name": "A4",
          "ticks": 135360,
          "time": 120.857163,
          "velocity": 0.6141732283464567
        },
        {
          "duration": 1.2857144999999974,
          "durationTicks": 1440,
          "midi": 60,
          "name": "C4",
          "ticks": 135360,
          "time": 120.857163,
          "velocity": 0.6141732283464567
        },
        {
          "duration": 0.10714287499999386,
          "durationTicks": 120,
          "midi": 45,
          "name": "A2",
          "ticks": 135600,
          "time": 121.07144875,
          "velocity": 0.5984251968503937
        },
        {
          "duration": 0.10714287499999386,
          "durationTicks": 120,
          "midi": 45,
          "name": "A2",
          "ticks": 135840,
          "time": 121.2857345,
          "velocity": 0.6535433070866141
        },
        {
          "duration": 0.10714287500000808,
          "durationTicks": 120,
          "midi": 45,
          "name": "A2",
          "ticks": 136080,
          "time": 121.50002024999999,
          "velocity": 0.7007874015748031
        },
        {
          "duration": 0.10714287500000808,
          "durationTicks": 120,
          "midi": 45,
          "name": "A2",
          "ticks": 136320,
          "time": 121.714306,
          "velocity": 0.5984251968503937
        },
        {
          "duration": 0.10714287500000808,
          "durationTicks": 120,
          "midi": 45,
          "name": "A2",
          "ticks": 136560,
          "time": 121.92859175,
          "velocity": 0.6535433070866141
        },
        {
          "duration": 0.10714287500000808,
          "durationTicks": 120,
          "midi": 45,
          "name": "A2",
          "ticks": 136800,
          "time": 122.1428775,
          "velocity": 0.5984251968503937
        },
        {
          "duration": 1.2857144999999974,
          "durationTicks": 1440,
          "midi": 64,
          "name": "E4",
          "ticks": 136800,
          "time": 122.1428775,
          "velocity": 0.6535433070866141
        },
        {
          "duration": 1.2857144999999974,
          "durationTicks": 1440,
          "midi": 67,
          "name": "G4",
          "ticks": 136800,
          "time": 122.1428775,
          "velocity": 0.6141732283464567
        },
        {
          "duration": 1.2857144999999974,
          "durationTicks": 1440,
          "midi": 70,
          "name": "A#4",
          "ticks": 136800,
          "time": 122.1428775,
          "velocity": 0.6141732283464567
        },
        {
          "duration": 1.2857144999999974,
          "durationTicks": 1440,
          "midi": 73,
          "name": "C#5",
          "ticks": 136800,
          "time": 122.1428775,
          "velocity": 0.6141732283464567
        },
        {
          "duration": 0.10714287499999386,
          "durationTicks": 120,
          "midi": 45,
          "name": "A2",
          "ticks": 137040,
          "time": 122.35716325,
          "velocity": 0.7007874015748031
        },
        {
          "duration": 0.10714287499999386,
          "durationTicks": 120,
          "midi": 45,
          "name": "A2",
          "ticks": 137280,
          "time": 122.571449,
          "velocity": 0.6535433070866141
        },
        {
          "duration": 0.10714287499999386,
          "durationTicks": 120,
          "midi": 45,
          "name": "A2",
          "ticks": 137520,
          "time": 122.78573475,
          "velocity": 0.7007874015748031
        },
        {
          "duration": 0.10714287499999386,
          "durationTicks": 120,
          "midi": 45,
          "name": "A2",
          "ticks": 137760,
          "time": 123.0000205,
          "velocity": 0.5984251968503937
        },
        {
          "duration": 0.10714287500000808,
          "durationTicks": 120,
          "midi": 45,
          "name": "A2",
          "ticks": 138000,
          "time": 123.21430624999999,
          "velocity": 0.6535433070866141
        },
        {
          "duration": 0.10714287500000808,
          "durationTicks": 120,
          "midi": 45,
          "name": "A2",
          "ticks": 138240,
          "time": 123.428592,
          "velocity": 0.6141732283464567
        },
        {
          "duration": 0.8571430000000078,
          "durationTicks": 960,
          "midi": 74,
          "name": "D5",
          "ticks": 138240,
          "time": 123.428592,
          "velocity": 0.6141732283464567
        },
        {
          "duration": 0.8571430000000078,
          "durationTicks": 960,
          "midi": 69,
          "name": "A4",
          "ticks": 138240,
          "time": 123.428592,
          "velocity": 0.6141732283464567
        },
        {
          "duration": 0.8571430000000078,
          "durationTicks": 960,
          "midi": 65,
          "name": "F4",
          "ticks": 138240,
          "time": 123.428592,
          "velocity": 0.6141732283464567
        },
        {
          "duration": 0.10714287500000808,
          "durationTicks": 120,
          "midi": 45,
          "name": "A2",
          "ticks": 138480,
          "time": 123.64287775,
          "velocity": 0.6141732283464567
        },
        {
          "duration": 0.10714287499999386,
          "durationTicks": 120,
          "midi": 45,
          "name": "A2",
          "ticks": 138720,
          "time": 123.8571635,
          "velocity": 0.6141732283464567
        },
        {
          "duration": 0.10714287499999386,
          "durationTicks": 120,
          "midi": 45,
          "name": "A2",
          "ticks": 138960,
          "time": 124.07144925,
          "velocity": 0.6141732283464567
        },
        {
          "duration": 0.10714287499999386,
          "durationTicks": 120,
          "midi": 45,
          "name": "A2",
          "ticks": 139200,
          "time": 124.285735,
          "velocity": 0.6141732283464567
        },
        {
          "duration": 0.21428575000000194,
          "durationTicks": 240,
          "midi": 73,
          "name": "C#5",
          "ticks": 139200,
          "time": 124.285735,
          "velocity": 0.6141732283464567
        },
        {
          "duration": 0.21428575000000194,
          "durationTicks": 240,
          "midi": 76,
          "name": "E5",
          "ticks": 139200,
          "time": 124.285735,
          "velocity": 0.6141732283464567
        },
        {
          "duration": 0.10714287499999386,
          "durationTicks": 120,
          "midi": 45,
          "name": "A2",
          "ticks": 139440,
          "time": 124.50002075,
          "velocity": 0.6141732283464567
        },
        {
          "duration": 0.21428574999998773,
          "durationTicks": 240,
          "midi": 74,
          "name": "D5",
          "ticks": 139440,
          "time": 124.50002075,
          "velocity": 0.6141732283464567
        },
        {
          "duration": 0.21428574999998773,
          "durationTicks": 240,
          "midi": 77,
          "name": "F5",
          "ticks": 139440,
          "time": 124.50002075,
          "velocity": 0.6141732283464567
        },
        {
          "duration": 0.10714287500000808,
          "durationTicks": 120,
          "midi": 45,
          "name": "A2",
          "ticks": 139680,
          "time": 124.71430649999999,
          "velocity": 0.6141732283464567
        },
        {
          "duration": 0.8571430000000078,
          "durationTicks": 960,
          "midi": 74,
          "name": "D5",
          "ticks": 139680,
          "time": 124.71430649999999,
          "velocity": 0.6141732283464567
        },
        {
          "duration": 0.8571430000000078,
          "durationTicks": 960,
          "midi": 77,
          "name": "F5",
          "ticks": 139680,
          "time": 124.71430649999999,
          "velocity": 0.6141732283464567
        },
        {
          "duration": 0.10714287500000808,
          "durationTicks": 120,
          "midi": 45,
          "name": "A2",
          "ticks": 139920,
          "time": 124.92859225,
          "velocity": 0.6141732283464567
        },
        {
          "duration": 0.10714287500000808,
          "durationTicks": 120,
          "midi": 45,
          "name": "A2",
          "ticks": 140160,
          "time": 125.142878,
          "velocity": 0.6141732283464567
        },
        {
          "duration": 0.10714287499999386,
          "durationTicks": 120,
          "midi": 45,
          "name": "A2",
          "ticks": 140400,
          "time": 125.35716375,
          "velocity": 0.6141732283464567
        },
        {
          "duration": 0.10714287499999386,
          "durationTicks": 120,
          "midi": 45,
          "name": "A2",
          "ticks": 140640,
          "time": 125.5714495,
          "velocity": 0.6141732283464567
        },
        {
          "duration": 0.4285715000000039,
          "durationTicks": 480,
          "midi": 74,
          "name": "D5",
          "ticks": 140640,
          "time": 125.5714495,
          "velocity": 0.6141732283464567
        },
        {
          "duration": 0.4285715000000039,
          "durationTicks": 480,
          "midi": 77,
          "name": "F5",
          "ticks": 140640,
          "time": 125.5714495,
          "velocity": 0.6535433070866141
        },
        {
          "duration": 0.10714287499999386,
          "durationTicks": 120,
          "midi": 45,
          "name": "A2",
          "ticks": 140880,
          "time": 125.78573525,
          "velocity": 0.6141732283464567
        },
        {
          "duration": 0.10714287499999386,
          "durationTicks": 120,
          "midi": 46,
          "name": "A#2",
          "ticks": 141120,
          "time": 126.000021,
          "velocity": 0.5984251968503937
        },
        {
          "duration": 1.2857144999999974,
          "durationTicks": 1440,
          "midi": 77,
          "name": "F5",
          "ticks": 141120,
          "time": 126.000021,
          "velocity": 0.7007874015748031
        },
        {
          "duration": 1.2857144999999974,
          "durationTicks": 1440,
          "midi": 74,
          "name": "D5",
          "ticks": 141120,
          "time": 126.000021,
          "velocity": 0.6141732283464567
        },
        {
          "duration": 0.10714287500000808,
          "durationTicks": 120,
          "midi": 46,
          "name": "A#2",
          "ticks": 141360,
          "time": 126.21430674999999,
          "velocity": 0.6535433070866141
        },
        {
          "duration": 0.10714287500000808,
          "durationTicks": 120,
          "midi": 46,
          "name": "A#2",
          "ticks": 141600,
          "time": 126.4285925,
          "velocity": 0.7007874015748031
        },
        {
          "duration": 0.10714287500000808,
          "durationTicks": 120,
          "midi": 46,
          "name": "A#2",
          "ticks": 141840,
          "time": 126.64287825,
          "velocity": 0.6535433070866141
        },
        {
          "duration": 0.10714287499999386,
          "durationTicks": 120,
          "midi": 46,
          "name": "A#2",
          "ticks": 142080,
          "time": 126.857164,
          "velocity": 0.7007874015748031
        },
        {
          "duration": 0.10714287499999386,
          "durationTicks": 120,
          "midi": 46,
          "name": "A#2",
          "ticks": 142320,
          "time": 127.07144975,
          "velocity": 0.5984251968503937
        },
        {
          "duration": 0.10714287499999386,
          "durationTicks": 120,
          "midi": 46,
          "name": "A#2",
          "ticks": 142560,
          "time": 127.2857355,
          "velocity": 0.6535433070866141
        },
        {
          "duration": 0.8571429999999935,
          "durationTicks": 960,
          "midi": 75,
          "name": "D#5",
          "ticks": 142560,
          "time": 127.2857355,
          "velocity": 0.5984251968503937
        },
        {
          "duration": 0.8571429999999935,
          "durationTicks": 960,
          "midi": 67,
          "name": "G4",
          "ticks": 142560,
          "time": 127.2857355,
          "velocity": 0.6141732283464567
        },
        {
          "duration": 0.10714287499999386,
          "durationTicks": 120,
          "midi": 46,
          "name": "A#2",
          "ticks": 142800,
          "time": 127.50002125,
          "velocity": 0.6141732283464567
        },
        {
          "duration": 0.10714287499999386,
          "durationTicks": 120,
          "midi": 46,
          "name": "A#2",
          "ticks": 143040,
          "time": 127.714307,
          "velocity": 0.6141732283464567
        },
        {
          "duration": 0.10714287500000808,
          "durationTicks": 120,
          "midi": 46,
          "name": "A#2",
          "ticks": 143280,
          "time": 127.92859274999999,
          "velocity": 0.6141732283464567
        },
        {
          "duration": 0.10714287499999386,
          "durationTicks": 120,
          "midi": 46,
          "name": "A#2",
          "ticks": 143520,
          "time": 128.1428785,
          "velocity": 0.6141732283464567
        },
        {
          "duration": 0.21428575000001615,
          "durationTicks": 240,
          "midi": 74,
          "name": "D5",
          "ticks": 143520,
          "time": 128.1428785,
          "velocity": 0.5984251968503937
        },
        {
          "duration": 0.21428575000001615,
          "durationTicks": 240,
          "midi": 65,
          "name": "F4",
          "ticks": 143520,
          "time": 128.1428785,
          "velocity": 0.6141732283464567
        },
        {
          "duration": 0.10714287499999386,
          "durationTicks": 120,
          "midi": 46,
          "name": "A#2",
          "ticks": 143760,
          "time": 128.35716425,
          "velocity": 0.6141732283464567
        },
        {
          "duration": 0.21428574999998773,
          "durationTicks": 240,
          "midi": 72,
          "name": "C5",
          "ticks": 143760,
          "time": 128.35716425,
          "velocity": 0.6535433070866141
        },
        {
          "duration": 0.21428574999998773,
          "durationTicks": 240,
          "midi": 63,
          "name": "D#4",
          "ticks": 143760,
          "time": 128.35716425,
          "velocity": 0.6141732283464567
        },
        {
          "duration": 0.10714287499999386,
          "durationTicks": 120,
          "midi": 46,
          "name": "A#2",
          "ticks": 144000,
          "time": 128.57145,
          "velocity": 0.6141732283464567
        },
        {
          "duration": 0.8571430000000078,
          "durationTicks": 960,
          "midi": 70,
          "name": "A#4",
          "ticks": 144000,
          "time": 128.57145,
          "velocity": 0.6535433070866141
        },
        {
          "duration": 0.8571430000000078,
          "durationTicks": 960,
          "midi": 65,
          "name": "F4",
          "ticks": 144000,
          "time": 128.57145,
          "velocity": 0.6141732283464567
        },
        {
          "duration": 0.8571430000000078,
          "durationTicks": 960,
          "midi": 62,
          "name": "D4",
          "ticks": 144000,
          "time": 128.57145,
          "velocity": 0.6141732283464567
        },
        {
          "duration": 0.10714287500002229,
          "durationTicks": 120,
          "midi": 46,
          "name": "A#2",
          "ticks": 144240,
          "time": 128.78573575,
          "velocity": 0.6141732283464567
        },
        {
          "duration": 0.10714287499999386,
          "durationTicks": 120,
          "midi": 46,
          "name": "A#2",
          "ticks": 144480,
          "time": 129.0000215,
          "velocity": 0.6535433070866141
        },
        {
          "duration": 0.10714287499999386,
          "durationTicks": 120,
          "midi": 46,
          "name": "A#2",
          "ticks": 144720,
          "time": 129.21430725,
          "velocity": 0.5984251968503937
        },
        {
          "duration": 0.10714287499999386,
          "durationTicks": 120,
          "midi": 46,
          "name": "A#2",
          "ticks": 144960,
          "time": 129.428593,
          "velocity": 0.6141732283464567
        },
        {
          "duration": 0.4285715000000039,
          "durationTicks": 480,
          "midi": 62,
          "name": "D4",
          "ticks": 144960,
          "time": 129.428593,
          "velocity": 0.6535433070866141
        },
        {
          "duration": 0.4285715000000039,
          "durationTicks": 480,
          "midi": 65,
          "name": "F4",
          "ticks": 144960,
          "time": 129.428593,
          "velocity": 0.6141732283464567
        },
        {
          "duration": 0.4285715000000039,
          "durationTicks": 480,
          "midi": 69,
          "name": "A4",
          "ticks": 144960,
          "time": 129.428593,
          "velocity": 0.6141732283464567
        },
        {
          "duration": 0.10714287499999386,
          "durationTicks": 120,
          "midi": 46,
          "name": "A#2",
          "ticks": 145200,
          "time": 129.64287875,
          "velocity": 0.7007874015748031
        },
        {
          "duration": 0.21428574999998773,
          "durationTicks": 240,
          "midi": 47,
          "name": "B2",
          "ticks": 145440,
          "time": 129.8571645,
          "velocity": 0.6141732283464567
        },
        {
          "duration": 0.8571429999999793,
          "durationTicks": 960,
          "midi": 62,
          "name": "D4",
          "ticks": 145440,
          "time": 129.8571645,
          "velocity": 0.6141732283464567
        },
        {
          "duration": 0.8571429999999793,
          "durationTicks": 960,
          "midi": 65,
          "name": "F4",
          "ticks": 145440,
          "time": 129.8571645,
          "velocity": 0.6141732283464567
        },
        {
          "duration": 0.8571429999999793,
          "durationTicks": 960,
          "midi": 68,
          "name": "G#4",
          "ticks": 145440,
          "time": 129.8571645,
          "velocity": 0.6141732283464567
        },
        {
          "duration": 0.21428574999998773,
          "durationTicks": 240,
          "midi": 47,
          "name": "B2",
          "ticks": 145680,
          "time": 130.07145025,
          "velocity": 0.6141732283464567
        },
        {
          "duration": 0.21428575000001615,
          "durationTicks": 240,
          "midi": 47,
          "name": "B2",
          "ticks": 145920,
          "time": 130.28573599999999,
          "velocity": 0.6141732283464567
        },
        {
          "duration": 0.21428574999998773,
          "durationTicks": 240,
          "midi": 47,
          "name": "B2",
          "ticks": 146160,
          "time": 130.50002175,
          "velocity": 0.6141732283464567
        },
        {
          "duration": 0.21428575000001615,
          "durationTicks": 240,
          "midi": 47,
          "name": "B2",
          "ticks": 146400,
          "time": 130.7143075,
          "velocity": 0.6141732283464567
        },
        {
          "duration": 0.4285715000000039,
          "durationTicks": 480,
          "midi": 62,
          "name": "D4",
          "ticks": 146400,
          "time": 130.7143075,
          "velocity": 0.6141732283464567
        },
        {
          "duration": 0.4285715000000039,
          "durationTicks": 480,
          "midi": 65,
          "name": "F4",
          "ticks": 146400,
          "time": 130.7143075,
          "velocity": 0.6141732283464567
        },
        {
          "duration": 0.4285715000000039,
          "durationTicks": 480,
          "midi": 68,
          "name": "G#4",
          "ticks": 146400,
          "time": 130.7143075,
          "velocity": 0.6141732283464567
        },
        {
          "duration": 0.21428574999998773,
          "durationTicks": 240,
          "midi": 47,
          "name": "B2",
          "ticks": 146640,
          "time": 130.92859325,
          "velocity": 0.6141732283464567
        },
        {
          "duration": 0.8571430000000078,
          "durationTicks": 960,
          "midi": 60,
          "name": "C4",
          "ticks": 146880,
          "time": 131.142879,
          "velocity": 0.6141732283464567
        },
        {
          "duration": 0.8571430000000078,
          "durationTicks": 960,
          "midi": 64,
          "name": "E4",
          "ticks": 146880,
          "time": 131.142879,
          "velocity": 0.6141732283464567
        },
        {
          "duration": 0.8571430000000078,
          "durationTicks": 960,
          "midi": 69,
          "name": "A4",
          "ticks": 146880,
          "time": 131.142879,
          "velocity": 0.6141732283464567
        },
        {
          "duration": 0.8571430000000078,
          "durationTicks": 960,
          "midi": 48,
          "name": "C3",
          "ticks": 146880,
          "time": 131.142879,
          "velocity": 0.6141732283464567
        },
        {
          "duration": 0.21428574999998773,
          "durationTicks": 240,
          "midi": 71,
          "name": "B4",
          "ticks": 148320,
          "time": 132.4285935,
          "velocity": 0.6141732283464567
        },
        {
          "duration": 0.21428574999998773,
          "durationTicks": 240,
          "midi": 64,
          "name": "E4",
          "ticks": 148320,
          "time": 132.4285935,
          "velocity": 0.6141732283464567
        },
        {
          "duration": 0.21428574999998773,
          "durationTicks": 240,
          "midi": 65,
          "name": "F4",
          "ticks": 148320,
          "time": 132.4285935,
          "velocity": 0.6141732283464567
        },
        {
          "duration": 0.21428574999998773,
          "durationTicks": 240,
          "midi": 52,
          "name": "E3",
          "ticks": 148320,
          "time": 132.4285935,
          "velocity": 0.6141732283464567
        },
        {
          "duration": 0.21428574999998773,
          "durationTicks": 240,
          "midi": 56,
          "name": "G#3",
          "ticks": 148320,
          "time": 132.4285935,
          "velocity": 0.6141732283464567
        },
        {
          "duration": 0.14285716666665849,
          "durationTicks": 160,
          "midi": 60,
          "name": "C4",
          "ticks": 149760,
          "time": 133.714308,
          "velocity": 0.6141732283464567
        },
        {
          "duration": 0.1428571666666869,
          "durationTicks": 160,
          "midi": 60,
          "name": "C4",
          "ticks": 149920,
          "time": 133.85716516666665,
          "velocity": 0.6141732283464567
        },
        {
          "duration": 0.14285716666665849,
          "durationTicks": 160,
          "midi": 64,
          "name": "E4",
          "ticks": 150080,
          "time": 134.00002233333333,
          "velocity": 0.6141732283464567
        },
        {
          "duration": 0.14285716666665849,
          "durationTicks": 160,
          "midi": 69,
          "name": "A4",
          "ticks": 150240,
          "time": 134.1428795,
          "velocity": 0.6141732283464567
        },
        {
          "duration": 0.1428571666666869,
          "durationTicks": 160,
          "midi": 72,
          "name": "C5",
          "ticks": 150400,
          "time": 134.28573666666665,
          "velocity": 0.6141732283464567
        },
        {
          "duration": 0.14285716666665849,
          "durationTicks": 160,
          "midi": 76,
          "name": "E5",
          "ticks": 150560,
          "time": 134.42859383333334,
          "velocity": 0.6141732283464567
        },
        {
          "duration": 0.14285716666665849,
          "durationTicks": 160,
          "midi": 74,
          "name": "D5",
          "ticks": 150720,
          "time": 134.571451,
          "velocity": 0.6141732283464567
        },
        {
          "duration": 0.4285715000000039,
          "durationTicks": 480,
          "midi": 57,
          "name": "A3",
          "ticks": 150720,
          "time": 134.571451,
          "velocity": 0.6141732283464567
        },
        {
          "duration": 0.4285715000000039,
          "durationTicks": 480,
          "midi": 60,
          "name": "C4",
          "ticks": 150720,
          "time": 134.571451,
          "velocity": 0.6141732283464567
        },
        {
          "duration": 0.4285715000000039,
          "durationTicks": 480,
          "midi": 64,
          "name": "E4",
          "ticks": 150720,
          "time": 134.571451,
          "velocity": 0.6141732283464567
        },
        {
          "duration": 0.1428571666666869,
          "durationTicks": 160,
          "midi": 72,
          "name": "C5",
          "ticks": 150880,
          "time": 134.71430816666665,
          "velocity": 0.6141732283464567
        },
        {
          "duration": 0.14285716666665849,
          "durationTicks": 160,
          "midi": 71,
          "name": "B4",
          "ticks": 151040,
          "time": 134.85716533333334,
          "velocity": 0.6141732283464567
        },
        {
          "duration": 0.14285716666665849,
          "durationTicks": 160,
          "midi": 69,
          "name": "A4",
          "ticks": 151200,
          "time": 135.0000225,
          "velocity": 0.6141732283464567
        },
        {
          "duration": 0.4285715000000039,
          "durationTicks": 480,
          "midi": 64,
          "name": "E4",
          "ticks": 151200,
          "time": 135.0000225,
          "velocity": 0.6141732283464567
        },
        {
          "duration": 0.4285715000000039,
          "durationTicks": 480,
          "midi": 60,
          "name": "C4",
          "ticks": 151200,
          "time": 135.0000225,
          "velocity": 0.6141732283464567
        },
        {
          "duration": 0.4285715000000039,
          "durationTicks": 480,
          "midi": 57,
          "name": "A3",
          "ticks": 151200,
          "time": 135.0000225,
          "velocity": 0.6141732283464567
        },
        {
          "duration": 0.1428571666666869,
          "durationTicks": 160,
          "midi": 72,
          "name": "C5",
          "ticks": 151360,
          "time": 135.14287966666666,
          "velocity": 0.6141732283464567
        },
        {
          "duration": 0.14285716666665849,
          "durationTicks": 160,
          "midi": 76,
          "name": "E5",
          "ticks": 151520,
          "time": 135.28573683333335,
          "velocity": 0.6141732283464567
        },
        {
          "duration": 0.14285716666665849,
          "durationTicks": 160,
          "midi": 81,
          "name": "A5",
          "ticks": 151680,
          "time": 135.428594,
          "velocity": 0.6141732283464567
        },
        {
          "duration": 0.1428571666666869,
          "durationTicks": 160,
          "midi": 84,
          "name": "C6",
          "ticks": 151840,
          "time": 135.57145116666666,
          "velocity": 0.6141732283464567
        },
        {
          "duration": 0.14285716666665849,
          "durationTicks": 160,
          "midi": 88,
          "name": "E6",
          "ticks": 152000,
          "time": 135.71430833333335,
          "velocity": 0.6141732283464567
        },
        {
          "duration": 0.14285716666665849,
          "durationTicks": 160,
          "midi": 86,
          "name": "D6",
          "ticks": 152160,
          "time": 135.8571655,
          "velocity": 0.6141732283464567
        },
        {
          "duration": 0.4285715000000039,
          "durationTicks": 480,
          "midi": 64,
          "name": "E4",
          "ticks": 152160,
          "time": 135.8571655,
          "velocity": 0.6141732283464567
        },
        {
          "duration": 0.4285715000000039,
          "durationTicks": 480,
          "midi": 60,
          "name": "C4",
          "ticks": 152160,
          "time": 135.8571655,
          "velocity": 0.6141732283464567
        },
        {
          "duration": 0.4285715000000039,
          "durationTicks": 480,
          "midi": 57,
          "name": "A3",
          "ticks": 152160,
          "time": 135.8571655,
          "velocity": 0.6141732283464567
        },
        {
          "duration": 0.1428571666666869,
          "durationTicks": 160,
          "midi": 84,
          "name": "C6",
          "ticks": 152320,
          "time": 136.00002266666667,
          "velocity": 0.6141732283464567
        },
        {
          "duration": 0.14285716666665849,
          "durationTicks": 160,
          "midi": 83,
          "name": "B5",
          "ticks": 152480,
          "time": 136.14287983333335,
          "velocity": 0.6141732283464567
        },
        {
          "duration": 0.14285716666665849,
          "durationTicks": 160,
          "midi": 81,
          "name": "A5",
          "ticks": 152640,
          "time": 136.285737,
          "velocity": 0.6141732283464567
        },
        {
          "duration": 0.42857149999997546,
          "durationTicks": 480,
          "midi": 64,
          "name": "E4",
          "ticks": 152640,
          "time": 136.285737,
          "velocity": 0.6141732283464567
        },
        {
          "duration": 0.42857149999997546,
          "durationTicks": 480,
          "midi": 60,
          "name": "C4",
          "ticks": 152640,
          "time": 136.285737,
          "velocity": 0.6141732283464567
        },
        {
          "duration": 0.42857149999997546,
          "durationTicks": 480,
          "midi": 57,
          "name": "A3",
          "ticks": 152640,
          "time": 136.285737,
          "velocity": 0.6141732283464567
        },
        {
          "duration": 0.14285716666665849,
          "durationTicks": 160,
          "midi": 84,
          "name": "C6",
          "ticks": 152800,
          "time": 136.42859416666667,
          "velocity": 0.6141732283464567
        },
        {
          "duration": 0.14285716666665849,
          "durationTicks": 160,
          "midi": 88,
          "name": "E6",
          "ticks": 152960,
          "time": 136.57145133333333,
          "velocity": 0.6141732283464567
        },
        {
          "duration": 0.14285716666665849,
          "durationTicks": 160,
          "midi": 93,
          "name": "A6",
          "ticks": 153120,
          "time": 136.7143085,
          "velocity": 0.6141732283464567
        },
        {
          "duration": 0.1428571666666869,
          "durationTicks": 160,
          "midi": 96,
          "name": "C7",
          "ticks": 153280,
          "time": 136.85716566666665,
          "velocity": 0.6141732283464567
        },
        {
          "duration": 0.14285716666665849,
          "durationTicks": 160,
          "midi": 100,
          "name": "E7",
          "ticks": 153440,
          "time": 137.00002283333333,
          "velocity": 0.6141732283464567
        },
        {
          "duration": 0.14285716666665849,
          "durationTicks": 160,
          "midi": 98,
          "name": "D7",
          "ticks": 153600,
          "time": 137.14288,
          "velocity": 0.6141732283464567
        },
        {
          "duration": 0.4285715000000039,
          "durationTicks": 480,
          "midi": 57,
          "name": "A3",
          "ticks": 153600,
          "time": 137.14288,
          "velocity": 0.6141732283464567
        },
        {
          "duration": 0.4285715000000039,
          "durationTicks": 480,
          "midi": 60,
          "name": "C4",
          "ticks": 153600,
          "time": 137.14288,
          "velocity": 0.6141732283464567
        },
        {
          "duration": 0.4285715000000039,
          "durationTicks": 480,
          "midi": 64,
          "name": "E4",
          "ticks": 153600,
          "time": 137.14288,
          "velocity": 0.6141732283464567
        },
        {
          "duration": 0.1428571666666869,
          "durationTicks": 160,
          "midi": 96,
          "name": "C7",
          "ticks": 153760,
          "time": 137.28573716666665,
          "velocity": 0.6141732283464567
        },
        {
          "duration": 0.14285716666665849,
          "durationTicks": 160,
          "midi": 95,
          "name": "B6",
          "ticks": 153920,
          "time": 137.42859433333334,
          "velocity": 0.6141732283464567
        },
        {
          "duration": 0.14285716666665849,
          "durationTicks": 160,
          "midi": 94,
          "name": "A#6",
          "ticks": 154080,
          "time": 137.5714515,
          "velocity": 0.6141732283464567
        },
        {
          "duration": 0.4285715000000039,
          "durationTicks": 480,
          "midi": 64,
          "name": "E4",
          "ticks": 154080,
          "time": 137.5714515,
          "velocity": 0.6141732283464567
        },
        {
          "duration": 0.4285715000000039,
          "durationTicks": 480,
          "midi": 60,
          "name": "C4",
          "ticks": 154080,
          "time": 137.5714515,
          "velocity": 0.6141732283464567
        },
        {
          "duration": 0.4285715000000039,
          "durationTicks": 480,
          "midi": 57,
          "name": "A3",
          "ticks": 154080,
          "time": 137.5714515,
          "velocity": 0.6141732283464567
        },
        {
          "duration": 0.1428571666666869,
          "durationTicks": 160,
          "midi": 93,
          "name": "A6",
          "ticks": 154240,
          "time": 137.71430866666665,
          "velocity": 0.6141732283464567
        },
        {
          "duration": 0.14285716666665849,
          "durationTicks": 160,
          "midi": 92,
          "name": "G#6",
          "ticks": 154400,
          "time": 137.85716583333334,
          "velocity": 0.6141732283464567
        },
        {
          "duration": 0.14285716666665849,
          "durationTicks": 160,
          "midi": 91,
          "name": "G6",
          "ticks": 154560,
          "time": 138.000023,
          "velocity": 0.6141732283464567
        },
        {
          "duration": 0.1428571666666869,
          "durationTicks": 160,
          "midi": 90,
          "name": "F#6",
          "ticks": 154720,
          "time": 138.14288016666666,
          "velocity": 0.6141732283464567
        },
        {
          "duration": 0.14285716666665849,
          "durationTicks": 160,
          "midi": 89,
          "name": "F6",
          "ticks": 154880,
          "time": 138.28573733333334,
          "velocity": 0.6141732283464567
        },
        {
          "duration": 0.14285716666665849,
          "durationTicks": 160,
          "midi": 88,
          "name": "E6",
          "ticks": 155040,
          "time": 138.4285945,
          "velocity": 0.6141732283464567
        },
        {
          "duration": 0.1428571666666869,
          "durationTicks": 160,
          "midi": 87,
          "name": "D#6",
          "ticks": 155200,
          "time": 138.57145166666666,
          "velocity": 0.6141732283464567
        },
        {
          "duration": 0.14285716666665849,
          "durationTicks": 160,
          "midi": 86,
          "name": "D6",
          "ticks": 155360,
          "time": 138.71430883333335,
          "velocity": 0.6141732283464567
        },
        {
          "duration": 0.14285716666665849,
          "durationTicks": 160,
          "midi": 85,
          "name": "C#6",
          "ticks": 155520,
          "time": 138.857166,
          "velocity": 0.6141732283464567
        },
        {
          "duration": 0.1428571666666869,
          "durationTicks": 160,
          "midi": 84,
          "name": "C6",
          "ticks": 155680,
          "time": 139.00002316666667,
          "velocity": 0.6141732283464567
        },
        {
          "duration": 0.14285716666665849,
          "durationTicks": 160,
          "midi": 83,
          "name": "B5",
          "ticks": 155840,
          "time": 139.14288033333335,
          "velocity": 0.6141732283464567
        },
        {
          "duration": 0.14285716666665849,
          "durationTicks": 160,
          "midi": 82,
          "name": "A#5",
          "ticks": 156000,
          "time": 139.2857375,
          "velocity": 0.6141732283464567
        },
        {
          "duration": 0.14285716666665849,
          "durationTicks": 160,
          "midi": 81,
          "name": "A5",
          "ticks": 156160,
          "time": 139.42859466666667,
          "velocity": 0.6141732283464567
        },
        {
          "duration": 0.14285716666665849,
          "durationTicks": 160,
          "midi": 80,
          "name": "G#5",
          "ticks": 156320,
          "time": 139.57145183333333,
          "velocity": 0.6141732283464567
        },
        {
          "duration": 0.14285716666665849,
          "durationTicks": 160,
          "midi": 79,
          "name": "G5",
          "ticks": 156480,
          "time": 139.714309,
          "velocity": 0.6141732283464567
        },
        {
          "duration": 0.1428571666666869,
          "durationTicks": 160,
          "midi": 78,
          "name": "F#5",
          "ticks": 156640,
          "time": 139.85716616666664,
          "velocity": 0.6141732283464567
        },
        {
          "duration": 0.14285716666665849,
          "durationTicks": 160,
          "midi": 77,
          "name": "F5",
          "ticks": 156800,
          "time": 140.00002333333333,
          "velocity": 0.6141732283464567
        },
        {
          "duration": 0.21428575000001615,
          "durationTicks": 240,
          "midi": 76,
          "name": "E5",
          "ticks": 156960,
          "time": 140.1428805,
          "velocity": 0.6141732283464567
        },
        {
          "duration": 0.21428574999998773,
          "durationTicks": 240,
          "midi": 75,
          "name": "D#5",
          "ticks": 157200,
          "time": 140.35716625,
          "velocity": 0.6141732283464567
        },
        {
          "duration": 0.21428575000001615,
          "durationTicks": 240,
          "midi": 76,
          "name": "E5",
          "ticks": 157440,
          "time": 140.571452,
          "velocity": 0.6535433070866141
        },
        {
          "duration": 0.21428574999998773,
          "durationTicks": 240,
          "midi": 71,
          "name": "B4",
          "ticks": 157680,
          "time": 140.78573775,
          "velocity": 0.6141732283464567
        },
        {
          "duration": 0.21428574999998773,
          "durationTicks": 240,
          "midi": 74,
          "name": "D5",
          "ticks": 157920,
          "time": 141.0000235,
          "velocity": 0.6141732283464567
        },
        {
          "duration": 0.21428575000001615,
          "durationTicks": 240,
          "midi": 72,
          "name": "C5",
          "ticks": 158160,
          "time": 141.21430924999999,
          "velocity": 0.6141732283464567
        },
        {
          "duration": 0.4285715000000039,
          "durationTicks": 480,
          "midi": 69,
          "name": "A4",
          "ticks": 158400,
          "time": 141.428595,
          "velocity": 0.6535433070866141
        },
        {
          "duration": 0.21428574999998773,
          "durationTicks": 240,
          "midi": 45,
          "name": "A2",
          "ticks": 158400,
          "time": 141.428595,
          "velocity": 0.5511811023622047
        },
        {
          "duration": 0.21428575000001615,
          "durationTicks": 240,
          "midi": 52,
          "name": "E3",
          "ticks": 158640,
          "time": 141.64288075,
          "velocity": 0.5984251968503937
        },
        {
          "duration": 0.21428574999998773,
          "durationTicks": 240,
          "midi": 57,
          "name": "A3",
          "ticks": 158880,
          "time": 141.8571665,
          "velocity": 0.6141732283464567
        },
        {
          "duration": 0.21428575000001615,
          "durationTicks": 240,
          "midi": 60,
          "name": "C4",
          "ticks": 159120,
          "time": 142.07145225,
          "velocity": 0.5511811023622047
        },
        {
          "duration": 0.21428574999998773,
          "durationTicks": 240,
          "midi": 64,
          "name": "E4",
          "ticks": 159360,
          "time": 142.285738,
          "velocity": 0.5984251968503937
        },
        {
          "duration": 0.21428574999998773,
          "durationTicks": 240,
          "midi": 69,
          "name": "A4",
          "ticks": 159600,
          "time": 142.50002375,
          "velocity": 0.6535433070866141
        },
        {
          "duration": 0.4285715000000039,
          "durationTicks": 480,
          "midi": 71,
          "name": "B4",
          "ticks": 159840,
          "time": 142.71430949999998,
          "velocity": 0.7007874015748031
        },
        {
          "duration": 0.21428575000001615,
          "durationTicks": 240,
          "midi": 40,
          "name": "E2",
          "ticks": 159840,
          "time": 142.71430949999998,
          "velocity": 0.5984251968503937
        },
        {
          "duration": 0.21428574999998773,
          "durationTicks": 240,
          "midi": 52,
          "name": "E3",
          "ticks": 160080,
          "time": 142.92859525,
          "velocity": 0.6141732283464567
        },
        {
          "duration": 0.21428575000001615,
          "durationTicks": 240,
          "midi": 56,
          "name": "G#3",
          "ticks": 160320,
          "time": 143.142881,
          "velocity": 0.6141732283464567
        },
        {
          "duration": 0.21428574999998773,
          "durationTicks": 240,
          "midi": 64,
          "name": "E4",
          "ticks": 160560,
          "time": 143.35716675,
          "velocity": 0.6141732283464567
        },
        {
          "duration": 0.21428575000001615,
          "durationTicks": 240,
          "midi": 68,
          "name": "G#4",
          "ticks": 160800,
          "time": 143.5714525,
          "velocity": 0.5511811023622047
        },
        {
          "duration": 0.21428574999998773,
          "durationTicks": 240,
          "midi": 71,
          "name": "B4",
          "ticks": 161040,
          "time": 143.78573825,
          "velocity": 0.5511811023622047
        },
        {
          "duration": 0.4285715000000039,
          "durationTicks": 480,
          "midi": 72,
          "name": "C5",
          "ticks": 161280,
          "time": 144.000024,
          "velocity": 0.6141732283464567
        },
        {
          "duration": 0.21428574999998773,
          "durationTicks": 240,
          "midi": 45,
          "name": "A2",
          "ticks": 161280,
          "time": 144.000024,
          "velocity": 0.6535433070866141
        },
        {
          "duration": 0.21428575000001615,
          "durationTicks": 240,
          "midi": 52,
          "name": "E3",
          "ticks": 161520,
          "time": 144.21430974999998,
          "velocity": 0.6141732283464567
        },
        {
          "duration": 0.21428574999998773,
          "durationTicks": 240,
          "midi": 57,
          "name": "A3",
          "ticks": 161760,
          "time": 144.4285955,
          "velocity": 0.6141732283464567
        },
        {
          "duration": 0.21428575000001615,
          "durationTicks": 240,
          "midi": 64,
          "name": "E4",
          "ticks": 162000,
          "time": 144.64288125,
          "velocity": 0.6141732283464567
        },
        {
          "duration": 0.21428574999998773,
          "durationTicks": 240,
          "midi": 76,
          "name": "E5",
          "ticks": 162240,
          "time": 144.857167,
          "velocity": 0.6141732283464567
        },
        {
          "duration": 0.21428575000001615,
          "durationTicks": 240,
          "midi": 75,
          "name": "D#5",
          "ticks": 162480,
          "time": 145.07145275,
          "velocity": 0.6141732283464567
        },
        {
          "duration": 0.21428574999998773,
          "durationTicks": 240,
          "midi": 76,
          "name": "E5",
          "ticks": 162720,
          "time": 145.2857385,
          "velocity": 0.6535433070866141
        },
        {
          "duration": 0.21428575000001615,
          "durationTicks": 240,
          "midi": 75,
          "name": "D#5",
          "ticks": 162960,
          "time": 145.50002425,
          "velocity": 0.6141732283464567
        },
        {
          "duration": 0.21428574999998773,
          "durationTicks": 240,
          "midi": 76,
          "name": "E5",
          "ticks": 163200,
          "time": 145.71431,
          "velocity": 0.6535433070866141
        },
        {
          "duration": 0.21428574999998773,
          "durationTicks": 240,
          "midi": 71,
          "name": "B4",
          "ticks": 163440,
          "time": 145.92859575,
          "velocity": 0.6141732283464567
        },
        {
          "duration": 0.21428575000001615,
          "durationTicks": 240,
          "midi": 74,
          "name": "D5",
          "ticks": 163680,
          "time": 146.1428815,
          "velocity": 0.5511811023622047
        },
        {
          "duration": 0.21428574999998773,
          "durationTicks": 240,
          "midi": 72,
          "name": "C5",
          "ticks": 163920,
          "time": 146.35716725,
          "velocity": 0.6141732283464567
        },
        {
          "duration": 0.4285715000000039,
          "durationTicks": 480,
          "midi": 69,
          "name": "A4",
          "ticks": 164160,
          "time": 146.571453,
          "velocity": 0.6141732283464567
        },
        {
          "duration": 0.21428575000001615,
          "durationTicks": 240,
          "midi": 45,
          "name": "A2",
          "ticks": 164160,
          "time": 146.571453,
          "velocity": 0.5511811023622047
        },
        {
          "duration": 0.21428574999998773,
          "durationTicks": 240,
          "midi": 52,
          "name": "E3",
          "ticks": 164400,
          "time": 146.78573875,
          "velocity": 0.5984251968503937
        },
        {
          "duration": 0.21428575000001615,
          "durationTicks": 240,
          "midi": 57,
          "name": "A3",
          "ticks": 164640,
          "time": 147.0000245,
          "velocity": 0.5984251968503937
        },
        {
          "duration": 0.21428574999998773,
          "durationTicks": 240,
          "midi": 60,
          "name": "C4",
          "ticks": 164880,
          "time": 147.21431025,
          "velocity": 0.6535433070866141
        },
        {
          "duration": 0.21428574999998773,
          "durationTicks": 240,
          "midi": 64,
          "name": "E4",
          "ticks": 165120,
          "time": 147.428596,
          "velocity": 0.6535433070866141
        },
        {
          "duration": 0.21428575000001615,
          "durationTicks": 240,
          "midi": 69,
          "name": "A4",
          "ticks": 165360,
          "time": 147.64288175,
          "velocity": 0.5984251968503937
        },
        {
          "duration": 0.4285715000000039,
          "durationTicks": 480,
          "midi": 71,
          "name": "B4",
          "ticks": 165600,
          "time": 147.8571675,
          "velocity": 0.6535433070866141
        },
        {
          "duration": 0.21428574999998773,
          "durationTicks": 240,
          "midi": 40,
          "name": "E2",
          "ticks": 165600,
          "time": 147.8571675,
          "velocity": 0.5039370078740157
        },
        {
          "duration": 0.21428575000001615,
          "durationTicks": 240,
          "midi": 52,
          "name": "E3",
          "ticks": 165840,
          "time": 148.07145325,
          "velocity": 0.5511811023622047
        },
        {
          "duration": 0.21428574999998773,
          "durationTicks": 240,
          "midi": 56,
          "name": "G#3",
          "ticks": 166080,
          "time": 148.285739,
          "velocity": 0.5984251968503937
        },
        {
          "duration": 0.21428575000001615,
          "durationTicks": 240,
          "midi": 64,
          "name": "E4",
          "ticks": 166320,
          "time": 148.50002475,
          "velocity": 0.6535433070866141
        },
        {
          "duration": 0.21428574999998773,
          "durationTicks": 240,
          "midi": 72,
          "name": "C5",
          "ticks": 166560,
          "time": 148.7143105,
          "velocity": 0.6141732283464567
        },
        {
          "duration": 0.21428574999998773,
          "durationTicks": 240,
          "midi": 71,
          "name": "B4",
          "ticks": 166800,
          "time": 148.92859625,
          "velocity": 0.6141732283464567
        },
        {
          "duration": 0.4285715000000039,
          "durationTicks": 480,
          "midi": 69,
          "name": "A4",
          "ticks": 167040,
          "time": 149.142882,
          "velocity": 0.6141732283464567
        },
        {
          "duration": 0.21428575000001615,
          "durationTicks": 240,
          "midi": 45,
          "name": "A2",
          "ticks": 167040,
          "time": 149.142882,
          "velocity": 0.6141732283464567
        },
        {
          "duration": 0.21428574999998773,
          "durationTicks": 240,
          "midi": 52,
          "name": "E3",
          "ticks": 167280,
          "time": 149.35716775,
          "velocity": 0.6141732283464567
        },
        {
          "duration": 0.21428575000001615,
          "durationTicks": 240,
          "midi": 57,
          "name": "A3",
          "ticks": 167520,
          "time": 149.5714535,
          "velocity": 0.6141732283464567
        },
        {
          "duration": 0.21428574999998773,
          "durationTicks": 240,
          "midi": 71,
          "name": "B4",
          "ticks": 167760,
          "time": 149.78573925,
          "velocity": 0.6141732283464567
        },
        {
          "duration": 0.21428575000001615,
          "durationTicks": 240,
          "midi": 72,
          "name": "C5",
          "ticks": 168000,
          "time": 150.000025,
          "velocity": 0.6141732283464567
        },
        {
          "duration": 0.21428574999998773,
          "durationTicks": 240,
          "midi": 74,
          "name": "D5",
          "ticks": 168240,
          "time": 150.21431075,
          "velocity": 0.6141732283464567
        },
        {
          "duration": 0.6428572499999916,
          "durationTicks": 720,
          "midi": 76,
          "name": "E5",
          "ticks": 168480,
          "time": 150.4285965,
          "velocity": 0.6141732283464567
        },
        {
          "duration": 0.21428574999998773,
          "durationTicks": 240,
          "midi": 48,
          "name": "C3",
          "ticks": 168480,
          "time": 150.4285965,
          "velocity": 0.5511811023622047
        },
        {
          "duration": 0.21428575000001615,
          "durationTicks": 240,
          "midi": 55,
          "name": "G3",
          "ticks": 168720,
          "time": 150.64288224999999,
          "velocity": 0.6141732283464567
        },
        {
          "duration": 0.21428574999998773,
          "durationTicks": 240,
          "midi": 60,
          "name": "C4",
          "ticks": 168960,
          "time": 150.857168,
          "velocity": 0.6141732283464567
        },
        {
          "duration": 0.21428575000001615,
          "durationTicks": 240,
          "midi": 67,
          "name": "G4",
          "ticks": 169200,
          "time": 151.07145375,
          "velocity": 0.6141732283464567
        },
        {
          "duration": 0.21428574999998773,
          "durationTicks": 240,
          "midi": 77,
          "name": "F5",
          "ticks": 169440,
          "time": 151.2857395,
          "velocity": 0.6141732283464567
        },
        {
          "duration": 0.21428575000001615,
          "durationTicks": 240,
          "midi": 76,
          "name": "E5",
          "ticks": 169680,
          "time": 151.50002525,
          "velocity": 0.6141732283464567
        },
        {
          "duration": 0.6428572499999916,
          "durationTicks": 720,
          "midi": 74,
          "name": "D5",
          "ticks": 169920,
          "time": 151.714311,
          "velocity": 0.6141732283464567
        },
        {
          "duration": 0.21428574999998773,
          "durationTicks": 240,
          "midi": 43,
          "name": "G2",
          "ticks": 169920,
          "time": 151.714311,
          "velocity": 0.5039370078740157
        },
        {
          "duration": 0.21428574999998773,
          "durationTicks": 240,
          "midi": 55,
          "name": "G3",
          "ticks": 170160,
          "time": 151.92859675,
          "velocity": 0.6141732283464567
        },
        {
          "duration": 0.21428575000001615,
          "durationTicks": 240,
          "midi": 59,
          "name": "B3",
          "ticks": 170400,
          "time": 152.14288249999998,
          "velocity": 0.6141732283464567
        },
        {
          "duration": 0.21428574999998773,
          "durationTicks": 240,
          "midi": 65,
          "name": "F4",
          "ticks": 170640,
          "time": 152.35716825,
          "velocity": 0.6141732283464567
        },
        {
          "duration": 0.21428575000001615,
          "durationTicks": 240,
          "midi": 76,
          "name": "E5",
          "ticks": 170880,
          "time": 152.571454,
          "velocity": 0.6141732283464567
        },
        {
          "duration": 0.21428574999998773,
          "durationTicks": 240,
          "midi": 74,
          "name": "D5",
          "ticks": 171120,
          "time": 152.78573975,
          "velocity": 0.6141732283464567
        },
        {
          "duration": 0.6428572499999916,
          "durationTicks": 720,
          "midi": 72,
          "name": "C5",
          "ticks": 171360,
          "time": 153.0000255,
          "velocity": 0.6141732283464567
        },
        {
          "duration": 0.21428575000001615,
          "durationTicks": 240,
          "midi": 45,
          "name": "A2",
          "ticks": 171360,
          "time": 153.0000255,
          "velocity": 0.5511811023622047
        },
        {
          "duration": 0.21428574999998773,
          "durationTicks": 240,
          "midi": 52,
          "name": "E3",
          "ticks": 171600,
          "time": 153.21431125,
          "velocity": 0.6141732283464567
        },
        {
          "duration": 0.21428574999998773,
          "durationTicks": 240,
          "midi": 57,
          "name": "A3",
          "ticks": 171840,
          "time": 153.428597,
          "velocity": 0.6141732283464567
        },
        {
          "duration": 0.21428575000001615,
          "durationTicks": 240,
          "midi": 64,
          "name": "E4",
          "ticks": 172080,
          "time": 153.64288274999998,
          "velocity": 0.6141732283464567
        },
        {
          "duration": 0.21428574999998773,
          "durationTicks": 240,
          "midi": 74,
          "name": "D5",
          "ticks": 172320,
          "time": 153.8571685,
          "velocity": 0.6141732283464567
        },
        {
          "duration": 0.21428575000001615,
          "durationTicks": 240,
          "midi": 72,
          "name": "C5",
          "ticks": 172560,
          "time": 154.07145425,
          "velocity": 0.6141732283464567
        },
        {
          "duration": 0.4285715000000039,
          "durationTicks": 480,
          "midi": 71,
          "name": "B4",
          "ticks": 172800,
          "time": 154.28574,
          "velocity": 0.5984251968503937
        },
        {
          "duration": 0.21428574999998773,
          "durationTicks": 240,
          "midi": 40,
          "name": "E2",
          "ticks": 172800,
          "time": 154.28574,
          "velocity": 0.5039370078740157
        },
        {
          "duration": 0.21428575000001615,
          "durationTicks": 240,
          "midi": 52,
          "name": "E3",
          "ticks": 173040,
          "time": 154.50002575,
          "velocity": 0.5984251968503937
        },
        {
          "duration": 0.21428574999998773,
          "durationTicks": 240,
          "midi": 64,
          "name": "E4",
          "ticks": 173280,
          "time": 154.7143115,
          "velocity": 0.5039370078740157
        },
        {
          "duration": 0.21428575000001615,
          "durationTicks": 240,
          "midi": 64,
          "name": "E4",
          "ticks": 173520,
          "time": 154.92859725,
          "velocity": 0.5511811023622047
        },
        {
          "duration": 0.21428574999998773,
          "durationTicks": 240,
          "midi": 76,
          "name": "E5",
          "ticks": 173760,
          "time": 155.142883,
          "velocity": 0.6535433070866141
        },
        {
          "duration": 0.21428574999998773,
          "durationTicks": 240,
          "midi": 64,
          "name": "E4",
          "ticks": 174000,
          "time": 155.35716875,
          "velocity": 0.5984251968503937
        },
        {
          "duration": 0.21428575000001615,
          "durationTicks": 240,
          "midi": 76,
          "name": "E5",
          "ticks": 174240,
          "time": 155.5714545,
          "velocity": 0.5984251968503937
        },
        {
          "duration": 0.21428574999998773,
          "durationTicks": 240,
          "midi": 76,
          "name": "E5",
          "ticks": 174480,
          "time": 155.78574025,
          "velocity": 0.5511811023622047
        },
        {
          "duration": 0.21428575000001615,
          "durationTicks": 240,
          "midi": 88,
          "name": "E6",
          "ticks": 174720,
          "time": 156.000026,
          "velocity": 0.5984251968503937
        },
        {
          "duration": 0.21428574999998773,
          "durationTicks": 240,
          "midi": 75,
          "name": "D#5",
          "ticks": 174960,
          "time": 156.21431175,
          "velocity": 0.5984251968503937
        },
        {
          "duration": 0.21428575000001615,
          "durationTicks": 240,
          "midi": 76,
          "name": "E5",
          "ticks": 175200,
          "time": 156.4285975,
          "velocity": 0.5511811023622047
        },
        {
          "duration": 0.21428574999998773,
          "durationTicks": 240,
          "midi": 75,
          "name": "D#5",
          "ticks": 175440,
          "time": 156.64288325,
          "velocity": 0.5984251968503937
        },
        {
          "duration": 0.21428574999998773,
          "durationTicks": 240,
          "midi": 76,
          "name": "E5",
          "ticks": 175680,
          "time": 156.857169,
          "velocity": 0.5984251968503937
        },
        {
          "duration": 0.21428575000001615,
          "durationTicks": 240,
          "midi": 75,
          "name": "D#5",
          "ticks": 175920,
          "time": 157.07145475,
          "velocity": 0.5511811023622047
        },
        {
          "duration": 0.21428574999998773,
          "durationTicks": 240,
          "midi": 76,
          "name": "E5",
          "ticks": 176160,
          "time": 157.2857405,
          "velocity": 0.5984251968503937
        },
        {
          "duration": 0.21428575000001615,
          "durationTicks": 240,
          "midi": 71,
          "name": "B4",
          "ticks": 176400,
          "time": 157.50002625,
          "velocity": 0.5984251968503937
        },
        {
          "duration": 0.21428574999998773,
          "durationTicks": 240,
          "midi": 74,
          "name": "D5",
          "ticks": 176640,
          "time": 157.714312,
          "velocity": 0.5984251968503937
        },
        {
          "duration": 0.21428575000001615,
          "durationTicks": 240,
          "midi": 72,
          "name": "C5",
          "ticks": 176880,
          "time": 157.92859775,
          "velocity": 0.5984251968503937
        },
        {
          "duration": 0.42857149999997546,
          "durationTicks": 480,
          "midi": 69,
          "name": "A4",
          "ticks": 177120,
          "time": 158.1428835,
          "velocity": 0.5984251968503937
        },
        {
          "duration": 0.21428574999998773,
          "durationTicks": 240,
          "midi": 45,
          "name": "A2",
          "ticks": 177120,
          "time": 158.1428835,
          "velocity": 0.5039370078740157
        },
        {
          "duration": 0.21428574999998773,
          "durationTicks": 240,
          "midi": 52,
          "name": "E3",
          "ticks": 177360,
          "time": 158.35716925,
          "velocity": 0.5511811023622047
        },
        {
          "duration": 0.21428575000001615,
          "durationTicks": 240,
          "midi": 57,
          "name": "A3",
          "ticks": 177600,
          "time": 158.571455,
          "velocity": 0.5984251968503937
        },
        {
          "duration": 0.21428574999998773,
          "durationTicks": 240,
          "midi": 60,
          "name": "C4",
          "ticks": 177840,
          "time": 158.78574075,
          "velocity": 0.5984251968503937
        },
        {
          "duration": 0.21428575000001615,
          "durationTicks": 240,
          "midi": 64,
          "name": "E4",
          "ticks": 178080,
          "time": 159.0000265,
          "velocity": 0.5984251968503937
        },
        {
          "duration": 0.21428574999998773,
          "durationTicks": 240,
          "midi": 69,
          "name": "A4",
          "ticks": 178320,
          "time": 159.21431225,
          "velocity": 0.5984251968503937
        },
        {
          "duration": 0.4285715000000039,
          "durationTicks": 480,
          "midi": 71,
          "name": "B4",
          "ticks": 178560,
          "time": 159.428598,
          "velocity": 0.5984251968503937
        },
        {
          "duration": 0.21428575000001615,
          "durationTicks": 240,
          "midi": 40,
          "name": "E2",
          "ticks": 178560,
          "time": 159.428598,
          "velocity": 0.5039370078740157
        },
        {
          "duration": 0.21428574999998773,
          "durationTicks": 240,
          "midi": 52,
          "name": "E3",
          "ticks": 178800,
          "time": 159.64288375,
          "velocity": 0.5511811023622047
        },
        {
          "duration": 0.21428574999998773,
          "durationTicks": 240,
          "midi": 56,
          "name": "G#3",
          "ticks": 179040,
          "time": 159.8571695,
          "velocity": 0.5511811023622047
        },
        {
          "duration": 0.21428575000001615,
          "durationTicks": 240,
          "midi": 64,
          "name": "E4",
          "ticks": 179280,
          "time": 160.07145524999999,
          "velocity": 0.5511811023622047
        },
        {
          "duration": 0.21428574999998773,
          "durationTicks": 240,
          "midi": 68,
          "name": "G#4",
          "ticks": 179520,
          "time": 160.285741,
          "velocity": 0.5984251968503937
        },
        {
          "duration": 0.21428575000001615,
          "durationTicks": 240,
          "midi": 71,
          "name": "B4",
          "ticks": 179760,
          "time": 160.50002675,
          "velocity": 0.5984251968503937
        },
        {
          "duration": 0.4285715000000039,
          "durationTicks": 480,
          "midi": 72,
          "name": "C5",
          "ticks": 180000,
          "time": 160.7143125,
          "velocity": 0.5984251968503937
        },
        {
          "duration": 0.21428574999998773,
          "durationTicks": 240,
          "midi": 45,
          "name": "A2",
          "ticks": 180000,
          "time": 160.7143125,
          "velocity": 0.5984251968503937
        },
        {
          "duration": 0.21428575000001615,
          "durationTicks": 240,
          "midi": 52,
          "name": "E3",
          "ticks": 180240,
          "time": 160.92859825,
          "velocity": 0.5984251968503937
        },
        {
          "duration": 0.21428574999998773,
          "durationTicks": 240,
          "midi": 57,
          "name": "A3",
          "ticks": 180480,
          "time": 161.142884,
          "velocity": 0.5984251968503937
        },
        {
          "duration": 0.21428574999998773,
          "durationTicks": 240,
          "midi": 64,
          "name": "E4",
          "ticks": 180720,
          "time": 161.35716975,
          "velocity": 0.5984251968503937
        },
        {
          "duration": 0.21428575000001615,
          "durationTicks": 240,
          "midi": 76,
          "name": "E5",
          "ticks": 180960,
          "time": 161.57145549999998,
          "velocity": 0.5984251968503937
        },
        {
          "duration": 0.21428574999998773,
          "durationTicks": 240,
          "midi": 75,
          "name": "D#5",
          "ticks": 181200,
          "time": 161.78574125,
          "velocity": 0.5984251968503937
        },
        {
          "duration": 0.21428575000001615,
          "durationTicks": 240,
          "midi": 76,
          "name": "E5",
          "ticks": 181440,
          "time": 162.000027,
          "velocity": 0.5984251968503937
        },
        {
          "duration": 0.21428574999998773,
          "durationTicks": 240,
          "midi": 75,
          "name": "D#5",
          "ticks": 181680,
          "time": 162.21431275,
          "velocity": 0.5984251968503937
        },
        {
          "duration": 0.21428575000001615,
          "durationTicks": 240,
          "midi": 76,
          "name": "E5",
          "ticks": 181920,
          "time": 162.4285985,
          "velocity": 0.5984251968503937
        },
        {
          "duration": 0.21428574999998773,
          "durationTicks": 240,
          "midi": 71,
          "name": "B4",
          "ticks": 182160,
          "time": 162.64288425,
          "velocity": 0.5984251968503937
        },
        {
          "duration": 0.21428574999998773,
          "durationTicks": 240,
          "midi": 74,
          "name": "D5",
          "ticks": 182400,
          "time": 162.85717,
          "velocity": 0.5984251968503937
        },
        {
          "duration": 0.21428575000001615,
          "durationTicks": 240,
          "midi": 72,
          "name": "C5",
          "ticks": 182640,
          "time": 163.07145574999998,
          "velocity": 0.5984251968503937
        },
        {
          "duration": 0.4285715000000039,
          "durationTicks": 480,
          "midi": 69,
          "name": "A4",
          "ticks": 182880,
          "time": 163.2857415,
          "velocity": 0.5984251968503937
        },
        {
          "duration": 0.21428574999998773,
          "durationTicks": 240,
          "midi": 45,
          "name": "A2",
          "ticks": 182880,
          "time": 163.2857415,
          "velocity": 0.5984251968503937
        },
        {
          "duration": 0.21428575000001615,
          "durationTicks": 240,
          "midi": 52,
          "name": "E3",
          "ticks": 183120,
          "time": 163.50002725,
          "velocity": 0.5984251968503937
        },
        {
          "duration": 0.21428574999998773,
          "durationTicks": 240,
          "midi": 57,
          "name": "A3",
          "ticks": 183360,
          "time": 163.714313,
          "velocity": 0.5984251968503937
        },
        {
          "duration": 0.21428575000001615,
          "durationTicks": 240,
          "midi": 60,
          "name": "C4",
          "ticks": 183600,
          "time": 163.92859875,
          "velocity": 0.5984251968503937
        },
        {
          "duration": 0.21428574999998773,
          "durationTicks": 240,
          "midi": 64,
          "name": "E4",
          "ticks": 183840,
          "time": 164.1428845,
          "velocity": 0.5984251968503937
        },
        {
          "duration": 0.21428575000001615,
          "durationTicks": 240,
          "midi": 69,
          "name": "A4",
          "ticks": 184080,
          "time": 164.35717025,
          "velocity": 0.5511811023622047
        },
        {
          "duration": 0.42857149999997546,
          "durationTicks": 480,
          "midi": 71,
          "name": "B4",
          "ticks": 184320,
          "time": 164.571456,
          "velocity": 0.5039370078740157
        },
        {
          "duration": 0.21428574999998773,
          "durationTicks": 240,
          "midi": 40,
          "name": "E2",
          "ticks": 184320,
          "time": 164.571456,
          "velocity": 0.5039370078740157
        },
        {
          "duration": 0.21428574999998773,
          "durationTicks": 240,
          "midi": 52,
          "name": "E3",
          "ticks": 184560,
          "time": 164.78574175,
          "velocity": 0.5039370078740157
        },
        {
          "duration": 0.21428575000001615,
          "durationTicks": 240,
          "midi": 56,
          "name": "G#3",
          "ticks": 184800,
          "time": 165.0000275,
          "velocity": 0.44881889763779526
        },
        {
          "duration": 0.21428574999998773,
          "durationTicks": 240,
          "midi": 64,
          "name": "E4",
          "ticks": 185040,
          "time": 165.21431325,
          "velocity": 0.4015748031496063
        },
        {
          "duration": 0.21428575000001615,
          "durationTicks": 240,
          "midi": 72,
          "name": "C5",
          "ticks": 185280,
          "time": 165.428599,
          "velocity": 0.4015748031496063
        },
        {
          "duration": 0.21428574999998773,
          "durationTicks": 240,
          "midi": 71,
          "name": "B4",
          "ticks": 185520,
          "time": 165.64288475,
          "velocity": 0.4015748031496063
        },
        {
          "duration": 1.2857145000000116,
          "durationTicks": 1440,
          "midi": 60,
          "name": "C4",
          "ticks": 185760,
          "time": 165.8571705,
          "velocity": 0.3543307086614173
        },
        {
          "duration": 1.2857145000000116,
          "durationTicks": 1440,
          "midi": 69,
          "name": "A4",
          "ticks": 185760,
          "time": 165.8571705,
          "velocity": 0.3543307086614173
        },
        {
          "duration": 1.2857145000000116,
          "durationTicks": 1440,
          "midi": 45,
          "name": "A2",
          "ticks": 185760,
          "time": 165.8571705,
          "velocity": 0.3543307086614173
        },
        {
          "duration": 1.2857145000000116,
          "durationTicks": 1440,
          "midi": 33,
          "name": "A1",
          "ticks": 185760,
          "time": 165.8571705,
          "velocity": 0.3543307086614173
        }
      ],
      "endOfTrackTicks": 190080
    },
    {
      "channel": 0,
      "controlChanges": {},
      "pitchBends": [],
      "instrument": {
        "family": "piano",
        "number": 0,
        "name": "acoustic grand piano"
      },
      "name": "http://www.forelise.com/",
      "notes": [],
      "endOfTrackTicks": 0
    },
    {
      "channel": 0,
      "controlChanges": {},
      "pitchBends": [],
      "instrument": {
        "family": "piano",
        "number": 0,
        "name": "acoustic grand piano"
      },
      "name": "Composed by Ludwig van Beethoven",
      "notes": [],
      "endOfTrackTicks": 0
    }
  ]
}
