{
  "header": {
    "keySignatures": [],
    "meta": [],
    "name": "",
    "ppq": 384,
    "tempos": [
      {
        "bpm": 135.000135000135,
        "ticks": 0
      }
    ],
    "timeSignatures": [
      {
        "ticks": 0,
        "timeSignature": [
          4,
          4
        ],
        "measures": 0
      }
    ]
  },
  "tracks": [
    {
      "channel": 0,
      "controlChanges": {},
      "pitchBends": [],
      "instrument": {
        "family": "piano",
        "number": 0,
        "name": "acoustic grand piano"
      },
      "name": "Elec. Piano (Classic)",
      "notes": [
        {
          "duration": 0.111111,
          "durationTicks": 96,
          "midi": 35,
          "name": "B1",
          "ticks": 0,
          "time": 0,
          "velocity": 0.3937007874015748
        },
        {
          "duration": 0.111111,
          "durationTicks": 96,
          "midi": 59,
          "name": "B3",
          "ticks": 0,
          "time": 0,
          "velocity": 0.3937007874015748
        },
        {
          "duration": 0.111111,
          "durationTicks": 96,
          "midi": 47,
          "name": "B2",
          "ticks": 0,
          "time": 0,
          "velocity": 0.3937007874015748
        },
        {
          "duration": 0.11111099999999999,
          "durationTicks": 96,
          "midi": 59,
          "name": "B3",
          "ticks": 192,
          "time": 0.222222,
          "velocity": 0.3937007874015748
        },
        {
          "duration": 0.11111100000000002,
          "durationTicks": 96,
          "midi": 59,
          "name": "B3",
          "ticks": 384,
          "time": 0.444444,
          "velocity": 0.3937007874015748
        },
        {
          "duration": 0.11111099999999996,
          "durationTicks": 96,
          "midi": 57,
          "name": "A3",
          "ticks": 480,
          "time": 0.555555,
          "velocity": 0.3937007874015748
        },
        {
          "duration": 0.11111099999999996,
          "durationTicks": 96,
          "midi": 59,
          "name": "B3",
          "ticks": 672,
          "time": 0.777777,
          "velocity": 0.3937007874015748
        },
        {
          "duration": 0.11111100000000007,
          "durationTicks": 96,
          "midi": 62,
          "name": "D4",
          "ticks": 864,
          "time": 0.999999,
          "velocity": 0.3937007874015748
        },
        {
          "duration": 0.11111099999999996,
          "durationTicks": 96,
          "midi": 59,
          "name": "B3",
          "ticks": 1056,
          "time": 1.222221,
          "velocity": 0.3937007874015748
        },
        {
          "duration": 0.11111100000000018,
          "durationTicks": 96,
          "midi": 54,
          "name": "F#3",
          "ticks": 1248,
          "time": 1.444443,
          "velocity": 0.3937007874015748
        },
        {
          "duration": 0.11111099999999996,
          "durationTicks": 96,
          "midi": 57,
          "name": "A3",
          "ticks": 1344,
          "time": 1.555554,
          "velocity": 0.3937007874015748
        },
        {
          "duration": 0.11111099999999996,
          "durationTicks": 96,
          "midi": 59,
          "name": "B3",
          "ticks": 1536,
          "time": 1.777776,
          "velocity": 0.3937007874015748
        },
        {
          "duration": 0.11111099999999996,
          "durationTicks": 96,
          "midi": 59,
          "name": "B3",
          "ticks": 1728,
          "time": 1.999998,
          "velocity": 0.3937007874015748
        },
        {
          "duration": 0.11111099999999974,
          "durationTicks": 96,
          "midi": 59,
          "name": "B3",
          "ticks": 1920,
          "time": 2.22222,
          "velocity": 0.3937007874015748
        },
        {
          "duration": 0.11111100000000018,
          "durationTicks": 96,
          "midi": 57,
          "name": "A3",
          "ticks": 2016,
          "time": 2.333331,
          "velocity": 0.3937007874015748
        },
        {
          "duration": 0.11111099999999974,
          "durationTicks": 96,
          "midi": 59,
          "name": "B3",
          "ticks": 2208,
          "time": 2.555553,
          "velocity": 0.3937007874015748
        },
        {
          "duration": 0.11111099999999974,
          "durationTicks": 96,
          "midi": 65,
          "name": "F4",
          "ticks": 2400,
          "time": 2.777775,
          "velocity": 0.3937007874015748
        },
        {
          "duration": 0.11111100000000018,
          "durationTicks": 96,
          "midi": 64,
          "name": "E4",
          "ticks": 2592,
          "time": 2.999997,
          "velocity": 0.3937007874015748
        },
        {
          "duration": 0.11111100000000018,
          "durationTicks": 96,
          "midi": 62,
          "name": "D4",
          "ticks": 2784,
          "time": 3.222219,
          "velocity": 0.3937007874015748
        },
        {
          "duration": 0.11111099999999974,
          "durationTicks": 96,
          "midi": 57,
          "name": "A3",
          "ticks": 2880,
          "time": 3.33333,
          "velocity": 0.3937007874015748
        },
        {
          "duration": 0.11111100000000018,
          "durationTicks": 96,
          "midi": 47,
          "name": "B2",
          "ticks": 3072,
          "time": 3.555552,
          "velocity": 0.3937007874015748
        },
        {
          "duration": 0.11111100000000018,
          "durationTicks": 96,
          "midi": 35,
          "name": "B1",
          "ticks": 3072,
          "time": 3.555552,
          "velocity": 0.3937007874015748
        },
        {
          "duration": 0.11111100000000018,
          "durationTicks": 96,
          "midi": 59,
          "name": "B3",
          "ticks": 3072,
          "time": 3.555552,
          "velocity": 0.3937007874015748
        },
        {
          "duration": 0.11111100000000018,
          "durationTicks": 96,
          "midi": 59,
          "name": "B3",
          "ticks": 3264,
          "time": 3.777774,
          "velocity": 0.3937007874015748
        },
        {
          "duration": 0.11111099999999974,
          "durationTicks": 96,
          "midi": 59,
          "name": "B3",
          "ticks": 3456,
          "time": 3.999996,
          "velocity": 0.3937007874015748
        },
        {
          "duration": 0.11111100000000018,
          "durationTicks": 96,
          "midi": 57,
          "name": "A3",
          "ticks": 3552,
          "time": 4.111107,
          "velocity": 0.3937007874015748
        },
        {
          "duration": 0.11111100000000018,
          "durationTicks": 96,
          "midi": 59,
          "name": "B3",
          "ticks": 3744,
          "time": 4.333329,
          "velocity": 0.3937007874015748
        },
        {
          "duration": 0.1111109999999993,
          "durationTicks": 96,
          "midi": 62,
          "name": "D4",
          "ticks": 3936,
          "time": 4.555551,
          "velocity": 0.3937007874015748
        },
        {
          "duration": 0.11111100000000018,
          "durationTicks": 96,
          "midi": 59,
          "name": "B3",
          "ticks": 4128,
          "time": 4.777773,
          "velocity": 0.3937007874015748
        },
        {
          "duration": 0.11111100000000018,
          "durationTicks": 96,
          "midi": 54,
          "name": "F#3",
          "ticks": 4320,
          "time": 4.999995,
          "velocity": 0.3937007874015748
        },
        {
          "duration": 0.1111109999999993,
          "durationTicks": 96,
          "midi": 57,
          "name": "A3",
          "ticks": 4416,
          "time": 5.111106,
          "velocity": 0.3937007874015748
        },
        {
          "duration": 0.11111100000000018,
          "durationTicks": 96,
          "midi": 59,
          "name": "B3",
          "ticks": 4608,
          "time": 5.333328,
          "velocity": 0.3937007874015748
        },
        {
          "duration": 0.11111100000000018,
          "durationTicks": 96,
          "midi": 47,
          "name": "B2",
          "ticks": 4608,
          "time": 5.333328,
          "velocity": 0.3937007874015748
        },
        {
          "duration": 0.11111100000000018,
          "durationTicks": 96,
          "midi": 35,
          "name": "B1",
          "ticks": 4608,
          "time": 5.333328,
          "velocity": 0.3937007874015748
        },
        {
          "duration": 0.11111100000000018,
          "durationTicks": 96,
          "midi": 59,
          "name": "B3",
          "ticks": 4800,
          "time": 5.55555,
          "velocity": 0.3937007874015748
        },
        {
          "duration": 0.11111100000000018,
          "durationTicks": 96,
          "midi": 59,
          "name": "B3",
          "ticks": 4992,
          "time": 5.777772,
          "velocity": 0.3937007874015748
        },
        {
          "duration": 0.11111100000000018,
          "durationTicks": 96,
          "midi": 57,
          "name": "A3",
          "ticks": 5088,
          "time": 5.888883,
          "velocity": 0.3937007874015748
        },
        {
          "duration": 0.11111100000000018,
          "durationTicks": 96,
          "midi": 59,
          "name": "B3",
          "ticks": 5184,
          "time": 5.999994,
          "velocity": 0.3937007874015748
        },
        {
          "duration": 0.11111100000000018,
          "durationTicks": 96,
          "midi": 62,
          "name": "D4",
          "ticks": 5280,
          "time": 6.111105,
          "velocity": 0.3937007874015748
        },
        {
          "duration": 0.1111109999999993,
          "durationTicks": 96,
          "midi": 47,
          "name": "B2",
          "ticks": 5376,
          "time": 6.222216,
          "velocity": 0.3937007874015748
        },
        {
          "duration": 0.1111109999999993,
          "durationTicks": 96,
          "midi": 35,
          "name": "B1",
          "ticks": 5376,
          "time": 6.222216,
          "velocity": 0.3937007874015748
        },
        {
          "duration": 0.11111100000000018,
          "durationTicks": 96,
          "midi": 65,
          "name": "F4",
          "ticks": 5472,
          "time": 6.333327,
          "velocity": 0.3937007874015748
        },
        {
          "duration": 0.11111100000000018,
          "durationTicks": 96,
          "midi": 64,
          "name": "E4",
          "ticks": 5664,
          "time": 6.555549,
          "velocity": 0.3937007874015748
        },
        {
          "duration": 0.1111109999999993,
          "durationTicks": 96,
          "midi": 62,
          "name": "D4",
          "ticks": 5856,
          "time": 6.777771,
          "velocity": 0.3937007874015748
        },
        {
          "duration": 0.11111100000000018,
          "durationTicks": 96,
          "midi": 57,
          "name": "A3",
          "ticks": 5952,
          "time": 6.888882,
          "velocity": 0.3937007874015748
        },
        {
          "duration": 0.11111100000000018,
          "durationTicks": 96,
          "midi": 59,
          "name": "B3",
          "ticks": 6144,
          "time": 7.111104,
          "velocity": 0.3937007874015748
        },
        {
          "duration": 0.11111100000000018,
          "durationTicks": 96,
          "midi": 47,
          "name": "B2",
          "ticks": 6144,
          "time": 7.111104,
          "velocity": 0.3937007874015748
        },
        {
          "duration": 0.1111109999999993,
          "durationTicks": 96,
          "midi": 47,
          "name": "B2",
          "ticks": 6336,
          "time": 7.3333260000000005,
          "velocity": 0.3937007874015748
        },
        {
          "duration": 0.1111109999999993,
          "durationTicks": 96,
          "midi": 59,
          "name": "B3",
          "ticks": 6336,
          "time": 7.3333260000000005,
          "velocity": 0.3937007874015748
        },
        {
          "duration": 0.11111100000000018,
          "durationTicks": 96,
          "midi": 59,
          "name": "B3",
          "ticks": 6528,
          "time": 7.555548,
          "velocity": 0.3937007874015748
        },
        {
          "duration": 0.11111100000000018,
          "durationTicks": 96,
          "midi": 47,
          "name": "B2",
          "ticks": 6528,
          "time": 7.555548,
          "velocity": 0.3937007874015748
        },
        {
          "duration": 0.11111100000000018,
          "durationTicks": 96,
          "midi": 45,
          "name": "A2",
          "ticks": 6624,
          "time": 7.666659,
          "velocity": 0.3937007874015748
        },
        {
          "duration": 0.11111100000000018,
          "durationTicks": 96,
          "midi": 57,
          "name": "A3",
          "ticks": 6624,
          "time": 7.666659,
          "velocity": 0.3937007874015748
        },
        {
          "duration": 0.1111109999999993,
          "durationTicks": 96,
          "midi": 47,
          "name": "B2",
          "ticks": 6816,
          "time": 7.8888810000000005,
          "velocity": 0.3937007874015748
        },
        {
          "duration": 0.1111109999999993,
          "durationTicks": 96,
          "midi": 59,
          "name": "B3",
          "ticks": 6816,
          "time": 7.8888810000000005,
          "velocity": 0.3937007874015748
        },
        {
          "duration": 0.1111109999999993,
          "durationTicks": 96,
          "midi": 62,
          "name": "D4",
          "ticks": 7008,
          "time": 8.111103,
          "velocity": 0.3937007874015748
        },
        {
          "duration": 0.1111109999999993,
          "durationTicks": 96,
          "midi": 50,
          "name": "D3",
          "ticks": 7008,
          "time": 8.111103,
          "velocity": 0.3937007874015748
        },
        {
          "duration": 0.1111109999999993,
          "durationTicks": 96,
          "midi": 59,
          "name": "B3",
          "ticks": 7200,
          "time": 8.333325,
          "velocity": 0.3937007874015748
        },
        {
          "duration": 0.1111109999999993,
          "durationTicks": 96,
          "midi": 47,
          "name": "B2",
          "ticks": 7200,
          "time": 8.333325,
          "velocity": 0.3937007874015748
        },
        {
          "duration": 0.1111109999999993,
          "durationTicks": 96,
          "midi": 42,
          "name": "F#2",
          "ticks": 7392,
          "time": 8.555547,
          "velocity": 0.3937007874015748
        },
        {
          "duration": 0.1111109999999993,
          "durationTicks": 96,
          "midi": 54,
          "name": "F#3",
          "ticks": 7392,
          "time": 8.555547,
          "velocity": 0.3937007874015748
        },
        {
          "duration": 0.1111109999999993,
          "durationTicks": 96,
          "midi": 57,
          "name": "A3",
          "ticks": 7488,
          "time": 8.666658,
          "velocity": 0.3937007874015748
        },
        {
          "duration": 0.1111109999999993,
          "durationTicks": 96,
          "midi": 45,
          "name": "A2",
          "ticks": 7488,
          "time": 8.666658,
          "velocity": 0.3937007874015748
        },
        {
          "duration": 0.1111109999999993,
          "durationTicks": 96,
          "midi": 47,
          "name": "B2",
          "ticks": 7680,
          "time": 8.88888,
          "velocity": 0.3937007874015748
        },
        {
          "duration": 0.1111109999999993,
          "durationTicks": 96,
          "midi": 59,
          "name": "B3",
          "ticks": 7680,
          "time": 8.88888,
          "velocity": 0.3937007874015748
        },
        {
          "duration": 0.1111109999999993,
          "durationTicks": 96,
          "midi": 59,
          "name": "B3",
          "ticks": 7872,
          "time": 9.111102,
          "velocity": 0.3937007874015748
        },
        {
          "duration": 0.1111109999999993,
          "durationTicks": 96,
          "midi": 47,
          "name": "B2",
          "ticks": 7872,
          "time": 9.111102,
          "velocity": 0.3937007874015748
        },
        {
          "duration": 0.11111100000000107,
          "durationTicks": 96,
          "midi": 59,
          "name": "B3",
          "ticks": 8064,
          "time": 9.333324,
          "velocity": 0.3937007874015748
        },
        {
          "duration": 0.11111100000000107,
          "durationTicks": 96,
          "midi": 47,
          "name": "B2",
          "ticks": 8064,
          "time": 9.333324,
          "velocity": 0.3937007874015748
        },
        {
          "duration": 0.1111109999999993,
          "durationTicks": 96,
          "midi": 45,
          "name": "A2",
          "ticks": 8160,
          "time": 9.444435,
          "velocity": 0.3937007874015748
        },
        {
          "duration": 0.1111109999999993,
          "durationTicks": 96,
          "midi": 57,
          "name": "A3",
          "ticks": 8160,
          "time": 9.444435,
          "velocity": 0.3937007874015748
        },
        {
          "duration": 0.1111109999999993,
          "durationTicks": 96,
          "midi": 59,
          "name": "B3",
          "ticks": 8352,
          "time": 9.666657,
          "velocity": 0.3937007874015748
        },
        {
          "duration": 0.1111109999999993,
          "durationTicks": 96,
          "midi": 47,
          "name": "B2",
          "ticks": 8352,
          "time": 9.666657,
          "velocity": 0.3937007874015748
        },
        {
          "duration": 0.05555549999999876,
          "durationTicks": 48,
          "midi": 64,
          "name": "E4",
          "ticks": 8496,
          "time": 9.8333235,
          "velocity": 0.3937007874015748
        },
        {
          "duration": 0.11111100000000107,
          "durationTicks": 96,
          "midi": 65,
          "name": "F4",
          "ticks": 8544,
          "time": 9.888879,
          "velocity": 0.3937007874015748
        },
        {
          "duration": 0.11111100000000107,
          "durationTicks": 96,
          "midi": 53,
          "name": "F3",
          "ticks": 8544,
          "time": 9.888879,
          "velocity": 0.3937007874015748
        },
        {
          "duration": 0.11111100000000107,
          "durationTicks": 96,
          "midi": 52,
          "name": "E3",
          "ticks": 8736,
          "time": 10.111101,
          "velocity": 0.3937007874015748
        },
        {
          "duration": 0.11111100000000107,
          "durationTicks": 96,
          "midi": 64,
          "name": "E4",
          "ticks": 8736,
          "time": 10.111101,
          "velocity": 0.3937007874015748
        },
        {
          "duration": 0.1111109999999993,
          "durationTicks": 96,
          "midi": 50,
          "name": "D3",
          "ticks": 8928,
          "time": 10.333323,
          "velocity": 0.3937007874015748
        },
        {
          "duration": 0.1111109999999993,
          "durationTicks": 96,
          "midi": 62,
          "name": "D4",
          "ticks": 8928,
          "time": 10.333323,
          "velocity": 0.3937007874015748
        },
        {
          "duration": 0.11111100000000107,
          "durationTicks": 96,
          "midi": 57,
          "name": "A3",
          "ticks": 9024,
          "time": 10.444434,
          "velocity": 0.3937007874015748
        },
        {
          "duration": 0.11111100000000107,
          "durationTicks": 96,
          "midi": 45,
          "name": "A2",
          "ticks": 9024,
          "time": 10.444434,
          "velocity": 0.3937007874015748
        },
        {
          "duration": 0.11111100000000107,
          "durationTicks": 96,
          "midi": 59,
          "name": "B3",
          "ticks": 9216,
          "time": 10.666656,
          "velocity": 0.3937007874015748
        },
        {
          "duration": 0.11111100000000107,
          "durationTicks": 96,
          "midi": 47,
          "name": "B2",
          "ticks": 9216,
          "time": 10.666656,
          "velocity": 0.3937007874015748
        },
        {
          "duration": 0.1111109999999993,
          "durationTicks": 96,
          "midi": 47,
          "name": "B2",
          "ticks": 9408,
          "time": 10.888878,
          "velocity": 0.3937007874015748
        },
        {
          "duration": 0.1111109999999993,
          "durationTicks": 96,
          "midi": 59,
          "name": "B3",
          "ticks": 9408,
          "time": 10.888878,
          "velocity": 0.3937007874015748
        },
        {
          "duration": 0.1111109999999993,
          "durationTicks": 96,
          "midi": 47,
          "name": "B2",
          "ticks": 9600,
          "time": 11.1111,
          "velocity": 0.3937007874015748
        },
        {
          "duration": 0.1111109999999993,
          "durationTicks": 96,
          "midi": 59,
          "name": "B3",
          "ticks": 9600,
          "time": 11.1111,
          "velocity": 0.3937007874015748
        },
        {
          "duration": 0.11111100000000107,
          "durationTicks": 96,
          "midi": 45,
          "name": "A2",
          "ticks": 9696,
          "time": 11.222211,
          "velocity": 0.3937007874015748
        },
        {
          "duration": 0.11111100000000107,
          "durationTicks": 96,
          "midi": 57,
          "name": "A3",
          "ticks": 9696,
          "time": 11.222211,
          "velocity": 0.3937007874015748
        },
        {
          "duration": 0.1111109999999993,
          "durationTicks": 96,
          "midi": 59,
          "name": "B3",
          "ticks": 9888,
          "time": 11.444433,
          "velocity": 0.3937007874015748
        },
        {
          "duration": 0.1111109999999993,
          "durationTicks": 96,
          "midi": 47,
          "name": "B2",
          "ticks": 9888,
          "time": 11.444433,
          "velocity": 0.3937007874015748
        },
        {
          "duration": 0.1111109999999993,
          "durationTicks": 96,
          "midi": 62,
          "name": "D4",
          "ticks": 10080,
          "time": 11.666655,
          "velocity": 0.3937007874015748
        },
        {
          "duration": 0.1111109999999993,
          "durationTicks": 96,
          "midi": 50,
          "name": "D3",
          "ticks": 10080,
          "time": 11.666655,
          "velocity": 0.3937007874015748
        },
        {
          "duration": 0.1111109999999993,
          "durationTicks": 96,
          "midi": 59,
          "name": "B3",
          "ticks": 10272,
          "time": 11.888877,
          "velocity": 0.3937007874015748
        },
        {
          "duration": 0.1111109999999993,
          "durationTicks": 96,
          "midi": 47,
          "name": "B2",
          "ticks": 10272,
          "time": 11.888877,
          "velocity": 0.3937007874015748
        },
        {
          "duration": 0.11111100000000107,
          "durationTicks": 96,
          "midi": 54,
          "name": "F#3",
          "ticks": 10464,
          "time": 12.111099,
          "velocity": 0.3937007874015748
        },
        {
          "duration": 0.11111100000000107,
          "durationTicks": 96,
          "midi": 42,
          "name": "F#2",
          "ticks": 10464,
          "time": 12.111099,
          "velocity": 0.3937007874015748
        },
        {
          "duration": 0.1111109999999993,
          "durationTicks": 96,
          "midi": 57,
          "name": "A3",
          "ticks": 10560,
          "time": 12.22221,
          "velocity": 0.3937007874015748
        },
        {
          "duration": 0.1111109999999993,
          "durationTicks": 96,
          "midi": 45,
          "name": "A2",
          "ticks": 10560,
          "time": 12.22221,
          "velocity": 0.3937007874015748
        },
        {
          "duration": 0.1111109999999993,
          "durationTicks": 96,
          "midi": 59,
          "name": "B3",
          "ticks": 10752,
          "time": 12.444432,
          "velocity": 0.3937007874015748
        },
        {
          "duration": 0.1111109999999993,
          "durationTicks": 96,
          "midi": 47,
          "name": "B2",
          "ticks": 10752,
          "time": 12.444432,
          "velocity": 0.3937007874015748
        },
        {
          "duration": 0.11111100000000107,
          "durationTicks": 96,
          "midi": 59,
          "name": "B3",
          "ticks": 10944,
          "time": 12.666654,
          "velocity": 0.3937007874015748
        },
        {
          "duration": 0.11111100000000107,
          "durationTicks": 96,
          "midi": 47,
          "name": "B2",
          "ticks": 10944,
          "time": 12.666654,
          "velocity": 0.3937007874015748
        },
        {
          "duration": 0.11111100000000107,
          "durationTicks": 96,
          "midi": 59,
          "name": "B3",
          "ticks": 11136,
          "time": 12.888876,
          "velocity": 0.3937007874015748
        },
        {
          "duration": 0.11111100000000107,
          "durationTicks": 96,
          "midi": 47,
          "name": "B2",
          "ticks": 11136,
          "time": 12.888876,
          "velocity": 0.3937007874015748
        },
        {
          "duration": 0.1111109999999993,
          "durationTicks": 96,
          "midi": 45,
          "name": "A2",
          "ticks": 11328,
          "time": 13.111098,
          "velocity": 0.3937007874015748
        },
        {
          "duration": 0.1111109999999993,
          "durationTicks": 96,
          "midi": 57,
          "name": "A3",
          "ticks": 11328,
          "time": 13.111098,
          "velocity": 0.3937007874015748
        },
        {
          "duration": 0.11111100000000107,
          "durationTicks": 96,
          "midi": 47,
          "name": "B2",
          "ticks": 11424,
          "time": 13.222209,
          "velocity": 0.3937007874015748
        },
        {
          "duration": 0.11111100000000107,
          "durationTicks": 96,
          "midi": 59,
          "name": "B3",
          "ticks": 11424,
          "time": 13.222209,
          "velocity": 0.3937007874015748
        },
        {
          "duration": 0.11111100000000107,
          "durationTicks": 96,
          "midi": 50,
          "name": "D3",
          "ticks": 11904,
          "time": 13.777764,
          "velocity": 0.3937007874015748
        },
        {
          "duration": 0.11111100000000107,
          "durationTicks": 96,
          "midi": 83,
          "name": "B5",
          "ticks": 11904,
          "time": 13.777764,
          "velocity": 0.3937007874015748
        },
        {
          "duration": 0.11111100000000107,
          "durationTicks": 96,
          "midi": 59,
          "name": "B3",
          "ticks": 11904,
          "time": 13.777764,
          "velocity": 0.3937007874015748
        },
        {
          "duration": 0.11111100000000107,
          "durationTicks": 96,
          "midi": 47,
          "name": "B2",
          "ticks": 11904,
          "time": 13.777764,
          "velocity": 0.3937007874015748
        },
        {
          "duration": 0.11111100000000107,
          "durationTicks": 96,
          "midi": 71,
          "name": "B4",
          "ticks": 11904,
          "time": 13.777764,
          "velocity": 0.3937007874015748
        },
        {
          "duration": 0.11111100000000107,
          "durationTicks": 96,
          "midi": 74,
          "name": "D5",
          "ticks": 11904,
          "time": 13.777764,
          "velocity": 0.3937007874015748
        },
        {
          "duration": 0.11111100000000107,
          "durationTicks": 96,
          "midi": 78,
          "name": "F#5",
          "ticks": 11904,
          "time": 13.777764,
          "velocity": 0.3937007874015748
        },
        {
          "duration": 0.11111100000000107,
          "durationTicks": 96,
          "midi": 54,
          "name": "F#3",
          "ticks": 11904,
          "time": 13.777764,
          "velocity": 0.3937007874015748
        },
        {
          "duration": 0.1111109999999993,
          "durationTicks": 96,
          "midi": 59,
          "name": "B3",
          "ticks": 12288,
          "time": 14.222208,
          "velocity": 0.3937007874015748
        },
        {
          "duration": 0.1111109999999993,
          "durationTicks": 96,
          "midi": 47,
          "name": "B2",
          "ticks": 12288,
          "time": 14.222208,
          "velocity": 0.3937007874015748
        },
        {
          "duration": 0.1111109999999993,
          "durationTicks": 96,
          "midi": 59,
          "name": "B3",
          "ticks": 12480,
          "time": 14.44443,
          "velocity": 0.3937007874015748
        },
        {
          "duration": 0.1111109999999993,
          "durationTicks": 96,
          "midi": 47,
          "name": "B2",
          "ticks": 12480,
          "time": 14.44443,
          "velocity": 0.3937007874015748
        },
        {
          "duration": 0.1111109999999993,
          "durationTicks": 96,
          "midi": 71,
          "name": "B4",
          "ticks": 12480,
          "time": 14.44443,
          "velocity": 0.3937007874015748
        },
        {
          "duration": 0.1111109999999993,
          "durationTicks": 96,
          "midi": 47,
          "name": "B2",
          "ticks": 12672,
          "time": 14.666652000000001,
          "velocity": 0.3937007874015748
        },
        {
          "duration": 0.1111109999999993,
          "durationTicks": 96,
          "midi": 59,
          "name": "B3",
          "ticks": 12672,
          "time": 14.666652000000001,
          "velocity": 0.3937007874015748
        },
        {
          "duration": 0.1111109999999993,
          "durationTicks": 96,
          "midi": 57,
          "name": "A3",
          "ticks": 12768,
          "time": 14.777763,
          "velocity": 0.3937007874015748
        },
        {
          "duration": 0.1111109999999993,
          "durationTicks": 96,
          "midi": 69,
          "name": "A4",
          "ticks": 12768,
          "time": 14.777763,
          "velocity": 0.3937007874015748
        },
        {
          "duration": 0.1111109999999993,
          "durationTicks": 96,
          "midi": 45,
          "name": "A2",
          "ticks": 12768,
          "time": 14.777763,
          "velocity": 0.3937007874015748
        },
        {
          "duration": 0.1111109999999993,
          "durationTicks": 96,
          "midi": 59,
          "name": "B3",
          "ticks": 12960,
          "time": 14.999985,
          "velocity": 0.3937007874015748
        },
        {
          "duration": 0.1111109999999993,
          "durationTicks": 96,
          "midi": 47,
          "name": "B2",
          "ticks": 12960,
          "time": 14.999985,
          "velocity": 0.3937007874015748
        },
        {
          "duration": 0.11111100000000107,
          "durationTicks": 96,
          "midi": 71,
          "name": "B4",
          "ticks": 13056,
          "time": 15.111096,
          "velocity": 0.3937007874015748
        },
        {
          "duration": 0.1111109999999993,
          "durationTicks": 96,
          "midi": 50,
          "name": "D3",
          "ticks": 13152,
          "time": 15.222207000000001,
          "velocity": 0.3937007874015748
        },
        {
          "duration": 0.1111109999999993,
          "durationTicks": 96,
          "midi": 62,
          "name": "D4",
          "ticks": 13152,
          "time": 15.222207000000001,
          "velocity": 0.3937007874015748
        },
        {
          "duration": 0.11111100000000107,
          "durationTicks": 96,
          "midi": 59,
          "name": "B3",
          "ticks": 13344,
          "time": 15.444429,
          "velocity": 0.3937007874015748
        },
        {
          "duration": 0.11111100000000107,
          "durationTicks": 96,
          "midi": 47,
          "name": "B2",
          "ticks": 13344,
          "time": 15.444429,
          "velocity": 0.3937007874015748
        },
        {
          "duration": 0.11111100000000107,
          "durationTicks": 96,
          "midi": 54,
          "name": "F#3",
          "ticks": 13536,
          "time": 15.666651,
          "velocity": 0.3937007874015748
        },
        {
          "duration": 0.11111100000000107,
          "durationTicks": 96,
          "midi": 42,
          "name": "F#2",
          "ticks": 13536,
          "time": 15.666651,
          "velocity": 0.3937007874015748
        },
        {
          "duration": 0.1111109999999993,
          "durationTicks": 96,
          "midi": 57,
          "name": "A3",
          "ticks": 13632,
          "time": 15.777762000000001,
          "velocity": 0.3937007874015748
        },
        {
          "duration": 0.1111109999999993,
          "durationTicks": 96,
          "midi": 45,
          "name": "A2",
          "ticks": 13632,
          "time": 15.777762000000001,
          "velocity": 0.3937007874015748
        },
        {
          "duration": 0.1111109999999993,
          "durationTicks": 96,
          "midi": 59,
          "name": "B3",
          "ticks": 13824,
          "time": 15.999984,
          "velocity": 0.3937007874015748
        },
        {
          "duration": 0.1111109999999993,
          "durationTicks": 96,
          "midi": 47,
          "name": "B2",
          "ticks": 13824,
          "time": 15.999984,
          "velocity": 0.3937007874015748
        },
        {
          "duration": 0.11111100000000107,
          "durationTicks": 96,
          "midi": 59,
          "name": "B3",
          "ticks": 14016,
          "time": 16.222206,
          "velocity": 0.3937007874015748
        },
        {
          "duration": 0.11111100000000107,
          "durationTicks": 96,
          "midi": 71,
          "name": "B4",
          "ticks": 14016,
          "time": 16.222206,
          "velocity": 0.3937007874015748
        },
        {
          "duration": 0.11111100000000107,
          "durationTicks": 96,
          "midi": 47,
          "name": "B2",
          "ticks": 14016,
          "time": 16.222206,
          "velocity": 0.3937007874015748
        },
        {
          "duration": 0.11111100000000107,
          "durationTicks": 96,
          "midi": 71,
          "name": "B4",
          "ticks": 14208,
          "time": 16.444428,
          "velocity": 0.3937007874015748
        },
        {
          "duration": 0.11111100000000107,
          "durationTicks": 96,
          "midi": 47,
          "name": "B2",
          "ticks": 14208,
          "time": 16.444428,
          "velocity": 0.3937007874015748
        },
        {
          "duration": 0.11111100000000107,
          "durationTicks": 96,
          "midi": 59,
          "name": "B3",
          "ticks": 14208,
          "time": 16.444428,
          "velocity": 0.3937007874015748
        },
        {
          "duration": 0.11111100000000107,
          "durationTicks": 96,
          "midi": 57,
          "name": "A3",
          "ticks": 14304,
          "time": 16.555539,
          "velocity": 0.3937007874015748
        },
        {
          "duration": 0.11111100000000107,
          "durationTicks": 96,
          "midi": 45,
          "name": "A2",
          "ticks": 14304,
          "time": 16.555539,
          "velocity": 0.3937007874015748
        },
        {
          "duration": 0.11111100000000107,
          "durationTicks": 96,
          "midi": 69,
          "name": "A4",
          "ticks": 14304,
          "time": 16.555539,
          "velocity": 0.3937007874015748
        },
        {
          "duration": 0.11111099999999752,
          "durationTicks": 96,
          "midi": 71,
          "name": "B4",
          "ticks": 14496,
          "time": 16.777761,
          "velocity": 0.3937007874015748
        },
        {
          "duration": 0.11111099999999752,
          "durationTicks": 96,
          "midi": 47,
          "name": "B2",
          "ticks": 14496,
          "time": 16.777761,
          "velocity": 0.3937007874015748
        },
        {
          "duration": 0.11111099999999752,
          "durationTicks": 96,
          "midi": 59,
          "name": "B3",
          "ticks": 14496,
          "time": 16.777761,
          "velocity": 0.3937007874015748
        },
        {
          "duration": 0.02777774999999849,
          "durationTicks": 24,
          "midi": 76,
          "name": "E5",
          "ticks": 14664,
          "time": 16.972205250000002,
          "velocity": 0.3937007874015748
        },
        {
          "duration": 0.11111100000000107,
          "durationTicks": 96,
          "midi": 77,
          "name": "F5",
          "ticks": 14688,
          "time": 16.999983,
          "velocity": 0.3937007874015748
        },
        {
          "duration": 0.11111100000000107,
          "durationTicks": 96,
          "midi": 65,
          "name": "F4",
          "ticks": 14688,
          "time": 16.999983,
          "velocity": 0.3937007874015748
        },
        {
          "duration": 0.11111100000000107,
          "durationTicks": 96,
          "midi": 53,
          "name": "F3",
          "ticks": 14688,
          "time": 16.999983,
          "velocity": 0.3937007874015748
        },
        {
          "duration": 0.11111100000000107,
          "durationTicks": 96,
          "midi": 64,
          "name": "E4",
          "ticks": 14880,
          "time": 17.222205,
          "velocity": 0.3937007874015748
        },
        {
          "duration": 0.11111100000000107,
          "durationTicks": 96,
          "midi": 52,
          "name": "E3",
          "ticks": 14880,
          "time": 17.222205,
          "velocity": 0.3937007874015748
        },
        {
          "duration": 0.11111099999999752,
          "durationTicks": 96,
          "midi": 62,
          "name": "D4",
          "ticks": 15072,
          "time": 17.444427,
          "velocity": 0.3937007874015748
        },
        {
          "duration": 0.11111099999999752,
          "durationTicks": 96,
          "midi": 50,
          "name": "D3",
          "ticks": 15072,
          "time": 17.444427,
          "velocity": 0.3937007874015748
        },
        {
          "duration": 0.11111100000000107,
          "durationTicks": 96,
          "midi": 57,
          "name": "A3",
          "ticks": 15168,
          "time": 17.555538,
          "velocity": 0.3937007874015748
        },
        {
          "duration": 0.11111100000000107,
          "durationTicks": 96,
          "midi": 45,
          "name": "A2",
          "ticks": 15168,
          "time": 17.555538,
          "velocity": 0.3937007874015748
        },
        {
          "duration": 0.11111100000000107,
          "durationTicks": 96,
          "midi": 69,
          "name": "A4",
          "ticks": 15168,
          "time": 17.555538,
          "velocity": 0.3937007874015748
        },
        {
          "duration": 0.11111100000000107,
          "durationTicks": 96,
          "midi": 47,
          "name": "B2",
          "ticks": 15360,
          "time": 17.77776,
          "velocity": 0.3937007874015748
        },
        {
          "duration": 0.11111100000000107,
          "durationTicks": 96,
          "midi": 59,
          "name": "B3",
          "ticks": 15360,
          "time": 17.77776,
          "velocity": 0.3937007874015748
        },
        {
          "duration": 0.11111100000000107,
          "durationTicks": 96,
          "midi": 47,
          "name": "B2",
          "ticks": 15552,
          "time": 17.999982,
          "velocity": 0.3937007874015748
        },
        {
          "duration": 0.11111100000000107,
          "durationTicks": 96,
          "midi": 59,
          "name": "B3",
          "ticks": 15552,
          "time": 17.999982,
          "velocity": 0.3937007874015748
        },
        {
          "duration": 0.11111100000000107,
          "durationTicks": 96,
          "midi": 71,
          "name": "B4",
          "ticks": 15552,
          "time": 17.999982,
          "velocity": 0.3937007874015748
        },
        {
          "duration": 0.11111099999999752,
          "durationTicks": 96,
          "midi": 71,
          "name": "B4",
          "ticks": 15744,
          "time": 18.222204,
          "velocity": 0.3937007874015748
        },
        {
          "duration": 0.11111099999999752,
          "durationTicks": 96,
          "midi": 47,
          "name": "B2",
          "ticks": 15744,
          "time": 18.222204,
          "velocity": 0.3937007874015748
        },
        {
          "duration": 0.11111099999999752,
          "durationTicks": 96,
          "midi": 59,
          "name": "B3",
          "ticks": 15744,
          "time": 18.222204,
          "velocity": 0.3937007874015748
        },
        {
          "duration": 0.11111100000000107,
          "durationTicks": 96,
          "midi": 71,
          "name": "B4",
          "ticks": 15840,
          "time": 18.333315,
          "velocity": 0.3937007874015748
        },
        {
          "duration": 0.11111100000000107,
          "durationTicks": 96,
          "midi": 45,
          "name": "A2",
          "ticks": 15840,
          "time": 18.333315,
          "velocity": 0.3937007874015748
        },
        {
          "duration": 0.11111100000000107,
          "durationTicks": 96,
          "midi": 57,
          "name": "A3",
          "ticks": 15840,
          "time": 18.333315,
          "velocity": 0.3937007874015748
        },
        {
          "duration": 0.11111100000000107,
          "durationTicks": 96,
          "midi": 71,
          "name": "B4",
          "ticks": 15936,
          "time": 18.444426,
          "velocity": 0.3937007874015748
        },
        {
          "duration": 0.11111099999999752,
          "durationTicks": 96,
          "midi": 47,
          "name": "B2",
          "ticks": 16032,
          "time": 18.555537,
          "velocity": 0.3937007874015748
        },
        {
          "duration": 0.11111099999999752,
          "durationTicks": 96,
          "midi": 59,
          "name": "B3",
          "ticks": 16032,
          "time": 18.555537,
          "velocity": 0.3937007874015748
        },
        {
          "duration": 0.11111099999999752,
          "durationTicks": 96,
          "midi": 71,
          "name": "B4",
          "ticks": 16032,
          "time": 18.555537,
          "velocity": 0.3937007874015748
        },
        {
          "duration": 0.11111100000000107,
          "durationTicks": 96,
          "midi": 62,
          "name": "D4",
          "ticks": 16224,
          "time": 18.777759,
          "velocity": 0.3937007874015748
        },
        {
          "duration": 0.11111100000000107,
          "durationTicks": 96,
          "midi": 50,
          "name": "D3",
          "ticks": 16224,
          "time": 18.777759,
          "velocity": 0.3937007874015748
        },
        {
          "duration": 0.11111100000000107,
          "durationTicks": 96,
          "midi": 71,
          "name": "B4",
          "ticks": 16224,
          "time": 18.777759,
          "velocity": 0.3937007874015748
        },
        {
          "duration": 0.11111099999999752,
          "durationTicks": 96,
          "midi": 71,
          "name": "B4",
          "ticks": 16416,
          "time": 18.999981000000002,
          "velocity": 0.3937007874015748
        },
        {
          "duration": 0.11111099999999752,
          "durationTicks": 96,
          "midi": 59,
          "name": "B3",
          "ticks": 16416,
          "time": 18.999981000000002,
          "velocity": 0.3937007874015748
        },
        {
          "duration": 0.11111099999999752,
          "durationTicks": 96,
          "midi": 47,
          "name": "B2",
          "ticks": 16416,
          "time": 18.999981000000002,
          "velocity": 0.3937007874015748
        },
        {
          "duration": 0.11111100000000107,
          "durationTicks": 96,
          "midi": 69,
          "name": "A4",
          "ticks": 16608,
          "time": 19.222203,
          "velocity": 0.3937007874015748
        },
        {
          "duration": 0.11111100000000107,
          "durationTicks": 96,
          "midi": 42,
          "name": "F#2",
          "ticks": 16608,
          "time": 19.222203,
          "velocity": 0.3937007874015748
        },
        {
          "duration": 0.11111100000000107,
          "durationTicks": 96,
          "midi": 54,
          "name": "F#3",
          "ticks": 16608,
          "time": 19.222203,
          "velocity": 0.3937007874015748
        },
        {
          "duration": 0.11111099999999752,
          "durationTicks": 96,
          "midi": 57,
          "name": "A3",
          "ticks": 16704,
          "time": 19.333314,
          "velocity": 0.3937007874015748
        },
        {
          "duration": 0.11111099999999752,
          "durationTicks": 96,
          "midi": 45,
          "name": "A2",
          "ticks": 16704,
          "time": 19.333314,
          "velocity": 0.3937007874015748
        },
        {
          "duration": 0.11111099999999752,
          "durationTicks": 96,
          "midi": 71,
          "name": "B4",
          "ticks": 16704,
          "time": 19.333314,
          "velocity": 0.3937007874015748
        },
        {
          "duration": 0.11111100000000107,
          "durationTicks": 96,
          "midi": 59,
          "name": "B3",
          "ticks": 16896,
          "time": 19.555536,
          "velocity": 0.3937007874015748
        },
        {
          "duration": 0.11111100000000107,
          "durationTicks": 96,
          "midi": 47,
          "name": "B2",
          "ticks": 16896,
          "time": 19.555536,
          "velocity": 0.3937007874015748
        },
        {
          "duration": 0.11111100000000107,
          "durationTicks": 96,
          "midi": 59,
          "name": "B3",
          "ticks": 17088,
          "time": 19.777758,
          "velocity": 0.3937007874015748
        },
        {
          "duration": 0.11111100000000107,
          "durationTicks": 96,
          "midi": 83,
          "name": "B5",
          "ticks": 17088,
          "time": 19.777758,
          "velocity": 0.3937007874015748
        },
        {
          "duration": 0.11111100000000107,
          "durationTicks": 96,
          "midi": 47,
          "name": "B2",
          "ticks": 17088,
          "time": 19.777758,
          "velocity": 0.3937007874015748
        },
        {
          "duration": 0.11111100000000107,
          "durationTicks": 96,
          "midi": 59,
          "name": "B3",
          "ticks": 17280,
          "time": 19.99998,
          "velocity": 0.3937007874015748
        },
        {
          "duration": 0.11111100000000107,
          "durationTicks": 96,
          "midi": 47,
          "name": "B2",
          "ticks": 17280,
          "time": 19.99998,
          "velocity": 0.3937007874015748
        },
        {
          "duration": 0.11111100000000107,
          "durationTicks": 96,
          "midi": 83,
          "name": "B5",
          "ticks": 17280,
          "time": 19.99998,
          "velocity": 0.3937007874015748
        },
        {
          "duration": 0.11111099999999752,
          "durationTicks": 96,
          "midi": 57,
          "name": "A3",
          "ticks": 17376,
          "time": 20.111091000000002,
          "velocity": 0.3937007874015748
        },
        {
          "duration": 0.11111099999999752,
          "durationTicks": 96,
          "midi": 45,
          "name": "A2",
          "ticks": 17376,
          "time": 20.111091000000002,
          "velocity": 0.3937007874015748
        },
        {
          "duration": 0.11111099999999752,
          "durationTicks": 96,
          "midi": 83,
          "name": "B5",
          "ticks": 17376,
          "time": 20.111091000000002,
          "velocity": 0.3937007874015748
        },
        {
          "duration": 0.11111100000000107,
          "durationTicks": 96,
          "midi": 59,
          "name": "B3",
          "ticks": 17472,
          "time": 20.222202,
          "velocity": 0.3937007874015748
        },
        {
          "duration": 0.11111100000000107,
          "durationTicks": 96,
          "midi": 47,
          "name": "B2",
          "ticks": 17472,
          "time": 20.222202,
          "velocity": 0.3937007874015748
        },
        {
          "duration": 0.11111100000000107,
          "durationTicks": 96,
          "midi": 62,
          "name": "D4",
          "ticks": 17568,
          "time": 20.333313,
          "velocity": 0.3937007874015748
        },
        {
          "duration": 0.11111100000000107,
          "durationTicks": 96,
          "midi": 50,
          "name": "D3",
          "ticks": 17568,
          "time": 20.333313,
          "velocity": 0.3937007874015748
        },
        {
          "duration": 0.11111100000000107,
          "durationTicks": 96,
          "midi": 83,
          "name": "B5",
          "ticks": 17568,
          "time": 20.333313,
          "velocity": 0.3937007874015748
        },
        {
          "duration": 0.11111100000000107,
          "durationTicks": 96,
          "midi": 53,
          "name": "F3",
          "ticks": 17760,
          "time": 20.555535,
          "velocity": 0.3937007874015748
        },
        {
          "duration": 0.11111100000000107,
          "durationTicks": 96,
          "midi": 83,
          "name": "B5",
          "ticks": 17760,
          "time": 20.555535,
          "velocity": 0.3937007874015748
        },
        {
          "duration": 0.11111100000000107,
          "durationTicks": 96,
          "midi": 65,
          "name": "F4",
          "ticks": 17760,
          "time": 20.555535,
          "velocity": 0.3937007874015748
        },
        {
          "duration": 0.11111099999999752,
          "durationTicks": 96,
          "midi": 52,
          "name": "E3",
          "ticks": 17952,
          "time": 20.777757,
          "velocity": 0.3937007874015748
        },
        {
          "duration": 0.11111099999999752,
          "durationTicks": 96,
          "midi": 64,
          "name": "E4",
          "ticks": 17952,
          "time": 20.777757,
          "velocity": 0.3937007874015748
        },
        {
          "duration": 0.11111099999999752,
          "durationTicks": 96,
          "midi": 83,
          "name": "B5",
          "ticks": 17952,
          "time": 20.777757,
          "velocity": 0.3937007874015748
        },
        {
          "duration": 0.11111100000000107,
          "durationTicks": 96,
          "midi": 83,
          "name": "B5",
          "ticks": 18048,
          "time": 20.888868,
          "velocity": 0.3937007874015748
        },
        {
          "duration": 0.11111100000000107,
          "durationTicks": 96,
          "midi": 74,
          "name": "D5",
          "ticks": 18048,
          "time": 20.888868,
          "velocity": 0.3937007874015748
        },
        {
          "duration": 0.11111100000000107,
          "durationTicks": 96,
          "midi": 71,
          "name": "B4",
          "ticks": 18048,
          "time": 20.888868,
          "velocity": 0.3937007874015748
        },
        {
          "duration": 0.11111100000000107,
          "durationTicks": 96,
          "midi": 78,
          "name": "F#5",
          "ticks": 18048,
          "time": 20.888868,
          "velocity": 0.3937007874015748
        },
        {
          "duration": 0.11111100000000107,
          "durationTicks": 96,
          "midi": 50,
          "name": "D3",
          "ticks": 18144,
          "time": 20.999979,
          "velocity": 0.3937007874015748
        },
        {
          "duration": 0.11111100000000107,
          "durationTicks": 96,
          "midi": 62,
          "name": "D4",
          "ticks": 18144,
          "time": 20.999979,
          "velocity": 0.3937007874015748
        },
        {
          "duration": 0.11111100000000107,
          "durationTicks": 96,
          "midi": 45,
          "name": "A2",
          "ticks": 18240,
          "time": 21.11109,
          "velocity": 0.3937007874015748
        },
        {
          "duration": 0.11111100000000107,
          "durationTicks": 96,
          "midi": 57,
          "name": "A3",
          "ticks": 18240,
          "time": 21.11109,
          "velocity": 0.3937007874015748
        },
        {
          "duration": 0.11111100000000107,
          "durationTicks": 96,
          "midi": 59,
          "name": "B3",
          "ticks": 18432,
          "time": 21.333312,
          "velocity": 0.3937007874015748
        },
        {
          "duration": 0.11111100000000107,
          "durationTicks": 96,
          "midi": 47,
          "name": "B2",
          "ticks": 18432,
          "time": 21.333312,
          "velocity": 0.3937007874015748
        },
        {
          "duration": 0.11111099999999752,
          "durationTicks": 96,
          "midi": 71,
          "name": "B4",
          "ticks": 18624,
          "time": 21.555534,
          "velocity": 0.3937007874015748
        },
        {
          "duration": 0.11111099999999752,
          "durationTicks": 96,
          "midi": 59,
          "name": "B3",
          "ticks": 18624,
          "time": 21.555534,
          "velocity": 0.3937007874015748
        },
        {
          "duration": 0.11111099999999752,
          "durationTicks": 96,
          "midi": 83,
          "name": "B5",
          "ticks": 18624,
          "time": 21.555534,
          "velocity": 0.3937007874015748
        },
        {
          "duration": 0.11111099999999752,
          "durationTicks": 96,
          "midi": 47,
          "name": "B2",
          "ticks": 18624,
          "time": 21.555534,
          "velocity": 0.3937007874015748
        },
        {
          "duration": 0.11111099999999752,
          "durationTicks": 96,
          "midi": 78,
          "name": "F#5",
          "ticks": 18624,
          "time": 21.555534,
          "velocity": 0.3937007874015748
        },
        {
          "duration": 0.11111099999999752,
          "durationTicks": 96,
          "midi": 74,
          "name": "D5",
          "ticks": 18624,
          "time": 21.555534,
          "velocity": 0.3937007874015748
        },
        {
          "duration": 0.11111100000000107,
          "durationTicks": 96,
          "midi": 47,
          "name": "B2",
          "ticks": 18816,
          "time": 21.777756,
          "velocity": 0.3937007874015748
        },
        {
          "duration": 0.11111100000000107,
          "durationTicks": 96,
          "midi": 78,
          "name": "F#5",
          "ticks": 18816,
          "time": 21.777756,
          "velocity": 0.3937007874015748
        },
        {
          "duration": 0.11111100000000107,
          "durationTicks": 96,
          "midi": 71,
          "name": "B4",
          "ticks": 18816,
          "time": 21.777756,
          "velocity": 0.3937007874015748
        },
        {
          "duration": 0.11111100000000107,
          "durationTicks": 96,
          "midi": 83,
          "name": "B5",
          "ticks": 18816,
          "time": 21.777756,
          "velocity": 0.3937007874015748
        },
        {
          "duration": 0.11111100000000107,
          "durationTicks": 96,
          "midi": 59,
          "name": "B3",
          "ticks": 18816,
          "time": 21.777756,
          "velocity": 0.3937007874015748
        },
        {
          "duration": 0.11111100000000107,
          "durationTicks": 96,
          "midi": 74,
          "name": "D5",
          "ticks": 18816,
          "time": 21.777756,
          "velocity": 0.3937007874015748
        },
        {
          "duration": 0.11111099999999752,
          "durationTicks": 96,
          "midi": 57,
          "name": "A3",
          "ticks": 18912,
          "time": 21.888867,
          "velocity": 0.3937007874015748
        },
        {
          "duration": 0.11111099999999752,
          "durationTicks": 96,
          "midi": 45,
          "name": "A2",
          "ticks": 18912,
          "time": 21.888867,
          "velocity": 0.3937007874015748
        },
        {
          "duration": 0.11111100000000107,
          "durationTicks": 96,
          "midi": 59,
          "name": "B3",
          "ticks": 19104,
          "time": 22.111089,
          "velocity": 0.3937007874015748
        },
        {
          "duration": 0.11111100000000107,
          "durationTicks": 96,
          "midi": 47,
          "name": "B2",
          "ticks": 19104,
          "time": 22.111089,
          "velocity": 0.3937007874015748
        },
        {
          "duration": 0.11111099999999752,
          "durationTicks": 96,
          "midi": 50,
          "name": "D3",
          "ticks": 19296,
          "time": 22.333311000000002,
          "velocity": 0.3937007874015748
        },
        {
          "duration": 0.11111099999999752,
          "durationTicks": 96,
          "midi": 62,
          "name": "D4",
          "ticks": 19296,
          "time": 22.333311000000002,
          "velocity": 0.3937007874015748
        },
        {
          "duration": 0.11111100000000107,
          "durationTicks": 96,
          "midi": 74,
          "name": "D5",
          "ticks": 19392,
          "time": 22.444422,
          "velocity": 0.3937007874015748
        },
        {
          "duration": 0.11111100000000107,
          "durationTicks": 96,
          "midi": 78,
          "name": "F#5",
          "ticks": 19392,
          "time": 22.444422,
          "velocity": 0.3937007874015748
        },
        {
          "duration": 0.11111100000000107,
          "durationTicks": 96,
          "midi": 71,
          "name": "B4",
          "ticks": 19392,
          "time": 22.444422,
          "velocity": 0.3937007874015748
        },
        {
          "duration": 0.11111100000000107,
          "durationTicks": 96,
          "midi": 83,
          "name": "B5",
          "ticks": 19392,
          "time": 22.444422,
          "velocity": 0.3937007874015748
        },
        {
          "duration": 0.11111100000000107,
          "durationTicks": 96,
          "midi": 59,
          "name": "B3",
          "ticks": 19488,
          "time": 22.555533,
          "velocity": 0.3937007874015748
        },
        {
          "duration": 0.11111100000000107,
          "durationTicks": 96,
          "midi": 47,
          "name": "B2",
          "ticks": 19488,
          "time": 22.555533,
          "velocity": 0.3937007874015748
        },
        {
          "duration": 0.05555549999999698,
          "durationTicks": 48,
          "midi": 74,
          "name": "D5",
          "ticks": 19584,
          "time": 22.666644,
          "velocity": 0.3937007874015748
        },
        {
          "duration": 0.11111100000000107,
          "durationTicks": 96,
          "midi": 54,
          "name": "F#3",
          "ticks": 19680,
          "time": 22.777755,
          "velocity": 0.3937007874015748
        },
        {
          "duration": 0.11111100000000107,
          "durationTicks": 96,
          "midi": 42,
          "name": "F#2",
          "ticks": 19680,
          "time": 22.777755,
          "velocity": 0.3937007874015748
        },
        {
          "duration": 0.055555500000000535,
          "durationTicks": 48,
          "midi": 71,
          "name": "B4",
          "ticks": 19728,
          "time": 22.8333105,
          "velocity": 0.3937007874015748
        },
        {
          "duration": 0.11111100000000107,
          "durationTicks": 96,
          "midi": 45,
          "name": "A2",
          "ticks": 19776,
          "time": 22.888866,
          "velocity": 0.3937007874015748
        },
        {
          "duration": 0.11111100000000107,
          "durationTicks": 96,
          "midi": 57,
          "name": "A3",
          "ticks": 19776,
          "time": 22.888866,
          "velocity": 0.3937007874015748
        },
        {
          "duration": 0.055555500000000535,
          "durationTicks": 48,
          "midi": 71,
          "name": "B4",
          "ticks": 19872,
          "time": 22.999977,
          "velocity": 0.3937007874015748
        },
        {
          "duration": 0.11111100000000107,
          "durationTicks": 96,
          "midi": 71,
          "name": "B4",
          "ticks": 19968,
          "time": 23.111088,
          "velocity": 0.3937007874015748
        },
        {
          "duration": 0.11111100000000107,
          "durationTicks": 96,
          "midi": 47,
          "name": "B2",
          "ticks": 19968,
          "time": 23.111088,
          "velocity": 0.3937007874015748
        },
        {
          "duration": 0.11111100000000107,
          "durationTicks": 96,
          "midi": 59,
          "name": "B3",
          "ticks": 19968,
          "time": 23.111088,
          "velocity": 0.3937007874015748
        },
        {
          "duration": 0.11111100000000107,
          "durationTicks": 96,
          "midi": 47,
          "name": "B2",
          "ticks": 20160,
          "time": 23.33331,
          "velocity": 0.3937007874015748
        },
        {
          "duration": 0.11111100000000107,
          "durationTicks": 96,
          "midi": 59,
          "name": "B3",
          "ticks": 20160,
          "time": 23.33331,
          "velocity": 0.3937007874015748
        },
        {
          "duration": 0.11111099999999752,
          "durationTicks": 96,
          "midi": 71,
          "name": "B4",
          "ticks": 20256,
          "time": 23.444421000000002,
          "velocity": 0.3937007874015748
        },
        {
          "duration": 0.11111100000000107,
          "durationTicks": 96,
          "midi": 59,
          "name": "B3",
          "ticks": 20352,
          "time": 23.555532,
          "velocity": 0.3937007874015748
        },
        {
          "duration": 0.11111100000000107,
          "durationTicks": 96,
          "midi": 47,
          "name": "B2",
          "ticks": 20352,
          "time": 23.555532,
          "velocity": 0.3937007874015748
        },
        {
          "duration": 0.11111100000000107,
          "durationTicks": 96,
          "midi": 57,
          "name": "A3",
          "ticks": 20448,
          "time": 23.666643,
          "velocity": 0.3937007874015748
        },
        {
          "duration": 0.11111100000000107,
          "durationTicks": 96,
          "midi": 45,
          "name": "A2",
          "ticks": 20448,
          "time": 23.666643,
          "velocity": 0.3937007874015748
        },
        {
          "duration": 0.11111099999999752,
          "durationTicks": 96,
          "midi": 71,
          "name": "B4",
          "ticks": 20544,
          "time": 23.777754,
          "velocity": 0.3937007874015748
        },
        {
          "duration": 0.11111100000000107,
          "durationTicks": 96,
          "midi": 59,
          "name": "B3",
          "ticks": 20640,
          "time": 23.888865,
          "velocity": 0.3937007874015748
        },
        {
          "duration": 0.11111100000000107,
          "durationTicks": 96,
          "midi": 47,
          "name": "B2",
          "ticks": 20640,
          "time": 23.888865,
          "velocity": 0.3937007874015748
        },
        {
          "duration": 0.11111099999999752,
          "durationTicks": 96,
          "midi": 65,
          "name": "F4",
          "ticks": 20832,
          "time": 24.111087,
          "velocity": 0.3937007874015748
        },
        {
          "duration": 0.11111099999999752,
          "durationTicks": 96,
          "midi": 71,
          "name": "B4",
          "ticks": 20832,
          "time": 24.111087,
          "velocity": 0.3937007874015748
        },
        {
          "duration": 0.11111099999999752,
          "durationTicks": 96,
          "midi": 53,
          "name": "F3",
          "ticks": 20832,
          "time": 24.111087,
          "velocity": 0.3937007874015748
        },
        {
          "duration": 0.11111100000000107,
          "durationTicks": 96,
          "midi": 52,
          "name": "E3",
          "ticks": 21024,
          "time": 24.333309,
          "velocity": 0.3937007874015748
        },
        {
          "duration": 0.11111100000000107,
          "durationTicks": 96,
          "midi": 64,
          "name": "E4",
          "ticks": 21024,
          "time": 24.333309,
          "velocity": 0.3937007874015748
        },
        {
          "duration": 0.11111100000000107,
          "durationTicks": 96,
          "midi": 71,
          "name": "B4",
          "ticks": 21120,
          "time": 24.44442,
          "velocity": 0.3937007874015748
        },
        {
          "duration": 0.11111099999999752,
          "durationTicks": 96,
          "midi": 73,
          "name": "C#5",
          "ticks": 21216,
          "time": 24.555531000000002,
          "velocity": 0.3937007874015748
        },
        {
          "duration": 0.11111099999999752,
          "durationTicks": 96,
          "midi": 62,
          "name": "D4",
          "ticks": 21216,
          "time": 24.555531000000002,
          "velocity": 0.3937007874015748
        },
        {
          "duration": 0.11111099999999752,
          "durationTicks": 96,
          "midi": 50,
          "name": "D3",
          "ticks": 21216,
          "time": 24.555531000000002,
          "velocity": 0.3937007874015748
        },
        {
          "duration": 0.11111100000000107,
          "durationTicks": 96,
          "midi": 45,
          "name": "A2",
          "ticks": 21312,
          "time": 24.666642,
          "velocity": 0.3937007874015748
        },
        {
          "duration": 0.11111100000000107,
          "durationTicks": 96,
          "midi": 74,
          "name": "D5",
          "ticks": 21312,
          "time": 24.666642,
          "velocity": 0.3937007874015748
        },
        {
          "duration": 0.11111100000000107,
          "durationTicks": 96,
          "midi": 57,
          "name": "A3",
          "ticks": 21312,
          "time": 24.666642,
          "velocity": 0.3937007874015748
        },
        {
          "duration": 0.11111100000000107,
          "durationTicks": 96,
          "midi": 76,
          "name": "E5",
          "ticks": 21408,
          "time": 24.777753,
          "velocity": 0.3937007874015748
        },
        {
          "duration": 0.11111099999999752,
          "durationTicks": 96,
          "midi": 59,
          "name": "B3",
          "ticks": 21504,
          "time": 24.888864,
          "velocity": 0.3937007874015748
        },
        {
          "duration": 0.11111099999999752,
          "durationTicks": 96,
          "midi": 47,
          "name": "B2",
          "ticks": 21504,
          "time": 24.888864,
          "velocity": 0.3937007874015748
        },
        {
          "duration": 0.11111100000000107,
          "durationTicks": 96,
          "midi": 62,
          "name": "D4",
          "ticks": 21696,
          "time": 25.111086,
          "velocity": 0.3937007874015748
        },
        {
          "duration": 0.11111100000000107,
          "durationTicks": 96,
          "midi": 66,
          "name": "F#4",
          "ticks": 21696,
          "time": 25.111086,
          "velocity": 0.3937007874015748
        },
        {
          "duration": 0.11111100000000107,
          "durationTicks": 96,
          "midi": 47,
          "name": "B2",
          "ticks": 21696,
          "time": 25.111086,
          "velocity": 0.3937007874015748
        },
        {
          "duration": 0.11111100000000107,
          "durationTicks": 96,
          "midi": 59,
          "name": "B3",
          "ticks": 21696,
          "time": 25.111086,
          "velocity": 0.3937007874015748
        },
        {
          "duration": 0.11111100000000107,
          "durationTicks": 96,
          "midi": 71,
          "name": "B4",
          "ticks": 21696,
          "time": 25.111086,
          "velocity": 0.3937007874015748
        },
        {
          "duration": 0.11111100000000107,
          "durationTicks": 96,
          "midi": 47,
          "name": "B2",
          "ticks": 21888,
          "time": 25.333308,
          "velocity": 0.3937007874015748
        },
        {
          "duration": 0.11111100000000107,
          "durationTicks": 96,
          "midi": 59,
          "name": "B3",
          "ticks": 21888,
          "time": 25.333308,
          "velocity": 0.3937007874015748
        },
        {
          "duration": 0.11111100000000107,
          "durationTicks": 96,
          "midi": 45,
          "name": "A2",
          "ticks": 21984,
          "time": 25.444419,
          "velocity": 0.3937007874015748
        },
        {
          "duration": 0.11111100000000107,
          "durationTicks": 96,
          "midi": 57,
          "name": "A3",
          "ticks": 21984,
          "time": 25.444419,
          "velocity": 0.3937007874015748
        },
        {
          "duration": 0.11111099999999752,
          "durationTicks": 96,
          "midi": 47,
          "name": "B2",
          "ticks": 22176,
          "time": 25.666641000000002,
          "velocity": 0.3937007874015748
        },
        {
          "duration": 0.11111099999999752,
          "durationTicks": 96,
          "midi": 59,
          "name": "B3",
          "ticks": 22176,
          "time": 25.666641000000002,
          "velocity": 0.3937007874015748
        },
        {
          "duration": 0.11111100000000107,
          "durationTicks": 96,
          "midi": 78,
          "name": "F#5",
          "ticks": 22272,
          "time": 25.777752,
          "velocity": 0.3937007874015748
        },
        {
          "duration": 0.11111100000000107,
          "durationTicks": 96,
          "midi": 83,
          "name": "B5",
          "ticks": 22272,
          "time": 25.777752,
          "velocity": 0.3937007874015748
        },
        {
          "duration": 0.11111100000000107,
          "durationTicks": 96,
          "midi": 74,
          "name": "D5",
          "ticks": 22272,
          "time": 25.777752,
          "velocity": 0.3937007874015748
        },
        {
          "duration": 0.11111100000000107,
          "durationTicks": 96,
          "midi": 50,
          "name": "D3",
          "ticks": 22368,
          "time": 25.888863,
          "velocity": 0.3937007874015748
        },
        {
          "duration": 0.11111100000000107,
          "durationTicks": 96,
          "midi": 62,
          "name": "D4",
          "ticks": 22368,
          "time": 25.888863,
          "velocity": 0.3937007874015748
        },
        {
          "duration": 0.11111100000000107,
          "durationTicks": 96,
          "midi": 59,
          "name": "B3",
          "ticks": 22560,
          "time": 26.111085,
          "velocity": 0.3937007874015748
        },
        {
          "duration": 0.11111100000000107,
          "durationTicks": 96,
          "midi": 47,
          "name": "B2",
          "ticks": 22560,
          "time": 26.111085,
          "velocity": 0.3937007874015748
        },
        {
          "duration": 0.11111099999999752,
          "durationTicks": 96,
          "midi": 54,
          "name": "F#3",
          "ticks": 22752,
          "time": 26.333307,
          "velocity": 0.3937007874015748
        },
        {
          "duration": 0.11111099999999752,
          "durationTicks": 96,
          "midi": 42,
          "name": "F#2",
          "ticks": 22752,
          "time": 26.333307,
          "velocity": 0.3937007874015748
        },
        {
          "duration": 0.11111100000000107,
          "durationTicks": 96,
          "midi": 62,
          "name": "D4",
          "ticks": 22848,
          "time": 26.444418,
          "velocity": 0.3937007874015748
        },
        {
          "duration": 0.11111100000000107,
          "durationTicks": 96,
          "midi": 45,
          "name": "A2",
          "ticks": 22848,
          "time": 26.444418,
          "velocity": 0.3937007874015748
        },
        {
          "duration": 0.11111100000000107,
          "durationTicks": 96,
          "midi": 57,
          "name": "A3",
          "ticks": 22848,
          "time": 26.444418,
          "velocity": 0.3937007874015748
        },
        {
          "duration": 0.11111100000000107,
          "durationTicks": 96,
          "midi": 71,
          "name": "B4",
          "ticks": 22848,
          "time": 26.444418,
          "velocity": 0.3937007874015748
        },
        {
          "duration": 0.11111100000000107,
          "durationTicks": 96,
          "midi": 66,
          "name": "F#4",
          "ticks": 22848,
          "time": 26.444418,
          "velocity": 0.3937007874015748
        },
        {
          "duration": 0.11111100000000107,
          "durationTicks": 96,
          "midi": 59,
          "name": "B3",
          "ticks": 23040,
          "time": 26.66664,
          "velocity": 0.3937007874015748
        },
        {
          "duration": 0.11111100000000107,
          "durationTicks": 96,
          "midi": 47,
          "name": "B2",
          "ticks": 23040,
          "time": 26.66664,
          "velocity": 0.3937007874015748
        },
        {
          "duration": 0.11111100000000107,
          "durationTicks": 96,
          "midi": 71,
          "name": "B4",
          "ticks": 23040,
          "time": 26.66664,
          "velocity": 0.3937007874015748
        },
        {
          "duration": 0.11111100000000107,
          "durationTicks": 96,
          "midi": 83,
          "name": "B5",
          "ticks": 23040,
          "time": 26.66664,
          "velocity": 0.3937007874015748
        },
        {
          "duration": 0.11111100000000107,
          "durationTicks": 96,
          "midi": 47,
          "name": "B2",
          "ticks": 23232,
          "time": 26.888862,
          "velocity": 0.3937007874015748
        },
        {
          "duration": 0.11111100000000107,
          "durationTicks": 96,
          "midi": 71,
          "name": "B4",
          "ticks": 23232,
          "time": 26.888862,
          "velocity": 0.3937007874015748
        },
        {
          "duration": 0.11111100000000107,
          "durationTicks": 96,
          "midi": 83,
          "name": "B5",
          "ticks": 23232,
          "time": 26.888862,
          "velocity": 0.3937007874015748
        },
        {
          "duration": 0.11111100000000107,
          "durationTicks": 96,
          "midi": 59,
          "name": "B3",
          "ticks": 23232,
          "time": 26.888862,
          "velocity": 0.3937007874015748
        },
        {
          "duration": 0.11111099999999752,
          "durationTicks": 96,
          "midi": 83,
          "name": "B5",
          "ticks": 23424,
          "time": 27.111084,
          "velocity": 0.3937007874015748
        },
        {
          "duration": 0.11111099999999752,
          "durationTicks": 96,
          "midi": 59,
          "name": "B3",
          "ticks": 23424,
          "time": 27.111084,
          "velocity": 0.3937007874015748
        },
        {
          "duration": 0.11111099999999752,
          "durationTicks": 96,
          "midi": 47,
          "name": "B2",
          "ticks": 23424,
          "time": 27.111084,
          "velocity": 0.3937007874015748
        },
        {
          "duration": 0.11111099999999752,
          "durationTicks": 96,
          "midi": 71,
          "name": "B4",
          "ticks": 23424,
          "time": 27.111084,
          "velocity": 0.3937007874015748
        },
        {
          "duration": 0.11111100000000107,
          "durationTicks": 96,
          "midi": 57,
          "name": "A3",
          "ticks": 23616,
          "time": 27.333306,
          "velocity": 0.3937007874015748
        },
        {
          "duration": 0.11111100000000107,
          "durationTicks": 96,
          "midi": 69,
          "name": "A4",
          "ticks": 23616,
          "time": 27.333306,
          "velocity": 0.3937007874015748
        },
        {
          "duration": 0.11111100000000107,
          "durationTicks": 96,
          "midi": 45,
          "name": "A2",
          "ticks": 23616,
          "time": 27.333306,
          "velocity": 0.3937007874015748
        },
        {
          "duration": 0.11111100000000107,
          "durationTicks": 96,
          "midi": 81,
          "name": "A5",
          "ticks": 23616,
          "time": 27.333306,
          "velocity": 0.3937007874015748
        },
        {
          "duration": 0.11111099999999752,
          "durationTicks": 96,
          "midi": 59,
          "name": "B3",
          "ticks": 23712,
          "time": 27.444417,
          "velocity": 0.3937007874015748
        },
        {
          "duration": 0.11111099999999752,
          "durationTicks": 96,
          "midi": 47,
          "name": "B2",
          "ticks": 23712,
          "time": 27.444417,
          "velocity": 0.3937007874015748
        },
        {
          "duration": 0.11111099999999752,
          "durationTicks": 96,
          "midi": 83,
          "name": "B5",
          "ticks": 23712,
          "time": 27.444417,
          "velocity": 0.3937007874015748
        },
        {
          "duration": 0.11111099999999752,
          "durationTicks": 96,
          "midi": 71,
          "name": "B4",
          "ticks": 23712,
          "time": 27.444417,
          "velocity": 0.3937007874015748
        },
        {
          "duration": 0.11111100000000107,
          "durationTicks": 96,
          "midi": 47,
          "name": "B2",
          "ticks": 24192,
          "time": 27.999972,
          "velocity": 0.3937007874015748
        },
        {
          "duration": 0.11111100000000107,
          "durationTicks": 96,
          "midi": 59,
          "name": "B3",
          "ticks": 24192,
          "time": 27.999972,
          "velocity": 0.3937007874015748
        },
        {
          "duration": 0.11111100000000107,
          "durationTicks": 96,
          "midi": 61,
          "name": "C#4",
          "ticks": 24288,
          "time": 28.111083,
          "velocity": 0.3937007874015748
        },
        {
          "duration": 0.11111099999999752,
          "durationTicks": 96,
          "midi": 62,
          "name": "D4",
          "ticks": 24384,
          "time": 28.222194000000002,
          "velocity": 0.3937007874015748
        },
        {
          "duration": 0.11111100000000107,
          "durationTicks": 96,
          "midi": 64,
          "name": "E4",
          "ticks": 24480,
          "time": 28.333305,
          "velocity": 0.3937007874015748
        },
        {
          "duration": 0.11111100000000107,
          "durationTicks": 96,
          "midi": 59,
          "name": "B3",
          "ticks": 24576,
          "time": 28.444416,
          "velocity": 0.3937007874015748
        },
        {
          "duration": 0.11111100000000107,
          "durationTicks": 96,
          "midi": 66,
          "name": "F#4",
          "ticks": 24576,
          "time": 28.444416,
          "velocity": 0.3937007874015748
        },
        {
          "duration": 0.11111100000000107,
          "durationTicks": 96,
          "midi": 35,
          "name": "B1",
          "ticks": 24576,
          "time": 28.444416,
          "velocity": 0.3937007874015748
        },
        {
          "duration": 0.11111100000000107,
          "durationTicks": 96,
          "midi": 38,
          "name": "D2",
          "ticks": 24768,
          "time": 28.666638,
          "velocity": 0.3937007874015748
        },
        {
          "duration": 0.11111099999999752,
          "durationTicks": 96,
          "midi": 40,
          "name": "E2",
          "ticks": 24960,
          "time": 28.88886,
          "velocity": 0.3937007874015748
        },
        {
          "duration": 0.11111100000000107,
          "durationTicks": 96,
          "midi": 41,
          "name": "F2",
          "ticks": 25056,
          "time": 28.999971,
          "velocity": 0.3937007874015748
        },
        {
          "duration": 0.11111100000000107,
          "durationTicks": 96,
          "midi": 42,
          "name": "F#2",
          "ticks": 25248,
          "time": 29.222193,
          "velocity": 0.3937007874015748
        },
        {
          "duration": 0.11111100000000107,
          "durationTicks": 96,
          "midi": 45,
          "name": "A2",
          "ticks": 25440,
          "time": 29.444415,
          "velocity": 0.3937007874015748
        },
        {
          "duration": 0.11111100000000107,
          "durationTicks": 96,
          "midi": 59,
          "name": "B3",
          "ticks": 25536,
          "time": 29.555526,
          "velocity": 0.3937007874015748
        },
        {
          "duration": 0.11111099999999752,
          "durationTicks": 96,
          "midi": 42,
          "name": "F#2",
          "ticks": 25632,
          "time": 29.666637,
          "velocity": 0.3937007874015748
        },
        {
          "duration": 0.11111100000000107,
          "durationTicks": 96,
          "midi": 45,
          "name": "A2",
          "ticks": 25728,
          "time": 29.777748,
          "velocity": 0.3937007874015748
        },
        {
          "duration": 0.11111100000000107,
          "durationTicks": 96,
          "midi": 62,
          "name": "D4",
          "ticks": 25728,
          "time": 29.777748,
          "velocity": 0.3937007874015748
        },
        {
          "duration": 0.11111099999999752,
          "durationTicks": 96,
          "midi": 46,
          "name": "A#2",
          "ticks": 25920,
          "time": 29.99997,
          "velocity": 0.3937007874015748
        },
        {
          "duration": 0.11111099999999752,
          "durationTicks": 96,
          "midi": 69,
          "name": "A4",
          "ticks": 25920,
          "time": 29.99997,
          "velocity": 0.3937007874015748
        },
        {
          "duration": 0.11111100000000107,
          "durationTicks": 96,
          "midi": 47,
          "name": "B2",
          "ticks": 26112,
          "time": 30.222192,
          "velocity": 0.3937007874015748
        },
        {
          "duration": 0.11111100000000107,
          "durationTicks": 96,
          "midi": 62,
          "name": "D4",
          "ticks": 26112,
          "time": 30.222192,
          "velocity": 0.3937007874015748
        },
        {
          "duration": 0.11111100000000107,
          "durationTicks": 96,
          "midi": 68,
          "name": "G#4",
          "ticks": 26112,
          "time": 30.222192,
          "velocity": 0.3937007874015748
        },
        {
          "duration": 0.11111100000000107,
          "durationTicks": 96,
          "midi": 59,
          "name": "B3",
          "ticks": 26112,
          "time": 30.222192,
          "velocity": 0.3937007874015748
        },
        {
          "duration": 0.11111099999999752,
          "durationTicks": 96,
          "midi": 46,
          "name": "A#2",
          "ticks": 26304,
          "time": 30.444414000000002,
          "velocity": 0.3937007874015748
        },
        {
          "duration": 0.11111100000000107,
          "durationTicks": 96,
          "midi": 45,
          "name": "A2",
          "ticks": 26496,
          "time": 30.666636,
          "velocity": 0.3937007874015748
        },
        {
          "duration": 0.11111099999999752,
          "durationTicks": 96,
          "midi": 42,
          "name": "F#2",
          "ticks": 26592,
          "time": 30.777747,
          "velocity": 0.3937007874015748
        },
        {
          "duration": 0.11111100000000107,
          "durationTicks": 96,
          "midi": 40,
          "name": "E2",
          "ticks": 26784,
          "time": 30.999969,
          "velocity": 0.3937007874015748
        },
        {
          "duration": 0.11111100000000107,
          "durationTicks": 96,
          "midi": 33,
          "name": "A1",
          "ticks": 26976,
          "time": 31.222191,
          "velocity": 0.3937007874015748
        },
        {
          "duration": 0.11111100000000107,
          "durationTicks": 96,
          "midi": 66,
          "name": "F#4",
          "ticks": 27072,
          "time": 31.333302,
          "velocity": 0.3937007874015748
        },
        {
          "duration": 0.11111100000000107,
          "durationTicks": 96,
          "midi": 33,
          "name": "A1",
          "ticks": 27168,
          "time": 31.444413,
          "velocity": 0.3937007874015748
        },
        {
          "duration": 0.11111099999999752,
          "durationTicks": 96,
          "midi": 33,
          "name": "A1",
          "ticks": 27264,
          "time": 31.555524000000002,
          "velocity": 0.3937007874015748
        },
        {
          "duration": 0.11111100000000107,
          "durationTicks": 96,
          "midi": 34,
          "name": "A#1",
          "ticks": 27360,
          "time": 31.666635,
          "velocity": 0.3937007874015748
        },
        {
          "duration": 0.11111100000000107,
          "durationTicks": 96,
          "midi": 64,
          "name": "E4",
          "ticks": 27456,
          "time": 31.777746,
          "velocity": 0.3937007874015748
        },
        {
          "duration": 0.11111100000000107,
          "durationTicks": 96,
          "midi": 35,
          "name": "B1",
          "ticks": 27456,
          "time": 31.777746,
          "velocity": 0.3937007874015748
        },
        {
          "duration": 0.11111100000000462,
          "durationTicks": 96,
          "midi": 59,
          "name": "B3",
          "ticks": 27648,
          "time": 31.999968,
          "velocity": 0.3937007874015748
        },
        {
          "duration": 0.11111100000000462,
          "durationTicks": 96,
          "midi": 66,
          "name": "F#4",
          "ticks": 27648,
          "time": 31.999968,
          "velocity": 0.3937007874015748
        },
        {
          "duration": 0.11111100000000462,
          "durationTicks": 96,
          "midi": 62,
          "name": "D4",
          "ticks": 27648,
          "time": 31.999968,
          "velocity": 0.3937007874015748
        },
        {
          "duration": 0.11111100000000462,
          "durationTicks": 96,
          "midi": 35,
          "name": "B1",
          "ticks": 27648,
          "time": 31.999968,
          "velocity": 0.3937007874015748
        },
        {
          "duration": 0.11111100000000462,
          "durationTicks": 96,
          "midi": 54,
          "name": "F#3",
          "ticks": 27648,
          "time": 31.999968,
          "velocity": 0.3937007874015748
        },
        {
          "duration": 0.11111100000000107,
          "durationTicks": 96,
          "midi": 38,
          "name": "D2",
          "ticks": 27840,
          "time": 32.22219,
          "velocity": 0.3937007874015748
        },
        {
          "duration": 0.11111100000000107,
          "durationTicks": 96,
          "midi": 40,
          "name": "E2",
          "ticks": 28032,
          "time": 32.444412,
          "velocity": 0.3937007874015748
        },
        {
          "duration": 0.11111100000000107,
          "durationTicks": 96,
          "midi": 41,
          "name": "F2",
          "ticks": 28128,
          "time": 32.555523,
          "velocity": 0.3937007874015748
        },
        {
          "duration": 0.11111099999999396,
          "durationTicks": 96,
          "midi": 42,
          "name": "F#2",
          "ticks": 28320,
          "time": 32.777745,
          "velocity": 0.3937007874015748
        },
        {
          "duration": 0.11111100000000107,
          "durationTicks": 96,
          "midi": 45,
          "name": "A2",
          "ticks": 28512,
          "time": 32.999967,
          "velocity": 0.3937007874015748
        },
        {
          "duration": 0.11111100000000107,
          "durationTicks": 96,
          "midi": 42,
          "name": "F#2",
          "ticks": 28704,
          "time": 33.222189,
          "velocity": 0.3937007874015748
        },
        {
          "duration": 0.11111100000000107,
          "durationTicks": 96,
          "midi": 45,
          "name": "A2",
          "ticks": 28800,
          "time": 33.3333,
          "velocity": 0.3937007874015748
        },
        {
          "duration": 0.11111099999999396,
          "durationTicks": 96,
          "midi": 46,
          "name": "A#2",
          "ticks": 28992,
          "time": 33.555522,
          "velocity": 0.3937007874015748
        },
        {
          "duration": 0.11111100000000107,
          "durationTicks": 96,
          "midi": 47,
          "name": "B2",
          "ticks": 29184,
          "time": 33.777744,
          "velocity": 0.3937007874015748
        },
        {
          "duration": 0.11111100000000107,
          "durationTicks": 96,
          "midi": 59,
          "name": "B3",
          "ticks": 29184,
          "time": 33.777744,
          "velocity": 0.3937007874015748
        },
        {
          "duration": 0.11111100000000107,
          "durationTicks": 96,
          "midi": 46,
          "name": "A#2",
          "ticks": 29376,
          "time": 33.999966,
          "velocity": 0.3937007874015748
        },
        {
          "duration": 0.11111100000000107,
          "durationTicks": 96,
          "midi": 59,
          "name": "B3",
          "ticks": 29472,
          "time": 34.111077,
          "velocity": 0.3937007874015748
        },
        {
          "duration": 0.11111100000000107,
          "durationTicks": 96,
          "midi": 45,
          "name": "A2",
          "ticks": 29568,
          "time": 34.222188,
          "velocity": 0.3937007874015748
        },
        {
          "duration": 0.11111099999999396,
          "durationTicks": 96,
          "midi": 42,
          "name": "F#2",
          "ticks": 29664,
          "time": 34.333299000000004,
          "velocity": 0.3937007874015748
        },
        {
          "duration": 0.11111100000000107,
          "durationTicks": 96,
          "midi": 59,
          "name": "B3",
          "ticks": 29760,
          "time": 34.44441,
          "velocity": 0.3937007874015748
        },
        {
          "duration": 0.11111100000000107,
          "durationTicks": 96,
          "midi": 40,
          "name": "E2",
          "ticks": 29856,
          "time": 34.555521,
          "velocity": 0.3937007874015748
        },
        {
          "duration": 0.11111100000000107,
          "durationTicks": 96,
          "midi": 59,
          "name": "B3",
          "ticks": 30048,
          "time": 34.777743,
          "velocity": 0.3937007874015748
        },
        {
          "duration": 0.11111100000000107,
          "durationTicks": 96,
          "midi": 33,
          "name": "A1",
          "ticks": 30048,
          "time": 34.777743,
          "velocity": 0.3937007874015748
        },
        {
          "duration": 0.11111099999999396,
          "durationTicks": 96,
          "midi": 33,
          "name": "A1",
          "ticks": 30240,
          "time": 34.999965,
          "velocity": 0.3937007874015748
        },
        {
          "duration": 0.11111100000000107,
          "durationTicks": 96,
          "midi": 33,
          "name": "A1",
          "ticks": 30336,
          "time": 35.111076,
          "velocity": 0.3937007874015748
        },
        {
          "duration": 0.11111100000000107,
          "durationTicks": 96,
          "midi": 59,
          "name": "B3",
          "ticks": 30336,
          "time": 35.111076,
          "velocity": 0.3937007874015748
        },
        {
          "duration": 0.11111100000000107,
          "durationTicks": 96,
          "midi": 61,
          "name": "C#4",
          "ticks": 30432,
          "time": 35.222187,
          "velocity": 0.3937007874015748
        },
        {
          "duration": 0.11111100000000107,
          "durationTicks": 96,
          "midi": 34,
          "name": "A#1",
          "ticks": 30432,
          "time": 35.222187,
          "velocity": 0.3937007874015748
        },
        {
          "duration": 0.11111100000000107,
          "durationTicks": 96,
          "midi": 62,
          "name": "D4",
          "ticks": 30528,
          "time": 35.333298,
          "velocity": 0.3937007874015748
        },
        {
          "duration": 0.11111100000000107,
          "durationTicks": 96,
          "midi": 35,
          "name": "B1",
          "ticks": 30528,
          "time": 35.333298,
          "velocity": 0.3937007874015748
        },
        {
          "duration": 0.11111100000000107,
          "durationTicks": 96,
          "midi": 64,
          "name": "E4",
          "ticks": 30624,
          "time": 35.444409,
          "velocity": 0.3937007874015748
        },
        {
          "duration": 0.11111100000000107,
          "durationTicks": 96,
          "midi": 59,
          "name": "B3",
          "ticks": 30720,
          "time": 35.55552,
          "velocity": 0.3937007874015748
        },
        {
          "duration": 0.11111100000000107,
          "durationTicks": 96,
          "midi": 66,
          "name": "F#4",
          "ticks": 30720,
          "time": 35.55552,
          "velocity": 0.3937007874015748
        },
        {
          "duration": 0.11111100000000107,
          "durationTicks": 96,
          "midi": 35,
          "name": "B1",
          "ticks": 30720,
          "time": 35.55552,
          "velocity": 0.3937007874015748
        },
        {
          "duration": 0.11111099999999396,
          "durationTicks": 96,
          "midi": 38,
          "name": "D2",
          "ticks": 30912,
          "time": 35.777742,
          "velocity": 0.3937007874015748
        },
        {
          "duration": 0.11111100000000107,
          "durationTicks": 96,
          "midi": 40,
          "name": "E2",
          "ticks": 31104,
          "time": 35.999964,
          "velocity": 0.3937007874015748
        },
        {
          "duration": 0.11111100000000107,
          "durationTicks": 96,
          "midi": 41,
          "name": "F2",
          "ticks": 31200,
          "time": 36.111075,
          "velocity": 0.3937007874015748
        },
        {
          "duration": 0.11111100000000107,
          "durationTicks": 96,
          "midi": 42,
          "name": "F#2",
          "ticks": 31392,
          "time": 36.333297,
          "velocity": 0.3937007874015748
        },
        {
          "duration": 0.11111099999999396,
          "durationTicks": 96,
          "midi": 45,
          "name": "A2",
          "ticks": 31584,
          "time": 36.555519000000004,
          "velocity": 0.3937007874015748
        },
        {
          "duration": 0.11111100000000107,
          "durationTicks": 96,
          "midi": 59,
          "name": "B3",
          "ticks": 31680,
          "time": 36.66663,
          "velocity": 0.3937007874015748
        },
        {
          "duration": 0.11111100000000107,
          "durationTicks": 96,
          "midi": 42,
          "name": "F#2",
          "ticks": 31776,
          "time": 36.777741,
          "velocity": 0.3937007874015748
        },
        {
          "duration": 0.11111100000000107,
          "durationTicks": 96,
          "midi": 62,
          "name": "D4",
          "ticks": 31872,
          "time": 36.888852,
          "velocity": 0.3937007874015748
        },
        {
          "duration": 0.11111100000000107,
          "durationTicks": 96,
          "midi": 45,
          "name": "A2",
          "ticks": 31872,
          "time": 36.888852,
          "velocity": 0.3937007874015748
        },
        {
          "duration": 0.11111100000000107,
          "durationTicks": 96,
          "midi": 69,
          "name": "A4",
          "ticks": 32064,
          "time": 37.111074,
          "velocity": 0.3937007874015748
        },
        {
          "duration": 0.11111100000000107,
          "durationTicks": 96,
          "midi": 46,
          "name": "A#2",
          "ticks": 32064,
          "time": 37.111074,
          "velocity": 0.3937007874015748
        },
        {
          "duration": 0.11111100000000107,
          "durationTicks": 96,
          "midi": 64,
          "name": "E4",
          "ticks": 32256,
          "time": 37.333296,
          "velocity": 0.3937007874015748
        },
        {
          "duration": 0.11111100000000107,
          "durationTicks": 96,
          "midi": 47,
          "name": "B2",
          "ticks": 32256,
          "time": 37.333296,
          "velocity": 0.3937007874015748
        },
        {
          "duration": 0.11111100000000107,
          "durationTicks": 96,
          "midi": 68,
          "name": "G#4",
          "ticks": 32256,
          "time": 37.333296,
          "velocity": 0.3937007874015748
        },
        {
          "duration": 0.11111100000000107,
          "durationTicks": 96,
          "midi": 46,
          "name": "A#2",
          "ticks": 32448,
          "time": 37.555518,
          "velocity": 0.3937007874015748
        },
        {
          "duration": 0.11111100000000107,
          "durationTicks": 96,
          "midi": 45,
          "name": "A2",
          "ticks": 32640,
          "time": 37.77774,
          "velocity": 0.3937007874015748
        },
        {
          "duration": 0.11111100000000107,
          "durationTicks": 96,
          "midi": 42,
          "name": "F#2",
          "ticks": 32736,
          "time": 37.888851,
          "velocity": 0.3937007874015748
        },
        {
          "duration": 0.11111099999999396,
          "durationTicks": 96,
          "midi": 66,
          "name": "F#4",
          "ticks": 32832,
          "time": 37.999962000000004,
          "velocity": 0.3937007874015748
        },
        {
          "duration": 0.11111099999999396,
          "durationTicks": 96,
          "midi": 69,
          "name": "A4",
          "ticks": 32832,
          "time": 37.999962000000004,
          "velocity": 0.3937007874015748
        },
        {
          "duration": 0.11111100000000107,
          "durationTicks": 96,
          "midi": 40,
          "name": "E2",
          "ticks": 32928,
          "time": 38.111073,
          "velocity": 0.3937007874015748
        },
        {
          "duration": 0.11111100000000107,
          "durationTicks": 96,
          "midi": 33,
          "name": "A1",
          "ticks": 33120,
          "time": 38.333295,
          "velocity": 0.3937007874015748
        },
        {
          "duration": 0.11111100000000107,
          "durationTicks": 96,
          "midi": 33,
          "name": "A1",
          "ticks": 33312,
          "time": 38.555517,
          "velocity": 0.3937007874015748
        },
        {
          "duration": 0.11111100000000107,
          "durationTicks": 96,
          "midi": 71,
          "name": "B4",
          "ticks": 33408,
          "time": 38.666628,
          "velocity": 0.3937007874015748
        },
        {
          "duration": 0.11111100000000107,
          "durationTicks": 96,
          "midi": 33,
          "name": "A1",
          "ticks": 33408,
          "time": 38.666628,
          "velocity": 0.3937007874015748
        },
        {
          "duration": 0.11111100000000107,
          "durationTicks": 96,
          "midi": 68,
          "name": "G#4",
          "ticks": 33408,
          "time": 38.666628,
          "velocity": 0.3937007874015748
        },
        {
          "duration": 0.11111099999999396,
          "durationTicks": 96,
          "midi": 34,
          "name": "A#1",
          "ticks": 33504,
          "time": 38.777739000000004,
          "velocity": 0.3937007874015748
        },
        {
          "duration": 0.11111100000000107,
          "durationTicks": 96,
          "midi": 35,
          "name": "B1",
          "ticks": 33600,
          "time": 38.88885,
          "velocity": 0.3937007874015748
        },
        {
          "duration": 0.11111100000000107,
          "durationTicks": 96,
          "midi": 59,
          "name": "B3",
          "ticks": 33792,
          "time": 39.111072,
          "velocity": 0.3937007874015748
        },
        {
          "duration": 0.11111100000000107,
          "durationTicks": 96,
          "midi": 35,
          "name": "B1",
          "ticks": 33792,
          "time": 39.111072,
          "velocity": 0.3937007874015748
        },
        {
          "duration": 0.11111100000000107,
          "durationTicks": 96,
          "midi": 68,
          "name": "G#4",
          "ticks": 33792,
          "time": 39.111072,
          "velocity": 0.3937007874015748
        },
        {
          "duration": 0.11111100000000107,
          "durationTicks": 96,
          "midi": 38,
          "name": "D2",
          "ticks": 33984,
          "time": 39.333294,
          "velocity": 0.3937007874015748
        },
        {
          "duration": 0.11111099999999396,
          "durationTicks": 96,
          "midi": 66,
          "name": "F#4",
          "ticks": 34080,
          "time": 39.444405,
          "velocity": 0.3937007874015748
        },
        {
          "duration": 0.11111099999999396,
          "durationTicks": 96,
          "midi": 62,
          "name": "D4",
          "ticks": 34080,
          "time": 39.444405,
          "velocity": 0.3937007874015748
        },
        {
          "duration": 0.11111100000000107,
          "durationTicks": 96,
          "midi": 40,
          "name": "E2",
          "ticks": 34176,
          "time": 39.555516,
          "velocity": 0.3937007874015748
        },
        {
          "duration": 0.11111100000000107,
          "durationTicks": 96,
          "midi": 41,
          "name": "F2",
          "ticks": 34272,
          "time": 39.666627,
          "velocity": 0.3937007874015748
        },
        {
          "duration": 0.11111100000000107,
          "durationTicks": 96,
          "midi": 42,
          "name": "F#2",
          "ticks": 34464,
          "time": 39.888849,
          "velocity": 0.3937007874015748
        },
        {
          "duration": 0.11111100000000107,
          "durationTicks": 96,
          "midi": 45,
          "name": "A2",
          "ticks": 34656,
          "time": 40.111071,
          "velocity": 0.3937007874015748
        },
        {
          "duration": 0.11111100000000107,
          "durationTicks": 96,
          "midi": 42,
          "name": "F#2",
          "ticks": 34848,
          "time": 40.333293,
          "velocity": 0.3937007874015748
        },
        {
          "duration": 0.11111100000000107,
          "durationTicks": 96,
          "midi": 45,
          "name": "A2",
          "ticks": 34944,
          "time": 40.444404,
          "velocity": 0.3937007874015748
        },
        {
          "duration": 0.11111100000000107,
          "durationTicks": 96,
          "midi": 46,
          "name": "A#2",
          "ticks": 35136,
          "time": 40.666626,
          "velocity": 0.3937007874015748
        },
        {
          "duration": 0.11111100000000107,
          "durationTicks": 96,
          "midi": 47,
          "name": "B2",
          "ticks": 35328,
          "time": 40.888848,
          "velocity": 0.3937007874015748
        },
        {
          "duration": 0.11111100000000107,
          "durationTicks": 96,
          "midi": 46,
          "name": "A#2",
          "ticks": 35520,
          "time": 41.11107,
          "velocity": 0.3937007874015748
        },
        {
          "duration": 0.11111100000000107,
          "durationTicks": 96,
          "midi": 45,
          "name": "A2",
          "ticks": 35712,
          "time": 41.333292,
          "velocity": 0.3937007874015748
        },
        {
          "duration": 0.11111100000000107,
          "durationTicks": 96,
          "midi": 42,
          "name": "F#2",
          "ticks": 35808,
          "time": 41.444403,
          "velocity": 0.3937007874015748
        },
        {
          "duration": 0.11111099999999396,
          "durationTicks": 96,
          "midi": 40,
          "name": "E2",
          "ticks": 36000,
          "time": 41.666625,
          "velocity": 0.3937007874015748
        },
        {
          "duration": 0.11111100000000107,
          "durationTicks": 96,
          "midi": 33,
          "name": "A1",
          "ticks": 36192,
          "time": 41.888847,
          "velocity": 0.3937007874015748
        },
        {
          "duration": 0.11111100000000107,
          "durationTicks": 96,
          "midi": 33,
          "name": "A1",
          "ticks": 36384,
          "time": 42.111069,
          "velocity": 0.3937007874015748
        },
        {
          "duration": 0.11111100000000107,
          "durationTicks": 96,
          "midi": 33,
          "name": "A1",
          "ticks": 36480,
          "time": 42.22218,
          "velocity": 0.3937007874015748
        },
        {
          "duration": 0.11111100000000107,
          "durationTicks": 96,
          "midi": 59,
          "name": "B3",
          "ticks": 36480,
          "time": 42.22218,
          "velocity": 0.3937007874015748
        },
        {
          "duration": 0.11111100000000107,
          "durationTicks": 96,
          "midi": 61,
          "name": "C#4",
          "ticks": 36576,
          "time": 42.333291,
          "velocity": 0.3937007874015748
        },
        {
          "duration": 0.11111100000000107,
          "durationTicks": 96,
          "midi": 34,
          "name": "A#1",
          "ticks": 36576,
          "time": 42.333291,
          "velocity": 0.3937007874015748
        },
        {
          "duration": 0.11111099999999396,
          "durationTicks": 96,
          "midi": 35,
          "name": "B1",
          "ticks": 36672,
          "time": 42.444402000000004,
          "velocity": 0.3937007874015748
        },
        {
          "duration": 0.11111099999999396,
          "durationTicks": 96,
          "midi": 62,
          "name": "D4",
          "ticks": 36672,
          "time": 42.444402000000004,
          "velocity": 0.3937007874015748
        },
        {
          "duration": 0.11111100000000107,
          "durationTicks": 96,
          "midi": 64,
          "name": "E4",
          "ticks": 36768,
          "time": 42.555513,
          "velocity": 0.3937007874015748
        },
        {
          "duration": 0.11111100000000107,
          "durationTicks": 96,
          "midi": 35,
          "name": "B1",
          "ticks": 36864,
          "time": 42.666624,
          "velocity": 0.3937007874015748
        },
        {
          "duration": 0.11111100000000107,
          "durationTicks": 96,
          "midi": 78,
          "name": "F#5",
          "ticks": 36864,
          "time": 42.666624,
          "velocity": 0.3937007874015748
        },
        {
          "duration": 0.11111100000000107,
          "durationTicks": 96,
          "midi": 66,
          "name": "F#4",
          "ticks": 36864,
          "time": 42.666624,
          "velocity": 0.3937007874015748
        },
        {
          "duration": 0.11111100000000107,
          "durationTicks": 96,
          "midi": 74,
          "name": "D5",
          "ticks": 36864,
          "time": 42.666624,
          "velocity": 0.3937007874015748
        },
        {
          "duration": 0.11111100000000107,
          "durationTicks": 96,
          "midi": 35,
          "name": "B1",
          "ticks": 36864,
          "time": 42.666624,
          "velocity": 0.3937007874015748
        },
        {
          "duration": 0.11111100000000107,
          "durationTicks": 96,
          "midi": 38,
          "name": "D2",
          "ticks": 37056,
          "time": 42.888846,
          "velocity": 0.3937007874015748
        },
        {
          "duration": 0.11111099999999396,
          "durationTicks": 96,
          "midi": 40,
          "name": "E2",
          "ticks": 37248,
          "time": 43.111068,
          "velocity": 0.3937007874015748
        },
        {
          "duration": 0.11111100000000107,
          "durationTicks": 96,
          "midi": 41,
          "name": "F2",
          "ticks": 37344,
          "time": 43.222179,
          "velocity": 0.3937007874015748
        },
        {
          "duration": 0.11111100000000107,
          "durationTicks": 96,
          "midi": 42,
          "name": "F#2",
          "ticks": 37536,
          "time": 43.444401,
          "velocity": 0.3937007874015748
        },
        {
          "duration": 0.11111100000000107,
          "durationTicks": 96,
          "midi": 45,
          "name": "A2",
          "ticks": 37728,
          "time": 43.666623,
          "velocity": 0.3937007874015748
        },
        {
          "duration": 0.11111100000000107,
          "durationTicks": 96,
          "midi": 59,
          "name": "B3",
          "ticks": 37824,
          "time": 43.777734,
          "velocity": 0.3937007874015748
        },
        {
          "duration": 0.11111100000000107,
          "durationTicks": 96,
          "midi": 71,
          "name": "B4",
          "ticks": 37824,
          "time": 43.777734,
          "velocity": 0.3937007874015748
        },
        {
          "duration": 0.11111100000000107,
          "durationTicks": 96,
          "midi": 66,
          "name": "F#4",
          "ticks": 37824,
          "time": 43.777734,
          "velocity": 0.3937007874015748
        },
        {
          "duration": 0.11111099999999396,
          "durationTicks": 96,
          "midi": 42,
          "name": "F#2",
          "ticks": 37920,
          "time": 43.888845,
          "velocity": 0.3937007874015748
        },
        {
          "duration": 0.11111100000000107,
          "durationTicks": 96,
          "midi": 62,
          "name": "D4",
          "ticks": 38016,
          "time": 43.999956,
          "velocity": 0.3937007874015748
        },
        {
          "duration": 0.11111100000000107,
          "durationTicks": 96,
          "midi": 74,
          "name": "D5",
          "ticks": 38016,
          "time": 43.999956,
          "velocity": 0.3937007874015748
        },
        {
          "duration": 0.11111100000000107,
          "durationTicks": 96,
          "midi": 71,
          "name": "B4",
          "ticks": 38016,
          "time": 43.999956,
          "velocity": 0.3937007874015748
        },
        {
          "duration": 0.11111100000000107,
          "durationTicks": 96,
          "midi": 45,
          "name": "A2",
          "ticks": 38016,
          "time": 43.999956,
          "velocity": 0.3937007874015748
        },
        {
          "duration": 0.11111100000000107,
          "durationTicks": 96,
          "midi": 74,
          "name": "D5",
          "ticks": 38208,
          "time": 44.222178,
          "velocity": 0.3937007874015748
        },
        {
          "duration": 0.11111100000000107,
          "durationTicks": 96,
          "midi": 46,
          "name": "A#2",
          "ticks": 38208,
          "time": 44.222178,
          "velocity": 0.3937007874015748
        },
        {
          "duration": 0.11111100000000107,
          "durationTicks": 96,
          "midi": 81,
          "name": "A5",
          "ticks": 38208,
          "time": 44.222178,
          "velocity": 0.3937007874015748
        },
        {
          "duration": 0.11111100000000107,
          "durationTicks": 96,
          "midi": 69,
          "name": "A4",
          "ticks": 38208,
          "time": 44.222178,
          "velocity": 0.3937007874015748
        },
        {
          "duration": 0.11111100000000107,
          "durationTicks": 96,
          "midi": 47,
          "name": "B2",
          "ticks": 38400,
          "time": 44.4444,
          "velocity": 0.3937007874015748
        },
        {
          "duration": 0.11111100000000107,
          "durationTicks": 96,
          "midi": 47,
          "name": "B2",
          "ticks": 38400,
          "time": 44.4444,
          "velocity": 0.3937007874015748
        },
        {
          "duration": 0.11111100000000107,
          "durationTicks": 96,
          "midi": 68,
          "name": "G#4",
          "ticks": 38400,
          "time": 44.4444,
          "velocity": 0.3937007874015748
        },
        {
          "duration": 0.11111100000000107,
          "durationTicks": 96,
          "midi": 71,
          "name": "B4",
          "ticks": 38400,
          "time": 44.4444,
          "velocity": 0.3937007874015748
        },
        {
          "duration": 0.11111100000000107,
          "durationTicks": 96,
          "midi": 80,
          "name": "G#5",
          "ticks": 38400,
          "time": 44.4444,
          "velocity": 0.3937007874015748
        },
        {
          "duration": 0.11111099999999396,
          "durationTicks": 96,
          "midi": 46,
          "name": "A#2",
          "ticks": 38592,
          "time": 44.666622000000004,
          "velocity": 0.3937007874015748
        },
        {
          "duration": 0.11111100000000107,
          "durationTicks": 96,
          "midi": 45,
          "name": "A2",
          "ticks": 38784,
          "time": 44.888844,
          "velocity": 0.3937007874015748
        },
        {
          "duration": 0.11111100000000107,
          "durationTicks": 96,
          "midi": 42,
          "name": "F#2",
          "ticks": 38880,
          "time": 44.999955,
          "velocity": 0.3937007874015748
        },
        {
          "duration": 0.11111100000000107,
          "durationTicks": 96,
          "midi": 40,
          "name": "E2",
          "ticks": 39072,
          "time": 45.222177,
          "velocity": 0.3937007874015748
        },
        {
          "duration": 0.11111100000000107,
          "durationTicks": 96,
          "midi": 33,
          "name": "A1",
          "ticks": 39264,
          "time": 45.444399,
          "velocity": 0.3937007874015748
        },
        {
          "duration": 0.11111100000000107,
          "durationTicks": 96,
          "midi": 66,
          "name": "F#4",
          "ticks": 39360,
          "time": 45.55551,
          "velocity": 0.3937007874015748
        },
        {
          "duration": 0.11111100000000107,
          "durationTicks": 96,
          "midi": 78,
          "name": "F#5",
          "ticks": 39360,
          "time": 45.55551,
          "velocity": 0.3937007874015748
        },
        {
          "duration": 0.11111100000000107,
          "durationTicks": 96,
          "midi": 33,
          "name": "A1",
          "ticks": 39456,
          "time": 45.666621,
          "velocity": 0.3937007874015748
        },
        {
          "duration": 0.11111100000000107,
          "durationTicks": 96,
          "midi": 33,
          "name": "A1",
          "ticks": 39552,
          "time": 45.777732,
          "velocity": 0.3937007874015748
        },
        {
          "duration": 0.11111100000000107,
          "durationTicks": 96,
          "midi": 34,
          "name": "A#1",
          "ticks": 39648,
          "time": 45.888843,
          "velocity": 0.3937007874015748
        },
        {
          "duration": 0.11111100000000107,
          "durationTicks": 96,
          "midi": 64,
          "name": "E4",
          "ticks": 39744,
          "time": 45.999954,
          "velocity": 0.3937007874015748
        },
        {
          "duration": 0.11111100000000107,
          "durationTicks": 96,
          "midi": 35,
          "name": "B1",
          "ticks": 39744,
          "time": 45.999954,
          "velocity": 0.3937007874015748
        },
        {
          "duration": 0.11111100000000107,
          "durationTicks": 96,
          "midi": 76,
          "name": "E5",
          "ticks": 39744,
          "time": 45.999954,
          "velocity": 0.3937007874015748
        },
        {
          "duration": 0.11111100000000107,
          "durationTicks": 96,
          "midi": 78,
          "name": "F#5",
          "ticks": 39936,
          "time": 46.222176,
          "velocity": 0.3937007874015748
        },
        {
          "duration": 0.11111100000000107,
          "durationTicks": 96,
          "midi": 66,
          "name": "F#4",
          "ticks": 39936,
          "time": 46.222176,
          "velocity": 0.3937007874015748
        },
        {
          "duration": 0.11111100000000107,
          "durationTicks": 96,
          "midi": 71,
          "name": "B4",
          "ticks": 39936,
          "time": 46.222176,
          "velocity": 0.3937007874015748
        },
        {
          "duration": 0.11111100000000107,
          "durationTicks": 96,
          "midi": 74,
          "name": "D5",
          "ticks": 39936,
          "time": 46.222176,
          "velocity": 0.3937007874015748
        },
        {
          "duration": 0.11111100000000107,
          "durationTicks": 96,
          "midi": 35,
          "name": "B1",
          "ticks": 39936,
          "time": 46.222176,
          "velocity": 0.3937007874015748
        },
        {
          "duration": 0.11111100000000107,
          "durationTicks": 96,
          "midi": 35,
          "name": "B1",
          "ticks": 39936,
          "time": 46.222176,
          "velocity": 0.3937007874015748
        },
        {
          "duration": 0.11111100000000107,
          "durationTicks": 96,
          "midi": 38,
          "name": "D2",
          "ticks": 40128,
          "time": 46.444398,
          "velocity": 0.3937007874015748
        },
        {
          "duration": 0.11111100000000107,
          "durationTicks": 96,
          "midi": 40,
          "name": "E2",
          "ticks": 40320,
          "time": 46.66662,
          "velocity": 0.3937007874015748
        },
        {
          "duration": 0.11111100000000107,
          "durationTicks": 96,
          "midi": 41,
          "name": "F2",
          "ticks": 40416,
          "time": 46.777731,
          "velocity": 0.3937007874015748
        },
        {
          "duration": 0.11111100000000107,
          "durationTicks": 96,
          "midi": 42,
          "name": "F#2",
          "ticks": 40608,
          "time": 46.999953,
          "velocity": 0.3937007874015748
        },
        {
          "duration": 0.11111100000000107,
          "durationTicks": 96,
          "midi": 45,
          "name": "A2",
          "ticks": 40800,
          "time": 47.222175,
          "velocity": 0.3937007874015748
        },
        {
          "duration": 0.11111100000000107,
          "durationTicks": 96,
          "midi": 42,
          "name": "F#2",
          "ticks": 40992,
          "time": 47.444397,
          "velocity": 0.3937007874015748
        },
        {
          "duration": 0.11111099999999396,
          "durationTicks": 96,
          "midi": 45,
          "name": "A2",
          "ticks": 41088,
          "time": 47.555508,
          "velocity": 0.3937007874015748
        },
        {
          "duration": 0.11111100000000107,
          "durationTicks": 96,
          "midi": 46,
          "name": "A#2",
          "ticks": 41280,
          "time": 47.77773,
          "velocity": 0.3937007874015748
        },
        {
          "duration": 0.11111100000000107,
          "durationTicks": 96,
          "midi": 59,
          "name": "B3",
          "ticks": 41472,
          "time": 47.999952,
          "velocity": 0.3937007874015748
        },
        {
          "duration": 0.11111100000000107,
          "durationTicks": 96,
          "midi": 47,
          "name": "B2",
          "ticks": 41472,
          "time": 47.999952,
          "velocity": 0.3937007874015748
        },
        {
          "duration": 0.11111100000000107,
          "durationTicks": 96,
          "midi": 46,
          "name": "A#2",
          "ticks": 41664,
          "time": 48.222174,
          "velocity": 0.3937007874015748
        },
        {
          "duration": 0.11111099999999396,
          "durationTicks": 96,
          "midi": 59,
          "name": "B3",
          "ticks": 41760,
          "time": 48.333285000000004,
          "velocity": 0.3937007874015748
        },
        {
          "duration": 0.11111100000000107,
          "durationTicks": 96,
          "midi": 45,
          "name": "A2",
          "ticks": 41856,
          "time": 48.444396,
          "velocity": 0.3937007874015748
        },
        {
          "duration": 0.11111100000000107,
          "durationTicks": 96,
          "midi": 42,
          "name": "F#2",
          "ticks": 41952,
          "time": 48.555507,
          "velocity": 0.3937007874015748
        },
        {
          "duration": 0.11111100000000107,
          "durationTicks": 96,
          "midi": 59,
          "name": "B3",
          "ticks": 42048,
          "time": 48.666618,
          "velocity": 0.3937007874015748
        },
        {
          "duration": 0.11111100000000107,
          "durationTicks": 96,
          "midi": 40,
          "name": "E2",
          "ticks": 42144,
          "time": 48.777729,
          "velocity": 0.3937007874015748
        },
        {
          "duration": 0.11111100000000107,
          "durationTicks": 96,
          "midi": 33,
          "name": "A1",
          "ticks": 42336,
          "time": 48.999951,
          "velocity": 0.3937007874015748
        },
        {
          "duration": 0.11111100000000107,
          "durationTicks": 96,
          "midi": 59,
          "name": "B3",
          "ticks": 42336,
          "time": 48.999951,
          "velocity": 0.3937007874015748
        },
        {
          "duration": 0.11111100000000107,
          "durationTicks": 96,
          "midi": 33,
          "name": "A1",
          "ticks": 42528,
          "time": 49.222173,
          "velocity": 0.3937007874015748
        },
        {
          "duration": 0.11111100000000107,
          "durationTicks": 96,
          "midi": 59,
          "name": "B3",
          "ticks": 42624,
          "time": 49.333284,
          "velocity": 0.3937007874015748
        },
        {
          "duration": 0.11111100000000107,
          "durationTicks": 96,
          "midi": 33,
          "name": "A1",
          "ticks": 42624,
          "time": 49.333284,
          "velocity": 0.3937007874015748
        },
        {
          "duration": 0.11111100000000107,
          "durationTicks": 96,
          "midi": 34,
          "name": "A#1",
          "ticks": 42720,
          "time": 49.444395,
          "velocity": 0.3937007874015748
        },
        {
          "duration": 0.11111100000000107,
          "durationTicks": 96,
          "midi": 61,
          "name": "C#4",
          "ticks": 42720,
          "time": 49.444395,
          "velocity": 0.3937007874015748
        },
        {
          "duration": 0.11111100000000107,
          "durationTicks": 96,
          "midi": 35,
          "name": "B1",
          "ticks": 42816,
          "time": 49.555506,
          "velocity": 0.3937007874015748
        },
        {
          "duration": 0.11111100000000107,
          "durationTicks": 96,
          "midi": 62,
          "name": "D4",
          "ticks": 42816,
          "time": 49.555506,
          "velocity": 0.3937007874015748
        },
        {
          "duration": 0.11111100000000107,
          "durationTicks": 96,
          "midi": 64,
          "name": "E4",
          "ticks": 42912,
          "time": 49.666617,
          "velocity": 0.3937007874015748
        },
        {
          "duration": 0.11111099999999396,
          "durationTicks": 96,
          "midi": 66,
          "name": "F#4",
          "ticks": 43008,
          "time": 49.777728,
          "velocity": 0.3937007874015748
        },
        {
          "duration": 0.11111099999999396,
          "durationTicks": 96,
          "midi": 78,
          "name": "F#5",
          "ticks": 43008,
          "time": 49.777728,
          "velocity": 0.3937007874015748
        },
        {
          "duration": 0.11111099999999396,
          "durationTicks": 96,
          "midi": 35,
          "name": "B1",
          "ticks": 43008,
          "time": 49.777728,
          "velocity": 0.3937007874015748
        },
        {
          "duration": 0.11111099999999396,
          "durationTicks": 96,
          "midi": 35,
          "name": "B1",
          "ticks": 43008,
          "time": 49.777728,
          "velocity": 0.3937007874015748
        },
        {
          "duration": 0.11111099999999396,
          "durationTicks": 96,
          "midi": 74,
          "name": "D5",
          "ticks": 43008,
          "time": 49.777728,
          "velocity": 0.3937007874015748
        },
        {
          "duration": 0.11111100000000107,
          "durationTicks": 96,
          "midi": 38,
          "name": "D2",
          "ticks": 43200,
          "time": 49.99995,
          "velocity": 0.3937007874015748
        },
        {
          "duration": 0.11111100000000107,
          "durationTicks": 96,
          "midi": 40,
          "name": "E2",
          "ticks": 43392,
          "time": 50.222172,
          "velocity": 0.3937007874015748
        },
        {
          "duration": 0.11111100000000107,
          "durationTicks": 96,
          "midi": 41,
          "name": "F2",
          "ticks": 43488,
          "time": 50.333283,
          "velocity": 0.3937007874015748
        },
        {
          "duration": 0.11111099999999396,
          "durationTicks": 96,
          "midi": 42,
          "name": "F#2",
          "ticks": 43680,
          "time": 50.555505000000004,
          "velocity": 0.3937007874015748
        },
        {
          "duration": 0.11111100000000107,
          "durationTicks": 96,
          "midi": 45,
          "name": "A2",
          "ticks": 43872,
          "time": 50.777727,
          "velocity": 0.3937007874015748
        },
        {
          "duration": 0.11111100000000107,
          "durationTicks": 96,
          "midi": 71,
          "name": "B4",
          "ticks": 43968,
          "time": 50.888838,
          "velocity": 0.3937007874015748
        },
        {
          "duration": 0.11111100000000107,
          "durationTicks": 96,
          "midi": 66,
          "name": "F#4",
          "ticks": 43968,
          "time": 50.888838,
          "velocity": 0.3937007874015748
        },
        {
          "duration": 0.11111100000000107,
          "durationTicks": 96,
          "midi": 59,
          "name": "B3",
          "ticks": 43968,
          "time": 50.888838,
          "velocity": 0.3937007874015748
        },
        {
          "duration": 0.11111100000000107,
          "durationTicks": 96,
          "midi": 42,
          "name": "F#2",
          "ticks": 44064,
          "time": 50.999949,
          "velocity": 0.3937007874015748
        },
        {
          "duration": 0.11111100000000107,
          "durationTicks": 96,
          "midi": 74,
          "name": "D5",
          "ticks": 44160,
          "time": 51.11106,
          "velocity": 0.3937007874015748
        },
        {
          "duration": 0.11111100000000107,
          "durationTicks": 96,
          "midi": 62,
          "name": "D4",
          "ticks": 44160,
          "time": 51.11106,
          "velocity": 0.3937007874015748
        },
        {
          "duration": 0.11111100000000107,
          "durationTicks": 96,
          "midi": 71,
          "name": "B4",
          "ticks": 44160,
          "time": 51.11106,
          "velocity": 0.3937007874015748
        },
        {
          "duration": 0.11111100000000107,
          "durationTicks": 96,
          "midi": 45,
          "name": "A2",
          "ticks": 44160,
          "time": 51.11106,
          "velocity": 0.3937007874015748
        },
        {
          "duration": 0.11111099999999396,
          "durationTicks": 96,
          "midi": 81,
          "name": "A5",
          "ticks": 44352,
          "time": 51.333282000000004,
          "velocity": 0.3937007874015748
        },
        {
          "duration": 0.11111099999999396,
          "durationTicks": 96,
          "midi": 74,
          "name": "D5",
          "ticks": 44352,
          "time": 51.333282000000004,
          "velocity": 0.3937007874015748
        },
        {
          "duration": 0.11111099999999396,
          "durationTicks": 96,
          "midi": 69,
          "name": "A4",
          "ticks": 44352,
          "time": 51.333282000000004,
          "velocity": 0.3937007874015748
        },
        {
          "duration": 0.11111099999999396,
          "durationTicks": 96,
          "midi": 46,
          "name": "A#2",
          "ticks": 44352,
          "time": 51.333282000000004,
          "velocity": 0.3937007874015748
        },
        {
          "duration": 0.11111100000000107,
          "durationTicks": 96,
          "midi": 47,
          "name": "B2",
          "ticks": 44544,
          "time": 51.555504,
          "velocity": 0.3937007874015748
        },
        {
          "duration": 0.11111100000000107,
          "durationTicks": 96,
          "midi": 74,
          "name": "D5",
          "ticks": 44544,
          "time": 51.555504,
          "velocity": 0.3937007874015748
        },
        {
          "duration": 0.11111100000000107,
          "durationTicks": 96,
          "midi": 71,
          "name": "B4",
          "ticks": 44544,
          "time": 51.555504,
          "velocity": 0.3937007874015748
        },
        {
          "duration": 0.11111100000000107,
          "durationTicks": 96,
          "midi": 47,
          "name": "B2",
          "ticks": 44544,
          "time": 51.555504,
          "velocity": 0.3937007874015748
        },
        {
          "duration": 0.11111100000000107,
          "durationTicks": 96,
          "midi": 83,
          "name": "B5",
          "ticks": 44544,
          "time": 51.555504,
          "velocity": 0.3937007874015748
        },
        {
          "duration": 0.11111100000000107,
          "durationTicks": 96,
          "midi": 46,
          "name": "A#2",
          "ticks": 44736,
          "time": 51.777726,
          "velocity": 0.3937007874015748
        },
        {
          "duration": 0.11111099999999396,
          "durationTicks": 96,
          "midi": 45,
          "name": "A2",
          "ticks": 44928,
          "time": 51.999948,
          "velocity": 0.3937007874015748
        },
        {
          "duration": 0.11111100000000107,
          "durationTicks": 96,
          "midi": 42,
          "name": "F#2",
          "ticks": 45024,
          "time": 52.111059,
          "velocity": 0.3937007874015748
        },
        {
          "duration": 0.11111100000000107,
          "durationTicks": 96,
          "midi": 81,
          "name": "A5",
          "ticks": 45120,
          "time": 52.22217,
          "velocity": 0.3937007874015748
        },
        {
          "duration": 0.11111100000000107,
          "durationTicks": 96,
          "midi": 69,
          "name": "A4",
          "ticks": 45120,
          "time": 52.22217,
          "velocity": 0.3937007874015748
        },
        {
          "duration": 0.11111100000000107,
          "durationTicks": 96,
          "midi": 73,
          "name": "C#5",
          "ticks": 45120,
          "time": 52.22217,
          "velocity": 0.3937007874015748
        },
        {
          "duration": 0.11111100000000107,
          "durationTicks": 96,
          "midi": 40,
          "name": "E2",
          "ticks": 45216,
          "time": 52.333281,
          "velocity": 0.3937007874015748
        },
        {
          "duration": 0.11111100000000107,
          "durationTicks": 96,
          "midi": 33,
          "name": "A1",
          "ticks": 45408,
          "time": 52.555503,
          "velocity": 0.3937007874015748
        },
        {
          "duration": 0.11111099999999396,
          "durationTicks": 96,
          "midi": 33,
          "name": "A1",
          "ticks": 45600,
          "time": 52.777725000000004,
          "velocity": 0.3937007874015748
        },
        {
          "duration": 0.11111100000000107,
          "durationTicks": 96,
          "midi": 33,
          "name": "A1",
          "ticks": 45696,
          "time": 52.888836,
          "velocity": 0.3937007874015748
        },
        {
          "duration": 0.11111100000000107,
          "durationTicks": 96,
          "midi": 71,
          "name": "B4",
          "ticks": 45696,
          "time": 52.888836,
          "velocity": 0.3937007874015748
        },
        {
          "duration": 0.11111100000000107,
          "durationTicks": 96,
          "midi": 68,
          "name": "G#4",
          "ticks": 45696,
          "time": 52.888836,
          "velocity": 0.3937007874015748
        },
        {
          "duration": 0.11111100000000107,
          "durationTicks": 96,
          "midi": 80,
          "name": "G#5",
          "ticks": 45696,
          "time": 52.888836,
          "velocity": 0.3937007874015748
        },
        {
          "duration": 0.11111100000000107,
          "durationTicks": 96,
          "midi": 34,
          "name": "A#1",
          "ticks": 45792,
          "time": 52.999947,
          "velocity": 0.3937007874015748
        },
        {
          "duration": 0.11111100000000107,
          "durationTicks": 96,
          "midi": 35,
          "name": "B1",
          "ticks": 45888,
          "time": 53.111058,
          "velocity": 0.3937007874015748
        },
        {
          "duration": 0.11111100000000107,
          "durationTicks": 96,
          "midi": 78,
          "name": "F#5",
          "ticks": 46080,
          "time": 53.33328,
          "velocity": 0.3937007874015748
        },
        {
          "duration": 0.11111100000000107,
          "durationTicks": 96,
          "midi": 35,
          "name": "B1",
          "ticks": 46080,
          "time": 53.33328,
          "velocity": 0.3937007874015748
        },
        {
          "duration": 0.11111100000000107,
          "durationTicks": 96,
          "midi": 35,
          "name": "B1",
          "ticks": 46080,
          "time": 53.33328,
          "velocity": 0.3937007874015748
        },
        {
          "duration": 0.11111100000000107,
          "durationTicks": 96,
          "midi": 74,
          "name": "D5",
          "ticks": 46080,
          "time": 53.33328,
          "velocity": 0.3937007874015748
        },
        {
          "duration": 0.11111100000000107,
          "durationTicks": 96,
          "midi": 71,
          "name": "B4",
          "ticks": 46080,
          "time": 53.33328,
          "velocity": 0.3937007874015748
        },
        {
          "duration": 0.11111100000000107,
          "durationTicks": 96,
          "midi": 66,
          "name": "F#4",
          "ticks": 46080,
          "time": 53.33328,
          "velocity": 0.3937007874015748
        },
        {
          "duration": 0.11111099999999396,
          "durationTicks": 96,
          "midi": 38,
          "name": "D2",
          "ticks": 46272,
          "time": 53.555502000000004,
          "velocity": 0.3937007874015748
        },
        {
          "duration": 0.11111100000000107,
          "durationTicks": 96,
          "midi": 40,
          "name": "E2",
          "ticks": 46464,
          "time": 53.777724,
          "velocity": 0.3937007874015748
        },
        {
          "duration": 0.11111100000000107,
          "durationTicks": 96,
          "midi": 41,
          "name": "F2",
          "ticks": 46560,
          "time": 53.888835,
          "velocity": 0.3937007874015748
        },
        {
          "duration": 0.11111100000000107,
          "durationTicks": 96,
          "midi": 42,
          "name": "F#2",
          "ticks": 46752,
          "time": 54.111057,
          "velocity": 0.3937007874015748
        },
        {
          "duration": 0.11111100000000107,
          "durationTicks": 96,
          "midi": 45,
          "name": "A2",
          "ticks": 46944,
          "time": 54.333279,
          "velocity": 0.3937007874015748
        },
        {
          "duration": 0.11111100000000107,
          "durationTicks": 96,
          "midi": 42,
          "name": "F#2",
          "ticks": 47136,
          "time": 54.555501,
          "velocity": 0.3937007874015748
        },
        {
          "duration": 0.11111100000000107,
          "durationTicks": 96,
          "midi": 45,
          "name": "A2",
          "ticks": 47232,
          "time": 54.666612,
          "velocity": 0.3937007874015748
        },
        {
          "duration": 0.11111100000000107,
          "durationTicks": 96,
          "midi": 46,
          "name": "A#2",
          "ticks": 47424,
          "time": 54.888834,
          "velocity": 0.3937007874015748
        },
        {
          "duration": 0.11111100000000107,
          "durationTicks": 96,
          "midi": 47,
          "name": "B2",
          "ticks": 47616,
          "time": 55.111056,
          "velocity": 0.3937007874015748
        },
        {
          "duration": 0.11111100000000107,
          "durationTicks": 96,
          "midi": 46,
          "name": "A#2",
          "ticks": 47808,
          "time": 55.333278,
          "velocity": 0.3937007874015748
        },
        {
          "duration": 0.11111100000000107,
          "durationTicks": 96,
          "midi": 45,
          "name": "A2",
          "ticks": 48000,
          "time": 55.5555,
          "velocity": 0.3937007874015748
        },
        {
          "duration": 0.11111100000000107,
          "durationTicks": 96,
          "midi": 42,
          "name": "F#2",
          "ticks": 48096,
          "time": 55.666611,
          "velocity": 0.3937007874015748
        },
        {
          "duration": 0.11111100000000107,
          "durationTicks": 96,
          "midi": 47,
          "name": "B2",
          "ticks": 48384,
          "time": 55.999944,
          "velocity": 0.3937007874015748
        },
        {
          "duration": 0.11111100000000107,
          "durationTicks": 96,
          "midi": 71,
          "name": "B4",
          "ticks": 48384,
          "time": 55.999944,
          "velocity": 0.3937007874015748
        },
        {
          "duration": 0.11111100000000107,
          "durationTicks": 96,
          "midi": 47,
          "name": "B2",
          "ticks": 48384,
          "time": 55.999944,
          "velocity": 0.3937007874015748
        },
        {
          "duration": 0.11111100000000107,
          "durationTicks": 96,
          "midi": 59,
          "name": "B3",
          "ticks": 48384,
          "time": 55.999944,
          "velocity": 0.3937007874015748
        },
        {
          "duration": 0.11111100000000107,
          "durationTicks": 96,
          "midi": 71,
          "name": "B4",
          "ticks": 48384,
          "time": 55.999944,
          "velocity": 0.3937007874015748
        },
        {
          "duration": 0.11111099999999396,
          "durationTicks": 96,
          "midi": 74,
          "name": "D5",
          "ticks": 48768,
          "time": 56.444388000000004,
          "velocity": 0.3937007874015748
        },
        {
          "duration": 0.11111099999999396,
          "durationTicks": 96,
          "midi": 47,
          "name": "B2",
          "ticks": 48768,
          "time": 56.444388000000004,
          "velocity": 0.3937007874015748
        },
        {
          "duration": 0.11111099999999396,
          "durationTicks": 96,
          "midi": 47,
          "name": "B2",
          "ticks": 48768,
          "time": 56.444388000000004,
          "velocity": 0.3937007874015748
        },
        {
          "duration": 0.11111100000000107,
          "durationTicks": 96,
          "midi": 73,
          "name": "C#5",
          "ticks": 48864,
          "time": 56.555499,
          "velocity": 0.3937007874015748
        },
        {
          "duration": 0.11111100000000107,
          "durationTicks": 96,
          "midi": 71,
          "name": "B4",
          "ticks": 48960,
          "time": 56.66661,
          "velocity": 0.3937007874015748
        },
        {
          "duration": 0.11111100000000107,
          "durationTicks": 96,
          "midi": 69,
          "name": "A4",
          "ticks": 49152,
          "time": 56.888832,
          "velocity": 0.3937007874015748
        },
        {
          "duration": 0.11111100000000107,
          "durationTicks": 96,
          "midi": 50,
          "name": "D3",
          "ticks": 49344,
          "time": 57.111054,
          "velocity": 0.3937007874015748
        },
        {
          "duration": 0.11111100000000107,
          "durationTicks": 96,
          "midi": 54,
          "name": "F#3",
          "ticks": 49344,
          "time": 57.111054,
          "velocity": 0.3937007874015748
        },
        {
          "duration": 0.11111100000000107,
          "durationTicks": 96,
          "midi": 59,
          "name": "B3",
          "ticks": 49344,
          "time": 57.111054,
          "velocity": 0.3937007874015748
        },
        {
          "duration": 0.11111099999999396,
          "durationTicks": 96,
          "midi": 71,
          "name": "B4",
          "ticks": 49440,
          "time": 57.222165000000004,
          "velocity": 0.3937007874015748
        },
        {
          "duration": 0.11111100000000107,
          "durationTicks": 96,
          "midi": 71,
          "name": "B4",
          "ticks": 49728,
          "time": 57.555498,
          "velocity": 0.3937007874015748
        },
        {
          "duration": 0.11111100000000107,
          "durationTicks": 96,
          "midi": 50,
          "name": "D3",
          "ticks": 49920,
          "time": 57.77772,
          "velocity": 0.3937007874015748
        },
        {
          "duration": 0.11111100000000107,
          "durationTicks": 96,
          "midi": 54,
          "name": "F#3",
          "ticks": 49920,
          "time": 57.77772,
          "velocity": 0.3937007874015748
        },
        {
          "duration": 0.11111100000000107,
          "durationTicks": 96,
          "midi": 59,
          "name": "B3",
          "ticks": 49920,
          "time": 57.77772,
          "velocity": 0.3937007874015748
        },
        {
          "duration": 0.11111100000000107,
          "durationTicks": 96,
          "midi": 66,
          "name": "F#4",
          "ticks": 50112,
          "time": 57.999942,
          "velocity": 0.3937007874015748
        },
        {
          "duration": 0.11111100000000107,
          "durationTicks": 96,
          "midi": 54,
          "name": "F#3",
          "ticks": 50304,
          "time": 58.222164,
          "velocity": 0.3937007874015748
        },
        {
          "duration": 0.11111100000000107,
          "durationTicks": 96,
          "midi": 59,
          "name": "B3",
          "ticks": 50304,
          "time": 58.222164,
          "velocity": 0.3937007874015748
        },
        {
          "duration": 0.11111100000000107,
          "durationTicks": 96,
          "midi": 50,
          "name": "D3",
          "ticks": 50304,
          "time": 58.222164,
          "velocity": 0.3937007874015748
        },
        {
          "duration": 0.11111100000000107,
          "durationTicks": 96,
          "midi": 69,
          "name": "A4",
          "ticks": 50304,
          "time": 58.222164,
          "velocity": 0.3937007874015748
        },
        {
          "duration": 0.11111100000000107,
          "durationTicks": 96,
          "midi": 71,
          "name": "B4",
          "ticks": 50496,
          "time": 58.444386,
          "velocity": 0.3937007874015748
        },
        {
          "duration": 0.11111099999999396,
          "durationTicks": 96,
          "midi": 73,
          "name": "C#5",
          "ticks": 50688,
          "time": 58.666608000000004,
          "velocity": 0.3937007874015748
        },
        {
          "duration": 0.11111100000000107,
          "durationTicks": 96,
          "midi": 59,
          "name": "B3",
          "ticks": 50880,
          "time": 58.88883,
          "velocity": 0.3937007874015748
        },
        {
          "duration": 0.11111100000000107,
          "durationTicks": 96,
          "midi": 54,
          "name": "F#3",
          "ticks": 50880,
          "time": 58.88883,
          "velocity": 0.3937007874015748
        },
        {
          "duration": 0.11111100000000107,
          "durationTicks": 96,
          "midi": 50,
          "name": "D3",
          "ticks": 50880,
          "time": 58.88883,
          "velocity": 0.3937007874015748
        },
        {
          "duration": 0.11111100000000107,
          "durationTicks": 96,
          "midi": 69,
          "name": "A4",
          "ticks": 50976,
          "time": 58.999941,
          "velocity": 0.3937007874015748
        },
        {
          "duration": 0.11111100000000107,
          "durationTicks": 96,
          "midi": 71,
          "name": "B4",
          "ticks": 51264,
          "time": 59.333274,
          "velocity": 0.3937007874015748
        },
        {
          "duration": 0.11111100000000107,
          "durationTicks": 96,
          "midi": 59,
          "name": "B3",
          "ticks": 51456,
          "time": 59.555496,
          "velocity": 0.3937007874015748
        },
        {
          "duration": 0.11111100000000107,
          "durationTicks": 96,
          "midi": 54,
          "name": "F#3",
          "ticks": 51456,
          "time": 59.555496,
          "velocity": 0.3937007874015748
        },
        {
          "duration": 0.11111100000000107,
          "durationTicks": 96,
          "midi": 50,
          "name": "D3",
          "ticks": 51456,
          "time": 59.555496,
          "velocity": 0.3937007874015748
        },
        {
          "duration": 0.11111100000000107,
          "durationTicks": 96,
          "midi": 54,
          "name": "F#3",
          "ticks": 51840,
          "time": 59.99994,
          "velocity": 0.3937007874015748
        },
        {
          "duration": 0.11111100000000107,
          "durationTicks": 96,
          "midi": 59,
          "name": "B3",
          "ticks": 51840,
          "time": 59.99994,
          "velocity": 0.3937007874015748
        },
        {
          "duration": 0.11111100000000107,
          "durationTicks": 96,
          "midi": 50,
          "name": "D3",
          "ticks": 51840,
          "time": 59.99994,
          "velocity": 0.3937007874015748
        },
        {
          "duration": 0.11111100000000107,
          "durationTicks": 96,
          "midi": 74,
          "name": "D5",
          "ticks": 51840,
          "time": 59.99994,
          "velocity": 0.3937007874015748
        },
        {
          "duration": 0.11111099999999396,
          "durationTicks": 96,
          "midi": 73,
          "name": "C#5",
          "ticks": 51936,
          "time": 60.111051,
          "velocity": 0.3937007874015748
        },
        {
          "duration": 0.11111100000000107,
          "durationTicks": 96,
          "midi": 71,
          "name": "B4",
          "ticks": 52032,
          "time": 60.222162,
          "velocity": 0.3937007874015748
        },
        {
          "duration": 0.11111100000000107,
          "durationTicks": 96,
          "midi": 47,
          "name": "B2",
          "ticks": 52224,
          "time": 60.444384,
          "velocity": 0.3937007874015748
        },
        {
          "duration": 0.11111100000000107,
          "durationTicks": 96,
          "midi": 69,
          "name": "A4",
          "ticks": 52224,
          "time": 60.444384,
          "velocity": 0.3937007874015748
        },
        {
          "duration": 0.11111100000000107,
          "durationTicks": 96,
          "midi": 59,
          "name": "B3",
          "ticks": 52512,
          "time": 60.777717,
          "velocity": 0.3937007874015748
        },
        {
          "duration": 0.11111100000000107,
          "durationTicks": 96,
          "midi": 54,
          "name": "F#3",
          "ticks": 52512,
          "time": 60.777717,
          "velocity": 0.3937007874015748
        },
        {
          "duration": 0.11111100000000107,
          "durationTicks": 96,
          "midi": 71,
          "name": "B4",
          "ticks": 52512,
          "time": 60.777717,
          "velocity": 0.3937007874015748
        },
        {
          "duration": 0.11111100000000107,
          "durationTicks": 96,
          "midi": 59,
          "name": "B3",
          "ticks": 52704,
          "time": 60.999939,
          "velocity": 0.3937007874015748
        },
        {
          "duration": 0.11111100000000107,
          "durationTicks": 96,
          "midi": 54,
          "name": "F#3",
          "ticks": 52704,
          "time": 60.999939,
          "velocity": 0.3937007874015748
        },
        {
          "duration": 0.11111100000000107,
          "durationTicks": 96,
          "midi": 54,
          "name": "F#3",
          "ticks": 52800,
          "time": 61.11105,
          "velocity": 0.3937007874015748
        },
        {
          "duration": 0.11111100000000107,
          "durationTicks": 96,
          "midi": 71,
          "name": "B4",
          "ticks": 52800,
          "time": 61.11105,
          "velocity": 0.3937007874015748
        },
        {
          "duration": 0.11111100000000107,
          "durationTicks": 96,
          "midi": 59,
          "name": "B3",
          "ticks": 52800,
          "time": 61.11105,
          "velocity": 0.3937007874015748
        },
        {
          "duration": 0.11111100000000107,
          "durationTicks": 96,
          "midi": 47,
          "name": "B2",
          "ticks": 52992,
          "time": 61.333272,
          "velocity": 0.3937007874015748
        },
        {
          "duration": 0.11111100000000107,
          "durationTicks": 96,
          "midi": 69,
          "name": "A4",
          "ticks": 53184,
          "time": 61.555494,
          "velocity": 0.3937007874015748
        },
        {
          "duration": 0.11111099999999396,
          "durationTicks": 96,
          "midi": 59,
          "name": "B3",
          "ticks": 53280,
          "time": 61.666605000000004,
          "velocity": 0.3937007874015748
        },
        {
          "duration": 0.11111099999999396,
          "durationTicks": 96,
          "midi": 54,
          "name": "F#3",
          "ticks": 53280,
          "time": 61.666605000000004,
          "velocity": 0.3937007874015748
        },
        {
          "duration": 0.11111100000000107,
          "durationTicks": 96,
          "midi": 73,
          "name": "C#5",
          "ticks": 53376,
          "time": 61.777716,
          "velocity": 0.3937007874015748
        },
        {
          "duration": 0.11111100000000107,
          "durationTicks": 96,
          "midi": 54,
          "name": "F#3",
          "ticks": 53472,
          "time": 61.888827,
          "velocity": 0.3937007874015748
        },
        {
          "duration": 0.11111100000000107,
          "durationTicks": 96,
          "midi": 59,
          "name": "B3",
          "ticks": 53472,
          "time": 61.888827,
          "velocity": 0.3937007874015748
        },
        {
          "duration": 0.11111100000000107,
          "durationTicks": 96,
          "midi": 54,
          "name": "F#3",
          "ticks": 53568,
          "time": 61.999938,
          "velocity": 0.3937007874015748
        },
        {
          "duration": 0.11111100000000107,
          "durationTicks": 96,
          "midi": 59,
          "name": "B3",
          "ticks": 53568,
          "time": 61.999938,
          "velocity": 0.3937007874015748
        },
        {
          "duration": 0.11111100000000107,
          "durationTicks": 96,
          "midi": 74,
          "name": "D5",
          "ticks": 53568,
          "time": 61.999938,
          "velocity": 0.3937007874015748
        },
        {
          "duration": 0.11111100000000107,
          "durationTicks": 96,
          "midi": 73,
          "name": "C#5",
          "ticks": 53760,
          "time": 62.22216,
          "velocity": 0.3937007874015748
        },
        {
          "duration": 0.11111100000000107,
          "durationTicks": 96,
          "midi": 69,
          "name": "A4",
          "ticks": 54048,
          "time": 62.555493,
          "velocity": 0.3937007874015748
        },
        {
          "duration": 0.11111100000000107,
          "durationTicks": 96,
          "midi": 64,
          "name": "E4",
          "ticks": 54336,
          "time": 62.888826,
          "velocity": 0.3937007874015748
        },
        {
          "duration": 0.11111099999999396,
          "durationTicks": 96,
          "midi": 50,
          "name": "D3",
          "ticks": 54528,
          "time": 63.111048000000004,
          "velocity": 0.3937007874015748
        },
        {
          "duration": 0.11111099999999396,
          "durationTicks": 96,
          "midi": 54,
          "name": "F#3",
          "ticks": 54528,
          "time": 63.111048000000004,
          "velocity": 0.3937007874015748
        },
        {
          "duration": 0.11111099999999396,
          "durationTicks": 96,
          "midi": 59,
          "name": "B3",
          "ticks": 54528,
          "time": 63.111048000000004,
          "velocity": 0.3937007874015748
        },
        {
          "duration": 0.11111100000000107,
          "durationTicks": 96,
          "midi": 66,
          "name": "F#4",
          "ticks": 54912,
          "time": 63.555492,
          "velocity": 0.3937007874015748
        },
        {
          "duration": 0.11111100000000107,
          "durationTicks": 96,
          "midi": 71,
          "name": "B4",
          "ticks": 54912,
          "time": 63.555492,
          "velocity": 0.3937007874015748
        },
        {
          "duration": 0.11111100000000107,
          "durationTicks": 96,
          "midi": 59,
          "name": "B3",
          "ticks": 54912,
          "time": 63.555492,
          "velocity": 0.3937007874015748
        },
        {
          "duration": 0.11111100000000107,
          "durationTicks": 96,
          "midi": 74,
          "name": "D5",
          "ticks": 54912,
          "time": 63.555492,
          "velocity": 0.3937007874015748
        },
        {
          "duration": 0.11111100000000107,
          "durationTicks": 96,
          "midi": 73,
          "name": "C#5",
          "ticks": 55008,
          "time": 63.666603,
          "velocity": 0.3937007874015748
        },
        {
          "duration": 0.11111100000000107,
          "durationTicks": 96,
          "midi": 71,
          "name": "B4",
          "ticks": 55104,
          "time": 63.777714,
          "velocity": 0.3937007874015748
        },
        {
          "duration": 0.11111100000000107,
          "durationTicks": 96,
          "midi": 69,
          "name": "A4",
          "ticks": 55296,
          "time": 63.999936,
          "velocity": 0.3937007874015748
        },
        {
          "duration": 0.11111100000000107,
          "durationTicks": 96,
          "midi": 81,
          "name": "A5",
          "ticks": 55296,
          "time": 63.999936,
          "velocity": 0.3937007874015748
        },
        {
          "duration": 0.11111099999999396,
          "durationTicks": 96,
          "midi": 54,
          "name": "F#3",
          "ticks": 55488,
          "time": 64.22215800000001,
          "velocity": 0.3937007874015748
        },
        {
          "duration": 0.11111099999999396,
          "durationTicks": 96,
          "midi": 59,
          "name": "B3",
          "ticks": 55488,
          "time": 64.22215800000001,
          "velocity": 0.3937007874015748
        },
        {
          "duration": 0.11111099999999396,
          "durationTicks": 96,
          "midi": 50,
          "name": "D3",
          "ticks": 55488,
          "time": 64.22215800000001,
          "velocity": 0.3937007874015748
        },
        {
          "duration": 0.11111099999999396,
          "durationTicks": 96,
          "midi": 71,
          "name": "B4",
          "ticks": 55584,
          "time": 64.333269,
          "velocity": 0.3937007874015748
        },
        {
          "duration": 0.11111099999999396,
          "durationTicks": 96,
          "midi": 83,
          "name": "B5",
          "ticks": 55584,
          "time": 64.333269,
          "velocity": 0.3937007874015748
        },
        {
          "duration": 0.11111100000000818,
          "durationTicks": 96,
          "midi": 83,
          "name": "B5",
          "ticks": 55872,
          "time": 64.666602,
          "velocity": 0.3937007874015748
        },
        {
          "duration": 0.11111100000000818,
          "durationTicks": 96,
          "midi": 71,
          "name": "B4",
          "ticks": 55872,
          "time": 64.666602,
          "velocity": 0.3937007874015748
        },
        {
          "duration": 0.11111100000000818,
          "durationTicks": 96,
          "midi": 50,
          "name": "D3",
          "ticks": 56064,
          "time": 64.888824,
          "velocity": 0.3937007874015748
        },
        {
          "duration": 0.11111100000000818,
          "durationTicks": 96,
          "midi": 54,
          "name": "F#3",
          "ticks": 56064,
          "time": 64.888824,
          "velocity": 0.3937007874015748
        },
        {
          "duration": 0.11111100000000818,
          "durationTicks": 96,
          "midi": 59,
          "name": "B3",
          "ticks": 56064,
          "time": 64.888824,
          "velocity": 0.3937007874015748
        },
        {
          "duration": 0.11111099999999396,
          "durationTicks": 96,
          "midi": 78,
          "name": "F#5",
          "ticks": 56256,
          "time": 65.111046,
          "velocity": 0.3937007874015748
        },
        {
          "duration": 0.11111099999999396,
          "durationTicks": 96,
          "midi": 66,
          "name": "F#4",
          "ticks": 56256,
          "time": 65.111046,
          "velocity": 0.3937007874015748
        },
        {
          "duration": 0.11111099999999396,
          "durationTicks": 96,
          "midi": 59,
          "name": "B3",
          "ticks": 56448,
          "time": 65.333268,
          "velocity": 0.3937007874015748
        },
        {
          "duration": 0.11111099999999396,
          "durationTicks": 96,
          "midi": 81,
          "name": "A5",
          "ticks": 56448,
          "time": 65.333268,
          "velocity": 0.3937007874015748
        },
        {
          "duration": 0.11111099999999396,
          "durationTicks": 96,
          "midi": 69,
          "name": "A4",
          "ticks": 56448,
          "time": 65.333268,
          "velocity": 0.3937007874015748
        },
        {
          "duration": 0.11111099999999396,
          "durationTicks": 96,
          "midi": 50,
          "name": "D3",
          "ticks": 56448,
          "time": 65.333268,
          "velocity": 0.3937007874015748
        },
        {
          "duration": 0.11111099999999396,
          "durationTicks": 96,
          "midi": 54,
          "name": "F#3",
          "ticks": 56448,
          "time": 65.333268,
          "velocity": 0.3937007874015748
        },
        {
          "duration": 0.11111099999999396,
          "durationTicks": 96,
          "midi": 83,
          "name": "B5",
          "ticks": 56640,
          "time": 65.55549,
          "velocity": 0.3937007874015748
        },
        {
          "duration": 0.11111099999999396,
          "durationTicks": 96,
          "midi": 71,
          "name": "B4",
          "ticks": 56640,
          "time": 65.55549,
          "velocity": 0.3937007874015748
        },
        {
          "duration": 0.11111100000000818,
          "durationTicks": 96,
          "midi": 47,
          "name": "B2",
          "ticks": 56832,
          "time": 65.777712,
          "velocity": 0.3937007874015748
        },
        {
          "duration": 0.11111100000000818,
          "durationTicks": 96,
          "midi": 47,
          "name": "B2",
          "ticks": 56832,
          "time": 65.777712,
          "velocity": 0.3937007874015748
        },
        {
          "duration": 0.11111100000000818,
          "durationTicks": 96,
          "midi": 73,
          "name": "C#5",
          "ticks": 56832,
          "time": 65.777712,
          "velocity": 0.3937007874015748
        },
        {
          "duration": 0.11111100000000818,
          "durationTicks": 96,
          "midi": 85,
          "name": "C#6",
          "ticks": 56832,
          "time": 65.777712,
          "velocity": 0.3937007874015748
        },
        {
          "duration": 0.11111099999999396,
          "durationTicks": 96,
          "midi": 53,
          "name": "F3",
          "ticks": 57120,
          "time": 66.111045,
          "velocity": 0.3937007874015748
        },
        {
          "duration": 0.11111099999999396,
          "durationTicks": 96,
          "midi": 69,
          "name": "A4",
          "ticks": 57120,
          "time": 66.111045,
          "velocity": 0.3937007874015748
        },
        {
          "duration": 0.11111099999999396,
          "durationTicks": 96,
          "midi": 81,
          "name": "A5",
          "ticks": 57120,
          "time": 66.111045,
          "velocity": 0.3937007874015748
        },
        {
          "duration": 0.11111099999999396,
          "durationTicks": 96,
          "midi": 53,
          "name": "F3",
          "ticks": 57120,
          "time": 66.111045,
          "velocity": 0.3937007874015748
        },
        {
          "duration": 0.11111099999999396,
          "durationTicks": 96,
          "midi": 52,
          "name": "E3",
          "ticks": 57312,
          "time": 66.333267,
          "velocity": 0.3937007874015748
        },
        {
          "duration": 0.11111099999999396,
          "durationTicks": 96,
          "midi": 71,
          "name": "B4",
          "ticks": 57408,
          "time": 66.444378,
          "velocity": 0.3937007874015748
        },
        {
          "duration": 0.11111099999999396,
          "durationTicks": 96,
          "midi": 50,
          "name": "D3",
          "ticks": 57408,
          "time": 66.444378,
          "velocity": 0.3937007874015748
        },
        {
          "duration": 0.11111099999999396,
          "durationTicks": 96,
          "midi": 83,
          "name": "B5",
          "ticks": 57408,
          "time": 66.444378,
          "velocity": 0.3937007874015748
        },
        {
          "duration": 0.11111099999999396,
          "durationTicks": 96,
          "midi": 47,
          "name": "B2",
          "ticks": 57600,
          "time": 66.6666,
          "velocity": 0.3937007874015748
        },
        {
          "duration": 0.11111099999999396,
          "durationTicks": 96,
          "midi": 47,
          "name": "B2",
          "ticks": 57600,
          "time": 66.6666,
          "velocity": 0.3937007874015748
        },
        {
          "duration": 0.11111100000000818,
          "durationTicks": 96,
          "midi": 53,
          "name": "F3",
          "ticks": 57888,
          "time": 66.999933,
          "velocity": 0.3937007874015748
        },
        {
          "duration": 0.11111100000000818,
          "durationTicks": 96,
          "midi": 53,
          "name": "F3",
          "ticks": 57888,
          "time": 66.999933,
          "velocity": 0.3937007874015748
        },
        {
          "duration": 0.11111099999999396,
          "durationTicks": 96,
          "midi": 86,
          "name": "D6",
          "ticks": 57984,
          "time": 67.111044,
          "velocity": 0.3937007874015748
        },
        {
          "duration": 0.11111099999999396,
          "durationTicks": 96,
          "midi": 74,
          "name": "D5",
          "ticks": 57984,
          "time": 67.111044,
          "velocity": 0.3937007874015748
        },
        {
          "duration": 0.11111099999999396,
          "durationTicks": 96,
          "midi": 52,
          "name": "E3",
          "ticks": 58080,
          "time": 67.222155,
          "velocity": 0.3937007874015748
        },
        {
          "duration": 0.11111099999999396,
          "durationTicks": 96,
          "midi": 73,
          "name": "C#5",
          "ticks": 58080,
          "time": 67.222155,
          "velocity": 0.3937007874015748
        },
        {
          "duration": 0.11111099999999396,
          "durationTicks": 96,
          "midi": 85,
          "name": "C#6",
          "ticks": 58080,
          "time": 67.222155,
          "velocity": 0.3937007874015748
        },
        {
          "duration": 0.11111100000000818,
          "durationTicks": 96,
          "midi": 71,
          "name": "B4",
          "ticks": 58176,
          "time": 67.333266,
          "velocity": 0.3937007874015748
        },
        {
          "duration": 0.11111100000000818,
          "durationTicks": 96,
          "midi": 83,
          "name": "B5",
          "ticks": 58176,
          "time": 67.333266,
          "velocity": 0.3937007874015748
        },
        {
          "duration": 0.11111100000000818,
          "durationTicks": 96,
          "midi": 50,
          "name": "D3",
          "ticks": 58176,
          "time": 67.333266,
          "velocity": 0.3937007874015748
        },
        {
          "duration": 0.14814800000000616,
          "durationTicks": 128,
          "midi": 83,
          "name": "B5",
          "ticks": 58368,
          "time": 67.555488,
          "velocity": 0.3937007874015748
        },
        {
          "duration": 0.14814800000000616,
          "durationTicks": 128,
          "midi": 47,
          "name": "B2",
          "ticks": 58368,
          "time": 67.555488,
          "velocity": 0.3937007874015748
        },
        {
          "duration": 0.14814800000000616,
          "durationTicks": 128,
          "midi": 71,
          "name": "B4",
          "ticks": 58368,
          "time": 67.555488,
          "velocity": 0.3937007874015748
        },
        {
          "duration": 0.14814799999999195,
          "durationTicks": 128,
          "midi": 74,
          "name": "D5",
          "ticks": 58496,
          "time": 67.703636,
          "velocity": 0.3937007874015748
        },
        {
          "duration": 0.14814799999999195,
          "durationTicks": 128,
          "midi": 86,
          "name": "D6",
          "ticks": 58496,
          "time": 67.703636,
          "velocity": 0.3937007874015748
        },
        {
          "duration": 0.14814799999999195,
          "durationTicks": 128,
          "midi": 50,
          "name": "D3",
          "ticks": 58496,
          "time": 67.703636,
          "velocity": 0.3937007874015748
        },
        {
          "duration": 0.14814800000000616,
          "durationTicks": 128,
          "midi": 54,
          "name": "F#3",
          "ticks": 58624,
          "time": 67.851784,
          "velocity": 0.3937007874015748
        },
        {
          "duration": 0.14814800000000616,
          "durationTicks": 128,
          "midi": 90,
          "name": "F#6",
          "ticks": 58624,
          "time": 67.851784,
          "velocity": 0.3937007874015748
        },
        {
          "duration": 0.14814800000000616,
          "durationTicks": 128,
          "midi": 78,
          "name": "F#5",
          "ticks": 58624,
          "time": 67.851784,
          "velocity": 0.3937007874015748
        },
        {
          "duration": 0.14814800000000616,
          "durationTicks": 128,
          "midi": 52,
          "name": "E3",
          "ticks": 58752,
          "time": 67.999932,
          "velocity": 0.3937007874015748
        },
        {
          "duration": 0.14814800000000616,
          "durationTicks": 128,
          "midi": 76,
          "name": "E5",
          "ticks": 58752,
          "time": 67.999932,
          "velocity": 0.3937007874015748
        },
        {
          "duration": 0.14814800000000616,
          "durationTicks": 128,
          "midi": 88,
          "name": "E6",
          "ticks": 58752,
          "time": 67.999932,
          "velocity": 0.3937007874015748
        },
        {
          "duration": 0.14814799999999195,
          "durationTicks": 128,
          "midi": 86,
          "name": "D6",
          "ticks": 58880,
          "time": 68.14808000000001,
          "velocity": 0.3937007874015748
        },
        {
          "duration": 0.14814799999999195,
          "durationTicks": 128,
          "midi": 74,
          "name": "D5",
          "ticks": 58880,
          "time": 68.14808000000001,
          "velocity": 0.3937007874015748
        },
        {
          "duration": 0.14814799999999195,
          "durationTicks": 128,
          "midi": 50,
          "name": "D3",
          "ticks": 58880,
          "time": 68.14808000000001,
          "velocity": 0.3937007874015748
        },
        {
          "duration": 0.14814800000000616,
          "durationTicks": 128,
          "midi": 71,
          "name": "B4",
          "ticks": 59008,
          "time": 68.296228,
          "velocity": 0.3937007874015748
        },
        {
          "duration": 0.14814800000000616,
          "durationTicks": 128,
          "midi": 83,
          "name": "B5",
          "ticks": 59008,
          "time": 68.296228,
          "velocity": 0.3937007874015748
        },
        {
          "duration": 0.14814800000000616,
          "durationTicks": 128,
          "midi": 47,
          "name": "B2",
          "ticks": 59008,
          "time": 68.296228,
          "velocity": 0.3937007874015748
        },
        {
          "duration": 0.14814800000000616,
          "durationTicks": 128,
          "midi": 57,
          "name": "A3",
          "ticks": 59136,
          "time": 68.444376,
          "velocity": 0.3937007874015748
        },
        {
          "duration": 0.14814800000000616,
          "durationTicks": 128,
          "midi": 81,
          "name": "A5",
          "ticks": 59136,
          "time": 68.444376,
          "velocity": 0.3937007874015748
        },
        {
          "duration": 0.14814800000000616,
          "durationTicks": 128,
          "midi": 93,
          "name": "A6",
          "ticks": 59136,
          "time": 68.444376,
          "velocity": 0.3937007874015748
        },
        {
          "duration": 0.14814799999999195,
          "durationTicks": 128,
          "midi": 80,
          "name": "G#5",
          "ticks": 59264,
          "time": 68.59252400000001,
          "velocity": 0.3937007874015748
        },
        {
          "duration": 0.14814799999999195,
          "durationTicks": 128,
          "midi": 56,
          "name": "G#3",
          "ticks": 59264,
          "time": 68.59252400000001,
          "velocity": 0.3937007874015748
        },
        {
          "duration": 0.14814799999999195,
          "durationTicks": 128,
          "midi": 92,
          "name": "G#6",
          "ticks": 59264,
          "time": 68.59252400000001,
          "velocity": 0.3937007874015748
        },
        {
          "duration": 0.14814799999999195,
          "durationTicks": 128,
          "midi": 78,
          "name": "F#5",
          "ticks": 59392,
          "time": 68.740672,
          "velocity": 0.3937007874015748
        },
        {
          "duration": 0.14814799999999195,
          "durationTicks": 128,
          "midi": 90,
          "name": "F#6",
          "ticks": 59392,
          "time": 68.740672,
          "velocity": 0.3937007874015748
        },
        {
          "duration": 0.14814799999999195,
          "durationTicks": 128,
          "midi": 54,
          "name": "F#3",
          "ticks": 59392,
          "time": 68.740672,
          "velocity": 0.3937007874015748
        },
        {
          "duration": 0.14814800000000616,
          "durationTicks": 128,
          "midi": 86,
          "name": "D6",
          "ticks": 59520,
          "time": 68.88882,
          "velocity": 0.3937007874015748
        },
        {
          "duration": 0.14814800000000616,
          "durationTicks": 128,
          "midi": 74,
          "name": "D5",
          "ticks": 59520,
          "time": 68.88882,
          "velocity": 0.3937007874015748
        },
        {
          "duration": 0.14814800000000616,
          "durationTicks": 128,
          "midi": 50,
          "name": "D3",
          "ticks": 59520,
          "time": 68.88882,
          "velocity": 0.3937007874015748
        },
        {
          "duration": 0.14814799999999195,
          "durationTicks": 128,
          "midi": 49,
          "name": "C#3",
          "ticks": 59648,
          "time": 69.036968,
          "velocity": 0.3937007874015748
        },
        {
          "duration": 0.14814799999999195,
          "durationTicks": 128,
          "midi": 85,
          "name": "C#6",
          "ticks": 59648,
          "time": 69.036968,
          "velocity": 0.3937007874015748
        },
        {
          "duration": 0.14814799999999195,
          "durationTicks": 128,
          "midi": 73,
          "name": "C#5",
          "ticks": 59648,
          "time": 69.036968,
          "velocity": 0.3937007874015748
        },
        {
          "duration": 0.14814800000000616,
          "durationTicks": 128,
          "midi": 83,
          "name": "B5",
          "ticks": 59776,
          "time": 69.185116,
          "velocity": 0.3937007874015748
        },
        {
          "duration": 0.14814800000000616,
          "durationTicks": 128,
          "midi": 71,
          "name": "B4",
          "ticks": 59776,
          "time": 69.185116,
          "velocity": 0.3937007874015748
        },
        {
          "duration": 0.14814800000000616,
          "durationTicks": 128,
          "midi": 47,
          "name": "B2",
          "ticks": 59776,
          "time": 69.185116,
          "velocity": 0.3937007874015748
        },
        {
          "duration": 0.11111100000000818,
          "durationTicks": 96,
          "midi": 69,
          "name": "A4",
          "ticks": 59904,
          "time": 69.333264,
          "velocity": 0.3937007874015748
        },
        {
          "duration": 0.11111100000000818,
          "durationTicks": 96,
          "midi": 50,
          "name": "D3",
          "ticks": 59904,
          "time": 69.333264,
          "velocity": 0.3937007874015748
        },
        {
          "duration": 0.11111100000000818,
          "durationTicks": 96,
          "midi": 59,
          "name": "B3",
          "ticks": 59904,
          "time": 69.333264,
          "velocity": 0.3937007874015748
        },
        {
          "duration": 0.11111099999999396,
          "durationTicks": 96,
          "midi": 71,
          "name": "B4",
          "ticks": 60000,
          "time": 69.44437500000001,
          "velocity": 0.3937007874015748
        },
        {
          "duration": 0.11111100000000818,
          "durationTicks": 96,
          "midi": 69,
          "name": "A4",
          "ticks": 60192,
          "time": 69.666597,
          "velocity": 0.3937007874015748
        },
        {
          "duration": 0.11111099999999396,
          "durationTicks": 96,
          "midi": 71,
          "name": "B4",
          "ticks": 60288,
          "time": 69.777708,
          "velocity": 0.3937007874015748
        },
        {
          "duration": 0.11111099999999396,
          "durationTicks": 96,
          "midi": 54,
          "name": "F#3",
          "ticks": 60288,
          "time": 69.777708,
          "velocity": 0.3937007874015748
        },
        {
          "duration": 0.11111099999999396,
          "durationTicks": 96,
          "midi": 50,
          "name": "D3",
          "ticks": 60288,
          "time": 69.777708,
          "velocity": 0.3937007874015748
        },
        {
          "duration": 0.11111099999999396,
          "durationTicks": 96,
          "midi": 59,
          "name": "B3",
          "ticks": 60288,
          "time": 69.777708,
          "velocity": 0.3937007874015748
        },
        {
          "duration": 0.11111099999999396,
          "durationTicks": 96,
          "midi": 69,
          "name": "A4",
          "ticks": 60480,
          "time": 69.99993,
          "velocity": 0.3937007874015748
        },
        {
          "duration": 0.11111099999999396,
          "durationTicks": 96,
          "midi": 71,
          "name": "B4",
          "ticks": 60576,
          "time": 70.111041,
          "velocity": 0.3937007874015748
        },
        {
          "duration": 0.11111100000000818,
          "durationTicks": 96,
          "midi": 59,
          "name": "B3",
          "ticks": 60672,
          "time": 70.222152,
          "velocity": 0.3937007874015748
        },
        {
          "duration": 0.11111100000000818,
          "durationTicks": 96,
          "midi": 50,
          "name": "D3",
          "ticks": 60672,
          "time": 70.222152,
          "velocity": 0.3937007874015748
        },
        {
          "duration": 0.11111099999999396,
          "durationTicks": 96,
          "midi": 69,
          "name": "A4",
          "ticks": 60768,
          "time": 70.333263,
          "velocity": 0.3937007874015748
        },
        {
          "duration": 0.11111100000000818,
          "durationTicks": 96,
          "midi": 71,
          "name": "B4",
          "ticks": 60864,
          "time": 70.444374,
          "velocity": 0.3937007874015748
        },
        {
          "duration": 0.11111100000000818,
          "durationTicks": 96,
          "midi": 59,
          "name": "B3",
          "ticks": 61056,
          "time": 70.666596,
          "velocity": 0.3937007874015748
        },
        {
          "duration": 0.11111100000000818,
          "durationTicks": 96,
          "midi": 50,
          "name": "D3",
          "ticks": 61056,
          "time": 70.666596,
          "velocity": 0.3937007874015748
        },
        {
          "duration": 0.11111100000000818,
          "durationTicks": 96,
          "midi": 54,
          "name": "F#3",
          "ticks": 61056,
          "time": 70.666596,
          "velocity": 0.3937007874015748
        },
        {
          "duration": 0.11111100000000818,
          "durationTicks": 96,
          "midi": 71,
          "name": "B4",
          "ticks": 61056,
          "time": 70.666596,
          "velocity": 0.3937007874015748
        },
        {
          "duration": 0.11111099999999396,
          "durationTicks": 96,
          "midi": 73,
          "name": "C#5",
          "ticks": 61152,
          "time": 70.777707,
          "velocity": 0.3937007874015748
        },
        {
          "duration": 0.11111099999999396,
          "durationTicks": 96,
          "midi": 54,
          "name": "F#3",
          "ticks": 61248,
          "time": 70.888818,
          "velocity": 0.3937007874015748
        },
        {
          "duration": 0.11111099999999396,
          "durationTicks": 96,
          "midi": 74,
          "name": "D5",
          "ticks": 61248,
          "time": 70.888818,
          "velocity": 0.3937007874015748
        },
        {
          "duration": 0.11111099999999396,
          "durationTicks": 96,
          "midi": 50,
          "name": "D3",
          "ticks": 61248,
          "time": 70.888818,
          "velocity": 0.3937007874015748
        },
        {
          "duration": 0.11111099999999396,
          "durationTicks": 96,
          "midi": 59,
          "name": "B3",
          "ticks": 61248,
          "time": 70.888818,
          "velocity": 0.3937007874015748
        },
        {
          "duration": 0.11111100000000818,
          "durationTicks": 96,
          "midi": 76,
          "name": "E5",
          "ticks": 61344,
          "time": 70.999929,
          "velocity": 0.3937007874015748
        },
        {
          "duration": 0.11111099999999396,
          "durationTicks": 96,
          "midi": 59,
          "name": "B3",
          "ticks": 61440,
          "time": 71.11104,
          "velocity": 0.3937007874015748
        },
        {
          "duration": 0.11111099999999396,
          "durationTicks": 96,
          "midi": 71,
          "name": "B4",
          "ticks": 61440,
          "time": 71.11104,
          "velocity": 0.3937007874015748
        },
        {
          "duration": 0.11111099999999396,
          "durationTicks": 96,
          "midi": 78,
          "name": "F#5",
          "ticks": 61440,
          "time": 71.11104,
          "velocity": 0.3937007874015748
        },
        {
          "duration": 0.11111099999999396,
          "durationTicks": 96,
          "midi": 74,
          "name": "D5",
          "ticks": 61440,
          "time": 71.11104,
          "velocity": 0.3937007874015748
        },
        {
          "duration": 0.11111099999999396,
          "durationTicks": 96,
          "midi": 47,
          "name": "B2",
          "ticks": 61440,
          "time": 71.11104,
          "velocity": 0.3937007874015748
        },
        {
          "duration": 0.11111100000000818,
          "durationTicks": 96,
          "midi": 77,
          "name": "F5",
          "ticks": 62016,
          "time": 71.777706,
          "velocity": 0.3937007874015748
        },
        {
          "duration": 0.11111100000000818,
          "durationTicks": 96,
          "midi": 56,
          "name": "G#3",
          "ticks": 62016,
          "time": 71.777706,
          "velocity": 0.3937007874015748
        },
        {
          "duration": 0.11111100000000818,
          "durationTicks": 96,
          "midi": 71,
          "name": "B4",
          "ticks": 62016,
          "time": 71.777706,
          "velocity": 0.3937007874015748
        },
        {
          "duration": 0.11111100000000818,
          "durationTicks": 96,
          "midi": 74,
          "name": "D5",
          "ticks": 62016,
          "time": 71.777706,
          "velocity": 0.3937007874015748
        },
        {
          "duration": 0.11111100000000818,
          "durationTicks": 96,
          "midi": 68,
          "name": "G#4",
          "ticks": 62016,
          "time": 71.777706,
          "velocity": 0.3937007874015748
        },
        {
          "duration": 0.11111100000000818,
          "durationTicks": 96,
          "midi": 44,
          "name": "G#2",
          "ticks": 62016,
          "time": 71.777706,
          "velocity": 0.3937007874015748
        },
        {
          "duration": 0.11111099999999396,
          "durationTicks": 96,
          "midi": 74,
          "name": "D5",
          "ticks": 62784,
          "time": 72.666594,
          "velocity": 0.3937007874015748
        },
        {
          "duration": 0.11111100000000818,
          "durationTicks": 96,
          "midi": 76,
          "name": "E5",
          "ticks": 62880,
          "time": 72.777705,
          "velocity": 0.3937007874015748
        },
        {
          "duration": 0.11111099999999396,
          "durationTicks": 96,
          "midi": 77,
          "name": "F5",
          "ticks": 62976,
          "time": 72.888816,
          "velocity": 0.3937007874015748
        },
        {
          "duration": 0.11111099999999396,
          "durationTicks": 96,
          "midi": 68,
          "name": "G#4",
          "ticks": 62976,
          "time": 72.888816,
          "velocity": 0.3937007874015748
        },
        {
          "duration": 0.11111099999999396,
          "durationTicks": 96,
          "midi": 49,
          "name": "C#3",
          "ticks": 62976,
          "time": 72.888816,
          "velocity": 0.3937007874015748
        },
        {
          "duration": 0.11111099999999396,
          "durationTicks": 96,
          "midi": 61,
          "name": "C#4",
          "ticks": 62976,
          "time": 72.888816,
          "velocity": 0.3937007874015748
        },
        {
          "duration": 0.11111099999999396,
          "durationTicks": 96,
          "midi": 71,
          "name": "B4",
          "ticks": 62976,
          "time": 72.888816,
          "velocity": 0.3937007874015748
        },
        {
          "duration": 0.11111099999999396,
          "durationTicks": 96,
          "midi": 76,
          "name": "E5",
          "ticks": 63264,
          "time": 73.222149,
          "velocity": 0.3937007874015748
        },
        {
          "duration": 0.11111100000000818,
          "durationTicks": 96,
          "midi": 74,
          "name": "D5",
          "ticks": 63552,
          "time": 73.555482,
          "velocity": 0.3937007874015748
        },
        {
          "duration": 0.11111099999999396,
          "durationTicks": 96,
          "midi": 70,
          "name": "A#4",
          "ticks": 63744,
          "time": 73.777704,
          "velocity": 0.3937007874015748
        },
        {
          "duration": 0.11111099999999396,
          "durationTicks": 96,
          "midi": 73,
          "name": "C#5",
          "ticks": 63744,
          "time": 73.777704,
          "velocity": 0.3937007874015748
        },
        {
          "duration": 0.11111099999999396,
          "durationTicks": 96,
          "midi": 42,
          "name": "F#2",
          "ticks": 63744,
          "time": 73.777704,
          "velocity": 0.3937007874015748
        },
        {
          "duration": 0.11111099999999396,
          "durationTicks": 96,
          "midi": 54,
          "name": "F#3",
          "ticks": 63744,
          "time": 73.777704,
          "velocity": 0.3937007874015748
        },
        {
          "duration": 0.11111099999999396,
          "durationTicks": 96,
          "midi": 64,
          "name": "E4",
          "ticks": 63744,
          "time": 73.777704,
          "velocity": 0.3937007874015748
        },
        {
          "duration": 0.11111100000000818,
          "durationTicks": 96,
          "midi": 74,
          "name": "D5",
          "ticks": 64032,
          "time": 74.111037,
          "velocity": 0.3937007874015748
        },
        {
          "duration": 0.11111099999999396,
          "durationTicks": 96,
          "midi": 76,
          "name": "E5",
          "ticks": 64320,
          "time": 74.44437,
          "velocity": 0.3937007874015748
        },
        {
          "duration": 0.11111100000000818,
          "durationTicks": 96,
          "midi": 78,
          "name": "F#5",
          "ticks": 64512,
          "time": 74.666592,
          "velocity": 0.3937007874015748
        },
        {
          "duration": 0.11111100000000818,
          "durationTicks": 96,
          "midi": 59,
          "name": "B3",
          "ticks": 64512,
          "time": 74.666592,
          "velocity": 0.3937007874015748
        },
        {
          "duration": 0.11111100000000818,
          "durationTicks": 96,
          "midi": 71,
          "name": "B4",
          "ticks": 64512,
          "time": 74.666592,
          "velocity": 0.3937007874015748
        },
        {
          "duration": 0.11111100000000818,
          "durationTicks": 96,
          "midi": 47,
          "name": "B2",
          "ticks": 64512,
          "time": 74.666592,
          "velocity": 0.3937007874015748
        },
        {
          "duration": 0.11111100000000818,
          "durationTicks": 96,
          "midi": 74,
          "name": "D5",
          "ticks": 64512,
          "time": 74.666592,
          "velocity": 0.3937007874015748
        },
        {
          "duration": 0.11111100000000818,
          "durationTicks": 96,
          "midi": 78,
          "name": "F#5",
          "ticks": 64896,
          "time": 75.111036,
          "velocity": 0.3937007874015748
        },
        {
          "duration": 0.11111099999999396,
          "durationTicks": 96,
          "midi": 83,
          "name": "B5",
          "ticks": 65088,
          "time": 75.333258,
          "velocity": 0.3937007874015748
        },
        {
          "duration": 0.11111099999999396,
          "durationTicks": 96,
          "midi": 44,
          "name": "G#2",
          "ticks": 65088,
          "time": 75.333258,
          "velocity": 0.3937007874015748
        },
        {
          "duration": 0.11111099999999396,
          "durationTicks": 96,
          "midi": 80,
          "name": "G#5",
          "ticks": 65088,
          "time": 75.333258,
          "velocity": 0.3937007874015748
        },
        {
          "duration": 0.11111099999999396,
          "durationTicks": 96,
          "midi": 56,
          "name": "G#3",
          "ticks": 65088,
          "time": 75.333258,
          "velocity": 0.3937007874015748
        },
        {
          "duration": 0.11111099999999396,
          "durationTicks": 96,
          "midi": 74,
          "name": "D5",
          "ticks": 65088,
          "time": 75.333258,
          "velocity": 0.3937007874015748
        },
        {
          "duration": 0.11111099999999396,
          "durationTicks": 96,
          "midi": 77,
          "name": "F5",
          "ticks": 65088,
          "time": 75.333258,
          "velocity": 0.3937007874015748
        },
        {
          "duration": 0.11111099999999396,
          "durationTicks": 96,
          "midi": 71,
          "name": "B4",
          "ticks": 65664,
          "time": 75.99992400000001,
          "velocity": 0.3937007874015748
        },
        {
          "duration": 0.11111100000000818,
          "durationTicks": 96,
          "midi": 73,
          "name": "C#5",
          "ticks": 65856,
          "time": 76.222146,
          "velocity": 0.3937007874015748
        },
        {
          "duration": 0.11111100000000818,
          "durationTicks": 96,
          "midi": 61,
          "name": "C#4",
          "ticks": 66048,
          "time": 76.444368,
          "velocity": 0.3937007874015748
        },
        {
          "duration": 0.11111100000000818,
          "durationTicks": 96,
          "midi": 68,
          "name": "G#4",
          "ticks": 66048,
          "time": 76.444368,
          "velocity": 0.3937007874015748
        },
        {
          "duration": 0.11111100000000818,
          "durationTicks": 96,
          "midi": 74,
          "name": "D5",
          "ticks": 66048,
          "time": 76.444368,
          "velocity": 0.3937007874015748
        },
        {
          "duration": 0.11111100000000818,
          "durationTicks": 96,
          "midi": 49,
          "name": "C#3",
          "ticks": 66048,
          "time": 76.444368,
          "velocity": 0.3937007874015748
        },
        {
          "duration": 0.11111100000000818,
          "durationTicks": 96,
          "midi": 71,
          "name": "B4",
          "ticks": 66048,
          "time": 76.444368,
          "velocity": 0.3937007874015748
        },
        {
          "duration": 0.11111099999999396,
          "durationTicks": 96,
          "midi": 76,
          "name": "E5",
          "ticks": 66336,
          "time": 76.77770100000001,
          "velocity": 0.3937007874015748
        },
        {
          "duration": 0.11111099999999396,
          "durationTicks": 96,
          "midi": 74,
          "name": "D5",
          "ticks": 66624,
          "time": 77.111034,
          "velocity": 0.3937007874015748
        },
        {
          "duration": 0.11111099999999396,
          "durationTicks": 96,
          "midi": 54,
          "name": "F#3",
          "ticks": 66816,
          "time": 77.333256,
          "velocity": 0.3937007874015748
        },
        {
          "duration": 0.11111099999999396,
          "durationTicks": 96,
          "midi": 70,
          "name": "A#4",
          "ticks": 66816,
          "time": 77.333256,
          "velocity": 0.3937007874015748
        },
        {
          "duration": 0.11111099999999396,
          "durationTicks": 96,
          "midi": 64,
          "name": "E4",
          "ticks": 66816,
          "time": 77.333256,
          "velocity": 0.3937007874015748
        },
        {
          "duration": 0.11111099999999396,
          "durationTicks": 96,
          "midi": 73,
          "name": "C#5",
          "ticks": 66816,
          "time": 77.333256,
          "velocity": 0.3937007874015748
        },
        {
          "duration": 0.11111099999999396,
          "durationTicks": 96,
          "midi": 42,
          "name": "F#2",
          "ticks": 66816,
          "time": 77.333256,
          "velocity": 0.3937007874015748
        },
        {
          "duration": 0.11111099999999396,
          "durationTicks": 96,
          "midi": 81,
          "name": "A5",
          "ticks": 67104,
          "time": 77.666589,
          "velocity": 0.3937007874015748
        },
        {
          "duration": 0.11111100000000818,
          "durationTicks": 96,
          "midi": 79,
          "name": "G5",
          "ticks": 67392,
          "time": 77.999922,
          "velocity": 0.3937007874015748
        },
        {
          "duration": 0.11111099999999396,
          "durationTicks": 96,
          "midi": 74,
          "name": "D5",
          "ticks": 67584,
          "time": 78.222144,
          "velocity": 0.3937007874015748
        },
        {
          "duration": 0.11111099999999396,
          "durationTicks": 96,
          "midi": 47,
          "name": "B2",
          "ticks": 67584,
          "time": 78.222144,
          "velocity": 0.3937007874015748
        },
        {
          "duration": 0.11111099999999396,
          "durationTicks": 96,
          "midi": 71,
          "name": "B4",
          "ticks": 67584,
          "time": 78.222144,
          "velocity": 0.3937007874015748
        },
        {
          "duration": 0.11111099999999396,
          "durationTicks": 96,
          "midi": 78,
          "name": "F#5",
          "ticks": 67584,
          "time": 78.222144,
          "velocity": 0.3937007874015748
        },
        {
          "duration": 0.11111099999999396,
          "durationTicks": 96,
          "midi": 47,
          "name": "B2",
          "ticks": 67776,
          "time": 78.444366,
          "velocity": 0.3937007874015748
        },
        {
          "duration": 0.11111099999999396,
          "durationTicks": 96,
          "midi": 47,
          "name": "B2",
          "ticks": 67968,
          "time": 78.666588,
          "velocity": 0.3937007874015748
        },
        {
          "duration": 0.11111100000000818,
          "durationTicks": 96,
          "midi": 45,
          "name": "A2",
          "ticks": 68064,
          "time": 78.777699,
          "velocity": 0.3937007874015748
        },
        {
          "duration": 0.11111099999999396,
          "durationTicks": 96,
          "midi": 74,
          "name": "D5",
          "ticks": 68160,
          "time": 78.88881,
          "velocity": 0.3937007874015748
        },
        {
          "duration": 0.11111099999999396,
          "durationTicks": 96,
          "midi": 77,
          "name": "F5",
          "ticks": 68160,
          "time": 78.88881,
          "velocity": 0.3937007874015748
        },
        {
          "duration": 0.11111099999999396,
          "durationTicks": 96,
          "midi": 68,
          "name": "G#4",
          "ticks": 68160,
          "time": 78.88881,
          "velocity": 0.3937007874015748
        },
        {
          "duration": 0.11111099999999396,
          "durationTicks": 96,
          "midi": 71,
          "name": "B4",
          "ticks": 68160,
          "time": 78.88881,
          "velocity": 0.3937007874015748
        },
        {
          "duration": 0.11111099999999396,
          "durationTicks": 96,
          "midi": 47,
          "name": "B2",
          "ticks": 68256,
          "time": 78.999921,
          "velocity": 0.3937007874015748
        },
        {
          "duration": 0.11111099999999396,
          "durationTicks": 96,
          "midi": 50,
          "name": "D3",
          "ticks": 68448,
          "time": 79.222143,
          "velocity": 0.3937007874015748
        },
        {
          "duration": 0.11111099999999396,
          "durationTicks": 96,
          "midi": 47,
          "name": "B2",
          "ticks": 68640,
          "time": 79.444365,
          "velocity": 0.3937007874015748
        },
        {
          "duration": 0.11111099999999396,
          "durationTicks": 96,
          "midi": 42,
          "name": "F#2",
          "ticks": 68832,
          "time": 79.666587,
          "velocity": 0.3937007874015748
        },
        {
          "duration": 0.11111099999999396,
          "durationTicks": 96,
          "midi": 45,
          "name": "A2",
          "ticks": 68928,
          "time": 79.777698,
          "velocity": 0.3937007874015748
        },
        {
          "duration": 0.11111099999999396,
          "durationTicks": 96,
          "midi": 74,
          "name": "D5",
          "ticks": 68928,
          "time": 79.777698,
          "velocity": 0.3937007874015748
        },
        {
          "duration": 0.11111100000000818,
          "durationTicks": 96,
          "midi": 76,
          "name": "E5",
          "ticks": 69024,
          "time": 79.888809,
          "velocity": 0.3937007874015748
        },
        {
          "duration": 0.11111099999999396,
          "durationTicks": 96,
          "midi": 68,
          "name": "G#4",
          "ticks": 69120,
          "time": 79.99992,
          "velocity": 0.3937007874015748
        },
        {
          "duration": 0.11111099999999396,
          "durationTicks": 96,
          "midi": 47,
          "name": "B2",
          "ticks": 69120,
          "time": 79.99992,
          "velocity": 0.3937007874015748
        },
        {
          "duration": 0.11111099999999396,
          "durationTicks": 96,
          "midi": 71,
          "name": "B4",
          "ticks": 69120,
          "time": 79.99992,
          "velocity": 0.3937007874015748
        },
        {
          "duration": 0.11111099999999396,
          "durationTicks": 96,
          "midi": 77,
          "name": "F5",
          "ticks": 69120,
          "time": 79.99992,
          "velocity": 0.3937007874015748
        },
        {
          "duration": 0.11111099999999396,
          "durationTicks": 96,
          "midi": 47,
          "name": "B2",
          "ticks": 69312,
          "time": 80.222142,
          "velocity": 0.3937007874015748
        },
        {
          "duration": 0.11111100000000818,
          "durationTicks": 96,
          "midi": 76,
          "name": "E5",
          "ticks": 69408,
          "time": 80.333253,
          "velocity": 0.3937007874015748
        },
        {
          "duration": 0.11111099999999396,
          "durationTicks": 96,
          "midi": 47,
          "name": "B2",
          "ticks": 69504,
          "time": 80.44436400000001,
          "velocity": 0.3937007874015748
        },
        {
          "duration": 0.11111099999999396,
          "durationTicks": 96,
          "midi": 45,
          "name": "A2",
          "ticks": 69600,
          "time": 80.555475,
          "velocity": 0.3937007874015748
        },
        {
          "duration": 0.11111100000000818,
          "durationTicks": 96,
          "midi": 74,
          "name": "D5",
          "ticks": 69696,
          "time": 80.666586,
          "velocity": 0.3937007874015748
        },
        {
          "duration": 0.11111100000000818,
          "durationTicks": 96,
          "midi": 47,
          "name": "B2",
          "ticks": 69696,
          "time": 80.666586,
          "velocity": 0.3937007874015748
        },
        {
          "duration": 0.11111099999999396,
          "durationTicks": 96,
          "midi": 50,
          "name": "D3",
          "ticks": 69792,
          "time": 80.777697,
          "velocity": 0.3937007874015748
        },
        {
          "duration": 0.11111100000000818,
          "durationTicks": 96,
          "midi": 73,
          "name": "C#5",
          "ticks": 69888,
          "time": 80.888808,
          "velocity": 0.3937007874015748
        },
        {
          "duration": 0.11111100000000818,
          "durationTicks": 96,
          "midi": 70,
          "name": "A#4",
          "ticks": 69888,
          "time": 80.888808,
          "velocity": 0.3937007874015748
        },
        {
          "duration": 0.11111100000000818,
          "durationTicks": 96,
          "midi": 64,
          "name": "E4",
          "ticks": 69888,
          "time": 80.888808,
          "velocity": 0.3937007874015748
        },
        {
          "duration": 0.11111099999999396,
          "durationTicks": 96,
          "midi": 53,
          "name": "F3",
          "ticks": 69984,
          "time": 80.999919,
          "velocity": 0.3937007874015748
        },
        {
          "duration": 0.11111099999999396,
          "durationTicks": 96,
          "midi": 74,
          "name": "D5",
          "ticks": 70176,
          "time": 81.22214100000001,
          "velocity": 0.3937007874015748
        },
        {
          "duration": 0.11111099999999396,
          "durationTicks": 96,
          "midi": 52,
          "name": "E3",
          "ticks": 70176,
          "time": 81.22214100000001,
          "velocity": 0.3937007874015748
        },
        {
          "duration": 0.11111100000000818,
          "durationTicks": 96,
          "midi": 50,
          "name": "D3",
          "ticks": 70368,
          "time": 81.444363,
          "velocity": 0.3937007874015748
        },
        {
          "duration": 0.11111099999999396,
          "durationTicks": 96,
          "midi": 45,
          "name": "A2",
          "ticks": 70464,
          "time": 81.555474,
          "velocity": 0.3937007874015748
        },
        {
          "duration": 0.11111099999999396,
          "durationTicks": 96,
          "midi": 76,
          "name": "E5",
          "ticks": 70464,
          "time": 81.555474,
          "velocity": 0.3937007874015748
        },
        {
          "duration": 0.11111099999999396,
          "durationTicks": 96,
          "midi": 71,
          "name": "B4",
          "ticks": 70656,
          "time": 81.777696,
          "velocity": 0.3937007874015748
        },
        {
          "duration": 0.11111099999999396,
          "durationTicks": 96,
          "midi": 47,
          "name": "B2",
          "ticks": 70656,
          "time": 81.777696,
          "velocity": 0.3937007874015748
        },
        {
          "duration": 0.11111099999999396,
          "durationTicks": 96,
          "midi": 74,
          "name": "D5",
          "ticks": 70656,
          "time": 81.777696,
          "velocity": 0.3937007874015748
        },
        {
          "duration": 0.11111099999999396,
          "durationTicks": 96,
          "midi": 78,
          "name": "F#5",
          "ticks": 70656,
          "time": 81.777696,
          "velocity": 0.3937007874015748
        },
        {
          "duration": 0.11111099999999396,
          "durationTicks": 96,
          "midi": 59,
          "name": "B3",
          "ticks": 70656,
          "time": 81.777696,
          "velocity": 0.3937007874015748
        },
        {
          "duration": 0.11111100000000818,
          "durationTicks": 96,
          "midi": 78,
          "name": "F#5",
          "ticks": 71040,
          "time": 82.22214,
          "velocity": 0.3937007874015748
        },
        {
          "duration": 0.11111100000000818,
          "durationTicks": 96,
          "midi": 83,
          "name": "B5",
          "ticks": 71232,
          "time": 82.444362,
          "velocity": 0.3937007874015748
        },
        {
          "duration": 0.11111100000000818,
          "durationTicks": 96,
          "midi": 77,
          "name": "F5",
          "ticks": 71232,
          "time": 82.444362,
          "velocity": 0.3937007874015748
        },
        {
          "duration": 0.11111100000000818,
          "durationTicks": 96,
          "midi": 80,
          "name": "G#5",
          "ticks": 71232,
          "time": 82.444362,
          "velocity": 0.3937007874015748
        },
        {
          "duration": 0.11111100000000818,
          "durationTicks": 96,
          "midi": 44,
          "name": "G#2",
          "ticks": 71232,
          "time": 82.444362,
          "velocity": 0.3937007874015748
        },
        {
          "duration": 0.11111100000000818,
          "durationTicks": 96,
          "midi": 56,
          "name": "G#3",
          "ticks": 71232,
          "time": 82.444362,
          "velocity": 0.3937007874015748
        },
        {
          "duration": 0.11111100000000818,
          "durationTicks": 96,
          "midi": 74,
          "name": "D5",
          "ticks": 71232,
          "time": 82.444362,
          "velocity": 0.3937007874015748
        },
        {
          "duration": 0.11111099999999396,
          "durationTicks": 96,
          "midi": 83,
          "name": "B5",
          "ticks": 71808,
          "time": 83.111028,
          "velocity": 0.3937007874015748
        },
        {
          "duration": 0.11111099999999396,
          "durationTicks": 96,
          "midi": 85,
          "name": "C#6",
          "ticks": 72000,
          "time": 83.33325,
          "velocity": 0.3937007874015748
        },
        {
          "duration": 0.11111100000000818,
          "durationTicks": 96,
          "midi": 80,
          "name": "G#5",
          "ticks": 72192,
          "time": 83.555472,
          "velocity": 0.3937007874015748
        },
        {
          "duration": 0.11111100000000818,
          "durationTicks": 96,
          "midi": 86,
          "name": "D6",
          "ticks": 72192,
          "time": 83.555472,
          "velocity": 0.3937007874015748
        },
        {
          "duration": 0.11111100000000818,
          "durationTicks": 96,
          "midi": 62,
          "name": "D4",
          "ticks": 72192,
          "time": 83.555472,
          "velocity": 0.3937007874015748
        },
        {
          "duration": 0.11111100000000818,
          "durationTicks": 96,
          "midi": 50,
          "name": "D3",
          "ticks": 72192,
          "time": 83.555472,
          "velocity": 0.3937007874015748
        },
        {
          "duration": 0.11111100000000818,
          "durationTicks": 96,
          "midi": 83,
          "name": "B5",
          "ticks": 72192,
          "time": 83.555472,
          "velocity": 0.3937007874015748
        },
        {
          "duration": 0.11111099999999396,
          "durationTicks": 96,
          "midi": 79,
          "name": "G5",
          "ticks": 72480,
          "time": 83.888805,
          "velocity": 0.3937007874015748
        },
        {
          "duration": 0.11111099999999396,
          "durationTicks": 96,
          "midi": 55,
          "name": "G3",
          "ticks": 72480,
          "time": 83.888805,
          "velocity": 0.3937007874015748
        },
        {
          "duration": 0.11111099999999396,
          "durationTicks": 96,
          "midi": 43,
          "name": "G2",
          "ticks": 72480,
          "time": 83.888805,
          "velocity": 0.3937007874015748
        },
        {
          "duration": 0.11111099999999396,
          "durationTicks": 96,
          "midi": 54,
          "name": "F#3",
          "ticks": 72768,
          "time": 84.222138,
          "velocity": 0.3937007874015748
        },
        {
          "duration": 0.11111099999999396,
          "durationTicks": 96,
          "midi": 42,
          "name": "F#2",
          "ticks": 72768,
          "time": 84.222138,
          "velocity": 0.3937007874015748
        },
        {
          "duration": 0.11111099999999396,
          "durationTicks": 96,
          "midi": 78,
          "name": "F#5",
          "ticks": 72768,
          "time": 84.222138,
          "velocity": 0.3937007874015748
        },
        {
          "duration": 0.11111099999999396,
          "durationTicks": 96,
          "midi": 53,
          "name": "F3",
          "ticks": 72960,
          "time": 84.44436,
          "velocity": 0.3937007874015748
        },
        {
          "duration": 0.11111099999999396,
          "durationTicks": 96,
          "midi": 77,
          "name": "F5",
          "ticks": 72960,
          "time": 84.44436,
          "velocity": 0.3937007874015748
        },
        {
          "duration": 0.11111099999999396,
          "durationTicks": 96,
          "midi": 41,
          "name": "F2",
          "ticks": 72960,
          "time": 84.44436,
          "velocity": 0.3937007874015748
        },
        {
          "duration": 0.11111100000000818,
          "durationTicks": 96,
          "midi": 86,
          "name": "D6",
          "ticks": 73248,
          "time": 84.777693,
          "velocity": 0.3937007874015748
        },
        {
          "duration": 0.11111100000000818,
          "durationTicks": 96,
          "midi": 50,
          "name": "D3",
          "ticks": 73248,
          "time": 84.777693,
          "velocity": 0.3937007874015748
        },
        {
          "duration": 0.11111100000000818,
          "durationTicks": 96,
          "midi": 62,
          "name": "D4",
          "ticks": 73248,
          "time": 84.777693,
          "velocity": 0.3937007874015748
        },
        {
          "duration": 0.11111100000000818,
          "durationTicks": 96,
          "midi": 82,
          "name": "A#5",
          "ticks": 73536,
          "time": 85.111026,
          "velocity": 0.3937007874015748
        },
        {
          "duration": 0.11111100000000818,
          "durationTicks": 96,
          "midi": 58,
          "name": "A#3",
          "ticks": 73536,
          "time": 85.111026,
          "velocity": 0.3937007874015748
        },
        {
          "duration": 0.11111100000000818,
          "durationTicks": 96,
          "midi": 46,
          "name": "A#2",
          "ticks": 73536,
          "time": 85.111026,
          "velocity": 0.3937007874015748
        },
        {
          "duration": 0.11111100000000818,
          "durationTicks": 96,
          "midi": 83,
          "name": "B5",
          "ticks": 73728,
          "time": 85.333248,
          "velocity": 0.3937007874015748
        },
        {
          "duration": 0.11111100000000818,
          "durationTicks": 96,
          "midi": 71,
          "name": "B4",
          "ticks": 73728,
          "time": 85.333248,
          "velocity": 0.3937007874015748
        },
        {
          "duration": 0.11111100000000818,
          "durationTicks": 96,
          "midi": 74,
          "name": "D5",
          "ticks": 73728,
          "time": 85.333248,
          "velocity": 0.3937007874015748
        },
        {
          "duration": 0.11111100000000818,
          "durationTicks": 96,
          "midi": 47,
          "name": "B2",
          "ticks": 73728,
          "time": 85.333248,
          "velocity": 0.3937007874015748
        },
        {
          "duration": 0.11111100000000818,
          "durationTicks": 96,
          "midi": 78,
          "name": "F#5",
          "ticks": 73728,
          "time": 85.333248,
          "velocity": 0.3937007874015748
        },
        {
          "duration": 0.11111100000000818,
          "durationTicks": 96,
          "midi": 59,
          "name": "B3",
          "ticks": 73728,
          "time": 85.333248,
          "velocity": 0.3937007874015748
        },
        {
          "duration": 0.11111100000000818,
          "durationTicks": 96,
          "midi": 59,
          "name": "B3",
          "ticks": 73920,
          "time": 85.55547,
          "velocity": 0.3937007874015748
        },
        {
          "duration": 0.11111100000000818,
          "durationTicks": 96,
          "midi": 47,
          "name": "B2",
          "ticks": 73920,
          "time": 85.55547,
          "velocity": 0.3937007874015748
        },
        {
          "duration": 0.11111099999999396,
          "durationTicks": 96,
          "midi": 47,
          "name": "B2",
          "ticks": 74112,
          "time": 85.777692,
          "velocity": 0.3937007874015748
        },
        {
          "duration": 0.11111099999999396,
          "durationTicks": 96,
          "midi": 59,
          "name": "B3",
          "ticks": 74112,
          "time": 85.777692,
          "velocity": 0.3937007874015748
        },
        {
          "duration": 0.11111100000000818,
          "durationTicks": 96,
          "midi": 45,
          "name": "A2",
          "ticks": 74208,
          "time": 85.888803,
          "velocity": 0.3937007874015748
        },
        {
          "duration": 0.11111100000000818,
          "durationTicks": 96,
          "midi": 57,
          "name": "A3",
          "ticks": 74208,
          "time": 85.888803,
          "velocity": 0.3937007874015748
        },
        {
          "duration": 0.11111100000000818,
          "durationTicks": 96,
          "midi": 47,
          "name": "B2",
          "ticks": 74400,
          "time": 86.111025,
          "velocity": 0.3937007874015748
        },
        {
          "duration": 0.11111100000000818,
          "durationTicks": 96,
          "midi": 59,
          "name": "B3",
          "ticks": 74400,
          "time": 86.111025,
          "velocity": 0.3937007874015748
        },
        {
          "duration": 0.11111099999999396,
          "durationTicks": 96,
          "midi": 62,
          "name": "D4",
          "ticks": 74592,
          "time": 86.333247,
          "velocity": 0.3937007874015748
        },
        {
          "duration": 0.11111099999999396,
          "durationTicks": 96,
          "midi": 50,
          "name": "D3",
          "ticks": 74592,
          "time": 86.333247,
          "velocity": 0.3937007874015748
        },
        {
          "duration": 0.11111099999999396,
          "durationTicks": 96,
          "midi": 47,
          "name": "B2",
          "ticks": 74784,
          "time": 86.555469,
          "velocity": 0.3937007874015748
        },
        {
          "duration": 0.11111099999999396,
          "durationTicks": 96,
          "midi": 59,
          "name": "B3",
          "ticks": 74784,
          "time": 86.555469,
          "velocity": 0.3937007874015748
        },
        {
          "duration": 0.11111099999999396,
          "durationTicks": 96,
          "midi": 42,
          "name": "F#2",
          "ticks": 74976,
          "time": 86.777691,
          "velocity": 0.3937007874015748
        },
        {
          "duration": 0.11111099999999396,
          "durationTicks": 96,
          "midi": 54,
          "name": "F#3",
          "ticks": 74976,
          "time": 86.777691,
          "velocity": 0.3937007874015748
        },
        {
          "duration": 0.11111100000000818,
          "durationTicks": 96,
          "midi": 45,
          "name": "A2",
          "ticks": 75072,
          "time": 86.888802,
          "velocity": 0.3937007874015748
        },
        {
          "duration": 0.11111100000000818,
          "durationTicks": 96,
          "midi": 57,
          "name": "A3",
          "ticks": 75072,
          "time": 86.888802,
          "velocity": 0.3937007874015748
        },
        {
          "duration": 0.11111099999999396,
          "durationTicks": 96,
          "midi": 47,
          "name": "B2",
          "ticks": 75264,
          "time": 87.111024,
          "velocity": 0.3937007874015748
        },
        {
          "duration": 0.11111099999999396,
          "durationTicks": 96,
          "midi": 59,
          "name": "B3",
          "ticks": 75264,
          "time": 87.111024,
          "velocity": 0.3937007874015748
        },
        {
          "duration": 0.11111099999999396,
          "durationTicks": 96,
          "midi": 59,
          "name": "B3",
          "ticks": 75456,
          "time": 87.333246,
          "velocity": 0.3937007874015748
        },
        {
          "duration": 0.11111099999999396,
          "durationTicks": 96,
          "midi": 47,
          "name": "B2",
          "ticks": 75456,
          "time": 87.333246,
          "velocity": 0.3937007874015748
        },
        {
          "duration": 0.11111099999999396,
          "durationTicks": 96,
          "midi": 47,
          "name": "B2",
          "ticks": 75648,
          "time": 87.555468,
          "velocity": 0.3937007874015748
        },
        {
          "duration": 0.11111099999999396,
          "durationTicks": 96,
          "midi": 59,
          "name": "B3",
          "ticks": 75648,
          "time": 87.555468,
          "velocity": 0.3937007874015748
        },
        {
          "duration": 0.11111100000000818,
          "durationTicks": 96,
          "midi": 57,
          "name": "A3",
          "ticks": 75744,
          "time": 87.666579,
          "velocity": 0.3937007874015748
        },
        {
          "duration": 0.11111100000000818,
          "durationTicks": 96,
          "midi": 45,
          "name": "A2",
          "ticks": 75744,
          "time": 87.666579,
          "velocity": 0.3937007874015748
        },
        {
          "duration": 0.11111099999999396,
          "durationTicks": 96,
          "midi": 59,
          "name": "B3",
          "ticks": 75936,
          "time": 87.888801,
          "velocity": 0.3937007874015748
        },
        {
          "duration": 0.11111099999999396,
          "durationTicks": 96,
          "midi": 47,
          "name": "B2",
          "ticks": 75936,
          "time": 87.888801,
          "velocity": 0.3937007874015748
        },
        {
          "duration": 0.11111099999999396,
          "durationTicks": 96,
          "midi": 65,
          "name": "F4",
          "ticks": 76128,
          "time": 88.111023,
          "velocity": 0.3937007874015748
        },
        {
          "duration": 0.11111099999999396,
          "durationTicks": 96,
          "midi": 53,
          "name": "F3",
          "ticks": 76128,
          "time": 88.111023,
          "velocity": 0.3937007874015748
        },
        {
          "duration": 0.11111099999999396,
          "durationTicks": 96,
          "midi": 64,
          "name": "E4",
          "ticks": 76320,
          "time": 88.333245,
          "velocity": 0.3937007874015748
        },
        {
          "duration": 0.11111099999999396,
          "durationTicks": 96,
          "midi": 52,
          "name": "E3",
          "ticks": 76320,
          "time": 88.333245,
          "velocity": 0.3937007874015748
        },
        {
          "duration": 0.11111099999999396,
          "durationTicks": 96,
          "midi": 50,
          "name": "D3",
          "ticks": 76512,
          "time": 88.55546700000001,
          "velocity": 0.3937007874015748
        },
        {
          "duration": 0.11111099999999396,
          "durationTicks": 96,
          "midi": 62,
          "name": "D4",
          "ticks": 76512,
          "time": 88.55546700000001,
          "velocity": 0.3937007874015748
        },
        {
          "duration": 0.11111099999999396,
          "durationTicks": 96,
          "midi": 45,
          "name": "A2",
          "ticks": 76608,
          "time": 88.666578,
          "velocity": 0.3937007874015748
        },
        {
          "duration": 0.11111099999999396,
          "durationTicks": 96,
          "midi": 57,
          "name": "A3",
          "ticks": 76608,
          "time": 88.666578,
          "velocity": 0.3937007874015748
        },
        {
          "duration": 0.11111099999999396,
          "durationTicks": 96,
          "midi": 47,
          "name": "B2",
          "ticks": 76800,
          "time": 88.8888,
          "velocity": 0.3937007874015748
        },
        {
          "duration": 0.11111099999999396,
          "durationTicks": 96,
          "midi": 59,
          "name": "B3",
          "ticks": 76800,
          "time": 88.8888,
          "velocity": 0.3937007874015748
        },
        {
          "duration": 0.11111099999999396,
          "durationTicks": 96,
          "midi": 47,
          "name": "B2",
          "ticks": 76992,
          "time": 89.111022,
          "velocity": 0.3937007874015748
        },
        {
          "duration": 0.11111099999999396,
          "durationTicks": 96,
          "midi": 59,
          "name": "B3",
          "ticks": 76992,
          "time": 89.111022,
          "velocity": 0.3937007874015748
        },
        {
          "duration": 0.11111099999999396,
          "durationTicks": 96,
          "midi": 47,
          "name": "B2",
          "ticks": 77184,
          "time": 89.33324400000001,
          "velocity": 0.3937007874015748
        },
        {
          "duration": 0.11111099999999396,
          "durationTicks": 96,
          "midi": 59,
          "name": "B3",
          "ticks": 77184,
          "time": 89.33324400000001,
          "velocity": 0.3937007874015748
        },
        {
          "duration": 0.11111099999999396,
          "durationTicks": 96,
          "midi": 45,
          "name": "A2",
          "ticks": 77280,
          "time": 89.444355,
          "velocity": 0.3937007874015748
        },
        {
          "duration": 0.11111099999999396,
          "durationTicks": 96,
          "midi": 57,
          "name": "A3",
          "ticks": 77280,
          "time": 89.444355,
          "velocity": 0.3937007874015748
        },
        {
          "duration": 0.11111099999999396,
          "durationTicks": 96,
          "midi": 47,
          "name": "B2",
          "ticks": 77472,
          "time": 89.666577,
          "velocity": 0.3937007874015748
        },
        {
          "duration": 0.11111099999999396,
          "durationTicks": 96,
          "midi": 59,
          "name": "B3",
          "ticks": 77472,
          "time": 89.666577,
          "velocity": 0.3937007874015748
        },
        {
          "duration": 0.11111099999999396,
          "durationTicks": 96,
          "midi": 62,
          "name": "D4",
          "ticks": 77664,
          "time": 89.888799,
          "velocity": 0.3937007874015748
        },
        {
          "duration": 0.11111099999999396,
          "durationTicks": 96,
          "midi": 50,
          "name": "D3",
          "ticks": 77664,
          "time": 89.888799,
          "velocity": 0.3937007874015748
        },
        {
          "duration": 0.11111099999999396,
          "durationTicks": 96,
          "midi": 47,
          "name": "B2",
          "ticks": 77856,
          "time": 90.11102100000001,
          "velocity": 0.3937007874015748
        },
        {
          "duration": 0.11111099999999396,
          "durationTicks": 96,
          "midi": 59,
          "name": "B3",
          "ticks": 77856,
          "time": 90.11102100000001,
          "velocity": 0.3937007874015748
        },
        {
          "duration": 0.11111100000000818,
          "durationTicks": 96,
          "midi": 42,
          "name": "F#2",
          "ticks": 78048,
          "time": 90.333243,
          "velocity": 0.3937007874015748
        },
        {
          "duration": 0.11111100000000818,
          "durationTicks": 96,
          "midi": 54,
          "name": "F#3",
          "ticks": 78048,
          "time": 90.333243,
          "velocity": 0.3937007874015748
        },
        {
          "duration": 0.11111099999999396,
          "durationTicks": 96,
          "midi": 57,
          "name": "A3",
          "ticks": 78144,
          "time": 90.444354,
          "velocity": 0.3937007874015748
        },
        {
          "duration": 0.11111099999999396,
          "durationTicks": 96,
          "midi": 45,
          "name": "A2",
          "ticks": 78144,
          "time": 90.444354,
          "velocity": 0.3937007874015748
        },
        {
          "duration": 0.11111099999999396,
          "durationTicks": 96,
          "midi": 59,
          "name": "B3",
          "ticks": 78336,
          "time": 90.666576,
          "velocity": 0.3937007874015748
        },
        {
          "duration": 0.11111099999999396,
          "durationTicks": 96,
          "midi": 47,
          "name": "B2",
          "ticks": 78336,
          "time": 90.666576,
          "velocity": 0.3937007874015748
        },
        {
          "duration": 0.11111100000000818,
          "durationTicks": 96,
          "midi": 47,
          "name": "B2",
          "ticks": 78528,
          "time": 90.888798,
          "velocity": 0.3937007874015748
        },
        {
          "duration": 0.11111100000000818,
          "durationTicks": 96,
          "midi": 59,
          "name": "B3",
          "ticks": 78528,
          "time": 90.888798,
          "velocity": 0.3937007874015748
        },
        {
          "duration": 0.11111100000000818,
          "durationTicks": 96,
          "midi": 47,
          "name": "B2",
          "ticks": 78720,
          "time": 91.11102,
          "velocity": 0.3937007874015748
        },
        {
          "duration": 0.11111100000000818,
          "durationTicks": 96,
          "midi": 59,
          "name": "B3",
          "ticks": 78720,
          "time": 91.11102,
          "velocity": 0.3937007874015748
        },
        {
          "duration": 0.11111099999999396,
          "durationTicks": 96,
          "midi": 57,
          "name": "A3",
          "ticks": 78816,
          "time": 91.222131,
          "velocity": 0.3937007874015748
        },
        {
          "duration": 0.11111099999999396,
          "durationTicks": 96,
          "midi": 45,
          "name": "A2",
          "ticks": 78816,
          "time": 91.222131,
          "velocity": 0.3937007874015748
        },
        {
          "duration": 0.11111100000000818,
          "durationTicks": 96,
          "midi": 47,
          "name": "B2",
          "ticks": 78912,
          "time": 91.333242,
          "velocity": 0.3937007874015748
        },
        {
          "duration": 0.11111100000000818,
          "durationTicks": 96,
          "midi": 59,
          "name": "B3",
          "ticks": 78912,
          "time": 91.333242,
          "velocity": 0.3937007874015748
        },
        {
          "duration": 0.11111099999999396,
          "durationTicks": 96,
          "midi": 62,
          "name": "D4",
          "ticks": 79008,
          "time": 91.444353,
          "velocity": 0.3937007874015748
        },
        {
          "duration": 0.11111099999999396,
          "durationTicks": 96,
          "midi": 50,
          "name": "D3",
          "ticks": 79008,
          "time": 91.444353,
          "velocity": 0.3937007874015748
        },
        {
          "duration": 0.11111100000000818,
          "durationTicks": 96,
          "midi": 65,
          "name": "F4",
          "ticks": 79200,
          "time": 91.666575,
          "velocity": 0.3937007874015748
        },
        {
          "duration": 0.11111100000000818,
          "durationTicks": 96,
          "midi": 53,
          "name": "F3",
          "ticks": 79200,
          "time": 91.666575,
          "velocity": 0.3937007874015748
        },
        {
          "duration": 0.11111100000000818,
          "durationTicks": 96,
          "midi": 64,
          "name": "E4",
          "ticks": 79392,
          "time": 91.888797,
          "velocity": 0.3937007874015748
        },
        {
          "duration": 0.11111100000000818,
          "durationTicks": 96,
          "midi": 52,
          "name": "E3",
          "ticks": 79392,
          "time": 91.888797,
          "velocity": 0.3937007874015748
        },
        {
          "duration": 0.11111100000000818,
          "durationTicks": 96,
          "midi": 62,
          "name": "D4",
          "ticks": 79584,
          "time": 92.111019,
          "velocity": 0.3937007874015748
        },
        {
          "duration": 0.11111100000000818,
          "durationTicks": 96,
          "midi": 50,
          "name": "D3",
          "ticks": 79584,
          "time": 92.111019,
          "velocity": 0.3937007874015748
        },
        {
          "duration": 0.11111099999999396,
          "durationTicks": 96,
          "midi": 45,
          "name": "A2",
          "ticks": 79680,
          "time": 92.22213,
          "velocity": 0.3937007874015748
        },
        {
          "duration": 0.11111099999999396,
          "durationTicks": 96,
          "midi": 57,
          "name": "A3",
          "ticks": 79680,
          "time": 92.22213,
          "velocity": 0.3937007874015748
        },
        {
          "duration": 0.11111100000000818,
          "durationTicks": 96,
          "midi": 47,
          "name": "B2",
          "ticks": 79872,
          "time": 92.444352,
          "velocity": 0.3937007874015748
        },
        {
          "duration": 0.11111100000000818,
          "durationTicks": 96,
          "midi": 83,
          "name": "B5",
          "ticks": 79872,
          "time": 92.444352,
          "velocity": 0.3937007874015748
        },
        {
          "duration": 0.11111100000000818,
          "durationTicks": 96,
          "midi": 59,
          "name": "B3",
          "ticks": 79872,
          "time": 92.444352,
          "velocity": 0.3937007874015748
        },
        {
          "duration": 0.11111100000000818,
          "durationTicks": 96,
          "midi": 71,
          "name": "B4",
          "ticks": 79872,
          "time": 92.444352,
          "velocity": 0.3937007874015748
        },
        {
          "duration": 0.11111100000000818,
          "durationTicks": 96,
          "midi": 71,
          "name": "B4",
          "ticks": 80064,
          "time": 92.666574,
          "velocity": 0.3937007874015748
        },
        {
          "duration": 0.11111100000000818,
          "durationTicks": 96,
          "midi": 59,
          "name": "B3",
          "ticks": 80064,
          "time": 92.666574,
          "velocity": 0.3937007874015748
        },
        {
          "duration": 0.11111100000000818,
          "durationTicks": 96,
          "midi": 47,
          "name": "B2",
          "ticks": 80064,
          "time": 92.666574,
          "velocity": 0.3937007874015748
        },
        {
          "duration": 0.11111100000000818,
          "durationTicks": 96,
          "midi": 83,
          "name": "B5",
          "ticks": 80064,
          "time": 92.666574,
          "velocity": 0.3937007874015748
        },
        {
          "duration": 0.11111100000000818,
          "durationTicks": 96,
          "midi": 59,
          "name": "B3",
          "ticks": 80256,
          "time": 92.888796,
          "velocity": 0.3937007874015748
        },
        {
          "duration": 0.11111100000000818,
          "durationTicks": 96,
          "midi": 71,
          "name": "B4",
          "ticks": 80256,
          "time": 92.888796,
          "velocity": 0.3937007874015748
        },
        {
          "duration": 0.11111100000000818,
          "durationTicks": 96,
          "midi": 47,
          "name": "B2",
          "ticks": 80256,
          "time": 92.888796,
          "velocity": 0.3937007874015748
        },
        {
          "duration": 0.11111100000000818,
          "durationTicks": 96,
          "midi": 83,
          "name": "B5",
          "ticks": 80256,
          "time": 92.888796,
          "velocity": 0.3937007874015748
        },
        {
          "duration": 0.11111099999999396,
          "durationTicks": 96,
          "midi": 69,
          "name": "A4",
          "ticks": 80352,
          "time": 92.99990700000001,
          "velocity": 0.3937007874015748
        },
        {
          "duration": 0.11111099999999396,
          "durationTicks": 96,
          "midi": 81,
          "name": "A5",
          "ticks": 80352,
          "time": 92.99990700000001,
          "velocity": 0.3937007874015748
        },
        {
          "duration": 0.11111099999999396,
          "durationTicks": 96,
          "midi": 45,
          "name": "A2",
          "ticks": 80352,
          "time": 92.99990700000001,
          "velocity": 0.3937007874015748
        },
        {
          "duration": 0.11111099999999396,
          "durationTicks": 96,
          "midi": 57,
          "name": "A3",
          "ticks": 80352,
          "time": 92.99990700000001,
          "velocity": 0.3937007874015748
        },
        {
          "duration": 0.11111100000000818,
          "durationTicks": 96,
          "midi": 59,
          "name": "B3",
          "ticks": 80544,
          "time": 93.222129,
          "velocity": 0.3937007874015748
        },
        {
          "duration": 0.11111100000000818,
          "durationTicks": 96,
          "midi": 83,
          "name": "B5",
          "ticks": 80544,
          "time": 93.222129,
          "velocity": 0.3937007874015748
        },
        {
          "duration": 0.11111100000000818,
          "durationTicks": 96,
          "midi": 47,
          "name": "B2",
          "ticks": 80544,
          "time": 93.222129,
          "velocity": 0.3937007874015748
        },
        {
          "duration": 0.11111100000000818,
          "durationTicks": 96,
          "midi": 71,
          "name": "B4",
          "ticks": 80544,
          "time": 93.222129,
          "velocity": 0.3937007874015748
        },
        {
          "duration": 0.11111100000000818,
          "durationTicks": 96,
          "midi": 86,
          "name": "D6",
          "ticks": 80736,
          "time": 93.444351,
          "velocity": 0.3937007874015748
        },
        {
          "duration": 0.11111100000000818,
          "durationTicks": 96,
          "midi": 50,
          "name": "D3",
          "ticks": 80736,
          "time": 93.444351,
          "velocity": 0.3937007874015748
        },
        {
          "duration": 0.11111100000000818,
          "durationTicks": 96,
          "midi": 62,
          "name": "D4",
          "ticks": 80736,
          "time": 93.444351,
          "velocity": 0.3937007874015748
        },
        {
          "duration": 0.11111100000000818,
          "durationTicks": 96,
          "midi": 74,
          "name": "D5",
          "ticks": 80736,
          "time": 93.444351,
          "velocity": 0.3937007874015748
        },
        {
          "duration": 0.11111100000000818,
          "durationTicks": 96,
          "midi": 71,
          "name": "B4",
          "ticks": 80928,
          "time": 93.666573,
          "velocity": 0.3937007874015748
        },
        {
          "duration": 0.11111100000000818,
          "durationTicks": 96,
          "midi": 83,
          "name": "B5",
          "ticks": 80928,
          "time": 93.666573,
          "velocity": 0.3937007874015748
        },
        {
          "duration": 0.11111100000000818,
          "durationTicks": 96,
          "midi": 59,
          "name": "B3",
          "ticks": 80928,
          "time": 93.666573,
          "velocity": 0.3937007874015748
        },
        {
          "duration": 0.11111100000000818,
          "durationTicks": 96,
          "midi": 47,
          "name": "B2",
          "ticks": 80928,
          "time": 93.666573,
          "velocity": 0.3937007874015748
        },
        {
          "duration": 0.11111099999999396,
          "durationTicks": 96,
          "midi": 78,
          "name": "F#5",
          "ticks": 81120,
          "time": 93.888795,
          "velocity": 0.3937007874015748
        },
        {
          "duration": 0.11111099999999396,
          "durationTicks": 96,
          "midi": 54,
          "name": "F#3",
          "ticks": 81120,
          "time": 93.888795,
          "velocity": 0.3937007874015748
        },
        {
          "duration": 0.11111099999999396,
          "durationTicks": 96,
          "midi": 66,
          "name": "F#4",
          "ticks": 81120,
          "time": 93.888795,
          "velocity": 0.3937007874015748
        },
        {
          "duration": 0.11111099999999396,
          "durationTicks": 96,
          "midi": 42,
          "name": "F#2",
          "ticks": 81120,
          "time": 93.888795,
          "velocity": 0.3937007874015748
        },
        {
          "duration": 0.11111100000000818,
          "durationTicks": 96,
          "midi": 45,
          "name": "A2",
          "ticks": 81216,
          "time": 93.999906,
          "velocity": 0.3937007874015748
        },
        {
          "duration": 0.11111100000000818,
          "durationTicks": 96,
          "midi": 81,
          "name": "A5",
          "ticks": 81216,
          "time": 93.999906,
          "velocity": 0.3937007874015748
        },
        {
          "duration": 0.11111100000000818,
          "durationTicks": 96,
          "midi": 57,
          "name": "A3",
          "ticks": 81216,
          "time": 93.999906,
          "velocity": 0.3937007874015748
        },
        {
          "duration": 0.11111100000000818,
          "durationTicks": 96,
          "midi": 69,
          "name": "A4",
          "ticks": 81216,
          "time": 93.999906,
          "velocity": 0.3937007874015748
        },
        {
          "duration": 0.11111100000000818,
          "durationTicks": 96,
          "midi": 83,
          "name": "B5",
          "ticks": 81408,
          "time": 94.222128,
          "velocity": 0.3937007874015748
        },
        {
          "duration": 0.11111100000000818,
          "durationTicks": 96,
          "midi": 71,
          "name": "B4",
          "ticks": 81408,
          "time": 94.222128,
          "velocity": 0.3937007874015748
        },
        {
          "duration": 0.11111100000000818,
          "durationTicks": 96,
          "midi": 59,
          "name": "B3",
          "ticks": 81408,
          "time": 94.222128,
          "velocity": 0.3937007874015748
        },
        {
          "duration": 0.11111100000000818,
          "durationTicks": 96,
          "midi": 47,
          "name": "B2",
          "ticks": 81408,
          "time": 94.222128,
          "velocity": 0.3937007874015748
        },
        {
          "duration": 0.11111100000000818,
          "durationTicks": 96,
          "midi": 59,
          "name": "B3",
          "ticks": 81600,
          "time": 94.44435,
          "velocity": 0.3937007874015748
        },
        {
          "duration": 0.11111100000000818,
          "durationTicks": 96,
          "midi": 47,
          "name": "B2",
          "ticks": 81600,
          "time": 94.44435,
          "velocity": 0.3937007874015748
        },
        {
          "duration": 0.11111100000000818,
          "durationTicks": 96,
          "midi": 71,
          "name": "B4",
          "ticks": 81600,
          "time": 94.44435,
          "velocity": 0.3937007874015748
        },
        {
          "duration": 0.11111100000000818,
          "durationTicks": 96,
          "midi": 83,
          "name": "B5",
          "ticks": 81600,
          "time": 94.44435,
          "velocity": 0.3937007874015748
        },
        {
          "duration": 0.11111099999999396,
          "durationTicks": 96,
          "midi": 83,
          "name": "B5",
          "ticks": 81792,
          "time": 94.666572,
          "velocity": 0.3937007874015748
        },
        {
          "duration": 0.11111099999999396,
          "durationTicks": 96,
          "midi": 71,
          "name": "B4",
          "ticks": 81792,
          "time": 94.666572,
          "velocity": 0.3937007874015748
        },
        {
          "duration": 0.11111099999999396,
          "durationTicks": 96,
          "midi": 47,
          "name": "B2",
          "ticks": 81792,
          "time": 94.666572,
          "velocity": 0.3937007874015748
        },
        {
          "duration": 0.11111099999999396,
          "durationTicks": 96,
          "midi": 59,
          "name": "B3",
          "ticks": 81792,
          "time": 94.666572,
          "velocity": 0.3937007874015748
        },
        {
          "duration": 0.11111100000000818,
          "durationTicks": 96,
          "midi": 81,
          "name": "A5",
          "ticks": 81888,
          "time": 94.777683,
          "velocity": 0.3937007874015748
        },
        {
          "duration": 0.11111100000000818,
          "durationTicks": 96,
          "midi": 45,
          "name": "A2",
          "ticks": 81888,
          "time": 94.777683,
          "velocity": 0.3937007874015748
        },
        {
          "duration": 0.11111100000000818,
          "durationTicks": 96,
          "midi": 57,
          "name": "A3",
          "ticks": 81888,
          "time": 94.777683,
          "velocity": 0.3937007874015748
        },
        {
          "duration": 0.11111100000000818,
          "durationTicks": 96,
          "midi": 69,
          "name": "A4",
          "ticks": 81888,
          "time": 94.777683,
          "velocity": 0.3937007874015748
        },
        {
          "duration": 0.11111100000000818,
          "durationTicks": 96,
          "midi": 83,
          "name": "B5",
          "ticks": 82080,
          "time": 94.999905,
          "velocity": 0.3937007874015748
        },
        {
          "duration": 0.11111100000000818,
          "durationTicks": 96,
          "midi": 59,
          "name": "B3",
          "ticks": 82080,
          "time": 94.999905,
          "velocity": 0.3937007874015748
        },
        {
          "duration": 0.11111100000000818,
          "durationTicks": 96,
          "midi": 47,
          "name": "B2",
          "ticks": 82080,
          "time": 94.999905,
          "velocity": 0.3937007874015748
        },
        {
          "duration": 0.11111100000000818,
          "durationTicks": 96,
          "midi": 71,
          "name": "B4",
          "ticks": 82080,
          "time": 94.999905,
          "velocity": 0.3937007874015748
        },
        {
          "duration": 0.11111099999999396,
          "durationTicks": 96,
          "midi": 53,
          "name": "F3",
          "ticks": 82272,
          "time": 95.222127,
          "velocity": 0.3937007874015748
        },
        {
          "duration": 0.11111099999999396,
          "durationTicks": 96,
          "midi": 77,
          "name": "F5",
          "ticks": 82272,
          "time": 95.222127,
          "velocity": 0.3937007874015748
        },
        {
          "duration": 0.11111099999999396,
          "durationTicks": 96,
          "midi": 89,
          "name": "F6",
          "ticks": 82272,
          "time": 95.222127,
          "velocity": 0.3937007874015748
        },
        {
          "duration": 0.11111099999999396,
          "durationTicks": 96,
          "midi": 65,
          "name": "F4",
          "ticks": 82272,
          "time": 95.222127,
          "velocity": 0.3937007874015748
        },
        {
          "duration": 0.11111099999999396,
          "durationTicks": 96,
          "midi": 76,
          "name": "E5",
          "ticks": 82464,
          "time": 95.444349,
          "velocity": 0.3937007874015748
        },
        {
          "duration": 0.11111099999999396,
          "durationTicks": 96,
          "midi": 64,
          "name": "E4",
          "ticks": 82464,
          "time": 95.444349,
          "velocity": 0.3937007874015748
        },
        {
          "duration": 0.11111099999999396,
          "durationTicks": 96,
          "midi": 88,
          "name": "E6",
          "ticks": 82464,
          "time": 95.444349,
          "velocity": 0.3937007874015748
        },
        {
          "duration": 0.11111099999999396,
          "durationTicks": 96,
          "midi": 52,
          "name": "E3",
          "ticks": 82464,
          "time": 95.444349,
          "velocity": 0.3937007874015748
        },
        {
          "duration": 0.11111099999999396,
          "durationTicks": 96,
          "midi": 86,
          "name": "D6",
          "ticks": 82656,
          "time": 95.666571,
          "velocity": 0.3937007874015748
        },
        {
          "duration": 0.11111099999999396,
          "durationTicks": 96,
          "midi": 74,
          "name": "D5",
          "ticks": 82656,
          "time": 95.666571,
          "velocity": 0.3937007874015748
        },
        {
          "duration": 0.11111099999999396,
          "durationTicks": 96,
          "midi": 50,
          "name": "D3",
          "ticks": 82656,
          "time": 95.666571,
          "velocity": 0.3937007874015748
        },
        {
          "duration": 0.11111099999999396,
          "durationTicks": 96,
          "midi": 62,
          "name": "D4",
          "ticks": 82656,
          "time": 95.666571,
          "velocity": 0.3937007874015748
        },
        {
          "duration": 0.11111100000000818,
          "durationTicks": 96,
          "midi": 81,
          "name": "A5",
          "ticks": 82752,
          "time": 95.777682,
          "velocity": 0.3937007874015748
        },
        {
          "duration": 0.11111100000000818,
          "durationTicks": 96,
          "midi": 69,
          "name": "A4",
          "ticks": 82752,
          "time": 95.777682,
          "velocity": 0.3937007874015748
        },
        {
          "duration": 0.11111100000000818,
          "durationTicks": 96,
          "midi": 57,
          "name": "A3",
          "ticks": 82752,
          "time": 95.777682,
          "velocity": 0.3937007874015748
        },
        {
          "duration": 0.11111100000000818,
          "durationTicks": 96,
          "midi": 45,
          "name": "A2",
          "ticks": 82752,
          "time": 95.777682,
          "velocity": 0.3937007874015748
        },
        {
          "duration": 0.11111099999999396,
          "durationTicks": 96,
          "midi": 47,
          "name": "B2",
          "ticks": 82944,
          "time": 95.999904,
          "velocity": 0.3937007874015748
        },
        {
          "duration": 0.11111099999999396,
          "durationTicks": 96,
          "midi": 59,
          "name": "B3",
          "ticks": 82944,
          "time": 95.999904,
          "velocity": 0.3937007874015748
        },
        {
          "duration": 0.11111099999999396,
          "durationTicks": 96,
          "midi": 83,
          "name": "B5",
          "ticks": 82944,
          "time": 95.999904,
          "velocity": 0.3937007874015748
        },
        {
          "duration": 0.11111099999999396,
          "durationTicks": 96,
          "midi": 71,
          "name": "B4",
          "ticks": 82944,
          "time": 95.999904,
          "velocity": 0.3937007874015748
        },
        {
          "duration": 0.11111099999999396,
          "durationTicks": 96,
          "midi": 59,
          "name": "B3",
          "ticks": 83136,
          "time": 96.222126,
          "velocity": 0.3937007874015748
        },
        {
          "duration": 0.11111099999999396,
          "durationTicks": 96,
          "midi": 47,
          "name": "B2",
          "ticks": 83136,
          "time": 96.222126,
          "velocity": 0.3937007874015748
        },
        {
          "duration": 0.11111099999999396,
          "durationTicks": 96,
          "midi": 83,
          "name": "B5",
          "ticks": 83136,
          "time": 96.222126,
          "velocity": 0.3937007874015748
        },
        {
          "duration": 0.11111099999999396,
          "durationTicks": 96,
          "midi": 71,
          "name": "B4",
          "ticks": 83136,
          "time": 96.222126,
          "velocity": 0.3937007874015748
        },
        {
          "duration": 0.11111099999999396,
          "durationTicks": 96,
          "midi": 83,
          "name": "B5",
          "ticks": 83328,
          "time": 96.444348,
          "velocity": 0.3937007874015748
        },
        {
          "duration": 0.11111099999999396,
          "durationTicks": 96,
          "midi": 59,
          "name": "B3",
          "ticks": 83328,
          "time": 96.444348,
          "velocity": 0.3937007874015748
        },
        {
          "duration": 0.11111099999999396,
          "durationTicks": 96,
          "midi": 71,
          "name": "B4",
          "ticks": 83328,
          "time": 96.444348,
          "velocity": 0.3937007874015748
        },
        {
          "duration": 0.11111099999999396,
          "durationTicks": 96,
          "midi": 47,
          "name": "B2",
          "ticks": 83328,
          "time": 96.444348,
          "velocity": 0.3937007874015748
        },
        {
          "duration": 0.11111100000000818,
          "durationTicks": 96,
          "midi": 45,
          "name": "A2",
          "ticks": 83424,
          "time": 96.555459,
          "velocity": 0.3937007874015748
        },
        {
          "duration": 0.11111100000000818,
          "durationTicks": 96,
          "midi": 57,
          "name": "A3",
          "ticks": 83424,
          "time": 96.555459,
          "velocity": 0.3937007874015748
        },
        {
          "duration": 0.11111100000000818,
          "durationTicks": 96,
          "midi": 81,
          "name": "A5",
          "ticks": 83424,
          "time": 96.555459,
          "velocity": 0.3937007874015748
        },
        {
          "duration": 0.11111100000000818,
          "durationTicks": 96,
          "midi": 69,
          "name": "A4",
          "ticks": 83424,
          "time": 96.555459,
          "velocity": 0.3937007874015748
        },
        {
          "duration": 0.11111099999999396,
          "durationTicks": 96,
          "midi": 47,
          "name": "B2",
          "ticks": 83616,
          "time": 96.777681,
          "velocity": 0.3937007874015748
        },
        {
          "duration": 0.11111099999999396,
          "durationTicks": 96,
          "midi": 83,
          "name": "B5",
          "ticks": 83616,
          "time": 96.777681,
          "velocity": 0.3937007874015748
        },
        {
          "duration": 0.11111099999999396,
          "durationTicks": 96,
          "midi": 59,
          "name": "B3",
          "ticks": 83616,
          "time": 96.777681,
          "velocity": 0.3937007874015748
        },
        {
          "duration": 0.11111099999999396,
          "durationTicks": 96,
          "midi": 71,
          "name": "B4",
          "ticks": 83616,
          "time": 96.777681,
          "velocity": 0.3937007874015748
        },
        {
          "duration": 0.11111099999999396,
          "durationTicks": 96,
          "midi": 50,
          "name": "D3",
          "ticks": 83808,
          "time": 96.999903,
          "velocity": 0.3937007874015748
        },
        {
          "duration": 0.11111099999999396,
          "durationTicks": 96,
          "midi": 62,
          "name": "D4",
          "ticks": 83808,
          "time": 96.999903,
          "velocity": 0.3937007874015748
        },
        {
          "duration": 0.11111099999999396,
          "durationTicks": 96,
          "midi": 86,
          "name": "D6",
          "ticks": 83808,
          "time": 96.999903,
          "velocity": 0.3937007874015748
        },
        {
          "duration": 0.11111099999999396,
          "durationTicks": 96,
          "midi": 74,
          "name": "D5",
          "ticks": 83808,
          "time": 96.999903,
          "velocity": 0.3937007874015748
        },
        {
          "duration": 0.11111099999999396,
          "durationTicks": 96,
          "midi": 83,
          "name": "B5",
          "ticks": 84000,
          "time": 97.222125,
          "velocity": 0.3937007874015748
        },
        {
          "duration": 0.11111099999999396,
          "durationTicks": 96,
          "midi": 71,
          "name": "B4",
          "ticks": 84000,
          "time": 97.222125,
          "velocity": 0.3937007874015748
        },
        {
          "duration": 0.11111099999999396,
          "durationTicks": 96,
          "midi": 47,
          "name": "B2",
          "ticks": 84000,
          "time": 97.222125,
          "velocity": 0.3937007874015748
        },
        {
          "duration": 0.11111099999999396,
          "durationTicks": 96,
          "midi": 59,
          "name": "B3",
          "ticks": 84000,
          "time": 97.222125,
          "velocity": 0.3937007874015748
        },
        {
          "duration": 0.11111099999999396,
          "durationTicks": 96,
          "midi": 66,
          "name": "F#4",
          "ticks": 84192,
          "time": 97.44434700000001,
          "velocity": 0.3937007874015748
        },
        {
          "duration": 0.11111099999999396,
          "durationTicks": 96,
          "midi": 54,
          "name": "F#3",
          "ticks": 84192,
          "time": 97.44434700000001,
          "velocity": 0.3937007874015748
        },
        {
          "duration": 0.11111099999999396,
          "durationTicks": 96,
          "midi": 42,
          "name": "F#2",
          "ticks": 84192,
          "time": 97.44434700000001,
          "velocity": 0.3937007874015748
        },
        {
          "duration": 0.11111099999999396,
          "durationTicks": 96,
          "midi": 78,
          "name": "F#5",
          "ticks": 84192,
          "time": 97.44434700000001,
          "velocity": 0.3937007874015748
        },
        {
          "duration": 0.11111099999999396,
          "durationTicks": 96,
          "midi": 57,
          "name": "A3",
          "ticks": 84288,
          "time": 97.555458,
          "velocity": 0.3937007874015748
        },
        {
          "duration": 0.11111099999999396,
          "durationTicks": 96,
          "midi": 45,
          "name": "A2",
          "ticks": 84288,
          "time": 97.555458,
          "velocity": 0.3937007874015748
        },
        {
          "duration": 0.11111099999999396,
          "durationTicks": 96,
          "midi": 69,
          "name": "A4",
          "ticks": 84288,
          "time": 97.555458,
          "velocity": 0.3937007874015748
        },
        {
          "duration": 0.11111099999999396,
          "durationTicks": 96,
          "midi": 81,
          "name": "A5",
          "ticks": 84288,
          "time": 97.555458,
          "velocity": 0.3937007874015748
        },
        {
          "duration": 0.11111099999999396,
          "durationTicks": 96,
          "midi": 74,
          "name": "D5",
          "ticks": 84480,
          "time": 97.77768,
          "velocity": 0.3937007874015748
        },
        {
          "duration": 0.11111099999999396,
          "durationTicks": 96,
          "midi": 71,
          "name": "B4",
          "ticks": 84480,
          "time": 97.77768,
          "velocity": 0.3937007874015748
        },
        {
          "duration": 0.11111099999999396,
          "durationTicks": 96,
          "midi": 78,
          "name": "F#5",
          "ticks": 84480,
          "time": 97.77768,
          "velocity": 0.3937007874015748
        },
        {
          "duration": 0.11111099999999396,
          "durationTicks": 96,
          "midi": 59,
          "name": "B3",
          "ticks": 84480,
          "time": 97.77768,
          "velocity": 0.3937007874015748
        },
        {
          "duration": 0.11111099999999396,
          "durationTicks": 96,
          "midi": 83,
          "name": "B5",
          "ticks": 84480,
          "time": 97.77768,
          "velocity": 0.3937007874015748
        },
        {
          "duration": 0.11111099999999396,
          "durationTicks": 96,
          "midi": 47,
          "name": "B2",
          "ticks": 84480,
          "time": 97.77768,
          "velocity": 0.3937007874015748
        },
        {
          "duration": 0.11111099999999396,
          "durationTicks": 96,
          "midi": 78,
          "name": "F#5",
          "ticks": 84672,
          "time": 97.999902,
          "velocity": 0.3937007874015748
        },
        {
          "duration": 0.11111099999999396,
          "durationTicks": 96,
          "midi": 47,
          "name": "B2",
          "ticks": 84672,
          "time": 97.999902,
          "velocity": 0.3937007874015748
        },
        {
          "duration": 0.11111099999999396,
          "durationTicks": 96,
          "midi": 59,
          "name": "B3",
          "ticks": 84672,
          "time": 97.999902,
          "velocity": 0.3937007874015748
        },
        {
          "duration": 0.11111099999999396,
          "durationTicks": 96,
          "midi": 71,
          "name": "B4",
          "ticks": 84672,
          "time": 97.999902,
          "velocity": 0.3937007874015748
        },
        {
          "duration": 0.11111099999999396,
          "durationTicks": 96,
          "midi": 83,
          "name": "B5",
          "ticks": 84672,
          "time": 97.999902,
          "velocity": 0.3937007874015748
        },
        {
          "duration": 0.11111099999999396,
          "durationTicks": 96,
          "midi": 74,
          "name": "D5",
          "ticks": 84672,
          "time": 97.999902,
          "velocity": 0.3937007874015748
        },
        {
          "duration": 0.11111099999999396,
          "durationTicks": 96,
          "midi": 74,
          "name": "D5",
          "ticks": 84864,
          "time": 98.22212400000001,
          "velocity": 0.3937007874015748
        },
        {
          "duration": 0.11111099999999396,
          "durationTicks": 96,
          "midi": 78,
          "name": "F#5",
          "ticks": 84864,
          "time": 98.22212400000001,
          "velocity": 0.3937007874015748
        },
        {
          "duration": 0.11111099999999396,
          "durationTicks": 96,
          "midi": 83,
          "name": "B5",
          "ticks": 84864,
          "time": 98.22212400000001,
          "velocity": 0.3937007874015748
        },
        {
          "duration": 0.11111099999999396,
          "durationTicks": 96,
          "midi": 71,
          "name": "B4",
          "ticks": 84864,
          "time": 98.22212400000001,
          "velocity": 0.3937007874015748
        },
        {
          "duration": 0.11111099999999396,
          "durationTicks": 96,
          "midi": 59,
          "name": "B3",
          "ticks": 84864,
          "time": 98.22212400000001,
          "velocity": 0.3937007874015748
        },
        {
          "duration": 0.11111099999999396,
          "durationTicks": 96,
          "midi": 47,
          "name": "B2",
          "ticks": 84864,
          "time": 98.22212400000001,
          "velocity": 0.3937007874015748
        },
        {
          "duration": 0.11111100000000818,
          "durationTicks": 96,
          "midi": 73,
          "name": "C#5",
          "ticks": 85056,
          "time": 98.444346,
          "velocity": 0.3937007874015748
        },
        {
          "duration": 0.11111100000000818,
          "durationTicks": 96,
          "midi": 57,
          "name": "A3",
          "ticks": 85056,
          "time": 98.444346,
          "velocity": 0.3937007874015748
        },
        {
          "duration": 0.11111100000000818,
          "durationTicks": 96,
          "midi": 69,
          "name": "A4",
          "ticks": 85056,
          "time": 98.444346,
          "velocity": 0.3937007874015748
        },
        {
          "duration": 0.11111100000000818,
          "durationTicks": 96,
          "midi": 76,
          "name": "E5",
          "ticks": 85056,
          "time": 98.444346,
          "velocity": 0.3937007874015748
        },
        {
          "duration": 0.11111100000000818,
          "durationTicks": 96,
          "midi": 81,
          "name": "A5",
          "ticks": 85056,
          "time": 98.444346,
          "velocity": 0.3937007874015748
        },
        {
          "duration": 0.11111100000000818,
          "durationTicks": 96,
          "midi": 45,
          "name": "A2",
          "ticks": 85056,
          "time": 98.444346,
          "velocity": 0.3937007874015748
        },
        {
          "duration": 0.11111099999999396,
          "durationTicks": 96,
          "midi": 71,
          "name": "B4",
          "ticks": 85152,
          "time": 98.555457,
          "velocity": 0.3937007874015748
        },
        {
          "duration": 0.11111099999999396,
          "durationTicks": 96,
          "midi": 74,
          "name": "D5",
          "ticks": 85152,
          "time": 98.555457,
          "velocity": 0.3937007874015748
        },
        {
          "duration": 0.11111099999999396,
          "durationTicks": 96,
          "midi": 83,
          "name": "B5",
          "ticks": 85152,
          "time": 98.555457,
          "velocity": 0.3937007874015748
        },
        {
          "duration": 0.11111099999999396,
          "durationTicks": 96,
          "midi": 59,
          "name": "B3",
          "ticks": 85152,
          "time": 98.555457,
          "velocity": 0.3937007874015748
        },
        {
          "duration": 0.11111099999999396,
          "durationTicks": 96,
          "midi": 78,
          "name": "F#5",
          "ticks": 85152,
          "time": 98.555457,
          "velocity": 0.3937007874015748
        },
        {
          "duration": 0.11111099999999396,
          "durationTicks": 96,
          "midi": 47,
          "name": "B2",
          "ticks": 85152,
          "time": 98.555457,
          "velocity": 0.3937007874015748
        },
        {
          "duration": 0.11111100000000818,
          "durationTicks": 96,
          "midi": 83,
          "name": "B5",
          "ticks": 85248,
          "time": 98.666568,
          "velocity": 0.3937007874015748
        },
        {
          "duration": 0.11111100000000818,
          "durationTicks": 96,
          "midi": 71,
          "name": "B4",
          "ticks": 85248,
          "time": 98.666568,
          "velocity": 0.3937007874015748
        },
        {
          "duration": 0.11111100000000818,
          "durationTicks": 96,
          "midi": 59,
          "name": "B3",
          "ticks": 85248,
          "time": 98.666568,
          "velocity": 0.3937007874015748
        },
        {
          "duration": 0.11111100000000818,
          "durationTicks": 96,
          "midi": 47,
          "name": "B2",
          "ticks": 85248,
          "time": 98.666568,
          "velocity": 0.3937007874015748
        },
        {
          "duration": 0.11111099999999396,
          "durationTicks": 96,
          "midi": 47,
          "name": "B2",
          "ticks": 85632,
          "time": 99.111012,
          "velocity": 0.3937007874015748
        },
        {
          "duration": 0.11111099999999396,
          "durationTicks": 96,
          "midi": 59,
          "name": "B3",
          "ticks": 85632,
          "time": 99.111012,
          "velocity": 0.3937007874015748
        }
      ],
      "endOfTrackTicks": 85728
    }
  ]
}