{
  "header": {
    "keySignatures": [],
    "meta": [],
    "name": "",
    "ppq": 96,
    "tempos": [
      {
        "bpm": 102.0000510000255,
        "ticks": 0
      }
    ],
    "timeSignatures": [
      {
        "ticks": 0,
        "timeSignature": [
          4,
          4
        ],
        "measures": 0
      }
    ]
  },
  "tracks": [
    {
      "channel": 0,
      "controlChanges": {},
      "pitchBends": [],
      "instrument": {
        "family": "piano",
        "number": 0,
        "name": "acoustic grand piano"
      },
      "name": "",
      "notes": [],
      "endOfTrackTicks": 0
    },
    {
      "channel": 0,
      "controlChanges": {
        "6": [
          {
            "number": 6,
            "ticks": 0,
            "time": 0,
            "value": 0.09448818897637795
          }
        ],
        "7": [
          {
            "number": 7,
            "ticks": 0,
            "time": 0,
            "value": 0.6771653543307087
          },
          {
            "number": 7,
            "ticks": 0,
            "time": 0,
            "value": 0.6771653543307087
          }
        ],
        "10": [
          {
            "number": 10,
            "ticks": 0,
            "time": 0,
            "value": 0.5039370078740157
          },
          {
            "number": 10,
            "ticks": 0,
            "time": 0,
            "value": 0.5039370078740157
          }
        ],
        "100": [
          {
            "number": 100,
            "ticks": 0,
            "time": 0,
            "value": 0
          }
        ],
        "101": [
          {
            "number": 101,
            "ticks": 0,
            "time": 0,
            "value": 0
          }
        ]
      },
      "pitchBends": [
        {
          "ticks": 0,
          "time": 0,
          "value": 0
        },
        {
          "ticks": 0,
          "time": 0,
          "value": 0
        }
      ],
      "instrument": {
        "family": "piano",
        "number": 0,
        "name": "acoustic grand piano"
      },
      "name": "Dist. Guitar",
      "notes": [],
      "endOfTrackTicks": 48052
    },
    {
      "channel": 0,
      "controlChanges": {
        "1": [
          {
            "number": 1,
            "ticks": 0,
            "time": 0,
            "value": 0
          },
          {
            "number": 1,
            "ticks": 0,
            "time": 0,
            "value": 0
          },
          {
            "number": 1,
            "ticks": 0,
            "time": 0,
            "value": 0
          },
          {
            "number": 1,
            "ticks": 0,
            "time": 0,
            "value": 0
          },
          {
            "number": 1,
            "ticks": 0,
            "time": 0,
            "value": 0
          },
          {
            "number": 1,
            "ticks": 25824,
            "time": 158.235215,
            "value": 0
          },
          {
            "number": 1,
            "ticks": 48000,
            "time": 294.1175,
            "value": 0
          },
          {
            "number": 1,
            "ticks": 48051,
            "time": 294.42999984375,
            "value": 0
          },
          {
            "number": 1,
            "ticks": 48052,
            "time": 294.4361272916667,
            "value": 0
          }
        ],
        "6": [
          {
            "number": 6,
            "ticks": 0,
            "time": 0,
            "value": 0.09448818897637795
          },
          {
            "number": 6,
            "ticks": 0,
            "time": 0,
            "value": 0.09448818897637795
          },
          {
            "number": 6,
            "ticks": 48000,
            "time": 294.1175,
            "value": 0.09448818897637795
          },
          {
            "number": 6,
            "ticks": 48052,
            "time": 294.4361272916667,
            "value": 0.09448818897637795
          }
        ],
        "7": [
          {
            "number": 7,
            "ticks": 0,
            "time": 0,
            "value": 0.6771653543307087
          },
          {
            "number": 7,
            "ticks": 0,
            "time": 0,
            "value": 0.6771653543307087
          },
          {
            "number": 7,
            "ticks": 48000,
            "time": 294.1175,
            "value": 0.6771653543307087
          },
          {
            "number": 7,
            "ticks": 48052,
            "time": 294.4361272916667,
            "value": 0.6771653543307087
          }
        ],
        "10": [
          {
            "number": 10,
            "ticks": 0,
            "time": 0,
            "value": 0.5039370078740157
          },
          {
            "number": 10,
            "ticks": 0,
            "time": 0,
            "value": 0.5039370078740157
          },
          {
            "number": 10,
            "ticks": 0,
            "time": 0,
            "value": 0.5039370078740157
          },
          {
            "number": 10,
            "ticks": 0,
            "time": 0,
            "value": 0.5039370078740157
          },
          {
            "number": 10,
            "ticks": 25824,
            "time": 158.235215,
            "value": 0.5039370078740157
          },
          {
            "number": 10,
            "ticks": 48000,
            "time": 294.1175,
            "value": 0.5039370078740157
          },
          {
            "number": 10,
            "ticks": 48051,
            "time": 294.42999984375,
            "value": 0.5039370078740157
          },
          {
            "number": 10,
            "ticks": 48052,
            "time": 294.4361272916667,
            "value": 0.5039370078740157
          }
        ],
        "91": [
          {
            "number": 91,
            "ticks": 0,
            "time": 0,
            "value": 0
          },
          {
            "number": 91,
            "ticks": 0,
            "time": 0,
            "value": 0
          },
          {
            "number": 91,
            "ticks": 0,
            "time": 0,
            "value": 0
          },
          {
            "number": 91,
            "ticks": 0,
            "time": 0,
            "value": 0
          },
          {
            "number": 91,
            "ticks": 0,
            "time": 0,
            "value": 0
          },
          {
            "number": 91,
            "ticks": 25824,
            "time": 158.235215,
            "value": 0
          },
          {
            "number": 91,
            "ticks": 48000,
            "time": 294.1175,
            "value": 0
          },
          {
            "number": 91,
            "ticks": 48051,
            "time": 294.42999984375,
            "value": 0
          },
          {
            "number": 91,
            "ticks": 48052,
            "time": 294.4361272916667,
            "value": 0
          }
        ],
        "100": [
          {
            "number": 100,
            "ticks": 0,
            "time": 0,
            "value": 0
          },
          {
            "number": 100,
            "ticks": 0,
            "time": 0,
            "value": 0
          },
          {
            "number": 100,
            "ticks": 48000,
            "time": 294.1175,
            "value": 0
          },
          {
            "number": 100,
            "ticks": 48052,
            "time": 294.4361272916667,
            "value": 0
          }
        ],
        "101": [
          {
            "number": 101,
            "ticks": 0,
            "time": 0,
            "value": 0
          },
          {
            "number": 101,
            "ticks": 0,
            "time": 0,
            "value": 0
          },
          {
            "number": 101,
            "ticks": 48000,
            "time": 294.1175,
            "value": 0
          },
          {
            "number": 101,
            "ticks": 48052,
            "time": 294.4361272916667,
            "value": 0
          }
        ]
      },
      "pitchBends": [
        {
          "ticks": 0,
          "time": 0,
          "value": 0
        },
        {
          "ticks": 0,
          "time": 0,
          "value": 0
        },
        {
          "ticks": 0,
          "time": 0,
          "value": 0
        },
        {
          "ticks": 0,
          "time": 0,
          "value": 0
        },
        {
          "ticks": 25824,
          "time": 158.235215,
          "value": 0
        },
        {
          "ticks": 48000,
          "time": 294.1175,
          "value": 0
        },
        {
          "ticks": 48051,
          "time": 294.42999984375,
          "value": 0
        },
        {
          "ticks": 48052,
          "time": 294.4361272916667,
          "value": 0
        }
      ],
      "instrument": {
        "family": "guitar",
        "number": 30,
        "name": "distortion guitar"
      },
      "name": "",
      "notes": [
        {
          "duration": 0.29411750000000003,
          "durationTicks": 48,
          "midi": 50,
          "name": "D3",
          "ticks": 0,
          "time": 0,
          "velocity": 0.7874015748031497
        },
        {
          "duration": 0.29411750000000003,
          "durationTicks": 48,
          "midi": 49,
          "name": "C#3",
          "ticks": 48,
          "time": 0.29411750000000003,
          "velocity": 0.7874015748031497
        },
        {
          "duration": 1.7647050000000002,
          "durationTicks": 288,
          "midi": 47,
          "name": "B2",
          "ticks": 96,
          "time": 0.5882350000000001,
          "velocity": 0.7874015748031497
        },
        {
          "duration": 0.29411750000000003,
          "durationTicks": 48,
          "midi": 50,
          "name": "D3",
          "ticks": 384,
          "time": 2.3529400000000003,
          "velocity": 0.7874015748031497
        },
        {
          "duration": 0.29411750000000003,
          "durationTicks": 48,
          "midi": 49,
          "name": "C#3",
          "ticks": 432,
          "time": 2.6470575000000003,
          "velocity": 0.7874015748031497
        },
        {
          "duration": 1.7647050000000002,
          "durationTicks": 288,
          "midi": 45,
          "name": "A2",
          "ticks": 480,
          "time": 2.9411750000000003,
          "velocity": 0.7874015748031497
        },
        {
          "duration": 0.2941175000000005,
          "durationTicks": 48,
          "midi": 50,
          "name": "D3",
          "ticks": 768,
          "time": 4.7058800000000005,
          "velocity": 0.7874015748031497
        },
        {
          "duration": 0.2941174999999996,
          "durationTicks": 48,
          "midi": 49,
          "name": "C#3",
          "ticks": 816,
          "time": 4.999997500000001,
          "velocity": 0.7874015748031497
        },
        {
          "duration": 1.7647050000000002,
          "durationTicks": 288,
          "midi": 43,
          "name": "G2",
          "ticks": 864,
          "time": 5.294115000000001,
          "velocity": 0.7874015748031497
        },
        {
          "duration": 0.2941175000000005,
          "durationTicks": 48,
          "midi": 47,
          "name": "B2",
          "ticks": 1152,
          "time": 7.058820000000001,
          "velocity": 0.7874015748031497
        },
        {
          "duration": 0.2941174999999996,
          "durationTicks": 48,
          "midi": 48,
          "name": "C3",
          "ticks": 1200,
          "time": 7.352937500000001,
          "velocity": 0.7874015748031497
        },
        {
          "duration": 1.1764699999999992,
          "durationTicks": 192,
          "midi": 52,
          "name": "E3",
          "ticks": 1248,
          "time": 7.647055000000001,
          "velocity": 0.7874015748031497
        },
        {
          "duration": 0.588235000000001,
          "durationTicks": 96,
          "midi": 49,
          "name": "C#3",
          "ticks": 1440,
          "time": 8.823525,
          "velocity": 0.7874015748031497
        },
        {
          "duration": 0.2941175000000005,
          "durationTicks": 48,
          "midi": 50,
          "name": "D3",
          "ticks": 1536,
          "time": 9.411760000000001,
          "velocity": 0.7874015748031497
        },
        {
          "duration": 0.2941175000000005,
          "durationTicks": 48,
          "midi": 49,
          "name": "C#3",
          "ticks": 1584,
          "time": 9.705877500000001,
          "velocity": 0.7874015748031497
        },
        {
          "duration": 1.7647049999999993,
          "durationTicks": 288,
          "midi": 47,
          "name": "B2",
          "ticks": 1632,
          "time": 9.999995000000002,
          "velocity": 0.7874015748031497
        },
        {
          "duration": 0.2941175000000005,
          "durationTicks": 48,
          "midi": 50,
          "name": "D3",
          "ticks": 1920,
          "time": 11.764700000000001,
          "velocity": 0.7874015748031497
        },
        {
          "duration": 0.2941175000000005,
          "durationTicks": 48,
          "midi": 49,
          "name": "C#3",
          "ticks": 1968,
          "time": 12.058817500000002,
          "velocity": 0.7874015748031497
        },
        {
          "duration": 1.7647049999999993,
          "durationTicks": 288,
          "midi": 45,
          "name": "A2",
          "ticks": 2016,
          "time": 12.352935000000002,
          "velocity": 0.7874015748031497
        },
        {
          "duration": 0.2941175000000005,
          "durationTicks": 48,
          "midi": 50,
          "name": "D3",
          "ticks": 2304,
          "time": 14.117640000000002,
          "velocity": 0.7874015748031497
        },
        {
          "duration": 0.2941175000000005,
          "durationTicks": 48,
          "midi": 49,
          "name": "C#3",
          "ticks": 2352,
          "time": 14.411757500000002,
          "velocity": 0.7874015748031497
        },
        {
          "duration": 1.7647049999999993,
          "durationTicks": 288,
          "midi": 43,
          "name": "G2",
          "ticks": 2400,
          "time": 14.705875000000002,
          "velocity": 0.7874015748031497
        },
        {
          "duration": 0.2941174999999987,
          "durationTicks": 48,
          "midi": 50,
          "name": "D3",
          "ticks": 2688,
          "time": 16.47058,
          "velocity": 0.7874015748031497
        },
        {
          "duration": 0.29411750000000225,
          "durationTicks": 48,
          "midi": 49,
          "name": "C#3",
          "ticks": 2736,
          "time": 16.7646975,
          "velocity": 0.7874015748031497
        },
        {
          "duration": 1.1764699999999984,
          "durationTicks": 192,
          "midi": 40,
          "name": "E2",
          "ticks": 2784,
          "time": 17.058815000000003,
          "velocity": 0.7874015748031497
        },
        {
          "duration": 1.176470000000002,
          "durationTicks": 192,
          "midi": 42,
          "name": "F#2",
          "ticks": 2976,
          "time": 18.235285,
          "velocity": 0.7874015748031497
        },
        {
          "duration": 0.2941174999999987,
          "durationTicks": 48,
          "midi": 42,
          "name": "F#2",
          "ticks": 3168,
          "time": 19.411755000000003,
          "velocity": 0.7874015748031497
        },
        {
          "duration": 0.2941174999999987,
          "durationTicks": 48,
          "midi": 47,
          "name": "B2",
          "ticks": 3168,
          "time": 19.411755000000003,
          "velocity": 0.7874015748031497
        },
        {
          "duration": 0.29411750000000225,
          "durationTicks": 48,
          "midi": 42,
          "name": "F#2",
          "ticks": 3216,
          "time": 19.7058725,
          "velocity": 0.7874015748031497
        },
        {
          "duration": 0.29411750000000225,
          "durationTicks": 48,
          "midi": 47,
          "name": "B2",
          "ticks": 3216,
          "time": 19.7058725,
          "velocity": 0.7874015748031497
        },
        {
          "duration": 0.2941174999999987,
          "durationTicks": 48,
          "midi": 47,
          "name": "B2",
          "ticks": 3264,
          "time": 19.999990000000004,
          "velocity": 0.7874015748031497
        },
        {
          "duration": 0.2941174999999987,
          "durationTicks": 48,
          "midi": 42,
          "name": "F#2",
          "ticks": 3264,
          "time": 19.999990000000004,
          "velocity": 0.7874015748031497
        },
        {
          "duration": 0.2941174999999987,
          "durationTicks": 48,
          "midi": 42,
          "name": "F#2",
          "ticks": 3312,
          "time": 20.294107500000003,
          "velocity": 0.7874015748031497
        },
        {
          "duration": 0.2941174999999987,
          "durationTicks": 48,
          "midi": 47,
          "name": "B2",
          "ticks": 3312,
          "time": 20.294107500000003,
          "velocity": 0.7874015748031497
        },
        {
          "duration": 0.29411750000000225,
          "durationTicks": 48,
          "midi": 42,
          "name": "F#2",
          "ticks": 3360,
          "time": 20.588225,
          "velocity": 0.7874015748031497
        },
        {
          "duration": 0.29411750000000225,
          "durationTicks": 48,
          "midi": 47,
          "name": "B2",
          "ticks": 3360,
          "time": 20.588225,
          "velocity": 0.7874015748031497
        },
        {
          "duration": 0.2941174999999987,
          "durationTicks": 48,
          "midi": 47,
          "name": "B2",
          "ticks": 3408,
          "time": 20.882342500000004,
          "velocity": 0.7874015748031497
        },
        {
          "duration": 0.2941174999999987,
          "durationTicks": 48,
          "midi": 42,
          "name": "F#2",
          "ticks": 3408,
          "time": 20.882342500000004,
          "velocity": 0.7874015748031497
        },
        {
          "duration": 0.2941174999999987,
          "durationTicks": 48,
          "midi": 42,
          "name": "F#2",
          "ticks": 3456,
          "time": 21.176460000000002,
          "velocity": 0.7874015748031497
        },
        {
          "duration": 0.2941174999999987,
          "durationTicks": 48,
          "midi": 47,
          "name": "B2",
          "ticks": 3456,
          "time": 21.176460000000002,
          "velocity": 0.7874015748031497
        },
        {
          "duration": 0.29411750000000225,
          "durationTicks": 48,
          "midi": 42,
          "name": "F#2",
          "ticks": 3504,
          "time": 21.4705775,
          "velocity": 0.7874015748031497
        },
        {
          "duration": 0.29411750000000225,
          "durationTicks": 48,
          "midi": 47,
          "name": "B2",
          "ticks": 3504,
          "time": 21.4705775,
          "velocity": 0.7874015748031497
        },
        {
          "duration": 0.2941174999999987,
          "durationTicks": 48,
          "midi": 47,
          "name": "B2",
          "ticks": 3552,
          "time": 21.764695000000003,
          "velocity": 0.7874015748031497
        },
        {
          "duration": 0.2941174999999987,
          "durationTicks": 48,
          "midi": 42,
          "name": "F#2",
          "ticks": 3552,
          "time": 21.764695000000003,
          "velocity": 0.7874015748031497
        },
        {
          "duration": 0.2941174999999987,
          "durationTicks": 48,
          "midi": 42,
          "name": "F#2",
          "ticks": 3600,
          "time": 22.058812500000002,
          "velocity": 0.7874015748031497
        },
        {
          "duration": 0.2941174999999987,
          "durationTicks": 48,
          "midi": 47,
          "name": "B2",
          "ticks": 3600,
          "time": 22.058812500000002,
          "velocity": 0.7874015748031497
        },
        {
          "duration": 0.29411750000000225,
          "durationTicks": 48,
          "midi": 47,
          "name": "B2",
          "ticks": 3648,
          "time": 22.35293,
          "velocity": 0.7874015748031497
        },
        {
          "duration": 0.29411750000000225,
          "durationTicks": 48,
          "midi": 42,
          "name": "F#2",
          "ticks": 3648,
          "time": 22.35293,
          "velocity": 0.7874015748031497
        },
        {
          "duration": 0.2941174999999987,
          "durationTicks": 48,
          "midi": 47,
          "name": "B2",
          "ticks": 3696,
          "time": 22.647047500000003,
          "velocity": 0.7874015748031497
        },
        {
          "duration": 0.2941174999999987,
          "durationTicks": 48,
          "midi": 42,
          "name": "F#2",
          "ticks": 3696,
          "time": 22.647047500000003,
          "velocity": 0.7874015748031497
        },
        {
          "duration": 0.29411750000000225,
          "durationTicks": 48,
          "midi": 47,
          "name": "B2",
          "ticks": 3744,
          "time": 22.941165,
          "velocity": 0.7874015748031497
        },
        {
          "duration": 0.29411750000000225,
          "durationTicks": 48,
          "midi": 42,
          "name": "F#2",
          "ticks": 3744,
          "time": 22.941165,
          "velocity": 0.7874015748031497
        },
        {
          "duration": 0.2941174999999987,
          "durationTicks": 48,
          "midi": 42,
          "name": "F#2",
          "ticks": 3792,
          "time": 23.235282500000004,
          "velocity": 0.7874015748031497
        },
        {
          "duration": 0.2941174999999987,
          "durationTicks": 48,
          "midi": 47,
          "name": "B2",
          "ticks": 3792,
          "time": 23.235282500000004,
          "velocity": 0.7874015748031497
        },
        {
          "duration": 0.2941174999999987,
          "durationTicks": 48,
          "midi": 42,
          "name": "F#2",
          "ticks": 3840,
          "time": 23.529400000000003,
          "velocity": 0.7874015748031497
        },
        {
          "duration": 0.2941174999999987,
          "durationTicks": 48,
          "midi": 47,
          "name": "B2",
          "ticks": 3840,
          "time": 23.529400000000003,
          "velocity": 0.7874015748031497
        },
        {
          "duration": 0.29411750000000225,
          "durationTicks": 48,
          "midi": 42,
          "name": "F#2",
          "ticks": 3888,
          "time": 23.8235175,
          "velocity": 0.7874015748031497
        },
        {
          "duration": 0.29411750000000225,
          "durationTicks": 48,
          "midi": 47,
          "name": "B2",
          "ticks": 3888,
          "time": 23.8235175,
          "velocity": 0.7874015748031497
        },
        {
          "duration": 0.14705874999999935,
          "durationTicks": 24,
          "midi": 42,
          "name": "F#2",
          "ticks": 3936,
          "time": 24.117635000000003,
          "velocity": 0.7874015748031497
        },
        {
          "duration": 0.14705874999999935,
          "durationTicks": 24,
          "midi": 47,
          "name": "B2",
          "ticks": 3936,
          "time": 24.117635000000003,
          "velocity": 0.7874015748031497
        },
        {
          "duration": 0.14705874999999935,
          "durationTicks": 24,
          "midi": 42,
          "name": "F#2",
          "ticks": 3960,
          "time": 24.264693750000003,
          "velocity": 0.7874015748031497
        },
        {
          "duration": 0.14705874999999935,
          "durationTicks": 24,
          "midi": 47,
          "name": "B2",
          "ticks": 3960,
          "time": 24.264693750000003,
          "velocity": 0.7874015748031497
        },
        {
          "duration": 0.14705874999999935,
          "durationTicks": 24,
          "midi": 42,
          "name": "F#2",
          "ticks": 3984,
          "time": 24.411752500000002,
          "velocity": 0.7874015748031497
        },
        {
          "duration": 0.14705874999999935,
          "durationTicks": 24,
          "midi": 47,
          "name": "B2",
          "ticks": 3984,
          "time": 24.411752500000002,
          "velocity": 0.7874015748031497
        },
        {
          "duration": 0.1470587500000029,
          "durationTicks": 24,
          "midi": 42,
          "name": "F#2",
          "ticks": 4008,
          "time": 24.55881125,
          "velocity": 0.7874015748031497
        },
        {
          "duration": 0.1470587500000029,
          "durationTicks": 24,
          "midi": 47,
          "name": "B2",
          "ticks": 4008,
          "time": 24.55881125,
          "velocity": 0.7874015748031497
        },
        {
          "duration": 0.14705874999999935,
          "durationTicks": 24,
          "midi": 42,
          "name": "F#2",
          "ticks": 4032,
          "time": 24.705870000000004,
          "velocity": 0.7874015748031497
        },
        {
          "duration": 0.14705874999999935,
          "durationTicks": 24,
          "midi": 47,
          "name": "B2",
          "ticks": 4032,
          "time": 24.705870000000004,
          "velocity": 0.7874015748031497
        },
        {
          "duration": 0.14705874999999935,
          "durationTicks": 24,
          "midi": 47,
          "name": "B2",
          "ticks": 4056,
          "time": 24.852928750000004,
          "velocity": 0.7874015748031497
        },
        {
          "duration": 0.14705874999999935,
          "durationTicks": 24,
          "midi": 42,
          "name": "F#2",
          "ticks": 4056,
          "time": 24.852928750000004,
          "velocity": 0.7874015748031497
        },
        {
          "duration": 0.14705874999999935,
          "durationTicks": 24,
          "midi": 47,
          "name": "B2",
          "ticks": 4080,
          "time": 24.999987500000003,
          "velocity": 0.7874015748031497
        },
        {
          "duration": 0.14705874999999935,
          "durationTicks": 24,
          "midi": 42,
          "name": "F#2",
          "ticks": 4080,
          "time": 24.999987500000003,
          "velocity": 0.7874015748031497
        },
        {
          "duration": 0.14705874999999935,
          "durationTicks": 24,
          "midi": 47,
          "name": "B2",
          "ticks": 4104,
          "time": 25.147046250000002,
          "velocity": 0.7874015748031497
        },
        {
          "duration": 0.14705874999999935,
          "durationTicks": 24,
          "midi": 42,
          "name": "F#2",
          "ticks": 4104,
          "time": 25.147046250000002,
          "velocity": 0.7874015748031497
        },
        {
          "duration": 0.14705874999999935,
          "durationTicks": 24,
          "midi": 42,
          "name": "F#2",
          "ticks": 4128,
          "time": 25.294105000000002,
          "velocity": 0.7874015748031497
        },
        {
          "duration": 0.14705874999999935,
          "durationTicks": 24,
          "midi": 47,
          "name": "B2",
          "ticks": 4128,
          "time": 25.294105000000002,
          "velocity": 0.7874015748031497
        },
        {
          "duration": 0.1470587500000029,
          "durationTicks": 24,
          "midi": 47,
          "name": "B2",
          "ticks": 4152,
          "time": 25.44116375,
          "velocity": 0.7874015748031497
        },
        {
          "duration": 0.1470587500000029,
          "durationTicks": 24,
          "midi": 42,
          "name": "F#2",
          "ticks": 4152,
          "time": 25.44116375,
          "velocity": 0.7874015748031497
        },
        {
          "duration": 0.14705874999999935,
          "durationTicks": 24,
          "midi": 47,
          "name": "B2",
          "ticks": 4176,
          "time": 25.588222500000004,
          "velocity": 0.7874015748031497
        },
        {
          "duration": 0.14705874999999935,
          "durationTicks": 24,
          "midi": 42,
          "name": "F#2",
          "ticks": 4176,
          "time": 25.588222500000004,
          "velocity": 0.7874015748031497
        },
        {
          "duration": 0.14705874999999935,
          "durationTicks": 24,
          "midi": 47,
          "name": "B2",
          "ticks": 4200,
          "time": 25.735281250000003,
          "velocity": 0.7874015748031497
        },
        {
          "duration": 0.14705874999999935,
          "durationTicks": 24,
          "midi": 42,
          "name": "F#2",
          "ticks": 4200,
          "time": 25.735281250000003,
          "velocity": 0.7874015748031497
        },
        {
          "duration": 0.14705874999999935,
          "durationTicks": 24,
          "midi": 50,
          "name": "D3",
          "ticks": 4224,
          "time": 25.882340000000003,
          "velocity": 0.7874015748031497
        },
        {
          "duration": 0.14705874999999935,
          "durationTicks": 24,
          "midi": 45,
          "name": "A2",
          "ticks": 4224,
          "time": 25.882340000000003,
          "velocity": 0.7874015748031497
        },
        {
          "duration": 0.14705874999999935,
          "durationTicks": 24,
          "midi": 45,
          "name": "A2",
          "ticks": 4248,
          "time": 26.029398750000002,
          "velocity": 0.7874015748031497
        },
        {
          "duration": 0.14705874999999935,
          "durationTicks": 24,
          "midi": 50,
          "name": "D3",
          "ticks": 4248,
          "time": 26.029398750000002,
          "velocity": 0.7874015748031497
        },
        {
          "duration": 0.1470587500000029,
          "durationTicks": 24,
          "midi": 49,
          "name": "C#3",
          "ticks": 4272,
          "time": 26.1764575,
          "velocity": 0.7874015748031497
        },
        {
          "duration": 0.1470587500000029,
          "durationTicks": 24,
          "midi": 44,
          "name": "G#2",
          "ticks": 4272,
          "time": 26.1764575,
          "velocity": 0.7874015748031497
        },
        {
          "duration": 0.14705874999999935,
          "durationTicks": 24,
          "midi": 44,
          "name": "G#2",
          "ticks": 4296,
          "time": 26.323516250000004,
          "velocity": 0.7874015748031497
        },
        {
          "duration": 0.14705874999999935,
          "durationTicks": 24,
          "midi": 49,
          "name": "C#3",
          "ticks": 4296,
          "time": 26.323516250000004,
          "velocity": 0.7874015748031497
        },
        {
          "duration": 0.14705874999999935,
          "durationTicks": 24,
          "midi": 42,
          "name": "F#2",
          "ticks": 4320,
          "time": 26.470575000000004,
          "velocity": 0.7874015748031497
        },
        {
          "duration": 0.14705874999999935,
          "durationTicks": 24,
          "midi": 47,
          "name": "B2",
          "ticks": 4320,
          "time": 26.470575000000004,
          "velocity": 0.7874015748031497
        },
        {
          "duration": 0.14705874999999935,
          "durationTicks": 24,
          "midi": 42,
          "name": "F#2",
          "ticks": 4344,
          "time": 26.617633750000003,
          "velocity": 0.7874015748031497
        },
        {
          "duration": 0.14705874999999935,
          "durationTicks": 24,
          "midi": 47,
          "name": "B2",
          "ticks": 4344,
          "time": 26.617633750000003,
          "velocity": 0.7874015748031497
        },
        {
          "duration": 0.14705874999999935,
          "durationTicks": 24,
          "midi": 47,
          "name": "B2",
          "ticks": 4368,
          "time": 26.764692500000002,
          "velocity": 0.7874015748031497
        },
        {
          "duration": 0.14705874999999935,
          "durationTicks": 24,
          "midi": 42,
          "name": "F#2",
          "ticks": 4368,
          "time": 26.764692500000002,
          "velocity": 0.7874015748031497
        },
        {
          "duration": 0.14705874999999935,
          "durationTicks": 24,
          "midi": 47,
          "name": "B2",
          "ticks": 4392,
          "time": 26.911751250000002,
          "velocity": 0.7874015748031497
        },
        {
          "duration": 0.14705874999999935,
          "durationTicks": 24,
          "midi": 42,
          "name": "F#2",
          "ticks": 4392,
          "time": 26.911751250000002,
          "velocity": 0.7874015748031497
        },
        {
          "duration": 0.1470587500000029,
          "durationTicks": 24,
          "midi": 42,
          "name": "F#2",
          "ticks": 4416,
          "time": 27.05881,
          "velocity": 0.7874015748031497
        },
        {
          "duration": 0.1470587500000029,
          "durationTicks": 24,
          "midi": 47,
          "name": "B2",
          "ticks": 4416,
          "time": 27.05881,
          "velocity": 0.7874015748031497
        },
        {
          "duration": 0.14705874999999935,
          "durationTicks": 24,
          "midi": 42,
          "name": "F#2",
          "ticks": 4440,
          "time": 27.205868750000004,
          "velocity": 0.7874015748031497
        },
        {
          "duration": 0.14705874999999935,
          "durationTicks": 24,
          "midi": 47,
          "name": "B2",
          "ticks": 4440,
          "time": 27.205868750000004,
          "velocity": 0.7874015748031497
        },
        {
          "duration": 0.14705874999999935,
          "durationTicks": 24,
          "midi": 47,
          "name": "B2",
          "ticks": 4464,
          "time": 27.352927500000003,
          "velocity": 0.7874015748031497
        },
        {
          "duration": 0.14705874999999935,
          "durationTicks": 24,
          "midi": 42,
          "name": "F#2",
          "ticks": 4464,
          "time": 27.352927500000003,
          "velocity": 0.7874015748031497
        },
        {
          "duration": 0.14705874999999935,
          "durationTicks": 24,
          "midi": 47,
          "name": "B2",
          "ticks": 4488,
          "time": 27.499986250000003,
          "velocity": 0.7874015748031497
        },
        {
          "duration": 0.14705874999999935,
          "durationTicks": 24,
          "midi": 42,
          "name": "F#2",
          "ticks": 4488,
          "time": 27.499986250000003,
          "velocity": 0.7874015748031497
        },
        {
          "duration": 0.14705874999999935,
          "durationTicks": 24,
          "midi": 47,
          "name": "B2",
          "ticks": 4512,
          "time": 27.647045000000002,
          "velocity": 0.7874015748031497
        },
        {
          "duration": 0.14705874999999935,
          "durationTicks": 24,
          "midi": 42,
          "name": "F#2",
          "ticks": 4512,
          "time": 27.647045000000002,
          "velocity": 0.7874015748031497
        },
        {
          "duration": 0.1470587500000029,
          "durationTicks": 24,
          "midi": 47,
          "name": "B2",
          "ticks": 4536,
          "time": 27.79410375,
          "velocity": 0.7874015748031497
        },
        {
          "duration": 0.1470587500000029,
          "durationTicks": 24,
          "midi": 42,
          "name": "F#2",
          "ticks": 4536,
          "time": 27.79410375,
          "velocity": 0.7874015748031497
        },
        {
          "duration": 0.14705874999999935,
          "durationTicks": 24,
          "midi": 42,
          "name": "F#2",
          "ticks": 4560,
          "time": 27.941162500000004,
          "velocity": 0.7874015748031497
        },
        {
          "duration": 0.14705874999999935,
          "durationTicks": 24,
          "midi": 47,
          "name": "B2",
          "ticks": 4560,
          "time": 27.941162500000004,
          "velocity": 0.7874015748031497
        },
        {
          "duration": 0.14705874999999935,
          "durationTicks": 24,
          "midi": 42,
          "name": "F#2",
          "ticks": 4584,
          "time": 28.088221250000004,
          "velocity": 0.7874015748031497
        },
        {
          "duration": 0.14705874999999935,
          "durationTicks": 24,
          "midi": 47,
          "name": "B2",
          "ticks": 4584,
          "time": 28.088221250000004,
          "velocity": 0.7874015748031497
        },
        {
          "duration": 0.14705874999999935,
          "durationTicks": 24,
          "midi": 50,
          "name": "D3",
          "ticks": 4608,
          "time": 28.235280000000003,
          "velocity": 0.7874015748031497
        },
        {
          "duration": 0.14705874999999935,
          "durationTicks": 24,
          "midi": 45,
          "name": "A2",
          "ticks": 4608,
          "time": 28.235280000000003,
          "velocity": 0.7874015748031497
        },
        {
          "duration": 0.14705874999999935,
          "durationTicks": 24,
          "midi": 45,
          "name": "A2",
          "ticks": 4632,
          "time": 28.382338750000002,
          "velocity": 0.7874015748031497
        },
        {
          "duration": 0.14705874999999935,
          "durationTicks": 24,
          "midi": 50,
          "name": "D3",
          "ticks": 4632,
          "time": 28.382338750000002,
          "velocity": 0.7874015748031497
        },
        {
          "duration": 0.1470587500000029,
          "durationTicks": 24,
          "midi": 49,
          "name": "C#3",
          "ticks": 4656,
          "time": 28.5293975,
          "velocity": 0.7874015748031497
        },
        {
          "duration": 0.1470587500000029,
          "durationTicks": 24,
          "midi": 44,
          "name": "G#2",
          "ticks": 4656,
          "time": 28.5293975,
          "velocity": 0.7874015748031497
        },
        {
          "duration": 0.14705874999999935,
          "durationTicks": 24,
          "midi": 44,
          "name": "G#2",
          "ticks": 4680,
          "time": 28.676456250000005,
          "velocity": 0.7874015748031497
        },
        {
          "duration": 0.14705874999999935,
          "durationTicks": 24,
          "midi": 49,
          "name": "C#3",
          "ticks": 4680,
          "time": 28.676456250000005,
          "velocity": 0.7874015748031497
        },
        {
          "duration": 0.14705874999999935,
          "durationTicks": 24,
          "midi": 47,
          "name": "B2",
          "ticks": 4704,
          "time": 28.823515000000004,
          "velocity": 0.7874015748031497
        },
        {
          "duration": 0.14705874999999935,
          "durationTicks": 24,
          "midi": 42,
          "name": "F#2",
          "ticks": 4704,
          "time": 28.823515000000004,
          "velocity": 0.7874015748031497
        },
        {
          "duration": 0.14705874999999935,
          "durationTicks": 24,
          "midi": 42,
          "name": "F#2",
          "ticks": 4728,
          "time": 28.970573750000003,
          "velocity": 0.7874015748031497
        },
        {
          "duration": 0.14705874999999935,
          "durationTicks": 24,
          "midi": 47,
          "name": "B2",
          "ticks": 4728,
          "time": 28.970573750000003,
          "velocity": 0.7874015748031497
        },
        {
          "duration": 0.14705874999999935,
          "durationTicks": 24,
          "midi": 42,
          "name": "F#2",
          "ticks": 4752,
          "time": 29.117632500000003,
          "velocity": 0.7874015748031497
        },
        {
          "duration": 0.14705874999999935,
          "durationTicks": 24,
          "midi": 47,
          "name": "B2",
          "ticks": 4752,
          "time": 29.117632500000003,
          "velocity": 0.7874015748031497
        },
        {
          "duration": 0.1470587500000029,
          "durationTicks": 24,
          "midi": 47,
          "name": "B2",
          "ticks": 4776,
          "time": 29.264691250000002,
          "velocity": 0.7874015748031497
        },
        {
          "duration": 0.1470587500000029,
          "durationTicks": 24,
          "midi": 42,
          "name": "F#2",
          "ticks": 4776,
          "time": 29.264691250000002,
          "velocity": 0.7874015748031497
        },
        {
          "duration": 0.14705874999999935,
          "durationTicks": 24,
          "midi": 42,
          "name": "F#2",
          "ticks": 4800,
          "time": 29.411750000000005,
          "velocity": 0.7874015748031497
        },
        {
          "duration": 0.14705874999999935,
          "durationTicks": 24,
          "midi": 47,
          "name": "B2",
          "ticks": 4800,
          "time": 29.411750000000005,
          "velocity": 0.7874015748031497
        },
        {
          "duration": 0.14705874999999935,
          "durationTicks": 24,
          "midi": 42,
          "name": "F#2",
          "ticks": 4824,
          "time": 29.558808750000004,
          "velocity": 0.7874015748031497
        },
        {
          "duration": 0.14705874999999935,
          "durationTicks": 24,
          "midi": 47,
          "name": "B2",
          "ticks": 4824,
          "time": 29.558808750000004,
          "velocity": 0.7874015748031497
        },
        {
          "duration": 0.14705874999999935,
          "durationTicks": 24,
          "midi": 42,
          "name": "F#2",
          "ticks": 4848,
          "time": 29.705867500000004,
          "velocity": 0.7874015748031497
        },
        {
          "duration": 0.14705874999999935,
          "durationTicks": 24,
          "midi": 47,
          "name": "B2",
          "ticks": 4848,
          "time": 29.705867500000004,
          "velocity": 0.7874015748031497
        },
        {
          "duration": 0.14705874999999935,
          "durationTicks": 24,
          "midi": 47,
          "name": "B2",
          "ticks": 4872,
          "time": 29.852926250000003,
          "velocity": 0.7874015748031497
        },
        {
          "duration": 0.14705874999999935,
          "durationTicks": 24,
          "midi": 42,
          "name": "F#2",
          "ticks": 4872,
          "time": 29.852926250000003,
          "velocity": 0.7874015748031497
        },
        {
          "duration": 0.14705874999999935,
          "durationTicks": 24,
          "midi": 47,
          "name": "B2",
          "ticks": 4896,
          "time": 29.999985000000002,
          "velocity": 0.7874015748031497
        },
        {
          "duration": 0.14705874999999935,
          "durationTicks": 24,
          "midi": 42,
          "name": "F#2",
          "ticks": 4896,
          "time": 29.999985000000002,
          "velocity": 0.7874015748031497
        },
        {
          "duration": 0.1470587500000029,
          "durationTicks": 24,
          "midi": 42,
          "name": "F#2",
          "ticks": 4920,
          "time": 30.14704375,
          "velocity": 0.7874015748031497
        },
        {
          "duration": 0.1470587500000029,
          "durationTicks": 24,
          "midi": 47,
          "name": "B2",
          "ticks": 4920,
          "time": 30.14704375,
          "velocity": 0.7874015748031497
        },
        {
          "duration": 0.14705874999999935,
          "durationTicks": 24,
          "midi": 42,
          "name": "F#2",
          "ticks": 4944,
          "time": 30.294102500000005,
          "velocity": 0.7874015748031497
        },
        {
          "duration": 0.14705874999999935,
          "durationTicks": 24,
          "midi": 47,
          "name": "B2",
          "ticks": 4944,
          "time": 30.294102500000005,
          "velocity": 0.7874015748031497
        },
        {
          "duration": 0.14705874999999935,
          "durationTicks": 24,
          "midi": 47,
          "name": "B2",
          "ticks": 4968,
          "time": 30.441161250000004,
          "velocity": 0.7874015748031497
        },
        {
          "duration": 0.14705874999999935,
          "durationTicks": 24,
          "midi": 42,
          "name": "F#2",
          "ticks": 4968,
          "time": 30.441161250000004,
          "velocity": 0.7874015748031497
        },
        {
          "duration": 0.14705874999999935,
          "durationTicks": 24,
          "midi": 45,
          "name": "A2",
          "ticks": 4992,
          "time": 30.588220000000003,
          "velocity": 0.7874015748031497
        },
        {
          "duration": 0.14705874999999935,
          "durationTicks": 24,
          "midi": 50,
          "name": "D3",
          "ticks": 4992,
          "time": 30.588220000000003,
          "velocity": 0.7874015748031497
        },
        {
          "duration": 0.14705874999999935,
          "durationTicks": 24,
          "midi": 45,
          "name": "A2",
          "ticks": 5016,
          "time": 30.735278750000003,
          "velocity": 0.7874015748031497
        },
        {
          "duration": 0.14705874999999935,
          "durationTicks": 24,
          "midi": 50,
          "name": "D3",
          "ticks": 5016,
          "time": 30.735278750000003,
          "velocity": 0.7874015748031497
        },
        {
          "duration": 0.1470587500000029,
          "durationTicks": 24,
          "midi": 44,
          "name": "G#2",
          "ticks": 5040,
          "time": 30.882337500000002,
          "velocity": 0.7874015748031497
        },
        {
          "duration": 0.1470587500000029,
          "durationTicks": 24,
          "midi": 49,
          "name": "C#3",
          "ticks": 5040,
          "time": 30.882337500000002,
          "velocity": 0.7874015748031497
        },
        {
          "duration": 0.14705874999999935,
          "durationTicks": 24,
          "midi": 49,
          "name": "C#3",
          "ticks": 5064,
          "time": 31.029396250000005,
          "velocity": 0.7874015748031497
        },
        {
          "duration": 0.14705874999999935,
          "durationTicks": 24,
          "midi": 44,
          "name": "G#2",
          "ticks": 5064,
          "time": 31.029396250000005,
          "velocity": 0.7874015748031497
        },
        {
          "duration": 0.14705874999999935,
          "durationTicks": 24,
          "midi": 47,
          "name": "B2",
          "ticks": 5088,
          "time": 31.176455000000004,
          "velocity": 0.7874015748031497
        },
        {
          "duration": 0.14705874999999935,
          "durationTicks": 24,
          "midi": 42,
          "name": "F#2",
          "ticks": 5088,
          "time": 31.176455000000004,
          "velocity": 0.7874015748031497
        },
        {
          "duration": 0.14705874999999935,
          "durationTicks": 24,
          "midi": 47,
          "name": "B2",
          "ticks": 5112,
          "time": 31.323513750000004,
          "velocity": 0.7874015748031497
        },
        {
          "duration": 0.14705874999999935,
          "durationTicks": 24,
          "midi": 42,
          "name": "F#2",
          "ticks": 5112,
          "time": 31.323513750000004,
          "velocity": 0.7874015748031497
        },
        {
          "duration": 0.14705874999999935,
          "durationTicks": 24,
          "midi": 42,
          "name": "F#2",
          "ticks": 5136,
          "time": 31.470572500000003,
          "velocity": 0.7874015748031497
        },
        {
          "duration": 0.14705874999999935,
          "durationTicks": 24,
          "midi": 47,
          "name": "B2",
          "ticks": 5136,
          "time": 31.470572500000003,
          "velocity": 0.7874015748031497
        },
        {
          "duration": 0.14705874999999935,
          "durationTicks": 24,
          "midi": 49,
          "name": "C#3",
          "ticks": 5160,
          "time": 31.617631250000002,
          "velocity": 0.7874015748031497
        },
        {
          "duration": 0.14705874999999935,
          "durationTicks": 24,
          "midi": 44,
          "name": "G#2",
          "ticks": 5160,
          "time": 31.617631250000002,
          "velocity": 0.7874015748031497
        },
        {
          "duration": 0.1470587500000029,
          "durationTicks": 24,
          "midi": 44,
          "name": "G#2",
          "ticks": 5184,
          "time": 31.76469,
          "velocity": 0.7874015748031497
        },
        {
          "duration": 0.1470587500000029,
          "durationTicks": 24,
          "midi": 49,
          "name": "C#3",
          "ticks": 5184,
          "time": 31.76469,
          "velocity": 0.7874015748031497
        },
        {
          "duration": 0.1470587499999958,
          "durationTicks": 24,
          "midi": 49,
          "name": "C#3",
          "ticks": 5208,
          "time": 31.911748750000005,
          "velocity": 0.7874015748031497
        },
        {
          "duration": 0.1470587499999958,
          "durationTicks": 24,
          "midi": 44,
          "name": "G#2",
          "ticks": 5208,
          "time": 31.911748750000005,
          "velocity": 0.7874015748031497
        },
        {
          "duration": 0.14705875000000646,
          "durationTicks": 24,
          "midi": 45,
          "name": "A2",
          "ticks": 5232,
          "time": 32.0588075,
          "velocity": 0.7874015748031497
        },
        {
          "duration": 0.14705875000000646,
          "durationTicks": 24,
          "midi": 50,
          "name": "D3",
          "ticks": 5232,
          "time": 32.0588075,
          "velocity": 0.7874015748031497
        },
        {
          "duration": 0.14705874999999935,
          "durationTicks": 24,
          "midi": 45,
          "name": "A2",
          "ticks": 5256,
          "time": 32.20586625000001,
          "velocity": 0.7874015748031497
        },
        {
          "duration": 0.14705874999999935,
          "durationTicks": 24,
          "midi": 50,
          "name": "D3",
          "ticks": 5256,
          "time": 32.20586625000001,
          "velocity": 0.7874015748031497
        },
        {
          "duration": 0.14705874999999935,
          "durationTicks": 24,
          "midi": 50,
          "name": "D3",
          "ticks": 5280,
          "time": 32.352925000000006,
          "velocity": 0.7874015748031497
        },
        {
          "duration": 0.14705874999999935,
          "durationTicks": 24,
          "midi": 45,
          "name": "A2",
          "ticks": 5280,
          "time": 32.352925000000006,
          "velocity": 0.7874015748031497
        },
        {
          "duration": 0.14705874999999935,
          "durationTicks": 24,
          "midi": 52,
          "name": "E3",
          "ticks": 5304,
          "time": 32.499983750000006,
          "velocity": 0.7874015748031497
        },
        {
          "duration": 0.14705874999999935,
          "durationTicks": 24,
          "midi": 47,
          "name": "B2",
          "ticks": 5304,
          "time": 32.499983750000006,
          "velocity": 0.7874015748031497
        },
        {
          "duration": 0.14705874999999935,
          "durationTicks": 24,
          "midi": 47,
          "name": "B2",
          "ticks": 5328,
          "time": 32.647042500000005,
          "velocity": 0.7874015748031497
        },
        {
          "duration": 0.14705874999999935,
          "durationTicks": 24,
          "midi": 52,
          "name": "E3",
          "ticks": 5328,
          "time": 32.647042500000005,
          "velocity": 0.7874015748031497
        },
        {
          "duration": 0.14705874999999935,
          "durationTicks": 24,
          "midi": 52,
          "name": "E3",
          "ticks": 5352,
          "time": 32.794101250000004,
          "velocity": 0.7874015748031497
        },
        {
          "duration": 0.14705874999999935,
          "durationTicks": 24,
          "midi": 47,
          "name": "B2",
          "ticks": 5352,
          "time": 32.794101250000004,
          "velocity": 0.7874015748031497
        },
        {
          "duration": 0.14705874999999935,
          "durationTicks": 24,
          "midi": 45,
          "name": "A2",
          "ticks": 5376,
          "time": 32.94116,
          "velocity": 0.7874015748031497
        },
        {
          "duration": 0.14705874999999935,
          "durationTicks": 24,
          "midi": 50,
          "name": "D3",
          "ticks": 5376,
          "time": 32.94116,
          "velocity": 0.7874015748031497
        },
        {
          "duration": 0.14705874999999935,
          "durationTicks": 24,
          "midi": 50,
          "name": "D3",
          "ticks": 5400,
          "time": 33.08821875,
          "velocity": 0.7874015748031497
        },
        {
          "duration": 0.14705874999999935,
          "durationTicks": 24,
          "midi": 45,
          "name": "A2",
          "ticks": 5400,
          "time": 33.08821875,
          "velocity": 0.7874015748031497
        },
        {
          "duration": 0.14705874999999935,
          "durationTicks": 24,
          "midi": 44,
          "name": "G#2",
          "ticks": 5424,
          "time": 33.2352775,
          "velocity": 0.7874015748031497
        },
        {
          "duration": 0.14705874999999935,
          "durationTicks": 24,
          "midi": 49,
          "name": "C#3",
          "ticks": 5424,
          "time": 33.2352775,
          "velocity": 0.7874015748031497
        },
        {
          "duration": 0.14705874999999935,
          "durationTicks": 24,
          "midi": 49,
          "name": "C#3",
          "ticks": 5448,
          "time": 33.38233625,
          "velocity": 0.7874015748031497
        },
        {
          "duration": 0.14705874999999935,
          "durationTicks": 24,
          "midi": 44,
          "name": "G#2",
          "ticks": 5448,
          "time": 33.38233625,
          "velocity": 0.7874015748031497
        },
        {
          "duration": 0.14705874999999935,
          "durationTicks": 24,
          "midi": 47,
          "name": "B2",
          "ticks": 5472,
          "time": 33.529395,
          "velocity": 0.7874015748031497
        },
        {
          "duration": 0.14705874999999935,
          "durationTicks": 24,
          "midi": 42,
          "name": "F#2",
          "ticks": 5472,
          "time": 33.529395,
          "velocity": 0.7874015748031497
        },
        {
          "duration": 0.14705875000000646,
          "durationTicks": 24,
          "midi": 42,
          "name": "F#2",
          "ticks": 5496,
          "time": 33.67645375,
          "velocity": 0.7874015748031497
        },
        {
          "duration": 0.14705875000000646,
          "durationTicks": 24,
          "midi": 47,
          "name": "B2",
          "ticks": 5496,
          "time": 33.67645375,
          "velocity": 0.7874015748031497
        },
        {
          "duration": 0.14705874999999935,
          "durationTicks": 24,
          "midi": 42,
          "name": "F#2",
          "ticks": 5520,
          "time": 33.82351250000001,
          "velocity": 0.7874015748031497
        },
        {
          "duration": 0.14705874999999935,
          "durationTicks": 24,
          "midi": 47,
          "name": "B2",
          "ticks": 5520,
          "time": 33.82351250000001,
          "velocity": 0.7874015748031497
        },
        {
          "duration": 0.14705874999999935,
          "durationTicks": 24,
          "midi": 47,
          "name": "B2",
          "ticks": 5544,
          "time": 33.970571250000006,
          "velocity": 0.7874015748031497
        },
        {
          "duration": 0.14705874999999935,
          "durationTicks": 24,
          "midi": 42,
          "name": "F#2",
          "ticks": 5544,
          "time": 33.970571250000006,
          "velocity": 0.7874015748031497
        },
        {
          "duration": 0.14705874999999935,
          "durationTicks": 24,
          "midi": 42,
          "name": "F#2",
          "ticks": 5568,
          "time": 34.117630000000005,
          "velocity": 0.7874015748031497
        },
        {
          "duration": 0.14705874999999935,
          "durationTicks": 24,
          "midi": 47,
          "name": "B2",
          "ticks": 5568,
          "time": 34.117630000000005,
          "velocity": 0.7874015748031497
        },
        {
          "duration": 0.14705874999999935,
          "durationTicks": 24,
          "midi": 42,
          "name": "F#2",
          "ticks": 5616,
          "time": 34.411747500000004,
          "velocity": 0.7874015748031497
        },
        {
          "duration": 0.14705874999999935,
          "durationTicks": 24,
          "midi": 47,
          "name": "B2",
          "ticks": 5616,
          "time": 34.411747500000004,
          "velocity": 0.7874015748031497
        },
        {
          "duration": 0.14705874999999935,
          "durationTicks": 24,
          "midi": 42,
          "name": "F#2",
          "ticks": 5640,
          "time": 34.55880625,
          "velocity": 0.7874015748031497
        },
        {
          "duration": 0.14705874999999935,
          "durationTicks": 24,
          "midi": 47,
          "name": "B2",
          "ticks": 5640,
          "time": 34.55880625,
          "velocity": 0.7874015748031497
        },
        {
          "duration": 0.14705874999999935,
          "durationTicks": 24,
          "midi": 42,
          "name": "F#2",
          "ticks": 5664,
          "time": 34.705865,
          "velocity": 0.7874015748031497
        },
        {
          "duration": 0.14705874999999935,
          "durationTicks": 24,
          "midi": 47,
          "name": "B2",
          "ticks": 5664,
          "time": 34.705865,
          "velocity": 0.7874015748031497
        },
        {
          "duration": 0.14705874999999935,
          "durationTicks": 24,
          "midi": 42,
          "name": "F#2",
          "ticks": 5688,
          "time": 34.85292375,
          "velocity": 0.7874015748031497
        },
        {
          "duration": 0.14705874999999935,
          "durationTicks": 24,
          "midi": 47,
          "name": "B2",
          "ticks": 5688,
          "time": 34.85292375,
          "velocity": 0.7874015748031497
        },
        {
          "duration": 0.14705874999999935,
          "durationTicks": 24,
          "midi": 42,
          "name": "F#2",
          "ticks": 5712,
          "time": 34.9999825,
          "velocity": 0.7874015748031497
        },
        {
          "duration": 0.14705874999999935,
          "durationTicks": 24,
          "midi": 47,
          "name": "B2",
          "ticks": 5712,
          "time": 34.9999825,
          "velocity": 0.7874015748031497
        },
        {
          "duration": 0.14705874999999935,
          "durationTicks": 24,
          "midi": 42,
          "name": "F#2",
          "ticks": 5856,
          "time": 35.882335000000005,
          "velocity": 0.7874015748031497
        },
        {
          "duration": 0.14705874999999935,
          "durationTicks": 24,
          "midi": 47,
          "name": "B2",
          "ticks": 5856,
          "time": 35.882335000000005,
          "velocity": 0.7874015748031497
        },
        {
          "duration": 0.14705874999999935,
          "durationTicks": 24,
          "midi": 47,
          "name": "B2",
          "ticks": 5880,
          "time": 36.029393750000004,
          "velocity": 0.7874015748031497
        },
        {
          "duration": 0.14705874999999935,
          "durationTicks": 24,
          "midi": 42,
          "name": "F#2",
          "ticks": 5880,
          "time": 36.029393750000004,
          "velocity": 0.7874015748031497
        },
        {
          "duration": 0.14705874999999935,
          "durationTicks": 24,
          "midi": 42,
          "name": "F#2",
          "ticks": 5904,
          "time": 36.1764525,
          "velocity": 0.7874015748031497
        },
        {
          "duration": 0.14705874999999935,
          "durationTicks": 24,
          "midi": 47,
          "name": "B2",
          "ticks": 5904,
          "time": 36.1764525,
          "velocity": 0.7874015748031497
        },
        {
          "duration": 0.14705874999999935,
          "durationTicks": 24,
          "midi": 47,
          "name": "B2",
          "ticks": 5928,
          "time": 36.32351125,
          "velocity": 0.7874015748031497
        },
        {
          "duration": 0.14705874999999935,
          "durationTicks": 24,
          "midi": 42,
          "name": "F#2",
          "ticks": 5928,
          "time": 36.32351125,
          "velocity": 0.7874015748031497
        },
        {
          "duration": 0.14705874999999935,
          "durationTicks": 24,
          "midi": 42,
          "name": "F#2",
          "ticks": 5952,
          "time": 36.47057,
          "velocity": 0.7874015748031497
        },
        {
          "duration": 0.14705874999999935,
          "durationTicks": 24,
          "midi": 47,
          "name": "B2",
          "ticks": 5952,
          "time": 36.47057,
          "velocity": 0.7874015748031497
        },
        {
          "duration": 0.14705875000000646,
          "durationTicks": 24,
          "midi": 42,
          "name": "F#2",
          "ticks": 6000,
          "time": 36.7646875,
          "velocity": 0.7874015748031497
        },
        {
          "duration": 0.14705875000000646,
          "durationTicks": 24,
          "midi": 47,
          "name": "B2",
          "ticks": 6000,
          "time": 36.7646875,
          "velocity": 0.7874015748031497
        },
        {
          "duration": 0.14705874999999935,
          "durationTicks": 24,
          "midi": 42,
          "name": "F#2",
          "ticks": 6024,
          "time": 36.91174625000001,
          "velocity": 0.7874015748031497
        },
        {
          "duration": 0.14705874999999935,
          "durationTicks": 24,
          "midi": 47,
          "name": "B2",
          "ticks": 6024,
          "time": 36.91174625000001,
          "velocity": 0.7874015748031497
        },
        {
          "duration": 0.14705874999999935,
          "durationTicks": 24,
          "midi": 42,
          "name": "F#2",
          "ticks": 6048,
          "time": 37.05880500000001,
          "velocity": 0.7874015748031497
        },
        {
          "duration": 0.14705874999999935,
          "durationTicks": 24,
          "midi": 47,
          "name": "B2",
          "ticks": 6048,
          "time": 37.05880500000001,
          "velocity": 0.7874015748031497
        },
        {
          "duration": 0.14705874999999935,
          "durationTicks": 24,
          "midi": 42,
          "name": "F#2",
          "ticks": 6072,
          "time": 37.205863750000006,
          "velocity": 0.7874015748031497
        },
        {
          "duration": 0.14705874999999935,
          "durationTicks": 24,
          "midi": 47,
          "name": "B2",
          "ticks": 6072,
          "time": 37.205863750000006,
          "velocity": 0.7874015748031497
        },
        {
          "duration": 0.14705874999999935,
          "durationTicks": 24,
          "midi": 42,
          "name": "F#2",
          "ticks": 6096,
          "time": 37.352922500000005,
          "velocity": 0.7874015748031497
        },
        {
          "duration": 0.14705874999999935,
          "durationTicks": 24,
          "midi": 47,
          "name": "B2",
          "ticks": 6096,
          "time": 37.352922500000005,
          "velocity": 0.7874015748031497
        },
        {
          "duration": 0.14705874999999935,
          "durationTicks": 24,
          "midi": 42,
          "name": "F#2",
          "ticks": 6240,
          "time": 38.235275,
          "velocity": 0.7874015748031497
        },
        {
          "duration": 0.14705874999999935,
          "durationTicks": 24,
          "midi": 47,
          "name": "B2",
          "ticks": 6240,
          "time": 38.235275,
          "velocity": 0.7874015748031497
        },
        {
          "duration": 0.14705875000000646,
          "durationTicks": 24,
          "midi": 47,
          "name": "B2",
          "ticks": 6264,
          "time": 38.38233375,
          "velocity": 0.7874015748031497
        },
        {
          "duration": 0.14705875000000646,
          "durationTicks": 24,
          "midi": 42,
          "name": "F#2",
          "ticks": 6264,
          "time": 38.38233375,
          "velocity": 0.7874015748031497
        },
        {
          "duration": 0.14705874999999935,
          "durationTicks": 24,
          "midi": 42,
          "name": "F#2",
          "ticks": 6288,
          "time": 38.52939250000001,
          "velocity": 0.7874015748031497
        },
        {
          "duration": 0.14705874999999935,
          "durationTicks": 24,
          "midi": 47,
          "name": "B2",
          "ticks": 6288,
          "time": 38.52939250000001,
          "velocity": 0.7874015748031497
        },
        {
          "duration": 0.14705874999999935,
          "durationTicks": 24,
          "midi": 47,
          "name": "B2",
          "ticks": 6312,
          "time": 38.67645125000001,
          "velocity": 0.7874015748031497
        },
        {
          "duration": 0.14705874999999935,
          "durationTicks": 24,
          "midi": 42,
          "name": "F#2",
          "ticks": 6312,
          "time": 38.67645125000001,
          "velocity": 0.7874015748031497
        },
        {
          "duration": 0.14705874999999935,
          "durationTicks": 24,
          "midi": 42,
          "name": "F#2",
          "ticks": 6336,
          "time": 38.823510000000006,
          "velocity": 0.7874015748031497
        },
        {
          "duration": 0.14705874999999935,
          "durationTicks": 24,
          "midi": 47,
          "name": "B2",
          "ticks": 6336,
          "time": 38.823510000000006,
          "velocity": 0.7874015748031497
        },
        {
          "duration": 0.14705874999999935,
          "durationTicks": 24,
          "midi": 42,
          "name": "F#2",
          "ticks": 6384,
          "time": 39.117627500000005,
          "velocity": 0.7874015748031497
        },
        {
          "duration": 0.14705874999999935,
          "durationTicks": 24,
          "midi": 47,
          "name": "B2",
          "ticks": 6384,
          "time": 39.117627500000005,
          "velocity": 0.7874015748031497
        },
        {
          "duration": 0.14705874999999935,
          "durationTicks": 24,
          "midi": 42,
          "name": "F#2",
          "ticks": 6408,
          "time": 39.264686250000004,
          "velocity": 0.7874015748031497
        },
        {
          "duration": 0.14705874999999935,
          "durationTicks": 24,
          "midi": 47,
          "name": "B2",
          "ticks": 6408,
          "time": 39.264686250000004,
          "velocity": 0.7874015748031497
        },
        {
          "duration": 0.14705874999999935,
          "durationTicks": 24,
          "midi": 42,
          "name": "F#2",
          "ticks": 6432,
          "time": 39.411745,
          "velocity": 0.7874015748031497
        },
        {
          "duration": 0.14705874999999935,
          "durationTicks": 24,
          "midi": 47,
          "name": "B2",
          "ticks": 6432,
          "time": 39.411745,
          "velocity": 0.7874015748031497
        },
        {
          "duration": 0.14705874999999935,
          "durationTicks": 24,
          "midi": 42,
          "name": "F#2",
          "ticks": 6456,
          "time": 39.55880375,
          "velocity": 0.7874015748031497
        },
        {
          "duration": 0.14705874999999935,
          "durationTicks": 24,
          "midi": 47,
          "name": "B2",
          "ticks": 6456,
          "time": 39.55880375,
          "velocity": 0.7874015748031497
        },
        {
          "duration": 0.14705874999999935,
          "durationTicks": 24,
          "midi": 42,
          "name": "F#2",
          "ticks": 6480,
          "time": 39.7058625,
          "velocity": 0.7874015748031497
        },
        {
          "duration": 0.14705874999999935,
          "durationTicks": 24,
          "midi": 47,
          "name": "B2",
          "ticks": 6480,
          "time": 39.7058625,
          "velocity": 0.7874015748031497
        },
        {
          "duration": 0.14705874999999935,
          "durationTicks": 24,
          "midi": 42,
          "name": "F#2",
          "ticks": 6624,
          "time": 40.588215000000005,
          "velocity": 0.7874015748031497
        },
        {
          "duration": 0.14705874999999935,
          "durationTicks": 24,
          "midi": 47,
          "name": "B2",
          "ticks": 6624,
          "time": 40.588215000000005,
          "velocity": 0.7874015748031497
        },
        {
          "duration": 0.14705874999999935,
          "durationTicks": 24,
          "midi": 47,
          "name": "B2",
          "ticks": 6648,
          "time": 40.735273750000005,
          "velocity": 0.7874015748031497
        },
        {
          "duration": 0.14705874999999935,
          "durationTicks": 24,
          "midi": 42,
          "name": "F#2",
          "ticks": 6648,
          "time": 40.735273750000005,
          "velocity": 0.7874015748031497
        },
        {
          "duration": 0.14705874999999935,
          "durationTicks": 24,
          "midi": 42,
          "name": "F#2",
          "ticks": 6672,
          "time": 40.882332500000004,
          "velocity": 0.7874015748031497
        },
        {
          "duration": 0.14705874999999935,
          "durationTicks": 24,
          "midi": 47,
          "name": "B2",
          "ticks": 6672,
          "time": 40.882332500000004,
          "velocity": 0.7874015748031497
        },
        {
          "duration": 0.14705874999999935,
          "durationTicks": 24,
          "midi": 47,
          "name": "B2",
          "ticks": 6696,
          "time": 41.02939125,
          "velocity": 0.7874015748031497
        },
        {
          "duration": 0.14705874999999935,
          "durationTicks": 24,
          "midi": 42,
          "name": "F#2",
          "ticks": 6696,
          "time": 41.02939125,
          "velocity": 0.7874015748031497
        },
        {
          "duration": 0.14705874999999935,
          "durationTicks": 24,
          "midi": 42,
          "name": "F#2",
          "ticks": 6720,
          "time": 41.17645,
          "velocity": 0.7874015748031497
        },
        {
          "duration": 0.14705874999999935,
          "durationTicks": 24,
          "midi": 47,
          "name": "B2",
          "ticks": 6720,
          "time": 41.17645,
          "velocity": 0.7874015748031497
        },
        {
          "duration": 0.14705875000000646,
          "durationTicks": 24,
          "midi": 42,
          "name": "F#2",
          "ticks": 6768,
          "time": 41.4705675,
          "velocity": 0.7874015748031497
        },
        {
          "duration": 0.14705875000000646,
          "durationTicks": 24,
          "midi": 47,
          "name": "B2",
          "ticks": 6768,
          "time": 41.4705675,
          "velocity": 0.7874015748031497
        },
        {
          "duration": 0.14705874999999935,
          "durationTicks": 24,
          "midi": 42,
          "name": "F#2",
          "ticks": 6792,
          "time": 41.61762625000001,
          "velocity": 0.7874015748031497
        },
        {
          "duration": 0.14705874999999935,
          "durationTicks": 24,
          "midi": 47,
          "name": "B2",
          "ticks": 6792,
          "time": 41.61762625000001,
          "velocity": 0.7874015748031497
        },
        {
          "duration": 0.14705874999999935,
          "durationTicks": 24,
          "midi": 42,
          "name": "F#2",
          "ticks": 6816,
          "time": 41.76468500000001,
          "velocity": 0.7874015748031497
        },
        {
          "duration": 0.14705874999999935,
          "durationTicks": 24,
          "midi": 47,
          "name": "B2",
          "ticks": 6816,
          "time": 41.76468500000001,
          "velocity": 0.7874015748031497
        },
        {
          "duration": 0.14705874999999935,
          "durationTicks": 24,
          "midi": 42,
          "name": "F#2",
          "ticks": 6840,
          "time": 41.91174375000001,
          "velocity": 0.7874015748031497
        },
        {
          "duration": 0.14705874999999935,
          "durationTicks": 24,
          "midi": 47,
          "name": "B2",
          "ticks": 6840,
          "time": 41.91174375000001,
          "velocity": 0.7874015748031497
        },
        {
          "duration": 0.14705874999999935,
          "durationTicks": 24,
          "midi": 42,
          "name": "F#2",
          "ticks": 6864,
          "time": 42.058802500000006,
          "velocity": 0.7874015748031497
        },
        {
          "duration": 0.14705874999999935,
          "durationTicks": 24,
          "midi": 47,
          "name": "B2",
          "ticks": 6864,
          "time": 42.058802500000006,
          "velocity": 0.7874015748031497
        },
        {
          "duration": 0.14705874999999935,
          "durationTicks": 24,
          "midi": 42,
          "name": "F#2",
          "ticks": 7008,
          "time": 42.941155,
          "velocity": 0.7874015748031497
        },
        {
          "duration": 0.14705874999999935,
          "durationTicks": 24,
          "midi": 47,
          "name": "B2",
          "ticks": 7008,
          "time": 42.941155,
          "velocity": 0.7874015748031497
        },
        {
          "duration": 0.14705875000000646,
          "durationTicks": 24,
          "midi": 47,
          "name": "B2",
          "ticks": 7032,
          "time": 43.08821375,
          "velocity": 0.7874015748031497
        },
        {
          "duration": 0.14705875000000646,
          "durationTicks": 24,
          "midi": 42,
          "name": "F#2",
          "ticks": 7032,
          "time": 43.08821375,
          "velocity": 0.7874015748031497
        },
        {
          "duration": 0.14705874999999935,
          "durationTicks": 24,
          "midi": 42,
          "name": "F#2",
          "ticks": 7056,
          "time": 43.23527250000001,
          "velocity": 0.7874015748031497
        },
        {
          "duration": 0.14705874999999935,
          "durationTicks": 24,
          "midi": 47,
          "name": "B2",
          "ticks": 7056,
          "time": 43.23527250000001,
          "velocity": 0.7874015748031497
        },
        {
          "duration": 0.14705874999999935,
          "durationTicks": 24,
          "midi": 47,
          "name": "B2",
          "ticks": 7080,
          "time": 43.38233125000001,
          "velocity": 0.7874015748031497
        },
        {
          "duration": 0.14705874999999935,
          "durationTicks": 24,
          "midi": 42,
          "name": "F#2",
          "ticks": 7080,
          "time": 43.38233125000001,
          "velocity": 0.7874015748031497
        },
        {
          "duration": 0.14705874999999935,
          "durationTicks": 24,
          "midi": 42,
          "name": "F#2",
          "ticks": 7104,
          "time": 43.52939000000001,
          "velocity": 0.7874015748031497
        },
        {
          "duration": 0.14705874999999935,
          "durationTicks": 24,
          "midi": 47,
          "name": "B2",
          "ticks": 7104,
          "time": 43.52939000000001,
          "velocity": 0.7874015748031497
        },
        {
          "duration": 0.14705874999999935,
          "durationTicks": 24,
          "midi": 42,
          "name": "F#2",
          "ticks": 7152,
          "time": 43.823507500000005,
          "velocity": 0.7874015748031497
        },
        {
          "duration": 0.14705874999999935,
          "durationTicks": 24,
          "midi": 47,
          "name": "B2",
          "ticks": 7152,
          "time": 43.823507500000005,
          "velocity": 0.7874015748031497
        },
        {
          "duration": 0.14705874999999935,
          "durationTicks": 24,
          "midi": 42,
          "name": "F#2",
          "ticks": 7176,
          "time": 43.970566250000005,
          "velocity": 0.7874015748031497
        },
        {
          "duration": 0.14705874999999935,
          "durationTicks": 24,
          "midi": 47,
          "name": "B2",
          "ticks": 7176,
          "time": 43.970566250000005,
          "velocity": 0.7874015748031497
        },
        {
          "duration": 0.14705874999999935,
          "durationTicks": 24,
          "midi": 42,
          "name": "F#2",
          "ticks": 7200,
          "time": 44.117625000000004,
          "velocity": 0.7874015748031497
        },
        {
          "duration": 0.14705874999999935,
          "durationTicks": 24,
          "midi": 47,
          "name": "B2",
          "ticks": 7200,
          "time": 44.117625000000004,
          "velocity": 0.7874015748031497
        },
        {
          "duration": 0.14705874999999935,
          "durationTicks": 24,
          "midi": 42,
          "name": "F#2",
          "ticks": 7224,
          "time": 44.26468375,
          "velocity": 0.7874015748031497
        },
        {
          "duration": 0.14705874999999935,
          "durationTicks": 24,
          "midi": 47,
          "name": "B2",
          "ticks": 7224,
          "time": 44.26468375,
          "velocity": 0.7874015748031497
        },
        {
          "duration": 0.14705874999999935,
          "durationTicks": 24,
          "midi": 42,
          "name": "F#2",
          "ticks": 7248,
          "time": 44.4117425,
          "velocity": 0.7874015748031497
        },
        {
          "duration": 0.14705874999999935,
          "durationTicks": 24,
          "midi": 47,
          "name": "B2",
          "ticks": 7248,
          "time": 44.4117425,
          "velocity": 0.7874015748031497
        },
        {
          "duration": 0.14705874999999935,
          "durationTicks": 24,
          "midi": 47,
          "name": "B2",
          "ticks": 7392,
          "time": 45.294095000000006,
          "velocity": 0.7874015748031497
        },
        {
          "duration": 0.14705874999999935,
          "durationTicks": 24,
          "midi": 42,
          "name": "F#2",
          "ticks": 7392,
          "time": 45.294095000000006,
          "velocity": 0.7874015748031497
        },
        {
          "duration": 0.14705874999999935,
          "durationTicks": 24,
          "midi": 42,
          "name": "F#2",
          "ticks": 7416,
          "time": 45.441153750000005,
          "velocity": 0.7874015748031497
        },
        {
          "duration": 0.14705874999999935,
          "durationTicks": 24,
          "midi": 47,
          "name": "B2",
          "ticks": 7416,
          "time": 45.441153750000005,
          "velocity": 0.7874015748031497
        },
        {
          "duration": 0.14705874999999935,
          "durationTicks": 24,
          "midi": 47,
          "name": "B2",
          "ticks": 7440,
          "time": 45.588212500000004,
          "velocity": 0.7874015748031497
        },
        {
          "duration": 0.14705874999999935,
          "durationTicks": 24,
          "midi": 42,
          "name": "F#2",
          "ticks": 7440,
          "time": 45.588212500000004,
          "velocity": 0.7874015748031497
        },
        {
          "duration": 0.14705874999999935,
          "durationTicks": 24,
          "midi": 42,
          "name": "F#2",
          "ticks": 7464,
          "time": 45.735271250000004,
          "velocity": 0.7874015748031497
        },
        {
          "duration": 0.14705874999999935,
          "durationTicks": 24,
          "midi": 47,
          "name": "B2",
          "ticks": 7464,
          "time": 45.735271250000004,
          "velocity": 0.7874015748031497
        },
        {
          "duration": 0.14705874999999935,
          "durationTicks": 24,
          "midi": 42,
          "name": "F#2",
          "ticks": 7488,
          "time": 45.88233,
          "velocity": 0.7874015748031497
        },
        {
          "duration": 0.14705874999999935,
          "durationTicks": 24,
          "midi": 47,
          "name": "B2",
          "ticks": 7488,
          "time": 45.88233,
          "velocity": 0.7874015748031497
        },
        {
          "duration": 0.14705875000000646,
          "durationTicks": 24,
          "midi": 42,
          "name": "F#2",
          "ticks": 7536,
          "time": 46.1764475,
          "velocity": 0.7874015748031497
        },
        {
          "duration": 0.14705875000000646,
          "durationTicks": 24,
          "midi": 47,
          "name": "B2",
          "ticks": 7536,
          "time": 46.1764475,
          "velocity": 0.7874015748031497
        },
        {
          "duration": 0.14705874999999935,
          "durationTicks": 24,
          "midi": 47,
          "name": "B2",
          "ticks": 7560,
          "time": 46.32350625000001,
          "velocity": 0.7874015748031497
        },
        {
          "duration": 0.14705874999999935,
          "durationTicks": 24,
          "midi": 42,
          "name": "F#2",
          "ticks": 7560,
          "time": 46.32350625000001,
          "velocity": 0.7874015748031497
        },
        {
          "duration": 0.14705874999999935,
          "durationTicks": 24,
          "midi": 47,
          "name": "B2",
          "ticks": 7584,
          "time": 46.47056500000001,
          "velocity": 0.7874015748031497
        },
        {
          "duration": 0.14705874999999935,
          "durationTicks": 24,
          "midi": 42,
          "name": "F#2",
          "ticks": 7584,
          "time": 46.47056500000001,
          "velocity": 0.7874015748031497
        },
        {
          "duration": 0.14705874999999935,
          "durationTicks": 24,
          "midi": 47,
          "name": "B2",
          "ticks": 7608,
          "time": 46.61762375000001,
          "velocity": 0.7874015748031497
        },
        {
          "duration": 0.14705874999999935,
          "durationTicks": 24,
          "midi": 42,
          "name": "F#2",
          "ticks": 7608,
          "time": 46.61762375000001,
          "velocity": 0.7874015748031497
        },
        {
          "duration": 0.14705874999999935,
          "durationTicks": 24,
          "midi": 47,
          "name": "B2",
          "ticks": 7632,
          "time": 46.764682500000006,
          "velocity": 0.7874015748031497
        },
        {
          "duration": 0.14705874999999935,
          "durationTicks": 24,
          "midi": 42,
          "name": "F#2",
          "ticks": 7632,
          "time": 46.764682500000006,
          "velocity": 0.7874015748031497
        },
        {
          "duration": 0.14705874999999935,
          "durationTicks": 24,
          "midi": 42,
          "name": "F#2",
          "ticks": 7776,
          "time": 47.647035,
          "velocity": 0.7874015748031497
        },
        {
          "duration": 0.14705874999999935,
          "durationTicks": 24,
          "midi": 47,
          "name": "B2",
          "ticks": 7776,
          "time": 47.647035,
          "velocity": 0.7874015748031497
        },
        {
          "duration": 0.14705875000000646,
          "durationTicks": 24,
          "midi": 42,
          "name": "F#2",
          "ticks": 7800,
          "time": 47.79409375,
          "velocity": 0.7874015748031497
        },
        {
          "duration": 0.14705875000000646,
          "durationTicks": 24,
          "midi": 47,
          "name": "B2",
          "ticks": 7800,
          "time": 47.79409375,
          "velocity": 0.7874015748031497
        },
        {
          "duration": 0.14705874999999935,
          "durationTicks": 24,
          "midi": 47,
          "name": "B2",
          "ticks": 7824,
          "time": 47.94115250000001,
          "velocity": 0.7874015748031497
        },
        {
          "duration": 0.14705874999999935,
          "durationTicks": 24,
          "midi": 42,
          "name": "F#2",
          "ticks": 7824,
          "time": 47.94115250000001,
          "velocity": 0.7874015748031497
        },
        {
          "duration": 0.14705874999999935,
          "durationTicks": 24,
          "midi": 42,
          "name": "F#2",
          "ticks": 7848,
          "time": 48.08821125000001,
          "velocity": 0.7874015748031497
        },
        {
          "duration": 0.14705874999999935,
          "durationTicks": 24,
          "midi": 47,
          "name": "B2",
          "ticks": 7848,
          "time": 48.08821125000001,
          "velocity": 0.7874015748031497
        },
        {
          "duration": 0.14705874999999935,
          "durationTicks": 24,
          "midi": 42,
          "name": "F#2",
          "ticks": 7872,
          "time": 48.23527000000001,
          "velocity": 0.7874015748031497
        },
        {
          "duration": 0.14705874999999935,
          "durationTicks": 24,
          "midi": 47,
          "name": "B2",
          "ticks": 7872,
          "time": 48.23527000000001,
          "velocity": 0.7874015748031497
        },
        {
          "duration": 0.14705874999999935,
          "durationTicks": 24,
          "midi": 42,
          "name": "F#2",
          "ticks": 7920,
          "time": 48.529387500000006,
          "velocity": 0.7874015748031497
        },
        {
          "duration": 0.14705874999999935,
          "durationTicks": 24,
          "midi": 47,
          "name": "B2",
          "ticks": 7920,
          "time": 48.529387500000006,
          "velocity": 0.7874015748031497
        },
        {
          "duration": 0.14705874999999935,
          "durationTicks": 24,
          "midi": 42,
          "name": "F#2",
          "ticks": 7944,
          "time": 48.676446250000005,
          "velocity": 0.7874015748031497
        },
        {
          "duration": 0.14705874999999935,
          "durationTicks": 24,
          "midi": 47,
          "name": "B2",
          "ticks": 7944,
          "time": 48.676446250000005,
          "velocity": 0.7874015748031497
        },
        {
          "duration": 0.14705874999999935,
          "durationTicks": 24,
          "midi": 42,
          "name": "F#2",
          "ticks": 7968,
          "time": 48.823505000000004,
          "velocity": 0.7874015748031497
        },
        {
          "duration": 0.14705874999999935,
          "durationTicks": 24,
          "midi": 47,
          "name": "B2",
          "ticks": 7968,
          "time": 48.823505000000004,
          "velocity": 0.7874015748031497
        },
        {
          "duration": 0.14705874999999935,
          "durationTicks": 24,
          "midi": 42,
          "name": "F#2",
          "ticks": 7992,
          "time": 48.970563750000004,
          "velocity": 0.7874015748031497
        },
        {
          "duration": 0.14705874999999935,
          "durationTicks": 24,
          "midi": 47,
          "name": "B2",
          "ticks": 7992,
          "time": 48.970563750000004,
          "velocity": 0.7874015748031497
        },
        {
          "duration": 0.14705874999999935,
          "durationTicks": 24,
          "midi": 42,
          "name": "F#2",
          "ticks": 8016,
          "time": 49.1176225,
          "velocity": 0.7874015748031497
        },
        {
          "duration": 0.14705874999999935,
          "durationTicks": 24,
          "midi": 47,
          "name": "B2",
          "ticks": 8016,
          "time": 49.1176225,
          "velocity": 0.7874015748031497
        },
        {
          "duration": 0.2941174999999987,
          "durationTicks": 48,
          "midi": 50,
          "name": "D3",
          "ticks": 8064,
          "time": 49.41174000000001,
          "velocity": 0.7874015748031497
        },
        {
          "duration": 0.2941174999999987,
          "durationTicks": 48,
          "midi": 45,
          "name": "A2",
          "ticks": 8064,
          "time": 49.41174000000001,
          "velocity": 0.7874015748031497
        },
        {
          "duration": 0.2941174999999987,
          "durationTicks": 48,
          "midi": 52,
          "name": "E3",
          "ticks": 8112,
          "time": 49.70585750000001,
          "velocity": 0.7874015748031497
        },
        {
          "duration": 0.2941174999999987,
          "durationTicks": 48,
          "midi": 47,
          "name": "B2",
          "ticks": 8112,
          "time": 49.70585750000001,
          "velocity": 0.7874015748031497
        },
        {
          "duration": 0.44117624999999805,
          "durationTicks": 72,
          "midi": 53,
          "name": "F3",
          "ticks": 8160,
          "time": 49.999975000000006,
          "velocity": 0.7874015748031497
        },
        {
          "duration": 0.44117624999999805,
          "durationTicks": 72,
          "midi": 48,
          "name": "C3",
          "ticks": 8160,
          "time": 49.999975000000006,
          "velocity": 0.7874015748031497
        },
        {
          "duration": 0.44117624999999805,
          "durationTicks": 72,
          "midi": 52,
          "name": "E3",
          "ticks": 8232,
          "time": 50.441151250000004,
          "velocity": 0.7874015748031497
        },
        {
          "duration": 0.44117624999999805,
          "durationTicks": 72,
          "midi": 47,
          "name": "B2",
          "ticks": 8232,
          "time": 50.441151250000004,
          "velocity": 0.7874015748031497
        },
        {
          "duration": 0.44117625000000515,
          "durationTicks": 72,
          "midi": 53,
          "name": "F3",
          "ticks": 8304,
          "time": 50.8823275,
          "velocity": 0.7874015748031497
        },
        {
          "duration": 0.44117625000000515,
          "durationTicks": 72,
          "midi": 48,
          "name": "C3",
          "ticks": 8304,
          "time": 50.8823275,
          "velocity": 0.7874015748031497
        },
        {
          "duration": 0.44117624999999805,
          "durationTicks": 72,
          "midi": 55,
          "name": "G3",
          "ticks": 8376,
          "time": 51.32350375000001,
          "velocity": 0.7874015748031497
        },
        {
          "duration": 0.44117624999999805,
          "durationTicks": 72,
          "midi": 50,
          "name": "D3",
          "ticks": 8376,
          "time": 51.32350375000001,
          "velocity": 0.7874015748031497
        },
        {
          "duration": 0.14705874999999935,
          "durationTicks": 24,
          "midi": 53,
          "name": "F3",
          "ticks": 8448,
          "time": 51.764680000000006,
          "velocity": 0.7874015748031497
        },
        {
          "duration": 0.14705874999999935,
          "durationTicks": 24,
          "midi": 48,
          "name": "C3",
          "ticks": 8448,
          "time": 51.764680000000006,
          "velocity": 0.7874015748031497
        },
        {
          "duration": 0.14705874999999935,
          "durationTicks": 24,
          "midi": 48,
          "name": "C3",
          "ticks": 8472,
          "time": 51.911738750000005,
          "velocity": 0.7874015748031497
        },
        {
          "duration": 0.14705874999999935,
          "durationTicks": 24,
          "midi": 53,
          "name": "F3",
          "ticks": 8472,
          "time": 51.911738750000005,
          "velocity": 0.7874015748031497
        },
        {
          "duration": 0.2941174999999987,
          "durationTicks": 48,
          "midi": 52,
          "name": "E3",
          "ticks": 8496,
          "time": 52.058797500000004,
          "velocity": 0.7874015748031497
        },
        {
          "duration": 0.2941174999999987,
          "durationTicks": 48,
          "midi": 47,
          "name": "B2",
          "ticks": 8496,
          "time": 52.058797500000004,
          "velocity": 0.7874015748031497
        },
        {
          "duration": 0.14705874999999935,
          "durationTicks": 24,
          "midi": 50,
          "name": "D3",
          "ticks": 8544,
          "time": 52.352915,
          "velocity": 0.7874015748031497
        },
        {
          "duration": 0.14705874999999935,
          "durationTicks": 24,
          "midi": 45,
          "name": "A2",
          "ticks": 8544,
          "time": 52.352915,
          "velocity": 0.7874015748031497
        },
        {
          "duration": 0.14705875000000646,
          "durationTicks": 24,
          "midi": 45,
          "name": "A2",
          "ticks": 8568,
          "time": 52.49997375,
          "velocity": 0.7874015748031497
        },
        {
          "duration": 0.14705875000000646,
          "durationTicks": 24,
          "midi": 50,
          "name": "D3",
          "ticks": 8568,
          "time": 52.49997375,
          "velocity": 0.7874015748031497
        },
        {
          "duration": 0.14705874999999935,
          "durationTicks": 24,
          "midi": 50,
          "name": "D3",
          "ticks": 8592,
          "time": 52.64703250000001,
          "velocity": 0.7874015748031497
        },
        {
          "duration": 0.14705874999999935,
          "durationTicks": 24,
          "midi": 45,
          "name": "A2",
          "ticks": 8592,
          "time": 52.64703250000001,
          "velocity": 0.7874015748031497
        },
        {
          "duration": 0.14705874999999935,
          "durationTicks": 24,
          "midi": 50,
          "name": "D3",
          "ticks": 8616,
          "time": 52.79409125000001,
          "velocity": 0.7874015748031497
        },
        {
          "duration": 0.14705874999999935,
          "durationTicks": 24,
          "midi": 45,
          "name": "A2",
          "ticks": 8616,
          "time": 52.79409125000001,
          "velocity": 0.7874015748031497
        },
        {
          "duration": 0.14705874999999935,
          "durationTicks": 24,
          "midi": 50,
          "name": "D3",
          "ticks": 8640,
          "time": 52.94115000000001,
          "velocity": 0.7874015748031497
        },
        {
          "duration": 0.14705874999999935,
          "durationTicks": 24,
          "midi": 45,
          "name": "A2",
          "ticks": 8640,
          "time": 52.94115000000001,
          "velocity": 0.7874015748031497
        },
        {
          "duration": 0.14705874999999935,
          "durationTicks": 24,
          "midi": 45,
          "name": "A2",
          "ticks": 8664,
          "time": 53.08820875000001,
          "velocity": 0.7874015748031497
        },
        {
          "duration": 0.14705874999999935,
          "durationTicks": 24,
          "midi": 50,
          "name": "D3",
          "ticks": 8664,
          "time": 53.08820875000001,
          "velocity": 0.7874015748031497
        },
        {
          "duration": 0.14705874999999935,
          "durationTicks": 24,
          "midi": 50,
          "name": "D3",
          "ticks": 8688,
          "time": 53.235267500000006,
          "velocity": 0.7874015748031497
        },
        {
          "duration": 0.14705874999999935,
          "durationTicks": 24,
          "midi": 45,
          "name": "A2",
          "ticks": 8688,
          "time": 53.235267500000006,
          "velocity": 0.7874015748031497
        },
        {
          "duration": 0.07352937499999967,
          "durationTicks": 12,
          "midi": 45,
          "name": "A2",
          "ticks": 8712,
          "time": 53.382326250000006,
          "velocity": 0.7874015748031497
        },
        {
          "duration": 0.07352937499999967,
          "durationTicks": 12,
          "midi": 50,
          "name": "D3",
          "ticks": 8712,
          "time": 53.382326250000006,
          "velocity": 0.7874015748031497
        },
        {
          "duration": 0.07352937499999967,
          "durationTicks": 12,
          "midi": 45,
          "name": "A2",
          "ticks": 8724,
          "time": 53.455855625000005,
          "velocity": 0.7874015748031497
        },
        {
          "duration": 0.07352937499999967,
          "durationTicks": 12,
          "midi": 50,
          "name": "D3",
          "ticks": 8724,
          "time": 53.455855625000005,
          "velocity": 0.7874015748031497
        },
        {
          "duration": 0.14705874999999935,
          "durationTicks": 24,
          "midi": 50,
          "name": "D3",
          "ticks": 8736,
          "time": 53.529385000000005,
          "velocity": 0.7874015748031497
        },
        {
          "duration": 0.14705874999999935,
          "durationTicks": 24,
          "midi": 45,
          "name": "A2",
          "ticks": 8736,
          "time": 53.529385000000005,
          "velocity": 0.7874015748031497
        },
        {
          "duration": 0.14705874999999935,
          "durationTicks": 24,
          "midi": 50,
          "name": "D3",
          "ticks": 8760,
          "time": 53.676443750000004,
          "velocity": 0.7874015748031497
        },
        {
          "duration": 0.14705874999999935,
          "durationTicks": 24,
          "midi": 45,
          "name": "A2",
          "ticks": 8760,
          "time": 53.676443750000004,
          "velocity": 0.7874015748031497
        },
        {
          "duration": 0.14705874999999935,
          "durationTicks": 24,
          "midi": 50,
          "name": "D3",
          "ticks": 8784,
          "time": 53.823502500000004,
          "velocity": 0.7874015748031497
        },
        {
          "duration": 0.14705874999999935,
          "durationTicks": 24,
          "midi": 45,
          "name": "A2",
          "ticks": 8784,
          "time": 53.823502500000004,
          "velocity": 0.7874015748031497
        },
        {
          "duration": 0.14705874999999935,
          "durationTicks": 24,
          "midi": 45,
          "name": "A2",
          "ticks": 8808,
          "time": 53.97056125,
          "velocity": 0.7874015748031497
        },
        {
          "duration": 0.14705874999999935,
          "durationTicks": 24,
          "midi": 50,
          "name": "D3",
          "ticks": 8808,
          "time": 53.97056125,
          "velocity": 0.7874015748031497
        },
        {
          "duration": 0.14705875000000646,
          "durationTicks": 24,
          "midi": 45,
          "name": "A2",
          "ticks": 8832,
          "time": 54.11762,
          "velocity": 0.7874015748031497
        },
        {
          "duration": 0.14705875000000646,
          "durationTicks": 24,
          "midi": 50,
          "name": "D3",
          "ticks": 8832,
          "time": 54.11762,
          "velocity": 0.7874015748031497
        },
        {
          "duration": 0.14705874999999935,
          "durationTicks": 24,
          "midi": 50,
          "name": "D3",
          "ticks": 8856,
          "time": 54.26467875000001,
          "velocity": 0.7874015748031497
        },
        {
          "duration": 0.14705874999999935,
          "durationTicks": 24,
          "midi": 45,
          "name": "A2",
          "ticks": 8856,
          "time": 54.26467875000001,
          "velocity": 0.7874015748031497
        },
        {
          "duration": 0.14705874999999935,
          "durationTicks": 24,
          "midi": 52,
          "name": "E3",
          "ticks": 8880,
          "time": 54.41173750000001,
          "velocity": 0.7874015748031497
        },
        {
          "duration": 0.14705874999999935,
          "durationTicks": 24,
          "midi": 47,
          "name": "B2",
          "ticks": 8880,
          "time": 54.41173750000001,
          "velocity": 0.7874015748031497
        },
        {
          "duration": 0.14705874999999935,
          "durationTicks": 24,
          "midi": 52,
          "name": "E3",
          "ticks": 8904,
          "time": 54.55879625000001,
          "velocity": 0.7874015748031497
        },
        {
          "duration": 0.14705874999999935,
          "durationTicks": 24,
          "midi": 47,
          "name": "B2",
          "ticks": 8904,
          "time": 54.55879625000001,
          "velocity": 0.7874015748031497
        },
        {
          "duration": 0.14705874999999935,
          "durationTicks": 24,
          "midi": 53,
          "name": "F3",
          "ticks": 8928,
          "time": 54.70585500000001,
          "velocity": 0.7874015748031497
        },
        {
          "duration": 0.14705874999999935,
          "durationTicks": 24,
          "midi": 48,
          "name": "C3",
          "ticks": 8928,
          "time": 54.70585500000001,
          "velocity": 0.7874015748031497
        },
        {
          "duration": 0.14705874999999935,
          "durationTicks": 24,
          "midi": 53,
          "name": "F3",
          "ticks": 8952,
          "time": 54.852913750000006,
          "velocity": 0.7874015748031497
        },
        {
          "duration": 0.14705874999999935,
          "durationTicks": 24,
          "midi": 48,
          "name": "C3",
          "ticks": 8952,
          "time": 54.852913750000006,
          "velocity": 0.7874015748031497
        },
        {
          "duration": 0.14705874999999935,
          "durationTicks": 24,
          "midi": 53,
          "name": "F3",
          "ticks": 8976,
          "time": 54.999972500000005,
          "velocity": 0.7874015748031497
        },
        {
          "duration": 0.14705874999999935,
          "durationTicks": 24,
          "midi": 48,
          "name": "C3",
          "ticks": 8976,
          "time": 54.999972500000005,
          "velocity": 0.7874015748031497
        },
        {
          "duration": 0.14705874999999935,
          "durationTicks": 24,
          "midi": 53,
          "name": "F3",
          "ticks": 9000,
          "time": 55.147031250000005,
          "velocity": 0.7874015748031497
        },
        {
          "duration": 0.14705874999999935,
          "durationTicks": 24,
          "midi": 48,
          "name": "C3",
          "ticks": 9000,
          "time": 55.147031250000005,
          "velocity": 0.7874015748031497
        },
        {
          "duration": 0.14705874999999935,
          "durationTicks": 24,
          "midi": 53,
          "name": "F3",
          "ticks": 9024,
          "time": 55.294090000000004,
          "velocity": 0.7874015748031497
        },
        {
          "duration": 0.14705874999999935,
          "durationTicks": 24,
          "midi": 48,
          "name": "C3",
          "ticks": 9024,
          "time": 55.294090000000004,
          "velocity": 0.7874015748031497
        },
        {
          "duration": 0.14705874999999935,
          "durationTicks": 24,
          "midi": 53,
          "name": "F3",
          "ticks": 9048,
          "time": 55.44114875,
          "velocity": 0.7874015748031497
        },
        {
          "duration": 0.14705874999999935,
          "durationTicks": 24,
          "midi": 48,
          "name": "C3",
          "ticks": 9048,
          "time": 55.44114875,
          "velocity": 0.7874015748031497
        },
        {
          "duration": 0.14705875000000646,
          "durationTicks": 24,
          "midi": 48,
          "name": "C3",
          "ticks": 9072,
          "time": 55.5882075,
          "velocity": 0.7874015748031497
        },
        {
          "duration": 0.14705875000000646,
          "durationTicks": 24,
          "midi": 53,
          "name": "F3",
          "ticks": 9072,
          "time": 55.5882075,
          "velocity": 0.7874015748031497
        },
        {
          "duration": 0.07352937499999967,
          "durationTicks": 12,
          "midi": 48,
          "name": "C3",
          "ticks": 9096,
          "time": 55.73526625000001,
          "velocity": 0.7874015748031497
        },
        {
          "duration": 0.07352937499999967,
          "durationTicks": 12,
          "midi": 53,
          "name": "F3",
          "ticks": 9096,
          "time": 55.73526625000001,
          "velocity": 0.7874015748031497
        },
        {
          "duration": 0.07352937499999967,
          "durationTicks": 12,
          "midi": 48,
          "name": "C3",
          "ticks": 9108,
          "time": 55.80879562500001,
          "velocity": 0.7874015748031497
        },
        {
          "duration": 0.07352937499999967,
          "durationTicks": 12,
          "midi": 53,
          "name": "F3",
          "ticks": 9108,
          "time": 55.80879562500001,
          "velocity": 0.7874015748031497
        },
        {
          "duration": 0.14705874999999935,
          "durationTicks": 24,
          "midi": 53,
          "name": "F3",
          "ticks": 9120,
          "time": 55.88232500000001,
          "velocity": 0.7874015748031497
        },
        {
          "duration": 0.14705874999999935,
          "durationTicks": 24,
          "midi": 48,
          "name": "C3",
          "ticks": 9120,
          "time": 55.88232500000001,
          "velocity": 0.7874015748031497
        },
        {
          "duration": 0.14705874999999935,
          "durationTicks": 24,
          "midi": 53,
          "name": "F3",
          "ticks": 9144,
          "time": 56.02938375000001,
          "velocity": 0.7874015748031497
        },
        {
          "duration": 0.14705874999999935,
          "durationTicks": 24,
          "midi": 48,
          "name": "C3",
          "ticks": 9144,
          "time": 56.02938375000001,
          "velocity": 0.7874015748031497
        },
        {
          "duration": 0.14705874999999935,
          "durationTicks": 24,
          "midi": 53,
          "name": "F3",
          "ticks": 9168,
          "time": 56.17644250000001,
          "velocity": 0.7874015748031497
        },
        {
          "duration": 0.14705874999999935,
          "durationTicks": 24,
          "midi": 48,
          "name": "C3",
          "ticks": 9168,
          "time": 56.17644250000001,
          "velocity": 0.7874015748031497
        },
        {
          "duration": 0.14705874999999935,
          "durationTicks": 24,
          "midi": 53,
          "name": "F3",
          "ticks": 9192,
          "time": 56.32350125000001,
          "velocity": 0.7874015748031497
        },
        {
          "duration": 0.14705874999999935,
          "durationTicks": 24,
          "midi": 48,
          "name": "C3",
          "ticks": 9192,
          "time": 56.32350125000001,
          "velocity": 0.7874015748031497
        },
        {
          "duration": 0.14705874999999935,
          "durationTicks": 24,
          "midi": 47,
          "name": "B2",
          "ticks": 9216,
          "time": 56.470560000000006,
          "velocity": 0.7874015748031497
        },
        {
          "duration": 0.14705874999999935,
          "durationTicks": 24,
          "midi": 52,
          "name": "E3",
          "ticks": 9216,
          "time": 56.470560000000006,
          "velocity": 0.7874015748031497
        },
        {
          "duration": 0.14705874999999935,
          "durationTicks": 24,
          "midi": 52,
          "name": "E3",
          "ticks": 9240,
          "time": 56.617618750000005,
          "velocity": 0.7874015748031497
        },
        {
          "duration": 0.14705874999999935,
          "durationTicks": 24,
          "midi": 47,
          "name": "B2",
          "ticks": 9240,
          "time": 56.617618750000005,
          "velocity": 0.7874015748031497
        },
        {
          "duration": 0.14705874999999935,
          "durationTicks": 24,
          "midi": 48,
          "name": "C3",
          "ticks": 9264,
          "time": 56.764677500000005,
          "velocity": 0.7874015748031497
        },
        {
          "duration": 0.14705874999999935,
          "durationTicks": 24,
          "midi": 43,
          "name": "G2",
          "ticks": 9264,
          "time": 56.764677500000005,
          "velocity": 0.7874015748031497
        },
        {
          "duration": 0.14705874999999935,
          "durationTicks": 24,
          "midi": 43,
          "name": "G2",
          "ticks": 9288,
          "time": 56.911736250000004,
          "velocity": 0.7874015748031497
        },
        {
          "duration": 0.14705874999999935,
          "durationTicks": 24,
          "midi": 48,
          "name": "C3",
          "ticks": 9288,
          "time": 56.911736250000004,
          "velocity": 0.7874015748031497
        },
        {
          "duration": 0.14705874999999935,
          "durationTicks": 24,
          "midi": 46,
          "name": "A#2",
          "ticks": 9312,
          "time": 57.058795,
          "velocity": 0.7874015748031497
        },
        {
          "duration": 0.14705874999999935,
          "durationTicks": 24,
          "midi": 41,
          "name": "F2",
          "ticks": 9312,
          "time": 57.058795,
          "velocity": 0.7874015748031497
        },
        {
          "duration": 0.14705875000000646,
          "durationTicks": 24,
          "midi": 46,
          "name": "A#2",
          "ticks": 9336,
          "time": 57.20585375,
          "velocity": 0.7874015748031497
        },
        {
          "duration": 0.14705875000000646,
          "durationTicks": 24,
          "midi": 41,
          "name": "F2",
          "ticks": 9336,
          "time": 57.20585375,
          "velocity": 0.7874015748031497
        },
        {
          "duration": 0.14705874999999935,
          "durationTicks": 24,
          "midi": 46,
          "name": "A#2",
          "ticks": 9360,
          "time": 57.35291250000001,
          "velocity": 0.7874015748031497
        },
        {
          "duration": 0.14705874999999935,
          "durationTicks": 24,
          "midi": 41,
          "name": "F2",
          "ticks": 9360,
          "time": 57.35291250000001,
          "velocity": 0.7874015748031497
        },
        {
          "duration": 0.14705874999999935,
          "durationTicks": 24,
          "midi": 46,
          "name": "A#2",
          "ticks": 9384,
          "time": 57.49997125000001,
          "velocity": 0.7874015748031497
        },
        {
          "duration": 0.14705874999999935,
          "durationTicks": 24,
          "midi": 41,
          "name": "F2",
          "ticks": 9384,
          "time": 57.49997125000001,
          "velocity": 0.7874015748031497
        },
        {
          "duration": 0.14705874999999935,
          "durationTicks": 24,
          "midi": 46,
          "name": "A#2",
          "ticks": 9408,
          "time": 57.64703000000001,
          "velocity": 0.7874015748031497
        },
        {
          "duration": 0.14705874999999935,
          "durationTicks": 24,
          "midi": 41,
          "name": "F2",
          "ticks": 9408,
          "time": 57.64703000000001,
          "velocity": 0.7874015748031497
        },
        {
          "duration": 0.14705874999999935,
          "durationTicks": 24,
          "midi": 41,
          "name": "F2",
          "ticks": 9432,
          "time": 57.79408875000001,
          "velocity": 0.7874015748031497
        },
        {
          "duration": 0.14705874999999935,
          "durationTicks": 24,
          "midi": 46,
          "name": "A#2",
          "ticks": 9432,
          "time": 57.79408875000001,
          "velocity": 0.7874015748031497
        },
        {
          "duration": 0.14705874999999935,
          "durationTicks": 24,
          "midi": 41,
          "name": "F2",
          "ticks": 9456,
          "time": 57.94114750000001,
          "velocity": 0.7874015748031497
        },
        {
          "duration": 0.14705874999999935,
          "durationTicks": 24,
          "midi": 46,
          "name": "A#2",
          "ticks": 9456,
          "time": 57.94114750000001,
          "velocity": 0.7874015748031497
        },
        {
          "duration": 0.07352937499999967,
          "durationTicks": 12,
          "midi": 46,
          "name": "A#2",
          "ticks": 9480,
          "time": 58.088206250000006,
          "velocity": 0.7874015748031497
        },
        {
          "duration": 0.07352937499999967,
          "durationTicks": 12,
          "midi": 41,
          "name": "F2",
          "ticks": 9480,
          "time": 58.088206250000006,
          "velocity": 0.7874015748031497
        },
        {
          "duration": 0.07352937499999967,
          "durationTicks": 12,
          "midi": 41,
          "name": "F2",
          "ticks": 9492,
          "time": 58.161735625000006,
          "velocity": 0.7874015748031497
        },
        {
          "duration": 0.07352937499999967,
          "durationTicks": 12,
          "midi": 46,
          "name": "A#2",
          "ticks": 9492,
          "time": 58.161735625000006,
          "velocity": 0.7874015748031497
        },
        {
          "duration": 0.14705874999999935,
          "durationTicks": 24,
          "midi": 41,
          "name": "F2",
          "ticks": 9504,
          "time": 58.235265000000005,
          "velocity": 0.7874015748031497
        },
        {
          "duration": 0.14705874999999935,
          "durationTicks": 24,
          "midi": 46,
          "name": "A#2",
          "ticks": 9504,
          "time": 58.235265000000005,
          "velocity": 0.7874015748031497
        },
        {
          "duration": 0.14705874999999935,
          "durationTicks": 24,
          "midi": 41,
          "name": "F2",
          "ticks": 9528,
          "time": 58.382323750000005,
          "velocity": 0.7874015748031497
        },
        {
          "duration": 0.14705874999999935,
          "durationTicks": 24,
          "midi": 46,
          "name": "A#2",
          "ticks": 9528,
          "time": 58.382323750000005,
          "velocity": 0.7874015748031497
        },
        {
          "duration": 0.14705874999999935,
          "durationTicks": 24,
          "midi": 41,
          "name": "F2",
          "ticks": 9552,
          "time": 58.529382500000004,
          "velocity": 0.7874015748031497
        },
        {
          "duration": 0.14705874999999935,
          "durationTicks": 24,
          "midi": 46,
          "name": "A#2",
          "ticks": 9552,
          "time": 58.529382500000004,
          "velocity": 0.7874015748031497
        },
        {
          "duration": 0.14705875000000646,
          "durationTicks": 24,
          "midi": 46,
          "name": "A#2",
          "ticks": 9576,
          "time": 58.67644125,
          "velocity": 0.7874015748031497
        },
        {
          "duration": 0.14705875000000646,
          "durationTicks": 24,
          "midi": 41,
          "name": "F2",
          "ticks": 9576,
          "time": 58.67644125,
          "velocity": 0.7874015748031497
        },
        {
          "duration": 0.14705874999999935,
          "durationTicks": 24,
          "midi": 46,
          "name": "A#2",
          "ticks": 9600,
          "time": 58.82350000000001,
          "velocity": 0.7874015748031497
        },
        {
          "duration": 0.14705874999999935,
          "durationTicks": 24,
          "midi": 41,
          "name": "F2",
          "ticks": 9600,
          "time": 58.82350000000001,
          "velocity": 0.7874015748031497
        },
        {
          "duration": 0.14705874999999935,
          "durationTicks": 24,
          "midi": 46,
          "name": "A#2",
          "ticks": 9624,
          "time": 58.97055875000001,
          "velocity": 0.7874015748031497
        },
        {
          "duration": 0.14705874999999935,
          "durationTicks": 24,
          "midi": 41,
          "name": "F2",
          "ticks": 9624,
          "time": 58.97055875000001,
          "velocity": 0.7874015748031497
        },
        {
          "duration": 0.14705874999999935,
          "durationTicks": 24,
          "midi": 41,
          "name": "F2",
          "ticks": 9648,
          "time": 59.11761750000001,
          "velocity": 0.7874015748031497
        },
        {
          "duration": 0.14705874999999935,
          "durationTicks": 24,
          "midi": 46,
          "name": "A#2",
          "ticks": 9648,
          "time": 59.11761750000001,
          "velocity": 0.7874015748031497
        },
        {
          "duration": 0.07352937499999967,
          "durationTicks": 12,
          "midi": 46,
          "name": "A#2",
          "ticks": 9672,
          "time": 59.26467625000001,
          "velocity": 0.7874015748031497
        },
        {
          "duration": 0.07352937499999967,
          "durationTicks": 12,
          "midi": 41,
          "name": "F2",
          "ticks": 9672,
          "time": 59.26467625000001,
          "velocity": 0.7874015748031497
        },
        {
          "duration": 0.07352937499999967,
          "durationTicks": 12,
          "midi": 41,
          "name": "F2",
          "ticks": 9684,
          "time": 59.33820562500001,
          "velocity": 0.7874015748031497
        },
        {
          "duration": 0.07352937499999967,
          "durationTicks": 12,
          "midi": 46,
          "name": "A#2",
          "ticks": 9684,
          "time": 59.33820562500001,
          "velocity": 0.7874015748031497
        },
        {
          "duration": 0.14705874999999935,
          "durationTicks": 24,
          "midi": 43,
          "name": "G2",
          "ticks": 9696,
          "time": 59.41173500000001,
          "velocity": 0.7874015748031497
        },
        {
          "duration": 0.14705874999999935,
          "durationTicks": 24,
          "midi": 48,
          "name": "C3",
          "ticks": 9696,
          "time": 59.41173500000001,
          "velocity": 0.7874015748031497
        },
        {
          "duration": 0.14705874999999935,
          "durationTicks": 24,
          "midi": 48,
          "name": "C3",
          "ticks": 9720,
          "time": 59.55879375000001,
          "velocity": 0.7874015748031497
        },
        {
          "duration": 0.14705874999999935,
          "durationTicks": 24,
          "midi": 43,
          "name": "G2",
          "ticks": 9720,
          "time": 59.55879375000001,
          "velocity": 0.7874015748031497
        },
        {
          "duration": 0.14705874999999935,
          "durationTicks": 24,
          "midi": 43,
          "name": "G2",
          "ticks": 9744,
          "time": 59.705852500000006,
          "velocity": 0.7874015748031497
        },
        {
          "duration": 0.14705874999999935,
          "durationTicks": 24,
          "midi": 48,
          "name": "C3",
          "ticks": 9744,
          "time": 59.705852500000006,
          "velocity": 0.7874015748031497
        },
        {
          "duration": 0.14705874999999935,
          "durationTicks": 24,
          "midi": 43,
          "name": "G2",
          "ticks": 9768,
          "time": 59.852911250000005,
          "velocity": 0.7874015748031497
        },
        {
          "duration": 0.14705874999999935,
          "durationTicks": 24,
          "midi": 48,
          "name": "C3",
          "ticks": 9768,
          "time": 59.852911250000005,
          "velocity": 0.7874015748031497
        },
        {
          "duration": 0.14705874999999935,
          "durationTicks": 24,
          "midi": 43,
          "name": "G2",
          "ticks": 9792,
          "time": 59.999970000000005,
          "velocity": 0.7874015748031497
        },
        {
          "duration": 0.14705874999999935,
          "durationTicks": 24,
          "midi": 48,
          "name": "C3",
          "ticks": 9792,
          "time": 59.999970000000005,
          "velocity": 0.7874015748031497
        },
        {
          "duration": 0.14705874999999935,
          "durationTicks": 24,
          "midi": 48,
          "name": "C3",
          "ticks": 9816,
          "time": 60.147028750000004,
          "velocity": 0.7874015748031497
        },
        {
          "duration": 0.14705874999999935,
          "durationTicks": 24,
          "midi": 43,
          "name": "G2",
          "ticks": 9816,
          "time": 60.147028750000004,
          "velocity": 0.7874015748031497
        },
        {
          "duration": 0.14705875000000646,
          "durationTicks": 24,
          "midi": 48,
          "name": "C3",
          "ticks": 9840,
          "time": 60.2940875,
          "velocity": 0.7874015748031497
        },
        {
          "duration": 0.14705875000000646,
          "durationTicks": 24,
          "midi": 43,
          "name": "G2",
          "ticks": 9840,
          "time": 60.2940875,
          "velocity": 0.7874015748031497
        },
        {
          "duration": 0.07352937499999967,
          "durationTicks": 12,
          "midi": 43,
          "name": "G2",
          "ticks": 9864,
          "time": 60.44114625000001,
          "velocity": 0.7874015748031497
        },
        {
          "duration": 0.07352937499999967,
          "durationTicks": 12,
          "midi": 48,
          "name": "C3",
          "ticks": 9864,
          "time": 60.44114625000001,
          "velocity": 0.7874015748031497
        },
        {
          "duration": 0.07352937499999967,
          "durationTicks": 12,
          "midi": 43,
          "name": "G2",
          "ticks": 9876,
          "time": 60.51467562500001,
          "velocity": 0.7874015748031497
        },
        {
          "duration": 0.07352937499999967,
          "durationTicks": 12,
          "midi": 48,
          "name": "C3",
          "ticks": 9876,
          "time": 60.51467562500001,
          "velocity": 0.7874015748031497
        },
        {
          "duration": 0.14705874999999935,
          "durationTicks": 24,
          "midi": 48,
          "name": "C3",
          "ticks": 9888,
          "time": 60.58820500000001,
          "velocity": 0.7874015748031497
        },
        {
          "duration": 0.14705874999999935,
          "durationTicks": 24,
          "midi": 43,
          "name": "G2",
          "ticks": 9888,
          "time": 60.58820500000001,
          "velocity": 0.7874015748031497
        },
        {
          "duration": 0.14705874999999935,
          "durationTicks": 24,
          "midi": 48,
          "name": "C3",
          "ticks": 9912,
          "time": 60.73526375000001,
          "velocity": 0.7874015748031497
        },
        {
          "duration": 0.14705874999999935,
          "durationTicks": 24,
          "midi": 43,
          "name": "G2",
          "ticks": 9912,
          "time": 60.73526375000001,
          "velocity": 0.7874015748031497
        },
        {
          "duration": 0.14705874999999935,
          "durationTicks": 24,
          "midi": 43,
          "name": "G2",
          "ticks": 9936,
          "time": 60.88232250000001,
          "velocity": 0.7874015748031497
        },
        {
          "duration": 0.14705874999999935,
          "durationTicks": 24,
          "midi": 48,
          "name": "C3",
          "ticks": 9936,
          "time": 60.88232250000001,
          "velocity": 0.7874015748031497
        },
        {
          "duration": 0.14705874999999935,
          "durationTicks": 24,
          "midi": 48,
          "name": "C3",
          "ticks": 9960,
          "time": 61.02938125000001,
          "velocity": 0.7874015748031497
        },
        {
          "duration": 0.14705874999999935,
          "durationTicks": 24,
          "midi": 43,
          "name": "G2",
          "ticks": 9960,
          "time": 61.02938125000001,
          "velocity": 0.7874015748031497
        },
        {
          "duration": 0.14705874999999935,
          "durationTicks": 24,
          "midi": 48,
          "name": "C3",
          "ticks": 9984,
          "time": 61.17644000000001,
          "velocity": 0.7874015748031497
        },
        {
          "duration": 0.14705874999999935,
          "durationTicks": 24,
          "midi": 43,
          "name": "G2",
          "ticks": 9984,
          "time": 61.17644000000001,
          "velocity": 0.7874015748031497
        },
        {
          "duration": 0.14705874999999935,
          "durationTicks": 24,
          "midi": 48,
          "name": "C3",
          "ticks": 10008,
          "time": 61.323498750000006,
          "velocity": 0.7874015748031497
        },
        {
          "duration": 0.14705874999999935,
          "durationTicks": 24,
          "midi": 43,
          "name": "G2",
          "ticks": 10008,
          "time": 61.323498750000006,
          "velocity": 0.7874015748031497
        },
        {
          "duration": 0.14705874999999935,
          "durationTicks": 24,
          "midi": 43,
          "name": "G2",
          "ticks": 10032,
          "time": 61.470557500000005,
          "velocity": 0.7874015748031497
        },
        {
          "duration": 0.14705874999999935,
          "durationTicks": 24,
          "midi": 48,
          "name": "C3",
          "ticks": 10032,
          "time": 61.470557500000005,
          "velocity": 0.7874015748031497
        },
        {
          "duration": 0.07352937499999967,
          "durationTicks": 12,
          "midi": 43,
          "name": "G2",
          "ticks": 10056,
          "time": 61.617616250000005,
          "velocity": 0.7874015748031497
        },
        {
          "duration": 0.07352937499999967,
          "durationTicks": 12,
          "midi": 48,
          "name": "C3",
          "ticks": 10056,
          "time": 61.617616250000005,
          "velocity": 0.7874015748031497
        },
        {
          "duration": 0.07352937499999967,
          "durationTicks": 12,
          "midi": 48,
          "name": "C3",
          "ticks": 10068,
          "time": 61.691145625000004,
          "velocity": 0.7874015748031497
        },
        {
          "duration": 0.07352937499999967,
          "durationTicks": 12,
          "midi": 43,
          "name": "G2",
          "ticks": 10068,
          "time": 61.691145625000004,
          "velocity": 0.7874015748031497
        },
        {
          "duration": 0.14705874999999935,
          "durationTicks": 24,
          "midi": 45,
          "name": "A2",
          "ticks": 10080,
          "time": 61.764675000000004,
          "velocity": 0.7874015748031497
        },
        {
          "duration": 0.14705874999999935,
          "durationTicks": 24,
          "midi": 50,
          "name": "D3",
          "ticks": 10080,
          "time": 61.764675000000004,
          "velocity": 0.7874015748031497
        },
        {
          "duration": 0.14705875000000646,
          "durationTicks": 24,
          "midi": 45,
          "name": "A2",
          "ticks": 10104,
          "time": 61.91173375,
          "velocity": 0.7874015748031497
        },
        {
          "duration": 0.14705875000000646,
          "durationTicks": 24,
          "midi": 50,
          "name": "D3",
          "ticks": 10104,
          "time": 61.91173375,
          "velocity": 0.7874015748031497
        },
        {
          "duration": 0.14705874999999935,
          "durationTicks": 24,
          "midi": 45,
          "name": "A2",
          "ticks": 10128,
          "time": 62.05879250000001,
          "velocity": 0.7874015748031497
        },
        {
          "duration": 0.14705874999999935,
          "durationTicks": 24,
          "midi": 50,
          "name": "D3",
          "ticks": 10128,
          "time": 62.05879250000001,
          "velocity": 0.7874015748031497
        },
        {
          "duration": 0.14705874999999935,
          "durationTicks": 24,
          "midi": 50,
          "name": "D3",
          "ticks": 10152,
          "time": 62.20585125000001,
          "velocity": 0.7874015748031497
        },
        {
          "duration": 0.14705874999999935,
          "durationTicks": 24,
          "midi": 45,
          "name": "A2",
          "ticks": 10152,
          "time": 62.20585125000001,
          "velocity": 0.7874015748031497
        },
        {
          "duration": 0.14705874999999935,
          "durationTicks": 24,
          "midi": 50,
          "name": "D3",
          "ticks": 10176,
          "time": 62.35291000000001,
          "velocity": 0.7874015748031497
        },
        {
          "duration": 0.14705874999999935,
          "durationTicks": 24,
          "midi": 45,
          "name": "A2",
          "ticks": 10176,
          "time": 62.35291000000001,
          "velocity": 0.7874015748031497
        },
        {
          "duration": 0.14705874999999935,
          "durationTicks": 24,
          "midi": 50,
          "name": "D3",
          "ticks": 10200,
          "time": 62.49996875000001,
          "velocity": 0.7874015748031497
        },
        {
          "duration": 0.14705874999999935,
          "durationTicks": 24,
          "midi": 45,
          "name": "A2",
          "ticks": 10200,
          "time": 62.49996875000001,
          "velocity": 0.7874015748031497
        },
        {
          "duration": 0.14705874999999935,
          "durationTicks": 24,
          "midi": 50,
          "name": "D3",
          "ticks": 10224,
          "time": 62.64702750000001,
          "velocity": 0.7874015748031497
        },
        {
          "duration": 0.14705874999999935,
          "durationTicks": 24,
          "midi": 45,
          "name": "A2",
          "ticks": 10224,
          "time": 62.64702750000001,
          "velocity": 0.7874015748031497
        },
        {
          "duration": 0.07352937499999967,
          "durationTicks": 12,
          "midi": 50,
          "name": "D3",
          "ticks": 10248,
          "time": 62.79408625000001,
          "velocity": 0.7874015748031497
        },
        {
          "duration": 0.07352937499999967,
          "durationTicks": 12,
          "midi": 45,
          "name": "A2",
          "ticks": 10248,
          "time": 62.79408625000001,
          "velocity": 0.7874015748031497
        },
        {
          "duration": 0.07352937499999967,
          "durationTicks": 12,
          "midi": 45,
          "name": "A2",
          "ticks": 10260,
          "time": 62.867615625000006,
          "velocity": 0.7874015748031497
        },
        {
          "duration": 0.07352937499999967,
          "durationTicks": 12,
          "midi": 50,
          "name": "D3",
          "ticks": 10260,
          "time": 62.867615625000006,
          "velocity": 0.7874015748031497
        },
        {
          "duration": 0.14705874999999935,
          "durationTicks": 24,
          "midi": 45,
          "name": "A2",
          "ticks": 10272,
          "time": 62.941145000000006,
          "velocity": 0.7874015748031497
        },
        {
          "duration": 0.14705874999999935,
          "durationTicks": 24,
          "midi": 50,
          "name": "D3",
          "ticks": 10272,
          "time": 62.941145000000006,
          "velocity": 0.7874015748031497
        },
        {
          "duration": 0.14705874999999935,
          "durationTicks": 24,
          "midi": 45,
          "name": "A2",
          "ticks": 10296,
          "time": 63.088203750000005,
          "velocity": 0.7874015748031497
        },
        {
          "duration": 0.14705874999999935,
          "durationTicks": 24,
          "midi": 50,
          "name": "D3",
          "ticks": 10296,
          "time": 63.088203750000005,
          "velocity": 0.7874015748031497
        },
        {
          "duration": 0.14705874999999935,
          "durationTicks": 24,
          "midi": 50,
          "name": "D3",
          "ticks": 10320,
          "time": 63.235262500000005,
          "velocity": 0.7874015748031497
        },
        {
          "duration": 0.14705874999999935,
          "durationTicks": 24,
          "midi": 45,
          "name": "A2",
          "ticks": 10320,
          "time": 63.235262500000005,
          "velocity": 0.7874015748031497
        },
        {
          "duration": 0.14705874999999935,
          "durationTicks": 24,
          "midi": 45,
          "name": "A2",
          "ticks": 10344,
          "time": 63.382321250000004,
          "velocity": 0.7874015748031497
        },
        {
          "duration": 0.14705874999999935,
          "durationTicks": 24,
          "midi": 50,
          "name": "D3",
          "ticks": 10344,
          "time": 63.382321250000004,
          "velocity": 0.7874015748031497
        },
        {
          "duration": 0.14705875000000646,
          "durationTicks": 24,
          "midi": 50,
          "name": "D3",
          "ticks": 10368,
          "time": 63.52938,
          "velocity": 0.7874015748031497
        },
        {
          "duration": 0.14705875000000646,
          "durationTicks": 24,
          "midi": 45,
          "name": "A2",
          "ticks": 10368,
          "time": 63.52938,
          "velocity": 0.7874015748031497
        },
        {
          "duration": 0.14705874999999935,
          "durationTicks": 24,
          "midi": 45,
          "name": "A2",
          "ticks": 10392,
          "time": 63.67643875000001,
          "velocity": 0.7874015748031497
        },
        {
          "duration": 0.14705874999999935,
          "durationTicks": 24,
          "midi": 50,
          "name": "D3",
          "ticks": 10392,
          "time": 63.67643875000001,
          "velocity": 0.7874015748031497
        },
        {
          "duration": 0.14705874999999935,
          "durationTicks": 24,
          "midi": 47,
          "name": "B2",
          "ticks": 10416,
          "time": 63.82349750000001,
          "velocity": 0.7874015748031497
        },
        {
          "duration": 0.14705874999999935,
          "durationTicks": 24,
          "midi": 52,
          "name": "E3",
          "ticks": 10416,
          "time": 63.82349750000001,
          "velocity": 0.7874015748031497
        },
        {
          "duration": 0.14705874999999224,
          "durationTicks": 24,
          "midi": 52,
          "name": "E3",
          "ticks": 10440,
          "time": 63.97055625000001,
          "velocity": 0.7874015748031497
        },
        {
          "duration": 0.14705874999999224,
          "durationTicks": 24,
          "midi": 47,
          "name": "B2",
          "ticks": 10440,
          "time": 63.97055625000001,
          "velocity": 0.7874015748031497
        },
        {
          "duration": 0.14705874999999935,
          "durationTicks": 24,
          "midi": 48,
          "name": "C3",
          "ticks": 10464,
          "time": 64.117615,
          "velocity": 0.7874015748031497
        },
        {
          "duration": 0.14705874999999935,
          "durationTicks": 24,
          "midi": 53,
          "name": "F3",
          "ticks": 10464,
          "time": 64.117615,
          "velocity": 0.7874015748031497
        },
        {
          "duration": 0.14705875000001356,
          "durationTicks": 24,
          "midi": 53,
          "name": "F3",
          "ticks": 10488,
          "time": 64.26467375,
          "velocity": 0.7874015748031497
        },
        {
          "duration": 0.14705875000001356,
          "durationTicks": 24,
          "midi": 48,
          "name": "C3",
          "ticks": 10488,
          "time": 64.26467375,
          "velocity": 0.7874015748031497
        },
        {
          "duration": 0.14705874999999935,
          "durationTicks": 24,
          "midi": 53,
          "name": "F3",
          "ticks": 10512,
          "time": 64.41173250000001,
          "velocity": 0.7874015748031497
        },
        {
          "duration": 0.14705874999999935,
          "durationTicks": 24,
          "midi": 48,
          "name": "C3",
          "ticks": 10512,
          "time": 64.41173250000001,
          "velocity": 0.7874015748031497
        },
        {
          "duration": 0.14705874999999935,
          "durationTicks": 24,
          "midi": 48,
          "name": "C3",
          "ticks": 10536,
          "time": 64.55879125000001,
          "velocity": 0.7874015748031497
        },
        {
          "duration": 0.14705874999999935,
          "durationTicks": 24,
          "midi": 53,
          "name": "F3",
          "ticks": 10536,
          "time": 64.55879125000001,
          "velocity": 0.7874015748031497
        },
        {
          "duration": 0.14705874999999935,
          "durationTicks": 24,
          "midi": 48,
          "name": "C3",
          "ticks": 10560,
          "time": 64.70585000000001,
          "velocity": 0.7874015748031497
        },
        {
          "duration": 0.14705874999999935,
          "durationTicks": 24,
          "midi": 53,
          "name": "F3",
          "ticks": 10560,
          "time": 64.70585000000001,
          "velocity": 0.7874015748031497
        },
        {
          "duration": 0.14705874999999935,
          "durationTicks": 24,
          "midi": 53,
          "name": "F3",
          "ticks": 10584,
          "time": 64.85290875000001,
          "velocity": 0.7874015748031497
        },
        {
          "duration": 0.14705874999999935,
          "durationTicks": 24,
          "midi": 48,
          "name": "C3",
          "ticks": 10584,
          "time": 64.85290875000001,
          "velocity": 0.7874015748031497
        },
        {
          "duration": 0.14705874999999935,
          "durationTicks": 24,
          "midi": 48,
          "name": "C3",
          "ticks": 10608,
          "time": 64.99996750000001,
          "velocity": 0.7874015748031497
        },
        {
          "duration": 0.14705874999999935,
          "durationTicks": 24,
          "midi": 53,
          "name": "F3",
          "ticks": 10608,
          "time": 64.99996750000001,
          "velocity": 0.7874015748031497
        },
        {
          "duration": 0.07352937499999257,
          "durationTicks": 12,
          "midi": 48,
          "name": "C3",
          "ticks": 10632,
          "time": 65.14702625000001,
          "velocity": 0.7874015748031497
        },
        {
          "duration": 0.07352937499999257,
          "durationTicks": 12,
          "midi": 53,
          "name": "F3",
          "ticks": 10632,
          "time": 65.14702625000001,
          "velocity": 0.7874015748031497
        },
        {
          "duration": 0.07352937500000678,
          "durationTicks": 12,
          "midi": 48,
          "name": "C3",
          "ticks": 10644,
          "time": 65.220555625,
          "velocity": 0.7874015748031497
        },
        {
          "duration": 0.07352937500000678,
          "durationTicks": 12,
          "midi": 53,
          "name": "F3",
          "ticks": 10644,
          "time": 65.220555625,
          "velocity": 0.7874015748031497
        },
        {
          "duration": 0.14705874999999935,
          "durationTicks": 24,
          "midi": 53,
          "name": "F3",
          "ticks": 10656,
          "time": 65.29408500000001,
          "velocity": 0.7874015748031497
        },
        {
          "duration": 0.14705874999999935,
          "durationTicks": 24,
          "midi": 48,
          "name": "C3",
          "ticks": 10656,
          "time": 65.29408500000001,
          "velocity": 0.7874015748031497
        },
        {
          "duration": 0.14705874999999935,
          "durationTicks": 24,
          "midi": 53,
          "name": "F3",
          "ticks": 10680,
          "time": 65.44114375000001,
          "velocity": 0.7874015748031497
        },
        {
          "duration": 0.14705874999999935,
          "durationTicks": 24,
          "midi": 48,
          "name": "C3",
          "ticks": 10680,
          "time": 65.44114375000001,
          "velocity": 0.7874015748031497
        },
        {
          "duration": 0.14705874999999935,
          "durationTicks": 24,
          "midi": 48,
          "name": "C3",
          "ticks": 10704,
          "time": 65.58820250000001,
          "velocity": 0.7874015748031497
        },
        {
          "duration": 0.14705874999999935,
          "durationTicks": 24,
          "midi": 53,
          "name": "F3",
          "ticks": 10704,
          "time": 65.58820250000001,
          "velocity": 0.7874015748031497
        },
        {
          "duration": 0.14705874999999935,
          "durationTicks": 24,
          "midi": 53,
          "name": "F3",
          "ticks": 10728,
          "time": 65.73526125000001,
          "velocity": 0.7874015748031497
        },
        {
          "duration": 0.14705874999999935,
          "durationTicks": 24,
          "midi": 48,
          "name": "C3",
          "ticks": 10728,
          "time": 65.73526125000001,
          "velocity": 0.7874015748031497
        },
        {
          "duration": 0.14705874999999935,
          "durationTicks": 24,
          "midi": 52,
          "name": "E3",
          "ticks": 10752,
          "time": 65.88232,
          "velocity": 0.7874015748031497
        },
        {
          "duration": 0.14705874999999935,
          "durationTicks": 24,
          "midi": 47,
          "name": "B2",
          "ticks": 10752,
          "time": 65.88232,
          "velocity": 0.7874015748031497
        },
        {
          "duration": 0.14705874999999935,
          "durationTicks": 24,
          "midi": 47,
          "name": "B2",
          "ticks": 10776,
          "time": 66.02937875,
          "velocity": 0.7874015748031497
        },
        {
          "duration": 0.14705874999999935,
          "durationTicks": 24,
          "midi": 52,
          "name": "E3",
          "ticks": 10776,
          "time": 66.02937875,
          "velocity": 0.7874015748031497
        },
        {
          "duration": 0.14705874999999935,
          "durationTicks": 24,
          "midi": 48,
          "name": "C3",
          "ticks": 10800,
          "time": 66.1764375,
          "velocity": 0.7874015748031497
        },
        {
          "duration": 0.14705874999999935,
          "durationTicks": 24,
          "midi": 43,
          "name": "G2",
          "ticks": 10800,
          "time": 66.1764375,
          "velocity": 0.7874015748031497
        },
        {
          "duration": 0.14705874999999935,
          "durationTicks": 24,
          "midi": 43,
          "name": "G2",
          "ticks": 10824,
          "time": 66.32349625,
          "velocity": 0.7874015748031497
        },
        {
          "duration": 0.14705874999999935,
          "durationTicks": 24,
          "midi": 48,
          "name": "C3",
          "ticks": 10824,
          "time": 66.32349625,
          "velocity": 0.7874015748031497
        },
        {
          "duration": 0.14705874999999935,
          "durationTicks": 24,
          "midi": 46,
          "name": "A#2",
          "ticks": 10848,
          "time": 66.470555,
          "velocity": 0.7874015748031497
        },
        {
          "duration": 0.14705874999999935,
          "durationTicks": 24,
          "midi": 41,
          "name": "F2",
          "ticks": 10848,
          "time": 66.470555,
          "velocity": 0.7874015748031497
        },
        {
          "duration": 0.14705874999999935,
          "durationTicks": 24,
          "midi": 46,
          "name": "A#2",
          "ticks": 10872,
          "time": 66.61761375,
          "velocity": 0.7874015748031497
        },
        {
          "duration": 0.14705874999999935,
          "durationTicks": 24,
          "midi": 41,
          "name": "F2",
          "ticks": 10872,
          "time": 66.61761375,
          "velocity": 0.7874015748031497
        },
        {
          "duration": 0.14705874999999935,
          "durationTicks": 24,
          "midi": 46,
          "name": "A#2",
          "ticks": 10896,
          "time": 66.7646725,
          "velocity": 0.7874015748031497
        },
        {
          "duration": 0.14705874999999935,
          "durationTicks": 24,
          "midi": 41,
          "name": "F2",
          "ticks": 10896,
          "time": 66.7646725,
          "velocity": 0.7874015748031497
        },
        {
          "duration": 0.14705874999999935,
          "durationTicks": 24,
          "midi": 46,
          "name": "A#2",
          "ticks": 10920,
          "time": 66.91173125,
          "velocity": 0.7874015748031497
        },
        {
          "duration": 0.14705874999999935,
          "durationTicks": 24,
          "midi": 41,
          "name": "F2",
          "ticks": 10920,
          "time": 66.91173125,
          "velocity": 0.7874015748031497
        },
        {
          "duration": 0.14705874999999935,
          "durationTicks": 24,
          "midi": 41,
          "name": "F2",
          "ticks": 10944,
          "time": 67.05879,
          "velocity": 0.7874015748031497
        },
        {
          "duration": 0.14705874999999935,
          "durationTicks": 24,
          "midi": 46,
          "name": "A#2",
          "ticks": 10944,
          "time": 67.05879,
          "velocity": 0.7874015748031497
        },
        {
          "duration": 0.14705874999999935,
          "durationTicks": 24,
          "midi": 41,
          "name": "F2",
          "ticks": 10968,
          "time": 67.20584875,
          "velocity": 0.7874015748031497
        },
        {
          "duration": 0.14705874999999935,
          "durationTicks": 24,
          "midi": 46,
          "name": "A#2",
          "ticks": 10968,
          "time": 67.20584875,
          "velocity": 0.7874015748031497
        },
        {
          "duration": 0.14705875000001356,
          "durationTicks": 24,
          "midi": 46,
          "name": "A#2",
          "ticks": 10992,
          "time": 67.3529075,
          "velocity": 0.7874015748031497
        },
        {
          "duration": 0.14705875000001356,
          "durationTicks": 24,
          "midi": 41,
          "name": "F2",
          "ticks": 10992,
          "time": 67.3529075,
          "velocity": 0.7874015748031497
        },
        {
          "duration": 0.07352937499999257,
          "durationTicks": 12,
          "midi": 46,
          "name": "A#2",
          "ticks": 11016,
          "time": 67.49996625000001,
          "velocity": 0.7874015748031497
        },
        {
          "duration": 0.07352937499999257,
          "durationTicks": 12,
          "midi": 41,
          "name": "F2",
          "ticks": 11016,
          "time": 67.49996625000001,
          "velocity": 0.7874015748031497
        },
        {
          "duration": 0.07352937500000678,
          "durationTicks": 12,
          "midi": 41,
          "name": "F2",
          "ticks": 11028,
          "time": 67.573495625,
          "velocity": 0.7874015748031497
        },
        {
          "duration": 0.07352937500000678,
          "durationTicks": 12,
          "midi": 46,
          "name": "A#2",
          "ticks": 11028,
          "time": 67.573495625,
          "velocity": 0.7874015748031497
        },
        {
          "duration": 0.14705874999999935,
          "durationTicks": 24,
          "midi": 46,
          "name": "A#2",
          "ticks": 11040,
          "time": 67.64702500000001,
          "velocity": 0.7874015748031497
        },
        {
          "duration": 0.14705874999999935,
          "durationTicks": 24,
          "midi": 41,
          "name": "F2",
          "ticks": 11040,
          "time": 67.64702500000001,
          "velocity": 0.7874015748031497
        },
        {
          "duration": 0.14705874999999935,
          "durationTicks": 24,
          "midi": 46,
          "name": "A#2",
          "ticks": 11064,
          "time": 67.79408375000001,
          "velocity": 0.7874015748031497
        },
        {
          "duration": 0.14705874999999935,
          "durationTicks": 24,
          "midi": 41,
          "name": "F2",
          "ticks": 11064,
          "time": 67.79408375000001,
          "velocity": 0.7874015748031497
        },
        {
          "duration": 0.14705874999999935,
          "durationTicks": 24,
          "midi": 46,
          "name": "A#2",
          "ticks": 11088,
          "time": 67.94114250000001,
          "velocity": 0.7874015748031497
        },
        {
          "duration": 0.14705874999999935,
          "durationTicks": 24,
          "midi": 41,
          "name": "F2",
          "ticks": 11088,
          "time": 67.94114250000001,
          "velocity": 0.7874015748031497
        },
        {
          "duration": 0.14705874999999935,
          "durationTicks": 24,
          "midi": 41,
          "name": "F2",
          "ticks": 11112,
          "time": 68.08820125000001,
          "velocity": 0.7874015748031497
        },
        {
          "duration": 0.14705874999999935,
          "durationTicks": 24,
          "midi": 46,
          "name": "A#2",
          "ticks": 11112,
          "time": 68.08820125000001,
          "velocity": 0.7874015748031497
        },
        {
          "duration": 0.14705874999999935,
          "durationTicks": 24,
          "midi": 41,
          "name": "F2",
          "ticks": 11136,
          "time": 68.23526000000001,
          "velocity": 0.7874015748031497
        },
        {
          "duration": 0.14705874999999935,
          "durationTicks": 24,
          "midi": 46,
          "name": "A#2",
          "ticks": 11136,
          "time": 68.23526000000001,
          "velocity": 0.7874015748031497
        },
        {
          "duration": 0.14705874999999935,
          "durationTicks": 24,
          "midi": 46,
          "name": "A#2",
          "ticks": 11160,
          "time": 68.38231875000001,
          "velocity": 0.7874015748031497
        },
        {
          "duration": 0.14705874999999935,
          "durationTicks": 24,
          "midi": 41,
          "name": "F2",
          "ticks": 11160,
          "time": 68.38231875000001,
          "velocity": 0.7874015748031497
        },
        {
          "duration": 0.14705874999999935,
          "durationTicks": 24,
          "midi": 41,
          "name": "F2",
          "ticks": 11184,
          "time": 68.52937750000001,
          "velocity": 0.7874015748031497
        },
        {
          "duration": 0.14705874999999935,
          "durationTicks": 24,
          "midi": 46,
          "name": "A#2",
          "ticks": 11184,
          "time": 68.52937750000001,
          "velocity": 0.7874015748031497
        },
        {
          "duration": 0.07352937499999257,
          "durationTicks": 12,
          "midi": 41,
          "name": "F2",
          "ticks": 11208,
          "time": 68.67643625000001,
          "velocity": 0.7874015748031497
        },
        {
          "duration": 0.07352937499999257,
          "durationTicks": 12,
          "midi": 46,
          "name": "A#2",
          "ticks": 11208,
          "time": 68.67643625000001,
          "velocity": 0.7874015748031497
        },
        {
          "duration": 0.07352937500000678,
          "durationTicks": 12,
          "midi": 46,
          "name": "A#2",
          "ticks": 11220,
          "time": 68.749965625,
          "velocity": 0.7874015748031497
        },
        {
          "duration": 0.07352937500000678,
          "durationTicks": 12,
          "midi": 41,
          "name": "F2",
          "ticks": 11220,
          "time": 68.749965625,
          "velocity": 0.7874015748031497
        },
        {
          "duration": 0.14705874999999935,
          "durationTicks": 24,
          "midi": 48,
          "name": "C3",
          "ticks": 11232,
          "time": 68.82349500000001,
          "velocity": 0.7874015748031497
        },
        {
          "duration": 0.14705874999999935,
          "durationTicks": 24,
          "midi": 43,
          "name": "G2",
          "ticks": 11232,
          "time": 68.82349500000001,
          "velocity": 0.7874015748031497
        },
        {
          "duration": 0.14705874999999935,
          "durationTicks": 24,
          "midi": 48,
          "name": "C3",
          "ticks": 11256,
          "time": 68.97055375000001,
          "velocity": 0.7874015748031497
        },
        {
          "duration": 0.14705874999999935,
          "durationTicks": 24,
          "midi": 43,
          "name": "G2",
          "ticks": 11256,
          "time": 68.97055375000001,
          "velocity": 0.7874015748031497
        },
        {
          "duration": 0.14705874999999935,
          "durationTicks": 24,
          "midi": 43,
          "name": "G2",
          "ticks": 11280,
          "time": 69.1176125,
          "velocity": 0.7874015748031497
        },
        {
          "duration": 0.14705874999999935,
          "durationTicks": 24,
          "midi": 48,
          "name": "C3",
          "ticks": 11280,
          "time": 69.1176125,
          "velocity": 0.7874015748031497
        },
        {
          "duration": 0.14705874999999935,
          "durationTicks": 24,
          "midi": 48,
          "name": "C3",
          "ticks": 11304,
          "time": 69.26467125,
          "velocity": 0.7874015748031497
        },
        {
          "duration": 0.14705874999999935,
          "durationTicks": 24,
          "midi": 43,
          "name": "G2",
          "ticks": 11304,
          "time": 69.26467125,
          "velocity": 0.7874015748031497
        },
        {
          "duration": 0.14705874999999935,
          "durationTicks": 24,
          "midi": 43,
          "name": "G2",
          "ticks": 11328,
          "time": 69.41173,
          "velocity": 0.7874015748031497
        },
        {
          "duration": 0.14705874999999935,
          "durationTicks": 24,
          "midi": 48,
          "name": "C3",
          "ticks": 11328,
          "time": 69.41173,
          "velocity": 0.7874015748031497
        },
        {
          "duration": 0.14705874999999935,
          "durationTicks": 24,
          "midi": 43,
          "name": "G2",
          "ticks": 11352,
          "time": 69.55878875,
          "velocity": 0.7874015748031497
        },
        {
          "duration": 0.14705874999999935,
          "durationTicks": 24,
          "midi": 48,
          "name": "C3",
          "ticks": 11352,
          "time": 69.55878875,
          "velocity": 0.7874015748031497
        },
        {
          "duration": 0.14705874999999935,
          "durationTicks": 24,
          "midi": 43,
          "name": "G2",
          "ticks": 11376,
          "time": 69.7058475,
          "velocity": 0.7874015748031497
        },
        {
          "duration": 0.14705874999999935,
          "durationTicks": 24,
          "midi": 48,
          "name": "C3",
          "ticks": 11376,
          "time": 69.7058475,
          "velocity": 0.7874015748031497
        },
        {
          "duration": 0.07352937500000678,
          "durationTicks": 12,
          "midi": 48,
          "name": "C3",
          "ticks": 11400,
          "time": 69.85290625,
          "velocity": 0.7874015748031497
        },
        {
          "duration": 0.07352937500000678,
          "durationTicks": 12,
          "midi": 43,
          "name": "G2",
          "ticks": 11400,
          "time": 69.85290625,
          "velocity": 0.7874015748031497
        },
        {
          "duration": 0.07352937499999257,
          "durationTicks": 12,
          "midi": 43,
          "name": "G2",
          "ticks": 11412,
          "time": 69.92643562500001,
          "velocity": 0.7874015748031497
        },
        {
          "duration": 0.07352937499999257,
          "durationTicks": 12,
          "midi": 48,
          "name": "C3",
          "ticks": 11412,
          "time": 69.92643562500001,
          "velocity": 0.7874015748031497
        },
        {
          "duration": 0.14705874999999935,
          "durationTicks": 24,
          "midi": 43,
          "name": "G2",
          "ticks": 11424,
          "time": 69.999965,
          "velocity": 0.7874015748031497
        },
        {
          "duration": 0.14705874999999935,
          "durationTicks": 24,
          "midi": 48,
          "name": "C3",
          "ticks": 11424,
          "time": 69.999965,
          "velocity": 0.7874015748031497
        },
        {
          "duration": 0.14705874999999935,
          "durationTicks": 24,
          "midi": 48,
          "name": "C3",
          "ticks": 11448,
          "time": 70.14702375,
          "velocity": 0.7874015748031497
        },
        {
          "duration": 0.14705874999999935,
          "durationTicks": 24,
          "midi": 43,
          "name": "G2",
          "ticks": 11448,
          "time": 70.14702375,
          "velocity": 0.7874015748031497
        },
        {
          "duration": 0.14705874999999935,
          "durationTicks": 24,
          "midi": 48,
          "name": "C3",
          "ticks": 11472,
          "time": 70.2940825,
          "velocity": 0.7874015748031497
        },
        {
          "duration": 0.14705874999999935,
          "durationTicks": 24,
          "midi": 43,
          "name": "G2",
          "ticks": 11472,
          "time": 70.2940825,
          "velocity": 0.7874015748031497
        },
        {
          "duration": 0.14705874999999935,
          "durationTicks": 24,
          "midi": 48,
          "name": "C3",
          "ticks": 11496,
          "time": 70.44114125,
          "velocity": 0.7874015748031497
        },
        {
          "duration": 0.14705874999999935,
          "durationTicks": 24,
          "midi": 43,
          "name": "G2",
          "ticks": 11496,
          "time": 70.44114125,
          "velocity": 0.7874015748031497
        },
        {
          "duration": 0.14705875000001356,
          "durationTicks": 24,
          "midi": 48,
          "name": "C3",
          "ticks": 11520,
          "time": 70.5882,
          "velocity": 0.7874015748031497
        },
        {
          "duration": 0.14705875000001356,
          "durationTicks": 24,
          "midi": 43,
          "name": "G2",
          "ticks": 11520,
          "time": 70.5882,
          "velocity": 0.7874015748031497
        },
        {
          "duration": 0.14705874999999935,
          "durationTicks": 24,
          "midi": 48,
          "name": "C3",
          "ticks": 11544,
          "time": 70.73525875000001,
          "velocity": 0.7874015748031497
        },
        {
          "duration": 0.14705874999999935,
          "durationTicks": 24,
          "midi": 43,
          "name": "G2",
          "ticks": 11544,
          "time": 70.73525875000001,
          "velocity": 0.7874015748031497
        },
        {
          "duration": 0.14705874999999935,
          "durationTicks": 24,
          "midi": 43,
          "name": "G2",
          "ticks": 11568,
          "time": 70.88231750000001,
          "velocity": 0.7874015748031497
        },
        {
          "duration": 0.14705874999999935,
          "durationTicks": 24,
          "midi": 48,
          "name": "C3",
          "ticks": 11568,
          "time": 70.88231750000001,
          "velocity": 0.7874015748031497
        },
        {
          "duration": 0.07352937499999257,
          "durationTicks": 12,
          "midi": 43,
          "name": "G2",
          "ticks": 11592,
          "time": 71.02937625000001,
          "velocity": 0.7874015748031497
        },
        {
          "duration": 0.07352937499999257,
          "durationTicks": 12,
          "midi": 48,
          "name": "C3",
          "ticks": 11592,
          "time": 71.02937625000001,
          "velocity": 0.7874015748031497
        },
        {
          "duration": 0.07352937500000678,
          "durationTicks": 12,
          "midi": 48,
          "name": "C3",
          "ticks": 11604,
          "time": 71.102905625,
          "velocity": 0.7874015748031497
        },
        {
          "duration": 0.07352937500000678,
          "durationTicks": 12,
          "midi": 43,
          "name": "G2",
          "ticks": 11604,
          "time": 71.102905625,
          "velocity": 0.7874015748031497
        },
        {
          "duration": 0.14705874999999935,
          "durationTicks": 24,
          "midi": 48,
          "name": "C3",
          "ticks": 11616,
          "time": 71.17643500000001,
          "velocity": 0.7874015748031497
        },
        {
          "duration": 0.14705874999999935,
          "durationTicks": 24,
          "midi": 53,
          "name": "F3",
          "ticks": 11616,
          "time": 71.17643500000001,
          "velocity": 0.7874015748031497
        },
        {
          "duration": 0.14705874999999935,
          "durationTicks": 24,
          "midi": 53,
          "name": "F3",
          "ticks": 11640,
          "time": 71.32349375000001,
          "velocity": 0.7874015748031497
        },
        {
          "duration": 0.14705874999999935,
          "durationTicks": 24,
          "midi": 48,
          "name": "C3",
          "ticks": 11640,
          "time": 71.32349375000001,
          "velocity": 0.7874015748031497
        },
        {
          "duration": 0.14705874999999935,
          "durationTicks": 24,
          "midi": 53,
          "name": "F3",
          "ticks": 11664,
          "time": 71.47055250000001,
          "velocity": 0.7874015748031497
        },
        {
          "duration": 0.14705874999999935,
          "durationTicks": 24,
          "midi": 48,
          "name": "C3",
          "ticks": 11664,
          "time": 71.47055250000001,
          "velocity": 0.7874015748031497
        },
        {
          "duration": 0.14705874999999935,
          "durationTicks": 24,
          "midi": 48,
          "name": "C3",
          "ticks": 11688,
          "time": 71.61761125000001,
          "velocity": 0.7874015748031497
        },
        {
          "duration": 0.14705874999999935,
          "durationTicks": 24,
          "midi": 53,
          "name": "F3",
          "ticks": 11688,
          "time": 71.61761125000001,
          "velocity": 0.7874015748031497
        },
        {
          "duration": 0.14705874999999935,
          "durationTicks": 24,
          "midi": 53,
          "name": "F3",
          "ticks": 11712,
          "time": 71.76467000000001,
          "velocity": 0.7874015748031497
        },
        {
          "duration": 0.14705874999999935,
          "durationTicks": 24,
          "midi": 48,
          "name": "C3",
          "ticks": 11712,
          "time": 71.76467000000001,
          "velocity": 0.7874015748031497
        },
        {
          "duration": 0.14705874999999935,
          "durationTicks": 24,
          "midi": 53,
          "name": "F3",
          "ticks": 11736,
          "time": 71.91172875000001,
          "velocity": 0.7874015748031497
        },
        {
          "duration": 0.14705874999999935,
          "durationTicks": 24,
          "midi": 48,
          "name": "C3",
          "ticks": 11736,
          "time": 71.91172875000001,
          "velocity": 0.7874015748031497
        },
        {
          "duration": 0.14705874999999935,
          "durationTicks": 24,
          "midi": 48,
          "name": "C3",
          "ticks": 11760,
          "time": 72.05878750000001,
          "velocity": 0.7874015748031497
        },
        {
          "duration": 0.14705874999999935,
          "durationTicks": 24,
          "midi": 53,
          "name": "F3",
          "ticks": 11760,
          "time": 72.05878750000001,
          "velocity": 0.7874015748031497
        },
        {
          "duration": 0.07352937500000678,
          "durationTicks": 12,
          "midi": 53,
          "name": "F3",
          "ticks": 11784,
          "time": 72.20584625000001,
          "velocity": 0.7874015748031497
        },
        {
          "duration": 0.07352937500000678,
          "durationTicks": 12,
          "midi": 48,
          "name": "C3",
          "ticks": 11784,
          "time": 72.20584625000001,
          "velocity": 0.7874015748031497
        },
        {
          "duration": 0.07352937499999257,
          "durationTicks": 12,
          "midi": 48,
          "name": "C3",
          "ticks": 11796,
          "time": 72.27937562500001,
          "velocity": 0.7874015748031497
        },
        {
          "duration": 0.07352937499999257,
          "durationTicks": 12,
          "midi": 53,
          "name": "F3",
          "ticks": 11796,
          "time": 72.27937562500001,
          "velocity": 0.7874015748031497
        },
        {
          "duration": 0.14705874999999935,
          "durationTicks": 24,
          "midi": 48,
          "name": "C3",
          "ticks": 11808,
          "time": 72.352905,
          "velocity": 0.7874015748031497
        },
        {
          "duration": 0.14705874999999935,
          "durationTicks": 24,
          "midi": 53,
          "name": "F3",
          "ticks": 11808,
          "time": 72.352905,
          "velocity": 0.7874015748031497
        },
        {
          "duration": 0.14705874999999935,
          "durationTicks": 24,
          "midi": 53,
          "name": "F3",
          "ticks": 11832,
          "time": 72.49996375,
          "velocity": 0.7874015748031497
        },
        {
          "duration": 0.14705874999999935,
          "durationTicks": 24,
          "midi": 48,
          "name": "C3",
          "ticks": 11832,
          "time": 72.49996375,
          "velocity": 0.7874015748031497
        },
        {
          "duration": 0.14705874999999935,
          "durationTicks": 24,
          "midi": 53,
          "name": "F3",
          "ticks": 11856,
          "time": 72.6470225,
          "velocity": 0.7874015748031497
        },
        {
          "duration": 0.14705874999999935,
          "durationTicks": 24,
          "midi": 48,
          "name": "C3",
          "ticks": 11856,
          "time": 72.6470225,
          "velocity": 0.7874015748031497
        },
        {
          "duration": 0.14705874999999935,
          "durationTicks": 24,
          "midi": 48,
          "name": "C3",
          "ticks": 11880,
          "time": 72.79408125,
          "velocity": 0.7874015748031497
        },
        {
          "duration": 0.14705874999999935,
          "durationTicks": 24,
          "midi": 53,
          "name": "F3",
          "ticks": 11880,
          "time": 72.79408125,
          "velocity": 0.7874015748031497
        },
        {
          "duration": 0.14705874999999935,
          "durationTicks": 24,
          "midi": 53,
          "name": "F3",
          "ticks": 11904,
          "time": 72.94114,
          "velocity": 0.7874015748031497
        },
        {
          "duration": 0.14705874999999935,
          "durationTicks": 24,
          "midi": 48,
          "name": "C3",
          "ticks": 11904,
          "time": 72.94114,
          "velocity": 0.7874015748031497
        },
        {
          "duration": 0.14705874999999935,
          "durationTicks": 24,
          "midi": 53,
          "name": "F3",
          "ticks": 11928,
          "time": 73.08819875,
          "velocity": 0.7874015748031497
        },
        {
          "duration": 0.14705874999999935,
          "durationTicks": 24,
          "midi": 48,
          "name": "C3",
          "ticks": 11928,
          "time": 73.08819875,
          "velocity": 0.7874015748031497
        },
        {
          "duration": 0.14705874999999935,
          "durationTicks": 24,
          "midi": 48,
          "name": "C3",
          "ticks": 11952,
          "time": 73.2352575,
          "velocity": 0.7874015748031497
        },
        {
          "duration": 0.14705874999999935,
          "durationTicks": 24,
          "midi": 53,
          "name": "F3",
          "ticks": 11952,
          "time": 73.2352575,
          "velocity": 0.7874015748031497
        },
        {
          "duration": 0.07352937500000678,
          "durationTicks": 12,
          "midi": 48,
          "name": "C3",
          "ticks": 11976,
          "time": 73.38231625,
          "velocity": 0.7874015748031497
        },
        {
          "duration": 0.07352937500000678,
          "durationTicks": 12,
          "midi": 53,
          "name": "F3",
          "ticks": 11976,
          "time": 73.38231625,
          "velocity": 0.7874015748031497
        },
        {
          "duration": 0.07352937499999257,
          "durationTicks": 12,
          "midi": 53,
          "name": "F3",
          "ticks": 11988,
          "time": 73.45584562500001,
          "velocity": 0.7874015748031497
        },
        {
          "duration": 0.07352937499999257,
          "durationTicks": 12,
          "midi": 48,
          "name": "C3",
          "ticks": 11988,
          "time": 73.45584562500001,
          "velocity": 0.7874015748031497
        },
        {
          "duration": 0.14705874999999935,
          "durationTicks": 24,
          "midi": 55,
          "name": "G3",
          "ticks": 12000,
          "time": 73.529375,
          "velocity": 0.7874015748031497
        },
        {
          "duration": 0.14705874999999935,
          "durationTicks": 24,
          "midi": 50,
          "name": "D3",
          "ticks": 12000,
          "time": 73.529375,
          "velocity": 0.7874015748031497
        },
        {
          "duration": 0.14705875000001356,
          "durationTicks": 24,
          "midi": 50,
          "name": "D3",
          "ticks": 12024,
          "time": 73.67643375,
          "velocity": 0.7874015748031497
        },
        {
          "duration": 0.14705875000001356,
          "durationTicks": 24,
          "midi": 55,
          "name": "G3",
          "ticks": 12024,
          "time": 73.67643375,
          "velocity": 0.7874015748031497
        },
        {
          "duration": 0.14705874999999935,
          "durationTicks": 24,
          "midi": 55,
          "name": "G3",
          "ticks": 12048,
          "time": 73.82349250000001,
          "velocity": 0.7874015748031497
        },
        {
          "duration": 0.14705874999999935,
          "durationTicks": 24,
          "midi": 50,
          "name": "D3",
          "ticks": 12048,
          "time": 73.82349250000001,
          "velocity": 0.7874015748031497
        },
        {
          "duration": 0.14705874999999935,
          "durationTicks": 24,
          "midi": 55,
          "name": "G3",
          "ticks": 12072,
          "time": 73.97055125000001,
          "velocity": 0.7874015748031497
        },
        {
          "duration": 0.14705874999999935,
          "durationTicks": 24,
          "midi": 50,
          "name": "D3",
          "ticks": 12072,
          "time": 73.97055125000001,
          "velocity": 0.7874015748031497
        },
        {
          "duration": 0.14705874999999935,
          "durationTicks": 24,
          "midi": 55,
          "name": "G3",
          "ticks": 12096,
          "time": 74.11761000000001,
          "velocity": 0.7874015748031497
        },
        {
          "duration": 0.14705874999999935,
          "durationTicks": 24,
          "midi": 50,
          "name": "D3",
          "ticks": 12096,
          "time": 74.11761000000001,
          "velocity": 0.7874015748031497
        },
        {
          "duration": 0.14705874999999935,
          "durationTicks": 24,
          "midi": 55,
          "name": "G3",
          "ticks": 12120,
          "time": 74.26466875000001,
          "velocity": 0.7874015748031497
        },
        {
          "duration": 0.14705874999999935,
          "durationTicks": 24,
          "midi": 50,
          "name": "D3",
          "ticks": 12120,
          "time": 74.26466875000001,
          "velocity": 0.7874015748031497
        },
        {
          "duration": 0.14705874999999935,
          "durationTicks": 24,
          "midi": 50,
          "name": "D3",
          "ticks": 12144,
          "time": 74.41172750000001,
          "velocity": 0.7874015748031497
        },
        {
          "duration": 0.14705874999999935,
          "durationTicks": 24,
          "midi": 55,
          "name": "G3",
          "ticks": 12144,
          "time": 74.41172750000001,
          "velocity": 0.7874015748031497
        },
        {
          "duration": 0.07352937499999257,
          "durationTicks": 12,
          "midi": 55,
          "name": "G3",
          "ticks": 12168,
          "time": 74.55878625000001,
          "velocity": 0.7874015748031497
        },
        {
          "duration": 0.07352937499999257,
          "durationTicks": 12,
          "midi": 50,
          "name": "D3",
          "ticks": 12168,
          "time": 74.55878625000001,
          "velocity": 0.7874015748031497
        },
        {
          "duration": 0.07352937500000678,
          "durationTicks": 12,
          "midi": 55,
          "name": "G3",
          "ticks": 12180,
          "time": 74.632315625,
          "velocity": 0.7874015748031497
        },
        {
          "duration": 0.07352937500000678,
          "durationTicks": 12,
          "midi": 50,
          "name": "D3",
          "ticks": 12180,
          "time": 74.632315625,
          "velocity": 0.7874015748031497
        },
        {
          "duration": 0.14705874999999935,
          "durationTicks": 24,
          "midi": 50,
          "name": "D3",
          "ticks": 12192,
          "time": 74.70584500000001,
          "velocity": 0.7874015748031497
        },
        {
          "duration": 0.14705874999999935,
          "durationTicks": 24,
          "midi": 55,
          "name": "G3",
          "ticks": 12192,
          "time": 74.70584500000001,
          "velocity": 0.7874015748031497
        },
        {
          "duration": 0.14705874999999935,
          "durationTicks": 24,
          "midi": 50,
          "name": "D3",
          "ticks": 12216,
          "time": 74.85290375000001,
          "velocity": 0.7874015748031497
        },
        {
          "duration": 0.14705874999999935,
          "durationTicks": 24,
          "midi": 55,
          "name": "G3",
          "ticks": 12216,
          "time": 74.85290375000001,
          "velocity": 0.7874015748031497
        },
        {
          "duration": 0.14705874999999935,
          "durationTicks": 24,
          "midi": 50,
          "name": "D3",
          "ticks": 12240,
          "time": 74.99996250000001,
          "velocity": 0.7874015748031497
        },
        {
          "duration": 0.14705874999999935,
          "durationTicks": 24,
          "midi": 55,
          "name": "G3",
          "ticks": 12240,
          "time": 74.99996250000001,
          "velocity": 0.7874015748031497
        },
        {
          "duration": 0.14705874999999935,
          "durationTicks": 24,
          "midi": 55,
          "name": "G3",
          "ticks": 12264,
          "time": 75.14702125000001,
          "velocity": 0.7874015748031497
        },
        {
          "duration": 0.14705874999999935,
          "durationTicks": 24,
          "midi": 50,
          "name": "D3",
          "ticks": 12264,
          "time": 75.14702125000001,
          "velocity": 0.7874015748031497
        },
        {
          "duration": 0.14705874999999935,
          "durationTicks": 24,
          "midi": 50,
          "name": "D3",
          "ticks": 12288,
          "time": 75.29408000000001,
          "velocity": 0.7874015748031497
        },
        {
          "duration": 0.14705874999999935,
          "durationTicks": 24,
          "midi": 55,
          "name": "G3",
          "ticks": 12288,
          "time": 75.29408000000001,
          "velocity": 0.7874015748031497
        },
        {
          "duration": 0.14705874999999935,
          "durationTicks": 24,
          "midi": 55,
          "name": "G3",
          "ticks": 12312,
          "time": 75.44113875000001,
          "velocity": 0.7874015748031497
        },
        {
          "duration": 0.14705874999999935,
          "durationTicks": 24,
          "midi": 50,
          "name": "D3",
          "ticks": 12312,
          "time": 75.44113875000001,
          "velocity": 0.7874015748031497
        },
        {
          "duration": 0.14705874999999935,
          "durationTicks": 24,
          "midi": 50,
          "name": "D3",
          "ticks": 12336,
          "time": 75.5881975,
          "velocity": 0.7874015748031497
        },
        {
          "duration": 0.14705874999999935,
          "durationTicks": 24,
          "midi": 55,
          "name": "G3",
          "ticks": 12336,
          "time": 75.5881975,
          "velocity": 0.7874015748031497
        },
        {
          "duration": 0.07352937500000678,
          "durationTicks": 12,
          "midi": 50,
          "name": "D3",
          "ticks": 12360,
          "time": 75.73525625,
          "velocity": 0.7874015748031497
        },
        {
          "duration": 0.07352937500000678,
          "durationTicks": 12,
          "midi": 55,
          "name": "G3",
          "ticks": 12360,
          "time": 75.73525625,
          "velocity": 0.7874015748031497
        },
        {
          "duration": 0.07352937499999257,
          "durationTicks": 12,
          "midi": 50,
          "name": "D3",
          "ticks": 12372,
          "time": 75.80878562500001,
          "velocity": 0.7874015748031497
        },
        {
          "duration": 0.07352937499999257,
          "durationTicks": 12,
          "midi": 55,
          "name": "G3",
          "ticks": 12372,
          "time": 75.80878562500001,
          "velocity": 0.7874015748031497
        },
        {
          "duration": 0.14705874999999935,
          "durationTicks": 24,
          "midi": 45,
          "name": "A2",
          "ticks": 12384,
          "time": 75.882315,
          "velocity": 0.7874015748031497
        },
        {
          "duration": 0.14705874999999935,
          "durationTicks": 24,
          "midi": 50,
          "name": "D3",
          "ticks": 12384,
          "time": 75.882315,
          "velocity": 0.7874015748031497
        },
        {
          "duration": 0.14705874999999935,
          "durationTicks": 24,
          "midi": 45,
          "name": "A2",
          "ticks": 12408,
          "time": 76.02937375,
          "velocity": 0.7874015748031497
        },
        {
          "duration": 0.14705874999999935,
          "durationTicks": 24,
          "midi": 50,
          "name": "D3",
          "ticks": 12408,
          "time": 76.02937375,
          "velocity": 0.7874015748031497
        },
        {
          "duration": 0.14705874999999935,
          "durationTicks": 24,
          "midi": 50,
          "name": "D3",
          "ticks": 12432,
          "time": 76.1764325,
          "velocity": 0.7874015748031497
        },
        {
          "duration": 0.14705874999999935,
          "durationTicks": 24,
          "midi": 45,
          "name": "A2",
          "ticks": 12432,
          "time": 76.1764325,
          "velocity": 0.7874015748031497
        },
        {
          "duration": 0.14705874999999935,
          "durationTicks": 24,
          "midi": 45,
          "name": "A2",
          "ticks": 12456,
          "time": 76.32349125,
          "velocity": 0.7874015748031497
        },
        {
          "duration": 0.14705874999999935,
          "durationTicks": 24,
          "midi": 50,
          "name": "D3",
          "ticks": 12456,
          "time": 76.32349125,
          "velocity": 0.7874015748031497
        },
        {
          "duration": 0.14705874999999935,
          "durationTicks": 24,
          "midi": 50,
          "name": "D3",
          "ticks": 12480,
          "time": 76.47055,
          "velocity": 0.7874015748031497
        },
        {
          "duration": 0.14705874999999935,
          "durationTicks": 24,
          "midi": 45,
          "name": "A2",
          "ticks": 12480,
          "time": 76.47055,
          "velocity": 0.7874015748031497
        },
        {
          "duration": 0.14705874999999935,
          "durationTicks": 24,
          "midi": 45,
          "name": "A2",
          "ticks": 12504,
          "time": 76.61760875,
          "velocity": 0.7874015748031497
        },
        {
          "duration": 0.14705874999999935,
          "durationTicks": 24,
          "midi": 50,
          "name": "D3",
          "ticks": 12504,
          "time": 76.61760875,
          "velocity": 0.7874015748031497
        },
        {
          "duration": 0.14705875000001356,
          "durationTicks": 24,
          "midi": 45,
          "name": "A2",
          "ticks": 12528,
          "time": 76.7646675,
          "velocity": 0.7874015748031497
        },
        {
          "duration": 0.14705875000001356,
          "durationTicks": 24,
          "midi": 50,
          "name": "D3",
          "ticks": 12528,
          "time": 76.7646675,
          "velocity": 0.7874015748031497
        },
        {
          "duration": 0.07352937499999257,
          "durationTicks": 12,
          "midi": 50,
          "name": "D3",
          "ticks": 12552,
          "time": 76.91172625000002,
          "velocity": 0.7874015748031497
        },
        {
          "duration": 0.07352937499999257,
          "durationTicks": 12,
          "midi": 45,
          "name": "A2",
          "ticks": 12552,
          "time": 76.91172625000002,
          "velocity": 0.7874015748031497
        },
        {
          "duration": 0.07352937500000678,
          "durationTicks": 12,
          "midi": 50,
          "name": "D3",
          "ticks": 12564,
          "time": 76.98525562500001,
          "velocity": 0.7874015748031497
        },
        {
          "duration": 0.07352937500000678,
          "durationTicks": 12,
          "midi": 45,
          "name": "A2",
          "ticks": 12564,
          "time": 76.98525562500001,
          "velocity": 0.7874015748031497
        },
        {
          "duration": 0.14705874999999935,
          "durationTicks": 24,
          "midi": 50,
          "name": "D3",
          "ticks": 12576,
          "time": 77.05878500000001,
          "velocity": 0.7874015748031497
        },
        {
          "duration": 0.14705874999999935,
          "durationTicks": 24,
          "midi": 45,
          "name": "A2",
          "ticks": 12576,
          "time": 77.05878500000001,
          "velocity": 0.7874015748031497
        },
        {
          "duration": 0.14705874999999935,
          "durationTicks": 24,
          "midi": 50,
          "name": "D3",
          "ticks": 12600,
          "time": 77.20584375000001,
          "velocity": 0.7874015748031497
        },
        {
          "duration": 0.14705874999999935,
          "durationTicks": 24,
          "midi": 45,
          "name": "A2",
          "ticks": 12600,
          "time": 77.20584375000001,
          "velocity": 0.7874015748031497
        },
        {
          "duration": 0.14705874999999935,
          "durationTicks": 24,
          "midi": 50,
          "name": "D3",
          "ticks": 12624,
          "time": 77.35290250000001,
          "velocity": 0.7874015748031497
        },
        {
          "duration": 0.14705874999999935,
          "durationTicks": 24,
          "midi": 45,
          "name": "A2",
          "ticks": 12624,
          "time": 77.35290250000001,
          "velocity": 0.7874015748031497
        },
        {
          "duration": 0.14705874999999935,
          "durationTicks": 24,
          "midi": 45,
          "name": "A2",
          "ticks": 12648,
          "time": 77.49996125000001,
          "velocity": 0.7874015748031497
        },
        {
          "duration": 0.14705874999999935,
          "durationTicks": 24,
          "midi": 50,
          "name": "D3",
          "ticks": 12648,
          "time": 77.49996125000001,
          "velocity": 0.7874015748031497
        },
        {
          "duration": 0.14705874999999935,
          "durationTicks": 24,
          "midi": 45,
          "name": "A2",
          "ticks": 12672,
          "time": 77.64702000000001,
          "velocity": 0.7874015748031497
        },
        {
          "duration": 0.14705874999999935,
          "durationTicks": 24,
          "midi": 50,
          "name": "D3",
          "ticks": 12672,
          "time": 77.64702000000001,
          "velocity": 0.7874015748031497
        },
        {
          "duration": 0.14705874999999935,
          "durationTicks": 24,
          "midi": 45,
          "name": "A2",
          "ticks": 12696,
          "time": 77.79407875000001,
          "velocity": 0.7874015748031497
        },
        {
          "duration": 0.14705874999999935,
          "durationTicks": 24,
          "midi": 50,
          "name": "D3",
          "ticks": 12696,
          "time": 77.79407875000001,
          "velocity": 0.7874015748031497
        },
        {
          "duration": 0.14705874999999935,
          "durationTicks": 24,
          "midi": 45,
          "name": "A2",
          "ticks": 12720,
          "time": 77.94113750000001,
          "velocity": 0.7874015748031497
        },
        {
          "duration": 0.14705874999999935,
          "durationTicks": 24,
          "midi": 50,
          "name": "D3",
          "ticks": 12720,
          "time": 77.94113750000001,
          "velocity": 0.7874015748031497
        },
        {
          "duration": 0.07352937499999257,
          "durationTicks": 12,
          "midi": 45,
          "name": "A2",
          "ticks": 12744,
          "time": 78.08819625000001,
          "velocity": 0.7874015748031497
        },
        {
          "duration": 0.07352937499999257,
          "durationTicks": 12,
          "midi": 50,
          "name": "D3",
          "ticks": 12744,
          "time": 78.08819625000001,
          "velocity": 0.7874015748031497
        },
        {
          "duration": 0.07352937500000678,
          "durationTicks": 12,
          "midi": 50,
          "name": "D3",
          "ticks": 12756,
          "time": 78.161725625,
          "velocity": 0.7874015748031497
        },
        {
          "duration": 0.07352937500000678,
          "durationTicks": 12,
          "midi": 45,
          "name": "A2",
          "ticks": 12756,
          "time": 78.161725625,
          "velocity": 0.7874015748031497
        },
        {
          "duration": 0.14705874999999935,
          "durationTicks": 24,
          "midi": 41,
          "name": "F2",
          "ticks": 12768,
          "time": 78.23525500000001,
          "velocity": 0.7874015748031497
        },
        {
          "duration": 0.14705874999999935,
          "durationTicks": 24,
          "midi": 46,
          "name": "A#2",
          "ticks": 12768,
          "time": 78.23525500000001,
          "velocity": 0.7874015748031497
        },
        {
          "duration": 0.14705874999999935,
          "durationTicks": 24,
          "midi": 41,
          "name": "F2",
          "ticks": 12792,
          "time": 78.38231375000001,
          "velocity": 0.7874015748031497
        },
        {
          "duration": 0.14705874999999935,
          "durationTicks": 24,
          "midi": 46,
          "name": "A#2",
          "ticks": 12792,
          "time": 78.38231375000001,
          "velocity": 0.7874015748031497
        },
        {
          "duration": 0.14705874999999935,
          "durationTicks": 24,
          "midi": 46,
          "name": "A#2",
          "ticks": 12816,
          "time": 78.52937250000001,
          "velocity": 0.7874015748031497
        },
        {
          "duration": 0.14705874999999935,
          "durationTicks": 24,
          "midi": 41,
          "name": "F2",
          "ticks": 12816,
          "time": 78.52937250000001,
          "velocity": 0.7874015748031497
        },
        {
          "duration": 0.14705874999999935,
          "durationTicks": 24,
          "midi": 41,
          "name": "F2",
          "ticks": 12840,
          "time": 78.67643125000001,
          "velocity": 0.7874015748031497
        },
        {
          "duration": 0.14705874999999935,
          "durationTicks": 24,
          "midi": 46,
          "name": "A#2",
          "ticks": 12840,
          "time": 78.67643125000001,
          "velocity": 0.7874015748031497
        },
        {
          "duration": 0.14705874999999935,
          "durationTicks": 24,
          "midi": 46,
          "name": "A#2",
          "ticks": 12864,
          "time": 78.82349,
          "velocity": 0.7874015748031497
        },
        {
          "duration": 0.14705874999999935,
          "durationTicks": 24,
          "midi": 41,
          "name": "F2",
          "ticks": 12864,
          "time": 78.82349,
          "velocity": 0.7874015748031497
        },
        {
          "duration": 0.14705874999999935,
          "durationTicks": 24,
          "midi": 41,
          "name": "F2",
          "ticks": 12888,
          "time": 78.97054875,
          "velocity": 0.7874015748031497
        },
        {
          "duration": 0.14705874999999935,
          "durationTicks": 24,
          "midi": 46,
          "name": "A#2",
          "ticks": 12888,
          "time": 78.97054875,
          "velocity": 0.7874015748031497
        },
        {
          "duration": 0.14705874999999935,
          "durationTicks": 24,
          "midi": 46,
          "name": "A#2",
          "ticks": 12912,
          "time": 79.1176075,
          "velocity": 0.7874015748031497
        },
        {
          "duration": 0.14705874999999935,
          "durationTicks": 24,
          "midi": 41,
          "name": "F2",
          "ticks": 12912,
          "time": 79.1176075,
          "velocity": 0.7874015748031497
        },
        {
          "duration": 0.07352937500000678,
          "durationTicks": 12,
          "midi": 41,
          "name": "F2",
          "ticks": 12936,
          "time": 79.26466625,
          "velocity": 0.7874015748031497
        },
        {
          "duration": 0.07352937500000678,
          "durationTicks": 12,
          "midi": 46,
          "name": "A#2",
          "ticks": 12936,
          "time": 79.26466625,
          "velocity": 0.7874015748031497
        },
        {
          "duration": 0.07352937499999257,
          "durationTicks": 12,
          "midi": 41,
          "name": "F2",
          "ticks": 12948,
          "time": 79.33819562500001,
          "velocity": 0.7874015748031497
        },
        {
          "duration": 0.07352937499999257,
          "durationTicks": 12,
          "midi": 46,
          "name": "A#2",
          "ticks": 12948,
          "time": 79.33819562500001,
          "velocity": 0.7874015748031497
        },
        {
          "duration": 0.14705874999999935,
          "durationTicks": 24,
          "midi": 46,
          "name": "A#2",
          "ticks": 12960,
          "time": 79.411725,
          "velocity": 0.7874015748031497
        },
        {
          "duration": 0.14705874999999935,
          "durationTicks": 24,
          "midi": 41,
          "name": "F2",
          "ticks": 12960,
          "time": 79.411725,
          "velocity": 0.7874015748031497
        },
        {
          "duration": 0.14705874999999935,
          "durationTicks": 24,
          "midi": 41,
          "name": "F2",
          "ticks": 12984,
          "time": 79.55878375,
          "velocity": 0.7874015748031497
        },
        {
          "duration": 0.14705874999999935,
          "durationTicks": 24,
          "midi": 46,
          "name": "A#2",
          "ticks": 12984,
          "time": 79.55878375,
          "velocity": 0.7874015748031497
        },
        {
          "duration": 0.14705874999999935,
          "durationTicks": 24,
          "midi": 46,
          "name": "A#2",
          "ticks": 13008,
          "time": 79.7058425,
          "velocity": 0.7874015748031497
        },
        {
          "duration": 0.14705874999999935,
          "durationTicks": 24,
          "midi": 41,
          "name": "F2",
          "ticks": 13008,
          "time": 79.7058425,
          "velocity": 0.7874015748031497
        },
        {
          "duration": 0.14705875000001356,
          "durationTicks": 24,
          "midi": 41,
          "name": "F2",
          "ticks": 13032,
          "time": 79.85290125,
          "velocity": 0.7874015748031497
        },
        {
          "duration": 0.14705875000001356,
          "durationTicks": 24,
          "midi": 46,
          "name": "A#2",
          "ticks": 13032,
          "time": 79.85290125,
          "velocity": 0.7874015748031497
        },
        {
          "duration": 0.14705874999999935,
          "durationTicks": 24,
          "midi": 46,
          "name": "A#2",
          "ticks": 13056,
          "time": 79.99996000000002,
          "velocity": 0.7874015748031497
        },
        {
          "duration": 0.14705874999999935,
          "durationTicks": 24,
          "midi": 41,
          "name": "F2",
          "ticks": 13056,
          "time": 79.99996000000002,
          "velocity": 0.7874015748031497
        },
        {
          "duration": 0.14705874999999935,
          "durationTicks": 24,
          "midi": 46,
          "name": "A#2",
          "ticks": 13080,
          "time": 80.14701875000002,
          "velocity": 0.7874015748031497
        },
        {
          "duration": 0.14705874999999935,
          "durationTicks": 24,
          "midi": 41,
          "name": "F2",
          "ticks": 13080,
          "time": 80.14701875000002,
          "velocity": 0.7874015748031497
        },
        {
          "duration": 0.14705874999999935,
          "durationTicks": 24,
          "midi": 41,
          "name": "F2",
          "ticks": 13104,
          "time": 80.29407750000001,
          "velocity": 0.7874015748031497
        },
        {
          "duration": 0.14705874999999935,
          "durationTicks": 24,
          "midi": 46,
          "name": "A#2",
          "ticks": 13104,
          "time": 80.29407750000001,
          "velocity": 0.7874015748031497
        },
        {
          "duration": 0.07352937499999257,
          "durationTicks": 12,
          "midi": 46,
          "name": "A#2",
          "ticks": 13128,
          "time": 80.44113625000001,
          "velocity": 0.7874015748031497
        },
        {
          "duration": 0.07352937499999257,
          "durationTicks": 12,
          "midi": 41,
          "name": "F2",
          "ticks": 13128,
          "time": 80.44113625000001,
          "velocity": 0.7874015748031497
        },
        {
          "duration": 0.07352937500000678,
          "durationTicks": 12,
          "midi": 41,
          "name": "F2",
          "ticks": 13140,
          "time": 80.514665625,
          "velocity": 0.7874015748031497
        },
        {
          "duration": 0.07352937500000678,
          "durationTicks": 12,
          "midi": 46,
          "name": "A#2",
          "ticks": 13140,
          "time": 80.514665625,
          "velocity": 0.7874015748031497
        },
        {
          "duration": 0.14705874999999935,
          "durationTicks": 24,
          "midi": 40,
          "name": "E2",
          "ticks": 13152,
          "time": 80.58819500000001,
          "velocity": 0.7874015748031497
        },
        {
          "duration": 0.14705874999999935,
          "durationTicks": 24,
          "midi": 45,
          "name": "A2",
          "ticks": 13152,
          "time": 80.58819500000001,
          "velocity": 0.7874015748031497
        },
        {
          "duration": 0.14705874999999935,
          "durationTicks": 24,
          "midi": 40,
          "name": "E2",
          "ticks": 13176,
          "time": 80.73525375000001,
          "velocity": 0.7874015748031497
        },
        {
          "duration": 0.14705874999999935,
          "durationTicks": 24,
          "midi": 45,
          "name": "A2",
          "ticks": 13176,
          "time": 80.73525375000001,
          "velocity": 0.7874015748031497
        },
        {
          "duration": 0.14705874999999935,
          "durationTicks": 24,
          "midi": 40,
          "name": "E2",
          "ticks": 13224,
          "time": 81.02937125000001,
          "velocity": 0.7874015748031497
        },
        {
          "duration": 0.14705874999999935,
          "durationTicks": 24,
          "midi": 45,
          "name": "A2",
          "ticks": 13224,
          "time": 81.02937125000001,
          "velocity": 0.7874015748031497
        },
        {
          "duration": 0.14705874999999935,
          "durationTicks": 24,
          "midi": 40,
          "name": "E2",
          "ticks": 13248,
          "time": 81.17643000000001,
          "velocity": 0.7874015748031497
        },
        {
          "duration": 0.14705874999999935,
          "durationTicks": 24,
          "midi": 45,
          "name": "A2",
          "ticks": 13248,
          "time": 81.17643000000001,
          "velocity": 0.7874015748031497
        },
        {
          "duration": 0.14705874999999935,
          "durationTicks": 24,
          "midi": 40,
          "name": "E2",
          "ticks": 13296,
          "time": 81.47054750000001,
          "velocity": 0.7874015748031497
        },
        {
          "duration": 0.14705874999999935,
          "durationTicks": 24,
          "midi": 45,
          "name": "A2",
          "ticks": 13296,
          "time": 81.47054750000001,
          "velocity": 0.7874015748031497
        },
        {
          "duration": 0.14705874999999935,
          "durationTicks": 24,
          "midi": 45,
          "name": "A2",
          "ticks": 13320,
          "time": 81.61760625000001,
          "velocity": 0.7874015748031497
        },
        {
          "duration": 0.14705874999999935,
          "durationTicks": 24,
          "midi": 40,
          "name": "E2",
          "ticks": 13320,
          "time": 81.61760625000001,
          "velocity": 0.7874015748031497
        },
        {
          "duration": 0.14705874999999935,
          "durationTicks": 24,
          "midi": 40,
          "name": "E2",
          "ticks": 13368,
          "time": 81.91172375000001,
          "velocity": 0.7874015748031497
        },
        {
          "duration": 0.14705874999999935,
          "durationTicks": 24,
          "midi": 45,
          "name": "A2",
          "ticks": 13368,
          "time": 81.91172375000001,
          "velocity": 0.7874015748031497
        },
        {
          "duration": 0.14705874999999935,
          "durationTicks": 24,
          "midi": 40,
          "name": "E2",
          "ticks": 13392,
          "time": 82.0587825,
          "velocity": 0.7874015748031497
        },
        {
          "duration": 0.14705874999999935,
          "durationTicks": 24,
          "midi": 45,
          "name": "A2",
          "ticks": 13392,
          "time": 82.0587825,
          "velocity": 0.7874015748031497
        },
        {
          "duration": 0.14705874999999935,
          "durationTicks": 24,
          "midi": 40,
          "name": "E2",
          "ticks": 13440,
          "time": 82.3529,
          "velocity": 0.7874015748031497
        },
        {
          "duration": 0.14705874999999935,
          "durationTicks": 24,
          "midi": 45,
          "name": "A2",
          "ticks": 13440,
          "time": 82.3529,
          "velocity": 0.7874015748031497
        },
        {
          "duration": 0.14705874999999935,
          "durationTicks": 24,
          "midi": 40,
          "name": "E2",
          "ticks": 13464,
          "time": 82.49995875,
          "velocity": 0.7874015748031497
        },
        {
          "duration": 0.14705874999999935,
          "durationTicks": 24,
          "midi": 45,
          "name": "A2",
          "ticks": 13464,
          "time": 82.49995875,
          "velocity": 0.7874015748031497
        },
        {
          "duration": 0.14705874999999935,
          "durationTicks": 24,
          "midi": 45,
          "name": "A2",
          "ticks": 13488,
          "time": 82.6470175,
          "velocity": 0.7874015748031497
        },
        {
          "duration": 0.14705874999999935,
          "durationTicks": 24,
          "midi": 40,
          "name": "E2",
          "ticks": 13488,
          "time": 82.6470175,
          "velocity": 0.7874015748031497
        },
        {
          "duration": 0.14705874999999935,
          "durationTicks": 24,
          "midi": 45,
          "name": "A2",
          "ticks": 13512,
          "time": 82.79407625,
          "velocity": 0.7874015748031497
        },
        {
          "duration": 0.14705874999999935,
          "durationTicks": 24,
          "midi": 40,
          "name": "E2",
          "ticks": 13512,
          "time": 82.79407625,
          "velocity": 0.7874015748031497
        },
        {
          "duration": 0.44117625000001226,
          "durationTicks": 72,
          "midi": 40,
          "name": "E2",
          "ticks": 13536,
          "time": 82.941135,
          "velocity": 0.7874015748031497
        },
        {
          "duration": 0.44117625000001226,
          "durationTicks": 72,
          "midi": 45,
          "name": "A2",
          "ticks": 13536,
          "time": 82.941135,
          "velocity": 0.7874015748031497
        },
        {
          "duration": 0.44117624999999805,
          "durationTicks": 72,
          "midi": 45,
          "name": "A2",
          "ticks": 13608,
          "time": 83.38231125000001,
          "velocity": 0.7874015748031497
        },
        {
          "duration": 0.44117624999999805,
          "durationTicks": 72,
          "midi": 40,
          "name": "E2",
          "ticks": 13608,
          "time": 83.38231125000001,
          "velocity": 0.7874015748031497
        },
        {
          "duration": 0.44117624999999805,
          "durationTicks": 72,
          "midi": 45,
          "name": "A2",
          "ticks": 13680,
          "time": 83.82348750000001,
          "velocity": 0.7874015748031497
        },
        {
          "duration": 0.44117624999999805,
          "durationTicks": 72,
          "midi": 40,
          "name": "E2",
          "ticks": 13680,
          "time": 83.82348750000001,
          "velocity": 0.7874015748031497
        },
        {
          "duration": 0.44117624999999805,
          "durationTicks": 72,
          "midi": 45,
          "name": "A2",
          "ticks": 13752,
          "time": 84.26466375000001,
          "velocity": 0.7874015748031497
        },
        {
          "duration": 0.44117624999999805,
          "durationTicks": 72,
          "midi": 40,
          "name": "E2",
          "ticks": 13752,
          "time": 84.26466375000001,
          "velocity": 0.7874015748031497
        },
        {
          "duration": 0.14705874999999935,
          "durationTicks": 24,
          "midi": 45,
          "name": "A2",
          "ticks": 13824,
          "time": 84.70584000000001,
          "velocity": 0.7874015748031497
        },
        {
          "duration": 0.14705874999999935,
          "durationTicks": 24,
          "midi": 40,
          "name": "E2",
          "ticks": 13824,
          "time": 84.70584000000001,
          "velocity": 0.7874015748031497
        },
        {
          "duration": 0.14705874999999935,
          "durationTicks": 24,
          "midi": 40,
          "name": "E2",
          "ticks": 13848,
          "time": 84.85289875000001,
          "velocity": 0.7874015748031497
        },
        {
          "duration": 0.14705874999999935,
          "durationTicks": 24,
          "midi": 45,
          "name": "A2",
          "ticks": 13848,
          "time": 84.85289875000001,
          "velocity": 0.7874015748031497
        },
        {
          "duration": 0.14705874999999935,
          "durationTicks": 24,
          "midi": 40,
          "name": "E2",
          "ticks": 13872,
          "time": 84.99995750000001,
          "velocity": 0.7874015748031497
        },
        {
          "duration": 0.14705874999999935,
          "durationTicks": 24,
          "midi": 45,
          "name": "A2",
          "ticks": 13872,
          "time": 84.99995750000001,
          "velocity": 0.7874015748031497
        },
        {
          "duration": 0.14705874999999935,
          "durationTicks": 24,
          "midi": 40,
          "name": "E2",
          "ticks": 13896,
          "time": 85.14701625000001,
          "velocity": 0.7874015748031497
        },
        {
          "duration": 0.14705874999999935,
          "durationTicks": 24,
          "midi": 45,
          "name": "A2",
          "ticks": 13896,
          "time": 85.14701625000001,
          "velocity": 0.7874015748031497
        },
        {
          "duration": 0.2941174999999987,
          "durationTicks": 48,
          "midi": 45,
          "name": "A2",
          "ticks": 13920,
          "time": 85.294075,
          "velocity": 0.7874015748031497
        },
        {
          "duration": 0.2941174999999987,
          "durationTicks": 48,
          "midi": 40,
          "name": "E2",
          "ticks": 13920,
          "time": 85.294075,
          "velocity": 0.7874015748031497
        },
        {
          "duration": 0.07352937500000678,
          "durationTicks": 12,
          "midi": 45,
          "name": "A2",
          "ticks": 13968,
          "time": 85.5881925,
          "velocity": 0.7874015748031497
        },
        {
          "duration": 0.07352937500000678,
          "durationTicks": 12,
          "midi": 40,
          "name": "E2",
          "ticks": 13968,
          "time": 85.5881925,
          "velocity": 0.7874015748031497
        },
        {
          "duration": 0.07352937499999257,
          "durationTicks": 12,
          "midi": 45,
          "name": "A2",
          "ticks": 13980,
          "time": 85.66172187500001,
          "velocity": 0.7874015748031497
        },
        {
          "duration": 0.07352937499999257,
          "durationTicks": 12,
          "midi": 40,
          "name": "E2",
          "ticks": 13980,
          "time": 85.66172187500001,
          "velocity": 0.7874015748031497
        },
        {
          "duration": 0.14705874999999935,
          "durationTicks": 24,
          "midi": 45,
          "name": "A2",
          "ticks": 13992,
          "time": 85.73525125,
          "velocity": 0.7874015748031497
        },
        {
          "duration": 0.14705874999999935,
          "durationTicks": 24,
          "midi": 40,
          "name": "E2",
          "ticks": 13992,
          "time": 85.73525125,
          "velocity": 0.7874015748031497
        },
        {
          "duration": 0.14705875000001356,
          "durationTicks": 24,
          "midi": 45,
          "name": "A2",
          "ticks": 14064,
          "time": 86.1764275,
          "velocity": 0.7874015748031497
        },
        {
          "duration": 0.14705875000001356,
          "durationTicks": 24,
          "midi": 40,
          "name": "E2",
          "ticks": 14064,
          "time": 86.1764275,
          "velocity": 0.7874015748031497
        },
        {
          "duration": 0.2941174999999987,
          "durationTicks": 48,
          "midi": 40,
          "name": "E2",
          "ticks": 14136,
          "time": 86.61760375000001,
          "velocity": 0.7874015748031497
        },
        {
          "duration": 0.2941174999999987,
          "durationTicks": 48,
          "midi": 45,
          "name": "A2",
          "ticks": 14136,
          "time": 86.61760375000001,
          "velocity": 0.7874015748031497
        },
        {
          "duration": 0.07352937499999257,
          "durationTicks": 12,
          "midi": 40,
          "name": "E2",
          "ticks": 14184,
          "time": 86.91172125000001,
          "velocity": 0.7874015748031497
        },
        {
          "duration": 0.07352937499999257,
          "durationTicks": 12,
          "midi": 45,
          "name": "A2",
          "ticks": 14184,
          "time": 86.91172125000001,
          "velocity": 0.7874015748031497
        },
        {
          "duration": 0.07352937500000678,
          "durationTicks": 12,
          "midi": 45,
          "name": "A2",
          "ticks": 14196,
          "time": 86.985250625,
          "velocity": 0.7874015748031497
        },
        {
          "duration": 0.07352937500000678,
          "durationTicks": 12,
          "midi": 40,
          "name": "E2",
          "ticks": 14196,
          "time": 86.985250625,
          "velocity": 0.7874015748031497
        },
        {
          "duration": 0.14705874999999935,
          "durationTicks": 24,
          "midi": 45,
          "name": "A2",
          "ticks": 14208,
          "time": 87.05878000000001,
          "velocity": 0.7874015748031497
        },
        {
          "duration": 0.14705874999999935,
          "durationTicks": 24,
          "midi": 40,
          "name": "E2",
          "ticks": 14208,
          "time": 87.05878000000001,
          "velocity": 0.7874015748031497
        },
        {
          "duration": 0.14705874999999935,
          "durationTicks": 24,
          "midi": 40,
          "name": "E2",
          "ticks": 14232,
          "time": 87.20583875000001,
          "velocity": 0.7874015748031497
        },
        {
          "duration": 0.14705874999999935,
          "durationTicks": 24,
          "midi": 45,
          "name": "A2",
          "ticks": 14232,
          "time": 87.20583875000001,
          "velocity": 0.7874015748031497
        },
        {
          "duration": 0.14705874999999935,
          "durationTicks": 24,
          "midi": 45,
          "name": "A2",
          "ticks": 14256,
          "time": 87.35289750000001,
          "velocity": 0.7874015748031497
        },
        {
          "duration": 0.14705874999999935,
          "durationTicks": 24,
          "midi": 40,
          "name": "E2",
          "ticks": 14256,
          "time": 87.35289750000001,
          "velocity": 0.7874015748031497
        },
        {
          "duration": 0.14705874999999935,
          "durationTicks": 24,
          "midi": 40,
          "name": "E2",
          "ticks": 14280,
          "time": 87.49995625000001,
          "velocity": 0.7874015748031497
        },
        {
          "duration": 0.14705874999999935,
          "durationTicks": 24,
          "midi": 45,
          "name": "A2",
          "ticks": 14280,
          "time": 87.49995625000001,
          "velocity": 0.7874015748031497
        },
        {
          "duration": 0.2941174999999987,
          "durationTicks": 48,
          "midi": 45,
          "name": "A2",
          "ticks": 14304,
          "time": 87.64701500000001,
          "velocity": 0.7874015748031497
        },
        {
          "duration": 0.2941174999999987,
          "durationTicks": 48,
          "midi": 40,
          "name": "E2",
          "ticks": 14304,
          "time": 87.64701500000001,
          "velocity": 0.7874015748031497
        },
        {
          "duration": 0.07352937500000678,
          "durationTicks": 12,
          "midi": 45,
          "name": "A2",
          "ticks": 14352,
          "time": 87.94113250000001,
          "velocity": 0.7874015748031497
        },
        {
          "duration": 0.07352937500000678,
          "durationTicks": 12,
          "midi": 40,
          "name": "E2",
          "ticks": 14352,
          "time": 87.94113250000001,
          "velocity": 0.7874015748031497
        },
        {
          "duration": 0.07352937499999257,
          "durationTicks": 12,
          "midi": 45,
          "name": "A2",
          "ticks": 14364,
          "time": 88.01466187500002,
          "velocity": 0.7874015748031497
        },
        {
          "duration": 0.07352937499999257,
          "durationTicks": 12,
          "midi": 40,
          "name": "E2",
          "ticks": 14364,
          "time": 88.01466187500002,
          "velocity": 0.7874015748031497
        },
        {
          "duration": 0.14705874999999935,
          "durationTicks": 24,
          "midi": 40,
          "name": "E2",
          "ticks": 14376,
          "time": 88.08819125000001,
          "velocity": 0.7874015748031497
        },
        {
          "duration": 0.14705874999999935,
          "durationTicks": 24,
          "midi": 45,
          "name": "A2",
          "ticks": 14376,
          "time": 88.08819125000001,
          "velocity": 0.7874015748031497
        },
        {
          "duration": 0.14705874999999935,
          "durationTicks": 24,
          "midi": 45,
          "name": "A2",
          "ticks": 14448,
          "time": 88.5293675,
          "velocity": 0.7874015748031497
        },
        {
          "duration": 0.14705874999999935,
          "durationTicks": 24,
          "midi": 40,
          "name": "E2",
          "ticks": 14448,
          "time": 88.5293675,
          "velocity": 0.7874015748031497
        },
        {
          "duration": 0.2941174999999987,
          "durationTicks": 48,
          "midi": 40,
          "name": "E2",
          "ticks": 14520,
          "time": 88.97054375,
          "velocity": 0.7874015748031497
        },
        {
          "duration": 0.2941174999999987,
          "durationTicks": 48,
          "midi": 45,
          "name": "A2",
          "ticks": 14520,
          "time": 88.97054375,
          "velocity": 0.7874015748031497
        },
        {
          "duration": 0.07352937500000678,
          "durationTicks": 12,
          "midi": 40,
          "name": "E2",
          "ticks": 14568,
          "time": 89.26466125,
          "velocity": 0.7874015748031497
        },
        {
          "duration": 0.07352937500000678,
          "durationTicks": 12,
          "midi": 45,
          "name": "A2",
          "ticks": 14568,
          "time": 89.26466125,
          "velocity": 0.7874015748031497
        },
        {
          "duration": 0.07352937499999257,
          "durationTicks": 12,
          "midi": 45,
          "name": "A2",
          "ticks": 14580,
          "time": 89.33819062500001,
          "velocity": 0.7874015748031497
        },
        {
          "duration": 0.07352937499999257,
          "durationTicks": 12,
          "midi": 40,
          "name": "E2",
          "ticks": 14580,
          "time": 89.33819062500001,
          "velocity": 0.7874015748031497
        },
        {
          "duration": 0.14705875000001356,
          "durationTicks": 24,
          "midi": 40,
          "name": "E2",
          "ticks": 14592,
          "time": 89.41172,
          "velocity": 0.7874015748031497
        },
        {
          "duration": 0.14705875000001356,
          "durationTicks": 24,
          "midi": 45,
          "name": "A2",
          "ticks": 14592,
          "time": 89.41172,
          "velocity": 0.7874015748031497
        },
        {
          "duration": 0.14705874999999935,
          "durationTicks": 24,
          "midi": 45,
          "name": "A2",
          "ticks": 14616,
          "time": 89.55877875000002,
          "velocity": 0.7874015748031497
        },
        {
          "duration": 0.14705874999999935,
          "durationTicks": 24,
          "midi": 40,
          "name": "E2",
          "ticks": 14616,
          "time": 89.55877875000002,
          "velocity": 0.7874015748031497
        },
        {
          "duration": 0.14705874999999935,
          "durationTicks": 24,
          "midi": 45,
          "name": "A2",
          "ticks": 14640,
          "time": 89.70583750000002,
          "velocity": 0.7874015748031497
        },
        {
          "duration": 0.14705874999999935,
          "durationTicks": 24,
          "midi": 40,
          "name": "E2",
          "ticks": 14640,
          "time": 89.70583750000002,
          "velocity": 0.7874015748031497
        },
        {
          "duration": 0.14705874999999935,
          "durationTicks": 24,
          "midi": 45,
          "name": "A2",
          "ticks": 14664,
          "time": 89.85289625000001,
          "velocity": 0.7874015748031497
        },
        {
          "duration": 0.14705874999999935,
          "durationTicks": 24,
          "midi": 40,
          "name": "E2",
          "ticks": 14664,
          "time": 89.85289625000001,
          "velocity": 0.7874015748031497
        },
        {
          "duration": 0.2941174999999987,
          "durationTicks": 48,
          "midi": 45,
          "name": "A2",
          "ticks": 14688,
          "time": 89.99995500000001,
          "velocity": 0.7874015748031497
        },
        {
          "duration": 0.2941174999999987,
          "durationTicks": 48,
          "midi": 40,
          "name": "E2",
          "ticks": 14688,
          "time": 89.99995500000001,
          "velocity": 0.7874015748031497
        },
        {
          "duration": 0.07352937499999257,
          "durationTicks": 12,
          "midi": 45,
          "name": "A2",
          "ticks": 14736,
          "time": 90.29407250000001,
          "velocity": 0.7874015748031497
        },
        {
          "duration": 0.07352937499999257,
          "durationTicks": 12,
          "midi": 40,
          "name": "E2",
          "ticks": 14736,
          "time": 90.29407250000001,
          "velocity": 0.7874015748031497
        },
        {
          "duration": 0.07352937500000678,
          "durationTicks": 12,
          "midi": 45,
          "name": "A2",
          "ticks": 14748,
          "time": 90.367601875,
          "velocity": 0.7874015748031497
        },
        {
          "duration": 0.07352937500000678,
          "durationTicks": 12,
          "midi": 40,
          "name": "E2",
          "ticks": 14748,
          "time": 90.367601875,
          "velocity": 0.7874015748031497
        },
        {
          "duration": 0.14705874999999935,
          "durationTicks": 24,
          "midi": 45,
          "name": "A2",
          "ticks": 14760,
          "time": 90.44113125000001,
          "velocity": 0.7874015748031497
        },
        {
          "duration": 0.14705874999999935,
          "durationTicks": 24,
          "midi": 40,
          "name": "E2",
          "ticks": 14760,
          "time": 90.44113125000001,
          "velocity": 0.7874015748031497
        },
        {
          "duration": 0.14705874999999935,
          "durationTicks": 24,
          "midi": 40,
          "name": "E2",
          "ticks": 14832,
          "time": 90.88230750000001,
          "velocity": 0.7874015748031497
        },
        {
          "duration": 0.14705874999999935,
          "durationTicks": 24,
          "midi": 45,
          "name": "A2",
          "ticks": 14832,
          "time": 90.88230750000001,
          "velocity": 0.7874015748031497
        },
        {
          "duration": 0.2941174999999987,
          "durationTicks": 48,
          "midi": 40,
          "name": "E2",
          "ticks": 14904,
          "time": 91.32348375000001,
          "velocity": 0.7874015748031497
        },
        {
          "duration": 0.2941174999999987,
          "durationTicks": 48,
          "midi": 45,
          "name": "A2",
          "ticks": 14904,
          "time": 91.32348375000001,
          "velocity": 0.7874015748031497
        },
        {
          "duration": 0.07352937500000678,
          "durationTicks": 12,
          "midi": 40,
          "name": "E2",
          "ticks": 14952,
          "time": 91.61760125,
          "velocity": 0.7874015748031497
        },
        {
          "duration": 0.07352937500000678,
          "durationTicks": 12,
          "midi": 45,
          "name": "A2",
          "ticks": 14952,
          "time": 91.61760125,
          "velocity": 0.7874015748031497
        },
        {
          "duration": 0.07352937499999257,
          "durationTicks": 12,
          "midi": 45,
          "name": "A2",
          "ticks": 14964,
          "time": 91.69113062500001,
          "velocity": 0.7874015748031497
        },
        {
          "duration": 0.07352937499999257,
          "durationTicks": 12,
          "midi": 40,
          "name": "E2",
          "ticks": 14964,
          "time": 91.69113062500001,
          "velocity": 0.7874015748031497
        },
        {
          "duration": 0.14705874999999935,
          "durationTicks": 24,
          "midi": 45,
          "name": "A2",
          "ticks": 14976,
          "time": 91.76466,
          "velocity": 0.7874015748031497
        },
        {
          "duration": 0.14705874999999935,
          "durationTicks": 24,
          "midi": 40,
          "name": "E2",
          "ticks": 14976,
          "time": 91.76466,
          "velocity": 0.7874015748031497
        },
        {
          "duration": 0.14705874999999935,
          "durationTicks": 24,
          "midi": 45,
          "name": "A2",
          "ticks": 15000,
          "time": 91.91171875,
          "velocity": 0.7874015748031497
        },
        {
          "duration": 0.14705874999999935,
          "durationTicks": 24,
          "midi": 40,
          "name": "E2",
          "ticks": 15000,
          "time": 91.91171875,
          "velocity": 0.7874015748031497
        },
        {
          "duration": 0.14705874999999935,
          "durationTicks": 24,
          "midi": 40,
          "name": "E2",
          "ticks": 15024,
          "time": 92.0587775,
          "velocity": 0.7874015748031497
        },
        {
          "duration": 0.14705874999999935,
          "durationTicks": 24,
          "midi": 45,
          "name": "A2",
          "ticks": 15024,
          "time": 92.0587775,
          "velocity": 0.7874015748031497
        },
        {
          "duration": 0.14705874999999935,
          "durationTicks": 24,
          "midi": 45,
          "name": "A2",
          "ticks": 15048,
          "time": 92.20583625,
          "velocity": 0.7874015748031497
        },
        {
          "duration": 0.14705874999999935,
          "durationTicks": 24,
          "midi": 40,
          "name": "E2",
          "ticks": 15048,
          "time": 92.20583625,
          "velocity": 0.7874015748031497
        },
        {
          "duration": 0.2941175000000129,
          "durationTicks": 48,
          "midi": 40,
          "name": "E2",
          "ticks": 15072,
          "time": 92.352895,
          "velocity": 0.7874015748031497
        },
        {
          "duration": 0.2941175000000129,
          "durationTicks": 48,
          "midi": 45,
          "name": "A2",
          "ticks": 15072,
          "time": 92.352895,
          "velocity": 0.7874015748031497
        },
        {
          "duration": 0.07352937499999257,
          "durationTicks": 12,
          "midi": 45,
          "name": "A2",
          "ticks": 15120,
          "time": 92.64701250000002,
          "velocity": 0.7874015748031497
        },
        {
          "duration": 0.07352937499999257,
          "durationTicks": 12,
          "midi": 40,
          "name": "E2",
          "ticks": 15120,
          "time": 92.64701250000002,
          "velocity": 0.7874015748031497
        },
        {
          "duration": 0.07352937500000678,
          "durationTicks": 12,
          "midi": 45,
          "name": "A2",
          "ticks": 15132,
          "time": 92.72054187500001,
          "velocity": 0.7874015748031497
        },
        {
          "duration": 0.07352937500000678,
          "durationTicks": 12,
          "midi": 40,
          "name": "E2",
          "ticks": 15132,
          "time": 92.72054187500001,
          "velocity": 0.7874015748031497
        },
        {
          "duration": 0.14705874999999935,
          "durationTicks": 24,
          "midi": 45,
          "name": "A2",
          "ticks": 15144,
          "time": 92.79407125000002,
          "velocity": 0.7874015748031497
        },
        {
          "duration": 0.14705874999999935,
          "durationTicks": 24,
          "midi": 40,
          "name": "E2",
          "ticks": 15144,
          "time": 92.79407125000002,
          "velocity": 0.7874015748031497
        },
        {
          "duration": 0.14705874999999935,
          "durationTicks": 24,
          "midi": 45,
          "name": "A2",
          "ticks": 15216,
          "time": 93.23524750000001,
          "velocity": 0.7874015748031497
        },
        {
          "duration": 0.14705874999999935,
          "durationTicks": 24,
          "midi": 40,
          "name": "E2",
          "ticks": 15216,
          "time": 93.23524750000001,
          "velocity": 0.7874015748031497
        },
        {
          "duration": 0.2941174999999987,
          "durationTicks": 48,
          "midi": 40,
          "name": "E2",
          "ticks": 15288,
          "time": 93.67642375000001,
          "velocity": 0.7874015748031497
        },
        {
          "duration": 0.2941174999999987,
          "durationTicks": 48,
          "midi": 45,
          "name": "A2",
          "ticks": 15288,
          "time": 93.67642375000001,
          "velocity": 0.7874015748031497
        },
        {
          "duration": 0.07352937499999257,
          "durationTicks": 12,
          "midi": 40,
          "name": "E2",
          "ticks": 15336,
          "time": 93.97054125000001,
          "velocity": 0.7874015748031497
        },
        {
          "duration": 0.07352937499999257,
          "durationTicks": 12,
          "midi": 45,
          "name": "A2",
          "ticks": 15336,
          "time": 93.97054125000001,
          "velocity": 0.7874015748031497
        },
        {
          "duration": 0.07352937500000678,
          "durationTicks": 12,
          "midi": 45,
          "name": "A2",
          "ticks": 15348,
          "time": 94.044070625,
          "velocity": 0.7874015748031497
        },
        {
          "duration": 0.07352937500000678,
          "durationTicks": 12,
          "midi": 40,
          "name": "E2",
          "ticks": 15348,
          "time": 94.044070625,
          "velocity": 0.7874015748031497
        },
        {
          "duration": 0.14705874999999935,
          "durationTicks": 24,
          "midi": 40,
          "name": "E2",
          "ticks": 15360,
          "time": 94.11760000000001,
          "velocity": 0.7874015748031497
        },
        {
          "duration": 0.14705874999999935,
          "durationTicks": 24,
          "midi": 45,
          "name": "A2",
          "ticks": 15360,
          "time": 94.11760000000001,
          "velocity": 0.7874015748031497
        },
        {
          "duration": 0.14705874999999935,
          "durationTicks": 24,
          "midi": 40,
          "name": "E2",
          "ticks": 15384,
          "time": 94.26465875000001,
          "velocity": 0.7874015748031497
        },
        {
          "duration": 0.14705874999999935,
          "durationTicks": 24,
          "midi": 45,
          "name": "A2",
          "ticks": 15384,
          "time": 94.26465875000001,
          "velocity": 0.7874015748031497
        },
        {
          "duration": 0.14705874999999935,
          "durationTicks": 24,
          "midi": 40,
          "name": "E2",
          "ticks": 15408,
          "time": 94.41171750000001,
          "velocity": 0.7874015748031497
        },
        {
          "duration": 0.14705874999999935,
          "durationTicks": 24,
          "midi": 45,
          "name": "A2",
          "ticks": 15408,
          "time": 94.41171750000001,
          "velocity": 0.7874015748031497
        },
        {
          "duration": 0.14705874999999935,
          "durationTicks": 24,
          "midi": 40,
          "name": "E2",
          "ticks": 15432,
          "time": 94.55877625000001,
          "velocity": 0.7874015748031497
        },
        {
          "duration": 0.14705874999999935,
          "durationTicks": 24,
          "midi": 45,
          "name": "A2",
          "ticks": 15432,
          "time": 94.55877625000001,
          "velocity": 0.7874015748031497
        },
        {
          "duration": 0.2941174999999987,
          "durationTicks": 48,
          "midi": 40,
          "name": "E2",
          "ticks": 15456,
          "time": 94.70583500000001,
          "velocity": 0.7874015748031497
        },
        {
          "duration": 0.2941174999999987,
          "durationTicks": 48,
          "midi": 45,
          "name": "A2",
          "ticks": 15456,
          "time": 94.70583500000001,
          "velocity": 0.7874015748031497
        },
        {
          "duration": 0.07352937500000678,
          "durationTicks": 12,
          "midi": 45,
          "name": "A2",
          "ticks": 15504,
          "time": 94.9999525,
          "velocity": 0.7874015748031497
        },
        {
          "duration": 0.07352937500000678,
          "durationTicks": 12,
          "midi": 40,
          "name": "E2",
          "ticks": 15504,
          "time": 94.9999525,
          "velocity": 0.7874015748031497
        },
        {
          "duration": 0.07352937499999257,
          "durationTicks": 12,
          "midi": 40,
          "name": "E2",
          "ticks": 15516,
          "time": 95.07348187500001,
          "velocity": 0.7874015748031497
        },
        {
          "duration": 0.07352937499999257,
          "durationTicks": 12,
          "midi": 45,
          "name": "A2",
          "ticks": 15516,
          "time": 95.07348187500001,
          "velocity": 0.7874015748031497
        },
        {
          "duration": 0.14705874999999935,
          "durationTicks": 24,
          "midi": 40,
          "name": "E2",
          "ticks": 15528,
          "time": 95.14701125,
          "velocity": 0.7874015748031497
        },
        {
          "duration": 0.14705874999999935,
          "durationTicks": 24,
          "midi": 45,
          "name": "A2",
          "ticks": 15528,
          "time": 95.14701125,
          "velocity": 0.7874015748031497
        },
        {
          "duration": 0.14705875000001356,
          "durationTicks": 24,
          "midi": 40,
          "name": "E2",
          "ticks": 15600,
          "time": 95.5881875,
          "velocity": 0.7874015748031497
        },
        {
          "duration": 0.14705875000001356,
          "durationTicks": 24,
          "midi": 45,
          "name": "A2",
          "ticks": 15600,
          "time": 95.5881875,
          "velocity": 0.7874015748031497
        },
        {
          "duration": 0.2941174999999987,
          "durationTicks": 48,
          "midi": 45,
          "name": "A2",
          "ticks": 15672,
          "time": 96.02936375000002,
          "velocity": 0.7874015748031497
        },
        {
          "duration": 0.2941174999999987,
          "durationTicks": 48,
          "midi": 40,
          "name": "E2",
          "ticks": 15672,
          "time": 96.02936375000002,
          "velocity": 0.7874015748031497
        },
        {
          "duration": 0.07352937499999257,
          "durationTicks": 12,
          "midi": 45,
          "name": "A2",
          "ticks": 15720,
          "time": 96.32348125000001,
          "velocity": 0.7874015748031497
        },
        {
          "duration": 0.07352937499999257,
          "durationTicks": 12,
          "midi": 40,
          "name": "E2",
          "ticks": 15720,
          "time": 96.32348125000001,
          "velocity": 0.7874015748031497
        },
        {
          "duration": 0.07352937500000678,
          "durationTicks": 12,
          "midi": 45,
          "name": "A2",
          "ticks": 15732,
          "time": 96.39701062500001,
          "velocity": 0.7874015748031497
        },
        {
          "duration": 0.07352937500000678,
          "durationTicks": 12,
          "midi": 40,
          "name": "E2",
          "ticks": 15732,
          "time": 96.39701062500001,
          "velocity": 0.7874015748031497
        },
        {
          "duration": 0.14705874999999935,
          "durationTicks": 24,
          "midi": 45,
          "name": "A2",
          "ticks": 15744,
          "time": 96.47054000000001,
          "velocity": 0.7874015748031497
        },
        {
          "duration": 0.14705874999999935,
          "durationTicks": 24,
          "midi": 40,
          "name": "E2",
          "ticks": 15744,
          "time": 96.47054000000001,
          "velocity": 0.7874015748031497
        },
        {
          "duration": 0.14705874999999935,
          "durationTicks": 24,
          "midi": 40,
          "name": "E2",
          "ticks": 15768,
          "time": 96.61759875000001,
          "velocity": 0.7874015748031497
        },
        {
          "duration": 0.14705874999999935,
          "durationTicks": 24,
          "midi": 45,
          "name": "A2",
          "ticks": 15768,
          "time": 96.61759875000001,
          "velocity": 0.7874015748031497
        },
        {
          "duration": 0.14705874999999935,
          "durationTicks": 24,
          "midi": 40,
          "name": "E2",
          "ticks": 15792,
          "time": 96.76465750000001,
          "velocity": 0.7874015748031497
        },
        {
          "duration": 0.14705874999999935,
          "durationTicks": 24,
          "midi": 45,
          "name": "A2",
          "ticks": 15792,
          "time": 96.76465750000001,
          "velocity": 0.7874015748031497
        },
        {
          "duration": 0.14705874999999935,
          "durationTicks": 24,
          "midi": 40,
          "name": "E2",
          "ticks": 15816,
          "time": 96.91171625000001,
          "velocity": 0.7874015748031497
        },
        {
          "duration": 0.14705874999999935,
          "durationTicks": 24,
          "midi": 45,
          "name": "A2",
          "ticks": 15816,
          "time": 96.91171625000001,
          "velocity": 0.7874015748031497
        },
        {
          "duration": 0.2941174999999987,
          "durationTicks": 48,
          "midi": 40,
          "name": "E2",
          "ticks": 15840,
          "time": 97.05877500000001,
          "velocity": 0.7874015748031497
        },
        {
          "duration": 0.2941174999999987,
          "durationTicks": 48,
          "midi": 45,
          "name": "A2",
          "ticks": 15840,
          "time": 97.05877500000001,
          "velocity": 0.7874015748031497
        },
        {
          "duration": 0.07352937500000678,
          "durationTicks": 12,
          "midi": 45,
          "name": "A2",
          "ticks": 15888,
          "time": 97.35289250000001,
          "velocity": 0.7874015748031497
        },
        {
          "duration": 0.07352937500000678,
          "durationTicks": 12,
          "midi": 40,
          "name": "E2",
          "ticks": 15888,
          "time": 97.35289250000001,
          "velocity": 0.7874015748031497
        },
        {
          "duration": 0.07352937499999257,
          "durationTicks": 12,
          "midi": 40,
          "name": "E2",
          "ticks": 15900,
          "time": 97.42642187500002,
          "velocity": 0.7874015748031497
        },
        {
          "duration": 0.07352937499999257,
          "durationTicks": 12,
          "midi": 45,
          "name": "A2",
          "ticks": 15900,
          "time": 97.42642187500002,
          "velocity": 0.7874015748031497
        },
        {
          "duration": 0.14705874999999935,
          "durationTicks": 24,
          "midi": 45,
          "name": "A2",
          "ticks": 15912,
          "time": 97.49995125000001,
          "velocity": 0.7874015748031497
        },
        {
          "duration": 0.14705874999999935,
          "durationTicks": 24,
          "midi": 40,
          "name": "E2",
          "ticks": 15912,
          "time": 97.49995125000001,
          "velocity": 0.7874015748031497
        },
        {
          "duration": 0.14705874999999935,
          "durationTicks": 24,
          "midi": 45,
          "name": "A2",
          "ticks": 15984,
          "time": 97.94112750000001,
          "velocity": 0.7874015748031497
        },
        {
          "duration": 0.14705874999999935,
          "durationTicks": 24,
          "midi": 40,
          "name": "E2",
          "ticks": 15984,
          "time": 97.94112750000001,
          "velocity": 0.7874015748031497
        },
        {
          "duration": 0.2941174999999987,
          "durationTicks": 48,
          "midi": 40,
          "name": "E2",
          "ticks": 16056,
          "time": 98.38230375,
          "velocity": 0.7874015748031497
        },
        {
          "duration": 0.2941174999999987,
          "durationTicks": 48,
          "midi": 45,
          "name": "A2",
          "ticks": 16056,
          "time": 98.38230375,
          "velocity": 0.7874015748031497
        },
        {
          "duration": 0.07352937500000678,
          "durationTicks": 12,
          "midi": 40,
          "name": "E2",
          "ticks": 16104,
          "time": 98.67642125,
          "velocity": 0.7874015748031497
        },
        {
          "duration": 0.07352937500000678,
          "durationTicks": 12,
          "midi": 45,
          "name": "A2",
          "ticks": 16104,
          "time": 98.67642125,
          "velocity": 0.7874015748031497
        },
        {
          "duration": 0.07352937500000678,
          "durationTicks": 12,
          "midi": 45,
          "name": "A2",
          "ticks": 16116,
          "time": 98.74995062500001,
          "velocity": 0.7874015748031497
        },
        {
          "duration": 0.07352937500000678,
          "durationTicks": 12,
          "midi": 40,
          "name": "E2",
          "ticks": 16116,
          "time": 98.74995062500001,
          "velocity": 0.7874015748031497
        },
        {
          "duration": 0.14705874999999935,
          "durationTicks": 24,
          "midi": 40,
          "name": "E2",
          "ticks": 16128,
          "time": 98.82348000000002,
          "velocity": 0.7874015748031497
        },
        {
          "duration": 0.14705874999999935,
          "durationTicks": 24,
          "midi": 45,
          "name": "A2",
          "ticks": 16128,
          "time": 98.82348000000002,
          "velocity": 0.7874015748031497
        },
        {
          "duration": 0.14705874999999935,
          "durationTicks": 24,
          "midi": 45,
          "name": "A2",
          "ticks": 16152,
          "time": 98.97053875000002,
          "velocity": 0.7874015748031497
        },
        {
          "duration": 0.14705874999999935,
          "durationTicks": 24,
          "midi": 40,
          "name": "E2",
          "ticks": 16152,
          "time": 98.97053875000002,
          "velocity": 0.7874015748031497
        },
        {
          "duration": 0.14705874999999935,
          "durationTicks": 24,
          "midi": 45,
          "name": "A2",
          "ticks": 16176,
          "time": 99.11759750000002,
          "velocity": 0.7874015748031497
        },
        {
          "duration": 0.14705874999999935,
          "durationTicks": 24,
          "midi": 40,
          "name": "E2",
          "ticks": 16176,
          "time": 99.11759750000002,
          "velocity": 0.7874015748031497
        },
        {
          "duration": 0.14705874999999935,
          "durationTicks": 24,
          "midi": 40,
          "name": "E2",
          "ticks": 16200,
          "time": 99.26465625000002,
          "velocity": 0.7874015748031497
        },
        {
          "duration": 0.14705874999999935,
          "durationTicks": 24,
          "midi": 45,
          "name": "A2",
          "ticks": 16200,
          "time": 99.26465625000002,
          "velocity": 0.7874015748031497
        },
        {
          "duration": 0.2941174999999987,
          "durationTicks": 48,
          "midi": 45,
          "name": "A2",
          "ticks": 16224,
          "time": 99.41171500000002,
          "velocity": 0.7874015748031497
        },
        {
          "duration": 0.2941174999999987,
          "durationTicks": 48,
          "midi": 40,
          "name": "E2",
          "ticks": 16224,
          "time": 99.41171500000002,
          "velocity": 0.7874015748031497
        },
        {
          "duration": 0.07352937499999257,
          "durationTicks": 12,
          "midi": 40,
          "name": "E2",
          "ticks": 16272,
          "time": 99.70583250000001,
          "velocity": 0.7874015748031497
        },
        {
          "duration": 0.07352937499999257,
          "durationTicks": 12,
          "midi": 45,
          "name": "A2",
          "ticks": 16272,
          "time": 99.70583250000001,
          "velocity": 0.7874015748031497
        },
        {
          "duration": 0.07352937500000678,
          "durationTicks": 12,
          "midi": 45,
          "name": "A2",
          "ticks": 16284,
          "time": 99.779361875,
          "velocity": 0.7874015748031497
        },
        {
          "duration": 0.07352937500000678,
          "durationTicks": 12,
          "midi": 40,
          "name": "E2",
          "ticks": 16284,
          "time": 99.779361875,
          "velocity": 0.7874015748031497
        },
        {
          "duration": 0.14705874999999935,
          "durationTicks": 24,
          "midi": 45,
          "name": "A2",
          "ticks": 16296,
          "time": 99.85289125000001,
          "velocity": 0.7874015748031497
        },
        {
          "duration": 0.14705874999999935,
          "durationTicks": 24,
          "midi": 40,
          "name": "E2",
          "ticks": 16296,
          "time": 99.85289125000001,
          "velocity": 0.7874015748031497
        },
        {
          "duration": 0.14705874999999935,
          "durationTicks": 24,
          "midi": 40,
          "name": "E2",
          "ticks": 16368,
          "time": 100.29406750000001,
          "velocity": 0.7874015748031497
        },
        {
          "duration": 0.14705874999999935,
          "durationTicks": 24,
          "midi": 45,
          "name": "A2",
          "ticks": 16368,
          "time": 100.29406750000001,
          "velocity": 0.7874015748031497
        },
        {
          "duration": 0.2941174999999987,
          "durationTicks": 48,
          "midi": 40,
          "name": "E2",
          "ticks": 16440,
          "time": 100.73524375000001,
          "velocity": 0.7874015748031497
        },
        {
          "duration": 0.2941174999999987,
          "durationTicks": 48,
          "midi": 45,
          "name": "A2",
          "ticks": 16440,
          "time": 100.73524375000001,
          "velocity": 0.7874015748031497
        },
        {
          "duration": 0.07352937500000678,
          "durationTicks": 12,
          "midi": 45,
          "name": "A2",
          "ticks": 16488,
          "time": 101.02936125000001,
          "velocity": 0.7874015748031497
        },
        {
          "duration": 0.07352937500000678,
          "durationTicks": 12,
          "midi": 40,
          "name": "E2",
          "ticks": 16488,
          "time": 101.02936125000001,
          "velocity": 0.7874015748031497
        },
        {
          "duration": 0.07352937499999257,
          "durationTicks": 12,
          "midi": 40,
          "name": "E2",
          "ticks": 16500,
          "time": 101.10289062500001,
          "velocity": 0.7874015748031497
        },
        {
          "duration": 0.07352937499999257,
          "durationTicks": 12,
          "midi": 45,
          "name": "A2",
          "ticks": 16500,
          "time": 101.10289062500001,
          "velocity": 0.7874015748031497
        },
        {
          "duration": 0.14705874999999935,
          "durationTicks": 24,
          "midi": 40,
          "name": "E2",
          "ticks": 16512,
          "time": 101.17642000000001,
          "velocity": 0.7874015748031497
        },
        {
          "duration": 0.14705874999999935,
          "durationTicks": 24,
          "midi": 45,
          "name": "A2",
          "ticks": 16512,
          "time": 101.17642000000001,
          "velocity": 0.7874015748031497
        },
        {
          "duration": 0.14705874999999935,
          "durationTicks": 24,
          "midi": 45,
          "name": "A2",
          "ticks": 16536,
          "time": 101.32347875,
          "velocity": 0.7874015748031497
        },
        {
          "duration": 0.14705874999999935,
          "durationTicks": 24,
          "midi": 40,
          "name": "E2",
          "ticks": 16536,
          "time": 101.32347875,
          "velocity": 0.7874015748031497
        },
        {
          "duration": 0.14705874999999935,
          "durationTicks": 24,
          "midi": 40,
          "name": "E2",
          "ticks": 16560,
          "time": 101.4705375,
          "velocity": 0.7874015748031497
        },
        {
          "duration": 0.14705874999999935,
          "durationTicks": 24,
          "midi": 45,
          "name": "A2",
          "ticks": 16560,
          "time": 101.4705375,
          "velocity": 0.7874015748031497
        },
        {
          "duration": 0.14705874999999935,
          "durationTicks": 24,
          "midi": 40,
          "name": "E2",
          "ticks": 16584,
          "time": 101.61759625,
          "velocity": 0.7874015748031497
        },
        {
          "duration": 0.14705874999999935,
          "durationTicks": 24,
          "midi": 45,
          "name": "A2",
          "ticks": 16584,
          "time": 101.61759625,
          "velocity": 0.7874015748031497
        },
        {
          "duration": 0.2941175000000129,
          "durationTicks": 48,
          "midi": 45,
          "name": "A2",
          "ticks": 16608,
          "time": 101.764655,
          "velocity": 0.7874015748031497
        },
        {
          "duration": 0.2941175000000129,
          "durationTicks": 48,
          "midi": 40,
          "name": "E2",
          "ticks": 16608,
          "time": 101.764655,
          "velocity": 0.7874015748031497
        },
        {
          "duration": 0.07352937499999257,
          "durationTicks": 12,
          "midi": 45,
          "name": "A2",
          "ticks": 16656,
          "time": 102.05877250000002,
          "velocity": 0.7874015748031497
        },
        {
          "duration": 0.07352937499999257,
          "durationTicks": 12,
          "midi": 40,
          "name": "E2",
          "ticks": 16656,
          "time": 102.05877250000002,
          "velocity": 0.7874015748031497
        },
        {
          "duration": 0.07352937500000678,
          "durationTicks": 12,
          "midi": 40,
          "name": "E2",
          "ticks": 16668,
          "time": 102.13230187500001,
          "velocity": 0.7874015748031497
        },
        {
          "duration": 0.07352937500000678,
          "durationTicks": 12,
          "midi": 45,
          "name": "A2",
          "ticks": 16668,
          "time": 102.13230187500001,
          "velocity": 0.7874015748031497
        },
        {
          "duration": 0.14705874999999935,
          "durationTicks": 24,
          "midi": 40,
          "name": "E2",
          "ticks": 16680,
          "time": 102.20583125000002,
          "velocity": 0.7874015748031497
        },
        {
          "duration": 0.14705874999999935,
          "durationTicks": 24,
          "midi": 45,
          "name": "A2",
          "ticks": 16680,
          "time": 102.20583125000002,
          "velocity": 0.7874015748031497
        },
        {
          "duration": 0.14705874999999935,
          "durationTicks": 24,
          "midi": 40,
          "name": "E2",
          "ticks": 16752,
          "time": 102.64700750000002,
          "velocity": 0.7874015748031497
        },
        {
          "duration": 0.14705874999999935,
          "durationTicks": 24,
          "midi": 45,
          "name": "A2",
          "ticks": 16752,
          "time": 102.64700750000002,
          "velocity": 0.7874015748031497
        },
        {
          "duration": 0.2941174999999987,
          "durationTicks": 48,
          "midi": 40,
          "name": "E2",
          "ticks": 16824,
          "time": 103.08818375000001,
          "velocity": 0.7874015748031497
        },
        {
          "duration": 0.2941174999999987,
          "durationTicks": 48,
          "midi": 45,
          "name": "A2",
          "ticks": 16824,
          "time": 103.08818375000001,
          "velocity": 0.7874015748031497
        },
        {
          "duration": 0.07352937499999257,
          "durationTicks": 12,
          "midi": 45,
          "name": "A2",
          "ticks": 16872,
          "time": 103.38230125000001,
          "velocity": 0.7874015748031497
        },
        {
          "duration": 0.07352937499999257,
          "durationTicks": 12,
          "midi": 40,
          "name": "E2",
          "ticks": 16872,
          "time": 103.38230125000001,
          "velocity": 0.7874015748031497
        },
        {
          "duration": 0.07352937500000678,
          "durationTicks": 12,
          "midi": 45,
          "name": "A2",
          "ticks": 16884,
          "time": 103.455830625,
          "velocity": 0.7874015748031497
        },
        {
          "duration": 0.07352937500000678,
          "durationTicks": 12,
          "midi": 40,
          "name": "E2",
          "ticks": 16884,
          "time": 103.455830625,
          "velocity": 0.7874015748031497
        },
        {
          "duration": 0.14705874999999935,
          "durationTicks": 24,
          "midi": 40,
          "name": "E2",
          "ticks": 16896,
          "time": 103.52936000000001,
          "velocity": 0.7874015748031497
        },
        {
          "duration": 0.14705874999999935,
          "durationTicks": 24,
          "midi": 45,
          "name": "A2",
          "ticks": 16896,
          "time": 103.52936000000001,
          "velocity": 0.7874015748031497
        },
        {
          "duration": 0.14705874999999935,
          "durationTicks": 24,
          "midi": 45,
          "name": "A2",
          "ticks": 16920,
          "time": 103.67641875000001,
          "velocity": 0.7874015748031497
        },
        {
          "duration": 0.14705874999999935,
          "durationTicks": 24,
          "midi": 40,
          "name": "E2",
          "ticks": 16920,
          "time": 103.67641875000001,
          "velocity": 0.7874015748031497
        },
        {
          "duration": 0.14705874999999935,
          "durationTicks": 24,
          "midi": 45,
          "name": "A2",
          "ticks": 16944,
          "time": 103.82347750000001,
          "velocity": 0.7874015748031497
        },
        {
          "duration": 0.14705874999999935,
          "durationTicks": 24,
          "midi": 40,
          "name": "E2",
          "ticks": 16944,
          "time": 103.82347750000001,
          "velocity": 0.7874015748031497
        },
        {
          "duration": 0.14705874999999935,
          "durationTicks": 24,
          "midi": 45,
          "name": "A2",
          "ticks": 16968,
          "time": 103.97053625000001,
          "velocity": 0.7874015748031497
        },
        {
          "duration": 0.14705874999999935,
          "durationTicks": 24,
          "midi": 40,
          "name": "E2",
          "ticks": 16968,
          "time": 103.97053625000001,
          "velocity": 0.7874015748031497
        },
        {
          "duration": 0.14705874999999935,
          "durationTicks": 24,
          "midi": 55,
          "name": "G3",
          "ticks": 16992,
          "time": 104.11759500000001,
          "velocity": 0.7874015748031497
        },
        {
          "duration": 0.14705874999999935,
          "durationTicks": 24,
          "midi": 50,
          "name": "D3",
          "ticks": 16992,
          "time": 104.11759500000001,
          "velocity": 0.7874015748031497
        },
        {
          "duration": 0.14705874999999935,
          "durationTicks": 24,
          "midi": 50,
          "name": "D3",
          "ticks": 17016,
          "time": 104.26465375000001,
          "velocity": 0.7874015748031497
        },
        {
          "duration": 0.14705874999999935,
          "durationTicks": 24,
          "midi": 55,
          "name": "G3",
          "ticks": 17016,
          "time": 104.26465375000001,
          "velocity": 0.7874015748031497
        },
        {
          "duration": 0.14705874999999935,
          "durationTicks": 24,
          "midi": 50,
          "name": "D3",
          "ticks": 17040,
          "time": 104.41171250000001,
          "velocity": 0.7874015748031497
        },
        {
          "duration": 0.14705874999999935,
          "durationTicks": 24,
          "midi": 55,
          "name": "G3",
          "ticks": 17040,
          "time": 104.41171250000001,
          "velocity": 0.7874015748031497
        },
        {
          "duration": 0.14705874999999935,
          "durationTicks": 24,
          "midi": 50,
          "name": "D3",
          "ticks": 17064,
          "time": 104.55877125,
          "velocity": 0.7874015748031497
        },
        {
          "duration": 0.14705874999999935,
          "durationTicks": 24,
          "midi": 55,
          "name": "G3",
          "ticks": 17064,
          "time": 104.55877125,
          "velocity": 0.7874015748031497
        },
        {
          "duration": 0.07352937500000678,
          "durationTicks": 12,
          "midi": 50,
          "name": "D3",
          "ticks": 17136,
          "time": 104.9999475,
          "velocity": 0.7874015748031497
        },
        {
          "duration": 0.07352937500000678,
          "durationTicks": 12,
          "midi": 55,
          "name": "G3",
          "ticks": 17136,
          "time": 104.9999475,
          "velocity": 0.7874015748031497
        },
        {
          "duration": 0.07352937500000678,
          "durationTicks": 12,
          "midi": 50,
          "name": "D3",
          "ticks": 17148,
          "time": 105.07347687500001,
          "velocity": 0.7874015748031497
        },
        {
          "duration": 0.07352937500000678,
          "durationTicks": 12,
          "midi": 55,
          "name": "G3",
          "ticks": 17148,
          "time": 105.07347687500001,
          "velocity": 0.7874015748031497
        },
        {
          "duration": 0.14705874999999935,
          "durationTicks": 24,
          "midi": 55,
          "name": "G3",
          "ticks": 17160,
          "time": 105.14700625000002,
          "velocity": 0.7874015748031497
        },
        {
          "duration": 0.14705874999999935,
          "durationTicks": 24,
          "midi": 50,
          "name": "D3",
          "ticks": 17160,
          "time": 105.14700625000002,
          "velocity": 0.7874015748031497
        },
        {
          "duration": 0.14705874999999935,
          "durationTicks": 24,
          "midi": 50,
          "name": "D3",
          "ticks": 17184,
          "time": 105.29406500000002,
          "velocity": 0.7874015748031497
        },
        {
          "duration": 0.14705874999999935,
          "durationTicks": 24,
          "midi": 55,
          "name": "G3",
          "ticks": 17184,
          "time": 105.29406500000002,
          "velocity": 0.7874015748031497
        },
        {
          "duration": 0.14705874999999935,
          "durationTicks": 24,
          "midi": 55,
          "name": "G3",
          "ticks": 17208,
          "time": 105.44112375000002,
          "velocity": 0.7874015748031497
        },
        {
          "duration": 0.14705874999999935,
          "durationTicks": 24,
          "midi": 50,
          "name": "D3",
          "ticks": 17208,
          "time": 105.44112375000002,
          "velocity": 0.7874015748031497
        },
        {
          "duration": 0.14705874999999935,
          "durationTicks": 24,
          "midi": 50,
          "name": "D3",
          "ticks": 17232,
          "time": 105.58818250000002,
          "velocity": 0.7874015748031497
        },
        {
          "duration": 0.14705874999999935,
          "durationTicks": 24,
          "midi": 55,
          "name": "G3",
          "ticks": 17232,
          "time": 105.58818250000002,
          "velocity": 0.7874015748031497
        },
        {
          "duration": 0.14705874999999935,
          "durationTicks": 24,
          "midi": 55,
          "name": "G3",
          "ticks": 17256,
          "time": 105.73524125000002,
          "velocity": 0.7874015748031497
        },
        {
          "duration": 0.14705874999999935,
          "durationTicks": 24,
          "midi": 50,
          "name": "D3",
          "ticks": 17256,
          "time": 105.73524125000002,
          "velocity": 0.7874015748031497
        },
        {
          "duration": 0.07352937499999257,
          "durationTicks": 12,
          "midi": 50,
          "name": "D3",
          "ticks": 17328,
          "time": 106.17641750000001,
          "velocity": 0.7874015748031497
        },
        {
          "duration": 0.07352937499999257,
          "durationTicks": 12,
          "midi": 55,
          "name": "G3",
          "ticks": 17328,
          "time": 106.17641750000001,
          "velocity": 0.7874015748031497
        },
        {
          "duration": 0.07352937500000678,
          "durationTicks": 12,
          "midi": 50,
          "name": "D3",
          "ticks": 17340,
          "time": 106.249946875,
          "velocity": 0.7874015748031497
        },
        {
          "duration": 0.07352937500000678,
          "durationTicks": 12,
          "midi": 55,
          "name": "G3",
          "ticks": 17340,
          "time": 106.249946875,
          "velocity": 0.7874015748031497
        },
        {
          "duration": 0.14705874999999935,
          "durationTicks": 24,
          "midi": 50,
          "name": "D3",
          "ticks": 17352,
          "time": 106.32347625000001,
          "velocity": 0.7874015748031497
        },
        {
          "duration": 0.14705874999999935,
          "durationTicks": 24,
          "midi": 55,
          "name": "G3",
          "ticks": 17352,
          "time": 106.32347625000001,
          "velocity": 0.7874015748031497
        },
        {
          "duration": 0.14705874999999935,
          "durationTicks": 24,
          "midi": 53,
          "name": "F3",
          "ticks": 17376,
          "time": 106.47053500000001,
          "velocity": 0.7874015748031497
        },
        {
          "duration": 0.14705874999999935,
          "durationTicks": 24,
          "midi": 48,
          "name": "C3",
          "ticks": 17376,
          "time": 106.47053500000001,
          "velocity": 0.7874015748031497
        },
        {
          "duration": 0.14705874999999935,
          "durationTicks": 24,
          "midi": 53,
          "name": "F3",
          "ticks": 17400,
          "time": 106.61759375000001,
          "velocity": 0.7874015748031497
        },
        {
          "duration": 0.14705874999999935,
          "durationTicks": 24,
          "midi": 48,
          "name": "C3",
          "ticks": 17400,
          "time": 106.61759375000001,
          "velocity": 0.7874015748031497
        },
        {
          "duration": 0.14705874999999935,
          "durationTicks": 24,
          "midi": 53,
          "name": "F3",
          "ticks": 17424,
          "time": 106.76465250000001,
          "velocity": 0.7874015748031497
        },
        {
          "duration": 0.14705874999999935,
          "durationTicks": 24,
          "midi": 48,
          "name": "C3",
          "ticks": 17424,
          "time": 106.76465250000001,
          "velocity": 0.7874015748031497
        },
        {
          "duration": 0.14705874999999935,
          "durationTicks": 24,
          "midi": 48,
          "name": "C3",
          "ticks": 17448,
          "time": 106.91171125000001,
          "velocity": 0.7874015748031497
        },
        {
          "duration": 0.14705874999999935,
          "durationTicks": 24,
          "midi": 53,
          "name": "F3",
          "ticks": 17448,
          "time": 106.91171125000001,
          "velocity": 0.7874015748031497
        },
        {
          "duration": 0.07352937500000678,
          "durationTicks": 12,
          "midi": 48,
          "name": "C3",
          "ticks": 17520,
          "time": 107.35288750000001,
          "velocity": 0.7874015748031497
        },
        {
          "duration": 0.07352937500000678,
          "durationTicks": 12,
          "midi": 53,
          "name": "F3",
          "ticks": 17520,
          "time": 107.35288750000001,
          "velocity": 0.7874015748031497
        },
        {
          "duration": 0.07352937499999257,
          "durationTicks": 12,
          "midi": 53,
          "name": "F3",
          "ticks": 17532,
          "time": 107.42641687500002,
          "velocity": 0.7874015748031497
        },
        {
          "duration": 0.07352937499999257,
          "durationTicks": 12,
          "midi": 48,
          "name": "C3",
          "ticks": 17532,
          "time": 107.42641687500002,
          "velocity": 0.7874015748031497
        },
        {
          "duration": 0.14705874999999935,
          "durationTicks": 24,
          "midi": 53,
          "name": "F3",
          "ticks": 17544,
          "time": 107.49994625000001,
          "velocity": 0.7874015748031497
        },
        {
          "duration": 0.14705874999999935,
          "durationTicks": 24,
          "midi": 48,
          "name": "C3",
          "ticks": 17544,
          "time": 107.49994625000001,
          "velocity": 0.7874015748031497
        },
        {
          "duration": 0.14705874999999935,
          "durationTicks": 24,
          "midi": 48,
          "name": "C3",
          "ticks": 17568,
          "time": 107.64700500000001,
          "velocity": 0.7874015748031497
        },
        {
          "duration": 0.14705874999999935,
          "durationTicks": 24,
          "midi": 53,
          "name": "F3",
          "ticks": 17568,
          "time": 107.64700500000001,
          "velocity": 0.7874015748031497
        },
        {
          "duration": 0.14705874999999935,
          "durationTicks": 24,
          "midi": 53,
          "name": "F3",
          "ticks": 17592,
          "time": 107.79406375,
          "velocity": 0.7874015748031497
        },
        {
          "duration": 0.14705874999999935,
          "durationTicks": 24,
          "midi": 48,
          "name": "C3",
          "ticks": 17592,
          "time": 107.79406375,
          "velocity": 0.7874015748031497
        },
        {
          "duration": 0.14705874999999935,
          "durationTicks": 24,
          "midi": 48,
          "name": "C3",
          "ticks": 17616,
          "time": 107.9411225,
          "velocity": 0.7874015748031497
        },
        {
          "duration": 0.14705874999999935,
          "durationTicks": 24,
          "midi": 53,
          "name": "F3",
          "ticks": 17616,
          "time": 107.9411225,
          "velocity": 0.7874015748031497
        },
        {
          "duration": 0.14705874999999935,
          "durationTicks": 24,
          "midi": 48,
          "name": "C3",
          "ticks": 17640,
          "time": 108.08818125,
          "velocity": 0.7874015748031497
        },
        {
          "duration": 0.14705874999999935,
          "durationTicks": 24,
          "midi": 53,
          "name": "F3",
          "ticks": 17640,
          "time": 108.08818125,
          "velocity": 0.7874015748031497
        },
        {
          "duration": 0.07352937499999257,
          "durationTicks": 12,
          "midi": 48,
          "name": "C3",
          "ticks": 17712,
          "time": 108.52935750000002,
          "velocity": 0.7874015748031497
        },
        {
          "duration": 0.07352937499999257,
          "durationTicks": 12,
          "midi": 53,
          "name": "F3",
          "ticks": 17712,
          "time": 108.52935750000002,
          "velocity": 0.7874015748031497
        },
        {
          "duration": 0.07352937500000678,
          "durationTicks": 12,
          "midi": 48,
          "name": "C3",
          "ticks": 17724,
          "time": 108.60288687500001,
          "velocity": 0.7874015748031497
        },
        {
          "duration": 0.07352937500000678,
          "durationTicks": 12,
          "midi": 53,
          "name": "F3",
          "ticks": 17724,
          "time": 108.60288687500001,
          "velocity": 0.7874015748031497
        },
        {
          "duration": 0.14705874999999935,
          "durationTicks": 24,
          "midi": 53,
          "name": "F3",
          "ticks": 17736,
          "time": 108.67641625000002,
          "velocity": 0.7874015748031497
        },
        {
          "duration": 0.14705874999999935,
          "durationTicks": 24,
          "midi": 48,
          "name": "C3",
          "ticks": 17736,
          "time": 108.67641625000002,
          "velocity": 0.7874015748031497
        },
        {
          "duration": 0.14705874999999935,
          "durationTicks": 24,
          "midi": 51,
          "name": "D#3",
          "ticks": 17760,
          "time": 108.82347500000002,
          "velocity": 0.7874015748031497
        },
        {
          "duration": 0.14705874999999935,
          "durationTicks": 24,
          "midi": 46,
          "name": "A#2",
          "ticks": 17760,
          "time": 108.82347500000002,
          "velocity": 0.7874015748031497
        },
        {
          "duration": 0.14705874999999935,
          "durationTicks": 24,
          "midi": 46,
          "name": "A#2",
          "ticks": 17784,
          "time": 108.97053375000002,
          "velocity": 0.7874015748031497
        },
        {
          "duration": 0.14705874999999935,
          "durationTicks": 24,
          "midi": 51,
          "name": "D#3",
          "ticks": 17784,
          "time": 108.97053375000002,
          "velocity": 0.7874015748031497
        },
        {
          "duration": 0.14705874999999935,
          "durationTicks": 24,
          "midi": 46,
          "name": "A#2",
          "ticks": 17808,
          "time": 109.11759250000001,
          "velocity": 0.7874015748031497
        },
        {
          "duration": 0.14705874999999935,
          "durationTicks": 24,
          "midi": 51,
          "name": "D#3",
          "ticks": 17808,
          "time": 109.11759250000001,
          "velocity": 0.7874015748031497
        },
        {
          "duration": 0.14705874999999935,
          "durationTicks": 24,
          "midi": 46,
          "name": "A#2",
          "ticks": 17832,
          "time": 109.26465125000001,
          "velocity": 0.7874015748031497
        },
        {
          "duration": 0.14705874999999935,
          "durationTicks": 24,
          "midi": 51,
          "name": "D#3",
          "ticks": 17832,
          "time": 109.26465125000001,
          "velocity": 0.7874015748031497
        },
        {
          "duration": 0.07352937499999257,
          "durationTicks": 12,
          "midi": 51,
          "name": "D#3",
          "ticks": 17904,
          "time": 109.70582750000001,
          "velocity": 0.7874015748031497
        },
        {
          "duration": 0.07352937499999257,
          "durationTicks": 12,
          "midi": 46,
          "name": "A#2",
          "ticks": 17904,
          "time": 109.70582750000001,
          "velocity": 0.7874015748031497
        },
        {
          "duration": 0.07352937500000678,
          "durationTicks": 12,
          "midi": 51,
          "name": "D#3",
          "ticks": 17916,
          "time": 109.779356875,
          "velocity": 0.7874015748031497
        },
        {
          "duration": 0.07352937500000678,
          "durationTicks": 12,
          "midi": 46,
          "name": "A#2",
          "ticks": 17916,
          "time": 109.779356875,
          "velocity": 0.7874015748031497
        },
        {
          "duration": 0.14705874999999935,
          "durationTicks": 24,
          "midi": 51,
          "name": "D#3",
          "ticks": 17928,
          "time": 109.85288625000001,
          "velocity": 0.7874015748031497
        },
        {
          "duration": 0.14705874999999935,
          "durationTicks": 24,
          "midi": 46,
          "name": "A#2",
          "ticks": 17928,
          "time": 109.85288625000001,
          "velocity": 0.7874015748031497
        },
        {
          "duration": 0.14705874999999935,
          "durationTicks": 24,
          "midi": 46,
          "name": "A#2",
          "ticks": 17952,
          "time": 109.99994500000001,
          "velocity": 0.7874015748031497
        },
        {
          "duration": 0.14705874999999935,
          "durationTicks": 24,
          "midi": 51,
          "name": "D#3",
          "ticks": 17952,
          "time": 109.99994500000001,
          "velocity": 0.7874015748031497
        },
        {
          "duration": 0.14705874999999935,
          "durationTicks": 24,
          "midi": 46,
          "name": "A#2",
          "ticks": 17976,
          "time": 110.14700375000001,
          "velocity": 0.7874015748031497
        },
        {
          "duration": 0.14705874999999935,
          "durationTicks": 24,
          "midi": 51,
          "name": "D#3",
          "ticks": 17976,
          "time": 110.14700375000001,
          "velocity": 0.7874015748031497
        },
        {
          "duration": 0.14705874999999935,
          "durationTicks": 24,
          "midi": 46,
          "name": "A#2",
          "ticks": 18000,
          "time": 110.29406250000001,
          "velocity": 0.7874015748031497
        },
        {
          "duration": 0.14705874999999935,
          "durationTicks": 24,
          "midi": 51,
          "name": "D#3",
          "ticks": 18000,
          "time": 110.29406250000001,
          "velocity": 0.7874015748031497
        },
        {
          "duration": 0.14705874999999935,
          "durationTicks": 24,
          "midi": 51,
          "name": "D#3",
          "ticks": 18024,
          "time": 110.44112125000001,
          "velocity": 0.7874015748031497
        },
        {
          "duration": 0.14705874999999935,
          "durationTicks": 24,
          "midi": 46,
          "name": "A#2",
          "ticks": 18024,
          "time": 110.44112125000001,
          "velocity": 0.7874015748031497
        },
        {
          "duration": 0.07352937500000678,
          "durationTicks": 12,
          "midi": 51,
          "name": "D#3",
          "ticks": 18096,
          "time": 110.8822975,
          "velocity": 0.7874015748031497
        },
        {
          "duration": 0.07352937500000678,
          "durationTicks": 12,
          "midi": 46,
          "name": "A#2",
          "ticks": 18096,
          "time": 110.8822975,
          "velocity": 0.7874015748031497
        },
        {
          "duration": 0.07352937499999257,
          "durationTicks": 12,
          "midi": 51,
          "name": "D#3",
          "ticks": 18108,
          "time": 110.95582687500001,
          "velocity": 0.7874015748031497
        },
        {
          "duration": 0.07352937499999257,
          "durationTicks": 12,
          "midi": 46,
          "name": "A#2",
          "ticks": 18108,
          "time": 110.95582687500001,
          "velocity": 0.7874015748031497
        },
        {
          "duration": 0.14705874999999935,
          "durationTicks": 24,
          "midi": 46,
          "name": "A#2",
          "ticks": 18120,
          "time": 111.02935625,
          "velocity": 0.7874015748031497
        },
        {
          "duration": 0.14705874999999935,
          "durationTicks": 24,
          "midi": 51,
          "name": "D#3",
          "ticks": 18120,
          "time": 111.02935625,
          "velocity": 0.7874015748031497
        },
        {
          "duration": 0.14705874999999935,
          "durationTicks": 24,
          "midi": 46,
          "name": "A#2",
          "ticks": 18144,
          "time": 111.176415,
          "velocity": 0.7874015748031497
        },
        {
          "duration": 0.14705874999999935,
          "durationTicks": 24,
          "midi": 51,
          "name": "D#3",
          "ticks": 18144,
          "time": 111.176415,
          "velocity": 0.7874015748031497
        },
        {
          "duration": 0.14705875000001356,
          "durationTicks": 24,
          "midi": 46,
          "name": "A#2",
          "ticks": 18168,
          "time": 111.32347375,
          "velocity": 0.7874015748031497
        },
        {
          "duration": 0.14705875000001356,
          "durationTicks": 24,
          "midi": 51,
          "name": "D#3",
          "ticks": 18168,
          "time": 111.32347375,
          "velocity": 0.7874015748031497
        },
        {
          "duration": 0.14705874999999935,
          "durationTicks": 24,
          "midi": 46,
          "name": "A#2",
          "ticks": 18192,
          "time": 111.47053250000002,
          "velocity": 0.7874015748031497
        },
        {
          "duration": 0.14705874999999935,
          "durationTicks": 24,
          "midi": 51,
          "name": "D#3",
          "ticks": 18192,
          "time": 111.47053250000002,
          "velocity": 0.7874015748031497
        },
        {
          "duration": 0.14705874999999935,
          "durationTicks": 24,
          "midi": 51,
          "name": "D#3",
          "ticks": 18216,
          "time": 111.61759125000002,
          "velocity": 0.7874015748031497
        },
        {
          "duration": 0.14705874999999935,
          "durationTicks": 24,
          "midi": 46,
          "name": "A#2",
          "ticks": 18216,
          "time": 111.61759125000002,
          "velocity": 0.7874015748031497
        },
        {
          "duration": 0.14705874999999935,
          "durationTicks": 24,
          "midi": 48,
          "name": "C3",
          "ticks": 18288,
          "time": 112.05876750000002,
          "velocity": 0.7874015748031497
        },
        {
          "duration": 0.14705874999999935,
          "durationTicks": 24,
          "midi": 53,
          "name": "F3",
          "ticks": 18288,
          "time": 112.05876750000002,
          "velocity": 0.7874015748031497
        },
        {
          "duration": 0.14705874999999935,
          "durationTicks": 24,
          "midi": 53,
          "name": "F3",
          "ticks": 18312,
          "time": 112.20582625000002,
          "velocity": 0.7874015748031497
        },
        {
          "duration": 0.14705874999999935,
          "durationTicks": 24,
          "midi": 48,
          "name": "C3",
          "ticks": 18312,
          "time": 112.20582625000002,
          "velocity": 0.7874015748031497
        },
        {
          "duration": 0.14705874999999935,
          "durationTicks": 24,
          "midi": 53,
          "name": "F3",
          "ticks": 18336,
          "time": 112.35288500000001,
          "velocity": 0.7874015748031497
        },
        {
          "duration": 0.14705874999999935,
          "durationTicks": 24,
          "midi": 48,
          "name": "C3",
          "ticks": 18336,
          "time": 112.35288500000001,
          "velocity": 0.7874015748031497
        },
        {
          "duration": 0.14705874999999935,
          "durationTicks": 24,
          "midi": 48,
          "name": "C3",
          "ticks": 18360,
          "time": 112.49994375000001,
          "velocity": 0.7874015748031497
        },
        {
          "duration": 0.14705874999999935,
          "durationTicks": 24,
          "midi": 53,
          "name": "F3",
          "ticks": 18360,
          "time": 112.49994375000001,
          "velocity": 0.7874015748031497
        },
        {
          "duration": 0.14705874999999935,
          "durationTicks": 24,
          "midi": 48,
          "name": "C3",
          "ticks": 18384,
          "time": 112.64700250000001,
          "velocity": 0.7874015748031497
        },
        {
          "duration": 0.14705874999999935,
          "durationTicks": 24,
          "midi": 53,
          "name": "F3",
          "ticks": 18384,
          "time": 112.64700250000001,
          "velocity": 0.7874015748031497
        },
        {
          "duration": 0.14705874999999935,
          "durationTicks": 24,
          "midi": 48,
          "name": "C3",
          "ticks": 18408,
          "time": 112.79406125000001,
          "velocity": 0.7874015748031497
        },
        {
          "duration": 0.14705874999999935,
          "durationTicks": 24,
          "midi": 53,
          "name": "F3",
          "ticks": 18408,
          "time": 112.79406125000001,
          "velocity": 0.7874015748031497
        },
        {
          "duration": 0.07352937500000678,
          "durationTicks": 12,
          "midi": 48,
          "name": "C3",
          "ticks": 18480,
          "time": 113.23523750000001,
          "velocity": 0.7874015748031497
        },
        {
          "duration": 0.07352937500000678,
          "durationTicks": 12,
          "midi": 53,
          "name": "F3",
          "ticks": 18480,
          "time": 113.23523750000001,
          "velocity": 0.7874015748031497
        },
        {
          "duration": 0.07352937499999257,
          "durationTicks": 12,
          "midi": 53,
          "name": "F3",
          "ticks": 18492,
          "time": 113.30876687500002,
          "velocity": 0.7874015748031497
        },
        {
          "duration": 0.07352937499999257,
          "durationTicks": 12,
          "midi": 48,
          "name": "C3",
          "ticks": 18492,
          "time": 113.30876687500002,
          "velocity": 0.7874015748031497
        },
        {
          "duration": 0.14705874999999935,
          "durationTicks": 24,
          "midi": 48,
          "name": "C3",
          "ticks": 18504,
          "time": 113.38229625000001,
          "velocity": 0.7874015748031497
        },
        {
          "duration": 0.14705874999999935,
          "durationTicks": 24,
          "midi": 53,
          "name": "F3",
          "ticks": 18504,
          "time": 113.38229625000001,
          "velocity": 0.7874015748031497
        },
        {
          "duration": 0.14705874999999935,
          "durationTicks": 24,
          "midi": 55,
          "name": "G3",
          "ticks": 18528,
          "time": 113.52935500000001,
          "velocity": 0.7874015748031497
        },
        {
          "duration": 0.14705874999999935,
          "durationTicks": 24,
          "midi": 50,
          "name": "D3",
          "ticks": 18528,
          "time": 113.52935500000001,
          "velocity": 0.7874015748031497
        },
        {
          "duration": 0.14705874999999935,
          "durationTicks": 24,
          "midi": 55,
          "name": "G3",
          "ticks": 18552,
          "time": 113.67641375000001,
          "velocity": 0.7874015748031497
        },
        {
          "duration": 0.14705874999999935,
          "durationTicks": 24,
          "midi": 50,
          "name": "D3",
          "ticks": 18552,
          "time": 113.67641375000001,
          "velocity": 0.7874015748031497
        },
        {
          "duration": 0.14705874999999935,
          "durationTicks": 24,
          "midi": 55,
          "name": "G3",
          "ticks": 18576,
          "time": 113.82347250000001,
          "velocity": 0.7874015748031497
        },
        {
          "duration": 0.14705874999999935,
          "durationTicks": 24,
          "midi": 50,
          "name": "D3",
          "ticks": 18576,
          "time": 113.82347250000001,
          "velocity": 0.7874015748031497
        },
        {
          "duration": 0.14705874999999935,
          "durationTicks": 24,
          "midi": 50,
          "name": "D3",
          "ticks": 18600,
          "time": 113.97053125000001,
          "velocity": 0.7874015748031497
        },
        {
          "duration": 0.14705874999999935,
          "durationTicks": 24,
          "midi": 55,
          "name": "G3",
          "ticks": 18600,
          "time": 113.97053125000001,
          "velocity": 0.7874015748031497
        },
        {
          "duration": 0.07352937500000678,
          "durationTicks": 12,
          "midi": 50,
          "name": "D3",
          "ticks": 18672,
          "time": 114.4117075,
          "velocity": 0.7874015748031497
        },
        {
          "duration": 0.07352937500000678,
          "durationTicks": 12,
          "midi": 55,
          "name": "G3",
          "ticks": 18672,
          "time": 114.4117075,
          "velocity": 0.7874015748031497
        },
        {
          "duration": 0.07352937500000678,
          "durationTicks": 12,
          "midi": 50,
          "name": "D3",
          "ticks": 18684,
          "time": 114.48523687500001,
          "velocity": 0.7874015748031497
        },
        {
          "duration": 0.07352937500000678,
          "durationTicks": 12,
          "midi": 55,
          "name": "G3",
          "ticks": 18684,
          "time": 114.48523687500001,
          "velocity": 0.7874015748031497
        },
        {
          "duration": 0.14705874999999935,
          "durationTicks": 24,
          "midi": 50,
          "name": "D3",
          "ticks": 18696,
          "time": 114.55876625000002,
          "velocity": 0.7874015748031497
        },
        {
          "duration": 0.14705874999999935,
          "durationTicks": 24,
          "midi": 55,
          "name": "G3",
          "ticks": 18696,
          "time": 114.55876625000002,
          "velocity": 0.7874015748031497
        },
        {
          "duration": 0.14705874999999935,
          "durationTicks": 24,
          "midi": 55,
          "name": "G3",
          "ticks": 18720,
          "time": 114.70582500000002,
          "velocity": 0.7874015748031497
        },
        {
          "duration": 0.14705874999999935,
          "durationTicks": 24,
          "midi": 50,
          "name": "D3",
          "ticks": 18720,
          "time": 114.70582500000002,
          "velocity": 0.7874015748031497
        },
        {
          "duration": 0.14705874999999935,
          "durationTicks": 24,
          "midi": 50,
          "name": "D3",
          "ticks": 18744,
          "time": 114.85288375000002,
          "velocity": 0.7874015748031497
        },
        {
          "duration": 0.14705874999999935,
          "durationTicks": 24,
          "midi": 55,
          "name": "G3",
          "ticks": 18744,
          "time": 114.85288375000002,
          "velocity": 0.7874015748031497
        },
        {
          "duration": 0.14705874999999935,
          "durationTicks": 24,
          "midi": 50,
          "name": "D3",
          "ticks": 18768,
          "time": 114.99994250000002,
          "velocity": 0.7874015748031497
        },
        {
          "duration": 0.14705874999999935,
          "durationTicks": 24,
          "midi": 55,
          "name": "G3",
          "ticks": 18768,
          "time": 114.99994250000002,
          "velocity": 0.7874015748031497
        },
        {
          "duration": 0.14705874999999935,
          "durationTicks": 24,
          "midi": 50,
          "name": "D3",
          "ticks": 18792,
          "time": 115.14700125000002,
          "velocity": 0.7874015748031497
        },
        {
          "duration": 0.14705874999999935,
          "durationTicks": 24,
          "midi": 55,
          "name": "G3",
          "ticks": 18792,
          "time": 115.14700125000002,
          "velocity": 0.7874015748031497
        },
        {
          "duration": 0.07352937499999257,
          "durationTicks": 12,
          "midi": 55,
          "name": "G3",
          "ticks": 18864,
          "time": 115.58817750000001,
          "velocity": 0.7874015748031497
        },
        {
          "duration": 0.07352937499999257,
          "durationTicks": 12,
          "midi": 50,
          "name": "D3",
          "ticks": 18864,
          "time": 115.58817750000001,
          "velocity": 0.7874015748031497
        },
        {
          "duration": 0.07352937500000678,
          "durationTicks": 12,
          "midi": 50,
          "name": "D3",
          "ticks": 18876,
          "time": 115.66170687500001,
          "velocity": 0.7874015748031497
        },
        {
          "duration": 0.07352937500000678,
          "durationTicks": 12,
          "midi": 55,
          "name": "G3",
          "ticks": 18876,
          "time": 115.66170687500001,
          "velocity": 0.7874015748031497
        },
        {
          "duration": 0.14705874999999935,
          "durationTicks": 24,
          "midi": 55,
          "name": "G3",
          "ticks": 18888,
          "time": 115.73523625000001,
          "velocity": 0.7874015748031497
        },
        {
          "duration": 0.14705874999999935,
          "durationTicks": 24,
          "midi": 50,
          "name": "D3",
          "ticks": 18888,
          "time": 115.73523625000001,
          "velocity": 0.7874015748031497
        },
        {
          "duration": 0.14705874999999935,
          "durationTicks": 24,
          "midi": 53,
          "name": "F3",
          "ticks": 18912,
          "time": 115.88229500000001,
          "velocity": 0.7874015748031497
        },
        {
          "duration": 0.14705874999999935,
          "durationTicks": 24,
          "midi": 48,
          "name": "C3",
          "ticks": 18912,
          "time": 115.88229500000001,
          "velocity": 0.7874015748031497
        },
        {
          "duration": 0.14705874999999935,
          "durationTicks": 24,
          "midi": 53,
          "name": "F3",
          "ticks": 18936,
          "time": 116.02935375000001,
          "velocity": 0.7874015748031497
        },
        {
          "duration": 0.14705874999999935,
          "durationTicks": 24,
          "midi": 48,
          "name": "C3",
          "ticks": 18936,
          "time": 116.02935375000001,
          "velocity": 0.7874015748031497
        },
        {
          "duration": 0.14705874999999935,
          "durationTicks": 24,
          "midi": 48,
          "name": "C3",
          "ticks": 18960,
          "time": 116.17641250000001,
          "velocity": 0.7874015748031497
        },
        {
          "duration": 0.14705874999999935,
          "durationTicks": 24,
          "midi": 53,
          "name": "F3",
          "ticks": 18960,
          "time": 116.17641250000001,
          "velocity": 0.7874015748031497
        },
        {
          "duration": 0.14705874999999935,
          "durationTicks": 24,
          "midi": 53,
          "name": "F3",
          "ticks": 18984,
          "time": 116.32347125000001,
          "velocity": 0.7874015748031497
        },
        {
          "duration": 0.14705874999999935,
          "durationTicks": 24,
          "midi": 48,
          "name": "C3",
          "ticks": 18984,
          "time": 116.32347125000001,
          "velocity": 0.7874015748031497
        },
        {
          "duration": 0.07352937500000678,
          "durationTicks": 12,
          "midi": 53,
          "name": "F3",
          "ticks": 19056,
          "time": 116.76464750000001,
          "velocity": 0.7874015748031497
        },
        {
          "duration": 0.07352937500000678,
          "durationTicks": 12,
          "midi": 48,
          "name": "C3",
          "ticks": 19056,
          "time": 116.76464750000001,
          "velocity": 0.7874015748031497
        },
        {
          "duration": 0.07352937499999257,
          "durationTicks": 12,
          "midi": 53,
          "name": "F3",
          "ticks": 19068,
          "time": 116.83817687500002,
          "velocity": 0.7874015748031497
        },
        {
          "duration": 0.07352937499999257,
          "durationTicks": 12,
          "midi": 48,
          "name": "C3",
          "ticks": 19068,
          "time": 116.83817687500002,
          "velocity": 0.7874015748031497
        },
        {
          "duration": 0.14705874999999935,
          "durationTicks": 24,
          "midi": 53,
          "name": "F3",
          "ticks": 19080,
          "time": 116.91170625000001,
          "velocity": 0.7874015748031497
        },
        {
          "duration": 0.14705874999999935,
          "durationTicks": 24,
          "midi": 48,
          "name": "C3",
          "ticks": 19080,
          "time": 116.91170625000001,
          "velocity": 0.7874015748031497
        },
        {
          "duration": 0.14705874999999935,
          "durationTicks": 24,
          "midi": 48,
          "name": "C3",
          "ticks": 19104,
          "time": 117.05876500000001,
          "velocity": 0.7874015748031497
        },
        {
          "duration": 0.14705874999999935,
          "durationTicks": 24,
          "midi": 53,
          "name": "F3",
          "ticks": 19104,
          "time": 117.05876500000001,
          "velocity": 0.7874015748031497
        },
        {
          "duration": 0.14705874999999935,
          "durationTicks": 24,
          "midi": 48,
          "name": "C3",
          "ticks": 19128,
          "time": 117.20582375000001,
          "velocity": 0.7874015748031497
        },
        {
          "duration": 0.14705874999999935,
          "durationTicks": 24,
          "midi": 53,
          "name": "F3",
          "ticks": 19128,
          "time": 117.20582375000001,
          "velocity": 0.7874015748031497
        },
        {
          "duration": 0.14705874999999935,
          "durationTicks": 24,
          "midi": 53,
          "name": "F3",
          "ticks": 19152,
          "time": 117.3528825,
          "velocity": 0.7874015748031497
        },
        {
          "duration": 0.14705874999999935,
          "durationTicks": 24,
          "midi": 48,
          "name": "C3",
          "ticks": 19152,
          "time": 117.3528825,
          "velocity": 0.7874015748031497
        },
        {
          "duration": 0.14705875000001356,
          "durationTicks": 24,
          "midi": 48,
          "name": "C3",
          "ticks": 19176,
          "time": 117.49994125,
          "velocity": 0.7874015748031497
        },
        {
          "duration": 0.14705875000001356,
          "durationTicks": 24,
          "midi": 53,
          "name": "F3",
          "ticks": 19176,
          "time": 117.49994125,
          "velocity": 0.7874015748031497
        },
        {
          "duration": 0.07352937499999257,
          "durationTicks": 12,
          "midi": 53,
          "name": "F3",
          "ticks": 19248,
          "time": 117.94111750000002,
          "velocity": 0.7874015748031497
        },
        {
          "duration": 0.07352937499999257,
          "durationTicks": 12,
          "midi": 48,
          "name": "C3",
          "ticks": 19248,
          "time": 117.94111750000002,
          "velocity": 0.7874015748031497
        },
        {
          "duration": 0.07352937500000678,
          "durationTicks": 12,
          "midi": 48,
          "name": "C3",
          "ticks": 19260,
          "time": 118.01464687500001,
          "velocity": 0.7874015748031497
        },
        {
          "duration": 0.07352937500000678,
          "durationTicks": 12,
          "midi": 53,
          "name": "F3",
          "ticks": 19260,
          "time": 118.01464687500001,
          "velocity": 0.7874015748031497
        },
        {
          "duration": 0.14705874999999935,
          "durationTicks": 24,
          "midi": 48,
          "name": "C3",
          "ticks": 19272,
          "time": 118.08817625000002,
          "velocity": 0.7874015748031497
        },
        {
          "duration": 0.14705874999999935,
          "durationTicks": 24,
          "midi": 53,
          "name": "F3",
          "ticks": 19272,
          "time": 118.08817625000002,
          "velocity": 0.7874015748031497
        },
        {
          "duration": 0.14705874999999935,
          "durationTicks": 24,
          "midi": 51,
          "name": "D#3",
          "ticks": 19296,
          "time": 118.23523500000002,
          "velocity": 0.7874015748031497
        },
        {
          "duration": 0.14705874999999935,
          "durationTicks": 24,
          "midi": 46,
          "name": "A#2",
          "ticks": 19296,
          "time": 118.23523500000002,
          "velocity": 0.7874015748031497
        },
        {
          "duration": 0.14705874999999935,
          "durationTicks": 24,
          "midi": 51,
          "name": "D#3",
          "ticks": 19320,
          "time": 118.38229375000002,
          "velocity": 0.7874015748031497
        },
        {
          "duration": 0.14705874999999935,
          "durationTicks": 24,
          "midi": 46,
          "name": "A#2",
          "ticks": 19320,
          "time": 118.38229375000002,
          "velocity": 0.7874015748031497
        },
        {
          "duration": 0.14705874999999935,
          "durationTicks": 24,
          "midi": 46,
          "name": "A#2",
          "ticks": 19344,
          "time": 118.52935250000002,
          "velocity": 0.7874015748031497
        },
        {
          "duration": 0.14705874999999935,
          "durationTicks": 24,
          "midi": 51,
          "name": "D#3",
          "ticks": 19344,
          "time": 118.52935250000002,
          "velocity": 0.7874015748031497
        },
        {
          "duration": 0.14705874999999935,
          "durationTicks": 24,
          "midi": 46,
          "name": "A#2",
          "ticks": 19368,
          "time": 118.67641125000002,
          "velocity": 0.7874015748031497
        },
        {
          "duration": 0.14705874999999935,
          "durationTicks": 24,
          "midi": 51,
          "name": "D#3",
          "ticks": 19368,
          "time": 118.67641125000002,
          "velocity": 0.7874015748031497
        },
        {
          "duration": 0.07352937499999257,
          "durationTicks": 12,
          "midi": 51,
          "name": "D#3",
          "ticks": 19440,
          "time": 119.11758750000001,
          "velocity": 0.7874015748031497
        },
        {
          "duration": 0.07352937499999257,
          "durationTicks": 12,
          "midi": 46,
          "name": "A#2",
          "ticks": 19440,
          "time": 119.11758750000001,
          "velocity": 0.7874015748031497
        },
        {
          "duration": 0.07352937500000678,
          "durationTicks": 12,
          "midi": 51,
          "name": "D#3",
          "ticks": 19452,
          "time": 119.191116875,
          "velocity": 0.7874015748031497
        },
        {
          "duration": 0.07352937500000678,
          "durationTicks": 12,
          "midi": 46,
          "name": "A#2",
          "ticks": 19452,
          "time": 119.191116875,
          "velocity": 0.7874015748031497
        },
        {
          "duration": 0.14705874999999935,
          "durationTicks": 24,
          "midi": 51,
          "name": "D#3",
          "ticks": 19464,
          "time": 119.26464625000001,
          "velocity": 0.7874015748031497
        },
        {
          "duration": 0.14705874999999935,
          "durationTicks": 24,
          "midi": 46,
          "name": "A#2",
          "ticks": 19464,
          "time": 119.26464625000001,
          "velocity": 0.7874015748031497
        },
        {
          "duration": 0.14705874999999935,
          "durationTicks": 24,
          "midi": 51,
          "name": "D#3",
          "ticks": 19488,
          "time": 119.41170500000001,
          "velocity": 0.7874015748031497
        },
        {
          "duration": 0.14705874999999935,
          "durationTicks": 24,
          "midi": 46,
          "name": "A#2",
          "ticks": 19488,
          "time": 119.41170500000001,
          "velocity": 0.7874015748031497
        },
        {
          "duration": 0.14705874999999935,
          "durationTicks": 24,
          "midi": 46,
          "name": "A#2",
          "ticks": 19512,
          "time": 119.55876375000001,
          "velocity": 0.7874015748031497
        },
        {
          "duration": 0.14705874999999935,
          "durationTicks": 24,
          "midi": 51,
          "name": "D#3",
          "ticks": 19512,
          "time": 119.55876375000001,
          "velocity": 0.7874015748031497
        },
        {
          "duration": 0.14705874999999935,
          "durationTicks": 24,
          "midi": 51,
          "name": "D#3",
          "ticks": 19536,
          "time": 119.70582250000001,
          "velocity": 0.7874015748031497
        },
        {
          "duration": 0.14705874999999935,
          "durationTicks": 24,
          "midi": 46,
          "name": "A#2",
          "ticks": 19536,
          "time": 119.70582250000001,
          "velocity": 0.7874015748031497
        },
        {
          "duration": 0.14705874999999935,
          "durationTicks": 24,
          "midi": 51,
          "name": "D#3",
          "ticks": 19560,
          "time": 119.85288125000001,
          "velocity": 0.7874015748031497
        },
        {
          "duration": 0.14705874999999935,
          "durationTicks": 24,
          "midi": 46,
          "name": "A#2",
          "ticks": 19560,
          "time": 119.85288125000001,
          "velocity": 0.7874015748031497
        },
        {
          "duration": 0.07352937500000678,
          "durationTicks": 12,
          "midi": 51,
          "name": "D#3",
          "ticks": 19632,
          "time": 120.29405750000001,
          "velocity": 0.7874015748031497
        },
        {
          "duration": 0.07352937500000678,
          "durationTicks": 12,
          "midi": 46,
          "name": "A#2",
          "ticks": 19632,
          "time": 120.29405750000001,
          "velocity": 0.7874015748031497
        },
        {
          "duration": 0.07352937499999257,
          "durationTicks": 12,
          "midi": 51,
          "name": "D#3",
          "ticks": 19644,
          "time": 120.36758687500001,
          "velocity": 0.7874015748031497
        },
        {
          "duration": 0.07352937499999257,
          "durationTicks": 12,
          "midi": 46,
          "name": "A#2",
          "ticks": 19644,
          "time": 120.36758687500001,
          "velocity": 0.7874015748031497
        },
        {
          "duration": 0.14705874999999935,
          "durationTicks": 24,
          "midi": 51,
          "name": "D#3",
          "ticks": 19656,
          "time": 120.44111625000001,
          "velocity": 0.7874015748031497
        },
        {
          "duration": 0.14705874999999935,
          "durationTicks": 24,
          "midi": 46,
          "name": "A#2",
          "ticks": 19656,
          "time": 120.44111625000001,
          "velocity": 0.7874015748031497
        },
        {
          "duration": 0.14705874999999935,
          "durationTicks": 24,
          "midi": 46,
          "name": "A#2",
          "ticks": 19680,
          "time": 120.588175,
          "velocity": 0.7874015748031497
        },
        {
          "duration": 0.14705874999999935,
          "durationTicks": 24,
          "midi": 51,
          "name": "D#3",
          "ticks": 19680,
          "time": 120.588175,
          "velocity": 0.7874015748031497
        },
        {
          "duration": 0.14705875000001356,
          "durationTicks": 24,
          "midi": 46,
          "name": "A#2",
          "ticks": 19704,
          "time": 120.73523375,
          "velocity": 0.7874015748031497
        },
        {
          "duration": 0.14705875000001356,
          "durationTicks": 24,
          "midi": 51,
          "name": "D#3",
          "ticks": 19704,
          "time": 120.73523375,
          "velocity": 0.7874015748031497
        },
        {
          "duration": 0.14705874999999935,
          "durationTicks": 24,
          "midi": 46,
          "name": "A#2",
          "ticks": 19728,
          "time": 120.88229250000002,
          "velocity": 0.7874015748031497
        },
        {
          "duration": 0.14705874999999935,
          "durationTicks": 24,
          "midi": 51,
          "name": "D#3",
          "ticks": 19728,
          "time": 120.88229250000002,
          "velocity": 0.7874015748031497
        },
        {
          "duration": 0.14705874999999935,
          "durationTicks": 24,
          "midi": 46,
          "name": "A#2",
          "ticks": 19752,
          "time": 121.02935125000002,
          "velocity": 0.7874015748031497
        },
        {
          "duration": 0.14705874999999935,
          "durationTicks": 24,
          "midi": 51,
          "name": "D#3",
          "ticks": 19752,
          "time": 121.02935125000002,
          "velocity": 0.7874015748031497
        },
        {
          "duration": 0.14705874999999935,
          "durationTicks": 24,
          "midi": 53,
          "name": "F3",
          "ticks": 19824,
          "time": 121.47052750000002,
          "velocity": 0.7874015748031497
        },
        {
          "duration": 0.14705874999999935,
          "durationTicks": 24,
          "midi": 48,
          "name": "C3",
          "ticks": 19824,
          "time": 121.47052750000002,
          "velocity": 0.7874015748031497
        },
        {
          "duration": 0.14705874999999935,
          "durationTicks": 24,
          "midi": 53,
          "name": "F3",
          "ticks": 19848,
          "time": 121.61758625000002,
          "velocity": 0.7874015748031497
        },
        {
          "duration": 0.14705874999999935,
          "durationTicks": 24,
          "midi": 48,
          "name": "C3",
          "ticks": 19848,
          "time": 121.61758625000002,
          "velocity": 0.7874015748031497
        },
        {
          "duration": 0.14705874999999935,
          "durationTicks": 24,
          "midi": 53,
          "name": "F3",
          "ticks": 19872,
          "time": 121.76464500000002,
          "velocity": 0.7874015748031497
        },
        {
          "duration": 0.14705874999999935,
          "durationTicks": 24,
          "midi": 48,
          "name": "C3",
          "ticks": 19872,
          "time": 121.76464500000002,
          "velocity": 0.7874015748031497
        },
        {
          "duration": 0.14705874999999935,
          "durationTicks": 24,
          "midi": 53,
          "name": "F3",
          "ticks": 19896,
          "time": 121.91170375000002,
          "velocity": 0.7874015748031497
        },
        {
          "duration": 0.14705874999999935,
          "durationTicks": 24,
          "midi": 48,
          "name": "C3",
          "ticks": 19896,
          "time": 121.91170375000002,
          "velocity": 0.7874015748031497
        },
        {
          "duration": 0.14705874999999935,
          "durationTicks": 24,
          "midi": 53,
          "name": "F3",
          "ticks": 19920,
          "time": 122.05876250000001,
          "velocity": 0.7874015748031497
        },
        {
          "duration": 0.14705874999999935,
          "durationTicks": 24,
          "midi": 48,
          "name": "C3",
          "ticks": 19920,
          "time": 122.05876250000001,
          "velocity": 0.7874015748031497
        },
        {
          "duration": 0.14705874999999935,
          "durationTicks": 24,
          "midi": 53,
          "name": "F3",
          "ticks": 19944,
          "time": 122.20582125000001,
          "velocity": 0.7874015748031497
        },
        {
          "duration": 0.14705874999999935,
          "durationTicks": 24,
          "midi": 48,
          "name": "C3",
          "ticks": 19944,
          "time": 122.20582125000001,
          "velocity": 0.7874015748031497
        },
        {
          "duration": 0.07352937500000678,
          "durationTicks": 12,
          "midi": 53,
          "name": "F3",
          "ticks": 20016,
          "time": 122.64699750000001,
          "velocity": 0.7874015748031497
        },
        {
          "duration": 0.07352937500000678,
          "durationTicks": 12,
          "midi": 48,
          "name": "C3",
          "ticks": 20016,
          "time": 122.64699750000001,
          "velocity": 0.7874015748031497
        },
        {
          "duration": 0.07352937499999257,
          "durationTicks": 12,
          "midi": 48,
          "name": "C3",
          "ticks": 20028,
          "time": 122.72052687500002,
          "velocity": 0.7874015748031497
        },
        {
          "duration": 0.07352937499999257,
          "durationTicks": 12,
          "midi": 53,
          "name": "F3",
          "ticks": 20028,
          "time": 122.72052687500002,
          "velocity": 0.7874015748031497
        },
        {
          "duration": 0.14705874999999935,
          "durationTicks": 24,
          "midi": 53,
          "name": "F3",
          "ticks": 20040,
          "time": 122.79405625000001,
          "velocity": 0.7874015748031497
        },
        {
          "duration": 0.14705874999999935,
          "durationTicks": 24,
          "midi": 48,
          "name": "C3",
          "ticks": 20040,
          "time": 122.79405625000001,
          "velocity": 0.7874015748031497
        },
        {
          "duration": 0.14705874999999935,
          "durationTicks": 24,
          "midi": 48,
          "name": "C3",
          "ticks": 20064,
          "time": 122.94111500000001,
          "velocity": 0.7874015748031497
        },
        {
          "duration": 0.14705874999999935,
          "durationTicks": 24,
          "midi": 43,
          "name": "G2",
          "ticks": 20064,
          "time": 122.94111500000001,
          "velocity": 0.7874015748031497
        },
        {
          "duration": 0.07352937500000678,
          "durationTicks": 12,
          "midi": 43,
          "name": "G2",
          "ticks": 20088,
          "time": 123.08817375000001,
          "velocity": 0.7874015748031497
        },
        {
          "duration": 0.07352937500000678,
          "durationTicks": 12,
          "midi": 48,
          "name": "C3",
          "ticks": 20088,
          "time": 123.08817375000001,
          "velocity": 0.7874015748031497
        },
        {
          "duration": 0.07352937499999257,
          "durationTicks": 12,
          "midi": 43,
          "name": "G2",
          "ticks": 20100,
          "time": 123.16170312500002,
          "velocity": 0.7874015748031497
        },
        {
          "duration": 0.07352937499999257,
          "durationTicks": 12,
          "midi": 48,
          "name": "C3",
          "ticks": 20100,
          "time": 123.16170312500002,
          "velocity": 0.7874015748031497
        },
        {
          "duration": 0.14705874999999935,
          "durationTicks": 24,
          "midi": 48,
          "name": "C3",
          "ticks": 20112,
          "time": 123.23523250000001,
          "velocity": 0.7874015748031497
        },
        {
          "duration": 0.14705874999999935,
          "durationTicks": 24,
          "midi": 43,
          "name": "G2",
          "ticks": 20112,
          "time": 123.23523250000001,
          "velocity": 0.7874015748031497
        },
        {
          "duration": 0.07352937500000678,
          "durationTicks": 12,
          "midi": 48,
          "name": "C3",
          "ticks": 20136,
          "time": 123.38229125000001,
          "velocity": 0.7874015748031497
        },
        {
          "duration": 0.07352937500000678,
          "durationTicks": 12,
          "midi": 43,
          "name": "G2",
          "ticks": 20136,
          "time": 123.38229125000001,
          "velocity": 0.7874015748031497
        },
        {
          "duration": 0.07352937499999257,
          "durationTicks": 12,
          "midi": 48,
          "name": "C3",
          "ticks": 20148,
          "time": 123.45582062500002,
          "velocity": 0.7874015748031497
        },
        {
          "duration": 0.07352937499999257,
          "durationTicks": 12,
          "midi": 43,
          "name": "G2",
          "ticks": 20148,
          "time": 123.45582062500002,
          "velocity": 0.7874015748031497
        },
        {
          "duration": 0.14705874999999935,
          "durationTicks": 24,
          "midi": 48,
          "name": "C3",
          "ticks": 20160,
          "time": 123.52935000000001,
          "velocity": 0.7874015748031497
        },
        {
          "duration": 0.14705874999999935,
          "durationTicks": 24,
          "midi": 43,
          "name": "G2",
          "ticks": 20160,
          "time": 123.52935000000001,
          "velocity": 0.7874015748031497
        },
        {
          "duration": 0.14705874999999935,
          "durationTicks": 24,
          "midi": 48,
          "name": "C3",
          "ticks": 20184,
          "time": 123.67640875000001,
          "velocity": 0.7874015748031497
        },
        {
          "duration": 0.14705874999999935,
          "durationTicks": 24,
          "midi": 43,
          "name": "G2",
          "ticks": 20184,
          "time": 123.67640875000001,
          "velocity": 0.7874015748031497
        },
        {
          "duration": 0.14705875000001356,
          "durationTicks": 24,
          "midi": 48,
          "name": "C3",
          "ticks": 20208,
          "time": 123.8234675,
          "velocity": 0.7874015748031497
        },
        {
          "duration": 0.14705875000001356,
          "durationTicks": 24,
          "midi": 43,
          "name": "G2",
          "ticks": 20208,
          "time": 123.8234675,
          "velocity": 0.7874015748031497
        },
        {
          "duration": 0.14705874999999935,
          "durationTicks": 24,
          "midi": 43,
          "name": "G2",
          "ticks": 20232,
          "time": 123.97052625000002,
          "velocity": 0.7874015748031497
        },
        {
          "duration": 0.14705874999999935,
          "durationTicks": 24,
          "midi": 48,
          "name": "C3",
          "ticks": 20232,
          "time": 123.97052625000002,
          "velocity": 0.7874015748031497
        },
        {
          "duration": 0.14705874999999935,
          "durationTicks": 24,
          "midi": 43,
          "name": "G2",
          "ticks": 20256,
          "time": 124.11758500000002,
          "velocity": 0.7874015748031497
        },
        {
          "duration": 0.14705874999999935,
          "durationTicks": 24,
          "midi": 48,
          "name": "C3",
          "ticks": 20256,
          "time": 124.11758500000002,
          "velocity": 0.7874015748031497
        },
        {
          "duration": 0.07352937499999257,
          "durationTicks": 12,
          "midi": 43,
          "name": "G2",
          "ticks": 20280,
          "time": 124.26464375000002,
          "velocity": 0.7874015748031497
        },
        {
          "duration": 0.07352937499999257,
          "durationTicks": 12,
          "midi": 48,
          "name": "C3",
          "ticks": 20280,
          "time": 124.26464375000002,
          "velocity": 0.7874015748031497
        },
        {
          "duration": 0.07352937500000678,
          "durationTicks": 12,
          "midi": 43,
          "name": "G2",
          "ticks": 20292,
          "time": 124.33817312500001,
          "velocity": 0.7874015748031497
        },
        {
          "duration": 0.07352937500000678,
          "durationTicks": 12,
          "midi": 48,
          "name": "C3",
          "ticks": 20292,
          "time": 124.33817312500001,
          "velocity": 0.7874015748031497
        },
        {
          "duration": 0.14705874999999935,
          "durationTicks": 24,
          "midi": 48,
          "name": "C3",
          "ticks": 20304,
          "time": 124.41170250000002,
          "velocity": 0.7874015748031497
        },
        {
          "duration": 0.14705874999999935,
          "durationTicks": 24,
          "midi": 43,
          "name": "G2",
          "ticks": 20304,
          "time": 124.41170250000002,
          "velocity": 0.7874015748031497
        },
        {
          "duration": 0.07352937499999257,
          "durationTicks": 12,
          "midi": 43,
          "name": "G2",
          "ticks": 20328,
          "time": 124.55876125000002,
          "velocity": 0.7874015748031497
        },
        {
          "duration": 0.07352937499999257,
          "durationTicks": 12,
          "midi": 48,
          "name": "C3",
          "ticks": 20328,
          "time": 124.55876125000002,
          "velocity": 0.7874015748031497
        },
        {
          "duration": 0.07352937500000678,
          "durationTicks": 12,
          "midi": 43,
          "name": "G2",
          "ticks": 20340,
          "time": 124.63229062500001,
          "velocity": 0.7874015748031497
        },
        {
          "duration": 0.07352937500000678,
          "durationTicks": 12,
          "midi": 48,
          "name": "C3",
          "ticks": 20340,
          "time": 124.63229062500001,
          "velocity": 0.7874015748031497
        },
        {
          "duration": 0.14705874999999935,
          "durationTicks": 24,
          "midi": 43,
          "name": "G2",
          "ticks": 20352,
          "time": 124.70582000000002,
          "velocity": 0.7874015748031497
        },
        {
          "duration": 0.14705874999999935,
          "durationTicks": 24,
          "midi": 48,
          "name": "C3",
          "ticks": 20352,
          "time": 124.70582000000002,
          "velocity": 0.7874015748031497
        },
        {
          "duration": 0.14705874999999935,
          "durationTicks": 24,
          "midi": 48,
          "name": "C3",
          "ticks": 20376,
          "time": 124.85287875000002,
          "velocity": 0.7874015748031497
        },
        {
          "duration": 0.14705874999999935,
          "durationTicks": 24,
          "midi": 43,
          "name": "G2",
          "ticks": 20376,
          "time": 124.85287875000002,
          "velocity": 0.7874015748031497
        },
        {
          "duration": 0.14705874999999935,
          "durationTicks": 24,
          "midi": 48,
          "name": "C3",
          "ticks": 20400,
          "time": 124.99993750000002,
          "velocity": 0.7874015748031497
        },
        {
          "duration": 0.14705874999999935,
          "durationTicks": 24,
          "midi": 43,
          "name": "G2",
          "ticks": 20400,
          "time": 124.99993750000002,
          "velocity": 0.7874015748031497
        },
        {
          "duration": 0.14705874999999935,
          "durationTicks": 24,
          "midi": 48,
          "name": "C3",
          "ticks": 20424,
          "time": 125.14699625000002,
          "velocity": 0.7874015748031497
        },
        {
          "duration": 0.14705874999999935,
          "durationTicks": 24,
          "midi": 43,
          "name": "G2",
          "ticks": 20424,
          "time": 125.14699625000002,
          "velocity": 0.7874015748031497
        },
        {
          "duration": 0.14705874999999935,
          "durationTicks": 24,
          "midi": 50,
          "name": "D3",
          "ticks": 20448,
          "time": 125.29405500000001,
          "velocity": 0.7874015748031497
        },
        {
          "duration": 0.14705874999999935,
          "durationTicks": 24,
          "midi": 45,
          "name": "A2",
          "ticks": 20448,
          "time": 125.29405500000001,
          "velocity": 0.7874015748031497
        },
        {
          "duration": 0.07352937500000678,
          "durationTicks": 12,
          "midi": 45,
          "name": "A2",
          "ticks": 20472,
          "time": 125.44111375000001,
          "velocity": 0.7874015748031497
        },
        {
          "duration": 0.07352937500000678,
          "durationTicks": 12,
          "midi": 50,
          "name": "D3",
          "ticks": 20472,
          "time": 125.44111375000001,
          "velocity": 0.7874015748031497
        },
        {
          "duration": 0.07352937499999257,
          "durationTicks": 12,
          "midi": 50,
          "name": "D3",
          "ticks": 20484,
          "time": 125.51464312500002,
          "velocity": 0.7874015748031497
        },
        {
          "duration": 0.07352937499999257,
          "durationTicks": 12,
          "midi": 45,
          "name": "A2",
          "ticks": 20484,
          "time": 125.51464312500002,
          "velocity": 0.7874015748031497
        },
        {
          "duration": 0.14705874999999935,
          "durationTicks": 24,
          "midi": 50,
          "name": "D3",
          "ticks": 20496,
          "time": 125.58817250000001,
          "velocity": 0.7874015748031497
        },
        {
          "duration": 0.14705874999999935,
          "durationTicks": 24,
          "midi": 45,
          "name": "A2",
          "ticks": 20496,
          "time": 125.58817250000001,
          "velocity": 0.7874015748031497
        },
        {
          "duration": 0.07352937500000678,
          "durationTicks": 12,
          "midi": 45,
          "name": "A2",
          "ticks": 20520,
          "time": 125.73523125000001,
          "velocity": 0.7874015748031497
        },
        {
          "duration": 0.07352937500000678,
          "durationTicks": 12,
          "midi": 50,
          "name": "D3",
          "ticks": 20520,
          "time": 125.73523125000001,
          "velocity": 0.7874015748031497
        },
        {
          "duration": 0.07352937499999257,
          "durationTicks": 12,
          "midi": 45,
          "name": "A2",
          "ticks": 20532,
          "time": 125.80876062500002,
          "velocity": 0.7874015748031497
        },
        {
          "duration": 0.07352937499999257,
          "durationTicks": 12,
          "midi": 50,
          "name": "D3",
          "ticks": 20532,
          "time": 125.80876062500002,
          "velocity": 0.7874015748031497
        },
        {
          "duration": 0.14705874999999935,
          "durationTicks": 24,
          "midi": 45,
          "name": "A2",
          "ticks": 20544,
          "time": 125.88229000000001,
          "velocity": 0.7874015748031497
        },
        {
          "duration": 0.14705874999999935,
          "durationTicks": 24,
          "midi": 50,
          "name": "D3",
          "ticks": 20544,
          "time": 125.88229000000001,
          "velocity": 0.7874015748031497
        },
        {
          "duration": 0.14705874999999935,
          "durationTicks": 24,
          "midi": 50,
          "name": "D3",
          "ticks": 20568,
          "time": 126.02934875000001,
          "velocity": 0.7874015748031497
        },
        {
          "duration": 0.14705874999999935,
          "durationTicks": 24,
          "midi": 45,
          "name": "A2",
          "ticks": 20568,
          "time": 126.02934875000001,
          "velocity": 0.7874015748031497
        },
        {
          "duration": 0.14705874999999935,
          "durationTicks": 24,
          "midi": 45,
          "name": "A2",
          "ticks": 20592,
          "time": 126.17640750000001,
          "velocity": 0.7874015748031497
        },
        {
          "duration": 0.14705874999999935,
          "durationTicks": 24,
          "midi": 50,
          "name": "D3",
          "ticks": 20592,
          "time": 126.17640750000001,
          "velocity": 0.7874015748031497
        },
        {
          "duration": 0.14705874999999935,
          "durationTicks": 24,
          "midi": 50,
          "name": "D3",
          "ticks": 20616,
          "time": 126.32346625000001,
          "velocity": 0.7874015748031497
        },
        {
          "duration": 0.14705874999999935,
          "durationTicks": 24,
          "midi": 45,
          "name": "A2",
          "ticks": 20616,
          "time": 126.32346625000001,
          "velocity": 0.7874015748031497
        },
        {
          "duration": 0.14705874999999935,
          "durationTicks": 24,
          "midi": 50,
          "name": "D3",
          "ticks": 20640,
          "time": 126.47052500000001,
          "velocity": 0.7874015748031497
        },
        {
          "duration": 0.14705874999999935,
          "durationTicks": 24,
          "midi": 45,
          "name": "A2",
          "ticks": 20640,
          "time": 126.47052500000001,
          "velocity": 0.7874015748031497
        },
        {
          "duration": 0.07352937500000678,
          "durationTicks": 12,
          "midi": 45,
          "name": "A2",
          "ticks": 20664,
          "time": 126.61758375000001,
          "velocity": 0.7874015748031497
        },
        {
          "duration": 0.07352937500000678,
          "durationTicks": 12,
          "midi": 50,
          "name": "D3",
          "ticks": 20664,
          "time": 126.61758375000001,
          "velocity": 0.7874015748031497
        },
        {
          "duration": 0.07352937499999257,
          "durationTicks": 12,
          "midi": 50,
          "name": "D3",
          "ticks": 20676,
          "time": 126.69111312500002,
          "velocity": 0.7874015748031497
        },
        {
          "duration": 0.07352937499999257,
          "durationTicks": 12,
          "midi": 45,
          "name": "A2",
          "ticks": 20676,
          "time": 126.69111312500002,
          "velocity": 0.7874015748031497
        },
        {
          "duration": 0.14705874999999935,
          "durationTicks": 24,
          "midi": 50,
          "name": "D3",
          "ticks": 20688,
          "time": 126.76464250000001,
          "velocity": 0.7874015748031497
        },
        {
          "duration": 0.14705874999999935,
          "durationTicks": 24,
          "midi": 45,
          "name": "A2",
          "ticks": 20688,
          "time": 126.76464250000001,
          "velocity": 0.7874015748031497
        },
        {
          "duration": 0.07352937500000678,
          "durationTicks": 12,
          "midi": 50,
          "name": "D3",
          "ticks": 20712,
          "time": 126.91170125000001,
          "velocity": 0.7874015748031497
        },
        {
          "duration": 0.07352937500000678,
          "durationTicks": 12,
          "midi": 45,
          "name": "A2",
          "ticks": 20712,
          "time": 126.91170125000001,
          "velocity": 0.7874015748031497
        },
        {
          "duration": 0.07352937499999257,
          "durationTicks": 12,
          "midi": 45,
          "name": "A2",
          "ticks": 20724,
          "time": 126.98523062500001,
          "velocity": 0.7874015748031497
        },
        {
          "duration": 0.07352937499999257,
          "durationTicks": 12,
          "midi": 50,
          "name": "D3",
          "ticks": 20724,
          "time": 126.98523062500001,
          "velocity": 0.7874015748031497
        },
        {
          "duration": 0.14705875000001356,
          "durationTicks": 24,
          "midi": 45,
          "name": "A2",
          "ticks": 20736,
          "time": 127.05876,
          "velocity": 0.7874015748031497
        },
        {
          "duration": 0.14705875000001356,
          "durationTicks": 24,
          "midi": 50,
          "name": "D3",
          "ticks": 20736,
          "time": 127.05876,
          "velocity": 0.7874015748031497
        },
        {
          "duration": 0.14705874999999935,
          "durationTicks": 24,
          "midi": 45,
          "name": "A2",
          "ticks": 20760,
          "time": 127.20581875000002,
          "velocity": 0.7874015748031497
        },
        {
          "duration": 0.14705874999999935,
          "durationTicks": 24,
          "midi": 50,
          "name": "D3",
          "ticks": 20760,
          "time": 127.20581875000002,
          "velocity": 0.7874015748031497
        },
        {
          "duration": 0.14705874999999935,
          "durationTicks": 24,
          "midi": 50,
          "name": "D3",
          "ticks": 20784,
          "time": 127.35287750000002,
          "velocity": 0.7874015748031497
        },
        {
          "duration": 0.14705874999999935,
          "durationTicks": 24,
          "midi": 45,
          "name": "A2",
          "ticks": 20784,
          "time": 127.35287750000002,
          "velocity": 0.7874015748031497
        },
        {
          "duration": 0.14705874999999935,
          "durationTicks": 24,
          "midi": 45,
          "name": "A2",
          "ticks": 20808,
          "time": 127.49993625000002,
          "velocity": 0.7874015748031497
        },
        {
          "duration": 0.14705874999999935,
          "durationTicks": 24,
          "midi": 50,
          "name": "D3",
          "ticks": 20808,
          "time": 127.49993625000002,
          "velocity": 0.7874015748031497
        },
        {
          "duration": 0.14705874999999935,
          "durationTicks": 24,
          "midi": 46,
          "name": "A#2",
          "ticks": 20832,
          "time": 127.64699500000002,
          "velocity": 0.7874015748031497
        },
        {
          "duration": 0.14705874999999935,
          "durationTicks": 24,
          "midi": 51,
          "name": "D#3",
          "ticks": 20832,
          "time": 127.64699500000002,
          "velocity": 0.7874015748031497
        },
        {
          "duration": 0.07352937499999257,
          "durationTicks": 12,
          "midi": 51,
          "name": "D#3",
          "ticks": 20856,
          "time": 127.79405375000002,
          "velocity": 0.7874015748031497
        },
        {
          "duration": 0.07352937499999257,
          "durationTicks": 12,
          "midi": 46,
          "name": "A#2",
          "ticks": 20856,
          "time": 127.79405375000002,
          "velocity": 0.7874015748031497
        },
        {
          "duration": 0.07352937500000678,
          "durationTicks": 12,
          "midi": 51,
          "name": "D#3",
          "ticks": 20868,
          "time": 127.86758312500001,
          "velocity": 0.7874015748031497
        },
        {
          "duration": 0.07352937500000678,
          "durationTicks": 12,
          "midi": 46,
          "name": "A#2",
          "ticks": 20868,
          "time": 127.86758312500001,
          "velocity": 0.7874015748031497
        },
        {
          "duration": 0.14705874999999935,
          "durationTicks": 24,
          "midi": 51,
          "name": "D#3",
          "ticks": 20880,
          "time": 127.94111250000002,
          "velocity": 0.7874015748031497
        },
        {
          "duration": 0.14705874999999935,
          "durationTicks": 24,
          "midi": 46,
          "name": "A#2",
          "ticks": 20880,
          "time": 127.94111250000002,
          "velocity": 0.7874015748031497
        },
        {
          "duration": 0.07352937499999257,
          "durationTicks": 12,
          "midi": 46,
          "name": "A#2",
          "ticks": 20904,
          "time": 128.08817125000002,
          "velocity": 0.7874015748031497
        },
        {
          "duration": 0.07352937499999257,
          "durationTicks": 12,
          "midi": 51,
          "name": "D#3",
          "ticks": 20904,
          "time": 128.08817125000002,
          "velocity": 0.7874015748031497
        },
        {
          "duration": 0.07352937499999257,
          "durationTicks": 12,
          "midi": 51,
          "name": "D#3",
          "ticks": 20916,
          "time": 128.161700625,
          "velocity": 0.7874015748031497
        },
        {
          "duration": 0.07352937499999257,
          "durationTicks": 12,
          "midi": 46,
          "name": "A#2",
          "ticks": 20916,
          "time": 128.161700625,
          "velocity": 0.7874015748031497
        },
        {
          "duration": 0.14705875000001356,
          "durationTicks": 24,
          "midi": 51,
          "name": "D#3",
          "ticks": 20928,
          "time": 128.23523,
          "velocity": 0.7874015748031497
        },
        {
          "duration": 0.14705875000001356,
          "durationTicks": 24,
          "midi": 46,
          "name": "A#2",
          "ticks": 20928,
          "time": 128.23523,
          "velocity": 0.7874015748031497
        },
        {
          "duration": 0.14705874999998514,
          "durationTicks": 24,
          "midi": 51,
          "name": "D#3",
          "ticks": 20952,
          "time": 128.38228875000001,
          "velocity": 0.7874015748031497
        },
        {
          "duration": 0.14705874999998514,
          "durationTicks": 24,
          "midi": 46,
          "name": "A#2",
          "ticks": 20952,
          "time": 128.38228875000001,
          "velocity": 0.7874015748031497
        },
        {
          "duration": 0.14705875000001356,
          "durationTicks": 24,
          "midi": 51,
          "name": "D#3",
          "ticks": 20976,
          "time": 128.5293475,
          "velocity": 0.7874015748031497
        },
        {
          "duration": 0.14705875000001356,
          "durationTicks": 24,
          "midi": 46,
          "name": "A#2",
          "ticks": 20976,
          "time": 128.5293475,
          "velocity": 0.7874015748031497
        },
        {
          "duration": 0.14705875000001356,
          "durationTicks": 24,
          "midi": 46,
          "name": "A#2",
          "ticks": 21000,
          "time": 128.67640625,
          "velocity": 0.7874015748031497
        },
        {
          "duration": 0.14705875000001356,
          "durationTicks": 24,
          "midi": 51,
          "name": "D#3",
          "ticks": 21000,
          "time": 128.67640625,
          "velocity": 0.7874015748031497
        },
        {
          "duration": 0.14705874999998514,
          "durationTicks": 24,
          "midi": 51,
          "name": "D#3",
          "ticks": 21024,
          "time": 128.82346500000003,
          "velocity": 0.7874015748031497
        },
        {
          "duration": 0.14705874999998514,
          "durationTicks": 24,
          "midi": 46,
          "name": "A#2",
          "ticks": 21024,
          "time": 128.82346500000003,
          "velocity": 0.7874015748031497
        },
        {
          "duration": 0.07352937499999257,
          "durationTicks": 12,
          "midi": 46,
          "name": "A#2",
          "ticks": 21048,
          "time": 128.97052375,
          "velocity": 0.7874015748031497
        },
        {
          "duration": 0.07352937499999257,
          "durationTicks": 12,
          "midi": 51,
          "name": "D#3",
          "ticks": 21048,
          "time": 128.97052375,
          "velocity": 0.7874015748031497
        },
        {
          "duration": 0.07352937500002099,
          "durationTicks": 12,
          "midi": 51,
          "name": "D#3",
          "ticks": 21060,
          "time": 129.044053125,
          "velocity": 0.7874015748031497
        },
        {
          "duration": 0.07352937500002099,
          "durationTicks": 12,
          "midi": 46,
          "name": "A#2",
          "ticks": 21060,
          "time": 129.044053125,
          "velocity": 0.7874015748031497
        },
        {
          "duration": 0.14705874999998514,
          "durationTicks": 24,
          "midi": 51,
          "name": "D#3",
          "ticks": 21072,
          "time": 129.11758250000003,
          "velocity": 0.7874015748031497
        },
        {
          "duration": 0.14705874999998514,
          "durationTicks": 24,
          "midi": 46,
          "name": "A#2",
          "ticks": 21072,
          "time": 129.11758250000003,
          "velocity": 0.7874015748031497
        },
        {
          "duration": 0.07352937499999257,
          "durationTicks": 12,
          "midi": 51,
          "name": "D#3",
          "ticks": 21096,
          "time": 129.26464125,
          "velocity": 0.7874015748031497
        },
        {
          "duration": 0.07352937499999257,
          "durationTicks": 12,
          "midi": 46,
          "name": "A#2",
          "ticks": 21096,
          "time": 129.26464125,
          "velocity": 0.7874015748031497
        },
        {
          "duration": 0.07352937500002099,
          "durationTicks": 12,
          "midi": 51,
          "name": "D#3",
          "ticks": 21108,
          "time": 129.338170625,
          "velocity": 0.7874015748031497
        },
        {
          "duration": 0.07352937500002099,
          "durationTicks": 12,
          "midi": 46,
          "name": "A#2",
          "ticks": 21108,
          "time": 129.338170625,
          "velocity": 0.7874015748031497
        },
        {
          "duration": 0.14705874999998514,
          "durationTicks": 24,
          "midi": 46,
          "name": "A#2",
          "ticks": 21120,
          "time": 129.41170000000002,
          "velocity": 0.7874015748031497
        },
        {
          "duration": 0.14705874999998514,
          "durationTicks": 24,
          "midi": 51,
          "name": "D#3",
          "ticks": 21120,
          "time": 129.41170000000002,
          "velocity": 0.7874015748031497
        },
        {
          "duration": 0.14705875000001356,
          "durationTicks": 24,
          "midi": 51,
          "name": "D#3",
          "ticks": 21144,
          "time": 129.55875875,
          "velocity": 0.7874015748031497
        },
        {
          "duration": 0.14705875000001356,
          "durationTicks": 24,
          "midi": 46,
          "name": "A#2",
          "ticks": 21144,
          "time": 129.55875875,
          "velocity": 0.7874015748031497
        },
        {
          "duration": 0.14705874999998514,
          "durationTicks": 24,
          "midi": 46,
          "name": "A#2",
          "ticks": 21168,
          "time": 129.70581750000002,
          "velocity": 0.7874015748031497
        },
        {
          "duration": 0.14705874999998514,
          "durationTicks": 24,
          "midi": 51,
          "name": "D#3",
          "ticks": 21168,
          "time": 129.70581750000002,
          "velocity": 0.7874015748031497
        },
        {
          "duration": 0.14705875000001356,
          "durationTicks": 24,
          "midi": 51,
          "name": "D#3",
          "ticks": 21192,
          "time": 129.85287625,
          "velocity": 0.7874015748031497
        },
        {
          "duration": 0.14705875000001356,
          "durationTicks": 24,
          "midi": 46,
          "name": "A#2",
          "ticks": 21192,
          "time": 129.85287625,
          "velocity": 0.7874015748031497
        },
        {
          "duration": 0.14705874999998514,
          "durationTicks": 24,
          "midi": 48,
          "name": "C3",
          "ticks": 21216,
          "time": 129.99993500000002,
          "velocity": 0.7874015748031497
        },
        {
          "duration": 0.14705874999998514,
          "durationTicks": 24,
          "midi": 53,
          "name": "F3",
          "ticks": 21216,
          "time": 129.99993500000002,
          "velocity": 0.7874015748031497
        },
        {
          "duration": 0.07352937500002099,
          "durationTicks": 12,
          "midi": 48,
          "name": "C3",
          "ticks": 21240,
          "time": 130.14699375,
          "velocity": 0.7874015748031497
        },
        {
          "duration": 0.07352937500002099,
          "durationTicks": 12,
          "midi": 53,
          "name": "F3",
          "ticks": 21240,
          "time": 130.14699375,
          "velocity": 0.7874015748031497
        },
        {
          "duration": 0.07352937499999257,
          "durationTicks": 12,
          "midi": 48,
          "name": "C3",
          "ticks": 21252,
          "time": 130.22052312500003,
          "velocity": 0.7874015748031497
        },
        {
          "duration": 0.07352937499999257,
          "durationTicks": 12,
          "midi": 53,
          "name": "F3",
          "ticks": 21252,
          "time": 130.22052312500003,
          "velocity": 0.7874015748031497
        },
        {
          "duration": 0.14705874999998514,
          "durationTicks": 24,
          "midi": 48,
          "name": "C3",
          "ticks": 21264,
          "time": 130.29405250000002,
          "velocity": 0.7874015748031497
        },
        {
          "duration": 0.14705874999998514,
          "durationTicks": 24,
          "midi": 53,
          "name": "F3",
          "ticks": 21264,
          "time": 130.29405250000002,
          "velocity": 0.7874015748031497
        },
        {
          "duration": 0.07352937500002099,
          "durationTicks": 12,
          "midi": 48,
          "name": "C3",
          "ticks": 21288,
          "time": 130.44111125,
          "velocity": 0.7874015748031497
        },
        {
          "duration": 0.07352937500002099,
          "durationTicks": 12,
          "midi": 53,
          "name": "F3",
          "ticks": 21288,
          "time": 130.44111125,
          "velocity": 0.7874015748031497
        },
        {
          "duration": 0.07352937499999257,
          "durationTicks": 12,
          "midi": 48,
          "name": "C3",
          "ticks": 21300,
          "time": 130.51464062500003,
          "velocity": 0.7874015748031497
        },
        {
          "duration": 0.07352937499999257,
          "durationTicks": 12,
          "midi": 53,
          "name": "F3",
          "ticks": 21300,
          "time": 130.51464062500003,
          "velocity": 0.7874015748031497
        },
        {
          "duration": 0.14705874999998514,
          "durationTicks": 24,
          "midi": 53,
          "name": "F3",
          "ticks": 21312,
          "time": 130.58817000000002,
          "velocity": 0.7874015748031497
        },
        {
          "duration": 0.14705874999998514,
          "durationTicks": 24,
          "midi": 48,
          "name": "C3",
          "ticks": 21312,
          "time": 130.58817000000002,
          "velocity": 0.7874015748031497
        },
        {
          "duration": 0.14705875000001356,
          "durationTicks": 24,
          "midi": 53,
          "name": "F3",
          "ticks": 21336,
          "time": 130.73522875,
          "velocity": 0.7874015748031497
        },
        {
          "duration": 0.14705875000001356,
          "durationTicks": 24,
          "midi": 48,
          "name": "C3",
          "ticks": 21336,
          "time": 130.73522875,
          "velocity": 0.7874015748031497
        },
        {
          "duration": 0.14705874999998514,
          "durationTicks": 24,
          "midi": 48,
          "name": "C3",
          "ticks": 21360,
          "time": 130.88228750000002,
          "velocity": 0.7874015748031497
        },
        {
          "duration": 0.14705874999998514,
          "durationTicks": 24,
          "midi": 53,
          "name": "F3",
          "ticks": 21360,
          "time": 130.88228750000002,
          "velocity": 0.7874015748031497
        },
        {
          "duration": 0.14705875000001356,
          "durationTicks": 24,
          "midi": 48,
          "name": "C3",
          "ticks": 21384,
          "time": 131.02934625,
          "velocity": 0.7874015748031497
        },
        {
          "duration": 0.14705875000001356,
          "durationTicks": 24,
          "midi": 53,
          "name": "F3",
          "ticks": 21384,
          "time": 131.02934625,
          "velocity": 0.7874015748031497
        },
        {
          "duration": 0.14705874999998514,
          "durationTicks": 24,
          "midi": 48,
          "name": "C3",
          "ticks": 21408,
          "time": 131.17640500000002,
          "velocity": 0.7874015748031497
        },
        {
          "duration": 0.14705874999998514,
          "durationTicks": 24,
          "midi": 53,
          "name": "F3",
          "ticks": 21408,
          "time": 131.17640500000002,
          "velocity": 0.7874015748031497
        },
        {
          "duration": 0.07352937500002099,
          "durationTicks": 12,
          "midi": 53,
          "name": "F3",
          "ticks": 21432,
          "time": 131.32346375,
          "velocity": 0.7874015748031497
        },
        {
          "duration": 0.07352937500002099,
          "durationTicks": 12,
          "midi": 48,
          "name": "C3",
          "ticks": 21432,
          "time": 131.32346375,
          "velocity": 0.7874015748031497
        },
        {
          "duration": 0.07352937499999257,
          "durationTicks": 12,
          "midi": 53,
          "name": "F3",
          "ticks": 21444,
          "time": 131.39699312500002,
          "velocity": 0.7874015748031497
        },
        {
          "duration": 0.07352937499999257,
          "durationTicks": 12,
          "midi": 48,
          "name": "C3",
          "ticks": 21444,
          "time": 131.39699312500002,
          "velocity": 0.7874015748031497
        },
        {
          "duration": 0.14705874999998514,
          "durationTicks": 24,
          "midi": 53,
          "name": "F3",
          "ticks": 21456,
          "time": 131.47052250000002,
          "velocity": 0.7874015748031497
        },
        {
          "duration": 0.14705874999998514,
          "durationTicks": 24,
          "midi": 48,
          "name": "C3",
          "ticks": 21456,
          "time": 131.47052250000002,
          "velocity": 0.7874015748031497
        },
        {
          "duration": 0.07352937500002099,
          "durationTicks": 12,
          "midi": 53,
          "name": "F3",
          "ticks": 21480,
          "time": 131.61758125,
          "velocity": 0.7874015748031497
        },
        {
          "duration": 0.07352937500002099,
          "durationTicks": 12,
          "midi": 48,
          "name": "C3",
          "ticks": 21480,
          "time": 131.61758125,
          "velocity": 0.7874015748031497
        },
        {
          "duration": 0.07352937499999257,
          "durationTicks": 12,
          "midi": 53,
          "name": "F3",
          "ticks": 21492,
          "time": 131.69111062500002,
          "velocity": 0.7874015748031497
        },
        {
          "duration": 0.07352937499999257,
          "durationTicks": 12,
          "midi": 48,
          "name": "C3",
          "ticks": 21492,
          "time": 131.69111062500002,
          "velocity": 0.7874015748031497
        },
        {
          "duration": 0.14705875000001356,
          "durationTicks": 24,
          "midi": 48,
          "name": "C3",
          "ticks": 21504,
          "time": 131.76464,
          "velocity": 0.7874015748031497
        },
        {
          "duration": 0.14705875000001356,
          "durationTicks": 24,
          "midi": 53,
          "name": "F3",
          "ticks": 21504,
          "time": 131.76464,
          "velocity": 0.7874015748031497
        },
        {
          "duration": 0.14705874999998514,
          "durationTicks": 24,
          "midi": 48,
          "name": "C3",
          "ticks": 21528,
          "time": 131.91169875000003,
          "velocity": 0.7874015748031497
        },
        {
          "duration": 0.14705874999998514,
          "durationTicks": 24,
          "midi": 53,
          "name": "F3",
          "ticks": 21528,
          "time": 131.91169875000003,
          "velocity": 0.7874015748031497
        },
        {
          "duration": 0.14705875000001356,
          "durationTicks": 24,
          "midi": 53,
          "name": "F3",
          "ticks": 21552,
          "time": 132.0587575,
          "velocity": 0.7874015748031497
        },
        {
          "duration": 0.14705875000001356,
          "durationTicks": 24,
          "midi": 48,
          "name": "C3",
          "ticks": 21552,
          "time": 132.0587575,
          "velocity": 0.7874015748031497
        },
        {
          "duration": 0.14705874999998514,
          "durationTicks": 24,
          "midi": 48,
          "name": "C3",
          "ticks": 21576,
          "time": 132.20581625000003,
          "velocity": 0.7874015748031497
        },
        {
          "duration": 0.14705874999998514,
          "durationTicks": 24,
          "midi": 53,
          "name": "F3",
          "ticks": 21576,
          "time": 132.20581625000003,
          "velocity": 0.7874015748031497
        },
        {
          "duration": 0.14705875000001356,
          "durationTicks": 24,
          "midi": 50,
          "name": "D3",
          "ticks": 21600,
          "time": 132.352875,
          "velocity": 0.7874015748031497
        },
        {
          "duration": 0.14705875000001356,
          "durationTicks": 24,
          "midi": 55,
          "name": "G3",
          "ticks": 21600,
          "time": 132.352875,
          "velocity": 0.7874015748031497
        },
        {
          "duration": 0.07352937499999257,
          "durationTicks": 12,
          "midi": 50,
          "name": "D3",
          "ticks": 21624,
          "time": 132.49993375000003,
          "velocity": 0.7874015748031497
        },
        {
          "duration": 0.07352937499999257,
          "durationTicks": 12,
          "midi": 55,
          "name": "G3",
          "ticks": 21624,
          "time": 132.49993375000003,
          "velocity": 0.7874015748031497
        },
        {
          "duration": 0.07352937499999257,
          "durationTicks": 12,
          "midi": 50,
          "name": "D3",
          "ticks": 21636,
          "time": 132.57346312500002,
          "velocity": 0.7874015748031497
        },
        {
          "duration": 0.07352937499999257,
          "durationTicks": 12,
          "midi": 55,
          "name": "G3",
          "ticks": 21636,
          "time": 132.57346312500002,
          "velocity": 0.7874015748031497
        },
        {
          "duration": 0.14705875000001356,
          "durationTicks": 24,
          "midi": 50,
          "name": "D3",
          "ticks": 21648,
          "time": 132.6469925,
          "velocity": 0.7874015748031497
        },
        {
          "duration": 0.14705875000001356,
          "durationTicks": 24,
          "midi": 55,
          "name": "G3",
          "ticks": 21648,
          "time": 132.6469925,
          "velocity": 0.7874015748031497
        },
        {
          "duration": 0.07352937499999257,
          "durationTicks": 12,
          "midi": 50,
          "name": "D3",
          "ticks": 21672,
          "time": 132.79405125000002,
          "velocity": 0.7874015748031497
        },
        {
          "duration": 0.07352937499999257,
          "durationTicks": 12,
          "midi": 55,
          "name": "G3",
          "ticks": 21672,
          "time": 132.79405125000002,
          "velocity": 0.7874015748031497
        },
        {
          "duration": 0.07352937499999257,
          "durationTicks": 12,
          "midi": 50,
          "name": "D3",
          "ticks": 21684,
          "time": 132.86758062500002,
          "velocity": 0.7874015748031497
        },
        {
          "duration": 0.07352937499999257,
          "durationTicks": 12,
          "midi": 55,
          "name": "G3",
          "ticks": 21684,
          "time": 132.86758062500002,
          "velocity": 0.7874015748031497
        },
        {
          "duration": 0.14705875000001356,
          "durationTicks": 24,
          "midi": 50,
          "name": "D3",
          "ticks": 21696,
          "time": 132.94111,
          "velocity": 0.7874015748031497
        },
        {
          "duration": 0.14705875000001356,
          "durationTicks": 24,
          "midi": 55,
          "name": "G3",
          "ticks": 21696,
          "time": 132.94111,
          "velocity": 0.7874015748031497
        },
        {
          "duration": 0.14705874999998514,
          "durationTicks": 24,
          "midi": 55,
          "name": "G3",
          "ticks": 21720,
          "time": 133.08816875000002,
          "velocity": 0.7874015748031497
        },
        {
          "duration": 0.14705874999998514,
          "durationTicks": 24,
          "midi": 50,
          "name": "D3",
          "ticks": 21720,
          "time": 133.08816875000002,
          "velocity": 0.7874015748031497
        },
        {
          "duration": 0.14705875000001356,
          "durationTicks": 24,
          "midi": 55,
          "name": "G3",
          "ticks": 21744,
          "time": 133.2352275,
          "velocity": 0.7874015748031497
        },
        {
          "duration": 0.14705875000001356,
          "durationTicks": 24,
          "midi": 50,
          "name": "D3",
          "ticks": 21744,
          "time": 133.2352275,
          "velocity": 0.7874015748031497
        },
        {
          "duration": 0.14705874999998514,
          "durationTicks": 24,
          "midi": 55,
          "name": "G3",
          "ticks": 21768,
          "time": 133.38228625000002,
          "velocity": 0.7874015748031497
        },
        {
          "duration": 0.14705874999998514,
          "durationTicks": 24,
          "midi": 50,
          "name": "D3",
          "ticks": 21768,
          "time": 133.38228625000002,
          "velocity": 0.7874015748031497
        },
        {
          "duration": 0.14705875000001356,
          "durationTicks": 24,
          "midi": 50,
          "name": "D3",
          "ticks": 21792,
          "time": 133.529345,
          "velocity": 0.7874015748031497
        },
        {
          "duration": 0.14705875000001356,
          "durationTicks": 24,
          "midi": 55,
          "name": "G3",
          "ticks": 21792,
          "time": 133.529345,
          "velocity": 0.7874015748031497
        },
        {
          "duration": 0.07352937499999257,
          "durationTicks": 12,
          "midi": 55,
          "name": "G3",
          "ticks": 21816,
          "time": 133.67640375000002,
          "velocity": 0.7874015748031497
        },
        {
          "duration": 0.07352937499999257,
          "durationTicks": 12,
          "midi": 50,
          "name": "D3",
          "ticks": 21816,
          "time": 133.67640375000002,
          "velocity": 0.7874015748031497
        },
        {
          "duration": 0.07352937499999257,
          "durationTicks": 12,
          "midi": 55,
          "name": "G3",
          "ticks": 21828,
          "time": 133.749933125,
          "velocity": 0.7874015748031497
        },
        {
          "duration": 0.07352937499999257,
          "durationTicks": 12,
          "midi": 50,
          "name": "D3",
          "ticks": 21828,
          "time": 133.749933125,
          "velocity": 0.7874015748031497
        },
        {
          "duration": 0.14705875000001356,
          "durationTicks": 24,
          "midi": 50,
          "name": "D3",
          "ticks": 21840,
          "time": 133.8234625,
          "velocity": 0.7874015748031497
        },
        {
          "duration": 0.14705875000001356,
          "durationTicks": 24,
          "midi": 55,
          "name": "G3",
          "ticks": 21840,
          "time": 133.8234625,
          "velocity": 0.7874015748031497
        },
        {
          "duration": 0.07352937499999257,
          "durationTicks": 12,
          "midi": 50,
          "name": "D3",
          "ticks": 21864,
          "time": 133.97052125000002,
          "velocity": 0.7874015748031497
        },
        {
          "duration": 0.07352937499999257,
          "durationTicks": 12,
          "midi": 55,
          "name": "G3",
          "ticks": 21864,
          "time": 133.97052125000002,
          "velocity": 0.7874015748031497
        },
        {
          "duration": 0.07352937499999257,
          "durationTicks": 12,
          "midi": 50,
          "name": "D3",
          "ticks": 21876,
          "time": 134.044050625,
          "velocity": 0.7874015748031497
        },
        {
          "duration": 0.07352937499999257,
          "durationTicks": 12,
          "midi": 55,
          "name": "G3",
          "ticks": 21876,
          "time": 134.044050625,
          "velocity": 0.7874015748031497
        },
        {
          "duration": 0.14705875000001356,
          "durationTicks": 24,
          "midi": 50,
          "name": "D3",
          "ticks": 21888,
          "time": 134.11758,
          "velocity": 0.7874015748031497
        },
        {
          "duration": 0.14705875000001356,
          "durationTicks": 24,
          "midi": 55,
          "name": "G3",
          "ticks": 21888,
          "time": 134.11758,
          "velocity": 0.7874015748031497
        },
        {
          "duration": 0.14705874999998514,
          "durationTicks": 24,
          "midi": 50,
          "name": "D3",
          "ticks": 21912,
          "time": 134.26463875000002,
          "velocity": 0.7874015748031497
        },
        {
          "duration": 0.14705874999998514,
          "durationTicks": 24,
          "midi": 55,
          "name": "G3",
          "ticks": 21912,
          "time": 134.26463875000002,
          "velocity": 0.7874015748031497
        },
        {
          "duration": 0.14705875000001356,
          "durationTicks": 24,
          "midi": 55,
          "name": "G3",
          "ticks": 21936,
          "time": 134.4116975,
          "velocity": 0.7874015748031497
        },
        {
          "duration": 0.14705875000001356,
          "durationTicks": 24,
          "midi": 50,
          "name": "D3",
          "ticks": 21936,
          "time": 134.4116975,
          "velocity": 0.7874015748031497
        },
        {
          "duration": 0.14705874999998514,
          "durationTicks": 24,
          "midi": 50,
          "name": "D3",
          "ticks": 21960,
          "time": 134.55875625000002,
          "velocity": 0.7874015748031497
        },
        {
          "duration": 0.14705874999998514,
          "durationTicks": 24,
          "midi": 55,
          "name": "G3",
          "ticks": 21960,
          "time": 134.55875625000002,
          "velocity": 0.7874015748031497
        },
        {
          "duration": 0.14705875000001356,
          "durationTicks": 24,
          "midi": 46,
          "name": "A#2",
          "ticks": 21984,
          "time": 134.705815,
          "velocity": 0.7874015748031497
        },
        {
          "duration": 0.14705875000001356,
          "durationTicks": 24,
          "midi": 51,
          "name": "D#3",
          "ticks": 21984,
          "time": 134.705815,
          "velocity": 0.7874015748031497
        },
        {
          "duration": 0.07352937499999257,
          "durationTicks": 12,
          "midi": 51,
          "name": "D#3",
          "ticks": 22008,
          "time": 134.85287375000001,
          "velocity": 0.7874015748031497
        },
        {
          "duration": 0.07352937499999257,
          "durationTicks": 12,
          "midi": 46,
          "name": "A#2",
          "ticks": 22008,
          "time": 134.85287375000001,
          "velocity": 0.7874015748031497
        },
        {
          "duration": 0.07352937500002099,
          "durationTicks": 12,
          "midi": 51,
          "name": "D#3",
          "ticks": 22020,
          "time": 134.926403125,
          "velocity": 0.7874015748031497
        },
        {
          "duration": 0.07352937500002099,
          "durationTicks": 12,
          "midi": 46,
          "name": "A#2",
          "ticks": 22020,
          "time": 134.926403125,
          "velocity": 0.7874015748031497
        },
        {
          "duration": 0.14705874999998514,
          "durationTicks": 24,
          "midi": 51,
          "name": "D#3",
          "ticks": 22032,
          "time": 134.99993250000003,
          "velocity": 0.7874015748031497
        },
        {
          "duration": 0.14705874999998514,
          "durationTicks": 24,
          "midi": 46,
          "name": "A#2",
          "ticks": 22032,
          "time": 134.99993250000003,
          "velocity": 0.7874015748031497
        },
        {
          "duration": 0.07352937499999257,
          "durationTicks": 12,
          "midi": 46,
          "name": "A#2",
          "ticks": 22056,
          "time": 135.14699125,
          "velocity": 0.7874015748031497
        },
        {
          "duration": 0.07352937499999257,
          "durationTicks": 12,
          "midi": 51,
          "name": "D#3",
          "ticks": 22056,
          "time": 135.14699125,
          "velocity": 0.7874015748031497
        },
        {
          "duration": 0.07352937500002099,
          "durationTicks": 12,
          "midi": 46,
          "name": "A#2",
          "ticks": 22068,
          "time": 135.220520625,
          "velocity": 0.7874015748031497
        },
        {
          "duration": 0.07352937500002099,
          "durationTicks": 12,
          "midi": 51,
          "name": "D#3",
          "ticks": 22068,
          "time": 135.220520625,
          "velocity": 0.7874015748031497
        },
        {
          "duration": 0.14705874999998514,
          "durationTicks": 24,
          "midi": 46,
          "name": "A#2",
          "ticks": 22080,
          "time": 135.29405000000003,
          "velocity": 0.7874015748031497
        },
        {
          "duration": 0.14705874999998514,
          "durationTicks": 24,
          "midi": 51,
          "name": "D#3",
          "ticks": 22080,
          "time": 135.29405000000003,
          "velocity": 0.7874015748031497
        },
        {
          "duration": 0.14705875000001356,
          "durationTicks": 24,
          "midi": 46,
          "name": "A#2",
          "ticks": 22104,
          "time": 135.44110875,
          "velocity": 0.7874015748031497
        },
        {
          "duration": 0.14705875000001356,
          "durationTicks": 24,
          "midi": 51,
          "name": "D#3",
          "ticks": 22104,
          "time": 135.44110875,
          "velocity": 0.7874015748031497
        },
        {
          "duration": 0.14705874999998514,
          "durationTicks": 24,
          "midi": 46,
          "name": "A#2",
          "ticks": 22128,
          "time": 135.58816750000003,
          "velocity": 0.7874015748031497
        },
        {
          "duration": 0.14705874999998514,
          "durationTicks": 24,
          "midi": 51,
          "name": "D#3",
          "ticks": 22128,
          "time": 135.58816750000003,
          "velocity": 0.7874015748031497
        },
        {
          "duration": 0.14705875000001356,
          "durationTicks": 24,
          "midi": 51,
          "name": "D#3",
          "ticks": 22152,
          "time": 135.73522625,
          "velocity": 0.7874015748031497
        },
        {
          "duration": 0.14705875000001356,
          "durationTicks": 24,
          "midi": 46,
          "name": "A#2",
          "ticks": 22152,
          "time": 135.73522625,
          "velocity": 0.7874015748031497
        },
        {
          "duration": 0.14705874999998514,
          "durationTicks": 24,
          "midi": 46,
          "name": "A#2",
          "ticks": 22176,
          "time": 135.88228500000002,
          "velocity": 0.7874015748031497
        },
        {
          "duration": 0.14705874999998514,
          "durationTicks": 24,
          "midi": 51,
          "name": "D#3",
          "ticks": 22176,
          "time": 135.88228500000002,
          "velocity": 0.7874015748031497
        },
        {
          "duration": 0.07352937499999257,
          "durationTicks": 12,
          "midi": 46,
          "name": "A#2",
          "ticks": 22200,
          "time": 136.02934375,
          "velocity": 0.7874015748031497
        },
        {
          "duration": 0.07352937499999257,
          "durationTicks": 12,
          "midi": 51,
          "name": "D#3",
          "ticks": 22200,
          "time": 136.02934375,
          "velocity": 0.7874015748031497
        },
        {
          "duration": 0.07352937500002099,
          "durationTicks": 12,
          "midi": 46,
          "name": "A#2",
          "ticks": 22212,
          "time": 136.102873125,
          "velocity": 0.7874015748031497
        },
        {
          "duration": 0.07352937500002099,
          "durationTicks": 12,
          "midi": 51,
          "name": "D#3",
          "ticks": 22212,
          "time": 136.102873125,
          "velocity": 0.7874015748031497
        },
        {
          "duration": 0.14705874999998514,
          "durationTicks": 24,
          "midi": 51,
          "name": "D#3",
          "ticks": 22224,
          "time": 136.17640250000002,
          "velocity": 0.7874015748031497
        },
        {
          "duration": 0.14705874999998514,
          "durationTicks": 24,
          "midi": 46,
          "name": "A#2",
          "ticks": 22224,
          "time": 136.17640250000002,
          "velocity": 0.7874015748031497
        },
        {
          "duration": 0.07352937499999257,
          "durationTicks": 12,
          "midi": 46,
          "name": "A#2",
          "ticks": 22248,
          "time": 136.32346125,
          "velocity": 0.7874015748031497
        },
        {
          "duration": 0.07352937499999257,
          "durationTicks": 12,
          "midi": 51,
          "name": "D#3",
          "ticks": 22248,
          "time": 136.32346125,
          "velocity": 0.7874015748031497
        },
        {
          "duration": 0.07352937500002099,
          "durationTicks": 12,
          "midi": 46,
          "name": "A#2",
          "ticks": 22260,
          "time": 136.396990625,
          "velocity": 0.7874015748031497
        },
        {
          "duration": 0.07352937500002099,
          "durationTicks": 12,
          "midi": 51,
          "name": "D#3",
          "ticks": 22260,
          "time": 136.396990625,
          "velocity": 0.7874015748031497
        },
        {
          "duration": 0.14705874999998514,
          "durationTicks": 24,
          "midi": 46,
          "name": "A#2",
          "ticks": 22272,
          "time": 136.47052000000002,
          "velocity": 0.7874015748031497
        },
        {
          "duration": 0.14705874999998514,
          "durationTicks": 24,
          "midi": 51,
          "name": "D#3",
          "ticks": 22272,
          "time": 136.47052000000002,
          "velocity": 0.7874015748031497
        },
        {
          "duration": 0.14705875000001356,
          "durationTicks": 24,
          "midi": 46,
          "name": "A#2",
          "ticks": 22296,
          "time": 136.61757875,
          "velocity": 0.7874015748031497
        },
        {
          "duration": 0.14705875000001356,
          "durationTicks": 24,
          "midi": 51,
          "name": "D#3",
          "ticks": 22296,
          "time": 136.61757875,
          "velocity": 0.7874015748031497
        },
        {
          "duration": 0.14705874999998514,
          "durationTicks": 24,
          "midi": 46,
          "name": "A#2",
          "ticks": 22320,
          "time": 136.76463750000002,
          "velocity": 0.7874015748031497
        },
        {
          "duration": 0.14705874999998514,
          "durationTicks": 24,
          "midi": 51,
          "name": "D#3",
          "ticks": 22320,
          "time": 136.76463750000002,
          "velocity": 0.7874015748031497
        },
        {
          "duration": 0.14705875000001356,
          "durationTicks": 24,
          "midi": 46,
          "name": "A#2",
          "ticks": 22344,
          "time": 136.91169625,
          "velocity": 0.7874015748031497
        },
        {
          "duration": 0.14705875000001356,
          "durationTicks": 24,
          "midi": 51,
          "name": "D#3",
          "ticks": 22344,
          "time": 136.91169625,
          "velocity": 0.7874015748031497
        },
        {
          "duration": 0.14705874999998514,
          "durationTicks": 24,
          "midi": 48,
          "name": "C3",
          "ticks": 22368,
          "time": 137.05875500000002,
          "velocity": 0.7874015748031497
        },
        {
          "duration": 0.14705874999998514,
          "durationTicks": 24,
          "midi": 53,
          "name": "F3",
          "ticks": 22368,
          "time": 137.05875500000002,
          "velocity": 0.7874015748031497
        },
        {
          "duration": 0.07352937500002099,
          "durationTicks": 12,
          "midi": 53,
          "name": "F3",
          "ticks": 22392,
          "time": 137.20581375,
          "velocity": 0.7874015748031497
        },
        {
          "duration": 0.07352937500002099,
          "durationTicks": 12,
          "midi": 48,
          "name": "C3",
          "ticks": 22392,
          "time": 137.20581375,
          "velocity": 0.7874015748031497
        },
        {
          "duration": 0.07352937499999257,
          "durationTicks": 12,
          "midi": 53,
          "name": "F3",
          "ticks": 22404,
          "time": 137.27934312500003,
          "velocity": 0.7874015748031497
        },
        {
          "duration": 0.07352937499999257,
          "durationTicks": 12,
          "midi": 48,
          "name": "C3",
          "ticks": 22404,
          "time": 137.27934312500003,
          "velocity": 0.7874015748031497
        },
        {
          "duration": 0.14705874999998514,
          "durationTicks": 24,
          "midi": 53,
          "name": "F3",
          "ticks": 22416,
          "time": 137.35287250000002,
          "velocity": 0.7874015748031497
        },
        {
          "duration": 0.14705874999998514,
          "durationTicks": 24,
          "midi": 48,
          "name": "C3",
          "ticks": 22416,
          "time": 137.35287250000002,
          "velocity": 0.7874015748031497
        },
        {
          "duration": 0.07352937500002099,
          "durationTicks": 12,
          "midi": 53,
          "name": "F3",
          "ticks": 22440,
          "time": 137.49993125,
          "velocity": 0.7874015748031497
        },
        {
          "duration": 0.07352937500002099,
          "durationTicks": 12,
          "midi": 48,
          "name": "C3",
          "ticks": 22440,
          "time": 137.49993125,
          "velocity": 0.7874015748031497
        },
        {
          "duration": 0.07352937499999257,
          "durationTicks": 12,
          "midi": 53,
          "name": "F3",
          "ticks": 22452,
          "time": 137.57346062500002,
          "velocity": 0.7874015748031497
        },
        {
          "duration": 0.07352937499999257,
          "durationTicks": 12,
          "midi": 48,
          "name": "C3",
          "ticks": 22452,
          "time": 137.57346062500002,
          "velocity": 0.7874015748031497
        },
        {
          "duration": 0.14705874999998514,
          "durationTicks": 24,
          "midi": 53,
          "name": "F3",
          "ticks": 22464,
          "time": 137.64699000000002,
          "velocity": 0.7874015748031497
        },
        {
          "duration": 0.14705874999998514,
          "durationTicks": 24,
          "midi": 48,
          "name": "C3",
          "ticks": 22464,
          "time": 137.64699000000002,
          "velocity": 0.7874015748031497
        },
        {
          "duration": 0.14705875000001356,
          "durationTicks": 24,
          "midi": 48,
          "name": "C3",
          "ticks": 22488,
          "time": 137.79404875,
          "velocity": 0.7874015748031497
        },
        {
          "duration": 0.14705875000001356,
          "durationTicks": 24,
          "midi": 53,
          "name": "F3",
          "ticks": 22488,
          "time": 137.79404875,
          "velocity": 0.7874015748031497
        },
        {
          "duration": 0.14705875000001356,
          "durationTicks": 24,
          "midi": 53,
          "name": "F3",
          "ticks": 22512,
          "time": 137.94110750000002,
          "velocity": 0.7874015748031497
        },
        {
          "duration": 0.14705875000001356,
          "durationTicks": 24,
          "midi": 48,
          "name": "C3",
          "ticks": 22512,
          "time": 137.94110750000002,
          "velocity": 0.7874015748031497
        },
        {
          "duration": 0.14705874999998514,
          "durationTicks": 24,
          "midi": 48,
          "name": "C3",
          "ticks": 22536,
          "time": 138.08816625000003,
          "velocity": 0.7874015748031497
        },
        {
          "duration": 0.14705874999998514,
          "durationTicks": 24,
          "midi": 53,
          "name": "F3",
          "ticks": 22536,
          "time": 138.08816625000003,
          "velocity": 0.7874015748031497
        },
        {
          "duration": 0.14705875000001356,
          "durationTicks": 24,
          "midi": 48,
          "name": "C3",
          "ticks": 22560,
          "time": 138.235225,
          "velocity": 0.7874015748031497
        },
        {
          "duration": 0.14705875000001356,
          "durationTicks": 24,
          "midi": 53,
          "name": "F3",
          "ticks": 22560,
          "time": 138.235225,
          "velocity": 0.7874015748031497
        },
        {
          "duration": 0.07352937499999257,
          "durationTicks": 12,
          "midi": 53,
          "name": "F3",
          "ticks": 22584,
          "time": 138.38228375000003,
          "velocity": 0.7874015748031497
        },
        {
          "duration": 0.07352937499999257,
          "durationTicks": 12,
          "midi": 48,
          "name": "C3",
          "ticks": 22584,
          "time": 138.38228375000003,
          "velocity": 0.7874015748031497
        },
        {
          "duration": 0.07352937499999257,
          "durationTicks": 12,
          "midi": 53,
          "name": "F3",
          "ticks": 22596,
          "time": 138.45581312500002,
          "velocity": 0.7874015748031497
        },
        {
          "duration": 0.07352937499999257,
          "durationTicks": 12,
          "midi": 48,
          "name": "C3",
          "ticks": 22596,
          "time": 138.45581312500002,
          "velocity": 0.7874015748031497
        },
        {
          "duration": 0.14705875000001356,
          "durationTicks": 24,
          "midi": 53,
          "name": "F3",
          "ticks": 22608,
          "time": 138.5293425,
          "velocity": 0.7874015748031497
        },
        {
          "duration": 0.14705875000001356,
          "durationTicks": 24,
          "midi": 48,
          "name": "C3",
          "ticks": 22608,
          "time": 138.5293425,
          "velocity": 0.7874015748031497
        },
        {
          "duration": 0.07352937499999257,
          "durationTicks": 12,
          "midi": 53,
          "name": "F3",
          "ticks": 22632,
          "time": 138.67640125000003,
          "velocity": 0.7874015748031497
        },
        {
          "duration": 0.07352937499999257,
          "durationTicks": 12,
          "midi": 48,
          "name": "C3",
          "ticks": 22632,
          "time": 138.67640125000003,
          "velocity": 0.7874015748031497
        },
        {
          "duration": 0.07352937499999257,
          "durationTicks": 12,
          "midi": 53,
          "name": "F3",
          "ticks": 22644,
          "time": 138.74993062500002,
          "velocity": 0.7874015748031497
        },
        {
          "duration": 0.07352937499999257,
          "durationTicks": 12,
          "midi": 48,
          "name": "C3",
          "ticks": 22644,
          "time": 138.74993062500002,
          "velocity": 0.7874015748031497
        },
        {
          "duration": 0.14705875000001356,
          "durationTicks": 24,
          "midi": 53,
          "name": "F3",
          "ticks": 22656,
          "time": 138.82346,
          "velocity": 0.7874015748031497
        },
        {
          "duration": 0.14705875000001356,
          "durationTicks": 24,
          "midi": 48,
          "name": "C3",
          "ticks": 22656,
          "time": 138.82346,
          "velocity": 0.7874015748031497
        },
        {
          "duration": 0.14705874999998514,
          "durationTicks": 24,
          "midi": 53,
          "name": "F3",
          "ticks": 22680,
          "time": 138.97051875000002,
          "velocity": 0.7874015748031497
        },
        {
          "duration": 0.14705874999998514,
          "durationTicks": 24,
          "midi": 48,
          "name": "C3",
          "ticks": 22680,
          "time": 138.97051875000002,
          "velocity": 0.7874015748031497
        },
        {
          "duration": 0.14705875000001356,
          "durationTicks": 24,
          "midi": 53,
          "name": "F3",
          "ticks": 22704,
          "time": 139.1175775,
          "velocity": 0.7874015748031497
        },
        {
          "duration": 0.14705875000001356,
          "durationTicks": 24,
          "midi": 48,
          "name": "C3",
          "ticks": 22704,
          "time": 139.1175775,
          "velocity": 0.7874015748031497
        },
        {
          "duration": 0.14705874999998514,
          "durationTicks": 24,
          "midi": 48,
          "name": "C3",
          "ticks": 22728,
          "time": 139.26463625000002,
          "velocity": 0.7874015748031497
        },
        {
          "duration": 0.14705874999998514,
          "durationTicks": 24,
          "midi": 53,
          "name": "F3",
          "ticks": 22728,
          "time": 139.26463625000002,
          "velocity": 0.7874015748031497
        },
        {
          "duration": 0.14705875000001356,
          "durationTicks": 24,
          "midi": 48,
          "name": "C3",
          "ticks": 22752,
          "time": 139.411695,
          "velocity": 0.7874015748031497
        },
        {
          "duration": 0.14705875000001356,
          "durationTicks": 24,
          "midi": 53,
          "name": "F3",
          "ticks": 22752,
          "time": 139.411695,
          "velocity": 0.7874015748031497
        },
        {
          "duration": 0.07352937499999257,
          "durationTicks": 12,
          "midi": 53,
          "name": "F3",
          "ticks": 22776,
          "time": 139.55875375000002,
          "velocity": 0.7874015748031497
        },
        {
          "duration": 0.07352937499999257,
          "durationTicks": 12,
          "midi": 48,
          "name": "C3",
          "ticks": 22776,
          "time": 139.55875375000002,
          "velocity": 0.7874015748031497
        },
        {
          "duration": 0.07352937499999257,
          "durationTicks": 12,
          "midi": 53,
          "name": "F3",
          "ticks": 22788,
          "time": 139.63228312500001,
          "velocity": 0.7874015748031497
        },
        {
          "duration": 0.07352937499999257,
          "durationTicks": 12,
          "midi": 48,
          "name": "C3",
          "ticks": 22788,
          "time": 139.63228312500001,
          "velocity": 0.7874015748031497
        },
        {
          "duration": 0.14705875000001356,
          "durationTicks": 24,
          "midi": 53,
          "name": "F3",
          "ticks": 22800,
          "time": 139.7058125,
          "velocity": 0.7874015748031497
        },
        {
          "duration": 0.14705875000001356,
          "durationTicks": 24,
          "midi": 48,
          "name": "C3",
          "ticks": 22800,
          "time": 139.7058125,
          "velocity": 0.7874015748031497
        },
        {
          "duration": 0.07352937499999257,
          "durationTicks": 12,
          "midi": 48,
          "name": "C3",
          "ticks": 22824,
          "time": 139.85287125000002,
          "velocity": 0.7874015748031497
        },
        {
          "duration": 0.07352937499999257,
          "durationTicks": 12,
          "midi": 53,
          "name": "F3",
          "ticks": 22824,
          "time": 139.85287125000002,
          "velocity": 0.7874015748031497
        },
        {
          "duration": 0.07352937499999257,
          "durationTicks": 12,
          "midi": 48,
          "name": "C3",
          "ticks": 22836,
          "time": 139.926400625,
          "velocity": 0.7874015748031497
        },
        {
          "duration": 0.07352937499999257,
          "durationTicks": 12,
          "midi": 53,
          "name": "F3",
          "ticks": 22836,
          "time": 139.926400625,
          "velocity": 0.7874015748031497
        },
        {
          "duration": 0.14705875000001356,
          "durationTicks": 24,
          "midi": 53,
          "name": "F3",
          "ticks": 22848,
          "time": 139.99993,
          "velocity": 0.7874015748031497
        },
        {
          "duration": 0.14705875000001356,
          "durationTicks": 24,
          "midi": 48,
          "name": "C3",
          "ticks": 22848,
          "time": 139.99993,
          "velocity": 0.7874015748031497
        },
        {
          "duration": 0.14705874999998514,
          "durationTicks": 24,
          "midi": 53,
          "name": "F3",
          "ticks": 22872,
          "time": 140.14698875000002,
          "velocity": 0.7874015748031497
        },
        {
          "duration": 0.14705874999998514,
          "durationTicks": 24,
          "midi": 48,
          "name": "C3",
          "ticks": 22872,
          "time": 140.14698875000002,
          "velocity": 0.7874015748031497
        },
        {
          "duration": 0.14705875000001356,
          "durationTicks": 24,
          "midi": 53,
          "name": "F3",
          "ticks": 22896,
          "time": 140.2940475,
          "velocity": 0.7874015748031497
        },
        {
          "duration": 0.14705875000001356,
          "durationTicks": 24,
          "midi": 48,
          "name": "C3",
          "ticks": 22896,
          "time": 140.2940475,
          "velocity": 0.7874015748031497
        },
        {
          "duration": 0.14705874999998514,
          "durationTicks": 24,
          "midi": 53,
          "name": "F3",
          "ticks": 22920,
          "time": 140.44110625000002,
          "velocity": 0.7874015748031497
        },
        {
          "duration": 0.14705874999998514,
          "durationTicks": 24,
          "midi": 48,
          "name": "C3",
          "ticks": 22920,
          "time": 140.44110625000002,
          "velocity": 0.7874015748031497
        },
        {
          "duration": 0.14705875000001356,
          "durationTicks": 24,
          "midi": 48,
          "name": "C3",
          "ticks": 22944,
          "time": 140.588165,
          "velocity": 0.7874015748031497
        },
        {
          "duration": 0.14705875000001356,
          "durationTicks": 24,
          "midi": 53,
          "name": "F3",
          "ticks": 22944,
          "time": 140.588165,
          "velocity": 0.7874015748031497
        },
        {
          "duration": 0.07352937499999257,
          "durationTicks": 12,
          "midi": 48,
          "name": "C3",
          "ticks": 22968,
          "time": 140.73522375000002,
          "velocity": 0.7874015748031497
        },
        {
          "duration": 0.07352937499999257,
          "durationTicks": 12,
          "midi": 53,
          "name": "F3",
          "ticks": 22968,
          "time": 140.73522375000002,
          "velocity": 0.7874015748031497
        },
        {
          "duration": 0.07352937499999257,
          "durationTicks": 12,
          "midi": 48,
          "name": "C3",
          "ticks": 22980,
          "time": 140.808753125,
          "velocity": 0.7874015748031497
        },
        {
          "duration": 0.07352937499999257,
          "durationTicks": 12,
          "midi": 53,
          "name": "F3",
          "ticks": 22980,
          "time": 140.808753125,
          "velocity": 0.7874015748031497
        },
        {
          "duration": 0.14705875000001356,
          "durationTicks": 24,
          "midi": 48,
          "name": "C3",
          "ticks": 22992,
          "time": 140.8822825,
          "velocity": 0.7874015748031497
        },
        {
          "duration": 0.14705875000001356,
          "durationTicks": 24,
          "midi": 53,
          "name": "F3",
          "ticks": 22992,
          "time": 140.8822825,
          "velocity": 0.7874015748031497
        },
        {
          "duration": 0.07352937499999257,
          "durationTicks": 12,
          "midi": 53,
          "name": "F3",
          "ticks": 23016,
          "time": 141.02934125000002,
          "velocity": 0.7874015748031497
        },
        {
          "duration": 0.07352937499999257,
          "durationTicks": 12,
          "midi": 48,
          "name": "C3",
          "ticks": 23016,
          "time": 141.02934125000002,
          "velocity": 0.7874015748031497
        },
        {
          "duration": 0.07352937499999257,
          "durationTicks": 12,
          "midi": 53,
          "name": "F3",
          "ticks": 23028,
          "time": 141.102870625,
          "velocity": 0.7874015748031497
        },
        {
          "duration": 0.07352937499999257,
          "durationTicks": 12,
          "midi": 48,
          "name": "C3",
          "ticks": 23028,
          "time": 141.102870625,
          "velocity": 0.7874015748031497
        },
        {
          "duration": 0.14705875000001356,
          "durationTicks": 24,
          "midi": 48,
          "name": "C3",
          "ticks": 23040,
          "time": 141.1764,
          "velocity": 0.7874015748031497
        },
        {
          "duration": 0.14705875000001356,
          "durationTicks": 24,
          "midi": 53,
          "name": "F3",
          "ticks": 23040,
          "time": 141.1764,
          "velocity": 0.7874015748031497
        },
        {
          "duration": 0.14705875000001356,
          "durationTicks": 24,
          "midi": 53,
          "name": "F3",
          "ticks": 23064,
          "time": 141.32345875000001,
          "velocity": 0.7874015748031497
        },
        {
          "duration": 0.14705875000001356,
          "durationTicks": 24,
          "midi": 48,
          "name": "C3",
          "ticks": 23064,
          "time": 141.32345875000001,
          "velocity": 0.7874015748031497
        },
        {
          "duration": 0.14705874999998514,
          "durationTicks": 24,
          "midi": 53,
          "name": "F3",
          "ticks": 23088,
          "time": 141.47051750000003,
          "velocity": 0.7874015748031497
        },
        {
          "duration": 0.14705874999998514,
          "durationTicks": 24,
          "midi": 48,
          "name": "C3",
          "ticks": 23088,
          "time": 141.47051750000003,
          "velocity": 0.7874015748031497
        },
        {
          "duration": 0.14705875000001356,
          "durationTicks": 24,
          "midi": 53,
          "name": "F3",
          "ticks": 23112,
          "time": 141.61757625,
          "velocity": 0.7874015748031497
        },
        {
          "duration": 0.14705875000001356,
          "durationTicks": 24,
          "midi": 48,
          "name": "C3",
          "ticks": 23112,
          "time": 141.61757625,
          "velocity": 0.7874015748031497
        },
        {
          "duration": 0.14705874999998514,
          "durationTicks": 24,
          "midi": 50,
          "name": "D3",
          "ticks": 23136,
          "time": 141.76463500000003,
          "velocity": 0.7874015748031497
        },
        {
          "duration": 0.14705874999998514,
          "durationTicks": 24,
          "midi": 55,
          "name": "G3",
          "ticks": 23136,
          "time": 141.76463500000003,
          "velocity": 0.7874015748031497
        },
        {
          "duration": 0.07352937499999257,
          "durationTicks": 12,
          "midi": 50,
          "name": "D3",
          "ticks": 23160,
          "time": 141.91169375,
          "velocity": 0.7874015748031497
        },
        {
          "duration": 0.07352937499999257,
          "durationTicks": 12,
          "midi": 55,
          "name": "G3",
          "ticks": 23160,
          "time": 141.91169375,
          "velocity": 0.7874015748031497
        },
        {
          "duration": 0.07352937500002099,
          "durationTicks": 12,
          "midi": 50,
          "name": "D3",
          "ticks": 23172,
          "time": 141.985223125,
          "velocity": 0.7874015748031497
        },
        {
          "duration": 0.07352937500002099,
          "durationTicks": 12,
          "midi": 55,
          "name": "G3",
          "ticks": 23172,
          "time": 141.985223125,
          "velocity": 0.7874015748031497
        },
        {
          "duration": 0.14705874999998514,
          "durationTicks": 24,
          "midi": 50,
          "name": "D3",
          "ticks": 23184,
          "time": 142.05875250000003,
          "velocity": 0.7874015748031497
        },
        {
          "duration": 0.14705874999998514,
          "durationTicks": 24,
          "midi": 55,
          "name": "G3",
          "ticks": 23184,
          "time": 142.05875250000003,
          "velocity": 0.7874015748031497
        },
        {
          "duration": 0.07352937499999257,
          "durationTicks": 12,
          "midi": 50,
          "name": "D3",
          "ticks": 23208,
          "time": 142.20581125,
          "velocity": 0.7874015748031497
        },
        {
          "duration": 0.07352937499999257,
          "durationTicks": 12,
          "midi": 55,
          "name": "G3",
          "ticks": 23208,
          "time": 142.20581125,
          "velocity": 0.7874015748031497
        },
        {
          "duration": 0.07352937500002099,
          "durationTicks": 12,
          "midi": 50,
          "name": "D3",
          "ticks": 23220,
          "time": 142.279340625,
          "velocity": 0.7874015748031497
        },
        {
          "duration": 0.07352937500002099,
          "durationTicks": 12,
          "midi": 55,
          "name": "G3",
          "ticks": 23220,
          "time": 142.279340625,
          "velocity": 0.7874015748031497
        },
        {
          "duration": 0.14705874999998514,
          "durationTicks": 24,
          "midi": 50,
          "name": "D3",
          "ticks": 23232,
          "time": 142.35287000000002,
          "velocity": 0.7874015748031497
        },
        {
          "duration": 0.14705874999998514,
          "durationTicks": 24,
          "midi": 55,
          "name": "G3",
          "ticks": 23232,
          "time": 142.35287000000002,
          "velocity": 0.7874015748031497
        },
        {
          "duration": 0.14705875000001356,
          "durationTicks": 24,
          "midi": 55,
          "name": "G3",
          "ticks": 23256,
          "time": 142.49992875,
          "velocity": 0.7874015748031497
        },
        {
          "duration": 0.14705875000001356,
          "durationTicks": 24,
          "midi": 50,
          "name": "D3",
          "ticks": 23256,
          "time": 142.49992875,
          "velocity": 0.7874015748031497
        },
        {
          "duration": 0.14705874999998514,
          "durationTicks": 24,
          "midi": 55,
          "name": "G3",
          "ticks": 23280,
          "time": 142.64698750000002,
          "velocity": 0.7874015748031497
        },
        {
          "duration": 0.14705874999998514,
          "durationTicks": 24,
          "midi": 50,
          "name": "D3",
          "ticks": 23280,
          "time": 142.64698750000002,
          "velocity": 0.7874015748031497
        },
        {
          "duration": 0.14705875000001356,
          "durationTicks": 24,
          "midi": 55,
          "name": "G3",
          "ticks": 23304,
          "time": 142.79404625,
          "velocity": 0.7874015748031497
        },
        {
          "duration": 0.14705875000001356,
          "durationTicks": 24,
          "midi": 50,
          "name": "D3",
          "ticks": 23304,
          "time": 142.79404625,
          "velocity": 0.7874015748031497
        },
        {
          "duration": 0.14705874999998514,
          "durationTicks": 24,
          "midi": 55,
          "name": "G3",
          "ticks": 23328,
          "time": 142.94110500000002,
          "velocity": 0.7874015748031497
        },
        {
          "duration": 0.14705874999998514,
          "durationTicks": 24,
          "midi": 50,
          "name": "D3",
          "ticks": 23328,
          "time": 142.94110500000002,
          "velocity": 0.7874015748031497
        },
        {
          "duration": 0.07352937500002099,
          "durationTicks": 12,
          "midi": 50,
          "name": "D3",
          "ticks": 23352,
          "time": 143.08816375,
          "velocity": 0.7874015748031497
        },
        {
          "duration": 0.07352937500002099,
          "durationTicks": 12,
          "midi": 55,
          "name": "G3",
          "ticks": 23352,
          "time": 143.08816375,
          "velocity": 0.7874015748031497
        },
        {
          "duration": 0.07352937499999257,
          "durationTicks": 12,
          "midi": 50,
          "name": "D3",
          "ticks": 23364,
          "time": 143.16169312500003,
          "velocity": 0.7874015748031497
        },
        {
          "duration": 0.07352937499999257,
          "durationTicks": 12,
          "midi": 55,
          "name": "G3",
          "ticks": 23364,
          "time": 143.16169312500003,
          "velocity": 0.7874015748031497
        },
        {
          "duration": 0.14705874999998514,
          "durationTicks": 24,
          "midi": 55,
          "name": "G3",
          "ticks": 23376,
          "time": 143.23522250000002,
          "velocity": 0.7874015748031497
        },
        {
          "duration": 0.14705874999998514,
          "durationTicks": 24,
          "midi": 50,
          "name": "D3",
          "ticks": 23376,
          "time": 143.23522250000002,
          "velocity": 0.7874015748031497
        },
        {
          "duration": 0.07352937500002099,
          "durationTicks": 12,
          "midi": 55,
          "name": "G3",
          "ticks": 23400,
          "time": 143.38228125,
          "velocity": 0.7874015748031497
        },
        {
          "duration": 0.07352937500002099,
          "durationTicks": 12,
          "midi": 50,
          "name": "D3",
          "ticks": 23400,
          "time": 143.38228125,
          "velocity": 0.7874015748031497
        },
        {
          "duration": 0.07352937499999257,
          "durationTicks": 12,
          "midi": 55,
          "name": "G3",
          "ticks": 23412,
          "time": 143.45581062500003,
          "velocity": 0.7874015748031497
        },
        {
          "duration": 0.07352937499999257,
          "durationTicks": 12,
          "midi": 50,
          "name": "D3",
          "ticks": 23412,
          "time": 143.45581062500003,
          "velocity": 0.7874015748031497
        },
        {
          "duration": 0.14705874999998514,
          "durationTicks": 24,
          "midi": 55,
          "name": "G3",
          "ticks": 23424,
          "time": 143.52934000000002,
          "velocity": 0.7874015748031497
        },
        {
          "duration": 0.14705874999998514,
          "durationTicks": 24,
          "midi": 50,
          "name": "D3",
          "ticks": 23424,
          "time": 143.52934000000002,
          "velocity": 0.7874015748031497
        },
        {
          "duration": 0.14705875000001356,
          "durationTicks": 24,
          "midi": 55,
          "name": "G3",
          "ticks": 23448,
          "time": 143.67639875,
          "velocity": 0.7874015748031497
        },
        {
          "duration": 0.14705875000001356,
          "durationTicks": 24,
          "midi": 50,
          "name": "D3",
          "ticks": 23448,
          "time": 143.67639875,
          "velocity": 0.7874015748031497
        },
        {
          "duration": 0.14705874999998514,
          "durationTicks": 24,
          "midi": 50,
          "name": "D3",
          "ticks": 23472,
          "time": 143.82345750000002,
          "velocity": 0.7874015748031497
        },
        {
          "duration": 0.14705874999998514,
          "durationTicks": 24,
          "midi": 55,
          "name": "G3",
          "ticks": 23472,
          "time": 143.82345750000002,
          "velocity": 0.7874015748031497
        },
        {
          "duration": 0.14705875000001356,
          "durationTicks": 24,
          "midi": 55,
          "name": "G3",
          "ticks": 23496,
          "time": 143.97051625,
          "velocity": 0.7874015748031497
        },
        {
          "duration": 0.14705875000001356,
          "durationTicks": 24,
          "midi": 50,
          "name": "D3",
          "ticks": 23496,
          "time": 143.97051625,
          "velocity": 0.7874015748031497
        },
        {
          "duration": 0.14705874999998514,
          "durationTicks": 24,
          "midi": 51,
          "name": "D#3",
          "ticks": 23520,
          "time": 144.11757500000002,
          "velocity": 0.7874015748031497
        },
        {
          "duration": 0.14705874999998514,
          "durationTicks": 24,
          "midi": 46,
          "name": "A#2",
          "ticks": 23520,
          "time": 144.11757500000002,
          "velocity": 0.7874015748031497
        },
        {
          "duration": 0.07352937500002099,
          "durationTicks": 12,
          "midi": 46,
          "name": "A#2",
          "ticks": 23544,
          "time": 144.26463375,
          "velocity": 0.7874015748031497
        },
        {
          "duration": 0.07352937500002099,
          "durationTicks": 12,
          "midi": 51,
          "name": "D#3",
          "ticks": 23544,
          "time": 144.26463375,
          "velocity": 0.7874015748031497
        },
        {
          "duration": 0.07352937499999257,
          "durationTicks": 12,
          "midi": 46,
          "name": "A#2",
          "ticks": 23556,
          "time": 144.33816312500002,
          "velocity": 0.7874015748031497
        },
        {
          "duration": 0.07352937499999257,
          "durationTicks": 12,
          "midi": 51,
          "name": "D#3",
          "ticks": 23556,
          "time": 144.33816312500002,
          "velocity": 0.7874015748031497
        },
        {
          "duration": 0.14705875000001356,
          "durationTicks": 24,
          "midi": 46,
          "name": "A#2",
          "ticks": 23568,
          "time": 144.41169250000002,
          "velocity": 0.7874015748031497
        },
        {
          "duration": 0.14705875000001356,
          "durationTicks": 24,
          "midi": 51,
          "name": "D#3",
          "ticks": 23568,
          "time": 144.41169250000002,
          "velocity": 0.7874015748031497
        },
        {
          "duration": 0.07352937499999257,
          "durationTicks": 12,
          "midi": 51,
          "name": "D#3",
          "ticks": 23592,
          "time": 144.55875125000003,
          "velocity": 0.7874015748031497
        },
        {
          "duration": 0.07352937499999257,
          "durationTicks": 12,
          "midi": 46,
          "name": "A#2",
          "ticks": 23592,
          "time": 144.55875125000003,
          "velocity": 0.7874015748031497
        },
        {
          "duration": 0.07352937499999257,
          "durationTicks": 12,
          "midi": 51,
          "name": "D#3",
          "ticks": 23604,
          "time": 144.63228062500002,
          "velocity": 0.7874015748031497
        },
        {
          "duration": 0.07352937499999257,
          "durationTicks": 12,
          "midi": 46,
          "name": "A#2",
          "ticks": 23604,
          "time": 144.63228062500002,
          "velocity": 0.7874015748031497
        },
        {
          "duration": 0.14705875000001356,
          "durationTicks": 24,
          "midi": 51,
          "name": "D#3",
          "ticks": 23616,
          "time": 144.70581,
          "velocity": 0.7874015748031497
        },
        {
          "duration": 0.14705875000001356,
          "durationTicks": 24,
          "midi": 46,
          "name": "A#2",
          "ticks": 23616,
          "time": 144.70581,
          "velocity": 0.7874015748031497
        },
        {
          "duration": 0.14705874999998514,
          "durationTicks": 24,
          "midi": 51,
          "name": "D#3",
          "ticks": 23640,
          "time": 144.85286875000003,
          "velocity": 0.7874015748031497
        },
        {
          "duration": 0.14705874999998514,
          "durationTicks": 24,
          "midi": 46,
          "name": "A#2",
          "ticks": 23640,
          "time": 144.85286875000003,
          "velocity": 0.7874015748031497
        },
        {
          "duration": 0.14705875000001356,
          "durationTicks": 24,
          "midi": 51,
          "name": "D#3",
          "ticks": 23664,
          "time": 144.9999275,
          "velocity": 0.7874015748031497
        },
        {
          "duration": 0.14705875000001356,
          "durationTicks": 24,
          "midi": 46,
          "name": "A#2",
          "ticks": 23664,
          "time": 144.9999275,
          "velocity": 0.7874015748031497
        },
        {
          "duration": 0.14705874999998514,
          "durationTicks": 24,
          "midi": 46,
          "name": "A#2",
          "ticks": 23688,
          "time": 145.14698625000003,
          "velocity": 0.7874015748031497
        },
        {
          "duration": 0.14705874999998514,
          "durationTicks": 24,
          "midi": 51,
          "name": "D#3",
          "ticks": 23688,
          "time": 145.14698625000003,
          "velocity": 0.7874015748031497
        },
        {
          "duration": 0.14705875000001356,
          "durationTicks": 24,
          "midi": 46,
          "name": "A#2",
          "ticks": 23712,
          "time": 145.294045,
          "velocity": 0.7874015748031497
        },
        {
          "duration": 0.14705875000001356,
          "durationTicks": 24,
          "midi": 51,
          "name": "D#3",
          "ticks": 23712,
          "time": 145.294045,
          "velocity": 0.7874015748031497
        },
        {
          "duration": 0.07352937499999257,
          "durationTicks": 12,
          "midi": 46,
          "name": "A#2",
          "ticks": 23736,
          "time": 145.44110375000002,
          "velocity": 0.7874015748031497
        },
        {
          "duration": 0.07352937499999257,
          "durationTicks": 12,
          "midi": 51,
          "name": "D#3",
          "ticks": 23736,
          "time": 145.44110375000002,
          "velocity": 0.7874015748031497
        },
        {
          "duration": 0.07352937499999257,
          "durationTicks": 12,
          "midi": 46,
          "name": "A#2",
          "ticks": 23748,
          "time": 145.51463312500002,
          "velocity": 0.7874015748031497
        },
        {
          "duration": 0.07352937499999257,
          "durationTicks": 12,
          "midi": 51,
          "name": "D#3",
          "ticks": 23748,
          "time": 145.51463312500002,
          "velocity": 0.7874015748031497
        },
        {
          "duration": 0.14705875000001356,
          "durationTicks": 24,
          "midi": 51,
          "name": "D#3",
          "ticks": 23760,
          "time": 145.5881625,
          "velocity": 0.7874015748031497
        },
        {
          "duration": 0.14705875000001356,
          "durationTicks": 24,
          "midi": 46,
          "name": "A#2",
          "ticks": 23760,
          "time": 145.5881625,
          "velocity": 0.7874015748031497
        },
        {
          "duration": 0.07352937499999257,
          "durationTicks": 12,
          "midi": 46,
          "name": "A#2",
          "ticks": 23784,
          "time": 145.73522125000002,
          "velocity": 0.7874015748031497
        },
        {
          "duration": 0.07352937499999257,
          "durationTicks": 12,
          "midi": 51,
          "name": "D#3",
          "ticks": 23784,
          "time": 145.73522125000002,
          "velocity": 0.7874015748031497
        },
        {
          "duration": 0.07352937499999257,
          "durationTicks": 12,
          "midi": 46,
          "name": "A#2",
          "ticks": 23796,
          "time": 145.80875062500002,
          "velocity": 0.7874015748031497
        },
        {
          "duration": 0.07352937499999257,
          "durationTicks": 12,
          "midi": 51,
          "name": "D#3",
          "ticks": 23796,
          "time": 145.80875062500002,
          "velocity": 0.7874015748031497
        },
        {
          "duration": 0.14705875000001356,
          "durationTicks": 24,
          "midi": 46,
          "name": "A#2",
          "ticks": 23808,
          "time": 145.88228,
          "velocity": 0.7874015748031497
        },
        {
          "duration": 0.14705875000001356,
          "durationTicks": 24,
          "midi": 51,
          "name": "D#3",
          "ticks": 23808,
          "time": 145.88228,
          "velocity": 0.7874015748031497
        },
        {
          "duration": 0.14705874999998514,
          "durationTicks": 24,
          "midi": 46,
          "name": "A#2",
          "ticks": 23832,
          "time": 146.02933875000002,
          "velocity": 0.7874015748031497
        },
        {
          "duration": 0.14705874999998514,
          "durationTicks": 24,
          "midi": 51,
          "name": "D#3",
          "ticks": 23832,
          "time": 146.02933875000002,
          "velocity": 0.7874015748031497
        },
        {
          "duration": 0.14705875000001356,
          "durationTicks": 24,
          "midi": 46,
          "name": "A#2",
          "ticks": 23856,
          "time": 146.1763975,
          "velocity": 0.7874015748031497
        },
        {
          "duration": 0.14705875000001356,
          "durationTicks": 24,
          "midi": 51,
          "name": "D#3",
          "ticks": 23856,
          "time": 146.1763975,
          "velocity": 0.7874015748031497
        },
        {
          "duration": 0.14705874999998514,
          "durationTicks": 24,
          "midi": 46,
          "name": "A#2",
          "ticks": 23880,
          "time": 146.32345625000002,
          "velocity": 0.7874015748031497
        },
        {
          "duration": 0.14705874999998514,
          "durationTicks": 24,
          "midi": 51,
          "name": "D#3",
          "ticks": 23880,
          "time": 146.32345625000002,
          "velocity": 0.7874015748031497
        },
        {
          "duration": 0.14705875000001356,
          "durationTicks": 24,
          "midi": 48,
          "name": "C3",
          "ticks": 23904,
          "time": 146.470515,
          "velocity": 0.7874015748031497
        },
        {
          "duration": 0.14705875000001356,
          "durationTicks": 24,
          "midi": 53,
          "name": "F3",
          "ticks": 23904,
          "time": 146.470515,
          "velocity": 0.7874015748031497
        },
        {
          "duration": 0.07352937499999257,
          "durationTicks": 12,
          "midi": 53,
          "name": "F3",
          "ticks": 23928,
          "time": 146.61757375000002,
          "velocity": 0.7874015748031497
        },
        {
          "duration": 0.07352937499999257,
          "durationTicks": 12,
          "midi": 48,
          "name": "C3",
          "ticks": 23928,
          "time": 146.61757375000002,
          "velocity": 0.7874015748031497
        },
        {
          "duration": 0.07352937499999257,
          "durationTicks": 12,
          "midi": 53,
          "name": "F3",
          "ticks": 23940,
          "time": 146.691103125,
          "velocity": 0.7874015748031497
        },
        {
          "duration": 0.07352937499999257,
          "durationTicks": 12,
          "midi": 48,
          "name": "C3",
          "ticks": 23940,
          "time": 146.691103125,
          "velocity": 0.7874015748031497
        },
        {
          "duration": 0.14705875000001356,
          "durationTicks": 24,
          "midi": 53,
          "name": "F3",
          "ticks": 23952,
          "time": 146.7646325,
          "velocity": 0.7874015748031497
        },
        {
          "duration": 0.14705875000001356,
          "durationTicks": 24,
          "midi": 48,
          "name": "C3",
          "ticks": 23952,
          "time": 146.7646325,
          "velocity": 0.7874015748031497
        },
        {
          "duration": 0.07352937499999257,
          "durationTicks": 12,
          "midi": 53,
          "name": "F3",
          "ticks": 23976,
          "time": 146.91169125000002,
          "velocity": 0.7874015748031497
        },
        {
          "duration": 0.07352937499999257,
          "durationTicks": 12,
          "midi": 48,
          "name": "C3",
          "ticks": 23976,
          "time": 146.91169125000002,
          "velocity": 0.7874015748031497
        },
        {
          "duration": 0.07352937499999257,
          "durationTicks": 12,
          "midi": 53,
          "name": "F3",
          "ticks": 23988,
          "time": 146.985220625,
          "velocity": 0.7874015748031497
        },
        {
          "duration": 0.07352937499999257,
          "durationTicks": 12,
          "midi": 48,
          "name": "C3",
          "ticks": 23988,
          "time": 146.985220625,
          "velocity": 0.7874015748031497
        },
        {
          "duration": 0.14705875000001356,
          "durationTicks": 24,
          "midi": 53,
          "name": "F3",
          "ticks": 24000,
          "time": 147.05875,
          "velocity": 0.7874015748031497
        },
        {
          "duration": 0.14705875000001356,
          "durationTicks": 24,
          "midi": 48,
          "name": "C3",
          "ticks": 24000,
          "time": 147.05875,
          "velocity": 0.7874015748031497
        },
        {
          "duration": 0.14705874999998514,
          "durationTicks": 24,
          "midi": 48,
          "name": "C3",
          "ticks": 24024,
          "time": 147.20580875000002,
          "velocity": 0.7874015748031497
        },
        {
          "duration": 0.14705874999998514,
          "durationTicks": 24,
          "midi": 53,
          "name": "F3",
          "ticks": 24024,
          "time": 147.20580875000002,
          "velocity": 0.7874015748031497
        },
        {
          "duration": 0.14705875000001356,
          "durationTicks": 24,
          "midi": 48,
          "name": "C3",
          "ticks": 24048,
          "time": 147.3528675,
          "velocity": 0.7874015748031497
        },
        {
          "duration": 0.14705875000001356,
          "durationTicks": 24,
          "midi": 53,
          "name": "F3",
          "ticks": 24048,
          "time": 147.3528675,
          "velocity": 0.7874015748031497
        },
        {
          "duration": 0.14705875000001356,
          "durationTicks": 24,
          "midi": 53,
          "name": "F3",
          "ticks": 24072,
          "time": 147.49992625000002,
          "velocity": 0.7874015748031497
        },
        {
          "duration": 0.14705875000001356,
          "durationTicks": 24,
          "midi": 48,
          "name": "C3",
          "ticks": 24072,
          "time": 147.49992625000002,
          "velocity": 0.7874015748031497
        },
        {
          "duration": 0.14705874999998514,
          "durationTicks": 24,
          "midi": 53,
          "name": "F3",
          "ticks": 24096,
          "time": 147.64698500000003,
          "velocity": 0.7874015748031497
        },
        {
          "duration": 0.14705874999998514,
          "durationTicks": 24,
          "midi": 48,
          "name": "C3",
          "ticks": 24096,
          "time": 147.64698500000003,
          "velocity": 0.7874015748031497
        },
        {
          "duration": 0.07352937499999257,
          "durationTicks": 12,
          "midi": 48,
          "name": "C3",
          "ticks": 24120,
          "time": 147.79404375000001,
          "velocity": 0.7874015748031497
        },
        {
          "duration": 0.07352937499999257,
          "durationTicks": 12,
          "midi": 53,
          "name": "F3",
          "ticks": 24120,
          "time": 147.79404375000001,
          "velocity": 0.7874015748031497
        },
        {
          "duration": 0.07352937500002099,
          "durationTicks": 12,
          "midi": 48,
          "name": "C3",
          "ticks": 24132,
          "time": 147.867573125,
          "velocity": 0.7874015748031497
        },
        {
          "duration": 0.07352937500002099,
          "durationTicks": 12,
          "midi": 53,
          "name": "F3",
          "ticks": 24132,
          "time": 147.867573125,
          "velocity": 0.7874015748031497
        },
        {
          "duration": 0.14705874999998514,
          "durationTicks": 24,
          "midi": 48,
          "name": "C3",
          "ticks": 24144,
          "time": 147.94110250000003,
          "velocity": 0.7874015748031497
        },
        {
          "duration": 0.14705874999998514,
          "durationTicks": 24,
          "midi": 53,
          "name": "F3",
          "ticks": 24144,
          "time": 147.94110250000003,
          "velocity": 0.7874015748031497
        },
        {
          "duration": 0.07352937499999257,
          "durationTicks": 12,
          "midi": 48,
          "name": "C3",
          "ticks": 24168,
          "time": 148.08816125,
          "velocity": 0.7874015748031497
        },
        {
          "duration": 0.07352937499999257,
          "durationTicks": 12,
          "midi": 53,
          "name": "F3",
          "ticks": 24168,
          "time": 148.08816125,
          "velocity": 0.7874015748031497
        },
        {
          "duration": 0.07352937500002099,
          "durationTicks": 12,
          "midi": 48,
          "name": "C3",
          "ticks": 24180,
          "time": 148.161690625,
          "velocity": 0.7874015748031497
        },
        {
          "duration": 0.07352937500002099,
          "durationTicks": 12,
          "midi": 53,
          "name": "F3",
          "ticks": 24180,
          "time": 148.161690625,
          "velocity": 0.7874015748031497
        },
        {
          "duration": 0.14705874999998514,
          "durationTicks": 24,
          "midi": 53,
          "name": "F3",
          "ticks": 24192,
          "time": 148.23522000000003,
          "velocity": 0.7874015748031497
        },
        {
          "duration": 0.14705874999998514,
          "durationTicks": 24,
          "midi": 48,
          "name": "C3",
          "ticks": 24192,
          "time": 148.23522000000003,
          "velocity": 0.7874015748031497
        },
        {
          "duration": 0.14705875000001356,
          "durationTicks": 24,
          "midi": 53,
          "name": "F3",
          "ticks": 24216,
          "time": 148.38227875,
          "velocity": 0.7874015748031497
        },
        {
          "duration": 0.14705875000001356,
          "durationTicks": 24,
          "midi": 48,
          "name": "C3",
          "ticks": 24216,
          "time": 148.38227875,
          "velocity": 0.7874015748031497
        },
        {
          "duration": 0.14705874999998514,
          "durationTicks": 24,
          "midi": 53,
          "name": "F3",
          "ticks": 24240,
          "time": 148.52933750000003,
          "velocity": 0.7874015748031497
        },
        {
          "duration": 0.14705874999998514,
          "durationTicks": 24,
          "midi": 48,
          "name": "C3",
          "ticks": 24240,
          "time": 148.52933750000003,
          "velocity": 0.7874015748031497
        },
        {
          "duration": 0.14705875000001356,
          "durationTicks": 24,
          "midi": 53,
          "name": "F3",
          "ticks": 24264,
          "time": 148.67639625,
          "velocity": 0.7874015748031497
        },
        {
          "duration": 0.14705875000001356,
          "durationTicks": 24,
          "midi": 48,
          "name": "C3",
          "ticks": 24264,
          "time": 148.67639625,
          "velocity": 0.7874015748031497
        },
        {
          "duration": 0.14705874999998514,
          "durationTicks": 24,
          "midi": 48,
          "name": "C3",
          "ticks": 24288,
          "time": 148.82345500000002,
          "velocity": 0.7874015748031497
        },
        {
          "duration": 0.14705874999998514,
          "durationTicks": 24,
          "midi": 53,
          "name": "F3",
          "ticks": 24288,
          "time": 148.82345500000002,
          "velocity": 0.7874015748031497
        },
        {
          "duration": 0.07352937500002099,
          "durationTicks": 12,
          "midi": 48,
          "name": "C3",
          "ticks": 24312,
          "time": 148.97051375,
          "velocity": 0.7874015748031497
        },
        {
          "duration": 0.07352937500002099,
          "durationTicks": 12,
          "midi": 53,
          "name": "F3",
          "ticks": 24312,
          "time": 148.97051375,
          "velocity": 0.7874015748031497
        },
        {
          "duration": 0.07352937499999257,
          "durationTicks": 12,
          "midi": 48,
          "name": "C3",
          "ticks": 24324,
          "time": 149.04404312500003,
          "velocity": 0.7874015748031497
        },
        {
          "duration": 0.07352937499999257,
          "durationTicks": 12,
          "midi": 53,
          "name": "F3",
          "ticks": 24324,
          "time": 149.04404312500003,
          "velocity": 0.7874015748031497
        },
        {
          "duration": 0.14705874999998514,
          "durationTicks": 24,
          "midi": 53,
          "name": "F3",
          "ticks": 24336,
          "time": 149.11757250000002,
          "velocity": 0.7874015748031497
        },
        {
          "duration": 0.14705874999998514,
          "durationTicks": 24,
          "midi": 48,
          "name": "C3",
          "ticks": 24336,
          "time": 149.11757250000002,
          "velocity": 0.7874015748031497
        },
        {
          "duration": 0.07352937500002099,
          "durationTicks": 12,
          "midi": 48,
          "name": "C3",
          "ticks": 24360,
          "time": 149.26463125,
          "velocity": 0.7874015748031497
        },
        {
          "duration": 0.07352937500002099,
          "durationTicks": 12,
          "midi": 53,
          "name": "F3",
          "ticks": 24360,
          "time": 149.26463125,
          "velocity": 0.7874015748031497
        },
        {
          "duration": 0.07352937499999257,
          "durationTicks": 12,
          "midi": 48,
          "name": "C3",
          "ticks": 24372,
          "time": 149.33816062500003,
          "velocity": 0.7874015748031497
        },
        {
          "duration": 0.07352937499999257,
          "durationTicks": 12,
          "midi": 53,
          "name": "F3",
          "ticks": 24372,
          "time": 149.33816062500003,
          "velocity": 0.7874015748031497
        },
        {
          "duration": 0.14705874999998514,
          "durationTicks": 24,
          "midi": 53,
          "name": "F3",
          "ticks": 24384,
          "time": 149.41169000000002,
          "velocity": 0.7874015748031497
        },
        {
          "duration": 0.14705874999998514,
          "durationTicks": 24,
          "midi": 48,
          "name": "C3",
          "ticks": 24384,
          "time": 149.41169000000002,
          "velocity": 0.7874015748031497
        },
        {
          "duration": 0.14705875000001356,
          "durationTicks": 24,
          "midi": 48,
          "name": "C3",
          "ticks": 24408,
          "time": 149.55874875,
          "velocity": 0.7874015748031497
        },
        {
          "duration": 0.14705875000001356,
          "durationTicks": 24,
          "midi": 53,
          "name": "F3",
          "ticks": 24408,
          "time": 149.55874875,
          "velocity": 0.7874015748031497
        },
        {
          "duration": 0.14705874999998514,
          "durationTicks": 24,
          "midi": 48,
          "name": "C3",
          "ticks": 24432,
          "time": 149.70580750000002,
          "velocity": 0.7874015748031497
        },
        {
          "duration": 0.14705874999998514,
          "durationTicks": 24,
          "midi": 53,
          "name": "F3",
          "ticks": 24432,
          "time": 149.70580750000002,
          "velocity": 0.7874015748031497
        },
        {
          "duration": 0.14705875000001356,
          "durationTicks": 24,
          "midi": 48,
          "name": "C3",
          "ticks": 24456,
          "time": 149.85286625,
          "velocity": 0.7874015748031497
        },
        {
          "duration": 0.14705875000001356,
          "durationTicks": 24,
          "midi": 53,
          "name": "F3",
          "ticks": 24456,
          "time": 149.85286625,
          "velocity": 0.7874015748031497
        },
        {
          "duration": 0.14705874999998514,
          "durationTicks": 24,
          "midi": 48,
          "name": "C3",
          "ticks": 24480,
          "time": 149.99992500000002,
          "velocity": 0.7874015748031497
        },
        {
          "duration": 0.14705874999998514,
          "durationTicks": 24,
          "midi": 53,
          "name": "F3",
          "ticks": 24480,
          "time": 149.99992500000002,
          "velocity": 0.7874015748031497
        },
        {
          "duration": 0.07352937500002099,
          "durationTicks": 12,
          "midi": 53,
          "name": "F3",
          "ticks": 24504,
          "time": 150.14698375,
          "velocity": 0.7874015748031497
        },
        {
          "duration": 0.07352937500002099,
          "durationTicks": 12,
          "midi": 48,
          "name": "C3",
          "ticks": 24504,
          "time": 150.14698375,
          "velocity": 0.7874015748031497
        },
        {
          "duration": 0.07352937499999257,
          "durationTicks": 12,
          "midi": 53,
          "name": "F3",
          "ticks": 24516,
          "time": 150.22051312500002,
          "velocity": 0.7874015748031497
        },
        {
          "duration": 0.07352937499999257,
          "durationTicks": 12,
          "midi": 48,
          "name": "C3",
          "ticks": 24516,
          "time": 150.22051312500002,
          "velocity": 0.7874015748031497
        },
        {
          "duration": 0.14705874999998514,
          "durationTicks": 24,
          "midi": 53,
          "name": "F3",
          "ticks": 24528,
          "time": 150.29404250000002,
          "velocity": 0.7874015748031497
        },
        {
          "duration": 0.14705874999998514,
          "durationTicks": 24,
          "midi": 48,
          "name": "C3",
          "ticks": 24528,
          "time": 150.29404250000002,
          "velocity": 0.7874015748031497
        },
        {
          "duration": 0.07352937500002099,
          "durationTicks": 12,
          "midi": 53,
          "name": "F3",
          "ticks": 24552,
          "time": 150.44110125,
          "velocity": 0.7874015748031497
        },
        {
          "duration": 0.07352937500002099,
          "durationTicks": 12,
          "midi": 48,
          "name": "C3",
          "ticks": 24552,
          "time": 150.44110125,
          "velocity": 0.7874015748031497
        },
        {
          "duration": 0.07352937499999257,
          "durationTicks": 12,
          "midi": 53,
          "name": "F3",
          "ticks": 24564,
          "time": 150.51463062500002,
          "velocity": 0.7874015748031497
        },
        {
          "duration": 0.07352937499999257,
          "durationTicks": 12,
          "midi": 48,
          "name": "C3",
          "ticks": 24564,
          "time": 150.51463062500002,
          "velocity": 0.7874015748031497
        },
        {
          "duration": 0.14705875000001356,
          "durationTicks": 24,
          "midi": 48,
          "name": "C3",
          "ticks": 24576,
          "time": 150.58816000000002,
          "velocity": 0.7874015748031497
        },
        {
          "duration": 0.14705875000001356,
          "durationTicks": 24,
          "midi": 53,
          "name": "F3",
          "ticks": 24576,
          "time": 150.58816000000002,
          "velocity": 0.7874015748031497
        },
        {
          "duration": 0.14705874999998514,
          "durationTicks": 24,
          "midi": 53,
          "name": "F3",
          "ticks": 24600,
          "time": 150.73521875000003,
          "velocity": 0.7874015748031497
        },
        {
          "duration": 0.14705874999998514,
          "durationTicks": 24,
          "midi": 48,
          "name": "C3",
          "ticks": 24600,
          "time": 150.73521875000003,
          "velocity": 0.7874015748031497
        },
        {
          "duration": 0.14705875000001356,
          "durationTicks": 24,
          "midi": 48,
          "name": "C3",
          "ticks": 24624,
          "time": 150.88227750000001,
          "velocity": 0.7874015748031497
        },
        {
          "duration": 0.14705875000001356,
          "durationTicks": 24,
          "midi": 53,
          "name": "F3",
          "ticks": 24624,
          "time": 150.88227750000001,
          "velocity": 0.7874015748031497
        },
        {
          "duration": 0.14705874999998514,
          "durationTicks": 24,
          "midi": 48,
          "name": "C3",
          "ticks": 24648,
          "time": 151.02933625000003,
          "velocity": 0.7874015748031497
        },
        {
          "duration": 0.14705874999998514,
          "durationTicks": 24,
          "midi": 53,
          "name": "F3",
          "ticks": 24648,
          "time": 151.02933625000003,
          "velocity": 0.7874015748031497
        },
        {
          "duration": 0.14705875000001356,
          "durationTicks": 24,
          "midi": 47,
          "name": "B2",
          "ticks": 24672,
          "time": 151.176395,
          "velocity": 0.7874015748031497
        },
        {
          "duration": 0.14705875000001356,
          "durationTicks": 24,
          "midi": 52,
          "name": "E3",
          "ticks": 24672,
          "time": 151.176395,
          "velocity": 0.7874015748031497
        },
        {
          "duration": 0.14705874999998514,
          "durationTicks": 24,
          "midi": 47,
          "name": "B2",
          "ticks": 24696,
          "time": 151.32345375000003,
          "velocity": 0.7874015748031497
        },
        {
          "duration": 0.14705874999998514,
          "durationTicks": 24,
          "midi": 52,
          "name": "E3",
          "ticks": 24696,
          "time": 151.32345375000003,
          "velocity": 0.7874015748031497
        },
        {
          "duration": 0.14705875000001356,
          "durationTicks": 24,
          "midi": 47,
          "name": "B2",
          "ticks": 24720,
          "time": 151.4705125,
          "velocity": 0.7874015748031497
        },
        {
          "duration": 0.14705875000001356,
          "durationTicks": 24,
          "midi": 52,
          "name": "E3",
          "ticks": 24720,
          "time": 151.4705125,
          "velocity": 0.7874015748031497
        },
        {
          "duration": 0.14705874999998514,
          "durationTicks": 24,
          "midi": 47,
          "name": "B2",
          "ticks": 24744,
          "time": 151.61757125000003,
          "velocity": 0.7874015748031497
        },
        {
          "duration": 0.14705874999998514,
          "durationTicks": 24,
          "midi": 52,
          "name": "E3",
          "ticks": 24744,
          "time": 151.61757125000003,
          "velocity": 0.7874015748031497
        },
        {
          "duration": 0.14705875000001356,
          "durationTicks": 24,
          "midi": 47,
          "name": "B2",
          "ticks": 24768,
          "time": 151.76463,
          "velocity": 0.7874015748031497
        },
        {
          "duration": 0.14705875000001356,
          "durationTicks": 24,
          "midi": 52,
          "name": "E3",
          "ticks": 24768,
          "time": 151.76463,
          "velocity": 0.7874015748031497
        },
        {
          "duration": 0.14705874999998514,
          "durationTicks": 24,
          "midi": 52,
          "name": "E3",
          "ticks": 24792,
          "time": 151.91168875000002,
          "velocity": 0.7874015748031497
        },
        {
          "duration": 0.14705874999998514,
          "durationTicks": 24,
          "midi": 47,
          "name": "B2",
          "ticks": 24792,
          "time": 151.91168875000002,
          "velocity": 0.7874015748031497
        },
        {
          "duration": 0.14705875000001356,
          "durationTicks": 24,
          "midi": 52,
          "name": "E3",
          "ticks": 24816,
          "time": 152.0587475,
          "velocity": 0.7874015748031497
        },
        {
          "duration": 0.14705875000001356,
          "durationTicks": 24,
          "midi": 47,
          "name": "B2",
          "ticks": 24816,
          "time": 152.0587475,
          "velocity": 0.7874015748031497
        },
        {
          "duration": 0.14705874999998514,
          "durationTicks": 24,
          "midi": 52,
          "name": "E3",
          "ticks": 24840,
          "time": 152.20580625000002,
          "velocity": 0.7874015748031497
        },
        {
          "duration": 0.14705874999998514,
          "durationTicks": 24,
          "midi": 47,
          "name": "B2",
          "ticks": 24840,
          "time": 152.20580625000002,
          "velocity": 0.7874015748031497
        },
        {
          "duration": 0.14705875000001356,
          "durationTicks": 24,
          "midi": 47,
          "name": "B2",
          "ticks": 24864,
          "time": 152.352865,
          "velocity": 0.7874015748031497
        },
        {
          "duration": 0.14705875000001356,
          "durationTicks": 24,
          "midi": 52,
          "name": "E3",
          "ticks": 24864,
          "time": 152.352865,
          "velocity": 0.7874015748031497
        },
        {
          "duration": 0.14705874999998514,
          "durationTicks": 24,
          "midi": 52,
          "name": "E3",
          "ticks": 24888,
          "time": 152.49992375000002,
          "velocity": 0.7874015748031497
        },
        {
          "duration": 0.14705874999998514,
          "durationTicks": 24,
          "midi": 47,
          "name": "B2",
          "ticks": 24888,
          "time": 152.49992375000002,
          "velocity": 0.7874015748031497
        },
        {
          "duration": 0.14705875000001356,
          "durationTicks": 24,
          "midi": 52,
          "name": "E3",
          "ticks": 24912,
          "time": 152.6469825,
          "velocity": 0.7874015748031497
        },
        {
          "duration": 0.14705875000001356,
          "durationTicks": 24,
          "midi": 47,
          "name": "B2",
          "ticks": 24912,
          "time": 152.6469825,
          "velocity": 0.7874015748031497
        },
        {
          "duration": 0.14705874999998514,
          "durationTicks": 24,
          "midi": 52,
          "name": "E3",
          "ticks": 24936,
          "time": 152.79404125000002,
          "velocity": 0.7874015748031497
        },
        {
          "duration": 0.14705874999998514,
          "durationTicks": 24,
          "midi": 47,
          "name": "B2",
          "ticks": 24936,
          "time": 152.79404125000002,
          "velocity": 0.7874015748031497
        },
        {
          "duration": 0.14705875000001356,
          "durationTicks": 24,
          "midi": 52,
          "name": "E3",
          "ticks": 25056,
          "time": 153.529335,
          "velocity": 0.7874015748031497
        },
        {
          "duration": 0.14705875000001356,
          "durationTicks": 24,
          "midi": 47,
          "name": "B2",
          "ticks": 25056,
          "time": 153.529335,
          "velocity": 0.7874015748031497
        },
        {
          "duration": 0.14705875000001356,
          "durationTicks": 24,
          "midi": 47,
          "name": "B2",
          "ticks": 25080,
          "time": 153.67639375000002,
          "velocity": 0.7874015748031497
        },
        {
          "duration": 0.14705875000001356,
          "durationTicks": 24,
          "midi": 52,
          "name": "E3",
          "ticks": 25080,
          "time": 153.67639375000002,
          "velocity": 0.7874015748031497
        },
        {
          "duration": 0.14705874999998514,
          "durationTicks": 24,
          "midi": 52,
          "name": "E3",
          "ticks": 25104,
          "time": 153.82345250000003,
          "velocity": 0.7874015748031497
        },
        {
          "duration": 0.14705874999998514,
          "durationTicks": 24,
          "midi": 47,
          "name": "B2",
          "ticks": 25104,
          "time": 153.82345250000003,
          "velocity": 0.7874015748031497
        },
        {
          "duration": 0.14705875000001356,
          "durationTicks": 24,
          "midi": 52,
          "name": "E3",
          "ticks": 25128,
          "time": 153.97051125000002,
          "velocity": 0.7874015748031497
        },
        {
          "duration": 0.14705875000001356,
          "durationTicks": 24,
          "midi": 47,
          "name": "B2",
          "ticks": 25128,
          "time": 153.97051125000002,
          "velocity": 0.7874015748031497
        },
        {
          "duration": 0.14705874999998514,
          "durationTicks": 24,
          "midi": 47,
          "name": "B2",
          "ticks": 25152,
          "time": 154.11757000000003,
          "velocity": 0.7874015748031497
        },
        {
          "duration": 0.14705874999998514,
          "durationTicks": 24,
          "midi": 52,
          "name": "E3",
          "ticks": 25152,
          "time": 154.11757000000003,
          "velocity": 0.7874015748031497
        },
        {
          "duration": 0.14705875000001356,
          "durationTicks": 24,
          "midi": 47,
          "name": "B2",
          "ticks": 25176,
          "time": 154.26462875,
          "velocity": 0.7874015748031497
        },
        {
          "duration": 0.14705875000001356,
          "durationTicks": 24,
          "midi": 52,
          "name": "E3",
          "ticks": 25176,
          "time": 154.26462875,
          "velocity": 0.7874015748031497
        },
        {
          "duration": 0.14705874999998514,
          "durationTicks": 24,
          "midi": 47,
          "name": "B2",
          "ticks": 25200,
          "time": 154.41168750000003,
          "velocity": 0.7874015748031497
        },
        {
          "duration": 0.14705874999998514,
          "durationTicks": 24,
          "midi": 52,
          "name": "E3",
          "ticks": 25200,
          "time": 154.41168750000003,
          "velocity": 0.7874015748031497
        },
        {
          "duration": 0.14705875000001356,
          "durationTicks": 24,
          "midi": 47,
          "name": "B2",
          "ticks": 25224,
          "time": 154.55874625,
          "velocity": 0.7874015748031497
        },
        {
          "duration": 0.14705875000001356,
          "durationTicks": 24,
          "midi": 52,
          "name": "E3",
          "ticks": 25224,
          "time": 154.55874625,
          "velocity": 0.7874015748031497
        },
        {
          "duration": 0.14705874999998514,
          "durationTicks": 24,
          "midi": 52,
          "name": "E3",
          "ticks": 25248,
          "time": 154.70580500000003,
          "velocity": 0.7874015748031497
        },
        {
          "duration": 0.14705874999998514,
          "durationTicks": 24,
          "midi": 47,
          "name": "B2",
          "ticks": 25248,
          "time": 154.70580500000003,
          "velocity": 0.7874015748031497
        },
        {
          "duration": 0.14705875000001356,
          "durationTicks": 24,
          "midi": 52,
          "name": "E3",
          "ticks": 25272,
          "time": 154.85286375,
          "velocity": 0.7874015748031497
        },
        {
          "duration": 0.14705875000001356,
          "durationTicks": 24,
          "midi": 47,
          "name": "B2",
          "ticks": 25272,
          "time": 154.85286375,
          "velocity": 0.7874015748031497
        },
        {
          "duration": 0.14705874999998514,
          "durationTicks": 24,
          "midi": 47,
          "name": "B2",
          "ticks": 25296,
          "time": 154.99992250000003,
          "velocity": 0.7874015748031497
        },
        {
          "duration": 0.14705874999998514,
          "durationTicks": 24,
          "midi": 52,
          "name": "E3",
          "ticks": 25296,
          "time": 154.99992250000003,
          "velocity": 0.7874015748031497
        },
        {
          "duration": 0.14705875000001356,
          "durationTicks": 24,
          "midi": 52,
          "name": "E3",
          "ticks": 25320,
          "time": 155.14698125,
          "velocity": 0.7874015748031497
        },
        {
          "duration": 0.14705875000001356,
          "durationTicks": 24,
          "midi": 47,
          "name": "B2",
          "ticks": 25320,
          "time": 155.14698125,
          "velocity": 0.7874015748031497
        },
        {
          "duration": 0.14705874999998514,
          "durationTicks": 24,
          "midi": 42,
          "name": "F#2",
          "ticks": 25440,
          "time": 155.88227500000002,
          "velocity": 0.7874015748031497
        },
        {
          "duration": 0.14705874999998514,
          "durationTicks": 24,
          "midi": 47,
          "name": "B2",
          "ticks": 25440,
          "time": 155.88227500000002,
          "velocity": 0.7874015748031497
        },
        {
          "duration": 0.14705875000001356,
          "durationTicks": 24,
          "midi": 47,
          "name": "B2",
          "ticks": 25464,
          "time": 156.02933375,
          "velocity": 0.7874015748031497
        },
        {
          "duration": 0.14705875000001356,
          "durationTicks": 24,
          "midi": 42,
          "name": "F#2",
          "ticks": 25464,
          "time": 156.02933375,
          "velocity": 0.7874015748031497
        },
        {
          "duration": 0.14705874999998514,
          "durationTicks": 24,
          "midi": 47,
          "name": "B2",
          "ticks": 25488,
          "time": 156.17639250000002,
          "velocity": 0.7874015748031497
        },
        {
          "duration": 0.14705874999998514,
          "durationTicks": 24,
          "midi": 42,
          "name": "F#2",
          "ticks": 25488,
          "time": 156.17639250000002,
          "velocity": 0.7874015748031497
        },
        {
          "duration": 0.14705875000001356,
          "durationTicks": 24,
          "midi": 42,
          "name": "F#2",
          "ticks": 25512,
          "time": 156.32345125,
          "velocity": 0.7874015748031497
        },
        {
          "duration": 0.14705875000001356,
          "durationTicks": 24,
          "midi": 47,
          "name": "B2",
          "ticks": 25512,
          "time": 156.32345125,
          "velocity": 0.7874015748031497
        },
        {
          "duration": 0.14705874999998514,
          "durationTicks": 24,
          "midi": 47,
          "name": "B2",
          "ticks": 25536,
          "time": 156.47051000000002,
          "velocity": 0.7874015748031497
        },
        {
          "duration": 0.14705874999998514,
          "durationTicks": 24,
          "midi": 42,
          "name": "F#2",
          "ticks": 25536,
          "time": 156.47051000000002,
          "velocity": 0.7874015748031497
        },
        {
          "duration": 0.14705875000001356,
          "durationTicks": 24,
          "midi": 42,
          "name": "F#2",
          "ticks": 25560,
          "time": 156.61756875,
          "velocity": 0.7874015748031497
        },
        {
          "duration": 0.14705875000001356,
          "durationTicks": 24,
          "midi": 47,
          "name": "B2",
          "ticks": 25560,
          "time": 156.61756875,
          "velocity": 0.7874015748031497
        },
        {
          "duration": 0.14705875000001356,
          "durationTicks": 24,
          "midi": 42,
          "name": "F#2",
          "ticks": 25584,
          "time": 156.76462750000002,
          "velocity": 0.7874015748031497
        },
        {
          "duration": 0.14705875000001356,
          "durationTicks": 24,
          "midi": 47,
          "name": "B2",
          "ticks": 25584,
          "time": 156.76462750000002,
          "velocity": 0.7874015748031497
        },
        {
          "duration": 0.14705874999998514,
          "durationTicks": 24,
          "midi": 42,
          "name": "F#2",
          "ticks": 25608,
          "time": 156.91168625000003,
          "velocity": 0.7874015748031497
        },
        {
          "duration": 0.14705874999998514,
          "durationTicks": 24,
          "midi": 47,
          "name": "B2",
          "ticks": 25608,
          "time": 156.91168625000003,
          "velocity": 0.7874015748031497
        },
        {
          "duration": 0.14705875000001356,
          "durationTicks": 24,
          "midi": 47,
          "name": "B2",
          "ticks": 25632,
          "time": 157.05874500000002,
          "velocity": 0.7874015748031497
        },
        {
          "duration": 0.14705875000001356,
          "durationTicks": 24,
          "midi": 42,
          "name": "F#2",
          "ticks": 25632,
          "time": 157.05874500000002,
          "velocity": 0.7874015748031497
        },
        {
          "duration": 0.14705874999998514,
          "durationTicks": 24,
          "midi": 42,
          "name": "F#2",
          "ticks": 25656,
          "time": 157.20580375000003,
          "velocity": 0.7874015748031497
        },
        {
          "duration": 0.14705874999998514,
          "durationTicks": 24,
          "midi": 47,
          "name": "B2",
          "ticks": 25656,
          "time": 157.20580375000003,
          "velocity": 0.7874015748031497
        },
        {
          "duration": 0.14705875000001356,
          "durationTicks": 24,
          "midi": 42,
          "name": "F#2",
          "ticks": 25680,
          "time": 157.35286250000001,
          "velocity": 0.7874015748031497
        },
        {
          "duration": 0.14705875000001356,
          "durationTicks": 24,
          "midi": 47,
          "name": "B2",
          "ticks": 25680,
          "time": 157.35286250000001,
          "velocity": 0.7874015748031497
        },
        {
          "duration": 0.14705874999998514,
          "durationTicks": 24,
          "midi": 47,
          "name": "B2",
          "ticks": 25704,
          "time": 157.49992125000003,
          "velocity": 0.7874015748031497
        },
        {
          "duration": 0.14705874999998514,
          "durationTicks": 24,
          "midi": 42,
          "name": "F#2",
          "ticks": 25704,
          "time": 157.49992125000003,
          "velocity": 0.7874015748031497
        },
        {
          "duration": 0.14705875000001356,
          "durationTicks": 24,
          "midi": 50,
          "name": "D3",
          "ticks": 25728,
          "time": 157.64698,
          "velocity": 0.7874015748031497
        },
        {
          "duration": 0.14705875000001356,
          "durationTicks": 24,
          "midi": 45,
          "name": "A2",
          "ticks": 25728,
          "time": 157.64698,
          "velocity": 0.7874015748031497
        },
        {
          "duration": 0.14705874999998514,
          "durationTicks": 24,
          "midi": 50,
          "name": "D3",
          "ticks": 25752,
          "time": 157.79403875000003,
          "velocity": 0.7874015748031497
        },
        {
          "duration": 0.14705874999998514,
          "durationTicks": 24,
          "midi": 45,
          "name": "A2",
          "ticks": 25752,
          "time": 157.79403875000003,
          "velocity": 0.7874015748031497
        },
        {
          "duration": 0.14705875000001356,
          "durationTicks": 24,
          "midi": 49,
          "name": "C#3",
          "ticks": 25776,
          "time": 157.9410975,
          "velocity": 0.7874015748031497
        },
        {
          "duration": 0.14705875000001356,
          "durationTicks": 24,
          "midi": 44,
          "name": "G#2",
          "ticks": 25776,
          "time": 157.9410975,
          "velocity": 0.7874015748031497
        },
        {
          "duration": 0.14705874999998514,
          "durationTicks": 24,
          "midi": 44,
          "name": "G#2",
          "ticks": 25800,
          "time": 158.08815625000003,
          "velocity": 0.7874015748031497
        },
        {
          "duration": 0.14705874999998514,
          "durationTicks": 24,
          "midi": 49,
          "name": "C#3",
          "ticks": 25800,
          "time": 158.08815625000003,
          "velocity": 0.7874015748031497
        },
        {
          "duration": 0.14705875000001356,
          "durationTicks": 24,
          "midi": 47,
          "name": "B2",
          "ticks": 25824,
          "time": 158.235215,
          "velocity": 0.7874015748031497
        },
        {
          "duration": 0.14705875000001356,
          "durationTicks": 24,
          "midi": 42,
          "name": "F#2",
          "ticks": 25824,
          "time": 158.235215,
          "velocity": 0.7874015748031497
        },
        {
          "duration": 0.14705874999998514,
          "durationTicks": 24,
          "midi": 47,
          "name": "B2",
          "ticks": 25848,
          "time": 158.38227375000002,
          "velocity": 0.7874015748031497
        },
        {
          "duration": 0.14705874999998514,
          "durationTicks": 24,
          "midi": 42,
          "name": "F#2",
          "ticks": 25848,
          "time": 158.38227375000002,
          "velocity": 0.7874015748031497
        },
        {
          "duration": 0.14705875000001356,
          "durationTicks": 24,
          "midi": 42,
          "name": "F#2",
          "ticks": 25872,
          "time": 158.5293325,
          "velocity": 0.7874015748031497
        },
        {
          "duration": 0.14705875000001356,
          "durationTicks": 24,
          "midi": 47,
          "name": "B2",
          "ticks": 25872,
          "time": 158.5293325,
          "velocity": 0.7874015748031497
        },
        {
          "duration": 0.14705874999998514,
          "durationTicks": 24,
          "midi": 49,
          "name": "C#3",
          "ticks": 25896,
          "time": 158.67639125000002,
          "velocity": 0.7874015748031497
        },
        {
          "duration": 0.14705874999998514,
          "durationTicks": 24,
          "midi": 44,
          "name": "G#2",
          "ticks": 25896,
          "time": 158.67639125000002,
          "velocity": 0.7874015748031497
        },
        {
          "duration": 0.14705875000001356,
          "durationTicks": 24,
          "midi": 44,
          "name": "G#2",
          "ticks": 25920,
          "time": 158.82345,
          "velocity": 0.7874015748031497
        },
        {
          "duration": 0.14705875000001356,
          "durationTicks": 24,
          "midi": 49,
          "name": "C#3",
          "ticks": 25920,
          "time": 158.82345,
          "velocity": 0.7874015748031497
        },
        {
          "duration": 0.14705874999998514,
          "durationTicks": 24,
          "midi": 49,
          "name": "C#3",
          "ticks": 25944,
          "time": 158.97050875000002,
          "velocity": 0.7874015748031497
        },
        {
          "duration": 0.14705874999998514,
          "durationTicks": 24,
          "midi": 44,
          "name": "G#2",
          "ticks": 25944,
          "time": 158.97050875000002,
          "velocity": 0.7874015748031497
        },
        {
          "duration": 0.14705875000001356,
          "durationTicks": 24,
          "midi": 45,
          "name": "A2",
          "ticks": 25968,
          "time": 159.1175675,
          "velocity": 0.7874015748031497
        },
        {
          "duration": 0.14705875000001356,
          "durationTicks": 24,
          "midi": 50,
          "name": "D3",
          "ticks": 25968,
          "time": 159.1175675,
          "velocity": 0.7874015748031497
        },
        {
          "duration": 0.14705874999998514,
          "durationTicks": 24,
          "midi": 45,
          "name": "A2",
          "ticks": 25992,
          "time": 159.26462625000002,
          "velocity": 0.7874015748031497
        },
        {
          "duration": 0.14705874999998514,
          "durationTicks": 24,
          "midi": 50,
          "name": "D3",
          "ticks": 25992,
          "time": 159.26462625000002,
          "velocity": 0.7874015748031497
        },
        {
          "duration": 0.14705875000001356,
          "durationTicks": 24,
          "midi": 50,
          "name": "D3",
          "ticks": 26016,
          "time": 159.411685,
          "velocity": 0.7874015748031497
        },
        {
          "duration": 0.14705875000001356,
          "durationTicks": 24,
          "midi": 45,
          "name": "A2",
          "ticks": 26016,
          "time": 159.411685,
          "velocity": 0.7874015748031497
        },
        {
          "duration": 0.14705874999998514,
          "durationTicks": 24,
          "midi": 52,
          "name": "E3",
          "ticks": 26040,
          "time": 159.55874375000002,
          "velocity": 0.7874015748031497
        },
        {
          "duration": 0.14705874999998514,
          "durationTicks": 24,
          "midi": 47,
          "name": "B2",
          "ticks": 26040,
          "time": 159.55874375000002,
          "velocity": 0.7874015748031497
        },
        {
          "duration": 0.14705875000001356,
          "durationTicks": 24,
          "midi": 47,
          "name": "B2",
          "ticks": 26064,
          "time": 159.7058025,
          "velocity": 0.7874015748031497
        },
        {
          "duration": 0.14705875000001356,
          "durationTicks": 24,
          "midi": 52,
          "name": "E3",
          "ticks": 26064,
          "time": 159.7058025,
          "velocity": 0.7874015748031497
        },
        {
          "duration": 0.14705875000001356,
          "durationTicks": 24,
          "midi": 52,
          "name": "E3",
          "ticks": 26088,
          "time": 159.85286125000002,
          "velocity": 0.7874015748031497
        },
        {
          "duration": 0.14705875000001356,
          "durationTicks": 24,
          "midi": 47,
          "name": "B2",
          "ticks": 26088,
          "time": 159.85286125000002,
          "velocity": 0.7874015748031497
        },
        {
          "duration": 0.14705874999998514,
          "durationTicks": 24,
          "midi": 45,
          "name": "A2",
          "ticks": 26112,
          "time": 159.99992000000003,
          "velocity": 0.7874015748031497
        },
        {
          "duration": 0.14705874999998514,
          "durationTicks": 24,
          "midi": 50,
          "name": "D3",
          "ticks": 26112,
          "time": 159.99992000000003,
          "velocity": 0.7874015748031497
        },
        {
          "duration": 0.14705875000001356,
          "durationTicks": 24,
          "midi": 50,
          "name": "D3",
          "ticks": 26136,
          "time": 160.14697875000002,
          "velocity": 0.7874015748031497
        },
        {
          "duration": 0.14705875000001356,
          "durationTicks": 24,
          "midi": 45,
          "name": "A2",
          "ticks": 26136,
          "time": 160.14697875000002,
          "velocity": 0.7874015748031497
        },
        {
          "duration": 0.14705874999998514,
          "durationTicks": 24,
          "midi": 44,
          "name": "G#2",
          "ticks": 26160,
          "time": 160.29403750000003,
          "velocity": 0.7874015748031497
        },
        {
          "duration": 0.14705874999998514,
          "durationTicks": 24,
          "midi": 49,
          "name": "C#3",
          "ticks": 26160,
          "time": 160.29403750000003,
          "velocity": 0.7874015748031497
        },
        {
          "duration": 0.14705875000001356,
          "durationTicks": 24,
          "midi": 49,
          "name": "C#3",
          "ticks": 26184,
          "time": 160.44109625000002,
          "velocity": 0.7874015748031497
        },
        {
          "duration": 0.14705875000001356,
          "durationTicks": 24,
          "midi": 44,
          "name": "G#2",
          "ticks": 26184,
          "time": 160.44109625000002,
          "velocity": 0.7874015748031497
        },
        {
          "duration": 0.14705874999998514,
          "durationTicks": 24,
          "midi": 47,
          "name": "B2",
          "ticks": 26208,
          "time": 160.58815500000003,
          "velocity": 0.7874015748031497
        },
        {
          "duration": 0.14705874999998514,
          "durationTicks": 24,
          "midi": 42,
          "name": "F#2",
          "ticks": 26208,
          "time": 160.58815500000003,
          "velocity": 0.7874015748031497
        },
        {
          "duration": 0.14705875000001356,
          "durationTicks": 24,
          "midi": 42,
          "name": "F#2",
          "ticks": 26232,
          "time": 160.73521375,
          "velocity": 0.7874015748031497
        },
        {
          "duration": 0.14705875000001356,
          "durationTicks": 24,
          "midi": 47,
          "name": "B2",
          "ticks": 26232,
          "time": 160.73521375,
          "velocity": 0.7874015748031497
        },
        {
          "duration": 0.14705874999998514,
          "durationTicks": 24,
          "midi": 42,
          "name": "F#2",
          "ticks": 26256,
          "time": 160.88227250000003,
          "velocity": 0.7874015748031497
        },
        {
          "duration": 0.14705874999998514,
          "durationTicks": 24,
          "midi": 47,
          "name": "B2",
          "ticks": 26256,
          "time": 160.88227250000003,
          "velocity": 0.7874015748031497
        },
        {
          "duration": 0.14705875000001356,
          "durationTicks": 24,
          "midi": 47,
          "name": "B2",
          "ticks": 26280,
          "time": 161.02933125,
          "velocity": 0.7874015748031497
        },
        {
          "duration": 0.14705875000001356,
          "durationTicks": 24,
          "midi": 42,
          "name": "F#2",
          "ticks": 26280,
          "time": 161.02933125,
          "velocity": 0.7874015748031497
        },
        {
          "duration": 0.14705874999998514,
          "durationTicks": 24,
          "midi": 42,
          "name": "F#2",
          "ticks": 26304,
          "time": 161.17639000000003,
          "velocity": 0.7874015748031497
        },
        {
          "duration": 0.14705874999998514,
          "durationTicks": 24,
          "midi": 47,
          "name": "B2",
          "ticks": 26304,
          "time": 161.17639000000003,
          "velocity": 0.7874015748031497
        },
        {
          "duration": 0.14705874999998514,
          "durationTicks": 24,
          "midi": 42,
          "name": "F#2",
          "ticks": 26352,
          "time": 161.47050750000002,
          "velocity": 0.7874015748031497
        },
        {
          "duration": 0.14705874999998514,
          "durationTicks": 24,
          "midi": 47,
          "name": "B2",
          "ticks": 26352,
          "time": 161.47050750000002,
          "velocity": 0.7874015748031497
        },
        {
          "duration": 0.14705875000001356,
          "durationTicks": 24,
          "midi": 42,
          "name": "F#2",
          "ticks": 26376,
          "time": 161.61756625,
          "velocity": 0.7874015748031497
        },
        {
          "duration": 0.14705875000001356,
          "durationTicks": 24,
          "midi": 47,
          "name": "B2",
          "ticks": 26376,
          "time": 161.61756625,
          "velocity": 0.7874015748031497
        },
        {
          "duration": 0.14705874999998514,
          "durationTicks": 24,
          "midi": 42,
          "name": "F#2",
          "ticks": 26400,
          "time": 161.76462500000002,
          "velocity": 0.7874015748031497
        },
        {
          "duration": 0.14705874999998514,
          "durationTicks": 24,
          "midi": 47,
          "name": "B2",
          "ticks": 26400,
          "time": 161.76462500000002,
          "velocity": 0.7874015748031497
        },
        {
          "duration": 0.14705875000001356,
          "durationTicks": 24,
          "midi": 42,
          "name": "F#2",
          "ticks": 26424,
          "time": 161.91168375,
          "velocity": 0.7874015748031497
        },
        {
          "duration": 0.14705875000001356,
          "durationTicks": 24,
          "midi": 47,
          "name": "B2",
          "ticks": 26424,
          "time": 161.91168375,
          "velocity": 0.7874015748031497
        },
        {
          "duration": 0.14705874999998514,
          "durationTicks": 24,
          "midi": 42,
          "name": "F#2",
          "ticks": 26448,
          "time": 162.05874250000002,
          "velocity": 0.7874015748031497
        },
        {
          "duration": 0.14705874999998514,
          "durationTicks": 24,
          "midi": 47,
          "name": "B2",
          "ticks": 26448,
          "time": 162.05874250000002,
          "velocity": 0.7874015748031497
        },
        {
          "duration": 0.14705874999998514,
          "durationTicks": 24,
          "midi": 42,
          "name": "F#2",
          "ticks": 26592,
          "time": 162.94109500000002,
          "velocity": 0.7874015748031497
        },
        {
          "duration": 0.14705874999998514,
          "durationTicks": 24,
          "midi": 47,
          "name": "B2",
          "ticks": 26592,
          "time": 162.94109500000002,
          "velocity": 0.7874015748031497
        },
        {
          "duration": 0.14705875000001356,
          "durationTicks": 24,
          "midi": 47,
          "name": "B2",
          "ticks": 26616,
          "time": 163.08815375,
          "velocity": 0.7874015748031497
        },
        {
          "duration": 0.14705875000001356,
          "durationTicks": 24,
          "midi": 42,
          "name": "F#2",
          "ticks": 26616,
          "time": 163.08815375,
          "velocity": 0.7874015748031497
        },
        {
          "duration": 0.14705875000001356,
          "durationTicks": 24,
          "midi": 42,
          "name": "F#2",
          "ticks": 26640,
          "time": 163.23521250000002,
          "velocity": 0.7874015748031497
        },
        {
          "duration": 0.14705875000001356,
          "durationTicks": 24,
          "midi": 47,
          "name": "B2",
          "ticks": 26640,
          "time": 163.23521250000002,
          "velocity": 0.7874015748031497
        },
        {
          "duration": 0.14705874999998514,
          "durationTicks": 24,
          "midi": 47,
          "name": "B2",
          "ticks": 26664,
          "time": 163.38227125000003,
          "velocity": 0.7874015748031497
        },
        {
          "duration": 0.14705874999998514,
          "durationTicks": 24,
          "midi": 42,
          "name": "F#2",
          "ticks": 26664,
          "time": 163.38227125000003,
          "velocity": 0.7874015748031497
        },
        {
          "duration": 0.14705875000001356,
          "durationTicks": 24,
          "midi": 42,
          "name": "F#2",
          "ticks": 26688,
          "time": 163.52933000000002,
          "velocity": 0.7874015748031497
        },
        {
          "duration": 0.14705875000001356,
          "durationTicks": 24,
          "midi": 47,
          "name": "B2",
          "ticks": 26688,
          "time": 163.52933000000002,
          "velocity": 0.7874015748031497
        },
        {
          "duration": 0.14705875000001356,
          "durationTicks": 24,
          "midi": 42,
          "name": "F#2",
          "ticks": 26736,
          "time": 163.82344750000001,
          "velocity": 0.7874015748031497
        },
        {
          "duration": 0.14705875000001356,
          "durationTicks": 24,
          "midi": 47,
          "name": "B2",
          "ticks": 26736,
          "time": 163.82344750000001,
          "velocity": 0.7874015748031497
        },
        {
          "duration": 0.14705874999998514,
          "durationTicks": 24,
          "midi": 42,
          "name": "F#2",
          "ticks": 26760,
          "time": 163.97050625000003,
          "velocity": 0.7874015748031497
        },
        {
          "duration": 0.14705874999998514,
          "durationTicks": 24,
          "midi": 47,
          "name": "B2",
          "ticks": 26760,
          "time": 163.97050625000003,
          "velocity": 0.7874015748031497
        },
        {
          "duration": 0.14705875000001356,
          "durationTicks": 24,
          "midi": 42,
          "name": "F#2",
          "ticks": 26784,
          "time": 164.117565,
          "velocity": 0.7874015748031497
        },
        {
          "duration": 0.14705875000001356,
          "durationTicks": 24,
          "midi": 47,
          "name": "B2",
          "ticks": 26784,
          "time": 164.117565,
          "velocity": 0.7874015748031497
        },
        {
          "duration": 0.14705874999998514,
          "durationTicks": 24,
          "midi": 42,
          "name": "F#2",
          "ticks": 26808,
          "time": 164.26462375000003,
          "velocity": 0.7874015748031497
        },
        {
          "duration": 0.14705874999998514,
          "durationTicks": 24,
          "midi": 47,
          "name": "B2",
          "ticks": 26808,
          "time": 164.26462375000003,
          "velocity": 0.7874015748031497
        },
        {
          "duration": 0.14705875000001356,
          "durationTicks": 24,
          "midi": 42,
          "name": "F#2",
          "ticks": 26832,
          "time": 164.4116825,
          "velocity": 0.7874015748031497
        },
        {
          "duration": 0.14705875000001356,
          "durationTicks": 24,
          "midi": 47,
          "name": "B2",
          "ticks": 26832,
          "time": 164.4116825,
          "velocity": 0.7874015748031497
        },
        {
          "duration": 0.14705875000001356,
          "durationTicks": 24,
          "midi": 42,
          "name": "F#2",
          "ticks": 26976,
          "time": 165.294035,
          "velocity": 0.7874015748031497
        },
        {
          "duration": 0.14705875000001356,
          "durationTicks": 24,
          "midi": 47,
          "name": "B2",
          "ticks": 26976,
          "time": 165.294035,
          "velocity": 0.7874015748031497
        },
        {
          "duration": 0.14705874999998514,
          "durationTicks": 24,
          "midi": 47,
          "name": "B2",
          "ticks": 27000,
          "time": 165.44109375000002,
          "velocity": 0.7874015748031497
        },
        {
          "duration": 0.14705874999998514,
          "durationTicks": 24,
          "midi": 42,
          "name": "F#2",
          "ticks": 27000,
          "time": 165.44109375000002,
          "velocity": 0.7874015748031497
        },
        {
          "duration": 0.14705875000001356,
          "durationTicks": 24,
          "midi": 42,
          "name": "F#2",
          "ticks": 27024,
          "time": 165.5881525,
          "velocity": 0.7874015748031497
        },
        {
          "duration": 0.14705875000001356,
          "durationTicks": 24,
          "midi": 47,
          "name": "B2",
          "ticks": 27024,
          "time": 165.5881525,
          "velocity": 0.7874015748031497
        },
        {
          "duration": 0.14705874999998514,
          "durationTicks": 24,
          "midi": 47,
          "name": "B2",
          "ticks": 27048,
          "time": 165.73521125000002,
          "velocity": 0.7874015748031497
        },
        {
          "duration": 0.14705874999998514,
          "durationTicks": 24,
          "midi": 42,
          "name": "F#2",
          "ticks": 27048,
          "time": 165.73521125000002,
          "velocity": 0.7874015748031497
        },
        {
          "duration": 0.14705875000001356,
          "durationTicks": 24,
          "midi": 42,
          "name": "F#2",
          "ticks": 27072,
          "time": 165.88227,
          "velocity": 0.7874015748031497
        },
        {
          "duration": 0.14705875000001356,
          "durationTicks": 24,
          "midi": 47,
          "name": "B2",
          "ticks": 27072,
          "time": 165.88227,
          "velocity": 0.7874015748031497
        },
        {
          "duration": 0.14705875000001356,
          "durationTicks": 24,
          "midi": 42,
          "name": "F#2",
          "ticks": 27120,
          "time": 166.1763875,
          "velocity": 0.7874015748031497
        },
        {
          "duration": 0.14705875000001356,
          "durationTicks": 24,
          "midi": 47,
          "name": "B2",
          "ticks": 27120,
          "time": 166.1763875,
          "velocity": 0.7874015748031497
        },
        {
          "duration": 0.14705875000001356,
          "durationTicks": 24,
          "midi": 42,
          "name": "F#2",
          "ticks": 27144,
          "time": 166.32344625000002,
          "velocity": 0.7874015748031497
        },
        {
          "duration": 0.14705875000001356,
          "durationTicks": 24,
          "midi": 47,
          "name": "B2",
          "ticks": 27144,
          "time": 166.32344625000002,
          "velocity": 0.7874015748031497
        },
        {
          "duration": 0.14705874999998514,
          "durationTicks": 24,
          "midi": 42,
          "name": "F#2",
          "ticks": 27168,
          "time": 166.47050500000003,
          "velocity": 0.7874015748031497
        },
        {
          "duration": 0.14705874999998514,
          "durationTicks": 24,
          "midi": 47,
          "name": "B2",
          "ticks": 27168,
          "time": 166.47050500000003,
          "velocity": 0.7874015748031497
        },
        {
          "duration": 0.14705875000001356,
          "durationTicks": 24,
          "midi": 42,
          "name": "F#2",
          "ticks": 27192,
          "time": 166.61756375000002,
          "velocity": 0.7874015748031497
        },
        {
          "duration": 0.14705875000001356,
          "durationTicks": 24,
          "midi": 47,
          "name": "B2",
          "ticks": 27192,
          "time": 166.61756375000002,
          "velocity": 0.7874015748031497
        },
        {
          "duration": 0.14705874999998514,
          "durationTicks": 24,
          "midi": 42,
          "name": "F#2",
          "ticks": 27216,
          "time": 166.76462250000003,
          "velocity": 0.7874015748031497
        },
        {
          "duration": 0.14705874999998514,
          "durationTicks": 24,
          "midi": 47,
          "name": "B2",
          "ticks": 27216,
          "time": 166.76462250000003,
          "velocity": 0.7874015748031497
        },
        {
          "duration": 0.14705874999998514,
          "durationTicks": 24,
          "midi": 42,
          "name": "F#2",
          "ticks": 27360,
          "time": 167.64697500000003,
          "velocity": 0.7874015748031497
        },
        {
          "duration": 0.14705874999998514,
          "durationTicks": 24,
          "midi": 47,
          "name": "B2",
          "ticks": 27360,
          "time": 167.64697500000003,
          "velocity": 0.7874015748031497
        },
        {
          "duration": 0.14705875000001356,
          "durationTicks": 24,
          "midi": 47,
          "name": "B2",
          "ticks": 27384,
          "time": 167.79403375,
          "velocity": 0.7874015748031497
        },
        {
          "duration": 0.14705875000001356,
          "durationTicks": 24,
          "midi": 42,
          "name": "F#2",
          "ticks": 27384,
          "time": 167.79403375,
          "velocity": 0.7874015748031497
        },
        {
          "duration": 0.14705874999998514,
          "durationTicks": 24,
          "midi": 42,
          "name": "F#2",
          "ticks": 27408,
          "time": 167.94109250000002,
          "velocity": 0.7874015748031497
        },
        {
          "duration": 0.14705874999998514,
          "durationTicks": 24,
          "midi": 47,
          "name": "B2",
          "ticks": 27408,
          "time": 167.94109250000002,
          "velocity": 0.7874015748031497
        },
        {
          "duration": 0.14705875000001356,
          "durationTicks": 24,
          "midi": 47,
          "name": "B2",
          "ticks": 27432,
          "time": 168.08815125,
          "velocity": 0.7874015748031497
        },
        {
          "duration": 0.14705875000001356,
          "durationTicks": 24,
          "midi": 42,
          "name": "F#2",
          "ticks": 27432,
          "time": 168.08815125,
          "velocity": 0.7874015748031497
        },
        {
          "duration": 0.14705874999998514,
          "durationTicks": 24,
          "midi": 42,
          "name": "F#2",
          "ticks": 27456,
          "time": 168.23521000000002,
          "velocity": 0.7874015748031497
        },
        {
          "duration": 0.14705874999998514,
          "durationTicks": 24,
          "midi": 47,
          "name": "B2",
          "ticks": 27456,
          "time": 168.23521000000002,
          "velocity": 0.7874015748031497
        },
        {
          "duration": 0.14705874999998514,
          "durationTicks": 24,
          "midi": 42,
          "name": "F#2",
          "ticks": 27504,
          "time": 168.52932750000002,
          "velocity": 0.7874015748031497
        },
        {
          "duration": 0.14705874999998514,
          "durationTicks": 24,
          "midi": 47,
          "name": "B2",
          "ticks": 27504,
          "time": 168.52932750000002,
          "velocity": 0.7874015748031497
        },
        {
          "duration": 0.14705875000001356,
          "durationTicks": 24,
          "midi": 42,
          "name": "F#2",
          "ticks": 27528,
          "time": 168.67638625,
          "velocity": 0.7874015748031497
        },
        {
          "duration": 0.14705875000001356,
          "durationTicks": 24,
          "midi": 47,
          "name": "B2",
          "ticks": 27528,
          "time": 168.67638625,
          "velocity": 0.7874015748031497
        },
        {
          "duration": 0.14705874999998514,
          "durationTicks": 24,
          "midi": 42,
          "name": "F#2",
          "ticks": 27552,
          "time": 168.82344500000002,
          "velocity": 0.7874015748031497
        },
        {
          "duration": 0.14705874999998514,
          "durationTicks": 24,
          "midi": 47,
          "name": "B2",
          "ticks": 27552,
          "time": 168.82344500000002,
          "velocity": 0.7874015748031497
        },
        {
          "duration": 0.14705875000001356,
          "durationTicks": 24,
          "midi": 42,
          "name": "F#2",
          "ticks": 27576,
          "time": 168.97050375,
          "velocity": 0.7874015748031497
        },
        {
          "duration": 0.14705875000001356,
          "durationTicks": 24,
          "midi": 47,
          "name": "B2",
          "ticks": 27576,
          "time": 168.97050375,
          "velocity": 0.7874015748031497
        },
        {
          "duration": 0.14705874999998514,
          "durationTicks": 24,
          "midi": 42,
          "name": "F#2",
          "ticks": 27600,
          "time": 169.11756250000002,
          "velocity": 0.7874015748031497
        },
        {
          "duration": 0.14705874999998514,
          "durationTicks": 24,
          "midi": 47,
          "name": "B2",
          "ticks": 27600,
          "time": 169.11756250000002,
          "velocity": 0.7874015748031497
        },
        {
          "duration": 0.14705875000001356,
          "durationTicks": 24,
          "midi": 42,
          "name": "F#2",
          "ticks": 27744,
          "time": 169.99991500000002,
          "velocity": 0.7874015748031497
        },
        {
          "duration": 0.14705875000001356,
          "durationTicks": 24,
          "midi": 47,
          "name": "B2",
          "ticks": 27744,
          "time": 169.99991500000002,
          "velocity": 0.7874015748031497
        },
        {
          "duration": 0.14705874999998514,
          "durationTicks": 24,
          "midi": 47,
          "name": "B2",
          "ticks": 27768,
          "time": 170.14697375000003,
          "velocity": 0.7874015748031497
        },
        {
          "duration": 0.14705874999998514,
          "durationTicks": 24,
          "midi": 42,
          "name": "F#2",
          "ticks": 27768,
          "time": 170.14697375000003,
          "velocity": 0.7874015748031497
        },
        {
          "duration": 0.14705875000001356,
          "durationTicks": 24,
          "midi": 42,
          "name": "F#2",
          "ticks": 27792,
          "time": 170.29403250000001,
          "velocity": 0.7874015748031497
        },
        {
          "duration": 0.14705875000001356,
          "durationTicks": 24,
          "midi": 47,
          "name": "B2",
          "ticks": 27792,
          "time": 170.29403250000001,
          "velocity": 0.7874015748031497
        },
        {
          "duration": 0.14705874999998514,
          "durationTicks": 24,
          "midi": 47,
          "name": "B2",
          "ticks": 27816,
          "time": 170.44109125000003,
          "velocity": 0.7874015748031497
        },
        {
          "duration": 0.14705874999998514,
          "durationTicks": 24,
          "midi": 42,
          "name": "F#2",
          "ticks": 27816,
          "time": 170.44109125000003,
          "velocity": 0.7874015748031497
        },
        {
          "duration": 0.14705875000001356,
          "durationTicks": 24,
          "midi": 42,
          "name": "F#2",
          "ticks": 27840,
          "time": 170.58815,
          "velocity": 0.7874015748031497
        },
        {
          "duration": 0.14705875000001356,
          "durationTicks": 24,
          "midi": 47,
          "name": "B2",
          "ticks": 27840,
          "time": 170.58815,
          "velocity": 0.7874015748031497
        },
        {
          "duration": 0.14705875000001356,
          "durationTicks": 24,
          "midi": 42,
          "name": "F#2",
          "ticks": 27888,
          "time": 170.8822675,
          "velocity": 0.7874015748031497
        },
        {
          "duration": 0.14705875000001356,
          "durationTicks": 24,
          "midi": 47,
          "name": "B2",
          "ticks": 27888,
          "time": 170.8822675,
          "velocity": 0.7874015748031497
        },
        {
          "duration": 0.14705874999998514,
          "durationTicks": 24,
          "midi": 42,
          "name": "F#2",
          "ticks": 27912,
          "time": 171.02932625000003,
          "velocity": 0.7874015748031497
        },
        {
          "duration": 0.14705874999998514,
          "durationTicks": 24,
          "midi": 47,
          "name": "B2",
          "ticks": 27912,
          "time": 171.02932625000003,
          "velocity": 0.7874015748031497
        },
        {
          "duration": 0.14705875000001356,
          "durationTicks": 24,
          "midi": 42,
          "name": "F#2",
          "ticks": 27936,
          "time": 171.176385,
          "velocity": 0.7874015748031497
        },
        {
          "duration": 0.14705875000001356,
          "durationTicks": 24,
          "midi": 47,
          "name": "B2",
          "ticks": 27936,
          "time": 171.176385,
          "velocity": 0.7874015748031497
        },
        {
          "duration": 0.14705874999998514,
          "durationTicks": 24,
          "midi": 42,
          "name": "F#2",
          "ticks": 27960,
          "time": 171.32344375000002,
          "velocity": 0.7874015748031497
        },
        {
          "duration": 0.14705874999998514,
          "durationTicks": 24,
          "midi": 47,
          "name": "B2",
          "ticks": 27960,
          "time": 171.32344375000002,
          "velocity": 0.7874015748031497
        },
        {
          "duration": 0.14705875000001356,
          "durationTicks": 24,
          "midi": 42,
          "name": "F#2",
          "ticks": 27984,
          "time": 171.4705025,
          "velocity": 0.7874015748031497
        },
        {
          "duration": 0.14705875000001356,
          "durationTicks": 24,
          "midi": 47,
          "name": "B2",
          "ticks": 27984,
          "time": 171.4705025,
          "velocity": 0.7874015748031497
        },
        {
          "duration": 0.14705875000001356,
          "durationTicks": 24,
          "midi": 47,
          "name": "B2",
          "ticks": 28128,
          "time": 172.352855,
          "velocity": 0.7874015748031497
        },
        {
          "duration": 0.14705875000001356,
          "durationTicks": 24,
          "midi": 42,
          "name": "F#2",
          "ticks": 28128,
          "time": 172.352855,
          "velocity": 0.7874015748031497
        },
        {
          "duration": 0.14705875000001356,
          "durationTicks": 24,
          "midi": 42,
          "name": "F#2",
          "ticks": 28152,
          "time": 172.49991375000002,
          "velocity": 0.7874015748031497
        },
        {
          "duration": 0.14705875000001356,
          "durationTicks": 24,
          "midi": 47,
          "name": "B2",
          "ticks": 28152,
          "time": 172.49991375000002,
          "velocity": 0.7874015748031497
        },
        {
          "duration": 0.14705874999998514,
          "durationTicks": 24,
          "midi": 47,
          "name": "B2",
          "ticks": 28176,
          "time": 172.64697250000003,
          "velocity": 0.7874015748031497
        },
        {
          "duration": 0.14705874999998514,
          "durationTicks": 24,
          "midi": 42,
          "name": "F#2",
          "ticks": 28176,
          "time": 172.64697250000003,
          "velocity": 0.7874015748031497
        },
        {
          "duration": 0.14705875000001356,
          "durationTicks": 24,
          "midi": 42,
          "name": "F#2",
          "ticks": 28200,
          "time": 172.79403125000002,
          "velocity": 0.7874015748031497
        },
        {
          "duration": 0.14705875000001356,
          "durationTicks": 24,
          "midi": 47,
          "name": "B2",
          "ticks": 28200,
          "time": 172.79403125000002,
          "velocity": 0.7874015748031497
        },
        {
          "duration": 0.14705874999998514,
          "durationTicks": 24,
          "midi": 42,
          "name": "F#2",
          "ticks": 28224,
          "time": 172.94109000000003,
          "velocity": 0.7874015748031497
        },
        {
          "duration": 0.14705874999998514,
          "durationTicks": 24,
          "midi": 47,
          "name": "B2",
          "ticks": 28224,
          "time": 172.94109000000003,
          "velocity": 0.7874015748031497
        },
        {
          "duration": 0.14705874999998514,
          "durationTicks": 24,
          "midi": 42,
          "name": "F#2",
          "ticks": 28272,
          "time": 173.23520750000003,
          "velocity": 0.7874015748031497
        },
        {
          "duration": 0.14705874999998514,
          "durationTicks": 24,
          "midi": 47,
          "name": "B2",
          "ticks": 28272,
          "time": 173.23520750000003,
          "velocity": 0.7874015748031497
        },
        {
          "duration": 0.14705875000001356,
          "durationTicks": 24,
          "midi": 47,
          "name": "B2",
          "ticks": 28296,
          "time": 173.38226625000001,
          "velocity": 0.7874015748031497
        },
        {
          "duration": 0.14705875000001356,
          "durationTicks": 24,
          "midi": 42,
          "name": "F#2",
          "ticks": 28296,
          "time": 173.38226625000001,
          "velocity": 0.7874015748031497
        },
        {
          "duration": 0.14705874999998514,
          "durationTicks": 24,
          "midi": 47,
          "name": "B2",
          "ticks": 28320,
          "time": 173.52932500000003,
          "velocity": 0.7874015748031497
        },
        {
          "duration": 0.14705874999998514,
          "durationTicks": 24,
          "midi": 42,
          "name": "F#2",
          "ticks": 28320,
          "time": 173.52932500000003,
          "velocity": 0.7874015748031497
        },
        {
          "duration": 0.14705875000001356,
          "durationTicks": 24,
          "midi": 47,
          "name": "B2",
          "ticks": 28344,
          "time": 173.67638375,
          "velocity": 0.7874015748031497
        },
        {
          "duration": 0.14705875000001356,
          "durationTicks": 24,
          "midi": 42,
          "name": "F#2",
          "ticks": 28344,
          "time": 173.67638375,
          "velocity": 0.7874015748031497
        },
        {
          "duration": 0.14705874999998514,
          "durationTicks": 24,
          "midi": 47,
          "name": "B2",
          "ticks": 28368,
          "time": 173.82344250000003,
          "velocity": 0.7874015748031497
        },
        {
          "duration": 0.14705874999998514,
          "durationTicks": 24,
          "midi": 42,
          "name": "F#2",
          "ticks": 28368,
          "time": 173.82344250000003,
          "velocity": 0.7874015748031497
        },
        {
          "duration": 0.14705874999998514,
          "durationTicks": 24,
          "midi": 42,
          "name": "F#2",
          "ticks": 28512,
          "time": 174.70579500000002,
          "velocity": 0.7874015748031497
        },
        {
          "duration": 0.14705874999998514,
          "durationTicks": 24,
          "midi": 47,
          "name": "B2",
          "ticks": 28512,
          "time": 174.70579500000002,
          "velocity": 0.7874015748031497
        },
        {
          "duration": 0.14705875000001356,
          "durationTicks": 24,
          "midi": 42,
          "name": "F#2",
          "ticks": 28536,
          "time": 174.85285375,
          "velocity": 0.7874015748031497
        },
        {
          "duration": 0.14705875000001356,
          "durationTicks": 24,
          "midi": 47,
          "name": "B2",
          "ticks": 28536,
          "time": 174.85285375,
          "velocity": 0.7874015748031497
        },
        {
          "duration": 0.14705874999998514,
          "durationTicks": 24,
          "midi": 47,
          "name": "B2",
          "ticks": 28560,
          "time": 174.99991250000002,
          "velocity": 0.7874015748031497
        },
        {
          "duration": 0.14705874999998514,
          "durationTicks": 24,
          "midi": 42,
          "name": "F#2",
          "ticks": 28560,
          "time": 174.99991250000002,
          "velocity": 0.7874015748031497
        },
        {
          "duration": 0.14705875000001356,
          "durationTicks": 24,
          "midi": 42,
          "name": "F#2",
          "ticks": 28584,
          "time": 175.14697125,
          "velocity": 0.7874015748031497
        },
        {
          "duration": 0.14705875000001356,
          "durationTicks": 24,
          "midi": 47,
          "name": "B2",
          "ticks": 28584,
          "time": 175.14697125,
          "velocity": 0.7874015748031497
        },
        {
          "duration": 0.14705874999998514,
          "durationTicks": 24,
          "midi": 42,
          "name": "F#2",
          "ticks": 28608,
          "time": 175.29403000000002,
          "velocity": 0.7874015748031497
        },
        {
          "duration": 0.14705874999998514,
          "durationTicks": 24,
          "midi": 47,
          "name": "B2",
          "ticks": 28608,
          "time": 175.29403000000002,
          "velocity": 0.7874015748031497
        },
        {
          "duration": 0.14705875000001356,
          "durationTicks": 24,
          "midi": 42,
          "name": "F#2",
          "ticks": 28656,
          "time": 175.58814750000002,
          "velocity": 0.7874015748031497
        },
        {
          "duration": 0.14705875000001356,
          "durationTicks": 24,
          "midi": 47,
          "name": "B2",
          "ticks": 28656,
          "time": 175.58814750000002,
          "velocity": 0.7874015748031497
        },
        {
          "duration": 0.14705874999998514,
          "durationTicks": 24,
          "midi": 42,
          "name": "F#2",
          "ticks": 28680,
          "time": 175.73520625000003,
          "velocity": 0.7874015748031497
        },
        {
          "duration": 0.14705874999998514,
          "durationTicks": 24,
          "midi": 47,
          "name": "B2",
          "ticks": 28680,
          "time": 175.73520625000003,
          "velocity": 0.7874015748031497
        },
        {
          "duration": 0.14705875000001356,
          "durationTicks": 24,
          "midi": 42,
          "name": "F#2",
          "ticks": 28704,
          "time": 175.88226500000002,
          "velocity": 0.7874015748031497
        },
        {
          "duration": 0.14705875000001356,
          "durationTicks": 24,
          "midi": 47,
          "name": "B2",
          "ticks": 28704,
          "time": 175.88226500000002,
          "velocity": 0.7874015748031497
        },
        {
          "duration": 0.14705874999998514,
          "durationTicks": 24,
          "midi": 42,
          "name": "F#2",
          "ticks": 28728,
          "time": 176.02932375000003,
          "velocity": 0.7874015748031497
        },
        {
          "duration": 0.14705874999998514,
          "durationTicks": 24,
          "midi": 47,
          "name": "B2",
          "ticks": 28728,
          "time": 176.02932375000003,
          "velocity": 0.7874015748031497
        },
        {
          "duration": 0.14705875000001356,
          "durationTicks": 24,
          "midi": 42,
          "name": "F#2",
          "ticks": 28752,
          "time": 176.17638250000002,
          "velocity": 0.7874015748031497
        },
        {
          "duration": 0.14705875000001356,
          "durationTicks": 24,
          "midi": 47,
          "name": "B2",
          "ticks": 28752,
          "time": 176.17638250000002,
          "velocity": 0.7874015748031497
        },
        {
          "duration": 0.2941174999999987,
          "durationTicks": 48,
          "midi": 50,
          "name": "D3",
          "ticks": 28800,
          "time": 176.47050000000002,
          "velocity": 0.7874015748031497
        },
        {
          "duration": 0.2941174999999987,
          "durationTicks": 48,
          "midi": 45,
          "name": "A2",
          "ticks": 28800,
          "time": 176.47050000000002,
          "velocity": 0.7874015748031497
        },
        {
          "duration": 0.2941174999999987,
          "durationTicks": 48,
          "midi": 52,
          "name": "E3",
          "ticks": 28848,
          "time": 176.7646175,
          "velocity": 0.7874015748031497
        },
        {
          "duration": 0.2941174999999987,
          "durationTicks": 48,
          "midi": 47,
          "name": "B2",
          "ticks": 28848,
          "time": 176.7646175,
          "velocity": 0.7874015748031497
        },
        {
          "duration": 0.44117625000001226,
          "durationTicks": 72,
          "midi": 53,
          "name": "F3",
          "ticks": 28896,
          "time": 177.058735,
          "velocity": 0.7874015748031497
        },
        {
          "duration": 0.44117625000001226,
          "durationTicks": 72,
          "midi": 48,
          "name": "C3",
          "ticks": 28896,
          "time": 177.058735,
          "velocity": 0.7874015748031497
        },
        {
          "duration": 0.44117624999998384,
          "durationTicks": 72,
          "midi": 52,
          "name": "E3",
          "ticks": 28968,
          "time": 177.49991125000003,
          "velocity": 0.7874015748031497
        },
        {
          "duration": 0.44117624999998384,
          "durationTicks": 72,
          "midi": 47,
          "name": "B2",
          "ticks": 28968,
          "time": 177.49991125000003,
          "velocity": 0.7874015748031497
        },
        {
          "duration": 0.44117625000001226,
          "durationTicks": 72,
          "midi": 53,
          "name": "F3",
          "ticks": 29040,
          "time": 177.9410875,
          "velocity": 0.7874015748031497
        },
        {
          "duration": 0.44117625000001226,
          "durationTicks": 72,
          "midi": 48,
          "name": "C3",
          "ticks": 29040,
          "time": 177.9410875,
          "velocity": 0.7874015748031497
        },
        {
          "duration": 0.44117624999998384,
          "durationTicks": 72,
          "midi": 55,
          "name": "G3",
          "ticks": 29112,
          "time": 178.38226375000002,
          "velocity": 0.7874015748031497
        },
        {
          "duration": 0.44117624999998384,
          "durationTicks": 72,
          "midi": 50,
          "name": "D3",
          "ticks": 29112,
          "time": 178.38226375000002,
          "velocity": 0.7874015748031497
        },
        {
          "duration": 0.14705875000001356,
          "durationTicks": 24,
          "midi": 53,
          "name": "F3",
          "ticks": 29184,
          "time": 178.82344,
          "velocity": 0.7874015748031497
        },
        {
          "duration": 0.14705875000001356,
          "durationTicks": 24,
          "midi": 48,
          "name": "C3",
          "ticks": 29184,
          "time": 178.82344,
          "velocity": 0.7874015748031497
        },
        {
          "duration": 0.14705875000001356,
          "durationTicks": 24,
          "midi": 48,
          "name": "C3",
          "ticks": 29208,
          "time": 178.97049875000002,
          "velocity": 0.7874015748031497
        },
        {
          "duration": 0.14705875000001356,
          "durationTicks": 24,
          "midi": 53,
          "name": "F3",
          "ticks": 29208,
          "time": 178.97049875000002,
          "velocity": 0.7874015748031497
        },
        {
          "duration": 0.2941174999999987,
          "durationTicks": 48,
          "midi": 52,
          "name": "E3",
          "ticks": 29232,
          "time": 179.11755750000003,
          "velocity": 0.7874015748031497
        },
        {
          "duration": 0.2941174999999987,
          "durationTicks": 48,
          "midi": 47,
          "name": "B2",
          "ticks": 29232,
          "time": 179.11755750000003,
          "velocity": 0.7874015748031497
        },
        {
          "duration": 0.14705874999998514,
          "durationTicks": 24,
          "midi": 50,
          "name": "D3",
          "ticks": 29280,
          "time": 179.41167500000003,
          "velocity": 0.7874015748031497
        },
        {
          "duration": 0.14705874999998514,
          "durationTicks": 24,
          "midi": 45,
          "name": "A2",
          "ticks": 29280,
          "time": 179.41167500000003,
          "velocity": 0.7874015748031497
        },
        {
          "duration": 0.14705875000001356,
          "durationTicks": 24,
          "midi": 45,
          "name": "A2",
          "ticks": 29304,
          "time": 179.55873375000002,
          "velocity": 0.7874015748031497
        },
        {
          "duration": 0.14705875000001356,
          "durationTicks": 24,
          "midi": 50,
          "name": "D3",
          "ticks": 29304,
          "time": 179.55873375000002,
          "velocity": 0.7874015748031497
        },
        {
          "duration": 0.14705874999998514,
          "durationTicks": 24,
          "midi": 50,
          "name": "D3",
          "ticks": 29328,
          "time": 179.70579250000003,
          "velocity": 0.7874015748031497
        },
        {
          "duration": 0.14705874999998514,
          "durationTicks": 24,
          "midi": 45,
          "name": "A2",
          "ticks": 29328,
          "time": 179.70579250000003,
          "velocity": 0.7874015748031497
        },
        {
          "duration": 0.14705875000001356,
          "durationTicks": 24,
          "midi": 50,
          "name": "D3",
          "ticks": 29352,
          "time": 179.85285125000001,
          "velocity": 0.7874015748031497
        },
        {
          "duration": 0.14705875000001356,
          "durationTicks": 24,
          "midi": 45,
          "name": "A2",
          "ticks": 29352,
          "time": 179.85285125000001,
          "velocity": 0.7874015748031497
        },
        {
          "duration": 0.14705874999998514,
          "durationTicks": 24,
          "midi": 50,
          "name": "D3",
          "ticks": 29376,
          "time": 179.99991000000003,
          "velocity": 0.7874015748031497
        },
        {
          "duration": 0.14705874999998514,
          "durationTicks": 24,
          "midi": 45,
          "name": "A2",
          "ticks": 29376,
          "time": 179.99991000000003,
          "velocity": 0.7874015748031497
        },
        {
          "duration": 0.14705875000001356,
          "durationTicks": 24,
          "midi": 45,
          "name": "A2",
          "ticks": 29400,
          "time": 180.14696875,
          "velocity": 0.7874015748031497
        },
        {
          "duration": 0.14705875000001356,
          "durationTicks": 24,
          "midi": 50,
          "name": "D3",
          "ticks": 29400,
          "time": 180.14696875,
          "velocity": 0.7874015748031497
        },
        {
          "duration": 0.14705874999998514,
          "durationTicks": 24,
          "midi": 50,
          "name": "D3",
          "ticks": 29424,
          "time": 180.29402750000003,
          "velocity": 0.7874015748031497
        },
        {
          "duration": 0.14705874999998514,
          "durationTicks": 24,
          "midi": 45,
          "name": "A2",
          "ticks": 29424,
          "time": 180.29402750000003,
          "velocity": 0.7874015748031497
        },
        {
          "duration": 0.07352937500002099,
          "durationTicks": 12,
          "midi": 45,
          "name": "A2",
          "ticks": 29448,
          "time": 180.44108625,
          "velocity": 0.7874015748031497
        },
        {
          "duration": 0.07352937500002099,
          "durationTicks": 12,
          "midi": 50,
          "name": "D3",
          "ticks": 29448,
          "time": 180.44108625,
          "velocity": 0.7874015748031497
        },
        {
          "duration": 0.07352937499999257,
          "durationTicks": 12,
          "midi": 45,
          "name": "A2",
          "ticks": 29460,
          "time": 180.51461562500003,
          "velocity": 0.7874015748031497
        },
        {
          "duration": 0.07352937499999257,
          "durationTicks": 12,
          "midi": 50,
          "name": "D3",
          "ticks": 29460,
          "time": 180.51461562500003,
          "velocity": 0.7874015748031497
        },
        {
          "duration": 0.14705874999998514,
          "durationTicks": 24,
          "midi": 50,
          "name": "D3",
          "ticks": 29472,
          "time": 180.58814500000003,
          "velocity": 0.7874015748031497
        },
        {
          "duration": 0.14705874999998514,
          "durationTicks": 24,
          "midi": 45,
          "name": "A2",
          "ticks": 29472,
          "time": 180.58814500000003,
          "velocity": 0.7874015748031497
        },
        {
          "duration": 0.14705875000001356,
          "durationTicks": 24,
          "midi": 50,
          "name": "D3",
          "ticks": 29496,
          "time": 180.73520375,
          "velocity": 0.7874015748031497
        },
        {
          "duration": 0.14705875000001356,
          "durationTicks": 24,
          "midi": 45,
          "name": "A2",
          "ticks": 29496,
          "time": 180.73520375,
          "velocity": 0.7874015748031497
        },
        {
          "duration": 0.14705874999998514,
          "durationTicks": 24,
          "midi": 50,
          "name": "D3",
          "ticks": 29520,
          "time": 180.88226250000002,
          "velocity": 0.7874015748031497
        },
        {
          "duration": 0.14705874999998514,
          "durationTicks": 24,
          "midi": 45,
          "name": "A2",
          "ticks": 29520,
          "time": 180.88226250000002,
          "velocity": 0.7874015748031497
        },
        {
          "duration": 0.14705875000001356,
          "durationTicks": 24,
          "midi": 45,
          "name": "A2",
          "ticks": 29544,
          "time": 181.02932125,
          "velocity": 0.7874015748031497
        },
        {
          "duration": 0.14705875000001356,
          "durationTicks": 24,
          "midi": 50,
          "name": "D3",
          "ticks": 29544,
          "time": 181.02932125,
          "velocity": 0.7874015748031497
        },
        {
          "duration": 0.14705874999998514,
          "durationTicks": 24,
          "midi": 45,
          "name": "A2",
          "ticks": 29568,
          "time": 181.17638000000002,
          "velocity": 0.7874015748031497
        },
        {
          "duration": 0.14705874999998514,
          "durationTicks": 24,
          "midi": 50,
          "name": "D3",
          "ticks": 29568,
          "time": 181.17638000000002,
          "velocity": 0.7874015748031497
        },
        {
          "duration": 0.14705875000001356,
          "durationTicks": 24,
          "midi": 50,
          "name": "D3",
          "ticks": 29592,
          "time": 181.32343875,
          "velocity": 0.7874015748031497
        },
        {
          "duration": 0.14705875000001356,
          "durationTicks": 24,
          "midi": 45,
          "name": "A2",
          "ticks": 29592,
          "time": 181.32343875,
          "velocity": 0.7874015748031497
        },
        {
          "duration": 0.14705874999998514,
          "durationTicks": 24,
          "midi": 52,
          "name": "E3",
          "ticks": 29616,
          "time": 181.47049750000002,
          "velocity": 0.7874015748031497
        },
        {
          "duration": 0.14705874999998514,
          "durationTicks": 24,
          "midi": 47,
          "name": "B2",
          "ticks": 29616,
          "time": 181.47049750000002,
          "velocity": 0.7874015748031497
        },
        {
          "duration": 0.14705875000001356,
          "durationTicks": 24,
          "midi": 52,
          "name": "E3",
          "ticks": 29640,
          "time": 181.61755625,
          "velocity": 0.7874015748031497
        },
        {
          "duration": 0.14705875000001356,
          "durationTicks": 24,
          "midi": 47,
          "name": "B2",
          "ticks": 29640,
          "time": 181.61755625,
          "velocity": 0.7874015748031497
        },
        {
          "duration": 0.14705874999998514,
          "durationTicks": 24,
          "midi": 53,
          "name": "F3",
          "ticks": 29664,
          "time": 181.76461500000002,
          "velocity": 0.7874015748031497
        },
        {
          "duration": 0.14705874999998514,
          "durationTicks": 24,
          "midi": 48,
          "name": "C3",
          "ticks": 29664,
          "time": 181.76461500000002,
          "velocity": 0.7874015748031497
        },
        {
          "duration": 0.14705875000001356,
          "durationTicks": 24,
          "midi": 53,
          "name": "F3",
          "ticks": 29688,
          "time": 181.91167375,
          "velocity": 0.7874015748031497
        },
        {
          "duration": 0.14705875000001356,
          "durationTicks": 24,
          "midi": 48,
          "name": "C3",
          "ticks": 29688,
          "time": 181.91167375,
          "velocity": 0.7874015748031497
        },
        {
          "duration": 0.14705875000001356,
          "durationTicks": 24,
          "midi": 53,
          "name": "F3",
          "ticks": 29712,
          "time": 182.05873250000002,
          "velocity": 0.7874015748031497
        },
        {
          "duration": 0.14705875000001356,
          "durationTicks": 24,
          "midi": 48,
          "name": "C3",
          "ticks": 29712,
          "time": 182.05873250000002,
          "velocity": 0.7874015748031497
        },
        {
          "duration": 0.14705874999998514,
          "durationTicks": 24,
          "midi": 53,
          "name": "F3",
          "ticks": 29736,
          "time": 182.20579125000003,
          "velocity": 0.7874015748031497
        },
        {
          "duration": 0.14705874999998514,
          "durationTicks": 24,
          "midi": 48,
          "name": "C3",
          "ticks": 29736,
          "time": 182.20579125000003,
          "velocity": 0.7874015748031497
        },
        {
          "duration": 0.14705875000001356,
          "durationTicks": 24,
          "midi": 53,
          "name": "F3",
          "ticks": 29760,
          "time": 182.35285000000002,
          "velocity": 0.7874015748031497
        },
        {
          "duration": 0.14705875000001356,
          "durationTicks": 24,
          "midi": 48,
          "name": "C3",
          "ticks": 29760,
          "time": 182.35285000000002,
          "velocity": 0.7874015748031497
        },
        {
          "duration": 0.14705874999998514,
          "durationTicks": 24,
          "midi": 53,
          "name": "F3",
          "ticks": 29784,
          "time": 182.49990875000003,
          "velocity": 0.7874015748031497
        },
        {
          "duration": 0.14705874999998514,
          "durationTicks": 24,
          "midi": 48,
          "name": "C3",
          "ticks": 29784,
          "time": 182.49990875000003,
          "velocity": 0.7874015748031497
        },
        {
          "duration": 0.14705875000001356,
          "durationTicks": 24,
          "midi": 48,
          "name": "C3",
          "ticks": 29808,
          "time": 182.64696750000002,
          "velocity": 0.7874015748031497
        },
        {
          "duration": 0.14705875000001356,
          "durationTicks": 24,
          "midi": 53,
          "name": "F3",
          "ticks": 29808,
          "time": 182.64696750000002,
          "velocity": 0.7874015748031497
        },
        {
          "duration": 0.07352937499999257,
          "durationTicks": 12,
          "midi": 48,
          "name": "C3",
          "ticks": 29832,
          "time": 182.79402625000003,
          "velocity": 0.7874015748031497
        },
        {
          "duration": 0.07352937499999257,
          "durationTicks": 12,
          "midi": 53,
          "name": "F3",
          "ticks": 29832,
          "time": 182.79402625000003,
          "velocity": 0.7874015748031497
        },
        {
          "duration": 0.07352937499999257,
          "durationTicks": 12,
          "midi": 48,
          "name": "C3",
          "ticks": 29844,
          "time": 182.86755562500002,
          "velocity": 0.7874015748031497
        },
        {
          "duration": 0.07352937499999257,
          "durationTicks": 12,
          "midi": 53,
          "name": "F3",
          "ticks": 29844,
          "time": 182.86755562500002,
          "velocity": 0.7874015748031497
        },
        {
          "duration": 0.14705875000001356,
          "durationTicks": 24,
          "midi": 53,
          "name": "F3",
          "ticks": 29856,
          "time": 182.94108500000002,
          "velocity": 0.7874015748031497
        },
        {
          "duration": 0.14705875000001356,
          "durationTicks": 24,
          "midi": 48,
          "name": "C3",
          "ticks": 29856,
          "time": 182.94108500000002,
          "velocity": 0.7874015748031497
        },
        {
          "duration": 0.14705874999998514,
          "durationTicks": 24,
          "midi": 53,
          "name": "F3",
          "ticks": 29880,
          "time": 183.08814375000003,
          "velocity": 0.7874015748031497
        },
        {
          "duration": 0.14705874999998514,
          "durationTicks": 24,
          "midi": 48,
          "name": "C3",
          "ticks": 29880,
          "time": 183.08814375000003,
          "velocity": 0.7874015748031497
        },
        {
          "duration": 0.14705875000001356,
          "durationTicks": 24,
          "midi": 53,
          "name": "F3",
          "ticks": 29904,
          "time": 183.2352025,
          "velocity": 0.7874015748031497
        },
        {
          "duration": 0.14705875000001356,
          "durationTicks": 24,
          "midi": 48,
          "name": "C3",
          "ticks": 29904,
          "time": 183.2352025,
          "velocity": 0.7874015748031497
        },
        {
          "duration": 0.14705874999998514,
          "durationTicks": 24,
          "midi": 53,
          "name": "F3",
          "ticks": 29928,
          "time": 183.38226125000003,
          "velocity": 0.7874015748031497
        },
        {
          "duration": 0.14705874999998514,
          "durationTicks": 24,
          "midi": 48,
          "name": "C3",
          "ticks": 29928,
          "time": 183.38226125000003,
          "velocity": 0.7874015748031497
        },
        {
          "duration": 0.14705875000001356,
          "durationTicks": 24,
          "midi": 47,
          "name": "B2",
          "ticks": 29952,
          "time": 183.52932,
          "velocity": 0.7874015748031497
        },
        {
          "duration": 0.14705875000001356,
          "durationTicks": 24,
          "midi": 52,
          "name": "E3",
          "ticks": 29952,
          "time": 183.52932,
          "velocity": 0.7874015748031497
        },
        {
          "duration": 0.14705874999998514,
          "durationTicks": 24,
          "midi": 52,
          "name": "E3",
          "ticks": 29976,
          "time": 183.67637875000003,
          "velocity": 0.7874015748031497
        },
        {
          "duration": 0.14705874999998514,
          "durationTicks": 24,
          "midi": 47,
          "name": "B2",
          "ticks": 29976,
          "time": 183.67637875000003,
          "velocity": 0.7874015748031497
        },
        {
          "duration": 0.14705875000001356,
          "durationTicks": 24,
          "midi": 48,
          "name": "C3",
          "ticks": 30000,
          "time": 183.8234375,
          "velocity": 0.7874015748031497
        },
        {
          "duration": 0.14705875000001356,
          "durationTicks": 24,
          "midi": 43,
          "name": "G2",
          "ticks": 30000,
          "time": 183.8234375,
          "velocity": 0.7874015748031497
        },
        {
          "duration": 0.14705874999998514,
          "durationTicks": 24,
          "midi": 43,
          "name": "G2",
          "ticks": 30024,
          "time": 183.97049625000002,
          "velocity": 0.7874015748031497
        },
        {
          "duration": 0.14705874999998514,
          "durationTicks": 24,
          "midi": 48,
          "name": "C3",
          "ticks": 30024,
          "time": 183.97049625000002,
          "velocity": 0.7874015748031497
        },
        {
          "duration": 0.14705875000001356,
          "durationTicks": 24,
          "midi": 46,
          "name": "A#2",
          "ticks": 30048,
          "time": 184.117555,
          "velocity": 0.7874015748031497
        },
        {
          "duration": 0.14705875000001356,
          "durationTicks": 24,
          "midi": 41,
          "name": "F2",
          "ticks": 30048,
          "time": 184.117555,
          "velocity": 0.7874015748031497
        },
        {
          "duration": 0.14705874999998514,
          "durationTicks": 24,
          "midi": 46,
          "name": "A#2",
          "ticks": 30072,
          "time": 184.26461375000002,
          "velocity": 0.7874015748031497
        },
        {
          "duration": 0.14705874999998514,
          "durationTicks": 24,
          "midi": 41,
          "name": "F2",
          "ticks": 30072,
          "time": 184.26461375000002,
          "velocity": 0.7874015748031497
        },
        {
          "duration": 0.14705875000001356,
          "durationTicks": 24,
          "midi": 46,
          "name": "A#2",
          "ticks": 30096,
          "time": 184.4116725,
          "velocity": 0.7874015748031497
        },
        {
          "duration": 0.14705875000001356,
          "durationTicks": 24,
          "midi": 41,
          "name": "F2",
          "ticks": 30096,
          "time": 184.4116725,
          "velocity": 0.7874015748031497
        },
        {
          "duration": 0.14705874999998514,
          "durationTicks": 24,
          "midi": 46,
          "name": "A#2",
          "ticks": 30120,
          "time": 184.55873125000002,
          "velocity": 0.7874015748031497
        },
        {
          "duration": 0.14705874999998514,
          "durationTicks": 24,
          "midi": 41,
          "name": "F2",
          "ticks": 30120,
          "time": 184.55873125000002,
          "velocity": 0.7874015748031497
        },
        {
          "duration": 0.14705875000001356,
          "durationTicks": 24,
          "midi": 46,
          "name": "A#2",
          "ticks": 30144,
          "time": 184.70579,
          "velocity": 0.7874015748031497
        },
        {
          "duration": 0.14705875000001356,
          "durationTicks": 24,
          "midi": 41,
          "name": "F2",
          "ticks": 30144,
          "time": 184.70579,
          "velocity": 0.7874015748031497
        },
        {
          "duration": 0.14705874999998514,
          "durationTicks": 24,
          "midi": 41,
          "name": "F2",
          "ticks": 30168,
          "time": 184.85284875000002,
          "velocity": 0.7874015748031497
        },
        {
          "duration": 0.14705874999998514,
          "durationTicks": 24,
          "midi": 46,
          "name": "A#2",
          "ticks": 30168,
          "time": 184.85284875000002,
          "velocity": 0.7874015748031497
        },
        {
          "duration": 0.14705875000001356,
          "durationTicks": 24,
          "midi": 41,
          "name": "F2",
          "ticks": 30192,
          "time": 184.9999075,
          "velocity": 0.7874015748031497
        },
        {
          "duration": 0.14705875000001356,
          "durationTicks": 24,
          "midi": 46,
          "name": "A#2",
          "ticks": 30192,
          "time": 184.9999075,
          "velocity": 0.7874015748031497
        },
        {
          "duration": 0.07352937499999257,
          "durationTicks": 12,
          "midi": 46,
          "name": "A#2",
          "ticks": 30216,
          "time": 185.14696625000002,
          "velocity": 0.7874015748031497
        },
        {
          "duration": 0.07352937499999257,
          "durationTicks": 12,
          "midi": 41,
          "name": "F2",
          "ticks": 30216,
          "time": 185.14696625000002,
          "velocity": 0.7874015748031497
        },
        {
          "duration": 0.07352937500002099,
          "durationTicks": 12,
          "midi": 41,
          "name": "F2",
          "ticks": 30228,
          "time": 185.220495625,
          "velocity": 0.7874015748031497
        },
        {
          "duration": 0.07352937500002099,
          "durationTicks": 12,
          "midi": 46,
          "name": "A#2",
          "ticks": 30228,
          "time": 185.220495625,
          "velocity": 0.7874015748031497
        },
        {
          "duration": 0.14705874999998514,
          "durationTicks": 24,
          "midi": 41,
          "name": "F2",
          "ticks": 30240,
          "time": 185.29402500000003,
          "velocity": 0.7874015748031497
        },
        {
          "duration": 0.14705874999998514,
          "durationTicks": 24,
          "midi": 46,
          "name": "A#2",
          "ticks": 30240,
          "time": 185.29402500000003,
          "velocity": 0.7874015748031497
        },
        {
          "duration": 0.14705875000001356,
          "durationTicks": 24,
          "midi": 41,
          "name": "F2",
          "ticks": 30264,
          "time": 185.44108375000002,
          "velocity": 0.7874015748031497
        },
        {
          "duration": 0.14705875000001356,
          "durationTicks": 24,
          "midi": 46,
          "name": "A#2",
          "ticks": 30264,
          "time": 185.44108375000002,
          "velocity": 0.7874015748031497
        },
        {
          "duration": 0.14705874999998514,
          "durationTicks": 24,
          "midi": 41,
          "name": "F2",
          "ticks": 30288,
          "time": 185.58814250000003,
          "velocity": 0.7874015748031497
        },
        {
          "duration": 0.14705874999998514,
          "durationTicks": 24,
          "midi": 46,
          "name": "A#2",
          "ticks": 30288,
          "time": 185.58814250000003,
          "velocity": 0.7874015748031497
        },
        {
          "duration": 0.14705875000001356,
          "durationTicks": 24,
          "midi": 46,
          "name": "A#2",
          "ticks": 30312,
          "time": 185.73520125000002,
          "velocity": 0.7874015748031497
        },
        {
          "duration": 0.14705875000001356,
          "durationTicks": 24,
          "midi": 41,
          "name": "F2",
          "ticks": 30312,
          "time": 185.73520125000002,
          "velocity": 0.7874015748031497
        },
        {
          "duration": 0.14705874999998514,
          "durationTicks": 24,
          "midi": 46,
          "name": "A#2",
          "ticks": 30336,
          "time": 185.88226000000003,
          "velocity": 0.7874015748031497
        },
        {
          "duration": 0.14705874999998514,
          "durationTicks": 24,
          "midi": 41,
          "name": "F2",
          "ticks": 30336,
          "time": 185.88226000000003,
          "velocity": 0.7874015748031497
        },
        {
          "duration": 0.14705875000001356,
          "durationTicks": 24,
          "midi": 46,
          "name": "A#2",
          "ticks": 30360,
          "time": 186.02931875000002,
          "velocity": 0.7874015748031497
        },
        {
          "duration": 0.14705875000001356,
          "durationTicks": 24,
          "midi": 41,
          "name": "F2",
          "ticks": 30360,
          "time": 186.02931875000002,
          "velocity": 0.7874015748031497
        },
        {
          "duration": 0.14705874999998514,
          "durationTicks": 24,
          "midi": 41,
          "name": "F2",
          "ticks": 30384,
          "time": 186.17637750000003,
          "velocity": 0.7874015748031497
        },
        {
          "duration": 0.14705874999998514,
          "durationTicks": 24,
          "midi": 46,
          "name": "A#2",
          "ticks": 30384,
          "time": 186.17637750000003,
          "velocity": 0.7874015748031497
        },
        {
          "duration": 0.07352937499999257,
          "durationTicks": 12,
          "midi": 46,
          "name": "A#2",
          "ticks": 30408,
          "time": 186.32343625000001,
          "velocity": 0.7874015748031497
        },
        {
          "duration": 0.07352937499999257,
          "durationTicks": 12,
          "midi": 41,
          "name": "F2",
          "ticks": 30408,
          "time": 186.32343625000001,
          "velocity": 0.7874015748031497
        },
        {
          "duration": 0.07352937500002099,
          "durationTicks": 12,
          "midi": 41,
          "name": "F2",
          "ticks": 30420,
          "time": 186.396965625,
          "velocity": 0.7874015748031497
        },
        {
          "duration": 0.07352937500002099,
          "durationTicks": 12,
          "midi": 46,
          "name": "A#2",
          "ticks": 30420,
          "time": 186.396965625,
          "velocity": 0.7874015748031497
        },
        {
          "duration": 0.14705874999998514,
          "durationTicks": 24,
          "midi": 43,
          "name": "G2",
          "ticks": 30432,
          "time": 186.47049500000003,
          "velocity": 0.7874015748031497
        },
        {
          "duration": 0.14705874999998514,
          "durationTicks": 24,
          "midi": 48,
          "name": "C3",
          "ticks": 30432,
          "time": 186.47049500000003,
          "velocity": 0.7874015748031497
        },
        {
          "duration": 0.14705875000001356,
          "durationTicks": 24,
          "midi": 48,
          "name": "C3",
          "ticks": 30456,
          "time": 186.61755375,
          "velocity": 0.7874015748031497
        },
        {
          "duration": 0.14705875000001356,
          "durationTicks": 24,
          "midi": 43,
          "name": "G2",
          "ticks": 30456,
          "time": 186.61755375,
          "velocity": 0.7874015748031497
        },
        {
          "duration": 0.14705874999998514,
          "durationTicks": 24,
          "midi": 43,
          "name": "G2",
          "ticks": 30480,
          "time": 186.76461250000003,
          "velocity": 0.7874015748031497
        },
        {
          "duration": 0.14705874999998514,
          "durationTicks": 24,
          "midi": 48,
          "name": "C3",
          "ticks": 30480,
          "time": 186.76461250000003,
          "velocity": 0.7874015748031497
        },
        {
          "duration": 0.14705875000001356,
          "durationTicks": 24,
          "midi": 43,
          "name": "G2",
          "ticks": 30504,
          "time": 186.91167125,
          "velocity": 0.7874015748031497
        },
        {
          "duration": 0.14705875000001356,
          "durationTicks": 24,
          "midi": 48,
          "name": "C3",
          "ticks": 30504,
          "time": 186.91167125,
          "velocity": 0.7874015748031497
        },
        {
          "duration": 0.14705874999998514,
          "durationTicks": 24,
          "midi": 43,
          "name": "G2",
          "ticks": 30528,
          "time": 187.05873000000003,
          "velocity": 0.7874015748031497
        },
        {
          "duration": 0.14705874999998514,
          "durationTicks": 24,
          "midi": 48,
          "name": "C3",
          "ticks": 30528,
          "time": 187.05873000000003,
          "velocity": 0.7874015748031497
        },
        {
          "duration": 0.14705875000001356,
          "durationTicks": 24,
          "midi": 48,
          "name": "C3",
          "ticks": 30552,
          "time": 187.20578875,
          "velocity": 0.7874015748031497
        },
        {
          "duration": 0.14705875000001356,
          "durationTicks": 24,
          "midi": 43,
          "name": "G2",
          "ticks": 30552,
          "time": 187.20578875,
          "velocity": 0.7874015748031497
        },
        {
          "duration": 0.14705874999998514,
          "durationTicks": 24,
          "midi": 48,
          "name": "C3",
          "ticks": 30576,
          "time": 187.35284750000002,
          "velocity": 0.7874015748031497
        },
        {
          "duration": 0.14705874999998514,
          "durationTicks": 24,
          "midi": 43,
          "name": "G2",
          "ticks": 30576,
          "time": 187.35284750000002,
          "velocity": 0.7874015748031497
        },
        {
          "duration": 0.07352937500002099,
          "durationTicks": 12,
          "midi": 43,
          "name": "G2",
          "ticks": 30600,
          "time": 187.49990625,
          "velocity": 0.7874015748031497
        },
        {
          "duration": 0.07352937500002099,
          "durationTicks": 12,
          "midi": 48,
          "name": "C3",
          "ticks": 30600,
          "time": 187.49990625,
          "velocity": 0.7874015748031497
        },
        {
          "duration": 0.07352937499999257,
          "durationTicks": 12,
          "midi": 43,
          "name": "G2",
          "ticks": 30612,
          "time": 187.57343562500003,
          "velocity": 0.7874015748031497
        },
        {
          "duration": 0.07352937499999257,
          "durationTicks": 12,
          "midi": 48,
          "name": "C3",
          "ticks": 30612,
          "time": 187.57343562500003,
          "velocity": 0.7874015748031497
        },
        {
          "duration": 0.14705874999998514,
          "durationTicks": 24,
          "midi": 48,
          "name": "C3",
          "ticks": 30624,
          "time": 187.64696500000002,
          "velocity": 0.7874015748031497
        },
        {
          "duration": 0.14705874999998514,
          "durationTicks": 24,
          "midi": 43,
          "name": "G2",
          "ticks": 30624,
          "time": 187.64696500000002,
          "velocity": 0.7874015748031497
        },
        {
          "duration": 0.14705875000001356,
          "durationTicks": 24,
          "midi": 48,
          "name": "C3",
          "ticks": 30648,
          "time": 187.79402375,
          "velocity": 0.7874015748031497
        },
        {
          "duration": 0.14705875000001356,
          "durationTicks": 24,
          "midi": 43,
          "name": "G2",
          "ticks": 30648,
          "time": 187.79402375,
          "velocity": 0.7874015748031497
        },
        {
          "duration": 0.14705874999998514,
          "durationTicks": 24,
          "midi": 43,
          "name": "G2",
          "ticks": 30672,
          "time": 187.94108250000002,
          "velocity": 0.7874015748031497
        },
        {
          "duration": 0.14705874999998514,
          "durationTicks": 24,
          "midi": 48,
          "name": "C3",
          "ticks": 30672,
          "time": 187.94108250000002,
          "velocity": 0.7874015748031497
        },
        {
          "duration": 0.14705875000001356,
          "durationTicks": 24,
          "midi": 48,
          "name": "C3",
          "ticks": 30696,
          "time": 188.08814125,
          "velocity": 0.7874015748031497
        },
        {
          "duration": 0.14705875000001356,
          "durationTicks": 24,
          "midi": 43,
          "name": "G2",
          "ticks": 30696,
          "time": 188.08814125,
          "velocity": 0.7874015748031497
        },
        {
          "duration": 0.14705875000001356,
          "durationTicks": 24,
          "midi": 48,
          "name": "C3",
          "ticks": 30720,
          "time": 188.23520000000002,
          "velocity": 0.7874015748031497
        },
        {
          "duration": 0.14705875000001356,
          "durationTicks": 24,
          "midi": 43,
          "name": "G2",
          "ticks": 30720,
          "time": 188.23520000000002,
          "velocity": 0.7874015748031497
        },
        {
          "duration": 0.14705874999998514,
          "durationTicks": 24,
          "midi": 48,
          "name": "C3",
          "ticks": 30744,
          "time": 188.38225875000003,
          "velocity": 0.7874015748031497
        },
        {
          "duration": 0.14705874999998514,
          "durationTicks": 24,
          "midi": 43,
          "name": "G2",
          "ticks": 30744,
          "time": 188.38225875000003,
          "velocity": 0.7874015748031497
        },
        {
          "duration": 0.14705875000001356,
          "durationTicks": 24,
          "midi": 43,
          "name": "G2",
          "ticks": 30768,
          "time": 188.52931750000002,
          "velocity": 0.7874015748031497
        },
        {
          "duration": 0.14705875000001356,
          "durationTicks": 24,
          "midi": 48,
          "name": "C3",
          "ticks": 30768,
          "time": 188.52931750000002,
          "velocity": 0.7874015748031497
        },
        {
          "duration": 0.07352937499999257,
          "durationTicks": 12,
          "midi": 43,
          "name": "G2",
          "ticks": 30792,
          "time": 188.67637625000003,
          "velocity": 0.7874015748031497
        },
        {
          "duration": 0.07352937499999257,
          "durationTicks": 12,
          "midi": 48,
          "name": "C3",
          "ticks": 30792,
          "time": 188.67637625000003,
          "velocity": 0.7874015748031497
        },
        {
          "duration": 0.07352937499999257,
          "durationTicks": 12,
          "midi": 48,
          "name": "C3",
          "ticks": 30804,
          "time": 188.74990562500003,
          "velocity": 0.7874015748031497
        },
        {
          "duration": 0.07352937499999257,
          "durationTicks": 12,
          "midi": 43,
          "name": "G2",
          "ticks": 30804,
          "time": 188.74990562500003,
          "velocity": 0.7874015748031497
        },
        {
          "duration": 0.14705875000001356,
          "durationTicks": 24,
          "midi": 45,
          "name": "A2",
          "ticks": 30816,
          "time": 188.82343500000002,
          "velocity": 0.7874015748031497
        },
        {
          "duration": 0.14705875000001356,
          "durationTicks": 24,
          "midi": 50,
          "name": "D3",
          "ticks": 30816,
          "time": 188.82343500000002,
          "velocity": 0.7874015748031497
        },
        {
          "duration": 0.14705874999998514,
          "durationTicks": 24,
          "midi": 45,
          "name": "A2",
          "ticks": 30840,
          "time": 188.97049375000003,
          "velocity": 0.7874015748031497
        },
        {
          "duration": 0.14705874999998514,
          "durationTicks": 24,
          "midi": 50,
          "name": "D3",
          "ticks": 30840,
          "time": 188.97049375000003,
          "velocity": 0.7874015748031497
        },
        {
          "duration": 0.14705875000001356,
          "durationTicks": 24,
          "midi": 45,
          "name": "A2",
          "ticks": 30864,
          "time": 189.11755250000002,
          "velocity": 0.7874015748031497
        },
        {
          "duration": 0.14705875000001356,
          "durationTicks": 24,
          "midi": 50,
          "name": "D3",
          "ticks": 30864,
          "time": 189.11755250000002,
          "velocity": 0.7874015748031497
        },
        {
          "duration": 0.14705874999998514,
          "durationTicks": 24,
          "midi": 50,
          "name": "D3",
          "ticks": 30888,
          "time": 189.26461125000003,
          "velocity": 0.7874015748031497
        },
        {
          "duration": 0.14705874999998514,
          "durationTicks": 24,
          "midi": 45,
          "name": "A2",
          "ticks": 30888,
          "time": 189.26461125000003,
          "velocity": 0.7874015748031497
        },
        {
          "duration": 0.14705875000001356,
          "durationTicks": 24,
          "midi": 50,
          "name": "D3",
          "ticks": 30912,
          "time": 189.41167000000002,
          "velocity": 0.7874015748031497
        },
        {
          "duration": 0.14705875000001356,
          "durationTicks": 24,
          "midi": 45,
          "name": "A2",
          "ticks": 30912,
          "time": 189.41167000000002,
          "velocity": 0.7874015748031497
        },
        {
          "duration": 0.14705874999998514,
          "durationTicks": 24,
          "midi": 50,
          "name": "D3",
          "ticks": 30936,
          "time": 189.55872875000003,
          "velocity": 0.7874015748031497
        },
        {
          "duration": 0.14705874999998514,
          "durationTicks": 24,
          "midi": 45,
          "name": "A2",
          "ticks": 30936,
          "time": 189.55872875000003,
          "velocity": 0.7874015748031497
        },
        {
          "duration": 0.14705875000001356,
          "durationTicks": 24,
          "midi": 50,
          "name": "D3",
          "ticks": 30960,
          "time": 189.7057875,
          "velocity": 0.7874015748031497
        },
        {
          "duration": 0.14705875000001356,
          "durationTicks": 24,
          "midi": 45,
          "name": "A2",
          "ticks": 30960,
          "time": 189.7057875,
          "velocity": 0.7874015748031497
        },
        {
          "duration": 0.07352937499999257,
          "durationTicks": 12,
          "midi": 50,
          "name": "D3",
          "ticks": 30984,
          "time": 189.85284625000003,
          "velocity": 0.7874015748031497
        },
        {
          "duration": 0.07352937499999257,
          "durationTicks": 12,
          "midi": 45,
          "name": "A2",
          "ticks": 30984,
          "time": 189.85284625000003,
          "velocity": 0.7874015748031497
        },
        {
          "duration": 0.07352937499999257,
          "durationTicks": 12,
          "midi": 45,
          "name": "A2",
          "ticks": 30996,
          "time": 189.92637562500002,
          "velocity": 0.7874015748031497
        },
        {
          "duration": 0.07352937499999257,
          "durationTicks": 12,
          "midi": 50,
          "name": "D3",
          "ticks": 30996,
          "time": 189.92637562500002,
          "velocity": 0.7874015748031497
        },
        {
          "duration": 0.14705875000001356,
          "durationTicks": 24,
          "midi": 45,
          "name": "A2",
          "ticks": 31008,
          "time": 189.999905,
          "velocity": 0.7874015748031497
        },
        {
          "duration": 0.14705875000001356,
          "durationTicks": 24,
          "midi": 50,
          "name": "D3",
          "ticks": 31008,
          "time": 189.999905,
          "velocity": 0.7874015748031497
        },
        {
          "duration": 0.14705874999998514,
          "durationTicks": 24,
          "midi": 45,
          "name": "A2",
          "ticks": 31032,
          "time": 190.14696375000003,
          "velocity": 0.7874015748031497
        },
        {
          "duration": 0.14705874999998514,
          "durationTicks": 24,
          "midi": 50,
          "name": "D3",
          "ticks": 31032,
          "time": 190.14696375000003,
          "velocity": 0.7874015748031497
        },
        {
          "duration": 0.14705875000001356,
          "durationTicks": 24,
          "midi": 50,
          "name": "D3",
          "ticks": 31056,
          "time": 190.2940225,
          "velocity": 0.7874015748031497
        },
        {
          "duration": 0.14705875000001356,
          "durationTicks": 24,
          "midi": 45,
          "name": "A2",
          "ticks": 31056,
          "time": 190.2940225,
          "velocity": 0.7874015748031497
        },
        {
          "duration": 0.14705874999998514,
          "durationTicks": 24,
          "midi": 45,
          "name": "A2",
          "ticks": 31080,
          "time": 190.44108125000002,
          "velocity": 0.7874015748031497
        },
        {
          "duration": 0.14705874999998514,
          "durationTicks": 24,
          "midi": 50,
          "name": "D3",
          "ticks": 31080,
          "time": 190.44108125000002,
          "velocity": 0.7874015748031497
        },
        {
          "duration": 0.14705875000001356,
          "durationTicks": 24,
          "midi": 50,
          "name": "D3",
          "ticks": 31104,
          "time": 190.58814,
          "velocity": 0.7874015748031497
        },
        {
          "duration": 0.14705875000001356,
          "durationTicks": 24,
          "midi": 45,
          "name": "A2",
          "ticks": 31104,
          "time": 190.58814,
          "velocity": 0.7874015748031497
        },
        {
          "duration": 0.14705874999998514,
          "durationTicks": 24,
          "midi": 45,
          "name": "A2",
          "ticks": 31128,
          "time": 190.73519875000002,
          "velocity": 0.7874015748031497
        },
        {
          "duration": 0.14705874999998514,
          "durationTicks": 24,
          "midi": 50,
          "name": "D3",
          "ticks": 31128,
          "time": 190.73519875000002,
          "velocity": 0.7874015748031497
        },
        {
          "duration": 0.14705875000001356,
          "durationTicks": 24,
          "midi": 47,
          "name": "B2",
          "ticks": 31152,
          "time": 190.8822575,
          "velocity": 0.7874015748031497
        },
        {
          "duration": 0.14705875000001356,
          "durationTicks": 24,
          "midi": 52,
          "name": "E3",
          "ticks": 31152,
          "time": 190.8822575,
          "velocity": 0.7874015748031497
        },
        {
          "duration": 0.14705874999998514,
          "durationTicks": 24,
          "midi": 52,
          "name": "E3",
          "ticks": 31176,
          "time": 191.02931625000002,
          "velocity": 0.7874015748031497
        },
        {
          "duration": 0.14705874999998514,
          "durationTicks": 24,
          "midi": 47,
          "name": "B2",
          "ticks": 31176,
          "time": 191.02931625000002,
          "velocity": 0.7874015748031497
        },
        {
          "duration": 0.14705875000001356,
          "durationTicks": 24,
          "midi": 48,
          "name": "C3",
          "ticks": 31200,
          "time": 191.176375,
          "velocity": 0.7874015748031497
        },
        {
          "duration": 0.14705875000001356,
          "durationTicks": 24,
          "midi": 53,
          "name": "F3",
          "ticks": 31200,
          "time": 191.176375,
          "velocity": 0.7874015748031497
        },
        {
          "duration": 0.14705875000001356,
          "durationTicks": 24,
          "midi": 53,
          "name": "F3",
          "ticks": 31224,
          "time": 191.32343375000002,
          "velocity": 0.7874015748031497
        },
        {
          "duration": 0.14705875000001356,
          "durationTicks": 24,
          "midi": 48,
          "name": "C3",
          "ticks": 31224,
          "time": 191.32343375000002,
          "velocity": 0.7874015748031497
        },
        {
          "duration": 0.14705874999998514,
          "durationTicks": 24,
          "midi": 53,
          "name": "F3",
          "ticks": 31248,
          "time": 191.47049250000003,
          "velocity": 0.7874015748031497
        },
        {
          "duration": 0.14705874999998514,
          "durationTicks": 24,
          "midi": 48,
          "name": "C3",
          "ticks": 31248,
          "time": 191.47049250000003,
          "velocity": 0.7874015748031497
        },
        {
          "duration": 0.14705875000001356,
          "durationTicks": 24,
          "midi": 48,
          "name": "C3",
          "ticks": 31272,
          "time": 191.61755125000002,
          "velocity": 0.7874015748031497
        },
        {
          "duration": 0.14705875000001356,
          "durationTicks": 24,
          "midi": 53,
          "name": "F3",
          "ticks": 31272,
          "time": 191.61755125000002,
          "velocity": 0.7874015748031497
        },
        {
          "duration": 0.14705874999998514,
          "durationTicks": 24,
          "midi": 48,
          "name": "C3",
          "ticks": 31296,
          "time": 191.76461000000003,
          "velocity": 0.7874015748031497
        },
        {
          "duration": 0.14705874999998514,
          "durationTicks": 24,
          "midi": 53,
          "name": "F3",
          "ticks": 31296,
          "time": 191.76461000000003,
          "velocity": 0.7874015748031497
        },
        {
          "duration": 0.14705875000001356,
          "durationTicks": 24,
          "midi": 53,
          "name": "F3",
          "ticks": 31320,
          "time": 191.91166875000002,
          "velocity": 0.7874015748031497
        },
        {
          "duration": 0.14705875000001356,
          "durationTicks": 24,
          "midi": 48,
          "name": "C3",
          "ticks": 31320,
          "time": 191.91166875000002,
          "velocity": 0.7874015748031497
        },
        {
          "duration": 0.14705874999998514,
          "durationTicks": 24,
          "midi": 48,
          "name": "C3",
          "ticks": 31344,
          "time": 192.05872750000003,
          "velocity": 0.7874015748031497
        },
        {
          "duration": 0.14705874999998514,
          "durationTicks": 24,
          "midi": 53,
          "name": "F3",
          "ticks": 31344,
          "time": 192.05872750000003,
          "velocity": 0.7874015748031497
        },
        {
          "duration": 0.07352937499999257,
          "durationTicks": 12,
          "midi": 48,
          "name": "C3",
          "ticks": 31368,
          "time": 192.20578625000002,
          "velocity": 0.7874015748031497
        },
        {
          "duration": 0.07352937499999257,
          "durationTicks": 12,
          "midi": 53,
          "name": "F3",
          "ticks": 31368,
          "time": 192.20578625000002,
          "velocity": 0.7874015748031497
        },
        {
          "duration": 0.07352937500002099,
          "durationTicks": 12,
          "midi": 48,
          "name": "C3",
          "ticks": 31380,
          "time": 192.279315625,
          "velocity": 0.7874015748031497
        },
        {
          "duration": 0.07352937500002099,
          "durationTicks": 12,
          "midi": 53,
          "name": "F3",
          "ticks": 31380,
          "time": 192.279315625,
          "velocity": 0.7874015748031497
        },
        {
          "duration": 0.14705874999998514,
          "durationTicks": 24,
          "midi": 53,
          "name": "F3",
          "ticks": 31392,
          "time": 192.35284500000003,
          "velocity": 0.7874015748031497
        },
        {
          "duration": 0.14705874999998514,
          "durationTicks": 24,
          "midi": 48,
          "name": "C3",
          "ticks": 31392,
          "time": 192.35284500000003,
          "velocity": 0.7874015748031497
        },
        {
          "duration": 0.14705875000001356,
          "durationTicks": 24,
          "midi": 53,
          "name": "F3",
          "ticks": 31416,
          "time": 192.49990375000002,
          "velocity": 0.7874015748031497
        },
        {
          "duration": 0.14705875000001356,
          "durationTicks": 24,
          "midi": 48,
          "name": "C3",
          "ticks": 31416,
          "time": 192.49990375000002,
          "velocity": 0.7874015748031497
        },
        {
          "duration": 0.14705874999998514,
          "durationTicks": 24,
          "midi": 48,
          "name": "C3",
          "ticks": 31440,
          "time": 192.64696250000003,
          "velocity": 0.7874015748031497
        },
        {
          "duration": 0.14705874999998514,
          "durationTicks": 24,
          "midi": 53,
          "name": "F3",
          "ticks": 31440,
          "time": 192.64696250000003,
          "velocity": 0.7874015748031497
        },
        {
          "duration": 0.14705875000001356,
          "durationTicks": 24,
          "midi": 53,
          "name": "F3",
          "ticks": 31464,
          "time": 192.79402125000001,
          "velocity": 0.7874015748031497
        },
        {
          "duration": 0.14705875000001356,
          "durationTicks": 24,
          "midi": 48,
          "name": "C3",
          "ticks": 31464,
          "time": 192.79402125000001,
          "velocity": 0.7874015748031497
        },
        {
          "duration": 0.14705874999998514,
          "durationTicks": 24,
          "midi": 52,
          "name": "E3",
          "ticks": 31488,
          "time": 192.94108000000003,
          "velocity": 0.7874015748031497
        },
        {
          "duration": 0.14705874999998514,
          "durationTicks": 24,
          "midi": 47,
          "name": "B2",
          "ticks": 31488,
          "time": 192.94108000000003,
          "velocity": 0.7874015748031497
        },
        {
          "duration": 0.14705875000001356,
          "durationTicks": 24,
          "midi": 47,
          "name": "B2",
          "ticks": 31512,
          "time": 193.08813875,
          "velocity": 0.7874015748031497
        },
        {
          "duration": 0.14705875000001356,
          "durationTicks": 24,
          "midi": 52,
          "name": "E3",
          "ticks": 31512,
          "time": 193.08813875,
          "velocity": 0.7874015748031497
        },
        {
          "duration": 0.14705874999998514,
          "durationTicks": 24,
          "midi": 48,
          "name": "C3",
          "ticks": 31536,
          "time": 193.23519750000003,
          "velocity": 0.7874015748031497
        },
        {
          "duration": 0.14705874999998514,
          "durationTicks": 24,
          "midi": 43,
          "name": "G2",
          "ticks": 31536,
          "time": 193.23519750000003,
          "velocity": 0.7874015748031497
        },
        {
          "duration": 0.14705875000001356,
          "durationTicks": 24,
          "midi": 43,
          "name": "G2",
          "ticks": 31560,
          "time": 193.38225625,
          "velocity": 0.7874015748031497
        },
        {
          "duration": 0.14705875000001356,
          "durationTicks": 24,
          "midi": 48,
          "name": "C3",
          "ticks": 31560,
          "time": 193.38225625,
          "velocity": 0.7874015748031497
        },
        {
          "duration": 0.14705874999998514,
          "durationTicks": 24,
          "midi": 46,
          "name": "A#2",
          "ticks": 31584,
          "time": 193.52931500000003,
          "velocity": 0.7874015748031497
        },
        {
          "duration": 0.14705874999998514,
          "durationTicks": 24,
          "midi": 41,
          "name": "F2",
          "ticks": 31584,
          "time": 193.52931500000003,
          "velocity": 0.7874015748031497
        },
        {
          "duration": 0.14705875000001356,
          "durationTicks": 24,
          "midi": 46,
          "name": "A#2",
          "ticks": 31608,
          "time": 193.67637375,
          "velocity": 0.7874015748031497
        },
        {
          "duration": 0.14705875000001356,
          "durationTicks": 24,
          "midi": 41,
          "name": "F2",
          "ticks": 31608,
          "time": 193.67637375,
          "velocity": 0.7874015748031497
        },
        {
          "duration": 0.14705874999998514,
          "durationTicks": 24,
          "midi": 46,
          "name": "A#2",
          "ticks": 31632,
          "time": 193.82343250000002,
          "velocity": 0.7874015748031497
        },
        {
          "duration": 0.14705874999998514,
          "durationTicks": 24,
          "midi": 41,
          "name": "F2",
          "ticks": 31632,
          "time": 193.82343250000002,
          "velocity": 0.7874015748031497
        },
        {
          "duration": 0.14705875000001356,
          "durationTicks": 24,
          "midi": 46,
          "name": "A#2",
          "ticks": 31656,
          "time": 193.97049125,
          "velocity": 0.7874015748031497
        },
        {
          "duration": 0.14705875000001356,
          "durationTicks": 24,
          "midi": 41,
          "name": "F2",
          "ticks": 31656,
          "time": 193.97049125,
          "velocity": 0.7874015748031497
        },
        {
          "duration": 0.14705874999998514,
          "durationTicks": 24,
          "midi": 41,
          "name": "F2",
          "ticks": 31680,
          "time": 194.11755000000002,
          "velocity": 0.7874015748031497
        },
        {
          "duration": 0.14705874999998514,
          "durationTicks": 24,
          "midi": 46,
          "name": "A#2",
          "ticks": 31680,
          "time": 194.11755000000002,
          "velocity": 0.7874015748031497
        },
        {
          "duration": 0.14705875000001356,
          "durationTicks": 24,
          "midi": 41,
          "name": "F2",
          "ticks": 31704,
          "time": 194.26460875,
          "velocity": 0.7874015748031497
        },
        {
          "duration": 0.14705875000001356,
          "durationTicks": 24,
          "midi": 46,
          "name": "A#2",
          "ticks": 31704,
          "time": 194.26460875,
          "velocity": 0.7874015748031497
        },
        {
          "duration": 0.14705875000001356,
          "durationTicks": 24,
          "midi": 46,
          "name": "A#2",
          "ticks": 31728,
          "time": 194.41166750000002,
          "velocity": 0.7874015748031497
        },
        {
          "duration": 0.14705875000001356,
          "durationTicks": 24,
          "midi": 41,
          "name": "F2",
          "ticks": 31728,
          "time": 194.41166750000002,
          "velocity": 0.7874015748031497
        },
        {
          "duration": 0.07352937499999257,
          "durationTicks": 12,
          "midi": 46,
          "name": "A#2",
          "ticks": 31752,
          "time": 194.55872625000003,
          "velocity": 0.7874015748031497
        },
        {
          "duration": 0.07352937499999257,
          "durationTicks": 12,
          "midi": 41,
          "name": "F2",
          "ticks": 31752,
          "time": 194.55872625000003,
          "velocity": 0.7874015748031497
        },
        {
          "duration": 0.07352937499999257,
          "durationTicks": 12,
          "midi": 41,
          "name": "F2",
          "ticks": 31764,
          "time": 194.63225562500003,
          "velocity": 0.7874015748031497
        },
        {
          "duration": 0.07352937499999257,
          "durationTicks": 12,
          "midi": 46,
          "name": "A#2",
          "ticks": 31764,
          "time": 194.63225562500003,
          "velocity": 0.7874015748031497
        },
        {
          "duration": 0.14705875000001356,
          "durationTicks": 24,
          "midi": 46,
          "name": "A#2",
          "ticks": 31776,
          "time": 194.70578500000002,
          "velocity": 0.7874015748031497
        },
        {
          "duration": 0.14705875000001356,
          "durationTicks": 24,
          "midi": 41,
          "name": "F2",
          "ticks": 31776,
          "time": 194.70578500000002,
          "velocity": 0.7874015748031497
        },
        {
          "duration": 0.14705874999998514,
          "durationTicks": 24,
          "midi": 46,
          "name": "A#2",
          "ticks": 31800,
          "time": 194.85284375000003,
          "velocity": 0.7874015748031497
        },
        {
          "duration": 0.14705874999998514,
          "durationTicks": 24,
          "midi": 41,
          "name": "F2",
          "ticks": 31800,
          "time": 194.85284375000003,
          "velocity": 0.7874015748031497
        },
        {
          "duration": 0.14705875000001356,
          "durationTicks": 24,
          "midi": 46,
          "name": "A#2",
          "ticks": 31824,
          "time": 194.99990250000002,
          "velocity": 0.7874015748031497
        },
        {
          "duration": 0.14705875000001356,
          "durationTicks": 24,
          "midi": 41,
          "name": "F2",
          "ticks": 31824,
          "time": 194.99990250000002,
          "velocity": 0.7874015748031497
        },
        {
          "duration": 0.14705874999998514,
          "durationTicks": 24,
          "midi": 41,
          "name": "F2",
          "ticks": 31848,
          "time": 195.14696125000003,
          "velocity": 0.7874015748031497
        },
        {
          "duration": 0.14705874999998514,
          "durationTicks": 24,
          "midi": 46,
          "name": "A#2",
          "ticks": 31848,
          "time": 195.14696125000003,
          "velocity": 0.7874015748031497
        },
        {
          "duration": 0.14705875000001356,
          "durationTicks": 24,
          "midi": 41,
          "name": "F2",
          "ticks": 31872,
          "time": 195.29402000000002,
          "velocity": 0.7874015748031497
        },
        {
          "duration": 0.14705875000001356,
          "durationTicks": 24,
          "midi": 46,
          "name": "A#2",
          "ticks": 31872,
          "time": 195.29402000000002,
          "velocity": 0.7874015748031497
        },
        {
          "duration": 0.14705874999998514,
          "durationTicks": 24,
          "midi": 46,
          "name": "A#2",
          "ticks": 31896,
          "time": 195.44107875000003,
          "velocity": 0.7874015748031497
        },
        {
          "duration": 0.14705874999998514,
          "durationTicks": 24,
          "midi": 41,
          "name": "F2",
          "ticks": 31896,
          "time": 195.44107875000003,
          "velocity": 0.7874015748031497
        },
        {
          "duration": 0.14705875000001356,
          "durationTicks": 24,
          "midi": 41,
          "name": "F2",
          "ticks": 31920,
          "time": 195.58813750000002,
          "velocity": 0.7874015748031497
        },
        {
          "duration": 0.14705875000001356,
          "durationTicks": 24,
          "midi": 46,
          "name": "A#2",
          "ticks": 31920,
          "time": 195.58813750000002,
          "velocity": 0.7874015748031497
        },
        {
          "duration": 0.07352937499999257,
          "durationTicks": 12,
          "midi": 41,
          "name": "F2",
          "ticks": 31944,
          "time": 195.73519625000003,
          "velocity": 0.7874015748031497
        },
        {
          "duration": 0.07352937499999257,
          "durationTicks": 12,
          "midi": 46,
          "name": "A#2",
          "ticks": 31944,
          "time": 195.73519625000003,
          "velocity": 0.7874015748031497
        },
        {
          "duration": 0.07352937499999257,
          "durationTicks": 12,
          "midi": 46,
          "name": "A#2",
          "ticks": 31956,
          "time": 195.80872562500002,
          "velocity": 0.7874015748031497
        },
        {
          "duration": 0.07352937499999257,
          "durationTicks": 12,
          "midi": 41,
          "name": "F2",
          "ticks": 31956,
          "time": 195.80872562500002,
          "velocity": 0.7874015748031497
        },
        {
          "duration": 0.14705875000001356,
          "durationTicks": 24,
          "midi": 48,
          "name": "C3",
          "ticks": 31968,
          "time": 195.88225500000001,
          "velocity": 0.7874015748031497
        },
        {
          "duration": 0.14705875000001356,
          "durationTicks": 24,
          "midi": 43,
          "name": "G2",
          "ticks": 31968,
          "time": 195.88225500000001,
          "velocity": 0.7874015748031497
        },
        {
          "duration": 0.14705874999998514,
          "durationTicks": 24,
          "midi": 48,
          "name": "C3",
          "ticks": 31992,
          "time": 196.02931375000003,
          "velocity": 0.7874015748031497
        },
        {
          "duration": 0.14705874999998514,
          "durationTicks": 24,
          "midi": 43,
          "name": "G2",
          "ticks": 31992,
          "time": 196.02931375000003,
          "velocity": 0.7874015748031497
        },
        {
          "duration": 0.14705875000001356,
          "durationTicks": 24,
          "midi": 43,
          "name": "G2",
          "ticks": 32016,
          "time": 196.1763725,
          "velocity": 0.7874015748031497
        },
        {
          "duration": 0.14705875000001356,
          "durationTicks": 24,
          "midi": 48,
          "name": "C3",
          "ticks": 32016,
          "time": 196.1763725,
          "velocity": 0.7874015748031497
        },
        {
          "duration": 0.14705874999998514,
          "durationTicks": 24,
          "midi": 48,
          "name": "C3",
          "ticks": 32040,
          "time": 196.32343125000003,
          "velocity": 0.7874015748031497
        },
        {
          "duration": 0.14705874999998514,
          "durationTicks": 24,
          "midi": 43,
          "name": "G2",
          "ticks": 32040,
          "time": 196.32343125000003,
          "velocity": 0.7874015748031497
        },
        {
          "duration": 0.14705875000001356,
          "durationTicks": 24,
          "midi": 43,
          "name": "G2",
          "ticks": 32064,
          "time": 196.47049,
          "velocity": 0.7874015748031497
        },
        {
          "duration": 0.14705875000001356,
          "durationTicks": 24,
          "midi": 48,
          "name": "C3",
          "ticks": 32064,
          "time": 196.47049,
          "velocity": 0.7874015748031497
        },
        {
          "duration": 0.14705874999998514,
          "durationTicks": 24,
          "midi": 43,
          "name": "G2",
          "ticks": 32088,
          "time": 196.61754875000003,
          "velocity": 0.7874015748031497
        },
        {
          "duration": 0.14705874999998514,
          "durationTicks": 24,
          "midi": 48,
          "name": "C3",
          "ticks": 32088,
          "time": 196.61754875000003,
          "velocity": 0.7874015748031497
        },
        {
          "duration": 0.14705875000001356,
          "durationTicks": 24,
          "midi": 43,
          "name": "G2",
          "ticks": 32112,
          "time": 196.7646075,
          "velocity": 0.7874015748031497
        },
        {
          "duration": 0.14705875000001356,
          "durationTicks": 24,
          "midi": 48,
          "name": "C3",
          "ticks": 32112,
          "time": 196.7646075,
          "velocity": 0.7874015748031497
        },
        {
          "duration": 0.07352937499999257,
          "durationTicks": 12,
          "midi": 48,
          "name": "C3",
          "ticks": 32136,
          "time": 196.91166625000002,
          "velocity": 0.7874015748031497
        },
        {
          "duration": 0.07352937499999257,
          "durationTicks": 12,
          "midi": 43,
          "name": "G2",
          "ticks": 32136,
          "time": 196.91166625000002,
          "velocity": 0.7874015748031497
        },
        {
          "duration": 0.07352937499999257,
          "durationTicks": 12,
          "midi": 43,
          "name": "G2",
          "ticks": 32148,
          "time": 196.98519562500002,
          "velocity": 0.7874015748031497
        },
        {
          "duration": 0.07352937499999257,
          "durationTicks": 12,
          "midi": 48,
          "name": "C3",
          "ticks": 32148,
          "time": 196.98519562500002,
          "velocity": 0.7874015748031497
        },
        {
          "duration": 0.14705875000001356,
          "durationTicks": 24,
          "midi": 43,
          "name": "G2",
          "ticks": 32160,
          "time": 197.058725,
          "velocity": 0.7874015748031497
        },
        {
          "duration": 0.14705875000001356,
          "durationTicks": 24,
          "midi": 48,
          "name": "C3",
          "ticks": 32160,
          "time": 197.058725,
          "velocity": 0.7874015748031497
        },
        {
          "duration": 0.14705874999998514,
          "durationTicks": 24,
          "midi": 48,
          "name": "C3",
          "ticks": 32184,
          "time": 197.20578375000002,
          "velocity": 0.7874015748031497
        },
        {
          "duration": 0.14705874999998514,
          "durationTicks": 24,
          "midi": 43,
          "name": "G2",
          "ticks": 32184,
          "time": 197.20578375000002,
          "velocity": 0.7874015748031497
        },
        {
          "duration": 0.14705875000001356,
          "durationTicks": 24,
          "midi": 48,
          "name": "C3",
          "ticks": 32208,
          "time": 197.3528425,
          "velocity": 0.7874015748031497
        },
        {
          "duration": 0.14705875000001356,
          "durationTicks": 24,
          "midi": 43,
          "name": "G2",
          "ticks": 32208,
          "time": 197.3528425,
          "velocity": 0.7874015748031497
        },
        {
          "duration": 0.14705875000001356,
          "durationTicks": 24,
          "midi": 48,
          "name": "C3",
          "ticks": 32232,
          "time": 197.49990125000002,
          "velocity": 0.7874015748031497
        },
        {
          "duration": 0.14705875000001356,
          "durationTicks": 24,
          "midi": 43,
          "name": "G2",
          "ticks": 32232,
          "time": 197.49990125000002,
          "velocity": 0.7874015748031497
        },
        {
          "duration": 0.14705874999998514,
          "durationTicks": 24,
          "midi": 48,
          "name": "C3",
          "ticks": 32256,
          "time": 197.64696000000004,
          "velocity": 0.7874015748031497
        },
        {
          "duration": 0.14705874999998514,
          "durationTicks": 24,
          "midi": 43,
          "name": "G2",
          "ticks": 32256,
          "time": 197.64696000000004,
          "velocity": 0.7874015748031497
        },
        {
          "duration": 0.14705875000001356,
          "durationTicks": 24,
          "midi": 48,
          "name": "C3",
          "ticks": 32280,
          "time": 197.79401875000002,
          "velocity": 0.7874015748031497
        },
        {
          "duration": 0.14705875000001356,
          "durationTicks": 24,
          "midi": 43,
          "name": "G2",
          "ticks": 32280,
          "time": 197.79401875000002,
          "velocity": 0.7874015748031497
        },
        {
          "duration": 0.14705874999998514,
          "durationTicks": 24,
          "midi": 43,
          "name": "G2",
          "ticks": 32304,
          "time": 197.94107750000003,
          "velocity": 0.7874015748031497
        },
        {
          "duration": 0.14705874999998514,
          "durationTicks": 24,
          "midi": 48,
          "name": "C3",
          "ticks": 32304,
          "time": 197.94107750000003,
          "velocity": 0.7874015748031497
        },
        {
          "duration": 0.07352937499999257,
          "durationTicks": 12,
          "midi": 43,
          "name": "G2",
          "ticks": 32328,
          "time": 198.08813625000002,
          "velocity": 0.7874015748031497
        },
        {
          "duration": 0.07352937499999257,
          "durationTicks": 12,
          "midi": 48,
          "name": "C3",
          "ticks": 32328,
          "time": 198.08813625000002,
          "velocity": 0.7874015748031497
        },
        {
          "duration": 0.07352937500002099,
          "durationTicks": 12,
          "midi": 48,
          "name": "C3",
          "ticks": 32340,
          "time": 198.161665625,
          "velocity": 0.7874015748031497
        },
        {
          "duration": 0.07352937500002099,
          "durationTicks": 12,
          "midi": 43,
          "name": "G2",
          "ticks": 32340,
          "time": 198.161665625,
          "velocity": 0.7874015748031497
        },
        {
          "duration": 0.14705874999998514,
          "durationTicks": 24,
          "midi": 48,
          "name": "C3",
          "ticks": 32352,
          "time": 198.23519500000003,
          "velocity": 0.7874015748031497
        },
        {
          "duration": 0.14705874999998514,
          "durationTicks": 24,
          "midi": 53,
          "name": "F3",
          "ticks": 32352,
          "time": 198.23519500000003,
          "velocity": 0.7874015748031497
        },
        {
          "duration": 0.14705875000001356,
          "durationTicks": 24,
          "midi": 53,
          "name": "F3",
          "ticks": 32376,
          "time": 198.38225375000002,
          "velocity": 0.7874015748031497
        },
        {
          "duration": 0.14705875000001356,
          "durationTicks": 24,
          "midi": 48,
          "name": "C3",
          "ticks": 32376,
          "time": 198.38225375000002,
          "velocity": 0.7874015748031497
        },
        {
          "duration": 0.14705874999998514,
          "durationTicks": 24,
          "midi": 53,
          "name": "F3",
          "ticks": 32400,
          "time": 198.52931250000003,
          "velocity": 0.7874015748031497
        },
        {
          "duration": 0.14705874999998514,
          "durationTicks": 24,
          "midi": 48,
          "name": "C3",
          "ticks": 32400,
          "time": 198.52931250000003,
          "velocity": 0.7874015748031497
        },
        {
          "duration": 0.14705875000001356,
          "durationTicks": 24,
          "midi": 48,
          "name": "C3",
          "ticks": 32424,
          "time": 198.67637125000002,
          "velocity": 0.7874015748031497
        },
        {
          "duration": 0.14705875000001356,
          "durationTicks": 24,
          "midi": 53,
          "name": "F3",
          "ticks": 32424,
          "time": 198.67637125000002,
          "velocity": 0.7874015748031497
        },
        {
          "duration": 0.14705874999998514,
          "durationTicks": 24,
          "midi": 53,
          "name": "F3",
          "ticks": 32448,
          "time": 198.82343000000003,
          "velocity": 0.7874015748031497
        },
        {
          "duration": 0.14705874999998514,
          "durationTicks": 24,
          "midi": 48,
          "name": "C3",
          "ticks": 32448,
          "time": 198.82343000000003,
          "velocity": 0.7874015748031497
        },
        {
          "duration": 0.14705875000001356,
          "durationTicks": 24,
          "midi": 53,
          "name": "F3",
          "ticks": 32472,
          "time": 198.97048875000002,
          "velocity": 0.7874015748031497
        },
        {
          "duration": 0.14705875000001356,
          "durationTicks": 24,
          "midi": 48,
          "name": "C3",
          "ticks": 32472,
          "time": 198.97048875000002,
          "velocity": 0.7874015748031497
        },
        {
          "duration": 0.14705874999998514,
          "durationTicks": 24,
          "midi": 48,
          "name": "C3",
          "ticks": 32496,
          "time": 199.11754750000003,
          "velocity": 0.7874015748031497
        },
        {
          "duration": 0.14705874999998514,
          "durationTicks": 24,
          "midi": 53,
          "name": "F3",
          "ticks": 32496,
          "time": 199.11754750000003,
          "velocity": 0.7874015748031497
        },
        {
          "duration": 0.07352937500002099,
          "durationTicks": 12,
          "midi": 53,
          "name": "F3",
          "ticks": 32520,
          "time": 199.26460625,
          "velocity": 0.7874015748031497
        },
        {
          "duration": 0.07352937500002099,
          "durationTicks": 12,
          "midi": 48,
          "name": "C3",
          "ticks": 32520,
          "time": 199.26460625,
          "velocity": 0.7874015748031497
        },
        {
          "duration": 0.07352937499999257,
          "durationTicks": 12,
          "midi": 48,
          "name": "C3",
          "ticks": 32532,
          "time": 199.33813562500004,
          "velocity": 0.7874015748031497
        },
        {
          "duration": 0.07352937499999257,
          "durationTicks": 12,
          "midi": 53,
          "name": "F3",
          "ticks": 32532,
          "time": 199.33813562500004,
          "velocity": 0.7874015748031497
        },
        {
          "duration": 0.14705874999998514,
          "durationTicks": 24,
          "midi": 48,
          "name": "C3",
          "ticks": 32544,
          "time": 199.41166500000003,
          "velocity": 0.7874015748031497
        },
        {
          "duration": 0.14705874999998514,
          "durationTicks": 24,
          "midi": 53,
          "name": "F3",
          "ticks": 32544,
          "time": 199.41166500000003,
          "velocity": 0.7874015748031497
        },
        {
          "duration": 0.14705875000001356,
          "durationTicks": 24,
          "midi": 53,
          "name": "F3",
          "ticks": 32568,
          "time": 199.55872375,
          "velocity": 0.7874015748031497
        },
        {
          "duration": 0.14705875000001356,
          "durationTicks": 24,
          "midi": 48,
          "name": "C3",
          "ticks": 32568,
          "time": 199.55872375,
          "velocity": 0.7874015748031497
        },
        {
          "duration": 0.14705874999998514,
          "durationTicks": 24,
          "midi": 53,
          "name": "F3",
          "ticks": 32592,
          "time": 199.70578250000003,
          "velocity": 0.7874015748031497
        },
        {
          "duration": 0.14705874999998514,
          "durationTicks": 24,
          "midi": 48,
          "name": "C3",
          "ticks": 32592,
          "time": 199.70578250000003,
          "velocity": 0.7874015748031497
        },
        {
          "duration": 0.14705875000001356,
          "durationTicks": 24,
          "midi": 48,
          "name": "C3",
          "ticks": 32616,
          "time": 199.85284125,
          "velocity": 0.7874015748031497
        },
        {
          "duration": 0.14705875000001356,
          "durationTicks": 24,
          "midi": 53,
          "name": "F3",
          "ticks": 32616,
          "time": 199.85284125,
          "velocity": 0.7874015748031497
        },
        {
          "duration": 0.14705874999998514,
          "durationTicks": 24,
          "midi": 53,
          "name": "F3",
          "ticks": 32640,
          "time": 199.99990000000003,
          "velocity": 0.7874015748031497
        },
        {
          "duration": 0.14705874999998514,
          "durationTicks": 24,
          "midi": 48,
          "name": "C3",
          "ticks": 32640,
          "time": 199.99990000000003,
          "velocity": 0.7874015748031497
        },
        {
          "duration": 0.14705875000001356,
          "durationTicks": 24,
          "midi": 53,
          "name": "F3",
          "ticks": 32664,
          "time": 200.14695875,
          "velocity": 0.7874015748031497
        },
        {
          "duration": 0.14705875000001356,
          "durationTicks": 24,
          "midi": 48,
          "name": "C3",
          "ticks": 32664,
          "time": 200.14695875,
          "velocity": 0.7874015748031497
        },
        {
          "duration": 0.14705874999998514,
          "durationTicks": 24,
          "midi": 48,
          "name": "C3",
          "ticks": 32688,
          "time": 200.29401750000002,
          "velocity": 0.7874015748031497
        },
        {
          "duration": 0.14705874999998514,
          "durationTicks": 24,
          "midi": 53,
          "name": "F3",
          "ticks": 32688,
          "time": 200.29401750000002,
          "velocity": 0.7874015748031497
        },
        {
          "duration": 0.07352937500002099,
          "durationTicks": 12,
          "midi": 48,
          "name": "C3",
          "ticks": 32712,
          "time": 200.44107625,
          "velocity": 0.7874015748031497
        },
        {
          "duration": 0.07352937500002099,
          "durationTicks": 12,
          "midi": 53,
          "name": "F3",
          "ticks": 32712,
          "time": 200.44107625,
          "velocity": 0.7874015748031497
        },
        {
          "duration": 0.07352937499999257,
          "durationTicks": 12,
          "midi": 53,
          "name": "F3",
          "ticks": 32724,
          "time": 200.51460562500003,
          "velocity": 0.7874015748031497
        },
        {
          "duration": 0.07352937499999257,
          "durationTicks": 12,
          "midi": 48,
          "name": "C3",
          "ticks": 32724,
          "time": 200.51460562500003,
          "velocity": 0.7874015748031497
        },
        {
          "duration": 0.14705874999998514,
          "durationTicks": 24,
          "midi": 55,
          "name": "G3",
          "ticks": 32736,
          "time": 200.58813500000002,
          "velocity": 0.7874015748031497
        },
        {
          "duration": 0.14705874999998514,
          "durationTicks": 24,
          "midi": 50,
          "name": "D3",
          "ticks": 32736,
          "time": 200.58813500000002,
          "velocity": 0.7874015748031497
        },
        {
          "duration": 0.14705875000001356,
          "durationTicks": 24,
          "midi": 50,
          "name": "D3",
          "ticks": 32760,
          "time": 200.73519375,
          "velocity": 0.7874015748031497
        },
        {
          "duration": 0.14705875000001356,
          "durationTicks": 24,
          "midi": 55,
          "name": "G3",
          "ticks": 32760,
          "time": 200.73519375,
          "velocity": 0.7874015748031497
        },
        {
          "duration": 0.14705875000001356,
          "durationTicks": 24,
          "midi": 55,
          "name": "G3",
          "ticks": 32784,
          "time": 200.88225250000002,
          "velocity": 0.7874015748031497
        },
        {
          "duration": 0.14705875000001356,
          "durationTicks": 24,
          "midi": 50,
          "name": "D3",
          "ticks": 32784,
          "time": 200.88225250000002,
          "velocity": 0.7874015748031497
        },
        {
          "duration": 0.14705874999998514,
          "durationTicks": 24,
          "midi": 55,
          "name": "G3",
          "ticks": 32808,
          "time": 201.02931125000003,
          "velocity": 0.7874015748031497
        },
        {
          "duration": 0.14705874999998514,
          "durationTicks": 24,
          "midi": 50,
          "name": "D3",
          "ticks": 32808,
          "time": 201.02931125000003,
          "velocity": 0.7874015748031497
        },
        {
          "duration": 0.14705875000001356,
          "durationTicks": 24,
          "midi": 55,
          "name": "G3",
          "ticks": 32832,
          "time": 201.17637000000002,
          "velocity": 0.7874015748031497
        },
        {
          "duration": 0.14705875000001356,
          "durationTicks": 24,
          "midi": 50,
          "name": "D3",
          "ticks": 32832,
          "time": 201.17637000000002,
          "velocity": 0.7874015748031497
        },
        {
          "duration": 0.14705874999998514,
          "durationTicks": 24,
          "midi": 55,
          "name": "G3",
          "ticks": 32856,
          "time": 201.32342875000003,
          "velocity": 0.7874015748031497
        },
        {
          "duration": 0.14705874999998514,
          "durationTicks": 24,
          "midi": 50,
          "name": "D3",
          "ticks": 32856,
          "time": 201.32342875000003,
          "velocity": 0.7874015748031497
        },
        {
          "duration": 0.14705875000001356,
          "durationTicks": 24,
          "midi": 50,
          "name": "D3",
          "ticks": 32880,
          "time": 201.47048750000002,
          "velocity": 0.7874015748031497
        },
        {
          "duration": 0.14705875000001356,
          "durationTicks": 24,
          "midi": 55,
          "name": "G3",
          "ticks": 32880,
          "time": 201.47048750000002,
          "velocity": 0.7874015748031497
        },
        {
          "duration": 0.07352937499999257,
          "durationTicks": 12,
          "midi": 55,
          "name": "G3",
          "ticks": 32904,
          "time": 201.61754625000003,
          "velocity": 0.7874015748031497
        },
        {
          "duration": 0.07352937499999257,
          "durationTicks": 12,
          "midi": 50,
          "name": "D3",
          "ticks": 32904,
          "time": 201.61754625000003,
          "velocity": 0.7874015748031497
        },
        {
          "duration": 0.07352937499999257,
          "durationTicks": 12,
          "midi": 55,
          "name": "G3",
          "ticks": 32916,
          "time": 201.69107562500002,
          "velocity": 0.7874015748031497
        },
        {
          "duration": 0.07352937499999257,
          "durationTicks": 12,
          "midi": 50,
          "name": "D3",
          "ticks": 32916,
          "time": 201.69107562500002,
          "velocity": 0.7874015748031497
        },
        {
          "duration": 0.14705875000001356,
          "durationTicks": 24,
          "midi": 50,
          "name": "D3",
          "ticks": 32928,
          "time": 201.76460500000002,
          "velocity": 0.7874015748031497
        },
        {
          "duration": 0.14705875000001356,
          "durationTicks": 24,
          "midi": 55,
          "name": "G3",
          "ticks": 32928,
          "time": 201.76460500000002,
          "velocity": 0.7874015748031497
        },
        {
          "duration": 0.14705874999998514,
          "durationTicks": 24,
          "midi": 50,
          "name": "D3",
          "ticks": 32952,
          "time": 201.91166375000003,
          "velocity": 0.7874015748031497
        },
        {
          "duration": 0.14705874999998514,
          "durationTicks": 24,
          "midi": 55,
          "name": "G3",
          "ticks": 32952,
          "time": 201.91166375000003,
          "velocity": 0.7874015748031497
        },
        {
          "duration": 0.14705875000001356,
          "durationTicks": 24,
          "midi": 50,
          "name": "D3",
          "ticks": 32976,
          "time": 202.05872250000002,
          "velocity": 0.7874015748031497
        },
        {
          "duration": 0.14705875000001356,
          "durationTicks": 24,
          "midi": 55,
          "name": "G3",
          "ticks": 32976,
          "time": 202.05872250000002,
          "velocity": 0.7874015748031497
        },
        {
          "duration": 0.14705874999998514,
          "durationTicks": 24,
          "midi": 55,
          "name": "G3",
          "ticks": 33000,
          "time": 202.20578125000003,
          "velocity": 0.7874015748031497
        },
        {
          "duration": 0.14705874999998514,
          "durationTicks": 24,
          "midi": 50,
          "name": "D3",
          "ticks": 33000,
          "time": 202.20578125000003,
          "velocity": 0.7874015748031497
        },
        {
          "duration": 0.14705875000001356,
          "durationTicks": 24,
          "midi": 50,
          "name": "D3",
          "ticks": 33024,
          "time": 202.35284000000001,
          "velocity": 0.7874015748031497
        },
        {
          "duration": 0.14705875000001356,
          "durationTicks": 24,
          "midi": 55,
          "name": "G3",
          "ticks": 33024,
          "time": 202.35284000000001,
          "velocity": 0.7874015748031497
        },
        {
          "duration": 0.14705874999998514,
          "durationTicks": 24,
          "midi": 55,
          "name": "G3",
          "ticks": 33048,
          "time": 202.49989875000003,
          "velocity": 0.7874015748031497
        },
        {
          "duration": 0.14705874999998514,
          "durationTicks": 24,
          "midi": 50,
          "name": "D3",
          "ticks": 33048,
          "time": 202.49989875000003,
          "velocity": 0.7874015748031497
        },
        {
          "duration": 0.14705875000001356,
          "durationTicks": 24,
          "midi": 50,
          "name": "D3",
          "ticks": 33072,
          "time": 202.6469575,
          "velocity": 0.7874015748031497
        },
        {
          "duration": 0.14705875000001356,
          "durationTicks": 24,
          "midi": 55,
          "name": "G3",
          "ticks": 33072,
          "time": 202.6469575,
          "velocity": 0.7874015748031497
        },
        {
          "duration": 0.07352937499999257,
          "durationTicks": 12,
          "midi": 50,
          "name": "D3",
          "ticks": 33096,
          "time": 202.79401625000003,
          "velocity": 0.7874015748031497
        },
        {
          "duration": 0.07352937499999257,
          "durationTicks": 12,
          "midi": 55,
          "name": "G3",
          "ticks": 33096,
          "time": 202.79401625000003,
          "velocity": 0.7874015748031497
        },
        {
          "duration": 0.07352937499999257,
          "durationTicks": 12,
          "midi": 50,
          "name": "D3",
          "ticks": 33108,
          "time": 202.86754562500002,
          "velocity": 0.7874015748031497
        },
        {
          "duration": 0.07352937499999257,
          "durationTicks": 12,
          "midi": 55,
          "name": "G3",
          "ticks": 33108,
          "time": 202.86754562500002,
          "velocity": 0.7874015748031497
        },
        {
          "duration": 0.14705875000001356,
          "durationTicks": 24,
          "midi": 45,
          "name": "A2",
          "ticks": 33120,
          "time": 202.941075,
          "velocity": 0.7874015748031497
        },
        {
          "duration": 0.14705875000001356,
          "durationTicks": 24,
          "midi": 50,
          "name": "D3",
          "ticks": 33120,
          "time": 202.941075,
          "velocity": 0.7874015748031497
        },
        {
          "duration": 0.14705874999998514,
          "durationTicks": 24,
          "midi": 45,
          "name": "A2",
          "ticks": 33144,
          "time": 203.08813375000003,
          "velocity": 0.7874015748031497
        },
        {
          "duration": 0.14705874999998514,
          "durationTicks": 24,
          "midi": 50,
          "name": "D3",
          "ticks": 33144,
          "time": 203.08813375000003,
          "velocity": 0.7874015748031497
        },
        {
          "duration": 0.14705875000001356,
          "durationTicks": 24,
          "midi": 50,
          "name": "D3",
          "ticks": 33168,
          "time": 203.2351925,
          "velocity": 0.7874015748031497
        },
        {
          "duration": 0.14705875000001356,
          "durationTicks": 24,
          "midi": 45,
          "name": "A2",
          "ticks": 33168,
          "time": 203.2351925,
          "velocity": 0.7874015748031497
        },
        {
          "duration": 0.14705874999998514,
          "durationTicks": 24,
          "midi": 45,
          "name": "A2",
          "ticks": 33192,
          "time": 203.38225125000002,
          "velocity": 0.7874015748031497
        },
        {
          "duration": 0.14705874999998514,
          "durationTicks": 24,
          "midi": 50,
          "name": "D3",
          "ticks": 33192,
          "time": 203.38225125000002,
          "velocity": 0.7874015748031497
        },
        {
          "duration": 0.14705875000001356,
          "durationTicks": 24,
          "midi": 50,
          "name": "D3",
          "ticks": 33216,
          "time": 203.52931,
          "velocity": 0.7874015748031497
        },
        {
          "duration": 0.14705875000001356,
          "durationTicks": 24,
          "midi": 45,
          "name": "A2",
          "ticks": 33216,
          "time": 203.52931,
          "velocity": 0.7874015748031497
        },
        {
          "duration": 0.14705874999998514,
          "durationTicks": 24,
          "midi": 45,
          "name": "A2",
          "ticks": 33240,
          "time": 203.67636875000002,
          "velocity": 0.7874015748031497
        },
        {
          "duration": 0.14705874999998514,
          "durationTicks": 24,
          "midi": 50,
          "name": "D3",
          "ticks": 33240,
          "time": 203.67636875000002,
          "velocity": 0.7874015748031497
        },
        {
          "duration": 0.14705875000001356,
          "durationTicks": 24,
          "midi": 45,
          "name": "A2",
          "ticks": 33264,
          "time": 203.8234275,
          "velocity": 0.7874015748031497
        },
        {
          "duration": 0.14705875000001356,
          "durationTicks": 24,
          "midi": 50,
          "name": "D3",
          "ticks": 33264,
          "time": 203.8234275,
          "velocity": 0.7874015748031497
        },
        {
          "duration": 0.07352937499999257,
          "durationTicks": 12,
          "midi": 50,
          "name": "D3",
          "ticks": 33288,
          "time": 203.97048625000002,
          "velocity": 0.7874015748031497
        },
        {
          "duration": 0.07352937499999257,
          "durationTicks": 12,
          "midi": 45,
          "name": "A2",
          "ticks": 33288,
          "time": 203.97048625000002,
          "velocity": 0.7874015748031497
        },
        {
          "duration": 0.07352937500002099,
          "durationTicks": 12,
          "midi": 50,
          "name": "D3",
          "ticks": 33300,
          "time": 204.04401562500001,
          "velocity": 0.7874015748031497
        },
        {
          "duration": 0.07352937500002099,
          "durationTicks": 12,
          "midi": 45,
          "name": "A2",
          "ticks": 33300,
          "time": 204.04401562500001,
          "velocity": 0.7874015748031497
        },
        {
          "duration": 0.14705874999998514,
          "durationTicks": 24,
          "midi": 50,
          "name": "D3",
          "ticks": 33312,
          "time": 204.11754500000004,
          "velocity": 0.7874015748031497
        },
        {
          "duration": 0.14705874999998514,
          "durationTicks": 24,
          "midi": 45,
          "name": "A2",
          "ticks": 33312,
          "time": 204.11754500000004,
          "velocity": 0.7874015748031497
        },
        {
          "duration": 0.14705875000001356,
          "durationTicks": 24,
          "midi": 50,
          "name": "D3",
          "ticks": 33336,
          "time": 204.26460375000002,
          "velocity": 0.7874015748031497
        },
        {
          "duration": 0.14705875000001356,
          "durationTicks": 24,
          "midi": 45,
          "name": "A2",
          "ticks": 33336,
          "time": 204.26460375000002,
          "velocity": 0.7874015748031497
        },
        {
          "duration": 0.14705874999998514,
          "durationTicks": 24,
          "midi": 50,
          "name": "D3",
          "ticks": 33360,
          "time": 204.41166250000003,
          "velocity": 0.7874015748031497
        },
        {
          "duration": 0.14705874999998514,
          "durationTicks": 24,
          "midi": 45,
          "name": "A2",
          "ticks": 33360,
          "time": 204.41166250000003,
          "velocity": 0.7874015748031497
        },
        {
          "duration": 0.14705875000001356,
          "durationTicks": 24,
          "midi": 45,
          "name": "A2",
          "ticks": 33384,
          "time": 204.55872125000002,
          "velocity": 0.7874015748031497
        },
        {
          "duration": 0.14705875000001356,
          "durationTicks": 24,
          "midi": 50,
          "name": "D3",
          "ticks": 33384,
          "time": 204.55872125000002,
          "velocity": 0.7874015748031497
        },
        {
          "duration": 0.14705874999998514,
          "durationTicks": 24,
          "midi": 45,
          "name": "A2",
          "ticks": 33408,
          "time": 204.70578000000003,
          "velocity": 0.7874015748031497
        },
        {
          "duration": 0.14705874999998514,
          "durationTicks": 24,
          "midi": 50,
          "name": "D3",
          "ticks": 33408,
          "time": 204.70578000000003,
          "velocity": 0.7874015748031497
        },
        {
          "duration": 0.14705875000001356,
          "durationTicks": 24,
          "midi": 45,
          "name": "A2",
          "ticks": 33432,
          "time": 204.85283875000002,
          "velocity": 0.7874015748031497
        },
        {
          "duration": 0.14705875000001356,
          "durationTicks": 24,
          "midi": 50,
          "name": "D3",
          "ticks": 33432,
          "time": 204.85283875000002,
          "velocity": 0.7874015748031497
        },
        {
          "duration": 0.14705874999998514,
          "durationTicks": 24,
          "midi": 45,
          "name": "A2",
          "ticks": 33456,
          "time": 204.99989750000003,
          "velocity": 0.7874015748031497
        },
        {
          "duration": 0.14705874999998514,
          "durationTicks": 24,
          "midi": 50,
          "name": "D3",
          "ticks": 33456,
          "time": 204.99989750000003,
          "velocity": 0.7874015748031497
        },
        {
          "duration": 0.07352937499999257,
          "durationTicks": 12,
          "midi": 45,
          "name": "A2",
          "ticks": 33480,
          "time": 205.14695625000002,
          "velocity": 0.7874015748031497
        },
        {
          "duration": 0.07352937499999257,
          "durationTicks": 12,
          "midi": 50,
          "name": "D3",
          "ticks": 33480,
          "time": 205.14695625000002,
          "velocity": 0.7874015748031497
        },
        {
          "duration": 0.07352937500002099,
          "durationTicks": 12,
          "midi": 50,
          "name": "D3",
          "ticks": 33492,
          "time": 205.220485625,
          "velocity": 0.7874015748031497
        },
        {
          "duration": 0.07352937500002099,
          "durationTicks": 12,
          "midi": 45,
          "name": "A2",
          "ticks": 33492,
          "time": 205.220485625,
          "velocity": 0.7874015748031497
        },
        {
          "duration": 0.14705874999998514,
          "durationTicks": 24,
          "midi": 41,
          "name": "F2",
          "ticks": 33504,
          "time": 205.29401500000003,
          "velocity": 0.7874015748031497
        },
        {
          "duration": 0.14705874999998514,
          "durationTicks": 24,
          "midi": 46,
          "name": "A#2",
          "ticks": 33504,
          "time": 205.29401500000003,
          "velocity": 0.7874015748031497
        },
        {
          "duration": 0.14705875000001356,
          "durationTicks": 24,
          "midi": 41,
          "name": "F2",
          "ticks": 33528,
          "time": 205.44107375000002,
          "velocity": 0.7874015748031497
        },
        {
          "duration": 0.14705875000001356,
          "durationTicks": 24,
          "midi": 46,
          "name": "A#2",
          "ticks": 33528,
          "time": 205.44107375000002,
          "velocity": 0.7874015748031497
        },
        {
          "duration": 0.14705874999998514,
          "durationTicks": 24,
          "midi": 46,
          "name": "A#2",
          "ticks": 33552,
          "time": 205.58813250000003,
          "velocity": 0.7874015748031497
        },
        {
          "duration": 0.14705874999998514,
          "durationTicks": 24,
          "midi": 41,
          "name": "F2",
          "ticks": 33552,
          "time": 205.58813250000003,
          "velocity": 0.7874015748031497
        },
        {
          "duration": 0.14705875000001356,
          "durationTicks": 24,
          "midi": 41,
          "name": "F2",
          "ticks": 33576,
          "time": 205.73519125,
          "velocity": 0.7874015748031497
        },
        {
          "duration": 0.14705875000001356,
          "durationTicks": 24,
          "midi": 46,
          "name": "A#2",
          "ticks": 33576,
          "time": 205.73519125,
          "velocity": 0.7874015748031497
        },
        {
          "duration": 0.14705874999998514,
          "durationTicks": 24,
          "midi": 46,
          "name": "A#2",
          "ticks": 33600,
          "time": 205.88225000000003,
          "velocity": 0.7874015748031497
        },
        {
          "duration": 0.14705874999998514,
          "durationTicks": 24,
          "midi": 41,
          "name": "F2",
          "ticks": 33600,
          "time": 205.88225000000003,
          "velocity": 0.7874015748031497
        },
        {
          "duration": 0.14705875000001356,
          "durationTicks": 24,
          "midi": 41,
          "name": "F2",
          "ticks": 33624,
          "time": 206.02930875,
          "velocity": 0.7874015748031497
        },
        {
          "duration": 0.14705875000001356,
          "durationTicks": 24,
          "midi": 46,
          "name": "A#2",
          "ticks": 33624,
          "time": 206.02930875,
          "velocity": 0.7874015748031497
        },
        {
          "duration": 0.14705874999998514,
          "durationTicks": 24,
          "midi": 46,
          "name": "A#2",
          "ticks": 33648,
          "time": 206.17636750000003,
          "velocity": 0.7874015748031497
        },
        {
          "duration": 0.14705874999998514,
          "durationTicks": 24,
          "midi": 41,
          "name": "F2",
          "ticks": 33648,
          "time": 206.17636750000003,
          "velocity": 0.7874015748031497
        },
        {
          "duration": 0.07352937500002099,
          "durationTicks": 12,
          "midi": 41,
          "name": "F2",
          "ticks": 33672,
          "time": 206.32342625,
          "velocity": 0.7874015748031497
        },
        {
          "duration": 0.07352937500002099,
          "durationTicks": 12,
          "midi": 46,
          "name": "A#2",
          "ticks": 33672,
          "time": 206.32342625,
          "velocity": 0.7874015748031497
        },
        {
          "duration": 0.07352937499999257,
          "durationTicks": 12,
          "midi": 41,
          "name": "F2",
          "ticks": 33684,
          "time": 206.39695562500003,
          "velocity": 0.7874015748031497
        },
        {
          "duration": 0.07352937499999257,
          "durationTicks": 12,
          "midi": 46,
          "name": "A#2",
          "ticks": 33684,
          "time": 206.39695562500003,
          "velocity": 0.7874015748031497
        },
        {
          "duration": 0.14705874999998514,
          "durationTicks": 24,
          "midi": 46,
          "name": "A#2",
          "ticks": 33696,
          "time": 206.47048500000002,
          "velocity": 0.7874015748031497
        },
        {
          "duration": 0.14705874999998514,
          "durationTicks": 24,
          "midi": 41,
          "name": "F2",
          "ticks": 33696,
          "time": 206.47048500000002,
          "velocity": 0.7874015748031497
        },
        {
          "duration": 0.14705875000001356,
          "durationTicks": 24,
          "midi": 41,
          "name": "F2",
          "ticks": 33720,
          "time": 206.61754375,
          "velocity": 0.7874015748031497
        },
        {
          "duration": 0.14705875000001356,
          "durationTicks": 24,
          "midi": 46,
          "name": "A#2",
          "ticks": 33720,
          "time": 206.61754375,
          "velocity": 0.7874015748031497
        },
        {
          "duration": 0.14705874999998514,
          "durationTicks": 24,
          "midi": 46,
          "name": "A#2",
          "ticks": 33744,
          "time": 206.76460250000002,
          "velocity": 0.7874015748031497
        },
        {
          "duration": 0.14705874999998514,
          "durationTicks": 24,
          "midi": 41,
          "name": "F2",
          "ticks": 33744,
          "time": 206.76460250000002,
          "velocity": 0.7874015748031497
        },
        {
          "duration": 0.14705875000001356,
          "durationTicks": 24,
          "midi": 41,
          "name": "F2",
          "ticks": 33768,
          "time": 206.91166125,
          "velocity": 0.7874015748031497
        },
        {
          "duration": 0.14705875000001356,
          "durationTicks": 24,
          "midi": 46,
          "name": "A#2",
          "ticks": 33768,
          "time": 206.91166125,
          "velocity": 0.7874015748031497
        },
        {
          "duration": 0.14705875000001356,
          "durationTicks": 24,
          "midi": 46,
          "name": "A#2",
          "ticks": 33792,
          "time": 207.05872000000002,
          "velocity": 0.7874015748031497
        },
        {
          "duration": 0.14705875000001356,
          "durationTicks": 24,
          "midi": 41,
          "name": "F2",
          "ticks": 33792,
          "time": 207.05872000000002,
          "velocity": 0.7874015748031497
        },
        {
          "duration": 0.14705874999998514,
          "durationTicks": 24,
          "midi": 46,
          "name": "A#2",
          "ticks": 33816,
          "time": 207.20577875000004,
          "velocity": 0.7874015748031497
        },
        {
          "duration": 0.14705874999998514,
          "durationTicks": 24,
          "midi": 41,
          "name": "F2",
          "ticks": 33816,
          "time": 207.20577875000004,
          "velocity": 0.7874015748031497
        },
        {
          "duration": 0.14705875000001356,
          "durationTicks": 24,
          "midi": 41,
          "name": "F2",
          "ticks": 33840,
          "time": 207.35283750000002,
          "velocity": 0.7874015748031497
        },
        {
          "duration": 0.14705875000001356,
          "durationTicks": 24,
          "midi": 46,
          "name": "A#2",
          "ticks": 33840,
          "time": 207.35283750000002,
          "velocity": 0.7874015748031497
        },
        {
          "duration": 0.07352937499999257,
          "durationTicks": 12,
          "midi": 46,
          "name": "A#2",
          "ticks": 33864,
          "time": 207.49989625000003,
          "velocity": 0.7874015748031497
        },
        {
          "duration": 0.07352937499999257,
          "durationTicks": 12,
          "midi": 41,
          "name": "F2",
          "ticks": 33864,
          "time": 207.49989625000003,
          "velocity": 0.7874015748031497
        },
        {
          "duration": 0.07352937499999257,
          "durationTicks": 12,
          "midi": 41,
          "name": "F2",
          "ticks": 33876,
          "time": 207.57342562500003,
          "velocity": 0.7874015748031497
        },
        {
          "duration": 0.07352937499999257,
          "durationTicks": 12,
          "midi": 46,
          "name": "A#2",
          "ticks": 33876,
          "time": 207.57342562500003,
          "velocity": 0.7874015748031497
        },
        {
          "duration": 0.14705875000001356,
          "durationTicks": 24,
          "midi": 40,
          "name": "E2",
          "ticks": 33888,
          "time": 207.64695500000002,
          "velocity": 0.7874015748031497
        },
        {
          "duration": 0.14705875000001356,
          "durationTicks": 24,
          "midi": 45,
          "name": "A2",
          "ticks": 33888,
          "time": 207.64695500000002,
          "velocity": 0.7874015748031497
        },
        {
          "duration": 0.14705874999998514,
          "durationTicks": 24,
          "midi": 40,
          "name": "E2",
          "ticks": 33912,
          "time": 207.79401375000003,
          "velocity": 0.7874015748031497
        },
        {
          "duration": 0.14705874999998514,
          "durationTicks": 24,
          "midi": 45,
          "name": "A2",
          "ticks": 33912,
          "time": 207.79401375000003,
          "velocity": 0.7874015748031497
        },
        {
          "duration": 0.14705874999998514,
          "durationTicks": 24,
          "midi": 40,
          "name": "E2",
          "ticks": 33960,
          "time": 208.08813125000003,
          "velocity": 0.7874015748031497
        },
        {
          "duration": 0.14705874999998514,
          "durationTicks": 24,
          "midi": 45,
          "name": "A2",
          "ticks": 33960,
          "time": 208.08813125000003,
          "velocity": 0.7874015748031497
        },
        {
          "duration": 0.14705875000001356,
          "durationTicks": 24,
          "midi": 40,
          "name": "E2",
          "ticks": 33984,
          "time": 208.23519000000002,
          "velocity": 0.7874015748031497
        },
        {
          "duration": 0.14705875000001356,
          "durationTicks": 24,
          "midi": 45,
          "name": "A2",
          "ticks": 33984,
          "time": 208.23519000000002,
          "velocity": 0.7874015748031497
        },
        {
          "duration": 0.14705875000001356,
          "durationTicks": 24,
          "midi": 40,
          "name": "E2",
          "ticks": 34032,
          "time": 208.52930750000002,
          "velocity": 0.7874015748031497
        },
        {
          "duration": 0.14705875000001356,
          "durationTicks": 24,
          "midi": 45,
          "name": "A2",
          "ticks": 34032,
          "time": 208.52930750000002,
          "velocity": 0.7874015748031497
        },
        {
          "duration": 0.14705874999998514,
          "durationTicks": 24,
          "midi": 45,
          "name": "A2",
          "ticks": 34056,
          "time": 208.67636625000003,
          "velocity": 0.7874015748031497
        },
        {
          "duration": 0.14705874999998514,
          "durationTicks": 24,
          "midi": 40,
          "name": "E2",
          "ticks": 34056,
          "time": 208.67636625000003,
          "velocity": 0.7874015748031497
        },
        {
          "duration": 0.14705874999998514,
          "durationTicks": 24,
          "midi": 40,
          "name": "E2",
          "ticks": 34104,
          "time": 208.97048375000003,
          "velocity": 0.7874015748031497
        },
        {
          "duration": 0.14705874999998514,
          "durationTicks": 24,
          "midi": 45,
          "name": "A2",
          "ticks": 34104,
          "time": 208.97048375000003,
          "velocity": 0.7874015748031497
        },
        {
          "duration": 0.14705875000001356,
          "durationTicks": 24,
          "midi": 40,
          "name": "E2",
          "ticks": 34128,
          "time": 209.1175425,
          "velocity": 0.7874015748031497
        },
        {
          "duration": 0.14705875000001356,
          "durationTicks": 24,
          "midi": 45,
          "name": "A2",
          "ticks": 34128,
          "time": 209.1175425,
          "velocity": 0.7874015748031497
        },
        {
          "duration": 0.14705875000001356,
          "durationTicks": 24,
          "midi": 40,
          "name": "E2",
          "ticks": 34176,
          "time": 209.41166,
          "velocity": 0.7874015748031497
        },
        {
          "duration": 0.14705875000001356,
          "durationTicks": 24,
          "midi": 45,
          "name": "A2",
          "ticks": 34176,
          "time": 209.41166,
          "velocity": 0.7874015748031497
        },
        {
          "duration": 0.14705874999998514,
          "durationTicks": 24,
          "midi": 40,
          "name": "E2",
          "ticks": 34200,
          "time": 209.55871875000003,
          "velocity": 0.7874015748031497
        },
        {
          "duration": 0.14705874999998514,
          "durationTicks": 24,
          "midi": 45,
          "name": "A2",
          "ticks": 34200,
          "time": 209.55871875000003,
          "velocity": 0.7874015748031497
        },
        {
          "duration": 0.14705875000001356,
          "durationTicks": 24,
          "midi": 45,
          "name": "A2",
          "ticks": 34224,
          "time": 209.7057775,
          "velocity": 0.7874015748031497
        },
        {
          "duration": 0.14705875000001356,
          "durationTicks": 24,
          "midi": 40,
          "name": "E2",
          "ticks": 34224,
          "time": 209.7057775,
          "velocity": 0.7874015748031497
        },
        {
          "duration": 0.14705874999998514,
          "durationTicks": 24,
          "midi": 45,
          "name": "A2",
          "ticks": 34248,
          "time": 209.85283625000002,
          "velocity": 0.7874015748031497
        },
        {
          "duration": 0.14705874999998514,
          "durationTicks": 24,
          "midi": 40,
          "name": "E2",
          "ticks": 34248,
          "time": 209.85283625000002,
          "velocity": 0.7874015748031497
        },
        {
          "duration": 0.44117625000001226,
          "durationTicks": 72,
          "midi": 40,
          "name": "E2",
          "ticks": 34272,
          "time": 209.999895,
          "velocity": 0.7874015748031497
        },
        {
          "duration": 0.44117625000001226,
          "durationTicks": 72,
          "midi": 45,
          "name": "A2",
          "ticks": 34272,
          "time": 209.999895,
          "velocity": 0.7874015748031497
        },
        {
          "duration": 0.44117625000001226,
          "durationTicks": 72,
          "midi": 45,
          "name": "A2",
          "ticks": 34344,
          "time": 210.44107125000002,
          "velocity": 0.7874015748031497
        },
        {
          "duration": 0.44117625000001226,
          "durationTicks": 72,
          "midi": 40,
          "name": "E2",
          "ticks": 34344,
          "time": 210.44107125000002,
          "velocity": 0.7874015748031497
        },
        {
          "duration": 0.44117624999998384,
          "durationTicks": 72,
          "midi": 45,
          "name": "A2",
          "ticks": 34416,
          "time": 210.88224750000003,
          "velocity": 0.7874015748031497
        },
        {
          "duration": 0.44117624999998384,
          "durationTicks": 72,
          "midi": 40,
          "name": "E2",
          "ticks": 34416,
          "time": 210.88224750000003,
          "velocity": 0.7874015748031497
        },
        {
          "duration": 0.44117625000001226,
          "durationTicks": 72,
          "midi": 45,
          "name": "A2",
          "ticks": 34488,
          "time": 211.32342375000002,
          "velocity": 0.7874015748031497
        },
        {
          "duration": 0.44117625000001226,
          "durationTicks": 72,
          "midi": 40,
          "name": "E2",
          "ticks": 34488,
          "time": 211.32342375000002,
          "velocity": 0.7874015748031497
        },
        {
          "duration": 0.14705874999998514,
          "durationTicks": 24,
          "midi": 45,
          "name": "A2",
          "ticks": 34560,
          "time": 211.76460000000003,
          "velocity": 0.7874015748031497
        },
        {
          "duration": 0.14705874999998514,
          "durationTicks": 24,
          "midi": 40,
          "name": "E2",
          "ticks": 34560,
          "time": 211.76460000000003,
          "velocity": 0.7874015748031497
        },
        {
          "duration": 0.14705875000001356,
          "durationTicks": 24,
          "midi": 40,
          "name": "E2",
          "ticks": 34584,
          "time": 211.91165875000002,
          "velocity": 0.7874015748031497
        },
        {
          "duration": 0.14705875000001356,
          "durationTicks": 24,
          "midi": 45,
          "name": "A2",
          "ticks": 34584,
          "time": 211.91165875000002,
          "velocity": 0.7874015748031497
        },
        {
          "duration": 0.14705874999998514,
          "durationTicks": 24,
          "midi": 40,
          "name": "E2",
          "ticks": 34608,
          "time": 212.05871750000003,
          "velocity": 0.7874015748031497
        },
        {
          "duration": 0.14705874999998514,
          "durationTicks": 24,
          "midi": 45,
          "name": "A2",
          "ticks": 34608,
          "time": 212.05871750000003,
          "velocity": 0.7874015748031497
        },
        {
          "duration": 0.14705875000001356,
          "durationTicks": 24,
          "midi": 40,
          "name": "E2",
          "ticks": 34632,
          "time": 212.20577625,
          "velocity": 0.7874015748031497
        },
        {
          "duration": 0.14705875000001356,
          "durationTicks": 24,
          "midi": 45,
          "name": "A2",
          "ticks": 34632,
          "time": 212.20577625,
          "velocity": 0.7874015748031497
        },
        {
          "duration": 0.2941174999999987,
          "durationTicks": 48,
          "midi": 45,
          "name": "A2",
          "ticks": 34656,
          "time": 212.35283500000003,
          "velocity": 0.7874015748031497
        },
        {
          "duration": 0.2941174999999987,
          "durationTicks": 48,
          "midi": 40,
          "name": "E2",
          "ticks": 34656,
          "time": 212.35283500000003,
          "velocity": 0.7874015748031497
        },
        {
          "duration": 0.07352937499999257,
          "durationTicks": 12,
          "midi": 45,
          "name": "A2",
          "ticks": 34704,
          "time": 212.64695250000003,
          "velocity": 0.7874015748031497
        },
        {
          "duration": 0.07352937499999257,
          "durationTicks": 12,
          "midi": 40,
          "name": "E2",
          "ticks": 34704,
          "time": 212.64695250000003,
          "velocity": 0.7874015748031497
        },
        {
          "duration": 0.07352937499999257,
          "durationTicks": 12,
          "midi": 45,
          "name": "A2",
          "ticks": 34716,
          "time": 212.72048187500002,
          "velocity": 0.7874015748031497
        },
        {
          "duration": 0.07352937499999257,
          "durationTicks": 12,
          "midi": 40,
          "name": "E2",
          "ticks": 34716,
          "time": 212.72048187500002,
          "velocity": 0.7874015748031497
        },
        {
          "duration": 0.14705875000001356,
          "durationTicks": 24,
          "midi": 45,
          "name": "A2",
          "ticks": 34728,
          "time": 212.79401125,
          "velocity": 0.7874015748031497
        },
        {
          "duration": 0.14705875000001356,
          "durationTicks": 24,
          "midi": 40,
          "name": "E2",
          "ticks": 34728,
          "time": 212.79401125,
          "velocity": 0.7874015748031497
        },
        {
          "duration": 0.14705875000001356,
          "durationTicks": 24,
          "midi": 45,
          "name": "A2",
          "ticks": 34800,
          "time": 213.23518750000002,
          "velocity": 0.7874015748031497
        },
        {
          "duration": 0.14705875000001356,
          "durationTicks": 24,
          "midi": 40,
          "name": "E2",
          "ticks": 34800,
          "time": 213.23518750000002,
          "velocity": 0.7874015748031497
        },
        {
          "duration": 0.2941174999999987,
          "durationTicks": 48,
          "midi": 40,
          "name": "E2",
          "ticks": 34872,
          "time": 213.67636375000004,
          "velocity": 0.7874015748031497
        },
        {
          "duration": 0.2941174999999987,
          "durationTicks": 48,
          "midi": 45,
          "name": "A2",
          "ticks": 34872,
          "time": 213.67636375000004,
          "velocity": 0.7874015748031497
        },
        {
          "duration": 0.07352937499999257,
          "durationTicks": 12,
          "midi": 40,
          "name": "E2",
          "ticks": 34920,
          "time": 213.97048125000003,
          "velocity": 0.7874015748031497
        },
        {
          "duration": 0.07352937499999257,
          "durationTicks": 12,
          "midi": 45,
          "name": "A2",
          "ticks": 34920,
          "time": 213.97048125000003,
          "velocity": 0.7874015748031497
        },
        {
          "duration": 0.07352937499999257,
          "durationTicks": 12,
          "midi": 45,
          "name": "A2",
          "ticks": 34932,
          "time": 214.04401062500003,
          "velocity": 0.7874015748031497
        },
        {
          "duration": 0.07352937499999257,
          "durationTicks": 12,
          "midi": 40,
          "name": "E2",
          "ticks": 34932,
          "time": 214.04401062500003,
          "velocity": 0.7874015748031497
        },
        {
          "duration": 0.14705875000001356,
          "durationTicks": 24,
          "midi": 45,
          "name": "A2",
          "ticks": 34944,
          "time": 214.11754000000002,
          "velocity": 0.7874015748031497
        },
        {
          "duration": 0.14705875000001356,
          "durationTicks": 24,
          "midi": 40,
          "name": "E2",
          "ticks": 34944,
          "time": 214.11754000000002,
          "velocity": 0.7874015748031497
        },
        {
          "duration": 0.14705874999998514,
          "durationTicks": 24,
          "midi": 40,
          "name": "E2",
          "ticks": 34968,
          "time": 214.26459875000003,
          "velocity": 0.7874015748031497
        },
        {
          "duration": 0.14705874999998514,
          "durationTicks": 24,
          "midi": 45,
          "name": "A2",
          "ticks": 34968,
          "time": 214.26459875000003,
          "velocity": 0.7874015748031497
        },
        {
          "duration": 0.14705875000001356,
          "durationTicks": 24,
          "midi": 45,
          "name": "A2",
          "ticks": 34992,
          "time": 214.41165750000002,
          "velocity": 0.7874015748031497
        },
        {
          "duration": 0.14705875000001356,
          "durationTicks": 24,
          "midi": 40,
          "name": "E2",
          "ticks": 34992,
          "time": 214.41165750000002,
          "velocity": 0.7874015748031497
        },
        {
          "duration": 0.14705874999998514,
          "durationTicks": 24,
          "midi": 40,
          "name": "E2",
          "ticks": 35016,
          "time": 214.55871625000003,
          "velocity": 0.7874015748031497
        },
        {
          "duration": 0.14705874999998514,
          "durationTicks": 24,
          "midi": 45,
          "name": "A2",
          "ticks": 35016,
          "time": 214.55871625000003,
          "velocity": 0.7874015748031497
        },
        {
          "duration": 0.2941174999999987,
          "durationTicks": 48,
          "midi": 45,
          "name": "A2",
          "ticks": 35040,
          "time": 214.70577500000002,
          "velocity": 0.7874015748031497
        },
        {
          "duration": 0.2941174999999987,
          "durationTicks": 48,
          "midi": 40,
          "name": "E2",
          "ticks": 35040,
          "time": 214.70577500000002,
          "velocity": 0.7874015748031497
        },
        {
          "duration": 0.07352937500002099,
          "durationTicks": 12,
          "midi": 45,
          "name": "A2",
          "ticks": 35088,
          "time": 214.99989250000002,
          "velocity": 0.7874015748031497
        },
        {
          "duration": 0.07352937500002099,
          "durationTicks": 12,
          "midi": 40,
          "name": "E2",
          "ticks": 35088,
          "time": 214.99989250000002,
          "velocity": 0.7874015748031497
        },
        {
          "duration": 0.07352937499999257,
          "durationTicks": 12,
          "midi": 45,
          "name": "A2",
          "ticks": 35100,
          "time": 215.07342187500004,
          "velocity": 0.7874015748031497
        },
        {
          "duration": 0.07352937499999257,
          "durationTicks": 12,
          "midi": 40,
          "name": "E2",
          "ticks": 35100,
          "time": 215.07342187500004,
          "velocity": 0.7874015748031497
        },
        {
          "duration": 0.14705874999998514,
          "durationTicks": 24,
          "midi": 40,
          "name": "E2",
          "ticks": 35112,
          "time": 215.14695125000003,
          "velocity": 0.7874015748031497
        },
        {
          "duration": 0.14705874999998514,
          "durationTicks": 24,
          "midi": 45,
          "name": "A2",
          "ticks": 35112,
          "time": 215.14695125000003,
          "velocity": 0.7874015748031497
        },
        {
          "duration": 0.14705875000001356,
          "durationTicks": 24,
          "midi": 45,
          "name": "A2",
          "ticks": 35184,
          "time": 215.5881275,
          "velocity": 0.7874015748031497
        },
        {
          "duration": 0.14705875000001356,
          "durationTicks": 24,
          "midi": 40,
          "name": "E2",
          "ticks": 35184,
          "time": 215.5881275,
          "velocity": 0.7874015748031497
        },
        {
          "duration": 0.2941174999999987,
          "durationTicks": 48,
          "midi": 40,
          "name": "E2",
          "ticks": 35256,
          "time": 216.02930375000003,
          "velocity": 0.7874015748031497
        },
        {
          "duration": 0.2941174999999987,
          "durationTicks": 48,
          "midi": 45,
          "name": "A2",
          "ticks": 35256,
          "time": 216.02930375000003,
          "velocity": 0.7874015748031497
        },
        {
          "duration": 0.07352937499999257,
          "durationTicks": 12,
          "midi": 40,
          "name": "E2",
          "ticks": 35304,
          "time": 216.32342125000002,
          "velocity": 0.7874015748031497
        },
        {
          "duration": 0.07352937499999257,
          "durationTicks": 12,
          "midi": 45,
          "name": "A2",
          "ticks": 35304,
          "time": 216.32342125000002,
          "velocity": 0.7874015748031497
        },
        {
          "duration": 0.07352937499999257,
          "durationTicks": 12,
          "midi": 45,
          "name": "A2",
          "ticks": 35316,
          "time": 216.39695062500002,
          "velocity": 0.7874015748031497
        },
        {
          "duration": 0.07352937499999257,
          "durationTicks": 12,
          "midi": 40,
          "name": "E2",
          "ticks": 35316,
          "time": 216.39695062500002,
          "velocity": 0.7874015748031497
        },
        {
          "duration": 0.14705875000001356,
          "durationTicks": 24,
          "midi": 40,
          "name": "E2",
          "ticks": 35328,
          "time": 216.47048,
          "velocity": 0.7874015748031497
        },
        {
          "duration": 0.14705875000001356,
          "durationTicks": 24,
          "midi": 45,
          "name": "A2",
          "ticks": 35328,
          "time": 216.47048,
          "velocity": 0.7874015748031497
        },
        {
          "duration": 0.14705875000001356,
          "durationTicks": 24,
          "midi": 45,
          "name": "A2",
          "ticks": 35352,
          "time": 216.61753875000002,
          "velocity": 0.7874015748031497
        },
        {
          "duration": 0.14705875000001356,
          "durationTicks": 24,
          "midi": 40,
          "name": "E2",
          "ticks": 35352,
          "time": 216.61753875000002,
          "velocity": 0.7874015748031497
        },
        {
          "duration": 0.14705874999998514,
          "durationTicks": 24,
          "midi": 45,
          "name": "A2",
          "ticks": 35376,
          "time": 216.76459750000004,
          "velocity": 0.7874015748031497
        },
        {
          "duration": 0.14705874999998514,
          "durationTicks": 24,
          "midi": 40,
          "name": "E2",
          "ticks": 35376,
          "time": 216.76459750000004,
          "velocity": 0.7874015748031497
        },
        {
          "duration": 0.14705875000001356,
          "durationTicks": 24,
          "midi": 45,
          "name": "A2",
          "ticks": 35400,
          "time": 216.91165625000002,
          "velocity": 0.7874015748031497
        },
        {
          "duration": 0.14705875000001356,
          "durationTicks": 24,
          "midi": 40,
          "name": "E2",
          "ticks": 35400,
          "time": 216.91165625000002,
          "velocity": 0.7874015748031497
        },
        {
          "duration": 0.2941174999999987,
          "durationTicks": 48,
          "midi": 45,
          "name": "A2",
          "ticks": 35424,
          "time": 217.05871500000003,
          "velocity": 0.7874015748031497
        },
        {
          "duration": 0.2941174999999987,
          "durationTicks": 48,
          "midi": 40,
          "name": "E2",
          "ticks": 35424,
          "time": 217.05871500000003,
          "velocity": 0.7874015748031497
        },
        {
          "duration": 0.07352937499999257,
          "durationTicks": 12,
          "midi": 45,
          "name": "A2",
          "ticks": 35472,
          "time": 217.35283250000003,
          "velocity": 0.7874015748031497
        },
        {
          "duration": 0.07352937499999257,
          "durationTicks": 12,
          "midi": 40,
          "name": "E2",
          "ticks": 35472,
          "time": 217.35283250000003,
          "velocity": 0.7874015748031497
        },
        {
          "duration": 0.07352937499999257,
          "durationTicks": 12,
          "midi": 45,
          "name": "A2",
          "ticks": 35484,
          "time": 217.42636187500003,
          "velocity": 0.7874015748031497
        },
        {
          "duration": 0.07352937499999257,
          "durationTicks": 12,
          "midi": 40,
          "name": "E2",
          "ticks": 35484,
          "time": 217.42636187500003,
          "velocity": 0.7874015748031497
        },
        {
          "duration": 0.14705875000001356,
          "durationTicks": 24,
          "midi": 45,
          "name": "A2",
          "ticks": 35496,
          "time": 217.49989125000002,
          "velocity": 0.7874015748031497
        },
        {
          "duration": 0.14705875000001356,
          "durationTicks": 24,
          "midi": 40,
          "name": "E2",
          "ticks": 35496,
          "time": 217.49989125000002,
          "velocity": 0.7874015748031497
        },
        {
          "duration": 0.14705874999998514,
          "durationTicks": 24,
          "midi": 40,
          "name": "E2",
          "ticks": 35568,
          "time": 217.94106750000003,
          "velocity": 0.7874015748031497
        },
        {
          "duration": 0.14705874999998514,
          "durationTicks": 24,
          "midi": 45,
          "name": "A2",
          "ticks": 35568,
          "time": 217.94106750000003,
          "velocity": 0.7874015748031497
        },
        {
          "duration": 0.2941174999999987,
          "durationTicks": 48,
          "midi": 40,
          "name": "E2",
          "ticks": 35640,
          "time": 218.38224375000001,
          "velocity": 0.7874015748031497
        },
        {
          "duration": 0.2941174999999987,
          "durationTicks": 48,
          "midi": 45,
          "name": "A2",
          "ticks": 35640,
          "time": 218.38224375000001,
          "velocity": 0.7874015748031497
        },
        {
          "duration": 0.07352937500002099,
          "durationTicks": 12,
          "midi": 40,
          "name": "E2",
          "ticks": 35688,
          "time": 218.67636125,
          "velocity": 0.7874015748031497
        },
        {
          "duration": 0.07352937500002099,
          "durationTicks": 12,
          "midi": 45,
          "name": "A2",
          "ticks": 35688,
          "time": 218.67636125,
          "velocity": 0.7874015748031497
        },
        {
          "duration": 0.07352937499999257,
          "durationTicks": 12,
          "midi": 45,
          "name": "A2",
          "ticks": 35700,
          "time": 218.74989062500003,
          "velocity": 0.7874015748031497
        },
        {
          "duration": 0.07352937499999257,
          "durationTicks": 12,
          "midi": 40,
          "name": "E2",
          "ticks": 35700,
          "time": 218.74989062500003,
          "velocity": 0.7874015748031497
        },
        {
          "duration": 0.14705874999998514,
          "durationTicks": 24,
          "midi": 45,
          "name": "A2",
          "ticks": 35712,
          "time": 218.82342000000003,
          "velocity": 0.7874015748031497
        },
        {
          "duration": 0.14705874999998514,
          "durationTicks": 24,
          "midi": 40,
          "name": "E2",
          "ticks": 35712,
          "time": 218.82342000000003,
          "velocity": 0.7874015748031497
        },
        {
          "duration": 0.14705875000001356,
          "durationTicks": 24,
          "midi": 45,
          "name": "A2",
          "ticks": 35736,
          "time": 218.97047875,
          "velocity": 0.7874015748031497
        },
        {
          "duration": 0.14705875000001356,
          "durationTicks": 24,
          "midi": 40,
          "name": "E2",
          "ticks": 35736,
          "time": 218.97047875,
          "velocity": 0.7874015748031497
        },
        {
          "duration": 0.14705874999998514,
          "durationTicks": 24,
          "midi": 40,
          "name": "E2",
          "ticks": 35760,
          "time": 219.11753750000003,
          "velocity": 0.7874015748031497
        },
        {
          "duration": 0.14705874999998514,
          "durationTicks": 24,
          "midi": 45,
          "name": "A2",
          "ticks": 35760,
          "time": 219.11753750000003,
          "velocity": 0.7874015748031497
        },
        {
          "duration": 0.14705875000001356,
          "durationTicks": 24,
          "midi": 45,
          "name": "A2",
          "ticks": 35784,
          "time": 219.26459625,
          "velocity": 0.7874015748031497
        },
        {
          "duration": 0.14705875000001356,
          "durationTicks": 24,
          "midi": 40,
          "name": "E2",
          "ticks": 35784,
          "time": 219.26459625,
          "velocity": 0.7874015748031497
        },
        {
          "duration": 0.2941174999999987,
          "durationTicks": 48,
          "midi": 40,
          "name": "E2",
          "ticks": 35808,
          "time": 219.41165500000002,
          "velocity": 0.7874015748031497
        },
        {
          "duration": 0.2941174999999987,
          "durationTicks": 48,
          "midi": 45,
          "name": "A2",
          "ticks": 35808,
          "time": 219.41165500000002,
          "velocity": 0.7874015748031497
        },
        {
          "duration": 0.07352937499999257,
          "durationTicks": 12,
          "midi": 45,
          "name": "A2",
          "ticks": 35856,
          "time": 219.70577250000002,
          "velocity": 0.7874015748031497
        },
        {
          "duration": 0.07352937499999257,
          "durationTicks": 12,
          "midi": 40,
          "name": "E2",
          "ticks": 35856,
          "time": 219.70577250000002,
          "velocity": 0.7874015748031497
        },
        {
          "duration": 0.07352937500002099,
          "durationTicks": 12,
          "midi": 45,
          "name": "A2",
          "ticks": 35868,
          "time": 219.77930187500002,
          "velocity": 0.7874015748031497
        },
        {
          "duration": 0.07352937500002099,
          "durationTicks": 12,
          "midi": 40,
          "name": "E2",
          "ticks": 35868,
          "time": 219.77930187500002,
          "velocity": 0.7874015748031497
        },
        {
          "duration": 0.14705874999998514,
          "durationTicks": 24,
          "midi": 45,
          "name": "A2",
          "ticks": 35880,
          "time": 219.85283125000004,
          "velocity": 0.7874015748031497
        },
        {
          "duration": 0.14705874999998514,
          "durationTicks": 24,
          "midi": 40,
          "name": "E2",
          "ticks": 35880,
          "time": 219.85283125000004,
          "velocity": 0.7874015748031497
        },
        {
          "duration": 0.14705875000001356,
          "durationTicks": 24,
          "midi": 45,
          "name": "A2",
          "ticks": 35952,
          "time": 220.29400750000002,
          "velocity": 0.7874015748031497
        },
        {
          "duration": 0.14705875000001356,
          "durationTicks": 24,
          "midi": 40,
          "name": "E2",
          "ticks": 35952,
          "time": 220.29400750000002,
          "velocity": 0.7874015748031497
        },
        {
          "duration": 0.2941174999999987,
          "durationTicks": 48,
          "midi": 40,
          "name": "E2",
          "ticks": 36024,
          "time": 220.73518375000003,
          "velocity": 0.7874015748031497
        },
        {
          "duration": 0.2941174999999987,
          "durationTicks": 48,
          "midi": 45,
          "name": "A2",
          "ticks": 36024,
          "time": 220.73518375000003,
          "velocity": 0.7874015748031497
        },
        {
          "duration": 0.07352937499999257,
          "durationTicks": 12,
          "midi": 40,
          "name": "E2",
          "ticks": 36072,
          "time": 221.02930125000003,
          "velocity": 0.7874015748031497
        },
        {
          "duration": 0.07352937499999257,
          "durationTicks": 12,
          "midi": 45,
          "name": "A2",
          "ticks": 36072,
          "time": 221.02930125000003,
          "velocity": 0.7874015748031497
        },
        {
          "duration": 0.07352937499999257,
          "durationTicks": 12,
          "midi": 45,
          "name": "A2",
          "ticks": 36084,
          "time": 221.10283062500002,
          "velocity": 0.7874015748031497
        },
        {
          "duration": 0.07352937499999257,
          "durationTicks": 12,
          "midi": 40,
          "name": "E2",
          "ticks": 36084,
          "time": 221.10283062500002,
          "velocity": 0.7874015748031497
        },
        {
          "duration": 0.14705875000001356,
          "durationTicks": 24,
          "midi": 40,
          "name": "E2",
          "ticks": 36096,
          "time": 221.17636000000002,
          "velocity": 0.7874015748031497
        },
        {
          "duration": 0.14705875000001356,
          "durationTicks": 24,
          "midi": 45,
          "name": "A2",
          "ticks": 36096,
          "time": 221.17636000000002,
          "velocity": 0.7874015748031497
        },
        {
          "duration": 0.14705874999998514,
          "durationTicks": 24,
          "midi": 40,
          "name": "E2",
          "ticks": 36120,
          "time": 221.32341875000003,
          "velocity": 0.7874015748031497
        },
        {
          "duration": 0.14705874999998514,
          "durationTicks": 24,
          "midi": 45,
          "name": "A2",
          "ticks": 36120,
          "time": 221.32341875000003,
          "velocity": 0.7874015748031497
        },
        {
          "duration": 0.14705875000001356,
          "durationTicks": 24,
          "midi": 40,
          "name": "E2",
          "ticks": 36144,
          "time": 221.47047750000002,
          "velocity": 0.7874015748031497
        },
        {
          "duration": 0.14705875000001356,
          "durationTicks": 24,
          "midi": 45,
          "name": "A2",
          "ticks": 36144,
          "time": 221.47047750000002,
          "velocity": 0.7874015748031497
        },
        {
          "duration": 0.14705874999998514,
          "durationTicks": 24,
          "midi": 40,
          "name": "E2",
          "ticks": 36168,
          "time": 221.61753625000003,
          "velocity": 0.7874015748031497
        },
        {
          "duration": 0.14705874999998514,
          "durationTicks": 24,
          "midi": 45,
          "name": "A2",
          "ticks": 36168,
          "time": 221.61753625000003,
          "velocity": 0.7874015748031497
        },
        {
          "duration": 0.2941174999999987,
          "durationTicks": 48,
          "midi": 40,
          "name": "E2",
          "ticks": 36192,
          "time": 221.764595,
          "velocity": 0.7874015748031497
        },
        {
          "duration": 0.2941174999999987,
          "durationTicks": 48,
          "midi": 45,
          "name": "A2",
          "ticks": 36192,
          "time": 221.764595,
          "velocity": 0.7874015748031497
        },
        {
          "duration": 0.07352937500002099,
          "durationTicks": 12,
          "midi": 45,
          "name": "A2",
          "ticks": 36240,
          "time": 222.0587125,
          "velocity": 0.7874015748031497
        },
        {
          "duration": 0.07352937500002099,
          "durationTicks": 12,
          "midi": 40,
          "name": "E2",
          "ticks": 36240,
          "time": 222.0587125,
          "velocity": 0.7874015748031497
        },
        {
          "duration": 0.07352937499999257,
          "durationTicks": 12,
          "midi": 40,
          "name": "E2",
          "ticks": 36252,
          "time": 222.13224187500003,
          "velocity": 0.7874015748031497
        },
        {
          "duration": 0.07352937499999257,
          "durationTicks": 12,
          "midi": 45,
          "name": "A2",
          "ticks": 36252,
          "time": 222.13224187500003,
          "velocity": 0.7874015748031497
        },
        {
          "duration": 0.14705874999998514,
          "durationTicks": 24,
          "midi": 40,
          "name": "E2",
          "ticks": 36264,
          "time": 222.20577125000003,
          "velocity": 0.7874015748031497
        },
        {
          "duration": 0.14705874999998514,
          "durationTicks": 24,
          "midi": 45,
          "name": "A2",
          "ticks": 36264,
          "time": 222.20577125000003,
          "velocity": 0.7874015748031497
        },
        {
          "duration": 0.14705875000001356,
          "durationTicks": 24,
          "midi": 40,
          "name": "E2",
          "ticks": 36336,
          "time": 222.6469475,
          "velocity": 0.7874015748031497
        },
        {
          "duration": 0.14705875000001356,
          "durationTicks": 24,
          "midi": 45,
          "name": "A2",
          "ticks": 36336,
          "time": 222.6469475,
          "velocity": 0.7874015748031497
        },
        {
          "duration": 0.2941174999999987,
          "durationTicks": 48,
          "midi": 45,
          "name": "A2",
          "ticks": 36408,
          "time": 223.08812375000002,
          "velocity": 0.7874015748031497
        },
        {
          "duration": 0.2941174999999987,
          "durationTicks": 48,
          "midi": 40,
          "name": "E2",
          "ticks": 36408,
          "time": 223.08812375000002,
          "velocity": 0.7874015748031497
        },
        {
          "duration": 0.07352937499999257,
          "durationTicks": 12,
          "midi": 45,
          "name": "A2",
          "ticks": 36456,
          "time": 223.38224125000002,
          "velocity": 0.7874015748031497
        },
        {
          "duration": 0.07352937499999257,
          "durationTicks": 12,
          "midi": 40,
          "name": "E2",
          "ticks": 36456,
          "time": 223.38224125000002,
          "velocity": 0.7874015748031497
        },
        {
          "duration": 0.07352937500002099,
          "durationTicks": 12,
          "midi": 45,
          "name": "A2",
          "ticks": 36468,
          "time": 223.455770625,
          "velocity": 0.7874015748031497
        },
        {
          "duration": 0.07352937500002099,
          "durationTicks": 12,
          "midi": 40,
          "name": "E2",
          "ticks": 36468,
          "time": 223.455770625,
          "velocity": 0.7874015748031497
        },
        {
          "duration": 0.14705874999998514,
          "durationTicks": 24,
          "midi": 45,
          "name": "A2",
          "ticks": 36480,
          "time": 223.52930000000003,
          "velocity": 0.7874015748031497
        },
        {
          "duration": 0.14705874999998514,
          "durationTicks": 24,
          "midi": 40,
          "name": "E2",
          "ticks": 36480,
          "time": 223.52930000000003,
          "velocity": 0.7874015748031497
        },
        {
          "duration": 0.14705875000001356,
          "durationTicks": 24,
          "midi": 40,
          "name": "E2",
          "ticks": 36504,
          "time": 223.67635875000002,
          "velocity": 0.7874015748031497
        },
        {
          "duration": 0.14705875000001356,
          "durationTicks": 24,
          "midi": 45,
          "name": "A2",
          "ticks": 36504,
          "time": 223.67635875000002,
          "velocity": 0.7874015748031497
        },
        {
          "duration": 0.14705874999998514,
          "durationTicks": 24,
          "midi": 40,
          "name": "E2",
          "ticks": 36528,
          "time": 223.82341750000003,
          "velocity": 0.7874015748031497
        },
        {
          "duration": 0.14705874999998514,
          "durationTicks": 24,
          "midi": 45,
          "name": "A2",
          "ticks": 36528,
          "time": 223.82341750000003,
          "velocity": 0.7874015748031497
        },
        {
          "duration": 0.14705875000001356,
          "durationTicks": 24,
          "midi": 40,
          "name": "E2",
          "ticks": 36552,
          "time": 223.97047625000002,
          "velocity": 0.7874015748031497
        },
        {
          "duration": 0.14705875000001356,
          "durationTicks": 24,
          "midi": 45,
          "name": "A2",
          "ticks": 36552,
          "time": 223.97047625000002,
          "velocity": 0.7874015748031497
        },
        {
          "duration": 0.2941174999999987,
          "durationTicks": 48,
          "midi": 40,
          "name": "E2",
          "ticks": 36576,
          "time": 224.11753500000003,
          "velocity": 0.7874015748031497
        },
        {
          "duration": 0.2941174999999987,
          "durationTicks": 48,
          "midi": 45,
          "name": "A2",
          "ticks": 36576,
          "time": 224.11753500000003,
          "velocity": 0.7874015748031497
        },
        {
          "duration": 0.07352937499999257,
          "durationTicks": 12,
          "midi": 45,
          "name": "A2",
          "ticks": 36624,
          "time": 224.41165250000003,
          "velocity": 0.7874015748031497
        },
        {
          "duration": 0.07352937499999257,
          "durationTicks": 12,
          "midi": 40,
          "name": "E2",
          "ticks": 36624,
          "time": 224.41165250000003,
          "velocity": 0.7874015748031497
        },
        {
          "duration": 0.07352937499999257,
          "durationTicks": 12,
          "midi": 40,
          "name": "E2",
          "ticks": 36636,
          "time": 224.48518187500002,
          "velocity": 0.7874015748031497
        },
        {
          "duration": 0.07352937499999257,
          "durationTicks": 12,
          "midi": 45,
          "name": "A2",
          "ticks": 36636,
          "time": 224.48518187500002,
          "velocity": 0.7874015748031497
        },
        {
          "duration": 0.14705875000001356,
          "durationTicks": 24,
          "midi": 45,
          "name": "A2",
          "ticks": 36648,
          "time": 224.55871125000002,
          "velocity": 0.7874015748031497
        },
        {
          "duration": 0.14705875000001356,
          "durationTicks": 24,
          "midi": 40,
          "name": "E2",
          "ticks": 36648,
          "time": 224.55871125000002,
          "velocity": 0.7874015748031497
        },
        {
          "duration": 0.14705874999998514,
          "durationTicks": 24,
          "midi": 45,
          "name": "A2",
          "ticks": 36720,
          "time": 224.99988750000003,
          "velocity": 0.7874015748031497
        },
        {
          "duration": 0.14705874999998514,
          "durationTicks": 24,
          "midi": 40,
          "name": "E2",
          "ticks": 36720,
          "time": 224.99988750000003,
          "velocity": 0.7874015748031497
        },
        {
          "duration": 0.2941174999999987,
          "durationTicks": 48,
          "midi": 40,
          "name": "E2",
          "ticks": 36792,
          "time": 225.44106375,
          "velocity": 0.7874015748031497
        },
        {
          "duration": 0.2941174999999987,
          "durationTicks": 48,
          "midi": 45,
          "name": "A2",
          "ticks": 36792,
          "time": 225.44106375,
          "velocity": 0.7874015748031497
        },
        {
          "duration": 0.07352937500002099,
          "durationTicks": 12,
          "midi": 40,
          "name": "E2",
          "ticks": 36840,
          "time": 225.73518125,
          "velocity": 0.7874015748031497
        },
        {
          "duration": 0.07352937500002099,
          "durationTicks": 12,
          "midi": 45,
          "name": "A2",
          "ticks": 36840,
          "time": 225.73518125,
          "velocity": 0.7874015748031497
        },
        {
          "duration": 0.07352937499999257,
          "durationTicks": 12,
          "midi": 45,
          "name": "A2",
          "ticks": 36852,
          "time": 225.80871062500003,
          "velocity": 0.7874015748031497
        },
        {
          "duration": 0.07352937499999257,
          "durationTicks": 12,
          "midi": 40,
          "name": "E2",
          "ticks": 36852,
          "time": 225.80871062500003,
          "velocity": 0.7874015748031497
        },
        {
          "duration": 0.14705875000001356,
          "durationTicks": 24,
          "midi": 40,
          "name": "E2",
          "ticks": 36864,
          "time": 225.88224000000002,
          "velocity": 0.7874015748031497
        },
        {
          "duration": 0.14705875000001356,
          "durationTicks": 24,
          "midi": 45,
          "name": "A2",
          "ticks": 36864,
          "time": 225.88224000000002,
          "velocity": 0.7874015748031497
        },
        {
          "duration": 0.14705874999998514,
          "durationTicks": 24,
          "midi": 45,
          "name": "A2",
          "ticks": 36888,
          "time": 226.02929875000004,
          "velocity": 0.7874015748031497
        },
        {
          "duration": 0.14705874999998514,
          "durationTicks": 24,
          "midi": 40,
          "name": "E2",
          "ticks": 36888,
          "time": 226.02929875000004,
          "velocity": 0.7874015748031497
        },
        {
          "duration": 0.14705875000001356,
          "durationTicks": 24,
          "midi": 45,
          "name": "A2",
          "ticks": 36912,
          "time": 226.17635750000002,
          "velocity": 0.7874015748031497
        },
        {
          "duration": 0.14705875000001356,
          "durationTicks": 24,
          "midi": 40,
          "name": "E2",
          "ticks": 36912,
          "time": 226.17635750000002,
          "velocity": 0.7874015748031497
        },
        {
          "duration": 0.14705874999998514,
          "durationTicks": 24,
          "midi": 40,
          "name": "E2",
          "ticks": 36936,
          "time": 226.32341625000004,
          "velocity": 0.7874015748031497
        },
        {
          "duration": 0.14705874999998514,
          "durationTicks": 24,
          "midi": 45,
          "name": "A2",
          "ticks": 36936,
          "time": 226.32341625000004,
          "velocity": 0.7874015748031497
        },
        {
          "duration": 0.2941174999999987,
          "durationTicks": 48,
          "midi": 45,
          "name": "A2",
          "ticks": 36960,
          "time": 226.47047500000002,
          "velocity": 0.7874015748031497
        },
        {
          "duration": 0.2941174999999987,
          "durationTicks": 48,
          "midi": 40,
          "name": "E2",
          "ticks": 36960,
          "time": 226.47047500000002,
          "velocity": 0.7874015748031497
        },
        {
          "duration": 0.07352937499999257,
          "durationTicks": 12,
          "midi": 40,
          "name": "E2",
          "ticks": 37008,
          "time": 226.76459250000002,
          "velocity": 0.7874015748031497
        },
        {
          "duration": 0.07352937499999257,
          "durationTicks": 12,
          "midi": 45,
          "name": "A2",
          "ticks": 37008,
          "time": 226.76459250000002,
          "velocity": 0.7874015748031497
        },
        {
          "duration": 0.07352937500002099,
          "durationTicks": 12,
          "midi": 45,
          "name": "A2",
          "ticks": 37020,
          "time": 226.838121875,
          "velocity": 0.7874015748031497
        },
        {
          "duration": 0.07352937500002099,
          "durationTicks": 12,
          "midi": 40,
          "name": "E2",
          "ticks": 37020,
          "time": 226.838121875,
          "velocity": 0.7874015748031497
        },
        {
          "duration": 0.14705874999998514,
          "durationTicks": 24,
          "midi": 45,
          "name": "A2",
          "ticks": 37032,
          "time": 226.91165125000003,
          "velocity": 0.7874015748031497
        },
        {
          "duration": 0.14705874999998514,
          "durationTicks": 24,
          "midi": 40,
          "name": "E2",
          "ticks": 37032,
          "time": 226.91165125000003,
          "velocity": 0.7874015748031497
        },
        {
          "duration": 0.14705875000001356,
          "durationTicks": 24,
          "midi": 40,
          "name": "E2",
          "ticks": 37104,
          "time": 227.35282750000002,
          "velocity": 0.7874015748031497
        },
        {
          "duration": 0.14705875000001356,
          "durationTicks": 24,
          "midi": 45,
          "name": "A2",
          "ticks": 37104,
          "time": 227.35282750000002,
          "velocity": 0.7874015748031497
        },
        {
          "duration": 0.2941174999999987,
          "durationTicks": 48,
          "midi": 40,
          "name": "E2",
          "ticks": 37176,
          "time": 227.79400375000003,
          "velocity": 0.7874015748031497
        },
        {
          "duration": 0.2941174999999987,
          "durationTicks": 48,
          "midi": 45,
          "name": "A2",
          "ticks": 37176,
          "time": 227.79400375000003,
          "velocity": 0.7874015748031497
        },
        {
          "duration": 0.07352937499999257,
          "durationTicks": 12,
          "midi": 45,
          "name": "A2",
          "ticks": 37224,
          "time": 228.08812125000003,
          "velocity": 0.7874015748031497
        },
        {
          "duration": 0.07352937499999257,
          "durationTicks": 12,
          "midi": 40,
          "name": "E2",
          "ticks": 37224,
          "time": 228.08812125000003,
          "velocity": 0.7874015748031497
        },
        {
          "duration": 0.07352937499999257,
          "durationTicks": 12,
          "midi": 40,
          "name": "E2",
          "ticks": 37236,
          "time": 228.16165062500002,
          "velocity": 0.7874015748031497
        },
        {
          "duration": 0.07352937499999257,
          "durationTicks": 12,
          "midi": 45,
          "name": "A2",
          "ticks": 37236,
          "time": 228.16165062500002,
          "velocity": 0.7874015748031497
        },
        {
          "duration": 0.14705875000001356,
          "durationTicks": 24,
          "midi": 40,
          "name": "E2",
          "ticks": 37248,
          "time": 228.23518,
          "velocity": 0.7874015748031497
        },
        {
          "duration": 0.14705875000001356,
          "durationTicks": 24,
          "midi": 45,
          "name": "A2",
          "ticks": 37248,
          "time": 228.23518,
          "velocity": 0.7874015748031497
        },
        {
          "duration": 0.14705874999998514,
          "durationTicks": 24,
          "midi": 45,
          "name": "A2",
          "ticks": 37272,
          "time": 228.38223875000003,
          "velocity": 0.7874015748031497
        },
        {
          "duration": 0.14705874999998514,
          "durationTicks": 24,
          "midi": 40,
          "name": "E2",
          "ticks": 37272,
          "time": 228.38223875000003,
          "velocity": 0.7874015748031497
        },
        {
          "duration": 0.14705875000001356,
          "durationTicks": 24,
          "midi": 40,
          "name": "E2",
          "ticks": 37296,
          "time": 228.5292975,
          "velocity": 0.7874015748031497
        },
        {
          "duration": 0.14705875000001356,
          "durationTicks": 24,
          "midi": 45,
          "name": "A2",
          "ticks": 37296,
          "time": 228.5292975,
          "velocity": 0.7874015748031497
        },
        {
          "duration": 0.14705874999998514,
          "durationTicks": 24,
          "midi": 40,
          "name": "E2",
          "ticks": 37320,
          "time": 228.67635625000003,
          "velocity": 0.7874015748031497
        },
        {
          "duration": 0.14705874999998514,
          "durationTicks": 24,
          "midi": 45,
          "name": "A2",
          "ticks": 37320,
          "time": 228.67635625000003,
          "velocity": 0.7874015748031497
        },
        {
          "duration": 0.2941175000000271,
          "durationTicks": 48,
          "midi": 45,
          "name": "A2",
          "ticks": 37344,
          "time": 228.823415,
          "velocity": 0.7874015748031497
        },
        {
          "duration": 0.2941175000000271,
          "durationTicks": 48,
          "midi": 40,
          "name": "E2",
          "ticks": 37344,
          "time": 228.823415,
          "velocity": 0.7874015748031497
        },
        {
          "duration": 0.07352937499999257,
          "durationTicks": 12,
          "midi": 45,
          "name": "A2",
          "ticks": 37392,
          "time": 229.11753250000004,
          "velocity": 0.7874015748031497
        },
        {
          "duration": 0.07352937499999257,
          "durationTicks": 12,
          "midi": 40,
          "name": "E2",
          "ticks": 37392,
          "time": 229.11753250000004,
          "velocity": 0.7874015748031497
        },
        {
          "duration": 0.07352937499999257,
          "durationTicks": 12,
          "midi": 40,
          "name": "E2",
          "ticks": 37404,
          "time": 229.19106187500003,
          "velocity": 0.7874015748031497
        },
        {
          "duration": 0.07352937499999257,
          "durationTicks": 12,
          "midi": 45,
          "name": "A2",
          "ticks": 37404,
          "time": 229.19106187500003,
          "velocity": 0.7874015748031497
        },
        {
          "duration": 0.14705875000001356,
          "durationTicks": 24,
          "midi": 40,
          "name": "E2",
          "ticks": 37416,
          "time": 229.26459125000002,
          "velocity": 0.7874015748031497
        },
        {
          "duration": 0.14705875000001356,
          "durationTicks": 24,
          "midi": 45,
          "name": "A2",
          "ticks": 37416,
          "time": 229.26459125000002,
          "velocity": 0.7874015748031497
        },
        {
          "duration": 0.14705874999998514,
          "durationTicks": 24,
          "midi": 40,
          "name": "E2",
          "ticks": 37488,
          "time": 229.70576750000004,
          "velocity": 0.7874015748031497
        },
        {
          "duration": 0.14705874999998514,
          "durationTicks": 24,
          "midi": 45,
          "name": "A2",
          "ticks": 37488,
          "time": 229.70576750000004,
          "velocity": 0.7874015748031497
        },
        {
          "duration": 0.2941174999999987,
          "durationTicks": 48,
          "midi": 40,
          "name": "E2",
          "ticks": 37560,
          "time": 230.14694375000002,
          "velocity": 0.7874015748031497
        },
        {
          "duration": 0.2941174999999987,
          "durationTicks": 48,
          "midi": 45,
          "name": "A2",
          "ticks": 37560,
          "time": 230.14694375000002,
          "velocity": 0.7874015748031497
        },
        {
          "duration": 0.07352937499999257,
          "durationTicks": 12,
          "midi": 45,
          "name": "A2",
          "ticks": 37608,
          "time": 230.44106125000002,
          "velocity": 0.7874015748031497
        },
        {
          "duration": 0.07352937499999257,
          "durationTicks": 12,
          "midi": 40,
          "name": "E2",
          "ticks": 37608,
          "time": 230.44106125000002,
          "velocity": 0.7874015748031497
        },
        {
          "duration": 0.07352937500002099,
          "durationTicks": 12,
          "midi": 45,
          "name": "A2",
          "ticks": 37620,
          "time": 230.514590625,
          "velocity": 0.7874015748031497
        },
        {
          "duration": 0.07352937500002099,
          "durationTicks": 12,
          "midi": 40,
          "name": "E2",
          "ticks": 37620,
          "time": 230.514590625,
          "velocity": 0.7874015748031497
        },
        {
          "duration": 0.14705874999998514,
          "durationTicks": 24,
          "midi": 40,
          "name": "E2",
          "ticks": 37632,
          "time": 230.58812000000003,
          "velocity": 0.7874015748031497
        },
        {
          "duration": 0.14705874999998514,
          "durationTicks": 24,
          "midi": 45,
          "name": "A2",
          "ticks": 37632,
          "time": 230.58812000000003,
          "velocity": 0.7874015748031497
        },
        {
          "duration": 0.14705875000001356,
          "durationTicks": 24,
          "midi": 45,
          "name": "A2",
          "ticks": 37656,
          "time": 230.73517875000002,
          "velocity": 0.7874015748031497
        },
        {
          "duration": 0.14705875000001356,
          "durationTicks": 24,
          "midi": 40,
          "name": "E2",
          "ticks": 37656,
          "time": 230.73517875000002,
          "velocity": 0.7874015748031497
        },
        {
          "duration": 0.14705874999998514,
          "durationTicks": 24,
          "midi": 45,
          "name": "A2",
          "ticks": 37680,
          "time": 230.88223750000003,
          "velocity": 0.7874015748031497
        },
        {
          "duration": 0.14705874999998514,
          "durationTicks": 24,
          "midi": 40,
          "name": "E2",
          "ticks": 37680,
          "time": 230.88223750000003,
          "velocity": 0.7874015748031497
        },
        {
          "duration": 0.14705875000001356,
          "durationTicks": 24,
          "midi": 45,
          "name": "A2",
          "ticks": 37704,
          "time": 231.02929625000002,
          "velocity": 0.7874015748031497
        },
        {
          "duration": 0.14705875000001356,
          "durationTicks": 24,
          "midi": 40,
          "name": "E2",
          "ticks": 37704,
          "time": 231.02929625000002,
          "velocity": 0.7874015748031497
        },
        {
          "duration": 0.14705874999998514,
          "durationTicks": 24,
          "midi": 55,
          "name": "G3",
          "ticks": 37728,
          "time": 231.17635500000003,
          "velocity": 0.7874015748031497
        },
        {
          "duration": 0.14705874999998514,
          "durationTicks": 24,
          "midi": 50,
          "name": "D3",
          "ticks": 37728,
          "time": 231.17635500000003,
          "velocity": 0.7874015748031497
        },
        {
          "duration": 0.14705875000001356,
          "durationTicks": 24,
          "midi": 50,
          "name": "D3",
          "ticks": 37752,
          "time": 231.32341375000001,
          "velocity": 0.7874015748031497
        },
        {
          "duration": 0.14705875000001356,
          "durationTicks": 24,
          "midi": 55,
          "name": "G3",
          "ticks": 37752,
          "time": 231.32341375000001,
          "velocity": 0.7874015748031497
        },
        {
          "duration": 0.14705874999998514,
          "durationTicks": 24,
          "midi": 50,
          "name": "D3",
          "ticks": 37776,
          "time": 231.47047250000003,
          "velocity": 0.7874015748031497
        },
        {
          "duration": 0.14705874999998514,
          "durationTicks": 24,
          "midi": 55,
          "name": "G3",
          "ticks": 37776,
          "time": 231.47047250000003,
          "velocity": 0.7874015748031497
        },
        {
          "duration": 0.14705875000001356,
          "durationTicks": 24,
          "midi": 50,
          "name": "D3",
          "ticks": 37800,
          "time": 231.61753125,
          "velocity": 0.7874015748031497
        },
        {
          "duration": 0.14705875000001356,
          "durationTicks": 24,
          "midi": 55,
          "name": "G3",
          "ticks": 37800,
          "time": 231.61753125,
          "velocity": 0.7874015748031497
        },
        {
          "duration": 0.07352937499999257,
          "durationTicks": 12,
          "midi": 50,
          "name": "D3",
          "ticks": 37872,
          "time": 232.05870750000003,
          "velocity": 0.7874015748031497
        },
        {
          "duration": 0.07352937499999257,
          "durationTicks": 12,
          "midi": 55,
          "name": "G3",
          "ticks": 37872,
          "time": 232.05870750000003,
          "velocity": 0.7874015748031497
        },
        {
          "duration": 0.07352937500002099,
          "durationTicks": 12,
          "midi": 50,
          "name": "D3",
          "ticks": 37884,
          "time": 232.13223687500002,
          "velocity": 0.7874015748031497
        },
        {
          "duration": 0.07352937500002099,
          "durationTicks": 12,
          "midi": 55,
          "name": "G3",
          "ticks": 37884,
          "time": 232.13223687500002,
          "velocity": 0.7874015748031497
        },
        {
          "duration": 0.14705874999998514,
          "durationTicks": 24,
          "midi": 55,
          "name": "G3",
          "ticks": 37896,
          "time": 232.20576625000004,
          "velocity": 0.7874015748031497
        },
        {
          "duration": 0.14705874999998514,
          "durationTicks": 24,
          "midi": 50,
          "name": "D3",
          "ticks": 37896,
          "time": 232.20576625000004,
          "velocity": 0.7874015748031497
        },
        {
          "duration": 0.14705875000001356,
          "durationTicks": 24,
          "midi": 50,
          "name": "D3",
          "ticks": 37920,
          "time": 232.35282500000002,
          "velocity": 0.7874015748031497
        },
        {
          "duration": 0.14705875000001356,
          "durationTicks": 24,
          "midi": 55,
          "name": "G3",
          "ticks": 37920,
          "time": 232.35282500000002,
          "velocity": 0.7874015748031497
        },
        {
          "duration": 0.14705874999998514,
          "durationTicks": 24,
          "midi": 55,
          "name": "G3",
          "ticks": 37944,
          "time": 232.49988375000004,
          "velocity": 0.7874015748031497
        },
        {
          "duration": 0.14705874999998514,
          "durationTicks": 24,
          "midi": 50,
          "name": "D3",
          "ticks": 37944,
          "time": 232.49988375000004,
          "velocity": 0.7874015748031497
        },
        {
          "duration": 0.14705875000001356,
          "durationTicks": 24,
          "midi": 50,
          "name": "D3",
          "ticks": 37968,
          "time": 232.64694250000002,
          "velocity": 0.7874015748031497
        },
        {
          "duration": 0.14705875000001356,
          "durationTicks": 24,
          "midi": 55,
          "name": "G3",
          "ticks": 37968,
          "time": 232.64694250000002,
          "velocity": 0.7874015748031497
        },
        {
          "duration": 0.14705874999998514,
          "durationTicks": 24,
          "midi": 55,
          "name": "G3",
          "ticks": 37992,
          "time": 232.79400125000004,
          "velocity": 0.7874015748031497
        },
        {
          "duration": 0.14705874999998514,
          "durationTicks": 24,
          "midi": 50,
          "name": "D3",
          "ticks": 37992,
          "time": 232.79400125000004,
          "velocity": 0.7874015748031497
        },
        {
          "duration": 0.07352937499999257,
          "durationTicks": 12,
          "midi": 50,
          "name": "D3",
          "ticks": 38064,
          "time": 233.23517750000002,
          "velocity": 0.7874015748031497
        },
        {
          "duration": 0.07352937499999257,
          "durationTicks": 12,
          "midi": 55,
          "name": "G3",
          "ticks": 38064,
          "time": 233.23517750000002,
          "velocity": 0.7874015748031497
        },
        {
          "duration": 0.07352937500002099,
          "durationTicks": 12,
          "midi": 50,
          "name": "D3",
          "ticks": 38076,
          "time": 233.308706875,
          "velocity": 0.7874015748031497
        },
        {
          "duration": 0.07352937500002099,
          "durationTicks": 12,
          "midi": 55,
          "name": "G3",
          "ticks": 38076,
          "time": 233.308706875,
          "velocity": 0.7874015748031497
        },
        {
          "duration": 0.14705874999998514,
          "durationTicks": 24,
          "midi": 50,
          "name": "D3",
          "ticks": 38088,
          "time": 233.38223625000003,
          "velocity": 0.7874015748031497
        },
        {
          "duration": 0.14705874999998514,
          "durationTicks": 24,
          "midi": 55,
          "name": "G3",
          "ticks": 38088,
          "time": 233.38223625000003,
          "velocity": 0.7874015748031497
        },
        {
          "duration": 0.14705875000001356,
          "durationTicks": 24,
          "midi": 53,
          "name": "F3",
          "ticks": 38112,
          "time": 233.52929500000002,
          "velocity": 0.7874015748031497
        },
        {
          "duration": 0.14705875000001356,
          "durationTicks": 24,
          "midi": 48,
          "name": "C3",
          "ticks": 38112,
          "time": 233.52929500000002,
          "velocity": 0.7874015748031497
        },
        {
          "duration": 0.14705874999998514,
          "durationTicks": 24,
          "midi": 53,
          "name": "F3",
          "ticks": 38136,
          "time": 233.67635375000003,
          "velocity": 0.7874015748031497
        },
        {
          "duration": 0.14705874999998514,
          "durationTicks": 24,
          "midi": 48,
          "name": "C3",
          "ticks": 38136,
          "time": 233.67635375000003,
          "velocity": 0.7874015748031497
        },
        {
          "duration": 0.14705875000001356,
          "durationTicks": 24,
          "midi": 53,
          "name": "F3",
          "ticks": 38160,
          "time": 233.82341250000002,
          "velocity": 0.7874015748031497
        },
        {
          "duration": 0.14705875000001356,
          "durationTicks": 24,
          "midi": 48,
          "name": "C3",
          "ticks": 38160,
          "time": 233.82341250000002,
          "velocity": 0.7874015748031497
        },
        {
          "duration": 0.14705874999998514,
          "durationTicks": 24,
          "midi": 48,
          "name": "C3",
          "ticks": 38184,
          "time": 233.97047125000003,
          "velocity": 0.7874015748031497
        },
        {
          "duration": 0.14705874999998514,
          "durationTicks": 24,
          "midi": 53,
          "name": "F3",
          "ticks": 38184,
          "time": 233.97047125000003,
          "velocity": 0.7874015748031497
        },
        {
          "duration": 0.07352937500002099,
          "durationTicks": 12,
          "midi": 48,
          "name": "C3",
          "ticks": 38256,
          "time": 234.41164750000002,
          "velocity": 0.7874015748031497
        },
        {
          "duration": 0.07352937500002099,
          "durationTicks": 12,
          "midi": 53,
          "name": "F3",
          "ticks": 38256,
          "time": 234.41164750000002,
          "velocity": 0.7874015748031497
        },
        {
          "duration": 0.07352937499999257,
          "durationTicks": 12,
          "midi": 53,
          "name": "F3",
          "ticks": 38268,
          "time": 234.48517687500004,
          "velocity": 0.7874015748031497
        },
        {
          "duration": 0.07352937499999257,
          "durationTicks": 12,
          "midi": 48,
          "name": "C3",
          "ticks": 38268,
          "time": 234.48517687500004,
          "velocity": 0.7874015748031497
        },
        {
          "duration": 0.14705874999998514,
          "durationTicks": 24,
          "midi": 53,
          "name": "F3",
          "ticks": 38280,
          "time": 234.55870625000003,
          "velocity": 0.7874015748031497
        },
        {
          "duration": 0.14705874999998514,
          "durationTicks": 24,
          "midi": 48,
          "name": "C3",
          "ticks": 38280,
          "time": 234.55870625000003,
          "velocity": 0.7874015748031497
        },
        {
          "duration": 0.14705875000001356,
          "durationTicks": 24,
          "midi": 48,
          "name": "C3",
          "ticks": 38304,
          "time": 234.705765,
          "velocity": 0.7874015748031497
        },
        {
          "duration": 0.14705875000001356,
          "durationTicks": 24,
          "midi": 53,
          "name": "F3",
          "ticks": 38304,
          "time": 234.705765,
          "velocity": 0.7874015748031497
        },
        {
          "duration": 0.14705874999998514,
          "durationTicks": 24,
          "midi": 53,
          "name": "F3",
          "ticks": 38328,
          "time": 234.85282375000003,
          "velocity": 0.7874015748031497
        },
        {
          "duration": 0.14705874999998514,
          "durationTicks": 24,
          "midi": 48,
          "name": "C3",
          "ticks": 38328,
          "time": 234.85282375000003,
          "velocity": 0.7874015748031497
        },
        {
          "duration": 0.14705875000001356,
          "durationTicks": 24,
          "midi": 48,
          "name": "C3",
          "ticks": 38352,
          "time": 234.9998825,
          "velocity": 0.7874015748031497
        },
        {
          "duration": 0.14705875000001356,
          "durationTicks": 24,
          "midi": 53,
          "name": "F3",
          "ticks": 38352,
          "time": 234.9998825,
          "velocity": 0.7874015748031497
        },
        {
          "duration": 0.14705875000001356,
          "durationTicks": 24,
          "midi": 48,
          "name": "C3",
          "ticks": 38376,
          "time": 235.14694125000003,
          "velocity": 0.7874015748031497
        },
        {
          "duration": 0.14705875000001356,
          "durationTicks": 24,
          "midi": 53,
          "name": "F3",
          "ticks": 38376,
          "time": 235.14694125000003,
          "velocity": 0.7874015748031497
        },
        {
          "duration": 0.07352937499999257,
          "durationTicks": 12,
          "midi": 48,
          "name": "C3",
          "ticks": 38448,
          "time": 235.58811750000004,
          "velocity": 0.7874015748031497
        },
        {
          "duration": 0.07352937499999257,
          "durationTicks": 12,
          "midi": 53,
          "name": "F3",
          "ticks": 38448,
          "time": 235.58811750000004,
          "velocity": 0.7874015748031497
        },
        {
          "duration": 0.07352937499999257,
          "durationTicks": 12,
          "midi": 48,
          "name": "C3",
          "ticks": 38460,
          "time": 235.66164687500003,
          "velocity": 0.7874015748031497
        },
        {
          "duration": 0.07352937499999257,
          "durationTicks": 12,
          "midi": 53,
          "name": "F3",
          "ticks": 38460,
          "time": 235.66164687500003,
          "velocity": 0.7874015748031497
        },
        {
          "duration": 0.14705875000001356,
          "durationTicks": 24,
          "midi": 53,
          "name": "F3",
          "ticks": 38472,
          "time": 235.73517625000002,
          "velocity": 0.7874015748031497
        },
        {
          "duration": 0.14705875000001356,
          "durationTicks": 24,
          "midi": 48,
          "name": "C3",
          "ticks": 38472,
          "time": 235.73517625000002,
          "velocity": 0.7874015748031497
        },
        {
          "duration": 0.14705874999998514,
          "durationTicks": 24,
          "midi": 51,
          "name": "D#3",
          "ticks": 38496,
          "time": 235.88223500000004,
          "velocity": 0.7874015748031497
        },
        {
          "duration": 0.14705874999998514,
          "durationTicks": 24,
          "midi": 46,
          "name": "A#2",
          "ticks": 38496,
          "time": 235.88223500000004,
          "velocity": 0.7874015748031497
        },
        {
          "duration": 0.14705875000001356,
          "durationTicks": 24,
          "midi": 46,
          "name": "A#2",
          "ticks": 38520,
          "time": 236.02929375000002,
          "velocity": 0.7874015748031497
        },
        {
          "duration": 0.14705875000001356,
          "durationTicks": 24,
          "midi": 51,
          "name": "D#3",
          "ticks": 38520,
          "time": 236.02929375000002,
          "velocity": 0.7874015748031497
        },
        {
          "duration": 0.14705874999998514,
          "durationTicks": 24,
          "midi": 46,
          "name": "A#2",
          "ticks": 38544,
          "time": 236.17635250000004,
          "velocity": 0.7874015748031497
        },
        {
          "duration": 0.14705874999998514,
          "durationTicks": 24,
          "midi": 51,
          "name": "D#3",
          "ticks": 38544,
          "time": 236.17635250000004,
          "velocity": 0.7874015748031497
        },
        {
          "duration": 0.14705875000001356,
          "durationTicks": 24,
          "midi": 46,
          "name": "A#2",
          "ticks": 38568,
          "time": 236.32341125000002,
          "velocity": 0.7874015748031497
        },
        {
          "duration": 0.14705875000001356,
          "durationTicks": 24,
          "midi": 51,
          "name": "D#3",
          "ticks": 38568,
          "time": 236.32341125000002,
          "velocity": 0.7874015748031497
        },
        {
          "duration": 0.07352937499999257,
          "durationTicks": 12,
          "midi": 51,
          "name": "D#3",
          "ticks": 38640,
          "time": 236.76458750000003,
          "velocity": 0.7874015748031497
        },
        {
          "duration": 0.07352937499999257,
          "durationTicks": 12,
          "midi": 46,
          "name": "A#2",
          "ticks": 38640,
          "time": 236.76458750000003,
          "velocity": 0.7874015748031497
        },
        {
          "duration": 0.07352937499999257,
          "durationTicks": 12,
          "midi": 51,
          "name": "D#3",
          "ticks": 38652,
          "time": 236.83811687500003,
          "velocity": 0.7874015748031497
        },
        {
          "duration": 0.07352937499999257,
          "durationTicks": 12,
          "midi": 46,
          "name": "A#2",
          "ticks": 38652,
          "time": 236.83811687500003,
          "velocity": 0.7874015748031497
        },
        {
          "duration": 0.14705875000001356,
          "durationTicks": 24,
          "midi": 51,
          "name": "D#3",
          "ticks": 38664,
          "time": 236.91164625000002,
          "velocity": 0.7874015748031497
        },
        {
          "duration": 0.14705875000001356,
          "durationTicks": 24,
          "midi": 46,
          "name": "A#2",
          "ticks": 38664,
          "time": 236.91164625000002,
          "velocity": 0.7874015748031497
        },
        {
          "duration": 0.14705874999998514,
          "durationTicks": 24,
          "midi": 46,
          "name": "A#2",
          "ticks": 38688,
          "time": 237.05870500000003,
          "velocity": 0.7874015748031497
        },
        {
          "duration": 0.14705874999998514,
          "durationTicks": 24,
          "midi": 51,
          "name": "D#3",
          "ticks": 38688,
          "time": 237.05870500000003,
          "velocity": 0.7874015748031497
        },
        {
          "duration": 0.14705875000001356,
          "durationTicks": 24,
          "midi": 46,
          "name": "A#2",
          "ticks": 38712,
          "time": 237.20576375000002,
          "velocity": 0.7874015748031497
        },
        {
          "duration": 0.14705875000001356,
          "durationTicks": 24,
          "midi": 51,
          "name": "D#3",
          "ticks": 38712,
          "time": 237.20576375000002,
          "velocity": 0.7874015748031497
        },
        {
          "duration": 0.14705874999998514,
          "durationTicks": 24,
          "midi": 46,
          "name": "A#2",
          "ticks": 38736,
          "time": 237.35282250000003,
          "velocity": 0.7874015748031497
        },
        {
          "duration": 0.14705874999998514,
          "durationTicks": 24,
          "midi": 51,
          "name": "D#3",
          "ticks": 38736,
          "time": 237.35282250000003,
          "velocity": 0.7874015748031497
        },
        {
          "duration": 0.14705875000001356,
          "durationTicks": 24,
          "midi": 51,
          "name": "D#3",
          "ticks": 38760,
          "time": 237.49988125000002,
          "velocity": 0.7874015748031497
        },
        {
          "duration": 0.14705875000001356,
          "durationTicks": 24,
          "midi": 46,
          "name": "A#2",
          "ticks": 38760,
          "time": 237.49988125000002,
          "velocity": 0.7874015748031497
        },
        {
          "duration": 0.07352937499999257,
          "durationTicks": 12,
          "midi": 51,
          "name": "D#3",
          "ticks": 38832,
          "time": 237.94105750000003,
          "velocity": 0.7874015748031497
        },
        {
          "duration": 0.07352937499999257,
          "durationTicks": 12,
          "midi": 46,
          "name": "A#2",
          "ticks": 38832,
          "time": 237.94105750000003,
          "velocity": 0.7874015748031497
        },
        {
          "duration": 0.07352937499999257,
          "durationTicks": 12,
          "midi": 51,
          "name": "D#3",
          "ticks": 38844,
          "time": 238.01458687500002,
          "velocity": 0.7874015748031497
        },
        {
          "duration": 0.07352937499999257,
          "durationTicks": 12,
          "midi": 46,
          "name": "A#2",
          "ticks": 38844,
          "time": 238.01458687500002,
          "velocity": 0.7874015748031497
        },
        {
          "duration": 0.14705875000001356,
          "durationTicks": 24,
          "midi": 46,
          "name": "A#2",
          "ticks": 38856,
          "time": 238.08811625,
          "velocity": 0.7874015748031497
        },
        {
          "duration": 0.14705875000001356,
          "durationTicks": 24,
          "midi": 51,
          "name": "D#3",
          "ticks": 38856,
          "time": 238.08811625,
          "velocity": 0.7874015748031497
        },
        {
          "duration": 0.14705874999998514,
          "durationTicks": 24,
          "midi": 46,
          "name": "A#2",
          "ticks": 38880,
          "time": 238.23517500000003,
          "velocity": 0.7874015748031497
        },
        {
          "duration": 0.14705874999998514,
          "durationTicks": 24,
          "midi": 51,
          "name": "D#3",
          "ticks": 38880,
          "time": 238.23517500000003,
          "velocity": 0.7874015748031497
        },
        {
          "duration": 0.14705875000001356,
          "durationTicks": 24,
          "midi": 46,
          "name": "A#2",
          "ticks": 38904,
          "time": 238.38223375,
          "velocity": 0.7874015748031497
        },
        {
          "duration": 0.14705875000001356,
          "durationTicks": 24,
          "midi": 51,
          "name": "D#3",
          "ticks": 38904,
          "time": 238.38223375,
          "velocity": 0.7874015748031497
        },
        {
          "duration": 0.14705875000001356,
          "durationTicks": 24,
          "midi": 46,
          "name": "A#2",
          "ticks": 38928,
          "time": 238.52929250000003,
          "velocity": 0.7874015748031497
        },
        {
          "duration": 0.14705875000001356,
          "durationTicks": 24,
          "midi": 51,
          "name": "D#3",
          "ticks": 38928,
          "time": 238.52929250000003,
          "velocity": 0.7874015748031497
        },
        {
          "duration": 0.14705874999998514,
          "durationTicks": 24,
          "midi": 51,
          "name": "D#3",
          "ticks": 38952,
          "time": 238.67635125000004,
          "velocity": 0.7874015748031497
        },
        {
          "duration": 0.14705874999998514,
          "durationTicks": 24,
          "midi": 46,
          "name": "A#2",
          "ticks": 38952,
          "time": 238.67635125000004,
          "velocity": 0.7874015748031497
        },
        {
          "duration": 0.14705875000001356,
          "durationTicks": 24,
          "midi": 48,
          "name": "C3",
          "ticks": 39024,
          "time": 239.11752750000002,
          "velocity": 0.7874015748031497
        },
        {
          "duration": 0.14705875000001356,
          "durationTicks": 24,
          "midi": 53,
          "name": "F3",
          "ticks": 39024,
          "time": 239.11752750000002,
          "velocity": 0.7874015748031497
        },
        {
          "duration": 0.14705874999998514,
          "durationTicks": 24,
          "midi": 53,
          "name": "F3",
          "ticks": 39048,
          "time": 239.26458625000004,
          "velocity": 0.7874015748031497
        },
        {
          "duration": 0.14705874999998514,
          "durationTicks": 24,
          "midi": 48,
          "name": "C3",
          "ticks": 39048,
          "time": 239.26458625000004,
          "velocity": 0.7874015748031497
        },
        {
          "duration": 0.14705875000001356,
          "durationTicks": 24,
          "midi": 53,
          "name": "F3",
          "ticks": 39072,
          "time": 239.41164500000002,
          "velocity": 0.7874015748031497
        },
        {
          "duration": 0.14705875000001356,
          "durationTicks": 24,
          "midi": 48,
          "name": "C3",
          "ticks": 39072,
          "time": 239.41164500000002,
          "velocity": 0.7874015748031497
        },
        {
          "duration": 0.14705874999998514,
          "durationTicks": 24,
          "midi": 48,
          "name": "C3",
          "ticks": 39096,
          "time": 239.55870375000003,
          "velocity": 0.7874015748031497
        },
        {
          "duration": 0.14705874999998514,
          "durationTicks": 24,
          "midi": 53,
          "name": "F3",
          "ticks": 39096,
          "time": 239.55870375000003,
          "velocity": 0.7874015748031497
        },
        {
          "duration": 0.14705875000001356,
          "durationTicks": 24,
          "midi": 48,
          "name": "C3",
          "ticks": 39120,
          "time": 239.70576250000002,
          "velocity": 0.7874015748031497
        },
        {
          "duration": 0.14705875000001356,
          "durationTicks": 24,
          "midi": 53,
          "name": "F3",
          "ticks": 39120,
          "time": 239.70576250000002,
          "velocity": 0.7874015748031497
        },
        {
          "duration": 0.14705874999998514,
          "durationTicks": 24,
          "midi": 48,
          "name": "C3",
          "ticks": 39144,
          "time": 239.85282125000003,
          "velocity": 0.7874015748031497
        },
        {
          "duration": 0.14705874999998514,
          "durationTicks": 24,
          "midi": 53,
          "name": "F3",
          "ticks": 39144,
          "time": 239.85282125000003,
          "velocity": 0.7874015748031497
        },
        {
          "duration": 0.07352937500002099,
          "durationTicks": 12,
          "midi": 48,
          "name": "C3",
          "ticks": 39216,
          "time": 240.29399750000002,
          "velocity": 0.7874015748031497
        },
        {
          "duration": 0.07352937500002099,
          "durationTicks": 12,
          "midi": 53,
          "name": "F3",
          "ticks": 39216,
          "time": 240.29399750000002,
          "velocity": 0.7874015748031497
        },
        {
          "duration": 0.07352937499999257,
          "durationTicks": 12,
          "midi": 53,
          "name": "F3",
          "ticks": 39228,
          "time": 240.36752687500004,
          "velocity": 0.7874015748031497
        },
        {
          "duration": 0.07352937499999257,
          "durationTicks": 12,
          "midi": 48,
          "name": "C3",
          "ticks": 39228,
          "time": 240.36752687500004,
          "velocity": 0.7874015748031497
        },
        {
          "duration": 0.14705874999998514,
          "durationTicks": 24,
          "midi": 48,
          "name": "C3",
          "ticks": 39240,
          "time": 240.44105625000003,
          "velocity": 0.7874015748031497
        },
        {
          "duration": 0.14705874999998514,
          "durationTicks": 24,
          "midi": 53,
          "name": "F3",
          "ticks": 39240,
          "time": 240.44105625000003,
          "velocity": 0.7874015748031497
        },
        {
          "duration": 0.14705875000001356,
          "durationTicks": 24,
          "midi": 55,
          "name": "G3",
          "ticks": 39264,
          "time": 240.58811500000002,
          "velocity": 0.7874015748031497
        },
        {
          "duration": 0.14705875000001356,
          "durationTicks": 24,
          "midi": 50,
          "name": "D3",
          "ticks": 39264,
          "time": 240.58811500000002,
          "velocity": 0.7874015748031497
        },
        {
          "duration": 0.14705874999998514,
          "durationTicks": 24,
          "midi": 55,
          "name": "G3",
          "ticks": 39288,
          "time": 240.73517375000003,
          "velocity": 0.7874015748031497
        },
        {
          "duration": 0.14705874999998514,
          "durationTicks": 24,
          "midi": 50,
          "name": "D3",
          "ticks": 39288,
          "time": 240.73517375000003,
          "velocity": 0.7874015748031497
        },
        {
          "duration": 0.14705875000001356,
          "durationTicks": 24,
          "midi": 55,
          "name": "G3",
          "ticks": 39312,
          "time": 240.88223250000001,
          "velocity": 0.7874015748031497
        },
        {
          "duration": 0.14705875000001356,
          "durationTicks": 24,
          "midi": 50,
          "name": "D3",
          "ticks": 39312,
          "time": 240.88223250000001,
          "velocity": 0.7874015748031497
        },
        {
          "duration": 0.14705874999998514,
          "durationTicks": 24,
          "midi": 50,
          "name": "D3",
          "ticks": 39336,
          "time": 241.02929125000003,
          "velocity": 0.7874015748031497
        },
        {
          "duration": 0.14705874999998514,
          "durationTicks": 24,
          "midi": 55,
          "name": "G3",
          "ticks": 39336,
          "time": 241.02929125000003,
          "velocity": 0.7874015748031497
        },
        {
          "duration": 0.07352937500002099,
          "durationTicks": 12,
          "midi": 50,
          "name": "D3",
          "ticks": 39408,
          "time": 241.4704675,
          "velocity": 0.7874015748031497
        },
        {
          "duration": 0.07352937500002099,
          "durationTicks": 12,
          "midi": 55,
          "name": "G3",
          "ticks": 39408,
          "time": 241.4704675,
          "velocity": 0.7874015748031497
        },
        {
          "duration": 0.07352937499999257,
          "durationTicks": 12,
          "midi": 50,
          "name": "D3",
          "ticks": 39420,
          "time": 241.54399687500003,
          "velocity": 0.7874015748031497
        },
        {
          "duration": 0.07352937499999257,
          "durationTicks": 12,
          "midi": 55,
          "name": "G3",
          "ticks": 39420,
          "time": 241.54399687500003,
          "velocity": 0.7874015748031497
        },
        {
          "duration": 0.14705875000001356,
          "durationTicks": 24,
          "midi": 50,
          "name": "D3",
          "ticks": 39432,
          "time": 241.61752625000003,
          "velocity": 0.7874015748031497
        },
        {
          "duration": 0.14705875000001356,
          "durationTicks": 24,
          "midi": 55,
          "name": "G3",
          "ticks": 39432,
          "time": 241.61752625000003,
          "velocity": 0.7874015748031497
        },
        {
          "duration": 0.14705874999998514,
          "durationTicks": 24,
          "midi": 55,
          "name": "G3",
          "ticks": 39456,
          "time": 241.76458500000004,
          "velocity": 0.7874015748031497
        },
        {
          "duration": 0.14705874999998514,
          "durationTicks": 24,
          "midi": 50,
          "name": "D3",
          "ticks": 39456,
          "time": 241.76458500000004,
          "velocity": 0.7874015748031497
        },
        {
          "duration": 0.14705875000001356,
          "durationTicks": 24,
          "midi": 50,
          "name": "D3",
          "ticks": 39480,
          "time": 241.91164375000002,
          "velocity": 0.7874015748031497
        },
        {
          "duration": 0.14705875000001356,
          "durationTicks": 24,
          "midi": 55,
          "name": "G3",
          "ticks": 39480,
          "time": 241.91164375000002,
          "velocity": 0.7874015748031497
        },
        {
          "duration": 0.14705874999998514,
          "durationTicks": 24,
          "midi": 50,
          "name": "D3",
          "ticks": 39504,
          "time": 242.05870250000004,
          "velocity": 0.7874015748031497
        },
        {
          "duration": 0.14705874999998514,
          "durationTicks": 24,
          "midi": 55,
          "name": "G3",
          "ticks": 39504,
          "time": 242.05870250000004,
          "velocity": 0.7874015748031497
        },
        {
          "duration": 0.14705875000001356,
          "durationTicks": 24,
          "midi": 50,
          "name": "D3",
          "ticks": 39528,
          "time": 242.20576125000002,
          "velocity": 0.7874015748031497
        },
        {
          "duration": 0.14705875000001356,
          "durationTicks": 24,
          "midi": 55,
          "name": "G3",
          "ticks": 39528,
          "time": 242.20576125000002,
          "velocity": 0.7874015748031497
        },
        {
          "duration": 0.07352937499999257,
          "durationTicks": 12,
          "midi": 55,
          "name": "G3",
          "ticks": 39600,
          "time": 242.64693750000004,
          "velocity": 0.7874015748031497
        },
        {
          "duration": 0.07352937499999257,
          "durationTicks": 12,
          "midi": 50,
          "name": "D3",
          "ticks": 39600,
          "time": 242.64693750000004,
          "velocity": 0.7874015748031497
        },
        {
          "duration": 0.07352937499999257,
          "durationTicks": 12,
          "midi": 50,
          "name": "D3",
          "ticks": 39612,
          "time": 242.72046687500003,
          "velocity": 0.7874015748031497
        },
        {
          "duration": 0.07352937499999257,
          "durationTicks": 12,
          "midi": 55,
          "name": "G3",
          "ticks": 39612,
          "time": 242.72046687500003,
          "velocity": 0.7874015748031497
        },
        {
          "duration": 0.14705875000001356,
          "durationTicks": 24,
          "midi": 55,
          "name": "G3",
          "ticks": 39624,
          "time": 242.79399625000002,
          "velocity": 0.7874015748031497
        },
        {
          "duration": 0.14705875000001356,
          "durationTicks": 24,
          "midi": 50,
          "name": "D3",
          "ticks": 39624,
          "time": 242.79399625000002,
          "velocity": 0.7874015748031497
        },
        {
          "duration": 0.14705874999998514,
          "durationTicks": 24,
          "midi": 53,
          "name": "F3",
          "ticks": 39648,
          "time": 242.94105500000003,
          "velocity": 0.7874015748031497
        },
        {
          "duration": 0.14705874999998514,
          "durationTicks": 24,
          "midi": 48,
          "name": "C3",
          "ticks": 39648,
          "time": 242.94105500000003,
          "velocity": 0.7874015748031497
        },
        {
          "duration": 0.14705875000001356,
          "durationTicks": 24,
          "midi": 53,
          "name": "F3",
          "ticks": 39672,
          "time": 243.08811375000002,
          "velocity": 0.7874015748031497
        },
        {
          "duration": 0.14705875000001356,
          "durationTicks": 24,
          "midi": 48,
          "name": "C3",
          "ticks": 39672,
          "time": 243.08811375000002,
          "velocity": 0.7874015748031497
        },
        {
          "duration": 0.14705874999998514,
          "durationTicks": 24,
          "midi": 48,
          "name": "C3",
          "ticks": 39696,
          "time": 243.23517250000003,
          "velocity": 0.7874015748031497
        },
        {
          "duration": 0.14705874999998514,
          "durationTicks": 24,
          "midi": 53,
          "name": "F3",
          "ticks": 39696,
          "time": 243.23517250000003,
          "velocity": 0.7874015748031497
        },
        {
          "duration": 0.14705875000001356,
          "durationTicks": 24,
          "midi": 53,
          "name": "F3",
          "ticks": 39720,
          "time": 243.38223125000002,
          "velocity": 0.7874015748031497
        },
        {
          "duration": 0.14705875000001356,
          "durationTicks": 24,
          "midi": 48,
          "name": "C3",
          "ticks": 39720,
          "time": 243.38223125000002,
          "velocity": 0.7874015748031497
        },
        {
          "duration": 0.07352937499999257,
          "durationTicks": 12,
          "midi": 53,
          "name": "F3",
          "ticks": 39792,
          "time": 243.82340750000003,
          "velocity": 0.7874015748031497
        },
        {
          "duration": 0.07352937499999257,
          "durationTicks": 12,
          "midi": 48,
          "name": "C3",
          "ticks": 39792,
          "time": 243.82340750000003,
          "velocity": 0.7874015748031497
        },
        {
          "duration": 0.07352937499999257,
          "durationTicks": 12,
          "midi": 53,
          "name": "F3",
          "ticks": 39804,
          "time": 243.89693687500002,
          "velocity": 0.7874015748031497
        },
        {
          "duration": 0.07352937499999257,
          "durationTicks": 12,
          "midi": 48,
          "name": "C3",
          "ticks": 39804,
          "time": 243.89693687500002,
          "velocity": 0.7874015748031497
        },
        {
          "duration": 0.14705875000001356,
          "durationTicks": 24,
          "midi": 53,
          "name": "F3",
          "ticks": 39816,
          "time": 243.97046625000002,
          "velocity": 0.7874015748031497
        },
        {
          "duration": 0.14705875000001356,
          "durationTicks": 24,
          "midi": 48,
          "name": "C3",
          "ticks": 39816,
          "time": 243.97046625000002,
          "velocity": 0.7874015748031497
        },
        {
          "duration": 0.14705874999998514,
          "durationTicks": 24,
          "midi": 48,
          "name": "C3",
          "ticks": 39840,
          "time": 244.11752500000003,
          "velocity": 0.7874015748031497
        },
        {
          "duration": 0.14705874999998514,
          "durationTicks": 24,
          "midi": 53,
          "name": "F3",
          "ticks": 39840,
          "time": 244.11752500000003,
          "velocity": 0.7874015748031497
        },
        {
          "duration": 0.14705875000001356,
          "durationTicks": 24,
          "midi": 48,
          "name": "C3",
          "ticks": 39864,
          "time": 244.26458375,
          "velocity": 0.7874015748031497
        },
        {
          "duration": 0.14705875000001356,
          "durationTicks": 24,
          "midi": 53,
          "name": "F3",
          "ticks": 39864,
          "time": 244.26458375,
          "velocity": 0.7874015748031497
        },
        {
          "duration": 0.14705874999998514,
          "durationTicks": 24,
          "midi": 53,
          "name": "F3",
          "ticks": 39888,
          "time": 244.41164250000003,
          "velocity": 0.7874015748031497
        },
        {
          "duration": 0.14705874999998514,
          "durationTicks": 24,
          "midi": 48,
          "name": "C3",
          "ticks": 39888,
          "time": 244.41164250000003,
          "velocity": 0.7874015748031497
        },
        {
          "duration": 0.14705875000001356,
          "durationTicks": 24,
          "midi": 48,
          "name": "C3",
          "ticks": 39912,
          "time": 244.55870125,
          "velocity": 0.7874015748031497
        },
        {
          "duration": 0.14705875000001356,
          "durationTicks": 24,
          "midi": 53,
          "name": "F3",
          "ticks": 39912,
          "time": 244.55870125,
          "velocity": 0.7874015748031497
        },
        {
          "duration": 0.07352937499999257,
          "durationTicks": 12,
          "midi": 53,
          "name": "F3",
          "ticks": 39984,
          "time": 244.99987750000003,
          "velocity": 0.7874015748031497
        },
        {
          "duration": 0.07352937499999257,
          "durationTicks": 12,
          "midi": 48,
          "name": "C3",
          "ticks": 39984,
          "time": 244.99987750000003,
          "velocity": 0.7874015748031497
        },
        {
          "duration": 0.07352937500002099,
          "durationTicks": 12,
          "midi": 48,
          "name": "C3",
          "ticks": 39996,
          "time": 245.07340687500002,
          "velocity": 0.7874015748031497
        },
        {
          "duration": 0.07352937500002099,
          "durationTicks": 12,
          "midi": 53,
          "name": "F3",
          "ticks": 39996,
          "time": 245.07340687500002,
          "velocity": 0.7874015748031497
        },
        {
          "duration": 0.14705874999998514,
          "durationTicks": 24,
          "midi": 48,
          "name": "C3",
          "ticks": 40008,
          "time": 245.14693625000004,
          "velocity": 0.7874015748031497
        },
        {
          "duration": 0.14705874999998514,
          "durationTicks": 24,
          "midi": 53,
          "name": "F3",
          "ticks": 40008,
          "time": 245.14693625000004,
          "velocity": 0.7874015748031497
        },
        {
          "duration": 0.14705875000001356,
          "durationTicks": 24,
          "midi": 51,
          "name": "D#3",
          "ticks": 40032,
          "time": 245.29399500000002,
          "velocity": 0.7874015748031497
        },
        {
          "duration": 0.14705875000001356,
          "durationTicks": 24,
          "midi": 46,
          "name": "A#2",
          "ticks": 40032,
          "time": 245.29399500000002,
          "velocity": 0.7874015748031497
        },
        {
          "duration": 0.14705874999998514,
          "durationTicks": 24,
          "midi": 51,
          "name": "D#3",
          "ticks": 40056,
          "time": 245.44105375000004,
          "velocity": 0.7874015748031497
        },
        {
          "duration": 0.14705874999998514,
          "durationTicks": 24,
          "midi": 46,
          "name": "A#2",
          "ticks": 40056,
          "time": 245.44105375000004,
          "velocity": 0.7874015748031497
        },
        {
          "duration": 0.14705875000001356,
          "durationTicks": 24,
          "midi": 46,
          "name": "A#2",
          "ticks": 40080,
          "time": 245.58811250000002,
          "velocity": 0.7874015748031497
        },
        {
          "duration": 0.14705875000001356,
          "durationTicks": 24,
          "midi": 51,
          "name": "D#3",
          "ticks": 40080,
          "time": 245.58811250000002,
          "velocity": 0.7874015748031497
        },
        {
          "duration": 0.14705874999998514,
          "durationTicks": 24,
          "midi": 46,
          "name": "A#2",
          "ticks": 40104,
          "time": 245.73517125000004,
          "velocity": 0.7874015748031497
        },
        {
          "duration": 0.14705874999998514,
          "durationTicks": 24,
          "midi": 51,
          "name": "D#3",
          "ticks": 40104,
          "time": 245.73517125000004,
          "velocity": 0.7874015748031497
        },
        {
          "duration": 0.07352937499999257,
          "durationTicks": 12,
          "midi": 51,
          "name": "D#3",
          "ticks": 40176,
          "time": 246.17634750000002,
          "velocity": 0.7874015748031497
        },
        {
          "duration": 0.07352937499999257,
          "durationTicks": 12,
          "midi": 46,
          "name": "A#2",
          "ticks": 40176,
          "time": 246.17634750000002,
          "velocity": 0.7874015748031497
        },
        {
          "duration": 0.07352937500002099,
          "durationTicks": 12,
          "midi": 51,
          "name": "D#3",
          "ticks": 40188,
          "time": 246.249876875,
          "velocity": 0.7874015748031497
        },
        {
          "duration": 0.07352937500002099,
          "durationTicks": 12,
          "midi": 46,
          "name": "A#2",
          "ticks": 40188,
          "time": 246.249876875,
          "velocity": 0.7874015748031497
        },
        {
          "duration": 0.14705874999998514,
          "durationTicks": 24,
          "midi": 51,
          "name": "D#3",
          "ticks": 40200,
          "time": 246.32340625000003,
          "velocity": 0.7874015748031497
        },
        {
          "duration": 0.14705874999998514,
          "durationTicks": 24,
          "midi": 46,
          "name": "A#2",
          "ticks": 40200,
          "time": 246.32340625000003,
          "velocity": 0.7874015748031497
        },
        {
          "duration": 0.14705875000001356,
          "durationTicks": 24,
          "midi": 51,
          "name": "D#3",
          "ticks": 40224,
          "time": 246.47046500000002,
          "velocity": 0.7874015748031497
        },
        {
          "duration": 0.14705875000001356,
          "durationTicks": 24,
          "midi": 46,
          "name": "A#2",
          "ticks": 40224,
          "time": 246.47046500000002,
          "velocity": 0.7874015748031497
        },
        {
          "duration": 0.14705874999998514,
          "durationTicks": 24,
          "midi": 46,
          "name": "A#2",
          "ticks": 40248,
          "time": 246.61752375000003,
          "velocity": 0.7874015748031497
        },
        {
          "duration": 0.14705874999998514,
          "durationTicks": 24,
          "midi": 51,
          "name": "D#3",
          "ticks": 40248,
          "time": 246.61752375000003,
          "velocity": 0.7874015748031497
        },
        {
          "duration": 0.14705875000001356,
          "durationTicks": 24,
          "midi": 51,
          "name": "D#3",
          "ticks": 40272,
          "time": 246.76458250000002,
          "velocity": 0.7874015748031497
        },
        {
          "duration": 0.14705875000001356,
          "durationTicks": 24,
          "midi": 46,
          "name": "A#2",
          "ticks": 40272,
          "time": 246.76458250000002,
          "velocity": 0.7874015748031497
        },
        {
          "duration": 0.14705874999998514,
          "durationTicks": 24,
          "midi": 51,
          "name": "D#3",
          "ticks": 40296,
          "time": 246.91164125000003,
          "velocity": 0.7874015748031497
        },
        {
          "duration": 0.14705874999998514,
          "durationTicks": 24,
          "midi": 46,
          "name": "A#2",
          "ticks": 40296,
          "time": 246.91164125000003,
          "velocity": 0.7874015748031497
        },
        {
          "duration": 0.07352937500002099,
          "durationTicks": 12,
          "midi": 51,
          "name": "D#3",
          "ticks": 40368,
          "time": 247.35281750000001,
          "velocity": 0.7874015748031497
        },
        {
          "duration": 0.07352937500002099,
          "durationTicks": 12,
          "midi": 46,
          "name": "A#2",
          "ticks": 40368,
          "time": 247.35281750000001,
          "velocity": 0.7874015748031497
        },
        {
          "duration": 0.07352937499999257,
          "durationTicks": 12,
          "midi": 51,
          "name": "D#3",
          "ticks": 40380,
          "time": 247.42634687500004,
          "velocity": 0.7874015748031497
        },
        {
          "duration": 0.07352937499999257,
          "durationTicks": 12,
          "midi": 46,
          "name": "A#2",
          "ticks": 40380,
          "time": 247.42634687500004,
          "velocity": 0.7874015748031497
        },
        {
          "duration": 0.14705874999998514,
          "durationTicks": 24,
          "midi": 51,
          "name": "D#3",
          "ticks": 40392,
          "time": 247.49987625000003,
          "velocity": 0.7874015748031497
        },
        {
          "duration": 0.14705874999998514,
          "durationTicks": 24,
          "midi": 46,
          "name": "A#2",
          "ticks": 40392,
          "time": 247.49987625000003,
          "velocity": 0.7874015748031497
        },
        {
          "duration": 0.14705875000001356,
          "durationTicks": 24,
          "midi": 46,
          "name": "A#2",
          "ticks": 40416,
          "time": 247.646935,
          "velocity": 0.7874015748031497
        },
        {
          "duration": 0.14705875000001356,
          "durationTicks": 24,
          "midi": 51,
          "name": "D#3",
          "ticks": 40416,
          "time": 247.646935,
          "velocity": 0.7874015748031497
        },
        {
          "duration": 0.14705875000001356,
          "durationTicks": 24,
          "midi": 46,
          "name": "A#2",
          "ticks": 40440,
          "time": 247.79399375000003,
          "velocity": 0.7874015748031497
        },
        {
          "duration": 0.14705875000001356,
          "durationTicks": 24,
          "midi": 51,
          "name": "D#3",
          "ticks": 40440,
          "time": 247.79399375000003,
          "velocity": 0.7874015748031497
        },
        {
          "duration": 0.14705874999998514,
          "durationTicks": 24,
          "midi": 46,
          "name": "A#2",
          "ticks": 40464,
          "time": 247.94105250000004,
          "velocity": 0.7874015748031497
        },
        {
          "duration": 0.14705874999998514,
          "durationTicks": 24,
          "midi": 51,
          "name": "D#3",
          "ticks": 40464,
          "time": 247.94105250000004,
          "velocity": 0.7874015748031497
        },
        {
          "duration": 0.14705875000001356,
          "durationTicks": 24,
          "midi": 46,
          "name": "A#2",
          "ticks": 40488,
          "time": 248.08811125000003,
          "velocity": 0.7874015748031497
        },
        {
          "duration": 0.14705875000001356,
          "durationTicks": 24,
          "midi": 51,
          "name": "D#3",
          "ticks": 40488,
          "time": 248.08811125000003,
          "velocity": 0.7874015748031497
        },
        {
          "duration": 0.14705874999998514,
          "durationTicks": 24,
          "midi": 53,
          "name": "F3",
          "ticks": 40560,
          "time": 248.52928750000004,
          "velocity": 0.7874015748031497
        },
        {
          "duration": 0.14705874999998514,
          "durationTicks": 24,
          "midi": 48,
          "name": "C3",
          "ticks": 40560,
          "time": 248.52928750000004,
          "velocity": 0.7874015748031497
        },
        {
          "duration": 0.14705875000001356,
          "durationTicks": 24,
          "midi": 53,
          "name": "F3",
          "ticks": 40584,
          "time": 248.67634625000002,
          "velocity": 0.7874015748031497
        },
        {
          "duration": 0.14705875000001356,
          "durationTicks": 24,
          "midi": 48,
          "name": "C3",
          "ticks": 40584,
          "time": 248.67634625000002,
          "velocity": 0.7874015748031497
        },
        {
          "duration": 0.14705874999998514,
          "durationTicks": 24,
          "midi": 53,
          "name": "F3",
          "ticks": 40608,
          "time": 248.82340500000004,
          "velocity": 0.7874015748031497
        },
        {
          "duration": 0.14705874999998514,
          "durationTicks": 24,
          "midi": 48,
          "name": "C3",
          "ticks": 40608,
          "time": 248.82340500000004,
          "velocity": 0.7874015748031497
        },
        {
          "duration": 0.14705875000001356,
          "durationTicks": 24,
          "midi": 53,
          "name": "F3",
          "ticks": 40632,
          "time": 248.97046375000002,
          "velocity": 0.7874015748031497
        },
        {
          "duration": 0.14705875000001356,
          "durationTicks": 24,
          "midi": 48,
          "name": "C3",
          "ticks": 40632,
          "time": 248.97046375000002,
          "velocity": 0.7874015748031497
        },
        {
          "duration": 0.14705874999998514,
          "durationTicks": 24,
          "midi": 53,
          "name": "F3",
          "ticks": 40656,
          "time": 249.11752250000004,
          "velocity": 0.7874015748031497
        },
        {
          "duration": 0.14705874999998514,
          "durationTicks": 24,
          "midi": 48,
          "name": "C3",
          "ticks": 40656,
          "time": 249.11752250000004,
          "velocity": 0.7874015748031497
        },
        {
          "duration": 0.14705875000001356,
          "durationTicks": 24,
          "midi": 53,
          "name": "F3",
          "ticks": 40680,
          "time": 249.26458125000002,
          "velocity": 0.7874015748031497
        },
        {
          "duration": 0.14705875000001356,
          "durationTicks": 24,
          "midi": 48,
          "name": "C3",
          "ticks": 40680,
          "time": 249.26458125000002,
          "velocity": 0.7874015748031497
        },
        {
          "duration": 0.07352937499999257,
          "durationTicks": 12,
          "midi": 53,
          "name": "F3",
          "ticks": 40752,
          "time": 249.70575750000003,
          "velocity": 0.7874015748031497
        },
        {
          "duration": 0.07352937499999257,
          "durationTicks": 12,
          "midi": 48,
          "name": "C3",
          "ticks": 40752,
          "time": 249.70575750000003,
          "velocity": 0.7874015748031497
        },
        {
          "duration": 0.07352937499999257,
          "durationTicks": 12,
          "midi": 48,
          "name": "C3",
          "ticks": 40764,
          "time": 249.77928687500003,
          "velocity": 0.7874015748031497
        },
        {
          "duration": 0.07352937499999257,
          "durationTicks": 12,
          "midi": 53,
          "name": "F3",
          "ticks": 40764,
          "time": 249.77928687500003,
          "velocity": 0.7874015748031497
        },
        {
          "duration": 0.14705875000001356,
          "durationTicks": 24,
          "midi": 53,
          "name": "F3",
          "ticks": 40776,
          "time": 249.85281625000002,
          "velocity": 0.7874015748031497
        },
        {
          "duration": 0.14705875000001356,
          "durationTicks": 24,
          "midi": 48,
          "name": "C3",
          "ticks": 40776,
          "time": 249.85281625000002,
          "velocity": 0.7874015748031497
        },
        {
          "duration": 0.14705874999998514,
          "durationTicks": 24,
          "midi": 48,
          "name": "C3",
          "ticks": 40800,
          "time": 249.99987500000003,
          "velocity": 0.7874015748031497
        },
        {
          "duration": 0.14705874999998514,
          "durationTicks": 24,
          "midi": 43,
          "name": "G2",
          "ticks": 40800,
          "time": 249.99987500000003,
          "velocity": 0.7874015748031497
        },
        {
          "duration": 0.07352937500002099,
          "durationTicks": 12,
          "midi": 43,
          "name": "G2",
          "ticks": 40824,
          "time": 250.14693375000002,
          "velocity": 0.7874015748031497
        },
        {
          "duration": 0.07352937500002099,
          "durationTicks": 12,
          "midi": 48,
          "name": "C3",
          "ticks": 40824,
          "time": 250.14693375000002,
          "velocity": 0.7874015748031497
        },
        {
          "duration": 0.07352937499999257,
          "durationTicks": 12,
          "midi": 43,
          "name": "G2",
          "ticks": 40836,
          "time": 250.22046312500004,
          "velocity": 0.7874015748031497
        },
        {
          "duration": 0.07352937499999257,
          "durationTicks": 12,
          "midi": 48,
          "name": "C3",
          "ticks": 40836,
          "time": 250.22046312500004,
          "velocity": 0.7874015748031497
        },
        {
          "duration": 0.14705874999998514,
          "durationTicks": 24,
          "midi": 48,
          "name": "C3",
          "ticks": 40848,
          "time": 250.29399250000003,
          "velocity": 0.7874015748031497
        },
        {
          "duration": 0.14705874999998514,
          "durationTicks": 24,
          "midi": 43,
          "name": "G2",
          "ticks": 40848,
          "time": 250.29399250000003,
          "velocity": 0.7874015748031497
        },
        {
          "duration": 0.07352937500002099,
          "durationTicks": 12,
          "midi": 48,
          "name": "C3",
          "ticks": 40872,
          "time": 250.44105125000002,
          "velocity": 0.7874015748031497
        },
        {
          "duration": 0.07352937500002099,
          "durationTicks": 12,
          "midi": 43,
          "name": "G2",
          "ticks": 40872,
          "time": 250.44105125000002,
          "velocity": 0.7874015748031497
        },
        {
          "duration": 0.07352937499999257,
          "durationTicks": 12,
          "midi": 48,
          "name": "C3",
          "ticks": 40884,
          "time": 250.51458062500004,
          "velocity": 0.7874015748031497
        },
        {
          "duration": 0.07352937499999257,
          "durationTicks": 12,
          "midi": 43,
          "name": "G2",
          "ticks": 40884,
          "time": 250.51458062500004,
          "velocity": 0.7874015748031497
        },
        {
          "duration": 0.14705874999998514,
          "durationTicks": 24,
          "midi": 48,
          "name": "C3",
          "ticks": 40896,
          "time": 250.58811000000003,
          "velocity": 0.7874015748031497
        },
        {
          "duration": 0.14705874999998514,
          "durationTicks": 24,
          "midi": 43,
          "name": "G2",
          "ticks": 40896,
          "time": 250.58811000000003,
          "velocity": 0.7874015748031497
        },
        {
          "duration": 0.14705875000001356,
          "durationTicks": 24,
          "midi": 48,
          "name": "C3",
          "ticks": 40920,
          "time": 250.73516875,
          "velocity": 0.7874015748031497
        },
        {
          "duration": 0.14705875000001356,
          "durationTicks": 24,
          "midi": 43,
          "name": "G2",
          "ticks": 40920,
          "time": 250.73516875,
          "velocity": 0.7874015748031497
        },
        {
          "duration": 0.14705875000001356,
          "durationTicks": 24,
          "midi": 48,
          "name": "C3",
          "ticks": 40944,
          "time": 250.88222750000003,
          "velocity": 0.7874015748031497
        },
        {
          "duration": 0.14705875000001356,
          "durationTicks": 24,
          "midi": 43,
          "name": "G2",
          "ticks": 40944,
          "time": 250.88222750000003,
          "velocity": 0.7874015748031497
        },
        {
          "duration": 0.14705874999998514,
          "durationTicks": 24,
          "midi": 43,
          "name": "G2",
          "ticks": 40968,
          "time": 251.02928625000004,
          "velocity": 0.7874015748031497
        },
        {
          "duration": 0.14705874999998514,
          "durationTicks": 24,
          "midi": 48,
          "name": "C3",
          "ticks": 40968,
          "time": 251.02928625000004,
          "velocity": 0.7874015748031497
        },
        {
          "duration": 0.14705875000001356,
          "durationTicks": 24,
          "midi": 43,
          "name": "G2",
          "ticks": 40992,
          "time": 251.17634500000003,
          "velocity": 0.7874015748031497
        },
        {
          "duration": 0.14705875000001356,
          "durationTicks": 24,
          "midi": 48,
          "name": "C3",
          "ticks": 40992,
          "time": 251.17634500000003,
          "velocity": 0.7874015748031497
        },
        {
          "duration": 0.07352937499999257,
          "durationTicks": 12,
          "midi": 43,
          "name": "G2",
          "ticks": 41016,
          "time": 251.32340375000004,
          "velocity": 0.7874015748031497
        },
        {
          "duration": 0.07352937499999257,
          "durationTicks": 12,
          "midi": 48,
          "name": "C3",
          "ticks": 41016,
          "time": 251.32340375000004,
          "velocity": 0.7874015748031497
        },
        {
          "duration": 0.07352937499999257,
          "durationTicks": 12,
          "midi": 43,
          "name": "G2",
          "ticks": 41028,
          "time": 251.39693312500003,
          "velocity": 0.7874015748031497
        },
        {
          "duration": 0.07352937499999257,
          "durationTicks": 12,
          "midi": 48,
          "name": "C3",
          "ticks": 41028,
          "time": 251.39693312500003,
          "velocity": 0.7874015748031497
        },
        {
          "duration": 0.14705875000001356,
          "durationTicks": 24,
          "midi": 48,
          "name": "C3",
          "ticks": 41040,
          "time": 251.47046250000002,
          "velocity": 0.7874015748031497
        },
        {
          "duration": 0.14705875000001356,
          "durationTicks": 24,
          "midi": 43,
          "name": "G2",
          "ticks": 41040,
          "time": 251.47046250000002,
          "velocity": 0.7874015748031497
        },
        {
          "duration": 0.07352937499999257,
          "durationTicks": 12,
          "midi": 43,
          "name": "G2",
          "ticks": 41064,
          "time": 251.61752125000004,
          "velocity": 0.7874015748031497
        },
        {
          "duration": 0.07352937499999257,
          "durationTicks": 12,
          "midi": 48,
          "name": "C3",
          "ticks": 41064,
          "time": 251.61752125000004,
          "velocity": 0.7874015748031497
        },
        {
          "duration": 0.07352937499999257,
          "durationTicks": 12,
          "midi": 43,
          "name": "G2",
          "ticks": 41076,
          "time": 251.69105062500003,
          "velocity": 0.7874015748031497
        },
        {
          "duration": 0.07352937499999257,
          "durationTicks": 12,
          "midi": 48,
          "name": "C3",
          "ticks": 41076,
          "time": 251.69105062500003,
          "velocity": 0.7874015748031497
        },
        {
          "duration": 0.14705875000001356,
          "durationTicks": 24,
          "midi": 43,
          "name": "G2",
          "ticks": 41088,
          "time": 251.76458000000002,
          "velocity": 0.7874015748031497
        },
        {
          "duration": 0.14705875000001356,
          "durationTicks": 24,
          "midi": 48,
          "name": "C3",
          "ticks": 41088,
          "time": 251.76458000000002,
          "velocity": 0.7874015748031497
        },
        {
          "duration": 0.14705874999998514,
          "durationTicks": 24,
          "midi": 48,
          "name": "C3",
          "ticks": 41112,
          "time": 251.91163875000004,
          "velocity": 0.7874015748031497
        },
        {
          "duration": 0.14705874999998514,
          "durationTicks": 24,
          "midi": 43,
          "name": "G2",
          "ticks": 41112,
          "time": 251.91163875000004,
          "velocity": 0.7874015748031497
        },
        {
          "duration": 0.14705875000001356,
          "durationTicks": 24,
          "midi": 48,
          "name": "C3",
          "ticks": 41136,
          "time": 252.05869750000002,
          "velocity": 0.7874015748031497
        },
        {
          "duration": 0.14705875000001356,
          "durationTicks": 24,
          "midi": 43,
          "name": "G2",
          "ticks": 41136,
          "time": 252.05869750000002,
          "velocity": 0.7874015748031497
        },
        {
          "duration": 0.14705874999998514,
          "durationTicks": 24,
          "midi": 48,
          "name": "C3",
          "ticks": 41160,
          "time": 252.20575625000004,
          "velocity": 0.7874015748031497
        },
        {
          "duration": 0.14705874999998514,
          "durationTicks": 24,
          "midi": 43,
          "name": "G2",
          "ticks": 41160,
          "time": 252.20575625000004,
          "velocity": 0.7874015748031497
        },
        {
          "duration": 0.14705875000001356,
          "durationTicks": 24,
          "midi": 50,
          "name": "D3",
          "ticks": 41184,
          "time": 252.35281500000002,
          "velocity": 0.7874015748031497
        },
        {
          "duration": 0.14705875000001356,
          "durationTicks": 24,
          "midi": 45,
          "name": "A2",
          "ticks": 41184,
          "time": 252.35281500000002,
          "velocity": 0.7874015748031497
        },
        {
          "duration": 0.07352937499999257,
          "durationTicks": 12,
          "midi": 45,
          "name": "A2",
          "ticks": 41208,
          "time": 252.49987375000003,
          "velocity": 0.7874015748031497
        },
        {
          "duration": 0.07352937499999257,
          "durationTicks": 12,
          "midi": 50,
          "name": "D3",
          "ticks": 41208,
          "time": 252.49987375000003,
          "velocity": 0.7874015748031497
        },
        {
          "duration": 0.07352937499999257,
          "durationTicks": 12,
          "midi": 50,
          "name": "D3",
          "ticks": 41220,
          "time": 252.57340312500003,
          "velocity": 0.7874015748031497
        },
        {
          "duration": 0.07352937499999257,
          "durationTicks": 12,
          "midi": 45,
          "name": "A2",
          "ticks": 41220,
          "time": 252.57340312500003,
          "velocity": 0.7874015748031497
        },
        {
          "duration": 0.14705875000001356,
          "durationTicks": 24,
          "midi": 50,
          "name": "D3",
          "ticks": 41232,
          "time": 252.64693250000002,
          "velocity": 0.7874015748031497
        },
        {
          "duration": 0.14705875000001356,
          "durationTicks": 24,
          "midi": 45,
          "name": "A2",
          "ticks": 41232,
          "time": 252.64693250000002,
          "velocity": 0.7874015748031497
        },
        {
          "duration": 0.07352937499999257,
          "durationTicks": 12,
          "midi": 45,
          "name": "A2",
          "ticks": 41256,
          "time": 252.79399125000003,
          "velocity": 0.7874015748031497
        },
        {
          "duration": 0.07352937499999257,
          "durationTicks": 12,
          "midi": 50,
          "name": "D3",
          "ticks": 41256,
          "time": 252.79399125000003,
          "velocity": 0.7874015748031497
        },
        {
          "duration": 0.07352937499999257,
          "durationTicks": 12,
          "midi": 45,
          "name": "A2",
          "ticks": 41268,
          "time": 252.86752062500003,
          "velocity": 0.7874015748031497
        },
        {
          "duration": 0.07352937499999257,
          "durationTicks": 12,
          "midi": 50,
          "name": "D3",
          "ticks": 41268,
          "time": 252.86752062500003,
          "velocity": 0.7874015748031497
        },
        {
          "duration": 0.14705875000001356,
          "durationTicks": 24,
          "midi": 45,
          "name": "A2",
          "ticks": 41280,
          "time": 252.94105000000002,
          "velocity": 0.7874015748031497
        },
        {
          "duration": 0.14705875000001356,
          "durationTicks": 24,
          "midi": 50,
          "name": "D3",
          "ticks": 41280,
          "time": 252.94105000000002,
          "velocity": 0.7874015748031497
        },
        {
          "duration": 0.14705874999998514,
          "durationTicks": 24,
          "midi": 50,
          "name": "D3",
          "ticks": 41304,
          "time": 253.08810875000003,
          "velocity": 0.7874015748031497
        },
        {
          "duration": 0.14705874999998514,
          "durationTicks": 24,
          "midi": 45,
          "name": "A2",
          "ticks": 41304,
          "time": 253.08810875000003,
          "velocity": 0.7874015748031497
        },
        {
          "duration": 0.14705875000001356,
          "durationTicks": 24,
          "midi": 45,
          "name": "A2",
          "ticks": 41328,
          "time": 253.23516750000002,
          "velocity": 0.7874015748031497
        },
        {
          "duration": 0.14705875000001356,
          "durationTicks": 24,
          "midi": 50,
          "name": "D3",
          "ticks": 41328,
          "time": 253.23516750000002,
          "velocity": 0.7874015748031497
        },
        {
          "duration": 0.14705874999998514,
          "durationTicks": 24,
          "midi": 50,
          "name": "D3",
          "ticks": 41352,
          "time": 253.38222625000003,
          "velocity": 0.7874015748031497
        },
        {
          "duration": 0.14705874999998514,
          "durationTicks": 24,
          "midi": 45,
          "name": "A2",
          "ticks": 41352,
          "time": 253.38222625000003,
          "velocity": 0.7874015748031497
        },
        {
          "duration": 0.14705875000001356,
          "durationTicks": 24,
          "midi": 50,
          "name": "D3",
          "ticks": 41376,
          "time": 253.52928500000002,
          "velocity": 0.7874015748031497
        },
        {
          "duration": 0.14705875000001356,
          "durationTicks": 24,
          "midi": 45,
          "name": "A2",
          "ticks": 41376,
          "time": 253.52928500000002,
          "velocity": 0.7874015748031497
        },
        {
          "duration": 0.07352937499999257,
          "durationTicks": 12,
          "midi": 45,
          "name": "A2",
          "ticks": 41400,
          "time": 253.67634375000003,
          "velocity": 0.7874015748031497
        },
        {
          "duration": 0.07352937499999257,
          "durationTicks": 12,
          "midi": 50,
          "name": "D3",
          "ticks": 41400,
          "time": 253.67634375000003,
          "velocity": 0.7874015748031497
        },
        {
          "duration": 0.07352937499999257,
          "durationTicks": 12,
          "midi": 50,
          "name": "D3",
          "ticks": 41412,
          "time": 253.74987312500002,
          "velocity": 0.7874015748031497
        },
        {
          "duration": 0.07352937499999257,
          "durationTicks": 12,
          "midi": 45,
          "name": "A2",
          "ticks": 41412,
          "time": 253.74987312500002,
          "velocity": 0.7874015748031497
        },
        {
          "duration": 0.14705875000001356,
          "durationTicks": 24,
          "midi": 50,
          "name": "D3",
          "ticks": 41424,
          "time": 253.82340250000001,
          "velocity": 0.7874015748031497
        },
        {
          "duration": 0.14705875000001356,
          "durationTicks": 24,
          "midi": 45,
          "name": "A2",
          "ticks": 41424,
          "time": 253.82340250000001,
          "velocity": 0.7874015748031497
        },
        {
          "duration": 0.07352937499999257,
          "durationTicks": 12,
          "midi": 50,
          "name": "D3",
          "ticks": 41448,
          "time": 253.97046125000003,
          "velocity": 0.7874015748031497
        },
        {
          "duration": 0.07352937499999257,
          "durationTicks": 12,
          "midi": 45,
          "name": "A2",
          "ticks": 41448,
          "time": 253.97046125000003,
          "velocity": 0.7874015748031497
        },
        {
          "duration": 0.07352937499999257,
          "durationTicks": 12,
          "midi": 45,
          "name": "A2",
          "ticks": 41460,
          "time": 254.04399062500002,
          "velocity": 0.7874015748031497
        },
        {
          "duration": 0.07352937499999257,
          "durationTicks": 12,
          "midi": 50,
          "name": "D3",
          "ticks": 41460,
          "time": 254.04399062500002,
          "velocity": 0.7874015748031497
        },
        {
          "duration": 0.14705875000001356,
          "durationTicks": 24,
          "midi": 45,
          "name": "A2",
          "ticks": 41472,
          "time": 254.11752,
          "velocity": 0.7874015748031497
        },
        {
          "duration": 0.14705875000001356,
          "durationTicks": 24,
          "midi": 50,
          "name": "D3",
          "ticks": 41472,
          "time": 254.11752,
          "velocity": 0.7874015748031497
        },
        {
          "duration": 0.14705875000001356,
          "durationTicks": 24,
          "midi": 45,
          "name": "A2",
          "ticks": 41496,
          "time": 254.26457875000003,
          "velocity": 0.7874015748031497
        },
        {
          "duration": 0.14705875000001356,
          "durationTicks": 24,
          "midi": 50,
          "name": "D3",
          "ticks": 41496,
          "time": 254.26457875000003,
          "velocity": 0.7874015748031497
        },
        {
          "duration": 0.14705874999998514,
          "durationTicks": 24,
          "midi": 50,
          "name": "D3",
          "ticks": 41520,
          "time": 254.41163750000004,
          "velocity": 0.7874015748031497
        },
        {
          "duration": 0.14705874999998514,
          "durationTicks": 24,
          "midi": 45,
          "name": "A2",
          "ticks": 41520,
          "time": 254.41163750000004,
          "velocity": 0.7874015748031497
        },
        {
          "duration": 0.14705875000001356,
          "durationTicks": 24,
          "midi": 45,
          "name": "A2",
          "ticks": 41544,
          "time": 254.55869625000003,
          "velocity": 0.7874015748031497
        },
        {
          "duration": 0.14705875000001356,
          "durationTicks": 24,
          "midi": 50,
          "name": "D3",
          "ticks": 41544,
          "time": 254.55869625000003,
          "velocity": 0.7874015748031497
        },
        {
          "duration": 0.14705874999998514,
          "durationTicks": 24,
          "midi": 46,
          "name": "A#2",
          "ticks": 41568,
          "time": 254.70575500000004,
          "velocity": 0.7874015748031497
        },
        {
          "duration": 0.14705874999998514,
          "durationTicks": 24,
          "midi": 51,
          "name": "D#3",
          "ticks": 41568,
          "time": 254.70575500000004,
          "velocity": 0.7874015748031497
        },
        {
          "duration": 0.07352937499999257,
          "durationTicks": 12,
          "midi": 51,
          "name": "D#3",
          "ticks": 41592,
          "time": 254.85281375000002,
          "velocity": 0.7874015748031497
        },
        {
          "duration": 0.07352937499999257,
          "durationTicks": 12,
          "midi": 46,
          "name": "A#2",
          "ticks": 41592,
          "time": 254.85281375000002,
          "velocity": 0.7874015748031497
        },
        {
          "duration": 0.07352937500002099,
          "durationTicks": 12,
          "midi": 51,
          "name": "D#3",
          "ticks": 41604,
          "time": 254.92634312500002,
          "velocity": 0.7874015748031497
        },
        {
          "duration": 0.07352937500002099,
          "durationTicks": 12,
          "midi": 46,
          "name": "A#2",
          "ticks": 41604,
          "time": 254.92634312500002,
          "velocity": 0.7874015748031497
        },
        {
          "duration": 0.14705874999998514,
          "durationTicks": 24,
          "midi": 51,
          "name": "D#3",
          "ticks": 41616,
          "time": 254.99987250000004,
          "velocity": 0.7874015748031497
        },
        {
          "duration": 0.14705874999998514,
          "durationTicks": 24,
          "midi": 46,
          "name": "A#2",
          "ticks": 41616,
          "time": 254.99987250000004,
          "velocity": 0.7874015748031497
        },
        {
          "duration": 0.07352937499999257,
          "durationTicks": 12,
          "midi": 46,
          "name": "A#2",
          "ticks": 41640,
          "time": 255.14693125000002,
          "velocity": 0.7874015748031497
        },
        {
          "duration": 0.07352937499999257,
          "durationTicks": 12,
          "midi": 51,
          "name": "D#3",
          "ticks": 41640,
          "time": 255.14693125000002,
          "velocity": 0.7874015748031497
        },
        {
          "duration": 0.07352937500002099,
          "durationTicks": 12,
          "midi": 51,
          "name": "D#3",
          "ticks": 41652,
          "time": 255.22046062500002,
          "velocity": 0.7874015748031497
        },
        {
          "duration": 0.07352937500002099,
          "durationTicks": 12,
          "midi": 46,
          "name": "A#2",
          "ticks": 41652,
          "time": 255.22046062500002,
          "velocity": 0.7874015748031497
        },
        {
          "duration": 0.14705874999998514,
          "durationTicks": 24,
          "midi": 51,
          "name": "D#3",
          "ticks": 41664,
          "time": 255.29399000000004,
          "velocity": 0.7874015748031497
        },
        {
          "duration": 0.14705874999998514,
          "durationTicks": 24,
          "midi": 46,
          "name": "A#2",
          "ticks": 41664,
          "time": 255.29399000000004,
          "velocity": 0.7874015748031497
        },
        {
          "duration": 0.14705875000001356,
          "durationTicks": 24,
          "midi": 51,
          "name": "D#3",
          "ticks": 41688,
          "time": 255.44104875000002,
          "velocity": 0.7874015748031497
        },
        {
          "duration": 0.14705875000001356,
          "durationTicks": 24,
          "midi": 46,
          "name": "A#2",
          "ticks": 41688,
          "time": 255.44104875000002,
          "velocity": 0.7874015748031497
        },
        {
          "duration": 0.14705874999998514,
          "durationTicks": 24,
          "midi": 51,
          "name": "D#3",
          "ticks": 41712,
          "time": 255.58810750000004,
          "velocity": 0.7874015748031497
        },
        {
          "duration": 0.14705874999998514,
          "durationTicks": 24,
          "midi": 46,
          "name": "A#2",
          "ticks": 41712,
          "time": 255.58810750000004,
          "velocity": 0.7874015748031497
        },
        {
          "duration": 0.14705875000001356,
          "durationTicks": 24,
          "midi": 46,
          "name": "A#2",
          "ticks": 41736,
          "time": 255.73516625000002,
          "velocity": 0.7874015748031497
        },
        {
          "duration": 0.14705875000001356,
          "durationTicks": 24,
          "midi": 51,
          "name": "D#3",
          "ticks": 41736,
          "time": 255.73516625000002,
          "velocity": 0.7874015748031497
        },
        {
          "duration": 0.14705875000001356,
          "durationTicks": 24,
          "midi": 51,
          "name": "D#3",
          "ticks": 41760,
          "time": 255.88222500000003,
          "velocity": 0.7874015748031497
        },
        {
          "duration": 0.14705875000001356,
          "durationTicks": 24,
          "midi": 46,
          "name": "A#2",
          "ticks": 41760,
          "time": 255.88222500000003,
          "velocity": 0.7874015748031497
        },
        {
          "duration": 0.07352937499996415,
          "durationTicks": 12,
          "midi": 46,
          "name": "A#2",
          "ticks": 41784,
          "time": 256.02928375000005,
          "velocity": 0.7874015748031497
        },
        {
          "duration": 0.07352937499996415,
          "durationTicks": 12,
          "midi": 51,
          "name": "D#3",
          "ticks": 41784,
          "time": 256.02928375000005,
          "velocity": 0.7874015748031497
        },
        {
          "duration": 0.07352937500002099,
          "durationTicks": 12,
          "midi": 51,
          "name": "D#3",
          "ticks": 41796,
          "time": 256.102813125,
          "velocity": 0.7874015748031497
        },
        {
          "duration": 0.07352937500002099,
          "durationTicks": 12,
          "midi": 46,
          "name": "A#2",
          "ticks": 41796,
          "time": 256.102813125,
          "velocity": 0.7874015748031497
        },
        {
          "duration": 0.14705874999998514,
          "durationTicks": 24,
          "midi": 51,
          "name": "D#3",
          "ticks": 41808,
          "time": 256.17634250000003,
          "velocity": 0.7874015748031497
        },
        {
          "duration": 0.14705874999998514,
          "durationTicks": 24,
          "midi": 46,
          "name": "A#2",
          "ticks": 41808,
          "time": 256.17634250000003,
          "velocity": 0.7874015748031497
        },
        {
          "duration": 0.07352937500002099,
          "durationTicks": 12,
          "midi": 51,
          "name": "D#3",
          "ticks": 41832,
          "time": 256.32340125,
          "velocity": 0.7874015748031497
        },
        {
          "duration": 0.07352937500002099,
          "durationTicks": 12,
          "midi": 46,
          "name": "A#2",
          "ticks": 41832,
          "time": 256.32340125,
          "velocity": 0.7874015748031497
        },
        {
          "duration": 0.07352937499996415,
          "durationTicks": 12,
          "midi": 51,
          "name": "D#3",
          "ticks": 41844,
          "time": 256.39693062500004,
          "velocity": 0.7874015748031497
        },
        {
          "duration": 0.07352937499996415,
          "durationTicks": 12,
          "midi": 46,
          "name": "A#2",
          "ticks": 41844,
          "time": 256.39693062500004,
          "velocity": 0.7874015748031497
        },
        {
          "duration": 0.14705875000004198,
          "durationTicks": 24,
          "midi": 46,
          "name": "A#2",
          "ticks": 41856,
          "time": 256.47046,
          "velocity": 0.7874015748031497
        },
        {
          "duration": 0.14705875000004198,
          "durationTicks": 24,
          "midi": 51,
          "name": "D#3",
          "ticks": 41856,
          "time": 256.47046,
          "velocity": 0.7874015748031497
        },
        {
          "duration": 0.14705874999998514,
          "durationTicks": 24,
          "midi": 51,
          "name": "D#3",
          "ticks": 41880,
          "time": 256.61751875000004,
          "velocity": 0.7874015748031497
        },
        {
          "duration": 0.14705874999998514,
          "durationTicks": 24,
          "midi": 46,
          "name": "A#2",
          "ticks": 41880,
          "time": 256.61751875000004,
          "velocity": 0.7874015748031497
        },
        {
          "duration": 0.14705874999998514,
          "durationTicks": 24,
          "midi": 46,
          "name": "A#2",
          "ticks": 41904,
          "time": 256.76457750000003,
          "velocity": 0.7874015748031497
        },
        {
          "duration": 0.14705874999998514,
          "durationTicks": 24,
          "midi": 51,
          "name": "D#3",
          "ticks": 41904,
          "time": 256.76457750000003,
          "velocity": 0.7874015748031497
        },
        {
          "duration": 0.14705874999998514,
          "durationTicks": 24,
          "midi": 51,
          "name": "D#3",
          "ticks": 41928,
          "time": 256.91163625,
          "velocity": 0.7874015748031497
        },
        {
          "duration": 0.14705874999998514,
          "durationTicks": 24,
          "midi": 46,
          "name": "A#2",
          "ticks": 41928,
          "time": 256.91163625,
          "velocity": 0.7874015748031497
        },
        {
          "duration": 0.14705875000004198,
          "durationTicks": 24,
          "midi": 48,
          "name": "C3",
          "ticks": 41952,
          "time": 257.058695,
          "velocity": 0.7874015748031497
        },
        {
          "duration": 0.14705875000004198,
          "durationTicks": 24,
          "midi": 53,
          "name": "F3",
          "ticks": 41952,
          "time": 257.058695,
          "velocity": 0.7874015748031497
        },
        {
          "duration": 0.07352937499996415,
          "durationTicks": 12,
          "midi": 48,
          "name": "C3",
          "ticks": 41976,
          "time": 257.20575375000004,
          "velocity": 0.7874015748031497
        },
        {
          "duration": 0.07352937499996415,
          "durationTicks": 12,
          "midi": 53,
          "name": "F3",
          "ticks": 41976,
          "time": 257.20575375000004,
          "velocity": 0.7874015748031497
        },
        {
          "duration": 0.07352937500002099,
          "durationTicks": 12,
          "midi": 48,
          "name": "C3",
          "ticks": 41988,
          "time": 257.279283125,
          "velocity": 0.7874015748031497
        },
        {
          "duration": 0.07352937500002099,
          "durationTicks": 12,
          "midi": 53,
          "name": "F3",
          "ticks": 41988,
          "time": 257.279283125,
          "velocity": 0.7874015748031497
        },
        {
          "duration": 0.14705874999998514,
          "durationTicks": 24,
          "midi": 48,
          "name": "C3",
          "ticks": 42000,
          "time": 257.3528125,
          "velocity": 0.7874015748031497
        },
        {
          "duration": 0.14705874999998514,
          "durationTicks": 24,
          "midi": 53,
          "name": "F3",
          "ticks": 42000,
          "time": 257.3528125,
          "velocity": 0.7874015748031497
        },
        {
          "duration": 0.07352937500002099,
          "durationTicks": 12,
          "midi": 48,
          "name": "C3",
          "ticks": 42024,
          "time": 257.49987125,
          "velocity": 0.7874015748031497
        },
        {
          "duration": 0.07352937500002099,
          "durationTicks": 12,
          "midi": 53,
          "name": "F3",
          "ticks": 42024,
          "time": 257.49987125,
          "velocity": 0.7874015748031497
        },
        {
          "duration": 0.07352937500002099,
          "durationTicks": 12,
          "midi": 48,
          "name": "C3",
          "ticks": 42036,
          "time": 257.57340062500003,
          "velocity": 0.7874015748031497
        },
        {
          "duration": 0.07352937500002099,
          "durationTicks": 12,
          "midi": 53,
          "name": "F3",
          "ticks": 42036,
          "time": 257.57340062500003,
          "velocity": 0.7874015748031497
        },
        {
          "duration": 0.14705874999998514,
          "durationTicks": 24,
          "midi": 53,
          "name": "F3",
          "ticks": 42048,
          "time": 257.64693000000005,
          "velocity": 0.7874015748031497
        },
        {
          "duration": 0.14705874999998514,
          "durationTicks": 24,
          "midi": 48,
          "name": "C3",
          "ticks": 42048,
          "time": 257.64693000000005,
          "velocity": 0.7874015748031497
        },
        {
          "duration": 0.14705874999998514,
          "durationTicks": 24,
          "midi": 53,
          "name": "F3",
          "ticks": 42072,
          "time": 257.79398875000004,
          "velocity": 0.7874015748031497
        },
        {
          "duration": 0.14705874999998514,
          "durationTicks": 24,
          "midi": 48,
          "name": "C3",
          "ticks": 42072,
          "time": 257.79398875000004,
          "velocity": 0.7874015748031497
        },
        {
          "duration": 0.14705874999998514,
          "durationTicks": 24,
          "midi": 48,
          "name": "C3",
          "ticks": 42096,
          "time": 257.9410475,
          "velocity": 0.7874015748031497
        },
        {
          "duration": 0.14705874999998514,
          "durationTicks": 24,
          "midi": 53,
          "name": "F3",
          "ticks": 42096,
          "time": 257.9410475,
          "velocity": 0.7874015748031497
        },
        {
          "duration": 0.14705875000004198,
          "durationTicks": 24,
          "midi": 48,
          "name": "C3",
          "ticks": 42120,
          "time": 258.08810625,
          "velocity": 0.7874015748031497
        },
        {
          "duration": 0.14705875000004198,
          "durationTicks": 24,
          "midi": 53,
          "name": "F3",
          "ticks": 42120,
          "time": 258.08810625,
          "velocity": 0.7874015748031497
        },
        {
          "duration": 0.14705874999998514,
          "durationTicks": 24,
          "midi": 48,
          "name": "C3",
          "ticks": 42144,
          "time": 258.23516500000005,
          "velocity": 0.7874015748031497
        },
        {
          "duration": 0.14705874999998514,
          "durationTicks": 24,
          "midi": 53,
          "name": "F3",
          "ticks": 42144,
          "time": 258.23516500000005,
          "velocity": 0.7874015748031497
        },
        {
          "duration": 0.07352937499996415,
          "durationTicks": 12,
          "midi": 53,
          "name": "F3",
          "ticks": 42168,
          "time": 258.38222375000004,
          "velocity": 0.7874015748031497
        },
        {
          "duration": 0.07352937499996415,
          "durationTicks": 12,
          "midi": 48,
          "name": "C3",
          "ticks": 42168,
          "time": 258.38222375000004,
          "velocity": 0.7874015748031497
        },
        {
          "duration": 0.07352937500002099,
          "durationTicks": 12,
          "midi": 53,
          "name": "F3",
          "ticks": 42180,
          "time": 258.455753125,
          "velocity": 0.7874015748031497
        },
        {
          "duration": 0.07352937500002099,
          "durationTicks": 12,
          "midi": 48,
          "name": "C3",
          "ticks": 42180,
          "time": 258.455753125,
          "velocity": 0.7874015748031497
        },
        {
          "duration": 0.14705874999998514,
          "durationTicks": 24,
          "midi": 53,
          "name": "F3",
          "ticks": 42192,
          "time": 258.5292825,
          "velocity": 0.7874015748031497
        },
        {
          "duration": 0.14705874999998514,
          "durationTicks": 24,
          "midi": 48,
          "name": "C3",
          "ticks": 42192,
          "time": 258.5292825,
          "velocity": 0.7874015748031497
        },
        {
          "duration": 0.07352937500002099,
          "durationTicks": 12,
          "midi": 53,
          "name": "F3",
          "ticks": 42216,
          "time": 258.67634125,
          "velocity": 0.7874015748031497
        },
        {
          "duration": 0.07352937500002099,
          "durationTicks": 12,
          "midi": 48,
          "name": "C3",
          "ticks": 42216,
          "time": 258.67634125,
          "velocity": 0.7874015748031497
        },
        {
          "duration": 0.07352937500002099,
          "durationTicks": 12,
          "midi": 53,
          "name": "F3",
          "ticks": 42228,
          "time": 258.749870625,
          "velocity": 0.7874015748031497
        },
        {
          "duration": 0.07352937500002099,
          "durationTicks": 12,
          "midi": 48,
          "name": "C3",
          "ticks": 42228,
          "time": 258.749870625,
          "velocity": 0.7874015748031497
        },
        {
          "duration": 0.14705874999998514,
          "durationTicks": 24,
          "midi": 48,
          "name": "C3",
          "ticks": 42240,
          "time": 258.82340000000005,
          "velocity": 0.7874015748031497
        },
        {
          "duration": 0.14705874999998514,
          "durationTicks": 24,
          "midi": 53,
          "name": "F3",
          "ticks": 42240,
          "time": 258.82340000000005,
          "velocity": 0.7874015748031497
        },
        {
          "duration": 0.14705874999998514,
          "durationTicks": 24,
          "midi": 48,
          "name": "C3",
          "ticks": 42264,
          "time": 258.97045875000003,
          "velocity": 0.7874015748031497
        },
        {
          "duration": 0.14705874999998514,
          "durationTicks": 24,
          "midi": 53,
          "name": "F3",
          "ticks": 42264,
          "time": 258.97045875000003,
          "velocity": 0.7874015748031497
        },
        {
          "duration": 0.14705874999998514,
          "durationTicks": 24,
          "midi": 53,
          "name": "F3",
          "ticks": 42288,
          "time": 259.1175175,
          "velocity": 0.7874015748031497
        },
        {
          "duration": 0.14705874999998514,
          "durationTicks": 24,
          "midi": 48,
          "name": "C3",
          "ticks": 42288,
          "time": 259.1175175,
          "velocity": 0.7874015748031497
        },
        {
          "duration": 0.14705875000004198,
          "durationTicks": 24,
          "midi": 48,
          "name": "C3",
          "ticks": 42312,
          "time": 259.26457625,
          "velocity": 0.7874015748031497
        },
        {
          "duration": 0.14705875000004198,
          "durationTicks": 24,
          "midi": 53,
          "name": "F3",
          "ticks": 42312,
          "time": 259.26457625,
          "velocity": 0.7874015748031497
        },
        {
          "duration": 0.14705874999998514,
          "durationTicks": 24,
          "midi": 50,
          "name": "D3",
          "ticks": 42336,
          "time": 259.41163500000005,
          "velocity": 0.7874015748031497
        },
        {
          "duration": 0.14705874999998514,
          "durationTicks": 24,
          "midi": 55,
          "name": "G3",
          "ticks": 42336,
          "time": 259.41163500000005,
          "velocity": 0.7874015748031497
        },
        {
          "duration": 0.07352937500002099,
          "durationTicks": 12,
          "midi": 50,
          "name": "D3",
          "ticks": 42360,
          "time": 259.55869375000003,
          "velocity": 0.7874015748031497
        },
        {
          "duration": 0.07352937500002099,
          "durationTicks": 12,
          "midi": 55,
          "name": "G3",
          "ticks": 42360,
          "time": 259.55869375000003,
          "velocity": 0.7874015748031497
        },
        {
          "duration": 0.07352937499996415,
          "durationTicks": 12,
          "midi": 50,
          "name": "D3",
          "ticks": 42372,
          "time": 259.63222312500005,
          "velocity": 0.7874015748031497
        },
        {
          "duration": 0.07352937499996415,
          "durationTicks": 12,
          "midi": 55,
          "name": "G3",
          "ticks": 42372,
          "time": 259.63222312500005,
          "velocity": 0.7874015748031497
        },
        {
          "duration": 0.14705874999998514,
          "durationTicks": 24,
          "midi": 50,
          "name": "D3",
          "ticks": 42384,
          "time": 259.7057525,
          "velocity": 0.7874015748031497
        },
        {
          "duration": 0.14705874999998514,
          "durationTicks": 24,
          "midi": 55,
          "name": "G3",
          "ticks": 42384,
          "time": 259.7057525,
          "velocity": 0.7874015748031497
        },
        {
          "duration": 0.07352937500002099,
          "durationTicks": 12,
          "midi": 50,
          "name": "D3",
          "ticks": 42408,
          "time": 259.85281125,
          "velocity": 0.7874015748031497
        },
        {
          "duration": 0.07352937500002099,
          "durationTicks": 12,
          "midi": 55,
          "name": "G3",
          "ticks": 42408,
          "time": 259.85281125,
          "velocity": 0.7874015748031497
        },
        {
          "duration": 0.07352937500002099,
          "durationTicks": 12,
          "midi": 50,
          "name": "D3",
          "ticks": 42420,
          "time": 259.926340625,
          "velocity": 0.7874015748031497
        },
        {
          "duration": 0.07352937500002099,
          "durationTicks": 12,
          "midi": 55,
          "name": "G3",
          "ticks": 42420,
          "time": 259.926340625,
          "velocity": 0.7874015748031497
        },
        {
          "duration": 0.14705874999998514,
          "durationTicks": 24,
          "midi": 50,
          "name": "D3",
          "ticks": 42432,
          "time": 259.99987000000004,
          "velocity": 0.7874015748031497
        },
        {
          "duration": 0.14705874999998514,
          "durationTicks": 24,
          "midi": 55,
          "name": "G3",
          "ticks": 42432,
          "time": 259.99987000000004,
          "velocity": 0.7874015748031497
        },
        {
          "duration": 0.14705874999998514,
          "durationTicks": 24,
          "midi": 55,
          "name": "G3",
          "ticks": 42456,
          "time": 260.14692875000003,
          "velocity": 0.7874015748031497
        },
        {
          "duration": 0.14705874999998514,
          "durationTicks": 24,
          "midi": 50,
          "name": "D3",
          "ticks": 42456,
          "time": 260.14692875000003,
          "velocity": 0.7874015748031497
        },
        {
          "duration": 0.14705875000004198,
          "durationTicks": 24,
          "midi": 55,
          "name": "G3",
          "ticks": 42480,
          "time": 260.2939875,
          "velocity": 0.7874015748031497
        },
        {
          "duration": 0.14705875000004198,
          "durationTicks": 24,
          "midi": 50,
          "name": "D3",
          "ticks": 42480,
          "time": 260.2939875,
          "velocity": 0.7874015748031497
        },
        {
          "duration": 0.14705874999998514,
          "durationTicks": 24,
          "midi": 55,
          "name": "G3",
          "ticks": 42504,
          "time": 260.44104625000006,
          "velocity": 0.7874015748031497
        },
        {
          "duration": 0.14705874999998514,
          "durationTicks": 24,
          "midi": 50,
          "name": "D3",
          "ticks": 42504,
          "time": 260.44104625000006,
          "velocity": 0.7874015748031497
        },
        {
          "duration": 0.14705874999998514,
          "durationTicks": 24,
          "midi": 50,
          "name": "D3",
          "ticks": 42528,
          "time": 260.58810500000004,
          "velocity": 0.7874015748031497
        },
        {
          "duration": 0.14705874999998514,
          "durationTicks": 24,
          "midi": 55,
          "name": "G3",
          "ticks": 42528,
          "time": 260.58810500000004,
          "velocity": 0.7874015748031497
        },
        {
          "duration": 0.07352937500002099,
          "durationTicks": 12,
          "midi": 55,
          "name": "G3",
          "ticks": 42552,
          "time": 260.73516375,
          "velocity": 0.7874015748031497
        },
        {
          "duration": 0.07352937500002099,
          "durationTicks": 12,
          "midi": 50,
          "name": "D3",
          "ticks": 42552,
          "time": 260.73516375,
          "velocity": 0.7874015748031497
        },
        {
          "duration": 0.07352937499996415,
          "durationTicks": 12,
          "midi": 55,
          "name": "G3",
          "ticks": 42564,
          "time": 260.80869312500005,
          "velocity": 0.7874015748031497
        },
        {
          "duration": 0.07352937499996415,
          "durationTicks": 12,
          "midi": 50,
          "name": "D3",
          "ticks": 42564,
          "time": 260.80869312500005,
          "velocity": 0.7874015748031497
        },
        {
          "duration": 0.14705875000004198,
          "durationTicks": 24,
          "midi": 50,
          "name": "D3",
          "ticks": 42576,
          "time": 260.8822225,
          "velocity": 0.7874015748031497
        },
        {
          "duration": 0.14705875000004198,
          "durationTicks": 24,
          "midi": 55,
          "name": "G3",
          "ticks": 42576,
          "time": 260.8822225,
          "velocity": 0.7874015748031497
        },
        {
          "duration": 0.07352937499996415,
          "durationTicks": 12,
          "midi": 50,
          "name": "D3",
          "ticks": 42600,
          "time": 261.02928125000005,
          "velocity": 0.7874015748031497
        },
        {
          "duration": 0.07352937499996415,
          "durationTicks": 12,
          "midi": 55,
          "name": "G3",
          "ticks": 42600,
          "time": 261.02928125000005,
          "velocity": 0.7874015748031497
        },
        {
          "duration": 0.07352937500002099,
          "durationTicks": 12,
          "midi": 50,
          "name": "D3",
          "ticks": 42612,
          "time": 261.102810625,
          "velocity": 0.7874015748031497
        },
        {
          "duration": 0.07352937500002099,
          "durationTicks": 12,
          "midi": 55,
          "name": "G3",
          "ticks": 42612,
          "time": 261.102810625,
          "velocity": 0.7874015748031497
        },
        {
          "duration": 0.14705874999998514,
          "durationTicks": 24,
          "midi": 50,
          "name": "D3",
          "ticks": 42624,
          "time": 261.17634000000004,
          "velocity": 0.7874015748031497
        },
        {
          "duration": 0.14705874999998514,
          "durationTicks": 24,
          "midi": 55,
          "name": "G3",
          "ticks": 42624,
          "time": 261.17634000000004,
          "velocity": 0.7874015748031497
        },
        {
          "duration": 0.14705874999998514,
          "durationTicks": 24,
          "midi": 50,
          "name": "D3",
          "ticks": 42648,
          "time": 261.32339875,
          "velocity": 0.7874015748031497
        },
        {
          "duration": 0.14705874999998514,
          "durationTicks": 24,
          "midi": 55,
          "name": "G3",
          "ticks": 42648,
          "time": 261.32339875,
          "velocity": 0.7874015748031497
        },
        {
          "duration": 0.14705875000004198,
          "durationTicks": 24,
          "midi": 55,
          "name": "G3",
          "ticks": 42672,
          "time": 261.4704575,
          "velocity": 0.7874015748031497
        },
        {
          "duration": 0.14705875000004198,
          "durationTicks": 24,
          "midi": 50,
          "name": "D3",
          "ticks": 42672,
          "time": 261.4704575,
          "velocity": 0.7874015748031497
        },
        {
          "duration": 0.14705874999998514,
          "durationTicks": 24,
          "midi": 50,
          "name": "D3",
          "ticks": 42696,
          "time": 261.61751625000005,
          "velocity": 0.7874015748031497
        },
        {
          "duration": 0.14705874999998514,
          "durationTicks": 24,
          "midi": 55,
          "name": "G3",
          "ticks": 42696,
          "time": 261.61751625000005,
          "velocity": 0.7874015748031497
        },
        {
          "duration": 0.14705874999998514,
          "durationTicks": 24,
          "midi": 46,
          "name": "A#2",
          "ticks": 42720,
          "time": 261.76457500000004,
          "velocity": 0.7874015748031497
        },
        {
          "duration": 0.14705874999998514,
          "durationTicks": 24,
          "midi": 51,
          "name": "D#3",
          "ticks": 42720,
          "time": 261.76457500000004,
          "velocity": 0.7874015748031497
        },
        {
          "duration": 0.07352937500002099,
          "durationTicks": 12,
          "midi": 51,
          "name": "D#3",
          "ticks": 42744,
          "time": 261.91163375,
          "velocity": 0.7874015748031497
        },
        {
          "duration": 0.07352937500002099,
          "durationTicks": 12,
          "midi": 46,
          "name": "A#2",
          "ticks": 42744,
          "time": 261.91163375,
          "velocity": 0.7874015748031497
        },
        {
          "duration": 0.07352937499996415,
          "durationTicks": 12,
          "midi": 51,
          "name": "D#3",
          "ticks": 42756,
          "time": 261.98516312500004,
          "velocity": 0.7874015748031497
        },
        {
          "duration": 0.07352937499996415,
          "durationTicks": 12,
          "midi": 46,
          "name": "A#2",
          "ticks": 42756,
          "time": 261.98516312500004,
          "velocity": 0.7874015748031497
        },
        {
          "duration": 0.14705875000004198,
          "durationTicks": 24,
          "midi": 51,
          "name": "D#3",
          "ticks": 42768,
          "time": 262.0586925,
          "velocity": 0.7874015748031497
        },
        {
          "duration": 0.14705875000004198,
          "durationTicks": 24,
          "midi": 46,
          "name": "A#2",
          "ticks": 42768,
          "time": 262.0586925,
          "velocity": 0.7874015748031497
        },
        {
          "duration": 0.07352937499996415,
          "durationTicks": 12,
          "midi": 46,
          "name": "A#2",
          "ticks": 42792,
          "time": 262.20575125000005,
          "velocity": 0.7874015748031497
        },
        {
          "duration": 0.07352937499996415,
          "durationTicks": 12,
          "midi": 51,
          "name": "D#3",
          "ticks": 42792,
          "time": 262.20575125000005,
          "velocity": 0.7874015748031497
        },
        {
          "duration": 0.07352937500002099,
          "durationTicks": 12,
          "midi": 46,
          "name": "A#2",
          "ticks": 42804,
          "time": 262.279280625,
          "velocity": 0.7874015748031497
        },
        {
          "duration": 0.07352937500002099,
          "durationTicks": 12,
          "midi": 51,
          "name": "D#3",
          "ticks": 42804,
          "time": 262.279280625,
          "velocity": 0.7874015748031497
        },
        {
          "duration": 0.14705874999998514,
          "durationTicks": 24,
          "midi": 46,
          "name": "A#2",
          "ticks": 42816,
          "time": 262.35281000000003,
          "velocity": 0.7874015748031497
        },
        {
          "duration": 0.14705874999998514,
          "durationTicks": 24,
          "midi": 51,
          "name": "D#3",
          "ticks": 42816,
          "time": 262.35281000000003,
          "velocity": 0.7874015748031497
        },
        {
          "duration": 0.14705874999998514,
          "durationTicks": 24,
          "midi": 46,
          "name": "A#2",
          "ticks": 42840,
          "time": 262.49986875,
          "velocity": 0.7874015748031497
        },
        {
          "duration": 0.14705874999998514,
          "durationTicks": 24,
          "midi": 51,
          "name": "D#3",
          "ticks": 42840,
          "time": 262.49986875,
          "velocity": 0.7874015748031497
        },
        {
          "duration": 0.14705875000004198,
          "durationTicks": 24,
          "midi": 46,
          "name": "A#2",
          "ticks": 42864,
          "time": 262.6469275,
          "velocity": 0.7874015748031497
        },
        {
          "duration": 0.14705875000004198,
          "durationTicks": 24,
          "midi": 51,
          "name": "D#3",
          "ticks": 42864,
          "time": 262.6469275,
          "velocity": 0.7874015748031497
        },
        {
          "duration": 0.14705874999998514,
          "durationTicks": 24,
          "midi": 51,
          "name": "D#3",
          "ticks": 42888,
          "time": 262.79398625000005,
          "velocity": 0.7874015748031497
        },
        {
          "duration": 0.14705874999998514,
          "durationTicks": 24,
          "midi": 46,
          "name": "A#2",
          "ticks": 42888,
          "time": 262.79398625000005,
          "velocity": 0.7874015748031497
        },
        {
          "duration": 0.14705874999998514,
          "durationTicks": 24,
          "midi": 46,
          "name": "A#2",
          "ticks": 42912,
          "time": 262.94104500000003,
          "velocity": 0.7874015748031497
        },
        {
          "duration": 0.14705874999998514,
          "durationTicks": 24,
          "midi": 51,
          "name": "D#3",
          "ticks": 42912,
          "time": 262.94104500000003,
          "velocity": 0.7874015748031497
        },
        {
          "duration": 0.07352937500002099,
          "durationTicks": 12,
          "midi": 46,
          "name": "A#2",
          "ticks": 42936,
          "time": 263.08810375,
          "velocity": 0.7874015748031497
        },
        {
          "duration": 0.07352937500002099,
          "durationTicks": 12,
          "midi": 51,
          "name": "D#3",
          "ticks": 42936,
          "time": 263.08810375,
          "velocity": 0.7874015748031497
        },
        {
          "duration": 0.07352937499996415,
          "durationTicks": 12,
          "midi": 46,
          "name": "A#2",
          "ticks": 42948,
          "time": 263.16163312500004,
          "velocity": 0.7874015748031497
        },
        {
          "duration": 0.07352937499996415,
          "durationTicks": 12,
          "midi": 51,
          "name": "D#3",
          "ticks": 42948,
          "time": 263.16163312500004,
          "velocity": 0.7874015748031497
        },
        {
          "duration": 0.14705875000004198,
          "durationTicks": 24,
          "midi": 51,
          "name": "D#3",
          "ticks": 42960,
          "time": 263.2351625,
          "velocity": 0.7874015748031497
        },
        {
          "duration": 0.14705875000004198,
          "durationTicks": 24,
          "midi": 46,
          "name": "A#2",
          "ticks": 42960,
          "time": 263.2351625,
          "velocity": 0.7874015748031497
        },
        {
          "duration": 0.07352937499996415,
          "durationTicks": 12,
          "midi": 46,
          "name": "A#2",
          "ticks": 42984,
          "time": 263.38222125000004,
          "velocity": 0.7874015748031497
        },
        {
          "duration": 0.07352937499996415,
          "durationTicks": 12,
          "midi": 51,
          "name": "D#3",
          "ticks": 42984,
          "time": 263.38222125000004,
          "velocity": 0.7874015748031497
        },
        {
          "duration": 0.07352937500002099,
          "durationTicks": 12,
          "midi": 46,
          "name": "A#2",
          "ticks": 42996,
          "time": 263.455750625,
          "velocity": 0.7874015748031497
        },
        {
          "duration": 0.07352937500002099,
          "durationTicks": 12,
          "midi": 51,
          "name": "D#3",
          "ticks": 42996,
          "time": 263.455750625,
          "velocity": 0.7874015748031497
        },
        {
          "duration": 0.14705874999998514,
          "durationTicks": 24,
          "midi": 46,
          "name": "A#2",
          "ticks": 43008,
          "time": 263.52928,
          "velocity": 0.7874015748031497
        },
        {
          "duration": 0.14705874999998514,
          "durationTicks": 24,
          "midi": 51,
          "name": "D#3",
          "ticks": 43008,
          "time": 263.52928,
          "velocity": 0.7874015748031497
        },
        {
          "duration": 0.14705875000004198,
          "durationTicks": 24,
          "midi": 46,
          "name": "A#2",
          "ticks": 43032,
          "time": 263.67633875,
          "velocity": 0.7874015748031497
        },
        {
          "duration": 0.14705875000004198,
          "durationTicks": 24,
          "midi": 51,
          "name": "D#3",
          "ticks": 43032,
          "time": 263.67633875,
          "velocity": 0.7874015748031497
        },
        {
          "duration": 0.14705874999998514,
          "durationTicks": 24,
          "midi": 46,
          "name": "A#2",
          "ticks": 43056,
          "time": 263.82339750000006,
          "velocity": 0.7874015748031497
        },
        {
          "duration": 0.14705874999998514,
          "durationTicks": 24,
          "midi": 51,
          "name": "D#3",
          "ticks": 43056,
          "time": 263.82339750000006,
          "velocity": 0.7874015748031497
        },
        {
          "duration": 0.14705874999998514,
          "durationTicks": 24,
          "midi": 46,
          "name": "A#2",
          "ticks": 43080,
          "time": 263.97045625000004,
          "velocity": 0.7874015748031497
        },
        {
          "duration": 0.14705874999998514,
          "durationTicks": 24,
          "midi": 51,
          "name": "D#3",
          "ticks": 43080,
          "time": 263.97045625000004,
          "velocity": 0.7874015748031497
        },
        {
          "duration": 0.14705874999998514,
          "durationTicks": 24,
          "midi": 48,
          "name": "C3",
          "ticks": 43104,
          "time": 264.117515,
          "velocity": 0.7874015748031497
        },
        {
          "duration": 0.14705874999998514,
          "durationTicks": 24,
          "midi": 53,
          "name": "F3",
          "ticks": 43104,
          "time": 264.117515,
          "velocity": 0.7874015748031497
        },
        {
          "duration": 0.07352937500002099,
          "durationTicks": 12,
          "midi": 53,
          "name": "F3",
          "ticks": 43128,
          "time": 264.26457375,
          "velocity": 0.7874015748031497
        },
        {
          "duration": 0.07352937500002099,
          "durationTicks": 12,
          "midi": 48,
          "name": "C3",
          "ticks": 43128,
          "time": 264.26457375,
          "velocity": 0.7874015748031497
        },
        {
          "duration": 0.07352937500002099,
          "durationTicks": 12,
          "midi": 53,
          "name": "F3",
          "ticks": 43140,
          "time": 264.33810312500003,
          "velocity": 0.7874015748031497
        },
        {
          "duration": 0.07352937500002099,
          "durationTicks": 12,
          "midi": 48,
          "name": "C3",
          "ticks": 43140,
          "time": 264.33810312500003,
          "velocity": 0.7874015748031497
        },
        {
          "duration": 0.14705874999998514,
          "durationTicks": 24,
          "midi": 53,
          "name": "F3",
          "ticks": 43152,
          "time": 264.41163250000005,
          "velocity": 0.7874015748031497
        },
        {
          "duration": 0.14705874999998514,
          "durationTicks": 24,
          "midi": 48,
          "name": "C3",
          "ticks": 43152,
          "time": 264.41163250000005,
          "velocity": 0.7874015748031497
        },
        {
          "duration": 0.07352937499996415,
          "durationTicks": 12,
          "midi": 53,
          "name": "F3",
          "ticks": 43176,
          "time": 264.55869125000004,
          "velocity": 0.7874015748031497
        },
        {
          "duration": 0.07352937499996415,
          "durationTicks": 12,
          "midi": 48,
          "name": "C3",
          "ticks": 43176,
          "time": 264.55869125000004,
          "velocity": 0.7874015748031497
        },
        {
          "duration": 0.07352937500002099,
          "durationTicks": 12,
          "midi": 53,
          "name": "F3",
          "ticks": 43188,
          "time": 264.632220625,
          "velocity": 0.7874015748031497
        },
        {
          "duration": 0.07352937500002099,
          "durationTicks": 12,
          "midi": 48,
          "name": "C3",
          "ticks": 43188,
          "time": 264.632220625,
          "velocity": 0.7874015748031497
        },
        {
          "duration": 0.14705874999998514,
          "durationTicks": 24,
          "midi": 53,
          "name": "F3",
          "ticks": 43200,
          "time": 264.70575,
          "velocity": 0.7874015748031497
        },
        {
          "duration": 0.14705874999998514,
          "durationTicks": 24,
          "midi": 48,
          "name": "C3",
          "ticks": 43200,
          "time": 264.70575,
          "velocity": 0.7874015748031497
        },
        {
          "duration": 0.14705875000004198,
          "durationTicks": 24,
          "midi": 48,
          "name": "C3",
          "ticks": 43224,
          "time": 264.85280875,
          "velocity": 0.7874015748031497
        },
        {
          "duration": 0.14705875000004198,
          "durationTicks": 24,
          "midi": 53,
          "name": "F3",
          "ticks": 43224,
          "time": 264.85280875,
          "velocity": 0.7874015748031497
        },
        {
          "duration": 0.14705874999998514,
          "durationTicks": 24,
          "midi": 53,
          "name": "F3",
          "ticks": 43248,
          "time": 264.99986750000005,
          "velocity": 0.7874015748031497
        },
        {
          "duration": 0.14705874999998514,
          "durationTicks": 24,
          "midi": 48,
          "name": "C3",
          "ticks": 43248,
          "time": 264.99986750000005,
          "velocity": 0.7874015748031497
        },
        {
          "duration": 0.14705874999998514,
          "durationTicks": 24,
          "midi": 48,
          "name": "C3",
          "ticks": 43272,
          "time": 265.14692625000004,
          "velocity": 0.7874015748031497
        },
        {
          "duration": 0.14705874999998514,
          "durationTicks": 24,
          "midi": 53,
          "name": "F3",
          "ticks": 43272,
          "time": 265.14692625000004,
          "velocity": 0.7874015748031497
        },
        {
          "duration": 0.14705874999998514,
          "durationTicks": 24,
          "midi": 48,
          "name": "C3",
          "ticks": 43296,
          "time": 265.293985,
          "velocity": 0.7874015748031497
        },
        {
          "duration": 0.14705874999998514,
          "durationTicks": 24,
          "midi": 53,
          "name": "F3",
          "ticks": 43296,
          "time": 265.293985,
          "velocity": 0.7874015748031497
        },
        {
          "duration": 0.07352937500002099,
          "durationTicks": 12,
          "midi": 53,
          "name": "F3",
          "ticks": 43320,
          "time": 265.44104375,
          "velocity": 0.7874015748031497
        },
        {
          "duration": 0.07352937500002099,
          "durationTicks": 12,
          "midi": 48,
          "name": "C3",
          "ticks": 43320,
          "time": 265.44104375,
          "velocity": 0.7874015748031497
        },
        {
          "duration": 0.07352937500002099,
          "durationTicks": 12,
          "midi": 53,
          "name": "F3",
          "ticks": 43332,
          "time": 265.514573125,
          "velocity": 0.7874015748031497
        },
        {
          "duration": 0.07352937500002099,
          "durationTicks": 12,
          "midi": 48,
          "name": "C3",
          "ticks": 43332,
          "time": 265.514573125,
          "velocity": 0.7874015748031497
        },
        {
          "duration": 0.14705874999998514,
          "durationTicks": 24,
          "midi": 53,
          "name": "F3",
          "ticks": 43344,
          "time": 265.58810250000005,
          "velocity": 0.7874015748031497
        },
        {
          "duration": 0.14705874999998514,
          "durationTicks": 24,
          "midi": 48,
          "name": "C3",
          "ticks": 43344,
          "time": 265.58810250000005,
          "velocity": 0.7874015748031497
        },
        {
          "duration": 0.07352937500002099,
          "durationTicks": 12,
          "midi": 53,
          "name": "F3",
          "ticks": 43368,
          "time": 265.73516125000003,
          "velocity": 0.7874015748031497
        },
        {
          "duration": 0.07352937500002099,
          "durationTicks": 12,
          "midi": 48,
          "name": "C3",
          "ticks": 43368,
          "time": 265.73516125000003,
          "velocity": 0.7874015748031497
        },
        {
          "duration": 0.07352937499996415,
          "durationTicks": 12,
          "midi": 53,
          "name": "F3",
          "ticks": 43380,
          "time": 265.80869062500005,
          "velocity": 0.7874015748031497
        },
        {
          "duration": 0.07352937499996415,
          "durationTicks": 12,
          "midi": 48,
          "name": "C3",
          "ticks": 43380,
          "time": 265.80869062500005,
          "velocity": 0.7874015748031497
        },
        {
          "duration": 0.14705874999998514,
          "durationTicks": 24,
          "midi": 53,
          "name": "F3",
          "ticks": 43392,
          "time": 265.88222,
          "velocity": 0.7874015748031497
        },
        {
          "duration": 0.14705874999998514,
          "durationTicks": 24,
          "midi": 48,
          "name": "C3",
          "ticks": 43392,
          "time": 265.88222,
          "velocity": 0.7874015748031497
        },
        {
          "duration": 0.14705875000004198,
          "durationTicks": 24,
          "midi": 53,
          "name": "F3",
          "ticks": 43416,
          "time": 266.02927875,
          "velocity": 0.7874015748031497
        },
        {
          "duration": 0.14705875000004198,
          "durationTicks": 24,
          "midi": 48,
          "name": "C3",
          "ticks": 43416,
          "time": 266.02927875,
          "velocity": 0.7874015748031497
        },
        {
          "duration": 0.14705874999998514,
          "durationTicks": 24,
          "midi": 53,
          "name": "F3",
          "ticks": 43440,
          "time": 266.17633750000005,
          "velocity": 0.7874015748031497
        },
        {
          "duration": 0.14705874999998514,
          "durationTicks": 24,
          "midi": 48,
          "name": "C3",
          "ticks": 43440,
          "time": 266.17633750000005,
          "velocity": 0.7874015748031497
        },
        {
          "duration": 0.14705874999998514,
          "durationTicks": 24,
          "midi": 48,
          "name": "C3",
          "ticks": 43464,
          "time": 266.32339625000003,
          "velocity": 0.7874015748031497
        },
        {
          "duration": 0.14705874999998514,
          "durationTicks": 24,
          "midi": 53,
          "name": "F3",
          "ticks": 43464,
          "time": 266.32339625000003,
          "velocity": 0.7874015748031497
        },
        {
          "duration": 0.14705874999998514,
          "durationTicks": 24,
          "midi": 48,
          "name": "C3",
          "ticks": 43488,
          "time": 266.470455,
          "velocity": 0.7874015748031497
        },
        {
          "duration": 0.14705874999998514,
          "durationTicks": 24,
          "midi": 53,
          "name": "F3",
          "ticks": 43488,
          "time": 266.470455,
          "velocity": 0.7874015748031497
        },
        {
          "duration": 0.07352937500002099,
          "durationTicks": 12,
          "midi": 53,
          "name": "F3",
          "ticks": 43512,
          "time": 266.61751375,
          "velocity": 0.7874015748031497
        },
        {
          "duration": 0.07352937500002099,
          "durationTicks": 12,
          "midi": 48,
          "name": "C3",
          "ticks": 43512,
          "time": 266.61751375,
          "velocity": 0.7874015748031497
        },
        {
          "duration": 0.07352937500002099,
          "durationTicks": 12,
          "midi": 53,
          "name": "F3",
          "ticks": 43524,
          "time": 266.691043125,
          "velocity": 0.7874015748031497
        },
        {
          "duration": 0.07352937500002099,
          "durationTicks": 12,
          "midi": 48,
          "name": "C3",
          "ticks": 43524,
          "time": 266.691043125,
          "velocity": 0.7874015748031497
        },
        {
          "duration": 0.14705874999998514,
          "durationTicks": 24,
          "midi": 53,
          "name": "F3",
          "ticks": 43536,
          "time": 266.76457250000004,
          "velocity": 0.7874015748031497
        },
        {
          "duration": 0.14705874999998514,
          "durationTicks": 24,
          "midi": 48,
          "name": "C3",
          "ticks": 43536,
          "time": 266.76457250000004,
          "velocity": 0.7874015748031497
        },
        {
          "duration": 0.07352937500002099,
          "durationTicks": 12,
          "midi": 48,
          "name": "C3",
          "ticks": 43560,
          "time": 266.91163125,
          "velocity": 0.7874015748031497
        },
        {
          "duration": 0.07352937500002099,
          "durationTicks": 12,
          "midi": 53,
          "name": "F3",
          "ticks": 43560,
          "time": 266.91163125,
          "velocity": 0.7874015748031497
        },
        {
          "duration": 0.07352937499996415,
          "durationTicks": 12,
          "midi": 48,
          "name": "C3",
          "ticks": 43572,
          "time": 266.98516062500005,
          "velocity": 0.7874015748031497
        },
        {
          "duration": 0.07352937499996415,
          "durationTicks": 12,
          "midi": 53,
          "name": "F3",
          "ticks": 43572,
          "time": 266.98516062500005,
          "velocity": 0.7874015748031497
        },
        {
          "duration": 0.14705875000004198,
          "durationTicks": 24,
          "midi": 53,
          "name": "F3",
          "ticks": 43584,
          "time": 267.05869,
          "velocity": 0.7874015748031497
        },
        {
          "duration": 0.14705875000004198,
          "durationTicks": 24,
          "midi": 48,
          "name": "C3",
          "ticks": 43584,
          "time": 267.05869,
          "velocity": 0.7874015748031497
        },
        {
          "duration": 0.14705874999998514,
          "durationTicks": 24,
          "midi": 53,
          "name": "F3",
          "ticks": 43608,
          "time": 267.20574875000005,
          "velocity": 0.7874015748031497
        },
        {
          "duration": 0.14705874999998514,
          "durationTicks": 24,
          "midi": 48,
          "name": "C3",
          "ticks": 43608,
          "time": 267.20574875000005,
          "velocity": 0.7874015748031497
        },
        {
          "duration": 0.14705874999998514,
          "durationTicks": 24,
          "midi": 53,
          "name": "F3",
          "ticks": 43632,
          "time": 267.35280750000004,
          "velocity": 0.7874015748031497
        },
        {
          "duration": 0.14705874999998514,
          "durationTicks": 24,
          "midi": 48,
          "name": "C3",
          "ticks": 43632,
          "time": 267.35280750000004,
          "velocity": 0.7874015748031497
        },
        {
          "duration": 0.14705874999998514,
          "durationTicks": 24,
          "midi": 53,
          "name": "F3",
          "ticks": 43656,
          "time": 267.49986625,
          "velocity": 0.7874015748031497
        },
        {
          "duration": 0.14705874999998514,
          "durationTicks": 24,
          "midi": 48,
          "name": "C3",
          "ticks": 43656,
          "time": 267.49986625,
          "velocity": 0.7874015748031497
        },
        {
          "duration": 0.14705875000004198,
          "durationTicks": 24,
          "midi": 48,
          "name": "C3",
          "ticks": 43680,
          "time": 267.646925,
          "velocity": 0.7874015748031497
        },
        {
          "duration": 0.14705875000004198,
          "durationTicks": 24,
          "midi": 53,
          "name": "F3",
          "ticks": 43680,
          "time": 267.646925,
          "velocity": 0.7874015748031497
        },
        {
          "duration": 0.07352937499996415,
          "durationTicks": 12,
          "midi": 48,
          "name": "C3",
          "ticks": 43704,
          "time": 267.79398375000005,
          "velocity": 0.7874015748031497
        },
        {
          "duration": 0.07352937499996415,
          "durationTicks": 12,
          "midi": 53,
          "name": "F3",
          "ticks": 43704,
          "time": 267.79398375000005,
          "velocity": 0.7874015748031497
        },
        {
          "duration": 0.07352937500002099,
          "durationTicks": 12,
          "midi": 48,
          "name": "C3",
          "ticks": 43716,
          "time": 267.867513125,
          "velocity": 0.7874015748031497
        },
        {
          "duration": 0.07352937500002099,
          "durationTicks": 12,
          "midi": 53,
          "name": "F3",
          "ticks": 43716,
          "time": 267.867513125,
          "velocity": 0.7874015748031497
        },
        {
          "duration": 0.14705874999998514,
          "durationTicks": 24,
          "midi": 48,
          "name": "C3",
          "ticks": 43728,
          "time": 267.94104250000004,
          "velocity": 0.7874015748031497
        },
        {
          "duration": 0.14705874999998514,
          "durationTicks": 24,
          "midi": 53,
          "name": "F3",
          "ticks": 43728,
          "time": 267.94104250000004,
          "velocity": 0.7874015748031497
        },
        {
          "duration": 0.07352937500002099,
          "durationTicks": 12,
          "midi": 53,
          "name": "F3",
          "ticks": 43752,
          "time": 268.08810125,
          "velocity": 0.7874015748031497
        },
        {
          "duration": 0.07352937500002099,
          "durationTicks": 12,
          "midi": 48,
          "name": "C3",
          "ticks": 43752,
          "time": 268.08810125,
          "velocity": 0.7874015748031497
        },
        {
          "duration": 0.07352937499996415,
          "durationTicks": 12,
          "midi": 53,
          "name": "F3",
          "ticks": 43764,
          "time": 268.16163062500004,
          "velocity": 0.7874015748031497
        },
        {
          "duration": 0.07352937499996415,
          "durationTicks": 12,
          "midi": 48,
          "name": "C3",
          "ticks": 43764,
          "time": 268.16163062500004,
          "velocity": 0.7874015748031497
        },
        {
          "duration": 0.14705875000004198,
          "durationTicks": 24,
          "midi": 48,
          "name": "C3",
          "ticks": 43776,
          "time": 268.23516,
          "velocity": 0.7874015748031497
        },
        {
          "duration": 0.14705875000004198,
          "durationTicks": 24,
          "midi": 53,
          "name": "F3",
          "ticks": 43776,
          "time": 268.23516,
          "velocity": 0.7874015748031497
        },
        {
          "duration": 0.14705874999998514,
          "durationTicks": 24,
          "midi": 53,
          "name": "F3",
          "ticks": 43800,
          "time": 268.38221875000005,
          "velocity": 0.7874015748031497
        },
        {
          "duration": 0.14705874999998514,
          "durationTicks": 24,
          "midi": 48,
          "name": "C3",
          "ticks": 43800,
          "time": 268.38221875000005,
          "velocity": 0.7874015748031497
        },
        {
          "duration": 0.14705874999998514,
          "durationTicks": 24,
          "midi": 53,
          "name": "F3",
          "ticks": 43824,
          "time": 268.52927750000003,
          "velocity": 0.7874015748031497
        },
        {
          "duration": 0.14705874999998514,
          "durationTicks": 24,
          "midi": 48,
          "name": "C3",
          "ticks": 43824,
          "time": 268.52927750000003,
          "velocity": 0.7874015748031497
        },
        {
          "duration": 0.14705874999998514,
          "durationTicks": 24,
          "midi": 53,
          "name": "F3",
          "ticks": 43848,
          "time": 268.67633625,
          "velocity": 0.7874015748031497
        },
        {
          "duration": 0.14705874999998514,
          "durationTicks": 24,
          "midi": 48,
          "name": "C3",
          "ticks": 43848,
          "time": 268.67633625,
          "velocity": 0.7874015748031497
        },
        {
          "duration": 0.14705875000004198,
          "durationTicks": 24,
          "midi": 50,
          "name": "D3",
          "ticks": 43872,
          "time": 268.823395,
          "velocity": 0.7874015748031497
        },
        {
          "duration": 0.14705875000004198,
          "durationTicks": 24,
          "midi": 55,
          "name": "G3",
          "ticks": 43872,
          "time": 268.823395,
          "velocity": 0.7874015748031497
        },
        {
          "duration": 0.07352937499996415,
          "durationTicks": 12,
          "midi": 50,
          "name": "D3",
          "ticks": 43896,
          "time": 268.97045375000005,
          "velocity": 0.7874015748031497
        },
        {
          "duration": 0.07352937499996415,
          "durationTicks": 12,
          "midi": 55,
          "name": "G3",
          "ticks": 43896,
          "time": 268.97045375000005,
          "velocity": 0.7874015748031497
        },
        {
          "duration": 0.07352937500002099,
          "durationTicks": 12,
          "midi": 50,
          "name": "D3",
          "ticks": 43908,
          "time": 269.043983125,
          "velocity": 0.7874015748031497
        },
        {
          "duration": 0.07352937500002099,
          "durationTicks": 12,
          "midi": 55,
          "name": "G3",
          "ticks": 43908,
          "time": 269.043983125,
          "velocity": 0.7874015748031497
        },
        {
          "duration": 0.14705874999998514,
          "durationTicks": 24,
          "midi": 50,
          "name": "D3",
          "ticks": 43920,
          "time": 269.11751250000003,
          "velocity": 0.7874015748031497
        },
        {
          "duration": 0.14705874999998514,
          "durationTicks": 24,
          "midi": 55,
          "name": "G3",
          "ticks": 43920,
          "time": 269.11751250000003,
          "velocity": 0.7874015748031497
        },
        {
          "duration": 0.07352937500002099,
          "durationTicks": 12,
          "midi": 50,
          "name": "D3",
          "ticks": 43944,
          "time": 269.26457125,
          "velocity": 0.7874015748031497
        },
        {
          "duration": 0.07352937500002099,
          "durationTicks": 12,
          "midi": 55,
          "name": "G3",
          "ticks": 43944,
          "time": 269.26457125,
          "velocity": 0.7874015748031497
        },
        {
          "duration": 0.07352937499996415,
          "durationTicks": 12,
          "midi": 50,
          "name": "D3",
          "ticks": 43956,
          "time": 269.33810062500004,
          "velocity": 0.7874015748031497
        },
        {
          "duration": 0.07352937499996415,
          "durationTicks": 12,
          "midi": 55,
          "name": "G3",
          "ticks": 43956,
          "time": 269.33810062500004,
          "velocity": 0.7874015748031497
        },
        {
          "duration": 0.14705875000004198,
          "durationTicks": 24,
          "midi": 50,
          "name": "D3",
          "ticks": 43968,
          "time": 269.41163,
          "velocity": 0.7874015748031497
        },
        {
          "duration": 0.14705875000004198,
          "durationTicks": 24,
          "midi": 55,
          "name": "G3",
          "ticks": 43968,
          "time": 269.41163,
          "velocity": 0.7874015748031497
        },
        {
          "duration": 0.14705874999998514,
          "durationTicks": 24,
          "midi": 55,
          "name": "G3",
          "ticks": 43992,
          "time": 269.55868875000004,
          "velocity": 0.7874015748031497
        },
        {
          "duration": 0.14705874999998514,
          "durationTicks": 24,
          "midi": 50,
          "name": "D3",
          "ticks": 43992,
          "time": 269.55868875000004,
          "velocity": 0.7874015748031497
        },
        {
          "duration": 0.14705874999998514,
          "durationTicks": 24,
          "midi": 55,
          "name": "G3",
          "ticks": 44016,
          "time": 269.70574750000003,
          "velocity": 0.7874015748031497
        },
        {
          "duration": 0.14705874999998514,
          "durationTicks": 24,
          "midi": 50,
          "name": "D3",
          "ticks": 44016,
          "time": 269.70574750000003,
          "velocity": 0.7874015748031497
        },
        {
          "duration": 0.14705875000004198,
          "durationTicks": 24,
          "midi": 55,
          "name": "G3",
          "ticks": 44040,
          "time": 269.85280625,
          "velocity": 0.7874015748031497
        },
        {
          "duration": 0.14705875000004198,
          "durationTicks": 24,
          "midi": 50,
          "name": "D3",
          "ticks": 44040,
          "time": 269.85280625,
          "velocity": 0.7874015748031497
        },
        {
          "duration": 0.14705874999998514,
          "durationTicks": 24,
          "midi": 55,
          "name": "G3",
          "ticks": 44064,
          "time": 269.99986500000006,
          "velocity": 0.7874015748031497
        },
        {
          "duration": 0.14705874999998514,
          "durationTicks": 24,
          "midi": 50,
          "name": "D3",
          "ticks": 44064,
          "time": 269.99986500000006,
          "velocity": 0.7874015748031497
        },
        {
          "duration": 0.07352937499996415,
          "durationTicks": 12,
          "midi": 50,
          "name": "D3",
          "ticks": 44088,
          "time": 270.14692375000004,
          "velocity": 0.7874015748031497
        },
        {
          "duration": 0.07352937499996415,
          "durationTicks": 12,
          "midi": 55,
          "name": "G3",
          "ticks": 44088,
          "time": 270.14692375000004,
          "velocity": 0.7874015748031497
        },
        {
          "duration": 0.07352937500002099,
          "durationTicks": 12,
          "midi": 50,
          "name": "D3",
          "ticks": 44100,
          "time": 270.220453125,
          "velocity": 0.7874015748031497
        },
        {
          "duration": 0.07352937500002099,
          "durationTicks": 12,
          "midi": 55,
          "name": "G3",
          "ticks": 44100,
          "time": 270.220453125,
          "velocity": 0.7874015748031497
        },
        {
          "duration": 0.14705874999998514,
          "durationTicks": 24,
          "midi": 55,
          "name": "G3",
          "ticks": 44112,
          "time": 270.2939825,
          "velocity": 0.7874015748031497
        },
        {
          "duration": 0.14705874999998514,
          "durationTicks": 24,
          "midi": 50,
          "name": "D3",
          "ticks": 44112,
          "time": 270.2939825,
          "velocity": 0.7874015748031497
        },
        {
          "duration": 0.07352937500002099,
          "durationTicks": 12,
          "midi": 55,
          "name": "G3",
          "ticks": 44136,
          "time": 270.44104125,
          "velocity": 0.7874015748031497
        },
        {
          "duration": 0.07352937500002099,
          "durationTicks": 12,
          "midi": 50,
          "name": "D3",
          "ticks": 44136,
          "time": 270.44104125,
          "velocity": 0.7874015748031497
        },
        {
          "duration": 0.07352937500002099,
          "durationTicks": 12,
          "midi": 55,
          "name": "G3",
          "ticks": 44148,
          "time": 270.51457062500003,
          "velocity": 0.7874015748031497
        },
        {
          "duration": 0.07352937500002099,
          "durationTicks": 12,
          "midi": 50,
          "name": "D3",
          "ticks": 44148,
          "time": 270.51457062500003,
          "velocity": 0.7874015748031497
        },
        {
          "duration": 0.14705874999998514,
          "durationTicks": 24,
          "midi": 55,
          "name": "G3",
          "ticks": 44160,
          "time": 270.58810000000005,
          "velocity": 0.7874015748031497
        },
        {
          "duration": 0.14705874999998514,
          "durationTicks": 24,
          "midi": 50,
          "name": "D3",
          "ticks": 44160,
          "time": 270.58810000000005,
          "velocity": 0.7874015748031497
        },
        {
          "duration": 0.14705874999998514,
          "durationTicks": 24,
          "midi": 55,
          "name": "G3",
          "ticks": 44184,
          "time": 270.73515875000004,
          "velocity": 0.7874015748031497
        },
        {
          "duration": 0.14705874999998514,
          "durationTicks": 24,
          "midi": 50,
          "name": "D3",
          "ticks": 44184,
          "time": 270.73515875000004,
          "velocity": 0.7874015748031497
        },
        {
          "duration": 0.14705874999998514,
          "durationTicks": 24,
          "midi": 50,
          "name": "D3",
          "ticks": 44208,
          "time": 270.8822175,
          "velocity": 0.7874015748031497
        },
        {
          "duration": 0.14705874999998514,
          "durationTicks": 24,
          "midi": 55,
          "name": "G3",
          "ticks": 44208,
          "time": 270.8822175,
          "velocity": 0.7874015748031497
        },
        {
          "duration": 0.14705875000004198,
          "durationTicks": 24,
          "midi": 55,
          "name": "G3",
          "ticks": 44232,
          "time": 271.02927625,
          "velocity": 0.7874015748031497
        },
        {
          "duration": 0.14705875000004198,
          "durationTicks": 24,
          "midi": 50,
          "name": "D3",
          "ticks": 44232,
          "time": 271.02927625,
          "velocity": 0.7874015748031497
        },
        {
          "duration": 0.14705874999998514,
          "durationTicks": 24,
          "midi": 51,
          "name": "D#3",
          "ticks": 44256,
          "time": 271.17633500000005,
          "velocity": 0.7874015748031497
        },
        {
          "duration": 0.14705874999998514,
          "durationTicks": 24,
          "midi": 46,
          "name": "A#2",
          "ticks": 44256,
          "time": 271.17633500000005,
          "velocity": 0.7874015748031497
        },
        {
          "duration": 0.07352937500002099,
          "durationTicks": 12,
          "midi": 46,
          "name": "A#2",
          "ticks": 44280,
          "time": 271.32339375000004,
          "velocity": 0.7874015748031497
        },
        {
          "duration": 0.07352937500002099,
          "durationTicks": 12,
          "midi": 51,
          "name": "D#3",
          "ticks": 44280,
          "time": 271.32339375000004,
          "velocity": 0.7874015748031497
        },
        {
          "duration": 0.07352937499996415,
          "durationTicks": 12,
          "midi": 46,
          "name": "A#2",
          "ticks": 44292,
          "time": 271.39692312500006,
          "velocity": 0.7874015748031497
        },
        {
          "duration": 0.07352937499996415,
          "durationTicks": 12,
          "midi": 51,
          "name": "D#3",
          "ticks": 44292,
          "time": 271.39692312500006,
          "velocity": 0.7874015748031497
        },
        {
          "duration": 0.14705874999998514,
          "durationTicks": 24,
          "midi": 46,
          "name": "A#2",
          "ticks": 44304,
          "time": 271.4704525,
          "velocity": 0.7874015748031497
        },
        {
          "duration": 0.14705874999998514,
          "durationTicks": 24,
          "midi": 51,
          "name": "D#3",
          "ticks": 44304,
          "time": 271.4704525,
          "velocity": 0.7874015748031497
        },
        {
          "duration": 0.07352937500002099,
          "durationTicks": 12,
          "midi": 51,
          "name": "D#3",
          "ticks": 44328,
          "time": 271.61751125,
          "velocity": 0.7874015748031497
        },
        {
          "duration": 0.07352937500002099,
          "durationTicks": 12,
          "midi": 46,
          "name": "A#2",
          "ticks": 44328,
          "time": 271.61751125,
          "velocity": 0.7874015748031497
        },
        {
          "duration": 0.07352937500002099,
          "durationTicks": 12,
          "midi": 51,
          "name": "D#3",
          "ticks": 44340,
          "time": 271.691040625,
          "velocity": 0.7874015748031497
        },
        {
          "duration": 0.07352937500002099,
          "durationTicks": 12,
          "midi": 46,
          "name": "A#2",
          "ticks": 44340,
          "time": 271.691040625,
          "velocity": 0.7874015748031497
        },
        {
          "duration": 0.14705874999998514,
          "durationTicks": 24,
          "midi": 51,
          "name": "D#3",
          "ticks": 44352,
          "time": 271.76457000000005,
          "velocity": 0.7874015748031497
        },
        {
          "duration": 0.14705874999998514,
          "durationTicks": 24,
          "midi": 46,
          "name": "A#2",
          "ticks": 44352,
          "time": 271.76457000000005,
          "velocity": 0.7874015748031497
        },
        {
          "duration": 0.14705874999998514,
          "durationTicks": 24,
          "midi": 51,
          "name": "D#3",
          "ticks": 44376,
          "time": 271.91162875000003,
          "velocity": 0.7874015748031497
        },
        {
          "duration": 0.14705874999998514,
          "durationTicks": 24,
          "midi": 46,
          "name": "A#2",
          "ticks": 44376,
          "time": 271.91162875000003,
          "velocity": 0.7874015748031497
        },
        {
          "duration": 0.14705874999998514,
          "durationTicks": 24,
          "midi": 51,
          "name": "D#3",
          "ticks": 44400,
          "time": 272.0586875,
          "velocity": 0.7874015748031497
        },
        {
          "duration": 0.14705874999998514,
          "durationTicks": 24,
          "midi": 46,
          "name": "A#2",
          "ticks": 44400,
          "time": 272.0586875,
          "velocity": 0.7874015748031497
        },
        {
          "duration": 0.14705875000004198,
          "durationTicks": 24,
          "midi": 46,
          "name": "A#2",
          "ticks": 44424,
          "time": 272.20574625,
          "velocity": 0.7874015748031497
        },
        {
          "duration": 0.14705875000004198,
          "durationTicks": 24,
          "midi": 51,
          "name": "D#3",
          "ticks": 44424,
          "time": 272.20574625,
          "velocity": 0.7874015748031497
        },
        {
          "duration": 0.14705874999998514,
          "durationTicks": 24,
          "midi": 46,
          "name": "A#2",
          "ticks": 44448,
          "time": 272.35280500000005,
          "velocity": 0.7874015748031497
        },
        {
          "duration": 0.14705874999998514,
          "durationTicks": 24,
          "midi": 51,
          "name": "D#3",
          "ticks": 44448,
          "time": 272.35280500000005,
          "velocity": 0.7874015748031497
        },
        {
          "duration": 0.07352937500002099,
          "durationTicks": 12,
          "midi": 46,
          "name": "A#2",
          "ticks": 44472,
          "time": 272.49986375000003,
          "velocity": 0.7874015748031497
        },
        {
          "duration": 0.07352937500002099,
          "durationTicks": 12,
          "midi": 51,
          "name": "D#3",
          "ticks": 44472,
          "time": 272.49986375000003,
          "velocity": 0.7874015748031497
        },
        {
          "duration": 0.07352937499996415,
          "durationTicks": 12,
          "midi": 46,
          "name": "A#2",
          "ticks": 44484,
          "time": 272.57339312500005,
          "velocity": 0.7874015748031497
        },
        {
          "duration": 0.07352937499996415,
          "durationTicks": 12,
          "midi": 51,
          "name": "D#3",
          "ticks": 44484,
          "time": 272.57339312500005,
          "velocity": 0.7874015748031497
        },
        {
          "duration": 0.14705874999998514,
          "durationTicks": 24,
          "midi": 51,
          "name": "D#3",
          "ticks": 44496,
          "time": 272.6469225,
          "velocity": 0.7874015748031497
        },
        {
          "duration": 0.14705874999998514,
          "durationTicks": 24,
          "midi": 46,
          "name": "A#2",
          "ticks": 44496,
          "time": 272.6469225,
          "velocity": 0.7874015748031497
        },
        {
          "duration": 0.07352937500002099,
          "durationTicks": 12,
          "midi": 46,
          "name": "A#2",
          "ticks": 44520,
          "time": 272.79398125,
          "velocity": 0.7874015748031497
        },
        {
          "duration": 0.07352937500002099,
          "durationTicks": 12,
          "midi": 51,
          "name": "D#3",
          "ticks": 44520,
          "time": 272.79398125,
          "velocity": 0.7874015748031497
        },
        {
          "duration": 0.07352937500002099,
          "durationTicks": 12,
          "midi": 46,
          "name": "A#2",
          "ticks": 44532,
          "time": 272.867510625,
          "velocity": 0.7874015748031497
        },
        {
          "duration": 0.07352937500002099,
          "durationTicks": 12,
          "midi": 51,
          "name": "D#3",
          "ticks": 44532,
          "time": 272.867510625,
          "velocity": 0.7874015748031497
        },
        {
          "duration": 0.14705874999998514,
          "durationTicks": 24,
          "midi": 46,
          "name": "A#2",
          "ticks": 44544,
          "time": 272.94104000000004,
          "velocity": 0.7874015748031497
        },
        {
          "duration": 0.14705874999998514,
          "durationTicks": 24,
          "midi": 51,
          "name": "D#3",
          "ticks": 44544,
          "time": 272.94104000000004,
          "velocity": 0.7874015748031497
        },
        {
          "duration": 0.14705874999998514,
          "durationTicks": 24,
          "midi": 46,
          "name": "A#2",
          "ticks": 44568,
          "time": 273.08809875000003,
          "velocity": 0.7874015748031497
        },
        {
          "duration": 0.14705874999998514,
          "durationTicks": 24,
          "midi": 51,
          "name": "D#3",
          "ticks": 44568,
          "time": 273.08809875000003,
          "velocity": 0.7874015748031497
        },
        {
          "duration": 0.14705875000004198,
          "durationTicks": 24,
          "midi": 46,
          "name": "A#2",
          "ticks": 44592,
          "time": 273.2351575,
          "velocity": 0.7874015748031497
        },
        {
          "duration": 0.14705875000004198,
          "durationTicks": 24,
          "midi": 51,
          "name": "D#3",
          "ticks": 44592,
          "time": 273.2351575,
          "velocity": 0.7874015748031497
        },
        {
          "duration": 0.14705874999998514,
          "durationTicks": 24,
          "midi": 46,
          "name": "A#2",
          "ticks": 44616,
          "time": 273.38221625000006,
          "velocity": 0.7874015748031497
        },
        {
          "duration": 0.14705874999998514,
          "durationTicks": 24,
          "midi": 51,
          "name": "D#3",
          "ticks": 44616,
          "time": 273.38221625000006,
          "velocity": 0.7874015748031497
        },
        {
          "duration": 0.14705874999998514,
          "durationTicks": 24,
          "midi": 48,
          "name": "C3",
          "ticks": 44640,
          "time": 273.52927500000004,
          "velocity": 0.7874015748031497
        },
        {
          "duration": 0.14705874999998514,
          "durationTicks": 24,
          "midi": 53,
          "name": "F3",
          "ticks": 44640,
          "time": 273.52927500000004,
          "velocity": 0.7874015748031497
        },
        {
          "duration": 0.07352937500002099,
          "durationTicks": 12,
          "midi": 53,
          "name": "F3",
          "ticks": 44664,
          "time": 273.67633375,
          "velocity": 0.7874015748031497
        },
        {
          "duration": 0.07352937500002099,
          "durationTicks": 12,
          "midi": 48,
          "name": "C3",
          "ticks": 44664,
          "time": 273.67633375,
          "velocity": 0.7874015748031497
        },
        {
          "duration": 0.07352937499996415,
          "durationTicks": 12,
          "midi": 53,
          "name": "F3",
          "ticks": 44676,
          "time": 273.74986312500005,
          "velocity": 0.7874015748031497
        },
        {
          "duration": 0.07352937499996415,
          "durationTicks": 12,
          "midi": 48,
          "name": "C3",
          "ticks": 44676,
          "time": 273.74986312500005,
          "velocity": 0.7874015748031497
        },
        {
          "duration": 0.14705875000004198,
          "durationTicks": 24,
          "midi": 53,
          "name": "F3",
          "ticks": 44688,
          "time": 273.8233925,
          "velocity": 0.7874015748031497
        },
        {
          "duration": 0.14705875000004198,
          "durationTicks": 24,
          "midi": 48,
          "name": "C3",
          "ticks": 44688,
          "time": 273.8233925,
          "velocity": 0.7874015748031497
        },
        {
          "duration": 0.07352937499996415,
          "durationTicks": 12,
          "midi": 53,
          "name": "F3",
          "ticks": 44712,
          "time": 273.97045125000005,
          "velocity": 0.7874015748031497
        },
        {
          "duration": 0.07352937499996415,
          "durationTicks": 12,
          "midi": 48,
          "name": "C3",
          "ticks": 44712,
          "time": 273.97045125000005,
          "velocity": 0.7874015748031497
        },
        {
          "duration": 0.07352937500002099,
          "durationTicks": 12,
          "midi": 53,
          "name": "F3",
          "ticks": 44724,
          "time": 274.043980625,
          "velocity": 0.7874015748031497
        },
        {
          "duration": 0.07352937500002099,
          "durationTicks": 12,
          "midi": 48,
          "name": "C3",
          "ticks": 44724,
          "time": 274.043980625,
          "velocity": 0.7874015748031497
        },
        {
          "duration": 0.14705874999998514,
          "durationTicks": 24,
          "midi": 53,
          "name": "F3",
          "ticks": 44736,
          "time": 274.11751000000004,
          "velocity": 0.7874015748031497
        },
        {
          "duration": 0.14705874999998514,
          "durationTicks": 24,
          "midi": 48,
          "name": "C3",
          "ticks": 44736,
          "time": 274.11751000000004,
          "velocity": 0.7874015748031497
        },
        {
          "duration": 0.14705874999998514,
          "durationTicks": 24,
          "midi": 48,
          "name": "C3",
          "ticks": 44760,
          "time": 274.26456875,
          "velocity": 0.7874015748031497
        },
        {
          "duration": 0.14705874999998514,
          "durationTicks": 24,
          "midi": 53,
          "name": "F3",
          "ticks": 44760,
          "time": 274.26456875,
          "velocity": 0.7874015748031497
        },
        {
          "duration": 0.14705875000004198,
          "durationTicks": 24,
          "midi": 48,
          "name": "C3",
          "ticks": 44784,
          "time": 274.4116275,
          "velocity": 0.7874015748031497
        },
        {
          "duration": 0.14705875000004198,
          "durationTicks": 24,
          "midi": 53,
          "name": "F3",
          "ticks": 44784,
          "time": 274.4116275,
          "velocity": 0.7874015748031497
        },
        {
          "duration": 0.14705874999998514,
          "durationTicks": 24,
          "midi": 53,
          "name": "F3",
          "ticks": 44808,
          "time": 274.55868625000005,
          "velocity": 0.7874015748031497
        },
        {
          "duration": 0.14705874999998514,
          "durationTicks": 24,
          "midi": 48,
          "name": "C3",
          "ticks": 44808,
          "time": 274.55868625000005,
          "velocity": 0.7874015748031497
        },
        {
          "duration": 0.14705874999998514,
          "durationTicks": 24,
          "midi": 53,
          "name": "F3",
          "ticks": 44832,
          "time": 274.70574500000004,
          "velocity": 0.7874015748031497
        },
        {
          "duration": 0.14705874999998514,
          "durationTicks": 24,
          "midi": 48,
          "name": "C3",
          "ticks": 44832,
          "time": 274.70574500000004,
          "velocity": 0.7874015748031497
        },
        {
          "duration": 0.07352937500002099,
          "durationTicks": 12,
          "midi": 48,
          "name": "C3",
          "ticks": 44856,
          "time": 274.85280375,
          "velocity": 0.7874015748031497
        },
        {
          "duration": 0.07352937500002099,
          "durationTicks": 12,
          "midi": 53,
          "name": "F3",
          "ticks": 44856,
          "time": 274.85280375,
          "velocity": 0.7874015748031497
        },
        {
          "duration": 0.07352937499996415,
          "durationTicks": 12,
          "midi": 48,
          "name": "C3",
          "ticks": 44868,
          "time": 274.92633312500004,
          "velocity": 0.7874015748031497
        },
        {
          "duration": 0.07352937499996415,
          "durationTicks": 12,
          "midi": 53,
          "name": "F3",
          "ticks": 44868,
          "time": 274.92633312500004,
          "velocity": 0.7874015748031497
        },
        {
          "duration": 0.14705875000004198,
          "durationTicks": 24,
          "midi": 48,
          "name": "C3",
          "ticks": 44880,
          "time": 274.9998625,
          "velocity": 0.7874015748031497
        },
        {
          "duration": 0.14705875000004198,
          "durationTicks": 24,
          "midi": 53,
          "name": "F3",
          "ticks": 44880,
          "time": 274.9998625,
          "velocity": 0.7874015748031497
        },
        {
          "duration": 0.07352937499996415,
          "durationTicks": 12,
          "midi": 48,
          "name": "C3",
          "ticks": 44904,
          "time": 275.14692125000005,
          "velocity": 0.7874015748031497
        },
        {
          "duration": 0.07352937499996415,
          "durationTicks": 12,
          "midi": 53,
          "name": "F3",
          "ticks": 44904,
          "time": 275.14692125000005,
          "velocity": 0.7874015748031497
        },
        {
          "duration": 0.07352937500002099,
          "durationTicks": 12,
          "midi": 48,
          "name": "C3",
          "ticks": 44916,
          "time": 275.220450625,
          "velocity": 0.7874015748031497
        },
        {
          "duration": 0.07352937500002099,
          "durationTicks": 12,
          "midi": 53,
          "name": "F3",
          "ticks": 44916,
          "time": 275.220450625,
          "velocity": 0.7874015748031497
        },
        {
          "duration": 0.14705874999998514,
          "durationTicks": 24,
          "midi": 53,
          "name": "F3",
          "ticks": 44928,
          "time": 275.29398000000003,
          "velocity": 0.7874015748031497
        },
        {
          "duration": 0.14705874999998514,
          "durationTicks": 24,
          "midi": 48,
          "name": "C3",
          "ticks": 44928,
          "time": 275.29398000000003,
          "velocity": 0.7874015748031497
        },
        {
          "duration": 0.14705874999998514,
          "durationTicks": 24,
          "midi": 53,
          "name": "F3",
          "ticks": 44952,
          "time": 275.44103875,
          "velocity": 0.7874015748031497
        },
        {
          "duration": 0.14705874999998514,
          "durationTicks": 24,
          "midi": 48,
          "name": "C3",
          "ticks": 44952,
          "time": 275.44103875,
          "velocity": 0.7874015748031497
        },
        {
          "duration": 0.14705875000004198,
          "durationTicks": 24,
          "midi": 53,
          "name": "F3",
          "ticks": 44976,
          "time": 275.5880975,
          "velocity": 0.7874015748031497
        },
        {
          "duration": 0.14705875000004198,
          "durationTicks": 24,
          "midi": 48,
          "name": "C3",
          "ticks": 44976,
          "time": 275.5880975,
          "velocity": 0.7874015748031497
        },
        {
          "duration": 0.14705874999998514,
          "durationTicks": 24,
          "midi": 53,
          "name": "F3",
          "ticks": 45000,
          "time": 275.73515625000005,
          "velocity": 0.7874015748031497
        },
        {
          "duration": 0.14705874999998514,
          "durationTicks": 24,
          "midi": 48,
          "name": "C3",
          "ticks": 45000,
          "time": 275.73515625000005,
          "velocity": 0.7874015748031497
        },
        {
          "duration": 0.14705874999998514,
          "durationTicks": 24,
          "midi": 48,
          "name": "C3",
          "ticks": 45024,
          "time": 275.88221500000003,
          "velocity": 0.7874015748031497
        },
        {
          "duration": 0.14705874999998514,
          "durationTicks": 24,
          "midi": 53,
          "name": "F3",
          "ticks": 45024,
          "time": 275.88221500000003,
          "velocity": 0.7874015748031497
        },
        {
          "duration": 0.07352937500002099,
          "durationTicks": 12,
          "midi": 48,
          "name": "C3",
          "ticks": 45048,
          "time": 276.02927375,
          "velocity": 0.7874015748031497
        },
        {
          "duration": 0.07352937500002099,
          "durationTicks": 12,
          "midi": 53,
          "name": "F3",
          "ticks": 45048,
          "time": 276.02927375,
          "velocity": 0.7874015748031497
        },
        {
          "duration": 0.07352937500002099,
          "durationTicks": 12,
          "midi": 48,
          "name": "C3",
          "ticks": 45060,
          "time": 276.10280312500004,
          "velocity": 0.7874015748031497
        },
        {
          "duration": 0.07352937500002099,
          "durationTicks": 12,
          "midi": 53,
          "name": "F3",
          "ticks": 45060,
          "time": 276.10280312500004,
          "velocity": 0.7874015748031497
        },
        {
          "duration": 0.14705874999998514,
          "durationTicks": 24,
          "midi": 53,
          "name": "F3",
          "ticks": 45072,
          "time": 276.17633250000006,
          "velocity": 0.7874015748031497
        },
        {
          "duration": 0.14705874999998514,
          "durationTicks": 24,
          "midi": 48,
          "name": "C3",
          "ticks": 45072,
          "time": 276.17633250000006,
          "velocity": 0.7874015748031497
        },
        {
          "duration": 0.07352937499996415,
          "durationTicks": 12,
          "midi": 48,
          "name": "C3",
          "ticks": 45096,
          "time": 276.32339125000004,
          "velocity": 0.7874015748031497
        },
        {
          "duration": 0.07352937499996415,
          "durationTicks": 12,
          "midi": 53,
          "name": "F3",
          "ticks": 45096,
          "time": 276.32339125000004,
          "velocity": 0.7874015748031497
        },
        {
          "duration": 0.07352937500002099,
          "durationTicks": 12,
          "midi": 48,
          "name": "C3",
          "ticks": 45108,
          "time": 276.396920625,
          "velocity": 0.7874015748031497
        },
        {
          "duration": 0.07352937500002099,
          "durationTicks": 12,
          "midi": 53,
          "name": "F3",
          "ticks": 45108,
          "time": 276.396920625,
          "velocity": 0.7874015748031497
        },
        {
          "duration": 0.14705874999998514,
          "durationTicks": 24,
          "midi": 53,
          "name": "F3",
          "ticks": 45120,
          "time": 276.47045,
          "velocity": 0.7874015748031497
        },
        {
          "duration": 0.14705874999998514,
          "durationTicks": 24,
          "midi": 48,
          "name": "C3",
          "ticks": 45120,
          "time": 276.47045,
          "velocity": 0.7874015748031497
        },
        {
          "duration": 0.14705875000004198,
          "durationTicks": 24,
          "midi": 48,
          "name": "C3",
          "ticks": 45144,
          "time": 276.61750875,
          "velocity": 0.7874015748031497
        },
        {
          "duration": 0.14705875000004198,
          "durationTicks": 24,
          "midi": 53,
          "name": "F3",
          "ticks": 45144,
          "time": 276.61750875,
          "velocity": 0.7874015748031497
        },
        {
          "duration": 0.14705874999998514,
          "durationTicks": 24,
          "midi": 48,
          "name": "C3",
          "ticks": 45168,
          "time": 276.76456750000006,
          "velocity": 0.7874015748031497
        },
        {
          "duration": 0.14705874999998514,
          "durationTicks": 24,
          "midi": 53,
          "name": "F3",
          "ticks": 45168,
          "time": 276.76456750000006,
          "velocity": 0.7874015748031497
        },
        {
          "duration": 0.14705874999998514,
          "durationTicks": 24,
          "midi": 48,
          "name": "C3",
          "ticks": 45192,
          "time": 276.91162625000004,
          "velocity": 0.7874015748031497
        },
        {
          "duration": 0.14705874999998514,
          "durationTicks": 24,
          "midi": 53,
          "name": "F3",
          "ticks": 45192,
          "time": 276.91162625000004,
          "velocity": 0.7874015748031497
        },
        {
          "duration": 0.14705874999998514,
          "durationTicks": 24,
          "midi": 48,
          "name": "C3",
          "ticks": 45216,
          "time": 277.058685,
          "velocity": 0.7874015748031497
        },
        {
          "duration": 0.14705874999998514,
          "durationTicks": 24,
          "midi": 53,
          "name": "F3",
          "ticks": 45216,
          "time": 277.058685,
          "velocity": 0.7874015748031497
        },
        {
          "duration": 0.07352937500002099,
          "durationTicks": 12,
          "midi": 53,
          "name": "F3",
          "ticks": 45240,
          "time": 277.20574375,
          "velocity": 0.7874015748031497
        },
        {
          "duration": 0.07352937500002099,
          "durationTicks": 12,
          "midi": 48,
          "name": "C3",
          "ticks": 45240,
          "time": 277.20574375,
          "velocity": 0.7874015748031497
        },
        {
          "duration": 0.07352937500002099,
          "durationTicks": 12,
          "midi": 53,
          "name": "F3",
          "ticks": 45252,
          "time": 277.27927312500003,
          "velocity": 0.7874015748031497
        },
        {
          "duration": 0.07352937500002099,
          "durationTicks": 12,
          "midi": 48,
          "name": "C3",
          "ticks": 45252,
          "time": 277.27927312500003,
          "velocity": 0.7874015748031497
        },
        {
          "duration": 0.14705874999998514,
          "durationTicks": 24,
          "midi": 53,
          "name": "F3",
          "ticks": 45264,
          "time": 277.35280250000005,
          "velocity": 0.7874015748031497
        },
        {
          "duration": 0.14705874999998514,
          "durationTicks": 24,
          "midi": 48,
          "name": "C3",
          "ticks": 45264,
          "time": 277.35280250000005,
          "velocity": 0.7874015748031497
        },
        {
          "duration": 0.07352937499996415,
          "durationTicks": 12,
          "midi": 53,
          "name": "F3",
          "ticks": 45288,
          "time": 277.49986125000004,
          "velocity": 0.7874015748031497
        },
        {
          "duration": 0.07352937499996415,
          "durationTicks": 12,
          "midi": 48,
          "name": "C3",
          "ticks": 45288,
          "time": 277.49986125000004,
          "velocity": 0.7874015748031497
        },
        {
          "duration": 0.07352937500002099,
          "durationTicks": 12,
          "midi": 53,
          "name": "F3",
          "ticks": 45300,
          "time": 277.573390625,
          "velocity": 0.7874015748031497
        },
        {
          "duration": 0.07352937500002099,
          "durationTicks": 12,
          "midi": 48,
          "name": "C3",
          "ticks": 45300,
          "time": 277.573390625,
          "velocity": 0.7874015748031497
        },
        {
          "duration": 0.14705874999998514,
          "durationTicks": 24,
          "midi": 48,
          "name": "C3",
          "ticks": 45312,
          "time": 277.64692,
          "velocity": 0.7874015748031497
        },
        {
          "duration": 0.14705874999998514,
          "durationTicks": 24,
          "midi": 53,
          "name": "F3",
          "ticks": 45312,
          "time": 277.64692,
          "velocity": 0.7874015748031497
        },
        {
          "duration": 0.14705875000004198,
          "durationTicks": 24,
          "midi": 53,
          "name": "F3",
          "ticks": 45336,
          "time": 277.79397875,
          "velocity": 0.7874015748031497
        },
        {
          "duration": 0.14705875000004198,
          "durationTicks": 24,
          "midi": 48,
          "name": "C3",
          "ticks": 45336,
          "time": 277.79397875,
          "velocity": 0.7874015748031497
        },
        {
          "duration": 0.14705874999998514,
          "durationTicks": 24,
          "midi": 48,
          "name": "C3",
          "ticks": 45360,
          "time": 277.94103750000005,
          "velocity": 0.7874015748031497
        },
        {
          "duration": 0.14705874999998514,
          "durationTicks": 24,
          "midi": 53,
          "name": "F3",
          "ticks": 45360,
          "time": 277.94103750000005,
          "velocity": 0.7874015748031497
        },
        {
          "duration": 0.14705874999998514,
          "durationTicks": 24,
          "midi": 48,
          "name": "C3",
          "ticks": 45384,
          "time": 278.08809625000004,
          "velocity": 0.7874015748031497
        },
        {
          "duration": 0.14705874999998514,
          "durationTicks": 24,
          "midi": 53,
          "name": "F3",
          "ticks": 45384,
          "time": 278.08809625000004,
          "velocity": 0.7874015748031497
        },
        {
          "duration": 0.14705874999998514,
          "durationTicks": 24,
          "midi": 47,
          "name": "B2",
          "ticks": 45408,
          "time": 278.235155,
          "velocity": 0.7874015748031497
        },
        {
          "duration": 0.14705874999998514,
          "durationTicks": 24,
          "midi": 52,
          "name": "E3",
          "ticks": 45408,
          "time": 278.235155,
          "velocity": 0.7874015748031497
        },
        {
          "duration": 0.14705875000004198,
          "durationTicks": 24,
          "midi": 47,
          "name": "B2",
          "ticks": 45432,
          "time": 278.38221375,
          "velocity": 0.7874015748031497
        },
        {
          "duration": 0.14705875000004198,
          "durationTicks": 24,
          "midi": 52,
          "name": "E3",
          "ticks": 45432,
          "time": 278.38221375,
          "velocity": 0.7874015748031497
        },
        {
          "duration": 0.14705874999998514,
          "durationTicks": 24,
          "midi": 47,
          "name": "B2",
          "ticks": 45456,
          "time": 278.52927250000005,
          "velocity": 0.7874015748031497
        },
        {
          "duration": 0.14705874999998514,
          "durationTicks": 24,
          "midi": 52,
          "name": "E3",
          "ticks": 45456,
          "time": 278.52927250000005,
          "velocity": 0.7874015748031497
        },
        {
          "duration": 0.14705874999998514,
          "durationTicks": 24,
          "midi": 47,
          "name": "B2",
          "ticks": 45480,
          "time": 278.67633125000003,
          "velocity": 0.7874015748031497
        },
        {
          "duration": 0.14705874999998514,
          "durationTicks": 24,
          "midi": 52,
          "name": "E3",
          "ticks": 45480,
          "time": 278.67633125000003,
          "velocity": 0.7874015748031497
        },
        {
          "duration": 0.14705874999998514,
          "durationTicks": 24,
          "midi": 47,
          "name": "B2",
          "ticks": 45504,
          "time": 278.82339,
          "velocity": 0.7874015748031497
        },
        {
          "duration": 0.14705874999998514,
          "durationTicks": 24,
          "midi": 52,
          "name": "E3",
          "ticks": 45504,
          "time": 278.82339,
          "velocity": 0.7874015748031497
        },
        {
          "duration": 0.14705875000004198,
          "durationTicks": 24,
          "midi": 52,
          "name": "E3",
          "ticks": 45528,
          "time": 278.97044875,
          "velocity": 0.7874015748031497
        },
        {
          "duration": 0.14705875000004198,
          "durationTicks": 24,
          "midi": 47,
          "name": "B2",
          "ticks": 45528,
          "time": 278.97044875,
          "velocity": 0.7874015748031497
        },
        {
          "duration": 0.14705874999998514,
          "durationTicks": 24,
          "midi": 52,
          "name": "E3",
          "ticks": 45552,
          "time": 279.11750750000004,
          "velocity": 0.7874015748031497
        },
        {
          "duration": 0.14705874999998514,
          "durationTicks": 24,
          "midi": 47,
          "name": "B2",
          "ticks": 45552,
          "time": 279.11750750000004,
          "velocity": 0.7874015748031497
        },
        {
          "duration": 0.14705874999998514,
          "durationTicks": 24,
          "midi": 52,
          "name": "E3",
          "ticks": 45576,
          "time": 279.26456625000003,
          "velocity": 0.7874015748031497
        },
        {
          "duration": 0.14705874999998514,
          "durationTicks": 24,
          "midi": 47,
          "name": "B2",
          "ticks": 45576,
          "time": 279.26456625000003,
          "velocity": 0.7874015748031497
        },
        {
          "duration": 0.14705875000004198,
          "durationTicks": 24,
          "midi": 47,
          "name": "B2",
          "ticks": 45600,
          "time": 279.411625,
          "velocity": 0.7874015748031497
        },
        {
          "duration": 0.14705875000004198,
          "durationTicks": 24,
          "midi": 52,
          "name": "E3",
          "ticks": 45600,
          "time": 279.411625,
          "velocity": 0.7874015748031497
        },
        {
          "duration": 0.14705874999998514,
          "durationTicks": 24,
          "midi": 52,
          "name": "E3",
          "ticks": 45624,
          "time": 279.55868375000006,
          "velocity": 0.7874015748031497
        },
        {
          "duration": 0.14705874999998514,
          "durationTicks": 24,
          "midi": 47,
          "name": "B2",
          "ticks": 45624,
          "time": 279.55868375000006,
          "velocity": 0.7874015748031497
        },
        {
          "duration": 0.14705874999998514,
          "durationTicks": 24,
          "midi": 52,
          "name": "E3",
          "ticks": 45648,
          "time": 279.70574250000004,
          "velocity": 0.7874015748031497
        },
        {
          "duration": 0.14705874999998514,
          "durationTicks": 24,
          "midi": 47,
          "name": "B2",
          "ticks": 45648,
          "time": 279.70574250000004,
          "velocity": 0.7874015748031497
        },
        {
          "duration": 0.14705874999998514,
          "durationTicks": 24,
          "midi": 52,
          "name": "E3",
          "ticks": 45672,
          "time": 279.85280125,
          "velocity": 0.7874015748031497
        },
        {
          "duration": 0.14705874999998514,
          "durationTicks": 24,
          "midi": 47,
          "name": "B2",
          "ticks": 45672,
          "time": 279.85280125,
          "velocity": 0.7874015748031497
        },
        {
          "duration": 0.14705875000004198,
          "durationTicks": 24,
          "midi": 52,
          "name": "E3",
          "ticks": 45792,
          "time": 280.588095,
          "velocity": 0.7874015748031497
        },
        {
          "duration": 0.14705875000004198,
          "durationTicks": 24,
          "midi": 47,
          "name": "B2",
          "ticks": 45792,
          "time": 280.588095,
          "velocity": 0.7874015748031497
        },
        {
          "duration": 0.14705874999998514,
          "durationTicks": 24,
          "midi": 47,
          "name": "B2",
          "ticks": 45816,
          "time": 280.73515375000005,
          "velocity": 0.7874015748031497
        },
        {
          "duration": 0.14705874999998514,
          "durationTicks": 24,
          "midi": 52,
          "name": "E3",
          "ticks": 45816,
          "time": 280.73515375000005,
          "velocity": 0.7874015748031497
        },
        {
          "duration": 0.14705874999998514,
          "durationTicks": 24,
          "midi": 52,
          "name": "E3",
          "ticks": 45840,
          "time": 280.88221250000004,
          "velocity": 0.7874015748031497
        },
        {
          "duration": 0.14705874999998514,
          "durationTicks": 24,
          "midi": 47,
          "name": "B2",
          "ticks": 45840,
          "time": 280.88221250000004,
          "velocity": 0.7874015748031497
        },
        {
          "duration": 0.14705874999998514,
          "durationTicks": 24,
          "midi": 52,
          "name": "E3",
          "ticks": 45864,
          "time": 281.02927125,
          "velocity": 0.7874015748031497
        },
        {
          "duration": 0.14705874999998514,
          "durationTicks": 24,
          "midi": 47,
          "name": "B2",
          "ticks": 45864,
          "time": 281.02927125,
          "velocity": 0.7874015748031497
        },
        {
          "duration": 0.14705875000004198,
          "durationTicks": 24,
          "midi": 47,
          "name": "B2",
          "ticks": 45888,
          "time": 281.17633,
          "velocity": 0.7874015748031497
        },
        {
          "duration": 0.14705875000004198,
          "durationTicks": 24,
          "midi": 52,
          "name": "E3",
          "ticks": 45888,
          "time": 281.17633,
          "velocity": 0.7874015748031497
        },
        {
          "duration": 0.14705874999998514,
          "durationTicks": 24,
          "midi": 47,
          "name": "B2",
          "ticks": 45912,
          "time": 281.32338875000005,
          "velocity": 0.7874015748031497
        },
        {
          "duration": 0.14705874999998514,
          "durationTicks": 24,
          "midi": 52,
          "name": "E3",
          "ticks": 45912,
          "time": 281.32338875000005,
          "velocity": 0.7874015748031497
        },
        {
          "duration": 0.14705874999998514,
          "durationTicks": 24,
          "midi": 47,
          "name": "B2",
          "ticks": 45936,
          "time": 281.47044750000003,
          "velocity": 0.7874015748031497
        },
        {
          "duration": 0.14705874999998514,
          "durationTicks": 24,
          "midi": 52,
          "name": "E3",
          "ticks": 45936,
          "time": 281.47044750000003,
          "velocity": 0.7874015748031497
        },
        {
          "duration": 0.14705874999998514,
          "durationTicks": 24,
          "midi": 47,
          "name": "B2",
          "ticks": 45960,
          "time": 281.61750625,
          "velocity": 0.7874015748031497
        },
        {
          "duration": 0.14705874999998514,
          "durationTicks": 24,
          "midi": 52,
          "name": "E3",
          "ticks": 45960,
          "time": 281.61750625,
          "velocity": 0.7874015748031497
        },
        {
          "duration": 0.14705875000004198,
          "durationTicks": 24,
          "midi": 52,
          "name": "E3",
          "ticks": 45984,
          "time": 281.764565,
          "velocity": 0.7874015748031497
        },
        {
          "duration": 0.14705875000004198,
          "durationTicks": 24,
          "midi": 47,
          "name": "B2",
          "ticks": 45984,
          "time": 281.764565,
          "velocity": 0.7874015748031497
        },
        {
          "duration": 0.14705874999998514,
          "durationTicks": 24,
          "midi": 52,
          "name": "E3",
          "ticks": 46008,
          "time": 281.91162375000005,
          "velocity": 0.7874015748031497
        },
        {
          "duration": 0.14705874999998514,
          "durationTicks": 24,
          "midi": 47,
          "name": "B2",
          "ticks": 46008,
          "time": 281.91162375000005,
          "velocity": 0.7874015748031497
        },
        {
          "duration": 0.14705874999998514,
          "durationTicks": 24,
          "midi": 47,
          "name": "B2",
          "ticks": 46032,
          "time": 282.05868250000003,
          "velocity": 0.7874015748031497
        },
        {
          "duration": 0.14705874999998514,
          "durationTicks": 24,
          "midi": 52,
          "name": "E3",
          "ticks": 46032,
          "time": 282.05868250000003,
          "velocity": 0.7874015748031497
        },
        {
          "duration": 0.14705874999998514,
          "durationTicks": 24,
          "midi": 52,
          "name": "E3",
          "ticks": 46056,
          "time": 282.20574125,
          "velocity": 0.7874015748031497
        },
        {
          "duration": 0.14705874999998514,
          "durationTicks": 24,
          "midi": 47,
          "name": "B2",
          "ticks": 46056,
          "time": 282.20574125,
          "velocity": 0.7874015748031497
        },
        {
          "duration": 0.14705874999998514,
          "durationTicks": 24,
          "midi": 42,
          "name": "F#2",
          "ticks": 46176,
          "time": 282.94103500000006,
          "velocity": 0.7874015748031497
        },
        {
          "duration": 0.14705874999998514,
          "durationTicks": 24,
          "midi": 47,
          "name": "B2",
          "ticks": 46176,
          "time": 282.94103500000006,
          "velocity": 0.7874015748031497
        },
        {
          "duration": 0.14705874999998514,
          "durationTicks": 24,
          "midi": 47,
          "name": "B2",
          "ticks": 46200,
          "time": 283.08809375000004,
          "velocity": 0.7874015748031497
        },
        {
          "duration": 0.14705874999998514,
          "durationTicks": 24,
          "midi": 42,
          "name": "F#2",
          "ticks": 46200,
          "time": 283.08809375000004,
          "velocity": 0.7874015748031497
        },
        {
          "duration": 0.14705874999998514,
          "durationTicks": 24,
          "midi": 47,
          "name": "B2",
          "ticks": 46224,
          "time": 283.2351525,
          "velocity": 0.7874015748031497
        },
        {
          "duration": 0.14705874999998514,
          "durationTicks": 24,
          "midi": 42,
          "name": "F#2",
          "ticks": 46224,
          "time": 283.2351525,
          "velocity": 0.7874015748031497
        },
        {
          "duration": 0.14705875000004198,
          "durationTicks": 24,
          "midi": 42,
          "name": "F#2",
          "ticks": 46248,
          "time": 283.38221125,
          "velocity": 0.7874015748031497
        },
        {
          "duration": 0.14705875000004198,
          "durationTicks": 24,
          "midi": 47,
          "name": "B2",
          "ticks": 46248,
          "time": 283.38221125,
          "velocity": 0.7874015748031497
        },
        {
          "duration": 0.14705874999998514,
          "durationTicks": 24,
          "midi": 47,
          "name": "B2",
          "ticks": 46272,
          "time": 283.52927000000005,
          "velocity": 0.7874015748031497
        },
        {
          "duration": 0.14705874999998514,
          "durationTicks": 24,
          "midi": 42,
          "name": "F#2",
          "ticks": 46272,
          "time": 283.52927000000005,
          "velocity": 0.7874015748031497
        },
        {
          "duration": 0.14705874999998514,
          "durationTicks": 24,
          "midi": 42,
          "name": "F#2",
          "ticks": 46296,
          "time": 283.67632875000004,
          "velocity": 0.7874015748031497
        },
        {
          "duration": 0.14705874999998514,
          "durationTicks": 24,
          "midi": 47,
          "name": "B2",
          "ticks": 46296,
          "time": 283.67632875000004,
          "velocity": 0.7874015748031497
        },
        {
          "duration": 0.14705874999998514,
          "durationTicks": 24,
          "midi": 42,
          "name": "F#2",
          "ticks": 46320,
          "time": 283.8233875,
          "velocity": 0.7874015748031497
        },
        {
          "duration": 0.14705874999998514,
          "durationTicks": 24,
          "midi": 47,
          "name": "B2",
          "ticks": 46320,
          "time": 283.8233875,
          "velocity": 0.7874015748031497
        },
        {
          "duration": 0.14705875000004198,
          "durationTicks": 24,
          "midi": 42,
          "name": "F#2",
          "ticks": 46344,
          "time": 283.97044625,
          "velocity": 0.7874015748031497
        },
        {
          "duration": 0.14705875000004198,
          "durationTicks": 24,
          "midi": 47,
          "name": "B2",
          "ticks": 46344,
          "time": 283.97044625,
          "velocity": 0.7874015748031497
        },
        {
          "duration": 0.14705874999998514,
          "durationTicks": 24,
          "midi": 47,
          "name": "B2",
          "ticks": 46368,
          "time": 284.11750500000005,
          "velocity": 0.7874015748031497
        },
        {
          "duration": 0.14705874999998514,
          "durationTicks": 24,
          "midi": 42,
          "name": "F#2",
          "ticks": 46368,
          "time": 284.11750500000005,
          "velocity": 0.7874015748031497
        },
        {
          "duration": 0.14705874999998514,
          "durationTicks": 24,
          "midi": 42,
          "name": "F#2",
          "ticks": 46392,
          "time": 284.26456375000004,
          "velocity": 0.7874015748031497
        },
        {
          "duration": 0.14705874999998514,
          "durationTicks": 24,
          "midi": 47,
          "name": "B2",
          "ticks": 46392,
          "time": 284.26456375000004,
          "velocity": 0.7874015748031497
        },
        {
          "duration": 0.14705874999998514,
          "durationTicks": 24,
          "midi": 42,
          "name": "F#2",
          "ticks": 46416,
          "time": 284.4116225,
          "velocity": 0.7874015748031497
        },
        {
          "duration": 0.14705874999998514,
          "durationTicks": 24,
          "midi": 47,
          "name": "B2",
          "ticks": 46416,
          "time": 284.4116225,
          "velocity": 0.7874015748031497
        },
        {
          "duration": 0.14705875000004198,
          "durationTicks": 24,
          "midi": 47,
          "name": "B2",
          "ticks": 46440,
          "time": 284.55868125,
          "velocity": 0.7874015748031497
        },
        {
          "duration": 0.14705875000004198,
          "durationTicks": 24,
          "midi": 42,
          "name": "F#2",
          "ticks": 46440,
          "time": 284.55868125,
          "velocity": 0.7874015748031497
        },
        {
          "duration": 0.14705874999998514,
          "durationTicks": 24,
          "midi": 50,
          "name": "D3",
          "ticks": 46464,
          "time": 284.70574000000005,
          "velocity": 0.7874015748031497
        },
        {
          "duration": 0.14705874999998514,
          "durationTicks": 24,
          "midi": 45,
          "name": "A2",
          "ticks": 46464,
          "time": 284.70574000000005,
          "velocity": 0.7874015748031497
        },
        {
          "duration": 0.14705874999998514,
          "durationTicks": 24,
          "midi": 50,
          "name": "D3",
          "ticks": 46488,
          "time": 284.85279875000003,
          "velocity": 0.7874015748031497
        },
        {
          "duration": 0.14705874999998514,
          "durationTicks": 24,
          "midi": 45,
          "name": "A2",
          "ticks": 46488,
          "time": 284.85279875000003,
          "velocity": 0.7874015748031497
        },
        {
          "duration": 0.14705874999998514,
          "durationTicks": 24,
          "midi": 49,
          "name": "C#3",
          "ticks": 46512,
          "time": 284.9998575,
          "velocity": 0.7874015748031497
        },
        {
          "duration": 0.14705874999998514,
          "durationTicks": 24,
          "midi": 44,
          "name": "G#2",
          "ticks": 46512,
          "time": 284.9998575,
          "velocity": 0.7874015748031497
        },
        {
          "duration": 0.14705875000004198,
          "durationTicks": 24,
          "midi": 44,
          "name": "G#2",
          "ticks": 46536,
          "time": 285.14691625,
          "velocity": 0.7874015748031497
        },
        {
          "duration": 0.14705875000004198,
          "durationTicks": 24,
          "midi": 49,
          "name": "C#3",
          "ticks": 46536,
          "time": 285.14691625,
          "velocity": 0.7874015748031497
        },
        {
          "duration": 0.14705874999998514,
          "durationTicks": 24,
          "midi": 47,
          "name": "B2",
          "ticks": 46560,
          "time": 285.29397500000005,
          "velocity": 0.7874015748031497
        },
        {
          "duration": 0.14705874999998514,
          "durationTicks": 24,
          "midi": 42,
          "name": "F#2",
          "ticks": 46560,
          "time": 285.29397500000005,
          "velocity": 0.7874015748031497
        },
        {
          "duration": 0.14705874999998514,
          "durationTicks": 24,
          "midi": 42,
          "name": "F#2",
          "ticks": 46584,
          "time": 285.44103375000003,
          "velocity": 0.7874015748031497
        },
        {
          "duration": 0.14705874999998514,
          "durationTicks": 24,
          "midi": 47,
          "name": "B2",
          "ticks": 46584,
          "time": 285.44103375000003,
          "velocity": 0.7874015748031497
        },
        {
          "duration": 0.14705875000004198,
          "durationTicks": 24,
          "midi": 47,
          "name": "B2",
          "ticks": 46608,
          "time": 285.5880925,
          "velocity": 0.7874015748031497
        },
        {
          "duration": 0.14705875000004198,
          "durationTicks": 24,
          "midi": 42,
          "name": "F#2",
          "ticks": 46608,
          "time": 285.5880925,
          "velocity": 0.7874015748031497
        },
        {
          "duration": 0.14705874999998514,
          "durationTicks": 24,
          "midi": 44,
          "name": "G#2",
          "ticks": 46632,
          "time": 285.73515125000006,
          "velocity": 0.7874015748031497
        },
        {
          "duration": 0.14705874999998514,
          "durationTicks": 24,
          "midi": 49,
          "name": "C#3",
          "ticks": 46632,
          "time": 285.73515125000006,
          "velocity": 0.7874015748031497
        },
        {
          "duration": 0.14705874999998514,
          "durationTicks": 24,
          "midi": 44,
          "name": "G#2",
          "ticks": 46656,
          "time": 285.88221000000004,
          "velocity": 0.7874015748031497
        },
        {
          "duration": 0.14705874999998514,
          "durationTicks": 24,
          "midi": 49,
          "name": "C#3",
          "ticks": 46656,
          "time": 285.88221000000004,
          "velocity": 0.7874015748031497
        },
        {
          "duration": 0.14705874999998514,
          "durationTicks": 24,
          "midi": 49,
          "name": "C#3",
          "ticks": 46680,
          "time": 286.02926875,
          "velocity": 0.7874015748031497
        },
        {
          "duration": 0.14705874999998514,
          "durationTicks": 24,
          "midi": 44,
          "name": "G#2",
          "ticks": 46680,
          "time": 286.02926875,
          "velocity": 0.7874015748031497
        },
        {
          "duration": 0.14705875000004198,
          "durationTicks": 24,
          "midi": 50,
          "name": "D3",
          "ticks": 46704,
          "time": 286.1763275,
          "velocity": 0.7874015748031497
        },
        {
          "duration": 0.14705875000004198,
          "durationTicks": 24,
          "midi": 45,
          "name": "A2",
          "ticks": 46704,
          "time": 286.1763275,
          "velocity": 0.7874015748031497
        },
        {
          "duration": 0.14705874999998514,
          "durationTicks": 24,
          "midi": 45,
          "name": "A2",
          "ticks": 46728,
          "time": 286.32338625000006,
          "velocity": 0.7874015748031497
        },
        {
          "duration": 0.14705874999998514,
          "durationTicks": 24,
          "midi": 50,
          "name": "D3",
          "ticks": 46728,
          "time": 286.32338625000006,
          "velocity": 0.7874015748031497
        },
        {
          "duration": 0.14705874999998514,
          "durationTicks": 24,
          "midi": 50,
          "name": "D3",
          "ticks": 46752,
          "time": 286.47044500000004,
          "velocity": 0.7874015748031497
        },
        {
          "duration": 0.14705874999998514,
          "durationTicks": 24,
          "midi": 45,
          "name": "A2",
          "ticks": 46752,
          "time": 286.47044500000004,
          "velocity": 0.7874015748031497
        },
        {
          "duration": 0.14705874999998514,
          "durationTicks": 24,
          "midi": 52,
          "name": "E3",
          "ticks": 46776,
          "time": 286.61750375,
          "velocity": 0.7874015748031497
        },
        {
          "duration": 0.14705874999998514,
          "durationTicks": 24,
          "midi": 47,
          "name": "B2",
          "ticks": 46776,
          "time": 286.61750375,
          "velocity": 0.7874015748031497
        },
        {
          "duration": 0.14705875000004198,
          "durationTicks": 24,
          "midi": 52,
          "name": "E3",
          "ticks": 46800,
          "time": 286.7645625,
          "velocity": 0.7874015748031497
        },
        {
          "duration": 0.14705875000004198,
          "durationTicks": 24,
          "midi": 47,
          "name": "B2",
          "ticks": 46800,
          "time": 286.7645625,
          "velocity": 0.7874015748031497
        },
        {
          "duration": 0.14705874999998514,
          "durationTicks": 24,
          "midi": 52,
          "name": "E3",
          "ticks": 46824,
          "time": 286.91162125000005,
          "velocity": 0.7874015748031497
        },
        {
          "duration": 0.14705874999998514,
          "durationTicks": 24,
          "midi": 47,
          "name": "B2",
          "ticks": 46824,
          "time": 286.91162125000005,
          "velocity": 0.7874015748031497
        },
        {
          "duration": 0.14705874999998514,
          "durationTicks": 24,
          "midi": 50,
          "name": "D3",
          "ticks": 46848,
          "time": 287.05868000000004,
          "velocity": 0.7874015748031497
        },
        {
          "duration": 0.14705874999998514,
          "durationTicks": 24,
          "midi": 45,
          "name": "A2",
          "ticks": 46848,
          "time": 287.05868000000004,
          "velocity": 0.7874015748031497
        },
        {
          "duration": 0.14705874999998514,
          "durationTicks": 24,
          "midi": 50,
          "name": "D3",
          "ticks": 46872,
          "time": 287.20573875,
          "velocity": 0.7874015748031497
        },
        {
          "duration": 0.14705874999998514,
          "durationTicks": 24,
          "midi": 45,
          "name": "A2",
          "ticks": 46872,
          "time": 287.20573875,
          "velocity": 0.7874015748031497
        },
        {
          "duration": 0.14705875000004198,
          "durationTicks": 24,
          "midi": 44,
          "name": "G#2",
          "ticks": 46896,
          "time": 287.3527975,
          "velocity": 0.7874015748031497
        },
        {
          "duration": 0.14705875000004198,
          "durationTicks": 24,
          "midi": 49,
          "name": "C#3",
          "ticks": 46896,
          "time": 287.3527975,
          "velocity": 0.7874015748031497
        },
        {
          "duration": 0.14705874999998514,
          "durationTicks": 24,
          "midi": 49,
          "name": "C#3",
          "ticks": 46920,
          "time": 287.49985625000005,
          "velocity": 0.7874015748031497
        },
        {
          "duration": 0.14705874999998514,
          "durationTicks": 24,
          "midi": 44,
          "name": "G#2",
          "ticks": 46920,
          "time": 287.49985625000005,
          "velocity": 0.7874015748031497
        },
        {
          "duration": 0.14705874999998514,
          "durationTicks": 24,
          "midi": 47,
          "name": "B2",
          "ticks": 46944,
          "time": 287.64691500000004,
          "velocity": 0.7874015748031497
        },
        {
          "duration": 0.14705874999998514,
          "durationTicks": 24,
          "midi": 42,
          "name": "F#2",
          "ticks": 46944,
          "time": 287.64691500000004,
          "velocity": 0.7874015748031497
        },
        {
          "duration": 0.14705874999998514,
          "durationTicks": 24,
          "midi": 42,
          "name": "F#2",
          "ticks": 46968,
          "time": 287.79397375,
          "velocity": 0.7874015748031497
        },
        {
          "duration": 0.14705874999998514,
          "durationTicks": 24,
          "midi": 47,
          "name": "B2",
          "ticks": 46968,
          "time": 287.79397375,
          "velocity": 0.7874015748031497
        },
        {
          "duration": 0.14705875000004198,
          "durationTicks": 24,
          "midi": 42,
          "name": "F#2",
          "ticks": 46992,
          "time": 287.9410325,
          "velocity": 0.7874015748031497
        },
        {
          "duration": 0.14705875000004198,
          "durationTicks": 24,
          "midi": 47,
          "name": "B2",
          "ticks": 46992,
          "time": 287.9410325,
          "velocity": 0.7874015748031497
        },
        {
          "duration": 0.14705874999998514,
          "durationTicks": 24,
          "midi": 47,
          "name": "B2",
          "ticks": 47016,
          "time": 288.08809125000005,
          "velocity": 0.7874015748031497
        },
        {
          "duration": 0.14705874999998514,
          "durationTicks": 24,
          "midi": 42,
          "name": "F#2",
          "ticks": 47016,
          "time": 288.08809125000005,
          "velocity": 0.7874015748031497
        },
        {
          "duration": 0.14705874999998514,
          "durationTicks": 24,
          "midi": 47,
          "name": "B2",
          "ticks": 47040,
          "time": 288.23515000000003,
          "velocity": 0.7874015748031497
        },
        {
          "duration": 0.14705874999998514,
          "durationTicks": 24,
          "midi": 42,
          "name": "F#2",
          "ticks": 47040,
          "time": 288.23515000000003,
          "velocity": 0.7874015748031497
        },
        {
          "duration": 0.14705875000004198,
          "durationTicks": 24,
          "midi": 42,
          "name": "F#2",
          "ticks": 47088,
          "time": 288.5292675,
          "velocity": 0.7874015748031497
        },
        {
          "duration": 0.14705875000004198,
          "durationTicks": 24,
          "midi": 47,
          "name": "B2",
          "ticks": 47088,
          "time": 288.5292675,
          "velocity": 0.7874015748031497
        },
        {
          "duration": 0.14705874999998514,
          "durationTicks": 24,
          "midi": 42,
          "name": "F#2",
          "ticks": 47112,
          "time": 288.67632625000005,
          "velocity": 0.7874015748031497
        },
        {
          "duration": 0.14705874999998514,
          "durationTicks": 24,
          "midi": 47,
          "name": "B2",
          "ticks": 47112,
          "time": 288.67632625000005,
          "velocity": 0.7874015748031497
        },
        {
          "duration": 0.14705874999998514,
          "durationTicks": 24,
          "midi": 47,
          "name": "B2",
          "ticks": 47136,
          "time": 288.82338500000003,
          "velocity": 0.7874015748031497
        },
        {
          "duration": 0.14705874999998514,
          "durationTicks": 24,
          "midi": 42,
          "name": "F#2",
          "ticks": 47136,
          "time": 288.82338500000003,
          "velocity": 0.7874015748031497
        },
        {
          "duration": 0.14705875000004198,
          "durationTicks": 24,
          "midi": 42,
          "name": "F#2",
          "ticks": 47160,
          "time": 288.97044375,
          "velocity": 0.7874015748031497
        },
        {
          "duration": 0.14705875000004198,
          "durationTicks": 24,
          "midi": 47,
          "name": "B2",
          "ticks": 47160,
          "time": 288.97044375,
          "velocity": 0.7874015748031497
        },
        {
          "duration": 0.14705874999998514,
          "durationTicks": 24,
          "midi": 42,
          "name": "F#2",
          "ticks": 47184,
          "time": 289.11750250000006,
          "velocity": 0.7874015748031497
        },
        {
          "duration": 0.14705874999998514,
          "durationTicks": 24,
          "midi": 47,
          "name": "B2",
          "ticks": 47184,
          "time": 289.11750250000006,
          "velocity": 0.7874015748031497
        },
        {
          "duration": 0.14705874999998514,
          "durationTicks": 24,
          "midi": 47,
          "name": "B2",
          "ticks": 47328,
          "time": 289.999855,
          "velocity": 0.7874015748031497
        },
        {
          "duration": 0.14705874999998514,
          "durationTicks": 24,
          "midi": 42,
          "name": "F#2",
          "ticks": 47328,
          "time": 289.999855,
          "velocity": 0.7874015748031497
        },
        {
          "duration": 0.14705875000004198,
          "durationTicks": 24,
          "midi": 47,
          "name": "B2",
          "ticks": 47352,
          "time": 290.14691375,
          "velocity": 0.7874015748031497
        },
        {
          "duration": 0.14705875000004198,
          "durationTicks": 24,
          "midi": 42,
          "name": "F#2",
          "ticks": 47352,
          "time": 290.14691375,
          "velocity": 0.7874015748031497
        },
        {
          "duration": 0.14705874999998514,
          "durationTicks": 24,
          "midi": 42,
          "name": "F#2",
          "ticks": 47376,
          "time": 290.29397250000005,
          "velocity": 0.7874015748031497
        },
        {
          "duration": 0.14705874999998514,
          "durationTicks": 24,
          "midi": 47,
          "name": "B2",
          "ticks": 47376,
          "time": 290.29397250000005,
          "velocity": 0.7874015748031497
        },
        {
          "duration": 0.14705874999998514,
          "durationTicks": 24,
          "midi": 47,
          "name": "B2",
          "ticks": 47400,
          "time": 290.44103125000004,
          "velocity": 0.7874015748031497
        },
        {
          "duration": 0.14705874999998514,
          "durationTicks": 24,
          "midi": 42,
          "name": "F#2",
          "ticks": 47400,
          "time": 290.44103125000004,
          "velocity": 0.7874015748031497
        },
        {
          "duration": 0.14705874999998514,
          "durationTicks": 24,
          "midi": 42,
          "name": "F#2",
          "ticks": 47424,
          "time": 290.58809,
          "velocity": 0.7874015748031497
        },
        {
          "duration": 0.14705874999998514,
          "durationTicks": 24,
          "midi": 47,
          "name": "B2",
          "ticks": 47424,
          "time": 290.58809,
          "velocity": 0.7874015748031497
        },
        {
          "duration": 0.14705874999998514,
          "durationTicks": 24,
          "midi": 42,
          "name": "F#2",
          "ticks": 47472,
          "time": 290.88220750000005,
          "velocity": 0.7874015748031497
        },
        {
          "duration": 0.14705874999998514,
          "durationTicks": 24,
          "midi": 47,
          "name": "B2",
          "ticks": 47472,
          "time": 290.88220750000005,
          "velocity": 0.7874015748031497
        },
        {
          "duration": 0.14705874999998514,
          "durationTicks": 24,
          "midi": 42,
          "name": "F#2",
          "ticks": 47496,
          "time": 291.02926625000003,
          "velocity": 0.7874015748031497
        },
        {
          "duration": 0.14705874999998514,
          "durationTicks": 24,
          "midi": 47,
          "name": "B2",
          "ticks": 47496,
          "time": 291.02926625000003,
          "velocity": 0.7874015748031497
        },
        {
          "duration": 0.14705874999998514,
          "durationTicks": 24,
          "midi": 42,
          "name": "F#2",
          "ticks": 47520,
          "time": 291.176325,
          "velocity": 0.7874015748031497
        },
        {
          "duration": 0.14705874999998514,
          "durationTicks": 24,
          "midi": 47,
          "name": "B2",
          "ticks": 47520,
          "time": 291.176325,
          "velocity": 0.7874015748031497
        },
        {
          "duration": 0.14705875000004198,
          "durationTicks": 24,
          "midi": 42,
          "name": "F#2",
          "ticks": 47544,
          "time": 291.32338375,
          "velocity": 0.7874015748031497
        },
        {
          "duration": 0.14705875000004198,
          "durationTicks": 24,
          "midi": 47,
          "name": "B2",
          "ticks": 47544,
          "time": 291.32338375,
          "velocity": 0.7874015748031497
        },
        {
          "duration": 0.14705874999998514,
          "durationTicks": 24,
          "midi": 42,
          "name": "F#2",
          "ticks": 47568,
          "time": 291.47044250000005,
          "velocity": 0.7874015748031497
        },
        {
          "duration": 0.14705874999998514,
          "durationTicks": 24,
          "midi": 47,
          "name": "B2",
          "ticks": 47568,
          "time": 291.47044250000005,
          "velocity": 0.7874015748031497
        }
      ]
    },
    {
      "channel": 0,
      "controlChanges": {
        "6": [
          {
            "number": 6,
            "ticks": 0,
            "time": 0,
            "value": 0.09448818897637795
          }
        ],
        "7": [
          {
            "number": 7,
            "ticks": 0,
            "time": 0,
            "value": 0.6535433070866141
          },
          {
            "number": 7,
            "ticks": 0,
            "time": 0,
            "value": 0.6535433070866141
          }
        ],
        "10": [
          {
            "number": 10,
            "ticks": 0,
            "time": 0,
            "value": 0.5039370078740157
          },
          {
            "number": 10,
            "ticks": 0,
            "time": 0,
            "value": 0.5039370078740157
          }
        ],
        "100": [
          {
            "number": 100,
            "ticks": 0,
            "time": 0,
            "value": 0
          }
        ],
        "101": [
          {
            "number": 101,
            "ticks": 0,
            "time": 0,
            "value": 0
          }
        ]
      },
      "pitchBends": [
        {
          "ticks": 0,
          "time": 0,
          "value": 0
        },
        {
          "ticks": 0,
          "time": 0,
          "value": 0
        }
      ],
      "instrument": {
        "family": "piano",
        "number": 0,
        "name": "acoustic grand piano"
      },
      "name": "Finger Bass",
      "notes": [],
      "endOfTrackTicks": 48052
    },
    {
      "channel": 1,
      "controlChanges": {
        "6": [
          {
            "number": 6,
            "ticks": 0,
            "time": 0,
            "value": 0.09448818897637795
          },
          {
            "number": 6,
            "ticks": 0,
            "time": 0,
            "value": 0.09448818897637795
          },
          {
            "number": 6,
            "ticks": 48000,
            "time": 294.1175,
            "value": 0.09448818897637795
          },
          {
            "number": 6,
            "ticks": 48052,
            "time": 294.4361272916667,
            "value": 0.09448818897637795
          }
        ],
        "7": [
          {
            "number": 7,
            "ticks": 0,
            "time": 0,
            "value": 0.6535433070866141
          },
          {
            "number": 7,
            "ticks": 0,
            "time": 0,
            "value": 0.6535433070866141
          },
          {
            "number": 7,
            "ticks": 48000,
            "time": 294.1175,
            "value": 0.6535433070866141
          },
          {
            "number": 7,
            "ticks": 48052,
            "time": 294.4361272916667,
            "value": 0.6535433070866141
          }
        ],
        "10": [
          {
            "number": 10,
            "ticks": 0,
            "time": 0,
            "value": 0.5039370078740157
          },
          {
            "number": 10,
            "ticks": 0,
            "time": 0,
            "value": 0.5039370078740157
          },
          {
            "number": 10,
            "ticks": 0,
            "time": 0,
            "value": 0.5039370078740157
          },
          {
            "number": 10,
            "ticks": 0,
            "time": 0,
            "value": 0.5039370078740157
          },
          {
            "number": 10,
            "ticks": 25824,
            "time": 158.235215,
            "value": 0.5039370078740157
          },
          {
            "number": 10,
            "ticks": 48000,
            "time": 294.1175,
            "value": 0.5039370078740157
          },
          {
            "number": 10,
            "ticks": 48051,
            "time": 294.42999984375,
            "value": 0.5039370078740157
          },
          {
            "number": 10,
            "ticks": 48052,
            "time": 294.4361272916667,
            "value": 0.5039370078740157
          }
        ],
        "91": [
          {
            "number": 91,
            "ticks": 0,
            "time": 0,
            "value": 0
          },
          {
            "number": 91,
            "ticks": 0,
            "time": 0,
            "value": 0
          },
          {
            "number": 91,
            "ticks": 0,
            "time": 0,
            "value": 0
          },
          {
            "number": 91,
            "ticks": 0,
            "time": 0,
            "value": 0
          },
          {
            "number": 91,
            "ticks": 0,
            "time": 0,
            "value": 0
          },
          {
            "number": 91,
            "ticks": 25824,
            "time": 158.235215,
            "value": 0
          },
          {
            "number": 91,
            "ticks": 48000,
            "time": 294.1175,
            "value": 0
          },
          {
            "number": 91,
            "ticks": 48051,
            "time": 294.42999984375,
            "value": 0
          },
          {
            "number": 91,
            "ticks": 48052,
            "time": 294.4361272916667,
            "value": 0
          }
        ],
        "100": [
          {
            "number": 100,
            "ticks": 0,
            "time": 0,
            "value": 0
          },
          {
            "number": 100,
            "ticks": 0,
            "time": 0,
            "value": 0
          },
          {
            "number": 100,
            "ticks": 48000,
            "time": 294.1175,
            "value": 0
          },
          {
            "number": 100,
            "ticks": 48052,
            "time": 294.4361272916667,
            "value": 0
          }
        ],
        "101": [
          {
            "number": 101,
            "ticks": 0,
            "time": 0,
            "value": 0
          },
          {
            "number": 101,
            "ticks": 0,
            "time": 0,
            "value": 0
          },
          {
            "number": 101,
            "ticks": 48000,
            "time": 294.1175,
            "value": 0
          },
          {
            "number": 101,
            "ticks": 48052,
            "time": 294.4361272916667,
            "value": 0
          }
        ]
      },
      "pitchBends": [
        {
          "ticks": 0,
          "time": 0,
          "value": 0
        },
        {
          "ticks": 0,
          "time": 0,
          "value": 0
        },
        {
          "ticks": 0,
          "time": 0,
          "value": 0
        },
        {
          "ticks": 0,
          "time": 0,
          "value": 0
        },
        {
          "ticks": 25824,
          "time": 158.235215,
          "value": 0
        },
        {
          "ticks": 48000,
          "time": 294.1175,
          "value": 0
        },
        {
          "ticks": 48051,
          "time": 294.42999984375,
          "value": 0
        },
        {
          "ticks": 48052,
          "time": 294.4361272916667,
          "value": 0
        }
      ],
      "instrument": {
        "family": "bass",
        "number": 33,
        "name": "electric bass (finger)"
      },
      "name": "",
      "notes": [
        {
          "duration": 0.29411750000000003,
          "durationTicks": 48,
          "midi": 38,
          "name": "D2",
          "ticks": 0,
          "time": 0,
          "velocity": 0.7874015748031497
        },
        {
          "duration": 0.29411750000000003,
          "durationTicks": 48,
          "midi": 37,
          "name": "C#2",
          "ticks": 48,
          "time": 0.29411750000000003,
          "velocity": 0.7874015748031497
        },
        {
          "duration": 1.7647050000000002,
          "durationTicks": 288,
          "midi": 35,
          "name": "B1",
          "ticks": 96,
          "time": 0.5882350000000001,
          "velocity": 0.7874015748031497
        },
        {
          "duration": 0.29411750000000003,
          "durationTicks": 48,
          "midi": 38,
          "name": "D2",
          "ticks": 384,
          "time": 2.3529400000000003,
          "velocity": 0.7874015748031497
        },
        {
          "duration": 0.29411750000000003,
          "durationTicks": 48,
          "midi": 37,
          "name": "C#2",
          "ticks": 432,
          "time": 2.6470575000000003,
          "velocity": 0.7874015748031497
        },
        {
          "duration": 1.7647050000000002,
          "durationTicks": 288,
          "midi": 33,
          "name": "A1",
          "ticks": 480,
          "time": 2.9411750000000003,
          "velocity": 0.7874015748031497
        },
        {
          "duration": 0.2941175000000005,
          "durationTicks": 48,
          "midi": 38,
          "name": "D2",
          "ticks": 768,
          "time": 4.7058800000000005,
          "velocity": 0.7874015748031497
        },
        {
          "duration": 0.2941174999999996,
          "durationTicks": 48,
          "midi": 37,
          "name": "C#2",
          "ticks": 816,
          "time": 4.999997500000001,
          "velocity": 0.7874015748031497
        },
        {
          "duration": 1.7647050000000002,
          "durationTicks": 288,
          "midi": 31,
          "name": "G1",
          "ticks": 864,
          "time": 5.294115000000001,
          "velocity": 0.7874015748031497
        },
        {
          "duration": 0.2941175000000005,
          "durationTicks": 48,
          "midi": 35,
          "name": "B1",
          "ticks": 1152,
          "time": 7.058820000000001,
          "velocity": 0.7874015748031497
        },
        {
          "duration": 0.2941174999999996,
          "durationTicks": 48,
          "midi": 36,
          "name": "C2",
          "ticks": 1200,
          "time": 7.352937500000001,
          "velocity": 0.7874015748031497
        },
        {
          "duration": 1.1764699999999992,
          "durationTicks": 192,
          "midi": 40,
          "name": "E2",
          "ticks": 1248,
          "time": 7.647055000000001,
          "velocity": 0.7874015748031497
        },
        {
          "duration": 0.588235000000001,
          "durationTicks": 96,
          "midi": 37,
          "name": "C#2",
          "ticks": 1440,
          "time": 8.823525,
          "velocity": 0.7874015748031497
        },
        {
          "duration": 0.2941175000000005,
          "durationTicks": 48,
          "midi": 38,
          "name": "D2",
          "ticks": 1536,
          "time": 9.411760000000001,
          "velocity": 0.7874015748031497
        },
        {
          "duration": 0.2941175000000005,
          "durationTicks": 48,
          "midi": 37,
          "name": "C#2",
          "ticks": 1584,
          "time": 9.705877500000001,
          "velocity": 0.7874015748031497
        },
        {
          "duration": 1.7647049999999993,
          "durationTicks": 288,
          "midi": 35,
          "name": "B1",
          "ticks": 1632,
          "time": 9.999995000000002,
          "velocity": 0.7874015748031497
        },
        {
          "duration": 0.2941175000000005,
          "durationTicks": 48,
          "midi": 38,
          "name": "D2",
          "ticks": 1920,
          "time": 11.764700000000001,
          "velocity": 0.7874015748031497
        },
        {
          "duration": 0.2941175000000005,
          "durationTicks": 48,
          "midi": 37,
          "name": "C#2",
          "ticks": 1968,
          "time": 12.058817500000002,
          "velocity": 0.7874015748031497
        },
        {
          "duration": 1.7647049999999993,
          "durationTicks": 288,
          "midi": 33,
          "name": "A1",
          "ticks": 2016,
          "time": 12.352935000000002,
          "velocity": 0.7874015748031497
        },
        {
          "duration": 0.2941175000000005,
          "durationTicks": 48,
          "midi": 38,
          "name": "D2",
          "ticks": 2304,
          "time": 14.117640000000002,
          "velocity": 0.7874015748031497
        },
        {
          "duration": 0.2941175000000005,
          "durationTicks": 48,
          "midi": 37,
          "name": "C#2",
          "ticks": 2352,
          "time": 14.411757500000002,
          "velocity": 0.7874015748031497
        },
        {
          "duration": 1.7647049999999993,
          "durationTicks": 288,
          "midi": 31,
          "name": "G1",
          "ticks": 2400,
          "time": 14.705875000000002,
          "velocity": 0.7874015748031497
        },
        {
          "duration": 0.2941174999999987,
          "durationTicks": 48,
          "midi": 35,
          "name": "B1",
          "ticks": 2688,
          "time": 16.47058,
          "velocity": 0.7874015748031497
        },
        {
          "duration": 0.29411750000000225,
          "durationTicks": 48,
          "midi": 34,
          "name": "A#1",
          "ticks": 2736,
          "time": 16.7646975,
          "velocity": 0.7874015748031497
        },
        {
          "duration": 1.1764699999999984,
          "durationTicks": 192,
          "midi": 28,
          "name": "E1",
          "ticks": 2784,
          "time": 17.058815000000003,
          "velocity": 0.7874015748031497
        },
        {
          "duration": 1.176470000000002,
          "durationTicks": 192,
          "midi": 30,
          "name": "F#1",
          "ticks": 2976,
          "time": 18.235285,
          "velocity": 0.7874015748031497
        },
        {
          "duration": 0.2941174999999987,
          "durationTicks": 48,
          "midi": 35,
          "name": "B1",
          "ticks": 3168,
          "time": 19.411755000000003,
          "velocity": 0.7874015748031497
        },
        {
          "duration": 0.29411750000000225,
          "durationTicks": 48,
          "midi": 35,
          "name": "B1",
          "ticks": 3216,
          "time": 19.7058725,
          "velocity": 0.7874015748031497
        },
        {
          "duration": 0.2941174999999987,
          "durationTicks": 48,
          "midi": 35,
          "name": "B1",
          "ticks": 3264,
          "time": 19.999990000000004,
          "velocity": 0.7874015748031497
        },
        {
          "duration": 0.2941174999999987,
          "durationTicks": 48,
          "midi": 35,
          "name": "B1",
          "ticks": 3312,
          "time": 20.294107500000003,
          "velocity": 0.7874015748031497
        },
        {
          "duration": 0.29411750000000225,
          "durationTicks": 48,
          "midi": 35,
          "name": "B1",
          "ticks": 3360,
          "time": 20.588225,
          "velocity": 0.7874015748031497
        },
        {
          "duration": 0.2941174999999987,
          "durationTicks": 48,
          "midi": 35,
          "name": "B1",
          "ticks": 3408,
          "time": 20.882342500000004,
          "velocity": 0.7874015748031497
        },
        {
          "duration": 0.2941174999999987,
          "durationTicks": 48,
          "midi": 35,
          "name": "B1",
          "ticks": 3456,
          "time": 21.176460000000002,
          "velocity": 0.7874015748031497
        },
        {
          "duration": 0.29411750000000225,
          "durationTicks": 48,
          "midi": 35,
          "name": "B1",
          "ticks": 3504,
          "time": 21.4705775,
          "velocity": 0.7874015748031497
        },
        {
          "duration": 0.2941174999999987,
          "durationTicks": 48,
          "midi": 35,
          "name": "B1",
          "ticks": 3552,
          "time": 21.764695000000003,
          "velocity": 0.7874015748031497
        },
        {
          "duration": 0.2941174999999987,
          "durationTicks": 48,
          "midi": 35,
          "name": "B1",
          "ticks": 3600,
          "time": 22.058812500000002,
          "velocity": 0.7874015748031497
        },
        {
          "duration": 0.29411750000000225,
          "durationTicks": 48,
          "midi": 35,
          "name": "B1",
          "ticks": 3648,
          "time": 22.35293,
          "velocity": 0.7874015748031497
        },
        {
          "duration": 0.2941174999999987,
          "durationTicks": 48,
          "midi": 35,
          "name": "B1",
          "ticks": 3696,
          "time": 22.647047500000003,
          "velocity": 0.7874015748031497
        },
        {
          "duration": 0.29411750000000225,
          "durationTicks": 48,
          "midi": 35,
          "name": "B1",
          "ticks": 3744,
          "time": 22.941165,
          "velocity": 0.7874015748031497
        },
        {
          "duration": 0.2941174999999987,
          "durationTicks": 48,
          "midi": 35,
          "name": "B1",
          "ticks": 3792,
          "time": 23.235282500000004,
          "velocity": 0.7874015748031497
        },
        {
          "duration": 0.2941174999999987,
          "durationTicks": 48,
          "midi": 35,
          "name": "B1",
          "ticks": 3840,
          "time": 23.529400000000003,
          "velocity": 0.7874015748031497
        },
        {
          "duration": 0.29411750000000225,
          "durationTicks": 48,
          "midi": 35,
          "name": "B1",
          "ticks": 3888,
          "time": 23.8235175,
          "velocity": 0.7874015748031497
        },
        {
          "duration": 0.14705874999999935,
          "durationTicks": 24,
          "midi": 35,
          "name": "B1",
          "ticks": 3936,
          "time": 24.117635000000003,
          "velocity": 0.7874015748031497
        },
        {
          "duration": 0.14705874999999935,
          "durationTicks": 24,
          "midi": 35,
          "name": "B1",
          "ticks": 3960,
          "time": 24.264693750000003,
          "velocity": 0.7874015748031497
        },
        {
          "duration": 0.14705874999999935,
          "durationTicks": 24,
          "midi": 35,
          "name": "B1",
          "ticks": 3984,
          "time": 24.411752500000002,
          "velocity": 0.7874015748031497
        },
        {
          "duration": 0.1470587500000029,
          "durationTicks": 24,
          "midi": 35,
          "name": "B1",
          "ticks": 4008,
          "time": 24.55881125,
          "velocity": 0.7874015748031497
        },
        {
          "duration": 0.14705874999999935,
          "durationTicks": 24,
          "midi": 35,
          "name": "B1",
          "ticks": 4032,
          "time": 24.705870000000004,
          "velocity": 0.7874015748031497
        },
        {
          "duration": 0.14705874999999935,
          "durationTicks": 24,
          "midi": 35,
          "name": "B1",
          "ticks": 4056,
          "time": 24.852928750000004,
          "velocity": 0.7874015748031497
        },
        {
          "duration": 0.14705874999999935,
          "durationTicks": 24,
          "midi": 35,
          "name": "B1",
          "ticks": 4080,
          "time": 24.999987500000003,
          "velocity": 0.7874015748031497
        },
        {
          "duration": 0.14705874999999935,
          "durationTicks": 24,
          "midi": 35,
          "name": "B1",
          "ticks": 4104,
          "time": 25.147046250000002,
          "velocity": 0.7874015748031497
        },
        {
          "duration": 0.14705874999999935,
          "durationTicks": 24,
          "midi": 35,
          "name": "B1",
          "ticks": 4128,
          "time": 25.294105000000002,
          "velocity": 0.7874015748031497
        },
        {
          "duration": 0.1470587500000029,
          "durationTicks": 24,
          "midi": 35,
          "name": "B1",
          "ticks": 4152,
          "time": 25.44116375,
          "velocity": 0.7874015748031497
        },
        {
          "duration": 0.14705874999999935,
          "durationTicks": 24,
          "midi": 35,
          "name": "B1",
          "ticks": 4176,
          "time": 25.588222500000004,
          "velocity": 0.7874015748031497
        },
        {
          "duration": 0.14705874999999935,
          "durationTicks": 24,
          "midi": 35,
          "name": "B1",
          "ticks": 4200,
          "time": 25.735281250000003,
          "velocity": 0.7874015748031497
        },
        {
          "duration": 0.14705874999999935,
          "durationTicks": 24,
          "midi": 38,
          "name": "D2",
          "ticks": 4224,
          "time": 25.882340000000003,
          "velocity": 0.7874015748031497
        },
        {
          "duration": 0.14705874999999935,
          "durationTicks": 24,
          "midi": 38,
          "name": "D2",
          "ticks": 4248,
          "time": 26.029398750000002,
          "velocity": 0.7874015748031497
        },
        {
          "duration": 0.1470587500000029,
          "durationTicks": 24,
          "midi": 37,
          "name": "C#2",
          "ticks": 4272,
          "time": 26.1764575,
          "velocity": 0.7874015748031497
        },
        {
          "duration": 0.14705874999999935,
          "durationTicks": 24,
          "midi": 37,
          "name": "C#2",
          "ticks": 4296,
          "time": 26.323516250000004,
          "velocity": 0.7874015748031497
        },
        {
          "duration": 0.14705874999999935,
          "durationTicks": 24,
          "midi": 35,
          "name": "B1",
          "ticks": 4320,
          "time": 26.470575000000004,
          "velocity": 0.7874015748031497
        },
        {
          "duration": 0.14705874999999935,
          "durationTicks": 24,
          "midi": 35,
          "name": "B1",
          "ticks": 4344,
          "time": 26.617633750000003,
          "velocity": 0.7874015748031497
        },
        {
          "duration": 0.14705874999999935,
          "durationTicks": 24,
          "midi": 35,
          "name": "B1",
          "ticks": 4368,
          "time": 26.764692500000002,
          "velocity": 0.7874015748031497
        },
        {
          "duration": 0.14705874999999935,
          "durationTicks": 24,
          "midi": 35,
          "name": "B1",
          "ticks": 4392,
          "time": 26.911751250000002,
          "velocity": 0.7874015748031497
        },
        {
          "duration": 0.1470587500000029,
          "durationTicks": 24,
          "midi": 35,
          "name": "B1",
          "ticks": 4416,
          "time": 27.05881,
          "velocity": 0.7874015748031497
        },
        {
          "duration": 0.14705874999999935,
          "durationTicks": 24,
          "midi": 35,
          "name": "B1",
          "ticks": 4440,
          "time": 27.205868750000004,
          "velocity": 0.7874015748031497
        },
        {
          "duration": 0.14705874999999935,
          "durationTicks": 24,
          "midi": 35,
          "name": "B1",
          "ticks": 4464,
          "time": 27.352927500000003,
          "velocity": 0.7874015748031497
        },
        {
          "duration": 0.14705874999999935,
          "durationTicks": 24,
          "midi": 35,
          "name": "B1",
          "ticks": 4488,
          "time": 27.499986250000003,
          "velocity": 0.7874015748031497
        },
        {
          "duration": 0.14705874999999935,
          "durationTicks": 24,
          "midi": 35,
          "name": "B1",
          "ticks": 4512,
          "time": 27.647045000000002,
          "velocity": 0.7874015748031497
        },
        {
          "duration": 0.1470587500000029,
          "durationTicks": 24,
          "midi": 35,
          "name": "B1",
          "ticks": 4536,
          "time": 27.79410375,
          "velocity": 0.7874015748031497
        },
        {
          "duration": 0.14705874999999935,
          "durationTicks": 24,
          "midi": 35,
          "name": "B1",
          "ticks": 4560,
          "time": 27.941162500000004,
          "velocity": 0.7874015748031497
        },
        {
          "duration": 0.14705874999999935,
          "durationTicks": 24,
          "midi": 35,
          "name": "B1",
          "ticks": 4584,
          "time": 28.088221250000004,
          "velocity": 0.7874015748031497
        },
        {
          "duration": 0.14705874999999935,
          "durationTicks": 24,
          "midi": 38,
          "name": "D2",
          "ticks": 4608,
          "time": 28.235280000000003,
          "velocity": 0.7874015748031497
        },
        {
          "duration": 0.14705874999999935,
          "durationTicks": 24,
          "midi": 38,
          "name": "D2",
          "ticks": 4632,
          "time": 28.382338750000002,
          "velocity": 0.7874015748031497
        },
        {
          "duration": 0.1470587500000029,
          "durationTicks": 24,
          "midi": 37,
          "name": "C#2",
          "ticks": 4656,
          "time": 28.5293975,
          "velocity": 0.7874015748031497
        },
        {
          "duration": 0.14705874999999935,
          "durationTicks": 24,
          "midi": 37,
          "name": "C#2",
          "ticks": 4680,
          "time": 28.676456250000005,
          "velocity": 0.7874015748031497
        },
        {
          "duration": 0.14705874999999935,
          "durationTicks": 24,
          "midi": 35,
          "name": "B1",
          "ticks": 4704,
          "time": 28.823515000000004,
          "velocity": 0.7874015748031497
        },
        {
          "duration": 0.14705874999999935,
          "durationTicks": 24,
          "midi": 35,
          "name": "B1",
          "ticks": 4728,
          "time": 28.970573750000003,
          "velocity": 0.7874015748031497
        },
        {
          "duration": 0.14705874999999935,
          "durationTicks": 24,
          "midi": 35,
          "name": "B1",
          "ticks": 4752,
          "time": 29.117632500000003,
          "velocity": 0.7874015748031497
        },
        {
          "duration": 0.1470587500000029,
          "durationTicks": 24,
          "midi": 35,
          "name": "B1",
          "ticks": 4776,
          "time": 29.264691250000002,
          "velocity": 0.7874015748031497
        },
        {
          "duration": 0.14705874999999935,
          "durationTicks": 24,
          "midi": 35,
          "name": "B1",
          "ticks": 4800,
          "time": 29.411750000000005,
          "velocity": 0.7874015748031497
        },
        {
          "duration": 0.14705874999999935,
          "durationTicks": 24,
          "midi": 35,
          "name": "B1",
          "ticks": 4824,
          "time": 29.558808750000004,
          "velocity": 0.7874015748031497
        },
        {
          "duration": 0.14705874999999935,
          "durationTicks": 24,
          "midi": 35,
          "name": "B1",
          "ticks": 4848,
          "time": 29.705867500000004,
          "velocity": 0.7874015748031497
        },
        {
          "duration": 0.14705874999999935,
          "durationTicks": 24,
          "midi": 35,
          "name": "B1",
          "ticks": 4872,
          "time": 29.852926250000003,
          "velocity": 0.7874015748031497
        },
        {
          "duration": 0.14705874999999935,
          "durationTicks": 24,
          "midi": 35,
          "name": "B1",
          "ticks": 4896,
          "time": 29.999985000000002,
          "velocity": 0.7874015748031497
        },
        {
          "duration": 0.1470587500000029,
          "durationTicks": 24,
          "midi": 35,
          "name": "B1",
          "ticks": 4920,
          "time": 30.14704375,
          "velocity": 0.7874015748031497
        },
        {
          "duration": 0.14705874999999935,
          "durationTicks": 24,
          "midi": 35,
          "name": "B1",
          "ticks": 4944,
          "time": 30.294102500000005,
          "velocity": 0.7874015748031497
        },
        {
          "duration": 0.14705874999999935,
          "durationTicks": 24,
          "midi": 35,
          "name": "B1",
          "ticks": 4968,
          "time": 30.441161250000004,
          "velocity": 0.7874015748031497
        },
        {
          "duration": 0.14705874999999935,
          "durationTicks": 24,
          "midi": 38,
          "name": "D2",
          "ticks": 4992,
          "time": 30.588220000000003,
          "velocity": 0.7874015748031497
        },
        {
          "duration": 0.14705874999999935,
          "durationTicks": 24,
          "midi": 38,
          "name": "D2",
          "ticks": 5016,
          "time": 30.735278750000003,
          "velocity": 0.7874015748031497
        },
        {
          "duration": 0.1470587500000029,
          "durationTicks": 24,
          "midi": 37,
          "name": "C#2",
          "ticks": 5040,
          "time": 30.882337500000002,
          "velocity": 0.7874015748031497
        },
        {
          "duration": 0.14705874999999935,
          "durationTicks": 24,
          "midi": 37,
          "name": "C#2",
          "ticks": 5064,
          "time": 31.029396250000005,
          "velocity": 0.7874015748031497
        },
        {
          "duration": 0.14705874999999935,
          "durationTicks": 24,
          "midi": 35,
          "name": "B1",
          "ticks": 5088,
          "time": 31.176455000000004,
          "velocity": 0.7874015748031497
        },
        {
          "duration": 0.14705874999999935,
          "durationTicks": 24,
          "midi": 35,
          "name": "B1",
          "ticks": 5112,
          "time": 31.323513750000004,
          "velocity": 0.7874015748031497
        },
        {
          "duration": 0.14705874999999935,
          "durationTicks": 24,
          "midi": 35,
          "name": "B1",
          "ticks": 5136,
          "time": 31.470572500000003,
          "velocity": 0.7874015748031497
        },
        {
          "duration": 0.14705874999999935,
          "durationTicks": 24,
          "midi": 37,
          "name": "C#2",
          "ticks": 5160,
          "time": 31.617631250000002,
          "velocity": 0.7874015748031497
        },
        {
          "duration": 0.1470587500000029,
          "durationTicks": 24,
          "midi": 37,
          "name": "C#2",
          "ticks": 5184,
          "time": 31.76469,
          "velocity": 0.7874015748031497
        },
        {
          "duration": 0.1470587499999958,
          "durationTicks": 24,
          "midi": 37,
          "name": "C#2",
          "ticks": 5208,
          "time": 31.911748750000005,
          "velocity": 0.7874015748031497
        },
        {
          "duration": 0.14705875000000646,
          "durationTicks": 24,
          "midi": 38,
          "name": "D2",
          "ticks": 5232,
          "time": 32.0588075,
          "velocity": 0.7874015748031497
        },
        {
          "duration": 0.14705874999999935,
          "durationTicks": 24,
          "midi": 38,
          "name": "D2",
          "ticks": 5256,
          "time": 32.20586625000001,
          "velocity": 0.7874015748031497
        },
        {
          "duration": 0.14705874999999935,
          "durationTicks": 24,
          "midi": 38,
          "name": "D2",
          "ticks": 5280,
          "time": 32.352925000000006,
          "velocity": 0.7874015748031497
        },
        {
          "duration": 0.14705874999999935,
          "durationTicks": 24,
          "midi": 40,
          "name": "E2",
          "ticks": 5304,
          "time": 32.499983750000006,
          "velocity": 0.7874015748031497
        },
        {
          "duration": 0.14705874999999935,
          "durationTicks": 24,
          "midi": 40,
          "name": "E2",
          "ticks": 5328,
          "time": 32.647042500000005,
          "velocity": 0.7874015748031497
        },
        {
          "duration": 0.14705874999999935,
          "durationTicks": 24,
          "midi": 40,
          "name": "E2",
          "ticks": 5352,
          "time": 32.794101250000004,
          "velocity": 0.7874015748031497
        },
        {
          "duration": 0.14705874999999935,
          "durationTicks": 24,
          "midi": 38,
          "name": "D2",
          "ticks": 5376,
          "time": 32.94116,
          "velocity": 0.7874015748031497
        },
        {
          "duration": 0.14705874999999935,
          "durationTicks": 24,
          "midi": 38,
          "name": "D2",
          "ticks": 5400,
          "time": 33.08821875,
          "velocity": 0.7874015748031497
        },
        {
          "duration": 0.14705874999999935,
          "durationTicks": 24,
          "midi": 37,
          "name": "C#2",
          "ticks": 5424,
          "time": 33.2352775,
          "velocity": 0.7874015748031497
        },
        {
          "duration": 0.14705874999999935,
          "durationTicks": 24,
          "midi": 37,
          "name": "C#2",
          "ticks": 5448,
          "time": 33.38233625,
          "velocity": 0.7874015748031497
        },
        {
          "duration": 0.14705874999999935,
          "durationTicks": 24,
          "midi": 35,
          "name": "B1",
          "ticks": 5472,
          "time": 33.529395,
          "velocity": 0.7874015748031497
        },
        {
          "duration": 0.14705875000000646,
          "durationTicks": 24,
          "midi": 38,
          "name": "D2",
          "ticks": 5496,
          "time": 33.67645375,
          "velocity": 0.7874015748031497
        },
        {
          "duration": 0.14705874999999935,
          "durationTicks": 24,
          "midi": 35,
          "name": "B1",
          "ticks": 5520,
          "time": 33.82351250000001,
          "velocity": 0.7874015748031497
        },
        {
          "duration": 0.14705874999999935,
          "durationTicks": 24,
          "midi": 35,
          "name": "B1",
          "ticks": 5544,
          "time": 33.970571250000006,
          "velocity": 0.7874015748031497
        },
        {
          "duration": 0.14705874999999935,
          "durationTicks": 24,
          "midi": 38,
          "name": "D2",
          "ticks": 5568,
          "time": 34.117630000000005,
          "velocity": 0.7874015748031497
        },
        {
          "duration": 0.14705874999999935,
          "durationTicks": 24,
          "midi": 35,
          "name": "B1",
          "ticks": 5592,
          "time": 34.264688750000005,
          "velocity": 0.7874015748031497
        },
        {
          "duration": 0.14705874999999935,
          "durationTicks": 24,
          "midi": 35,
          "name": "B1",
          "ticks": 5616,
          "time": 34.411747500000004,
          "velocity": 0.7874015748031497
        },
        {
          "duration": 0.14705874999999935,
          "durationTicks": 24,
          "midi": 35,
          "name": "B1",
          "ticks": 5640,
          "time": 34.55880625,
          "velocity": 0.7874015748031497
        },
        {
          "duration": 0.14705874999999935,
          "durationTicks": 24,
          "midi": 35,
          "name": "B1",
          "ticks": 5664,
          "time": 34.705865,
          "velocity": 0.7874015748031497
        },
        {
          "duration": 0.14705874999999935,
          "durationTicks": 24,
          "midi": 38,
          "name": "D2",
          "ticks": 5688,
          "time": 34.85292375,
          "velocity": 0.7874015748031497
        },
        {
          "duration": 0.14705874999999935,
          "durationTicks": 24,
          "midi": 35,
          "name": "B1",
          "ticks": 5712,
          "time": 34.9999825,
          "velocity": 0.7874015748031497
        },
        {
          "duration": 0.14705874999999935,
          "durationTicks": 24,
          "midi": 35,
          "name": "B1",
          "ticks": 5736,
          "time": 35.14704125,
          "velocity": 0.7874015748031497
        },
        {
          "duration": 0.14705875000000646,
          "durationTicks": 24,
          "midi": 38,
          "name": "D2",
          "ticks": 5760,
          "time": 35.2941,
          "velocity": 0.7874015748031497
        },
        {
          "duration": 0.14705874999999935,
          "durationTicks": 24,
          "midi": 35,
          "name": "B1",
          "ticks": 5784,
          "time": 35.44115875000001,
          "velocity": 0.7874015748031497
        },
        {
          "duration": 0.14705874999999935,
          "durationTicks": 24,
          "midi": 35,
          "name": "B1",
          "ticks": 5808,
          "time": 35.588217500000006,
          "velocity": 0.7874015748031497
        },
        {
          "duration": 0.14705874999999935,
          "durationTicks": 24,
          "midi": 35,
          "name": "B1",
          "ticks": 5832,
          "time": 35.735276250000005,
          "velocity": 0.7874015748031497
        },
        {
          "duration": 0.14705874999999935,
          "durationTicks": 24,
          "midi": 35,
          "name": "B1",
          "ticks": 5856,
          "time": 35.882335000000005,
          "velocity": 0.7874015748031497
        },
        {
          "duration": 0.14705874999999935,
          "durationTicks": 24,
          "midi": 38,
          "name": "D2",
          "ticks": 5880,
          "time": 36.029393750000004,
          "velocity": 0.7874015748031497
        },
        {
          "duration": 0.14705874999999935,
          "durationTicks": 24,
          "midi": 35,
          "name": "B1",
          "ticks": 5904,
          "time": 36.1764525,
          "velocity": 0.7874015748031497
        },
        {
          "duration": 0.14705874999999935,
          "durationTicks": 24,
          "midi": 35,
          "name": "B1",
          "ticks": 5928,
          "time": 36.32351125,
          "velocity": 0.7874015748031497
        },
        {
          "duration": 0.14705874999999935,
          "durationTicks": 24,
          "midi": 38,
          "name": "D2",
          "ticks": 5952,
          "time": 36.47057,
          "velocity": 0.7874015748031497
        },
        {
          "duration": 0.14705874999999935,
          "durationTicks": 24,
          "midi": 35,
          "name": "B1",
          "ticks": 5976,
          "time": 36.61762875,
          "velocity": 0.7874015748031497
        },
        {
          "duration": 0.14705875000000646,
          "durationTicks": 24,
          "midi": 35,
          "name": "B1",
          "ticks": 6000,
          "time": 36.7646875,
          "velocity": 0.7874015748031497
        },
        {
          "duration": 0.14705874999999935,
          "durationTicks": 24,
          "midi": 35,
          "name": "B1",
          "ticks": 6024,
          "time": 36.91174625000001,
          "velocity": 0.7874015748031497
        },
        {
          "duration": 0.14705874999999935,
          "durationTicks": 24,
          "midi": 35,
          "name": "B1",
          "ticks": 6048,
          "time": 37.05880500000001,
          "velocity": 0.7874015748031497
        },
        {
          "duration": 0.14705874999999935,
          "durationTicks": 24,
          "midi": 38,
          "name": "D2",
          "ticks": 6072,
          "time": 37.205863750000006,
          "velocity": 0.7874015748031497
        },
        {
          "duration": 0.14705874999999935,
          "durationTicks": 24,
          "midi": 35,
          "name": "B1",
          "ticks": 6096,
          "time": 37.352922500000005,
          "velocity": 0.7874015748031497
        },
        {
          "duration": 0.14705874999999935,
          "durationTicks": 24,
          "midi": 35,
          "name": "B1",
          "ticks": 6120,
          "time": 37.499981250000005,
          "velocity": 0.7874015748031497
        },
        {
          "duration": 0.14705874999999935,
          "durationTicks": 24,
          "midi": 38,
          "name": "D2",
          "ticks": 6144,
          "time": 37.647040000000004,
          "velocity": 0.7874015748031497
        },
        {
          "duration": 0.14705874999999935,
          "durationTicks": 24,
          "midi": 35,
          "name": "B1",
          "ticks": 6168,
          "time": 37.79409875,
          "velocity": 0.7874015748031497
        },
        {
          "duration": 0.14705874999999935,
          "durationTicks": 24,
          "midi": 35,
          "name": "B1",
          "ticks": 6192,
          "time": 37.9411575,
          "velocity": 0.7874015748031497
        },
        {
          "duration": 0.14705874999999935,
          "durationTicks": 24,
          "midi": 35,
          "name": "B1",
          "ticks": 6216,
          "time": 38.08821625,
          "velocity": 0.7874015748031497
        },
        {
          "duration": 0.14705874999999935,
          "durationTicks": 24,
          "midi": 35,
          "name": "B1",
          "ticks": 6240,
          "time": 38.235275,
          "velocity": 0.7874015748031497
        },
        {
          "duration": 0.14705875000000646,
          "durationTicks": 24,
          "midi": 38,
          "name": "D2",
          "ticks": 6264,
          "time": 38.38233375,
          "velocity": 0.7874015748031497
        },
        {
          "duration": 0.14705874999999935,
          "durationTicks": 24,
          "midi": 35,
          "name": "B1",
          "ticks": 6288,
          "time": 38.52939250000001,
          "velocity": 0.7874015748031497
        },
        {
          "duration": 0.14705874999999935,
          "durationTicks": 24,
          "midi": 35,
          "name": "B1",
          "ticks": 6312,
          "time": 38.67645125000001,
          "velocity": 0.7874015748031497
        },
        {
          "duration": 0.14705874999999935,
          "durationTicks": 24,
          "midi": 38,
          "name": "D2",
          "ticks": 6336,
          "time": 38.823510000000006,
          "velocity": 0.7874015748031497
        },
        {
          "duration": 0.14705874999999935,
          "durationTicks": 24,
          "midi": 35,
          "name": "B1",
          "ticks": 6360,
          "time": 38.970568750000005,
          "velocity": 0.7874015748031497
        },
        {
          "duration": 0.14705874999999935,
          "durationTicks": 24,
          "midi": 35,
          "name": "B1",
          "ticks": 6384,
          "time": 39.117627500000005,
          "velocity": 0.7874015748031497
        },
        {
          "duration": 0.14705874999999935,
          "durationTicks": 24,
          "midi": 35,
          "name": "B1",
          "ticks": 6408,
          "time": 39.264686250000004,
          "velocity": 0.7874015748031497
        },
        {
          "duration": 0.14705874999999935,
          "durationTicks": 24,
          "midi": 35,
          "name": "B1",
          "ticks": 6432,
          "time": 39.411745,
          "velocity": 0.7874015748031497
        },
        {
          "duration": 0.14705874999999935,
          "durationTicks": 24,
          "midi": 38,
          "name": "D2",
          "ticks": 6456,
          "time": 39.55880375,
          "velocity": 0.7874015748031497
        },
        {
          "duration": 0.14705874999999935,
          "durationTicks": 24,
          "midi": 35,
          "name": "B1",
          "ticks": 6480,
          "time": 39.7058625,
          "velocity": 0.7874015748031497
        },
        {
          "duration": 0.14705875000000646,
          "durationTicks": 24,
          "midi": 35,
          "name": "B1",
          "ticks": 6504,
          "time": 39.85292125,
          "velocity": 0.7874015748031497
        },
        {
          "duration": 0.14705874999999935,
          "durationTicks": 24,
          "midi": 38,
          "name": "D2",
          "ticks": 6528,
          "time": 39.99998000000001,
          "velocity": 0.7874015748031497
        },
        {
          "duration": 0.14705874999999935,
          "durationTicks": 24,
          "midi": 35,
          "name": "B1",
          "ticks": 6552,
          "time": 40.14703875000001,
          "velocity": 0.7874015748031497
        },
        {
          "duration": 0.14705874999999935,
          "durationTicks": 24,
          "midi": 35,
          "name": "B1",
          "ticks": 6576,
          "time": 40.29409750000001,
          "velocity": 0.7874015748031497
        },
        {
          "duration": 0.14705874999999935,
          "durationTicks": 24,
          "midi": 35,
          "name": "B1",
          "ticks": 6600,
          "time": 40.441156250000006,
          "velocity": 0.7874015748031497
        },
        {
          "duration": 0.14705874999999935,
          "durationTicks": 24,
          "midi": 35,
          "name": "B1",
          "ticks": 6624,
          "time": 40.588215000000005,
          "velocity": 0.7874015748031497
        },
        {
          "duration": 0.14705874999999935,
          "durationTicks": 24,
          "midi": 38,
          "name": "D2",
          "ticks": 6648,
          "time": 40.735273750000005,
          "velocity": 0.7874015748031497
        },
        {
          "duration": 0.14705874999999935,
          "durationTicks": 24,
          "midi": 35,
          "name": "B1",
          "ticks": 6672,
          "time": 40.882332500000004,
          "velocity": 0.7874015748031497
        },
        {
          "duration": 0.14705874999999935,
          "durationTicks": 24,
          "midi": 35,
          "name": "B1",
          "ticks": 6696,
          "time": 41.02939125,
          "velocity": 0.7874015748031497
        },
        {
          "duration": 0.14705874999999935,
          "durationTicks": 24,
          "midi": 38,
          "name": "D2",
          "ticks": 6720,
          "time": 41.17645,
          "velocity": 0.7874015748031497
        },
        {
          "duration": 0.14705874999999935,
          "durationTicks": 24,
          "midi": 35,
          "name": "B1",
          "ticks": 6744,
          "time": 41.32350875,
          "velocity": 0.7874015748031497
        },
        {
          "duration": 0.14705875000000646,
          "durationTicks": 24,
          "midi": 35,
          "name": "B1",
          "ticks": 6768,
          "time": 41.4705675,
          "velocity": 0.7874015748031497
        },
        {
          "duration": 0.14705874999999935,
          "durationTicks": 24,
          "midi": 35,
          "name": "B1",
          "ticks": 6792,
          "time": 41.61762625000001,
          "velocity": 0.7874015748031497
        },
        {
          "duration": 0.14705874999999935,
          "durationTicks": 24,
          "midi": 35,
          "name": "B1",
          "ticks": 6816,
          "time": 41.76468500000001,
          "velocity": 0.7874015748031497
        },
        {
          "duration": 0.14705874999999935,
          "durationTicks": 24,
          "midi": 38,
          "name": "D2",
          "ticks": 6840,
          "time": 41.91174375000001,
          "velocity": 0.7874015748031497
        },
        {
          "duration": 0.14705874999999935,
          "durationTicks": 24,
          "midi": 35,
          "name": "B1",
          "ticks": 6864,
          "time": 42.058802500000006,
          "velocity": 0.7874015748031497
        },
        {
          "duration": 0.14705874999999935,
          "durationTicks": 24,
          "midi": 35,
          "name": "B1",
          "ticks": 6888,
          "time": 42.205861250000005,
          "velocity": 0.7874015748031497
        },
        {
          "duration": 0.14705874999999935,
          "durationTicks": 24,
          "midi": 38,
          "name": "D2",
          "ticks": 6912,
          "time": 42.352920000000005,
          "velocity": 0.7874015748031497
        },
        {
          "duration": 0.14705874999999935,
          "durationTicks": 24,
          "midi": 35,
          "name": "B1",
          "ticks": 6936,
          "time": 42.499978750000004,
          "velocity": 0.7874015748031497
        },
        {
          "duration": 0.14705874999999935,
          "durationTicks": 24,
          "midi": 35,
          "name": "B1",
          "ticks": 6960,
          "time": 42.6470375,
          "velocity": 0.7874015748031497
        },
        {
          "duration": 0.14705874999999935,
          "durationTicks": 24,
          "midi": 35,
          "name": "B1",
          "ticks": 6984,
          "time": 42.79409625,
          "velocity": 0.7874015748031497
        },
        {
          "duration": 0.14705874999999935,
          "durationTicks": 24,
          "midi": 35,
          "name": "B1",
          "ticks": 7008,
          "time": 42.941155,
          "velocity": 0.7874015748031497
        },
        {
          "duration": 0.14705875000000646,
          "durationTicks": 24,
          "midi": 38,
          "name": "D2",
          "ticks": 7032,
          "time": 43.08821375,
          "velocity": 0.7874015748031497
        },
        {
          "duration": 0.14705874999999935,
          "durationTicks": 24,
          "midi": 35,
          "name": "B1",
          "ticks": 7056,
          "time": 43.23527250000001,
          "velocity": 0.7874015748031497
        },
        {
          "duration": 0.14705874999999935,
          "durationTicks": 24,
          "midi": 35,
          "name": "B1",
          "ticks": 7080,
          "time": 43.38233125000001,
          "velocity": 0.7874015748031497
        },
        {
          "duration": 0.14705874999999935,
          "durationTicks": 24,
          "midi": 38,
          "name": "D2",
          "ticks": 7104,
          "time": 43.52939000000001,
          "velocity": 0.7874015748031497
        },
        {
          "duration": 0.14705874999999935,
          "durationTicks": 24,
          "midi": 35,
          "name": "B1",
          "ticks": 7128,
          "time": 43.676448750000006,
          "velocity": 0.7874015748031497
        },
        {
          "duration": 0.14705874999999935,
          "durationTicks": 24,
          "midi": 35,
          "name": "B1",
          "ticks": 7152,
          "time": 43.823507500000005,
          "velocity": 0.7874015748031497
        },
        {
          "duration": 0.14705874999999935,
          "durationTicks": 24,
          "midi": 35,
          "name": "B1",
          "ticks": 7176,
          "time": 43.970566250000005,
          "velocity": 0.7874015748031497
        },
        {
          "duration": 0.14705874999999935,
          "durationTicks": 24,
          "midi": 35,
          "name": "B1",
          "ticks": 7200,
          "time": 44.117625000000004,
          "velocity": 0.7874015748031497
        },
        {
          "duration": 0.14705874999999935,
          "durationTicks": 24,
          "midi": 38,
          "name": "D2",
          "ticks": 7224,
          "time": 44.26468375,
          "velocity": 0.7874015748031497
        },
        {
          "duration": 0.14705874999999935,
          "durationTicks": 24,
          "midi": 35,
          "name": "B1",
          "ticks": 7248,
          "time": 44.4117425,
          "velocity": 0.7874015748031497
        },
        {
          "duration": 0.14705874999999935,
          "durationTicks": 24,
          "midi": 35,
          "name": "B1",
          "ticks": 7272,
          "time": 44.55880125,
          "velocity": 0.7874015748031497
        },
        {
          "duration": 0.14705875000000646,
          "durationTicks": 24,
          "midi": 38,
          "name": "D2",
          "ticks": 7296,
          "time": 44.70586,
          "velocity": 0.7874015748031497
        },
        {
          "duration": 0.14705874999999935,
          "durationTicks": 24,
          "midi": 35,
          "name": "B1",
          "ticks": 7320,
          "time": 44.85291875000001,
          "velocity": 0.7874015748031497
        },
        {
          "duration": 0.14705874999999935,
          "durationTicks": 24,
          "midi": 35,
          "name": "B1",
          "ticks": 7344,
          "time": 44.99997750000001,
          "velocity": 0.7874015748031497
        },
        {
          "duration": 0.14705874999999935,
          "durationTicks": 24,
          "midi": 35,
          "name": "B1",
          "ticks": 7368,
          "time": 45.147036250000006,
          "velocity": 0.7874015748031497
        },
        {
          "duration": 0.14705874999999935,
          "durationTicks": 24,
          "midi": 35,
          "name": "B1",
          "ticks": 7392,
          "time": 45.294095000000006,
          "velocity": 0.7874015748031497
        },
        {
          "duration": 0.14705874999999935,
          "durationTicks": 24,
          "midi": 38,
          "name": "D2",
          "ticks": 7416,
          "time": 45.441153750000005,
          "velocity": 0.7874015748031497
        },
        {
          "duration": 0.14705874999999935,
          "durationTicks": 24,
          "midi": 35,
          "name": "B1",
          "ticks": 7440,
          "time": 45.588212500000004,
          "velocity": 0.7874015748031497
        },
        {
          "duration": 0.14705874999999935,
          "durationTicks": 24,
          "midi": 35,
          "name": "B1",
          "ticks": 7464,
          "time": 45.735271250000004,
          "velocity": 0.7874015748031497
        },
        {
          "duration": 0.14705874999999935,
          "durationTicks": 24,
          "midi": 38,
          "name": "D2",
          "ticks": 7488,
          "time": 45.88233,
          "velocity": 0.7874015748031497
        },
        {
          "duration": 0.14705874999999935,
          "durationTicks": 24,
          "midi": 35,
          "name": "B1",
          "ticks": 7512,
          "time": 46.02938875,
          "velocity": 0.7874015748031497
        },
        {
          "duration": 0.14705875000000646,
          "durationTicks": 24,
          "midi": 35,
          "name": "B1",
          "ticks": 7536,
          "time": 46.1764475,
          "velocity": 0.7874015748031497
        },
        {
          "duration": 0.14705874999999935,
          "durationTicks": 24,
          "midi": 35,
          "name": "B1",
          "ticks": 7560,
          "time": 46.32350625000001,
          "velocity": 0.7874015748031497
        },
        {
          "duration": 0.14705874999999935,
          "durationTicks": 24,
          "midi": 35,
          "name": "B1",
          "ticks": 7584,
          "time": 46.47056500000001,
          "velocity": 0.7874015748031497
        },
        {
          "duration": 0.14705874999999935,
          "durationTicks": 24,
          "midi": 38,
          "name": "D2",
          "ticks": 7608,
          "time": 46.61762375000001,
          "velocity": 0.7874015748031497
        },
        {
          "duration": 0.14705874999999935,
          "durationTicks": 24,
          "midi": 35,
          "name": "B1",
          "ticks": 7632,
          "time": 46.764682500000006,
          "velocity": 0.7874015748031497
        },
        {
          "duration": 0.14705874999999935,
          "durationTicks": 24,
          "midi": 35,
          "name": "B1",
          "ticks": 7656,
          "time": 46.911741250000006,
          "velocity": 0.7874015748031497
        },
        {
          "duration": 0.14705874999999935,
          "durationTicks": 24,
          "midi": 38,
          "name": "D2",
          "ticks": 7680,
          "time": 47.058800000000005,
          "velocity": 0.7874015748031497
        },
        {
          "duration": 0.14705874999999935,
          "durationTicks": 24,
          "midi": 35,
          "name": "B1",
          "ticks": 7704,
          "time": 47.205858750000004,
          "velocity": 0.7874015748031497
        },
        {
          "duration": 0.14705874999999935,
          "durationTicks": 24,
          "midi": 35,
          "name": "B1",
          "ticks": 7728,
          "time": 47.352917500000004,
          "velocity": 0.7874015748031497
        },
        {
          "duration": 0.14705874999999935,
          "durationTicks": 24,
          "midi": 35,
          "name": "B1",
          "ticks": 7752,
          "time": 47.49997625,
          "velocity": 0.7874015748031497
        },
        {
          "duration": 0.14705874999999935,
          "durationTicks": 24,
          "midi": 35,
          "name": "B1",
          "ticks": 7776,
          "time": 47.647035,
          "velocity": 0.7874015748031497
        },
        {
          "duration": 0.14705875000000646,
          "durationTicks": 24,
          "midi": 38,
          "name": "D2",
          "ticks": 7800,
          "time": 47.79409375,
          "velocity": 0.7874015748031497
        },
        {
          "duration": 0.14705874999999935,
          "durationTicks": 24,
          "midi": 35,
          "name": "B1",
          "ticks": 7824,
          "time": 47.94115250000001,
          "velocity": 0.7874015748031497
        },
        {
          "duration": 0.14705874999999935,
          "durationTicks": 24,
          "midi": 35,
          "name": "B1",
          "ticks": 7848,
          "time": 48.08821125000001,
          "velocity": 0.7874015748031497
        },
        {
          "duration": 0.14705874999999935,
          "durationTicks": 24,
          "midi": 38,
          "name": "D2",
          "ticks": 7872,
          "time": 48.23527000000001,
          "velocity": 0.7874015748031497
        },
        {
          "duration": 0.14705874999999935,
          "durationTicks": 24,
          "midi": 35,
          "name": "B1",
          "ticks": 7896,
          "time": 48.382328750000006,
          "velocity": 0.7874015748031497
        },
        {
          "duration": 0.14705874999999935,
          "durationTicks": 24,
          "midi": 35,
          "name": "B1",
          "ticks": 7920,
          "time": 48.529387500000006,
          "velocity": 0.7874015748031497
        },
        {
          "duration": 0.14705874999999935,
          "durationTicks": 24,
          "midi": 35,
          "name": "B1",
          "ticks": 7944,
          "time": 48.676446250000005,
          "velocity": 0.7874015748031497
        },
        {
          "duration": 0.14705874999999935,
          "durationTicks": 24,
          "midi": 35,
          "name": "B1",
          "ticks": 7968,
          "time": 48.823505000000004,
          "velocity": 0.7874015748031497
        },
        {
          "duration": 0.14705874999999935,
          "durationTicks": 24,
          "midi": 38,
          "name": "D2",
          "ticks": 7992,
          "time": 48.970563750000004,
          "velocity": 0.7874015748031497
        },
        {
          "duration": 0.14705874999999935,
          "durationTicks": 24,
          "midi": 35,
          "name": "B1",
          "ticks": 8016,
          "time": 49.1176225,
          "velocity": 0.7874015748031497
        },
        {
          "duration": 0.14705875000000646,
          "durationTicks": 24,
          "midi": 35,
          "name": "B1",
          "ticks": 8040,
          "time": 49.26468125,
          "velocity": 0.7874015748031497
        },
        {
          "duration": 0.2941174999999987,
          "durationTicks": 48,
          "midi": 38,
          "name": "D2",
          "ticks": 8064,
          "time": 49.41174000000001,
          "velocity": 0.7874015748031497
        },
        {
          "duration": 0.2941174999999987,
          "durationTicks": 48,
          "midi": 40,
          "name": "E2",
          "ticks": 8112,
          "time": 49.70585750000001,
          "velocity": 0.7874015748031497
        },
        {
          "duration": 0.44117624999999805,
          "durationTicks": 72,
          "midi": 41,
          "name": "F2",
          "ticks": 8160,
          "time": 49.999975000000006,
          "velocity": 0.7874015748031497
        },
        {
          "duration": 0.44117624999999805,
          "durationTicks": 72,
          "midi": 40,
          "name": "E2",
          "ticks": 8232,
          "time": 50.441151250000004,
          "velocity": 0.7874015748031497
        },
        {
          "duration": 0.44117625000000515,
          "durationTicks": 72,
          "midi": 41,
          "name": "F2",
          "ticks": 8304,
          "time": 50.8823275,
          "velocity": 0.7874015748031497
        },
        {
          "duration": 0.44117624999999805,
          "durationTicks": 72,
          "midi": 43,
          "name": "G2",
          "ticks": 8376,
          "time": 51.32350375000001,
          "velocity": 0.7874015748031497
        },
        {
          "duration": 0.14705874999999935,
          "durationTicks": 24,
          "midi": 41,
          "name": "F2",
          "ticks": 8448,
          "time": 51.764680000000006,
          "velocity": 0.7874015748031497
        },
        {
          "duration": 0.14705874999999935,
          "durationTicks": 24,
          "midi": 41,
          "name": "F2",
          "ticks": 8472,
          "time": 51.911738750000005,
          "velocity": 0.7874015748031497
        },
        {
          "duration": 0.2941174999999987,
          "durationTicks": 48,
          "midi": 40,
          "name": "E2",
          "ticks": 8496,
          "time": 52.058797500000004,
          "velocity": 0.7874015748031497
        },
        {
          "duration": 0.14705874999999935,
          "durationTicks": 24,
          "midi": 38,
          "name": "D2",
          "ticks": 8544,
          "time": 52.352915,
          "velocity": 0.7874015748031497
        },
        {
          "duration": 0.14705875000000646,
          "durationTicks": 24,
          "midi": 38,
          "name": "D2",
          "ticks": 8568,
          "time": 52.49997375,
          "velocity": 0.7874015748031497
        },
        {
          "duration": 0.14705874999999935,
          "durationTicks": 24,
          "midi": 38,
          "name": "D2",
          "ticks": 8592,
          "time": 52.64703250000001,
          "velocity": 0.7874015748031497
        },
        {
          "duration": 0.14705874999999935,
          "durationTicks": 24,
          "midi": 38,
          "name": "D2",
          "ticks": 8616,
          "time": 52.79409125000001,
          "velocity": 0.7874015748031497
        },
        {
          "duration": 0.14705874999999935,
          "durationTicks": 24,
          "midi": 38,
          "name": "D2",
          "ticks": 8640,
          "time": 52.94115000000001,
          "velocity": 0.7874015748031497
        },
        {
          "duration": 0.14705874999999935,
          "durationTicks": 24,
          "midi": 38,
          "name": "D2",
          "ticks": 8664,
          "time": 53.08820875000001,
          "velocity": 0.7874015748031497
        },
        {
          "duration": 0.14705874999999935,
          "durationTicks": 24,
          "midi": 38,
          "name": "D2",
          "ticks": 8688,
          "time": 53.235267500000006,
          "velocity": 0.7874015748031497
        },
        {
          "duration": 0.14705874999999935,
          "durationTicks": 24,
          "midi": 38,
          "name": "D2",
          "ticks": 8712,
          "time": 53.382326250000006,
          "velocity": 0.7874015748031497
        },
        {
          "duration": 0.14705874999999935,
          "durationTicks": 24,
          "midi": 38,
          "name": "D2",
          "ticks": 8736,
          "time": 53.529385000000005,
          "velocity": 0.7874015748031497
        },
        {
          "duration": 0.14705874999999935,
          "durationTicks": 24,
          "midi": 38,
          "name": "D2",
          "ticks": 8760,
          "time": 53.676443750000004,
          "velocity": 0.7874015748031497
        },
        {
          "duration": 0.14705874999999935,
          "durationTicks": 24,
          "midi": 38,
          "name": "D2",
          "ticks": 8784,
          "time": 53.823502500000004,
          "velocity": 0.7874015748031497
        },
        {
          "duration": 0.14705874999999935,
          "durationTicks": 24,
          "midi": 38,
          "name": "D2",
          "ticks": 8808,
          "time": 53.97056125,
          "velocity": 0.7874015748031497
        },
        {
          "duration": 0.14705875000000646,
          "durationTicks": 24,
          "midi": 38,
          "name": "D2",
          "ticks": 8832,
          "time": 54.11762,
          "velocity": 0.7874015748031497
        },
        {
          "duration": 0.14705874999999935,
          "durationTicks": 24,
          "midi": 38,
          "name": "D2",
          "ticks": 8856,
          "time": 54.26467875000001,
          "velocity": 0.7874015748031497
        },
        {
          "duration": 0.14705874999999935,
          "durationTicks": 24,
          "midi": 40,
          "name": "E2",
          "ticks": 8880,
          "time": 54.41173750000001,
          "velocity": 0.7874015748031497
        },
        {
          "duration": 0.14705874999999935,
          "durationTicks": 24,
          "midi": 40,
          "name": "E2",
          "ticks": 8904,
          "time": 54.55879625000001,
          "velocity": 0.7874015748031497
        },
        {
          "duration": 0.14705874999999935,
          "durationTicks": 24,
          "midi": 41,
          "name": "F2",
          "ticks": 8928,
          "time": 54.70585500000001,
          "velocity": 0.7874015748031497
        },
        {
          "duration": 0.14705874999999935,
          "durationTicks": 24,
          "midi": 41,
          "name": "F2",
          "ticks": 8952,
          "time": 54.852913750000006,
          "velocity": 0.7874015748031497
        },
        {
          "duration": 0.14705874999999935,
          "durationTicks": 24,
          "midi": 41,
          "name": "F2",
          "ticks": 8976,
          "time": 54.999972500000005,
          "velocity": 0.7874015748031497
        },
        {
          "duration": 0.14705874999999935,
          "durationTicks": 24,
          "midi": 41,
          "name": "F2",
          "ticks": 9000,
          "time": 55.147031250000005,
          "velocity": 0.7874015748031497
        },
        {
          "duration": 0.14705874999999935,
          "durationTicks": 24,
          "midi": 41,
          "name": "F2",
          "ticks": 9024,
          "time": 55.294090000000004,
          "velocity": 0.7874015748031497
        },
        {
          "duration": 0.14705874999999935,
          "durationTicks": 24,
          "midi": 41,
          "name": "F2",
          "ticks": 9048,
          "time": 55.44114875,
          "velocity": 0.7874015748031497
        },
        {
          "duration": 0.14705875000000646,
          "durationTicks": 24,
          "midi": 41,
          "name": "F2",
          "ticks": 9072,
          "time": 55.5882075,
          "velocity": 0.7874015748031497
        },
        {
          "duration": 0.14705874999999935,
          "durationTicks": 24,
          "midi": 41,
          "name": "F2",
          "ticks": 9096,
          "time": 55.73526625000001,
          "velocity": 0.7874015748031497
        },
        {
          "duration": 0.14705874999999935,
          "durationTicks": 24,
          "midi": 41,
          "name": "F2",
          "ticks": 9120,
          "time": 55.88232500000001,
          "velocity": 0.7874015748031497
        },
        {
          "duration": 0.14705874999999935,
          "durationTicks": 24,
          "midi": 41,
          "name": "F2",
          "ticks": 9144,
          "time": 56.02938375000001,
          "velocity": 0.7874015748031497
        },
        {
          "duration": 0.14705874999999935,
          "durationTicks": 24,
          "midi": 41,
          "name": "F2",
          "ticks": 9168,
          "time": 56.17644250000001,
          "velocity": 0.7874015748031497
        },
        {
          "duration": 0.14705874999999935,
          "durationTicks": 24,
          "midi": 41,
          "name": "F2",
          "ticks": 9192,
          "time": 56.32350125000001,
          "velocity": 0.7874015748031497
        },
        {
          "duration": 0.14705874999999935,
          "durationTicks": 24,
          "midi": 40,
          "name": "E2",
          "ticks": 9216,
          "time": 56.470560000000006,
          "velocity": 0.7874015748031497
        },
        {
          "duration": 0.14705874999999935,
          "durationTicks": 24,
          "midi": 40,
          "name": "E2",
          "ticks": 9240,
          "time": 56.617618750000005,
          "velocity": 0.7874015748031497
        },
        {
          "duration": 0.14705874999999935,
          "durationTicks": 24,
          "midi": 36,
          "name": "C2",
          "ticks": 9264,
          "time": 56.764677500000005,
          "velocity": 0.7874015748031497
        },
        {
          "duration": 0.14705874999999935,
          "durationTicks": 24,
          "midi": 36,
          "name": "C2",
          "ticks": 9288,
          "time": 56.911736250000004,
          "velocity": 0.7874015748031497
        },
        {
          "duration": 0.14705874999999935,
          "durationTicks": 24,
          "midi": 34,
          "name": "A#1",
          "ticks": 9312,
          "time": 57.058795,
          "velocity": 0.7874015748031497
        },
        {
          "duration": 0.14705875000000646,
          "durationTicks": 24,
          "midi": 34,
          "name": "A#1",
          "ticks": 9336,
          "time": 57.20585375,
          "velocity": 0.7874015748031497
        },
        {
          "duration": 0.14705874999999935,
          "durationTicks": 24,
          "midi": 34,
          "name": "A#1",
          "ticks": 9360,
          "time": 57.35291250000001,
          "velocity": 0.7874015748031497
        },
        {
          "duration": 0.14705874999999935,
          "durationTicks": 24,
          "midi": 34,
          "name": "A#1",
          "ticks": 9384,
          "time": 57.49997125000001,
          "velocity": 0.7874015748031497
        },
        {
          "duration": 0.14705874999999935,
          "durationTicks": 24,
          "midi": 34,
          "name": "A#1",
          "ticks": 9408,
          "time": 57.64703000000001,
          "velocity": 0.7874015748031497
        },
        {
          "duration": 0.14705874999999935,
          "durationTicks": 24,
          "midi": 34,
          "name": "A#1",
          "ticks": 9432,
          "time": 57.79408875000001,
          "velocity": 0.7874015748031497
        },
        {
          "duration": 0.14705874999999935,
          "durationTicks": 24,
          "midi": 34,
          "name": "A#1",
          "ticks": 9456,
          "time": 57.94114750000001,
          "velocity": 0.7874015748031497
        },
        {
          "duration": 0.14705874999999935,
          "durationTicks": 24,
          "midi": 34,
          "name": "A#1",
          "ticks": 9480,
          "time": 58.088206250000006,
          "velocity": 0.7874015748031497
        },
        {
          "duration": 0.14705874999999935,
          "durationTicks": 24,
          "midi": 34,
          "name": "A#1",
          "ticks": 9504,
          "time": 58.235265000000005,
          "velocity": 0.7874015748031497
        },
        {
          "duration": 0.14705874999999935,
          "durationTicks": 24,
          "midi": 34,
          "name": "A#1",
          "ticks": 9528,
          "time": 58.382323750000005,
          "velocity": 0.7874015748031497
        },
        {
          "duration": 0.14705874999999935,
          "durationTicks": 24,
          "midi": 34,
          "name": "A#1",
          "ticks": 9552,
          "time": 58.529382500000004,
          "velocity": 0.7874015748031497
        },
        {
          "duration": 0.14705875000000646,
          "durationTicks": 24,
          "midi": 34,
          "name": "A#1",
          "ticks": 9576,
          "time": 58.67644125,
          "velocity": 0.7874015748031497
        },
        {
          "duration": 0.14705874999999935,
          "durationTicks": 24,
          "midi": 34,
          "name": "A#1",
          "ticks": 9600,
          "time": 58.82350000000001,
          "velocity": 0.7874015748031497
        },
        {
          "duration": 0.14705874999999935,
          "durationTicks": 24,
          "midi": 34,
          "name": "A#1",
          "ticks": 9624,
          "time": 58.97055875000001,
          "velocity": 0.7874015748031497
        },
        {
          "duration": 0.14705874999999935,
          "durationTicks": 24,
          "midi": 34,
          "name": "A#1",
          "ticks": 9648,
          "time": 59.11761750000001,
          "velocity": 0.7874015748031497
        },
        {
          "duration": 0.14705874999999935,
          "durationTicks": 24,
          "midi": 34,
          "name": "A#1",
          "ticks": 9672,
          "time": 59.26467625000001,
          "velocity": 0.7874015748031497
        },
        {
          "duration": 0.14705874999999935,
          "durationTicks": 24,
          "midi": 36,
          "name": "C2",
          "ticks": 9696,
          "time": 59.41173500000001,
          "velocity": 0.7874015748031497
        },
        {
          "duration": 0.14705874999999935,
          "durationTicks": 24,
          "midi": 36,
          "name": "C2",
          "ticks": 9720,
          "time": 59.55879375000001,
          "velocity": 0.7874015748031497
        },
        {
          "duration": 0.14705874999999935,
          "durationTicks": 24,
          "midi": 36,
          "name": "C2",
          "ticks": 9744,
          "time": 59.705852500000006,
          "velocity": 0.7874015748031497
        },
        {
          "duration": 0.14705874999999935,
          "durationTicks": 24,
          "midi": 36,
          "name": "C2",
          "ticks": 9768,
          "time": 59.852911250000005,
          "velocity": 0.7874015748031497
        },
        {
          "duration": 0.14705874999999935,
          "durationTicks": 24,
          "midi": 36,
          "name": "C2",
          "ticks": 9792,
          "time": 59.999970000000005,
          "velocity": 0.7874015748031497
        },
        {
          "duration": 0.14705874999999935,
          "durationTicks": 24,
          "midi": 36,
          "name": "C2",
          "ticks": 9816,
          "time": 60.147028750000004,
          "velocity": 0.7874015748031497
        },
        {
          "duration": 0.14705875000000646,
          "durationTicks": 24,
          "midi": 36,
          "name": "C2",
          "ticks": 9840,
          "time": 60.2940875,
          "velocity": 0.7874015748031497
        },
        {
          "duration": 0.14705874999999935,
          "durationTicks": 24,
          "midi": 36,
          "name": "C2",
          "ticks": 9864,
          "time": 60.44114625000001,
          "velocity": 0.7874015748031497
        },
        {
          "duration": 0.14705874999999935,
          "durationTicks": 24,
          "midi": 36,
          "name": "C2",
          "ticks": 9888,
          "time": 60.58820500000001,
          "velocity": 0.7874015748031497
        },
        {
          "duration": 0.14705874999999935,
          "durationTicks": 24,
          "midi": 36,
          "name": "C2",
          "ticks": 9912,
          "time": 60.73526375000001,
          "velocity": 0.7874015748031497
        },
        {
          "duration": 0.14705874999999935,
          "durationTicks": 24,
          "midi": 36,
          "name": "C2",
          "ticks": 9936,
          "time": 60.88232250000001,
          "velocity": 0.7874015748031497
        },
        {
          "duration": 0.14705874999999935,
          "durationTicks": 24,
          "midi": 36,
          "name": "C2",
          "ticks": 9960,
          "time": 61.02938125000001,
          "velocity": 0.7874015748031497
        },
        {
          "duration": 0.14705874999999935,
          "durationTicks": 24,
          "midi": 36,
          "name": "C2",
          "ticks": 9984,
          "time": 61.17644000000001,
          "velocity": 0.7874015748031497
        },
        {
          "duration": 0.14705874999999935,
          "durationTicks": 24,
          "midi": 36,
          "name": "C2",
          "ticks": 10008,
          "time": 61.323498750000006,
          "velocity": 0.7874015748031497
        },
        {
          "duration": 0.14705874999999935,
          "durationTicks": 24,
          "midi": 36,
          "name": "C2",
          "ticks": 10032,
          "time": 61.470557500000005,
          "velocity": 0.7874015748031497
        },
        {
          "duration": 0.14705874999999935,
          "durationTicks": 24,
          "midi": 36,
          "name": "C2",
          "ticks": 10056,
          "time": 61.617616250000005,
          "velocity": 0.7874015748031497
        },
        {
          "duration": 0.14705874999999935,
          "durationTicks": 24,
          "midi": 38,
          "name": "D2",
          "ticks": 10080,
          "time": 61.764675000000004,
          "velocity": 0.7874015748031497
        },
        {
          "duration": 0.14705875000000646,
          "durationTicks": 24,
          "midi": 38,
          "name": "D2",
          "ticks": 10104,
          "time": 61.91173375,
          "velocity": 0.7874015748031497
        },
        {
          "duration": 0.14705874999999935,
          "durationTicks": 24,
          "midi": 38,
          "name": "D2",
          "ticks": 10128,
          "time": 62.05879250000001,
          "velocity": 0.7874015748031497
        },
        {
          "duration": 0.14705874999999935,
          "durationTicks": 24,
          "midi": 38,
          "name": "D2",
          "ticks": 10152,
          "time": 62.20585125000001,
          "velocity": 0.7874015748031497
        },
        {
          "duration": 0.14705874999999935,
          "durationTicks": 24,
          "midi": 38,
          "name": "D2",
          "ticks": 10176,
          "time": 62.35291000000001,
          "velocity": 0.7874015748031497
        },
        {
          "duration": 0.14705874999999935,
          "durationTicks": 24,
          "midi": 38,
          "name": "D2",
          "ticks": 10200,
          "time": 62.49996875000001,
          "velocity": 0.7874015748031497
        },
        {
          "duration": 0.14705874999999935,
          "durationTicks": 24,
          "midi": 38,
          "name": "D2",
          "ticks": 10224,
          "time": 62.64702750000001,
          "velocity": 0.7874015748031497
        },
        {
          "duration": 0.14705874999999935,
          "durationTicks": 24,
          "midi": 38,
          "name": "D2",
          "ticks": 10248,
          "time": 62.79408625000001,
          "velocity": 0.7874015748031497
        },
        {
          "duration": 0.14705874999999935,
          "durationTicks": 24,
          "midi": 38,
          "name": "D2",
          "ticks": 10272,
          "time": 62.941145000000006,
          "velocity": 0.7874015748031497
        },
        {
          "duration": 0.14705874999999935,
          "durationTicks": 24,
          "midi": 38,
          "name": "D2",
          "ticks": 10296,
          "time": 63.088203750000005,
          "velocity": 0.7874015748031497
        },
        {
          "duration": 0.14705874999999935,
          "durationTicks": 24,
          "midi": 38,
          "name": "D2",
          "ticks": 10320,
          "time": 63.235262500000005,
          "velocity": 0.7874015748031497
        },
        {
          "duration": 0.14705874999999935,
          "durationTicks": 24,
          "midi": 38,
          "name": "D2",
          "ticks": 10344,
          "time": 63.382321250000004,
          "velocity": 0.7874015748031497
        },
        {
          "duration": 0.14705875000000646,
          "durationTicks": 24,
          "midi": 38,
          "name": "D2",
          "ticks": 10368,
          "time": 63.52938,
          "velocity": 0.7874015748031497
        },
        {
          "duration": 0.14705874999999935,
          "durationTicks": 24,
          "midi": 38,
          "name": "D2",
          "ticks": 10392,
          "time": 63.67643875000001,
          "velocity": 0.7874015748031497
        },
        {
          "duration": 0.14705874999999935,
          "durationTicks": 24,
          "midi": 40,
          "name": "E2",
          "ticks": 10416,
          "time": 63.82349750000001,
          "velocity": 0.7874015748031497
        },
        {
          "duration": 0.14705874999999224,
          "durationTicks": 24,
          "midi": 40,
          "name": "E2",
          "ticks": 10440,
          "time": 63.97055625000001,
          "velocity": 0.7874015748031497
        },
        {
          "duration": 0.14705874999999935,
          "durationTicks": 24,
          "midi": 41,
          "name": "F2",
          "ticks": 10464,
          "time": 64.117615,
          "velocity": 0.7874015748031497
        },
        {
          "duration": 0.14705875000001356,
          "durationTicks": 24,
          "midi": 41,
          "name": "F2",
          "ticks": 10488,
          "time": 64.26467375,
          "velocity": 0.7874015748031497
        },
        {
          "duration": 0.14705874999999935,
          "durationTicks": 24,
          "midi": 41,
          "name": "F2",
          "ticks": 10512,
          "time": 64.41173250000001,
          "velocity": 0.7874015748031497
        },
        {
          "duration": 0.14705874999999935,
          "durationTicks": 24,
          "midi": 41,
          "name": "F2",
          "ticks": 10536,
          "time": 64.55879125000001,
          "velocity": 0.7874015748031497
        },
        {
          "duration": 0.14705874999999935,
          "durationTicks": 24,
          "midi": 41,
          "name": "F2",
          "ticks": 10560,
          "time": 64.70585000000001,
          "velocity": 0.7874015748031497
        },
        {
          "duration": 0.14705874999999935,
          "durationTicks": 24,
          "midi": 41,
          "name": "F2",
          "ticks": 10584,
          "time": 64.85290875000001,
          "velocity": 0.7874015748031497
        },
        {
          "duration": 0.14705874999999935,
          "durationTicks": 24,
          "midi": 41,
          "name": "F2",
          "ticks": 10608,
          "time": 64.99996750000001,
          "velocity": 0.7874015748031497
        },
        {
          "duration": 0.14705874999999935,
          "durationTicks": 24,
          "midi": 41,
          "name": "F2",
          "ticks": 10632,
          "time": 65.14702625000001,
          "velocity": 0.7874015748031497
        },
        {
          "duration": 0.14705874999999935,
          "durationTicks": 24,
          "midi": 41,
          "name": "F2",
          "ticks": 10656,
          "time": 65.29408500000001,
          "velocity": 0.7874015748031497
        },
        {
          "duration": 0.14705874999999935,
          "durationTicks": 24,
          "midi": 41,
          "name": "F2",
          "ticks": 10680,
          "time": 65.44114375000001,
          "velocity": 0.7874015748031497
        },
        {
          "duration": 0.14705874999999935,
          "durationTicks": 24,
          "midi": 41,
          "name": "F2",
          "ticks": 10704,
          "time": 65.58820250000001,
          "velocity": 0.7874015748031497
        },
        {
          "duration": 0.14705874999999935,
          "durationTicks": 24,
          "midi": 41,
          "name": "F2",
          "ticks": 10728,
          "time": 65.73526125000001,
          "velocity": 0.7874015748031497
        },
        {
          "duration": 0.14705874999999935,
          "durationTicks": 24,
          "midi": 40,
          "name": "E2",
          "ticks": 10752,
          "time": 65.88232,
          "velocity": 0.7874015748031497
        },
        {
          "duration": 0.14705874999999935,
          "durationTicks": 24,
          "midi": 40,
          "name": "E2",
          "ticks": 10776,
          "time": 66.02937875,
          "velocity": 0.7874015748031497
        },
        {
          "duration": 0.14705874999999935,
          "durationTicks": 24,
          "midi": 36,
          "name": "C2",
          "ticks": 10800,
          "time": 66.1764375,
          "velocity": 0.7874015748031497
        },
        {
          "duration": 0.14705874999999935,
          "durationTicks": 24,
          "midi": 36,
          "name": "C2",
          "ticks": 10824,
          "time": 66.32349625,
          "velocity": 0.7874015748031497
        },
        {
          "duration": 0.14705874999999935,
          "durationTicks": 24,
          "midi": 34,
          "name": "A#1",
          "ticks": 10848,
          "time": 66.470555,
          "velocity": 0.7874015748031497
        },
        {
          "duration": 0.14705874999999935,
          "durationTicks": 24,
          "midi": 34,
          "name": "A#1",
          "ticks": 10872,
          "time": 66.61761375,
          "velocity": 0.7874015748031497
        },
        {
          "duration": 0.14705874999999935,
          "durationTicks": 24,
          "midi": 34,
          "name": "A#1",
          "ticks": 10896,
          "time": 66.7646725,
          "velocity": 0.7874015748031497
        },
        {
          "duration": 0.14705874999999935,
          "durationTicks": 24,
          "midi": 34,
          "name": "A#1",
          "ticks": 10920,
          "time": 66.91173125,
          "velocity": 0.7874015748031497
        },
        {
          "duration": 0.14705874999999935,
          "durationTicks": 24,
          "midi": 34,
          "name": "A#1",
          "ticks": 10944,
          "time": 67.05879,
          "velocity": 0.7874015748031497
        },
        {
          "duration": 0.14705874999999935,
          "durationTicks": 24,
          "midi": 34,
          "name": "A#1",
          "ticks": 10968,
          "time": 67.20584875,
          "velocity": 0.7874015748031497
        },
        {
          "duration": 0.14705875000001356,
          "durationTicks": 24,
          "midi": 34,
          "name": "A#1",
          "ticks": 10992,
          "time": 67.3529075,
          "velocity": 0.7874015748031497
        },
        {
          "duration": 0.14705874999999935,
          "durationTicks": 24,
          "midi": 34,
          "name": "A#1",
          "ticks": 11016,
          "time": 67.49996625000001,
          "velocity": 0.7874015748031497
        },
        {
          "duration": 0.14705874999999935,
          "durationTicks": 24,
          "midi": 34,
          "name": "A#1",
          "ticks": 11040,
          "time": 67.64702500000001,
          "velocity": 0.7874015748031497
        },
        {
          "duration": 0.14705874999999935,
          "durationTicks": 24,
          "midi": 34,
          "name": "A#1",
          "ticks": 11064,
          "time": 67.79408375000001,
          "velocity": 0.7874015748031497
        },
        {
          "duration": 0.14705874999999935,
          "durationTicks": 24,
          "midi": 34,
          "name": "A#1",
          "ticks": 11088,
          "time": 67.94114250000001,
          "velocity": 0.7874015748031497
        },
        {
          "duration": 0.14705874999999935,
          "durationTicks": 24,
          "midi": 34,
          "name": "A#1",
          "ticks": 11112,
          "time": 68.08820125000001,
          "velocity": 0.7874015748031497
        },
        {
          "duration": 0.14705874999999935,
          "durationTicks": 24,
          "midi": 34,
          "name": "A#1",
          "ticks": 11136,
          "time": 68.23526000000001,
          "velocity": 0.7874015748031497
        },
        {
          "duration": 0.14705874999999935,
          "durationTicks": 24,
          "midi": 34,
          "name": "A#1",
          "ticks": 11160,
          "time": 68.38231875000001,
          "velocity": 0.7874015748031497
        },
        {
          "duration": 0.14705874999999935,
          "durationTicks": 24,
          "midi": 34,
          "name": "A#1",
          "ticks": 11184,
          "time": 68.52937750000001,
          "velocity": 0.7874015748031497
        },
        {
          "duration": 0.14705874999999935,
          "durationTicks": 24,
          "midi": 34,
          "name": "A#1",
          "ticks": 11208,
          "time": 68.67643625000001,
          "velocity": 0.7874015748031497
        },
        {
          "duration": 0.14705874999999935,
          "durationTicks": 24,
          "midi": 36,
          "name": "C2",
          "ticks": 11232,
          "time": 68.82349500000001,
          "velocity": 0.7874015748031497
        },
        {
          "duration": 0.14705874999999935,
          "durationTicks": 24,
          "midi": 36,
          "name": "C2",
          "ticks": 11256,
          "time": 68.97055375000001,
          "velocity": 0.7874015748031497
        },
        {
          "duration": 0.14705874999999935,
          "durationTicks": 24,
          "midi": 36,
          "name": "C2",
          "ticks": 11280,
          "time": 69.1176125,
          "velocity": 0.7874015748031497
        },
        {
          "duration": 0.14705874999999935,
          "durationTicks": 24,
          "midi": 36,
          "name": "C2",
          "ticks": 11304,
          "time": 69.26467125,
          "velocity": 0.7874015748031497
        },
        {
          "duration": 0.14705874999999935,
          "durationTicks": 24,
          "midi": 36,
          "name": "C2",
          "ticks": 11328,
          "time": 69.41173,
          "velocity": 0.7874015748031497
        },
        {
          "duration": 0.14705874999999935,
          "durationTicks": 24,
          "midi": 36,
          "name": "C2",
          "ticks": 11352,
          "time": 69.55878875,
          "velocity": 0.7874015748031497
        },
        {
          "duration": 0.14705874999999935,
          "durationTicks": 24,
          "midi": 36,
          "name": "C2",
          "ticks": 11376,
          "time": 69.7058475,
          "velocity": 0.7874015748031497
        },
        {
          "duration": 0.14705874999999935,
          "durationTicks": 24,
          "midi": 36,
          "name": "C2",
          "ticks": 11400,
          "time": 69.85290625,
          "velocity": 0.7874015748031497
        },
        {
          "duration": 0.14705874999999935,
          "durationTicks": 24,
          "midi": 36,
          "name": "C2",
          "ticks": 11424,
          "time": 69.999965,
          "velocity": 0.7874015748031497
        },
        {
          "duration": 0.14705874999999935,
          "durationTicks": 24,
          "midi": 36,
          "name": "C2",
          "ticks": 11448,
          "time": 70.14702375,
          "velocity": 0.7874015748031497
        },
        {
          "duration": 0.14705874999999935,
          "durationTicks": 24,
          "midi": 36,
          "name": "C2",
          "ticks": 11472,
          "time": 70.2940825,
          "velocity": 0.7874015748031497
        },
        {
          "duration": 0.14705874999999935,
          "durationTicks": 24,
          "midi": 36,
          "name": "C2",
          "ticks": 11496,
          "time": 70.44114125,
          "velocity": 0.7874015748031497
        },
        {
          "duration": 0.14705875000001356,
          "durationTicks": 24,
          "midi": 36,
          "name": "C2",
          "ticks": 11520,
          "time": 70.5882,
          "velocity": 0.7874015748031497
        },
        {
          "duration": 0.14705874999999935,
          "durationTicks": 24,
          "midi": 36,
          "name": "C2",
          "ticks": 11544,
          "time": 70.73525875000001,
          "velocity": 0.7874015748031497
        },
        {
          "duration": 0.14705874999999935,
          "durationTicks": 24,
          "midi": 36,
          "name": "C2",
          "ticks": 11568,
          "time": 70.88231750000001,
          "velocity": 0.7874015748031497
        },
        {
          "duration": 0.14705874999999935,
          "durationTicks": 24,
          "midi": 36,
          "name": "C2",
          "ticks": 11592,
          "time": 71.02937625000001,
          "velocity": 0.7874015748031497
        },
        {
          "duration": 0.14705874999999935,
          "durationTicks": 24,
          "midi": 41,
          "name": "F2",
          "ticks": 11616,
          "time": 71.17643500000001,
          "velocity": 0.7874015748031497
        },
        {
          "duration": 0.14705874999999935,
          "durationTicks": 24,
          "midi": 41,
          "name": "F2",
          "ticks": 11640,
          "time": 71.32349375000001,
          "velocity": 0.7874015748031497
        },
        {
          "duration": 0.14705874999999935,
          "durationTicks": 24,
          "midi": 41,
          "name": "F2",
          "ticks": 11664,
          "time": 71.47055250000001,
          "velocity": 0.7874015748031497
        },
        {
          "duration": 0.14705874999999935,
          "durationTicks": 24,
          "midi": 41,
          "name": "F2",
          "ticks": 11688,
          "time": 71.61761125000001,
          "velocity": 0.7874015748031497
        },
        {
          "duration": 0.14705874999999935,
          "durationTicks": 24,
          "midi": 41,
          "name": "F2",
          "ticks": 11712,
          "time": 71.76467000000001,
          "velocity": 0.7874015748031497
        },
        {
          "duration": 0.14705874999999935,
          "durationTicks": 24,
          "midi": 41,
          "name": "F2",
          "ticks": 11736,
          "time": 71.91172875000001,
          "velocity": 0.7874015748031497
        },
        {
          "duration": 0.14705874999999935,
          "durationTicks": 24,
          "midi": 41,
          "name": "F2",
          "ticks": 11760,
          "time": 72.05878750000001,
          "velocity": 0.7874015748031497
        },
        {
          "duration": 0.14705874999999935,
          "durationTicks": 24,
          "midi": 41,
          "name": "F2",
          "ticks": 11784,
          "time": 72.20584625000001,
          "velocity": 0.7874015748031497
        },
        {
          "duration": 0.14705874999999935,
          "durationTicks": 24,
          "midi": 41,
          "name": "F2",
          "ticks": 11808,
          "time": 72.352905,
          "velocity": 0.7874015748031497
        },
        {
          "duration": 0.14705874999999935,
          "durationTicks": 24,
          "midi": 41,
          "name": "F2",
          "ticks": 11832,
          "time": 72.49996375,
          "velocity": 0.7874015748031497
        },
        {
          "duration": 0.14705874999999935,
          "durationTicks": 24,
          "midi": 41,
          "name": "F2",
          "ticks": 11856,
          "time": 72.6470225,
          "velocity": 0.7874015748031497
        },
        {
          "duration": 0.14705874999999935,
          "durationTicks": 24,
          "midi": 41,
          "name": "F2",
          "ticks": 11880,
          "time": 72.79408125,
          "velocity": 0.7874015748031497
        },
        {
          "duration": 0.14705874999999935,
          "durationTicks": 24,
          "midi": 41,
          "name": "F2",
          "ticks": 11904,
          "time": 72.94114,
          "velocity": 0.7874015748031497
        },
        {
          "duration": 0.14705874999999935,
          "durationTicks": 24,
          "midi": 41,
          "name": "F2",
          "ticks": 11928,
          "time": 73.08819875,
          "velocity": 0.7874015748031497
        },
        {
          "duration": 0.14705874999999935,
          "durationTicks": 24,
          "midi": 41,
          "name": "F2",
          "ticks": 11952,
          "time": 73.2352575,
          "velocity": 0.7874015748031497
        },
        {
          "duration": 0.14705874999999935,
          "durationTicks": 24,
          "midi": 41,
          "name": "F2",
          "ticks": 11976,
          "time": 73.38231625,
          "velocity": 0.7874015748031497
        },
        {
          "duration": 0.14705874999999935,
          "durationTicks": 24,
          "midi": 43,
          "name": "G2",
          "ticks": 12000,
          "time": 73.529375,
          "velocity": 0.7874015748031497
        },
        {
          "duration": 0.14705875000001356,
          "durationTicks": 24,
          "midi": 43,
          "name": "G2",
          "ticks": 12024,
          "time": 73.67643375,
          "velocity": 0.7874015748031497
        },
        {
          "duration": 0.14705874999999935,
          "durationTicks": 24,
          "midi": 43,
          "name": "G2",
          "ticks": 12048,
          "time": 73.82349250000001,
          "velocity": 0.7874015748031497
        },
        {
          "duration": 0.14705874999999935,
          "durationTicks": 24,
          "midi": 43,
          "name": "G2",
          "ticks": 12072,
          "time": 73.97055125000001,
          "velocity": 0.7874015748031497
        },
        {
          "duration": 0.14705874999999935,
          "durationTicks": 24,
          "midi": 43,
          "name": "G2",
          "ticks": 12096,
          "time": 74.11761000000001,
          "velocity": 0.7874015748031497
        },
        {
          "duration": 0.14705874999999935,
          "durationTicks": 24,
          "midi": 43,
          "name": "G2",
          "ticks": 12120,
          "time": 74.26466875000001,
          "velocity": 0.7874015748031497
        },
        {
          "duration": 0.14705874999999935,
          "durationTicks": 24,
          "midi": 43,
          "name": "G2",
          "ticks": 12144,
          "time": 74.41172750000001,
          "velocity": 0.7874015748031497
        },
        {
          "duration": 0.14705874999999935,
          "durationTicks": 24,
          "midi": 43,
          "name": "G2",
          "ticks": 12168,
          "time": 74.55878625000001,
          "velocity": 0.7874015748031497
        },
        {
          "duration": 0.14705874999999935,
          "durationTicks": 24,
          "midi": 43,
          "name": "G2",
          "ticks": 12192,
          "time": 74.70584500000001,
          "velocity": 0.7874015748031497
        },
        {
          "duration": 0.14705874999999935,
          "durationTicks": 24,
          "midi": 43,
          "name": "G2",
          "ticks": 12216,
          "time": 74.85290375000001,
          "velocity": 0.7874015748031497
        },
        {
          "duration": 0.14705874999999935,
          "durationTicks": 24,
          "midi": 43,
          "name": "G2",
          "ticks": 12240,
          "time": 74.99996250000001,
          "velocity": 0.7874015748031497
        },
        {
          "duration": 0.14705874999999935,
          "durationTicks": 24,
          "midi": 43,
          "name": "G2",
          "ticks": 12264,
          "time": 75.14702125000001,
          "velocity": 0.7874015748031497
        },
        {
          "duration": 0.14705874999999935,
          "durationTicks": 24,
          "midi": 43,
          "name": "G2",
          "ticks": 12288,
          "time": 75.29408000000001,
          "velocity": 0.7874015748031497
        },
        {
          "duration": 0.14705874999999935,
          "durationTicks": 24,
          "midi": 43,
          "name": "G2",
          "ticks": 12312,
          "time": 75.44113875000001,
          "velocity": 0.7874015748031497
        },
        {
          "duration": 0.14705874999999935,
          "durationTicks": 24,
          "midi": 43,
          "name": "G2",
          "ticks": 12336,
          "time": 75.5881975,
          "velocity": 0.7874015748031497
        },
        {
          "duration": 0.14705874999999935,
          "durationTicks": 24,
          "midi": 43,
          "name": "G2",
          "ticks": 12360,
          "time": 75.73525625,
          "velocity": 0.7874015748031497
        },
        {
          "duration": 0.14705874999999935,
          "durationTicks": 24,
          "midi": 38,
          "name": "D2",
          "ticks": 12384,
          "time": 75.882315,
          "velocity": 0.7874015748031497
        },
        {
          "duration": 0.14705874999999935,
          "durationTicks": 24,
          "midi": 38,
          "name": "D2",
          "ticks": 12408,
          "time": 76.02937375,
          "velocity": 0.7874015748031497
        },
        {
          "duration": 0.14705874999999935,
          "durationTicks": 24,
          "midi": 38,
          "name": "D2",
          "ticks": 12432,
          "time": 76.1764325,
          "velocity": 0.7874015748031497
        },
        {
          "duration": 0.14705874999999935,
          "durationTicks": 24,
          "midi": 38,
          "name": "D2",
          "ticks": 12456,
          "time": 76.32349125,
          "velocity": 0.7874015748031497
        },
        {
          "duration": 0.14705874999999935,
          "durationTicks": 24,
          "midi": 38,
          "name": "D2",
          "ticks": 12480,
          "time": 76.47055,
          "velocity": 0.7874015748031497
        },
        {
          "duration": 0.14705874999999935,
          "durationTicks": 24,
          "midi": 38,
          "name": "D2",
          "ticks": 12504,
          "time": 76.61760875,
          "velocity": 0.7874015748031497
        },
        {
          "duration": 0.14705875000001356,
          "durationTicks": 24,
          "midi": 38,
          "name": "D2",
          "ticks": 12528,
          "time": 76.7646675,
          "velocity": 0.7874015748031497
        },
        {
          "duration": 0.14705874999999935,
          "durationTicks": 24,
          "midi": 38,
          "name": "D2",
          "ticks": 12552,
          "time": 76.91172625000002,
          "velocity": 0.7874015748031497
        },
        {
          "duration": 0.14705874999999935,
          "durationTicks": 24,
          "midi": 38,
          "name": "D2",
          "ticks": 12576,
          "time": 77.05878500000001,
          "velocity": 0.7874015748031497
        },
        {
          "duration": 0.14705874999999935,
          "durationTicks": 24,
          "midi": 38,
          "name": "D2",
          "ticks": 12600,
          "time": 77.20584375000001,
          "velocity": 0.7874015748031497
        },
        {
          "duration": 0.14705874999999935,
          "durationTicks": 24,
          "midi": 38,
          "name": "D2",
          "ticks": 12624,
          "time": 77.35290250000001,
          "velocity": 0.7874015748031497
        },
        {
          "duration": 0.14705874999999935,
          "durationTicks": 24,
          "midi": 38,
          "name": "D2",
          "ticks": 12648,
          "time": 77.49996125000001,
          "velocity": 0.7874015748031497
        },
        {
          "duration": 0.14705874999999935,
          "durationTicks": 24,
          "midi": 38,
          "name": "D2",
          "ticks": 12672,
          "time": 77.64702000000001,
          "velocity": 0.7874015748031497
        },
        {
          "duration": 0.14705874999999935,
          "durationTicks": 24,
          "midi": 38,
          "name": "D2",
          "ticks": 12696,
          "time": 77.79407875000001,
          "velocity": 0.7874015748031497
        },
        {
          "duration": 0.14705874999999935,
          "durationTicks": 24,
          "midi": 38,
          "name": "D2",
          "ticks": 12720,
          "time": 77.94113750000001,
          "velocity": 0.7874015748031497
        },
        {
          "duration": 0.14705874999999935,
          "durationTicks": 24,
          "midi": 38,
          "name": "D2",
          "ticks": 12744,
          "time": 78.08819625000001,
          "velocity": 0.7874015748031497
        },
        {
          "duration": 0.14705874999999935,
          "durationTicks": 24,
          "midi": 34,
          "name": "A#1",
          "ticks": 12768,
          "time": 78.23525500000001,
          "velocity": 0.7874015748031497
        },
        {
          "duration": 0.14705874999999935,
          "durationTicks": 24,
          "midi": 34,
          "name": "A#1",
          "ticks": 12792,
          "time": 78.38231375000001,
          "velocity": 0.7874015748031497
        },
        {
          "duration": 0.14705874999999935,
          "durationTicks": 24,
          "midi": 34,
          "name": "A#1",
          "ticks": 12816,
          "time": 78.52937250000001,
          "velocity": 0.7874015748031497
        },
        {
          "duration": 0.14705874999999935,
          "durationTicks": 24,
          "midi": 34,
          "name": "A#1",
          "ticks": 12840,
          "time": 78.67643125000001,
          "velocity": 0.7874015748031497
        },
        {
          "duration": 0.14705874999999935,
          "durationTicks": 24,
          "midi": 34,
          "name": "A#1",
          "ticks": 12864,
          "time": 78.82349,
          "velocity": 0.7874015748031497
        },
        {
          "duration": 0.14705874999999935,
          "durationTicks": 24,
          "midi": 34,
          "name": "A#1",
          "ticks": 12888,
          "time": 78.97054875,
          "velocity": 0.7874015748031497
        },
        {
          "duration": 0.14705874999999935,
          "durationTicks": 24,
          "midi": 34,
          "name": "A#1",
          "ticks": 12912,
          "time": 79.1176075,
          "velocity": 0.7874015748031497
        },
        {
          "duration": 0.14705874999999935,
          "durationTicks": 24,
          "midi": 34,
          "name": "A#1",
          "ticks": 12936,
          "time": 79.26466625,
          "velocity": 0.7874015748031497
        },
        {
          "duration": 0.14705874999999935,
          "durationTicks": 24,
          "midi": 34,
          "name": "A#1",
          "ticks": 12960,
          "time": 79.411725,
          "velocity": 0.7874015748031497
        },
        {
          "duration": 0.14705874999999935,
          "durationTicks": 24,
          "midi": 34,
          "name": "A#1",
          "ticks": 12984,
          "time": 79.55878375,
          "velocity": 0.7874015748031497
        },
        {
          "duration": 0.14705874999999935,
          "durationTicks": 24,
          "midi": 34,
          "name": "A#1",
          "ticks": 13008,
          "time": 79.7058425,
          "velocity": 0.7874015748031497
        },
        {
          "duration": 0.14705875000001356,
          "durationTicks": 24,
          "midi": 34,
          "name": "A#1",
          "ticks": 13032,
          "time": 79.85290125,
          "velocity": 0.7874015748031497
        },
        {
          "duration": 0.14705874999999935,
          "durationTicks": 24,
          "midi": 34,
          "name": "A#1",
          "ticks": 13056,
          "time": 79.99996000000002,
          "velocity": 0.7874015748031497
        },
        {
          "duration": 0.14705874999999935,
          "durationTicks": 24,
          "midi": 34,
          "name": "A#1",
          "ticks": 13080,
          "time": 80.14701875000002,
          "velocity": 0.7874015748031497
        },
        {
          "duration": 0.14705874999999935,
          "durationTicks": 24,
          "midi": 34,
          "name": "A#1",
          "ticks": 13104,
          "time": 80.29407750000001,
          "velocity": 0.7874015748031497
        },
        {
          "duration": 0.14705874999999935,
          "durationTicks": 24,
          "midi": 34,
          "name": "A#1",
          "ticks": 13128,
          "time": 80.44113625000001,
          "velocity": 0.7874015748031497
        },
        {
          "duration": 0.44117624999999805,
          "durationTicks": 72,
          "midi": 33,
          "name": "A1",
          "ticks": 13152,
          "time": 80.58819500000001,
          "velocity": 0.7874015748031497
        },
        {
          "duration": 0.44117624999999805,
          "durationTicks": 72,
          "midi": 33,
          "name": "A1",
          "ticks": 13224,
          "time": 81.02937125000001,
          "velocity": 0.7874015748031497
        },
        {
          "duration": 0.44117624999999805,
          "durationTicks": 72,
          "midi": 33,
          "name": "A1",
          "ticks": 13296,
          "time": 81.47054750000001,
          "velocity": 0.7874015748031497
        },
        {
          "duration": 0.44117624999999805,
          "durationTicks": 72,
          "midi": 33,
          "name": "A1",
          "ticks": 13368,
          "time": 81.91172375000001,
          "velocity": 0.7874015748031497
        },
        {
          "duration": 0.14705874999999935,
          "durationTicks": 24,
          "midi": 33,
          "name": "A1",
          "ticks": 13440,
          "time": 82.3529,
          "velocity": 0.7874015748031497
        },
        {
          "duration": 0.14705874999999935,
          "durationTicks": 24,
          "midi": 33,
          "name": "A1",
          "ticks": 13464,
          "time": 82.49995875,
          "velocity": 0.7874015748031497
        },
        {
          "duration": 0.14705874999999935,
          "durationTicks": 24,
          "midi": 33,
          "name": "A1",
          "ticks": 13488,
          "time": 82.6470175,
          "velocity": 0.7874015748031497
        },
        {
          "duration": 0.14705874999999935,
          "durationTicks": 24,
          "midi": 33,
          "name": "A1",
          "ticks": 13512,
          "time": 82.79407625,
          "velocity": 0.7874015748031497
        },
        {
          "duration": 0.44117625000001226,
          "durationTicks": 72,
          "midi": 33,
          "name": "A1",
          "ticks": 13536,
          "time": 82.941135,
          "velocity": 0.7874015748031497
        },
        {
          "duration": 0.44117624999999805,
          "durationTicks": 72,
          "midi": 33,
          "name": "A1",
          "ticks": 13608,
          "time": 83.38231125000001,
          "velocity": 0.7874015748031497
        },
        {
          "duration": 0.44117624999999805,
          "durationTicks": 72,
          "midi": 33,
          "name": "A1",
          "ticks": 13680,
          "time": 83.82348750000001,
          "velocity": 0.7874015748031497
        },
        {
          "duration": 0.44117624999999805,
          "durationTicks": 72,
          "midi": 33,
          "name": "A1",
          "ticks": 13752,
          "time": 84.26466375000001,
          "velocity": 0.7874015748031497
        },
        {
          "duration": 0.14705874999999935,
          "durationTicks": 24,
          "midi": 33,
          "name": "A1",
          "ticks": 13824,
          "time": 84.70584000000001,
          "velocity": 0.7874015748031497
        },
        {
          "duration": 0.14705874999999935,
          "durationTicks": 24,
          "midi": 33,
          "name": "A1",
          "ticks": 13848,
          "time": 84.85289875000001,
          "velocity": 0.7874015748031497
        },
        {
          "duration": 0.14705874999999935,
          "durationTicks": 24,
          "midi": 33,
          "name": "A1",
          "ticks": 13872,
          "time": 84.99995750000001,
          "velocity": 0.7874015748031497
        },
        {
          "duration": 0.14705874999999935,
          "durationTicks": 24,
          "midi": 33,
          "name": "A1",
          "ticks": 13896,
          "time": 85.14701625000001,
          "velocity": 0.7874015748031497
        },
        {
          "duration": 0.14705874999999935,
          "durationTicks": 24,
          "midi": 33,
          "name": "A1",
          "ticks": 13920,
          "time": 85.294075,
          "velocity": 0.7874015748031497
        },
        {
          "duration": 0.14705874999999935,
          "durationTicks": 24,
          "midi": 33,
          "name": "A1",
          "ticks": 13944,
          "time": 85.44113375,
          "velocity": 0.7874015748031497
        },
        {
          "duration": 0.14705874999999935,
          "durationTicks": 24,
          "midi": 45,
          "name": "A2",
          "ticks": 13968,
          "time": 85.5881925,
          "velocity": 0.7874015748031497
        },
        {
          "duration": 0.14705874999999935,
          "durationTicks": 24,
          "midi": 33,
          "name": "A1",
          "ticks": 13992,
          "time": 85.73525125,
          "velocity": 0.7874015748031497
        },
        {
          "duration": 0.14705874999999935,
          "durationTicks": 24,
          "midi": 33,
          "name": "A1",
          "ticks": 14016,
          "time": 85.88231,
          "velocity": 0.7874015748031497
        },
        {
          "duration": 0.14705874999999935,
          "durationTicks": 24,
          "midi": 43,
          "name": "G2",
          "ticks": 14040,
          "time": 86.02936875,
          "velocity": 0.7874015748031497
        },
        {
          "duration": 0.14705875000001356,
          "durationTicks": 24,
          "midi": 45,
          "name": "A2",
          "ticks": 14064,
          "time": 86.1764275,
          "velocity": 0.7874015748031497
        },
        {
          "duration": 0.14705874999999935,
          "durationTicks": 24,
          "midi": 33,
          "name": "A1",
          "ticks": 14088,
          "time": 86.32348625000002,
          "velocity": 0.7874015748031497
        },
        {
          "duration": 0.14705874999999935,
          "durationTicks": 24,
          "midi": 33,
          "name": "A1",
          "ticks": 14112,
          "time": 86.47054500000002,
          "velocity": 0.7874015748031497
        },
        {
          "duration": 0.14705874999999935,
          "durationTicks": 24,
          "midi": 43,
          "name": "G2",
          "ticks": 14136,
          "time": 86.61760375000001,
          "velocity": 0.7874015748031497
        },
        {
          "duration": 0.14705874999999935,
          "durationTicks": 24,
          "midi": 45,
          "name": "A2",
          "ticks": 14160,
          "time": 86.76466250000001,
          "velocity": 0.7874015748031497
        },
        {
          "duration": 0.14705874999999935,
          "durationTicks": 24,
          "midi": 43,
          "name": "G2",
          "ticks": 14184,
          "time": 86.91172125000001,
          "velocity": 0.7874015748031497
        },
        {
          "duration": 0.14705874999999935,
          "durationTicks": 24,
          "midi": 45,
          "name": "A2",
          "ticks": 14208,
          "time": 87.05878000000001,
          "velocity": 0.7874015748031497
        },
        {
          "duration": 0.14705874999999935,
          "durationTicks": 24,
          "midi": 33,
          "name": "A1",
          "ticks": 14232,
          "time": 87.20583875000001,
          "velocity": 0.7874015748031497
        },
        {
          "duration": 0.14705874999999935,
          "durationTicks": 24,
          "midi": 43,
          "name": "G2",
          "ticks": 14256,
          "time": 87.35289750000001,
          "velocity": 0.7874015748031497
        },
        {
          "duration": 0.14705874999999935,
          "durationTicks": 24,
          "midi": 45,
          "name": "A2",
          "ticks": 14280,
          "time": 87.49995625000001,
          "velocity": 0.7874015748031497
        },
        {
          "duration": 0.14705874999999935,
          "durationTicks": 24,
          "midi": 33,
          "name": "A1",
          "ticks": 14304,
          "time": 87.64701500000001,
          "velocity": 0.7874015748031497
        },
        {
          "duration": 0.14705874999999935,
          "durationTicks": 24,
          "midi": 33,
          "name": "A1",
          "ticks": 14328,
          "time": 87.79407375000001,
          "velocity": 0.7874015748031497
        },
        {
          "duration": 0.14705874999999935,
          "durationTicks": 24,
          "midi": 45,
          "name": "A2",
          "ticks": 14352,
          "time": 87.94113250000001,
          "velocity": 0.7874015748031497
        },
        {
          "duration": 0.14705874999999935,
          "durationTicks": 24,
          "midi": 33,
          "name": "A1",
          "ticks": 14376,
          "time": 88.08819125000001,
          "velocity": 0.7874015748031497
        },
        {
          "duration": 0.14705874999999935,
          "durationTicks": 24,
          "midi": 33,
          "name": "A1",
          "ticks": 14400,
          "time": 88.23525000000001,
          "velocity": 0.7874015748031497
        },
        {
          "duration": 0.14705874999999935,
          "durationTicks": 24,
          "midi": 43,
          "name": "G2",
          "ticks": 14424,
          "time": 88.38230875,
          "velocity": 0.7874015748031497
        },
        {
          "duration": 0.14705874999999935,
          "durationTicks": 24,
          "midi": 45,
          "name": "A2",
          "ticks": 14448,
          "time": 88.5293675,
          "velocity": 0.7874015748031497
        },
        {
          "duration": 0.14705874999999935,
          "durationTicks": 24,
          "midi": 33,
          "name": "A1",
          "ticks": 14472,
          "time": 88.67642625,
          "velocity": 0.7874015748031497
        },
        {
          "duration": 0.14705874999999935,
          "durationTicks": 24,
          "midi": 33,
          "name": "A1",
          "ticks": 14496,
          "time": 88.823485,
          "velocity": 0.7874015748031497
        },
        {
          "duration": 0.14705874999999935,
          "durationTicks": 24,
          "midi": 43,
          "name": "G2",
          "ticks": 14520,
          "time": 88.97054375,
          "velocity": 0.7874015748031497
        },
        {
          "duration": 0.14705874999999935,
          "durationTicks": 24,
          "midi": 45,
          "name": "A2",
          "ticks": 14544,
          "time": 89.1176025,
          "velocity": 0.7874015748031497
        },
        {
          "duration": 0.14705874999999935,
          "durationTicks": 24,
          "midi": 43,
          "name": "G2",
          "ticks": 14568,
          "time": 89.26466125,
          "velocity": 0.7874015748031497
        },
        {
          "duration": 0.14705875000001356,
          "durationTicks": 24,
          "midi": 45,
          "name": "A2",
          "ticks": 14592,
          "time": 89.41172,
          "velocity": 0.7874015748031497
        },
        {
          "duration": 0.14705874999999935,
          "durationTicks": 24,
          "midi": 33,
          "name": "A1",
          "ticks": 14616,
          "time": 89.55877875000002,
          "velocity": 0.7874015748031497
        },
        {
          "duration": 0.14705874999999935,
          "durationTicks": 24,
          "midi": 43,
          "name": "G2",
          "ticks": 14640,
          "time": 89.70583750000002,
          "velocity": 0.7874015748031497
        },
        {
          "duration": 0.14705874999999935,
          "durationTicks": 24,
          "midi": 45,
          "name": "A2",
          "ticks": 14664,
          "time": 89.85289625000001,
          "velocity": 0.7874015748031497
        },
        {
          "duration": 0.14705874999999935,
          "durationTicks": 24,
          "midi": 33,
          "name": "A1",
          "ticks": 14688,
          "time": 89.99995500000001,
          "velocity": 0.7874015748031497
        },
        {
          "duration": 0.14705874999999935,
          "durationTicks": 24,
          "midi": 33,
          "name": "A1",
          "ticks": 14712,
          "time": 90.14701375000001,
          "velocity": 0.7874015748031497
        },
        {
          "duration": 0.14705874999999935,
          "durationTicks": 24,
          "midi": 45,
          "name": "A2",
          "ticks": 14736,
          "time": 90.29407250000001,
          "velocity": 0.7874015748031497
        },
        {
          "duration": 0.14705874999999935,
          "durationTicks": 24,
          "midi": 33,
          "name": "A1",
          "ticks": 14760,
          "time": 90.44113125000001,
          "velocity": 0.7874015748031497
        },
        {
          "duration": 0.14705874999999935,
          "durationTicks": 24,
          "midi": 33,
          "name": "A1",
          "ticks": 14784,
          "time": 90.58819000000001,
          "velocity": 0.7874015748031497
        },
        {
          "duration": 0.14705874999999935,
          "durationTicks": 24,
          "midi": 43,
          "name": "G2",
          "ticks": 14808,
          "time": 90.73524875000001,
          "velocity": 0.7874015748031497
        },
        {
          "duration": 0.14705874999999935,
          "durationTicks": 24,
          "midi": 45,
          "name": "A2",
          "ticks": 14832,
          "time": 90.88230750000001,
          "velocity": 0.7874015748031497
        },
        {
          "duration": 0.14705874999999935,
          "durationTicks": 24,
          "midi": 33,
          "name": "A1",
          "ticks": 14856,
          "time": 91.02936625000001,
          "velocity": 0.7874015748031497
        },
        {
          "duration": 0.14705874999999935,
          "durationTicks": 24,
          "midi": 33,
          "name": "A1",
          "ticks": 14880,
          "time": 91.17642500000001,
          "velocity": 0.7874015748031497
        },
        {
          "duration": 0.14705874999999935,
          "durationTicks": 24,
          "midi": 43,
          "name": "G2",
          "ticks": 14904,
          "time": 91.32348375000001,
          "velocity": 0.7874015748031497
        },
        {
          "duration": 0.14705874999999935,
          "durationTicks": 24,
          "midi": 45,
          "name": "A2",
          "ticks": 14928,
          "time": 91.47054250000001,
          "velocity": 0.7874015748031497
        },
        {
          "duration": 0.14705874999999935,
          "durationTicks": 24,
          "midi": 43,
          "name": "G2",
          "ticks": 14952,
          "time": 91.61760125,
          "velocity": 0.7874015748031497
        },
        {
          "duration": 0.14705874999999935,
          "durationTicks": 24,
          "midi": 45,
          "name": "A2",
          "ticks": 14976,
          "time": 91.76466,
          "velocity": 0.7874015748031497
        },
        {
          "duration": 0.14705874999999935,
          "durationTicks": 24,
          "midi": 33,
          "name": "A1",
          "ticks": 15000,
          "time": 91.91171875,
          "velocity": 0.7874015748031497
        },
        {
          "duration": 0.14705874999999935,
          "durationTicks": 24,
          "midi": 43,
          "name": "G2",
          "ticks": 15024,
          "time": 92.0587775,
          "velocity": 0.7874015748031497
        },
        {
          "duration": 0.14705874999999935,
          "durationTicks": 24,
          "midi": 45,
          "name": "A2",
          "ticks": 15048,
          "time": 92.20583625,
          "velocity": 0.7874015748031497
        },
        {
          "duration": 0.14705874999999935,
          "durationTicks": 24,
          "midi": 33,
          "name": "A1",
          "ticks": 15072,
          "time": 92.352895,
          "velocity": 0.7874015748031497
        },
        {
          "duration": 0.14705875000001356,
          "durationTicks": 24,
          "midi": 33,
          "name": "A1",
          "ticks": 15096,
          "time": 92.49995375,
          "velocity": 0.7874015748031497
        },
        {
          "duration": 0.14705874999999935,
          "durationTicks": 24,
          "midi": 45,
          "name": "A2",
          "ticks": 15120,
          "time": 92.64701250000002,
          "velocity": 0.7874015748031497
        },
        {
          "duration": 0.14705874999999935,
          "durationTicks": 24,
          "midi": 33,
          "name": "A1",
          "ticks": 15144,
          "time": 92.79407125000002,
          "velocity": 0.7874015748031497
        },
        {
          "duration": 0.14705874999999935,
          "durationTicks": 24,
          "midi": 33,
          "name": "A1",
          "ticks": 15168,
          "time": 92.94113000000002,
          "velocity": 0.7874015748031497
        },
        {
          "duration": 0.14705874999999935,
          "durationTicks": 24,
          "midi": 43,
          "name": "G2",
          "ticks": 15192,
          "time": 93.08818875000001,
          "velocity": 0.7874015748031497
        },
        {
          "duration": 0.14705874999999935,
          "durationTicks": 24,
          "midi": 45,
          "name": "A2",
          "ticks": 15216,
          "time": 93.23524750000001,
          "velocity": 0.7874015748031497
        },
        {
          "duration": 0.14705874999999935,
          "durationTicks": 24,
          "midi": 33,
          "name": "A1",
          "ticks": 15240,
          "time": 93.38230625000001,
          "velocity": 0.7874015748031497
        },
        {
          "duration": 0.14705874999999935,
          "durationTicks": 24,
          "midi": 33,
          "name": "A1",
          "ticks": 15264,
          "time": 93.52936500000001,
          "velocity": 0.7874015748031497
        },
        {
          "duration": 0.14705874999999935,
          "durationTicks": 24,
          "midi": 43,
          "name": "G2",
          "ticks": 15288,
          "time": 93.67642375000001,
          "velocity": 0.7874015748031497
        },
        {
          "duration": 0.14705874999999935,
          "durationTicks": 24,
          "midi": 45,
          "name": "A2",
          "ticks": 15312,
          "time": 93.82348250000001,
          "velocity": 0.7874015748031497
        },
        {
          "duration": 0.14705874999999935,
          "durationTicks": 24,
          "midi": 43,
          "name": "G2",
          "ticks": 15336,
          "time": 93.97054125000001,
          "velocity": 0.7874015748031497
        },
        {
          "duration": 0.14705874999999935,
          "durationTicks": 24,
          "midi": 45,
          "name": "A2",
          "ticks": 15360,
          "time": 94.11760000000001,
          "velocity": 0.7874015748031497
        },
        {
          "duration": 0.14705874999999935,
          "durationTicks": 24,
          "midi": 33,
          "name": "A1",
          "ticks": 15384,
          "time": 94.26465875000001,
          "velocity": 0.7874015748031497
        },
        {
          "duration": 0.14705874999999935,
          "durationTicks": 24,
          "midi": 43,
          "name": "G2",
          "ticks": 15408,
          "time": 94.41171750000001,
          "velocity": 0.7874015748031497
        },
        {
          "duration": 0.14705874999999935,
          "durationTicks": 24,
          "midi": 45,
          "name": "A2",
          "ticks": 15432,
          "time": 94.55877625000001,
          "velocity": 0.7874015748031497
        },
        {
          "duration": 0.14705874999999935,
          "durationTicks": 24,
          "midi": 33,
          "name": "A1",
          "ticks": 15456,
          "time": 94.70583500000001,
          "velocity": 0.7874015748031497
        },
        {
          "duration": 0.14705874999999935,
          "durationTicks": 24,
          "midi": 33,
          "name": "A1",
          "ticks": 15480,
          "time": 94.85289375,
          "velocity": 0.7874015748031497
        },
        {
          "duration": 0.14705874999999935,
          "durationTicks": 24,
          "midi": 45,
          "name": "A2",
          "ticks": 15504,
          "time": 94.9999525,
          "velocity": 0.7874015748031497
        },
        {
          "duration": 0.14705874999999935,
          "durationTicks": 24,
          "midi": 33,
          "name": "A1",
          "ticks": 15528,
          "time": 95.14701125,
          "velocity": 0.7874015748031497
        },
        {
          "duration": 0.14705874999999935,
          "durationTicks": 24,
          "midi": 33,
          "name": "A1",
          "ticks": 15552,
          "time": 95.29407,
          "velocity": 0.7874015748031497
        },
        {
          "duration": 0.14705874999999935,
          "durationTicks": 24,
          "midi": 43,
          "name": "G2",
          "ticks": 15576,
          "time": 95.44112875,
          "velocity": 0.7874015748031497
        },
        {
          "duration": 0.14705875000001356,
          "durationTicks": 24,
          "midi": 45,
          "name": "A2",
          "ticks": 15600,
          "time": 95.5881875,
          "velocity": 0.7874015748031497
        },
        {
          "duration": 0.14705874999999935,
          "durationTicks": 24,
          "midi": 33,
          "name": "A1",
          "ticks": 15624,
          "time": 95.73524625000002,
          "velocity": 0.7874015748031497
        },
        {
          "duration": 0.14705874999999935,
          "durationTicks": 24,
          "midi": 33,
          "name": "A1",
          "ticks": 15648,
          "time": 95.88230500000002,
          "velocity": 0.7874015748031497
        },
        {
          "duration": 0.14705874999999935,
          "durationTicks": 24,
          "midi": 43,
          "name": "G2",
          "ticks": 15672,
          "time": 96.02936375000002,
          "velocity": 0.7874015748031497
        },
        {
          "duration": 0.14705874999999935,
          "durationTicks": 24,
          "midi": 45,
          "name": "A2",
          "ticks": 15696,
          "time": 96.17642250000002,
          "velocity": 0.7874015748031497
        },
        {
          "duration": 0.14705874999999935,
          "durationTicks": 24,
          "midi": 43,
          "name": "G2",
          "ticks": 15720,
          "time": 96.32348125000001,
          "velocity": 0.7874015748031497
        },
        {
          "duration": 0.14705874999999935,
          "durationTicks": 24,
          "midi": 45,
          "name": "A2",
          "ticks": 15744,
          "time": 96.47054000000001,
          "velocity": 0.7874015748031497
        },
        {
          "duration": 0.14705874999999935,
          "durationTicks": 24,
          "midi": 33,
          "name": "A1",
          "ticks": 15768,
          "time": 96.61759875000001,
          "velocity": 0.7874015748031497
        },
        {
          "duration": 0.14705874999999935,
          "durationTicks": 24,
          "midi": 43,
          "name": "G2",
          "ticks": 15792,
          "time": 96.76465750000001,
          "velocity": 0.7874015748031497
        },
        {
          "duration": 0.14705874999999935,
          "durationTicks": 24,
          "midi": 45,
          "name": "A2",
          "ticks": 15816,
          "time": 96.91171625000001,
          "velocity": 0.7874015748031497
        },
        {
          "duration": 0.14705874999999935,
          "durationTicks": 24,
          "midi": 33,
          "name": "A1",
          "ticks": 15840,
          "time": 97.05877500000001,
          "velocity": 0.7874015748031497
        },
        {
          "duration": 0.14705874999999935,
          "durationTicks": 24,
          "midi": 33,
          "name": "A1",
          "ticks": 15864,
          "time": 97.20583375000001,
          "velocity": 0.7874015748031497
        },
        {
          "duration": 0.14705874999999935,
          "durationTicks": 24,
          "midi": 45,
          "name": "A2",
          "ticks": 15888,
          "time": 97.35289250000001,
          "velocity": 0.7874015748031497
        },
        {
          "duration": 0.14705874999999935,
          "durationTicks": 24,
          "midi": 33,
          "name": "A1",
          "ticks": 15912,
          "time": 97.49995125000001,
          "velocity": 0.7874015748031497
        },
        {
          "duration": 0.14705874999999935,
          "durationTicks": 24,
          "midi": 33,
          "name": "A1",
          "ticks": 15936,
          "time": 97.64701000000001,
          "velocity": 0.7874015748031497
        },
        {
          "duration": 0.14705874999999935,
          "durationTicks": 24,
          "midi": 43,
          "name": "G2",
          "ticks": 15960,
          "time": 97.79406875000001,
          "velocity": 0.7874015748031497
        },
        {
          "duration": 0.14705874999999935,
          "durationTicks": 24,
          "midi": 45,
          "name": "A2",
          "ticks": 15984,
          "time": 97.94112750000001,
          "velocity": 0.7874015748031497
        },
        {
          "duration": 0.14705874999999935,
          "durationTicks": 24,
          "midi": 33,
          "name": "A1",
          "ticks": 16008,
          "time": 98.08818625,
          "velocity": 0.7874015748031497
        },
        {
          "duration": 0.14705874999999935,
          "durationTicks": 24,
          "midi": 33,
          "name": "A1",
          "ticks": 16032,
          "time": 98.235245,
          "velocity": 0.7874015748031497
        },
        {
          "duration": 0.14705874999999935,
          "durationTicks": 24,
          "midi": 43,
          "name": "G2",
          "ticks": 16056,
          "time": 98.38230375,
          "velocity": 0.7874015748031497
        },
        {
          "duration": 0.14705874999999935,
          "durationTicks": 24,
          "midi": 45,
          "name": "A2",
          "ticks": 16080,
          "time": 98.5293625,
          "velocity": 0.7874015748031497
        },
        {
          "duration": 0.14705875000001356,
          "durationTicks": 24,
          "midi": 43,
          "name": "G2",
          "ticks": 16104,
          "time": 98.67642125,
          "velocity": 0.7874015748031497
        },
        {
          "duration": 0.14705874999999935,
          "durationTicks": 24,
          "midi": 45,
          "name": "A2",
          "ticks": 16128,
          "time": 98.82348000000002,
          "velocity": 0.7874015748031497
        },
        {
          "duration": 0.14705874999999935,
          "durationTicks": 24,
          "midi": 33,
          "name": "A1",
          "ticks": 16152,
          "time": 98.97053875000002,
          "velocity": 0.7874015748031497
        },
        {
          "duration": 0.14705874999999935,
          "durationTicks": 24,
          "midi": 43,
          "name": "G2",
          "ticks": 16176,
          "time": 99.11759750000002,
          "velocity": 0.7874015748031497
        },
        {
          "duration": 0.14705874999999935,
          "durationTicks": 24,
          "midi": 45,
          "name": "A2",
          "ticks": 16200,
          "time": 99.26465625000002,
          "velocity": 0.7874015748031497
        },
        {
          "duration": 0.14705874999999935,
          "durationTicks": 24,
          "midi": 33,
          "name": "A1",
          "ticks": 16224,
          "time": 99.41171500000002,
          "velocity": 0.7874015748031497
        },
        {
          "duration": 0.14705874999999935,
          "durationTicks": 24,
          "midi": 33,
          "name": "A1",
          "ticks": 16248,
          "time": 99.55877375000001,
          "velocity": 0.7874015748031497
        },
        {
          "duration": 0.14705874999999935,
          "durationTicks": 24,
          "midi": 45,
          "name": "A2",
          "ticks": 16272,
          "time": 99.70583250000001,
          "velocity": 0.7874015748031497
        },
        {
          "duration": 0.14705874999999935,
          "durationTicks": 24,
          "midi": 33,
          "name": "A1",
          "ticks": 16296,
          "time": 99.85289125000001,
          "velocity": 0.7874015748031497
        },
        {
          "duration": 0.14705874999999935,
          "durationTicks": 24,
          "midi": 33,
          "name": "A1",
          "ticks": 16320,
          "time": 99.99995000000001,
          "velocity": 0.7874015748031497
        },
        {
          "duration": 0.14705874999999935,
          "durationTicks": 24,
          "midi": 43,
          "name": "G2",
          "ticks": 16344,
          "time": 100.14700875000001,
          "velocity": 0.7874015748031497
        },
        {
          "duration": 0.14705874999999935,
          "durationTicks": 24,
          "midi": 45,
          "name": "A2",
          "ticks": 16368,
          "time": 100.29406750000001,
          "velocity": 0.7874015748031497
        },
        {
          "duration": 0.14705874999999935,
          "durationTicks": 24,
          "midi": 33,
          "name": "A1",
          "ticks": 16392,
          "time": 100.44112625000001,
          "velocity": 0.7874015748031497
        },
        {
          "duration": 0.14705874999999935,
          "durationTicks": 24,
          "midi": 33,
          "name": "A1",
          "ticks": 16416,
          "time": 100.58818500000001,
          "velocity": 0.7874015748031497
        },
        {
          "duration": 0.14705874999999935,
          "durationTicks": 24,
          "midi": 43,
          "name": "G2",
          "ticks": 16440,
          "time": 100.73524375000001,
          "velocity": 0.7874015748031497
        },
        {
          "duration": 0.14705874999999935,
          "durationTicks": 24,
          "midi": 45,
          "name": "A2",
          "ticks": 16464,
          "time": 100.88230250000001,
          "velocity": 0.7874015748031497
        },
        {
          "duration": 0.14705874999999935,
          "durationTicks": 24,
          "midi": 43,
          "name": "G2",
          "ticks": 16488,
          "time": 101.02936125000001,
          "velocity": 0.7874015748031497
        },
        {
          "duration": 0.14705874999999935,
          "durationTicks": 24,
          "midi": 45,
          "name": "A2",
          "ticks": 16512,
          "time": 101.17642000000001,
          "velocity": 0.7874015748031497
        },
        {
          "duration": 0.14705874999999935,
          "durationTicks": 24,
          "midi": 33,
          "name": "A1",
          "ticks": 16536,
          "time": 101.32347875,
          "velocity": 0.7874015748031497
        },
        {
          "duration": 0.14705874999999935,
          "durationTicks": 24,
          "midi": 43,
          "name": "G2",
          "ticks": 16560,
          "time": 101.4705375,
          "velocity": 0.7874015748031497
        },
        {
          "duration": 0.14705874999999935,
          "durationTicks": 24,
          "midi": 45,
          "name": "A2",
          "ticks": 16584,
          "time": 101.61759625,
          "velocity": 0.7874015748031497
        },
        {
          "duration": 0.14705874999999935,
          "durationTicks": 24,
          "midi": 33,
          "name": "A1",
          "ticks": 16608,
          "time": 101.764655,
          "velocity": 0.7874015748031497
        },
        {
          "duration": 0.14705875000001356,
          "durationTicks": 24,
          "midi": 33,
          "name": "A1",
          "ticks": 16632,
          "time": 101.91171375,
          "velocity": 0.7874015748031497
        },
        {
          "duration": 0.14705874999999935,
          "durationTicks": 24,
          "midi": 45,
          "name": "A2",
          "ticks": 16656,
          "time": 102.05877250000002,
          "velocity": 0.7874015748031497
        },
        {
          "duration": 0.14705874999999935,
          "durationTicks": 24,
          "midi": 33,
          "name": "A1",
          "ticks": 16680,
          "time": 102.20583125000002,
          "velocity": 0.7874015748031497
        },
        {
          "duration": 0.14705874999999935,
          "durationTicks": 24,
          "midi": 33,
          "name": "A1",
          "ticks": 16704,
          "time": 102.35289000000002,
          "velocity": 0.7874015748031497
        },
        {
          "duration": 0.14705874999999935,
          "durationTicks": 24,
          "midi": 43,
          "name": "G2",
          "ticks": 16728,
          "time": 102.49994875000002,
          "velocity": 0.7874015748031497
        },
        {
          "duration": 0.14705874999999935,
          "durationTicks": 24,
          "midi": 45,
          "name": "A2",
          "ticks": 16752,
          "time": 102.64700750000002,
          "velocity": 0.7874015748031497
        },
        {
          "duration": 0.14705874999999935,
          "durationTicks": 24,
          "midi": 33,
          "name": "A1",
          "ticks": 16776,
          "time": 102.79406625000001,
          "velocity": 0.7874015748031497
        },
        {
          "duration": 0.14705874999999935,
          "durationTicks": 24,
          "midi": 33,
          "name": "A1",
          "ticks": 16800,
          "time": 102.94112500000001,
          "velocity": 0.7874015748031497
        },
        {
          "duration": 0.14705874999999935,
          "durationTicks": 24,
          "midi": 43,
          "name": "G2",
          "ticks": 16824,
          "time": 103.08818375000001,
          "velocity": 0.7874015748031497
        },
        {
          "duration": 0.14705874999999935,
          "durationTicks": 24,
          "midi": 45,
          "name": "A2",
          "ticks": 16848,
          "time": 103.23524250000001,
          "velocity": 0.7874015748031497
        },
        {
          "duration": 0.14705874999999935,
          "durationTicks": 24,
          "midi": 43,
          "name": "G2",
          "ticks": 16872,
          "time": 103.38230125000001,
          "velocity": 0.7874015748031497
        },
        {
          "duration": 0.14705874999999935,
          "durationTicks": 24,
          "midi": 45,
          "name": "A2",
          "ticks": 16896,
          "time": 103.52936000000001,
          "velocity": 0.7874015748031497
        },
        {
          "duration": 0.14705874999999935,
          "durationTicks": 24,
          "midi": 33,
          "name": "A1",
          "ticks": 16920,
          "time": 103.67641875000001,
          "velocity": 0.7874015748031497
        },
        {
          "duration": 0.14705874999999935,
          "durationTicks": 24,
          "midi": 43,
          "name": "G2",
          "ticks": 16944,
          "time": 103.82347750000001,
          "velocity": 0.7874015748031497
        },
        {
          "duration": 0.14705874999999935,
          "durationTicks": 24,
          "midi": 45,
          "name": "A2",
          "ticks": 16968,
          "time": 103.97053625000001,
          "velocity": 0.7874015748031497
        },
        {
          "duration": 0.44117624999999805,
          "durationTicks": 72,
          "midi": 43,
          "name": "G2",
          "ticks": 16992,
          "time": 104.11759500000001,
          "velocity": 0.7874015748031497
        },
        {
          "duration": 0.44117624999999805,
          "durationTicks": 72,
          "midi": 43,
          "name": "G2",
          "ticks": 17064,
          "time": 104.55877125,
          "velocity": 0.7874015748031497
        },
        {
          "duration": 0.8823525000000103,
          "durationTicks": 144,
          "midi": 50,
          "name": "D3",
          "ticks": 17136,
          "time": 104.9999475,
          "velocity": 0.7874015748031497
        },
        {
          "duration": 0.2941174999999987,
          "durationTicks": 48,
          "midi": 50,
          "name": "D3",
          "ticks": 17280,
          "time": 105.88230000000001,
          "velocity": 0.7874015748031497
        },
        {
          "duration": 0.2941174999999987,
          "durationTicks": 48,
          "midi": 48,
          "name": "C3",
          "ticks": 17328,
          "time": 106.17641750000001,
          "velocity": 0.7874015748031497
        },
        {
          "duration": 0.44117624999999805,
          "durationTicks": 72,
          "midi": 41,
          "name": "F2",
          "ticks": 17376,
          "time": 106.47053500000001,
          "velocity": 0.7874015748031497
        },
        {
          "duration": 0.44117624999999805,
          "durationTicks": 72,
          "midi": 41,
          "name": "F2",
          "ticks": 17448,
          "time": 106.91171125000001,
          "velocity": 0.7874015748031497
        },
        {
          "duration": 0.8823524999999961,
          "durationTicks": 144,
          "midi": 48,
          "name": "C3",
          "ticks": 17520,
          "time": 107.35288750000001,
          "velocity": 0.7874015748031497
        },
        {
          "duration": 0.2941175000000129,
          "durationTicks": 48,
          "midi": 41,
          "name": "F2",
          "ticks": 17664,
          "time": 108.23524,
          "velocity": 0.7874015748031497
        },
        {
          "duration": 0.2941174999999987,
          "durationTicks": 48,
          "midi": 43,
          "name": "G2",
          "ticks": 17712,
          "time": 108.52935750000002,
          "velocity": 0.7874015748031497
        },
        {
          "duration": 0.44117624999999805,
          "durationTicks": 72,
          "midi": 39,
          "name": "D#2",
          "ticks": 17760,
          "time": 108.82347500000002,
          "velocity": 0.7874015748031497
        },
        {
          "duration": 0.44117624999999805,
          "durationTicks": 72,
          "midi": 39,
          "name": "D#2",
          "ticks": 17832,
          "time": 109.26465125000001,
          "velocity": 0.7874015748031497
        },
        {
          "duration": 0.8823524999999961,
          "durationTicks": 144,
          "midi": 46,
          "name": "A#2",
          "ticks": 17904,
          "time": 109.70582750000001,
          "velocity": 0.7874015748031497
        },
        {
          "duration": 0.2941175000000129,
          "durationTicks": 48,
          "midi": 39,
          "name": "D#2",
          "ticks": 18144,
          "time": 111.176415,
          "velocity": 0.7874015748031497
        },
        {
          "duration": 0.2941174999999987,
          "durationTicks": 48,
          "midi": 39,
          "name": "D#2",
          "ticks": 18192,
          "time": 111.47053250000002,
          "velocity": 0.7874015748031497
        },
        {
          "duration": 0.2941174999999987,
          "durationTicks": 48,
          "midi": 39,
          "name": "D#2",
          "ticks": 18240,
          "time": 111.76465000000002,
          "velocity": 0.7874015748031497
        },
        {
          "duration": 0.8823524999999961,
          "durationTicks": 144,
          "midi": 48,
          "name": "C3",
          "ticks": 18288,
          "time": 112.05876750000002,
          "velocity": 0.7874015748031497
        },
        {
          "duration": 0.5882349999999974,
          "durationTicks": 96,
          "midi": 41,
          "name": "F2",
          "ticks": 18432,
          "time": 112.94112000000001,
          "velocity": 0.7874015748031497
        },
        {
          "duration": 0.44117624999999805,
          "durationTicks": 72,
          "midi": 43,
          "name": "G2",
          "ticks": 18528,
          "time": 113.52935500000001,
          "velocity": 0.7874015748031497
        },
        {
          "duration": 0.44117624999999805,
          "durationTicks": 72,
          "midi": 43,
          "name": "G2",
          "ticks": 18600,
          "time": 113.97053125000001,
          "velocity": 0.7874015748031497
        },
        {
          "duration": 0.8823525000000103,
          "durationTicks": 144,
          "midi": 50,
          "name": "D3",
          "ticks": 18672,
          "time": 114.4117075,
          "velocity": 0.7874015748031497
        },
        {
          "duration": 0.2941174999999987,
          "durationTicks": 48,
          "midi": 50,
          "name": "D3",
          "ticks": 18816,
          "time": 115.29406000000002,
          "velocity": 0.7874015748031497
        },
        {
          "duration": 0.2941174999999987,
          "durationTicks": 48,
          "midi": 48,
          "name": "C3",
          "ticks": 18864,
          "time": 115.58817750000001,
          "velocity": 0.7874015748031497
        },
        {
          "duration": 0.44117624999999805,
          "durationTicks": 72,
          "midi": 41,
          "name": "F2",
          "ticks": 18912,
          "time": 115.88229500000001,
          "velocity": 0.7874015748031497
        },
        {
          "duration": 0.44117624999999805,
          "durationTicks": 72,
          "midi": 41,
          "name": "F2",
          "ticks": 18984,
          "time": 116.32347125000001,
          "velocity": 0.7874015748031497
        },
        {
          "duration": 0.8823525000000103,
          "durationTicks": 144,
          "midi": 48,
          "name": "C3",
          "ticks": 19056,
          "time": 116.76464750000001,
          "velocity": 0.7874015748031497
        },
        {
          "duration": 0.2941174999999987,
          "durationTicks": 48,
          "midi": 41,
          "name": "F2",
          "ticks": 19200,
          "time": 117.64700000000002,
          "velocity": 0.7874015748031497
        },
        {
          "duration": 0.2941174999999987,
          "durationTicks": 48,
          "midi": 43,
          "name": "G2",
          "ticks": 19248,
          "time": 117.94111750000002,
          "velocity": 0.7874015748031497
        },
        {
          "duration": 0.44117624999999805,
          "durationTicks": 72,
          "midi": 39,
          "name": "D#2",
          "ticks": 19296,
          "time": 118.23523500000002,
          "velocity": 0.7874015748031497
        },
        {
          "duration": 0.44117624999999805,
          "durationTicks": 72,
          "midi": 39,
          "name": "D#2",
          "ticks": 19368,
          "time": 118.67641125000002,
          "velocity": 0.7874015748031497
        },
        {
          "duration": 0.8823524999999961,
          "durationTicks": 144,
          "midi": 46,
          "name": "A#2",
          "ticks": 19440,
          "time": 119.11758750000001,
          "velocity": 0.7874015748031497
        },
        {
          "duration": 0.2941175000000129,
          "durationTicks": 48,
          "midi": 39,
          "name": "D#2",
          "ticks": 19680,
          "time": 120.588175,
          "velocity": 0.7874015748031497
        },
        {
          "duration": 0.2941174999999987,
          "durationTicks": 48,
          "midi": 39,
          "name": "D#2",
          "ticks": 19728,
          "time": 120.88229250000002,
          "velocity": 0.7874015748031497
        },
        {
          "duration": 0.2941174999999987,
          "durationTicks": 48,
          "midi": 39,
          "name": "D#2",
          "ticks": 19776,
          "time": 121.17641000000002,
          "velocity": 0.7874015748031497
        },
        {
          "duration": 0.8823524999999961,
          "durationTicks": 144,
          "midi": 48,
          "name": "C3",
          "ticks": 19824,
          "time": 121.47052750000002,
          "velocity": 0.7874015748031497
        },
        {
          "duration": 0.5882349999999974,
          "durationTicks": 96,
          "midi": 41,
          "name": "F2",
          "ticks": 19968,
          "time": 122.35288000000001,
          "velocity": 0.7874015748031497
        },
        {
          "duration": 0.14705874999999935,
          "durationTicks": 24,
          "midi": 36,
          "name": "C2",
          "ticks": 20064,
          "time": 122.94111500000001,
          "velocity": 0.7874015748031497
        },
        {
          "duration": 0.14705874999999935,
          "durationTicks": 24,
          "midi": 36,
          "name": "C2",
          "ticks": 20088,
          "time": 123.08817375000001,
          "velocity": 0.7874015748031497
        },
        {
          "duration": 0.14705874999999935,
          "durationTicks": 24,
          "midi": 36,
          "name": "C2",
          "ticks": 20112,
          "time": 123.23523250000001,
          "velocity": 0.7874015748031497
        },
        {
          "duration": 0.14705874999999935,
          "durationTicks": 24,
          "midi": 36,
          "name": "C2",
          "ticks": 20136,
          "time": 123.38229125000001,
          "velocity": 0.7874015748031497
        },
        {
          "duration": 0.14705874999999935,
          "durationTicks": 24,
          "midi": 36,
          "name": "C2",
          "ticks": 20160,
          "time": 123.52935000000001,
          "velocity": 0.7874015748031497
        },
        {
          "duration": 0.14705874999999935,
          "durationTicks": 24,
          "midi": 36,
          "name": "C2",
          "ticks": 20184,
          "time": 123.67640875000001,
          "velocity": 0.7874015748031497
        },
        {
          "duration": 0.14705875000001356,
          "durationTicks": 24,
          "midi": 36,
          "name": "C2",
          "ticks": 20208,
          "time": 123.8234675,
          "velocity": 0.7874015748031497
        },
        {
          "duration": 0.14705874999999935,
          "durationTicks": 24,
          "midi": 36,
          "name": "C2",
          "ticks": 20232,
          "time": 123.97052625000002,
          "velocity": 0.7874015748031497
        },
        {
          "duration": 0.14705874999999935,
          "durationTicks": 24,
          "midi": 36,
          "name": "C2",
          "ticks": 20256,
          "time": 124.11758500000002,
          "velocity": 0.7874015748031497
        },
        {
          "duration": 0.14705874999999935,
          "durationTicks": 24,
          "midi": 36,
          "name": "C2",
          "ticks": 20280,
          "time": 124.26464375000002,
          "velocity": 0.7874015748031497
        },
        {
          "duration": 0.14705874999999935,
          "durationTicks": 24,
          "midi": 36,
          "name": "C2",
          "ticks": 20304,
          "time": 124.41170250000002,
          "velocity": 0.7874015748031497
        },
        {
          "duration": 0.14705874999999935,
          "durationTicks": 24,
          "midi": 36,
          "name": "C2",
          "ticks": 20328,
          "time": 124.55876125000002,
          "velocity": 0.7874015748031497
        },
        {
          "duration": 0.14705874999999935,
          "durationTicks": 24,
          "midi": 36,
          "name": "C2",
          "ticks": 20352,
          "time": 124.70582000000002,
          "velocity": 0.7874015748031497
        },
        {
          "duration": 0.14705874999999935,
          "durationTicks": 24,
          "midi": 36,
          "name": "C2",
          "ticks": 20376,
          "time": 124.85287875000002,
          "velocity": 0.7874015748031497
        },
        {
          "duration": 0.14705874999999935,
          "durationTicks": 24,
          "midi": 36,
          "name": "C2",
          "ticks": 20400,
          "time": 124.99993750000002,
          "velocity": 0.7874015748031497
        },
        {
          "duration": 0.14705874999999935,
          "durationTicks": 24,
          "midi": 36,
          "name": "C2",
          "ticks": 20424,
          "time": 125.14699625000002,
          "velocity": 0.7874015748031497
        },
        {
          "duration": 0.14705874999999935,
          "durationTicks": 24,
          "midi": 38,
          "name": "D2",
          "ticks": 20448,
          "time": 125.29405500000001,
          "velocity": 0.7874015748031497
        },
        {
          "duration": 0.14705874999999935,
          "durationTicks": 24,
          "midi": 38,
          "name": "D2",
          "ticks": 20472,
          "time": 125.44111375000001,
          "velocity": 0.7874015748031497
        },
        {
          "duration": 0.14705874999999935,
          "durationTicks": 24,
          "midi": 38,
          "name": "D2",
          "ticks": 20496,
          "time": 125.58817250000001,
          "velocity": 0.7874015748031497
        },
        {
          "duration": 0.14705874999999935,
          "durationTicks": 24,
          "midi": 38,
          "name": "D2",
          "ticks": 20520,
          "time": 125.73523125000001,
          "velocity": 0.7874015748031497
        },
        {
          "duration": 0.14705874999999935,
          "durationTicks": 24,
          "midi": 38,
          "name": "D2",
          "ticks": 20544,
          "time": 125.88229000000001,
          "velocity": 0.7874015748031497
        },
        {
          "duration": 0.14705874999999935,
          "durationTicks": 24,
          "midi": 38,
          "name": "D2",
          "ticks": 20568,
          "time": 126.02934875000001,
          "velocity": 0.7874015748031497
        },
        {
          "duration": 0.14705874999999935,
          "durationTicks": 24,
          "midi": 38,
          "name": "D2",
          "ticks": 20592,
          "time": 126.17640750000001,
          "velocity": 0.7874015748031497
        },
        {
          "duration": 0.14705874999999935,
          "durationTicks": 24,
          "midi": 38,
          "name": "D2",
          "ticks": 20616,
          "time": 126.32346625000001,
          "velocity": 0.7874015748031497
        },
        {
          "duration": 0.14705874999999935,
          "durationTicks": 24,
          "midi": 38,
          "name": "D2",
          "ticks": 20640,
          "time": 126.47052500000001,
          "velocity": 0.7874015748031497
        },
        {
          "duration": 0.14705874999999935,
          "durationTicks": 24,
          "midi": 38,
          "name": "D2",
          "ticks": 20664,
          "time": 126.61758375000001,
          "velocity": 0.7874015748031497
        },
        {
          "duration": 0.14705874999999935,
          "durationTicks": 24,
          "midi": 38,
          "name": "D2",
          "ticks": 20688,
          "time": 126.76464250000001,
          "velocity": 0.7874015748031497
        },
        {
          "duration": 0.14705874999999935,
          "durationTicks": 24,
          "midi": 38,
          "name": "D2",
          "ticks": 20712,
          "time": 126.91170125000001,
          "velocity": 0.7874015748031497
        },
        {
          "duration": 0.14705875000001356,
          "durationTicks": 24,
          "midi": 38,
          "name": "D2",
          "ticks": 20736,
          "time": 127.05876,
          "velocity": 0.7874015748031497
        },
        {
          "duration": 0.14705874999999935,
          "durationTicks": 24,
          "midi": 38,
          "name": "D2",
          "ticks": 20760,
          "time": 127.20581875000002,
          "velocity": 0.7874015748031497
        },
        {
          "duration": 0.14705874999999935,
          "durationTicks": 24,
          "midi": 38,
          "name": "D2",
          "ticks": 20784,
          "time": 127.35287750000002,
          "velocity": 0.7874015748031497
        },
        {
          "duration": 0.14705874999999935,
          "durationTicks": 24,
          "midi": 38,
          "name": "D2",
          "ticks": 20808,
          "time": 127.49993625000002,
          "velocity": 0.7874015748031497
        },
        {
          "duration": 0.14705874999999935,
          "durationTicks": 24,
          "midi": 39,
          "name": "D#2",
          "ticks": 20832,
          "time": 127.64699500000002,
          "velocity": 0.7874015748031497
        },
        {
          "duration": 0.14705874999999935,
          "durationTicks": 24,
          "midi": 39,
          "name": "D#2",
          "ticks": 20856,
          "time": 127.79405375000002,
          "velocity": 0.7874015748031497
        },
        {
          "duration": 0.14705874999999935,
          "durationTicks": 24,
          "midi": 39,
          "name": "D#2",
          "ticks": 20880,
          "time": 127.94111250000002,
          "velocity": 0.7874015748031497
        },
        {
          "duration": 0.14705874999998514,
          "durationTicks": 24,
          "midi": 39,
          "name": "D#2",
          "ticks": 20904,
          "time": 128.08817125000002,
          "velocity": 0.7874015748031497
        },
        {
          "duration": 0.14705875000001356,
          "durationTicks": 24,
          "midi": 39,
          "name": "D#2",
          "ticks": 20928,
          "time": 128.23523,
          "velocity": 0.7874015748031497
        },
        {
          "duration": 0.14705874999998514,
          "durationTicks": 24,
          "midi": 39,
          "name": "D#2",
          "ticks": 20952,
          "time": 128.38228875000001,
          "velocity": 0.7874015748031497
        },
        {
          "duration": 0.14705875000001356,
          "durationTicks": 24,
          "midi": 39,
          "name": "D#2",
          "ticks": 20976,
          "time": 128.5293475,
          "velocity": 0.7874015748031497
        },
        {
          "duration": 0.14705875000001356,
          "durationTicks": 24,
          "midi": 39,
          "name": "D#2",
          "ticks": 21000,
          "time": 128.67640625,
          "velocity": 0.7874015748031497
        },
        {
          "duration": 0.14705874999998514,
          "durationTicks": 24,
          "midi": 39,
          "name": "D#2",
          "ticks": 21024,
          "time": 128.82346500000003,
          "velocity": 0.7874015748031497
        },
        {
          "duration": 0.14705875000001356,
          "durationTicks": 24,
          "midi": 39,
          "name": "D#2",
          "ticks": 21048,
          "time": 128.97052375,
          "velocity": 0.7874015748031497
        },
        {
          "duration": 0.14705874999998514,
          "durationTicks": 24,
          "midi": 39,
          "name": "D#2",
          "ticks": 21072,
          "time": 129.11758250000003,
          "velocity": 0.7874015748031497
        },
        {
          "duration": 0.14705875000001356,
          "durationTicks": 24,
          "midi": 39,
          "name": "D#2",
          "ticks": 21096,
          "time": 129.26464125,
          "velocity": 0.7874015748031497
        },
        {
          "duration": 0.14705874999998514,
          "durationTicks": 24,
          "midi": 39,
          "name": "D#2",
          "ticks": 21120,
          "time": 129.41170000000002,
          "velocity": 0.7874015748031497
        },
        {
          "duration": 0.14705875000001356,
          "durationTicks": 24,
          "midi": 39,
          "name": "D#2",
          "ticks": 21144,
          "time": 129.55875875,
          "velocity": 0.7874015748031497
        },
        {
          "duration": 0.14705874999998514,
          "durationTicks": 24,
          "midi": 39,
          "name": "D#2",
          "ticks": 21168,
          "time": 129.70581750000002,
          "velocity": 0.7874015748031497
        },
        {
          "duration": 0.14705875000001356,
          "durationTicks": 24,
          "midi": 39,
          "name": "D#2",
          "ticks": 21192,
          "time": 129.85287625,
          "velocity": 0.7874015748031497
        },
        {
          "duration": 0.14705874999998514,
          "durationTicks": 24,
          "midi": 41,
          "name": "F2",
          "ticks": 21216,
          "time": 129.99993500000002,
          "velocity": 0.7874015748031497
        },
        {
          "duration": 0.14705875000001356,
          "durationTicks": 24,
          "midi": 41,
          "name": "F2",
          "ticks": 21240,
          "time": 130.14699375,
          "velocity": 0.7874015748031497
        },
        {
          "duration": 0.14705874999998514,
          "durationTicks": 24,
          "midi": 41,
          "name": "F2",
          "ticks": 21264,
          "time": 130.29405250000002,
          "velocity": 0.7874015748031497
        },
        {
          "duration": 0.14705875000001356,
          "durationTicks": 24,
          "midi": 41,
          "name": "F2",
          "ticks": 21288,
          "time": 130.44111125,
          "velocity": 0.7874015748031497
        },
        {
          "duration": 0.14705874999998514,
          "durationTicks": 24,
          "midi": 41,
          "name": "F2",
          "ticks": 21312,
          "time": 130.58817000000002,
          "velocity": 0.7874015748031497
        },
        {
          "duration": 0.14705875000001356,
          "durationTicks": 24,
          "midi": 41,
          "name": "F2",
          "ticks": 21336,
          "time": 130.73522875,
          "velocity": 0.7874015748031497
        },
        {
          "duration": 0.14705874999998514,
          "durationTicks": 24,
          "midi": 41,
          "name": "F2",
          "ticks": 21360,
          "time": 130.88228750000002,
          "velocity": 0.7874015748031497
        },
        {
          "duration": 0.14705875000001356,
          "durationTicks": 24,
          "midi": 41,
          "name": "F2",
          "ticks": 21384,
          "time": 131.02934625,
          "velocity": 0.7874015748031497
        },
        {
          "duration": 0.14705874999998514,
          "durationTicks": 24,
          "midi": 41,
          "name": "F2",
          "ticks": 21408,
          "time": 131.17640500000002,
          "velocity": 0.7874015748031497
        },
        {
          "duration": 0.14705875000001356,
          "durationTicks": 24,
          "midi": 41,
          "name": "F2",
          "ticks": 21432,
          "time": 131.32346375,
          "velocity": 0.7874015748031497
        },
        {
          "duration": 0.14705874999998514,
          "durationTicks": 24,
          "midi": 41,
          "name": "F2",
          "ticks": 21456,
          "time": 131.47052250000002,
          "velocity": 0.7874015748031497
        },
        {
          "duration": 0.14705875000001356,
          "durationTicks": 24,
          "midi": 41,
          "name": "F2",
          "ticks": 21480,
          "time": 131.61758125,
          "velocity": 0.7874015748031497
        },
        {
          "duration": 0.14705875000001356,
          "durationTicks": 24,
          "midi": 41,
          "name": "F2",
          "ticks": 21504,
          "time": 131.76464,
          "velocity": 0.7874015748031497
        },
        {
          "duration": 0.14705874999998514,
          "durationTicks": 24,
          "midi": 41,
          "name": "F2",
          "ticks": 21528,
          "time": 131.91169875000003,
          "velocity": 0.7874015748031497
        },
        {
          "duration": 0.14705875000001356,
          "durationTicks": 24,
          "midi": 41,
          "name": "F2",
          "ticks": 21552,
          "time": 132.0587575,
          "velocity": 0.7874015748031497
        },
        {
          "duration": 0.14705874999998514,
          "durationTicks": 24,
          "midi": 41,
          "name": "F2",
          "ticks": 21576,
          "time": 132.20581625000003,
          "velocity": 0.7874015748031497
        },
        {
          "duration": 0.14705875000001356,
          "durationTicks": 24,
          "midi": 43,
          "name": "G2",
          "ticks": 21600,
          "time": 132.352875,
          "velocity": 0.7874015748031497
        },
        {
          "duration": 0.14705874999998514,
          "durationTicks": 24,
          "midi": 43,
          "name": "G2",
          "ticks": 21624,
          "time": 132.49993375000003,
          "velocity": 0.7874015748031497
        },
        {
          "duration": 0.14705875000001356,
          "durationTicks": 24,
          "midi": 43,
          "name": "G2",
          "ticks": 21648,
          "time": 132.6469925,
          "velocity": 0.7874015748031497
        },
        {
          "duration": 0.14705874999998514,
          "durationTicks": 24,
          "midi": 43,
          "name": "G2",
          "ticks": 21672,
          "time": 132.79405125000002,
          "velocity": 0.7874015748031497
        },
        {
          "duration": 0.14705875000001356,
          "durationTicks": 24,
          "midi": 43,
          "name": "G2",
          "ticks": 21696,
          "time": 132.94111,
          "velocity": 0.7874015748031497
        },
        {
          "duration": 0.14705874999998514,
          "durationTicks": 24,
          "midi": 43,
          "name": "G2",
          "ticks": 21720,
          "time": 133.08816875000002,
          "velocity": 0.7874015748031497
        },
        {
          "duration": 0.14705875000001356,
          "durationTicks": 24,
          "midi": 43,
          "name": "G2",
          "ticks": 21744,
          "time": 133.2352275,
          "velocity": 0.7874015748031497
        },
        {
          "duration": 0.14705874999998514,
          "durationTicks": 24,
          "midi": 43,
          "name": "G2",
          "ticks": 21768,
          "time": 133.38228625000002,
          "velocity": 0.7874015748031497
        },
        {
          "duration": 0.14705875000001356,
          "durationTicks": 24,
          "midi": 43,
          "name": "G2",
          "ticks": 21792,
          "time": 133.529345,
          "velocity": 0.7874015748031497
        },
        {
          "duration": 0.14705874999998514,
          "durationTicks": 24,
          "midi": 43,
          "name": "G2",
          "ticks": 21816,
          "time": 133.67640375000002,
          "velocity": 0.7874015748031497
        },
        {
          "duration": 0.14705875000001356,
          "durationTicks": 24,
          "midi": 43,
          "name": "G2",
          "ticks": 21840,
          "time": 133.8234625,
          "velocity": 0.7874015748031497
        },
        {
          "duration": 0.14705874999998514,
          "durationTicks": 24,
          "midi": 43,
          "name": "G2",
          "ticks": 21864,
          "time": 133.97052125000002,
          "velocity": 0.7874015748031497
        },
        {
          "duration": 0.14705875000001356,
          "durationTicks": 24,
          "midi": 43,
          "name": "G2",
          "ticks": 21888,
          "time": 134.11758,
          "velocity": 0.7874015748031497
        },
        {
          "duration": 0.14705874999998514,
          "durationTicks": 24,
          "midi": 43,
          "name": "G2",
          "ticks": 21912,
          "time": 134.26463875000002,
          "velocity": 0.7874015748031497
        },
        {
          "duration": 0.14705875000001356,
          "durationTicks": 24,
          "midi": 43,
          "name": "G2",
          "ticks": 21936,
          "time": 134.4116975,
          "velocity": 0.7874015748031497
        },
        {
          "duration": 0.14705874999998514,
          "durationTicks": 24,
          "midi": 43,
          "name": "G2",
          "ticks": 21960,
          "time": 134.55875625000002,
          "velocity": 0.7874015748031497
        },
        {
          "duration": 0.14705875000001356,
          "durationTicks": 24,
          "midi": 39,
          "name": "D#2",
          "ticks": 21984,
          "time": 134.705815,
          "velocity": 0.7874015748031497
        },
        {
          "duration": 0.14705875000001356,
          "durationTicks": 24,
          "midi": 39,
          "name": "D#2",
          "ticks": 22008,
          "time": 134.85287375000001,
          "velocity": 0.7874015748031497
        },
        {
          "duration": 0.14705874999998514,
          "durationTicks": 24,
          "midi": 39,
          "name": "D#2",
          "ticks": 22032,
          "time": 134.99993250000003,
          "velocity": 0.7874015748031497
        },
        {
          "duration": 0.14705875000001356,
          "durationTicks": 24,
          "midi": 39,
          "name": "D#2",
          "ticks": 22056,
          "time": 135.14699125,
          "velocity": 0.7874015748031497
        },
        {
          "duration": 0.14705874999998514,
          "durationTicks": 24,
          "midi": 39,
          "name": "D#2",
          "ticks": 22080,
          "time": 135.29405000000003,
          "velocity": 0.7874015748031497
        },
        {
          "duration": 0.14705875000001356,
          "durationTicks": 24,
          "midi": 39,
          "name": "D#2",
          "ticks": 22104,
          "time": 135.44110875,
          "velocity": 0.7874015748031497
        },
        {
          "duration": 0.14705874999998514,
          "durationTicks": 24,
          "midi": 39,
          "name": "D#2",
          "ticks": 22128,
          "time": 135.58816750000003,
          "velocity": 0.7874015748031497
        },
        {
          "duration": 0.14705875000001356,
          "durationTicks": 24,
          "midi": 39,
          "name": "D#2",
          "ticks": 22152,
          "time": 135.73522625,
          "velocity": 0.7874015748031497
        },
        {
          "duration": 0.14705874999998514,
          "durationTicks": 24,
          "midi": 39,
          "name": "D#2",
          "ticks": 22176,
          "time": 135.88228500000002,
          "velocity": 0.7874015748031497
        },
        {
          "duration": 0.14705875000001356,
          "durationTicks": 24,
          "midi": 39,
          "name": "D#2",
          "ticks": 22200,
          "time": 136.02934375,
          "velocity": 0.7874015748031497
        },
        {
          "duration": 0.14705874999998514,
          "durationTicks": 24,
          "midi": 39,
          "name": "D#2",
          "ticks": 22224,
          "time": 136.17640250000002,
          "velocity": 0.7874015748031497
        },
        {
          "duration": 0.14705875000001356,
          "durationTicks": 24,
          "midi": 39,
          "name": "D#2",
          "ticks": 22248,
          "time": 136.32346125,
          "velocity": 0.7874015748031497
        },
        {
          "duration": 0.14705874999998514,
          "durationTicks": 24,
          "midi": 39,
          "name": "D#2",
          "ticks": 22272,
          "time": 136.47052000000002,
          "velocity": 0.7874015748031497
        },
        {
          "duration": 0.14705875000001356,
          "durationTicks": 24,
          "midi": 39,
          "name": "D#2",
          "ticks": 22296,
          "time": 136.61757875,
          "velocity": 0.7874015748031497
        },
        {
          "duration": 0.14705874999998514,
          "durationTicks": 24,
          "midi": 39,
          "name": "D#2",
          "ticks": 22320,
          "time": 136.76463750000002,
          "velocity": 0.7874015748031497
        },
        {
          "duration": 0.14705875000001356,
          "durationTicks": 24,
          "midi": 39,
          "name": "D#2",
          "ticks": 22344,
          "time": 136.91169625,
          "velocity": 0.7874015748031497
        },
        {
          "duration": 0.14705874999998514,
          "durationTicks": 24,
          "midi": 41,
          "name": "F2",
          "ticks": 22368,
          "time": 137.05875500000002,
          "velocity": 0.7874015748031497
        },
        {
          "duration": 0.14705875000001356,
          "durationTicks": 24,
          "midi": 41,
          "name": "F2",
          "ticks": 22392,
          "time": 137.20581375,
          "velocity": 0.7874015748031497
        },
        {
          "duration": 0.14705874999998514,
          "durationTicks": 24,
          "midi": 41,
          "name": "F2",
          "ticks": 22416,
          "time": 137.35287250000002,
          "velocity": 0.7874015748031497
        },
        {
          "duration": 0.14705875000001356,
          "durationTicks": 24,
          "midi": 41,
          "name": "F2",
          "ticks": 22440,
          "time": 137.49993125,
          "velocity": 0.7874015748031497
        },
        {
          "duration": 0.14705874999998514,
          "durationTicks": 24,
          "midi": 41,
          "name": "F2",
          "ticks": 22464,
          "time": 137.64699000000002,
          "velocity": 0.7874015748031497
        },
        {
          "duration": 0.14705875000001356,
          "durationTicks": 24,
          "midi": 41,
          "name": "F2",
          "ticks": 22488,
          "time": 137.79404875,
          "velocity": 0.7874015748031497
        },
        {
          "duration": 0.14705875000001356,
          "durationTicks": 24,
          "midi": 41,
          "name": "F2",
          "ticks": 22512,
          "time": 137.94110750000002,
          "velocity": 0.7874015748031497
        },
        {
          "duration": 0.14705874999998514,
          "durationTicks": 24,
          "midi": 41,
          "name": "F2",
          "ticks": 22536,
          "time": 138.08816625000003,
          "velocity": 0.7874015748031497
        },
        {
          "duration": 0.14705875000001356,
          "durationTicks": 24,
          "midi": 41,
          "name": "F2",
          "ticks": 22560,
          "time": 138.235225,
          "velocity": 0.7874015748031497
        },
        {
          "duration": 0.14705874999998514,
          "durationTicks": 24,
          "midi": 41,
          "name": "F2",
          "ticks": 22584,
          "time": 138.38228375000003,
          "velocity": 0.7874015748031497
        },
        {
          "duration": 0.14705875000001356,
          "durationTicks": 24,
          "midi": 41,
          "name": "F2",
          "ticks": 22608,
          "time": 138.5293425,
          "velocity": 0.7874015748031497
        },
        {
          "duration": 0.14705874999998514,
          "durationTicks": 24,
          "midi": 41,
          "name": "F2",
          "ticks": 22632,
          "time": 138.67640125000003,
          "velocity": 0.7874015748031497
        },
        {
          "duration": 0.14705875000001356,
          "durationTicks": 24,
          "midi": 41,
          "name": "F2",
          "ticks": 22656,
          "time": 138.82346,
          "velocity": 0.7874015748031497
        },
        {
          "duration": 0.14705874999998514,
          "durationTicks": 24,
          "midi": 41,
          "name": "F2",
          "ticks": 22680,
          "time": 138.97051875000002,
          "velocity": 0.7874015748031497
        },
        {
          "duration": 0.14705875000001356,
          "durationTicks": 24,
          "midi": 41,
          "name": "F2",
          "ticks": 22704,
          "time": 139.1175775,
          "velocity": 0.7874015748031497
        },
        {
          "duration": 0.14705874999998514,
          "durationTicks": 24,
          "midi": 41,
          "name": "F2",
          "ticks": 22728,
          "time": 139.26463625000002,
          "velocity": 0.7874015748031497
        },
        {
          "duration": 0.14705875000001356,
          "durationTicks": 24,
          "midi": 41,
          "name": "F2",
          "ticks": 22752,
          "time": 139.411695,
          "velocity": 0.7874015748031497
        },
        {
          "duration": 0.14705874999998514,
          "durationTicks": 24,
          "midi": 41,
          "name": "F2",
          "ticks": 22776,
          "time": 139.55875375000002,
          "velocity": 0.7874015748031497
        },
        {
          "duration": 0.14705875000001356,
          "durationTicks": 24,
          "midi": 41,
          "name": "F2",
          "ticks": 22800,
          "time": 139.7058125,
          "velocity": 0.7874015748031497
        },
        {
          "duration": 0.14705874999998514,
          "durationTicks": 24,
          "midi": 41,
          "name": "F2",
          "ticks": 22824,
          "time": 139.85287125000002,
          "velocity": 0.7874015748031497
        },
        {
          "duration": 0.14705875000001356,
          "durationTicks": 24,
          "midi": 41,
          "name": "F2",
          "ticks": 22848,
          "time": 139.99993,
          "velocity": 0.7874015748031497
        },
        {
          "duration": 0.14705874999998514,
          "durationTicks": 24,
          "midi": 41,
          "name": "F2",
          "ticks": 22872,
          "time": 140.14698875000002,
          "velocity": 0.7874015748031497
        },
        {
          "duration": 0.14705875000001356,
          "durationTicks": 24,
          "midi": 41,
          "name": "F2",
          "ticks": 22896,
          "time": 140.2940475,
          "velocity": 0.7874015748031497
        },
        {
          "duration": 0.14705874999998514,
          "durationTicks": 24,
          "midi": 41,
          "name": "F2",
          "ticks": 22920,
          "time": 140.44110625000002,
          "velocity": 0.7874015748031497
        },
        {
          "duration": 0.14705875000001356,
          "durationTicks": 24,
          "midi": 41,
          "name": "F2",
          "ticks": 22944,
          "time": 140.588165,
          "velocity": 0.7874015748031497
        },
        {
          "duration": 0.14705874999998514,
          "durationTicks": 24,
          "midi": 41,
          "name": "F2",
          "ticks": 22968,
          "time": 140.73522375000002,
          "velocity": 0.7874015748031497
        },
        {
          "duration": 0.14705875000001356,
          "durationTicks": 24,
          "midi": 41,
          "name": "F2",
          "ticks": 22992,
          "time": 140.8822825,
          "velocity": 0.7874015748031497
        },
        {
          "duration": 0.14705874999998514,
          "durationTicks": 24,
          "midi": 41,
          "name": "F2",
          "ticks": 23016,
          "time": 141.02934125000002,
          "velocity": 0.7874015748031497
        },
        {
          "duration": 0.14705875000001356,
          "durationTicks": 24,
          "midi": 41,
          "name": "F2",
          "ticks": 23040,
          "time": 141.1764,
          "velocity": 0.7874015748031497
        },
        {
          "duration": 0.14705875000001356,
          "durationTicks": 24,
          "midi": 41,
          "name": "F2",
          "ticks": 23064,
          "time": 141.32345875000001,
          "velocity": 0.7874015748031497
        },
        {
          "duration": 0.14705874999998514,
          "durationTicks": 24,
          "midi": 41,
          "name": "F2",
          "ticks": 23088,
          "time": 141.47051750000003,
          "velocity": 0.7874015748031497
        },
        {
          "duration": 0.14705875000001356,
          "durationTicks": 24,
          "midi": 41,
          "name": "F2",
          "ticks": 23112,
          "time": 141.61757625,
          "velocity": 0.7874015748031497
        },
        {
          "duration": 0.14705874999998514,
          "durationTicks": 24,
          "midi": 43,
          "name": "G2",
          "ticks": 23136,
          "time": 141.76463500000003,
          "velocity": 0.7874015748031497
        },
        {
          "duration": 0.14705875000001356,
          "durationTicks": 24,
          "midi": 43,
          "name": "G2",
          "ticks": 23160,
          "time": 141.91169375,
          "velocity": 0.7874015748031497
        },
        {
          "duration": 0.14705874999998514,
          "durationTicks": 24,
          "midi": 43,
          "name": "G2",
          "ticks": 23184,
          "time": 142.05875250000003,
          "velocity": 0.7874015748031497
        },
        {
          "duration": 0.14705875000001356,
          "durationTicks": 24,
          "midi": 43,
          "name": "G2",
          "ticks": 23208,
          "time": 142.20581125,
          "velocity": 0.7874015748031497
        },
        {
          "duration": 0.14705874999998514,
          "durationTicks": 24,
          "midi": 43,
          "name": "G2",
          "ticks": 23232,
          "time": 142.35287000000002,
          "velocity": 0.7874015748031497
        },
        {
          "duration": 0.14705875000001356,
          "durationTicks": 24,
          "midi": 43,
          "name": "G2",
          "ticks": 23256,
          "time": 142.49992875,
          "velocity": 0.7874015748031497
        },
        {
          "duration": 0.14705874999998514,
          "durationTicks": 24,
          "midi": 43,
          "name": "G2",
          "ticks": 23280,
          "time": 142.64698750000002,
          "velocity": 0.7874015748031497
        },
        {
          "duration": 0.14705875000001356,
          "durationTicks": 24,
          "midi": 43,
          "name": "G2",
          "ticks": 23304,
          "time": 142.79404625,
          "velocity": 0.7874015748031497
        },
        {
          "duration": 0.14705874999998514,
          "durationTicks": 24,
          "midi": 43,
          "name": "G2",
          "ticks": 23328,
          "time": 142.94110500000002,
          "velocity": 0.7874015748031497
        },
        {
          "duration": 0.14705875000001356,
          "durationTicks": 24,
          "midi": 43,
          "name": "G2",
          "ticks": 23352,
          "time": 143.08816375,
          "velocity": 0.7874015748031497
        },
        {
          "duration": 0.14705874999998514,
          "durationTicks": 24,
          "midi": 43,
          "name": "G2",
          "ticks": 23376,
          "time": 143.23522250000002,
          "velocity": 0.7874015748031497
        },
        {
          "duration": 0.14705875000001356,
          "durationTicks": 24,
          "midi": 43,
          "name": "G2",
          "ticks": 23400,
          "time": 143.38228125,
          "velocity": 0.7874015748031497
        },
        {
          "duration": 0.14705874999998514,
          "durationTicks": 24,
          "midi": 43,
          "name": "G2",
          "ticks": 23424,
          "time": 143.52934000000002,
          "velocity": 0.7874015748031497
        },
        {
          "duration": 0.14705875000001356,
          "durationTicks": 24,
          "midi": 43,
          "name": "G2",
          "ticks": 23448,
          "time": 143.67639875,
          "velocity": 0.7874015748031497
        },
        {
          "duration": 0.14705874999998514,
          "durationTicks": 24,
          "midi": 43,
          "name": "G2",
          "ticks": 23472,
          "time": 143.82345750000002,
          "velocity": 0.7874015748031497
        },
        {
          "duration": 0.14705875000001356,
          "durationTicks": 24,
          "midi": 43,
          "name": "G2",
          "ticks": 23496,
          "time": 143.97051625,
          "velocity": 0.7874015748031497
        },
        {
          "duration": 0.14705874999998514,
          "durationTicks": 24,
          "midi": 39,
          "name": "D#2",
          "ticks": 23520,
          "time": 144.11757500000002,
          "velocity": 0.7874015748031497
        },
        {
          "duration": 0.14705875000001356,
          "durationTicks": 24,
          "midi": 39,
          "name": "D#2",
          "ticks": 23544,
          "time": 144.26463375,
          "velocity": 0.7874015748031497
        },
        {
          "duration": 0.14705875000001356,
          "durationTicks": 24,
          "midi": 39,
          "name": "D#2",
          "ticks": 23568,
          "time": 144.41169250000002,
          "velocity": 0.7874015748031497
        },
        {
          "duration": 0.14705874999998514,
          "durationTicks": 24,
          "midi": 39,
          "name": "D#2",
          "ticks": 23592,
          "time": 144.55875125000003,
          "velocity": 0.7874015748031497
        },
        {
          "duration": 0.14705875000001356,
          "durationTicks": 24,
          "midi": 39,
          "name": "D#2",
          "ticks": 23616,
          "time": 144.70581,
          "velocity": 0.7874015748031497
        },
        {
          "duration": 0.14705874999998514,
          "durationTicks": 24,
          "midi": 39,
          "name": "D#2",
          "ticks": 23640,
          "time": 144.85286875000003,
          "velocity": 0.7874015748031497
        },
        {
          "duration": 0.14705875000001356,
          "durationTicks": 24,
          "midi": 39,
          "name": "D#2",
          "ticks": 23664,
          "time": 144.9999275,
          "velocity": 0.7874015748031497
        },
        {
          "duration": 0.14705874999998514,
          "durationTicks": 24,
          "midi": 39,
          "name": "D#2",
          "ticks": 23688,
          "time": 145.14698625000003,
          "velocity": 0.7874015748031497
        },
        {
          "duration": 0.14705875000001356,
          "durationTicks": 24,
          "midi": 39,
          "name": "D#2",
          "ticks": 23712,
          "time": 145.294045,
          "velocity": 0.7874015748031497
        },
        {
          "duration": 0.14705874999998514,
          "durationTicks": 24,
          "midi": 39,
          "name": "D#2",
          "ticks": 23736,
          "time": 145.44110375000002,
          "velocity": 0.7874015748031497
        },
        {
          "duration": 0.14705875000001356,
          "durationTicks": 24,
          "midi": 39,
          "name": "D#2",
          "ticks": 23760,
          "time": 145.5881625,
          "velocity": 0.7874015748031497
        },
        {
          "duration": 0.14705874999998514,
          "durationTicks": 24,
          "midi": 39,
          "name": "D#2",
          "ticks": 23784,
          "time": 145.73522125000002,
          "velocity": 0.7874015748031497
        },
        {
          "duration": 0.14705875000001356,
          "durationTicks": 24,
          "midi": 39,
          "name": "D#2",
          "ticks": 23808,
          "time": 145.88228,
          "velocity": 0.7874015748031497
        },
        {
          "duration": 0.14705874999998514,
          "durationTicks": 24,
          "midi": 39,
          "name": "D#2",
          "ticks": 23832,
          "time": 146.02933875000002,
          "velocity": 0.7874015748031497
        },
        {
          "duration": 0.14705875000001356,
          "durationTicks": 24,
          "midi": 39,
          "name": "D#2",
          "ticks": 23856,
          "time": 146.1763975,
          "velocity": 0.7874015748031497
        },
        {
          "duration": 0.14705874999998514,
          "durationTicks": 24,
          "midi": 39,
          "name": "D#2",
          "ticks": 23880,
          "time": 146.32345625000002,
          "velocity": 0.7874015748031497
        },
        {
          "duration": 0.14705875000001356,
          "durationTicks": 24,
          "midi": 41,
          "name": "F2",
          "ticks": 23904,
          "time": 146.470515,
          "velocity": 0.7874015748031497
        },
        {
          "duration": 0.14705874999998514,
          "durationTicks": 24,
          "midi": 41,
          "name": "F2",
          "ticks": 23928,
          "time": 146.61757375000002,
          "velocity": 0.7874015748031497
        },
        {
          "duration": 0.14705875000001356,
          "durationTicks": 24,
          "midi": 41,
          "name": "F2",
          "ticks": 23952,
          "time": 146.7646325,
          "velocity": 0.7874015748031497
        },
        {
          "duration": 0.14705874999998514,
          "durationTicks": 24,
          "midi": 41,
          "name": "F2",
          "ticks": 23976,
          "time": 146.91169125000002,
          "velocity": 0.7874015748031497
        },
        {
          "duration": 0.14705875000001356,
          "durationTicks": 24,
          "midi": 41,
          "name": "F2",
          "ticks": 24000,
          "time": 147.05875,
          "velocity": 0.7874015748031497
        },
        {
          "duration": 0.14705874999998514,
          "durationTicks": 24,
          "midi": 41,
          "name": "F2",
          "ticks": 24024,
          "time": 147.20580875000002,
          "velocity": 0.7874015748031497
        },
        {
          "duration": 0.14705875000001356,
          "durationTicks": 24,
          "midi": 41,
          "name": "F2",
          "ticks": 24048,
          "time": 147.3528675,
          "velocity": 0.7874015748031497
        },
        {
          "duration": 0.14705875000001356,
          "durationTicks": 24,
          "midi": 41,
          "name": "F2",
          "ticks": 24072,
          "time": 147.49992625000002,
          "velocity": 0.7874015748031497
        },
        {
          "duration": 0.14705874999998514,
          "durationTicks": 24,
          "midi": 41,
          "name": "F2",
          "ticks": 24096,
          "time": 147.64698500000003,
          "velocity": 0.7874015748031497
        },
        {
          "duration": 0.14705875000001356,
          "durationTicks": 24,
          "midi": 41,
          "name": "F2",
          "ticks": 24120,
          "time": 147.79404375000001,
          "velocity": 0.7874015748031497
        },
        {
          "duration": 0.14705874999998514,
          "durationTicks": 24,
          "midi": 41,
          "name": "F2",
          "ticks": 24144,
          "time": 147.94110250000003,
          "velocity": 0.7874015748031497
        },
        {
          "duration": 0.14705875000001356,
          "durationTicks": 24,
          "midi": 41,
          "name": "F2",
          "ticks": 24168,
          "time": 148.08816125,
          "velocity": 0.7874015748031497
        },
        {
          "duration": 0.14705874999998514,
          "durationTicks": 24,
          "midi": 41,
          "name": "F2",
          "ticks": 24192,
          "time": 148.23522000000003,
          "velocity": 0.7874015748031497
        },
        {
          "duration": 0.14705875000001356,
          "durationTicks": 24,
          "midi": 41,
          "name": "F2",
          "ticks": 24216,
          "time": 148.38227875,
          "velocity": 0.7874015748031497
        },
        {
          "duration": 0.14705874999998514,
          "durationTicks": 24,
          "midi": 41,
          "name": "F2",
          "ticks": 24240,
          "time": 148.52933750000003,
          "velocity": 0.7874015748031497
        },
        {
          "duration": 0.14705875000001356,
          "durationTicks": 24,
          "midi": 41,
          "name": "F2",
          "ticks": 24264,
          "time": 148.67639625,
          "velocity": 0.7874015748031497
        },
        {
          "duration": 0.14705874999998514,
          "durationTicks": 24,
          "midi": 41,
          "name": "F2",
          "ticks": 24288,
          "time": 148.82345500000002,
          "velocity": 0.7874015748031497
        },
        {
          "duration": 0.14705875000001356,
          "durationTicks": 24,
          "midi": 41,
          "name": "F2",
          "ticks": 24312,
          "time": 148.97051375,
          "velocity": 0.7874015748031497
        },
        {
          "duration": 0.14705874999998514,
          "durationTicks": 24,
          "midi": 41,
          "name": "F2",
          "ticks": 24336,
          "time": 149.11757250000002,
          "velocity": 0.7874015748031497
        },
        {
          "duration": 0.14705875000001356,
          "durationTicks": 24,
          "midi": 41,
          "name": "F2",
          "ticks": 24360,
          "time": 149.26463125,
          "velocity": 0.7874015748031497
        },
        {
          "duration": 0.14705874999998514,
          "durationTicks": 24,
          "midi": 41,
          "name": "F2",
          "ticks": 24384,
          "time": 149.41169000000002,
          "velocity": 0.7874015748031497
        },
        {
          "duration": 0.14705875000001356,
          "durationTicks": 24,
          "midi": 41,
          "name": "F2",
          "ticks": 24408,
          "time": 149.55874875,
          "velocity": 0.7874015748031497
        },
        {
          "duration": 0.14705874999998514,
          "durationTicks": 24,
          "midi": 41,
          "name": "F2",
          "ticks": 24432,
          "time": 149.70580750000002,
          "velocity": 0.7874015748031497
        },
        {
          "duration": 0.14705875000001356,
          "durationTicks": 24,
          "midi": 41,
          "name": "F2",
          "ticks": 24456,
          "time": 149.85286625,
          "velocity": 0.7874015748031497
        },
        {
          "duration": 0.14705874999998514,
          "durationTicks": 24,
          "midi": 41,
          "name": "F2",
          "ticks": 24480,
          "time": 149.99992500000002,
          "velocity": 0.7874015748031497
        },
        {
          "duration": 0.14705875000001356,
          "durationTicks": 24,
          "midi": 41,
          "name": "F2",
          "ticks": 24504,
          "time": 150.14698375,
          "velocity": 0.7874015748031497
        },
        {
          "duration": 0.14705874999998514,
          "durationTicks": 24,
          "midi": 41,
          "name": "F2",
          "ticks": 24528,
          "time": 150.29404250000002,
          "velocity": 0.7874015748031497
        },
        {
          "duration": 0.14705875000001356,
          "durationTicks": 24,
          "midi": 41,
          "name": "F2",
          "ticks": 24552,
          "time": 150.44110125,
          "velocity": 0.7874015748031497
        },
        {
          "duration": 0.14705875000001356,
          "durationTicks": 24,
          "midi": 41,
          "name": "F2",
          "ticks": 24576,
          "time": 150.58816000000002,
          "velocity": 0.7874015748031497
        },
        {
          "duration": 0.14705874999998514,
          "durationTicks": 24,
          "midi": 41,
          "name": "F2",
          "ticks": 24600,
          "time": 150.73521875000003,
          "velocity": 0.7874015748031497
        },
        {
          "duration": 0.14705875000001356,
          "durationTicks": 24,
          "midi": 41,
          "name": "F2",
          "ticks": 24624,
          "time": 150.88227750000001,
          "velocity": 0.7874015748031497
        },
        {
          "duration": 0.14705874999998514,
          "durationTicks": 24,
          "midi": 41,
          "name": "F2",
          "ticks": 24648,
          "time": 151.02933625000003,
          "velocity": 0.7874015748031497
        },
        {
          "duration": 0.14705875000001356,
          "durationTicks": 24,
          "midi": 40,
          "name": "E2",
          "ticks": 24672,
          "time": 151.176395,
          "velocity": 0.7874015748031497
        },
        {
          "duration": 0.14705874999998514,
          "durationTicks": 24,
          "midi": 40,
          "name": "E2",
          "ticks": 24696,
          "time": 151.32345375000003,
          "velocity": 0.7874015748031497
        },
        {
          "duration": 0.14705875000001356,
          "durationTicks": 24,
          "midi": 40,
          "name": "E2",
          "ticks": 24720,
          "time": 151.4705125,
          "velocity": 0.7874015748031497
        },
        {
          "duration": 0.14705874999998514,
          "durationTicks": 24,
          "midi": 40,
          "name": "E2",
          "ticks": 24744,
          "time": 151.61757125000003,
          "velocity": 0.7874015748031497
        },
        {
          "duration": 0.14705875000001356,
          "durationTicks": 24,
          "midi": 40,
          "name": "E2",
          "ticks": 24768,
          "time": 151.76463,
          "velocity": 0.7874015748031497
        },
        {
          "duration": 0.14705874999998514,
          "durationTicks": 24,
          "midi": 40,
          "name": "E2",
          "ticks": 24792,
          "time": 151.91168875000002,
          "velocity": 0.7874015748031497
        },
        {
          "duration": 0.14705875000001356,
          "durationTicks": 24,
          "midi": 40,
          "name": "E2",
          "ticks": 24816,
          "time": 152.0587475,
          "velocity": 0.7874015748031497
        },
        {
          "duration": 0.14705874999998514,
          "durationTicks": 24,
          "midi": 40,
          "name": "E2",
          "ticks": 24840,
          "time": 152.20580625000002,
          "velocity": 0.7874015748031497
        },
        {
          "duration": 0.14705875000001356,
          "durationTicks": 24,
          "midi": 40,
          "name": "E2",
          "ticks": 24864,
          "time": 152.352865,
          "velocity": 0.7874015748031497
        },
        {
          "duration": 0.14705874999998514,
          "durationTicks": 24,
          "midi": 40,
          "name": "E2",
          "ticks": 24888,
          "time": 152.49992375000002,
          "velocity": 0.7874015748031497
        },
        {
          "duration": 0.14705875000001356,
          "durationTicks": 24,
          "midi": 40,
          "name": "E2",
          "ticks": 24912,
          "time": 152.6469825,
          "velocity": 0.7874015748031497
        },
        {
          "duration": 0.14705874999998514,
          "durationTicks": 24,
          "midi": 40,
          "name": "E2",
          "ticks": 24936,
          "time": 152.79404125000002,
          "velocity": 0.7874015748031497
        },
        {
          "duration": 0.14705875000001356,
          "durationTicks": 24,
          "midi": 40,
          "name": "E2",
          "ticks": 24960,
          "time": 152.9411,
          "velocity": 0.7874015748031497
        },
        {
          "duration": 0.14705874999998514,
          "durationTicks": 24,
          "midi": 40,
          "name": "E2",
          "ticks": 24984,
          "time": 153.08815875000002,
          "velocity": 0.7874015748031497
        },
        {
          "duration": 0.14705875000001356,
          "durationTicks": 24,
          "midi": 40,
          "name": "E2",
          "ticks": 25008,
          "time": 153.2352175,
          "velocity": 0.7874015748031497
        },
        {
          "duration": 0.14705874999998514,
          "durationTicks": 24,
          "midi": 40,
          "name": "E2",
          "ticks": 25032,
          "time": 153.38227625000002,
          "velocity": 0.7874015748031497
        },
        {
          "duration": 0.14705875000001356,
          "durationTicks": 24,
          "midi": 40,
          "name": "E2",
          "ticks": 25056,
          "time": 153.529335,
          "velocity": 0.7874015748031497
        },
        {
          "duration": 0.14705875000001356,
          "durationTicks": 24,
          "midi": 40,
          "name": "E2",
          "ticks": 25080,
          "time": 153.67639375000002,
          "velocity": 0.7874015748031497
        },
        {
          "duration": 0.14705874999998514,
          "durationTicks": 24,
          "midi": 40,
          "name": "E2",
          "ticks": 25104,
          "time": 153.82345250000003,
          "velocity": 0.7874015748031497
        },
        {
          "duration": 0.14705875000001356,
          "durationTicks": 24,
          "midi": 40,
          "name": "E2",
          "ticks": 25128,
          "time": 153.97051125000002,
          "velocity": 0.7874015748031497
        },
        {
          "duration": 0.14705874999998514,
          "durationTicks": 24,
          "midi": 40,
          "name": "E2",
          "ticks": 25152,
          "time": 154.11757000000003,
          "velocity": 0.7874015748031497
        },
        {
          "duration": 0.14705875000001356,
          "durationTicks": 24,
          "midi": 40,
          "name": "E2",
          "ticks": 25176,
          "time": 154.26462875,
          "velocity": 0.7874015748031497
        },
        {
          "duration": 0.14705874999998514,
          "durationTicks": 24,
          "midi": 40,
          "name": "E2",
          "ticks": 25200,
          "time": 154.41168750000003,
          "velocity": 0.7874015748031497
        },
        {
          "duration": 0.14705875000001356,
          "durationTicks": 24,
          "midi": 40,
          "name": "E2",
          "ticks": 25224,
          "time": 154.55874625,
          "velocity": 0.7874015748031497
        },
        {
          "duration": 0.14705874999998514,
          "durationTicks": 24,
          "midi": 40,
          "name": "E2",
          "ticks": 25248,
          "time": 154.70580500000003,
          "velocity": 0.7874015748031497
        },
        {
          "duration": 0.14705875000001356,
          "durationTicks": 24,
          "midi": 40,
          "name": "E2",
          "ticks": 25272,
          "time": 154.85286375,
          "velocity": 0.7874015748031497
        },
        {
          "duration": 0.14705874999998514,
          "durationTicks": 24,
          "midi": 40,
          "name": "E2",
          "ticks": 25296,
          "time": 154.99992250000003,
          "velocity": 0.7874015748031497
        },
        {
          "duration": 0.14705875000001356,
          "durationTicks": 24,
          "midi": 40,
          "name": "E2",
          "ticks": 25320,
          "time": 155.14698125,
          "velocity": 0.7874015748031497
        },
        {
          "duration": 0.14705874999998514,
          "durationTicks": 24,
          "midi": 40,
          "name": "E2",
          "ticks": 25344,
          "time": 155.29404000000002,
          "velocity": 0.7874015748031497
        },
        {
          "duration": 0.14705875000001356,
          "durationTicks": 24,
          "midi": 40,
          "name": "E2",
          "ticks": 25368,
          "time": 155.44109875,
          "velocity": 0.7874015748031497
        },
        {
          "duration": 0.14705874999998514,
          "durationTicks": 24,
          "midi": 40,
          "name": "E2",
          "ticks": 25392,
          "time": 155.58815750000002,
          "velocity": 0.7874015748031497
        },
        {
          "duration": 0.14705875000001356,
          "durationTicks": 24,
          "midi": 40,
          "name": "E2",
          "ticks": 25416,
          "time": 155.73521625,
          "velocity": 0.7874015748031497
        },
        {
          "duration": 0.14705874999998514,
          "durationTicks": 24,
          "midi": 35,
          "name": "B1",
          "ticks": 25440,
          "time": 155.88227500000002,
          "velocity": 0.7874015748031497
        },
        {
          "duration": 0.14705875000001356,
          "durationTicks": 24,
          "midi": 35,
          "name": "B1",
          "ticks": 25464,
          "time": 156.02933375,
          "velocity": 0.7874015748031497
        },
        {
          "duration": 0.14705874999998514,
          "durationTicks": 24,
          "midi": 35,
          "name": "B1",
          "ticks": 25488,
          "time": 156.17639250000002,
          "velocity": 0.7874015748031497
        },
        {
          "duration": 0.14705875000001356,
          "durationTicks": 24,
          "midi": 35,
          "name": "B1",
          "ticks": 25512,
          "time": 156.32345125,
          "velocity": 0.7874015748031497
        },
        {
          "duration": 0.14705874999998514,
          "durationTicks": 24,
          "midi": 35,
          "name": "B1",
          "ticks": 25536,
          "time": 156.47051000000002,
          "velocity": 0.7874015748031497
        },
        {
          "duration": 0.14705875000001356,
          "durationTicks": 24,
          "midi": 35,
          "name": "B1",
          "ticks": 25560,
          "time": 156.61756875,
          "velocity": 0.7874015748031497
        },
        {
          "duration": 0.14705875000001356,
          "durationTicks": 24,
          "midi": 35,
          "name": "B1",
          "ticks": 25584,
          "time": 156.76462750000002,
          "velocity": 0.7874015748031497
        },
        {
          "duration": 0.14705874999998514,
          "durationTicks": 24,
          "midi": 35,
          "name": "B1",
          "ticks": 25608,
          "time": 156.91168625000003,
          "velocity": 0.7874015748031497
        },
        {
          "duration": 0.14705875000001356,
          "durationTicks": 24,
          "midi": 35,
          "name": "B1",
          "ticks": 25632,
          "time": 157.05874500000002,
          "velocity": 0.7874015748031497
        },
        {
          "duration": 0.14705874999998514,
          "durationTicks": 24,
          "midi": 35,
          "name": "B1",
          "ticks": 25656,
          "time": 157.20580375000003,
          "velocity": 0.7874015748031497
        },
        {
          "duration": 0.14705875000001356,
          "durationTicks": 24,
          "midi": 35,
          "name": "B1",
          "ticks": 25680,
          "time": 157.35286250000001,
          "velocity": 0.7874015748031497
        },
        {
          "duration": 0.14705874999998514,
          "durationTicks": 24,
          "midi": 35,
          "name": "B1",
          "ticks": 25704,
          "time": 157.49992125000003,
          "velocity": 0.7874015748031497
        },
        {
          "duration": 0.14705875000001356,
          "durationTicks": 24,
          "midi": 35,
          "name": "B1",
          "ticks": 25728,
          "time": 157.64698,
          "velocity": 0.7874015748031497
        },
        {
          "duration": 0.14705874999998514,
          "durationTicks": 24,
          "midi": 35,
          "name": "B1",
          "ticks": 25752,
          "time": 157.79403875000003,
          "velocity": 0.7874015748031497
        },
        {
          "duration": 0.14705875000001356,
          "durationTicks": 24,
          "midi": 35,
          "name": "B1",
          "ticks": 25776,
          "time": 157.9410975,
          "velocity": 0.7874015748031497
        },
        {
          "duration": 0.14705874999998514,
          "durationTicks": 24,
          "midi": 35,
          "name": "B1",
          "ticks": 25800,
          "time": 158.08815625000003,
          "velocity": 0.7874015748031497
        },
        {
          "duration": 0.14705875000001356,
          "durationTicks": 24,
          "midi": 35,
          "name": "B1",
          "ticks": 25824,
          "time": 158.235215,
          "velocity": 0.7874015748031497
        },
        {
          "duration": 0.14705874999998514,
          "durationTicks": 24,
          "midi": 35,
          "name": "B1",
          "ticks": 25848,
          "time": 158.38227375000002,
          "velocity": 0.7874015748031497
        },
        {
          "duration": 0.14705875000001356,
          "durationTicks": 24,
          "midi": 35,
          "name": "B1",
          "ticks": 25872,
          "time": 158.5293325,
          "velocity": 0.7874015748031497
        },
        {
          "duration": 0.14705874999998514,
          "durationTicks": 24,
          "midi": 37,
          "name": "C#2",
          "ticks": 25896,
          "time": 158.67639125000002,
          "velocity": 0.7874015748031497
        },
        {
          "duration": 0.14705875000001356,
          "durationTicks": 24,
          "midi": 37,
          "name": "C#2",
          "ticks": 25920,
          "time": 158.82345,
          "velocity": 0.7874015748031497
        },
        {
          "duration": 0.14705874999998514,
          "durationTicks": 24,
          "midi": 37,
          "name": "C#2",
          "ticks": 25944,
          "time": 158.97050875000002,
          "velocity": 0.7874015748031497
        },
        {
          "duration": 0.14705875000001356,
          "durationTicks": 24,
          "midi": 38,
          "name": "D2",
          "ticks": 25968,
          "time": 159.1175675,
          "velocity": 0.7874015748031497
        },
        {
          "duration": 0.14705874999998514,
          "durationTicks": 24,
          "midi": 38,
          "name": "D2",
          "ticks": 25992,
          "time": 159.26462625000002,
          "velocity": 0.7874015748031497
        },
        {
          "duration": 0.14705875000001356,
          "durationTicks": 24,
          "midi": 38,
          "name": "D2",
          "ticks": 26016,
          "time": 159.411685,
          "velocity": 0.7874015748031497
        },
        {
          "duration": 0.14705874999998514,
          "durationTicks": 24,
          "midi": 40,
          "name": "E2",
          "ticks": 26040,
          "time": 159.55874375000002,
          "velocity": 0.7874015748031497
        },
        {
          "duration": 0.14705875000001356,
          "durationTicks": 24,
          "midi": 40,
          "name": "E2",
          "ticks": 26064,
          "time": 159.7058025,
          "velocity": 0.7874015748031497
        },
        {
          "duration": 0.14705875000001356,
          "durationTicks": 24,
          "midi": 40,
          "name": "E2",
          "ticks": 26088,
          "time": 159.85286125000002,
          "velocity": 0.7874015748031497
        },
        {
          "duration": 0.14705874999998514,
          "durationTicks": 24,
          "midi": 38,
          "name": "D2",
          "ticks": 26112,
          "time": 159.99992000000003,
          "velocity": 0.7874015748031497
        },
        {
          "duration": 0.14705875000001356,
          "durationTicks": 24,
          "midi": 38,
          "name": "D2",
          "ticks": 26136,
          "time": 160.14697875000002,
          "velocity": 0.7874015748031497
        },
        {
          "duration": 0.14705874999998514,
          "durationTicks": 24,
          "midi": 37,
          "name": "C#2",
          "ticks": 26160,
          "time": 160.29403750000003,
          "velocity": 0.7874015748031497
        },
        {
          "duration": 0.14705875000001356,
          "durationTicks": 24,
          "midi": 37,
          "name": "C#2",
          "ticks": 26184,
          "time": 160.44109625000002,
          "velocity": 0.7874015748031497
        },
        {
          "duration": 0.14705874999998514,
          "durationTicks": 24,
          "midi": 35,
          "name": "B1",
          "ticks": 26208,
          "time": 160.58815500000003,
          "velocity": 0.7874015748031497
        },
        {
          "duration": 0.14705875000001356,
          "durationTicks": 24,
          "midi": 38,
          "name": "D2",
          "ticks": 26232,
          "time": 160.73521375,
          "velocity": 0.7874015748031497
        },
        {
          "duration": 0.14705874999998514,
          "durationTicks": 24,
          "midi": 35,
          "name": "B1",
          "ticks": 26256,
          "time": 160.88227250000003,
          "velocity": 0.7874015748031497
        },
        {
          "duration": 0.14705875000001356,
          "durationTicks": 24,
          "midi": 35,
          "name": "B1",
          "ticks": 26280,
          "time": 161.02933125,
          "velocity": 0.7874015748031497
        },
        {
          "duration": 0.14705874999998514,
          "durationTicks": 24,
          "midi": 38,
          "name": "D2",
          "ticks": 26304,
          "time": 161.17639000000003,
          "velocity": 0.7874015748031497
        },
        {
          "duration": 0.14705875000001356,
          "durationTicks": 24,
          "midi": 35,
          "name": "B1",
          "ticks": 26328,
          "time": 161.32344875,
          "velocity": 0.7874015748031497
        },
        {
          "duration": 0.14705874999998514,
          "durationTicks": 24,
          "midi": 35,
          "name": "B1",
          "ticks": 26352,
          "time": 161.47050750000002,
          "velocity": 0.7874015748031497
        },
        {
          "duration": 0.14705875000001356,
          "durationTicks": 24,
          "midi": 35,
          "name": "B1",
          "ticks": 26376,
          "time": 161.61756625,
          "velocity": 0.7874015748031497
        },
        {
          "duration": 0.14705874999998514,
          "durationTicks": 24,
          "midi": 35,
          "name": "B1",
          "ticks": 26400,
          "time": 161.76462500000002,
          "velocity": 0.7874015748031497
        },
        {
          "duration": 0.14705875000001356,
          "durationTicks": 24,
          "midi": 38,
          "name": "D2",
          "ticks": 26424,
          "time": 161.91168375,
          "velocity": 0.7874015748031497
        },
        {
          "duration": 0.14705874999998514,
          "durationTicks": 24,
          "midi": 35,
          "name": "B1",
          "ticks": 26448,
          "time": 162.05874250000002,
          "velocity": 0.7874015748031497
        },
        {
          "duration": 0.14705875000001356,
          "durationTicks": 24,
          "midi": 35,
          "name": "B1",
          "ticks": 26472,
          "time": 162.20580125,
          "velocity": 0.7874015748031497
        },
        {
          "duration": 0.14705874999998514,
          "durationTicks": 24,
          "midi": 38,
          "name": "D2",
          "ticks": 26496,
          "time": 162.35286000000002,
          "velocity": 0.7874015748031497
        },
        {
          "duration": 0.14705875000001356,
          "durationTicks": 24,
          "midi": 35,
          "name": "B1",
          "ticks": 26520,
          "time": 162.49991875,
          "velocity": 0.7874015748031497
        },
        {
          "duration": 0.14705874999998514,
          "durationTicks": 24,
          "midi": 35,
          "name": "B1",
          "ticks": 26544,
          "time": 162.64697750000002,
          "velocity": 0.7874015748031497
        },
        {
          "duration": 0.14705875000001356,
          "durationTicks": 24,
          "midi": 35,
          "name": "B1",
          "ticks": 26568,
          "time": 162.79403625,
          "velocity": 0.7874015748031497
        },
        {
          "duration": 0.14705874999998514,
          "durationTicks": 24,
          "midi": 35,
          "name": "B1",
          "ticks": 26592,
          "time": 162.94109500000002,
          "velocity": 0.7874015748031497
        },
        {
          "duration": 0.14705875000001356,
          "durationTicks": 24,
          "midi": 38,
          "name": "D2",
          "ticks": 26616,
          "time": 163.08815375,
          "velocity": 0.7874015748031497
        },
        {
          "duration": 0.14705875000001356,
          "durationTicks": 24,
          "midi": 35,
          "name": "B1",
          "ticks": 26640,
          "time": 163.23521250000002,
          "velocity": 0.7874015748031497
        },
        {
          "duration": 0.14705874999998514,
          "durationTicks": 24,
          "midi": 35,
          "name": "B1",
          "ticks": 26664,
          "time": 163.38227125000003,
          "velocity": 0.7874015748031497
        },
        {
          "duration": 0.14705875000001356,
          "durationTicks": 24,
          "midi": 38,
          "name": "D2",
          "ticks": 26688,
          "time": 163.52933000000002,
          "velocity": 0.7874015748031497
        },
        {
          "duration": 0.14705874999998514,
          "durationTicks": 24,
          "midi": 35,
          "name": "B1",
          "ticks": 26712,
          "time": 163.67638875000003,
          "velocity": 0.7874015748031497
        },
        {
          "duration": 0.14705875000001356,
          "durationTicks": 24,
          "midi": 35,
          "name": "B1",
          "ticks": 26736,
          "time": 163.82344750000001,
          "velocity": 0.7874015748031497
        },
        {
          "duration": 0.14705874999998514,
          "durationTicks": 24,
          "midi": 35,
          "name": "B1",
          "ticks": 26760,
          "time": 163.97050625000003,
          "velocity": 0.7874015748031497
        },
        {
          "duration": 0.14705875000001356,
          "durationTicks": 24,
          "midi": 35,
          "name": "B1",
          "ticks": 26784,
          "time": 164.117565,
          "velocity": 0.7874015748031497
        },
        {
          "duration": 0.14705874999998514,
          "durationTicks": 24,
          "midi": 38,
          "name": "D2",
          "ticks": 26808,
          "time": 164.26462375000003,
          "velocity": 0.7874015748031497
        },
        {
          "duration": 0.14705875000001356,
          "durationTicks": 24,
          "midi": 35,
          "name": "B1",
          "ticks": 26832,
          "time": 164.4116825,
          "velocity": 0.7874015748031497
        },
        {
          "duration": 0.14705874999998514,
          "durationTicks": 24,
          "midi": 35,
          "name": "B1",
          "ticks": 26856,
          "time": 164.55874125000003,
          "velocity": 0.7874015748031497
        },
        {
          "duration": 0.14705875000001356,
          "durationTicks": 24,
          "midi": 38,
          "name": "D2",
          "ticks": 26880,
          "time": 164.7058,
          "velocity": 0.7874015748031497
        },
        {
          "duration": 0.14705874999998514,
          "durationTicks": 24,
          "midi": 35,
          "name": "B1",
          "ticks": 26904,
          "time": 164.85285875000002,
          "velocity": 0.7874015748031497
        },
        {
          "duration": 0.14705875000001356,
          "durationTicks": 24,
          "midi": 35,
          "name": "B1",
          "ticks": 26928,
          "time": 164.9999175,
          "velocity": 0.7874015748031497
        },
        {
          "duration": 0.14705874999998514,
          "durationTicks": 24,
          "midi": 35,
          "name": "B1",
          "ticks": 26952,
          "time": 165.14697625000002,
          "velocity": 0.7874015748031497
        },
        {
          "duration": 0.14705875000001356,
          "durationTicks": 24,
          "midi": 35,
          "name": "B1",
          "ticks": 26976,
          "time": 165.294035,
          "velocity": 0.7874015748031497
        },
        {
          "duration": 0.14705874999998514,
          "durationTicks": 24,
          "midi": 38,
          "name": "D2",
          "ticks": 27000,
          "time": 165.44109375000002,
          "velocity": 0.7874015748031497
        },
        {
          "duration": 0.14705875000001356,
          "durationTicks": 24,
          "midi": 35,
          "name": "B1",
          "ticks": 27024,
          "time": 165.5881525,
          "velocity": 0.7874015748031497
        },
        {
          "duration": 0.14705874999998514,
          "durationTicks": 24,
          "midi": 35,
          "name": "B1",
          "ticks": 27048,
          "time": 165.73521125000002,
          "velocity": 0.7874015748031497
        },
        {
          "duration": 0.14705875000001356,
          "durationTicks": 24,
          "midi": 38,
          "name": "D2",
          "ticks": 27072,
          "time": 165.88227,
          "velocity": 0.7874015748031497
        },
        {
          "duration": 0.14705874999998514,
          "durationTicks": 24,
          "midi": 35,
          "name": "B1",
          "ticks": 27096,
          "time": 166.02932875000002,
          "velocity": 0.7874015748031497
        },
        {
          "duration": 0.14705875000001356,
          "durationTicks": 24,
          "midi": 35,
          "name": "B1",
          "ticks": 27120,
          "time": 166.1763875,
          "velocity": 0.7874015748031497
        },
        {
          "duration": 0.14705875000001356,
          "durationTicks": 24,
          "midi": 35,
          "name": "B1",
          "ticks": 27144,
          "time": 166.32344625000002,
          "velocity": 0.7874015748031497
        },
        {
          "duration": 0.14705874999998514,
          "durationTicks": 24,
          "midi": 35,
          "name": "B1",
          "ticks": 27168,
          "time": 166.47050500000003,
          "velocity": 0.7874015748031497
        },
        {
          "duration": 0.14705875000001356,
          "durationTicks": 24,
          "midi": 38,
          "name": "D2",
          "ticks": 27192,
          "time": 166.61756375000002,
          "velocity": 0.7874015748031497
        },
        {
          "duration": 0.14705874999998514,
          "durationTicks": 24,
          "midi": 35,
          "name": "B1",
          "ticks": 27216,
          "time": 166.76462250000003,
          "velocity": 0.7874015748031497
        },
        {
          "duration": 0.14705875000001356,
          "durationTicks": 24,
          "midi": 35,
          "name": "B1",
          "ticks": 27240,
          "time": 166.91168125000002,
          "velocity": 0.7874015748031497
        },
        {
          "duration": 0.14705874999998514,
          "durationTicks": 24,
          "midi": 38,
          "name": "D2",
          "ticks": 27264,
          "time": 167.05874000000003,
          "velocity": 0.7874015748031497
        },
        {
          "duration": 0.14705875000001356,
          "durationTicks": 24,
          "midi": 35,
          "name": "B1",
          "ticks": 27288,
          "time": 167.20579875,
          "velocity": 0.7874015748031497
        },
        {
          "duration": 0.14705874999998514,
          "durationTicks": 24,
          "midi": 35,
          "name": "B1",
          "ticks": 27312,
          "time": 167.35285750000003,
          "velocity": 0.7874015748031497
        },
        {
          "duration": 0.14705875000001356,
          "durationTicks": 24,
          "midi": 35,
          "name": "B1",
          "ticks": 27336,
          "time": 167.49991625,
          "velocity": 0.7874015748031497
        },
        {
          "duration": 0.14705874999998514,
          "durationTicks": 24,
          "midi": 35,
          "name": "B1",
          "ticks": 27360,
          "time": 167.64697500000003,
          "velocity": 0.7874015748031497
        },
        {
          "duration": 0.14705875000001356,
          "durationTicks": 24,
          "midi": 38,
          "name": "D2",
          "ticks": 27384,
          "time": 167.79403375,
          "velocity": 0.7874015748031497
        },
        {
          "duration": 0.14705874999998514,
          "durationTicks": 24,
          "midi": 35,
          "name": "B1",
          "ticks": 27408,
          "time": 167.94109250000002,
          "velocity": 0.7874015748031497
        },
        {
          "duration": 0.14705875000001356,
          "durationTicks": 24,
          "midi": 35,
          "name": "B1",
          "ticks": 27432,
          "time": 168.08815125,
          "velocity": 0.7874015748031497
        },
        {
          "duration": 0.14705874999998514,
          "durationTicks": 24,
          "midi": 38,
          "name": "D2",
          "ticks": 27456,
          "time": 168.23521000000002,
          "velocity": 0.7874015748031497
        },
        {
          "duration": 0.14705875000001356,
          "durationTicks": 24,
          "midi": 35,
          "name": "B1",
          "ticks": 27480,
          "time": 168.38226875,
          "velocity": 0.7874015748031497
        },
        {
          "duration": 0.14705874999998514,
          "durationTicks": 24,
          "midi": 35,
          "name": "B1",
          "ticks": 27504,
          "time": 168.52932750000002,
          "velocity": 0.7874015748031497
        },
        {
          "duration": 0.14705875000001356,
          "durationTicks": 24,
          "midi": 35,
          "name": "B1",
          "ticks": 27528,
          "time": 168.67638625,
          "velocity": 0.7874015748031497
        },
        {
          "duration": 0.14705874999998514,
          "durationTicks": 24,
          "midi": 35,
          "name": "B1",
          "ticks": 27552,
          "time": 168.82344500000002,
          "velocity": 0.7874015748031497
        },
        {
          "duration": 0.14705875000001356,
          "durationTicks": 24,
          "midi": 38,
          "name": "D2",
          "ticks": 27576,
          "time": 168.97050375,
          "velocity": 0.7874015748031497
        },
        {
          "duration": 0.14705874999998514,
          "durationTicks": 24,
          "midi": 35,
          "name": "B1",
          "ticks": 27600,
          "time": 169.11756250000002,
          "velocity": 0.7874015748031497
        },
        {
          "duration": 0.14705875000001356,
          "durationTicks": 24,
          "midi": 35,
          "name": "B1",
          "ticks": 27624,
          "time": 169.26462125,
          "velocity": 0.7874015748031497
        },
        {
          "duration": 0.14705875000001356,
          "durationTicks": 24,
          "midi": 38,
          "name": "D2",
          "ticks": 27648,
          "time": 169.41168000000002,
          "velocity": 0.7874015748031497
        },
        {
          "duration": 0.14705874999998514,
          "durationTicks": 24,
          "midi": 35,
          "name": "B1",
          "ticks": 27672,
          "time": 169.55873875000003,
          "velocity": 0.7874015748031497
        },
        {
          "duration": 0.14705875000001356,
          "durationTicks": 24,
          "midi": 35,
          "name": "B1",
          "ticks": 27696,
          "time": 169.70579750000002,
          "velocity": 0.7874015748031497
        },
        {
          "duration": 0.14705874999998514,
          "durationTicks": 24,
          "midi": 35,
          "name": "B1",
          "ticks": 27720,
          "time": 169.85285625000003,
          "velocity": 0.7874015748031497
        },
        {
          "duration": 0.14705875000001356,
          "durationTicks": 24,
          "midi": 35,
          "name": "B1",
          "ticks": 27744,
          "time": 169.99991500000002,
          "velocity": 0.7874015748031497
        },
        {
          "duration": 0.14705874999998514,
          "durationTicks": 24,
          "midi": 38,
          "name": "D2",
          "ticks": 27768,
          "time": 170.14697375000003,
          "velocity": 0.7874015748031497
        },
        {
          "duration": 0.14705875000001356,
          "durationTicks": 24,
          "midi": 35,
          "name": "B1",
          "ticks": 27792,
          "time": 170.29403250000001,
          "velocity": 0.7874015748031497
        },
        {
          "duration": 0.14705874999998514,
          "durationTicks": 24,
          "midi": 35,
          "name": "B1",
          "ticks": 27816,
          "time": 170.44109125000003,
          "velocity": 0.7874015748031497
        },
        {
          "duration": 0.14705875000001356,
          "durationTicks": 24,
          "midi": 38,
          "name": "D2",
          "ticks": 27840,
          "time": 170.58815,
          "velocity": 0.7874015748031497
        },
        {
          "duration": 0.14705874999998514,
          "durationTicks": 24,
          "midi": 35,
          "name": "B1",
          "ticks": 27864,
          "time": 170.73520875000003,
          "velocity": 0.7874015748031497
        },
        {
          "duration": 0.14705875000001356,
          "durationTicks": 24,
          "midi": 35,
          "name": "B1",
          "ticks": 27888,
          "time": 170.8822675,
          "velocity": 0.7874015748031497
        },
        {
          "duration": 0.14705874999998514,
          "durationTicks": 24,
          "midi": 35,
          "name": "B1",
          "ticks": 27912,
          "time": 171.02932625000003,
          "velocity": 0.7874015748031497
        },
        {
          "duration": 0.14705875000001356,
          "durationTicks": 24,
          "midi": 35,
          "name": "B1",
          "ticks": 27936,
          "time": 171.176385,
          "velocity": 0.7874015748031497
        },
        {
          "duration": 0.14705874999998514,
          "durationTicks": 24,
          "midi": 38,
          "name": "D2",
          "ticks": 27960,
          "time": 171.32344375000002,
          "velocity": 0.7874015748031497
        },
        {
          "duration": 0.14705875000001356,
          "durationTicks": 24,
          "midi": 35,
          "name": "B1",
          "ticks": 27984,
          "time": 171.4705025,
          "velocity": 0.7874015748031497
        },
        {
          "duration": 0.14705874999998514,
          "durationTicks": 24,
          "midi": 35,
          "name": "B1",
          "ticks": 28008,
          "time": 171.61756125000002,
          "velocity": 0.7874015748031497
        },
        {
          "duration": 0.14705875000001356,
          "durationTicks": 24,
          "midi": 38,
          "name": "D2",
          "ticks": 28032,
          "time": 171.76462,
          "velocity": 0.7874015748031497
        },
        {
          "duration": 0.14705874999998514,
          "durationTicks": 24,
          "midi": 35,
          "name": "B1",
          "ticks": 28056,
          "time": 171.91167875000002,
          "velocity": 0.7874015748031497
        },
        {
          "duration": 0.14705875000001356,
          "durationTicks": 24,
          "midi": 35,
          "name": "B1",
          "ticks": 28080,
          "time": 172.0587375,
          "velocity": 0.7874015748031497
        },
        {
          "duration": 0.14705874999998514,
          "durationTicks": 24,
          "midi": 35,
          "name": "B1",
          "ticks": 28104,
          "time": 172.20579625000002,
          "velocity": 0.7874015748031497
        },
        {
          "duration": 0.14705875000001356,
          "durationTicks": 24,
          "midi": 35,
          "name": "B1",
          "ticks": 28128,
          "time": 172.352855,
          "velocity": 0.7874015748031497
        },
        {
          "duration": 0.14705875000001356,
          "durationTicks": 24,
          "midi": 38,
          "name": "D2",
          "ticks": 28152,
          "time": 172.49991375000002,
          "velocity": 0.7874015748031497
        },
        {
          "duration": 0.14705874999998514,
          "durationTicks": 24,
          "midi": 35,
          "name": "B1",
          "ticks": 28176,
          "time": 172.64697250000003,
          "velocity": 0.7874015748031497
        },
        {
          "duration": 0.14705875000001356,
          "durationTicks": 24,
          "midi": 35,
          "name": "B1",
          "ticks": 28200,
          "time": 172.79403125000002,
          "velocity": 0.7874015748031497
        },
        {
          "duration": 0.14705874999998514,
          "durationTicks": 24,
          "midi": 38,
          "name": "D2",
          "ticks": 28224,
          "time": 172.94109000000003,
          "velocity": 0.7874015748031497
        },
        {
          "duration": 0.14705875000001356,
          "durationTicks": 24,
          "midi": 35,
          "name": "B1",
          "ticks": 28248,
          "time": 173.08814875000002,
          "velocity": 0.7874015748031497
        },
        {
          "duration": 0.14705874999998514,
          "durationTicks": 24,
          "midi": 35,
          "name": "B1",
          "ticks": 28272,
          "time": 173.23520750000003,
          "velocity": 0.7874015748031497
        },
        {
          "duration": 0.14705875000001356,
          "durationTicks": 24,
          "midi": 35,
          "name": "B1",
          "ticks": 28296,
          "time": 173.38226625000001,
          "velocity": 0.7874015748031497
        },
        {
          "duration": 0.14705874999998514,
          "durationTicks": 24,
          "midi": 35,
          "name": "B1",
          "ticks": 28320,
          "time": 173.52932500000003,
          "velocity": 0.7874015748031497
        },
        {
          "duration": 0.14705875000001356,
          "durationTicks": 24,
          "midi": 38,
          "name": "D2",
          "ticks": 28344,
          "time": 173.67638375,
          "velocity": 0.7874015748031497
        },
        {
          "duration": 0.14705874999998514,
          "durationTicks": 24,
          "midi": 35,
          "name": "B1",
          "ticks": 28368,
          "time": 173.82344250000003,
          "velocity": 0.7874015748031497
        },
        {
          "duration": 0.14705875000001356,
          "durationTicks": 24,
          "midi": 35,
          "name": "B1",
          "ticks": 28392,
          "time": 173.97050125,
          "velocity": 0.7874015748031497
        },
        {
          "duration": 0.14705874999998514,
          "durationTicks": 24,
          "midi": 38,
          "name": "D2",
          "ticks": 28416,
          "time": 174.11756000000003,
          "velocity": 0.7874015748031497
        },
        {
          "duration": 0.14705875000001356,
          "durationTicks": 24,
          "midi": 35,
          "name": "B1",
          "ticks": 28440,
          "time": 174.26461875,
          "velocity": 0.7874015748031497
        },
        {
          "duration": 0.14705874999998514,
          "durationTicks": 24,
          "midi": 35,
          "name": "B1",
          "ticks": 28464,
          "time": 174.41167750000002,
          "velocity": 0.7874015748031497
        },
        {
          "duration": 0.14705875000001356,
          "durationTicks": 24,
          "midi": 35,
          "name": "B1",
          "ticks": 28488,
          "time": 174.55873625,
          "velocity": 0.7874015748031497
        },
        {
          "duration": 0.14705874999998514,
          "durationTicks": 24,
          "midi": 35,
          "name": "B1",
          "ticks": 28512,
          "time": 174.70579500000002,
          "velocity": 0.7874015748031497
        },
        {
          "duration": 0.14705875000001356,
          "durationTicks": 24,
          "midi": 38,
          "name": "D2",
          "ticks": 28536,
          "time": 174.85285375,
          "velocity": 0.7874015748031497
        },
        {
          "duration": 0.14705874999998514,
          "durationTicks": 24,
          "midi": 35,
          "name": "B1",
          "ticks": 28560,
          "time": 174.99991250000002,
          "velocity": 0.7874015748031497
        },
        {
          "duration": 0.14705875000001356,
          "durationTicks": 24,
          "midi": 35,
          "name": "B1",
          "ticks": 28584,
          "time": 175.14697125,
          "velocity": 0.7874015748031497
        },
        {
          "duration": 0.14705874999998514,
          "durationTicks": 24,
          "midi": 38,
          "name": "D2",
          "ticks": 28608,
          "time": 175.29403000000002,
          "velocity": 0.7874015748031497
        },
        {
          "duration": 0.14705875000001356,
          "durationTicks": 24,
          "midi": 35,
          "name": "B1",
          "ticks": 28632,
          "time": 175.44108875,
          "velocity": 0.7874015748031497
        },
        {
          "duration": 0.14705875000001356,
          "durationTicks": 24,
          "midi": 35,
          "name": "B1",
          "ticks": 28656,
          "time": 175.58814750000002,
          "velocity": 0.7874015748031497
        },
        {
          "duration": 0.14705874999998514,
          "durationTicks": 24,
          "midi": 35,
          "name": "B1",
          "ticks": 28680,
          "time": 175.73520625000003,
          "velocity": 0.7874015748031497
        },
        {
          "duration": 0.14705875000001356,
          "durationTicks": 24,
          "midi": 35,
          "name": "B1",
          "ticks": 28704,
          "time": 175.88226500000002,
          "velocity": 0.7874015748031497
        },
        {
          "duration": 0.14705874999998514,
          "durationTicks": 24,
          "midi": 38,
          "name": "D2",
          "ticks": 28728,
          "time": 176.02932375000003,
          "velocity": 0.7874015748031497
        },
        {
          "duration": 0.14705875000001356,
          "durationTicks": 24,
          "midi": 35,
          "name": "B1",
          "ticks": 28752,
          "time": 176.17638250000002,
          "velocity": 0.7874015748031497
        },
        {
          "duration": 0.14705874999998514,
          "durationTicks": 24,
          "midi": 35,
          "name": "B1",
          "ticks": 28776,
          "time": 176.32344125000003,
          "velocity": 0.7874015748031497
        },
        {
          "duration": 0.2941174999999987,
          "durationTicks": 48,
          "midi": 38,
          "name": "D2",
          "ticks": 28800,
          "time": 176.47050000000002,
          "velocity": 0.7874015748031497
        },
        {
          "duration": 0.2941174999999987,
          "durationTicks": 48,
          "midi": 40,
          "name": "E2",
          "ticks": 28848,
          "time": 176.7646175,
          "velocity": 0.7874015748031497
        },
        {
          "duration": 0.44117625000001226,
          "durationTicks": 72,
          "midi": 41,
          "name": "F2",
          "ticks": 28896,
          "time": 177.058735,
          "velocity": 0.7874015748031497
        },
        {
          "duration": 0.44117624999998384,
          "durationTicks": 72,
          "midi": 40,
          "name": "E2",
          "ticks": 28968,
          "time": 177.49991125000003,
          "velocity": 0.7874015748031497
        },
        {
          "duration": 0.44117625000001226,
          "durationTicks": 72,
          "midi": 41,
          "name": "F2",
          "ticks": 29040,
          "time": 177.9410875,
          "velocity": 0.7874015748031497
        },
        {
          "duration": 0.44117624999998384,
          "durationTicks": 72,
          "midi": 43,
          "name": "G2",
          "ticks": 29112,
          "time": 178.38226375000002,
          "velocity": 0.7874015748031497
        },
        {
          "duration": 0.14705875000001356,
          "durationTicks": 24,
          "midi": 41,
          "name": "F2",
          "ticks": 29184,
          "time": 178.82344,
          "velocity": 0.7874015748031497
        },
        {
          "duration": 0.14705875000001356,
          "durationTicks": 24,
          "midi": 41,
          "name": "F2",
          "ticks": 29208,
          "time": 178.97049875000002,
          "velocity": 0.7874015748031497
        },
        {
          "duration": 0.2941174999999987,
          "durationTicks": 48,
          "midi": 40,
          "name": "E2",
          "ticks": 29232,
          "time": 179.11755750000003,
          "velocity": 0.7874015748031497
        },
        {
          "duration": 0.14705874999998514,
          "durationTicks": 24,
          "midi": 38,
          "name": "D2",
          "ticks": 29280,
          "time": 179.41167500000003,
          "velocity": 0.7874015748031497
        },
        {
          "duration": 0.14705875000001356,
          "durationTicks": 24,
          "midi": 38,
          "name": "D2",
          "ticks": 29304,
          "time": 179.55873375000002,
          "velocity": 0.7874015748031497
        },
        {
          "duration": 0.14705874999998514,
          "durationTicks": 24,
          "midi": 38,
          "name": "D2",
          "ticks": 29328,
          "time": 179.70579250000003,
          "velocity": 0.7874015748031497
        },
        {
          "duration": 0.14705875000001356,
          "durationTicks": 24,
          "midi": 38,
          "name": "D2",
          "ticks": 29352,
          "time": 179.85285125000001,
          "velocity": 0.7874015748031497
        },
        {
          "duration": 0.14705874999998514,
          "durationTicks": 24,
          "midi": 38,
          "name": "D2",
          "ticks": 29376,
          "time": 179.99991000000003,
          "velocity": 0.7874015748031497
        },
        {
          "duration": 0.14705875000001356,
          "durationTicks": 24,
          "midi": 38,
          "name": "D2",
          "ticks": 29400,
          "time": 180.14696875,
          "velocity": 0.7874015748031497
        },
        {
          "duration": 0.14705874999998514,
          "durationTicks": 24,
          "midi": 38,
          "name": "D2",
          "ticks": 29424,
          "time": 180.29402750000003,
          "velocity": 0.7874015748031497
        },
        {
          "duration": 0.14705875000001356,
          "durationTicks": 24,
          "midi": 38,
          "name": "D2",
          "ticks": 29448,
          "time": 180.44108625,
          "velocity": 0.7874015748031497
        },
        {
          "duration": 0.14705874999998514,
          "durationTicks": 24,
          "midi": 38,
          "name": "D2",
          "ticks": 29472,
          "time": 180.58814500000003,
          "velocity": 0.7874015748031497
        },
        {
          "duration": 0.14705875000001356,
          "durationTicks": 24,
          "midi": 38,
          "name": "D2",
          "ticks": 29496,
          "time": 180.73520375,
          "velocity": 0.7874015748031497
        },
        {
          "duration": 0.14705874999998514,
          "durationTicks": 24,
          "midi": 38,
          "name": "D2",
          "ticks": 29520,
          "time": 180.88226250000002,
          "velocity": 0.7874015748031497
        },
        {
          "duration": 0.14705875000001356,
          "durationTicks": 24,
          "midi": 38,
          "name": "D2",
          "ticks": 29544,
          "time": 181.02932125,
          "velocity": 0.7874015748031497
        },
        {
          "duration": 0.14705874999998514,
          "durationTicks": 24,
          "midi": 38,
          "name": "D2",
          "ticks": 29568,
          "time": 181.17638000000002,
          "velocity": 0.7874015748031497
        },
        {
          "duration": 0.14705875000001356,
          "durationTicks": 24,
          "midi": 38,
          "name": "D2",
          "ticks": 29592,
          "time": 181.32343875,
          "velocity": 0.7874015748031497
        },
        {
          "duration": 0.14705874999998514,
          "durationTicks": 24,
          "midi": 40,
          "name": "E2",
          "ticks": 29616,
          "time": 181.47049750000002,
          "velocity": 0.7874015748031497
        },
        {
          "duration": 0.14705875000001356,
          "durationTicks": 24,
          "midi": 40,
          "name": "E2",
          "ticks": 29640,
          "time": 181.61755625,
          "velocity": 0.7874015748031497
        },
        {
          "duration": 0.14705874999998514,
          "durationTicks": 24,
          "midi": 41,
          "name": "F2",
          "ticks": 29664,
          "time": 181.76461500000002,
          "velocity": 0.7874015748031497
        },
        {
          "duration": 0.14705875000001356,
          "durationTicks": 24,
          "midi": 41,
          "name": "F2",
          "ticks": 29688,
          "time": 181.91167375,
          "velocity": 0.7874015748031497
        },
        {
          "duration": 0.14705875000001356,
          "durationTicks": 24,
          "midi": 41,
          "name": "F2",
          "ticks": 29712,
          "time": 182.05873250000002,
          "velocity": 0.7874015748031497
        },
        {
          "duration": 0.14705874999998514,
          "durationTicks": 24,
          "midi": 41,
          "name": "F2",
          "ticks": 29736,
          "time": 182.20579125000003,
          "velocity": 0.7874015748031497
        },
        {
          "duration": 0.14705875000001356,
          "durationTicks": 24,
          "midi": 41,
          "name": "F2",
          "ticks": 29760,
          "time": 182.35285000000002,
          "velocity": 0.7874015748031497
        },
        {
          "duration": 0.14705874999998514,
          "durationTicks": 24,
          "midi": 41,
          "name": "F2",
          "ticks": 29784,
          "time": 182.49990875000003,
          "velocity": 0.7874015748031497
        },
        {
          "duration": 0.14705875000001356,
          "durationTicks": 24,
          "midi": 41,
          "name": "F2",
          "ticks": 29808,
          "time": 182.64696750000002,
          "velocity": 0.7874015748031497
        },
        {
          "duration": 0.14705874999998514,
          "durationTicks": 24,
          "midi": 41,
          "name": "F2",
          "ticks": 29832,
          "time": 182.79402625000003,
          "velocity": 0.7874015748031497
        },
        {
          "duration": 0.14705875000001356,
          "durationTicks": 24,
          "midi": 41,
          "name": "F2",
          "ticks": 29856,
          "time": 182.94108500000002,
          "velocity": 0.7874015748031497
        },
        {
          "duration": 0.14705874999998514,
          "durationTicks": 24,
          "midi": 41,
          "name": "F2",
          "ticks": 29880,
          "time": 183.08814375000003,
          "velocity": 0.7874015748031497
        },
        {
          "duration": 0.14705875000001356,
          "durationTicks": 24,
          "midi": 41,
          "name": "F2",
          "ticks": 29904,
          "time": 183.2352025,
          "velocity": 0.7874015748031497
        },
        {
          "duration": 0.14705874999998514,
          "durationTicks": 24,
          "midi": 41,
          "name": "F2",
          "ticks": 29928,
          "time": 183.38226125000003,
          "velocity": 0.7874015748031497
        },
        {
          "duration": 0.14705875000001356,
          "durationTicks": 24,
          "midi": 40,
          "name": "E2",
          "ticks": 29952,
          "time": 183.52932,
          "velocity": 0.7874015748031497
        },
        {
          "duration": 0.14705874999998514,
          "durationTicks": 24,
          "midi": 40,
          "name": "E2",
          "ticks": 29976,
          "time": 183.67637875000003,
          "velocity": 0.7874015748031497
        },
        {
          "duration": 0.14705875000001356,
          "durationTicks": 24,
          "midi": 36,
          "name": "C2",
          "ticks": 30000,
          "time": 183.8234375,
          "velocity": 0.7874015748031497
        },
        {
          "duration": 0.14705874999998514,
          "durationTicks": 24,
          "midi": 36,
          "name": "C2",
          "ticks": 30024,
          "time": 183.97049625000002,
          "velocity": 0.7874015748031497
        },
        {
          "duration": 0.14705875000001356,
          "durationTicks": 24,
          "midi": 34,
          "name": "A#1",
          "ticks": 30048,
          "time": 184.117555,
          "velocity": 0.7874015748031497
        },
        {
          "duration": 0.14705874999998514,
          "durationTicks": 24,
          "midi": 34,
          "name": "A#1",
          "ticks": 30072,
          "time": 184.26461375000002,
          "velocity": 0.7874015748031497
        },
        {
          "duration": 0.14705875000001356,
          "durationTicks": 24,
          "midi": 34,
          "name": "A#1",
          "ticks": 30096,
          "time": 184.4116725,
          "velocity": 0.7874015748031497
        },
        {
          "duration": 0.14705874999998514,
          "durationTicks": 24,
          "midi": 34,
          "name": "A#1",
          "ticks": 30120,
          "time": 184.55873125000002,
          "velocity": 0.7874015748031497
        },
        {
          "duration": 0.14705875000001356,
          "durationTicks": 24,
          "midi": 34,
          "name": "A#1",
          "ticks": 30144,
          "time": 184.70579,
          "velocity": 0.7874015748031497
        },
        {
          "duration": 0.14705874999998514,
          "durationTicks": 24,
          "midi": 34,
          "name": "A#1",
          "ticks": 30168,
          "time": 184.85284875000002,
          "velocity": 0.7874015748031497
        },
        {
          "duration": 0.14705875000001356,
          "durationTicks": 24,
          "midi": 34,
          "name": "A#1",
          "ticks": 30192,
          "time": 184.9999075,
          "velocity": 0.7874015748031497
        },
        {
          "duration": 0.14705875000001356,
          "durationTicks": 24,
          "midi": 34,
          "name": "A#1",
          "ticks": 30216,
          "time": 185.14696625000002,
          "velocity": 0.7874015748031497
        },
        {
          "duration": 0.14705874999998514,
          "durationTicks": 24,
          "midi": 34,
          "name": "A#1",
          "ticks": 30240,
          "time": 185.29402500000003,
          "velocity": 0.7874015748031497
        },
        {
          "duration": 0.14705875000001356,
          "durationTicks": 24,
          "midi": 34,
          "name": "A#1",
          "ticks": 30264,
          "time": 185.44108375000002,
          "velocity": 0.7874015748031497
        },
        {
          "duration": 0.14705874999998514,
          "durationTicks": 24,
          "midi": 34,
          "name": "A#1",
          "ticks": 30288,
          "time": 185.58814250000003,
          "velocity": 0.7874015748031497
        },
        {
          "duration": 0.14705875000001356,
          "durationTicks": 24,
          "midi": 34,
          "name": "A#1",
          "ticks": 30312,
          "time": 185.73520125000002,
          "velocity": 0.7874015748031497
        },
        {
          "duration": 0.14705874999998514,
          "durationTicks": 24,
          "midi": 34,
          "name": "A#1",
          "ticks": 30336,
          "time": 185.88226000000003,
          "velocity": 0.7874015748031497
        },
        {
          "duration": 0.14705875000001356,
          "durationTicks": 24,
          "midi": 34,
          "name": "A#1",
          "ticks": 30360,
          "time": 186.02931875000002,
          "velocity": 0.7874015748031497
        },
        {
          "duration": 0.14705874999998514,
          "durationTicks": 24,
          "midi": 34,
          "name": "A#1",
          "ticks": 30384,
          "time": 186.17637750000003,
          "velocity": 0.7874015748031497
        },
        {
          "duration": 0.14705875000001356,
          "durationTicks": 24,
          "midi": 34,
          "name": "A#1",
          "ticks": 30408,
          "time": 186.32343625000001,
          "velocity": 0.7874015748031497
        },
        {
          "duration": 0.14705874999998514,
          "durationTicks": 24,
          "midi": 36,
          "name": "C2",
          "ticks": 30432,
          "time": 186.47049500000003,
          "velocity": 0.7874015748031497
        },
        {
          "duration": 0.14705875000001356,
          "durationTicks": 24,
          "midi": 36,
          "name": "C2",
          "ticks": 30456,
          "time": 186.61755375,
          "velocity": 0.7874015748031497
        },
        {
          "duration": 0.14705874999998514,
          "durationTicks": 24,
          "midi": 36,
          "name": "C2",
          "ticks": 30480,
          "time": 186.76461250000003,
          "velocity": 0.7874015748031497
        },
        {
          "duration": 0.14705875000001356,
          "durationTicks": 24,
          "midi": 36,
          "name": "C2",
          "ticks": 30504,
          "time": 186.91167125,
          "velocity": 0.7874015748031497
        },
        {
          "duration": 0.14705874999998514,
          "durationTicks": 24,
          "midi": 36,
          "name": "C2",
          "ticks": 30528,
          "time": 187.05873000000003,
          "velocity": 0.7874015748031497
        },
        {
          "duration": 0.14705875000001356,
          "durationTicks": 24,
          "midi": 36,
          "name": "C2",
          "ticks": 30552,
          "time": 187.20578875,
          "velocity": 0.7874015748031497
        },
        {
          "duration": 0.14705874999998514,
          "durationTicks": 24,
          "midi": 36,
          "name": "C2",
          "ticks": 30576,
          "time": 187.35284750000002,
          "velocity": 0.7874015748031497
        },
        {
          "duration": 0.14705875000001356,
          "durationTicks": 24,
          "midi": 36,
          "name": "C2",
          "ticks": 30600,
          "time": 187.49990625,
          "velocity": 0.7874015748031497
        },
        {
          "duration": 0.14705874999998514,
          "durationTicks": 24,
          "midi": 36,
          "name": "C2",
          "ticks": 30624,
          "time": 187.64696500000002,
          "velocity": 0.7874015748031497
        },
        {
          "duration": 0.14705875000001356,
          "durationTicks": 24,
          "midi": 36,
          "name": "C2",
          "ticks": 30648,
          "time": 187.79402375,
          "velocity": 0.7874015748031497
        },
        {
          "duration": 0.14705874999998514,
          "durationTicks": 24,
          "midi": 36,
          "name": "C2",
          "ticks": 30672,
          "time": 187.94108250000002,
          "velocity": 0.7874015748031497
        },
        {
          "duration": 0.14705875000001356,
          "durationTicks": 24,
          "midi": 36,
          "name": "C2",
          "ticks": 30696,
          "time": 188.08814125,
          "velocity": 0.7874015748031497
        },
        {
          "duration": 0.14705875000001356,
          "durationTicks": 24,
          "midi": 36,
          "name": "C2",
          "ticks": 30720,
          "time": 188.23520000000002,
          "velocity": 0.7874015748031497
        },
        {
          "duration": 0.14705874999998514,
          "durationTicks": 24,
          "midi": 36,
          "name": "C2",
          "ticks": 30744,
          "time": 188.38225875000003,
          "velocity": 0.7874015748031497
        },
        {
          "duration": 0.14705875000001356,
          "durationTicks": 24,
          "midi": 36,
          "name": "C2",
          "ticks": 30768,
          "time": 188.52931750000002,
          "velocity": 0.7874015748031497
        },
        {
          "duration": 0.14705874999998514,
          "durationTicks": 24,
          "midi": 36,
          "name": "C2",
          "ticks": 30792,
          "time": 188.67637625000003,
          "velocity": 0.7874015748031497
        },
        {
          "duration": 0.14705875000001356,
          "durationTicks": 24,
          "midi": 38,
          "name": "D2",
          "ticks": 30816,
          "time": 188.82343500000002,
          "velocity": 0.7874015748031497
        },
        {
          "duration": 0.14705874999998514,
          "durationTicks": 24,
          "midi": 38,
          "name": "D2",
          "ticks": 30840,
          "time": 188.97049375000003,
          "velocity": 0.7874015748031497
        },
        {
          "duration": 0.14705875000001356,
          "durationTicks": 24,
          "midi": 38,
          "name": "D2",
          "ticks": 30864,
          "time": 189.11755250000002,
          "velocity": 0.7874015748031497
        },
        {
          "duration": 0.14705874999998514,
          "durationTicks": 24,
          "midi": 38,
          "name": "D2",
          "ticks": 30888,
          "time": 189.26461125000003,
          "velocity": 0.7874015748031497
        },
        {
          "duration": 0.14705875000001356,
          "durationTicks": 24,
          "midi": 38,
          "name": "D2",
          "ticks": 30912,
          "time": 189.41167000000002,
          "velocity": 0.7874015748031497
        },
        {
          "duration": 0.14705874999998514,
          "durationTicks": 24,
          "midi": 38,
          "name": "D2",
          "ticks": 30936,
          "time": 189.55872875000003,
          "velocity": 0.7874015748031497
        },
        {
          "duration": 0.14705875000001356,
          "durationTicks": 24,
          "midi": 38,
          "name": "D2",
          "ticks": 30960,
          "time": 189.7057875,
          "velocity": 0.7874015748031497
        },
        {
          "duration": 0.14705874999998514,
          "durationTicks": 24,
          "midi": 38,
          "name": "D2",
          "ticks": 30984,
          "time": 189.85284625000003,
          "velocity": 0.7874015748031497
        },
        {
          "duration": 0.14705875000001356,
          "durationTicks": 24,
          "midi": 38,
          "name": "D2",
          "ticks": 31008,
          "time": 189.999905,
          "velocity": 0.7874015748031497
        },
        {
          "duration": 0.14705874999998514,
          "durationTicks": 24,
          "midi": 38,
          "name": "D2",
          "ticks": 31032,
          "time": 190.14696375000003,
          "velocity": 0.7874015748031497
        },
        {
          "duration": 0.14705875000001356,
          "durationTicks": 24,
          "midi": 38,
          "name": "D2",
          "ticks": 31056,
          "time": 190.2940225,
          "velocity": 0.7874015748031497
        },
        {
          "duration": 0.14705874999998514,
          "durationTicks": 24,
          "midi": 38,
          "name": "D2",
          "ticks": 31080,
          "time": 190.44108125000002,
          "velocity": 0.7874015748031497
        },
        {
          "duration": 0.14705875000001356,
          "durationTicks": 24,
          "midi": 38,
          "name": "D2",
          "ticks": 31104,
          "time": 190.58814,
          "velocity": 0.7874015748031497
        },
        {
          "duration": 0.14705874999998514,
          "durationTicks": 24,
          "midi": 38,
          "name": "D2",
          "ticks": 31128,
          "time": 190.73519875000002,
          "velocity": 0.7874015748031497
        },
        {
          "duration": 0.14705875000001356,
          "durationTicks": 24,
          "midi": 40,
          "name": "E2",
          "ticks": 31152,
          "time": 190.8822575,
          "velocity": 0.7874015748031497
        },
        {
          "duration": 0.14705874999998514,
          "durationTicks": 24,
          "midi": 40,
          "name": "E2",
          "ticks": 31176,
          "time": 191.02931625000002,
          "velocity": 0.7874015748031497
        },
        {
          "duration": 0.14705875000001356,
          "durationTicks": 24,
          "midi": 41,
          "name": "F2",
          "ticks": 31200,
          "time": 191.176375,
          "velocity": 0.7874015748031497
        },
        {
          "duration": 0.14705875000001356,
          "durationTicks": 24,
          "midi": 41,
          "name": "F2",
          "ticks": 31224,
          "time": 191.32343375000002,
          "velocity": 0.7874015748031497
        },
        {
          "duration": 0.14705874999998514,
          "durationTicks": 24,
          "midi": 41,
          "name": "F2",
          "ticks": 31248,
          "time": 191.47049250000003,
          "velocity": 0.7874015748031497
        },
        {
          "duration": 0.14705875000001356,
          "durationTicks": 24,
          "midi": 41,
          "name": "F2",
          "ticks": 31272,
          "time": 191.61755125000002,
          "velocity": 0.7874015748031497
        },
        {
          "duration": 0.14705874999998514,
          "durationTicks": 24,
          "midi": 41,
          "name": "F2",
          "ticks": 31296,
          "time": 191.76461000000003,
          "velocity": 0.7874015748031497
        },
        {
          "duration": 0.14705875000001356,
          "durationTicks": 24,
          "midi": 41,
          "name": "F2",
          "ticks": 31320,
          "time": 191.91166875000002,
          "velocity": 0.7874015748031497
        },
        {
          "duration": 0.14705874999998514,
          "durationTicks": 24,
          "midi": 41,
          "name": "F2",
          "ticks": 31344,
          "time": 192.05872750000003,
          "velocity": 0.7874015748031497
        },
        {
          "duration": 0.14705875000001356,
          "durationTicks": 24,
          "midi": 41,
          "name": "F2",
          "ticks": 31368,
          "time": 192.20578625000002,
          "velocity": 0.7874015748031497
        },
        {
          "duration": 0.14705874999998514,
          "durationTicks": 24,
          "midi": 41,
          "name": "F2",
          "ticks": 31392,
          "time": 192.35284500000003,
          "velocity": 0.7874015748031497
        },
        {
          "duration": 0.14705875000001356,
          "durationTicks": 24,
          "midi": 41,
          "name": "F2",
          "ticks": 31416,
          "time": 192.49990375000002,
          "velocity": 0.7874015748031497
        },
        {
          "duration": 0.14705874999998514,
          "durationTicks": 24,
          "midi": 41,
          "name": "F2",
          "ticks": 31440,
          "time": 192.64696250000003,
          "velocity": 0.7874015748031497
        },
        {
          "duration": 0.14705875000001356,
          "durationTicks": 24,
          "midi": 41,
          "name": "F2",
          "ticks": 31464,
          "time": 192.79402125000001,
          "velocity": 0.7874015748031497
        },
        {
          "duration": 0.14705874999998514,
          "durationTicks": 24,
          "midi": 40,
          "name": "E2",
          "ticks": 31488,
          "time": 192.94108000000003,
          "velocity": 0.7874015748031497
        },
        {
          "duration": 0.14705875000001356,
          "durationTicks": 24,
          "midi": 40,
          "name": "E2",
          "ticks": 31512,
          "time": 193.08813875,
          "velocity": 0.7874015748031497
        },
        {
          "duration": 0.14705874999998514,
          "durationTicks": 24,
          "midi": 36,
          "name": "C2",
          "ticks": 31536,
          "time": 193.23519750000003,
          "velocity": 0.7874015748031497
        },
        {
          "duration": 0.14705875000001356,
          "durationTicks": 24,
          "midi": 36,
          "name": "C2",
          "ticks": 31560,
          "time": 193.38225625,
          "velocity": 0.7874015748031497
        },
        {
          "duration": 0.14705874999998514,
          "durationTicks": 24,
          "midi": 34,
          "name": "A#1",
          "ticks": 31584,
          "time": 193.52931500000003,
          "velocity": 0.7874015748031497
        },
        {
          "duration": 0.14705875000001356,
          "durationTicks": 24,
          "midi": 34,
          "name": "A#1",
          "ticks": 31608,
          "time": 193.67637375,
          "velocity": 0.7874015748031497
        },
        {
          "duration": 0.14705874999998514,
          "durationTicks": 24,
          "midi": 34,
          "name": "A#1",
          "ticks": 31632,
          "time": 193.82343250000002,
          "velocity": 0.7874015748031497
        },
        {
          "duration": 0.14705875000001356,
          "durationTicks": 24,
          "midi": 34,
          "name": "A#1",
          "ticks": 31656,
          "time": 193.97049125,
          "velocity": 0.7874015748031497
        },
        {
          "duration": 0.14705874999998514,
          "durationTicks": 24,
          "midi": 34,
          "name": "A#1",
          "ticks": 31680,
          "time": 194.11755000000002,
          "velocity": 0.7874015748031497
        },
        {
          "duration": 0.14705875000001356,
          "durationTicks": 24,
          "midi": 34,
          "name": "A#1",
          "ticks": 31704,
          "time": 194.26460875,
          "velocity": 0.7874015748031497
        },
        {
          "duration": 0.14705875000001356,
          "durationTicks": 24,
          "midi": 34,
          "name": "A#1",
          "ticks": 31728,
          "time": 194.41166750000002,
          "velocity": 0.7874015748031497
        },
        {
          "duration": 0.14705874999998514,
          "durationTicks": 24,
          "midi": 34,
          "name": "A#1",
          "ticks": 31752,
          "time": 194.55872625000003,
          "velocity": 0.7874015748031497
        },
        {
          "duration": 0.14705875000001356,
          "durationTicks": 24,
          "midi": 34,
          "name": "A#1",
          "ticks": 31776,
          "time": 194.70578500000002,
          "velocity": 0.7874015748031497
        },
        {
          "duration": 0.14705874999998514,
          "durationTicks": 24,
          "midi": 34,
          "name": "A#1",
          "ticks": 31800,
          "time": 194.85284375000003,
          "velocity": 0.7874015748031497
        },
        {
          "duration": 0.14705875000001356,
          "durationTicks": 24,
          "midi": 34,
          "name": "A#1",
          "ticks": 31824,
          "time": 194.99990250000002,
          "velocity": 0.7874015748031497
        },
        {
          "duration": 0.14705874999998514,
          "durationTicks": 24,
          "midi": 34,
          "name": "A#1",
          "ticks": 31848,
          "time": 195.14696125000003,
          "velocity": 0.7874015748031497
        },
        {
          "duration": 0.14705875000001356,
          "durationTicks": 24,
          "midi": 34,
          "name": "A#1",
          "ticks": 31872,
          "time": 195.29402000000002,
          "velocity": 0.7874015748031497
        },
        {
          "duration": 0.14705874999998514,
          "durationTicks": 24,
          "midi": 34,
          "name": "A#1",
          "ticks": 31896,
          "time": 195.44107875000003,
          "velocity": 0.7874015748031497
        },
        {
          "duration": 0.14705875000001356,
          "durationTicks": 24,
          "midi": 34,
          "name": "A#1",
          "ticks": 31920,
          "time": 195.58813750000002,
          "velocity": 0.7874015748031497
        },
        {
          "duration": 0.14705874999998514,
          "durationTicks": 24,
          "midi": 34,
          "name": "A#1",
          "ticks": 31944,
          "time": 195.73519625000003,
          "velocity": 0.7874015748031497
        },
        {
          "duration": 0.14705875000001356,
          "durationTicks": 24,
          "midi": 36,
          "name": "C2",
          "ticks": 31968,
          "time": 195.88225500000001,
          "velocity": 0.7874015748031497
        },
        {
          "duration": 0.14705874999998514,
          "durationTicks": 24,
          "midi": 36,
          "name": "C2",
          "ticks": 31992,
          "time": 196.02931375000003,
          "velocity": 0.7874015748031497
        },
        {
          "duration": 0.14705875000001356,
          "durationTicks": 24,
          "midi": 36,
          "name": "C2",
          "ticks": 32016,
          "time": 196.1763725,
          "velocity": 0.7874015748031497
        },
        {
          "duration": 0.14705874999998514,
          "durationTicks": 24,
          "midi": 36,
          "name": "C2",
          "ticks": 32040,
          "time": 196.32343125000003,
          "velocity": 0.7874015748031497
        },
        {
          "duration": 0.14705875000001356,
          "durationTicks": 24,
          "midi": 36,
          "name": "C2",
          "ticks": 32064,
          "time": 196.47049,
          "velocity": 0.7874015748031497
        },
        {
          "duration": 0.14705874999998514,
          "durationTicks": 24,
          "midi": 36,
          "name": "C2",
          "ticks": 32088,
          "time": 196.61754875000003,
          "velocity": 0.7874015748031497
        },
        {
          "duration": 0.14705875000001356,
          "durationTicks": 24,
          "midi": 36,
          "name": "C2",
          "ticks": 32112,
          "time": 196.7646075,
          "velocity": 0.7874015748031497
        },
        {
          "duration": 0.14705874999998514,
          "durationTicks": 24,
          "midi": 36,
          "name": "C2",
          "ticks": 32136,
          "time": 196.91166625000002,
          "velocity": 0.7874015748031497
        },
        {
          "duration": 0.14705875000001356,
          "durationTicks": 24,
          "midi": 36,
          "name": "C2",
          "ticks": 32160,
          "time": 197.058725,
          "velocity": 0.7874015748031497
        },
        {
          "duration": 0.14705874999998514,
          "durationTicks": 24,
          "midi": 36,
          "name": "C2",
          "ticks": 32184,
          "time": 197.20578375000002,
          "velocity": 0.7874015748031497
        },
        {
          "duration": 0.14705875000001356,
          "durationTicks": 24,
          "midi": 36,
          "name": "C2",
          "ticks": 32208,
          "time": 197.3528425,
          "velocity": 0.7874015748031497
        },
        {
          "duration": 0.14705875000001356,
          "durationTicks": 24,
          "midi": 36,
          "name": "C2",
          "ticks": 32232,
          "time": 197.49990125000002,
          "velocity": 0.7874015748031497
        },
        {
          "duration": 0.14705874999998514,
          "durationTicks": 24,
          "midi": 36,
          "name": "C2",
          "ticks": 32256,
          "time": 197.64696000000004,
          "velocity": 0.7874015748031497
        },
        {
          "duration": 0.14705875000001356,
          "durationTicks": 24,
          "midi": 36,
          "name": "C2",
          "ticks": 32280,
          "time": 197.79401875000002,
          "velocity": 0.7874015748031497
        },
        {
          "duration": 0.14705874999998514,
          "durationTicks": 24,
          "midi": 36,
          "name": "C2",
          "ticks": 32304,
          "time": 197.94107750000003,
          "velocity": 0.7874015748031497
        },
        {
          "duration": 0.14705875000001356,
          "durationTicks": 24,
          "midi": 36,
          "name": "C2",
          "ticks": 32328,
          "time": 198.08813625000002,
          "velocity": 0.7874015748031497
        },
        {
          "duration": 0.14705874999998514,
          "durationTicks": 24,
          "midi": 41,
          "name": "F2",
          "ticks": 32352,
          "time": 198.23519500000003,
          "velocity": 0.7874015748031497
        },
        {
          "duration": 0.14705875000001356,
          "durationTicks": 24,
          "midi": 41,
          "name": "F2",
          "ticks": 32376,
          "time": 198.38225375000002,
          "velocity": 0.7874015748031497
        },
        {
          "duration": 0.14705874999998514,
          "durationTicks": 24,
          "midi": 41,
          "name": "F2",
          "ticks": 32400,
          "time": 198.52931250000003,
          "velocity": 0.7874015748031497
        },
        {
          "duration": 0.14705875000001356,
          "durationTicks": 24,
          "midi": 41,
          "name": "F2",
          "ticks": 32424,
          "time": 198.67637125000002,
          "velocity": 0.7874015748031497
        },
        {
          "duration": 0.14705874999998514,
          "durationTicks": 24,
          "midi": 41,
          "name": "F2",
          "ticks": 32448,
          "time": 198.82343000000003,
          "velocity": 0.7874015748031497
        },
        {
          "duration": 0.14705875000001356,
          "durationTicks": 24,
          "midi": 41,
          "name": "F2",
          "ticks": 32472,
          "time": 198.97048875000002,
          "velocity": 0.7874015748031497
        },
        {
          "duration": 0.14705874999998514,
          "durationTicks": 24,
          "midi": 41,
          "name": "F2",
          "ticks": 32496,
          "time": 199.11754750000003,
          "velocity": 0.7874015748031497
        },
        {
          "duration": 0.14705875000001356,
          "durationTicks": 24,
          "midi": 41,
          "name": "F2",
          "ticks": 32520,
          "time": 199.26460625,
          "velocity": 0.7874015748031497
        },
        {
          "duration": 0.14705874999998514,
          "durationTicks": 24,
          "midi": 41,
          "name": "F2",
          "ticks": 32544,
          "time": 199.41166500000003,
          "velocity": 0.7874015748031497
        },
        {
          "duration": 0.14705875000001356,
          "durationTicks": 24,
          "midi": 41,
          "name": "F2",
          "ticks": 32568,
          "time": 199.55872375,
          "velocity": 0.7874015748031497
        },
        {
          "duration": 0.14705874999998514,
          "durationTicks": 24,
          "midi": 41,
          "name": "F2",
          "ticks": 32592,
          "time": 199.70578250000003,
          "velocity": 0.7874015748031497
        },
        {
          "duration": 0.14705875000001356,
          "durationTicks": 24,
          "midi": 41,
          "name": "F2",
          "ticks": 32616,
          "time": 199.85284125,
          "velocity": 0.7874015748031497
        },
        {
          "duration": 0.14705874999998514,
          "durationTicks": 24,
          "midi": 41,
          "name": "F2",
          "ticks": 32640,
          "time": 199.99990000000003,
          "velocity": 0.7874015748031497
        },
        {
          "duration": 0.14705875000001356,
          "durationTicks": 24,
          "midi": 41,
          "name": "F2",
          "ticks": 32664,
          "time": 200.14695875,
          "velocity": 0.7874015748031497
        },
        {
          "duration": 0.14705874999998514,
          "durationTicks": 24,
          "midi": 41,
          "name": "F2",
          "ticks": 32688,
          "time": 200.29401750000002,
          "velocity": 0.7874015748031497
        },
        {
          "duration": 0.14705875000001356,
          "durationTicks": 24,
          "midi": 41,
          "name": "F2",
          "ticks": 32712,
          "time": 200.44107625,
          "velocity": 0.7874015748031497
        },
        {
          "duration": 0.14705874999998514,
          "durationTicks": 24,
          "midi": 43,
          "name": "G2",
          "ticks": 32736,
          "time": 200.58813500000002,
          "velocity": 0.7874015748031497
        },
        {
          "duration": 0.14705875000001356,
          "durationTicks": 24,
          "midi": 43,
          "name": "G2",
          "ticks": 32760,
          "time": 200.73519375,
          "velocity": 0.7874015748031497
        },
        {
          "duration": 0.14705875000001356,
          "durationTicks": 24,
          "midi": 43,
          "name": "G2",
          "ticks": 32784,
          "time": 200.88225250000002,
          "velocity": 0.7874015748031497
        },
        {
          "duration": 0.14705874999998514,
          "durationTicks": 24,
          "midi": 43,
          "name": "G2",
          "ticks": 32808,
          "time": 201.02931125000003,
          "velocity": 0.7874015748031497
        },
        {
          "duration": 0.14705875000001356,
          "durationTicks": 24,
          "midi": 43,
          "name": "G2",
          "ticks": 32832,
          "time": 201.17637000000002,
          "velocity": 0.7874015748031497
        },
        {
          "duration": 0.14705874999998514,
          "durationTicks": 24,
          "midi": 43,
          "name": "G2",
          "ticks": 32856,
          "time": 201.32342875000003,
          "velocity": 0.7874015748031497
        },
        {
          "duration": 0.14705875000001356,
          "durationTicks": 24,
          "midi": 43,
          "name": "G2",
          "ticks": 32880,
          "time": 201.47048750000002,
          "velocity": 0.7874015748031497
        },
        {
          "duration": 0.14705874999998514,
          "durationTicks": 24,
          "midi": 43,
          "name": "G2",
          "ticks": 32904,
          "time": 201.61754625000003,
          "velocity": 0.7874015748031497
        },
        {
          "duration": 0.14705875000001356,
          "durationTicks": 24,
          "midi": 43,
          "name": "G2",
          "ticks": 32928,
          "time": 201.76460500000002,
          "velocity": 0.7874015748031497
        },
        {
          "duration": 0.14705874999998514,
          "durationTicks": 24,
          "midi": 43,
          "name": "G2",
          "ticks": 32952,
          "time": 201.91166375000003,
          "velocity": 0.7874015748031497
        },
        {
          "duration": 0.14705875000001356,
          "durationTicks": 24,
          "midi": 43,
          "name": "G2",
          "ticks": 32976,
          "time": 202.05872250000002,
          "velocity": 0.7874015748031497
        },
        {
          "duration": 0.14705874999998514,
          "durationTicks": 24,
          "midi": 43,
          "name": "G2",
          "ticks": 33000,
          "time": 202.20578125000003,
          "velocity": 0.7874015748031497
        },
        {
          "duration": 0.14705875000001356,
          "durationTicks": 24,
          "midi": 43,
          "name": "G2",
          "ticks": 33024,
          "time": 202.35284000000001,
          "velocity": 0.7874015748031497
        },
        {
          "duration": 0.14705874999998514,
          "durationTicks": 24,
          "midi": 43,
          "name": "G2",
          "ticks": 33048,
          "time": 202.49989875000003,
          "velocity": 0.7874015748031497
        },
        {
          "duration": 0.14705875000001356,
          "durationTicks": 24,
          "midi": 43,
          "name": "G2",
          "ticks": 33072,
          "time": 202.6469575,
          "velocity": 0.7874015748031497
        },
        {
          "duration": 0.14705874999998514,
          "durationTicks": 24,
          "midi": 43,
          "name": "G2",
          "ticks": 33096,
          "time": 202.79401625000003,
          "velocity": 0.7874015748031497
        },
        {
          "duration": 0.14705875000001356,
          "durationTicks": 24,
          "midi": 38,
          "name": "D2",
          "ticks": 33120,
          "time": 202.941075,
          "velocity": 0.7874015748031497
        },
        {
          "duration": 0.14705874999998514,
          "durationTicks": 24,
          "midi": 38,
          "name": "D2",
          "ticks": 33144,
          "time": 203.08813375000003,
          "velocity": 0.7874015748031497
        },
        {
          "duration": 0.14705875000001356,
          "durationTicks": 24,
          "midi": 38,
          "name": "D2",
          "ticks": 33168,
          "time": 203.2351925,
          "velocity": 0.7874015748031497
        },
        {
          "duration": 0.14705874999998514,
          "durationTicks": 24,
          "midi": 38,
          "name": "D2",
          "ticks": 33192,
          "time": 203.38225125000002,
          "velocity": 0.7874015748031497
        },
        {
          "duration": 0.14705875000001356,
          "durationTicks": 24,
          "midi": 38,
          "name": "D2",
          "ticks": 33216,
          "time": 203.52931,
          "velocity": 0.7874015748031497
        },
        {
          "duration": 0.14705874999998514,
          "durationTicks": 24,
          "midi": 38,
          "name": "D2",
          "ticks": 33240,
          "time": 203.67636875000002,
          "velocity": 0.7874015748031497
        },
        {
          "duration": 0.14705875000001356,
          "durationTicks": 24,
          "midi": 38,
          "name": "D2",
          "ticks": 33264,
          "time": 203.8234275,
          "velocity": 0.7874015748031497
        },
        {
          "duration": 0.14705875000001356,
          "durationTicks": 24,
          "midi": 38,
          "name": "D2",
          "ticks": 33288,
          "time": 203.97048625000002,
          "velocity": 0.7874015748031497
        },
        {
          "duration": 0.14705874999998514,
          "durationTicks": 24,
          "midi": 38,
          "name": "D2",
          "ticks": 33312,
          "time": 204.11754500000004,
          "velocity": 0.7874015748031497
        },
        {
          "duration": 0.14705875000001356,
          "durationTicks": 24,
          "midi": 38,
          "name": "D2",
          "ticks": 33336,
          "time": 204.26460375000002,
          "velocity": 0.7874015748031497
        },
        {
          "duration": 0.14705874999998514,
          "durationTicks": 24,
          "midi": 38,
          "name": "D2",
          "ticks": 33360,
          "time": 204.41166250000003,
          "velocity": 0.7874015748031497
        },
        {
          "duration": 0.14705875000001356,
          "durationTicks": 24,
          "midi": 38,
          "name": "D2",
          "ticks": 33384,
          "time": 204.55872125000002,
          "velocity": 0.7874015748031497
        },
        {
          "duration": 0.14705874999998514,
          "durationTicks": 24,
          "midi": 38,
          "name": "D2",
          "ticks": 33408,
          "time": 204.70578000000003,
          "velocity": 0.7874015748031497
        },
        {
          "duration": 0.14705875000001356,
          "durationTicks": 24,
          "midi": 38,
          "name": "D2",
          "ticks": 33432,
          "time": 204.85283875000002,
          "velocity": 0.7874015748031497
        },
        {
          "duration": 0.14705874999998514,
          "durationTicks": 24,
          "midi": 38,
          "name": "D2",
          "ticks": 33456,
          "time": 204.99989750000003,
          "velocity": 0.7874015748031497
        },
        {
          "duration": 0.14705875000001356,
          "durationTicks": 24,
          "midi": 38,
          "name": "D2",
          "ticks": 33480,
          "time": 205.14695625000002,
          "velocity": 0.7874015748031497
        },
        {
          "duration": 0.14705874999998514,
          "durationTicks": 24,
          "midi": 34,
          "name": "A#1",
          "ticks": 33504,
          "time": 205.29401500000003,
          "velocity": 0.7874015748031497
        },
        {
          "duration": 0.14705875000001356,
          "durationTicks": 24,
          "midi": 34,
          "name": "A#1",
          "ticks": 33528,
          "time": 205.44107375000002,
          "velocity": 0.7874015748031497
        },
        {
          "duration": 0.14705874999998514,
          "durationTicks": 24,
          "midi": 34,
          "name": "A#1",
          "ticks": 33552,
          "time": 205.58813250000003,
          "velocity": 0.7874015748031497
        },
        {
          "duration": 0.14705875000001356,
          "durationTicks": 24,
          "midi": 34,
          "name": "A#1",
          "ticks": 33576,
          "time": 205.73519125,
          "velocity": 0.7874015748031497
        },
        {
          "duration": 0.14705874999998514,
          "durationTicks": 24,
          "midi": 34,
          "name": "A#1",
          "ticks": 33600,
          "time": 205.88225000000003,
          "velocity": 0.7874015748031497
        },
        {
          "duration": 0.14705875000001356,
          "durationTicks": 24,
          "midi": 34,
          "name": "A#1",
          "ticks": 33624,
          "time": 206.02930875,
          "velocity": 0.7874015748031497
        },
        {
          "duration": 0.14705874999998514,
          "durationTicks": 24,
          "midi": 34,
          "name": "A#1",
          "ticks": 33648,
          "time": 206.17636750000003,
          "velocity": 0.7874015748031497
        },
        {
          "duration": 0.14705875000001356,
          "durationTicks": 24,
          "midi": 34,
          "name": "A#1",
          "ticks": 33672,
          "time": 206.32342625,
          "velocity": 0.7874015748031497
        },
        {
          "duration": 0.14705874999998514,
          "durationTicks": 24,
          "midi": 34,
          "name": "A#1",
          "ticks": 33696,
          "time": 206.47048500000002,
          "velocity": 0.7874015748031497
        },
        {
          "duration": 0.14705875000001356,
          "durationTicks": 24,
          "midi": 34,
          "name": "A#1",
          "ticks": 33720,
          "time": 206.61754375,
          "velocity": 0.7874015748031497
        },
        {
          "duration": 0.14705874999998514,
          "durationTicks": 24,
          "midi": 34,
          "name": "A#1",
          "ticks": 33744,
          "time": 206.76460250000002,
          "velocity": 0.7874015748031497
        },
        {
          "duration": 0.14705875000001356,
          "durationTicks": 24,
          "midi": 34,
          "name": "A#1",
          "ticks": 33768,
          "time": 206.91166125,
          "velocity": 0.7874015748031497
        },
        {
          "duration": 0.14705875000001356,
          "durationTicks": 24,
          "midi": 34,
          "name": "A#1",
          "ticks": 33792,
          "time": 207.05872000000002,
          "velocity": 0.7874015748031497
        },
        {
          "duration": 0.14705874999998514,
          "durationTicks": 24,
          "midi": 34,
          "name": "A#1",
          "ticks": 33816,
          "time": 207.20577875000004,
          "velocity": 0.7874015748031497
        },
        {
          "duration": 0.14705875000001356,
          "durationTicks": 24,
          "midi": 34,
          "name": "A#1",
          "ticks": 33840,
          "time": 207.35283750000002,
          "velocity": 0.7874015748031497
        },
        {
          "duration": 0.14705874999998514,
          "durationTicks": 24,
          "midi": 34,
          "name": "A#1",
          "ticks": 33864,
          "time": 207.49989625000003,
          "velocity": 0.7874015748031497
        },
        {
          "duration": 0.44117625000001226,
          "durationTicks": 72,
          "midi": 33,
          "name": "A1",
          "ticks": 33888,
          "time": 207.64695500000002,
          "velocity": 0.7874015748031497
        },
        {
          "duration": 0.44117624999998384,
          "durationTicks": 72,
          "midi": 33,
          "name": "A1",
          "ticks": 33960,
          "time": 208.08813125000003,
          "velocity": 0.7874015748031497
        },
        {
          "duration": 0.44117625000001226,
          "durationTicks": 72,
          "midi": 33,
          "name": "A1",
          "ticks": 34032,
          "time": 208.52930750000002,
          "velocity": 0.7874015748031497
        },
        {
          "duration": 0.44117624999998384,
          "durationTicks": 72,
          "midi": 33,
          "name": "A1",
          "ticks": 34104,
          "time": 208.97048375000003,
          "velocity": 0.7874015748031497
        },
        {
          "duration": 0.14705875000001356,
          "durationTicks": 24,
          "midi": 33,
          "name": "A1",
          "ticks": 34176,
          "time": 209.41166,
          "velocity": 0.7874015748031497
        },
        {
          "duration": 0.14705874999998514,
          "durationTicks": 24,
          "midi": 33,
          "name": "A1",
          "ticks": 34200,
          "time": 209.55871875000003,
          "velocity": 0.7874015748031497
        },
        {
          "duration": 0.14705875000001356,
          "durationTicks": 24,
          "midi": 33,
          "name": "A1",
          "ticks": 34224,
          "time": 209.7057775,
          "velocity": 0.7874015748031497
        },
        {
          "duration": 0.14705874999998514,
          "durationTicks": 24,
          "midi": 33,
          "name": "A1",
          "ticks": 34248,
          "time": 209.85283625000002,
          "velocity": 0.7874015748031497
        },
        {
          "duration": 0.44117625000001226,
          "durationTicks": 72,
          "midi": 33,
          "name": "A1",
          "ticks": 34272,
          "time": 209.999895,
          "velocity": 0.7874015748031497
        },
        {
          "duration": 0.44117625000001226,
          "durationTicks": 72,
          "midi": 33,
          "name": "A1",
          "ticks": 34344,
          "time": 210.44107125000002,
          "velocity": 0.7874015748031497
        },
        {
          "duration": 0.44117624999998384,
          "durationTicks": 72,
          "midi": 33,
          "name": "A1",
          "ticks": 34416,
          "time": 210.88224750000003,
          "velocity": 0.7874015748031497
        },
        {
          "duration": 0.44117625000001226,
          "durationTicks": 72,
          "midi": 33,
          "name": "A1",
          "ticks": 34488,
          "time": 211.32342375000002,
          "velocity": 0.7874015748031497
        },
        {
          "duration": 0.14705874999998514,
          "durationTicks": 24,
          "midi": 33,
          "name": "A1",
          "ticks": 34560,
          "time": 211.76460000000003,
          "velocity": 0.7874015748031497
        },
        {
          "duration": 0.14705875000001356,
          "durationTicks": 24,
          "midi": 33,
          "name": "A1",
          "ticks": 34584,
          "time": 211.91165875000002,
          "velocity": 0.7874015748031497
        },
        {
          "duration": 0.14705874999998514,
          "durationTicks": 24,
          "midi": 33,
          "name": "A1",
          "ticks": 34608,
          "time": 212.05871750000003,
          "velocity": 0.7874015748031497
        },
        {
          "duration": 0.14705875000001356,
          "durationTicks": 24,
          "midi": 33,
          "name": "A1",
          "ticks": 34632,
          "time": 212.20577625,
          "velocity": 0.7874015748031497
        },
        {
          "duration": 0.14705874999998514,
          "durationTicks": 24,
          "midi": 33,
          "name": "A1",
          "ticks": 34656,
          "time": 212.35283500000003,
          "velocity": 0.7874015748031497
        },
        {
          "duration": 0.14705875000001356,
          "durationTicks": 24,
          "midi": 33,
          "name": "A1",
          "ticks": 34680,
          "time": 212.49989375,
          "velocity": 0.7874015748031497
        },
        {
          "duration": 0.14705874999998514,
          "durationTicks": 24,
          "midi": 45,
          "name": "A2",
          "ticks": 34704,
          "time": 212.64695250000003,
          "velocity": 0.7874015748031497
        },
        {
          "duration": 0.14705875000001356,
          "durationTicks": 24,
          "midi": 33,
          "name": "A1",
          "ticks": 34728,
          "time": 212.79401125,
          "velocity": 0.7874015748031497
        },
        {
          "duration": 0.14705874999998514,
          "durationTicks": 24,
          "midi": 33,
          "name": "A1",
          "ticks": 34752,
          "time": 212.94107000000002,
          "velocity": 0.7874015748031497
        },
        {
          "duration": 0.14705875000001356,
          "durationTicks": 24,
          "midi": 43,
          "name": "G2",
          "ticks": 34776,
          "time": 213.08812875,
          "velocity": 0.7874015748031497
        },
        {
          "duration": 0.14705875000001356,
          "durationTicks": 24,
          "midi": 45,
          "name": "A2",
          "ticks": 34800,
          "time": 213.23518750000002,
          "velocity": 0.7874015748031497
        },
        {
          "duration": 0.14705874999998514,
          "durationTicks": 24,
          "midi": 33,
          "name": "A1",
          "ticks": 34824,
          "time": 213.38224625000004,
          "velocity": 0.7874015748031497
        },
        {
          "duration": 0.14705875000001356,
          "durationTicks": 24,
          "midi": 33,
          "name": "A1",
          "ticks": 34848,
          "time": 213.52930500000002,
          "velocity": 0.7874015748031497
        },
        {
          "duration": 0.14705874999998514,
          "durationTicks": 24,
          "midi": 43,
          "name": "G2",
          "ticks": 34872,
          "time": 213.67636375000004,
          "velocity": 0.7874015748031497
        },
        {
          "duration": 0.14705875000001356,
          "durationTicks": 24,
          "midi": 45,
          "name": "A2",
          "ticks": 34896,
          "time": 213.82342250000002,
          "velocity": 0.7874015748031497
        },
        {
          "duration": 0.14705874999998514,
          "durationTicks": 24,
          "midi": 43,
          "name": "G2",
          "ticks": 34920,
          "time": 213.97048125000003,
          "velocity": 0.7874015748031497
        },
        {
          "duration": 0.14705875000001356,
          "durationTicks": 24,
          "midi": 45,
          "name": "A2",
          "ticks": 34944,
          "time": 214.11754000000002,
          "velocity": 0.7874015748031497
        },
        {
          "duration": 0.14705874999998514,
          "durationTicks": 24,
          "midi": 33,
          "name": "A1",
          "ticks": 34968,
          "time": 214.26459875000003,
          "velocity": 0.7874015748031497
        },
        {
          "duration": 0.14705875000001356,
          "durationTicks": 24,
          "midi": 43,
          "name": "G2",
          "ticks": 34992,
          "time": 214.41165750000002,
          "velocity": 0.7874015748031497
        },
        {
          "duration": 0.14705874999998514,
          "durationTicks": 24,
          "midi": 45,
          "name": "A2",
          "ticks": 35016,
          "time": 214.55871625000003,
          "velocity": 0.7874015748031497
        },
        {
          "duration": 0.14705875000001356,
          "durationTicks": 24,
          "midi": 33,
          "name": "A1",
          "ticks": 35040,
          "time": 214.70577500000002,
          "velocity": 0.7874015748031497
        },
        {
          "duration": 0.14705874999998514,
          "durationTicks": 24,
          "midi": 33,
          "name": "A1",
          "ticks": 35064,
          "time": 214.85283375000003,
          "velocity": 0.7874015748031497
        },
        {
          "duration": 0.14705875000001356,
          "durationTicks": 24,
          "midi": 45,
          "name": "A2",
          "ticks": 35088,
          "time": 214.99989250000002,
          "velocity": 0.7874015748031497
        },
        {
          "duration": 0.14705874999998514,
          "durationTicks": 24,
          "midi": 33,
          "name": "A1",
          "ticks": 35112,
          "time": 215.14695125000003,
          "velocity": 0.7874015748031497
        },
        {
          "duration": 0.14705875000001356,
          "durationTicks": 24,
          "midi": 33,
          "name": "A1",
          "ticks": 35136,
          "time": 215.29401000000001,
          "velocity": 0.7874015748031497
        },
        {
          "duration": 0.14705874999998514,
          "durationTicks": 24,
          "midi": 43,
          "name": "G2",
          "ticks": 35160,
          "time": 215.44106875000003,
          "velocity": 0.7874015748031497
        },
        {
          "duration": 0.14705875000001356,
          "durationTicks": 24,
          "midi": 45,
          "name": "A2",
          "ticks": 35184,
          "time": 215.5881275,
          "velocity": 0.7874015748031497
        },
        {
          "duration": 0.14705874999998514,
          "durationTicks": 24,
          "midi": 33,
          "name": "A1",
          "ticks": 35208,
          "time": 215.73518625000003,
          "velocity": 0.7874015748031497
        },
        {
          "duration": 0.14705875000001356,
          "durationTicks": 24,
          "midi": 33,
          "name": "A1",
          "ticks": 35232,
          "time": 215.882245,
          "velocity": 0.7874015748031497
        },
        {
          "duration": 0.14705874999998514,
          "durationTicks": 24,
          "midi": 43,
          "name": "G2",
          "ticks": 35256,
          "time": 216.02930375000003,
          "velocity": 0.7874015748031497
        },
        {
          "duration": 0.14705875000001356,
          "durationTicks": 24,
          "midi": 45,
          "name": "A2",
          "ticks": 35280,
          "time": 216.1763625,
          "velocity": 0.7874015748031497
        },
        {
          "duration": 0.14705874999998514,
          "durationTicks": 24,
          "midi": 43,
          "name": "G2",
          "ticks": 35304,
          "time": 216.32342125000002,
          "velocity": 0.7874015748031497
        },
        {
          "duration": 0.14705875000001356,
          "durationTicks": 24,
          "midi": 45,
          "name": "A2",
          "ticks": 35328,
          "time": 216.47048,
          "velocity": 0.7874015748031497
        },
        {
          "duration": 0.14705875000001356,
          "durationTicks": 24,
          "midi": 33,
          "name": "A1",
          "ticks": 35352,
          "time": 216.61753875000002,
          "velocity": 0.7874015748031497
        },
        {
          "duration": 0.14705874999998514,
          "durationTicks": 24,
          "midi": 43,
          "name": "G2",
          "ticks": 35376,
          "time": 216.76459750000004,
          "velocity": 0.7874015748031497
        },
        {
          "duration": 0.14705875000001356,
          "durationTicks": 24,
          "midi": 45,
          "name": "A2",
          "ticks": 35400,
          "time": 216.91165625000002,
          "velocity": 0.7874015748031497
        },
        {
          "duration": 0.14705874999998514,
          "durationTicks": 24,
          "midi": 33,
          "name": "A1",
          "ticks": 35424,
          "time": 217.05871500000003,
          "velocity": 0.7874015748031497
        },
        {
          "duration": 0.14705875000001356,
          "durationTicks": 24,
          "midi": 33,
          "name": "A1",
          "ticks": 35448,
          "time": 217.20577375000002,
          "velocity": 0.7874015748031497
        },
        {
          "duration": 0.14705874999998514,
          "durationTicks": 24,
          "midi": 45,
          "name": "A2",
          "ticks": 35472,
          "time": 217.35283250000003,
          "velocity": 0.7874015748031497
        },
        {
          "duration": 0.14705875000001356,
          "durationTicks": 24,
          "midi": 33,
          "name": "A1",
          "ticks": 35496,
          "time": 217.49989125000002,
          "velocity": 0.7874015748031497
        },
        {
          "duration": 0.14705874999998514,
          "durationTicks": 24,
          "midi": 33,
          "name": "A1",
          "ticks": 35520,
          "time": 217.64695000000003,
          "velocity": 0.7874015748031497
        },
        {
          "duration": 0.14705875000001356,
          "durationTicks": 24,
          "midi": 43,
          "name": "G2",
          "ticks": 35544,
          "time": 217.79400875000002,
          "velocity": 0.7874015748031497
        },
        {
          "duration": 0.14705874999998514,
          "durationTicks": 24,
          "midi": 45,
          "name": "A2",
          "ticks": 35568,
          "time": 217.94106750000003,
          "velocity": 0.7874015748031497
        },
        {
          "duration": 0.14705875000001356,
          "durationTicks": 24,
          "midi": 33,
          "name": "A1",
          "ticks": 35592,
          "time": 218.08812625000002,
          "velocity": 0.7874015748031497
        },
        {
          "duration": 0.14705874999998514,
          "durationTicks": 24,
          "midi": 33,
          "name": "A1",
          "ticks": 35616,
          "time": 218.23518500000003,
          "velocity": 0.7874015748031497
        },
        {
          "duration": 0.14705875000001356,
          "durationTicks": 24,
          "midi": 43,
          "name": "G2",
          "ticks": 35640,
          "time": 218.38224375000001,
          "velocity": 0.7874015748031497
        },
        {
          "duration": 0.14705874999998514,
          "durationTicks": 24,
          "midi": 45,
          "name": "A2",
          "ticks": 35664,
          "time": 218.52930250000003,
          "velocity": 0.7874015748031497
        },
        {
          "duration": 0.14705875000001356,
          "durationTicks": 24,
          "midi": 43,
          "name": "G2",
          "ticks": 35688,
          "time": 218.67636125,
          "velocity": 0.7874015748031497
        },
        {
          "duration": 0.14705874999998514,
          "durationTicks": 24,
          "midi": 45,
          "name": "A2",
          "ticks": 35712,
          "time": 218.82342000000003,
          "velocity": 0.7874015748031497
        },
        {
          "duration": 0.14705875000001356,
          "durationTicks": 24,
          "midi": 33,
          "name": "A1",
          "ticks": 35736,
          "time": 218.97047875,
          "velocity": 0.7874015748031497
        },
        {
          "duration": 0.14705874999998514,
          "durationTicks": 24,
          "midi": 43,
          "name": "G2",
          "ticks": 35760,
          "time": 219.11753750000003,
          "velocity": 0.7874015748031497
        },
        {
          "duration": 0.14705875000001356,
          "durationTicks": 24,
          "midi": 45,
          "name": "A2",
          "ticks": 35784,
          "time": 219.26459625,
          "velocity": 0.7874015748031497
        },
        {
          "duration": 0.14705874999998514,
          "durationTicks": 24,
          "midi": 33,
          "name": "A1",
          "ticks": 35808,
          "time": 219.41165500000002,
          "velocity": 0.7874015748031497
        },
        {
          "duration": 0.14705875000001356,
          "durationTicks": 24,
          "midi": 33,
          "name": "A1",
          "ticks": 35832,
          "time": 219.55871375,
          "velocity": 0.7874015748031497
        },
        {
          "duration": 0.14705875000001356,
          "durationTicks": 24,
          "midi": 45,
          "name": "A2",
          "ticks": 35856,
          "time": 219.70577250000002,
          "velocity": 0.7874015748031497
        },
        {
          "duration": 0.14705874999998514,
          "durationTicks": 24,
          "midi": 33,
          "name": "A1",
          "ticks": 35880,
          "time": 219.85283125000004,
          "velocity": 0.7874015748031497
        },
        {
          "duration": 0.14705875000001356,
          "durationTicks": 24,
          "midi": 33,
          "name": "A1",
          "ticks": 35904,
          "time": 219.99989000000002,
          "velocity": 0.7874015748031497
        },
        {
          "duration": 0.14705874999998514,
          "durationTicks": 24,
          "midi": 43,
          "name": "G2",
          "ticks": 35928,
          "time": 220.14694875000004,
          "velocity": 0.7874015748031497
        },
        {
          "duration": 0.14705875000001356,
          "durationTicks": 24,
          "midi": 45,
          "name": "A2",
          "ticks": 35952,
          "time": 220.29400750000002,
          "velocity": 0.7874015748031497
        },
        {
          "duration": 0.14705874999998514,
          "durationTicks": 24,
          "midi": 33,
          "name": "A1",
          "ticks": 35976,
          "time": 220.44106625000003,
          "velocity": 0.7874015748031497
        },
        {
          "duration": 0.14705875000001356,
          "durationTicks": 24,
          "midi": 33,
          "name": "A1",
          "ticks": 36000,
          "time": 220.58812500000002,
          "velocity": 0.7874015748031497
        },
        {
          "duration": 0.14705874999998514,
          "durationTicks": 24,
          "midi": 43,
          "name": "G2",
          "ticks": 36024,
          "time": 220.73518375000003,
          "velocity": 0.7874015748031497
        },
        {
          "duration": 0.14705875000001356,
          "durationTicks": 24,
          "midi": 45,
          "name": "A2",
          "ticks": 36048,
          "time": 220.88224250000002,
          "velocity": 0.7874015748031497
        },
        {
          "duration": 0.14705874999998514,
          "durationTicks": 24,
          "midi": 43,
          "name": "G2",
          "ticks": 36072,
          "time": 221.02930125000003,
          "velocity": 0.7874015748031497
        },
        {
          "duration": 0.14705875000001356,
          "durationTicks": 24,
          "midi": 45,
          "name": "A2",
          "ticks": 36096,
          "time": 221.17636000000002,
          "velocity": 0.7874015748031497
        },
        {
          "duration": 0.14705874999998514,
          "durationTicks": 24,
          "midi": 33,
          "name": "A1",
          "ticks": 36120,
          "time": 221.32341875000003,
          "velocity": 0.7874015748031497
        },
        {
          "duration": 0.14705875000001356,
          "durationTicks": 24,
          "midi": 43,
          "name": "G2",
          "ticks": 36144,
          "time": 221.47047750000002,
          "velocity": 0.7874015748031497
        },
        {
          "duration": 0.14705874999998514,
          "durationTicks": 24,
          "midi": 45,
          "name": "A2",
          "ticks": 36168,
          "time": 221.61753625000003,
          "velocity": 0.7874015748031497
        },
        {
          "duration": 0.14705875000001356,
          "durationTicks": 24,
          "midi": 33,
          "name": "A1",
          "ticks": 36192,
          "time": 221.764595,
          "velocity": 0.7874015748031497
        },
        {
          "duration": 0.14705874999998514,
          "durationTicks": 24,
          "midi": 33,
          "name": "A1",
          "ticks": 36216,
          "time": 221.91165375000003,
          "velocity": 0.7874015748031497
        },
        {
          "duration": 0.14705875000001356,
          "durationTicks": 24,
          "midi": 45,
          "name": "A2",
          "ticks": 36240,
          "time": 222.0587125,
          "velocity": 0.7874015748031497
        },
        {
          "duration": 0.14705874999998514,
          "durationTicks": 24,
          "midi": 33,
          "name": "A1",
          "ticks": 36264,
          "time": 222.20577125000003,
          "velocity": 0.7874015748031497
        },
        {
          "duration": 0.14705875000001356,
          "durationTicks": 24,
          "midi": 33,
          "name": "A1",
          "ticks": 36288,
          "time": 222.35283,
          "velocity": 0.7874015748031497
        },
        {
          "duration": 0.14705874999998514,
          "durationTicks": 24,
          "midi": 43,
          "name": "G2",
          "ticks": 36312,
          "time": 222.49988875000003,
          "velocity": 0.7874015748031497
        },
        {
          "duration": 0.14705875000001356,
          "durationTicks": 24,
          "midi": 45,
          "name": "A2",
          "ticks": 36336,
          "time": 222.6469475,
          "velocity": 0.7874015748031497
        },
        {
          "duration": 0.14705875000001356,
          "durationTicks": 24,
          "midi": 33,
          "name": "A1",
          "ticks": 36360,
          "time": 222.79400625000002,
          "velocity": 0.7874015748031497
        },
        {
          "duration": 0.14705874999998514,
          "durationTicks": 24,
          "midi": 33,
          "name": "A1",
          "ticks": 36384,
          "time": 222.94106500000004,
          "velocity": 0.7874015748031497
        },
        {
          "duration": 0.14705875000001356,
          "durationTicks": 24,
          "midi": 43,
          "name": "G2",
          "ticks": 36408,
          "time": 223.08812375000002,
          "velocity": 0.7874015748031497
        },
        {
          "duration": 0.14705874999998514,
          "durationTicks": 24,
          "midi": 45,
          "name": "A2",
          "ticks": 36432,
          "time": 223.23518250000004,
          "velocity": 0.7874015748031497
        },
        {
          "duration": 0.14705875000001356,
          "durationTicks": 24,
          "midi": 43,
          "name": "G2",
          "ticks": 36456,
          "time": 223.38224125000002,
          "velocity": 0.7874015748031497
        },
        {
          "duration": 0.14705874999998514,
          "durationTicks": 24,
          "midi": 45,
          "name": "A2",
          "ticks": 36480,
          "time": 223.52930000000003,
          "velocity": 0.7874015748031497
        },
        {
          "duration": 0.14705875000001356,
          "durationTicks": 24,
          "midi": 33,
          "name": "A1",
          "ticks": 36504,
          "time": 223.67635875000002,
          "velocity": 0.7874015748031497
        },
        {
          "duration": 0.14705874999998514,
          "durationTicks": 24,
          "midi": 43,
          "name": "G2",
          "ticks": 36528,
          "time": 223.82341750000003,
          "velocity": 0.7874015748031497
        },
        {
          "duration": 0.14705875000001356,
          "durationTicks": 24,
          "midi": 45,
          "name": "A2",
          "ticks": 36552,
          "time": 223.97047625000002,
          "velocity": 0.7874015748031497
        },
        {
          "duration": 0.14705874999998514,
          "durationTicks": 24,
          "midi": 33,
          "name": "A1",
          "ticks": 36576,
          "time": 224.11753500000003,
          "velocity": 0.7874015748031497
        },
        {
          "duration": 0.14705875000001356,
          "durationTicks": 24,
          "midi": 33,
          "name": "A1",
          "ticks": 36600,
          "time": 224.26459375000002,
          "velocity": 0.7874015748031497
        },
        {
          "duration": 0.14705874999998514,
          "durationTicks": 24,
          "midi": 45,
          "name": "A2",
          "ticks": 36624,
          "time": 224.41165250000003,
          "velocity": 0.7874015748031497
        },
        {
          "duration": 0.14705875000001356,
          "durationTicks": 24,
          "midi": 33,
          "name": "A1",
          "ticks": 36648,
          "time": 224.55871125000002,
          "velocity": 0.7874015748031497
        },
        {
          "duration": 0.14705874999998514,
          "durationTicks": 24,
          "midi": 33,
          "name": "A1",
          "ticks": 36672,
          "time": 224.70577000000003,
          "velocity": 0.7874015748031497
        },
        {
          "duration": 0.14705875000001356,
          "durationTicks": 24,
          "midi": 43,
          "name": "G2",
          "ticks": 36696,
          "time": 224.85282875000001,
          "velocity": 0.7874015748031497
        },
        {
          "duration": 0.14705874999998514,
          "durationTicks": 24,
          "midi": 45,
          "name": "A2",
          "ticks": 36720,
          "time": 224.99988750000003,
          "velocity": 0.7874015748031497
        },
        {
          "duration": 0.14705875000001356,
          "durationTicks": 24,
          "midi": 33,
          "name": "A1",
          "ticks": 36744,
          "time": 225.14694625,
          "velocity": 0.7874015748031497
        },
        {
          "duration": 0.14705874999998514,
          "durationTicks": 24,
          "midi": 33,
          "name": "A1",
          "ticks": 36768,
          "time": 225.29400500000003,
          "velocity": 0.7874015748031497
        },
        {
          "duration": 0.14705875000001356,
          "durationTicks": 24,
          "midi": 43,
          "name": "G2",
          "ticks": 36792,
          "time": 225.44106375,
          "velocity": 0.7874015748031497
        },
        {
          "duration": 0.14705874999998514,
          "durationTicks": 24,
          "midi": 45,
          "name": "A2",
          "ticks": 36816,
          "time": 225.58812250000003,
          "velocity": 0.7874015748031497
        },
        {
          "duration": 0.14705875000001356,
          "durationTicks": 24,
          "midi": 43,
          "name": "G2",
          "ticks": 36840,
          "time": 225.73518125,
          "velocity": 0.7874015748031497
        },
        {
          "duration": 0.14705875000001356,
          "durationTicks": 24,
          "midi": 45,
          "name": "A2",
          "ticks": 36864,
          "time": 225.88224000000002,
          "velocity": 0.7874015748031497
        },
        {
          "duration": 0.14705874999998514,
          "durationTicks": 24,
          "midi": 33,
          "name": "A1",
          "ticks": 36888,
          "time": 226.02929875000004,
          "velocity": 0.7874015748031497
        },
        {
          "duration": 0.14705875000001356,
          "durationTicks": 24,
          "midi": 43,
          "name": "G2",
          "ticks": 36912,
          "time": 226.17635750000002,
          "velocity": 0.7874015748031497
        },
        {
          "duration": 0.14705874999998514,
          "durationTicks": 24,
          "midi": 45,
          "name": "A2",
          "ticks": 36936,
          "time": 226.32341625000004,
          "velocity": 0.7874015748031497
        },
        {
          "duration": 0.14705875000001356,
          "durationTicks": 24,
          "midi": 33,
          "name": "A1",
          "ticks": 36960,
          "time": 226.47047500000002,
          "velocity": 0.7874015748031497
        },
        {
          "duration": 0.14705874999998514,
          "durationTicks": 24,
          "midi": 33,
          "name": "A1",
          "ticks": 36984,
          "time": 226.61753375000004,
          "velocity": 0.7874015748031497
        },
        {
          "duration": 0.14705875000001356,
          "durationTicks": 24,
          "midi": 45,
          "name": "A2",
          "ticks": 37008,
          "time": 226.76459250000002,
          "velocity": 0.7874015748031497
        },
        {
          "duration": 0.14705874999998514,
          "durationTicks": 24,
          "midi": 33,
          "name": "A1",
          "ticks": 37032,
          "time": 226.91165125000003,
          "velocity": 0.7874015748031497
        },
        {
          "duration": 0.14705875000001356,
          "durationTicks": 24,
          "midi": 33,
          "name": "A1",
          "ticks": 37056,
          "time": 227.05871000000002,
          "velocity": 0.7874015748031497
        },
        {
          "duration": 0.14705874999998514,
          "durationTicks": 24,
          "midi": 43,
          "name": "G2",
          "ticks": 37080,
          "time": 227.20576875000003,
          "velocity": 0.7874015748031497
        },
        {
          "duration": 0.14705875000001356,
          "durationTicks": 24,
          "midi": 45,
          "name": "A2",
          "ticks": 37104,
          "time": 227.35282750000002,
          "velocity": 0.7874015748031497
        },
        {
          "duration": 0.14705874999998514,
          "durationTicks": 24,
          "midi": 33,
          "name": "A1",
          "ticks": 37128,
          "time": 227.49988625000003,
          "velocity": 0.7874015748031497
        },
        {
          "duration": 0.14705875000001356,
          "durationTicks": 24,
          "midi": 33,
          "name": "A1",
          "ticks": 37152,
          "time": 227.64694500000002,
          "velocity": 0.7874015748031497
        },
        {
          "duration": 0.14705874999998514,
          "durationTicks": 24,
          "midi": 43,
          "name": "G2",
          "ticks": 37176,
          "time": 227.79400375000003,
          "velocity": 0.7874015748031497
        },
        {
          "duration": 0.14705875000001356,
          "durationTicks": 24,
          "midi": 45,
          "name": "A2",
          "ticks": 37200,
          "time": 227.94106250000002,
          "velocity": 0.7874015748031497
        },
        {
          "duration": 0.14705874999998514,
          "durationTicks": 24,
          "midi": 43,
          "name": "G2",
          "ticks": 37224,
          "time": 228.08812125000003,
          "velocity": 0.7874015748031497
        },
        {
          "duration": 0.14705875000001356,
          "durationTicks": 24,
          "midi": 45,
          "name": "A2",
          "ticks": 37248,
          "time": 228.23518,
          "velocity": 0.7874015748031497
        },
        {
          "duration": 0.14705874999998514,
          "durationTicks": 24,
          "midi": 33,
          "name": "A1",
          "ticks": 37272,
          "time": 228.38223875000003,
          "velocity": 0.7874015748031497
        },
        {
          "duration": 0.14705875000001356,
          "durationTicks": 24,
          "midi": 43,
          "name": "G2",
          "ticks": 37296,
          "time": 228.5292975,
          "velocity": 0.7874015748031497
        },
        {
          "duration": 0.14705874999998514,
          "durationTicks": 24,
          "midi": 45,
          "name": "A2",
          "ticks": 37320,
          "time": 228.67635625000003,
          "velocity": 0.7874015748031497
        },
        {
          "duration": 0.14705875000001356,
          "durationTicks": 24,
          "midi": 33,
          "name": "A1",
          "ticks": 37344,
          "time": 228.823415,
          "velocity": 0.7874015748031497
        },
        {
          "duration": 0.14705875000001356,
          "durationTicks": 24,
          "midi": 33,
          "name": "A1",
          "ticks": 37368,
          "time": 228.97047375000002,
          "velocity": 0.7874015748031497
        },
        {
          "duration": 0.14705874999998514,
          "durationTicks": 24,
          "midi": 45,
          "name": "A2",
          "ticks": 37392,
          "time": 229.11753250000004,
          "velocity": 0.7874015748031497
        },
        {
          "duration": 0.14705875000001356,
          "durationTicks": 24,
          "midi": 33,
          "name": "A1",
          "ticks": 37416,
          "time": 229.26459125000002,
          "velocity": 0.7874015748031497
        },
        {
          "duration": 0.14705874999998514,
          "durationTicks": 24,
          "midi": 33,
          "name": "A1",
          "ticks": 37440,
          "time": 229.41165000000004,
          "velocity": 0.7874015748031497
        },
        {
          "duration": 0.14705875000001356,
          "durationTicks": 24,
          "midi": 43,
          "name": "G2",
          "ticks": 37464,
          "time": 229.55870875000002,
          "velocity": 0.7874015748031497
        },
        {
          "duration": 0.14705874999998514,
          "durationTicks": 24,
          "midi": 45,
          "name": "A2",
          "ticks": 37488,
          "time": 229.70576750000004,
          "velocity": 0.7874015748031497
        },
        {
          "duration": 0.14705875000001356,
          "durationTicks": 24,
          "midi": 33,
          "name": "A1",
          "ticks": 37512,
          "time": 229.85282625000002,
          "velocity": 0.7874015748031497
        },
        {
          "duration": 0.14705874999998514,
          "durationTicks": 24,
          "midi": 33,
          "name": "A1",
          "ticks": 37536,
          "time": 229.99988500000003,
          "velocity": 0.7874015748031497
        },
        {
          "duration": 0.14705875000001356,
          "durationTicks": 24,
          "midi": 43,
          "name": "G2",
          "ticks": 37560,
          "time": 230.14694375000002,
          "velocity": 0.7874015748031497
        },
        {
          "duration": 0.14705874999998514,
          "durationTicks": 24,
          "midi": 45,
          "name": "A2",
          "ticks": 37584,
          "time": 230.29400250000003,
          "velocity": 0.7874015748031497
        },
        {
          "duration": 0.14705875000001356,
          "durationTicks": 24,
          "midi": 43,
          "name": "G2",
          "ticks": 37608,
          "time": 230.44106125000002,
          "velocity": 0.7874015748031497
        },
        {
          "duration": 0.14705874999998514,
          "durationTicks": 24,
          "midi": 45,
          "name": "A2",
          "ticks": 37632,
          "time": 230.58812000000003,
          "velocity": 0.7874015748031497
        },
        {
          "duration": 0.14705875000001356,
          "durationTicks": 24,
          "midi": 33,
          "name": "A1",
          "ticks": 37656,
          "time": 230.73517875000002,
          "velocity": 0.7874015748031497
        },
        {
          "duration": 0.14705874999998514,
          "durationTicks": 24,
          "midi": 43,
          "name": "G2",
          "ticks": 37680,
          "time": 230.88223750000003,
          "velocity": 0.7874015748031497
        },
        {
          "duration": 0.14705875000001356,
          "durationTicks": 24,
          "midi": 45,
          "name": "A2",
          "ticks": 37704,
          "time": 231.02929625000002,
          "velocity": 0.7874015748031497
        },
        {
          "duration": 0.44117624999998384,
          "durationTicks": 72,
          "midi": 43,
          "name": "G2",
          "ticks": 37728,
          "time": 231.17635500000003,
          "velocity": 0.7874015748031497
        },
        {
          "duration": 0.44117625000001226,
          "durationTicks": 72,
          "midi": 43,
          "name": "G2",
          "ticks": 37800,
          "time": 231.61753125,
          "velocity": 0.7874015748031497
        },
        {
          "duration": 0.8823524999999961,
          "durationTicks": 144,
          "midi": 50,
          "name": "D3",
          "ticks": 37872,
          "time": 232.05870750000003,
          "velocity": 0.7874015748031497
        },
        {
          "duration": 0.2941174999999987,
          "durationTicks": 48,
          "midi": 50,
          "name": "D3",
          "ticks": 38016,
          "time": 232.94106000000002,
          "velocity": 0.7874015748031497
        },
        {
          "duration": 0.2941174999999987,
          "durationTicks": 48,
          "midi": 48,
          "name": "C3",
          "ticks": 38064,
          "time": 233.23517750000002,
          "velocity": 0.7874015748031497
        },
        {
          "duration": 0.44117625000001226,
          "durationTicks": 72,
          "midi": 41,
          "name": "F2",
          "ticks": 38112,
          "time": 233.52929500000002,
          "velocity": 0.7874015748031497
        },
        {
          "duration": 0.44117624999998384,
          "durationTicks": 72,
          "midi": 41,
          "name": "F2",
          "ticks": 38184,
          "time": 233.97047125000003,
          "velocity": 0.7874015748031497
        },
        {
          "duration": 0.8823525000000245,
          "durationTicks": 144,
          "midi": 48,
          "name": "C3",
          "ticks": 38256,
          "time": 234.41164750000002,
          "velocity": 0.7874015748031497
        },
        {
          "duration": 0.2941174999999987,
          "durationTicks": 48,
          "midi": 41,
          "name": "F2",
          "ticks": 38400,
          "time": 235.29400000000004,
          "velocity": 0.7874015748031497
        },
        {
          "duration": 0.2941174999999987,
          "durationTicks": 48,
          "midi": 43,
          "name": "G2",
          "ticks": 38448,
          "time": 235.58811750000004,
          "velocity": 0.7874015748031497
        },
        {
          "duration": 0.44117624999998384,
          "durationTicks": 72,
          "midi": 39,
          "name": "D#2",
          "ticks": 38496,
          "time": 235.88223500000004,
          "velocity": 0.7874015748031497
        },
        {
          "duration": 0.44117625000001226,
          "durationTicks": 72,
          "midi": 39,
          "name": "D#2",
          "ticks": 38568,
          "time": 236.32341125000002,
          "velocity": 0.7874015748031497
        },
        {
          "duration": 0.8823524999999961,
          "durationTicks": 144,
          "midi": 46,
          "name": "A#2",
          "ticks": 38640,
          "time": 236.76458750000003,
          "velocity": 0.7874015748031497
        },
        {
          "duration": 0.2941174999999987,
          "durationTicks": 48,
          "midi": 39,
          "name": "D#2",
          "ticks": 38880,
          "time": 238.23517500000003,
          "velocity": 0.7874015748031497
        },
        {
          "duration": 0.2941174999999987,
          "durationTicks": 48,
          "midi": 39,
          "name": "D#2",
          "ticks": 38928,
          "time": 238.52929250000003,
          "velocity": 0.7874015748031497
        },
        {
          "duration": 0.2941174999999987,
          "durationTicks": 48,
          "midi": 39,
          "name": "D#2",
          "ticks": 38976,
          "time": 238.82341000000002,
          "velocity": 0.7874015748031497
        },
        {
          "duration": 0.8823524999999961,
          "durationTicks": 144,
          "midi": 48,
          "name": "C3",
          "ticks": 39024,
          "time": 239.11752750000002,
          "velocity": 0.7874015748031497
        },
        {
          "duration": 0.5882349999999974,
          "durationTicks": 96,
          "midi": 41,
          "name": "F2",
          "ticks": 39168,
          "time": 239.99988000000002,
          "velocity": 0.7874015748031497
        },
        {
          "duration": 0.44117625000001226,
          "durationTicks": 72,
          "midi": 43,
          "name": "G2",
          "ticks": 39264,
          "time": 240.58811500000002,
          "velocity": 0.7874015748031497
        },
        {
          "duration": 0.44117624999998384,
          "durationTicks": 72,
          "midi": 43,
          "name": "G2",
          "ticks": 39336,
          "time": 241.02929125000003,
          "velocity": 0.7874015748031497
        },
        {
          "duration": 0.8823525000000245,
          "durationTicks": 144,
          "midi": 50,
          "name": "D3",
          "ticks": 39408,
          "time": 241.4704675,
          "velocity": 0.7874015748031497
        },
        {
          "duration": 0.2941174999999987,
          "durationTicks": 48,
          "midi": 50,
          "name": "D3",
          "ticks": 39552,
          "time": 242.35282000000004,
          "velocity": 0.7874015748031497
        },
        {
          "duration": 0.2941174999999987,
          "durationTicks": 48,
          "midi": 48,
          "name": "C3",
          "ticks": 39600,
          "time": 242.64693750000004,
          "velocity": 0.7874015748031497
        },
        {
          "duration": 0.44117624999998384,
          "durationTicks": 72,
          "midi": 41,
          "name": "F2",
          "ticks": 39648,
          "time": 242.94105500000003,
          "velocity": 0.7874015748031497
        },
        {
          "duration": 0.44117625000001226,
          "durationTicks": 72,
          "midi": 41,
          "name": "F2",
          "ticks": 39720,
          "time": 243.38223125000002,
          "velocity": 0.7874015748031497
        },
        {
          "duration": 0.8823524999999961,
          "durationTicks": 144,
          "midi": 48,
          "name": "C3",
          "ticks": 39792,
          "time": 243.82340750000003,
          "velocity": 0.7874015748031497
        },
        {
          "duration": 0.2941174999999987,
          "durationTicks": 48,
          "midi": 41,
          "name": "F2",
          "ticks": 39936,
          "time": 244.70576000000003,
          "velocity": 0.7874015748031497
        },
        {
          "duration": 0.2941174999999987,
          "durationTicks": 48,
          "midi": 43,
          "name": "G2",
          "ticks": 39984,
          "time": 244.99987750000003,
          "velocity": 0.7874015748031497
        },
        {
          "duration": 0.44117625000001226,
          "durationTicks": 72,
          "midi": 39,
          "name": "D#2",
          "ticks": 40032,
          "time": 245.29399500000002,
          "velocity": 0.7874015748031497
        },
        {
          "duration": 0.44117624999998384,
          "durationTicks": 72,
          "midi": 39,
          "name": "D#2",
          "ticks": 40104,
          "time": 245.73517125000004,
          "velocity": 0.7874015748031497
        },
        {
          "duration": 0.8823524999999961,
          "durationTicks": 144,
          "midi": 46,
          "name": "A#2",
          "ticks": 40176,
          "time": 246.17634750000002,
          "velocity": 0.7874015748031497
        },
        {
          "duration": 0.2941175000000271,
          "durationTicks": 48,
          "midi": 39,
          "name": "D#2",
          "ticks": 40416,
          "time": 247.646935,
          "velocity": 0.7874015748031497
        },
        {
          "duration": 0.2941174999999987,
          "durationTicks": 48,
          "midi": 39,
          "name": "D#2",
          "ticks": 40464,
          "time": 247.94105250000004,
          "velocity": 0.7874015748031497
        },
        {
          "duration": 0.2941174999999987,
          "durationTicks": 48,
          "midi": 39,
          "name": "D#2",
          "ticks": 40512,
          "time": 248.23517000000004,
          "velocity": 0.7874015748031497
        },
        {
          "duration": 0.8823524999999961,
          "durationTicks": 144,
          "midi": 48,
          "name": "C3",
          "ticks": 40560,
          "time": 248.52928750000004,
          "velocity": 0.7874015748031497
        },
        {
          "duration": 0.5882349999999974,
          "durationTicks": 96,
          "midi": 41,
          "name": "F2",
          "ticks": 40704,
          "time": 249.41164000000003,
          "velocity": 0.7874015748031497
        },
        {
          "duration": 0.14705874999998514,
          "durationTicks": 24,
          "midi": 36,
          "name": "C2",
          "ticks": 40800,
          "time": 249.99987500000003,
          "velocity": 0.7874015748031497
        },
        {
          "duration": 0.14705875000001356,
          "durationTicks": 24,
          "midi": 36,
          "name": "C2",
          "ticks": 40824,
          "time": 250.14693375000002,
          "velocity": 0.7874015748031497
        },
        {
          "duration": 0.14705874999998514,
          "durationTicks": 24,
          "midi": 36,
          "name": "C2",
          "ticks": 40848,
          "time": 250.29399250000003,
          "velocity": 0.7874015748031497
        },
        {
          "duration": 0.14705875000001356,
          "durationTicks": 24,
          "midi": 36,
          "name": "C2",
          "ticks": 40872,
          "time": 250.44105125000002,
          "velocity": 0.7874015748031497
        },
        {
          "duration": 0.14705874999998514,
          "durationTicks": 24,
          "midi": 36,
          "name": "C2",
          "ticks": 40896,
          "time": 250.58811000000003,
          "velocity": 0.7874015748031497
        },
        {
          "duration": 0.14705875000001356,
          "durationTicks": 24,
          "midi": 36,
          "name": "C2",
          "ticks": 40920,
          "time": 250.73516875,
          "velocity": 0.7874015748031497
        },
        {
          "duration": 0.14705875000001356,
          "durationTicks": 24,
          "midi": 36,
          "name": "C2",
          "ticks": 40944,
          "time": 250.88222750000003,
          "velocity": 0.7874015748031497
        },
        {
          "duration": 0.14705874999998514,
          "durationTicks": 24,
          "midi": 36,
          "name": "C2",
          "ticks": 40968,
          "time": 251.02928625000004,
          "velocity": 0.7874015748031497
        },
        {
          "duration": 0.14705875000001356,
          "durationTicks": 24,
          "midi": 36,
          "name": "C2",
          "ticks": 40992,
          "time": 251.17634500000003,
          "velocity": 0.7874015748031497
        },
        {
          "duration": 0.14705874999998514,
          "durationTicks": 24,
          "midi": 36,
          "name": "C2",
          "ticks": 41016,
          "time": 251.32340375000004,
          "velocity": 0.7874015748031497
        },
        {
          "duration": 0.14705875000001356,
          "durationTicks": 24,
          "midi": 36,
          "name": "C2",
          "ticks": 41040,
          "time": 251.47046250000002,
          "velocity": 0.7874015748031497
        },
        {
          "duration": 0.14705874999998514,
          "durationTicks": 24,
          "midi": 36,
          "name": "C2",
          "ticks": 41064,
          "time": 251.61752125000004,
          "velocity": 0.7874015748031497
        },
        {
          "duration": 0.14705875000001356,
          "durationTicks": 24,
          "midi": 36,
          "name": "C2",
          "ticks": 41088,
          "time": 251.76458000000002,
          "velocity": 0.7874015748031497
        },
        {
          "duration": 0.14705874999998514,
          "durationTicks": 24,
          "midi": 36,
          "name": "C2",
          "ticks": 41112,
          "time": 251.91163875000004,
          "velocity": 0.7874015748031497
        },
        {
          "duration": 0.14705875000001356,
          "durationTicks": 24,
          "midi": 36,
          "name": "C2",
          "ticks": 41136,
          "time": 252.05869750000002,
          "velocity": 0.7874015748031497
        },
        {
          "duration": 0.14705874999998514,
          "durationTicks": 24,
          "midi": 36,
          "name": "C2",
          "ticks": 41160,
          "time": 252.20575625000004,
          "velocity": 0.7874015748031497
        },
        {
          "duration": 0.14705875000001356,
          "durationTicks": 24,
          "midi": 38,
          "name": "D2",
          "ticks": 41184,
          "time": 252.35281500000002,
          "velocity": 0.7874015748031497
        },
        {
          "duration": 0.14705874999998514,
          "durationTicks": 24,
          "midi": 38,
          "name": "D2",
          "ticks": 41208,
          "time": 252.49987375000003,
          "velocity": 0.7874015748031497
        },
        {
          "duration": 0.14705875000001356,
          "durationTicks": 24,
          "midi": 38,
          "name": "D2",
          "ticks": 41232,
          "time": 252.64693250000002,
          "velocity": 0.7874015748031497
        },
        {
          "duration": 0.14705874999998514,
          "durationTicks": 24,
          "midi": 38,
          "name": "D2",
          "ticks": 41256,
          "time": 252.79399125000003,
          "velocity": 0.7874015748031497
        },
        {
          "duration": 0.14705875000001356,
          "durationTicks": 24,
          "midi": 38,
          "name": "D2",
          "ticks": 41280,
          "time": 252.94105000000002,
          "velocity": 0.7874015748031497
        },
        {
          "duration": 0.14705874999998514,
          "durationTicks": 24,
          "midi": 38,
          "name": "D2",
          "ticks": 41304,
          "time": 253.08810875000003,
          "velocity": 0.7874015748031497
        },
        {
          "duration": 0.14705875000001356,
          "durationTicks": 24,
          "midi": 38,
          "name": "D2",
          "ticks": 41328,
          "time": 253.23516750000002,
          "velocity": 0.7874015748031497
        },
        {
          "duration": 0.14705874999998514,
          "durationTicks": 24,
          "midi": 38,
          "name": "D2",
          "ticks": 41352,
          "time": 253.38222625000003,
          "velocity": 0.7874015748031497
        },
        {
          "duration": 0.14705875000001356,
          "durationTicks": 24,
          "midi": 38,
          "name": "D2",
          "ticks": 41376,
          "time": 253.52928500000002,
          "velocity": 0.7874015748031497
        },
        {
          "duration": 0.14705874999998514,
          "durationTicks": 24,
          "midi": 38,
          "name": "D2",
          "ticks": 41400,
          "time": 253.67634375000003,
          "velocity": 0.7874015748031497
        },
        {
          "duration": 0.14705875000001356,
          "durationTicks": 24,
          "midi": 38,
          "name": "D2",
          "ticks": 41424,
          "time": 253.82340250000001,
          "velocity": 0.7874015748031497
        },
        {
          "duration": 0.14705874999998514,
          "durationTicks": 24,
          "midi": 38,
          "name": "D2",
          "ticks": 41448,
          "time": 253.97046125000003,
          "velocity": 0.7874015748031497
        },
        {
          "duration": 0.14705875000001356,
          "durationTicks": 24,
          "midi": 38,
          "name": "D2",
          "ticks": 41472,
          "time": 254.11752,
          "velocity": 0.7874015748031497
        },
        {
          "duration": 0.14705875000001356,
          "durationTicks": 24,
          "midi": 38,
          "name": "D2",
          "ticks": 41496,
          "time": 254.26457875000003,
          "velocity": 0.7874015748031497
        },
        {
          "duration": 0.14705874999998514,
          "durationTicks": 24,
          "midi": 38,
          "name": "D2",
          "ticks": 41520,
          "time": 254.41163750000004,
          "velocity": 0.7874015748031497
        },
        {
          "duration": 0.14705875000001356,
          "durationTicks": 24,
          "midi": 38,
          "name": "D2",
          "ticks": 41544,
          "time": 254.55869625000003,
          "velocity": 0.7874015748031497
        },
        {
          "duration": 0.14705874999998514,
          "durationTicks": 24,
          "midi": 39,
          "name": "D#2",
          "ticks": 41568,
          "time": 254.70575500000004,
          "velocity": 0.7874015748031497
        },
        {
          "duration": 0.14705875000001356,
          "durationTicks": 24,
          "midi": 39,
          "name": "D#2",
          "ticks": 41592,
          "time": 254.85281375000002,
          "velocity": 0.7874015748031497
        },
        {
          "duration": 0.14705874999998514,
          "durationTicks": 24,
          "midi": 39,
          "name": "D#2",
          "ticks": 41616,
          "time": 254.99987250000004,
          "velocity": 0.7874015748031497
        },
        {
          "duration": 0.14705875000001356,
          "durationTicks": 24,
          "midi": 39,
          "name": "D#2",
          "ticks": 41640,
          "time": 255.14693125000002,
          "velocity": 0.7874015748031497
        },
        {
          "duration": 0.14705874999998514,
          "durationTicks": 24,
          "midi": 39,
          "name": "D#2",
          "ticks": 41664,
          "time": 255.29399000000004,
          "velocity": 0.7874015748031497
        },
        {
          "duration": 0.14705875000001356,
          "durationTicks": 24,
          "midi": 39,
          "name": "D#2",
          "ticks": 41688,
          "time": 255.44104875000002,
          "velocity": 0.7874015748031497
        },
        {
          "duration": 0.14705874999998514,
          "durationTicks": 24,
          "midi": 39,
          "name": "D#2",
          "ticks": 41712,
          "time": 255.58810750000004,
          "velocity": 0.7874015748031497
        },
        {
          "duration": 0.14705875000001356,
          "durationTicks": 24,
          "midi": 39,
          "name": "D#2",
          "ticks": 41736,
          "time": 255.73516625000002,
          "velocity": 0.7874015748031497
        },
        {
          "duration": 0.14705875000001356,
          "durationTicks": 24,
          "midi": 39,
          "name": "D#2",
          "ticks": 41760,
          "time": 255.88222500000003,
          "velocity": 0.7874015748031497
        },
        {
          "duration": 0.14705874999998514,
          "durationTicks": 24,
          "midi": 39,
          "name": "D#2",
          "ticks": 41784,
          "time": 256.02928375000005,
          "velocity": 0.7874015748031497
        },
        {
          "duration": 0.14705874999998514,
          "durationTicks": 24,
          "midi": 39,
          "name": "D#2",
          "ticks": 41808,
          "time": 256.17634250000003,
          "velocity": 0.7874015748031497
        },
        {
          "duration": 0.14705874999998514,
          "durationTicks": 24,
          "midi": 39,
          "name": "D#2",
          "ticks": 41832,
          "time": 256.32340125,
          "velocity": 0.7874015748031497
        },
        {
          "duration": 0.14705875000004198,
          "durationTicks": 24,
          "midi": 39,
          "name": "D#2",
          "ticks": 41856,
          "time": 256.47046,
          "velocity": 0.7874015748031497
        },
        {
          "duration": 0.14705874999998514,
          "durationTicks": 24,
          "midi": 39,
          "name": "D#2",
          "ticks": 41880,
          "time": 256.61751875000004,
          "velocity": 0.7874015748031497
        },
        {
          "duration": 0.14705874999998514,
          "durationTicks": 24,
          "midi": 39,
          "name": "D#2",
          "ticks": 41904,
          "time": 256.76457750000003,
          "velocity": 0.7874015748031497
        },
        {
          "duration": 0.14705874999998514,
          "durationTicks": 24,
          "midi": 39,
          "name": "D#2",
          "ticks": 41928,
          "time": 256.91163625,
          "velocity": 0.7874015748031497
        },
        {
          "duration": 0.14705875000004198,
          "durationTicks": 24,
          "midi": 41,
          "name": "F2",
          "ticks": 41952,
          "time": 257.058695,
          "velocity": 0.7874015748031497
        },
        {
          "duration": 0.14705874999998514,
          "durationTicks": 24,
          "midi": 41,
          "name": "F2",
          "ticks": 41976,
          "time": 257.20575375000004,
          "velocity": 0.7874015748031497
        },
        {
          "duration": 0.14705874999998514,
          "durationTicks": 24,
          "midi": 41,
          "name": "F2",
          "ticks": 42000,
          "time": 257.3528125,
          "velocity": 0.7874015748031497
        },
        {
          "duration": 0.14705875000004198,
          "durationTicks": 24,
          "midi": 41,
          "name": "F2",
          "ticks": 42024,
          "time": 257.49987125,
          "velocity": 0.7874015748031497
        },
        {
          "duration": 0.14705874999998514,
          "durationTicks": 24,
          "midi": 41,
          "name": "F2",
          "ticks": 42048,
          "time": 257.64693000000005,
          "velocity": 0.7874015748031497
        },
        {
          "duration": 0.14705874999998514,
          "durationTicks": 24,
          "midi": 41,
          "name": "F2",
          "ticks": 42072,
          "time": 257.79398875000004,
          "velocity": 0.7874015748031497
        },
        {
          "duration": 0.14705874999998514,
          "durationTicks": 24,
          "midi": 41,
          "name": "F2",
          "ticks": 42096,
          "time": 257.9410475,
          "velocity": 0.7874015748031497
        },
        {
          "duration": 0.14705875000004198,
          "durationTicks": 24,
          "midi": 41,
          "name": "F2",
          "ticks": 42120,
          "time": 258.08810625,
          "velocity": 0.7874015748031497
        },
        {
          "duration": 0.14705874999998514,
          "durationTicks": 24,
          "midi": 41,
          "name": "F2",
          "ticks": 42144,
          "time": 258.23516500000005,
          "velocity": 0.7874015748031497
        },
        {
          "duration": 0.14705874999998514,
          "durationTicks": 24,
          "midi": 41,
          "name": "F2",
          "ticks": 42168,
          "time": 258.38222375000004,
          "velocity": 0.7874015748031497
        },
        {
          "duration": 0.14705874999998514,
          "durationTicks": 24,
          "midi": 41,
          "name": "F2",
          "ticks": 42192,
          "time": 258.5292825,
          "velocity": 0.7874015748031497
        },
        {
          "duration": 0.14705875000004198,
          "durationTicks": 24,
          "midi": 41,
          "name": "F2",
          "ticks": 42216,
          "time": 258.67634125,
          "velocity": 0.7874015748031497
        },
        {
          "duration": 0.14705874999998514,
          "durationTicks": 24,
          "midi": 41,
          "name": "F2",
          "ticks": 42240,
          "time": 258.82340000000005,
          "velocity": 0.7874015748031497
        },
        {
          "duration": 0.14705874999998514,
          "durationTicks": 24,
          "midi": 41,
          "name": "F2",
          "ticks": 42264,
          "time": 258.97045875000003,
          "velocity": 0.7874015748031497
        },
        {
          "duration": 0.14705874999998514,
          "durationTicks": 24,
          "midi": 41,
          "name": "F2",
          "ticks": 42288,
          "time": 259.1175175,
          "velocity": 0.7874015748031497
        },
        {
          "duration": 0.14705875000004198,
          "durationTicks": 24,
          "midi": 41,
          "name": "F2",
          "ticks": 42312,
          "time": 259.26457625,
          "velocity": 0.7874015748031497
        },
        {
          "duration": 0.14705874999998514,
          "durationTicks": 24,
          "midi": 43,
          "name": "G2",
          "ticks": 42336,
          "time": 259.41163500000005,
          "velocity": 0.7874015748031497
        },
        {
          "duration": 0.14705874999998514,
          "durationTicks": 24,
          "midi": 43,
          "name": "G2",
          "ticks": 42360,
          "time": 259.55869375000003,
          "velocity": 0.7874015748031497
        },
        {
          "duration": 0.14705874999998514,
          "durationTicks": 24,
          "midi": 43,
          "name": "G2",
          "ticks": 42384,
          "time": 259.7057525,
          "velocity": 0.7874015748031497
        },
        {
          "duration": 0.14705875000004198,
          "durationTicks": 24,
          "midi": 43,
          "name": "G2",
          "ticks": 42408,
          "time": 259.85281125,
          "velocity": 0.7874015748031497
        },
        {
          "duration": 0.14705874999998514,
          "durationTicks": 24,
          "midi": 43,
          "name": "G2",
          "ticks": 42432,
          "time": 259.99987000000004,
          "velocity": 0.7874015748031497
        },
        {
          "duration": 0.14705874999998514,
          "durationTicks": 24,
          "midi": 43,
          "name": "G2",
          "ticks": 42456,
          "time": 260.14692875000003,
          "velocity": 0.7874015748031497
        },
        {
          "duration": 0.14705875000004198,
          "durationTicks": 24,
          "midi": 43,
          "name": "G2",
          "ticks": 42480,
          "time": 260.2939875,
          "velocity": 0.7874015748031497
        },
        {
          "duration": 0.14705874999998514,
          "durationTicks": 24,
          "midi": 43,
          "name": "G2",
          "ticks": 42504,
          "time": 260.44104625000006,
          "velocity": 0.7874015748031497
        },
        {
          "duration": 0.14705874999998514,
          "durationTicks": 24,
          "midi": 43,
          "name": "G2",
          "ticks": 42528,
          "time": 260.58810500000004,
          "velocity": 0.7874015748031497
        },
        {
          "duration": 0.14705874999998514,
          "durationTicks": 24,
          "midi": 43,
          "name": "G2",
          "ticks": 42552,
          "time": 260.73516375,
          "velocity": 0.7874015748031497
        },
        {
          "duration": 0.14705875000004198,
          "durationTicks": 24,
          "midi": 43,
          "name": "G2",
          "ticks": 42576,
          "time": 260.8822225,
          "velocity": 0.7874015748031497
        },
        {
          "duration": 0.14705874999998514,
          "durationTicks": 24,
          "midi": 43,
          "name": "G2",
          "ticks": 42600,
          "time": 261.02928125000005,
          "velocity": 0.7874015748031497
        },
        {
          "duration": 0.14705874999998514,
          "durationTicks": 24,
          "midi": 43,
          "name": "G2",
          "ticks": 42624,
          "time": 261.17634000000004,
          "velocity": 0.7874015748031497
        },
        {
          "duration": 0.14705874999998514,
          "durationTicks": 24,
          "midi": 43,
          "name": "G2",
          "ticks": 42648,
          "time": 261.32339875,
          "velocity": 0.7874015748031497
        },
        {
          "duration": 0.14705875000004198,
          "durationTicks": 24,
          "midi": 43,
          "name": "G2",
          "ticks": 42672,
          "time": 261.4704575,
          "velocity": 0.7874015748031497
        },
        {
          "duration": 0.14705874999998514,
          "durationTicks": 24,
          "midi": 43,
          "name": "G2",
          "ticks": 42696,
          "time": 261.61751625000005,
          "velocity": 0.7874015748031497
        },
        {
          "duration": 0.14705874999998514,
          "durationTicks": 24,
          "midi": 39,
          "name": "D#2",
          "ticks": 42720,
          "time": 261.76457500000004,
          "velocity": 0.7874015748031497
        },
        {
          "duration": 0.14705874999998514,
          "durationTicks": 24,
          "midi": 39,
          "name": "D#2",
          "ticks": 42744,
          "time": 261.91163375,
          "velocity": 0.7874015748031497
        },
        {
          "duration": 0.14705875000004198,
          "durationTicks": 24,
          "midi": 39,
          "name": "D#2",
          "ticks": 42768,
          "time": 262.0586925,
          "velocity": 0.7874015748031497
        },
        {
          "duration": 0.14705874999998514,
          "durationTicks": 24,
          "midi": 39,
          "name": "D#2",
          "ticks": 42792,
          "time": 262.20575125000005,
          "velocity": 0.7874015748031497
        },
        {
          "duration": 0.14705874999998514,
          "durationTicks": 24,
          "midi": 39,
          "name": "D#2",
          "ticks": 42816,
          "time": 262.35281000000003,
          "velocity": 0.7874015748031497
        },
        {
          "duration": 0.14705874999998514,
          "durationTicks": 24,
          "midi": 39,
          "name": "D#2",
          "ticks": 42840,
          "time": 262.49986875,
          "velocity": 0.7874015748031497
        },
        {
          "duration": 0.14705875000004198,
          "durationTicks": 24,
          "midi": 39,
          "name": "D#2",
          "ticks": 42864,
          "time": 262.6469275,
          "velocity": 0.7874015748031497
        },
        {
          "duration": 0.14705874999998514,
          "durationTicks": 24,
          "midi": 39,
          "name": "D#2",
          "ticks": 42888,
          "time": 262.79398625000005,
          "velocity": 0.7874015748031497
        },
        {
          "duration": 0.14705874999998514,
          "durationTicks": 24,
          "midi": 39,
          "name": "D#2",
          "ticks": 42912,
          "time": 262.94104500000003,
          "velocity": 0.7874015748031497
        },
        {
          "duration": 0.14705874999998514,
          "durationTicks": 24,
          "midi": 39,
          "name": "D#2",
          "ticks": 42936,
          "time": 263.08810375,
          "velocity": 0.7874015748031497
        },
        {
          "duration": 0.14705875000004198,
          "durationTicks": 24,
          "midi": 39,
          "name": "D#2",
          "ticks": 42960,
          "time": 263.2351625,
          "velocity": 0.7874015748031497
        },
        {
          "duration": 0.14705874999998514,
          "durationTicks": 24,
          "midi": 39,
          "name": "D#2",
          "ticks": 42984,
          "time": 263.38222125000004,
          "velocity": 0.7874015748031497
        },
        {
          "duration": 0.14705874999998514,
          "durationTicks": 24,
          "midi": 39,
          "name": "D#2",
          "ticks": 43008,
          "time": 263.52928,
          "velocity": 0.7874015748031497
        },
        {
          "duration": 0.14705875000004198,
          "durationTicks": 24,
          "midi": 39,
          "name": "D#2",
          "ticks": 43032,
          "time": 263.67633875,
          "velocity": 0.7874015748031497
        },
        {
          "duration": 0.14705874999998514,
          "durationTicks": 24,
          "midi": 39,
          "name": "D#2",
          "ticks": 43056,
          "time": 263.82339750000006,
          "velocity": 0.7874015748031497
        },
        {
          "duration": 0.14705874999998514,
          "durationTicks": 24,
          "midi": 39,
          "name": "D#2",
          "ticks": 43080,
          "time": 263.97045625000004,
          "velocity": 0.7874015748031497
        },
        {
          "duration": 0.14705874999998514,
          "durationTicks": 24,
          "midi": 41,
          "name": "F2",
          "ticks": 43104,
          "time": 264.117515,
          "velocity": 0.7874015748031497
        },
        {
          "duration": 0.14705875000004198,
          "durationTicks": 24,
          "midi": 41,
          "name": "F2",
          "ticks": 43128,
          "time": 264.26457375,
          "velocity": 0.7874015748031497
        },
        {
          "duration": 0.14705874999998514,
          "durationTicks": 24,
          "midi": 41,
          "name": "F2",
          "ticks": 43152,
          "time": 264.41163250000005,
          "velocity": 0.7874015748031497
        },
        {
          "duration": 0.14705874999998514,
          "durationTicks": 24,
          "midi": 41,
          "name": "F2",
          "ticks": 43176,
          "time": 264.55869125000004,
          "velocity": 0.7874015748031497
        },
        {
          "duration": 0.14705874999998514,
          "durationTicks": 24,
          "midi": 41,
          "name": "F2",
          "ticks": 43200,
          "time": 264.70575,
          "velocity": 0.7874015748031497
        },
        {
          "duration": 0.14705875000004198,
          "durationTicks": 24,
          "midi": 41,
          "name": "F2",
          "ticks": 43224,
          "time": 264.85280875,
          "velocity": 0.7874015748031497
        },
        {
          "duration": 0.14705874999998514,
          "durationTicks": 24,
          "midi": 41,
          "name": "F2",
          "ticks": 43248,
          "time": 264.99986750000005,
          "velocity": 0.7874015748031497
        },
        {
          "duration": 0.14705874999998514,
          "durationTicks": 24,
          "midi": 41,
          "name": "F2",
          "ticks": 43272,
          "time": 265.14692625000004,
          "velocity": 0.7874015748031497
        },
        {
          "duration": 0.14705874999998514,
          "durationTicks": 24,
          "midi": 41,
          "name": "F2",
          "ticks": 43296,
          "time": 265.293985,
          "velocity": 0.7874015748031497
        },
        {
          "duration": 0.14705875000004198,
          "durationTicks": 24,
          "midi": 41,
          "name": "F2",
          "ticks": 43320,
          "time": 265.44104375,
          "velocity": 0.7874015748031497
        },
        {
          "duration": 0.14705874999998514,
          "durationTicks": 24,
          "midi": 41,
          "name": "F2",
          "ticks": 43344,
          "time": 265.58810250000005,
          "velocity": 0.7874015748031497
        },
        {
          "duration": 0.14705874999998514,
          "durationTicks": 24,
          "midi": 41,
          "name": "F2",
          "ticks": 43368,
          "time": 265.73516125000003,
          "velocity": 0.7874015748031497
        },
        {
          "duration": 0.14705874999998514,
          "durationTicks": 24,
          "midi": 41,
          "name": "F2",
          "ticks": 43392,
          "time": 265.88222,
          "velocity": 0.7874015748031497
        },
        {
          "duration": 0.14705875000004198,
          "durationTicks": 24,
          "midi": 41,
          "name": "F2",
          "ticks": 43416,
          "time": 266.02927875,
          "velocity": 0.7874015748031497
        },
        {
          "duration": 0.14705874999998514,
          "durationTicks": 24,
          "midi": 41,
          "name": "F2",
          "ticks": 43440,
          "time": 266.17633750000005,
          "velocity": 0.7874015748031497
        },
        {
          "duration": 0.14705874999998514,
          "durationTicks": 24,
          "midi": 41,
          "name": "F2",
          "ticks": 43464,
          "time": 266.32339625000003,
          "velocity": 0.7874015748031497
        },
        {
          "duration": 0.14705874999998514,
          "durationTicks": 24,
          "midi": 41,
          "name": "F2",
          "ticks": 43488,
          "time": 266.470455,
          "velocity": 0.7874015748031497
        },
        {
          "duration": 0.14705875000004198,
          "durationTicks": 24,
          "midi": 41,
          "name": "F2",
          "ticks": 43512,
          "time": 266.61751375,
          "velocity": 0.7874015748031497
        },
        {
          "duration": 0.14705874999998514,
          "durationTicks": 24,
          "midi": 41,
          "name": "F2",
          "ticks": 43536,
          "time": 266.76457250000004,
          "velocity": 0.7874015748031497
        },
        {
          "duration": 0.14705874999998514,
          "durationTicks": 24,
          "midi": 41,
          "name": "F2",
          "ticks": 43560,
          "time": 266.91163125,
          "velocity": 0.7874015748031497
        },
        {
          "duration": 0.14705875000004198,
          "durationTicks": 24,
          "midi": 41,
          "name": "F2",
          "ticks": 43584,
          "time": 267.05869,
          "velocity": 0.7874015748031497
        },
        {
          "duration": 0.14705874999998514,
          "durationTicks": 24,
          "midi": 41,
          "name": "F2",
          "ticks": 43608,
          "time": 267.20574875000005,
          "velocity": 0.7874015748031497
        },
        {
          "duration": 0.14705874999998514,
          "durationTicks": 24,
          "midi": 41,
          "name": "F2",
          "ticks": 43632,
          "time": 267.35280750000004,
          "velocity": 0.7874015748031497
        },
        {
          "duration": 0.14705874999998514,
          "durationTicks": 24,
          "midi": 41,
          "name": "F2",
          "ticks": 43656,
          "time": 267.49986625,
          "velocity": 0.7874015748031497
        },
        {
          "duration": 0.14705875000004198,
          "durationTicks": 24,
          "midi": 41,
          "name": "F2",
          "ticks": 43680,
          "time": 267.646925,
          "velocity": 0.7874015748031497
        },
        {
          "duration": 0.14705874999998514,
          "durationTicks": 24,
          "midi": 41,
          "name": "F2",
          "ticks": 43704,
          "time": 267.79398375000005,
          "velocity": 0.7874015748031497
        },
        {
          "duration": 0.14705874999998514,
          "durationTicks": 24,
          "midi": 41,
          "name": "F2",
          "ticks": 43728,
          "time": 267.94104250000004,
          "velocity": 0.7874015748031497
        },
        {
          "duration": 0.14705874999998514,
          "durationTicks": 24,
          "midi": 41,
          "name": "F2",
          "ticks": 43752,
          "time": 268.08810125,
          "velocity": 0.7874015748031497
        },
        {
          "duration": 0.14705875000004198,
          "durationTicks": 24,
          "midi": 41,
          "name": "F2",
          "ticks": 43776,
          "time": 268.23516,
          "velocity": 0.7874015748031497
        },
        {
          "duration": 0.14705874999998514,
          "durationTicks": 24,
          "midi": 41,
          "name": "F2",
          "ticks": 43800,
          "time": 268.38221875000005,
          "velocity": 0.7874015748031497
        },
        {
          "duration": 0.14705874999998514,
          "durationTicks": 24,
          "midi": 41,
          "name": "F2",
          "ticks": 43824,
          "time": 268.52927750000003,
          "velocity": 0.7874015748031497
        },
        {
          "duration": 0.14705874999998514,
          "durationTicks": 24,
          "midi": 41,
          "name": "F2",
          "ticks": 43848,
          "time": 268.67633625,
          "velocity": 0.7874015748031497
        },
        {
          "duration": 0.14705875000004198,
          "durationTicks": 24,
          "midi": 43,
          "name": "G2",
          "ticks": 43872,
          "time": 268.823395,
          "velocity": 0.7874015748031497
        },
        {
          "duration": 0.14705874999998514,
          "durationTicks": 24,
          "midi": 43,
          "name": "G2",
          "ticks": 43896,
          "time": 268.97045375000005,
          "velocity": 0.7874015748031497
        },
        {
          "duration": 0.14705874999998514,
          "durationTicks": 24,
          "midi": 43,
          "name": "G2",
          "ticks": 43920,
          "time": 269.11751250000003,
          "velocity": 0.7874015748031497
        },
        {
          "duration": 0.14705874999998514,
          "durationTicks": 24,
          "midi": 43,
          "name": "G2",
          "ticks": 43944,
          "time": 269.26457125,
          "velocity": 0.7874015748031497
        },
        {
          "duration": 0.14705875000004198,
          "durationTicks": 24,
          "midi": 43,
          "name": "G2",
          "ticks": 43968,
          "time": 269.41163,
          "velocity": 0.7874015748031497
        },
        {
          "duration": 0.14705874999998514,
          "durationTicks": 24,
          "midi": 43,
          "name": "G2",
          "ticks": 43992,
          "time": 269.55868875000004,
          "velocity": 0.7874015748031497
        },
        {
          "duration": 0.14705874999998514,
          "durationTicks": 24,
          "midi": 43,
          "name": "G2",
          "ticks": 44016,
          "time": 269.70574750000003,
          "velocity": 0.7874015748031497
        },
        {
          "duration": 0.14705875000004198,
          "durationTicks": 24,
          "midi": 43,
          "name": "G2",
          "ticks": 44040,
          "time": 269.85280625,
          "velocity": 0.7874015748031497
        },
        {
          "duration": 0.14705874999998514,
          "durationTicks": 24,
          "midi": 43,
          "name": "G2",
          "ticks": 44064,
          "time": 269.99986500000006,
          "velocity": 0.7874015748031497
        },
        {
          "duration": 0.14705874999998514,
          "durationTicks": 24,
          "midi": 43,
          "name": "G2",
          "ticks": 44088,
          "time": 270.14692375000004,
          "velocity": 0.7874015748031497
        },
        {
          "duration": 0.14705874999998514,
          "durationTicks": 24,
          "midi": 43,
          "name": "G2",
          "ticks": 44112,
          "time": 270.2939825,
          "velocity": 0.7874015748031497
        },
        {
          "duration": 0.14705875000004198,
          "durationTicks": 24,
          "midi": 43,
          "name": "G2",
          "ticks": 44136,
          "time": 270.44104125,
          "velocity": 0.7874015748031497
        },
        {
          "duration": 0.14705874999998514,
          "durationTicks": 24,
          "midi": 43,
          "name": "G2",
          "ticks": 44160,
          "time": 270.58810000000005,
          "velocity": 0.7874015748031497
        },
        {
          "duration": 0.14705874999998514,
          "durationTicks": 24,
          "midi": 43,
          "name": "G2",
          "ticks": 44184,
          "time": 270.73515875000004,
          "velocity": 0.7874015748031497
        },
        {
          "duration": 0.14705874999998514,
          "durationTicks": 24,
          "midi": 43,
          "name": "G2",
          "ticks": 44208,
          "time": 270.8822175,
          "velocity": 0.7874015748031497
        },
        {
          "duration": 0.14705875000004198,
          "durationTicks": 24,
          "midi": 43,
          "name": "G2",
          "ticks": 44232,
          "time": 271.02927625,
          "velocity": 0.7874015748031497
        },
        {
          "duration": 0.14705874999998514,
          "durationTicks": 24,
          "midi": 39,
          "name": "D#2",
          "ticks": 44256,
          "time": 271.17633500000005,
          "velocity": 0.7874015748031497
        },
        {
          "duration": 0.14705874999998514,
          "durationTicks": 24,
          "midi": 39,
          "name": "D#2",
          "ticks": 44280,
          "time": 271.32339375000004,
          "velocity": 0.7874015748031497
        },
        {
          "duration": 0.14705874999998514,
          "durationTicks": 24,
          "midi": 39,
          "name": "D#2",
          "ticks": 44304,
          "time": 271.4704525,
          "velocity": 0.7874015748031497
        },
        {
          "duration": 0.14705875000004198,
          "durationTicks": 24,
          "midi": 39,
          "name": "D#2",
          "ticks": 44328,
          "time": 271.61751125,
          "velocity": 0.7874015748031497
        },
        {
          "duration": 0.14705874999998514,
          "durationTicks": 24,
          "midi": 39,
          "name": "D#2",
          "ticks": 44352,
          "time": 271.76457000000005,
          "velocity": 0.7874015748031497
        },
        {
          "duration": 0.14705874999998514,
          "durationTicks": 24,
          "midi": 39,
          "name": "D#2",
          "ticks": 44376,
          "time": 271.91162875000003,
          "velocity": 0.7874015748031497
        },
        {
          "duration": 0.14705874999998514,
          "durationTicks": 24,
          "midi": 39,
          "name": "D#2",
          "ticks": 44400,
          "time": 272.0586875,
          "velocity": 0.7874015748031497
        },
        {
          "duration": 0.14705875000004198,
          "durationTicks": 24,
          "midi": 39,
          "name": "D#2",
          "ticks": 44424,
          "time": 272.20574625,
          "velocity": 0.7874015748031497
        },
        {
          "duration": 0.14705874999998514,
          "durationTicks": 24,
          "midi": 39,
          "name": "D#2",
          "ticks": 44448,
          "time": 272.35280500000005,
          "velocity": 0.7874015748031497
        },
        {
          "duration": 0.14705874999998514,
          "durationTicks": 24,
          "midi": 39,
          "name": "D#2",
          "ticks": 44472,
          "time": 272.49986375000003,
          "velocity": 0.7874015748031497
        },
        {
          "duration": 0.14705874999998514,
          "durationTicks": 24,
          "midi": 39,
          "name": "D#2",
          "ticks": 44496,
          "time": 272.6469225,
          "velocity": 0.7874015748031497
        },
        {
          "duration": 0.14705875000004198,
          "durationTicks": 24,
          "midi": 39,
          "name": "D#2",
          "ticks": 44520,
          "time": 272.79398125,
          "velocity": 0.7874015748031497
        },
        {
          "duration": 0.14705874999998514,
          "durationTicks": 24,
          "midi": 39,
          "name": "D#2",
          "ticks": 44544,
          "time": 272.94104000000004,
          "velocity": 0.7874015748031497
        },
        {
          "duration": 0.14705874999998514,
          "durationTicks": 24,
          "midi": 39,
          "name": "D#2",
          "ticks": 44568,
          "time": 273.08809875000003,
          "velocity": 0.7874015748031497
        },
        {
          "duration": 0.14705875000004198,
          "durationTicks": 24,
          "midi": 39,
          "name": "D#2",
          "ticks": 44592,
          "time": 273.2351575,
          "velocity": 0.7874015748031497
        },
        {
          "duration": 0.14705874999998514,
          "durationTicks": 24,
          "midi": 39,
          "name": "D#2",
          "ticks": 44616,
          "time": 273.38221625000006,
          "velocity": 0.7874015748031497
        },
        {
          "duration": 0.14705874999998514,
          "durationTicks": 24,
          "midi": 41,
          "name": "F2",
          "ticks": 44640,
          "time": 273.52927500000004,
          "velocity": 0.7874015748031497
        },
        {
          "duration": 0.14705874999998514,
          "durationTicks": 24,
          "midi": 41,
          "name": "F2",
          "ticks": 44664,
          "time": 273.67633375,
          "velocity": 0.7874015748031497
        },
        {
          "duration": 0.14705875000004198,
          "durationTicks": 24,
          "midi": 41,
          "name": "F2",
          "ticks": 44688,
          "time": 273.8233925,
          "velocity": 0.7874015748031497
        },
        {
          "duration": 0.14705874999998514,
          "durationTicks": 24,
          "midi": 41,
          "name": "F2",
          "ticks": 44712,
          "time": 273.97045125000005,
          "velocity": 0.7874015748031497
        },
        {
          "duration": 0.14705874999998514,
          "durationTicks": 24,
          "midi": 41,
          "name": "F2",
          "ticks": 44736,
          "time": 274.11751000000004,
          "velocity": 0.7874015748031497
        },
        {
          "duration": 0.14705874999998514,
          "durationTicks": 24,
          "midi": 41,
          "name": "F2",
          "ticks": 44760,
          "time": 274.26456875,
          "velocity": 0.7874015748031497
        },
        {
          "duration": 0.14705875000004198,
          "durationTicks": 24,
          "midi": 41,
          "name": "F2",
          "ticks": 44784,
          "time": 274.4116275,
          "velocity": 0.7874015748031497
        },
        {
          "duration": 0.14705874999998514,
          "durationTicks": 24,
          "midi": 41,
          "name": "F2",
          "ticks": 44808,
          "time": 274.55868625000005,
          "velocity": 0.7874015748031497
        },
        {
          "duration": 0.14705874999998514,
          "durationTicks": 24,
          "midi": 41,
          "name": "F2",
          "ticks": 44832,
          "time": 274.70574500000004,
          "velocity": 0.7874015748031497
        },
        {
          "duration": 0.14705874999998514,
          "durationTicks": 24,
          "midi": 41,
          "name": "F2",
          "ticks": 44856,
          "time": 274.85280375,
          "velocity": 0.7874015748031497
        },
        {
          "duration": 0.14705875000004198,
          "durationTicks": 24,
          "midi": 41,
          "name": "F2",
          "ticks": 44880,
          "time": 274.9998625,
          "velocity": 0.7874015748031497
        },
        {
          "duration": 0.14705874999998514,
          "durationTicks": 24,
          "midi": 41,
          "name": "F2",
          "ticks": 44904,
          "time": 275.14692125000005,
          "velocity": 0.7874015748031497
        },
        {
          "duration": 0.14705874999998514,
          "durationTicks": 24,
          "midi": 41,
          "name": "F2",
          "ticks": 44928,
          "time": 275.29398000000003,
          "velocity": 0.7874015748031497
        },
        {
          "duration": 0.14705874999998514,
          "durationTicks": 24,
          "midi": 41,
          "name": "F2",
          "ticks": 44952,
          "time": 275.44103875,
          "velocity": 0.7874015748031497
        },
        {
          "duration": 0.14705875000004198,
          "durationTicks": 24,
          "midi": 41,
          "name": "F2",
          "ticks": 44976,
          "time": 275.5880975,
          "velocity": 0.7874015748031497
        },
        {
          "duration": 0.14705874999998514,
          "durationTicks": 24,
          "midi": 41,
          "name": "F2",
          "ticks": 45000,
          "time": 275.73515625000005,
          "velocity": 0.7874015748031497
        },
        {
          "duration": 0.14705874999998514,
          "durationTicks": 24,
          "midi": 41,
          "name": "F2",
          "ticks": 45024,
          "time": 275.88221500000003,
          "velocity": 0.7874015748031497
        },
        {
          "duration": 0.14705875000004198,
          "durationTicks": 24,
          "midi": 41,
          "name": "F2",
          "ticks": 45048,
          "time": 276.02927375,
          "velocity": 0.7874015748031497
        },
        {
          "duration": 0.14705874999998514,
          "durationTicks": 24,
          "midi": 41,
          "name": "F2",
          "ticks": 45072,
          "time": 276.17633250000006,
          "velocity": 0.7874015748031497
        },
        {
          "duration": 0.14705874999998514,
          "durationTicks": 24,
          "midi": 41,
          "name": "F2",
          "ticks": 45096,
          "time": 276.32339125000004,
          "velocity": 0.7874015748031497
        },
        {
          "duration": 0.14705874999998514,
          "durationTicks": 24,
          "midi": 41,
          "name": "F2",
          "ticks": 45120,
          "time": 276.47045,
          "velocity": 0.7874015748031497
        },
        {
          "duration": 0.14705875000004198,
          "durationTicks": 24,
          "midi": 41,
          "name": "F2",
          "ticks": 45144,
          "time": 276.61750875,
          "velocity": 0.7874015748031497
        },
        {
          "duration": 0.14705874999998514,
          "durationTicks": 24,
          "midi": 41,
          "name": "F2",
          "ticks": 45168,
          "time": 276.76456750000006,
          "velocity": 0.7874015748031497
        },
        {
          "duration": 0.14705874999998514,
          "durationTicks": 24,
          "midi": 41,
          "name": "F2",
          "ticks": 45192,
          "time": 276.91162625000004,
          "velocity": 0.7874015748031497
        },
        {
          "duration": 0.14705874999998514,
          "durationTicks": 24,
          "midi": 41,
          "name": "F2",
          "ticks": 45216,
          "time": 277.058685,
          "velocity": 0.7874015748031497
        },
        {
          "duration": 0.14705875000004198,
          "durationTicks": 24,
          "midi": 41,
          "name": "F2",
          "ticks": 45240,
          "time": 277.20574375,
          "velocity": 0.7874015748031497
        },
        {
          "duration": 0.14705874999998514,
          "durationTicks": 24,
          "midi": 41,
          "name": "F2",
          "ticks": 45264,
          "time": 277.35280250000005,
          "velocity": 0.7874015748031497
        },
        {
          "duration": 0.14705874999998514,
          "durationTicks": 24,
          "midi": 41,
          "name": "F2",
          "ticks": 45288,
          "time": 277.49986125000004,
          "velocity": 0.7874015748031497
        },
        {
          "duration": 0.14705874999998514,
          "durationTicks": 24,
          "midi": 41,
          "name": "F2",
          "ticks": 45312,
          "time": 277.64692,
          "velocity": 0.7874015748031497
        },
        {
          "duration": 0.14705875000004198,
          "durationTicks": 24,
          "midi": 41,
          "name": "F2",
          "ticks": 45336,
          "time": 277.79397875,
          "velocity": 0.7874015748031497
        },
        {
          "duration": 0.14705874999998514,
          "durationTicks": 24,
          "midi": 41,
          "name": "F2",
          "ticks": 45360,
          "time": 277.94103750000005,
          "velocity": 0.7874015748031497
        },
        {
          "duration": 0.14705874999998514,
          "durationTicks": 24,
          "midi": 41,
          "name": "F2",
          "ticks": 45384,
          "time": 278.08809625000004,
          "velocity": 0.7874015748031497
        },
        {
          "duration": 0.14705874999998514,
          "durationTicks": 24,
          "midi": 40,
          "name": "E2",
          "ticks": 45408,
          "time": 278.235155,
          "velocity": 0.7874015748031497
        },
        {
          "duration": 0.14705875000004198,
          "durationTicks": 24,
          "midi": 40,
          "name": "E2",
          "ticks": 45432,
          "time": 278.38221375,
          "velocity": 0.7874015748031497
        },
        {
          "duration": 0.14705874999998514,
          "durationTicks": 24,
          "midi": 40,
          "name": "E2",
          "ticks": 45456,
          "time": 278.52927250000005,
          "velocity": 0.7874015748031497
        },
        {
          "duration": 0.14705874999998514,
          "durationTicks": 24,
          "midi": 40,
          "name": "E2",
          "ticks": 45480,
          "time": 278.67633125000003,
          "velocity": 0.7874015748031497
        },
        {
          "duration": 0.14705874999998514,
          "durationTicks": 24,
          "midi": 40,
          "name": "E2",
          "ticks": 45504,
          "time": 278.82339,
          "velocity": 0.7874015748031497
        },
        {
          "duration": 0.14705875000004198,
          "durationTicks": 24,
          "midi": 40,
          "name": "E2",
          "ticks": 45528,
          "time": 278.97044875,
          "velocity": 0.7874015748031497
        },
        {
          "duration": 0.14705874999998514,
          "durationTicks": 24,
          "midi": 40,
          "name": "E2",
          "ticks": 45552,
          "time": 279.11750750000004,
          "velocity": 0.7874015748031497
        },
        {
          "duration": 0.14705874999998514,
          "durationTicks": 24,
          "midi": 40,
          "name": "E2",
          "ticks": 45576,
          "time": 279.26456625000003,
          "velocity": 0.7874015748031497
        },
        {
          "duration": 0.14705875000004198,
          "durationTicks": 24,
          "midi": 40,
          "name": "E2",
          "ticks": 45600,
          "time": 279.411625,
          "velocity": 0.7874015748031497
        },
        {
          "duration": 0.14705874999998514,
          "durationTicks": 24,
          "midi": 40,
          "name": "E2",
          "ticks": 45624,
          "time": 279.55868375000006,
          "velocity": 0.7874015748031497
        },
        {
          "duration": 0.14705874999998514,
          "durationTicks": 24,
          "midi": 40,
          "name": "E2",
          "ticks": 45648,
          "time": 279.70574250000004,
          "velocity": 0.7874015748031497
        },
        {
          "duration": 0.14705874999998514,
          "durationTicks": 24,
          "midi": 40,
          "name": "E2",
          "ticks": 45672,
          "time": 279.85280125,
          "velocity": 0.7874015748031497
        },
        {
          "duration": 0.14705875000004198,
          "durationTicks": 24,
          "midi": 40,
          "name": "E2",
          "ticks": 45696,
          "time": 279.99986,
          "velocity": 0.7874015748031497
        },
        {
          "duration": 0.14705874999998514,
          "durationTicks": 24,
          "midi": 40,
          "name": "E2",
          "ticks": 45720,
          "time": 280.14691875000005,
          "velocity": 0.7874015748031497
        },
        {
          "duration": 0.14705874999998514,
          "durationTicks": 24,
          "midi": 40,
          "name": "E2",
          "ticks": 45744,
          "time": 280.29397750000004,
          "velocity": 0.7874015748031497
        },
        {
          "duration": 0.14705874999998514,
          "durationTicks": 24,
          "midi": 40,
          "name": "E2",
          "ticks": 45768,
          "time": 280.44103625,
          "velocity": 0.7874015748031497
        },
        {
          "duration": 0.14705875000004198,
          "durationTicks": 24,
          "midi": 40,
          "name": "E2",
          "ticks": 45792,
          "time": 280.588095,
          "velocity": 0.7874015748031497
        },
        {
          "duration": 0.14705874999998514,
          "durationTicks": 24,
          "midi": 40,
          "name": "E2",
          "ticks": 45816,
          "time": 280.73515375000005,
          "velocity": 0.7874015748031497
        },
        {
          "duration": 0.14705874999998514,
          "durationTicks": 24,
          "midi": 40,
          "name": "E2",
          "ticks": 45840,
          "time": 280.88221250000004,
          "velocity": 0.7874015748031497
        },
        {
          "duration": 0.14705874999998514,
          "durationTicks": 24,
          "midi": 40,
          "name": "E2",
          "ticks": 45864,
          "time": 281.02927125,
          "velocity": 0.7874015748031497
        },
        {
          "duration": 0.14705875000004198,
          "durationTicks": 24,
          "midi": 40,
          "name": "E2",
          "ticks": 45888,
          "time": 281.17633,
          "velocity": 0.7874015748031497
        },
        {
          "duration": 0.14705874999998514,
          "durationTicks": 24,
          "midi": 40,
          "name": "E2",
          "ticks": 45912,
          "time": 281.32338875000005,
          "velocity": 0.7874015748031497
        },
        {
          "duration": 0.14705874999998514,
          "durationTicks": 24,
          "midi": 40,
          "name": "E2",
          "ticks": 45936,
          "time": 281.47044750000003,
          "velocity": 0.7874015748031497
        },
        {
          "duration": 0.14705874999998514,
          "durationTicks": 24,
          "midi": 40,
          "name": "E2",
          "ticks": 45960,
          "time": 281.61750625,
          "velocity": 0.7874015748031497
        },
        {
          "duration": 0.14705875000004198,
          "durationTicks": 24,
          "midi": 40,
          "name": "E2",
          "ticks": 45984,
          "time": 281.764565,
          "velocity": 0.7874015748031497
        },
        {
          "duration": 0.14705874999998514,
          "durationTicks": 24,
          "midi": 40,
          "name": "E2",
          "ticks": 46008,
          "time": 281.91162375000005,
          "velocity": 0.7874015748031497
        },
        {
          "duration": 0.14705874999998514,
          "durationTicks": 24,
          "midi": 40,
          "name": "E2",
          "ticks": 46032,
          "time": 282.05868250000003,
          "velocity": 0.7874015748031497
        },
        {
          "duration": 0.14705874999998514,
          "durationTicks": 24,
          "midi": 40,
          "name": "E2",
          "ticks": 46056,
          "time": 282.20574125,
          "velocity": 0.7874015748031497
        },
        {
          "duration": 0.14705875000004198,
          "durationTicks": 24,
          "midi": 40,
          "name": "E2",
          "ticks": 46080,
          "time": 282.3528,
          "velocity": 0.7874015748031497
        },
        {
          "duration": 0.14705874999998514,
          "durationTicks": 24,
          "midi": 40,
          "name": "E2",
          "ticks": 46104,
          "time": 282.49985875000004,
          "velocity": 0.7874015748031497
        },
        {
          "duration": 0.14705874999998514,
          "durationTicks": 24,
          "midi": 40,
          "name": "E2",
          "ticks": 46128,
          "time": 282.64691750000003,
          "velocity": 0.7874015748031497
        },
        {
          "duration": 0.14705875000004198,
          "durationTicks": 24,
          "midi": 40,
          "name": "E2",
          "ticks": 46152,
          "time": 282.79397625,
          "velocity": 0.7874015748031497
        },
        {
          "duration": 0.14705874999998514,
          "durationTicks": 24,
          "midi": 35,
          "name": "B1",
          "ticks": 46176,
          "time": 282.94103500000006,
          "velocity": 0.7874015748031497
        },
        {
          "duration": 0.14705874999998514,
          "durationTicks": 24,
          "midi": 35,
          "name": "B1",
          "ticks": 46200,
          "time": 283.08809375000004,
          "velocity": 0.7874015748031497
        },
        {
          "duration": 0.14705874999998514,
          "durationTicks": 24,
          "midi": 35,
          "name": "B1",
          "ticks": 46224,
          "time": 283.2351525,
          "velocity": 0.7874015748031497
        },
        {
          "duration": 0.14705875000004198,
          "durationTicks": 24,
          "midi": 35,
          "name": "B1",
          "ticks": 46248,
          "time": 283.38221125,
          "velocity": 0.7874015748031497
        },
        {
          "duration": 0.14705874999998514,
          "durationTicks": 24,
          "midi": 35,
          "name": "B1",
          "ticks": 46272,
          "time": 283.52927000000005,
          "velocity": 0.7874015748031497
        },
        {
          "duration": 0.14705874999998514,
          "durationTicks": 24,
          "midi": 35,
          "name": "B1",
          "ticks": 46296,
          "time": 283.67632875000004,
          "velocity": 0.7874015748031497
        },
        {
          "duration": 0.14705874999998514,
          "durationTicks": 24,
          "midi": 35,
          "name": "B1",
          "ticks": 46320,
          "time": 283.8233875,
          "velocity": 0.7874015748031497
        },
        {
          "duration": 0.14705875000004198,
          "durationTicks": 24,
          "midi": 35,
          "name": "B1",
          "ticks": 46344,
          "time": 283.97044625,
          "velocity": 0.7874015748031497
        },
        {
          "duration": 0.14705874999998514,
          "durationTicks": 24,
          "midi": 35,
          "name": "B1",
          "ticks": 46368,
          "time": 284.11750500000005,
          "velocity": 0.7874015748031497
        },
        {
          "duration": 0.14705874999998514,
          "durationTicks": 24,
          "midi": 35,
          "name": "B1",
          "ticks": 46392,
          "time": 284.26456375000004,
          "velocity": 0.7874015748031497
        },
        {
          "duration": 0.14705874999998514,
          "durationTicks": 24,
          "midi": 35,
          "name": "B1",
          "ticks": 46416,
          "time": 284.4116225,
          "velocity": 0.7874015748031497
        },
        {
          "duration": 0.14705875000004198,
          "durationTicks": 24,
          "midi": 35,
          "name": "B1",
          "ticks": 46440,
          "time": 284.55868125,
          "velocity": 0.7874015748031497
        },
        {
          "duration": 0.14705874999998514,
          "durationTicks": 24,
          "midi": 35,
          "name": "B1",
          "ticks": 46464,
          "time": 284.70574000000005,
          "velocity": 0.7874015748031497
        },
        {
          "duration": 0.14705874999998514,
          "durationTicks": 24,
          "midi": 35,
          "name": "B1",
          "ticks": 46488,
          "time": 284.85279875000003,
          "velocity": 0.7874015748031497
        },
        {
          "duration": 0.14705874999998514,
          "durationTicks": 24,
          "midi": 35,
          "name": "B1",
          "ticks": 46512,
          "time": 284.9998575,
          "velocity": 0.7874015748031497
        },
        {
          "duration": 0.14705875000004198,
          "durationTicks": 24,
          "midi": 35,
          "name": "B1",
          "ticks": 46536,
          "time": 285.14691625,
          "velocity": 0.7874015748031497
        },
        {
          "duration": 0.14705874999998514,
          "durationTicks": 24,
          "midi": 35,
          "name": "B1",
          "ticks": 46560,
          "time": 285.29397500000005,
          "velocity": 0.7874015748031497
        },
        {
          "duration": 0.14705874999998514,
          "durationTicks": 24,
          "midi": 35,
          "name": "B1",
          "ticks": 46584,
          "time": 285.44103375000003,
          "velocity": 0.7874015748031497
        },
        {
          "duration": 0.14705875000004198,
          "durationTicks": 24,
          "midi": 35,
          "name": "B1",
          "ticks": 46608,
          "time": 285.5880925,
          "velocity": 0.7874015748031497
        },
        {
          "duration": 0.14705874999998514,
          "durationTicks": 24,
          "midi": 37,
          "name": "C#2",
          "ticks": 46632,
          "time": 285.73515125000006,
          "velocity": 0.7874015748031497
        },
        {
          "duration": 0.14705874999998514,
          "durationTicks": 24,
          "midi": 37,
          "name": "C#2",
          "ticks": 46656,
          "time": 285.88221000000004,
          "velocity": 0.7874015748031497
        },
        {
          "duration": 0.14705874999998514,
          "durationTicks": 24,
          "midi": 37,
          "name": "C#2",
          "ticks": 46680,
          "time": 286.02926875,
          "velocity": 0.7874015748031497
        },
        {
          "duration": 0.14705875000004198,
          "durationTicks": 24,
          "midi": 38,
          "name": "D2",
          "ticks": 46704,
          "time": 286.1763275,
          "velocity": 0.7874015748031497
        },
        {
          "duration": 0.14705874999998514,
          "durationTicks": 24,
          "midi": 38,
          "name": "D2",
          "ticks": 46728,
          "time": 286.32338625000006,
          "velocity": 0.7874015748031497
        },
        {
          "duration": 0.14705874999998514,
          "durationTicks": 24,
          "midi": 38,
          "name": "D2",
          "ticks": 46752,
          "time": 286.47044500000004,
          "velocity": 0.7874015748031497
        },
        {
          "duration": 0.14705874999998514,
          "durationTicks": 24,
          "midi": 40,
          "name": "E2",
          "ticks": 46776,
          "time": 286.61750375,
          "velocity": 0.7874015748031497
        },
        {
          "duration": 0.14705875000004198,
          "durationTicks": 24,
          "midi": 40,
          "name": "E2",
          "ticks": 46800,
          "time": 286.7645625,
          "velocity": 0.7874015748031497
        },
        {
          "duration": 0.14705874999998514,
          "durationTicks": 24,
          "midi": 40,
          "name": "E2",
          "ticks": 46824,
          "time": 286.91162125000005,
          "velocity": 0.7874015748031497
        },
        {
          "duration": 0.14705874999998514,
          "durationTicks": 24,
          "midi": 38,
          "name": "D2",
          "ticks": 46848,
          "time": 287.05868000000004,
          "velocity": 0.7874015748031497
        },
        {
          "duration": 0.14705874999998514,
          "durationTicks": 24,
          "midi": 38,
          "name": "D2",
          "ticks": 46872,
          "time": 287.20573875,
          "velocity": 0.7874015748031497
        },
        {
          "duration": 0.14705875000004198,
          "durationTicks": 24,
          "midi": 37,
          "name": "C#2",
          "ticks": 46896,
          "time": 287.3527975,
          "velocity": 0.7874015748031497
        },
        {
          "duration": 0.14705874999998514,
          "durationTicks": 24,
          "midi": 37,
          "name": "C#2",
          "ticks": 46920,
          "time": 287.49985625000005,
          "velocity": 0.7874015748031497
        },
        {
          "duration": 0.14705874999998514,
          "durationTicks": 24,
          "midi": 35,
          "name": "B1",
          "ticks": 46944,
          "time": 287.64691500000004,
          "velocity": 0.7874015748031497
        },
        {
          "duration": 0.14705874999998514,
          "durationTicks": 24,
          "midi": 35,
          "name": "B1",
          "ticks": 46968,
          "time": 287.79397375,
          "velocity": 0.7874015748031497
        },
        {
          "duration": 0.14705875000004198,
          "durationTicks": 24,
          "midi": 35,
          "name": "B1",
          "ticks": 46992,
          "time": 287.9410325,
          "velocity": 0.7874015748031497
        },
        {
          "duration": 0.14705874999998514,
          "durationTicks": 24,
          "midi": 35,
          "name": "B1",
          "ticks": 47016,
          "time": 288.08809125000005,
          "velocity": 0.7874015748031497
        },
        {
          "duration": 0.14705874999998514,
          "durationTicks": 24,
          "midi": 35,
          "name": "B1",
          "ticks": 47040,
          "time": 288.23515000000003,
          "velocity": 0.7874015748031497
        },
        {
          "duration": 0.14705874999998514,
          "durationTicks": 24,
          "midi": 35,
          "name": "B1",
          "ticks": 47064,
          "time": 288.38220875,
          "velocity": 0.7874015748031497
        },
        {
          "duration": 0.14705875000004198,
          "durationTicks": 24,
          "midi": 35,
          "name": "B1",
          "ticks": 47088,
          "time": 288.5292675,
          "velocity": 0.7874015748031497
        },
        {
          "duration": 0.14705874999998514,
          "durationTicks": 24,
          "midi": 35,
          "name": "B1",
          "ticks": 47112,
          "time": 288.67632625000005,
          "velocity": 0.7874015748031497
        },
        {
          "duration": 0.14705874999998514,
          "durationTicks": 24,
          "midi": 35,
          "name": "B1",
          "ticks": 47136,
          "time": 288.82338500000003,
          "velocity": 0.7874015748031497
        },
        {
          "duration": 0.14705875000004198,
          "durationTicks": 24,
          "midi": 35,
          "name": "B1",
          "ticks": 47160,
          "time": 288.97044375,
          "velocity": 0.7874015748031497
        },
        {
          "duration": 0.14705874999998514,
          "durationTicks": 24,
          "midi": 35,
          "name": "B1",
          "ticks": 47184,
          "time": 289.11750250000006,
          "velocity": 0.7874015748031497
        },
        {
          "duration": 0.14705874999998514,
          "durationTicks": 24,
          "midi": 35,
          "name": "B1",
          "ticks": 47208,
          "time": 289.26456125000004,
          "velocity": 0.7874015748031497
        },
        {
          "duration": 0.14705874999998514,
          "durationTicks": 24,
          "midi": 35,
          "name": "B1",
          "ticks": 47232,
          "time": 289.41162,
          "velocity": 0.7874015748031497
        },
        {
          "duration": 0.14705875000004198,
          "durationTicks": 24,
          "midi": 35,
          "name": "B1",
          "ticks": 47256,
          "time": 289.55867875,
          "velocity": 0.7874015748031497
        },
        {
          "duration": 0.14705874999998514,
          "durationTicks": 24,
          "midi": 35,
          "name": "B1",
          "ticks": 47280,
          "time": 289.70573750000005,
          "velocity": 0.7874015748031497
        },
        {
          "duration": 0.14705874999998514,
          "durationTicks": 24,
          "midi": 35,
          "name": "B1",
          "ticks": 47304,
          "time": 289.85279625000004,
          "velocity": 0.7874015748031497
        },
        {
          "duration": 0.14705874999998514,
          "durationTicks": 24,
          "midi": 35,
          "name": "B1",
          "ticks": 47328,
          "time": 289.999855,
          "velocity": 0.7874015748031497
        },
        {
          "duration": 0.14705875000004198,
          "durationTicks": 24,
          "midi": 35,
          "name": "B1",
          "ticks": 47352,
          "time": 290.14691375,
          "velocity": 0.7874015748031497
        },
        {
          "duration": 0.14705874999998514,
          "durationTicks": 24,
          "midi": 35,
          "name": "B1",
          "ticks": 47376,
          "time": 290.29397250000005,
          "velocity": 0.7874015748031497
        },
        {
          "duration": 0.14705874999998514,
          "durationTicks": 24,
          "midi": 35,
          "name": "B1",
          "ticks": 47400,
          "time": 290.44103125000004,
          "velocity": 0.7874015748031497
        },
        {
          "duration": 0.14705874999998514,
          "durationTicks": 24,
          "midi": 35,
          "name": "B1",
          "ticks": 47424,
          "time": 290.58809,
          "velocity": 0.7874015748031497
        },
        {
          "duration": 0.14705875000004198,
          "durationTicks": 24,
          "midi": 35,
          "name": "B1",
          "ticks": 47448,
          "time": 290.73514875,
          "velocity": 0.7874015748031497
        },
        {
          "duration": 0.14705874999998514,
          "durationTicks": 24,
          "midi": 35,
          "name": "B1",
          "ticks": 47472,
          "time": 290.88220750000005,
          "velocity": 0.7874015748031497
        },
        {
          "duration": 0.14705874999998514,
          "durationTicks": 24,
          "midi": 35,
          "name": "B1",
          "ticks": 47496,
          "time": 291.02926625000003,
          "velocity": 0.7874015748031497
        },
        {
          "duration": 0.14705874999998514,
          "durationTicks": 24,
          "midi": 35,
          "name": "B1",
          "ticks": 47520,
          "time": 291.176325,
          "velocity": 0.7874015748031497
        },
        {
          "duration": 0.14705875000004198,
          "durationTicks": 24,
          "midi": 35,
          "name": "B1",
          "ticks": 47544,
          "time": 291.32338375,
          "velocity": 0.7874015748031497
        },
        {
          "duration": 0.14705874999998514,
          "durationTicks": 24,
          "midi": 35,
          "name": "B1",
          "ticks": 47568,
          "time": 291.47044250000005,
          "velocity": 0.7874015748031497
        }
      ]
    },
    {
      "channel": 0,
      "controlChanges": {
        "6": [
          {
            "number": 6,
            "ticks": 0,
            "time": 0,
            "value": 0.09448818897637795
          }
        ],
        "7": [
          {
            "number": 7,
            "ticks": 0,
            "time": 0,
            "value": 0.5984251968503937
          },
          {
            "number": 7,
            "ticks": 0,
            "time": 0,
            "value": 0.5984251968503937
          }
        ],
        "10": [
          {
            "number": 10,
            "ticks": 0,
            "time": 0,
            "value": 0.5039370078740157
          },
          {
            "number": 10,
            "ticks": 0,
            "time": 0,
            "value": 0.5039370078740157
          }
        ],
        "100": [
          {
            "number": 100,
            "ticks": 0,
            "time": 0,
            "value": 0
          }
        ],
        "101": [
          {
            "number": 101,
            "ticks": 0,
            "time": 0,
            "value": 0
          }
        ]
      },
      "pitchBends": [
        {
          "ticks": 0,
          "time": 0,
          "value": 0
        },
        {
          "ticks": 0,
          "time": 0,
          "value": 0
        }
      ],
      "instrument": {
        "family": "piano",
        "number": 0,
        "name": "acoustic grand piano"
      },
      "name": "Pad 4 (choir)",
      "notes": [],
      "endOfTrackTicks": 48052
    },
    {
      "channel": 2,
      "controlChanges": {
        "1": [
          {
            "number": 1,
            "ticks": 0,
            "time": 0,
            "value": 0
          },
          {
            "number": 1,
            "ticks": 0,
            "time": 0,
            "value": 0
          },
          {
            "number": 1,
            "ticks": 0,
            "time": 0,
            "value": 0
          },
          {
            "number": 1,
            "ticks": 0,
            "time": 0,
            "value": 0
          },
          {
            "number": 1,
            "ticks": 0,
            "time": 0,
            "value": 0
          },
          {
            "number": 1,
            "ticks": 25824,
            "time": 158.235215,
            "value": 0
          },
          {
            "number": 1,
            "ticks": 48000,
            "time": 294.1175,
            "value": 0
          },
          {
            "number": 1,
            "ticks": 48051,
            "time": 294.42999984375,
            "value": 0
          },
          {
            "number": 1,
            "ticks": 48052,
            "time": 294.4361272916667,
            "value": 0
          }
        ],
        "6": [
          {
            "number": 6,
            "ticks": 0,
            "time": 0,
            "value": 0.09448818897637795
          },
          {
            "number": 6,
            "ticks": 0,
            "time": 0,
            "value": 0.09448818897637795
          },
          {
            "number": 6,
            "ticks": 48000,
            "time": 294.1175,
            "value": 0.09448818897637795
          },
          {
            "number": 6,
            "ticks": 48052,
            "time": 294.4361272916667,
            "value": 0.09448818897637795
          }
        ],
        "7": [
          {
            "number": 7,
            "ticks": 0,
            "time": 0,
            "value": 0.5984251968503937
          },
          {
            "number": 7,
            "ticks": 0,
            "time": 0,
            "value": 0.5984251968503937
          },
          {
            "number": 7,
            "ticks": 48000,
            "time": 294.1175,
            "value": 0.5984251968503937
          },
          {
            "number": 7,
            "ticks": 48052,
            "time": 294.4361272916667,
            "value": 0.5984251968503937
          }
        ],
        "10": [
          {
            "number": 10,
            "ticks": 0,
            "time": 0,
            "value": 0.5039370078740157
          },
          {
            "number": 10,
            "ticks": 0,
            "time": 0,
            "value": 0.5039370078740157
          },
          {
            "number": 10,
            "ticks": 0,
            "time": 0,
            "value": 0.5039370078740157
          },
          {
            "number": 10,
            "ticks": 0,
            "time": 0,
            "value": 0.5039370078740157
          },
          {
            "number": 10,
            "ticks": 25824,
            "time": 158.235215,
            "value": 0.5039370078740157
          },
          {
            "number": 10,
            "ticks": 48000,
            "time": 294.1175,
            "value": 0.5039370078740157
          },
          {
            "number": 10,
            "ticks": 48051,
            "time": 294.42999984375,
            "value": 0.5039370078740157
          },
          {
            "number": 10,
            "ticks": 48052,
            "time": 294.4361272916667,
            "value": 0.5039370078740157
          }
        ],
        "100": [
          {
            "number": 100,
            "ticks": 0,
            "time": 0,
            "value": 0
          },
          {
            "number": 100,
            "ticks": 0,
            "time": 0,
            "value": 0
          },
          {
            "number": 100,
            "ticks": 48000,
            "time": 294.1175,
            "value": 0
          },
          {
            "number": 100,
            "ticks": 48052,
            "time": 294.4361272916667,
            "value": 0
          }
        ],
        "101": [
          {
            "number": 101,
            "ticks": 0,
            "time": 0,
            "value": 0
          },
          {
            "number": 101,
            "ticks": 0,
            "time": 0,
            "value": 0
          },
          {
            "number": 101,
            "ticks": 48000,
            "time": 294.1175,
            "value": 0
          },
          {
            "number": 101,
            "ticks": 48052,
            "time": 294.4361272916667,
            "value": 0
          }
        ]
      },
      "pitchBends": [
        {
          "ticks": 0,
          "time": 0,
          "value": 0
        },
        {
          "ticks": 0,
          "time": 0,
          "value": 0
        },
        {
          "ticks": 0,
          "time": 0,
          "value": 0
        },
        {
          "ticks": 0,
          "time": 0,
          "value": 0
        },
        {
          "ticks": 25824,
          "time": 158.235215,
          "value": 0
        },
        {
          "ticks": 48000,
          "time": 294.1175,
          "value": 0
        },
        {
          "ticks": 48051,
          "time": 294.42999984375,
          "value": 0
        },
        {
          "ticks": 48052,
          "time": 294.4361272916667,
          "value": 0
        }
      ],
      "instrument": {
        "family": "synth pad",
        "number": 91,
        "name": "pad 4 (choir)"
      },
      "name": "",
      "notes": [
        {
          "duration": 0.5882350000000001,
          "durationTicks": 96,
          "midi": 66,
          "name": "F#4",
          "ticks": 96,
          "time": 0.5882350000000001,
          "velocity": 0.7874015748031497
        },
        {
          "duration": 0.29411750000000003,
          "durationTicks": 48,
          "midi": 64,
          "name": "E4",
          "ticks": 192,
          "time": 1.1764700000000001,
          "velocity": 0.7874015748031497
        },
        {
          "duration": 0.8823525000000001,
          "durationTicks": 144,
          "midi": 66,
          "name": "F#4",
          "ticks": 240,
          "time": 1.4705875000000002,
          "velocity": 0.7874015748031497
        },
        {
          "duration": 0.5882350000000001,
          "durationTicks": 96,
          "midi": 66,
          "name": "F#4",
          "ticks": 480,
          "time": 2.9411750000000003,
          "velocity": 0.7874015748031497
        },
        {
          "duration": 0.29411750000000003,
          "durationTicks": 48,
          "midi": 64,
          "name": "E4",
          "ticks": 576,
          "time": 3.5294100000000004,
          "velocity": 0.7874015748031497
        },
        {
          "duration": 0.8823525000000001,
          "durationTicks": 144,
          "midi": 66,
          "name": "F#4",
          "ticks": 624,
          "time": 3.8235275000000004,
          "velocity": 0.7874015748031497
        },
        {
          "duration": 0.5882350000000001,
          "durationTicks": 96,
          "midi": 66,
          "name": "F#4",
          "ticks": 864,
          "time": 5.294115000000001,
          "velocity": 0.7874015748031497
        },
        {
          "duration": 0.2941175000000005,
          "durationTicks": 48,
          "midi": 67,
          "name": "G4",
          "ticks": 960,
          "time": 5.882350000000001,
          "velocity": 0.7874015748031497
        },
        {
          "duration": 0.8823524999999997,
          "durationTicks": 144,
          "midi": 67,
          "name": "G4",
          "ticks": 1008,
          "time": 6.176467500000001,
          "velocity": 0.7874015748031497
        },
        {
          "duration": 0.5882350000000001,
          "durationTicks": 96,
          "midi": 66,
          "name": "F#4",
          "ticks": 1152,
          "time": 7.058820000000001,
          "velocity": 0.7874015748031497
        },
        {
          "duration": 1.1764699999999992,
          "durationTicks": 192,
          "midi": 71,
          "name": "B4",
          "ticks": 1248,
          "time": 7.647055000000001,
          "velocity": 0.7874015748031497
        },
        {
          "duration": 1.176470000000002,
          "durationTicks": 192,
          "midi": 69,
          "name": "A4",
          "ticks": 1440,
          "time": 8.823525,
          "velocity": 0.7874015748031497
        },
        {
          "duration": 0.5882349999999992,
          "durationTicks": 96,
          "midi": 66,
          "name": "F#4",
          "ticks": 1632,
          "time": 9.999995000000002,
          "velocity": 0.7874015748031497
        },
        {
          "duration": 0.2941175000000005,
          "durationTicks": 48,
          "midi": 64,
          "name": "E4",
          "ticks": 1728,
          "time": 10.588230000000001,
          "velocity": 0.7874015748031497
        },
        {
          "duration": 0.8823524999999997,
          "durationTicks": 144,
          "midi": 66,
          "name": "F#4",
          "ticks": 1776,
          "time": 10.882347500000002,
          "velocity": 0.7874015748031497
        },
        {
          "duration": 0.5882349999999992,
          "durationTicks": 96,
          "midi": 66,
          "name": "F#4",
          "ticks": 2016,
          "time": 12.352935000000002,
          "velocity": 0.7874015748031497
        },
        {
          "duration": 0.2941175000000005,
          "durationTicks": 48,
          "midi": 64,
          "name": "E4",
          "ticks": 2112,
          "time": 12.941170000000001,
          "velocity": 0.7874015748031497
        },
        {
          "duration": 0.8823524999999997,
          "durationTicks": 144,
          "midi": 66,
          "name": "F#4",
          "ticks": 2160,
          "time": 13.235287500000002,
          "velocity": 0.7874015748031497
        },
        {
          "duration": 0.5882349999999992,
          "durationTicks": 96,
          "midi": 66,
          "name": "F#4",
          "ticks": 2400,
          "time": 14.705875000000002,
          "velocity": 0.7874015748031497
        },
        {
          "duration": 0.2941175000000005,
          "durationTicks": 48,
          "midi": 67,
          "name": "G4",
          "ticks": 2496,
          "time": 15.294110000000002,
          "velocity": 0.7874015748031497
        },
        {
          "duration": 0.8823524999999997,
          "durationTicks": 144,
          "midi": 67,
          "name": "G4",
          "ticks": 2544,
          "time": 15.588227500000002,
          "velocity": 0.7874015748031497
        },
        {
          "duration": 0.588235000000001,
          "durationTicks": 96,
          "midi": 66,
          "name": "F#4",
          "ticks": 2688,
          "time": 16.47058,
          "velocity": 0.7874015748031497
        },
        {
          "duration": 1.1764699999999984,
          "durationTicks": 192,
          "midi": 71,
          "name": "B4",
          "ticks": 2784,
          "time": 17.058815000000003,
          "velocity": 0.7874015748031497
        },
        {
          "duration": 1.176470000000002,
          "durationTicks": 192,
          "midi": 73,
          "name": "C#5",
          "ticks": 2976,
          "time": 18.235285,
          "velocity": 0.7874015748031497
        },
        {
          "duration": 4.7058800000000005,
          "durationTicks": 768,
          "midi": 71,
          "name": "B4",
          "ticks": 3168,
          "time": 19.411755000000003,
          "velocity": 0.7874015748031497
        },
        {
          "duration": 0.2941175000000058,
          "durationTicks": 48,
          "midi": 59,
          "name": "B3",
          "ticks": 5472,
          "time": 33.529395,
          "velocity": 0.7874015748031497
        },
        {
          "duration": 0.2941175000000058,
          "durationTicks": 48,
          "midi": 54,
          "name": "F#3",
          "ticks": 5472,
          "time": 33.529395,
          "velocity": 0.7874015748031497
        },
        {
          "duration": 0.2941174999999987,
          "durationTicks": 48,
          "midi": 57,
          "name": "A3",
          "ticks": 5856,
          "time": 35.882335000000005,
          "velocity": 0.7874015748031497
        },
        {
          "duration": 0.2941174999999987,
          "durationTicks": 48,
          "midi": 61,
          "name": "C#4",
          "ticks": 5856,
          "time": 35.882335000000005,
          "velocity": 0.7874015748031497
        },
        {
          "duration": 0.2941175000000058,
          "durationTicks": 48,
          "midi": 59,
          "name": "B3",
          "ticks": 6240,
          "time": 38.235275,
          "velocity": 0.7874015748031497
        },
        {
          "duration": 0.2941175000000058,
          "durationTicks": 48,
          "midi": 62,
          "name": "D4",
          "ticks": 6240,
          "time": 38.235275,
          "velocity": 0.7874015748031497
        },
        {
          "duration": 0.2941174999999987,
          "durationTicks": 48,
          "midi": 59,
          "name": "B3",
          "ticks": 6624,
          "time": 40.588215000000005,
          "velocity": 0.7874015748031497
        },
        {
          "duration": 0.2941174999999987,
          "durationTicks": 48,
          "midi": 64,
          "name": "E4",
          "ticks": 6624,
          "time": 40.588215000000005,
          "velocity": 0.7874015748031497
        },
        {
          "duration": 0.2941175000000058,
          "durationTicks": 48,
          "midi": 54,
          "name": "F#3",
          "ticks": 7008,
          "time": 42.941155,
          "velocity": 0.7874015748031497
        },
        {
          "duration": 0.2941175000000058,
          "durationTicks": 48,
          "midi": 59,
          "name": "B3",
          "ticks": 7008,
          "time": 42.941155,
          "velocity": 0.7874015748031497
        },
        {
          "duration": 0.2941174999999987,
          "durationTicks": 48,
          "midi": 57,
          "name": "A3",
          "ticks": 7392,
          "time": 45.294095000000006,
          "velocity": 0.7874015748031497
        },
        {
          "duration": 0.2941174999999987,
          "durationTicks": 48,
          "midi": 61,
          "name": "C#4",
          "ticks": 7392,
          "time": 45.294095000000006,
          "velocity": 0.7874015748031497
        },
        {
          "duration": 0.2941175000000058,
          "durationTicks": 48,
          "midi": 59,
          "name": "B3",
          "ticks": 7776,
          "time": 47.647035,
          "velocity": 0.7874015748031497
        },
        {
          "duration": 0.2941175000000058,
          "durationTicks": 48,
          "midi": 62,
          "name": "D4",
          "ticks": 7776,
          "time": 47.647035,
          "velocity": 0.7874015748031497
        },
        {
          "duration": 1.1764699999999948,
          "durationTicks": 192,
          "midi": 81,
          "name": "A5",
          "ticks": 11616,
          "time": 71.17643500000001,
          "velocity": 0.7874015748031497
        },
        {
          "duration": 0.5882349999999974,
          "durationTicks": 96,
          "midi": 79,
          "name": "G5",
          "ticks": 11808,
          "time": 72.352905,
          "velocity": 0.7874015748031497
        },
        {
          "duration": 0.5882349999999974,
          "durationTicks": 96,
          "midi": 82,
          "name": "A#5",
          "ticks": 11904,
          "time": 72.94114,
          "velocity": 0.7874015748031497
        },
        {
          "duration": 1.176470000000009,
          "durationTicks": 192,
          "midi": 81,
          "name": "A5",
          "ticks": 12000,
          "time": 73.529375,
          "velocity": 0.7874015748031497
        },
        {
          "duration": 0.8823524999999961,
          "durationTicks": 144,
          "midi": 79,
          "name": "G5",
          "ticks": 12192,
          "time": 74.70584500000001,
          "velocity": 0.7874015748031497
        },
        {
          "duration": 0.2941174999999987,
          "durationTicks": 48,
          "midi": 76,
          "name": "E5",
          "ticks": 12336,
          "time": 75.5881975,
          "velocity": 0.7874015748031497
        },
        {
          "duration": 1.7647050000000064,
          "durationTicks": 288,
          "midi": 77,
          "name": "F5",
          "ticks": 12384,
          "time": 75.882315,
          "velocity": 0.7874015748031497
        },
        {
          "duration": 0.5882349999999974,
          "durationTicks": 96,
          "midi": 72,
          "name": "C5",
          "ticks": 12672,
          "time": 77.64702000000001,
          "velocity": 0.7874015748031497
        },
        {
          "duration": 2.352940000000004,
          "durationTicks": 384,
          "midi": 74,
          "name": "D5",
          "ticks": 12768,
          "time": 78.23525500000001,
          "velocity": 0.7874015748031497
        },
        {
          "duration": 0.14705874999999935,
          "durationTicks": 24,
          "midi": 52,
          "name": "E3",
          "ticks": 13152,
          "time": 80.58819500000001,
          "velocity": 0.7874015748031497
        },
        {
          "duration": 0.14705874999999935,
          "durationTicks": 24,
          "midi": 57,
          "name": "A3",
          "ticks": 13152,
          "time": 80.58819500000001,
          "velocity": 0.7874015748031497
        },
        {
          "duration": 0.14705874999999935,
          "durationTicks": 24,
          "midi": 57,
          "name": "A3",
          "ticks": 13224,
          "time": 81.02937125000001,
          "velocity": 0.7874015748031497
        },
        {
          "duration": 0.14705874999999935,
          "durationTicks": 24,
          "midi": 52,
          "name": "E3",
          "ticks": 13224,
          "time": 81.02937125000001,
          "velocity": 0.7874015748031497
        },
        {
          "duration": 0.14705874999999935,
          "durationTicks": 24,
          "midi": 57,
          "name": "A3",
          "ticks": 13296,
          "time": 81.47054750000001,
          "velocity": 0.7874015748031497
        },
        {
          "duration": 0.14705874999999935,
          "durationTicks": 24,
          "midi": 52,
          "name": "E3",
          "ticks": 13296,
          "time": 81.47054750000001,
          "velocity": 0.7874015748031497
        },
        {
          "duration": 0.14705874999999935,
          "durationTicks": 24,
          "midi": 57,
          "name": "A3",
          "ticks": 13368,
          "time": 81.91172375000001,
          "velocity": 0.7874015748031497
        },
        {
          "duration": 0.14705874999999935,
          "durationTicks": 24,
          "midi": 52,
          "name": "E3",
          "ticks": 13368,
          "time": 81.91172375000001,
          "velocity": 0.7874015748031497
        },
        {
          "duration": 0.14705874999999935,
          "durationTicks": 24,
          "midi": 52,
          "name": "E3",
          "ticks": 13536,
          "time": 82.941135,
          "velocity": 0.7874015748031497
        },
        {
          "duration": 0.14705874999999935,
          "durationTicks": 24,
          "midi": 57,
          "name": "A3",
          "ticks": 13536,
          "time": 82.941135,
          "velocity": 0.7874015748031497
        },
        {
          "duration": 0.14705874999999935,
          "durationTicks": 24,
          "midi": 52,
          "name": "E3",
          "ticks": 13608,
          "time": 83.38231125000001,
          "velocity": 0.7874015748031497
        },
        {
          "duration": 0.14705874999999935,
          "durationTicks": 24,
          "midi": 57,
          "name": "A3",
          "ticks": 13608,
          "time": 83.38231125000001,
          "velocity": 0.7874015748031497
        },
        {
          "duration": 0.14705874999999935,
          "durationTicks": 24,
          "midi": 52,
          "name": "E3",
          "ticks": 13680,
          "time": 83.82348750000001,
          "velocity": 0.7874015748031497
        },
        {
          "duration": 0.14705874999999935,
          "durationTicks": 24,
          "midi": 57,
          "name": "A3",
          "ticks": 13680,
          "time": 83.82348750000001,
          "velocity": 0.7874015748031497
        },
        {
          "duration": 0.14705874999999935,
          "durationTicks": 24,
          "midi": 57,
          "name": "A3",
          "ticks": 13752,
          "time": 84.26466375000001,
          "velocity": 0.7874015748031497
        },
        {
          "duration": 0.14705874999999935,
          "durationTicks": 24,
          "midi": 52,
          "name": "E3",
          "ticks": 13752,
          "time": 84.26466375000001,
          "velocity": 0.7874015748031497
        },
        {
          "duration": 0.44117624999999805,
          "durationTicks": 72,
          "midi": 81,
          "name": "A5",
          "ticks": 13920,
          "time": 85.294075,
          "velocity": 0.7874015748031497
        },
        {
          "duration": 0.44117624999999805,
          "durationTicks": 72,
          "midi": 79,
          "name": "G5",
          "ticks": 14112,
          "time": 86.47054500000002,
          "velocity": 0.7874015748031497
        },
        {
          "duration": 0.44117624999999805,
          "durationTicks": 72,
          "midi": 82,
          "name": "A#5",
          "ticks": 14208,
          "time": 87.05878000000001,
          "velocity": 0.7874015748031497
        },
        {
          "duration": 0.44117624999999805,
          "durationTicks": 72,
          "midi": 77,
          "name": "F5",
          "ticks": 14304,
          "time": 87.64701500000001,
          "velocity": 0.7874015748031497
        },
        {
          "duration": 0.44117624999999805,
          "durationTicks": 72,
          "midi": 76,
          "name": "E5",
          "ticks": 14496,
          "time": 88.823485,
          "velocity": 0.7874015748031497
        },
        {
          "duration": 0.44117624999999805,
          "durationTicks": 72,
          "midi": 81,
          "name": "A5",
          "ticks": 15456,
          "time": 94.70583500000001,
          "velocity": 0.7874015748031497
        },
        {
          "duration": 0.44117624999999805,
          "durationTicks": 72,
          "midi": 79,
          "name": "G5",
          "ticks": 15648,
          "time": 95.88230500000002,
          "velocity": 0.7874015748031497
        },
        {
          "duration": 0.44117624999999805,
          "durationTicks": 72,
          "midi": 82,
          "name": "A#5",
          "ticks": 15744,
          "time": 96.47054000000001,
          "velocity": 0.7874015748031497
        },
        {
          "duration": 0.44117624999999805,
          "durationTicks": 72,
          "midi": 82,
          "name": "A#5",
          "ticks": 15840,
          "time": 97.05877500000001,
          "velocity": 0.7874015748031497
        },
        {
          "duration": 0.44117624999999805,
          "durationTicks": 72,
          "midi": 81,
          "name": "A5",
          "ticks": 16032,
          "time": 98.235245,
          "velocity": 0.7874015748031497
        },
        {
          "duration": 0.2941174999999987,
          "durationTicks": 48,
          "midi": 74,
          "name": "D5",
          "ticks": 16944,
          "time": 103.82347750000001,
          "velocity": 0.7874015748031497
        },
        {
          "duration": 0.2941174999999987,
          "durationTicks": 48,
          "midi": 74,
          "name": "D5",
          "ticks": 16992,
          "time": 104.11759500000001,
          "velocity": 0.7874015748031497
        },
        {
          "duration": 0.2941174999999987,
          "durationTicks": 48,
          "midi": 72,
          "name": "C5",
          "ticks": 17040,
          "time": 104.41171250000001,
          "velocity": 0.7874015748031497
        },
        {
          "duration": 0.2941174999999987,
          "durationTicks": 48,
          "midi": 70,
          "name": "A#4",
          "ticks": 17088,
          "time": 104.70583,
          "velocity": 0.7874015748031497
        },
        {
          "duration": 0.2941175000000129,
          "durationTicks": 48,
          "midi": 74,
          "name": "D5",
          "ticks": 17136,
          "time": 104.9999475,
          "velocity": 0.7874015748031497
        },
        {
          "duration": 0.2941174999999987,
          "durationTicks": 48,
          "midi": 74,
          "name": "D5",
          "ticks": 17328,
          "time": 106.17641750000001,
          "velocity": 0.7874015748031497
        },
        {
          "duration": 0.2941174999999987,
          "durationTicks": 48,
          "midi": 74,
          "name": "D5",
          "ticks": 17376,
          "time": 106.47053500000001,
          "velocity": 0.7874015748031497
        },
        {
          "duration": 0.2941174999999987,
          "durationTicks": 48,
          "midi": 72,
          "name": "C5",
          "ticks": 17424,
          "time": 106.76465250000001,
          "velocity": 0.7874015748031497
        },
        {
          "duration": 0.2941174999999987,
          "durationTicks": 48,
          "midi": 70,
          "name": "A#4",
          "ticks": 17472,
          "time": 107.05877000000001,
          "velocity": 0.7874015748031497
        },
        {
          "duration": 0.2941174999999987,
          "durationTicks": 48,
          "midi": 74,
          "name": "D5",
          "ticks": 17520,
          "time": 107.35288750000001,
          "velocity": 0.7874015748031497
        },
        {
          "duration": 0.2941174999999987,
          "durationTicks": 48,
          "midi": 74,
          "name": "D5",
          "ticks": 17712,
          "time": 108.52935750000002,
          "velocity": 0.7874015748031497
        },
        {
          "duration": 0.2941174999999987,
          "durationTicks": 48,
          "midi": 74,
          "name": "D5",
          "ticks": 17760,
          "time": 108.82347500000002,
          "velocity": 0.7874015748031497
        },
        {
          "duration": 0.2941174999999987,
          "durationTicks": 48,
          "midi": 75,
          "name": "D#5",
          "ticks": 17808,
          "time": 109.11759250000001,
          "velocity": 0.7874015748031497
        },
        {
          "duration": 0.2941174999999987,
          "durationTicks": 48,
          "midi": 70,
          "name": "A#4",
          "ticks": 17856,
          "time": 109.41171000000001,
          "velocity": 0.7874015748031497
        },
        {
          "duration": 0.2941174999999987,
          "durationTicks": 48,
          "midi": 70,
          "name": "A#4",
          "ticks": 17904,
          "time": 109.70582750000001,
          "velocity": 0.7874015748031497
        },
        {
          "duration": 0.2941174999999987,
          "durationTicks": 48,
          "midi": 72,
          "name": "C5",
          "ticks": 18000,
          "time": 110.29406250000001,
          "velocity": 0.7874015748031497
        },
        {
          "duration": 1.176470000000009,
          "durationTicks": 192,
          "midi": 82,
          "name": "A#5",
          "ticks": 18096,
          "time": 110.8822975,
          "velocity": 0.7874015748031497
        },
        {
          "duration": 1.1764699999999948,
          "durationTicks": 192,
          "midi": 81,
          "name": "A5",
          "ticks": 18288,
          "time": 112.05876750000002,
          "velocity": 0.7874015748031497
        },
        {
          "duration": 0.2941174999999987,
          "durationTicks": 48,
          "midi": 74,
          "name": "D5",
          "ticks": 18480,
          "time": 113.23523750000001,
          "velocity": 0.7874015748031497
        },
        {
          "duration": 0.2941174999999987,
          "durationTicks": 48,
          "midi": 74,
          "name": "D5",
          "ticks": 18528,
          "time": 113.52935500000001,
          "velocity": 0.7874015748031497
        },
        {
          "duration": 0.2941174999999987,
          "durationTicks": 48,
          "midi": 72,
          "name": "C5",
          "ticks": 18576,
          "time": 113.82347250000001,
          "velocity": 0.7874015748031497
        },
        {
          "duration": 0.2941174999999987,
          "durationTicks": 48,
          "midi": 70,
          "name": "A#4",
          "ticks": 18624,
          "time": 114.11759,
          "velocity": 0.7874015748031497
        },
        {
          "duration": 0.2941175000000129,
          "durationTicks": 48,
          "midi": 74,
          "name": "D5",
          "ticks": 18672,
          "time": 114.4117075,
          "velocity": 0.7874015748031497
        },
        {
          "duration": 0.2941174999999987,
          "durationTicks": 48,
          "midi": 76,
          "name": "E5",
          "ticks": 18864,
          "time": 115.58817750000001,
          "velocity": 0.7874015748031497
        },
        {
          "duration": 0.2941174999999987,
          "durationTicks": 48,
          "midi": 77,
          "name": "F5",
          "ticks": 18912,
          "time": 115.88229500000001,
          "velocity": 0.7874015748031497
        },
        {
          "duration": 0.2941174999999987,
          "durationTicks": 48,
          "midi": 76,
          "name": "E5",
          "ticks": 18960,
          "time": 116.17641250000001,
          "velocity": 0.7874015748031497
        },
        {
          "duration": 0.2941174999999987,
          "durationTicks": 48,
          "midi": 70,
          "name": "A#4",
          "ticks": 19008,
          "time": 116.47053000000001,
          "velocity": 0.7874015748031497
        },
        {
          "duration": 0.2941174999999987,
          "durationTicks": 48,
          "midi": 74,
          "name": "D5",
          "ticks": 19056,
          "time": 116.76464750000001,
          "velocity": 0.7874015748031497
        },
        {
          "duration": 0.2941174999999987,
          "durationTicks": 48,
          "midi": 76,
          "name": "E5",
          "ticks": 19248,
          "time": 117.94111750000002,
          "velocity": 0.7874015748031497
        },
        {
          "duration": 0.2941174999999987,
          "durationTicks": 48,
          "midi": 79,
          "name": "G5",
          "ticks": 19296,
          "time": 118.23523500000002,
          "velocity": 0.7874015748031497
        },
        {
          "duration": 0.2941174999999987,
          "durationTicks": 48,
          "midi": 79,
          "name": "G5",
          "ticks": 19344,
          "time": 118.52935250000002,
          "velocity": 0.7874015748031497
        },
        {
          "duration": 0.2941174999999987,
          "durationTicks": 48,
          "midi": 79,
          "name": "G5",
          "ticks": 19392,
          "time": 118.82347000000001,
          "velocity": 0.7874015748031497
        },
        {
          "duration": 0.5882349999999974,
          "durationTicks": 96,
          "midi": 79,
          "name": "G5",
          "ticks": 19440,
          "time": 119.11758750000001,
          "velocity": 0.7874015748031497
        },
        {
          "duration": 0.5882349999999974,
          "durationTicks": 96,
          "midi": 77,
          "name": "F5",
          "ticks": 19536,
          "time": 119.70582250000001,
          "velocity": 0.7874015748031497
        },
        {
          "duration": 2.352940000000004,
          "durationTicks": 384,
          "midi": 79,
          "name": "G5",
          "ticks": 19632,
          "time": 120.29405750000001,
          "velocity": 0.7874015748031497
        },
        {
          "duration": 0.2941174999999987,
          "durationTicks": 48,
          "midi": 74,
          "name": "D5",
          "ticks": 21072,
          "time": 129.11758250000003,
          "velocity": 0.7874015748031497
        },
        {
          "duration": 0.2941174999999987,
          "durationTicks": 48,
          "midi": 74,
          "name": "D5",
          "ticks": 21120,
          "time": 129.41170000000002,
          "velocity": 0.7874015748031497
        },
        {
          "duration": 0.2941174999999987,
          "durationTicks": 48,
          "midi": 74,
          "name": "D5",
          "ticks": 21168,
          "time": 129.70581750000002,
          "velocity": 0.7874015748031497
        },
        {
          "duration": 0.44117624999998384,
          "durationTicks": 72,
          "midi": 79,
          "name": "G5",
          "ticks": 21216,
          "time": 129.99993500000002,
          "velocity": 0.7874015748031497
        },
        {
          "duration": 0.44117625000001226,
          "durationTicks": 72,
          "midi": 79,
          "name": "G5",
          "ticks": 21288,
          "time": 130.44111125,
          "velocity": 0.7874015748031497
        },
        {
          "duration": 1.4705874999999935,
          "durationTicks": 240,
          "midi": 82,
          "name": "A#5",
          "ticks": 21360,
          "time": 130.88228750000002,
          "velocity": 0.7874015748031497
        },
        {
          "duration": 2.3529399999999896,
          "durationTicks": 384,
          "midi": 81,
          "name": "A5",
          "ticks": 21600,
          "time": 132.352875,
          "velocity": 0.7874015748031497
        },
        {
          "duration": 2.352940000000018,
          "durationTicks": 384,
          "midi": 79,
          "name": "G5",
          "ticks": 21984,
          "time": 134.705815,
          "velocity": 0.7874015748031497
        },
        {
          "duration": 0.2941174999999987,
          "durationTicks": 48,
          "midi": 79,
          "name": "G5",
          "ticks": 22800,
          "time": 139.7058125,
          "velocity": 0.7874015748031497
        },
        {
          "duration": 0.2941174999999987,
          "durationTicks": 48,
          "midi": 79,
          "name": "G5",
          "ticks": 22848,
          "time": 139.99993,
          "velocity": 0.7874015748031497
        },
        {
          "duration": 0.2941174999999987,
          "durationTicks": 48,
          "midi": 79,
          "name": "G5",
          "ticks": 22896,
          "time": 140.2940475,
          "velocity": 0.7874015748031497
        },
        {
          "duration": 0.5882349999999974,
          "durationTicks": 96,
          "midi": 79,
          "name": "G5",
          "ticks": 22944,
          "time": 140.588165,
          "velocity": 0.7874015748031497
        },
        {
          "duration": 0.5882350000000258,
          "durationTicks": 96,
          "midi": 79,
          "name": "G5",
          "ticks": 23040,
          "time": 141.1764,
          "velocity": 0.7874015748031497
        },
        {
          "duration": 2.3529399999999896,
          "durationTicks": 384,
          "midi": 82,
          "name": "A#5",
          "ticks": 23136,
          "time": 141.76463500000003,
          "velocity": 0.7874015748031497
        },
        {
          "duration": 1.7647049999999922,
          "durationTicks": 288,
          "midi": 81,
          "name": "A5",
          "ticks": 23520,
          "time": 144.11757500000002,
          "velocity": 0.7874015748031497
        },
        {
          "duration": 0.5882349999999974,
          "durationTicks": 96,
          "midi": 82,
          "name": "A#5",
          "ticks": 23808,
          "time": 145.88228,
          "velocity": 0.7874015748031497
        },
        {
          "duration": 2.499998750000003,
          "durationTicks": 408,
          "midi": 79,
          "name": "G5",
          "ticks": 23904,
          "time": 146.470515,
          "velocity": 0.7874015748031497
        },
        {
          "duration": 0.2941174999999987,
          "durationTicks": 48,
          "midi": 83,
          "name": "B5",
          "ticks": 24672,
          "time": 151.176395,
          "velocity": 0.7874015748031497
        },
        {
          "duration": 0.2941174999999987,
          "durationTicks": 48,
          "midi": 83,
          "name": "B5",
          "ticks": 24960,
          "time": 152.9411,
          "velocity": 0.7874015748031497
        },
        {
          "duration": 0.2941174999999987,
          "durationTicks": 48,
          "midi": 85,
          "name": "C#6",
          "ticks": 25008,
          "time": 153.2352175,
          "velocity": 0.7874015748031497
        },
        {
          "duration": 0.2941175000000271,
          "durationTicks": 48,
          "midi": 86,
          "name": "D6",
          "ticks": 25056,
          "time": 153.529335,
          "velocity": 0.7874015748031497
        },
        {
          "duration": 0.2941174999999987,
          "durationTicks": 48,
          "midi": 85,
          "name": "C#6",
          "ticks": 25200,
          "time": 154.41168750000003,
          "velocity": 0.7874015748031497
        },
        {
          "duration": 0.2941174999999987,
          "durationTicks": 48,
          "midi": 81,
          "name": "A5",
          "ticks": 25344,
          "time": 155.29404000000002,
          "velocity": 0.7874015748031497
        },
        {
          "duration": 0.2941174999999987,
          "durationTicks": 48,
          "midi": 90,
          "name": "F#6",
          "ticks": 25440,
          "time": 155.88227500000002,
          "velocity": 0.7874015748031497
        },
        {
          "duration": 0.2941174999999987,
          "durationTicks": 48,
          "midi": 59,
          "name": "B3",
          "ticks": 26208,
          "time": 160.58815500000003,
          "velocity": 0.7874015748031497
        },
        {
          "duration": 0.2941174999999987,
          "durationTicks": 48,
          "midi": 54,
          "name": "F#3",
          "ticks": 26208,
          "time": 160.58815500000003,
          "velocity": 0.7874015748031497
        },
        {
          "duration": 0.2941174999999987,
          "durationTicks": 48,
          "midi": 57,
          "name": "A3",
          "ticks": 26592,
          "time": 162.94109500000002,
          "velocity": 0.7874015748031497
        },
        {
          "duration": 0.2941174999999987,
          "durationTicks": 48,
          "midi": 61,
          "name": "C#4",
          "ticks": 26592,
          "time": 162.94109500000002,
          "velocity": 0.7874015748031497
        },
        {
          "duration": 0.2941174999999987,
          "durationTicks": 48,
          "midi": 59,
          "name": "B3",
          "ticks": 26976,
          "time": 165.294035,
          "velocity": 0.7874015748031497
        },
        {
          "duration": 0.2941174999999987,
          "durationTicks": 48,
          "midi": 62,
          "name": "D4",
          "ticks": 26976,
          "time": 165.294035,
          "velocity": 0.7874015748031497
        },
        {
          "duration": 0.2941174999999987,
          "durationTicks": 48,
          "midi": 59,
          "name": "B3",
          "ticks": 27360,
          "time": 167.64697500000003,
          "velocity": 0.7874015748031497
        },
        {
          "duration": 0.2941174999999987,
          "durationTicks": 48,
          "midi": 64,
          "name": "E4",
          "ticks": 27360,
          "time": 167.64697500000003,
          "velocity": 0.7874015748031497
        },
        {
          "duration": 0.2941174999999987,
          "durationTicks": 48,
          "midi": 54,
          "name": "F#3",
          "ticks": 27744,
          "time": 169.99991500000002,
          "velocity": 0.7874015748031497
        },
        {
          "duration": 0.2941174999999987,
          "durationTicks": 48,
          "midi": 59,
          "name": "B3",
          "ticks": 27744,
          "time": 169.99991500000002,
          "velocity": 0.7874015748031497
        },
        {
          "duration": 0.2941175000000271,
          "durationTicks": 48,
          "midi": 57,
          "name": "A3",
          "ticks": 28128,
          "time": 172.352855,
          "velocity": 0.7874015748031497
        },
        {
          "duration": 0.2941175000000271,
          "durationTicks": 48,
          "midi": 61,
          "name": "C#4",
          "ticks": 28128,
          "time": 172.352855,
          "velocity": 0.7874015748031497
        },
        {
          "duration": 0.2941174999999987,
          "durationTicks": 48,
          "midi": 59,
          "name": "B3",
          "ticks": 28512,
          "time": 174.70579500000002,
          "velocity": 0.7874015748031497
        },
        {
          "duration": 0.2941174999999987,
          "durationTicks": 48,
          "midi": 62,
          "name": "D4",
          "ticks": 28512,
          "time": 174.70579500000002,
          "velocity": 0.7874015748031497
        },
        {
          "duration": 1.1764699999999948,
          "durationTicks": 192,
          "midi": 81,
          "name": "A5",
          "ticks": 32352,
          "time": 198.23519500000003,
          "velocity": 0.7874015748031497
        },
        {
          "duration": 0.5882349999999974,
          "durationTicks": 96,
          "midi": 79,
          "name": "G5",
          "ticks": 32544,
          "time": 199.41166500000003,
          "velocity": 0.7874015748031497
        },
        {
          "duration": 0.5882349999999974,
          "durationTicks": 96,
          "midi": 82,
          "name": "A#5",
          "ticks": 32640,
          "time": 199.99990000000003,
          "velocity": 0.7874015748031497
        },
        {
          "duration": 1.1764699999999948,
          "durationTicks": 192,
          "midi": 81,
          "name": "A5",
          "ticks": 32736,
          "time": 200.58813500000002,
          "velocity": 0.7874015748031497
        },
        {
          "duration": 0.8823524999999961,
          "durationTicks": 144,
          "midi": 79,
          "name": "G5",
          "ticks": 32928,
          "time": 201.76460500000002,
          "velocity": 0.7874015748031497
        },
        {
          "duration": 0.2941174999999987,
          "durationTicks": 48,
          "midi": 76,
          "name": "E5",
          "ticks": 33072,
          "time": 202.6469575,
          "velocity": 0.7874015748031497
        },
        {
          "duration": 1.7647050000000206,
          "durationTicks": 288,
          "midi": 77,
          "name": "F5",
          "ticks": 33120,
          "time": 202.941075,
          "velocity": 0.7874015748031497
        },
        {
          "duration": 0.5882349999999974,
          "durationTicks": 96,
          "midi": 72,
          "name": "C5",
          "ticks": 33408,
          "time": 204.70578000000003,
          "velocity": 0.7874015748031497
        },
        {
          "duration": 2.3529399999999896,
          "durationTicks": 384,
          "midi": 74,
          "name": "D5",
          "ticks": 33504,
          "time": 205.29401500000003,
          "velocity": 0.7874015748031497
        },
        {
          "duration": 0.14705875000001356,
          "durationTicks": 24,
          "midi": 52,
          "name": "E3",
          "ticks": 33888,
          "time": 207.64695500000002,
          "velocity": 0.7874015748031497
        },
        {
          "duration": 0.14705875000001356,
          "durationTicks": 24,
          "midi": 57,
          "name": "A3",
          "ticks": 33888,
          "time": 207.64695500000002,
          "velocity": 0.7874015748031497
        },
        {
          "duration": 0.14705874999998514,
          "durationTicks": 24,
          "midi": 57,
          "name": "A3",
          "ticks": 33960,
          "time": 208.08813125000003,
          "velocity": 0.7874015748031497
        },
        {
          "duration": 0.14705874999998514,
          "durationTicks": 24,
          "midi": 52,
          "name": "E3",
          "ticks": 33960,
          "time": 208.08813125000003,
          "velocity": 0.7874015748031497
        },
        {
          "duration": 0.14705875000001356,
          "durationTicks": 24,
          "midi": 57,
          "name": "A3",
          "ticks": 34032,
          "time": 208.52930750000002,
          "velocity": 0.7874015748031497
        },
        {
          "duration": 0.14705875000001356,
          "durationTicks": 24,
          "midi": 52,
          "name": "E3",
          "ticks": 34032,
          "time": 208.52930750000002,
          "velocity": 0.7874015748031497
        },
        {
          "duration": 0.14705874999998514,
          "durationTicks": 24,
          "midi": 57,
          "name": "A3",
          "ticks": 34104,
          "time": 208.97048375000003,
          "velocity": 0.7874015748031497
        },
        {
          "duration": 0.14705874999998514,
          "durationTicks": 24,
          "midi": 52,
          "name": "E3",
          "ticks": 34104,
          "time": 208.97048375000003,
          "velocity": 0.7874015748031497
        },
        {
          "duration": 0.14705875000001356,
          "durationTicks": 24,
          "midi": 52,
          "name": "E3",
          "ticks": 34272,
          "time": 209.999895,
          "velocity": 0.7874015748031497
        },
        {
          "duration": 0.14705875000001356,
          "durationTicks": 24,
          "midi": 57,
          "name": "A3",
          "ticks": 34272,
          "time": 209.999895,
          "velocity": 0.7874015748031497
        },
        {
          "duration": 0.14705875000001356,
          "durationTicks": 24,
          "midi": 52,
          "name": "E3",
          "ticks": 34344,
          "time": 210.44107125000002,
          "velocity": 0.7874015748031497
        },
        {
          "duration": 0.14705875000001356,
          "durationTicks": 24,
          "midi": 57,
          "name": "A3",
          "ticks": 34344,
          "time": 210.44107125000002,
          "velocity": 0.7874015748031497
        },
        {
          "duration": 0.14705874999998514,
          "durationTicks": 24,
          "midi": 52,
          "name": "E3",
          "ticks": 34416,
          "time": 210.88224750000003,
          "velocity": 0.7874015748031497
        },
        {
          "duration": 0.14705874999998514,
          "durationTicks": 24,
          "midi": 57,
          "name": "A3",
          "ticks": 34416,
          "time": 210.88224750000003,
          "velocity": 0.7874015748031497
        },
        {
          "duration": 0.14705875000001356,
          "durationTicks": 24,
          "midi": 57,
          "name": "A3",
          "ticks": 34488,
          "time": 211.32342375000002,
          "velocity": 0.7874015748031497
        },
        {
          "duration": 0.14705875000001356,
          "durationTicks": 24,
          "midi": 52,
          "name": "E3",
          "ticks": 34488,
          "time": 211.32342375000002,
          "velocity": 0.7874015748031497
        },
        {
          "duration": 0.44117624999998384,
          "durationTicks": 72,
          "midi": 81,
          "name": "A5",
          "ticks": 34656,
          "time": 212.35283500000003,
          "velocity": 0.7874015748031497
        },
        {
          "duration": 0.44117625000001226,
          "durationTicks": 72,
          "midi": 79,
          "name": "G5",
          "ticks": 34848,
          "time": 213.52930500000002,
          "velocity": 0.7874015748031497
        },
        {
          "duration": 0.44117625000001226,
          "durationTicks": 72,
          "midi": 82,
          "name": "A#5",
          "ticks": 34944,
          "time": 214.11754000000002,
          "velocity": 0.7874015748031497
        },
        {
          "duration": 0.44117625000001226,
          "durationTicks": 72,
          "midi": 77,
          "name": "F5",
          "ticks": 35040,
          "time": 214.70577500000002,
          "velocity": 0.7874015748031497
        },
        {
          "duration": 0.44117625000001226,
          "durationTicks": 72,
          "midi": 76,
          "name": "E5",
          "ticks": 35232,
          "time": 215.882245,
          "velocity": 0.7874015748031497
        },
        {
          "duration": 0.44117625000001226,
          "durationTicks": 72,
          "midi": 81,
          "name": "A5",
          "ticks": 36192,
          "time": 221.764595,
          "velocity": 0.7874015748031497
        },
        {
          "duration": 0.44117624999998384,
          "durationTicks": 72,
          "midi": 79,
          "name": "G5",
          "ticks": 36384,
          "time": 222.94106500000004,
          "velocity": 0.7874015748031497
        },
        {
          "duration": 0.44117624999998384,
          "durationTicks": 72,
          "midi": 82,
          "name": "A#5",
          "ticks": 36480,
          "time": 223.52930000000003,
          "velocity": 0.7874015748031497
        },
        {
          "duration": 0.44117624999998384,
          "durationTicks": 72,
          "midi": 82,
          "name": "A#5",
          "ticks": 36576,
          "time": 224.11753500000003,
          "velocity": 0.7874015748031497
        },
        {
          "duration": 0.44117624999998384,
          "durationTicks": 72,
          "midi": 81,
          "name": "A5",
          "ticks": 36768,
          "time": 225.29400500000003,
          "velocity": 0.7874015748031497
        },
        {
          "duration": 0.2941174999999987,
          "durationTicks": 48,
          "midi": 74,
          "name": "D5",
          "ticks": 37680,
          "time": 230.88223750000003,
          "velocity": 0.7874015748031497
        },
        {
          "duration": 0.2941174999999987,
          "durationTicks": 48,
          "midi": 74,
          "name": "D5",
          "ticks": 37728,
          "time": 231.17635500000003,
          "velocity": 0.7874015748031497
        },
        {
          "duration": 0.2941174999999987,
          "durationTicks": 48,
          "midi": 72,
          "name": "C5",
          "ticks": 37776,
          "time": 231.47047250000003,
          "velocity": 0.7874015748031497
        },
        {
          "duration": 0.2941174999999987,
          "durationTicks": 48,
          "midi": 70,
          "name": "A#4",
          "ticks": 37824,
          "time": 231.76459000000003,
          "velocity": 0.7874015748031497
        },
        {
          "duration": 0.2941174999999987,
          "durationTicks": 48,
          "midi": 74,
          "name": "D5",
          "ticks": 37872,
          "time": 232.05870750000003,
          "velocity": 0.7874015748031497
        },
        {
          "duration": 0.2941174999999987,
          "durationTicks": 48,
          "midi": 74,
          "name": "D5",
          "ticks": 38064,
          "time": 233.23517750000002,
          "velocity": 0.7874015748031497
        },
        {
          "duration": 0.2941174999999987,
          "durationTicks": 48,
          "midi": 74,
          "name": "D5",
          "ticks": 38112,
          "time": 233.52929500000002,
          "velocity": 0.7874015748031497
        },
        {
          "duration": 0.2941174999999987,
          "durationTicks": 48,
          "midi": 72,
          "name": "C5",
          "ticks": 38160,
          "time": 233.82341250000002,
          "velocity": 0.7874015748031497
        },
        {
          "duration": 0.2941174999999987,
          "durationTicks": 48,
          "midi": 70,
          "name": "A#4",
          "ticks": 38208,
          "time": 234.11753000000002,
          "velocity": 0.7874015748031497
        },
        {
          "duration": 0.2941174999999987,
          "durationTicks": 48,
          "midi": 74,
          "name": "D5",
          "ticks": 38256,
          "time": 234.41164750000002,
          "velocity": 0.7874015748031497
        },
        {
          "duration": 0.2941174999999987,
          "durationTicks": 48,
          "midi": 74,
          "name": "D5",
          "ticks": 38448,
          "time": 235.58811750000004,
          "velocity": 0.7874015748031497
        },
        {
          "duration": 0.2941174999999987,
          "durationTicks": 48,
          "midi": 74,
          "name": "D5",
          "ticks": 38496,
          "time": 235.88223500000004,
          "velocity": 0.7874015748031497
        },
        {
          "duration": 0.2941174999999987,
          "durationTicks": 48,
          "midi": 75,
          "name": "D#5",
          "ticks": 38544,
          "time": 236.17635250000004,
          "velocity": 0.7874015748031497
        },
        {
          "duration": 0.2941174999999987,
          "durationTicks": 48,
          "midi": 70,
          "name": "A#4",
          "ticks": 38592,
          "time": 236.47047000000003,
          "velocity": 0.7874015748031497
        },
        {
          "duration": 0.2941174999999987,
          "durationTicks": 48,
          "midi": 70,
          "name": "A#4",
          "ticks": 38640,
          "time": 236.76458750000003,
          "velocity": 0.7874015748031497
        },
        {
          "duration": 0.2941174999999987,
          "durationTicks": 48,
          "midi": 72,
          "name": "C5",
          "ticks": 38736,
          "time": 237.35282250000003,
          "velocity": 0.7874015748031497
        },
        {
          "duration": 1.1764699999999948,
          "durationTicks": 192,
          "midi": 82,
          "name": "A#5",
          "ticks": 38832,
          "time": 237.94105750000003,
          "velocity": 0.7874015748031497
        },
        {
          "duration": 1.1764699999999948,
          "durationTicks": 192,
          "midi": 81,
          "name": "A5",
          "ticks": 39024,
          "time": 239.11752750000002,
          "velocity": 0.7874015748031497
        },
        {
          "duration": 0.2941174999999987,
          "durationTicks": 48,
          "midi": 74,
          "name": "D5",
          "ticks": 39216,
          "time": 240.29399750000002,
          "velocity": 0.7874015748031497
        },
        {
          "duration": 0.2941174999999987,
          "durationTicks": 48,
          "midi": 74,
          "name": "D5",
          "ticks": 39264,
          "time": 240.58811500000002,
          "velocity": 0.7874015748031497
        },
        {
          "duration": 0.2941174999999987,
          "durationTicks": 48,
          "midi": 72,
          "name": "C5",
          "ticks": 39312,
          "time": 240.88223250000001,
          "velocity": 0.7874015748031497
        },
        {
          "duration": 0.2941174999999987,
          "durationTicks": 48,
          "midi": 70,
          "name": "A#4",
          "ticks": 39360,
          "time": 241.17635,
          "velocity": 0.7874015748031497
        },
        {
          "duration": 0.2941175000000271,
          "durationTicks": 48,
          "midi": 74,
          "name": "D5",
          "ticks": 39408,
          "time": 241.4704675,
          "velocity": 0.7874015748031497
        },
        {
          "duration": 0.2941174999999987,
          "durationTicks": 48,
          "midi": 76,
          "name": "E5",
          "ticks": 39600,
          "time": 242.64693750000004,
          "velocity": 0.7874015748031497
        },
        {
          "duration": 0.2941174999999987,
          "durationTicks": 48,
          "midi": 77,
          "name": "F5",
          "ticks": 39648,
          "time": 242.94105500000003,
          "velocity": 0.7874015748031497
        },
        {
          "duration": 0.2941174999999987,
          "durationTicks": 48,
          "midi": 76,
          "name": "E5",
          "ticks": 39696,
          "time": 243.23517250000003,
          "velocity": 0.7874015748031497
        },
        {
          "duration": 0.2941174999999987,
          "durationTicks": 48,
          "midi": 70,
          "name": "A#4",
          "ticks": 39744,
          "time": 243.52929000000003,
          "velocity": 0.7874015748031497
        },
        {
          "duration": 0.2941174999999987,
          "durationTicks": 48,
          "midi": 74,
          "name": "D5",
          "ticks": 39792,
          "time": 243.82340750000003,
          "velocity": 0.7874015748031497
        },
        {
          "duration": 0.2941174999999987,
          "durationTicks": 48,
          "midi": 76,
          "name": "E5",
          "ticks": 39984,
          "time": 244.99987750000003,
          "velocity": 0.7874015748031497
        },
        {
          "duration": 0.2941174999999987,
          "durationTicks": 48,
          "midi": 79,
          "name": "G5",
          "ticks": 40032,
          "time": 245.29399500000002,
          "velocity": 0.7874015748031497
        },
        {
          "duration": 0.2941174999999987,
          "durationTicks": 48,
          "midi": 79,
          "name": "G5",
          "ticks": 40080,
          "time": 245.58811250000002,
          "velocity": 0.7874015748031497
        },
        {
          "duration": 0.2941174999999987,
          "durationTicks": 48,
          "midi": 79,
          "name": "G5",
          "ticks": 40128,
          "time": 245.88223000000002,
          "velocity": 0.7874015748031497
        },
        {
          "duration": 0.5882349999999974,
          "durationTicks": 96,
          "midi": 79,
          "name": "G5",
          "ticks": 40176,
          "time": 246.17634750000002,
          "velocity": 0.7874015748031497
        },
        {
          "duration": 0.5882349999999974,
          "durationTicks": 96,
          "midi": 77,
          "name": "F5",
          "ticks": 40272,
          "time": 246.76458250000002,
          "velocity": 0.7874015748031497
        },
        {
          "duration": 2.352940000000018,
          "durationTicks": 384,
          "midi": 79,
          "name": "G5",
          "ticks": 40368,
          "time": 247.35281750000001,
          "velocity": 0.7874015748031497
        },
        {
          "duration": 0.2941174999999703,
          "durationTicks": 48,
          "midi": 74,
          "name": "D5",
          "ticks": 41808,
          "time": 256.17634250000003,
          "velocity": 0.7874015748031497
        },
        {
          "duration": 0.2941175000000271,
          "durationTicks": 48,
          "midi": 74,
          "name": "D5",
          "ticks": 41856,
          "time": 256.47046,
          "velocity": 0.7874015748031497
        },
        {
          "duration": 0.2941174999999703,
          "durationTicks": 48,
          "midi": 74,
          "name": "D5",
          "ticks": 41904,
          "time": 256.76457750000003,
          "velocity": 0.7874015748031497
        },
        {
          "duration": 0.44117625000001226,
          "durationTicks": 72,
          "midi": 79,
          "name": "G5",
          "ticks": 41952,
          "time": 257.058695,
          "velocity": 0.7874015748031497
        },
        {
          "duration": 0.44117625000001226,
          "durationTicks": 72,
          "midi": 79,
          "name": "G5",
          "ticks": 42024,
          "time": 257.49987125,
          "velocity": 0.7874015748031497
        },
        {
          "duration": 1.470587500000022,
          "durationTicks": 240,
          "midi": 82,
          "name": "A#5",
          "ticks": 42096,
          "time": 257.9410475,
          "velocity": 0.7874015748031497
        },
        {
          "duration": 2.3529399999999896,
          "durationTicks": 384,
          "midi": 81,
          "name": "A5",
          "ticks": 42336,
          "time": 259.41163500000005,
          "velocity": 0.7874015748031497
        },
        {
          "duration": 2.3529399999999896,
          "durationTicks": 384,
          "midi": 79,
          "name": "G5",
          "ticks": 42720,
          "time": 261.76457500000004,
          "velocity": 0.7874015748031497
        },
        {
          "duration": 0.2941174999999703,
          "durationTicks": 48,
          "midi": 79,
          "name": "G5",
          "ticks": 43536,
          "time": 266.76457250000004,
          "velocity": 0.7874015748031497
        },
        {
          "duration": 0.2941175000000271,
          "durationTicks": 48,
          "midi": 79,
          "name": "G5",
          "ticks": 43584,
          "time": 267.05869,
          "velocity": 0.7874015748031497
        },
        {
          "duration": 0.2941174999999703,
          "durationTicks": 48,
          "midi": 79,
          "name": "G5",
          "ticks": 43632,
          "time": 267.35280750000004,
          "velocity": 0.7874015748031497
        },
        {
          "duration": 0.5882349999999974,
          "durationTicks": 96,
          "midi": 79,
          "name": "G5",
          "ticks": 43680,
          "time": 267.646925,
          "velocity": 0.7874015748031497
        },
        {
          "duration": 0.5882349999999974,
          "durationTicks": 96,
          "midi": 79,
          "name": "G5",
          "ticks": 43776,
          "time": 268.23516,
          "velocity": 0.7874015748031497
        },
        {
          "duration": 2.3529400000000464,
          "durationTicks": 384,
          "midi": 82,
          "name": "A#5",
          "ticks": 43872,
          "time": 268.823395,
          "velocity": 0.7874015748031497
        },
        {
          "duration": 1.7647049999999922,
          "durationTicks": 288,
          "midi": 81,
          "name": "A5",
          "ticks": 44256,
          "time": 271.17633500000005,
          "velocity": 0.7874015748031497
        },
        {
          "duration": 0.5882349999999974,
          "durationTicks": 96,
          "midi": 82,
          "name": "A#5",
          "ticks": 44544,
          "time": 272.94104000000004,
          "velocity": 0.7874015748031497
        },
        {
          "duration": 2.4999987499999747,
          "durationTicks": 408,
          "midi": 79,
          "name": "G5",
          "ticks": 44640,
          "time": 273.52927500000004,
          "velocity": 0.7874015748031497
        },
        {
          "duration": 0.2941175000000271,
          "durationTicks": 48,
          "midi": 83,
          "name": "B5",
          "ticks": 45408,
          "time": 278.235155,
          "velocity": 0.7874015748031497
        },
        {
          "duration": 0.2941175000000271,
          "durationTicks": 48,
          "midi": 83,
          "name": "B5",
          "ticks": 45696,
          "time": 279.99986,
          "velocity": 0.7874015748031497
        },
        {
          "duration": 0.2941174999999703,
          "durationTicks": 48,
          "midi": 85,
          "name": "C#6",
          "ticks": 45744,
          "time": 280.29397750000004,
          "velocity": 0.7874015748031497
        },
        {
          "duration": 0.2941175000000271,
          "durationTicks": 48,
          "midi": 86,
          "name": "D6",
          "ticks": 45792,
          "time": 280.588095,
          "velocity": 0.7874015748031497
        },
        {
          "duration": 0.2941174999999703,
          "durationTicks": 48,
          "midi": 85,
          "name": "C#6",
          "ticks": 45936,
          "time": 281.47044750000003,
          "velocity": 0.7874015748031497
        },
        {
          "duration": 0.2941175000000271,
          "durationTicks": 48,
          "midi": 81,
          "name": "A5",
          "ticks": 46080,
          "time": 282.3528,
          "velocity": 0.7874015748031497
        },
        {
          "duration": 0.2941174999999703,
          "durationTicks": 48,
          "midi": 90,
          "name": "F#6",
          "ticks": 46176,
          "time": 282.94103500000006,
          "velocity": 0.7874015748031497
        }
      ]
    },
    {
      "channel": 0,
      "controlChanges": {
        "6": [
          {
            "number": 6,
            "ticks": 0,
            "time": 0,
            "value": 0.09448818897637795
          }
        ],
        "7": [
          {
            "number": 7,
            "ticks": 0,
            "time": 0,
            "value": 0.6220472440944882
          },
          {
            "number": 7,
            "ticks": 0,
            "time": 0,
            "value": 0.6220472440944882
          }
        ],
        "10": [
          {
            "number": 10,
            "ticks": 0,
            "time": 0,
            "value": 0.5039370078740157
          },
          {
            "number": 10,
            "ticks": 0,
            "time": 0,
            "value": 0.5039370078740157
          }
        ],
        "100": [
          {
            "number": 100,
            "ticks": 0,
            "time": 0,
            "value": 0
          }
        ],
        "101": [
          {
            "number": 101,
            "ticks": 0,
            "time": 0,
            "value": 0
          }
        ]
      },
      "pitchBends": [
        {
          "ticks": 0,
          "time": 0,
          "value": 0
        },
        {
          "ticks": 0,
          "time": 0,
          "value": 0
        }
      ],
      "instrument": {
        "family": "piano",
        "number": 0,
        "name": "acoustic grand piano"
      },
      "name": "String Ensemble 1",
      "notes": [],
      "endOfTrackTicks": 48052
    },
    {
      "channel": 3,
      "controlChanges": {
        "1": [
          {
            "number": 1,
            "ticks": 0,
            "time": 0,
            "value": 0
          },
          {
            "number": 1,
            "ticks": 0,
            "time": 0,
            "value": 0
          },
          {
            "number": 1,
            "ticks": 0,
            "time": 0,
            "value": 0
          },
          {
            "number": 1,
            "ticks": 0,
            "time": 0,
            "value": 0
          },
          {
            "number": 1,
            "ticks": 0,
            "time": 0,
            "value": 0
          },
          {
            "number": 1,
            "ticks": 25824,
            "time": 158.235215,
            "value": 0
          },
          {
            "number": 1,
            "ticks": 48000,
            "time": 294.1175,
            "value": 0
          },
          {
            "number": 1,
            "ticks": 48051,
            "time": 294.42999984375,
            "value": 0
          },
          {
            "number": 1,
            "ticks": 48052,
            "time": 294.4361272916667,
            "value": 0
          }
        ],
        "6": [
          {
            "number": 6,
            "ticks": 0,
            "time": 0,
            "value": 0.09448818897637795
          },
          {
            "number": 6,
            "ticks": 0,
            "time": 0,
            "value": 0.09448818897637795
          },
          {
            "number": 6,
            "ticks": 48000,
            "time": 294.1175,
            "value": 0.09448818897637795
          },
          {
            "number": 6,
            "ticks": 48052,
            "time": 294.4361272916667,
            "value": 0.09448818897637795
          }
        ],
        "7": [
          {
            "number": 7,
            "ticks": 0,
            "time": 0,
            "value": 0.6220472440944882
          },
          {
            "number": 7,
            "ticks": 0,
            "time": 0,
            "value": 0.6220472440944882
          },
          {
            "number": 7,
            "ticks": 48000,
            "time": 294.1175,
            "value": 0.6220472440944882
          },
          {
            "number": 7,
            "ticks": 48052,
            "time": 294.4361272916667,
            "value": 0.6220472440944882
          }
        ],
        "10": [
          {
            "number": 10,
            "ticks": 0,
            "time": 0,
            "value": 0.5039370078740157
          },
          {
            "number": 10,
            "ticks": 0,
            "time": 0,
            "value": 0.5039370078740157
          },
          {
            "number": 10,
            "ticks": 0,
            "time": 0,
            "value": 0.5039370078740157
          },
          {
            "number": 10,
            "ticks": 0,
            "time": 0,
            "value": 0.5039370078740157
          },
          {
            "number": 10,
            "ticks": 25824,
            "time": 158.235215,
            "value": 0.5039370078740157
          },
          {
            "number": 10,
            "ticks": 48000,
            "time": 294.1175,
            "value": 0.5039370078740157
          },
          {
            "number": 10,
            "ticks": 48051,
            "time": 294.42999984375,
            "value": 0.5039370078740157
          },
          {
            "number": 10,
            "ticks": 48052,
            "time": 294.4361272916667,
            "value": 0.5039370078740157
          }
        ],
        "100": [
          {
            "number": 100,
            "ticks": 0,
            "time": 0,
            "value": 0
          },
          {
            "number": 100,
            "ticks": 0,
            "time": 0,
            "value": 0
          },
          {
            "number": 100,
            "ticks": 48000,
            "time": 294.1175,
            "value": 0
          },
          {
            "number": 100,
            "ticks": 48052,
            "time": 294.4361272916667,
            "value": 0
          }
        ],
        "101": [
          {
            "number": 101,
            "ticks": 0,
            "time": 0,
            "value": 0
          },
          {
            "number": 101,
            "ticks": 0,
            "time": 0,
            "value": 0
          },
          {
            "number": 101,
            "ticks": 48000,
            "time": 294.1175,
            "value": 0
          },
          {
            "number": 101,
            "ticks": 48052,
            "time": 294.4361272916667,
            "value": 0
          }
        ]
      },
      "pitchBends": [
        {
          "ticks": 0,
          "time": 0,
          "value": 0
        },
        {
          "ticks": 0,
          "time": 0,
          "value": 0
        },
        {
          "ticks": 0,
          "time": 0,
          "value": 0
        },
        {
          "ticks": 0,
          "time": 0,
          "value": 0
        },
        {
          "ticks": 25824,
          "time": 158.235215,
          "value": 0
        },
        {
          "ticks": 48000,
          "time": 294.1175,
          "value": 0
        },
        {
          "ticks": 48051,
          "time": 294.42999984375,
          "value": 0
        },
        {
          "ticks": 48052,
          "time": 294.4361272916667,
          "value": 0
        }
      ],
      "instrument": {
        "family": "ensemble",
        "number": 48,
        "name": "string ensemble 1"
      },
      "name": "",
      "notes": [
        {
          "duration": 2.3529400000000003,
          "durationTicks": 384,
          "midi": 78,
          "name": "F#5",
          "ticks": 96,
          "time": 0.5882350000000001,
          "velocity": 0.7874015748031497
        },
        {
          "duration": 2.3529400000000003,
          "durationTicks": 384,
          "midi": 83,
          "name": "B5",
          "ticks": 96,
          "time": 0.5882350000000001,
          "velocity": 0.7874015748031497
        },
        {
          "duration": 1.1764700000000001,
          "durationTicks": 192,
          "midi": 85,
          "name": "C#6",
          "ticks": 480,
          "time": 2.9411750000000003,
          "velocity": 0.7874015748031497
        },
        {
          "duration": 1.1764700000000001,
          "durationTicks": 192,
          "midi": 81,
          "name": "A5",
          "ticks": 480,
          "time": 2.9411750000000003,
          "velocity": 0.7874015748031497
        },
        {
          "duration": 1.1764700000000001,
          "durationTicks": 192,
          "midi": 85,
          "name": "C#6",
          "ticks": 672,
          "time": 4.117645,
          "velocity": 0.7874015748031497
        },
        {
          "duration": 1.1764700000000001,
          "durationTicks": 192,
          "midi": 88,
          "name": "E6",
          "ticks": 672,
          "time": 4.117645,
          "velocity": 0.7874015748031497
        },
        {
          "duration": 3.5294099999999995,
          "durationTicks": 576,
          "midi": 86,
          "name": "D6",
          "ticks": 864,
          "time": 5.294115000000001,
          "velocity": 0.7874015748031497
        },
        {
          "duration": 3.5294099999999995,
          "durationTicks": 576,
          "midi": 83,
          "name": "B5",
          "ticks": 864,
          "time": 5.294115000000001,
          "velocity": 0.7874015748031497
        },
        {
          "duration": 1.176470000000002,
          "durationTicks": 192,
          "midi": 81,
          "name": "A5",
          "ticks": 1440,
          "time": 8.823525,
          "velocity": 0.7874015748031497
        },
        {
          "duration": 1.176470000000002,
          "durationTicks": 192,
          "midi": 85,
          "name": "C#6",
          "ticks": 1440,
          "time": 8.823525,
          "velocity": 0.7874015748031497
        },
        {
          "duration": 2.3529400000000003,
          "durationTicks": 384,
          "midi": 83,
          "name": "B5",
          "ticks": 1632,
          "time": 9.999995000000002,
          "velocity": 0.7874015748031497
        },
        {
          "duration": 2.3529400000000003,
          "durationTicks": 384,
          "midi": 78,
          "name": "F#5",
          "ticks": 1632,
          "time": 9.999995000000002,
          "velocity": 0.7874015748031497
        },
        {
          "duration": 1.1764699999999984,
          "durationTicks": 192,
          "midi": 85,
          "name": "C#6",
          "ticks": 2016,
          "time": 12.352935000000002,
          "velocity": 0.7874015748031497
        },
        {
          "duration": 1.1764699999999984,
          "durationTicks": 192,
          "midi": 81,
          "name": "A5",
          "ticks": 2016,
          "time": 12.352935000000002,
          "velocity": 0.7874015748031497
        },
        {
          "duration": 1.176470000000002,
          "durationTicks": 192,
          "midi": 85,
          "name": "C#6",
          "ticks": 2208,
          "time": 13.529405,
          "velocity": 0.7874015748031497
        },
        {
          "duration": 1.176470000000002,
          "durationTicks": 192,
          "midi": 88,
          "name": "E6",
          "ticks": 2208,
          "time": 13.529405,
          "velocity": 0.7874015748031497
        },
        {
          "duration": 2.3529400000000003,
          "durationTicks": 384,
          "midi": 83,
          "name": "B5",
          "ticks": 2400,
          "time": 14.705875000000002,
          "velocity": 0.7874015748031497
        },
        {
          "duration": 2.3529400000000003,
          "durationTicks": 384,
          "midi": 86,
          "name": "D6",
          "ticks": 2400,
          "time": 14.705875000000002,
          "velocity": 0.7874015748031497
        },
        {
          "duration": 1.1764699999999984,
          "durationTicks": 192,
          "midi": 90,
          "name": "F#6",
          "ticks": 2784,
          "time": 17.058815000000003,
          "velocity": 0.7874015748031497
        },
        {
          "duration": 1.1764699999999984,
          "durationTicks": 192,
          "midi": 86,
          "name": "D6",
          "ticks": 2784,
          "time": 17.058815000000003,
          "velocity": 0.7874015748031497
        },
        {
          "duration": 1.176470000000002,
          "durationTicks": 192,
          "midi": 88,
          "name": "E6",
          "ticks": 2976,
          "time": 18.235285,
          "velocity": 0.7874015748031497
        },
        {
          "duration": 1.176470000000002,
          "durationTicks": 192,
          "midi": 85,
          "name": "C#6",
          "ticks": 2976,
          "time": 18.235285,
          "velocity": 0.7874015748031497
        },
        {
          "duration": 2.3529400000000003,
          "durationTicks": 384,
          "midi": 86,
          "name": "D6",
          "ticks": 3168,
          "time": 19.411755000000003,
          "velocity": 0.7874015748031497
        },
        {
          "duration": 2.3529400000000003,
          "durationTicks": 384,
          "midi": 90,
          "name": "F#6",
          "ticks": 3168,
          "time": 19.411755000000003,
          "velocity": 0.7874015748031497
        },
        {
          "duration": 2.3529400000000003,
          "durationTicks": 384,
          "midi": 83,
          "name": "B5",
          "ticks": 3168,
          "time": 19.411755000000003,
          "velocity": 0.7874015748031497
        },
        {
          "duration": 2.3529400000000003,
          "durationTicks": 384,
          "midi": 85,
          "name": "C#6",
          "ticks": 3552,
          "time": 21.764695000000003,
          "velocity": 0.7874015748031497
        },
        {
          "duration": 2.3529400000000003,
          "durationTicks": 384,
          "midi": 88,
          "name": "E6",
          "ticks": 3552,
          "time": 21.764695000000003,
          "velocity": 0.7874015748031497
        },
        {
          "duration": 2.3529400000000003,
          "durationTicks": 384,
          "midi": 91,
          "name": "G6",
          "ticks": 3552,
          "time": 21.764695000000003,
          "velocity": 0.7874015748031497
        },
        {
          "duration": 2.352940000000004,
          "durationTicks": 384,
          "midi": 50,
          "name": "D3",
          "ticks": 5472,
          "time": 33.529395,
          "velocity": 0.7874015748031497
        },
        {
          "duration": 2.352940000000004,
          "durationTicks": 384,
          "midi": 54,
          "name": "F#3",
          "ticks": 5472,
          "time": 33.529395,
          "velocity": 0.7874015748031497
        },
        {
          "duration": 0.8823525000000032,
          "durationTicks": 144,
          "midi": 71,
          "name": "B4",
          "ticks": 5472,
          "time": 33.529395,
          "velocity": 0.7874015748031497
        },
        {
          "duration": 2.352940000000004,
          "durationTicks": 384,
          "midi": 59,
          "name": "B3",
          "ticks": 5472,
          "time": 33.529395,
          "velocity": 0.7874015748031497
        },
        {
          "duration": 0.8823524999999961,
          "durationTicks": 144,
          "midi": 78,
          "name": "F#5",
          "ticks": 5616,
          "time": 34.411747500000004,
          "velocity": 0.7874015748031497
        },
        {
          "duration": 0.5882350000000045,
          "durationTicks": 96,
          "midi": 71,
          "name": "B4",
          "ticks": 5760,
          "time": 35.2941,
          "velocity": 0.7874015748031497
        },
        {
          "duration": 0.8823524999999961,
          "durationTicks": 144,
          "midi": 73,
          "name": "C#5",
          "ticks": 5856,
          "time": 35.882335000000005,
          "velocity": 0.7874015748031497
        },
        {
          "duration": 2.3529399999999967,
          "durationTicks": 384,
          "midi": 61,
          "name": "C#4",
          "ticks": 5856,
          "time": 35.882335000000005,
          "velocity": 0.7874015748031497
        },
        {
          "duration": 2.3529399999999967,
          "durationTicks": 384,
          "midi": 52,
          "name": "E3",
          "ticks": 5856,
          "time": 35.882335000000005,
          "velocity": 0.7874015748031497
        },
        {
          "duration": 2.3529399999999967,
          "durationTicks": 384,
          "midi": 57,
          "name": "A3",
          "ticks": 5856,
          "time": 35.882335000000005,
          "velocity": 0.7874015748031497
        },
        {
          "duration": 0.8823525000000032,
          "durationTicks": 144,
          "midi": 78,
          "name": "F#5",
          "ticks": 6000,
          "time": 36.7646875,
          "velocity": 0.7874015748031497
        },
        {
          "duration": 0.5882349999999974,
          "durationTicks": 96,
          "midi": 73,
          "name": "C#5",
          "ticks": 6144,
          "time": 37.647040000000004,
          "velocity": 0.7874015748031497
        },
        {
          "duration": 2.352940000000004,
          "durationTicks": 384,
          "midi": 62,
          "name": "D4",
          "ticks": 6240,
          "time": 38.235275,
          "velocity": 0.7874015748031497
        },
        {
          "duration": 2.352940000000004,
          "durationTicks": 384,
          "midi": 59,
          "name": "B3",
          "ticks": 6240,
          "time": 38.235275,
          "velocity": 0.7874015748031497
        },
        {
          "duration": 0.8823525000000032,
          "durationTicks": 144,
          "midi": 74,
          "name": "D5",
          "ticks": 6240,
          "time": 38.235275,
          "velocity": 0.7874015748031497
        },
        {
          "duration": 2.352940000000004,
          "durationTicks": 384,
          "midi": 55,
          "name": "G3",
          "ticks": 6240,
          "time": 38.235275,
          "velocity": 0.7874015748031497
        },
        {
          "duration": 0.8823525000000032,
          "durationTicks": 144,
          "midi": 78,
          "name": "F#5",
          "ticks": 6384,
          "time": 39.117627500000005,
          "velocity": 0.7874015748031497
        },
        {
          "duration": 0.5882349999999974,
          "durationTicks": 96,
          "midi": 74,
          "name": "D5",
          "ticks": 6528,
          "time": 39.99998000000001,
          "velocity": 0.7874015748031497
        },
        {
          "duration": 2.3529399999999967,
          "durationTicks": 384,
          "midi": 64,
          "name": "E4",
          "ticks": 6624,
          "time": 40.588215000000005,
          "velocity": 0.7874015748031497
        },
        {
          "duration": 2.3529399999999967,
          "durationTicks": 384,
          "midi": 76,
          "name": "E5",
          "ticks": 6624,
          "time": 40.588215000000005,
          "velocity": 0.7874015748031497
        },
        {
          "duration": 2.3529399999999967,
          "durationTicks": 384,
          "midi": 59,
          "name": "B3",
          "ticks": 6624,
          "time": 40.588215000000005,
          "velocity": 0.7874015748031497
        },
        {
          "duration": 2.3529399999999967,
          "durationTicks": 384,
          "midi": 56,
          "name": "G#3",
          "ticks": 6624,
          "time": 40.588215000000005,
          "velocity": 0.7874015748031497
        },
        {
          "duration": 0.8823525000000032,
          "durationTicks": 144,
          "midi": 71,
          "name": "B4",
          "ticks": 7008,
          "time": 42.941155,
          "velocity": 0.7874015748031497
        },
        {
          "duration": 2.352940000000004,
          "durationTicks": 384,
          "midi": 50,
          "name": "D3",
          "ticks": 7008,
          "time": 42.941155,
          "velocity": 0.7874015748031497
        },
        {
          "duration": 2.352940000000004,
          "durationTicks": 384,
          "midi": 54,
          "name": "F#3",
          "ticks": 7008,
          "time": 42.941155,
          "velocity": 0.7874015748031497
        },
        {
          "duration": 2.352940000000004,
          "durationTicks": 384,
          "midi": 59,
          "name": "B3",
          "ticks": 7008,
          "time": 42.941155,
          "velocity": 0.7874015748031497
        },
        {
          "duration": 0.8823524999999961,
          "durationTicks": 144,
          "midi": 78,
          "name": "F#5",
          "ticks": 7152,
          "time": 43.823507500000005,
          "velocity": 0.7874015748031497
        },
        {
          "duration": 0.5882350000000045,
          "durationTicks": 96,
          "midi": 71,
          "name": "B4",
          "ticks": 7296,
          "time": 44.70586,
          "velocity": 0.7874015748031497
        },
        {
          "duration": 2.3529399999999967,
          "durationTicks": 384,
          "midi": 57,
          "name": "A3",
          "ticks": 7392,
          "time": 45.294095000000006,
          "velocity": 0.7874015748031497
        },
        {
          "duration": 2.3529399999999967,
          "durationTicks": 384,
          "midi": 52,
          "name": "E3",
          "ticks": 7392,
          "time": 45.294095000000006,
          "velocity": 0.7874015748031497
        },
        {
          "duration": 2.3529399999999967,
          "durationTicks": 384,
          "midi": 61,
          "name": "C#4",
          "ticks": 7392,
          "time": 45.294095000000006,
          "velocity": 0.7874015748031497
        },
        {
          "duration": 0.8823524999999961,
          "durationTicks": 144,
          "midi": 73,
          "name": "C#5",
          "ticks": 7392,
          "time": 45.294095000000006,
          "velocity": 0.7874015748031497
        },
        {
          "duration": 0.8823525000000032,
          "durationTicks": 144,
          "midi": 78,
          "name": "F#5",
          "ticks": 7536,
          "time": 46.1764475,
          "velocity": 0.7874015748031497
        },
        {
          "duration": 0.5882349999999974,
          "durationTicks": 96,
          "midi": 81,
          "name": "A5",
          "ticks": 7680,
          "time": 47.058800000000005,
          "velocity": 0.7874015748031497
        },
        {
          "duration": 2.352940000000004,
          "durationTicks": 384,
          "midi": 55,
          "name": "G3",
          "ticks": 7776,
          "time": 47.647035,
          "velocity": 0.7874015748031497
        },
        {
          "duration": 2.352940000000004,
          "durationTicks": 384,
          "midi": 83,
          "name": "B5",
          "ticks": 7776,
          "time": 47.647035,
          "velocity": 0.7874015748031497
        },
        {
          "duration": 2.352940000000004,
          "durationTicks": 384,
          "midi": 59,
          "name": "B3",
          "ticks": 7776,
          "time": 47.647035,
          "velocity": 0.7874015748031497
        },
        {
          "duration": 2.352940000000004,
          "durationTicks": 384,
          "midi": 62,
          "name": "D4",
          "ticks": 7776,
          "time": 47.647035,
          "velocity": 0.7874015748031497
        },
        {
          "duration": 2.352940000000004,
          "durationTicks": 384,
          "midi": 50,
          "name": "D3",
          "ticks": 8544,
          "time": 52.352915,
          "velocity": 0.7874015748031497
        },
        {
          "duration": 2.352940000000004,
          "durationTicks": 384,
          "midi": 57,
          "name": "A3",
          "ticks": 8544,
          "time": 52.352915,
          "velocity": 0.7874015748031497
        },
        {
          "duration": 2.352940000000004,
          "durationTicks": 384,
          "midi": 62,
          "name": "D4",
          "ticks": 8544,
          "time": 52.352915,
          "velocity": 0.7874015748031497
        },
        {
          "duration": 2.3529399999999967,
          "durationTicks": 384,
          "midi": 53,
          "name": "F3",
          "ticks": 8928,
          "time": 54.70585500000001,
          "velocity": 0.7874015748031497
        },
        {
          "duration": 2.3529399999999967,
          "durationTicks": 384,
          "midi": 60,
          "name": "C4",
          "ticks": 8928,
          "time": 54.70585500000001,
          "velocity": 0.7874015748031497
        },
        {
          "duration": 2.3529399999999967,
          "durationTicks": 384,
          "midi": 65,
          "name": "F4",
          "ticks": 8928,
          "time": 54.70585500000001,
          "velocity": 0.7874015748031497
        },
        {
          "duration": 2.352940000000004,
          "durationTicks": 384,
          "midi": 46,
          "name": "A#2",
          "ticks": 9312,
          "time": 57.058795,
          "velocity": 0.7874015748031497
        },
        {
          "duration": 2.352940000000004,
          "durationTicks": 384,
          "midi": 53,
          "name": "F3",
          "ticks": 9312,
          "time": 57.058795,
          "velocity": 0.7874015748031497
        },
        {
          "duration": 2.352940000000004,
          "durationTicks": 384,
          "midi": 58,
          "name": "A#3",
          "ticks": 9312,
          "time": 57.058795,
          "velocity": 0.7874015748031497
        },
        {
          "duration": 2.3529399999999967,
          "durationTicks": 384,
          "midi": 60,
          "name": "C4",
          "ticks": 9696,
          "time": 59.41173500000001,
          "velocity": 0.7874015748031497
        },
        {
          "duration": 2.3529399999999967,
          "durationTicks": 384,
          "midi": 55,
          "name": "G3",
          "ticks": 9696,
          "time": 59.41173500000001,
          "velocity": 0.7874015748031497
        },
        {
          "duration": 2.3529399999999967,
          "durationTicks": 384,
          "midi": 48,
          "name": "C3",
          "ticks": 9696,
          "time": 59.41173500000001,
          "velocity": 0.7874015748031497
        },
        {
          "duration": 2.3529399999999967,
          "durationTicks": 384,
          "midi": 50,
          "name": "D3",
          "ticks": 10080,
          "time": 61.764675000000004,
          "velocity": 0.7874015748031497
        },
        {
          "duration": 2.3529399999999967,
          "durationTicks": 384,
          "midi": 57,
          "name": "A3",
          "ticks": 10080,
          "time": 61.764675000000004,
          "velocity": 0.7874015748031497
        },
        {
          "duration": 2.3529399999999967,
          "durationTicks": 384,
          "midi": 62,
          "name": "D4",
          "ticks": 10080,
          "time": 61.764675000000004,
          "velocity": 0.7874015748031497
        },
        {
          "duration": 2.352940000000004,
          "durationTicks": 384,
          "midi": 53,
          "name": "F3",
          "ticks": 10464,
          "time": 64.117615,
          "velocity": 0.7874015748031497
        },
        {
          "duration": 2.352940000000004,
          "durationTicks": 384,
          "midi": 60,
          "name": "C4",
          "ticks": 10464,
          "time": 64.117615,
          "velocity": 0.7874015748031497
        },
        {
          "duration": 2.352940000000004,
          "durationTicks": 384,
          "midi": 65,
          "name": "F4",
          "ticks": 10464,
          "time": 64.117615,
          "velocity": 0.7874015748031497
        },
        {
          "duration": 2.352940000000004,
          "durationTicks": 384,
          "midi": 58,
          "name": "A#3",
          "ticks": 10848,
          "time": 66.470555,
          "velocity": 0.7874015748031497
        },
        {
          "duration": 2.352940000000004,
          "durationTicks": 384,
          "midi": 53,
          "name": "F3",
          "ticks": 10848,
          "time": 66.470555,
          "velocity": 0.7874015748031497
        },
        {
          "duration": 2.352940000000004,
          "durationTicks": 384,
          "midi": 46,
          "name": "A#2",
          "ticks": 10848,
          "time": 66.470555,
          "velocity": 0.7874015748031497
        },
        {
          "duration": 2.352940000000004,
          "durationTicks": 384,
          "midi": 55,
          "name": "G3",
          "ticks": 11232,
          "time": 68.82349500000001,
          "velocity": 0.7874015748031497
        },
        {
          "duration": 2.352940000000004,
          "durationTicks": 384,
          "midi": 48,
          "name": "C3",
          "ticks": 11232,
          "time": 68.82349500000001,
          "velocity": 0.7874015748031497
        },
        {
          "duration": 2.352940000000004,
          "durationTicks": 384,
          "midi": 60,
          "name": "C4",
          "ticks": 11232,
          "time": 68.82349500000001,
          "velocity": 0.7874015748031497
        },
        {
          "duration": 0.2941174999999987,
          "durationTicks": 48,
          "midi": 64,
          "name": "E4",
          "ticks": 11280,
          "time": 69.1176125,
          "velocity": 0.7874015748031497
        },
        {
          "duration": 0.2941174999999987,
          "durationTicks": 48,
          "midi": 64,
          "name": "E4",
          "ticks": 11328,
          "time": 69.41173,
          "velocity": 0.7874015748031497
        },
        {
          "duration": 0.2941174999999987,
          "durationTicks": 48,
          "midi": 65,
          "name": "F4",
          "ticks": 11376,
          "time": 69.7058475,
          "velocity": 0.7874015748031497
        },
        {
          "duration": 0.2941174999999987,
          "durationTicks": 48,
          "midi": 65,
          "name": "F4",
          "ticks": 11424,
          "time": 69.999965,
          "velocity": 0.7874015748031497
        },
        {
          "duration": 0.2941174999999987,
          "durationTicks": 48,
          "midi": 67,
          "name": "G4",
          "ticks": 11472,
          "time": 70.2940825,
          "velocity": 0.7874015748031497
        },
        {
          "duration": 0.2941175000000129,
          "durationTicks": 48,
          "midi": 69,
          "name": "A4",
          "ticks": 11520,
          "time": 70.5882,
          "velocity": 0.7874015748031497
        },
        {
          "duration": 0.2941174999999987,
          "durationTicks": 48,
          "midi": 70,
          "name": "A#4",
          "ticks": 11568,
          "time": 70.88231750000001,
          "velocity": 0.7874015748031497
        },
        {
          "duration": 1.1764699999999948,
          "durationTicks": 192,
          "midi": 69,
          "name": "A4",
          "ticks": 11616,
          "time": 71.17643500000001,
          "velocity": 0.7874015748031497
        },
        {
          "duration": 2.3529399999999896,
          "durationTicks": 384,
          "midi": 53,
          "name": "F3",
          "ticks": 11616,
          "time": 71.17643500000001,
          "velocity": 0.7874015748031497
        },
        {
          "duration": 2.3529399999999896,
          "durationTicks": 384,
          "midi": 60,
          "name": "C4",
          "ticks": 11616,
          "time": 71.17643500000001,
          "velocity": 0.7874015748031497
        },
        {
          "duration": 2.3529399999999896,
          "durationTicks": 384,
          "midi": 65,
          "name": "F4",
          "ticks": 11616,
          "time": 71.17643500000001,
          "velocity": 0.7874015748031497
        },
        {
          "duration": 0.5882349999999974,
          "durationTicks": 96,
          "midi": 67,
          "name": "G4",
          "ticks": 11808,
          "time": 72.352905,
          "velocity": 0.7874015748031497
        },
        {
          "duration": 0.5882349999999974,
          "durationTicks": 96,
          "midi": 70,
          "name": "A#4",
          "ticks": 11904,
          "time": 72.94114,
          "velocity": 0.7874015748031497
        },
        {
          "duration": 1.176470000000009,
          "durationTicks": 192,
          "midi": 69,
          "name": "A4",
          "ticks": 12000,
          "time": 73.529375,
          "velocity": 0.7874015748031497
        },
        {
          "duration": 2.352940000000004,
          "durationTicks": 384,
          "midi": 67,
          "name": "G4",
          "ticks": 12000,
          "time": 73.529375,
          "velocity": 0.7874015748031497
        },
        {
          "duration": 2.352940000000004,
          "durationTicks": 384,
          "midi": 62,
          "name": "D4",
          "ticks": 12000,
          "time": 73.529375,
          "velocity": 0.7874015748031497
        },
        {
          "duration": 2.352940000000004,
          "durationTicks": 384,
          "midi": 55,
          "name": "G3",
          "ticks": 12000,
          "time": 73.529375,
          "velocity": 0.7874015748031497
        },
        {
          "duration": 0.2941174999999987,
          "durationTicks": 48,
          "midi": 64,
          "name": "E4",
          "ticks": 12336,
          "time": 75.5881975,
          "velocity": 0.7874015748031497
        },
        {
          "duration": 2.352940000000004,
          "durationTicks": 384,
          "midi": 57,
          "name": "A3",
          "ticks": 12384,
          "time": 75.882315,
          "velocity": 0.7874015748031497
        },
        {
          "duration": 2.352940000000004,
          "durationTicks": 384,
          "midi": 50,
          "name": "D3",
          "ticks": 12384,
          "time": 75.882315,
          "velocity": 0.7874015748031497
        },
        {
          "duration": 2.352940000000004,
          "durationTicks": 384,
          "midi": 62,
          "name": "D4",
          "ticks": 12384,
          "time": 75.882315,
          "velocity": 0.7874015748031497
        },
        {
          "duration": 1.7647050000000064,
          "durationTicks": 288,
          "midi": 65,
          "name": "F4",
          "ticks": 12384,
          "time": 75.882315,
          "velocity": 0.7874015748031497
        },
        {
          "duration": 0.5882349999999974,
          "durationTicks": 96,
          "midi": 60,
          "name": "C4",
          "ticks": 12672,
          "time": 77.64702000000001,
          "velocity": 0.7874015748031497
        },
        {
          "duration": 2.352940000000004,
          "durationTicks": 384,
          "midi": 58,
          "name": "A#3",
          "ticks": 12768,
          "time": 78.23525500000001,
          "velocity": 0.7874015748031497
        },
        {
          "duration": 2.352940000000004,
          "durationTicks": 384,
          "midi": 62,
          "name": "D4",
          "ticks": 12768,
          "time": 78.23525500000001,
          "velocity": 0.7874015748031497
        },
        {
          "duration": 2.352940000000004,
          "durationTicks": 384,
          "midi": 53,
          "name": "F3",
          "ticks": 12768,
          "time": 78.23525500000001,
          "velocity": 0.7874015748031497
        },
        {
          "duration": 2.352940000000004,
          "durationTicks": 384,
          "midi": 46,
          "name": "A#2",
          "ticks": 12768,
          "time": 78.23525500000001,
          "velocity": 0.7874015748031497
        },
        {
          "duration": 0.2941174999999987,
          "durationTicks": 48,
          "midi": 45,
          "name": "A2",
          "ticks": 13152,
          "time": 80.58819500000001,
          "velocity": 0.7874015748031497
        },
        {
          "duration": 0.2941174999999987,
          "durationTicks": 48,
          "midi": 52,
          "name": "E3",
          "ticks": 13152,
          "time": 80.58819500000001,
          "velocity": 0.7874015748031497
        },
        {
          "duration": 0.2941174999999987,
          "durationTicks": 48,
          "midi": 57,
          "name": "A3",
          "ticks": 13152,
          "time": 80.58819500000001,
          "velocity": 0.7874015748031497
        },
        {
          "duration": 0.2941174999999987,
          "durationTicks": 48,
          "midi": 45,
          "name": "A2",
          "ticks": 13224,
          "time": 81.02937125000001,
          "velocity": 0.7874015748031497
        },
        {
          "duration": 0.2941174999999987,
          "durationTicks": 48,
          "midi": 52,
          "name": "E3",
          "ticks": 13224,
          "time": 81.02937125000001,
          "velocity": 0.7874015748031497
        },
        {
          "duration": 0.2941174999999987,
          "durationTicks": 48,
          "midi": 57,
          "name": "A3",
          "ticks": 13224,
          "time": 81.02937125000001,
          "velocity": 0.7874015748031497
        },
        {
          "duration": 0.2941174999999987,
          "durationTicks": 48,
          "midi": 45,
          "name": "A2",
          "ticks": 13296,
          "time": 81.47054750000001,
          "velocity": 0.7874015748031497
        },
        {
          "duration": 0.2941174999999987,
          "durationTicks": 48,
          "midi": 52,
          "name": "E3",
          "ticks": 13296,
          "time": 81.47054750000001,
          "velocity": 0.7874015748031497
        },
        {
          "duration": 0.2941174999999987,
          "durationTicks": 48,
          "midi": 57,
          "name": "A3",
          "ticks": 13296,
          "time": 81.47054750000001,
          "velocity": 0.7874015748031497
        },
        {
          "duration": 0.2941174999999987,
          "durationTicks": 48,
          "midi": 45,
          "name": "A2",
          "ticks": 13368,
          "time": 81.91172375000001,
          "velocity": 0.7874015748031497
        },
        {
          "duration": 0.2941174999999987,
          "durationTicks": 48,
          "midi": 52,
          "name": "E3",
          "ticks": 13368,
          "time": 81.91172375000001,
          "velocity": 0.7874015748031497
        },
        {
          "duration": 0.2941174999999987,
          "durationTicks": 48,
          "midi": 57,
          "name": "A3",
          "ticks": 13368,
          "time": 81.91172375000001,
          "velocity": 0.7874015748031497
        },
        {
          "duration": 0.2941175000000129,
          "durationTicks": 48,
          "midi": 57,
          "name": "A3",
          "ticks": 13536,
          "time": 82.941135,
          "velocity": 0.7874015748031497
        },
        {
          "duration": 0.2941175000000129,
          "durationTicks": 48,
          "midi": 52,
          "name": "E3",
          "ticks": 13536,
          "time": 82.941135,
          "velocity": 0.7874015748031497
        },
        {
          "duration": 0.2941175000000129,
          "durationTicks": 48,
          "midi": 45,
          "name": "A2",
          "ticks": 13536,
          "time": 82.941135,
          "velocity": 0.7874015748031497
        },
        {
          "duration": 0.2941174999999987,
          "durationTicks": 48,
          "midi": 57,
          "name": "A3",
          "ticks": 13608,
          "time": 83.38231125000001,
          "velocity": 0.7874015748031497
        },
        {
          "duration": 0.2941174999999987,
          "durationTicks": 48,
          "midi": 52,
          "name": "E3",
          "ticks": 13608,
          "time": 83.38231125000001,
          "velocity": 0.7874015748031497
        },
        {
          "duration": 0.2941174999999987,
          "durationTicks": 48,
          "midi": 45,
          "name": "A2",
          "ticks": 13608,
          "time": 83.38231125000001,
          "velocity": 0.7874015748031497
        },
        {
          "duration": 0.2941174999999987,
          "durationTicks": 48,
          "midi": 57,
          "name": "A3",
          "ticks": 13680,
          "time": 83.82348750000001,
          "velocity": 0.7874015748031497
        },
        {
          "duration": 0.2941174999999987,
          "durationTicks": 48,
          "midi": 52,
          "name": "E3",
          "ticks": 13680,
          "time": 83.82348750000001,
          "velocity": 0.7874015748031497
        },
        {
          "duration": 0.2941174999999987,
          "durationTicks": 48,
          "midi": 45,
          "name": "A2",
          "ticks": 13680,
          "time": 83.82348750000001,
          "velocity": 0.7874015748031497
        },
        {
          "duration": 0.2941174999999987,
          "durationTicks": 48,
          "midi": 57,
          "name": "A3",
          "ticks": 13752,
          "time": 84.26466375000001,
          "velocity": 0.7874015748031497
        },
        {
          "duration": 0.2941174999999987,
          "durationTicks": 48,
          "midi": 52,
          "name": "E3",
          "ticks": 13752,
          "time": 84.26466375000001,
          "velocity": 0.7874015748031497
        },
        {
          "duration": 0.2941174999999987,
          "durationTicks": 48,
          "midi": 45,
          "name": "A2",
          "ticks": 13752,
          "time": 84.26466375000001,
          "velocity": 0.7874015748031497
        },
        {
          "duration": 4.705880000000008,
          "durationTicks": 768,
          "midi": 57,
          "name": "A3",
          "ticks": 13920,
          "time": 85.294075,
          "velocity": 0.7874015748031497
        },
        {
          "duration": 4.705880000000008,
          "durationTicks": 768,
          "midi": 52,
          "name": "E3",
          "ticks": 13920,
          "time": 85.294075,
          "velocity": 0.7874015748031497
        },
        {
          "duration": 4.705880000000008,
          "durationTicks": 768,
          "midi": 45,
          "name": "A2",
          "ticks": 13920,
          "time": 85.294075,
          "velocity": 0.7874015748031497
        },
        {
          "duration": 1.176470000000009,
          "durationTicks": 192,
          "midi": 69,
          "name": "A4",
          "ticks": 13920,
          "time": 85.294075,
          "velocity": 0.7874015748031497
        },
        {
          "duration": 0.5882349999999974,
          "durationTicks": 96,
          "midi": 67,
          "name": "G4",
          "ticks": 14112,
          "time": 86.47054500000002,
          "velocity": 0.7874015748031497
        },
        {
          "duration": 0.5882349999999974,
          "durationTicks": 96,
          "midi": 70,
          "name": "A#4",
          "ticks": 14208,
          "time": 87.05878000000001,
          "velocity": 0.7874015748031497
        },
        {
          "duration": 1.1764699999999948,
          "durationTicks": 192,
          "midi": 65,
          "name": "F4",
          "ticks": 14304,
          "time": 87.64701500000001,
          "velocity": 0.7874015748031497
        },
        {
          "duration": 1.176470000000009,
          "durationTicks": 192,
          "midi": 64,
          "name": "E4",
          "ticks": 14496,
          "time": 88.823485,
          "velocity": 0.7874015748031497
        },
        {
          "duration": 4.705879999999993,
          "durationTicks": 768,
          "midi": 52,
          "name": "E3",
          "ticks": 14688,
          "time": 89.99995500000001,
          "velocity": 0.7874015748031497
        },
        {
          "duration": 4.705879999999993,
          "durationTicks": 768,
          "midi": 57,
          "name": "A3",
          "ticks": 14688,
          "time": 89.99995500000001,
          "velocity": 0.7874015748031497
        },
        {
          "duration": 4.705879999999993,
          "durationTicks": 768,
          "midi": 45,
          "name": "A2",
          "ticks": 14688,
          "time": 89.99995500000001,
          "velocity": 0.7874015748031497
        },
        {
          "duration": 4.705880000000008,
          "durationTicks": 768,
          "midi": 45,
          "name": "A2",
          "ticks": 15456,
          "time": 94.70583500000001,
          "velocity": 0.7874015748031497
        },
        {
          "duration": 4.705880000000008,
          "durationTicks": 768,
          "midi": 52,
          "name": "E3",
          "ticks": 15456,
          "time": 94.70583500000001,
          "velocity": 0.7874015748031497
        },
        {
          "duration": 4.705880000000008,
          "durationTicks": 768,
          "midi": 57,
          "name": "A3",
          "ticks": 15456,
          "time": 94.70583500000001,
          "velocity": 0.7874015748031497
        },
        {
          "duration": 1.176470000000009,
          "durationTicks": 192,
          "midi": 69,
          "name": "A4",
          "ticks": 15456,
          "time": 94.70583500000001,
          "velocity": 0.7874015748031497
        },
        {
          "duration": 0.5882349999999974,
          "durationTicks": 96,
          "midi": 67,
          "name": "G4",
          "ticks": 15648,
          "time": 95.88230500000002,
          "velocity": 0.7874015748031497
        },
        {
          "duration": 0.5882349999999974,
          "durationTicks": 96,
          "midi": 70,
          "name": "A#4",
          "ticks": 15744,
          "time": 96.47054000000001,
          "velocity": 0.7874015748031497
        },
        {
          "duration": 1.1764699999999948,
          "durationTicks": 192,
          "midi": 70,
          "name": "A#4",
          "ticks": 15840,
          "time": 97.05877500000001,
          "velocity": 0.7874015748031497
        },
        {
          "duration": 1.176470000000009,
          "durationTicks": 192,
          "midi": 69,
          "name": "A4",
          "ticks": 16032,
          "time": 98.235245,
          "velocity": 0.7874015748031497
        },
        {
          "duration": 4.705879999999993,
          "durationTicks": 768,
          "midi": 45,
          "name": "A2",
          "ticks": 16224,
          "time": 99.41171500000002,
          "velocity": 0.7874015748031497
        },
        {
          "duration": 4.705879999999993,
          "durationTicks": 768,
          "midi": 52,
          "name": "E3",
          "ticks": 16224,
          "time": 99.41171500000002,
          "velocity": 0.7874015748031497
        },
        {
          "duration": 4.705879999999993,
          "durationTicks": 768,
          "midi": 57,
          "name": "A3",
          "ticks": 16224,
          "time": 99.41171500000002,
          "velocity": 0.7874015748031497
        },
        {
          "duration": 0.8823524999999961,
          "durationTicks": 144,
          "midi": 67,
          "name": "G4",
          "ticks": 16992,
          "time": 104.11759500000001,
          "velocity": 0.7874015748031497
        },
        {
          "duration": 2.352940000000004,
          "durationTicks": 384,
          "midi": 55,
          "name": "G3",
          "ticks": 16992,
          "time": 104.11759500000001,
          "velocity": 0.7874015748031497
        },
        {
          "duration": 2.352940000000004,
          "durationTicks": 384,
          "midi": 50,
          "name": "D3",
          "ticks": 16992,
          "time": 104.11759500000001,
          "velocity": 0.7874015748031497
        },
        {
          "duration": 2.352940000000004,
          "durationTicks": 384,
          "midi": 43,
          "name": "G2",
          "ticks": 16992,
          "time": 104.11759500000001,
          "velocity": 0.7874015748031497
        },
        {
          "duration": 0.8823525000000103,
          "durationTicks": 144,
          "midi": 70,
          "name": "A#4",
          "ticks": 17136,
          "time": 104.9999475,
          "velocity": 0.7874015748031497
        },
        {
          "duration": 0.5882349999999974,
          "durationTicks": 96,
          "midi": 69,
          "name": "A4",
          "ticks": 17280,
          "time": 105.88230000000001,
          "velocity": 0.7874015748031497
        },
        {
          "duration": 0.8823524999999961,
          "durationTicks": 144,
          "midi": 65,
          "name": "F4",
          "ticks": 17376,
          "time": 106.47053500000001,
          "velocity": 0.7874015748031497
        },
        {
          "duration": 2.352940000000004,
          "durationTicks": 384,
          "midi": 53,
          "name": "F3",
          "ticks": 17376,
          "time": 106.47053500000001,
          "velocity": 0.7874015748031497
        },
        {
          "duration": 2.352940000000004,
          "durationTicks": 384,
          "midi": 48,
          "name": "C3",
          "ticks": 17376,
          "time": 106.47053500000001,
          "velocity": 0.7874015748031497
        },
        {
          "duration": 2.352940000000004,
          "durationTicks": 384,
          "midi": 41,
          "name": "F2",
          "ticks": 17376,
          "time": 106.47053500000001,
          "velocity": 0.7874015748031497
        },
        {
          "duration": 0.8823524999999961,
          "durationTicks": 144,
          "midi": 70,
          "name": "A#4",
          "ticks": 17520,
          "time": 107.35288750000001,
          "velocity": 0.7874015748031497
        },
        {
          "duration": 0.5882350000000116,
          "durationTicks": 96,
          "midi": 69,
          "name": "A4",
          "ticks": 17664,
          "time": 108.23524,
          "velocity": 0.7874015748031497
        },
        {
          "duration": 2.3529399999999896,
          "durationTicks": 384,
          "midi": 46,
          "name": "A#2",
          "ticks": 17760,
          "time": 108.82347500000002,
          "velocity": 0.7874015748031497
        },
        {
          "duration": 2.3529399999999896,
          "durationTicks": 384,
          "midi": 39,
          "name": "D#2",
          "ticks": 17760,
          "time": 108.82347500000002,
          "velocity": 0.7874015748031497
        },
        {
          "duration": 2.3529399999999896,
          "durationTicks": 384,
          "midi": 51,
          "name": "D#3",
          "ticks": 17760,
          "time": 108.82347500000002,
          "velocity": 0.7874015748031497
        },
        {
          "duration": 2.3529399999999896,
          "durationTicks": 384,
          "midi": 63,
          "name": "D#4",
          "ticks": 17760,
          "time": 108.82347500000002,
          "velocity": 0.7874015748031497
        },
        {
          "duration": 0.8823525000000103,
          "durationTicks": 144,
          "midi": 51,
          "name": "D#3",
          "ticks": 18144,
          "time": 111.176415,
          "velocity": 0.7874015748031497
        },
        {
          "duration": 0.8823525000000103,
          "durationTicks": 144,
          "midi": 46,
          "name": "A#2",
          "ticks": 18144,
          "time": 111.176415,
          "velocity": 0.7874015748031497
        },
        {
          "duration": 0.8823525000000103,
          "durationTicks": 144,
          "midi": 39,
          "name": "D#2",
          "ticks": 18144,
          "time": 111.176415,
          "velocity": 0.7874015748031497
        },
        {
          "duration": 0.8823525000000103,
          "durationTicks": 144,
          "midi": 63,
          "name": "D#4",
          "ticks": 18144,
          "time": 111.176415,
          "velocity": 0.7874015748031497
        },
        {
          "duration": 1.4705874999999935,
          "durationTicks": 240,
          "midi": 53,
          "name": "F3",
          "ticks": 18288,
          "time": 112.05876750000002,
          "velocity": 0.7874015748031497
        },
        {
          "duration": 1.4705874999999935,
          "durationTicks": 240,
          "midi": 48,
          "name": "C3",
          "ticks": 18288,
          "time": 112.05876750000002,
          "velocity": 0.7874015748031497
        },
        {
          "duration": 1.4705874999999935,
          "durationTicks": 240,
          "midi": 41,
          "name": "F2",
          "ticks": 18288,
          "time": 112.05876750000002,
          "velocity": 0.7874015748031497
        },
        {
          "duration": 0.8823524999999961,
          "durationTicks": 144,
          "midi": 65,
          "name": "F4",
          "ticks": 18288,
          "time": 112.05876750000002,
          "velocity": 0.7874015748031497
        },
        {
          "duration": 0.5882349999999974,
          "durationTicks": 96,
          "midi": 70,
          "name": "A#4",
          "ticks": 18432,
          "time": 112.94112000000001,
          "velocity": 0.7874015748031497
        },
        {
          "duration": 0.8823524999999961,
          "durationTicks": 144,
          "midi": 67,
          "name": "G4",
          "ticks": 18528,
          "time": 113.52935500000001,
          "velocity": 0.7874015748031497
        },
        {
          "duration": 2.352940000000004,
          "durationTicks": 384,
          "midi": 55,
          "name": "G3",
          "ticks": 18528,
          "time": 113.52935500000001,
          "velocity": 0.7874015748031497
        },
        {
          "duration": 2.352940000000004,
          "durationTicks": 384,
          "midi": 50,
          "name": "D3",
          "ticks": 18528,
          "time": 113.52935500000001,
          "velocity": 0.7874015748031497
        },
        {
          "duration": 2.352940000000004,
          "durationTicks": 384,
          "midi": 43,
          "name": "G2",
          "ticks": 18528,
          "time": 113.52935500000001,
          "velocity": 0.7874015748031497
        },
        {
          "duration": 0.8823525000000103,
          "durationTicks": 144,
          "midi": 70,
          "name": "A#4",
          "ticks": 18672,
          "time": 114.4117075,
          "velocity": 0.7874015748031497
        },
        {
          "duration": 0.5882349999999974,
          "durationTicks": 96,
          "midi": 69,
          "name": "A4",
          "ticks": 18816,
          "time": 115.29406000000002,
          "velocity": 0.7874015748031497
        },
        {
          "duration": 2.352940000000004,
          "durationTicks": 384,
          "midi": 41,
          "name": "F2",
          "ticks": 18912,
          "time": 115.88229500000001,
          "velocity": 0.7874015748031497
        },
        {
          "duration": 2.352940000000004,
          "durationTicks": 384,
          "midi": 48,
          "name": "C3",
          "ticks": 18912,
          "time": 115.88229500000001,
          "velocity": 0.7874015748031497
        },
        {
          "duration": 2.352940000000004,
          "durationTicks": 384,
          "midi": 53,
          "name": "F3",
          "ticks": 18912,
          "time": 115.88229500000001,
          "velocity": 0.7874015748031497
        },
        {
          "duration": 0.8823524999999961,
          "durationTicks": 144,
          "midi": 65,
          "name": "F4",
          "ticks": 18912,
          "time": 115.88229500000001,
          "velocity": 0.7874015748031497
        },
        {
          "duration": 0.8823525000000103,
          "durationTicks": 144,
          "midi": 70,
          "name": "A#4",
          "ticks": 19056,
          "time": 116.76464750000001,
          "velocity": 0.7874015748031497
        },
        {
          "duration": 0.5882349999999974,
          "durationTicks": 96,
          "midi": 69,
          "name": "A4",
          "ticks": 19200,
          "time": 117.64700000000002,
          "velocity": 0.7874015748031497
        },
        {
          "duration": 2.3529399999999896,
          "durationTicks": 384,
          "midi": 46,
          "name": "A#2",
          "ticks": 19296,
          "time": 118.23523500000002,
          "velocity": 0.7874015748031497
        },
        {
          "duration": 2.3529399999999896,
          "durationTicks": 384,
          "midi": 39,
          "name": "D#2",
          "ticks": 19296,
          "time": 118.23523500000002,
          "velocity": 0.7874015748031497
        },
        {
          "duration": 2.3529399999999896,
          "durationTicks": 384,
          "midi": 51,
          "name": "D#3",
          "ticks": 19296,
          "time": 118.23523500000002,
          "velocity": 0.7874015748031497
        },
        {
          "duration": 2.3529399999999896,
          "durationTicks": 384,
          "midi": 63,
          "name": "D#4",
          "ticks": 19296,
          "time": 118.23523500000002,
          "velocity": 0.7874015748031497
        },
        {
          "duration": 0.8823525000000103,
          "durationTicks": 144,
          "midi": 51,
          "name": "D#3",
          "ticks": 19680,
          "time": 120.588175,
          "velocity": 0.7874015748031497
        },
        {
          "duration": 0.8823525000000103,
          "durationTicks": 144,
          "midi": 46,
          "name": "A#2",
          "ticks": 19680,
          "time": 120.588175,
          "velocity": 0.7874015748031497
        },
        {
          "duration": 0.8823525000000103,
          "durationTicks": 144,
          "midi": 39,
          "name": "D#2",
          "ticks": 19680,
          "time": 120.588175,
          "velocity": 0.7874015748031497
        },
        {
          "duration": 0.8823525000000103,
          "durationTicks": 144,
          "midi": 63,
          "name": "D#4",
          "ticks": 19680,
          "time": 120.588175,
          "velocity": 0.7874015748031497
        },
        {
          "duration": 1.4705874999999935,
          "durationTicks": 240,
          "midi": 53,
          "name": "F3",
          "ticks": 19824,
          "time": 121.47052750000002,
          "velocity": 0.7874015748031497
        },
        {
          "duration": 1.4705874999999935,
          "durationTicks": 240,
          "midi": 48,
          "name": "C3",
          "ticks": 19824,
          "time": 121.47052750000002,
          "velocity": 0.7874015748031497
        },
        {
          "duration": 1.4705874999999935,
          "durationTicks": 240,
          "midi": 41,
          "name": "F2",
          "ticks": 19824,
          "time": 121.47052750000002,
          "velocity": 0.7874015748031497
        },
        {
          "duration": 0.8823524999999961,
          "durationTicks": 144,
          "midi": 65,
          "name": "F4",
          "ticks": 19824,
          "time": 121.47052750000002,
          "velocity": 0.7874015748031497
        },
        {
          "duration": 0.5882349999999974,
          "durationTicks": 96,
          "midi": 67,
          "name": "G4",
          "ticks": 19968,
          "time": 122.35288000000001,
          "velocity": 0.7874015748031497
        },
        {
          "duration": 2.352940000000004,
          "durationTicks": 384,
          "midi": 48,
          "name": "C3",
          "ticks": 20064,
          "time": 122.94111500000001,
          "velocity": 0.7874015748031497
        },
        {
          "duration": 2.352940000000004,
          "durationTicks": 384,
          "midi": 55,
          "name": "G3",
          "ticks": 20064,
          "time": 122.94111500000001,
          "velocity": 0.7874015748031497
        },
        {
          "duration": 2.352940000000004,
          "durationTicks": 384,
          "midi": 60,
          "name": "C4",
          "ticks": 20064,
          "time": 122.94111500000001,
          "velocity": 0.7874015748031497
        },
        {
          "duration": 0.8823524999999961,
          "durationTicks": 144,
          "midi": 67,
          "name": "G4",
          "ticks": 20064,
          "time": 122.94111500000001,
          "velocity": 0.7874015748031497
        },
        {
          "duration": 0.8823525000000103,
          "durationTicks": 144,
          "midi": 79,
          "name": "G5",
          "ticks": 20208,
          "time": 123.8234675,
          "velocity": 0.7874015748031497
        },
        {
          "duration": 0.5882349999999974,
          "durationTicks": 96,
          "midi": 82,
          "name": "A#5",
          "ticks": 20352,
          "time": 124.70582000000002,
          "velocity": 0.7874015748031497
        },
        {
          "duration": 2.352940000000004,
          "durationTicks": 384,
          "midi": 50,
          "name": "D3",
          "ticks": 20448,
          "time": 125.29405500000001,
          "velocity": 0.7874015748031497
        },
        {
          "duration": 2.352940000000004,
          "durationTicks": 384,
          "midi": 57,
          "name": "A3",
          "ticks": 20448,
          "time": 125.29405500000001,
          "velocity": 0.7874015748031497
        },
        {
          "duration": 2.352940000000004,
          "durationTicks": 384,
          "midi": 62,
          "name": "D4",
          "ticks": 20448,
          "time": 125.29405500000001,
          "velocity": 0.7874015748031497
        },
        {
          "duration": 0.8823524999999961,
          "durationTicks": 144,
          "midi": 81,
          "name": "A5",
          "ticks": 20448,
          "time": 125.29405500000001,
          "velocity": 0.7874015748031497
        },
        {
          "duration": 0.8823524999999961,
          "durationTicks": 144,
          "midi": 77,
          "name": "F5",
          "ticks": 20592,
          "time": 126.17640750000001,
          "velocity": 0.7874015748031497
        },
        {
          "duration": 0.2941175000000129,
          "durationTicks": 48,
          "midi": 79,
          "name": "G5",
          "ticks": 20736,
          "time": 127.05876,
          "velocity": 0.7874015748031497
        },
        {
          "duration": 0.2941174999999987,
          "durationTicks": 48,
          "midi": 81,
          "name": "A5",
          "ticks": 20784,
          "time": 127.35287750000002,
          "velocity": 0.7874015748031497
        },
        {
          "duration": 0.8823524999999819,
          "durationTicks": 144,
          "midi": 79,
          "name": "G5",
          "ticks": 20832,
          "time": 127.64699500000002,
          "velocity": 0.7874015748031497
        },
        {
          "duration": 2.352940000000004,
          "durationTicks": 384,
          "midi": 63,
          "name": "D#4",
          "ticks": 20832,
          "time": 127.64699500000002,
          "velocity": 0.7874015748031497
        },
        {
          "duration": 2.352940000000004,
          "durationTicks": 384,
          "midi": 58,
          "name": "A#3",
          "ticks": 20832,
          "time": 127.64699500000002,
          "velocity": 0.7874015748031497
        },
        {
          "duration": 2.352940000000004,
          "durationTicks": 384,
          "midi": 51,
          "name": "D#3",
          "ticks": 20832,
          "time": 127.64699500000002,
          "velocity": 0.7874015748031497
        },
        {
          "duration": 0.8823525000000245,
          "durationTicks": 144,
          "midi": 82,
          "name": "A#5",
          "ticks": 20976,
          "time": 128.5293475,
          "velocity": 0.7874015748031497
        },
        {
          "duration": 0.5882349999999974,
          "durationTicks": 96,
          "midi": 86,
          "name": "D6",
          "ticks": 21120,
          "time": 129.41170000000002,
          "velocity": 0.7874015748031497
        },
        {
          "duration": 1.7647049999999922,
          "durationTicks": 288,
          "midi": 84,
          "name": "C6",
          "ticks": 21216,
          "time": 129.99993500000002,
          "velocity": 0.7874015748031497
        },
        {
          "duration": 2.3529399999999896,
          "durationTicks": 384,
          "midi": 65,
          "name": "F4",
          "ticks": 21216,
          "time": 129.99993500000002,
          "velocity": 0.7874015748031497
        },
        {
          "duration": 2.3529399999999896,
          "durationTicks": 384,
          "midi": 60,
          "name": "C4",
          "ticks": 21216,
          "time": 129.99993500000002,
          "velocity": 0.7874015748031497
        },
        {
          "duration": 2.3529399999999896,
          "durationTicks": 384,
          "midi": 53,
          "name": "F3",
          "ticks": 21216,
          "time": 129.99993500000002,
          "velocity": 0.7874015748031497
        },
        {
          "duration": 0.2941174999999987,
          "durationTicks": 48,
          "midi": 82,
          "name": "A#5",
          "ticks": 21504,
          "time": 131.76464,
          "velocity": 0.7874015748031497
        },
        {
          "duration": 0.2941174999999987,
          "durationTicks": 48,
          "midi": 81,
          "name": "A5",
          "ticks": 21552,
          "time": 132.0587575,
          "velocity": 0.7874015748031497
        },
        {
          "duration": 2.3529399999999896,
          "durationTicks": 384,
          "midi": 55,
          "name": "G3",
          "ticks": 21600,
          "time": 132.352875,
          "velocity": 0.7874015748031497
        },
        {
          "duration": 2.3529399999999896,
          "durationTicks": 384,
          "midi": 62,
          "name": "D4",
          "ticks": 21600,
          "time": 132.352875,
          "velocity": 0.7874015748031497
        },
        {
          "duration": 2.3529399999999896,
          "durationTicks": 384,
          "midi": 67,
          "name": "G4",
          "ticks": 21600,
          "time": 132.352875,
          "velocity": 0.7874015748031497
        },
        {
          "duration": 0.8823524999999961,
          "durationTicks": 144,
          "midi": 82,
          "name": "A#5",
          "ticks": 21600,
          "time": 132.352875,
          "velocity": 0.7874015748031497
        },
        {
          "duration": 0.8823524999999961,
          "durationTicks": 144,
          "midi": 79,
          "name": "G5",
          "ticks": 21744,
          "time": 133.2352275,
          "velocity": 0.7874015748031497
        },
        {
          "duration": 0.2941174999999987,
          "durationTicks": 48,
          "midi": 79,
          "name": "G5",
          "ticks": 21888,
          "time": 134.11758,
          "velocity": 0.7874015748031497
        },
        {
          "duration": 0.2941174999999987,
          "durationTicks": 48,
          "midi": 81,
          "name": "A5",
          "ticks": 21936,
          "time": 134.4116975,
          "velocity": 0.7874015748031497
        },
        {
          "duration": 2.352940000000018,
          "durationTicks": 384,
          "midi": 51,
          "name": "D#3",
          "ticks": 21984,
          "time": 134.705815,
          "velocity": 0.7874015748031497
        },
        {
          "duration": 2.352940000000018,
          "durationTicks": 384,
          "midi": 58,
          "name": "A#3",
          "ticks": 21984,
          "time": 134.705815,
          "velocity": 0.7874015748031497
        },
        {
          "duration": 2.352940000000018,
          "durationTicks": 384,
          "midi": 63,
          "name": "D#4",
          "ticks": 21984,
          "time": 134.705815,
          "velocity": 0.7874015748031497
        },
        {
          "duration": 0.8823525000000245,
          "durationTicks": 144,
          "midi": 82,
          "name": "A#5",
          "ticks": 21984,
          "time": 134.705815,
          "velocity": 0.7874015748031497
        },
        {
          "duration": 0.8823524999999961,
          "durationTicks": 144,
          "midi": 79,
          "name": "G5",
          "ticks": 22128,
          "time": 135.58816750000003,
          "velocity": 0.7874015748031497
        },
        {
          "duration": 0.2941174999999987,
          "durationTicks": 48,
          "midi": 81,
          "name": "A5",
          "ticks": 22272,
          "time": 136.47052000000002,
          "velocity": 0.7874015748031497
        },
        {
          "duration": 0.2941174999999987,
          "durationTicks": 48,
          "midi": 82,
          "name": "A#5",
          "ticks": 22320,
          "time": 136.76463750000002,
          "velocity": 0.7874015748031497
        },
        {
          "duration": 4.705880000000008,
          "durationTicks": 768,
          "midi": 53,
          "name": "F3",
          "ticks": 22368,
          "time": 137.05875500000002,
          "velocity": 0.7874015748031497
        },
        {
          "duration": 4.705880000000008,
          "durationTicks": 768,
          "midi": 60,
          "name": "C4",
          "ticks": 22368,
          "time": 137.05875500000002,
          "velocity": 0.7874015748031497
        },
        {
          "duration": 4.705880000000008,
          "durationTicks": 768,
          "midi": 65,
          "name": "F4",
          "ticks": 22368,
          "time": 137.05875500000002,
          "velocity": 0.7874015748031497
        },
        {
          "duration": 0.8823524999999961,
          "durationTicks": 144,
          "midi": 86,
          "name": "D6",
          "ticks": 22368,
          "time": 137.05875500000002,
          "velocity": 0.7874015748031497
        },
        {
          "duration": 1.1764699999999948,
          "durationTicks": 192,
          "midi": 84,
          "name": "C6",
          "ticks": 22512,
          "time": 137.94110750000002,
          "velocity": 0.7874015748031497
        },
        {
          "duration": 0.2941174999999987,
          "durationTicks": 48,
          "midi": 82,
          "name": "A#5",
          "ticks": 22704,
          "time": 139.1175775,
          "velocity": 0.7874015748031497
        },
        {
          "duration": 0.8823524999999961,
          "durationTicks": 144,
          "midi": 84,
          "name": "C6",
          "ticks": 22752,
          "time": 139.411695,
          "velocity": 0.7874015748031497
        },
        {
          "duration": 0.8823524999999961,
          "durationTicks": 144,
          "midi": 82,
          "name": "A#5",
          "ticks": 22896,
          "time": 140.2940475,
          "velocity": 0.7874015748031497
        },
        {
          "duration": 0.5882350000000258,
          "durationTicks": 96,
          "midi": 81,
          "name": "A5",
          "ticks": 23040,
          "time": 141.1764,
          "velocity": 0.7874015748031497
        },
        {
          "duration": 2.3529399999999896,
          "durationTicks": 384,
          "midi": 55,
          "name": "G3",
          "ticks": 23136,
          "time": 141.76463500000003,
          "velocity": 0.7874015748031497
        },
        {
          "duration": 2.3529399999999896,
          "durationTicks": 384,
          "midi": 62,
          "name": "D4",
          "ticks": 23136,
          "time": 141.76463500000003,
          "velocity": 0.7874015748031497
        },
        {
          "duration": 2.3529399999999896,
          "durationTicks": 384,
          "midi": 67,
          "name": "G4",
          "ticks": 23136,
          "time": 141.76463500000003,
          "velocity": 0.7874015748031497
        },
        {
          "duration": 0.8823524999999961,
          "durationTicks": 144,
          "midi": 82,
          "name": "A#5",
          "ticks": 23136,
          "time": 141.76463500000003,
          "velocity": 0.7874015748031497
        },
        {
          "duration": 0.8823524999999961,
          "durationTicks": 144,
          "midi": 79,
          "name": "G5",
          "ticks": 23280,
          "time": 142.64698750000002,
          "velocity": 0.7874015748031497
        },
        {
          "duration": 0.2941174999999987,
          "durationTicks": 48,
          "midi": 79,
          "name": "G5",
          "ticks": 23424,
          "time": 143.52934000000002,
          "velocity": 0.7874015748031497
        },
        {
          "duration": 0.2941174999999987,
          "durationTicks": 48,
          "midi": 81,
          "name": "A5",
          "ticks": 23472,
          "time": 143.82345750000002,
          "velocity": 0.7874015748031497
        },
        {
          "duration": 2.3529399999999896,
          "durationTicks": 384,
          "midi": 51,
          "name": "D#3",
          "ticks": 23520,
          "time": 144.11757500000002,
          "velocity": 0.7874015748031497
        },
        {
          "duration": 2.3529399999999896,
          "durationTicks": 384,
          "midi": 58,
          "name": "A#3",
          "ticks": 23520,
          "time": 144.11757500000002,
          "velocity": 0.7874015748031497
        },
        {
          "duration": 2.3529399999999896,
          "durationTicks": 384,
          "midi": 63,
          "name": "D#4",
          "ticks": 23520,
          "time": 144.11757500000002,
          "velocity": 0.7874015748031497
        },
        {
          "duration": 0.8823524999999961,
          "durationTicks": 144,
          "midi": 82,
          "name": "A#5",
          "ticks": 23520,
          "time": 144.11757500000002,
          "velocity": 0.7874015748031497
        },
        {
          "duration": 0.8823524999999961,
          "durationTicks": 144,
          "midi": 79,
          "name": "G5",
          "ticks": 23664,
          "time": 144.9999275,
          "velocity": 0.7874015748031497
        },
        {
          "duration": 0.2941174999999987,
          "durationTicks": 48,
          "midi": 81,
          "name": "A5",
          "ticks": 23808,
          "time": 145.88228,
          "velocity": 0.7874015748031497
        },
        {
          "duration": 0.2941174999999987,
          "durationTicks": 48,
          "midi": 82,
          "name": "A#5",
          "ticks": 23856,
          "time": 146.1763975,
          "velocity": 0.7874015748031497
        },
        {
          "duration": 4.705880000000008,
          "durationTicks": 768,
          "midi": 65,
          "name": "F4",
          "ticks": 23904,
          "time": 146.470515,
          "velocity": 0.7874015748031497
        },
        {
          "duration": 4.705880000000008,
          "durationTicks": 768,
          "midi": 53,
          "name": "F3",
          "ticks": 23904,
          "time": 146.470515,
          "velocity": 0.7874015748031497
        },
        {
          "duration": 4.705880000000008,
          "durationTicks": 768,
          "midi": 60,
          "name": "C4",
          "ticks": 23904,
          "time": 146.470515,
          "velocity": 0.7874015748031497
        },
        {
          "duration": 0.8823524999999961,
          "durationTicks": 144,
          "midi": 86,
          "name": "D6",
          "ticks": 23904,
          "time": 146.470515,
          "velocity": 0.7874015748031497
        },
        {
          "duration": 1.1764700000000232,
          "durationTicks": 192,
          "midi": 84,
          "name": "C6",
          "ticks": 24048,
          "time": 147.3528675,
          "velocity": 0.7874015748031497
        },
        {
          "duration": 0.2941174999999987,
          "durationTicks": 48,
          "midi": 82,
          "name": "A#5",
          "ticks": 24240,
          "time": 148.52933750000003,
          "velocity": 0.7874015748031497
        },
        {
          "duration": 0.8823524999999961,
          "durationTicks": 144,
          "midi": 84,
          "name": "C6",
          "ticks": 24288,
          "time": 148.82345500000002,
          "velocity": 0.7874015748031497
        },
        {
          "duration": 0.8823524999999961,
          "durationTicks": 144,
          "midi": 81,
          "name": "A5",
          "ticks": 24432,
          "time": 149.70580750000002,
          "velocity": 0.7874015748031497
        },
        {
          "duration": 0.5882349999999974,
          "durationTicks": 96,
          "midi": 84,
          "name": "C6",
          "ticks": 24576,
          "time": 150.58816000000002,
          "velocity": 0.7874015748031497
        },
        {
          "duration": 4.705880000000008,
          "durationTicks": 768,
          "midi": 59,
          "name": "B3",
          "ticks": 24672,
          "time": 151.176395,
          "velocity": 0.7874015748031497
        },
        {
          "duration": 4.705880000000008,
          "durationTicks": 768,
          "midi": 52,
          "name": "E3",
          "ticks": 24672,
          "time": 151.176395,
          "velocity": 0.7874015748031497
        },
        {
          "duration": 4.705880000000008,
          "durationTicks": 768,
          "midi": 64,
          "name": "E4",
          "ticks": 24672,
          "time": 151.176395,
          "velocity": 0.7874015748031497
        },
        {
          "duration": 1.7647049999999922,
          "durationTicks": 288,
          "midi": 71,
          "name": "B4",
          "ticks": 24672,
          "time": 151.176395,
          "velocity": 0.7874015748031497
        },
        {
          "duration": 0.2941174999999987,
          "durationTicks": 48,
          "midi": 71,
          "name": "B4",
          "ticks": 24960,
          "time": 152.9411,
          "velocity": 0.7874015748031497
        },
        {
          "duration": 0.2941174999999987,
          "durationTicks": 48,
          "midi": 73,
          "name": "C#5",
          "ticks": 25008,
          "time": 153.2352175,
          "velocity": 0.7874015748031497
        },
        {
          "duration": 0.8823525000000245,
          "durationTicks": 144,
          "midi": 74,
          "name": "D5",
          "ticks": 25056,
          "time": 153.529335,
          "velocity": 0.7874015748031497
        },
        {
          "duration": 0.8823524999999961,
          "durationTicks": 144,
          "midi": 73,
          "name": "C#5",
          "ticks": 25200,
          "time": 154.41168750000003,
          "velocity": 0.7874015748031497
        },
        {
          "duration": 0.5882349999999974,
          "durationTicks": 96,
          "midi": 69,
          "name": "A4",
          "ticks": 25344,
          "time": 155.29404000000002,
          "velocity": 0.7874015748031497
        },
        {
          "duration": 1.7647049999999922,
          "durationTicks": 288,
          "midi": 78,
          "name": "F#5",
          "ticks": 25440,
          "time": 155.88227500000002,
          "velocity": 0.7874015748031497
        },
        {
          "duration": 2.3529399999999896,
          "durationTicks": 384,
          "midi": 54,
          "name": "F#3",
          "ticks": 25440,
          "time": 155.88227500000002,
          "velocity": 0.7874015748031497
        },
        {
          "duration": 2.3529399999999896,
          "durationTicks": 384,
          "midi": 47,
          "name": "B2",
          "ticks": 25440,
          "time": 155.88227500000002,
          "velocity": 0.7874015748031497
        },
        {
          "duration": 2.3529399999999896,
          "durationTicks": 384,
          "midi": 59,
          "name": "B3",
          "ticks": 25440,
          "time": 155.88227500000002,
          "velocity": 0.7874015748031497
        },
        {
          "duration": 2.3529399999999896,
          "durationTicks": 384,
          "midi": 50,
          "name": "D3",
          "ticks": 26208,
          "time": 160.58815500000003,
          "velocity": 0.7874015748031497
        },
        {
          "duration": 2.3529399999999896,
          "durationTicks": 384,
          "midi": 54,
          "name": "F#3",
          "ticks": 26208,
          "time": 160.58815500000003,
          "velocity": 0.7874015748031497
        },
        {
          "duration": 0.8823524999999961,
          "durationTicks": 144,
          "midi": 71,
          "name": "B4",
          "ticks": 26208,
          "time": 160.58815500000003,
          "velocity": 0.7874015748031497
        },
        {
          "duration": 2.3529399999999896,
          "durationTicks": 384,
          "midi": 59,
          "name": "B3",
          "ticks": 26208,
          "time": 160.58815500000003,
          "velocity": 0.7874015748031497
        },
        {
          "duration": 0.8823524999999961,
          "durationTicks": 144,
          "midi": 78,
          "name": "F#5",
          "ticks": 26352,
          "time": 161.47050750000002,
          "velocity": 0.7874015748031497
        },
        {
          "duration": 0.5882349999999974,
          "durationTicks": 96,
          "midi": 71,
          "name": "B4",
          "ticks": 26496,
          "time": 162.35286000000002,
          "velocity": 0.7874015748031497
        },
        {
          "duration": 0.8823524999999961,
          "durationTicks": 144,
          "midi": 73,
          "name": "C#5",
          "ticks": 26592,
          "time": 162.94109500000002,
          "velocity": 0.7874015748031497
        },
        {
          "duration": 2.3529399999999896,
          "durationTicks": 384,
          "midi": 61,
          "name": "C#4",
          "ticks": 26592,
          "time": 162.94109500000002,
          "velocity": 0.7874015748031497
        },
        {
          "duration": 2.3529399999999896,
          "durationTicks": 384,
          "midi": 52,
          "name": "E3",
          "ticks": 26592,
          "time": 162.94109500000002,
          "velocity": 0.7874015748031497
        },
        {
          "duration": 2.3529399999999896,
          "durationTicks": 384,
          "midi": 57,
          "name": "A3",
          "ticks": 26592,
          "time": 162.94109500000002,
          "velocity": 0.7874015748031497
        },
        {
          "duration": 0.8823524999999961,
          "durationTicks": 144,
          "midi": 78,
          "name": "F#5",
          "ticks": 26736,
          "time": 163.82344750000001,
          "velocity": 0.7874015748031497
        },
        {
          "duration": 0.5882349999999974,
          "durationTicks": 96,
          "midi": 73,
          "name": "C#5",
          "ticks": 26880,
          "time": 164.7058,
          "velocity": 0.7874015748031497
        },
        {
          "duration": 2.352940000000018,
          "durationTicks": 384,
          "midi": 62,
          "name": "D4",
          "ticks": 26976,
          "time": 165.294035,
          "velocity": 0.7874015748031497
        },
        {
          "duration": 2.352940000000018,
          "durationTicks": 384,
          "midi": 59,
          "name": "B3",
          "ticks": 26976,
          "time": 165.294035,
          "velocity": 0.7874015748031497
        },
        {
          "duration": 0.8823524999999961,
          "durationTicks": 144,
          "midi": 74,
          "name": "D5",
          "ticks": 26976,
          "time": 165.294035,
          "velocity": 0.7874015748031497
        },
        {
          "duration": 2.352940000000018,
          "durationTicks": 384,
          "midi": 55,
          "name": "G3",
          "ticks": 26976,
          "time": 165.294035,
          "velocity": 0.7874015748031497
        },
        {
          "duration": 0.8823525000000245,
          "durationTicks": 144,
          "midi": 78,
          "name": "F#5",
          "ticks": 27120,
          "time": 166.1763875,
          "velocity": 0.7874015748031497
        },
        {
          "duration": 0.5882349999999974,
          "durationTicks": 96,
          "midi": 74,
          "name": "D5",
          "ticks": 27264,
          "time": 167.05874000000003,
          "velocity": 0.7874015748031497
        },
        {
          "duration": 2.3529399999999896,
          "durationTicks": 384,
          "midi": 64,
          "name": "E4",
          "ticks": 27360,
          "time": 167.64697500000003,
          "velocity": 0.7874015748031497
        },
        {
          "duration": 2.3529399999999896,
          "durationTicks": 384,
          "midi": 76,
          "name": "E5",
          "ticks": 27360,
          "time": 167.64697500000003,
          "velocity": 0.7874015748031497
        },
        {
          "duration": 2.3529399999999896,
          "durationTicks": 384,
          "midi": 59,
          "name": "B3",
          "ticks": 27360,
          "time": 167.64697500000003,
          "velocity": 0.7874015748031497
        },
        {
          "duration": 2.3529399999999896,
          "durationTicks": 384,
          "midi": 56,
          "name": "G#3",
          "ticks": 27360,
          "time": 167.64697500000003,
          "velocity": 0.7874015748031497
        },
        {
          "duration": 0.8823524999999961,
          "durationTicks": 144,
          "midi": 71,
          "name": "B4",
          "ticks": 27744,
          "time": 169.99991500000002,
          "velocity": 0.7874015748031497
        },
        {
          "duration": 2.3529399999999896,
          "durationTicks": 384,
          "midi": 50,
          "name": "D3",
          "ticks": 27744,
          "time": 169.99991500000002,
          "velocity": 0.7874015748031497
        },
        {
          "duration": 2.3529399999999896,
          "durationTicks": 384,
          "midi": 54,
          "name": "F#3",
          "ticks": 27744,
          "time": 169.99991500000002,
          "velocity": 0.7874015748031497
        },
        {
          "duration": 2.3529399999999896,
          "durationTicks": 384,
          "midi": 59,
          "name": "B3",
          "ticks": 27744,
          "time": 169.99991500000002,
          "velocity": 0.7874015748031497
        },
        {
          "duration": 0.8823524999999961,
          "durationTicks": 144,
          "midi": 78,
          "name": "F#5",
          "ticks": 27888,
          "time": 170.8822675,
          "velocity": 0.7874015748031497
        },
        {
          "duration": 0.5882349999999974,
          "durationTicks": 96,
          "midi": 71,
          "name": "B4",
          "ticks": 28032,
          "time": 171.76462,
          "velocity": 0.7874015748031497
        },
        {
          "duration": 2.352940000000018,
          "durationTicks": 384,
          "midi": 57,
          "name": "A3",
          "ticks": 28128,
          "time": 172.352855,
          "velocity": 0.7874015748031497
        },
        {
          "duration": 2.352940000000018,
          "durationTicks": 384,
          "midi": 52,
          "name": "E3",
          "ticks": 28128,
          "time": 172.352855,
          "velocity": 0.7874015748031497
        },
        {
          "duration": 2.352940000000018,
          "durationTicks": 384,
          "midi": 61,
          "name": "C#4",
          "ticks": 28128,
          "time": 172.352855,
          "velocity": 0.7874015748031497
        },
        {
          "duration": 0.8823525000000245,
          "durationTicks": 144,
          "midi": 73,
          "name": "C#5",
          "ticks": 28128,
          "time": 172.352855,
          "velocity": 0.7874015748031497
        },
        {
          "duration": 0.8823524999999961,
          "durationTicks": 144,
          "midi": 78,
          "name": "F#5",
          "ticks": 28272,
          "time": 173.23520750000003,
          "velocity": 0.7874015748031497
        },
        {
          "duration": 0.5882349999999974,
          "durationTicks": 96,
          "midi": 81,
          "name": "A5",
          "ticks": 28416,
          "time": 174.11756000000003,
          "velocity": 0.7874015748031497
        },
        {
          "duration": 2.3529399999999896,
          "durationTicks": 384,
          "midi": 55,
          "name": "G3",
          "ticks": 28512,
          "time": 174.70579500000002,
          "velocity": 0.7874015748031497
        },
        {
          "duration": 2.3529399999999896,
          "durationTicks": 384,
          "midi": 83,
          "name": "B5",
          "ticks": 28512,
          "time": 174.70579500000002,
          "velocity": 0.7874015748031497
        },
        {
          "duration": 2.3529399999999896,
          "durationTicks": 384,
          "midi": 59,
          "name": "B3",
          "ticks": 28512,
          "time": 174.70579500000002,
          "velocity": 0.7874015748031497
        },
        {
          "duration": 2.3529399999999896,
          "durationTicks": 384,
          "midi": 62,
          "name": "D4",
          "ticks": 28512,
          "time": 174.70579500000002,
          "velocity": 0.7874015748031497
        },
        {
          "duration": 2.3529399999999896,
          "durationTicks": 384,
          "midi": 50,
          "name": "D3",
          "ticks": 29280,
          "time": 179.41167500000003,
          "velocity": 0.7874015748031497
        },
        {
          "duration": 2.3529399999999896,
          "durationTicks": 384,
          "midi": 57,
          "name": "A3",
          "ticks": 29280,
          "time": 179.41167500000003,
          "velocity": 0.7874015748031497
        },
        {
          "duration": 2.3529399999999896,
          "durationTicks": 384,
          "midi": 62,
          "name": "D4",
          "ticks": 29280,
          "time": 179.41167500000003,
          "velocity": 0.7874015748031497
        },
        {
          "duration": 2.3529399999999896,
          "durationTicks": 384,
          "midi": 53,
          "name": "F3",
          "ticks": 29664,
          "time": 181.76461500000002,
          "velocity": 0.7874015748031497
        },
        {
          "duration": 2.3529399999999896,
          "durationTicks": 384,
          "midi": 60,
          "name": "C4",
          "ticks": 29664,
          "time": 181.76461500000002,
          "velocity": 0.7874015748031497
        },
        {
          "duration": 2.3529399999999896,
          "durationTicks": 384,
          "midi": 65,
          "name": "F4",
          "ticks": 29664,
          "time": 181.76461500000002,
          "velocity": 0.7874015748031497
        },
        {
          "duration": 2.352940000000018,
          "durationTicks": 384,
          "midi": 46,
          "name": "A#2",
          "ticks": 30048,
          "time": 184.117555,
          "velocity": 0.7874015748031497
        },
        {
          "duration": 2.352940000000018,
          "durationTicks": 384,
          "midi": 53,
          "name": "F3",
          "ticks": 30048,
          "time": 184.117555,
          "velocity": 0.7874015748031497
        },
        {
          "duration": 2.352940000000018,
          "durationTicks": 384,
          "midi": 58,
          "name": "A#3",
          "ticks": 30048,
          "time": 184.117555,
          "velocity": 0.7874015748031497
        },
        {
          "duration": 2.3529399999999896,
          "durationTicks": 384,
          "midi": 60,
          "name": "C4",
          "ticks": 30432,
          "time": 186.47049500000003,
          "velocity": 0.7874015748031497
        },
        {
          "duration": 2.3529399999999896,
          "durationTicks": 384,
          "midi": 55,
          "name": "G3",
          "ticks": 30432,
          "time": 186.47049500000003,
          "velocity": 0.7874015748031497
        },
        {
          "duration": 2.3529399999999896,
          "durationTicks": 384,
          "midi": 48,
          "name": "C3",
          "ticks": 30432,
          "time": 186.47049500000003,
          "velocity": 0.7874015748031497
        },
        {
          "duration": 2.3529399999999896,
          "durationTicks": 384,
          "midi": 50,
          "name": "D3",
          "ticks": 30816,
          "time": 188.82343500000002,
          "velocity": 0.7874015748031497
        },
        {
          "duration": 2.3529399999999896,
          "durationTicks": 384,
          "midi": 57,
          "name": "A3",
          "ticks": 30816,
          "time": 188.82343500000002,
          "velocity": 0.7874015748031497
        },
        {
          "duration": 2.3529399999999896,
          "durationTicks": 384,
          "midi": 62,
          "name": "D4",
          "ticks": 30816,
          "time": 188.82343500000002,
          "velocity": 0.7874015748031497
        },
        {
          "duration": 2.352940000000018,
          "durationTicks": 384,
          "midi": 53,
          "name": "F3",
          "ticks": 31200,
          "time": 191.176375,
          "velocity": 0.7874015748031497
        },
        {
          "duration": 2.352940000000018,
          "durationTicks": 384,
          "midi": 60,
          "name": "C4",
          "ticks": 31200,
          "time": 191.176375,
          "velocity": 0.7874015748031497
        },
        {
          "duration": 2.352940000000018,
          "durationTicks": 384,
          "midi": 65,
          "name": "F4",
          "ticks": 31200,
          "time": 191.176375,
          "velocity": 0.7874015748031497
        },
        {
          "duration": 2.3529399999999896,
          "durationTicks": 384,
          "midi": 58,
          "name": "A#3",
          "ticks": 31584,
          "time": 193.52931500000003,
          "velocity": 0.7874015748031497
        },
        {
          "duration": 2.3529399999999896,
          "durationTicks": 384,
          "midi": 53,
          "name": "F3",
          "ticks": 31584,
          "time": 193.52931500000003,
          "velocity": 0.7874015748031497
        },
        {
          "duration": 2.3529399999999896,
          "durationTicks": 384,
          "midi": 46,
          "name": "A#2",
          "ticks": 31584,
          "time": 193.52931500000003,
          "velocity": 0.7874015748031497
        },
        {
          "duration": 2.352940000000018,
          "durationTicks": 384,
          "midi": 55,
          "name": "G3",
          "ticks": 31968,
          "time": 195.88225500000001,
          "velocity": 0.7874015748031497
        },
        {
          "duration": 2.352940000000018,
          "durationTicks": 384,
          "midi": 48,
          "name": "C3",
          "ticks": 31968,
          "time": 195.88225500000001,
          "velocity": 0.7874015748031497
        },
        {
          "duration": 2.352940000000018,
          "durationTicks": 384,
          "midi": 60,
          "name": "C4",
          "ticks": 31968,
          "time": 195.88225500000001,
          "velocity": 0.7874015748031497
        },
        {
          "duration": 0.2941174999999987,
          "durationTicks": 48,
          "midi": 64,
          "name": "E4",
          "ticks": 32016,
          "time": 196.1763725,
          "velocity": 0.7874015748031497
        },
        {
          "duration": 0.2941174999999987,
          "durationTicks": 48,
          "midi": 64,
          "name": "E4",
          "ticks": 32064,
          "time": 196.47049,
          "velocity": 0.7874015748031497
        },
        {
          "duration": 0.2941174999999987,
          "durationTicks": 48,
          "midi": 65,
          "name": "F4",
          "ticks": 32112,
          "time": 196.7646075,
          "velocity": 0.7874015748031497
        },
        {
          "duration": 0.2941174999999987,
          "durationTicks": 48,
          "midi": 65,
          "name": "F4",
          "ticks": 32160,
          "time": 197.058725,
          "velocity": 0.7874015748031497
        },
        {
          "duration": 0.2941175000000271,
          "durationTicks": 48,
          "midi": 67,
          "name": "G4",
          "ticks": 32208,
          "time": 197.3528425,
          "velocity": 0.7874015748031497
        },
        {
          "duration": 0.2941174999999987,
          "durationTicks": 48,
          "midi": 69,
          "name": "A4",
          "ticks": 32256,
          "time": 197.64696000000004,
          "velocity": 0.7874015748031497
        },
        {
          "duration": 0.2941174999999987,
          "durationTicks": 48,
          "midi": 70,
          "name": "A#4",
          "ticks": 32304,
          "time": 197.94107750000003,
          "velocity": 0.7874015748031497
        },
        {
          "duration": 1.1764699999999948,
          "durationTicks": 192,
          "midi": 69,
          "name": "A4",
          "ticks": 32352,
          "time": 198.23519500000003,
          "velocity": 0.7874015748031497
        },
        {
          "duration": 2.3529399999999896,
          "durationTicks": 384,
          "midi": 53,
          "name": "F3",
          "ticks": 32352,
          "time": 198.23519500000003,
          "velocity": 0.7874015748031497
        },
        {
          "duration": 2.3529399999999896,
          "durationTicks": 384,
          "midi": 60,
          "name": "C4",
          "ticks": 32352,
          "time": 198.23519500000003,
          "velocity": 0.7874015748031497
        },
        {
          "duration": 2.3529399999999896,
          "durationTicks": 384,
          "midi": 65,
          "name": "F4",
          "ticks": 32352,
          "time": 198.23519500000003,
          "velocity": 0.7874015748031497
        },
        {
          "duration": 0.5882349999999974,
          "durationTicks": 96,
          "midi": 67,
          "name": "G4",
          "ticks": 32544,
          "time": 199.41166500000003,
          "velocity": 0.7874015748031497
        },
        {
          "duration": 0.5882349999999974,
          "durationTicks": 96,
          "midi": 70,
          "name": "A#4",
          "ticks": 32640,
          "time": 199.99990000000003,
          "velocity": 0.7874015748031497
        },
        {
          "duration": 1.1764699999999948,
          "durationTicks": 192,
          "midi": 69,
          "name": "A4",
          "ticks": 32736,
          "time": 200.58813500000002,
          "velocity": 0.7874015748031497
        },
        {
          "duration": 2.3529399999999896,
          "durationTicks": 384,
          "midi": 67,
          "name": "G4",
          "ticks": 32736,
          "time": 200.58813500000002,
          "velocity": 0.7874015748031497
        },
        {
          "duration": 2.3529399999999896,
          "durationTicks": 384,
          "midi": 62,
          "name": "D4",
          "ticks": 32736,
          "time": 200.58813500000002,
          "velocity": 0.7874015748031497
        },
        {
          "duration": 2.3529399999999896,
          "durationTicks": 384,
          "midi": 55,
          "name": "G3",
          "ticks": 32736,
          "time": 200.58813500000002,
          "velocity": 0.7874015748031497
        },
        {
          "duration": 0.2941174999999987,
          "durationTicks": 48,
          "midi": 64,
          "name": "E4",
          "ticks": 33072,
          "time": 202.6469575,
          "velocity": 0.7874015748031497
        },
        {
          "duration": 2.352940000000018,
          "durationTicks": 384,
          "midi": 57,
          "name": "A3",
          "ticks": 33120,
          "time": 202.941075,
          "velocity": 0.7874015748031497
        },
        {
          "duration": 2.352940000000018,
          "durationTicks": 384,
          "midi": 50,
          "name": "D3",
          "ticks": 33120,
          "time": 202.941075,
          "velocity": 0.7874015748031497
        },
        {
          "duration": 2.352940000000018,
          "durationTicks": 384,
          "midi": 62,
          "name": "D4",
          "ticks": 33120,
          "time": 202.941075,
          "velocity": 0.7874015748031497
        },
        {
          "duration": 1.7647050000000206,
          "durationTicks": 288,
          "midi": 65,
          "name": "F4",
          "ticks": 33120,
          "time": 202.941075,
          "velocity": 0.7874015748031497
        },
        {
          "duration": 0.5882349999999974,
          "durationTicks": 96,
          "midi": 60,
          "name": "C4",
          "ticks": 33408,
          "time": 204.70578000000003,
          "velocity": 0.7874015748031497
        },
        {
          "duration": 2.3529399999999896,
          "durationTicks": 384,
          "midi": 58,
          "name": "A#3",
          "ticks": 33504,
          "time": 205.29401500000003,
          "velocity": 0.7874015748031497
        },
        {
          "duration": 2.3529399999999896,
          "durationTicks": 384,
          "midi": 62,
          "name": "D4",
          "ticks": 33504,
          "time": 205.29401500000003,
          "velocity": 0.7874015748031497
        },
        {
          "duration": 2.3529399999999896,
          "durationTicks": 384,
          "midi": 53,
          "name": "F3",
          "ticks": 33504,
          "time": 205.29401500000003,
          "velocity": 0.7874015748031497
        },
        {
          "duration": 2.3529399999999896,
          "durationTicks": 384,
          "midi": 46,
          "name": "A#2",
          "ticks": 33504,
          "time": 205.29401500000003,
          "velocity": 0.7874015748031497
        },
        {
          "duration": 0.2941174999999987,
          "durationTicks": 48,
          "midi": 45,
          "name": "A2",
          "ticks": 33888,
          "time": 207.64695500000002,
          "velocity": 0.7874015748031497
        },
        {
          "duration": 0.2941174999999987,
          "durationTicks": 48,
          "midi": 52,
          "name": "E3",
          "ticks": 33888,
          "time": 207.64695500000002,
          "velocity": 0.7874015748031497
        },
        {
          "duration": 0.2941174999999987,
          "durationTicks": 48,
          "midi": 57,
          "name": "A3",
          "ticks": 33888,
          "time": 207.64695500000002,
          "velocity": 0.7874015748031497
        },
        {
          "duration": 0.2941174999999987,
          "durationTicks": 48,
          "midi": 45,
          "name": "A2",
          "ticks": 33960,
          "time": 208.08813125000003,
          "velocity": 0.7874015748031497
        },
        {
          "duration": 0.2941174999999987,
          "durationTicks": 48,
          "midi": 52,
          "name": "E3",
          "ticks": 33960,
          "time": 208.08813125000003,
          "velocity": 0.7874015748031497
        },
        {
          "duration": 0.2941174999999987,
          "durationTicks": 48,
          "midi": 57,
          "name": "A3",
          "ticks": 33960,
          "time": 208.08813125000003,
          "velocity": 0.7874015748031497
        },
        {
          "duration": 0.2941174999999987,
          "durationTicks": 48,
          "midi": 45,
          "name": "A2",
          "ticks": 34032,
          "time": 208.52930750000002,
          "velocity": 0.7874015748031497
        },
        {
          "duration": 0.2941174999999987,
          "durationTicks": 48,
          "midi": 52,
          "name": "E3",
          "ticks": 34032,
          "time": 208.52930750000002,
          "velocity": 0.7874015748031497
        },
        {
          "duration": 0.2941174999999987,
          "durationTicks": 48,
          "midi": 57,
          "name": "A3",
          "ticks": 34032,
          "time": 208.52930750000002,
          "velocity": 0.7874015748031497
        },
        {
          "duration": 0.2941174999999987,
          "durationTicks": 48,
          "midi": 45,
          "name": "A2",
          "ticks": 34104,
          "time": 208.97048375000003,
          "velocity": 0.7874015748031497
        },
        {
          "duration": 0.2941174999999987,
          "durationTicks": 48,
          "midi": 52,
          "name": "E3",
          "ticks": 34104,
          "time": 208.97048375000003,
          "velocity": 0.7874015748031497
        },
        {
          "duration": 0.2941174999999987,
          "durationTicks": 48,
          "midi": 57,
          "name": "A3",
          "ticks": 34104,
          "time": 208.97048375000003,
          "velocity": 0.7874015748031497
        },
        {
          "duration": 0.2941175000000271,
          "durationTicks": 48,
          "midi": 57,
          "name": "A3",
          "ticks": 34272,
          "time": 209.999895,
          "velocity": 0.7874015748031497
        },
        {
          "duration": 0.2941175000000271,
          "durationTicks": 48,
          "midi": 52,
          "name": "E3",
          "ticks": 34272,
          "time": 209.999895,
          "velocity": 0.7874015748031497
        },
        {
          "duration": 0.2941175000000271,
          "durationTicks": 48,
          "midi": 45,
          "name": "A2",
          "ticks": 34272,
          "time": 209.999895,
          "velocity": 0.7874015748031497
        },
        {
          "duration": 0.2941174999999987,
          "durationTicks": 48,
          "midi": 57,
          "name": "A3",
          "ticks": 34344,
          "time": 210.44107125000002,
          "velocity": 0.7874015748031497
        },
        {
          "duration": 0.2941174999999987,
          "durationTicks": 48,
          "midi": 52,
          "name": "E3",
          "ticks": 34344,
          "time": 210.44107125000002,
          "velocity": 0.7874015748031497
        },
        {
          "duration": 0.2941174999999987,
          "durationTicks": 48,
          "midi": 45,
          "name": "A2",
          "ticks": 34344,
          "time": 210.44107125000002,
          "velocity": 0.7874015748031497
        },
        {
          "duration": 0.2941174999999987,
          "durationTicks": 48,
          "midi": 57,
          "name": "A3",
          "ticks": 34416,
          "time": 210.88224750000003,
          "velocity": 0.7874015748031497
        },
        {
          "duration": 0.2941174999999987,
          "durationTicks": 48,
          "midi": 52,
          "name": "E3",
          "ticks": 34416,
          "time": 210.88224750000003,
          "velocity": 0.7874015748031497
        },
        {
          "duration": 0.2941174999999987,
          "durationTicks": 48,
          "midi": 45,
          "name": "A2",
          "ticks": 34416,
          "time": 210.88224750000003,
          "velocity": 0.7874015748031497
        },
        {
          "duration": 0.2941174999999987,
          "durationTicks": 48,
          "midi": 57,
          "name": "A3",
          "ticks": 34488,
          "time": 211.32342375000002,
          "velocity": 0.7874015748031497
        },
        {
          "duration": 0.2941174999999987,
          "durationTicks": 48,
          "midi": 52,
          "name": "E3",
          "ticks": 34488,
          "time": 211.32342375000002,
          "velocity": 0.7874015748031497
        },
        {
          "duration": 0.2941174999999987,
          "durationTicks": 48,
          "midi": 45,
          "name": "A2",
          "ticks": 34488,
          "time": 211.32342375000002,
          "velocity": 0.7874015748031497
        },
        {
          "duration": 4.705880000000008,
          "durationTicks": 768,
          "midi": 57,
          "name": "A3",
          "ticks": 34656,
          "time": 212.35283500000003,
          "velocity": 0.7874015748031497
        },
        {
          "duration": 4.705880000000008,
          "durationTicks": 768,
          "midi": 52,
          "name": "E3",
          "ticks": 34656,
          "time": 212.35283500000003,
          "velocity": 0.7874015748031497
        },
        {
          "duration": 4.705880000000008,
          "durationTicks": 768,
          "midi": 45,
          "name": "A2",
          "ticks": 34656,
          "time": 212.35283500000003,
          "velocity": 0.7874015748031497
        },
        {
          "duration": 1.1764699999999948,
          "durationTicks": 192,
          "midi": 69,
          "name": "A4",
          "ticks": 34656,
          "time": 212.35283500000003,
          "velocity": 0.7874015748031497
        },
        {
          "duration": 0.5882349999999974,
          "durationTicks": 96,
          "midi": 67,
          "name": "G4",
          "ticks": 34848,
          "time": 213.52930500000002,
          "velocity": 0.7874015748031497
        },
        {
          "duration": 0.5882349999999974,
          "durationTicks": 96,
          "midi": 70,
          "name": "A#4",
          "ticks": 34944,
          "time": 214.11754000000002,
          "velocity": 0.7874015748031497
        },
        {
          "duration": 1.1764699999999948,
          "durationTicks": 192,
          "midi": 65,
          "name": "F4",
          "ticks": 35040,
          "time": 214.70577500000002,
          "velocity": 0.7874015748031497
        },
        {
          "duration": 1.1764700000000232,
          "durationTicks": 192,
          "midi": 64,
          "name": "E4",
          "ticks": 35232,
          "time": 215.882245,
          "velocity": 0.7874015748031497
        },
        {
          "duration": 4.705879999999979,
          "durationTicks": 768,
          "midi": 52,
          "name": "E3",
          "ticks": 35424,
          "time": 217.05871500000003,
          "velocity": 0.7874015748031497
        },
        {
          "duration": 4.705879999999979,
          "durationTicks": 768,
          "midi": 57,
          "name": "A3",
          "ticks": 35424,
          "time": 217.05871500000003,
          "velocity": 0.7874015748031497
        },
        {
          "duration": 4.705879999999979,
          "durationTicks": 768,
          "midi": 45,
          "name": "A2",
          "ticks": 35424,
          "time": 217.05871500000003,
          "velocity": 0.7874015748031497
        },
        {
          "duration": 4.705880000000008,
          "durationTicks": 768,
          "midi": 45,
          "name": "A2",
          "ticks": 36192,
          "time": 221.764595,
          "velocity": 0.7874015748031497
        },
        {
          "duration": 4.705880000000008,
          "durationTicks": 768,
          "midi": 52,
          "name": "E3",
          "ticks": 36192,
          "time": 221.764595,
          "velocity": 0.7874015748031497
        },
        {
          "duration": 4.705880000000008,
          "durationTicks": 768,
          "midi": 57,
          "name": "A3",
          "ticks": 36192,
          "time": 221.764595,
          "velocity": 0.7874015748031497
        },
        {
          "duration": 1.1764700000000232,
          "durationTicks": 192,
          "midi": 69,
          "name": "A4",
          "ticks": 36192,
          "time": 221.764595,
          "velocity": 0.7874015748031497
        },
        {
          "duration": 0.5882349999999974,
          "durationTicks": 96,
          "midi": 67,
          "name": "G4",
          "ticks": 36384,
          "time": 222.94106500000004,
          "velocity": 0.7874015748031497
        },
        {
          "duration": 0.5882349999999974,
          "durationTicks": 96,
          "midi": 70,
          "name": "A#4",
          "ticks": 36480,
          "time": 223.52930000000003,
          "velocity": 0.7874015748031497
        },
        {
          "duration": 1.1764699999999948,
          "durationTicks": 192,
          "midi": 70,
          "name": "A#4",
          "ticks": 36576,
          "time": 224.11753500000003,
          "velocity": 0.7874015748031497
        },
        {
          "duration": 1.1764699999999948,
          "durationTicks": 192,
          "midi": 69,
          "name": "A4",
          "ticks": 36768,
          "time": 225.29400500000003,
          "velocity": 0.7874015748031497
        },
        {
          "duration": 4.705880000000008,
          "durationTicks": 768,
          "midi": 45,
          "name": "A2",
          "ticks": 36960,
          "time": 226.47047500000002,
          "velocity": 0.7874015748031497
        },
        {
          "duration": 4.705880000000008,
          "durationTicks": 768,
          "midi": 52,
          "name": "E3",
          "ticks": 36960,
          "time": 226.47047500000002,
          "velocity": 0.7874015748031497
        },
        {
          "duration": 4.705880000000008,
          "durationTicks": 768,
          "midi": 57,
          "name": "A3",
          "ticks": 36960,
          "time": 226.47047500000002,
          "velocity": 0.7874015748031497
        },
        {
          "duration": 0.8823524999999961,
          "durationTicks": 144,
          "midi": 67,
          "name": "G4",
          "ticks": 37728,
          "time": 231.17635500000003,
          "velocity": 0.7874015748031497
        },
        {
          "duration": 2.3529399999999896,
          "durationTicks": 384,
          "midi": 55,
          "name": "G3",
          "ticks": 37728,
          "time": 231.17635500000003,
          "velocity": 0.7874015748031497
        },
        {
          "duration": 2.3529399999999896,
          "durationTicks": 384,
          "midi": 50,
          "name": "D3",
          "ticks": 37728,
          "time": 231.17635500000003,
          "velocity": 0.7874015748031497
        },
        {
          "duration": 2.3529399999999896,
          "durationTicks": 384,
          "midi": 43,
          "name": "G2",
          "ticks": 37728,
          "time": 231.17635500000003,
          "velocity": 0.7874015748031497
        },
        {
          "duration": 0.8823524999999961,
          "durationTicks": 144,
          "midi": 70,
          "name": "A#4",
          "ticks": 37872,
          "time": 232.05870750000003,
          "velocity": 0.7874015748031497
        },
        {
          "duration": 0.5882349999999974,
          "durationTicks": 96,
          "midi": 69,
          "name": "A4",
          "ticks": 38016,
          "time": 232.94106000000002,
          "velocity": 0.7874015748031497
        },
        {
          "duration": 0.8823524999999961,
          "durationTicks": 144,
          "midi": 65,
          "name": "F4",
          "ticks": 38112,
          "time": 233.52929500000002,
          "velocity": 0.7874015748031497
        },
        {
          "duration": 2.352940000000018,
          "durationTicks": 384,
          "midi": 53,
          "name": "F3",
          "ticks": 38112,
          "time": 233.52929500000002,
          "velocity": 0.7874015748031497
        },
        {
          "duration": 2.352940000000018,
          "durationTicks": 384,
          "midi": 48,
          "name": "C3",
          "ticks": 38112,
          "time": 233.52929500000002,
          "velocity": 0.7874015748031497
        },
        {
          "duration": 2.352940000000018,
          "durationTicks": 384,
          "midi": 41,
          "name": "F2",
          "ticks": 38112,
          "time": 233.52929500000002,
          "velocity": 0.7874015748031497
        },
        {
          "duration": 0.8823525000000245,
          "durationTicks": 144,
          "midi": 70,
          "name": "A#4",
          "ticks": 38256,
          "time": 234.41164750000002,
          "velocity": 0.7874015748031497
        },
        {
          "duration": 0.5882349999999974,
          "durationTicks": 96,
          "midi": 69,
          "name": "A4",
          "ticks": 38400,
          "time": 235.29400000000004,
          "velocity": 0.7874015748031497
        },
        {
          "duration": 2.3529399999999896,
          "durationTicks": 384,
          "midi": 46,
          "name": "A#2",
          "ticks": 38496,
          "time": 235.88223500000004,
          "velocity": 0.7874015748031497
        },
        {
          "duration": 2.3529399999999896,
          "durationTicks": 384,
          "midi": 39,
          "name": "D#2",
          "ticks": 38496,
          "time": 235.88223500000004,
          "velocity": 0.7874015748031497
        },
        {
          "duration": 2.3529399999999896,
          "durationTicks": 384,
          "midi": 51,
          "name": "D#3",
          "ticks": 38496,
          "time": 235.88223500000004,
          "velocity": 0.7874015748031497
        },
        {
          "duration": 2.3529399999999896,
          "durationTicks": 384,
          "midi": 63,
          "name": "D#4",
          "ticks": 38496,
          "time": 235.88223500000004,
          "velocity": 0.7874015748031497
        },
        {
          "duration": 0.8823524999999961,
          "durationTicks": 144,
          "midi": 51,
          "name": "D#3",
          "ticks": 38880,
          "time": 238.23517500000003,
          "velocity": 0.7874015748031497
        },
        {
          "duration": 0.8823524999999961,
          "durationTicks": 144,
          "midi": 46,
          "name": "A#2",
          "ticks": 38880,
          "time": 238.23517500000003,
          "velocity": 0.7874015748031497
        },
        {
          "duration": 0.8823524999999961,
          "durationTicks": 144,
          "midi": 39,
          "name": "D#2",
          "ticks": 38880,
          "time": 238.23517500000003,
          "velocity": 0.7874015748031497
        },
        {
          "duration": 0.8823524999999961,
          "durationTicks": 144,
          "midi": 63,
          "name": "D#4",
          "ticks": 38880,
          "time": 238.23517500000003,
          "velocity": 0.7874015748031497
        },
        {
          "duration": 1.4705874999999935,
          "durationTicks": 240,
          "midi": 53,
          "name": "F3",
          "ticks": 39024,
          "time": 239.11752750000002,
          "velocity": 0.7874015748031497
        },
        {
          "duration": 1.4705874999999935,
          "durationTicks": 240,
          "midi": 48,
          "name": "C3",
          "ticks": 39024,
          "time": 239.11752750000002,
          "velocity": 0.7874015748031497
        },
        {
          "duration": 1.4705874999999935,
          "durationTicks": 240,
          "midi": 41,
          "name": "F2",
          "ticks": 39024,
          "time": 239.11752750000002,
          "velocity": 0.7874015748031497
        },
        {
          "duration": 0.8823524999999961,
          "durationTicks": 144,
          "midi": 65,
          "name": "F4",
          "ticks": 39024,
          "time": 239.11752750000002,
          "velocity": 0.7874015748031497
        },
        {
          "duration": 0.5882349999999974,
          "durationTicks": 96,
          "midi": 70,
          "name": "A#4",
          "ticks": 39168,
          "time": 239.99988000000002,
          "velocity": 0.7874015748031497
        },
        {
          "duration": 0.8823524999999961,
          "durationTicks": 144,
          "midi": 67,
          "name": "G4",
          "ticks": 39264,
          "time": 240.58811500000002,
          "velocity": 0.7874015748031497
        },
        {
          "duration": 2.352940000000018,
          "durationTicks": 384,
          "midi": 55,
          "name": "G3",
          "ticks": 39264,
          "time": 240.58811500000002,
          "velocity": 0.7874015748031497
        },
        {
          "duration": 2.352940000000018,
          "durationTicks": 384,
          "midi": 50,
          "name": "D3",
          "ticks": 39264,
          "time": 240.58811500000002,
          "velocity": 0.7874015748031497
        },
        {
          "duration": 2.352940000000018,
          "durationTicks": 384,
          "midi": 43,
          "name": "G2",
          "ticks": 39264,
          "time": 240.58811500000002,
          "velocity": 0.7874015748031497
        },
        {
          "duration": 0.8823525000000245,
          "durationTicks": 144,
          "midi": 70,
          "name": "A#4",
          "ticks": 39408,
          "time": 241.4704675,
          "velocity": 0.7874015748031497
        },
        {
          "duration": 0.5882349999999974,
          "durationTicks": 96,
          "midi": 69,
          "name": "A4",
          "ticks": 39552,
          "time": 242.35282000000004,
          "velocity": 0.7874015748031497
        },
        {
          "duration": 2.3529399999999896,
          "durationTicks": 384,
          "midi": 41,
          "name": "F2",
          "ticks": 39648,
          "time": 242.94105500000003,
          "velocity": 0.7874015748031497
        },
        {
          "duration": 2.3529399999999896,
          "durationTicks": 384,
          "midi": 48,
          "name": "C3",
          "ticks": 39648,
          "time": 242.94105500000003,
          "velocity": 0.7874015748031497
        },
        {
          "duration": 2.3529399999999896,
          "durationTicks": 384,
          "midi": 53,
          "name": "F3",
          "ticks": 39648,
          "time": 242.94105500000003,
          "velocity": 0.7874015748031497
        },
        {
          "duration": 0.8823524999999961,
          "durationTicks": 144,
          "midi": 65,
          "name": "F4",
          "ticks": 39648,
          "time": 242.94105500000003,
          "velocity": 0.7874015748031497
        },
        {
          "duration": 0.8823524999999961,
          "durationTicks": 144,
          "midi": 70,
          "name": "A#4",
          "ticks": 39792,
          "time": 243.82340750000003,
          "velocity": 0.7874015748031497
        },
        {
          "duration": 0.5882349999999974,
          "durationTicks": 96,
          "midi": 69,
          "name": "A4",
          "ticks": 39936,
          "time": 244.70576000000003,
          "velocity": 0.7874015748031497
        },
        {
          "duration": 2.3529399999999896,
          "durationTicks": 384,
          "midi": 46,
          "name": "A#2",
          "ticks": 40032,
          "time": 245.29399500000002,
          "velocity": 0.7874015748031497
        },
        {
          "duration": 2.3529399999999896,
          "durationTicks": 384,
          "midi": 39,
          "name": "D#2",
          "ticks": 40032,
          "time": 245.29399500000002,
          "velocity": 0.7874015748031497
        },
        {
          "duration": 2.3529399999999896,
          "durationTicks": 384,
          "midi": 51,
          "name": "D#3",
          "ticks": 40032,
          "time": 245.29399500000002,
          "velocity": 0.7874015748031497
        },
        {
          "duration": 2.3529399999999896,
          "durationTicks": 384,
          "midi": 63,
          "name": "D#4",
          "ticks": 40032,
          "time": 245.29399500000002,
          "velocity": 0.7874015748031497
        },
        {
          "duration": 0.8823525000000245,
          "durationTicks": 144,
          "midi": 51,
          "name": "D#3",
          "ticks": 40416,
          "time": 247.646935,
          "velocity": 0.7874015748031497
        },
        {
          "duration": 0.8823525000000245,
          "durationTicks": 144,
          "midi": 46,
          "name": "A#2",
          "ticks": 40416,
          "time": 247.646935,
          "velocity": 0.7874015748031497
        },
        {
          "duration": 0.8823525000000245,
          "durationTicks": 144,
          "midi": 39,
          "name": "D#2",
          "ticks": 40416,
          "time": 247.646935,
          "velocity": 0.7874015748031497
        },
        {
          "duration": 0.8823525000000245,
          "durationTicks": 144,
          "midi": 63,
          "name": "D#4",
          "ticks": 40416,
          "time": 247.646935,
          "velocity": 0.7874015748031497
        },
        {
          "duration": 1.4705874999999935,
          "durationTicks": 240,
          "midi": 53,
          "name": "F3",
          "ticks": 40560,
          "time": 248.52928750000004,
          "velocity": 0.7874015748031497
        },
        {
          "duration": 1.4705874999999935,
          "durationTicks": 240,
          "midi": 48,
          "name": "C3",
          "ticks": 40560,
          "time": 248.52928750000004,
          "velocity": 0.7874015748031497
        },
        {
          "duration": 1.4705874999999935,
          "durationTicks": 240,
          "midi": 41,
          "name": "F2",
          "ticks": 40560,
          "time": 248.52928750000004,
          "velocity": 0.7874015748031497
        },
        {
          "duration": 0.8823524999999961,
          "durationTicks": 144,
          "midi": 65,
          "name": "F4",
          "ticks": 40560,
          "time": 248.52928750000004,
          "velocity": 0.7874015748031497
        },
        {
          "duration": 0.5882349999999974,
          "durationTicks": 96,
          "midi": 67,
          "name": "G4",
          "ticks": 40704,
          "time": 249.41164000000003,
          "velocity": 0.7874015748031497
        },
        {
          "duration": 2.3529399999999896,
          "durationTicks": 384,
          "midi": 48,
          "name": "C3",
          "ticks": 40800,
          "time": 249.99987500000003,
          "velocity": 0.7874015748031497
        },
        {
          "duration": 2.3529399999999896,
          "durationTicks": 384,
          "midi": 55,
          "name": "G3",
          "ticks": 40800,
          "time": 249.99987500000003,
          "velocity": 0.7874015748031497
        },
        {
          "duration": 2.3529399999999896,
          "durationTicks": 384,
          "midi": 60,
          "name": "C4",
          "ticks": 40800,
          "time": 249.99987500000003,
          "velocity": 0.7874015748031497
        },
        {
          "duration": 0.8823524999999961,
          "durationTicks": 144,
          "midi": 67,
          "name": "G4",
          "ticks": 40800,
          "time": 249.99987500000003,
          "velocity": 0.7874015748031497
        },
        {
          "duration": 0.8823524999999961,
          "durationTicks": 144,
          "midi": 79,
          "name": "G5",
          "ticks": 40944,
          "time": 250.88222750000003,
          "velocity": 0.7874015748031497
        },
        {
          "duration": 0.5882349999999974,
          "durationTicks": 96,
          "midi": 82,
          "name": "A#5",
          "ticks": 41088,
          "time": 251.76458000000002,
          "velocity": 0.7874015748031497
        },
        {
          "duration": 2.352940000000018,
          "durationTicks": 384,
          "midi": 50,
          "name": "D3",
          "ticks": 41184,
          "time": 252.35281500000002,
          "velocity": 0.7874015748031497
        },
        {
          "duration": 2.352940000000018,
          "durationTicks": 384,
          "midi": 57,
          "name": "A3",
          "ticks": 41184,
          "time": 252.35281500000002,
          "velocity": 0.7874015748031497
        },
        {
          "duration": 2.352940000000018,
          "durationTicks": 384,
          "midi": 62,
          "name": "D4",
          "ticks": 41184,
          "time": 252.35281500000002,
          "velocity": 0.7874015748031497
        },
        {
          "duration": 0.8823524999999961,
          "durationTicks": 144,
          "midi": 81,
          "name": "A5",
          "ticks": 41184,
          "time": 252.35281500000002,
          "velocity": 0.7874015748031497
        },
        {
          "duration": 0.8823524999999961,
          "durationTicks": 144,
          "midi": 77,
          "name": "F5",
          "ticks": 41328,
          "time": 253.23516750000002,
          "velocity": 0.7874015748031497
        },
        {
          "duration": 0.2941175000000271,
          "durationTicks": 48,
          "midi": 79,
          "name": "G5",
          "ticks": 41472,
          "time": 254.11752,
          "velocity": 0.7874015748031497
        },
        {
          "duration": 0.2941174999999987,
          "durationTicks": 48,
          "midi": 81,
          "name": "A5",
          "ticks": 41520,
          "time": 254.41163750000004,
          "velocity": 0.7874015748031497
        },
        {
          "duration": 0.8823524999999961,
          "durationTicks": 144,
          "midi": 79,
          "name": "G5",
          "ticks": 41568,
          "time": 254.70575500000004,
          "velocity": 0.7874015748031497
        },
        {
          "duration": 2.352939999999961,
          "durationTicks": 384,
          "midi": 63,
          "name": "D#4",
          "ticks": 41568,
          "time": 254.70575500000004,
          "velocity": 0.7874015748031497
        },
        {
          "duration": 2.352939999999961,
          "durationTicks": 384,
          "midi": 58,
          "name": "A#3",
          "ticks": 41568,
          "time": 254.70575500000004,
          "velocity": 0.7874015748031497
        },
        {
          "duration": 2.352939999999961,
          "durationTicks": 384,
          "midi": 51,
          "name": "D#3",
          "ticks": 41568,
          "time": 254.70575500000004,
          "velocity": 0.7874015748031497
        },
        {
          "duration": 0.8823524999999677,
          "durationTicks": 144,
          "midi": 82,
          "name": "A#5",
          "ticks": 41712,
          "time": 255.58810750000004,
          "velocity": 0.7874015748031497
        },
        {
          "duration": 0.5882349999999974,
          "durationTicks": 96,
          "midi": 86,
          "name": "D6",
          "ticks": 41856,
          "time": 256.47046,
          "velocity": 0.7874015748031497
        },
        {
          "duration": 1.764705000000049,
          "durationTicks": 288,
          "midi": 84,
          "name": "C6",
          "ticks": 41952,
          "time": 257.058695,
          "velocity": 0.7874015748031497
        },
        {
          "duration": 2.3529400000000464,
          "durationTicks": 384,
          "midi": 65,
          "name": "F4",
          "ticks": 41952,
          "time": 257.058695,
          "velocity": 0.7874015748031497
        },
        {
          "duration": 2.3529400000000464,
          "durationTicks": 384,
          "midi": 60,
          "name": "C4",
          "ticks": 41952,
          "time": 257.058695,
          "velocity": 0.7874015748031497
        },
        {
          "duration": 2.3529400000000464,
          "durationTicks": 384,
          "midi": 53,
          "name": "F3",
          "ticks": 41952,
          "time": 257.058695,
          "velocity": 0.7874015748031497
        },
        {
          "duration": 0.2941174999999703,
          "durationTicks": 48,
          "midi": 82,
          "name": "A#5",
          "ticks": 42240,
          "time": 258.82340000000005,
          "velocity": 0.7874015748031497
        },
        {
          "duration": 0.2941175000000271,
          "durationTicks": 48,
          "midi": 81,
          "name": "A5",
          "ticks": 42288,
          "time": 259.1175175,
          "velocity": 0.7874015748031497
        },
        {
          "duration": 2.3529399999999896,
          "durationTicks": 384,
          "midi": 55,
          "name": "G3",
          "ticks": 42336,
          "time": 259.41163500000005,
          "velocity": 0.7874015748031497
        },
        {
          "duration": 2.3529399999999896,
          "durationTicks": 384,
          "midi": 62,
          "name": "D4",
          "ticks": 42336,
          "time": 259.41163500000005,
          "velocity": 0.7874015748031497
        },
        {
          "duration": 2.3529399999999896,
          "durationTicks": 384,
          "midi": 67,
          "name": "G4",
          "ticks": 42336,
          "time": 259.41163500000005,
          "velocity": 0.7874015748031497
        },
        {
          "duration": 0.8823524999999677,
          "durationTicks": 144,
          "midi": 82,
          "name": "A#5",
          "ticks": 42336,
          "time": 259.41163500000005,
          "velocity": 0.7874015748031497
        },
        {
          "duration": 0.8823525000000245,
          "durationTicks": 144,
          "midi": 79,
          "name": "G5",
          "ticks": 42480,
          "time": 260.2939875,
          "velocity": 0.7874015748031497
        },
        {
          "duration": 0.2941174999999703,
          "durationTicks": 48,
          "midi": 79,
          "name": "G5",
          "ticks": 42624,
          "time": 261.17634000000004,
          "velocity": 0.7874015748031497
        },
        {
          "duration": 0.2941175000000271,
          "durationTicks": 48,
          "midi": 81,
          "name": "A5",
          "ticks": 42672,
          "time": 261.4704575,
          "velocity": 0.7874015748031497
        },
        {
          "duration": 2.3529399999999896,
          "durationTicks": 384,
          "midi": 51,
          "name": "D#3",
          "ticks": 42720,
          "time": 261.76457500000004,
          "velocity": 0.7874015748031497
        },
        {
          "duration": 2.3529399999999896,
          "durationTicks": 384,
          "midi": 58,
          "name": "A#3",
          "ticks": 42720,
          "time": 261.76457500000004,
          "velocity": 0.7874015748031497
        },
        {
          "duration": 2.3529399999999896,
          "durationTicks": 384,
          "midi": 63,
          "name": "D#4",
          "ticks": 42720,
          "time": 261.76457500000004,
          "velocity": 0.7874015748031497
        },
        {
          "duration": 0.8823524999999677,
          "durationTicks": 144,
          "midi": 82,
          "name": "A#5",
          "ticks": 42720,
          "time": 261.76457500000004,
          "velocity": 0.7874015748031497
        },
        {
          "duration": 0.8823525000000245,
          "durationTicks": 144,
          "midi": 79,
          "name": "G5",
          "ticks": 42864,
          "time": 262.6469275,
          "velocity": 0.7874015748031497
        },
        {
          "duration": 0.2941175000000271,
          "durationTicks": 48,
          "midi": 81,
          "name": "A5",
          "ticks": 43008,
          "time": 263.52928,
          "velocity": 0.7874015748031497
        },
        {
          "duration": 0.2941174999999703,
          "durationTicks": 48,
          "midi": 82,
          "name": "A#5",
          "ticks": 43056,
          "time": 263.82339750000006,
          "velocity": 0.7874015748031497
        },
        {
          "duration": 4.705879999999979,
          "durationTicks": 768,
          "midi": 53,
          "name": "F3",
          "ticks": 43104,
          "time": 264.117515,
          "velocity": 0.7874015748031497
        },
        {
          "duration": 4.705879999999979,
          "durationTicks": 768,
          "midi": 60,
          "name": "C4",
          "ticks": 43104,
          "time": 264.117515,
          "velocity": 0.7874015748031497
        },
        {
          "duration": 4.705879999999979,
          "durationTicks": 768,
          "midi": 65,
          "name": "F4",
          "ticks": 43104,
          "time": 264.117515,
          "velocity": 0.7874015748031497
        },
        {
          "duration": 0.8823525000000245,
          "durationTicks": 144,
          "midi": 86,
          "name": "D6",
          "ticks": 43104,
          "time": 264.117515,
          "velocity": 0.7874015748031497
        },
        {
          "duration": 1.1764699999999948,
          "durationTicks": 192,
          "midi": 84,
          "name": "C6",
          "ticks": 43248,
          "time": 264.99986750000005,
          "velocity": 0.7874015748031497
        },
        {
          "duration": 0.2941174999999703,
          "durationTicks": 48,
          "midi": 82,
          "name": "A#5",
          "ticks": 43440,
          "time": 266.17633750000005,
          "velocity": 0.7874015748031497
        },
        {
          "duration": 0.8823525000000245,
          "durationTicks": 144,
          "midi": 84,
          "name": "C6",
          "ticks": 43488,
          "time": 266.470455,
          "velocity": 0.7874015748031497
        },
        {
          "duration": 0.8823524999999677,
          "durationTicks": 144,
          "midi": 82,
          "name": "A#5",
          "ticks": 43632,
          "time": 267.35280750000004,
          "velocity": 0.7874015748031497
        },
        {
          "duration": 0.5882349999999974,
          "durationTicks": 96,
          "midi": 81,
          "name": "A5",
          "ticks": 43776,
          "time": 268.23516,
          "velocity": 0.7874015748031497
        },
        {
          "duration": 2.3529400000000464,
          "durationTicks": 384,
          "midi": 55,
          "name": "G3",
          "ticks": 43872,
          "time": 268.823395,
          "velocity": 0.7874015748031497
        },
        {
          "duration": 2.3529400000000464,
          "durationTicks": 384,
          "midi": 62,
          "name": "D4",
          "ticks": 43872,
          "time": 268.823395,
          "velocity": 0.7874015748031497
        },
        {
          "duration": 2.3529400000000464,
          "durationTicks": 384,
          "midi": 67,
          "name": "G4",
          "ticks": 43872,
          "time": 268.823395,
          "velocity": 0.7874015748031497
        },
        {
          "duration": 0.8823525000000245,
          "durationTicks": 144,
          "midi": 82,
          "name": "A#5",
          "ticks": 43872,
          "time": 268.823395,
          "velocity": 0.7874015748031497
        },
        {
          "duration": 0.8823525000000245,
          "durationTicks": 144,
          "midi": 79,
          "name": "G5",
          "ticks": 44016,
          "time": 269.70574750000003,
          "velocity": 0.7874015748031497
        },
        {
          "duration": 0.2941174999999703,
          "durationTicks": 48,
          "midi": 79,
          "name": "G5",
          "ticks": 44160,
          "time": 270.58810000000005,
          "velocity": 0.7874015748031497
        },
        {
          "duration": 0.2941175000000271,
          "durationTicks": 48,
          "midi": 81,
          "name": "A5",
          "ticks": 44208,
          "time": 270.8822175,
          "velocity": 0.7874015748031497
        },
        {
          "duration": 2.3529399999999896,
          "durationTicks": 384,
          "midi": 51,
          "name": "D#3",
          "ticks": 44256,
          "time": 271.17633500000005,
          "velocity": 0.7874015748031497
        },
        {
          "duration": 2.3529399999999896,
          "durationTicks": 384,
          "midi": 58,
          "name": "A#3",
          "ticks": 44256,
          "time": 271.17633500000005,
          "velocity": 0.7874015748031497
        },
        {
          "duration": 2.3529399999999896,
          "durationTicks": 384,
          "midi": 63,
          "name": "D#4",
          "ticks": 44256,
          "time": 271.17633500000005,
          "velocity": 0.7874015748031497
        },
        {
          "duration": 0.8823524999999677,
          "durationTicks": 144,
          "midi": 82,
          "name": "A#5",
          "ticks": 44256,
          "time": 271.17633500000005,
          "velocity": 0.7874015748031497
        },
        {
          "duration": 0.8823525000000245,
          "durationTicks": 144,
          "midi": 79,
          "name": "G5",
          "ticks": 44400,
          "time": 272.0586875,
          "velocity": 0.7874015748031497
        },
        {
          "duration": 0.2941174999999703,
          "durationTicks": 48,
          "midi": 81,
          "name": "A5",
          "ticks": 44544,
          "time": 272.94104000000004,
          "velocity": 0.7874015748031497
        },
        {
          "duration": 0.2941175000000271,
          "durationTicks": 48,
          "midi": 82,
          "name": "A#5",
          "ticks": 44592,
          "time": 273.2351575,
          "velocity": 0.7874015748031497
        },
        {
          "duration": 4.705879999999979,
          "durationTicks": 768,
          "midi": 65,
          "name": "F4",
          "ticks": 44640,
          "time": 273.52927500000004,
          "velocity": 0.7874015748031497
        },
        {
          "duration": 4.705879999999979,
          "durationTicks": 768,
          "midi": 53,
          "name": "F3",
          "ticks": 44640,
          "time": 273.52927500000004,
          "velocity": 0.7874015748031497
        },
        {
          "duration": 4.705879999999979,
          "durationTicks": 768,
          "midi": 60,
          "name": "C4",
          "ticks": 44640,
          "time": 273.52927500000004,
          "velocity": 0.7874015748031497
        },
        {
          "duration": 0.8823524999999677,
          "durationTicks": 144,
          "midi": 86,
          "name": "D6",
          "ticks": 44640,
          "time": 273.52927500000004,
          "velocity": 0.7874015748031497
        },
        {
          "duration": 1.1764699999999948,
          "durationTicks": 192,
          "midi": 84,
          "name": "C6",
          "ticks": 44784,
          "time": 274.4116275,
          "velocity": 0.7874015748031497
        },
        {
          "duration": 0.2941175000000271,
          "durationTicks": 48,
          "midi": 82,
          "name": "A#5",
          "ticks": 44976,
          "time": 275.5880975,
          "velocity": 0.7874015748031497
        },
        {
          "duration": 0.8823525000000245,
          "durationTicks": 144,
          "midi": 84,
          "name": "C6",
          "ticks": 45024,
          "time": 275.88221500000003,
          "velocity": 0.7874015748031497
        },
        {
          "duration": 0.8823524999999677,
          "durationTicks": 144,
          "midi": 81,
          "name": "A5",
          "ticks": 45168,
          "time": 276.76456750000006,
          "velocity": 0.7874015748031497
        },
        {
          "duration": 0.5882349999999974,
          "durationTicks": 96,
          "midi": 84,
          "name": "C6",
          "ticks": 45312,
          "time": 277.64692,
          "velocity": 0.7874015748031497
        },
        {
          "duration": 4.705880000000036,
          "durationTicks": 768,
          "midi": 59,
          "name": "B3",
          "ticks": 45408,
          "time": 278.235155,
          "velocity": 0.7874015748031497
        },
        {
          "duration": 4.705880000000036,
          "durationTicks": 768,
          "midi": 52,
          "name": "E3",
          "ticks": 45408,
          "time": 278.235155,
          "velocity": 0.7874015748031497
        },
        {
          "duration": 4.705880000000036,
          "durationTicks": 768,
          "midi": 64,
          "name": "E4",
          "ticks": 45408,
          "time": 278.235155,
          "velocity": 0.7874015748031497
        },
        {
          "duration": 1.7647049999999922,
          "durationTicks": 288,
          "midi": 71,
          "name": "B4",
          "ticks": 45408,
          "time": 278.235155,
          "velocity": 0.7874015748031497
        },
        {
          "duration": 0.2941175000000271,
          "durationTicks": 48,
          "midi": 71,
          "name": "B4",
          "ticks": 45696,
          "time": 279.99986,
          "velocity": 0.7874015748031497
        },
        {
          "duration": 0.2941174999999703,
          "durationTicks": 48,
          "midi": 73,
          "name": "C#5",
          "ticks": 45744,
          "time": 280.29397750000004,
          "velocity": 0.7874015748031497
        },
        {
          "duration": 0.8823525000000245,
          "durationTicks": 144,
          "midi": 74,
          "name": "D5",
          "ticks": 45792,
          "time": 280.588095,
          "velocity": 0.7874015748031497
        },
        {
          "duration": 0.8823524999999677,
          "durationTicks": 144,
          "midi": 73,
          "name": "C#5",
          "ticks": 45936,
          "time": 281.47044750000003,
          "velocity": 0.7874015748031497
        },
        {
          "duration": 0.5882350000000542,
          "durationTicks": 96,
          "midi": 69,
          "name": "A4",
          "ticks": 46080,
          "time": 282.3528,
          "velocity": 0.7874015748031497
        },
        {
          "duration": 1.7647049999999922,
          "durationTicks": 288,
          "midi": 78,
          "name": "F#5",
          "ticks": 46176,
          "time": 282.94103500000006,
          "velocity": 0.7874015748031497
        },
        {
          "duration": 2.3529399999999896,
          "durationTicks": 384,
          "midi": 54,
          "name": "F#3",
          "ticks": 46176,
          "time": 282.94103500000006,
          "velocity": 0.7874015748031497
        },
        {
          "duration": 2.3529399999999896,
          "durationTicks": 384,
          "midi": 47,
          "name": "B2",
          "ticks": 46176,
          "time": 282.94103500000006,
          "velocity": 0.7874015748031497
        },
        {
          "duration": 2.3529399999999896,
          "durationTicks": 384,
          "midi": 59,
          "name": "B3",
          "ticks": 46176,
          "time": 282.94103500000006,
          "velocity": 0.7874015748031497
        },
        {
          "duration": 0.2941174999999703,
          "durationTicks": 48,
          "midi": 71,
          "name": "B4",
          "ticks": 46944,
          "time": 287.64691500000004,
          "velocity": 0.7874015748031497
        },
        {
          "duration": 0.2941174999999703,
          "durationTicks": 48,
          "midi": 66,
          "name": "F#4",
          "ticks": 46944,
          "time": 287.64691500000004,
          "velocity": 0.7874015748031497
        },
        {
          "duration": 0.2941174999999703,
          "durationTicks": 48,
          "midi": 54,
          "name": "F#3",
          "ticks": 46944,
          "time": 287.64691500000004,
          "velocity": 0.7874015748031497
        },
        {
          "duration": 0.2941174999999703,
          "durationTicks": 48,
          "midi": 59,
          "name": "B3",
          "ticks": 46944,
          "time": 287.64691500000004,
          "velocity": 0.7874015748031497
        },
        {
          "duration": 0.2941174999999703,
          "durationTicks": 48,
          "midi": 71,
          "name": "B4",
          "ticks": 47016,
          "time": 288.08809125000005,
          "velocity": 0.7874015748031497
        },
        {
          "duration": 0.2941174999999703,
          "durationTicks": 48,
          "midi": 59,
          "name": "B3",
          "ticks": 47016,
          "time": 288.08809125000005,
          "velocity": 0.7874015748031497
        },
        {
          "duration": 0.2941174999999703,
          "durationTicks": 48,
          "midi": 54,
          "name": "F#3",
          "ticks": 47016,
          "time": 288.08809125000005,
          "velocity": 0.7874015748031497
        },
        {
          "duration": 0.2941174999999703,
          "durationTicks": 48,
          "midi": 66,
          "name": "F#4",
          "ticks": 47016,
          "time": 288.08809125000005,
          "velocity": 0.7874015748031497
        },
        {
          "duration": 0.2941175000000271,
          "durationTicks": 48,
          "midi": 66,
          "name": "F#4",
          "ticks": 47088,
          "time": 288.5292675,
          "velocity": 0.7874015748031497
        },
        {
          "duration": 0.2941175000000271,
          "durationTicks": 48,
          "midi": 54,
          "name": "F#3",
          "ticks": 47088,
          "time": 288.5292675,
          "velocity": 0.7874015748031497
        },
        {
          "duration": 0.2941175000000271,
          "durationTicks": 48,
          "midi": 59,
          "name": "B3",
          "ticks": 47088,
          "time": 288.5292675,
          "velocity": 0.7874015748031497
        },
        {
          "duration": 0.2941175000000271,
          "durationTicks": 48,
          "midi": 71,
          "name": "B4",
          "ticks": 47088,
          "time": 288.5292675,
          "velocity": 0.7874015748031497
        },
        {
          "duration": 0.2941175000000271,
          "durationTicks": 48,
          "midi": 54,
          "name": "F#3",
          "ticks": 47160,
          "time": 288.97044375,
          "velocity": 0.7874015748031497
        },
        {
          "duration": 0.2941175000000271,
          "durationTicks": 48,
          "midi": 66,
          "name": "F#4",
          "ticks": 47160,
          "time": 288.97044375,
          "velocity": 0.7874015748031497
        },
        {
          "duration": 0.2941175000000271,
          "durationTicks": 48,
          "midi": 59,
          "name": "B3",
          "ticks": 47160,
          "time": 288.97044375,
          "velocity": 0.7874015748031497
        },
        {
          "duration": 0.2941175000000271,
          "durationTicks": 48,
          "midi": 71,
          "name": "B4",
          "ticks": 47160,
          "time": 288.97044375,
          "velocity": 0.7874015748031497
        },
        {
          "duration": 0.2941175000000271,
          "durationTicks": 48,
          "midi": 71,
          "name": "B4",
          "ticks": 47328,
          "time": 289.999855,
          "velocity": 0.7874015748031497
        },
        {
          "duration": 0.2941175000000271,
          "durationTicks": 48,
          "midi": 59,
          "name": "B3",
          "ticks": 47328,
          "time": 289.999855,
          "velocity": 0.7874015748031497
        },
        {
          "duration": 0.2941175000000271,
          "durationTicks": 48,
          "midi": 54,
          "name": "F#3",
          "ticks": 47328,
          "time": 289.999855,
          "velocity": 0.7874015748031497
        },
        {
          "duration": 0.2941175000000271,
          "durationTicks": 48,
          "midi": 66,
          "name": "F#4",
          "ticks": 47328,
          "time": 289.999855,
          "velocity": 0.7874015748031497
        },
        {
          "duration": 0.2941174999999703,
          "durationTicks": 48,
          "midi": 71,
          "name": "B4",
          "ticks": 47400,
          "time": 290.44103125000004,
          "velocity": 0.7874015748031497
        },
        {
          "duration": 0.2941174999999703,
          "durationTicks": 48,
          "midi": 66,
          "name": "F#4",
          "ticks": 47400,
          "time": 290.44103125000004,
          "velocity": 0.7874015748031497
        },
        {
          "duration": 0.2941174999999703,
          "durationTicks": 48,
          "midi": 54,
          "name": "F#3",
          "ticks": 47400,
          "time": 290.44103125000004,
          "velocity": 0.7874015748031497
        },
        {
          "duration": 0.2941174999999703,
          "durationTicks": 48,
          "midi": 59,
          "name": "B3",
          "ticks": 47400,
          "time": 290.44103125000004,
          "velocity": 0.7874015748031497
        },
        {
          "duration": 0.2941174999999703,
          "durationTicks": 48,
          "midi": 59,
          "name": "B3",
          "ticks": 47472,
          "time": 290.88220750000005,
          "velocity": 0.7874015748031497
        },
        {
          "duration": 0.2941174999999703,
          "durationTicks": 48,
          "midi": 66,
          "name": "F#4",
          "ticks": 47472,
          "time": 290.88220750000005,
          "velocity": 0.7874015748031497
        },
        {
          "duration": 0.2941174999999703,
          "durationTicks": 48,
          "midi": 54,
          "name": "F#3",
          "ticks": 47472,
          "time": 290.88220750000005,
          "velocity": 0.7874015748031497
        },
        {
          "duration": 0.2941174999999703,
          "durationTicks": 48,
          "midi": 71,
          "name": "B4",
          "ticks": 47472,
          "time": 290.88220750000005,
          "velocity": 0.7874015748031497
        },
        {
          "duration": 0.2941175000000271,
          "durationTicks": 48,
          "midi": 59,
          "name": "B3",
          "ticks": 47544,
          "time": 291.32338375,
          "velocity": 0.7874015748031497
        },
        {
          "duration": 0.2941175000000271,
          "durationTicks": 48,
          "midi": 66,
          "name": "F#4",
          "ticks": 47544,
          "time": 291.32338375,
          "velocity": 0.7874015748031497
        },
        {
          "duration": 0.2941175000000271,
          "durationTicks": 48,
          "midi": 54,
          "name": "F#3",
          "ticks": 47544,
          "time": 291.32338375,
          "velocity": 0.7874015748031497
        },
        {
          "duration": 0.2941175000000271,
          "durationTicks": 48,
          "midi": 71,
          "name": "B4",
          "ticks": 47544,
          "time": 291.32338375,
          "velocity": 0.7874015748031497
        }
      ]
    },
    {
      "channel": 0,
      "controlChanges": {
        "6": [
          {
            "number": 6,
            "ticks": 0,
            "time": 0,
            "value": 0.09448818897637795
          }
        ],
        "7": [
          {
            "number": 7,
            "ticks": 0,
            "time": 0,
            "value": 0.6456692913385826
          },
          {
            "number": 7,
            "ticks": 0,
            "time": 0,
            "value": 0.6456692913385826
          }
        ],
        "10": [
          {
            "number": 10,
            "ticks": 0,
            "time": 0,
            "value": 0.5039370078740157
          },
          {
            "number": 10,
            "ticks": 0,
            "time": 0,
            "value": 0.5039370078740157
          }
        ],
        "100": [
          {
            "number": 100,
            "ticks": 0,
            "time": 0,
            "value": 0
          }
        ],
        "101": [
          {
            "number": 101,
            "ticks": 0,
            "time": 0,
            "value": 0
          }
        ]
      },
      "pitchBends": [
        {
          "ticks": 0,
          "time": 0,
          "value": 0
        },
        {
          "ticks": 0,
          "time": 0,
          "value": 0
        }
      ],
      "instrument": {
        "family": "piano",
        "number": 0,
        "name": "acoustic grand piano"
      },
      "name": "French Horn",
      "notes": [],
      "endOfTrackTicks": 48052
    },
    {
      "channel": 4,
      "controlChanges": {
        "6": [
          {
            "number": 6,
            "ticks": 0,
            "time": 0,
            "value": 0.09448818897637795
          },
          {
            "number": 6,
            "ticks": 0,
            "time": 0,
            "value": 0.09448818897637795
          },
          {
            "number": 6,
            "ticks": 48000,
            "time": 294.1175,
            "value": 0.09448818897637795
          },
          {
            "number": 6,
            "ticks": 48052,
            "time": 294.4361272916667,
            "value": 0.09448818897637795
          }
        ],
        "7": [
          {
            "number": 7,
            "ticks": 0,
            "time": 0,
            "value": 0.6456692913385826
          },
          {
            "number": 7,
            "ticks": 0,
            "time": 0,
            "value": 0.6456692913385826
          },
          {
            "number": 7,
            "ticks": 48000,
            "time": 294.1175,
            "value": 0.6456692913385826
          },
          {
            "number": 7,
            "ticks": 48052,
            "time": 294.4361272916667,
            "value": 0.6456692913385826
          }
        ],
        "10": [
          {
            "number": 10,
            "ticks": 0,
            "time": 0,
            "value": 0.5039370078740157
          },
          {
            "number": 10,
            "ticks": 0,
            "time": 0,
            "value": 0.5039370078740157
          },
          {
            "number": 10,
            "ticks": 0,
            "time": 0,
            "value": 0.5039370078740157
          },
          {
            "number": 10,
            "ticks": 0,
            "time": 0,
            "value": 0.5039370078740157
          },
          {
            "number": 10,
            "ticks": 25824,
            "time": 158.235215,
            "value": 0.5039370078740157
          },
          {
            "number": 10,
            "ticks": 48000,
            "time": 294.1175,
            "value": 0.5039370078740157
          },
          {
            "number": 10,
            "ticks": 48051,
            "time": 294.42999984375,
            "value": 0.5039370078740157
          },
          {
            "number": 10,
            "ticks": 48052,
            "time": 294.4361272916667,
            "value": 0.5039370078740157
          }
        ],
        "91": [
          {
            "number": 91,
            "ticks": 0,
            "time": 0,
            "value": 0
          },
          {
            "number": 91,
            "ticks": 0,
            "time": 0,
            "value": 0
          },
          {
            "number": 91,
            "ticks": 0,
            "time": 0,
            "value": 0
          },
          {
            "number": 91,
            "ticks": 0,
            "time": 0,
            "value": 0
          },
          {
            "number": 91,
            "ticks": 0,
            "time": 0,
            "value": 0
          },
          {
            "number": 91,
            "ticks": 25824,
            "time": 158.235215,
            "value": 0
          },
          {
            "number": 91,
            "ticks": 48000,
            "time": 294.1175,
            "value": 0
          },
          {
            "number": 91,
            "ticks": 48051,
            "time": 294.42999984375,
            "value": 0
          },
          {
            "number": 91,
            "ticks": 48052,
            "time": 294.4361272916667,
            "value": 0
          }
        ],
        "100": [
          {
            "number": 100,
            "ticks": 0,
            "time": 0,
            "value": 0
          },
          {
            "number": 100,
            "ticks": 0,
            "time": 0,
            "value": 0
          },
          {
            "number": 100,
            "ticks": 48000,
            "time": 294.1175,
            "value": 0
          },
          {
            "number": 100,
            "ticks": 48052,
            "time": 294.4361272916667,
            "value": 0
          }
        ],
        "101": [
          {
            "number": 101,
            "ticks": 0,
            "time": 0,
            "value": 0
          },
          {
            "number": 101,
            "ticks": 0,
            "time": 0,
            "value": 0
          },
          {
            "number": 101,
            "ticks": 48000,
            "time": 294.1175,
            "value": 0
          },
          {
            "number": 101,
            "ticks": 48052,
            "time": 294.4361272916667,
            "value": 0
          }
        ]
      },
      "pitchBends": [
        {
          "ticks": 0,
          "time": 0,
          "value": 0
        },
        {
          "ticks": 0,
          "time": 0,
          "value": 0
        },
        {
          "ticks": 0,
          "time": 0,
          "value": 0
        },
        {
          "ticks": 0,
          "time": 0,
          "value": 0
        },
        {
          "ticks": 25824,
          "time": 158.235215,
          "value": 0
        },
        {
          "ticks": 48000,
          "time": 294.1175,
          "value": 0
        },
        {
          "ticks": 48051,
          "time": 294.42999984375,
          "value": 0
        },
        {
          "ticks": 48052,
          "time": 294.4361272916667,
          "value": 0
        }
      ],
      "instrument": {
        "family": "brass",
        "number": 60,
        "name": "french horn"
      },
      "name": "",
      "notes": [
        {
          "duration": 0.5882350000000001,
          "durationTicks": 96,
          "midi": 54,
          "name": "F#3",
          "ticks": 96,
          "time": 0.5882350000000001,
          "velocity": 0.7874015748031497
        },
        {
          "duration": 0.29411750000000003,
          "durationTicks": 48,
          "midi": 52,
          "name": "E3",
          "ticks": 192,
          "time": 1.1764700000000001,
          "velocity": 0.7874015748031497
        },
        {
          "duration": 0.8823525000000001,
          "durationTicks": 144,
          "midi": 54,
          "name": "F#3",
          "ticks": 240,
          "time": 1.4705875000000002,
          "velocity": 0.7874015748031497
        },
        {
          "duration": 0.5882350000000001,
          "durationTicks": 96,
          "midi": 54,
          "name": "F#3",
          "ticks": 480,
          "time": 2.9411750000000003,
          "velocity": 0.7874015748031497
        },
        {
          "duration": 0.29411750000000003,
          "durationTicks": 48,
          "midi": 52,
          "name": "E3",
          "ticks": 576,
          "time": 3.5294100000000004,
          "velocity": 0.7874015748031497
        },
        {
          "duration": 0.8823525000000001,
          "durationTicks": 144,
          "midi": 54,
          "name": "F#3",
          "ticks": 624,
          "time": 3.8235275000000004,
          "velocity": 0.7874015748031497
        },
        {
          "duration": 0.5882350000000001,
          "durationTicks": 96,
          "midi": 54,
          "name": "F#3",
          "ticks": 864,
          "time": 5.294115000000001,
          "velocity": 0.7874015748031497
        },
        {
          "duration": 0.2941175000000005,
          "durationTicks": 48,
          "midi": 55,
          "name": "G3",
          "ticks": 960,
          "time": 5.882350000000001,
          "velocity": 0.7874015748031497
        },
        {
          "duration": 0.8823524999999997,
          "durationTicks": 144,
          "midi": 55,
          "name": "G3",
          "ticks": 1008,
          "time": 6.176467500000001,
          "velocity": 0.7874015748031497
        },
        {
          "duration": 0.5882350000000001,
          "durationTicks": 96,
          "midi": 54,
          "name": "F#3",
          "ticks": 1152,
          "time": 7.058820000000001,
          "velocity": 0.7874015748031497
        },
        {
          "duration": 1.1764699999999992,
          "durationTicks": 192,
          "midi": 59,
          "name": "B3",
          "ticks": 1248,
          "time": 7.647055000000001,
          "velocity": 0.7874015748031497
        },
        {
          "duration": 1.176470000000002,
          "durationTicks": 192,
          "midi": 57,
          "name": "A3",
          "ticks": 1440,
          "time": 8.823525,
          "velocity": 0.7874015748031497
        },
        {
          "duration": 0.5882349999999992,
          "durationTicks": 96,
          "midi": 54,
          "name": "F#3",
          "ticks": 1632,
          "time": 9.999995000000002,
          "velocity": 0.7874015748031497
        },
        {
          "duration": 0.2941175000000005,
          "durationTicks": 48,
          "midi": 52,
          "name": "E3",
          "ticks": 1728,
          "time": 10.588230000000001,
          "velocity": 0.7874015748031497
        },
        {
          "duration": 0.8823524999999997,
          "durationTicks": 144,
          "midi": 54,
          "name": "F#3",
          "ticks": 1776,
          "time": 10.882347500000002,
          "velocity": 0.7874015748031497
        },
        {
          "duration": 0.5882349999999992,
          "durationTicks": 96,
          "midi": 54,
          "name": "F#3",
          "ticks": 2016,
          "time": 12.352935000000002,
          "velocity": 0.7874015748031497
        },
        {
          "duration": 0.2941175000000005,
          "durationTicks": 48,
          "midi": 52,
          "name": "E3",
          "ticks": 2112,
          "time": 12.941170000000001,
          "velocity": 0.7874015748031497
        },
        {
          "duration": 0.8823524999999997,
          "durationTicks": 144,
          "midi": 54,
          "name": "F#3",
          "ticks": 2160,
          "time": 13.235287500000002,
          "velocity": 0.7874015748031497
        },
        {
          "duration": 0.5882349999999992,
          "durationTicks": 96,
          "midi": 54,
          "name": "F#3",
          "ticks": 2400,
          "time": 14.705875000000002,
          "velocity": 0.7874015748031497
        },
        {
          "duration": 0.2941175000000005,
          "durationTicks": 48,
          "midi": 55,
          "name": "G3",
          "ticks": 2496,
          "time": 15.294110000000002,
          "velocity": 0.7874015748031497
        },
        {
          "duration": 0.8823524999999997,
          "durationTicks": 144,
          "midi": 55,
          "name": "G3",
          "ticks": 2544,
          "time": 15.588227500000002,
          "velocity": 0.7874015748031497
        },
        {
          "duration": 0.588235000000001,
          "durationTicks": 96,
          "midi": 54,
          "name": "F#3",
          "ticks": 2688,
          "time": 16.47058,
          "velocity": 0.7874015748031497
        },
        {
          "duration": 1.1764699999999984,
          "durationTicks": 192,
          "midi": 59,
          "name": "B3",
          "ticks": 2784,
          "time": 17.058815000000003,
          "velocity": 0.7874015748031497
        },
        {
          "duration": 1.176470000000002,
          "durationTicks": 192,
          "midi": 61,
          "name": "C#4",
          "ticks": 2976,
          "time": 18.235285,
          "velocity": 0.7874015748031497
        },
        {
          "duration": 4.7058800000000005,
          "durationTicks": 768,
          "midi": 59,
          "name": "B3",
          "ticks": 3168,
          "time": 19.411755000000003,
          "velocity": 0.7874015748031497
        },
        {
          "duration": 0.8823525000000032,
          "durationTicks": 144,
          "midi": 47,
          "name": "B2",
          "ticks": 7008,
          "time": 42.941155,
          "velocity": 0.7874015748031497
        },
        {
          "duration": 0.8823524999999961,
          "durationTicks": 144,
          "midi": 59,
          "name": "B3",
          "ticks": 7152,
          "time": 43.823507500000005,
          "velocity": 0.7874015748031497
        },
        {
          "duration": 0.8823524999999961,
          "durationTicks": 144,
          "midi": 45,
          "name": "A2",
          "ticks": 7392,
          "time": 45.294095000000006,
          "velocity": 0.7874015748031497
        },
        {
          "duration": 0.8823525000000032,
          "durationTicks": 144,
          "midi": 57,
          "name": "A3",
          "ticks": 7536,
          "time": 46.1764475,
          "velocity": 0.7874015748031497
        },
        {
          "duration": 0.8823525000000032,
          "durationTicks": 144,
          "midi": 43,
          "name": "G2",
          "ticks": 7776,
          "time": 47.647035,
          "velocity": 0.7874015748031497
        },
        {
          "duration": 0.8823525000000032,
          "durationTicks": 144,
          "midi": 55,
          "name": "G3",
          "ticks": 7920,
          "time": 48.529387500000006,
          "velocity": 0.7874015748031497
        },
        {
          "duration": 1.7647049999999993,
          "durationTicks": 288,
          "midi": 50,
          "name": "D3",
          "ticks": 8544,
          "time": 52.352915,
          "velocity": 0.7874015748031497
        },
        {
          "duration": 0.2941175000000058,
          "durationTicks": 48,
          "midi": 53,
          "name": "F3",
          "ticks": 8832,
          "time": 54.11762,
          "velocity": 0.7874015748031497
        },
        {
          "duration": 0.2941174999999987,
          "durationTicks": 48,
          "midi": 52,
          "name": "E3",
          "ticks": 8880,
          "time": 54.41173750000001,
          "velocity": 0.7874015748031497
        },
        {
          "duration": 1.7647049999999993,
          "durationTicks": 288,
          "midi": 48,
          "name": "C3",
          "ticks": 8928,
          "time": 54.70585500000001,
          "velocity": 0.7874015748031497
        },
        {
          "duration": 0.2941174999999987,
          "durationTicks": 48,
          "midi": 53,
          "name": "F3",
          "ticks": 9216,
          "time": 56.470560000000006,
          "velocity": 0.7874015748031497
        },
        {
          "duration": 0.2941174999999987,
          "durationTicks": 48,
          "midi": 52,
          "name": "E3",
          "ticks": 9264,
          "time": 56.764677500000005,
          "velocity": 0.7874015748031497
        },
        {
          "duration": 1.7647050000000064,
          "durationTicks": 288,
          "midi": 46,
          "name": "A#2",
          "ticks": 9312,
          "time": 57.058795,
          "velocity": 0.7874015748031497
        },
        {
          "duration": 0.2941174999999987,
          "durationTicks": 48,
          "midi": 53,
          "name": "F3",
          "ticks": 9600,
          "time": 58.82350000000001,
          "velocity": 0.7874015748031497
        },
        {
          "duration": 0.2941174999999987,
          "durationTicks": 48,
          "midi": 52,
          "name": "E3",
          "ticks": 9648,
          "time": 59.11761750000001,
          "velocity": 0.7874015748031497
        },
        {
          "duration": 1.7647049999999993,
          "durationTicks": 288,
          "midi": 48,
          "name": "C3",
          "ticks": 9696,
          "time": 59.41173500000001,
          "velocity": 0.7874015748031497
        },
        {
          "duration": 0.2941174999999987,
          "durationTicks": 48,
          "midi": 45,
          "name": "A2",
          "ticks": 9984,
          "time": 61.17644000000001,
          "velocity": 0.7874015748031497
        },
        {
          "duration": 0.2941174999999987,
          "durationTicks": 48,
          "midi": 48,
          "name": "C3",
          "ticks": 10032,
          "time": 61.470557500000005,
          "velocity": 0.7874015748031497
        },
        {
          "duration": 1.7647049999999993,
          "durationTicks": 288,
          "midi": 50,
          "name": "D3",
          "ticks": 10080,
          "time": 61.764675000000004,
          "velocity": 0.7874015748031497
        },
        {
          "duration": 0.2941175000000058,
          "durationTicks": 48,
          "midi": 53,
          "name": "F3",
          "ticks": 10368,
          "time": 63.52938,
          "velocity": 0.7874015748031497
        },
        {
          "duration": 0.2941174999999916,
          "durationTicks": 48,
          "midi": 52,
          "name": "E3",
          "ticks": 10416,
          "time": 63.82349750000001,
          "velocity": 0.7874015748031497
        },
        {
          "duration": 1.7647050000000064,
          "durationTicks": 288,
          "midi": 48,
          "name": "C3",
          "ticks": 10464,
          "time": 64.117615,
          "velocity": 0.7874015748031497
        },
        {
          "duration": 0.2941174999999987,
          "durationTicks": 48,
          "midi": 53,
          "name": "F3",
          "ticks": 10752,
          "time": 65.88232,
          "velocity": 0.7874015748031497
        },
        {
          "duration": 0.2941174999999987,
          "durationTicks": 48,
          "midi": 52,
          "name": "E3",
          "ticks": 10800,
          "time": 66.1764375,
          "velocity": 0.7874015748031497
        },
        {
          "duration": 1.7647050000000064,
          "durationTicks": 288,
          "midi": 46,
          "name": "A#2",
          "ticks": 10848,
          "time": 66.470555,
          "velocity": 0.7874015748031497
        },
        {
          "duration": 0.2941174999999987,
          "durationTicks": 48,
          "midi": 53,
          "name": "F3",
          "ticks": 11136,
          "time": 68.23526000000001,
          "velocity": 0.7874015748031497
        },
        {
          "duration": 0.2941174999999987,
          "durationTicks": 48,
          "midi": 52,
          "name": "E3",
          "ticks": 11184,
          "time": 68.52937750000001,
          "velocity": 0.7874015748031497
        },
        {
          "duration": 1.7647049999999922,
          "durationTicks": 288,
          "midi": 48,
          "name": "C3",
          "ticks": 11232,
          "time": 68.82349500000001,
          "velocity": 0.7874015748031497
        },
        {
          "duration": 0.2941175000000129,
          "durationTicks": 48,
          "midi": 45,
          "name": "A2",
          "ticks": 11520,
          "time": 70.5882,
          "velocity": 0.7874015748031497
        },
        {
          "duration": 0.2941174999999987,
          "durationTicks": 48,
          "midi": 48,
          "name": "C3",
          "ticks": 11568,
          "time": 70.88231750000001,
          "velocity": 0.7874015748031497
        },
        {
          "duration": 0.14705874999999935,
          "durationTicks": 24,
          "midi": 69,
          "name": "A4",
          "ticks": 13152,
          "time": 80.58819500000001,
          "velocity": 0.7874015748031497
        },
        {
          "duration": 0.14705874999999935,
          "durationTicks": 24,
          "midi": 64,
          "name": "E4",
          "ticks": 13152,
          "time": 80.58819500000001,
          "velocity": 0.7874015748031497
        },
        {
          "duration": 0.14705874999999935,
          "durationTicks": 24,
          "midi": 69,
          "name": "A4",
          "ticks": 13224,
          "time": 81.02937125000001,
          "velocity": 0.7874015748031497
        },
        {
          "duration": 0.14705874999999935,
          "durationTicks": 24,
          "midi": 64,
          "name": "E4",
          "ticks": 13224,
          "time": 81.02937125000001,
          "velocity": 0.7874015748031497
        },
        {
          "duration": 0.14705874999999935,
          "durationTicks": 24,
          "midi": 69,
          "name": "A4",
          "ticks": 13296,
          "time": 81.47054750000001,
          "velocity": 0.7874015748031497
        },
        {
          "duration": 0.14705874999999935,
          "durationTicks": 24,
          "midi": 64,
          "name": "E4",
          "ticks": 13296,
          "time": 81.47054750000001,
          "velocity": 0.7874015748031497
        },
        {
          "duration": 0.14705874999999935,
          "durationTicks": 24,
          "midi": 69,
          "name": "A4",
          "ticks": 13368,
          "time": 81.91172375000001,
          "velocity": 0.7874015748031497
        },
        {
          "duration": 0.14705874999999935,
          "durationTicks": 24,
          "midi": 64,
          "name": "E4",
          "ticks": 13368,
          "time": 81.91172375000001,
          "velocity": 0.7874015748031497
        },
        {
          "duration": 0.14705874999999935,
          "durationTicks": 24,
          "midi": 69,
          "name": "A4",
          "ticks": 13536,
          "time": 82.941135,
          "velocity": 0.7874015748031497
        },
        {
          "duration": 0.14705874999999935,
          "durationTicks": 24,
          "midi": 64,
          "name": "E4",
          "ticks": 13536,
          "time": 82.941135,
          "velocity": 0.7874015748031497
        },
        {
          "duration": 0.14705874999999935,
          "durationTicks": 24,
          "midi": 69,
          "name": "A4",
          "ticks": 13608,
          "time": 83.38231125000001,
          "velocity": 0.7874015748031497
        },
        {
          "duration": 0.14705874999999935,
          "durationTicks": 24,
          "midi": 64,
          "name": "E4",
          "ticks": 13608,
          "time": 83.38231125000001,
          "velocity": 0.7874015748031497
        },
        {
          "duration": 0.14705874999999935,
          "durationTicks": 24,
          "midi": 69,
          "name": "A4",
          "ticks": 13680,
          "time": 83.82348750000001,
          "velocity": 0.7874015748031497
        },
        {
          "duration": 0.14705874999999935,
          "durationTicks": 24,
          "midi": 64,
          "name": "E4",
          "ticks": 13680,
          "time": 83.82348750000001,
          "velocity": 0.7874015748031497
        },
        {
          "duration": 0.14705874999999935,
          "durationTicks": 24,
          "midi": 64,
          "name": "E4",
          "ticks": 13752,
          "time": 84.26466375000001,
          "velocity": 0.7874015748031497
        },
        {
          "duration": 0.14705874999999935,
          "durationTicks": 24,
          "midi": 69,
          "name": "A4",
          "ticks": 13752,
          "time": 84.26466375000001,
          "velocity": 0.7874015748031497
        },
        {
          "duration": 0.8823524999999961,
          "durationTicks": 144,
          "midi": 55,
          "name": "G3",
          "ticks": 16992,
          "time": 104.11759500000001,
          "velocity": 0.7874015748031497
        },
        {
          "duration": 0.8823525000000103,
          "durationTicks": 144,
          "midi": 58,
          "name": "A#3",
          "ticks": 17136,
          "time": 104.9999475,
          "velocity": 0.7874015748031497
        },
        {
          "duration": 0.5882349999999974,
          "durationTicks": 96,
          "midi": 57,
          "name": "A3",
          "ticks": 17280,
          "time": 105.88230000000001,
          "velocity": 0.7874015748031497
        },
        {
          "duration": 0.8823524999999961,
          "durationTicks": 144,
          "midi": 53,
          "name": "F3",
          "ticks": 17376,
          "time": 106.47053500000001,
          "velocity": 0.7874015748031497
        },
        {
          "duration": 0.8823524999999961,
          "durationTicks": 144,
          "midi": 58,
          "name": "A#3",
          "ticks": 17520,
          "time": 107.35288750000001,
          "velocity": 0.7874015748031497
        },
        {
          "duration": 0.5882350000000116,
          "durationTicks": 96,
          "midi": 57,
          "name": "A3",
          "ticks": 17664,
          "time": 108.23524,
          "velocity": 0.7874015748031497
        },
        {
          "duration": 2.3529399999999896,
          "durationTicks": 384,
          "midi": 51,
          "name": "D#3",
          "ticks": 17760,
          "time": 108.82347500000002,
          "velocity": 0.7874015748031497
        },
        {
          "duration": 0.8823525000000103,
          "durationTicks": 144,
          "midi": 51,
          "name": "D#3",
          "ticks": 18144,
          "time": 111.176415,
          "velocity": 0.7874015748031497
        },
        {
          "duration": 0.8823524999999961,
          "durationTicks": 144,
          "midi": 53,
          "name": "F3",
          "ticks": 18288,
          "time": 112.05876750000002,
          "velocity": 0.7874015748031497
        },
        {
          "duration": 0.5882349999999974,
          "durationTicks": 96,
          "midi": 58,
          "name": "A#3",
          "ticks": 18432,
          "time": 112.94112000000001,
          "velocity": 0.7874015748031497
        },
        {
          "duration": 0.8823524999999961,
          "durationTicks": 144,
          "midi": 55,
          "name": "G3",
          "ticks": 18528,
          "time": 113.52935500000001,
          "velocity": 0.7874015748031497
        },
        {
          "duration": 0.8823525000000103,
          "durationTicks": 144,
          "midi": 58,
          "name": "A#3",
          "ticks": 18672,
          "time": 114.4117075,
          "velocity": 0.7874015748031497
        },
        {
          "duration": 0.5882349999999974,
          "durationTicks": 96,
          "midi": 57,
          "name": "A3",
          "ticks": 18816,
          "time": 115.29406000000002,
          "velocity": 0.7874015748031497
        },
        {
          "duration": 0.8823524999999961,
          "durationTicks": 144,
          "midi": 53,
          "name": "F3",
          "ticks": 18912,
          "time": 115.88229500000001,
          "velocity": 0.7874015748031497
        },
        {
          "duration": 0.8823525000000103,
          "durationTicks": 144,
          "midi": 58,
          "name": "A#3",
          "ticks": 19056,
          "time": 116.76464750000001,
          "velocity": 0.7874015748031497
        },
        {
          "duration": 0.5882349999999974,
          "durationTicks": 96,
          "midi": 57,
          "name": "A3",
          "ticks": 19200,
          "time": 117.64700000000002,
          "velocity": 0.7874015748031497
        },
        {
          "duration": 2.3529399999999896,
          "durationTicks": 384,
          "midi": 51,
          "name": "D#3",
          "ticks": 19296,
          "time": 118.23523500000002,
          "velocity": 0.7874015748031497
        },
        {
          "duration": 0.8823525000000103,
          "durationTicks": 144,
          "midi": 51,
          "name": "D#3",
          "ticks": 19680,
          "time": 120.588175,
          "velocity": 0.7874015748031497
        },
        {
          "duration": 0.8823524999999961,
          "durationTicks": 144,
          "midi": 53,
          "name": "F3",
          "ticks": 19824,
          "time": 121.47052750000002,
          "velocity": 0.7874015748031497
        },
        {
          "duration": 0.5882349999999974,
          "durationTicks": 96,
          "midi": 55,
          "name": "G3",
          "ticks": 19968,
          "time": 122.35288000000001,
          "velocity": 0.7874015748031497
        },
        {
          "duration": 0.8823525000000103,
          "durationTicks": 144,
          "midi": 55,
          "name": "G3",
          "ticks": 20208,
          "time": 123.8234675,
          "velocity": 0.7874015748031497
        },
        {
          "duration": 0.5882349999999974,
          "durationTicks": 96,
          "midi": 58,
          "name": "A#3",
          "ticks": 20352,
          "time": 124.70582000000002,
          "velocity": 0.7874015748031497
        },
        {
          "duration": 0.8823524999999961,
          "durationTicks": 144,
          "midi": 57,
          "name": "A3",
          "ticks": 20448,
          "time": 125.29405500000001,
          "velocity": 0.7874015748031497
        },
        {
          "duration": 0.8823524999999961,
          "durationTicks": 144,
          "midi": 53,
          "name": "F3",
          "ticks": 20592,
          "time": 126.17640750000001,
          "velocity": 0.7874015748031497
        },
        {
          "duration": 0.2941175000000129,
          "durationTicks": 48,
          "midi": 55,
          "name": "G3",
          "ticks": 20736,
          "time": 127.05876,
          "velocity": 0.7874015748031497
        },
        {
          "duration": 0.2941174999999987,
          "durationTicks": 48,
          "midi": 57,
          "name": "A3",
          "ticks": 20784,
          "time": 127.35287750000002,
          "velocity": 0.7874015748031497
        },
        {
          "duration": 0.8823524999999819,
          "durationTicks": 144,
          "midi": 55,
          "name": "G3",
          "ticks": 20832,
          "time": 127.64699500000002,
          "velocity": 0.7874015748031497
        },
        {
          "duration": 0.8823525000000245,
          "durationTicks": 144,
          "midi": 58,
          "name": "A#3",
          "ticks": 20976,
          "time": 128.5293475,
          "velocity": 0.7874015748031497
        },
        {
          "duration": 0.5882349999999974,
          "durationTicks": 96,
          "midi": 62,
          "name": "D4",
          "ticks": 21120,
          "time": 129.41170000000002,
          "velocity": 0.7874015748031497
        },
        {
          "duration": 1.7647049999999922,
          "durationTicks": 288,
          "midi": 60,
          "name": "C4",
          "ticks": 21216,
          "time": 129.99993500000002,
          "velocity": 0.7874015748031497
        },
        {
          "duration": 0.2941174999999987,
          "durationTicks": 48,
          "midi": 58,
          "name": "A#3",
          "ticks": 21504,
          "time": 131.76464,
          "velocity": 0.7874015748031497
        },
        {
          "duration": 0.2941174999999987,
          "durationTicks": 48,
          "midi": 57,
          "name": "A3",
          "ticks": 21552,
          "time": 132.0587575,
          "velocity": 0.7874015748031497
        },
        {
          "duration": 0.8823524999999961,
          "durationTicks": 144,
          "midi": 58,
          "name": "A#3",
          "ticks": 21600,
          "time": 132.352875,
          "velocity": 0.7874015748031497
        },
        {
          "duration": 0.8823524999999961,
          "durationTicks": 144,
          "midi": 55,
          "name": "G3",
          "ticks": 21744,
          "time": 133.2352275,
          "velocity": 0.7874015748031497
        },
        {
          "duration": 0.2941174999999987,
          "durationTicks": 48,
          "midi": 55,
          "name": "G3",
          "ticks": 21888,
          "time": 134.11758,
          "velocity": 0.7874015748031497
        },
        {
          "duration": 0.2941174999999987,
          "durationTicks": 48,
          "midi": 57,
          "name": "A3",
          "ticks": 21936,
          "time": 134.4116975,
          "velocity": 0.7874015748031497
        },
        {
          "duration": 0.8823525000000245,
          "durationTicks": 144,
          "midi": 58,
          "name": "A#3",
          "ticks": 21984,
          "time": 134.705815,
          "velocity": 0.7874015748031497
        },
        {
          "duration": 0.8823524999999961,
          "durationTicks": 144,
          "midi": 55,
          "name": "G3",
          "ticks": 22128,
          "time": 135.58816750000003,
          "velocity": 0.7874015748031497
        },
        {
          "duration": 0.2941174999999987,
          "durationTicks": 48,
          "midi": 57,
          "name": "A3",
          "ticks": 22272,
          "time": 136.47052000000002,
          "velocity": 0.7874015748031497
        },
        {
          "duration": 0.2941174999999987,
          "durationTicks": 48,
          "midi": 58,
          "name": "A#3",
          "ticks": 22320,
          "time": 136.76463750000002,
          "velocity": 0.7874015748031497
        },
        {
          "duration": 0.8823524999999961,
          "durationTicks": 144,
          "midi": 62,
          "name": "D4",
          "ticks": 22368,
          "time": 137.05875500000002,
          "velocity": 0.7874015748031497
        },
        {
          "duration": 1.1764699999999948,
          "durationTicks": 192,
          "midi": 60,
          "name": "C4",
          "ticks": 22512,
          "time": 137.94110750000002,
          "velocity": 0.7874015748031497
        },
        {
          "duration": 0.2941174999999987,
          "durationTicks": 48,
          "midi": 58,
          "name": "A#3",
          "ticks": 22704,
          "time": 139.1175775,
          "velocity": 0.7874015748031497
        },
        {
          "duration": 0.8823524999999961,
          "durationTicks": 144,
          "midi": 60,
          "name": "C4",
          "ticks": 22752,
          "time": 139.411695,
          "velocity": 0.7874015748031497
        },
        {
          "duration": 0.8823524999999961,
          "durationTicks": 144,
          "midi": 58,
          "name": "A#3",
          "ticks": 22896,
          "time": 140.2940475,
          "velocity": 0.7874015748031497
        },
        {
          "duration": 0.5882350000000258,
          "durationTicks": 96,
          "midi": 57,
          "name": "A3",
          "ticks": 23040,
          "time": 141.1764,
          "velocity": 0.7874015748031497
        },
        {
          "duration": 0.8823524999999961,
          "durationTicks": 144,
          "midi": 58,
          "name": "A#3",
          "ticks": 23136,
          "time": 141.76463500000003,
          "velocity": 0.7874015748031497
        },
        {
          "duration": 0.8823524999999961,
          "durationTicks": 144,
          "midi": 55,
          "name": "G3",
          "ticks": 23280,
          "time": 142.64698750000002,
          "velocity": 0.7874015748031497
        },
        {
          "duration": 0.2941174999999987,
          "durationTicks": 48,
          "midi": 55,
          "name": "G3",
          "ticks": 23424,
          "time": 143.52934000000002,
          "velocity": 0.7874015748031497
        },
        {
          "duration": 0.2941174999999987,
          "durationTicks": 48,
          "midi": 57,
          "name": "A3",
          "ticks": 23472,
          "time": 143.82345750000002,
          "velocity": 0.7874015748031497
        },
        {
          "duration": 0.8823524999999961,
          "durationTicks": 144,
          "midi": 58,
          "name": "A#3",
          "ticks": 23520,
          "time": 144.11757500000002,
          "velocity": 0.7874015748031497
        },
        {
          "duration": 0.8823524999999961,
          "durationTicks": 144,
          "midi": 55,
          "name": "G3",
          "ticks": 23664,
          "time": 144.9999275,
          "velocity": 0.7874015748031497
        },
        {
          "duration": 0.2941174999999987,
          "durationTicks": 48,
          "midi": 57,
          "name": "A3",
          "ticks": 23808,
          "time": 145.88228,
          "velocity": 0.7874015748031497
        },
        {
          "duration": 0.2941174999999987,
          "durationTicks": 48,
          "midi": 58,
          "name": "A#3",
          "ticks": 23856,
          "time": 146.1763975,
          "velocity": 0.7874015748031497
        },
        {
          "duration": 0.8823524999999961,
          "durationTicks": 144,
          "midi": 62,
          "name": "D4",
          "ticks": 23904,
          "time": 146.470515,
          "velocity": 0.7874015748031497
        },
        {
          "duration": 1.1764700000000232,
          "durationTicks": 192,
          "midi": 60,
          "name": "C4",
          "ticks": 24048,
          "time": 147.3528675,
          "velocity": 0.7874015748031497
        },
        {
          "duration": 0.2941174999999987,
          "durationTicks": 48,
          "midi": 58,
          "name": "A#3",
          "ticks": 24240,
          "time": 148.52933750000003,
          "velocity": 0.7874015748031497
        },
        {
          "duration": 0.8823524999999961,
          "durationTicks": 144,
          "midi": 60,
          "name": "C4",
          "ticks": 24288,
          "time": 148.82345500000002,
          "velocity": 0.7874015748031497
        },
        {
          "duration": 0.8823524999999961,
          "durationTicks": 144,
          "midi": 57,
          "name": "A3",
          "ticks": 24432,
          "time": 149.70580750000002,
          "velocity": 0.7874015748031497
        },
        {
          "duration": 0.5882349999999974,
          "durationTicks": 96,
          "midi": 60,
          "name": "C4",
          "ticks": 24576,
          "time": 150.58816000000002,
          "velocity": 0.7874015748031497
        },
        {
          "duration": 1.7647049999999922,
          "durationTicks": 288,
          "midi": 59,
          "name": "B3",
          "ticks": 24672,
          "time": 151.176395,
          "velocity": 0.7874015748031497
        },
        {
          "duration": 0.2941174999999987,
          "durationTicks": 48,
          "midi": 59,
          "name": "B3",
          "ticks": 24960,
          "time": 152.9411,
          "velocity": 0.7874015748031497
        },
        {
          "duration": 0.2941174999999987,
          "durationTicks": 48,
          "midi": 61,
          "name": "C#4",
          "ticks": 25008,
          "time": 153.2352175,
          "velocity": 0.7874015748031497
        },
        {
          "duration": 0.8823525000000245,
          "durationTicks": 144,
          "midi": 62,
          "name": "D4",
          "ticks": 25056,
          "time": 153.529335,
          "velocity": 0.7874015748031497
        },
        {
          "duration": 0.8823524999999961,
          "durationTicks": 144,
          "midi": 61,
          "name": "C#4",
          "ticks": 25200,
          "time": 154.41168750000003,
          "velocity": 0.7874015748031497
        },
        {
          "duration": 0.5882349999999974,
          "durationTicks": 96,
          "midi": 57,
          "name": "A3",
          "ticks": 25344,
          "time": 155.29404000000002,
          "velocity": 0.7874015748031497
        },
        {
          "duration": 1.7647049999999922,
          "durationTicks": 288,
          "midi": 66,
          "name": "F#4",
          "ticks": 25440,
          "time": 155.88227500000002,
          "velocity": 0.7874015748031497
        },
        {
          "duration": 0.8823524999999961,
          "durationTicks": 144,
          "midi": 47,
          "name": "B2",
          "ticks": 27744,
          "time": 169.99991500000002,
          "velocity": 0.7874015748031497
        },
        {
          "duration": 0.8823524999999961,
          "durationTicks": 144,
          "midi": 59,
          "name": "B3",
          "ticks": 27888,
          "time": 170.8822675,
          "velocity": 0.7874015748031497
        },
        {
          "duration": 0.8823525000000245,
          "durationTicks": 144,
          "midi": 45,
          "name": "A2",
          "ticks": 28128,
          "time": 172.352855,
          "velocity": 0.7874015748031497
        },
        {
          "duration": 0.8823524999999961,
          "durationTicks": 144,
          "midi": 57,
          "name": "A3",
          "ticks": 28272,
          "time": 173.23520750000003,
          "velocity": 0.7874015748031497
        },
        {
          "duration": 0.8823524999999961,
          "durationTicks": 144,
          "midi": 43,
          "name": "G2",
          "ticks": 28512,
          "time": 174.70579500000002,
          "velocity": 0.7874015748031497
        },
        {
          "duration": 0.8823524999999961,
          "durationTicks": 144,
          "midi": 55,
          "name": "G3",
          "ticks": 28656,
          "time": 175.58814750000002,
          "velocity": 0.7874015748031497
        },
        {
          "duration": 1.7647049999999922,
          "durationTicks": 288,
          "midi": 50,
          "name": "D3",
          "ticks": 29280,
          "time": 179.41167500000003,
          "velocity": 0.7874015748031497
        },
        {
          "duration": 0.2941174999999987,
          "durationTicks": 48,
          "midi": 53,
          "name": "F3",
          "ticks": 29568,
          "time": 181.17638000000002,
          "velocity": 0.7874015748031497
        },
        {
          "duration": 0.2941174999999987,
          "durationTicks": 48,
          "midi": 52,
          "name": "E3",
          "ticks": 29616,
          "time": 181.47049750000002,
          "velocity": 0.7874015748031497
        },
        {
          "duration": 1.7647049999999922,
          "durationTicks": 288,
          "midi": 48,
          "name": "C3",
          "ticks": 29664,
          "time": 181.76461500000002,
          "velocity": 0.7874015748031497
        },
        {
          "duration": 0.2941174999999987,
          "durationTicks": 48,
          "midi": 53,
          "name": "F3",
          "ticks": 29952,
          "time": 183.52932,
          "velocity": 0.7874015748031497
        },
        {
          "duration": 0.2941174999999987,
          "durationTicks": 48,
          "midi": 52,
          "name": "E3",
          "ticks": 30000,
          "time": 183.8234375,
          "velocity": 0.7874015748031497
        },
        {
          "duration": 1.7647050000000206,
          "durationTicks": 288,
          "midi": 46,
          "name": "A#2",
          "ticks": 30048,
          "time": 184.117555,
          "velocity": 0.7874015748031497
        },
        {
          "duration": 0.2941174999999987,
          "durationTicks": 48,
          "midi": 53,
          "name": "F3",
          "ticks": 30336,
          "time": 185.88226000000003,
          "velocity": 0.7874015748031497
        },
        {
          "duration": 0.2941174999999987,
          "durationTicks": 48,
          "midi": 52,
          "name": "E3",
          "ticks": 30384,
          "time": 186.17637750000003,
          "velocity": 0.7874015748031497
        },
        {
          "duration": 1.7647049999999922,
          "durationTicks": 288,
          "midi": 48,
          "name": "C3",
          "ticks": 30432,
          "time": 186.47049500000003,
          "velocity": 0.7874015748031497
        },
        {
          "duration": 0.2941174999999987,
          "durationTicks": 48,
          "midi": 45,
          "name": "A2",
          "ticks": 30720,
          "time": 188.23520000000002,
          "velocity": 0.7874015748031497
        },
        {
          "duration": 0.2941174999999987,
          "durationTicks": 48,
          "midi": 48,
          "name": "C3",
          "ticks": 30768,
          "time": 188.52931750000002,
          "velocity": 0.7874015748031497
        },
        {
          "duration": 1.7647049999999922,
          "durationTicks": 288,
          "midi": 50,
          "name": "D3",
          "ticks": 30816,
          "time": 188.82343500000002,
          "velocity": 0.7874015748031497
        },
        {
          "duration": 0.2941174999999987,
          "durationTicks": 48,
          "midi": 53,
          "name": "F3",
          "ticks": 31104,
          "time": 190.58814,
          "velocity": 0.7874015748031497
        },
        {
          "duration": 0.2941174999999987,
          "durationTicks": 48,
          "midi": 52,
          "name": "E3",
          "ticks": 31152,
          "time": 190.8822575,
          "velocity": 0.7874015748031497
        },
        {
          "duration": 1.7647050000000206,
          "durationTicks": 288,
          "midi": 48,
          "name": "C3",
          "ticks": 31200,
          "time": 191.176375,
          "velocity": 0.7874015748031497
        },
        {
          "duration": 0.2941174999999987,
          "durationTicks": 48,
          "midi": 53,
          "name": "F3",
          "ticks": 31488,
          "time": 192.94108000000003,
          "velocity": 0.7874015748031497
        },
        {
          "duration": 0.2941174999999987,
          "durationTicks": 48,
          "midi": 52,
          "name": "E3",
          "ticks": 31536,
          "time": 193.23519750000003,
          "velocity": 0.7874015748031497
        },
        {
          "duration": 1.7647049999999922,
          "durationTicks": 288,
          "midi": 46,
          "name": "A#2",
          "ticks": 31584,
          "time": 193.52931500000003,
          "velocity": 0.7874015748031497
        },
        {
          "duration": 0.2941174999999987,
          "durationTicks": 48,
          "midi": 53,
          "name": "F3",
          "ticks": 31872,
          "time": 195.29402000000002,
          "velocity": 0.7874015748031497
        },
        {
          "duration": 0.2941174999999987,
          "durationTicks": 48,
          "midi": 52,
          "name": "E3",
          "ticks": 31920,
          "time": 195.58813750000002,
          "velocity": 0.7874015748031497
        },
        {
          "duration": 1.7647050000000206,
          "durationTicks": 288,
          "midi": 48,
          "name": "C3",
          "ticks": 31968,
          "time": 195.88225500000001,
          "velocity": 0.7874015748031497
        },
        {
          "duration": 0.2941174999999987,
          "durationTicks": 48,
          "midi": 45,
          "name": "A2",
          "ticks": 32256,
          "time": 197.64696000000004,
          "velocity": 0.7874015748031497
        },
        {
          "duration": 0.2941174999999987,
          "durationTicks": 48,
          "midi": 48,
          "name": "C3",
          "ticks": 32304,
          "time": 197.94107750000003,
          "velocity": 0.7874015748031497
        },
        {
          "duration": 0.14705875000001356,
          "durationTicks": 24,
          "midi": 69,
          "name": "A4",
          "ticks": 33888,
          "time": 207.64695500000002,
          "velocity": 0.7874015748031497
        },
        {
          "duration": 0.14705875000001356,
          "durationTicks": 24,
          "midi": 64,
          "name": "E4",
          "ticks": 33888,
          "time": 207.64695500000002,
          "velocity": 0.7874015748031497
        },
        {
          "duration": 0.14705874999998514,
          "durationTicks": 24,
          "midi": 69,
          "name": "A4",
          "ticks": 33960,
          "time": 208.08813125000003,
          "velocity": 0.7874015748031497
        },
        {
          "duration": 0.14705874999998514,
          "durationTicks": 24,
          "midi": 64,
          "name": "E4",
          "ticks": 33960,
          "time": 208.08813125000003,
          "velocity": 0.7874015748031497
        },
        {
          "duration": 0.14705875000001356,
          "durationTicks": 24,
          "midi": 69,
          "name": "A4",
          "ticks": 34032,
          "time": 208.52930750000002,
          "velocity": 0.7874015748031497
        },
        {
          "duration": 0.14705875000001356,
          "durationTicks": 24,
          "midi": 64,
          "name": "E4",
          "ticks": 34032,
          "time": 208.52930750000002,
          "velocity": 0.7874015748031497
        },
        {
          "duration": 0.14705874999998514,
          "durationTicks": 24,
          "midi": 69,
          "name": "A4",
          "ticks": 34104,
          "time": 208.97048375000003,
          "velocity": 0.7874015748031497
        },
        {
          "duration": 0.14705874999998514,
          "durationTicks": 24,
          "midi": 64,
          "name": "E4",
          "ticks": 34104,
          "time": 208.97048375000003,
          "velocity": 0.7874015748031497
        },
        {
          "duration": 0.14705875000001356,
          "durationTicks": 24,
          "midi": 69,
          "name": "A4",
          "ticks": 34272,
          "time": 209.999895,
          "velocity": 0.7874015748031497
        },
        {
          "duration": 0.14705875000001356,
          "durationTicks": 24,
          "midi": 64,
          "name": "E4",
          "ticks": 34272,
          "time": 209.999895,
          "velocity": 0.7874015748031497
        },
        {
          "duration": 0.14705875000001356,
          "durationTicks": 24,
          "midi": 69,
          "name": "A4",
          "ticks": 34344,
          "time": 210.44107125000002,
          "velocity": 0.7874015748031497
        },
        {
          "duration": 0.14705875000001356,
          "durationTicks": 24,
          "midi": 64,
          "name": "E4",
          "ticks": 34344,
          "time": 210.44107125000002,
          "velocity": 0.7874015748031497
        },
        {
          "duration": 0.14705874999998514,
          "durationTicks": 24,
          "midi": 69,
          "name": "A4",
          "ticks": 34416,
          "time": 210.88224750000003,
          "velocity": 0.7874015748031497
        },
        {
          "duration": 0.14705874999998514,
          "durationTicks": 24,
          "midi": 64,
          "name": "E4",
          "ticks": 34416,
          "time": 210.88224750000003,
          "velocity": 0.7874015748031497
        },
        {
          "duration": 0.14705875000001356,
          "durationTicks": 24,
          "midi": 64,
          "name": "E4",
          "ticks": 34488,
          "time": 211.32342375000002,
          "velocity": 0.7874015748031497
        },
        {
          "duration": 0.14705875000001356,
          "durationTicks": 24,
          "midi": 69,
          "name": "A4",
          "ticks": 34488,
          "time": 211.32342375000002,
          "velocity": 0.7874015748031497
        },
        {
          "duration": 0.8823524999999961,
          "durationTicks": 144,
          "midi": 55,
          "name": "G3",
          "ticks": 37728,
          "time": 231.17635500000003,
          "velocity": 0.7874015748031497
        },
        {
          "duration": 0.8823524999999961,
          "durationTicks": 144,
          "midi": 58,
          "name": "A#3",
          "ticks": 37872,
          "time": 232.05870750000003,
          "velocity": 0.7874015748031497
        },
        {
          "duration": 0.5882349999999974,
          "durationTicks": 96,
          "midi": 57,
          "name": "A3",
          "ticks": 38016,
          "time": 232.94106000000002,
          "velocity": 0.7874015748031497
        },
        {
          "duration": 0.8823524999999961,
          "durationTicks": 144,
          "midi": 53,
          "name": "F3",
          "ticks": 38112,
          "time": 233.52929500000002,
          "velocity": 0.7874015748031497
        },
        {
          "duration": 0.8823525000000245,
          "durationTicks": 144,
          "midi": 58,
          "name": "A#3",
          "ticks": 38256,
          "time": 234.41164750000002,
          "velocity": 0.7874015748031497
        },
        {
          "duration": 0.5882349999999974,
          "durationTicks": 96,
          "midi": 57,
          "name": "A3",
          "ticks": 38400,
          "time": 235.29400000000004,
          "velocity": 0.7874015748031497
        },
        {
          "duration": 2.3529399999999896,
          "durationTicks": 384,
          "midi": 51,
          "name": "D#3",
          "ticks": 38496,
          "time": 235.88223500000004,
          "velocity": 0.7874015748031497
        },
        {
          "duration": 0.8823524999999961,
          "durationTicks": 144,
          "midi": 51,
          "name": "D#3",
          "ticks": 38880,
          "time": 238.23517500000003,
          "velocity": 0.7874015748031497
        },
        {
          "duration": 0.8823524999999961,
          "durationTicks": 144,
          "midi": 53,
          "name": "F3",
          "ticks": 39024,
          "time": 239.11752750000002,
          "velocity": 0.7874015748031497
        },
        {
          "duration": 0.5882349999999974,
          "durationTicks": 96,
          "midi": 58,
          "name": "A#3",
          "ticks": 39168,
          "time": 239.99988000000002,
          "velocity": 0.7874015748031497
        },
        {
          "duration": 0.8823524999999961,
          "durationTicks": 144,
          "midi": 55,
          "name": "G3",
          "ticks": 39264,
          "time": 240.58811500000002,
          "velocity": 0.7874015748031497
        },
        {
          "duration": 0.8823525000000245,
          "durationTicks": 144,
          "midi": 58,
          "name": "A#3",
          "ticks": 39408,
          "time": 241.4704675,
          "velocity": 0.7874015748031497
        },
        {
          "duration": 0.5882349999999974,
          "durationTicks": 96,
          "midi": 57,
          "name": "A3",
          "ticks": 39552,
          "time": 242.35282000000004,
          "velocity": 0.7874015748031497
        },
        {
          "duration": 0.8823524999999961,
          "durationTicks": 144,
          "midi": 53,
          "name": "F3",
          "ticks": 39648,
          "time": 242.94105500000003,
          "velocity": 0.7874015748031497
        },
        {
          "duration": 0.8823524999999961,
          "durationTicks": 144,
          "midi": 58,
          "name": "A#3",
          "ticks": 39792,
          "time": 243.82340750000003,
          "velocity": 0.7874015748031497
        },
        {
          "duration": 0.5882349999999974,
          "durationTicks": 96,
          "midi": 57,
          "name": "A3",
          "ticks": 39936,
          "time": 244.70576000000003,
          "velocity": 0.7874015748031497
        },
        {
          "duration": 2.3529399999999896,
          "durationTicks": 384,
          "midi": 51,
          "name": "D#3",
          "ticks": 40032,
          "time": 245.29399500000002,
          "velocity": 0.7874015748031497
        },
        {
          "duration": 0.8823525000000245,
          "durationTicks": 144,
          "midi": 51,
          "name": "D#3",
          "ticks": 40416,
          "time": 247.646935,
          "velocity": 0.7874015748031497
        },
        {
          "duration": 0.8823524999999961,
          "durationTicks": 144,
          "midi": 53,
          "name": "F3",
          "ticks": 40560,
          "time": 248.52928750000004,
          "velocity": 0.7874015748031497
        },
        {
          "duration": 0.5882349999999974,
          "durationTicks": 96,
          "midi": 55,
          "name": "G3",
          "ticks": 40704,
          "time": 249.41164000000003,
          "velocity": 0.7874015748031497
        },
        {
          "duration": 0.8823524999999961,
          "durationTicks": 144,
          "midi": 55,
          "name": "G3",
          "ticks": 40944,
          "time": 250.88222750000003,
          "velocity": 0.7874015748031497
        },
        {
          "duration": 0.5882349999999974,
          "durationTicks": 96,
          "midi": 58,
          "name": "A#3",
          "ticks": 41088,
          "time": 251.76458000000002,
          "velocity": 0.7874015748031497
        },
        {
          "duration": 0.8823524999999961,
          "durationTicks": 144,
          "midi": 57,
          "name": "A3",
          "ticks": 41184,
          "time": 252.35281500000002,
          "velocity": 0.7874015748031497
        },
        {
          "duration": 0.8823524999999961,
          "durationTicks": 144,
          "midi": 53,
          "name": "F3",
          "ticks": 41328,
          "time": 253.23516750000002,
          "velocity": 0.7874015748031497
        },
        {
          "duration": 0.2941175000000271,
          "durationTicks": 48,
          "midi": 55,
          "name": "G3",
          "ticks": 41472,
          "time": 254.11752,
          "velocity": 0.7874015748031497
        },
        {
          "duration": 0.2941174999999987,
          "durationTicks": 48,
          "midi": 57,
          "name": "A3",
          "ticks": 41520,
          "time": 254.41163750000004,
          "velocity": 0.7874015748031497
        },
        {
          "duration": 0.8823524999999961,
          "durationTicks": 144,
          "midi": 55,
          "name": "G3",
          "ticks": 41568,
          "time": 254.70575500000004,
          "velocity": 0.7874015748031497
        },
        {
          "duration": 0.8823524999999677,
          "durationTicks": 144,
          "midi": 58,
          "name": "A#3",
          "ticks": 41712,
          "time": 255.58810750000004,
          "velocity": 0.7874015748031497
        },
        {
          "duration": 0.5882349999999974,
          "durationTicks": 96,
          "midi": 62,
          "name": "D4",
          "ticks": 41856,
          "time": 256.47046,
          "velocity": 0.7874015748031497
        },
        {
          "duration": 1.764705000000049,
          "durationTicks": 288,
          "midi": 60,
          "name": "C4",
          "ticks": 41952,
          "time": 257.058695,
          "velocity": 0.7874015748031497
        },
        {
          "duration": 0.2941174999999703,
          "durationTicks": 48,
          "midi": 58,
          "name": "A#3",
          "ticks": 42240,
          "time": 258.82340000000005,
          "velocity": 0.7874015748031497
        },
        {
          "duration": 0.2941175000000271,
          "durationTicks": 48,
          "midi": 57,
          "name": "A3",
          "ticks": 42288,
          "time": 259.1175175,
          "velocity": 0.7874015748031497
        },
        {
          "duration": 0.8823524999999677,
          "durationTicks": 144,
          "midi": 58,
          "name": "A#3",
          "ticks": 42336,
          "time": 259.41163500000005,
          "velocity": 0.7874015748031497
        },
        {
          "duration": 0.8823525000000245,
          "durationTicks": 144,
          "midi": 55,
          "name": "G3",
          "ticks": 42480,
          "time": 260.2939875,
          "velocity": 0.7874015748031497
        },
        {
          "duration": 0.2941174999999703,
          "durationTicks": 48,
          "midi": 55,
          "name": "G3",
          "ticks": 42624,
          "time": 261.17634000000004,
          "velocity": 0.7874015748031497
        },
        {
          "duration": 0.2941175000000271,
          "durationTicks": 48,
          "midi": 57,
          "name": "A3",
          "ticks": 42672,
          "time": 261.4704575,
          "velocity": 0.7874015748031497
        },
        {
          "duration": 0.8823524999999677,
          "durationTicks": 144,
          "midi": 58,
          "name": "A#3",
          "ticks": 42720,
          "time": 261.76457500000004,
          "velocity": 0.7874015748031497
        },
        {
          "duration": 0.8823525000000245,
          "durationTicks": 144,
          "midi": 55,
          "name": "G3",
          "ticks": 42864,
          "time": 262.6469275,
          "velocity": 0.7874015748031497
        },
        {
          "duration": 0.2941175000000271,
          "durationTicks": 48,
          "midi": 57,
          "name": "A3",
          "ticks": 43008,
          "time": 263.52928,
          "velocity": 0.7874015748031497
        },
        {
          "duration": 0.2941174999999703,
          "durationTicks": 48,
          "midi": 58,
          "name": "A#3",
          "ticks": 43056,
          "time": 263.82339750000006,
          "velocity": 0.7874015748031497
        },
        {
          "duration": 0.8823525000000245,
          "durationTicks": 144,
          "midi": 62,
          "name": "D4",
          "ticks": 43104,
          "time": 264.117515,
          "velocity": 0.7874015748031497
        },
        {
          "duration": 1.1764699999999948,
          "durationTicks": 192,
          "midi": 60,
          "name": "C4",
          "ticks": 43248,
          "time": 264.99986750000005,
          "velocity": 0.7874015748031497
        },
        {
          "duration": 0.2941174999999703,
          "durationTicks": 48,
          "midi": 58,
          "name": "A#3",
          "ticks": 43440,
          "time": 266.17633750000005,
          "velocity": 0.7874015748031497
        },
        {
          "duration": 0.8823525000000245,
          "durationTicks": 144,
          "midi": 60,
          "name": "C4",
          "ticks": 43488,
          "time": 266.470455,
          "velocity": 0.7874015748031497
        },
        {
          "duration": 0.8823524999999677,
          "durationTicks": 144,
          "midi": 58,
          "name": "A#3",
          "ticks": 43632,
          "time": 267.35280750000004,
          "velocity": 0.7874015748031497
        },
        {
          "duration": 0.5882349999999974,
          "durationTicks": 96,
          "midi": 57,
          "name": "A3",
          "ticks": 43776,
          "time": 268.23516,
          "velocity": 0.7874015748031497
        },
        {
          "duration": 0.8823525000000245,
          "durationTicks": 144,
          "midi": 58,
          "name": "A#3",
          "ticks": 43872,
          "time": 268.823395,
          "velocity": 0.7874015748031497
        },
        {
          "duration": 0.8823525000000245,
          "durationTicks": 144,
          "midi": 55,
          "name": "G3",
          "ticks": 44016,
          "time": 269.70574750000003,
          "velocity": 0.7874015748031497
        },
        {
          "duration": 0.2941174999999703,
          "durationTicks": 48,
          "midi": 55,
          "name": "G3",
          "ticks": 44160,
          "time": 270.58810000000005,
          "velocity": 0.7874015748031497
        },
        {
          "duration": 0.2941175000000271,
          "durationTicks": 48,
          "midi": 57,
          "name": "A3",
          "ticks": 44208,
          "time": 270.8822175,
          "velocity": 0.7874015748031497
        },
        {
          "duration": 0.8823524999999677,
          "durationTicks": 144,
          "midi": 58,
          "name": "A#3",
          "ticks": 44256,
          "time": 271.17633500000005,
          "velocity": 0.7874015748031497
        },
        {
          "duration": 0.8823525000000245,
          "durationTicks": 144,
          "midi": 55,
          "name": "G3",
          "ticks": 44400,
          "time": 272.0586875,
          "velocity": 0.7874015748031497
        },
        {
          "duration": 0.2941174999999703,
          "durationTicks": 48,
          "midi": 57,
          "name": "A3",
          "ticks": 44544,
          "time": 272.94104000000004,
          "velocity": 0.7874015748031497
        },
        {
          "duration": 0.2941175000000271,
          "durationTicks": 48,
          "midi": 58,
          "name": "A#3",
          "ticks": 44592,
          "time": 273.2351575,
          "velocity": 0.7874015748031497
        },
        {
          "duration": 0.8823524999999677,
          "durationTicks": 144,
          "midi": 62,
          "name": "D4",
          "ticks": 44640,
          "time": 273.52927500000004,
          "velocity": 0.7874015748031497
        },
        {
          "duration": 1.1764699999999948,
          "durationTicks": 192,
          "midi": 60,
          "name": "C4",
          "ticks": 44784,
          "time": 274.4116275,
          "velocity": 0.7874015748031497
        },
        {
          "duration": 0.2941175000000271,
          "durationTicks": 48,
          "midi": 58,
          "name": "A#3",
          "ticks": 44976,
          "time": 275.5880975,
          "velocity": 0.7874015748031497
        },
        {
          "duration": 0.8823525000000245,
          "durationTicks": 144,
          "midi": 60,
          "name": "C4",
          "ticks": 45024,
          "time": 275.88221500000003,
          "velocity": 0.7874015748031497
        },
        {
          "duration": 0.8823524999999677,
          "durationTicks": 144,
          "midi": 57,
          "name": "A3",
          "ticks": 45168,
          "time": 276.76456750000006,
          "velocity": 0.7874015748031497
        },
        {
          "duration": 0.5882349999999974,
          "durationTicks": 96,
          "midi": 60,
          "name": "C4",
          "ticks": 45312,
          "time": 277.64692,
          "velocity": 0.7874015748031497
        },
        {
          "duration": 1.7647049999999922,
          "durationTicks": 288,
          "midi": 59,
          "name": "B3",
          "ticks": 45408,
          "time": 278.235155,
          "velocity": 0.7874015748031497
        },
        {
          "duration": 0.2941175000000271,
          "durationTicks": 48,
          "midi": 59,
          "name": "B3",
          "ticks": 45696,
          "time": 279.99986,
          "velocity": 0.7874015748031497
        },
        {
          "duration": 0.2941174999999703,
          "durationTicks": 48,
          "midi": 61,
          "name": "C#4",
          "ticks": 45744,
          "time": 280.29397750000004,
          "velocity": 0.7874015748031497
        },
        {
          "duration": 0.8823525000000245,
          "durationTicks": 144,
          "midi": 62,
          "name": "D4",
          "ticks": 45792,
          "time": 280.588095,
          "velocity": 0.7874015748031497
        },
        {
          "duration": 0.8823524999999677,
          "durationTicks": 144,
          "midi": 61,
          "name": "C#4",
          "ticks": 45936,
          "time": 281.47044750000003,
          "velocity": 0.7874015748031497
        },
        {
          "duration": 0.5882350000000542,
          "durationTicks": 96,
          "midi": 57,
          "name": "A3",
          "ticks": 46080,
          "time": 282.3528,
          "velocity": 0.7874015748031497
        },
        {
          "duration": 1.7647049999999922,
          "durationTicks": 288,
          "midi": 66,
          "name": "F#4",
          "ticks": 46176,
          "time": 282.94103500000006,
          "velocity": 0.7874015748031497
        },
        {
          "duration": 0.14705874999998514,
          "durationTicks": 24,
          "midi": 59,
          "name": "B3",
          "ticks": 46944,
          "time": 287.64691500000004,
          "velocity": 0.7874015748031497
        },
        {
          "duration": 0.14705874999998514,
          "durationTicks": 24,
          "midi": 59,
          "name": "B3",
          "ticks": 47016,
          "time": 288.08809125000005,
          "velocity": 0.7874015748031497
        },
        {
          "duration": 0.14705875000004198,
          "durationTicks": 24,
          "midi": 59,
          "name": "B3",
          "ticks": 47088,
          "time": 288.5292675,
          "velocity": 0.7874015748031497
        },
        {
          "duration": 0.14705875000004198,
          "durationTicks": 24,
          "midi": 59,
          "name": "B3",
          "ticks": 47160,
          "time": 288.97044375,
          "velocity": 0.7874015748031497
        },
        {
          "duration": 0.14705874999998514,
          "durationTicks": 24,
          "midi": 59,
          "name": "B3",
          "ticks": 47328,
          "time": 289.999855,
          "velocity": 0.7874015748031497
        },
        {
          "duration": 0.14705874999998514,
          "durationTicks": 24,
          "midi": 59,
          "name": "B3",
          "ticks": 47400,
          "time": 290.44103125000004,
          "velocity": 0.7874015748031497
        },
        {
          "duration": 0.14705874999998514,
          "durationTicks": 24,
          "midi": 59,
          "name": "B3",
          "ticks": 47472,
          "time": 290.88220750000005,
          "velocity": 0.7874015748031497
        },
        {
          "duration": 0.14705875000004198,
          "durationTicks": 24,
          "midi": 59,
          "name": "B3",
          "ticks": 47544,
          "time": 291.32338375,
          "velocity": 0.7874015748031497
        }
      ]
    },
    {
      "channel": 0,
      "controlChanges": {
        "6": [
          {
            "number": 6,
            "ticks": 0,
            "time": 0,
            "value": 0.09448818897637795
          }
        ],
        "7": [
          {
            "number": 7,
            "ticks": 0,
            "time": 0,
            "value": 0.5590551181102362
          },
          {
            "number": 7,
            "ticks": 0,
            "time": 0,
            "value": 0.5590551181102362
          }
        ],
        "10": [
          {
            "number": 10,
            "ticks": 0,
            "time": 0,
            "value": 0.5039370078740157
          },
          {
            "number": 10,
            "ticks": 0,
            "time": 0,
            "value": 0.5039370078740157
          }
        ],
        "100": [
          {
            "number": 100,
            "ticks": 0,
            "time": 0,
            "value": 0
          }
        ],
        "101": [
          {
            "number": 101,
            "ticks": 0,
            "time": 0,
            "value": 0
          }
        ]
      },
      "pitchBends": [
        {
          "ticks": 0,
          "time": 0,
          "value": 0
        },
        {
          "ticks": 0,
          "time": 0,
          "value": 0
        }
      ],
      "instrument": {
        "family": "piano",
        "number": 0,
        "name": "acoustic grand piano"
      },
      "name": "Lead 1 (square)",
      "notes": [],
      "endOfTrackTicks": 48052
    },
    {
      "channel": 5,
      "controlChanges": {
        "1": [
          {
            "number": 1,
            "ticks": 0,
            "time": 0,
            "value": 0
          },
          {
            "number": 1,
            "ticks": 0,
            "time": 0,
            "value": 0
          },
          {
            "number": 1,
            "ticks": 0,
            "time": 0,
            "value": 0
          },
          {
            "number": 1,
            "ticks": 0,
            "time": 0,
            "value": 0
          },
          {
            "number": 1,
            "ticks": 0,
            "time": 0,
            "value": 0
          },
          {
            "number": 1,
            "ticks": 25824,
            "time": 158.235215,
            "value": 0
          },
          {
            "number": 1,
            "ticks": 48000,
            "time": 294.1175,
            "value": 0
          },
          {
            "number": 1,
            "ticks": 48051,
            "time": 294.42999984375,
            "value": 0
          },
          {
            "number": 1,
            "ticks": 48052,
            "time": 294.4361272916667,
            "value": 0
          }
        ],
        "6": [
          {
            "number": 6,
            "ticks": 0,
            "time": 0,
            "value": 0.09448818897637795
          },
          {
            "number": 6,
            "ticks": 0,
            "time": 0,
            "value": 0.09448818897637795
          },
          {
            "number": 6,
            "ticks": 48000,
            "time": 294.1175,
            "value": 0.09448818897637795
          },
          {
            "number": 6,
            "ticks": 48052,
            "time": 294.4361272916667,
            "value": 0.09448818897637795
          }
        ],
        "7": [
          {
            "number": 7,
            "ticks": 0,
            "time": 0,
            "value": 0.5590551181102362
          },
          {
            "number": 7,
            "ticks": 0,
            "time": 0,
            "value": 0.5590551181102362
          },
          {
            "number": 7,
            "ticks": 48000,
            "time": 294.1175,
            "value": 0.5590551181102362
          },
          {
            "number": 7,
            "ticks": 48052,
            "time": 294.4361272916667,
            "value": 0.5590551181102362
          }
        ],
        "10": [
          {
            "number": 10,
            "ticks": 0,
            "time": 0,
            "value": 0.5039370078740157
          },
          {
            "number": 10,
            "ticks": 0,
            "time": 0,
            "value": 0.5039370078740157
          },
          {
            "number": 10,
            "ticks": 0,
            "time": 0,
            "value": 0.5039370078740157
          },
          {
            "number": 10,
            "ticks": 0,
            "time": 0,
            "value": 0.5039370078740157
          },
          {
            "number": 10,
            "ticks": 25824,
            "time": 158.235215,
            "value": 0.5039370078740157
          },
          {
            "number": 10,
            "ticks": 48000,
            "time": 294.1175,
            "value": 0.5039370078740157
          },
          {
            "number": 10,
            "ticks": 48051,
            "time": 294.42999984375,
            "value": 0.5039370078740157
          },
          {
            "number": 10,
            "ticks": 48052,
            "time": 294.4361272916667,
            "value": 0.5039370078740157
          }
        ],
        "91": [
          {
            "number": 91,
            "ticks": 0,
            "time": 0,
            "value": 0
          },
          {
            "number": 91,
            "ticks": 0,
            "time": 0,
            "value": 0
          },
          {
            "number": 91,
            "ticks": 0,
            "time": 0,
            "value": 0
          },
          {
            "number": 91,
            "ticks": 0,
            "time": 0,
            "value": 0
          },
          {
            "number": 91,
            "ticks": 0,
            "time": 0,
            "value": 0
          },
          {
            "number": 91,
            "ticks": 25824,
            "time": 158.235215,
            "value": 0
          },
          {
            "number": 91,
            "ticks": 48000,
            "time": 294.1175,
            "value": 0
          },
          {
            "number": 91,
            "ticks": 48051,
            "time": 294.42999984375,
            "value": 0
          },
          {
            "number": 91,
            "ticks": 48052,
            "time": 294.4361272916667,
            "value": 0
          }
        ],
        "100": [
          {
            "number": 100,
            "ticks": 0,
            "time": 0,
            "value": 0
          },
          {
            "number": 100,
            "ticks": 0,
            "time": 0,
            "value": 0
          },
          {
            "number": 100,
            "ticks": 48000,
            "time": 294.1175,
            "value": 0
          },
          {
            "number": 100,
            "ticks": 48052,
            "time": 294.4361272916667,
            "value": 0
          }
        ],
        "101": [
          {
            "number": 101,
            "ticks": 0,
            "time": 0,
            "value": 0
          },
          {
            "number": 101,
            "ticks": 0,
            "time": 0,
            "value": 0
          },
          {
            "number": 101,
            "ticks": 48000,
            "time": 294.1175,
            "value": 0
          },
          {
            "number": 101,
            "ticks": 48052,
            "time": 294.4361272916667,
            "value": 0
          }
        ]
      },
      "pitchBends": [
        {
          "ticks": 0,
          "time": 0,
          "value": 0
        },
        {
          "ticks": 0,
          "time": 0,
          "value": 0
        },
        {
          "ticks": 0,
          "time": 0,
          "value": 0
        },
        {
          "ticks": 0,
          "time": 0,
          "value": 0
        },
        {
          "ticks": 25824,
          "time": 158.235215,
          "value": 0
        },
        {
          "ticks": 48000,
          "time": 294.1175,
          "value": 0
        },
        {
          "ticks": 48051,
          "time": 294.42999984375,
          "value": 0
        },
        {
          "ticks": 48052,
          "time": 294.4361272916667,
          "value": 0
        }
      ],
      "instrument": {
        "family": "synth lead",
        "number": 80,
        "name": "lead 1 (square)"
      },
      "name": "",
      "notes": [
        {
          "duration": 0.14705875000000113,
          "durationTicks": 24,
          "midi": 78,
          "name": "F#5",
          "ticks": 1440,
          "time": 8.823525,
          "velocity": 0.07086614173228346
        },
        {
          "duration": 0.14705874999999935,
          "durationTicks": 24,
          "midi": 78,
          "name": "F#5",
          "ticks": 1464,
          "time": 8.970583750000001,
          "velocity": 0.2204724409448819
        },
        {
          "duration": 0.14705875000000113,
          "durationTicks": 24,
          "midi": 78,
          "name": "F#5",
          "ticks": 1488,
          "time": 9.1176425,
          "velocity": 0.2440944881889764
        },
        {
          "duration": 0.14705874999999935,
          "durationTicks": 24,
          "midi": 78,
          "name": "F#5",
          "ticks": 1512,
          "time": 9.264701250000002,
          "velocity": 0.2440944881889764
        },
        {
          "duration": 0.14705874999999935,
          "durationTicks": 24,
          "midi": 78,
          "name": "F#5",
          "ticks": 1536,
          "time": 9.411760000000001,
          "velocity": 0.33858267716535434
        },
        {
          "duration": 0.14705875000000113,
          "durationTicks": 24,
          "midi": 78,
          "name": "F#5",
          "ticks": 1560,
          "time": 9.55881875,
          "velocity": 0.3937007874015748
        },
        {
          "duration": 0.14705874999999935,
          "durationTicks": 24,
          "midi": 78,
          "name": "F#5",
          "ticks": 1584,
          "time": 9.705877500000001,
          "velocity": 0.5433070866141733
        },
        {
          "duration": 0.14705875000000113,
          "durationTicks": 24,
          "midi": 78,
          "name": "F#5",
          "ticks": 1608,
          "time": 9.85293625,
          "velocity": 0.7086614173228346
        },
        {
          "duration": 0.14705874999999935,
          "durationTicks": 24,
          "midi": 78,
          "name": "F#5",
          "ticks": 1632,
          "time": 9.999995000000002,
          "velocity": 0.7874015748031497
        },
        {
          "duration": 0.14705874999999935,
          "durationTicks": 24,
          "midi": 66,
          "name": "F#4",
          "ticks": 1656,
          "time": 10.147053750000001,
          "velocity": 0.7874015748031497
        },
        {
          "duration": 0.14705874999999935,
          "durationTicks": 24,
          "midi": 78,
          "name": "F#5",
          "ticks": 1704,
          "time": 10.441171250000002,
          "velocity": 0.7874015748031497
        },
        {
          "duration": 0.14705874999999935,
          "durationTicks": 24,
          "midi": 66,
          "name": "F#4",
          "ticks": 1728,
          "time": 10.588230000000001,
          "velocity": 0.7874015748031497
        },
        {
          "duration": 0.14705874999999935,
          "durationTicks": 24,
          "midi": 78,
          "name": "F#5",
          "ticks": 1776,
          "time": 10.882347500000002,
          "velocity": 0.7874015748031497
        },
        {
          "duration": 0.14705874999999935,
          "durationTicks": 24,
          "midi": 66,
          "name": "F#4",
          "ticks": 1800,
          "time": 11.029406250000001,
          "velocity": 0.7874015748031497
        },
        {
          "duration": 0.14705875000000113,
          "durationTicks": 24,
          "midi": 66,
          "name": "F#4",
          "ticks": 1824,
          "time": 11.176465,
          "velocity": 0.7874015748031497
        },
        {
          "duration": 0.14705874999999935,
          "durationTicks": 24,
          "midi": 66,
          "name": "F#4",
          "ticks": 1848,
          "time": 11.323523750000001,
          "velocity": 0.7874015748031497
        },
        {
          "duration": 0.14705875000000113,
          "durationTicks": 24,
          "midi": 78,
          "name": "F#5",
          "ticks": 1872,
          "time": 11.4705825,
          "velocity": 0.7874015748031497
        },
        {
          "duration": 0.14705874999999935,
          "durationTicks": 24,
          "midi": 66,
          "name": "F#4",
          "ticks": 1896,
          "time": 11.617641250000002,
          "velocity": 0.7874015748031497
        },
        {
          "duration": 0.14705874999999935,
          "durationTicks": 24,
          "midi": 66,
          "name": "F#4",
          "ticks": 1920,
          "time": 11.764700000000001,
          "velocity": 0.7874015748031497
        },
        {
          "duration": 0.14705875000000113,
          "durationTicks": 24,
          "midi": 66,
          "name": "F#4",
          "ticks": 1944,
          "time": 11.91175875,
          "velocity": 0.7874015748031497
        },
        {
          "duration": 0.14705874999999935,
          "durationTicks": 24,
          "midi": 78,
          "name": "F#5",
          "ticks": 1968,
          "time": 12.058817500000002,
          "velocity": 0.7874015748031497
        },
        {
          "duration": 0.14705875000000113,
          "durationTicks": 24,
          "midi": 66,
          "name": "F#4",
          "ticks": 1992,
          "time": 12.205876250000001,
          "velocity": 0.7874015748031497
        },
        {
          "duration": 0.07352937499999967,
          "durationTicks": 12,
          "midi": 83,
          "name": "B5",
          "ticks": 5472,
          "time": 33.529395,
          "velocity": 0.7874015748031497
        },
        {
          "duration": 0.07352937500000678,
          "durationTicks": 12,
          "midi": 83,
          "name": "B5",
          "ticks": 5496,
          "time": 33.67645375,
          "velocity": 0.7874015748031497
        },
        {
          "duration": 0.07352937499999967,
          "durationTicks": 12,
          "midi": 83,
          "name": "B5",
          "ticks": 5520,
          "time": 33.82351250000001,
          "velocity": 0.7874015748031497
        },
        {
          "duration": 0.07352937499999967,
          "durationTicks": 12,
          "midi": 83,
          "name": "B5",
          "ticks": 5544,
          "time": 33.970571250000006,
          "velocity": 0.7874015748031497
        },
        {
          "duration": 0.14705874999999935,
          "durationTicks": 24,
          "midi": 83,
          "name": "B5",
          "ticks": 5568,
          "time": 34.117630000000005,
          "velocity": 0.7874015748031497
        },
        {
          "duration": 0.07352937499999967,
          "durationTicks": 12,
          "midi": 71,
          "name": "B4",
          "ticks": 5616,
          "time": 34.411747500000004,
          "velocity": 0.7874015748031497
        },
        {
          "duration": 0.07352937499999967,
          "durationTicks": 12,
          "midi": 71,
          "name": "B4",
          "ticks": 5640,
          "time": 34.55880625,
          "velocity": 0.7874015748031497
        },
        {
          "duration": 0.07352937499999967,
          "durationTicks": 12,
          "midi": 71,
          "name": "B4",
          "ticks": 5664,
          "time": 34.705865,
          "velocity": 0.7874015748031497
        },
        {
          "duration": 0.07352937499999967,
          "durationTicks": 12,
          "midi": 71,
          "name": "B4",
          "ticks": 5688,
          "time": 34.85292375,
          "velocity": 0.7874015748031497
        },
        {
          "duration": 0.14705874999999935,
          "durationTicks": 24,
          "midi": 71,
          "name": "B4",
          "ticks": 5712,
          "time": 34.9999825,
          "velocity": 0.7874015748031497
        },
        {
          "duration": 0.07352937499999257,
          "durationTicks": 12,
          "midi": 86,
          "name": "D6",
          "ticks": 15264,
          "time": 93.52936500000001,
          "velocity": 0.7874015748031497
        },
        {
          "duration": 0.07352937500000678,
          "durationTicks": 12,
          "midi": 86,
          "name": "D6",
          "ticks": 15276,
          "time": 93.602894375,
          "velocity": 0.7874015748031497
        },
        {
          "duration": 0.07352937499999257,
          "durationTicks": 12,
          "midi": 74,
          "name": "D5",
          "ticks": 15288,
          "time": 93.67642375000001,
          "velocity": 0.7874015748031497
        },
        {
          "duration": 0.07352937500000678,
          "durationTicks": 12,
          "midi": 74,
          "name": "D5",
          "ticks": 15300,
          "time": 93.749953125,
          "velocity": 0.7874015748031497
        },
        {
          "duration": 0.07352937499999257,
          "durationTicks": 12,
          "midi": 84,
          "name": "C6",
          "ticks": 15312,
          "time": 93.82348250000001,
          "velocity": 0.7874015748031497
        },
        {
          "duration": 0.07352937500000678,
          "durationTicks": 12,
          "midi": 84,
          "name": "C6",
          "ticks": 15324,
          "time": 93.897011875,
          "velocity": 0.7874015748031497
        },
        {
          "duration": 0.07352937499999257,
          "durationTicks": 12,
          "midi": 72,
          "name": "C5",
          "ticks": 15336,
          "time": 93.97054125000001,
          "velocity": 0.7874015748031497
        },
        {
          "duration": 0.07352937500000678,
          "durationTicks": 12,
          "midi": 72,
          "name": "C5",
          "ticks": 15348,
          "time": 94.044070625,
          "velocity": 0.7874015748031497
        },
        {
          "duration": 0.07352937500000678,
          "durationTicks": 12,
          "midi": 82,
          "name": "A#5",
          "ticks": 15360,
          "time": 94.11760000000001,
          "velocity": 0.7874015748031497
        },
        {
          "duration": 0.07352937499999257,
          "durationTicks": 12,
          "midi": 82,
          "name": "A#5",
          "ticks": 15372,
          "time": 94.19112937500002,
          "velocity": 0.7874015748031497
        },
        {
          "duration": 0.07352937500000678,
          "durationTicks": 12,
          "midi": 70,
          "name": "A#4",
          "ticks": 15384,
          "time": 94.26465875000001,
          "velocity": 0.7874015748031497
        },
        {
          "duration": 0.07352937499999257,
          "durationTicks": 12,
          "midi": 70,
          "name": "A#4",
          "ticks": 15396,
          "time": 94.33818812500002,
          "velocity": 0.7874015748031497
        },
        {
          "duration": 0.07352937500000678,
          "durationTicks": 12,
          "midi": 81,
          "name": "A5",
          "ticks": 15408,
          "time": 94.41171750000001,
          "velocity": 0.7874015748031497
        },
        {
          "duration": 0.07352937499999257,
          "durationTicks": 12,
          "midi": 81,
          "name": "A5",
          "ticks": 15420,
          "time": 94.48524687500002,
          "velocity": 0.7874015748031497
        },
        {
          "duration": 0.07352937500000678,
          "durationTicks": 12,
          "midi": 69,
          "name": "A4",
          "ticks": 15432,
          "time": 94.55877625000001,
          "velocity": 0.7874015748031497
        },
        {
          "duration": 0.07352937499999257,
          "durationTicks": 12,
          "midi": 69,
          "name": "A4",
          "ticks": 15444,
          "time": 94.63230562500001,
          "velocity": 0.7874015748031497
        },
        {
          "duration": 0.07352937500000678,
          "durationTicks": 12,
          "midi": 57,
          "name": "A3",
          "ticks": 15456,
          "time": 94.70583500000001,
          "velocity": 0.7874015748031497
        },
        {
          "duration": 0.07352937499999257,
          "durationTicks": 12,
          "midi": 67,
          "name": "G4",
          "ticks": 15468,
          "time": 94.77936437500001,
          "velocity": 0.7874015748031497
        },
        {
          "duration": 0.07352937499999257,
          "durationTicks": 12,
          "midi": 57,
          "name": "A3",
          "ticks": 15468,
          "time": 94.77936437500001,
          "velocity": 0.5433070866141733
        },
        {
          "duration": 0.07352937500000678,
          "durationTicks": 12,
          "midi": 74,
          "name": "D5",
          "ticks": 15480,
          "time": 94.85289375,
          "velocity": 0.7874015748031497
        },
        {
          "duration": 0.07352937500000678,
          "durationTicks": 12,
          "midi": 67,
          "name": "G4",
          "ticks": 15480,
          "time": 94.85289375,
          "velocity": 0.5433070866141733
        },
        {
          "duration": 0.07352937499999257,
          "durationTicks": 12,
          "midi": 81,
          "name": "A5",
          "ticks": 15492,
          "time": 94.92642312500001,
          "velocity": 0.7874015748031497
        },
        {
          "duration": 0.07352937499999257,
          "durationTicks": 12,
          "midi": 74,
          "name": "D5",
          "ticks": 15492,
          "time": 94.92642312500001,
          "velocity": 0.5433070866141733
        },
        {
          "duration": 0.07352937500000678,
          "durationTicks": 12,
          "midi": 74,
          "name": "D5",
          "ticks": 15504,
          "time": 94.9999525,
          "velocity": 0.7874015748031497
        },
        {
          "duration": 0.07352937500000678,
          "durationTicks": 12,
          "midi": 81,
          "name": "A5",
          "ticks": 15504,
          "time": 94.9999525,
          "velocity": 0.5433070866141733
        },
        {
          "duration": 0.07352937499999257,
          "durationTicks": 12,
          "midi": 74,
          "name": "D5",
          "ticks": 15516,
          "time": 95.07348187500001,
          "velocity": 0.5433070866141733
        },
        {
          "duration": 0.07352937499999257,
          "durationTicks": 12,
          "midi": 69,
          "name": "A4",
          "ticks": 15516,
          "time": 95.07348187500001,
          "velocity": 0.7874015748031497
        },
        {
          "duration": 0.07352937500000678,
          "durationTicks": 12,
          "midi": 69,
          "name": "A4",
          "ticks": 15528,
          "time": 95.14701125,
          "velocity": 0.5433070866141733
        },
        {
          "duration": 0.07352937500000678,
          "durationTicks": 12,
          "midi": 62,
          "name": "D4",
          "ticks": 15528,
          "time": 95.14701125,
          "velocity": 0.7874015748031497
        },
        {
          "duration": 0.07352937499999257,
          "durationTicks": 12,
          "midi": 62,
          "name": "D4",
          "ticks": 15540,
          "time": 95.22054062500001,
          "velocity": 0.5433070866141733
        },
        {
          "duration": 0.07352937500000678,
          "durationTicks": 12,
          "midi": 74,
          "name": "D5",
          "ticks": 15552,
          "time": 95.29407,
          "velocity": 0.7874015748031497
        },
        {
          "duration": 0.07352937499999257,
          "durationTicks": 12,
          "midi": 81,
          "name": "A5",
          "ticks": 15564,
          "time": 95.36759937500001,
          "velocity": 0.7874015748031497
        },
        {
          "duration": 0.07352937499999257,
          "durationTicks": 12,
          "midi": 74,
          "name": "D5",
          "ticks": 15564,
          "time": 95.36759937500001,
          "velocity": 0.5433070866141733
        },
        {
          "duration": 0.07352937500000678,
          "durationTicks": 12,
          "midi": 74,
          "name": "D5",
          "ticks": 15576,
          "time": 95.44112875,
          "velocity": 0.7874015748031497
        },
        {
          "duration": 0.07352937500000678,
          "durationTicks": 12,
          "midi": 81,
          "name": "A5",
          "ticks": 15576,
          "time": 95.44112875,
          "velocity": 0.5433070866141733
        },
        {
          "duration": 0.07352937499999257,
          "durationTicks": 12,
          "midi": 69,
          "name": "A4",
          "ticks": 15588,
          "time": 95.51465812500001,
          "velocity": 0.7874015748031497
        },
        {
          "duration": 0.07352937499999257,
          "durationTicks": 12,
          "midi": 74,
          "name": "D5",
          "ticks": 15588,
          "time": 95.51465812500001,
          "velocity": 0.5433070866141733
        },
        {
          "duration": 0.07352937500000678,
          "durationTicks": 12,
          "midi": 69,
          "name": "A4",
          "ticks": 15600,
          "time": 95.5881875,
          "velocity": 0.5433070866141733
        },
        {
          "duration": 0.07352937500000678,
          "durationTicks": 12,
          "midi": 62,
          "name": "D4",
          "ticks": 15600,
          "time": 95.5881875,
          "velocity": 0.7874015748031497
        },
        {
          "duration": 0.07352937500000678,
          "durationTicks": 12,
          "midi": 62,
          "name": "D4",
          "ticks": 15612,
          "time": 95.66171687500001,
          "velocity": 0.5433070866141733
        },
        {
          "duration": 0.07352937499999257,
          "durationTicks": 12,
          "midi": 86,
          "name": "D6",
          "ticks": 16800,
          "time": 102.94112500000001,
          "velocity": 0.7874015748031497
        },
        {
          "duration": 0.07352937500000678,
          "durationTicks": 12,
          "midi": 86,
          "name": "D6",
          "ticks": 16812,
          "time": 103.014654375,
          "velocity": 0.7874015748031497
        },
        {
          "duration": 0.07352937499999257,
          "durationTicks": 12,
          "midi": 74,
          "name": "D5",
          "ticks": 16824,
          "time": 103.08818375000001,
          "velocity": 0.7874015748031497
        },
        {
          "duration": 0.07352937500000678,
          "durationTicks": 12,
          "midi": 74,
          "name": "D5",
          "ticks": 16836,
          "time": 103.161713125,
          "velocity": 0.7874015748031497
        },
        {
          "duration": 0.07352937499999257,
          "durationTicks": 12,
          "midi": 84,
          "name": "C6",
          "ticks": 16848,
          "time": 103.23524250000001,
          "velocity": 0.7874015748031497
        },
        {
          "duration": 0.07352937500000678,
          "durationTicks": 12,
          "midi": 84,
          "name": "C6",
          "ticks": 16860,
          "time": 103.308771875,
          "velocity": 0.7874015748031497
        },
        {
          "duration": 0.07352937499999257,
          "durationTicks": 12,
          "midi": 72,
          "name": "C5",
          "ticks": 16872,
          "time": 103.38230125000001,
          "velocity": 0.7874015748031497
        },
        {
          "duration": 0.07352937500000678,
          "durationTicks": 12,
          "midi": 72,
          "name": "C5",
          "ticks": 16884,
          "time": 103.455830625,
          "velocity": 0.7874015748031497
        },
        {
          "duration": 0.07352937500000678,
          "durationTicks": 12,
          "midi": 82,
          "name": "A#5",
          "ticks": 16896,
          "time": 103.52936000000001,
          "velocity": 0.7874015748031497
        },
        {
          "duration": 0.07352937499999257,
          "durationTicks": 12,
          "midi": 82,
          "name": "A#5",
          "ticks": 16908,
          "time": 103.60288937500002,
          "velocity": 0.7874015748031497
        },
        {
          "duration": 0.07352937500000678,
          "durationTicks": 12,
          "midi": 70,
          "name": "A#4",
          "ticks": 16920,
          "time": 103.67641875000001,
          "velocity": 0.7874015748031497
        },
        {
          "duration": 0.07352937499999257,
          "durationTicks": 12,
          "midi": 70,
          "name": "A#4",
          "ticks": 16932,
          "time": 103.74994812500002,
          "velocity": 0.7874015748031497
        },
        {
          "duration": 0.07352937500000678,
          "durationTicks": 12,
          "midi": 81,
          "name": "A5",
          "ticks": 16944,
          "time": 103.82347750000001,
          "velocity": 0.7874015748031497
        },
        {
          "duration": 0.07352937499999257,
          "durationTicks": 12,
          "midi": 81,
          "name": "A5",
          "ticks": 16956,
          "time": 103.89700687500002,
          "velocity": 0.7874015748031497
        },
        {
          "duration": 0.07352937500000678,
          "durationTicks": 12,
          "midi": 69,
          "name": "A4",
          "ticks": 16968,
          "time": 103.97053625000001,
          "velocity": 0.7874015748031497
        },
        {
          "duration": 0.07352937499999257,
          "durationTicks": 12,
          "midi": 69,
          "name": "A4",
          "ticks": 16980,
          "time": 104.04406562500002,
          "velocity": 0.7874015748031497
        },
        {
          "duration": 0.07352937500002099,
          "durationTicks": 12,
          "midi": 79,
          "name": "G5",
          "ticks": 20976,
          "time": 128.5293475,
          "velocity": 0.7874015748031497
        },
        {
          "duration": 0.07352937499999257,
          "durationTicks": 12,
          "midi": 77,
          "name": "F5",
          "ticks": 21000,
          "time": 128.67640625,
          "velocity": 0.7874015748031497
        },
        {
          "duration": 0.07352937500002099,
          "durationTicks": 12,
          "midi": 79,
          "name": "G5",
          "ticks": 21012,
          "time": 128.749935625,
          "velocity": 0.5748031496062992
        },
        {
          "duration": 0.07352937499999257,
          "durationTicks": 12,
          "midi": 79,
          "name": "G5",
          "ticks": 21024,
          "time": 128.82346500000003,
          "velocity": 0.7874015748031497
        },
        {
          "duration": 0.07352937499999257,
          "durationTicks": 12,
          "midi": 77,
          "name": "F5",
          "ticks": 21036,
          "time": 128.89699437500002,
          "velocity": 0.5748031496062992
        },
        {
          "duration": 0.07352937499999257,
          "durationTicks": 12,
          "midi": 77,
          "name": "F5",
          "ticks": 21048,
          "time": 128.97052375,
          "velocity": 0.7874015748031497
        },
        {
          "duration": 0.07352937500002099,
          "durationTicks": 12,
          "midi": 79,
          "name": "G5",
          "ticks": 21060,
          "time": 129.044053125,
          "velocity": 0.5748031496062992
        },
        {
          "duration": 0.07352937499999257,
          "durationTicks": 12,
          "midi": 77,
          "name": "F5",
          "ticks": 21084,
          "time": 129.19111187500002,
          "velocity": 0.5748031496062992
        },
        {
          "duration": 0.14705875000001356,
          "durationTicks": 24,
          "midi": 91,
          "name": "G6",
          "ticks": 24672,
          "time": 151.176395,
          "velocity": 0.14960629921259844
        },
        {
          "duration": 0.14705875000001356,
          "durationTicks": 24,
          "midi": 86,
          "name": "D6",
          "ticks": 24720,
          "time": 151.4705125,
          "velocity": 0.28346456692913385
        },
        {
          "duration": 0.14705875000001356,
          "durationTicks": 24,
          "midi": 91,
          "name": "G6",
          "ticks": 24768,
          "time": 151.76463,
          "velocity": 0.3700787401574803
        },
        {
          "duration": 0.14705875000001356,
          "durationTicks": 24,
          "midi": 86,
          "name": "D6",
          "ticks": 24816,
          "time": 152.0587475,
          "velocity": 0.4645669291338583
        },
        {
          "duration": 0.14705875000001356,
          "durationTicks": 24,
          "midi": 91,
          "name": "G6",
          "ticks": 24864,
          "time": 152.352865,
          "velocity": 0.5984251968503937
        },
        {
          "duration": 0.14705875000001356,
          "durationTicks": 24,
          "midi": 86,
          "name": "D6",
          "ticks": 24912,
          "time": 152.6469825,
          "velocity": 0.6377952755905512
        },
        {
          "duration": 0.14705875000001356,
          "durationTicks": 24,
          "midi": 91,
          "name": "G6",
          "ticks": 24960,
          "time": 152.9411,
          "velocity": 0.7874015748031497
        },
        {
          "duration": 0.14705875000001356,
          "durationTicks": 24,
          "midi": 86,
          "name": "D6",
          "ticks": 25008,
          "time": 153.2352175,
          "velocity": 0.7874015748031497
        },
        {
          "duration": 0.14705875000001356,
          "durationTicks": 24,
          "midi": 91,
          "name": "G6",
          "ticks": 25056,
          "time": 153.529335,
          "velocity": 0.7874015748031497
        },
        {
          "duration": 0.14705875000001356,
          "durationTicks": 24,
          "midi": 86,
          "name": "D6",
          "ticks": 25080,
          "time": 153.67639375000002,
          "velocity": 0.7874015748031497
        },
        {
          "duration": 0.14705874999998514,
          "durationTicks": 24,
          "midi": 79,
          "name": "G5",
          "ticks": 25104,
          "time": 153.82345250000003,
          "velocity": 0.7874015748031497
        },
        {
          "duration": 0.14705875000001356,
          "durationTicks": 24,
          "midi": 86,
          "name": "D6",
          "ticks": 25128,
          "time": 153.97051125000002,
          "velocity": 0.7874015748031497
        },
        {
          "duration": 0.14705874999998514,
          "durationTicks": 24,
          "midi": 91,
          "name": "G6",
          "ticks": 25152,
          "time": 154.11757000000003,
          "velocity": 0.7874015748031497
        },
        {
          "duration": 0.14705875000001356,
          "durationTicks": 24,
          "midi": 86,
          "name": "D6",
          "ticks": 25176,
          "time": 154.26462875,
          "velocity": 0.7874015748031497
        },
        {
          "duration": 0.14705874999998514,
          "durationTicks": 24,
          "midi": 79,
          "name": "G5",
          "ticks": 25200,
          "time": 154.41168750000003,
          "velocity": 0.7874015748031497
        },
        {
          "duration": 0.14705875000001356,
          "durationTicks": 24,
          "midi": 86,
          "name": "D6",
          "ticks": 25224,
          "time": 154.55874625,
          "velocity": 0.7874015748031497
        },
        {
          "duration": 0.14705874999998514,
          "durationTicks": 24,
          "midi": 91,
          "name": "G6",
          "ticks": 25248,
          "time": 154.70580500000003,
          "velocity": 0.7874015748031497
        },
        {
          "duration": 0.14705875000001356,
          "durationTicks": 24,
          "midi": 86,
          "name": "D6",
          "ticks": 25272,
          "time": 154.85286375,
          "velocity": 0.7874015748031497
        },
        {
          "duration": 0.14705874999998514,
          "durationTicks": 24,
          "midi": 79,
          "name": "G5",
          "ticks": 25296,
          "time": 154.99992250000003,
          "velocity": 0.7874015748031497
        },
        {
          "duration": 0.14705875000001356,
          "durationTicks": 24,
          "midi": 86,
          "name": "D6",
          "ticks": 25320,
          "time": 155.14698125,
          "velocity": 0.7874015748031497
        },
        {
          "duration": 0.14705874999998514,
          "durationTicks": 24,
          "midi": 91,
          "name": "G6",
          "ticks": 25344,
          "time": 155.29404000000002,
          "velocity": 0.7874015748031497
        },
        {
          "duration": 0.14705875000001356,
          "durationTicks": 24,
          "midi": 86,
          "name": "D6",
          "ticks": 25368,
          "time": 155.44109875,
          "velocity": 0.7086614173228346
        },
        {
          "duration": 0.14705874999998514,
          "durationTicks": 24,
          "midi": 79,
          "name": "G5",
          "ticks": 25392,
          "time": 155.58815750000002,
          "velocity": 0.6535433070866141
        },
        {
          "duration": 0.14705875000001356,
          "durationTicks": 24,
          "midi": 86,
          "name": "D6",
          "ticks": 25416,
          "time": 155.73521625,
          "velocity": 0.5590551181102362
        },
        {
          "duration": 0.14705874999998514,
          "durationTicks": 24,
          "midi": 91,
          "name": "G6",
          "ticks": 25440,
          "time": 155.88227500000002,
          "velocity": 0.4645669291338583
        },
        {
          "duration": 0.14705875000001356,
          "durationTicks": 24,
          "midi": 86,
          "name": "D6",
          "ticks": 25464,
          "time": 156.02933375,
          "velocity": 0.3543307086614173
        },
        {
          "duration": 0.14705874999998514,
          "durationTicks": 24,
          "midi": 79,
          "name": "G5",
          "ticks": 25488,
          "time": 156.17639250000002,
          "velocity": 0.28346456692913385
        },
        {
          "duration": 0.14705875000001356,
          "durationTicks": 24,
          "midi": 86,
          "name": "D6",
          "ticks": 25512,
          "time": 156.32345125,
          "velocity": 0.14960629921259844
        },
        {
          "duration": 0.07352937499999257,
          "durationTicks": 12,
          "midi": 83,
          "name": "B5",
          "ticks": 26208,
          "time": 160.58815500000003,
          "velocity": 0.7874015748031497
        },
        {
          "duration": 0.07352937499999257,
          "durationTicks": 12,
          "midi": 83,
          "name": "B5",
          "ticks": 26232,
          "time": 160.73521375,
          "velocity": 0.7874015748031497
        },
        {
          "duration": 0.07352937499999257,
          "durationTicks": 12,
          "midi": 83,
          "name": "B5",
          "ticks": 26256,
          "time": 160.88227250000003,
          "velocity": 0.7874015748031497
        },
        {
          "duration": 0.07352937499999257,
          "durationTicks": 12,
          "midi": 83,
          "name": "B5",
          "ticks": 26280,
          "time": 161.02933125,
          "velocity": 0.7874015748031497
        },
        {
          "duration": 0.14705874999998514,
          "durationTicks": 24,
          "midi": 83,
          "name": "B5",
          "ticks": 26304,
          "time": 161.17639000000003,
          "velocity": 0.7874015748031497
        },
        {
          "duration": 0.07352937499999257,
          "durationTicks": 12,
          "midi": 71,
          "name": "B4",
          "ticks": 26352,
          "time": 161.47050750000002,
          "velocity": 0.7874015748031497
        },
        {
          "duration": 0.07352937500002099,
          "durationTicks": 12,
          "midi": 71,
          "name": "B4",
          "ticks": 26376,
          "time": 161.61756625,
          "velocity": 0.7874015748031497
        },
        {
          "duration": 0.07352937499999257,
          "durationTicks": 12,
          "midi": 71,
          "name": "B4",
          "ticks": 26400,
          "time": 161.76462500000002,
          "velocity": 0.7874015748031497
        },
        {
          "duration": 0.07352937500002099,
          "durationTicks": 12,
          "midi": 71,
          "name": "B4",
          "ticks": 26424,
          "time": 161.91168375,
          "velocity": 0.7874015748031497
        },
        {
          "duration": 0.14705874999998514,
          "durationTicks": 24,
          "midi": 71,
          "name": "B4",
          "ticks": 26448,
          "time": 162.05874250000002,
          "velocity": 0.7874015748031497
        },
        {
          "duration": 0.07352937499999257,
          "durationTicks": 12,
          "midi": 86,
          "name": "D6",
          "ticks": 36000,
          "time": 220.58812500000002,
          "velocity": 0.7874015748031497
        },
        {
          "duration": 0.07352937500002099,
          "durationTicks": 12,
          "midi": 86,
          "name": "D6",
          "ticks": 36012,
          "time": 220.661654375,
          "velocity": 0.7874015748031497
        },
        {
          "duration": 0.07352937499999257,
          "durationTicks": 12,
          "midi": 74,
          "name": "D5",
          "ticks": 36024,
          "time": 220.73518375000003,
          "velocity": 0.7874015748031497
        },
        {
          "duration": 0.07352937499999257,
          "durationTicks": 12,
          "midi": 74,
          "name": "D5",
          "ticks": 36036,
          "time": 220.80871312500003,
          "velocity": 0.7874015748031497
        },
        {
          "duration": 0.07352937499999257,
          "durationTicks": 12,
          "midi": 84,
          "name": "C6",
          "ticks": 36048,
          "time": 220.88224250000002,
          "velocity": 0.7874015748031497
        },
        {
          "duration": 0.07352937500002099,
          "durationTicks": 12,
          "midi": 84,
          "name": "C6",
          "ticks": 36060,
          "time": 220.955771875,
          "velocity": 0.7874015748031497
        },
        {
          "duration": 0.07352937499999257,
          "durationTicks": 12,
          "midi": 72,
          "name": "C5",
          "ticks": 36072,
          "time": 221.02930125000003,
          "velocity": 0.7874015748031497
        },
        {
          "duration": 0.07352937499999257,
          "durationTicks": 12,
          "midi": 72,
          "name": "C5",
          "ticks": 36084,
          "time": 221.10283062500002,
          "velocity": 0.7874015748031497
        },
        {
          "duration": 0.07352937500002099,
          "durationTicks": 12,
          "midi": 82,
          "name": "A#5",
          "ticks": 36096,
          "time": 221.17636000000002,
          "velocity": 0.7874015748031497
        },
        {
          "duration": 0.07352937499999257,
          "durationTicks": 12,
          "midi": 82,
          "name": "A#5",
          "ticks": 36108,
          "time": 221.24988937500004,
          "velocity": 0.7874015748031497
        },
        {
          "duration": 0.07352937499999257,
          "durationTicks": 12,
          "midi": 70,
          "name": "A#4",
          "ticks": 36120,
          "time": 221.32341875000003,
          "velocity": 0.7874015748031497
        },
        {
          "duration": 0.07352937499999257,
          "durationTicks": 12,
          "midi": 70,
          "name": "A#4",
          "ticks": 36132,
          "time": 221.39694812500002,
          "velocity": 0.7874015748031497
        },
        {
          "duration": 0.07352937500002099,
          "durationTicks": 12,
          "midi": 81,
          "name": "A5",
          "ticks": 36144,
          "time": 221.47047750000002,
          "velocity": 0.7874015748031497
        },
        {
          "duration": 0.07352937499999257,
          "durationTicks": 12,
          "midi": 81,
          "name": "A5",
          "ticks": 36156,
          "time": 221.54400687500004,
          "velocity": 0.7874015748031497
        },
        {
          "duration": 0.07352937499999257,
          "durationTicks": 12,
          "midi": 69,
          "name": "A4",
          "ticks": 36168,
          "time": 221.61753625000003,
          "velocity": 0.7874015748031497
        },
        {
          "duration": 0.07352937499999257,
          "durationTicks": 12,
          "midi": 69,
          "name": "A4",
          "ticks": 36180,
          "time": 221.69106562500002,
          "velocity": 0.7874015748031497
        },
        {
          "duration": 0.07352937500002099,
          "durationTicks": 12,
          "midi": 57,
          "name": "A3",
          "ticks": 36192,
          "time": 221.764595,
          "velocity": 0.7874015748031497
        },
        {
          "duration": 0.07352937499999257,
          "durationTicks": 12,
          "midi": 67,
          "name": "G4",
          "ticks": 36204,
          "time": 221.83812437500004,
          "velocity": 0.7874015748031497
        },
        {
          "duration": 0.07352937499999257,
          "durationTicks": 12,
          "midi": 57,
          "name": "A3",
          "ticks": 36204,
          "time": 221.83812437500004,
          "velocity": 0.5433070866141733
        },
        {
          "duration": 0.07352937499999257,
          "durationTicks": 12,
          "midi": 74,
          "name": "D5",
          "ticks": 36216,
          "time": 221.91165375000003,
          "velocity": 0.7874015748031497
        },
        {
          "duration": 0.07352937499999257,
          "durationTicks": 12,
          "midi": 67,
          "name": "G4",
          "ticks": 36216,
          "time": 221.91165375000003,
          "velocity": 0.5433070866141733
        },
        {
          "duration": 0.07352937499999257,
          "durationTicks": 12,
          "midi": 81,
          "name": "A5",
          "ticks": 36228,
          "time": 221.98518312500002,
          "velocity": 0.7874015748031497
        },
        {
          "duration": 0.07352937499999257,
          "durationTicks": 12,
          "midi": 74,
          "name": "D5",
          "ticks": 36228,
          "time": 221.98518312500002,
          "velocity": 0.5433070866141733
        },
        {
          "duration": 0.07352937500002099,
          "durationTicks": 12,
          "midi": 74,
          "name": "D5",
          "ticks": 36240,
          "time": 222.0587125,
          "velocity": 0.7874015748031497
        },
        {
          "duration": 0.07352937500002099,
          "durationTicks": 12,
          "midi": 81,
          "name": "A5",
          "ticks": 36240,
          "time": 222.0587125,
          "velocity": 0.5433070866141733
        },
        {
          "duration": 0.07352937499999257,
          "durationTicks": 12,
          "midi": 74,
          "name": "D5",
          "ticks": 36252,
          "time": 222.13224187500003,
          "velocity": 0.5433070866141733
        },
        {
          "duration": 0.07352937499999257,
          "durationTicks": 12,
          "midi": 69,
          "name": "A4",
          "ticks": 36252,
          "time": 222.13224187500003,
          "velocity": 0.7874015748031497
        },
        {
          "duration": 0.07352937499999257,
          "durationTicks": 12,
          "midi": 69,
          "name": "A4",
          "ticks": 36264,
          "time": 222.20577125000003,
          "velocity": 0.5433070866141733
        },
        {
          "duration": 0.07352937499999257,
          "durationTicks": 12,
          "midi": 62,
          "name": "D4",
          "ticks": 36264,
          "time": 222.20577125000003,
          "velocity": 0.7874015748031497
        },
        {
          "duration": 0.07352937499999257,
          "durationTicks": 12,
          "midi": 62,
          "name": "D4",
          "ticks": 36276,
          "time": 222.27930062500002,
          "velocity": 0.5433070866141733
        },
        {
          "duration": 0.07352937500002099,
          "durationTicks": 12,
          "midi": 74,
          "name": "D5",
          "ticks": 36288,
          "time": 222.35283,
          "velocity": 0.7874015748031497
        },
        {
          "duration": 0.07352937499999257,
          "durationTicks": 12,
          "midi": 81,
          "name": "A5",
          "ticks": 36300,
          "time": 222.42635937500003,
          "velocity": 0.7874015748031497
        },
        {
          "duration": 0.07352937499999257,
          "durationTicks": 12,
          "midi": 74,
          "name": "D5",
          "ticks": 36300,
          "time": 222.42635937500003,
          "velocity": 0.5433070866141733
        },
        {
          "duration": 0.07352937499999257,
          "durationTicks": 12,
          "midi": 74,
          "name": "D5",
          "ticks": 36312,
          "time": 222.49988875000003,
          "velocity": 0.7874015748031497
        },
        {
          "duration": 0.07352937499999257,
          "durationTicks": 12,
          "midi": 81,
          "name": "A5",
          "ticks": 36312,
          "time": 222.49988875000003,
          "velocity": 0.5433070866141733
        },
        {
          "duration": 0.07352937499999257,
          "durationTicks": 12,
          "midi": 69,
          "name": "A4",
          "ticks": 36324,
          "time": 222.57341812500002,
          "velocity": 0.7874015748031497
        },
        {
          "duration": 0.07352937499999257,
          "durationTicks": 12,
          "midi": 74,
          "name": "D5",
          "ticks": 36324,
          "time": 222.57341812500002,
          "velocity": 0.5433070866141733
        },
        {
          "duration": 0.07352937500002099,
          "durationTicks": 12,
          "midi": 69,
          "name": "A4",
          "ticks": 36336,
          "time": 222.6469475,
          "velocity": 0.5433070866141733
        },
        {
          "duration": 0.07352937500002099,
          "durationTicks": 12,
          "midi": 62,
          "name": "D4",
          "ticks": 36336,
          "time": 222.6469475,
          "velocity": 0.7874015748031497
        },
        {
          "duration": 0.07352937499999257,
          "durationTicks": 12,
          "midi": 62,
          "name": "D4",
          "ticks": 36348,
          "time": 222.72047687500003,
          "velocity": 0.5433070866141733
        },
        {
          "duration": 0.07352937499999257,
          "durationTicks": 12,
          "midi": 86,
          "name": "D6",
          "ticks": 37536,
          "time": 229.99988500000003,
          "velocity": 0.7874015748031497
        },
        {
          "duration": 0.07352937499999257,
          "durationTicks": 12,
          "midi": 86,
          "name": "D6",
          "ticks": 37548,
          "time": 230.07341437500003,
          "velocity": 0.7874015748031497
        },
        {
          "duration": 0.07352937499999257,
          "durationTicks": 12,
          "midi": 74,
          "name": "D5",
          "ticks": 37560,
          "time": 230.14694375000002,
          "velocity": 0.7874015748031497
        },
        {
          "duration": 0.07352937500002099,
          "durationTicks": 12,
          "midi": 74,
          "name": "D5",
          "ticks": 37572,
          "time": 230.220473125,
          "velocity": 0.7874015748031497
        },
        {
          "duration": 0.07352937499999257,
          "durationTicks": 12,
          "midi": 84,
          "name": "C6",
          "ticks": 37584,
          "time": 230.29400250000003,
          "velocity": 0.7874015748031497
        },
        {
          "duration": 0.07352937499999257,
          "durationTicks": 12,
          "midi": 84,
          "name": "C6",
          "ticks": 37596,
          "time": 230.36753187500003,
          "velocity": 0.7874015748031497
        },
        {
          "duration": 0.07352937499999257,
          "durationTicks": 12,
          "midi": 72,
          "name": "C5",
          "ticks": 37608,
          "time": 230.44106125000002,
          "velocity": 0.7874015748031497
        },
        {
          "duration": 0.07352937500002099,
          "durationTicks": 12,
          "midi": 72,
          "name": "C5",
          "ticks": 37620,
          "time": 230.514590625,
          "velocity": 0.7874015748031497
        },
        {
          "duration": 0.07352937499999257,
          "durationTicks": 12,
          "midi": 82,
          "name": "A#5",
          "ticks": 37632,
          "time": 230.58812000000003,
          "velocity": 0.7874015748031497
        },
        {
          "duration": 0.07352937499999257,
          "durationTicks": 12,
          "midi": 82,
          "name": "A#5",
          "ticks": 37644,
          "time": 230.66164937500002,
          "velocity": 0.7874015748031497
        },
        {
          "duration": 0.07352937500002099,
          "durationTicks": 12,
          "midi": 70,
          "name": "A#4",
          "ticks": 37656,
          "time": 230.73517875000002,
          "velocity": 0.7874015748031497
        },
        {
          "duration": 0.07352937499999257,
          "durationTicks": 12,
          "midi": 70,
          "name": "A#4",
          "ticks": 37668,
          "time": 230.80870812500004,
          "velocity": 0.7874015748031497
        },
        {
          "duration": 0.07352937499999257,
          "durationTicks": 12,
          "midi": 81,
          "name": "A5",
          "ticks": 37680,
          "time": 230.88223750000003,
          "velocity": 0.7874015748031497
        },
        {
          "duration": 0.07352937499999257,
          "durationTicks": 12,
          "midi": 81,
          "name": "A5",
          "ticks": 37692,
          "time": 230.95576687500002,
          "velocity": 0.7874015748031497
        },
        {
          "duration": 0.07352937500002099,
          "durationTicks": 12,
          "midi": 69,
          "name": "A4",
          "ticks": 37704,
          "time": 231.02929625000002,
          "velocity": 0.7874015748031497
        },
        {
          "duration": 0.07352937499999257,
          "durationTicks": 12,
          "midi": 69,
          "name": "A4",
          "ticks": 37716,
          "time": 231.10282562500004,
          "velocity": 0.7874015748031497
        },
        {
          "duration": 0.07352937499999257,
          "durationTicks": 12,
          "midi": 79,
          "name": "G5",
          "ticks": 41712,
          "time": 255.58810750000004,
          "velocity": 0.7874015748031497
        },
        {
          "duration": 0.07352937500002099,
          "durationTicks": 12,
          "midi": 77,
          "name": "F5",
          "ticks": 41736,
          "time": 255.73516625000002,
          "velocity": 0.7874015748031497
        },
        {
          "duration": 0.07352937499999257,
          "durationTicks": 12,
          "midi": 79,
          "name": "G5",
          "ticks": 41748,
          "time": 255.80869562500004,
          "velocity": 0.5748031496062992
        },
        {
          "duration": 0.07352937499999257,
          "durationTicks": 12,
          "midi": 79,
          "name": "G5",
          "ticks": 41760,
          "time": 255.88222500000003,
          "velocity": 0.7874015748031497
        },
        {
          "duration": 0.07352937500002099,
          "durationTicks": 12,
          "midi": 77,
          "name": "F5",
          "ticks": 41772,
          "time": 255.95575437500003,
          "velocity": 0.5748031496062992
        },
        {
          "duration": 0.07352937499996415,
          "durationTicks": 12,
          "midi": 77,
          "name": "F5",
          "ticks": 41784,
          "time": 256.02928375000005,
          "velocity": 0.7874015748031497
        },
        {
          "duration": 0.07352937500002099,
          "durationTicks": 12,
          "midi": 79,
          "name": "G5",
          "ticks": 41796,
          "time": 256.102813125,
          "velocity": 0.5748031496062992
        },
        {
          "duration": 0.07352937499996415,
          "durationTicks": 12,
          "midi": 77,
          "name": "F5",
          "ticks": 41820,
          "time": 256.24987187500005,
          "velocity": 0.5748031496062992
        },
        {
          "duration": 0.14705874999998514,
          "durationTicks": 24,
          "midi": 91,
          "name": "G6",
          "ticks": 45408,
          "time": 278.235155,
          "velocity": 0.14960629921259844
        },
        {
          "duration": 0.14705874999998514,
          "durationTicks": 24,
          "midi": 86,
          "name": "D6",
          "ticks": 45456,
          "time": 278.52927250000005,
          "velocity": 0.28346456692913385
        },
        {
          "duration": 0.14705874999998514,
          "durationTicks": 24,
          "midi": 91,
          "name": "G6",
          "ticks": 45504,
          "time": 278.82339,
          "velocity": 0.3700787401574803
        },
        {
          "duration": 0.14705874999998514,
          "durationTicks": 24,
          "midi": 86,
          "name": "D6",
          "ticks": 45552,
          "time": 279.11750750000004,
          "velocity": 0.4645669291338583
        },
        {
          "duration": 0.14705875000004198,
          "durationTicks": 24,
          "midi": 91,
          "name": "G6",
          "ticks": 45600,
          "time": 279.411625,
          "velocity": 0.5984251968503937
        },
        {
          "duration": 0.14705874999998514,
          "durationTicks": 24,
          "midi": 86,
          "name": "D6",
          "ticks": 45648,
          "time": 279.70574250000004,
          "velocity": 0.6377952755905512
        },
        {
          "duration": 0.14705875000004198,
          "durationTicks": 24,
          "midi": 91,
          "name": "G6",
          "ticks": 45696,
          "time": 279.99986,
          "velocity": 0.7874015748031497
        },
        {
          "duration": 0.14705874999998514,
          "durationTicks": 24,
          "midi": 86,
          "name": "D6",
          "ticks": 45744,
          "time": 280.29397750000004,
          "velocity": 0.7874015748031497
        },
        {
          "duration": 0.14705875000004198,
          "durationTicks": 24,
          "midi": 91,
          "name": "G6",
          "ticks": 45792,
          "time": 280.588095,
          "velocity": 0.7874015748031497
        },
        {
          "duration": 0.14705874999998514,
          "durationTicks": 24,
          "midi": 86,
          "name": "D6",
          "ticks": 45816,
          "time": 280.73515375000005,
          "velocity": 0.7874015748031497
        },
        {
          "duration": 0.14705874999998514,
          "durationTicks": 24,
          "midi": 79,
          "name": "G5",
          "ticks": 45840,
          "time": 280.88221250000004,
          "velocity": 0.7874015748031497
        },
        {
          "duration": 0.14705874999998514,
          "durationTicks": 24,
          "midi": 86,
          "name": "D6",
          "ticks": 45864,
          "time": 281.02927125,
          "velocity": 0.7874015748031497
        },
        {
          "duration": 0.14705875000004198,
          "durationTicks": 24,
          "midi": 91,
          "name": "G6",
          "ticks": 45888,
          "time": 281.17633,
          "velocity": 0.7874015748031497
        },
        {
          "duration": 0.14705874999998514,
          "durationTicks": 24,
          "midi": 86,
          "name": "D6",
          "ticks": 45912,
          "time": 281.32338875000005,
          "velocity": 0.7874015748031497
        },
        {
          "duration": 0.14705874999998514,
          "durationTicks": 24,
          "midi": 79,
          "name": "G5",
          "ticks": 45936,
          "time": 281.47044750000003,
          "velocity": 0.7874015748031497
        },
        {
          "duration": 0.14705874999998514,
          "durationTicks": 24,
          "midi": 86,
          "name": "D6",
          "ticks": 45960,
          "time": 281.61750625,
          "velocity": 0.7874015748031497
        },
        {
          "duration": 0.14705875000004198,
          "durationTicks": 24,
          "midi": 91,
          "name": "G6",
          "ticks": 45984,
          "time": 281.764565,
          "velocity": 0.7874015748031497
        },
        {
          "duration": 0.14705874999998514,
          "durationTicks": 24,
          "midi": 86,
          "name": "D6",
          "ticks": 46008,
          "time": 281.91162375000005,
          "velocity": 0.7874015748031497
        },
        {
          "duration": 0.14705874999998514,
          "durationTicks": 24,
          "midi": 79,
          "name": "G5",
          "ticks": 46032,
          "time": 282.05868250000003,
          "velocity": 0.7874015748031497
        },
        {
          "duration": 0.14705874999998514,
          "durationTicks": 24,
          "midi": 86,
          "name": "D6",
          "ticks": 46056,
          "time": 282.20574125,
          "velocity": 0.7874015748031497
        },
        {
          "duration": 0.14705875000004198,
          "durationTicks": 24,
          "midi": 91,
          "name": "G6",
          "ticks": 46080,
          "time": 282.3528,
          "velocity": 0.7874015748031497
        },
        {
          "duration": 0.14705874999998514,
          "durationTicks": 24,
          "midi": 86,
          "name": "D6",
          "ticks": 46104,
          "time": 282.49985875000004,
          "velocity": 0.7086614173228346
        },
        {
          "duration": 0.14705874999998514,
          "durationTicks": 24,
          "midi": 79,
          "name": "G5",
          "ticks": 46128,
          "time": 282.64691750000003,
          "velocity": 0.6535433070866141
        },
        {
          "duration": 0.14705875000004198,
          "durationTicks": 24,
          "midi": 86,
          "name": "D6",
          "ticks": 46152,
          "time": 282.79397625,
          "velocity": 0.5590551181102362
        },
        {
          "duration": 0.14705874999998514,
          "durationTicks": 24,
          "midi": 91,
          "name": "G6",
          "ticks": 46176,
          "time": 282.94103500000006,
          "velocity": 0.4645669291338583
        },
        {
          "duration": 0.14705874999998514,
          "durationTicks": 24,
          "midi": 86,
          "name": "D6",
          "ticks": 46200,
          "time": 283.08809375000004,
          "velocity": 0.3543307086614173
        },
        {
          "duration": 0.14705874999998514,
          "durationTicks": 24,
          "midi": 79,
          "name": "G5",
          "ticks": 46224,
          "time": 283.2351525,
          "velocity": 0.28346456692913385
        },
        {
          "duration": 0.14705875000004198,
          "durationTicks": 24,
          "midi": 86,
          "name": "D6",
          "ticks": 46248,
          "time": 283.38221125,
          "velocity": 0.14960629921259844
        }
      ]
    },
    {
      "channel": 0,
      "controlChanges": {
        "6": [
          {
            "number": 6,
            "ticks": 0,
            "time": 0,
            "value": 0.09448818897637795
          }
        ],
        "7": [
          {
            "number": 7,
            "ticks": 0,
            "time": 0,
            "value": 0.6062992125984252
          },
          {
            "number": 7,
            "ticks": 0,
            "time": 0,
            "value": 0.6062992125984252
          }
        ],
        "10": [
          {
            "number": 10,
            "ticks": 0,
            "time": 0,
            "value": 0.5039370078740157
          },
          {
            "number": 10,
            "ticks": 0,
            "time": 0,
            "value": 0.5039370078740157
          }
        ],
        "100": [
          {
            "number": 100,
            "ticks": 0,
            "time": 0,
            "value": 0
          }
        ],
        "101": [
          {
            "number": 101,
            "ticks": 0,
            "time": 0,
            "value": 0
          }
        ]
      },
      "pitchBends": [
        {
          "ticks": 0,
          "time": 0,
          "value": 0
        },
        {
          "ticks": 0,
          "time": 0,
          "value": 0
        }
      ],
      "instrument": {
        "family": "piano",
        "number": 0,
        "name": "acoustic grand piano"
      },
      "name": "Drums - (c) TheBlurCafe",
      "notes": [],
      "endOfTrackTicks": 48052
    },
    {
      "channel": 9,
      "controlChanges": {
        "6": [
          {
            "number": 6,
            "ticks": 0,
            "time": 0,
            "value": 0.09448818897637795
          },
          {
            "number": 6,
            "ticks": 0,
            "time": 0,
            "value": 0.09448818897637795
          },
          {
            "number": 6,
            "ticks": 48000,
            "time": 294.1175,
            "value": 0.09448818897637795
          },
          {
            "number": 6,
            "ticks": 48052,
            "time": 294.4361272916667,
            "value": 0.09448818897637795
          }
        ],
        "7": [
          {
            "number": 7,
            "ticks": 0,
            "time": 0,
            "value": 0.6062992125984252
          },
          {
            "number": 7,
            "ticks": 0,
            "time": 0,
            "value": 0.6062992125984252
          },
          {
            "number": 7,
            "ticks": 48000,
            "time": 294.1175,
            "value": 0.6062992125984252
          },
          {
            "number": 7,
            "ticks": 48052,
            "time": 294.4361272916667,
            "value": 0.6062992125984252
          }
        ],
        "10": [
          {
            "number": 10,
            "ticks": 0,
            "time": 0,
            "value": 0.5039370078740157
          },
          {
            "number": 10,
            "ticks": 0,
            "time": 0,
            "value": 0.5039370078740157
          },
          {
            "number": 10,
            "ticks": 0,
            "time": 0,
            "value": 0.5039370078740157
          },
          {
            "number": 10,
            "ticks": 0,
            "time": 0,
            "value": 0.5039370078740157
          },
          {
            "number": 10,
            "ticks": 25824,
            "time": 158.235215,
            "value": 0.5039370078740157
          },
          {
            "number": 10,
            "ticks": 48000,
            "time": 294.1175,
            "value": 0.5039370078740157
          },
          {
            "number": 10,
            "ticks": 48051,
            "time": 294.42999984375,
            "value": 0.5039370078740157
          },
          {
            "number": 10,
            "ticks": 48052,
            "time": 294.4361272916667,
            "value": 0.5039370078740157
          }
        ],
        "91": [
          {
            "number": 91,
            "ticks": 0,
            "time": 0,
            "value": 0
          },
          {
            "number": 91,
            "ticks": 0,
            "time": 0,
            "value": 0
          },
          {
            "number": 91,
            "ticks": 0,
            "time": 0,
            "value": 0
          },
          {
            "number": 91,
            "ticks": 0,
            "time": 0,
            "value": 0
          },
          {
            "number": 91,
            "ticks": 0,
            "time": 0,
            "value": 0
          },
          {
            "number": 91,
            "ticks": 25824,
            "time": 158.235215,
            "value": 0
          },
          {
            "number": 91,
            "ticks": 48000,
            "time": 294.1175,
            "value": 0
          },
          {
            "number": 91,
            "ticks": 48051,
            "time": 294.42999984375,
            "value": 0
          },
          {
            "number": 91,
            "ticks": 48052,
            "time": 294.4361272916667,
            "value": 0
          }
        ],
        "100": [
          {
            "number": 100,
            "ticks": 0,
            "time": 0,
            "value": 0
          },
          {
            "number": 100,
            "ticks": 0,
            "time": 0,
            "value": 0
          },
          {
            "number": 100,
            "ticks": 48000,
            "time": 294.1175,
            "value": 0
          },
          {
            "number": 100,
            "ticks": 48052,
            "time": 294.4361272916667,
            "value": 0
          }
        ],
        "101": [
          {
            "number": 101,
            "ticks": 0,
            "time": 0,
            "value": 0
          },
          {
            "number": 101,
            "ticks": 0,
            "time": 0,
            "value": 0
          },
          {
            "number": 101,
            "ticks": 48000,
            "time": 294.1175,
            "value": 0
          },
          {
            "number": 101,
            "ticks": 48052,
            "time": 294.4361272916667,
            "value": 0
          }
        ]
      },
      "pitchBends": [
        {
          "ticks": 0,
          "time": 0,
          "value": 0
        },
        {
          "ticks": 0,
          "time": 0,
          "value": 0
        },
        {
          "ticks": 0,
          "time": 0,
          "value": 0
        },
        {
          "ticks": 0,
          "time": 0,
          "value": 0
        },
        {
          "ticks": 25824,
          "time": 158.235215,
          "value": 0
        },
        {
          "ticks": 48000,
          "time": 294.1175,
          "value": 0
        },
        {
          "ticks": 48051,
          "time": 294.42999984375,
          "value": 0
        },
        {
          "ticks": 48052,
          "time": 294.4361272916667,
          "value": 0
        }
      ],
      "instrument": {
        "family": "drums",
        "number": 16,
        "name": "power kit"
      },
      "name": "",
      "notes": [
        {
          "duration": 0.14705875000000002,
          "durationTicks": 24,
          "midi": 41,
          "name": "F2",
          "ticks": 0,
          "time": 0,
          "velocity": 0.7874015748031497
        },
        {
          "duration": 0.14705875000000002,
          "durationTicks": 24,
          "midi": 41,
          "name": "F2",
          "ticks": 48,
          "time": 0.29411750000000003,
          "velocity": 0.7874015748031497
        },
        {
          "duration": 0.5882350000000001,
          "durationTicks": 96,
          "midi": 52,
          "name": "E3",
          "ticks": 96,
          "time": 0.5882350000000001,
          "velocity": 0.7874015748031497
        },
        {
          "duration": 0.5882350000000001,
          "durationTicks": 96,
          "midi": 52,
          "name": "E3",
          "ticks": 480,
          "time": 2.9411750000000003,
          "velocity": 0.7874015748031497
        },
        {
          "duration": 0.14705875000000024,
          "durationTicks": 24,
          "midi": 41,
          "name": "F2",
          "ticks": 768,
          "time": 4.7058800000000005,
          "velocity": 0.7874015748031497
        },
        {
          "duration": 0.14705874999999935,
          "durationTicks": 24,
          "midi": 41,
          "name": "F2",
          "ticks": 816,
          "time": 4.999997500000001,
          "velocity": 0.7874015748031497
        },
        {
          "duration": 0.5882350000000001,
          "durationTicks": 96,
          "midi": 52,
          "name": "E3",
          "ticks": 864,
          "time": 5.294115000000001,
          "velocity": 0.7874015748031497
        },
        {
          "duration": 0.07352937500000056,
          "durationTicks": 12,
          "midi": 42,
          "name": "F#2",
          "ticks": 912,
          "time": 5.5882325,
          "velocity": 0.7795275590551181
        },
        {
          "duration": 0.07352937499999967,
          "durationTicks": 12,
          "midi": 42,
          "name": "F#2",
          "ticks": 960,
          "time": 5.882350000000001,
          "velocity": 0.7795275590551181
        },
        {
          "duration": 0.07352937499999967,
          "durationTicks": 12,
          "midi": 42,
          "name": "F#2",
          "ticks": 1008,
          "time": 6.176467500000001,
          "velocity": 0.7795275590551181
        },
        {
          "duration": 0.07352937499999967,
          "durationTicks": 12,
          "midi": 42,
          "name": "F#2",
          "ticks": 1020,
          "time": 6.249996875000001,
          "velocity": 0.7874015748031497
        },
        {
          "duration": 0.07352937500000056,
          "durationTicks": 12,
          "midi": 42,
          "name": "F#2",
          "ticks": 1032,
          "time": 6.3235262500000005,
          "velocity": 0.7795275590551181
        },
        {
          "duration": 0.07352937499999967,
          "durationTicks": 12,
          "midi": 42,
          "name": "F#2",
          "ticks": 1044,
          "time": 6.397055625000001,
          "velocity": 0.7874015748031497
        },
        {
          "duration": 0.07352937499999967,
          "durationTicks": 12,
          "midi": 46,
          "name": "A#2",
          "ticks": 1056,
          "time": 6.470585000000001,
          "velocity": 0.7795275590551181
        },
        {
          "duration": 0.07352937500000056,
          "durationTicks": 12,
          "midi": 46,
          "name": "A#2",
          "ticks": 1104,
          "time": 6.7647025,
          "velocity": 0.7795275590551181
        },
        {
          "duration": 0.14705875000000024,
          "durationTicks": 24,
          "midi": 43,
          "name": "G2",
          "ticks": 1152,
          "time": 7.058820000000001,
          "velocity": 0.3779527559055118
        },
        {
          "duration": 0.5882350000000001,
          "durationTicks": 96,
          "midi": 52,
          "name": "E3",
          "ticks": 1248,
          "time": 7.647055000000001,
          "velocity": 0.7874015748031497
        },
        {
          "duration": 0.07352937499999967,
          "durationTicks": 12,
          "midi": 42,
          "name": "F#2",
          "ticks": 1296,
          "time": 7.9411725,
          "velocity": 0.7795275590551181
        },
        {
          "duration": 0.07352937499999967,
          "durationTicks": 12,
          "midi": 42,
          "name": "F#2",
          "ticks": 1344,
          "time": 8.23529,
          "velocity": 0.7795275590551181
        },
        {
          "duration": 0.07352937499999967,
          "durationTicks": 12,
          "midi": 42,
          "name": "F#2",
          "ticks": 1392,
          "time": 8.529407500000001,
          "velocity": 0.7795275590551181
        },
        {
          "duration": 0.07352937499999967,
          "durationTicks": 12,
          "midi": 42,
          "name": "F#2",
          "ticks": 1404,
          "time": 8.602936875000001,
          "velocity": 0.7874015748031497
        },
        {
          "duration": 0.07352937499999967,
          "durationTicks": 12,
          "midi": 42,
          "name": "F#2",
          "ticks": 1416,
          "time": 8.67646625,
          "velocity": 0.7795275590551181
        },
        {
          "duration": 0.07352937499999967,
          "durationTicks": 12,
          "midi": 42,
          "name": "F#2",
          "ticks": 1428,
          "time": 8.749995625,
          "velocity": 0.7874015748031497
        },
        {
          "duration": 0.588235000000001,
          "durationTicks": 96,
          "midi": 52,
          "name": "E3",
          "ticks": 1440,
          "time": 8.823525,
          "velocity": 0.7874015748031497
        },
        {
          "duration": 0.07352937500000145,
          "durationTicks": 12,
          "midi": 46,
          "name": "A#2",
          "ticks": 1440,
          "time": 8.823525,
          "velocity": 0.7795275590551181
        },
        {
          "duration": 0.14705874999999935,
          "durationTicks": 24,
          "midi": 41,
          "name": "F2",
          "ticks": 1536,
          "time": 9.411760000000001,
          "velocity": 0.7874015748031497
        },
        {
          "duration": 0.14705874999999935,
          "durationTicks": 24,
          "midi": 41,
          "name": "F2",
          "ticks": 1584,
          "time": 9.705877500000001,
          "velocity": 0.7874015748031497
        },
        {
          "duration": 0.5882349999999992,
          "durationTicks": 96,
          "midi": 52,
          "name": "E3",
          "ticks": 1632,
          "time": 9.999995000000002,
          "velocity": 0.7874015748031497
        },
        {
          "duration": 0.5882349999999992,
          "durationTicks": 96,
          "midi": 52,
          "name": "E3",
          "ticks": 2016,
          "time": 12.352935000000002,
          "velocity": 0.7874015748031497
        },
        {
          "duration": 0.07352937499999967,
          "durationTicks": 12,
          "midi": 42,
          "name": "F#2",
          "ticks": 2064,
          "time": 12.647052500000001,
          "velocity": 0.7795275590551181
        },
        {
          "duration": 0.07352937499999967,
          "durationTicks": 12,
          "midi": 42,
          "name": "F#2",
          "ticks": 2112,
          "time": 12.941170000000001,
          "velocity": 0.7795275590551181
        },
        {
          "duration": 0.07352937499999967,
          "durationTicks": 12,
          "midi": 42,
          "name": "F#2",
          "ticks": 2160,
          "time": 13.235287500000002,
          "velocity": 0.7795275590551181
        },
        {
          "duration": 0.07352937499999967,
          "durationTicks": 12,
          "midi": 42,
          "name": "F#2",
          "ticks": 2172,
          "time": 13.308816875000002,
          "velocity": 0.7874015748031497
        },
        {
          "duration": 0.07352937499999967,
          "durationTicks": 12,
          "midi": 42,
          "name": "F#2",
          "ticks": 2184,
          "time": 13.382346250000001,
          "velocity": 0.7795275590551181
        },
        {
          "duration": 0.07352937499999967,
          "durationTicks": 12,
          "midi": 42,
          "name": "F#2",
          "ticks": 2196,
          "time": 13.455875625000001,
          "velocity": 0.7874015748031497
        },
        {
          "duration": 0.07352937500000145,
          "durationTicks": 12,
          "midi": 46,
          "name": "A#2",
          "ticks": 2208,
          "time": 13.529405,
          "velocity": 0.7795275590551181
        },
        {
          "duration": 0.14705874999999935,
          "durationTicks": 24,
          "midi": 41,
          "name": "F2",
          "ticks": 2304,
          "time": 14.117640000000002,
          "velocity": 0.7874015748031497
        },
        {
          "duration": 0.14705874999999935,
          "durationTicks": 24,
          "midi": 41,
          "name": "F2",
          "ticks": 2352,
          "time": 14.411757500000002,
          "velocity": 0.7874015748031497
        },
        {
          "duration": 0.5882349999999992,
          "durationTicks": 96,
          "midi": 52,
          "name": "E3",
          "ticks": 2400,
          "time": 14.705875000000002,
          "velocity": 0.7874015748031497
        },
        {
          "duration": 0.07352937499999967,
          "durationTicks": 12,
          "midi": 42,
          "name": "F#2",
          "ticks": 2448,
          "time": 14.999992500000001,
          "velocity": 0.7795275590551181
        },
        {
          "duration": 0.07352937499999967,
          "durationTicks": 12,
          "midi": 42,
          "name": "F#2",
          "ticks": 2496,
          "time": 15.294110000000002,
          "velocity": 0.7795275590551181
        },
        {
          "duration": 0.07352937499999967,
          "durationTicks": 12,
          "midi": 42,
          "name": "F#2",
          "ticks": 2544,
          "time": 15.588227500000002,
          "velocity": 0.7795275590551181
        },
        {
          "duration": 0.07352937499999967,
          "durationTicks": 12,
          "midi": 42,
          "name": "F#2",
          "ticks": 2556,
          "time": 15.661756875000002,
          "velocity": 0.7874015748031497
        },
        {
          "duration": 0.07352937499999967,
          "durationTicks": 12,
          "midi": 42,
          "name": "F#2",
          "ticks": 2568,
          "time": 15.735286250000001,
          "velocity": 0.7795275590551181
        },
        {
          "duration": 0.07352937499999967,
          "durationTicks": 12,
          "midi": 42,
          "name": "F#2",
          "ticks": 2580,
          "time": 15.808815625000001,
          "velocity": 0.7874015748031497
        },
        {
          "duration": 0.07352937500000145,
          "durationTicks": 12,
          "midi": 46,
          "name": "A#2",
          "ticks": 2592,
          "time": 15.882345,
          "velocity": 0.7795275590551181
        },
        {
          "duration": 0.07352937499999967,
          "durationTicks": 12,
          "midi": 46,
          "name": "A#2",
          "ticks": 2640,
          "time": 16.176462500000003,
          "velocity": 0.7795275590551181
        },
        {
          "duration": 0.5882349999999974,
          "durationTicks": 96,
          "midi": 52,
          "name": "E3",
          "ticks": 2784,
          "time": 17.058815000000003,
          "velocity": 0.7874015748031497
        },
        {
          "duration": 0.07352937499999967,
          "durationTicks": 12,
          "midi": 42,
          "name": "F#2",
          "ticks": 2832,
          "time": 17.3529325,
          "velocity": 0.7795275590551181
        },
        {
          "duration": 0.07352937500000323,
          "durationTicks": 12,
          "midi": 42,
          "name": "F#2",
          "ticks": 2880,
          "time": 17.64705,
          "velocity": 0.7795275590551181
        },
        {
          "duration": 0.07352937499999967,
          "durationTicks": 12,
          "midi": 42,
          "name": "F#2",
          "ticks": 2928,
          "time": 17.941167500000002,
          "velocity": 0.7795275590551181
        },
        {
          "duration": 0.07352937499999967,
          "durationTicks": 12,
          "midi": 42,
          "name": "F#2",
          "ticks": 2940,
          "time": 18.014696875000002,
          "velocity": 0.7874015748031497
        },
        {
          "duration": 0.07352937499999967,
          "durationTicks": 12,
          "midi": 42,
          "name": "F#2",
          "ticks": 2952,
          "time": 18.08822625,
          "velocity": 0.7795275590551181
        },
        {
          "duration": 0.07352937499999967,
          "durationTicks": 12,
          "midi": 42,
          "name": "F#2",
          "ticks": 2964,
          "time": 18.161755625,
          "velocity": 0.7874015748031497
        },
        {
          "duration": 0.588235000000001,
          "durationTicks": 96,
          "midi": 52,
          "name": "E3",
          "ticks": 2976,
          "time": 18.235285,
          "velocity": 0.7874015748031497
        },
        {
          "duration": 0.07352937499999967,
          "durationTicks": 12,
          "midi": 46,
          "name": "A#2",
          "ticks": 2976,
          "time": 18.235285,
          "velocity": 0.7795275590551181
        },
        {
          "duration": 0.07352937499999967,
          "durationTicks": 12,
          "midi": 46,
          "name": "A#2",
          "ticks": 3024,
          "time": 18.529402500000003,
          "velocity": 0.7795275590551181
        },
        {
          "duration": 0.07352937499999967,
          "durationTicks": 12,
          "midi": 46,
          "name": "A#2",
          "ticks": 3072,
          "time": 18.823520000000002,
          "velocity": 0.7795275590551181
        },
        {
          "duration": 0.07352937499999967,
          "durationTicks": 12,
          "midi": 46,
          "name": "A#2",
          "ticks": 3096,
          "time": 18.97057875,
          "velocity": 0.7795275590551181
        },
        {
          "duration": 0.07352937499999967,
          "durationTicks": 12,
          "midi": 46,
          "name": "A#2",
          "ticks": 3120,
          "time": 19.1176375,
          "velocity": 0.7795275590551181
        },
        {
          "duration": 0.07352937499999967,
          "durationTicks": 12,
          "midi": 46,
          "name": "A#2",
          "ticks": 3144,
          "time": 19.264696250000004,
          "velocity": 0.7795275590551181
        },
        {
          "duration": 0.588235000000001,
          "durationTicks": 96,
          "midi": 52,
          "name": "E3",
          "ticks": 3168,
          "time": 19.411755000000003,
          "velocity": 0.7874015748031497
        },
        {
          "duration": 0.14705874999999935,
          "durationTicks": 24,
          "midi": 41,
          "name": "F2",
          "ticks": 3168,
          "time": 19.411755000000003,
          "velocity": 0.7874015748031497
        },
        {
          "duration": 0.14705874999999935,
          "durationTicks": 24,
          "midi": 36,
          "name": "C2",
          "ticks": 3168,
          "time": 19.411755000000003,
          "velocity": 0.7874015748031497
        },
        {
          "duration": 0.14705874999999935,
          "durationTicks": 24,
          "midi": 41,
          "name": "F2",
          "ticks": 3216,
          "time": 19.7058725,
          "velocity": 0.7874015748031497
        },
        {
          "duration": 0.14705874999999935,
          "durationTicks": 24,
          "midi": 36,
          "name": "C2",
          "ticks": 3216,
          "time": 19.7058725,
          "velocity": 0.7874015748031497
        },
        {
          "duration": 0.14705874999999935,
          "durationTicks": 24,
          "midi": 41,
          "name": "F2",
          "ticks": 3264,
          "time": 19.999990000000004,
          "velocity": 0.7874015748031497
        },
        {
          "duration": 0.14705874999999935,
          "durationTicks": 24,
          "midi": 36,
          "name": "C2",
          "ticks": 3264,
          "time": 19.999990000000004,
          "velocity": 0.7874015748031497
        },
        {
          "duration": 0.14705874999999935,
          "durationTicks": 24,
          "midi": 41,
          "name": "F2",
          "ticks": 3312,
          "time": 20.294107500000003,
          "velocity": 0.7874015748031497
        },
        {
          "duration": 0.14705874999999935,
          "durationTicks": 24,
          "midi": 36,
          "name": "C2",
          "ticks": 3312,
          "time": 20.294107500000003,
          "velocity": 0.7874015748031497
        },
        {
          "duration": 0.14705874999999935,
          "durationTicks": 24,
          "midi": 41,
          "name": "F2",
          "ticks": 3360,
          "time": 20.588225,
          "velocity": 0.7874015748031497
        },
        {
          "duration": 0.14705874999999935,
          "durationTicks": 24,
          "midi": 36,
          "name": "C2",
          "ticks": 3360,
          "time": 20.588225,
          "velocity": 0.7874015748031497
        },
        {
          "duration": 0.14705874999999935,
          "durationTicks": 24,
          "midi": 41,
          "name": "F2",
          "ticks": 3408,
          "time": 20.882342500000004,
          "velocity": 0.7874015748031497
        },
        {
          "duration": 0.14705874999999935,
          "durationTicks": 24,
          "midi": 36,
          "name": "C2",
          "ticks": 3408,
          "time": 20.882342500000004,
          "velocity": 0.7874015748031497
        },
        {
          "duration": 0.14705874999999935,
          "durationTicks": 24,
          "midi": 41,
          "name": "F2",
          "ticks": 3456,
          "time": 21.176460000000002,
          "velocity": 0.7874015748031497
        },
        {
          "duration": 0.14705874999999935,
          "durationTicks": 24,
          "midi": 36,
          "name": "C2",
          "ticks": 3456,
          "time": 21.176460000000002,
          "velocity": 0.7874015748031497
        },
        {
          "duration": 0.1470587500000029,
          "durationTicks": 24,
          "midi": 41,
          "name": "F2",
          "ticks": 3504,
          "time": 21.4705775,
          "velocity": 0.7874015748031497
        },
        {
          "duration": 0.1470587500000029,
          "durationTicks": 24,
          "midi": 36,
          "name": "C2",
          "ticks": 3504,
          "time": 21.4705775,
          "velocity": 0.7874015748031497
        },
        {
          "duration": 0.5882349999999974,
          "durationTicks": 96,
          "midi": 52,
          "name": "E3",
          "ticks": 3552,
          "time": 21.764695000000003,
          "velocity": 0.7874015748031497
        },
        {
          "duration": 0.14705874999999935,
          "durationTicks": 24,
          "midi": 41,
          "name": "F2",
          "ticks": 3552,
          "time": 21.764695000000003,
          "velocity": 0.7874015748031497
        },
        {
          "duration": 0.07352937499999967,
          "durationTicks": 12,
          "midi": 42,
          "name": "F#2",
          "ticks": 3552,
          "time": 21.764695000000003,
          "velocity": 0.07086614173228346
        },
        {
          "duration": 0.14705874999999935,
          "durationTicks": 24,
          "midi": 36,
          "name": "C2",
          "ticks": 3552,
          "time": 21.764695000000003,
          "velocity": 0.7874015748031497
        },
        {
          "duration": 0.07352937499999967,
          "durationTicks": 12,
          "midi": 42,
          "name": "F#2",
          "ticks": 3564,
          "time": 21.838224375000003,
          "velocity": 0.015748031496062992
        },
        {
          "duration": 0.07352937499999967,
          "durationTicks": 12,
          "midi": 42,
          "name": "F#2",
          "ticks": 3576,
          "time": 21.911753750000003,
          "velocity": 0.03937007874015748
        },
        {
          "duration": 0,
          "durationTicks": 0,
          "midi": 38,
          "name": "D2",
          "ticks": 3576,
          "time": 21.911753750000003,
          "velocity": 0.03937007874015748
        },
        {
          "duration": 0.07352937499999967,
          "durationTicks": 12,
          "midi": 42,
          "name": "F#2",
          "ticks": 3588,
          "time": 21.985283125000002,
          "velocity": 0.13385826771653545
        },
        {
          "duration": 0,
          "durationTicks": 0,
          "midi": 38,
          "name": "D2",
          "ticks": 3588,
          "time": 21.985283125000002,
          "velocity": 0.03937007874015748
        },
        {
          "duration": 0.14705874999999935,
          "durationTicks": 24,
          "midi": 41,
          "name": "F2",
          "ticks": 3600,
          "time": 22.058812500000002,
          "velocity": 0.7874015748031497
        },
        {
          "duration": 0.07352937499999967,
          "durationTicks": 12,
          "midi": 42,
          "name": "F#2",
          "ticks": 3600,
          "time": 22.058812500000002,
          "velocity": 0.14960629921259844
        },
        {
          "duration": 0,
          "durationTicks": 0,
          "midi": 38,
          "name": "D2",
          "ticks": 3600,
          "time": 22.058812500000002,
          "velocity": 0.07086614173228346
        },
        {
          "duration": 0.14705874999999935,
          "durationTicks": 24,
          "midi": 36,
          "name": "C2",
          "ticks": 3600,
          "time": 22.058812500000002,
          "velocity": 0.7874015748031497
        },
        {
          "duration": 0,
          "durationTicks": 0,
          "midi": 38,
          "name": "D2",
          "ticks": 3612,
          "time": 22.132341875,
          "velocity": 0.07086614173228346
        },
        {
          "duration": 0.07352937499999967,
          "durationTicks": 12,
          "midi": 42,
          "name": "F#2",
          "ticks": 3612,
          "time": 22.132341875,
          "velocity": 0.16535433070866143
        },
        {
          "duration": 0.07352937499999967,
          "durationTicks": 12,
          "midi": 42,
          "name": "F#2",
          "ticks": 3624,
          "time": 22.20587125,
          "velocity": 0.16535433070866143
        },
        {
          "duration": 0,
          "durationTicks": 0,
          "midi": 38,
          "name": "D2",
          "ticks": 3624,
          "time": 22.20587125,
          "velocity": 0.13385826771653545
        },
        {
          "duration": 0.07352937499999967,
          "durationTicks": 12,
          "midi": 42,
          "name": "F#2",
          "ticks": 3636,
          "time": 22.279400625,
          "velocity": 0.1889763779527559
        },
        {
          "duration": 0,
          "durationTicks": 0,
          "midi": 38,
          "name": "D2",
          "ticks": 3636,
          "time": 22.279400625,
          "velocity": 0.13385826771653545
        },
        {
          "duration": 0.1470587500000029,
          "durationTicks": 24,
          "midi": 41,
          "name": "F2",
          "ticks": 3648,
          "time": 22.35293,
          "velocity": 0.7874015748031497
        },
        {
          "duration": 0.07352937500000323,
          "durationTicks": 12,
          "midi": 42,
          "name": "F#2",
          "ticks": 3648,
          "time": 22.35293,
          "velocity": 0.1889763779527559
        },
        {
          "duration": 0.1470587500000029,
          "durationTicks": 24,
          "midi": 36,
          "name": "C2",
          "ticks": 3648,
          "time": 22.35293,
          "velocity": 0.7874015748031497
        },
        {
          "duration": 0,
          "durationTicks": 0,
          "midi": 38,
          "name": "D2",
          "ticks": 3648,
          "time": 22.35293,
          "velocity": 0.1889763779527559
        },
        {
          "duration": 0.07352937499999967,
          "durationTicks": 12,
          "midi": 42,
          "name": "F#2",
          "ticks": 3660,
          "time": 22.426459375000004,
          "velocity": 0.25984251968503935
        },
        {
          "duration": 0,
          "durationTicks": 0,
          "midi": 38,
          "name": "D2",
          "ticks": 3660,
          "time": 22.426459375000004,
          "velocity": 0.1889763779527559
        },
        {
          "duration": 0,
          "durationTicks": 0,
          "midi": 38,
          "name": "D2",
          "ticks": 3672,
          "time": 22.499988750000004,
          "velocity": 0.2992125984251969
        },
        {
          "duration": 0.07352937499999967,
          "durationTicks": 12,
          "midi": 42,
          "name": "F#2",
          "ticks": 3672,
          "time": 22.499988750000004,
          "velocity": 0.31496062992125984
        },
        {
          "duration": 0,
          "durationTicks": 0,
          "midi": 38,
          "name": "D2",
          "ticks": 3684,
          "time": 22.573518125000003,
          "velocity": 0.2992125984251969
        },
        {
          "duration": 0.07352937499999967,
          "durationTicks": 12,
          "midi": 42,
          "name": "F#2",
          "ticks": 3684,
          "time": 22.573518125000003,
          "velocity": 0.33858267716535434
        },
        {
          "duration": 0.14705874999999935,
          "durationTicks": 24,
          "midi": 41,
          "name": "F2",
          "ticks": 3696,
          "time": 22.647047500000003,
          "velocity": 0.7874015748031497
        },
        {
          "duration": 0.07352937499999967,
          "durationTicks": 12,
          "midi": 42,
          "name": "F#2",
          "ticks": 3696,
          "time": 22.647047500000003,
          "velocity": 0.33858267716535434
        },
        {
          "duration": 0.14705874999999935,
          "durationTicks": 24,
          "midi": 36,
          "name": "C2",
          "ticks": 3696,
          "time": 22.647047500000003,
          "velocity": 0.7874015748031497
        },
        {
          "duration": 0,
          "durationTicks": 0,
          "midi": 38,
          "name": "D2",
          "ticks": 3696,
          "time": 22.647047500000003,
          "velocity": 0.2992125984251969
        },
        {
          "duration": 0.07352937499999967,
          "durationTicks": 12,
          "midi": 42,
          "name": "F#2",
          "ticks": 3708,
          "time": 22.720576875000003,
          "velocity": 0.33858267716535434
        },
        {
          "duration": 0,
          "durationTicks": 0,
          "midi": 38,
          "name": "D2",
          "ticks": 3708,
          "time": 22.720576875000003,
          "velocity": 0.2992125984251969
        },
        {
          "duration": 0,
          "durationTicks": 0,
          "midi": 38,
          "name": "D2",
          "ticks": 3720,
          "time": 22.794106250000002,
          "velocity": 0.2992125984251969
        },
        {
          "duration": 0.07352937499999967,
          "durationTicks": 12,
          "midi": 42,
          "name": "F#2",
          "ticks": 3720,
          "time": 22.794106250000002,
          "velocity": 0.33858267716535434
        },
        {
          "duration": 0,
          "durationTicks": 0,
          "midi": 38,
          "name": "D2",
          "ticks": 3732,
          "time": 22.867635625000002,
          "velocity": 0.2992125984251969
        },
        {
          "duration": 0.07352937499999967,
          "durationTicks": 12,
          "midi": 42,
          "name": "F#2",
          "ticks": 3732,
          "time": 22.867635625000002,
          "velocity": 0.33858267716535434
        },
        {
          "duration": 0.14705874999999935,
          "durationTicks": 24,
          "midi": 41,
          "name": "F2",
          "ticks": 3744,
          "time": 22.941165,
          "velocity": 0.7874015748031497
        },
        {
          "duration": 0.07352937499999967,
          "durationTicks": 12,
          "midi": 42,
          "name": "F#2",
          "ticks": 3744,
          "time": 22.941165,
          "velocity": 0.33858267716535434
        },
        {
          "duration": 0.14705874999999935,
          "durationTicks": 24,
          "midi": 36,
          "name": "C2",
          "ticks": 3744,
          "time": 22.941165,
          "velocity": 0.7874015748031497
        },
        {
          "duration": 0,
          "durationTicks": 0,
          "midi": 38,
          "name": "D2",
          "ticks": 3744,
          "time": 22.941165,
          "velocity": 0.3543307086614173
        },
        {
          "duration": 0.07352937499999967,
          "durationTicks": 12,
          "midi": 42,
          "name": "F#2",
          "ticks": 3756,
          "time": 23.014694375,
          "velocity": 0.3937007874015748
        },
        {
          "duration": 0,
          "durationTicks": 0,
          "midi": 38,
          "name": "D2",
          "ticks": 3756,
          "time": 23.014694375,
          "velocity": 0.3543307086614173
        },
        {
          "duration": 0,
          "durationTicks": 0,
          "midi": 38,
          "name": "D2",
          "ticks": 3768,
          "time": 23.08822375,
          "velocity": 0.3543307086614173
        },
        {
          "duration": 0.07352937500000323,
          "durationTicks": 12,
          "midi": 42,
          "name": "F#2",
          "ticks": 3768,
          "time": 23.08822375,
          "velocity": 0.4094488188976378
        },
        {
          "duration": 0,
          "durationTicks": 0,
          "midi": 38,
          "name": "D2",
          "ticks": 3780,
          "time": 23.161753125000004,
          "velocity": 0.3543307086614173
        },
        {
          "duration": 0.07352937499999967,
          "durationTicks": 12,
          "midi": 42,
          "name": "F#2",
          "ticks": 3780,
          "time": 23.161753125000004,
          "velocity": 0.4094488188976378
        },
        {
          "duration": 0.14705874999999935,
          "durationTicks": 24,
          "midi": 41,
          "name": "F2",
          "ticks": 3792,
          "time": 23.235282500000004,
          "velocity": 0.7874015748031497
        },
        {
          "duration": 0.07352937499999967,
          "durationTicks": 12,
          "midi": 42,
          "name": "F#2",
          "ticks": 3792,
          "time": 23.235282500000004,
          "velocity": 0.4330708661417323
        },
        {
          "duration": 0,
          "durationTicks": 0,
          "midi": 38,
          "name": "D2",
          "ticks": 3792,
          "time": 23.235282500000004,
          "velocity": 0.44881889763779526
        },
        {
          "duration": 0.14705874999999935,
          "durationTicks": 24,
          "midi": 36,
          "name": "C2",
          "ticks": 3792,
          "time": 23.235282500000004,
          "velocity": 0.7874015748031497
        },
        {
          "duration": 0,
          "durationTicks": 0,
          "midi": 38,
          "name": "D2",
          "ticks": 3804,
          "time": 23.308811875000004,
          "velocity": 0.44881889763779526
        },
        {
          "duration": 0.07352937499999967,
          "durationTicks": 12,
          "midi": 42,
          "name": "F#2",
          "ticks": 3804,
          "time": 23.308811875000004,
          "velocity": 0.4330708661417323
        },
        {
          "duration": 0.07352937499999967,
          "durationTicks": 12,
          "midi": 42,
          "name": "F#2",
          "ticks": 3816,
          "time": 23.382341250000003,
          "velocity": 0.4330708661417323
        },
        {
          "duration": 0,
          "durationTicks": 0,
          "midi": 38,
          "name": "D2",
          "ticks": 3816,
          "time": 23.382341250000003,
          "velocity": 0.44881889763779526
        },
        {
          "duration": 0.07352937499999967,
          "durationTicks": 12,
          "midi": 42,
          "name": "F#2",
          "ticks": 3828,
          "time": 23.455870625000003,
          "velocity": 0.4330708661417323
        },
        {
          "duration": 0,
          "durationTicks": 0,
          "midi": 38,
          "name": "D2",
          "ticks": 3828,
          "time": 23.455870625000003,
          "velocity": 0.44881889763779526
        },
        {
          "duration": 0.14705874999999935,
          "durationTicks": 24,
          "midi": 41,
          "name": "F2",
          "ticks": 3840,
          "time": 23.529400000000003,
          "velocity": 0.7874015748031497
        },
        {
          "duration": 0.07352937499999967,
          "durationTicks": 12,
          "midi": 42,
          "name": "F#2",
          "ticks": 3840,
          "time": 23.529400000000003,
          "velocity": 0.44881889763779526
        },
        {
          "duration": 0,
          "durationTicks": 0,
          "midi": 38,
          "name": "D2",
          "ticks": 3840,
          "time": 23.529400000000003,
          "velocity": 0.4881889763779528
        },
        {
          "duration": 0.14705874999999935,
          "durationTicks": 24,
          "midi": 36,
          "name": "C2",
          "ticks": 3840,
          "time": 23.529400000000003,
          "velocity": 0.7874015748031497
        },
        {
          "duration": 0,
          "durationTicks": 0,
          "midi": 38,
          "name": "D2",
          "ticks": 3852,
          "time": 23.602929375000002,
          "velocity": 0.4881889763779528
        },
        {
          "duration": 0.07352937499999967,
          "durationTicks": 12,
          "midi": 42,
          "name": "F#2",
          "ticks": 3852,
          "time": 23.602929375000002,
          "velocity": 0.44881889763779526
        },
        {
          "duration": 0.07352937499999967,
          "durationTicks": 12,
          "midi": 42,
          "name": "F#2",
          "ticks": 3864,
          "time": 23.676458750000002,
          "velocity": 0.4645669291338583
        },
        {
          "duration": 0,
          "durationTicks": 0,
          "midi": 38,
          "name": "D2",
          "ticks": 3864,
          "time": 23.676458750000002,
          "velocity": 0.5039370078740157
        },
        {
          "duration": 0.07352937499999967,
          "durationTicks": 12,
          "midi": 42,
          "name": "F#2",
          "ticks": 3876,
          "time": 23.749988125,
          "velocity": 0.5039370078740157
        },
        {
          "duration": 0,
          "durationTicks": 0,
          "midi": 38,
          "name": "D2",
          "ticks": 3876,
          "time": 23.749988125,
          "velocity": 0.5039370078740157
        },
        {
          "duration": 0.1470587500000029,
          "durationTicks": 24,
          "midi": 41,
          "name": "F2",
          "ticks": 3888,
          "time": 23.8235175,
          "velocity": 0.7874015748031497
        },
        {
          "duration": 0.07352937499999967,
          "durationTicks": 12,
          "midi": 42,
          "name": "F#2",
          "ticks": 3888,
          "time": 23.8235175,
          "velocity": 0.5433070866141733
        },
        {
          "duration": 0.1470587500000029,
          "durationTicks": 24,
          "midi": 36,
          "name": "C2",
          "ticks": 3888,
          "time": 23.8235175,
          "velocity": 0.7874015748031497
        },
        {
          "duration": 0,
          "durationTicks": 0,
          "midi": 38,
          "name": "D2",
          "ticks": 3888,
          "time": 23.8235175,
          "velocity": 0.6377952755905512
        },
        {
          "duration": 0,
          "durationTicks": 0,
          "midi": 38,
          "name": "D2",
          "ticks": 3900,
          "time": 23.897046875,
          "velocity": 0.6377952755905512
        },
        {
          "duration": 0.07352937500000323,
          "durationTicks": 12,
          "midi": 42,
          "name": "F#2",
          "ticks": 3900,
          "time": 23.897046875,
          "velocity": 0.5433070866141733
        },
        {
          "duration": 0,
          "durationTicks": 0,
          "midi": 38,
          "name": "D2",
          "ticks": 3912,
          "time": 23.970576250000004,
          "velocity": 0.7244094488188977
        },
        {
          "duration": 0.07352937499999967,
          "durationTicks": 12,
          "midi": 42,
          "name": "F#2",
          "ticks": 3912,
          "time": 23.970576250000004,
          "velocity": 0.5590551181102362
        },
        {
          "duration": 0,
          "durationTicks": 0,
          "midi": 38,
          "name": "D2",
          "ticks": 3924,
          "time": 24.044105625000004,
          "velocity": 0.7244094488188977
        },
        {
          "duration": 0.07352937499999967,
          "durationTicks": 12,
          "midi": 42,
          "name": "F#2",
          "ticks": 3924,
          "time": 24.044105625000004,
          "velocity": 0.6377952755905512
        },
        {
          "duration": 0,
          "durationTicks": 0,
          "midi": 38,
          "name": "D2",
          "ticks": 3936,
          "time": 24.117635000000003,
          "velocity": 0.7874015748031497
        },
        {
          "duration": 0.588235000000001,
          "durationTicks": 96,
          "midi": 49,
          "name": "C#3",
          "ticks": 3936,
          "time": 24.117635000000003,
          "velocity": 0.7874015748031497
        },
        {
          "duration": 0,
          "durationTicks": 0,
          "midi": 38,
          "name": "D2",
          "ticks": 3948,
          "time": 24.191164375000003,
          "velocity": 0.7874015748031497
        },
        {
          "duration": 0.14705874999999935,
          "durationTicks": 24,
          "midi": 42,
          "name": "F#2",
          "ticks": 3960,
          "time": 24.264693750000003,
          "velocity": 0.7874015748031497
        },
        {
          "duration": 0.14705874999999935,
          "durationTicks": 24,
          "midi": 36,
          "name": "C2",
          "ticks": 3960,
          "time": 24.264693750000003,
          "velocity": 0.7874015748031497
        },
        {
          "duration": 0.14705874999999935,
          "durationTicks": 24,
          "midi": 36,
          "name": "C2",
          "ticks": 3984,
          "time": 24.411752500000002,
          "velocity": 0.7874015748031497
        },
        {
          "duration": 0.14705874999999935,
          "durationTicks": 24,
          "midi": 42,
          "name": "F#2",
          "ticks": 3984,
          "time": 24.411752500000002,
          "velocity": 0.7874015748031497
        },
        {
          "duration": 0.1470587500000029,
          "durationTicks": 24,
          "midi": 46,
          "name": "A#2",
          "ticks": 4008,
          "time": 24.55881125,
          "velocity": 0.7874015748031497
        },
        {
          "duration": 0.07352937499999967,
          "durationTicks": 12,
          "midi": 38,
          "name": "D2",
          "ticks": 4008,
          "time": 24.55881125,
          "velocity": 0.7874015748031497
        },
        {
          "duration": 0.07352937500000323,
          "durationTicks": 12,
          "midi": 38,
          "name": "D2",
          "ticks": 4020,
          "time": 24.632340625,
          "velocity": 0.7874015748031497
        },
        {
          "duration": 0.14705874999999935,
          "durationTicks": 24,
          "midi": 36,
          "name": "C2",
          "ticks": 4032,
          "time": 24.705870000000004,
          "velocity": 0.7874015748031497
        },
        {
          "duration": 0.14705874999999935,
          "durationTicks": 24,
          "midi": 42,
          "name": "F#2",
          "ticks": 4032,
          "time": 24.705870000000004,
          "velocity": 0.7874015748031497
        },
        {
          "duration": 0.14705874999999935,
          "durationTicks": 24,
          "midi": 36,
          "name": "C2",
          "ticks": 4056,
          "time": 24.852928750000004,
          "velocity": 0.7874015748031497
        },
        {
          "duration": 0.14705874999999935,
          "durationTicks": 24,
          "midi": 42,
          "name": "F#2",
          "ticks": 4056,
          "time": 24.852928750000004,
          "velocity": 0.7874015748031497
        },
        {
          "duration": 0.14705874999999935,
          "durationTicks": 24,
          "midi": 46,
          "name": "A#2",
          "ticks": 4080,
          "time": 24.999987500000003,
          "velocity": 0.7874015748031497
        },
        {
          "duration": 0.07352937499999967,
          "durationTicks": 12,
          "midi": 38,
          "name": "D2",
          "ticks": 4080,
          "time": 24.999987500000003,
          "velocity": 0.7874015748031497
        },
        {
          "duration": 0.07352937499999967,
          "durationTicks": 12,
          "midi": 38,
          "name": "D2",
          "ticks": 4092,
          "time": 25.073516875000003,
          "velocity": 0.7874015748031497
        },
        {
          "duration": 0.14705874999999935,
          "durationTicks": 24,
          "midi": 36,
          "name": "C2",
          "ticks": 4104,
          "time": 25.147046250000002,
          "velocity": 0.7874015748031497
        },
        {
          "duration": 0.14705874999999935,
          "durationTicks": 24,
          "midi": 42,
          "name": "F#2",
          "ticks": 4104,
          "time": 25.147046250000002,
          "velocity": 0.7874015748031497
        },
        {
          "duration": 0.14705874999999935,
          "durationTicks": 24,
          "midi": 42,
          "name": "F#2",
          "ticks": 4128,
          "time": 25.294105000000002,
          "velocity": 0.7874015748031497
        },
        {
          "duration": 0.14705874999999935,
          "durationTicks": 24,
          "midi": 36,
          "name": "C2",
          "ticks": 4128,
          "time": 25.294105000000002,
          "velocity": 0.7874015748031497
        },
        {
          "duration": 0.1470587500000029,
          "durationTicks": 24,
          "midi": 46,
          "name": "A#2",
          "ticks": 4152,
          "time": 25.44116375,
          "velocity": 0.7874015748031497
        },
        {
          "duration": 0.07352937500000323,
          "durationTicks": 12,
          "midi": 38,
          "name": "D2",
          "ticks": 4152,
          "time": 25.44116375,
          "velocity": 0.7874015748031497
        },
        {
          "duration": 0.07352937499999967,
          "durationTicks": 12,
          "midi": 38,
          "name": "D2",
          "ticks": 4164,
          "time": 25.514693125000004,
          "velocity": 0.7874015748031497
        },
        {
          "duration": 0.14705874999999935,
          "durationTicks": 24,
          "midi": 36,
          "name": "C2",
          "ticks": 4176,
          "time": 25.588222500000004,
          "velocity": 0.7874015748031497
        },
        {
          "duration": 0.14705874999999935,
          "durationTicks": 24,
          "midi": 42,
          "name": "F#2",
          "ticks": 4176,
          "time": 25.588222500000004,
          "velocity": 0.7874015748031497
        },
        {
          "duration": 0.14705874999999935,
          "durationTicks": 24,
          "midi": 42,
          "name": "F#2",
          "ticks": 4200,
          "time": 25.735281250000003,
          "velocity": 0.7874015748031497
        },
        {
          "duration": 0.14705874999999935,
          "durationTicks": 24,
          "midi": 36,
          "name": "C2",
          "ticks": 4200,
          "time": 25.735281250000003,
          "velocity": 0.7874015748031497
        },
        {
          "duration": 0.07352937499999967,
          "durationTicks": 12,
          "midi": 38,
          "name": "D2",
          "ticks": 4224,
          "time": 25.882340000000003,
          "velocity": 0.7874015748031497
        },
        {
          "duration": 0.14705874999999935,
          "durationTicks": 24,
          "midi": 46,
          "name": "A#2",
          "ticks": 4224,
          "time": 25.882340000000003,
          "velocity": 0.7874015748031497
        },
        {
          "duration": 0.07352937499999967,
          "durationTicks": 12,
          "midi": 38,
          "name": "D2",
          "ticks": 4236,
          "time": 25.955869375000002,
          "velocity": 0.7874015748031497
        },
        {
          "duration": 0.14705874999999935,
          "durationTicks": 24,
          "midi": 36,
          "name": "C2",
          "ticks": 4248,
          "time": 26.029398750000002,
          "velocity": 0.7874015748031497
        },
        {
          "duration": 0.14705874999999935,
          "durationTicks": 24,
          "midi": 42,
          "name": "F#2",
          "ticks": 4248,
          "time": 26.029398750000002,
          "velocity": 0.7874015748031497
        },
        {
          "duration": 0.1470587500000029,
          "durationTicks": 24,
          "midi": 46,
          "name": "A#2",
          "ticks": 4272,
          "time": 26.1764575,
          "velocity": 0.7874015748031497
        },
        {
          "duration": 0.07352937499999967,
          "durationTicks": 12,
          "midi": 38,
          "name": "D2",
          "ticks": 4272,
          "time": 26.1764575,
          "velocity": 0.7874015748031497
        },
        {
          "duration": 0.07352937500000323,
          "durationTicks": 12,
          "midi": 38,
          "name": "D2",
          "ticks": 4284,
          "time": 26.249986875,
          "velocity": 0.7874015748031497
        },
        {
          "duration": 0.14705874999999935,
          "durationTicks": 24,
          "midi": 42,
          "name": "F#2",
          "ticks": 4296,
          "time": 26.323516250000004,
          "velocity": 0.7874015748031497
        },
        {
          "duration": 0.14705874999999935,
          "durationTicks": 24,
          "midi": 36,
          "name": "C2",
          "ticks": 4296,
          "time": 26.323516250000004,
          "velocity": 0.7874015748031497
        },
        {
          "duration": 0.5882349999999974,
          "durationTicks": 96,
          "midi": 49,
          "name": "C#3",
          "ticks": 4320,
          "time": 26.470575000000004,
          "velocity": 0.7874015748031497
        },
        {
          "duration": 0.07352937499999967,
          "durationTicks": 12,
          "midi": 38,
          "name": "D2",
          "ticks": 4320,
          "time": 26.470575000000004,
          "velocity": 0.7874015748031497
        },
        {
          "duration": 0.07352937499999967,
          "durationTicks": 12,
          "midi": 38,
          "name": "D2",
          "ticks": 4332,
          "time": 26.544104375000003,
          "velocity": 0.7874015748031497
        },
        {
          "duration": 0.14705874999999935,
          "durationTicks": 24,
          "midi": 42,
          "name": "F#2",
          "ticks": 4344,
          "time": 26.617633750000003,
          "velocity": 0.7874015748031497
        },
        {
          "duration": 0.14705874999999935,
          "durationTicks": 24,
          "midi": 36,
          "name": "C2",
          "ticks": 4344,
          "time": 26.617633750000003,
          "velocity": 0.7874015748031497
        },
        {
          "duration": 0.14705874999999935,
          "durationTicks": 24,
          "midi": 42,
          "name": "F#2",
          "ticks": 4368,
          "time": 26.764692500000002,
          "velocity": 0.7874015748031497
        },
        {
          "duration": 0.14705874999999935,
          "durationTicks": 24,
          "midi": 36,
          "name": "C2",
          "ticks": 4368,
          "time": 26.764692500000002,
          "velocity": 0.7874015748031497
        },
        {
          "duration": 0.14705874999999935,
          "durationTicks": 24,
          "midi": 46,
          "name": "A#2",
          "ticks": 4392,
          "time": 26.911751250000002,
          "velocity": 0.7874015748031497
        },
        {
          "duration": 0.07352937499999967,
          "durationTicks": 12,
          "midi": 38,
          "name": "D2",
          "ticks": 4392,
          "time": 26.911751250000002,
          "velocity": 0.7874015748031497
        },
        {
          "duration": 0.07352937499999967,
          "durationTicks": 12,
          "midi": 38,
          "name": "D2",
          "ticks": 4404,
          "time": 26.985280625,
          "velocity": 0.7874015748031497
        },
        {
          "duration": 0.1470587500000029,
          "durationTicks": 24,
          "midi": 36,
          "name": "C2",
          "ticks": 4416,
          "time": 27.05881,
          "velocity": 0.7874015748031497
        },
        {
          "duration": 0.1470587500000029,
          "durationTicks": 24,
          "midi": 42,
          "name": "F#2",
          "ticks": 4416,
          "time": 27.05881,
          "velocity": 0.7874015748031497
        },
        {
          "duration": 0.14705874999999935,
          "durationTicks": 24,
          "midi": 36,
          "name": "C2",
          "ticks": 4440,
          "time": 27.205868750000004,
          "velocity": 0.7874015748031497
        },
        {
          "duration": 0.14705874999999935,
          "durationTicks": 24,
          "midi": 42,
          "name": "F#2",
          "ticks": 4440,
          "time": 27.205868750000004,
          "velocity": 0.7874015748031497
        },
        {
          "duration": 0.14705874999999935,
          "durationTicks": 24,
          "midi": 46,
          "name": "A#2",
          "ticks": 4464,
          "time": 27.352927500000003,
          "velocity": 0.7874015748031497
        },
        {
          "duration": 0.07352937499999967,
          "durationTicks": 12,
          "midi": 38,
          "name": "D2",
          "ticks": 4464,
          "time": 27.352927500000003,
          "velocity": 0.7874015748031497
        },
        {
          "duration": 0.07352937499999967,
          "durationTicks": 12,
          "midi": 38,
          "name": "D2",
          "ticks": 4476,
          "time": 27.426456875000003,
          "velocity": 0.7874015748031497
        },
        {
          "duration": 0.14705874999999935,
          "durationTicks": 24,
          "midi": 42,
          "name": "F#2",
          "ticks": 4488,
          "time": 27.499986250000003,
          "velocity": 0.7874015748031497
        },
        {
          "duration": 0.14705874999999935,
          "durationTicks": 24,
          "midi": 36,
          "name": "C2",
          "ticks": 4488,
          "time": 27.499986250000003,
          "velocity": 0.7874015748031497
        },
        {
          "duration": 0.14705874999999935,
          "durationTicks": 24,
          "midi": 42,
          "name": "F#2",
          "ticks": 4512,
          "time": 27.647045000000002,
          "velocity": 0.7874015748031497
        },
        {
          "duration": 0.14705874999999935,
          "durationTicks": 24,
          "midi": 36,
          "name": "C2",
          "ticks": 4512,
          "time": 27.647045000000002,
          "velocity": 0.7874015748031497
        },
        {
          "duration": 0.1470587500000029,
          "durationTicks": 24,
          "midi": 46,
          "name": "A#2",
          "ticks": 4536,
          "time": 27.79410375,
          "velocity": 0.7874015748031497
        },
        {
          "duration": 0.07352937500000323,
          "durationTicks": 12,
          "midi": 38,
          "name": "D2",
          "ticks": 4536,
          "time": 27.79410375,
          "velocity": 0.7874015748031497
        },
        {
          "duration": 0.07352937499999967,
          "durationTicks": 12,
          "midi": 38,
          "name": "D2",
          "ticks": 4548,
          "time": 27.867633125000005,
          "velocity": 0.7874015748031497
        },
        {
          "duration": 0.14705874999999935,
          "durationTicks": 24,
          "midi": 36,
          "name": "C2",
          "ticks": 4560,
          "time": 27.941162500000004,
          "velocity": 0.7874015748031497
        },
        {
          "duration": 0.14705874999999935,
          "durationTicks": 24,
          "midi": 42,
          "name": "F#2",
          "ticks": 4560,
          "time": 27.941162500000004,
          "velocity": 0.7874015748031497
        },
        {
          "duration": 0.14705874999999935,
          "durationTicks": 24,
          "midi": 36,
          "name": "C2",
          "ticks": 4584,
          "time": 28.088221250000004,
          "velocity": 0.7874015748031497
        },
        {
          "duration": 0.14705874999999935,
          "durationTicks": 24,
          "midi": 42,
          "name": "F#2",
          "ticks": 4584,
          "time": 28.088221250000004,
          "velocity": 0.7874015748031497
        },
        {
          "duration": 0.14705874999999935,
          "durationTicks": 24,
          "midi": 46,
          "name": "A#2",
          "ticks": 4608,
          "time": 28.235280000000003,
          "velocity": 0.7874015748031497
        },
        {
          "duration": 0.07352937499999967,
          "durationTicks": 12,
          "midi": 38,
          "name": "D2",
          "ticks": 4608,
          "time": 28.235280000000003,
          "velocity": 0.7874015748031497
        },
        {
          "duration": 0.07352937499999967,
          "durationTicks": 12,
          "midi": 38,
          "name": "D2",
          "ticks": 4620,
          "time": 28.308809375000003,
          "velocity": 0.7874015748031497
        },
        {
          "duration": 0.14705874999999935,
          "durationTicks": 24,
          "midi": 36,
          "name": "C2",
          "ticks": 4632,
          "time": 28.382338750000002,
          "velocity": 0.7874015748031497
        },
        {
          "duration": 0.14705874999999935,
          "durationTicks": 24,
          "midi": 42,
          "name": "F#2",
          "ticks": 4632,
          "time": 28.382338750000002,
          "velocity": 0.7874015748031497
        },
        {
          "duration": 0.07352937499999967,
          "durationTicks": 12,
          "midi": 38,
          "name": "D2",
          "ticks": 4656,
          "time": 28.5293975,
          "velocity": 0.7874015748031497
        },
        {
          "duration": 0.1470587500000029,
          "durationTicks": 24,
          "midi": 46,
          "name": "A#2",
          "ticks": 4656,
          "time": 28.5293975,
          "velocity": 0.7874015748031497
        },
        {
          "duration": 0.07352937500000323,
          "durationTicks": 12,
          "midi": 38,
          "name": "D2",
          "ticks": 4668,
          "time": 28.602926875,
          "velocity": 0.7874015748031497
        },
        {
          "duration": 0.14705874999999935,
          "durationTicks": 24,
          "midi": 42,
          "name": "F#2",
          "ticks": 4680,
          "time": 28.676456250000005,
          "velocity": 0.7874015748031497
        },
        {
          "duration": 0.14705874999999935,
          "durationTicks": 24,
          "midi": 36,
          "name": "C2",
          "ticks": 4680,
          "time": 28.676456250000005,
          "velocity": 0.7874015748031497
        },
        {
          "duration": 0.588235000000001,
          "durationTicks": 96,
          "midi": 49,
          "name": "C#3",
          "ticks": 4704,
          "time": 28.823515000000004,
          "velocity": 0.7874015748031497
        },
        {
          "duration": 0.07352937499999967,
          "durationTicks": 12,
          "midi": 38,
          "name": "D2",
          "ticks": 4704,
          "time": 28.823515000000004,
          "velocity": 0.7874015748031497
        },
        {
          "duration": 0.07352937499999967,
          "durationTicks": 12,
          "midi": 38,
          "name": "D2",
          "ticks": 4716,
          "time": 28.897044375000004,
          "velocity": 0.7874015748031497
        },
        {
          "duration": 0.14705874999999935,
          "durationTicks": 24,
          "midi": 42,
          "name": "F#2",
          "ticks": 4728,
          "time": 28.970573750000003,
          "velocity": 0.7874015748031497
        },
        {
          "duration": 0.14705874999999935,
          "durationTicks": 24,
          "midi": 36,
          "name": "C2",
          "ticks": 4728,
          "time": 28.970573750000003,
          "velocity": 0.7874015748031497
        },
        {
          "duration": 0.14705874999999935,
          "durationTicks": 24,
          "midi": 36,
          "name": "C2",
          "ticks": 4752,
          "time": 29.117632500000003,
          "velocity": 0.7874015748031497
        },
        {
          "duration": 0.14705874999999935,
          "durationTicks": 24,
          "midi": 42,
          "name": "F#2",
          "ticks": 4752,
          "time": 29.117632500000003,
          "velocity": 0.7874015748031497
        },
        {
          "duration": 0.07352937499999967,
          "durationTicks": 12,
          "midi": 38,
          "name": "D2",
          "ticks": 4776,
          "time": 29.264691250000002,
          "velocity": 0.7874015748031497
        },
        {
          "duration": 0.1470587500000029,
          "durationTicks": 24,
          "midi": 46,
          "name": "A#2",
          "ticks": 4776,
          "time": 29.264691250000002,
          "velocity": 0.7874015748031497
        },
        {
          "duration": 0.07352937500000323,
          "durationTicks": 12,
          "midi": 38,
          "name": "D2",
          "ticks": 4788,
          "time": 29.338220625,
          "velocity": 0.7874015748031497
        },
        {
          "duration": 0.14705874999999935,
          "durationTicks": 24,
          "midi": 36,
          "name": "C2",
          "ticks": 4800,
          "time": 29.411750000000005,
          "velocity": 0.7874015748031497
        },
        {
          "duration": 0.14705874999999935,
          "durationTicks": 24,
          "midi": 42,
          "name": "F#2",
          "ticks": 4800,
          "time": 29.411750000000005,
          "velocity": 0.7874015748031497
        },
        {
          "duration": 0.14705874999999935,
          "durationTicks": 24,
          "midi": 42,
          "name": "F#2",
          "ticks": 4824,
          "time": 29.558808750000004,
          "velocity": 0.7874015748031497
        },
        {
          "duration": 0.14705874999999935,
          "durationTicks": 24,
          "midi": 36,
          "name": "C2",
          "ticks": 4824,
          "time": 29.558808750000004,
          "velocity": 0.7874015748031497
        },
        {
          "duration": 0.07352937499999967,
          "durationTicks": 12,
          "midi": 38,
          "name": "D2",
          "ticks": 4848,
          "time": 29.705867500000004,
          "velocity": 0.7874015748031497
        },
        {
          "duration": 0.14705874999999935,
          "durationTicks": 24,
          "midi": 46,
          "name": "A#2",
          "ticks": 4848,
          "time": 29.705867500000004,
          "velocity": 0.7874015748031497
        },
        {
          "duration": 0.07352937499999967,
          "durationTicks": 12,
          "midi": 38,
          "name": "D2",
          "ticks": 4860,
          "time": 29.779396875000003,
          "velocity": 0.7874015748031497
        },
        {
          "duration": 0.14705874999999935,
          "durationTicks": 24,
          "midi": 36,
          "name": "C2",
          "ticks": 4872,
          "time": 29.852926250000003,
          "velocity": 0.7874015748031497
        },
        {
          "duration": 0.14705874999999935,
          "durationTicks": 24,
          "midi": 42,
          "name": "F#2",
          "ticks": 4872,
          "time": 29.852926250000003,
          "velocity": 0.7874015748031497
        },
        {
          "duration": 0.14705874999999935,
          "durationTicks": 24,
          "midi": 36,
          "name": "C2",
          "ticks": 4896,
          "time": 29.999985000000002,
          "velocity": 0.7874015748031497
        },
        {
          "duration": 0.14705874999999935,
          "durationTicks": 24,
          "midi": 42,
          "name": "F#2",
          "ticks": 4896,
          "time": 29.999985000000002,
          "velocity": 0.7874015748031497
        },
        {
          "duration": 0.07352937500000323,
          "durationTicks": 12,
          "midi": 38,
          "name": "D2",
          "ticks": 4920,
          "time": 30.14704375,
          "velocity": 0.7874015748031497
        },
        {
          "duration": 0.1470587500000029,
          "durationTicks": 24,
          "midi": 46,
          "name": "A#2",
          "ticks": 4920,
          "time": 30.14704375,
          "velocity": 0.7874015748031497
        },
        {
          "duration": 0.07352937499999967,
          "durationTicks": 12,
          "midi": 38,
          "name": "D2",
          "ticks": 4932,
          "time": 30.220573125000005,
          "velocity": 0.7874015748031497
        },
        {
          "duration": 0.14705874999999935,
          "durationTicks": 24,
          "midi": 42,
          "name": "F#2",
          "ticks": 4944,
          "time": 30.294102500000005,
          "velocity": 0.7874015748031497
        },
        {
          "duration": 0.14705874999999935,
          "durationTicks": 24,
          "midi": 36,
          "name": "C2",
          "ticks": 4944,
          "time": 30.294102500000005,
          "velocity": 0.7874015748031497
        },
        {
          "duration": 0.14705874999999935,
          "durationTicks": 24,
          "midi": 42,
          "name": "F#2",
          "ticks": 4968,
          "time": 30.441161250000004,
          "velocity": 0.7874015748031497
        },
        {
          "duration": 0.14705874999999935,
          "durationTicks": 24,
          "midi": 36,
          "name": "C2",
          "ticks": 4968,
          "time": 30.441161250000004,
          "velocity": 0.7874015748031497
        },
        {
          "duration": 0.14705874999999935,
          "durationTicks": 24,
          "midi": 46,
          "name": "A#2",
          "ticks": 4992,
          "time": 30.588220000000003,
          "velocity": 0.7874015748031497
        },
        {
          "duration": 0.07352937499999967,
          "durationTicks": 12,
          "midi": 38,
          "name": "D2",
          "ticks": 4992,
          "time": 30.588220000000003,
          "velocity": 0.7874015748031497
        },
        {
          "duration": 0.07352937499999967,
          "durationTicks": 12,
          "midi": 38,
          "name": "D2",
          "ticks": 5004,
          "time": 30.661749375000003,
          "velocity": 0.7874015748031497
        },
        {
          "duration": 0.14705874999999935,
          "durationTicks": 24,
          "midi": 36,
          "name": "C2",
          "ticks": 5016,
          "time": 30.735278750000003,
          "velocity": 0.7874015748031497
        },
        {
          "duration": 0.14705874999999935,
          "durationTicks": 24,
          "midi": 42,
          "name": "F#2",
          "ticks": 5016,
          "time": 30.735278750000003,
          "velocity": 0.7874015748031497
        },
        {
          "duration": 0.07352937499999967,
          "durationTicks": 12,
          "midi": 38,
          "name": "D2",
          "ticks": 5040,
          "time": 30.882337500000002,
          "velocity": 0.7874015748031497
        },
        {
          "duration": 0.1470587500000029,
          "durationTicks": 24,
          "midi": 46,
          "name": "A#2",
          "ticks": 5040,
          "time": 30.882337500000002,
          "velocity": 0.7874015748031497
        },
        {
          "duration": 0.07352937500000323,
          "durationTicks": 12,
          "midi": 38,
          "name": "D2",
          "ticks": 5052,
          "time": 30.955866875,
          "velocity": 0.7874015748031497
        },
        {
          "duration": 0.14705874999999935,
          "durationTicks": 24,
          "midi": 42,
          "name": "F#2",
          "ticks": 5064,
          "time": 31.029396250000005,
          "velocity": 0.7874015748031497
        },
        {
          "duration": 0.14705874999999935,
          "durationTicks": 24,
          "midi": 36,
          "name": "C2",
          "ticks": 5064,
          "time": 31.029396250000005,
          "velocity": 0.7874015748031497
        },
        {
          "duration": 0.44117624999999805,
          "durationTicks": 72,
          "midi": 49,
          "name": "C#3",
          "ticks": 5088,
          "time": 31.176455000000004,
          "velocity": 0.7874015748031497
        },
        {
          "duration": 0.07352937499999967,
          "durationTicks": 12,
          "midi": 38,
          "name": "D2",
          "ticks": 5088,
          "time": 31.176455000000004,
          "velocity": 0.7874015748031497
        },
        {
          "duration": 0.07352937499999967,
          "durationTicks": 12,
          "midi": 38,
          "name": "D2",
          "ticks": 5100,
          "time": 31.249984375000004,
          "velocity": 0.7874015748031497
        },
        {
          "duration": 0.14705874999999935,
          "durationTicks": 24,
          "midi": 36,
          "name": "C2",
          "ticks": 5112,
          "time": 31.323513750000004,
          "velocity": 0.7874015748031497
        },
        {
          "duration": 0.14705874999999935,
          "durationTicks": 24,
          "midi": 42,
          "name": "F#2",
          "ticks": 5112,
          "time": 31.323513750000004,
          "velocity": 0.7874015748031497
        },
        {
          "duration": 0.14705874999999935,
          "durationTicks": 24,
          "midi": 36,
          "name": "C2",
          "ticks": 5136,
          "time": 31.470572500000003,
          "velocity": 0.7874015748031497
        },
        {
          "duration": 0.14705874999999935,
          "durationTicks": 24,
          "midi": 42,
          "name": "F#2",
          "ticks": 5136,
          "time": 31.470572500000003,
          "velocity": 0.7874015748031497
        },
        {
          "duration": 0.07352937499999967,
          "durationTicks": 12,
          "midi": 38,
          "name": "D2",
          "ticks": 5160,
          "time": 31.617631250000002,
          "velocity": 0.7874015748031497
        },
        {
          "duration": 0.44117624999999805,
          "durationTicks": 72,
          "midi": 49,
          "name": "C#3",
          "ticks": 5160,
          "time": 31.617631250000002,
          "velocity": 0.7874015748031497
        },
        {
          "duration": 0.07352937499999967,
          "durationTicks": 12,
          "midi": 38,
          "name": "D2",
          "ticks": 5172,
          "time": 31.691160625000002,
          "velocity": 0.7874015748031497
        },
        {
          "duration": 0.1470587500000029,
          "durationTicks": 24,
          "midi": 42,
          "name": "F#2",
          "ticks": 5184,
          "time": 31.76469,
          "velocity": 0.7874015748031497
        },
        {
          "duration": 0.1470587500000029,
          "durationTicks": 24,
          "midi": 36,
          "name": "C2",
          "ticks": 5184,
          "time": 31.76469,
          "velocity": 0.7874015748031497
        },
        {
          "duration": 0.1470587499999958,
          "durationTicks": 24,
          "midi": 42,
          "name": "F#2",
          "ticks": 5208,
          "time": 31.911748750000005,
          "velocity": 0.7874015748031497
        },
        {
          "duration": 0.1470587499999958,
          "durationTicks": 24,
          "midi": 36,
          "name": "C2",
          "ticks": 5208,
          "time": 31.911748750000005,
          "velocity": 0.7874015748031497
        },
        {
          "duration": 0.07352937499999967,
          "durationTicks": 12,
          "midi": 38,
          "name": "D2",
          "ticks": 5232,
          "time": 32.0588075,
          "velocity": 0.7874015748031497
        },
        {
          "duration": 0.44117625000000515,
          "durationTicks": 72,
          "midi": 49,
          "name": "C#3",
          "ticks": 5232,
          "time": 32.0588075,
          "velocity": 0.7874015748031497
        },
        {
          "duration": 0.07352937500000678,
          "durationTicks": 12,
          "midi": 38,
          "name": "D2",
          "ticks": 5244,
          "time": 32.132336875,
          "velocity": 0.7874015748031497
        },
        {
          "duration": 0.14705874999999935,
          "durationTicks": 24,
          "midi": 42,
          "name": "F#2",
          "ticks": 5256,
          "time": 32.20586625000001,
          "velocity": 0.7874015748031497
        },
        {
          "duration": 0.14705874999999935,
          "durationTicks": 24,
          "midi": 36,
          "name": "C2",
          "ticks": 5256,
          "time": 32.20586625000001,
          "velocity": 0.7874015748031497
        },
        {
          "duration": 0.14705874999999935,
          "durationTicks": 24,
          "midi": 36,
          "name": "C2",
          "ticks": 5280,
          "time": 32.352925000000006,
          "velocity": 0.7874015748031497
        },
        {
          "duration": 0.14705874999999935,
          "durationTicks": 24,
          "midi": 42,
          "name": "F#2",
          "ticks": 5280,
          "time": 32.352925000000006,
          "velocity": 0.7874015748031497
        },
        {
          "duration": 0.44117624999999805,
          "durationTicks": 72,
          "midi": 49,
          "name": "C#3",
          "ticks": 5304,
          "time": 32.499983750000006,
          "velocity": 0.7874015748031497
        },
        {
          "duration": 0.07352937499999967,
          "durationTicks": 12,
          "midi": 38,
          "name": "D2",
          "ticks": 5304,
          "time": 32.499983750000006,
          "velocity": 0.7874015748031497
        },
        {
          "duration": 0.07352937499999967,
          "durationTicks": 12,
          "midi": 38,
          "name": "D2",
          "ticks": 5316,
          "time": 32.573513125000005,
          "velocity": 0.7874015748031497
        },
        {
          "duration": 0.14705874999999935,
          "durationTicks": 24,
          "midi": 36,
          "name": "C2",
          "ticks": 5328,
          "time": 32.647042500000005,
          "velocity": 0.7874015748031497
        },
        {
          "duration": 0.14705874999999935,
          "durationTicks": 24,
          "midi": 42,
          "name": "F#2",
          "ticks": 5328,
          "time": 32.647042500000005,
          "velocity": 0.7874015748031497
        },
        {
          "duration": 0.14705874999999935,
          "durationTicks": 24,
          "midi": 36,
          "name": "C2",
          "ticks": 5352,
          "time": 32.794101250000004,
          "velocity": 0.7874015748031497
        },
        {
          "duration": 0.14705874999999935,
          "durationTicks": 24,
          "midi": 42,
          "name": "F#2",
          "ticks": 5352,
          "time": 32.794101250000004,
          "velocity": 0.7874015748031497
        },
        {
          "duration": 0.14705874999999935,
          "durationTicks": 24,
          "midi": 46,
          "name": "A#2",
          "ticks": 5376,
          "time": 32.94116,
          "velocity": 0.7874015748031497
        },
        {
          "duration": 0.07352937499999967,
          "durationTicks": 12,
          "midi": 38,
          "name": "D2",
          "ticks": 5376,
          "time": 32.94116,
          "velocity": 0.7874015748031497
        },
        {
          "duration": 0.07352937499999967,
          "durationTicks": 12,
          "midi": 38,
          "name": "D2",
          "ticks": 5388,
          "time": 33.014689375,
          "velocity": 0.7874015748031497
        },
        {
          "duration": 0.14705874999999935,
          "durationTicks": 24,
          "midi": 42,
          "name": "F#2",
          "ticks": 5400,
          "time": 33.08821875,
          "velocity": 0.7874015748031497
        },
        {
          "duration": 0.14705874999999935,
          "durationTicks": 24,
          "midi": 36,
          "name": "C2",
          "ticks": 5400,
          "time": 33.08821875,
          "velocity": 0.7874015748031497
        },
        {
          "duration": 0.14705874999999935,
          "durationTicks": 24,
          "midi": 46,
          "name": "A#2",
          "ticks": 5424,
          "time": 33.2352775,
          "velocity": 0.7874015748031497
        },
        {
          "duration": 0.07352937499999967,
          "durationTicks": 12,
          "midi": 38,
          "name": "D2",
          "ticks": 5424,
          "time": 33.2352775,
          "velocity": 0.7874015748031497
        },
        {
          "duration": 0.07352937499999967,
          "durationTicks": 12,
          "midi": 38,
          "name": "D2",
          "ticks": 5436,
          "time": 33.308806875,
          "velocity": 0.7874015748031497
        },
        {
          "duration": 0.14705874999999935,
          "durationTicks": 24,
          "midi": 36,
          "name": "C2",
          "ticks": 5448,
          "time": 33.38233625,
          "velocity": 0.7874015748031497
        },
        {
          "duration": 0.14705874999999935,
          "durationTicks": 24,
          "midi": 42,
          "name": "F#2",
          "ticks": 5448,
          "time": 33.38233625,
          "velocity": 0.7874015748031497
        },
        {
          "duration": 0.14705874999999935,
          "durationTicks": 24,
          "midi": 36,
          "name": "C2",
          "ticks": 5472,
          "time": 33.529395,
          "velocity": 0.7874015748031497
        },
        {
          "duration": 0.5882350000000045,
          "durationTicks": 96,
          "midi": 49,
          "name": "C#3",
          "ticks": 5472,
          "time": 33.529395,
          "velocity": 0.7874015748031497
        },
        {
          "duration": 0.14705875000000646,
          "durationTicks": 24,
          "midi": 36,
          "name": "C2",
          "ticks": 5496,
          "time": 33.67645375,
          "velocity": 0.7874015748031497
        },
        {
          "duration": 0.14705875000000646,
          "durationTicks": 24,
          "midi": 42,
          "name": "F#2",
          "ticks": 5496,
          "time": 33.67645375,
          "velocity": 0.7874015748031497
        },
        {
          "duration": 0.14705874999999935,
          "durationTicks": 24,
          "midi": 42,
          "name": "F#2",
          "ticks": 5520,
          "time": 33.82351250000001,
          "velocity": 0.7874015748031497
        },
        {
          "duration": 0.07352937499999967,
          "durationTicks": 12,
          "midi": 36,
          "name": "C2",
          "ticks": 5544,
          "time": 33.970571250000006,
          "velocity": 0.7874015748031497
        },
        {
          "duration": 0.14705874999999935,
          "durationTicks": 24,
          "midi": 46,
          "name": "A#2",
          "ticks": 5544,
          "time": 33.970571250000006,
          "velocity": 0.7874015748031497
        },
        {
          "duration": 0.07352937499999967,
          "durationTicks": 12,
          "midi": 36,
          "name": "C2",
          "ticks": 5556,
          "time": 34.044100625000006,
          "velocity": 0.7874015748031497
        },
        {
          "duration": 0.14705874999999935,
          "durationTicks": 24,
          "midi": 36,
          "name": "C2",
          "ticks": 5568,
          "time": 34.117630000000005,
          "velocity": 0.7874015748031497
        },
        {
          "duration": 0.14705874999999935,
          "durationTicks": 24,
          "midi": 42,
          "name": "F#2",
          "ticks": 5568,
          "time": 34.117630000000005,
          "velocity": 0.7874015748031497
        },
        {
          "duration": 0.14705874999999935,
          "durationTicks": 24,
          "midi": 36,
          "name": "C2",
          "ticks": 5592,
          "time": 34.264688750000005,
          "velocity": 0.7874015748031497
        },
        {
          "duration": 0.14705874999999935,
          "durationTicks": 24,
          "midi": 42,
          "name": "F#2",
          "ticks": 5592,
          "time": 34.264688750000005,
          "velocity": 0.7874015748031497
        },
        {
          "duration": 0.07352937499999967,
          "durationTicks": 12,
          "midi": 38,
          "name": "D2",
          "ticks": 5616,
          "time": 34.411747500000004,
          "velocity": 0.7874015748031497
        },
        {
          "duration": 0.14705874999999935,
          "durationTicks": 24,
          "midi": 46,
          "name": "A#2",
          "ticks": 5616,
          "time": 34.411747500000004,
          "velocity": 0.7874015748031497
        },
        {
          "duration": 0.07352937499999967,
          "durationTicks": 12,
          "midi": 38,
          "name": "D2",
          "ticks": 5628,
          "time": 34.485276875000004,
          "velocity": 0.7874015748031497
        },
        {
          "duration": 0.14705874999999935,
          "durationTicks": 24,
          "midi": 42,
          "name": "F#2",
          "ticks": 5640,
          "time": 34.55880625,
          "velocity": 0.7874015748031497
        },
        {
          "duration": 0.14705874999999935,
          "durationTicks": 24,
          "midi": 42,
          "name": "F#2",
          "ticks": 5664,
          "time": 34.705865,
          "velocity": 0.7874015748031497
        },
        {
          "duration": 0.07352937499999967,
          "durationTicks": 12,
          "midi": 36,
          "name": "C2",
          "ticks": 5688,
          "time": 34.85292375,
          "velocity": 0.7874015748031497
        },
        {
          "duration": 0.14705874999999935,
          "durationTicks": 24,
          "midi": 46,
          "name": "A#2",
          "ticks": 5688,
          "time": 34.85292375,
          "velocity": 0.7874015748031497
        },
        {
          "duration": 0.07352937499999967,
          "durationTicks": 12,
          "midi": 36,
          "name": "C2",
          "ticks": 5700,
          "time": 34.926453125,
          "velocity": 0.7874015748031497
        },
        {
          "duration": 0.14705874999999935,
          "durationTicks": 24,
          "midi": 42,
          "name": "F#2",
          "ticks": 5712,
          "time": 34.9999825,
          "velocity": 0.7874015748031497
        },
        {
          "duration": 0.14705874999999935,
          "durationTicks": 24,
          "midi": 36,
          "name": "C2",
          "ticks": 5712,
          "time": 34.9999825,
          "velocity": 0.7874015748031497
        },
        {
          "duration": 0.14705874999999935,
          "durationTicks": 24,
          "midi": 36,
          "name": "C2",
          "ticks": 5736,
          "time": 35.14704125,
          "velocity": 0.7874015748031497
        },
        {
          "duration": 0.14705874999999935,
          "durationTicks": 24,
          "midi": 42,
          "name": "F#2",
          "ticks": 5736,
          "time": 35.14704125,
          "velocity": 0.7874015748031497
        },
        {
          "duration": 0.07352937500000678,
          "durationTicks": 12,
          "midi": 38,
          "name": "D2",
          "ticks": 5760,
          "time": 35.2941,
          "velocity": 0.7874015748031497
        },
        {
          "duration": 0.14705875000000646,
          "durationTicks": 24,
          "midi": 46,
          "name": "A#2",
          "ticks": 5760,
          "time": 35.2941,
          "velocity": 0.7874015748031497
        },
        {
          "duration": 0.07352937499999967,
          "durationTicks": 12,
          "midi": 38,
          "name": "D2",
          "ticks": 5772,
          "time": 35.36762937500001,
          "velocity": 0.7874015748031497
        },
        {
          "duration": 0.14705874999999935,
          "durationTicks": 24,
          "midi": 42,
          "name": "F#2",
          "ticks": 5784,
          "time": 35.44115875000001,
          "velocity": 0.7874015748031497
        },
        {
          "duration": 0.14705874999999935,
          "durationTicks": 24,
          "midi": 46,
          "name": "A#2",
          "ticks": 5808,
          "time": 35.588217500000006,
          "velocity": 0.7874015748031497
        },
        {
          "duration": 0.14705874999999935,
          "durationTicks": 24,
          "midi": 42,
          "name": "F#2",
          "ticks": 5832,
          "time": 35.735276250000005,
          "velocity": 0.7874015748031497
        },
        {
          "duration": 0.14705874999999935,
          "durationTicks": 24,
          "midi": 36,
          "name": "C2",
          "ticks": 5856,
          "time": 35.882335000000005,
          "velocity": 0.7874015748031497
        },
        {
          "duration": 0.5882349999999974,
          "durationTicks": 96,
          "midi": 49,
          "name": "C#3",
          "ticks": 5856,
          "time": 35.882335000000005,
          "velocity": 0.7874015748031497
        },
        {
          "duration": 0.14705874999999935,
          "durationTicks": 24,
          "midi": 36,
          "name": "C2",
          "ticks": 5880,
          "time": 36.029393750000004,
          "velocity": 0.7874015748031497
        },
        {
          "duration": 0.14705874999999935,
          "durationTicks": 24,
          "midi": 42,
          "name": "F#2",
          "ticks": 5880,
          "time": 36.029393750000004,
          "velocity": 0.7874015748031497
        },
        {
          "duration": 0.14705874999999935,
          "durationTicks": 24,
          "midi": 42,
          "name": "F#2",
          "ticks": 5904,
          "time": 36.1764525,
          "velocity": 0.7874015748031497
        },
        {
          "duration": 0.07352937499999967,
          "durationTicks": 12,
          "midi": 36,
          "name": "C2",
          "ticks": 5928,
          "time": 36.32351125,
          "velocity": 0.7874015748031497
        },
        {
          "duration": 0.14705874999999935,
          "durationTicks": 24,
          "midi": 46,
          "name": "A#2",
          "ticks": 5928,
          "time": 36.32351125,
          "velocity": 0.7874015748031497
        },
        {
          "duration": 0.07352937499999967,
          "durationTicks": 12,
          "midi": 36,
          "name": "C2",
          "ticks": 5940,
          "time": 36.397040625,
          "velocity": 0.7874015748031497
        },
        {
          "duration": 0.14705874999999935,
          "durationTicks": 24,
          "midi": 36,
          "name": "C2",
          "ticks": 5952,
          "time": 36.47057,
          "velocity": 0.7874015748031497
        },
        {
          "duration": 0.14705874999999935,
          "durationTicks": 24,
          "midi": 42,
          "name": "F#2",
          "ticks": 5952,
          "time": 36.47057,
          "velocity": 0.7874015748031497
        },
        {
          "duration": 0.14705874999999935,
          "durationTicks": 24,
          "midi": 36,
          "name": "C2",
          "ticks": 5976,
          "time": 36.61762875,
          "velocity": 0.7874015748031497
        },
        {
          "duration": 0.14705874999999935,
          "durationTicks": 24,
          "midi": 42,
          "name": "F#2",
          "ticks": 5976,
          "time": 36.61762875,
          "velocity": 0.7874015748031497
        },
        {
          "duration": 0.14705875000000646,
          "durationTicks": 24,
          "midi": 46,
          "name": "A#2",
          "ticks": 6000,
          "time": 36.7646875,
          "velocity": 0.7874015748031497
        },
        {
          "duration": 0.07352937499999967,
          "durationTicks": 12,
          "midi": 38,
          "name": "D2",
          "ticks": 6000,
          "time": 36.7646875,
          "velocity": 0.7874015748031497
        },
        {
          "duration": 0.07352937500000678,
          "durationTicks": 12,
          "midi": 38,
          "name": "D2",
          "ticks": 6012,
          "time": 36.838216875,
          "velocity": 0.7874015748031497
        },
        {
          "duration": 0.14705874999999935,
          "durationTicks": 24,
          "midi": 42,
          "name": "F#2",
          "ticks": 6024,
          "time": 36.91174625000001,
          "velocity": 0.7874015748031497
        },
        {
          "duration": 0.14705874999999935,
          "durationTicks": 24,
          "midi": 42,
          "name": "F#2",
          "ticks": 6048,
          "time": 37.05880500000001,
          "velocity": 0.7874015748031497
        },
        {
          "duration": 0.14705874999999935,
          "durationTicks": 24,
          "midi": 46,
          "name": "A#2",
          "ticks": 6072,
          "time": 37.205863750000006,
          "velocity": 0.7874015748031497
        },
        {
          "duration": 0.07352937499999967,
          "durationTicks": 12,
          "midi": 36,
          "name": "C2",
          "ticks": 6072,
          "time": 37.205863750000006,
          "velocity": 0.7874015748031497
        },
        {
          "duration": 0.07352937499999967,
          "durationTicks": 12,
          "midi": 36,
          "name": "C2",
          "ticks": 6084,
          "time": 37.279393125000006,
          "velocity": 0.7874015748031497
        },
        {
          "duration": 0.14705874999999935,
          "durationTicks": 24,
          "midi": 42,
          "name": "F#2",
          "ticks": 6096,
          "time": 37.352922500000005,
          "velocity": 0.7874015748031497
        },
        {
          "duration": 0.14705874999999935,
          "durationTicks": 24,
          "midi": 36,
          "name": "C2",
          "ticks": 6096,
          "time": 37.352922500000005,
          "velocity": 0.7874015748031497
        },
        {
          "duration": 0.14705874999999935,
          "durationTicks": 24,
          "midi": 42,
          "name": "F#2",
          "ticks": 6120,
          "time": 37.499981250000005,
          "velocity": 0.7874015748031497
        },
        {
          "duration": 0.14705874999999935,
          "durationTicks": 24,
          "midi": 36,
          "name": "C2",
          "ticks": 6120,
          "time": 37.499981250000005,
          "velocity": 0.7874015748031497
        },
        {
          "duration": 0.07352937499999967,
          "durationTicks": 12,
          "midi": 38,
          "name": "D2",
          "ticks": 6144,
          "time": 37.647040000000004,
          "velocity": 0.7874015748031497
        },
        {
          "duration": 0.14705874999999935,
          "durationTicks": 24,
          "midi": 46,
          "name": "A#2",
          "ticks": 6144,
          "time": 37.647040000000004,
          "velocity": 0.7874015748031497
        },
        {
          "duration": 0.07352937499999967,
          "durationTicks": 12,
          "midi": 38,
          "name": "D2",
          "ticks": 6156,
          "time": 37.720569375000004,
          "velocity": 0.7874015748031497
        },
        {
          "duration": 0.14705874999999935,
          "durationTicks": 24,
          "midi": 42,
          "name": "F#2",
          "ticks": 6168,
          "time": 37.79409875,
          "velocity": 0.7874015748031497
        },
        {
          "duration": 0.14705874999999935,
          "durationTicks": 24,
          "midi": 46,
          "name": "A#2",
          "ticks": 6192,
          "time": 37.9411575,
          "velocity": 0.7874015748031497
        },
        {
          "duration": 0.14705874999999935,
          "durationTicks": 24,
          "midi": 42,
          "name": "F#2",
          "ticks": 6216,
          "time": 38.08821625,
          "velocity": 0.7874015748031497
        },
        {
          "duration": 0.5882350000000045,
          "durationTicks": 96,
          "midi": 49,
          "name": "C#3",
          "ticks": 6240,
          "time": 38.235275,
          "velocity": 0.7874015748031497
        },
        {
          "duration": 0.14705874999999935,
          "durationTicks": 24,
          "midi": 36,
          "name": "C2",
          "ticks": 6240,
          "time": 38.235275,
          "velocity": 0.7874015748031497
        },
        {
          "duration": 0.14705875000000646,
          "durationTicks": 24,
          "midi": 42,
          "name": "F#2",
          "ticks": 6264,
          "time": 38.38233375,
          "velocity": 0.7874015748031497
        },
        {
          "duration": 0.14705875000000646,
          "durationTicks": 24,
          "midi": 36,
          "name": "C2",
          "ticks": 6264,
          "time": 38.38233375,
          "velocity": 0.7874015748031497
        },
        {
          "duration": 0.14705874999999935,
          "durationTicks": 24,
          "midi": 42,
          "name": "F#2",
          "ticks": 6288,
          "time": 38.52939250000001,
          "velocity": 0.7874015748031497
        },
        {
          "duration": 0.14705874999999935,
          "durationTicks": 24,
          "midi": 46,
          "name": "A#2",
          "ticks": 6312,
          "time": 38.67645125000001,
          "velocity": 0.7874015748031497
        },
        {
          "duration": 0.07352937499999967,
          "durationTicks": 12,
          "midi": 36,
          "name": "C2",
          "ticks": 6312,
          "time": 38.67645125000001,
          "velocity": 0.7874015748031497
        },
        {
          "duration": 0.07352937499999967,
          "durationTicks": 12,
          "midi": 36,
          "name": "C2",
          "ticks": 6324,
          "time": 38.749980625000006,
          "velocity": 0.7874015748031497
        },
        {
          "duration": 0.14705874999999935,
          "durationTicks": 24,
          "midi": 42,
          "name": "F#2",
          "ticks": 6336,
          "time": 38.823510000000006,
          "velocity": 0.7874015748031497
        },
        {
          "duration": 0.14705874999999935,
          "durationTicks": 24,
          "midi": 36,
          "name": "C2",
          "ticks": 6336,
          "time": 38.823510000000006,
          "velocity": 0.7874015748031497
        },
        {
          "duration": 0.14705874999999935,
          "durationTicks": 24,
          "midi": 36,
          "name": "C2",
          "ticks": 6360,
          "time": 38.970568750000005,
          "velocity": 0.7874015748031497
        },
        {
          "duration": 0.14705874999999935,
          "durationTicks": 24,
          "midi": 42,
          "name": "F#2",
          "ticks": 6360,
          "time": 38.970568750000005,
          "velocity": 0.7874015748031497
        },
        {
          "duration": 0.14705874999999935,
          "durationTicks": 24,
          "midi": 46,
          "name": "A#2",
          "ticks": 6384,
          "time": 39.117627500000005,
          "velocity": 0.7874015748031497
        },
        {
          "duration": 0.07352937499999967,
          "durationTicks": 12,
          "midi": 38,
          "name": "D2",
          "ticks": 6384,
          "time": 39.117627500000005,
          "velocity": 0.7874015748031497
        },
        {
          "duration": 0.07352937499999967,
          "durationTicks": 12,
          "midi": 38,
          "name": "D2",
          "ticks": 6396,
          "time": 39.191156875000004,
          "velocity": 0.7874015748031497
        },
        {
          "duration": 0.14705874999999935,
          "durationTicks": 24,
          "midi": 42,
          "name": "F#2",
          "ticks": 6408,
          "time": 39.264686250000004,
          "velocity": 0.7874015748031497
        },
        {
          "duration": 0.14705874999999935,
          "durationTicks": 24,
          "midi": 42,
          "name": "F#2",
          "ticks": 6432,
          "time": 39.411745,
          "velocity": 0.7874015748031497
        },
        {
          "duration": 0.14705874999999935,
          "durationTicks": 24,
          "midi": 46,
          "name": "A#2",
          "ticks": 6456,
          "time": 39.55880375,
          "velocity": 0.7874015748031497
        },
        {
          "duration": 0.07352937499999967,
          "durationTicks": 12,
          "midi": 36,
          "name": "C2",
          "ticks": 6456,
          "time": 39.55880375,
          "velocity": 0.7874015748031497
        },
        {
          "duration": 0.07352937499999967,
          "durationTicks": 12,
          "midi": 36,
          "name": "C2",
          "ticks": 6468,
          "time": 39.632333125,
          "velocity": 0.7874015748031497
        },
        {
          "duration": 0.14705874999999935,
          "durationTicks": 24,
          "midi": 42,
          "name": "F#2",
          "ticks": 6480,
          "time": 39.7058625,
          "velocity": 0.7874015748031497
        },
        {
          "duration": 0.14705874999999935,
          "durationTicks": 24,
          "midi": 36,
          "name": "C2",
          "ticks": 6480,
          "time": 39.7058625,
          "velocity": 0.7874015748031497
        },
        {
          "duration": 0.14705875000000646,
          "durationTicks": 24,
          "midi": 36,
          "name": "C2",
          "ticks": 6504,
          "time": 39.85292125,
          "velocity": 0.7874015748031497
        },
        {
          "duration": 0.14705875000000646,
          "durationTicks": 24,
          "midi": 42,
          "name": "F#2",
          "ticks": 6504,
          "time": 39.85292125,
          "velocity": 0.7874015748031497
        },
        {
          "duration": 0.07352937499999967,
          "durationTicks": 12,
          "midi": 38,
          "name": "D2",
          "ticks": 6528,
          "time": 39.99998000000001,
          "velocity": 0.7874015748031497
        },
        {
          "duration": 0.14705874999999935,
          "durationTicks": 24,
          "midi": 46,
          "name": "A#2",
          "ticks": 6528,
          "time": 39.99998000000001,
          "velocity": 0.7874015748031497
        },
        {
          "duration": 0.07352937499999967,
          "durationTicks": 12,
          "midi": 38,
          "name": "D2",
          "ticks": 6540,
          "time": 40.07350937500001,
          "velocity": 0.7874015748031497
        },
        {
          "duration": 0.14705874999999935,
          "durationTicks": 24,
          "midi": 42,
          "name": "F#2",
          "ticks": 6552,
          "time": 40.14703875000001,
          "velocity": 0.7874015748031497
        },
        {
          "duration": 0.14705874999999935,
          "durationTicks": 24,
          "midi": 46,
          "name": "A#2",
          "ticks": 6576,
          "time": 40.29409750000001,
          "velocity": 0.7874015748031497
        },
        {
          "duration": 0.14705874999999935,
          "durationTicks": 24,
          "midi": 42,
          "name": "F#2",
          "ticks": 6600,
          "time": 40.441156250000006,
          "velocity": 0.7874015748031497
        },
        {
          "duration": 0.5882349999999974,
          "durationTicks": 96,
          "midi": 49,
          "name": "C#3",
          "ticks": 6624,
          "time": 40.588215000000005,
          "velocity": 0.7874015748031497
        },
        {
          "duration": 0.14705874999999935,
          "durationTicks": 24,
          "midi": 36,
          "name": "C2",
          "ticks": 6624,
          "time": 40.588215000000005,
          "velocity": 0.7874015748031497
        },
        {
          "duration": 0.14705874999999935,
          "durationTicks": 24,
          "midi": 42,
          "name": "F#2",
          "ticks": 6648,
          "time": 40.735273750000005,
          "velocity": 0.7874015748031497
        },
        {
          "duration": 0.14705874999999935,
          "durationTicks": 24,
          "midi": 36,
          "name": "C2",
          "ticks": 6648,
          "time": 40.735273750000005,
          "velocity": 0.7874015748031497
        },
        {
          "duration": 0.14705874999999935,
          "durationTicks": 24,
          "midi": 42,
          "name": "F#2",
          "ticks": 6672,
          "time": 40.882332500000004,
          "velocity": 0.7874015748031497
        },
        {
          "duration": 0.14705874999999935,
          "durationTicks": 24,
          "midi": 46,
          "name": "A#2",
          "ticks": 6696,
          "time": 41.02939125,
          "velocity": 0.7874015748031497
        },
        {
          "duration": 0.07352937499999967,
          "durationTicks": 12,
          "midi": 36,
          "name": "C2",
          "ticks": 6696,
          "time": 41.02939125,
          "velocity": 0.7874015748031497
        },
        {
          "duration": 0.07352937499999967,
          "durationTicks": 12,
          "midi": 36,
          "name": "C2",
          "ticks": 6708,
          "time": 41.102920625,
          "velocity": 0.7874015748031497
        },
        {
          "duration": 0.14705874999999935,
          "durationTicks": 24,
          "midi": 36,
          "name": "C2",
          "ticks": 6720,
          "time": 41.17645,
          "velocity": 0.7874015748031497
        },
        {
          "duration": 0.14705874999999935,
          "durationTicks": 24,
          "midi": 42,
          "name": "F#2",
          "ticks": 6720,
          "time": 41.17645,
          "velocity": 0.7874015748031497
        },
        {
          "duration": 0.14705874999999935,
          "durationTicks": 24,
          "midi": 36,
          "name": "C2",
          "ticks": 6744,
          "time": 41.32350875,
          "velocity": 0.7874015748031497
        },
        {
          "duration": 0.14705874999999935,
          "durationTicks": 24,
          "midi": 42,
          "name": "F#2",
          "ticks": 6744,
          "time": 41.32350875,
          "velocity": 0.7874015748031497
        },
        {
          "duration": 0.07352937499999967,
          "durationTicks": 12,
          "midi": 38,
          "name": "D2",
          "ticks": 6768,
          "time": 41.4705675,
          "velocity": 0.7874015748031497
        },
        {
          "duration": 0.14705875000000646,
          "durationTicks": 24,
          "midi": 46,
          "name": "A#2",
          "ticks": 6768,
          "time": 41.4705675,
          "velocity": 0.7874015748031497
        },
        {
          "duration": 0.07352937500000678,
          "durationTicks": 12,
          "midi": 38,
          "name": "D2",
          "ticks": 6780,
          "time": 41.544096875,
          "velocity": 0.7874015748031497
        },
        {
          "duration": 0.14705874999999935,
          "durationTicks": 24,
          "midi": 42,
          "name": "F#2",
          "ticks": 6792,
          "time": 41.61762625000001,
          "velocity": 0.7874015748031497
        },
        {
          "duration": 0.14705874999999935,
          "durationTicks": 24,
          "midi": 42,
          "name": "F#2",
          "ticks": 6816,
          "time": 41.76468500000001,
          "velocity": 0.7874015748031497
        },
        {
          "duration": 0.07352937499999967,
          "durationTicks": 12,
          "midi": 36,
          "name": "C2",
          "ticks": 6840,
          "time": 41.91174375000001,
          "velocity": 0.7874015748031497
        },
        {
          "duration": 0.14705874999999935,
          "durationTicks": 24,
          "midi": 46,
          "name": "A#2",
          "ticks": 6840,
          "time": 41.91174375000001,
          "velocity": 0.7874015748031497
        },
        {
          "duration": 0.07352937499999967,
          "durationTicks": 12,
          "midi": 36,
          "name": "C2",
          "ticks": 6852,
          "time": 41.985273125000006,
          "velocity": 0.7874015748031497
        },
        {
          "duration": 0.14705874999999935,
          "durationTicks": 24,
          "midi": 42,
          "name": "F#2",
          "ticks": 6864,
          "time": 42.058802500000006,
          "velocity": 0.7874015748031497
        },
        {
          "duration": 0.14705874999999935,
          "durationTicks": 24,
          "midi": 36,
          "name": "C2",
          "ticks": 6864,
          "time": 42.058802500000006,
          "velocity": 0.7874015748031497
        },
        {
          "duration": 0.14705874999999935,
          "durationTicks": 24,
          "midi": 36,
          "name": "C2",
          "ticks": 6888,
          "time": 42.205861250000005,
          "velocity": 0.7874015748031497
        },
        {
          "duration": 0.14705874999999935,
          "durationTicks": 24,
          "midi": 42,
          "name": "F#2",
          "ticks": 6888,
          "time": 42.205861250000005,
          "velocity": 0.7874015748031497
        },
        {
          "duration": 0.14705874999999935,
          "durationTicks": 24,
          "midi": 46,
          "name": "A#2",
          "ticks": 6912,
          "time": 42.352920000000005,
          "velocity": 0.7874015748031497
        },
        {
          "duration": 0.07352937499999967,
          "durationTicks": 12,
          "midi": 38,
          "name": "D2",
          "ticks": 6912,
          "time": 42.352920000000005,
          "velocity": 0.7874015748031497
        },
        {
          "duration": 0.07352937499999967,
          "durationTicks": 12,
          "midi": 38,
          "name": "D2",
          "ticks": 6924,
          "time": 42.426449375000004,
          "velocity": 0.7874015748031497
        },
        {
          "duration": 0.14705874999999935,
          "durationTicks": 24,
          "midi": 42,
          "name": "F#2",
          "ticks": 6936,
          "time": 42.499978750000004,
          "velocity": 0.7874015748031497
        },
        {
          "duration": 0.14705874999999935,
          "durationTicks": 24,
          "midi": 46,
          "name": "A#2",
          "ticks": 6960,
          "time": 42.6470375,
          "velocity": 0.7874015748031497
        },
        {
          "duration": 0.14705874999999935,
          "durationTicks": 24,
          "midi": 42,
          "name": "F#2",
          "ticks": 6984,
          "time": 42.79409625,
          "velocity": 0.7874015748031497
        },
        {
          "duration": 0.14705874999999935,
          "durationTicks": 24,
          "midi": 36,
          "name": "C2",
          "ticks": 7008,
          "time": 42.941155,
          "velocity": 0.7874015748031497
        },
        {
          "duration": 0.5882350000000045,
          "durationTicks": 96,
          "midi": 49,
          "name": "C#3",
          "ticks": 7008,
          "time": 42.941155,
          "velocity": 0.7874015748031497
        },
        {
          "duration": 0.14705875000000646,
          "durationTicks": 24,
          "midi": 42,
          "name": "F#2",
          "ticks": 7032,
          "time": 43.08821375,
          "velocity": 0.7874015748031497
        },
        {
          "duration": 0.14705875000000646,
          "durationTicks": 24,
          "midi": 36,
          "name": "C2",
          "ticks": 7032,
          "time": 43.08821375,
          "velocity": 0.7874015748031497
        },
        {
          "duration": 0.14705874999999935,
          "durationTicks": 24,
          "midi": 42,
          "name": "F#2",
          "ticks": 7056,
          "time": 43.23527250000001,
          "velocity": 0.7874015748031497
        },
        {
          "duration": 0.07352937499999967,
          "durationTicks": 12,
          "midi": 36,
          "name": "C2",
          "ticks": 7080,
          "time": 43.38233125000001,
          "velocity": 0.7874015748031497
        },
        {
          "duration": 0.14705874999999935,
          "durationTicks": 24,
          "midi": 46,
          "name": "A#2",
          "ticks": 7080,
          "time": 43.38233125000001,
          "velocity": 0.7874015748031497
        },
        {
          "duration": 0.07352937499999967,
          "durationTicks": 12,
          "midi": 36,
          "name": "C2",
          "ticks": 7092,
          "time": 43.45586062500001,
          "velocity": 0.7874015748031497
        },
        {
          "duration": 0.14705874999999935,
          "durationTicks": 24,
          "midi": 42,
          "name": "F#2",
          "ticks": 7104,
          "time": 43.52939000000001,
          "velocity": 0.7874015748031497
        },
        {
          "duration": 0.14705874999999935,
          "durationTicks": 24,
          "midi": 36,
          "name": "C2",
          "ticks": 7104,
          "time": 43.52939000000001,
          "velocity": 0.7874015748031497
        },
        {
          "duration": 0.14705874999999935,
          "durationTicks": 24,
          "midi": 42,
          "name": "F#2",
          "ticks": 7128,
          "time": 43.676448750000006,
          "velocity": 0.7874015748031497
        },
        {
          "duration": 0.14705874999999935,
          "durationTicks": 24,
          "midi": 36,
          "name": "C2",
          "ticks": 7128,
          "time": 43.676448750000006,
          "velocity": 0.7874015748031497
        },
        {
          "duration": 0.07352937499999967,
          "durationTicks": 12,
          "midi": 38,
          "name": "D2",
          "ticks": 7152,
          "time": 43.823507500000005,
          "velocity": 0.7874015748031497
        },
        {
          "duration": 0.14705874999999935,
          "durationTicks": 24,
          "midi": 46,
          "name": "A#2",
          "ticks": 7152,
          "time": 43.823507500000005,
          "velocity": 0.7874015748031497
        },
        {
          "duration": 0.07352937499999967,
          "durationTicks": 12,
          "midi": 38,
          "name": "D2",
          "ticks": 7164,
          "time": 43.897036875000005,
          "velocity": 0.7874015748031497
        },
        {
          "duration": 0.14705874999999935,
          "durationTicks": 24,
          "midi": 42,
          "name": "F#2",
          "ticks": 7176,
          "time": 43.970566250000005,
          "velocity": 0.7874015748031497
        },
        {
          "duration": 0.14705874999999935,
          "durationTicks": 24,
          "midi": 42,
          "name": "F#2",
          "ticks": 7200,
          "time": 44.117625000000004,
          "velocity": 0.7874015748031497
        },
        {
          "duration": 0.14705874999999935,
          "durationTicks": 24,
          "midi": 46,
          "name": "A#2",
          "ticks": 7224,
          "time": 44.26468375,
          "velocity": 0.7874015748031497
        },
        {
          "duration": 0.07352937499999967,
          "durationTicks": 12,
          "midi": 36,
          "name": "C2",
          "ticks": 7224,
          "time": 44.26468375,
          "velocity": 0.7874015748031497
        },
        {
          "duration": 0.07352937499999967,
          "durationTicks": 12,
          "midi": 36,
          "name": "C2",
          "ticks": 7236,
          "time": 44.338213125,
          "velocity": 0.7874015748031497
        },
        {
          "duration": 0.14705874999999935,
          "durationTicks": 24,
          "midi": 36,
          "name": "C2",
          "ticks": 7248,
          "time": 44.4117425,
          "velocity": 0.7874015748031497
        },
        {
          "duration": 0.14705874999999935,
          "durationTicks": 24,
          "midi": 42,
          "name": "F#2",
          "ticks": 7248,
          "time": 44.4117425,
          "velocity": 0.7874015748031497
        },
        {
          "duration": 0.14705874999999935,
          "durationTicks": 24,
          "midi": 42,
          "name": "F#2",
          "ticks": 7272,
          "time": 44.55880125,
          "velocity": 0.7874015748031497
        },
        {
          "duration": 0.14705874999999935,
          "durationTicks": 24,
          "midi": 36,
          "name": "C2",
          "ticks": 7272,
          "time": 44.55880125,
          "velocity": 0.7874015748031497
        },
        {
          "duration": 0.14705875000000646,
          "durationTicks": 24,
          "midi": 46,
          "name": "A#2",
          "ticks": 7296,
          "time": 44.70586,
          "velocity": 0.7874015748031497
        },
        {
          "duration": 0.07352937500000678,
          "durationTicks": 12,
          "midi": 38,
          "name": "D2",
          "ticks": 7296,
          "time": 44.70586,
          "velocity": 0.7874015748031497
        },
        {
          "duration": 0.07352937499999967,
          "durationTicks": 12,
          "midi": 38,
          "name": "D2",
          "ticks": 7308,
          "time": 44.77938937500001,
          "velocity": 0.7874015748031497
        },
        {
          "duration": 0.14705874999999935,
          "durationTicks": 24,
          "midi": 42,
          "name": "F#2",
          "ticks": 7320,
          "time": 44.85291875000001,
          "velocity": 0.7874015748031497
        },
        {
          "duration": 0.14705874999999935,
          "durationTicks": 24,
          "midi": 46,
          "name": "A#2",
          "ticks": 7344,
          "time": 44.99997750000001,
          "velocity": 0.7874015748031497
        },
        {
          "duration": 0.14705874999999935,
          "durationTicks": 24,
          "midi": 42,
          "name": "F#2",
          "ticks": 7368,
          "time": 45.147036250000006,
          "velocity": 0.7874015748031497
        },
        {
          "duration": 0.5882349999999974,
          "durationTicks": 96,
          "midi": 49,
          "name": "C#3",
          "ticks": 7392,
          "time": 45.294095000000006,
          "velocity": 0.7874015748031497
        },
        {
          "duration": 0.14705874999999935,
          "durationTicks": 24,
          "midi": 36,
          "name": "C2",
          "ticks": 7392,
          "time": 45.294095000000006,
          "velocity": 0.7874015748031497
        },
        {
          "duration": 0.14705874999999935,
          "durationTicks": 24,
          "midi": 42,
          "name": "F#2",
          "ticks": 7416,
          "time": 45.441153750000005,
          "velocity": 0.7874015748031497
        },
        {
          "duration": 0.14705874999999935,
          "durationTicks": 24,
          "midi": 36,
          "name": "C2",
          "ticks": 7416,
          "time": 45.441153750000005,
          "velocity": 0.7874015748031497
        },
        {
          "duration": 0.14705874999999935,
          "durationTicks": 24,
          "midi": 42,
          "name": "F#2",
          "ticks": 7440,
          "time": 45.588212500000004,
          "velocity": 0.7874015748031497
        },
        {
          "duration": 0.14705874999999935,
          "durationTicks": 24,
          "midi": 46,
          "name": "A#2",
          "ticks": 7464,
          "time": 45.735271250000004,
          "velocity": 0.7874015748031497
        },
        {
          "duration": 0.07352937499999967,
          "durationTicks": 12,
          "midi": 36,
          "name": "C2",
          "ticks": 7464,
          "time": 45.735271250000004,
          "velocity": 0.7874015748031497
        },
        {
          "duration": 0.07352937499999967,
          "durationTicks": 12,
          "midi": 36,
          "name": "C2",
          "ticks": 7476,
          "time": 45.808800625,
          "velocity": 0.7874015748031497
        },
        {
          "duration": 0.14705874999999935,
          "durationTicks": 24,
          "midi": 42,
          "name": "F#2",
          "ticks": 7488,
          "time": 45.88233,
          "velocity": 0.7874015748031497
        },
        {
          "duration": 0.14705874999999935,
          "durationTicks": 24,
          "midi": 36,
          "name": "C2",
          "ticks": 7488,
          "time": 45.88233,
          "velocity": 0.7874015748031497
        },
        {
          "duration": 0.14705874999999935,
          "durationTicks": 24,
          "midi": 36,
          "name": "C2",
          "ticks": 7512,
          "time": 46.02938875,
          "velocity": 0.7874015748031497
        },
        {
          "duration": 0.14705874999999935,
          "durationTicks": 24,
          "midi": 42,
          "name": "F#2",
          "ticks": 7512,
          "time": 46.02938875,
          "velocity": 0.7874015748031497
        },
        {
          "duration": 0.07352937499999967,
          "durationTicks": 12,
          "midi": 38,
          "name": "D2",
          "ticks": 7536,
          "time": 46.1764475,
          "velocity": 0.7874015748031497
        },
        {
          "duration": 0.14705875000000646,
          "durationTicks": 24,
          "midi": 46,
          "name": "A#2",
          "ticks": 7536,
          "time": 46.1764475,
          "velocity": 0.7874015748031497
        },
        {
          "duration": 0.07352937500000678,
          "durationTicks": 12,
          "midi": 38,
          "name": "D2",
          "ticks": 7548,
          "time": 46.249976875,
          "velocity": 0.7874015748031497
        },
        {
          "duration": 0.14705874999999935,
          "durationTicks": 24,
          "midi": 42,
          "name": "F#2",
          "ticks": 7560,
          "time": 46.32350625000001,
          "velocity": 0.7874015748031497
        },
        {
          "duration": 0.14705874999999935,
          "durationTicks": 24,
          "midi": 42,
          "name": "F#2",
          "ticks": 7584,
          "time": 46.47056500000001,
          "velocity": 0.7874015748031497
        },
        {
          "duration": 0.07352937499999967,
          "durationTicks": 12,
          "midi": 36,
          "name": "C2",
          "ticks": 7608,
          "time": 46.61762375000001,
          "velocity": 0.7874015748031497
        },
        {
          "duration": 0.14705874999999935,
          "durationTicks": 24,
          "midi": 46,
          "name": "A#2",
          "ticks": 7608,
          "time": 46.61762375000001,
          "velocity": 0.7874015748031497
        },
        {
          "duration": 0.07352937499999967,
          "durationTicks": 12,
          "midi": 36,
          "name": "C2",
          "ticks": 7620,
          "time": 46.69115312500001,
          "velocity": 0.7874015748031497
        },
        {
          "duration": 0.14705874999999935,
          "durationTicks": 24,
          "midi": 36,
          "name": "C2",
          "ticks": 7632,
          "time": 46.764682500000006,
          "velocity": 0.7874015748031497
        },
        {
          "duration": 0.14705874999999935,
          "durationTicks": 24,
          "midi": 42,
          "name": "F#2",
          "ticks": 7632,
          "time": 46.764682500000006,
          "velocity": 0.7874015748031497
        },
        {
          "duration": 0.14705874999999935,
          "durationTicks": 24,
          "midi": 42,
          "name": "F#2",
          "ticks": 7656,
          "time": 46.911741250000006,
          "velocity": 0.7874015748031497
        },
        {
          "duration": 0.14705874999999935,
          "durationTicks": 24,
          "midi": 36,
          "name": "C2",
          "ticks": 7656,
          "time": 46.911741250000006,
          "velocity": 0.7874015748031497
        },
        {
          "duration": 0.07352937499999967,
          "durationTicks": 12,
          "midi": 38,
          "name": "D2",
          "ticks": 7680,
          "time": 47.058800000000005,
          "velocity": 0.7874015748031497
        },
        {
          "duration": 0.14705874999999935,
          "durationTicks": 24,
          "midi": 46,
          "name": "A#2",
          "ticks": 7680,
          "time": 47.058800000000005,
          "velocity": 0.7874015748031497
        },
        {
          "duration": 0.07352937499999967,
          "durationTicks": 12,
          "midi": 38,
          "name": "D2",
          "ticks": 7692,
          "time": 47.132329375000005,
          "velocity": 0.7874015748031497
        },
        {
          "duration": 0.14705874999999935,
          "durationTicks": 24,
          "midi": 42,
          "name": "F#2",
          "ticks": 7704,
          "time": 47.205858750000004,
          "velocity": 0.7874015748031497
        },
        {
          "duration": 0.14705874999999935,
          "durationTicks": 24,
          "midi": 46,
          "name": "A#2",
          "ticks": 7728,
          "time": 47.352917500000004,
          "velocity": 0.7874015748031497
        },
        {
          "duration": 0.14705874999999935,
          "durationTicks": 24,
          "midi": 42,
          "name": "F#2",
          "ticks": 7752,
          "time": 47.49997625,
          "velocity": 0.7874015748031497
        },
        {
          "duration": 0.14705874999999935,
          "durationTicks": 24,
          "midi": 36,
          "name": "C2",
          "ticks": 7776,
          "time": 47.647035,
          "velocity": 0.7874015748031497
        },
        {
          "duration": 0.5882350000000045,
          "durationTicks": 96,
          "midi": 49,
          "name": "C#3",
          "ticks": 7776,
          "time": 47.647035,
          "velocity": 0.7874015748031497
        },
        {
          "duration": 0.14705875000000646,
          "durationTicks": 24,
          "midi": 42,
          "name": "F#2",
          "ticks": 7800,
          "time": 47.79409375,
          "velocity": 0.7874015748031497
        },
        {
          "duration": 0.14705875000000646,
          "durationTicks": 24,
          "midi": 36,
          "name": "C2",
          "ticks": 7800,
          "time": 47.79409375,
          "velocity": 0.7874015748031497
        },
        {
          "duration": 0.14705874999999935,
          "durationTicks": 24,
          "midi": 42,
          "name": "F#2",
          "ticks": 7824,
          "time": 47.94115250000001,
          "velocity": 0.7874015748031497
        },
        {
          "duration": 0.07352937499999967,
          "durationTicks": 12,
          "midi": 36,
          "name": "C2",
          "ticks": 7848,
          "time": 48.08821125000001,
          "velocity": 0.7874015748031497
        },
        {
          "duration": 0.14705874999999935,
          "durationTicks": 24,
          "midi": 46,
          "name": "A#2",
          "ticks": 7848,
          "time": 48.08821125000001,
          "velocity": 0.7874015748031497
        },
        {
          "duration": 0.07352937499999967,
          "durationTicks": 12,
          "midi": 36,
          "name": "C2",
          "ticks": 7860,
          "time": 48.16174062500001,
          "velocity": 0.7874015748031497
        },
        {
          "duration": 0.14705874999999935,
          "durationTicks": 24,
          "midi": 36,
          "name": "C2",
          "ticks": 7872,
          "time": 48.23527000000001,
          "velocity": 0.7874015748031497
        },
        {
          "duration": 0.14705874999999935,
          "durationTicks": 24,
          "midi": 42,
          "name": "F#2",
          "ticks": 7872,
          "time": 48.23527000000001,
          "velocity": 0.7874015748031497
        },
        {
          "duration": 0.14705874999999935,
          "durationTicks": 24,
          "midi": 36,
          "name": "C2",
          "ticks": 7896,
          "time": 48.382328750000006,
          "velocity": 0.7874015748031497
        },
        {
          "duration": 0.14705874999999935,
          "durationTicks": 24,
          "midi": 42,
          "name": "F#2",
          "ticks": 7896,
          "time": 48.382328750000006,
          "velocity": 0.7874015748031497
        },
        {
          "duration": 0.07352937499999967,
          "durationTicks": 12,
          "midi": 38,
          "name": "D2",
          "ticks": 7920,
          "time": 48.529387500000006,
          "velocity": 0.7874015748031497
        },
        {
          "duration": 0.14705874999999935,
          "durationTicks": 24,
          "midi": 46,
          "name": "A#2",
          "ticks": 7920,
          "time": 48.529387500000006,
          "velocity": 0.7874015748031497
        },
        {
          "duration": 0.07352937499999967,
          "durationTicks": 12,
          "midi": 38,
          "name": "D2",
          "ticks": 7932,
          "time": 48.602916875000005,
          "velocity": 0.7874015748031497
        },
        {
          "duration": 0.14705874999999935,
          "durationTicks": 24,
          "midi": 42,
          "name": "F#2",
          "ticks": 7944,
          "time": 48.676446250000005,
          "velocity": 0.7874015748031497
        },
        {
          "duration": 0.14705874999999935,
          "durationTicks": 24,
          "midi": 42,
          "name": "F#2",
          "ticks": 7968,
          "time": 48.823505000000004,
          "velocity": 0.7874015748031497
        },
        {
          "duration": 0.07352937499999967,
          "durationTicks": 12,
          "midi": 36,
          "name": "C2",
          "ticks": 7992,
          "time": 48.970563750000004,
          "velocity": 0.7874015748031497
        },
        {
          "duration": 0.14705874999999935,
          "durationTicks": 24,
          "midi": 46,
          "name": "A#2",
          "ticks": 7992,
          "time": 48.970563750000004,
          "velocity": 0.7874015748031497
        },
        {
          "duration": 0.07352937499999967,
          "durationTicks": 12,
          "midi": 36,
          "name": "C2",
          "ticks": 8004,
          "time": 49.044093125,
          "velocity": 0.7874015748031497
        },
        {
          "duration": 0.14705874999999935,
          "durationTicks": 24,
          "midi": 42,
          "name": "F#2",
          "ticks": 8016,
          "time": 49.1176225,
          "velocity": 0.7874015748031497
        },
        {
          "duration": 0.14705874999999935,
          "durationTicks": 24,
          "midi": 36,
          "name": "C2",
          "ticks": 8016,
          "time": 49.1176225,
          "velocity": 0.7874015748031497
        },
        {
          "duration": 0.14705875000000646,
          "durationTicks": 24,
          "midi": 36,
          "name": "C2",
          "ticks": 8040,
          "time": 49.26468125,
          "velocity": 0.7874015748031497
        },
        {
          "duration": 0.14705875000000646,
          "durationTicks": 24,
          "midi": 42,
          "name": "F#2",
          "ticks": 8040,
          "time": 49.26468125,
          "velocity": 0.7874015748031497
        },
        {
          "duration": 0.07352937499999967,
          "durationTicks": 12,
          "midi": 38,
          "name": "D2",
          "ticks": 8064,
          "time": 49.41174000000001,
          "velocity": 0.7874015748031497
        },
        {
          "duration": 0.14705874999999935,
          "durationTicks": 24,
          "midi": 46,
          "name": "A#2",
          "ticks": 8064,
          "time": 49.41174000000001,
          "velocity": 0.7874015748031497
        },
        {
          "duration": 0.07352937499999967,
          "durationTicks": 12,
          "midi": 38,
          "name": "D2",
          "ticks": 8076,
          "time": 49.48526937500001,
          "velocity": 0.7874015748031497
        },
        {
          "duration": 0.14705874999999935,
          "durationTicks": 24,
          "midi": 42,
          "name": "F#2",
          "ticks": 8088,
          "time": 49.55879875000001,
          "velocity": 0.7874015748031497
        },
        {
          "duration": 0.14705874999999935,
          "durationTicks": 24,
          "midi": 46,
          "name": "A#2",
          "ticks": 8112,
          "time": 49.70585750000001,
          "velocity": 0.7874015748031497
        },
        {
          "duration": 0.14705874999999935,
          "durationTicks": 24,
          "midi": 42,
          "name": "F#2",
          "ticks": 8136,
          "time": 49.85291625000001,
          "velocity": 0.7874015748031497
        },
        {
          "duration": 0.07352937499999967,
          "durationTicks": 12,
          "midi": 38,
          "name": "D2",
          "ticks": 8160,
          "time": 49.999975000000006,
          "velocity": 0.7874015748031497
        },
        {
          "duration": 0.44117624999999805,
          "durationTicks": 72,
          "midi": 49,
          "name": "C#3",
          "ticks": 8160,
          "time": 49.999975000000006,
          "velocity": 0.7874015748031497
        },
        {
          "duration": 0.07352937499999967,
          "durationTicks": 12,
          "midi": 38,
          "name": "D2",
          "ticks": 8172,
          "time": 50.073504375000006,
          "velocity": 0.7874015748031497
        },
        {
          "duration": 0.14705874999999935,
          "durationTicks": 24,
          "midi": 36,
          "name": "C2",
          "ticks": 8184,
          "time": 50.147033750000006,
          "velocity": 0.7874015748031497
        },
        {
          "duration": 0.14705874999999935,
          "durationTicks": 24,
          "midi": 42,
          "name": "F#2",
          "ticks": 8184,
          "time": 50.147033750000006,
          "velocity": 0.7874015748031497
        },
        {
          "duration": 0.14705874999999935,
          "durationTicks": 24,
          "midi": 42,
          "name": "F#2",
          "ticks": 8208,
          "time": 50.294092500000005,
          "velocity": 0.7874015748031497
        },
        {
          "duration": 0.14705874999999935,
          "durationTicks": 24,
          "midi": 36,
          "name": "C2",
          "ticks": 8208,
          "time": 50.294092500000005,
          "velocity": 0.7874015748031497
        },
        {
          "duration": 0.44117624999999805,
          "durationTicks": 72,
          "midi": 49,
          "name": "C#3",
          "ticks": 8232,
          "time": 50.441151250000004,
          "velocity": 0.7874015748031497
        },
        {
          "duration": 0.07352937499999967,
          "durationTicks": 12,
          "midi": 38,
          "name": "D2",
          "ticks": 8232,
          "time": 50.441151250000004,
          "velocity": 0.7874015748031497
        },
        {
          "duration": 0.07352937499999967,
          "durationTicks": 12,
          "midi": 38,
          "name": "D2",
          "ticks": 8244,
          "time": 50.514680625000004,
          "velocity": 0.7874015748031497
        },
        {
          "duration": 0.14705874999999935,
          "durationTicks": 24,
          "midi": 36,
          "name": "C2",
          "ticks": 8256,
          "time": 50.588210000000004,
          "velocity": 0.7874015748031497
        },
        {
          "duration": 0.14705874999999935,
          "durationTicks": 24,
          "midi": 42,
          "name": "F#2",
          "ticks": 8256,
          "time": 50.588210000000004,
          "velocity": 0.7874015748031497
        },
        {
          "duration": 0.14705874999999935,
          "durationTicks": 24,
          "midi": 36,
          "name": "C2",
          "ticks": 8280,
          "time": 50.73526875,
          "velocity": 0.7874015748031497
        },
        {
          "duration": 0.14705874999999935,
          "durationTicks": 24,
          "midi": 42,
          "name": "F#2",
          "ticks": 8280,
          "time": 50.73526875,
          "velocity": 0.7874015748031497
        },
        {
          "duration": 0.07352937499999967,
          "durationTicks": 12,
          "midi": 38,
          "name": "D2",
          "ticks": 8304,
          "time": 50.8823275,
          "velocity": 0.7874015748031497
        },
        {
          "duration": 0.44117625000000515,
          "durationTicks": 72,
          "midi": 49,
          "name": "C#3",
          "ticks": 8304,
          "time": 50.8823275,
          "velocity": 0.7874015748031497
        },
        {
          "duration": 0.07352937500000678,
          "durationTicks": 12,
          "midi": 38,
          "name": "D2",
          "ticks": 8316,
          "time": 50.955856875,
          "velocity": 0.7874015748031497
        },
        {
          "duration": 0.14705874999999935,
          "durationTicks": 24,
          "midi": 42,
          "name": "F#2",
          "ticks": 8328,
          "time": 51.02938625000001,
          "velocity": 0.7874015748031497
        },
        {
          "duration": 0.14705874999999935,
          "durationTicks": 24,
          "midi": 36,
          "name": "C2",
          "ticks": 8328,
          "time": 51.02938625000001,
          "velocity": 0.7874015748031497
        },
        {
          "duration": 0.14705874999999935,
          "durationTicks": 24,
          "midi": 36,
          "name": "C2",
          "ticks": 8352,
          "time": 51.17644500000001,
          "velocity": 0.7874015748031497
        },
        {
          "duration": 0.14705874999999935,
          "durationTicks": 24,
          "midi": 42,
          "name": "F#2",
          "ticks": 8352,
          "time": 51.17644500000001,
          "velocity": 0.7874015748031497
        },
        {
          "duration": 0.44117624999999805,
          "durationTicks": 72,
          "midi": 49,
          "name": "C#3",
          "ticks": 8376,
          "time": 51.32350375000001,
          "velocity": 0.7874015748031497
        },
        {
          "duration": 0.07352937499999967,
          "durationTicks": 12,
          "midi": 38,
          "name": "D2",
          "ticks": 8376,
          "time": 51.32350375000001,
          "velocity": 0.7874015748031497
        },
        {
          "duration": 0.07352937499999967,
          "durationTicks": 12,
          "midi": 38,
          "name": "D2",
          "ticks": 8388,
          "time": 51.39703312500001,
          "velocity": 0.7874015748031497
        },
        {
          "duration": 0.14705874999999935,
          "durationTicks": 24,
          "midi": 36,
          "name": "C2",
          "ticks": 8400,
          "time": 51.47056250000001,
          "velocity": 0.7874015748031497
        },
        {
          "duration": 0.14705874999999935,
          "durationTicks": 24,
          "midi": 42,
          "name": "F#2",
          "ticks": 8400,
          "time": 51.47056250000001,
          "velocity": 0.7874015748031497
        },
        {
          "duration": 0.14705874999999935,
          "durationTicks": 24,
          "midi": 42,
          "name": "F#2",
          "ticks": 8424,
          "time": 51.617621250000006,
          "velocity": 0.7874015748031497
        },
        {
          "duration": 0.14705874999999935,
          "durationTicks": 24,
          "midi": 36,
          "name": "C2",
          "ticks": 8424,
          "time": 51.617621250000006,
          "velocity": 0.7874015748031497
        },
        {
          "duration": 0.14705874999999935,
          "durationTicks": 24,
          "midi": 46,
          "name": "A#2",
          "ticks": 8448,
          "time": 51.764680000000006,
          "velocity": 0.7874015748031497
        },
        {
          "duration": 0.07352937499999967,
          "durationTicks": 12,
          "midi": 38,
          "name": "D2",
          "ticks": 8448,
          "time": 51.764680000000006,
          "velocity": 0.7874015748031497
        },
        {
          "duration": 0.07352937499999967,
          "durationTicks": 12,
          "midi": 38,
          "name": "D2",
          "ticks": 8460,
          "time": 51.838209375000005,
          "velocity": 0.7874015748031497
        },
        {
          "duration": 0.14705874999999935,
          "durationTicks": 24,
          "midi": 36,
          "name": "C2",
          "ticks": 8472,
          "time": 51.911738750000005,
          "velocity": 0.7874015748031497
        },
        {
          "duration": 0.14705874999999935,
          "durationTicks": 24,
          "midi": 42,
          "name": "F#2",
          "ticks": 8472,
          "time": 51.911738750000005,
          "velocity": 0.7874015748031497
        },
        {
          "duration": 0.14705874999999935,
          "durationTicks": 24,
          "midi": 46,
          "name": "A#2",
          "ticks": 8496,
          "time": 52.058797500000004,
          "velocity": 0.7874015748031497
        },
        {
          "duration": 0.07352937499999967,
          "durationTicks": 12,
          "midi": 38,
          "name": "D2",
          "ticks": 8496,
          "time": 52.058797500000004,
          "velocity": 0.7874015748031497
        },
        {
          "duration": 0.07352937499999967,
          "durationTicks": 12,
          "midi": 38,
          "name": "D2",
          "ticks": 8508,
          "time": 52.132326875000004,
          "velocity": 0.7874015748031497
        },
        {
          "duration": 0.14705874999999935,
          "durationTicks": 24,
          "midi": 42,
          "name": "F#2",
          "ticks": 8520,
          "time": 52.205856250000004,
          "velocity": 0.7874015748031497
        },
        {
          "duration": 0.14705874999999935,
          "durationTicks": 24,
          "midi": 36,
          "name": "C2",
          "ticks": 8544,
          "time": 52.352915,
          "velocity": 0.7874015748031497
        },
        {
          "duration": 0.44117625000000515,
          "durationTicks": 72,
          "midi": 49,
          "name": "C#3",
          "ticks": 8544,
          "time": 52.352915,
          "velocity": 0.7874015748031497
        },
        {
          "duration": 0.14705874999999935,
          "durationTicks": 24,
          "midi": 46,
          "name": "A#2",
          "ticks": 8592,
          "time": 52.64703250000001,
          "velocity": 0.7874015748031497
        },
        {
          "duration": 0.14705874999999935,
          "durationTicks": 24,
          "midi": 38,
          "name": "D2",
          "ticks": 8592,
          "time": 52.64703250000001,
          "velocity": 0.7874015748031497
        },
        {
          "duration": 0.14705874999999935,
          "durationTicks": 24,
          "midi": 36,
          "name": "C2",
          "ticks": 8640,
          "time": 52.94115000000001,
          "velocity": 0.7874015748031497
        },
        {
          "duration": 0.14705874999999935,
          "durationTicks": 24,
          "midi": 46,
          "name": "A#2",
          "ticks": 8640,
          "time": 52.94115000000001,
          "velocity": 0.7874015748031497
        },
        {
          "duration": 0.14705874999999935,
          "durationTicks": 24,
          "midi": 36,
          "name": "C2",
          "ticks": 8664,
          "time": 53.08820875000001,
          "velocity": 0.7874015748031497
        },
        {
          "duration": 0.14705874999999935,
          "durationTicks": 24,
          "midi": 46,
          "name": "A#2",
          "ticks": 8688,
          "time": 53.235267500000006,
          "velocity": 0.7874015748031497
        },
        {
          "duration": 0.14705874999999935,
          "durationTicks": 24,
          "midi": 38,
          "name": "D2",
          "ticks": 8688,
          "time": 53.235267500000006,
          "velocity": 0.7874015748031497
        },
        {
          "duration": 0.14705874999999935,
          "durationTicks": 24,
          "midi": 46,
          "name": "A#2",
          "ticks": 8736,
          "time": 53.529385000000005,
          "velocity": 0.7874015748031497
        },
        {
          "duration": 0.14705874999999935,
          "durationTicks": 24,
          "midi": 36,
          "name": "C2",
          "ticks": 8736,
          "time": 53.529385000000005,
          "velocity": 0.7874015748031497
        },
        {
          "duration": 0.14705874999999935,
          "durationTicks": 24,
          "midi": 36,
          "name": "C2",
          "ticks": 8760,
          "time": 53.676443750000004,
          "velocity": 0.7874015748031497
        },
        {
          "duration": 0.14705874999999935,
          "durationTicks": 24,
          "midi": 46,
          "name": "A#2",
          "ticks": 8784,
          "time": 53.823502500000004,
          "velocity": 0.7874015748031497
        },
        {
          "duration": 0.14705874999999935,
          "durationTicks": 24,
          "midi": 38,
          "name": "D2",
          "ticks": 8784,
          "time": 53.823502500000004,
          "velocity": 0.7874015748031497
        },
        {
          "duration": 0.14705874999999935,
          "durationTicks": 24,
          "midi": 36,
          "name": "C2",
          "ticks": 8784,
          "time": 53.823502500000004,
          "velocity": 0.7874015748031497
        },
        {
          "duration": 0.14705874999999935,
          "durationTicks": 24,
          "midi": 36,
          "name": "C2",
          "ticks": 8808,
          "time": 53.97056125,
          "velocity": 0.7874015748031497
        },
        {
          "duration": 0.14705875000000646,
          "durationTicks": 24,
          "midi": 46,
          "name": "A#2",
          "ticks": 8832,
          "time": 54.11762,
          "velocity": 0.7874015748031497
        },
        {
          "duration": 0.14705875000000646,
          "durationTicks": 24,
          "midi": 36,
          "name": "C2",
          "ticks": 8832,
          "time": 54.11762,
          "velocity": 0.7874015748031497
        },
        {
          "duration": 0.14705874999999935,
          "durationTicks": 24,
          "midi": 36,
          "name": "C2",
          "ticks": 8856,
          "time": 54.26467875000001,
          "velocity": 0.7874015748031497
        },
        {
          "duration": 0.14705874999999935,
          "durationTicks": 24,
          "midi": 46,
          "name": "A#2",
          "ticks": 8880,
          "time": 54.41173750000001,
          "velocity": 0.7874015748031497
        },
        {
          "duration": 0.14705874999999935,
          "durationTicks": 24,
          "midi": 38,
          "name": "D2",
          "ticks": 8880,
          "time": 54.41173750000001,
          "velocity": 0.7874015748031497
        },
        {
          "duration": 0.14705874999999935,
          "durationTicks": 24,
          "midi": 46,
          "name": "A#2",
          "ticks": 8928,
          "time": 54.70585500000001,
          "velocity": 0.7874015748031497
        },
        {
          "duration": 0.14705874999999935,
          "durationTicks": 24,
          "midi": 36,
          "name": "C2",
          "ticks": 8928,
          "time": 54.70585500000001,
          "velocity": 0.7874015748031497
        },
        {
          "duration": 0.14705874999999935,
          "durationTicks": 24,
          "midi": 46,
          "name": "A#2",
          "ticks": 8976,
          "time": 54.999972500000005,
          "velocity": 0.7874015748031497
        },
        {
          "duration": 0.14705874999999935,
          "durationTicks": 24,
          "midi": 38,
          "name": "D2",
          "ticks": 8976,
          "time": 54.999972500000005,
          "velocity": 0.7874015748031497
        },
        {
          "duration": 0.14705874999999935,
          "durationTicks": 24,
          "midi": 36,
          "name": "C2",
          "ticks": 9024,
          "time": 55.294090000000004,
          "velocity": 0.7874015748031497
        },
        {
          "duration": 0.14705874999999935,
          "durationTicks": 24,
          "midi": 46,
          "name": "A#2",
          "ticks": 9024,
          "time": 55.294090000000004,
          "velocity": 0.7874015748031497
        },
        {
          "duration": 0.14705874999999935,
          "durationTicks": 24,
          "midi": 36,
          "name": "C2",
          "ticks": 9048,
          "time": 55.44114875,
          "velocity": 0.7874015748031497
        },
        {
          "duration": 0.14705875000000646,
          "durationTicks": 24,
          "midi": 46,
          "name": "A#2",
          "ticks": 9072,
          "time": 55.5882075,
          "velocity": 0.7874015748031497
        },
        {
          "duration": 0.14705875000000646,
          "durationTicks": 24,
          "midi": 38,
          "name": "D2",
          "ticks": 9072,
          "time": 55.5882075,
          "velocity": 0.7874015748031497
        },
        {
          "duration": 0.07352937499999967,
          "durationTicks": 12,
          "midi": 36,
          "name": "C2",
          "ticks": 9120,
          "time": 55.88232500000001,
          "velocity": 0.7874015748031497
        },
        {
          "duration": 0.14705874999999935,
          "durationTicks": 24,
          "midi": 46,
          "name": "A#2",
          "ticks": 9120,
          "time": 55.88232500000001,
          "velocity": 0.7874015748031497
        },
        {
          "duration": 0.07352937499999967,
          "durationTicks": 12,
          "midi": 36,
          "name": "C2",
          "ticks": 9132,
          "time": 55.95585437500001,
          "velocity": 0.7874015748031497
        },
        {
          "duration": 0.14705874999999935,
          "durationTicks": 24,
          "midi": 36,
          "name": "C2",
          "ticks": 9144,
          "time": 56.02938375000001,
          "velocity": 0.7874015748031497
        },
        {
          "duration": 0.14705874999999935,
          "durationTicks": 24,
          "midi": 36,
          "name": "C2",
          "ticks": 9168,
          "time": 56.17644250000001,
          "velocity": 0.7874015748031497
        },
        {
          "duration": 0.14705874999999935,
          "durationTicks": 24,
          "midi": 38,
          "name": "D2",
          "ticks": 9168,
          "time": 56.17644250000001,
          "velocity": 0.7874015748031497
        },
        {
          "duration": 0.14705874999999935,
          "durationTicks": 24,
          "midi": 46,
          "name": "A#2",
          "ticks": 9168,
          "time": 56.17644250000001,
          "velocity": 0.7874015748031497
        },
        {
          "duration": 0.14705874999999935,
          "durationTicks": 24,
          "midi": 36,
          "name": "C2",
          "ticks": 9192,
          "time": 56.32350125000001,
          "velocity": 0.7874015748031497
        },
        {
          "duration": 0.14705874999999935,
          "durationTicks": 24,
          "midi": 46,
          "name": "A#2",
          "ticks": 9216,
          "time": 56.470560000000006,
          "velocity": 0.7874015748031497
        },
        {
          "duration": 0.14705874999999935,
          "durationTicks": 24,
          "midi": 36,
          "name": "C2",
          "ticks": 9216,
          "time": 56.470560000000006,
          "velocity": 0.7874015748031497
        },
        {
          "duration": 0.14705874999999935,
          "durationTicks": 24,
          "midi": 46,
          "name": "A#2",
          "ticks": 9264,
          "time": 56.764677500000005,
          "velocity": 0.7874015748031497
        },
        {
          "duration": 0.14705874999999935,
          "durationTicks": 24,
          "midi": 38,
          "name": "D2",
          "ticks": 9264,
          "time": 56.764677500000005,
          "velocity": 0.7874015748031497
        },
        {
          "duration": 0.44117625000000515,
          "durationTicks": 72,
          "midi": 49,
          "name": "C#3",
          "ticks": 9312,
          "time": 57.058795,
          "velocity": 0.7874015748031497
        },
        {
          "duration": 0.14705874999999935,
          "durationTicks": 24,
          "midi": 36,
          "name": "C2",
          "ticks": 9312,
          "time": 57.058795,
          "velocity": 0.7874015748031497
        },
        {
          "duration": 0.14705874999999935,
          "durationTicks": 24,
          "midi": 46,
          "name": "A#2",
          "ticks": 9360,
          "time": 57.35291250000001,
          "velocity": 0.7874015748031497
        },
        {
          "duration": 0.14705874999999935,
          "durationTicks": 24,
          "midi": 38,
          "name": "D2",
          "ticks": 9360,
          "time": 57.35291250000001,
          "velocity": 0.7874015748031497
        },
        {
          "duration": 0.14705874999999935,
          "durationTicks": 24,
          "midi": 36,
          "name": "C2",
          "ticks": 9408,
          "time": 57.64703000000001,
          "velocity": 0.7874015748031497
        },
        {
          "duration": 0.14705874999999935,
          "durationTicks": 24,
          "midi": 46,
          "name": "A#2",
          "ticks": 9408,
          "time": 57.64703000000001,
          "velocity": 0.7874015748031497
        },
        {
          "duration": 0.14705874999999935,
          "durationTicks": 24,
          "midi": 36,
          "name": "C2",
          "ticks": 9432,
          "time": 57.79408875000001,
          "velocity": 0.7874015748031497
        },
        {
          "duration": 0.14705874999999935,
          "durationTicks": 24,
          "midi": 46,
          "name": "A#2",
          "ticks": 9456,
          "time": 57.94114750000001,
          "velocity": 0.7874015748031497
        },
        {
          "duration": 0.14705874999999935,
          "durationTicks": 24,
          "midi": 38,
          "name": "D2",
          "ticks": 9456,
          "time": 57.94114750000001,
          "velocity": 0.7874015748031497
        },
        {
          "duration": 0.14705874999999935,
          "durationTicks": 24,
          "midi": 46,
          "name": "A#2",
          "ticks": 9504,
          "time": 58.235265000000005,
          "velocity": 0.7874015748031497
        },
        {
          "duration": 0.14705874999999935,
          "durationTicks": 24,
          "midi": 36,
          "name": "C2",
          "ticks": 9504,
          "time": 58.235265000000005,
          "velocity": 0.7874015748031497
        },
        {
          "duration": 0.14705874999999935,
          "durationTicks": 24,
          "midi": 36,
          "name": "C2",
          "ticks": 9528,
          "time": 58.382323750000005,
          "velocity": 0.7874015748031497
        },
        {
          "duration": 0.14705874999999935,
          "durationTicks": 24,
          "midi": 46,
          "name": "A#2",
          "ticks": 9552,
          "time": 58.529382500000004,
          "velocity": 0.7874015748031497
        },
        {
          "duration": 0.14705874999999935,
          "durationTicks": 24,
          "midi": 38,
          "name": "D2",
          "ticks": 9552,
          "time": 58.529382500000004,
          "velocity": 0.7874015748031497
        },
        {
          "duration": 0.14705874999999935,
          "durationTicks": 24,
          "midi": 36,
          "name": "C2",
          "ticks": 9552,
          "time": 58.529382500000004,
          "velocity": 0.7874015748031497
        },
        {
          "duration": 0.14705875000000646,
          "durationTicks": 24,
          "midi": 36,
          "name": "C2",
          "ticks": 9576,
          "time": 58.67644125,
          "velocity": 0.7874015748031497
        },
        {
          "duration": 0.14705874999999935,
          "durationTicks": 24,
          "midi": 46,
          "name": "A#2",
          "ticks": 9600,
          "time": 58.82350000000001,
          "velocity": 0.7874015748031497
        },
        {
          "duration": 0.14705874999999935,
          "durationTicks": 24,
          "midi": 36,
          "name": "C2",
          "ticks": 9600,
          "time": 58.82350000000001,
          "velocity": 0.7874015748031497
        },
        {
          "duration": 0.14705874999999935,
          "durationTicks": 24,
          "midi": 36,
          "name": "C2",
          "ticks": 9624,
          "time": 58.97055875000001,
          "velocity": 0.7874015748031497
        },
        {
          "duration": 0.14705874999999935,
          "durationTicks": 24,
          "midi": 38,
          "name": "D2",
          "ticks": 9648,
          "time": 59.11761750000001,
          "velocity": 0.7874015748031497
        },
        {
          "duration": 0.14705874999999935,
          "durationTicks": 24,
          "midi": 46,
          "name": "A#2",
          "ticks": 9648,
          "time": 59.11761750000001,
          "velocity": 0.7874015748031497
        },
        {
          "duration": 0.14705874999999935,
          "durationTicks": 24,
          "midi": 46,
          "name": "A#2",
          "ticks": 9696,
          "time": 59.41173500000001,
          "velocity": 0.7874015748031497
        },
        {
          "duration": 0.14705874999999935,
          "durationTicks": 24,
          "midi": 36,
          "name": "C2",
          "ticks": 9696,
          "time": 59.41173500000001,
          "velocity": 0.7874015748031497
        },
        {
          "duration": 0.14705874999999935,
          "durationTicks": 24,
          "midi": 38,
          "name": "D2",
          "ticks": 9744,
          "time": 59.705852500000006,
          "velocity": 0.7874015748031497
        },
        {
          "duration": 0.14705874999999935,
          "durationTicks": 24,
          "midi": 46,
          "name": "A#2",
          "ticks": 9744,
          "time": 59.705852500000006,
          "velocity": 0.7874015748031497
        },
        {
          "duration": 0.14705874999999935,
          "durationTicks": 24,
          "midi": 36,
          "name": "C2",
          "ticks": 9792,
          "time": 59.999970000000005,
          "velocity": 0.7874015748031497
        },
        {
          "duration": 0.14705874999999935,
          "durationTicks": 24,
          "midi": 46,
          "name": "A#2",
          "ticks": 9792,
          "time": 59.999970000000005,
          "velocity": 0.7874015748031497
        },
        {
          "duration": 0.14705874999999935,
          "durationTicks": 24,
          "midi": 36,
          "name": "C2",
          "ticks": 9816,
          "time": 60.147028750000004,
          "velocity": 0.7874015748031497
        },
        {
          "duration": 0.14705875000000646,
          "durationTicks": 24,
          "midi": 46,
          "name": "A#2",
          "ticks": 9840,
          "time": 60.2940875,
          "velocity": 0.7874015748031497
        },
        {
          "duration": 0.14705875000000646,
          "durationTicks": 24,
          "midi": 38,
          "name": "D2",
          "ticks": 9840,
          "time": 60.2940875,
          "velocity": 0.7874015748031497
        },
        {
          "duration": 0.07352937499999967,
          "durationTicks": 12,
          "midi": 36,
          "name": "C2",
          "ticks": 9888,
          "time": 60.58820500000001,
          "velocity": 0.7874015748031497
        },
        {
          "duration": 0.14705874999999935,
          "durationTicks": 24,
          "midi": 46,
          "name": "A#2",
          "ticks": 9888,
          "time": 60.58820500000001,
          "velocity": 0.7874015748031497
        },
        {
          "duration": 0.07352937499999967,
          "durationTicks": 12,
          "midi": 36,
          "name": "C2",
          "ticks": 9900,
          "time": 60.66173437500001,
          "velocity": 0.7874015748031497
        },
        {
          "duration": 0.14705874999999935,
          "durationTicks": 24,
          "midi": 36,
          "name": "C2",
          "ticks": 9912,
          "time": 60.73526375000001,
          "velocity": 0.7874015748031497
        },
        {
          "duration": 0.14705874999999935,
          "durationTicks": 24,
          "midi": 46,
          "name": "A#2",
          "ticks": 9936,
          "time": 60.88232250000001,
          "velocity": 0.7874015748031497
        },
        {
          "duration": 0.14705874999999935,
          "durationTicks": 24,
          "midi": 38,
          "name": "D2",
          "ticks": 9936,
          "time": 60.88232250000001,
          "velocity": 0.7874015748031497
        },
        {
          "duration": 0.14705874999999935,
          "durationTicks": 24,
          "midi": 36,
          "name": "C2",
          "ticks": 9936,
          "time": 60.88232250000001,
          "velocity": 0.7874015748031497
        },
        {
          "duration": 0.14705874999999935,
          "durationTicks": 24,
          "midi": 36,
          "name": "C2",
          "ticks": 9960,
          "time": 61.02938125000001,
          "velocity": 0.7874015748031497
        },
        {
          "duration": 0.14705874999999935,
          "durationTicks": 24,
          "midi": 36,
          "name": "C2",
          "ticks": 9984,
          "time": 61.17644000000001,
          "velocity": 0.7874015748031497
        },
        {
          "duration": 0.14705874999999935,
          "durationTicks": 24,
          "midi": 46,
          "name": "A#2",
          "ticks": 9984,
          "time": 61.17644000000001,
          "velocity": 0.7874015748031497
        },
        {
          "duration": 0.14705874999999935,
          "durationTicks": 24,
          "midi": 46,
          "name": "A#2",
          "ticks": 10032,
          "time": 61.470557500000005,
          "velocity": 0.7874015748031497
        },
        {
          "duration": 0.14705874999999935,
          "durationTicks": 24,
          "midi": 38,
          "name": "D2",
          "ticks": 10032,
          "time": 61.470557500000005,
          "velocity": 0.7874015748031497
        },
        {
          "duration": 0.14705874999999935,
          "durationTicks": 24,
          "midi": 36,
          "name": "C2",
          "ticks": 10080,
          "time": 61.764675000000004,
          "velocity": 0.7874015748031497
        },
        {
          "duration": 0.44117625000000515,
          "durationTicks": 72,
          "midi": 49,
          "name": "C#3",
          "ticks": 10080,
          "time": 61.764675000000004,
          "velocity": 0.7874015748031497
        },
        {
          "duration": 0.14705874999999935,
          "durationTicks": 24,
          "midi": 38,
          "name": "D2",
          "ticks": 10128,
          "time": 62.05879250000001,
          "velocity": 0.7874015748031497
        },
        {
          "duration": 0.14705874999999935,
          "durationTicks": 24,
          "midi": 46,
          "name": "A#2",
          "ticks": 10128,
          "time": 62.05879250000001,
          "velocity": 0.7874015748031497
        },
        {
          "duration": 0.14705874999999935,
          "durationTicks": 24,
          "midi": 46,
          "name": "A#2",
          "ticks": 10176,
          "time": 62.35291000000001,
          "velocity": 0.7874015748031497
        },
        {
          "duration": 0.14705874999999935,
          "durationTicks": 24,
          "midi": 36,
          "name": "C2",
          "ticks": 10176,
          "time": 62.35291000000001,
          "velocity": 0.7874015748031497
        },
        {
          "duration": 0.14705874999999935,
          "durationTicks": 24,
          "midi": 36,
          "name": "C2",
          "ticks": 10200,
          "time": 62.49996875000001,
          "velocity": 0.7874015748031497
        },
        {
          "duration": 0.14705874999999935,
          "durationTicks": 24,
          "midi": 46,
          "name": "A#2",
          "ticks": 10224,
          "time": 62.64702750000001,
          "velocity": 0.7874015748031497
        },
        {
          "duration": 0.14705874999999935,
          "durationTicks": 24,
          "midi": 38,
          "name": "D2",
          "ticks": 10224,
          "time": 62.64702750000001,
          "velocity": 0.7874015748031497
        },
        {
          "duration": 0.14705874999999935,
          "durationTicks": 24,
          "midi": 46,
          "name": "A#2",
          "ticks": 10272,
          "time": 62.941145000000006,
          "velocity": 0.7874015748031497
        },
        {
          "duration": 0.14705874999999935,
          "durationTicks": 24,
          "midi": 36,
          "name": "C2",
          "ticks": 10272,
          "time": 62.941145000000006,
          "velocity": 0.7874015748031497
        },
        {
          "duration": 0.14705874999999935,
          "durationTicks": 24,
          "midi": 36,
          "name": "C2",
          "ticks": 10296,
          "time": 63.088203750000005,
          "velocity": 0.7874015748031497
        },
        {
          "duration": 0.14705874999999935,
          "durationTicks": 24,
          "midi": 46,
          "name": "A#2",
          "ticks": 10320,
          "time": 63.235262500000005,
          "velocity": 0.7874015748031497
        },
        {
          "duration": 0.14705874999999935,
          "durationTicks": 24,
          "midi": 38,
          "name": "D2",
          "ticks": 10320,
          "time": 63.235262500000005,
          "velocity": 0.7874015748031497
        },
        {
          "duration": 0.14705874999999935,
          "durationTicks": 24,
          "midi": 36,
          "name": "C2",
          "ticks": 10320,
          "time": 63.235262500000005,
          "velocity": 0.7874015748031497
        },
        {
          "duration": 0.14705874999999935,
          "durationTicks": 24,
          "midi": 36,
          "name": "C2",
          "ticks": 10344,
          "time": 63.382321250000004,
          "velocity": 0.7874015748031497
        },
        {
          "duration": 0.14705875000000646,
          "durationTicks": 24,
          "midi": 46,
          "name": "A#2",
          "ticks": 10368,
          "time": 63.52938,
          "velocity": 0.7874015748031497
        },
        {
          "duration": 0.14705875000000646,
          "durationTicks": 24,
          "midi": 36,
          "name": "C2",
          "ticks": 10368,
          "time": 63.52938,
          "velocity": 0.7874015748031497
        },
        {
          "duration": 0.14705874999999935,
          "durationTicks": 24,
          "midi": 36,
          "name": "C2",
          "ticks": 10392,
          "time": 63.67643875000001,
          "velocity": 0.7874015748031497
        },
        {
          "duration": 0.14705874999999935,
          "durationTicks": 24,
          "midi": 38,
          "name": "D2",
          "ticks": 10416,
          "time": 63.82349750000001,
          "velocity": 0.7874015748031497
        },
        {
          "duration": 0.14705874999999935,
          "durationTicks": 24,
          "midi": 46,
          "name": "A#2",
          "ticks": 10416,
          "time": 63.82349750000001,
          "velocity": 0.7874015748031497
        },
        {
          "duration": 0.14705874999999935,
          "durationTicks": 24,
          "midi": 46,
          "name": "A#2",
          "ticks": 10464,
          "time": 64.117615,
          "velocity": 0.7874015748031497
        },
        {
          "duration": 0.14705874999999935,
          "durationTicks": 24,
          "midi": 36,
          "name": "C2",
          "ticks": 10464,
          "time": 64.117615,
          "velocity": 0.7874015748031497
        },
        {
          "duration": 0.14705874999999935,
          "durationTicks": 24,
          "midi": 46,
          "name": "A#2",
          "ticks": 10512,
          "time": 64.41173250000001,
          "velocity": 0.7874015748031497
        },
        {
          "duration": 0.14705874999999935,
          "durationTicks": 24,
          "midi": 38,
          "name": "D2",
          "ticks": 10512,
          "time": 64.41173250000001,
          "velocity": 0.7874015748031497
        },
        {
          "duration": 0.14705874999999935,
          "durationTicks": 24,
          "midi": 36,
          "name": "C2",
          "ticks": 10560,
          "time": 64.70585000000001,
          "velocity": 0.7874015748031497
        },
        {
          "duration": 0.14705874999999935,
          "durationTicks": 24,
          "midi": 46,
          "name": "A#2",
          "ticks": 10560,
          "time": 64.70585000000001,
          "velocity": 0.7874015748031497
        },
        {
          "duration": 0.14705874999999935,
          "durationTicks": 24,
          "midi": 36,
          "name": "C2",
          "ticks": 10584,
          "time": 64.85290875000001,
          "velocity": 0.7874015748031497
        },
        {
          "duration": 0.14705874999999935,
          "durationTicks": 24,
          "midi": 38,
          "name": "D2",
          "ticks": 10608,
          "time": 64.99996750000001,
          "velocity": 0.7874015748031497
        },
        {
          "duration": 0.14705874999999935,
          "durationTicks": 24,
          "midi": 46,
          "name": "A#2",
          "ticks": 10608,
          "time": 64.99996750000001,
          "velocity": 0.7874015748031497
        },
        {
          "duration": 0.14705874999999935,
          "durationTicks": 24,
          "midi": 46,
          "name": "A#2",
          "ticks": 10656,
          "time": 65.29408500000001,
          "velocity": 0.7874015748031497
        },
        {
          "duration": 0.07352937499999257,
          "durationTicks": 12,
          "midi": 36,
          "name": "C2",
          "ticks": 10656,
          "time": 65.29408500000001,
          "velocity": 0.7874015748031497
        },
        {
          "duration": 0.07352937500000678,
          "durationTicks": 12,
          "midi": 36,
          "name": "C2",
          "ticks": 10668,
          "time": 65.367614375,
          "velocity": 0.7874015748031497
        },
        {
          "duration": 0.14705874999999935,
          "durationTicks": 24,
          "midi": 36,
          "name": "C2",
          "ticks": 10680,
          "time": 65.44114375000001,
          "velocity": 0.7874015748031497
        },
        {
          "duration": 0.14705874999999935,
          "durationTicks": 24,
          "midi": 46,
          "name": "A#2",
          "ticks": 10704,
          "time": 65.58820250000001,
          "velocity": 0.7874015748031497
        },
        {
          "duration": 0.14705874999999935,
          "durationTicks": 24,
          "midi": 38,
          "name": "D2",
          "ticks": 10704,
          "time": 65.58820250000001,
          "velocity": 0.7874015748031497
        },
        {
          "duration": 0.14705874999999935,
          "durationTicks": 24,
          "midi": 36,
          "name": "C2",
          "ticks": 10704,
          "time": 65.58820250000001,
          "velocity": 0.7874015748031497
        },
        {
          "duration": 0.14705874999999935,
          "durationTicks": 24,
          "midi": 36,
          "name": "C2",
          "ticks": 10728,
          "time": 65.73526125000001,
          "velocity": 0.7874015748031497
        },
        {
          "duration": 0.14705874999999935,
          "durationTicks": 24,
          "midi": 36,
          "name": "C2",
          "ticks": 10752,
          "time": 65.88232,
          "velocity": 0.7874015748031497
        },
        {
          "duration": 0.14705874999999935,
          "durationTicks": 24,
          "midi": 46,
          "name": "A#2",
          "ticks": 10752,
          "time": 65.88232,
          "velocity": 0.7874015748031497
        },
        {
          "duration": 0.14705874999999935,
          "durationTicks": 24,
          "midi": 46,
          "name": "A#2",
          "ticks": 10800,
          "time": 66.1764375,
          "velocity": 0.7874015748031497
        },
        {
          "duration": 0.14705874999999935,
          "durationTicks": 24,
          "midi": 38,
          "name": "D2",
          "ticks": 10800,
          "time": 66.1764375,
          "velocity": 0.7874015748031497
        },
        {
          "duration": 0.14705874999999935,
          "durationTicks": 24,
          "midi": 36,
          "name": "C2",
          "ticks": 10848,
          "time": 66.470555,
          "velocity": 0.7874015748031497
        },
        {
          "duration": 0.44117624999999805,
          "durationTicks": 72,
          "midi": 49,
          "name": "C#3",
          "ticks": 10848,
          "time": 66.470555,
          "velocity": 0.7874015748031497
        },
        {
          "duration": 0.14705874999999935,
          "durationTicks": 24,
          "midi": 46,
          "name": "A#2",
          "ticks": 10896,
          "time": 66.7646725,
          "velocity": 0.7874015748031497
        },
        {
          "duration": 0.14705874999999935,
          "durationTicks": 24,
          "midi": 38,
          "name": "D2",
          "ticks": 10896,
          "time": 66.7646725,
          "velocity": 0.7874015748031497
        },
        {
          "duration": 0.14705874999999935,
          "durationTicks": 24,
          "midi": 36,
          "name": "C2",
          "ticks": 10944,
          "time": 67.05879,
          "velocity": 0.7874015748031497
        },
        {
          "duration": 0.14705874999999935,
          "durationTicks": 24,
          "midi": 46,
          "name": "A#2",
          "ticks": 10944,
          "time": 67.05879,
          "velocity": 0.7874015748031497
        },
        {
          "duration": 0.14705874999999935,
          "durationTicks": 24,
          "midi": 36,
          "name": "C2",
          "ticks": 10968,
          "time": 67.20584875,
          "velocity": 0.7874015748031497
        },
        {
          "duration": 0.14705875000001356,
          "durationTicks": 24,
          "midi": 46,
          "name": "A#2",
          "ticks": 10992,
          "time": 67.3529075,
          "velocity": 0.7874015748031497
        },
        {
          "duration": 0.14705875000001356,
          "durationTicks": 24,
          "midi": 38,
          "name": "D2",
          "ticks": 10992,
          "time": 67.3529075,
          "velocity": 0.7874015748031497
        },
        {
          "duration": 0.14705874999999935,
          "durationTicks": 24,
          "midi": 36,
          "name": "C2",
          "ticks": 11040,
          "time": 67.64702500000001,
          "velocity": 0.7874015748031497
        },
        {
          "duration": 0.14705874999999935,
          "durationTicks": 24,
          "midi": 46,
          "name": "A#2",
          "ticks": 11040,
          "time": 67.64702500000001,
          "velocity": 0.7874015748031497
        },
        {
          "duration": 0.14705874999999935,
          "durationTicks": 24,
          "midi": 36,
          "name": "C2",
          "ticks": 11064,
          "time": 67.79408375000001,
          "velocity": 0.7874015748031497
        },
        {
          "duration": 0.14705874999999935,
          "durationTicks": 24,
          "midi": 46,
          "name": "A#2",
          "ticks": 11088,
          "time": 67.94114250000001,
          "velocity": 0.7874015748031497
        },
        {
          "duration": 0.14705874999999935,
          "durationTicks": 24,
          "midi": 38,
          "name": "D2",
          "ticks": 11088,
          "time": 67.94114250000001,
          "velocity": 0.7874015748031497
        },
        {
          "duration": 0.14705874999999935,
          "durationTicks": 24,
          "midi": 36,
          "name": "C2",
          "ticks": 11088,
          "time": 67.94114250000001,
          "velocity": 0.7874015748031497
        },
        {
          "duration": 0.14705874999999935,
          "durationTicks": 24,
          "midi": 36,
          "name": "C2",
          "ticks": 11112,
          "time": 68.08820125000001,
          "velocity": 0.7874015748031497
        },
        {
          "duration": 0.14705874999999935,
          "durationTicks": 24,
          "midi": 36,
          "name": "C2",
          "ticks": 11136,
          "time": 68.23526000000001,
          "velocity": 0.7874015748031497
        },
        {
          "duration": 0.14705874999999935,
          "durationTicks": 24,
          "midi": 46,
          "name": "A#2",
          "ticks": 11136,
          "time": 68.23526000000001,
          "velocity": 0.7874015748031497
        },
        {
          "duration": 0.14705874999999935,
          "durationTicks": 24,
          "midi": 36,
          "name": "C2",
          "ticks": 11160,
          "time": 68.38231875000001,
          "velocity": 0.7874015748031497
        },
        {
          "duration": 0.14705874999999935,
          "durationTicks": 24,
          "midi": 46,
          "name": "A#2",
          "ticks": 11184,
          "time": 68.52937750000001,
          "velocity": 0.7874015748031497
        },
        {
          "duration": 0.14705874999999935,
          "durationTicks": 24,
          "midi": 38,
          "name": "D2",
          "ticks": 11184,
          "time": 68.52937750000001,
          "velocity": 0.7874015748031497
        },
        {
          "duration": 0.14705874999999935,
          "durationTicks": 24,
          "midi": 36,
          "name": "C2",
          "ticks": 11232,
          "time": 68.82349500000001,
          "velocity": 0.7874015748031497
        },
        {
          "duration": 0.14705874999999935,
          "durationTicks": 24,
          "midi": 46,
          "name": "A#2",
          "ticks": 11232,
          "time": 68.82349500000001,
          "velocity": 0.7874015748031497
        },
        {
          "duration": 0.14705874999999935,
          "durationTicks": 24,
          "midi": 46,
          "name": "A#2",
          "ticks": 11280,
          "time": 69.1176125,
          "velocity": 0.7874015748031497
        },
        {
          "duration": 0.14705874999999935,
          "durationTicks": 24,
          "midi": 38,
          "name": "D2",
          "ticks": 11280,
          "time": 69.1176125,
          "velocity": 0.7874015748031497
        },
        {
          "duration": 0.14705874999999935,
          "durationTicks": 24,
          "midi": 46,
          "name": "A#2",
          "ticks": 11328,
          "time": 69.41173,
          "velocity": 0.7874015748031497
        },
        {
          "duration": 0.14705874999999935,
          "durationTicks": 24,
          "midi": 36,
          "name": "C2",
          "ticks": 11328,
          "time": 69.41173,
          "velocity": 0.7874015748031497
        },
        {
          "duration": 0.14705874999999935,
          "durationTicks": 24,
          "midi": 36,
          "name": "C2",
          "ticks": 11352,
          "time": 69.55878875,
          "velocity": 0.7874015748031497
        },
        {
          "duration": 0.14705874999999935,
          "durationTicks": 24,
          "midi": 46,
          "name": "A#2",
          "ticks": 11376,
          "time": 69.7058475,
          "velocity": 0.7874015748031497
        },
        {
          "duration": 0.14705874999999935,
          "durationTicks": 24,
          "midi": 38,
          "name": "D2",
          "ticks": 11376,
          "time": 69.7058475,
          "velocity": 0.7874015748031497
        },
        {
          "duration": 0.07352937500000678,
          "durationTicks": 12,
          "midi": 36,
          "name": "C2",
          "ticks": 11424,
          "time": 69.999965,
          "velocity": 0.7874015748031497
        },
        {
          "duration": 0.14705874999999935,
          "durationTicks": 24,
          "midi": 46,
          "name": "A#2",
          "ticks": 11424,
          "time": 69.999965,
          "velocity": 0.7874015748031497
        },
        {
          "duration": 0.07352937499999257,
          "durationTicks": 12,
          "midi": 36,
          "name": "C2",
          "ticks": 11436,
          "time": 70.07349437500001,
          "velocity": 0.7874015748031497
        },
        {
          "duration": 0.14705874999999935,
          "durationTicks": 24,
          "midi": 36,
          "name": "C2",
          "ticks": 11448,
          "time": 70.14702375,
          "velocity": 0.7874015748031497
        },
        {
          "duration": 0.14705874999999935,
          "durationTicks": 24,
          "midi": 46,
          "name": "A#2",
          "ticks": 11472,
          "time": 70.2940825,
          "velocity": 0.7874015748031497
        },
        {
          "duration": 0.14705874999999935,
          "durationTicks": 24,
          "midi": 38,
          "name": "D2",
          "ticks": 11472,
          "time": 70.2940825,
          "velocity": 0.7874015748031497
        },
        {
          "duration": 0.14705874999999935,
          "durationTicks": 24,
          "midi": 36,
          "name": "C2",
          "ticks": 11472,
          "time": 70.2940825,
          "velocity": 0.7874015748031497
        },
        {
          "duration": 0.14705874999999935,
          "durationTicks": 24,
          "midi": 36,
          "name": "C2",
          "ticks": 11496,
          "time": 70.44114125,
          "velocity": 0.7874015748031497
        },
        {
          "duration": 0.14705875000001356,
          "durationTicks": 24,
          "midi": 46,
          "name": "A#2",
          "ticks": 11520,
          "time": 70.5882,
          "velocity": 0.7874015748031497
        },
        {
          "duration": 0.14705875000001356,
          "durationTicks": 24,
          "midi": 36,
          "name": "C2",
          "ticks": 11520,
          "time": 70.5882,
          "velocity": 0.7874015748031497
        },
        {
          "duration": 0.14705874999999935,
          "durationTicks": 24,
          "midi": 38,
          "name": "D2",
          "ticks": 11568,
          "time": 70.88231750000001,
          "velocity": 0.7874015748031497
        },
        {
          "duration": 0.14705874999999935,
          "durationTicks": 24,
          "midi": 46,
          "name": "A#2",
          "ticks": 11568,
          "time": 70.88231750000001,
          "velocity": 0.7874015748031497
        },
        {
          "duration": 0.44117624999999805,
          "durationTicks": 72,
          "midi": 49,
          "name": "C#3",
          "ticks": 11616,
          "time": 71.17643500000001,
          "velocity": 0.7874015748031497
        },
        {
          "duration": 0.14705874999999935,
          "durationTicks": 24,
          "midi": 36,
          "name": "C2",
          "ticks": 11616,
          "time": 71.17643500000001,
          "velocity": 0.7874015748031497
        },
        {
          "duration": 0.14705874999999935,
          "durationTicks": 24,
          "midi": 46,
          "name": "A#2",
          "ticks": 11664,
          "time": 71.47055250000001,
          "velocity": 0.7874015748031497
        },
        {
          "duration": 0.14705874999999935,
          "durationTicks": 24,
          "midi": 38,
          "name": "D2",
          "ticks": 11664,
          "time": 71.47055250000001,
          "velocity": 0.7874015748031497
        },
        {
          "duration": 0.14705874999999935,
          "durationTicks": 24,
          "midi": 36,
          "name": "C2",
          "ticks": 11712,
          "time": 71.76467000000001,
          "velocity": 0.7874015748031497
        },
        {
          "duration": 0.14705874999999935,
          "durationTicks": 24,
          "midi": 46,
          "name": "A#2",
          "ticks": 11712,
          "time": 71.76467000000001,
          "velocity": 0.7874015748031497
        },
        {
          "duration": 0.14705874999999935,
          "durationTicks": 24,
          "midi": 36,
          "name": "C2",
          "ticks": 11736,
          "time": 71.91172875000001,
          "velocity": 0.7874015748031497
        },
        {
          "duration": 0.14705874999999935,
          "durationTicks": 24,
          "midi": 38,
          "name": "D2",
          "ticks": 11760,
          "time": 72.05878750000001,
          "velocity": 0.7874015748031497
        },
        {
          "duration": 0.14705874999999935,
          "durationTicks": 24,
          "midi": 46,
          "name": "A#2",
          "ticks": 11760,
          "time": 72.05878750000001,
          "velocity": 0.7874015748031497
        },
        {
          "duration": 0.14705874999999935,
          "durationTicks": 24,
          "midi": 36,
          "name": "C2",
          "ticks": 11808,
          "time": 72.352905,
          "velocity": 0.7874015748031497
        },
        {
          "duration": 0.14705874999999935,
          "durationTicks": 24,
          "midi": 46,
          "name": "A#2",
          "ticks": 11808,
          "time": 72.352905,
          "velocity": 0.7874015748031497
        },
        {
          "duration": 0.14705874999999935,
          "durationTicks": 24,
          "midi": 36,
          "name": "C2",
          "ticks": 11832,
          "time": 72.49996375,
          "velocity": 0.7874015748031497
        },
        {
          "duration": 0.14705874999999935,
          "durationTicks": 24,
          "midi": 36,
          "name": "C2",
          "ticks": 11856,
          "time": 72.6470225,
          "velocity": 0.7874015748031497
        },
        {
          "duration": 0.14705874999999935,
          "durationTicks": 24,
          "midi": 38,
          "name": "D2",
          "ticks": 11856,
          "time": 72.6470225,
          "velocity": 0.7874015748031497
        },
        {
          "duration": 0.14705874999999935,
          "durationTicks": 24,
          "midi": 46,
          "name": "A#2",
          "ticks": 11856,
          "time": 72.6470225,
          "velocity": 0.7874015748031497
        },
        {
          "duration": 0.14705874999999935,
          "durationTicks": 24,
          "midi": 36,
          "name": "C2",
          "ticks": 11880,
          "time": 72.79408125,
          "velocity": 0.7874015748031497
        },
        {
          "duration": 0.14705874999999935,
          "durationTicks": 24,
          "midi": 46,
          "name": "A#2",
          "ticks": 11904,
          "time": 72.94114,
          "velocity": 0.7874015748031497
        },
        {
          "duration": 0.14705874999999935,
          "durationTicks": 24,
          "midi": 36,
          "name": "C2",
          "ticks": 11904,
          "time": 72.94114,
          "velocity": 0.7874015748031497
        },
        {
          "duration": 0.14705874999999935,
          "durationTicks": 24,
          "midi": 36,
          "name": "C2",
          "ticks": 11928,
          "time": 73.08819875,
          "velocity": 0.7874015748031497
        },
        {
          "duration": 0.14705874999999935,
          "durationTicks": 24,
          "midi": 46,
          "name": "A#2",
          "ticks": 11952,
          "time": 73.2352575,
          "velocity": 0.7874015748031497
        },
        {
          "duration": 0.14705874999999935,
          "durationTicks": 24,
          "midi": 38,
          "name": "D2",
          "ticks": 11952,
          "time": 73.2352575,
          "velocity": 0.7874015748031497
        },
        {
          "duration": 0.14705874999999935,
          "durationTicks": 24,
          "midi": 46,
          "name": "A#2",
          "ticks": 12000,
          "time": 73.529375,
          "velocity": 0.7874015748031497
        },
        {
          "duration": 0.14705874999999935,
          "durationTicks": 24,
          "midi": 36,
          "name": "C2",
          "ticks": 12000,
          "time": 73.529375,
          "velocity": 0.7874015748031497
        },
        {
          "duration": 0.14705874999999935,
          "durationTicks": 24,
          "midi": 46,
          "name": "A#2",
          "ticks": 12048,
          "time": 73.82349250000001,
          "velocity": 0.7874015748031497
        },
        {
          "duration": 0.14705874999999935,
          "durationTicks": 24,
          "midi": 38,
          "name": "D2",
          "ticks": 12048,
          "time": 73.82349250000001,
          "velocity": 0.7874015748031497
        },
        {
          "duration": 0.14705874999999935,
          "durationTicks": 24,
          "midi": 46,
          "name": "A#2",
          "ticks": 12096,
          "time": 74.11761000000001,
          "velocity": 0.7874015748031497
        },
        {
          "duration": 0.14705874999999935,
          "durationTicks": 24,
          "midi": 36,
          "name": "C2",
          "ticks": 12096,
          "time": 74.11761000000001,
          "velocity": 0.7874015748031497
        },
        {
          "duration": 0.14705874999999935,
          "durationTicks": 24,
          "midi": 36,
          "name": "C2",
          "ticks": 12120,
          "time": 74.26466875000001,
          "velocity": 0.7874015748031497
        },
        {
          "duration": 0.14705874999999935,
          "durationTicks": 24,
          "midi": 46,
          "name": "A#2",
          "ticks": 12144,
          "time": 74.41172750000001,
          "velocity": 0.7874015748031497
        },
        {
          "duration": 0.14705874999999935,
          "durationTicks": 24,
          "midi": 38,
          "name": "D2",
          "ticks": 12144,
          "time": 74.41172750000001,
          "velocity": 0.7874015748031497
        },
        {
          "duration": 0.14705874999999935,
          "durationTicks": 24,
          "midi": 46,
          "name": "A#2",
          "ticks": 12192,
          "time": 74.70584500000001,
          "velocity": 0.7874015748031497
        },
        {
          "duration": 0.07352937499999257,
          "durationTicks": 12,
          "midi": 36,
          "name": "C2",
          "ticks": 12192,
          "time": 74.70584500000001,
          "velocity": 0.7874015748031497
        },
        {
          "duration": 0.07352937500000678,
          "durationTicks": 12,
          "midi": 36,
          "name": "C2",
          "ticks": 12204,
          "time": 74.779374375,
          "velocity": 0.7874015748031497
        },
        {
          "duration": 0.14705874999999935,
          "durationTicks": 24,
          "midi": 36,
          "name": "C2",
          "ticks": 12216,
          "time": 74.85290375000001,
          "velocity": 0.7874015748031497
        },
        {
          "duration": 0.14705874999999935,
          "durationTicks": 24,
          "midi": 46,
          "name": "A#2",
          "ticks": 12240,
          "time": 74.99996250000001,
          "velocity": 0.7874015748031497
        },
        {
          "duration": 0.14705874999999935,
          "durationTicks": 24,
          "midi": 38,
          "name": "D2",
          "ticks": 12240,
          "time": 74.99996250000001,
          "velocity": 0.7874015748031497
        },
        {
          "duration": 0.14705874999999935,
          "durationTicks": 24,
          "midi": 36,
          "name": "C2",
          "ticks": 12240,
          "time": 74.99996250000001,
          "velocity": 0.7874015748031497
        },
        {
          "duration": 0.14705874999999935,
          "durationTicks": 24,
          "midi": 36,
          "name": "C2",
          "ticks": 12264,
          "time": 75.14702125000001,
          "velocity": 0.7874015748031497
        },
        {
          "duration": 0.14705874999999935,
          "durationTicks": 24,
          "midi": 36,
          "name": "C2",
          "ticks": 12288,
          "time": 75.29408000000001,
          "velocity": 0.7874015748031497
        },
        {
          "duration": 0.14705874999999935,
          "durationTicks": 24,
          "midi": 46,
          "name": "A#2",
          "ticks": 12288,
          "time": 75.29408000000001,
          "velocity": 0.7874015748031497
        },
        {
          "duration": 0.14705874999999935,
          "durationTicks": 24,
          "midi": 38,
          "name": "D2",
          "ticks": 12336,
          "time": 75.5881975,
          "velocity": 0.7874015748031497
        },
        {
          "duration": 0.14705874999999935,
          "durationTicks": 24,
          "midi": 46,
          "name": "A#2",
          "ticks": 12336,
          "time": 75.5881975,
          "velocity": 0.7874015748031497
        },
        {
          "duration": 0.14705874999999935,
          "durationTicks": 24,
          "midi": 36,
          "name": "C2",
          "ticks": 12384,
          "time": 75.882315,
          "velocity": 0.7874015748031497
        },
        {
          "duration": 0.44117624999999805,
          "durationTicks": 72,
          "midi": 49,
          "name": "C#3",
          "ticks": 12384,
          "time": 75.882315,
          "velocity": 0.7874015748031497
        },
        {
          "duration": 0.14705874999999935,
          "durationTicks": 24,
          "midi": 46,
          "name": "A#2",
          "ticks": 12432,
          "time": 76.1764325,
          "velocity": 0.7874015748031497
        },
        {
          "duration": 0.14705874999999935,
          "durationTicks": 24,
          "midi": 38,
          "name": "D2",
          "ticks": 12432,
          "time": 76.1764325,
          "velocity": 0.7874015748031497
        },
        {
          "duration": 0.14705874999999935,
          "durationTicks": 24,
          "midi": 46,
          "name": "A#2",
          "ticks": 12480,
          "time": 76.47055,
          "velocity": 0.7874015748031497
        },
        {
          "duration": 0.14705874999999935,
          "durationTicks": 24,
          "midi": 36,
          "name": "C2",
          "ticks": 12480,
          "time": 76.47055,
          "velocity": 0.7874015748031497
        },
        {
          "duration": 0.14705874999999935,
          "durationTicks": 24,
          "midi": 36,
          "name": "C2",
          "ticks": 12504,
          "time": 76.61760875,
          "velocity": 0.7874015748031497
        },
        {
          "duration": 0.14705875000001356,
          "durationTicks": 24,
          "midi": 38,
          "name": "D2",
          "ticks": 12528,
          "time": 76.7646675,
          "velocity": 0.7874015748031497
        },
        {
          "duration": 0.14705875000001356,
          "durationTicks": 24,
          "midi": 46,
          "name": "A#2",
          "ticks": 12528,
          "time": 76.7646675,
          "velocity": 0.7874015748031497
        },
        {
          "duration": 0.14705874999999935,
          "durationTicks": 24,
          "midi": 46,
          "name": "A#2",
          "ticks": 12576,
          "time": 77.05878500000001,
          "velocity": 0.7874015748031497
        },
        {
          "duration": 0.14705874999999935,
          "durationTicks": 24,
          "midi": 36,
          "name": "C2",
          "ticks": 12576,
          "time": 77.05878500000001,
          "velocity": 0.7874015748031497
        },
        {
          "duration": 0.14705874999999935,
          "durationTicks": 24,
          "midi": 36,
          "name": "C2",
          "ticks": 12600,
          "time": 77.20584375000001,
          "velocity": 0.7874015748031497
        },
        {
          "duration": 0.14705874999999935,
          "durationTicks": 24,
          "midi": 36,
          "name": "C2",
          "ticks": 12624,
          "time": 77.35290250000001,
          "velocity": 0.7874015748031497
        },
        {
          "duration": 0.14705874999999935,
          "durationTicks": 24,
          "midi": 38,
          "name": "D2",
          "ticks": 12624,
          "time": 77.35290250000001,
          "velocity": 0.7874015748031497
        },
        {
          "duration": 0.14705874999999935,
          "durationTicks": 24,
          "midi": 46,
          "name": "A#2",
          "ticks": 12624,
          "time": 77.35290250000001,
          "velocity": 0.7874015748031497
        },
        {
          "duration": 0.14705874999999935,
          "durationTicks": 24,
          "midi": 36,
          "name": "C2",
          "ticks": 12648,
          "time": 77.49996125000001,
          "velocity": 0.7874015748031497
        },
        {
          "duration": 0.14705874999999935,
          "durationTicks": 24,
          "midi": 46,
          "name": "A#2",
          "ticks": 12672,
          "time": 77.64702000000001,
          "velocity": 0.7874015748031497
        },
        {
          "duration": 0.14705874999999935,
          "durationTicks": 24,
          "midi": 36,
          "name": "C2",
          "ticks": 12672,
          "time": 77.64702000000001,
          "velocity": 0.7874015748031497
        },
        {
          "duration": 0.14705874999999935,
          "durationTicks": 24,
          "midi": 36,
          "name": "C2",
          "ticks": 12696,
          "time": 77.79407875000001,
          "velocity": 0.7874015748031497
        },
        {
          "duration": 0.14705874999999935,
          "durationTicks": 24,
          "midi": 38,
          "name": "D2",
          "ticks": 12720,
          "time": 77.94113750000001,
          "velocity": 0.7874015748031497
        },
        {
          "duration": 0.14705874999999935,
          "durationTicks": 24,
          "midi": 46,
          "name": "A#2",
          "ticks": 12720,
          "time": 77.94113750000001,
          "velocity": 0.7874015748031497
        },
        {
          "duration": 0.07352937499999257,
          "durationTicks": 12,
          "midi": 36,
          "name": "C2",
          "ticks": 12768,
          "time": 78.23525500000001,
          "velocity": 0.7874015748031497
        },
        {
          "duration": 0.44117624999999805,
          "durationTicks": 72,
          "midi": 49,
          "name": "C#3",
          "ticks": 12768,
          "time": 78.23525500000001,
          "velocity": 0.7874015748031497
        },
        {
          "duration": 0.07352937500000678,
          "durationTicks": 12,
          "midi": 36,
          "name": "C2",
          "ticks": 12780,
          "time": 78.308784375,
          "velocity": 0.7874015748031497
        },
        {
          "duration": 0.14705874999999935,
          "durationTicks": 24,
          "midi": 36,
          "name": "C2",
          "ticks": 12792,
          "time": 78.38231375000001,
          "velocity": 0.7874015748031497
        },
        {
          "duration": 0.14705874999999935,
          "durationTicks": 24,
          "midi": 36,
          "name": "C2",
          "ticks": 12816,
          "time": 78.52937250000001,
          "velocity": 0.7874015748031497
        },
        {
          "duration": 0.14705874999999935,
          "durationTicks": 24,
          "midi": 38,
          "name": "D2",
          "ticks": 12840,
          "time": 78.67643125000001,
          "velocity": 0.7874015748031497
        },
        {
          "duration": 0.44117624999999805,
          "durationTicks": 72,
          "midi": 49,
          "name": "C#3",
          "ticks": 12840,
          "time": 78.67643125000001,
          "velocity": 0.7874015748031497
        },
        {
          "duration": 0.07352937500000678,
          "durationTicks": 12,
          "midi": 36,
          "name": "C2",
          "ticks": 12912,
          "time": 79.1176075,
          "velocity": 0.7874015748031497
        },
        {
          "duration": 0.44117624999999805,
          "durationTicks": 72,
          "midi": 49,
          "name": "C#3",
          "ticks": 12912,
          "time": 79.1176075,
          "velocity": 0.7874015748031497
        },
        {
          "duration": 0.07352937499999257,
          "durationTicks": 12,
          "midi": 36,
          "name": "C2",
          "ticks": 12924,
          "time": 79.19113687500001,
          "velocity": 0.7874015748031497
        },
        {
          "duration": 0.14705874999999935,
          "durationTicks": 24,
          "midi": 36,
          "name": "C2",
          "ticks": 12936,
          "time": 79.26466625,
          "velocity": 0.7874015748031497
        },
        {
          "duration": 0.14705874999999935,
          "durationTicks": 24,
          "midi": 36,
          "name": "C2",
          "ticks": 12960,
          "time": 79.411725,
          "velocity": 0.7874015748031497
        },
        {
          "duration": 0.44117625000001226,
          "durationTicks": 72,
          "midi": 49,
          "name": "C#3",
          "ticks": 12984,
          "time": 79.55878375,
          "velocity": 0.7874015748031497
        },
        {
          "duration": 0.14705874999999935,
          "durationTicks": 24,
          "midi": 38,
          "name": "D2",
          "ticks": 12984,
          "time": 79.55878375,
          "velocity": 0.7874015748031497
        },
        {
          "duration": 0.2941174999999987,
          "durationTicks": 48,
          "midi": 49,
          "name": "C#3",
          "ticks": 13056,
          "time": 79.99996000000002,
          "velocity": 0.7874015748031497
        },
        {
          "duration": 0.14705874999999935,
          "durationTicks": 24,
          "midi": 38,
          "name": "D2",
          "ticks": 13056,
          "time": 79.99996000000002,
          "velocity": 0.7874015748031497
        },
        {
          "duration": 0.14705874999999935,
          "durationTicks": 24,
          "midi": 38,
          "name": "D2",
          "ticks": 13080,
          "time": 80.14701875000002,
          "velocity": 0.7874015748031497
        },
        {
          "duration": 0.14705874999999935,
          "durationTicks": 24,
          "midi": 38,
          "name": "D2",
          "ticks": 13104,
          "time": 80.29407750000001,
          "velocity": 0.7874015748031497
        },
        {
          "duration": 0.2941174999999987,
          "durationTicks": 48,
          "midi": 49,
          "name": "C#3",
          "ticks": 13104,
          "time": 80.29407750000001,
          "velocity": 0.7874015748031497
        },
        {
          "duration": 0.14705874999999935,
          "durationTicks": 24,
          "midi": 38,
          "name": "D2",
          "ticks": 13128,
          "time": 80.44113625000001,
          "velocity": 0.7874015748031497
        },
        {
          "duration": 0.07352937499999257,
          "durationTicks": 12,
          "midi": 38,
          "name": "D2",
          "ticks": 13152,
          "time": 80.58819500000001,
          "velocity": 0.7874015748031497
        },
        {
          "duration": 0.5882349999999974,
          "durationTicks": 96,
          "midi": 49,
          "name": "C#3",
          "ticks": 13152,
          "time": 80.58819500000001,
          "velocity": 0.7874015748031497
        },
        {
          "duration": 0.07352937500000678,
          "durationTicks": 12,
          "midi": 38,
          "name": "D2",
          "ticks": 13164,
          "time": 80.661724375,
          "velocity": 0.7874015748031497
        },
        {
          "duration": 0.14705874999999935,
          "durationTicks": 24,
          "midi": 42,
          "name": "F#2",
          "ticks": 13176,
          "time": 80.73525375000001,
          "velocity": 0.7874015748031497
        },
        {
          "duration": 0.14705874999999935,
          "durationTicks": 24,
          "midi": 36,
          "name": "C2",
          "ticks": 13176,
          "time": 80.73525375000001,
          "velocity": 0.7874015748031497
        },
        {
          "duration": 0.14705874999999935,
          "durationTicks": 24,
          "midi": 42,
          "name": "F#2",
          "ticks": 13200,
          "time": 80.88231250000001,
          "velocity": 0.7874015748031497
        },
        {
          "duration": 0.14705874999999935,
          "durationTicks": 24,
          "midi": 36,
          "name": "C2",
          "ticks": 13200,
          "time": 80.88231250000001,
          "velocity": 0.7874015748031497
        },
        {
          "duration": 0.14705874999999935,
          "durationTicks": 24,
          "midi": 46,
          "name": "A#2",
          "ticks": 13224,
          "time": 81.02937125000001,
          "velocity": 0.7874015748031497
        },
        {
          "duration": 0.07352937499999257,
          "durationTicks": 12,
          "midi": 38,
          "name": "D2",
          "ticks": 13224,
          "time": 81.02937125000001,
          "velocity": 0.7874015748031497
        },
        {
          "duration": 0.07352937500000678,
          "durationTicks": 12,
          "midi": 38,
          "name": "D2",
          "ticks": 13236,
          "time": 81.102900625,
          "velocity": 0.7874015748031497
        },
        {
          "duration": 0.14705874999999935,
          "durationTicks": 24,
          "midi": 36,
          "name": "C2",
          "ticks": 13248,
          "time": 81.17643000000001,
          "velocity": 0.7874015748031497
        },
        {
          "duration": 0.14705874999999935,
          "durationTicks": 24,
          "midi": 42,
          "name": "F#2",
          "ticks": 13248,
          "time": 81.17643000000001,
          "velocity": 0.7874015748031497
        },
        {
          "duration": 0.14705874999999935,
          "durationTicks": 24,
          "midi": 42,
          "name": "F#2",
          "ticks": 13272,
          "time": 81.32348875000001,
          "velocity": 0.7874015748031497
        },
        {
          "duration": 0.14705874999999935,
          "durationTicks": 24,
          "midi": 36,
          "name": "C2",
          "ticks": 13272,
          "time": 81.32348875000001,
          "velocity": 0.7874015748031497
        },
        {
          "duration": 0.07352937499999257,
          "durationTicks": 12,
          "midi": 38,
          "name": "D2",
          "ticks": 13296,
          "time": 81.47054750000001,
          "velocity": 0.7874015748031497
        },
        {
          "duration": 0.14705874999999935,
          "durationTicks": 24,
          "midi": 46,
          "name": "A#2",
          "ticks": 13296,
          "time": 81.47054750000001,
          "velocity": 0.7874015748031497
        },
        {
          "duration": 0.07352937500000678,
          "durationTicks": 12,
          "midi": 38,
          "name": "D2",
          "ticks": 13308,
          "time": 81.544076875,
          "velocity": 0.7874015748031497
        },
        {
          "duration": 0.14705874999999935,
          "durationTicks": 24,
          "midi": 36,
          "name": "C2",
          "ticks": 13320,
          "time": 81.61760625000001,
          "velocity": 0.7874015748031497
        },
        {
          "duration": 0.14705874999999935,
          "durationTicks": 24,
          "midi": 42,
          "name": "F#2",
          "ticks": 13320,
          "time": 81.61760625000001,
          "velocity": 0.7874015748031497
        },
        {
          "duration": 0.14705874999999935,
          "durationTicks": 24,
          "midi": 42,
          "name": "F#2",
          "ticks": 13344,
          "time": 81.76466500000001,
          "velocity": 0.7874015748031497
        },
        {
          "duration": 0.14705874999999935,
          "durationTicks": 24,
          "midi": 36,
          "name": "C2",
          "ticks": 13344,
          "time": 81.76466500000001,
          "velocity": 0.7874015748031497
        },
        {
          "duration": 0.07352937500000678,
          "durationTicks": 12,
          "midi": 38,
          "name": "D2",
          "ticks": 13368,
          "time": 81.91172375000001,
          "velocity": 0.7874015748031497
        },
        {
          "duration": 0.14705874999999935,
          "durationTicks": 24,
          "midi": 46,
          "name": "A#2",
          "ticks": 13368,
          "time": 81.91172375000001,
          "velocity": 0.7874015748031497
        },
        {
          "duration": 0.07352937499999257,
          "durationTicks": 12,
          "midi": 38,
          "name": "D2",
          "ticks": 13380,
          "time": 81.98525312500001,
          "velocity": 0.7874015748031497
        },
        {
          "duration": 0.14705874999999935,
          "durationTicks": 24,
          "midi": 36,
          "name": "C2",
          "ticks": 13392,
          "time": 82.0587825,
          "velocity": 0.7874015748031497
        },
        {
          "duration": 0.14705874999999935,
          "durationTicks": 24,
          "midi": 42,
          "name": "F#2",
          "ticks": 13392,
          "time": 82.0587825,
          "velocity": 0.7874015748031497
        },
        {
          "duration": 0.14705874999999935,
          "durationTicks": 24,
          "midi": 36,
          "name": "C2",
          "ticks": 13416,
          "time": 82.20584125,
          "velocity": 0.7874015748031497
        },
        {
          "duration": 0.14705874999999935,
          "durationTicks": 24,
          "midi": 42,
          "name": "F#2",
          "ticks": 13416,
          "time": 82.20584125,
          "velocity": 0.7874015748031497
        },
        {
          "duration": 0.14705874999999935,
          "durationTicks": 24,
          "midi": 46,
          "name": "A#2",
          "ticks": 13440,
          "time": 82.3529,
          "velocity": 0.7874015748031497
        },
        {
          "duration": 0.14705874999999935,
          "durationTicks": 24,
          "midi": 38,
          "name": "D2",
          "ticks": 13440,
          "time": 82.3529,
          "velocity": 0.7874015748031497
        },
        {
          "duration": 0.14705874999999935,
          "durationTicks": 24,
          "midi": 42,
          "name": "F#2",
          "ticks": 13464,
          "time": 82.49995875,
          "velocity": 0.7874015748031497
        },
        {
          "duration": 0.14705874999999935,
          "durationTicks": 24,
          "midi": 38,
          "name": "D2",
          "ticks": 13464,
          "time": 82.49995875,
          "velocity": 0.7874015748031497
        },
        {
          "duration": 0.14705874999999935,
          "durationTicks": 24,
          "midi": 46,
          "name": "A#2",
          "ticks": 13488,
          "time": 82.6470175,
          "velocity": 0.7874015748031497
        },
        {
          "duration": 0.14705874999999935,
          "durationTicks": 24,
          "midi": 38,
          "name": "D2",
          "ticks": 13488,
          "time": 82.6470175,
          "velocity": 0.7874015748031497
        },
        {
          "duration": 0.14705874999999935,
          "durationTicks": 24,
          "midi": 38,
          "name": "D2",
          "ticks": 13512,
          "time": 82.79407625,
          "velocity": 0.7874015748031497
        },
        {
          "duration": 0.14705874999999935,
          "durationTicks": 24,
          "midi": 42,
          "name": "F#2",
          "ticks": 13512,
          "time": 82.79407625,
          "velocity": 0.7874015748031497
        },
        {
          "duration": 0.5882350000000116,
          "durationTicks": 96,
          "midi": 49,
          "name": "C#3",
          "ticks": 13536,
          "time": 82.941135,
          "velocity": 0.7874015748031497
        },
        {
          "duration": 0.07352937500000678,
          "durationTicks": 12,
          "midi": 38,
          "name": "D2",
          "ticks": 13536,
          "time": 82.941135,
          "velocity": 0.7874015748031497
        },
        {
          "duration": 0.07352937499999257,
          "durationTicks": 12,
          "midi": 38,
          "name": "D2",
          "ticks": 13548,
          "time": 83.01466437500001,
          "velocity": 0.7874015748031497
        },
        {
          "duration": 0.14705875000001356,
          "durationTicks": 24,
          "midi": 36,
          "name": "C2",
          "ticks": 13560,
          "time": 83.08819375,
          "velocity": 0.7874015748031497
        },
        {
          "duration": 0.14705875000001356,
          "durationTicks": 24,
          "midi": 42,
          "name": "F#2",
          "ticks": 13560,
          "time": 83.08819375,
          "velocity": 0.7874015748031497
        },
        {
          "duration": 0.14705874999999935,
          "durationTicks": 24,
          "midi": 42,
          "name": "F#2",
          "ticks": 13584,
          "time": 83.23525250000002,
          "velocity": 0.7874015748031497
        },
        {
          "duration": 0.14705874999999935,
          "durationTicks": 24,
          "midi": 36,
          "name": "C2",
          "ticks": 13584,
          "time": 83.23525250000002,
          "velocity": 0.7874015748031497
        },
        {
          "duration": 0.14705874999999935,
          "durationTicks": 24,
          "midi": 46,
          "name": "A#2",
          "ticks": 13608,
          "time": 83.38231125000001,
          "velocity": 0.7874015748031497
        },
        {
          "duration": 0.07352937499999257,
          "durationTicks": 12,
          "midi": 38,
          "name": "D2",
          "ticks": 13608,
          "time": 83.38231125000001,
          "velocity": 0.7874015748031497
        },
        {
          "duration": 0.07352937500000678,
          "durationTicks": 12,
          "midi": 38,
          "name": "D2",
          "ticks": 13620,
          "time": 83.45584062500001,
          "velocity": 0.7874015748031497
        },
        {
          "duration": 0.14705874999999935,
          "durationTicks": 24,
          "midi": 36,
          "name": "C2",
          "ticks": 13632,
          "time": 83.52937000000001,
          "velocity": 0.7874015748031497
        },
        {
          "duration": 0.14705874999999935,
          "durationTicks": 24,
          "midi": 42,
          "name": "F#2",
          "ticks": 13632,
          "time": 83.52937000000001,
          "velocity": 0.7874015748031497
        },
        {
          "duration": 0.14705874999999935,
          "durationTicks": 24,
          "midi": 36,
          "name": "C2",
          "ticks": 13656,
          "time": 83.67642875000001,
          "velocity": 0.7874015748031497
        },
        {
          "duration": 0.14705874999999935,
          "durationTicks": 24,
          "midi": 42,
          "name": "F#2",
          "ticks": 13656,
          "time": 83.67642875000001,
          "velocity": 0.7874015748031497
        },
        {
          "duration": 0.07352937499999257,
          "durationTicks": 12,
          "midi": 38,
          "name": "D2",
          "ticks": 13680,
          "time": 83.82348750000001,
          "velocity": 0.7874015748031497
        },
        {
          "duration": 0.14705874999999935,
          "durationTicks": 24,
          "midi": 46,
          "name": "A#2",
          "ticks": 13680,
          "time": 83.82348750000001,
          "velocity": 0.7874015748031497
        },
        {
          "duration": 0.07352937500000678,
          "durationTicks": 12,
          "midi": 38,
          "name": "D2",
          "ticks": 13692,
          "time": 83.897016875,
          "velocity": 0.7874015748031497
        },
        {
          "duration": 0.14705874999999935,
          "durationTicks": 24,
          "midi": 42,
          "name": "F#2",
          "ticks": 13704,
          "time": 83.97054625000001,
          "velocity": 0.7874015748031497
        },
        {
          "duration": 0.14705874999999935,
          "durationTicks": 24,
          "midi": 36,
          "name": "C2",
          "ticks": 13704,
          "time": 83.97054625000001,
          "velocity": 0.7874015748031497
        },
        {
          "duration": 0.14705874999999935,
          "durationTicks": 24,
          "midi": 42,
          "name": "F#2",
          "ticks": 13728,
          "time": 84.11760500000001,
          "velocity": 0.7874015748031497
        },
        {
          "duration": 0.14705874999999935,
          "durationTicks": 24,
          "midi": 36,
          "name": "C2",
          "ticks": 13728,
          "time": 84.11760500000001,
          "velocity": 0.7874015748031497
        },
        {
          "duration": 0.14705874999999935,
          "durationTicks": 24,
          "midi": 46,
          "name": "A#2",
          "ticks": 13752,
          "time": 84.26466375000001,
          "velocity": 0.7874015748031497
        },
        {
          "duration": 0.07352937499999257,
          "durationTicks": 12,
          "midi": 38,
          "name": "D2",
          "ticks": 13752,
          "time": 84.26466375000001,
          "velocity": 0.7874015748031497
        },
        {
          "duration": 0.07352937500000678,
          "durationTicks": 12,
          "midi": 38,
          "name": "D2",
          "ticks": 13764,
          "time": 84.338193125,
          "velocity": 0.7874015748031497
        },
        {
          "duration": 0.14705874999999935,
          "durationTicks": 24,
          "midi": 36,
          "name": "C2",
          "ticks": 13776,
          "time": 84.41172250000001,
          "velocity": 0.7874015748031497
        },
        {
          "duration": 0.14705874999999935,
          "durationTicks": 24,
          "midi": 42,
          "name": "F#2",
          "ticks": 13776,
          "time": 84.41172250000001,
          "velocity": 0.7874015748031497
        },
        {
          "duration": 0.14705874999999935,
          "durationTicks": 24,
          "midi": 36,
          "name": "C2",
          "ticks": 13800,
          "time": 84.55878125000001,
          "velocity": 0.7874015748031497
        },
        {
          "duration": 0.14705874999999935,
          "durationTicks": 24,
          "midi": 42,
          "name": "F#2",
          "ticks": 13800,
          "time": 84.55878125000001,
          "velocity": 0.7874015748031497
        },
        {
          "duration": 0.14705874999999935,
          "durationTicks": 24,
          "midi": 46,
          "name": "A#2",
          "ticks": 13824,
          "time": 84.70584000000001,
          "velocity": 0.7874015748031497
        },
        {
          "duration": 0.14705874999999935,
          "durationTicks": 24,
          "midi": 38,
          "name": "D2",
          "ticks": 13824,
          "time": 84.70584000000001,
          "velocity": 0.7874015748031497
        },
        {
          "duration": 0.14705874999999935,
          "durationTicks": 24,
          "midi": 42,
          "name": "F#2",
          "ticks": 13848,
          "time": 84.85289875000001,
          "velocity": 0.7874015748031497
        },
        {
          "duration": 0.14705874999999935,
          "durationTicks": 24,
          "midi": 38,
          "name": "D2",
          "ticks": 13848,
          "time": 84.85289875000001,
          "velocity": 0.7874015748031497
        },
        {
          "duration": 0.14705874999999935,
          "durationTicks": 24,
          "midi": 38,
          "name": "D2",
          "ticks": 13872,
          "time": 84.99995750000001,
          "velocity": 0.7874015748031497
        },
        {
          "duration": 0.14705874999999935,
          "durationTicks": 24,
          "midi": 46,
          "name": "A#2",
          "ticks": 13872,
          "time": 84.99995750000001,
          "velocity": 0.7874015748031497
        },
        {
          "duration": 0.14705874999999935,
          "durationTicks": 24,
          "midi": 42,
          "name": "F#2",
          "ticks": 13896,
          "time": 85.14701625000001,
          "velocity": 0.7874015748031497
        },
        {
          "duration": 0.14705874999999935,
          "durationTicks": 24,
          "midi": 38,
          "name": "D2",
          "ticks": 13896,
          "time": 85.14701625000001,
          "velocity": 0.7874015748031497
        },
        {
          "duration": 0.14705874999999935,
          "durationTicks": 24,
          "midi": 36,
          "name": "C2",
          "ticks": 13920,
          "time": 85.294075,
          "velocity": 0.7874015748031497
        },
        {
          "duration": 0.44117624999999805,
          "durationTicks": 72,
          "midi": 49,
          "name": "C#3",
          "ticks": 13920,
          "time": 85.294075,
          "velocity": 0.7874015748031497
        },
        {
          "duration": 0.14705874999999935,
          "durationTicks": 24,
          "midi": 38,
          "name": "D2",
          "ticks": 13968,
          "time": 85.5881925,
          "velocity": 0.7874015748031497
        },
        {
          "duration": 0.44117624999999805,
          "durationTicks": 72,
          "midi": 49,
          "name": "C#3",
          "ticks": 13992,
          "time": 85.73525125,
          "velocity": 0.7874015748031497
        },
        {
          "duration": 0.14705874999999935,
          "durationTicks": 24,
          "midi": 36,
          "name": "C2",
          "ticks": 14016,
          "time": 85.88231,
          "velocity": 0.7874015748031497
        },
        {
          "duration": 0.14705874999999935,
          "durationTicks": 24,
          "midi": 36,
          "name": "C2",
          "ticks": 14040,
          "time": 86.02936875,
          "velocity": 0.7874015748031497
        },
        {
          "duration": 0.14705875000001356,
          "durationTicks": 24,
          "midi": 46,
          "name": "A#2",
          "ticks": 14064,
          "time": 86.1764275,
          "velocity": 0.7874015748031497
        },
        {
          "duration": 0.14705875000001356,
          "durationTicks": 24,
          "midi": 38,
          "name": "D2",
          "ticks": 14064,
          "time": 86.1764275,
          "velocity": 0.7874015748031497
        },
        {
          "duration": 0.14705874999999935,
          "durationTicks": 24,
          "midi": 46,
          "name": "A#2",
          "ticks": 14112,
          "time": 86.47054500000002,
          "velocity": 0.7874015748031497
        },
        {
          "duration": 0.14705874999999935,
          "durationTicks": 24,
          "midi": 36,
          "name": "C2",
          "ticks": 14112,
          "time": 86.47054500000002,
          "velocity": 0.7874015748031497
        },
        {
          "duration": 0.14705874999999935,
          "durationTicks": 24,
          "midi": 36,
          "name": "C2",
          "ticks": 14136,
          "time": 86.61760375000001,
          "velocity": 0.7874015748031497
        },
        {
          "duration": 0.14705874999999935,
          "durationTicks": 24,
          "midi": 36,
          "name": "C2",
          "ticks": 14160,
          "time": 86.76466250000001,
          "velocity": 0.7874015748031497
        },
        {
          "duration": 0.14705874999999935,
          "durationTicks": 24,
          "midi": 38,
          "name": "D2",
          "ticks": 14160,
          "time": 86.76466250000001,
          "velocity": 0.7874015748031497
        },
        {
          "duration": 0.14705874999999935,
          "durationTicks": 24,
          "midi": 46,
          "name": "A#2",
          "ticks": 14160,
          "time": 86.76466250000001,
          "velocity": 0.7874015748031497
        },
        {
          "duration": 0.14705874999999935,
          "durationTicks": 24,
          "midi": 36,
          "name": "C2",
          "ticks": 14184,
          "time": 86.91172125000001,
          "velocity": 0.7874015748031497
        },
        {
          "duration": 0.14705874999999935,
          "durationTicks": 24,
          "midi": 46,
          "name": "A#2",
          "ticks": 14208,
          "time": 87.05878000000001,
          "velocity": 0.7874015748031497
        },
        {
          "duration": 0.14705874999999935,
          "durationTicks": 24,
          "midi": 36,
          "name": "C2",
          "ticks": 14208,
          "time": 87.05878000000001,
          "velocity": 0.7874015748031497
        },
        {
          "duration": 0.14705874999999935,
          "durationTicks": 24,
          "midi": 36,
          "name": "C2",
          "ticks": 14232,
          "time": 87.20583875000001,
          "velocity": 0.7874015748031497
        },
        {
          "duration": 0.14705874999999935,
          "durationTicks": 24,
          "midi": 38,
          "name": "D2",
          "ticks": 14256,
          "time": 87.35289750000001,
          "velocity": 0.7874015748031497
        },
        {
          "duration": 0.14705874999999935,
          "durationTicks": 24,
          "midi": 46,
          "name": "A#2",
          "ticks": 14256,
          "time": 87.35289750000001,
          "velocity": 0.7874015748031497
        },
        {
          "duration": 0.44117624999999805,
          "durationTicks": 72,
          "midi": 49,
          "name": "C#3",
          "ticks": 14304,
          "time": 87.64701500000001,
          "velocity": 0.7874015748031497
        },
        {
          "duration": 0.14705874999999935,
          "durationTicks": 24,
          "midi": 36,
          "name": "C2",
          "ticks": 14304,
          "time": 87.64701500000001,
          "velocity": 0.7874015748031497
        },
        {
          "duration": 0.14705874999999935,
          "durationTicks": 24,
          "midi": 38,
          "name": "D2",
          "ticks": 14352,
          "time": 87.94113250000001,
          "velocity": 0.7874015748031497
        },
        {
          "duration": 0.44117624999999805,
          "durationTicks": 72,
          "midi": 49,
          "name": "C#3",
          "ticks": 14376,
          "time": 88.08819125000001,
          "velocity": 0.7874015748031497
        },
        {
          "duration": 0.14705874999999935,
          "durationTicks": 24,
          "midi": 36,
          "name": "C2",
          "ticks": 14400,
          "time": 88.23525000000001,
          "velocity": 0.7874015748031497
        },
        {
          "duration": 0.14705874999999935,
          "durationTicks": 24,
          "midi": 36,
          "name": "C2",
          "ticks": 14424,
          "time": 88.38230875,
          "velocity": 0.7874015748031497
        },
        {
          "duration": 0.14705874999999935,
          "durationTicks": 24,
          "midi": 38,
          "name": "D2",
          "ticks": 14448,
          "time": 88.5293675,
          "velocity": 0.7874015748031497
        },
        {
          "duration": 0.14705874999999935,
          "durationTicks": 24,
          "midi": 46,
          "name": "A#2",
          "ticks": 14448,
          "time": 88.5293675,
          "velocity": 0.7874015748031497
        },
        {
          "duration": 0.07352937500000678,
          "durationTicks": 12,
          "midi": 36,
          "name": "C2",
          "ticks": 14496,
          "time": 88.823485,
          "velocity": 0.7874015748031497
        },
        {
          "duration": 0.14705874999999935,
          "durationTicks": 24,
          "midi": 46,
          "name": "A#2",
          "ticks": 14496,
          "time": 88.823485,
          "velocity": 0.7874015748031497
        },
        {
          "duration": 0.07352937499999257,
          "durationTicks": 12,
          "midi": 36,
          "name": "C2",
          "ticks": 14508,
          "time": 88.89701437500001,
          "velocity": 0.7874015748031497
        },
        {
          "duration": 0.14705874999999935,
          "durationTicks": 24,
          "midi": 36,
          "name": "C2",
          "ticks": 14520,
          "time": 88.97054375,
          "velocity": 0.7874015748031497
        },
        {
          "duration": 0.14705874999999935,
          "durationTicks": 24,
          "midi": 46,
          "name": "A#2",
          "ticks": 14544,
          "time": 89.1176025,
          "velocity": 0.7874015748031497
        },
        {
          "duration": 0.14705874999999935,
          "durationTicks": 24,
          "midi": 38,
          "name": "D2",
          "ticks": 14544,
          "time": 89.1176025,
          "velocity": 0.7874015748031497
        },
        {
          "duration": 0.14705874999999935,
          "durationTicks": 24,
          "midi": 36,
          "name": "C2",
          "ticks": 14544,
          "time": 89.1176025,
          "velocity": 0.7874015748031497
        },
        {
          "duration": 0.14705874999999935,
          "durationTicks": 24,
          "midi": 36,
          "name": "C2",
          "ticks": 14568,
          "time": 89.26466125,
          "velocity": 0.7874015748031497
        },
        {
          "duration": 0.14705875000001356,
          "durationTicks": 24,
          "midi": 46,
          "name": "A#2",
          "ticks": 14592,
          "time": 89.41172,
          "velocity": 0.7874015748031497
        },
        {
          "duration": 0.14705875000001356,
          "durationTicks": 24,
          "midi": 36,
          "name": "C2",
          "ticks": 14592,
          "time": 89.41172,
          "velocity": 0.7874015748031497
        },
        {
          "duration": 0.14705874999999935,
          "durationTicks": 24,
          "midi": 38,
          "name": "D2",
          "ticks": 14640,
          "time": 89.70583750000002,
          "velocity": 0.7874015748031497
        },
        {
          "duration": 0.14705874999999935,
          "durationTicks": 24,
          "midi": 46,
          "name": "A#2",
          "ticks": 14640,
          "time": 89.70583750000002,
          "velocity": 0.7874015748031497
        },
        {
          "duration": 0.14705874999999935,
          "durationTicks": 24,
          "midi": 36,
          "name": "C2",
          "ticks": 14688,
          "time": 89.99995500000001,
          "velocity": 0.7874015748031497
        },
        {
          "duration": 0.44117624999999805,
          "durationTicks": 72,
          "midi": 49,
          "name": "C#3",
          "ticks": 14688,
          "time": 89.99995500000001,
          "velocity": 0.7874015748031497
        },
        {
          "duration": 0.14705874999999935,
          "durationTicks": 24,
          "midi": 38,
          "name": "D2",
          "ticks": 14736,
          "time": 90.29407250000001,
          "velocity": 0.7874015748031497
        },
        {
          "duration": 0.44117624999999805,
          "durationTicks": 72,
          "midi": 49,
          "name": "C#3",
          "ticks": 14760,
          "time": 90.44113125000001,
          "velocity": 0.7874015748031497
        },
        {
          "duration": 0.14705874999999935,
          "durationTicks": 24,
          "midi": 36,
          "name": "C2",
          "ticks": 14784,
          "time": 90.58819000000001,
          "velocity": 0.7874015748031497
        },
        {
          "duration": 0.14705874999999935,
          "durationTicks": 24,
          "midi": 36,
          "name": "C2",
          "ticks": 14808,
          "time": 90.73524875000001,
          "velocity": 0.7874015748031497
        },
        {
          "duration": 0.14705874999999935,
          "durationTicks": 24,
          "midi": 46,
          "name": "A#2",
          "ticks": 14832,
          "time": 90.88230750000001,
          "velocity": 0.7874015748031497
        },
        {
          "duration": 0.14705874999999935,
          "durationTicks": 24,
          "midi": 38,
          "name": "D2",
          "ticks": 14832,
          "time": 90.88230750000001,
          "velocity": 0.7874015748031497
        },
        {
          "duration": 0.14705874999999935,
          "durationTicks": 24,
          "midi": 46,
          "name": "A#2",
          "ticks": 14880,
          "time": 91.17642500000001,
          "velocity": 0.7874015748031497
        },
        {
          "duration": 0.14705874999999935,
          "durationTicks": 24,
          "midi": 36,
          "name": "C2",
          "ticks": 14880,
          "time": 91.17642500000001,
          "velocity": 0.7874015748031497
        },
        {
          "duration": 0.14705874999999935,
          "durationTicks": 24,
          "midi": 36,
          "name": "C2",
          "ticks": 14904,
          "time": 91.32348375000001,
          "velocity": 0.7874015748031497
        },
        {
          "duration": 0.14705874999999935,
          "durationTicks": 24,
          "midi": 36,
          "name": "C2",
          "ticks": 14928,
          "time": 91.47054250000001,
          "velocity": 0.7874015748031497
        },
        {
          "duration": 0.14705874999999935,
          "durationTicks": 24,
          "midi": 38,
          "name": "D2",
          "ticks": 14928,
          "time": 91.47054250000001,
          "velocity": 0.7874015748031497
        },
        {
          "duration": 0.14705874999999935,
          "durationTicks": 24,
          "midi": 46,
          "name": "A#2",
          "ticks": 14928,
          "time": 91.47054250000001,
          "velocity": 0.7874015748031497
        },
        {
          "duration": 0.14705874999999935,
          "durationTicks": 24,
          "midi": 36,
          "name": "C2",
          "ticks": 14952,
          "time": 91.61760125,
          "velocity": 0.7874015748031497
        },
        {
          "duration": 0.14705874999999935,
          "durationTicks": 24,
          "midi": 36,
          "name": "C2",
          "ticks": 14976,
          "time": 91.76466,
          "velocity": 0.7874015748031497
        },
        {
          "duration": 0.14705874999999935,
          "durationTicks": 24,
          "midi": 46,
          "name": "A#2",
          "ticks": 14976,
          "time": 91.76466,
          "velocity": 0.7874015748031497
        },
        {
          "duration": 0.14705874999999935,
          "durationTicks": 24,
          "midi": 36,
          "name": "C2",
          "ticks": 15000,
          "time": 91.91171875,
          "velocity": 0.7874015748031497
        },
        {
          "duration": 0.14705874999999935,
          "durationTicks": 24,
          "midi": 38,
          "name": "D2",
          "ticks": 15024,
          "time": 92.0587775,
          "velocity": 0.7874015748031497
        },
        {
          "duration": 0.14705874999999935,
          "durationTicks": 24,
          "midi": 46,
          "name": "A#2",
          "ticks": 15024,
          "time": 92.0587775,
          "velocity": 0.7874015748031497
        },
        {
          "duration": 0.07352937500000678,
          "durationTicks": 12,
          "midi": 36,
          "name": "C2",
          "ticks": 15072,
          "time": 92.352895,
          "velocity": 0.7874015748031497
        },
        {
          "duration": 0.44117625000001226,
          "durationTicks": 72,
          "midi": 49,
          "name": "C#3",
          "ticks": 15072,
          "time": 92.352895,
          "velocity": 0.7874015748031497
        },
        {
          "duration": 0.07352937499999257,
          "durationTicks": 12,
          "midi": 36,
          "name": "C2",
          "ticks": 15084,
          "time": 92.42642437500001,
          "velocity": 0.7874015748031497
        },
        {
          "duration": 0.14705875000001356,
          "durationTicks": 24,
          "midi": 36,
          "name": "C2",
          "ticks": 15096,
          "time": 92.49995375,
          "velocity": 0.7874015748031497
        },
        {
          "duration": 0.14705874999999935,
          "durationTicks": 24,
          "midi": 36,
          "name": "C2",
          "ticks": 15120,
          "time": 92.64701250000002,
          "velocity": 0.7874015748031497
        },
        {
          "duration": 0.14705874999999935,
          "durationTicks": 24,
          "midi": 36,
          "name": "C2",
          "ticks": 15144,
          "time": 92.79407125000002,
          "velocity": 0.7874015748031497
        },
        {
          "duration": 0.44117624999999805,
          "durationTicks": 72,
          "midi": 49,
          "name": "C#3",
          "ticks": 15144,
          "time": 92.79407125000002,
          "velocity": 0.7874015748031497
        },
        {
          "duration": 0.07352937499999257,
          "durationTicks": 12,
          "midi": 36,
          "name": "C2",
          "ticks": 15168,
          "time": 92.94113000000002,
          "velocity": 0.7874015748031497
        },
        {
          "duration": 0.07352937500000678,
          "durationTicks": 12,
          "midi": 36,
          "name": "C2",
          "ticks": 15180,
          "time": 93.01465937500001,
          "velocity": 0.7874015748031497
        },
        {
          "duration": 0.14705874999999935,
          "durationTicks": 24,
          "midi": 36,
          "name": "C2",
          "ticks": 15192,
          "time": 93.08818875000001,
          "velocity": 0.7874015748031497
        },
        {
          "duration": 0.14705874999999935,
          "durationTicks": 24,
          "midi": 38,
          "name": "D2",
          "ticks": 15216,
          "time": 93.23524750000001,
          "velocity": 0.7874015748031497
        },
        {
          "duration": 0.14705874999999935,
          "durationTicks": 24,
          "midi": 38,
          "name": "D2",
          "ticks": 15240,
          "time": 93.38230625000001,
          "velocity": 0.7874015748031497
        },
        {
          "duration": 0.44117624999999805,
          "durationTicks": 72,
          "midi": 49,
          "name": "C#3",
          "ticks": 15264,
          "time": 93.52936500000001,
          "velocity": 0.7874015748031497
        },
        {
          "duration": 0.07352937499999257,
          "durationTicks": 12,
          "midi": 36,
          "name": "C2",
          "ticks": 15264,
          "time": 93.52936500000001,
          "velocity": 0.7874015748031497
        },
        {
          "duration": 0.07352937500000678,
          "durationTicks": 12,
          "midi": 36,
          "name": "C2",
          "ticks": 15276,
          "time": 93.602894375,
          "velocity": 0.7874015748031497
        },
        {
          "duration": 0.14705874999999935,
          "durationTicks": 24,
          "midi": 36,
          "name": "C2",
          "ticks": 15288,
          "time": 93.67642375000001,
          "velocity": 0.7874015748031497
        },
        {
          "duration": 0.14705874999999935,
          "durationTicks": 24,
          "midi": 36,
          "name": "C2",
          "ticks": 15312,
          "time": 93.82348250000001,
          "velocity": 0.7874015748031497
        },
        {
          "duration": 0.14705874999999935,
          "durationTicks": 24,
          "midi": 36,
          "name": "C2",
          "ticks": 15336,
          "time": 93.97054125000001,
          "velocity": 0.7874015748031497
        },
        {
          "duration": 0.14705874999999935,
          "durationTicks": 24,
          "midi": 38,
          "name": "D2",
          "ticks": 15360,
          "time": 94.11760000000001,
          "velocity": 0.7874015748031497
        },
        {
          "duration": 0.14705874999999935,
          "durationTicks": 24,
          "midi": 38,
          "name": "D2",
          "ticks": 15384,
          "time": 94.26465875000001,
          "velocity": 0.7874015748031497
        },
        {
          "duration": 0.14705874999999935,
          "durationTicks": 24,
          "midi": 38,
          "name": "D2",
          "ticks": 15408,
          "time": 94.41171750000001,
          "velocity": 0.7874015748031497
        },
        {
          "duration": 0.14705874999999935,
          "durationTicks": 24,
          "midi": 38,
          "name": "D2",
          "ticks": 15432,
          "time": 94.55877625000001,
          "velocity": 0.7874015748031497
        },
        {
          "duration": 0.44117624999999805,
          "durationTicks": 72,
          "midi": 49,
          "name": "C#3",
          "ticks": 15456,
          "time": 94.70583500000001,
          "velocity": 0.7874015748031497
        },
        {
          "duration": 0.14705874999999935,
          "durationTicks": 24,
          "midi": 36,
          "name": "C2",
          "ticks": 15456,
          "time": 94.70583500000001,
          "velocity": 0.7874015748031497
        },
        {
          "duration": 0.14705874999999935,
          "durationTicks": 24,
          "midi": 38,
          "name": "D2",
          "ticks": 15504,
          "time": 94.9999525,
          "velocity": 0.7874015748031497
        },
        {
          "duration": 0.44117624999999805,
          "durationTicks": 72,
          "midi": 49,
          "name": "C#3",
          "ticks": 15528,
          "time": 95.14701125,
          "velocity": 0.7874015748031497
        },
        {
          "duration": 0.14705874999999935,
          "durationTicks": 24,
          "midi": 36,
          "name": "C2",
          "ticks": 15552,
          "time": 95.29407,
          "velocity": 0.7874015748031497
        },
        {
          "duration": 0.14705874999999935,
          "durationTicks": 24,
          "midi": 36,
          "name": "C2",
          "ticks": 15576,
          "time": 95.44112875,
          "velocity": 0.7874015748031497
        },
        {
          "duration": 0.14705875000001356,
          "durationTicks": 24,
          "midi": 46,
          "name": "A#2",
          "ticks": 15600,
          "time": 95.5881875,
          "velocity": 0.7874015748031497
        },
        {
          "duration": 0.14705875000001356,
          "durationTicks": 24,
          "midi": 38,
          "name": "D2",
          "ticks": 15600,
          "time": 95.5881875,
          "velocity": 0.7874015748031497
        },
        {
          "duration": 0.14705874999999935,
          "durationTicks": 24,
          "midi": 36,
          "name": "C2",
          "ticks": 15648,
          "time": 95.88230500000002,
          "velocity": 0.7874015748031497
        },
        {
          "duration": 0.14705874999999935,
          "durationTicks": 24,
          "midi": 46,
          "name": "A#2",
          "ticks": 15648,
          "time": 95.88230500000002,
          "velocity": 0.7874015748031497
        },
        {
          "duration": 0.14705874999999935,
          "durationTicks": 24,
          "midi": 36,
          "name": "C2",
          "ticks": 15672,
          "time": 96.02936375000002,
          "velocity": 0.7874015748031497
        },
        {
          "duration": 0.14705874999999935,
          "durationTicks": 24,
          "midi": 46,
          "name": "A#2",
          "ticks": 15696,
          "time": 96.17642250000002,
          "velocity": 0.7874015748031497
        },
        {
          "duration": 0.14705874999999935,
          "durationTicks": 24,
          "midi": 38,
          "name": "D2",
          "ticks": 15696,
          "time": 96.17642250000002,
          "velocity": 0.7874015748031497
        },
        {
          "duration": 0.14705874999999935,
          "durationTicks": 24,
          "midi": 36,
          "name": "C2",
          "ticks": 15696,
          "time": 96.17642250000002,
          "velocity": 0.7874015748031497
        },
        {
          "duration": 0.14705874999999935,
          "durationTicks": 24,
          "midi": 36,
          "name": "C2",
          "ticks": 15720,
          "time": 96.32348125000001,
          "velocity": 0.7874015748031497
        },
        {
          "duration": 0.14705874999999935,
          "durationTicks": 24,
          "midi": 36,
          "name": "C2",
          "ticks": 15744,
          "time": 96.47054000000001,
          "velocity": 0.7874015748031497
        },
        {
          "duration": 0.14705874999999935,
          "durationTicks": 24,
          "midi": 46,
          "name": "A#2",
          "ticks": 15744,
          "time": 96.47054000000001,
          "velocity": 0.7874015748031497
        },
        {
          "duration": 0.14705874999999935,
          "durationTicks": 24,
          "midi": 36,
          "name": "C2",
          "ticks": 15768,
          "time": 96.61759875000001,
          "velocity": 0.7874015748031497
        },
        {
          "duration": 0.14705874999999935,
          "durationTicks": 24,
          "midi": 38,
          "name": "D2",
          "ticks": 15792,
          "time": 96.76465750000001,
          "velocity": 0.7874015748031497
        },
        {
          "duration": 0.14705874999999935,
          "durationTicks": 24,
          "midi": 46,
          "name": "A#2",
          "ticks": 15792,
          "time": 96.76465750000001,
          "velocity": 0.7874015748031497
        },
        {
          "duration": 0.14705874999999935,
          "durationTicks": 24,
          "midi": 36,
          "name": "C2",
          "ticks": 15840,
          "time": 97.05877500000001,
          "velocity": 0.7874015748031497
        },
        {
          "duration": 0.44117624999999805,
          "durationTicks": 72,
          "midi": 49,
          "name": "C#3",
          "ticks": 15840,
          "time": 97.05877500000001,
          "velocity": 0.7874015748031497
        },
        {
          "duration": 0.14705874999999935,
          "durationTicks": 24,
          "midi": 38,
          "name": "D2",
          "ticks": 15888,
          "time": 97.35289250000001,
          "velocity": 0.7874015748031497
        },
        {
          "duration": 0.44117624999999805,
          "durationTicks": 72,
          "midi": 49,
          "name": "C#3",
          "ticks": 15912,
          "time": 97.49995125000001,
          "velocity": 0.7874015748031497
        },
        {
          "duration": 0.14705874999999935,
          "durationTicks": 24,
          "midi": 36,
          "name": "C2",
          "ticks": 15936,
          "time": 97.64701000000001,
          "velocity": 0.7874015748031497
        },
        {
          "duration": 0.14705874999999935,
          "durationTicks": 24,
          "midi": 36,
          "name": "C2",
          "ticks": 15960,
          "time": 97.79406875000001,
          "velocity": 0.7874015748031497
        },
        {
          "duration": 0.14705874999999935,
          "durationTicks": 24,
          "midi": 38,
          "name": "D2",
          "ticks": 15984,
          "time": 97.94112750000001,
          "velocity": 0.7874015748031497
        },
        {
          "duration": 0.14705874999999935,
          "durationTicks": 24,
          "midi": 46,
          "name": "A#2",
          "ticks": 15984,
          "time": 97.94112750000001,
          "velocity": 0.7874015748031497
        },
        {
          "duration": 0.14705874999999935,
          "durationTicks": 24,
          "midi": 46,
          "name": "A#2",
          "ticks": 16032,
          "time": 98.235245,
          "velocity": 0.7874015748031497
        },
        {
          "duration": 0.07352937500000678,
          "durationTicks": 12,
          "midi": 36,
          "name": "C2",
          "ticks": 16032,
          "time": 98.235245,
          "velocity": 0.7874015748031497
        },
        {
          "duration": 0.07352937499999257,
          "durationTicks": 12,
          "midi": 36,
          "name": "C2",
          "ticks": 16044,
          "time": 98.30877437500001,
          "velocity": 0.7874015748031497
        },
        {
          "duration": 0.14705874999999935,
          "durationTicks": 24,
          "midi": 36,
          "name": "C2",
          "ticks": 16056,
          "time": 98.38230375,
          "velocity": 0.7874015748031497
        },
        {
          "duration": 0.14705874999999935,
          "durationTicks": 24,
          "midi": 46,
          "name": "A#2",
          "ticks": 16080,
          "time": 98.5293625,
          "velocity": 0.7874015748031497
        },
        {
          "duration": 0.14705874999999935,
          "durationTicks": 24,
          "midi": 38,
          "name": "D2",
          "ticks": 16080,
          "time": 98.5293625,
          "velocity": 0.7874015748031497
        },
        {
          "duration": 0.14705874999999935,
          "durationTicks": 24,
          "midi": 36,
          "name": "C2",
          "ticks": 16080,
          "time": 98.5293625,
          "velocity": 0.7874015748031497
        },
        {
          "duration": 0.14705875000001356,
          "durationTicks": 24,
          "midi": 36,
          "name": "C2",
          "ticks": 16104,
          "time": 98.67642125,
          "velocity": 0.7874015748031497
        },
        {
          "duration": 0.14705874999999935,
          "durationTicks": 24,
          "midi": 46,
          "name": "A#2",
          "ticks": 16128,
          "time": 98.82348000000002,
          "velocity": 0.7874015748031497
        },
        {
          "duration": 0.14705874999999935,
          "durationTicks": 24,
          "midi": 36,
          "name": "C2",
          "ticks": 16128,
          "time": 98.82348000000002,
          "velocity": 0.7874015748031497
        },
        {
          "duration": 0.14705874999999935,
          "durationTicks": 24,
          "midi": 38,
          "name": "D2",
          "ticks": 16176,
          "time": 99.11759750000002,
          "velocity": 0.7874015748031497
        },
        {
          "duration": 0.14705874999999935,
          "durationTicks": 24,
          "midi": 46,
          "name": "A#2",
          "ticks": 16176,
          "time": 99.11759750000002,
          "velocity": 0.7874015748031497
        },
        {
          "duration": 0.14705874999999935,
          "durationTicks": 24,
          "midi": 36,
          "name": "C2",
          "ticks": 16224,
          "time": 99.41171500000002,
          "velocity": 0.7874015748031497
        },
        {
          "duration": 0.44117624999999805,
          "durationTicks": 72,
          "midi": 49,
          "name": "C#3",
          "ticks": 16224,
          "time": 99.41171500000002,
          "velocity": 0.7874015748031497
        },
        {
          "duration": 0.14705874999999935,
          "durationTicks": 24,
          "midi": 38,
          "name": "D2",
          "ticks": 16272,
          "time": 99.70583250000001,
          "velocity": 0.7874015748031497
        },
        {
          "duration": 0.44117624999999805,
          "durationTicks": 72,
          "midi": 49,
          "name": "C#3",
          "ticks": 16296,
          "time": 99.85289125000001,
          "velocity": 0.7874015748031497
        },
        {
          "duration": 0.14705874999999935,
          "durationTicks": 24,
          "midi": 36,
          "name": "C2",
          "ticks": 16320,
          "time": 99.99995000000001,
          "velocity": 0.7874015748031497
        },
        {
          "duration": 0.14705874999999935,
          "durationTicks": 24,
          "midi": 36,
          "name": "C2",
          "ticks": 16344,
          "time": 100.14700875000001,
          "velocity": 0.7874015748031497
        },
        {
          "duration": 0.14705874999999935,
          "durationTicks": 24,
          "midi": 46,
          "name": "A#2",
          "ticks": 16368,
          "time": 100.29406750000001,
          "velocity": 0.7874015748031497
        },
        {
          "duration": 0.14705874999999935,
          "durationTicks": 24,
          "midi": 38,
          "name": "D2",
          "ticks": 16368,
          "time": 100.29406750000001,
          "velocity": 0.7874015748031497
        },
        {
          "duration": 0.14705874999999935,
          "durationTicks": 24,
          "midi": 36,
          "name": "C2",
          "ticks": 16416,
          "time": 100.58818500000001,
          "velocity": 0.7874015748031497
        },
        {
          "duration": 0.14705874999999935,
          "durationTicks": 24,
          "midi": 46,
          "name": "A#2",
          "ticks": 16416,
          "time": 100.58818500000001,
          "velocity": 0.7874015748031497
        },
        {
          "duration": 0.14705874999999935,
          "durationTicks": 24,
          "midi": 36,
          "name": "C2",
          "ticks": 16440,
          "time": 100.73524375000001,
          "velocity": 0.7874015748031497
        },
        {
          "duration": 0.14705874999999935,
          "durationTicks": 24,
          "midi": 46,
          "name": "A#2",
          "ticks": 16464,
          "time": 100.88230250000001,
          "velocity": 0.7874015748031497
        },
        {
          "duration": 0.14705874999999935,
          "durationTicks": 24,
          "midi": 38,
          "name": "D2",
          "ticks": 16464,
          "time": 100.88230250000001,
          "velocity": 0.7874015748031497
        },
        {
          "duration": 0.14705874999999935,
          "durationTicks": 24,
          "midi": 36,
          "name": "C2",
          "ticks": 16464,
          "time": 100.88230250000001,
          "velocity": 0.7874015748031497
        },
        {
          "duration": 0.14705874999999935,
          "durationTicks": 24,
          "midi": 36,
          "name": "C2",
          "ticks": 16488,
          "time": 101.02936125000001,
          "velocity": 0.7874015748031497
        },
        {
          "duration": 0.14705874999999935,
          "durationTicks": 24,
          "midi": 46,
          "name": "A#2",
          "ticks": 16512,
          "time": 101.17642000000001,
          "velocity": 0.7874015748031497
        },
        {
          "duration": 0.14705874999999935,
          "durationTicks": 24,
          "midi": 36,
          "name": "C2",
          "ticks": 16512,
          "time": 101.17642000000001,
          "velocity": 0.7874015748031497
        },
        {
          "duration": 0.14705874999999935,
          "durationTicks": 24,
          "midi": 36,
          "name": "C2",
          "ticks": 16536,
          "time": 101.32347875,
          "velocity": 0.7874015748031497
        },
        {
          "duration": 0.14705874999999935,
          "durationTicks": 24,
          "midi": 38,
          "name": "D2",
          "ticks": 16560,
          "time": 101.4705375,
          "velocity": 0.7874015748031497
        },
        {
          "duration": 0.14705874999999935,
          "durationTicks": 24,
          "midi": 46,
          "name": "A#2",
          "ticks": 16560,
          "time": 101.4705375,
          "velocity": 0.7874015748031497
        },
        {
          "duration": 0.44117625000001226,
          "durationTicks": 72,
          "midi": 49,
          "name": "C#3",
          "ticks": 16608,
          "time": 101.764655,
          "velocity": 0.7874015748031497
        },
        {
          "duration": 0.07352937500000678,
          "durationTicks": 12,
          "midi": 36,
          "name": "C2",
          "ticks": 16608,
          "time": 101.764655,
          "velocity": 0.7874015748031497
        },
        {
          "duration": 0.07352937499999257,
          "durationTicks": 12,
          "midi": 36,
          "name": "C2",
          "ticks": 16620,
          "time": 101.83818437500001,
          "velocity": 0.7874015748031497
        },
        {
          "duration": 0.14705875000001356,
          "durationTicks": 24,
          "midi": 36,
          "name": "C2",
          "ticks": 16632,
          "time": 101.91171375,
          "velocity": 0.7874015748031497
        },
        {
          "duration": 0.14705874999999935,
          "durationTicks": 24,
          "midi": 36,
          "name": "C2",
          "ticks": 16656,
          "time": 102.05877250000002,
          "velocity": 0.7874015748031497
        },
        {
          "duration": 0.44117624999999805,
          "durationTicks": 72,
          "midi": 49,
          "name": "C#3",
          "ticks": 16680,
          "time": 102.20583125000002,
          "velocity": 0.7874015748031497
        },
        {
          "duration": 0.14705874999999935,
          "durationTicks": 24,
          "midi": 36,
          "name": "C2",
          "ticks": 16680,
          "time": 102.20583125000002,
          "velocity": 0.7874015748031497
        },
        {
          "duration": 0.07352937499999257,
          "durationTicks": 12,
          "midi": 36,
          "name": "C2",
          "ticks": 16704,
          "time": 102.35289000000002,
          "velocity": 0.7874015748031497
        },
        {
          "duration": 0.07352937500000678,
          "durationTicks": 12,
          "midi": 36,
          "name": "C2",
          "ticks": 16716,
          "time": 102.42641937500001,
          "velocity": 0.7874015748031497
        },
        {
          "duration": 0.14705874999999935,
          "durationTicks": 24,
          "midi": 36,
          "name": "C2",
          "ticks": 16728,
          "time": 102.49994875000002,
          "velocity": 0.7874015748031497
        },
        {
          "duration": 0.14705874999999935,
          "durationTicks": 24,
          "midi": 38,
          "name": "D2",
          "ticks": 16752,
          "time": 102.64700750000002,
          "velocity": 0.7874015748031497
        },
        {
          "duration": 0.14705874999999935,
          "durationTicks": 24,
          "midi": 38,
          "name": "D2",
          "ticks": 16776,
          "time": 102.79406625000001,
          "velocity": 0.7874015748031497
        },
        {
          "duration": 0.44117624999999805,
          "durationTicks": 72,
          "midi": 49,
          "name": "C#3",
          "ticks": 16800,
          "time": 102.94112500000001,
          "velocity": 0.7874015748031497
        },
        {
          "duration": 0.07352937499999257,
          "durationTicks": 12,
          "midi": 36,
          "name": "C2",
          "ticks": 16800,
          "time": 102.94112500000001,
          "velocity": 0.7874015748031497
        },
        {
          "duration": 0.07352937500000678,
          "durationTicks": 12,
          "midi": 36,
          "name": "C2",
          "ticks": 16812,
          "time": 103.014654375,
          "velocity": 0.7874015748031497
        },
        {
          "duration": 0.14705874999999935,
          "durationTicks": 24,
          "midi": 36,
          "name": "C2",
          "ticks": 16824,
          "time": 103.08818375000001,
          "velocity": 0.7874015748031497
        },
        {
          "duration": 0.14705874999999935,
          "durationTicks": 24,
          "midi": 36,
          "name": "C2",
          "ticks": 16848,
          "time": 103.23524250000001,
          "velocity": 0.7874015748031497
        },
        {
          "duration": 0.14705874999999935,
          "durationTicks": 24,
          "midi": 36,
          "name": "C2",
          "ticks": 16872,
          "time": 103.38230125000001,
          "velocity": 0.7874015748031497
        },
        {
          "duration": 0.14705874999999935,
          "durationTicks": 24,
          "midi": 38,
          "name": "D2",
          "ticks": 16896,
          "time": 103.52936000000001,
          "velocity": 0.7874015748031497
        },
        {
          "duration": 0.14705874999999935,
          "durationTicks": 24,
          "midi": 38,
          "name": "D2",
          "ticks": 16920,
          "time": 103.67641875000001,
          "velocity": 0.7874015748031497
        },
        {
          "duration": 0.14705874999999935,
          "durationTicks": 24,
          "midi": 38,
          "name": "D2",
          "ticks": 16944,
          "time": 103.82347750000001,
          "velocity": 0.7874015748031497
        },
        {
          "duration": 0.14705874999999935,
          "durationTicks": 24,
          "midi": 38,
          "name": "D2",
          "ticks": 16968,
          "time": 103.97053625000001,
          "velocity": 0.7874015748031497
        },
        {
          "duration": 0.14705874999999935,
          "durationTicks": 24,
          "midi": 36,
          "name": "C2",
          "ticks": 16992,
          "time": 104.11759500000001,
          "velocity": 0.7874015748031497
        },
        {
          "duration": 0.44117624999999805,
          "durationTicks": 72,
          "midi": 49,
          "name": "C#3",
          "ticks": 16992,
          "time": 104.11759500000001,
          "velocity": 0.7874015748031497
        },
        {
          "duration": 0.14705874999999935,
          "durationTicks": 24,
          "midi": 36,
          "name": "C2",
          "ticks": 17016,
          "time": 104.26465375000001,
          "velocity": 0.7874015748031497
        },
        {
          "duration": 0.14705874999999935,
          "durationTicks": 24,
          "midi": 46,
          "name": "A#2",
          "ticks": 17040,
          "time": 104.41171250000001,
          "velocity": 0.7874015748031497
        },
        {
          "duration": 0.14705874999999935,
          "durationTicks": 24,
          "midi": 36,
          "name": "C2",
          "ticks": 17040,
          "time": 104.41171250000001,
          "velocity": 0.7874015748031497
        },
        {
          "duration": 0.14705874999999935,
          "durationTicks": 24,
          "midi": 36,
          "name": "C2",
          "ticks": 17064,
          "time": 104.55877125,
          "velocity": 0.7874015748031497
        },
        {
          "duration": 0.14705874999999935,
          "durationTicks": 24,
          "midi": 46,
          "name": "A#2",
          "ticks": 17088,
          "time": 104.70583,
          "velocity": 0.7874015748031497
        },
        {
          "duration": 0.14705874999999935,
          "durationTicks": 24,
          "midi": 38,
          "name": "D2",
          "ticks": 17088,
          "time": 104.70583,
          "velocity": 0.7874015748031497
        },
        {
          "duration": 0.14705875000001356,
          "durationTicks": 24,
          "midi": 36,
          "name": "C2",
          "ticks": 17136,
          "time": 104.9999475,
          "velocity": 0.7874015748031497
        },
        {
          "duration": 0.14705875000001356,
          "durationTicks": 24,
          "midi": 46,
          "name": "A#2",
          "ticks": 17136,
          "time": 104.9999475,
          "velocity": 0.7874015748031497
        },
        {
          "duration": 0.14705874999999935,
          "durationTicks": 24,
          "midi": 36,
          "name": "C2",
          "ticks": 17160,
          "time": 105.14700625000002,
          "velocity": 0.7874015748031497
        },
        {
          "duration": 0.07352937499999257,
          "durationTicks": 12,
          "midi": 36,
          "name": "C2",
          "ticks": 17184,
          "time": 105.29406500000002,
          "velocity": 0.7874015748031497
        },
        {
          "duration": 0.14705874999999935,
          "durationTicks": 24,
          "midi": 46,
          "name": "A#2",
          "ticks": 17184,
          "time": 105.29406500000002,
          "velocity": 0.7874015748031497
        },
        {
          "duration": 0.07352937500000678,
          "durationTicks": 12,
          "midi": 36,
          "name": "C2",
          "ticks": 17196,
          "time": 105.36759437500001,
          "velocity": 0.7874015748031497
        },
        {
          "duration": 0.14705874999999935,
          "durationTicks": 24,
          "midi": 36,
          "name": "C2",
          "ticks": 17208,
          "time": 105.44112375000002,
          "velocity": 0.7874015748031497
        },
        {
          "duration": 0.14705874999999935,
          "durationTicks": 24,
          "midi": 36,
          "name": "C2",
          "ticks": 17232,
          "time": 105.58818250000002,
          "velocity": 0.7874015748031497
        },
        {
          "duration": 0.14705874999999935,
          "durationTicks": 24,
          "midi": 46,
          "name": "A#2",
          "ticks": 17232,
          "time": 105.58818250000002,
          "velocity": 0.7874015748031497
        },
        {
          "duration": 0.14705874999999935,
          "durationTicks": 24,
          "midi": 36,
          "name": "C2",
          "ticks": 17256,
          "time": 105.73524125000002,
          "velocity": 0.7874015748031497
        },
        {
          "duration": 0.14705874999999935,
          "durationTicks": 24,
          "midi": 46,
          "name": "A#2",
          "ticks": 17280,
          "time": 105.88230000000001,
          "velocity": 0.7874015748031497
        },
        {
          "duration": 0.14705874999999935,
          "durationTicks": 24,
          "midi": 38,
          "name": "D2",
          "ticks": 17280,
          "time": 105.88230000000001,
          "velocity": 0.7874015748031497
        },
        {
          "duration": 0.14705874999999935,
          "durationTicks": 24,
          "midi": 36,
          "name": "C2",
          "ticks": 17328,
          "time": 106.17641750000001,
          "velocity": 0.7874015748031497
        },
        {
          "duration": 0.14705874999999935,
          "durationTicks": 24,
          "midi": 46,
          "name": "A#2",
          "ticks": 17328,
          "time": 106.17641750000001,
          "velocity": 0.7874015748031497
        },
        {
          "duration": 0.14705874999999935,
          "durationTicks": 24,
          "midi": 36,
          "name": "C2",
          "ticks": 17376,
          "time": 106.47053500000001,
          "velocity": 0.7874015748031497
        },
        {
          "duration": 0.14705874999999935,
          "durationTicks": 24,
          "midi": 46,
          "name": "A#2",
          "ticks": 17376,
          "time": 106.47053500000001,
          "velocity": 0.7874015748031497
        },
        {
          "duration": 0.14705874999999935,
          "durationTicks": 24,
          "midi": 36,
          "name": "C2",
          "ticks": 17400,
          "time": 106.61759375000001,
          "velocity": 0.7874015748031497
        },
        {
          "duration": 0.14705874999999935,
          "durationTicks": 24,
          "midi": 36,
          "name": "C2",
          "ticks": 17424,
          "time": 106.76465250000001,
          "velocity": 0.7874015748031497
        },
        {
          "duration": 0.14705874999999935,
          "durationTicks": 24,
          "midi": 46,
          "name": "A#2",
          "ticks": 17424,
          "time": 106.76465250000001,
          "velocity": 0.7874015748031497
        },
        {
          "duration": 0.14705874999999935,
          "durationTicks": 24,
          "midi": 36,
          "name": "C2",
          "ticks": 17448,
          "time": 106.91171125000001,
          "velocity": 0.7874015748031497
        },
        {
          "duration": 0.14705874999999935,
          "durationTicks": 24,
          "midi": 38,
          "name": "D2",
          "ticks": 17472,
          "time": 107.05877000000001,
          "velocity": 0.7874015748031497
        },
        {
          "duration": 0.14705874999999935,
          "durationTicks": 24,
          "midi": 46,
          "name": "A#2",
          "ticks": 17472,
          "time": 107.05877000000001,
          "velocity": 0.7874015748031497
        },
        {
          "duration": 0.14705874999999935,
          "durationTicks": 24,
          "midi": 46,
          "name": "A#2",
          "ticks": 17520,
          "time": 107.35288750000001,
          "velocity": 0.7874015748031497
        },
        {
          "duration": 0.14705874999999935,
          "durationTicks": 24,
          "midi": 36,
          "name": "C2",
          "ticks": 17520,
          "time": 107.35288750000001,
          "velocity": 0.7874015748031497
        },
        {
          "duration": 0.14705874999999935,
          "durationTicks": 24,
          "midi": 36,
          "name": "C2",
          "ticks": 17544,
          "time": 107.49994625000001,
          "velocity": 0.7874015748031497
        },
        {
          "duration": 0.14705874999999935,
          "durationTicks": 24,
          "midi": 46,
          "name": "A#2",
          "ticks": 17568,
          "time": 107.64700500000001,
          "velocity": 0.7874015748031497
        },
        {
          "duration": 0.07352937500000678,
          "durationTicks": 12,
          "midi": 36,
          "name": "C2",
          "ticks": 17568,
          "time": 107.64700500000001,
          "velocity": 0.7874015748031497
        },
        {
          "duration": 0.07352937499999257,
          "durationTicks": 12,
          "midi": 36,
          "name": "C2",
          "ticks": 17580,
          "time": 107.72053437500001,
          "velocity": 0.7874015748031497
        },
        {
          "duration": 0.14705874999999935,
          "durationTicks": 24,
          "midi": 36,
          "name": "C2",
          "ticks": 17592,
          "time": 107.79406375,
          "velocity": 0.7874015748031497
        },
        {
          "duration": 0.14705874999999935,
          "durationTicks": 24,
          "midi": 46,
          "name": "A#2",
          "ticks": 17616,
          "time": 107.9411225,
          "velocity": 0.7874015748031497
        },
        {
          "duration": 0.14705874999999935,
          "durationTicks": 24,
          "midi": 36,
          "name": "C2",
          "ticks": 17616,
          "time": 107.9411225,
          "velocity": 0.7874015748031497
        },
        {
          "duration": 0.14705874999999935,
          "durationTicks": 24,
          "midi": 36,
          "name": "C2",
          "ticks": 17640,
          "time": 108.08818125,
          "velocity": 0.7874015748031497
        },
        {
          "duration": 0.14705875000001356,
          "durationTicks": 24,
          "midi": 46,
          "name": "A#2",
          "ticks": 17664,
          "time": 108.23524,
          "velocity": 0.7874015748031497
        },
        {
          "duration": 0.14705875000001356,
          "durationTicks": 24,
          "midi": 38,
          "name": "D2",
          "ticks": 17664,
          "time": 108.23524,
          "velocity": 0.7874015748031497
        },
        {
          "duration": 0.14705874999999935,
          "durationTicks": 24,
          "midi": 36,
          "name": "C2",
          "ticks": 17712,
          "time": 108.52935750000002,
          "velocity": 0.7874015748031497
        },
        {
          "duration": 0.14705874999999935,
          "durationTicks": 24,
          "midi": 46,
          "name": "A#2",
          "ticks": 17712,
          "time": 108.52935750000002,
          "velocity": 0.7874015748031497
        },
        {
          "duration": 0.14705874999999935,
          "durationTicks": 24,
          "midi": 36,
          "name": "C2",
          "ticks": 17760,
          "time": 108.82347500000002,
          "velocity": 0.7874015748031497
        },
        {
          "duration": 0.14705874999999935,
          "durationTicks": 24,
          "midi": 46,
          "name": "A#2",
          "ticks": 17760,
          "time": 108.82347500000002,
          "velocity": 0.7874015748031497
        },
        {
          "duration": 0.14705874999999935,
          "durationTicks": 24,
          "midi": 36,
          "name": "C2",
          "ticks": 17784,
          "time": 108.97053375000002,
          "velocity": 0.7874015748031497
        },
        {
          "duration": 0.14705874999999935,
          "durationTicks": 24,
          "midi": 36,
          "name": "C2",
          "ticks": 17808,
          "time": 109.11759250000001,
          "velocity": 0.7874015748031497
        },
        {
          "duration": 0.14705874999999935,
          "durationTicks": 24,
          "midi": 46,
          "name": "A#2",
          "ticks": 17808,
          "time": 109.11759250000001,
          "velocity": 0.7874015748031497
        },
        {
          "duration": 0.14705874999999935,
          "durationTicks": 24,
          "midi": 36,
          "name": "C2",
          "ticks": 17832,
          "time": 109.26465125000001,
          "velocity": 0.7874015748031497
        },
        {
          "duration": 0.14705874999999935,
          "durationTicks": 24,
          "midi": 38,
          "name": "D2",
          "ticks": 17856,
          "time": 109.41171000000001,
          "velocity": 0.7874015748031497
        },
        {
          "duration": 0.14705874999999935,
          "durationTicks": 24,
          "midi": 46,
          "name": "A#2",
          "ticks": 17856,
          "time": 109.41171000000001,
          "velocity": 0.7874015748031497
        },
        {
          "duration": 0.14705874999999935,
          "durationTicks": 24,
          "midi": 46,
          "name": "A#2",
          "ticks": 17904,
          "time": 109.70582750000001,
          "velocity": 0.7874015748031497
        },
        {
          "duration": 0.14705874999999935,
          "durationTicks": 24,
          "midi": 36,
          "name": "C2",
          "ticks": 17904,
          "time": 109.70582750000001,
          "velocity": 0.7874015748031497
        },
        {
          "duration": 0.14705874999999935,
          "durationTicks": 24,
          "midi": 36,
          "name": "C2",
          "ticks": 17928,
          "time": 109.85288625000001,
          "velocity": 0.7874015748031497
        },
        {
          "duration": 0.07352937500000678,
          "durationTicks": 12,
          "midi": 36,
          "name": "C2",
          "ticks": 17952,
          "time": 109.99994500000001,
          "velocity": 0.7874015748031497
        },
        {
          "duration": 0.14705874999999935,
          "durationTicks": 24,
          "midi": 46,
          "name": "A#2",
          "ticks": 17952,
          "time": 109.99994500000001,
          "velocity": 0.7874015748031497
        },
        {
          "duration": 0.07352937499999257,
          "durationTicks": 12,
          "midi": 36,
          "name": "C2",
          "ticks": 17964,
          "time": 110.07347437500002,
          "velocity": 0.7874015748031497
        },
        {
          "duration": 0.14705874999999935,
          "durationTicks": 24,
          "midi": 36,
          "name": "C2",
          "ticks": 17976,
          "time": 110.14700375000001,
          "velocity": 0.7874015748031497
        },
        {
          "duration": 0.14705874999999935,
          "durationTicks": 24,
          "midi": 36,
          "name": "C2",
          "ticks": 18000,
          "time": 110.29406250000001,
          "velocity": 0.7874015748031497
        },
        {
          "duration": 0.14705874999999935,
          "durationTicks": 24,
          "midi": 46,
          "name": "A#2",
          "ticks": 18000,
          "time": 110.29406250000001,
          "velocity": 0.7874015748031497
        },
        {
          "duration": 0.14705874999999935,
          "durationTicks": 24,
          "midi": 36,
          "name": "C2",
          "ticks": 18024,
          "time": 110.44112125000001,
          "velocity": 0.7874015748031497
        },
        {
          "duration": 0.14705874999999935,
          "durationTicks": 24,
          "midi": 38,
          "name": "D2",
          "ticks": 18048,
          "time": 110.58818000000001,
          "velocity": 0.7874015748031497
        },
        {
          "duration": 0.14705874999999935,
          "durationTicks": 24,
          "midi": 46,
          "name": "A#2",
          "ticks": 18048,
          "time": 110.58818000000001,
          "velocity": 0.7874015748031497
        },
        {
          "duration": 0.14705874999999935,
          "durationTicks": 24,
          "midi": 36,
          "name": "C2",
          "ticks": 18096,
          "time": 110.8822975,
          "velocity": 0.7874015748031497
        },
        {
          "duration": 0.14705874999999935,
          "durationTicks": 24,
          "midi": 46,
          "name": "A#2",
          "ticks": 18096,
          "time": 110.8822975,
          "velocity": 0.7874015748031497
        },
        {
          "duration": 0.14705874999999935,
          "durationTicks": 24,
          "midi": 36,
          "name": "C2",
          "ticks": 18144,
          "time": 111.176415,
          "velocity": 0.7874015748031497
        },
        {
          "duration": 0.14705874999999935,
          "durationTicks": 24,
          "midi": 46,
          "name": "A#2",
          "ticks": 18144,
          "time": 111.176415,
          "velocity": 0.7874015748031497
        },
        {
          "duration": 0.14705875000001356,
          "durationTicks": 24,
          "midi": 36,
          "name": "C2",
          "ticks": 18168,
          "time": 111.32347375,
          "velocity": 0.7874015748031497
        },
        {
          "duration": 0.14705874999999935,
          "durationTicks": 24,
          "midi": 46,
          "name": "A#2",
          "ticks": 18192,
          "time": 111.47053250000002,
          "velocity": 0.7874015748031497
        },
        {
          "duration": 0.14705874999999935,
          "durationTicks": 24,
          "midi": 36,
          "name": "C2",
          "ticks": 18192,
          "time": 111.47053250000002,
          "velocity": 0.7874015748031497
        },
        {
          "duration": 0.14705874999999935,
          "durationTicks": 24,
          "midi": 36,
          "name": "C2",
          "ticks": 18216,
          "time": 111.61759125000002,
          "velocity": 0.7874015748031497
        },
        {
          "duration": 0.14705874999999935,
          "durationTicks": 24,
          "midi": 38,
          "name": "D2",
          "ticks": 18240,
          "time": 111.76465000000002,
          "velocity": 0.7874015748031497
        },
        {
          "duration": 0.14705874999999935,
          "durationTicks": 24,
          "midi": 46,
          "name": "A#2",
          "ticks": 18240,
          "time": 111.76465000000002,
          "velocity": 0.7874015748031497
        },
        {
          "duration": 0.14705874999999935,
          "durationTicks": 24,
          "midi": 36,
          "name": "C2",
          "ticks": 18288,
          "time": 112.05876750000002,
          "velocity": 0.7874015748031497
        },
        {
          "duration": 0.14705874999999935,
          "durationTicks": 24,
          "midi": 46,
          "name": "A#2",
          "ticks": 18288,
          "time": 112.05876750000002,
          "velocity": 0.7874015748031497
        },
        {
          "duration": 0.14705874999999935,
          "durationTicks": 24,
          "midi": 36,
          "name": "C2",
          "ticks": 18312,
          "time": 112.20582625000002,
          "velocity": 0.7874015748031497
        },
        {
          "duration": 0.07352937499999257,
          "durationTicks": 12,
          "midi": 36,
          "name": "C2",
          "ticks": 18336,
          "time": 112.35288500000001,
          "velocity": 0.7874015748031497
        },
        {
          "duration": 0.14705874999999935,
          "durationTicks": 24,
          "midi": 46,
          "name": "A#2",
          "ticks": 18336,
          "time": 112.35288500000001,
          "velocity": 0.7874015748031497
        },
        {
          "duration": 0.07352937500000678,
          "durationTicks": 12,
          "midi": 36,
          "name": "C2",
          "ticks": 18348,
          "time": 112.42641437500001,
          "velocity": 0.7874015748031497
        },
        {
          "duration": 0.14705874999999935,
          "durationTicks": 24,
          "midi": 36,
          "name": "C2",
          "ticks": 18360,
          "time": 112.49994375000001,
          "velocity": 0.7874015748031497
        },
        {
          "duration": 0.14705874999999935,
          "durationTicks": 24,
          "midi": 46,
          "name": "A#2",
          "ticks": 18384,
          "time": 112.64700250000001,
          "velocity": 0.7874015748031497
        },
        {
          "duration": 0.14705874999999935,
          "durationTicks": 24,
          "midi": 36,
          "name": "C2",
          "ticks": 18384,
          "time": 112.64700250000001,
          "velocity": 0.7874015748031497
        },
        {
          "duration": 0.14705874999999935,
          "durationTicks": 24,
          "midi": 36,
          "name": "C2",
          "ticks": 18408,
          "time": 112.79406125000001,
          "velocity": 0.7874015748031497
        },
        {
          "duration": 0.14705874999999935,
          "durationTicks": 24,
          "midi": 38,
          "name": "D2",
          "ticks": 18432,
          "time": 112.94112000000001,
          "velocity": 0.7874015748031497
        },
        {
          "duration": 0.14705874999999935,
          "durationTicks": 24,
          "midi": 46,
          "name": "A#2",
          "ticks": 18432,
          "time": 112.94112000000001,
          "velocity": 0.7874015748031497
        },
        {
          "duration": 0.14705874999999935,
          "durationTicks": 24,
          "midi": 36,
          "name": "C2",
          "ticks": 18480,
          "time": 113.23523750000001,
          "velocity": 0.7874015748031497
        },
        {
          "duration": 0.14705874999999935,
          "durationTicks": 24,
          "midi": 46,
          "name": "A#2",
          "ticks": 18480,
          "time": 113.23523750000001,
          "velocity": 0.7874015748031497
        },
        {
          "duration": 0.14705874999999935,
          "durationTicks": 24,
          "midi": 36,
          "name": "C2",
          "ticks": 18528,
          "time": 113.52935500000001,
          "velocity": 0.7874015748031497
        },
        {
          "duration": 0.44117624999999805,
          "durationTicks": 72,
          "midi": 49,
          "name": "C#3",
          "ticks": 18528,
          "time": 113.52935500000001,
          "velocity": 0.7874015748031497
        },
        {
          "duration": 0.14705874999999935,
          "durationTicks": 24,
          "midi": 36,
          "name": "C2",
          "ticks": 18552,
          "time": 113.67641375000001,
          "velocity": 0.7874015748031497
        },
        {
          "duration": 0.14705874999999935,
          "durationTicks": 24,
          "midi": 36,
          "name": "C2",
          "ticks": 18576,
          "time": 113.82347250000001,
          "velocity": 0.7874015748031497
        },
        {
          "duration": 0.14705874999999935,
          "durationTicks": 24,
          "midi": 46,
          "name": "A#2",
          "ticks": 18576,
          "time": 113.82347250000001,
          "velocity": 0.7874015748031497
        },
        {
          "duration": 0.14705874999999935,
          "durationTicks": 24,
          "midi": 36,
          "name": "C2",
          "ticks": 18600,
          "time": 113.97053125000001,
          "velocity": 0.7874015748031497
        },
        {
          "duration": 0.14705874999999935,
          "durationTicks": 24,
          "midi": 38,
          "name": "D2",
          "ticks": 18624,
          "time": 114.11759,
          "velocity": 0.7874015748031497
        },
        {
          "duration": 0.14705874999999935,
          "durationTicks": 24,
          "midi": 46,
          "name": "A#2",
          "ticks": 18624,
          "time": 114.11759,
          "velocity": 0.7874015748031497
        },
        {
          "duration": 0.14705875000001356,
          "durationTicks": 24,
          "midi": 36,
          "name": "C2",
          "ticks": 18672,
          "time": 114.4117075,
          "velocity": 0.7874015748031497
        },
        {
          "duration": 0.14705875000001356,
          "durationTicks": 24,
          "midi": 46,
          "name": "A#2",
          "ticks": 18672,
          "time": 114.4117075,
          "velocity": 0.7874015748031497
        },
        {
          "duration": 0.14705874999999935,
          "durationTicks": 24,
          "midi": 36,
          "name": "C2",
          "ticks": 18696,
          "time": 114.55876625000002,
          "velocity": 0.7874015748031497
        },
        {
          "duration": 0.07352937499999257,
          "durationTicks": 12,
          "midi": 36,
          "name": "C2",
          "ticks": 18720,
          "time": 114.70582500000002,
          "velocity": 0.7874015748031497
        },
        {
          "duration": 0.14705874999999935,
          "durationTicks": 24,
          "midi": 46,
          "name": "A#2",
          "ticks": 18720,
          "time": 114.70582500000002,
          "velocity": 0.7874015748031497
        },
        {
          "duration": 0.07352937500000678,
          "durationTicks": 12,
          "midi": 36,
          "name": "C2",
          "ticks": 18732,
          "time": 114.77935437500001,
          "velocity": 0.7874015748031497
        },
        {
          "duration": 0.14705874999999935,
          "durationTicks": 24,
          "midi": 36,
          "name": "C2",
          "ticks": 18744,
          "time": 114.85288375000002,
          "velocity": 0.7874015748031497
        },
        {
          "duration": 0.14705874999999935,
          "durationTicks": 24,
          "midi": 36,
          "name": "C2",
          "ticks": 18768,
          "time": 114.99994250000002,
          "velocity": 0.7874015748031497
        },
        {
          "duration": 0.14705874999999935,
          "durationTicks": 24,
          "midi": 46,
          "name": "A#2",
          "ticks": 18768,
          "time": 114.99994250000002,
          "velocity": 0.7874015748031497
        },
        {
          "duration": 0.14705874999999935,
          "durationTicks": 24,
          "midi": 36,
          "name": "C2",
          "ticks": 18792,
          "time": 115.14700125000002,
          "velocity": 0.7874015748031497
        },
        {
          "duration": 0.14705874999999935,
          "durationTicks": 24,
          "midi": 46,
          "name": "A#2",
          "ticks": 18816,
          "time": 115.29406000000002,
          "velocity": 0.7874015748031497
        },
        {
          "duration": 0.14705874999999935,
          "durationTicks": 24,
          "midi": 38,
          "name": "D2",
          "ticks": 18816,
          "time": 115.29406000000002,
          "velocity": 0.7874015748031497
        },
        {
          "duration": 0.14705874999999935,
          "durationTicks": 24,
          "midi": 36,
          "name": "C2",
          "ticks": 18864,
          "time": 115.58817750000001,
          "velocity": 0.7874015748031497
        },
        {
          "duration": 0.14705874999999935,
          "durationTicks": 24,
          "midi": 46,
          "name": "A#2",
          "ticks": 18864,
          "time": 115.58817750000001,
          "velocity": 0.7874015748031497
        },
        {
          "duration": 0.14705874999999935,
          "durationTicks": 24,
          "midi": 46,
          "name": "A#2",
          "ticks": 18912,
          "time": 115.88229500000001,
          "velocity": 0.7874015748031497
        },
        {
          "duration": 0.14705874999999935,
          "durationTicks": 24,
          "midi": 36,
          "name": "C2",
          "ticks": 18912,
          "time": 115.88229500000001,
          "velocity": 0.7874015748031497
        },
        {
          "duration": 0.14705874999999935,
          "durationTicks": 24,
          "midi": 36,
          "name": "C2",
          "ticks": 18936,
          "time": 116.02935375000001,
          "velocity": 0.7874015748031497
        },
        {
          "duration": 0.14705874999999935,
          "durationTicks": 24,
          "midi": 46,
          "name": "A#2",
          "ticks": 18960,
          "time": 116.17641250000001,
          "velocity": 0.7874015748031497
        },
        {
          "duration": 0.14705874999999935,
          "durationTicks": 24,
          "midi": 36,
          "name": "C2",
          "ticks": 18960,
          "time": 116.17641250000001,
          "velocity": 0.7874015748031497
        },
        {
          "duration": 0.14705874999999935,
          "durationTicks": 24,
          "midi": 36,
          "name": "C2",
          "ticks": 18984,
          "time": 116.32347125000001,
          "velocity": 0.7874015748031497
        },
        {
          "duration": 0.14705874999999935,
          "durationTicks": 24,
          "midi": 46,
          "name": "A#2",
          "ticks": 19008,
          "time": 116.47053000000001,
          "velocity": 0.7874015748031497
        },
        {
          "duration": 0.14705874999999935,
          "durationTicks": 24,
          "midi": 38,
          "name": "D2",
          "ticks": 19008,
          "time": 116.47053000000001,
          "velocity": 0.7874015748031497
        },
        {
          "duration": 0.14705874999999935,
          "durationTicks": 24,
          "midi": 36,
          "name": "C2",
          "ticks": 19056,
          "time": 116.76464750000001,
          "velocity": 0.7874015748031497
        },
        {
          "duration": 0.14705874999999935,
          "durationTicks": 24,
          "midi": 46,
          "name": "A#2",
          "ticks": 19056,
          "time": 116.76464750000001,
          "velocity": 0.7874015748031497
        },
        {
          "duration": 0.14705874999999935,
          "durationTicks": 24,
          "midi": 36,
          "name": "C2",
          "ticks": 19080,
          "time": 116.91170625000001,
          "velocity": 0.7874015748031497
        },
        {
          "duration": 0.14705874999999935,
          "durationTicks": 24,
          "midi": 46,
          "name": "A#2",
          "ticks": 19104,
          "time": 117.05876500000001,
          "velocity": 0.7874015748031497
        },
        {
          "duration": 0.07352937500000678,
          "durationTicks": 12,
          "midi": 36,
          "name": "C2",
          "ticks": 19104,
          "time": 117.05876500000001,
          "velocity": 0.7874015748031497
        },
        {
          "duration": 0.07352937499999257,
          "durationTicks": 12,
          "midi": 36,
          "name": "C2",
          "ticks": 19116,
          "time": 117.13229437500001,
          "velocity": 0.7874015748031497
        },
        {
          "duration": 0.14705874999999935,
          "durationTicks": 24,
          "midi": 36,
          "name": "C2",
          "ticks": 19128,
          "time": 117.20582375000001,
          "velocity": 0.7874015748031497
        },
        {
          "duration": 0.14705874999999935,
          "durationTicks": 24,
          "midi": 36,
          "name": "C2",
          "ticks": 19152,
          "time": 117.3528825,
          "velocity": 0.7874015748031497
        },
        {
          "duration": 0.14705874999999935,
          "durationTicks": 24,
          "midi": 46,
          "name": "A#2",
          "ticks": 19152,
          "time": 117.3528825,
          "velocity": 0.7874015748031497
        },
        {
          "duration": 0.14705875000001356,
          "durationTicks": 24,
          "midi": 36,
          "name": "C2",
          "ticks": 19176,
          "time": 117.49994125,
          "velocity": 0.7874015748031497
        },
        {
          "duration": 0.14705874999999935,
          "durationTicks": 24,
          "midi": 46,
          "name": "A#2",
          "ticks": 19200,
          "time": 117.64700000000002,
          "velocity": 0.7874015748031497
        },
        {
          "duration": 0.14705874999999935,
          "durationTicks": 24,
          "midi": 38,
          "name": "D2",
          "ticks": 19200,
          "time": 117.64700000000002,
          "velocity": 0.7874015748031497
        },
        {
          "duration": 0.14705874999999935,
          "durationTicks": 24,
          "midi": 46,
          "name": "A#2",
          "ticks": 19248,
          "time": 117.94111750000002,
          "velocity": 0.7874015748031497
        },
        {
          "duration": 0.14705874999999935,
          "durationTicks": 24,
          "midi": 36,
          "name": "C2",
          "ticks": 19248,
          "time": 117.94111750000002,
          "velocity": 0.7874015748031497
        },
        {
          "duration": 0.14705874999999935,
          "durationTicks": 24,
          "midi": 36,
          "name": "C2",
          "ticks": 19296,
          "time": 118.23523500000002,
          "velocity": 0.7874015748031497
        },
        {
          "duration": 0.14705874999999935,
          "durationTicks": 24,
          "midi": 46,
          "name": "A#2",
          "ticks": 19296,
          "time": 118.23523500000002,
          "velocity": 0.7874015748031497
        },
        {
          "duration": 0.14705874999999935,
          "durationTicks": 24,
          "midi": 36,
          "name": "C2",
          "ticks": 19320,
          "time": 118.38229375000002,
          "velocity": 0.7874015748031497
        },
        {
          "duration": 0.14705874999999935,
          "durationTicks": 24,
          "midi": 36,
          "name": "C2",
          "ticks": 19344,
          "time": 118.52935250000002,
          "velocity": 0.7874015748031497
        },
        {
          "duration": 0.14705874999999935,
          "durationTicks": 24,
          "midi": 46,
          "name": "A#2",
          "ticks": 19344,
          "time": 118.52935250000002,
          "velocity": 0.7874015748031497
        },
        {
          "duration": 0.14705874999999935,
          "durationTicks": 24,
          "midi": 36,
          "name": "C2",
          "ticks": 19368,
          "time": 118.67641125000002,
          "velocity": 0.7874015748031497
        },
        {
          "duration": 0.14705874999999935,
          "durationTicks": 24,
          "midi": 38,
          "name": "D2",
          "ticks": 19392,
          "time": 118.82347000000001,
          "velocity": 0.7874015748031497
        },
        {
          "duration": 0.14705874999999935,
          "durationTicks": 24,
          "midi": 46,
          "name": "A#2",
          "ticks": 19392,
          "time": 118.82347000000001,
          "velocity": 0.7874015748031497
        },
        {
          "duration": 0.14705874999999935,
          "durationTicks": 24,
          "midi": 46,
          "name": "A#2",
          "ticks": 19440,
          "time": 119.11758750000001,
          "velocity": 0.7874015748031497
        },
        {
          "duration": 0.14705874999999935,
          "durationTicks": 24,
          "midi": 36,
          "name": "C2",
          "ticks": 19440,
          "time": 119.11758750000001,
          "velocity": 0.7874015748031497
        },
        {
          "duration": 0.14705874999999935,
          "durationTicks": 24,
          "midi": 36,
          "name": "C2",
          "ticks": 19464,
          "time": 119.26464625000001,
          "velocity": 0.7874015748031497
        },
        {
          "duration": 0.07352937500000678,
          "durationTicks": 12,
          "midi": 36,
          "name": "C2",
          "ticks": 19488,
          "time": 119.41170500000001,
          "velocity": 0.7874015748031497
        },
        {
          "duration": 0.14705874999999935,
          "durationTicks": 24,
          "midi": 46,
          "name": "A#2",
          "ticks": 19488,
          "time": 119.41170500000001,
          "velocity": 0.7874015748031497
        },
        {
          "duration": 0.07352937499999257,
          "durationTicks": 12,
          "midi": 36,
          "name": "C2",
          "ticks": 19500,
          "time": 119.48523437500002,
          "velocity": 0.7874015748031497
        },
        {
          "duration": 0.14705874999999935,
          "durationTicks": 24,
          "midi": 36,
          "name": "C2",
          "ticks": 19512,
          "time": 119.55876375000001,
          "velocity": 0.7874015748031497
        },
        {
          "duration": 0.14705874999999935,
          "durationTicks": 24,
          "midi": 46,
          "name": "A#2",
          "ticks": 19536,
          "time": 119.70582250000001,
          "velocity": 0.7874015748031497
        },
        {
          "duration": 0.14705874999999935,
          "durationTicks": 24,
          "midi": 36,
          "name": "C2",
          "ticks": 19536,
          "time": 119.70582250000001,
          "velocity": 0.7874015748031497
        },
        {
          "duration": 0.14705874999999935,
          "durationTicks": 24,
          "midi": 36,
          "name": "C2",
          "ticks": 19560,
          "time": 119.85288125000001,
          "velocity": 0.7874015748031497
        },
        {
          "duration": 0.14705874999999935,
          "durationTicks": 24,
          "midi": 46,
          "name": "A#2",
          "ticks": 19584,
          "time": 119.99994000000001,
          "velocity": 0.7874015748031497
        },
        {
          "duration": 0.14705874999999935,
          "durationTicks": 24,
          "midi": 38,
          "name": "D2",
          "ticks": 19584,
          "time": 119.99994000000001,
          "velocity": 0.7874015748031497
        },
        {
          "duration": 0.14705874999999935,
          "durationTicks": 24,
          "midi": 36,
          "name": "C2",
          "ticks": 19632,
          "time": 120.29405750000001,
          "velocity": 0.7874015748031497
        },
        {
          "duration": 0.14705874999999935,
          "durationTicks": 24,
          "midi": 46,
          "name": "A#2",
          "ticks": 19632,
          "time": 120.29405750000001,
          "velocity": 0.7874015748031497
        },
        {
          "duration": 0.14705874999999935,
          "durationTicks": 24,
          "midi": 36,
          "name": "C2",
          "ticks": 19680,
          "time": 120.588175,
          "velocity": 0.7874015748031497
        },
        {
          "duration": 0.14705874999999935,
          "durationTicks": 24,
          "midi": 46,
          "name": "A#2",
          "ticks": 19680,
          "time": 120.588175,
          "velocity": 0.7874015748031497
        },
        {
          "duration": 0.44117625000001226,
          "durationTicks": 72,
          "midi": 49,
          "name": "C#3",
          "ticks": 19680,
          "time": 120.588175,
          "velocity": 0.7874015748031497
        },
        {
          "duration": 0.14705875000001356,
          "durationTicks": 24,
          "midi": 36,
          "name": "C2",
          "ticks": 19704,
          "time": 120.73523375,
          "velocity": 0.7874015748031497
        },
        {
          "duration": 0.14705874999999935,
          "durationTicks": 24,
          "midi": 46,
          "name": "A#2",
          "ticks": 19728,
          "time": 120.88229250000002,
          "velocity": 0.7874015748031497
        },
        {
          "duration": 0.14705874999999935,
          "durationTicks": 24,
          "midi": 36,
          "name": "C2",
          "ticks": 19728,
          "time": 120.88229250000002,
          "velocity": 0.7874015748031497
        },
        {
          "duration": 0.14705874999999935,
          "durationTicks": 24,
          "midi": 36,
          "name": "C2",
          "ticks": 19752,
          "time": 121.02935125000002,
          "velocity": 0.7874015748031497
        },
        {
          "duration": 0.14705874999999935,
          "durationTicks": 24,
          "midi": 38,
          "name": "D2",
          "ticks": 19776,
          "time": 121.17641000000002,
          "velocity": 0.7874015748031497
        },
        {
          "duration": 0.14705874999999935,
          "durationTicks": 24,
          "midi": 46,
          "name": "A#2",
          "ticks": 19776,
          "time": 121.17641000000002,
          "velocity": 0.7874015748031497
        },
        {
          "duration": 0.14705874999999935,
          "durationTicks": 24,
          "midi": 36,
          "name": "C2",
          "ticks": 19824,
          "time": 121.47052750000002,
          "velocity": 0.7874015748031497
        },
        {
          "duration": 0.14705874999999935,
          "durationTicks": 24,
          "midi": 46,
          "name": "A#2",
          "ticks": 19824,
          "time": 121.47052750000002,
          "velocity": 0.7874015748031497
        },
        {
          "duration": 0.14705874999999935,
          "durationTicks": 24,
          "midi": 36,
          "name": "C2",
          "ticks": 19848,
          "time": 121.61758625000002,
          "velocity": 0.7874015748031497
        },
        {
          "duration": 0.07352937499999257,
          "durationTicks": 12,
          "midi": 38,
          "name": "D2",
          "ticks": 19872,
          "time": 121.76464500000002,
          "velocity": 0.7874015748031497
        },
        {
          "duration": 0.44117624999999805,
          "durationTicks": 72,
          "midi": 49,
          "name": "C#3",
          "ticks": 19872,
          "time": 121.76464500000002,
          "velocity": 0.7874015748031497
        },
        {
          "duration": 0.07352937500000678,
          "durationTicks": 12,
          "midi": 38,
          "name": "D2",
          "ticks": 19884,
          "time": 121.83817437500001,
          "velocity": 0.7874015748031497
        },
        {
          "duration": 0.14705874999999935,
          "durationTicks": 24,
          "midi": 38,
          "name": "D2",
          "ticks": 19896,
          "time": 121.91170375000002,
          "velocity": 0.7874015748031497
        },
        {
          "duration": 0.07352937499999257,
          "durationTicks": 12,
          "midi": 36,
          "name": "C2",
          "ticks": 19920,
          "time": 122.05876250000001,
          "velocity": 0.7874015748031497
        },
        {
          "duration": 0.07352937499999257,
          "durationTicks": 12,
          "midi": 42,
          "name": "F#2",
          "ticks": 19920,
          "time": 122.05876250000001,
          "velocity": 0.7874015748031497
        },
        {
          "duration": 0.07352937500000678,
          "durationTicks": 12,
          "midi": 36,
          "name": "C2",
          "ticks": 19932,
          "time": 122.132291875,
          "velocity": 0.7874015748031497
        },
        {
          "duration": 0.07352937500000678,
          "durationTicks": 12,
          "midi": 42,
          "name": "F#2",
          "ticks": 19932,
          "time": 122.132291875,
          "velocity": 0.7874015748031497
        },
        {
          "duration": 0.07352937499999257,
          "durationTicks": 12,
          "midi": 42,
          "name": "F#2",
          "ticks": 19944,
          "time": 122.20582125000001,
          "velocity": 0.7874015748031497
        },
        {
          "duration": 0.14705874999999935,
          "durationTicks": 24,
          "midi": 36,
          "name": "C2",
          "ticks": 19944,
          "time": 122.20582125000001,
          "velocity": 0.7874015748031497
        },
        {
          "duration": 0.07352937500000678,
          "durationTicks": 12,
          "midi": 42,
          "name": "F#2",
          "ticks": 19956,
          "time": 122.279350625,
          "velocity": 0.7874015748031497
        },
        {
          "duration": 0.14705874999999935,
          "durationTicks": 24,
          "midi": 36,
          "name": "C2",
          "ticks": 19968,
          "time": 122.35288000000001,
          "velocity": 0.7874015748031497
        },
        {
          "duration": 0.07352937500000678,
          "durationTicks": 12,
          "midi": 42,
          "name": "F#2",
          "ticks": 19968,
          "time": 122.35288000000001,
          "velocity": 0.7874015748031497
        },
        {
          "duration": 0.07352937499999257,
          "durationTicks": 12,
          "midi": 42,
          "name": "F#2",
          "ticks": 19980,
          "time": 122.42640937500002,
          "velocity": 0.7874015748031497
        },
        {
          "duration": 0.07352937500000678,
          "durationTicks": 12,
          "midi": 42,
          "name": "F#2",
          "ticks": 19992,
          "time": 122.49993875000001,
          "velocity": 0.7874015748031497
        },
        {
          "duration": 0.14705874999999935,
          "durationTicks": 24,
          "midi": 36,
          "name": "C2",
          "ticks": 19992,
          "time": 122.49993875000001,
          "velocity": 0.7874015748031497
        },
        {
          "duration": 0.07352937499999257,
          "durationTicks": 12,
          "midi": 42,
          "name": "F#2",
          "ticks": 20004,
          "time": 122.57346812500002,
          "velocity": 0.7874015748031497
        },
        {
          "duration": 0.07352937500000678,
          "durationTicks": 12,
          "midi": 42,
          "name": "F#2",
          "ticks": 20016,
          "time": 122.64699750000001,
          "velocity": 0.7874015748031497
        },
        {
          "duration": 0.14705874999999935,
          "durationTicks": 24,
          "midi": 36,
          "name": "C2",
          "ticks": 20016,
          "time": 122.64699750000001,
          "velocity": 0.7874015748031497
        },
        {
          "duration": 0.07352937499999257,
          "durationTicks": 12,
          "midi": 42,
          "name": "F#2",
          "ticks": 20028,
          "time": 122.72052687500002,
          "velocity": 0.7874015748031497
        },
        {
          "duration": 0.07352937500000678,
          "durationTicks": 12,
          "midi": 42,
          "name": "F#2",
          "ticks": 20040,
          "time": 122.79405625000001,
          "velocity": 0.7874015748031497
        },
        {
          "duration": 0.14705874999999935,
          "durationTicks": 24,
          "midi": 36,
          "name": "C2",
          "ticks": 20040,
          "time": 122.79405625000001,
          "velocity": 0.7874015748031497
        },
        {
          "duration": 0.07352937499999257,
          "durationTicks": 12,
          "midi": 42,
          "name": "F#2",
          "ticks": 20052,
          "time": 122.86758562500002,
          "velocity": 0.7874015748031497
        },
        {
          "duration": 0.44117624999999805,
          "durationTicks": 72,
          "midi": 49,
          "name": "C#3",
          "ticks": 20064,
          "time": 122.94111500000001,
          "velocity": 0.7874015748031497
        },
        {
          "duration": 0.14705874999999935,
          "durationTicks": 24,
          "midi": 36,
          "name": "C2",
          "ticks": 20064,
          "time": 122.94111500000001,
          "velocity": 0.7874015748031497
        },
        {
          "duration": 0.14705874999999935,
          "durationTicks": 24,
          "midi": 38,
          "name": "D2",
          "ticks": 20112,
          "time": 123.23523250000001,
          "velocity": 0.7874015748031497
        },
        {
          "duration": 0.14705874999999935,
          "durationTicks": 24,
          "midi": 46,
          "name": "A#2",
          "ticks": 20112,
          "time": 123.23523250000001,
          "velocity": 0.7874015748031497
        },
        {
          "duration": 0.14705874999999935,
          "durationTicks": 24,
          "midi": 36,
          "name": "C2",
          "ticks": 20160,
          "time": 123.52935000000001,
          "velocity": 0.7874015748031497
        },
        {
          "duration": 0.14705874999999935,
          "durationTicks": 24,
          "midi": 46,
          "name": "A#2",
          "ticks": 20160,
          "time": 123.52935000000001,
          "velocity": 0.7874015748031497
        },
        {
          "duration": 0.14705874999999935,
          "durationTicks": 24,
          "midi": 36,
          "name": "C2",
          "ticks": 20184,
          "time": 123.67640875000001,
          "velocity": 0.7874015748031497
        },
        {
          "duration": 0.14705875000001356,
          "durationTicks": 24,
          "midi": 38,
          "name": "D2",
          "ticks": 20208,
          "time": 123.8234675,
          "velocity": 0.7874015748031497
        },
        {
          "duration": 0.14705875000001356,
          "durationTicks": 24,
          "midi": 46,
          "name": "A#2",
          "ticks": 20208,
          "time": 123.8234675,
          "velocity": 0.7874015748031497
        },
        {
          "duration": 0.14705874999999935,
          "durationTicks": 24,
          "midi": 36,
          "name": "C2",
          "ticks": 20256,
          "time": 124.11758500000002,
          "velocity": 0.7874015748031497
        },
        {
          "duration": 0.14705874999999935,
          "durationTicks": 24,
          "midi": 46,
          "name": "A#2",
          "ticks": 20256,
          "time": 124.11758500000002,
          "velocity": 0.7874015748031497
        },
        {
          "duration": 0.14705874999999935,
          "durationTicks": 24,
          "midi": 36,
          "name": "C2",
          "ticks": 20280,
          "time": 124.26464375000002,
          "velocity": 0.7874015748031497
        },
        {
          "duration": 0.14705874999999935,
          "durationTicks": 24,
          "midi": 46,
          "name": "A#2",
          "ticks": 20304,
          "time": 124.41170250000002,
          "velocity": 0.7874015748031497
        },
        {
          "duration": 0.14705874999999935,
          "durationTicks": 24,
          "midi": 38,
          "name": "D2",
          "ticks": 20304,
          "time": 124.41170250000002,
          "velocity": 0.7874015748031497
        },
        {
          "duration": 0.14705874999999935,
          "durationTicks": 24,
          "midi": 36,
          "name": "C2",
          "ticks": 20304,
          "time": 124.41170250000002,
          "velocity": 0.7874015748031497
        },
        {
          "duration": 0.14705874999999935,
          "durationTicks": 24,
          "midi": 36,
          "name": "C2",
          "ticks": 20328,
          "time": 124.55876125000002,
          "velocity": 0.7874015748031497
        },
        {
          "duration": 0.14705874999999935,
          "durationTicks": 24,
          "midi": 36,
          "name": "C2",
          "ticks": 20352,
          "time": 124.70582000000002,
          "velocity": 0.7874015748031497
        },
        {
          "duration": 0.14705874999999935,
          "durationTicks": 24,
          "midi": 46,
          "name": "A#2",
          "ticks": 20352,
          "time": 124.70582000000002,
          "velocity": 0.7874015748031497
        },
        {
          "duration": 0.14705874999999935,
          "durationTicks": 24,
          "midi": 36,
          "name": "C2",
          "ticks": 20376,
          "time": 124.85287875000002,
          "velocity": 0.7874015748031497
        },
        {
          "duration": 0.14705874999999935,
          "durationTicks": 24,
          "midi": 38,
          "name": "D2",
          "ticks": 20400,
          "time": 124.99993750000002,
          "velocity": 0.7874015748031497
        },
        {
          "duration": 0.14705874999999935,
          "durationTicks": 24,
          "midi": 46,
          "name": "A#2",
          "ticks": 20400,
          "time": 124.99993750000002,
          "velocity": 0.7874015748031497
        },
        {
          "duration": 0.14705874999999935,
          "durationTicks": 24,
          "midi": 36,
          "name": "C2",
          "ticks": 20448,
          "time": 125.29405500000001,
          "velocity": 0.7874015748031497
        },
        {
          "duration": 0.14705874999999935,
          "durationTicks": 24,
          "midi": 46,
          "name": "A#2",
          "ticks": 20448,
          "time": 125.29405500000001,
          "velocity": 0.7874015748031497
        },
        {
          "duration": 0.14705874999999935,
          "durationTicks": 24,
          "midi": 46,
          "name": "A#2",
          "ticks": 20496,
          "time": 125.58817250000001,
          "velocity": 0.7874015748031497
        },
        {
          "duration": 0.14705874999999935,
          "durationTicks": 24,
          "midi": 38,
          "name": "D2",
          "ticks": 20496,
          "time": 125.58817250000001,
          "velocity": 0.7874015748031497
        },
        {
          "duration": 0.14705874999999935,
          "durationTicks": 24,
          "midi": 46,
          "name": "A#2",
          "ticks": 20544,
          "time": 125.88229000000001,
          "velocity": 0.7874015748031497
        },
        {
          "duration": 0.14705874999999935,
          "durationTicks": 24,
          "midi": 36,
          "name": "C2",
          "ticks": 20544,
          "time": 125.88229000000001,
          "velocity": 0.7874015748031497
        },
        {
          "duration": 0.14705874999999935,
          "durationTicks": 24,
          "midi": 36,
          "name": "C2",
          "ticks": 20568,
          "time": 126.02934875000001,
          "velocity": 0.7874015748031497
        },
        {
          "duration": 0.14705874999999935,
          "durationTicks": 24,
          "midi": 38,
          "name": "D2",
          "ticks": 20592,
          "time": 126.17640750000001,
          "velocity": 0.7874015748031497
        },
        {
          "duration": 0.14705874999999935,
          "durationTicks": 24,
          "midi": 46,
          "name": "A#2",
          "ticks": 20592,
          "time": 126.17640750000001,
          "velocity": 0.7874015748031497
        },
        {
          "duration": 0.14705874999999935,
          "durationTicks": 24,
          "midi": 46,
          "name": "A#2",
          "ticks": 20640,
          "time": 126.47052500000001,
          "velocity": 0.7874015748031497
        },
        {
          "duration": 0.07352937500000678,
          "durationTicks": 12,
          "midi": 36,
          "name": "C2",
          "ticks": 20640,
          "time": 126.47052500000001,
          "velocity": 0.7874015748031497
        },
        {
          "duration": 0.07352937499999257,
          "durationTicks": 12,
          "midi": 36,
          "name": "C2",
          "ticks": 20652,
          "time": 126.54405437500002,
          "velocity": 0.7874015748031497
        },
        {
          "duration": 0.14705874999999935,
          "durationTicks": 24,
          "midi": 36,
          "name": "C2",
          "ticks": 20664,
          "time": 126.61758375000001,
          "velocity": 0.7874015748031497
        },
        {
          "duration": 0.14705874999999935,
          "durationTicks": 24,
          "midi": 46,
          "name": "A#2",
          "ticks": 20688,
          "time": 126.76464250000001,
          "velocity": 0.7874015748031497
        },
        {
          "duration": 0.14705874999999935,
          "durationTicks": 24,
          "midi": 38,
          "name": "D2",
          "ticks": 20688,
          "time": 126.76464250000001,
          "velocity": 0.7874015748031497
        },
        {
          "duration": 0.14705874999999935,
          "durationTicks": 24,
          "midi": 36,
          "name": "C2",
          "ticks": 20688,
          "time": 126.76464250000001,
          "velocity": 0.7874015748031497
        },
        {
          "duration": 0.14705874999999935,
          "durationTicks": 24,
          "midi": 36,
          "name": "C2",
          "ticks": 20712,
          "time": 126.91170125000001,
          "velocity": 0.7874015748031497
        },
        {
          "duration": 0.14705875000001356,
          "durationTicks": 24,
          "midi": 46,
          "name": "A#2",
          "ticks": 20736,
          "time": 127.05876,
          "velocity": 0.7874015748031497
        },
        {
          "duration": 0.14705875000001356,
          "durationTicks": 24,
          "midi": 36,
          "name": "C2",
          "ticks": 20736,
          "time": 127.05876,
          "velocity": 0.7874015748031497
        },
        {
          "duration": 0.14705874999999935,
          "durationTicks": 24,
          "midi": 38,
          "name": "D2",
          "ticks": 20784,
          "time": 127.35287750000002,
          "velocity": 0.7874015748031497
        },
        {
          "duration": 0.14705874999999935,
          "durationTicks": 24,
          "midi": 46,
          "name": "A#2",
          "ticks": 20784,
          "time": 127.35287750000002,
          "velocity": 0.7874015748031497
        },
        {
          "duration": 0.44117624999999805,
          "durationTicks": 72,
          "midi": 49,
          "name": "C#3",
          "ticks": 20832,
          "time": 127.64699500000002,
          "velocity": 0.7874015748031497
        },
        {
          "duration": 0.14705874999999935,
          "durationTicks": 24,
          "midi": 36,
          "name": "C2",
          "ticks": 20832,
          "time": 127.64699500000002,
          "velocity": 0.7874015748031497
        },
        {
          "duration": 0.14705874999999935,
          "durationTicks": 24,
          "midi": 38,
          "name": "D2",
          "ticks": 20880,
          "time": 127.94111250000002,
          "velocity": 0.7874015748031497
        },
        {
          "duration": 0.14705874999999935,
          "durationTicks": 24,
          "midi": 46,
          "name": "A#2",
          "ticks": 20880,
          "time": 127.94111250000002,
          "velocity": 0.7874015748031497
        },
        {
          "duration": 0.14705875000001356,
          "durationTicks": 24,
          "midi": 46,
          "name": "A#2",
          "ticks": 20928,
          "time": 128.23523,
          "velocity": 0.7874015748031497
        },
        {
          "duration": 0.14705875000001356,
          "durationTicks": 24,
          "midi": 36,
          "name": "C2",
          "ticks": 20928,
          "time": 128.23523,
          "velocity": 0.7874015748031497
        },
        {
          "duration": 0.14705874999998514,
          "durationTicks": 24,
          "midi": 36,
          "name": "C2",
          "ticks": 20952,
          "time": 128.38228875000001,
          "velocity": 0.7874015748031497
        },
        {
          "duration": 0.14705875000001356,
          "durationTicks": 24,
          "midi": 38,
          "name": "D2",
          "ticks": 20976,
          "time": 128.5293475,
          "velocity": 0.7874015748031497
        },
        {
          "duration": 0.14705875000001356,
          "durationTicks": 24,
          "midi": 46,
          "name": "A#2",
          "ticks": 20976,
          "time": 128.5293475,
          "velocity": 0.7874015748031497
        },
        {
          "duration": 0.14705874999998514,
          "durationTicks": 24,
          "midi": 46,
          "name": "A#2",
          "ticks": 21024,
          "time": 128.82346500000003,
          "velocity": 0.7874015748031497
        },
        {
          "duration": 0.14705874999998514,
          "durationTicks": 24,
          "midi": 36,
          "name": "C2",
          "ticks": 21024,
          "time": 128.82346500000003,
          "velocity": 0.7874015748031497
        },
        {
          "duration": 0.14705875000001356,
          "durationTicks": 24,
          "midi": 36,
          "name": "C2",
          "ticks": 21048,
          "time": 128.97052375,
          "velocity": 0.7874015748031497
        },
        {
          "duration": 0.14705874999998514,
          "durationTicks": 24,
          "midi": 36,
          "name": "C2",
          "ticks": 21072,
          "time": 129.11758250000003,
          "velocity": 0.7874015748031497
        },
        {
          "duration": 0.14705874999998514,
          "durationTicks": 24,
          "midi": 38,
          "name": "D2",
          "ticks": 21072,
          "time": 129.11758250000003,
          "velocity": 0.7874015748031497
        },
        {
          "duration": 0.14705874999998514,
          "durationTicks": 24,
          "midi": 46,
          "name": "A#2",
          "ticks": 21072,
          "time": 129.11758250000003,
          "velocity": 0.7874015748031497
        },
        {
          "duration": 0.14705875000001356,
          "durationTicks": 24,
          "midi": 36,
          "name": "C2",
          "ticks": 21096,
          "time": 129.26464125,
          "velocity": 0.7874015748031497
        },
        {
          "duration": 0.14705874999998514,
          "durationTicks": 24,
          "midi": 46,
          "name": "A#2",
          "ticks": 21120,
          "time": 129.41170000000002,
          "velocity": 0.7874015748031497
        },
        {
          "duration": 0.14705874999998514,
          "durationTicks": 24,
          "midi": 36,
          "name": "C2",
          "ticks": 21120,
          "time": 129.41170000000002,
          "velocity": 0.7874015748031497
        },
        {
          "duration": 0.14705875000001356,
          "durationTicks": 24,
          "midi": 36,
          "name": "C2",
          "ticks": 21144,
          "time": 129.55875875,
          "velocity": 0.7874015748031497
        },
        {
          "duration": 0.14705874999998514,
          "durationTicks": 24,
          "midi": 38,
          "name": "D2",
          "ticks": 21168,
          "time": 129.70581750000002,
          "velocity": 0.7874015748031497
        },
        {
          "duration": 0.14705874999998514,
          "durationTicks": 24,
          "midi": 46,
          "name": "A#2",
          "ticks": 21168,
          "time": 129.70581750000002,
          "velocity": 0.7874015748031497
        },
        {
          "duration": 0.14705874999998514,
          "durationTicks": 24,
          "midi": 36,
          "name": "C2",
          "ticks": 21216,
          "time": 129.99993500000002,
          "velocity": 0.7874015748031497
        },
        {
          "duration": 0.14705874999998514,
          "durationTicks": 24,
          "midi": 46,
          "name": "A#2",
          "ticks": 21216,
          "time": 129.99993500000002,
          "velocity": 0.7874015748031497
        },
        {
          "duration": 0.14705874999998514,
          "durationTicks": 24,
          "midi": 38,
          "name": "D2",
          "ticks": 21264,
          "time": 130.29405250000002,
          "velocity": 0.7874015748031497
        },
        {
          "duration": 0.14705874999998514,
          "durationTicks": 24,
          "midi": 46,
          "name": "A#2",
          "ticks": 21264,
          "time": 130.29405250000002,
          "velocity": 0.7874015748031497
        },
        {
          "duration": 0.14705874999998514,
          "durationTicks": 24,
          "midi": 46,
          "name": "A#2",
          "ticks": 21312,
          "time": 130.58817000000002,
          "velocity": 0.7874015748031497
        },
        {
          "duration": 0.14705874999998514,
          "durationTicks": 24,
          "midi": 36,
          "name": "C2",
          "ticks": 21312,
          "time": 130.58817000000002,
          "velocity": 0.7874015748031497
        },
        {
          "duration": 0.14705875000001356,
          "durationTicks": 24,
          "midi": 36,
          "name": "C2",
          "ticks": 21336,
          "time": 130.73522875,
          "velocity": 0.7874015748031497
        },
        {
          "duration": 0.14705874999998514,
          "durationTicks": 24,
          "midi": 38,
          "name": "D2",
          "ticks": 21360,
          "time": 130.88228750000002,
          "velocity": 0.7874015748031497
        },
        {
          "duration": 0.14705874999998514,
          "durationTicks": 24,
          "midi": 46,
          "name": "A#2",
          "ticks": 21360,
          "time": 130.88228750000002,
          "velocity": 0.7874015748031497
        },
        {
          "duration": 0.07352937499999257,
          "durationTicks": 12,
          "midi": 36,
          "name": "C2",
          "ticks": 21408,
          "time": 131.17640500000002,
          "velocity": 0.7874015748031497
        },
        {
          "duration": 0.14705874999998514,
          "durationTicks": 24,
          "midi": 46,
          "name": "A#2",
          "ticks": 21408,
          "time": 131.17640500000002,
          "velocity": 0.7874015748031497
        },
        {
          "duration": 0.07352937499999257,
          "durationTicks": 12,
          "midi": 36,
          "name": "C2",
          "ticks": 21420,
          "time": 131.249934375,
          "velocity": 0.7874015748031497
        },
        {
          "duration": 0.14705875000001356,
          "durationTicks": 24,
          "midi": 36,
          "name": "C2",
          "ticks": 21432,
          "time": 131.32346375,
          "velocity": 0.7874015748031497
        },
        {
          "duration": 0.14705874999998514,
          "durationTicks": 24,
          "midi": 46,
          "name": "A#2",
          "ticks": 21456,
          "time": 131.47052250000002,
          "velocity": 0.7874015748031497
        },
        {
          "duration": 0.14705874999998514,
          "durationTicks": 24,
          "midi": 38,
          "name": "D2",
          "ticks": 21456,
          "time": 131.47052250000002,
          "velocity": 0.7874015748031497
        },
        {
          "duration": 0.14705874999998514,
          "durationTicks": 24,
          "midi": 36,
          "name": "C2",
          "ticks": 21456,
          "time": 131.47052250000002,
          "velocity": 0.7874015748031497
        },
        {
          "duration": 0.14705875000001356,
          "durationTicks": 24,
          "midi": 36,
          "name": "C2",
          "ticks": 21480,
          "time": 131.61758125,
          "velocity": 0.7874015748031497
        },
        {
          "duration": 0.14705875000001356,
          "durationTicks": 24,
          "midi": 46,
          "name": "A#2",
          "ticks": 21504,
          "time": 131.76464,
          "velocity": 0.7874015748031497
        },
        {
          "duration": 0.14705875000001356,
          "durationTicks": 24,
          "midi": 36,
          "name": "C2",
          "ticks": 21504,
          "time": 131.76464,
          "velocity": 0.7874015748031497
        },
        {
          "duration": 0.14705875000001356,
          "durationTicks": 24,
          "midi": 38,
          "name": "D2",
          "ticks": 21552,
          "time": 132.0587575,
          "velocity": 0.7874015748031497
        },
        {
          "duration": 0.14705875000001356,
          "durationTicks": 24,
          "midi": 46,
          "name": "A#2",
          "ticks": 21552,
          "time": 132.0587575,
          "velocity": 0.7874015748031497
        },
        {
          "duration": 0.14705875000001356,
          "durationTicks": 24,
          "midi": 36,
          "name": "C2",
          "ticks": 21600,
          "time": 132.352875,
          "velocity": 0.7874015748031497
        },
        {
          "duration": 0.44117625000001226,
          "durationTicks": 72,
          "midi": 49,
          "name": "C#3",
          "ticks": 21600,
          "time": 132.352875,
          "velocity": 0.7874015748031497
        },
        {
          "duration": 0.14705875000001356,
          "durationTicks": 24,
          "midi": 38,
          "name": "D2",
          "ticks": 21648,
          "time": 132.6469925,
          "velocity": 0.7874015748031497
        },
        {
          "duration": 0.14705875000001356,
          "durationTicks": 24,
          "midi": 46,
          "name": "A#2",
          "ticks": 21648,
          "time": 132.6469925,
          "velocity": 0.7874015748031497
        },
        {
          "duration": 0.14705875000001356,
          "durationTicks": 24,
          "midi": 36,
          "name": "C2",
          "ticks": 21696,
          "time": 132.94111,
          "velocity": 0.7874015748031497
        },
        {
          "duration": 0.14705875000001356,
          "durationTicks": 24,
          "midi": 46,
          "name": "A#2",
          "ticks": 21696,
          "time": 132.94111,
          "velocity": 0.7874015748031497
        },
        {
          "duration": 0.14705874999998514,
          "durationTicks": 24,
          "midi": 36,
          "name": "C2",
          "ticks": 21720,
          "time": 133.08816875000002,
          "velocity": 0.7874015748031497
        },
        {
          "duration": 0.14705875000001356,
          "durationTicks": 24,
          "midi": 38,
          "name": "D2",
          "ticks": 21744,
          "time": 133.2352275,
          "velocity": 0.7874015748031497
        },
        {
          "duration": 0.14705875000001356,
          "durationTicks": 24,
          "midi": 46,
          "name": "A#2",
          "ticks": 21744,
          "time": 133.2352275,
          "velocity": 0.7874015748031497
        },
        {
          "duration": 0.14705875000001356,
          "durationTicks": 24,
          "midi": 36,
          "name": "C2",
          "ticks": 21792,
          "time": 133.529345,
          "velocity": 0.7874015748031497
        },
        {
          "duration": 0.14705875000001356,
          "durationTicks": 24,
          "midi": 46,
          "name": "A#2",
          "ticks": 21792,
          "time": 133.529345,
          "velocity": 0.7874015748031497
        },
        {
          "duration": 0.14705874999998514,
          "durationTicks": 24,
          "midi": 36,
          "name": "C2",
          "ticks": 21816,
          "time": 133.67640375000002,
          "velocity": 0.7874015748031497
        },
        {
          "duration": 0.14705875000001356,
          "durationTicks": 24,
          "midi": 46,
          "name": "A#2",
          "ticks": 21840,
          "time": 133.8234625,
          "velocity": 0.7874015748031497
        },
        {
          "duration": 0.14705875000001356,
          "durationTicks": 24,
          "midi": 38,
          "name": "D2",
          "ticks": 21840,
          "time": 133.8234625,
          "velocity": 0.7874015748031497
        },
        {
          "duration": 0.14705875000001356,
          "durationTicks": 24,
          "midi": 36,
          "name": "C2",
          "ticks": 21840,
          "time": 133.8234625,
          "velocity": 0.7874015748031497
        },
        {
          "duration": 0.14705874999998514,
          "durationTicks": 24,
          "midi": 36,
          "name": "C2",
          "ticks": 21864,
          "time": 133.97052125000002,
          "velocity": 0.7874015748031497
        },
        {
          "duration": 0.14705875000001356,
          "durationTicks": 24,
          "midi": 46,
          "name": "A#2",
          "ticks": 21888,
          "time": 134.11758,
          "velocity": 0.7874015748031497
        },
        {
          "duration": 0.14705875000001356,
          "durationTicks": 24,
          "midi": 36,
          "name": "C2",
          "ticks": 21888,
          "time": 134.11758,
          "velocity": 0.7874015748031497
        },
        {
          "duration": 0.14705874999998514,
          "durationTicks": 24,
          "midi": 36,
          "name": "C2",
          "ticks": 21912,
          "time": 134.26463875000002,
          "velocity": 0.7874015748031497
        },
        {
          "duration": 0.14705875000001356,
          "durationTicks": 24,
          "midi": 38,
          "name": "D2",
          "ticks": 21936,
          "time": 134.4116975,
          "velocity": 0.7874015748031497
        },
        {
          "duration": 0.14705875000001356,
          "durationTicks": 24,
          "midi": 46,
          "name": "A#2",
          "ticks": 21936,
          "time": 134.4116975,
          "velocity": 0.7874015748031497
        },
        {
          "duration": 0.14705875000001356,
          "durationTicks": 24,
          "midi": 36,
          "name": "C2",
          "ticks": 21984,
          "time": 134.705815,
          "velocity": 0.7874015748031497
        },
        {
          "duration": 0.14705875000001356,
          "durationTicks": 24,
          "midi": 46,
          "name": "A#2",
          "ticks": 21984,
          "time": 134.705815,
          "velocity": 0.7874015748031497
        },
        {
          "duration": 0.14705874999998514,
          "durationTicks": 24,
          "midi": 46,
          "name": "A#2",
          "ticks": 22032,
          "time": 134.99993250000003,
          "velocity": 0.7874015748031497
        },
        {
          "duration": 0.14705874999998514,
          "durationTicks": 24,
          "midi": 38,
          "name": "D2",
          "ticks": 22032,
          "time": 134.99993250000003,
          "velocity": 0.7874015748031497
        },
        {
          "duration": 0.14705874999998514,
          "durationTicks": 24,
          "midi": 36,
          "name": "C2",
          "ticks": 22080,
          "time": 135.29405000000003,
          "velocity": 0.7874015748031497
        },
        {
          "duration": 0.14705874999998514,
          "durationTicks": 24,
          "midi": 46,
          "name": "A#2",
          "ticks": 22080,
          "time": 135.29405000000003,
          "velocity": 0.7874015748031497
        },
        {
          "duration": 0.14705875000001356,
          "durationTicks": 24,
          "midi": 36,
          "name": "C2",
          "ticks": 22104,
          "time": 135.44110875,
          "velocity": 0.7874015748031497
        },
        {
          "duration": 0.14705874999998514,
          "durationTicks": 24,
          "midi": 46,
          "name": "A#2",
          "ticks": 22128,
          "time": 135.58816750000003,
          "velocity": 0.7874015748031497
        },
        {
          "duration": 0.14705874999998514,
          "durationTicks": 24,
          "midi": 38,
          "name": "D2",
          "ticks": 22128,
          "time": 135.58816750000003,
          "velocity": 0.7874015748031497
        },
        {
          "duration": 0.14705874999998514,
          "durationTicks": 24,
          "midi": 46,
          "name": "A#2",
          "ticks": 22176,
          "time": 135.88228500000002,
          "velocity": 0.7874015748031497
        },
        {
          "duration": 0.07352937499999257,
          "durationTicks": 12,
          "midi": 36,
          "name": "C2",
          "ticks": 22176,
          "time": 135.88228500000002,
          "velocity": 0.7874015748031497
        },
        {
          "duration": 0.07352937499999257,
          "durationTicks": 12,
          "midi": 36,
          "name": "C2",
          "ticks": 22188,
          "time": 135.95581437500002,
          "velocity": 0.7874015748031497
        },
        {
          "duration": 0.14705875000001356,
          "durationTicks": 24,
          "midi": 36,
          "name": "C2",
          "ticks": 22200,
          "time": 136.02934375,
          "velocity": 0.7874015748031497
        },
        {
          "duration": 0.14705874999998514,
          "durationTicks": 24,
          "midi": 46,
          "name": "A#2",
          "ticks": 22224,
          "time": 136.17640250000002,
          "velocity": 0.7874015748031497
        },
        {
          "duration": 0.14705874999998514,
          "durationTicks": 24,
          "midi": 38,
          "name": "D2",
          "ticks": 22224,
          "time": 136.17640250000002,
          "velocity": 0.7874015748031497
        },
        {
          "duration": 0.14705874999998514,
          "durationTicks": 24,
          "midi": 36,
          "name": "C2",
          "ticks": 22224,
          "time": 136.17640250000002,
          "velocity": 0.7874015748031497
        },
        {
          "duration": 0.14705875000001356,
          "durationTicks": 24,
          "midi": 36,
          "name": "C2",
          "ticks": 22248,
          "time": 136.32346125,
          "velocity": 0.7874015748031497
        },
        {
          "duration": 0.14705874999998514,
          "durationTicks": 24,
          "midi": 46,
          "name": "A#2",
          "ticks": 22272,
          "time": 136.47052000000002,
          "velocity": 0.7874015748031497
        },
        {
          "duration": 0.14705874999998514,
          "durationTicks": 24,
          "midi": 36,
          "name": "C2",
          "ticks": 22272,
          "time": 136.47052000000002,
          "velocity": 0.7874015748031497
        },
        {
          "duration": 0.14705874999998514,
          "durationTicks": 24,
          "midi": 38,
          "name": "D2",
          "ticks": 22320,
          "time": 136.76463750000002,
          "velocity": 0.7874015748031497
        },
        {
          "duration": 0.14705874999998514,
          "durationTicks": 24,
          "midi": 46,
          "name": "A#2",
          "ticks": 22320,
          "time": 136.76463750000002,
          "velocity": 0.7874015748031497
        },
        {
          "duration": 0.44117624999998384,
          "durationTicks": 72,
          "midi": 49,
          "name": "C#3",
          "ticks": 22368,
          "time": 137.05875500000002,
          "velocity": 0.7874015748031497
        },
        {
          "duration": 0.14705874999998514,
          "durationTicks": 24,
          "midi": 36,
          "name": "C2",
          "ticks": 22368,
          "time": 137.05875500000002,
          "velocity": 0.7874015748031497
        },
        {
          "duration": 0.14705874999998514,
          "durationTicks": 24,
          "midi": 46,
          "name": "A#2",
          "ticks": 22416,
          "time": 137.35287250000002,
          "velocity": 0.7874015748031497
        },
        {
          "duration": 0.14705874999998514,
          "durationTicks": 24,
          "midi": 38,
          "name": "D2",
          "ticks": 22416,
          "time": 137.35287250000002,
          "velocity": 0.7874015748031497
        },
        {
          "duration": 0.14705874999998514,
          "durationTicks": 24,
          "midi": 46,
          "name": "A#2",
          "ticks": 22464,
          "time": 137.64699000000002,
          "velocity": 0.7874015748031497
        },
        {
          "duration": 0.14705874999998514,
          "durationTicks": 24,
          "midi": 36,
          "name": "C2",
          "ticks": 22464,
          "time": 137.64699000000002,
          "velocity": 0.7874015748031497
        },
        {
          "duration": 0.14705875000001356,
          "durationTicks": 24,
          "midi": 36,
          "name": "C2",
          "ticks": 22488,
          "time": 137.79404875,
          "velocity": 0.7874015748031497
        },
        {
          "duration": 0.14705875000001356,
          "durationTicks": 24,
          "midi": 38,
          "name": "D2",
          "ticks": 22512,
          "time": 137.94110750000002,
          "velocity": 0.7874015748031497
        },
        {
          "duration": 0.14705875000001356,
          "durationTicks": 24,
          "midi": 46,
          "name": "A#2",
          "ticks": 22512,
          "time": 137.94110750000002,
          "velocity": 0.7874015748031497
        },
        {
          "duration": 0.14705875000001356,
          "durationTicks": 24,
          "midi": 46,
          "name": "A#2",
          "ticks": 22560,
          "time": 138.235225,
          "velocity": 0.7874015748031497
        },
        {
          "duration": 0.14705875000001356,
          "durationTicks": 24,
          "midi": 36,
          "name": "C2",
          "ticks": 22560,
          "time": 138.235225,
          "velocity": 0.7874015748031497
        },
        {
          "duration": 0.14705874999998514,
          "durationTicks": 24,
          "midi": 36,
          "name": "C2",
          "ticks": 22584,
          "time": 138.38228375000003,
          "velocity": 0.7874015748031497
        },
        {
          "duration": 0.14705875000001356,
          "durationTicks": 24,
          "midi": 46,
          "name": "A#2",
          "ticks": 22608,
          "time": 138.5293425,
          "velocity": 0.7874015748031497
        },
        {
          "duration": 0.14705875000001356,
          "durationTicks": 24,
          "midi": 38,
          "name": "D2",
          "ticks": 22608,
          "time": 138.5293425,
          "velocity": 0.7874015748031497
        },
        {
          "duration": 0.14705875000001356,
          "durationTicks": 24,
          "midi": 36,
          "name": "C2",
          "ticks": 22608,
          "time": 138.5293425,
          "velocity": 0.7874015748031497
        },
        {
          "duration": 0.14705874999998514,
          "durationTicks": 24,
          "midi": 36,
          "name": "C2",
          "ticks": 22632,
          "time": 138.67640125000003,
          "velocity": 0.7874015748031497
        },
        {
          "duration": 0.14705875000001356,
          "durationTicks": 24,
          "midi": 46,
          "name": "A#2",
          "ticks": 22656,
          "time": 138.82346,
          "velocity": 0.7874015748031497
        },
        {
          "duration": 0.14705875000001356,
          "durationTicks": 24,
          "midi": 36,
          "name": "C2",
          "ticks": 22656,
          "time": 138.82346,
          "velocity": 0.7874015748031497
        },
        {
          "duration": 0.14705874999998514,
          "durationTicks": 24,
          "midi": 36,
          "name": "C2",
          "ticks": 22680,
          "time": 138.97051875000002,
          "velocity": 0.7874015748031497
        },
        {
          "duration": 0.14705875000001356,
          "durationTicks": 24,
          "midi": 46,
          "name": "A#2",
          "ticks": 22704,
          "time": 139.1175775,
          "velocity": 0.7874015748031497
        },
        {
          "duration": 0.14705875000001356,
          "durationTicks": 24,
          "midi": 38,
          "name": "D2",
          "ticks": 22704,
          "time": 139.1175775,
          "velocity": 0.7874015748031497
        },
        {
          "duration": 0.14705875000001356,
          "durationTicks": 24,
          "midi": 36,
          "name": "C2",
          "ticks": 22752,
          "time": 139.411695,
          "velocity": 0.7874015748031497
        },
        {
          "duration": 0.14705875000001356,
          "durationTicks": 24,
          "midi": 46,
          "name": "A#2",
          "ticks": 22752,
          "time": 139.411695,
          "velocity": 0.7874015748031497
        },
        {
          "duration": 0.14705875000001356,
          "durationTicks": 24,
          "midi": 46,
          "name": "A#2",
          "ticks": 22800,
          "time": 139.7058125,
          "velocity": 0.7874015748031497
        },
        {
          "duration": 0.14705875000001356,
          "durationTicks": 24,
          "midi": 38,
          "name": "D2",
          "ticks": 22800,
          "time": 139.7058125,
          "velocity": 0.7874015748031497
        },
        {
          "duration": 0.14705875000001356,
          "durationTicks": 24,
          "midi": 36,
          "name": "C2",
          "ticks": 22848,
          "time": 139.99993,
          "velocity": 0.7874015748031497
        },
        {
          "duration": 0.14705875000001356,
          "durationTicks": 24,
          "midi": 46,
          "name": "A#2",
          "ticks": 22848,
          "time": 139.99993,
          "velocity": 0.7874015748031497
        },
        {
          "duration": 0.14705874999998514,
          "durationTicks": 24,
          "midi": 36,
          "name": "C2",
          "ticks": 22872,
          "time": 140.14698875000002,
          "velocity": 0.7874015748031497
        },
        {
          "duration": 0.14705875000001356,
          "durationTicks": 24,
          "midi": 46,
          "name": "A#2",
          "ticks": 22896,
          "time": 140.2940475,
          "velocity": 0.7874015748031497
        },
        {
          "duration": 0.14705875000001356,
          "durationTicks": 24,
          "midi": 38,
          "name": "D2",
          "ticks": 22896,
          "time": 140.2940475,
          "velocity": 0.7874015748031497
        },
        {
          "duration": 0.14705875000001356,
          "durationTicks": 24,
          "midi": 46,
          "name": "A#2",
          "ticks": 22944,
          "time": 140.588165,
          "velocity": 0.7874015748031497
        },
        {
          "duration": 0.07352937500002099,
          "durationTicks": 12,
          "midi": 36,
          "name": "C2",
          "ticks": 22944,
          "time": 140.588165,
          "velocity": 0.7874015748031497
        },
        {
          "duration": 0.07352937499999257,
          "durationTicks": 12,
          "midi": 36,
          "name": "C2",
          "ticks": 22956,
          "time": 140.66169437500002,
          "velocity": 0.7874015748031497
        },
        {
          "duration": 0.14705874999998514,
          "durationTicks": 24,
          "midi": 36,
          "name": "C2",
          "ticks": 22968,
          "time": 140.73522375000002,
          "velocity": 0.7874015748031497
        },
        {
          "duration": 0.14705875000001356,
          "durationTicks": 24,
          "midi": 46,
          "name": "A#2",
          "ticks": 22992,
          "time": 140.8822825,
          "velocity": 0.7874015748031497
        },
        {
          "duration": 0.14705875000001356,
          "durationTicks": 24,
          "midi": 38,
          "name": "D2",
          "ticks": 22992,
          "time": 140.8822825,
          "velocity": 0.7874015748031497
        },
        {
          "duration": 0.14705875000001356,
          "durationTicks": 24,
          "midi": 36,
          "name": "C2",
          "ticks": 22992,
          "time": 140.8822825,
          "velocity": 0.7874015748031497
        },
        {
          "duration": 0.14705874999998514,
          "durationTicks": 24,
          "midi": 36,
          "name": "C2",
          "ticks": 23016,
          "time": 141.02934125000002,
          "velocity": 0.7874015748031497
        },
        {
          "duration": 0.14705875000001356,
          "durationTicks": 24,
          "midi": 46,
          "name": "A#2",
          "ticks": 23040,
          "time": 141.1764,
          "velocity": 0.7874015748031497
        },
        {
          "duration": 0.14705875000001356,
          "durationTicks": 24,
          "midi": 36,
          "name": "C2",
          "ticks": 23040,
          "time": 141.1764,
          "velocity": 0.7874015748031497
        },
        {
          "duration": 0.14705874999998514,
          "durationTicks": 24,
          "midi": 38,
          "name": "D2",
          "ticks": 23088,
          "time": 141.47051750000003,
          "velocity": 0.7874015748031497
        },
        {
          "duration": 0.14705874999998514,
          "durationTicks": 24,
          "midi": 46,
          "name": "A#2",
          "ticks": 23088,
          "time": 141.47051750000003,
          "velocity": 0.7874015748031497
        },
        {
          "duration": 0.14705874999998514,
          "durationTicks": 24,
          "midi": 36,
          "name": "C2",
          "ticks": 23136,
          "time": 141.76463500000003,
          "velocity": 0.7874015748031497
        },
        {
          "duration": 0.44117624999998384,
          "durationTicks": 72,
          "midi": 49,
          "name": "C#3",
          "ticks": 23136,
          "time": 141.76463500000003,
          "velocity": 0.7874015748031497
        },
        {
          "duration": 0.14705874999998514,
          "durationTicks": 24,
          "midi": 38,
          "name": "D2",
          "ticks": 23184,
          "time": 142.05875250000003,
          "velocity": 0.7874015748031497
        },
        {
          "duration": 0.14705874999998514,
          "durationTicks": 24,
          "midi": 46,
          "name": "A#2",
          "ticks": 23184,
          "time": 142.05875250000003,
          "velocity": 0.7874015748031497
        },
        {
          "duration": 0.14705874999998514,
          "durationTicks": 24,
          "midi": 46,
          "name": "A#2",
          "ticks": 23232,
          "time": 142.35287000000002,
          "velocity": 0.7874015748031497
        },
        {
          "duration": 0.14705874999998514,
          "durationTicks": 24,
          "midi": 36,
          "name": "C2",
          "ticks": 23232,
          "time": 142.35287000000002,
          "velocity": 0.7874015748031497
        },
        {
          "duration": 0.14705875000001356,
          "durationTicks": 24,
          "midi": 36,
          "name": "C2",
          "ticks": 23256,
          "time": 142.49992875,
          "velocity": 0.7874015748031497
        },
        {
          "duration": 0.14705874999998514,
          "durationTicks": 24,
          "midi": 46,
          "name": "A#2",
          "ticks": 23280,
          "time": 142.64698750000002,
          "velocity": 0.7874015748031497
        },
        {
          "duration": 0.14705874999998514,
          "durationTicks": 24,
          "midi": 38,
          "name": "D2",
          "ticks": 23280,
          "time": 142.64698750000002,
          "velocity": 0.7874015748031497
        },
        {
          "duration": 0.14705874999998514,
          "durationTicks": 24,
          "midi": 36,
          "name": "C2",
          "ticks": 23328,
          "time": 142.94110500000002,
          "velocity": 0.7874015748031497
        },
        {
          "duration": 0.14705874999998514,
          "durationTicks": 24,
          "midi": 46,
          "name": "A#2",
          "ticks": 23328,
          "time": 142.94110500000002,
          "velocity": 0.7874015748031497
        },
        {
          "duration": 0.14705875000001356,
          "durationTicks": 24,
          "midi": 36,
          "name": "C2",
          "ticks": 23352,
          "time": 143.08816375,
          "velocity": 0.7874015748031497
        },
        {
          "duration": 0.14705874999998514,
          "durationTicks": 24,
          "midi": 36,
          "name": "C2",
          "ticks": 23376,
          "time": 143.23522250000002,
          "velocity": 0.7874015748031497
        },
        {
          "duration": 0.14705874999998514,
          "durationTicks": 24,
          "midi": 38,
          "name": "D2",
          "ticks": 23376,
          "time": 143.23522250000002,
          "velocity": 0.7874015748031497
        },
        {
          "duration": 0.14705874999998514,
          "durationTicks": 24,
          "midi": 46,
          "name": "A#2",
          "ticks": 23376,
          "time": 143.23522250000002,
          "velocity": 0.7874015748031497
        },
        {
          "duration": 0.14705875000001356,
          "durationTicks": 24,
          "midi": 36,
          "name": "C2",
          "ticks": 23400,
          "time": 143.38228125,
          "velocity": 0.7874015748031497
        },
        {
          "duration": 0.14705874999998514,
          "durationTicks": 24,
          "midi": 36,
          "name": "C2",
          "ticks": 23424,
          "time": 143.52934000000002,
          "velocity": 0.7874015748031497
        },
        {
          "duration": 0.14705874999998514,
          "durationTicks": 24,
          "midi": 46,
          "name": "A#2",
          "ticks": 23424,
          "time": 143.52934000000002,
          "velocity": 0.7874015748031497
        },
        {
          "duration": 0.14705875000001356,
          "durationTicks": 24,
          "midi": 36,
          "name": "C2",
          "ticks": 23448,
          "time": 143.67639875,
          "velocity": 0.7874015748031497
        },
        {
          "duration": 0.14705874999998514,
          "durationTicks": 24,
          "midi": 46,
          "name": "A#2",
          "ticks": 23472,
          "time": 143.82345750000002,
          "velocity": 0.7874015748031497
        },
        {
          "duration": 0.14705874999998514,
          "durationTicks": 24,
          "midi": 38,
          "name": "D2",
          "ticks": 23472,
          "time": 143.82345750000002,
          "velocity": 0.7874015748031497
        },
        {
          "duration": 0.14705874999998514,
          "durationTicks": 24,
          "midi": 46,
          "name": "A#2",
          "ticks": 23520,
          "time": 144.11757500000002,
          "velocity": 0.7874015748031497
        },
        {
          "duration": 0.14705874999998514,
          "durationTicks": 24,
          "midi": 36,
          "name": "C2",
          "ticks": 23520,
          "time": 144.11757500000002,
          "velocity": 0.7874015748031497
        },
        {
          "duration": 0.14705875000001356,
          "durationTicks": 24,
          "midi": 38,
          "name": "D2",
          "ticks": 23568,
          "time": 144.41169250000002,
          "velocity": 0.7874015748031497
        },
        {
          "duration": 0.14705875000001356,
          "durationTicks": 24,
          "midi": 46,
          "name": "A#2",
          "ticks": 23568,
          "time": 144.41169250000002,
          "velocity": 0.7874015748031497
        },
        {
          "duration": 0.14705875000001356,
          "durationTicks": 24,
          "midi": 36,
          "name": "C2",
          "ticks": 23616,
          "time": 144.70581,
          "velocity": 0.7874015748031497
        },
        {
          "duration": 0.14705875000001356,
          "durationTicks": 24,
          "midi": 46,
          "name": "A#2",
          "ticks": 23616,
          "time": 144.70581,
          "velocity": 0.7874015748031497
        },
        {
          "duration": 0.14705874999998514,
          "durationTicks": 24,
          "midi": 36,
          "name": "C2",
          "ticks": 23640,
          "time": 144.85286875000003,
          "velocity": 0.7874015748031497
        },
        {
          "duration": 0.14705875000001356,
          "durationTicks": 24,
          "midi": 38,
          "name": "D2",
          "ticks": 23664,
          "time": 144.9999275,
          "velocity": 0.7874015748031497
        },
        {
          "duration": 0.14705875000001356,
          "durationTicks": 24,
          "midi": 46,
          "name": "A#2",
          "ticks": 23664,
          "time": 144.9999275,
          "velocity": 0.7874015748031497
        },
        {
          "duration": 0.07352937499999257,
          "durationTicks": 12,
          "midi": 36,
          "name": "C2",
          "ticks": 23712,
          "time": 145.294045,
          "velocity": 0.7874015748031497
        },
        {
          "duration": 0.14705875000001356,
          "durationTicks": 24,
          "midi": 46,
          "name": "A#2",
          "ticks": 23712,
          "time": 145.294045,
          "velocity": 0.7874015748031497
        },
        {
          "duration": 0.07352937500002099,
          "durationTicks": 12,
          "midi": 36,
          "name": "C2",
          "ticks": 23724,
          "time": 145.367574375,
          "velocity": 0.7874015748031497
        },
        {
          "duration": 0.14705874999998514,
          "durationTicks": 24,
          "midi": 36,
          "name": "C2",
          "ticks": 23736,
          "time": 145.44110375000002,
          "velocity": 0.7874015748031497
        },
        {
          "duration": 0.14705875000001356,
          "durationTicks": 24,
          "midi": 36,
          "name": "C2",
          "ticks": 23760,
          "time": 145.5881625,
          "velocity": 0.7874015748031497
        },
        {
          "duration": 0.14705875000001356,
          "durationTicks": 24,
          "midi": 38,
          "name": "D2",
          "ticks": 23760,
          "time": 145.5881625,
          "velocity": 0.7874015748031497
        },
        {
          "duration": 0.14705875000001356,
          "durationTicks": 24,
          "midi": 46,
          "name": "A#2",
          "ticks": 23760,
          "time": 145.5881625,
          "velocity": 0.7874015748031497
        },
        {
          "duration": 0.14705874999998514,
          "durationTicks": 24,
          "midi": 36,
          "name": "C2",
          "ticks": 23784,
          "time": 145.73522125000002,
          "velocity": 0.7874015748031497
        },
        {
          "duration": 0.14705875000001356,
          "durationTicks": 24,
          "midi": 36,
          "name": "C2",
          "ticks": 23808,
          "time": 145.88228,
          "velocity": 0.7874015748031497
        },
        {
          "duration": 0.14705875000001356,
          "durationTicks": 24,
          "midi": 46,
          "name": "A#2",
          "ticks": 23808,
          "time": 145.88228,
          "velocity": 0.7874015748031497
        },
        {
          "duration": 0.14705875000001356,
          "durationTicks": 24,
          "midi": 38,
          "name": "D2",
          "ticks": 23856,
          "time": 146.1763975,
          "velocity": 0.7874015748031497
        },
        {
          "duration": 0.14705875000001356,
          "durationTicks": 24,
          "midi": 46,
          "name": "A#2",
          "ticks": 23856,
          "time": 146.1763975,
          "velocity": 0.7874015748031497
        },
        {
          "duration": 0.44117625000001226,
          "durationTicks": 72,
          "midi": 49,
          "name": "C#3",
          "ticks": 23904,
          "time": 146.470515,
          "velocity": 0.7874015748031497
        },
        {
          "duration": 0.14705875000001356,
          "durationTicks": 24,
          "midi": 36,
          "name": "C2",
          "ticks": 23904,
          "time": 146.470515,
          "velocity": 0.7874015748031497
        },
        {
          "duration": 0.14705875000001356,
          "durationTicks": 24,
          "midi": 46,
          "name": "A#2",
          "ticks": 23952,
          "time": 146.7646325,
          "velocity": 0.7874015748031497
        },
        {
          "duration": 0.14705875000001356,
          "durationTicks": 24,
          "midi": 38,
          "name": "D2",
          "ticks": 23952,
          "time": 146.7646325,
          "velocity": 0.7874015748031497
        },
        {
          "duration": 0.14705875000001356,
          "durationTicks": 24,
          "midi": 46,
          "name": "A#2",
          "ticks": 24000,
          "time": 147.05875,
          "velocity": 0.7874015748031497
        },
        {
          "duration": 0.14705875000001356,
          "durationTicks": 24,
          "midi": 36,
          "name": "C2",
          "ticks": 24000,
          "time": 147.05875,
          "velocity": 0.7874015748031497
        },
        {
          "duration": 0.14705874999998514,
          "durationTicks": 24,
          "midi": 36,
          "name": "C2",
          "ticks": 24024,
          "time": 147.20580875000002,
          "velocity": 0.7874015748031497
        },
        {
          "duration": 0.14705875000001356,
          "durationTicks": 24,
          "midi": 46,
          "name": "A#2",
          "ticks": 24048,
          "time": 147.3528675,
          "velocity": 0.7874015748031497
        },
        {
          "duration": 0.14705875000001356,
          "durationTicks": 24,
          "midi": 38,
          "name": "D2",
          "ticks": 24048,
          "time": 147.3528675,
          "velocity": 0.7874015748031497
        },
        {
          "duration": 0.14705874999998514,
          "durationTicks": 24,
          "midi": 36,
          "name": "C2",
          "ticks": 24096,
          "time": 147.64698500000003,
          "velocity": 0.7874015748031497
        },
        {
          "duration": 0.14705874999998514,
          "durationTicks": 24,
          "midi": 46,
          "name": "A#2",
          "ticks": 24096,
          "time": 147.64698500000003,
          "velocity": 0.7874015748031497
        },
        {
          "duration": 0.14705875000001356,
          "durationTicks": 24,
          "midi": 36,
          "name": "C2",
          "ticks": 24120,
          "time": 147.79404375000001,
          "velocity": 0.7874015748031497
        },
        {
          "duration": 0.14705874999998514,
          "durationTicks": 24,
          "midi": 46,
          "name": "A#2",
          "ticks": 24144,
          "time": 147.94110250000003,
          "velocity": 0.7874015748031497
        },
        {
          "duration": 0.14705874999998514,
          "durationTicks": 24,
          "midi": 38,
          "name": "D2",
          "ticks": 24144,
          "time": 147.94110250000003,
          "velocity": 0.7874015748031497
        },
        {
          "duration": 0.14705874999998514,
          "durationTicks": 24,
          "midi": 36,
          "name": "C2",
          "ticks": 24144,
          "time": 147.94110250000003,
          "velocity": 0.7874015748031497
        },
        {
          "duration": 0.14705875000001356,
          "durationTicks": 24,
          "midi": 36,
          "name": "C2",
          "ticks": 24168,
          "time": 148.08816125,
          "velocity": 0.7874015748031497
        },
        {
          "duration": 0.14705874999998514,
          "durationTicks": 24,
          "midi": 36,
          "name": "C2",
          "ticks": 24192,
          "time": 148.23522000000003,
          "velocity": 0.7874015748031497
        },
        {
          "duration": 0.14705874999998514,
          "durationTicks": 24,
          "midi": 46,
          "name": "A#2",
          "ticks": 24192,
          "time": 148.23522000000003,
          "velocity": 0.7874015748031497
        },
        {
          "duration": 0.14705875000001356,
          "durationTicks": 24,
          "midi": 36,
          "name": "C2",
          "ticks": 24216,
          "time": 148.38227875,
          "velocity": 0.7874015748031497
        },
        {
          "duration": 0.14705874999998514,
          "durationTicks": 24,
          "midi": 38,
          "name": "D2",
          "ticks": 24240,
          "time": 148.52933750000003,
          "velocity": 0.7874015748031497
        },
        {
          "duration": 0.14705874999998514,
          "durationTicks": 24,
          "midi": 46,
          "name": "A#2",
          "ticks": 24240,
          "time": 148.52933750000003,
          "velocity": 0.7874015748031497
        },
        {
          "duration": 0.14705874999998514,
          "durationTicks": 24,
          "midi": 46,
          "name": "A#2",
          "ticks": 24288,
          "time": 148.82345500000002,
          "velocity": 0.7874015748031497
        },
        {
          "duration": 0.14705874999998514,
          "durationTicks": 24,
          "midi": 36,
          "name": "C2",
          "ticks": 24288,
          "time": 148.82345500000002,
          "velocity": 0.7874015748031497
        },
        {
          "duration": 0.14705874999998514,
          "durationTicks": 24,
          "midi": 38,
          "name": "D2",
          "ticks": 24336,
          "time": 149.11757250000002,
          "velocity": 0.7874015748031497
        },
        {
          "duration": 0.14705874999998514,
          "durationTicks": 24,
          "midi": 46,
          "name": "A#2",
          "ticks": 24336,
          "time": 149.11757250000002,
          "velocity": 0.7874015748031497
        },
        {
          "duration": 0.14705874999998514,
          "durationTicks": 24,
          "midi": 46,
          "name": "A#2",
          "ticks": 24384,
          "time": 149.41169000000002,
          "velocity": 0.7874015748031497
        },
        {
          "duration": 0.14705874999998514,
          "durationTicks": 24,
          "midi": 36,
          "name": "C2",
          "ticks": 24384,
          "time": 149.41169000000002,
          "velocity": 0.7874015748031497
        },
        {
          "duration": 0.14705875000001356,
          "durationTicks": 24,
          "midi": 36,
          "name": "C2",
          "ticks": 24408,
          "time": 149.55874875,
          "velocity": 0.7874015748031497
        },
        {
          "duration": 0.14705874999998514,
          "durationTicks": 24,
          "midi": 46,
          "name": "A#2",
          "ticks": 24432,
          "time": 149.70580750000002,
          "velocity": 0.7874015748031497
        },
        {
          "duration": 0.14705874999998514,
          "durationTicks": 24,
          "midi": 38,
          "name": "D2",
          "ticks": 24432,
          "time": 149.70580750000002,
          "velocity": 0.7874015748031497
        },
        {
          "duration": 0.14705875000001356,
          "durationTicks": 24,
          "midi": 36,
          "name": "C2",
          "ticks": 24456,
          "time": 149.85286625,
          "velocity": 0.7874015748031497
        },
        {
          "duration": 0.07352937499999257,
          "durationTicks": 12,
          "midi": 36,
          "name": "C2",
          "ticks": 24480,
          "time": 149.99992500000002,
          "velocity": 0.7874015748031497
        },
        {
          "duration": 0.14705874999998514,
          "durationTicks": 24,
          "midi": 46,
          "name": "A#2",
          "ticks": 24480,
          "time": 149.99992500000002,
          "velocity": 0.7874015748031497
        },
        {
          "duration": 0.07352937499999257,
          "durationTicks": 12,
          "midi": 36,
          "name": "C2",
          "ticks": 24492,
          "time": 150.073454375,
          "velocity": 0.7874015748031497
        },
        {
          "duration": 0.14705875000001356,
          "durationTicks": 24,
          "midi": 36,
          "name": "C2",
          "ticks": 24504,
          "time": 150.14698375,
          "velocity": 0.7874015748031497
        },
        {
          "duration": 0.14705874999998514,
          "durationTicks": 24,
          "midi": 38,
          "name": "D2",
          "ticks": 24528,
          "time": 150.29404250000002,
          "velocity": 0.7874015748031497
        },
        {
          "duration": 0.14705874999998514,
          "durationTicks": 24,
          "midi": 46,
          "name": "A#2",
          "ticks": 24528,
          "time": 150.29404250000002,
          "velocity": 0.7874015748031497
        },
        {
          "duration": 0.14705875000001356,
          "durationTicks": 24,
          "midi": 38,
          "name": "D2",
          "ticks": 24576,
          "time": 150.58816000000002,
          "velocity": 0.7874015748031497
        },
        {
          "duration": 0.14705875000001356,
          "durationTicks": 24,
          "midi": 46,
          "name": "A#2",
          "ticks": 24576,
          "time": 150.58816000000002,
          "velocity": 0.7874015748031497
        },
        {
          "duration": 0.14705875000001356,
          "durationTicks": 24,
          "midi": 38,
          "name": "D2",
          "ticks": 24624,
          "time": 150.88227750000001,
          "velocity": 0.7874015748031497
        },
        {
          "duration": 0.14705875000001356,
          "durationTicks": 24,
          "midi": 46,
          "name": "A#2",
          "ticks": 24624,
          "time": 150.88227750000001,
          "velocity": 0.7874015748031497
        },
        {
          "duration": 0.14705875000001356,
          "durationTicks": 24,
          "midi": 36,
          "name": "C2",
          "ticks": 24672,
          "time": 151.176395,
          "velocity": 0.7874015748031497
        },
        {
          "duration": 0.44117625000001226,
          "durationTicks": 72,
          "midi": 49,
          "name": "C#3",
          "ticks": 24672,
          "time": 151.176395,
          "velocity": 0.7874015748031497
        },
        {
          "duration": 0.14705874999998514,
          "durationTicks": 24,
          "midi": 36,
          "name": "C2",
          "ticks": 24696,
          "time": 151.32345375000003,
          "velocity": 0.7874015748031497
        },
        {
          "duration": 0.14705875000001356,
          "durationTicks": 24,
          "midi": 36,
          "name": "C2",
          "ticks": 24720,
          "time": 151.4705125,
          "velocity": 0.7874015748031497
        },
        {
          "duration": 0.14705875000001356,
          "durationTicks": 24,
          "midi": 46,
          "name": "A#2",
          "ticks": 24720,
          "time": 151.4705125,
          "velocity": 0.7874015748031497
        },
        {
          "duration": 0.14705874999998514,
          "durationTicks": 24,
          "midi": 36,
          "name": "C2",
          "ticks": 24744,
          "time": 151.61757125000003,
          "velocity": 0.7874015748031497
        },
        {
          "duration": 0.14705875000001356,
          "durationTicks": 24,
          "midi": 38,
          "name": "D2",
          "ticks": 24768,
          "time": 151.76463,
          "velocity": 0.7874015748031497
        },
        {
          "duration": 0.14705875000001356,
          "durationTicks": 24,
          "midi": 46,
          "name": "A#2",
          "ticks": 24768,
          "time": 151.76463,
          "velocity": 0.7874015748031497
        },
        {
          "duration": 0.14705875000001356,
          "durationTicks": 24,
          "midi": 36,
          "name": "C2",
          "ticks": 24816,
          "time": 152.0587475,
          "velocity": 0.7874015748031497
        },
        {
          "duration": 0.14705875000001356,
          "durationTicks": 24,
          "midi": 46,
          "name": "A#2",
          "ticks": 24816,
          "time": 152.0587475,
          "velocity": 0.7874015748031497
        },
        {
          "duration": 0.14705874999998514,
          "durationTicks": 24,
          "midi": 36,
          "name": "C2",
          "ticks": 24840,
          "time": 152.20580625000002,
          "velocity": 0.7874015748031497
        },
        {
          "duration": 0.07352937500002099,
          "durationTicks": 12,
          "midi": 36,
          "name": "C2",
          "ticks": 24864,
          "time": 152.352865,
          "velocity": 0.7874015748031497
        },
        {
          "duration": 0.14705875000001356,
          "durationTicks": 24,
          "midi": 46,
          "name": "A#2",
          "ticks": 24864,
          "time": 152.352865,
          "velocity": 0.7874015748031497
        },
        {
          "duration": 0.07352937499999257,
          "durationTicks": 12,
          "midi": 36,
          "name": "C2",
          "ticks": 24876,
          "time": 152.42639437500003,
          "velocity": 0.7874015748031497
        },
        {
          "duration": 0.14705874999998514,
          "durationTicks": 24,
          "midi": 36,
          "name": "C2",
          "ticks": 24888,
          "time": 152.49992375000002,
          "velocity": 0.7874015748031497
        },
        {
          "duration": 0.14705875000001356,
          "durationTicks": 24,
          "midi": 46,
          "name": "A#2",
          "ticks": 24912,
          "time": 152.6469825,
          "velocity": 0.7874015748031497
        },
        {
          "duration": 0.14705875000001356,
          "durationTicks": 24,
          "midi": 36,
          "name": "C2",
          "ticks": 24912,
          "time": 152.6469825,
          "velocity": 0.7874015748031497
        },
        {
          "duration": 0.14705874999998514,
          "durationTicks": 24,
          "midi": 36,
          "name": "C2",
          "ticks": 24936,
          "time": 152.79404125000002,
          "velocity": 0.7874015748031497
        },
        {
          "duration": 0.14705875000001356,
          "durationTicks": 24,
          "midi": 46,
          "name": "A#2",
          "ticks": 24960,
          "time": 152.9411,
          "velocity": 0.7874015748031497
        },
        {
          "duration": 0.14705875000001356,
          "durationTicks": 24,
          "midi": 38,
          "name": "D2",
          "ticks": 24960,
          "time": 152.9411,
          "velocity": 0.7874015748031497
        },
        {
          "duration": 0.14705875000001356,
          "durationTicks": 24,
          "midi": 46,
          "name": "A#2",
          "ticks": 25008,
          "time": 153.2352175,
          "velocity": 0.7874015748031497
        },
        {
          "duration": 0.14705875000001356,
          "durationTicks": 24,
          "midi": 36,
          "name": "C2",
          "ticks": 25008,
          "time": 153.2352175,
          "velocity": 0.7874015748031497
        },
        {
          "duration": 0.14705875000001356,
          "durationTicks": 24,
          "midi": 46,
          "name": "A#2",
          "ticks": 25056,
          "time": 153.529335,
          "velocity": 0.7874015748031497
        },
        {
          "duration": 0.14705875000001356,
          "durationTicks": 24,
          "midi": 36,
          "name": "C2",
          "ticks": 25056,
          "time": 153.529335,
          "velocity": 0.7874015748031497
        },
        {
          "duration": 0.14705875000001356,
          "durationTicks": 24,
          "midi": 36,
          "name": "C2",
          "ticks": 25080,
          "time": 153.67639375000002,
          "velocity": 0.7874015748031497
        },
        {
          "duration": 0.14705874999998514,
          "durationTicks": 24,
          "midi": 36,
          "name": "C2",
          "ticks": 25104,
          "time": 153.82345250000003,
          "velocity": 0.7874015748031497
        },
        {
          "duration": 0.14705874999998514,
          "durationTicks": 24,
          "midi": 46,
          "name": "A#2",
          "ticks": 25104,
          "time": 153.82345250000003,
          "velocity": 0.7874015748031497
        },
        {
          "duration": 0.14705875000001356,
          "durationTicks": 24,
          "midi": 36,
          "name": "C2",
          "ticks": 25128,
          "time": 153.97051125000002,
          "velocity": 0.7874015748031497
        },
        {
          "duration": 0.14705874999998514,
          "durationTicks": 24,
          "midi": 46,
          "name": "A#2",
          "ticks": 25152,
          "time": 154.11757000000003,
          "velocity": 0.7874015748031497
        },
        {
          "duration": 0.14705874999998514,
          "durationTicks": 24,
          "midi": 38,
          "name": "D2",
          "ticks": 25152,
          "time": 154.11757000000003,
          "velocity": 0.7874015748031497
        },
        {
          "duration": 0.14705874999998514,
          "durationTicks": 24,
          "midi": 46,
          "name": "A#2",
          "ticks": 25200,
          "time": 154.41168750000003,
          "velocity": 0.7874015748031497
        },
        {
          "duration": 0.14705874999998514,
          "durationTicks": 24,
          "midi": 36,
          "name": "C2",
          "ticks": 25200,
          "time": 154.41168750000003,
          "velocity": 0.7874015748031497
        },
        {
          "duration": 0.14705875000001356,
          "durationTicks": 24,
          "midi": 36,
          "name": "C2",
          "ticks": 25224,
          "time": 154.55874625,
          "velocity": 0.7874015748031497
        },
        {
          "duration": 0.07352937499999257,
          "durationTicks": 12,
          "midi": 36,
          "name": "C2",
          "ticks": 25248,
          "time": 154.70580500000003,
          "velocity": 0.7874015748031497
        },
        {
          "duration": 0.14705874999998514,
          "durationTicks": 24,
          "midi": 46,
          "name": "A#2",
          "ticks": 25248,
          "time": 154.70580500000003,
          "velocity": 0.7874015748031497
        },
        {
          "duration": 0.07352937499999257,
          "durationTicks": 12,
          "midi": 36,
          "name": "C2",
          "ticks": 25260,
          "time": 154.77933437500002,
          "velocity": 0.7874015748031497
        },
        {
          "duration": 0.14705875000001356,
          "durationTicks": 24,
          "midi": 36,
          "name": "C2",
          "ticks": 25272,
          "time": 154.85286375,
          "velocity": 0.7874015748031497
        },
        {
          "duration": 0.14705874999998514,
          "durationTicks": 24,
          "midi": 46,
          "name": "A#2",
          "ticks": 25296,
          "time": 154.99992250000003,
          "velocity": 0.7874015748031497
        },
        {
          "duration": 0.14705874999998514,
          "durationTicks": 24,
          "midi": 36,
          "name": "C2",
          "ticks": 25296,
          "time": 154.99992250000003,
          "velocity": 0.7874015748031497
        },
        {
          "duration": 0.14705875000001356,
          "durationTicks": 24,
          "midi": 36,
          "name": "C2",
          "ticks": 25320,
          "time": 155.14698125,
          "velocity": 0.7874015748031497
        },
        {
          "duration": 0.14705874999998514,
          "durationTicks": 24,
          "midi": 38,
          "name": "D2",
          "ticks": 25344,
          "time": 155.29404000000002,
          "velocity": 0.7874015748031497
        },
        {
          "duration": 0.14705874999998514,
          "durationTicks": 24,
          "midi": 46,
          "name": "A#2",
          "ticks": 25344,
          "time": 155.29404000000002,
          "velocity": 0.7874015748031497
        },
        {
          "duration": 0.14705874999998514,
          "durationTicks": 24,
          "midi": 36,
          "name": "C2",
          "ticks": 25392,
          "time": 155.58815750000002,
          "velocity": 0.7874015748031497
        },
        {
          "duration": 0.14705874999998514,
          "durationTicks": 24,
          "midi": 46,
          "name": "A#2",
          "ticks": 25392,
          "time": 155.58815750000002,
          "velocity": 0.7874015748031497
        },
        {
          "duration": 0.07352937499999257,
          "durationTicks": 12,
          "midi": 36,
          "name": "C2",
          "ticks": 25440,
          "time": 155.88227500000002,
          "velocity": 0.7874015748031497
        },
        {
          "duration": 0.44117624999998384,
          "durationTicks": 72,
          "midi": 49,
          "name": "C#3",
          "ticks": 25440,
          "time": 155.88227500000002,
          "velocity": 0.7874015748031497
        },
        {
          "duration": 0.07352937499999257,
          "durationTicks": 12,
          "midi": 36,
          "name": "C2",
          "ticks": 25452,
          "time": 155.955804375,
          "velocity": 0.7874015748031497
        },
        {
          "duration": 0.14705875000001356,
          "durationTicks": 24,
          "midi": 36,
          "name": "C2",
          "ticks": 25464,
          "time": 156.02933375,
          "velocity": 0.7874015748031497
        },
        {
          "duration": 0.14705874999998514,
          "durationTicks": 24,
          "midi": 38,
          "name": "D2",
          "ticks": 25488,
          "time": 156.17639250000002,
          "velocity": 0.7874015748031497
        },
        {
          "duration": 0.14705874999998514,
          "durationTicks": 24,
          "midi": 46,
          "name": "A#2",
          "ticks": 25488,
          "time": 156.17639250000002,
          "velocity": 0.7874015748031497
        },
        {
          "duration": 0.07352937499999257,
          "durationTicks": 12,
          "midi": 36,
          "name": "C2",
          "ticks": 25536,
          "time": 156.47051000000002,
          "velocity": 0.7874015748031497
        },
        {
          "duration": 0.07352937499999257,
          "durationTicks": 12,
          "midi": 36,
          "name": "C2",
          "ticks": 25548,
          "time": 156.544039375,
          "velocity": 0.7874015748031497
        },
        {
          "duration": 0.14705875000001356,
          "durationTicks": 24,
          "midi": 46,
          "name": "A#2",
          "ticks": 25560,
          "time": 156.61756875,
          "velocity": 0.7874015748031497
        },
        {
          "duration": 0.14705875000001356,
          "durationTicks": 24,
          "midi": 38,
          "name": "D2",
          "ticks": 25560,
          "time": 156.61756875,
          "velocity": 0.7874015748031497
        },
        {
          "duration": 0.14705874999998514,
          "durationTicks": 24,
          "midi": 36,
          "name": "C2",
          "ticks": 25608,
          "time": 156.91168625000003,
          "velocity": 0.7874015748031497
        },
        {
          "duration": 0.14705875000001356,
          "durationTicks": 24,
          "midi": 38,
          "name": "D2",
          "ticks": 25632,
          "time": 157.05874500000002,
          "velocity": 0.7874015748031497
        },
        {
          "duration": 0.14705875000001356,
          "durationTicks": 24,
          "midi": 46,
          "name": "A#2",
          "ticks": 25632,
          "time": 157.05874500000002,
          "velocity": 0.7874015748031497
        },
        {
          "duration": 0.14705874999998514,
          "durationTicks": 24,
          "midi": 36,
          "name": "C2",
          "ticks": 25656,
          "time": 157.20580375000003,
          "velocity": 0.7874015748031497
        },
        {
          "duration": 0.14705874999998514,
          "durationTicks": 24,
          "midi": 46,
          "name": "A#2",
          "ticks": 25704,
          "time": 157.49992125000003,
          "velocity": 0.7874015748031497
        },
        {
          "duration": 0.14705874999998514,
          "durationTicks": 24,
          "midi": 36,
          "name": "C2",
          "ticks": 25704,
          "time": 157.49992125000003,
          "velocity": 0.7874015748031497
        },
        {
          "duration": 0.14705875000001356,
          "durationTicks": 24,
          "midi": 38,
          "name": "D2",
          "ticks": 25728,
          "time": 157.64698,
          "velocity": 0.7874015748031497
        },
        {
          "duration": 0.14705875000001356,
          "durationTicks": 24,
          "midi": 38,
          "name": "D2",
          "ticks": 25776,
          "time": 157.9410975,
          "velocity": 0.7874015748031497
        },
        {
          "duration": 0.14705875000001356,
          "durationTicks": 24,
          "midi": 46,
          "name": "A#2",
          "ticks": 25776,
          "time": 157.9410975,
          "velocity": 0.7874015748031497
        },
        {
          "duration": 0.44117625000001226,
          "durationTicks": 72,
          "midi": 49,
          "name": "C#3",
          "ticks": 25824,
          "time": 158.235215,
          "velocity": 0.7874015748031497
        },
        {
          "duration": 0.07352937499999257,
          "durationTicks": 12,
          "midi": 38,
          "name": "D2",
          "ticks": 25824,
          "time": 158.235215,
          "velocity": 0.7874015748031497
        },
        {
          "duration": 0.07352937500002099,
          "durationTicks": 12,
          "midi": 38,
          "name": "D2",
          "ticks": 25836,
          "time": 158.308744375,
          "velocity": 0.7874015748031497
        },
        {
          "duration": 0.14705874999998514,
          "durationTicks": 24,
          "midi": 36,
          "name": "C2",
          "ticks": 25848,
          "time": 158.38227375000002,
          "velocity": 0.7874015748031497
        },
        {
          "duration": 0.14705874999998514,
          "durationTicks": 24,
          "midi": 42,
          "name": "F#2",
          "ticks": 25848,
          "time": 158.38227375000002,
          "velocity": 0.7874015748031497
        },
        {
          "duration": 0.14705875000001356,
          "durationTicks": 24,
          "midi": 36,
          "name": "C2",
          "ticks": 25872,
          "time": 158.5293325,
          "velocity": 0.7874015748031497
        },
        {
          "duration": 0.14705875000001356,
          "durationTicks": 24,
          "midi": 42,
          "name": "F#2",
          "ticks": 25872,
          "time": 158.5293325,
          "velocity": 0.7874015748031497
        },
        {
          "duration": 0.07352937499999257,
          "durationTicks": 12,
          "midi": 38,
          "name": "D2",
          "ticks": 25896,
          "time": 158.67639125000002,
          "velocity": 0.7874015748031497
        },
        {
          "duration": 0.44117624999998384,
          "durationTicks": 72,
          "midi": 49,
          "name": "C#3",
          "ticks": 25896,
          "time": 158.67639125000002,
          "velocity": 0.7874015748031497
        },
        {
          "duration": 0.07352937499999257,
          "durationTicks": 12,
          "midi": 38,
          "name": "D2",
          "ticks": 25908,
          "time": 158.74992062500002,
          "velocity": 0.7874015748031497
        },
        {
          "duration": 0.14705875000001356,
          "durationTicks": 24,
          "midi": 42,
          "name": "F#2",
          "ticks": 25920,
          "time": 158.82345,
          "velocity": 0.7874015748031497
        },
        {
          "duration": 0.14705875000001356,
          "durationTicks": 24,
          "midi": 36,
          "name": "C2",
          "ticks": 25920,
          "time": 158.82345,
          "velocity": 0.7874015748031497
        },
        {
          "duration": 0.14705874999998514,
          "durationTicks": 24,
          "midi": 42,
          "name": "F#2",
          "ticks": 25944,
          "time": 158.97050875000002,
          "velocity": 0.7874015748031497
        },
        {
          "duration": 0.14705874999998514,
          "durationTicks": 24,
          "midi": 36,
          "name": "C2",
          "ticks": 25944,
          "time": 158.97050875000002,
          "velocity": 0.7874015748031497
        },
        {
          "duration": 0.07352937500002099,
          "durationTicks": 12,
          "midi": 38,
          "name": "D2",
          "ticks": 25968,
          "time": 159.1175675,
          "velocity": 0.7874015748031497
        },
        {
          "duration": 0.44117625000001226,
          "durationTicks": 72,
          "midi": 49,
          "name": "C#3",
          "ticks": 25968,
          "time": 159.1175675,
          "velocity": 0.7874015748031497
        },
        {
          "duration": 0.07352937499999257,
          "durationTicks": 12,
          "midi": 38,
          "name": "D2",
          "ticks": 25980,
          "time": 159.19109687500003,
          "velocity": 0.7874015748031497
        },
        {
          "duration": 0.14705874999998514,
          "durationTicks": 24,
          "midi": 42,
          "name": "F#2",
          "ticks": 25992,
          "time": 159.26462625000002,
          "velocity": 0.7874015748031497
        },
        {
          "duration": 0.14705874999998514,
          "durationTicks": 24,
          "midi": 36,
          "name": "C2",
          "ticks": 25992,
          "time": 159.26462625000002,
          "velocity": 0.7874015748031497
        },
        {
          "duration": 0.14705875000001356,
          "durationTicks": 24,
          "midi": 36,
          "name": "C2",
          "ticks": 26016,
          "time": 159.411685,
          "velocity": 0.7874015748031497
        },
        {
          "duration": 0.14705875000001356,
          "durationTicks": 24,
          "midi": 42,
          "name": "F#2",
          "ticks": 26016,
          "time": 159.411685,
          "velocity": 0.7874015748031497
        },
        {
          "duration": 0.44117625000001226,
          "durationTicks": 72,
          "midi": 49,
          "name": "C#3",
          "ticks": 26040,
          "time": 159.55874375000002,
          "velocity": 0.7874015748031497
        },
        {
          "duration": 0.07352937499999257,
          "durationTicks": 12,
          "midi": 38,
          "name": "D2",
          "ticks": 26040,
          "time": 159.55874375000002,
          "velocity": 0.7874015748031497
        },
        {
          "duration": 0.07352937499999257,
          "durationTicks": 12,
          "midi": 38,
          "name": "D2",
          "ticks": 26052,
          "time": 159.632273125,
          "velocity": 0.7874015748031497
        },
        {
          "duration": 0.14705875000001356,
          "durationTicks": 24,
          "midi": 36,
          "name": "C2",
          "ticks": 26064,
          "time": 159.7058025,
          "velocity": 0.7874015748031497
        },
        {
          "duration": 0.14705875000001356,
          "durationTicks": 24,
          "midi": 42,
          "name": "F#2",
          "ticks": 26064,
          "time": 159.7058025,
          "velocity": 0.7874015748031497
        },
        {
          "duration": 0.14705875000001356,
          "durationTicks": 24,
          "midi": 36,
          "name": "C2",
          "ticks": 26088,
          "time": 159.85286125000002,
          "velocity": 0.7874015748031497
        },
        {
          "duration": 0.14705875000001356,
          "durationTicks": 24,
          "midi": 42,
          "name": "F#2",
          "ticks": 26088,
          "time": 159.85286125000002,
          "velocity": 0.7874015748031497
        },
        {
          "duration": 0.14705874999998514,
          "durationTicks": 24,
          "midi": 46,
          "name": "A#2",
          "ticks": 26112,
          "time": 159.99992000000003,
          "velocity": 0.7874015748031497
        },
        {
          "duration": 0.07352937499999257,
          "durationTicks": 12,
          "midi": 38,
          "name": "D2",
          "ticks": 26112,
          "time": 159.99992000000003,
          "velocity": 0.7874015748031497
        },
        {
          "duration": 0.07352937499999257,
          "durationTicks": 12,
          "midi": 38,
          "name": "D2",
          "ticks": 26124,
          "time": 160.07344937500002,
          "velocity": 0.7874015748031497
        },
        {
          "duration": 0.14705875000001356,
          "durationTicks": 24,
          "midi": 42,
          "name": "F#2",
          "ticks": 26136,
          "time": 160.14697875000002,
          "velocity": 0.7874015748031497
        },
        {
          "duration": 0.14705875000001356,
          "durationTicks": 24,
          "midi": 36,
          "name": "C2",
          "ticks": 26136,
          "time": 160.14697875000002,
          "velocity": 0.7874015748031497
        },
        {
          "duration": 0.14705874999998514,
          "durationTicks": 24,
          "midi": 46,
          "name": "A#2",
          "ticks": 26160,
          "time": 160.29403750000003,
          "velocity": 0.7874015748031497
        },
        {
          "duration": 0.07352937499999257,
          "durationTicks": 12,
          "midi": 38,
          "name": "D2",
          "ticks": 26160,
          "time": 160.29403750000003,
          "velocity": 0.7874015748031497
        },
        {
          "duration": 0.07352937499999257,
          "durationTicks": 12,
          "midi": 38,
          "name": "D2",
          "ticks": 26172,
          "time": 160.36756687500002,
          "velocity": 0.7874015748031497
        },
        {
          "duration": 0.14705875000001356,
          "durationTicks": 24,
          "midi": 36,
          "name": "C2",
          "ticks": 26184,
          "time": 160.44109625000002,
          "velocity": 0.7874015748031497
        },
        {
          "duration": 0.14705875000001356,
          "durationTicks": 24,
          "midi": 42,
          "name": "F#2",
          "ticks": 26184,
          "time": 160.44109625000002,
          "velocity": 0.7874015748031497
        },
        {
          "duration": 0.14705874999998514,
          "durationTicks": 24,
          "midi": 36,
          "name": "C2",
          "ticks": 26208,
          "time": 160.58815500000003,
          "velocity": 0.7874015748031497
        },
        {
          "duration": 0.5882349999999974,
          "durationTicks": 96,
          "midi": 49,
          "name": "C#3",
          "ticks": 26208,
          "time": 160.58815500000003,
          "velocity": 0.7874015748031497
        },
        {
          "duration": 0.14705875000001356,
          "durationTicks": 24,
          "midi": 36,
          "name": "C2",
          "ticks": 26232,
          "time": 160.73521375,
          "velocity": 0.7874015748031497
        },
        {
          "duration": 0.14705875000001356,
          "durationTicks": 24,
          "midi": 42,
          "name": "F#2",
          "ticks": 26232,
          "time": 160.73521375,
          "velocity": 0.7874015748031497
        },
        {
          "duration": 0.14705874999998514,
          "durationTicks": 24,
          "midi": 42,
          "name": "F#2",
          "ticks": 26256,
          "time": 160.88227250000003,
          "velocity": 0.7874015748031497
        },
        {
          "duration": 0.07352937499999257,
          "durationTicks": 12,
          "midi": 36,
          "name": "C2",
          "ticks": 26280,
          "time": 161.02933125,
          "velocity": 0.7874015748031497
        },
        {
          "duration": 0.14705875000001356,
          "durationTicks": 24,
          "midi": 46,
          "name": "A#2",
          "ticks": 26280,
          "time": 161.02933125,
          "velocity": 0.7874015748031497
        },
        {
          "duration": 0.07352937500002099,
          "durationTicks": 12,
          "midi": 36,
          "name": "C2",
          "ticks": 26292,
          "time": 161.102860625,
          "velocity": 0.7874015748031497
        },
        {
          "duration": 0.14705874999998514,
          "durationTicks": 24,
          "midi": 36,
          "name": "C2",
          "ticks": 26304,
          "time": 161.17639000000003,
          "velocity": 0.7874015748031497
        },
        {
          "duration": 0.14705874999998514,
          "durationTicks": 24,
          "midi": 42,
          "name": "F#2",
          "ticks": 26304,
          "time": 161.17639000000003,
          "velocity": 0.7874015748031497
        },
        {
          "duration": 0.14705875000001356,
          "durationTicks": 24,
          "midi": 36,
          "name": "C2",
          "ticks": 26328,
          "time": 161.32344875,
          "velocity": 0.7874015748031497
        },
        {
          "duration": 0.14705875000001356,
          "durationTicks": 24,
          "midi": 42,
          "name": "F#2",
          "ticks": 26328,
          "time": 161.32344875,
          "velocity": 0.7874015748031497
        },
        {
          "duration": 0.07352937499999257,
          "durationTicks": 12,
          "midi": 38,
          "name": "D2",
          "ticks": 26352,
          "time": 161.47050750000002,
          "velocity": 0.7874015748031497
        },
        {
          "duration": 0.14705874999998514,
          "durationTicks": 24,
          "midi": 46,
          "name": "A#2",
          "ticks": 26352,
          "time": 161.47050750000002,
          "velocity": 0.7874015748031497
        },
        {
          "duration": 0.07352937499999257,
          "durationTicks": 12,
          "midi": 38,
          "name": "D2",
          "ticks": 26364,
          "time": 161.54403687500002,
          "velocity": 0.7874015748031497
        },
        {
          "duration": 0.14705875000001356,
          "durationTicks": 24,
          "midi": 42,
          "name": "F#2",
          "ticks": 26376,
          "time": 161.61756625,
          "velocity": 0.7874015748031497
        },
        {
          "duration": 0.14705874999998514,
          "durationTicks": 24,
          "midi": 42,
          "name": "F#2",
          "ticks": 26400,
          "time": 161.76462500000002,
          "velocity": 0.7874015748031497
        },
        {
          "duration": 0.07352937500002099,
          "durationTicks": 12,
          "midi": 36,
          "name": "C2",
          "ticks": 26424,
          "time": 161.91168375,
          "velocity": 0.7874015748031497
        },
        {
          "duration": 0.14705875000001356,
          "durationTicks": 24,
          "midi": 46,
          "name": "A#2",
          "ticks": 26424,
          "time": 161.91168375,
          "velocity": 0.7874015748031497
        },
        {
          "duration": 0.07352937499999257,
          "durationTicks": 12,
          "midi": 36,
          "name": "C2",
          "ticks": 26436,
          "time": 161.98521312500003,
          "velocity": 0.7874015748031497
        },
        {
          "duration": 0.14705874999998514,
          "durationTicks": 24,
          "midi": 42,
          "name": "F#2",
          "ticks": 26448,
          "time": 162.05874250000002,
          "velocity": 0.7874015748031497
        },
        {
          "duration": 0.14705874999998514,
          "durationTicks": 24,
          "midi": 36,
          "name": "C2",
          "ticks": 26448,
          "time": 162.05874250000002,
          "velocity": 0.7874015748031497
        },
        {
          "duration": 0.14705875000001356,
          "durationTicks": 24,
          "midi": 36,
          "name": "C2",
          "ticks": 26472,
          "time": 162.20580125,
          "velocity": 0.7874015748031497
        },
        {
          "duration": 0.14705875000001356,
          "durationTicks": 24,
          "midi": 42,
          "name": "F#2",
          "ticks": 26472,
          "time": 162.20580125,
          "velocity": 0.7874015748031497
        },
        {
          "duration": 0.07352937499999257,
          "durationTicks": 12,
          "midi": 38,
          "name": "D2",
          "ticks": 26496,
          "time": 162.35286000000002,
          "velocity": 0.7874015748031497
        },
        {
          "duration": 0.14705874999998514,
          "durationTicks": 24,
          "midi": 46,
          "name": "A#2",
          "ticks": 26496,
          "time": 162.35286000000002,
          "velocity": 0.7874015748031497
        },
        {
          "duration": 0.07352937499999257,
          "durationTicks": 12,
          "midi": 38,
          "name": "D2",
          "ticks": 26508,
          "time": 162.426389375,
          "velocity": 0.7874015748031497
        },
        {
          "duration": 0.14705875000001356,
          "durationTicks": 24,
          "midi": 42,
          "name": "F#2",
          "ticks": 26520,
          "time": 162.49991875,
          "velocity": 0.7874015748031497
        },
        {
          "duration": 0.14705874999998514,
          "durationTicks": 24,
          "midi": 46,
          "name": "A#2",
          "ticks": 26544,
          "time": 162.64697750000002,
          "velocity": 0.7874015748031497
        },
        {
          "duration": 0.14705875000001356,
          "durationTicks": 24,
          "midi": 42,
          "name": "F#2",
          "ticks": 26568,
          "time": 162.79403625,
          "velocity": 0.7874015748031497
        },
        {
          "duration": 0.14705874999998514,
          "durationTicks": 24,
          "midi": 36,
          "name": "C2",
          "ticks": 26592,
          "time": 162.94109500000002,
          "velocity": 0.7874015748031497
        },
        {
          "duration": 0.5882349999999974,
          "durationTicks": 96,
          "midi": 49,
          "name": "C#3",
          "ticks": 26592,
          "time": 162.94109500000002,
          "velocity": 0.7874015748031497
        },
        {
          "duration": 0.14705875000001356,
          "durationTicks": 24,
          "midi": 36,
          "name": "C2",
          "ticks": 26616,
          "time": 163.08815375,
          "velocity": 0.7874015748031497
        },
        {
          "duration": 0.14705875000001356,
          "durationTicks": 24,
          "midi": 42,
          "name": "F#2",
          "ticks": 26616,
          "time": 163.08815375,
          "velocity": 0.7874015748031497
        },
        {
          "duration": 0.14705875000001356,
          "durationTicks": 24,
          "midi": 42,
          "name": "F#2",
          "ticks": 26640,
          "time": 163.23521250000002,
          "velocity": 0.7874015748031497
        },
        {
          "duration": 0.07352937499999257,
          "durationTicks": 12,
          "midi": 36,
          "name": "C2",
          "ticks": 26664,
          "time": 163.38227125000003,
          "velocity": 0.7874015748031497
        },
        {
          "duration": 0.14705874999998514,
          "durationTicks": 24,
          "midi": 46,
          "name": "A#2",
          "ticks": 26664,
          "time": 163.38227125000003,
          "velocity": 0.7874015748031497
        },
        {
          "duration": 0.07352937499999257,
          "durationTicks": 12,
          "midi": 36,
          "name": "C2",
          "ticks": 26676,
          "time": 163.45580062500002,
          "velocity": 0.7874015748031497
        },
        {
          "duration": 0.14705875000001356,
          "durationTicks": 24,
          "midi": 36,
          "name": "C2",
          "ticks": 26688,
          "time": 163.52933000000002,
          "velocity": 0.7874015748031497
        },
        {
          "duration": 0.14705875000001356,
          "durationTicks": 24,
          "midi": 42,
          "name": "F#2",
          "ticks": 26688,
          "time": 163.52933000000002,
          "velocity": 0.7874015748031497
        },
        {
          "duration": 0.14705874999998514,
          "durationTicks": 24,
          "midi": 36,
          "name": "C2",
          "ticks": 26712,
          "time": 163.67638875000003,
          "velocity": 0.7874015748031497
        },
        {
          "duration": 0.14705874999998514,
          "durationTicks": 24,
          "midi": 42,
          "name": "F#2",
          "ticks": 26712,
          "time": 163.67638875000003,
          "velocity": 0.7874015748031497
        },
        {
          "duration": 0.14705875000001356,
          "durationTicks": 24,
          "midi": 46,
          "name": "A#2",
          "ticks": 26736,
          "time": 163.82344750000001,
          "velocity": 0.7874015748031497
        },
        {
          "duration": 0.07352937499999257,
          "durationTicks": 12,
          "midi": 38,
          "name": "D2",
          "ticks": 26736,
          "time": 163.82344750000001,
          "velocity": 0.7874015748031497
        },
        {
          "duration": 0.07352937500002099,
          "durationTicks": 12,
          "midi": 38,
          "name": "D2",
          "ticks": 26748,
          "time": 163.896976875,
          "velocity": 0.7874015748031497
        },
        {
          "duration": 0.14705874999998514,
          "durationTicks": 24,
          "midi": 42,
          "name": "F#2",
          "ticks": 26760,
          "time": 163.97050625000003,
          "velocity": 0.7874015748031497
        },
        {
          "duration": 0.14705875000001356,
          "durationTicks": 24,
          "midi": 42,
          "name": "F#2",
          "ticks": 26784,
          "time": 164.117565,
          "velocity": 0.7874015748031497
        },
        {
          "duration": 0.14705874999998514,
          "durationTicks": 24,
          "midi": 46,
          "name": "A#2",
          "ticks": 26808,
          "time": 164.26462375000003,
          "velocity": 0.7874015748031497
        },
        {
          "duration": 0.07352937499999257,
          "durationTicks": 12,
          "midi": 36,
          "name": "C2",
          "ticks": 26808,
          "time": 164.26462375000003,
          "velocity": 0.7874015748031497
        },
        {
          "duration": 0.07352937499999257,
          "durationTicks": 12,
          "midi": 36,
          "name": "C2",
          "ticks": 26820,
          "time": 164.33815312500002,
          "velocity": 0.7874015748031497
        },
        {
          "duration": 0.14705875000001356,
          "durationTicks": 24,
          "midi": 42,
          "name": "F#2",
          "ticks": 26832,
          "time": 164.4116825,
          "velocity": 0.7874015748031497
        },
        {
          "duration": 0.14705875000001356,
          "durationTicks": 24,
          "midi": 36,
          "name": "C2",
          "ticks": 26832,
          "time": 164.4116825,
          "velocity": 0.7874015748031497
        },
        {
          "duration": 0.14705874999998514,
          "durationTicks": 24,
          "midi": 42,
          "name": "F#2",
          "ticks": 26856,
          "time": 164.55874125000003,
          "velocity": 0.7874015748031497
        },
        {
          "duration": 0.14705874999998514,
          "durationTicks": 24,
          "midi": 36,
          "name": "C2",
          "ticks": 26856,
          "time": 164.55874125000003,
          "velocity": 0.7874015748031497
        },
        {
          "duration": 0.07352937500002099,
          "durationTicks": 12,
          "midi": 38,
          "name": "D2",
          "ticks": 26880,
          "time": 164.7058,
          "velocity": 0.7874015748031497
        },
        {
          "duration": 0.14705875000001356,
          "durationTicks": 24,
          "midi": 46,
          "name": "A#2",
          "ticks": 26880,
          "time": 164.7058,
          "velocity": 0.7874015748031497
        },
        {
          "duration": 0.07352937499999257,
          "durationTicks": 12,
          "midi": 38,
          "name": "D2",
          "ticks": 26892,
          "time": 164.77932937500003,
          "velocity": 0.7874015748031497
        },
        {
          "duration": 0.14705874999998514,
          "durationTicks": 24,
          "midi": 42,
          "name": "F#2",
          "ticks": 26904,
          "time": 164.85285875000002,
          "velocity": 0.7874015748031497
        },
        {
          "duration": 0.14705875000001356,
          "durationTicks": 24,
          "midi": 46,
          "name": "A#2",
          "ticks": 26928,
          "time": 164.9999175,
          "velocity": 0.7874015748031497
        },
        {
          "duration": 0.14705874999998514,
          "durationTicks": 24,
          "midi": 42,
          "name": "F#2",
          "ticks": 26952,
          "time": 165.14697625000002,
          "velocity": 0.7874015748031497
        },
        {
          "duration": 0.5882349999999974,
          "durationTicks": 96,
          "midi": 49,
          "name": "C#3",
          "ticks": 26976,
          "time": 165.294035,
          "velocity": 0.7874015748031497
        },
        {
          "duration": 0.14705875000001356,
          "durationTicks": 24,
          "midi": 36,
          "name": "C2",
          "ticks": 26976,
          "time": 165.294035,
          "velocity": 0.7874015748031497
        },
        {
          "duration": 0.14705874999998514,
          "durationTicks": 24,
          "midi": 42,
          "name": "F#2",
          "ticks": 27000,
          "time": 165.44109375000002,
          "velocity": 0.7874015748031497
        },
        {
          "duration": 0.14705874999998514,
          "durationTicks": 24,
          "midi": 36,
          "name": "C2",
          "ticks": 27000,
          "time": 165.44109375000002,
          "velocity": 0.7874015748031497
        },
        {
          "duration": 0.14705875000001356,
          "durationTicks": 24,
          "midi": 42,
          "name": "F#2",
          "ticks": 27024,
          "time": 165.5881525,
          "velocity": 0.7874015748031497
        },
        {
          "duration": 0.14705874999998514,
          "durationTicks": 24,
          "midi": 46,
          "name": "A#2",
          "ticks": 27048,
          "time": 165.73521125000002,
          "velocity": 0.7874015748031497
        },
        {
          "duration": 0.07352937499999257,
          "durationTicks": 12,
          "midi": 36,
          "name": "C2",
          "ticks": 27048,
          "time": 165.73521125000002,
          "velocity": 0.7874015748031497
        },
        {
          "duration": 0.07352937499999257,
          "durationTicks": 12,
          "midi": 36,
          "name": "C2",
          "ticks": 27060,
          "time": 165.808740625,
          "velocity": 0.7874015748031497
        },
        {
          "duration": 0.14705875000001356,
          "durationTicks": 24,
          "midi": 42,
          "name": "F#2",
          "ticks": 27072,
          "time": 165.88227,
          "velocity": 0.7874015748031497
        },
        {
          "duration": 0.14705875000001356,
          "durationTicks": 24,
          "midi": 36,
          "name": "C2",
          "ticks": 27072,
          "time": 165.88227,
          "velocity": 0.7874015748031497
        },
        {
          "duration": 0.14705874999998514,
          "durationTicks": 24,
          "midi": 36,
          "name": "C2",
          "ticks": 27096,
          "time": 166.02932875000002,
          "velocity": 0.7874015748031497
        },
        {
          "duration": 0.14705874999998514,
          "durationTicks": 24,
          "midi": 42,
          "name": "F#2",
          "ticks": 27096,
          "time": 166.02932875000002,
          "velocity": 0.7874015748031497
        },
        {
          "duration": 0.14705875000001356,
          "durationTicks": 24,
          "midi": 46,
          "name": "A#2",
          "ticks": 27120,
          "time": 166.1763875,
          "velocity": 0.7874015748031497
        },
        {
          "duration": 0.07352937500002099,
          "durationTicks": 12,
          "midi": 38,
          "name": "D2",
          "ticks": 27120,
          "time": 166.1763875,
          "velocity": 0.7874015748031497
        },
        {
          "duration": 0.07352937499999257,
          "durationTicks": 12,
          "midi": 38,
          "name": "D2",
          "ticks": 27132,
          "time": 166.24991687500003,
          "velocity": 0.7874015748031497
        },
        {
          "duration": 0.14705875000001356,
          "durationTicks": 24,
          "midi": 42,
          "name": "F#2",
          "ticks": 27144,
          "time": 166.32344625000002,
          "velocity": 0.7874015748031497
        },
        {
          "duration": 0.14705874999998514,
          "durationTicks": 24,
          "midi": 42,
          "name": "F#2",
          "ticks": 27168,
          "time": 166.47050500000003,
          "velocity": 0.7874015748031497
        },
        {
          "duration": 0.14705875000001356,
          "durationTicks": 24,
          "midi": 46,
          "name": "A#2",
          "ticks": 27192,
          "time": 166.61756375000002,
          "velocity": 0.7874015748031497
        },
        {
          "duration": 0.07352937499999257,
          "durationTicks": 12,
          "midi": 36,
          "name": "C2",
          "ticks": 27192,
          "time": 166.61756375000002,
          "velocity": 0.7874015748031497
        },
        {
          "duration": 0.07352937500002099,
          "durationTicks": 12,
          "midi": 36,
          "name": "C2",
          "ticks": 27204,
          "time": 166.691093125,
          "velocity": 0.7874015748031497
        },
        {
          "duration": 0.14705874999998514,
          "durationTicks": 24,
          "midi": 42,
          "name": "F#2",
          "ticks": 27216,
          "time": 166.76462250000003,
          "velocity": 0.7874015748031497
        },
        {
          "duration": 0.14705874999998514,
          "durationTicks": 24,
          "midi": 36,
          "name": "C2",
          "ticks": 27216,
          "time": 166.76462250000003,
          "velocity": 0.7874015748031497
        },
        {
          "duration": 0.14705875000001356,
          "durationTicks": 24,
          "midi": 36,
          "name": "C2",
          "ticks": 27240,
          "time": 166.91168125000002,
          "velocity": 0.7874015748031497
        },
        {
          "duration": 0.14705875000001356,
          "durationTicks": 24,
          "midi": 42,
          "name": "F#2",
          "ticks": 27240,
          "time": 166.91168125000002,
          "velocity": 0.7874015748031497
        },
        {
          "duration": 0.07352937499999257,
          "durationTicks": 12,
          "midi": 38,
          "name": "D2",
          "ticks": 27264,
          "time": 167.05874000000003,
          "velocity": 0.7874015748031497
        },
        {
          "duration": 0.14705874999998514,
          "durationTicks": 24,
          "midi": 46,
          "name": "A#2",
          "ticks": 27264,
          "time": 167.05874000000003,
          "velocity": 0.7874015748031497
        },
        {
          "duration": 0.07352937499999257,
          "durationTicks": 12,
          "midi": 38,
          "name": "D2",
          "ticks": 27276,
          "time": 167.13226937500002,
          "velocity": 0.7874015748031497
        },
        {
          "duration": 0.14705875000001356,
          "durationTicks": 24,
          "midi": 42,
          "name": "F#2",
          "ticks": 27288,
          "time": 167.20579875,
          "velocity": 0.7874015748031497
        },
        {
          "duration": 0.14705874999998514,
          "durationTicks": 24,
          "midi": 46,
          "name": "A#2",
          "ticks": 27312,
          "time": 167.35285750000003,
          "velocity": 0.7874015748031497
        },
        {
          "duration": 0.14705875000001356,
          "durationTicks": 24,
          "midi": 42,
          "name": "F#2",
          "ticks": 27336,
          "time": 167.49991625,
          "velocity": 0.7874015748031497
        },
        {
          "duration": 0.5882349999999974,
          "durationTicks": 96,
          "midi": 49,
          "name": "C#3",
          "ticks": 27360,
          "time": 167.64697500000003,
          "velocity": 0.7874015748031497
        },
        {
          "duration": 0.14705874999998514,
          "durationTicks": 24,
          "midi": 36,
          "name": "C2",
          "ticks": 27360,
          "time": 167.64697500000003,
          "velocity": 0.7874015748031497
        },
        {
          "duration": 0.14705875000001356,
          "durationTicks": 24,
          "midi": 42,
          "name": "F#2",
          "ticks": 27384,
          "time": 167.79403375,
          "velocity": 0.7874015748031497
        },
        {
          "duration": 0.14705875000001356,
          "durationTicks": 24,
          "midi": 36,
          "name": "C2",
          "ticks": 27384,
          "time": 167.79403375,
          "velocity": 0.7874015748031497
        },
        {
          "duration": 0.14705874999998514,
          "durationTicks": 24,
          "midi": 42,
          "name": "F#2",
          "ticks": 27408,
          "time": 167.94109250000002,
          "velocity": 0.7874015748031497
        },
        {
          "duration": 0.14705875000001356,
          "durationTicks": 24,
          "midi": 46,
          "name": "A#2",
          "ticks": 27432,
          "time": 168.08815125,
          "velocity": 0.7874015748031497
        },
        {
          "duration": 0.07352937500002099,
          "durationTicks": 12,
          "midi": 36,
          "name": "C2",
          "ticks": 27432,
          "time": 168.08815125,
          "velocity": 0.7874015748031497
        },
        {
          "duration": 0.07352937499999257,
          "durationTicks": 12,
          "midi": 36,
          "name": "C2",
          "ticks": 27444,
          "time": 168.16168062500003,
          "velocity": 0.7874015748031497
        },
        {
          "duration": 0.14705874999998514,
          "durationTicks": 24,
          "midi": 36,
          "name": "C2",
          "ticks": 27456,
          "time": 168.23521000000002,
          "velocity": 0.7874015748031497
        },
        {
          "duration": 0.14705874999998514,
          "durationTicks": 24,
          "midi": 42,
          "name": "F#2",
          "ticks": 27456,
          "time": 168.23521000000002,
          "velocity": 0.7874015748031497
        },
        {
          "duration": 0.14705875000001356,
          "durationTicks": 24,
          "midi": 36,
          "name": "C2",
          "ticks": 27480,
          "time": 168.38226875,
          "velocity": 0.7874015748031497
        },
        {
          "duration": 0.14705875000001356,
          "durationTicks": 24,
          "midi": 42,
          "name": "F#2",
          "ticks": 27480,
          "time": 168.38226875,
          "velocity": 0.7874015748031497
        },
        {
          "duration": 0.07352937499999257,
          "durationTicks": 12,
          "midi": 38,
          "name": "D2",
          "ticks": 27504,
          "time": 168.52932750000002,
          "velocity": 0.7874015748031497
        },
        {
          "duration": 0.14705874999998514,
          "durationTicks": 24,
          "midi": 46,
          "name": "A#2",
          "ticks": 27504,
          "time": 168.52932750000002,
          "velocity": 0.7874015748031497
        },
        {
          "duration": 0.07352937499999257,
          "durationTicks": 12,
          "midi": 38,
          "name": "D2",
          "ticks": 27516,
          "time": 168.60285687500001,
          "velocity": 0.7874015748031497
        },
        {
          "duration": 0.14705875000001356,
          "durationTicks": 24,
          "midi": 42,
          "name": "F#2",
          "ticks": 27528,
          "time": 168.67638625,
          "velocity": 0.7874015748031497
        },
        {
          "duration": 0.14705874999998514,
          "durationTicks": 24,
          "midi": 42,
          "name": "F#2",
          "ticks": 27552,
          "time": 168.82344500000002,
          "velocity": 0.7874015748031497
        },
        {
          "duration": 0.07352937500002099,
          "durationTicks": 12,
          "midi": 36,
          "name": "C2",
          "ticks": 27576,
          "time": 168.97050375,
          "velocity": 0.7874015748031497
        },
        {
          "duration": 0.14705875000001356,
          "durationTicks": 24,
          "midi": 46,
          "name": "A#2",
          "ticks": 27576,
          "time": 168.97050375,
          "velocity": 0.7874015748031497
        },
        {
          "duration": 0.07352937499999257,
          "durationTicks": 12,
          "midi": 36,
          "name": "C2",
          "ticks": 27588,
          "time": 169.04403312500003,
          "velocity": 0.7874015748031497
        },
        {
          "duration": 0.14705874999998514,
          "durationTicks": 24,
          "midi": 42,
          "name": "F#2",
          "ticks": 27600,
          "time": 169.11756250000002,
          "velocity": 0.7874015748031497
        },
        {
          "duration": 0.14705874999998514,
          "durationTicks": 24,
          "midi": 36,
          "name": "C2",
          "ticks": 27600,
          "time": 169.11756250000002,
          "velocity": 0.7874015748031497
        },
        {
          "duration": 0.14705875000001356,
          "durationTicks": 24,
          "midi": 36,
          "name": "C2",
          "ticks": 27624,
          "time": 169.26462125,
          "velocity": 0.7874015748031497
        },
        {
          "duration": 0.14705875000001356,
          "durationTicks": 24,
          "midi": 42,
          "name": "F#2",
          "ticks": 27624,
          "time": 169.26462125,
          "velocity": 0.7874015748031497
        },
        {
          "duration": 0.14705875000001356,
          "durationTicks": 24,
          "midi": 46,
          "name": "A#2",
          "ticks": 27648,
          "time": 169.41168000000002,
          "velocity": 0.7874015748031497
        },
        {
          "duration": 0.07352937499999257,
          "durationTicks": 12,
          "midi": 38,
          "name": "D2",
          "ticks": 27648,
          "time": 169.41168000000002,
          "velocity": 0.7874015748031497
        },
        {
          "duration": 0.07352937500002099,
          "durationTicks": 12,
          "midi": 38,
          "name": "D2",
          "ticks": 27660,
          "time": 169.485209375,
          "velocity": 0.7874015748031497
        },
        {
          "duration": 0.14705874999998514,
          "durationTicks": 24,
          "midi": 42,
          "name": "F#2",
          "ticks": 27672,
          "time": 169.55873875000003,
          "velocity": 0.7874015748031497
        },
        {
          "duration": 0.14705875000001356,
          "durationTicks": 24,
          "midi": 46,
          "name": "A#2",
          "ticks": 27696,
          "time": 169.70579750000002,
          "velocity": 0.7874015748031497
        },
        {
          "duration": 0.14705874999998514,
          "durationTicks": 24,
          "midi": 42,
          "name": "F#2",
          "ticks": 27720,
          "time": 169.85285625000003,
          "velocity": 0.7874015748031497
        },
        {
          "duration": 0.14705875000001356,
          "durationTicks": 24,
          "midi": 36,
          "name": "C2",
          "ticks": 27744,
          "time": 169.99991500000002,
          "velocity": 0.7874015748031497
        },
        {
          "duration": 0.5882349999999974,
          "durationTicks": 96,
          "midi": 49,
          "name": "C#3",
          "ticks": 27744,
          "time": 169.99991500000002,
          "velocity": 0.7874015748031497
        },
        {
          "duration": 0.14705874999998514,
          "durationTicks": 24,
          "midi": 42,
          "name": "F#2",
          "ticks": 27768,
          "time": 170.14697375000003,
          "velocity": 0.7874015748031497
        },
        {
          "duration": 0.14705874999998514,
          "durationTicks": 24,
          "midi": 36,
          "name": "C2",
          "ticks": 27768,
          "time": 170.14697375000003,
          "velocity": 0.7874015748031497
        },
        {
          "duration": 0.14705875000001356,
          "durationTicks": 24,
          "midi": 42,
          "name": "F#2",
          "ticks": 27792,
          "time": 170.29403250000001,
          "velocity": 0.7874015748031497
        },
        {
          "duration": 0.07352937499999257,
          "durationTicks": 12,
          "midi": 36,
          "name": "C2",
          "ticks": 27816,
          "time": 170.44109125000003,
          "velocity": 0.7874015748031497
        },
        {
          "duration": 0.14705874999998514,
          "durationTicks": 24,
          "midi": 46,
          "name": "A#2",
          "ticks": 27816,
          "time": 170.44109125000003,
          "velocity": 0.7874015748031497
        },
        {
          "duration": 0.07352937499999257,
          "durationTicks": 12,
          "midi": 36,
          "name": "C2",
          "ticks": 27828,
          "time": 170.51462062500002,
          "velocity": 0.7874015748031497
        },
        {
          "duration": 0.14705875000001356,
          "durationTicks": 24,
          "midi": 42,
          "name": "F#2",
          "ticks": 27840,
          "time": 170.58815,
          "velocity": 0.7874015748031497
        },
        {
          "duration": 0.14705875000001356,
          "durationTicks": 24,
          "midi": 36,
          "name": "C2",
          "ticks": 27840,
          "time": 170.58815,
          "velocity": 0.7874015748031497
        },
        {
          "duration": 0.14705874999998514,
          "durationTicks": 24,
          "midi": 42,
          "name": "F#2",
          "ticks": 27864,
          "time": 170.73520875000003,
          "velocity": 0.7874015748031497
        },
        {
          "duration": 0.14705874999998514,
          "durationTicks": 24,
          "midi": 36,
          "name": "C2",
          "ticks": 27864,
          "time": 170.73520875000003,
          "velocity": 0.7874015748031497
        },
        {
          "duration": 0.07352937499999257,
          "durationTicks": 12,
          "midi": 38,
          "name": "D2",
          "ticks": 27888,
          "time": 170.8822675,
          "velocity": 0.7874015748031497
        },
        {
          "duration": 0.14705875000001356,
          "durationTicks": 24,
          "midi": 46,
          "name": "A#2",
          "ticks": 27888,
          "time": 170.8822675,
          "velocity": 0.7874015748031497
        },
        {
          "duration": 0.07352937500002099,
          "durationTicks": 12,
          "midi": 38,
          "name": "D2",
          "ticks": 27900,
          "time": 170.955796875,
          "velocity": 0.7874015748031497
        },
        {
          "duration": 0.14705874999998514,
          "durationTicks": 24,
          "midi": 42,
          "name": "F#2",
          "ticks": 27912,
          "time": 171.02932625000003,
          "velocity": 0.7874015748031497
        },
        {
          "duration": 0.14705875000001356,
          "durationTicks": 24,
          "midi": 42,
          "name": "F#2",
          "ticks": 27936,
          "time": 171.176385,
          "velocity": 0.7874015748031497
        },
        {
          "duration": 0.14705874999998514,
          "durationTicks": 24,
          "midi": 46,
          "name": "A#2",
          "ticks": 27960,
          "time": 171.32344375000002,
          "velocity": 0.7874015748031497
        },
        {
          "duration": 0.07352937499999257,
          "durationTicks": 12,
          "midi": 36,
          "name": "C2",
          "ticks": 27960,
          "time": 171.32344375000002,
          "velocity": 0.7874015748031497
        },
        {
          "duration": 0.07352937499999257,
          "durationTicks": 12,
          "midi": 36,
          "name": "C2",
          "ticks": 27972,
          "time": 171.39697312500002,
          "velocity": 0.7874015748031497
        },
        {
          "duration": 0.14705875000001356,
          "durationTicks": 24,
          "midi": 36,
          "name": "C2",
          "ticks": 27984,
          "time": 171.4705025,
          "velocity": 0.7874015748031497
        },
        {
          "duration": 0.14705875000001356,
          "durationTicks": 24,
          "midi": 42,
          "name": "F#2",
          "ticks": 27984,
          "time": 171.4705025,
          "velocity": 0.7874015748031497
        },
        {
          "duration": 0.14705874999998514,
          "durationTicks": 24,
          "midi": 42,
          "name": "F#2",
          "ticks": 28008,
          "time": 171.61756125000002,
          "velocity": 0.7874015748031497
        },
        {
          "duration": 0.14705874999998514,
          "durationTicks": 24,
          "midi": 36,
          "name": "C2",
          "ticks": 28008,
          "time": 171.61756125000002,
          "velocity": 0.7874015748031497
        },
        {
          "duration": 0.14705875000001356,
          "durationTicks": 24,
          "midi": 46,
          "name": "A#2",
          "ticks": 28032,
          "time": 171.76462,
          "velocity": 0.7874015748031497
        },
        {
          "duration": 0.07352937500002099,
          "durationTicks": 12,
          "midi": 38,
          "name": "D2",
          "ticks": 28032,
          "time": 171.76462,
          "velocity": 0.7874015748031497
        },
        {
          "duration": 0.07352937499999257,
          "durationTicks": 12,
          "midi": 38,
          "name": "D2",
          "ticks": 28044,
          "time": 171.83814937500003,
          "velocity": 0.7874015748031497
        },
        {
          "duration": 0.14705874999998514,
          "durationTicks": 24,
          "midi": 42,
          "name": "F#2",
          "ticks": 28056,
          "time": 171.91167875000002,
          "velocity": 0.7874015748031497
        },
        {
          "duration": 0.14705875000001356,
          "durationTicks": 24,
          "midi": 46,
          "name": "A#2",
          "ticks": 28080,
          "time": 172.0587375,
          "velocity": 0.7874015748031497
        },
        {
          "duration": 0.14705874999998514,
          "durationTicks": 24,
          "midi": 42,
          "name": "F#2",
          "ticks": 28104,
          "time": 172.20579625000002,
          "velocity": 0.7874015748031497
        },
        {
          "duration": 0.5882350000000258,
          "durationTicks": 96,
          "midi": 49,
          "name": "C#3",
          "ticks": 28128,
          "time": 172.352855,
          "velocity": 0.7874015748031497
        },
        {
          "duration": 0.14705875000001356,
          "durationTicks": 24,
          "midi": 36,
          "name": "C2",
          "ticks": 28128,
          "time": 172.352855,
          "velocity": 0.7874015748031497
        },
        {
          "duration": 0.14705875000001356,
          "durationTicks": 24,
          "midi": 42,
          "name": "F#2",
          "ticks": 28152,
          "time": 172.49991375000002,
          "velocity": 0.7874015748031497
        },
        {
          "duration": 0.14705875000001356,
          "durationTicks": 24,
          "midi": 36,
          "name": "C2",
          "ticks": 28152,
          "time": 172.49991375000002,
          "velocity": 0.7874015748031497
        },
        {
          "duration": 0.14705874999998514,
          "durationTicks": 24,
          "midi": 42,
          "name": "F#2",
          "ticks": 28176,
          "time": 172.64697250000003,
          "velocity": 0.7874015748031497
        },
        {
          "duration": 0.14705875000001356,
          "durationTicks": 24,
          "midi": 46,
          "name": "A#2",
          "ticks": 28200,
          "time": 172.79403125000002,
          "velocity": 0.7874015748031497
        },
        {
          "duration": 0.07352937499999257,
          "durationTicks": 12,
          "midi": 36,
          "name": "C2",
          "ticks": 28200,
          "time": 172.79403125000002,
          "velocity": 0.7874015748031497
        },
        {
          "duration": 0.07352937500002099,
          "durationTicks": 12,
          "midi": 36,
          "name": "C2",
          "ticks": 28212,
          "time": 172.867560625,
          "velocity": 0.7874015748031497
        },
        {
          "duration": 0.14705874999998514,
          "durationTicks": 24,
          "midi": 42,
          "name": "F#2",
          "ticks": 28224,
          "time": 172.94109000000003,
          "velocity": 0.7874015748031497
        },
        {
          "duration": 0.14705874999998514,
          "durationTicks": 24,
          "midi": 36,
          "name": "C2",
          "ticks": 28224,
          "time": 172.94109000000003,
          "velocity": 0.7874015748031497
        },
        {
          "duration": 0.14705875000001356,
          "durationTicks": 24,
          "midi": 36,
          "name": "C2",
          "ticks": 28248,
          "time": 173.08814875000002,
          "velocity": 0.7874015748031497
        },
        {
          "duration": 0.14705875000001356,
          "durationTicks": 24,
          "midi": 42,
          "name": "F#2",
          "ticks": 28248,
          "time": 173.08814875000002,
          "velocity": 0.7874015748031497
        },
        {
          "duration": 0.07352937499999257,
          "durationTicks": 12,
          "midi": 38,
          "name": "D2",
          "ticks": 28272,
          "time": 173.23520750000003,
          "velocity": 0.7874015748031497
        },
        {
          "duration": 0.14705874999998514,
          "durationTicks": 24,
          "midi": 46,
          "name": "A#2",
          "ticks": 28272,
          "time": 173.23520750000003,
          "velocity": 0.7874015748031497
        },
        {
          "duration": 0.07352937499999257,
          "durationTicks": 12,
          "midi": 38,
          "name": "D2",
          "ticks": 28284,
          "time": 173.30873687500002,
          "velocity": 0.7874015748031497
        },
        {
          "duration": 0.14705875000001356,
          "durationTicks": 24,
          "midi": 42,
          "name": "F#2",
          "ticks": 28296,
          "time": 173.38226625000001,
          "velocity": 0.7874015748031497
        },
        {
          "duration": 0.14705874999998514,
          "durationTicks": 24,
          "midi": 42,
          "name": "F#2",
          "ticks": 28320,
          "time": 173.52932500000003,
          "velocity": 0.7874015748031497
        },
        {
          "duration": 0.07352937499999257,
          "durationTicks": 12,
          "midi": 36,
          "name": "C2",
          "ticks": 28344,
          "time": 173.67638375,
          "velocity": 0.7874015748031497
        },
        {
          "duration": 0.14705875000001356,
          "durationTicks": 24,
          "midi": 46,
          "name": "A#2",
          "ticks": 28344,
          "time": 173.67638375,
          "velocity": 0.7874015748031497
        },
        {
          "duration": 0.07352937500002099,
          "durationTicks": 12,
          "midi": 36,
          "name": "C2",
          "ticks": 28356,
          "time": 173.749913125,
          "velocity": 0.7874015748031497
        },
        {
          "duration": 0.14705874999998514,
          "durationTicks": 24,
          "midi": 36,
          "name": "C2",
          "ticks": 28368,
          "time": 173.82344250000003,
          "velocity": 0.7874015748031497
        },
        {
          "duration": 0.14705874999998514,
          "durationTicks": 24,
          "midi": 42,
          "name": "F#2",
          "ticks": 28368,
          "time": 173.82344250000003,
          "velocity": 0.7874015748031497
        },
        {
          "duration": 0.14705875000001356,
          "durationTicks": 24,
          "midi": 42,
          "name": "F#2",
          "ticks": 28392,
          "time": 173.97050125,
          "velocity": 0.7874015748031497
        },
        {
          "duration": 0.14705875000001356,
          "durationTicks": 24,
          "midi": 36,
          "name": "C2",
          "ticks": 28392,
          "time": 173.97050125,
          "velocity": 0.7874015748031497
        },
        {
          "duration": 0.07352937499999257,
          "durationTicks": 12,
          "midi": 38,
          "name": "D2",
          "ticks": 28416,
          "time": 174.11756000000003,
          "velocity": 0.7874015748031497
        },
        {
          "duration": 0.14705874999998514,
          "durationTicks": 24,
          "midi": 46,
          "name": "A#2",
          "ticks": 28416,
          "time": 174.11756000000003,
          "velocity": 0.7874015748031497
        },
        {
          "duration": 0.07352937499999257,
          "durationTicks": 12,
          "midi": 38,
          "name": "D2",
          "ticks": 28428,
          "time": 174.19108937500002,
          "velocity": 0.7874015748031497
        },
        {
          "duration": 0.14705875000001356,
          "durationTicks": 24,
          "midi": 42,
          "name": "F#2",
          "ticks": 28440,
          "time": 174.26461875,
          "velocity": 0.7874015748031497
        },
        {
          "duration": 0.14705874999998514,
          "durationTicks": 24,
          "midi": 46,
          "name": "A#2",
          "ticks": 28464,
          "time": 174.41167750000002,
          "velocity": 0.7874015748031497
        },
        {
          "duration": 0.14705875000001356,
          "durationTicks": 24,
          "midi": 42,
          "name": "F#2",
          "ticks": 28488,
          "time": 174.55873625,
          "velocity": 0.7874015748031497
        },
        {
          "duration": 0.14705874999998514,
          "durationTicks": 24,
          "midi": 36,
          "name": "C2",
          "ticks": 28512,
          "time": 174.70579500000002,
          "velocity": 0.7874015748031497
        },
        {
          "duration": 0.5882349999999974,
          "durationTicks": 96,
          "midi": 49,
          "name": "C#3",
          "ticks": 28512,
          "time": 174.70579500000002,
          "velocity": 0.7874015748031497
        },
        {
          "duration": 0.14705875000001356,
          "durationTicks": 24,
          "midi": 42,
          "name": "F#2",
          "ticks": 28536,
          "time": 174.85285375,
          "velocity": 0.7874015748031497
        },
        {
          "duration": 0.14705875000001356,
          "durationTicks": 24,
          "midi": 36,
          "name": "C2",
          "ticks": 28536,
          "time": 174.85285375,
          "velocity": 0.7874015748031497
        },
        {
          "duration": 0.14705874999998514,
          "durationTicks": 24,
          "midi": 42,
          "name": "F#2",
          "ticks": 28560,
          "time": 174.99991250000002,
          "velocity": 0.7874015748031497
        },
        {
          "duration": 0.07352937500002099,
          "durationTicks": 12,
          "midi": 36,
          "name": "C2",
          "ticks": 28584,
          "time": 175.14697125,
          "velocity": 0.7874015748031497
        },
        {
          "duration": 0.14705875000001356,
          "durationTicks": 24,
          "midi": 46,
          "name": "A#2",
          "ticks": 28584,
          "time": 175.14697125,
          "velocity": 0.7874015748031497
        },
        {
          "duration": 0.07352937499999257,
          "durationTicks": 12,
          "midi": 36,
          "name": "C2",
          "ticks": 28596,
          "time": 175.22050062500003,
          "velocity": 0.7874015748031497
        },
        {
          "duration": 0.14705874999998514,
          "durationTicks": 24,
          "midi": 36,
          "name": "C2",
          "ticks": 28608,
          "time": 175.29403000000002,
          "velocity": 0.7874015748031497
        },
        {
          "duration": 0.14705874999998514,
          "durationTicks": 24,
          "midi": 42,
          "name": "F#2",
          "ticks": 28608,
          "time": 175.29403000000002,
          "velocity": 0.7874015748031497
        },
        {
          "duration": 0.14705875000001356,
          "durationTicks": 24,
          "midi": 36,
          "name": "C2",
          "ticks": 28632,
          "time": 175.44108875,
          "velocity": 0.7874015748031497
        },
        {
          "duration": 0.14705875000001356,
          "durationTicks": 24,
          "midi": 42,
          "name": "F#2",
          "ticks": 28632,
          "time": 175.44108875,
          "velocity": 0.7874015748031497
        },
        {
          "duration": 0.07352937499999257,
          "durationTicks": 12,
          "midi": 38,
          "name": "D2",
          "ticks": 28656,
          "time": 175.58814750000002,
          "velocity": 0.7874015748031497
        },
        {
          "duration": 0.14705875000001356,
          "durationTicks": 24,
          "midi": 46,
          "name": "A#2",
          "ticks": 28656,
          "time": 175.58814750000002,
          "velocity": 0.7874015748031497
        },
        {
          "duration": 0.07352937500002099,
          "durationTicks": 12,
          "midi": 38,
          "name": "D2",
          "ticks": 28668,
          "time": 175.661676875,
          "velocity": 0.7874015748031497
        },
        {
          "duration": 0.14705874999998514,
          "durationTicks": 24,
          "midi": 42,
          "name": "F#2",
          "ticks": 28680,
          "time": 175.73520625000003,
          "velocity": 0.7874015748031497
        },
        {
          "duration": 0.14705875000001356,
          "durationTicks": 24,
          "midi": 42,
          "name": "F#2",
          "ticks": 28704,
          "time": 175.88226500000002,
          "velocity": 0.7874015748031497
        },
        {
          "duration": 0.07352937499999257,
          "durationTicks": 12,
          "midi": 36,
          "name": "C2",
          "ticks": 28728,
          "time": 176.02932375000003,
          "velocity": 0.7874015748031497
        },
        {
          "duration": 0.14705874999998514,
          "durationTicks": 24,
          "midi": 46,
          "name": "A#2",
          "ticks": 28728,
          "time": 176.02932375000003,
          "velocity": 0.7874015748031497
        },
        {
          "duration": 0.07352937499999257,
          "durationTicks": 12,
          "midi": 36,
          "name": "C2",
          "ticks": 28740,
          "time": 176.10285312500002,
          "velocity": 0.7874015748031497
        },
        {
          "duration": 0.14705875000001356,
          "durationTicks": 24,
          "midi": 42,
          "name": "F#2",
          "ticks": 28752,
          "time": 176.17638250000002,
          "velocity": 0.7874015748031497
        },
        {
          "duration": 0.14705875000001356,
          "durationTicks": 24,
          "midi": 36,
          "name": "C2",
          "ticks": 28752,
          "time": 176.17638250000002,
          "velocity": 0.7874015748031497
        },
        {
          "duration": 0.14705874999998514,
          "durationTicks": 24,
          "midi": 36,
          "name": "C2",
          "ticks": 28776,
          "time": 176.32344125000003,
          "velocity": 0.7874015748031497
        },
        {
          "duration": 0.14705874999998514,
          "durationTicks": 24,
          "midi": 42,
          "name": "F#2",
          "ticks": 28776,
          "time": 176.32344125000003,
          "velocity": 0.7874015748031497
        },
        {
          "duration": 0.07352937499999257,
          "durationTicks": 12,
          "midi": 38,
          "name": "D2",
          "ticks": 28800,
          "time": 176.47050000000002,
          "velocity": 0.7874015748031497
        },
        {
          "duration": 0.14705875000001356,
          "durationTicks": 24,
          "midi": 46,
          "name": "A#2",
          "ticks": 28800,
          "time": 176.47050000000002,
          "velocity": 0.7874015748031497
        },
        {
          "duration": 0.07352937500002099,
          "durationTicks": 12,
          "midi": 38,
          "name": "D2",
          "ticks": 28812,
          "time": 176.544029375,
          "velocity": 0.7874015748031497
        },
        {
          "duration": 0.14705874999998514,
          "durationTicks": 24,
          "midi": 42,
          "name": "F#2",
          "ticks": 28824,
          "time": 176.61755875000003,
          "velocity": 0.7874015748031497
        },
        {
          "duration": 0.14705875000001356,
          "durationTicks": 24,
          "midi": 46,
          "name": "A#2",
          "ticks": 28848,
          "time": 176.7646175,
          "velocity": 0.7874015748031497
        },
        {
          "duration": 0.14705874999998514,
          "durationTicks": 24,
          "midi": 42,
          "name": "F#2",
          "ticks": 28872,
          "time": 176.91167625000003,
          "velocity": 0.7874015748031497
        },
        {
          "duration": 0.07352937499999257,
          "durationTicks": 12,
          "midi": 38,
          "name": "D2",
          "ticks": 28896,
          "time": 177.058735,
          "velocity": 0.7874015748031497
        },
        {
          "duration": 0.44117625000001226,
          "durationTicks": 72,
          "midi": 49,
          "name": "C#3",
          "ticks": 28896,
          "time": 177.058735,
          "velocity": 0.7874015748031497
        },
        {
          "duration": 0.07352937500002099,
          "durationTicks": 12,
          "midi": 38,
          "name": "D2",
          "ticks": 28908,
          "time": 177.132264375,
          "velocity": 0.7874015748031497
        },
        {
          "duration": 0.14705874999998514,
          "durationTicks": 24,
          "midi": 36,
          "name": "C2",
          "ticks": 28920,
          "time": 177.20579375000003,
          "velocity": 0.7874015748031497
        },
        {
          "duration": 0.14705874999998514,
          "durationTicks": 24,
          "midi": 42,
          "name": "F#2",
          "ticks": 28920,
          "time": 177.20579375000003,
          "velocity": 0.7874015748031497
        },
        {
          "duration": 0.14705875000001356,
          "durationTicks": 24,
          "midi": 42,
          "name": "F#2",
          "ticks": 28944,
          "time": 177.3528525,
          "velocity": 0.7874015748031497
        },
        {
          "duration": 0.14705875000001356,
          "durationTicks": 24,
          "midi": 36,
          "name": "C2",
          "ticks": 28944,
          "time": 177.3528525,
          "velocity": 0.7874015748031497
        },
        {
          "duration": 0.44117624999998384,
          "durationTicks": 72,
          "midi": 49,
          "name": "C#3",
          "ticks": 28968,
          "time": 177.49991125000003,
          "velocity": 0.7874015748031497
        },
        {
          "duration": 0.07352937499999257,
          "durationTicks": 12,
          "midi": 38,
          "name": "D2",
          "ticks": 28968,
          "time": 177.49991125000003,
          "velocity": 0.7874015748031497
        },
        {
          "duration": 0.07352937499999257,
          "durationTicks": 12,
          "midi": 38,
          "name": "D2",
          "ticks": 28980,
          "time": 177.57344062500002,
          "velocity": 0.7874015748031497
        },
        {
          "duration": 0.14705875000001356,
          "durationTicks": 24,
          "midi": 36,
          "name": "C2",
          "ticks": 28992,
          "time": 177.64697,
          "velocity": 0.7874015748031497
        },
        {
          "duration": 0.14705875000001356,
          "durationTicks": 24,
          "midi": 42,
          "name": "F#2",
          "ticks": 28992,
          "time": 177.64697,
          "velocity": 0.7874015748031497
        },
        {
          "duration": 0.14705874999998514,
          "durationTicks": 24,
          "midi": 36,
          "name": "C2",
          "ticks": 29016,
          "time": 177.79402875000002,
          "velocity": 0.7874015748031497
        },
        {
          "duration": 0.14705874999998514,
          "durationTicks": 24,
          "midi": 42,
          "name": "F#2",
          "ticks": 29016,
          "time": 177.79402875000002,
          "velocity": 0.7874015748031497
        },
        {
          "duration": 0.07352937500002099,
          "durationTicks": 12,
          "midi": 38,
          "name": "D2",
          "ticks": 29040,
          "time": 177.9410875,
          "velocity": 0.7874015748031497
        },
        {
          "duration": 0.44117625000001226,
          "durationTicks": 72,
          "midi": 49,
          "name": "C#3",
          "ticks": 29040,
          "time": 177.9410875,
          "velocity": 0.7874015748031497
        },
        {
          "duration": 0.07352937499999257,
          "durationTicks": 12,
          "midi": 38,
          "name": "D2",
          "ticks": 29052,
          "time": 178.01461687500003,
          "velocity": 0.7874015748031497
        },
        {
          "duration": 0.14705874999998514,
          "durationTicks": 24,
          "midi": 42,
          "name": "F#2",
          "ticks": 29064,
          "time": 178.08814625000002,
          "velocity": 0.7874015748031497
        },
        {
          "duration": 0.14705874999998514,
          "durationTicks": 24,
          "midi": 36,
          "name": "C2",
          "ticks": 29064,
          "time": 178.08814625000002,
          "velocity": 0.7874015748031497
        },
        {
          "duration": 0.14705875000001356,
          "durationTicks": 24,
          "midi": 36,
          "name": "C2",
          "ticks": 29088,
          "time": 178.235205,
          "velocity": 0.7874015748031497
        },
        {
          "duration": 0.14705875000001356,
          "durationTicks": 24,
          "midi": 42,
          "name": "F#2",
          "ticks": 29088,
          "time": 178.235205,
          "velocity": 0.7874015748031497
        },
        {
          "duration": 0.44117624999998384,
          "durationTicks": 72,
          "midi": 49,
          "name": "C#3",
          "ticks": 29112,
          "time": 178.38226375000002,
          "velocity": 0.7874015748031497
        },
        {
          "duration": 0.07352937499999257,
          "durationTicks": 12,
          "midi": 38,
          "name": "D2",
          "ticks": 29112,
          "time": 178.38226375000002,
          "velocity": 0.7874015748031497
        },
        {
          "duration": 0.07352937499999257,
          "durationTicks": 12,
          "midi": 38,
          "name": "D2",
          "ticks": 29124,
          "time": 178.455793125,
          "velocity": 0.7874015748031497
        },
        {
          "duration": 0.14705875000001356,
          "durationTicks": 24,
          "midi": 36,
          "name": "C2",
          "ticks": 29136,
          "time": 178.5293225,
          "velocity": 0.7874015748031497
        },
        {
          "duration": 0.14705875000001356,
          "durationTicks": 24,
          "midi": 42,
          "name": "F#2",
          "ticks": 29136,
          "time": 178.5293225,
          "velocity": 0.7874015748031497
        },
        {
          "duration": 0.14705874999998514,
          "durationTicks": 24,
          "midi": 42,
          "name": "F#2",
          "ticks": 29160,
          "time": 178.67638125000002,
          "velocity": 0.7874015748031497
        },
        {
          "duration": 0.14705874999998514,
          "durationTicks": 24,
          "midi": 36,
          "name": "C2",
          "ticks": 29160,
          "time": 178.67638125000002,
          "velocity": 0.7874015748031497
        },
        {
          "duration": 0.14705875000001356,
          "durationTicks": 24,
          "midi": 46,
          "name": "A#2",
          "ticks": 29184,
          "time": 178.82344,
          "velocity": 0.7874015748031497
        },
        {
          "duration": 0.07352937500002099,
          "durationTicks": 12,
          "midi": 38,
          "name": "D2",
          "ticks": 29184,
          "time": 178.82344,
          "velocity": 0.7874015748031497
        },
        {
          "duration": 0.07352937499999257,
          "durationTicks": 12,
          "midi": 38,
          "name": "D2",
          "ticks": 29196,
          "time": 178.89696937500003,
          "velocity": 0.7874015748031497
        },
        {
          "duration": 0.14705875000001356,
          "durationTicks": 24,
          "midi": 36,
          "name": "C2",
          "ticks": 29208,
          "time": 178.97049875000002,
          "velocity": 0.7874015748031497
        },
        {
          "duration": 0.14705875000001356,
          "durationTicks": 24,
          "midi": 42,
          "name": "F#2",
          "ticks": 29208,
          "time": 178.97049875000002,
          "velocity": 0.7874015748031497
        },
        {
          "duration": 0.14705874999998514,
          "durationTicks": 24,
          "midi": 46,
          "name": "A#2",
          "ticks": 29232,
          "time": 179.11755750000003,
          "velocity": 0.7874015748031497
        },
        {
          "duration": 0.07352937499999257,
          "durationTicks": 12,
          "midi": 38,
          "name": "D2",
          "ticks": 29232,
          "time": 179.11755750000003,
          "velocity": 0.7874015748031497
        },
        {
          "duration": 0.07352937499999257,
          "durationTicks": 12,
          "midi": 38,
          "name": "D2",
          "ticks": 29244,
          "time": 179.19108687500002,
          "velocity": 0.7874015748031497
        },
        {
          "duration": 0.14705875000001356,
          "durationTicks": 24,
          "midi": 42,
          "name": "F#2",
          "ticks": 29256,
          "time": 179.26461625000002,
          "velocity": 0.7874015748031497
        },
        {
          "duration": 0.14705874999998514,
          "durationTicks": 24,
          "midi": 36,
          "name": "C2",
          "ticks": 29280,
          "time": 179.41167500000003,
          "velocity": 0.7874015748031497
        },
        {
          "duration": 0.44117624999998384,
          "durationTicks": 72,
          "midi": 49,
          "name": "C#3",
          "ticks": 29280,
          "time": 179.41167500000003,
          "velocity": 0.7874015748031497
        },
        {
          "duration": 0.14705874999998514,
          "durationTicks": 24,
          "midi": 46,
          "name": "A#2",
          "ticks": 29328,
          "time": 179.70579250000003,
          "velocity": 0.7874015748031497
        },
        {
          "duration": 0.14705874999998514,
          "durationTicks": 24,
          "midi": 38,
          "name": "D2",
          "ticks": 29328,
          "time": 179.70579250000003,
          "velocity": 0.7874015748031497
        },
        {
          "duration": 0.14705874999998514,
          "durationTicks": 24,
          "midi": 36,
          "name": "C2",
          "ticks": 29376,
          "time": 179.99991000000003,
          "velocity": 0.7874015748031497
        },
        {
          "duration": 0.14705874999998514,
          "durationTicks": 24,
          "midi": 46,
          "name": "A#2",
          "ticks": 29376,
          "time": 179.99991000000003,
          "velocity": 0.7874015748031497
        },
        {
          "duration": 0.14705875000001356,
          "durationTicks": 24,
          "midi": 36,
          "name": "C2",
          "ticks": 29400,
          "time": 180.14696875,
          "velocity": 0.7874015748031497
        },
        {
          "duration": 0.14705874999998514,
          "durationTicks": 24,
          "midi": 46,
          "name": "A#2",
          "ticks": 29424,
          "time": 180.29402750000003,
          "velocity": 0.7874015748031497
        },
        {
          "duration": 0.14705874999998514,
          "durationTicks": 24,
          "midi": 38,
          "name": "D2",
          "ticks": 29424,
          "time": 180.29402750000003,
          "velocity": 0.7874015748031497
        },
        {
          "duration": 0.14705874999998514,
          "durationTicks": 24,
          "midi": 46,
          "name": "A#2",
          "ticks": 29472,
          "time": 180.58814500000003,
          "velocity": 0.7874015748031497
        },
        {
          "duration": 0.14705874999998514,
          "durationTicks": 24,
          "midi": 36,
          "name": "C2",
          "ticks": 29472,
          "time": 180.58814500000003,
          "velocity": 0.7874015748031497
        },
        {
          "duration": 0.14705875000001356,
          "durationTicks": 24,
          "midi": 36,
          "name": "C2",
          "ticks": 29496,
          "time": 180.73520375,
          "velocity": 0.7874015748031497
        },
        {
          "duration": 0.14705874999998514,
          "durationTicks": 24,
          "midi": 46,
          "name": "A#2",
          "ticks": 29520,
          "time": 180.88226250000002,
          "velocity": 0.7874015748031497
        },
        {
          "duration": 0.14705874999998514,
          "durationTicks": 24,
          "midi": 38,
          "name": "D2",
          "ticks": 29520,
          "time": 180.88226250000002,
          "velocity": 0.7874015748031497
        },
        {
          "duration": 0.14705874999998514,
          "durationTicks": 24,
          "midi": 36,
          "name": "C2",
          "ticks": 29520,
          "time": 180.88226250000002,
          "velocity": 0.7874015748031497
        },
        {
          "duration": 0.14705875000001356,
          "durationTicks": 24,
          "midi": 36,
          "name": "C2",
          "ticks": 29544,
          "time": 181.02932125,
          "velocity": 0.7874015748031497
        },
        {
          "duration": 0.14705874999998514,
          "durationTicks": 24,
          "midi": 46,
          "name": "A#2",
          "ticks": 29568,
          "time": 181.17638000000002,
          "velocity": 0.7874015748031497
        },
        {
          "duration": 0.14705874999998514,
          "durationTicks": 24,
          "midi": 36,
          "name": "C2",
          "ticks": 29568,
          "time": 181.17638000000002,
          "velocity": 0.7874015748031497
        },
        {
          "duration": 0.14705875000001356,
          "durationTicks": 24,
          "midi": 36,
          "name": "C2",
          "ticks": 29592,
          "time": 181.32343875,
          "velocity": 0.7874015748031497
        },
        {
          "duration": 0.14705874999998514,
          "durationTicks": 24,
          "midi": 46,
          "name": "A#2",
          "ticks": 29616,
          "time": 181.47049750000002,
          "velocity": 0.7874015748031497
        },
        {
          "duration": 0.14705874999998514,
          "durationTicks": 24,
          "midi": 38,
          "name": "D2",
          "ticks": 29616,
          "time": 181.47049750000002,
          "velocity": 0.7874015748031497
        },
        {
          "duration": 0.14705874999998514,
          "durationTicks": 24,
          "midi": 46,
          "name": "A#2",
          "ticks": 29664,
          "time": 181.76461500000002,
          "velocity": 0.7874015748031497
        },
        {
          "duration": 0.14705874999998514,
          "durationTicks": 24,
          "midi": 36,
          "name": "C2",
          "ticks": 29664,
          "time": 181.76461500000002,
          "velocity": 0.7874015748031497
        },
        {
          "duration": 0.14705875000001356,
          "durationTicks": 24,
          "midi": 46,
          "name": "A#2",
          "ticks": 29712,
          "time": 182.05873250000002,
          "velocity": 0.7874015748031497
        },
        {
          "duration": 0.14705875000001356,
          "durationTicks": 24,
          "midi": 38,
          "name": "D2",
          "ticks": 29712,
          "time": 182.05873250000002,
          "velocity": 0.7874015748031497
        },
        {
          "duration": 0.14705875000001356,
          "durationTicks": 24,
          "midi": 36,
          "name": "C2",
          "ticks": 29760,
          "time": 182.35285000000002,
          "velocity": 0.7874015748031497
        },
        {
          "duration": 0.14705875000001356,
          "durationTicks": 24,
          "midi": 46,
          "name": "A#2",
          "ticks": 29760,
          "time": 182.35285000000002,
          "velocity": 0.7874015748031497
        },
        {
          "duration": 0.14705874999998514,
          "durationTicks": 24,
          "midi": 36,
          "name": "C2",
          "ticks": 29784,
          "time": 182.49990875000003,
          "velocity": 0.7874015748031497
        },
        {
          "duration": 0.14705875000001356,
          "durationTicks": 24,
          "midi": 46,
          "name": "A#2",
          "ticks": 29808,
          "time": 182.64696750000002,
          "velocity": 0.7874015748031497
        },
        {
          "duration": 0.14705875000001356,
          "durationTicks": 24,
          "midi": 38,
          "name": "D2",
          "ticks": 29808,
          "time": 182.64696750000002,
          "velocity": 0.7874015748031497
        },
        {
          "duration": 0.07352937499999257,
          "durationTicks": 12,
          "midi": 36,
          "name": "C2",
          "ticks": 29856,
          "time": 182.94108500000002,
          "velocity": 0.7874015748031497
        },
        {
          "duration": 0.14705875000001356,
          "durationTicks": 24,
          "midi": 46,
          "name": "A#2",
          "ticks": 29856,
          "time": 182.94108500000002,
          "velocity": 0.7874015748031497
        },
        {
          "duration": 0.07352937500002099,
          "durationTicks": 12,
          "midi": 36,
          "name": "C2",
          "ticks": 29868,
          "time": 183.014614375,
          "velocity": 0.7874015748031497
        },
        {
          "duration": 0.14705874999998514,
          "durationTicks": 24,
          "midi": 36,
          "name": "C2",
          "ticks": 29880,
          "time": 183.08814375000003,
          "velocity": 0.7874015748031497
        },
        {
          "duration": 0.14705875000001356,
          "durationTicks": 24,
          "midi": 36,
          "name": "C2",
          "ticks": 29904,
          "time": 183.2352025,
          "velocity": 0.7874015748031497
        },
        {
          "duration": 0.14705875000001356,
          "durationTicks": 24,
          "midi": 38,
          "name": "D2",
          "ticks": 29904,
          "time": 183.2352025,
          "velocity": 0.7874015748031497
        },
        {
          "duration": 0.14705875000001356,
          "durationTicks": 24,
          "midi": 46,
          "name": "A#2",
          "ticks": 29904,
          "time": 183.2352025,
          "velocity": 0.7874015748031497
        },
        {
          "duration": 0.14705874999998514,
          "durationTicks": 24,
          "midi": 36,
          "name": "C2",
          "ticks": 29928,
          "time": 183.38226125000003,
          "velocity": 0.7874015748031497
        },
        {
          "duration": 0.14705875000001356,
          "durationTicks": 24,
          "midi": 46,
          "name": "A#2",
          "ticks": 29952,
          "time": 183.52932,
          "velocity": 0.7874015748031497
        },
        {
          "duration": 0.14705875000001356,
          "durationTicks": 24,
          "midi": 36,
          "name": "C2",
          "ticks": 29952,
          "time": 183.52932,
          "velocity": 0.7874015748031497
        },
        {
          "duration": 0.14705875000001356,
          "durationTicks": 24,
          "midi": 46,
          "name": "A#2",
          "ticks": 30000,
          "time": 183.8234375,
          "velocity": 0.7874015748031497
        },
        {
          "duration": 0.14705875000001356,
          "durationTicks": 24,
          "midi": 38,
          "name": "D2",
          "ticks": 30000,
          "time": 183.8234375,
          "velocity": 0.7874015748031497
        },
        {
          "duration": 0.44117625000001226,
          "durationTicks": 72,
          "midi": 49,
          "name": "C#3",
          "ticks": 30048,
          "time": 184.117555,
          "velocity": 0.7874015748031497
        },
        {
          "duration": 0.14705875000001356,
          "durationTicks": 24,
          "midi": 36,
          "name": "C2",
          "ticks": 30048,
          "time": 184.117555,
          "velocity": 0.7874015748031497
        },
        {
          "duration": 0.14705875000001356,
          "durationTicks": 24,
          "midi": 46,
          "name": "A#2",
          "ticks": 30096,
          "time": 184.4116725,
          "velocity": 0.7874015748031497
        },
        {
          "duration": 0.14705875000001356,
          "durationTicks": 24,
          "midi": 38,
          "name": "D2",
          "ticks": 30096,
          "time": 184.4116725,
          "velocity": 0.7874015748031497
        },
        {
          "duration": 0.14705875000001356,
          "durationTicks": 24,
          "midi": 36,
          "name": "C2",
          "ticks": 30144,
          "time": 184.70579,
          "velocity": 0.7874015748031497
        },
        {
          "duration": 0.14705875000001356,
          "durationTicks": 24,
          "midi": 46,
          "name": "A#2",
          "ticks": 30144,
          "time": 184.70579,
          "velocity": 0.7874015748031497
        },
        {
          "duration": 0.14705874999998514,
          "durationTicks": 24,
          "midi": 36,
          "name": "C2",
          "ticks": 30168,
          "time": 184.85284875000002,
          "velocity": 0.7874015748031497
        },
        {
          "duration": 0.14705875000001356,
          "durationTicks": 24,
          "midi": 46,
          "name": "A#2",
          "ticks": 30192,
          "time": 184.9999075,
          "velocity": 0.7874015748031497
        },
        {
          "duration": 0.14705875000001356,
          "durationTicks": 24,
          "midi": 38,
          "name": "D2",
          "ticks": 30192,
          "time": 184.9999075,
          "velocity": 0.7874015748031497
        },
        {
          "duration": 0.14705874999998514,
          "durationTicks": 24,
          "midi": 46,
          "name": "A#2",
          "ticks": 30240,
          "time": 185.29402500000003,
          "velocity": 0.7874015748031497
        },
        {
          "duration": 0.14705874999998514,
          "durationTicks": 24,
          "midi": 36,
          "name": "C2",
          "ticks": 30240,
          "time": 185.29402500000003,
          "velocity": 0.7874015748031497
        },
        {
          "duration": 0.14705875000001356,
          "durationTicks": 24,
          "midi": 36,
          "name": "C2",
          "ticks": 30264,
          "time": 185.44108375000002,
          "velocity": 0.7874015748031497
        },
        {
          "duration": 0.14705874999998514,
          "durationTicks": 24,
          "midi": 46,
          "name": "A#2",
          "ticks": 30288,
          "time": 185.58814250000003,
          "velocity": 0.7874015748031497
        },
        {
          "duration": 0.14705874999998514,
          "durationTicks": 24,
          "midi": 38,
          "name": "D2",
          "ticks": 30288,
          "time": 185.58814250000003,
          "velocity": 0.7874015748031497
        },
        {
          "duration": 0.14705874999998514,
          "durationTicks": 24,
          "midi": 36,
          "name": "C2",
          "ticks": 30288,
          "time": 185.58814250000003,
          "velocity": 0.7874015748031497
        },
        {
          "duration": 0.14705875000001356,
          "durationTicks": 24,
          "midi": 36,
          "name": "C2",
          "ticks": 30312,
          "time": 185.73520125000002,
          "velocity": 0.7874015748031497
        },
        {
          "duration": 0.14705874999998514,
          "durationTicks": 24,
          "midi": 46,
          "name": "A#2",
          "ticks": 30336,
          "time": 185.88226000000003,
          "velocity": 0.7874015748031497
        },
        {
          "duration": 0.14705874999998514,
          "durationTicks": 24,
          "midi": 36,
          "name": "C2",
          "ticks": 30336,
          "time": 185.88226000000003,
          "velocity": 0.7874015748031497
        },
        {
          "duration": 0.14705875000001356,
          "durationTicks": 24,
          "midi": 36,
          "name": "C2",
          "ticks": 30360,
          "time": 186.02931875000002,
          "velocity": 0.7874015748031497
        },
        {
          "duration": 0.14705874999998514,
          "durationTicks": 24,
          "midi": 38,
          "name": "D2",
          "ticks": 30384,
          "time": 186.17637750000003,
          "velocity": 0.7874015748031497
        },
        {
          "duration": 0.14705874999998514,
          "durationTicks": 24,
          "midi": 46,
          "name": "A#2",
          "ticks": 30384,
          "time": 186.17637750000003,
          "velocity": 0.7874015748031497
        },
        {
          "duration": 0.14705874999998514,
          "durationTicks": 24,
          "midi": 46,
          "name": "A#2",
          "ticks": 30432,
          "time": 186.47049500000003,
          "velocity": 0.7874015748031497
        },
        {
          "duration": 0.14705874999998514,
          "durationTicks": 24,
          "midi": 36,
          "name": "C2",
          "ticks": 30432,
          "time": 186.47049500000003,
          "velocity": 0.7874015748031497
        },
        {
          "duration": 0.14705874999998514,
          "durationTicks": 24,
          "midi": 38,
          "name": "D2",
          "ticks": 30480,
          "time": 186.76461250000003,
          "velocity": 0.7874015748031497
        },
        {
          "duration": 0.14705874999998514,
          "durationTicks": 24,
          "midi": 46,
          "name": "A#2",
          "ticks": 30480,
          "time": 186.76461250000003,
          "velocity": 0.7874015748031497
        },
        {
          "duration": 0.14705874999998514,
          "durationTicks": 24,
          "midi": 36,
          "name": "C2",
          "ticks": 30528,
          "time": 187.05873000000003,
          "velocity": 0.7874015748031497
        },
        {
          "duration": 0.14705874999998514,
          "durationTicks": 24,
          "midi": 46,
          "name": "A#2",
          "ticks": 30528,
          "time": 187.05873000000003,
          "velocity": 0.7874015748031497
        },
        {
          "duration": 0.14705875000001356,
          "durationTicks": 24,
          "midi": 36,
          "name": "C2",
          "ticks": 30552,
          "time": 187.20578875,
          "velocity": 0.7874015748031497
        },
        {
          "duration": 0.14705874999998514,
          "durationTicks": 24,
          "midi": 46,
          "name": "A#2",
          "ticks": 30576,
          "time": 187.35284750000002,
          "velocity": 0.7874015748031497
        },
        {
          "duration": 0.14705874999998514,
          "durationTicks": 24,
          "midi": 38,
          "name": "D2",
          "ticks": 30576,
          "time": 187.35284750000002,
          "velocity": 0.7874015748031497
        },
        {
          "duration": 0.07352937499999257,
          "durationTicks": 12,
          "midi": 36,
          "name": "C2",
          "ticks": 30624,
          "time": 187.64696500000002,
          "velocity": 0.7874015748031497
        },
        {
          "duration": 0.14705874999998514,
          "durationTicks": 24,
          "midi": 46,
          "name": "A#2",
          "ticks": 30624,
          "time": 187.64696500000002,
          "velocity": 0.7874015748031497
        },
        {
          "duration": 0.07352937499999257,
          "durationTicks": 12,
          "midi": 36,
          "name": "C2",
          "ticks": 30636,
          "time": 187.72049437500002,
          "velocity": 0.7874015748031497
        },
        {
          "duration": 0.14705875000001356,
          "durationTicks": 24,
          "midi": 36,
          "name": "C2",
          "ticks": 30648,
          "time": 187.79402375,
          "velocity": 0.7874015748031497
        },
        {
          "duration": 0.14705874999998514,
          "durationTicks": 24,
          "midi": 46,
          "name": "A#2",
          "ticks": 30672,
          "time": 187.94108250000002,
          "velocity": 0.7874015748031497
        },
        {
          "duration": 0.14705874999998514,
          "durationTicks": 24,
          "midi": 38,
          "name": "D2",
          "ticks": 30672,
          "time": 187.94108250000002,
          "velocity": 0.7874015748031497
        },
        {
          "duration": 0.14705874999998514,
          "durationTicks": 24,
          "midi": 36,
          "name": "C2",
          "ticks": 30672,
          "time": 187.94108250000002,
          "velocity": 0.7874015748031497
        },
        {
          "duration": 0.14705875000001356,
          "durationTicks": 24,
          "midi": 36,
          "name": "C2",
          "ticks": 30696,
          "time": 188.08814125,
          "velocity": 0.7874015748031497
        },
        {
          "duration": 0.14705875000001356,
          "durationTicks": 24,
          "midi": 36,
          "name": "C2",
          "ticks": 30720,
          "time": 188.23520000000002,
          "velocity": 0.7874015748031497
        },
        {
          "duration": 0.14705875000001356,
          "durationTicks": 24,
          "midi": 46,
          "name": "A#2",
          "ticks": 30720,
          "time": 188.23520000000002,
          "velocity": 0.7874015748031497
        },
        {
          "duration": 0.14705875000001356,
          "durationTicks": 24,
          "midi": 46,
          "name": "A#2",
          "ticks": 30768,
          "time": 188.52931750000002,
          "velocity": 0.7874015748031497
        },
        {
          "duration": 0.14705875000001356,
          "durationTicks": 24,
          "midi": 38,
          "name": "D2",
          "ticks": 30768,
          "time": 188.52931750000002,
          "velocity": 0.7874015748031497
        },
        {
          "duration": 0.14705875000001356,
          "durationTicks": 24,
          "midi": 36,
          "name": "C2",
          "ticks": 30816,
          "time": 188.82343500000002,
          "velocity": 0.7874015748031497
        },
        {
          "duration": 0.44117625000001226,
          "durationTicks": 72,
          "midi": 49,
          "name": "C#3",
          "ticks": 30816,
          "time": 188.82343500000002,
          "velocity": 0.7874015748031497
        },
        {
          "duration": 0.14705875000001356,
          "durationTicks": 24,
          "midi": 38,
          "name": "D2",
          "ticks": 30864,
          "time": 189.11755250000002,
          "velocity": 0.7874015748031497
        },
        {
          "duration": 0.14705875000001356,
          "durationTicks": 24,
          "midi": 46,
          "name": "A#2",
          "ticks": 30864,
          "time": 189.11755250000002,
          "velocity": 0.7874015748031497
        },
        {
          "duration": 0.14705875000001356,
          "durationTicks": 24,
          "midi": 46,
          "name": "A#2",
          "ticks": 30912,
          "time": 189.41167000000002,
          "velocity": 0.7874015748031497
        },
        {
          "duration": 0.14705875000001356,
          "durationTicks": 24,
          "midi": 36,
          "name": "C2",
          "ticks": 30912,
          "time": 189.41167000000002,
          "velocity": 0.7874015748031497
        },
        {
          "duration": 0.14705874999998514,
          "durationTicks": 24,
          "midi": 36,
          "name": "C2",
          "ticks": 30936,
          "time": 189.55872875000003,
          "velocity": 0.7874015748031497
        },
        {
          "duration": 0.14705875000001356,
          "durationTicks": 24,
          "midi": 46,
          "name": "A#2",
          "ticks": 30960,
          "time": 189.7057875,
          "velocity": 0.7874015748031497
        },
        {
          "duration": 0.14705875000001356,
          "durationTicks": 24,
          "midi": 38,
          "name": "D2",
          "ticks": 30960,
          "time": 189.7057875,
          "velocity": 0.7874015748031497
        },
        {
          "duration": 0.14705875000001356,
          "durationTicks": 24,
          "midi": 46,
          "name": "A#2",
          "ticks": 31008,
          "time": 189.999905,
          "velocity": 0.7874015748031497
        },
        {
          "duration": 0.14705875000001356,
          "durationTicks": 24,
          "midi": 36,
          "name": "C2",
          "ticks": 31008,
          "time": 189.999905,
          "velocity": 0.7874015748031497
        },
        {
          "duration": 0.14705874999998514,
          "durationTicks": 24,
          "midi": 36,
          "name": "C2",
          "ticks": 31032,
          "time": 190.14696375000003,
          "velocity": 0.7874015748031497
        },
        {
          "duration": 0.14705875000001356,
          "durationTicks": 24,
          "midi": 46,
          "name": "A#2",
          "ticks": 31056,
          "time": 190.2940225,
          "velocity": 0.7874015748031497
        },
        {
          "duration": 0.14705875000001356,
          "durationTicks": 24,
          "midi": 38,
          "name": "D2",
          "ticks": 31056,
          "time": 190.2940225,
          "velocity": 0.7874015748031497
        },
        {
          "duration": 0.14705875000001356,
          "durationTicks": 24,
          "midi": 36,
          "name": "C2",
          "ticks": 31056,
          "time": 190.2940225,
          "velocity": 0.7874015748031497
        },
        {
          "duration": 0.14705874999998514,
          "durationTicks": 24,
          "midi": 36,
          "name": "C2",
          "ticks": 31080,
          "time": 190.44108125000002,
          "velocity": 0.7874015748031497
        },
        {
          "duration": 0.14705875000001356,
          "durationTicks": 24,
          "midi": 46,
          "name": "A#2",
          "ticks": 31104,
          "time": 190.58814,
          "velocity": 0.7874015748031497
        },
        {
          "duration": 0.14705875000001356,
          "durationTicks": 24,
          "midi": 36,
          "name": "C2",
          "ticks": 31104,
          "time": 190.58814,
          "velocity": 0.7874015748031497
        },
        {
          "duration": 0.14705874999998514,
          "durationTicks": 24,
          "midi": 36,
          "name": "C2",
          "ticks": 31128,
          "time": 190.73519875000002,
          "velocity": 0.7874015748031497
        },
        {
          "duration": 0.14705875000001356,
          "durationTicks": 24,
          "midi": 38,
          "name": "D2",
          "ticks": 31152,
          "time": 190.8822575,
          "velocity": 0.7874015748031497
        },
        {
          "duration": 0.14705875000001356,
          "durationTicks": 24,
          "midi": 46,
          "name": "A#2",
          "ticks": 31152,
          "time": 190.8822575,
          "velocity": 0.7874015748031497
        },
        {
          "duration": 0.14705875000001356,
          "durationTicks": 24,
          "midi": 46,
          "name": "A#2",
          "ticks": 31200,
          "time": 191.176375,
          "velocity": 0.7874015748031497
        },
        {
          "duration": 0.14705875000001356,
          "durationTicks": 24,
          "midi": 36,
          "name": "C2",
          "ticks": 31200,
          "time": 191.176375,
          "velocity": 0.7874015748031497
        },
        {
          "duration": 0.14705874999998514,
          "durationTicks": 24,
          "midi": 46,
          "name": "A#2",
          "ticks": 31248,
          "time": 191.47049250000003,
          "velocity": 0.7874015748031497
        },
        {
          "duration": 0.14705874999998514,
          "durationTicks": 24,
          "midi": 38,
          "name": "D2",
          "ticks": 31248,
          "time": 191.47049250000003,
          "velocity": 0.7874015748031497
        },
        {
          "duration": 0.14705874999998514,
          "durationTicks": 24,
          "midi": 36,
          "name": "C2",
          "ticks": 31296,
          "time": 191.76461000000003,
          "velocity": 0.7874015748031497
        },
        {
          "duration": 0.14705874999998514,
          "durationTicks": 24,
          "midi": 46,
          "name": "A#2",
          "ticks": 31296,
          "time": 191.76461000000003,
          "velocity": 0.7874015748031497
        },
        {
          "duration": 0.14705875000001356,
          "durationTicks": 24,
          "midi": 36,
          "name": "C2",
          "ticks": 31320,
          "time": 191.91166875000002,
          "velocity": 0.7874015748031497
        },
        {
          "duration": 0.14705874999998514,
          "durationTicks": 24,
          "midi": 38,
          "name": "D2",
          "ticks": 31344,
          "time": 192.05872750000003,
          "velocity": 0.7874015748031497
        },
        {
          "duration": 0.14705874999998514,
          "durationTicks": 24,
          "midi": 46,
          "name": "A#2",
          "ticks": 31344,
          "time": 192.05872750000003,
          "velocity": 0.7874015748031497
        },
        {
          "duration": 0.14705874999998514,
          "durationTicks": 24,
          "midi": 46,
          "name": "A#2",
          "ticks": 31392,
          "time": 192.35284500000003,
          "velocity": 0.7874015748031497
        },
        {
          "duration": 0.07352937499999257,
          "durationTicks": 12,
          "midi": 36,
          "name": "C2",
          "ticks": 31392,
          "time": 192.35284500000003,
          "velocity": 0.7874015748031497
        },
        {
          "duration": 0.07352937499999257,
          "durationTicks": 12,
          "midi": 36,
          "name": "C2",
          "ticks": 31404,
          "time": 192.42637437500002,
          "velocity": 0.7874015748031497
        },
        {
          "duration": 0.14705875000001356,
          "durationTicks": 24,
          "midi": 36,
          "name": "C2",
          "ticks": 31416,
          "time": 192.49990375000002,
          "velocity": 0.7874015748031497
        },
        {
          "duration": 0.14705874999998514,
          "durationTicks": 24,
          "midi": 46,
          "name": "A#2",
          "ticks": 31440,
          "time": 192.64696250000003,
          "velocity": 0.7874015748031497
        },
        {
          "duration": 0.14705874999998514,
          "durationTicks": 24,
          "midi": 38,
          "name": "D2",
          "ticks": 31440,
          "time": 192.64696250000003,
          "velocity": 0.7874015748031497
        },
        {
          "duration": 0.14705874999998514,
          "durationTicks": 24,
          "midi": 36,
          "name": "C2",
          "ticks": 31440,
          "time": 192.64696250000003,
          "velocity": 0.7874015748031497
        },
        {
          "duration": 0.14705875000001356,
          "durationTicks": 24,
          "midi": 36,
          "name": "C2",
          "ticks": 31464,
          "time": 192.79402125000001,
          "velocity": 0.7874015748031497
        },
        {
          "duration": 0.14705874999998514,
          "durationTicks": 24,
          "midi": 36,
          "name": "C2",
          "ticks": 31488,
          "time": 192.94108000000003,
          "velocity": 0.7874015748031497
        },
        {
          "duration": 0.14705874999998514,
          "durationTicks": 24,
          "midi": 46,
          "name": "A#2",
          "ticks": 31488,
          "time": 192.94108000000003,
          "velocity": 0.7874015748031497
        },
        {
          "duration": 0.14705874999998514,
          "durationTicks": 24,
          "midi": 46,
          "name": "A#2",
          "ticks": 31536,
          "time": 193.23519750000003,
          "velocity": 0.7874015748031497
        },
        {
          "duration": 0.14705874999998514,
          "durationTicks": 24,
          "midi": 38,
          "name": "D2",
          "ticks": 31536,
          "time": 193.23519750000003,
          "velocity": 0.7874015748031497
        },
        {
          "duration": 0.14705874999998514,
          "durationTicks": 24,
          "midi": 36,
          "name": "C2",
          "ticks": 31584,
          "time": 193.52931500000003,
          "velocity": 0.7874015748031497
        },
        {
          "duration": 0.44117624999998384,
          "durationTicks": 72,
          "midi": 49,
          "name": "C#3",
          "ticks": 31584,
          "time": 193.52931500000003,
          "velocity": 0.7874015748031497
        },
        {
          "duration": 0.14705874999998514,
          "durationTicks": 24,
          "midi": 46,
          "name": "A#2",
          "ticks": 31632,
          "time": 193.82343250000002,
          "velocity": 0.7874015748031497
        },
        {
          "duration": 0.14705874999998514,
          "durationTicks": 24,
          "midi": 38,
          "name": "D2",
          "ticks": 31632,
          "time": 193.82343250000002,
          "velocity": 0.7874015748031497
        },
        {
          "duration": 0.14705874999998514,
          "durationTicks": 24,
          "midi": 36,
          "name": "C2",
          "ticks": 31680,
          "time": 194.11755000000002,
          "velocity": 0.7874015748031497
        },
        {
          "duration": 0.14705874999998514,
          "durationTicks": 24,
          "midi": 46,
          "name": "A#2",
          "ticks": 31680,
          "time": 194.11755000000002,
          "velocity": 0.7874015748031497
        },
        {
          "duration": 0.14705875000001356,
          "durationTicks": 24,
          "midi": 36,
          "name": "C2",
          "ticks": 31704,
          "time": 194.26460875,
          "velocity": 0.7874015748031497
        },
        {
          "duration": 0.14705875000001356,
          "durationTicks": 24,
          "midi": 46,
          "name": "A#2",
          "ticks": 31728,
          "time": 194.41166750000002,
          "velocity": 0.7874015748031497
        },
        {
          "duration": 0.14705875000001356,
          "durationTicks": 24,
          "midi": 38,
          "name": "D2",
          "ticks": 31728,
          "time": 194.41166750000002,
          "velocity": 0.7874015748031497
        },
        {
          "duration": 0.14705875000001356,
          "durationTicks": 24,
          "midi": 36,
          "name": "C2",
          "ticks": 31776,
          "time": 194.70578500000002,
          "velocity": 0.7874015748031497
        },
        {
          "duration": 0.14705875000001356,
          "durationTicks": 24,
          "midi": 46,
          "name": "A#2",
          "ticks": 31776,
          "time": 194.70578500000002,
          "velocity": 0.7874015748031497
        },
        {
          "duration": 0.14705874999998514,
          "durationTicks": 24,
          "midi": 36,
          "name": "C2",
          "ticks": 31800,
          "time": 194.85284375000003,
          "velocity": 0.7874015748031497
        },
        {
          "duration": 0.14705875000001356,
          "durationTicks": 24,
          "midi": 46,
          "name": "A#2",
          "ticks": 31824,
          "time": 194.99990250000002,
          "velocity": 0.7874015748031497
        },
        {
          "duration": 0.14705875000001356,
          "durationTicks": 24,
          "midi": 38,
          "name": "D2",
          "ticks": 31824,
          "time": 194.99990250000002,
          "velocity": 0.7874015748031497
        },
        {
          "duration": 0.14705875000001356,
          "durationTicks": 24,
          "midi": 36,
          "name": "C2",
          "ticks": 31824,
          "time": 194.99990250000002,
          "velocity": 0.7874015748031497
        },
        {
          "duration": 0.14705874999998514,
          "durationTicks": 24,
          "midi": 36,
          "name": "C2",
          "ticks": 31848,
          "time": 195.14696125000003,
          "velocity": 0.7874015748031497
        },
        {
          "duration": 0.14705875000001356,
          "durationTicks": 24,
          "midi": 36,
          "name": "C2",
          "ticks": 31872,
          "time": 195.29402000000002,
          "velocity": 0.7874015748031497
        },
        {
          "duration": 0.14705875000001356,
          "durationTicks": 24,
          "midi": 46,
          "name": "A#2",
          "ticks": 31872,
          "time": 195.29402000000002,
          "velocity": 0.7874015748031497
        },
        {
          "duration": 0.14705874999998514,
          "durationTicks": 24,
          "midi": 36,
          "name": "C2",
          "ticks": 31896,
          "time": 195.44107875000003,
          "velocity": 0.7874015748031497
        },
        {
          "duration": 0.14705875000001356,
          "durationTicks": 24,
          "midi": 46,
          "name": "A#2",
          "ticks": 31920,
          "time": 195.58813750000002,
          "velocity": 0.7874015748031497
        },
        {
          "duration": 0.14705875000001356,
          "durationTicks": 24,
          "midi": 38,
          "name": "D2",
          "ticks": 31920,
          "time": 195.58813750000002,
          "velocity": 0.7874015748031497
        },
        {
          "duration": 0.14705875000001356,
          "durationTicks": 24,
          "midi": 36,
          "name": "C2",
          "ticks": 31968,
          "time": 195.88225500000001,
          "velocity": 0.7874015748031497
        },
        {
          "duration": 0.14705875000001356,
          "durationTicks": 24,
          "midi": 46,
          "name": "A#2",
          "ticks": 31968,
          "time": 195.88225500000001,
          "velocity": 0.7874015748031497
        },
        {
          "duration": 0.14705875000001356,
          "durationTicks": 24,
          "midi": 46,
          "name": "A#2",
          "ticks": 32016,
          "time": 196.1763725,
          "velocity": 0.7874015748031497
        },
        {
          "duration": 0.14705875000001356,
          "durationTicks": 24,
          "midi": 38,
          "name": "D2",
          "ticks": 32016,
          "time": 196.1763725,
          "velocity": 0.7874015748031497
        },
        {
          "duration": 0.14705875000001356,
          "durationTicks": 24,
          "midi": 46,
          "name": "A#2",
          "ticks": 32064,
          "time": 196.47049,
          "velocity": 0.7874015748031497
        },
        {
          "duration": 0.14705875000001356,
          "durationTicks": 24,
          "midi": 36,
          "name": "C2",
          "ticks": 32064,
          "time": 196.47049,
          "velocity": 0.7874015748031497
        },
        {
          "duration": 0.14705874999998514,
          "durationTicks": 24,
          "midi": 36,
          "name": "C2",
          "ticks": 32088,
          "time": 196.61754875000003,
          "velocity": 0.7874015748031497
        },
        {
          "duration": 0.14705875000001356,
          "durationTicks": 24,
          "midi": 46,
          "name": "A#2",
          "ticks": 32112,
          "time": 196.7646075,
          "velocity": 0.7874015748031497
        },
        {
          "duration": 0.14705875000001356,
          "durationTicks": 24,
          "midi": 38,
          "name": "D2",
          "ticks": 32112,
          "time": 196.7646075,
          "velocity": 0.7874015748031497
        },
        {
          "duration": 0.07352937500002099,
          "durationTicks": 12,
          "midi": 36,
          "name": "C2",
          "ticks": 32160,
          "time": 197.058725,
          "velocity": 0.7874015748031497
        },
        {
          "duration": 0.14705875000001356,
          "durationTicks": 24,
          "midi": 46,
          "name": "A#2",
          "ticks": 32160,
          "time": 197.058725,
          "velocity": 0.7874015748031497
        },
        {
          "duration": 0.07352937499999257,
          "durationTicks": 12,
          "midi": 36,
          "name": "C2",
          "ticks": 32172,
          "time": 197.13225437500003,
          "velocity": 0.7874015748031497
        },
        {
          "duration": 0.14705874999998514,
          "durationTicks": 24,
          "midi": 36,
          "name": "C2",
          "ticks": 32184,
          "time": 197.20578375000002,
          "velocity": 0.7874015748031497
        },
        {
          "duration": 0.14705875000001356,
          "durationTicks": 24,
          "midi": 46,
          "name": "A#2",
          "ticks": 32208,
          "time": 197.3528425,
          "velocity": 0.7874015748031497
        },
        {
          "duration": 0.14705875000001356,
          "durationTicks": 24,
          "midi": 38,
          "name": "D2",
          "ticks": 32208,
          "time": 197.3528425,
          "velocity": 0.7874015748031497
        },
        {
          "duration": 0.14705875000001356,
          "durationTicks": 24,
          "midi": 36,
          "name": "C2",
          "ticks": 32208,
          "time": 197.3528425,
          "velocity": 0.7874015748031497
        },
        {
          "duration": 0.14705875000001356,
          "durationTicks": 24,
          "midi": 36,
          "name": "C2",
          "ticks": 32232,
          "time": 197.49990125000002,
          "velocity": 0.7874015748031497
        },
        {
          "duration": 0.14705874999998514,
          "durationTicks": 24,
          "midi": 46,
          "name": "A#2",
          "ticks": 32256,
          "time": 197.64696000000004,
          "velocity": 0.7874015748031497
        },
        {
          "duration": 0.14705874999998514,
          "durationTicks": 24,
          "midi": 36,
          "name": "C2",
          "ticks": 32256,
          "time": 197.64696000000004,
          "velocity": 0.7874015748031497
        },
        {
          "duration": 0.14705874999998514,
          "durationTicks": 24,
          "midi": 38,
          "name": "D2",
          "ticks": 32304,
          "time": 197.94107750000003,
          "velocity": 0.7874015748031497
        },
        {
          "duration": 0.14705874999998514,
          "durationTicks": 24,
          "midi": 46,
          "name": "A#2",
          "ticks": 32304,
          "time": 197.94107750000003,
          "velocity": 0.7874015748031497
        },
        {
          "duration": 0.44117624999998384,
          "durationTicks": 72,
          "midi": 49,
          "name": "C#3",
          "ticks": 32352,
          "time": 198.23519500000003,
          "velocity": 0.7874015748031497
        },
        {
          "duration": 0.14705874999998514,
          "durationTicks": 24,
          "midi": 36,
          "name": "C2",
          "ticks": 32352,
          "time": 198.23519500000003,
          "velocity": 0.7874015748031497
        },
        {
          "duration": 0.14705874999998514,
          "durationTicks": 24,
          "midi": 46,
          "name": "A#2",
          "ticks": 32400,
          "time": 198.52931250000003,
          "velocity": 0.7874015748031497
        },
        {
          "duration": 0.14705874999998514,
          "durationTicks": 24,
          "midi": 38,
          "name": "D2",
          "ticks": 32400,
          "time": 198.52931250000003,
          "velocity": 0.7874015748031497
        },
        {
          "duration": 0.14705874999998514,
          "durationTicks": 24,
          "midi": 36,
          "name": "C2",
          "ticks": 32448,
          "time": 198.82343000000003,
          "velocity": 0.7874015748031497
        },
        {
          "duration": 0.14705874999998514,
          "durationTicks": 24,
          "midi": 46,
          "name": "A#2",
          "ticks": 32448,
          "time": 198.82343000000003,
          "velocity": 0.7874015748031497
        },
        {
          "duration": 0.14705875000001356,
          "durationTicks": 24,
          "midi": 36,
          "name": "C2",
          "ticks": 32472,
          "time": 198.97048875000002,
          "velocity": 0.7874015748031497
        },
        {
          "duration": 0.14705874999998514,
          "durationTicks": 24,
          "midi": 38,
          "name": "D2",
          "ticks": 32496,
          "time": 199.11754750000003,
          "velocity": 0.7874015748031497
        },
        {
          "duration": 0.14705874999998514,
          "durationTicks": 24,
          "midi": 46,
          "name": "A#2",
          "ticks": 32496,
          "time": 199.11754750000003,
          "velocity": 0.7874015748031497
        },
        {
          "duration": 0.14705874999998514,
          "durationTicks": 24,
          "midi": 36,
          "name": "C2",
          "ticks": 32544,
          "time": 199.41166500000003,
          "velocity": 0.7874015748031497
        },
        {
          "duration": 0.14705874999998514,
          "durationTicks": 24,
          "midi": 46,
          "name": "A#2",
          "ticks": 32544,
          "time": 199.41166500000003,
          "velocity": 0.7874015748031497
        },
        {
          "duration": 0.14705875000001356,
          "durationTicks": 24,
          "midi": 36,
          "name": "C2",
          "ticks": 32568,
          "time": 199.55872375,
          "velocity": 0.7874015748031497
        },
        {
          "duration": 0.14705874999998514,
          "durationTicks": 24,
          "midi": 36,
          "name": "C2",
          "ticks": 32592,
          "time": 199.70578250000003,
          "velocity": 0.7874015748031497
        },
        {
          "duration": 0.14705874999998514,
          "durationTicks": 24,
          "midi": 38,
          "name": "D2",
          "ticks": 32592,
          "time": 199.70578250000003,
          "velocity": 0.7874015748031497
        },
        {
          "duration": 0.14705874999998514,
          "durationTicks": 24,
          "midi": 46,
          "name": "A#2",
          "ticks": 32592,
          "time": 199.70578250000003,
          "velocity": 0.7874015748031497
        },
        {
          "duration": 0.14705875000001356,
          "durationTicks": 24,
          "midi": 36,
          "name": "C2",
          "ticks": 32616,
          "time": 199.85284125,
          "velocity": 0.7874015748031497
        },
        {
          "duration": 0.14705874999998514,
          "durationTicks": 24,
          "midi": 46,
          "name": "A#2",
          "ticks": 32640,
          "time": 199.99990000000003,
          "velocity": 0.7874015748031497
        },
        {
          "duration": 0.14705874999998514,
          "durationTicks": 24,
          "midi": 36,
          "name": "C2",
          "ticks": 32640,
          "time": 199.99990000000003,
          "velocity": 0.7874015748031497
        },
        {
          "duration": 0.14705875000001356,
          "durationTicks": 24,
          "midi": 36,
          "name": "C2",
          "ticks": 32664,
          "time": 200.14695875,
          "velocity": 0.7874015748031497
        },
        {
          "duration": 0.14705874999998514,
          "durationTicks": 24,
          "midi": 46,
          "name": "A#2",
          "ticks": 32688,
          "time": 200.29401750000002,
          "velocity": 0.7874015748031497
        },
        {
          "duration": 0.14705874999998514,
          "durationTicks": 24,
          "midi": 38,
          "name": "D2",
          "ticks": 32688,
          "time": 200.29401750000002,
          "velocity": 0.7874015748031497
        },
        {
          "duration": 0.14705874999998514,
          "durationTicks": 24,
          "midi": 46,
          "name": "A#2",
          "ticks": 32736,
          "time": 200.58813500000002,
          "velocity": 0.7874015748031497
        },
        {
          "duration": 0.14705874999998514,
          "durationTicks": 24,
          "midi": 36,
          "name": "C2",
          "ticks": 32736,
          "time": 200.58813500000002,
          "velocity": 0.7874015748031497
        },
        {
          "duration": 0.14705875000001356,
          "durationTicks": 24,
          "midi": 46,
          "name": "A#2",
          "ticks": 32784,
          "time": 200.88225250000002,
          "velocity": 0.7874015748031497
        },
        {
          "duration": 0.14705875000001356,
          "durationTicks": 24,
          "midi": 38,
          "name": "D2",
          "ticks": 32784,
          "time": 200.88225250000002,
          "velocity": 0.7874015748031497
        },
        {
          "duration": 0.14705875000001356,
          "durationTicks": 24,
          "midi": 46,
          "name": "A#2",
          "ticks": 32832,
          "time": 201.17637000000002,
          "velocity": 0.7874015748031497
        },
        {
          "duration": 0.14705875000001356,
          "durationTicks": 24,
          "midi": 36,
          "name": "C2",
          "ticks": 32832,
          "time": 201.17637000000002,
          "velocity": 0.7874015748031497
        },
        {
          "duration": 0.14705874999998514,
          "durationTicks": 24,
          "midi": 36,
          "name": "C2",
          "ticks": 32856,
          "time": 201.32342875000003,
          "velocity": 0.7874015748031497
        },
        {
          "duration": 0.14705875000001356,
          "durationTicks": 24,
          "midi": 46,
          "name": "A#2",
          "ticks": 32880,
          "time": 201.47048750000002,
          "velocity": 0.7874015748031497
        },
        {
          "duration": 0.14705875000001356,
          "durationTicks": 24,
          "midi": 38,
          "name": "D2",
          "ticks": 32880,
          "time": 201.47048750000002,
          "velocity": 0.7874015748031497
        },
        {
          "duration": 0.14705875000001356,
          "durationTicks": 24,
          "midi": 46,
          "name": "A#2",
          "ticks": 32928,
          "time": 201.76460500000002,
          "velocity": 0.7874015748031497
        },
        {
          "duration": 0.07352937499999257,
          "durationTicks": 12,
          "midi": 36,
          "name": "C2",
          "ticks": 32928,
          "time": 201.76460500000002,
          "velocity": 0.7874015748031497
        },
        {
          "duration": 0.07352937500002099,
          "durationTicks": 12,
          "midi": 36,
          "name": "C2",
          "ticks": 32940,
          "time": 201.838134375,
          "velocity": 0.7874015748031497
        },
        {
          "duration": 0.14705874999998514,
          "durationTicks": 24,
          "midi": 36,
          "name": "C2",
          "ticks": 32952,
          "time": 201.91166375000003,
          "velocity": 0.7874015748031497
        },
        {
          "duration": 0.14705875000001356,
          "durationTicks": 24,
          "midi": 46,
          "name": "A#2",
          "ticks": 32976,
          "time": 202.05872250000002,
          "velocity": 0.7874015748031497
        },
        {
          "duration": 0.14705875000001356,
          "durationTicks": 24,
          "midi": 38,
          "name": "D2",
          "ticks": 32976,
          "time": 202.05872250000002,
          "velocity": 0.7874015748031497
        },
        {
          "duration": 0.14705875000001356,
          "durationTicks": 24,
          "midi": 36,
          "name": "C2",
          "ticks": 32976,
          "time": 202.05872250000002,
          "velocity": 0.7874015748031497
        },
        {
          "duration": 0.14705874999998514,
          "durationTicks": 24,
          "midi": 36,
          "name": "C2",
          "ticks": 33000,
          "time": 202.20578125000003,
          "velocity": 0.7874015748031497
        },
        {
          "duration": 0.14705875000001356,
          "durationTicks": 24,
          "midi": 36,
          "name": "C2",
          "ticks": 33024,
          "time": 202.35284000000001,
          "velocity": 0.7874015748031497
        },
        {
          "duration": 0.14705875000001356,
          "durationTicks": 24,
          "midi": 46,
          "name": "A#2",
          "ticks": 33024,
          "time": 202.35284000000001,
          "velocity": 0.7874015748031497
        },
        {
          "duration": 0.14705875000001356,
          "durationTicks": 24,
          "midi": 38,
          "name": "D2",
          "ticks": 33072,
          "time": 202.6469575,
          "velocity": 0.7874015748031497
        },
        {
          "duration": 0.14705875000001356,
          "durationTicks": 24,
          "midi": 46,
          "name": "A#2",
          "ticks": 33072,
          "time": 202.6469575,
          "velocity": 0.7874015748031497
        },
        {
          "duration": 0.14705875000001356,
          "durationTicks": 24,
          "midi": 36,
          "name": "C2",
          "ticks": 33120,
          "time": 202.941075,
          "velocity": 0.7874015748031497
        },
        {
          "duration": 0.44117625000001226,
          "durationTicks": 72,
          "midi": 49,
          "name": "C#3",
          "ticks": 33120,
          "time": 202.941075,
          "velocity": 0.7874015748031497
        },
        {
          "duration": 0.14705875000001356,
          "durationTicks": 24,
          "midi": 46,
          "name": "A#2",
          "ticks": 33168,
          "time": 203.2351925,
          "velocity": 0.7874015748031497
        },
        {
          "duration": 0.14705875000001356,
          "durationTicks": 24,
          "midi": 38,
          "name": "D2",
          "ticks": 33168,
          "time": 203.2351925,
          "velocity": 0.7874015748031497
        },
        {
          "duration": 0.14705875000001356,
          "durationTicks": 24,
          "midi": 46,
          "name": "A#2",
          "ticks": 33216,
          "time": 203.52931,
          "velocity": 0.7874015748031497
        },
        {
          "duration": 0.14705875000001356,
          "durationTicks": 24,
          "midi": 36,
          "name": "C2",
          "ticks": 33216,
          "time": 203.52931,
          "velocity": 0.7874015748031497
        },
        {
          "duration": 0.14705874999998514,
          "durationTicks": 24,
          "midi": 36,
          "name": "C2",
          "ticks": 33240,
          "time": 203.67636875000002,
          "velocity": 0.7874015748031497
        },
        {
          "duration": 0.14705875000001356,
          "durationTicks": 24,
          "midi": 38,
          "name": "D2",
          "ticks": 33264,
          "time": 203.8234275,
          "velocity": 0.7874015748031497
        },
        {
          "duration": 0.14705875000001356,
          "durationTicks": 24,
          "midi": 46,
          "name": "A#2",
          "ticks": 33264,
          "time": 203.8234275,
          "velocity": 0.7874015748031497
        },
        {
          "duration": 0.14705874999998514,
          "durationTicks": 24,
          "midi": 46,
          "name": "A#2",
          "ticks": 33312,
          "time": 204.11754500000004,
          "velocity": 0.7874015748031497
        },
        {
          "duration": 0.14705874999998514,
          "durationTicks": 24,
          "midi": 36,
          "name": "C2",
          "ticks": 33312,
          "time": 204.11754500000004,
          "velocity": 0.7874015748031497
        },
        {
          "duration": 0.14705875000001356,
          "durationTicks": 24,
          "midi": 36,
          "name": "C2",
          "ticks": 33336,
          "time": 204.26460375000002,
          "velocity": 0.7874015748031497
        },
        {
          "duration": 0.14705874999998514,
          "durationTicks": 24,
          "midi": 36,
          "name": "C2",
          "ticks": 33360,
          "time": 204.41166250000003,
          "velocity": 0.7874015748031497
        },
        {
          "duration": 0.14705874999998514,
          "durationTicks": 24,
          "midi": 38,
          "name": "D2",
          "ticks": 33360,
          "time": 204.41166250000003,
          "velocity": 0.7874015748031497
        },
        {
          "duration": 0.14705874999998514,
          "durationTicks": 24,
          "midi": 46,
          "name": "A#2",
          "ticks": 33360,
          "time": 204.41166250000003,
          "velocity": 0.7874015748031497
        },
        {
          "duration": 0.14705875000001356,
          "durationTicks": 24,
          "midi": 36,
          "name": "C2",
          "ticks": 33384,
          "time": 204.55872125000002,
          "velocity": 0.7874015748031497
        },
        {
          "duration": 0.14705874999998514,
          "durationTicks": 24,
          "midi": 46,
          "name": "A#2",
          "ticks": 33408,
          "time": 204.70578000000003,
          "velocity": 0.7874015748031497
        },
        {
          "duration": 0.14705874999998514,
          "durationTicks": 24,
          "midi": 36,
          "name": "C2",
          "ticks": 33408,
          "time": 204.70578000000003,
          "velocity": 0.7874015748031497
        },
        {
          "duration": 0.14705875000001356,
          "durationTicks": 24,
          "midi": 36,
          "name": "C2",
          "ticks": 33432,
          "time": 204.85283875000002,
          "velocity": 0.7874015748031497
        },
        {
          "duration": 0.14705874999998514,
          "durationTicks": 24,
          "midi": 38,
          "name": "D2",
          "ticks": 33456,
          "time": 204.99989750000003,
          "velocity": 0.7874015748031497
        },
        {
          "duration": 0.14705874999998514,
          "durationTicks": 24,
          "midi": 46,
          "name": "A#2",
          "ticks": 33456,
          "time": 204.99989750000003,
          "velocity": 0.7874015748031497
        },
        {
          "duration": 0.07352937499999257,
          "durationTicks": 12,
          "midi": 36,
          "name": "C2",
          "ticks": 33504,
          "time": 205.29401500000003,
          "velocity": 0.7874015748031497
        },
        {
          "duration": 0.44117624999998384,
          "durationTicks": 72,
          "midi": 49,
          "name": "C#3",
          "ticks": 33504,
          "time": 205.29401500000003,
          "velocity": 0.7874015748031497
        },
        {
          "duration": 0.07352937499999257,
          "durationTicks": 12,
          "midi": 36,
          "name": "C2",
          "ticks": 33516,
          "time": 205.36754437500002,
          "velocity": 0.7874015748031497
        },
        {
          "duration": 0.14705875000001356,
          "durationTicks": 24,
          "midi": 36,
          "name": "C2",
          "ticks": 33528,
          "time": 205.44107375000002,
          "velocity": 0.7874015748031497
        },
        {
          "duration": 0.14705874999998514,
          "durationTicks": 24,
          "midi": 36,
          "name": "C2",
          "ticks": 33552,
          "time": 205.58813250000003,
          "velocity": 0.7874015748031497
        },
        {
          "duration": 0.14705875000001356,
          "durationTicks": 24,
          "midi": 38,
          "name": "D2",
          "ticks": 33576,
          "time": 205.73519125,
          "velocity": 0.7874015748031497
        },
        {
          "duration": 0.44117625000001226,
          "durationTicks": 72,
          "midi": 49,
          "name": "C#3",
          "ticks": 33576,
          "time": 205.73519125,
          "velocity": 0.7874015748031497
        },
        {
          "duration": 0.07352937499999257,
          "durationTicks": 12,
          "midi": 36,
          "name": "C2",
          "ticks": 33648,
          "time": 206.17636750000003,
          "velocity": 0.7874015748031497
        },
        {
          "duration": 0.44117624999998384,
          "durationTicks": 72,
          "midi": 49,
          "name": "C#3",
          "ticks": 33648,
          "time": 206.17636750000003,
          "velocity": 0.7874015748031497
        },
        {
          "duration": 0.07352937499999257,
          "durationTicks": 12,
          "midi": 36,
          "name": "C2",
          "ticks": 33660,
          "time": 206.24989687500002,
          "velocity": 0.7874015748031497
        },
        {
          "duration": 0.14705875000001356,
          "durationTicks": 24,
          "midi": 36,
          "name": "C2",
          "ticks": 33672,
          "time": 206.32342625,
          "velocity": 0.7874015748031497
        },
        {
          "duration": 0.14705874999998514,
          "durationTicks": 24,
          "midi": 36,
          "name": "C2",
          "ticks": 33696,
          "time": 206.47048500000002,
          "velocity": 0.7874015748031497
        },
        {
          "duration": 0.44117625000001226,
          "durationTicks": 72,
          "midi": 49,
          "name": "C#3",
          "ticks": 33720,
          "time": 206.61754375,
          "velocity": 0.7874015748031497
        },
        {
          "duration": 0.14705875000001356,
          "durationTicks": 24,
          "midi": 38,
          "name": "D2",
          "ticks": 33720,
          "time": 206.61754375,
          "velocity": 0.7874015748031497
        },
        {
          "duration": 0.2941174999999987,
          "durationTicks": 48,
          "midi": 49,
          "name": "C#3",
          "ticks": 33792,
          "time": 207.05872000000002,
          "velocity": 0.7874015748031497
        },
        {
          "duration": 0.14705875000001356,
          "durationTicks": 24,
          "midi": 38,
          "name": "D2",
          "ticks": 33792,
          "time": 207.05872000000002,
          "velocity": 0.7874015748031497
        },
        {
          "duration": 0.14705874999998514,
          "durationTicks": 24,
          "midi": 38,
          "name": "D2",
          "ticks": 33816,
          "time": 207.20577875000004,
          "velocity": 0.7874015748031497
        },
        {
          "duration": 0.14705875000001356,
          "durationTicks": 24,
          "midi": 38,
          "name": "D2",
          "ticks": 33840,
          "time": 207.35283750000002,
          "velocity": 0.7874015748031497
        },
        {
          "duration": 0.2941174999999987,
          "durationTicks": 48,
          "midi": 49,
          "name": "C#3",
          "ticks": 33840,
          "time": 207.35283750000002,
          "velocity": 0.7874015748031497
        },
        {
          "duration": 0.14705874999998514,
          "durationTicks": 24,
          "midi": 38,
          "name": "D2",
          "ticks": 33864,
          "time": 207.49989625000003,
          "velocity": 0.7874015748031497
        },
        {
          "duration": 0.07352937499999257,
          "durationTicks": 12,
          "midi": 38,
          "name": "D2",
          "ticks": 33888,
          "time": 207.64695500000002,
          "velocity": 0.7874015748031497
        },
        {
          "duration": 0.5882349999999974,
          "durationTicks": 96,
          "midi": 49,
          "name": "C#3",
          "ticks": 33888,
          "time": 207.64695500000002,
          "velocity": 0.7874015748031497
        },
        {
          "duration": 0.07352937500002099,
          "durationTicks": 12,
          "midi": 38,
          "name": "D2",
          "ticks": 33900,
          "time": 207.720484375,
          "velocity": 0.7874015748031497
        },
        {
          "duration": 0.14705874999998514,
          "durationTicks": 24,
          "midi": 42,
          "name": "F#2",
          "ticks": 33912,
          "time": 207.79401375000003,
          "velocity": 0.7874015748031497
        },
        {
          "duration": 0.14705874999998514,
          "durationTicks": 24,
          "midi": 36,
          "name": "C2",
          "ticks": 33912,
          "time": 207.79401375000003,
          "velocity": 0.7874015748031497
        },
        {
          "duration": 0.14705875000001356,
          "durationTicks": 24,
          "midi": 42,
          "name": "F#2",
          "ticks": 33936,
          "time": 207.94107250000002,
          "velocity": 0.7874015748031497
        },
        {
          "duration": 0.14705875000001356,
          "durationTicks": 24,
          "midi": 36,
          "name": "C2",
          "ticks": 33936,
          "time": 207.94107250000002,
          "velocity": 0.7874015748031497
        },
        {
          "duration": 0.14705874999998514,
          "durationTicks": 24,
          "midi": 46,
          "name": "A#2",
          "ticks": 33960,
          "time": 208.08813125000003,
          "velocity": 0.7874015748031497
        },
        {
          "duration": 0.07352937499999257,
          "durationTicks": 12,
          "midi": 38,
          "name": "D2",
          "ticks": 33960,
          "time": 208.08813125000003,
          "velocity": 0.7874015748031497
        },
        {
          "duration": 0.07352937499999257,
          "durationTicks": 12,
          "midi": 38,
          "name": "D2",
          "ticks": 33972,
          "time": 208.16166062500002,
          "velocity": 0.7874015748031497
        },
        {
          "duration": 0.14705875000001356,
          "durationTicks": 24,
          "midi": 36,
          "name": "C2",
          "ticks": 33984,
          "time": 208.23519000000002,
          "velocity": 0.7874015748031497
        },
        {
          "duration": 0.14705875000001356,
          "durationTicks": 24,
          "midi": 42,
          "name": "F#2",
          "ticks": 33984,
          "time": 208.23519000000002,
          "velocity": 0.7874015748031497
        },
        {
          "duration": 0.14705874999998514,
          "durationTicks": 24,
          "midi": 42,
          "name": "F#2",
          "ticks": 34008,
          "time": 208.38224875000003,
          "velocity": 0.7874015748031497
        },
        {
          "duration": 0.14705874999998514,
          "durationTicks": 24,
          "midi": 36,
          "name": "C2",
          "ticks": 34008,
          "time": 208.38224875000003,
          "velocity": 0.7874015748031497
        },
        {
          "duration": 0.07352937499999257,
          "durationTicks": 12,
          "midi": 38,
          "name": "D2",
          "ticks": 34032,
          "time": 208.52930750000002,
          "velocity": 0.7874015748031497
        },
        {
          "duration": 0.14705875000001356,
          "durationTicks": 24,
          "midi": 46,
          "name": "A#2",
          "ticks": 34032,
          "time": 208.52930750000002,
          "velocity": 0.7874015748031497
        },
        {
          "duration": 0.07352937500002099,
          "durationTicks": 12,
          "midi": 38,
          "name": "D2",
          "ticks": 34044,
          "time": 208.602836875,
          "velocity": 0.7874015748031497
        },
        {
          "duration": 0.14705874999998514,
          "durationTicks": 24,
          "midi": 36,
          "name": "C2",
          "ticks": 34056,
          "time": 208.67636625000003,
          "velocity": 0.7874015748031497
        },
        {
          "duration": 0.14705874999998514,
          "durationTicks": 24,
          "midi": 42,
          "name": "F#2",
          "ticks": 34056,
          "time": 208.67636625000003,
          "velocity": 0.7874015748031497
        },
        {
          "duration": 0.14705875000001356,
          "durationTicks": 24,
          "midi": 42,
          "name": "F#2",
          "ticks": 34080,
          "time": 208.82342500000001,
          "velocity": 0.7874015748031497
        },
        {
          "duration": 0.14705875000001356,
          "durationTicks": 24,
          "midi": 36,
          "name": "C2",
          "ticks": 34080,
          "time": 208.82342500000001,
          "velocity": 0.7874015748031497
        },
        {
          "duration": 0.07352937499999257,
          "durationTicks": 12,
          "midi": 38,
          "name": "D2",
          "ticks": 34104,
          "time": 208.97048375000003,
          "velocity": 0.7874015748031497
        },
        {
          "duration": 0.14705874999998514,
          "durationTicks": 24,
          "midi": 46,
          "name": "A#2",
          "ticks": 34104,
          "time": 208.97048375000003,
          "velocity": 0.7874015748031497
        },
        {
          "duration": 0.07352937499999257,
          "durationTicks": 12,
          "midi": 38,
          "name": "D2",
          "ticks": 34116,
          "time": 209.04401312500002,
          "velocity": 0.7874015748031497
        },
        {
          "duration": 0.14705875000001356,
          "durationTicks": 24,
          "midi": 36,
          "name": "C2",
          "ticks": 34128,
          "time": 209.1175425,
          "velocity": 0.7874015748031497
        },
        {
          "duration": 0.14705875000001356,
          "durationTicks": 24,
          "midi": 42,
          "name": "F#2",
          "ticks": 34128,
          "time": 209.1175425,
          "velocity": 0.7874015748031497
        },
        {
          "duration": 0.14705874999998514,
          "durationTicks": 24,
          "midi": 36,
          "name": "C2",
          "ticks": 34152,
          "time": 209.26460125000003,
          "velocity": 0.7874015748031497
        },
        {
          "duration": 0.14705874999998514,
          "durationTicks": 24,
          "midi": 42,
          "name": "F#2",
          "ticks": 34152,
          "time": 209.26460125000003,
          "velocity": 0.7874015748031497
        },
        {
          "duration": 0.14705875000001356,
          "durationTicks": 24,
          "midi": 46,
          "name": "A#2",
          "ticks": 34176,
          "time": 209.41166,
          "velocity": 0.7874015748031497
        },
        {
          "duration": 0.14705875000001356,
          "durationTicks": 24,
          "midi": 38,
          "name": "D2",
          "ticks": 34176,
          "time": 209.41166,
          "velocity": 0.7874015748031497
        },
        {
          "duration": 0.14705874999998514,
          "durationTicks": 24,
          "midi": 42,
          "name": "F#2",
          "ticks": 34200,
          "time": 209.55871875000003,
          "velocity": 0.7874015748031497
        },
        {
          "duration": 0.14705874999998514,
          "durationTicks": 24,
          "midi": 38,
          "name": "D2",
          "ticks": 34200,
          "time": 209.55871875000003,
          "velocity": 0.7874015748031497
        },
        {
          "duration": 0.14705875000001356,
          "durationTicks": 24,
          "midi": 46,
          "name": "A#2",
          "ticks": 34224,
          "time": 209.7057775,
          "velocity": 0.7874015748031497
        },
        {
          "duration": 0.14705875000001356,
          "durationTicks": 24,
          "midi": 38,
          "name": "D2",
          "ticks": 34224,
          "time": 209.7057775,
          "velocity": 0.7874015748031497
        },
        {
          "duration": 0.14705874999998514,
          "durationTicks": 24,
          "midi": 38,
          "name": "D2",
          "ticks": 34248,
          "time": 209.85283625000002,
          "velocity": 0.7874015748031497
        },
        {
          "duration": 0.14705874999998514,
          "durationTicks": 24,
          "midi": 42,
          "name": "F#2",
          "ticks": 34248,
          "time": 209.85283625000002,
          "velocity": 0.7874015748031497
        },
        {
          "duration": 0.5882350000000258,
          "durationTicks": 96,
          "midi": 49,
          "name": "C#3",
          "ticks": 34272,
          "time": 209.999895,
          "velocity": 0.7874015748031497
        },
        {
          "duration": 0.07352937500002099,
          "durationTicks": 12,
          "midi": 38,
          "name": "D2",
          "ticks": 34272,
          "time": 209.999895,
          "velocity": 0.7874015748031497
        },
        {
          "duration": 0.07352937499999257,
          "durationTicks": 12,
          "midi": 38,
          "name": "D2",
          "ticks": 34284,
          "time": 210.07342437500003,
          "velocity": 0.7874015748031497
        },
        {
          "duration": 0.14705875000001356,
          "durationTicks": 24,
          "midi": 36,
          "name": "C2",
          "ticks": 34296,
          "time": 210.14695375000002,
          "velocity": 0.7874015748031497
        },
        {
          "duration": 0.14705875000001356,
          "durationTicks": 24,
          "midi": 42,
          "name": "F#2",
          "ticks": 34296,
          "time": 210.14695375000002,
          "velocity": 0.7874015748031497
        },
        {
          "duration": 0.14705874999998514,
          "durationTicks": 24,
          "midi": 42,
          "name": "F#2",
          "ticks": 34320,
          "time": 210.29401250000004,
          "velocity": 0.7874015748031497
        },
        {
          "duration": 0.14705874999998514,
          "durationTicks": 24,
          "midi": 36,
          "name": "C2",
          "ticks": 34320,
          "time": 210.29401250000004,
          "velocity": 0.7874015748031497
        },
        {
          "duration": 0.14705875000001356,
          "durationTicks": 24,
          "midi": 46,
          "name": "A#2",
          "ticks": 34344,
          "time": 210.44107125000002,
          "velocity": 0.7874015748031497
        },
        {
          "duration": 0.07352937499999257,
          "durationTicks": 12,
          "midi": 38,
          "name": "D2",
          "ticks": 34344,
          "time": 210.44107125000002,
          "velocity": 0.7874015748031497
        },
        {
          "duration": 0.07352937500002099,
          "durationTicks": 12,
          "midi": 38,
          "name": "D2",
          "ticks": 34356,
          "time": 210.514600625,
          "velocity": 0.7874015748031497
        },
        {
          "duration": 0.14705874999998514,
          "durationTicks": 24,
          "midi": 36,
          "name": "C2",
          "ticks": 34368,
          "time": 210.58813000000004,
          "velocity": 0.7874015748031497
        },
        {
          "duration": 0.14705874999998514,
          "durationTicks": 24,
          "midi": 42,
          "name": "F#2",
          "ticks": 34368,
          "time": 210.58813000000004,
          "velocity": 0.7874015748031497
        },
        {
          "duration": 0.14705875000001356,
          "durationTicks": 24,
          "midi": 36,
          "name": "C2",
          "ticks": 34392,
          "time": 210.73518875000002,
          "velocity": 0.7874015748031497
        },
        {
          "duration": 0.14705875000001356,
          "durationTicks": 24,
          "midi": 42,
          "name": "F#2",
          "ticks": 34392,
          "time": 210.73518875000002,
          "velocity": 0.7874015748031497
        },
        {
          "duration": 0.07352937499999257,
          "durationTicks": 12,
          "midi": 38,
          "name": "D2",
          "ticks": 34416,
          "time": 210.88224750000003,
          "velocity": 0.7874015748031497
        },
        {
          "duration": 0.14705874999998514,
          "durationTicks": 24,
          "midi": 46,
          "name": "A#2",
          "ticks": 34416,
          "time": 210.88224750000003,
          "velocity": 0.7874015748031497
        },
        {
          "duration": 0.07352937499999257,
          "durationTicks": 12,
          "midi": 38,
          "name": "D2",
          "ticks": 34428,
          "time": 210.95577687500003,
          "velocity": 0.7874015748031497
        },
        {
          "duration": 0.14705875000001356,
          "durationTicks": 24,
          "midi": 42,
          "name": "F#2",
          "ticks": 34440,
          "time": 211.02930625000002,
          "velocity": 0.7874015748031497
        },
        {
          "duration": 0.14705875000001356,
          "durationTicks": 24,
          "midi": 36,
          "name": "C2",
          "ticks": 34440,
          "time": 211.02930625000002,
          "velocity": 0.7874015748031497
        },
        {
          "duration": 0.14705874999998514,
          "durationTicks": 24,
          "midi": 42,
          "name": "F#2",
          "ticks": 34464,
          "time": 211.17636500000003,
          "velocity": 0.7874015748031497
        },
        {
          "duration": 0.14705874999998514,
          "durationTicks": 24,
          "midi": 36,
          "name": "C2",
          "ticks": 34464,
          "time": 211.17636500000003,
          "velocity": 0.7874015748031497
        },
        {
          "duration": 0.14705875000001356,
          "durationTicks": 24,
          "midi": 46,
          "name": "A#2",
          "ticks": 34488,
          "time": 211.32342375000002,
          "velocity": 0.7874015748031497
        },
        {
          "duration": 0.07352937499999257,
          "durationTicks": 12,
          "midi": 38,
          "name": "D2",
          "ticks": 34488,
          "time": 211.32342375000002,
          "velocity": 0.7874015748031497
        },
        {
          "duration": 0.07352937500002099,
          "durationTicks": 12,
          "midi": 38,
          "name": "D2",
          "ticks": 34500,
          "time": 211.396953125,
          "velocity": 0.7874015748031497
        },
        {
          "duration": 0.14705874999998514,
          "durationTicks": 24,
          "midi": 36,
          "name": "C2",
          "ticks": 34512,
          "time": 211.47048250000003,
          "velocity": 0.7874015748031497
        },
        {
          "duration": 0.14705874999998514,
          "durationTicks": 24,
          "midi": 42,
          "name": "F#2",
          "ticks": 34512,
          "time": 211.47048250000003,
          "velocity": 0.7874015748031497
        },
        {
          "duration": 0.14705875000001356,
          "durationTicks": 24,
          "midi": 36,
          "name": "C2",
          "ticks": 34536,
          "time": 211.61754125000002,
          "velocity": 0.7874015748031497
        },
        {
          "duration": 0.14705875000001356,
          "durationTicks": 24,
          "midi": 42,
          "name": "F#2",
          "ticks": 34536,
          "time": 211.61754125000002,
          "velocity": 0.7874015748031497
        },
        {
          "duration": 0.14705874999998514,
          "durationTicks": 24,
          "midi": 46,
          "name": "A#2",
          "ticks": 34560,
          "time": 211.76460000000003,
          "velocity": 0.7874015748031497
        },
        {
          "duration": 0.14705874999998514,
          "durationTicks": 24,
          "midi": 38,
          "name": "D2",
          "ticks": 34560,
          "time": 211.76460000000003,
          "velocity": 0.7874015748031497
        },
        {
          "duration": 0.14705875000001356,
          "durationTicks": 24,
          "midi": 42,
          "name": "F#2",
          "ticks": 34584,
          "time": 211.91165875000002,
          "velocity": 0.7874015748031497
        },
        {
          "duration": 0.14705875000001356,
          "durationTicks": 24,
          "midi": 38,
          "name": "D2",
          "ticks": 34584,
          "time": 211.91165875000002,
          "velocity": 0.7874015748031497
        },
        {
          "duration": 0.14705874999998514,
          "durationTicks": 24,
          "midi": 38,
          "name": "D2",
          "ticks": 34608,
          "time": 212.05871750000003,
          "velocity": 0.7874015748031497
        },
        {
          "duration": 0.14705874999998514,
          "durationTicks": 24,
          "midi": 46,
          "name": "A#2",
          "ticks": 34608,
          "time": 212.05871750000003,
          "velocity": 0.7874015748031497
        },
        {
          "duration": 0.14705875000001356,
          "durationTicks": 24,
          "midi": 42,
          "name": "F#2",
          "ticks": 34632,
          "time": 212.20577625,
          "velocity": 0.7874015748031497
        },
        {
          "duration": 0.14705875000001356,
          "durationTicks": 24,
          "midi": 38,
          "name": "D2",
          "ticks": 34632,
          "time": 212.20577625,
          "velocity": 0.7874015748031497
        },
        {
          "duration": 0.14705874999998514,
          "durationTicks": 24,
          "midi": 36,
          "name": "C2",
          "ticks": 34656,
          "time": 212.35283500000003,
          "velocity": 0.7874015748031497
        },
        {
          "duration": 0.44117624999998384,
          "durationTicks": 72,
          "midi": 49,
          "name": "C#3",
          "ticks": 34656,
          "time": 212.35283500000003,
          "velocity": 0.7874015748031497
        },
        {
          "duration": 0.14705874999998514,
          "durationTicks": 24,
          "midi": 38,
          "name": "D2",
          "ticks": 34704,
          "time": 212.64695250000003,
          "velocity": 0.7874015748031497
        },
        {
          "duration": 0.44117625000001226,
          "durationTicks": 72,
          "midi": 49,
          "name": "C#3",
          "ticks": 34728,
          "time": 212.79401125,
          "velocity": 0.7874015748031497
        },
        {
          "duration": 0.14705874999998514,
          "durationTicks": 24,
          "midi": 36,
          "name": "C2",
          "ticks": 34752,
          "time": 212.94107000000002,
          "velocity": 0.7874015748031497
        },
        {
          "duration": 0.14705875000001356,
          "durationTicks": 24,
          "midi": 36,
          "name": "C2",
          "ticks": 34776,
          "time": 213.08812875,
          "velocity": 0.7874015748031497
        },
        {
          "duration": 0.14705875000001356,
          "durationTicks": 24,
          "midi": 46,
          "name": "A#2",
          "ticks": 34800,
          "time": 213.23518750000002,
          "velocity": 0.7874015748031497
        },
        {
          "duration": 0.14705875000001356,
          "durationTicks": 24,
          "midi": 38,
          "name": "D2",
          "ticks": 34800,
          "time": 213.23518750000002,
          "velocity": 0.7874015748031497
        },
        {
          "duration": 0.14705875000001356,
          "durationTicks": 24,
          "midi": 46,
          "name": "A#2",
          "ticks": 34848,
          "time": 213.52930500000002,
          "velocity": 0.7874015748031497
        },
        {
          "duration": 0.14705875000001356,
          "durationTicks": 24,
          "midi": 36,
          "name": "C2",
          "ticks": 34848,
          "time": 213.52930500000002,
          "velocity": 0.7874015748031497
        },
        {
          "duration": 0.14705874999998514,
          "durationTicks": 24,
          "midi": 36,
          "name": "C2",
          "ticks": 34872,
          "time": 213.67636375000004,
          "velocity": 0.7874015748031497
        },
        {
          "duration": 0.14705875000001356,
          "durationTicks": 24,
          "midi": 36,
          "name": "C2",
          "ticks": 34896,
          "time": 213.82342250000002,
          "velocity": 0.7874015748031497
        },
        {
          "duration": 0.14705875000001356,
          "durationTicks": 24,
          "midi": 38,
          "name": "D2",
          "ticks": 34896,
          "time": 213.82342250000002,
          "velocity": 0.7874015748031497
        },
        {
          "duration": 0.14705875000001356,
          "durationTicks": 24,
          "midi": 46,
          "name": "A#2",
          "ticks": 34896,
          "time": 213.82342250000002,
          "velocity": 0.7874015748031497
        },
        {
          "duration": 0.14705874999998514,
          "durationTicks": 24,
          "midi": 36,
          "name": "C2",
          "ticks": 34920,
          "time": 213.97048125000003,
          "velocity": 0.7874015748031497
        },
        {
          "duration": 0.14705875000001356,
          "durationTicks": 24,
          "midi": 46,
          "name": "A#2",
          "ticks": 34944,
          "time": 214.11754000000002,
          "velocity": 0.7874015748031497
        },
        {
          "duration": 0.14705875000001356,
          "durationTicks": 24,
          "midi": 36,
          "name": "C2",
          "ticks": 34944,
          "time": 214.11754000000002,
          "velocity": 0.7874015748031497
        },
        {
          "duration": 0.14705874999998514,
          "durationTicks": 24,
          "midi": 36,
          "name": "C2",
          "ticks": 34968,
          "time": 214.26459875000003,
          "velocity": 0.7874015748031497
        },
        {
          "duration": 0.14705875000001356,
          "durationTicks": 24,
          "midi": 38,
          "name": "D2",
          "ticks": 34992,
          "time": 214.41165750000002,
          "velocity": 0.7874015748031497
        },
        {
          "duration": 0.14705875000001356,
          "durationTicks": 24,
          "midi": 46,
          "name": "A#2",
          "ticks": 34992,
          "time": 214.41165750000002,
          "velocity": 0.7874015748031497
        },
        {
          "duration": 0.44117625000001226,
          "durationTicks": 72,
          "midi": 49,
          "name": "C#3",
          "ticks": 35040,
          "time": 214.70577500000002,
          "velocity": 0.7874015748031497
        },
        {
          "duration": 0.14705875000001356,
          "durationTicks": 24,
          "midi": 36,
          "name": "C2",
          "ticks": 35040,
          "time": 214.70577500000002,
          "velocity": 0.7874015748031497
        },
        {
          "duration": 0.14705875000001356,
          "durationTicks": 24,
          "midi": 38,
          "name": "D2",
          "ticks": 35088,
          "time": 214.99989250000002,
          "velocity": 0.7874015748031497
        },
        {
          "duration": 0.44117624999998384,
          "durationTicks": 72,
          "midi": 49,
          "name": "C#3",
          "ticks": 35112,
          "time": 215.14695125000003,
          "velocity": 0.7874015748031497
        },
        {
          "duration": 0.14705875000001356,
          "durationTicks": 24,
          "midi": 36,
          "name": "C2",
          "ticks": 35136,
          "time": 215.29401000000001,
          "velocity": 0.7874015748031497
        },
        {
          "duration": 0.14705874999998514,
          "durationTicks": 24,
          "midi": 36,
          "name": "C2",
          "ticks": 35160,
          "time": 215.44106875000003,
          "velocity": 0.7874015748031497
        },
        {
          "duration": 0.14705875000001356,
          "durationTicks": 24,
          "midi": 38,
          "name": "D2",
          "ticks": 35184,
          "time": 215.5881275,
          "velocity": 0.7874015748031497
        },
        {
          "duration": 0.14705875000001356,
          "durationTicks": 24,
          "midi": 46,
          "name": "A#2",
          "ticks": 35184,
          "time": 215.5881275,
          "velocity": 0.7874015748031497
        },
        {
          "duration": 0.07352937500002099,
          "durationTicks": 12,
          "midi": 36,
          "name": "C2",
          "ticks": 35232,
          "time": 215.882245,
          "velocity": 0.7874015748031497
        },
        {
          "duration": 0.14705875000001356,
          "durationTicks": 24,
          "midi": 46,
          "name": "A#2",
          "ticks": 35232,
          "time": 215.882245,
          "velocity": 0.7874015748031497
        },
        {
          "duration": 0.07352937499999257,
          "durationTicks": 12,
          "midi": 36,
          "name": "C2",
          "ticks": 35244,
          "time": 215.95577437500003,
          "velocity": 0.7874015748031497
        },
        {
          "duration": 0.14705874999998514,
          "durationTicks": 24,
          "midi": 36,
          "name": "C2",
          "ticks": 35256,
          "time": 216.02930375000003,
          "velocity": 0.7874015748031497
        },
        {
          "duration": 0.14705875000001356,
          "durationTicks": 24,
          "midi": 46,
          "name": "A#2",
          "ticks": 35280,
          "time": 216.1763625,
          "velocity": 0.7874015748031497
        },
        {
          "duration": 0.14705875000001356,
          "durationTicks": 24,
          "midi": 38,
          "name": "D2",
          "ticks": 35280,
          "time": 216.1763625,
          "velocity": 0.7874015748031497
        },
        {
          "duration": 0.14705875000001356,
          "durationTicks": 24,
          "midi": 36,
          "name": "C2",
          "ticks": 35280,
          "time": 216.1763625,
          "velocity": 0.7874015748031497
        },
        {
          "duration": 0.14705874999998514,
          "durationTicks": 24,
          "midi": 36,
          "name": "C2",
          "ticks": 35304,
          "time": 216.32342125000002,
          "velocity": 0.7874015748031497
        },
        {
          "duration": 0.14705875000001356,
          "durationTicks": 24,
          "midi": 46,
          "name": "A#2",
          "ticks": 35328,
          "time": 216.47048,
          "velocity": 0.7874015748031497
        },
        {
          "duration": 0.14705875000001356,
          "durationTicks": 24,
          "midi": 36,
          "name": "C2",
          "ticks": 35328,
          "time": 216.47048,
          "velocity": 0.7874015748031497
        },
        {
          "duration": 0.14705874999998514,
          "durationTicks": 24,
          "midi": 38,
          "name": "D2",
          "ticks": 35376,
          "time": 216.76459750000004,
          "velocity": 0.7874015748031497
        },
        {
          "duration": 0.14705874999998514,
          "durationTicks": 24,
          "midi": 46,
          "name": "A#2",
          "ticks": 35376,
          "time": 216.76459750000004,
          "velocity": 0.7874015748031497
        },
        {
          "duration": 0.14705874999998514,
          "durationTicks": 24,
          "midi": 36,
          "name": "C2",
          "ticks": 35424,
          "time": 217.05871500000003,
          "velocity": 0.7874015748031497
        },
        {
          "duration": 0.44117624999998384,
          "durationTicks": 72,
          "midi": 49,
          "name": "C#3",
          "ticks": 35424,
          "time": 217.05871500000003,
          "velocity": 0.7874015748031497
        },
        {
          "duration": 0.14705874999998514,
          "durationTicks": 24,
          "midi": 38,
          "name": "D2",
          "ticks": 35472,
          "time": 217.35283250000003,
          "velocity": 0.7874015748031497
        },
        {
          "duration": 0.44117625000001226,
          "durationTicks": 72,
          "midi": 49,
          "name": "C#3",
          "ticks": 35496,
          "time": 217.49989125000002,
          "velocity": 0.7874015748031497
        },
        {
          "duration": 0.14705874999998514,
          "durationTicks": 24,
          "midi": 36,
          "name": "C2",
          "ticks": 35520,
          "time": 217.64695000000003,
          "velocity": 0.7874015748031497
        },
        {
          "duration": 0.14705875000001356,
          "durationTicks": 24,
          "midi": 36,
          "name": "C2",
          "ticks": 35544,
          "time": 217.79400875000002,
          "velocity": 0.7874015748031497
        },
        {
          "duration": 0.14705874999998514,
          "durationTicks": 24,
          "midi": 46,
          "name": "A#2",
          "ticks": 35568,
          "time": 217.94106750000003,
          "velocity": 0.7874015748031497
        },
        {
          "duration": 0.14705874999998514,
          "durationTicks": 24,
          "midi": 38,
          "name": "D2",
          "ticks": 35568,
          "time": 217.94106750000003,
          "velocity": 0.7874015748031497
        },
        {
          "duration": 0.14705874999998514,
          "durationTicks": 24,
          "midi": 46,
          "name": "A#2",
          "ticks": 35616,
          "time": 218.23518500000003,
          "velocity": 0.7874015748031497
        },
        {
          "duration": 0.14705874999998514,
          "durationTicks": 24,
          "midi": 36,
          "name": "C2",
          "ticks": 35616,
          "time": 218.23518500000003,
          "velocity": 0.7874015748031497
        },
        {
          "duration": 0.14705875000001356,
          "durationTicks": 24,
          "midi": 36,
          "name": "C2",
          "ticks": 35640,
          "time": 218.38224375000001,
          "velocity": 0.7874015748031497
        },
        {
          "duration": 0.14705874999998514,
          "durationTicks": 24,
          "midi": 36,
          "name": "C2",
          "ticks": 35664,
          "time": 218.52930250000003,
          "velocity": 0.7874015748031497
        },
        {
          "duration": 0.14705874999998514,
          "durationTicks": 24,
          "midi": 38,
          "name": "D2",
          "ticks": 35664,
          "time": 218.52930250000003,
          "velocity": 0.7874015748031497
        },
        {
          "duration": 0.14705874999998514,
          "durationTicks": 24,
          "midi": 46,
          "name": "A#2",
          "ticks": 35664,
          "time": 218.52930250000003,
          "velocity": 0.7874015748031497
        },
        {
          "duration": 0.14705875000001356,
          "durationTicks": 24,
          "midi": 36,
          "name": "C2",
          "ticks": 35688,
          "time": 218.67636125,
          "velocity": 0.7874015748031497
        },
        {
          "duration": 0.14705874999998514,
          "durationTicks": 24,
          "midi": 36,
          "name": "C2",
          "ticks": 35712,
          "time": 218.82342000000003,
          "velocity": 0.7874015748031497
        },
        {
          "duration": 0.14705874999998514,
          "durationTicks": 24,
          "midi": 46,
          "name": "A#2",
          "ticks": 35712,
          "time": 218.82342000000003,
          "velocity": 0.7874015748031497
        },
        {
          "duration": 0.14705875000001356,
          "durationTicks": 24,
          "midi": 36,
          "name": "C2",
          "ticks": 35736,
          "time": 218.97047875,
          "velocity": 0.7874015748031497
        },
        {
          "duration": 0.14705874999998514,
          "durationTicks": 24,
          "midi": 38,
          "name": "D2",
          "ticks": 35760,
          "time": 219.11753750000003,
          "velocity": 0.7874015748031497
        },
        {
          "duration": 0.14705874999998514,
          "durationTicks": 24,
          "midi": 46,
          "name": "A#2",
          "ticks": 35760,
          "time": 219.11753750000003,
          "velocity": 0.7874015748031497
        },
        {
          "duration": 0.07352937499999257,
          "durationTicks": 12,
          "midi": 36,
          "name": "C2",
          "ticks": 35808,
          "time": 219.41165500000002,
          "velocity": 0.7874015748031497
        },
        {
          "duration": 0.44117625000001226,
          "durationTicks": 72,
          "midi": 49,
          "name": "C#3",
          "ticks": 35808,
          "time": 219.41165500000002,
          "velocity": 0.7874015748031497
        },
        {
          "duration": 0.07352937499999257,
          "durationTicks": 12,
          "midi": 36,
          "name": "C2",
          "ticks": 35820,
          "time": 219.48518437500002,
          "velocity": 0.7874015748031497
        },
        {
          "duration": 0.14705875000001356,
          "durationTicks": 24,
          "midi": 36,
          "name": "C2",
          "ticks": 35832,
          "time": 219.55871375,
          "velocity": 0.7874015748031497
        },
        {
          "duration": 0.14705875000001356,
          "durationTicks": 24,
          "midi": 36,
          "name": "C2",
          "ticks": 35856,
          "time": 219.70577250000002,
          "velocity": 0.7874015748031497
        },
        {
          "duration": 0.14705874999998514,
          "durationTicks": 24,
          "midi": 36,
          "name": "C2",
          "ticks": 35880,
          "time": 219.85283125000004,
          "velocity": 0.7874015748031497
        },
        {
          "duration": 0.44117624999998384,
          "durationTicks": 72,
          "midi": 49,
          "name": "C#3",
          "ticks": 35880,
          "time": 219.85283125000004,
          "velocity": 0.7874015748031497
        },
        {
          "duration": 0.07352937499999257,
          "durationTicks": 12,
          "midi": 36,
          "name": "C2",
          "ticks": 35904,
          "time": 219.99989000000002,
          "velocity": 0.7874015748031497
        },
        {
          "duration": 0.07352937500002099,
          "durationTicks": 12,
          "midi": 36,
          "name": "C2",
          "ticks": 35916,
          "time": 220.07341937500001,
          "velocity": 0.7874015748031497
        },
        {
          "duration": 0.14705874999998514,
          "durationTicks": 24,
          "midi": 36,
          "name": "C2",
          "ticks": 35928,
          "time": 220.14694875000004,
          "velocity": 0.7874015748031497
        },
        {
          "duration": 0.14705875000001356,
          "durationTicks": 24,
          "midi": 38,
          "name": "D2",
          "ticks": 35952,
          "time": 220.29400750000002,
          "velocity": 0.7874015748031497
        },
        {
          "duration": 0.14705874999998514,
          "durationTicks": 24,
          "midi": 38,
          "name": "D2",
          "ticks": 35976,
          "time": 220.44106625000003,
          "velocity": 0.7874015748031497
        },
        {
          "duration": 0.44117625000001226,
          "durationTicks": 72,
          "midi": 49,
          "name": "C#3",
          "ticks": 36000,
          "time": 220.58812500000002,
          "velocity": 0.7874015748031497
        },
        {
          "duration": 0.07352937499999257,
          "durationTicks": 12,
          "midi": 36,
          "name": "C2",
          "ticks": 36000,
          "time": 220.58812500000002,
          "velocity": 0.7874015748031497
        },
        {
          "duration": 0.07352937500002099,
          "durationTicks": 12,
          "midi": 36,
          "name": "C2",
          "ticks": 36012,
          "time": 220.661654375,
          "velocity": 0.7874015748031497
        },
        {
          "duration": 0.14705874999998514,
          "durationTicks": 24,
          "midi": 36,
          "name": "C2",
          "ticks": 36024,
          "time": 220.73518375000003,
          "velocity": 0.7874015748031497
        },
        {
          "duration": 0.14705875000001356,
          "durationTicks": 24,
          "midi": 36,
          "name": "C2",
          "ticks": 36048,
          "time": 220.88224250000002,
          "velocity": 0.7874015748031497
        },
        {
          "duration": 0.14705874999998514,
          "durationTicks": 24,
          "midi": 36,
          "name": "C2",
          "ticks": 36072,
          "time": 221.02930125000003,
          "velocity": 0.7874015748031497
        },
        {
          "duration": 0.14705875000001356,
          "durationTicks": 24,
          "midi": 38,
          "name": "D2",
          "ticks": 36096,
          "time": 221.17636000000002,
          "velocity": 0.7874015748031497
        },
        {
          "duration": 0.14705874999998514,
          "durationTicks": 24,
          "midi": 38,
          "name": "D2",
          "ticks": 36120,
          "time": 221.32341875000003,
          "velocity": 0.7874015748031497
        },
        {
          "duration": 0.14705875000001356,
          "durationTicks": 24,
          "midi": 38,
          "name": "D2",
          "ticks": 36144,
          "time": 221.47047750000002,
          "velocity": 0.7874015748031497
        },
        {
          "duration": 0.14705874999998514,
          "durationTicks": 24,
          "midi": 38,
          "name": "D2",
          "ticks": 36168,
          "time": 221.61753625000003,
          "velocity": 0.7874015748031497
        },
        {
          "duration": 0.44117625000001226,
          "durationTicks": 72,
          "midi": 49,
          "name": "C#3",
          "ticks": 36192,
          "time": 221.764595,
          "velocity": 0.7874015748031497
        },
        {
          "duration": 0.14705875000001356,
          "durationTicks": 24,
          "midi": 36,
          "name": "C2",
          "ticks": 36192,
          "time": 221.764595,
          "velocity": 0.7874015748031497
        },
        {
          "duration": 0.14705875000001356,
          "durationTicks": 24,
          "midi": 38,
          "name": "D2",
          "ticks": 36240,
          "time": 222.0587125,
          "velocity": 0.7874015748031497
        },
        {
          "duration": 0.44117624999998384,
          "durationTicks": 72,
          "midi": 49,
          "name": "C#3",
          "ticks": 36264,
          "time": 222.20577125000003,
          "velocity": 0.7874015748031497
        },
        {
          "duration": 0.14705875000001356,
          "durationTicks": 24,
          "midi": 36,
          "name": "C2",
          "ticks": 36288,
          "time": 222.35283,
          "velocity": 0.7874015748031497
        },
        {
          "duration": 0.14705874999998514,
          "durationTicks": 24,
          "midi": 36,
          "name": "C2",
          "ticks": 36312,
          "time": 222.49988875000003,
          "velocity": 0.7874015748031497
        },
        {
          "duration": 0.14705875000001356,
          "durationTicks": 24,
          "midi": 46,
          "name": "A#2",
          "ticks": 36336,
          "time": 222.6469475,
          "velocity": 0.7874015748031497
        },
        {
          "duration": 0.14705875000001356,
          "durationTicks": 24,
          "midi": 38,
          "name": "D2",
          "ticks": 36336,
          "time": 222.6469475,
          "velocity": 0.7874015748031497
        },
        {
          "duration": 0.14705874999998514,
          "durationTicks": 24,
          "midi": 36,
          "name": "C2",
          "ticks": 36384,
          "time": 222.94106500000004,
          "velocity": 0.7874015748031497
        },
        {
          "duration": 0.14705874999998514,
          "durationTicks": 24,
          "midi": 46,
          "name": "A#2",
          "ticks": 36384,
          "time": 222.94106500000004,
          "velocity": 0.7874015748031497
        },
        {
          "duration": 0.14705875000001356,
          "durationTicks": 24,
          "midi": 36,
          "name": "C2",
          "ticks": 36408,
          "time": 223.08812375000002,
          "velocity": 0.7874015748031497
        },
        {
          "duration": 0.14705874999998514,
          "durationTicks": 24,
          "midi": 46,
          "name": "A#2",
          "ticks": 36432,
          "time": 223.23518250000004,
          "velocity": 0.7874015748031497
        },
        {
          "duration": 0.14705874999998514,
          "durationTicks": 24,
          "midi": 38,
          "name": "D2",
          "ticks": 36432,
          "time": 223.23518250000004,
          "velocity": 0.7874015748031497
        },
        {
          "duration": 0.14705874999998514,
          "durationTicks": 24,
          "midi": 36,
          "name": "C2",
          "ticks": 36432,
          "time": 223.23518250000004,
          "velocity": 0.7874015748031497
        },
        {
          "duration": 0.14705875000001356,
          "durationTicks": 24,
          "midi": 36,
          "name": "C2",
          "ticks": 36456,
          "time": 223.38224125000002,
          "velocity": 0.7874015748031497
        },
        {
          "duration": 0.14705874999998514,
          "durationTicks": 24,
          "midi": 36,
          "name": "C2",
          "ticks": 36480,
          "time": 223.52930000000003,
          "velocity": 0.7874015748031497
        },
        {
          "duration": 0.14705874999998514,
          "durationTicks": 24,
          "midi": 46,
          "name": "A#2",
          "ticks": 36480,
          "time": 223.52930000000003,
          "velocity": 0.7874015748031497
        },
        {
          "duration": 0.14705875000001356,
          "durationTicks": 24,
          "midi": 36,
          "name": "C2",
          "ticks": 36504,
          "time": 223.67635875000002,
          "velocity": 0.7874015748031497
        },
        {
          "duration": 0.14705874999998514,
          "durationTicks": 24,
          "midi": 38,
          "name": "D2",
          "ticks": 36528,
          "time": 223.82341750000003,
          "velocity": 0.7874015748031497
        },
        {
          "duration": 0.14705874999998514,
          "durationTicks": 24,
          "midi": 46,
          "name": "A#2",
          "ticks": 36528,
          "time": 223.82341750000003,
          "velocity": 0.7874015748031497
        },
        {
          "duration": 0.14705874999998514,
          "durationTicks": 24,
          "midi": 36,
          "name": "C2",
          "ticks": 36576,
          "time": 224.11753500000003,
          "velocity": 0.7874015748031497
        },
        {
          "duration": 0.44117624999998384,
          "durationTicks": 72,
          "midi": 49,
          "name": "C#3",
          "ticks": 36576,
          "time": 224.11753500000003,
          "velocity": 0.7874015748031497
        },
        {
          "duration": 0.14705874999998514,
          "durationTicks": 24,
          "midi": 38,
          "name": "D2",
          "ticks": 36624,
          "time": 224.41165250000003,
          "velocity": 0.7874015748031497
        },
        {
          "duration": 0.44117625000001226,
          "durationTicks": 72,
          "midi": 49,
          "name": "C#3",
          "ticks": 36648,
          "time": 224.55871125000002,
          "velocity": 0.7874015748031497
        },
        {
          "duration": 0.14705874999998514,
          "durationTicks": 24,
          "midi": 36,
          "name": "C2",
          "ticks": 36672,
          "time": 224.70577000000003,
          "velocity": 0.7874015748031497
        },
        {
          "duration": 0.14705875000001356,
          "durationTicks": 24,
          "midi": 36,
          "name": "C2",
          "ticks": 36696,
          "time": 224.85282875000001,
          "velocity": 0.7874015748031497
        },
        {
          "duration": 0.14705874999998514,
          "durationTicks": 24,
          "midi": 38,
          "name": "D2",
          "ticks": 36720,
          "time": 224.99988750000003,
          "velocity": 0.7874015748031497
        },
        {
          "duration": 0.14705874999998514,
          "durationTicks": 24,
          "midi": 46,
          "name": "A#2",
          "ticks": 36720,
          "time": 224.99988750000003,
          "velocity": 0.7874015748031497
        },
        {
          "duration": 0.14705874999998514,
          "durationTicks": 24,
          "midi": 46,
          "name": "A#2",
          "ticks": 36768,
          "time": 225.29400500000003,
          "velocity": 0.7874015748031497
        },
        {
          "duration": 0.07352937499999257,
          "durationTicks": 12,
          "midi": 36,
          "name": "C2",
          "ticks": 36768,
          "time": 225.29400500000003,
          "velocity": 0.7874015748031497
        },
        {
          "duration": 0.07352937499999257,
          "durationTicks": 12,
          "midi": 36,
          "name": "C2",
          "ticks": 36780,
          "time": 225.36753437500002,
          "velocity": 0.7874015748031497
        },
        {
          "duration": 0.14705875000001356,
          "durationTicks": 24,
          "midi": 36,
          "name": "C2",
          "ticks": 36792,
          "time": 225.44106375,
          "velocity": 0.7874015748031497
        },
        {
          "duration": 0.14705874999998514,
          "durationTicks": 24,
          "midi": 46,
          "name": "A#2",
          "ticks": 36816,
          "time": 225.58812250000003,
          "velocity": 0.7874015748031497
        },
        {
          "duration": 0.14705874999998514,
          "durationTicks": 24,
          "midi": 38,
          "name": "D2",
          "ticks": 36816,
          "time": 225.58812250000003,
          "velocity": 0.7874015748031497
        },
        {
          "duration": 0.14705874999998514,
          "durationTicks": 24,
          "midi": 36,
          "name": "C2",
          "ticks": 36816,
          "time": 225.58812250000003,
          "velocity": 0.7874015748031497
        },
        {
          "duration": 0.14705875000001356,
          "durationTicks": 24,
          "midi": 36,
          "name": "C2",
          "ticks": 36840,
          "time": 225.73518125,
          "velocity": 0.7874015748031497
        },
        {
          "duration": 0.14705875000001356,
          "durationTicks": 24,
          "midi": 46,
          "name": "A#2",
          "ticks": 36864,
          "time": 225.88224000000002,
          "velocity": 0.7874015748031497
        },
        {
          "duration": 0.14705875000001356,
          "durationTicks": 24,
          "midi": 36,
          "name": "C2",
          "ticks": 36864,
          "time": 225.88224000000002,
          "velocity": 0.7874015748031497
        },
        {
          "duration": 0.14705875000001356,
          "durationTicks": 24,
          "midi": 38,
          "name": "D2",
          "ticks": 36912,
          "time": 226.17635750000002,
          "velocity": 0.7874015748031497
        },
        {
          "duration": 0.14705875000001356,
          "durationTicks": 24,
          "midi": 46,
          "name": "A#2",
          "ticks": 36912,
          "time": 226.17635750000002,
          "velocity": 0.7874015748031497
        },
        {
          "duration": 0.14705875000001356,
          "durationTicks": 24,
          "midi": 36,
          "name": "C2",
          "ticks": 36960,
          "time": 226.47047500000002,
          "velocity": 0.7874015748031497
        },
        {
          "duration": 0.44117625000001226,
          "durationTicks": 72,
          "midi": 49,
          "name": "C#3",
          "ticks": 36960,
          "time": 226.47047500000002,
          "velocity": 0.7874015748031497
        },
        {
          "duration": 0.14705875000001356,
          "durationTicks": 24,
          "midi": 38,
          "name": "D2",
          "ticks": 37008,
          "time": 226.76459250000002,
          "velocity": 0.7874015748031497
        },
        {
          "duration": 0.44117624999998384,
          "durationTicks": 72,
          "midi": 49,
          "name": "C#3",
          "ticks": 37032,
          "time": 226.91165125000003,
          "velocity": 0.7874015748031497
        },
        {
          "duration": 0.14705875000001356,
          "durationTicks": 24,
          "midi": 36,
          "name": "C2",
          "ticks": 37056,
          "time": 227.05871000000002,
          "velocity": 0.7874015748031497
        },
        {
          "duration": 0.14705874999998514,
          "durationTicks": 24,
          "midi": 36,
          "name": "C2",
          "ticks": 37080,
          "time": 227.20576875000003,
          "velocity": 0.7874015748031497
        },
        {
          "duration": 0.14705875000001356,
          "durationTicks": 24,
          "midi": 46,
          "name": "A#2",
          "ticks": 37104,
          "time": 227.35282750000002,
          "velocity": 0.7874015748031497
        },
        {
          "duration": 0.14705875000001356,
          "durationTicks": 24,
          "midi": 38,
          "name": "D2",
          "ticks": 37104,
          "time": 227.35282750000002,
          "velocity": 0.7874015748031497
        },
        {
          "duration": 0.14705875000001356,
          "durationTicks": 24,
          "midi": 36,
          "name": "C2",
          "ticks": 37152,
          "time": 227.64694500000002,
          "velocity": 0.7874015748031497
        },
        {
          "duration": 0.14705875000001356,
          "durationTicks": 24,
          "midi": 46,
          "name": "A#2",
          "ticks": 37152,
          "time": 227.64694500000002,
          "velocity": 0.7874015748031497
        },
        {
          "duration": 0.14705874999998514,
          "durationTicks": 24,
          "midi": 36,
          "name": "C2",
          "ticks": 37176,
          "time": 227.79400375000003,
          "velocity": 0.7874015748031497
        },
        {
          "duration": 0.14705875000001356,
          "durationTicks": 24,
          "midi": 46,
          "name": "A#2",
          "ticks": 37200,
          "time": 227.94106250000002,
          "velocity": 0.7874015748031497
        },
        {
          "duration": 0.14705875000001356,
          "durationTicks": 24,
          "midi": 38,
          "name": "D2",
          "ticks": 37200,
          "time": 227.94106250000002,
          "velocity": 0.7874015748031497
        },
        {
          "duration": 0.14705875000001356,
          "durationTicks": 24,
          "midi": 36,
          "name": "C2",
          "ticks": 37200,
          "time": 227.94106250000002,
          "velocity": 0.7874015748031497
        },
        {
          "duration": 0.14705874999998514,
          "durationTicks": 24,
          "midi": 36,
          "name": "C2",
          "ticks": 37224,
          "time": 228.08812125000003,
          "velocity": 0.7874015748031497
        },
        {
          "duration": 0.14705875000001356,
          "durationTicks": 24,
          "midi": 46,
          "name": "A#2",
          "ticks": 37248,
          "time": 228.23518,
          "velocity": 0.7874015748031497
        },
        {
          "duration": 0.14705875000001356,
          "durationTicks": 24,
          "midi": 36,
          "name": "C2",
          "ticks": 37248,
          "time": 228.23518,
          "velocity": 0.7874015748031497
        },
        {
          "duration": 0.14705874999998514,
          "durationTicks": 24,
          "midi": 36,
          "name": "C2",
          "ticks": 37272,
          "time": 228.38223875000003,
          "velocity": 0.7874015748031497
        },
        {
          "duration": 0.14705875000001356,
          "durationTicks": 24,
          "midi": 38,
          "name": "D2",
          "ticks": 37296,
          "time": 228.5292975,
          "velocity": 0.7874015748031497
        },
        {
          "duration": 0.14705875000001356,
          "durationTicks": 24,
          "midi": 46,
          "name": "A#2",
          "ticks": 37296,
          "time": 228.5292975,
          "velocity": 0.7874015748031497
        },
        {
          "duration": 0.44117625000001226,
          "durationTicks": 72,
          "midi": 49,
          "name": "C#3",
          "ticks": 37344,
          "time": 228.823415,
          "velocity": 0.7874015748031497
        },
        {
          "duration": 0.07352937500002099,
          "durationTicks": 12,
          "midi": 36,
          "name": "C2",
          "ticks": 37344,
          "time": 228.823415,
          "velocity": 0.7874015748031497
        },
        {
          "duration": 0.07352937499999257,
          "durationTicks": 12,
          "midi": 36,
          "name": "C2",
          "ticks": 37356,
          "time": 228.89694437500003,
          "velocity": 0.7874015748031497
        },
        {
          "duration": 0.14705875000001356,
          "durationTicks": 24,
          "midi": 36,
          "name": "C2",
          "ticks": 37368,
          "time": 228.97047375000002,
          "velocity": 0.7874015748031497
        },
        {
          "duration": 0.14705874999998514,
          "durationTicks": 24,
          "midi": 36,
          "name": "C2",
          "ticks": 37392,
          "time": 229.11753250000004,
          "velocity": 0.7874015748031497
        },
        {
          "duration": 0.44117625000001226,
          "durationTicks": 72,
          "midi": 49,
          "name": "C#3",
          "ticks": 37416,
          "time": 229.26459125000002,
          "velocity": 0.7874015748031497
        },
        {
          "duration": 0.14705875000001356,
          "durationTicks": 24,
          "midi": 36,
          "name": "C2",
          "ticks": 37416,
          "time": 229.26459125000002,
          "velocity": 0.7874015748031497
        },
        {
          "duration": 0.07352937499999257,
          "durationTicks": 12,
          "midi": 36,
          "name": "C2",
          "ticks": 37440,
          "time": 229.41165000000004,
          "velocity": 0.7874015748031497
        },
        {
          "duration": 0.07352937499999257,
          "durationTicks": 12,
          "midi": 36,
          "name": "C2",
          "ticks": 37452,
          "time": 229.48517937500003,
          "velocity": 0.7874015748031497
        },
        {
          "duration": 0.14705875000001356,
          "durationTicks": 24,
          "midi": 36,
          "name": "C2",
          "ticks": 37464,
          "time": 229.55870875000002,
          "velocity": 0.7874015748031497
        },
        {
          "duration": 0.14705874999998514,
          "durationTicks": 24,
          "midi": 38,
          "name": "D2",
          "ticks": 37488,
          "time": 229.70576750000004,
          "velocity": 0.7874015748031497
        },
        {
          "duration": 0.14705875000001356,
          "durationTicks": 24,
          "midi": 38,
          "name": "D2",
          "ticks": 37512,
          "time": 229.85282625000002,
          "velocity": 0.7874015748031497
        },
        {
          "duration": 0.44117624999998384,
          "durationTicks": 72,
          "midi": 49,
          "name": "C#3",
          "ticks": 37536,
          "time": 229.99988500000003,
          "velocity": 0.7874015748031497
        },
        {
          "duration": 0.07352937499999257,
          "durationTicks": 12,
          "midi": 36,
          "name": "C2",
          "ticks": 37536,
          "time": 229.99988500000003,
          "velocity": 0.7874015748031497
        },
        {
          "duration": 0.07352937499999257,
          "durationTicks": 12,
          "midi": 36,
          "name": "C2",
          "ticks": 37548,
          "time": 230.07341437500003,
          "velocity": 0.7874015748031497
        },
        {
          "duration": 0.14705875000001356,
          "durationTicks": 24,
          "midi": 36,
          "name": "C2",
          "ticks": 37560,
          "time": 230.14694375000002,
          "velocity": 0.7874015748031497
        },
        {
          "duration": 0.14705874999998514,
          "durationTicks": 24,
          "midi": 36,
          "name": "C2",
          "ticks": 37584,
          "time": 230.29400250000003,
          "velocity": 0.7874015748031497
        },
        {
          "duration": 0.14705875000001356,
          "durationTicks": 24,
          "midi": 36,
          "name": "C2",
          "ticks": 37608,
          "time": 230.44106125000002,
          "velocity": 0.7874015748031497
        },
        {
          "duration": 0.14705874999998514,
          "durationTicks": 24,
          "midi": 38,
          "name": "D2",
          "ticks": 37632,
          "time": 230.58812000000003,
          "velocity": 0.7874015748031497
        },
        {
          "duration": 0.14705875000001356,
          "durationTicks": 24,
          "midi": 38,
          "name": "D2",
          "ticks": 37656,
          "time": 230.73517875000002,
          "velocity": 0.7874015748031497
        },
        {
          "duration": 0.14705874999998514,
          "durationTicks": 24,
          "midi": 38,
          "name": "D2",
          "ticks": 37680,
          "time": 230.88223750000003,
          "velocity": 0.7874015748031497
        },
        {
          "duration": 0.14705875000001356,
          "durationTicks": 24,
          "midi": 38,
          "name": "D2",
          "ticks": 37704,
          "time": 231.02929625000002,
          "velocity": 0.7874015748031497
        },
        {
          "duration": 0.14705874999998514,
          "durationTicks": 24,
          "midi": 36,
          "name": "C2",
          "ticks": 37728,
          "time": 231.17635500000003,
          "velocity": 0.7874015748031497
        },
        {
          "duration": 0.44117624999998384,
          "durationTicks": 72,
          "midi": 49,
          "name": "C#3",
          "ticks": 37728,
          "time": 231.17635500000003,
          "velocity": 0.7874015748031497
        },
        {
          "duration": 0.14705875000001356,
          "durationTicks": 24,
          "midi": 36,
          "name": "C2",
          "ticks": 37752,
          "time": 231.32341375000001,
          "velocity": 0.7874015748031497
        },
        {
          "duration": 0.14705874999998514,
          "durationTicks": 24,
          "midi": 46,
          "name": "A#2",
          "ticks": 37776,
          "time": 231.47047250000003,
          "velocity": 0.7874015748031497
        },
        {
          "duration": 0.14705874999998514,
          "durationTicks": 24,
          "midi": 36,
          "name": "C2",
          "ticks": 37776,
          "time": 231.47047250000003,
          "velocity": 0.7874015748031497
        },
        {
          "duration": 0.14705875000001356,
          "durationTicks": 24,
          "midi": 36,
          "name": "C2",
          "ticks": 37800,
          "time": 231.61753125,
          "velocity": 0.7874015748031497
        },
        {
          "duration": 0.14705874999998514,
          "durationTicks": 24,
          "midi": 46,
          "name": "A#2",
          "ticks": 37824,
          "time": 231.76459000000003,
          "velocity": 0.7874015748031497
        },
        {
          "duration": 0.14705874999998514,
          "durationTicks": 24,
          "midi": 38,
          "name": "D2",
          "ticks": 37824,
          "time": 231.76459000000003,
          "velocity": 0.7874015748031497
        },
        {
          "duration": 0.14705875000001356,
          "durationTicks": 24,
          "midi": 36,
          "name": "C2",
          "ticks": 37872,
          "time": 232.05870750000003,
          "velocity": 0.7874015748031497
        },
        {
          "duration": 0.14705875000001356,
          "durationTicks": 24,
          "midi": 46,
          "name": "A#2",
          "ticks": 37872,
          "time": 232.05870750000003,
          "velocity": 0.7874015748031497
        },
        {
          "duration": 0.14705874999998514,
          "durationTicks": 24,
          "midi": 36,
          "name": "C2",
          "ticks": 37896,
          "time": 232.20576625000004,
          "velocity": 0.7874015748031497
        },
        {
          "duration": 0.07352937499999257,
          "durationTicks": 12,
          "midi": 36,
          "name": "C2",
          "ticks": 37920,
          "time": 232.35282500000002,
          "velocity": 0.7874015748031497
        },
        {
          "duration": 0.14705875000001356,
          "durationTicks": 24,
          "midi": 46,
          "name": "A#2",
          "ticks": 37920,
          "time": 232.35282500000002,
          "velocity": 0.7874015748031497
        },
        {
          "duration": 0.07352937500002099,
          "durationTicks": 12,
          "midi": 36,
          "name": "C2",
          "ticks": 37932,
          "time": 232.42635437500002,
          "velocity": 0.7874015748031497
        },
        {
          "duration": 0.14705874999998514,
          "durationTicks": 24,
          "midi": 36,
          "name": "C2",
          "ticks": 37944,
          "time": 232.49988375000004,
          "velocity": 0.7874015748031497
        },
        {
          "duration": 0.14705875000001356,
          "durationTicks": 24,
          "midi": 36,
          "name": "C2",
          "ticks": 37968,
          "time": 232.64694250000002,
          "velocity": 0.7874015748031497
        },
        {
          "duration": 0.14705875000001356,
          "durationTicks": 24,
          "midi": 46,
          "name": "A#2",
          "ticks": 37968,
          "time": 232.64694250000002,
          "velocity": 0.7874015748031497
        },
        {
          "duration": 0.14705874999998514,
          "durationTicks": 24,
          "midi": 36,
          "name": "C2",
          "ticks": 37992,
          "time": 232.79400125000004,
          "velocity": 0.7874015748031497
        },
        {
          "duration": 0.14705875000001356,
          "durationTicks": 24,
          "midi": 46,
          "name": "A#2",
          "ticks": 38016,
          "time": 232.94106000000002,
          "velocity": 0.7874015748031497
        },
        {
          "duration": 0.14705875000001356,
          "durationTicks": 24,
          "midi": 38,
          "name": "D2",
          "ticks": 38016,
          "time": 232.94106000000002,
          "velocity": 0.7874015748031497
        },
        {
          "duration": 0.14705875000001356,
          "durationTicks": 24,
          "midi": 36,
          "name": "C2",
          "ticks": 38064,
          "time": 233.23517750000002,
          "velocity": 0.7874015748031497
        },
        {
          "duration": 0.14705875000001356,
          "durationTicks": 24,
          "midi": 46,
          "name": "A#2",
          "ticks": 38064,
          "time": 233.23517750000002,
          "velocity": 0.7874015748031497
        },
        {
          "duration": 0.14705875000001356,
          "durationTicks": 24,
          "midi": 36,
          "name": "C2",
          "ticks": 38112,
          "time": 233.52929500000002,
          "velocity": 0.7874015748031497
        },
        {
          "duration": 0.14705875000001356,
          "durationTicks": 24,
          "midi": 46,
          "name": "A#2",
          "ticks": 38112,
          "time": 233.52929500000002,
          "velocity": 0.7874015748031497
        },
        {
          "duration": 0.14705874999998514,
          "durationTicks": 24,
          "midi": 36,
          "name": "C2",
          "ticks": 38136,
          "time": 233.67635375000003,
          "velocity": 0.7874015748031497
        },
        {
          "duration": 0.14705875000001356,
          "durationTicks": 24,
          "midi": 36,
          "name": "C2",
          "ticks": 38160,
          "time": 233.82341250000002,
          "velocity": 0.7874015748031497
        },
        {
          "duration": 0.14705875000001356,
          "durationTicks": 24,
          "midi": 46,
          "name": "A#2",
          "ticks": 38160,
          "time": 233.82341250000002,
          "velocity": 0.7874015748031497
        },
        {
          "duration": 0.14705874999998514,
          "durationTicks": 24,
          "midi": 36,
          "name": "C2",
          "ticks": 38184,
          "time": 233.97047125000003,
          "velocity": 0.7874015748031497
        },
        {
          "duration": 0.14705875000001356,
          "durationTicks": 24,
          "midi": 38,
          "name": "D2",
          "ticks": 38208,
          "time": 234.11753000000002,
          "velocity": 0.7874015748031497
        },
        {
          "duration": 0.14705875000001356,
          "durationTicks": 24,
          "midi": 46,
          "name": "A#2",
          "ticks": 38208,
          "time": 234.11753000000002,
          "velocity": 0.7874015748031497
        },
        {
          "duration": 0.14705875000001356,
          "durationTicks": 24,
          "midi": 46,
          "name": "A#2",
          "ticks": 38256,
          "time": 234.41164750000002,
          "velocity": 0.7874015748031497
        },
        {
          "duration": 0.14705875000001356,
          "durationTicks": 24,
          "midi": 36,
          "name": "C2",
          "ticks": 38256,
          "time": 234.41164750000002,
          "velocity": 0.7874015748031497
        },
        {
          "duration": 0.14705874999998514,
          "durationTicks": 24,
          "midi": 36,
          "name": "C2",
          "ticks": 38280,
          "time": 234.55870625000003,
          "velocity": 0.7874015748031497
        },
        {
          "duration": 0.14705875000001356,
          "durationTicks": 24,
          "midi": 46,
          "name": "A#2",
          "ticks": 38304,
          "time": 234.705765,
          "velocity": 0.7874015748031497
        },
        {
          "duration": 0.07352937500002099,
          "durationTicks": 12,
          "midi": 36,
          "name": "C2",
          "ticks": 38304,
          "time": 234.705765,
          "velocity": 0.7874015748031497
        },
        {
          "duration": 0.07352937499999257,
          "durationTicks": 12,
          "midi": 36,
          "name": "C2",
          "ticks": 38316,
          "time": 234.77929437500003,
          "velocity": 0.7874015748031497
        },
        {
          "duration": 0.14705874999998514,
          "durationTicks": 24,
          "midi": 36,
          "name": "C2",
          "ticks": 38328,
          "time": 234.85282375000003,
          "velocity": 0.7874015748031497
        },
        {
          "duration": 0.14705875000001356,
          "durationTicks": 24,
          "midi": 46,
          "name": "A#2",
          "ticks": 38352,
          "time": 234.9998825,
          "velocity": 0.7874015748031497
        },
        {
          "duration": 0.14705875000001356,
          "durationTicks": 24,
          "midi": 36,
          "name": "C2",
          "ticks": 38352,
          "time": 234.9998825,
          "velocity": 0.7874015748031497
        },
        {
          "duration": 0.14705875000001356,
          "durationTicks": 24,
          "midi": 36,
          "name": "C2",
          "ticks": 38376,
          "time": 235.14694125000003,
          "velocity": 0.7874015748031497
        },
        {
          "duration": 0.14705874999998514,
          "durationTicks": 24,
          "midi": 46,
          "name": "A#2",
          "ticks": 38400,
          "time": 235.29400000000004,
          "velocity": 0.7874015748031497
        },
        {
          "duration": 0.14705874999998514,
          "durationTicks": 24,
          "midi": 38,
          "name": "D2",
          "ticks": 38400,
          "time": 235.29400000000004,
          "velocity": 0.7874015748031497
        },
        {
          "duration": 0.14705874999998514,
          "durationTicks": 24,
          "midi": 36,
          "name": "C2",
          "ticks": 38448,
          "time": 235.58811750000004,
          "velocity": 0.7874015748031497
        },
        {
          "duration": 0.14705874999998514,
          "durationTicks": 24,
          "midi": 46,
          "name": "A#2",
          "ticks": 38448,
          "time": 235.58811750000004,
          "velocity": 0.7874015748031497
        },
        {
          "duration": 0.14705874999998514,
          "durationTicks": 24,
          "midi": 36,
          "name": "C2",
          "ticks": 38496,
          "time": 235.88223500000004,
          "velocity": 0.7874015748031497
        },
        {
          "duration": 0.14705874999998514,
          "durationTicks": 24,
          "midi": 46,
          "name": "A#2",
          "ticks": 38496,
          "time": 235.88223500000004,
          "velocity": 0.7874015748031497
        },
        {
          "duration": 0.14705875000001356,
          "durationTicks": 24,
          "midi": 36,
          "name": "C2",
          "ticks": 38520,
          "time": 236.02929375000002,
          "velocity": 0.7874015748031497
        },
        {
          "duration": 0.14705874999998514,
          "durationTicks": 24,
          "midi": 36,
          "name": "C2",
          "ticks": 38544,
          "time": 236.17635250000004,
          "velocity": 0.7874015748031497
        },
        {
          "duration": 0.14705874999998514,
          "durationTicks": 24,
          "midi": 46,
          "name": "A#2",
          "ticks": 38544,
          "time": 236.17635250000004,
          "velocity": 0.7874015748031497
        },
        {
          "duration": 0.14705875000001356,
          "durationTicks": 24,
          "midi": 36,
          "name": "C2",
          "ticks": 38568,
          "time": 236.32341125000002,
          "velocity": 0.7874015748031497
        },
        {
          "duration": 0.14705874999998514,
          "durationTicks": 24,
          "midi": 38,
          "name": "D2",
          "ticks": 38592,
          "time": 236.47047000000003,
          "velocity": 0.7874015748031497
        },
        {
          "duration": 0.14705874999998514,
          "durationTicks": 24,
          "midi": 46,
          "name": "A#2",
          "ticks": 38592,
          "time": 236.47047000000003,
          "velocity": 0.7874015748031497
        },
        {
          "duration": 0.14705874999998514,
          "durationTicks": 24,
          "midi": 46,
          "name": "A#2",
          "ticks": 38640,
          "time": 236.76458750000003,
          "velocity": 0.7874015748031497
        },
        {
          "duration": 0.14705874999998514,
          "durationTicks": 24,
          "midi": 36,
          "name": "C2",
          "ticks": 38640,
          "time": 236.76458750000003,
          "velocity": 0.7874015748031497
        },
        {
          "duration": 0.14705875000001356,
          "durationTicks": 24,
          "midi": 36,
          "name": "C2",
          "ticks": 38664,
          "time": 236.91164625000002,
          "velocity": 0.7874015748031497
        },
        {
          "duration": 0.07352937499999257,
          "durationTicks": 12,
          "midi": 36,
          "name": "C2",
          "ticks": 38688,
          "time": 237.05870500000003,
          "velocity": 0.7874015748031497
        },
        {
          "duration": 0.14705874999998514,
          "durationTicks": 24,
          "midi": 46,
          "name": "A#2",
          "ticks": 38688,
          "time": 237.05870500000003,
          "velocity": 0.7874015748031497
        },
        {
          "duration": 0.07352937499999257,
          "durationTicks": 12,
          "midi": 36,
          "name": "C2",
          "ticks": 38700,
          "time": 237.13223437500002,
          "velocity": 0.7874015748031497
        },
        {
          "duration": 0.14705875000001356,
          "durationTicks": 24,
          "midi": 36,
          "name": "C2",
          "ticks": 38712,
          "time": 237.20576375000002,
          "velocity": 0.7874015748031497
        },
        {
          "duration": 0.14705874999998514,
          "durationTicks": 24,
          "midi": 36,
          "name": "C2",
          "ticks": 38736,
          "time": 237.35282250000003,
          "velocity": 0.7874015748031497
        },
        {
          "duration": 0.14705874999998514,
          "durationTicks": 24,
          "midi": 46,
          "name": "A#2",
          "ticks": 38736,
          "time": 237.35282250000003,
          "velocity": 0.7874015748031497
        },
        {
          "duration": 0.14705875000001356,
          "durationTicks": 24,
          "midi": 36,
          "name": "C2",
          "ticks": 38760,
          "time": 237.49988125000002,
          "velocity": 0.7874015748031497
        },
        {
          "duration": 0.14705874999998514,
          "durationTicks": 24,
          "midi": 38,
          "name": "D2",
          "ticks": 38784,
          "time": 237.64694000000003,
          "velocity": 0.7874015748031497
        },
        {
          "duration": 0.14705874999998514,
          "durationTicks": 24,
          "midi": 46,
          "name": "A#2",
          "ticks": 38784,
          "time": 237.64694000000003,
          "velocity": 0.7874015748031497
        },
        {
          "duration": 0.14705874999998514,
          "durationTicks": 24,
          "midi": 36,
          "name": "C2",
          "ticks": 38832,
          "time": 237.94105750000003,
          "velocity": 0.7874015748031497
        },
        {
          "duration": 0.14705874999998514,
          "durationTicks": 24,
          "midi": 46,
          "name": "A#2",
          "ticks": 38832,
          "time": 237.94105750000003,
          "velocity": 0.7874015748031497
        },
        {
          "duration": 0.14705874999998514,
          "durationTicks": 24,
          "midi": 36,
          "name": "C2",
          "ticks": 38880,
          "time": 238.23517500000003,
          "velocity": 0.7874015748031497
        },
        {
          "duration": 0.14705874999998514,
          "durationTicks": 24,
          "midi": 46,
          "name": "A#2",
          "ticks": 38880,
          "time": 238.23517500000003,
          "velocity": 0.7874015748031497
        },
        {
          "duration": 0.14705875000001356,
          "durationTicks": 24,
          "midi": 36,
          "name": "C2",
          "ticks": 38904,
          "time": 238.38223375,
          "velocity": 0.7874015748031497
        },
        {
          "duration": 0.14705875000001356,
          "durationTicks": 24,
          "midi": 46,
          "name": "A#2",
          "ticks": 38928,
          "time": 238.52929250000003,
          "velocity": 0.7874015748031497
        },
        {
          "duration": 0.14705875000001356,
          "durationTicks": 24,
          "midi": 36,
          "name": "C2",
          "ticks": 38928,
          "time": 238.52929250000003,
          "velocity": 0.7874015748031497
        },
        {
          "duration": 0.14705874999998514,
          "durationTicks": 24,
          "midi": 36,
          "name": "C2",
          "ticks": 38952,
          "time": 238.67635125000004,
          "velocity": 0.7874015748031497
        },
        {
          "duration": 0.14705875000001356,
          "durationTicks": 24,
          "midi": 38,
          "name": "D2",
          "ticks": 38976,
          "time": 238.82341000000002,
          "velocity": 0.7874015748031497
        },
        {
          "duration": 0.14705875000001356,
          "durationTicks": 24,
          "midi": 46,
          "name": "A#2",
          "ticks": 38976,
          "time": 238.82341000000002,
          "velocity": 0.7874015748031497
        },
        {
          "duration": 0.14705875000001356,
          "durationTicks": 24,
          "midi": 36,
          "name": "C2",
          "ticks": 39024,
          "time": 239.11752750000002,
          "velocity": 0.7874015748031497
        },
        {
          "duration": 0.14705875000001356,
          "durationTicks": 24,
          "midi": 46,
          "name": "A#2",
          "ticks": 39024,
          "time": 239.11752750000002,
          "velocity": 0.7874015748031497
        },
        {
          "duration": 0.14705874999998514,
          "durationTicks": 24,
          "midi": 36,
          "name": "C2",
          "ticks": 39048,
          "time": 239.26458625000004,
          "velocity": 0.7874015748031497
        },
        {
          "duration": 0.07352937499999257,
          "durationTicks": 12,
          "midi": 36,
          "name": "C2",
          "ticks": 39072,
          "time": 239.41164500000002,
          "velocity": 0.7874015748031497
        },
        {
          "duration": 0.14705875000001356,
          "durationTicks": 24,
          "midi": 46,
          "name": "A#2",
          "ticks": 39072,
          "time": 239.41164500000002,
          "velocity": 0.7874015748031497
        },
        {
          "duration": 0.07352937500002099,
          "durationTicks": 12,
          "midi": 36,
          "name": "C2",
          "ticks": 39084,
          "time": 239.485174375,
          "velocity": 0.7874015748031497
        },
        {
          "duration": 0.14705874999998514,
          "durationTicks": 24,
          "midi": 36,
          "name": "C2",
          "ticks": 39096,
          "time": 239.55870375000003,
          "velocity": 0.7874015748031497
        },
        {
          "duration": 0.14705875000001356,
          "durationTicks": 24,
          "midi": 46,
          "name": "A#2",
          "ticks": 39120,
          "time": 239.70576250000002,
          "velocity": 0.7874015748031497
        },
        {
          "duration": 0.14705875000001356,
          "durationTicks": 24,
          "midi": 36,
          "name": "C2",
          "ticks": 39120,
          "time": 239.70576250000002,
          "velocity": 0.7874015748031497
        },
        {
          "duration": 0.14705874999998514,
          "durationTicks": 24,
          "midi": 36,
          "name": "C2",
          "ticks": 39144,
          "time": 239.85282125000003,
          "velocity": 0.7874015748031497
        },
        {
          "duration": 0.14705875000001356,
          "durationTicks": 24,
          "midi": 38,
          "name": "D2",
          "ticks": 39168,
          "time": 239.99988000000002,
          "velocity": 0.7874015748031497
        },
        {
          "duration": 0.14705875000001356,
          "durationTicks": 24,
          "midi": 46,
          "name": "A#2",
          "ticks": 39168,
          "time": 239.99988000000002,
          "velocity": 0.7874015748031497
        },
        {
          "duration": 0.14705875000001356,
          "durationTicks": 24,
          "midi": 36,
          "name": "C2",
          "ticks": 39216,
          "time": 240.29399750000002,
          "velocity": 0.7874015748031497
        },
        {
          "duration": 0.14705875000001356,
          "durationTicks": 24,
          "midi": 46,
          "name": "A#2",
          "ticks": 39216,
          "time": 240.29399750000002,
          "velocity": 0.7874015748031497
        },
        {
          "duration": 0.14705875000001356,
          "durationTicks": 24,
          "midi": 36,
          "name": "C2",
          "ticks": 39264,
          "time": 240.58811500000002,
          "velocity": 0.7874015748031497
        },
        {
          "duration": 0.44117625000001226,
          "durationTicks": 72,
          "midi": 49,
          "name": "C#3",
          "ticks": 39264,
          "time": 240.58811500000002,
          "velocity": 0.7874015748031497
        },
        {
          "duration": 0.14705874999998514,
          "durationTicks": 24,
          "midi": 36,
          "name": "C2",
          "ticks": 39288,
          "time": 240.73517375000003,
          "velocity": 0.7874015748031497
        },
        {
          "duration": 0.14705875000001356,
          "durationTicks": 24,
          "midi": 36,
          "name": "C2",
          "ticks": 39312,
          "time": 240.88223250000001,
          "velocity": 0.7874015748031497
        },
        {
          "duration": 0.14705875000001356,
          "durationTicks": 24,
          "midi": 46,
          "name": "A#2",
          "ticks": 39312,
          "time": 240.88223250000001,
          "velocity": 0.7874015748031497
        },
        {
          "duration": 0.14705874999998514,
          "durationTicks": 24,
          "midi": 36,
          "name": "C2",
          "ticks": 39336,
          "time": 241.02929125000003,
          "velocity": 0.7874015748031497
        },
        {
          "duration": 0.14705875000001356,
          "durationTicks": 24,
          "midi": 38,
          "name": "D2",
          "ticks": 39360,
          "time": 241.17635,
          "velocity": 0.7874015748031497
        },
        {
          "duration": 0.14705875000001356,
          "durationTicks": 24,
          "midi": 46,
          "name": "A#2",
          "ticks": 39360,
          "time": 241.17635,
          "velocity": 0.7874015748031497
        },
        {
          "duration": 0.14705875000001356,
          "durationTicks": 24,
          "midi": 36,
          "name": "C2",
          "ticks": 39408,
          "time": 241.4704675,
          "velocity": 0.7874015748031497
        },
        {
          "duration": 0.14705875000001356,
          "durationTicks": 24,
          "midi": 46,
          "name": "A#2",
          "ticks": 39408,
          "time": 241.4704675,
          "velocity": 0.7874015748031497
        },
        {
          "duration": 0.14705875000001356,
          "durationTicks": 24,
          "midi": 36,
          "name": "C2",
          "ticks": 39432,
          "time": 241.61752625000003,
          "velocity": 0.7874015748031497
        },
        {
          "duration": 0.07352937499999257,
          "durationTicks": 12,
          "midi": 36,
          "name": "C2",
          "ticks": 39456,
          "time": 241.76458500000004,
          "velocity": 0.7874015748031497
        },
        {
          "duration": 0.14705874999998514,
          "durationTicks": 24,
          "midi": 46,
          "name": "A#2",
          "ticks": 39456,
          "time": 241.76458500000004,
          "velocity": 0.7874015748031497
        },
        {
          "duration": 0.07352937499999257,
          "durationTicks": 12,
          "midi": 36,
          "name": "C2",
          "ticks": 39468,
          "time": 241.83811437500003,
          "velocity": 0.7874015748031497
        },
        {
          "duration": 0.14705875000001356,
          "durationTicks": 24,
          "midi": 36,
          "name": "C2",
          "ticks": 39480,
          "time": 241.91164375000002,
          "velocity": 0.7874015748031497
        },
        {
          "duration": 0.14705874999998514,
          "durationTicks": 24,
          "midi": 36,
          "name": "C2",
          "ticks": 39504,
          "time": 242.05870250000004,
          "velocity": 0.7874015748031497
        },
        {
          "duration": 0.14705874999998514,
          "durationTicks": 24,
          "midi": 46,
          "name": "A#2",
          "ticks": 39504,
          "time": 242.05870250000004,
          "velocity": 0.7874015748031497
        },
        {
          "duration": 0.14705875000001356,
          "durationTicks": 24,
          "midi": 36,
          "name": "C2",
          "ticks": 39528,
          "time": 242.20576125000002,
          "velocity": 0.7874015748031497
        },
        {
          "duration": 0.14705874999998514,
          "durationTicks": 24,
          "midi": 46,
          "name": "A#2",
          "ticks": 39552,
          "time": 242.35282000000004,
          "velocity": 0.7874015748031497
        },
        {
          "duration": 0.14705874999998514,
          "durationTicks": 24,
          "midi": 38,
          "name": "D2",
          "ticks": 39552,
          "time": 242.35282000000004,
          "velocity": 0.7874015748031497
        },
        {
          "duration": 0.14705874999998514,
          "durationTicks": 24,
          "midi": 36,
          "name": "C2",
          "ticks": 39600,
          "time": 242.64693750000004,
          "velocity": 0.7874015748031497
        },
        {
          "duration": 0.14705874999998514,
          "durationTicks": 24,
          "midi": 46,
          "name": "A#2",
          "ticks": 39600,
          "time": 242.64693750000004,
          "velocity": 0.7874015748031497
        },
        {
          "duration": 0.14705874999998514,
          "durationTicks": 24,
          "midi": 46,
          "name": "A#2",
          "ticks": 39648,
          "time": 242.94105500000003,
          "velocity": 0.7874015748031497
        },
        {
          "duration": 0.14705874999998514,
          "durationTicks": 24,
          "midi": 36,
          "name": "C2",
          "ticks": 39648,
          "time": 242.94105500000003,
          "velocity": 0.7874015748031497
        },
        {
          "duration": 0.14705875000001356,
          "durationTicks": 24,
          "midi": 36,
          "name": "C2",
          "ticks": 39672,
          "time": 243.08811375000002,
          "velocity": 0.7874015748031497
        },
        {
          "duration": 0.14705874999998514,
          "durationTicks": 24,
          "midi": 46,
          "name": "A#2",
          "ticks": 39696,
          "time": 243.23517250000003,
          "velocity": 0.7874015748031497
        },
        {
          "duration": 0.14705874999998514,
          "durationTicks": 24,
          "midi": 36,
          "name": "C2",
          "ticks": 39696,
          "time": 243.23517250000003,
          "velocity": 0.7874015748031497
        },
        {
          "duration": 0.14705875000001356,
          "durationTicks": 24,
          "midi": 36,
          "name": "C2",
          "ticks": 39720,
          "time": 243.38223125000002,
          "velocity": 0.7874015748031497
        },
        {
          "duration": 0.14705874999998514,
          "durationTicks": 24,
          "midi": 46,
          "name": "A#2",
          "ticks": 39744,
          "time": 243.52929000000003,
          "velocity": 0.7874015748031497
        },
        {
          "duration": 0.14705874999998514,
          "durationTicks": 24,
          "midi": 38,
          "name": "D2",
          "ticks": 39744,
          "time": 243.52929000000003,
          "velocity": 0.7874015748031497
        },
        {
          "duration": 0.14705874999998514,
          "durationTicks": 24,
          "midi": 36,
          "name": "C2",
          "ticks": 39792,
          "time": 243.82340750000003,
          "velocity": 0.7874015748031497
        },
        {
          "duration": 0.14705874999998514,
          "durationTicks": 24,
          "midi": 46,
          "name": "A#2",
          "ticks": 39792,
          "time": 243.82340750000003,
          "velocity": 0.7874015748031497
        },
        {
          "duration": 0.14705875000001356,
          "durationTicks": 24,
          "midi": 36,
          "name": "C2",
          "ticks": 39816,
          "time": 243.97046625000002,
          "velocity": 0.7874015748031497
        },
        {
          "duration": 0.14705874999998514,
          "durationTicks": 24,
          "midi": 46,
          "name": "A#2",
          "ticks": 39840,
          "time": 244.11752500000003,
          "velocity": 0.7874015748031497
        },
        {
          "duration": 0.07352937499999257,
          "durationTicks": 12,
          "midi": 36,
          "name": "C2",
          "ticks": 39840,
          "time": 244.11752500000003,
          "velocity": 0.7874015748031497
        },
        {
          "duration": 0.07352937499999257,
          "durationTicks": 12,
          "midi": 36,
          "name": "C2",
          "ticks": 39852,
          "time": 244.19105437500002,
          "velocity": 0.7874015748031497
        },
        {
          "duration": 0.14705875000001356,
          "durationTicks": 24,
          "midi": 36,
          "name": "C2",
          "ticks": 39864,
          "time": 244.26458375,
          "velocity": 0.7874015748031497
        },
        {
          "duration": 0.14705874999998514,
          "durationTicks": 24,
          "midi": 36,
          "name": "C2",
          "ticks": 39888,
          "time": 244.41164250000003,
          "velocity": 0.7874015748031497
        },
        {
          "duration": 0.14705874999998514,
          "durationTicks": 24,
          "midi": 46,
          "name": "A#2",
          "ticks": 39888,
          "time": 244.41164250000003,
          "velocity": 0.7874015748031497
        },
        {
          "duration": 0.14705875000001356,
          "durationTicks": 24,
          "midi": 36,
          "name": "C2",
          "ticks": 39912,
          "time": 244.55870125,
          "velocity": 0.7874015748031497
        },
        {
          "duration": 0.14705875000001356,
          "durationTicks": 24,
          "midi": 46,
          "name": "A#2",
          "ticks": 39936,
          "time": 244.70576000000003,
          "velocity": 0.7874015748031497
        },
        {
          "duration": 0.14705875000001356,
          "durationTicks": 24,
          "midi": 38,
          "name": "D2",
          "ticks": 39936,
          "time": 244.70576000000003,
          "velocity": 0.7874015748031497
        },
        {
          "duration": 0.14705875000001356,
          "durationTicks": 24,
          "midi": 46,
          "name": "A#2",
          "ticks": 39984,
          "time": 244.99987750000003,
          "velocity": 0.7874015748031497
        },
        {
          "duration": 0.14705875000001356,
          "durationTicks": 24,
          "midi": 36,
          "name": "C2",
          "ticks": 39984,
          "time": 244.99987750000003,
          "velocity": 0.7874015748031497
        },
        {
          "duration": 0.14705875000001356,
          "durationTicks": 24,
          "midi": 36,
          "name": "C2",
          "ticks": 40032,
          "time": 245.29399500000002,
          "velocity": 0.7874015748031497
        },
        {
          "duration": 0.14705875000001356,
          "durationTicks": 24,
          "midi": 46,
          "name": "A#2",
          "ticks": 40032,
          "time": 245.29399500000002,
          "velocity": 0.7874015748031497
        },
        {
          "duration": 0.14705874999998514,
          "durationTicks": 24,
          "midi": 36,
          "name": "C2",
          "ticks": 40056,
          "time": 245.44105375000004,
          "velocity": 0.7874015748031497
        },
        {
          "duration": 0.14705875000001356,
          "durationTicks": 24,
          "midi": 36,
          "name": "C2",
          "ticks": 40080,
          "time": 245.58811250000002,
          "velocity": 0.7874015748031497
        },
        {
          "duration": 0.14705875000001356,
          "durationTicks": 24,
          "midi": 46,
          "name": "A#2",
          "ticks": 40080,
          "time": 245.58811250000002,
          "velocity": 0.7874015748031497
        },
        {
          "duration": 0.14705874999998514,
          "durationTicks": 24,
          "midi": 36,
          "name": "C2",
          "ticks": 40104,
          "time": 245.73517125000004,
          "velocity": 0.7874015748031497
        },
        {
          "duration": 0.14705875000001356,
          "durationTicks": 24,
          "midi": 38,
          "name": "D2",
          "ticks": 40128,
          "time": 245.88223000000002,
          "velocity": 0.7874015748031497
        },
        {
          "duration": 0.14705875000001356,
          "durationTicks": 24,
          "midi": 46,
          "name": "A#2",
          "ticks": 40128,
          "time": 245.88223000000002,
          "velocity": 0.7874015748031497
        },
        {
          "duration": 0.14705875000001356,
          "durationTicks": 24,
          "midi": 46,
          "name": "A#2",
          "ticks": 40176,
          "time": 246.17634750000002,
          "velocity": 0.7874015748031497
        },
        {
          "duration": 0.14705875000001356,
          "durationTicks": 24,
          "midi": 36,
          "name": "C2",
          "ticks": 40176,
          "time": 246.17634750000002,
          "velocity": 0.7874015748031497
        },
        {
          "duration": 0.14705874999998514,
          "durationTicks": 24,
          "midi": 36,
          "name": "C2",
          "ticks": 40200,
          "time": 246.32340625000003,
          "velocity": 0.7874015748031497
        },
        {
          "duration": 0.07352937500002099,
          "durationTicks": 12,
          "midi": 36,
          "name": "C2",
          "ticks": 40224,
          "time": 246.47046500000002,
          "velocity": 0.7874015748031497
        },
        {
          "duration": 0.14705875000001356,
          "durationTicks": 24,
          "midi": 46,
          "name": "A#2",
          "ticks": 40224,
          "time": 246.47046500000002,
          "velocity": 0.7874015748031497
        },
        {
          "duration": 0.07352937499999257,
          "durationTicks": 12,
          "midi": 36,
          "name": "C2",
          "ticks": 40236,
          "time": 246.54399437500004,
          "velocity": 0.7874015748031497
        },
        {
          "duration": 0.14705874999998514,
          "durationTicks": 24,
          "midi": 36,
          "name": "C2",
          "ticks": 40248,
          "time": 246.61752375000003,
          "velocity": 0.7874015748031497
        },
        {
          "duration": 0.14705875000001356,
          "durationTicks": 24,
          "midi": 46,
          "name": "A#2",
          "ticks": 40272,
          "time": 246.76458250000002,
          "velocity": 0.7874015748031497
        },
        {
          "duration": 0.14705875000001356,
          "durationTicks": 24,
          "midi": 36,
          "name": "C2",
          "ticks": 40272,
          "time": 246.76458250000002,
          "velocity": 0.7874015748031497
        },
        {
          "duration": 0.14705874999998514,
          "durationTicks": 24,
          "midi": 36,
          "name": "C2",
          "ticks": 40296,
          "time": 246.91164125000003,
          "velocity": 0.7874015748031497
        },
        {
          "duration": 0.14705875000001356,
          "durationTicks": 24,
          "midi": 46,
          "name": "A#2",
          "ticks": 40320,
          "time": 247.05870000000002,
          "velocity": 0.7874015748031497
        },
        {
          "duration": 0.14705875000001356,
          "durationTicks": 24,
          "midi": 38,
          "name": "D2",
          "ticks": 40320,
          "time": 247.05870000000002,
          "velocity": 0.7874015748031497
        },
        {
          "duration": 0.14705875000001356,
          "durationTicks": 24,
          "midi": 36,
          "name": "C2",
          "ticks": 40368,
          "time": 247.35281750000001,
          "velocity": 0.7874015748031497
        },
        {
          "duration": 0.14705875000001356,
          "durationTicks": 24,
          "midi": 46,
          "name": "A#2",
          "ticks": 40368,
          "time": 247.35281750000001,
          "velocity": 0.7874015748031497
        },
        {
          "duration": 0.14705875000001356,
          "durationTicks": 24,
          "midi": 36,
          "name": "C2",
          "ticks": 40416,
          "time": 247.646935,
          "velocity": 0.7874015748031497
        },
        {
          "duration": 0.14705875000001356,
          "durationTicks": 24,
          "midi": 46,
          "name": "A#2",
          "ticks": 40416,
          "time": 247.646935,
          "velocity": 0.7874015748031497
        },
        {
          "duration": 0.44117625000001226,
          "durationTicks": 72,
          "midi": 49,
          "name": "C#3",
          "ticks": 40416,
          "time": 247.646935,
          "velocity": 0.7874015748031497
        },
        {
          "duration": 0.14705875000001356,
          "durationTicks": 24,
          "midi": 36,
          "name": "C2",
          "ticks": 40440,
          "time": 247.79399375000003,
          "velocity": 0.7874015748031497
        },
        {
          "duration": 0.14705874999998514,
          "durationTicks": 24,
          "midi": 46,
          "name": "A#2",
          "ticks": 40464,
          "time": 247.94105250000004,
          "velocity": 0.7874015748031497
        },
        {
          "duration": 0.14705874999998514,
          "durationTicks": 24,
          "midi": 36,
          "name": "C2",
          "ticks": 40464,
          "time": 247.94105250000004,
          "velocity": 0.7874015748031497
        },
        {
          "duration": 0.14705875000001356,
          "durationTicks": 24,
          "midi": 36,
          "name": "C2",
          "ticks": 40488,
          "time": 248.08811125000003,
          "velocity": 0.7874015748031497
        },
        {
          "duration": 0.14705874999998514,
          "durationTicks": 24,
          "midi": 38,
          "name": "D2",
          "ticks": 40512,
          "time": 248.23517000000004,
          "velocity": 0.7874015748031497
        },
        {
          "duration": 0.14705874999998514,
          "durationTicks": 24,
          "midi": 46,
          "name": "A#2",
          "ticks": 40512,
          "time": 248.23517000000004,
          "velocity": 0.7874015748031497
        },
        {
          "duration": 0.14705874999998514,
          "durationTicks": 24,
          "midi": 36,
          "name": "C2",
          "ticks": 40560,
          "time": 248.52928750000004,
          "velocity": 0.7874015748031497
        },
        {
          "duration": 0.14705874999998514,
          "durationTicks": 24,
          "midi": 46,
          "name": "A#2",
          "ticks": 40560,
          "time": 248.52928750000004,
          "velocity": 0.7874015748031497
        },
        {
          "duration": 0.14705875000001356,
          "durationTicks": 24,
          "midi": 36,
          "name": "C2",
          "ticks": 40584,
          "time": 248.67634625000002,
          "velocity": 0.7874015748031497
        },
        {
          "duration": 0.07352937499999257,
          "durationTicks": 12,
          "midi": 38,
          "name": "D2",
          "ticks": 40608,
          "time": 248.82340500000004,
          "velocity": 0.7874015748031497
        },
        {
          "duration": 0.44117624999998384,
          "durationTicks": 72,
          "midi": 49,
          "name": "C#3",
          "ticks": 40608,
          "time": 248.82340500000004,
          "velocity": 0.7874015748031497
        },
        {
          "duration": 0.07352937499999257,
          "durationTicks": 12,
          "midi": 38,
          "name": "D2",
          "ticks": 40620,
          "time": 248.89693437500003,
          "velocity": 0.7874015748031497
        },
        {
          "duration": 0.14705875000001356,
          "durationTicks": 24,
          "midi": 38,
          "name": "D2",
          "ticks": 40632,
          "time": 248.97046375000002,
          "velocity": 0.7874015748031497
        },
        {
          "duration": 0.07352937499999257,
          "durationTicks": 12,
          "midi": 36,
          "name": "C2",
          "ticks": 40656,
          "time": 249.11752250000004,
          "velocity": 0.7874015748031497
        },
        {
          "duration": 0.07352937499999257,
          "durationTicks": 12,
          "midi": 42,
          "name": "F#2",
          "ticks": 40656,
          "time": 249.11752250000004,
          "velocity": 0.7874015748031497
        },
        {
          "duration": 0.07352937499999257,
          "durationTicks": 12,
          "midi": 36,
          "name": "C2",
          "ticks": 40668,
          "time": 249.19105187500003,
          "velocity": 0.7874015748031497
        },
        {
          "duration": 0.07352937499999257,
          "durationTicks": 12,
          "midi": 42,
          "name": "F#2",
          "ticks": 40668,
          "time": 249.19105187500003,
          "velocity": 0.7874015748031497
        },
        {
          "duration": 0.07352937499999257,
          "durationTicks": 12,
          "midi": 42,
          "name": "F#2",
          "ticks": 40680,
          "time": 249.26458125000002,
          "velocity": 0.7874015748031497
        },
        {
          "duration": 0.14705875000001356,
          "durationTicks": 24,
          "midi": 36,
          "name": "C2",
          "ticks": 40680,
          "time": 249.26458125000002,
          "velocity": 0.7874015748031497
        },
        {
          "duration": 0.07352937500002099,
          "durationTicks": 12,
          "midi": 42,
          "name": "F#2",
          "ticks": 40692,
          "time": 249.338110625,
          "velocity": 0.7874015748031497
        },
        {
          "duration": 0.14705874999998514,
          "durationTicks": 24,
          "midi": 36,
          "name": "C2",
          "ticks": 40704,
          "time": 249.41164000000003,
          "velocity": 0.7874015748031497
        },
        {
          "duration": 0.07352937499999257,
          "durationTicks": 12,
          "midi": 42,
          "name": "F#2",
          "ticks": 40704,
          "time": 249.41164000000003,
          "velocity": 0.7874015748031497
        },
        {
          "duration": 0.07352937499999257,
          "durationTicks": 12,
          "midi": 42,
          "name": "F#2",
          "ticks": 40716,
          "time": 249.48516937500003,
          "velocity": 0.7874015748031497
        },
        {
          "duration": 0.07352937500002099,
          "durationTicks": 12,
          "midi": 42,
          "name": "F#2",
          "ticks": 40728,
          "time": 249.55869875000002,
          "velocity": 0.7874015748031497
        },
        {
          "duration": 0.14705875000001356,
          "durationTicks": 24,
          "midi": 36,
          "name": "C2",
          "ticks": 40728,
          "time": 249.55869875000002,
          "velocity": 0.7874015748031497
        },
        {
          "duration": 0.07352937499999257,
          "durationTicks": 12,
          "midi": 42,
          "name": "F#2",
          "ticks": 40740,
          "time": 249.63222812500004,
          "velocity": 0.7874015748031497
        },
        {
          "duration": 0.07352937499999257,
          "durationTicks": 12,
          "midi": 42,
          "name": "F#2",
          "ticks": 40752,
          "time": 249.70575750000003,
          "velocity": 0.7874015748031497
        },
        {
          "duration": 0.14705874999998514,
          "durationTicks": 24,
          "midi": 36,
          "name": "C2",
          "ticks": 40752,
          "time": 249.70575750000003,
          "velocity": 0.7874015748031497
        },
        {
          "duration": 0.07352937499999257,
          "durationTicks": 12,
          "midi": 42,
          "name": "F#2",
          "ticks": 40764,
          "time": 249.77928687500003,
          "velocity": 0.7874015748031497
        },
        {
          "duration": 0.07352937500002099,
          "durationTicks": 12,
          "midi": 42,
          "name": "F#2",
          "ticks": 40776,
          "time": 249.85281625000002,
          "velocity": 0.7874015748031497
        },
        {
          "duration": 0.14705875000001356,
          "durationTicks": 24,
          "midi": 36,
          "name": "C2",
          "ticks": 40776,
          "time": 249.85281625000002,
          "velocity": 0.7874015748031497
        },
        {
          "duration": 0.07352937499999257,
          "durationTicks": 12,
          "midi": 42,
          "name": "F#2",
          "ticks": 40788,
          "time": 249.92634562500004,
          "velocity": 0.7874015748031497
        },
        {
          "duration": 0.44117624999998384,
          "durationTicks": 72,
          "midi": 49,
          "name": "C#3",
          "ticks": 40800,
          "time": 249.99987500000003,
          "velocity": 0.7874015748031497
        },
        {
          "duration": 0.14705874999998514,
          "durationTicks": 24,
          "midi": 36,
          "name": "C2",
          "ticks": 40800,
          "time": 249.99987500000003,
          "velocity": 0.7874015748031497
        },
        {
          "duration": 0.14705874999998514,
          "durationTicks": 24,
          "midi": 38,
          "name": "D2",
          "ticks": 40848,
          "time": 250.29399250000003,
          "velocity": 0.7874015748031497
        },
        {
          "duration": 0.14705874999998514,
          "durationTicks": 24,
          "midi": 46,
          "name": "A#2",
          "ticks": 40848,
          "time": 250.29399250000003,
          "velocity": 0.7874015748031497
        },
        {
          "duration": 0.14705874999998514,
          "durationTicks": 24,
          "midi": 36,
          "name": "C2",
          "ticks": 40896,
          "time": 250.58811000000003,
          "velocity": 0.7874015748031497
        },
        {
          "duration": 0.14705874999998514,
          "durationTicks": 24,
          "midi": 46,
          "name": "A#2",
          "ticks": 40896,
          "time": 250.58811000000003,
          "velocity": 0.7874015748031497
        },
        {
          "duration": 0.14705875000001356,
          "durationTicks": 24,
          "midi": 36,
          "name": "C2",
          "ticks": 40920,
          "time": 250.73516875,
          "velocity": 0.7874015748031497
        },
        {
          "duration": 0.14705875000001356,
          "durationTicks": 24,
          "midi": 38,
          "name": "D2",
          "ticks": 40944,
          "time": 250.88222750000003,
          "velocity": 0.7874015748031497
        },
        {
          "duration": 0.14705875000001356,
          "durationTicks": 24,
          "midi": 46,
          "name": "A#2",
          "ticks": 40944,
          "time": 250.88222750000003,
          "velocity": 0.7874015748031497
        },
        {
          "duration": 0.14705875000001356,
          "durationTicks": 24,
          "midi": 36,
          "name": "C2",
          "ticks": 40992,
          "time": 251.17634500000003,
          "velocity": 0.7874015748031497
        },
        {
          "duration": 0.14705875000001356,
          "durationTicks": 24,
          "midi": 46,
          "name": "A#2",
          "ticks": 40992,
          "time": 251.17634500000003,
          "velocity": 0.7874015748031497
        },
        {
          "duration": 0.14705874999998514,
          "durationTicks": 24,
          "midi": 36,
          "name": "C2",
          "ticks": 41016,
          "time": 251.32340375000004,
          "velocity": 0.7874015748031497
        },
        {
          "duration": 0.14705875000001356,
          "durationTicks": 24,
          "midi": 46,
          "name": "A#2",
          "ticks": 41040,
          "time": 251.47046250000002,
          "velocity": 0.7874015748031497
        },
        {
          "duration": 0.14705875000001356,
          "durationTicks": 24,
          "midi": 38,
          "name": "D2",
          "ticks": 41040,
          "time": 251.47046250000002,
          "velocity": 0.7874015748031497
        },
        {
          "duration": 0.14705875000001356,
          "durationTicks": 24,
          "midi": 36,
          "name": "C2",
          "ticks": 41040,
          "time": 251.47046250000002,
          "velocity": 0.7874015748031497
        },
        {
          "duration": 0.14705874999998514,
          "durationTicks": 24,
          "midi": 36,
          "name": "C2",
          "ticks": 41064,
          "time": 251.61752125000004,
          "velocity": 0.7874015748031497
        },
        {
          "duration": 0.14705875000001356,
          "durationTicks": 24,
          "midi": 36,
          "name": "C2",
          "ticks": 41088,
          "time": 251.76458000000002,
          "velocity": 0.7874015748031497
        },
        {
          "duration": 0.14705875000001356,
          "durationTicks": 24,
          "midi": 46,
          "name": "A#2",
          "ticks": 41088,
          "time": 251.76458000000002,
          "velocity": 0.7874015748031497
        },
        {
          "duration": 0.14705874999998514,
          "durationTicks": 24,
          "midi": 36,
          "name": "C2",
          "ticks": 41112,
          "time": 251.91163875000004,
          "velocity": 0.7874015748031497
        },
        {
          "duration": 0.14705875000001356,
          "durationTicks": 24,
          "midi": 38,
          "name": "D2",
          "ticks": 41136,
          "time": 252.05869750000002,
          "velocity": 0.7874015748031497
        },
        {
          "duration": 0.14705875000001356,
          "durationTicks": 24,
          "midi": 46,
          "name": "A#2",
          "ticks": 41136,
          "time": 252.05869750000002,
          "velocity": 0.7874015748031497
        },
        {
          "duration": 0.14705875000001356,
          "durationTicks": 24,
          "midi": 36,
          "name": "C2",
          "ticks": 41184,
          "time": 252.35281500000002,
          "velocity": 0.7874015748031497
        },
        {
          "duration": 0.14705875000001356,
          "durationTicks": 24,
          "midi": 46,
          "name": "A#2",
          "ticks": 41184,
          "time": 252.35281500000002,
          "velocity": 0.7874015748031497
        },
        {
          "duration": 0.14705875000001356,
          "durationTicks": 24,
          "midi": 46,
          "name": "A#2",
          "ticks": 41232,
          "time": 252.64693250000002,
          "velocity": 0.7874015748031497
        },
        {
          "duration": 0.14705875000001356,
          "durationTicks": 24,
          "midi": 38,
          "name": "D2",
          "ticks": 41232,
          "time": 252.64693250000002,
          "velocity": 0.7874015748031497
        },
        {
          "duration": 0.14705875000001356,
          "durationTicks": 24,
          "midi": 46,
          "name": "A#2",
          "ticks": 41280,
          "time": 252.94105000000002,
          "velocity": 0.7874015748031497
        },
        {
          "duration": 0.14705875000001356,
          "durationTicks": 24,
          "midi": 36,
          "name": "C2",
          "ticks": 41280,
          "time": 252.94105000000002,
          "velocity": 0.7874015748031497
        },
        {
          "duration": 0.14705874999998514,
          "durationTicks": 24,
          "midi": 36,
          "name": "C2",
          "ticks": 41304,
          "time": 253.08810875000003,
          "velocity": 0.7874015748031497
        },
        {
          "duration": 0.14705875000001356,
          "durationTicks": 24,
          "midi": 38,
          "name": "D2",
          "ticks": 41328,
          "time": 253.23516750000002,
          "velocity": 0.7874015748031497
        },
        {
          "duration": 0.14705875000001356,
          "durationTicks": 24,
          "midi": 46,
          "name": "A#2",
          "ticks": 41328,
          "time": 253.23516750000002,
          "velocity": 0.7874015748031497
        },
        {
          "duration": 0.14705875000001356,
          "durationTicks": 24,
          "midi": 46,
          "name": "A#2",
          "ticks": 41376,
          "time": 253.52928500000002,
          "velocity": 0.7874015748031497
        },
        {
          "duration": 0.07352937500002099,
          "durationTicks": 12,
          "midi": 36,
          "name": "C2",
          "ticks": 41376,
          "time": 253.52928500000002,
          "velocity": 0.7874015748031497
        },
        {
          "duration": 0.07352937499999257,
          "durationTicks": 12,
          "midi": 36,
          "name": "C2",
          "ticks": 41388,
          "time": 253.60281437500004,
          "velocity": 0.7874015748031497
        },
        {
          "duration": 0.14705874999998514,
          "durationTicks": 24,
          "midi": 36,
          "name": "C2",
          "ticks": 41400,
          "time": 253.67634375000003,
          "velocity": 0.7874015748031497
        },
        {
          "duration": 0.14705875000001356,
          "durationTicks": 24,
          "midi": 46,
          "name": "A#2",
          "ticks": 41424,
          "time": 253.82340250000001,
          "velocity": 0.7874015748031497
        },
        {
          "duration": 0.14705875000001356,
          "durationTicks": 24,
          "midi": 38,
          "name": "D2",
          "ticks": 41424,
          "time": 253.82340250000001,
          "velocity": 0.7874015748031497
        },
        {
          "duration": 0.14705875000001356,
          "durationTicks": 24,
          "midi": 36,
          "name": "C2",
          "ticks": 41424,
          "time": 253.82340250000001,
          "velocity": 0.7874015748031497
        },
        {
          "duration": 0.14705874999998514,
          "durationTicks": 24,
          "midi": 36,
          "name": "C2",
          "ticks": 41448,
          "time": 253.97046125000003,
          "velocity": 0.7874015748031497
        },
        {
          "duration": 0.14705875000001356,
          "durationTicks": 24,
          "midi": 46,
          "name": "A#2",
          "ticks": 41472,
          "time": 254.11752,
          "velocity": 0.7874015748031497
        },
        {
          "duration": 0.14705875000001356,
          "durationTicks": 24,
          "midi": 36,
          "name": "C2",
          "ticks": 41472,
          "time": 254.11752,
          "velocity": 0.7874015748031497
        },
        {
          "duration": 0.14705874999998514,
          "durationTicks": 24,
          "midi": 38,
          "name": "D2",
          "ticks": 41520,
          "time": 254.41163750000004,
          "velocity": 0.7874015748031497
        },
        {
          "duration": 0.14705874999998514,
          "durationTicks": 24,
          "midi": 46,
          "name": "A#2",
          "ticks": 41520,
          "time": 254.41163750000004,
          "velocity": 0.7874015748031497
        },
        {
          "duration": 0.44117624999998384,
          "durationTicks": 72,
          "midi": 49,
          "name": "C#3",
          "ticks": 41568,
          "time": 254.70575500000004,
          "velocity": 0.7874015748031497
        },
        {
          "duration": 0.14705874999998514,
          "durationTicks": 24,
          "midi": 36,
          "name": "C2",
          "ticks": 41568,
          "time": 254.70575500000004,
          "velocity": 0.7874015748031497
        },
        {
          "duration": 0.14705874999998514,
          "durationTicks": 24,
          "midi": 38,
          "name": "D2",
          "ticks": 41616,
          "time": 254.99987250000004,
          "velocity": 0.7874015748031497
        },
        {
          "duration": 0.14705874999998514,
          "durationTicks": 24,
          "midi": 46,
          "name": "A#2",
          "ticks": 41616,
          "time": 254.99987250000004,
          "velocity": 0.7874015748031497
        },
        {
          "duration": 0.14705874999998514,
          "durationTicks": 24,
          "midi": 46,
          "name": "A#2",
          "ticks": 41664,
          "time": 255.29399000000004,
          "velocity": 0.7874015748031497
        },
        {
          "duration": 0.14705874999998514,
          "durationTicks": 24,
          "midi": 36,
          "name": "C2",
          "ticks": 41664,
          "time": 255.29399000000004,
          "velocity": 0.7874015748031497
        },
        {
          "duration": 0.14705875000001356,
          "durationTicks": 24,
          "midi": 36,
          "name": "C2",
          "ticks": 41688,
          "time": 255.44104875000002,
          "velocity": 0.7874015748031497
        },
        {
          "duration": 0.14705874999998514,
          "durationTicks": 24,
          "midi": 38,
          "name": "D2",
          "ticks": 41712,
          "time": 255.58810750000004,
          "velocity": 0.7874015748031497
        },
        {
          "duration": 0.14705874999998514,
          "durationTicks": 24,
          "midi": 46,
          "name": "A#2",
          "ticks": 41712,
          "time": 255.58810750000004,
          "velocity": 0.7874015748031497
        },
        {
          "duration": 0.14705875000001356,
          "durationTicks": 24,
          "midi": 46,
          "name": "A#2",
          "ticks": 41760,
          "time": 255.88222500000003,
          "velocity": 0.7874015748031497
        },
        {
          "duration": 0.14705875000001356,
          "durationTicks": 24,
          "midi": 36,
          "name": "C2",
          "ticks": 41760,
          "time": 255.88222500000003,
          "velocity": 0.7874015748031497
        },
        {
          "duration": 0.14705874999998514,
          "durationTicks": 24,
          "midi": 36,
          "name": "C2",
          "ticks": 41784,
          "time": 256.02928375000005,
          "velocity": 0.7874015748031497
        },
        {
          "duration": 0.14705874999998514,
          "durationTicks": 24,
          "midi": 36,
          "name": "C2",
          "ticks": 41808,
          "time": 256.17634250000003,
          "velocity": 0.7874015748031497
        },
        {
          "duration": 0.14705874999998514,
          "durationTicks": 24,
          "midi": 38,
          "name": "D2",
          "ticks": 41808,
          "time": 256.17634250000003,
          "velocity": 0.7874015748031497
        },
        {
          "duration": 0.14705874999998514,
          "durationTicks": 24,
          "midi": 46,
          "name": "A#2",
          "ticks": 41808,
          "time": 256.17634250000003,
          "velocity": 0.7874015748031497
        },
        {
          "duration": 0.14705874999998514,
          "durationTicks": 24,
          "midi": 36,
          "name": "C2",
          "ticks": 41832,
          "time": 256.32340125,
          "velocity": 0.7874015748031497
        },
        {
          "duration": 0.14705875000004198,
          "durationTicks": 24,
          "midi": 46,
          "name": "A#2",
          "ticks": 41856,
          "time": 256.47046,
          "velocity": 0.7874015748031497
        },
        {
          "duration": 0.14705875000004198,
          "durationTicks": 24,
          "midi": 36,
          "name": "C2",
          "ticks": 41856,
          "time": 256.47046,
          "velocity": 0.7874015748031497
        },
        {
          "duration": 0.14705874999998514,
          "durationTicks": 24,
          "midi": 36,
          "name": "C2",
          "ticks": 41880,
          "time": 256.61751875000004,
          "velocity": 0.7874015748031497
        },
        {
          "duration": 0.14705874999998514,
          "durationTicks": 24,
          "midi": 38,
          "name": "D2",
          "ticks": 41904,
          "time": 256.76457750000003,
          "velocity": 0.7874015748031497
        },
        {
          "duration": 0.14705874999998514,
          "durationTicks": 24,
          "midi": 46,
          "name": "A#2",
          "ticks": 41904,
          "time": 256.76457750000003,
          "velocity": 0.7874015748031497
        },
        {
          "duration": 0.14705875000004198,
          "durationTicks": 24,
          "midi": 36,
          "name": "C2",
          "ticks": 41952,
          "time": 257.058695,
          "velocity": 0.7874015748031497
        },
        {
          "duration": 0.14705875000004198,
          "durationTicks": 24,
          "midi": 46,
          "name": "A#2",
          "ticks": 41952,
          "time": 257.058695,
          "velocity": 0.7874015748031497
        },
        {
          "duration": 0.14705874999998514,
          "durationTicks": 24,
          "midi": 38,
          "name": "D2",
          "ticks": 42000,
          "time": 257.3528125,
          "velocity": 0.7874015748031497
        },
        {
          "duration": 0.14705874999998514,
          "durationTicks": 24,
          "midi": 46,
          "name": "A#2",
          "ticks": 42000,
          "time": 257.3528125,
          "velocity": 0.7874015748031497
        },
        {
          "duration": 0.14705874999998514,
          "durationTicks": 24,
          "midi": 46,
          "name": "A#2",
          "ticks": 42048,
          "time": 257.64693000000005,
          "velocity": 0.7874015748031497
        },
        {
          "duration": 0.14705874999998514,
          "durationTicks": 24,
          "midi": 36,
          "name": "C2",
          "ticks": 42048,
          "time": 257.64693000000005,
          "velocity": 0.7874015748031497
        },
        {
          "duration": 0.14705874999998514,
          "durationTicks": 24,
          "midi": 36,
          "name": "C2",
          "ticks": 42072,
          "time": 257.79398875000004,
          "velocity": 0.7874015748031497
        },
        {
          "duration": 0.14705874999998514,
          "durationTicks": 24,
          "midi": 38,
          "name": "D2",
          "ticks": 42096,
          "time": 257.9410475,
          "velocity": 0.7874015748031497
        },
        {
          "duration": 0.14705874999998514,
          "durationTicks": 24,
          "midi": 46,
          "name": "A#2",
          "ticks": 42096,
          "time": 257.9410475,
          "velocity": 0.7874015748031497
        },
        {
          "duration": 0.07352937499996415,
          "durationTicks": 12,
          "midi": 36,
          "name": "C2",
          "ticks": 42144,
          "time": 258.23516500000005,
          "velocity": 0.7874015748031497
        },
        {
          "duration": 0.14705874999998514,
          "durationTicks": 24,
          "midi": 46,
          "name": "A#2",
          "ticks": 42144,
          "time": 258.23516500000005,
          "velocity": 0.7874015748031497
        },
        {
          "duration": 0.07352937500002099,
          "durationTicks": 12,
          "midi": 36,
          "name": "C2",
          "ticks": 42156,
          "time": 258.308694375,
          "velocity": 0.7874015748031497
        },
        {
          "duration": 0.14705874999998514,
          "durationTicks": 24,
          "midi": 36,
          "name": "C2",
          "ticks": 42168,
          "time": 258.38222375000004,
          "velocity": 0.7874015748031497
        },
        {
          "duration": 0.14705874999998514,
          "durationTicks": 24,
          "midi": 46,
          "name": "A#2",
          "ticks": 42192,
          "time": 258.5292825,
          "velocity": 0.7874015748031497
        },
        {
          "duration": 0.14705874999998514,
          "durationTicks": 24,
          "midi": 38,
          "name": "D2",
          "ticks": 42192,
          "time": 258.5292825,
          "velocity": 0.7874015748031497
        },
        {
          "duration": 0.14705874999998514,
          "durationTicks": 24,
          "midi": 36,
          "name": "C2",
          "ticks": 42192,
          "time": 258.5292825,
          "velocity": 0.7874015748031497
        },
        {
          "duration": 0.14705875000004198,
          "durationTicks": 24,
          "midi": 36,
          "name": "C2",
          "ticks": 42216,
          "time": 258.67634125,
          "velocity": 0.7874015748031497
        },
        {
          "duration": 0.14705874999998514,
          "durationTicks": 24,
          "midi": 46,
          "name": "A#2",
          "ticks": 42240,
          "time": 258.82340000000005,
          "velocity": 0.7874015748031497
        },
        {
          "duration": 0.14705874999998514,
          "durationTicks": 24,
          "midi": 36,
          "name": "C2",
          "ticks": 42240,
          "time": 258.82340000000005,
          "velocity": 0.7874015748031497
        },
        {
          "duration": 0.14705874999998514,
          "durationTicks": 24,
          "midi": 38,
          "name": "D2",
          "ticks": 42288,
          "time": 259.1175175,
          "velocity": 0.7874015748031497
        },
        {
          "duration": 0.14705874999998514,
          "durationTicks": 24,
          "midi": 46,
          "name": "A#2",
          "ticks": 42288,
          "time": 259.1175175,
          "velocity": 0.7874015748031497
        },
        {
          "duration": 0.14705874999998514,
          "durationTicks": 24,
          "midi": 36,
          "name": "C2",
          "ticks": 42336,
          "time": 259.41163500000005,
          "velocity": 0.7874015748031497
        },
        {
          "duration": 0.4411762499999554,
          "durationTicks": 72,
          "midi": 49,
          "name": "C#3",
          "ticks": 42336,
          "time": 259.41163500000005,
          "velocity": 0.7874015748031497
        },
        {
          "duration": 0.14705874999998514,
          "durationTicks": 24,
          "midi": 38,
          "name": "D2",
          "ticks": 42384,
          "time": 259.7057525,
          "velocity": 0.7874015748031497
        },
        {
          "duration": 0.14705874999998514,
          "durationTicks": 24,
          "midi": 46,
          "name": "A#2",
          "ticks": 42384,
          "time": 259.7057525,
          "velocity": 0.7874015748031497
        },
        {
          "duration": 0.14705874999998514,
          "durationTicks": 24,
          "midi": 36,
          "name": "C2",
          "ticks": 42432,
          "time": 259.99987000000004,
          "velocity": 0.7874015748031497
        },
        {
          "duration": 0.14705874999998514,
          "durationTicks": 24,
          "midi": 46,
          "name": "A#2",
          "ticks": 42432,
          "time": 259.99987000000004,
          "velocity": 0.7874015748031497
        },
        {
          "duration": 0.14705874999998514,
          "durationTicks": 24,
          "midi": 36,
          "name": "C2",
          "ticks": 42456,
          "time": 260.14692875000003,
          "velocity": 0.7874015748031497
        },
        {
          "duration": 0.14705875000004198,
          "durationTicks": 24,
          "midi": 38,
          "name": "D2",
          "ticks": 42480,
          "time": 260.2939875,
          "velocity": 0.7874015748031497
        },
        {
          "duration": 0.14705875000004198,
          "durationTicks": 24,
          "midi": 46,
          "name": "A#2",
          "ticks": 42480,
          "time": 260.2939875,
          "velocity": 0.7874015748031497
        },
        {
          "duration": 0.14705874999998514,
          "durationTicks": 24,
          "midi": 36,
          "name": "C2",
          "ticks": 42528,
          "time": 260.58810500000004,
          "velocity": 0.7874015748031497
        },
        {
          "duration": 0.14705874999998514,
          "durationTicks": 24,
          "midi": 46,
          "name": "A#2",
          "ticks": 42528,
          "time": 260.58810500000004,
          "velocity": 0.7874015748031497
        },
        {
          "duration": 0.14705874999998514,
          "durationTicks": 24,
          "midi": 36,
          "name": "C2",
          "ticks": 42552,
          "time": 260.73516375,
          "velocity": 0.7874015748031497
        },
        {
          "duration": 0.14705875000004198,
          "durationTicks": 24,
          "midi": 46,
          "name": "A#2",
          "ticks": 42576,
          "time": 260.8822225,
          "velocity": 0.7874015748031497
        },
        {
          "duration": 0.14705875000004198,
          "durationTicks": 24,
          "midi": 38,
          "name": "D2",
          "ticks": 42576,
          "time": 260.8822225,
          "velocity": 0.7874015748031497
        },
        {
          "duration": 0.14705875000004198,
          "durationTicks": 24,
          "midi": 36,
          "name": "C2",
          "ticks": 42576,
          "time": 260.8822225,
          "velocity": 0.7874015748031497
        },
        {
          "duration": 0.14705874999998514,
          "durationTicks": 24,
          "midi": 36,
          "name": "C2",
          "ticks": 42600,
          "time": 261.02928125000005,
          "velocity": 0.7874015748031497
        },
        {
          "duration": 0.14705874999998514,
          "durationTicks": 24,
          "midi": 46,
          "name": "A#2",
          "ticks": 42624,
          "time": 261.17634000000004,
          "velocity": 0.7874015748031497
        },
        {
          "duration": 0.14705874999998514,
          "durationTicks": 24,
          "midi": 36,
          "name": "C2",
          "ticks": 42624,
          "time": 261.17634000000004,
          "velocity": 0.7874015748031497
        },
        {
          "duration": 0.14705874999998514,
          "durationTicks": 24,
          "midi": 36,
          "name": "C2",
          "ticks": 42648,
          "time": 261.32339875,
          "velocity": 0.7874015748031497
        },
        {
          "duration": 0.14705875000004198,
          "durationTicks": 24,
          "midi": 38,
          "name": "D2",
          "ticks": 42672,
          "time": 261.4704575,
          "velocity": 0.7874015748031497
        },
        {
          "duration": 0.14705875000004198,
          "durationTicks": 24,
          "midi": 46,
          "name": "A#2",
          "ticks": 42672,
          "time": 261.4704575,
          "velocity": 0.7874015748031497
        },
        {
          "duration": 0.14705874999998514,
          "durationTicks": 24,
          "midi": 36,
          "name": "C2",
          "ticks": 42720,
          "time": 261.76457500000004,
          "velocity": 0.7874015748031497
        },
        {
          "duration": 0.14705874999998514,
          "durationTicks": 24,
          "midi": 46,
          "name": "A#2",
          "ticks": 42720,
          "time": 261.76457500000004,
          "velocity": 0.7874015748031497
        },
        {
          "duration": 0.14705875000004198,
          "durationTicks": 24,
          "midi": 46,
          "name": "A#2",
          "ticks": 42768,
          "time": 262.0586925,
          "velocity": 0.7874015748031497
        },
        {
          "duration": 0.14705875000004198,
          "durationTicks": 24,
          "midi": 38,
          "name": "D2",
          "ticks": 42768,
          "time": 262.0586925,
          "velocity": 0.7874015748031497
        },
        {
          "duration": 0.14705874999998514,
          "durationTicks": 24,
          "midi": 36,
          "name": "C2",
          "ticks": 42816,
          "time": 262.35281000000003,
          "velocity": 0.7874015748031497
        },
        {
          "duration": 0.14705874999998514,
          "durationTicks": 24,
          "midi": 46,
          "name": "A#2",
          "ticks": 42816,
          "time": 262.35281000000003,
          "velocity": 0.7874015748031497
        },
        {
          "duration": 0.14705874999998514,
          "durationTicks": 24,
          "midi": 36,
          "name": "C2",
          "ticks": 42840,
          "time": 262.49986875,
          "velocity": 0.7874015748031497
        },
        {
          "duration": 0.14705875000004198,
          "durationTicks": 24,
          "midi": 46,
          "name": "A#2",
          "ticks": 42864,
          "time": 262.6469275,
          "velocity": 0.7874015748031497
        },
        {
          "duration": 0.14705875000004198,
          "durationTicks": 24,
          "midi": 38,
          "name": "D2",
          "ticks": 42864,
          "time": 262.6469275,
          "velocity": 0.7874015748031497
        },
        {
          "duration": 0.14705874999998514,
          "durationTicks": 24,
          "midi": 46,
          "name": "A#2",
          "ticks": 42912,
          "time": 262.94104500000003,
          "velocity": 0.7874015748031497
        },
        {
          "duration": 0.07352937500002099,
          "durationTicks": 12,
          "midi": 36,
          "name": "C2",
          "ticks": 42912,
          "time": 262.94104500000003,
          "velocity": 0.7874015748031497
        },
        {
          "duration": 0.07352937499996415,
          "durationTicks": 12,
          "midi": 36,
          "name": "C2",
          "ticks": 42924,
          "time": 263.01457437500005,
          "velocity": 0.7874015748031497
        },
        {
          "duration": 0.14705874999998514,
          "durationTicks": 24,
          "midi": 36,
          "name": "C2",
          "ticks": 42936,
          "time": 263.08810375,
          "velocity": 0.7874015748031497
        },
        {
          "duration": 0.14705875000004198,
          "durationTicks": 24,
          "midi": 46,
          "name": "A#2",
          "ticks": 42960,
          "time": 263.2351625,
          "velocity": 0.7874015748031497
        },
        {
          "duration": 0.14705875000004198,
          "durationTicks": 24,
          "midi": 38,
          "name": "D2",
          "ticks": 42960,
          "time": 263.2351625,
          "velocity": 0.7874015748031497
        },
        {
          "duration": 0.14705875000004198,
          "durationTicks": 24,
          "midi": 36,
          "name": "C2",
          "ticks": 42960,
          "time": 263.2351625,
          "velocity": 0.7874015748031497
        },
        {
          "duration": 0.14705874999998514,
          "durationTicks": 24,
          "midi": 36,
          "name": "C2",
          "ticks": 42984,
          "time": 263.38222125000004,
          "velocity": 0.7874015748031497
        },
        {
          "duration": 0.14705874999998514,
          "durationTicks": 24,
          "midi": 46,
          "name": "A#2",
          "ticks": 43008,
          "time": 263.52928,
          "velocity": 0.7874015748031497
        },
        {
          "duration": 0.14705874999998514,
          "durationTicks": 24,
          "midi": 36,
          "name": "C2",
          "ticks": 43008,
          "time": 263.52928,
          "velocity": 0.7874015748031497
        },
        {
          "duration": 0.14705874999998514,
          "durationTicks": 24,
          "midi": 38,
          "name": "D2",
          "ticks": 43056,
          "time": 263.82339750000006,
          "velocity": 0.7874015748031497
        },
        {
          "duration": 0.14705874999998514,
          "durationTicks": 24,
          "midi": 46,
          "name": "A#2",
          "ticks": 43056,
          "time": 263.82339750000006,
          "velocity": 0.7874015748031497
        },
        {
          "duration": 0.44117625000001226,
          "durationTicks": 72,
          "midi": 49,
          "name": "C#3",
          "ticks": 43104,
          "time": 264.117515,
          "velocity": 0.7874015748031497
        },
        {
          "duration": 0.14705874999998514,
          "durationTicks": 24,
          "midi": 36,
          "name": "C2",
          "ticks": 43104,
          "time": 264.117515,
          "velocity": 0.7874015748031497
        },
        {
          "duration": 0.14705874999998514,
          "durationTicks": 24,
          "midi": 46,
          "name": "A#2",
          "ticks": 43152,
          "time": 264.41163250000005,
          "velocity": 0.7874015748031497
        },
        {
          "duration": 0.14705874999998514,
          "durationTicks": 24,
          "midi": 38,
          "name": "D2",
          "ticks": 43152,
          "time": 264.41163250000005,
          "velocity": 0.7874015748031497
        },
        {
          "duration": 0.14705874999998514,
          "durationTicks": 24,
          "midi": 46,
          "name": "A#2",
          "ticks": 43200,
          "time": 264.70575,
          "velocity": 0.7874015748031497
        },
        {
          "duration": 0.14705874999998514,
          "durationTicks": 24,
          "midi": 36,
          "name": "C2",
          "ticks": 43200,
          "time": 264.70575,
          "velocity": 0.7874015748031497
        },
        {
          "duration": 0.14705875000004198,
          "durationTicks": 24,
          "midi": 36,
          "name": "C2",
          "ticks": 43224,
          "time": 264.85280875,
          "velocity": 0.7874015748031497
        },
        {
          "duration": 0.14705874999998514,
          "durationTicks": 24,
          "midi": 38,
          "name": "D2",
          "ticks": 43248,
          "time": 264.99986750000005,
          "velocity": 0.7874015748031497
        },
        {
          "duration": 0.14705874999998514,
          "durationTicks": 24,
          "midi": 46,
          "name": "A#2",
          "ticks": 43248,
          "time": 264.99986750000005,
          "velocity": 0.7874015748031497
        },
        {
          "duration": 0.14705874999998514,
          "durationTicks": 24,
          "midi": 46,
          "name": "A#2",
          "ticks": 43296,
          "time": 265.293985,
          "velocity": 0.7874015748031497
        },
        {
          "duration": 0.14705874999998514,
          "durationTicks": 24,
          "midi": 36,
          "name": "C2",
          "ticks": 43296,
          "time": 265.293985,
          "velocity": 0.7874015748031497
        },
        {
          "duration": 0.14705875000004198,
          "durationTicks": 24,
          "midi": 36,
          "name": "C2",
          "ticks": 43320,
          "time": 265.44104375,
          "velocity": 0.7874015748031497
        },
        {
          "duration": 0.14705874999998514,
          "durationTicks": 24,
          "midi": 46,
          "name": "A#2",
          "ticks": 43344,
          "time": 265.58810250000005,
          "velocity": 0.7874015748031497
        },
        {
          "duration": 0.14705874999998514,
          "durationTicks": 24,
          "midi": 38,
          "name": "D2",
          "ticks": 43344,
          "time": 265.58810250000005,
          "velocity": 0.7874015748031497
        },
        {
          "duration": 0.14705874999998514,
          "durationTicks": 24,
          "midi": 36,
          "name": "C2",
          "ticks": 43344,
          "time": 265.58810250000005,
          "velocity": 0.7874015748031497
        },
        {
          "duration": 0.14705874999998514,
          "durationTicks": 24,
          "midi": 36,
          "name": "C2",
          "ticks": 43368,
          "time": 265.73516125000003,
          "velocity": 0.7874015748031497
        },
        {
          "duration": 0.14705874999998514,
          "durationTicks": 24,
          "midi": 46,
          "name": "A#2",
          "ticks": 43392,
          "time": 265.88222,
          "velocity": 0.7874015748031497
        },
        {
          "duration": 0.14705874999998514,
          "durationTicks": 24,
          "midi": 36,
          "name": "C2",
          "ticks": 43392,
          "time": 265.88222,
          "velocity": 0.7874015748031497
        },
        {
          "duration": 0.14705875000004198,
          "durationTicks": 24,
          "midi": 36,
          "name": "C2",
          "ticks": 43416,
          "time": 266.02927875,
          "velocity": 0.7874015748031497
        },
        {
          "duration": 0.14705874999998514,
          "durationTicks": 24,
          "midi": 46,
          "name": "A#2",
          "ticks": 43440,
          "time": 266.17633750000005,
          "velocity": 0.7874015748031497
        },
        {
          "duration": 0.14705874999998514,
          "durationTicks": 24,
          "midi": 38,
          "name": "D2",
          "ticks": 43440,
          "time": 266.17633750000005,
          "velocity": 0.7874015748031497
        },
        {
          "duration": 0.14705874999998514,
          "durationTicks": 24,
          "midi": 36,
          "name": "C2",
          "ticks": 43488,
          "time": 266.470455,
          "velocity": 0.7874015748031497
        },
        {
          "duration": 0.14705874999998514,
          "durationTicks": 24,
          "midi": 46,
          "name": "A#2",
          "ticks": 43488,
          "time": 266.470455,
          "velocity": 0.7874015748031497
        },
        {
          "duration": 0.14705874999998514,
          "durationTicks": 24,
          "midi": 46,
          "name": "A#2",
          "ticks": 43536,
          "time": 266.76457250000004,
          "velocity": 0.7874015748031497
        },
        {
          "duration": 0.14705874999998514,
          "durationTicks": 24,
          "midi": 38,
          "name": "D2",
          "ticks": 43536,
          "time": 266.76457250000004,
          "velocity": 0.7874015748031497
        },
        {
          "duration": 0.14705875000004198,
          "durationTicks": 24,
          "midi": 36,
          "name": "C2",
          "ticks": 43584,
          "time": 267.05869,
          "velocity": 0.7874015748031497
        },
        {
          "duration": 0.14705875000004198,
          "durationTicks": 24,
          "midi": 46,
          "name": "A#2",
          "ticks": 43584,
          "time": 267.05869,
          "velocity": 0.7874015748031497
        },
        {
          "duration": 0.14705874999998514,
          "durationTicks": 24,
          "midi": 36,
          "name": "C2",
          "ticks": 43608,
          "time": 267.20574875000005,
          "velocity": 0.7874015748031497
        },
        {
          "duration": 0.14705874999998514,
          "durationTicks": 24,
          "midi": 46,
          "name": "A#2",
          "ticks": 43632,
          "time": 267.35280750000004,
          "velocity": 0.7874015748031497
        },
        {
          "duration": 0.14705874999998514,
          "durationTicks": 24,
          "midi": 38,
          "name": "D2",
          "ticks": 43632,
          "time": 267.35280750000004,
          "velocity": 0.7874015748031497
        },
        {
          "duration": 0.14705875000004198,
          "durationTicks": 24,
          "midi": 46,
          "name": "A#2",
          "ticks": 43680,
          "time": 267.646925,
          "velocity": 0.7874015748031497
        },
        {
          "duration": 0.07352937500002099,
          "durationTicks": 12,
          "midi": 36,
          "name": "C2",
          "ticks": 43680,
          "time": 267.646925,
          "velocity": 0.7874015748031497
        },
        {
          "duration": 0.07352937500002099,
          "durationTicks": 12,
          "midi": 36,
          "name": "C2",
          "ticks": 43692,
          "time": 267.72045437500003,
          "velocity": 0.7874015748031497
        },
        {
          "duration": 0.14705874999998514,
          "durationTicks": 24,
          "midi": 36,
          "name": "C2",
          "ticks": 43704,
          "time": 267.79398375000005,
          "velocity": 0.7874015748031497
        },
        {
          "duration": 0.14705874999998514,
          "durationTicks": 24,
          "midi": 46,
          "name": "A#2",
          "ticks": 43728,
          "time": 267.94104250000004,
          "velocity": 0.7874015748031497
        },
        {
          "duration": 0.14705874999998514,
          "durationTicks": 24,
          "midi": 38,
          "name": "D2",
          "ticks": 43728,
          "time": 267.94104250000004,
          "velocity": 0.7874015748031497
        },
        {
          "duration": 0.14705874999998514,
          "durationTicks": 24,
          "midi": 36,
          "name": "C2",
          "ticks": 43728,
          "time": 267.94104250000004,
          "velocity": 0.7874015748031497
        },
        {
          "duration": 0.14705874999998514,
          "durationTicks": 24,
          "midi": 36,
          "name": "C2",
          "ticks": 43752,
          "time": 268.08810125,
          "velocity": 0.7874015748031497
        },
        {
          "duration": 0.14705875000004198,
          "durationTicks": 24,
          "midi": 46,
          "name": "A#2",
          "ticks": 43776,
          "time": 268.23516,
          "velocity": 0.7874015748031497
        },
        {
          "duration": 0.14705875000004198,
          "durationTicks": 24,
          "midi": 36,
          "name": "C2",
          "ticks": 43776,
          "time": 268.23516,
          "velocity": 0.7874015748031497
        },
        {
          "duration": 0.14705874999998514,
          "durationTicks": 24,
          "midi": 38,
          "name": "D2",
          "ticks": 43824,
          "time": 268.52927750000003,
          "velocity": 0.7874015748031497
        },
        {
          "duration": 0.14705874999998514,
          "durationTicks": 24,
          "midi": 46,
          "name": "A#2",
          "ticks": 43824,
          "time": 268.52927750000003,
          "velocity": 0.7874015748031497
        },
        {
          "duration": 0.14705875000004198,
          "durationTicks": 24,
          "midi": 36,
          "name": "C2",
          "ticks": 43872,
          "time": 268.823395,
          "velocity": 0.7874015748031497
        },
        {
          "duration": 0.44117625000001226,
          "durationTicks": 72,
          "midi": 49,
          "name": "C#3",
          "ticks": 43872,
          "time": 268.823395,
          "velocity": 0.7874015748031497
        },
        {
          "duration": 0.14705874999998514,
          "durationTicks": 24,
          "midi": 38,
          "name": "D2",
          "ticks": 43920,
          "time": 269.11751250000003,
          "velocity": 0.7874015748031497
        },
        {
          "duration": 0.14705874999998514,
          "durationTicks": 24,
          "midi": 46,
          "name": "A#2",
          "ticks": 43920,
          "time": 269.11751250000003,
          "velocity": 0.7874015748031497
        },
        {
          "duration": 0.14705875000004198,
          "durationTicks": 24,
          "midi": 46,
          "name": "A#2",
          "ticks": 43968,
          "time": 269.41163,
          "velocity": 0.7874015748031497
        },
        {
          "duration": 0.14705875000004198,
          "durationTicks": 24,
          "midi": 36,
          "name": "C2",
          "ticks": 43968,
          "time": 269.41163,
          "velocity": 0.7874015748031497
        },
        {
          "duration": 0.14705874999998514,
          "durationTicks": 24,
          "midi": 36,
          "name": "C2",
          "ticks": 43992,
          "time": 269.55868875000004,
          "velocity": 0.7874015748031497
        },
        {
          "duration": 0.14705874999998514,
          "durationTicks": 24,
          "midi": 46,
          "name": "A#2",
          "ticks": 44016,
          "time": 269.70574750000003,
          "velocity": 0.7874015748031497
        },
        {
          "duration": 0.14705874999998514,
          "durationTicks": 24,
          "midi": 38,
          "name": "D2",
          "ticks": 44016,
          "time": 269.70574750000003,
          "velocity": 0.7874015748031497
        },
        {
          "duration": 0.14705874999998514,
          "durationTicks": 24,
          "midi": 36,
          "name": "C2",
          "ticks": 44064,
          "time": 269.99986500000006,
          "velocity": 0.7874015748031497
        },
        {
          "duration": 0.14705874999998514,
          "durationTicks": 24,
          "midi": 46,
          "name": "A#2",
          "ticks": 44064,
          "time": 269.99986500000006,
          "velocity": 0.7874015748031497
        },
        {
          "duration": 0.14705874999998514,
          "durationTicks": 24,
          "midi": 36,
          "name": "C2",
          "ticks": 44088,
          "time": 270.14692375000004,
          "velocity": 0.7874015748031497
        },
        {
          "duration": 0.14705874999998514,
          "durationTicks": 24,
          "midi": 36,
          "name": "C2",
          "ticks": 44112,
          "time": 270.2939825,
          "velocity": 0.7874015748031497
        },
        {
          "duration": 0.14705874999998514,
          "durationTicks": 24,
          "midi": 38,
          "name": "D2",
          "ticks": 44112,
          "time": 270.2939825,
          "velocity": 0.7874015748031497
        },
        {
          "duration": 0.14705874999998514,
          "durationTicks": 24,
          "midi": 46,
          "name": "A#2",
          "ticks": 44112,
          "time": 270.2939825,
          "velocity": 0.7874015748031497
        },
        {
          "duration": 0.14705875000004198,
          "durationTicks": 24,
          "midi": 36,
          "name": "C2",
          "ticks": 44136,
          "time": 270.44104125,
          "velocity": 0.7874015748031497
        },
        {
          "duration": 0.14705874999998514,
          "durationTicks": 24,
          "midi": 36,
          "name": "C2",
          "ticks": 44160,
          "time": 270.58810000000005,
          "velocity": 0.7874015748031497
        },
        {
          "duration": 0.14705874999998514,
          "durationTicks": 24,
          "midi": 46,
          "name": "A#2",
          "ticks": 44160,
          "time": 270.58810000000005,
          "velocity": 0.7874015748031497
        },
        {
          "duration": 0.14705874999998514,
          "durationTicks": 24,
          "midi": 36,
          "name": "C2",
          "ticks": 44184,
          "time": 270.73515875000004,
          "velocity": 0.7874015748031497
        },
        {
          "duration": 0.14705874999998514,
          "durationTicks": 24,
          "midi": 46,
          "name": "A#2",
          "ticks": 44208,
          "time": 270.8822175,
          "velocity": 0.7874015748031497
        },
        {
          "duration": 0.14705874999998514,
          "durationTicks": 24,
          "midi": 38,
          "name": "D2",
          "ticks": 44208,
          "time": 270.8822175,
          "velocity": 0.7874015748031497
        },
        {
          "duration": 0.14705874999998514,
          "durationTicks": 24,
          "midi": 46,
          "name": "A#2",
          "ticks": 44256,
          "time": 271.17633500000005,
          "velocity": 0.7874015748031497
        },
        {
          "duration": 0.14705874999998514,
          "durationTicks": 24,
          "midi": 36,
          "name": "C2",
          "ticks": 44256,
          "time": 271.17633500000005,
          "velocity": 0.7874015748031497
        },
        {
          "duration": 0.14705874999998514,
          "durationTicks": 24,
          "midi": 38,
          "name": "D2",
          "ticks": 44304,
          "time": 271.4704525,
          "velocity": 0.7874015748031497
        },
        {
          "duration": 0.14705874999998514,
          "durationTicks": 24,
          "midi": 46,
          "name": "A#2",
          "ticks": 44304,
          "time": 271.4704525,
          "velocity": 0.7874015748031497
        },
        {
          "duration": 0.14705874999998514,
          "durationTicks": 24,
          "midi": 36,
          "name": "C2",
          "ticks": 44352,
          "time": 271.76457000000005,
          "velocity": 0.7874015748031497
        },
        {
          "duration": 0.14705874999998514,
          "durationTicks": 24,
          "midi": 46,
          "name": "A#2",
          "ticks": 44352,
          "time": 271.76457000000005,
          "velocity": 0.7874015748031497
        },
        {
          "duration": 0.14705874999998514,
          "durationTicks": 24,
          "midi": 36,
          "name": "C2",
          "ticks": 44376,
          "time": 271.91162875000003,
          "velocity": 0.7874015748031497
        },
        {
          "duration": 0.14705874999998514,
          "durationTicks": 24,
          "midi": 38,
          "name": "D2",
          "ticks": 44400,
          "time": 272.0586875,
          "velocity": 0.7874015748031497
        },
        {
          "duration": 0.14705874999998514,
          "durationTicks": 24,
          "midi": 46,
          "name": "A#2",
          "ticks": 44400,
          "time": 272.0586875,
          "velocity": 0.7874015748031497
        },
        {
          "duration": 0.07352937499996415,
          "durationTicks": 12,
          "midi": 36,
          "name": "C2",
          "ticks": 44448,
          "time": 272.35280500000005,
          "velocity": 0.7874015748031497
        },
        {
          "duration": 0.14705874999998514,
          "durationTicks": 24,
          "midi": 46,
          "name": "A#2",
          "ticks": 44448,
          "time": 272.35280500000005,
          "velocity": 0.7874015748031497
        },
        {
          "duration": 0.07352937500002099,
          "durationTicks": 12,
          "midi": 36,
          "name": "C2",
          "ticks": 44460,
          "time": 272.426334375,
          "velocity": 0.7874015748031497
        },
        {
          "duration": 0.14705874999998514,
          "durationTicks": 24,
          "midi": 36,
          "name": "C2",
          "ticks": 44472,
          "time": 272.49986375000003,
          "velocity": 0.7874015748031497
        },
        {
          "duration": 0.14705874999998514,
          "durationTicks": 24,
          "midi": 36,
          "name": "C2",
          "ticks": 44496,
          "time": 272.6469225,
          "velocity": 0.7874015748031497
        },
        {
          "duration": 0.14705874999998514,
          "durationTicks": 24,
          "midi": 38,
          "name": "D2",
          "ticks": 44496,
          "time": 272.6469225,
          "velocity": 0.7874015748031497
        },
        {
          "duration": 0.14705874999998514,
          "durationTicks": 24,
          "midi": 46,
          "name": "A#2",
          "ticks": 44496,
          "time": 272.6469225,
          "velocity": 0.7874015748031497
        },
        {
          "duration": 0.14705875000004198,
          "durationTicks": 24,
          "midi": 36,
          "name": "C2",
          "ticks": 44520,
          "time": 272.79398125,
          "velocity": 0.7874015748031497
        },
        {
          "duration": 0.14705874999998514,
          "durationTicks": 24,
          "midi": 36,
          "name": "C2",
          "ticks": 44544,
          "time": 272.94104000000004,
          "velocity": 0.7874015748031497
        },
        {
          "duration": 0.14705874999998514,
          "durationTicks": 24,
          "midi": 46,
          "name": "A#2",
          "ticks": 44544,
          "time": 272.94104000000004,
          "velocity": 0.7874015748031497
        },
        {
          "duration": 0.14705875000004198,
          "durationTicks": 24,
          "midi": 38,
          "name": "D2",
          "ticks": 44592,
          "time": 273.2351575,
          "velocity": 0.7874015748031497
        },
        {
          "duration": 0.14705875000004198,
          "durationTicks": 24,
          "midi": 46,
          "name": "A#2",
          "ticks": 44592,
          "time": 273.2351575,
          "velocity": 0.7874015748031497
        },
        {
          "duration": 0.44117625000001226,
          "durationTicks": 72,
          "midi": 49,
          "name": "C#3",
          "ticks": 44640,
          "time": 273.52927500000004,
          "velocity": 0.7874015748031497
        },
        {
          "duration": 0.14705874999998514,
          "durationTicks": 24,
          "midi": 36,
          "name": "C2",
          "ticks": 44640,
          "time": 273.52927500000004,
          "velocity": 0.7874015748031497
        },
        {
          "duration": 0.14705875000004198,
          "durationTicks": 24,
          "midi": 46,
          "name": "A#2",
          "ticks": 44688,
          "time": 273.8233925,
          "velocity": 0.7874015748031497
        },
        {
          "duration": 0.14705875000004198,
          "durationTicks": 24,
          "midi": 38,
          "name": "D2",
          "ticks": 44688,
          "time": 273.8233925,
          "velocity": 0.7874015748031497
        },
        {
          "duration": 0.14705874999998514,
          "durationTicks": 24,
          "midi": 46,
          "name": "A#2",
          "ticks": 44736,
          "time": 274.11751000000004,
          "velocity": 0.7874015748031497
        },
        {
          "duration": 0.14705874999998514,
          "durationTicks": 24,
          "midi": 36,
          "name": "C2",
          "ticks": 44736,
          "time": 274.11751000000004,
          "velocity": 0.7874015748031497
        },
        {
          "duration": 0.14705874999998514,
          "durationTicks": 24,
          "midi": 36,
          "name": "C2",
          "ticks": 44760,
          "time": 274.26456875,
          "velocity": 0.7874015748031497
        },
        {
          "duration": 0.14705875000004198,
          "durationTicks": 24,
          "midi": 46,
          "name": "A#2",
          "ticks": 44784,
          "time": 274.4116275,
          "velocity": 0.7874015748031497
        },
        {
          "duration": 0.14705875000004198,
          "durationTicks": 24,
          "midi": 38,
          "name": "D2",
          "ticks": 44784,
          "time": 274.4116275,
          "velocity": 0.7874015748031497
        },
        {
          "duration": 0.14705874999998514,
          "durationTicks": 24,
          "midi": 36,
          "name": "C2",
          "ticks": 44832,
          "time": 274.70574500000004,
          "velocity": 0.7874015748031497
        },
        {
          "duration": 0.14705874999998514,
          "durationTicks": 24,
          "midi": 46,
          "name": "A#2",
          "ticks": 44832,
          "time": 274.70574500000004,
          "velocity": 0.7874015748031497
        },
        {
          "duration": 0.14705874999998514,
          "durationTicks": 24,
          "midi": 36,
          "name": "C2",
          "ticks": 44856,
          "time": 274.85280375,
          "velocity": 0.7874015748031497
        },
        {
          "duration": 0.14705875000004198,
          "durationTicks": 24,
          "midi": 46,
          "name": "A#2",
          "ticks": 44880,
          "time": 274.9998625,
          "velocity": 0.7874015748031497
        },
        {
          "duration": 0.14705875000004198,
          "durationTicks": 24,
          "midi": 38,
          "name": "D2",
          "ticks": 44880,
          "time": 274.9998625,
          "velocity": 0.7874015748031497
        },
        {
          "duration": 0.14705875000004198,
          "durationTicks": 24,
          "midi": 36,
          "name": "C2",
          "ticks": 44880,
          "time": 274.9998625,
          "velocity": 0.7874015748031497
        },
        {
          "duration": 0.14705874999998514,
          "durationTicks": 24,
          "midi": 36,
          "name": "C2",
          "ticks": 44904,
          "time": 275.14692125000005,
          "velocity": 0.7874015748031497
        },
        {
          "duration": 0.14705874999998514,
          "durationTicks": 24,
          "midi": 36,
          "name": "C2",
          "ticks": 44928,
          "time": 275.29398000000003,
          "velocity": 0.7874015748031497
        },
        {
          "duration": 0.14705874999998514,
          "durationTicks": 24,
          "midi": 46,
          "name": "A#2",
          "ticks": 44928,
          "time": 275.29398000000003,
          "velocity": 0.7874015748031497
        },
        {
          "duration": 0.14705874999998514,
          "durationTicks": 24,
          "midi": 36,
          "name": "C2",
          "ticks": 44952,
          "time": 275.44103875,
          "velocity": 0.7874015748031497
        },
        {
          "duration": 0.14705875000004198,
          "durationTicks": 24,
          "midi": 38,
          "name": "D2",
          "ticks": 44976,
          "time": 275.5880975,
          "velocity": 0.7874015748031497
        },
        {
          "duration": 0.14705875000004198,
          "durationTicks": 24,
          "midi": 46,
          "name": "A#2",
          "ticks": 44976,
          "time": 275.5880975,
          "velocity": 0.7874015748031497
        },
        {
          "duration": 0.14705874999998514,
          "durationTicks": 24,
          "midi": 46,
          "name": "A#2",
          "ticks": 45024,
          "time": 275.88221500000003,
          "velocity": 0.7874015748031497
        },
        {
          "duration": 0.14705874999998514,
          "durationTicks": 24,
          "midi": 36,
          "name": "C2",
          "ticks": 45024,
          "time": 275.88221500000003,
          "velocity": 0.7874015748031497
        },
        {
          "duration": 0.14705874999998514,
          "durationTicks": 24,
          "midi": 38,
          "name": "D2",
          "ticks": 45072,
          "time": 276.17633250000006,
          "velocity": 0.7874015748031497
        },
        {
          "duration": 0.14705874999998514,
          "durationTicks": 24,
          "midi": 46,
          "name": "A#2",
          "ticks": 45072,
          "time": 276.17633250000006,
          "velocity": 0.7874015748031497
        },
        {
          "duration": 0.14705874999998514,
          "durationTicks": 24,
          "midi": 46,
          "name": "A#2",
          "ticks": 45120,
          "time": 276.47045,
          "velocity": 0.7874015748031497
        },
        {
          "duration": 0.14705874999998514,
          "durationTicks": 24,
          "midi": 36,
          "name": "C2",
          "ticks": 45120,
          "time": 276.47045,
          "velocity": 0.7874015748031497
        },
        {
          "duration": 0.14705875000004198,
          "durationTicks": 24,
          "midi": 36,
          "name": "C2",
          "ticks": 45144,
          "time": 276.61750875,
          "velocity": 0.7874015748031497
        },
        {
          "duration": 0.14705874999998514,
          "durationTicks": 24,
          "midi": 46,
          "name": "A#2",
          "ticks": 45168,
          "time": 276.76456750000006,
          "velocity": 0.7874015748031497
        },
        {
          "duration": 0.14705874999998514,
          "durationTicks": 24,
          "midi": 38,
          "name": "D2",
          "ticks": 45168,
          "time": 276.76456750000006,
          "velocity": 0.7874015748031497
        },
        {
          "duration": 0.14705874999998514,
          "durationTicks": 24,
          "midi": 36,
          "name": "C2",
          "ticks": 45192,
          "time": 276.91162625000004,
          "velocity": 0.7874015748031497
        },
        {
          "duration": 0.07352937500002099,
          "durationTicks": 12,
          "midi": 36,
          "name": "C2",
          "ticks": 45216,
          "time": 277.058685,
          "velocity": 0.7874015748031497
        },
        {
          "duration": 0.14705874999998514,
          "durationTicks": 24,
          "midi": 46,
          "name": "A#2",
          "ticks": 45216,
          "time": 277.058685,
          "velocity": 0.7874015748031497
        },
        {
          "duration": 0.07352937499996415,
          "durationTicks": 12,
          "midi": 36,
          "name": "C2",
          "ticks": 45228,
          "time": 277.13221437500005,
          "velocity": 0.7874015748031497
        },
        {
          "duration": 0.14705875000004198,
          "durationTicks": 24,
          "midi": 36,
          "name": "C2",
          "ticks": 45240,
          "time": 277.20574375,
          "velocity": 0.7874015748031497
        },
        {
          "duration": 0.14705874999998514,
          "durationTicks": 24,
          "midi": 38,
          "name": "D2",
          "ticks": 45264,
          "time": 277.35280250000005,
          "velocity": 0.7874015748031497
        },
        {
          "duration": 0.14705874999998514,
          "durationTicks": 24,
          "midi": 46,
          "name": "A#2",
          "ticks": 45264,
          "time": 277.35280250000005,
          "velocity": 0.7874015748031497
        },
        {
          "duration": 0.14705874999998514,
          "durationTicks": 24,
          "midi": 38,
          "name": "D2",
          "ticks": 45312,
          "time": 277.64692,
          "velocity": 0.7874015748031497
        },
        {
          "duration": 0.14705874999998514,
          "durationTicks": 24,
          "midi": 46,
          "name": "A#2",
          "ticks": 45312,
          "time": 277.64692,
          "velocity": 0.7874015748031497
        },
        {
          "duration": 0.14705874999998514,
          "durationTicks": 24,
          "midi": 38,
          "name": "D2",
          "ticks": 45360,
          "time": 277.94103750000005,
          "velocity": 0.7874015748031497
        },
        {
          "duration": 0.14705874999998514,
          "durationTicks": 24,
          "midi": 46,
          "name": "A#2",
          "ticks": 45360,
          "time": 277.94103750000005,
          "velocity": 0.7874015748031497
        },
        {
          "duration": 0.14705874999998514,
          "durationTicks": 24,
          "midi": 36,
          "name": "C2",
          "ticks": 45408,
          "time": 278.235155,
          "velocity": 0.7874015748031497
        },
        {
          "duration": 0.44117625000001226,
          "durationTicks": 72,
          "midi": 49,
          "name": "C#3",
          "ticks": 45408,
          "time": 278.235155,
          "velocity": 0.7874015748031497
        },
        {
          "duration": 0.14705875000004198,
          "durationTicks": 24,
          "midi": 36,
          "name": "C2",
          "ticks": 45432,
          "time": 278.38221375,
          "velocity": 0.7874015748031497
        },
        {
          "duration": 0.14705874999998514,
          "durationTicks": 24,
          "midi": 36,
          "name": "C2",
          "ticks": 45456,
          "time": 278.52927250000005,
          "velocity": 0.7874015748031497
        },
        {
          "duration": 0.14705874999998514,
          "durationTicks": 24,
          "midi": 46,
          "name": "A#2",
          "ticks": 45456,
          "time": 278.52927250000005,
          "velocity": 0.7874015748031497
        },
        {
          "duration": 0.14705874999998514,
          "durationTicks": 24,
          "midi": 36,
          "name": "C2",
          "ticks": 45480,
          "time": 278.67633125000003,
          "velocity": 0.7874015748031497
        },
        {
          "duration": 0.14705874999998514,
          "durationTicks": 24,
          "midi": 38,
          "name": "D2",
          "ticks": 45504,
          "time": 278.82339,
          "velocity": 0.7874015748031497
        },
        {
          "duration": 0.14705874999998514,
          "durationTicks": 24,
          "midi": 46,
          "name": "A#2",
          "ticks": 45504,
          "time": 278.82339,
          "velocity": 0.7874015748031497
        },
        {
          "duration": 0.14705874999998514,
          "durationTicks": 24,
          "midi": 36,
          "name": "C2",
          "ticks": 45552,
          "time": 279.11750750000004,
          "velocity": 0.7874015748031497
        },
        {
          "duration": 0.14705874999998514,
          "durationTicks": 24,
          "midi": 46,
          "name": "A#2",
          "ticks": 45552,
          "time": 279.11750750000004,
          "velocity": 0.7874015748031497
        },
        {
          "duration": 0.14705874999998514,
          "durationTicks": 24,
          "midi": 36,
          "name": "C2",
          "ticks": 45576,
          "time": 279.26456625000003,
          "velocity": 0.7874015748031497
        },
        {
          "duration": 0.07352937500002099,
          "durationTicks": 12,
          "midi": 36,
          "name": "C2",
          "ticks": 45600,
          "time": 279.411625,
          "velocity": 0.7874015748031497
        },
        {
          "duration": 0.14705875000004198,
          "durationTicks": 24,
          "midi": 46,
          "name": "A#2",
          "ticks": 45600,
          "time": 279.411625,
          "velocity": 0.7874015748031497
        },
        {
          "duration": 0.07352937500002099,
          "durationTicks": 12,
          "midi": 36,
          "name": "C2",
          "ticks": 45612,
          "time": 279.48515437500004,
          "velocity": 0.7874015748031497
        },
        {
          "duration": 0.14705874999998514,
          "durationTicks": 24,
          "midi": 36,
          "name": "C2",
          "ticks": 45624,
          "time": 279.55868375000006,
          "velocity": 0.7874015748031497
        },
        {
          "duration": 0.14705874999998514,
          "durationTicks": 24,
          "midi": 46,
          "name": "A#2",
          "ticks": 45648,
          "time": 279.70574250000004,
          "velocity": 0.7874015748031497
        },
        {
          "duration": 0.14705874999998514,
          "durationTicks": 24,
          "midi": 36,
          "name": "C2",
          "ticks": 45648,
          "time": 279.70574250000004,
          "velocity": 0.7874015748031497
        },
        {
          "duration": 0.14705874999998514,
          "durationTicks": 24,
          "midi": 36,
          "name": "C2",
          "ticks": 45672,
          "time": 279.85280125,
          "velocity": 0.7874015748031497
        },
        {
          "duration": 0.14705875000004198,
          "durationTicks": 24,
          "midi": 46,
          "name": "A#2",
          "ticks": 45696,
          "time": 279.99986,
          "velocity": 0.7874015748031497
        },
        {
          "duration": 0.14705875000004198,
          "durationTicks": 24,
          "midi": 38,
          "name": "D2",
          "ticks": 45696,
          "time": 279.99986,
          "velocity": 0.7874015748031497
        },
        {
          "duration": 0.14705874999998514,
          "durationTicks": 24,
          "midi": 46,
          "name": "A#2",
          "ticks": 45744,
          "time": 280.29397750000004,
          "velocity": 0.7874015748031497
        },
        {
          "duration": 0.14705874999998514,
          "durationTicks": 24,
          "midi": 36,
          "name": "C2",
          "ticks": 45744,
          "time": 280.29397750000004,
          "velocity": 0.7874015748031497
        },
        {
          "duration": 0.14705875000004198,
          "durationTicks": 24,
          "midi": 46,
          "name": "A#2",
          "ticks": 45792,
          "time": 280.588095,
          "velocity": 0.7874015748031497
        },
        {
          "duration": 0.14705875000004198,
          "durationTicks": 24,
          "midi": 36,
          "name": "C2",
          "ticks": 45792,
          "time": 280.588095,
          "velocity": 0.7874015748031497
        },
        {
          "duration": 0.14705874999998514,
          "durationTicks": 24,
          "midi": 36,
          "name": "C2",
          "ticks": 45816,
          "time": 280.73515375000005,
          "velocity": 0.7874015748031497
        },
        {
          "duration": 0.14705874999998514,
          "durationTicks": 24,
          "midi": 36,
          "name": "C2",
          "ticks": 45840,
          "time": 280.88221250000004,
          "velocity": 0.7874015748031497
        },
        {
          "duration": 0.14705874999998514,
          "durationTicks": 24,
          "midi": 46,
          "name": "A#2",
          "ticks": 45840,
          "time": 280.88221250000004,
          "velocity": 0.7874015748031497
        },
        {
          "duration": 0.14705874999998514,
          "durationTicks": 24,
          "midi": 36,
          "name": "C2",
          "ticks": 45864,
          "time": 281.02927125,
          "velocity": 0.7874015748031497
        },
        {
          "duration": 0.14705875000004198,
          "durationTicks": 24,
          "midi": 46,
          "name": "A#2",
          "ticks": 45888,
          "time": 281.17633,
          "velocity": 0.7874015748031497
        },
        {
          "duration": 0.14705875000004198,
          "durationTicks": 24,
          "midi": 38,
          "name": "D2",
          "ticks": 45888,
          "time": 281.17633,
          "velocity": 0.7874015748031497
        },
        {
          "duration": 0.14705874999998514,
          "durationTicks": 24,
          "midi": 46,
          "name": "A#2",
          "ticks": 45936,
          "time": 281.47044750000003,
          "velocity": 0.7874015748031497
        },
        {
          "duration": 0.14705874999998514,
          "durationTicks": 24,
          "midi": 36,
          "name": "C2",
          "ticks": 45936,
          "time": 281.47044750000003,
          "velocity": 0.7874015748031497
        },
        {
          "duration": 0.14705874999998514,
          "durationTicks": 24,
          "midi": 36,
          "name": "C2",
          "ticks": 45960,
          "time": 281.61750625,
          "velocity": 0.7874015748031497
        },
        {
          "duration": 0.07352937500002099,
          "durationTicks": 12,
          "midi": 36,
          "name": "C2",
          "ticks": 45984,
          "time": 281.764565,
          "velocity": 0.7874015748031497
        },
        {
          "duration": 0.14705875000004198,
          "durationTicks": 24,
          "midi": 46,
          "name": "A#2",
          "ticks": 45984,
          "time": 281.764565,
          "velocity": 0.7874015748031497
        },
        {
          "duration": 0.07352937500002099,
          "durationTicks": 12,
          "midi": 36,
          "name": "C2",
          "ticks": 45996,
          "time": 281.838094375,
          "velocity": 0.7874015748031497
        },
        {
          "duration": 0.14705874999998514,
          "durationTicks": 24,
          "midi": 36,
          "name": "C2",
          "ticks": 46008,
          "time": 281.91162375000005,
          "velocity": 0.7874015748031497
        },
        {
          "duration": 0.14705874999998514,
          "durationTicks": 24,
          "midi": 46,
          "name": "A#2",
          "ticks": 46032,
          "time": 282.05868250000003,
          "velocity": 0.7874015748031497
        },
        {
          "duration": 0.14705874999998514,
          "durationTicks": 24,
          "midi": 36,
          "name": "C2",
          "ticks": 46032,
          "time": 282.05868250000003,
          "velocity": 0.7874015748031497
        },
        {
          "duration": 0.14705874999998514,
          "durationTicks": 24,
          "midi": 36,
          "name": "C2",
          "ticks": 46056,
          "time": 282.20574125,
          "velocity": 0.7874015748031497
        },
        {
          "duration": 0.14705875000004198,
          "durationTicks": 24,
          "midi": 38,
          "name": "D2",
          "ticks": 46080,
          "time": 282.3528,
          "velocity": 0.7874015748031497
        },
        {
          "duration": 0.14705875000004198,
          "durationTicks": 24,
          "midi": 46,
          "name": "A#2",
          "ticks": 46080,
          "time": 282.3528,
          "velocity": 0.7874015748031497
        },
        {
          "duration": 0.14705874999998514,
          "durationTicks": 24,
          "midi": 36,
          "name": "C2",
          "ticks": 46128,
          "time": 282.64691750000003,
          "velocity": 0.7874015748031497
        },
        {
          "duration": 0.14705874999998514,
          "durationTicks": 24,
          "midi": 46,
          "name": "A#2",
          "ticks": 46128,
          "time": 282.64691750000003,
          "velocity": 0.7874015748031497
        },
        {
          "duration": 0.07352937499996415,
          "durationTicks": 12,
          "midi": 36,
          "name": "C2",
          "ticks": 46176,
          "time": 282.94103500000006,
          "velocity": 0.7874015748031497
        },
        {
          "duration": 0.4411762499999554,
          "durationTicks": 72,
          "midi": 49,
          "name": "C#3",
          "ticks": 46176,
          "time": 282.94103500000006,
          "velocity": 0.7874015748031497
        },
        {
          "duration": 0.07352937500002099,
          "durationTicks": 12,
          "midi": 36,
          "name": "C2",
          "ticks": 46188,
          "time": 283.014564375,
          "velocity": 0.7874015748031497
        },
        {
          "duration": 0.14705874999998514,
          "durationTicks": 24,
          "midi": 36,
          "name": "C2",
          "ticks": 46200,
          "time": 283.08809375000004,
          "velocity": 0.7874015748031497
        },
        {
          "duration": 0.14705874999998514,
          "durationTicks": 24,
          "midi": 38,
          "name": "D2",
          "ticks": 46224,
          "time": 283.2351525,
          "velocity": 0.7874015748031497
        },
        {
          "duration": 0.14705874999998514,
          "durationTicks": 24,
          "midi": 46,
          "name": "A#2",
          "ticks": 46224,
          "time": 283.2351525,
          "velocity": 0.7874015748031497
        },
        {
          "duration": 0.07352937499996415,
          "durationTicks": 12,
          "midi": 36,
          "name": "C2",
          "ticks": 46272,
          "time": 283.52927000000005,
          "velocity": 0.7874015748031497
        },
        {
          "duration": 0.07352937500002099,
          "durationTicks": 12,
          "midi": 36,
          "name": "C2",
          "ticks": 46284,
          "time": 283.602799375,
          "velocity": 0.7874015748031497
        },
        {
          "duration": 0.14705874999998514,
          "durationTicks": 24,
          "midi": 46,
          "name": "A#2",
          "ticks": 46296,
          "time": 283.67632875000004,
          "velocity": 0.7874015748031497
        },
        {
          "duration": 0.14705874999998514,
          "durationTicks": 24,
          "midi": 38,
          "name": "D2",
          "ticks": 46296,
          "time": 283.67632875000004,
          "velocity": 0.7874015748031497
        },
        {
          "duration": 0.14705875000004198,
          "durationTicks": 24,
          "midi": 36,
          "name": "C2",
          "ticks": 46344,
          "time": 283.97044625,
          "velocity": 0.7874015748031497
        },
        {
          "duration": 0.14705874999998514,
          "durationTicks": 24,
          "midi": 38,
          "name": "D2",
          "ticks": 46368,
          "time": 284.11750500000005,
          "velocity": 0.7874015748031497
        },
        {
          "duration": 0.14705874999998514,
          "durationTicks": 24,
          "midi": 46,
          "name": "A#2",
          "ticks": 46368,
          "time": 284.11750500000005,
          "velocity": 0.7874015748031497
        },
        {
          "duration": 0.14705874999998514,
          "durationTicks": 24,
          "midi": 36,
          "name": "C2",
          "ticks": 46392,
          "time": 284.26456375000004,
          "velocity": 0.7874015748031497
        },
        {
          "duration": 0.14705875000004198,
          "durationTicks": 24,
          "midi": 46,
          "name": "A#2",
          "ticks": 46440,
          "time": 284.55868125,
          "velocity": 0.7874015748031497
        },
        {
          "duration": 0.14705875000004198,
          "durationTicks": 24,
          "midi": 36,
          "name": "C2",
          "ticks": 46440,
          "time": 284.55868125,
          "velocity": 0.7874015748031497
        },
        {
          "duration": 0.14705874999998514,
          "durationTicks": 24,
          "midi": 38,
          "name": "D2",
          "ticks": 46464,
          "time": 284.70574000000005,
          "velocity": 0.7874015748031497
        },
        {
          "duration": 0.14705874999998514,
          "durationTicks": 24,
          "midi": 38,
          "name": "D2",
          "ticks": 46512,
          "time": 284.9998575,
          "velocity": 0.7874015748031497
        },
        {
          "duration": 0.14705874999998514,
          "durationTicks": 24,
          "midi": 46,
          "name": "A#2",
          "ticks": 46512,
          "time": 284.9998575,
          "velocity": 0.7874015748031497
        },
        {
          "duration": 0.07352937499996415,
          "durationTicks": 12,
          "midi": 38,
          "name": "D2",
          "ticks": 46560,
          "time": 285.29397500000005,
          "velocity": 0.7874015748031497
        },
        {
          "duration": 0.44117625000001226,
          "durationTicks": 72,
          "midi": 49,
          "name": "C#3",
          "ticks": 46560,
          "time": 285.29397500000005,
          "velocity": 0.7874015748031497
        },
        {
          "duration": 0.07352937500002099,
          "durationTicks": 12,
          "midi": 38,
          "name": "D2",
          "ticks": 46572,
          "time": 285.367504375,
          "velocity": 0.7874015748031497
        },
        {
          "duration": 0.14705874999998514,
          "durationTicks": 24,
          "midi": 42,
          "name": "F#2",
          "ticks": 46584,
          "time": 285.44103375000003,
          "velocity": 0.7874015748031497
        },
        {
          "duration": 0.14705874999998514,
          "durationTicks": 24,
          "midi": 36,
          "name": "C2",
          "ticks": 46584,
          "time": 285.44103375000003,
          "velocity": 0.7874015748031497
        },
        {
          "duration": 0.14705875000004198,
          "durationTicks": 24,
          "midi": 36,
          "name": "C2",
          "ticks": 46608,
          "time": 285.5880925,
          "velocity": 0.7874015748031497
        },
        {
          "duration": 0.14705875000004198,
          "durationTicks": 24,
          "midi": 42,
          "name": "F#2",
          "ticks": 46608,
          "time": 285.5880925,
          "velocity": 0.7874015748031497
        },
        {
          "duration": 0.07352937499996415,
          "durationTicks": 12,
          "midi": 38,
          "name": "D2",
          "ticks": 46632,
          "time": 285.73515125000006,
          "velocity": 0.7874015748031497
        },
        {
          "duration": 0.4411762499999554,
          "durationTicks": 72,
          "midi": 49,
          "name": "C#3",
          "ticks": 46632,
          "time": 285.73515125000006,
          "velocity": 0.7874015748031497
        },
        {
          "duration": 0.07352937500002099,
          "durationTicks": 12,
          "midi": 38,
          "name": "D2",
          "ticks": 46644,
          "time": 285.808680625,
          "velocity": 0.7874015748031497
        },
        {
          "duration": 0.14705874999998514,
          "durationTicks": 24,
          "midi": 36,
          "name": "C2",
          "ticks": 46656,
          "time": 285.88221000000004,
          "velocity": 0.7874015748031497
        },
        {
          "duration": 0.14705874999998514,
          "durationTicks": 24,
          "midi": 42,
          "name": "F#2",
          "ticks": 46656,
          "time": 285.88221000000004,
          "velocity": 0.7874015748031497
        },
        {
          "duration": 0.14705874999998514,
          "durationTicks": 24,
          "midi": 36,
          "name": "C2",
          "ticks": 46680,
          "time": 286.02926875,
          "velocity": 0.7874015748031497
        },
        {
          "duration": 0.14705874999998514,
          "durationTicks": 24,
          "midi": 42,
          "name": "F#2",
          "ticks": 46680,
          "time": 286.02926875,
          "velocity": 0.7874015748031497
        },
        {
          "duration": 0.07352937500002099,
          "durationTicks": 12,
          "midi": 38,
          "name": "D2",
          "ticks": 46704,
          "time": 286.1763275,
          "velocity": 0.7874015748031497
        },
        {
          "duration": 0.44117625000001226,
          "durationTicks": 72,
          "midi": 49,
          "name": "C#3",
          "ticks": 46704,
          "time": 286.1763275,
          "velocity": 0.7874015748031497
        },
        {
          "duration": 0.07352937500002099,
          "durationTicks": 12,
          "midi": 38,
          "name": "D2",
          "ticks": 46716,
          "time": 286.24985687500003,
          "velocity": 0.7874015748031497
        },
        {
          "duration": 0.14705874999998514,
          "durationTicks": 24,
          "midi": 36,
          "name": "C2",
          "ticks": 46728,
          "time": 286.32338625000006,
          "velocity": 0.7874015748031497
        },
        {
          "duration": 0.14705874999998514,
          "durationTicks": 24,
          "midi": 42,
          "name": "F#2",
          "ticks": 46728,
          "time": 286.32338625000006,
          "velocity": 0.7874015748031497
        },
        {
          "duration": 0.14705874999998514,
          "durationTicks": 24,
          "midi": 36,
          "name": "C2",
          "ticks": 46752,
          "time": 286.47044500000004,
          "velocity": 0.7874015748031497
        },
        {
          "duration": 0.14705874999998514,
          "durationTicks": 24,
          "midi": 42,
          "name": "F#2",
          "ticks": 46752,
          "time": 286.47044500000004,
          "velocity": 0.7874015748031497
        },
        {
          "duration": 0.44117625000001226,
          "durationTicks": 72,
          "midi": 49,
          "name": "C#3",
          "ticks": 46776,
          "time": 286.61750375,
          "velocity": 0.7874015748031497
        },
        {
          "duration": 0.07352937500002099,
          "durationTicks": 12,
          "midi": 38,
          "name": "D2",
          "ticks": 46776,
          "time": 286.61750375,
          "velocity": 0.7874015748031497
        },
        {
          "duration": 0.07352937499996415,
          "durationTicks": 12,
          "midi": 38,
          "name": "D2",
          "ticks": 46788,
          "time": 286.69103312500005,
          "velocity": 0.7874015748031497
        },
        {
          "duration": 0.14705875000004198,
          "durationTicks": 24,
          "midi": 36,
          "name": "C2",
          "ticks": 46800,
          "time": 286.7645625,
          "velocity": 0.7874015748031497
        },
        {
          "duration": 0.14705875000004198,
          "durationTicks": 24,
          "midi": 42,
          "name": "F#2",
          "ticks": 46800,
          "time": 286.7645625,
          "velocity": 0.7874015748031497
        },
        {
          "duration": 0.14705874999998514,
          "durationTicks": 24,
          "midi": 42,
          "name": "F#2",
          "ticks": 46824,
          "time": 286.91162125000005,
          "velocity": 0.7874015748031497
        },
        {
          "duration": 0.14705874999998514,
          "durationTicks": 24,
          "midi": 36,
          "name": "C2",
          "ticks": 46824,
          "time": 286.91162125000005,
          "velocity": 0.7874015748031497
        },
        {
          "duration": 0.07352937500002099,
          "durationTicks": 12,
          "midi": 38,
          "name": "D2",
          "ticks": 46848,
          "time": 287.05868000000004,
          "velocity": 0.7874015748031497
        },
        {
          "duration": 0.14705874999998514,
          "durationTicks": 24,
          "midi": 46,
          "name": "A#2",
          "ticks": 46848,
          "time": 287.05868000000004,
          "velocity": 0.7874015748031497
        },
        {
          "duration": 0.07352937499996415,
          "durationTicks": 12,
          "midi": 38,
          "name": "D2",
          "ticks": 46860,
          "time": 287.13220937500006,
          "velocity": 0.7874015748031497
        },
        {
          "duration": 0.14705874999998514,
          "durationTicks": 24,
          "midi": 36,
          "name": "C2",
          "ticks": 46872,
          "time": 287.20573875,
          "velocity": 0.7874015748031497
        },
        {
          "duration": 0.14705874999998514,
          "durationTicks": 24,
          "midi": 42,
          "name": "F#2",
          "ticks": 46872,
          "time": 287.20573875,
          "velocity": 0.7874015748031497
        },
        {
          "duration": 0.07352937500002099,
          "durationTicks": 12,
          "midi": 38,
          "name": "D2",
          "ticks": 46896,
          "time": 287.3527975,
          "velocity": 0.7874015748031497
        },
        {
          "duration": 0.14705875000004198,
          "durationTicks": 24,
          "midi": 46,
          "name": "A#2",
          "ticks": 46896,
          "time": 287.3527975,
          "velocity": 0.7874015748031497
        },
        {
          "duration": 0.07352937500002099,
          "durationTicks": 12,
          "midi": 38,
          "name": "D2",
          "ticks": 46908,
          "time": 287.42632687500003,
          "velocity": 0.7874015748031497
        },
        {
          "duration": 0.14705874999998514,
          "durationTicks": 24,
          "midi": 42,
          "name": "F#2",
          "ticks": 46920,
          "time": 287.49985625000005,
          "velocity": 0.7874015748031497
        },
        {
          "duration": 0.14705874999998514,
          "durationTicks": 24,
          "midi": 36,
          "name": "C2",
          "ticks": 46920,
          "time": 287.49985625000005,
          "velocity": 0.7874015748031497
        },
        {
          "duration": 0.44117625000001226,
          "durationTicks": 72,
          "midi": 49,
          "name": "C#3",
          "ticks": 46944,
          "time": 287.64691500000004,
          "velocity": 0.7874015748031497
        },
        {
          "duration": 0.07352937500002099,
          "durationTicks": 12,
          "midi": 38,
          "name": "D2",
          "ticks": 46944,
          "time": 287.64691500000004,
          "velocity": 0.7874015748031497
        },
        {
          "duration": 0.07352937499996415,
          "durationTicks": 12,
          "midi": 38,
          "name": "D2",
          "ticks": 46956,
          "time": 287.72044437500006,
          "velocity": 0.7874015748031497
        },
        {
          "duration": 0.14705874999998514,
          "durationTicks": 24,
          "midi": 42,
          "name": "F#2",
          "ticks": 46968,
          "time": 287.79397375,
          "velocity": 0.7874015748031497
        },
        {
          "duration": 0.14705874999998514,
          "durationTicks": 24,
          "midi": 36,
          "name": "C2",
          "ticks": 46968,
          "time": 287.79397375,
          "velocity": 0.7874015748031497
        },
        {
          "duration": 0.14705875000004198,
          "durationTicks": 24,
          "midi": 36,
          "name": "C2",
          "ticks": 46992,
          "time": 287.9410325,
          "velocity": 0.7874015748031497
        },
        {
          "duration": 0.14705875000004198,
          "durationTicks": 24,
          "midi": 42,
          "name": "F#2",
          "ticks": 46992,
          "time": 287.9410325,
          "velocity": 0.7874015748031497
        },
        {
          "duration": 0.07352937499996415,
          "durationTicks": 12,
          "midi": 38,
          "name": "D2",
          "ticks": 47016,
          "time": 288.08809125000005,
          "velocity": 0.7874015748031497
        },
        {
          "duration": 0.4411762499999554,
          "durationTicks": 72,
          "midi": 49,
          "name": "C#3",
          "ticks": 47016,
          "time": 288.08809125000005,
          "velocity": 0.7874015748031497
        },
        {
          "duration": 0.07352937500002099,
          "durationTicks": 12,
          "midi": 38,
          "name": "D2",
          "ticks": 47028,
          "time": 288.161620625,
          "velocity": 0.7874015748031497
        },
        {
          "duration": 0.14705874999998514,
          "durationTicks": 24,
          "midi": 36,
          "name": "C2",
          "ticks": 47040,
          "time": 288.23515000000003,
          "velocity": 0.7874015748031497
        },
        {
          "duration": 0.14705874999998514,
          "durationTicks": 24,
          "midi": 42,
          "name": "F#2",
          "ticks": 47040,
          "time": 288.23515000000003,
          "velocity": 0.7874015748031497
        },
        {
          "duration": 0.14705874999998514,
          "durationTicks": 24,
          "midi": 36,
          "name": "C2",
          "ticks": 47064,
          "time": 288.38220875,
          "velocity": 0.7874015748031497
        },
        {
          "duration": 0.14705874999998514,
          "durationTicks": 24,
          "midi": 42,
          "name": "F#2",
          "ticks": 47064,
          "time": 288.38220875,
          "velocity": 0.7874015748031497
        },
        {
          "duration": 0.44117625000001226,
          "durationTicks": 72,
          "midi": 49,
          "name": "C#3",
          "ticks": 47088,
          "time": 288.5292675,
          "velocity": 0.7874015748031497
        },
        {
          "duration": 0.07352937500002099,
          "durationTicks": 12,
          "midi": 38,
          "name": "D2",
          "ticks": 47088,
          "time": 288.5292675,
          "velocity": 0.7874015748031497
        },
        {
          "duration": 0.07352937500002099,
          "durationTicks": 12,
          "midi": 38,
          "name": "D2",
          "ticks": 47100,
          "time": 288.602796875,
          "velocity": 0.7874015748031497
        },
        {
          "duration": 0.14705874999998514,
          "durationTicks": 24,
          "midi": 42,
          "name": "F#2",
          "ticks": 47112,
          "time": 288.67632625000005,
          "velocity": 0.7874015748031497
        },
        {
          "duration": 0.14705874999998514,
          "durationTicks": 24,
          "midi": 36,
          "name": "C2",
          "ticks": 47112,
          "time": 288.67632625000005,
          "velocity": 0.7874015748031497
        },
        {
          "duration": 0.14705874999998514,
          "durationTicks": 24,
          "midi": 36,
          "name": "C2",
          "ticks": 47136,
          "time": 288.82338500000003,
          "velocity": 0.7874015748031497
        },
        {
          "duration": 0.14705874999998514,
          "durationTicks": 24,
          "midi": 42,
          "name": "F#2",
          "ticks": 47136,
          "time": 288.82338500000003,
          "velocity": 0.7874015748031497
        },
        {
          "duration": 0.07352937500002099,
          "durationTicks": 12,
          "midi": 38,
          "name": "D2",
          "ticks": 47160,
          "time": 288.97044375,
          "velocity": 0.7874015748031497
        },
        {
          "duration": 0.44117625000001226,
          "durationTicks": 72,
          "midi": 49,
          "name": "C#3",
          "ticks": 47160,
          "time": 288.97044375,
          "velocity": 0.7874015748031497
        },
        {
          "duration": 0.07352937500002099,
          "durationTicks": 12,
          "midi": 38,
          "name": "D2",
          "ticks": 47172,
          "time": 289.04397312500004,
          "velocity": 0.7874015748031497
        },
        {
          "duration": 0.14705874999998514,
          "durationTicks": 24,
          "midi": 42,
          "name": "F#2",
          "ticks": 47184,
          "time": 289.11750250000006,
          "velocity": 0.7874015748031497
        },
        {
          "duration": 0.14705874999998514,
          "durationTicks": 24,
          "midi": 36,
          "name": "C2",
          "ticks": 47184,
          "time": 289.11750250000006,
          "velocity": 0.7874015748031497
        },
        {
          "duration": 0.14705874999998514,
          "durationTicks": 24,
          "midi": 42,
          "name": "F#2",
          "ticks": 47208,
          "time": 289.26456125000004,
          "velocity": 0.7874015748031497
        },
        {
          "duration": 0.14705874999998514,
          "durationTicks": 24,
          "midi": 36,
          "name": "C2",
          "ticks": 47208,
          "time": 289.26456125000004,
          "velocity": 0.7874015748031497
        },
        {
          "duration": 0.14705874999998514,
          "durationTicks": 24,
          "midi": 46,
          "name": "A#2",
          "ticks": 47232,
          "time": 289.41162,
          "velocity": 0.7874015748031497
        },
        {
          "duration": 0.07352937500002099,
          "durationTicks": 12,
          "midi": 38,
          "name": "D2",
          "ticks": 47232,
          "time": 289.41162,
          "velocity": 0.7874015748031497
        },
        {
          "duration": 0.07352937499996415,
          "durationTicks": 12,
          "midi": 38,
          "name": "D2",
          "ticks": 47244,
          "time": 289.48514937500005,
          "velocity": 0.7874015748031497
        },
        {
          "duration": 0.14705875000004198,
          "durationTicks": 24,
          "midi": 42,
          "name": "F#2",
          "ticks": 47256,
          "time": 289.55867875,
          "velocity": 0.7874015748031497
        },
        {
          "duration": 0.14705875000004198,
          "durationTicks": 24,
          "midi": 36,
          "name": "C2",
          "ticks": 47256,
          "time": 289.55867875,
          "velocity": 0.7874015748031497
        },
        {
          "duration": 0.14705874999998514,
          "durationTicks": 24,
          "midi": 46,
          "name": "A#2",
          "ticks": 47280,
          "time": 289.70573750000005,
          "velocity": 0.7874015748031497
        },
        {
          "duration": 0.07352937499996415,
          "durationTicks": 12,
          "midi": 38,
          "name": "D2",
          "ticks": 47280,
          "time": 289.70573750000005,
          "velocity": 0.7874015748031497
        },
        {
          "duration": 0.07352937500002099,
          "durationTicks": 12,
          "midi": 38,
          "name": "D2",
          "ticks": 47292,
          "time": 289.779266875,
          "velocity": 0.7874015748031497
        },
        {
          "duration": 0.14705874999998514,
          "durationTicks": 24,
          "midi": 42,
          "name": "F#2",
          "ticks": 47304,
          "time": 289.85279625000004,
          "velocity": 0.7874015748031497
        },
        {
          "duration": 0.14705874999998514,
          "durationTicks": 24,
          "midi": 36,
          "name": "C2",
          "ticks": 47304,
          "time": 289.85279625000004,
          "velocity": 0.7874015748031497
        },
        {
          "duration": 0.07352937500002099,
          "durationTicks": 12,
          "midi": 38,
          "name": "D2",
          "ticks": 47328,
          "time": 289.999855,
          "velocity": 0.7874015748031497
        },
        {
          "duration": 0.44117625000001226,
          "durationTicks": 72,
          "midi": 49,
          "name": "C#3",
          "ticks": 47328,
          "time": 289.999855,
          "velocity": 0.7874015748031497
        },
        {
          "duration": 0.07352937499996415,
          "durationTicks": 12,
          "midi": 38,
          "name": "D2",
          "ticks": 47340,
          "time": 290.07338437500005,
          "velocity": 0.7874015748031497
        },
        {
          "duration": 0.14705875000004198,
          "durationTicks": 24,
          "midi": 42,
          "name": "F#2",
          "ticks": 47352,
          "time": 290.14691375,
          "velocity": 0.7874015748031497
        },
        {
          "duration": 0.14705875000004198,
          "durationTicks": 24,
          "midi": 36,
          "name": "C2",
          "ticks": 47352,
          "time": 290.14691375,
          "velocity": 0.7874015748031497
        },
        {
          "duration": 0.14705874999998514,
          "durationTicks": 24,
          "midi": 36,
          "name": "C2",
          "ticks": 47376,
          "time": 290.29397250000005,
          "velocity": 0.7874015748031497
        },
        {
          "duration": 0.14705874999998514,
          "durationTicks": 24,
          "midi": 42,
          "name": "F#2",
          "ticks": 47376,
          "time": 290.29397250000005,
          "velocity": 0.7874015748031497
        },
        {
          "duration": 0.44117625000001226,
          "durationTicks": 72,
          "midi": 49,
          "name": "C#3",
          "ticks": 47400,
          "time": 290.44103125000004,
          "velocity": 0.7874015748031497
        },
        {
          "duration": 0.07352937500002099,
          "durationTicks": 12,
          "midi": 38,
          "name": "D2",
          "ticks": 47400,
          "time": 290.44103125000004,
          "velocity": 0.7874015748031497
        },
        {
          "duration": 0.07352937499996415,
          "durationTicks": 12,
          "midi": 38,
          "name": "D2",
          "ticks": 47412,
          "time": 290.51456062500006,
          "velocity": 0.7874015748031497
        },
        {
          "duration": 0.14705874999998514,
          "durationTicks": 24,
          "midi": 36,
          "name": "C2",
          "ticks": 47424,
          "time": 290.58809,
          "velocity": 0.7874015748031497
        },
        {
          "duration": 0.14705874999998514,
          "durationTicks": 24,
          "midi": 42,
          "name": "F#2",
          "ticks": 47424,
          "time": 290.58809,
          "velocity": 0.7874015748031497
        },
        {
          "duration": 0.14705875000004198,
          "durationTicks": 24,
          "midi": 36,
          "name": "C2",
          "ticks": 47448,
          "time": 290.73514875,
          "velocity": 0.7874015748031497
        },
        {
          "duration": 0.14705875000004198,
          "durationTicks": 24,
          "midi": 42,
          "name": "F#2",
          "ticks": 47448,
          "time": 290.73514875,
          "velocity": 0.7874015748031497
        },
        {
          "duration": 0.07352937499996415,
          "durationTicks": 12,
          "midi": 38,
          "name": "D2",
          "ticks": 47472,
          "time": 290.88220750000005,
          "velocity": 0.7874015748031497
        },
        {
          "duration": 0.4411762499999554,
          "durationTicks": 72,
          "midi": 49,
          "name": "C#3",
          "ticks": 47472,
          "time": 290.88220750000005,
          "velocity": 0.7874015748031497
        },
        {
          "duration": 0.07352937500002099,
          "durationTicks": 12,
          "midi": 38,
          "name": "D2",
          "ticks": 47484,
          "time": 290.955736875,
          "velocity": 0.7874015748031497
        },
        {
          "duration": 0.14705874999998514,
          "durationTicks": 24,
          "midi": 36,
          "name": "C2",
          "ticks": 47496,
          "time": 291.02926625000003,
          "velocity": 0.7874015748031497
        },
        {
          "duration": 0.14705874999998514,
          "durationTicks": 24,
          "midi": 42,
          "name": "F#2",
          "ticks": 47496,
          "time": 291.02926625000003,
          "velocity": 0.7874015748031497
        },
        {
          "duration": 0.14705874999998514,
          "durationTicks": 24,
          "midi": 36,
          "name": "C2",
          "ticks": 47520,
          "time": 291.176325,
          "velocity": 0.7874015748031497
        },
        {
          "duration": 0.14705874999998514,
          "durationTicks": 24,
          "midi": 42,
          "name": "F#2",
          "ticks": 47520,
          "time": 291.176325,
          "velocity": 0.7874015748031497
        },
        {
          "duration": 0.2941175000000271,
          "durationTicks": 48,
          "midi": 38,
          "name": "D2",
          "ticks": 47544,
          "time": 291.32338375,
          "velocity": 0.7874015748031497
        },
        {
          "duration": 0.44117625000001226,
          "durationTicks": 72,
          "midi": 52,
          "name": "E3",
          "ticks": 47544,
          "time": 291.32338375,
          "velocity": 0.7874015748031497
        },
        {
          "duration": 0.2941175000000271,
          "durationTicks": 48,
          "midi": 41,
          "name": "F2",
          "ticks": 47592,
          "time": 291.61750125000003,
          "velocity": 0.6141732283464567
        },
        {
          "duration": 0.2941174999999703,
          "durationTicks": 48,
          "midi": 41,
          "name": "F2",
          "ticks": 47640,
          "time": 291.91161875000006,
          "velocity": 0.5433070866141733
        },
        {
          "duration": 0.2941175000000271,
          "durationTicks": 48,
          "midi": 41,
          "name": "F2",
          "ticks": 47688,
          "time": 292.20573625000003,
          "velocity": 0.5039370078740157
        },
        {
          "duration": 0.2941174999999703,
          "durationTicks": 48,
          "midi": 41,
          "name": "F2",
          "ticks": 47736,
          "time": 292.49985375000006,
          "velocity": 0.4330708661417323
        },
        {
          "duration": 0.2941175000000271,
          "durationTicks": 48,
          "midi": 41,
          "name": "F2",
          "ticks": 47784,
          "time": 292.79397125,
          "velocity": 0.3543307086614173
        },
        {
          "duration": 0.2941174999999703,
          "durationTicks": 48,
          "midi": 41,
          "name": "F2",
          "ticks": 47832,
          "time": 293.08808875000005,
          "velocity": 0.28346456692913385
        },
        {
          "duration": 0.2941175000000271,
          "durationTicks": 48,
          "midi": 41,
          "name": "F2",
          "ticks": 47880,
          "time": 293.38220625,
          "velocity": 0.2204724409448819
        },
        {
          "duration": 0.2941174999999703,
          "durationTicks": 48,
          "midi": 41,
          "name": "F2",
          "ticks": 47928,
          "time": 293.67632375000005,
          "velocity": 0.2204724409448819
        },
        {
          "duration": 0.14705874999998514,
          "durationTicks": 24,
          "midi": 41,
          "name": "F2",
          "ticks": 47976,
          "time": 293.97044125,
          "velocity": 0.13385826771653545
        }
      ]
    },
    {
      "channel": 0,
      "controlChanges": {
        "6": [
          {
            "number": 6,
            "ticks": 0,
            "time": 0,
            "value": 0.09448818897637795
          }
        ],
        "7": [
          {
            "number": 7,
            "ticks": 0,
            "time": 0,
            "value": 0.6929133858267716
          },
          {
            "number": 7,
            "ticks": 0,
            "time": 0,
            "value": 0.6929133858267716
          }
        ],
        "10": [
          {
            "number": 10,
            "ticks": 0,
            "time": 0,
            "value": 0.5039370078740157
          },
          {
            "number": 10,
            "ticks": 0,
            "time": 0,
            "value": 0.5039370078740157
          }
        ],
        "100": [
          {
            "number": 100,
            "ticks": 0,
            "time": 0,
            "value": 0
          }
        ],
        "101": [
          {
            "number": 101,
            "ticks": 0,
            "time": 0,
            "value": 0
          }
        ]
      },
      "pitchBends": [
        {
          "ticks": 0,
          "time": 0,
          "value": 0
        },
        {
          "ticks": 0,
          "time": 0,
          "value": 0
        }
      ],
      "instrument": {
        "family": "piano",
        "number": 0,
        "name": "acoustic grand piano"
      },
      "name": "Dist. Guitar 2",
      "notes": [],
      "endOfTrackTicks": 48052
    },
    {
      "channel": 6,
      "controlChanges": {
        "1": [
          {
            "number": 1,
            "ticks": 0,
            "time": 0,
            "value": 0.7874015748031497
          },
          {
            "number": 1,
            "ticks": 0,
            "time": 0,
            "value": 0.7874015748031497
          },
          {
            "number": 1,
            "ticks": 0,
            "time": 0,
            "value": 0.7874015748031497
          },
          {
            "number": 1,
            "ticks": 48000,
            "time": 294.1175,
            "value": 0.7874015748031497
          },
          {
            "number": 1,
            "ticks": 48052,
            "time": 294.4361272916667,
            "value": 0.7874015748031497
          }
        ],
        "6": [
          {
            "number": 6,
            "ticks": 0,
            "time": 0,
            "value": 0.09448818897637795
          },
          {
            "number": 6,
            "ticks": 0,
            "time": 0,
            "value": 0.09448818897637795
          },
          {
            "number": 6,
            "ticks": 48000,
            "time": 294.1175,
            "value": 0.09448818897637795
          },
          {
            "number": 6,
            "ticks": 48052,
            "time": 294.4361272916667,
            "value": 0.09448818897637795
          }
        ],
        "7": [
          {
            "number": 7,
            "ticks": 0,
            "time": 0,
            "value": 0.6929133858267716
          },
          {
            "number": 7,
            "ticks": 0,
            "time": 0,
            "value": 0.6929133858267716
          },
          {
            "number": 7,
            "ticks": 48000,
            "time": 294.1175,
            "value": 0.6929133858267716
          },
          {
            "number": 7,
            "ticks": 48052,
            "time": 294.4361272916667,
            "value": 0.6929133858267716
          }
        ],
        "10": [
          {
            "number": 10,
            "ticks": 0,
            "time": 0,
            "value": 0.5039370078740157
          },
          {
            "number": 10,
            "ticks": 0,
            "time": 0,
            "value": 0.5039370078740157
          },
          {
            "number": 10,
            "ticks": 0,
            "time": 0,
            "value": 0.5039370078740157
          },
          {
            "number": 10,
            "ticks": 0,
            "time": 0,
            "value": 0.5039370078740157
          },
          {
            "number": 10,
            "ticks": 25824,
            "time": 158.235215,
            "value": 0.5039370078740157
          },
          {
            "number": 10,
            "ticks": 48000,
            "time": 294.1175,
            "value": 0.5039370078740157
          },
          {
            "number": 10,
            "ticks": 48051,
            "time": 294.42999984375,
            "value": 0.5039370078740157
          },
          {
            "number": 10,
            "ticks": 48052,
            "time": 294.4361272916667,
            "value": 0.5039370078740157
          }
        ],
        "100": [
          {
            "number": 100,
            "ticks": 0,
            "time": 0,
            "value": 0
          },
          {
            "number": 100,
            "ticks": 0,
            "time": 0,
            "value": 0
          },
          {
            "number": 100,
            "ticks": 48000,
            "time": 294.1175,
            "value": 0
          },
          {
            "number": 100,
            "ticks": 48052,
            "time": 294.4361272916667,
            "value": 0
          }
        ],
        "101": [
          {
            "number": 101,
            "ticks": 0,
            "time": 0,
            "value": 0
          },
          {
            "number": 101,
            "ticks": 0,
            "time": 0,
            "value": 0
          },
          {
            "number": 101,
            "ticks": 48000,
            "time": 294.1175,
            "value": 0
          },
          {
            "number": 101,
            "ticks": 48052,
            "time": 294.4361272916667,
            "value": 0
          }
        ]
      },
      "pitchBends": [
        {
          "ticks": 0,
          "time": 0,
          "value": 0
        },
        {
          "ticks": 0,
          "time": 0,
          "value": 0
        },
        {
          "ticks": 0,
          "time": 0,
          "value": 0
        },
        {
          "ticks": 0,
          "time": 0,
          "value": 0
        },
        {
          "ticks": 25824,
          "time": 158.235215,
          "value": 0
        },
        {
          "ticks": 48000,
          "time": 294.1175,
          "value": 0
        },
        {
          "ticks": 48051,
          "time": 294.42999984375,
          "value": 0
        },
        {
          "ticks": 48052,
          "time": 294.4361272916667,
          "value": 0
        }
      ],
      "instrument": {
        "family": "guitar",
        "number": 30,
        "name": "distortion guitar"
      },
      "name": "",
      "notes": [
        {
          "duration": 0.14705874999999935,
          "durationTicks": 24,
          "midi": 55,
          "name": "G3",
          "ticks": 5088,
          "time": 31.176455000000004,
          "velocity": 0.7874015748031497
        },
        {
          "duration": 0.14705874999999935,
          "durationTicks": 24,
          "midi": 55,
          "name": "G3",
          "ticks": 5112,
          "time": 31.323513750000004,
          "velocity": 0.7874015748031497
        },
        {
          "duration": 0.14705874999999935,
          "durationTicks": 24,
          "midi": 55,
          "name": "G3",
          "ticks": 5136,
          "time": 31.470572500000003,
          "velocity": 0.7874015748031497
        },
        {
          "duration": 0.14705874999999935,
          "durationTicks": 24,
          "midi": 57,
          "name": "A3",
          "ticks": 5160,
          "time": 31.617631250000002,
          "velocity": 0.7874015748031497
        },
        {
          "duration": 0.1470587500000029,
          "durationTicks": 24,
          "midi": 57,
          "name": "A3",
          "ticks": 5184,
          "time": 31.76469,
          "velocity": 0.7874015748031497
        },
        {
          "duration": 0.1470587499999958,
          "durationTicks": 24,
          "midi": 57,
          "name": "A3",
          "ticks": 5208,
          "time": 31.911748750000005,
          "velocity": 0.7874015748031497
        },
        {
          "duration": 0.14705875000000646,
          "durationTicks": 24,
          "midi": 59,
          "name": "B3",
          "ticks": 5232,
          "time": 32.0588075,
          "velocity": 0.7874015748031497
        },
        {
          "duration": 0.14705874999999935,
          "durationTicks": 24,
          "midi": 59,
          "name": "B3",
          "ticks": 5256,
          "time": 32.20586625000001,
          "velocity": 0.7874015748031497
        },
        {
          "duration": 0.14705874999999935,
          "durationTicks": 24,
          "midi": 59,
          "name": "B3",
          "ticks": 5280,
          "time": 32.352925000000006,
          "velocity": 0.7874015748031497
        },
        {
          "duration": 0.14705874999999935,
          "durationTicks": 24,
          "midi": 61,
          "name": "C#4",
          "ticks": 5304,
          "time": 32.499983750000006,
          "velocity": 0.7874015748031497
        },
        {
          "duration": 0.14705874999999935,
          "durationTicks": 24,
          "midi": 61,
          "name": "C#4",
          "ticks": 5328,
          "time": 32.647042500000005,
          "velocity": 0.7874015748031497
        },
        {
          "duration": 0.14705874999999935,
          "durationTicks": 24,
          "midi": 61,
          "name": "C#4",
          "ticks": 5352,
          "time": 32.794101250000004,
          "velocity": 0.7874015748031497
        },
        {
          "duration": 0.14705874999999935,
          "durationTicks": 24,
          "midi": 62,
          "name": "D4",
          "ticks": 5376,
          "time": 32.94116,
          "velocity": 0.7874015748031497
        },
        {
          "duration": 0.14705874999999935,
          "durationTicks": 24,
          "midi": 62,
          "name": "D4",
          "ticks": 5400,
          "time": 33.08821875,
          "velocity": 0.7874015748031497
        },
        {
          "duration": 0.14705874999999935,
          "durationTicks": 24,
          "midi": 61,
          "name": "C#4",
          "ticks": 5424,
          "time": 33.2352775,
          "velocity": 0.7874015748031497
        },
        {
          "duration": 0.14705874999999935,
          "durationTicks": 24,
          "midi": 61,
          "name": "C#4",
          "ticks": 5448,
          "time": 33.38233625,
          "velocity": 0.7874015748031497
        },
        {
          "duration": 0.14705874999999935,
          "durationTicks": 24,
          "midi": 59,
          "name": "B3",
          "ticks": 5472,
          "time": 33.529395,
          "velocity": 0.7874015748031497
        },
        {
          "duration": 0.14705875000000646,
          "durationTicks": 24,
          "midi": 59,
          "name": "B3",
          "ticks": 5496,
          "time": 33.67645375,
          "velocity": 0.7874015748031497
        },
        {
          "duration": 0.14705874999999935,
          "durationTicks": 24,
          "midi": 66,
          "name": "F#4",
          "ticks": 6528,
          "time": 39.99998000000001,
          "velocity": 0.7874015748031497
        },
        {
          "duration": 0.14705874999999935,
          "durationTicks": 24,
          "midi": 59,
          "name": "B3",
          "ticks": 6528,
          "time": 39.99998000000001,
          "velocity": 0.7874015748031497
        },
        {
          "duration": 0.14705874999999935,
          "durationTicks": 24,
          "midi": 62,
          "name": "D4",
          "ticks": 6528,
          "time": 39.99998000000001,
          "velocity": 0.7874015748031497
        },
        {
          "duration": 0.14705874999999935,
          "durationTicks": 24,
          "midi": 59,
          "name": "B3",
          "ticks": 6552,
          "time": 40.14703875000001,
          "velocity": 0.7874015748031497
        },
        {
          "duration": 0.14705874999999935,
          "durationTicks": 24,
          "midi": 62,
          "name": "D4",
          "ticks": 6552,
          "time": 40.14703875000001,
          "velocity": 0.7874015748031497
        },
        {
          "duration": 0.14705874999999935,
          "durationTicks": 24,
          "midi": 66,
          "name": "F#4",
          "ticks": 6552,
          "time": 40.14703875000001,
          "velocity": 0.7874015748031497
        },
        {
          "duration": 0.2941174999999987,
          "durationTicks": 48,
          "midi": 57,
          "name": "A3",
          "ticks": 6576,
          "time": 40.29409750000001,
          "velocity": 0.7874015748031497
        },
        {
          "duration": 0.2941174999999987,
          "durationTicks": 48,
          "midi": 64,
          "name": "E4",
          "ticks": 6576,
          "time": 40.29409750000001,
          "velocity": 0.7874015748031497
        },
        {
          "duration": 0.2941174999999987,
          "durationTicks": 48,
          "midi": 61,
          "name": "C#4",
          "ticks": 6576,
          "time": 40.29409750000001,
          "velocity": 0.7874015748031497
        },
        {
          "duration": 0.2941174999999987,
          "durationTicks": 48,
          "midi": 62,
          "name": "D4",
          "ticks": 8064,
          "time": 49.41174000000001,
          "velocity": 0.7874015748031497
        },
        {
          "duration": 0.2941174999999987,
          "durationTicks": 48,
          "midi": 64,
          "name": "E4",
          "ticks": 8112,
          "time": 49.70585750000001,
          "velocity": 0.7874015748031497
        },
        {
          "duration": 0.44117624999999805,
          "durationTicks": 72,
          "midi": 65,
          "name": "F4",
          "ticks": 8160,
          "time": 49.999975000000006,
          "velocity": 0.7874015748031497
        },
        {
          "duration": 0.44117624999999805,
          "durationTicks": 72,
          "midi": 64,
          "name": "E4",
          "ticks": 8232,
          "time": 50.441151250000004,
          "velocity": 0.7874015748031497
        },
        {
          "duration": 0.44117625000000515,
          "durationTicks": 72,
          "midi": 65,
          "name": "F4",
          "ticks": 8304,
          "time": 50.8823275,
          "velocity": 0.7874015748031497
        },
        {
          "duration": 0.44117624999999805,
          "durationTicks": 72,
          "midi": 67,
          "name": "G4",
          "ticks": 8376,
          "time": 51.32350375000001,
          "velocity": 0.7874015748031497
        },
        {
          "duration": 0.14705874999999935,
          "durationTicks": 24,
          "midi": 65,
          "name": "F4",
          "ticks": 8448,
          "time": 51.764680000000006,
          "velocity": 0.7874015748031497
        },
        {
          "duration": 0.14705874999999935,
          "durationTicks": 24,
          "midi": 65,
          "name": "F4",
          "ticks": 8472,
          "time": 51.911738750000005,
          "velocity": 0.7874015748031497
        },
        {
          "duration": 0.2941174999999987,
          "durationTicks": 48,
          "midi": 64,
          "name": "E4",
          "ticks": 8496,
          "time": 52.058797500000004,
          "velocity": 0.7874015748031497
        },
        {
          "duration": 0.14705874999999935,
          "durationTicks": 24,
          "midi": 65,
          "name": "F4",
          "ticks": 13440,
          "time": 82.3529,
          "velocity": 0.7874015748031497
        },
        {
          "duration": 0.14705874999999935,
          "durationTicks": 24,
          "midi": 64,
          "name": "E4",
          "ticks": 13464,
          "time": 82.49995875,
          "velocity": 0.7874015748031497
        },
        {
          "duration": 0.14705874999999935,
          "durationTicks": 24,
          "midi": 62,
          "name": "D4",
          "ticks": 13488,
          "time": 82.6470175,
          "velocity": 0.7874015748031497
        },
        {
          "duration": 0.14705874999999935,
          "durationTicks": 24,
          "midi": 64,
          "name": "E4",
          "ticks": 13512,
          "time": 82.79407625,
          "velocity": 0.7874015748031497
        },
        {
          "duration": 0.07352937500000678,
          "durationTicks": 12,
          "midi": 64,
          "name": "E4",
          "ticks": 13824,
          "time": 84.70584000000001,
          "velocity": 0.7874015748031497
        },
        {
          "duration": 0.07352937499999257,
          "durationTicks": 12,
          "midi": 64,
          "name": "E4",
          "ticks": 13836,
          "time": 84.77936937500002,
          "velocity": 0.7874015748031497
        },
        {
          "duration": 0.07352937500000678,
          "durationTicks": 12,
          "midi": 64,
          "name": "E4",
          "ticks": 13848,
          "time": 84.85289875000001,
          "velocity": 0.7874015748031497
        },
        {
          "duration": 0.07352937499999257,
          "durationTicks": 12,
          "midi": 64,
          "name": "E4",
          "ticks": 13860,
          "time": 84.92642812500002,
          "velocity": 0.7874015748031497
        },
        {
          "duration": 0.07352937500000678,
          "durationTicks": 12,
          "midi": 64,
          "name": "E4",
          "ticks": 13872,
          "time": 84.99995750000001,
          "velocity": 0.7874015748031497
        },
        {
          "duration": 0.07352937499999257,
          "durationTicks": 12,
          "midi": 64,
          "name": "E4",
          "ticks": 13884,
          "time": 85.07348687500001,
          "velocity": 0.7874015748031497
        },
        {
          "duration": 0.07352937500000678,
          "durationTicks": 12,
          "midi": 64,
          "name": "E4",
          "ticks": 13896,
          "time": 85.14701625000001,
          "velocity": 0.7874015748031497
        },
        {
          "duration": 0.07352937499999257,
          "durationTicks": 12,
          "midi": 64,
          "name": "E4",
          "ticks": 13908,
          "time": 85.22054562500001,
          "velocity": 0.7874015748031497
        },
        {
          "duration": 0.07352937499999257,
          "durationTicks": 12,
          "midi": 69,
          "name": "A4",
          "ticks": 14832,
          "time": 90.88230750000001,
          "velocity": 0.7874015748031497
        },
        {
          "duration": 0.07352937500000678,
          "durationTicks": 12,
          "midi": 69,
          "name": "A4",
          "ticks": 14844,
          "time": 90.955836875,
          "velocity": 0.7874015748031497
        },
        {
          "duration": 0.07352937500000678,
          "durationTicks": 12,
          "midi": 69,
          "name": "A4",
          "ticks": 14856,
          "time": 91.02936625000001,
          "velocity": 0.7874015748031497
        },
        {
          "duration": 0.07352937499999257,
          "durationTicks": 12,
          "midi": 69,
          "name": "A4",
          "ticks": 14868,
          "time": 91.10289562500002,
          "velocity": 0.7874015748031497
        },
        {
          "duration": 0.07352937500000678,
          "durationTicks": 12,
          "midi": 69,
          "name": "A4",
          "ticks": 14880,
          "time": 91.17642500000001,
          "velocity": 0.7874015748031497
        },
        {
          "duration": 0.07352937499999257,
          "durationTicks": 12,
          "midi": 69,
          "name": "A4",
          "ticks": 14892,
          "time": 91.24995437500002,
          "velocity": 0.7874015748031497
        },
        {
          "duration": 0.07352937500000678,
          "durationTicks": 12,
          "midi": 70,
          "name": "A#4",
          "ticks": 14904,
          "time": 91.32348375000001,
          "velocity": 0.7874015748031497
        },
        {
          "duration": 0.07352937499999257,
          "durationTicks": 12,
          "midi": 70,
          "name": "A#4",
          "ticks": 14916,
          "time": 91.39701312500002,
          "velocity": 0.7874015748031497
        },
        {
          "duration": 0.07352937500000678,
          "durationTicks": 12,
          "midi": 70,
          "name": "A#4",
          "ticks": 14928,
          "time": 91.47054250000001,
          "velocity": 0.7874015748031497
        },
        {
          "duration": 0.07352937499999257,
          "durationTicks": 12,
          "midi": 70,
          "name": "A#4",
          "ticks": 14940,
          "time": 91.54407187500001,
          "velocity": 0.7874015748031497
        },
        {
          "duration": 0.07352937500000678,
          "durationTicks": 12,
          "midi": 70,
          "name": "A#4",
          "ticks": 14952,
          "time": 91.61760125,
          "velocity": 0.7874015748031497
        },
        {
          "duration": 0.07352937499999257,
          "durationTicks": 12,
          "midi": 70,
          "name": "A#4",
          "ticks": 14964,
          "time": 91.69113062500001,
          "velocity": 0.7874015748031497
        },
        {
          "duration": 0.07352937500000678,
          "durationTicks": 12,
          "midi": 60,
          "name": "C4",
          "ticks": 15072,
          "time": 92.352895,
          "velocity": 0.7874015748031497
        },
        {
          "duration": 0.07352937499999257,
          "durationTicks": 12,
          "midi": 60,
          "name": "C4",
          "ticks": 15084,
          "time": 92.42642437500001,
          "velocity": 0.7874015748031497
        },
        {
          "duration": 0.07352937500000678,
          "durationTicks": 12,
          "midi": 60,
          "name": "C4",
          "ticks": 15096,
          "time": 92.49995375,
          "velocity": 0.7874015748031497
        },
        {
          "duration": 0.07352937500000678,
          "durationTicks": 12,
          "midi": 60,
          "name": "C4",
          "ticks": 15108,
          "time": 92.57348312500001,
          "velocity": 0.7874015748031497
        },
        {
          "duration": 0.07352937499999257,
          "durationTicks": 12,
          "midi": 60,
          "name": "C4",
          "ticks": 15120,
          "time": 92.64701250000002,
          "velocity": 0.7874015748031497
        },
        {
          "duration": 0.07352937500000678,
          "durationTicks": 12,
          "midi": 60,
          "name": "C4",
          "ticks": 15132,
          "time": 92.72054187500001,
          "velocity": 0.7874015748031497
        },
        {
          "duration": 0.07352937499999257,
          "durationTicks": 12,
          "midi": 67,
          "name": "G4",
          "ticks": 15144,
          "time": 92.79407125000002,
          "velocity": 0.7874015748031497
        },
        {
          "duration": 0.07352937500000678,
          "durationTicks": 12,
          "midi": 67,
          "name": "G4",
          "ticks": 15156,
          "time": 92.86760062500001,
          "velocity": 0.7874015748031497
        },
        {
          "duration": 0.07352937499999257,
          "durationTicks": 12,
          "midi": 67,
          "name": "G4",
          "ticks": 15168,
          "time": 92.94113000000002,
          "velocity": 0.7874015748031497
        },
        {
          "duration": 0.07352937500000678,
          "durationTicks": 12,
          "midi": 67,
          "name": "G4",
          "ticks": 15180,
          "time": 93.01465937500001,
          "velocity": 0.7874015748031497
        },
        {
          "duration": 0.07352937499999257,
          "durationTicks": 12,
          "midi": 67,
          "name": "G4",
          "ticks": 15192,
          "time": 93.08818875000001,
          "velocity": 0.7874015748031497
        },
        {
          "duration": 0.07352937500000678,
          "durationTicks": 12,
          "midi": 67,
          "name": "G4",
          "ticks": 15204,
          "time": 93.16171812500001,
          "velocity": 0.7874015748031497
        },
        {
          "duration": 0.07352937499999257,
          "durationTicks": 12,
          "midi": 72,
          "name": "C5",
          "ticks": 15216,
          "time": 93.23524750000001,
          "velocity": 0.7874015748031497
        },
        {
          "duration": 0.07352937500000678,
          "durationTicks": 12,
          "midi": 72,
          "name": "C5",
          "ticks": 15228,
          "time": 93.308776875,
          "velocity": 0.7874015748031497
        },
        {
          "duration": 0.07352937499999257,
          "durationTicks": 12,
          "midi": 72,
          "name": "C5",
          "ticks": 15240,
          "time": 93.38230625000001,
          "velocity": 0.7874015748031497
        },
        {
          "duration": 0.07352937500000678,
          "durationTicks": 12,
          "midi": 72,
          "name": "C5",
          "ticks": 15252,
          "time": 93.455835625,
          "velocity": 0.7874015748031497
        },
        {
          "duration": 0.07352937499999257,
          "durationTicks": 12,
          "midi": 74,
          "name": "D5",
          "ticks": 15264,
          "time": 93.52936500000001,
          "velocity": 0.7874015748031497
        },
        {
          "duration": 0.07352937500000678,
          "durationTicks": 12,
          "midi": 74,
          "name": "D5",
          "ticks": 15276,
          "time": 93.602894375,
          "velocity": 0.7874015748031497
        },
        {
          "duration": 0.07352937499999257,
          "durationTicks": 12,
          "midi": 74,
          "name": "D5",
          "ticks": 15288,
          "time": 93.67642375000001,
          "velocity": 0.7874015748031497
        },
        {
          "duration": 0.07352937500000678,
          "durationTicks": 12,
          "midi": 74,
          "name": "D5",
          "ticks": 15300,
          "time": 93.749953125,
          "velocity": 0.7874015748031497
        },
        {
          "duration": 0.07352937499999257,
          "durationTicks": 12,
          "midi": 72,
          "name": "C5",
          "ticks": 15312,
          "time": 93.82348250000001,
          "velocity": 0.7874015748031497
        },
        {
          "duration": 0.07352937500000678,
          "durationTicks": 12,
          "midi": 72,
          "name": "C5",
          "ticks": 15324,
          "time": 93.897011875,
          "velocity": 0.7874015748031497
        },
        {
          "duration": 0.07352937499999257,
          "durationTicks": 12,
          "midi": 72,
          "name": "C5",
          "ticks": 15336,
          "time": 93.97054125000001,
          "velocity": 0.7874015748031497
        },
        {
          "duration": 0.07352937500000678,
          "durationTicks": 12,
          "midi": 72,
          "name": "C5",
          "ticks": 15348,
          "time": 94.044070625,
          "velocity": 0.7874015748031497
        },
        {
          "duration": 0.07352937500000678,
          "durationTicks": 12,
          "midi": 70,
          "name": "A#4",
          "ticks": 15360,
          "time": 94.11760000000001,
          "velocity": 0.7874015748031497
        },
        {
          "duration": 0.07352937499999257,
          "durationTicks": 12,
          "midi": 70,
          "name": "A#4",
          "ticks": 15372,
          "time": 94.19112937500002,
          "velocity": 0.7874015748031497
        },
        {
          "duration": 0.07352937500000678,
          "durationTicks": 12,
          "midi": 70,
          "name": "A#4",
          "ticks": 15384,
          "time": 94.26465875000001,
          "velocity": 0.7874015748031497
        },
        {
          "duration": 0.07352937499999257,
          "durationTicks": 12,
          "midi": 70,
          "name": "A#4",
          "ticks": 15396,
          "time": 94.33818812500002,
          "velocity": 0.7874015748031497
        },
        {
          "duration": 0.07352937500000678,
          "durationTicks": 12,
          "midi": 69,
          "name": "A4",
          "ticks": 15408,
          "time": 94.41171750000001,
          "velocity": 0.7874015748031497
        },
        {
          "duration": 0.07352937499999257,
          "durationTicks": 12,
          "midi": 69,
          "name": "A4",
          "ticks": 15420,
          "time": 94.48524687500002,
          "velocity": 0.7874015748031497
        },
        {
          "duration": 0.07352937500000678,
          "durationTicks": 12,
          "midi": 69,
          "name": "A4",
          "ticks": 15432,
          "time": 94.55877625000001,
          "velocity": 0.7874015748031497
        },
        {
          "duration": 0.07352937499999257,
          "durationTicks": 12,
          "midi": 69,
          "name": "A4",
          "ticks": 15444,
          "time": 94.63230562500001,
          "velocity": 0.7874015748031497
        },
        {
          "duration": 0.07352937499999257,
          "durationTicks": 12,
          "midi": 72,
          "name": "C5",
          "ticks": 16368,
          "time": 100.29406750000001,
          "velocity": 0.7874015748031497
        },
        {
          "duration": 0.07352937500000678,
          "durationTicks": 12,
          "midi": 72,
          "name": "C5",
          "ticks": 16380,
          "time": 100.367596875,
          "velocity": 0.7874015748031497
        },
        {
          "duration": 0.07352937500000678,
          "durationTicks": 12,
          "midi": 72,
          "name": "C5",
          "ticks": 16392,
          "time": 100.44112625000001,
          "velocity": 0.7874015748031497
        },
        {
          "duration": 0.07352937499999257,
          "durationTicks": 12,
          "midi": 72,
          "name": "C5",
          "ticks": 16404,
          "time": 100.51465562500002,
          "velocity": 0.7874015748031497
        },
        {
          "duration": 0.07352937500000678,
          "durationTicks": 12,
          "midi": 72,
          "name": "C5",
          "ticks": 16416,
          "time": 100.58818500000001,
          "velocity": 0.7874015748031497
        },
        {
          "duration": 0.07352937499999257,
          "durationTicks": 12,
          "midi": 72,
          "name": "C5",
          "ticks": 16428,
          "time": 100.66171437500002,
          "velocity": 0.7874015748031497
        },
        {
          "duration": 0.07352937500000678,
          "durationTicks": 12,
          "midi": 74,
          "name": "D5",
          "ticks": 16440,
          "time": 100.73524375000001,
          "velocity": 0.7874015748031497
        },
        {
          "duration": 0.07352937499999257,
          "durationTicks": 12,
          "midi": 74,
          "name": "D5",
          "ticks": 16452,
          "time": 100.80877312500002,
          "velocity": 0.7874015748031497
        },
        {
          "duration": 0.07352937500000678,
          "durationTicks": 12,
          "midi": 74,
          "name": "D5",
          "ticks": 16464,
          "time": 100.88230250000001,
          "velocity": 0.7874015748031497
        },
        {
          "duration": 0.07352937499999257,
          "durationTicks": 12,
          "midi": 74,
          "name": "D5",
          "ticks": 16476,
          "time": 100.95583187500002,
          "velocity": 0.7874015748031497
        },
        {
          "duration": 0.07352937500000678,
          "durationTicks": 12,
          "midi": 74,
          "name": "D5",
          "ticks": 16488,
          "time": 101.02936125000001,
          "velocity": 0.7874015748031497
        },
        {
          "duration": 0.07352937499999257,
          "durationTicks": 12,
          "midi": 74,
          "name": "D5",
          "ticks": 16500,
          "time": 101.10289062500001,
          "velocity": 0.7874015748031497
        },
        {
          "duration": 0.07352937500000678,
          "durationTicks": 12,
          "midi": 60,
          "name": "C4",
          "ticks": 16608,
          "time": 101.764655,
          "velocity": 0.7874015748031497
        },
        {
          "duration": 0.07352937499999257,
          "durationTicks": 12,
          "midi": 60,
          "name": "C4",
          "ticks": 16620,
          "time": 101.83818437500001,
          "velocity": 0.7874015748031497
        },
        {
          "duration": 0.07352937500000678,
          "durationTicks": 12,
          "midi": 60,
          "name": "C4",
          "ticks": 16632,
          "time": 101.91171375,
          "velocity": 0.7874015748031497
        },
        {
          "duration": 0.07352937500000678,
          "durationTicks": 12,
          "midi": 60,
          "name": "C4",
          "ticks": 16644,
          "time": 101.98524312500001,
          "velocity": 0.7874015748031497
        },
        {
          "duration": 0.07352937499999257,
          "durationTicks": 12,
          "midi": 60,
          "name": "C4",
          "ticks": 16656,
          "time": 102.05877250000002,
          "velocity": 0.7874015748031497
        },
        {
          "duration": 0.07352937500000678,
          "durationTicks": 12,
          "midi": 60,
          "name": "C4",
          "ticks": 16668,
          "time": 102.13230187500001,
          "velocity": 0.7874015748031497
        },
        {
          "duration": 0.07352937499999257,
          "durationTicks": 12,
          "midi": 67,
          "name": "G4",
          "ticks": 16680,
          "time": 102.20583125000002,
          "velocity": 0.7874015748031497
        },
        {
          "duration": 0.07352937500000678,
          "durationTicks": 12,
          "midi": 67,
          "name": "G4",
          "ticks": 16692,
          "time": 102.27936062500001,
          "velocity": 0.7874015748031497
        },
        {
          "duration": 0.07352937499999257,
          "durationTicks": 12,
          "midi": 67,
          "name": "G4",
          "ticks": 16704,
          "time": 102.35289000000002,
          "velocity": 0.7874015748031497
        },
        {
          "duration": 0.07352937500000678,
          "durationTicks": 12,
          "midi": 67,
          "name": "G4",
          "ticks": 16716,
          "time": 102.42641937500001,
          "velocity": 0.7874015748031497
        },
        {
          "duration": 0.07352937499999257,
          "durationTicks": 12,
          "midi": 67,
          "name": "G4",
          "ticks": 16728,
          "time": 102.49994875000002,
          "velocity": 0.7874015748031497
        },
        {
          "duration": 0.07352937500000678,
          "durationTicks": 12,
          "midi": 67,
          "name": "G4",
          "ticks": 16740,
          "time": 102.57347812500001,
          "velocity": 0.7874015748031497
        },
        {
          "duration": 0.07352937499999257,
          "durationTicks": 12,
          "midi": 72,
          "name": "C5",
          "ticks": 16752,
          "time": 102.64700750000002,
          "velocity": 0.7874015748031497
        },
        {
          "duration": 0.07352937500000678,
          "durationTicks": 12,
          "midi": 72,
          "name": "C5",
          "ticks": 16764,
          "time": 102.72053687500001,
          "velocity": 0.7874015748031497
        },
        {
          "duration": 0.07352937499999257,
          "durationTicks": 12,
          "midi": 72,
          "name": "C5",
          "ticks": 16776,
          "time": 102.79406625000001,
          "velocity": 0.7874015748031497
        },
        {
          "duration": 0.07352937500000678,
          "durationTicks": 12,
          "midi": 72,
          "name": "C5",
          "ticks": 16788,
          "time": 102.867595625,
          "velocity": 0.7874015748031497
        },
        {
          "duration": 0.07352937499999257,
          "durationTicks": 12,
          "midi": 74,
          "name": "D5",
          "ticks": 16800,
          "time": 102.94112500000001,
          "velocity": 0.7874015748031497
        },
        {
          "duration": 0.07352937499999257,
          "durationTicks": 12,
          "midi": 69,
          "name": "A4",
          "ticks": 16800,
          "time": 102.94112500000001,
          "velocity": 0.7874015748031497
        },
        {
          "duration": 0.07352937500000678,
          "durationTicks": 12,
          "midi": 74,
          "name": "D5",
          "ticks": 16812,
          "time": 103.014654375,
          "velocity": 0.7874015748031497
        },
        {
          "duration": 0.07352937500000678,
          "durationTicks": 12,
          "midi": 69,
          "name": "A4",
          "ticks": 16812,
          "time": 103.014654375,
          "velocity": 0.7874015748031497
        },
        {
          "duration": 0.07352937499999257,
          "durationTicks": 12,
          "midi": 74,
          "name": "D5",
          "ticks": 16824,
          "time": 103.08818375000001,
          "velocity": 0.7874015748031497
        },
        {
          "duration": 0.07352937499999257,
          "durationTicks": 12,
          "midi": 69,
          "name": "A4",
          "ticks": 16824,
          "time": 103.08818375000001,
          "velocity": 0.7874015748031497
        },
        {
          "duration": 0.07352937500000678,
          "durationTicks": 12,
          "midi": 69,
          "name": "A4",
          "ticks": 16836,
          "time": 103.161713125,
          "velocity": 0.7874015748031497
        },
        {
          "duration": 0.07352937500000678,
          "durationTicks": 12,
          "midi": 74,
          "name": "D5",
          "ticks": 16836,
          "time": 103.161713125,
          "velocity": 0.7874015748031497
        },
        {
          "duration": 0.07352937499999257,
          "durationTicks": 12,
          "midi": 67,
          "name": "G4",
          "ticks": 16848,
          "time": 103.23524250000001,
          "velocity": 0.7874015748031497
        },
        {
          "duration": 0.07352937499999257,
          "durationTicks": 12,
          "midi": 72,
          "name": "C5",
          "ticks": 16848,
          "time": 103.23524250000001,
          "velocity": 0.7874015748031497
        },
        {
          "duration": 0.07352937500000678,
          "durationTicks": 12,
          "midi": 72,
          "name": "C5",
          "ticks": 16860,
          "time": 103.308771875,
          "velocity": 0.7874015748031497
        },
        {
          "duration": 0.07352937500000678,
          "durationTicks": 12,
          "midi": 67,
          "name": "G4",
          "ticks": 16860,
          "time": 103.308771875,
          "velocity": 0.7874015748031497
        },
        {
          "duration": 0.07352937499999257,
          "durationTicks": 12,
          "midi": 72,
          "name": "C5",
          "ticks": 16872,
          "time": 103.38230125000001,
          "velocity": 0.7874015748031497
        },
        {
          "duration": 0.07352937499999257,
          "durationTicks": 12,
          "midi": 67,
          "name": "G4",
          "ticks": 16872,
          "time": 103.38230125000001,
          "velocity": 0.7874015748031497
        },
        {
          "duration": 0.07352937500000678,
          "durationTicks": 12,
          "midi": 67,
          "name": "G4",
          "ticks": 16884,
          "time": 103.455830625,
          "velocity": 0.7874015748031497
        },
        {
          "duration": 0.07352937500000678,
          "durationTicks": 12,
          "midi": 72,
          "name": "C5",
          "ticks": 16884,
          "time": 103.455830625,
          "velocity": 0.7874015748031497
        },
        {
          "duration": 0.07352937500000678,
          "durationTicks": 12,
          "midi": 65,
          "name": "F4",
          "ticks": 16896,
          "time": 103.52936000000001,
          "velocity": 0.7874015748031497
        },
        {
          "duration": 0.07352937500000678,
          "durationTicks": 12,
          "midi": 70,
          "name": "A#4",
          "ticks": 16896,
          "time": 103.52936000000001,
          "velocity": 0.7874015748031497
        },
        {
          "duration": 0.07352937499999257,
          "durationTicks": 12,
          "midi": 65,
          "name": "F4",
          "ticks": 16908,
          "time": 103.60288937500002,
          "velocity": 0.7874015748031497
        },
        {
          "duration": 0.07352937499999257,
          "durationTicks": 12,
          "midi": 70,
          "name": "A#4",
          "ticks": 16908,
          "time": 103.60288937500002,
          "velocity": 0.7874015748031497
        },
        {
          "duration": 0.07352937500000678,
          "durationTicks": 12,
          "midi": 65,
          "name": "F4",
          "ticks": 16920,
          "time": 103.67641875000001,
          "velocity": 0.7874015748031497
        },
        {
          "duration": 0.07352937500000678,
          "durationTicks": 12,
          "midi": 70,
          "name": "A#4",
          "ticks": 16920,
          "time": 103.67641875000001,
          "velocity": 0.7874015748031497
        },
        {
          "duration": 0.07352937499999257,
          "durationTicks": 12,
          "midi": 65,
          "name": "F4",
          "ticks": 16932,
          "time": 103.74994812500002,
          "velocity": 0.7874015748031497
        },
        {
          "duration": 0.07352937499999257,
          "durationTicks": 12,
          "midi": 70,
          "name": "A#4",
          "ticks": 16932,
          "time": 103.74994812500002,
          "velocity": 0.7874015748031497
        },
        {
          "duration": 0.07352937500000678,
          "durationTicks": 12,
          "midi": 69,
          "name": "A4",
          "ticks": 16944,
          "time": 103.82347750000001,
          "velocity": 0.7874015748031497
        },
        {
          "duration": 0.07352937500000678,
          "durationTicks": 12,
          "midi": 64,
          "name": "E4",
          "ticks": 16944,
          "time": 103.82347750000001,
          "velocity": 0.7874015748031497
        },
        {
          "duration": 0.07352937499999257,
          "durationTicks": 12,
          "midi": 69,
          "name": "A4",
          "ticks": 16956,
          "time": 103.89700687500002,
          "velocity": 0.7874015748031497
        },
        {
          "duration": 0.07352937499999257,
          "durationTicks": 12,
          "midi": 64,
          "name": "E4",
          "ticks": 16956,
          "time": 103.89700687500002,
          "velocity": 0.7874015748031497
        },
        {
          "duration": 0.07352937500000678,
          "durationTicks": 12,
          "midi": 64,
          "name": "E4",
          "ticks": 16968,
          "time": 103.97053625000001,
          "velocity": 0.7874015748031497
        },
        {
          "duration": 0.07352937500000678,
          "durationTicks": 12,
          "midi": 69,
          "name": "A4",
          "ticks": 16968,
          "time": 103.97053625000001,
          "velocity": 0.7874015748031497
        },
        {
          "duration": 0.07352937499999257,
          "durationTicks": 12,
          "midi": 64,
          "name": "E4",
          "ticks": 16980,
          "time": 104.04406562500002,
          "velocity": 0.7874015748031497
        },
        {
          "duration": 0.07352937499999257,
          "durationTicks": 12,
          "midi": 69,
          "name": "A4",
          "ticks": 16980,
          "time": 104.04406562500002,
          "velocity": 0.7874015748031497
        },
        {
          "duration": 0.14705875000001356,
          "durationTicks": 24,
          "midi": 70,
          "name": "A#4",
          "ticks": 21504,
          "time": 131.76464,
          "velocity": 0.7874015748031497
        },
        {
          "duration": 0.14705874999998514,
          "durationTicks": 24,
          "midi": 70,
          "name": "A#4",
          "ticks": 21528,
          "time": 131.91169875000003,
          "velocity": 0.7874015748031497
        },
        {
          "duration": 0.2941174999999987,
          "durationTicks": 48,
          "midi": 69,
          "name": "A4",
          "ticks": 21552,
          "time": 132.0587575,
          "velocity": 0.7874015748031497
        },
        {
          "duration": 0.8823524999999961,
          "durationTicks": 144,
          "midi": 70,
          "name": "A#4",
          "ticks": 21600,
          "time": 132.352875,
          "velocity": 0.7874015748031497
        },
        {
          "duration": 0.8823524999999961,
          "durationTicks": 144,
          "midi": 67,
          "name": "G4",
          "ticks": 21744,
          "time": 133.2352275,
          "velocity": 0.7874015748031497
        },
        {
          "duration": 0.2941174999999987,
          "durationTicks": 48,
          "midi": 67,
          "name": "G4",
          "ticks": 21888,
          "time": 134.11758,
          "velocity": 0.7874015748031497
        },
        {
          "duration": 0.2941174999999987,
          "durationTicks": 48,
          "midi": 69,
          "name": "A4",
          "ticks": 21936,
          "time": 134.4116975,
          "velocity": 0.7874015748031497
        },
        {
          "duration": 0.8823525000000245,
          "durationTicks": 144,
          "midi": 70,
          "name": "A#4",
          "ticks": 21984,
          "time": 134.705815,
          "velocity": 0.7874015748031497
        },
        {
          "duration": 0.8823524999999961,
          "durationTicks": 144,
          "midi": 67,
          "name": "G4",
          "ticks": 22128,
          "time": 135.58816750000003,
          "velocity": 0.7874015748031497
        },
        {
          "duration": 0.2941174999999987,
          "durationTicks": 48,
          "midi": 69,
          "name": "A4",
          "ticks": 22272,
          "time": 136.47052000000002,
          "velocity": 0.7874015748031497
        },
        {
          "duration": 0.2941174999999987,
          "durationTicks": 48,
          "midi": 70,
          "name": "A#4",
          "ticks": 22320,
          "time": 136.76463750000002,
          "velocity": 0.7874015748031497
        },
        {
          "duration": 0.8823524999999961,
          "durationTicks": 144,
          "midi": 74,
          "name": "D5",
          "ticks": 22368,
          "time": 137.05875500000002,
          "velocity": 0.7874015748031497
        },
        {
          "duration": 1.1764699999999948,
          "durationTicks": 192,
          "midi": 72,
          "name": "C5",
          "ticks": 22512,
          "time": 137.94110750000002,
          "velocity": 0.7874015748031497
        },
        {
          "duration": 0.2941174999999987,
          "durationTicks": 48,
          "midi": 70,
          "name": "A#4",
          "ticks": 22704,
          "time": 139.1175775,
          "velocity": 0.7874015748031497
        },
        {
          "duration": 0.8823524999999961,
          "durationTicks": 144,
          "midi": 72,
          "name": "C5",
          "ticks": 22752,
          "time": 139.411695,
          "velocity": 0.7874015748031497
        },
        {
          "duration": 0.8823524999999961,
          "durationTicks": 144,
          "midi": 70,
          "name": "A#4",
          "ticks": 22896,
          "time": 140.2940475,
          "velocity": 0.7874015748031497
        },
        {
          "duration": 0.5882350000000258,
          "durationTicks": 96,
          "midi": 69,
          "name": "A4",
          "ticks": 23040,
          "time": 141.1764,
          "velocity": 0.7874015748031497
        },
        {
          "duration": 0.8823524999999961,
          "durationTicks": 144,
          "midi": 70,
          "name": "A#4",
          "ticks": 23136,
          "time": 141.76463500000003,
          "velocity": 0.7874015748031497
        },
        {
          "duration": 0.8823524999999961,
          "durationTicks": 144,
          "midi": 67,
          "name": "G4",
          "ticks": 23280,
          "time": 142.64698750000002,
          "velocity": 0.7874015748031497
        },
        {
          "duration": 0.2941174999999987,
          "durationTicks": 48,
          "midi": 67,
          "name": "G4",
          "ticks": 23424,
          "time": 143.52934000000002,
          "velocity": 0.7874015748031497
        },
        {
          "duration": 0.2941174999999987,
          "durationTicks": 48,
          "midi": 69,
          "name": "A4",
          "ticks": 23472,
          "time": 143.82345750000002,
          "velocity": 0.7874015748031497
        },
        {
          "duration": 0.8823524999999961,
          "durationTicks": 144,
          "midi": 70,
          "name": "A#4",
          "ticks": 23520,
          "time": 144.11757500000002,
          "velocity": 0.7874015748031497
        },
        {
          "duration": 0.8823524999999961,
          "durationTicks": 144,
          "midi": 67,
          "name": "G4",
          "ticks": 23664,
          "time": 144.9999275,
          "velocity": 0.7874015748031497
        },
        {
          "duration": 0.2941174999999987,
          "durationTicks": 48,
          "midi": 69,
          "name": "A4",
          "ticks": 23808,
          "time": 145.88228,
          "velocity": 0.7874015748031497
        },
        {
          "duration": 0.2941174999999987,
          "durationTicks": 48,
          "midi": 70,
          "name": "A#4",
          "ticks": 23856,
          "time": 146.1763975,
          "velocity": 0.7874015748031497
        },
        {
          "duration": 0.8823524999999961,
          "durationTicks": 144,
          "midi": 74,
          "name": "D5",
          "ticks": 23904,
          "time": 146.470515,
          "velocity": 0.7874015748031497
        },
        {
          "duration": 1.1764700000000232,
          "durationTicks": 192,
          "midi": 72,
          "name": "C5",
          "ticks": 24048,
          "time": 147.3528675,
          "velocity": 0.7874015748031497
        },
        {
          "duration": 0.2941174999999987,
          "durationTicks": 48,
          "midi": 70,
          "name": "A#4",
          "ticks": 24240,
          "time": 148.52933750000003,
          "velocity": 0.7874015748031497
        },
        {
          "duration": 0.8823524999999961,
          "durationTicks": 144,
          "midi": 72,
          "name": "C5",
          "ticks": 24288,
          "time": 148.82345500000002,
          "velocity": 0.7874015748031497
        },
        {
          "duration": 0.8823524999999961,
          "durationTicks": 144,
          "midi": 69,
          "name": "A4",
          "ticks": 24432,
          "time": 149.70580750000002,
          "velocity": 0.7874015748031497
        },
        {
          "duration": 0.5882349999999974,
          "durationTicks": 96,
          "midi": 72,
          "name": "C5",
          "ticks": 24576,
          "time": 150.58816000000002,
          "velocity": 0.7874015748031497
        },
        {
          "duration": 1.7647049999999922,
          "durationTicks": 288,
          "midi": 71,
          "name": "B4",
          "ticks": 24672,
          "time": 151.176395,
          "velocity": 0.7874015748031497
        },
        {
          "duration": 0.14705875000001356,
          "durationTicks": 24,
          "midi": 55,
          "name": "G3",
          "ticks": 25824,
          "time": 158.235215,
          "velocity": 0.7874015748031497
        },
        {
          "duration": 0.14705874999998514,
          "durationTicks": 24,
          "midi": 55,
          "name": "G3",
          "ticks": 25848,
          "time": 158.38227375000002,
          "velocity": 0.7874015748031497
        },
        {
          "duration": 0.14705875000001356,
          "durationTicks": 24,
          "midi": 55,
          "name": "G3",
          "ticks": 25872,
          "time": 158.5293325,
          "velocity": 0.7874015748031497
        },
        {
          "duration": 0.14705874999998514,
          "durationTicks": 24,
          "midi": 57,
          "name": "A3",
          "ticks": 25896,
          "time": 158.67639125000002,
          "velocity": 0.7874015748031497
        },
        {
          "duration": 0.14705875000001356,
          "durationTicks": 24,
          "midi": 57,
          "name": "A3",
          "ticks": 25920,
          "time": 158.82345,
          "velocity": 0.7874015748031497
        },
        {
          "duration": 0.14705874999998514,
          "durationTicks": 24,
          "midi": 57,
          "name": "A3",
          "ticks": 25944,
          "time": 158.97050875000002,
          "velocity": 0.7874015748031497
        },
        {
          "duration": 0.14705875000001356,
          "durationTicks": 24,
          "midi": 59,
          "name": "B3",
          "ticks": 25968,
          "time": 159.1175675,
          "velocity": 0.7874015748031497
        },
        {
          "duration": 0.14705874999998514,
          "durationTicks": 24,
          "midi": 59,
          "name": "B3",
          "ticks": 25992,
          "time": 159.26462625000002,
          "velocity": 0.7874015748031497
        },
        {
          "duration": 0.14705875000001356,
          "durationTicks": 24,
          "midi": 59,
          "name": "B3",
          "ticks": 26016,
          "time": 159.411685,
          "velocity": 0.7874015748031497
        },
        {
          "duration": 0.14705874999998514,
          "durationTicks": 24,
          "midi": 61,
          "name": "C#4",
          "ticks": 26040,
          "time": 159.55874375000002,
          "velocity": 0.7874015748031497
        },
        {
          "duration": 0.14705875000001356,
          "durationTicks": 24,
          "midi": 61,
          "name": "C#4",
          "ticks": 26064,
          "time": 159.7058025,
          "velocity": 0.7874015748031497
        },
        {
          "duration": 0.14705875000001356,
          "durationTicks": 24,
          "midi": 61,
          "name": "C#4",
          "ticks": 26088,
          "time": 159.85286125000002,
          "velocity": 0.7874015748031497
        },
        {
          "duration": 0.14705874999998514,
          "durationTicks": 24,
          "midi": 62,
          "name": "D4",
          "ticks": 26112,
          "time": 159.99992000000003,
          "velocity": 0.7874015748031497
        },
        {
          "duration": 0.14705875000001356,
          "durationTicks": 24,
          "midi": 62,
          "name": "D4",
          "ticks": 26136,
          "time": 160.14697875000002,
          "velocity": 0.7874015748031497
        },
        {
          "duration": 0.14705874999998514,
          "durationTicks": 24,
          "midi": 61,
          "name": "C#4",
          "ticks": 26160,
          "time": 160.29403750000003,
          "velocity": 0.7874015748031497
        },
        {
          "duration": 0.14705875000001356,
          "durationTicks": 24,
          "midi": 61,
          "name": "C#4",
          "ticks": 26184,
          "time": 160.44109625000002,
          "velocity": 0.7874015748031497
        },
        {
          "duration": 0.14705874999998514,
          "durationTicks": 24,
          "midi": 59,
          "name": "B3",
          "ticks": 26208,
          "time": 160.58815500000003,
          "velocity": 0.7874015748031497
        },
        {
          "duration": 0.14705875000001356,
          "durationTicks": 24,
          "midi": 59,
          "name": "B3",
          "ticks": 26232,
          "time": 160.73521375,
          "velocity": 0.7874015748031497
        },
        {
          "duration": 0.14705874999998514,
          "durationTicks": 24,
          "midi": 66,
          "name": "F#4",
          "ticks": 27264,
          "time": 167.05874000000003,
          "velocity": 0.7874015748031497
        },
        {
          "duration": 0.14705874999998514,
          "durationTicks": 24,
          "midi": 59,
          "name": "B3",
          "ticks": 27264,
          "time": 167.05874000000003,
          "velocity": 0.7874015748031497
        },
        {
          "duration": 0.14705874999998514,
          "durationTicks": 24,
          "midi": 62,
          "name": "D4",
          "ticks": 27264,
          "time": 167.05874000000003,
          "velocity": 0.7874015748031497
        },
        {
          "duration": 0.14705875000001356,
          "durationTicks": 24,
          "midi": 59,
          "name": "B3",
          "ticks": 27288,
          "time": 167.20579875,
          "velocity": 0.7874015748031497
        },
        {
          "duration": 0.14705875000001356,
          "durationTicks": 24,
          "midi": 62,
          "name": "D4",
          "ticks": 27288,
          "time": 167.20579875,
          "velocity": 0.7874015748031497
        },
        {
          "duration": 0.14705875000001356,
          "durationTicks": 24,
          "midi": 66,
          "name": "F#4",
          "ticks": 27288,
          "time": 167.20579875,
          "velocity": 0.7874015748031497
        },
        {
          "duration": 0.2941174999999987,
          "durationTicks": 48,
          "midi": 57,
          "name": "A3",
          "ticks": 27312,
          "time": 167.35285750000003,
          "velocity": 0.7874015748031497
        },
        {
          "duration": 0.2941174999999987,
          "durationTicks": 48,
          "midi": 64,
          "name": "E4",
          "ticks": 27312,
          "time": 167.35285750000003,
          "velocity": 0.7874015748031497
        },
        {
          "duration": 0.2941174999999987,
          "durationTicks": 48,
          "midi": 61,
          "name": "C#4",
          "ticks": 27312,
          "time": 167.35285750000003,
          "velocity": 0.7874015748031497
        },
        {
          "duration": 0.2941174999999987,
          "durationTicks": 48,
          "midi": 62,
          "name": "D4",
          "ticks": 28800,
          "time": 176.47050000000002,
          "velocity": 0.7874015748031497
        },
        {
          "duration": 0.2941174999999987,
          "durationTicks": 48,
          "midi": 64,
          "name": "E4",
          "ticks": 28848,
          "time": 176.7646175,
          "velocity": 0.7874015748031497
        },
        {
          "duration": 0.44117625000001226,
          "durationTicks": 72,
          "midi": 65,
          "name": "F4",
          "ticks": 28896,
          "time": 177.058735,
          "velocity": 0.7874015748031497
        },
        {
          "duration": 0.44117624999998384,
          "durationTicks": 72,
          "midi": 64,
          "name": "E4",
          "ticks": 28968,
          "time": 177.49991125000003,
          "velocity": 0.7874015748031497
        },
        {
          "duration": 0.44117625000001226,
          "durationTicks": 72,
          "midi": 65,
          "name": "F4",
          "ticks": 29040,
          "time": 177.9410875,
          "velocity": 0.7874015748031497
        },
        {
          "duration": 0.44117624999998384,
          "durationTicks": 72,
          "midi": 67,
          "name": "G4",
          "ticks": 29112,
          "time": 178.38226375000002,
          "velocity": 0.7874015748031497
        },
        {
          "duration": 0.14705875000001356,
          "durationTicks": 24,
          "midi": 65,
          "name": "F4",
          "ticks": 29184,
          "time": 178.82344,
          "velocity": 0.7874015748031497
        },
        {
          "duration": 0.14705875000001356,
          "durationTicks": 24,
          "midi": 65,
          "name": "F4",
          "ticks": 29208,
          "time": 178.97049875000002,
          "velocity": 0.7874015748031497
        },
        {
          "duration": 0.2941174999999987,
          "durationTicks": 48,
          "midi": 64,
          "name": "E4",
          "ticks": 29232,
          "time": 179.11755750000003,
          "velocity": 0.7874015748031497
        },
        {
          "duration": 0.14705875000001356,
          "durationTicks": 24,
          "midi": 65,
          "name": "F4",
          "ticks": 34176,
          "time": 209.41166,
          "velocity": 0.7874015748031497
        },
        {
          "duration": 0.14705874999998514,
          "durationTicks": 24,
          "midi": 64,
          "name": "E4",
          "ticks": 34200,
          "time": 209.55871875000003,
          "velocity": 0.7874015748031497
        },
        {
          "duration": 0.14705875000001356,
          "durationTicks": 24,
          "midi": 62,
          "name": "D4",
          "ticks": 34224,
          "time": 209.7057775,
          "velocity": 0.7874015748031497
        },
        {
          "duration": 0.14705874999998514,
          "durationTicks": 24,
          "midi": 64,
          "name": "E4",
          "ticks": 34248,
          "time": 209.85283625000002,
          "velocity": 0.7874015748031497
        },
        {
          "duration": 0.07352937499999257,
          "durationTicks": 12,
          "midi": 64,
          "name": "E4",
          "ticks": 34560,
          "time": 211.76460000000003,
          "velocity": 0.7874015748031497
        },
        {
          "duration": 0.07352937499999257,
          "durationTicks": 12,
          "midi": 64,
          "name": "E4",
          "ticks": 34572,
          "time": 211.83812937500002,
          "velocity": 0.7874015748031497
        },
        {
          "duration": 0.07352937500002099,
          "durationTicks": 12,
          "midi": 64,
          "name": "E4",
          "ticks": 34584,
          "time": 211.91165875000002,
          "velocity": 0.7874015748031497
        },
        {
          "duration": 0.07352937499999257,
          "durationTicks": 12,
          "midi": 64,
          "name": "E4",
          "ticks": 34596,
          "time": 211.98518812500004,
          "velocity": 0.7874015748031497
        },
        {
          "duration": 0.07352937499999257,
          "durationTicks": 12,
          "midi": 64,
          "name": "E4",
          "ticks": 34608,
          "time": 212.05871750000003,
          "velocity": 0.7874015748031497
        },
        {
          "duration": 0.07352937499999257,
          "durationTicks": 12,
          "midi": 64,
          "name": "E4",
          "ticks": 34620,
          "time": 212.13224687500002,
          "velocity": 0.7874015748031497
        },
        {
          "duration": 0.07352937500002099,
          "durationTicks": 12,
          "midi": 64,
          "name": "E4",
          "ticks": 34632,
          "time": 212.20577625,
          "velocity": 0.7874015748031497
        },
        {
          "duration": 0.07352937499999257,
          "durationTicks": 12,
          "midi": 64,
          "name": "E4",
          "ticks": 34644,
          "time": 212.27930562500003,
          "velocity": 0.7874015748031497
        },
        {
          "duration": 0.07352937499999257,
          "durationTicks": 12,
          "midi": 69,
          "name": "A4",
          "ticks": 35568,
          "time": 217.94106750000003,
          "velocity": 0.7874015748031497
        },
        {
          "duration": 0.07352937499999257,
          "durationTicks": 12,
          "midi": 69,
          "name": "A4",
          "ticks": 35580,
          "time": 218.01459687500002,
          "velocity": 0.7874015748031497
        },
        {
          "duration": 0.07352937500002099,
          "durationTicks": 12,
          "midi": 69,
          "name": "A4",
          "ticks": 35592,
          "time": 218.08812625000002,
          "velocity": 0.7874015748031497
        },
        {
          "duration": 0.07352937499999257,
          "durationTicks": 12,
          "midi": 69,
          "name": "A4",
          "ticks": 35604,
          "time": 218.16165562500004,
          "velocity": 0.7874015748031497
        },
        {
          "duration": 0.07352937499999257,
          "durationTicks": 12,
          "midi": 69,
          "name": "A4",
          "ticks": 35616,
          "time": 218.23518500000003,
          "velocity": 0.7874015748031497
        },
        {
          "duration": 0.07352937499999257,
          "durationTicks": 12,
          "midi": 69,
          "name": "A4",
          "ticks": 35628,
          "time": 218.30871437500002,
          "velocity": 0.7874015748031497
        },
        {
          "duration": 0.07352937500002099,
          "durationTicks": 12,
          "midi": 70,
          "name": "A#4",
          "ticks": 35640,
          "time": 218.38224375000001,
          "velocity": 0.7874015748031497
        },
        {
          "duration": 0.07352937499999257,
          "durationTicks": 12,
          "midi": 70,
          "name": "A#4",
          "ticks": 35652,
          "time": 218.45577312500004,
          "velocity": 0.7874015748031497
        },
        {
          "duration": 0.07352937499999257,
          "durationTicks": 12,
          "midi": 70,
          "name": "A#4",
          "ticks": 35664,
          "time": 218.52930250000003,
          "velocity": 0.7874015748031497
        },
        {
          "duration": 0.07352937499999257,
          "durationTicks": 12,
          "midi": 70,
          "name": "A#4",
          "ticks": 35676,
          "time": 218.60283187500002,
          "velocity": 0.7874015748031497
        },
        {
          "duration": 0.07352937500002099,
          "durationTicks": 12,
          "midi": 70,
          "name": "A#4",
          "ticks": 35688,
          "time": 218.67636125,
          "velocity": 0.7874015748031497
        },
        {
          "duration": 0.07352937499999257,
          "durationTicks": 12,
          "midi": 70,
          "name": "A#4",
          "ticks": 35700,
          "time": 218.74989062500003,
          "velocity": 0.7874015748031497
        },
        {
          "duration": 0.07352937499999257,
          "durationTicks": 12,
          "midi": 60,
          "name": "C4",
          "ticks": 35808,
          "time": 219.41165500000002,
          "velocity": 0.7874015748031497
        },
        {
          "duration": 0.07352937499999257,
          "durationTicks": 12,
          "midi": 60,
          "name": "C4",
          "ticks": 35820,
          "time": 219.48518437500002,
          "velocity": 0.7874015748031497
        },
        {
          "duration": 0.07352937500002099,
          "durationTicks": 12,
          "midi": 60,
          "name": "C4",
          "ticks": 35832,
          "time": 219.55871375,
          "velocity": 0.7874015748031497
        },
        {
          "duration": 0.07352937499999257,
          "durationTicks": 12,
          "midi": 60,
          "name": "C4",
          "ticks": 35844,
          "time": 219.63224312500003,
          "velocity": 0.7874015748031497
        },
        {
          "duration": 0.07352937499999257,
          "durationTicks": 12,
          "midi": 60,
          "name": "C4",
          "ticks": 35856,
          "time": 219.70577250000002,
          "velocity": 0.7874015748031497
        },
        {
          "duration": 0.07352937500002099,
          "durationTicks": 12,
          "midi": 60,
          "name": "C4",
          "ticks": 35868,
          "time": 219.77930187500002,
          "velocity": 0.7874015748031497
        },
        {
          "duration": 0.07352937499999257,
          "durationTicks": 12,
          "midi": 67,
          "name": "G4",
          "ticks": 35880,
          "time": 219.85283125000004,
          "velocity": 0.7874015748031497
        },
        {
          "duration": 0.07352937499999257,
          "durationTicks": 12,
          "midi": 67,
          "name": "G4",
          "ticks": 35892,
          "time": 219.92636062500003,
          "velocity": 0.7874015748031497
        },
        {
          "duration": 0.07352937499999257,
          "durationTicks": 12,
          "midi": 67,
          "name": "G4",
          "ticks": 35904,
          "time": 219.99989000000002,
          "velocity": 0.7874015748031497
        },
        {
          "duration": 0.07352937500002099,
          "durationTicks": 12,
          "midi": 67,
          "name": "G4",
          "ticks": 35916,
          "time": 220.07341937500001,
          "velocity": 0.7874015748031497
        },
        {
          "duration": 0.07352937499999257,
          "durationTicks": 12,
          "midi": 67,
          "name": "G4",
          "ticks": 35928,
          "time": 220.14694875000004,
          "velocity": 0.7874015748031497
        },
        {
          "duration": 0.07352937499999257,
          "durationTicks": 12,
          "midi": 67,
          "name": "G4",
          "ticks": 35940,
          "time": 220.22047812500003,
          "velocity": 0.7874015748031497
        },
        {
          "duration": 0.07352937499999257,
          "durationTicks": 12,
          "midi": 72,
          "name": "C5",
          "ticks": 35952,
          "time": 220.29400750000002,
          "velocity": 0.7874015748031497
        },
        {
          "duration": 0.07352937500002099,
          "durationTicks": 12,
          "midi": 72,
          "name": "C5",
          "ticks": 35964,
          "time": 220.367536875,
          "velocity": 0.7874015748031497
        },
        {
          "duration": 0.07352937499999257,
          "durationTicks": 12,
          "midi": 72,
          "name": "C5",
          "ticks": 35976,
          "time": 220.44106625000003,
          "velocity": 0.7874015748031497
        },
        {
          "duration": 0.07352937499999257,
          "durationTicks": 12,
          "midi": 72,
          "name": "C5",
          "ticks": 35988,
          "time": 220.51459562500003,
          "velocity": 0.7874015748031497
        },
        {
          "duration": 0.07352937499999257,
          "durationTicks": 12,
          "midi": 74,
          "name": "D5",
          "ticks": 36000,
          "time": 220.58812500000002,
          "velocity": 0.7874015748031497
        },
        {
          "duration": 0.07352937500002099,
          "durationTicks": 12,
          "midi": 74,
          "name": "D5",
          "ticks": 36012,
          "time": 220.661654375,
          "velocity": 0.7874015748031497
        },
        {
          "duration": 0.07352937499999257,
          "durationTicks": 12,
          "midi": 74,
          "name": "D5",
          "ticks": 36024,
          "time": 220.73518375000003,
          "velocity": 0.7874015748031497
        },
        {
          "duration": 0.07352937499999257,
          "durationTicks": 12,
          "midi": 74,
          "name": "D5",
          "ticks": 36036,
          "time": 220.80871312500003,
          "velocity": 0.7874015748031497
        },
        {
          "duration": 0.07352937499999257,
          "durationTicks": 12,
          "midi": 72,
          "name": "C5",
          "ticks": 36048,
          "time": 220.88224250000002,
          "velocity": 0.7874015748031497
        },
        {
          "duration": 0.07352937500002099,
          "durationTicks": 12,
          "midi": 72,
          "name": "C5",
          "ticks": 36060,
          "time": 220.955771875,
          "velocity": 0.7874015748031497
        },
        {
          "duration": 0.07352937499999257,
          "durationTicks": 12,
          "midi": 72,
          "name": "C5",
          "ticks": 36072,
          "time": 221.02930125000003,
          "velocity": 0.7874015748031497
        },
        {
          "duration": 0.07352937499999257,
          "durationTicks": 12,
          "midi": 72,
          "name": "C5",
          "ticks": 36084,
          "time": 221.10283062500002,
          "velocity": 0.7874015748031497
        },
        {
          "duration": 0.07352937500002099,
          "durationTicks": 12,
          "midi": 70,
          "name": "A#4",
          "ticks": 36096,
          "time": 221.17636000000002,
          "velocity": 0.7874015748031497
        },
        {
          "duration": 0.07352937499999257,
          "durationTicks": 12,
          "midi": 70,
          "name": "A#4",
          "ticks": 36108,
          "time": 221.24988937500004,
          "velocity": 0.7874015748031497
        },
        {
          "duration": 0.07352937499999257,
          "durationTicks": 12,
          "midi": 70,
          "name": "A#4",
          "ticks": 36120,
          "time": 221.32341875000003,
          "velocity": 0.7874015748031497
        },
        {
          "duration": 0.07352937499999257,
          "durationTicks": 12,
          "midi": 70,
          "name": "A#4",
          "ticks": 36132,
          "time": 221.39694812500002,
          "velocity": 0.7874015748031497
        },
        {
          "duration": 0.07352937500002099,
          "durationTicks": 12,
          "midi": 69,
          "name": "A4",
          "ticks": 36144,
          "time": 221.47047750000002,
          "velocity": 0.7874015748031497
        },
        {
          "duration": 0.07352937499999257,
          "durationTicks": 12,
          "midi": 69,
          "name": "A4",
          "ticks": 36156,
          "time": 221.54400687500004,
          "velocity": 0.7874015748031497
        },
        {
          "duration": 0.07352937499999257,
          "durationTicks": 12,
          "midi": 69,
          "name": "A4",
          "ticks": 36168,
          "time": 221.61753625000003,
          "velocity": 0.7874015748031497
        },
        {
          "duration": 0.07352937499999257,
          "durationTicks": 12,
          "midi": 69,
          "name": "A4",
          "ticks": 36180,
          "time": 221.69106562500002,
          "velocity": 0.7874015748031497
        },
        {
          "duration": 0.07352937499999257,
          "durationTicks": 12,
          "midi": 72,
          "name": "C5",
          "ticks": 37104,
          "time": 227.35282750000002,
          "velocity": 0.7874015748031497
        },
        {
          "duration": 0.07352937500002099,
          "durationTicks": 12,
          "midi": 72,
          "name": "C5",
          "ticks": 37116,
          "time": 227.426356875,
          "velocity": 0.7874015748031497
        },
        {
          "duration": 0.07352937499999257,
          "durationTicks": 12,
          "midi": 72,
          "name": "C5",
          "ticks": 37128,
          "time": 227.49988625000003,
          "velocity": 0.7874015748031497
        },
        {
          "duration": 0.07352937499999257,
          "durationTicks": 12,
          "midi": 72,
          "name": "C5",
          "ticks": 37140,
          "time": 227.57341562500002,
          "velocity": 0.7874015748031497
        },
        {
          "duration": 0.07352937500002099,
          "durationTicks": 12,
          "midi": 72,
          "name": "C5",
          "ticks": 37152,
          "time": 227.64694500000002,
          "velocity": 0.7874015748031497
        },
        {
          "duration": 0.07352937499999257,
          "durationTicks": 12,
          "midi": 72,
          "name": "C5",
          "ticks": 37164,
          "time": 227.72047437500004,
          "velocity": 0.7874015748031497
        },
        {
          "duration": 0.07352937499999257,
          "durationTicks": 12,
          "midi": 74,
          "name": "D5",
          "ticks": 37176,
          "time": 227.79400375000003,
          "velocity": 0.7874015748031497
        },
        {
          "duration": 0.07352937499999257,
          "durationTicks": 12,
          "midi": 74,
          "name": "D5",
          "ticks": 37188,
          "time": 227.86753312500002,
          "velocity": 0.7874015748031497
        },
        {
          "duration": 0.07352937500002099,
          "durationTicks": 12,
          "midi": 74,
          "name": "D5",
          "ticks": 37200,
          "time": 227.94106250000002,
          "velocity": 0.7874015748031497
        },
        {
          "duration": 0.07352937499999257,
          "durationTicks": 12,
          "midi": 74,
          "name": "D5",
          "ticks": 37212,
          "time": 228.01459187500004,
          "velocity": 0.7874015748031497
        },
        {
          "duration": 0.07352937499999257,
          "durationTicks": 12,
          "midi": 74,
          "name": "D5",
          "ticks": 37224,
          "time": 228.08812125000003,
          "velocity": 0.7874015748031497
        },
        {
          "duration": 0.07352937499999257,
          "durationTicks": 12,
          "midi": 74,
          "name": "D5",
          "ticks": 37236,
          "time": 228.16165062500002,
          "velocity": 0.7874015748031497
        },
        {
          "duration": 0.07352937500002099,
          "durationTicks": 12,
          "midi": 60,
          "name": "C4",
          "ticks": 37344,
          "time": 228.823415,
          "velocity": 0.7874015748031497
        },
        {
          "duration": 0.07352937499999257,
          "durationTicks": 12,
          "midi": 60,
          "name": "C4",
          "ticks": 37356,
          "time": 228.89694437500003,
          "velocity": 0.7874015748031497
        },
        {
          "duration": 0.07352937499999257,
          "durationTicks": 12,
          "midi": 60,
          "name": "C4",
          "ticks": 37368,
          "time": 228.97047375000002,
          "velocity": 0.7874015748031497
        },
        {
          "duration": 0.07352937500002099,
          "durationTicks": 12,
          "midi": 60,
          "name": "C4",
          "ticks": 37380,
          "time": 229.04400312500002,
          "velocity": 0.7874015748031497
        },
        {
          "duration": 0.07352937499999257,
          "durationTicks": 12,
          "midi": 60,
          "name": "C4",
          "ticks": 37392,
          "time": 229.11753250000004,
          "velocity": 0.7874015748031497
        },
        {
          "duration": 0.07352937499999257,
          "durationTicks": 12,
          "midi": 60,
          "name": "C4",
          "ticks": 37404,
          "time": 229.19106187500003,
          "velocity": 0.7874015748031497
        },
        {
          "duration": 0.07352937499999257,
          "durationTicks": 12,
          "midi": 67,
          "name": "G4",
          "ticks": 37416,
          "time": 229.26459125000002,
          "velocity": 0.7874015748031497
        },
        {
          "duration": 0.07352937500002099,
          "durationTicks": 12,
          "midi": 67,
          "name": "G4",
          "ticks": 37428,
          "time": 229.33812062500002,
          "velocity": 0.7874015748031497
        },
        {
          "duration": 0.07352937499999257,
          "durationTicks": 12,
          "midi": 67,
          "name": "G4",
          "ticks": 37440,
          "time": 229.41165000000004,
          "velocity": 0.7874015748031497
        },
        {
          "duration": 0.07352937499999257,
          "durationTicks": 12,
          "midi": 67,
          "name": "G4",
          "ticks": 37452,
          "time": 229.48517937500003,
          "velocity": 0.7874015748031497
        },
        {
          "duration": 0.07352937499999257,
          "durationTicks": 12,
          "midi": 67,
          "name": "G4",
          "ticks": 37464,
          "time": 229.55870875000002,
          "velocity": 0.7874015748031497
        },
        {
          "duration": 0.07352937500002099,
          "durationTicks": 12,
          "midi": 67,
          "name": "G4",
          "ticks": 37476,
          "time": 229.63223812500001,
          "velocity": 0.7874015748031497
        },
        {
          "duration": 0.07352937499999257,
          "durationTicks": 12,
          "midi": 72,
          "name": "C5",
          "ticks": 37488,
          "time": 229.70576750000004,
          "velocity": 0.7874015748031497
        },
        {
          "duration": 0.07352937499999257,
          "durationTicks": 12,
          "midi": 72,
          "name": "C5",
          "ticks": 37500,
          "time": 229.77929687500003,
          "velocity": 0.7874015748031497
        },
        {
          "duration": 0.07352937499999257,
          "durationTicks": 12,
          "midi": 72,
          "name": "C5",
          "ticks": 37512,
          "time": 229.85282625000002,
          "velocity": 0.7874015748031497
        },
        {
          "duration": 0.07352937500002099,
          "durationTicks": 12,
          "midi": 72,
          "name": "C5",
          "ticks": 37524,
          "time": 229.926355625,
          "velocity": 0.7874015748031497
        },
        {
          "duration": 0.07352937499999257,
          "durationTicks": 12,
          "midi": 74,
          "name": "D5",
          "ticks": 37536,
          "time": 229.99988500000003,
          "velocity": 0.7874015748031497
        },
        {
          "duration": 0.07352937499999257,
          "durationTicks": 12,
          "midi": 69,
          "name": "A4",
          "ticks": 37536,
          "time": 229.99988500000003,
          "velocity": 0.7874015748031497
        },
        {
          "duration": 0.07352937499999257,
          "durationTicks": 12,
          "midi": 74,
          "name": "D5",
          "ticks": 37548,
          "time": 230.07341437500003,
          "velocity": 0.7874015748031497
        },
        {
          "duration": 0.07352937499999257,
          "durationTicks": 12,
          "midi": 69,
          "name": "A4",
          "ticks": 37548,
          "time": 230.07341437500003,
          "velocity": 0.7874015748031497
        },
        {
          "duration": 0.07352937499999257,
          "durationTicks": 12,
          "midi": 74,
          "name": "D5",
          "ticks": 37560,
          "time": 230.14694375000002,
          "velocity": 0.7874015748031497
        },
        {
          "duration": 0.07352937499999257,
          "durationTicks": 12,
          "midi": 69,
          "name": "A4",
          "ticks": 37560,
          "time": 230.14694375000002,
          "velocity": 0.7874015748031497
        },
        {
          "duration": 0.07352937500002099,
          "durationTicks": 12,
          "midi": 69,
          "name": "A4",
          "ticks": 37572,
          "time": 230.220473125,
          "velocity": 0.7874015748031497
        },
        {
          "duration": 0.07352937500002099,
          "durationTicks": 12,
          "midi": 74,
          "name": "D5",
          "ticks": 37572,
          "time": 230.220473125,
          "velocity": 0.7874015748031497
        },
        {
          "duration": 0.07352937499999257,
          "durationTicks": 12,
          "midi": 67,
          "name": "G4",
          "ticks": 37584,
          "time": 230.29400250000003,
          "velocity": 0.7874015748031497
        },
        {
          "duration": 0.07352937499999257,
          "durationTicks": 12,
          "midi": 72,
          "name": "C5",
          "ticks": 37584,
          "time": 230.29400250000003,
          "velocity": 0.7874015748031497
        },
        {
          "duration": 0.07352937499999257,
          "durationTicks": 12,
          "midi": 72,
          "name": "C5",
          "ticks": 37596,
          "time": 230.36753187500003,
          "velocity": 0.7874015748031497
        },
        {
          "duration": 0.07352937499999257,
          "durationTicks": 12,
          "midi": 67,
          "name": "G4",
          "ticks": 37596,
          "time": 230.36753187500003,
          "velocity": 0.7874015748031497
        },
        {
          "duration": 0.07352937499999257,
          "durationTicks": 12,
          "midi": 72,
          "name": "C5",
          "ticks": 37608,
          "time": 230.44106125000002,
          "velocity": 0.7874015748031497
        },
        {
          "duration": 0.07352937499999257,
          "durationTicks": 12,
          "midi": 67,
          "name": "G4",
          "ticks": 37608,
          "time": 230.44106125000002,
          "velocity": 0.7874015748031497
        },
        {
          "duration": 0.07352937500002099,
          "durationTicks": 12,
          "midi": 67,
          "name": "G4",
          "ticks": 37620,
          "time": 230.514590625,
          "velocity": 0.7874015748031497
        },
        {
          "duration": 0.07352937500002099,
          "durationTicks": 12,
          "midi": 72,
          "name": "C5",
          "ticks": 37620,
          "time": 230.514590625,
          "velocity": 0.7874015748031497
        },
        {
          "duration": 0.07352937499999257,
          "durationTicks": 12,
          "midi": 65,
          "name": "F4",
          "ticks": 37632,
          "time": 230.58812000000003,
          "velocity": 0.7874015748031497
        },
        {
          "duration": 0.07352937499999257,
          "durationTicks": 12,
          "midi": 70,
          "name": "A#4",
          "ticks": 37632,
          "time": 230.58812000000003,
          "velocity": 0.7874015748031497
        },
        {
          "duration": 0.07352937499999257,
          "durationTicks": 12,
          "midi": 65,
          "name": "F4",
          "ticks": 37644,
          "time": 230.66164937500002,
          "velocity": 0.7874015748031497
        },
        {
          "duration": 0.07352937499999257,
          "durationTicks": 12,
          "midi": 70,
          "name": "A#4",
          "ticks": 37644,
          "time": 230.66164937500002,
          "velocity": 0.7874015748031497
        },
        {
          "duration": 0.07352937500002099,
          "durationTicks": 12,
          "midi": 65,
          "name": "F4",
          "ticks": 37656,
          "time": 230.73517875000002,
          "velocity": 0.7874015748031497
        },
        {
          "duration": 0.07352937500002099,
          "durationTicks": 12,
          "midi": 70,
          "name": "A#4",
          "ticks": 37656,
          "time": 230.73517875000002,
          "velocity": 0.7874015748031497
        },
        {
          "duration": 0.07352937499999257,
          "durationTicks": 12,
          "midi": 65,
          "name": "F4",
          "ticks": 37668,
          "time": 230.80870812500004,
          "velocity": 0.7874015748031497
        },
        {
          "duration": 0.07352937499999257,
          "durationTicks": 12,
          "midi": 70,
          "name": "A#4",
          "ticks": 37668,
          "time": 230.80870812500004,
          "velocity": 0.7874015748031497
        },
        {
          "duration": 0.07352937499999257,
          "durationTicks": 12,
          "midi": 69,
          "name": "A4",
          "ticks": 37680,
          "time": 230.88223750000003,
          "velocity": 0.7874015748031497
        },
        {
          "duration": 0.07352937499999257,
          "durationTicks": 12,
          "midi": 64,
          "name": "E4",
          "ticks": 37680,
          "time": 230.88223750000003,
          "velocity": 0.7874015748031497
        },
        {
          "duration": 0.07352937499999257,
          "durationTicks": 12,
          "midi": 69,
          "name": "A4",
          "ticks": 37692,
          "time": 230.95576687500002,
          "velocity": 0.7874015748031497
        },
        {
          "duration": 0.07352937499999257,
          "durationTicks": 12,
          "midi": 64,
          "name": "E4",
          "ticks": 37692,
          "time": 230.95576687500002,
          "velocity": 0.7874015748031497
        },
        {
          "duration": 0.07352937500002099,
          "durationTicks": 12,
          "midi": 64,
          "name": "E4",
          "ticks": 37704,
          "time": 231.02929625000002,
          "velocity": 0.7874015748031497
        },
        {
          "duration": 0.07352937500002099,
          "durationTicks": 12,
          "midi": 69,
          "name": "A4",
          "ticks": 37704,
          "time": 231.02929625000002,
          "velocity": 0.7874015748031497
        },
        {
          "duration": 0.07352937499999257,
          "durationTicks": 12,
          "midi": 64,
          "name": "E4",
          "ticks": 37716,
          "time": 231.10282562500004,
          "velocity": 0.7874015748031497
        },
        {
          "duration": 0.07352937499999257,
          "durationTicks": 12,
          "midi": 69,
          "name": "A4",
          "ticks": 37716,
          "time": 231.10282562500004,
          "velocity": 0.7874015748031497
        },
        {
          "duration": 0.14705874999998514,
          "durationTicks": 24,
          "midi": 70,
          "name": "A#4",
          "ticks": 42240,
          "time": 258.82340000000005,
          "velocity": 0.7874015748031497
        },
        {
          "duration": 0.14705874999998514,
          "durationTicks": 24,
          "midi": 70,
          "name": "A#4",
          "ticks": 42264,
          "time": 258.97045875000003,
          "velocity": 0.7874015748031497
        },
        {
          "duration": 0.2941175000000271,
          "durationTicks": 48,
          "midi": 69,
          "name": "A4",
          "ticks": 42288,
          "time": 259.1175175,
          "velocity": 0.7874015748031497
        },
        {
          "duration": 0.8823524999999677,
          "durationTicks": 144,
          "midi": 70,
          "name": "A#4",
          "ticks": 42336,
          "time": 259.41163500000005,
          "velocity": 0.7874015748031497
        },
        {
          "duration": 0.8823525000000245,
          "durationTicks": 144,
          "midi": 67,
          "name": "G4",
          "ticks": 42480,
          "time": 260.2939875,
          "velocity": 0.7874015748031497
        },
        {
          "duration": 0.2941174999999703,
          "durationTicks": 48,
          "midi": 67,
          "name": "G4",
          "ticks": 42624,
          "time": 261.17634000000004,
          "velocity": 0.7874015748031497
        },
        {
          "duration": 0.2941175000000271,
          "durationTicks": 48,
          "midi": 69,
          "name": "A4",
          "ticks": 42672,
          "time": 261.4704575,
          "velocity": 0.7874015748031497
        },
        {
          "duration": 0.8823524999999677,
          "durationTicks": 144,
          "midi": 70,
          "name": "A#4",
          "ticks": 42720,
          "time": 261.76457500000004,
          "velocity": 0.7874015748031497
        },
        {
          "duration": 0.8823525000000245,
          "durationTicks": 144,
          "midi": 67,
          "name": "G4",
          "ticks": 42864,
          "time": 262.6469275,
          "velocity": 0.7874015748031497
        },
        {
          "duration": 0.2941175000000271,
          "durationTicks": 48,
          "midi": 69,
          "name": "A4",
          "ticks": 43008,
          "time": 263.52928,
          "velocity": 0.7874015748031497
        },
        {
          "duration": 0.2941174999999703,
          "durationTicks": 48,
          "midi": 70,
          "name": "A#4",
          "ticks": 43056,
          "time": 263.82339750000006,
          "velocity": 0.7874015748031497
        },
        {
          "duration": 0.8823525000000245,
          "durationTicks": 144,
          "midi": 74,
          "name": "D5",
          "ticks": 43104,
          "time": 264.117515,
          "velocity": 0.7874015748031497
        },
        {
          "duration": 1.1764699999999948,
          "durationTicks": 192,
          "midi": 72,
          "name": "C5",
          "ticks": 43248,
          "time": 264.99986750000005,
          "velocity": 0.7874015748031497
        },
        {
          "duration": 0.2941174999999703,
          "durationTicks": 48,
          "midi": 70,
          "name": "A#4",
          "ticks": 43440,
          "time": 266.17633750000005,
          "velocity": 0.7874015748031497
        },
        {
          "duration": 0.8823525000000245,
          "durationTicks": 144,
          "midi": 72,
          "name": "C5",
          "ticks": 43488,
          "time": 266.470455,
          "velocity": 0.7874015748031497
        },
        {
          "duration": 0.8823524999999677,
          "durationTicks": 144,
          "midi": 70,
          "name": "A#4",
          "ticks": 43632,
          "time": 267.35280750000004,
          "velocity": 0.7874015748031497
        },
        {
          "duration": 0.5882349999999974,
          "durationTicks": 96,
          "midi": 69,
          "name": "A4",
          "ticks": 43776,
          "time": 268.23516,
          "velocity": 0.7874015748031497
        },
        {
          "duration": 0.8823525000000245,
          "durationTicks": 144,
          "midi": 70,
          "name": "A#4",
          "ticks": 43872,
          "time": 268.823395,
          "velocity": 0.7874015748031497
        },
        {
          "duration": 0.8823525000000245,
          "durationTicks": 144,
          "midi": 67,
          "name": "G4",
          "ticks": 44016,
          "time": 269.70574750000003,
          "velocity": 0.7874015748031497
        },
        {
          "duration": 0.2941174999999703,
          "durationTicks": 48,
          "midi": 67,
          "name": "G4",
          "ticks": 44160,
          "time": 270.58810000000005,
          "velocity": 0.7874015748031497
        },
        {
          "duration": 0.2941175000000271,
          "durationTicks": 48,
          "midi": 69,
          "name": "A4",
          "ticks": 44208,
          "time": 270.8822175,
          "velocity": 0.7874015748031497
        },
        {
          "duration": 0.8823524999999677,
          "durationTicks": 144,
          "midi": 70,
          "name": "A#4",
          "ticks": 44256,
          "time": 271.17633500000005,
          "velocity": 0.7874015748031497
        },
        {
          "duration": 0.8823525000000245,
          "durationTicks": 144,
          "midi": 67,
          "name": "G4",
          "ticks": 44400,
          "time": 272.0586875,
          "velocity": 0.7874015748031497
        },
        {
          "duration": 0.2941174999999703,
          "durationTicks": 48,
          "midi": 69,
          "name": "A4",
          "ticks": 44544,
          "time": 272.94104000000004,
          "velocity": 0.7874015748031497
        },
        {
          "duration": 0.2941175000000271,
          "durationTicks": 48,
          "midi": 70,
          "name": "A#4",
          "ticks": 44592,
          "time": 273.2351575,
          "velocity": 0.7874015748031497
        },
        {
          "duration": 0.8823524999999677,
          "durationTicks": 144,
          "midi": 74,
          "name": "D5",
          "ticks": 44640,
          "time": 273.52927500000004,
          "velocity": 0.7874015748031497
        },
        {
          "duration": 1.1764699999999948,
          "durationTicks": 192,
          "midi": 72,
          "name": "C5",
          "ticks": 44784,
          "time": 274.4116275,
          "velocity": 0.7874015748031497
        },
        {
          "duration": 0.2941175000000271,
          "durationTicks": 48,
          "midi": 70,
          "name": "A#4",
          "ticks": 44976,
          "time": 275.5880975,
          "velocity": 0.7874015748031497
        },
        {
          "duration": 0.8823525000000245,
          "durationTicks": 144,
          "midi": 72,
          "name": "C5",
          "ticks": 45024,
          "time": 275.88221500000003,
          "velocity": 0.7874015748031497
        },
        {
          "duration": 0.8823524999999677,
          "durationTicks": 144,
          "midi": 69,
          "name": "A4",
          "ticks": 45168,
          "time": 276.76456750000006,
          "velocity": 0.7874015748031497
        },
        {
          "duration": 0.5882349999999974,
          "durationTicks": 96,
          "midi": 72,
          "name": "C5",
          "ticks": 45312,
          "time": 277.64692,
          "velocity": 0.7874015748031497
        },
        {
          "duration": 1.7647049999999922,
          "durationTicks": 288,
          "midi": 71,
          "name": "B4",
          "ticks": 45408,
          "time": 278.235155,
          "velocity": 0.7874015748031497
        },
        {
          "duration": 0.14705874999998514,
          "durationTicks": 24,
          "midi": 55,
          "name": "G3",
          "ticks": 46560,
          "time": 285.29397500000005,
          "velocity": 0.7874015748031497
        },
        {
          "duration": 0.14705874999998514,
          "durationTicks": 24,
          "midi": 55,
          "name": "G3",
          "ticks": 46584,
          "time": 285.44103375000003,
          "velocity": 0.7874015748031497
        },
        {
          "duration": 0.14705875000004198,
          "durationTicks": 24,
          "midi": 55,
          "name": "G3",
          "ticks": 46608,
          "time": 285.5880925,
          "velocity": 0.7874015748031497
        },
        {
          "duration": 0.14705874999998514,
          "durationTicks": 24,
          "midi": 57,
          "name": "A3",
          "ticks": 46632,
          "time": 285.73515125000006,
          "velocity": 0.7874015748031497
        },
        {
          "duration": 0.14705874999998514,
          "durationTicks": 24,
          "midi": 57,
          "name": "A3",
          "ticks": 46656,
          "time": 285.88221000000004,
          "velocity": 0.7874015748031497
        },
        {
          "duration": 0.14705874999998514,
          "durationTicks": 24,
          "midi": 57,
          "name": "A3",
          "ticks": 46680,
          "time": 286.02926875,
          "velocity": 0.7874015748031497
        },
        {
          "duration": 0.14705875000004198,
          "durationTicks": 24,
          "midi": 59,
          "name": "B3",
          "ticks": 46704,
          "time": 286.1763275,
          "velocity": 0.7874015748031497
        },
        {
          "duration": 0.14705874999998514,
          "durationTicks": 24,
          "midi": 59,
          "name": "B3",
          "ticks": 46728,
          "time": 286.32338625000006,
          "velocity": 0.7874015748031497
        },
        {
          "duration": 0.14705874999998514,
          "durationTicks": 24,
          "midi": 59,
          "name": "B3",
          "ticks": 46752,
          "time": 286.47044500000004,
          "velocity": 0.7874015748031497
        },
        {
          "duration": 0.14705874999998514,
          "durationTicks": 24,
          "midi": 61,
          "name": "C#4",
          "ticks": 46776,
          "time": 286.61750375,
          "velocity": 0.7874015748031497
        },
        {
          "duration": 0.14705875000004198,
          "durationTicks": 24,
          "midi": 61,
          "name": "C#4",
          "ticks": 46800,
          "time": 286.7645625,
          "velocity": 0.7874015748031497
        },
        {
          "duration": 0.14705874999998514,
          "durationTicks": 24,
          "midi": 61,
          "name": "C#4",
          "ticks": 46824,
          "time": 286.91162125000005,
          "velocity": 0.7874015748031497
        },
        {
          "duration": 0.14705874999998514,
          "durationTicks": 24,
          "midi": 62,
          "name": "D4",
          "ticks": 46848,
          "time": 287.05868000000004,
          "velocity": 0.7874015748031497
        },
        {
          "duration": 0.14705874999998514,
          "durationTicks": 24,
          "midi": 62,
          "name": "D4",
          "ticks": 46872,
          "time": 287.20573875,
          "velocity": 0.7874015748031497
        },
        {
          "duration": 0.14705875000004198,
          "durationTicks": 24,
          "midi": 61,
          "name": "C#4",
          "ticks": 46896,
          "time": 287.3527975,
          "velocity": 0.7874015748031497
        },
        {
          "duration": 0.14705874999998514,
          "durationTicks": 24,
          "midi": 61,
          "name": "C#4",
          "ticks": 46920,
          "time": 287.49985625000005,
          "velocity": 0.7874015748031497
        }
      ]
    },
    {
      "channel": 0,
      "controlChanges": {
        "6": [
          {
            "number": 6,
            "ticks": 0,
            "time": 0,
            "value": 0.09448818897637795
          }
        ],
        "7": [
          {
            "number": 7,
            "ticks": 0,
            "time": 0,
            "value": 0.7007874015748031
          },
          {
            "number": 7,
            "ticks": 0,
            "time": 0,
            "value": 0.7007874015748031
          }
        ],
        "10": [
          {
            "number": 10,
            "ticks": 0,
            "time": 0,
            "value": 0.5039370078740157
          },
          {
            "number": 10,
            "ticks": 0,
            "time": 0,
            "value": 0.5039370078740157
          }
        ],
        "100": [
          {
            "number": 100,
            "ticks": 0,
            "time": 0,
            "value": 0
          }
        ],
        "101": [
          {
            "number": 101,
            "ticks": 0,
            "time": 0,
            "value": 0
          }
        ]
      },
      "pitchBends": [
        {
          "ticks": 0,
          "time": 0,
          "value": 0
        },
        {
          "ticks": 0,
          "time": 0,
          "value": 0
        }
      ],
      "instrument": {
        "family": "piano",
        "number": 0,
        "name": "acoustic grand piano"
      },
      "name": "Overdrive Guitar",
      "notes": [],
      "endOfTrackTicks": 48052
    },
    {
      "channel": 7,
      "controlChanges": {
        "1": [
          {
            "number": 1,
            "ticks": 0,
            "time": 0,
            "value": 0.6299212598425197
          },
          {
            "number": 1,
            "ticks": 0,
            "time": 0,
            "value": 0.6299212598425197
          },
          {
            "number": 1,
            "ticks": 0,
            "time": 0,
            "value": 0.6299212598425197
          },
          {
            "number": 1,
            "ticks": 48000,
            "time": 294.1175,
            "value": 0.6299212598425197
          },
          {
            "number": 1,
            "ticks": 48052,
            "time": 294.4361272916667,
            "value": 0.6299212598425197
          }
        ],
        "6": [
          {
            "number": 6,
            "ticks": 0,
            "time": 0,
            "value": 0.09448818897637795
          },
          {
            "number": 6,
            "ticks": 0,
            "time": 0,
            "value": 0.09448818897637795
          },
          {
            "number": 6,
            "ticks": 48000,
            "time": 294.1175,
            "value": 0.09448818897637795
          },
          {
            "number": 6,
            "ticks": 48052,
            "time": 294.4361272916667,
            "value": 0.09448818897637795
          }
        ],
        "7": [
          {
            "number": 7,
            "ticks": 0,
            "time": 0,
            "value": 0.7007874015748031
          },
          {
            "number": 7,
            "ticks": 0,
            "time": 0,
            "value": 0.7007874015748031
          },
          {
            "number": 7,
            "ticks": 48000,
            "time": 294.1175,
            "value": 0.7007874015748031
          },
          {
            "number": 7,
            "ticks": 48052,
            "time": 294.4361272916667,
            "value": 0.7007874015748031
          }
        ],
        "10": [
          {
            "number": 10,
            "ticks": 0,
            "time": 0,
            "value": 0.5039370078740157
          },
          {
            "number": 10,
            "ticks": 0,
            "time": 0,
            "value": 0.5039370078740157
          },
          {
            "number": 10,
            "ticks": 0,
            "time": 0,
            "value": 0.5039370078740157
          },
          {
            "number": 10,
            "ticks": 0,
            "time": 0,
            "value": 0.5039370078740157
          },
          {
            "number": 10,
            "ticks": 25824,
            "time": 158.235215,
            "value": 0.5039370078740157
          },
          {
            "number": 10,
            "ticks": 48000,
            "time": 294.1175,
            "value": 0.5039370078740157
          },
          {
            "number": 10,
            "ticks": 48051,
            "time": 294.42999984375,
            "value": 0.5039370078740157
          },
          {
            "number": 10,
            "ticks": 48052,
            "time": 294.4361272916667,
            "value": 0.5039370078740157
          }
        ],
        "100": [
          {
            "number": 100,
            "ticks": 0,
            "time": 0,
            "value": 0
          },
          {
            "number": 100,
            "ticks": 0,
            "time": 0,
            "value": 0
          },
          {
            "number": 100,
            "ticks": 48000,
            "time": 294.1175,
            "value": 0
          },
          {
            "number": 100,
            "ticks": 48052,
            "time": 294.4361272916667,
            "value": 0
          }
        ],
        "101": [
          {
            "number": 101,
            "ticks": 0,
            "time": 0,
            "value": 0
          },
          {
            "number": 101,
            "ticks": 0,
            "time": 0,
            "value": 0
          },
          {
            "number": 101,
            "ticks": 48000,
            "time": 294.1175,
            "value": 0
          },
          {
            "number": 101,
            "ticks": 48052,
            "time": 294.4361272916667,
            "value": 0
          }
        ]
      },
      "pitchBends": [
        {
          "ticks": 0,
          "time": 0,
          "value": 0
        },
        {
          "ticks": 0,
          "time": 0,
          "value": 0
        },
        {
          "ticks": 0,
          "time": 0,
          "value": 0
        },
        {
          "ticks": 0,
          "time": 0,
          "value": 0
        },
        {
          "ticks": 25824,
          "time": 158.235215,
          "value": 0
        },
        {
          "ticks": 48000,
          "time": 294.1175,
          "value": 0
        },
        {
          "ticks": 48051,
          "time": 294.42999984375,
          "value": 0
        },
        {
          "ticks": 48052,
          "time": 294.4361272916667,
          "value": 0
        }
      ],
      "instrument": {
        "family": "guitar",
        "number": 29,
        "name": "overdriven guitar"
      },
      "name": "",
      "notes": [
        {
          "duration": 0.44117625000000515,
          "durationTicks": 72,
          "midi": 53,
          "name": "F3",
          "ticks": 8544,
          "time": 52.352915,
          "velocity": 0.7874015748031497
        },
        {
          "duration": 0.44117625000000515,
          "durationTicks": 72,
          "midi": 69,
          "name": "A4",
          "ticks": 8544,
          "time": 52.352915,
          "velocity": 0.6377952755905512
        },
        {
          "duration": 0.44117625000000515,
          "durationTicks": 72,
          "midi": 57,
          "name": "A3",
          "ticks": 8544,
          "time": 52.352915,
          "velocity": 0.7874015748031497
        },
        {
          "duration": 0.44117624999999805,
          "durationTicks": 72,
          "midi": 53,
          "name": "F3",
          "ticks": 8616,
          "time": 52.79409125000001,
          "velocity": 0.7874015748031497
        },
        {
          "duration": 0.44117624999999805,
          "durationTicks": 72,
          "midi": 69,
          "name": "A4",
          "ticks": 8616,
          "time": 52.79409125000001,
          "velocity": 0.6377952755905512
        },
        {
          "duration": 0.44117624999999805,
          "durationTicks": 72,
          "midi": 57,
          "name": "A3",
          "ticks": 8616,
          "time": 52.79409125000001,
          "velocity": 0.7874015748031497
        },
        {
          "duration": 1.176470000000002,
          "durationTicks": 192,
          "midi": 62,
          "name": "D4",
          "ticks": 8688,
          "time": 53.235267500000006,
          "velocity": 0.7874015748031497
        },
        {
          "duration": 1.176470000000002,
          "durationTicks": 192,
          "midi": 57,
          "name": "A3",
          "ticks": 8688,
          "time": 53.235267500000006,
          "velocity": 0.7874015748031497
        },
        {
          "duration": 1.176470000000002,
          "durationTicks": 192,
          "midi": 74,
          "name": "D5",
          "ticks": 8688,
          "time": 53.235267500000006,
          "velocity": 0.6377952755905512
        },
        {
          "duration": 0.2941174999999987,
          "durationTicks": 48,
          "midi": 55,
          "name": "G3",
          "ticks": 8880,
          "time": 54.41173750000001,
          "velocity": 0.7874015748031497
        },
        {
          "duration": 0.2941174999999987,
          "durationTicks": 48,
          "midi": 76,
          "name": "E5",
          "ticks": 8880,
          "time": 54.41173750000001,
          "velocity": 0.6377952755905512
        },
        {
          "duration": 0.2941174999999987,
          "durationTicks": 48,
          "midi": 60,
          "name": "C4",
          "ticks": 8880,
          "time": 54.41173750000001,
          "velocity": 0.7874015748031497
        },
        {
          "duration": 0.44117624999999805,
          "durationTicks": 72,
          "midi": 77,
          "name": "F5",
          "ticks": 8928,
          "time": 54.70585500000001,
          "velocity": 0.6377952755905512
        },
        {
          "duration": 0.44117624999999805,
          "durationTicks": 72,
          "midi": 57,
          "name": "A3",
          "ticks": 8928,
          "time": 54.70585500000001,
          "velocity": 0.7874015748031497
        },
        {
          "duration": 0.44117624999999805,
          "durationTicks": 72,
          "midi": 62,
          "name": "D4",
          "ticks": 8928,
          "time": 54.70585500000001,
          "velocity": 0.7874015748031497
        },
        {
          "duration": 0.44117624999999805,
          "durationTicks": 72,
          "midi": 76,
          "name": "E5",
          "ticks": 9000,
          "time": 55.147031250000005,
          "velocity": 0.6377952755905512
        },
        {
          "duration": 0.44117624999999805,
          "durationTicks": 72,
          "midi": 55,
          "name": "G3",
          "ticks": 9000,
          "time": 55.147031250000005,
          "velocity": 0.7874015748031497
        },
        {
          "duration": 0.44117624999999805,
          "durationTicks": 72,
          "midi": 60,
          "name": "C4",
          "ticks": 9000,
          "time": 55.147031250000005,
          "velocity": 0.7874015748031497
        },
        {
          "duration": 0.8823525000000032,
          "durationTicks": 144,
          "midi": 62,
          "name": "D4",
          "ticks": 9072,
          "time": 55.5882075,
          "velocity": 0.7874015748031497
        },
        {
          "duration": 0.8823525000000032,
          "durationTicks": 144,
          "midi": 57,
          "name": "A3",
          "ticks": 9072,
          "time": 55.5882075,
          "velocity": 0.7874015748031497
        },
        {
          "duration": 0.8823525000000032,
          "durationTicks": 144,
          "midi": 77,
          "name": "F5",
          "ticks": 9072,
          "time": 55.5882075,
          "velocity": 0.6377952755905512
        },
        {
          "duration": 0.2941174999999987,
          "durationTicks": 48,
          "midi": 69,
          "name": "A4",
          "ticks": 9216,
          "time": 56.470560000000006,
          "velocity": 0.6377952755905512
        },
        {
          "duration": 0.2941174999999987,
          "durationTicks": 48,
          "midi": 53,
          "name": "F3",
          "ticks": 9216,
          "time": 56.470560000000006,
          "velocity": 0.7874015748031497
        },
        {
          "duration": 0.2941174999999987,
          "durationTicks": 48,
          "midi": 57,
          "name": "A3",
          "ticks": 9216,
          "time": 56.470560000000006,
          "velocity": 0.7874015748031497
        },
        {
          "duration": 0.2941174999999987,
          "durationTicks": 48,
          "midi": 57,
          "name": "A3",
          "ticks": 9264,
          "time": 56.764677500000005,
          "velocity": 0.7874015748031497
        },
        {
          "duration": 0.2941174999999987,
          "durationTicks": 48,
          "midi": 53,
          "name": "F3",
          "ticks": 9264,
          "time": 56.764677500000005,
          "velocity": 0.7874015748031497
        },
        {
          "duration": 0.2941174999999987,
          "durationTicks": 48,
          "midi": 69,
          "name": "A4",
          "ticks": 9264,
          "time": 56.764677500000005,
          "velocity": 0.6377952755905512
        },
        {
          "duration": 0.44117625000000515,
          "durationTicks": 72,
          "midi": 57,
          "name": "A3",
          "ticks": 9312,
          "time": 57.058795,
          "velocity": 0.7874015748031497
        },
        {
          "duration": 0.44117625000000515,
          "durationTicks": 72,
          "midi": 53,
          "name": "F3",
          "ticks": 9312,
          "time": 57.058795,
          "velocity": 0.7874015748031497
        },
        {
          "duration": 0.44117625000000515,
          "durationTicks": 72,
          "midi": 69,
          "name": "A4",
          "ticks": 9312,
          "time": 57.058795,
          "velocity": 0.6377952755905512
        },
        {
          "duration": 0.44117624999999805,
          "durationTicks": 72,
          "midi": 70,
          "name": "A#4",
          "ticks": 9384,
          "time": 57.49997125000001,
          "velocity": 0.6377952755905512
        },
        {
          "duration": 0.44117624999999805,
          "durationTicks": 72,
          "midi": 53,
          "name": "F3",
          "ticks": 9384,
          "time": 57.49997125000001,
          "velocity": 0.7874015748031497
        },
        {
          "duration": 0.44117624999999805,
          "durationTicks": 72,
          "midi": 58,
          "name": "A#3",
          "ticks": 9384,
          "time": 57.49997125000001,
          "velocity": 0.7874015748031497
        },
        {
          "duration": 0.5882349999999974,
          "durationTicks": 96,
          "midi": 58,
          "name": "A#3",
          "ticks": 9456,
          "time": 57.94114750000001,
          "velocity": 0.7874015748031497
        },
        {
          "duration": 0.5882349999999974,
          "durationTicks": 96,
          "midi": 53,
          "name": "F3",
          "ticks": 9456,
          "time": 57.94114750000001,
          "velocity": 0.7874015748031497
        },
        {
          "duration": 0.5882349999999974,
          "durationTicks": 96,
          "midi": 70,
          "name": "A#4",
          "ticks": 9456,
          "time": 57.94114750000001,
          "velocity": 0.6377952755905512
        },
        {
          "duration": 0.2941175000000058,
          "durationTicks": 48,
          "midi": 69,
          "name": "A4",
          "ticks": 9552,
          "time": 58.529382500000004,
          "velocity": 0.6377952755905512
        },
        {
          "duration": 0.2941175000000058,
          "durationTicks": 48,
          "midi": 57,
          "name": "A3",
          "ticks": 9552,
          "time": 58.529382500000004,
          "velocity": 0.7874015748031497
        },
        {
          "duration": 0.2941175000000058,
          "durationTicks": 48,
          "midi": 53,
          "name": "F3",
          "ticks": 9552,
          "time": 58.529382500000004,
          "velocity": 0.7874015748031497
        },
        {
          "duration": 0.2941174999999987,
          "durationTicks": 48,
          "midi": 57,
          "name": "A3",
          "ticks": 9600,
          "time": 58.82350000000001,
          "velocity": 0.7874015748031497
        },
        {
          "duration": 0.2941174999999987,
          "durationTicks": 48,
          "midi": 53,
          "name": "F3",
          "ticks": 9600,
          "time": 58.82350000000001,
          "velocity": 0.7874015748031497
        },
        {
          "duration": 0.2941174999999987,
          "durationTicks": 48,
          "midi": 69,
          "name": "A4",
          "ticks": 9600,
          "time": 58.82350000000001,
          "velocity": 0.6377952755905512
        },
        {
          "duration": 0.2941174999999987,
          "durationTicks": 48,
          "midi": 58,
          "name": "A#3",
          "ticks": 9648,
          "time": 59.11761750000001,
          "velocity": 0.7874015748031497
        },
        {
          "duration": 0.2941174999999987,
          "durationTicks": 48,
          "midi": 53,
          "name": "F3",
          "ticks": 9648,
          "time": 59.11761750000001,
          "velocity": 0.7874015748031497
        },
        {
          "duration": 0.2941174999999987,
          "durationTicks": 48,
          "midi": 70,
          "name": "A#4",
          "ticks": 9648,
          "time": 59.11761750000001,
          "velocity": 0.6377952755905512
        },
        {
          "duration": 0.44117624999999805,
          "durationTicks": 72,
          "midi": 62,
          "name": "D4",
          "ticks": 9696,
          "time": 59.41173500000001,
          "velocity": 0.7874015748031497
        },
        {
          "duration": 0.44117624999999805,
          "durationTicks": 72,
          "midi": 74,
          "name": "D5",
          "ticks": 9696,
          "time": 59.41173500000001,
          "velocity": 0.6377952755905512
        },
        {
          "duration": 0.44117624999999805,
          "durationTicks": 72,
          "midi": 57,
          "name": "A3",
          "ticks": 9696,
          "time": 59.41173500000001,
          "velocity": 0.7874015748031497
        },
        {
          "duration": 0.44117624999999805,
          "durationTicks": 72,
          "midi": 55,
          "name": "G3",
          "ticks": 9768,
          "time": 59.852911250000005,
          "velocity": 0.6377952755905512
        },
        {
          "duration": 0.44117624999999805,
          "durationTicks": 72,
          "midi": 72,
          "name": "C5",
          "ticks": 9768,
          "time": 59.852911250000005,
          "velocity": 0.6377952755905512
        },
        {
          "duration": 0.44117624999999805,
          "durationTicks": 72,
          "midi": 60,
          "name": "C4",
          "ticks": 9768,
          "time": 59.852911250000005,
          "velocity": 0.7874015748031497
        },
        {
          "duration": 0.8823525000000032,
          "durationTicks": 144,
          "midi": 69,
          "name": "A4",
          "ticks": 9840,
          "time": 60.2940875,
          "velocity": 0.6377952755905512
        },
        {
          "duration": 0.8823525000000032,
          "durationTicks": 144,
          "midi": 57,
          "name": "A3",
          "ticks": 9840,
          "time": 60.2940875,
          "velocity": 0.7874015748031497
        },
        {
          "duration": 0.8823525000000032,
          "durationTicks": 144,
          "midi": 53,
          "name": "F3",
          "ticks": 9840,
          "time": 60.2940875,
          "velocity": 0.7874015748031497
        },
        {
          "duration": 0.2941174999999987,
          "durationTicks": 48,
          "midi": 67,
          "name": "G4",
          "ticks": 10032,
          "time": 61.470557500000005,
          "velocity": 0.6377952755905512
        },
        {
          "duration": 0.2941174999999987,
          "durationTicks": 48,
          "midi": 50,
          "name": "D3",
          "ticks": 10032,
          "time": 61.470557500000005,
          "velocity": 0.7874015748031497
        },
        {
          "duration": 0.2941174999999987,
          "durationTicks": 48,
          "midi": 55,
          "name": "G3",
          "ticks": 10032,
          "time": 61.470557500000005,
          "velocity": 0.7874015748031497
        },
        {
          "duration": 0.44117625000000515,
          "durationTicks": 72,
          "midi": 69,
          "name": "A4",
          "ticks": 10080,
          "time": 61.764675000000004,
          "velocity": 0.6377952755905512
        },
        {
          "duration": 0.44117625000000515,
          "durationTicks": 72,
          "midi": 53,
          "name": "F3",
          "ticks": 10080,
          "time": 61.764675000000004,
          "velocity": 0.7874015748031497
        },
        {
          "duration": 0.44117625000000515,
          "durationTicks": 72,
          "midi": 57,
          "name": "A3",
          "ticks": 10080,
          "time": 61.764675000000004,
          "velocity": 0.7874015748031497
        },
        {
          "duration": 0.44117624999999805,
          "durationTicks": 72,
          "midi": 55,
          "name": "G3",
          "ticks": 10152,
          "time": 62.20585125000001,
          "velocity": 0.7874015748031497
        },
        {
          "duration": 0.44117624999999805,
          "durationTicks": 72,
          "midi": 50,
          "name": "D3",
          "ticks": 10152,
          "time": 62.20585125000001,
          "velocity": 0.7874015748031497
        },
        {
          "duration": 0.44117624999999805,
          "durationTicks": 72,
          "midi": 67,
          "name": "G4",
          "ticks": 10152,
          "time": 62.20585125000001,
          "velocity": 0.6377952755905512
        },
        {
          "duration": 0.8823524999999961,
          "durationTicks": 144,
          "midi": 57,
          "name": "A3",
          "ticks": 10224,
          "time": 62.64702750000001,
          "velocity": 0.7874015748031497
        },
        {
          "duration": 0.8823524999999961,
          "durationTicks": 144,
          "midi": 53,
          "name": "F3",
          "ticks": 10224,
          "time": 62.64702750000001,
          "velocity": 0.7874015748031497
        },
        {
          "duration": 0.8823524999999961,
          "durationTicks": 144,
          "midi": 69,
          "name": "A4",
          "ticks": 10224,
          "time": 62.64702750000001,
          "velocity": 0.6377952755905512
        },
        {
          "duration": 0.2941174999999916,
          "durationTicks": 48,
          "midi": 76,
          "name": "E5",
          "ticks": 10416,
          "time": 63.82349750000001,
          "velocity": 0.6377952755905512
        },
        {
          "duration": 0.2941174999999916,
          "durationTicks": 48,
          "midi": 50,
          "name": "D3",
          "ticks": 10416,
          "time": 63.82349750000001,
          "velocity": 0.7874015748031497
        },
        {
          "duration": 0.2941174999999916,
          "durationTicks": 48,
          "midi": 55,
          "name": "G3",
          "ticks": 10416,
          "time": 63.82349750000001,
          "velocity": 0.7874015748031497
        },
        {
          "duration": 0.44117625000001226,
          "durationTicks": 72,
          "midi": 77,
          "name": "F5",
          "ticks": 10464,
          "time": 64.117615,
          "velocity": 0.6377952755905512
        },
        {
          "duration": 0.44117625000001226,
          "durationTicks": 72,
          "midi": 57,
          "name": "A3",
          "ticks": 10464,
          "time": 64.117615,
          "velocity": 0.7874015748031497
        },
        {
          "duration": 0.44117625000001226,
          "durationTicks": 72,
          "midi": 53,
          "name": "F3",
          "ticks": 10464,
          "time": 64.117615,
          "velocity": 0.7874015748031497
        },
        {
          "duration": 0.44117624999999805,
          "durationTicks": 72,
          "midi": 76,
          "name": "E5",
          "ticks": 10536,
          "time": 64.55879125000001,
          "velocity": 0.6377952755905512
        },
        {
          "duration": 0.44117624999999805,
          "durationTicks": 72,
          "midi": 50,
          "name": "D3",
          "ticks": 10536,
          "time": 64.55879125000001,
          "velocity": 0.7874015748031497
        },
        {
          "duration": 0.44117624999999805,
          "durationTicks": 72,
          "midi": 55,
          "name": "G3",
          "ticks": 10536,
          "time": 64.55879125000001,
          "velocity": 0.7874015748031497
        },
        {
          "duration": 0.8823524999999961,
          "durationTicks": 144,
          "midi": 77,
          "name": "F5",
          "ticks": 10608,
          "time": 64.99996750000001,
          "velocity": 0.6377952755905512
        },
        {
          "duration": 0.8823524999999961,
          "durationTicks": 144,
          "midi": 53,
          "name": "F3",
          "ticks": 10608,
          "time": 64.99996750000001,
          "velocity": 0.7874015748031497
        },
        {
          "duration": 0.8823524999999961,
          "durationTicks": 144,
          "midi": 57,
          "name": "A3",
          "ticks": 10608,
          "time": 64.99996750000001,
          "velocity": 0.7874015748031497
        },
        {
          "duration": 0.2941174999999987,
          "durationTicks": 48,
          "midi": 69,
          "name": "A4",
          "ticks": 10752,
          "time": 65.88232,
          "velocity": 0.6377952755905512
        },
        {
          "duration": 0.2941174999999987,
          "durationTicks": 48,
          "midi": 53,
          "name": "F3",
          "ticks": 10752,
          "time": 65.88232,
          "velocity": 0.7874015748031497
        },
        {
          "duration": 0.2941174999999987,
          "durationTicks": 48,
          "midi": 57,
          "name": "A3",
          "ticks": 10752,
          "time": 65.88232,
          "velocity": 0.7874015748031497
        },
        {
          "duration": 0.2941174999999987,
          "durationTicks": 48,
          "midi": 69,
          "name": "A4",
          "ticks": 10800,
          "time": 66.1764375,
          "velocity": 0.6377952755905512
        },
        {
          "duration": 0.2941174999999987,
          "durationTicks": 48,
          "midi": 53,
          "name": "F3",
          "ticks": 10800,
          "time": 66.1764375,
          "velocity": 0.7874015748031497
        },
        {
          "duration": 0.2941174999999987,
          "durationTicks": 48,
          "midi": 57,
          "name": "A3",
          "ticks": 10800,
          "time": 66.1764375,
          "velocity": 0.7874015748031497
        },
        {
          "duration": 0.44117624999999805,
          "durationTicks": 72,
          "midi": 57,
          "name": "A3",
          "ticks": 10848,
          "time": 66.470555,
          "velocity": 0.7874015748031497
        },
        {
          "duration": 0.44117624999999805,
          "durationTicks": 72,
          "midi": 53,
          "name": "F3",
          "ticks": 10848,
          "time": 66.470555,
          "velocity": 0.7874015748031497
        },
        {
          "duration": 0.44117624999999805,
          "durationTicks": 72,
          "midi": 69,
          "name": "A4",
          "ticks": 10848,
          "time": 66.470555,
          "velocity": 0.6377952755905512
        },
        {
          "duration": 0.44117624999999805,
          "durationTicks": 72,
          "midi": 70,
          "name": "A#4",
          "ticks": 10920,
          "time": 66.91173125,
          "velocity": 0.6377952755905512
        },
        {
          "duration": 0.44117624999999805,
          "durationTicks": 72,
          "midi": 53,
          "name": "F3",
          "ticks": 10920,
          "time": 66.91173125,
          "velocity": 0.7874015748031497
        },
        {
          "duration": 0.44117624999999805,
          "durationTicks": 72,
          "midi": 58,
          "name": "A#3",
          "ticks": 10920,
          "time": 66.91173125,
          "velocity": 0.7874015748031497
        },
        {
          "duration": 0.5882350000000116,
          "durationTicks": 96,
          "midi": 70,
          "name": "A#4",
          "ticks": 10992,
          "time": 67.3529075,
          "velocity": 0.6377952755905512
        },
        {
          "duration": 0.5882350000000116,
          "durationTicks": 96,
          "midi": 53,
          "name": "F3",
          "ticks": 10992,
          "time": 67.3529075,
          "velocity": 0.7874015748031497
        },
        {
          "duration": 0.5882350000000116,
          "durationTicks": 96,
          "midi": 58,
          "name": "A#3",
          "ticks": 10992,
          "time": 67.3529075,
          "velocity": 0.7874015748031497
        },
        {
          "duration": 0.2941174999999987,
          "durationTicks": 48,
          "midi": 69,
          "name": "A4",
          "ticks": 11088,
          "time": 67.94114250000001,
          "velocity": 0.6377952755905512
        },
        {
          "duration": 0.2941174999999987,
          "durationTicks": 48,
          "midi": 53,
          "name": "F3",
          "ticks": 11088,
          "time": 67.94114250000001,
          "velocity": 0.7874015748031497
        },
        {
          "duration": 0.2941174999999987,
          "durationTicks": 48,
          "midi": 57,
          "name": "A3",
          "ticks": 11088,
          "time": 67.94114250000001,
          "velocity": 0.7874015748031497
        },
        {
          "duration": 0.2941174999999987,
          "durationTicks": 48,
          "midi": 53,
          "name": "F3",
          "ticks": 11136,
          "time": 68.23526000000001,
          "velocity": 0.7874015748031497
        },
        {
          "duration": 0.2941174999999987,
          "durationTicks": 48,
          "midi": 57,
          "name": "A3",
          "ticks": 11136,
          "time": 68.23526000000001,
          "velocity": 0.7874015748031497
        },
        {
          "duration": 0.2941174999999987,
          "durationTicks": 48,
          "midi": 69,
          "name": "A4",
          "ticks": 11136,
          "time": 68.23526000000001,
          "velocity": 0.6377952755905512
        },
        {
          "duration": 0.2941174999999987,
          "durationTicks": 48,
          "midi": 70,
          "name": "A#4",
          "ticks": 11184,
          "time": 68.52937750000001,
          "velocity": 0.6377952755905512
        },
        {
          "duration": 0.2941174999999987,
          "durationTicks": 48,
          "midi": 58,
          "name": "A#3",
          "ticks": 11184,
          "time": 68.52937750000001,
          "velocity": 0.7874015748031497
        },
        {
          "duration": 0.2941174999999987,
          "durationTicks": 48,
          "midi": 53,
          "name": "F3",
          "ticks": 11184,
          "time": 68.52937750000001,
          "velocity": 0.7874015748031497
        },
        {
          "duration": 0.44117624999999805,
          "durationTicks": 72,
          "midi": 74,
          "name": "D5",
          "ticks": 11232,
          "time": 68.82349500000001,
          "velocity": 0.6377952755905512
        },
        {
          "duration": 0.44117624999999805,
          "durationTicks": 72,
          "midi": 57,
          "name": "A3",
          "ticks": 11232,
          "time": 68.82349500000001,
          "velocity": 0.7874015748031497
        },
        {
          "duration": 0.44117624999999805,
          "durationTicks": 72,
          "midi": 62,
          "name": "D4",
          "ticks": 11232,
          "time": 68.82349500000001,
          "velocity": 0.7874015748031497
        },
        {
          "duration": 0.44117624999999805,
          "durationTicks": 72,
          "midi": 55,
          "name": "G3",
          "ticks": 11304,
          "time": 69.26467125,
          "velocity": 0.7874015748031497
        },
        {
          "duration": 0.44117624999999805,
          "durationTicks": 72,
          "midi": 60,
          "name": "C4",
          "ticks": 11304,
          "time": 69.26467125,
          "velocity": 0.7874015748031497
        },
        {
          "duration": 0.44117624999999805,
          "durationTicks": 72,
          "midi": 72,
          "name": "C5",
          "ticks": 11304,
          "time": 69.26467125,
          "velocity": 0.6377952755905512
        },
        {
          "duration": 0.8823524999999961,
          "durationTicks": 144,
          "midi": 69,
          "name": "A4",
          "ticks": 11376,
          "time": 69.7058475,
          "velocity": 0.6377952755905512
        },
        {
          "duration": 0.8823524999999961,
          "durationTicks": 144,
          "midi": 53,
          "name": "F3",
          "ticks": 11376,
          "time": 69.7058475,
          "velocity": 0.7874015748031497
        },
        {
          "duration": 0.8823524999999961,
          "durationTicks": 144,
          "midi": 57,
          "name": "A3",
          "ticks": 11376,
          "time": 69.7058475,
          "velocity": 0.7874015748031497
        },
        {
          "duration": 0.2941174999999987,
          "durationTicks": 48,
          "midi": 50,
          "name": "D3",
          "ticks": 11568,
          "time": 70.88231750000001,
          "velocity": 0.7874015748031497
        },
        {
          "duration": 0.2941174999999987,
          "durationTicks": 48,
          "midi": 55,
          "name": "G3",
          "ticks": 11568,
          "time": 70.88231750000001,
          "velocity": 0.7874015748031497
        },
        {
          "duration": 0.2941174999999987,
          "durationTicks": 48,
          "midi": 67,
          "name": "G4",
          "ticks": 11568,
          "time": 70.88231750000001,
          "velocity": 0.6377952755905512
        },
        {
          "duration": 1.1764699999999948,
          "durationTicks": 192,
          "midi": 57,
          "name": "A3",
          "ticks": 11616,
          "time": 71.17643500000001,
          "velocity": 0.7874015748031497
        },
        {
          "duration": 1.1764699999999948,
          "durationTicks": 192,
          "midi": 53,
          "name": "F3",
          "ticks": 11616,
          "time": 71.17643500000001,
          "velocity": 0.7874015748031497
        },
        {
          "duration": 1.1764699999999948,
          "durationTicks": 192,
          "midi": 69,
          "name": "A4",
          "ticks": 11616,
          "time": 71.17643500000001,
          "velocity": 0.6377952755905512
        },
        {
          "duration": 0.5882349999999974,
          "durationTicks": 96,
          "midi": 55,
          "name": "G3",
          "ticks": 11808,
          "time": 72.352905,
          "velocity": 0.7874015748031497
        },
        {
          "duration": 0.5882349999999974,
          "durationTicks": 96,
          "midi": 52,
          "name": "E3",
          "ticks": 11808,
          "time": 72.352905,
          "velocity": 0.7874015748031497
        },
        {
          "duration": 0.5882349999999974,
          "durationTicks": 96,
          "midi": 67,
          "name": "G4",
          "ticks": 11808,
          "time": 72.352905,
          "velocity": 0.6377952755905512
        },
        {
          "duration": 0.5882349999999974,
          "durationTicks": 96,
          "midi": 70,
          "name": "A#4",
          "ticks": 11904,
          "time": 72.94114,
          "velocity": 0.6377952755905512
        },
        {
          "duration": 0.5882349999999974,
          "durationTicks": 96,
          "midi": 53,
          "name": "F3",
          "ticks": 11904,
          "time": 72.94114,
          "velocity": 0.7874015748031497
        },
        {
          "duration": 0.5882349999999974,
          "durationTicks": 96,
          "midi": 58,
          "name": "A#3",
          "ticks": 11904,
          "time": 72.94114,
          "velocity": 0.7874015748031497
        },
        {
          "duration": 1.176470000000009,
          "durationTicks": 192,
          "midi": 57,
          "name": "A3",
          "ticks": 12000,
          "time": 73.529375,
          "velocity": 0.7874015748031497
        },
        {
          "duration": 1.176470000000009,
          "durationTicks": 192,
          "midi": 53,
          "name": "F3",
          "ticks": 12000,
          "time": 73.529375,
          "velocity": 0.7874015748031497
        },
        {
          "duration": 1.176470000000009,
          "durationTicks": 192,
          "midi": 69,
          "name": "A4",
          "ticks": 12000,
          "time": 73.529375,
          "velocity": 0.6377952755905512
        },
        {
          "duration": 0.8823524999999961,
          "durationTicks": 144,
          "midi": 67,
          "name": "G4",
          "ticks": 12192,
          "time": 74.70584500000001,
          "velocity": 0.6377952755905512
        },
        {
          "duration": 0.8823524999999961,
          "durationTicks": 144,
          "midi": 52,
          "name": "E3",
          "ticks": 12192,
          "time": 74.70584500000001,
          "velocity": 0.7874015748031497
        },
        {
          "duration": 0.8823524999999961,
          "durationTicks": 144,
          "midi": 55,
          "name": "G3",
          "ticks": 12192,
          "time": 74.70584500000001,
          "velocity": 0.7874015748031497
        },
        {
          "duration": 0.2941174999999987,
          "durationTicks": 48,
          "midi": 52,
          "name": "E3",
          "ticks": 12336,
          "time": 75.5881975,
          "velocity": 0.7874015748031497
        },
        {
          "duration": 0.2941174999999987,
          "durationTicks": 48,
          "midi": 64,
          "name": "E4",
          "ticks": 12336,
          "time": 75.5881975,
          "velocity": 0.6377952755905512
        },
        {
          "duration": 0.2941174999999987,
          "durationTicks": 48,
          "midi": 48,
          "name": "C3",
          "ticks": 12336,
          "time": 75.5881975,
          "velocity": 0.7874015748031497
        },
        {
          "duration": 0.44117624999999805,
          "durationTicks": 72,
          "midi": 57,
          "name": "A3",
          "ticks": 12384,
          "time": 75.882315,
          "velocity": 0.7874015748031497
        },
        {
          "duration": 0.44117624999999805,
          "durationTicks": 72,
          "midi": 53,
          "name": "F3",
          "ticks": 12384,
          "time": 75.882315,
          "velocity": 0.7874015748031497
        },
        {
          "duration": 0.44117624999999805,
          "durationTicks": 72,
          "midi": 69,
          "name": "A4",
          "ticks": 12384,
          "time": 75.882315,
          "velocity": 0.6377952755905512
        },
        {
          "duration": 0.44117624999999805,
          "durationTicks": 72,
          "midi": 55,
          "name": "G3",
          "ticks": 12456,
          "time": 76.32349125,
          "velocity": 0.7874015748031497
        },
        {
          "duration": 0.44117624999999805,
          "durationTicks": 72,
          "midi": 52,
          "name": "E3",
          "ticks": 12456,
          "time": 76.32349125,
          "velocity": 0.7874015748031497
        },
        {
          "duration": 0.44117624999999805,
          "durationTicks": 72,
          "midi": 67,
          "name": "G4",
          "ticks": 12456,
          "time": 76.32349125,
          "velocity": 0.6377952755905512
        },
        {
          "duration": 0.5882350000000116,
          "durationTicks": 96,
          "midi": 57,
          "name": "A3",
          "ticks": 12528,
          "time": 76.7646675,
          "velocity": 0.7874015748031497
        },
        {
          "duration": 0.5882350000000116,
          "durationTicks": 96,
          "midi": 53,
          "name": "F3",
          "ticks": 12528,
          "time": 76.7646675,
          "velocity": 0.7874015748031497
        },
        {
          "duration": 0.5882350000000116,
          "durationTicks": 96,
          "midi": 69,
          "name": "A4",
          "ticks": 12528,
          "time": 76.7646675,
          "velocity": 0.6377952755905512
        },
        {
          "duration": 0.2941174999999987,
          "durationTicks": 48,
          "midi": 67,
          "name": "G4",
          "ticks": 12624,
          "time": 77.35290250000001,
          "velocity": 0.6377952755905512
        },
        {
          "duration": 0.2941174999999987,
          "durationTicks": 48,
          "midi": 52,
          "name": "E3",
          "ticks": 12624,
          "time": 77.35290250000001,
          "velocity": 0.7874015748031497
        },
        {
          "duration": 0.2941174999999987,
          "durationTicks": 48,
          "midi": 55,
          "name": "G3",
          "ticks": 12624,
          "time": 77.35290250000001,
          "velocity": 0.7874015748031497
        },
        {
          "duration": 0.2941174999999987,
          "durationTicks": 48,
          "midi": 52,
          "name": "E3",
          "ticks": 12672,
          "time": 77.64702000000001,
          "velocity": 0.7874015748031497
        },
        {
          "duration": 0.2941174999999987,
          "durationTicks": 48,
          "midi": 67,
          "name": "G4",
          "ticks": 12672,
          "time": 77.64702000000001,
          "velocity": 0.6377952755905512
        },
        {
          "duration": 0.2941174999999987,
          "durationTicks": 48,
          "midi": 55,
          "name": "G3",
          "ticks": 12672,
          "time": 77.64702000000001,
          "velocity": 0.7874015748031497
        },
        {
          "duration": 0.2941174999999987,
          "durationTicks": 48,
          "midi": 55,
          "name": "G3",
          "ticks": 12720,
          "time": 77.94113750000001,
          "velocity": 0.7874015748031497
        },
        {
          "duration": 0.2941174999999987,
          "durationTicks": 48,
          "midi": 52,
          "name": "E3",
          "ticks": 12720,
          "time": 77.94113750000001,
          "velocity": 0.7874015748031497
        },
        {
          "duration": 0.2941174999999987,
          "durationTicks": 48,
          "midi": 67,
          "name": "G4",
          "ticks": 12720,
          "time": 77.94113750000001,
          "velocity": 0.6377952755905512
        },
        {
          "duration": 0.44117624999999805,
          "durationTicks": 72,
          "midi": 53,
          "name": "F3",
          "ticks": 12768,
          "time": 78.23525500000001,
          "velocity": 0.7874015748031497
        },
        {
          "duration": 0.44117624999999805,
          "durationTicks": 72,
          "midi": 57,
          "name": "A3",
          "ticks": 12768,
          "time": 78.23525500000001,
          "velocity": 0.7874015748031497
        },
        {
          "duration": 0.44117624999999805,
          "durationTicks": 72,
          "midi": 69,
          "name": "A4",
          "ticks": 12768,
          "time": 78.23525500000001,
          "velocity": 0.6377952755905512
        },
        {
          "duration": 0.44117624999999805,
          "durationTicks": 72,
          "midi": 52,
          "name": "E3",
          "ticks": 12840,
          "time": 78.67643125000001,
          "velocity": 0.7874015748031497
        },
        {
          "duration": 0.44117624999999805,
          "durationTicks": 72,
          "midi": 67,
          "name": "G4",
          "ticks": 12840,
          "time": 78.67643125000001,
          "velocity": 0.6377952755905512
        },
        {
          "duration": 0.44117624999999805,
          "durationTicks": 72,
          "midi": 55,
          "name": "G3",
          "ticks": 12840,
          "time": 78.67643125000001,
          "velocity": 0.7874015748031497
        },
        {
          "duration": 1.4705875000000077,
          "durationTicks": 240,
          "midi": 57,
          "name": "A3",
          "ticks": 12912,
          "time": 79.1176075,
          "velocity": 0.7874015748031497
        },
        {
          "duration": 1.4705875000000077,
          "durationTicks": 240,
          "midi": 53,
          "name": "F3",
          "ticks": 12912,
          "time": 79.1176075,
          "velocity": 0.7874015748031497
        },
        {
          "duration": 1.4705875000000077,
          "durationTicks": 240,
          "midi": 69,
          "name": "A4",
          "ticks": 12912,
          "time": 79.1176075,
          "velocity": 0.6377952755905512
        },
        {
          "duration": 0.2941174999999987,
          "durationTicks": 48,
          "midi": 74,
          "name": "D5",
          "ticks": 16944,
          "time": 103.82347750000001,
          "velocity": 0.6377952755905512
        },
        {
          "duration": 0.2941174999999987,
          "durationTicks": 48,
          "midi": 62,
          "name": "D4",
          "ticks": 16944,
          "time": 103.82347750000001,
          "velocity": 0.7874015748031497
        },
        {
          "duration": 0.2941174999999987,
          "durationTicks": 48,
          "midi": 57,
          "name": "A3",
          "ticks": 16944,
          "time": 103.82347750000001,
          "velocity": 0.7874015748031497
        },
        {
          "duration": 0.2941174999999987,
          "durationTicks": 48,
          "midi": 57,
          "name": "A3",
          "ticks": 16992,
          "time": 104.11759500000001,
          "velocity": 0.7874015748031497
        },
        {
          "duration": 0.2941174999999987,
          "durationTicks": 48,
          "midi": 62,
          "name": "D4",
          "ticks": 16992,
          "time": 104.11759500000001,
          "velocity": 0.7874015748031497
        },
        {
          "duration": 0.2941174999999987,
          "durationTicks": 48,
          "midi": 74,
          "name": "D5",
          "ticks": 16992,
          "time": 104.11759500000001,
          "velocity": 0.6377952755905512
        },
        {
          "duration": 0.2941174999999987,
          "durationTicks": 48,
          "midi": 72,
          "name": "C5",
          "ticks": 17040,
          "time": 104.41171250000001,
          "velocity": 0.6377952755905512
        },
        {
          "duration": 0.2941174999999987,
          "durationTicks": 48,
          "midi": 60,
          "name": "C4",
          "ticks": 17040,
          "time": 104.41171250000001,
          "velocity": 0.7874015748031497
        },
        {
          "duration": 0.2941174999999987,
          "durationTicks": 48,
          "midi": 55,
          "name": "G3",
          "ticks": 17040,
          "time": 104.41171250000001,
          "velocity": 0.7874015748031497
        },
        {
          "duration": 0.2941174999999987,
          "durationTicks": 48,
          "midi": 70,
          "name": "A#4",
          "ticks": 17088,
          "time": 104.70583,
          "velocity": 0.6377952755905512
        },
        {
          "duration": 0.2941174999999987,
          "durationTicks": 48,
          "midi": 58,
          "name": "A#3",
          "ticks": 17088,
          "time": 104.70583,
          "velocity": 0.7874015748031497
        },
        {
          "duration": 0.2941174999999987,
          "durationTicks": 48,
          "midi": 55,
          "name": "G3",
          "ticks": 17088,
          "time": 104.70583,
          "velocity": 0.7874015748031497
        },
        {
          "duration": 0.8823525000000103,
          "durationTicks": 144,
          "midi": 74,
          "name": "D5",
          "ticks": 17136,
          "time": 104.9999475,
          "velocity": 0.6377952755905512
        },
        {
          "duration": 0.8823525000000103,
          "durationTicks": 144,
          "midi": 62,
          "name": "D4",
          "ticks": 17136,
          "time": 104.9999475,
          "velocity": 0.7874015748031497
        },
        {
          "duration": 0.8823525000000103,
          "durationTicks": 144,
          "midi": 58,
          "name": "A#3",
          "ticks": 17136,
          "time": 104.9999475,
          "velocity": 0.7874015748031497
        },
        {
          "duration": 0.2941174999999987,
          "durationTicks": 48,
          "midi": 74,
          "name": "D5",
          "ticks": 17328,
          "time": 106.17641750000001,
          "velocity": 0.6377952755905512
        },
        {
          "duration": 0.2941174999999987,
          "durationTicks": 48,
          "midi": 62,
          "name": "D4",
          "ticks": 17328,
          "time": 106.17641750000001,
          "velocity": 0.7874015748031497
        },
        {
          "duration": 0.2941174999999987,
          "durationTicks": 48,
          "midi": 57,
          "name": "A3",
          "ticks": 17328,
          "time": 106.17641750000001,
          "velocity": 0.7874015748031497
        },
        {
          "duration": 0.2941174999999987,
          "durationTicks": 48,
          "midi": 62,
          "name": "D4",
          "ticks": 17376,
          "time": 106.47053500000001,
          "velocity": 0.7874015748031497
        },
        {
          "duration": 0.2941174999999987,
          "durationTicks": 48,
          "midi": 57,
          "name": "A3",
          "ticks": 17376,
          "time": 106.47053500000001,
          "velocity": 0.7874015748031497
        },
        {
          "duration": 0.2941174999999987,
          "durationTicks": 48,
          "midi": 74,
          "name": "D5",
          "ticks": 17376,
          "time": 106.47053500000001,
          "velocity": 0.6377952755905512
        },
        {
          "duration": 0.2941174999999987,
          "durationTicks": 48,
          "midi": 72,
          "name": "C5",
          "ticks": 17424,
          "time": 106.76465250000001,
          "velocity": 0.6377952755905512
        },
        {
          "duration": 0.2941174999999987,
          "durationTicks": 48,
          "midi": 55,
          "name": "G3",
          "ticks": 17424,
          "time": 106.76465250000001,
          "velocity": 0.7874015748031497
        },
        {
          "duration": 0.2941174999999987,
          "durationTicks": 48,
          "midi": 60,
          "name": "C4",
          "ticks": 17424,
          "time": 106.76465250000001,
          "velocity": 0.7874015748031497
        },
        {
          "duration": 0.2941174999999987,
          "durationTicks": 48,
          "midi": 70,
          "name": "A#4",
          "ticks": 17472,
          "time": 107.05877000000001,
          "velocity": 0.6377952755905512
        },
        {
          "duration": 0.2941174999999987,
          "durationTicks": 48,
          "midi": 55,
          "name": "G3",
          "ticks": 17472,
          "time": 107.05877000000001,
          "velocity": 0.7874015748031497
        },
        {
          "duration": 0.2941174999999987,
          "durationTicks": 48,
          "midi": 58,
          "name": "A#3",
          "ticks": 17472,
          "time": 107.05877000000001,
          "velocity": 0.7874015748031497
        },
        {
          "duration": 0.8823524999999961,
          "durationTicks": 144,
          "midi": 58,
          "name": "A#3",
          "ticks": 17520,
          "time": 107.35288750000001,
          "velocity": 0.7874015748031497
        },
        {
          "duration": 0.8823524999999961,
          "durationTicks": 144,
          "midi": 62,
          "name": "D4",
          "ticks": 17520,
          "time": 107.35288750000001,
          "velocity": 0.7874015748031497
        },
        {
          "duration": 0.8823524999999961,
          "durationTicks": 144,
          "midi": 74,
          "name": "D5",
          "ticks": 17520,
          "time": 107.35288750000001,
          "velocity": 0.6377952755905512
        },
        {
          "duration": 0.2941174999999987,
          "durationTicks": 48,
          "midi": 62,
          "name": "D4",
          "ticks": 17712,
          "time": 108.52935750000002,
          "velocity": 0.7874015748031497
        },
        {
          "duration": 0.2941174999999987,
          "durationTicks": 48,
          "midi": 57,
          "name": "A3",
          "ticks": 17712,
          "time": 108.52935750000002,
          "velocity": 0.7874015748031497
        },
        {
          "duration": 0.2941174999999987,
          "durationTicks": 48,
          "midi": 74,
          "name": "D5",
          "ticks": 17712,
          "time": 108.52935750000002,
          "velocity": 0.6377952755905512
        },
        {
          "duration": 0.2941174999999987,
          "durationTicks": 48,
          "midi": 74,
          "name": "D5",
          "ticks": 17760,
          "time": 108.82347500000002,
          "velocity": 0.6377952755905512
        },
        {
          "duration": 0.2941174999999987,
          "durationTicks": 48,
          "midi": 57,
          "name": "A3",
          "ticks": 17760,
          "time": 108.82347500000002,
          "velocity": 0.7874015748031497
        },
        {
          "duration": 0.2941174999999987,
          "durationTicks": 48,
          "midi": 62,
          "name": "D4",
          "ticks": 17760,
          "time": 108.82347500000002,
          "velocity": 0.7874015748031497
        },
        {
          "duration": 0.2941174999999987,
          "durationTicks": 48,
          "midi": 75,
          "name": "D#5",
          "ticks": 17808,
          "time": 109.11759250000001,
          "velocity": 0.6377952755905512
        },
        {
          "duration": 0.2941174999999987,
          "durationTicks": 48,
          "midi": 63,
          "name": "D#4",
          "ticks": 17808,
          "time": 109.11759250000001,
          "velocity": 0.7874015748031497
        },
        {
          "duration": 0.2941174999999987,
          "durationTicks": 48,
          "midi": 58,
          "name": "A#3",
          "ticks": 17808,
          "time": 109.11759250000001,
          "velocity": 0.7874015748031497
        },
        {
          "duration": 0.2941174999999987,
          "durationTicks": 48,
          "midi": 53,
          "name": "F3",
          "ticks": 17856,
          "time": 109.41171000000001,
          "velocity": 0.7874015748031497
        },
        {
          "duration": 0.2941174999999987,
          "durationTicks": 48,
          "midi": 58,
          "name": "A#3",
          "ticks": 17856,
          "time": 109.41171000000001,
          "velocity": 0.7874015748031497
        },
        {
          "duration": 0.2941174999999987,
          "durationTicks": 48,
          "midi": 70,
          "name": "A#4",
          "ticks": 17856,
          "time": 109.41171000000001,
          "velocity": 0.6377952755905512
        },
        {
          "duration": 0.5882349999999974,
          "durationTicks": 96,
          "midi": 58,
          "name": "A#3",
          "ticks": 17904,
          "time": 109.70582750000001,
          "velocity": 0.7874015748031497
        },
        {
          "duration": 0.5882349999999974,
          "durationTicks": 96,
          "midi": 53,
          "name": "F3",
          "ticks": 17904,
          "time": 109.70582750000001,
          "velocity": 0.7874015748031497
        },
        {
          "duration": 0.5882349999999974,
          "durationTicks": 96,
          "midi": 70,
          "name": "A#4",
          "ticks": 17904,
          "time": 109.70582750000001,
          "velocity": 0.6377952755905512
        },
        {
          "duration": 0.5882349999999974,
          "durationTicks": 96,
          "midi": 60,
          "name": "C4",
          "ticks": 18000,
          "time": 110.29406250000001,
          "velocity": 0.7874015748031497
        },
        {
          "duration": 0.5882349999999974,
          "durationTicks": 96,
          "midi": 55,
          "name": "G3",
          "ticks": 18000,
          "time": 110.29406250000001,
          "velocity": 0.7874015748031497
        },
        {
          "duration": 0.5882349999999974,
          "durationTicks": 96,
          "midi": 72,
          "name": "C5",
          "ticks": 18000,
          "time": 110.29406250000001,
          "velocity": 0.6377952755905512
        },
        {
          "duration": 1.176470000000009,
          "durationTicks": 192,
          "midi": 82,
          "name": "A#5",
          "ticks": 18096,
          "time": 110.8822975,
          "velocity": 0.6377952755905512
        },
        {
          "duration": 1.176470000000009,
          "durationTicks": 192,
          "midi": 58,
          "name": "A#3",
          "ticks": 18096,
          "time": 110.8822975,
          "velocity": 0.7874015748031497
        },
        {
          "duration": 1.176470000000009,
          "durationTicks": 192,
          "midi": 62,
          "name": "D4",
          "ticks": 18096,
          "time": 110.8822975,
          "velocity": 0.7874015748031497
        },
        {
          "duration": 1.1764699999999948,
          "durationTicks": 192,
          "midi": 60,
          "name": "C4",
          "ticks": 18288,
          "time": 112.05876750000002,
          "velocity": 0.7874015748031497
        },
        {
          "duration": 1.1764699999999948,
          "durationTicks": 192,
          "midi": 55,
          "name": "G3",
          "ticks": 18288,
          "time": 112.05876750000002,
          "velocity": 0.7874015748031497
        },
        {
          "duration": 1.1764699999999948,
          "durationTicks": 192,
          "midi": 81,
          "name": "A5",
          "ticks": 18288,
          "time": 112.05876750000002,
          "velocity": 0.6377952755905512
        },
        {
          "duration": 0.2941174999999987,
          "durationTicks": 48,
          "midi": 74,
          "name": "D5",
          "ticks": 18480,
          "time": 113.23523750000001,
          "velocity": 0.6377952755905512
        },
        {
          "duration": 0.2941174999999987,
          "durationTicks": 48,
          "midi": 57,
          "name": "A3",
          "ticks": 18480,
          "time": 113.23523750000001,
          "velocity": 0.7874015748031497
        },
        {
          "duration": 0.2941174999999987,
          "durationTicks": 48,
          "midi": 62,
          "name": "D4",
          "ticks": 18480,
          "time": 113.23523750000001,
          "velocity": 0.7874015748031497
        },
        {
          "duration": 0.2941174999999987,
          "durationTicks": 48,
          "midi": 57,
          "name": "A3",
          "ticks": 18528,
          "time": 113.52935500000001,
          "velocity": 0.7874015748031497
        },
        {
          "duration": 0.2941174999999987,
          "durationTicks": 48,
          "midi": 62,
          "name": "D4",
          "ticks": 18528,
          "time": 113.52935500000001,
          "velocity": 0.7874015748031497
        },
        {
          "duration": 0.2941174999999987,
          "durationTicks": 48,
          "midi": 74,
          "name": "D5",
          "ticks": 18528,
          "time": 113.52935500000001,
          "velocity": 0.6377952755905512
        },
        {
          "duration": 0.2941174999999987,
          "durationTicks": 48,
          "midi": 72,
          "name": "C5",
          "ticks": 18576,
          "time": 113.82347250000001,
          "velocity": 0.6377952755905512
        },
        {
          "duration": 0.2941174999999987,
          "durationTicks": 48,
          "midi": 60,
          "name": "C4",
          "ticks": 18576,
          "time": 113.82347250000001,
          "velocity": 0.7874015748031497
        },
        {
          "duration": 0.2941174999999987,
          "durationTicks": 48,
          "midi": 55,
          "name": "G3",
          "ticks": 18576,
          "time": 113.82347250000001,
          "velocity": 0.7874015748031497
        },
        {
          "duration": 0.2941174999999987,
          "durationTicks": 48,
          "midi": 70,
          "name": "A#4",
          "ticks": 18624,
          "time": 114.11759,
          "velocity": 0.6377952755905512
        },
        {
          "duration": 0.2941174999999987,
          "durationTicks": 48,
          "midi": 55,
          "name": "G3",
          "ticks": 18624,
          "time": 114.11759,
          "velocity": 0.7874015748031497
        },
        {
          "duration": 0.2941174999999987,
          "durationTicks": 48,
          "midi": 58,
          "name": "A#3",
          "ticks": 18624,
          "time": 114.11759,
          "velocity": 0.7874015748031497
        },
        {
          "duration": 0.8823525000000103,
          "durationTicks": 144,
          "midi": 74,
          "name": "D5",
          "ticks": 18672,
          "time": 114.4117075,
          "velocity": 0.6377952755905512
        },
        {
          "duration": 0.8823525000000103,
          "durationTicks": 144,
          "midi": 58,
          "name": "A#3",
          "ticks": 18672,
          "time": 114.4117075,
          "velocity": 0.7874015748031497
        },
        {
          "duration": 0.8823525000000103,
          "durationTicks": 144,
          "midi": 62,
          "name": "D4",
          "ticks": 18672,
          "time": 114.4117075,
          "velocity": 0.7874015748031497
        },
        {
          "duration": 0.2941174999999987,
          "durationTicks": 48,
          "midi": 60,
          "name": "C4",
          "ticks": 18864,
          "time": 115.58817750000001,
          "velocity": 0.7874015748031497
        },
        {
          "duration": 0.2941174999999987,
          "durationTicks": 48,
          "midi": 76,
          "name": "E5",
          "ticks": 18864,
          "time": 115.58817750000001,
          "velocity": 0.6377952755905512
        },
        {
          "duration": 0.2941174999999987,
          "durationTicks": 48,
          "midi": 64,
          "name": "E4",
          "ticks": 18864,
          "time": 115.58817750000001,
          "velocity": 0.7874015748031497
        },
        {
          "duration": 0.2941174999999987,
          "durationTicks": 48,
          "midi": 60,
          "name": "C4",
          "ticks": 18912,
          "time": 115.88229500000001,
          "velocity": 0.7874015748031497
        },
        {
          "duration": 0.2941174999999987,
          "durationTicks": 48,
          "midi": 65,
          "name": "F4",
          "ticks": 18912,
          "time": 115.88229500000001,
          "velocity": 0.7874015748031497
        },
        {
          "duration": 0.2941174999999987,
          "durationTicks": 48,
          "midi": 77,
          "name": "F5",
          "ticks": 18912,
          "time": 115.88229500000001,
          "velocity": 0.6377952755905512
        },
        {
          "duration": 0.2941174999999987,
          "durationTicks": 48,
          "midi": 60,
          "name": "C4",
          "ticks": 18960,
          "time": 116.17641250000001,
          "velocity": 0.7874015748031497
        },
        {
          "duration": 0.2941174999999987,
          "durationTicks": 48,
          "midi": 76,
          "name": "E5",
          "ticks": 18960,
          "time": 116.17641250000001,
          "velocity": 0.6377952755905512
        },
        {
          "duration": 0.2941174999999987,
          "durationTicks": 48,
          "midi": 64,
          "name": "E4",
          "ticks": 18960,
          "time": 116.17641250000001,
          "velocity": 0.7874015748031497
        },
        {
          "duration": 0.2941174999999987,
          "durationTicks": 48,
          "midi": 70,
          "name": "A#4",
          "ticks": 19008,
          "time": 116.47053000000001,
          "velocity": 0.6377952755905512
        },
        {
          "duration": 0.2941174999999987,
          "durationTicks": 48,
          "midi": 55,
          "name": "G3",
          "ticks": 19008,
          "time": 116.47053000000001,
          "velocity": 0.7874015748031497
        },
        {
          "duration": 0.2941174999999987,
          "durationTicks": 48,
          "midi": 58,
          "name": "A#3",
          "ticks": 19008,
          "time": 116.47053000000001,
          "velocity": 0.7874015748031497
        },
        {
          "duration": 0.8823525000000103,
          "durationTicks": 144,
          "midi": 58,
          "name": "A#3",
          "ticks": 19056,
          "time": 116.76464750000001,
          "velocity": 0.7874015748031497
        },
        {
          "duration": 0.8823525000000103,
          "durationTicks": 144,
          "midi": 62,
          "name": "D4",
          "ticks": 19056,
          "time": 116.76464750000001,
          "velocity": 0.7874015748031497
        },
        {
          "duration": 0.8823525000000103,
          "durationTicks": 144,
          "midi": 74,
          "name": "D5",
          "ticks": 19056,
          "time": 116.76464750000001,
          "velocity": 0.6377952755905512
        },
        {
          "duration": 0.2941174999999987,
          "durationTicks": 48,
          "midi": 64,
          "name": "E4",
          "ticks": 19248,
          "time": 117.94111750000002,
          "velocity": 0.7874015748031497
        },
        {
          "duration": 0.2941174999999987,
          "durationTicks": 48,
          "midi": 59,
          "name": "B3",
          "ticks": 19248,
          "time": 117.94111750000002,
          "velocity": 0.7874015748031497
        },
        {
          "duration": 0.2941174999999987,
          "durationTicks": 48,
          "midi": 76,
          "name": "E5",
          "ticks": 19248,
          "time": 117.94111750000002,
          "velocity": 0.6377952755905512
        },
        {
          "duration": 0.2941174999999987,
          "durationTicks": 48,
          "midi": 63,
          "name": "D#4",
          "ticks": 19296,
          "time": 118.23523500000002,
          "velocity": 0.7874015748031497
        },
        {
          "duration": 0.2941174999999987,
          "durationTicks": 48,
          "midi": 67,
          "name": "G4",
          "ticks": 19296,
          "time": 118.23523500000002,
          "velocity": 0.7874015748031497
        },
        {
          "duration": 0.2941174999999987,
          "durationTicks": 48,
          "midi": 79,
          "name": "G5",
          "ticks": 19296,
          "time": 118.23523500000002,
          "velocity": 0.6377952755905512
        },
        {
          "duration": 0.2941174999999987,
          "durationTicks": 48,
          "midi": 63,
          "name": "D#4",
          "ticks": 19344,
          "time": 118.52935250000002,
          "velocity": 0.7874015748031497
        },
        {
          "duration": 0.2941174999999987,
          "durationTicks": 48,
          "midi": 67,
          "name": "G4",
          "ticks": 19344,
          "time": 118.52935250000002,
          "velocity": 0.7874015748031497
        },
        {
          "duration": 0.2941174999999987,
          "durationTicks": 48,
          "midi": 79,
          "name": "G5",
          "ticks": 19344,
          "time": 118.52935250000002,
          "velocity": 0.6377952755905512
        },
        {
          "duration": 0.2941174999999987,
          "durationTicks": 48,
          "midi": 63,
          "name": "D#4",
          "ticks": 19392,
          "time": 118.82347000000001,
          "velocity": 0.7874015748031497
        },
        {
          "duration": 0.2941174999999987,
          "durationTicks": 48,
          "midi": 67,
          "name": "G4",
          "ticks": 19392,
          "time": 118.82347000000001,
          "velocity": 0.7874015748031497
        },
        {
          "duration": 0.2941174999999987,
          "durationTicks": 48,
          "midi": 79,
          "name": "G5",
          "ticks": 19392,
          "time": 118.82347000000001,
          "velocity": 0.6377952755905512
        },
        {
          "duration": 0.5882349999999974,
          "durationTicks": 96,
          "midi": 67,
          "name": "G4",
          "ticks": 19440,
          "time": 119.11758750000001,
          "velocity": 0.7874015748031497
        },
        {
          "duration": 0.5882349999999974,
          "durationTicks": 96,
          "midi": 63,
          "name": "D#4",
          "ticks": 19440,
          "time": 119.11758750000001,
          "velocity": 0.7874015748031497
        },
        {
          "duration": 0.5882349999999974,
          "durationTicks": 96,
          "midi": 79,
          "name": "G5",
          "ticks": 19440,
          "time": 119.11758750000001,
          "velocity": 0.6377952755905512
        },
        {
          "duration": 0.5882349999999974,
          "durationTicks": 96,
          "midi": 77,
          "name": "F5",
          "ticks": 19536,
          "time": 119.70582250000001,
          "velocity": 0.6377952755905512
        },
        {
          "duration": 0.5882349999999974,
          "durationTicks": 96,
          "midi": 65,
          "name": "F4",
          "ticks": 19536,
          "time": 119.70582250000001,
          "velocity": 0.7874015748031497
        },
        {
          "duration": 0.5882349999999974,
          "durationTicks": 96,
          "midi": 60,
          "name": "C4",
          "ticks": 19536,
          "time": 119.70582250000001,
          "velocity": 0.7874015748031497
        },
        {
          "duration": 2.352940000000004,
          "durationTicks": 384,
          "midi": 63,
          "name": "D#4",
          "ticks": 19632,
          "time": 120.29405750000001,
          "velocity": 0.7874015748031497
        },
        {
          "duration": 2.352940000000004,
          "durationTicks": 384,
          "midi": 79,
          "name": "G5",
          "ticks": 19632,
          "time": 120.29405750000001,
          "velocity": 0.6377952755905512
        },
        {
          "duration": 2.352940000000004,
          "durationTicks": 384,
          "midi": 67,
          "name": "G4",
          "ticks": 19632,
          "time": 120.29405750000001,
          "velocity": 0.7874015748031497
        },
        {
          "duration": 0.2941174999999987,
          "durationTicks": 48,
          "midi": 55,
          "name": "G3",
          "ticks": 20016,
          "time": 122.64699750000001,
          "velocity": 0.7874015748031497
        },
        {
          "duration": 0.2941174999999987,
          "durationTicks": 48,
          "midi": 60,
          "name": "C4",
          "ticks": 20016,
          "time": 122.64699750000001,
          "velocity": 0.7874015748031497
        },
        {
          "duration": 0.2941174999999987,
          "durationTicks": 48,
          "midi": 72,
          "name": "C5",
          "ticks": 20016,
          "time": 122.64699750000001,
          "velocity": 0.6377952755905512
        },
        {
          "duration": 0.44117624999999805,
          "durationTicks": 72,
          "midi": 55,
          "name": "G3",
          "ticks": 20064,
          "time": 122.94111500000001,
          "velocity": 0.7874015748031497
        },
        {
          "duration": 0.44117624999999805,
          "durationTicks": 72,
          "midi": 62,
          "name": "D4",
          "ticks": 20064,
          "time": 122.94111500000001,
          "velocity": 0.7874015748031497
        },
        {
          "duration": 0.44117624999999805,
          "durationTicks": 72,
          "midi": 74,
          "name": "D5",
          "ticks": 20064,
          "time": 122.94111500000001,
          "velocity": 0.6377952755905512
        },
        {
          "duration": 0.44117624999999805,
          "durationTicks": 72,
          "midi": 72,
          "name": "C5",
          "ticks": 20136,
          "time": 123.38229125000001,
          "velocity": 0.6377952755905512
        },
        {
          "duration": 0.44117624999999805,
          "durationTicks": 72,
          "midi": 60,
          "name": "C4",
          "ticks": 20136,
          "time": 123.38229125000001,
          "velocity": 0.7874015748031497
        },
        {
          "duration": 0.44117624999999805,
          "durationTicks": 72,
          "midi": 55,
          "name": "G3",
          "ticks": 20136,
          "time": 123.38229125000001,
          "velocity": 0.7874015748031497
        },
        {
          "duration": 0.5882350000000116,
          "durationTicks": 96,
          "midi": 55,
          "name": "G3",
          "ticks": 20208,
          "time": 123.8234675,
          "velocity": 0.7874015748031497
        },
        {
          "duration": 0.5882350000000116,
          "durationTicks": 96,
          "midi": 58,
          "name": "A#3",
          "ticks": 20208,
          "time": 123.8234675,
          "velocity": 0.7874015748031497
        },
        {
          "duration": 0.5882350000000116,
          "durationTicks": 96,
          "midi": 70,
          "name": "A#4",
          "ticks": 20208,
          "time": 123.8234675,
          "velocity": 0.6377952755905512
        },
        {
          "duration": 0.2941174999999987,
          "durationTicks": 48,
          "midi": 55,
          "name": "G3",
          "ticks": 20304,
          "time": 124.41170250000002,
          "velocity": 0.7874015748031497
        },
        {
          "duration": 0.2941174999999987,
          "durationTicks": 48,
          "midi": 58,
          "name": "A#3",
          "ticks": 20304,
          "time": 124.41170250000002,
          "velocity": 0.7874015748031497
        },
        {
          "duration": 0.2941174999999987,
          "durationTicks": 48,
          "midi": 70,
          "name": "A#4",
          "ticks": 20304,
          "time": 124.41170250000002,
          "velocity": 0.6377952755905512
        },
        {
          "duration": 0.2941174999999987,
          "durationTicks": 48,
          "midi": 55,
          "name": "G3",
          "ticks": 20352,
          "time": 124.70582000000002,
          "velocity": 0.7874015748031497
        },
        {
          "duration": 0.2941174999999987,
          "durationTicks": 48,
          "midi": 58,
          "name": "A#3",
          "ticks": 20352,
          "time": 124.70582000000002,
          "velocity": 0.7874015748031497
        },
        {
          "duration": 0.2941174999999987,
          "durationTicks": 48,
          "midi": 70,
          "name": "A#4",
          "ticks": 20352,
          "time": 124.70582000000002,
          "velocity": 0.6377952755905512
        },
        {
          "duration": 0.2941174999999987,
          "durationTicks": 48,
          "midi": 72,
          "name": "C5",
          "ticks": 20400,
          "time": 124.99993750000002,
          "velocity": 0.6377952755905512
        },
        {
          "duration": 0.2941174999999987,
          "durationTicks": 48,
          "midi": 60,
          "name": "C4",
          "ticks": 20400,
          "time": 124.99993750000002,
          "velocity": 0.7874015748031497
        },
        {
          "duration": 0.2941174999999987,
          "durationTicks": 48,
          "midi": 55,
          "name": "G3",
          "ticks": 20400,
          "time": 124.99993750000002,
          "velocity": 0.7874015748031497
        },
        {
          "duration": 0.44117624999999805,
          "durationTicks": 72,
          "midi": 74,
          "name": "D5",
          "ticks": 20448,
          "time": 125.29405500000001,
          "velocity": 0.6377952755905512
        },
        {
          "duration": 0.44117624999999805,
          "durationTicks": 72,
          "midi": 62,
          "name": "D4",
          "ticks": 20448,
          "time": 125.29405500000001,
          "velocity": 0.7874015748031497
        },
        {
          "duration": 0.44117624999999805,
          "durationTicks": 72,
          "midi": 57,
          "name": "A3",
          "ticks": 20448,
          "time": 125.29405500000001,
          "velocity": 0.7874015748031497
        },
        {
          "duration": 0.44117624999999805,
          "durationTicks": 72,
          "midi": 72,
          "name": "C5",
          "ticks": 20520,
          "time": 125.73523125000001,
          "velocity": 0.6377952755905512
        },
        {
          "duration": 0.44117624999999805,
          "durationTicks": 72,
          "midi": 57,
          "name": "A3",
          "ticks": 20520,
          "time": 125.73523125000001,
          "velocity": 0.7874015748031497
        },
        {
          "duration": 0.44117624999999805,
          "durationTicks": 72,
          "midi": 60,
          "name": "C4",
          "ticks": 20520,
          "time": 125.73523125000001,
          "velocity": 0.7874015748031497
        },
        {
          "duration": 0.5882349999999974,
          "durationTicks": 96,
          "midi": 72,
          "name": "C5",
          "ticks": 20592,
          "time": 126.17640750000001,
          "velocity": 0.6377952755905512
        },
        {
          "duration": 0.5882349999999974,
          "durationTicks": 96,
          "midi": 57,
          "name": "A3",
          "ticks": 20592,
          "time": 126.17640750000001,
          "velocity": 0.7874015748031497
        },
        {
          "duration": 0.5882349999999974,
          "durationTicks": 96,
          "midi": 60,
          "name": "C4",
          "ticks": 20592,
          "time": 126.17640750000001,
          "velocity": 0.7874015748031497
        },
        {
          "duration": 0.2941174999999987,
          "durationTicks": 48,
          "midi": 72,
          "name": "C5",
          "ticks": 20688,
          "time": 126.76464250000001,
          "velocity": 0.6377952755905512
        },
        {
          "duration": 0.2941174999999987,
          "durationTicks": 48,
          "midi": 60,
          "name": "C4",
          "ticks": 20688,
          "time": 126.76464250000001,
          "velocity": 0.7874015748031497
        },
        {
          "duration": 0.2941174999999987,
          "durationTicks": 48,
          "midi": 57,
          "name": "A3",
          "ticks": 20688,
          "time": 126.76464250000001,
          "velocity": 0.7874015748031497
        },
        {
          "duration": 0.2941175000000129,
          "durationTicks": 48,
          "midi": 72,
          "name": "C5",
          "ticks": 20736,
          "time": 127.05876,
          "velocity": 0.6377952755905512
        },
        {
          "duration": 0.2941175000000129,
          "durationTicks": 48,
          "midi": 57,
          "name": "A3",
          "ticks": 20736,
          "time": 127.05876,
          "velocity": 0.7874015748031497
        },
        {
          "duration": 0.2941175000000129,
          "durationTicks": 48,
          "midi": 60,
          "name": "C4",
          "ticks": 20736,
          "time": 127.05876,
          "velocity": 0.7874015748031497
        },
        {
          "duration": 0.2941174999999987,
          "durationTicks": 48,
          "midi": 74,
          "name": "D5",
          "ticks": 20784,
          "time": 127.35287750000002,
          "velocity": 0.6377952755905512
        },
        {
          "duration": 0.2941174999999987,
          "durationTicks": 48,
          "midi": 57,
          "name": "A3",
          "ticks": 20784,
          "time": 127.35287750000002,
          "velocity": 0.7874015748031497
        },
        {
          "duration": 0.2941174999999987,
          "durationTicks": 48,
          "midi": 62,
          "name": "D4",
          "ticks": 20784,
          "time": 127.35287750000002,
          "velocity": 0.7874015748031497
        },
        {
          "duration": 0.2941174999999987,
          "durationTicks": 48,
          "midi": 62,
          "name": "D4",
          "ticks": 20832,
          "time": 127.64699500000002,
          "velocity": 0.7874015748031497
        },
        {
          "duration": 0.2941174999999987,
          "durationTicks": 48,
          "midi": 74,
          "name": "D5",
          "ticks": 20832,
          "time": 127.64699500000002,
          "velocity": 0.6377952755905512
        },
        {
          "duration": 0.2941174999999987,
          "durationTicks": 48,
          "midi": 58,
          "name": "A#3",
          "ticks": 20832,
          "time": 127.64699500000002,
          "velocity": 0.7874015748031497
        },
        {
          "duration": 0.2941174999999845,
          "durationTicks": 48,
          "midi": 75,
          "name": "D#5",
          "ticks": 20880,
          "time": 127.94111250000002,
          "velocity": 0.6377952755905512
        },
        {
          "duration": 0.2941174999999845,
          "durationTicks": 48,
          "midi": 63,
          "name": "D#4",
          "ticks": 20880,
          "time": 127.94111250000002,
          "velocity": 0.7874015748031497
        },
        {
          "duration": 0.2941174999999845,
          "durationTicks": 48,
          "midi": 58,
          "name": "A#3",
          "ticks": 20880,
          "time": 127.94111250000002,
          "velocity": 0.7874015748031497
        },
        {
          "duration": 0.2941174999999987,
          "durationTicks": 48,
          "midi": 74,
          "name": "D5",
          "ticks": 20928,
          "time": 128.23523,
          "velocity": 0.6377952755905512
        },
        {
          "duration": 0.2941174999999987,
          "durationTicks": 48,
          "midi": 62,
          "name": "D4",
          "ticks": 20928,
          "time": 128.23523,
          "velocity": 0.7874015748031497
        },
        {
          "duration": 0.2941174999999987,
          "durationTicks": 48,
          "midi": 58,
          "name": "A#3",
          "ticks": 20928,
          "time": 128.23523,
          "velocity": 0.7874015748031497
        },
        {
          "duration": 0.5882350000000258,
          "durationTicks": 96,
          "midi": 62,
          "name": "D4",
          "ticks": 20976,
          "time": 128.5293475,
          "velocity": 0.7874015748031497
        },
        {
          "duration": 0.5882350000000258,
          "durationTicks": 96,
          "midi": 58,
          "name": "A#3",
          "ticks": 20976,
          "time": 128.5293475,
          "velocity": 0.7874015748031497
        },
        {
          "duration": 0.5882350000000258,
          "durationTicks": 96,
          "midi": 74,
          "name": "D5",
          "ticks": 20976,
          "time": 128.5293475,
          "velocity": 0.6377952755905512
        },
        {
          "duration": 0.2941174999999987,
          "durationTicks": 48,
          "midi": 74,
          "name": "D5",
          "ticks": 21072,
          "time": 129.11758250000003,
          "velocity": 0.6377952755905512
        },
        {
          "duration": 0.2941174999999987,
          "durationTicks": 48,
          "midi": 62,
          "name": "D4",
          "ticks": 21072,
          "time": 129.11758250000003,
          "velocity": 0.7874015748031497
        },
        {
          "duration": 0.2941174999999987,
          "durationTicks": 48,
          "midi": 58,
          "name": "A#3",
          "ticks": 21072,
          "time": 129.11758250000003,
          "velocity": 0.7874015748031497
        },
        {
          "duration": 0.2941174999999987,
          "durationTicks": 48,
          "midi": 74,
          "name": "D5",
          "ticks": 21120,
          "time": 129.41170000000002,
          "velocity": 0.6377952755905512
        },
        {
          "duration": 0.2941174999999987,
          "durationTicks": 48,
          "midi": 58,
          "name": "A#3",
          "ticks": 21120,
          "time": 129.41170000000002,
          "velocity": 0.7874015748031497
        },
        {
          "duration": 0.2941174999999987,
          "durationTicks": 48,
          "midi": 62,
          "name": "D4",
          "ticks": 21120,
          "time": 129.41170000000002,
          "velocity": 0.7874015748031497
        },
        {
          "duration": 0.2941174999999987,
          "durationTicks": 48,
          "midi": 58,
          "name": "A#3",
          "ticks": 21168,
          "time": 129.70581750000002,
          "velocity": 0.7874015748031497
        },
        {
          "duration": 0.2941174999999987,
          "durationTicks": 48,
          "midi": 62,
          "name": "D4",
          "ticks": 21168,
          "time": 129.70581750000002,
          "velocity": 0.7874015748031497
        },
        {
          "duration": 0.2941174999999987,
          "durationTicks": 48,
          "midi": 74,
          "name": "D5",
          "ticks": 21168,
          "time": 129.70581750000002,
          "velocity": 0.6377952755905512
        },
        {
          "duration": 0.44117624999998384,
          "durationTicks": 72,
          "midi": 79,
          "name": "G5",
          "ticks": 21216,
          "time": 129.99993500000002,
          "velocity": 0.6377952755905512
        },
        {
          "duration": 0.44117624999998384,
          "durationTicks": 72,
          "midi": 62,
          "name": "D4",
          "ticks": 21216,
          "time": 129.99993500000002,
          "velocity": 0.7874015748031497
        },
        {
          "duration": 0.44117624999998384,
          "durationTicks": 72,
          "midi": 67,
          "name": "G4",
          "ticks": 21216,
          "time": 129.99993500000002,
          "velocity": 0.7874015748031497
        },
        {
          "duration": 0.44117625000001226,
          "durationTicks": 72,
          "midi": 79,
          "name": "G5",
          "ticks": 21288,
          "time": 130.44111125,
          "velocity": 0.6377952755905512
        },
        {
          "duration": 0.44117625000001226,
          "durationTicks": 72,
          "midi": 67,
          "name": "G4",
          "ticks": 21288,
          "time": 130.44111125,
          "velocity": 0.7874015748031497
        },
        {
          "duration": 0.44117625000001226,
          "durationTicks": 72,
          "midi": 62,
          "name": "D4",
          "ticks": 21288,
          "time": 130.44111125,
          "velocity": 0.7874015748031497
        },
        {
          "duration": 1.4705874999999935,
          "durationTicks": 240,
          "midi": 70,
          "name": "A#4",
          "ticks": 21360,
          "time": 130.88228750000002,
          "velocity": 0.7874015748031497
        },
        {
          "duration": 1.4705874999999935,
          "durationTicks": 240,
          "midi": 65,
          "name": "F4",
          "ticks": 21360,
          "time": 130.88228750000002,
          "velocity": 0.7874015748031497
        },
        {
          "duration": 1.4705874999999935,
          "durationTicks": 240,
          "midi": 82,
          "name": "A#5",
          "ticks": 21360,
          "time": 130.88228750000002,
          "velocity": 0.6377952755905512
        },
        {
          "duration": 2.3529399999999896,
          "durationTicks": 384,
          "midi": 69,
          "name": "A4",
          "ticks": 21600,
          "time": 132.352875,
          "velocity": 0.7874015748031497
        },
        {
          "duration": 2.3529399999999896,
          "durationTicks": 384,
          "midi": 81,
          "name": "A5",
          "ticks": 21600,
          "time": 132.352875,
          "velocity": 0.6377952755905512
        },
        {
          "duration": 2.3529399999999896,
          "durationTicks": 384,
          "midi": 65,
          "name": "F4",
          "ticks": 21600,
          "time": 132.352875,
          "velocity": 0.7874015748031497
        },
        {
          "duration": 2.352940000000018,
          "durationTicks": 384,
          "midi": 63,
          "name": "D#4",
          "ticks": 21984,
          "time": 134.705815,
          "velocity": 0.7874015748031497
        },
        {
          "duration": 2.352940000000018,
          "durationTicks": 384,
          "midi": 67,
          "name": "G4",
          "ticks": 21984,
          "time": 134.705815,
          "velocity": 0.7874015748031497
        },
        {
          "duration": 2.352940000000018,
          "durationTicks": 384,
          "midi": 79,
          "name": "G5",
          "ticks": 21984,
          "time": 134.705815,
          "velocity": 0.6377952755905512
        },
        {
          "duration": 0.2941174999999987,
          "durationTicks": 48,
          "midi": 79,
          "name": "G5",
          "ticks": 22800,
          "time": 139.7058125,
          "velocity": 0.6377952755905512
        },
        {
          "duration": 0.2941174999999987,
          "durationTicks": 48,
          "midi": 67,
          "name": "G4",
          "ticks": 22800,
          "time": 139.7058125,
          "velocity": 0.7874015748031497
        },
        {
          "duration": 0.2941174999999987,
          "durationTicks": 48,
          "midi": 62,
          "name": "D4",
          "ticks": 22800,
          "time": 139.7058125,
          "velocity": 0.7874015748031497
        },
        {
          "duration": 0.2941174999999987,
          "durationTicks": 48,
          "midi": 79,
          "name": "G5",
          "ticks": 22848,
          "time": 139.99993,
          "velocity": 0.6377952755905512
        },
        {
          "duration": 0.2941174999999987,
          "durationTicks": 48,
          "midi": 67,
          "name": "G4",
          "ticks": 22848,
          "time": 139.99993,
          "velocity": 0.7874015748031497
        },
        {
          "duration": 0.2941174999999987,
          "durationTicks": 48,
          "midi": 62,
          "name": "D4",
          "ticks": 22848,
          "time": 139.99993,
          "velocity": 0.7874015748031497
        },
        {
          "duration": 0.2941174999999987,
          "durationTicks": 48,
          "midi": 79,
          "name": "G5",
          "ticks": 22896,
          "time": 140.2940475,
          "velocity": 0.6377952755905512
        },
        {
          "duration": 0.2941174999999987,
          "durationTicks": 48,
          "midi": 62,
          "name": "D4",
          "ticks": 22896,
          "time": 140.2940475,
          "velocity": 0.7874015748031497
        },
        {
          "duration": 0.2941174999999987,
          "durationTicks": 48,
          "midi": 67,
          "name": "G4",
          "ticks": 22896,
          "time": 140.2940475,
          "velocity": 0.7874015748031497
        },
        {
          "duration": 0.5882349999999974,
          "durationTicks": 96,
          "midi": 67,
          "name": "G4",
          "ticks": 22944,
          "time": 140.588165,
          "velocity": 0.7874015748031497
        },
        {
          "duration": 0.5882349999999974,
          "durationTicks": 96,
          "midi": 62,
          "name": "D4",
          "ticks": 22944,
          "time": 140.588165,
          "velocity": 0.7874015748031497
        },
        {
          "duration": 0.5882349999999974,
          "durationTicks": 96,
          "midi": 79,
          "name": "G5",
          "ticks": 22944,
          "time": 140.588165,
          "velocity": 0.6377952755905512
        },
        {
          "duration": 0.5882350000000258,
          "durationTicks": 96,
          "midi": 79,
          "name": "G5",
          "ticks": 23040,
          "time": 141.1764,
          "velocity": 0.6377952755905512
        },
        {
          "duration": 0.5882350000000258,
          "durationTicks": 96,
          "midi": 62,
          "name": "D4",
          "ticks": 23040,
          "time": 141.1764,
          "velocity": 0.7874015748031497
        },
        {
          "duration": 0.5882350000000258,
          "durationTicks": 96,
          "midi": 67,
          "name": "G4",
          "ticks": 23040,
          "time": 141.1764,
          "velocity": 0.7874015748031497
        },
        {
          "duration": 2.3529399999999896,
          "durationTicks": 384,
          "midi": 65,
          "name": "F4",
          "ticks": 23136,
          "time": 141.76463500000003,
          "velocity": 0.7874015748031497
        },
        {
          "duration": 2.3529399999999896,
          "durationTicks": 384,
          "midi": 82,
          "name": "A#5",
          "ticks": 23136,
          "time": 141.76463500000003,
          "velocity": 0.6377952755905512
        },
        {
          "duration": 2.3529399999999896,
          "durationTicks": 384,
          "midi": 70,
          "name": "A#4",
          "ticks": 23136,
          "time": 141.76463500000003,
          "velocity": 0.7874015748031497
        },
        {
          "duration": 1.7647049999999922,
          "durationTicks": 288,
          "midi": 65,
          "name": "F4",
          "ticks": 23520,
          "time": 144.11757500000002,
          "velocity": 0.7874015748031497
        },
        {
          "duration": 1.7647049999999922,
          "durationTicks": 288,
          "midi": 81,
          "name": "A5",
          "ticks": 23520,
          "time": 144.11757500000002,
          "velocity": 0.6377952755905512
        },
        {
          "duration": 1.7647049999999922,
          "durationTicks": 288,
          "midi": 69,
          "name": "A4",
          "ticks": 23520,
          "time": 144.11757500000002,
          "velocity": 0.7874015748031497
        },
        {
          "duration": 0.5882349999999974,
          "durationTicks": 96,
          "midi": 82,
          "name": "A#5",
          "ticks": 23808,
          "time": 145.88228,
          "velocity": 0.6377952755905512
        },
        {
          "duration": 0.5882349999999974,
          "durationTicks": 96,
          "midi": 70,
          "name": "A#4",
          "ticks": 23808,
          "time": 145.88228,
          "velocity": 0.7874015748031497
        },
        {
          "duration": 0.5882349999999974,
          "durationTicks": 96,
          "midi": 65,
          "name": "F4",
          "ticks": 23808,
          "time": 145.88228,
          "velocity": 0.7874015748031497
        },
        {
          "duration": 2.352940000000018,
          "durationTicks": 384,
          "midi": 62,
          "name": "D4",
          "ticks": 23904,
          "time": 146.470515,
          "velocity": 0.7874015748031497
        },
        {
          "duration": 2.352940000000018,
          "durationTicks": 384,
          "midi": 67,
          "name": "G4",
          "ticks": 23904,
          "time": 146.470515,
          "velocity": 0.7874015748031497
        },
        {
          "duration": 2.352940000000018,
          "durationTicks": 384,
          "midi": 79,
          "name": "G5",
          "ticks": 23904,
          "time": 146.470515,
          "velocity": 0.6377952755905512
        },
        {
          "duration": 0.44117624999998384,
          "durationTicks": 72,
          "midi": 53,
          "name": "F3",
          "ticks": 29280,
          "time": 179.41167500000003,
          "velocity": 0.7874015748031497
        },
        {
          "duration": 0.44117624999998384,
          "durationTicks": 72,
          "midi": 69,
          "name": "A4",
          "ticks": 29280,
          "time": 179.41167500000003,
          "velocity": 0.6377952755905512
        },
        {
          "duration": 0.44117624999998384,
          "durationTicks": 72,
          "midi": 57,
          "name": "A3",
          "ticks": 29280,
          "time": 179.41167500000003,
          "velocity": 0.7874015748031497
        },
        {
          "duration": 0.44117625000001226,
          "durationTicks": 72,
          "midi": 53,
          "name": "F3",
          "ticks": 29352,
          "time": 179.85285125000001,
          "velocity": 0.7874015748031497
        },
        {
          "duration": 0.44117625000001226,
          "durationTicks": 72,
          "midi": 69,
          "name": "A4",
          "ticks": 29352,
          "time": 179.85285125000001,
          "velocity": 0.6377952755905512
        },
        {
          "duration": 0.44117625000001226,
          "durationTicks": 72,
          "midi": 57,
          "name": "A3",
          "ticks": 29352,
          "time": 179.85285125000001,
          "velocity": 0.7874015748031497
        },
        {
          "duration": 1.1764699999999948,
          "durationTicks": 192,
          "midi": 62,
          "name": "D4",
          "ticks": 29424,
          "time": 180.29402750000003,
          "velocity": 0.7874015748031497
        },
        {
          "duration": 1.1764699999999948,
          "durationTicks": 192,
          "midi": 57,
          "name": "A3",
          "ticks": 29424,
          "time": 180.29402750000003,
          "velocity": 0.7874015748031497
        },
        {
          "duration": 1.1764699999999948,
          "durationTicks": 192,
          "midi": 74,
          "name": "D5",
          "ticks": 29424,
          "time": 180.29402750000003,
          "velocity": 0.6377952755905512
        },
        {
          "duration": 0.2941174999999987,
          "durationTicks": 48,
          "midi": 55,
          "name": "G3",
          "ticks": 29616,
          "time": 181.47049750000002,
          "velocity": 0.7874015748031497
        },
        {
          "duration": 0.2941174999999987,
          "durationTicks": 48,
          "midi": 76,
          "name": "E5",
          "ticks": 29616,
          "time": 181.47049750000002,
          "velocity": 0.6377952755905512
        },
        {
          "duration": 0.2941174999999987,
          "durationTicks": 48,
          "midi": 60,
          "name": "C4",
          "ticks": 29616,
          "time": 181.47049750000002,
          "velocity": 0.7874015748031497
        },
        {
          "duration": 0.44117625000001226,
          "durationTicks": 72,
          "midi": 77,
          "name": "F5",
          "ticks": 29664,
          "time": 181.76461500000002,
          "velocity": 0.6377952755905512
        },
        {
          "duration": 0.44117625000001226,
          "durationTicks": 72,
          "midi": 57,
          "name": "A3",
          "ticks": 29664,
          "time": 181.76461500000002,
          "velocity": 0.7874015748031497
        },
        {
          "duration": 0.44117625000001226,
          "durationTicks": 72,
          "midi": 62,
          "name": "D4",
          "ticks": 29664,
          "time": 181.76461500000002,
          "velocity": 0.7874015748031497
        },
        {
          "duration": 0.44117624999998384,
          "durationTicks": 72,
          "midi": 76,
          "name": "E5",
          "ticks": 29736,
          "time": 182.20579125000003,
          "velocity": 0.6377952755905512
        },
        {
          "duration": 0.44117624999998384,
          "durationTicks": 72,
          "midi": 55,
          "name": "G3",
          "ticks": 29736,
          "time": 182.20579125000003,
          "velocity": 0.7874015748031497
        },
        {
          "duration": 0.44117624999998384,
          "durationTicks": 72,
          "midi": 60,
          "name": "C4",
          "ticks": 29736,
          "time": 182.20579125000003,
          "velocity": 0.7874015748031497
        },
        {
          "duration": 0.8823524999999961,
          "durationTicks": 144,
          "midi": 62,
          "name": "D4",
          "ticks": 29808,
          "time": 182.64696750000002,
          "velocity": 0.7874015748031497
        },
        {
          "duration": 0.8823524999999961,
          "durationTicks": 144,
          "midi": 57,
          "name": "A3",
          "ticks": 29808,
          "time": 182.64696750000002,
          "velocity": 0.7874015748031497
        },
        {
          "duration": 0.8823524999999961,
          "durationTicks": 144,
          "midi": 77,
          "name": "F5",
          "ticks": 29808,
          "time": 182.64696750000002,
          "velocity": 0.6377952755905512
        },
        {
          "duration": 0.2941174999999987,
          "durationTicks": 48,
          "midi": 69,
          "name": "A4",
          "ticks": 29952,
          "time": 183.52932,
          "velocity": 0.6377952755905512
        },
        {
          "duration": 0.2941174999999987,
          "durationTicks": 48,
          "midi": 53,
          "name": "F3",
          "ticks": 29952,
          "time": 183.52932,
          "velocity": 0.7874015748031497
        },
        {
          "duration": 0.2941174999999987,
          "durationTicks": 48,
          "midi": 57,
          "name": "A3",
          "ticks": 29952,
          "time": 183.52932,
          "velocity": 0.7874015748031497
        },
        {
          "duration": 0.2941174999999987,
          "durationTicks": 48,
          "midi": 57,
          "name": "A3",
          "ticks": 30000,
          "time": 183.8234375,
          "velocity": 0.7874015748031497
        },
        {
          "duration": 0.2941174999999987,
          "durationTicks": 48,
          "midi": 53,
          "name": "F3",
          "ticks": 30000,
          "time": 183.8234375,
          "velocity": 0.7874015748031497
        },
        {
          "duration": 0.2941174999999987,
          "durationTicks": 48,
          "midi": 69,
          "name": "A4",
          "ticks": 30000,
          "time": 183.8234375,
          "velocity": 0.6377952755905512
        },
        {
          "duration": 0.44117625000001226,
          "durationTicks": 72,
          "midi": 57,
          "name": "A3",
          "ticks": 30048,
          "time": 184.117555,
          "velocity": 0.7874015748031497
        },
        {
          "duration": 0.44117625000001226,
          "durationTicks": 72,
          "midi": 53,
          "name": "F3",
          "ticks": 30048,
          "time": 184.117555,
          "velocity": 0.7874015748031497
        },
        {
          "duration": 0.44117625000001226,
          "durationTicks": 72,
          "midi": 69,
          "name": "A4",
          "ticks": 30048,
          "time": 184.117555,
          "velocity": 0.6377952755905512
        },
        {
          "duration": 0.44117624999998384,
          "durationTicks": 72,
          "midi": 70,
          "name": "A#4",
          "ticks": 30120,
          "time": 184.55873125000002,
          "velocity": 0.6377952755905512
        },
        {
          "duration": 0.44117624999998384,
          "durationTicks": 72,
          "midi": 53,
          "name": "F3",
          "ticks": 30120,
          "time": 184.55873125000002,
          "velocity": 0.7874015748031497
        },
        {
          "duration": 0.44117624999998384,
          "durationTicks": 72,
          "midi": 58,
          "name": "A#3",
          "ticks": 30120,
          "time": 184.55873125000002,
          "velocity": 0.7874015748031497
        },
        {
          "duration": 0.5882350000000258,
          "durationTicks": 96,
          "midi": 58,
          "name": "A#3",
          "ticks": 30192,
          "time": 184.9999075,
          "velocity": 0.7874015748031497
        },
        {
          "duration": 0.5882350000000258,
          "durationTicks": 96,
          "midi": 53,
          "name": "F3",
          "ticks": 30192,
          "time": 184.9999075,
          "velocity": 0.7874015748031497
        },
        {
          "duration": 0.5882350000000258,
          "durationTicks": 96,
          "midi": 70,
          "name": "A#4",
          "ticks": 30192,
          "time": 184.9999075,
          "velocity": 0.6377952755905512
        },
        {
          "duration": 0.2941174999999987,
          "durationTicks": 48,
          "midi": 69,
          "name": "A4",
          "ticks": 30288,
          "time": 185.58814250000003,
          "velocity": 0.6377952755905512
        },
        {
          "duration": 0.2941174999999987,
          "durationTicks": 48,
          "midi": 57,
          "name": "A3",
          "ticks": 30288,
          "time": 185.58814250000003,
          "velocity": 0.7874015748031497
        },
        {
          "duration": 0.2941174999999987,
          "durationTicks": 48,
          "midi": 53,
          "name": "F3",
          "ticks": 30288,
          "time": 185.58814250000003,
          "velocity": 0.7874015748031497
        },
        {
          "duration": 0.2941174999999987,
          "durationTicks": 48,
          "midi": 57,
          "name": "A3",
          "ticks": 30336,
          "time": 185.88226000000003,
          "velocity": 0.7874015748031497
        },
        {
          "duration": 0.2941174999999987,
          "durationTicks": 48,
          "midi": 53,
          "name": "F3",
          "ticks": 30336,
          "time": 185.88226000000003,
          "velocity": 0.7874015748031497
        },
        {
          "duration": 0.2941174999999987,
          "durationTicks": 48,
          "midi": 69,
          "name": "A4",
          "ticks": 30336,
          "time": 185.88226000000003,
          "velocity": 0.6377952755905512
        },
        {
          "duration": 0.2941174999999987,
          "durationTicks": 48,
          "midi": 58,
          "name": "A#3",
          "ticks": 30384,
          "time": 186.17637750000003,
          "velocity": 0.7874015748031497
        },
        {
          "duration": 0.2941174999999987,
          "durationTicks": 48,
          "midi": 53,
          "name": "F3",
          "ticks": 30384,
          "time": 186.17637750000003,
          "velocity": 0.7874015748031497
        },
        {
          "duration": 0.2941174999999987,
          "durationTicks": 48,
          "midi": 70,
          "name": "A#4",
          "ticks": 30384,
          "time": 186.17637750000003,
          "velocity": 0.6377952755905512
        },
        {
          "duration": 0.44117624999998384,
          "durationTicks": 72,
          "midi": 62,
          "name": "D4",
          "ticks": 30432,
          "time": 186.47049500000003,
          "velocity": 0.7874015748031497
        },
        {
          "duration": 0.44117624999998384,
          "durationTicks": 72,
          "midi": 74,
          "name": "D5",
          "ticks": 30432,
          "time": 186.47049500000003,
          "velocity": 0.6377952755905512
        },
        {
          "duration": 0.44117624999998384,
          "durationTicks": 72,
          "midi": 57,
          "name": "A3",
          "ticks": 30432,
          "time": 186.47049500000003,
          "velocity": 0.7874015748031497
        },
        {
          "duration": 0.44117625000001226,
          "durationTicks": 72,
          "midi": 55,
          "name": "G3",
          "ticks": 30504,
          "time": 186.91167125,
          "velocity": 0.6377952755905512
        },
        {
          "duration": 0.44117625000001226,
          "durationTicks": 72,
          "midi": 72,
          "name": "C5",
          "ticks": 30504,
          "time": 186.91167125,
          "velocity": 0.6377952755905512
        },
        {
          "duration": 0.44117625000001226,
          "durationTicks": 72,
          "midi": 60,
          "name": "C4",
          "ticks": 30504,
          "time": 186.91167125,
          "velocity": 0.7874015748031497
        },
        {
          "duration": 0.8823524999999961,
          "durationTicks": 144,
          "midi": 69,
          "name": "A4",
          "ticks": 30576,
          "time": 187.35284750000002,
          "velocity": 0.6377952755905512
        },
        {
          "duration": 0.8823524999999961,
          "durationTicks": 144,
          "midi": 57,
          "name": "A3",
          "ticks": 30576,
          "time": 187.35284750000002,
          "velocity": 0.7874015748031497
        },
        {
          "duration": 0.8823524999999961,
          "durationTicks": 144,
          "midi": 53,
          "name": "F3",
          "ticks": 30576,
          "time": 187.35284750000002,
          "velocity": 0.7874015748031497
        },
        {
          "duration": 0.2941174999999987,
          "durationTicks": 48,
          "midi": 67,
          "name": "G4",
          "ticks": 30768,
          "time": 188.52931750000002,
          "velocity": 0.6377952755905512
        },
        {
          "duration": 0.2941174999999987,
          "durationTicks": 48,
          "midi": 50,
          "name": "D3",
          "ticks": 30768,
          "time": 188.52931750000002,
          "velocity": 0.7874015748031497
        },
        {
          "duration": 0.2941174999999987,
          "durationTicks": 48,
          "midi": 55,
          "name": "G3",
          "ticks": 30768,
          "time": 188.52931750000002,
          "velocity": 0.7874015748031497
        },
        {
          "duration": 0.44117625000001226,
          "durationTicks": 72,
          "midi": 69,
          "name": "A4",
          "ticks": 30816,
          "time": 188.82343500000002,
          "velocity": 0.6377952755905512
        },
        {
          "duration": 0.44117625000001226,
          "durationTicks": 72,
          "midi": 53,
          "name": "F3",
          "ticks": 30816,
          "time": 188.82343500000002,
          "velocity": 0.7874015748031497
        },
        {
          "duration": 0.44117625000001226,
          "durationTicks": 72,
          "midi": 57,
          "name": "A3",
          "ticks": 30816,
          "time": 188.82343500000002,
          "velocity": 0.7874015748031497
        },
        {
          "duration": 0.44117624999998384,
          "durationTicks": 72,
          "midi": 55,
          "name": "G3",
          "ticks": 30888,
          "time": 189.26461125000003,
          "velocity": 0.7874015748031497
        },
        {
          "duration": 0.44117624999998384,
          "durationTicks": 72,
          "midi": 50,
          "name": "D3",
          "ticks": 30888,
          "time": 189.26461125000003,
          "velocity": 0.7874015748031497
        },
        {
          "duration": 0.44117624999998384,
          "durationTicks": 72,
          "midi": 67,
          "name": "G4",
          "ticks": 30888,
          "time": 189.26461125000003,
          "velocity": 0.6377952755905512
        },
        {
          "duration": 0.8823524999999961,
          "durationTicks": 144,
          "midi": 57,
          "name": "A3",
          "ticks": 30960,
          "time": 189.7057875,
          "velocity": 0.7874015748031497
        },
        {
          "duration": 0.8823524999999961,
          "durationTicks": 144,
          "midi": 53,
          "name": "F3",
          "ticks": 30960,
          "time": 189.7057875,
          "velocity": 0.7874015748031497
        },
        {
          "duration": 0.8823524999999961,
          "durationTicks": 144,
          "midi": 69,
          "name": "A4",
          "ticks": 30960,
          "time": 189.7057875,
          "velocity": 0.6377952755905512
        },
        {
          "duration": 0.2941174999999987,
          "durationTicks": 48,
          "midi": 76,
          "name": "E5",
          "ticks": 31152,
          "time": 190.8822575,
          "velocity": 0.6377952755905512
        },
        {
          "duration": 0.2941174999999987,
          "durationTicks": 48,
          "midi": 50,
          "name": "D3",
          "ticks": 31152,
          "time": 190.8822575,
          "velocity": 0.7874015748031497
        },
        {
          "duration": 0.2941174999999987,
          "durationTicks": 48,
          "midi": 55,
          "name": "G3",
          "ticks": 31152,
          "time": 190.8822575,
          "velocity": 0.7874015748031497
        },
        {
          "duration": 0.44117625000001226,
          "durationTicks": 72,
          "midi": 77,
          "name": "F5",
          "ticks": 31200,
          "time": 191.176375,
          "velocity": 0.6377952755905512
        },
        {
          "duration": 0.44117625000001226,
          "durationTicks": 72,
          "midi": 57,
          "name": "A3",
          "ticks": 31200,
          "time": 191.176375,
          "velocity": 0.7874015748031497
        },
        {
          "duration": 0.44117625000001226,
          "durationTicks": 72,
          "midi": 53,
          "name": "F3",
          "ticks": 31200,
          "time": 191.176375,
          "velocity": 0.7874015748031497
        },
        {
          "duration": 0.44117625000001226,
          "durationTicks": 72,
          "midi": 76,
          "name": "E5",
          "ticks": 31272,
          "time": 191.61755125000002,
          "velocity": 0.6377952755905512
        },
        {
          "duration": 0.44117625000001226,
          "durationTicks": 72,
          "midi": 50,
          "name": "D3",
          "ticks": 31272,
          "time": 191.61755125000002,
          "velocity": 0.7874015748031497
        },
        {
          "duration": 0.44117625000001226,
          "durationTicks": 72,
          "midi": 55,
          "name": "G3",
          "ticks": 31272,
          "time": 191.61755125000002,
          "velocity": 0.7874015748031497
        },
        {
          "duration": 0.8823524999999961,
          "durationTicks": 144,
          "midi": 77,
          "name": "F5",
          "ticks": 31344,
          "time": 192.05872750000003,
          "velocity": 0.6377952755905512
        },
        {
          "duration": 0.8823524999999961,
          "durationTicks": 144,
          "midi": 53,
          "name": "F3",
          "ticks": 31344,
          "time": 192.05872750000003,
          "velocity": 0.7874015748031497
        },
        {
          "duration": 0.8823524999999961,
          "durationTicks": 144,
          "midi": 57,
          "name": "A3",
          "ticks": 31344,
          "time": 192.05872750000003,
          "velocity": 0.7874015748031497
        },
        {
          "duration": 0.2941174999999987,
          "durationTicks": 48,
          "midi": 69,
          "name": "A4",
          "ticks": 31488,
          "time": 192.94108000000003,
          "velocity": 0.6377952755905512
        },
        {
          "duration": 0.2941174999999987,
          "durationTicks": 48,
          "midi": 53,
          "name": "F3",
          "ticks": 31488,
          "time": 192.94108000000003,
          "velocity": 0.7874015748031497
        },
        {
          "duration": 0.2941174999999987,
          "durationTicks": 48,
          "midi": 57,
          "name": "A3",
          "ticks": 31488,
          "time": 192.94108000000003,
          "velocity": 0.7874015748031497
        },
        {
          "duration": 0.2941174999999987,
          "durationTicks": 48,
          "midi": 69,
          "name": "A4",
          "ticks": 31536,
          "time": 193.23519750000003,
          "velocity": 0.6377952755905512
        },
        {
          "duration": 0.2941174999999987,
          "durationTicks": 48,
          "midi": 53,
          "name": "F3",
          "ticks": 31536,
          "time": 193.23519750000003,
          "velocity": 0.7874015748031497
        },
        {
          "duration": 0.2941174999999987,
          "durationTicks": 48,
          "midi": 57,
          "name": "A3",
          "ticks": 31536,
          "time": 193.23519750000003,
          "velocity": 0.7874015748031497
        },
        {
          "duration": 0.44117624999998384,
          "durationTicks": 72,
          "midi": 57,
          "name": "A3",
          "ticks": 31584,
          "time": 193.52931500000003,
          "velocity": 0.7874015748031497
        },
        {
          "duration": 0.44117624999998384,
          "durationTicks": 72,
          "midi": 53,
          "name": "F3",
          "ticks": 31584,
          "time": 193.52931500000003,
          "velocity": 0.7874015748031497
        },
        {
          "duration": 0.44117624999998384,
          "durationTicks": 72,
          "midi": 69,
          "name": "A4",
          "ticks": 31584,
          "time": 193.52931500000003,
          "velocity": 0.6377952755905512
        },
        {
          "duration": 0.44117625000001226,
          "durationTicks": 72,
          "midi": 70,
          "name": "A#4",
          "ticks": 31656,
          "time": 193.97049125,
          "velocity": 0.6377952755905512
        },
        {
          "duration": 0.44117625000001226,
          "durationTicks": 72,
          "midi": 53,
          "name": "F3",
          "ticks": 31656,
          "time": 193.97049125,
          "velocity": 0.7874015748031497
        },
        {
          "duration": 0.44117625000001226,
          "durationTicks": 72,
          "midi": 58,
          "name": "A#3",
          "ticks": 31656,
          "time": 193.97049125,
          "velocity": 0.7874015748031497
        },
        {
          "duration": 0.5882349999999974,
          "durationTicks": 96,
          "midi": 70,
          "name": "A#4",
          "ticks": 31728,
          "time": 194.41166750000002,
          "velocity": 0.6377952755905512
        },
        {
          "duration": 0.5882349999999974,
          "durationTicks": 96,
          "midi": 53,
          "name": "F3",
          "ticks": 31728,
          "time": 194.41166750000002,
          "velocity": 0.7874015748031497
        },
        {
          "duration": 0.5882349999999974,
          "durationTicks": 96,
          "midi": 58,
          "name": "A#3",
          "ticks": 31728,
          "time": 194.41166750000002,
          "velocity": 0.7874015748031497
        },
        {
          "duration": 0.2941174999999987,
          "durationTicks": 48,
          "midi": 69,
          "name": "A4",
          "ticks": 31824,
          "time": 194.99990250000002,
          "velocity": 0.6377952755905512
        },
        {
          "duration": 0.2941174999999987,
          "durationTicks": 48,
          "midi": 53,
          "name": "F3",
          "ticks": 31824,
          "time": 194.99990250000002,
          "velocity": 0.7874015748031497
        },
        {
          "duration": 0.2941174999999987,
          "durationTicks": 48,
          "midi": 57,
          "name": "A3",
          "ticks": 31824,
          "time": 194.99990250000002,
          "velocity": 0.7874015748031497
        },
        {
          "duration": 0.2941174999999987,
          "durationTicks": 48,
          "midi": 53,
          "name": "F3",
          "ticks": 31872,
          "time": 195.29402000000002,
          "velocity": 0.7874015748031497
        },
        {
          "duration": 0.2941174999999987,
          "durationTicks": 48,
          "midi": 57,
          "name": "A3",
          "ticks": 31872,
          "time": 195.29402000000002,
          "velocity": 0.7874015748031497
        },
        {
          "duration": 0.2941174999999987,
          "durationTicks": 48,
          "midi": 69,
          "name": "A4",
          "ticks": 31872,
          "time": 195.29402000000002,
          "velocity": 0.6377952755905512
        },
        {
          "duration": 0.2941174999999987,
          "durationTicks": 48,
          "midi": 70,
          "name": "A#4",
          "ticks": 31920,
          "time": 195.58813750000002,
          "velocity": 0.6377952755905512
        },
        {
          "duration": 0.2941174999999987,
          "durationTicks": 48,
          "midi": 58,
          "name": "A#3",
          "ticks": 31920,
          "time": 195.58813750000002,
          "velocity": 0.7874015748031497
        },
        {
          "duration": 0.2941174999999987,
          "durationTicks": 48,
          "midi": 53,
          "name": "F3",
          "ticks": 31920,
          "time": 195.58813750000002,
          "velocity": 0.7874015748031497
        },
        {
          "duration": 0.44117625000001226,
          "durationTicks": 72,
          "midi": 74,
          "name": "D5",
          "ticks": 31968,
          "time": 195.88225500000001,
          "velocity": 0.6377952755905512
        },
        {
          "duration": 0.44117625000001226,
          "durationTicks": 72,
          "midi": 57,
          "name": "A3",
          "ticks": 31968,
          "time": 195.88225500000001,
          "velocity": 0.7874015748031497
        },
        {
          "duration": 0.44117625000001226,
          "durationTicks": 72,
          "midi": 62,
          "name": "D4",
          "ticks": 31968,
          "time": 195.88225500000001,
          "velocity": 0.7874015748031497
        },
        {
          "duration": 0.44117624999998384,
          "durationTicks": 72,
          "midi": 55,
          "name": "G3",
          "ticks": 32040,
          "time": 196.32343125000003,
          "velocity": 0.7874015748031497
        },
        {
          "duration": 0.44117624999998384,
          "durationTicks": 72,
          "midi": 60,
          "name": "C4",
          "ticks": 32040,
          "time": 196.32343125000003,
          "velocity": 0.7874015748031497
        },
        {
          "duration": 0.44117624999998384,
          "durationTicks": 72,
          "midi": 72,
          "name": "C5",
          "ticks": 32040,
          "time": 196.32343125000003,
          "velocity": 0.6377952755905512
        },
        {
          "duration": 0.8823525000000245,
          "durationTicks": 144,
          "midi": 69,
          "name": "A4",
          "ticks": 32112,
          "time": 196.7646075,
          "velocity": 0.6377952755905512
        },
        {
          "duration": 0.8823525000000245,
          "durationTicks": 144,
          "midi": 53,
          "name": "F3",
          "ticks": 32112,
          "time": 196.7646075,
          "velocity": 0.7874015748031497
        },
        {
          "duration": 0.8823525000000245,
          "durationTicks": 144,
          "midi": 57,
          "name": "A3",
          "ticks": 32112,
          "time": 196.7646075,
          "velocity": 0.7874015748031497
        },
        {
          "duration": 0.2941174999999987,
          "durationTicks": 48,
          "midi": 50,
          "name": "D3",
          "ticks": 32304,
          "time": 197.94107750000003,
          "velocity": 0.7874015748031497
        },
        {
          "duration": 0.2941174999999987,
          "durationTicks": 48,
          "midi": 55,
          "name": "G3",
          "ticks": 32304,
          "time": 197.94107750000003,
          "velocity": 0.7874015748031497
        },
        {
          "duration": 0.2941174999999987,
          "durationTicks": 48,
          "midi": 67,
          "name": "G4",
          "ticks": 32304,
          "time": 197.94107750000003,
          "velocity": 0.6377952755905512
        },
        {
          "duration": 1.1764699999999948,
          "durationTicks": 192,
          "midi": 57,
          "name": "A3",
          "ticks": 32352,
          "time": 198.23519500000003,
          "velocity": 0.7874015748031497
        },
        {
          "duration": 1.1764699999999948,
          "durationTicks": 192,
          "midi": 53,
          "name": "F3",
          "ticks": 32352,
          "time": 198.23519500000003,
          "velocity": 0.7874015748031497
        },
        {
          "duration": 1.1764699999999948,
          "durationTicks": 192,
          "midi": 69,
          "name": "A4",
          "ticks": 32352,
          "time": 198.23519500000003,
          "velocity": 0.6377952755905512
        },
        {
          "duration": 0.5882349999999974,
          "durationTicks": 96,
          "midi": 55,
          "name": "G3",
          "ticks": 32544,
          "time": 199.41166500000003,
          "velocity": 0.7874015748031497
        },
        {
          "duration": 0.5882349999999974,
          "durationTicks": 96,
          "midi": 52,
          "name": "E3",
          "ticks": 32544,
          "time": 199.41166500000003,
          "velocity": 0.7874015748031497
        },
        {
          "duration": 0.5882349999999974,
          "durationTicks": 96,
          "midi": 67,
          "name": "G4",
          "ticks": 32544,
          "time": 199.41166500000003,
          "velocity": 0.6377952755905512
        },
        {
          "duration": 0.5882349999999974,
          "durationTicks": 96,
          "midi": 70,
          "name": "A#4",
          "ticks": 32640,
          "time": 199.99990000000003,
          "velocity": 0.6377952755905512
        },
        {
          "duration": 0.5882349999999974,
          "durationTicks": 96,
          "midi": 53,
          "name": "F3",
          "ticks": 32640,
          "time": 199.99990000000003,
          "velocity": 0.7874015748031497
        },
        {
          "duration": 0.5882349999999974,
          "durationTicks": 96,
          "midi": 58,
          "name": "A#3",
          "ticks": 32640,
          "time": 199.99990000000003,
          "velocity": 0.7874015748031497
        },
        {
          "duration": 1.1764699999999948,
          "durationTicks": 192,
          "midi": 57,
          "name": "A3",
          "ticks": 32736,
          "time": 200.58813500000002,
          "velocity": 0.7874015748031497
        },
        {
          "duration": 1.1764699999999948,
          "durationTicks": 192,
          "midi": 53,
          "name": "F3",
          "ticks": 32736,
          "time": 200.58813500000002,
          "velocity": 0.7874015748031497
        },
        {
          "duration": 1.1764699999999948,
          "durationTicks": 192,
          "midi": 69,
          "name": "A4",
          "ticks": 32736,
          "time": 200.58813500000002,
          "velocity": 0.6377952755905512
        },
        {
          "duration": 0.8823524999999961,
          "durationTicks": 144,
          "midi": 67,
          "name": "G4",
          "ticks": 32928,
          "time": 201.76460500000002,
          "velocity": 0.6377952755905512
        },
        {
          "duration": 0.8823524999999961,
          "durationTicks": 144,
          "midi": 52,
          "name": "E3",
          "ticks": 32928,
          "time": 201.76460500000002,
          "velocity": 0.7874015748031497
        },
        {
          "duration": 0.8823524999999961,
          "durationTicks": 144,
          "midi": 55,
          "name": "G3",
          "ticks": 32928,
          "time": 201.76460500000002,
          "velocity": 0.7874015748031497
        },
        {
          "duration": 0.2941174999999987,
          "durationTicks": 48,
          "midi": 52,
          "name": "E3",
          "ticks": 33072,
          "time": 202.6469575,
          "velocity": 0.7874015748031497
        },
        {
          "duration": 0.2941174999999987,
          "durationTicks": 48,
          "midi": 64,
          "name": "E4",
          "ticks": 33072,
          "time": 202.6469575,
          "velocity": 0.6377952755905512
        },
        {
          "duration": 0.2941174999999987,
          "durationTicks": 48,
          "midi": 48,
          "name": "C3",
          "ticks": 33072,
          "time": 202.6469575,
          "velocity": 0.7874015748031497
        },
        {
          "duration": 0.44117625000001226,
          "durationTicks": 72,
          "midi": 57,
          "name": "A3",
          "ticks": 33120,
          "time": 202.941075,
          "velocity": 0.7874015748031497
        },
        {
          "duration": 0.44117625000001226,
          "durationTicks": 72,
          "midi": 53,
          "name": "F3",
          "ticks": 33120,
          "time": 202.941075,
          "velocity": 0.7874015748031497
        },
        {
          "duration": 0.44117625000001226,
          "durationTicks": 72,
          "midi": 69,
          "name": "A4",
          "ticks": 33120,
          "time": 202.941075,
          "velocity": 0.6377952755905512
        },
        {
          "duration": 0.44117624999998384,
          "durationTicks": 72,
          "midi": 55,
          "name": "G3",
          "ticks": 33192,
          "time": 203.38225125000002,
          "velocity": 0.7874015748031497
        },
        {
          "duration": 0.44117624999998384,
          "durationTicks": 72,
          "midi": 52,
          "name": "E3",
          "ticks": 33192,
          "time": 203.38225125000002,
          "velocity": 0.7874015748031497
        },
        {
          "duration": 0.44117624999998384,
          "durationTicks": 72,
          "midi": 67,
          "name": "G4",
          "ticks": 33192,
          "time": 203.38225125000002,
          "velocity": 0.6377952755905512
        },
        {
          "duration": 0.5882350000000258,
          "durationTicks": 96,
          "midi": 57,
          "name": "A3",
          "ticks": 33264,
          "time": 203.8234275,
          "velocity": 0.7874015748031497
        },
        {
          "duration": 0.5882350000000258,
          "durationTicks": 96,
          "midi": 53,
          "name": "F3",
          "ticks": 33264,
          "time": 203.8234275,
          "velocity": 0.7874015748031497
        },
        {
          "duration": 0.5882350000000258,
          "durationTicks": 96,
          "midi": 69,
          "name": "A4",
          "ticks": 33264,
          "time": 203.8234275,
          "velocity": 0.6377952755905512
        },
        {
          "duration": 0.2941174999999987,
          "durationTicks": 48,
          "midi": 67,
          "name": "G4",
          "ticks": 33360,
          "time": 204.41166250000003,
          "velocity": 0.6377952755905512
        },
        {
          "duration": 0.2941174999999987,
          "durationTicks": 48,
          "midi": 52,
          "name": "E3",
          "ticks": 33360,
          "time": 204.41166250000003,
          "velocity": 0.7874015748031497
        },
        {
          "duration": 0.2941174999999987,
          "durationTicks": 48,
          "midi": 55,
          "name": "G3",
          "ticks": 33360,
          "time": 204.41166250000003,
          "velocity": 0.7874015748031497
        },
        {
          "duration": 0.2941174999999987,
          "durationTicks": 48,
          "midi": 52,
          "name": "E3",
          "ticks": 33408,
          "time": 204.70578000000003,
          "velocity": 0.7874015748031497
        },
        {
          "duration": 0.2941174999999987,
          "durationTicks": 48,
          "midi": 67,
          "name": "G4",
          "ticks": 33408,
          "time": 204.70578000000003,
          "velocity": 0.6377952755905512
        },
        {
          "duration": 0.2941174999999987,
          "durationTicks": 48,
          "midi": 55,
          "name": "G3",
          "ticks": 33408,
          "time": 204.70578000000003,
          "velocity": 0.7874015748031497
        },
        {
          "duration": 0.2941174999999987,
          "durationTicks": 48,
          "midi": 55,
          "name": "G3",
          "ticks": 33456,
          "time": 204.99989750000003,
          "velocity": 0.7874015748031497
        },
        {
          "duration": 0.2941174999999987,
          "durationTicks": 48,
          "midi": 52,
          "name": "E3",
          "ticks": 33456,
          "time": 204.99989750000003,
          "velocity": 0.7874015748031497
        },
        {
          "duration": 0.2941174999999987,
          "durationTicks": 48,
          "midi": 67,
          "name": "G4",
          "ticks": 33456,
          "time": 204.99989750000003,
          "velocity": 0.6377952755905512
        },
        {
          "duration": 0.44117624999998384,
          "durationTicks": 72,
          "midi": 53,
          "name": "F3",
          "ticks": 33504,
          "time": 205.29401500000003,
          "velocity": 0.7874015748031497
        },
        {
          "duration": 0.44117624999998384,
          "durationTicks": 72,
          "midi": 57,
          "name": "A3",
          "ticks": 33504,
          "time": 205.29401500000003,
          "velocity": 0.7874015748031497
        },
        {
          "duration": 0.44117624999998384,
          "durationTicks": 72,
          "midi": 69,
          "name": "A4",
          "ticks": 33504,
          "time": 205.29401500000003,
          "velocity": 0.6377952755905512
        },
        {
          "duration": 0.44117625000001226,
          "durationTicks": 72,
          "midi": 52,
          "name": "E3",
          "ticks": 33576,
          "time": 205.73519125,
          "velocity": 0.7874015748031497
        },
        {
          "duration": 0.44117625000001226,
          "durationTicks": 72,
          "midi": 67,
          "name": "G4",
          "ticks": 33576,
          "time": 205.73519125,
          "velocity": 0.6377952755905512
        },
        {
          "duration": 0.44117625000001226,
          "durationTicks": 72,
          "midi": 55,
          "name": "G3",
          "ticks": 33576,
          "time": 205.73519125,
          "velocity": 0.7874015748031497
        },
        {
          "duration": 1.4705874999999935,
          "durationTicks": 240,
          "midi": 57,
          "name": "A3",
          "ticks": 33648,
          "time": 206.17636750000003,
          "velocity": 0.7874015748031497
        },
        {
          "duration": 1.4705874999999935,
          "durationTicks": 240,
          "midi": 53,
          "name": "F3",
          "ticks": 33648,
          "time": 206.17636750000003,
          "velocity": 0.7874015748031497
        },
        {
          "duration": 1.4705874999999935,
          "durationTicks": 240,
          "midi": 69,
          "name": "A4",
          "ticks": 33648,
          "time": 206.17636750000003,
          "velocity": 0.6377952755905512
        },
        {
          "duration": 0.2941174999999987,
          "durationTicks": 48,
          "midi": 74,
          "name": "D5",
          "ticks": 37680,
          "time": 230.88223750000003,
          "velocity": 0.6377952755905512
        },
        {
          "duration": 0.2941174999999987,
          "durationTicks": 48,
          "midi": 62,
          "name": "D4",
          "ticks": 37680,
          "time": 230.88223750000003,
          "velocity": 0.7874015748031497
        },
        {
          "duration": 0.2941174999999987,
          "durationTicks": 48,
          "midi": 57,
          "name": "A3",
          "ticks": 37680,
          "time": 230.88223750000003,
          "velocity": 0.7874015748031497
        },
        {
          "duration": 0.2941174999999987,
          "durationTicks": 48,
          "midi": 57,
          "name": "A3",
          "ticks": 37728,
          "time": 231.17635500000003,
          "velocity": 0.7874015748031497
        },
        {
          "duration": 0.2941174999999987,
          "durationTicks": 48,
          "midi": 62,
          "name": "D4",
          "ticks": 37728,
          "time": 231.17635500000003,
          "velocity": 0.7874015748031497
        },
        {
          "duration": 0.2941174999999987,
          "durationTicks": 48,
          "midi": 74,
          "name": "D5",
          "ticks": 37728,
          "time": 231.17635500000003,
          "velocity": 0.6377952755905512
        },
        {
          "duration": 0.2941174999999987,
          "durationTicks": 48,
          "midi": 72,
          "name": "C5",
          "ticks": 37776,
          "time": 231.47047250000003,
          "velocity": 0.6377952755905512
        },
        {
          "duration": 0.2941174999999987,
          "durationTicks": 48,
          "midi": 60,
          "name": "C4",
          "ticks": 37776,
          "time": 231.47047250000003,
          "velocity": 0.7874015748031497
        },
        {
          "duration": 0.2941174999999987,
          "durationTicks": 48,
          "midi": 55,
          "name": "G3",
          "ticks": 37776,
          "time": 231.47047250000003,
          "velocity": 0.7874015748031497
        },
        {
          "duration": 0.2941174999999987,
          "durationTicks": 48,
          "midi": 70,
          "name": "A#4",
          "ticks": 37824,
          "time": 231.76459000000003,
          "velocity": 0.6377952755905512
        },
        {
          "duration": 0.2941174999999987,
          "durationTicks": 48,
          "midi": 58,
          "name": "A#3",
          "ticks": 37824,
          "time": 231.76459000000003,
          "velocity": 0.7874015748031497
        },
        {
          "duration": 0.2941174999999987,
          "durationTicks": 48,
          "midi": 55,
          "name": "G3",
          "ticks": 37824,
          "time": 231.76459000000003,
          "velocity": 0.7874015748031497
        },
        {
          "duration": 0.8823524999999961,
          "durationTicks": 144,
          "midi": 74,
          "name": "D5",
          "ticks": 37872,
          "time": 232.05870750000003,
          "velocity": 0.6377952755905512
        },
        {
          "duration": 0.8823524999999961,
          "durationTicks": 144,
          "midi": 62,
          "name": "D4",
          "ticks": 37872,
          "time": 232.05870750000003,
          "velocity": 0.7874015748031497
        },
        {
          "duration": 0.8823524999999961,
          "durationTicks": 144,
          "midi": 58,
          "name": "A#3",
          "ticks": 37872,
          "time": 232.05870750000003,
          "velocity": 0.7874015748031497
        },
        {
          "duration": 0.2941174999999987,
          "durationTicks": 48,
          "midi": 74,
          "name": "D5",
          "ticks": 38064,
          "time": 233.23517750000002,
          "velocity": 0.6377952755905512
        },
        {
          "duration": 0.2941174999999987,
          "durationTicks": 48,
          "midi": 62,
          "name": "D4",
          "ticks": 38064,
          "time": 233.23517750000002,
          "velocity": 0.7874015748031497
        },
        {
          "duration": 0.2941174999999987,
          "durationTicks": 48,
          "midi": 57,
          "name": "A3",
          "ticks": 38064,
          "time": 233.23517750000002,
          "velocity": 0.7874015748031497
        },
        {
          "duration": 0.2941174999999987,
          "durationTicks": 48,
          "midi": 62,
          "name": "D4",
          "ticks": 38112,
          "time": 233.52929500000002,
          "velocity": 0.7874015748031497
        },
        {
          "duration": 0.2941174999999987,
          "durationTicks": 48,
          "midi": 57,
          "name": "A3",
          "ticks": 38112,
          "time": 233.52929500000002,
          "velocity": 0.7874015748031497
        },
        {
          "duration": 0.2941174999999987,
          "durationTicks": 48,
          "midi": 74,
          "name": "D5",
          "ticks": 38112,
          "time": 233.52929500000002,
          "velocity": 0.6377952755905512
        },
        {
          "duration": 0.2941174999999987,
          "durationTicks": 48,
          "midi": 72,
          "name": "C5",
          "ticks": 38160,
          "time": 233.82341250000002,
          "velocity": 0.6377952755905512
        },
        {
          "duration": 0.2941174999999987,
          "durationTicks": 48,
          "midi": 55,
          "name": "G3",
          "ticks": 38160,
          "time": 233.82341250000002,
          "velocity": 0.7874015748031497
        },
        {
          "duration": 0.2941174999999987,
          "durationTicks": 48,
          "midi": 60,
          "name": "C4",
          "ticks": 38160,
          "time": 233.82341250000002,
          "velocity": 0.7874015748031497
        },
        {
          "duration": 0.2941174999999987,
          "durationTicks": 48,
          "midi": 70,
          "name": "A#4",
          "ticks": 38208,
          "time": 234.11753000000002,
          "velocity": 0.6377952755905512
        },
        {
          "duration": 0.2941174999999987,
          "durationTicks": 48,
          "midi": 55,
          "name": "G3",
          "ticks": 38208,
          "time": 234.11753000000002,
          "velocity": 0.7874015748031497
        },
        {
          "duration": 0.2941174999999987,
          "durationTicks": 48,
          "midi": 58,
          "name": "A#3",
          "ticks": 38208,
          "time": 234.11753000000002,
          "velocity": 0.7874015748031497
        },
        {
          "duration": 0.8823525000000245,
          "durationTicks": 144,
          "midi": 58,
          "name": "A#3",
          "ticks": 38256,
          "time": 234.41164750000002,
          "velocity": 0.7874015748031497
        },
        {
          "duration": 0.8823525000000245,
          "durationTicks": 144,
          "midi": 62,
          "name": "D4",
          "ticks": 38256,
          "time": 234.41164750000002,
          "velocity": 0.7874015748031497
        },
        {
          "duration": 0.8823525000000245,
          "durationTicks": 144,
          "midi": 74,
          "name": "D5",
          "ticks": 38256,
          "time": 234.41164750000002,
          "velocity": 0.6377952755905512
        },
        {
          "duration": 0.2941174999999987,
          "durationTicks": 48,
          "midi": 62,
          "name": "D4",
          "ticks": 38448,
          "time": 235.58811750000004,
          "velocity": 0.7874015748031497
        },
        {
          "duration": 0.2941174999999987,
          "durationTicks": 48,
          "midi": 57,
          "name": "A3",
          "ticks": 38448,
          "time": 235.58811750000004,
          "velocity": 0.7874015748031497
        },
        {
          "duration": 0.2941174999999987,
          "durationTicks": 48,
          "midi": 74,
          "name": "D5",
          "ticks": 38448,
          "time": 235.58811750000004,
          "velocity": 0.6377952755905512
        },
        {
          "duration": 0.2941174999999987,
          "durationTicks": 48,
          "midi": 74,
          "name": "D5",
          "ticks": 38496,
          "time": 235.88223500000004,
          "velocity": 0.6377952755905512
        },
        {
          "duration": 0.2941174999999987,
          "durationTicks": 48,
          "midi": 57,
          "name": "A3",
          "ticks": 38496,
          "time": 235.88223500000004,
          "velocity": 0.7874015748031497
        },
        {
          "duration": 0.2941174999999987,
          "durationTicks": 48,
          "midi": 62,
          "name": "D4",
          "ticks": 38496,
          "time": 235.88223500000004,
          "velocity": 0.7874015748031497
        },
        {
          "duration": 0.2941174999999987,
          "durationTicks": 48,
          "midi": 75,
          "name": "D#5",
          "ticks": 38544,
          "time": 236.17635250000004,
          "velocity": 0.6377952755905512
        },
        {
          "duration": 0.2941174999999987,
          "durationTicks": 48,
          "midi": 63,
          "name": "D#4",
          "ticks": 38544,
          "time": 236.17635250000004,
          "velocity": 0.7874015748031497
        },
        {
          "duration": 0.2941174999999987,
          "durationTicks": 48,
          "midi": 58,
          "name": "A#3",
          "ticks": 38544,
          "time": 236.17635250000004,
          "velocity": 0.7874015748031497
        },
        {
          "duration": 0.2941174999999987,
          "durationTicks": 48,
          "midi": 53,
          "name": "F3",
          "ticks": 38592,
          "time": 236.47047000000003,
          "velocity": 0.7874015748031497
        },
        {
          "duration": 0.2941174999999987,
          "durationTicks": 48,
          "midi": 58,
          "name": "A#3",
          "ticks": 38592,
          "time": 236.47047000000003,
          "velocity": 0.7874015748031497
        },
        {
          "duration": 0.2941174999999987,
          "durationTicks": 48,
          "midi": 70,
          "name": "A#4",
          "ticks": 38592,
          "time": 236.47047000000003,
          "velocity": 0.6377952755905512
        },
        {
          "duration": 0.5882349999999974,
          "durationTicks": 96,
          "midi": 58,
          "name": "A#3",
          "ticks": 38640,
          "time": 236.76458750000003,
          "velocity": 0.7874015748031497
        },
        {
          "duration": 0.5882349999999974,
          "durationTicks": 96,
          "midi": 53,
          "name": "F3",
          "ticks": 38640,
          "time": 236.76458750000003,
          "velocity": 0.7874015748031497
        },
        {
          "duration": 0.5882349999999974,
          "durationTicks": 96,
          "midi": 70,
          "name": "A#4",
          "ticks": 38640,
          "time": 236.76458750000003,
          "velocity": 0.6377952755905512
        },
        {
          "duration": 0.5882349999999974,
          "durationTicks": 96,
          "midi": 60,
          "name": "C4",
          "ticks": 38736,
          "time": 237.35282250000003,
          "velocity": 0.7874015748031497
        },
        {
          "duration": 0.5882349999999974,
          "durationTicks": 96,
          "midi": 55,
          "name": "G3",
          "ticks": 38736,
          "time": 237.35282250000003,
          "velocity": 0.7874015748031497
        },
        {
          "duration": 0.5882349999999974,
          "durationTicks": 96,
          "midi": 72,
          "name": "C5",
          "ticks": 38736,
          "time": 237.35282250000003,
          "velocity": 0.6377952755905512
        },
        {
          "duration": 1.1764699999999948,
          "durationTicks": 192,
          "midi": 82,
          "name": "A#5",
          "ticks": 38832,
          "time": 237.94105750000003,
          "velocity": 0.6377952755905512
        },
        {
          "duration": 1.1764699999999948,
          "durationTicks": 192,
          "midi": 58,
          "name": "A#3",
          "ticks": 38832,
          "time": 237.94105750000003,
          "velocity": 0.7874015748031497
        },
        {
          "duration": 1.1764699999999948,
          "durationTicks": 192,
          "midi": 62,
          "name": "D4",
          "ticks": 38832,
          "time": 237.94105750000003,
          "velocity": 0.7874015748031497
        },
        {
          "duration": 1.1764699999999948,
          "durationTicks": 192,
          "midi": 60,
          "name": "C4",
          "ticks": 39024,
          "time": 239.11752750000002,
          "velocity": 0.7874015748031497
        },
        {
          "duration": 1.1764699999999948,
          "durationTicks": 192,
          "midi": 55,
          "name": "G3",
          "ticks": 39024,
          "time": 239.11752750000002,
          "velocity": 0.7874015748031497
        },
        {
          "duration": 1.1764699999999948,
          "durationTicks": 192,
          "midi": 81,
          "name": "A5",
          "ticks": 39024,
          "time": 239.11752750000002,
          "velocity": 0.6377952755905512
        },
        {
          "duration": 0.2941174999999987,
          "durationTicks": 48,
          "midi": 74,
          "name": "D5",
          "ticks": 39216,
          "time": 240.29399750000002,
          "velocity": 0.6377952755905512
        },
        {
          "duration": 0.2941174999999987,
          "durationTicks": 48,
          "midi": 57,
          "name": "A3",
          "ticks": 39216,
          "time": 240.29399750000002,
          "velocity": 0.7874015748031497
        },
        {
          "duration": 0.2941174999999987,
          "durationTicks": 48,
          "midi": 62,
          "name": "D4",
          "ticks": 39216,
          "time": 240.29399750000002,
          "velocity": 0.7874015748031497
        },
        {
          "duration": 0.2941174999999987,
          "durationTicks": 48,
          "midi": 57,
          "name": "A3",
          "ticks": 39264,
          "time": 240.58811500000002,
          "velocity": 0.7874015748031497
        },
        {
          "duration": 0.2941174999999987,
          "durationTicks": 48,
          "midi": 62,
          "name": "D4",
          "ticks": 39264,
          "time": 240.58811500000002,
          "velocity": 0.7874015748031497
        },
        {
          "duration": 0.2941174999999987,
          "durationTicks": 48,
          "midi": 74,
          "name": "D5",
          "ticks": 39264,
          "time": 240.58811500000002,
          "velocity": 0.6377952755905512
        },
        {
          "duration": 0.2941174999999987,
          "durationTicks": 48,
          "midi": 72,
          "name": "C5",
          "ticks": 39312,
          "time": 240.88223250000001,
          "velocity": 0.6377952755905512
        },
        {
          "duration": 0.2941174999999987,
          "durationTicks": 48,
          "midi": 60,
          "name": "C4",
          "ticks": 39312,
          "time": 240.88223250000001,
          "velocity": 0.7874015748031497
        },
        {
          "duration": 0.2941174999999987,
          "durationTicks": 48,
          "midi": 55,
          "name": "G3",
          "ticks": 39312,
          "time": 240.88223250000001,
          "velocity": 0.7874015748031497
        },
        {
          "duration": 0.2941174999999987,
          "durationTicks": 48,
          "midi": 70,
          "name": "A#4",
          "ticks": 39360,
          "time": 241.17635,
          "velocity": 0.6377952755905512
        },
        {
          "duration": 0.2941174999999987,
          "durationTicks": 48,
          "midi": 55,
          "name": "G3",
          "ticks": 39360,
          "time": 241.17635,
          "velocity": 0.7874015748031497
        },
        {
          "duration": 0.2941174999999987,
          "durationTicks": 48,
          "midi": 58,
          "name": "A#3",
          "ticks": 39360,
          "time": 241.17635,
          "velocity": 0.7874015748031497
        },
        {
          "duration": 0.8823525000000245,
          "durationTicks": 144,
          "midi": 74,
          "name": "D5",
          "ticks": 39408,
          "time": 241.4704675,
          "velocity": 0.6377952755905512
        },
        {
          "duration": 0.8823525000000245,
          "durationTicks": 144,
          "midi": 58,
          "name": "A#3",
          "ticks": 39408,
          "time": 241.4704675,
          "velocity": 0.7874015748031497
        },
        {
          "duration": 0.8823525000000245,
          "durationTicks": 144,
          "midi": 62,
          "name": "D4",
          "ticks": 39408,
          "time": 241.4704675,
          "velocity": 0.7874015748031497
        },
        {
          "duration": 0.2941174999999987,
          "durationTicks": 48,
          "midi": 60,
          "name": "C4",
          "ticks": 39600,
          "time": 242.64693750000004,
          "velocity": 0.7874015748031497
        },
        {
          "duration": 0.2941174999999987,
          "durationTicks": 48,
          "midi": 76,
          "name": "E5",
          "ticks": 39600,
          "time": 242.64693750000004,
          "velocity": 0.6377952755905512
        },
        {
          "duration": 0.2941174999999987,
          "durationTicks": 48,
          "midi": 64,
          "name": "E4",
          "ticks": 39600,
          "time": 242.64693750000004,
          "velocity": 0.7874015748031497
        },
        {
          "duration": 0.2941174999999987,
          "durationTicks": 48,
          "midi": 60,
          "name": "C4",
          "ticks": 39648,
          "time": 242.94105500000003,
          "velocity": 0.7874015748031497
        },
        {
          "duration": 0.2941174999999987,
          "durationTicks": 48,
          "midi": 65,
          "name": "F4",
          "ticks": 39648,
          "time": 242.94105500000003,
          "velocity": 0.7874015748031497
        },
        {
          "duration": 0.2941174999999987,
          "durationTicks": 48,
          "midi": 77,
          "name": "F5",
          "ticks": 39648,
          "time": 242.94105500000003,
          "velocity": 0.6377952755905512
        },
        {
          "duration": 0.2941174999999987,
          "durationTicks": 48,
          "midi": 60,
          "name": "C4",
          "ticks": 39696,
          "time": 243.23517250000003,
          "velocity": 0.7874015748031497
        },
        {
          "duration": 0.2941174999999987,
          "durationTicks": 48,
          "midi": 76,
          "name": "E5",
          "ticks": 39696,
          "time": 243.23517250000003,
          "velocity": 0.6377952755905512
        },
        {
          "duration": 0.2941174999999987,
          "durationTicks": 48,
          "midi": 64,
          "name": "E4",
          "ticks": 39696,
          "time": 243.23517250000003,
          "velocity": 0.7874015748031497
        },
        {
          "duration": 0.2941174999999987,
          "durationTicks": 48,
          "midi": 70,
          "name": "A#4",
          "ticks": 39744,
          "time": 243.52929000000003,
          "velocity": 0.6377952755905512
        },
        {
          "duration": 0.2941174999999987,
          "durationTicks": 48,
          "midi": 55,
          "name": "G3",
          "ticks": 39744,
          "time": 243.52929000000003,
          "velocity": 0.7874015748031497
        },
        {
          "duration": 0.2941174999999987,
          "durationTicks": 48,
          "midi": 58,
          "name": "A#3",
          "ticks": 39744,
          "time": 243.52929000000003,
          "velocity": 0.7874015748031497
        },
        {
          "duration": 0.8823524999999961,
          "durationTicks": 144,
          "midi": 58,
          "name": "A#3",
          "ticks": 39792,
          "time": 243.82340750000003,
          "velocity": 0.7874015748031497
        },
        {
          "duration": 0.8823524999999961,
          "durationTicks": 144,
          "midi": 62,
          "name": "D4",
          "ticks": 39792,
          "time": 243.82340750000003,
          "velocity": 0.7874015748031497
        },
        {
          "duration": 0.8823524999999961,
          "durationTicks": 144,
          "midi": 74,
          "name": "D5",
          "ticks": 39792,
          "time": 243.82340750000003,
          "velocity": 0.6377952755905512
        },
        {
          "duration": 0.2941174999999987,
          "durationTicks": 48,
          "midi": 64,
          "name": "E4",
          "ticks": 39984,
          "time": 244.99987750000003,
          "velocity": 0.7874015748031497
        },
        {
          "duration": 0.2941174999999987,
          "durationTicks": 48,
          "midi": 59,
          "name": "B3",
          "ticks": 39984,
          "time": 244.99987750000003,
          "velocity": 0.7874015748031497
        },
        {
          "duration": 0.2941174999999987,
          "durationTicks": 48,
          "midi": 76,
          "name": "E5",
          "ticks": 39984,
          "time": 244.99987750000003,
          "velocity": 0.6377952755905512
        },
        {
          "duration": 0.2941174999999987,
          "durationTicks": 48,
          "midi": 63,
          "name": "D#4",
          "ticks": 40032,
          "time": 245.29399500000002,
          "velocity": 0.7874015748031497
        },
        {
          "duration": 0.2941174999999987,
          "durationTicks": 48,
          "midi": 67,
          "name": "G4",
          "ticks": 40032,
          "time": 245.29399500000002,
          "velocity": 0.7874015748031497
        },
        {
          "duration": 0.2941174999999987,
          "durationTicks": 48,
          "midi": 79,
          "name": "G5",
          "ticks": 40032,
          "time": 245.29399500000002,
          "velocity": 0.6377952755905512
        },
        {
          "duration": 0.2941174999999987,
          "durationTicks": 48,
          "midi": 63,
          "name": "D#4",
          "ticks": 40080,
          "time": 245.58811250000002,
          "velocity": 0.7874015748031497
        },
        {
          "duration": 0.2941174999999987,
          "durationTicks": 48,
          "midi": 67,
          "name": "G4",
          "ticks": 40080,
          "time": 245.58811250000002,
          "velocity": 0.7874015748031497
        },
        {
          "duration": 0.2941174999999987,
          "durationTicks": 48,
          "midi": 79,
          "name": "G5",
          "ticks": 40080,
          "time": 245.58811250000002,
          "velocity": 0.6377952755905512
        },
        {
          "duration": 0.2941174999999987,
          "durationTicks": 48,
          "midi": 63,
          "name": "D#4",
          "ticks": 40128,
          "time": 245.88223000000002,
          "velocity": 0.7874015748031497
        },
        {
          "duration": 0.2941174999999987,
          "durationTicks": 48,
          "midi": 67,
          "name": "G4",
          "ticks": 40128,
          "time": 245.88223000000002,
          "velocity": 0.7874015748031497
        },
        {
          "duration": 0.2941174999999987,
          "durationTicks": 48,
          "midi": 79,
          "name": "G5",
          "ticks": 40128,
          "time": 245.88223000000002,
          "velocity": 0.6377952755905512
        },
        {
          "duration": 0.5882349999999974,
          "durationTicks": 96,
          "midi": 67,
          "name": "G4",
          "ticks": 40176,
          "time": 246.17634750000002,
          "velocity": 0.7874015748031497
        },
        {
          "duration": 0.5882349999999974,
          "durationTicks": 96,
          "midi": 63,
          "name": "D#4",
          "ticks": 40176,
          "time": 246.17634750000002,
          "velocity": 0.7874015748031497
        },
        {
          "duration": 0.5882349999999974,
          "durationTicks": 96,
          "midi": 79,
          "name": "G5",
          "ticks": 40176,
          "time": 246.17634750000002,
          "velocity": 0.6377952755905512
        },
        {
          "duration": 0.5882349999999974,
          "durationTicks": 96,
          "midi": 77,
          "name": "F5",
          "ticks": 40272,
          "time": 246.76458250000002,
          "velocity": 0.6377952755905512
        },
        {
          "duration": 0.5882349999999974,
          "durationTicks": 96,
          "midi": 65,
          "name": "F4",
          "ticks": 40272,
          "time": 246.76458250000002,
          "velocity": 0.7874015748031497
        },
        {
          "duration": 0.5882349999999974,
          "durationTicks": 96,
          "midi": 60,
          "name": "C4",
          "ticks": 40272,
          "time": 246.76458250000002,
          "velocity": 0.7874015748031497
        },
        {
          "duration": 2.352940000000018,
          "durationTicks": 384,
          "midi": 63,
          "name": "D#4",
          "ticks": 40368,
          "time": 247.35281750000001,
          "velocity": 0.7874015748031497
        },
        {
          "duration": 2.352940000000018,
          "durationTicks": 384,
          "midi": 79,
          "name": "G5",
          "ticks": 40368,
          "time": 247.35281750000001,
          "velocity": 0.6377952755905512
        },
        {
          "duration": 2.352940000000018,
          "durationTicks": 384,
          "midi": 67,
          "name": "G4",
          "ticks": 40368,
          "time": 247.35281750000001,
          "velocity": 0.7874015748031497
        },
        {
          "duration": 0.2941174999999987,
          "durationTicks": 48,
          "midi": 55,
          "name": "G3",
          "ticks": 40752,
          "time": 249.70575750000003,
          "velocity": 0.7874015748031497
        },
        {
          "duration": 0.2941174999999987,
          "durationTicks": 48,
          "midi": 60,
          "name": "C4",
          "ticks": 40752,
          "time": 249.70575750000003,
          "velocity": 0.7874015748031497
        },
        {
          "duration": 0.2941174999999987,
          "durationTicks": 48,
          "midi": 72,
          "name": "C5",
          "ticks": 40752,
          "time": 249.70575750000003,
          "velocity": 0.6377952755905512
        },
        {
          "duration": 0.44117624999998384,
          "durationTicks": 72,
          "midi": 55,
          "name": "G3",
          "ticks": 40800,
          "time": 249.99987500000003,
          "velocity": 0.7874015748031497
        },
        {
          "duration": 0.44117624999998384,
          "durationTicks": 72,
          "midi": 62,
          "name": "D4",
          "ticks": 40800,
          "time": 249.99987500000003,
          "velocity": 0.7874015748031497
        },
        {
          "duration": 0.44117624999998384,
          "durationTicks": 72,
          "midi": 74,
          "name": "D5",
          "ticks": 40800,
          "time": 249.99987500000003,
          "velocity": 0.6377952755905512
        },
        {
          "duration": 0.44117625000001226,
          "durationTicks": 72,
          "midi": 72,
          "name": "C5",
          "ticks": 40872,
          "time": 250.44105125000002,
          "velocity": 0.6377952755905512
        },
        {
          "duration": 0.44117625000001226,
          "durationTicks": 72,
          "midi": 60,
          "name": "C4",
          "ticks": 40872,
          "time": 250.44105125000002,
          "velocity": 0.7874015748031497
        },
        {
          "duration": 0.44117625000001226,
          "durationTicks": 72,
          "midi": 55,
          "name": "G3",
          "ticks": 40872,
          "time": 250.44105125000002,
          "velocity": 0.7874015748031497
        },
        {
          "duration": 0.5882349999999974,
          "durationTicks": 96,
          "midi": 55,
          "name": "G3",
          "ticks": 40944,
          "time": 250.88222750000003,
          "velocity": 0.7874015748031497
        },
        {
          "duration": 0.5882349999999974,
          "durationTicks": 96,
          "midi": 58,
          "name": "A#3",
          "ticks": 40944,
          "time": 250.88222750000003,
          "velocity": 0.7874015748031497
        },
        {
          "duration": 0.5882349999999974,
          "durationTicks": 96,
          "midi": 70,
          "name": "A#4",
          "ticks": 40944,
          "time": 250.88222750000003,
          "velocity": 0.6377952755905512
        },
        {
          "duration": 0.2941174999999987,
          "durationTicks": 48,
          "midi": 55,
          "name": "G3",
          "ticks": 41040,
          "time": 251.47046250000002,
          "velocity": 0.7874015748031497
        },
        {
          "duration": 0.2941174999999987,
          "durationTicks": 48,
          "midi": 58,
          "name": "A#3",
          "ticks": 41040,
          "time": 251.47046250000002,
          "velocity": 0.7874015748031497
        },
        {
          "duration": 0.2941174999999987,
          "durationTicks": 48,
          "midi": 70,
          "name": "A#4",
          "ticks": 41040,
          "time": 251.47046250000002,
          "velocity": 0.6377952755905512
        },
        {
          "duration": 0.2941174999999987,
          "durationTicks": 48,
          "midi": 55,
          "name": "G3",
          "ticks": 41088,
          "time": 251.76458000000002,
          "velocity": 0.7874015748031497
        },
        {
          "duration": 0.2941174999999987,
          "durationTicks": 48,
          "midi": 58,
          "name": "A#3",
          "ticks": 41088,
          "time": 251.76458000000002,
          "velocity": 0.7874015748031497
        },
        {
          "duration": 0.2941174999999987,
          "durationTicks": 48,
          "midi": 70,
          "name": "A#4",
          "ticks": 41088,
          "time": 251.76458000000002,
          "velocity": 0.6377952755905512
        },
        {
          "duration": 0.2941174999999987,
          "durationTicks": 48,
          "midi": 72,
          "name": "C5",
          "ticks": 41136,
          "time": 252.05869750000002,
          "velocity": 0.6377952755905512
        },
        {
          "duration": 0.2941174999999987,
          "durationTicks": 48,
          "midi": 60,
          "name": "C4",
          "ticks": 41136,
          "time": 252.05869750000002,
          "velocity": 0.7874015748031497
        },
        {
          "duration": 0.2941174999999987,
          "durationTicks": 48,
          "midi": 55,
          "name": "G3",
          "ticks": 41136,
          "time": 252.05869750000002,
          "velocity": 0.7874015748031497
        },
        {
          "duration": 0.44117625000001226,
          "durationTicks": 72,
          "midi": 74,
          "name": "D5",
          "ticks": 41184,
          "time": 252.35281500000002,
          "velocity": 0.6377952755905512
        },
        {
          "duration": 0.44117625000001226,
          "durationTicks": 72,
          "midi": 62,
          "name": "D4",
          "ticks": 41184,
          "time": 252.35281500000002,
          "velocity": 0.7874015748031497
        },
        {
          "duration": 0.44117625000001226,
          "durationTicks": 72,
          "midi": 57,
          "name": "A3",
          "ticks": 41184,
          "time": 252.35281500000002,
          "velocity": 0.7874015748031497
        },
        {
          "duration": 0.44117624999998384,
          "durationTicks": 72,
          "midi": 72,
          "name": "C5",
          "ticks": 41256,
          "time": 252.79399125000003,
          "velocity": 0.6377952755905512
        },
        {
          "duration": 0.44117624999998384,
          "durationTicks": 72,
          "midi": 57,
          "name": "A3",
          "ticks": 41256,
          "time": 252.79399125000003,
          "velocity": 0.7874015748031497
        },
        {
          "duration": 0.44117624999998384,
          "durationTicks": 72,
          "midi": 60,
          "name": "C4",
          "ticks": 41256,
          "time": 252.79399125000003,
          "velocity": 0.7874015748031497
        },
        {
          "duration": 0.5882349999999974,
          "durationTicks": 96,
          "midi": 72,
          "name": "C5",
          "ticks": 41328,
          "time": 253.23516750000002,
          "velocity": 0.6377952755905512
        },
        {
          "duration": 0.5882349999999974,
          "durationTicks": 96,
          "midi": 57,
          "name": "A3",
          "ticks": 41328,
          "time": 253.23516750000002,
          "velocity": 0.7874015748031497
        },
        {
          "duration": 0.5882349999999974,
          "durationTicks": 96,
          "midi": 60,
          "name": "C4",
          "ticks": 41328,
          "time": 253.23516750000002,
          "velocity": 0.7874015748031497
        },
        {
          "duration": 0.2941174999999987,
          "durationTicks": 48,
          "midi": 72,
          "name": "C5",
          "ticks": 41424,
          "time": 253.82340250000001,
          "velocity": 0.6377952755905512
        },
        {
          "duration": 0.2941174999999987,
          "durationTicks": 48,
          "midi": 60,
          "name": "C4",
          "ticks": 41424,
          "time": 253.82340250000001,
          "velocity": 0.7874015748031497
        },
        {
          "duration": 0.2941174999999987,
          "durationTicks": 48,
          "midi": 57,
          "name": "A3",
          "ticks": 41424,
          "time": 253.82340250000001,
          "velocity": 0.7874015748031497
        },
        {
          "duration": 0.2941175000000271,
          "durationTicks": 48,
          "midi": 72,
          "name": "C5",
          "ticks": 41472,
          "time": 254.11752,
          "velocity": 0.6377952755905512
        },
        {
          "duration": 0.2941175000000271,
          "durationTicks": 48,
          "midi": 57,
          "name": "A3",
          "ticks": 41472,
          "time": 254.11752,
          "velocity": 0.7874015748031497
        },
        {
          "duration": 0.2941175000000271,
          "durationTicks": 48,
          "midi": 60,
          "name": "C4",
          "ticks": 41472,
          "time": 254.11752,
          "velocity": 0.7874015748031497
        },
        {
          "duration": 0.2941174999999987,
          "durationTicks": 48,
          "midi": 74,
          "name": "D5",
          "ticks": 41520,
          "time": 254.41163750000004,
          "velocity": 0.6377952755905512
        },
        {
          "duration": 0.2941174999999987,
          "durationTicks": 48,
          "midi": 57,
          "name": "A3",
          "ticks": 41520,
          "time": 254.41163750000004,
          "velocity": 0.7874015748031497
        },
        {
          "duration": 0.2941174999999987,
          "durationTicks": 48,
          "midi": 62,
          "name": "D4",
          "ticks": 41520,
          "time": 254.41163750000004,
          "velocity": 0.7874015748031497
        },
        {
          "duration": 0.2941174999999987,
          "durationTicks": 48,
          "midi": 62,
          "name": "D4",
          "ticks": 41568,
          "time": 254.70575500000004,
          "velocity": 0.7874015748031497
        },
        {
          "duration": 0.2941174999999987,
          "durationTicks": 48,
          "midi": 74,
          "name": "D5",
          "ticks": 41568,
          "time": 254.70575500000004,
          "velocity": 0.6377952755905512
        },
        {
          "duration": 0.2941174999999987,
          "durationTicks": 48,
          "midi": 58,
          "name": "A#3",
          "ticks": 41568,
          "time": 254.70575500000004,
          "velocity": 0.7874015748031497
        },
        {
          "duration": 0.2941174999999987,
          "durationTicks": 48,
          "midi": 75,
          "name": "D#5",
          "ticks": 41616,
          "time": 254.99987250000004,
          "velocity": 0.6377952755905512
        },
        {
          "duration": 0.2941174999999987,
          "durationTicks": 48,
          "midi": 63,
          "name": "D#4",
          "ticks": 41616,
          "time": 254.99987250000004,
          "velocity": 0.7874015748031497
        },
        {
          "duration": 0.2941174999999987,
          "durationTicks": 48,
          "midi": 58,
          "name": "A#3",
          "ticks": 41616,
          "time": 254.99987250000004,
          "velocity": 0.7874015748031497
        },
        {
          "duration": 0.2941174999999987,
          "durationTicks": 48,
          "midi": 74,
          "name": "D5",
          "ticks": 41664,
          "time": 255.29399000000004,
          "velocity": 0.6377952755905512
        },
        {
          "duration": 0.2941174999999987,
          "durationTicks": 48,
          "midi": 62,
          "name": "D4",
          "ticks": 41664,
          "time": 255.29399000000004,
          "velocity": 0.7874015748031497
        },
        {
          "duration": 0.2941174999999987,
          "durationTicks": 48,
          "midi": 58,
          "name": "A#3",
          "ticks": 41664,
          "time": 255.29399000000004,
          "velocity": 0.7874015748031497
        },
        {
          "duration": 0.5882349999999974,
          "durationTicks": 96,
          "midi": 62,
          "name": "D4",
          "ticks": 41712,
          "time": 255.58810750000004,
          "velocity": 0.7874015748031497
        },
        {
          "duration": 0.5882349999999974,
          "durationTicks": 96,
          "midi": 58,
          "name": "A#3",
          "ticks": 41712,
          "time": 255.58810750000004,
          "velocity": 0.7874015748031497
        },
        {
          "duration": 0.5882349999999974,
          "durationTicks": 96,
          "midi": 74,
          "name": "D5",
          "ticks": 41712,
          "time": 255.58810750000004,
          "velocity": 0.6377952755905512
        },
        {
          "duration": 0.2941174999999703,
          "durationTicks": 48,
          "midi": 74,
          "name": "D5",
          "ticks": 41808,
          "time": 256.17634250000003,
          "velocity": 0.6377952755905512
        },
        {
          "duration": 0.2941174999999703,
          "durationTicks": 48,
          "midi": 62,
          "name": "D4",
          "ticks": 41808,
          "time": 256.17634250000003,
          "velocity": 0.7874015748031497
        },
        {
          "duration": 0.2941174999999703,
          "durationTicks": 48,
          "midi": 58,
          "name": "A#3",
          "ticks": 41808,
          "time": 256.17634250000003,
          "velocity": 0.7874015748031497
        },
        {
          "duration": 0.2941175000000271,
          "durationTicks": 48,
          "midi": 74,
          "name": "D5",
          "ticks": 41856,
          "time": 256.47046,
          "velocity": 0.6377952755905512
        },
        {
          "duration": 0.2941175000000271,
          "durationTicks": 48,
          "midi": 58,
          "name": "A#3",
          "ticks": 41856,
          "time": 256.47046,
          "velocity": 0.7874015748031497
        },
        {
          "duration": 0.2941175000000271,
          "durationTicks": 48,
          "midi": 62,
          "name": "D4",
          "ticks": 41856,
          "time": 256.47046,
          "velocity": 0.7874015748031497
        },
        {
          "duration": 0.2941174999999703,
          "durationTicks": 48,
          "midi": 58,
          "name": "A#3",
          "ticks": 41904,
          "time": 256.76457750000003,
          "velocity": 0.7874015748031497
        },
        {
          "duration": 0.2941174999999703,
          "durationTicks": 48,
          "midi": 62,
          "name": "D4",
          "ticks": 41904,
          "time": 256.76457750000003,
          "velocity": 0.7874015748031497
        },
        {
          "duration": 0.2941174999999703,
          "durationTicks": 48,
          "midi": 74,
          "name": "D5",
          "ticks": 41904,
          "time": 256.76457750000003,
          "velocity": 0.6377952755905512
        },
        {
          "duration": 0.44117625000001226,
          "durationTicks": 72,
          "midi": 79,
          "name": "G5",
          "ticks": 41952,
          "time": 257.058695,
          "velocity": 0.6377952755905512
        },
        {
          "duration": 0.44117625000001226,
          "durationTicks": 72,
          "midi": 62,
          "name": "D4",
          "ticks": 41952,
          "time": 257.058695,
          "velocity": 0.7874015748031497
        },
        {
          "duration": 0.44117625000001226,
          "durationTicks": 72,
          "midi": 67,
          "name": "G4",
          "ticks": 41952,
          "time": 257.058695,
          "velocity": 0.7874015748031497
        },
        {
          "duration": 0.44117625000001226,
          "durationTicks": 72,
          "midi": 79,
          "name": "G5",
          "ticks": 42024,
          "time": 257.49987125,
          "velocity": 0.6377952755905512
        },
        {
          "duration": 0.44117625000001226,
          "durationTicks": 72,
          "midi": 67,
          "name": "G4",
          "ticks": 42024,
          "time": 257.49987125,
          "velocity": 0.7874015748031497
        },
        {
          "duration": 0.44117625000001226,
          "durationTicks": 72,
          "midi": 62,
          "name": "D4",
          "ticks": 42024,
          "time": 257.49987125,
          "velocity": 0.7874015748031497
        },
        {
          "duration": 1.470587500000022,
          "durationTicks": 240,
          "midi": 70,
          "name": "A#4",
          "ticks": 42096,
          "time": 257.9410475,
          "velocity": 0.7874015748031497
        },
        {
          "duration": 1.470587500000022,
          "durationTicks": 240,
          "midi": 65,
          "name": "F4",
          "ticks": 42096,
          "time": 257.9410475,
          "velocity": 0.7874015748031497
        },
        {
          "duration": 1.470587500000022,
          "durationTicks": 240,
          "midi": 82,
          "name": "A#5",
          "ticks": 42096,
          "time": 257.9410475,
          "velocity": 0.6377952755905512
        },
        {
          "duration": 2.3529399999999896,
          "durationTicks": 384,
          "midi": 69,
          "name": "A4",
          "ticks": 42336,
          "time": 259.41163500000005,
          "velocity": 0.7874015748031497
        },
        {
          "duration": 2.3529399999999896,
          "durationTicks": 384,
          "midi": 81,
          "name": "A5",
          "ticks": 42336,
          "time": 259.41163500000005,
          "velocity": 0.6377952755905512
        },
        {
          "duration": 2.3529399999999896,
          "durationTicks": 384,
          "midi": 65,
          "name": "F4",
          "ticks": 42336,
          "time": 259.41163500000005,
          "velocity": 0.7874015748031497
        },
        {
          "duration": 2.3529399999999896,
          "durationTicks": 384,
          "midi": 63,
          "name": "D#4",
          "ticks": 42720,
          "time": 261.76457500000004,
          "velocity": 0.7874015748031497
        },
        {
          "duration": 2.3529399999999896,
          "durationTicks": 384,
          "midi": 67,
          "name": "G4",
          "ticks": 42720,
          "time": 261.76457500000004,
          "velocity": 0.7874015748031497
        },
        {
          "duration": 2.3529399999999896,
          "durationTicks": 384,
          "midi": 79,
          "name": "G5",
          "ticks": 42720,
          "time": 261.76457500000004,
          "velocity": 0.6377952755905512
        },
        {
          "duration": 0.2941174999999703,
          "durationTicks": 48,
          "midi": 79,
          "name": "G5",
          "ticks": 43536,
          "time": 266.76457250000004,
          "velocity": 0.6377952755905512
        },
        {
          "duration": 0.2941174999999703,
          "durationTicks": 48,
          "midi": 67,
          "name": "G4",
          "ticks": 43536,
          "time": 266.76457250000004,
          "velocity": 0.7874015748031497
        },
        {
          "duration": 0.2941174999999703,
          "durationTicks": 48,
          "midi": 62,
          "name": "D4",
          "ticks": 43536,
          "time": 266.76457250000004,
          "velocity": 0.7874015748031497
        },
        {
          "duration": 0.2941175000000271,
          "durationTicks": 48,
          "midi": 79,
          "name": "G5",
          "ticks": 43584,
          "time": 267.05869,
          "velocity": 0.6377952755905512
        },
        {
          "duration": 0.2941175000000271,
          "durationTicks": 48,
          "midi": 67,
          "name": "G4",
          "ticks": 43584,
          "time": 267.05869,
          "velocity": 0.7874015748031497
        },
        {
          "duration": 0.2941175000000271,
          "durationTicks": 48,
          "midi": 62,
          "name": "D4",
          "ticks": 43584,
          "time": 267.05869,
          "velocity": 0.7874015748031497
        },
        {
          "duration": 0.2941174999999703,
          "durationTicks": 48,
          "midi": 79,
          "name": "G5",
          "ticks": 43632,
          "time": 267.35280750000004,
          "velocity": 0.6377952755905512
        },
        {
          "duration": 0.2941174999999703,
          "durationTicks": 48,
          "midi": 62,
          "name": "D4",
          "ticks": 43632,
          "time": 267.35280750000004,
          "velocity": 0.7874015748031497
        },
        {
          "duration": 0.2941174999999703,
          "durationTicks": 48,
          "midi": 67,
          "name": "G4",
          "ticks": 43632,
          "time": 267.35280750000004,
          "velocity": 0.7874015748031497
        },
        {
          "duration": 0.5882349999999974,
          "durationTicks": 96,
          "midi": 67,
          "name": "G4",
          "ticks": 43680,
          "time": 267.646925,
          "velocity": 0.7874015748031497
        },
        {
          "duration": 0.5882349999999974,
          "durationTicks": 96,
          "midi": 62,
          "name": "D4",
          "ticks": 43680,
          "time": 267.646925,
          "velocity": 0.7874015748031497
        },
        {
          "duration": 0.5882349999999974,
          "durationTicks": 96,
          "midi": 79,
          "name": "G5",
          "ticks": 43680,
          "time": 267.646925,
          "velocity": 0.6377952755905512
        },
        {
          "duration": 0.5882349999999974,
          "durationTicks": 96,
          "midi": 79,
          "name": "G5",
          "ticks": 43776,
          "time": 268.23516,
          "velocity": 0.6377952755905512
        },
        {
          "duration": 0.5882349999999974,
          "durationTicks": 96,
          "midi": 62,
          "name": "D4",
          "ticks": 43776,
          "time": 268.23516,
          "velocity": 0.7874015748031497
        },
        {
          "duration": 0.5882349999999974,
          "durationTicks": 96,
          "midi": 67,
          "name": "G4",
          "ticks": 43776,
          "time": 268.23516,
          "velocity": 0.7874015748031497
        },
        {
          "duration": 2.3529400000000464,
          "durationTicks": 384,
          "midi": 65,
          "name": "F4",
          "ticks": 43872,
          "time": 268.823395,
          "velocity": 0.7874015748031497
        },
        {
          "duration": 2.3529400000000464,
          "durationTicks": 384,
          "midi": 82,
          "name": "A#5",
          "ticks": 43872,
          "time": 268.823395,
          "velocity": 0.6377952755905512
        },
        {
          "duration": 2.3529400000000464,
          "durationTicks": 384,
          "midi": 70,
          "name": "A#4",
          "ticks": 43872,
          "time": 268.823395,
          "velocity": 0.7874015748031497
        },
        {
          "duration": 1.7647049999999922,
          "durationTicks": 288,
          "midi": 65,
          "name": "F4",
          "ticks": 44256,
          "time": 271.17633500000005,
          "velocity": 0.7874015748031497
        },
        {
          "duration": 1.7647049999999922,
          "durationTicks": 288,
          "midi": 81,
          "name": "A5",
          "ticks": 44256,
          "time": 271.17633500000005,
          "velocity": 0.6377952755905512
        },
        {
          "duration": 1.7647049999999922,
          "durationTicks": 288,
          "midi": 69,
          "name": "A4",
          "ticks": 44256,
          "time": 271.17633500000005,
          "velocity": 0.7874015748031497
        },
        {
          "duration": 0.5882349999999974,
          "durationTicks": 96,
          "midi": 82,
          "name": "A#5",
          "ticks": 44544,
          "time": 272.94104000000004,
          "velocity": 0.6377952755905512
        },
        {
          "duration": 0.5882349999999974,
          "durationTicks": 96,
          "midi": 70,
          "name": "A#4",
          "ticks": 44544,
          "time": 272.94104000000004,
          "velocity": 0.7874015748031497
        },
        {
          "duration": 0.5882349999999974,
          "durationTicks": 96,
          "midi": 65,
          "name": "F4",
          "ticks": 44544,
          "time": 272.94104000000004,
          "velocity": 0.7874015748031497
        },
        {
          "duration": 2.3529399999999896,
          "durationTicks": 384,
          "midi": 62,
          "name": "D4",
          "ticks": 44640,
          "time": 273.52927500000004,
          "velocity": 0.7874015748031497
        },
        {
          "duration": 2.3529399999999896,
          "durationTicks": 384,
          "midi": 67,
          "name": "G4",
          "ticks": 44640,
          "time": 273.52927500000004,
          "velocity": 0.7874015748031497
        },
        {
          "duration": 2.3529399999999896,
          "durationTicks": 384,
          "midi": 79,
          "name": "G5",
          "ticks": 44640,
          "time": 273.52927500000004,
          "velocity": 0.6377952755905512
        }
      ]
    }
  ]
}